<?xml version="1.0" encoding="UTF-8" standalone="no"?>
<!-- Created with Inkscape (http://www.inkscape.org/) -->

<svg
   xmlns:dc="http://purl.org/dc/elements/1.1/"
   xmlns:cc="http://creativecommons.org/ns#"
   xmlns:rdf="http://www.w3.org/1999/02/22-rdf-syntax-ns#"
   xmlns:svg="http://www.w3.org/2000/svg"
   xmlns="http://www.w3.org/2000/svg"
   xmlns:inkscape="http://www.inkscape.org/namespaces/inkscape"
   version="1.0"
   width="420"
   height="210"
   viewBox="0 0 420 210"
   id="Ebene_2_Kopie"
   xml:space="preserve"><metadata
   id="metadata13"><rdf:RDF><cc:Work
       rdf:about=""><dc:format>image/svg+xml</dc:format><dc:type
         rdf:resource="http://purl.org/dc/dcmitype/StillImage" /></cc:Work></rdf:RDF></metadata><defs
   id="defs11" />
<path
   d="m 178.013,205.612 c -0.347,0 -0.7,-0.001 -1.052,-0.006 -19.587,-0.205 -33.709,-5.131 -43.165,-15.059 -5.758,-6.046 -9.536,-13.683 -11.46,-23.218 -6.794,2.622 -14.687,3.946 -23.559,3.947 -1.234,0 -2.503,-0.025 -3.771,-0.075 -16.57,-0.65 -28.998,-5.46 -36.936,-14.294 -11.524,-12.824 -10.333,-30.486 -9.621,-41.039 0,0 0.085,-1.268 0.119,-1.8 l 0.342,-5.374 c -7.093,0.249 -38.016,1.414 -38.016,1.414 l 0.161,-5.281 c 0.642,-21.076 3.314,-34.766 9.858,-50.51 l 1.122,-2.699 2.905,-0.314 c 30.114,-3.264 50.456,-5.092 78.062,-6.025 l 0.933,-0.031 c 0.996,-7.832 2.064,-15.683 3.212,-23.616 l 1.299,-8.98 50.75,-1.231 c 0,0 -1.843,27.279 -2.311,34.018 6.285,0.011 35.275,0.156 43.248,0.156 l -1.373,-39.469 61.812,1.404 5.894,20.18 c -0.042,-2.742 -0.101,-5.518 -0.174,-8.322 l -0.302,-11.593 62.286,3.137 2.226,7.166 c 0.021,0.066 1.57,6.857 4.457,18.21 5.2,0.391 11.065,0.627 13.094,0.772 0.938,0.066 1.954,0.121 3.033,0.18 7.48,0.404 17.673,0.957 27.408,5.568 7.617,3.607 18.25,12.492 25.248,26.611 5.6,11.296 11.089,33.48 3.26,48.298 -5.571,10.544 -19.046,17.629 -33.532,17.629 -0.237,0 -0.475,-0.001 -0.713,-0.005 -0.013,0 -0.025,-10e-4 -0.038,-10e-4 1.032,11.34 1.781,22.843 2.33,35.729 l 0.474,11.123 -49.618,0.342 c 0,0 -0.872,-22.447 -1.18,-28.193 l -91.813,0.042 c -0.938,32.58 -20.843,51.209 -54.899,51.209 l 0,0 z"
   inkscape:connector-curvature="0"
   id="path3" />
<path
   d="m 402.637,115.431 c -4.739,8.972 -16.461,14.999 -29.167,14.999 -0.211,0 -0.422,-0.002 -0.634,-0.005 -0.988,-0.017 -2.852,-0.078 -5.564,-0.184 1.301,13.054 2.215,26.277 2.845,41.059 l 0.256,6.012 -39.71,0.273 -0.207,-5.631 c -0.285,-7.774 -0.637,-15.253 -1.063,-22.549 l -25.174,0.103 -0.38,-5.421 c -0.902,-12.876 -2.016,-24.784 -3.188,-35.46 -1.116,12 -2.59,24.512 -4.531,36.02 l -0.816,4.84 h -34.68 l -1.082,-4.427 c -3.226,-13.188 -6.229,-25.189 -8.945,-35.868 0.538,10.948 1.002,22.627 1.288,34.348 l 0.145,5.956 -24.016,-0.036 c 10e-4,0.952 0,1.89 -0.002,2.792 -0.109,31.227 -17.865,48.425 -49.997,48.425 -0.328,0 -0.661,-0.002 -0.993,-0.006 -18.191,-0.19 -31.161,-4.616 -39.649,-13.527 -6.256,-6.568 -9.923,-15.497 -11.14,-27.105 -7.311,4.189 -16.488,6.303 -27.454,6.304 -1.164,0 -2.368,-0.024 -3.577,-0.071 -15.188,-0.597 -26.444,-4.856 -33.458,-12.661 -10.13,-11.273 -9.069,-27.001 -8.367,-37.408 0.042,-0.622 0.083,-1.229 0.12,-1.818 l 0.341,-5.36 42.469,-0.601 -0.458,6.313 c -0.195,2.696 -0.678,10.285 -0.57,12.991 0.055,1.374 1.084,3.078 1.65,3.289 1.825,-0.009 3.762,-0.009 4.247,-6.876 2.512,-35.615 5.962,-67.963 10.858,-101.8 l 0.702,-4.854 41.167,-0.999 c 0,0 -1.265,18.393 -2.304,33.807 l 22.431,-0.16 c 0,0 0.09,82.142 0.009,103.603 -0.012,3.217 -0.02,5.239 -0.02,5.645 0,1.641 1.335,2.975 2.976,2.975 1.64,0 2.975,-1.334 2.975,-2.975 0,-3.031 -0.077,-109.208 -0.077,-109.208 l 25.35,-0.047 -1.366,-38.945 52.969,1.203 14.239,48.752 c 0.414,-10.993 0.585,-24.936 0.143,-41.877 l -0.163,-6.265 53.521,2.696 1.202,3.872 c 0.064,0.206 2.468,8.026 5.744,21.237 6.083,0.458 13.667,1.026 16.17,1.205 0.975,0.07 2.032,0.127 3.156,0.188 7.032,0.381 16.665,0.902 25.523,5.098 6.869,3.254 16.501,11.357 22.938,24.342 4.952,9.987 10.231,30.712 3.318,43.797 z M 103.169,50.214 c -28.64,0.968 -50.023,2.999 -77.696,5.999 -6.676,16.062 -8.902,29.704 -9.482,48.766 31.059,-1.161 51.572,-2.032 81.47,-2.419 1.644,-17.997 3.676,-37.349 5.708,-52.346 z"
   inkscape:connector-curvature="0"
   id="path5"
   style="fill:#ffffff" />
<path
   d="m 394.117,74.209 c -5.611,-11.32 -14.041,-18.746 -20.222,-21.673 -9.192,-4.354 -19.835,-4.258 -26.608,-4.741 -4.444,-0.318 -24.576,-1.838 -24.576,-1.838 8.127,45.717 11.9,80.985 13.546,125.783 l 28.06,-0.193 c -0.704,-16.528 -1.798,-31.76 -3.521,-47.383 4.633,0.198 10.142,0.423 12.132,0.456 10.701,0.17 20.779,-4.714 24.576,-11.901 5.419,-10.257 1.495,-28.661 -3.387,-38.51 z m -22.786,21.602 c -0.764,2.915 -3.365,5.406 -6.205,5.406 l -7.267,0.032 c -1.385,-9.527 -3.022,-19.462 -4.961,-30.136 0,0 3.872,0.152 5.419,0.193 4.56,0.121 9.08,4.873 10.691,8.902 0.898,2.245 3.588,10.765 2.323,15.603 z M 316.994,46.973 c 6.272,35.281 9.948,64.355 12.042,96.629 l -19.407,0.079 c -3.851,-54.958 -11.446,-92.063 -11.446,-92.063 0,0 -1.016,51.91 -7.789,92.063 h -25.215 c -14.455,-59.118 -24.324,-93.95 -24.324,-93.95 0,0 4.063,46.346 5.225,93.95 l -18.097,-0.027 c -0.254,-29.719 -2.045,-75.721 -2.665,-87.905 l -0.285,-5.605 -14.148,0.061 -0.992,-33.08 42.573,0.967 21.915,75.035 c 0,0 3.958,-23.947 2.651,-74.019 l 43.212,2.177 c 0,0 2.171,6.99 5.212,19.059 -1.391,-0.105 -2.267,-0.172 -2.308,-0.174 l -7.463,-0.564 1.309,7.367 z m -97.475,8.576 c 0.653,12.845 2.786,67.872 2.685,96.682 -0.072,20.864 -8.62,43.02 -45.123,42.635 -33.999,-0.357 -45.514,-16.255 -45.514,-43.976 0,-33.094 1.887,-55.007 4.79,-94.387 0.78,-0.013 30.379,-0.478 31.875,-0.496 0.381,12.809 -0.018,100.433 -0.018,103.373 0,4.85 3.931,8.78 8.781,8.78 4.85,0 8.781,-3.931 8.781,-8.78 0,-3.031 -0.073,-103.487 -0.073,-103.487 0,0 30.686,-0.29 33.816,-0.344 z m -93.757,95.341 c 0,0.865 0.017,1.711 0.038,2.552 -6.732,4.715 -16.411,7.575 -30.372,7.026 C 54.79,158.872 58.273,130.716 59.289,114.751 l 30.769,-0.436 c 0,0 -0.726,10.014 -0.581,13.643 0.145,3.628 2.902,8.854 7.402,8.854 7.122,0 9.577,-5.029 10.087,-12.265 2.467,-34.978 5.878,-67.27 10.813,-101.377 l 29.898,-0.726 c 0,0 -0.836,12.257 -1.903,28.104 -2.859,0.045 -5.755,0.09 -8.532,0.134 l -6.285,0.099 c 0,0 -0.929,12.573 -1.184,16.003 -2.416,32.47 -4.011,53.92 -4.011,84.106 z M 53.557,67.219 C 51.88,75.024 50.848,81.515 50.639,89.117 H 46.67 c 0.065,-5.752 0.368,-9.188 1.335,-15.113 -2.612,5.696 -4.027,9.07 -6.096,15.166 l -3.789,0.044 c -1.364,-5.595 -1.98,-9.368 -2.561,-14.702 -1.234,5.262 -1.633,9.579 -1.923,15.239 H 29.609 C 29.543,84.519 30.661,75.455 32.875,68.38 l 6.676,-0.29 c 0.145,5.225 0.508,10.74 1.052,13.643 2.213,-5.986 3.398,-8.551 6.604,-14.296 l 6.35,-0.218 z m 4.015,-0.484 6.241,-0.218 c 4.548,-0.13 6.127,1.182 6.628,2.902 0.604,2.08 0.315,4.859 0.073,6.821 -0.242,1.96 -0.629,6.144 -1.524,8.539 -0.977,2.613 -3.768,4.015 -7.991,4.072 h -6.287 c 0,-5.619 0.925,-14.409 2.86,-22.116 z m 3.786,3.822 c -0.883,4.983 -1.439,10.668 -1.597,14.26 l 1.754,-0.012 c 0.955,0 2.806,-0.663 3.145,-1.645 0.75,-2.178 1.209,-5.516 1.354,-10.16 0.045,-1.43 -1.072,-2.479 -2.733,-2.479 l -1.923,0.036 z m 13.969,-4.717 6.555,-0.218 c 2.622,0.03 4.928,0.16 6.289,2.032 1.355,1.862 2.032,8.346 -3.338,10.57 l 3.898,9.865 -5.321,-0.045 -3.173,-8.828 h -2.104 c 0,0 -0.363,4.451 -0.363,9.119 l -4.645,0.008 C 73.126,81.684 74.08,72.827 75.327,65.84 z m 3.991,3.58 c -0.556,2.951 -0.779,6.071 -0.779,6.071 0,0 1.942,0.029 2.544,0 1.394,-0.058 2.855,-0.731 3.266,-2.806 0.226,-1.146 0.079,-2.314 -1.028,-2.992 -0.675,-0.404 -1.336,-0.273 -2.533,-0.273 h -1.47 z"
   inkscape:connector-curvature="0"
   id="path7"
   style="fill:#e22435" />
</svg>