<svg xmlns="http://www.w3.org/2000/svg" height="166.69" width="600" viewBox="0 0 158.75 44.102414"><g transform="translate(113.98-234.92)"><path d="m41.14 234.92h-151.46c-2.02 0-3.66 1.63-3.66 3.64v36.83c0 2.01 1.64 3.64 3.66 3.64h151.46c2.01 0 3.635-1.63 3.635-3.64v-36.83c0-2.01-1.625-3.64-3.638-3.64" fill="#f58e1d"/><path d="m-99.88 266.33c-.133 0-.293.06-.393.15l-1.57 1.34c-.21-.89-.95-1.17-1.79-1.17-.59 0-1.34.08-1.8.53-.49.51-.46 1.04-.46 1.71v1.77c0 .33.11.57.49.57h5.35c.401 0 .526-.21.526-.57 0-.43.08-.93-.526-.93h-1.71v-.12l1.926-1.6c.248-.19.31-.38.31-.68v-.57c0-.22-.093-.43-.353-.43m-3.823 1.81c.56 0 .67.06.67.63v.96h-1.59c-.001-.17-.001-.36-.001-.54v-.26c0-.14 0-.47.06-.6.1-.19.67-.19.87-.19" fill="#412d04"/><g fill="#fff"><path d="m-51.4 243.31c-4.439-.02-7.224 1.84-8.737 4.57-1.512 2.69-1.858 6.14-1.865 9.49.007 3.33.353 6.78 1.865 9.49 1.513 2.71 4.298 4.59 8.737 4.56h.07c4.388 0 7.141-1.86 8.641-4.56 1.523-2.7 1.882-6.16 1.882-9.49 0-3.35-.349-6.8-1.864-9.49-1.506-2.73-4.291-4.59-8.729-4.57m0 6.29c1.572.02 2.245.53 2.578 1.17.478 1.1.87 3.48.87 6.6s-.392 5.5-.892 6.6c-.311.63-.979 1.14-2.556 1.15-1.632 0-2.328-.54-2.612-1.15-.521-1.08-.848-3.47-.836-6.6-.012-3.15.314-5.53.831-6.59.288-.63.985-1.16 2.617-1.18"/><path d="m-32.96 243.31c-2.713-.02-4.482 1.05-5.417 2.64-.956 1.57-1.141 3.51-1.141 5.36s.185 3.79 1.141 5.36c.925 1.57 2.677 2.65 5.352 2.65h.065c2.697.001 4.483-1.06 5.428-2.65.957-1.56 1.17-3.51 1.17-5.36 0-1.86-.213-3.8-1.17-5.36-.945-1.59-2.731-2.66-5.428-2.64m0 4.59c.402 0 .63.06.757.11.113.06.135.1.135.1.196.4.396 1.56.391 3.2.005 1.65-.195 2.81-.391 3.2-.001.001-.044.04-.135.08-.127.07-.355.13-.757.13-.418 0-.648-.06-.752-.12-.041-.02-.065-.03-.08-.04l-.006-.02c-.19-.34-.414-1.54-.39-3.23-.024-1.69.2-2.88.39-3.23l.006-.02c.038-.03.244-.16.832-.16"/></g><g fill="#412d04"><path d="m-99.91 259.88c-.065 0-.13.02-.19.05l-5.35 2.06c-.33.14-.47.29-.47.67 0 .54-.09.85.48 1.05l5.26 1.96c.08.03.236.09.313.09.305 0 .337-.22.337-.49v-.44c0-.34-.142-.47-.457-.58l-.723-.27c.04-.76.04-1.52 0-2.29l.789-.28c.265-.1.391-.26.391-.55v-.53c0-.23-.107-.45-.38-.45m-1.91 2.25v1.46l-2.13-.74z"/><path d="m-102.7 244.32c-1.93 0-3.37.68-3.37 2.83s1.44 2.82 3.37 2.82c1.92 0 3.366-.68 3.366-2.82 0-2.15-1.446-2.83-3.366-2.83m0 1.54c.42 0 1.17.001 1.55.19.42.21.53.66.53 1.1s-.11.88-.53 1.08c-.38.19-1.13.2-1.55.2s-1.18-.001-1.55-.2c-.42-.2-.53-.64-.53-1.08s.11-.89.53-1.1c.37-.18 1.13-.19 1.55-.19"/></g><g fill="#fff"><path d="m-73.912 243.31c-4.45-.02-7.235 1.84-8.735 4.57-1.514 2.69-1.867 6.14-1.872 9.49.005 3.33.358 6.78 1.872 9.49 1.5 2.71 4.285 4.59 8.735 4.56h.075c4.373 0 7.136-1.86 8.638-4.56 1.521-2.7 1.881-6.16 1.881-9.49 0-3.35-.35-6.8-1.873-9.49-1.49-2.73-4.283-4.59-8.721-4.57m0 6.29c1.565.02 2.24.53 2.567 1.17.49 1.11.892 3.48.88 6.6.012 3.12-.39 5.5-.88 6.6-.322.63-.99 1.14-2.567 1.15-1.632 0-2.34-.54-2.612-1.15-.516-1.08-.859-3.47-.848-6.6-.011-3.15.332-5.53.844-6.59.276-.63.984-1.16 2.616-1.18"/><path d="m-13.467 255.42c-2.71-.0001-4.499 1.06-5.45 2.64-.952 1.56-1.148 3.51-1.158 5.35.0001 1.86.206 3.81 1.158 5.38.951 1.57 2.74 2.65 5.45 2.63h.055c2.663 0 4.42-1.07 5.366-2.63.958-1.57 1.163-3.52 1.175-5.38-.012-1.84-.217-3.8-1.175-5.35-.947-1.58-2.729-2.65-5.421-2.64m0 4.59c.777.02.827.2.86.21.19.41.419 1.57.414 3.19.005 1.64-.224 2.8-.414 3.21-.033.02-.083.2-.86.22-.425 0-.684-.08-.793-.13-.043-.02-.062-.04-.072-.05h-.009c-.19-.36-.42-1.54-.409-3.24-.011-1.68.219-2.86.409-3.22h.009c.029-.03.267-.18.865-.17"/></g><g fill="#412d04"><path d="m-102.65 253.95c-1.11 0-2.56.1-3.03 1.32-.18.47-.21 1.05-.21 1.56v1.67c0 .33.11.57.49.57h5.36c.384 0 .51-.21.51-.57v-1.67c0-2.28-.98-2.88-3.12-2.88m-.38 1.53h.41c1.35 0 1.8.08 1.8 1.54 0 .17.001.37-.001.55h-3.77c-.02-.18-.001-.38-.001-.55 0-.27.03-.77.12-.99.23-.56.97-.55 1.46-.55"/><path d="m-105.89 252.15v-.41c0-.33.15-.52.49-.52h5.35c.351 0 .526.17.526.52v.41c0 .35-.125.58-.526.58h-5.35c-.38 0-.49-.25-.49-.58"/></g><g fill="#fff"><path d="m-86.42 268.38c.021 1.08-.479 1.86-1.132 2.2-.635.35-1.31.37-1.783.37h-1.524c-.048.0001-.093 0-.141 0h-.022-.18c-.178-.02-.342-.03-.5-.05-.467-.08-.887-.24-1.245-.53-.577-.46-.838-1.21-.827-2.1v-21.85c-.016-1.08.479-1.86 1.132-2.19.642-.36 1.305-.37 1.783-.37h1.85c.184.0001.359.02.522.06.457.07.88.22 1.24.52.575.45.838 1.2.827 2.09z"/><path d="m-29.817 272.47c-.152 0-.423.001-.762-.14l-.043-.03-1.771-1.07c-.327-.2-.512-.5-.605-.76-.094-.28-.114-.54-.114-.76-.011-.32.055-.71.284-1.04l14.183-25.3c.401-.69 1.131-1.16 1.953-1.15.163.001.433-.02.767.15l.031.02 1.817 1.07c.338.19.523.5.603.78.105.26.125.53.125.74 0 .39-.125.72-.26 1l-.012.02-14.161 25.32c-.447.75-1.252 1.15-2.035 1.15"/></g><g fill="#412d04"><path d="m18.14 268.23c0 .77-.21 1.48-.695 1.98-.485.49-1.18.7-1.973.7h-1.17c-.548 0-1.061-.001-1.578-.17s-1-.5-1.413-1.02c-2.382-3.09-5.924-8.03-9.12-12.57v11.08c0 .78-.217 1.49-.718 1.98-.5.49-1.218.71-2.01.7h-1.518c-.798 0-1.517-.13-2.088-.58-.565-.46-.827-1.21-.82-2.1v-21.85c-.017-1.07.483-1.86 1.135-2.2.632-.34 1.307-.36 1.773-.36h1.012c.468 0 .947 0 1.442.17.488.15.962.5 1.36 1.02 2.463 3.25 5.846 8.02 9.24 12.72v-11.35c-.032-1.07.468-1.86 1.12-2.2.641-.34 1.316-.36 1.783-.36h1.557c.939-.001 1.674.29 2.119.81.442.52.56 1.17.56 1.75z"/><path d="m36.802 268.36c.011.91-.335 1.64-.875 2.04-.56.42-1.209.51-1.795.52h-10.955c-.787-.001-1.51-.13-2.087-.59-.565-.47-.828-1.21-.828-2.1v-21.85c-.02-1.07.485-1.86 1.143-2.2.632-.34 1.31-.36 1.772-.36h1.672c.946-.001 1.673.29 2.12.81.448.52.56 1.17.56 1.75v18.23c1.861-.03 4.04-.06 6.603-.06 1.115-.03 1.908.44 2.283 1.08.382.62.387 1.28.387 1.72z"/></g></g></svg>