<?xml version="1.0" encoding="UTF-8" standalone="no"?>
<svg xmlns:rdf="http://www.w3.org/1999/02/22-rdf-syntax-ns#" xmlns="http://www.w3.org/2000/svg" height="166.69" width="600" version="1.1" xmlns:cc="http://creativecommons.org/ns#" xmlns:dc="http://purl.org/dc/elements/1.1/" viewBox="0 0 158.75 44.102414">
 <g transform="translate(113.98 -234.92)">
  <path d="m41.137 234.92h-151.46c-2.02 0-3.66 1.63-3.66 3.64v36.83c0 2.01 1.64 3.64 3.66 3.64h151.46c2.01 0 3.635-1.63 3.635-3.64v-36.83c0-2.01-1.625-3.64-3.638-3.64" fill="#f58e1d"/>
  <path d="m-99.877 266.33c-0.133 0-0.293 0.06-0.393 0.15l-1.57 1.34c-0.21-0.89-0.95-1.17-1.79-1.17-0.59 0-1.34 0.08-1.8 0.53-0.49 0.51-0.46 1.04-0.46 1.71v1.77c0 0.33 0.11 0.57 0.49 0.57h5.35c0.401 0 0.526-0.21 0.526-0.57 0-0.43 0.08-0.93-0.526-0.93h-1.71v-0.12l1.926-1.6c0.248-0.19 0.31-0.38 0.31-0.68v-0.57c0-0.22-0.093-0.43-0.353-0.43zm-3.823 1.81c0.56 0 0.67 0.06 0.67 0.63v0.96h-1.59c-0.01-0.17-0.01-0.36-0.01-0.54v-0.26c0-0.14 0-0.47 0.06-0.6 0.1-0.19 0.67-0.19 0.87-0.19z" fill="#412d04"/>
  <path d="m-51.396 243.31c-4.439-0.02-7.224 1.84-8.737 4.57-1.512 2.69-1.858 6.14-1.865 9.49 0.007 3.33 0.353 6.78 1.865 9.49 1.513 2.71 4.298 4.59 8.737 4.56h0.07c4.388 0 7.141-1.86 8.641-4.56 1.523-2.7 1.882-6.16 1.882-9.49 0-3.35-0.349-6.8-1.864-9.49-1.506-2.73-4.291-4.59-8.729-4.57zm-0.001 6.29c1.572 0.02 2.245 0.53 2.578 1.17 0.478 1.1 0.87 3.48 0.87 6.6s-0.392 5.5-0.892 6.6c-0.311 0.63-0.979 1.14-2.556 1.15-1.632 0-2.328-0.54-2.612-1.15-0.521-1.08-0.848-3.47-0.836-6.6-0.012-3.15 0.314-5.53 0.831-6.59 0.288-0.63 0.985-1.16 2.617-1.18z" fill="#fff"/>
  <path d="m-32.96 243.31c-2.713-0.02-4.482 1.05-5.417 2.64-0.956 1.57-1.141 3.51-1.141 5.36s0.185 3.79 1.141 5.36c0.925 1.57 2.677 2.65 5.352 2.65h0.065c2.697 0.01 4.483-1.06 5.428-2.65 0.957-1.56 1.17-3.51 1.17-5.36 0-1.86-0.213-3.8-1.17-5.36-0.945-1.59-2.731-2.66-5.428-2.64zm0 4.59c0.402 0 0.63 0.06 0.757 0.11 0.113 0.06 0.135 0.1 0.135 0.1 0.196 0.4 0.396 1.56 0.391 3.2 0.005 1.65-0.195 2.81-0.391 3.2-0.01 0.01-0.044 0.04-0.135 0.08-0.127 0.07-0.355 0.13-0.757 0.13-0.418 0-0.648-0.06-0.752-0.12-0.041-0.02-0.065-0.03-0.08-0.04l-0.006-0.02c-0.19-0.34-0.414-1.54-0.39-3.23-0.024-1.69 0.2-2.88 0.39-3.23l0.006-0.02c0.038-0.03 0.244-0.16 0.832-0.16z" fill="#fff"/>
  <path d="m-99.91 259.88c-0.065 0-0.13 0.02-0.19 0.05l-5.35 2.06c-0.33 0.14-0.47 0.29-0.47 0.67 0 0.54-0.09 0.85 0.48 1.05l5.26 1.96c0.08 0.03 0.236 0.09 0.313 0.09 0.305 0 0.337-0.22 0.337-0.49v-0.44c0-0.34-0.142-0.47-0.457-0.58l-0.723-0.27c0.04-0.76 0.04-1.52 0-2.29l0.789-0.28c0.265-0.1 0.391-0.26 0.391-0.55v-0.53c0-0.23-0.107-0.45-0.38-0.45zm-1.91 2.25v1.46l-2.13-0.74z" fill="#412d04"/>
  <path d="m-102.7 244.32c-1.93 0-3.37 0.68-3.37 2.83s1.44 2.82 3.37 2.82c1.92 0 3.366-0.68 3.366-2.82 0-2.15-1.446-2.83-3.366-2.83zm0 1.54c0.42 0 1.17 0.01 1.55 0.19 0.42 0.21 0.53 0.66 0.53 1.1s-0.11 0.88-0.53 1.08c-0.38 0.19-1.13 0.2-1.55 0.2s-1.18-0.01-1.55-0.2c-0.42-0.2-0.53-0.64-0.53-1.08s0.11-0.89 0.53-1.1c0.37-0.18 1.13-0.19 1.55-0.19z" fill="#412d04"/>
  <path d="m-73.912 243.31c-4.45-0.02-7.235 1.84-8.735 4.57-1.514 2.69-1.867 6.14-1.872 9.49 0.005 3.33 0.358 6.78 1.872 9.49 1.5 2.71 4.285 4.59 8.735 4.56h0.075c4.373 0 7.136-1.86 8.638-4.56 1.521-2.7 1.881-6.16 1.881-9.49 0-3.35-0.35-6.8-1.873-9.49-1.49-2.73-4.283-4.59-8.721-4.57zm-0.001 6.29c1.565 0.02 2.24 0.53 2.567 1.17 0.49 1.11 0.892 3.48 0.88 6.6 0.012 3.12-0.39 5.5-0.88 6.6-0.322 0.63-0.99 1.14-2.567 1.15-1.632 0-2.34-0.54-2.612-1.15-0.516-1.08-0.859-3.47-0.848-6.6-0.011-3.15 0.332-5.53 0.844-6.59 0.276-0.63 0.984-1.16 2.616-1.18z" fill="#fff"/>
  <path d="m-13.467 255.42c-2.71-0.01-4.499 1.06-5.45 2.64-0.952 1.56-1.148 3.51-1.158 5.35 0.01 1.86 0.206 3.81 1.158 5.38 0.951 1.57 2.74 2.65 5.45 2.63h0.055c2.663 0 4.4197-1.07 5.3664-2.63 0.9583-1.57 1.1634-3.52 1.1751-5.38-0.0117-1.84-0.2168-3.8-1.1751-5.35-0.9467-1.58-2.7294-2.65-5.4214-2.64zm-0.001 4.59c0.777 0.02 0.827 0.2 0.86 0.21 0.19 0.41 0.419 1.57 0.414 3.19 0.005 1.64-0.224 2.8-0.414 3.21-0.033 0.02-0.083 0.2-0.86 0.22-0.425 0-0.684-0.08-0.793-0.13-0.043-0.02-0.062-0.04-0.072-0.05l-0.009-0.01c-0.19-0.36-0.42-1.54-0.409-3.24-0.011-1.68 0.219-2.86 0.409-3.22l0.009-0.01c0.029-0.03 0.267-0.18 0.865-0.17z" fill="#fff"/>
  <path d="m-102.65 253.95c-1.11 0-2.56 0.1-3.03 1.32-0.18 0.47-0.21 1.05-0.21 1.56v1.67c0 0.33 0.11 0.57 0.49 0.57h5.36c0.384 0 0.51-0.21 0.51-0.57v-1.67c0-2.28-0.98-2.88-3.12-2.88zm-0.38 1.53h0.41c1.35 0 1.8 0.08 1.8 1.54 0 0.17 0.01 0.37-0.01 0.55h-3.77c-0.02-0.18-0.01-0.38-0.01-0.55 0-0.27 0.03-0.77 0.12-0.99 0.23-0.56 0.97-0.55 1.46-0.55z" fill="#412d04"/>
  <path d="m-105.89 252.15v-0.41c0-0.33 0.15-0.52 0.49-0.52h5.35c0.351 0 0.526 0.17 0.526 0.52v0.41c0 0.35-0.125 0.58-0.526 0.58h-5.35c-0.38 0-0.49-0.25-0.49-0.58" fill="#412d04"/>
  <path d="m-86.422 268.38c0.021 1.08-0.479 1.86-1.132 2.2-0.635 0.35-1.31 0.37-1.783 0.37h-1.524v0.01c-0.048 0-0.093-0.01-0.141-0.01h-0.022-0.18c-0.178-0.02-0.342-0.03-0.5-0.05-0.467-0.08-0.887-0.24-1.245-0.53-0.577-0.46-0.838-1.21-0.827-2.1v-21.85c-0.016-1.08 0.479-1.86 1.132-2.19 0.642-0.36 1.305-0.37 1.783-0.37h1.85c0.184 0.01 0.359 0.02 0.522 0.06 0.457 0.07 0.88 0.22 1.24 0.52 0.575 0.45 0.838 1.2 0.827 2.09z" fill="#fff"/>
  <path d="m-29.817 272.47c-0.152 0-0.423 0.01-0.762-0.14l-0.043-0.03-1.771-1.07c-0.327-0.2-0.512-0.5-0.605-0.76-0.094-0.28-0.114-0.54-0.114-0.76-0.011-0.32 0.055-0.71 0.284-1.04l14.183-25.3c0.401-0.69 1.131-1.16 1.953-1.15 0.163 0.01 0.433-0.02 0.767 0.15l0.031 0.02 1.817 1.07c0.338 0.19 0.523 0.5 0.603 0.78 0.105 0.26 0.125 0.53 0.125 0.74 0 0.39-0.125 0.72-0.26 1l-0.012 0.02-14.161 25.32c-0.447 0.75-1.252 1.15-2.035 1.15" fill="#fff"/>
  <path d="m18.135 268.23c0 0.77-0.21 1.48-0.695 1.98-0.485 0.49-1.18 0.7-1.973 0.7h-1.17c-0.548 0-1.061-0.01-1.578-0.17s-1.005-0.5-1.413-1.02c-2.382-3.09-5.9236-8.03-9.1202-12.57v11.08c0 0.78-0.2167 1.49-0.7183 1.98-0.50001 0.49-1.2183 0.71-2.0066 0.7h-1.5183c-0.7984 0-1.5167-0.13-2.0883-0.58-0.565-0.46-0.8267-1.21-0.82-2.1v-21.85c-0.0167-1.07 0.4833-1.86 1.135-2.2 0.6316-0.34 1.3066-0.36 1.7733-0.36h1.0116c0.46832 0 0.94664 0 1.4416 0.17 0.48836 0.15 0.9617 0.5 1.36 1.02 2.4633 3.25 5.8465 8.02 9.2402 12.72v-11.35c-0.032-1.07 0.468-1.86 1.12-2.2 0.641-0.34 1.316-0.36 1.783-0.36h1.557c0.939-0.01 1.674 0.29 2.119 0.81 0.442 0.52 0.56 1.17 0.56 1.75z" fill="#412d04"/>
  <path d="m36.802 268.36c0.011 0.91-0.335 1.64-0.875 2.04-0.56 0.42-1.209 0.51-1.795 0.52h-10.955c-0.787-0.01-1.51-0.13-2.087-0.59-0.565-0.47-0.828-1.21-0.828-2.1v-21.85c-0.02-1.07 0.485-1.86 1.143-2.2 0.632-0.34 1.31-0.36 1.772-0.36h1.672c0.946-0.01 1.673 0.29 2.12 0.81 0.448 0.52 0.56 1.17 0.56 1.75v18.23c1.861-0.03 4.036-0.06 6.603-0.06 1.115-0.03 1.908 0.44 2.283 1.08 0.382 0.62 0.387 1.28 0.387 1.72z" fill="#412d04"/>
 </g>
</svg>
