<svg xmlns="http://www.w3.org/2000/svg" viewBox="0 0 1062.99 366.45"><g transform="matrix(2.70191 0 0 2.70191-15.195-62.46)"><path d="m122.38 23.525c24.523-.528 49.1-.036 73.64-.245 5.404-.517 10.658 4.206 10.218 9.745-.001 18.999.056 38-.032 57 .088 5.29-5.061 9.445-10.17 9.02-23.703-.114-47.4.04-71.11-.073-5.072.429-9.859-3.793-9.939-8.897-.111-19.01-.029-38.02-.04-57.03-.193-4.437 3.053-8.668 7.425-9.526" fill="#fdbf00"/><g fill="#ba0f07"><path d="m230.32 23.41c1.846-.411 3.758-.258 5.639-.291 23.71.069 47.42-.05 71.13.057 4.93.199 8.938 4.84 8.703 9.724-.011 19.05.063 38.11-.036 57.16-.094 5.01-4.684 9.212-9.682 8.94-22.02.044-44.04.014-66.05.002-3.745-.103-7.683.561-11.26-.83-3.548-1.486-5.712-5.389-5.549-9.168.015-18.687 0-37.38.008-56.06-.172-4.315 2.87-8.513 7.1-9.527"/><path d="m209.64 55.33h9.764v9.764h-9.764z"/><path d="m101.54 55.33h9.764v9.764h-9.764z"/></g><path d="m13.336 23.404c24.887-.374 49.808-.036 74.71-.167 3.845-.214 7.838 2.01 9.247 5.676.989 2.221.855 4.704.871 7.08-.093 18.01.073 36.02-.079 54.03-.11 5.211-4.958 9.443-10.13 9-24.324-.045-48.651.059-72.973-.041-5.288.144-9.642-4.77-9.341-9.953.008-18.681-.015-37.36.011-56.04-.132-4.498 3.196-8.831 7.687-9.58" fill="#196b26"/><g fill="#fff"><path d="m62.65 32c-9.87 1.01-19.698 2.529-29.575 3.5-.023 2.541-.026 5.058-.025 7.6 4.942.006 9.883.02 14.825.025.015 15.248-.003 30.477 0 45.725 4.919.003 9.855.013 14.775 0-.014-18.95-.002-37.9 0-56.85"/><path d="m161.57 32.33c-6.828-.006-13.675.038-20.5.15-4.141.462-9.604.591-11.65 4.95-1.802 4.222-.831 8.967-1.075 13.425 4.576 1.132 9.222 2.01 13.85 2.9 0-3.856 0-7.694 0-11.55 13.243-.005 26.481 0 39.725-.025.018 2.475-.02 4.952-.15 7.425-15.693 7.663-31.29 15.52-46.95 23.25-3.01 1.529-6.149 3.06-8.475 5.575-2.429 2.928-1.358 6.993-1.575 10.475 20.08.009 40.15.012 60.23 0 .975-.021 1.974-.019 2.975-.075 3-.168 6.04-.669 8.55-2.375 3.991-3.167 2.033-8.772 2.475-13.12-4.172-.95-8.37-1.835-12.5-2.95-.004 2.804-.0001 5.62 0 8.425-13.482.025-26.968-.003-40.45 0 13.896-6.654 27.681-13.539 41.525-20.3 3.526-1.887 7.954-4.03 8.45-8.525.373-4.683.943-10.04-1.925-14.1-3.101-3.124-7.94-3.092-12.05-3.45-6.827-.03-13.647-.094-20.475-.1"/><path d="m270.48 32.7c-6.844 0-13.706.019-20.55.025-3.91.227-8.181.236-11.55 2.5-3.53 2.997-2.819 8.07-2.9 12.2 4.594.659 9.182 1.42 13.775 2.1.008-2.366-.005-4.735 0-7.1 11.592.029 23.21-.045 34.8.025 2.143.194 5.412-.112 5.975 2.65.474 2.589.58 5.33-.05 7.9-.468 2.187-3.129 2.288-4.925 2.5-7.468.191-14.931.007-22.4.075-.008 3.042-.0001 6.082 0 9.125 8.116.005 16.233-.05 24.35 0 2.023.123 4.887.009 5.625 2.4.824 3.06.796 6.478.025 9.55-.544 1.788-2.342 2.122-4.05 2.275-.569.051-1.129.092-1.625.15-12.796.06-25.604-.023-38.4 0-.009-2.669-.014-5.333 0-8-4.761.797-9.493 1.671-14.275 2.325.095 4.496-.941 10.07 3 13.325 3.708 2.513 8.417 2.248 12.7 2.4 10.993-.03 21.982.031 32.975 0 3.664-.0001 7.336-.036 11-.075 2.418-.057 5.223-.295 7.65-1.175.303-.11.585-.219.875-.35 2.032-.918 3.71-2.386 4.525-4.7 1.244-4.983 1.152-10.343.3-15.375-2.194-6.147-9.593-7.03-15.12-8.08 5.127-.259 12.338-2.082 12.775-8.3-.003-4.963 1.168-10.677-1.9-15-3.157-3.11-7.958-3.03-12.07-3.35-6.844-.019-13.681-.026-20.525-.025"/></g><path d="m327.92 45.664c5-1.518 9.979-3.111 14.962-4.695.063 4.61.023 9.22.036 13.831 2.815.008 5.631.008 8.451.004-.007 3.454-.006 6.907-.003 10.362-2.818.003-5.633.004-8.446.008.205 6.866-.438 13.802.327 20.624.917 3.63 5.253 3.322 8.148 2.814.007 3.3.139 6.6.376 9.893-5.936 1.057-12.703 2.081-18.213-.998-3.76-2.045-5.625-6.37-5.599-10.518-.117-7.274-.006-14.552-.039-21.827-2.429.007-4.856.007-7.28.007 0-3.455 0-6.909-.003-10.362 2.424 0 4.851 0 7.281.008-.005-3.051-.005-6.101.002-9.151"/><path d="m353.69 54.813c5.231-.013 10.463.002 15.698-.016 2.504 10.115 5.04 20.22 7.555 30.334 2.343-10.129 4.947-20.19 7.311-30.32h14.795c-4.39 12.985-9.49 29.637-14.01 43.686-5.914-.011-11.826.031-17.737-.032-4.513-14.56-9.02-29.12-13.616-43.654"/></g><path d="m879.1 302.1h-55.704l-13.459 64.35h-29.67l30.16-144.02h29.571l-11.593 55.606h55.704l11.691-55.606h29.571l-30.06 144.02h-29.67z"/><path d="m925.66 366.45l30.16-144.02h38.806c10.807 0 17.717.164 20.729.491 5.96.59 11.281 1.801 15.964 3.635 4.683 1.834 8.94 4.405 12.772 7.712 3.831 3.308 7.139 7.287 9.923 11.937 2.783 4.65 4.928 10 6.435 16.06 1.506 6.06 2.259 12.69 2.26 19.894 0 15.523-2.964 29.29-8.891 41.31-5.928 12.02-13.378 21.564-22.35 28.638-6.877 5.502-15.752 9.562-26.624 12.182-6.157 1.441-15.621 2.161-28.392 2.161zm34.483-23.19h15.03c10.872 0 18.748-.671 23.628-2.01 4.879-1.343 9.349-3.848 13.41-7.516 5.829-5.305 10.741-12.379 14.737-21.22 3.995-8.842 5.993-19.256 5.993-31.24 0-10.217-1.654-17.897-4.961-23.04-3.308-5.141-7.385-8.563-12.231-10.266-3.406-1.179-9.464-1.768-18.18-1.768h-17.193z"/></svg>