<svg xmlns="http://www.w3.org/2000/svg" viewBox="0 0 600 498.77"><g fill="#fff"><path d="m423.6 365.92l88.2-88.2 88.2 88.2-88.2 88.2"/><path d="m234.39 0h.219c12.343 11.973 24.25 24.416 36.675 36.3-53.62 53.29-106.98 106.84-160.62 160.12-24.564 24.86-49.737 49.14-73.985 74.31-12.41-11.96-24.4-24.35-36.675-36.44v-2.186l.017 2.068c78.04-78.14 156.36-155.99 234.37-234.17z"/><path d="m244.52 94.64c15.235-12.04 35.548-17.03 54.684-14.176 22.16 2.657 42.34 16.563 53.726 35.599 11.451 18.682 12.511 42.913 4.153 62.991-9.45 19.573-25.677 34.539-40.879 49.606-9.618 9.114-19.641 19-32.841 22.516-8.357 2.421-17.02.454-25.27-1.345 1.648 7.954 2.505 16.227 1.01 24.265-2.321 10.712-9.282 19.556-16.446 27.527-11.67 12.376-23.744 24.349-36.15 35.968-8.845 7.769-17.942 15.79-29.14 19.91-17.13 5.616-36.49 6.373-53.2-1.093-20.784-9.585-37.431-28.3-43.62-50.45-5.196-16.933-2.489-35.784 6.39-51.02 8.912-15.454 23.424-26.367 35.31-39.37 12.309 13.08 25.476 25.341 37.953 38.25-6.474 5.465-12.04 11.889-18.211 17.673-4.153 3.851-7.601 8.66-8.929 14.243-2.337 11.922 9.619 24.416 21.675 22.314 6.39-.807 11.502-5.179 15.857-9.602 10.947-11.01 21.995-21.911 32.975-32.874 5.364-5.734 12.309-13.12 9.333-21.658-3.868-8.895-11.06-15.84-18.03-22.382 11.401-11.182 22.869-22.297 33.951-33.799 7.13 6.087 13.267 13.822 22.15 17.522 7.332 3.03 14.747-1.816 19.859-6.76 11.01-10.88 22.05-21.743 32.908-32.79 4.994-4.994 7.533-12.982 4.423-19.624-3.212-7.248-10.442-13.89-18.817-13.335-6.76-.471-12.477 3.985-16.799 8.66-5.953 6.255-12.494 11.956-18.04 18.564-13.05-12.427-25.27-25.694-38.424-38.02 9.753-8.828 18.279-18.951 28.452-27.325"/><path d="m360.83 216.1c14.915-15.218 30.3-29.965 45.03-45.35 7.517 6.659 14.11 14.276 21.541 21.02-2.674 2.959-5.515 5.768-8.273 8.66-3.884-4.271-8.105-8.223-12.07-12.41-3.094 3.38-6.306 6.659-9.77 9.652 3.464 3.868 7.298 7.348 11.12 10.846-2.791 2.707-5.515 5.499-8.156 8.357-3.498-3.851-7.298-7.399-10.846-11.199-3.548 3.834-7.231 7.517-10.997 11.12 4.086 3.935 8.139 7.937 12.292 11.821-2.707 2.859-5.616 5.499-8.256 8.408-7.533-6.625-13.94-14.445-21.608-20.919z"/><path d="m387.57 242.65c14.999-14.899 30.08-29.747 44.83-44.881 4.809 3.969 8.862 8.761 13.402 13.01-9.05 13.89-17.791 27.981-27.594 41.35 13.318-9.938 27.645-18.379 41.35-27.763 4.288 4.338 8.307 8.996 13.13 12.797-1.11 1.665-2.421 3.178-3.901 4.507-13.991 13.537-27.342 27.712-41.501 41.06-2.758-3.077-5.7-5.969-8.778-8.711 7.231-6.878 14.11-14.11 21.339-20.969 5.448-5.146 11.384-9.82 16.21-15.588-13.923 11.149-29.646 19.641-44.33 29.663-2.657-2.875-5.431-5.616-8.324-8.223 9.349-15.47 19.07-30.688 29.629-45.38-11.838 13.08-24.13 25.694-36.692 38.05-3.01-2.892-5.969-5.835-8.778-8.929z"/><path d="m305.17 271.37c14.983-14.36 29.29-29.394 44.23-43.821 5.616 5.667 10.947 11.653 17.03 16.849-8.458 8.172-16.446 16.832-25.16 24.736 6.558 7.01 13.688 13.486 20.296 20.465 7.248-7.533 14.983-14.596 21.944-22.398 6.07 4.91 10.779 11.3 17 16.04-6.793 8.206-14.899 15.386-22.55 22.836 7.702 7.449 15.386 14.932 22.701 22.751 8.307-8.441 16.664-16.832 25.06-25.21 5.162 6.239 12.158 11.3 16.681 17.774-14.68 14.495-29.36 29.01-43.771 43.788-30.756-31.647-62.54-62.32-93.46-93.81z"/><path d="m433.14 288.5c14.781-15.42 30.25-30.18 45.15-45.49 6.894 7.248 14.09 14.209 21.14 21.305v.269c-2.842 2.657-5.6 5.381-8.307 8.156-3.868-4.187-7.971-8.172-11.872-12.326-3.245 3.38-6.575 6.709-9.854 10.06 3.699 3.481 7.382 6.995 11.01 10.543-2.741 2.674-5.431 5.381-8.05 8.156-3.649-3.699-7.298-7.399-11.08-10.93-3.447 3.8-7.06 7.449-10.812 10.964 4.17 3.884 8.223 7.92 12.393 11.838-2.943 2.741-5.785 5.616-8.458 8.626-6.962-7.163-14.02-14.26-21.255-21.17"/><path d="m274.48 302.16c6.39-6.255 12.528-12.763 19.05-18.867 20.414 20.498 40.929 40.895 61.39 61.34 8.778 8.845 18.01 19.1 18.934 32.15.925 11.351-5.532 21.759-13.452 29.326-7.231 7.466-16.731 13.57-27.409 13.906-11.216-.42-21.07-6.827-29.09-14.192-22.482-21.944-44.26-44.595-66.876-66.37 6.356-6.306 12.847-12.511 18.918-19.12 18.901 18.783 37.751 37.616 56.57 56.47 6.424 6.608 12.292 14.411 21.12 17.942 8.711 3.044 18.514-6.894 15.168-15.521-3.077-8.02-10.123-13.436-16.16-19.15-19.422-19.287-38.693-38.693-58.17-57.913z"/><path d="m200.96 375.49c7.197-7.702 16.933-14.697 28.02-13.637 13.587 2.136 23.676 12.696 31.983 22.852 5.667 6.726 8.105 16.328 3.615 24.332 8.156-4.994 17.589-.387 24.2 4.994 10.913 9.06 20.246 21.322 34.438 25.358-.521 2-2.236 3.262-3.632 4.658-5.633 5.247-10.712 11.12-16.563 16.16-12.511-4.994-20.448-16.193-30.503-24.517-4.02-3.044-9.366-6.878-14.529-4.238-4.691 2.321-7.819 6.76-11.535 10.308 12.813 12.292 25.11 25.14 37.852 37.516-6.592 6.39-13.01 12.931-19.422 19.489-31.16-31.28-62.34-62.52-93.78-93.53 10.07-9.803 19.96-19.792 29.864-29.747m5.516 26.384c8.425 7.887 16.244 16.378 24.635 24.298 4.523-6.356 14.02-10.51 12.931-19.557-5.499-6.894-11.233-15.437-20.33-17.522-7.702.521-11.99 8.05-17.236 12.78z"/></g><path fill="#000" d="m463.02 339.96v50.63h13.163v-19.14h17.09v19.14h13.163v-50.63h-13.163v19.533h-17.09v-19.533h-13.163m55.944 0v50.63h21.374c2.72 0 5.379-.474 8-1.389 4.946-1.731 9-4.822 12.167-9.299 3.19-4.501 4.8-9.375 4.8-14.642 0-3.784-.865-7.458-2.596-11.02-2.127-4.303-5.197-7.753-9.178-10.325-4.056-2.646-8.445-3.955-13.193-3.955h-21.374m13.162 11.02h4.951c5.144 0 8.996 1.695 11.593 5.132 1.954 2.597 2.959 5.661 2.959 9.148 0 3.487-1 6.526-2.959 9.148-2.572 3.437-6.425 5.163-11.593 5.163h-4.951v-28.59"/></svg>