<svg xmlns="http://www.w3.org/2000/svg" viewBox="0 0 600 497.13"><g fill="#fff"><path d="m255.39 1.402c.911-1.158 2.541-2.198 3.582-.536 12.342 12.321 24.674 24.674 37.06 36.952.676.815 2.423 2.112 1.019 3.142-80.85 81.06-161.66 162.19-242.43 243.33-4.815 4.557-9.04 9.758-14.251 13.876-13.754-13.1-26.622-27.14-40.37-40.26 14.819-15.62 30.582-30.34 45.23-46.1 5.576-4.83 10.605-10.22 15.848-15.39 64.782-65 129.49-130.06 194.31-195.02z"/><path d="m302.39 88.41c16.05-2.531 32.93-1.01 47.782 5.855 20.16 8.932 36.38 26.422 43.782 47.19 5.801 16.685 5.351 35.34-.44 51.964-7.313 18.529-21.403 33.22-35.09 47.27-10.369 10.326-20.535 21.04-32.619 29.402-5.898 3.839-12.471 7.07-19.58 7.699-7.517.858-15.04-.493-22.422-1.834 2.059 10.787 3.045 22.433-1.201 32.834-5.168 12.685-15.08 22.518-24.395 32.21-4.225 4.686-9.168 8.739-12.685 14.03-2.263 2.027-4.89 3.646-7.02 5.844-10.669 10.466-21.585 20.91-34.37 28.802-15.09 8.31-32.963 10.734-49.926 8.514-19.473-3.142-36.791-14.83-49.31-29.756-12.417-14.894-19.634-34.07-19.655-53.48.836-7.892 1.866-15.892 4.836-23.312 4.439-11.613 11.731-21.971 20.46-30.764 7.978-7.946 15.892-15.956 23.88-23.891 13.04 13.414 26.314 26.604 39.589 39.793.783.89 2.595 2.241 1.115 3.431-7.12 7.624-14.851 14.658-21.95 22.304-3.571 4.03-6.477 9.115-6.52 14.626-1.147 12.578 11.881 24.47 24.341 21.671 6.251-1.587 11.495-5.619 15.795-10.294 11.27-11.27 22.475-22.604 33.799-33.82 5.233-5.34 10.927-10.862 13.1-18.24 1.147-3.528-.021-7.26-1.608-10.444-4.246-8.257-11.152-14.626-17.425-21.296-1.244-1.019.504-2.166 1.094-2.938 11.903-11.903 23.687-23.923 35.686-35.718 6.455 6.412 12.75 13.2 20.663 17.843 3.721 2.188 8.267 3.56 12.524 2.177 6.06-1.898 10.787-6.412 15.216-10.766 10.165-10.198 20.309-20.427 30.518-30.593 3.614-3.453 7.08-7.452 8.128-12.492 3.624-14.648-12.718-30.4-27.15-24.931-4.02 1.308-7.495 3.893-10.433 6.895-6.584 6.638-13.232 13.211-19.752 19.913-.858.751-2.198 2.616-3.324 1.126-13.608-13.683-27.312-27.301-40.79-41.11 8.321-8.05 16.406-16.353 24.502-24.631 11.12-10.895 25.553-18.283 40.855-21.08z"/><path d="m430.19 190.39c2.852-2.949 5.351-6.369 8.868-8.589 9.308 8.836 18.218 18.11 27.322 27.15-2.713 2.767-5.179 5.812-8.246 8.182-.332-.011-.997-.054-1.34-.075-2.831-2.348-5.19-5.211-7.849-7.753-13.14 13.179-26.13 26.497-39.28 39.675-.965 1.072-2.692 2.456-3.989 1.019-3.088-2.906-6.187-5.833-8.9-9.09 13.532-14.251 27.698-27.955 41.53-41.948-2.574-2.981-5.361-5.758-8.117-8.568"/><path d="m421.64 265.8c17.01-16.857 33.724-33.992 50.752-50.827 3.603 3.442 7.12 6.991 10.466 10.691-6.723 6.498-13.436 13.04-19.784 19.891 1.823 3.774 5.705 6.166 8.482 9.254 7.07-6.402 13.543-13.425 20.288-20.16 3.635 3.453 7.152 7.03 10.659 10.627-16.942 16.771-33.531 33.917-50.602 50.54-4.182-2.627-7.05-6.852-10.777-10.03 7.088-7.485 14.637-14.551 21.671-22.1-2.788-2.82-5.319-5.941-8.6-8.203-1.587-.139-2.52 1.469-3.646 2.305-6.23 6.209-12.364 12.524-18.626 18.712-3.367-3.624-6.927-7.07-10.283-10.702z"/><path d="m385.59 251.74c1.49-1.212 3.335-4.386 5.276-2.02 2.82 3.01 6.766 5.587 8.407 9.351-2.477 3.12-5.587 5.683-8.289 8.611 3.02 3.045 6.091 6.04 9.329 8.868 11.281 12.417 23.762 23.709 35.15 36.03-3.807 3.796-7.624 7.592-11.463 11.366-15.15-14.594-29.692-29.81-44.726-44.522-2.981 2.906-5.898 5.855-8.804 8.836-3.549-3.506-7.142-6.981-10.551-10.627 8.407-8.771 17.232-17.15 25.671-25.896z"/><path d="m328.22 309.64c8.739-8.728 17.339-17.607 26.21-26.21 3.431 3.464 6.906 6.895 10.38 10.337-4.697 5.061-9.747 9.79-14.508 14.787 3.646 3.721 7.41 7.334 10.98 11.152 4.622-4.171 8.728-8.879 13.414-12.986 3.399 3.346 6.841 6.68 9.994 10.273-4.257 4.418-8.632 8.707-12.964 13.04 4.171 4.246 8.332 8.503 12.685 12.567 4.868-4.418 9.01-9.651 14.15-13.747l.804-.182c3.56 3.077 6.702 6.616 10 9.962-8.192 8.364-16.492 16.631-24.717 24.952-1.533 1.576-3.281-.375-4.375-1.469-17.253-17.586-34.732-34.968-52.06-52.48"/><path d="m314.56 323.36c2.445-2.423 4.654-5.158 7.549-7.07 3.389 3.367 7.08 6.509 9.887 10.391-4.418 5.072-9.522 9.479-14.197 14.304 3.635 3.85 7.431 7.549 11.163 11.302 4.375-4.053 8.128-8.804 12.825-12.503 2.574.954 4.161 3.539 6.23 5.276 1.308 1.566 3.496 2.724 3.871 4.868-3.967 4.525-8.664 8.353-12.589 12.932 4.289 3.742 7.946 8.16 12.235 11.913l.676.064c5.265-4.375 9.415-9.951 14.808-14.187 2.917 3.903 6.445 7.27 9.661 10.927-8.825 8.6-17.275 17.586-26.23 26.07-17.929-18.819-36.866-36.673-54.698-55.59 6.466-6.03 12.6-12.407 18.808-18.701"/><path d="m272.77 365.17c4.976-5.265 11.527-10.82 19.366-8.997 8.278 2.305 14.53 9.09 19.1 16.07 2.134 3.02 1.683 6.809 1.533 10.283 7.313-1.49 13.221 4.086 18.04 8.75 4.321 4.589 9.597 8.117 15.28 10.809-3.935 4.311-8.192 8.31-12.246 12.503-5.801-2.649-10.433-7.05-14.766-11.613-3-2.96-6.82-6.841-11.463-5.394-2.531 1.298-4.418 3.517-6.487 5.415 7.463 7.292 14.766 14.755 22.1 22.19-3.967 3.699-7.377 8.02-11.742 11.259-1.115-.708-2.112-1.576-3.056-2.477-15.07-15.291-30.368-30.335-45.38-45.68-2.102-2.155-4.279-4.236-6.52-6.241 4.858-6.134 10.948-11.13 16.245-16.878m5.104 14.369c4.311 4.911 9.168 9.308 13.65 14.08 2.842-2.949 7.206-5.544 7.603-9.94-1.566-4.482-5.619-7.721-9.34-10.466-5.244-2.07-8.6 3.292-11.913 6.327z"/><path d="m222.5 415.82c9.554-9.79 19.19-19.559 29.06-29.03 3.614 3.163 7.849 6.337 9.994 10.659-2.616 2.917-5.597 5.49-8.171 8.46 14.744 14.787 29.628 29.467 44.21 44.42-3.217 4.375-7.302 8.289-11.538 11.699-14.808-14.755-29.51-29.638-44.31-44.4-3.035 2.756-5.898 5.673-8.675 8.686-3.699-3.303-7.538-6.541-10.573-10.487z"/><path d="m200.79 436.81c4.225-5.769 9.908-11.87 17.564-12.149 7.281.011 13.05 5.233 17.8 10.176-3.571 3.624-7.184 7.195-10.68 10.884-3.249-2.198-5.908-6.487-10.305-5.887-2.981.847-5.104 3.957-3.968 7.06 2.02 3.646 6 6.445 10.305 5.919 8.257-.536 16.192-4.064 24.566-3.26 10.262.772 18.658 9.04 22.1 18.358 2.692 6.755-.826 14.14-5.308 19.248-4.343 4.793-9.64 10.208-16.642 9.962-8.482.407-14.851-6.241-20.374-11.774 3.592-3.603 7.01-7.41 10.82-10.777 3.399 1.222 5.02 5.254 8.353 6.798 3.978 2.938 10.262-1.748 8.846-6.412-1.673-5.447-7.42-9.115-13.02-8.943-7.903.911-15.602 4.053-23.666 3.217-7.978-.74-14.648-6.53-18.379-13.35-3.399-6-2.091-13.715 1.984-19.07"/><path d="m443.36 342.81l78.32-78.32 78.32 78.32-78.32 78.32"/></g><path fill="#000" d="m478.36 319.76v44.956h11.688v-16.996h15.173v16.996h11.688v-44.956h-11.688v17.344h-15.173v-17.344h-11.688m49.674 0v44.956h18.98c2.415 0 4.776-.421 7.104-1.233 4.392-1.537 7.993-4.282 10.803-8.257 2.833-3.997 4.262-8.325 4.262-13 0-3.36-.768-6.623-2.305-9.785-1.889-3.821-4.614-6.884-8.149-9.168-3.601-2.349-7.499-3.512-11.715-3.512h-18.98m11.688 9.786h4.396c4.567 0 7.988 1.505 10.294 4.557 1.735 2.306 2.627 5.03 2.627 8.123 0 3.096-.892 5.795-2.627 8.123-2.284 3.052-5.705 4.584-10.294 4.584h-4.396v-25.375z"/></svg>