<svg xmlns="http://www.w3.org/2000/svg" viewBox="0 0 600 593.02"><defs><clipPath id="0"><path d="m369.13 422.61h17.04v17.04h-17.04v-17.04"/></clipPath></defs><g transform="translate(-171.92-214.23)"><g fill="#fff" clip-path="url(#0)" transform="matrix(46.64542 0 0-46.64542-17138.35 20721.94)"><path d="m0 0l-.248.248.518.518-.255.256-1.288-1.288.256-.256.557.558.248-.248-.558-.558.256-.256 1.287 1.288-.255.256-.518-.518m-.365.978l.212.212-.691.691-.212-.212.219-.219-1.076-1.076.254-.254 1.076 1.077.218-.219m-1.543 1.152c.02.206.039.924-.583 1.546-.398.398-.925.618-1.486.618-.542 0-1.049-.209-1.428-.588l-.604-.604 1.061-1.063.594.595c.083.082.232.171.402.171.139 0 .267-.058.381-.172.237-.238.237-.545 0-.783l-.84-.84c-.196-.196-.345-.283-.484-.283-.196 0-.41.175-.691.458l-.066.065-.952-.952.065-.065c.305-.306.435-.496.451-.658.015-.155-.079-.319-.324-.564l-.932-.93c-.152-.152-.316-.232-.475-.232-.134 0-.26.057-.372.169-.109.109-.167.239-.167.375 0 .155.076.316.214.453l.549.548-1.061 1.064-.594-.595c-.479-.478-.699-1.037-.639-1.619.048-.461.277-.928.627-1.278.414-.415.89-.625 1.415-.625.133 0 .272.014.411.041.502.096.761.245 1.628 1.111.874.873 1.142 1.14.97 2 .197-.044.337-.062.465-.062.464 0 .772.262 1.415.904.84.839 1 1.231 1.051 1.791m-9.159-3.213l6.593 6.597-1.024 1.025-6.592-6.598 1.023-1.024zm4.192-4.195c.442-.442.903.107 1.199-.188.081-.081.154-.186.054-.288-.114-.112-.216-.037-.31.056-.027.032-.055.063-.085.093h-.004l-.271-.272c.014-.018.03-.033.045-.05.264-.263.517-.362.81-.068.288.287.305.555.014.846-.435.432-.953-.089-1.206.164-.068.068-.115.151-.032.234.13.131.238-.016.333-.103l.267.268-.028.028c-.235.239-.477.315-.737.055-.243-.244-.309-.516-.049-.775m2.4.288l-1.145 1.146.228.228-.254.254-.741-.742.254-.254.23.23 1.145-1.145.283.283zm.651.651l-.565.565.106.105c.124.125.245.025.346-.069.057-.053.111-.11.169-.164.067-.059.143-.119.233-.147l.3.3c-.116.039-.213.109-.304.188-.152.133-.352.397-.582.273.112.212-.046.375-.188.518-.239.233-.477.267-.726.019l-.477-.477 1.399-1.4.289.289m-.66.934l-.137-.137-.364.365.127.127c.137.137.236.021.34-.083.092-.092.144-.163.034-.272m1.472 2.679l-.657-.659 1.398-1.399.658.658-.256.256-.372-.373-.339.339.335.335-.248.248-.335-.335-.303.303.373.373-.254.254zm-.065-2.353l-.338.339.334.335-.247.248-.335-.336-.304.304.373.373-.253.254-.658-.659 1.398-1.4.658.659-.255.256-.373-.373m.705 2.485l1.145-1.146.283.284-1.145 1.146.228.228-.254.253-.741-.741.254-.254.23.23" transform="translate(383.19 433.11)"/></g></g></svg>