<svg xmlns="http://www.w3.org/2000/svg" height="589.91" width="600" viewBox="0 0 480 471.92544"><g fill="#fff"><path d="m7.484 223.51c74.46-74.49 148.88-149.02 223.34-223.51 11.9 12.09 24.04 23.923 35.9 36.03-76.93 77.06-153.79 154.24-230.92 231.12-12.03-11.77-23.699-23.9-35.805-35.61 2.223-2.91 4.861-5.47 7.484-8.03"/><path d="m236.23 97.15c13.08-11.962 30.736-18.886 48.52-18.39 24.23-.256 47.783 12.985 60.88 33.25 15.304 22.788 14.824 55.01-1.375 77.21-9.995 14.168-22.436 26.37-34.877 38.35-8.01 7.34-16.09 15.208-26.37 19.254-9.355 3.582-19.542 2.191-29.06.144 2.175 10.283 2.91 21.525-1.487 31.343-4.733 10.602-13.161 18.838-20.917 27.23-12.281 12.521-24.643 25.03-38.16 36.25-19.08 16.247-47.559 20.05-70.54 10.41-23.571-10.474-41.658-33.18-45.46-58.833-2.942-17.767 2.99-36.2 13.897-50.25 8.683-10.922 19.35-20.02 28.881-30.18 12.505 12.441 24.931 24.979 37.37 37.5-6.589 6.7-13.385 13.209-19.941 19.957-4.414 4.733-7.852 11.21-6.637 17.862 1.311 6.924 6.732 12.537 13.13 15.16 7.692 3.15 15.975-1.247 21.509-6.556 12.249-12.297 24.595-24.515 36.796-36.876 4.046-4.621 8.476-10.219 7.692-16.743-2.703-10.267-11.498-16.983-18.05-24.755 11.29-10.97 22.292-22.23 33.438-33.34 6.429 6.684 13.03 13.817 21.684 17.559 7.084 3.166 14.09-2.063 19.14-6.572 10.778-10.618 21.413-21.381 32.11-32.06 3.678-3.566 5.997-8.492 6.093-13.641-.416-13.225-16.295-24.515-28.449-17.18-9.835 6.828-17.207 16.615-26.05 24.627-12.217-12.713-25.01-24.851-37.2-37.612 7.964-7.548 15.48-15.576 23.428-23.12z"/><path d="m477.75 231.22c-8.995 9.115-18.03 18.201-27.19 27.16 27.01 40.918 54.06 81.83 81.06 122.75 7.276-7.856 15.13-15.173 22.469-22.969-6.557-8.735-13.296-17.35-19.812-26.12 5.517-5.457 11.08-10.908 16.312-16.625 9.555 5.617 17.957 12.989 26.812 19.625 7.4-7.7 15.22-14.99 22.6-22.73-40.84-26.9-81.57-53.95-122.25-81.09zm.875 28.656c18.33 14.412 36.943 28.484 55.812 42.16-4.518 4.318-8.941 8.692-13.219 13.25-14.06-18.58-27.87-37.34-42.59-55.41z" transform="scale(.8)"/><path d="m326.23 239.97c6.173-4.286 14.328-5.917 21.525-3.406 9.08 3.518 14.552 12.04 21.748 18.1-4.925 5.933-10.762 11.03-16.06 16.615-4.206-3.902-7.708-8.843-12.857-11.578-7.948-2.767-15.72 7.676-9.803 14.15 12.809 13.833 26.562 26.786 39.739 40.28 3.294 3.086 6.892 7.66 11.994 6.397 4.126-1.903 8.38-6.637 6.141-11.434-2.815-6.093-8.476-10.11-12.969-14.872 5.661-5.517 11.13-11.242 16.791-16.743 7.452 8.124 17.687 14.984 20.325 26.338 2.191 10.49-4.222 20.2-11.21 27.377-7.02 7.564-16.599 14.472-27.425 13.753-6.445-.208-12.04-4.01-16.375-8.507-15.16-15.256-30.432-30.4-45.56-45.672-6.205-5.981-9.563-14.968-7.532-23.507 2.926-11.626 11.77-20.837 21.525-27.3z"/><path d="m270.14 297.52c5.709-6.06 11.69-11.866 17.575-17.735 26.994 27.26 54.34 54.18 81.22 81.54-5.981 5.629-11.754 11.482-17.463 17.399-27.26-26.914-54.15-54.23-81.33-81.2"/><path d="m223.48 343.98c5.965-5.821 11.674-11.898 17.83-17.511 19.17 19.765 38.923 38.971 58.26 58.58 2.623 2.671 5.149 5.533 8.411 7.452 6.94-7.532 14.392-14.568 21.541-21.892 5.01 5.02 10.03 10.03 15.06 15.02-13.289 13.145-26.594 26.29-39.611 39.707-27.425-26.834-54.29-54.26-81.49-81.35"/><path d="m199.56 367.87c5.773-5.549 11.434-11.21 16.935-17.03 21.285 21.01 42.3 42.3 63.5 63.41 6.141 6.03 10.251 14.904 8.08 23.603-2.926 10.362-10.746 18.262-18.502 25.283-5.949 5.069-13.433 9.515-21.541 8.699-6.093-.464-11.37-4.11-15.784-8.08-21.429-21.317-42.649-42.857-64.21-64.06 5.741-6.04 11.818-11.738 17.527-17.83 19.67 19.893 39.451 39.691 59.25 59.47 3.038 2.815 6.556 6.109 11 5.933 4.254-.896 7.644-4.637 8.651-8.811.464-4.941-3.166-8.811-6.365-12.04-19.558-19.462-38.955-39.1-58.55-58.55z"/></g></svg>