<svg xmlns="http://www.w3.org/2000/svg" viewBox="0 0 874.0011 433.28928" width="874"><path fill="#c70025" d="m6.296 431.89c-6.53-1.888-6.295.362-6.295-60.25v-54.916l6.094.553c4.432.402 6.75 1.169 8.5 2.813l2.406 2.261v55.33 55.33l-3.75-.09c-2.063-.05-5.192-.507-6.955-1.017zm35 0c-6.392-1.848-6.295-1.146-6.295-45.615v-40.28h3.453c3.473 0 8.547 1.763 8.547 2.969 0 .357.589 1.454 1.309 2.439 1.241 1.697 1.505 1.657 5.05-.748 5.05-3.424 13.469-5.04 22.64-4.334 10.847.83 14.77 2.396 20.667 8.25 8.258 8.196 8.632 10.141 9.09 47.31l.391 31.389-5.326-.699c-6.738-.884-9.382-2.606-10.188-6.636-.351-1.756-.64-15.399-.642-30.32-.004-31.25-.184-32-8.317-35.11-6.567-2.508-22.399-1.86-26.358 1.078-4.846 3.597-5.203 6.323-5.264 40.16l-.056 31.25-2.75-.09c-1.513-.05-4.192-.507-5.955-1.017m106.76-.029c-11.36-1.884-17.03-7.826-18.99-19.899-.577-3.555-1.052-16.927-1.056-29.714l-.0001-23.25h-6.627-6.627l.497-5.168c.6-6.18 2.38-7.83 8.45-7.83h4.309v-11.8c0-7.844.402-12.202 1.2-13 .66-.66 3.72-1.2 6.8-1.2s6.14.54 6.8 1.2c.798.798 1.2 5.156 1.2 13v11.8h14.13 14.13l-.512 4.541c-.88 7.76-2.2 8.46-15.9 8.46h-11.845v26.777c0 29.71.079 30.1 6.599 32.828 1.907.797 6.754 1.394 11.313 1.394 7.108 0 8.145.242 9.532 2.223.856 1.222 1.557 4.147 1.557 6.5v4.277l-9.75-.117c-5.363-.064-12.201-.523-15.196-1.02zm58.867.127c-12.517-2.119-20.27-10.11-22.931-23.639-1.449-7.364-.817-37.07.905-42.528 2.243-7.112 7.184-13.06 13.535-16.3 5.77-2.941 6.309-3.02 20.07-3.02 13.748 0 14.304.083 19.98 3 4.155 2.135 6.794 4.389 9.151 7.818 4.337 6.309 5.363 10.09 6.067 22.391.487 8.496.307 10.633-1.069 12.733l-1.654 2.524-26.24.267-26.24.267.044 7.611c.052 9.09 1.655 12.168 7.784 14.951 3.614 1.641 6.712 1.899 23.17 1.932 10.45.021 19.495.368 20.1.772 1.946 1.299 3.4 5.01 3.4 8.669v3.566l-20.75-.118c-11.412-.065-22.811-.466-25.33-.893zm31.871-56.03c-.77-13.297-5.147-16.953-20.291-16.953-15.15 0-19.522 3.657-20.291 16.954l-.48 8.04h20.757 20.757l-.466-8.04zm38.503 55.936c-6.392-1.848-6.295-1.146-6.295-45.615v-40.28h3.55c4.875 0 9.08 2.385 9.888 5.608l.672 2.678 3.26-3.16c4.48-4.36 8.03-5.13 23.5-5.13h13.393l-.641 4.677c-1.07 7.79-2.08 8.32-15.88 8.32-13.62 0-17.746 1.282-20.54 6.385-1.488 2.717-1.746 7.238-2.02 35.37l-.313 32.25-2.687-.09c-1.478-.05-4.13-.507-5.892-1.017zm64.845.108c-6.912-1.633-6.609.337-6.922-45.04l-.28-40.97h3.467c5.268 0 8.551 1.661 9.975 5.05 1.08 2.568 1.481 2.829 2.486 1.617 2.348-2.829 11.425-5.873 19.07-6.395 16.243-1.11 26.18 3.58 32.06 15.13l3.508 6.896.314 32.499.314 32.499-4.814-.65c-2.647-.358-5.939-1.483-7.314-2.501l-2.5-1.851-.5-30.07c-.472-28.417-.614-30.23-2.571-32.894-3.554-4.84-7.827-6.318-18.278-6.319-10.625-.002-14.781 1.408-17.445 5.919-1.514 2.563-1.706 6.555-1.706 35.484v32.596l-2.75-.102c-1.512-.056-4.262-.46-6.111-.896zm99.73-.019c-10.479-1.771-19.13-8.313-21.95-16.602-2.217-6.511-1.754-18.09.945-23.632 5.266-10.81 12.729-13.783 36.38-14.498l16.75-.506v-3.904c0-2.147-.659-5.481-1.464-7.408-2.326-5.566-5.707-6.429-25.25-6.447-9.23-.008-17.277-.346-17.882-.75-1.961-1.309-3.4-5.02-3.4-8.764v-3.661l22.75.366c20.531.33 23.19.57 27.25 2.459 5.332 2.48 8.254 5.45 10.702 10.878 1.598 3.544 1.832 7.86 2.108 38.876l.31 34.89-4.158-.558c-4.549-.61-8.962-4.01-8.962-6.896 0-2.437-.484-2.327-4.809 1.093-6.677 5.279-17.245 7.104-29.321 5.064m24.584-13.399c5.746-2.401 6.997-5.491 7.403-18.289l.37-11.3h-14.64c-16.674 0-20.368.971-23.55 6.19-2.505 4.109-2.746 13.516-.459 17.938 2.426 4.692 8.25 6.824 18.716 6.85 5.362.013 10.1-.53 12.172-1.394zm64.749 13.301c-2.913-.485-6.572-1.541-8.131-2.347-3.218-1.664-7.722-6.686-9.399-10.481-.7-1.61-1.32-13.19-1.65-31.06l-.521-28.5-6.875-.299-6.875-.299.506-4.492c.71-6.32 2.92-8.41 8.87-8.41h4.815l.28-12.75.28-12.75h7 7l.28 12.75.28 12.75h14.1 14.1l-.497 5.168c-.7 7.31-1.77 7.83-15.95 7.83h-11.809v25.935c0 14.264.43 27.07.955 28.448 1.697 4.464 5.444 5.999 15.747 6.449 10.659.466 11.634 1.142 12.875 8.918l.678 4.25-10.378-.117c-5.708-.064-12.761-.514-15.675-.999zm46.05.141c-6.598-1.566-6.256.882-6.256-44.771v-41.501l5.666.47c9.824.815 9.334-1.595 9.334 45.889v40.889l-2.75-.102c-1.513-.056-4.21-.449-5.994-.872zm49.01-.011c-12.596-2.691-19.62-10.152-22.278-23.663-1.449-7.364-.817-37.07.905-42.528 2.242-7.111 7.184-13.06 13.534-16.3 5.701-2.907 6.428-3.02 19-3.02 16.422 0 21.43 1.502 27.836 8.351 7.129 7.621 8.236 12.213 8.236 34.15 0 21.79-1.143 27.04-7.443 34.2-5.835 6.629-11.799 8.863-24.918 9.337-5.852.211-12.544-.023-14.872-.52zm24.416-13.958c6.877-3.122 7.317-4.852 7.313-28.757-.003-19.1-.169-21.07-2.02-24.11-2.827-4.637-7.269-6.19-17.692-6.188-9.845.002-14.218 1.562-17.711 6.319-1.874 2.552-2.103 4.497-2.407 20.437-.185 9.689-.045 19.555.311 21.925.78 5.2 4.547 9.972 8.858 11.22 5.87 1.7 18.774 1.232 23.351-.846m42.915 13.466c-2.145-.764-4.276-1.982-4.735-2.706-.459-.724-.841-19.654-.85-42.07l-.02-40.76h3.865c4.539 0 9.135 3.133 9.135 6.228 0 1.936.125 1.969 1.787.466.983-.889 4.02-2.642 6.75-3.894 4.215-1.934 6.622-2.276 15.964-2.267 9.384.009 11.772.356 16.257 2.365 5.967 2.673 10.564 7.41 13.637 14.05 1.982 4.284 2.124 6.474 2.418 37.3l.312 32.75-2.312-.006c-3.799-.009-9.502-1.916-10.954-3.663-1.052-1.266-1.471-8.452-1.858-31.904l-.5-30.27-2.5-2.707c-3.891-4.213-7.977-5.449-18.02-5.449-10.388 0-13.997 1.335-17.02 6.299-1.829 3-1.952 5.229-1.956 35.451v32.25l-2.75-.044c-1.513-.024-4.505-.669-6.65-1.434zm100.4.541c-15.391-2.829-22.971-11.935-22.99-27.617-.016-13.432 4.838-20.577 16.99-25.01 3.198-1.166 9.346-1.796 21.25-2.177l16.75-.536-.015-4.612c-.036-11.299-3.704-13.11-26.58-13.11-19.617-.002-20.228-.249-21.16-8.558l-.523-4.637 22.891.387c19.08.322 23.556.68 26.877 2.145 5.064 2.233 8.145 5.115 10.861 10.162 2.069 3.844 2.165 5.378 2.462 39.39l.309 35.39-4.308-.578c-4.399-.59-8.811-4.224-8.811-7.257 0-2.057-1.386-1.787-3.595.701-4.663 5.251-18.929 8.03-30.405 5.919zm25-13.815c5.445-2.72 6.997-6.933 6.998-18.998v-10.25h-14.599c-11.566 0-15.33.347-18.12 1.67-4.891 2.321-7.275 6.636-7.279 13.179-.0001 11.81 5.5 16.15 20.496 16.15 6.566 0 9.947-.474 12.5-1.749zm46.768 13.883c-1.503-.347-3.64-1.415-4.75-2.372-1.98-1.707-2.02-2.813-2.02-58.75v-57.01h3.351c5.085 0 9.246 1.82 10.511 4.597.807 1.772 1.138 18.759 1.138 58.45v55.953l-2.75-.118c-1.513-.065-3.98-.403-5.482-.75m-298.37-101.66c-2.059-3.142-1.334-10.318 1.231-12.194 1.04-.761 4.65-1.285 8.844-1.285 9.318 0 11.531 1.463 11.531 7.622 0 7.805-.752 8.378-11.01 8.378-8.454 0-9.03-.137-10.594-2.521m-567.4-84.98v-48.5h48.5 48.5v-49.5-49.5h-48.5-48.5v-49-49h97 97v98.5 98.5h48.5 48.5v48.5 48.5h-145.5-145.5v-48.5m388-.5v-49h-48.5-48.5v-49-49h48.5 48.5v-49-49h48.5 48.5v48.99 48.99l48.25.26 48.25.26.26 48.75.26 48.75h-48.51-48.51v49 49h-48.5-48.5v-49m194 .501v-48.5h48.5 48.5v-49.5-49.5h-48.5-48.5v-49-49h96.5 96.5l.255 98.25.255 98.25 48.25.26 48.25.26v48.49 48.49h-145-145v-48.5"/></svg>