<?xml version="1.0" encoding="UTF-8" standalone="no"?>
<svg id="svg2" xmlns:rdf="http://www.w3.org/1999/02/22-rdf-syntax-ns#" xmlns="http://www.w3.org/2000/svg" height="433.29" viewBox="0 0 874.0011 433.28928" width="874" version="1.1" xmlns:cc="http://creativecommons.org/ns#" xmlns:dc="http://purl.org/dc/elements/1.1/">
 <path id="path4138" fill="#c70025" d="m6.2959 431.89c-6.5299-1.8881-6.2948 0.36214-6.2948-60.254v-54.916l6.0936 0.55256c4.4322 0.40189 6.7498 1.1689 8.5 2.8132l2.4064 2.2606v55.326 55.326l-3.75-0.0902c-2.0625-0.0496-5.1923-0.50724-6.9552-1.017zm35 0c-6.3916-1.8482-6.2948-1.1464-6.2948-45.615v-40.277h3.453c3.4731 0 8.547 1.7628 8.547 2.9694 0 0.35659 0.58915 1.4541 1.3092 2.4388 1.2406 1.6967 1.5052 1.6574 5.0505-0.74846 5.0452-3.4237 13.469-5.0363 22.64-4.3342 10.847 0.83035 14.77 2.3964 20.667 8.25 8.2579 8.1962 8.6317 10.141 9.0946 47.313l0.39086 31.389-5.3264-0.69875c-6.7379-0.88392-9.3818-2.6062-10.188-6.6364-0.3512-1.756-0.64022-15.399-0.64228-30.318-0.004-31.247-0.18363-32.004-8.3171-35.11-6.5672-2.508-22.399-1.8604-26.358 1.0784-4.8459 3.5966-5.2034 6.3232-5.2645 40.156l-0.0564 31.25-2.75-0.0902c-1.5125-0.0496-4.1923-0.50724-5.9552-1.017zm106.76-0.0298c-11.36-1.8838-17.031-7.8259-18.99-19.899-0.57681-3.5552-1.0522-16.927-1.0563-29.714l-0.01-23.25h-6.6272-6.6272l0.49657-5.1679c0.6-6.18 2.38-7.83 8.45-7.83h4.3089v-11.8c0-7.8444 0.40226-12.202 1.2-13 0.66-0.66 3.72-1.2 6.8-1.2s6.14 0.54 6.8 1.2c0.79774 0.79774 1.2 5.1556 1.2 13v11.8h14.13 14.13l-0.51178 4.5406c-0.88 7.76-2.2 8.46-15.9 8.46h-11.845v26.777c0 29.71 0.0791 30.104 6.5986 32.828 1.9074 0.79698 6.7541 1.3944 11.313 1.3944 7.108 0 8.1447 0.24174 9.5321 2.2225 0.85618 1.2224 1.5567 4.1474 1.5567 6.5v4.2775l-9.75-0.1169c-5.3625-0.0643-12.201-0.52331-15.196-1.02zm58.867 0.12659c-12.517-2.1186-20.27-10.11-22.931-23.639-1.4488-7.3641-0.81677-37.069 0.90488-42.528 2.2429-7.112 7.1841-13.063 13.535-16.3 5.77-2.9413 6.3091-3.0225 20.071-3.0225 13.748 0 14.304 0.0834 19.98 3 4.1553 2.135 6.794 4.3894 9.1512 7.8184 4.3371 6.3092 5.3625 10.094 6.0668 22.391 0.4866 8.4958 0.30717 10.633-1.069 12.733l-1.6537 2.5239-26.238 0.26658-26.238 0.26662 0.0439 7.611c0.0524 9.0904 1.6548 12.168 7.7841 14.951 3.6143 1.641 6.7121 1.8992 23.172 1.9315 10.45 0.0205 19.495 0.36788 20.1 0.77196 1.9456 1.2992 3.3997 5.0068 3.3997 8.669l-0.00001 3.5657-20.75-0.11762c-11.412-0.0647-22.811-0.46641-25.33-0.89272zm31.871-56.033c-0.76974-13.297-5.1465-16.953-20.291-16.953-15.145 0-19.522 3.6568-20.291 16.954l-0.48 8.04h20.757 20.757l-0.46562-8.0434zm38.503 55.936c-6.3916-1.8481-6.2948-1.1464-6.2948-45.615v-40.277h3.5497c4.8745 0 9.0791 2.3846 9.8881 5.608l0.67209 2.6778 3.2599-3.1596c4.48-4.36 8.03-5.13 23.5-5.13h13.393l-0.64104 4.6769c-1.07 7.79-2.08 8.32-15.88 8.32-13.62 0-17.746 1.2824-20.54 6.3848-1.4879 2.717-1.7459 7.2377-2.0187 35.365l-0.31272 32.25-2.6873-0.0902c-1.478-0.0496-4.1296-0.50724-5.8925-1.017zm64.845 0.10849c-6.9118-1.633-6.609 0.33688-6.9216-45.036l-0.28-40.97h3.4671c5.2678 0 8.5514 1.6613 9.9749 5.0467 1.0798 2.5681 1.4808 2.8289 2.4864 1.6172 2.3476-2.8287 11.425-5.8728 19.071-6.3954 16.243-1.1102 26.183 3.5802 32.057 15.127l3.5081 6.8958 0.31359 32.499 0.31359 32.499-4.8136-0.65039c-2.6475-0.35771-5.9386-1.4832-7.3136-2.501l-2.5-1.8506-0.5-30.073c-0.47246-28.417-0.61406-30.228-2.5711-32.894-3.5536-4.8402-7.8269-6.3177-18.278-6.3194-10.625-0.002-14.781 1.4083-17.445 5.9189-1.5141 2.5632-1.7061 6.5554-1.7061 35.484v32.596l-2.75-0.10236c-1.5125-0.0563-4.2623-0.45965-6.1106-0.89632zm99.731-0.0188c-10.479-1.7706-19.128-8.3125-21.95-16.602-2.2166-6.5112-1.7537-18.093 0.9446-23.632 5.2663-10.81 12.729-13.783 36.385-14.498l16.75-0.50636v-3.9042c0-2.1473-0.6588-5.481-1.464-7.4081-2.3257-5.5662-5.7069-6.4294-25.254-6.4472-9.2302-0.008-17.277-0.34592-17.882-0.75-1.9611-1.3094-3.3997-5.0179-3.3997-8.7639v-3.6607l22.75 0.36624c20.531 0.3305 23.189 0.5704 27.25 2.4591 5.3322 2.48 8.2544 5.4502 10.702 10.878 1.5981 3.5438 1.8321 7.86 2.1075 38.876l0.30979 34.89-4.1581-0.55772c-4.5488-0.61011-8.9615-4.0058-8.9615-6.896 0-2.4365-0.48379-2.3266-4.8086 1.093-6.677 5.2793-17.245 7.1044-29.321 5.0639zm24.584-13.399c5.7459-2.4008 6.9967-5.4909 7.403-18.289l0.37-11.3h-14.64c-16.674 0-20.368 0.97094-23.55 6.1898-2.5054 4.1094-2.7463 13.516-0.45931 17.938 2.4264 4.6922 8.2502 6.8236 18.716 6.8498 5.3623 0.0134 10.102-0.52963 12.172-1.3945zm64.749 13.301c-2.9132-0.48488-6.5721-1.5411-8.1309-2.3472-3.2176-1.6639-7.7216-6.6862-9.3993-10.481-0.7-1.61-1.32-13.19-1.65-31.06l-0.52146-28.5-6.8746-0.29853-6.8746-0.29853 0.50631-4.492c0.71-6.32 2.92-8.41 8.87-8.41h4.8151l0.27987-12.75 0.27988-12.75h7 7l0.27988 12.75 0.27987 12.75h14.097 14.097l-0.49657 5.1679c-0.7 7.31-1.77 7.83-15.95 7.83h-11.809v25.935c0 14.264 0.42991 27.066 0.95537 28.448 1.6973 4.4642 5.444 5.9987 15.747 6.4493 10.659 0.4662 11.634 1.1415 12.875 8.9181l0.67835 4.25-10.378-0.1169c-5.7078-0.0643-12.761-0.51363-15.675-0.99851zm46.053 0.14061c-6.5983-1.5664-6.2562 0.8824-6.2562-44.771v-41.501l5.6661 0.46988c9.824 0.81468 9.3339-1.5947 9.3339 45.889v40.889l-2.75-0.10236c-1.5125-0.0563-4.2097-0.4489-5.9938-0.87244zm49.011-0.0106c-12.596-2.6912-19.62-10.152-22.278-23.663-1.4488-7.3641-0.81677-37.069 0.90488-42.528 2.2424-7.1106 7.1843-13.063 13.534-16.3 5.701-2.9069 6.4277-3.0225 19-3.0225 16.422 0 21.43 1.5025 27.836 8.351 7.1286 7.621 8.2362 12.213 8.2362 34.149 0 21.79-1.1429 27.041-7.443 34.198-5.8347 6.6286-11.799 8.8633-24.918 9.337-5.8517 0.21127-12.544-0.0228-14.872-0.52026zm24.416-13.958c6.8771-3.1223 7.3169-4.8517 7.3126-28.757-0.003-19.098-0.16883-21.07-2.0219-24.11-2.8268-4.6365-7.2686-6.1901-17.692-6.1883-9.8451 0.002-14.218 1.5619-17.711 6.319-1.874 2.552-2.103 4.4973-2.4065 20.437-0.18451 9.6892-0.0448 19.555 0.31056 21.925 0.77986 5.2005 4.5468 9.9721 8.8578 11.22 5.8702 1.6995 18.774 1.232 23.351-0.84608zm42.916 13.466c-2.145-0.76442-4.2756-1.9822-4.7347-2.7061-0.459-0.72394-0.8415-19.654-0.8499-42.066l-0.02-40.76h3.8651c4.5388 0 9.1349 3.1333 9.1349 6.2276 0 1.9361 0.1255 1.9688 1.7865 0.46561 0.9826-0.88923 4.0201-2.6416 6.75-3.8942 4.2149-1.934 6.6224-2.2759 15.964-2.267 9.3838 0.009 11.772 0.35643 16.257 2.3655 5.9667 2.6729 10.564 7.4099 13.637 14.052 1.982 4.2836 2.124 6.4736 2.4176 37.301l0.312 32.75-2.312-0.006c-3.7989-0.009-9.5019-1.9161-10.954-3.6626-1.0523-1.266-1.4708-8.4516-1.8582-31.904l-0.5-30.27-2.5-2.7074c-3.891-4.2134-7.977-5.4492-18.018-5.4492-10.388 0-13.997 1.3352-17.023 6.2986-1.8293 3.0001-1.9523 5.2293-1.9558 35.451v32.25l-2.75-0.0439c-1.5125-0.0241-4.505-0.66933-6.6501-1.4337zm100.4 0.54141c-15.391-2.829-22.971-11.935-22.99-27.617-0.016-13.432 4.8382-20.577 16.99-25.01 3.198-1.1665 9.3463-1.7964 21.25-2.1772l16.75-0.53577-0.015-4.6117c-0.036-11.299-3.7039-13.108-26.58-13.11-19.617-0.002-20.228-0.24854-21.164-8.5578l-0.5227-4.6375 22.891 0.38688c19.075 0.32239 23.556 0.67988 26.877 2.1446 5.0642 2.233 8.1449 5.1155 10.861 10.162 2.0689 3.8442 2.1647 5.3783 2.4618 39.39l0.3091 35.39-4.3075-0.57776c-4.3985-0.58996-8.8107-4.2242-8.8107-7.2572 0-2.0571-1.3857-1.7869-3.595 0.70094-4.6634 5.2513-18.929 8.0282-30.405 5.9186zm25-13.815c5.4446-2.7199 6.9966-6.9331 6.9984-18.998v-10.25h-14.599c-11.566 0-15.33 0.34698-18.118 1.67-4.8912 2.321-7.2747 6.6363-7.2793 13.179-0.01 11.81 5.5002 16.15 20.496 16.149 6.5659-0.00056 9.9465-0.47363 12.5-1.7492zm46.768 13.883c-1.5026-0.34743-3.6401-1.4148-4.75-2.3719-1.9798-1.7074-2.0178-2.8134-2.0178-58.75v-57.01h3.3507c5.0853 0 9.246 1.8195 10.511 4.5968 0.8072 1.7715 1.1379 18.759 1.1379 58.45v55.953l-2.75-0.11831c-1.5125-0.0651-3.9795-0.40258-5.4822-0.75zm-298.37-101.66c-2.0586-3.1418-1.3344-10.318 1.2306-12.194 1.0401-0.76055 4.6499-1.2851 8.8438-1.2851 9.318 0 11.531 1.4631 11.531 7.6224 0 7.8051-0.75244 8.3776-11.012 8.3776-8.4544 0-9.0318-0.13742-10.594-2.5211zm-567.4-84.98v-48.5h48.5 48.5v-49.5-49.5h-48.5-48.5v-49-49h97 97v98.5 98.5h48.5 48.5v48.5 48.5h-145.5-145.5v-48.5zm388-0.5v-49h-48.5-48.5v-49-49h48.5 48.5v-49-49h48.5 48.5v48.99 48.99l48.25 0.25961 48.25 0.2596 0.25951 48.75 0.25952 48.75h-48.51-48.51v49 49h-48.5-48.5v-49zm194 0.5v-48.5h48.5 48.5v-49.5-49.5h-48.5-48.5v-49-49h96.495 96.495l0.2549 98.25 0.2549 98.25 48.25 0.2596 48.25 0.25961v48.49 48.49h-145-145v-48.5z"/>
</svg>
