<svg xmlns="http://www.w3.org/2000/svg" viewBox="0 0 600 177.63"><g transform="translate(-266.44-233.78)" fill="#8bbc08"><path d="m498.2 314h-21.1l-26.19 28.07v-28.07h-15.39v73.983h15.39v-25.2l6.267-6.562 22.15 31.757h19.832l-31.22-42.871 30.26-31.11z"/><path d="m506.06 387.97h15.298v-74h-15.298v74"/><path d="m531.01 328.35h19.445v59.64h15.261v-59.64h19.445v-14.34h-54.15v14.34"/><path d="m622.39 326.25c3.852 0 7.409 1.069 10.543 3.115 2.931 2.01 5.216 4.682 6.838 7.962l.203.424h16.441l-.313-.94c-2.341-7.612-6.488-13.639-12.404-18.06-5.861-4.405-13.05-6.617-21.307-6.617-10.06 0-18.671 3.76-25.527 11.206-6.856 7.409-10.34 16.607-10.34 27.334s3.484 19.943 10.34 27.371c6.856 7.428 15.464 11.225 25.527 11.225 8.04 0 15.187-2.23 21.12-6.709 5.935-4.405 10.137-10.487 12.478-18.1l.332-.958h-16.349l-.203.461c-1.622 3.354-3.907 6.03-6.838 8.05-3.189 2.101-6.764 3.17-10.543 3.17-5.695 0-10.561-2.396-14.542-7.133-4.02-4.774-6.01-10.635-6.01-17.381 0-6.672 1.991-12.478 6.01-17.27 3.981-4.755 8.847-7.151 14.542-7.151"/><path d="m708.55 343.02h-29.416v-29.01h-15.372v73.983h15.372v-30.633h29.416v30.633h15.28v-73.983h-15.28v29.01"/><path d="m752.88 356.65h33.416v-14.34h-33.416v-13.971h39.17v-14.34h-54.48v73.928h55.2v-14.284h-39.885v-16.994z"/><path d="m851.05 314v49.51l-28.27-49.51h-17.768v73.983h15.261v-49.562l28.384 49.562h17.786v-73.983h-15.39z"/><path d="m403.06 368.82v-72.08h-25.435l-44.29 71.02h-23.22l15.556-17.381c8.04-8.995 13.473-16.238 16.33-21.62 3.41-6.525 5.142-13.694 5.142-21.509 0-10.229-3.686-18.911-10.985-26.02-7.336-7.115-16.533-10.653-27.536-10.653-11.335 0-20.809 3.797-28.329 11.372-7.557 7.612-11.335 17.399-11.335 29.29h21.804c0-5.327 1.53-9.805 4.553-13.4 3.02-3.613 7.465-5.437 13.307-5.437 5.493 0 9.805 1.696 12.883 5.106 2.543 2.875 3.797 6.101 3.797 9.75 0 4.737-.885 8.921-2.654 12.552-1.954 3.981-6.211 9.769-12.699 17.362l-43.498 50.907h116.3v23.352h20.311v-23.352h13.381v-19.242h-13.381zm-20.311 0h-26.799l26.799-42.834v42.834"/><path d="m413.47 302.98s-11.704-73.946 69.36-68.952c0 0 10.856 75.64-69.36 68.952"/><path d="m362.87 242.11s-6.783 42.871 40.22 39.941c0 0 6.303-43.848-40.22-39.941"/></g></svg>