<svg xmlns="http://www.w3.org/2000/svg" xmlns:xlink="http://www.w3.org/1999/xlink" viewBox="0 0 600 384.02"><defs><linearGradient id="0" x1="0" x2="1"><stop stop-color="#6b1921"/><stop stop-color="#8f222b" offset=".272"/><stop stop-color="#a82931" offset=".493"/><stop stop-color="#b52c33" offset=".634"/><stop stop-color="#bb2f35" offset=".756"/><stop stop-color="#d33d3e" offset="1"/></linearGradient><linearGradient id="1" y2="-93.95" xlink:href="#0" gradientUnits="userSpaceOnUse" x2="318.33" y1="286.5" x1="2.663"/><linearGradient id="2" y2="-93.95" xlink:href="#0" gradientUnits="userSpaceOnUse" x2="318.37" y1="286.5" x1="2.71"/></defs><g transform="scale(1.32801)"><path fill="url(#1)" d="m0 0v289.17h125.86c69.32 0 101.72-37.698 101.72-86.07 0-53.996-48.29-69.43-48.29-69.43s33.623-14.579 33.623-56.913c.001-42.597-33.96-76.76-93.97-76.76h-118.94z"/><path fill="url(#2)" d="m241.75 0v289.17h210.06v-80.75h-115.67v-30.554h85.11v-66.56h-85.11v-30.554h115.67v-80.75h-210.06z"/><path fill="#fff" d="m99.71 64.38c39.956 0 58.45 28.12 58.45 51.969 0 16.06-7.387 30.24-21.824 42.18-12.427 10.706-43.955 31.34-43.955 31.34h65.847v35.464h-117.3v-35.464l67.08-54.799c4.848-4.423 10.162-11.151 10.162-19.267 0-9.967-7.805-17.698-19.608-17.698-15.01 0-20.999 12.355-24.01 21.517l-35.37-9.44c7.128-24.21 25.657-45.799 60.53-45.799z"/></g></svg>