<svg xmlns="http://www.w3.org/2000/svg" viewBox="0 0 410.71 209.71"><defs><linearGradient id="0" y1="808.7" x2="0" y2="606.65" gradientUnits="userSpaceOnUse"><stop stop-color="#1b181c"/><stop offset="1" stop-color="#514e51" stop-opacity=".863"/></linearGradient></defs><g transform="translate(-295.52-603.85)"><path d="m503.5 608.85h197.73v199.71h-197.73z" fill="#e4f4fc"/><path d="m300.52 808.55h202.95v-199.71h-202.95z" fill="url(#0)"/><g stroke="#e4f4fc" stroke-width="3" stroke-miterlimit="3.864"><path d="m592.14 683.98l29.548-29.355h61.08l-29.355 29.355h-61.27z" fill="#e75d53"/><path d="m611.37 683.98h42.04l42.836 43.3h-41.543l-43.33-43.3z" fill="#d1438f"/><path d="m625.13 697.71l29.383 29.438v61.21l-29.383-29.355v-61.3z" fill="#635faa"/><path d="m625.13 717.08v41.928l-43.33 42.918v-41.515l43.33-43.33z" fill="#008fd0"/><path d="m611.4 730.7l-29.548 29.383h-61.08l29.355-29.383h61.27z" fill="#00a4c1"/><path d="m592 730.7h-41.845l-43-43.33h41.515l43.33 43.33z" fill="#57ab36"/><path d="m578.49 717.27l-29.383-29.575v-61.08l29.383 29.355v61.3z" fill="#f5c825"/><path d="m578.44 697.71l.031-41.708 43.3-43.17v41.543l-43.33 43.33z" fill="#f0a33a"/></g><path shape-rendering="crispEdges" d="m578.44 684.01h13.728l9.574-9.602 9.684 9.602h13.728v13.701l9.684 9.684-9.684 9.684v13.618h-13.728l-9.684 9.684-9.684-9.684h-13.618v-13.728l-9.684-9.684 9.684-9.684v-13.591" fill="#e4f4fc"/><g transform="matrix(2.02981 0 0 2.06155-713.34-1096.91)" fill="#fff"><path d="m522.08 867.4v-2.937c0-3.1.349-8.724 4.086-8.963 3.239-.336 4.435 2.926 4.435 6.03 0 4.487-.847 7.099-3.387 10.361l-5.349 6.524c-5.631 7.175-11.06 15.899-11.06 26.01v2.037h31.638v-11h-18.251c.632-3.436 5.067-8.573 6.975-10.686l4.583-5.137c4.502-5.462 6.612-9.873 6.612-17.535 0-11.336-5.766-16.798-15.281-16.798-10.644 0-16.209 6.849-16.209 18.923v3.175h11.209"/><path d="m556.79 906.46l-1.057-48h.139l7.979 48h8.646l8.18-48h.126l-1.183 48h11.07v-61.23h-16.222l-6.204 36.16h-.126l-6-36.16h-16.361v61.23h11.01"/></g></g></svg>