<svg xmlns="http://www.w3.org/2000/svg" viewBox="0 0 600 262.83"><g transform="translate(599.35 82.65)"><path d="m-306.73-11.09v-.832l-.045-.832c0-.27 0-.539-.022-.809-.022-.382-.045-.764-.067-1.124 0-.225-.022-.427-.045-.652v-.135c0-.112-.022-.225-.022-.337-.022-.36-.067-.742-.09-1.101-.022-.36-.067-.719-.112-1.079-.067-.697-.157-1.394-.27-2.068 0-.157-.022-.315-.045-.45-.022-.09-.022-.18-.022-.247-.135-.922-.292-1.821-.472-2.697-.067-.45-.18-.877-.27-1.326-.045-.225-.09-.472-.135-.697-.045-.202-.09-.405-.135-.629-.202-.854-.427-1.708-.652-2.562v-.022c-.067-.27-.157-.517-.247-.787-.022-.112-.045-.225-.067-.315-.045-.112-.09-.225-.112-.36-.112-.315-.202-.674-.315-1.012-.247-.809-.517-1.596-.809-2.383-.045-.135-.112-.27-.157-.427-.067-.157-.135-.337-.202-.517-.18-.45-.36-.922-.539-1.371-.315-.764-.652-1.506-.989-2.248l-.067-.135c-.022-.022-.022-.067-.045-.09-.135-.315-.292-.629-.427-.922-.202-.382-.382-.764-.584-1.124-.202-.382-.405-.742-.607-1.101-.09-.202-.202-.382-.315-.584-.022-.045-.045-.09-.09-.157-.067-.112-.135-.225-.202-.337-.157-.292-.337-.584-.495-.854-.18-.27-.36-.562-.517-.832-.18-.27-.36-.539-.539-.809-.135-.225-.292-.427-.45-.652v-.022c-.045-.045-.067-.09-.09-.112-.157-.225-.315-.45-.472-.674s-.315-.45-.472-.652c-.157-.225-.337-.45-.495-.652-.157-.202-.337-.427-.495-.629-.135-.18-.292-.36-.427-.517 0-.022-.022-.022-.022-.022v-.022c-.157-.18-.315-.36-.472-.539-.157-.202-.315-.36-.472-.539-.157-.18-.315-.36-.472-.539l-.427-.472c-.157-.157-.292-.315-.45-.472l-.337-.337-.045-.045c-.022-.022-.045-.045-.067-.067l-.45-.45-.427-.405c-.135-.135-.292-.27-.427-.405-.157-.135-.292-.27-.427-.382-.157-.135-.292-.27-.45-.382-.135-.135-.27-.247-.427-.36-.045-.067-.112-.09-.157-.135 0-.022-.022-.022-.045-.045-.067-.067-.135-.112-.225-.18-.135-.112-.292-.247-.427-.36-.135-.112-.292-.225-.427-.337-.157-.112-.292-.202-.427-.315-.135-.112-.27-.202-.427-.315-.135-.09-.27-.202-.405-.292-.157-.112-.292-.202-.427-.292-.067-.067-.157-.112-.225-.157l-.022-.022-.022-.022c-.045-.022-.112-.045-.157-.09-.135-.09-.27-.18-.405-.27l-.427-.27c-.157-.09-.292-.18-.427-.27-.135-.09-.27-.157-.427-.247-.135-.09-.27-.157-.427-.247-.135-.067-.27-.157-.405-.225l-.427-.247h-.022c0-.022-.022-.022-.045-.022-.112-.067-.247-.135-.36-.202-.135-.067-.292-.135-.427-.202-.135-.067-.292-.135-.427-.202-.135-.09-.27-.157-.427-.225-.135-.067-.292-.112-.427-.18l-.427-.18c-.135-.067-.292-.135-.427-.202-.157-.045-.292-.112-.427-.18-.157-.045-.292-.112-.45-.157-.157-.067-.292-.112-.427-.157-.157-.067-.292-.112-.45-.157-.135-.067-.292-.112-.45-.157-.135-.045-.292-.09-.427-.135-.157-.067-.315-.112-.45-.157-.157-.045-.292-.067-.45-.112-.09-.022-.157-.067-.247-.09h-.022c-.067-.022-.112-.022-.18-.045-.157-.045-.315-.09-.45-.112-.157-.045-.315-.09-.472-.112-.157-.045-.315-.09-.472-.112-.157-.045-.315-.067-.472-.112-.112-.022-.247-.045-.36-.067-.135-.022-.247-.045-.382-.067l-.36-.067c-.135-.022-.247-.045-.382-.067 0 0-120.61-20.904-139.9-20.409-5.237.157-9.418.517-12.407.899 21.488-1.416 28.681 6.676 33.469 11.396 13.217 12.992 14.14 34.907 14.14 47.02 0 .022.022.045.022.09v144.1c0 12.03-.809 34.3-14.161 47.45-4.743 4.675-11.823 12.587-32.704 11.441 3.102.27 7.687.494 13.846.405 22.19-.405 91.57-13.08 137.7-20.319 1.146-.157 2.293-.405 3.394-.719.022 0 .045-.023.09-.023.382-.112.742-.247 1.124-.382.697-.202 1.394-.405 2.09-.674.045-.023.09-.045.135-.067.45-.18.899-.405 1.349-.607.562-.247 1.146-.494 1.708-.764.067-.045.112-.09.202-.135.472-.247.922-.539 1.371-.809.495-.292 1.012-.539 1.483-.854.135-.09.292-.18.427-.292l.067-.023c.022-.023.045-.045.067-.067.112-.067.202-.112.292-.18.27-.202.539-.382.809-.584.27-.202.539-.405.809-.607.27-.225.539-.427.809-.652.067-.045.157-.112.225-.18.022-.023.045-.045.067-.045.112-.112.225-.202.337-.292.202-.18.427-.36.629-.562.202-.18.405-.36.607-.539.225-.202.405-.382.607-.584.18-.18.36-.337.539-.517.022-.023.045-.067.09-.09.022-.023.022-.023.045-.045.112-.135.247-.247.36-.382.18-.18.337-.36.517-.517.157-.18.337-.36.495-.539.135-.18.292-.337.427-.517.157-.157.292-.315.45-.494.135-.157.247-.315.382-.472.022-.023.022-.023.045-.045.135-.157.27-.337.405-.517.135-.157.27-.337.405-.494.135-.157.27-.337.382-.517.135-.157.27-.337.382-.517.135-.157.247-.337.382-.517.112-.157.225-.315.36-.495.022-.045.067-.112.112-.157v-.023c.09-.112.157-.225.225-.315.112-.18.225-.36.337-.517.135-.18.225-.36.36-.517.09-.18.202-.337.292-.494.112-.18.225-.337.315-.517.112-.157.202-.337.315-.494.09-.18.202-.36.292-.517.045-.067.067-.135.112-.202.067-.112.135-.202.18-.315l.292-.517c.09-.157.18-.337.27-.517.112-.18.202-.337.292-.517.09-.18.157-.337.247-.517.09-.18.18-.337.27-.517.09-.18.157-.337.247-.517.067-.135.135-.292.202-.427 0 0 0-.023.022-.023 0-.023.022-.045.022-.067.09-.18.157-.36.247-.539.067-.18.157-.337.225-.517.09-.18.157-.36.247-.539.067-.18.157-.36.225-.539.067-.18.135-.36.225-.539.067-.157.135-.337.202-.517.067-.18.135-.36.225-.539.022-.112.067-.202.09-.292l.022-.045c.022-.067.067-.135.09-.225.067-.18.135-.36.202-.539.067-.18.135-.382.202-.562.045-.18.112-.36.18-.562.067-.18.135-.36.18-.562.067-.18.135-.36.202-.562.045-.18.112-.36.157-.562.067-.18.135-.382.18-.562.022-.067.045-.135.067-.202v-.022c.022-.112.067-.225.112-.36.045-.202.112-.382.157-.584.067-.202.112-.382.157-.584.067-.202.112-.405.157-.584.045-.202.112-.405.157-.607.045-.202.09-.405.135-.607.045-.202.09-.405.135-.607.045-.18.09-.405.135-.607 0 0 .022-.022.022-.045.045-.18.09-.382.112-.562.045-.202.09-.427.135-.629.045-.202.067-.427.112-.629.045-.225.09-.427.112-.629.045-.225.09-.427.112-.652.045-.225.067-.427.112-.652.045-.202.067-.427.09-.652.022-.112.045-.247.067-.382v-.045c.022-.067.022-.157.045-.225.022-.225.045-.45.09-.652.022-.247.045-.472.067-.697.022-.247.067-.472.09-.697.022-.225.045-.472.067-.697.022-.247.045-.472.067-.697.022-.247.045-.495.045-.742.022-.18.045-.36.045-.517v-.045c0-.067.022-.112.022-.18.022-.225.022-.495.045-.742 0-.225.022-.472.045-.719 0-.27.022-.539.022-.787.022-.27.022-.539.022-.787.022-.27.022-.517.022-.787v-.787-.09-118.41-.832" fill="#dc1d25"/><path d="m-446.07-22.892c0-12.03-.787-34.3-14.161-47.45-4.788-4.72-11.98-12.812-33.491-11.396-11.08.719-76.81 17.375-76.81 17.375-4.181.967-8.092 3.439-11.598 7.06-3.462 3.596-6.541 8.294-9.103 13.779-2.54 5.44-4.563 11.666-5.957 18.386-1.394 6.676-2.158 13.891-2.158 21.308v105.64c0 7.44.764 14.633 2.158 21.308 1.394 6.721 3.417 12.947 5.957 18.386 2.562 5.484 5.642 10.182 9.103 13.779 3.506 3.619 7.418 6.091 11.598 7.06 0 0 65.724 16.656 76.81 17.375 21.511 1.416 28.704-6.676 33.491-11.396 13.374-13.149 14.161-35.424 14.161-47.45v-143.76" fill="#731518"/><g fill="#fff"><path d="m-356.92 33.76v-36.705l-4.406-.27-24.03-1.506v37.942l-35.447-.652v34.1l35.447-.652v37.942l28.434-1.776v-36.705l30.704-.607v-30.524l-30.704-.584z"/><path d="m-515.66-44.688l-.809.067c-.067.022-.112.022-.18.022-.045.022-.112.022-.157.022-.067.022-.112.022-.18.045-.045 0-.112 0-.157.022-.067 0-.112 0-.18.022-.067 0-.112 0-.18.022-.067 0-.112 0-.18.022-.045 0-.112 0-.18.022-.045 0-.112.022-.157.022-.067 0-.135.022-.18.022-.067.022-.112.022-.18.045h-.18l-52.597 9.01v31.33l53.11-6.069.584-.045h.067.09.067c.045 0 .067-.022.09-.022h.36c.112 0 .247-.022.36-.022.112 0 .225 0 .36.022h.337.427c.135.022.292.022.427.045.135 0 .292.022.427.022.135.022.27.045.405.067.135.022.27.022.405.045.135.022.27.045.405.067.135.022.27.045.405.067.112.022.247.045.382.09.135.022.27.045.382.09.135.022.27.067.382.112.135.045.247.067.382.112.112.045.225.09.36.112.112.045.247.112.36.157.112.045.247.09.36.135.112.067.247.112.36.157.112.067.225.112.337.18.135.045.247.112.36.18.112.045.225.112.337.18.112.067.202.135.315.202.112.067.225.135.315.202.112.09.225.157.337.225.09.067.202.157.292.225.112.09.202.157.315.247.09.067.202.157.292.247.09.09.18.157.27.247l.27.27c.112.09.18.202.27.292.112.09.18.202.27.292.09.09.18.202.27.292.09.112.18.225.27.315.09.112.157.225.247.337.09.112.18.225.247.337.067.112.157.225.225.36.09.112.157.225.247.36.067.112.135.247.225.36.067.135.135.27.202.382.067.135.135.27.202.405.067.135.135.27.202.405.067.135.112.27.18.405.067.135.135.27.202.427.045.135.112.27.157.427.067.135.112.292.157.427.067.157.112.315.157.45.045.157.09.315.135.472.045.157.09.337.157.494.045.157.09.337.135.517.045.18.09.337.135.517.045.18.067.36.112.539.045.18.09.337.112.517.045.202.09.382.112.562.022.18.067.36.09.562.022.18.067.36.09.562.022.18.045.382.067.584.022.18.045.382.067.584.022.202.045.382.067.584s.022.405.045.629c.022.202.022.405.045.607 0 .202 0 .405.022.607 0 .225 0 .427.022.629v.652.652c-.022.202-.022.427-.022.629-.022.225-.022.427-.022.652-.022.202-.022.405-.045.629-.022.202-.022.405-.045.629-.022.202-.045.405-.067.607-.022.202-.045.427-.067.607-.022.225-.045.405-.067.607s-.067.405-.09.584c-.022.202-.067.405-.09.607-.022.18-.067.382-.112.562-.022.202-.067.382-.112.562-.045.202-.09.382-.135.562-.022.18-.067.382-.135.562-.045.18-.09.36-.135.539-.045.18-.112.36-.157.539-.045.157-.09.315-.135.472-.045.18-.112.337-.157.494-.067.157-.112.315-.18.472-.045.157-.112.292-.157.45-.067.157-.112.315-.18.45-.067.157-.135.292-.202.45-.045.135-.112.292-.18.427-.067.135-.157.27-.225.427-.067.135-.135.27-.202.405-.067.135-.157.27-.225.405-.067.135-.157.27-.225.405-.09.112-.157.247-.247.382s-.157.247-.247.382c-.09.112-.18.247-.247.36-.09.135-.18.247-.27.36-.09.112-.18.225-.27.337-.067.112-.157.225-.27.337-.09.112-.18.225-.27.315-.09.112-.18.225-.292.315-.09.112-.18.225-.292.315-.09.09-.202.202-.292.292-.112.09-.202.18-.315.27-.09.112-.202.202-.315.292-.112.09-.202.157-.315.27-.112.067-.225.157-.337.247-.112.09-.225.157-.337.247-.112.09-.225.157-.36.247-.112.067-.225.157-.337.225-.135.067-.247.157-.36.225-.135.067-.247.135-.36.202-.135.067-.247.135-.382.202-.112.067-.247.135-.382.202-.112.067-.247.112-.382.18-.135.067-.27.112-.405.18-.135.067-.27.112-.405.157-.135.067-.27.112-.405.18-.157.045-.292.09-.45.135l-.427.135c-.157.045-.292.09-.45.112-.157.045-.292.09-.45.135-.157.022-.315.067-.45.09-.157.045-.315.067-.472.112-.157.022-.315.045-.472.067-.157.045-.315.067-.472.09s-.337.022-.495.045c-.157.022-.337.045-.495.067-.157 0-.337.022-.495.022-.18.022-.337.045-.495.045l-36.66 1.169-3.799.09v31.805l40.549 1.281c.157 0 .315.022.472.022.157.022.315.022.472.045s.337.022.495.045.315.045.472.067c.135.022.292.045.45.067.157.045.315.067.45.09.157.022.315.067.472.09.157.045.292.067.45.112.157.022.292.067.45.112.135.045.292.09.427.135.157.045.292.09.427.135.157.067.292.112.45.157.135.067.27.112.427.157.135.067.27.112.405.18.135.067.27.112.405.18.135.067.27.135.405.202.135.067.247.112.382.202.112.045.247.112.36.202.135.067.247.135.36.202.135.067.247.135.36.225.112.067.225.157.36.225.112.09.225.157.337.247.112.09.225.157.337.247.09.09.202.18.315.27s.225.18.315.27c.112.09.225.18.315.27.112.09.202.202.315.292.112.09.202.202.292.315.112.09.202.202.315.292.09.112.18.225.27.337.09.112.202.202.292.315.09.112.18.225.27.337.112.112.18.247.27.36.09.112.18.225.27.36.09.112.18.247.247.382.09.112.18.247.247.382.09.112.18.247.247.382.09.135.157.27.247.405.067.135.157.27.225.405.067.135.135.292.202.427.067.135.135.27.202.427.067.135.135.27.202.427.067.135.135.292.202.427.067.157.112.315.18.45.045.157.112.315.157.472.067.157.112.315.18.472.045.157.112.315.157.472.045.157.09.315.135.495.045.18.112.36.157.517.045.18.09.36.135.539.067.18.112.36.135.539.045.202.09.382.135.562.045.202.09.382.112.562.045.202.09.382.112.584.022.18.067.382.09.562.022.202.067.382.09.584s.045.405.067.584c.022.202.045.405.067.607.022.202.045.405.067.607s.022.405.045.607c.022.202.022.405.045.607 0 .225 0 .427.022.629 0 .202 0 .427.022.629v.629.652c-.022.225-.022.427-.022.652-.022.202-.022.427-.022.629-.022.225-.022.427-.045.629-.022.202-.022.427-.045.629-.022.202-.045.405-.067.607-.022.202-.045.405-.067.607-.022.18-.045.382-.067.584-.022.18-.067.382-.09.562-.022.202-.067.382-.09.584-.022.18-.067.36-.112.539-.022.202-.067.382-.112.562-.045.18-.067.36-.112.539-.045.18-.09.36-.135.539-.045.157-.09.337-.135.495-.067.18-.112.337-.157.517-.045.157-.09.292-.135.45-.045.157-.09.315-.157.45-.045.157-.09.315-.157.45-.045.135-.112.292-.157.427-.067.135-.135.27-.202.427-.067.135-.112.27-.18.405-.067.135-.135.27-.202.405-.067.135-.135.247-.202.382-.067.135-.135.247-.202.382-.067.112-.157.247-.225.36-.067.112-.135.247-.225.36-.067.112-.157.225-.225.337-.09.112-.157.225-.247.337-.067.112-.157.225-.247.337-.067.09-.157.202-.247.292-.09.112-.18.202-.27.315-.09.09-.18.18-.27.27-.09.112-.18.202-.27.292-.09.09-.18.18-.27.27-.09.067-.202.157-.292.247-.09.09-.202.18-.292.247-.09.09-.202.157-.292.225-.112.09-.202.157-.315.225-.09.067-.202.135-.315.225-.09.067-.202.135-.315.202-.112.067-.225.135-.337.202-.112.067-.225.112-.337.18-.112.067-.225.112-.337.18-.112.045-.225.112-.337.157-.135.045-.247.09-.36.135-.112.067-.247.112-.36.157-.135.045-.247.09-.382.135-.112.022-.225.067-.337.112-.135.022-.247.067-.382.112-.112.022-.225.067-.36.09-.135.045-.247.067-.382.09-.135.045-.247.067-.382.09-.135.022-.27.045-.382.067-.135.022-.27.045-.405.067-.135.022-.27.045-.405.067-.135 0-.27.022-.405.045-.135 0-.27.022-.405.045-.135 0-.27 0-.427.022h-.427c-.112.022-.225.022-.337.022h-.36-.36c-.112-.022-.225-.022-.36-.022h-.067c-.023-.022-.067-.022-.09-.022h-.067-.09l-.202-.022h-.18l-.202-.022-.202-.022-49.09-5.619-3.933-.45v31.356l52.597 9.01c.067 0 .112 0 .18.023.067 0 .112 0 .18.023.045 0 .112 0 .18.023.045 0 .112.023.157.023l.18.023c.067 0 .135.023.18.023.067.023.135.023.18.023.067.023.135.023.18.023.067.023.112.023.18.023.045.023.112.023.157.045.067 0 .112 0 .18.023.045 0 .112 0 .157.023l.832.067c.247.023.495.045.742.067.247.023.495.023.742.045.27 0 .517.023.764.023.247.023.517.023.764.045h.787c.247 0 .517-.023.764-.023.27 0 .517-.023.787-.023.27-.023.517-.023.787-.045.27 0 .517-.023.787-.045.247-.023.517-.045.787-.067.247-.045.517-.067.764-.09.27-.045.517-.09.787-.112.27-.045.517-.09.787-.112.27-.045.517-.09.787-.135.247-.045.517-.09.764-.135.27-.067.517-.112.787-.18.36-.067.719-.157 1.079-.247.36-.09.719-.202 1.079-.292.36-.09.719-.202 1.056-.315.36-.112.719-.225 1.056-.337.36-.112.697-.247 1.056-.36.337-.135.674-.27 1.034-.405.337-.135.674-.292 1.012-.427.337-.157.674-.315 1.012-.472.337-.157.652-.315.989-.472s.652-.337.989-.517c.315-.157.629-.337.967-.517.315-.18.629-.382.944-.562.315-.202.629-.405.944-.607.315-.202.607-.405.922-.629.315-.202.607-.427.922-.629.292-.225.607-.45.899-.697.337-.247.674-.517.989-.809.337-.27.652-.562.989-.832.315-.292.629-.584.944-.877.315-.315.629-.607.922-.922.315-.292.607-.607.899-.944.315-.315.607-.629.877-.967.292-.337.584-.674.854-1.01.27-.337.539-.674.809-1.034.27-.36.539-.697.787-1.056.27-.36.517-.742.787-1.101.247-.382.495-.742.742-1.124.225-.382.472-.787.697-1.169.225-.382.45-.787.674-1.191.225-.382.45-.809.652-1.214.202-.405.427-.832.607-1.236.202-.427.405-.854.607-1.281.202-.495.427-.989.607-1.461.202-.495.405-1.01.584-1.506.18-.495.36-1.01.539-1.528.18-.517.337-1.034.517-1.551.157-.517.315-1.056.45-1.596.157-.517.292-1.079.427-1.618.135-.539.27-1.101.382-1.641.112-.562.225-1.124.337-1.686.112-.562.225-1.146.315-1.708.09-.584.18-1.169.27-1.753.067-.584.157-1.191.225-1.776.067-.607.112-1.191.18-1.798.045-.607.09-1.214.135-1.843.045-.607.067-1.236.09-1.843.022-.629.045-1.259.067-1.888 0-.629.022-1.281.022-1.911v-.944c-.022-.292-.022-.607-.022-.899 0-.315 0-.629-.022-.922 0-.315-.022-.629-.022-.922-.022-.292-.022-.607-.045-.899-.022-.315-.045-.607-.045-.922-.022-.292-.045-.584-.067-.899-.022-.292-.045-.584-.067-.877-.022-.292-.067-.584-.09-.899-.022-.292-.067-.584-.09-.877-.022-.292-.067-.584-.09-.877-.045-.292-.067-.584-.112-.877-.045-.292-.09-.584-.135-.877-.022-.27-.067-.562-.112-.854-.045-.27-.09-.562-.135-.854-.067-.27-.112-.562-.157-.832-.045-.27-.112-.539-.157-.809-.045-.247-.112-.517-.157-.787-.067-.27-.112-.539-.18-.787-.045-.27-.112-.539-.18-.809-.067-.247-.112-.517-.18-.764-.067-.27-.135-.517-.202-.787-.067-.247-.135-.517-.202-.764-.067-.27-.135-.517-.202-.764-.067-.247-.135-.517-.202-.764-.09-.247-.157-.517-.247-.764-.067-.247-.157-.495-.225-.742-.09-.27-.157-.517-.247-.764-.09-.247-.18-.495-.27-.742-.067-.247-.157-.472-.247-.719-.09-.247-.18-.495-.27-.719-.09-.247-.18-.495-.292-.719-.09-.225-.18-.45-.27-.674-.09-.225-.18-.45-.27-.674s-.202-.45-.292-.652c-.09-.225-.202-.45-.292-.674-.112-.202-.202-.427-.315-.652-.09-.202-.202-.427-.292-.652-.112-.202-.225-.427-.337-.629-.09-.225-.202-.427-.315-.629-.112-.225-.225-.427-.337-.652-.112-.202-.225-.405-.337-.629-.112-.202-.225-.405-.337-.607-.135-.202-.247-.405-.36-.607-.135-.202-.247-.405-.36-.607-.135-.202-.247-.405-.382-.607-.112-.202-.247-.382-.36-.584-.135-.202-.247-.405-.382-.607-.067-.09-.135-.202-.202-.315-.067-.112-.157-.202-.225-.315-.067-.112-.157-.202-.225-.315-.067-.09-.157-.202-.225-.292-.067-.112-.157-.202-.225-.315-.09-.09-.157-.202-.247-.292-.067-.09-.157-.202-.225-.292-.09-.09-.157-.18-.247-.292-.09-.09-.157-.18-.247-.27-.067-.112-.157-.202-.247-.292-.09-.112-.157-.202-.247-.292-.067-.09-.157-.202-.247-.292-.067-.09-.157-.18-.247-.27-.067-.09-.157-.202-.247-.292-.067-.09-.157-.18-.247-.27-.067-.09-.157-.202-.225-.292.067-.09.157-.202.225-.292.09-.09.18-.202.247-.292.09-.09.18-.18.247-.27.09-.112.18-.202.247-.292.09-.09.18-.202.247-.292.09-.09.157-.18.247-.27.09-.09.18-.202.247-.292.09-.09.157-.18.247-.292.09-.09.157-.202.247-.292.067-.09.157-.18.225-.292.09-.09.157-.18.247-.292.067-.09.157-.202.225-.292.067-.112.157-.202.225-.292.067-.112.157-.225.225-.315.067-.112.157-.202.225-.315.067-.09.135-.202.202-.315.135-.202.247-.382.382-.584.112-.202.247-.405.36-.607.135-.202.247-.405.382-.607.112-.202.225-.405.36-.607.112-.202.225-.405.36-.607.112-.202.225-.405.337-.629.112-.202.225-.405.337-.629.112-.202.225-.427.337-.629.112-.202.225-.427.315-.629.112-.225.225-.427.337-.652.09-.202.202-.427.292-.629.112-.225.202-.45.315-.674.09-.202.202-.427.292-.652.09-.225.202-.427.292-.652.09-.225.18-.45.27-.674.09-.225.18-.45.27-.674.112-.247.202-.472.292-.719.09-.225.18-.472.27-.719.09-.247.18-.495.247-.742.09-.225.18-.494.27-.719.09-.27.157-.517.247-.764.067-.247.157-.494.225-.742.09-.27.157-.517.247-.787.067-.247.135-.494.202-.764.09-.247.157-.517.225-.764.067-.27.135-.517.202-.764.067-.27.135-.539.202-.787.067-.27.112-.539.18-.787.067-.27.112-.539.18-.809.045-.27.112-.517.157-.787.045-.27.112-.539.157-.809.045-.27.112-.539.157-.809.045-.292.09-.562.157-.854.045-.27.09-.562.135-.854.045-.27.09-.562.112-.854.045-.292.09-.584.135-.854.045-.292.067-.584.112-.877.022-.292.067-.584.09-.877.022-.292.067-.584.09-.899.022-.292.067-.584.09-.877.022-.315.045-.607.067-.922.022-.292.045-.607.067-.899 0-.315.022-.607.045-.922.022-.292.022-.607.045-.899 0-.315.022-.607.022-.922.022-.315.022-.629.022-.944 0-.292 0-.607.022-.922v-.944c0-.629-.022-1.259-.022-1.888-.022-.629-.045-1.259-.067-1.866-.022-.629-.045-1.236-.09-1.843-.045-.607-.09-1.214-.135-1.821-.067-.607-.112-1.191-.18-1.798-.067-.584-.157-1.169-.225-1.753-.09-.584-.18-1.169-.27-1.731-.09-.584-.202-1.146-.315-1.708-.112-.562-.225-1.124-.337-1.663-.112-.562-.247-1.101-.382-1.663-.135-.517-.27-1.079-.427-1.596-.135-.539-.292-1.056-.45-1.573-.18-.517-.337-1.034-.517-1.551-.18-.517-.36-1.034-.539-1.528-.18-.494-.382-.989-.584-1.483-.18-.494-.405-.967-.607-1.439-.202-.427-.405-.854-.607-1.281-.18-.427-.405-.832-.607-1.259-.202-.405-.427-.809-.652-1.214-.225-.405-.45-.809-.674-1.191-.225-.382-.472-.787-.697-1.169-.247-.382-.495-.742-.742-1.124-.27-.36-.517-.742-.787-1.101-.247-.36-.517-.719-.787-1.056-.27-.36-.539-.697-.809-1.034-.27-.36-.562-.697-.854-1.012-.27-.337-.562-.674-.877-.989-.292-.315-.584-.629-.899-.944-.292-.292-.607-.607-.922-.899s-.629-.584-.944-.877c-.337-.292-.652-.562-.989-.854-.315-.27-.652-.539-.989-.809-.292-.225-.607-.45-.899-.697-.292-.202-.607-.427-.922-.652-.292-.202-.607-.427-.899-.629-.315-.202-.629-.382-.944-.584s-.629-.382-.944-.584c-.337-.18-.652-.36-.967-.539-.337-.18-.652-.337-.989-.517-.337-.157-.652-.315-.989-.495-.337-.157-.674-.292-1.012-.45-.337-.157-.674-.292-1.012-.427-.36-.135-.697-.27-1.034-.405-.36-.112-.697-.247-1.056-.36-.337-.135-.697-.247-1.034-.36-.36-.112-.719-.225-1.079-.337-.36-.09-.719-.202-1.079-.292-.36-.09-.719-.18-1.079-.27-.27-.045-.539-.112-.787-.157-.27-.045-.539-.09-.787-.135-.27-.045-.517-.09-.787-.135s-.517-.09-.787-.135c-.27-.045-.517-.067-.787-.112-.247-.022-.517-.045-.787-.09-.247-.022-.517-.045-.787-.067-.247-.022-.517-.045-.787-.045-.247-.022-.517-.045-.787-.067-.247 0-.517-.022-.764-.022h-.787-.787c-.247 0-.495.022-.764.022-.247 0-.495.022-.742.022-.247.022-.517.022-.764.045-.247.022-.495.045-.742.067"/></g><path d="m-236.32 120.43v-55.34h44.21v55.34h46.82v-142.78h-46.82v48.19h-44.21v-48.19h-46.798v142.78h46.798m146.55-109.46h8.924c24.972 0 34.705 7.934 34.705 37.672 0 26.973-11.913 38.481-33.716 38.481h-9.912v-76.15m14.678 109.46c45.809 0 75.75-20.634 75.75-74.36 0-47-28.569-68.42-74.58-68.42h-62.64v142.78h61.47z" fill="#bbbaba"/></g></svg>