<svg xmlns="http://www.w3.org/2000/svg" viewBox="0 0 1221.84 283.58"><path d="m0 0v281.45h281.45v-281.45h-281.45" fill="#d2002e"/><path d="m206.18 132.04c28.17-12.806 40.695-30.45 40.695-58.908 0-37.28-27.889-65.45-67.73-72.28-5.976-.854-11.952-.854-18.213-.854-8.822 0-16.221 0-23.62.854-12.237 1.707-24.758 5.407-42.4 11.668v47.809c20.2-9.96 35.29-14.513 50.655-14.513 22.482 0 39.556 13.66 39.556 32.16 0 20.774-17.07 33.58-43.54 33.58h-3.13v47.24h6.83c27.03 0 44.679 14.513 44.679 37.28 0 23.05-18.213 37.849-46.671 37.849-14.513 0-29.596-4.838-52.36-15.652v49.52c18.213 6.83 32.726 10.814 46.39 12.806 6.83.854 13.66.854 20.49.854 6.83 0 13.09 0 19.351-.854 46.1-7.114 75.982-38.702 75.982-82.81 0-30.734-16.505-53.5-46.955-65.737" fill="#fff"/><g fill="#cfd0d1"><path d="m314.03 226.24c22.482 12.806 40.41 18.782 57.48 18.782 12.521 0 20.774-5.976 20.774-14.798 0-8.537-5.407-12.806-29.596-22.2-26.75-10.245-37.849-17.644-45.25-30.734-3.984-7.968-6.261-16.505-6.261-24.758 0-34.15 26.466-56.35 67.16-56.35 17.928 0 36.995 5.407 56.915 16.221v36.995c-24.19-12.806-41.26-17.928-58.907-17.928-13.944 0-21.912 4.838-21.912 13.09 0 7.399 5.407 11.1 25.04 18.498 36.14 13.375 50.09 23.335 58.34 40.694 2.846 6.261 4.269 13.09 4.269 21.06 0 33.865-27.604 58.34-65.737 58.34-18.782 0-34.718-3.984-58.907-13.66l-3.415-1.423v-41.833"/><path d="m557.92 233.35c-12.521 9.676-17.07 11.952-25.612 11.952-12.237 0-19.636-7.399-19.636-19.351 0-14.513 8.537-21.06 45.25-35.857v43.26m77.974 0c-7.399 5.122-12.806 7.399-16.506 7.399-4.553 0-5.407-2.277-5.407-19.636v-63.46c0-16.221-.285-21.343-2.846-28.742-6.545-21.343-28.458-32.726-63.745-32.726-27.604 0-48.663 6.83-73.42 24.474v40.979c23.904-19.636 41.833-27.319 60.9-27.319 16.505 0 23.05 7.399 23.05 24.474v6.261c-16.79 5.407-22.766 7.683-34.434 12.237-43.54 17.07-61.47 35-61.47 61.47 0 24.474 20.2 44.39 46.1 44.39 19.07 0 33.01-7.115 52.08-25.327 2.846 17.07 12.237 25.04 29.596 25.04 12.806 0 26.18-5.122 46.1-16.79v-32.726"/><path d="m774.48 268.07c-19.351 10.529-34.15 15.08-50.655 15.08-26.75 0-49.52-14.798-56.06-36.71-3.13-9.96-3.13-11.952-3.13-38.987v-72.28h-25.612v-7.114l71.998-84.23h9.676v55.777h51.51v35.572h-51.51v62.32c0 35 3.415 42.4 20.774 42.4 8.537 0 19.07-4.269 33.01-13.375v41.548"/><path d="m989.23 104.72h25.606v178.86h-25.606v-77.84h-100.5v77.84h-25.606v-178.86h25.606v77.33h100.5z"/><path d="m1057.45 283.32v-178.6h60.3c24.325 0 43.572 3.649 57.741 10.946 14.168 7.298 25.435 18.03 33.8 32.2 8.364 14.169 12.546 29.617 12.547 46.35 0 11.949-2.305 23.387-6.914 34.31-4.609 10.925-11.181 20.527-19.716 28.806-8.706 8.535-18.82 14.979-30.343 19.332-6.743 2.646-12.931 4.417-18.564 5.313-5.633.896-16.388 1.344-32.26 1.344zm57.61-155.81h-32.01v133.02h32.775c12.803 0 22.746-.875 29.831-2.625 7.084-1.75 12.995-3.969 17.732-6.657 4.737-2.689 9.07-5.996 12.995-9.922 12.632-12.803 18.948-28.977 18.948-48.52 0-19.2-6.487-34.866-19.46-46.986-4.78-4.524-10.264-8.236-16.452-11.138-6.188-2.902-12.06-4.822-17.604-5.761-5.548-.939-14.467-1.408-26.758-1.408"/></g></svg>