<svg xmlns="http://www.w3.org/2000/svg" height="301.98" width="554.3" viewBox="0 0 554.29891 301.98359"><path fill="#8d8d8d" d="m101.12 294.29c-3.433-4.232-7.258-13.234-8.5-20-1.861-10.146-7.902-12.637-34.37-14.166-43.852-2.535-50.817-13.435-50.817-79.53 0-40.44 2.235-53.19 10.834-61.79 14.351-14.36 215.02-101.18 228.1-98.7 7.818 1.488 10.631 10.194 12.05 37.27 1.015 19.433 4.173 35.33 7.02 35.33s18.564-11.07 34.929-24.603c43.22-35.736 78.979-51.09 125.97-54.1 57.723-3.693 89.52 14.734 116.81 67.69 23.981 46.54 8.845 100.24-41.29 146.48-58.45 53.911-155.13 77.81-202.25 49.995-29.754-17.566-37.738-16.552-42.12 5.352l-3.691 18.466h-73.22c-51.14 0-75.1-2.32-79.46-7.694z"/><path fill="#808080" d="m109.58 286.37c-5.431-5.434-9.874-15.222-9.874-21.751 0-9.991-4.448-11.871-28.09-11.871-48.82 0-51.882-4.187-51.882-70.94v-58.2l41.521-18.846c107.74-48.907 174.08-74.81 182.9-71.43 7.538 2.894 9.346 11.811 8.213 40.511-.799 20.24.479 38.733 2.84 41.09 2.361 2.362 19.54-10.135 38.18-27.771 55.34-52.37 129.22-78.44 177.3-62.56 48.34 15.963 85.08 81.14 72.22 128.11-25.434 92.88-186.46 161.75-255.22 109.15-19.254-14.726-31.841-11.138-38.14 10.871l-5.721 20-62.19 1.747c-50.52 1.419-64.04-.106-72.06-8.134zm294.01-126.96c5.126-7.322 7.887-15.632 6.137-18.466-9.1-14.732-41.7 6.214-35.37 22.724 5.02 13.08 18.464 11.124 29.23-4.259"/><path fill="#7d7d7d" d="m109.18 282.19c-1.431-4.347-3.481-13.443-4.555-20.21-1.633-10.3-7.971-12.813-38.806-15.388l-36.854-3.078-1.723-58.47-1.723-58.47 32.48-14.92c17.864-8.206 57.39-25.775 87.84-39.04 30.449-13.267 64.01-27.909 74.57-32.538 10.566-4.629 20.946-6.679 23.07-4.557 2.121 2.123 3.857 25.393 3.857 51.712s2.214 49.22 4.92 50.895c2.706 1.673 14.501-9.935 26.21-25.796 25.18-34.1 66.15-63.03 109.25-77.14 57.673-18.876 95.99-9.846 129.18 30.446 37.933 46.05 32.25 93.07-17.412 144.09-41.11 42.23-88.45 63.57-142.29 64.14-33.696.357-44.539-2.123-60.37-13.806-25.883-19.1-45.39-15.918-49.5 8.09l-3.164 18.466-66.19 1.748c-49.678 1.312-66.839-.223-68.793-6.155m300.19-123.33c15.2-20.391 7.336-32.924-16.85-26.85-20.397 5.123-32.03 25.736-21.612 38.3 10.391 12.529 23.498 8.628 38.462-11.446m-309.66-25.12c0-4.514-1.821-10.03-4.048-12.257-5.563-5.566-21.238 8.228-17.05 15.01 5.242 8.486 21.1 6.42 21.1-2.749"/><path fill="#787878" d="m112.02 268.89c0-20.83-11.04-27.448-49.4-29.622l-33.646-1.907-1.831-49.24c-1.645-44.23-.479-50.34 11.446-60.01 18.02-14.621 29.12-13.536 31.478 3.078 2.088 14.714 26.22 22.815 36.709 12.322 8.238-8.243-.595-26.431-15.607-32.14-14.449-5.491-14.558-5.419 39.17-25.891 11.767-4.484 38.796-17.16 60.06-28.16s41.4-20 44.732-20c3.473 0 6.06 20.823 6.06 48.738 0 26.806 1.68 53.12 3.734 58.47 4.999 13.04 20.401 12.391 24.735-1.035 10.204-31.61 26.329-51.592 60.16-74.55 20.943-14.211 44.842-25.472 54.06-25.472 9.09 0 18.23-2.77 20.321-6.155 5.206-8.429 54.32-7.769 73.53.988 8.634 3.936 15.668 12.295 15.668 18.618 0 6.5 6.505 13.949 15 17.18 18.894 7.188 28.05 24.06 28.05 51.656 0 32.34-8.327 48.53-42.05 81.75-38.583 38-75.38 56.53-121.64 61.26-31.21 3.188-40.608 1.482-67.874-12.315-17.407-8.809-35.538-16.02-40.29-16.02-12.914 0-23.404 12.966-23.404 28.929 0 13.874-1.293 14.157-64.59 14.157-63.907 0-64.59-.155-64.59-14.634zm294.53-94.62c16.346-13.615 19.362-37.691 5.825-46.5-23.605-15.358-65.26 27.403-47.529 48.786 9.591 11.564 26.17 10.655 41.705-2.287"/><g fill-rule="evenodd" transform="translate(-34.905-35.83)"><path fill="#e33d29" d="m423.6 146.36c-10.166-1.044-25.731 8.594-34.661 21.441-8.942 12.859-7.937 24.19 2.229 25.23 10.166 1.044 25.731-8.581 34.661-21.428 8.929-12.872 7.924-24.2-2.229-25.24m-310.27-11.3c-6.224-.593-14.818 4.845-19.13 12.09-4.317 7.241-2.745 13.645 3.479 14.225s14.818-4.845 19.13-12.09c4.317-7.241 2.757-13.658-3.479-14.225zm-78.42 3.788l210.9-92.51c5.167-2.422 11.442-2.667 17.884-2.577l1.108 113.12c-.154 16.235 8.826 16.403 12.138-3.84 12.84-78.16 216.61-190.24 275.83-51.45 57.57 134.89-185.09 256.38-262.07 166.05l-26.23-1.314.631 44.09-147.48-.631-.054-44.05-66.46-1.031c-7.569-.03-16.06-1.55-16.06-10.5l-.142-115.35z"/><path fill="#e87512" d="m423.6 146.36c-10.166-1.044-25.731 8.594-34.661 21.441-8.942 12.859-7.937 24.19 2.229 25.23 10.166 1.044 25.731-8.581 34.661-21.428 8.929-12.872 7.924-24.2-2.229-25.24m-159.39-50.625l.593 61.14c-.154 16.235 8.826 16.403 12.138-3.84 4.445-27.05 31.749-58.15 68.01-81.51l118-35.38c37.38 2.487 70.945 21.21 89.81 65.44 57.57 134.89-185.09 256.39-262.07 166.05l-26.23-1.314.631 44.09-147.48-.631-.054-44.05-66.46-1.031c-7.562-.02-16.05-1.54-16.05-10.49l-.116-89.72 59.58-17.87c-.116.18-.219.361-.322.541-4.304 7.254-2.745 13.645 3.479 14.225s14.818-4.845 19.13-12.09c2.268-3.801 2.899-7.37 2.113-9.986l145.3-43.563z"/><path fill="#fade17" d="m423.6 146.36c-10.166-1.044-25.731 8.594-34.661 21.441-8.942 12.859-7.937 24.19 2.229 25.23 10.166 1.044 25.731-8.581 34.661-21.428 8.929-12.872 7.924-24.2-2.229-25.24m-158.56 15.04c1.276 10.321 7.447 9.986 10.862-3.26l264.45-79.28c4.626 6.687 8.813 14.225 12.434 22.729 57.57 134.89-185.09 256.39-262.07 166.05l-26.23-1.314.631 44.09-147.48-.631-.054-44.05-66.46-1.031c-7.566-.03-16.06-1.55-16.06-10.5l-.024-23.837 230-68.961z"/><path fill="#578f14" d="m560.84 131.69c13.94 121.86-198.93 219.49-270.14 135.95l-26.23-1.314.631 44.09-147.48-.631-.054-44.05-3.647-.054 268.99-80.66c.464 4.471 3.247 7.486 8.259 8 9.973 1.031 25.14-8.221 34.14-20.706"/><path fill="#0038a8" d="m264.69 281.45l.425 28.966-95.67-.412m377.69-113.24c-46.19 84.96-191.33 136.17-252.05 75.56l252.05-75.56z"/><g fill="#fff" transform="matrix(12.885 0 0 12.885-1319-6046.8)"><path d="m141.19 492.94-1.96-5.03h1.2l1.38 3.72 1.34-3.72h1.17l-1.95 5.03"/><path d="m136.03 492.94v-4.18h-1.69v-.85h4.52v.85h-1.68v4.18"/></g></g></svg>