<svg xmlns="http://www.w3.org/2000/svg" xmlns:xlink="http://www.w3.org/1999/xlink" overflow="visible" viewBox="0 0 600 422.25089"><defs><path id="0" d="m679.84 94.74-34.92 82.98-34.92-82.98h-129.77v27.18h39.06v95.22h30.41v-95.22h38.55l41.37 95.94h30.6l53.1-123.12z"/><clipPath id="1"><use xlink:href="#0"/></clipPath><filter id="2" height="123.11" width="233.09" y="94.74" x="480.23" filterUnits="userSpaceOnUse"><feColorMatrix values="1 0 0 0 0 0 1 0 0 0 0 0 1 0 0 0 0 0 1 0"/></filter><linearGradient id="4" gradientUnits="userSpaceOnUse" x1="480.25" x2="713.34"><stop stop-color="#bfbfbf"/><stop stop-color="#cecece" offset=".15"/><stop stop-color="#e9e9e9" offset=".481"/><stop stop-color="#f9f9f9" offset=".775"/><stop stop-color="#fff" offset="1"/></linearGradient><linearGradient id="3" gradientUnits="userSpaceOnUse" x1="480.25" x2="713.34"><stop stop-color="#662f90"/><stop stop-color="#662f90" offset="1"/></linearGradient><mask id="5" height="123.11" width="233.09" y="94.74" x="480.23" maskUnits="userSpaceOnUse"><g filter="url(#2)"><path fill="url(#4)" d="m480.23 94.74h233.09v123.11h-233.09z" clip-path="url(#1)"/></g></mask></defs><path d="m480.23 94.74h233.09v123.11h-233.09z" clip-path="url(#1)" mask="url(#5)" transform="scale(.84114)" fill="url(#3)"/><g transform="scale(.84114)"><path fill="#662d91" d="m502 251c0 138.62-112.38 251-251 251s-251-112.38-251-251 112.38-251 251-251 251 112.38 251 251"/><g fill="#fff"><path d="m380.29 235.58h25.39v15.79h-64.48v-35.01h14.24v19.22h10.34v-19.22h14.51m25.39-108.52-35.91 24.03h35.91v15.78h-64.48v-14.24l35.82-23.66h-35.82v-15.79h64.48m1 88.36c0 14.6-8.98 23.4-25.12 23.4h-40.36v-15.87h39.72c7.25 0 10.98-2.26 10.98-7.62 0-5.54-3.63-8.16-10.98-8.16h-39.72v-15.78h40.36c15.78 0 25.12 9.61 25.12 24.03"/><path d="m405.68 347.64v-85.34h-74.24v-168.34h-134.55l-127.57 168.34v85.34h154.27v64.43h107.85v-64.43"/></g><path fill="#662d91" d="m250.89 226-27 21.86-27 21.87v-87.46l27 21.87"/></g></svg>