<?xml version="1.0" encoding="UTF-8" standalone="no"?>
<svg xmlns:rdf="http://www.w3.org/1999/02/22-rdf-syntax-ns#" xmlns="http://www.w3.org/2000/svg" height="623.85" width="600" version="1.1" xmlns:cc="http://creativecommons.org/ns#" xmlns:dc="http://purl.org/dc/elements/1.1/" viewBox="0 0 158.7499 165.05905">
 <path d="m152 87.294h-25.52s-6.71 0-6.71-6.76v-73.761c0-0.0006 0-6.7734-6.77-6.7734h-29.068c0 0.00002277-6.76 0.00002277-6.76 6.6818v30.498s0 6.728-6.73 6.728h-25.089s-6.78 0-6.78 6.767v29.909s0 6.71-6.76 6.71h-25.077c-0.0001 0-6.736 0-6.736 6.76v31.637c0.00002751 0 0.00002751 6.75 6.7509 6.75h63.751s6.67 0 6.67 6.77v19.09s0 6.76 6.72 6.76h29.228s6.65 0 6.65-6.76v-19.09s0-6.77 6.75-6.77h25.48s6.75 0 6.75-6.75v-31.637s0.01-6.76-6.75-6.76" fill="#ff3c87"/>
 <g fill="#fff" transform="matrix(.99998 0 0 .99998 -90.334 -52.703)">
  <path d="m241.2 154.33c0 1.08-0.88 1.96-1.95 1.96h-18.04v13.07h18.04c1.07 0 1.95 0.89 1.95 1.96v3.01c0 1.07-0.88 1.96-1.95 1.96h-23c-1.08 0-1.96-0.89-1.96-1.96v-23c0-1.08 0.88-1.96 1.96-1.96h23c1.07 0 1.95 0.88 1.95 1.96z"/>
  <path d="m209.06 174.33c0 1.07-0.88 1.96-1.96 1.96h-2.58c-1.08 0-1.96-0.89-1.96-1.96v-23c0-1.08 0.88-1.96 1.96-1.96h2.58c1.08 0 1.96 0.88 1.96 1.96z"/>
  <path d="m197.17 153.91c0 1.08-0.88 1.96-1.96 1.96h-18.46v3.71h18.46c1.08 0 1.96 0.88 1.96 1.96v12.79c0 1.07-0.88 1.96-1.96 1.96h-23.42c-1.08 0-1.96-0.89-1.96-1.96v-2.59c0-1.07 0.88-1.96 1.96-1.96h18.46v-3.7h-18.46c-1.08 0-1.96-0.88-1.96-1.96v-12.79c0-1.08 0.88-1.96 1.96-1.96h23.42c1.08 0 1.96 0.88 1.96 1.96z"/>
  <path d="m164.09 173.91c0 1.08-0.88 1.96-1.96 1.96h-24.6c-1.08 0-1.96-0.88-1.96-1.96v-22.58c0-1.08 0.88-1.96 1.96-1.96h2.58c1.08 0 1.96 0.88 1.96 1.96v18.03h15.52v-18.03c0-1.08 0.88-1.96 1.96-1.96h2.58c1.08 0 1.96 0.88 1.96 1.96z"/>
  <path d="m130.26 173.91c0 1.08-0.88 1.96-1.96 1.96h-2.59c-1.07 0-1.96-0.88-1.96-1.96v-17.62h-5.73v17.62c0 1.08-0.88 1.96-1.96 1.96h-2.58c-1.08 0-1.96-0.88-1.96-1.96v-17.62h-5.73v17.62c0 1.08-0.88 1.96-1.96 1.96h-2.58c-1.08 0-1.962-0.88-1.962-1.96 0 0-0.002-19.15-0.002-19.16v-3c0-1.08 0.884-1.96 1.954-1.96h27.06c1.08 0 1.96 0.88 1.96 1.96z"/>
 </g>
</svg>
