<svg xmlns="http://www.w3.org/2000/svg" viewBox="0 0 600 542.16"><path d="m295.64 346.02l88.47 16.505-100.31 179.63h53.954l95.97-170.53v-46.32l-138.08-35.833v56.55z" fill="#00ccca"/><g fill="#453a38"><path d="m108.05 542.12h10.898v-49.869l-10.898-2.247v52.12"/><path d="m295.64 346.02l-64.37 7.519v-55.05l64.37-9 76.976 19.959v-166.87l-13.498-12.161 8.169-13.85-149.51-116.57-42.85 75.42v-49.684l-14.37-5.03v269.64l-40.27 4.957-.149-174.21-11.697-3.992v77.997l-63.31 111.77-39.3 5.31 60.55 7.426 94.19-12.01v53.43l-160.56 17.44 120.29 10.156v-8.095l40.27-3.49v165.11h14.37v-438.35l41.941-72v510.35h16.283l100.98-172.15 49.981-7.482-88.47-16.505z"/><path d="m499.39 275.12h-24.73v-47.29h-40.976v47.29h-24.749v-113.94h24.749v44.986h40.976v-44.986h24.73v113.94"/><path d="m534.91 253.42h24.17c5.997 0 9.97-2.135 12.18-6.554 1.374-2.952 3.063-10.416 3.063-28.815 0-14.667-1.04-24.34-3.101-28.722-2.172-4.363-6.145-6.498-12.142-6.498h-24.17v70.59m22.78 21.685h-47.53v-113.94h47.53c7.854 0 21.02 0 29.985 9.135 6.405 6.387 12.328 16.617 12.328 47.753 0 31.27-5.923 41.514-12.347 47.92-8.949 9.135-22.11 9.135-29.966 9.135"/></g></svg>