<?xml version="1.0" encoding="UTF-8" standalone="no"?>
<!-- Created with Inkscape (http://www.inkscape.org/) -->
<svg xmlns:rdf="http://www.w3.org/1999/02/22-rdf-syntax-ns#" xmlns="http://www.w3.org/2000/svg" height="249.06" width="600" version="1.1" xmlns:cc="http://creativecommons.org/ns#" xmlns:dc="http://purl.org/dc/elements/1.1/">
 <defs></defs>
 <metadata>
  <rdf:RDF>
   <cc:Work rdf:about="">
    <dc:format>image/svg+xml</dc:format>
    <dc:type rdf:resource="http://purl.org/dc/dcmitype/StillImage"/>
    <dc:title/>
   </cc:Work>
  </rdf:RDF>
 </metadata>
 <g fill-rule="nonzero" transform="translate(-110.22289,611.09698)" fill="#dd20dc">
  <path d="m400.03-610.17c-31.607,0-60.443,11.832-82.347,31.281-22.024-20.014-51.283-32.204-83.379-32.204-68.526,0-124.08,55.553-124.08,124.06,0,68.537,55.553,124.08,124.08,124.08,31.596,0,60.432-11.821,82.347-31.281,22.024,20.014,51.272,32.204,83.379,32.204,68.526,0,124.06-55.542,124.06-124.08,0-68.504-55.532-124.06-124.06-124.06m-110.22,181.06c-11.3,18.177-33.91,29.792-66.299,29.792-60.975,0-73.155-38.778-71.242-55.705h47.089c0.95613,4.6611,3.1074,8.5943,6.682,11.289,4.7806,3.9223,11.484,5.639,18.884,5.639,14.114,0,25.359-9.0724,25.359-22.806,0-14.972-9.5722-23.816-23.903-23.816-11.235,0-19.123,3.1943-24.164,11.05h-44.449l17.21-98.405h114.27v30.042,11.68h-5.1609-72.307l-4.7589,22.578,0.4672,0.48893c10.278-7.8555,23.914-10.061,36.344-10.061,12.756,0,24.577,3.2813,33.91,10.213,12.354,9.1701,20.35,24.762,20.35,47.698,0,11.256-2.8358,21.556-8.2792,30.324m169.29,21.719-61.301-44.482-64.234,46.101,5.0414-14.103c-3.4768,5.3891-7.3883,10.452-11.626,15.222,4.2374-4.7698,8.1597-9.8329,11.637-15.222l18.927-52.902,2.3251-6.4973-1.6841-1.2278-59.78-43.417,54.195-0.54326c0,0.0109,0.0109,0.0109,0.0109,0.0217v-0.0217l23.534-0.22816,26.163-73.937,21.904,73.361,77.425-1.3256-64.191,46.101,21.654,73.1z"/>
  <path d="m569.16-531.74,25.696,0,0,32.302,32.117,0,0,25.696-32.117,0,0,32.302-25.696,0,0-32.302-32.117,0,0-25.696,32.117,0,0-32.302z"/>
  <path d="m626.06-506.43,0-30.314c24.012,0.72796,48.024-8.4965,49.958-34.931h34.203v169.05h-43.656v-103.81h-40.505z"/>
 </g>
</svg>
