<svg xmlns="http://www.w3.org/2000/svg" viewBox="0 0 600 187.65"><g transform="translate(-140.25 558.75)"><g fill="#fff"><path d="m234.1-558.75c-51.822 0-93.84 41.989-93.84 93.81 0 51.822 42.02 93.84 93.84 93.84 51.839 0 93.84-42.02 93.84-93.84s-42-93.81-93.84-93.81m-38.781 29.562h86.44v31.562h-58.59l-3.625 17.06.344.344c7.772-5.924 18.1-7.594 27.5-7.594 22.422 0 41.03 13.365 41.03 43.812 0 26.17-20.05 45.47-56.41 45.47-46.1 0-55.32-29.323-53.874-42.12h35.625c.717 3.519 2.345 6.481 5.062 8.531 3.603 2.97 8.678 4.25 14.281 4.25 10.683 0 19.16-6.862 19.16-17.25 0-11.325-7.21-18-18.06-18-8.489 0-14.475 2.403-18.281 8.344h-33.625l13.03-74.41z"/><path d="m699.19-455.17h-28.09v29.08h-23.578v-29.08h-28.09v-23.578h28.09v-28.489h23.578v28.489h28.09v23.578"/><path d="m740.25-401.14h-30.844v-99.02h-13.949v-17.882c8.447-1.173 14.337-5.105 17.291-11.392h27.502v128.29z"/></g><g fill="#02a16b"><path d="m550.03-529.62l-41.593 128.84h39.718l5.281-17.406h28.22l5.281 17.406h40.875l-41.593-128.84h-36.19m6.312 9.156h23.562l35.22 111.37-21.06.063-5.812-18.281h-41.28l-6.344 18.25-19.781.031 35.5-111.44zm11.344 19.03l-17.06 58.41h33.812l-16.75-58.41m-.063 30.31l5 19.375h-10.125l5.125-19.375"/><path d="m332.81-529.62v79.69c0 32.523 19.694 51.41 49.5 51.41 29.485 0 49.53-19.566 49.53-51.41v-79.69h-40.03v78.5c0 12.287-2.951 14-9.5 14-6.262 0-9.469-1.924-9.469-14v-78.5h-40.03m9.5 9.469h21.03v69.03c0 14.877 5.34 23.469 18.969 23.469 14 0 18.969-8.473 18.969-23.469v-69.03h21.09v70.22c0 26.768-15.986 41.937-40.06 41.937-24.439 0-40-14.511-40-41.937v-70.22"/><path d="m478.03-532.06c-26.354 0-45.37 16.966-45.37 41.31 0 16.953 10.846 29.891 29.656 38.41 1.587.709 3.578 1.411 5.687 2.188h-37.19v7.937c0 28.32 16.438 43.687 45.37 43.687 24.666 0 44-19.12 44-42.656 0-16.616-9.467-28.566-26.75-37.468-4.127-2.135-21.437-8.187-21.437-14.406 0-2.43 1.586-4.188 4.531-4.188 4.03 0 6.187 1.814 6.187 6.844v4.719h36.31v-6.562c0-24.13-17.09-39.812-41-39.812m0 9.437c18.08 0 30.22 10.662 31.437 27.531h-17.844c-1.62-7.097-7.03-11.625-15.09-11.625-7.806 0-13.969 5.656-13.969 13.656 0 13.24 17.17 17.968 26.531 22.812 15.316 7.882 21.656 17.14 21.656 29.06 0 18.11-14.883 33.22-34.562 33.22-23.586 0-35.4-11.03-35.906-32.75h18.531c.751 9.595 5.534 16.312 15.5 16.312 9.08 0 16-5.266 16-14.625 0-14.818-13.551-17.17-24.12-21.906-16.793-7.603-24.09-17.871-24.09-29.812 0-18.304 13.946-31.875 35.937-31.875zm-9.875 72.53c5.991 2.236 12.687 5.138 12.687 11.06 0 3.055-1.502 5.187-6.531 5.187-3.502 0-6.156-1.322-6.156-9.719v-6.531"/></g></g></svg>