<svg xmlns="http://www.w3.org/2000/svg" height="600" viewBox="0 0 158.73938 158.75" width="599.96"><defs><clipPath id="0"><path d="m164.78 103.09h23.27v11.63h-23.27z"/></clipPath></defs><g transform="translate(40.06-86.09)"><path fill="#1e75ba" d="m-40.06 244.84h158.74v-158.75h-158.74z"/><g clip-path="url(#0)" transform="matrix(13.645 0 0-13.645-2368 1651.5)"><path fill="#eceded" d="m0 0c.642 0 1.162.533 1.162 1.162 0 .642-.52 1.174-1.162 1.174s-1.162-.532-1.162-1.174c0-.629.52-1.162 1.162-1.162m1.174 6.948c.182.061.315-.024.375-.194l.351-.932c.049-.145.013-.278-.23-.351-.568-.181-2.178-.738-2.433-1.985.315.133.823.242 1.15.242 1.138 0 2.409-.835 2.409-2.626 0-1.526-1.259-2.772-2.772-2.772-1.876 0-2.917 1.404-2.917 3.292 0 3.559 3.03 4.999 4.067 5.326" transform="translate(176.47 106.25)"/></g></g></svg>