<svg xmlns="http://www.w3.org/2000/svg" height="600" width="827.22" viewBox="0 0 218.86778 158.75"><defs><clipPath id="0"><path d="m164.78 103.09h23.27v11.63h-23.27z"/></clipPath></defs><g transform="translate(100.19-86.09)"><path fill="#1e75ba" d="m-40.06 244.84h158.74v-158.75h-158.74z"/><g clip-path="url(#0)" transform="matrix(13.645 0 0-13.645-2368 1651.5)"><path fill="#eceded" d="m0 0c.642 0 1.162.533 1.162 1.162 0 .642-.52 1.174-1.162 1.174s-1.162-.532-1.162-1.174c0-.629.52-1.162 1.162-1.162m1.174 6.948c.182.061.315-.024.375-.194l.351-.932c.049-.145.013-.278-.23-.351-.568-.181-2.178-.738-2.433-1.985.315.133.823.242 1.15.242 1.138 0 2.409-.835 2.409-2.626 0-1.526-1.259-2.772-2.772-2.772-1.876 0-2.917 1.404-2.917 3.292 0 3.559 3.03 4.999 4.067 5.326" transform="translate(176.47 106.25)"/></g></g><g fill="#1e75ba" transform="matrix(.79822 0 0 .79822-.239-3.096)"><path d="m.3 22.957v-19.06l4.875.005c2.681.003 5.04.11 5.244.239.271.172.391 2.101.45 7.27l.081 7.04h4.8 4.8l.081-7.04c.059-5.17.179-7.098.45-7.27.486-.309 9.259-.304 9.747.005.298.189.361 4.184.3 18.97l-.078 18.732h-5.1-5.1l-.15-7.35-.15-7.35h-4.8-4.8l-.15 7.35-.15 7.35-5.175.082-5.175.082v-19.06z"/><path d="m42.3 3.879c-1.75 0-3.036.041-3.418.137l-.781.195v18.695c0 10.282.091 18.785.201 18.895s3.737.199 8.06.199c8.921 0 11.992-.37 15-1.807 3.128-1.493 5.083-4.139 6.311-8.543.735-2.636.948-12.896.34-16.35-1.162-6.596-3.606-9.379-9.368-10.671-1.673-.375-11.09-.749-16.346-.75m10.639 8.461c1.178.016 1.589.169 2.277.625.588.39 1.359 1.334 1.785 2.186.725 1.45.75 1.7.75 7.5 0 4.04-.125 6.417-.387 7.279-.559 1.845-1.894 3.231-3.496 3.635-1.839.463-4.947.438-5.131-.041-.08-.207-.108-5.03-.064-10.725l.078-10.349 2.715-.084c.602-.019 1.08-.031 1.473-.025"/></g></svg>