<svg xmlns="http://www.w3.org/2000/svg" height="548.52" viewBox="0 0 764.38336 548.51568" width="764.38"><g transform="translate(8.225 5.867)"><g fill="#fff"><path d="m129.42 56.11h437.29v120.71h-437.29z"/><path d="m72.48 165.44h517v177.65h-517z"/><path d="m177.25 265.65h448.68v218.64h-448.68z"/></g><path fill="#d21812" d="m136.47 535.82c-8.69-.76-29.46-5.48-38.646-8.78-64.51-23.18-103.75-85.9-97.09-155.22 1.554-16.17 1.941-17.8 34.638-145.77 16.202-63.41 55.17-219.61 55.664-223.12.366-2.613 1.058-3.09 4.188-2.889 7.097.454 94.5 8.672 123.75 11.635 6.875.696 24.312 2.393 38.75 3.77s28.781 2.771 31.875 3.098c3.094.326 26.16 2.607 51.25 5.069 114.13 11.195 231.74 23.09 232.01 23.469.151.217 55.49 139.25 134.82 338.75 22.37 56.25 40.673 102.72 40.673 103.27 0 .544-6.05 1.373-13.438 1.841-7.391.469-15.688 1.097-18.438 1.396-2.75.299-12.875 1.128-22.5 1.841-9.625.713-20.594 1.564-24.375 1.89-11.145.962-51.776 4.247-70 5.66-9.281.719-26.719 2.106-38.75 3.08-12.03.975-36.5 2.934-54.37 4.354-50.891 4.04-93.11 7.459-100.62 8.143-3.781.344-20.938 1.746-38.12 3.115-17.188 1.369-38 3.061-46.25 3.76-15.699 1.33-60.43 4.92-101.88 8.177-13.406 1.053-30.24 2.457-37.41 3.119-12.321 1.139-34.729 1.308-45.72.346zm155.99-105.71c-15.226-41.15-16.611-45.655-16.605-53.984.006-9.581 3.038-14.937 10.334-18.248 4.338-1.969 8.224-2.405 21.661-2.427 9.01-.015 20.678.336 25.938.781l9.564.808v49.19 49.19h14.375 14.375v-77.19-77.19l19.688.291c10.829.16 37.27.301 58.751.313l39.06.022v17.438 17.438l-9.06-4.276c-5.235-2.47-12.892-4.861-18.13-5.66-29.641-4.524-59.25 14.1-67.945 42.731-2.235 7.358-2.584 10.978-2.101 21.824.542 12.179.907 13.666 5.77 23.48 9.381 18.931 25.502 31.19 45.44 34.569 14.85 2.513 25.14.281 45.09-9.779.516-.26.938 3.23.938 7.756v8.229h14.307 14.307l.38-37.812.38-37.812 3.686-6.654c4-7.229 10.23-12.848 17.766-16.04 6.084-2.573 25.13-2.941 33.05-.639 8.233 2.395 17.09 9.641 21.628 17.703 3.436 6.098 3.874 8.01 3.874 16.875 0 8.752-.464 10.837-3.714 16.705-7.213 13.02-17.743 18.93-35.04 19.654l-11.25.471-.353 13.772-.353 13.772h11.653c19.3 0 34.38-5.532 46.35-17 12.524-12 19.294-26.436 20.458-43.621 1.229-18.14-4.716-34.12-17.898-48.09-13.42-14.226-27.948-19.981-50.53-20.02-13.14-.02-22.979 2.057-32.43 6.846-3.403 1.724-6.487 3.135-6.854 3.135s-.667-7.875-.667-17.5v-17.5h42.5 42.5v-14.17-14.17l-67.71-.83c-37.24-.456-89.27-.83-115.62-.83h-47.919v-74.37-74.37h56.875 56.875v13.12 13.12h-20.625-20.625v33.874c0 36.868-.59 40.535-6.994 43.45-5.36 2.442-12.487 1.749-16.374-1.592l-3.507-3.02-.367-36.36-.367-36.36h-14.388-14.388l.38 37.812.38 37.812 3.509 7.146c10.836 22.07 34.07 31.14 54.735 21.358 9.332-4.415 16.291-10.979 20.943-19.754 3.176-5.991 3.339-7.261 3.938-30.625l.625-24.375 6.563-.378 6.563-.378v38.19 38.19h14.375 14.375v-65.62-65.62h8.75 8.75v-13.75-13.75h-84.8c-46.638 0-102.61-.372-124.38-.827l-39.579-.827v14.577 14.577h7.5 7.5v13.12 13.12h-17.38-17.38l2.402-6.321c3.134-8.247 4.243-22.399 2.49-31.758-2.96-15.844-14.42-32.732-27.34-40.3-17.76-10.412-41.69-10.524-59.74-.28-15.83 8.982-29.12 30.09-29.26 46.48l-.031 3.438 14.06-.002 14.06-.002 2.129-7.247c3.69-12.559 13.174-20.11 26.61-21.19 12.974-1.041 25.281 6.3 30.17 17.996 4.37 10.458.361 27.355-8.199 34.558-4.405 3.706-6.638 4.436-15.08 4.931l-5.625.33-.352 13.896-.352 13.896 6.22.825c17.04 2.261 33.29 27.18 34.811 53.4 1.206 20.787-5.518 39.576-18.997 53.08-29.805 29.857-84.43 23.361-107.74-12.811-4.165-6.463-8.416-18.13-9.828-26.971l-.748-4.688h-15.12-15.12l.73 8.706c1.564 18.66 12.329 40.915 27.13 56.09 20.284 20.794 47.29 31.371 76.2 29.839 16.398-.869 25.08-3.115 39.432-10.2 45.07-22.25 66.03-73.36 49.929-121.71-1.757-5.277-5.132-12.869-7.5-16.871-2.367-4-4.304-7.518-4.304-7.812 0-.294 7.594-.535 16.875-.535h16.875v38.12 38.12h14.375 14.375v-65.62-65.62h8.75 8.75v74.37 74.37h-23.12-23.12v14.375 14.375h22.426c12.334 0 22.648.422 22.919.938.271.516.24 7-.069 14.41l-.562 13.473-24.544-.835c-36.21-1.232-50.669 2.194-62.19 14.737-7.41 8.07-9.854 16.15-9.76 32.28l.077 13.12 11.03 30.625c6.06 16.844 11.495 31.891 12.07 33.438 1 2.71 1.61 2.813 16.561 2.813h15.518l-9.365-25.312zm148.87-10.383c-28.415-10.495-29.12-50.741-1.107-63.21 13.578-6.04 28.08-2.697 38.486 8.874 14.748 16.403 9.908 42.668-9.736 52.836-6.524 3.377-20.504 4.134-27.643 1.497"/><path d="m130.67 541.94c-38.32-4.17-67.69-17.54-93.7-42.64-23.06-22.24-36.944-48.42-43.22-81.48-2.57-13.55-2.644-43.22-.143-57.43 1.026-5.83 9.72-41.27 19.319-78.75 28.19-110.07 71.01-281.36 71.01-284.06 0-1.372.955-2.861 2.122-3.309 1.856-.712 25.706 1.32 93.28 7.948 9.86.967 27.435 2.675 39.06 3.795 83.46 8.05 208.99 20.477 331.02 32.782 14.79 1.491 27.29 3.089 27.77 3.551.483.462 18.445 44.921 39.915 98.8 110.56 277.45 140.19 352.77 139.04 353.48-.686.424-14.345 1.748-30.355 2.943-30.781 2.297-101.95 7.944-114.9 9.116-4.226.383-26.12 2.13-48.66 3.882s-44.15 3.479-48.02 3.836c-3.874.357-14.534 1.231-23.69 1.941-9.156.71-19.816 1.58-23.69 1.934-3.874.354-32.397 2.655-63.39 5.115-59.46 4.718-99.07 7.923-110.77 8.962-3.874.344-14.534 1.206-23.69 1.916-9.156.71-19.816 1.576-23.69 1.925-66.31 5.974-98.01 7.566-114.61 5.755zm132.53-35.28c134.54-9.906 453.47-34.833 454.05-35.489.143-.161-10.535-27.376-23.728-60.48-13.19-33.1-48.95-123.28-79.46-200.4-30.52-77.12-56.11-140.9-56.87-141.73-.89-.965-66.6-7.999-182.58-19.541-258.81-25.756-268.23-26.68-268.61-26.356-1.33 1.127-82.76 329.21-84.74 341.38-1.901 11.717-1.668 31.08.524 43.599 10.228 58.4 55.39 100.08 114.93 106.08 13.12 1.322 10.736 1.456 126.49-7.07z"/></g></svg>