<svg xmlns="http://www.w3.org/2000/svg" viewBox="0 0 600 226.41"><defs><clipPath id="0"><path d="m138.66 469.5h22.37v8.738h-22.37v-8.738"/></clipPath><clipPath id="1"><path d="m138.66 469.79h22.37v8.441h-22.37v-8.441"/></clipPath></defs><g transform="matrix(21.45818 0 0 21.45818-7548.94-11302.98)"><g clip-path="url(#1)" transform="matrix(1.25 0 0-1.25 178.47 1124.54)"><g fill="#b11d23"><path d="m0 0c-.045.129-.11.247-.194.353-.085.107-.185.196-.298.263-.12.072-.249.117-.385.133l-4.775.526c-.048.005-.097.008-.145.008-.116 0-.229-.016-.338-.049-.152-.046-.29-.121-.409-.224-.12-.104-.214-.23-.281-.375-.068-.15-.103-.312-.103-.482v-6.117-.005-.064-.003-.067h.002c0-.008 0-.015.002-.022.002-.027.005-.053.009-.079h-.002l.012-.058.016-.071c.006-.021.013-.043.02-.064 0-.003.003-.006.003-.009.006-.016.012-.033.018-.049 0 0 0-.002.002-.003h-.002l.028-.06.028-.059h.002c.005-.0001.011-.02.017-.03 0-.002 0-.003.002-.005.004-.006.008-.012.012-.018.004-.007.009-.015.014-.022.005-.008.011-.017.017-.025.002-.003.004-.007.006-.0001.002-.003.005-.005.007-.008.006-.009.012-.017.018-.025.004-.006.009-.012.014-.017.006-.009.012-.017.019-.024.006-.008.012-.014.018-.021.009-.0001.018-.02.027-.029.008-.008.015-.016.022-.023 0 0 .003-.002.004-.003.005-.005.0001-.0001.015-.014.008-.008.017-.016.026-.024.002-.002.005-.005.007-.007.003-.003.007-.005.0001-.008.006-.005.013-.0001.019-.016.005-.003.009-.007.014-.011.003-.002.006-.004.009-.007.005-.003.0001-.007.015-.011.007-.005.013-.0001.02-.015.003-.002.006-.004.009-.006l.004-.003c.003-.002.005-.003.008-.005.008-.005.017-.011.025-.016.006-.004.012-.008.018-.011.009-.006.017-.0001.025-.015.002 0 .004-.003.006-.004.006-.003.012-.006.017-.009.002 0 .004-.002.005-.003v-.002l.05-.022c0 0 .003-.002.005-.003l.005-.002c0 0 0 0 0 0l.059-.027v.002c.007-.003.015-.006.022-.009 0 0 .002 0 .002 0v-.002l.079-.023v-.002l.023-.005.024-.007.016-.003.064-.015v.002c.007 0 .015-.002.023-.003 0 0 .002 0 .004 0 .005 0 .0001 0 .015 0 0 0 .002 0 .004 0 .003 0 .006 0 .009 0v-.002c0 0 .048-.003.065-.004h.005v-.002h.024.019.017v.002h.019.04.011.008.012l.032.004.066.006.026.002 4.645.511.065.007c.0001.002.019.003.029.005.005 0 .011 0 .016.002.002 0 .004 0 .006 0v-.002l.063.015c0 0 0 0 0 0l.064.016v.003c.008.002.015.004.023.007.007.002.013.005.02.008v-.002l.06.027c0 0 0 0 0 0l.06.027v.002c0 0 .002.002.004.002.0001.006.021.012.031.018.003 0 .005.003.007.004 0 0 .002 0 .003.002.013.008.026.016.039.024 0 0 .002.002.003.002.011.008.023.016.034.024.005.004.0001.007.015.012.007.005.014.0001.02.015.006.005.012.0001.018.014.006.005.011.0001.017.015.006.005.012.0001.018.016.002 0 .004.003.005.004.002.002.003.003.005.005.018.017.036.034.053.052.017.018.033.036.049.055.003.004.007.009.0001.013.003.003.006.007.009.011.011.013.021.026.031.04 0 0 .002.003.003.005.003.003.005.006.007.009.014.02.027.04.039.06 0 0 .002.002.002.003 0 0 0 0 0 .002.004.007.008.013.012.02.004.007.008.013.012.02.003.007.007.013.011.02.003.007.007.014.011.021.003.007.006.013.0001.02.004.008.007.016.011.024.003.006.006.012.008.018.006.014.012.027.018.042 0 .002 0 .004.002.006.005.013.0001.025.014.038 0 0 0 .002.002.004 0 .004.002.007.004.011.003.0001.006.02.0001.03 0 .006.003.012.005.018 0 .004.002.007.003.011.002.006.003.011.005.017.002.007.003.013.005.02.003.0001.005.019.007.029 0 .006.003.012.004.018.003.015.006.029.009.044 0 .007.002.014.003.021.002.009.003.018.004.027 0 .007.002.014.003.021 0 .009.002.019.003.028 0 .004 0 .007 0 .011 0 .003 0 .006 0 .009 0 .0001.002.021.002.031 0 .006 0 .011 0 .017 0 .016 0 .032 0 .048v5.05c0 .14-.023.279-.07.411" transform="translate(145.59 476.95)"/><path d="m0 0c-.045.128-.11.247-.194.352-.085.108-.185.197-.297.264-.121.072-.25.117-.386.133l-4.775.526c-.048.005-.097.008-.145.008-.116 0-.23-.017-.338-.049-.153-.046-.29-.121-.409-.224-.12-.104-.215-.23-.281-.375-.068-.15-.103-.312-.103-.482v-6.117-.005-.065-.002-.067h.002c0-.008 0-.015.002-.022.002-.027.005-.053.008-.079l.012-.057.016-.071c.006-.021.012-.043.02-.064 0-.003.002-.006.003-.009.006-.017.012-.033.018-.049 0 0 0-.003.002-.004h-.002l.028-.059.028-.059h.002c.005-.011.011-.021.016-.03 0-.002.002-.004.003-.005.004-.006.008-.012.012-.018.004-.008.009-.015.013-.022.006-.009.012-.017.017-.025.003-.004.005-.007.007-.0001.002-.003.004-.006.006-.009.006-.008.013-.016.019-.025.004-.005.009-.011.013-.017.007-.008.013-.016.02-.024.006-.007.012-.014.018-.02.009-.0001.018-.02.027-.029.007-.008.015-.016.022-.023 0 0 .003-.002.004-.004.005-.004.0001-.009.015-.014.008-.008.017-.016.026-.023.002-.003.004-.005.007-.007.003-.003.006-.005.0001-.008.006-.005.012-.011.019-.016.004-.004.009-.007.014-.011.003-.002.006-.005.008-.007.006-.004.011-.007.016-.011.006-.005.013-.0001.02-.015.003-.002.006-.004.009-.006l.004-.003c.003-.002.005-.003.008-.005.008-.006.016-.011.025-.017.006-.003.012-.007.018-.011.008-.005.017-.0001.025-.014.002-.002.004-.003.006-.004.006-.003.012-.006.017-.009.002 0 .003-.002.005-.003v-.002l.049-.022c.002 0 .004-.002.006-.003l.005-.002c0 0 0 0 0 0l.059-.027c.008-.002.015-.005.023-.008 0 0 .002 0 .002 0v-.002l.079-.024.023-.005.024-.008v.002l.016-.003.064-.015v.002c.008 0 .016-.002.024-.003 0 0 .002 0 .004 0 .004 0 .0001 0 .014-.002.002 0 .003 0 .005 0 .002 0 .005 0 .008 0v-.002c0 0 .048-.003.065-.004h.005.024.018.018.019.04v-.002l.012.002h.008.012l.032.004.065.006.027.002 4.645.512.065.008c.0001 0 .019.003.029.004.005 0 .011.002.016.003.002 0 .004 0 .006 0v-.003l.064.016c0 0 0 0 0 0l.063.016v.003c.008.002.015.004.022.007.006.002.013.005.02.008v-.003l.06.027.06.027v.002c0 0 .003 0 .004.002.0001.006.02.011.03.017.003 0 .006.003.009.005 0 0 .002 0 .003.002.012.008.025.015.038.024 0 0 .003.002.005.003.0001.007.021.015.032.023.005.003.0001.007.015.011.007.005.014.011.02.016.006.005.012.009.018.014.006.005.012.0001.017.015.006.005.012.0001.018.015.002.002.004.003.005.005.002.002.003.003.005.005.018.016.036.034.053.052.016.018.032.036.047.054.004.005.008.0001.012.014.003.003.005.007.008.0001.012.015.023.03.034.046.003.003.005.006.007.0001.014.019.027.039.039.059 0 0 .002.002.002.003 0 0 0 0 0 .002.004.007.008.013.012.019.004.007.008.014.012.021.004.006.007.013.011.02.004.007.007.014.011.021.003.007.007.013.0001.02.004.008.007.016.011.024.003.006.006.012.008.017.006.014.012.028.018.042 0 .003.002.006.003.008.004.012.009.024.013.036 0 0 0 .003.002.005.002.004.003.008.004.012.003.009.006.019.009.028.002.007.004.014.006.02 0 .003.002.007.003.0001.002.005.003.0001.005.015 0 .008.004.015.005.022.003.009.005.018.007.027 0 .004.002.009.003.013 0 .002 0 .003 0 .004 0 .002 0 .005 0 .007.003.013.005.026.008.04 0 .007.002.014.003.021.002.009.003.018.004.027 0 .007.002.014.003.021 0 .009.002.018.003.027 0 .007 0 .014 0 .021 0 .0001.002.02.002.031 0 .005 0 .011 0 .016 0 .017 0 .032 0 .048v5.05c0 .14-.023.278-.07.411" transform="translate(153.15 476.95)"/><path d="m0 0c-.045.129-.11.247-.194.352-.085.108-.185.197-.297.264-.121.072-.25.117-.386.133l-4.775.526c-.048.005-.097.008-.145.008-.116 0-.229-.017-.338-.049-.152-.046-.29-.121-.409-.224-.12-.104-.214-.23-.28-.375-.069-.15-.103-.312-.103-.482v-6.116-.053-.02c0-.002 0-.003 0-.005v-.063h.002c0-.007 0-.014.002-.021.002-.027.005-.054.009-.08h-.002l.013-.063v-.002c.009-.043.02-.085.034-.126.005-.016.011-.032.017-.048.002-.003.003-.005.004-.008 0-.002 0-.004.002-.006h-.002l.028-.059c0 0 0 0 0 0l.028-.058h.002c.006-.011.011-.02.017-.03.004-.008.009-.016.014-.024.005-.007.009-.014.014-.021.005-.009.011-.017.017-.026.002-.003.004-.006.007-.009 0-.003.004-.006.005-.008.007-.009.013-.017.019-.026.005-.005.009-.011.014-.017.006-.008.013-.016.019-.024.007-.007.013-.015.02-.022.008-.009.016-.017.024-.026.007-.008.015-.016.023-.024.002 0 .003-.003.004-.004.005-.005.0001-.009.015-.013.008-.008.017-.016.026-.024.002-.002.005-.005.007-.007.004-.003.007-.006.0001-.008.007-.006.013-.0001.019-.016.005-.003.009-.007.014-.011.003-.002.006-.005.009-.007.005-.004.0001-.007.014-.011.007-.005.014-.0001.021-.015.006-.004.011-.007.016-.011.0001-.006.019-.012.028-.018.002 0 .003-.002.005-.003.005-.003.0001-.006.014-.009.008-.004.016-.009.024-.014.002 0 .005-.002.007-.004.006-.003.012-.006.018-.009 0 0 .003-.002.004-.003v-.002l.049-.022c.002 0 .005-.002.007-.003l.004-.002.06-.027c0 0 .002 0 .004 0 .007-.003.013-.005.02-.008v-.002l.079-.024.023-.005.024-.008v.002l.016-.003.064-.015v.002c.007 0 .015-.002.023-.003 0 0 .002 0 .004 0 .005 0 .0001 0 .015-.002 0 0 .002 0 .004 0 .003 0 .006 0 .009 0v-.002c0 0 .048-.003.065-.004h.006v-.003h.03.012.018.018c.012 0 .029 0 .04 0v-.002l.013.002h.0001.0001l.033.004.066.006.026.002 4.645.512.065.008c.0001 0 .019.003.029.004.005 0 .011.002.016.003.002 0 .004 0 .006 0v-.003l.064.016c0 0 0 0 0 0l.063.016v.003c.008.002.015.004.022.007.007.002.013.005.02.008v-.003l.06.028c0 0 0 0 0 0l.06.027v.002c0 0 .003 0 .004.002.0001.006.02.011.03.017.003.002.006.003.009.005 0 0 .002 0 .003.002.012.007.025.015.038.024 0 0 .003.002.005.004.0001.007.021.014.032.022.005.004.0001.007.016.012.006.005.013.009.019.015.006.005.012.0001.019.015.005.004.0001.009.016.013.006.006.012.011.019.017 0 .002.003.003.004.004.002.002.003.003.004.004.036.033.071.069.103.108.003.004.007.008.0001.012.003.004.006.008.009.011.012.015.023.03.034.046.003.003.005.006.007.009.014.02.027.04.039.06 0 0 .002.002.002.003 0 0 0 0 .002.002.003.006.007.013.011.019.004.007.008.014.012.021.004.006.007.013.011.02.004.007.007.014.011.021.003.007.007.013.0001.02.004.008.008.016.011.025.003.005.006.011.008.016.006.014.012.028.018.042 0 .003.002.006.003.008.005.012.009.024.013.036 0 0 .002.003.002.005.002.004.003.008.004.012.003.009.006.018.009.028.002.007.004.014.007.021 0 .003 0 .006.002.009.002.005.003.009.004.014.002.008.005.016.007.024 0 .008.003.016.005.024.003.011.005.022.008.034.002.0001.004.021.006.032 0 .007.002.014.003.022.002.008.003.017.004.025 0 .008.002.015.003.022 0 .009.002.018.003.027 0 .007 0 .014 0 .021 0 .0001.002.02.002.03 0 .006 0 .012 0 .017 0 .017 0 .032 0 .048v5.05c0 .14-.023.278-.07.411" transform="translate(160.73 476.95)"/></g><g fill="#ed1d24"><path d="m0 0c-.045.129-.11.247-.194.353-.085.107-.185.196-.297.263-.121.072-.25.117-.386.133l-4.775.526c-.048.005-.097.008-.145.008-.116 0-.229-.016-.338-.049-.152-.046-.29-.121-.409-.224-.12-.104-.214-.23-.28-.375-.069-.15-.103-.312-.103-.482v-6.117-.005-.064-.003-.067h.002c0-.008 0-.015.002-.022.002-.027.005-.053.009-.079h-.002l.012-.058.017-.071c.005-.021.012-.043.019-.064 0-.003.003-.006.004-.009.005-.016.011-.033.018-.049 0 0 0-.002 0-.003h-.002l.028-.06.028-.059h.002c.006-.0001.011-.02.017-.03 0-.002 0-.003.002-.005.004-.006.008-.012.012-.018.004-.007.009-.015.014-.022.005-.008.011-.017.017-.025.002-.003.004-.007.007-.0001 0-.003.004-.005.006-.008.006-.009.012-.017.018-.025.004-.006.009-.012.014-.017.006-.009.013-.017.019-.024.006-.008.012-.014.019-.021.008-.0001.017-.02.026-.029.008-.008.015-.016.022-.023.002 0 .003-.002.004-.003.005-.005.0001-.0001.015-.014.008-.008.017-.016.026-.024.002-.002.005-.005.007-.007.004-.003.007-.005.0001-.008.006-.005.013-.0001.019-.016.005-.003.009-.007.014-.011.003-.002.006-.004.009-.007.005-.003.0001-.007.015-.011.007-.005.013-.0001.02-.015.003-.002.006-.004.009-.006l.004-.003c.003-.002.006-.003.008-.005.008-.005.017-.011.025-.016.006-.004.012-.008.018-.011.009-.006.017-.0001.025-.015.002 0 .004-.003.006-.004.006-.003.012-.006.018-.009 0 0 .003-.002.004-.003v-.002l.05-.022c0 0 .003-.002.005-.003l.005-.002c0 0 0 0 0 0l.059-.027v.002c.007-.003.015-.006.022-.009 0 0 .002 0 .002 0v-.002l.079-.023v-.002l.023-.005.024-.007.016-.003.064-.015v.002c.007 0 .015-.002.023-.003 0 0 .002 0 .004 0 .005 0 .0001 0 .015 0 0 0 .002 0 .004 0 .003 0 .006 0 .009 0v-.002c0 0 .048-.003.065-.004h.005v-.002h.024.018.017v.002h.018.04.011.008.012l.032.004.066.006.026.002 4.645.511.065.007c.0001.002.019.003.029.005.005 0 .011 0 .016.002.002 0 .004 0 .006 0v-.002l.063.015c0 0 0 0 0 0l.064.016v.003c.008.002.015.004.023.007.007.002.013.005.02.008v-.002l.06.027c0 0 0 0 0 0l.06.027v.002c0 0 .002.002.004.002.0001.006.021.012.031.018.003 0 .005.003.008.004 0 0 0 0 .002.002.013.008.026.016.039.024 0 0 .002.002.003.002.011.008.023.016.034.024.005.004.0001.007.015.012.007.005.014.0001.02.015.006.005.012.0001.018.014.006.005.011.0001.017.015.006.005.012.0001.018.016.002 0 .004.003.005.004.002.002.003.003.005.005.018.017.036.034.053.052.017.018.033.036.049.055.003.004.007.009.0001.013.003.003.006.007.009.011.011.013.021.026.031.04 0 0 .002.003.003.005.003.003.005.006.007.009.014.02.027.04.039.06 0 0 .002.002.002.003 0 0 0 0 .002.002.003.007.007.013.011.02.004.007.008.013.012.02.004.007.007.013.011.02.004.007.007.014.011.021.003.007.006.013.0001.02.004.008.007.016.011.024.003.006.006.012.008.018.006.014.012.027.018.042 0 .002.002.004.002.006.005.013.0001.025.014.038 0 0 0 .002.002.004 0 .004.002.007.004.011.003.0001.006.02.0001.03 0 .006.003.012.005.018 0 .004.002.007.003.011.002.006.003.011.005.017.002.007.003.013.005.02.003.0001.005.019.007.029 0 .006.003.012.004.018.003.015.006.029.009.044 0 .007.002.014.003.021.002.009.003.018.004.027 0 .007.002.014.003.021 0 .009.002.019.003.028 0 .004 0 .007 0 .011 0 .003 0 .006 0 .009 0 .0001.002.021.002.031 0 .006 0 .011 0 .017 0 .016 0 .032 0 .048v5.05c0 .14-.023.279-.07.411" transform="translate(145.82 476.95)"/><path d="m0 0c-.045.128-.11.247-.194.352-.085.108-.185.197-.297.264-.121.072-.25.117-.386.133l-4.775.526c-.048.005-.097.008-.145.008-.116 0-.229-.017-.338-.049-.152-.046-.29-.121-.409-.224-.12-.104-.214-.23-.281-.375-.068-.15-.103-.312-.103-.482v-6.117-.005-.065-.002-.067h.002c0-.008 0-.015.002-.022.002-.027.005-.053.009-.079h-.002l.012-.057.016-.071c.006-.021.013-.043.02-.064 0-.003.002-.006.004-.009.005-.017.011-.033.017-.049 0 0 0-.003.002-.004h-.002l.028-.059.028-.059h.002c.006-.011.011-.021.017-.03 0-.002 0-.004.002-.005.004-.006.008-.012.012-.018.004-.008.009-.015.014-.022.005-.009.011-.017.017-.025.002-.004.004-.007.006-.0001.002-.003.005-.006.007-.009.006-.008.012-.016.018-.025.005-.005.009-.011.014-.017.006-.008.013-.016.019-.024.006-.007.012-.014.018-.02.009-.0001.018-.02.027-.029.008-.008.015-.016.022-.023.002 0 .003-.002.004-.004.005-.004.0001-.009.015-.014.009-.008.017-.016.026-.023.002-.003.005-.005.007-.007.003-.003.007-.005.0001-.008.006-.005.013-.011.019-.016.005-.004.009-.007.014-.011.003-.002.006-.005.009-.007.005-.004.0001-.007.015-.011.007-.005.013-.0001.02-.015.003-.002.006-.004.009-.006l.004-.003c.003-.002.006-.003.008-.005.008-.006.017-.011.025-.017.006-.003.012-.007.019-.011.008-.005.016-.0001.024-.014.002-.002.004-.003.006-.004.006-.003.012-.006.018-.009 0 0 .003-.002.004-.003v-.002l.05-.022c0 0 .003-.002.005-.003l.005-.002c0 0 0 0 0 0l.059-.027c.007-.002.015-.005.022-.008 0 0 .002 0 .002 0v-.002l.079-.024.023-.005.024-.008v.002l.016-.003.064-.015v.002c.007 0 .015-.002.023-.003 0 0 .002 0 .004 0 .005 0 .0001 0 .015-.002 0 0 .002 0 .004 0 .003 0 .006 0 .009 0v-.002c0 0 .048-.003.066-.004h.005.024.019.017.018.04v-.002l.011.002h.008.012l.033.004.066.006.026.002 4.645.512.065.008c.0001 0 .019.003.029.004.005 0 .011.002.016.003.002 0 .004 0 .006 0v-.003l.064.016c0 0 0 0 0 0l.063.016v.003c.008.002.015.004.022.007.006.002.013.005.02.008v-.003l.06.027.06.027v.002c0 0 .003 0 .004.002.0001.006.02.011.03.017.003 0 .006.003.009.005 0 0 .002 0 .003.002.012.008.025.015.038.024 0 0 .003.002.005.003.0001.007.021.015.032.023.005.003.0001.007.015.011.007.005.014.011.02.016.006.005.012.009.018.014.006.005.012.0001.017.015.006.005.012.0001.018.015.002.002.004.003.005.005.002.002.003.003.005.005.018.016.036.034.053.052.016.018.032.036.047.054.004.005.008.0001.012.014.002.003.005.007.008.0001.012.015.023.03.034.046.003.003.005.006.007.0001.014.019.027.039.039.059 0 0 .002.002.002.003 0 0 0 0 0 .002.004.007.008.013.012.019.004.007.008.014.012.021.003.006.007.013.011.02.004.007.007.014.011.021.003.007.007.013.0001.02.004.008.007.016.011.024.003.006.006.012.008.017.006.014.012.028.018.042 0 .003.002.006.003.008.004.012.009.024.013.036 0 0 0 .003.002.005.002.004.003.008.004.012.003.009.006.019.009.028.002.007.004.014.006.02 0 .003.002.007.003.0001.002.005.003.0001.005.015 0 .008.004.015.005.022.003.009.005.018.007.027 0 .004.002.009.003.013 0 .002 0 .003 0 .004 0 .002 0 .005 0 .007.003.013.005.026.008.04 0 .007.002.014.003.021.002.009.003.018.004.027 0 .007.002.014.003.021 0 .009.002.018.003.027 0 .007 0 .014 0 .021 0 .0001.002.02.002.031 0 .005 0 .011 0 .016 0 .017 0 .032 0 .048v5.05c0 .14-.023.278-.07.411" transform="translate(153.38 476.95)"/><path d="m0 0c-.045.129-.11.247-.194.352-.085.108-.185.197-.297.264-.121.072-.25.117-.386.133l-4.775.526c-.048.005-.097.008-.145.008-.116 0-.229-.017-.338-.049-.152-.046-.29-.121-.409-.224-.12-.104-.214-.23-.28-.375-.069-.15-.103-.312-.103-.482v-6.116-.053-.02c0-.002 0-.003 0-.005v-.063c0-.007 0-.014.002-.021.002-.027.005-.054.009-.08h-.002l.013-.063v-.002c.009-.043.02-.085.034-.126.005-.016.011-.032.017-.048 0-.003.003-.005.004-.008 0-.002 0-.004.002-.006h-.002l.028-.059c0 0 0 0 0 0l.028-.058h.002c.005-.011.011-.02.017-.03.004-.008.009-.016.014-.024.005-.007.009-.014.014-.021.005-.009.011-.017.017-.026.002-.003.004-.006.007-.009 0-.003.003-.006.005-.008.007-.009.013-.017.019-.026.005-.005.009-.011.014-.017.006-.008.013-.016.019-.024.007-.007.013-.015.02-.022.008-.009.016-.017.024-.026.007-.008.015-.016.023-.024.002 0 .003-.003.004-.004.005-.005.0001-.009.014-.013.009-.008.018-.016.027-.024.002-.002.005-.005.007-.007.004-.003.007-.006.0001-.008.007-.006.013-.0001.019-.016.004-.003.009-.007.014-.011.003-.002.006-.005.009-.007.005-.004.0001-.007.014-.011.007-.005.014-.0001.021-.015.006-.004.011-.007.016-.011.0001-.006.019-.012.028-.018.002 0 .003-.002.005-.003.005-.003.0001-.006.014-.009.008-.004.016-.009.024-.014.002 0 .005-.002.007-.004.006-.003.012-.006.018-.009 0 0 .003-.002.004-.003v-.002l.049-.022c.002 0 .005-.002.007-.003l.004-.002.06-.027c0 0 .002 0 .004 0 .007-.003.013-.005.02-.008v-.002l.079-.024.023-.005.024-.008v.002l.016-.003.064-.015v.002c.007 0 .015-.002.023-.003 0 0 .002 0 .004 0 .005 0 .0001 0 .015-.002 0 0 .002 0 .004 0 .003 0 .006 0 .009 0v-.002c0 0 .048-.003.065-.004h.006v-.003h.03.012.018.018c.012 0 .029 0 .04 0v-.002l.013.002h.0001.0001l.033.004.066.006.026.002 4.645.512.065.008c.0001 0 .019.003.029.004.005 0 .011.002.016.003.002 0 .004 0 .006 0v-.003l.064.016c0 0 0 0 0 0l.063.016v.003c.008.002.015.004.022.007.007.002.013.005.02.008v-.003l.06.028c0 0 0 0 0 0l.06.027v.002c0 0 .003 0 .004.002.0001.006.02.011.03.017.003.002.006.003.009.005 0 0 .002 0 .003.002.012.007.025.015.038.024 0 0 .003.002.005.004.0001.007.021.014.032.022.005.004.0001.007.016.012.006.005.013.009.019.015.006.005.012.0001.019.015.005.004.0001.009.016.013.006.006.012.011.019.017 0 .002.003.003.004.004.002.002.003.003.004.004.036.033.071.069.103.108.003.004.007.008.0001.012.003.004.006.008.009.011.012.015.023.03.034.046.003.003.005.006.007.009.014.02.027.04.039.06 0 0 .002.002.002.003 0 0 0 0 .002.002.003.006.007.013.011.019.004.007.008.014.012.021.003.006.007.013.011.02.004.007.007.014.011.021.003.007.007.013.0001.02.004.008.008.016.011.025.003.005.006.011.008.016.006.014.012.028.018.042 0 .003.002.006.003.008.005.012.009.024.013.036 0 0 .002.003.002.005.002.004.003.008.004.012.003.009.006.018.009.028.002.007.004.014.007.021 0 .003 0 .006.002.009.002.005.003.009.004.014.002.008.005.016.006.024.002.008.004.016.006.024.003.011.005.022.008.034.002.0001.004.021.006.032 0 .007.002.014.003.022.002.008.003.017.004.025 0 .008.002.015.003.022 0 .009.002.018.003.027 0 .007 0 .014 0 .021 0 .0001.002.02.002.03 0 .006 0 .012 0 .017 0 .017 0 .032 0 .048v5.05c0 .14-.023.278-.07.411" transform="translate(160.96 476.95)"/></g></g><g transform="matrix(1.25 0 0-1.25 178.47 1124.54)" clip-path="url(#0)"><g fill="#ea1c24"><path d="m0 0c0 0 0 0-.002.002l.002-.002" transform="translate(139.37 470.26)"/><path d="m0 0v-.002-.004.006" transform="translate(153.21 471.26)"/><path d="m0 0v-.003.004" transform="translate(160.79 471.22)"/></g><g fill="#f14654"><path d="m0 0v2.233c0 .117-.02.232-.059.342-.037.107-.091.205-.16.292-.07.088-.151.16-.242.215-.095.057-.197.092-.301.104l-4.776.526c-.041.005-.082.007-.121.007-.096 0-.189-.013-.279-.04-.123-.037-.235-.098-.332-.182-.097-.085-.174-.187-.228-.305-.056-.122-.084-.255-.084-.395v-4.15c2.059.423 4.291.882 6.582 1.353" transform="translate(145.69 474.31)"/><path d="m0 0v.68c0 .116-.02.231-.059.341-.037.107-.091.206-.16.293-.07.088-.151.16-.242.214-.095.057-.197.092-.302.104l-4.775.527c-.041.004-.082.007-.121.007-.096 0-.189-.014-.279-.041-.123-.037-.235-.098-.332-.182-.098-.084-.174-.187-.228-.304-.056-.123-.084-.256-.084-.396v-2.597c2.189.45 4.415.908 6.582 1.354" transform="translate(153.24 475.86)"/><path d="m0 0c-.022.017-.046.033-.069.047-.096.057-.198.092-.302.104l-4.776.526c-.041.005-.082.007-.121.007-.096 0-.189-.013-.279-.04-.123-.037-.235-.098-.332-.182-.097-.084-.174-.187-.228-.304-.056-.123-.084-.256-.084-.396v-1.037c2.175.448 4.273.88 6.191 1.275" transform="translate(160.44 477.34)"/></g><g fill="#fff" fill-rule="evenodd"><path d="m0 0v-3.846c-.318-.009-.63-.024-.943-.038v2.984c-.017.004-.031-.013-.043-.021-.421-.29-.85-.611-1.282-.899-.173.28-.356.552-.528.834.519.347 1.031.701 1.546 1.051.418-.021.829-.048 1.25-.065" transform="translate(158.69 475.91)"/><path d="m0 0c.22.484.445.963.663 1.449.221-.477.437-.959.651-1.444-.438-.002-.871-.008-1.314-.005m1.39 2.225c-.018.037-.028.083-.06.113-.449.035-.903.066-1.357.097-.691-1.372-1.373-2.753-2.058-4.132.448.017.893.038 1.336.06.113.248.217.505.334.748.708.023 1.416.046 2.117.076.091-.189.188-.387.275-.571.012-.027.017-.062.043-.081.345.025.709.031 1.045.065-.56 1.202-1.117 2.426-1.675 3.625" transform="translate(142.02 473.57)"/><path d="m0 0c-.066-.024-.165-.019-.253-.022-.607-.015-1.248-.042-1.864-.048 0 .213.003.43-.005.635.613 0 1.174.006 1.799.006.102 0 .231.019.312-.006.053-.015.104-.071.13-.118.084-.155.03-.392-.119-.447m-2.117 2.02c0 .007 0 .015.006.016.579-.021 1.192-.021 1.788-.049.101-.004.195 0 .264-.037.177-.098.17-.474-.006-.55-.06-.025-.16-.016-.247-.016-.608 0-1.214.003-1.799.016-.013.197-.003.415-.006.62m3.254-1.772c-.005.14-.021.283-.076.398-.022.048-.057.1-.091.146-.035.045-.076.099-.113.124-.079.051-.171.063-.275.097.166.114.33.206.404.404.082.22.091.497.043.721-.048.222-.204.463-.361.566-.214.141-.528.179-.873.205-.988.073-2.113.121-3.07.172-.006 0-.006-.009-.005-.016.004-1.403-.007-2.791-.006-4.191 1.09.065 2.337.123 3.442.194.197.013.362.034.501.108.123.065.256.167.334.274.131.181.157.482.146.798" transform="translate(151.18 473.01)"/></g></g></g></svg>