<svg xmlns="http://www.w3.org/2000/svg" xmlns:xlink="http://www.w3.org/1999/xlink" viewBox="0 0 599.99999 229.7693"><defs><linearGradient id="0"><stop stop-color="#fff" stop-opacity=".784"/><stop offset=".3" stop-color="#fff" stop-opacity="0"/><stop offset=".6" stop-opacity="0"/><stop offset="1" stop-opacity=".784"/></linearGradient><radialGradient cx="394.34" cy="68.14" r="76.86" id="3" xlink:href="#0" gradientUnits="userSpaceOnUse" gradientTransform="matrix(0 2.14384-1.96182 0 525.42-789.17)"/><radialGradient cx="49.26" cy="57.39" r="76.93" id="2" xlink:href="#0" gradientUnits="userSpaceOnUse" gradientTransform="matrix(0 2.08409-2.13809 0 167-42.87)"/><radialGradient cx="218.35" cy="63.959" r="76.93" id="1" xlink:href="#0" gradientUnits="userSpaceOnUse" gradientTransform="matrix(0 2.21292-2.08173 0 351.5-426.7)"/></defs><g transform="matrix(1.21726 0 0 1.21726-2.944-3.04)"><path d="m474.8 14.985l-104.18-12.309c-15.765-1.864-29.01 11.06-29.01 28.926v130.55c0 17.868 13.24 30.78 29.01 28.923l104.18-12.31c11.49-1.36 20.531-14.216 20.531-28.759v-106.26c0-14.54-9.04-27.401-20.532-28.76" fill="#ec2238"/><path d="m474.8 14.985l-104.18-12.309c-15.765-1.864-29.01 11.06-29.01 28.926v130.55c0 17.868 13.24 30.78 29.01 28.923l104.18-12.31c11.49-1.36 20.531-14.216 20.531-28.759v-106.26c0-14.54-9.04-27.401-20.532-28.76" fill="url(#3)"/><path d="m415.75 52.844l-48.938 48.906v25.22l65.62-2.469v23.16l25.22-1.719v-22.375l12.469-.469v-21.969l-12.469.094v-45.906l-41.906-2.469m16.688 18.969v29.531l-29.719.188 29.719-29.719" fill="#fff"/><path d="m132.89 18.301l-99-11.812c-14.982-1.789-27.57 10.61-27.57 27.755v125.26c0 17.14 12.588 29.534 27.57 27.752l99-11.812c10.92-1.305 19.511-13.64 19.511-27.595v-101.96c0-13.952-8.591-26.293-19.511-27.595z" fill="#ec2238" stroke="#ec2238" stroke-width="7.562"/><path d="m28 2.719c-16.182 1.687-26.804 18.503-25.469 33.964.028 41.528-.056 83.06.042 124.58.07 16.352 14.822 32.2 31.77 29.733 33.415-4.01 66.844-7.925 100.25-12 15.12-2.996 22.601-19.894 21.593-34.08-.071-33.968.143-67.943-.108-101.91-.661-13.43-10.218-28.14-24.668-28.685-32.895-3.895-65.778-7.909-98.68-11.729-1.576-.099-3.161-.066-4.73.116" color="#000" fill="url(#2)"/><path d="m68.871 51.895l-47.16 101.23 31.625-2.148 7.395-17.17 52.665-2.433 6.406 15.08 24.318-1.646-37.587-90.62-37.659-2.293m1 60.03l15.84-36.697 4.782.143 14.894 35.913-35.516.641" fill="#fff"/><path d="m302.45 18.301l-99-11.812c-14.981-1.789-27.571 10.61-27.571 27.756v125.26c0 17.14 12.589 29.534 27.571 27.752l99-11.812c10.92-1.305 19.511-13.64 19.511-27.595v-101.96c0-13.952-8.591-26.293-19.511-27.595z" fill="#ec2238" stroke="#ec2238" stroke-width="7.562"/><path d="m197.56 2.719c-16.182 1.686-26.804 18.503-25.469 33.964.028 41.528-.056 83.06.042 124.58.063 16.357 14.814 32.21 31.77 29.733 33.415-4.01 66.844-7.925 100.25-12 15.12-2.996 22.601-19.894 21.593-34.08-.071-33.968.143-67.943-.108-101.91-.661-13.43-10.219-28.14-24.668-28.685-32.895-3.895-65.778-7.909-98.68-11.729-1.576-.099-3.161-.066-4.73.116" color="#000" fill="url(#1)"/><path d="m294.59 99.89c7.685-3.523 9.58-7.681 9.58-21.13 0-10.221-1.686-15.952-5.717-19.684-3.107-2.762-7.438-3.84-17.506-4.595l-13.703-.837-60.1-3.665v102.06l75.37-5.122c11.64-.926 16.15-2.319 19.758-6.467 2.836-3.255 4.406-10.311 4.406-19.818 0-7.502-1.151-12.982-3.669-16.317-1.691-2.276-3.488-3.213-8.42-4.424m-27.346-24.14l6 .321c8.375.254 9.612 1.271 9.612 7.362 0 6.792-1.342 7.326-15.492 7.177l-35.01-.359v-15.577l34.885 1.076m7.263 49.571l-7.143.406-35.01 1.315v-16.769l35.12-.545 7.485-.117c9.784-.015 10.67.521 10.67 7.289 0 6.896-1.441 8.06-11.124 8.421" fill="#fff"/></g></svg>