<svg xmlns="http://www.w3.org/2000/svg" viewBox="0 0 229.8 158.7"><path fill="#fcfcfd" d="m0 79.35v-79.35h114.9 114.9v79.35 79.35h-114.9-114.9v-79.35"/><path fill="#004f96" d="m0 79.35v-79.35h114.9 114.9v79.35 79.35h-114.9-114.9v-79.35m28.326 73.08c3.107-1.025 5.48-2.925 6.784-5.431.781-1.502 1.467-4.231 1.093-4.351-.194-.062-1.589-.227-3.1-.366l-2.747-.252-.356 1.209c-1.025 3.475-2.743 5.183-5.502 5.467-3.292.34-5.785-.855-7.162-3.433-1.133-2.12-1.514-4.238-1.499-8.322.022-5.728 1.278-9.1 4.054-10.87 1.075-.687 1.595-.807 3.532-.82 1.997-.013 2.424.087 3.537.823 1.509.998 2.298 2.186 2.931 4.415l.469 1.652 2.948-.302c1.622-.166 3.03-.383 3.127-.482.311-.315-1.279-4.544-2.184-5.806-1.171-1.635-3.385-3.282-5.259-3.913-2.31-.777-7.126-.936-9.869-.326-2.561.57-5.244 2.048-6.745 3.716-1.25 1.389-2.625 4.163-3.221 6.497-.608 2.383-.608 8.441 0 10.824 1.93 7.56 7.173 11.255 15.24 10.742 1.291-.082 3.059-.384 3.929-.671m20.505-6.858l.081-6.975h5.839 5.839l.081 6.975.081 6.975h3.3 3.3l.078-15.525.078-15.525h-3.453-3.453v6.45 6.45h-5.85-5.85v-6.45-6.45h-3.45-3.45v15.4c0 8.47.094 15.494.21 15.61.115.115 1.634.172 3.375.125l3.164-.11.081-6.975zm28.496 6.75c.165-.206.801-1.961 1.413-3.9l1.113-3.525h5.942 5.942l.976 3.075c1.603 5.05 1.266 4.725 4.895 4.725 1.701 0 3.174-.081 3.273-.181.1-.1.04-.538-.132-.975-.172-.437-1.458-4.102-2.858-8.144-1.4-4.04-2.857-8.227-3.239-9.3-.382-1.072-1.389-3.975-2.238-6.45s-1.688-4.871-1.865-5.325l-.322-.825h-3.796-3.796l-5.771 15.375c-3.174 8.456-5.77 15.476-5.768 15.6.006.404 5.901.262 6.23-.15m4.138-12.3c.113-.371.876-2.768 1.696-5.325.82-2.558 1.715-5.358 1.99-6.223.275-.865.567-1.571.65-1.57.082.002.479 1.047.882 2.323s1.381 4.324 2.175 6.774c.794 2.45 1.443 4.509 1.443 4.575s-2.034.12-4.52.12h-4.52l.205-.675m28.935.38c0-6.765.101-12.295.225-12.288s3.397 5.353 7.275 11.88c3.877 6.527 7.233 12.06 7.457 12.298.311.329 1.091.41 3.3.345l2.893-.085.078-15.525.078-15.525h-2.86-2.86l.082 10.95c.045 6.02.015 10.949-.068 10.948-.134 0-1.619-2.483-10.627-17.756l-2.422-4.107-4.05-.018-4.05-.018.072 15.525c.04 8.539.073 15.559.075 15.6 0 .041 1.218.075 2.703.075h2.7v-12.3zm34.2-.128l.15-12.278.768 1.178c.423.648 3.775 6.212 7.45 12.364l6.682 11.185 3.05-.085 3.05-.085.078-15.525.078-15.525h-2.849-2.849l-.079 10.957-.079 10.957-2.297-3.832c-1.263-2.108-4.206-7.04-6.54-10.957l-4.243-7.125h-4.04-4.04v15.4c0 8.47.095 15.495.211 15.611.116.116 1.365.172 2.775.125l2.55-.09.15-12.28zm52.05 10.178v-2.1l-8.25-.061c-4.537-.034-8.216-.135-8.175-.225.041-.09.075-2.256.075-4.814v-4.65h6.3 6.3v-2.094-2.094l-6.318-.081-6.318-.081v-4.35-4.35l8.118-.08 8.118-.08v-1.945-1.945h-11.55-11.55v15.604 15.604l11.625-.078 11.625-.078v-2.1zm25.588-.07l.088-2.169-7.138-.081-7.138-.081-.078-13.275-.078-13.275h-3.297-3.297v15.4c0 8.47.092 15.492.204 15.604.112.112 4.803.168 10.425.125l10.23-.08.088-2.169zm-26.764-36.25c5.493-2.195 11.397-5.101 14.376-7.08 3.044-2.02 7.691-6.644 9.577-9.533 3.553-5.441 5.354-11.244 5.755-18.545.583-10.615-3.151-20.754-10.16-27.587-6.256-6.099-14.08-9.08-23.854-9.09h-2.48l2.037-2.518c3.359-4.152 5.85-9.611 6.657-14.59.414-2.551.406-7.998-.015-10.415-.184-1.057-.828-3.363-1.431-5.125l-1.1-3.202-50.68-.076-50.667-.076 4.053 2.039c4.814 2.421 7.376 4.179 10.562 7.244 3.882 3.735 6.03 7.424 7.596 13.07l.835 3 .084 41.7c.046 22.935.146 41.869.221 42.08.109.297 7.842.375 37.3.375h37.16l4.176-1.668zm-46.41-7.25c-.74-1.91-3.37-9.03-5.36-14.48-1.17-3.218-2.32-6.322-2.56-6.9-.88-2.154-3.75-10.134-3.75-10.434 0-.171.776-.582 1.725-.912.949-.331 3.75-1.364 6.225-2.296 2.475-.932 5.58-2.084 6.9-2.56 1.32-.475 4.82-1.746 7.778-2.825 6.243-2.275 9.823-3.41 14.422-4.573 6.116-1.547 11.36-1.068 15.24 1.392 3.822 2.424 6.88 7.26 7.75 12.259 1.287 7.39-1.912 13.314-9.381 17.373-2.02 1.096-10.489 4.49-19.609 7.857-3.63 1.34-7.477 2.766-8.55 3.17-8.131 3.058-10.02 3.75-10.253 3.75-.144 0-.405-.371-.58-.825zm-19.86-53.72c-.24-.61-1.19-3.135-2.11-5.61-.918-2.475-2.701-7.267-3.963-10.65-2.982-7.993-4.1-11.145-3.984-11.232.052-.039 1.512-.581 3.244-1.206 1.733-.624 4.365-1.586 5.85-2.137 10.643-3.948 13.258-4.899 18.514-6.736 7.81-2.729 10.709-3.403 13.855-3.217 4.573.27 7.957 2.265 10.299 6.071 2.01 3.262 2.632 5.44 2.63 9.156-.002 2.926-.072 3.297-.978 5.222-1.274 2.708-4.731 6.17-7.72 7.731-3.172 1.657-20.254 8.341-30.15 11.797-1.072.375-2.647.96-3.498 1.301l-1.548.62-.441-1.11m-70.52 55.87c3.637-.751 6.04-1.578 9.677-3.329 2.933-1.412 3.736-1.967 5.718-3.949 2.527-2.527 3.663-4.516 4.178-7.313.478-2.597.453-19.14-.029-19.14-.208 0-1.091.271-1.961.601-5.681 2.159-12.742 3.868-21.07 5.097-5.8.857-10.258 1.932-12.05 2.906-2 1.091-4.155 3.244-5.03 5.04-1.84 3.764-.864 10.915 2.01 14.71 3.337 4.408 11.629 6.814 18.555 5.383m-52.56-36.771c.958-1.622 5.02-5.431 7.828-7.343 8.688-5.911 15.275-7.5 34.795-8.389 6.599-.301 13.908-1.669 19.772-3.7 4.149-1.438 6.305-3.304 7.848-6.792.621-1.406.73-2.118.73-4.782 0-4.7-1.117-7.181-4.342-9.643-3.079-2.351-6.04-3.104-12.218-3.107-5.285-.003-8.325.723-13.11 3.131-5.107 2.572-9.232 8.462-9.833 14.04l-.186 1.724-13.08.002c-7.195 0-14.396.089-16 .195l-2.919.193-.081 12.705c-.045 6.988-.009 12.705.079 12.705.088 0 .411-.424.716-.942zm3.372-49.27c3.344-6.688 7.686-10.789 15.926-15.04 1.526-.787 2.775-1.481 2.775-1.54 0-.059-5.13-.107-11.4-.107h-11.4l.008 13.725.008 13.725 1.356-4.01c.746-2.205 1.973-5.243 2.727-6.75"/></svg>