<svg xmlns="http://www.w3.org/2000/svg" viewBox="0 0 600 236.42"><g transform="translate(-50.12-252.04)"><path fill="#fbc707" d="m575.41 252.04c-41.26 0-74.71 33.45-74.71 74.71 0 41.26 33.445 74.71 74.71 74.71s74.71-33.45 74.71-74.71c0-41.26-33.445-74.71-74.71-74.71m34.33 110.39h-19.445l-16.521-43.733h-18.02v43.733h-17.944v-43.733h-18.304v-14.336h48.85 5.693 13.07l13.07 41.792 12.905-41.792h18.216l-21.566 58.07z"/><path fill="#29528d" d="m487.42 326.75c0-1.546.043-3.078.12-4.605-6.924-2.01-14.57-3.03-22.963-3.03-11.29 0-21.252 1.828-29.884 5.482-8.63 3.649-15.884 8.744-21.748 15.271-5.869 6.532-10.295 14.28-13.283 23.24-.832 2.503-1.524 5.077-2.127 7.694-.546-1.373-1.133-2.721-1.756-4.04-4.981-10.514-11.569-19.312-19.759-26.398-8.193-7.081-17.379-12.396-27.558-15.94-10.186-3.539-20.591-5.312-31.21-5.312-6.426 0-11.737.389-15.938 1.162-4.211.776-7.529 1.719-9.962 2.822v49.14c1.991-1.106 4.757-2.161 8.299-3.156 3.539-.994 8.19-1.495 13.949-1.495 5.088 0 9.845.887 14.275 2.654 4.43 1.775 8.305 4.27 11.623 7.473 3.321 3.212 5.919 7.03 7.804 11.455 1.876 4.432 2.825 9.299 2.825 14.61 0 5.312-.949 10.186-2.825 14.61-1.884 4.432-4.483 8.251-7.804 11.457-3.318 3.209-7.193 5.701-11.623 7.47-4.43 1.772-9.187 2.654-14.275 2.654-12.62 0-22.03-3.982-28.22-11.953-6.202-7.966-9.301-18.264-9.301-30.881v-145.1h-53.13v111.3c-4.861-9.616-11.386-17.723-19.605-24.304-8.302-6.642-17.987-11.62-29.06-14.941-11.07-3.321-22.907-4.981-35.529-4.981-12.843 0-24.685 2.156-35.529 6.476-10.847 4.318-20.2 10.293-28.06 17.928-7.859 7.638-14 16.601-18.424 26.897-15.97 37.16-2.479 88.85 34.466 108.31 9.427 4.965 21.982 8.667 32.675 9.101 16.444.672 36.13-.978 49.926-10.871 3.196-2.292 11.415-9.09 11.415-13.478v20.999h45.18v-40.561c.067.128.12.259.184.384 5.09 9.747 11.895 17.878 20.42 24.405 8.518 6.535 18.315 11.46 29.389 14.778 11.06 3.321 22.465 4.981 34.2 4.981 12.833 0 24.679-2.159 35.529-6.476 10.845-4.315 20.19-10.293 28.05-17.931 7.087-6.889 12.705-14.917 17-23.962v44.38h51.14v-92.31c0-7.081 1.599-12.62 4.816-16.604 3.206-3.984 7.689-5.978 13.446-5.978 5.754 0 10.237 1.993 13.448 5.978 3.209 3.984 4.816 9.523 4.816 16.604v92.31h51.14v-80.12c-27.7-14.82-46.57-44.04-46.57-77.58m-346.71 119.87c-22.433 0-40.617-18.19-40.617-40.617 0-22.433 18.18-40.617 40.617-40.617 22.43 0 40.617 18.18 40.617 40.617 0 22.43-18.19 40.617-40.617 40.617"/></g></svg>