<?xml version="1.0" encoding="UTF-8" standalone="no"?>
<!-- Created with Inkscape (http://www.inkscape.org/) -->
<svg xmlns:rdf="http://www.w3.org/1999/02/22-rdf-syntax-ns#" xmlns="http://www.w3.org/2000/svg" height="199.7" width="600" version="1.1" xmlns:cc="http://creativecommons.org/ns#" xmlns:dc="http://purl.org/dc/elements/1.1/">
 <defs>
  <filter id="filter3262" height="1" width="1" y="0" x="0" color-interpolation-filters="sRGB">
   <feColorMatrix values="1" type="saturate" result="fbSourceGraphic"/>
   <feColorMatrix values="-1 0 0 0 1 0 -1 0 0 1 0 0 -1 0 1 0 0 0 1 0 " in="fbSourceGraphic"/>
  </filter>
 </defs>
 <metadata>
  <rdf:RDF>
   <cc:Work rdf:about="">
    <dc:format>image/svg+xml</dc:format>
    <dc:type rdf:resource="http://purl.org/dc/dcmitype/StillImage"/>
    <dc:title/>
   </cc:Work>
  </rdf:RDF>
 </metadata>
 <path filter="url(#filter3262)" d="m26.567,190.1-2.8005,2.8107,0,3.9818,2.8005,2.8107,3.9716,0,2.8311-2.8107,0-3.9818-2.8311-2.8107h-3.9716z" fill-rule="nonzero" fill="#FFF"/>
 <path filter="url(#filter3262)" d="m38.445,190.1-2.8107,2.8107,0,3.9818,2.8107,2.8107,3.9818,0,2.7903-2.8107,0-3.9818-2.7903-2.8107h-3.9818z" fill-rule="nonzero" fill="#FFF"/>
 <path filter="url(#filter3262)" d="m50.351,190.1-2.8107,2.8107,0,3.9818,2.8107,2.8107,3.9614,0,2.8005-2.8107,0-3.9818-2.8005-2.8107h-3.9614z" fill-rule="nonzero" fill="#FFF"/>
 <path filter="url(#filter3262)" d="m62.211,190.1-2.8005,2.8107,0,3.9818,2.8005,2.8107,3.9716,0,2.8209-2.8107,0-3.9818-2.8209-2.8107h-3.9716z" fill-rule="nonzero" fill="#FFF"/>
 <path filter="url(#filter3262)" d="m74.098,190.1-2.8107,2.8107,0,3.9818,2.8107,2.8107,3.9818,0,2.7903-2.8107,0-3.9818-2.7903-2.8107h-3.9818z" fill-rule="nonzero" fill="#FFF"/>
 <path filter="url(#filter3262)" d="m14.698,178.23-2.8107,2.8107,0,3.9716,2.8107,2.8005,3.9716,0,2.8005-2.8005,0-3.9716-2.8005-2.8107h-3.9716z" fill-rule="nonzero" fill="#FFF"/>
 <path filter="url(#filter3262)" d="m26.998,179.29-2.1589,2.1895,0,3.0856,2.1589,2.1895,3.106,0,2.1793-2.1895,0-3.0856-2.1793-2.1895h-3.106z" fill-rule="nonzero" fill="#FFF"/>
 <path filter="url(#filter3262)" d="m38.904,179.29-2.1997,2.1895,0,3.0856,2.1997,2.1895,3.0653,0,2.2099-2.1895,0-3.0856-2.2099-2.1895h-3.0653z" fill-rule="nonzero" fill="#FFF"/>
 <path filter="url(#filter3262)" d="m50.763,179.29-2.1793,2.1895,0,3.0856,2.1793,2.1895,3.106,0,2.1691-2.1895,0-3.0856-2.1691-2.1895h-3.106z" fill-rule="nonzero" fill="#FFF"/>
 <path filter="url(#filter3262)" d="m62.642,179.29-2.1589,2.1895,0,3.0856,2.1589,2.1895,3.106,0,2.1895-2.1895,0-3.0856-2.1895-2.1895h-3.106z" fill-rule="nonzero" fill="#FFF"/>
 <path filter="url(#filter3262)" d="m74.538,179.29-2.1895,2.1895,0,3.0856,2.1895,2.1895,3.0958,0,2.1793-2.1895,0-3.0856-2.1793-2.1895h-3.0958z" fill-rule="nonzero" fill="#FFF"/>
 <path filter="url(#filter3262)" d="m85.986,178.23-2.8107,2.8107,0,3.9716,2.8107,2.8005,3.9818,0,2.7801-2.8005,0-3.9716-2.7801-2.8107h-3.9818z" fill-rule="nonzero" fill="#FFF"/>
 <path filter="url(#filter3262)" d="M2.8107,166.34,2.8E-8,169.15v3.9512l2.8107,2.8412h3.9716l2.8107-2.8412v-3.9512l-2.8107-2.8107h-3.9716z" fill-rule="nonzero" fill="#FFF"/>
 <path filter="url(#filter3262)" d="m15.138,167.41-2.1895,2.1895,0,3.0856,2.1895,2.1895,3.0653,0,2.2099-2.1895,0-3.0856-2.2099-2.1895h-3.065z" fill-rule="nonzero" fill="#FFF"/>
 <path filter="url(#filter3262)" d="m26.998,167.41-2.1589,2.1895,0,3.0856,2.1589,2.1895,3.106,0,2.1793-2.1895,0-3.0856-2.1793-2.1895h-3.106z" fill-rule="nonzero" fill="#FFF"/>
 <path filter="url(#filter3262)" d="m39.16,168.09-1.7821,1.7821,0,2.5459,1.7821,1.7923,2.5561,0,1.772-1.7923,0-2.5459-1.772-1.7821h-2.5561z" fill-rule="nonzero" fill="#FFF"/>
 <path filter="url(#filter3262)" d="m51.222,168.46-1.5683,1.5988,0,2.1895,1.5683,1.5683,2.2099,0,1.5479-1.5683,0-2.1895-1.5479-1.5988h-2.2099z" fill-rule="nonzero" fill="#FFF"/>
 <path filter="url(#filter3262)" d="m62.935,168.09-1.7923,1.7821,0,2.5459,1.7923,1.7923,2.5357,0,1.8025-1.7923,0-2.5459-1.8025-1.7821h-2.5357z" fill-rule="nonzero" fill="#FFF"/>
 <path filter="url(#filter3262)" d="m74.538,167.41-2.1895,2.1895,0,3.0856,2.1895,2.1895,3.0958,0,2.1793-2.1895,0-3.0856-2.1793-2.1895h-3.0958z" fill-rule="nonzero" fill="#FFF"/>
 <path filter="url(#filter3262)" d="m86.416,167.41-2.1895,2.1895,0,3.0856,2.1895,2.1895,3.0958,0,2.1895-2.1895,0-3.0856-2.1895-2.1895h-3.0958z" fill-rule="nonzero" fill="#FFF"/>
 <path filter="url(#filter3262)" d="m97.873,166.34-2.8107,2.8107,0,3.9512,2.8107,2.8412,3.9614,0,2.8005-2.8412,0-3.9512-2.8005-2.8107h-3.9614z" fill-rule="nonzero" fill="#FFF"/>
 <path filter="url(#filter3262)" d="M2.8107,154.45,2.8E-8,157.26v3.9716l2.8107,2.8209h3.9716l2.8107-2.8209v-3.9716l-2.8107-2.8107h-3.9716z" fill-rule="nonzero" fill="#FFF"/>
 <path filter="url(#filter3262)" d="m15.138,155.53-2.1895,2.1997,0,3.0755,2.1895,2.1691,3.0653,0,2.2099-2.1691,0-3.0755-2.2099-2.1997h-3.065z" fill-rule="nonzero" fill="#FFF"/>
 <path filter="url(#filter3262)" d="m27.291,156.19-1.7923,1.7923,0,2.5459,1.7923,1.7821,2.5459,0,1.7923-1.7821,0-2.5459-1.7923-1.7923h-2.5459z" fill-rule="nonzero" fill="#FFF"/>
 <path filter="url(#filter3262)" d="m39.343,156.59-1.5785,1.5785,0,2.1997,1.5785,1.5683,2.1895,0,1.5683-1.5683,0-2.1997-1.5683-1.5785h-2.1895z" fill-rule="nonzero" fill="#FFF"/>
 <path filter="url(#filter3262)" d="m51.313,156.81-1.4257,1.4359,0,2.0266,1.4257,1.4257,2.0062,0,1.4461-1.4257,0-2.0266-1.4461-1.4359h-2.0062z" fill-rule="nonzero" fill="#FFF"/>
 <path filter="url(#filter3262)" d="m63.1,156.59-1.5479,1.5785,0,2.1997,1.5479,1.5683,2.1895,0,1.5479-1.5683,0-2.1997-1.5479-1.5785h-2.1895z" fill-rule="nonzero" fill="#FFF"/>
 <path filter="url(#filter3262)" d="m74.813,156.19-1.7923,1.7923,0,2.5459,1.7923,1.7821,2.5459,0,1.7923-1.7821,0-2.5459-1.7923-1.7923h-2.5459z" fill-rule="nonzero" fill="#FFF"/>
 <path filter="url(#filter3262)" d="m86.416,155.53-2.1895,2.1997,0,3.0755,2.1895,2.1691,3.0958,0,2.1895-2.1691,0-3.0755-2.1895-2.1997h-3.0958z" fill-rule="nonzero" fill="#FFF"/>
 <path filter="url(#filter3262)" d="m97.873,154.44-2.8107,2.8209,0,3.9716,2.8107,2.8209,3.9614,0,2.8005-2.8209,0-3.9716-2.8005-2.8209h-3.9614z" fill-rule="nonzero" fill="#FFF"/>
 <path filter="url(#filter3262)" d="M2.8107,142.59,2.8E-8,145.39v3.9411l2.8107,2.8311h3.9716l2.8107-2.8311v-3.9411l-2.8107-2.8005h-3.9716z" fill-rule="nonzero" fill="#FFF"/>
 <path filter="url(#filter3262)" d="m15.138,143.66-2.1895,2.1691,0,3.0856,2.1895,2.1997,3.0653,0,2.2099-2.1997,0-3.0856-2.2099-2.1691h-3.065z" fill-rule="nonzero" fill="#FFF"/>
 <path filter="url(#filter3262)" d="m27.447,144.7-1.5479,1.5785,0,2.1997,1.5479,1.5581,2.22,0,1.5683-1.5581,0-2.1997-1.5683-1.5785h-2.22z" fill-rule="nonzero" fill="#FFF"/>
 <path filter="url(#filter3262)" d="m39.426,144.95-1.4155,1.4155,0,2.0265,1.4155,1.4155,2.0367,0,1.4053-1.4155,0-2.0265-1.4053-1.4155h-2.0367z" fill-rule="nonzero" fill="#FFF"/>
 <path filter="url(#filter3262)" d="m51.368,145.07-1.3646,1.3442,0,1.9349,1.3646,1.3442,1.9043,0,1.385-1.3442,0-1.9349-1.385-1.3442h-1.9043z" fill-rule="nonzero" fill="#FFF"/>
 <path filter="url(#filter3262)" d="m63.201,144.95-1.4359,1.4155,0,2.0265,1.4359,1.4155,2.0164,0,1.4155-1.4155,0-2.0265-1.4155-1.4155h-2.0164z" fill-rule="nonzero" fill="#FFF"/>
 <path filter="url(#filter3262)" d="m74.969,144.7-1.5479,1.5785,0,2.1997,1.5479,1.5581,2.2302,0,1.5479-1.5581,0-2.1997-1.5479-1.5785h-2.2301z" fill-rule="nonzero" fill="#FFF"/>
 <path filter="url(#filter3262)" d="m86.416,143.66-2.1895,2.1691,0,3.0856,2.1895,2.1997,3.0958,0,2.1895-2.1997,0-3.0856-2.1895-2.1691h-3.0958z" fill-rule="nonzero" fill="#FFF"/>
 <path filter="url(#filter3262)" d="m97.873,142.59-2.8107,2.8005,0,3.9411,2.8107,2.8311h3.9614l2.8005-2.8311v-3.9411l-2.8005-2.8005h-3.9614z" fill-rule="nonzero" fill="#FFF"/>
 <path filter="url(#filter3262)" d="M2.8107,130.69,2.8E-8,133.5v3.9818l2.8107,2.8107h3.9716l2.8107-2.8107v-3.9818l-2.8107-2.8107h-3.9716z" fill-rule="nonzero" fill="#FFF"/>
 <path filter="url(#filter3262)" d="m15.138,131.77-2.1895,2.1691,0,3.0958,2.1895,2.1997,3.0653,0,2.2099-2.1997,0-3.0958-2.2099-2.1691h-3.065z" fill-rule="nonzero" fill="#FFF"/>
 <path filter="url(#filter3262)" d="m27.291,132.42-1.7923,1.8025,0,2.5459,1.7923,1.7923,2.5459,0,1.7923-1.7923,0-2.5459-1.7923-1.8025h-2.5459z" fill-rule="nonzero" fill="#FFF"/>
 <path filter="url(#filter3262)" d="m39.343,132.83-1.5785,1.5785,0,2.1793,1.5785,1.5785,2.1895,0,1.5683-1.5785,0-2.1793-1.5683-1.5785h-2.1895z" fill-rule="nonzero" fill="#FFF"/>
 <path filter="url(#filter3262)" d="m51.313,133.06-1.4257,1.4155,0,2.0265,1.4257,1.4155,2.0062,0,1.4461-1.4155,0-2.0265-1.4461-1.4155h-2.0062z" fill-rule="nonzero" fill="#FFF"/>
 <path filter="url(#filter3262)" d="m63.1,132.83-1.5479,1.5785,0,2.1793,1.5479,1.5785,2.1895,0,1.5479-1.5785,0-2.1793-1.5479-1.5785h-2.1895z" fill-rule="nonzero" fill="#FFF"/>
 <path filter="url(#filter3262)" d="m74.813,132.42-1.7923,1.8025,0,2.5459,1.7923,1.7923,2.5459,0,1.7923-1.7923,0-2.5459-1.7923-1.8025h-2.5459z" fill-rule="nonzero" fill="#FFF"/>
 <path filter="url(#filter3262)" d="m86.416,131.77-2.1895,2.1691,0,3.0958,2.1895,2.1997,3.0958,0,2.1895-2.1997,0-3.0958-2.1895-2.1691h-3.0958z" fill-rule="nonzero" fill="#FFF"/>
 <path filter="url(#filter3262)" d="m97.873,130.69-2.8107,2.8107,0,3.9818,2.8107,2.8107,3.9614,0,2.8005-2.8107,0-3.9818-2.8005-2.8107h-3.9614z" fill-rule="nonzero" fill="#FFF"/>
 <path filter="url(#filter3262)" d="M2.8107,118.82,2.8E-8,121.62v3.9818l2.8107,2.8107h3.9716l2.8107-2.8107v-3.9818l-2.8107-2.8005h-3.9716z" fill-rule="nonzero" fill="#FFF"/>
 <path filter="url(#filter3262)" d="m15.138,119.89-2.1895,2.1895,0,3.0856,2.1895,2.1895,3.0653,0,2.2099-2.1895,0-3.0856-2.2099-2.1895h-3.065z" fill-rule="nonzero" fill="#FFF"/>
 <path filter="url(#filter3262)" d="m26.998,119.89-2.1589,2.1895,0,3.0856,2.1589,2.1895,3.106,0,2.1793-2.1895,0-3.0856-2.1793-2.1895h-3.106z" fill-rule="nonzero" fill="#FFF"/>
 <path filter="url(#filter3262)" d="m39.16,120.55-1.7821,1.7923,0,2.5357,1.7821,1.8025,2.5561,0,1.772-1.8025,0-2.5357-1.772-1.7923h-2.5561z" fill-rule="nonzero" fill="#FFF"/>
 <path filter="url(#filter3262)" d="m51.222,120.95-1.5683,1.5581,0,2.2098,1.5683,1.5683,2.2099,0,1.5479-1.5683,0-2.2098-1.5479-1.5581h-2.2099z" fill-rule="nonzero" fill="#FFF"/>
 <path filter="url(#filter3262)" d="m62.935,120.55-1.7923,1.7923,0,2.5357,1.7923,1.8025,2.5357,0,1.8025-1.8025,0-2.5357-1.8025-1.7923h-2.5357z" fill-rule="nonzero" fill="#FFF"/>
 <path filter="url(#filter3262)" d="m74.538,119.89-2.1895,2.1895,0,3.0856,2.1895,2.1895,3.0958,0,2.1793-2.1895,0-3.0856-2.1793-2.1895h-3.0958z" fill-rule="nonzero" fill="#FFF"/>
 <path filter="url(#filter3262)" d="m86.416,119.89-2.1895,2.1895,0,3.0856,2.1895,2.1895,3.0958,0,2.1895-2.1895,0-3.0856-2.1895-2.1895h-3.0958z" fill-rule="nonzero" fill="#FFF"/>
 <path filter="url(#filter3262)" d="m97.873,118.82-2.8107,2.8005,0,3.9818,2.8107,2.8107,3.9614,0,2.8005-2.8107,0-3.9818-2.8005-2.8005h-3.9614z" fill-rule="nonzero" fill="#FFF"/>
 <path filter="url(#filter3262)" d="m14.698,106.93-2.8107,2.8107,0,3.9716,2.8107,2.8005,3.9716,0,2.8005-2.8005,0-3.9716-2.8005-2.8107h-3.9716z" fill-rule="nonzero" fill="#FFF"/>
 <path filter="url(#filter3262)" d="m26.998,108-2.1589,2.1793,0,3.0958,2.1589,2.1895,3.106,0,2.1793-2.1895,0-3.0958-2.1793-2.1793h-3.106z" fill-rule="nonzero" fill="#FFF"/>
 <path filter="url(#filter3262)" d="m38.904,108-2.1997,2.1793,0,3.0958,2.1997,2.1895,3.0653,0,2.2099-2.1895,0-3.0958-2.2099-2.1793h-3.0653z" fill-rule="nonzero" fill="#FFF"/>
 <path filter="url(#filter3262)" d="m50.763,108-2.1793,2.1793,0,3.0958,2.1793,2.1895,3.106,0,2.1691-2.1895,0-3.0958-2.1691-2.1793h-3.106z" fill-rule="nonzero" fill="#FFF"/>
 <path filter="url(#filter3262)" d="m62.642,108-2.1589,2.1793,0,3.0958,2.1589,2.1895,3.106,0,2.1895-2.1895,0-3.0958-2.1895-2.1793h-3.106z" fill-rule="nonzero" fill="#FFF"/>
 <path filter="url(#filter3262)" d="m74.538,108-2.1895,2.1793,0,3.0958,2.1895,2.1895,3.0958,0,2.1793-2.1895,0-3.0958-2.1793-2.1793h-3.0958z" fill-rule="nonzero" fill="#FFF"/>
 <path filter="url(#filter3262)" d="m85.986,106.93-2.8107,2.8107,0,3.9716,2.8107,2.8005,3.9818,0,2.7801-2.8005,0-3.9716-2.7801-2.8107h-3.9818z" fill-rule="nonzero" fill="#FFF"/>
 <path filter="url(#filter3262)" d="m26.567,95.053-2.8005,2.8209,0,3.9411,2.8005,2.831,3.9716,0,2.8311-2.831,0-3.9411-2.8311-2.8209h-3.9716z" fill-rule="nonzero" fill="#FFF"/>
 <path filter="url(#filter3262)" d="m50.644,95.841-2.3422,2.3422,0,3.33,2.3422,2.3524,3.3301,0,2.3728-2.3524,0-3.33-2.3728-2.3422h-3.3301z" fill-rule="nonzero" fill="#FFF"/>
 <path filter="url(#filter3262)" d="m62.55,95.841-2.3524,2.3422,0,3.33,2.3524,2.3524,3.3301,0,2.3321-2.3524,0-3.33-2.3321-2.3422h-3.3301z" fill-rule="nonzero" fill="#FFF"/>
 <path filter="url(#filter3262)" d="m74.098,95.053-2.8107,2.8209,0,3.9411,2.8107,2.831,3.9818,0,2.7903-2.831,0-3.9411-2.7903-2.8209h-3.9818z" fill-rule="nonzero" fill="#FFF"/>
 <path filter="url(#filter3262)" d="m26.567,95.053-2.8005,2.8209,0,3.9411,2.8005,2.831,3.9716,0,2.8311-2.831,0-3.9411-2.8311-2.8209h-3.9716z" fill-rule="nonzero" fill="#FFF"/>
 <path filter="url(#filter3262)" d="m38.784,95.841-2.3321,2.3422,0,3.33,2.3321,2.3524,3.3301,0,2.3321-2.3524,0-3.33-2.3321-2.3422h-3.3301z" fill-rule="nonzero" fill="#FFF"/>
 <path filter="url(#filter3262)" d="m74.098,95.053-2.8107,2.8209,0,3.9411,2.8107,2.831,3.9818,0,2.7903-2.831,0-3.9411-2.7903-2.8209h-3.9818z" fill-rule="nonzero" fill="#FFF"/>
 <path filter="url(#filter3262)" d="m14.698,83.175-2.8107,2.7903,0,3.9818,2.8107,2.8209,3.9716,0,2.8005-2.8209,0-3.9818-2.8005-2.7903h-3.9716z" fill-rule="nonzero" fill="#FFF"/>
 <path filter="url(#filter3262)" d="m26.998,84.229-2.1589,2.1895,0,3.0958,2.1589,2.1895,3.106,0,2.1793-2.1895,0-3.0958-2.1793-2.1895h-3.106z" fill-rule="nonzero" fill="#FFF"/>
 <path filter="url(#filter3262)" d="m38.904,84.229-2.1997,2.1895,0,3.0958,2.1997,2.1895,3.0653,0,2.2099-2.1895,0-3.0958-2.2099-2.1895h-3.0653z" fill-rule="nonzero" fill="#FFF"/>
 <path filter="url(#filter3262)" d="m50.763,84.229-2.1793,2.1895,0,3.0958,2.1793,2.1895,3.106,0,2.1691-2.1895,0-3.0958-2.1691-2.1895h-3.106z" fill-rule="nonzero" fill="#FFF"/>
 <path filter="url(#filter3262)" d="m62.642,84.229-2.1589,2.1895,0,3.0958,2.1589,2.1895,3.106,0,2.1895-2.1895,0-3.0958-2.1895-2.1895h-3.106z" fill-rule="nonzero" fill="#FFF"/>
 <path filter="url(#filter3262)" d="m74.538,84.229-2.1895,2.1895,0,3.0958,2.1895,2.1895,3.0958,0,2.1793-2.1895,0-3.0958-2.1793-2.1895h-3.0958z" fill-rule="nonzero" fill="#FFF"/>
 <path filter="url(#filter3262)" d="m85.986,83.175-2.8107,2.7903,0,3.9818,2.8107,2.8209,3.9818,0,2.7801-2.8209,0-3.9818-2.7801-2.7903h-3.9818z" fill-rule="nonzero" fill="#FFF"/>
 <path filter="url(#filter3262)" d="M2.8107,71.288,2.8E-8,74.098v3.9716l2.8107,2.8107h3.9716l2.8107-2.8107v-3.9716l-2.8107-2.8107h-3.9716z" fill-rule="nonzero" fill="#FFF"/>
 <path filter="url(#filter3262)" d="m15.138,72.351-2.1895,2.1997,0,3.0755,2.1895,2.1997,3.0653,0,2.2099-2.1997,0-3.0755-2.2099-2.1997h-3.065z" fill-rule="nonzero" fill="#FFF"/>
 <path filter="url(#filter3262)" d="m26.998,72.351-2.1589,2.1997,0,3.0755,2.1589,2.1997,3.106,0,2.1793-2.1997,0-3.0755-2.1793-2.1997h-3.106z" fill-rule="nonzero" fill="#FFF"/>
 <path filter="url(#filter3262)" d="m39.16,73.029-1.7821,1.7923,0,2.5357,1.7821,1.8025,2.5561,0,1.772-1.8025,0-2.5357-1.772-1.7923h-2.5561z" fill-rule="nonzero" fill="#FFF"/>
 <path filter="url(#filter3262)" d="m51.222,73.432-1.5683,1.5785,0,2.1997,1.5683,1.5377,2.2099,0,1.5479-1.5377,0-2.1997-1.5479-1.5785h-2.2099z" fill-rule="nonzero" fill="#FFF"/>
 <path filter="url(#filter3262)" d="m62.935,73.029-1.7923,1.7923,0,2.5357,1.7923,1.8025,2.5357,0,1.8025-1.8025,0-2.5357-1.8025-1.7923h-2.5357z" fill-rule="nonzero" fill="#FFF"/>
 <path filter="url(#filter3262)" d="m74.538,72.351-2.1895,2.1997,0,3.0755,2.1895,2.1997,3.0958,0,2.1793-2.1997,0-3.0755-2.1793-2.1997h-3.0958z" fill-rule="nonzero" fill="#FFF"/>
 <path filter="url(#filter3262)" d="m86.416,72.351-2.1895,2.1997,0,3.0755,2.1895,2.1997,3.0958,0,2.1895-2.1997,0-3.0755-2.1895-2.1997h-3.0958z" fill-rule="nonzero" fill="#FFF"/>
 <path filter="url(#filter3262)" d="m97.873,71.288-2.8107,2.8107,0,3.9818,2.8107,2.8005,3.9614,0,2.8005-2.8005,0-3.9818-2.8005-2.8107h-3.9614z" fill-rule="nonzero" fill="#FFF"/>
 <path filter="url(#filter3262)" d="M2.8107,59.409,2.8E-8,62.21v3.992l2.8107,2.8005h3.9716l2.8107-2.8005v-3.992l-2.8107-2.8005h-3.9716z" fill-rule="nonzero" fill="#FFF"/>
 <path filter="url(#filter3262)" d="m15.138,60.482-2.1895,2.1691,0,3.106,2.1895,2.1793,3.0653,0,2.2099-2.1793,0-3.106-2.2099-2.1691h-3.065z" fill-rule="nonzero" fill="#FFF"/>
 <path filter="url(#filter3262)" d="m27.291,61.132-1.7923,1.8025,0,2.5459,1.7923,1.7923,2.5459,0,1.7923-1.7923,0-2.5459-1.7923-1.8025h-2.5459z" fill-rule="nonzero" fill="#FFF"/>
 <path filter="url(#filter3262)" d="m39.343,61.536-1.5785,1.5683,0,2.1997,1.5785,1.5683,2.1895,0,1.5683-1.5683,0-2.1997-1.5683-1.5683h-2.1895z" fill-rule="nonzero" fill="#FFF"/>
 <path filter="url(#filter3262)" d="m51.313,61.765-1.4257,1.4257,0,2.0265,1.4257,1.4155,2.0062,0,1.4461-1.4155,0-2.0265-1.4461-1.4257h-2.0062z" fill-rule="nonzero" fill="#FFF"/>
 <path filter="url(#filter3262)" d="m63.1,61.536-1.5479,1.5683,0,2.1997,1.5479,1.5683,2.1895,0,1.5479-1.5683,0-2.1997-1.5479-1.5683h-2.1895z" fill-rule="nonzero" fill="#FFF"/>
 <path filter="url(#filter3262)" d="m74.813,61.132-1.7923,1.8025,0,2.5459,1.7923,1.7923,2.5459,0,1.7923-1.7923,0-2.5459-1.7923-1.8025h-2.5459z" fill-rule="nonzero" fill="#FFF"/>
 <path filter="url(#filter3262)" d="m86.416,60.482-2.1895,2.1691,0,3.106,2.1895,2.1793,3.0958,0,2.1895-2.1793,0-3.106-2.1895-2.1691h-3.0958z" fill-rule="nonzero" fill="#FFF"/>
 <path filter="url(#filter3262)" d="m97.873,59.409-2.8107,2.8005,0,3.992,2.8107,2.8005,3.9614,0,2.8005-2.8005,0-3.992-2.8005-2.8005h-3.9614z" fill-rule="nonzero" fill="#FFF"/>
 <path filter="url(#filter3262)" d="M2.8107,47.549,2.8E-8,50.36v3.9513l2.8107,2.8209h3.9716l2.8107-2.8209v-3.9513l-2.8107-2.8107h-3.9716z" fill-rule="nonzero" fill="#FFF"/>
 <path filter="url(#filter3262)" d="m15.138,48.594-2.1895,2.1997,0,3.0755,2.1895,2.1895,3.0653,0,2.2099-2.1895,0-3.0755-2.2099-2.1997h-3.065z" fill-rule="nonzero" fill="#FFF"/>
 <path filter="url(#filter3262)" d="m27.447,49.667-1.5479,1.5479,0,2.1997,1.5479,1.5683,2.22,0,1.5683-1.5683,0-2.1997-1.5683-1.5479h-2.22z" fill-rule="nonzero" fill="#FFF"/>
 <path filter="url(#filter3262)" d="m39.426,49.905-1.4155,1.4053,0,2.0265,1.4155,1.4155,2.0367,0,1.4053-1.4155,0-2.0265l-1.405-1.405h-2.0367z" fill-rule="nonzero" fill="#FFF"/>
 <path filter="url(#filter3262)" d="m51.368,50.006-1.3646,1.3544,0,1.9247,1.3646,1.3646,1.9043,0,1.385-1.3646,0-1.9247-1.385-1.3544h-1.9043z" fill-rule="nonzero" fill="#FFF"/>
 <path filter="url(#filter3262)" d="m63.201,49.905-1.4359,1.4053,0,2.0265,1.4359,1.4155,2.0164,0,1.4155-1.4155,0-2.0265l-1.415-1.405h-2.0164z" fill-rule="nonzero" fill="#FFF"/>
 <path filter="url(#filter3262)" d="m74.969,49.667-1.5479,1.5479,0,2.1997,1.5479,1.5683,2.2302,0,1.5479-1.5683,0-2.1997-1.5479-1.5479h-2.2301z" fill-rule="nonzero" fill="#FFF"/>
 <path filter="url(#filter3262)" d="m86.416,48.594-2.1895,2.1997,0,3.0755,2.1895,2.1895,3.0958,0,2.1895-2.1895,0-3.0755-2.1895-2.1997h-3.0958z" fill-rule="nonzero" fill="#FFF"/>
 <path filter="url(#filter3262)" d="m97.873,47.549-2.8107,2.8107,0,3.9513,2.8107,2.8209,3.9614,0,2.8005-2.8209,0-3.9513-2.8005-2.8107h-3.9614z" fill-rule="nonzero" fill="#FFF"/>
 <path filter="url(#filter3262)" d="M2.8107,35.653,2.8E-8,38.453v3.9818l2.8107,2.7903h3.9716l2.8107-2.79v-3.9816l-2.8107-2.8004h-3.9716z" fill-rule="nonzero" fill="#FFF"/>
 <path filter="url(#filter3262)" d="m15.138,36.707-2.1895,2.1895,0,3.0856,2.1895,2.1997,3.0653,0,2.2099-2.1997,0-3.0856-2.2099-2.1895h-3.065z" fill-rule="nonzero" fill="#FFF"/>
 <path filter="url(#filter3262)" d="m27.291,37.376-1.7923,1.8025,0,2.5357,1.7923,1.7821,2.5459,0,1.7923-1.7821,0-2.5357-1.7923-1.8025h-2.5459z" fill-rule="nonzero" fill="#FFF"/>
 <path filter="url(#filter3262)" d="m39.343,37.788-1.5785,1.5581,0,2.1895,1.5785,1.5683,2.1895,0,1.5683-1.5683,0-2.1895-1.5683-1.5581h-2.1895z" fill-rule="nonzero" fill="#FFF"/>
 <path filter="url(#filter3262)" d="m51.313,38.018-1.4257,1.4257,0,2.0062,1.4257,1.4257,2.0062,0,1.4461-1.4257,0-2.0062-1.4461-1.4257h-2.0062z" fill-rule="nonzero" fill="#FFF"/>
 <path filter="url(#filter3262)" d="m63.1,37.788-1.5479,1.5581,0,2.1895,1.5479,1.5683,2.1895,0,1.5479-1.5683,0-2.1895-1.5479-1.5581h-2.1895z" fill-rule="nonzero" fill="#FFF"/>
 <path filter="url(#filter3262)" d="m74.813,37.376-1.7923,1.8025,0,2.5357,1.7923,1.7821,2.5459,0,1.7923-1.7821,0-2.5357-1.7923-1.8025h-2.5459z" fill-rule="nonzero" fill="#FFF"/>
 <path filter="url(#filter3262)" d="m86.416,36.707-2.1895,2.1895,0,3.0856,2.1895,2.1997,3.0958,0,2.1895-2.1997,0-3.0856-2.1895-2.1895h-3.0958z" fill-rule="nonzero" fill="#FFF"/>
 <path filter="url(#filter3262)" d="m97.873,35.653-2.8107,2.8005,0,3.9818,2.8107,2.7903h3.9614l2.8005-2.7903v-3.9818l-2.8005-2.8005h-3.9614z" fill-rule="nonzero" fill="#FFF"/>
 <path filter="url(#filter3262)" d="M2.8107,23.766,2.8E-8,26.576v3.9614l2.8107,2.8107h3.9716l2.8107-2.8107v-3.9614l-2.8107-2.8107h-3.9716z" fill-rule="nonzero" fill="#FFF"/>
 <path filter="url(#filter3262)" d="m15.138,24.829-2.1895,2.1895,0,3.0958,2.1895,2.1895,3.0653,0,2.2099-2.1895,0-3.0958-2.2099-2.1895h-3.065z" fill-rule="nonzero" fill="#FFF"/>
 <path filter="url(#filter3262)" d="m26.998,24.829-2.1589,2.1895,0,3.0958,2.1589,2.1895,3.106,0,2.1793-2.1895,0-3.0958-2.1793-2.1895h-3.106z" fill-rule="nonzero" fill="#FFF"/>
 <path filter="url(#filter3262)" d="m39.16,25.498-1.7821,1.7821,0,2.5561,1.7821,1.8025,2.5561,0,1.772-1.8025,0-2.5561-1.772-1.7821h-2.5561z" fill-rule="nonzero" fill="#FFF"/>
 <path filter="url(#filter3262)" d="m51.222,25.91-1.5683,1.5479,0,2.22,1.5683,1.5479,2.2099,0,1.5479-1.5479,0-2.22-1.5479-1.5479h-2.2099z" fill-rule="nonzero" fill="#FFF"/>
 <path filter="url(#filter3262)" d="m62.935,25.498-1.7923,1.7821,0,2.5561,1.7923,1.8025,2.5357,0,1.8025-1.8025,0-2.5561-1.8025-1.7821h-2.5357z" fill-rule="nonzero" fill="#FFF"/>
 <path filter="url(#filter3262)" d="m74.538,24.829-2.1895,2.1895,0,3.0958,2.1895,2.1895,3.0958,0,2.1793-2.1895,0-3.0958-2.1793-2.1895h-3.0958z" fill-rule="nonzero" fill="#FFF"/>
 <path filter="url(#filter3262)" d="m86.416,24.829-2.1895,2.1895,0,3.0958,2.1895,2.1895,3.0958,0,2.1895-2.1895,0-3.0958-2.1895-2.1895h-3.0958z" fill-rule="nonzero" fill="#FFF"/>
 <path filter="url(#filter3262)" d="m97.873,23.766-2.8107,2.8107,0,3.9614,2.8107,2.8107,3.9614,0,2.8005-2.8107,0-3.9614-2.8005-2.8107h-3.9614z" fill-rule="nonzero" fill="#FFF"/>
 <path filter="url(#filter3262)" d="m14.698,11.897-2.8107,2.8005,0,3.9716,2.8107,2.8005h3.9716l2.8005-2.8005v-3.9716l-2.8005-2.8005h-3.9716z" fill-rule="nonzero" fill="#FFF"/>
 <path filter="url(#filter3262)" d="m26.998,12.941-2.1589,2.1895,0,3.0856,2.1589,2.1793,3.106,0,2.1793-2.1793,0-3.0856-2.1793-2.1895h-3.106z" fill-rule="nonzero" fill="#FFF"/>
 <path filter="url(#filter3262)" d="m38.904,12.941-2.1997,2.1895,0,3.0856,2.1997,2.1793,3.0653,0,2.2099-2.1793,0-3.0856-2.2099-2.1895h-3.0653z" fill-rule="nonzero" fill="#FFF"/>
 <path filter="url(#filter3262)" d="m50.763,12.941-2.1793,2.1895,0,3.0856,2.1793,2.1793,3.106,0,2.1691-2.1793,0-3.0856-2.1691-2.1895h-3.106z" fill-rule="nonzero" fill="#FFF"/>
 <path filter="url(#filter3262)" d="m62.642,12.941-2.1589,2.1895,0,3.0856,2.1589,2.1793,3.106,0,2.1895-2.1793,0-3.0856-2.1895-2.1895h-3.106z" fill-rule="nonzero" fill="#FFF"/>
 <path filter="url(#filter3262)" d="m74.538,12.941-2.1895,2.1895,0,3.0856,2.1895,2.1793,3.0958,0,2.1793-2.1793,0-3.0856-2.1793-2.1895h-3.0958z" fill-rule="nonzero" fill="#FFF"/>
 <path filter="url(#filter3262)" d="m85.986,11.897-2.8107,2.8005,0,3.9716,2.8107,2.8005h3.9818l2.7801-2.8005v-3.9716l-2.7801-2.8005h-3.9818z" fill-rule="nonzero" fill="#FFF"/>
 <path filter="url(#filter3262)" d="m26.567,0-2.8005,2.8005,0,3.992,2.8005,2.8005,3.9716,0,2.8311-2.8005,0-3.992l-2.83-2.8005h-3.9716z" fill-rule="nonzero" fill="#FFF"/>
 <path filter="url(#filter3262)" d="m38.445,0-2.8107,2.8005,0,3.992,2.8107,2.8005,3.9818,0,2.7903-2.8005,0-3.992l-2.79-2.8005h-3.9818z" fill-rule="nonzero" fill="#FFF"/>
 <path filter="url(#filter3262)" d="m50.351,0-2.8107,2.8005,0,3.992,2.8107,2.8005,3.9614,0,2.8005-2.8005,0-3.992l-2.8-2.8005h-3.9614z" fill-rule="nonzero" fill="#FFF"/>
 <path filter="url(#filter3262)" d="m62.211,0-2.8005,2.8005,0,3.992,2.8005,2.8005,3.9716,0,2.8209-2.8005,0-3.992l-2.821-2.8005h-3.9716z" fill-rule="nonzero" fill="#FFF"/>
 <path filter="url(#filter3262)" d="m74.098,0-2.8107,2.8005,0,3.992,2.8107,2.8005,3.9818,0,2.7903-2.8005,0-3.992l-2.79-2.8005h-3.9818z" fill-rule="nonzero" fill="#FFF"/>
 <path d="M185.75,23.531l-58.19,152h32.6l11.93-33.87h55.57l11.93,33.87h33.47l-57.78-152h-29.53zm14.09,38c1.57,5.611,4.55,14.725,7.63,23.657l9.78,27.562h-34.75l9.78-27.562c3.02-8.932,6.06-18.046,7.56-23.657z"/>
 <path d="m337.06,177.91c-29.736,0-53.383-24.308-53.383-59.279,0-34.93,22.995-59.462,54.676-59.462,21.712,0,35.592,10.591,45.185,25.174l-19.746,19.98c-6.7619-9.5523-13.921-16.304-26.05-16.304-14.339,0-23.697,11.956-23.697,30.612,0,18.259,9.3588,30.398,23.697,30.398,11.701,0,19.064-5.2242,26.895-14.512l19.094,17.984c-11.08,14.797-24.125,25.408-46.672,25.408"/>
 <path d="m474.96,175.52,0-61.652c0-20.428-6.9452-26.508-19.339-26.508-12.393,0-19.532,6.0796-19.532,25.836v62.323h-29.988v-143.29l29.991-15.001v51.886c5.1835-5.4381,14.756-9.9494,26.681-9.9494,29.115,0,42.14,19.96,42.14,52.11v64.249h-29.95z"/>
 <path d="m595.65,170.98c-4.9696,3.8596-13.88,6.9249-23.209,6.9249-18.432,0-30.429-14.339-30.429-34.248v-53.886h-19.09v-28.229h19.094v-29.309l29.991-15.001v44.309h27.333v28.229h-27.333v45.816c0,10.876,3.9105,13.646,11.08,13.646,5.3973,0,9.5421-2.3321,16.915-8.6866l-4.3484,30.439z"/>
</svg>
