<svg xmlns="http://www.w3.org/2000/svg" viewBox="0 0 600 199.7" xmlns:xlink="http://www.w3.org/1999/xlink"><defs><filter id="2" height="1" width="1" y="0" x="0" color-interpolation-filters="sRGB"><feColorMatrix values="1" type="saturate" result="fbSourceGraphic"/><feColorMatrix values="-1 0 0 0 1 0 -1 0 0 1 0 0 -1 0 1 0 0 0 1 0 " in="fbSourceGraphic"/></filter></defs><g fill="#fff"><path filter="url(#2)" d="m26.567 190.1l-2.8 2.811v3.982l2.8 2.811h3.972l2.831-2.811v-3.982l-2.831-2.811h-3.972"/><path filter="url(#2)" d="m38.445 190.1l-2.811 2.811v3.982l2.811 2.811h3.982l2.79-2.811v-3.982l-2.79-2.811h-3.982"/><path filter="url(#2)" d="m50.35 190.1l-2.811 2.811v3.982l2.811 2.811h3.961l2.8-2.811v-3.982l-2.8-2.811h-3.961"/><path filter="url(#2)" d="m62.21 190.1l-2.8 2.811v3.982l2.8 2.811h3.972l2.821-2.811v-3.982l-2.821-2.811h-3.972"/><path filter="url(#2)" d="m74.1 190.1l-2.811 2.811v3.982l2.811 2.811h3.982l2.79-2.811v-3.982l-2.79-2.811h-3.982"/><path filter="url(#2)" d="m14.698 178.23l-2.811 2.811v3.972l2.811 2.8h3.972l2.8-2.8v-3.972l-2.8-2.811h-3.972"/><path filter="url(#2)" d="m26.998 179.29l-2.159 2.19v3.086l2.159 2.19h3.106l2.179-2.19v-3.086l-2.179-2.19h-3.106"/><path filter="url(#2)" d="m38.904 179.29l-2.2 2.19v3.086l2.2 2.19h3.065l2.21-2.19v-3.086l-2.21-2.19h-3.065"/><path filter="url(#2)" d="m50.763 179.29l-2.179 2.19v3.086l2.179 2.19h3.106l2.169-2.19v-3.086l-2.169-2.19h-3.106"/><path filter="url(#2)" d="m62.64 179.29l-2.159 2.19v3.086l2.159 2.19h3.106l2.189-2.19v-3.086l-2.189-2.19h-3.106"/><path filter="url(#2)" d="m74.54 179.29l-2.189 2.19v3.086l2.189 2.19h3.096l2.179-2.19v-3.086l-2.179-2.19h-3.096"/><path filter="url(#2)" d="m85.986 178.23l-2.811 2.811v3.972l2.811 2.8h3.982l2.78-2.8v-3.972l-2.78-2.811h-3.982"/><path filter="url(#2)" d="m2.811 166.34l-2.811 2.81v3.951l2.811 2.841h3.972l2.811-2.841v-3.951l-2.811-2.811h-3.972"/><path filter="url(#2)" d="m15.14 167.41l-2.19 2.19v3.086l2.189 2.19h3.065l2.21-2.19v-3.086l-2.21-2.19h-3.065"/><path filter="url(#2)" d="m26.998 167.41l-2.159 2.19v3.086l2.159 2.19h3.106l2.179-2.19v-3.086l-2.179-2.19h-3.106"/><path filter="url(#2)" d="m39.16 168.09l-1.782 1.782v2.546l1.782 1.792h2.556l1.772-1.792v-2.546l-1.772-1.782h-2.556"/><path filter="url(#2)" d="m51.22 168.46l-1.568 1.599v2.19l1.568 1.568h2.21l1.548-1.568v-2.19l-1.548-1.599h-2.21"/><path filter="url(#2)" d="m62.935 168.09l-1.792 1.782v2.546l1.792 1.792h2.536l1.802-1.792v-2.546l-1.802-1.782h-2.536"/><path filter="url(#2)" d="m74.54 167.41l-2.189 2.19v3.086l2.189 2.19h3.096l2.179-2.19v-3.086l-2.179-2.19h-3.096"/><path filter="url(#2)" d="m86.42 167.41l-2.189 2.19v3.086l2.189 2.19h3.096l2.189-2.19v-3.086l-2.189-2.19h-3.096"/><path filter="url(#2)" d="m97.87 166.34l-2.811 2.811v3.951l2.811 2.841h3.961l2.8-2.841v-3.951l-2.8-2.811h-3.961"/><path filter="url(#2)" d="m2.811 154.45l-2.811 2.81v3.972l2.811 2.821h3.972l2.811-2.821v-3.972l-2.811-2.811h-3.972"/><path filter="url(#2)" d="m15.14 155.53l-2.19 2.2v3.076l2.189 2.169h3.065l2.21-2.169v-3.076l-2.21-2.2h-3.065"/><path filter="url(#2)" d="m27.29 156.19l-1.792 1.792v2.546l1.792 1.782h2.546l1.792-1.782v-2.546l-1.792-1.792h-2.546"/><path filter="url(#2)" d="m39.34 156.59l-1.578 1.578v2.2l1.578 1.568h2.19l1.568-1.568v-2.2l-1.568-1.578h-2.19"/><path filter="url(#2)" d="m51.31 156.81l-1.426 1.436v2.027l1.426 1.426h2.01l1.446-1.426v-2.027l-1.446-1.436h-2.01"/><path filter="url(#2)" d="m63.1 156.59l-1.548 1.578v2.2l1.548 1.568h2.19l1.548-1.568v-2.2l-1.548-1.578h-2.19"/><path filter="url(#2)" d="m74.81 156.19l-1.792 1.792v2.546l1.792 1.782h2.546l1.792-1.782v-2.546l-1.792-1.792h-2.546"/><path filter="url(#2)" d="m86.42 155.53l-2.189 2.2v3.076l2.189 2.169h3.096l2.189-2.169v-3.076l-2.189-2.2h-3.096"/><path filter="url(#2)" d="m97.87 154.44l-2.811 2.821v3.972l2.811 2.821h3.961l2.8-2.821v-3.972l-2.8-2.821h-3.961"/><path filter="url(#2)" d="m2.811 142.59l-2.811 2.8v3.941l2.811 2.831h3.972l2.811-2.831v-3.941l-2.811-2.8h-3.972"/><path filter="url(#2)" d="m15.14 143.66l-2.19 2.169v3.086l2.189 2.2h3.065l2.21-2.2v-3.086l-2.21-2.169h-3.065"/><path filter="url(#2)" d="m27.447 144.7l-1.548 1.578v2.2l1.548 1.558h2.22l1.568-1.558v-2.2l-1.568-1.578h-2.22"/><path filter="url(#2)" d="m39.43 144.95l-1.416 1.416v2.026l1.416 1.416h2.037l1.405-1.416v-2.026l-1.405-1.416h-2.037"/><path filter="url(#2)" d="m51.37 145.07l-1.365 1.344v1.935l1.365 1.344h1.904l1.385-1.344v-1.935l-1.385-1.344h-1.904"/><path filter="url(#2)" d="m63.2 144.95l-1.436 1.416v2.026l1.436 1.416h2.02l1.415-1.416v-2.026l-1.415-1.416h-2.02"/><path filter="url(#2)" d="m74.969 144.7l-1.548 1.578v2.2l1.548 1.558h2.23l1.548-1.558v-2.2l-1.548-1.578h-2.23"/><path filter="url(#2)" d="m86.42 143.66l-2.189 2.169v3.086l2.189 2.2h3.096l2.189-2.2v-3.086l-2.189-2.169h-3.096"/><path filter="url(#2)" d="m97.87 142.59l-2.811 2.8v3.941l2.811 2.831h3.961l2.8-2.831v-3.941l-2.8-2.8h-3.961"/><path filter="url(#2)" d="m2.811 130.69l-2.811 2.81v3.982l2.811 2.811h3.972l2.811-2.811v-3.982l-2.811-2.811h-3.972"/><path filter="url(#2)" d="m15.14 131.77l-2.19 2.169v3.096l2.189 2.2h3.065l2.21-2.2v-3.096l-2.21-2.169h-3.065"/><path filter="url(#2)" d="m27.29 132.42l-1.792 1.803v2.546l1.792 1.792h2.546l1.792-1.792v-2.546l-1.792-1.803h-2.546"/><path filter="url(#2)" d="m39.34 132.83l-1.578 1.578v2.179l1.578 1.578h2.19l1.568-1.578v-2.179l-1.568-1.578h-2.19"/><path filter="url(#2)" d="m51.31 133.06l-1.426 1.416v2.026l1.426 1.416h2.01l1.446-1.416v-2.026l-1.446-1.416h-2.01"/><path filter="url(#2)" d="m63.1 132.83l-1.548 1.578v2.179l1.548 1.578h2.19l1.548-1.578v-2.179l-1.548-1.578h-2.19"/><path filter="url(#2)" d="m74.81 132.42l-1.792 1.803v2.546l1.792 1.792h2.546l1.792-1.792v-2.546l-1.792-1.803h-2.546"/><path filter="url(#2)" d="m86.42 131.77l-2.189 2.169v3.096l2.189 2.2h3.096l2.189-2.2v-3.096l-2.189-2.169h-3.096"/><path filter="url(#2)" d="m97.87 130.69l-2.811 2.811v3.982l2.811 2.811h3.961l2.8-2.811v-3.982l-2.8-2.811h-3.961"/><path filter="url(#2)" d="m2.811 118.82l-2.811 2.8v3.982l2.811 2.811h3.972l2.811-2.811v-3.982l-2.811-2.8h-3.972"/><path filter="url(#2)" d="m15.14 119.89l-2.19 2.189v3.086l2.189 2.189h3.065l2.21-2.189v-3.086l-2.21-2.189h-3.065"/><path filter="url(#2)" d="m26.998 119.89l-2.159 2.189v3.086l2.159 2.189h3.106l2.179-2.189v-3.086l-2.179-2.189h-3.106"/><path filter="url(#2)" d="m39.16 120.55l-1.782 1.792v2.536l1.782 1.802h2.556l1.772-1.802v-2.536l-1.772-1.792h-2.556"/><path filter="url(#2)" d="m51.22 120.95l-1.568 1.558v2.21l1.568 1.568h2.21l1.548-1.568v-2.21l-1.548-1.558h-2.21"/><path filter="url(#2)" d="m62.935 120.55l-1.792 1.792v2.536l1.792 1.802h2.536l1.802-1.802v-2.536l-1.802-1.792h-2.536"/><path filter="url(#2)" d="m74.54 119.89l-2.189 2.189v3.086l2.189 2.189h3.096l2.179-2.189v-3.086l-2.179-2.189h-3.096"/><path filter="url(#2)" d="m86.42 119.89l-2.189 2.189v3.086l2.189 2.189h3.096l2.189-2.189v-3.086l-2.189-2.189h-3.096"/><path filter="url(#2)" d="m97.87 118.82l-2.811 2.8v3.982l2.811 2.811h3.961l2.8-2.811v-3.982l-2.8-2.8h-3.961"/><path filter="url(#2)" d="m14.698 106.93l-2.811 2.811v3.972l2.811 2.8h3.972l2.8-2.8v-3.972l-2.8-2.811h-3.972"/><path filter="url(#2)" d="m26.998 108l-2.159 2.179v3.096l2.159 2.189h3.106l2.179-2.189v-3.096l-2.179-2.179h-3.106"/><path filter="url(#2)" d="m38.904 108l-2.2 2.179v3.096l2.2 2.189h3.065l2.21-2.189v-3.096l-2.21-2.179h-3.065"/><path filter="url(#2)" d="m50.763 108l-2.179 2.179v3.096l2.179 2.189h3.106l2.169-2.189v-3.096l-2.169-2.179h-3.106"/><path filter="url(#2)" d="m62.64 108l-2.159 2.179v3.096l2.159 2.189h3.106l2.189-2.189v-3.096l-2.189-2.179h-3.106"/><path filter="url(#2)" d="m74.54 108l-2.189 2.179v3.096l2.189 2.189h3.096l2.179-2.189v-3.096l-2.179-2.179h-3.096"/><path filter="url(#2)" d="m85.986 106.93l-2.811 2.811v3.972l2.811 2.8h3.982l2.78-2.8v-3.972l-2.78-2.811h-3.982"/></g><path filter="url(#2)" d="m26.567 95.05l-2.8 2.821v3.941l2.8 2.831h3.972l2.831-2.831v-3.941l-2.831-2.821h-3.972" fill="#fff" id="0"/><g fill="#fff"><path filter="url(#2)" d="m50.644 95.84l-2.342 2.342v3.33l2.342 2.352h3.33l2.373-2.352v-3.33l-2.373-2.342h-3.33"/><path filter="url(#2)" d="m62.55 95.84l-2.352 2.342v3.33l2.352 2.352h3.33l2.332-2.352v-3.33l-2.332-2.342h-3.33"/></g><path filter="url(#2)" d="m74.1 95.05l-2.811 2.821v3.941l2.811 2.831h3.982l2.79-2.831v-3.941l-2.79-2.821h-3.982" fill="#fff" id="1"/><use xlink:href="#0"/><path filter="url(#2)" d="m38.784 95.84l-2.332 2.342v3.33l2.332 2.352h3.33l2.332-2.352v-3.33l-2.332-2.342h-3.33" fill="#fff"/><use xlink:href="#1"/><g fill="#fff"><path filter="url(#2)" d="m14.698 83.17l-2.811 2.79v3.982l2.811 2.821h3.972l2.8-2.821v-3.982l-2.8-2.79h-3.972"/><path filter="url(#2)" d="m26.998 84.23l-2.159 2.189v3.096l2.159 2.189h3.106l2.179-2.189v-3.096l-2.179-2.189h-3.106"/><path filter="url(#2)" d="m38.904 84.23l-2.2 2.189v3.096l2.2 2.189h3.065l2.21-2.189v-3.096l-2.21-2.189h-3.065"/><path filter="url(#2)" d="m50.763 84.23l-2.179 2.189v3.096l2.179 2.189h3.106l2.169-2.189v-3.096l-2.169-2.189h-3.106"/><path filter="url(#2)" d="m62.64 84.23l-2.159 2.189v3.096l2.159 2.189h3.106l2.189-2.189v-3.096l-2.189-2.189h-3.106"/><path filter="url(#2)" d="m74.54 84.23l-2.189 2.189v3.096l2.189 2.189h3.096l2.179-2.189v-3.096l-2.179-2.189h-3.096"/><path filter="url(#2)" d="m85.986 83.17l-2.811 2.79v3.982l2.811 2.821h3.982l2.78-2.821v-3.982l-2.78-2.79h-3.982"/><path filter="url(#2)" d="m2.811 71.29l-2.811 2.81v3.972l2.811 2.811h3.972l2.811-2.811v-3.972l-2.811-2.811h-3.972"/><path filter="url(#2)" d="m15.14 72.35l-2.19 2.2v3.076l2.189 2.2h3.065l2.21-2.2v-3.076l-2.21-2.2h-3.065"/><path filter="url(#2)" d="m26.998 72.35l-2.159 2.2v3.076l2.159 2.2h3.106l2.179-2.2v-3.076l-2.179-2.2h-3.106"/><path filter="url(#2)" d="m39.16 73.03l-1.782 1.792v2.536l1.782 1.802h2.556l1.772-1.802v-2.536l-1.772-1.792h-2.556"/><path filter="url(#2)" d="m51.22 73.43l-1.568 1.579v2.2l1.568 1.538h2.21l1.548-1.538v-2.2l-1.548-1.579h-2.21"/><path filter="url(#2)" d="m62.935 73.03l-1.792 1.792v2.536l1.792 1.802h2.536l1.802-1.802v-2.536l-1.802-1.792h-2.536"/><path filter="url(#2)" d="m74.54 72.35l-2.189 2.2v3.076l2.189 2.2h3.096l2.179-2.2v-3.076l-2.179-2.2h-3.096"/><path filter="url(#2)" d="m86.42 72.35l-2.189 2.2v3.076l2.189 2.2h3.096l2.189-2.2v-3.076l-2.189-2.2h-3.096"/><path filter="url(#2)" d="m97.87 71.29l-2.811 2.811v3.982l2.811 2.8h3.961l2.8-2.8v-3.982l-2.8-2.811h-3.961"/><path filter="url(#2)" d="m2.811 59.41l-2.811 2.801v3.992l2.811 2.8h3.972l2.811-2.8v-3.992l-2.811-2.8h-3.972"/><path filter="url(#2)" d="m15.14 60.48l-2.19 2.169v3.106l2.189 2.179h3.065l2.21-2.179v-3.106l-2.21-2.169h-3.065"/><path filter="url(#2)" d="m27.29 61.13l-1.792 1.803v2.546l1.792 1.792h2.546l1.792-1.792v-2.546l-1.792-1.803h-2.546"/><path filter="url(#2)" d="m39.34 61.54l-1.578 1.568v2.2l1.578 1.568h2.19l1.568-1.568v-2.2l-1.568-1.568h-2.19"/><path filter="url(#2)" d="m51.31 61.765l-1.426 1.426v2.027l1.426 1.415h2.01l1.446-1.415v-2.026l-1.446-1.426h-2.01"/><path filter="url(#2)" d="m63.1 61.54l-1.548 1.568v2.2l1.548 1.568h2.19l1.548-1.568v-2.2l-1.548-1.568h-2.19"/><path filter="url(#2)" d="m74.81 61.13l-1.792 1.803v2.546l1.792 1.792h2.546l1.792-1.792v-2.546l-1.792-1.803h-2.546"/><path filter="url(#2)" d="m86.42 60.48l-2.189 2.169v3.106l2.189 2.179h3.096l2.189-2.179v-3.106l-2.189-2.169h-3.096"/><path filter="url(#2)" d="m97.87 59.41l-2.811 2.8v3.992l2.811 2.8h3.961l2.8-2.8v-3.992l-2.8-2.8h-3.961"/><path filter="url(#2)" d="m2.811 47.549l-2.811 2.811v3.951l2.811 2.821h3.972l2.811-2.821v-3.951l-2.811-2.811h-3.972"/><path filter="url(#2)" d="m15.14 48.594l-2.19 2.2v3.075l2.189 2.19h3.065l2.21-2.19v-3.075l-2.21-2.2h-3.065"/><path filter="url(#2)" d="m27.447 49.667l-1.548 1.548v2.2l1.548 1.568h2.22l1.568-1.568v-2.2l-1.568-1.548h-2.22"/><path filter="url(#2)" d="m39.43 49.905l-1.416 1.405v2.026l1.416 1.416h2.037l1.405-1.416v-2.026l-1.405-1.405h-2.037"/><path filter="url(#2)" d="m51.37 50.01l-1.365 1.354v1.925l1.365 1.365h1.904l1.385-1.365v-1.925l-1.385-1.354h-1.904"/><path filter="url(#2)" d="m63.2 49.905l-1.436 1.405v2.026l1.436 1.416h2.02l1.415-1.416v-2.026l-1.415-1.405h-2.02"/><path filter="url(#2)" d="m74.969 49.667l-1.548 1.548v2.2l1.548 1.568h2.23l1.548-1.568v-2.2l-1.548-1.548h-2.23"/><path filter="url(#2)" d="m86.42 48.594l-2.189 2.2v3.075l2.189 2.19h3.096l2.189-2.19v-3.075l-2.189-2.2h-3.096"/><path filter="url(#2)" d="m97.87 47.549l-2.811 2.811v3.951l2.811 2.821h3.961l2.8-2.821v-3.951l-2.8-2.811h-3.961"/><path filter="url(#2)" d="m2.811 35.653l-2.811 2.8v3.982l2.811 2.79h3.972l2.811-2.79v-3.982l-2.811-2.8h-3.972"/><path filter="url(#2)" d="m15.14 36.707l-2.19 2.19v3.086l2.189 2.2h3.065l2.21-2.2v-3.086l-2.21-2.19h-3.065"/><path filter="url(#2)" d="m27.29 37.38l-1.792 1.803v2.536l1.792 1.782h2.546l1.792-1.782v-2.536l-1.792-1.803h-2.546"/><path filter="url(#2)" d="m39.34 37.788l-1.578 1.558v2.19l1.578 1.568h2.19l1.568-1.568v-2.19l-1.568-1.558h-2.19"/><path filter="url(#2)" d="m51.31 38.02l-1.426 1.426v2.01l1.426 1.426h2.01l1.446-1.426v-2.01l-1.446-1.426h-2.01"/><path filter="url(#2)" d="m63.1 37.788l-1.548 1.558v2.19l1.548 1.568h2.19l1.548-1.568v-2.19l-1.548-1.558h-2.19"/><path filter="url(#2)" d="m74.81 37.38l-1.792 1.803v2.536l1.792 1.782h2.546l1.792-1.782v-2.536l-1.792-1.803h-2.546"/><path filter="url(#2)" d="m86.42 36.707l-2.189 2.19v3.086l2.189 2.2h3.096l2.189-2.2v-3.086l-2.189-2.19h-3.096"/><path filter="url(#2)" d="m97.87 35.653l-2.811 2.8v3.982l2.811 2.79h3.961l2.8-2.79v-3.982l-2.8-2.8h-3.961"/><path filter="url(#2)" d="m2.811 23.766l-2.811 2.81v3.961l2.811 2.811h3.972l2.811-2.811v-3.961l-2.811-2.811h-3.972"/><path filter="url(#2)" d="m15.14 24.829l-2.19 2.189v3.096l2.189 2.19h3.065l2.21-2.189v-3.096l-2.21-2.189h-3.065"/><path filter="url(#2)" d="m26.998 24.829l-2.159 2.189v3.096l2.159 2.19h3.106l2.179-2.189v-3.096l-2.179-2.189h-3.106"/><path filter="url(#2)" d="m39.16 25.498l-1.782 1.782v2.556l1.782 1.802h2.556l1.772-1.802v-2.556l-1.772-1.782h-2.556"/><path filter="url(#2)" d="m51.22 25.91l-1.568 1.548v2.22l1.568 1.548h2.21l1.548-1.548v-2.22l-1.548-1.548h-2.21"/><path filter="url(#2)" d="m62.935 25.498l-1.792 1.782v2.556l1.792 1.802h2.536l1.802-1.802v-2.556l-1.802-1.782h-2.536"/><path filter="url(#2)" d="m74.54 24.829l-2.189 2.189v3.096l2.189 2.19h3.096l2.179-2.189v-3.096l-2.179-2.189h-3.096"/><path filter="url(#2)" d="m86.42 24.829l-2.189 2.189v3.096l2.189 2.19h3.096l2.189-2.189v-3.096l-2.189-2.189h-3.096"/><path filter="url(#2)" d="m97.87 23.766l-2.811 2.811v3.961l2.811 2.811h3.961l2.8-2.811v-3.961l-2.8-2.811h-3.961"/><path filter="url(#2)" d="m14.698 11.897l-2.811 2.8v3.972l2.811 2.8h3.972l2.8-2.8v-3.972l-2.8-2.8h-3.972"/><path filter="url(#2)" d="m26.998 12.941l-2.159 2.19v3.086l2.159 2.179h3.106l2.179-2.179v-3.086l-2.179-2.189h-3.106"/><path filter="url(#2)" d="m38.904 12.941l-2.2 2.19v3.086l2.2 2.179h3.065l2.21-2.179v-3.086l-2.21-2.189h-3.065"/><path filter="url(#2)" d="m50.763 12.941l-2.179 2.19v3.086l2.179 2.179h3.106l2.169-2.179v-3.086l-2.169-2.189h-3.106"/><path filter="url(#2)" d="m62.64 12.941l-2.159 2.19v3.086l2.159 2.179h3.106l2.189-2.179v-3.086l-2.189-2.189h-3.106"/><path filter="url(#2)" d="m74.54 12.941l-2.189 2.19v3.086l2.189 2.179h3.096l2.179-2.179v-3.086l-2.179-2.189h-3.096"/><path filter="url(#2)" d="m85.986 11.897l-2.811 2.8v3.972l2.811 2.8h3.982l2.78-2.8v-3.972l-2.78-2.8h-3.982"/><path filter="url(#2)" d="m26.567 0l-2.8 2.8v3.992l2.8 2.8h3.972l2.831-2.8v-3.992l-2.83-2.8h-3.972z"/><path filter="url(#2)" d="m38.445 0l-2.811 2.8v3.992l2.811 2.8h3.982l2.79-2.8v-3.992l-2.79-2.8h-3.982"/><path filter="url(#2)" d="m50.35 0l-2.811 2.8v3.992l2.811 2.8h3.961l2.8-2.8v-3.992l-2.8-2.8h-3.961"/><path filter="url(#2)" d="m62.21 0l-2.8 2.8v3.992l2.8 2.8h3.972l2.821-2.8v-3.992l-2.821-2.8h-3.972"/><path filter="url(#2)" d="m74.1 0l-2.811 2.8v3.992l2.811 2.8h3.982l2.79-2.8v-3.992l-2.79-2.8h-3.982"/></g><path d="m185.75 23.531l-58.19 152h32.6l11.93-33.87h55.57l11.93 33.87h33.47l-57.78-152h-29.53m14.09 38c1.57 5.611 4.55 14.725 7.63 23.657l9.78 27.562h-34.75l9.78-27.562c3.02-8.932 6.06-18.05 7.56-23.657"/><path d="m337.06 177.91c-29.736 0-53.38-24.308-53.38-59.28 0-34.93 22.995-59.46 54.676-59.46 21.712 0 35.592 10.591 45.19 25.17l-19.746 19.98c-6.762-9.552-13.921-16.304-26.05-16.304-14.339 0-23.697 11.956-23.697 30.612 0 18.259 9.359 30.398 23.697 30.398 11.701 0 19.06-5.224 26.895-14.512l19.09 17.984c-11.08 14.797-24.12 25.408-46.672 25.408"/><path d="m474.96 175.52v-61.65c0-20.428-6.945-26.508-19.339-26.508-12.393 0-19.532 6.08-19.532 25.836v62.32h-29.988v-143.29l29.991-15v51.886c5.183-5.438 14.756-9.949 26.681-9.949 29.12 0 42.14 19.96 42.14 52.11v64.25h-29.95z"/><path d="m595.65 170.98c-4.97 3.86-13.88 6.925-23.21 6.925-18.432 0-30.429-14.339-30.429-34.25v-53.886h-19.09v-28.23h19.09v-29.31l29.991-15v44.31h27.333v28.23h-27.333v45.816c0 10.876 3.91 13.646 11.08 13.646 5.397 0 9.542-2.332 16.915-8.687l-4.348 30.439z"/></svg>