<?xml version="1.0" encoding="UTF-8" standalone="no"?>
<svg id="svg2" xmlns:rdf="http://www.w3.org/1999/02/22-rdf-syntax-ns#" xmlns="http://www.w3.org/2000/svg" height="394.34" viewBox="0 0 555.08972 394.34207" width="555.09" version="1.1" xmlns:cc="http://creativecommons.org/ns#" xmlns:dc="http://purl.org/dc/elements/1.1/">
 <g fill="#231f20">
  <path id="path4184" d="m30.274 319.7c-4.43-0.007-8.8298 1.1929-11.762 3.7148-2.8142 2.4206-4.2661 7.0603-11.189 35.723-4.3761 18.117-7.6596 33.422-7.2949 34.012 0.36466 0.59004 4.249 1.0742 8.6309 1.0742 8.7985 0 7.9897 0.82995 10.65-10.938l1.4844-6.5625h9.8262 9.8281l1.3008 5.3125c2.9884 12.196 2.3326 11.523 11.633 11.932 5.5693 0.24471 8.4121-0.10157 8.4121-1.0234 0-4.7601-15.445-64.891-17.33-67.471-2.7472-3.7592-8.4937-5.7644-14.189-5.7734zm0.35352 14.523c0.50373 0 1.857 4.3594 3.0078 9.6875s2.5689 11.516 3.1504 13.75l1.0566 4.0625h-6.7734c-3.7258 0-6.7801-0.42188-6.7871-0.9375-0.0398-3.0132 5.5861-26.562 6.3457-26.562z"/>
  <path id="path4180" d="m101.17 318.6-0.36719 9.0625-0.36718 9.0625h-7.8731c-10.699 0-17.865 3.7148-21.705 11.256-2.3689 4.6516-2.8083 7.5017-2.791 18.07 0.0236 14.405 2.2989 20.196 9.998 25.441 4.1263 2.8113 5.1463 2.9382 19.355 2.4043 8.25-0.30996 15.994-0.98968 17.207-1.5098 2.0472-0.87745 2.1823-3.5705 1.875-37.367l-0.33203-36.42h-7.5-7.5zm-6.7656 31.875h6.2188l-0.35157 15.312-0.35156 15.312-5.2441 0.38086c-8.3753 0.60854-10.381-2.3101-10.381-15.104 0-13.523 1.5131-15.902 10.109-15.902z"/>
  <path id="path4176" d="m140.67 391.23c-1.958-2.0841-4.8764-10.445-9.6237-27.57-3.7474-13.518-6.4852-25.109-6.084-25.759 0.85545-1.3841 13.087-1.566 15.051-0.22383 0.73918 0.5051 3.1705 9.3559 5.403 19.668 4.9939 23.069 5.1524 23.628 6.3243 22.313 0.52133-0.58482 2.7886-9.7821 5.0383-20.438s4.6487-20.078 5.331-20.938c1.707-2.15 14.562-2.0856 15.392 0.0771 0.56261 1.4661-11.055 45.697-12.851 48.925-3.0476 5.4788-5.8792 6.9355-13.482 6.9355-6.494 0-8.126-0.46499-10.499-2.9913z"/>
  <path id="path4174" d="m209.38 336.92c-0.48438 0.008-0.97459 0.0243-1.4727 0.0508-15.578 0.8288-22.497 8.6663-23.396 26.506-0.74557 14.78 2.5602 22.902 11.549 28.383 3.1464 1.9186 6.1727 2.3322 16.359 2.2344 17.747-0.17026 18.667-0.53977 19.131-7.6992l0.37891-5.8516-13.289 0.27735c-12.62 0.26422-13.412 0.13045-15.693-2.6719-1.3214-1.6231-2.4024-4.0137-2.4024-5.3125 0-2.1999 1.1665-2.3613 17.043-2.3613h17.043l-0.61524-8.5976c-1.1941-16.689-9.6192-25.212-24.635-24.957zm0.0508 13.137c4.3824 0 8.6133 3.957 8.6133 8.0547 0 2.0939-1.0063 2.3633-8.8848 2.3633h-8.8848l0.8418-3.4375c1.1962-4.879 3.6988-6.9805 8.3144-6.9805z"/>
  <path id="path4170" d="m244.58 365.84 0.33613-28.498 6.2086-0.39206c4.5372-0.28652 6.5947 0.13602 7.643 1.5696 1.2889 1.7626 1.8913 1.7707 5.9388 0.0796 5.7827-2.4162 14.939-2.4096 19.626 0.0141 7.1355 3.6899 8.0841 7.501 8.0841 32.479v22.5l-7.8125 0.37215-7.8125 0.37213v-19.517c0-11.063-0.5605-20.564-1.294-21.935-0.92839-1.7348-2.6268-2.4179-6.0111-2.4179-8.5884 0-8.8672 0.69775-9.2386 23.125l-0.33129 20-7.8361 0.37276-7.8361 0.37276 0.33612-28.498z"/>
  <path id="path4168" d="m316.36 392.81c-4.4437-2.5831-5.8204-8.8532-5.8204-26.509v-16.755l-5.0706-0.81082-5.0706-0.81083 0.3831-5.2864c0.37154-5.1268 0.52462-5.2982 5.0706-5.6744 4.4158-0.36547 4.6875-0.63292 4.6875-4.6137 0-2.3242 0.42187-4.484 0.9375-4.7996 0.51562-0.31563 4.1719-0.97614 8.125-1.4678l7.1875-0.89395v5.6936c0 5.6769 0.0138 5.6947 4.6875 6.0815 4.6423 0.38422 4.6912 0.4452 5.0685 6.3255l0.38099 5.9375h-5.0685-5.0685v16.116c0 17.357 0.10959 17.634 6.9772 17.634 2.7492 0 3.0228 0.50906 3.0228 5.625v5.625l-9.0625-0.038c-4.9844-0.0209-10.1-0.64085-11.367-1.3776z"/>
  <path id="path4166" d="m352.04 391.11c-5.2089-4.383-6.4987-11.066-6.4987-33.672 0-19.333 0.0135-19.426 2.9316-20.158 1.6124-0.4047 5.128-0.55604 7.8125-0.33633l4.8808 0.39949 0.73479 20.625c0.40412 11.344 0.826 20.746 0.9375 20.894 1.5852 2.0998 5.8691 2.7734 10.208 1.6051l4.9948-1.345v-20.553c0-20.519 0.005-20.554 2.9316-21.289 1.6124-0.4047 5.128-0.55604 7.8125-0.33633l4.8808 0.39949 0.33596 28.438 0.33598 28.438h-6.9377c-4.962 0-7.1392-0.52515-7.6453-1.8441-0.62374-1.6254-1.1304-1.6254-4.2737 0-2.0657 1.0682-6.9702 1.8441-11.657 1.8441-6.7948 0-8.6829-0.4979-11.784-3.1076z"/>
  <path id="path4164" d="m406.32 392.3c-1.5238-3.9711-0.87806-52.48 0.71993-54.078 2.2335-2.2335 13.135-1.9296 14.441 0.4026 0.9499 1.6974 1.4944 1.6883 5.0478-0.0844 2.1907-1.0928 5.5364-1.8084 7.4349-1.5901 3.2559 0.37439 3.4518 0.7516 3.4518 6.6469 0 6.0304-0.13174 6.2628-3.75 6.613-2.0625 0.19966-5.2832 0.96539-7.1572 1.7016l-3.4072 1.3386-0.3428 20.173-0.3428 20.173-7.6574 0.36813c-6.1437 0.29535-7.8116-0.0337-8.4375-1.6647z"/>
  <path id="path4162" d="m526.79 320.31-4.0625 0.39258c-3.7089 0.3576-4.095 0.80059-4.4492 5.0801-0.29929 3.6162-0.92608 4.6875-2.7383 4.6875s-2.437-1.0713-2.7363-4.6875c-0.3683-4.4499-0.61042-4.6875-4.7637-4.6875h-4.375l-0.35547 12.812-0.35547 12.812h5.043c4.931 0 5.043-0.0978 5.043-4.375 0-3.5417 0.47619-4.375 2.5-4.375s2.5 0.83334 2.5 4.375c0 4.1667 0.20834 4.375 4.375 4.375h4.375v-13.205-13.205zm5 0.16015v13.125 13.125h7.5449c9.1774 0 13.166-2.2875 15.068-8.6367 3.0216-10.085-4.2218-17.613-16.947-17.613h-5.666zm9.4316 8.1055c0.49184 0.0294 1.0964 0.25657 1.8359 0.65235 2.9904 1.6004 3.9834 4.6898 2.4356 7.582-0.70923 1.3252-2.3953 2.4102-3.7461 2.4102-2.0142 0-2.457-0.86325-2.457-4.793 0-4.249 0.45612-5.9398 1.9316-5.8516zm-71.854 8.2969c-8.9678-0.14722-16.04 2.999-20.838 9.2832-3.3809 4.4283-3.6414 5.5991-4.0332 18.115-0.36216 11.569-0.0709 14.064 2.1582 18.434 2.3985 4.7015 6.953 8.948 11.385 10.613 3.2198 1.2099 25.925 0.96286 29.295-0.31836 2.8047-1.0664 3.2051-1.9442 3.2051-7.0078v-5.7871l-11.105 0.8789c-14.036 1.1109-18.828-0.86919-18.875-7.8008-0.0189-2.7734 0.20628-2.8125 16.23-2.8125h16.25l-0.0273-7.8125c-0.0549-15.616-7.8683-24.822-21.824-25.711-0.61458-0.0391-1.2225-0.0644-1.8203-0.0742zm-0.4043 12.738c0.49426-0.0156 0.97316 0.0418 1.4199 0.18359 3.9164 1.243 6.4062 4.2124 6.4062 7.6387 0 2.9061-0.34951 3.0371-8.207 3.0371-8.1461 0-8.205-0.0256-7.8125-3.3144 0.44496-3.7281 4.7335-7.436 8.1934-7.5449z"/>
 </g>
 <path id="path4152" fill="#e74b3c" d="m228.34 286.1c-31.133-5.6434-56.968-19.649-79.813-43.266-19.579-20.241-31.906-44.22-37.361-72.672-2.5501-13.302-2.5201-39.737 0.0606-53.341 2.0438-10.774 7.8551-28.508 12.116-36.974 13.12-26.096 37.45-50.848 62.82-63.943 22.46-11.595 40.59-15.907 66.87-15.907 25.628 0 43.697 4.1777 65.625 15.173 27.134 13.606 50.753 37.742 64.43 65.84 27.118 55.711 15.438 122.28-29.125 166-20.961 20.565-47.095 33.912-76.411 39.025-13.277 2.3153-36.635 2.3452-49.225 0.0631z"/>
 <path id="path4138" fill="#fff" d="m193.17 221.36c3.7961-2.5551 6.8003-8.6293 28.278-57.177 13.217-29.875 24.41-56.846 24.874-59.937 0.4849-3.2336 0.19804-8.2796-0.6757-11.886-3.1618-13.05-3.1221-15.238 0.33916-18.699 4.1855-4.1855 9.877-4.2363 13.988-0.12482 3.5945 3.5945 3.817 7.096 1.0548 16.598-3.1068 10.687-1.7151 16.284 11.378 45.761l11.748 26.448-17.744 0.625c-19.359 0.6819-22.03 1.4949-25.931 7.8923-2.9246 4.7965-3.0706 8.5214-0.54259 13.849 3.598 7.5822 6.3356 8.259 33.406 8.259h24.29l6.0833 13.298c6.5273 14.268 10.101 17.943 17.45 17.943 7.4597 0 15.625-8.1233 15.625-15.545 0-1.0363-10.697-25.989-23.771-55.45l-23.771-53.565 2.0126-5.528c6.735-18.499-2.45-40.679-20.521-49.553-6.0523-2.9722-8.6124-3.4747-17.701-3.4747-9.1121 0-11.642 0.49946-17.768 3.5077-17.776 8.7292-26.489 29.899-20.253 49.208l1.979 6.1277-23.229 52.357c-15.215 34.294-23.229 53.813-23.229 56.578 0 12.471 12.447 19.34 22.628 12.488z"/>
</svg>
