<svg xmlns="http://www.w3.org/2000/svg" height="441.71" width="600" viewBox="0 0 158.75 116.86852"><g transform="translate(-94.05-85.39)"><g fill="#231f20"><path d="m229.02 185.07c-4.63 0-7.37 2.97-7.37 7.66v2.04c0 5.63 3.79 7.49 7.32 7.49 2.53 0 4.1-.23 5.97-.7.49-.12.61-.32.61-.79v-2.21c0-.32-.23-.47-.55-.47h-.09c-1.17.12-3.76.27-5.6.27-2.3 0-2.99-1.52-2.99-3.18v-.06h9.29c.38 0 .61-.26.61-.7v-1.69c0-4.39-2.42-7.66-7.2-7.66m-.03 3.79c1.64 0 2.63 1.08 2.63 3.23v.12h-5.3v-.12c0-2.13 1.07-3.23 2.67-3.23"/><path d="m219.12 185.07c-1.4 0-2.86.5-3.94 1.4v-.58c0-.32-.26-.59-.58-.59h-3.46c-.33 0-.59.27-.59.59v15.5c0 .32.29.61.62.61h3.52c.32 0 .58-.29.58-.61v-11.4c1.08-.58 2.33-1.01 3.76-1.01h.23c.27 0 .44-.3.44-.56v-2.77c0-.32-.26-.58-.58-.58"/><path d="m206.45 185.3h-3.53c-.32 0-.58.3-.58.61v11.48c-.99.53-1.9.94-2.74.94-1.78 0-2.16-.67-2.16-2.71v-9.71c0-.31-.26-.61-.58-.61h-3.53c-.32 0-.61.3-.61.61v9.71c0 3.67.94 6.61 5.16 6.61 1.86 0 3.15-.38 4.75-1.51v.7c0 .32.26.58.58.58h3.26c.33 0 .59-.26.59-.58v-15.51c0-.31-.29-.61-.61-.61"/><path d="m189.46 198.68h-1.43c-.87 0-.96-.21-.96-1.37v-8.48h2.39c.32 0 .58-.26.58-.58v-2.36c0-.32-.26-.59-.58-.59h-2.39v-3.09c0-.29-.23-.49-.52-.49h-.09l-3.55.61c-.33.06-.59.26-.59.58v2.39h-2.33c-.32 0-.61.3-.61.61v1.93c0 .32.29.55.61.61l2.33.38v8.45c0 4.14 1.69 4.98 4.9 4.98.84 0 1.43-.09 2.3-.23.35-.06.55-.29.55-.59v-2.27c0-.32-.23-.49-.61-.49"/><path d="m171.81 185.07c-1.87 0-3.15.38-4.75 1.51v-.69c0-.32-.27-.59-.59-.59h-3.26c-.32 0-.58.27-.58.59v15.5c0 .32.29.61.61.61h3.52c.33 0 .59-.29.59-.61v-11.48c.99-.53 1.89-.93 2.74-.93 1.77 0 2.15.66 2.15 2.7v9.71c0 .32.26.61.59.61h3.52c.32 0 .61-.29.61-.61v-9.71c0-3.67-.93-6.61-5.15-6.61"/><path d="m152.37 185.07c-4.63 0-7.37 2.97-7.37 7.66v2.04c0 5.63 3.79 7.49 7.31 7.49 2.54 0 4.11-.23 5.98-.7.49-.12.61-.32.61-.79v-2.21c0-.32-.23-.47-.55-.47h-.09c-1.17.12-3.76.27-5.59.27-2.31 0-3.01-1.52-3.01-3.18v-.06h9.3c.38 0 .61-.26.61-.7v-1.69c0-4.39-2.42-7.66-7.2-7.66m-.03 3.79c1.64 0 2.63 1.08 2.63 3.23v.12h-5.31v-.12c0-2.13 1.08-3.23 2.68-3.23"/><path d="m142.59 185.3h-3.85c-.29 0-.52.27-.61.61l-2.51 11.43c-.09.43-.26.61-.46.61-.21 0-.36-.18-.44-.61l-2.51-11.43c-.08-.34-.32-.61-.61-.61h-3.85c-.26 0-.46.21-.46.5 0 .06 0 .11.03.17l3.64 13.23c.73 2.6 2.48 3.06 4.2 3.06 1.71 0 3.49-.46 4.22-3.06l3.67-13.23c.03-.06.03-.11.03-.17 0-.29-.23-.5-.49-.5"/><path d="m120.77 179.65c-.33 0-.59.26-.59.58v5.04c-.84-.11-1.8-.2-2.39-.2-4.92 0-7.31 2.88-7.31 7.46v2.27c0 4.72 2.59 7.46 7.31 7.46 2.25 0 4.55-.35 6.21-.76.78-.17.9-.37.9-.84v-20.43c0-.32-.29-.58-.61-.58h-3.52m-2.98 9.33c.7 0 1.69.05 2.39.14v9.09c-.55.09-1.43.18-2.39.18-2.07 0-2.59-1.52-2.59-3.59v-2.27c0-2.04.52-3.55 2.59-3.55"/><path d="m100.69 185.07c-1.922 0-3.962.35-5.04.61-.348.09-.555.32-.555.64v2.36c0 .38.234.53.526.53h.144c.904-.09 2.974-.21 4.845-.21 1.36 0 2.18.35 2.18 2.01v1.05h-1.57c-4.988 0-7.173 1.52-7.173 4.93v.26c0 3.79 2.448 5.01 4.984 5.01 1.749 0 2.909-.49 4.049-1.31v.46c0 .33.26.59.58.59h3.27c.32 0 .58-.26.58-.59v-10.4c0-4.25-2.62-5.94-6.82-5.94m.53 9.79h1.66v3.2c-.7.36-1.52.65-2.39.65-1.225 0-1.84-.24-1.84-1.46v-.26c0-1.43.526-2.13 2.57-2.13"/><path d="m250.87 180.47c-.23 0-.44.07-.61.2-.15.12-.27.27-.32.43l-1.2 3.34-1.21-3.34c-.07-.19-.18-.34-.34-.45-.17-.12-.37-.18-.6-.18h-7.13v2.14h1.89v5.47h2.46v-5.47h1.72l2.19 5.47h2.02l3.06-7.61h-1.93"/></g><path d="m165.28 85.39c-23.56 0-42.66 19.1-42.66 42.659 0 23.57 19.1 42.67 42.66 42.67 23.57 0 42.67-19.1 42.67-42.67 0-23.56-19.1-42.659-42.67-42.659m.001 12.03c6.61 0 11.99 5.384 11.99 11.994 0 1.64-.32 3.24-.97 4.74-.001.03-.02.06-.04.09-.09.22-.13.46-.13.7 0 .25.04.49.14.72l.06.16 13.2 29.7c1 2.26-.001 4.92-2.28 5.92-.59.26-1.21.39-1.82.39-1.72 0-3.36-1-4.1-2.67l-2.87-6.46h-13.16c-2.48 0-4.49-2.01-4.49-4.49s2.01-4.49 4.49-4.49h9.17l-6.35-14.28c0-.001-.001-.02-.001-.03l-.09-.21c-.001-.02-.02-.04-.02-.05-.56-1.34-.85-2.75-.85-4.21 0-1.5.31-2.97.9-4.34l.03-.06c.15-.36.22-.74.22-1.13 0-1.66-1.36-3.02-3.02-3.02-1.67 0-3.02 1.36-3.02 3.02 0 .42.08.82.24 1.19.001.02.001.03.02.05.58 1.36.88 2.81.88 4.29 0 1.46-.29 2.88-.85 4.22l-.03.09-.09.19-13.16 29.72c-1 2.26-3.65 3.29-5.92 2.28-2.26-1-3.29-3.65-2.29-5.92l13.23-29.87c.09-.22.13-.46.13-.71 0-.26-.05-.52-.15-.76-.001-.02-.02-.05-.03-.07-.64-1.49-.96-3.07-.96-4.7 0-6.61 5.38-11.994 12-11.994" fill="#e84c3d"/></g></svg>