<svg xmlns="http://www.w3.org/2000/svg" width="194.09" viewBox="0 0 194.09246 101.98063" xmlns:xlink="http://www.w3.org/1999/xlink"><g fill="#6b2466"><path d="m.811 56.96h12.353c0 0 3.202-19.672 19.672-24.25v23.79h51.24v-37.515h-11.896v25.621l-6.863.457-.457-26.08h-11.896l-.457 26.535-7.32-.457-.457-26.08c0 0-37.06-4.116-43.922 37.973"/><path d="m12.707.687h13.268v10.06h-13.268z"/><path d="m32.379.687h13.268v10.06h-13.268z"/><path d="m32.379 63.822h13.268v10.06h-13.268z"/><path d="m51.594 63.822h13.268v10.06h-13.268z"/><path d="m72.18 63.822h11.437v10.06h-11.437z"/><g transform="matrix(1.37251 0 0 1.37251-6.508-5.03)"><path d="m119 4.5l.333 31.33h-10c2.667-2.667 4-9.667 4-9.667-1-9-10.667-9-10.667-9h-9.666l-4 10.334c6 5.333 5.667 9 5.667 9h-10.667l-.333-18.667-8.334-.333-.333 25.667c1 7-4.667 6.666-4.667 6.666v7.667c12.334 1 13.667-13 13.667-13h44.33v-29.667c6 .667 8.667 11 8.667 11l.333 19.333 8.333-.334v-19.665c-2.333-21.667-26.666-20.667-26.666-20.667m-16.333 28c0 0-2.333-6-3.333-6.667-1-.667 7.666-2.333 3.333 6.667" id="0"/><use xlink:href="#0"/><path d="m9.186 72.77l-.614 2.038h-2.02l2.634-7.939h2.557l2.673 7.939h-2.097l-.665-2.038h-2.467m2.186-1.343l-.537-1.685c-.153-.471-.307-1.06-.435-1.531h-.026c-.128.472-.256 1.072-.396 1.531l-.511 1.685h1.905"/><path d="m15.422 66.44h1.944v8.363h-1.944v-8.363"/><path d="m23.591 72.77l-.614 2.038h-2.02l2.634-7.939h2.557l2.673 7.939h-2.097l-.665-2.038h-2.467m2.186-1.343l-.537-1.685c-.153-.471-.307-1.06-.435-1.531h-.025c-.128.472-.256 1.072-.396 1.531l-.511 1.685h1.904"/><path d="m29.827 70.941c0-.849-.025-1.402-.051-1.897h1.675l.064 1.061h.051c.32-.836 1.087-1.189 1.688-1.189.179 0 .269 0 .409.023v1.696c-.141-.035-.307-.059-.524-.059-.716 0-1.202.353-1.33.906-.025.118-.038.26-.038.4v2.922h-1.944v-3.863"/><path d="m39.761 73.4c0 .554.025 1.083.089 1.401h-1.751l-.115-.577h-.039c-.409.459-1.048.707-1.79.707-1.266 0-2.02-.849-2.02-1.768 0-1.496 1.458-2.214 3.67-2.202v-.083c0-.306-.179-.742-1.138-.742-.64 0-1.317.2-1.727.437l-.358-1.155c.435-.224 1.292-.506 2.43-.506 2.084 0 2.749 1.131 2.749 2.485v2m-1.891-1.319c-1.023-.012-1.815.212-1.815.906 0 .46.332.684.767.684.486 0 .882-.295 1.01-.66.025-.094.038-.2.038-.306v-.624"/><path d="m41.29 66.44h1.944v3.286h.025c.371-.495 1.023-.813 1.893-.813 1.496 0 2.596 1.143 2.583 2.909 0 2.073-1.432 3.11-2.864 3.11-.729 0-1.432-.248-1.88-.931h-.025l-.077.801h-1.649c.025-.377.051-1.072.051-1.72v-6.642zm1.944 5.913c0 .118.013.224.038.318.128.482.576.848 1.138.848.831 0 1.343-.589 1.343-1.625 0-.896-.435-1.603-1.343-1.603-.524 0-1.01.365-1.138.884-.025.105-.038.212-.038.329v.849"/><path d="m50.944 67.44c0 .495-.409.896-1.048.896-.614 0-1.023-.4-1.01-.896-.013-.519.396-.907 1.023-.907.626 0 1.023.389 1.035.907m-2.01 7.363v-5.761h1.944v5.761h-1.944"/><path d="m53.896 69.04l.933 2.827c.103.342.23.766.307 1.072h.039c.089-.307.191-.742.281-1.072l.767-2.827h2.084l-1.458 3.794c-.895 2.285-1.496 3.204-2.199 3.781-.678.541-1.394.73-1.88.789l-.409-1.52c.243-.035.55-.142.844-.307.294-.142.614-.424.805-.719.064-.082.103-.177.103-.259 0-.059-.013-.153-.089-.295l-2.289-5.266h2.161z"/><path d="m64.25 73.4c0 .554.025 1.083.089 1.401h-1.751l-.115-.577h-.039c-.409.459-1.048.707-1.79.707-1.266 0-2.02-.849-2.02-1.768 0-1.496 1.458-2.214 3.67-2.202v-.083c0-.306-.179-.742-1.138-.742-.64 0-1.317.2-1.727.437l-.358-1.155c.435-.224 1.292-.506 2.43-.506 2.084 0 2.749 1.131 2.749 2.485v2m-1.891-1.319c-1.023-.012-1.815.212-1.815.906 0 .46.332.684.767.684.486 0 .882-.295 1.01-.66.025-.094.038-.2.038-.306v-.624"/><path d="m69.31 75.14v-7.939h1.215l2.762 4.02c.639.931 1.138 1.768 1.547 2.58l.026-.012c-.103-1.061-.128-2.026-.128-3.263v-3.322h1.048v7.939h-1.125l-2.736-4.03c-.601-.884-1.177-1.791-1.611-2.65l-.039.012c.064 1 .09 1.955.09 3.274v3.393h-1.049"/><path d="m78.31 72.48c.025 1.401.998 1.979 2.123 1.979.806 0 1.292-.129 1.713-.294l.192.742c-.396.165-1.074.365-2.059.365-1.905 0-3.043-1.167-3.043-2.887 0-1.72 1.1-3.074 2.903-3.074 2.02 0 2.557 1.638 2.557 2.686 0 .212-.025.377-.038.483h-4.348m3.299-.743c.013-.66-.294-1.685-1.56-1.685-1.138 0-1.637.966-1.726 1.685h3.286"/><path d="m84.53 69.44l.818 2.897c.179.636.345 1.226.46 1.814h.039c.141-.577.345-1.19.55-1.814l1.01-2.897h.946l.959 2.851c.23.683.409 1.284.55 1.861h.038c.103-.577.269-1.179.473-1.85l.882-2.862h1.112l-1.995 5.701h-1.023l-.946-2.721c-.217-.637-.396-1.202-.55-1.873h-.025c-.154.683-.345 1.271-.563 1.885l-.997 2.709h-1.023l-1.867-5.701h1.152"/><path d="m93.26 74.08c.333.2.921.413 1.483.413.818 0 1.202-.377 1.202-.849 0-.495-.32-.766-1.151-1.049-1.112-.364-1.637-.93-1.637-1.613 0-.919.806-1.673 2.135-1.673.626 0 1.176.165 1.522.354l-.282.754c-.243-.142-.69-.33-1.266-.33-.665 0-1.036.354-1.036.777 0 .472.371.684 1.176.966 1.074.377 1.624.872 1.624 1.721 0 1-.844 1.72-2.314 1.72-.678 0-1.304-.165-1.739-.4l.283-.791"/><path d="m107.25 74.879c-.409.188-1.228.389-2.276.389-2.429 0-4.258-1.426-4.258-4.03 0-2.485 1.829-4.17 4.501-4.17 1.074 0 1.751.212 2.046.354l-.269.837c-.422-.189-1.023-.33-1.739-.33-2.02 0-3.363 1.189-3.363 3.274 0 1.943 1.215 3.192 3.312 3.192.677 0 1.368-.13 1.815-.33l.231.813"/><path d="m108.6 66.774h1.125v3.557h.026c.179-.294.46-.553.805-.729.333-.177.729-.295 1.151-.295.831 0 2.161.472 2.161 2.438v3.393h-1.125v-3.274c0-.919-.371-1.696-1.432-1.696-.729 0-1.304.471-1.509 1.036-.064.142-.077.295-.077.495v3.439h-1.125v-8.364"/><path d="m120.04 73.77c0 .494.026.978.103 1.366h-1.023l-.089-.719h-.039c-.345.448-1.01.849-1.893.849-1.253 0-1.892-.813-1.892-1.638 0-1.378 1.33-2.132 3.721-2.12v-.118c0-.471-.141-1.319-1.406-1.319-.576 0-1.177.165-1.611.424l-.256-.683c.512-.307 1.253-.507 2.033-.507 1.893 0 2.353 1.189 2.353 2.332v2.133m-1.088-1.542c-1.228-.024-2.621.177-2.621 1.283 0 .672.486.99 1.062.99.805 0 1.317-.472 1.496-.954.038-.106.063-.225.063-.33v-.989"/><path d="m121.85 70.979c0-.589-.013-1.072-.051-1.543h.998l.064.942h.025c.307-.542 1.023-1.072 2.046-1.072.856 0 2.187.472 2.187 2.427v3.404h-1.125v-3.286c0-.919-.371-1.685-1.432-1.685-.741 0-1.317.482-1.509 1.06-.051.13-.077.307-.077.483v3.428h-1.125v-4.158z"/><path d="m128.95 70.979c0-.589-.013-1.072-.051-1.543h.998l.064.942h.025c.307-.542 1.023-1.072 2.046-1.072.856 0 2.187.472 2.187 2.427v3.404h-1.125v-3.286c0-.919-.371-1.685-1.432-1.685-.741 0-1.317.482-1.509 1.06-.051.13-.077.307-.077.483v3.428h-1.125v-4.158z"/><path d="m136.67 72.48c.025 1.401.998 1.979 2.123 1.979.806 0 1.292-.129 1.713-.294l.192.742c-.396.165-1.074.365-2.059.365-1.905 0-3.043-1.167-3.043-2.887 0-1.72 1.1-3.074 2.903-3.074 2.02 0 2.557 1.638 2.557 2.686 0 .212-.025.377-.038.483h-4.348m3.299-.743c.013-.66-.294-1.685-1.56-1.685-1.138 0-1.637.966-1.726 1.685h3.286"/><path d="m142.44 66.774h1.125v8.363h-1.125v-8.363"/></g></g></svg>