<svg xmlns="http://www.w3.org/2000/svg" xmlns:xlink="http://www.w3.org/1999/xlink" viewBox="0 0 351 358"><g transform="translate(-44.4-662.31)"><g transform="matrix(1 0 0-1-49.875 1247.6)"><path d="m888.54-273.92h.051v-.326h-.051v.326" fill="#ad1015" transform="matrix(.60001 0 0-.59-6.02 289.47)" id="4"/><path d="m888.59-280.54h-.051v.643h.051v-.643" fill="#ad1015" transform="matrix(.60001 0 0-.59-6.02 289.47)" id="5"/><path d="m0 0v5.349l.051.042v-5.431l-.006.004-.045.036" fill="#ad1015" transform="matrix(.60001 0 0-.59 527.11 454.52)" id="6"/><path d="m888.54-274.24h.051v-.013h-.051v.013" fill="#ad1015" transform="matrix(.60001 0 0-.59-6.02 289.47)" id="7"/><path d="m0 0l.047.036.004.004v-.017l-.051-.042v.019" fill="#ad1015" transform="matrix(.60001 0 0-.59 527.11 451.36)" id="8"/><path d="m888.54-279.88h.051v-.014h-.051v.014" fill="#ad1015" transform="matrix(.60001 0 0-.59-6.02 289.47)" id="9"/><path d="m0 0l-.013.011v.015l.045-.036.006-.004v-.014l-.038.028" fill="#ad1015" transform="matrix(.60001 0 0-.59 527.11 454.54)" id="A"/><path d="m888.59-279.88h-.051v.012h.051v-.012" fill="#aa1015" transform="matrix(.60001 0 0-.59-6.02 289.47)" id="B"/><path d="m0 0v.016l.013-.011.038-.028v-.014l-.051.037" fill="#aa1015" transform="matrix(.60001 0 0-.59 527.11 454.54)" id="C"/><path d="m0 0v.017l.009.006.042.035v-.018l-.004-.004-.047-.036" fill="#aa1015" transform="matrix(.60001 0 0-.59 527.11 451.36)" id="D"/><path d="m888.54-274.26h.051v-.013h-.051v.013" fill="#aa1015" transform="matrix(.60001 0 0-.59-6.02 289.47)" id="E"/><path d="m0 0v.016l.051-.037v-.016l-.051.037" fill="#a91115" transform="matrix(.60001 0 0-.59 527.11 454.55)" id="F"/><path d="m0 0v-.018l-.042-.034-.009-.007v.017l.051.042" fill="#a91115" transform="matrix(.60001 0 0-.59 527.14 451.31)" id="G"/><path d="m888.54-274.27h.051v-.013h-.051v.013" fill="#a91115" transform="matrix(.60001 0 0-.59-6.02 289.47)" id="H"/><path d="m888.59-279.87h-.051v.014h.051v-.014" fill="#a91115" transform="matrix(.60001 0 0-.59-6.02 289.47)" id="I"/><path d="m0 0l-.047.035v.015l.051-.037v-.026h-.051v.013h.047" fill="#a81116" transform="matrix(.60001 0 0-.59 527.13 454.58)" id="J"/><path d="m0 0h-.045v.013h.051v-.025l-.051-.042v.019l.045.035" fill="#a81116" transform="matrix(.60001 0 0-.59 527.13 451.31)" id="K"/><path d="m0 0l-.009.007v.015l.047-.035h-.047v.013h.009" fill="#a61116" transform="matrix(.60001 0 0-.59 527.11 454.57)" id="L"/><path d="m0 0h-.007v.013h.045l-.045-.035v.015l.007.007" fill="#a61116" transform="matrix(.60001 0 0-.59 527.11 451.31)" id="M"/><path d="m0 0l-.007-.007v.007h.007" fill="#a51116" transform="matrix(.60001 0 0-.59 527.11 451.31)" id="N"/><path d="m0 0h-.009v.007l.009-.007" fill="#a51116" transform="matrix(.60001 0 0-.59 527.11 454.57)" id="O"/><use xlink:href="#4"/><use xlink:href="#5"/><use xlink:href="#6"/><use xlink:href="#7"/><use xlink:href="#8"/><use xlink:href="#9"/><use xlink:href="#A"/><use xlink:href="#B"/><use xlink:href="#C"/><use xlink:href="#D"/><use xlink:href="#E"/><use xlink:href="#F"/><use xlink:href="#G"/><use xlink:href="#H"/><use xlink:href="#I"/><use xlink:href="#J"/><use xlink:href="#K"/><use xlink:href="#L"/><use xlink:href="#M"/><use xlink:href="#N"/><use xlink:href="#O"/></g><path d="m352.68 350.98h.026v3.973h-.026v-3.973" fill="#ed1c24" transform="matrix(1 0 0-1-49.875 1247.6)" id="0"/><path d="m356.67 350.98h.031v.196h-.031v-.196" fill="#ad1015" transform="matrix(1 0 0-1-49.875 1247.6)" id="1"/><use xlink:href="#0"/><use xlink:href="#1"/><path d="m0 0h-.376" fill="#050606" transform="matrix(1 0 0-1 228.61 857.62)" id="2"/><use transform="translate(4.8)" xlink:href="#2"/><path d="m0 0h-.215" transform="matrix(1 0 0-1 397.53 933.48)" id="3"/><use transform="translate(2.754)" xlink:href="#3"/><path d="m0 0c0-3.657 2.908-6.622 6.492-6.622 3.586 0 6.493 2.965 6.493 6.622 0 3.658-2.907 6.622-6.493 6.622-3.584 0-6.492-2.964-6.492-6.622" transform="matrix(27.0311 0 0-27.0311 44.4 841.31)" fill="#e40020"/><g fill="#fff"><path d="m0 0c-.15-.116-.362-.145-.644-.184-.392-.054-.591-.131-.591-.431 0-.213.179-.377.45-.377.485 0 .785.251.785.619v.373m-.789-1.303c-.524 0-.799.257-.799.707 0 .441.257.62.795.697.531.078.768.097.768.412 0 .252-.187.401-.513.401-.295 0-.494-.12-.494-.207 0-.049.112-.102.112-.219 0-.125-.101-.222-.242-.222-.175 0-.285.122-.285.324 0 .349.353.615.958.615.61 0 .842-.252.842-.828v-1.094c0-.184.02-.261.15-.261.126 0 .171.077.17.242v.084c0 .136.038.187.135.187.106 0 .146-.044.146-.194v-.203c0-.276-.185-.436-.491-.436-.252 0-.396.131-.406.363-.189-.241-.474-.368-.847-.368" transform="matrix(27.0311 0 0-27.0311 119.82 845.76)"/><path d="m0 0v.038c0 .33-.014.439-.252.439h-.176c-.111 0-.149.05-.149.157 0 .092.052.151.173.151h.238.38c.145 0 .154-.054.154-.199v-2.431c0-.271.024-.334.228-.334.053 0 .092.005.126.005.135 0 .203-.048.203-.155 0-.106-.054-.138-.186-.138h-.529-.597c-.13 0-.184.032-.184.138 0 .107.067.155.203.155.049 0 .092-.005.135-.005.208 0 .233.063.233.334v1.845" transform="matrix(27.0311 0 0-27.0311 163.79 812.65)"/><path d="m0 0c.145 0 .256-.116.256-.262 0-.14-.116-.256-.256-.256-.146 0-.262.111-.262.256 0 .146.111.262.262.262m-.116-1.515c0 .377-.021.487-.248.487-.082 0-.093-.006-.183 0-.037.003-.144.055-.145.146-.005.193.063.22.164.22h.279.331c.145 0 .17-.113.17-.263v-1.554c0-.276.029-.334.227-.334.053 0 .092.005.126.005.135 0 .204-.049.204-.155 0-.107-.062-.138-.193-.138h-.528-.599c-.13 0-.177.031-.177.138 0 .106.068.155.203.155.049 0 .092-.005.136-.005.209 0 .233.063.233.334v.964z" transform="matrix(27.0311 0 0-27.0311 210.38 795.5)"/><path d="m0 0c0-.509.193-.755.658-.755.494 0 .78.339.78.939 0 .591-.305.934-.746.934-.412 0-.692-.291-.692-.813v-.305m-.204-1.046c-.125 0-.164.043-.164.16 0 .048.009.116.009.209v2.284c0 .257-.008.323-.255.323-.048 0-.094.002-.137.002-.145 0-.214-.026-.218.16 0 .096.063.145.188.145.088 0 .183 0 .305 0h.328c.129 0 .186-.063.186-.223 0-.102-.004-.238-.009-.407l-.02-.552c.165.257.403.388.751.388.639 0 1.069-.505 1.069-1.255 0-.793-.425-1.253-1.113-1.253-.281 0-.518.092-.697.266v-.043c0-.184-.029-.204-.223-.204" transform="matrix(27.0311 0 0-27.0311 253.83 851.91)"/><path d="m0 0c0 .377-.012.488-.239.488h-.17c-.036 0-.161.037-.168.146-.001.161.065.219.165.219h.279.331c.145 0 .169-.113.169-.262v-1.555c0-.275.03-.334.228-.334.053 0 .093.006.126.006.135 0 .204-.049.204-.156 0-.106-.068-.152-.199-.152h-.52-.594c-.132 0-.184.046-.184.152 0 .107.068.156.204.156.048 0 .091-.006.135-.006.208 0 .233.063.233.334v.964" transform="matrix(27.0311 0 0-27.0311 325.1 836.09)"/></g><path d="m0 0c.163 0 .287-.13.287-.292 0-.157-.129-.286-.287-.286-.163 0-.291.124-.291.286 0 .162.125.292.291.292" transform="matrix(27.0311 0 0-27.0311 328.63 788.96)"/><g fill="#fff"><path d="m150.14 978.2v-84.45h17.05v33.24h33.41v-33.24h17.05v84.45h-17.05v-36.924h-33.41v36.924z"/><path d="m235.28 893.76h31.16c7.03 0 12.385.538 16.07 1.613 4.954 1.459 9.197 4.052 12.731 7.777 3.533 3.725 6.221 8.285 8.06 13.681 1.843 5.396 2.765 12.05 2.765 19.96 0 6.951-.864 12.942-2.592 17.973-2.112 6.144-5.127 11.12-9.04 14.92-2.957 2.88-6.951 5.127-11.982 6.74-3.764 1.19-8.794 1.786-15.09 1.786h-32.09zm17.05 14.286v55.934h12.731c4.762 0 8.199-.269 10.311-.806 2.765-.691 5.06-1.863 6.884-3.514 1.824-1.651 3.312-4.368 4.464-8.151 1.152-3.783 1.728-8.938 1.728-15.467 0-6.528-.576-11.54-1.728-15.03-1.152-3.495-2.765-6.221-4.839-8.18-2.074-1.958-4.704-3.283-7.892-3.975-2.381-.538-7.05-.806-13.998-.806z"/></g></g></svg>