<svg xmlns="http://www.w3.org/2000/svg" height="240.87" width="600" viewBox="0 0 158.75 63.729054"><g transform="translate(33.881-208.55)"><path d="m41.22 208.55c-8.617 0-16.863.64-24.464 1.81-14.708 2.15-27.343 6.17-36.32 11.4-8.975 5.22-14.314 11.67-14.314 18.69 0 4.43 2.135 8.64 5.964 12.45 3.828 3.81 9.352 7.23 16.17 10.1 13.633 5.74 32.442 9.28 53.22 9.28 25.06 0 47.26-5.15 60.961-13.1.62-.36 1.22-.73 1.81-1.1h.0001l-.2-.33h-.0001c-13.532 7.39-34.98 12.17-59.12 12.17-20.511 0-39.08-3.45-52.5-9.02-6.711-2.78-12.137-6.1-15.875-9.76-3.737-3.67-5.783-7.68-5.783-11.88 0-4.02 1.885-7.88 5.343-11.42 3.457-3.55 8.484-6.78 14.727-9.53 12.19-4.72 28.859-7.63 47.24-7.63 18.71 0 35.649 3.01 47.893 7.88 6.122 2.43 11.07 5.33 14.477 8.53 3.41 3.2 5.27 6.69 5.27 10.34 0 5.93-4.93 11.46-13.339 15.94-8.41 4.47-20.277 7.88-34.03 9.59h-.004l.043.39h.005.029c14.788-1.54 27.652-5.01 36.835-9.72 9.185-4.72 14.725-10.69 14.725-17.24 0-3.88-1.95-7.57-5.45-10.9-3.49-3.33-8.533-6.31-14.753-8.82-12.439-5.01-29.599-8.11-48.552-8.11" fill="#eb690b" mix-blend-mode="normal" solid-color="#000000" white-space="normal" shape-padding="0" color="#000" image-rendering="auto" color-rendering="auto" isolation="auto" shape-rendering="auto"/><path d="m16.931 212.98l-12.725 26.27h-9.887v5.09h7.424l-4.385 9.05h5.747s1.925-3.9 4.463-9.05h23.418c2.4 5.15 4.222 9.05 4.222 9.05h5.951l-18.898-40.41zm-6.854 26.27c4.186-8.49 8.832-17.91 9.524-19.32.662 1.42 5.05 10.84 9.01 19.32zm32.814 14.13h5.077v-38.96h-5.077zm10.116-33.81h5.076v-5.15h-5.076zm0 33.81h5.076v-29.2h-5.076zm33.721-9.27c-.819 1.57-3.347 5.21-9.08 5.21-5.977 0-10.08-2.98-10.66-10.62-.503-6.56 5.42-10.51 10.66-10.51 3.874 0 7.27 2.04 9.08 5.46l.216.41h5.493l-.428-1.06c-2.842-7.02-9.337-9.53-14.468-9.53-8.62 0-15.634 6.88-15.634 15.34 0 8.54 6.868 15.23 15.634 15.23 6.435 0 11.294-3.1 14.439-9.22l.577-1.12h-5.615zm35.872-13.2c-2.04-3.55-6.53-7.38-12.98-7.44-8.36.16-15.14 7.04-15.14 15.34 0 8.39 6.812 15.23 15.182 15.23 6.44 0 12.2-4.11 14.33-10.23l.35-1.02h-5.35l-.19.51c-1 2.71-4.01 5.91-9.21 6.02-4.77 0-9.14-3.89-9.81-8.48h25.02l.04-.73c.02-.35.03-.7.03-1.05 0-3.01-.76-5.74-2.27-8.15m-22.732 5.21c1.272-5.41 5.842-7.93 9.792-7.93 3.91 0 8.48 2.52 9.83 7.93z"/><g transform="matrix(1.059 0 0 1.059-2.686-14.196)"><path d="m14.841 263.95c-1.222-.72-1.832-1.67-1.832-2.84 0-1.38.82-2.91 2.462-4.58 1.424-1.45 3.204-2.75 5.341-3.91 2.023-1.09 3.714-1.72 5.076-1.89.343-.04.686-.06 1.03-.06.967 0 1.66.2 2.08.58l.248-.25c.013-.06.057-.08.133-.06.063.02.097.06.097.14 0 .03-.084.16-.25.36.178.21.268.58.268 1.09 0 .49-.083.96-.248 1.4-.166.44-.477.91-.936 1.42-.521.64-1.144 1.16-1.869 1.56-.038.02-.146.02-.324 0-.204-.03-.305-.08-.305-.13 0-.71.361-1.64 1.087-2.78.547-.89 1.094-1.63 1.641-2.22-.23-.51-.859-.76-1.889-.76-.14 0-.29.001-.448.02-.16.001-.328.03-.506.06-2.15.4-4.483 1.54-7 3.41-2.659 2.01-4.28 3.98-4.865 5.9-.09.3-.135.61-.135.93 0 .94.402 1.71 1.203 2.29.941.67 2.251.99 3.931.95.965-.02 1.948-.14 2.947-.37.998-.22 2.01-.54 3.043-.94.954-.4 1.812-.82 2.575-1.27.764-.45 1.445-.95 2.042-1.5.077-.09.147-.13.21-.13.051 0 .076.03.076.09 0 .05-.044.12-.133.21-1.157 1.19-2.735 2.2-4.731 3.04-1.068.44-2.105.78-3.11 1-1.01.22-1.985.32-2.938.29-1.552-.02-2.876-.37-3.969-1.05m11.504-7.38c.051.04.109.04.173 0 .953-.62 1.647-1.44 2.078-2.44.077-.2.138-.4.182-.59.045-.19.066-.39.066-.59 0-.36-.063-.65-.189-.86-.242.25-.485.55-.725.88-.243.33-.478.71-.707 1.16-.445.85-.751 1.61-.915 2.27-.013.09 0 .15.037.17"/><path d="m35.704 258.7c0 .14-.442.73-1.324 1.77-.731.87-1.309 1.3-1.735 1.3-.268 0-.494-.11-.68-.32-.185-.22-.278-.48-.278-.78 0-.24.118-.57.354-1l-.182.25c-.558.72-.968 1.2-1.229 1.44-.286.27-.556.41-.812.41-.267 0-.491-.1-.673-.31-.183-.21-.273-.47-.273-.77 0-.36.136-.76.409-1.22l1.654-2.79c.205.04.368.07.483.07.114 0 .321-.03.619-.07l-2.157 3.57c-.217.37-.326.69-.326.97 0 .27.115.41.345.41.612 0 1.593-1.14 2.944-3.44l.891-1.51c.188.04.345.07.472.07.151 0 .368-.03.647-.07l-1.45 2.38c-.69 1.13-1.033 1.86-1.033 2.18 0 .26.124.39.372.39.486 0 1.276-.77 2.369-2.3l.282-.39.164-.2c.03-.06.061-.09.091-.09.037 0 .056.001.056.05"/><path d="m40.22 258.7c0 .08-.428.59-1.285 1.54-.937 1.02-1.732 1.53-2.388 1.53-.425 0-.79-.16-1.094-.49-.304-.32-.454-.71-.454-1.16 0-.51.205-1.04.619-1.59.414-.54.971-1.01 1.671-1.41.589-.34 1.069-.51 1.441-.51.45 0 .676.27.676.8 0 .42-.143.83-.426 1.25s-.564.63-.844.63c-.273 0-.41-.14-.41-.41 0-.32.279-.62.839-.89.432-.21.648-.49.648-.83 0-.27-.149-.41-.447-.41-.505 0-1.124.5-1.86 1.5s-1.103 1.85-1.103 2.52c0 .58.266.86.801.86.837 0 1.973-.95 3.406-2.84.079-.1.136-.14.174-.14.024 0 .036.02.036.05"/><path d="m43.35 258.7c-.006.02-.037.07-.091.15l-.393.54c-1.143 1.59-2.02 2.38-2.616 2.38-.286 0-.525-.1-.716-.31-.193-.2-.288-.45-.288-.76 0-.35.211-.88.633-1.6l1.431-2.42c.189.04.337.07.446.07.163 0 .394-.03.691-.07l-2.071 3.4c-.298.49-.447.87-.447 1.14s.142.41.427.41c.54 0 1.489-.96 2.848-2.89.031-.06.06-.09.091-.09.036 0 .055.001.055.05m-.116-3.76c0 .21-.089.41-.268.59-.177.18-.373.28-.584.28-.272 0-.407-.14-.407-.41 0-.2.092-.39.281-.58.187-.18.383-.27.589-.27.259 0 .389.13.389.39"/><path d="m50.664 258.7c0 .13-.441.72-1.323 1.77-.725.87-1.293 1.3-1.707 1.3-.273 0-.504-.11-.689-.32-.186-.21-.279-.47-.279-.78 0-.27.057-.53.171-.76.112-.24.408-.7.886-1.39.496-.73.744-1.19.744-1.4 0-.24-.131-.37-.393-.37-.89 0-2.26 1.65-4.113 4.93-.299-.02-.478-.03-.539-.03-.213 0-.414.001-.603.03l1.425-2.25c.81-1.28 1.216-2.08 1.216-2.41 0-.18-.077-.27-.229-.27-.311 0-.924.66-1.838 1.97-.056.07-.098.12-.128.12-.031 0-.049-.02-.055-.05.006-.03.017-.06.036-.07l.174-.23c.933-1.25 1.561-1.88 1.884-1.88.207 0 .384.1.53.28.147.19.22.42.22.68 0 .39-.228.93-.685 1.62.718-.99 1.27-1.67 1.656-2.03.385-.37.743-.55 1.071-.55.268 0 .493.11.675.33s.273.49.273.81c0 .41-.279 1.03-.839 1.87-.571.85-.857 1.4-.857 1.64 0 .25.125.37.374.37.539 0 1.472-.96 2.797-2.89.03-.06.06-.09.09-.09.036 0 .055.001.055.05"/><path d="m57.08 258.7c0 .13-.446.72-1.335 1.77-.717.87-1.284 1.3-1.697 1.3-.281 0-.509-.1-.685-.31-.177-.21-.264-.48-.264-.79 0-.33.095-.69.29-1.07-.607.85-1.073 1.43-1.394 1.72-.323.3-.637.45-.94.45-.321 0-.593-.14-.811-.41-.219-.28-.328-.63-.328-1.05 0-1.16.824-2.2 2.472-3.1.725-.4 1.308-.6 1.754-.6.376 0 .566.18.566.55 0 .1-.025.24-.074.41l.463-.89c.181.04.341.07.48.07.162 0 .374-.03.634-.07l-1.611 2.67c-.558.94-.837 1.55-.837 1.85 0 .29.118.43.356.43.243 0 .633-.28 1.169-.83.537-.56 1.081-1.25 1.636-2.06.036-.06.07-.09.1-.09.037 0 .056.001.056.05m-2.513-1.5c0-.3-.137-.45-.41-.45-.558 0-1.292.55-2.199 1.64s-1.36 1.97-1.36 2.65c0 .39.174.59.528.59.418 0 1.144-.69 2.176-2.08.843-1.14 1.265-1.93 1.265-2.35"/></g></g></svg>