<svg xmlns="http://www.w3.org/2000/svg" width="242.17" viewBox="0 0 242.167 80" enable-background="new 0 0 242.167 80"><path fill="#7d1321" d="m80 80h-30v-50h-50v-30h80z"/><path d="m84.88 5.387h1.554v-3.78h7.728v3.78h1.974v4.03h-1.974v15.54c0 .672.447 1.01 1.344 1.01h.63v4.03h-4.116c-2.184 0-3.661-.413-4.431-1.239-.771-.826-1.155-2.345-1.155-4.557v-14.784h-1.554v-4.03"/><path d="m97.48.011h7.476v7.266c.952-1.68 2.534-2.52 4.746-2.52 3.304 0 4.956 2.184 4.956 6.552v18.69h-7.476v-18.438c0-1.176-.393-1.764-1.176-1.764-.7 0-1.05.603-1.05 1.806v18.396h-7.476v-29.988"/><path d="m116.92 5.387h7.224v3.15c.98-2.156 2.548-3.416 4.704-3.78v8.946l-1.176-.084c-2.184-.168-3.276.91-3.276 3.234v13.146h-7.476v-24.612"/><path d="m147.08 22.481c0 5.433-2.787 8.148-8.358 8.148-2.716 0-4.83-.672-6.342-2.02-1.624-1.428-2.436-3.471-2.436-6.132v-9.576c0-2.631.784-4.647 2.352-6.05 1.568-1.4 3.682-2.1 6.342-2.1 2.576 0 4.626.721 6.153 2.163 1.526 1.442 2.289 3.438 2.289 5.985v5.166h-9.66v6.426c0 1.064.398 1.596 1.195 1.596.939 0 1.409-1.064 1.409-3.192 0-.615-.019-1.162-.056-1.638l-.112-1.302h7.224v2.52m-7.224-11.466c0-1.148-.435-1.722-1.302-1.722-.756 0-1.134.532-1.134 1.596v3.15h2.436v-3.02"/><path d="m165.72 22.481c0 5.433-2.787 8.148-8.358 8.148-2.716 0-4.83-.672-6.342-2.02-1.624-1.428-2.436-3.471-2.436-6.132v-9.576c0-2.631.784-4.647 2.352-6.05 1.568-1.4 3.682-2.1 6.342-2.1 2.576 0 4.626.721 6.153 2.163 1.526 1.442 2.289 3.438 2.289 5.985v5.166h-9.66v6.426c0 1.064.398 1.596 1.195 1.596.939 0 1.409-1.064 1.409-3.192 0-.615-.019-1.162-.056-1.638l-.112-1.302h7.224v2.52m-7.224-11.466c0-1.148-.435-1.722-1.302-1.722-.756 0-1.134.532-1.134 1.596v3.15h2.436v-3.02"/><path d="m179.75 29.999v-30.06h3.979v12.345h15.627v-12.345h3.979v30.06h-3.979v-14.171h-15.627v14.171h-3.979"/><path d="m209.96 29.999v-30.06h10.356c2.338 0 4.122.144 5.353.431 1.723.396 3.192 1.114 4.409 2.153 1.586 1.34 2.772 3.052 3.558 5.137s1.179 4.467 1.179 7.147c0 2.283-.267 4.307-.8 6.07s-1.217 3.223-2.051 4.378-1.747 2.064-2.738 2.728-2.188 1.166-3.589 1.507-3.01.513-4.83.513h-10.847m3.979-3.548h6.419c1.982 0 3.538-.185 4.666-.554s2.027-.889 2.697-1.559c.943-.943 1.678-2.211 2.205-3.804s.79-3.524.79-5.793c0-3.145-.516-5.561-1.548-7.25s-2.287-2.82-3.763-3.394c-1.066-.41-2.782-.615-5.147-.615h-6.316v22.969z"/></svg>