<svg xmlns="http://www.w3.org/2000/svg" width="242.17" viewBox="0 0 242.167 80" enable-background="new 0 0 242.167 80"><path fill="#7d1321" d="m80 80h-30v-50h-50v-30h80z"/><g fill="#fff"><path d="m84.88 5.387h1.554v-3.78h7.728v3.78h1.974v4.03h-1.974v15.54c0 .672.447 1.01 1.344 1.01h.63v4.03h-4.116c-2.184 0-3.661-.413-4.431-1.239-.771-.826-1.155-2.345-1.155-4.557v-14.784h-1.554v-4.03"/><path d="m103.36 5.387l1.386 17.808 1.974-17.808h6.426l1.974 17.808 1.218-17.808h6.384l-2.853 24.612h-8.348l-1.479-13.346-1.891 13.346h-8.527l-3.194-24.612h6.93"/><path d="m123.73 12.905c0-2.66.813-4.704 2.436-6.132 1.541-1.344 3.668-2.02 6.385-2.02 2.715 0 4.865.687 6.447 2.058 1.582 1.372 2.373 3.402 2.373 6.09v9.576c0 2.661-.793 4.683-2.373 6.069-1.582 1.386-3.731 2.079-6.447 2.079-2.717 0-4.846-.672-6.385-2.02-1.623-1.399-2.436-3.444-2.436-6.132v-9.576m7.477 11.05c0 1.092.447 1.638 1.344 1.638.896 0 1.344-.546 1.344-1.638v-13.02c0-1.092-.448-1.638-1.344-1.638-.896 0-1.344.546-1.344 1.638v13.02"/><path d="m155.73 29.999v-30.06h3.979v12.345h15.627v-12.345h3.979v30.06h-3.979v-14.171h-15.628v14.171h-3.978"/><path d="m185.94 29.999v-30.06h10.356c2.338 0 4.121.144 5.353.431 1.724.396 3.192 1.114 4.409 2.153 1.586 1.34 2.771 3.052 3.559 5.137.785 2.085 1.178 4.467 1.178 7.146 0 2.283-.267 4.307-.799 6.07-.533 1.763-1.218 3.223-2.052 4.378-.834 1.155-1.747 2.064-2.737 2.728-.992.664-2.188 1.166-3.59 1.507-1.4.341-3.01.513-4.83.513h-10.847m3.979-3.547h6.418c1.982 0 3.539-.185 4.666-.554 1.129-.369 2.027-.889 2.697-1.559.943-.943 1.678-2.211 2.205-3.804.527-1.593.79-3.524.79-5.793 0-3.145-.516-5.561-1.548-7.25-1.031-1.689-2.287-2.82-3.763-3.394-1.066-.41-2.782-.615-5.147-.615h-6.316v22.969h-.002"/></g></svg>