<svg xmlns="http://www.w3.org/2000/svg" height="738.64" width="600" viewBox="0 0 158.75 195.43243" xmlns:xlink="http://www.w3.org/1999/xlink"><defs><linearGradient id="4" gradientUnits="userSpaceOnUse" x2="0" y1="225.21" y2="188.75"><stop stop-color="#a7a9ac"/><stop stop-color="#c7c8ca" offset="1"/></linearGradient><linearGradient id="5" gradientUnits="userSpaceOnUse" x2="0" y1="272.72" y2="206" xlink:href="#4"/><linearGradient id="3" gradientUnits="userSpaceOnUse" x2="0" y1="273.69" y2="225.11" xlink:href="#4"/><linearGradient id="1" gradientUnits="userSpaceOnUse" x2="0" y1="188.54" y2="121.5" xlink:href="#4"/><linearGradient id="0" gradientUnits="userSpaceOnUse" x2="0" y1="220.69" y2="178.39" xlink:href="#4"/><linearGradient id="2" gradientUnits="userSpaceOnUse" x2="0" y1="209.39" y2="178.38" xlink:href="#4"/></defs><g transform="translate(169.33-121.2)"><g fill="#a7a9ac"><path d="m-29.08 306.9h4.756v-27.9h-4.756zm-12.378-4.8v4.8h7.332v-27.9h-4.852v23.1zm-15.03 0v-5.73h.628c1.892 0 2.901.19 3.753 1.23.598.76.852 1.54.852 2.78v1.72zm-7.449 0v4.8h2.596v-1.36c0 .25.127.48.375.63l.786.41c.132.09.386.16.791.25l1.07.07h18.346v-4.8h-6.46v-4.05c0-.67-.162-1.4-.502-2.18-.162-.41-.355-.7-.538-.91-.634-.76-1.992-2.18-3.59-2.72-.953-.28-2.145-.44-3.564-.44h-6.653v10.3zm-30.738 4.8v-4.8h-1.359v-7.66h-4.761v15.17c0 1.54-1.04 2.39-2.8 2.39h-2.43v4.63h2.7c1.39 0 2.59-.15 3.569-.5 1.095-.48 2.02-1.23 2.708-2.2.415-.6.73-1.24.882-1.93.132-.6.187-1.36.187-2.2v-2.9zm-21.17 0h6.13c1.3 0 1.8-.5 2.21-1.3l.06-.69v-10.4h-4.85v5.73l.07.8c0 .24-.04.43-.13.56 0 .16-.1.29-.32.38-.09.1-.38.12-.53.12h-2.64zm5.16 4.79c-1.17 0-1.93.94-1.93 2.08 0 1.1.79 2.05 2.05 2.05h.23c1.16 0 1.92-.98 1.92-1.99 0-1.04-.79-2.14-2.09-2.14zm-20.87-9.59v4.8h17.23v-4.8h-7.31v-7.66h-5.36v6.38c0 .41-.03.62-.07.72-.03.16-.12.38-.34.5-.12.04-.32.06-.57.06zm2.89 9.61c-.6 0-1.1.03-1.61.64-.34.47-.5 1.01-.5 1.61 0 1.29.94 2.38 2.33 2.38h.25c.67 0 1.2-.24 1.55-.72.34-.37.5-.88.5-1.54 0-1.26-.88-2.37-2.23-2.37zm6.27.07c-.72 0-1.26.22-1.61.63-.12.16-.22.34-.31.5-.16.35-.23.73-.23 1.11 0 .66.2 1.23.61 1.7.38.48.94.7 1.67.7h.25c.66 0 1.2-.22 1.64-.7.34-.47.5-1.01.5-1.58 0-.6-.19-1.13-.6-1.67-.41-.47-1-.69-1.73-.69zm-19.06-14.18v4.5h-9.55v-2.1c0-1.23 1.04-2.34 2.33-2.34zm11.88 4.5h-6.58v-12.38h-5.3v2.9h-7.41c-2.04 0-3.81.69-5.35 2.11-1.52 1.42-2.27 3.13-2.27 5.14v5.07c0 1.3.03 1.96.06 1.96h14.28l.69-.92.73.92h11.15zm-20.67-22.3c-1.1 0-1.92.95-1.92 2.04 0 1.04.85 2.15 2.08 2.15h.19c1.25 0 1.92-1.01 1.92-2.15 0-1-.79-2.04-2.05-2.04zm5.58 0c-1.14 0-1.96.95-1.96 2.04 0 1.14.85 2.15 2.08 2.15h.25c1.24 0 1.93-1.04 1.93-2.08 0-.54-.16-1-.51-1.42-.44-.47-.94-.69-1.54-.69z"/><path d="m-70.19 285.86h4.148v-6.92h-15c-5.842 0-12.763 5.85-12.423 12.83.273 5.56 3.138 8.92 5.557 10.33h-7.084v4.8h31.448v-4.8h-1.455v-.37h-6.531c-1.1.39-11.01 1.2-14.289-5.19-2.703-5.24-.826-10.59 3.828-12.52l11.805-.02z"/><path d="m-77.77 271.09c-1.136 0-1.957.95-1.957 2.05 0 1.14.857 2.14 2.084 2.14h.254c1.222 0 1.921-1.03 1.921-2.07 0-.54-.152-1.01-.507-1.42-.441-.47-.943-.7-1.546-.7z"/></g><path fill="url(#1)" d="m-89.85 121.49c-.598 0-1.126.38-1.324.96l-15.353 45.52c-.15.42-.08.88.19 1.25.26.36.68.58 1.13.58h13.891l20.613 18.38c.461.42 1.151.48 1.678.14.522-.34.761-1 .573-1.59l-20.08-64.26c-.182-.58-.705-.97-1.313-.98h-.001"/><path d="m-91.71 169.45l21 18.73c.467.42 1.156.47 1.678.14.528-.35.766-1 .579-1.59l-20.08-64.26c-.183-.58-.71-.97-1.313-.98-.604 0-1.141.38-1.334.96l-15.356 45.52c-.15.42-.08.88.19 1.25.26.37.68.58 1.13.58h14.426c-.339 0-.669-.13-.928-.35z" stroke="#939598" stroke-width=".593" fill="none"/><path fill="url(#0)" d="m-60.32 178.38c-.451 0-.872.22-1.13.58-.264.36-.335.83-.193 1.26l4.432 13.15-10.857 25.38c-.248.57-.081 1.24.411 1.63.487.39 1.177.41 1.689.04l54.51-39.52c.487-.35.69-.98.502-1.55-.182-.58-.725-.97-1.318-.97z"/><path d="m-57 192.88l-11.06 25.87c-.248.57-.081 1.24.411 1.63.487.39 1.177.41 1.689.04l54.51-39.52c.487-.35.69-.98.502-1.56-.182-.57-.72-.96-1.318-.96h-48.05c-.451 0-.872.22-1.13.58-.264.36-.335.83-.193 1.26l4.599 13.64c-.106-.32-.096-.67.041-.98z" stroke="#939598" stroke-width=".593" fill="none"/><path fill="url(#2)" d="m-167.64 178.38c-.61 0-1.14.39-1.33.97-.18.57.02 1.2.51 1.55l38.89 28.23c.36.26.83.33 1.26.19s.75-.47.89-.9l4.13-13.27 23.671-14.18c.542-.33.801-.97.629-1.56-.163-.61-.715-1.03-1.34-1.03z"/><path d="m-123.75 195.42l24.14-14.45c.538-.33.796-.96.624-1.57-.162-.6-.71-1.02-1.339-1.02h-67.31c-.61 0-1.14.4-1.33.96-.18.58.02 1.21.51 1.56l38.89 28.22c.36.27.83.34 1.26.2s.76-.48.89-.9l4.29-13.78c-.1.33-.32.6-.62.78z" stroke="#939598" stroke-width=".593" fill="none"/><path fill="url(#5)" d="m-117.55 206c-.59 0-1.12.38-1.31.96l-21.07 63.93c-.18.57.02 1.2.5 1.56.49.36 1.15.36 1.64.001l38.982-28.1c.36-.26.578-.68.578-1.12-.005-.46-.218-.87-.583-1.13l-11.307-8.09-6.07-26.94c-.13-.61-.66-1.05-1.29-1.08h-.07"/><path d="m-110 234.54l-6.18-27.46c-.15-.61-.67-1.05-1.3-1.08-.62-.03-1.19.36-1.39.96l-21.05 63.92c-.2.58.001 1.21.49 1.57.49.36 1.15.36 1.64 0l38.984-28.09c.36-.26.578-.68.578-1.13-.005-.44-.223-.86-.583-1.12l-11.739-8.4c.28.2.48.49.55.83z" stroke="#939598" stroke-width=".593" fill="none"/><path fill="url(#3)" d="m-57.47 225.38l-11.206 8.22-27.483-2.64c-.624-.06-1.212.3-1.43.89-.223.59-.035 1.24.472 1.61l54.18 39.96c.481.36 1.146.36 1.632 0 .492-.34.705-.97.523-1.55l-14.538-45.78c-.132-.44-.466-.77-.892-.91-.142-.05-.289-.07-.436-.07-.29 0-.579.09-.822.27"/><path d="m-68.15 233.65l-28.01-2.69c-.624-.06-1.212.3-1.435.89-.218.59-.025 1.25.477 1.62l54.18 39.95c.486.36 1.146.36 1.632 0 .492-.34.705-.97.523-1.54l-14.533-45.8c-.137-.43-.471-.76-.897-.9s-.893-.07-1.258.2l-11.637 8.53c.279-.2.619-.29.958-.26z" stroke="#939598" stroke-width=".593" fill="none"/><path fill="url(#4)" d="m-99.26 188.75l-2.376 19.52c1.55-.22 2.873-.33 4.805-.33 7.119 0 9.984 1.82 9.984 5.08 0 3.36-3.585 4.47-6.623 4.47-3.194 0-6.616-.94-8.216-1.71l-1.66 7.44c2.1 1.05 5.906 1.99 10.429 1.99 10.486 0 16.277-6.18 16.277-12.75 0-4.02-1.379-6.95-4.03-8.93-2.647-1.99-6.506-2.87-10.207-2.87-.665 0-1.273 0-2.044.11l.502-3.86h14.01v-8.16z"/><path d="m-78.41 196.91h-14.02l-.497 3.86c.775-.11 1.384-.11 2.043-.11 3.697 0 7.56.88 10.207 2.87 2.647 1.98 4.03 4.91 4.03 8.94 0 6.56-5.79 12.74-16.276 12.74-4.518 0-8.329-.94-10.429-1.98l1.66-7.45c1.6.77 5.02 1.71 8.221 1.71 3.03 0 6.617-1.11 6.617-4.47 0-3.26-2.865-5.08-9.984-5.08-1.927 0-3.254.11-4.804.33l2.375-19.52h20.856z" stroke="#939598" stroke-width=".593" fill="none"/></g></svg>