<svg xmlns="http://www.w3.org/2000/svg" viewBox="0 0 1000 1051"><path d="m225.59 856.55l-10.439 75.63c-9.931 71.1-36.18 109.57-89.55 122.15l-127.74 28.752c-5.202.997-13.575 3.296-22.709 3.296-29.61 0-49.08-20.233-49.08-63.27 0-15.991 5.067-46.528 5.86-53.842l110.8-796.45c2.896-21.912 10.841-44.558 27.03-61.42 17.11-17.414 34.779-24.17 72.05-33.26l167.39-37.543c0 0 21.19-4.212 39.19-4.212 44.08 0 95.61 14.74 139.91 82.04l418.46 648.3c9.44 13.09 18.313 30.17 18.313 48.531 0 33.761-29.1 68.822-74.902 79.48l-135.89 30.4c0 0-17.577 5.128-38.825 5.128-56.664 0-97.41-34.501-119.59-68.13l-52.743-82.04-263.35 58.969 20.877-152.18c4.562-33.952 16.07-66.66 35.525-87.38 19.457-20.728 40.38-28.993 68.68-33.12l-171.96-267.01-73.07 524.13c-4.605 31.19-1.26 50.18 23.258 50.18 12.878 0 34.25-5.86 34.25-5.86z" fill="#ef4143" transform="translate(74.43-35.877)"/></svg>