<svg xmlns="http://www.w3.org/2000/svg" viewBox="0 0 785.17 420.18"><g fill="#a2338a"><path d="m450.57 129.82c-17.456-43.835-60.44-42.15-60.44-42.15-35.38 0-64.07 28.683-64.07 64.06 0 35.38 28.684 64.07 64.07 64.07 0 0 42.989 1.682 60.44-42.15l-29.503-13.486c-7.575 24.524-30.942 23.604-30.942 23.604-17.691 0-32.03-14.343-32.03-32.03 0-17.69 14.34-32.03 32.03-32.03 0 0 23.367-.924 30.942 23.603l29.503-13.486"/><path d="m374.1 0h32.03v72.5c0 0-16.02-3.826-32.03 0v-72.5"/><path d="m406.14 303.46h-32.03v-72.49c0 0 16.02 3.826 32.03 0v72.5"/><path d="m238.39 167.75v-32.03h72.5c0 0-3.826 16.01 0 32.03h-72.5"/><path d="m541.86 135.72v32.03h-72.5c0 0 3.826-16.02 0-32.03h72.5"/><path d="m486.09 33.12l22.649 22.649-51.26 51.26c0 0-8.618-14.03-22.648-22.651l51.26-51.26"/><path d="m294.15 270.35l-22.65-22.649 51.26-51.26c0 0 8.617 14.03 22.65 22.65l-51.26 51.26"/><path d="m271.5 55.766l22.65-22.649 51.26 51.26c0 0-14.03 8.621-22.65 22.651l-51.26-51.26"/><path d="m508.74 247.7l-22.649 22.649-51.26-51.26c0 0 14.03-8.623 22.648-22.65l51.26 51.26"/></g><path d="m14.903 393.79l9.861-31.13 10.04 31.13h-19.905m-15.07 25.02h7.214l5.842-18.9h23.922l6.118 18.9h7.671l-20.727-63.36h-9.04l-21 63.36" fill-rule="evenodd"/><path d="m55.42 418.81h6.847v-25.93c0-9.771 6.03-16.433 13.515-16.433 6.116 0 9.678 4.29 9.678 12.05v30.31h6.755v-29.672c0-12.236-5.294-18.535-15.248-18.535-6.482 0-11.322 3.194-15.16 9.951v-8.675h-6.392v46.931"/><g fill-rule="evenodd"><path d="m130.67 391.42v7.212c0 9.222-5.572 15.06-12.236 15.06-7.397 0-12.234-6.664-12.234-18.354 0-11.867 5.02-18.533 12.143-18.533 7.396 0 12.327 5.476 12.327 14.61m6.755-35.975h-6.755v23.74c-3.198-5.481-7.946-8.4-13.607-8.4-10.407 0-18.534 9.583-18.534 24.833 0 14.883 7.944 24.286 18.08 24.286 6.207 0 11.32-3.559 14.515-10.408v9.313h6.301v-63.36"/><path d="m177.33 395.07v2.464c0 9.13-6.574 16.524-14.792 16.524-6.117 0-9.77-3.377-9.77-8.491 0-6.938 6.483-10.681 19.08-10.681 1.737 0 3.563 0 5.48.184m1.095 23.737h7.03c-1-2.922-1.277-6.02-1.277-9.588v-20.08c0-12.69-5.113-18.535-17.349-18.535-11.595 0-18.443 4.382-20.36 12.782l6.663 1c1.281-5.57 5.389-8.125 12.511-8.125 7.943 0 11.687 3.468 11.687 10.497v2.922c-1.369-.092-2.741-.092-4.02-.092-18.718 0-28.21 5.481-28.21 16.07 0 8.216 6.481 14.243 16.07 14.243 7.122 0 12.963-3.65 16.16-9.949 0 3.192.365 6.207 1.095 8.854"/></g><path d="m201.41 418.81v-63.36h-6.94v63.36z"/><path d="m248.94 371.88h-6.756v25.934c0 9.768-6.117 16.434-13.604 16.434-6.119 0-9.678-4.203-9.678-12.05v-30.32h-6.754v29.677c0 12.231 5.294 18.534 15.247 18.534 6.482 0 11.322-3.198 15.16-9.955v8.675h6.39v-46.932"/><path d="m287.76 388.32l6.575-1c-1.552-10.685-7.942-16.709-16.89-16.709-12.419 0-21 9.68-21 24.741 0 15.25 8.127 24.746 19.906 24.746 9.494 0 16.16-5.844 17.986-16.346l-6.3-1.185c-1.46 7.396-5.751 11.502-11.413 11.502-7.395 0-12.597-6.937-12.597-18.718 0-11.959 5.477-18.896 12.78-18.896 5.477 0 10.04 4.382 10.954 11.87"/><g fill-rule="evenodd"><path d="m299.33 365.67h4.749l12.507-15.52h-7.943l-9.313 15.52m2.648 53.14h6.94v-46.931h-6.94v46.931"/><path d="m349.05 395.07v2.464c0 9.13-6.573 16.524-14.792 16.524-6.116 0-9.77-3.377-9.77-8.491 0-6.938 6.484-10.681 19.08-10.681 1.735 0 3.56 0 5.477.184m1.098 23.737h7.03c-1-2.922-1.277-6.02-1.277-9.588v-20.08c0-12.69-5.113-18.535-17.348-18.535-11.596 0-18.443 4.382-20.361 12.782l6.666 1c1.277-5.57 5.386-8.125 12.509-8.125 7.944 0 11.686 3.468 11.686 10.497v2.922c-1.369-.092-2.738-.092-4.02-.092-18.718 0-28.21 5.481-28.21 16.07 0 8.216 6.482 14.243 16.07 14.243 7.122 0 12.965-3.65 16.16-9.949 0 3.192.366 6.207 1.098 8.854"/></g><g fill="#a2338a"><path d="m404.45 370.24v-14.79h-44.46v14.79h12.51v48.57h19.45v-48.57z"/><path d="m424.71 389.59v-.729c0-4.564 2.557-7.304 6.575-7.304 4.197 0 6.661 2.739 6.661 7.762v.271h-13.236m31.866 13.79l-17.534-1.097c-.729 3.744-3.191 5.753-7.03 5.753-4.841 0-7.487-3.01-7.487-8.492v-.55h32.14c.092-1.184.183-2.28.183-3.285 0-14.429-10.226-25.02-26.02-25.02-7.304 0-13.239 2.189-17.714 6.392-5.114 4.84-7.944 11.139-7.944 18.442 0 7.579 3.473 14.791 9.403 19.446 4.479 3.468 10.139 5.207 17.08 5.207 12.78 0 21.731-6.211 24.928-16.799" fill-rule="evenodd"/><path d="m480.2 418.81v-63.36h-18.63v63.36z"/><path d="m504.29 389.59v-.729c0-4.564 2.556-7.304 6.573-7.304 4.203 0 6.666 2.739 6.666 7.762v.271h-13.239m31.866 13.79l-17.529-1.097c-.734 3.744-3.198 5.753-7.03 5.753-4.84 0-7.486-3.01-7.486-8.492v-.55h32.14c.092-1.184.184-2.28.184-3.285 0-14.429-10.226-25.02-26.02-25.02-7.308 0-13.239 2.189-17.716 6.392-5.111 4.84-7.942 11.139-7.942 18.442 0 7.579 3.47 14.791 9.405 19.446 4.473 3.468 10.134 5.207 17.07 5.207 12.78 0 21.725-6.211 24.923-16.799" fill-rule="evenodd"/><path d="m567.26 418.81l16.98-46.93h-13.78l-8.13 26.39-8.03-26.39h-18.72l17.9 46.93z"/><path d="m586.21 368.13h18.627v-12.688h-18.627v12.688m0 50.675h18.627v-46.931h-18.627v46.931" fill-rule="evenodd"/><path d="m608.2 405.12c2.557 9.404 10.96 14.606 24.288 14.606 14.698 0 23.649-7.212 23.649-16.8 0-3.927-1.464-7.304-4.294-9.858-3.469-3.106-7.575-3.744-12.598-4.657-8.676-1.555-12.965-1.188-12.965-4.109 0-1.918 1.733-2.924 5.202-2.924 4.294 0 7.03 1.189 8.676 4.111l14.06-2.468c-3.106-8.125-10.685-12.598-21.823-12.598-13.878 0-21.911 6.94-21.911 16.25 0 4.02 1.918 7.854 5.203 10.413 4.109 3.193 8.675 3.922 13.878 4.835 6.481 1.189 10.225.642 10.225 3.473 0 1.826-2.28 3.193-6.574 3.193-6.02 0-9.399-1.826-10.226-5.294l-14.791 1.827"/><g fill-rule="evenodd"><path d="m660.85 368.13h18.627v-12.688h-18.627v12.688m0 50.675h18.627v-46.931h-18.627v46.931"/><path d="m701.65 365.67h6.845l14.52-16.524h-12.78l-8.585 16.524m7.763 54.42c15.245 0 25.379-9.955 25.379-24.746 0-14.881-10.134-24.741-25.379-24.741-15.16 0-25.384 9.86-25.384 24.741 0 14.791 10.226 24.746 25.384 24.746m0-11.781c-4.478 0-6.304-4.197-6.304-12.965 0-8.763 1.826-12.964 6.304-12.964 4.381 0 6.299 4.201 6.299 12.964 0 8.767-1.918 12.965-6.299 12.965"/><path d="m739.8 418.81h17.896v-28.852c0-4.381 1.918-6.666 5.02-6.666 3.01 0 4.29 2.193 4.29 6.574v28.943h17.987v-30.86c0-11.869-4.289-17.347-15.16-17.347-6.207 0-10.864 2.739-13.419 7.942v-6.666h-16.621v46.932"/></g></g></svg>