<svg xmlns="http://www.w3.org/2000/svg" viewBox="0 0 600 202.15"><g transform="translate(86.952 408.56)" fill="#005dac"><path d="m487.99-279.9c0 6.951 5.661 12.57 12.528 12.57 6.992 0 12.528-5.619 12.528-12.57 0-6.826-5.536-12.486-12.528-12.486-6.868 0-12.528 5.661-12.528 12.486m2.539 0c0-5.536 4.537-9.989 9.989-9.989 5.577 0 9.989 4.454 9.989 9.989s-4.412 9.947-9.989 9.947c-5.452 0-9.989-4.412-9.989-9.947"/><path d="m497.91-284.37h3.912c.708 0 1.373.166 1.582.416.333.291.499.624.499 1.124 0 .333 0 .583-.208.874-.166.291-.458.416-.708.541-.333.166-.957.208-1.498.208h-3.579v-3.163m7.742 4.079c.624-.832.916-1.582.916-2.539 0-.832-.083-1.415-.499-2.081-.416-.624-.791-1.082-1.498-1.457-.666-.25-1.498-.291-2.747-.291h-6.659v13.277h2.747v-5.494h2.081l3.413 5.494h3.163l-3.579-5.494c1.082-.083 2.123-.749 2.664-1.415"/><path d="m410.07-279.58c-5.702-6.077-27.553-28.885-28.09-29.717-.624-.832-1.207-1.665 0-3.704 1.041-1.873 32.797-41.704 39.498-50.24 12.694 9.656 20.19 20.977 20.727 34.09.416 17.231-11.404 34.21-32.13 49.571m-99.43-13.236h-20.02c-1.54 0-1.332-1.54-.333-3.246l9.739-17.11c.832-1.498 2.664-1.457 3.33 0l7.783 17.06c.708 1.707 1.249 3.288-.499 3.288m-273.58-2.955l9.739-17.15c.791-1.54 2.581-1.457 3.246 0l7.908 16.981c.666 1.748 1.249 3.33-.541 3.33h-19.937c-1.706 0-1.457-1.582-.416-3.163m-30.8 50.36l21.518-34.712h36.96c1.415 8.116 8.366 13.735 19.687 13.735 11.404 0 13.818-10.489 13.818-13.194v-26.22c0-5.869 2.497-2.123 4.329.291 1.915 2.414 20.1 24.64 26.554 32.13 6.493 7.575 13.652 6.493 13.652 6.493 8.158 0 10.447-7.2 10.447-11.03v-56.73c0-7.117-7.159-7.117-7.159-7.117-5.327 0-6.701 5.952-6.701 7.825v32.714c0 4.911-1.332 4.911-2.997 3.246-1.582-1.623-16.274-19.687-21.02-26.429-4.911-6.826-11.945-17.06-21.1-17.06-9.198 0-9.823 8.408-9.823 10.822v36.751c0 5.952-2.081 2.456-2.872.541-.749-1.915-13.527-30.01-17.356-37.29-3.746-7.284-5.203-10.239-11.904-10.239-6.659 0-8.03 3.163-11.154 7.533-2.581 3.912-40.497 67.3-48.03 79.954-12.445-8.865-20.19-19.19-22.1-30.924-8.366-52.19 93.27-102.1 222.05-114.04 81.952-7.617 168.11 1.707 214.56 26.305-6.285 8.07-34.712 44.784-35.961 46.03-1.29 1.373-2.539 2.789-4.495.832-1.915-2.081-12.986-13.985-14.193-15.07-1.373-1.041-2.123-1.998-4.412-1.998h-14.734c-2.206 0-4.828.499-4.828 4.911 0 0-.499 1.915 3.163 5.327 3.579 3.371 20.436 22.14 21.393 23.558 1.124 1.332 2.081 3.621.333 5.661-1.623 2.206-10.53 13.11-11.945 14.401-1.373 1.249-2.789 2.872-4.12-.291-1.54-3.205-21.393-45.742-22.517-47.573-.957-1.831-2.081-5.993-8.74-5.993-6.868 0-7.95 1.082-10.489 4.786-2.331 3.746-20.811 35.38-22.23 37.709-1.54 2.331-2.414 2.705-2.414.083v-31.632c0-2.414-1.041-10.946-10.946-10.946 0 0-5.993-.832-9.781 5.619-4.745 7.367-15.15 21.768-15.983 22.892-.957 1.082-2.539 4.04-4.453 1.124-1.873-2.83-19.479-24.39-21.19-26.346-3.579-3.912-9.07-3.038-9.07-3.038s-10.197-.499-10.197 11.904v56.06c0 3.496 1.623 7.325 7.242 7.325 5.577 0 7.492-3.538 7.492-9.07v-33.13c0-.957 0-2.705 1.374-.708 1.332 2.123 14.07 17.273 15.483 19.02 1.415 1.748 3.038 2.872 5.869 2.872 2.83 0 4.62.208 7.825-3.788 3.288-4.079 10.53-13.735 11.529-15.11 1.041-1.457 2.747-2.789 2.747-.832v30.13c0 5.203 3.704 10.239 12.528 10.239 8.74 0 8.574-.791 11.487-3.871 2.997-2.997 6.826-8.532 7.492-9.323.708-.749.416-1.498 3.371-1.498 2.747 0 29.593-.208 31.05-.208 1.373 0 2.414-.042 2.997 1.665.499 1.623 1.707 13.236 17.647 13.236 0 0 7.908.957 13.277-4.412 5.04-5.203 15.07-17.772 16.02-19.1 1.082-1.207 2.248-2.664 3.579-1.041 1.041 1.373 17.06 17.606 23.308 23.682-41.663 24.01-104.8 42.29-172.48 47.781-88.49 7.159-169.11-2.497-213.39-25.22m191.38-161.15c-160.99 10.905-287.98 64.887-284.52 120.62 2.913 49.904 134.89 88.65 295.84 77.71 160.82-10.988 288.14-67.51 286.73-117.5-1.332-55.731-137.27-91.77-298.05-80.83"/><path d="m170.88-341.4c-5.452 0-9.989 5.286-9.989 11.654v51.36c0 6.41 4.537 11.612 9.989 11.612 5.619 0 10.156-5.203 10.156-11.612v-51.36c0-6.368-4.537-11.654-10.156-11.654"/></g></svg>