<svg xmlns="http://www.w3.org/2000/svg" viewBox="0 0 526.56 258.02"><g fill="#2c7c41"><path d="m201.86 258.02h50.627v-21.704h-23.626v-78.75h-27v100.45"/><path d="m330.02 258.02h23.981v-47.15l26.507 47.15h22.14v-100.37h-23.858v48.08l-25.541-48.08h-23.23v100.37"/><path d="m408.39 258.02h53.739v-21.02h-26.848v-20.847h25.556v-19.08h-25.556v-19.295h26.17v-20.13h-53.06v100.37"/><path d="m484.03 258.02h26.854v-80.24h15.675v-20.13h-60.29v20.13h17.765v80.24"/></g><path d="m526.56 150.48v-29.54h-26.05v-120.94h-33.91v150.48h59.962" fill="#37a73e"/><g fill="#2c7c41"><path d="m274.29 157.57l-18.391 100.44h25.633l1.723-13.843h13.65l1.784 13.843h27.27l-18.476-100.44h-33.19m11.389 67.2l4.285-34.405 4.439 34.405h-8.724"/><path d="m171.43 198.82c0 2.889-1.744 4.02-4.616 4.02h-4.316v-24.869h4.316c2.871 0 4.616 1.136 4.616 4.02v16.824m-35.786 59.2h26.855v-34.838h9.06c12.863 0 24.985-8.04 24.985-20.847v-23.856c0-12.679-12.12-20.831-24.985-20.831h-35.911v100.37"/></g><g fill="#37a73e"><path d="m219.04 150.5l-.015-150.5h-40.41l.007 150.5h40.42"/><path d="m54.827 171.97l9.665-84.82 6.456 84.83-16.12-.007m-54.827 86.05h45.795l4.824-40.24h23.23l3.221 40.24h53.53l-34.836-258.02h-61.61l-34.16 258.02"/><path d="m136.37 150.5l-.009-82.29 18.08 82.29h14.677v-150.5h-14.5v83.46l-15.06-83.46h-17.896l.015 150.5h14.686"/><path d="m431.21 123.2h11.234l1.668 27.301h17.719l-14.191-150.5h-20.1l-14.353 150.5h15.975l2.046-27.301m6.03-82.82l3.9 63.783h-8.424l4.524-63.783"/></g><path d="m326.07 76.27l82.31-14.795v-61.47h-180.42v36.397l115.03.009-115.04 22.561.009 26.329 114.79 25.08h-114.79v40.13h180.42v-58.44z" fill="#80cb28"/></svg>