<svg xmlns="http://www.w3.org/2000/svg" xmlns:xlink="http://www.w3.org/1999/xlink" viewBox="0 0 600 161.44"><defs><linearGradient id="3" x1="0" x2="1"><stop stop-color="#e99a07"/><stop stop-color="#ffd89c" offset=".5"/><stop stop-color="#e99a07" offset="1"/></linearGradient><linearGradient id="4" xlink:href="#3" gradientUnits="userSpaceOnUse" x2="997.38" x1="398.96"/><linearGradient id="2" gradientUnits="userSpaceOnUse" x2="899.46" x1="399.58" xlink:href="#3"/><linearGradient id="0" y2="-505.03" gradientUnits="userSpaceOnUse" y1="-506.55" x2="895" x1="718.51" xlink:href="#3"/><linearGradient id="1" y2="-500.13" gradientUnits="userSpaceOnUse" y1="-501.56" x2="938.94" x1="758.13" xlink:href="#3"/></defs><g transform="translate(-398.96 578.53)"><path d="m998.96-538.92l-.575.474c-76.83 70.1-219.53 117.29-383.04 117.29-19.15 0-38.16-.71-56.77-1.962 20.637 2.774 41.782 4.635 63.5 5.481 9.304.338 19.01.541 28.689.541 9.642 0 19.318-.203 28.994-.541 142.87-5.785 263.89-53.725 318.63-120.61l.575-.677z"/><path d="m772.49-572.92c18.574 0 37.01.609 55.04 1.827-9.879-1.319-19.825-2.402-29.907-3.282-19.453-1.658-39.28-2.571-59.48-2.571-20.333 0-40.16.846-59.64 2.571-125.08 10.894-229.14 55.42-277.96 115.57 74.33-68.24 213.04-114.11 371.95-114.11"/><g fill="url(#4)"><path d="m997.38-540.51l-.575.474c-76.83 70.1-219.53 117.29-383.04 117.29-19.15 0-38.16-.71-56.77-1.962 20.637 2.774 41.782 4.635 63.5 5.481 9.304.338 19.01.541 28.689.541 9.642 0 19.318-.203 28.994-.541 142.87-5.785 263.89-53.725 318.63-120.61l.575-.677z"/><path d="m770.91-574.51c18.574 0 37.01.609 55.04 1.827-9.879-1.319-19.825-2.402-29.907-3.282-19.453-1.658-39.28-2.571-59.48-2.571-20.333 0-40.16.846-59.64 2.571-125.08 10.894-229.14 55.42-277.96 115.57 74.33-68.24 213.04-114.11 371.95-114.11"/></g><path d="m631.57-472.76l6.189-49.711h-17.663l-2.826 25.633c-3.391-8.987-7.348-17.55-12.07-25.633h-17.861l-6.387 49.711h17.861l2.657-25.887 12.407 25.887h17.691"/><path d="m655.65-472.76l6.02-49.711h-18.06l-6.415 49.711h18.454"/><path d="m746.93-486.3h-15.261l.763-5.483h13.396l1.498-12.322h-13.396l.763-5.539h14.696l1.667-12.83h-32.528l-6.217 49.711h32.726l1.894-13.537"/><path d="m710.99-472.76l-14.498-25.859 18.257-23.852h-20.489l-6.217 9.637-5.115-9.637h-19.557l13.198 22.976-19.952 26.735h20.489l8.28-12.322 6.952 12.322h18.652"/><path d="m548.77-522.47l-22.946 49.703h19.16l2.663-6.604h12.191l.6 6.604h17.673l-6.97-49.703h-22.371m9.03 14.462l1.305 17.385h-7.153c.367-1.498 1.524-5.151 3.785-10.859.933-2.543 1.497-4.717 2.062-6.526"/><g fill="url(#2)"><path d="m630.25-474.08l6.189-49.711h-17.663l-2.826 25.633c-3.391-8.987-7.348-17.55-12.07-25.633h-17.861l-6.387 49.711h17.861l2.657-25.887 12.407 25.887h17.691"/><path d="m654.33-474.08l6.02-49.711h-18.06l-6.415 49.711h18.454"/><path d="m745.61-487.62h-15.261l.763-5.483h13.396l1.498-12.322h-13.396l.763-5.539h14.696l1.667-12.83h-32.528l-6.217 49.711h32.726l1.894-13.537"/><path d="m709.66-474.08l-14.498-25.859 18.257-23.852h-20.489l-6.217 9.637-5.115-9.637h-19.557l13.198 22.976-19.952 26.735h20.489l8.28-12.322 6.952 12.322h18.652"/><path d="m547.44-523.8l-22.946 49.729h19.16l2.663-6.63h12.217l.574 6.63h17.673l-6.944-49.729h-22.397m9.06 14.462l1.305 17.385h-7.153c.367-1.498 1.524-5.125 3.785-10.833.933-2.543 1.497-4.743 2.062-6.552"/></g><path d="m830.11-522.42l-6.481 49.655h23.15c7.962 0 14.443-2.302 19.628-6.907 5.185-4.761 7.777-11.04 7.777-18.993 0-8.162-2.592-14.337-7.777-18.366-4.444-3.558-11.11-5.389-19.443-5.389h-16.851m15.926 14.651h1.667c2.592 0 4.629.942 6.296 2.721 1.481 1.831 2.407 4.03 2.407 6.593 0 3.61-1.296 6.488-3.889 8.529-2.407 1.779-5.37 2.721-9.07 2.721l2.592-20.563"/><path d="m806.77-522.42l-2.037 17h-10.925l2.037-17h-18.332l-6.111 49.655h18.332l2.037-17.947h11.11l-2.222 17.947h18.332l6.111-49.655h-18.332"/><path fill="url(#1)" d="m828.73-523.8l-6.481 49.655h23.15c7.962 0 14.443-2.302 19.628-6.907 5.185-4.761 7.777-11.04 7.777-18.993 0-8.162-2.592-14.337-7.777-18.366-4.444-3.558-11.11-5.389-19.443-5.389h-16.851m15.926 14.651h1.667c2.592 0 4.629.942 6.296 2.721 1.481 1.831 2.407 4.03 2.407 6.593 0 3.61-1.296 6.488-3.889 8.529-2.407 1.779-5.37 2.721-9.07 2.721l2.592-20.563"/><path fill="url(#0)" d="m805.4-523.8l-2.037 17h-10.925l2.037-17h-18.332l-6.111 49.655h18.332l2.037-17.947h11.11l-2.222 17.947h18.332l6.111-49.655h-18.332"/></g></svg>