<svg xmlns="http://www.w3.org/2000/svg" height="816.52" viewBox="0 0 1758.176 816.52173" width="1758.2"><g transform="translate(-1.336.35)"><path fill="#9ca0a1" d="m318.33 719.44c-79.64-53.16-145.25-97.14-145.81-97.74-1.297-1.388 1.485-24.831 4.943-41.651 5.815-28.29 17.957-59.64 33.569-86.68 3.073-5.323 15.341-23.656 16.476-24.624.403-.344 2.105-2.594 3.78-5 8.669-12.448 26.811-31.611 42.44-44.827 3.77-3.189 7.989-6.824 9.375-8.08 5.699-5.156 34.694-23.53 47.48-30.09 41.739-21.406 85.71-31.97 133.17-31.997 62.896-.036 121.4 19.11 173.12 56.651 19.319 14.02 43.576 37.3 55.625 53.37 1.719 2.292 4.281 5.615 5.694 7.383 11.632 14.558 28.07 43.16 35.622 61.965 6.36 15.846 13.537 38.915 16.333 52.5 2.838 13.787 6.126 39.456 5.246 40.952-.308.524-3.77 3.084-7.694 5.691s-8.808 5.918-10.855 7.359c-2.047 1.441-12.158 8.19-22.471 14.997-10.312 6.807-27.19 18.02-37.5 24.921-10.312 6.899-26.906 17.945-36.875 24.545-9.969 6.6-20.09 13.381-22.5 15.07-9.372 6.572-153.48 102.09-153.92 102.02-.252-.043-65.62-43.574-145.26-96.74zm659.17-111.16c0-.259 18.562-105.75 41.25-234.43 22.6-128.69 41.2-234.22 41.2-234.53 0-.311 32.625-.566 72.5-.566 68.24 0 72.5.129 72.44 2.188-.032 1.203-6.4 38.1-14.15 82-9.195 52.08-13.626 79.991-12.754 80.32.736.281 36.21.365 78.84.187l77.5-.324 14.419-81.87 14.419-81.87 114.33-.364c115.65-.368 134.78.147 158.96 4.282 33.8 5.781 58.5 17.877 79.896 39.13 20.97 20.828 34.32 47.75 40.641 81.951 3.261 17.65 3.304 72.22.074 93.12-7.63 49.37-19.601 91.39-34.451 120.93-7.148 14.217-23.23 37.722-35 51.15-25.806 29.439-64.68 55.45-96.65 64.67-12.498 3.604-34.539 8.356-53.51 11.537-11.761 1.971-25.803 2.247-135.09 2.647l-121.96.447 16.636-94.12c9.15-51.769 16.643-94.55 16.651-95.06.013-.516-35.38-.938-78.65-.938h-78.66l-1.31 6.563c-.72 3.609-8.07 45.09-16.333 92.19-8.263 47.09-15.318 86.89-15.678 88.44l-.654 2.813h-72.48c-39.862 0-72.48-.212-72.48-.471zm540-108.85c20.654-3.17 29.06-6.394 41.987-16.12 25.384-19.08 41.12-57.28 51.32-124.56 2.963-19.541 2.997-52.43.068-64.14-3.141-12.566-7.926-21.296-15.772-28.777-15.825-15.09-38.533-20.799-82.82-20.82l-20.838-.0001-.718 3.438c-1.468 7.03-44.48 251.76-44.48 253.08 0 1.927 55.721.289 71.25-2.094m-1409 74.84c-20.896-18.85-44.03-45.49-58.1-66.92-11.686-17.79-10.852-16.38-18.56-31.41-15.08-29.4-24.646-59.58-28.825-90.94-2.324-17.43-2.274-52.49.099-70.59 2.168-16.54 8.58-42.59 14.316-58.16 3.517-9.548 18.884-41.888 22.844-48.08 13.892-21.709 20.976-31.962 26.443-38.27 2.131-2.459 6.125-7.224 8.875-10.588 15.12-18.503 52.42-51.729 75-66.809 5.5-3.674 10.281-7.03 10.625-7.463 1.592-1.995 32.521-19.457 49.41-27.894 58.37-29.17 122.37-47.04 195.6-54.63 13.406-1.389 28.11-2.526 32.683-2.527 7.994-.002 8.459.17 12.308 4.553 4.956 5.645 4.61 8.309-2.606 20.09-2.857 4.664-6.169 10.168-7.359 12.231-1.19 2.063-7.38 12.469-13.756 23.12-6.376 10.656-12.69 21.301-14.03 23.656-2.099 3.683-5.454 9.207-11.869 19.542-1.724 2.777-8.946 14.947-11.08 18.677-2.073 3.617-41.24 68.845-45.79 76.25-2.11 3.438-4.951 8.219-6.313 10.625s-3.535 5.868-4.829 7.693-2.354 3.692-2.354 4.15-1.688 3.285-3.75 6.282-3.75 5.741-3.75 6.097c0 .356-3.724 6.723-8.277 14.15-4.552 7.427-9.193 15.11-10.312 17.07-1.12 1.96-4.344 7.304-7.165 11.875-5.425 8.79-29.07 48.31-34.08 56.956-5.359 9.253-25.371 42.519-28.26 46.98-2.88 4.443-18.872 31.23-24.2 40.53-1.605 2.802-4.193 7.06-5.751 9.47-2.331 3.599-8.787 14.37-23.6 39.37-.815 1.375-3.03 4.919-4.919 7.875-1.891 2.956-3.438 5.575-3.438 5.818 0 .244-6.251 10.762-13.892 23.375-7.641 12.612-15.298 25.404-17.02 28.426-1.718 3.02-6.791 11.459-11.273 18.75-4.482 7.291-9.267 15.225-10.635 17.631-5.603 9.861-4.987 9.711-12.4 3.02zm698.21-2.086c-2.676-4.297-5.428-8.721-6.115-9.831s-2.593-4.485-4.234-7.5-4.592-7.83-6.558-10.7-4.139-6.526-4.83-8.125c-.691-1.599-5.258-9.376-10.149-17.282s-10.02-16.344-11.395-18.75c-1.376-2.406-3.476-5.781-4.665-7.5s-3.862-6.219-5.939-10-6.137-10.722-9.02-15.424c-2.885-4.702-6.475-10.643-7.977-13.203-9.971-16.991-25.279-42.3-26.534-43.873-.824-1.031-2.898-4.406-4.609-7.5s-10.872-18.562-20.358-34.375c-21.866-36.449-20.473-34.12-25.549-42.7-2.376-4.02-5.188-8.748-6.25-10.518s-3.559-5.988-5.549-9.375-4.89-8.126-6.444-10.532c-5.4-8.36-39.31-65.27-39.31-65.972 0-.388-.771-1.594-1.713-2.679-.942-1.085-3.119-4.505-4.838-7.598-1.719-3.094-7.07-12.09-11.883-20-4.817-7.906-10.09-16.679-11.724-19.496-1.64-2.8-15.21-25.41-30.16-50.23-14.96-24.82-27.19-45.724-27.19-46.45 0-.722-.422-1.318-.938-1.323-.516-.005-1.56-1.271-2.32-2.813-.76-1.542-9.39-16.02-19.18-32.18s-18.1-31.19-18.47-33.404c-.55-3.394.04-4.725 3.75-8.438 4.12-4.12 4.93-4.408 12.35-4.404 28.28.015 91.65 9.602 128.56 19.454 43.2 11.529 95.96 33.32 130.62 53.956 33.459 19.917 71.794 49.99 91.06 71.44 2.852 3.174 6.05 6.615 7.096 7.647 6.623 6.499 27.464 32.952 27.464 34.86 0 .65.422 1.369.938 1.598 3.391 1.507 24.296 38.4 30.383 53.62 15.547 38.876 21.592 68.948 21.592 107.42 0 51.799-12.843 97.11-41.1 145.02-3.846 6.52-7.514 12.04-8.151 12.272-.637.229-1.158 1.021-1.158 1.76 0 1.139-2.649 4.901-12.09 17.17-11.43 14.86-48.68 53.77-51.48 53.77-.588 0-3.258-3.516-5.934-7.813"/><path fill="#f29801" d="m317.14 718.47l-144.73-96.59.78-9.38c6.613-79.24 49.52-155.69 114.93-204.78 68-51.03 152.34-69.906 235.57-52.716 40.37 8.336 80.84 26.63 114.43 51.722 26.582 19.854 49.52 43.69 67.69 70.34 3.716 5.45 15.433 25.359 15.433 26.22 0 .388 1.019 2.199 2.265 4.02 3.229 4.73 13.765 30.08 17.954 43.2 6.591 20.636 11.209 42.89 12.876 62.06l.821 9.434-85.39 56.926c-46.96 31.32-111.82 74.56-144.14 96.1-32.31 21.543-59.875 39.37-61.25 39.607-1.67.292-50.557-31.635-147.23-96.15zm-216.59-152.04c-6.911-6.81-16.474-16.71-21.247-21.99-9.131-10.12-29.15-36.28-32-41.81-.921-1.79-3.164-5.51-4.983-8.25-7.356-11.12-21.246-41.03-26.706-57.5-31.29-94.41-10.551-193.54 57.26-273.76 63.4-74.997 159.85-128.64 272.75-151.69 17.336-3.54 43.689-7.204 68.28-9.493 28.934-2.693 31.356-2.605 36 1.302 7.02 5.906 6.099 8.694-13.788 41.791-9.69 16.14-18.61 31.03-19.82 33.09-1.2 2.063-52.97 88.41-115.04 191.88-62.07 103.47-113.84 189.81-115.03 191.88-1.197 2.063-12.862 21.528-25.923 43.26-25.381 42.23-36.837 61.36-41.03 68.53-1.436 2.456-3.405 4.621-4.375 4.81-.97.189-7.421-5.227-14.336-12.04zm709.74 10.755c-1.229-1.521-6.757-10.687-26.576-44.06-5.307-8.938-17.596-29.431-27.309-45.541-9.7-16.11-17.65-29.52-17.65-29.8 0-.284-1.059-2.01-2.353-3.834s-6.851-10.912-12.348-20.19c-5.497-9.281-15.761-26.438-22.809-38.12-7.05-11.688-13.815-23-15.04-25.15-1.222-2.143-4.597-7.768-7.5-12.5s-9.649-15.985-14.991-25.01c-5.342-9.02-11.1-18.584-12.804-21.25-1.7-2.67-14.48-23.98-28.39-47.35-13.91-23.38-27.41-45.88-29.99-50-4.13-6.6-56.37-93.71-63.28-105.52-1.44-2.47-14.58-24.411-29.19-48.765-29.64-49.41-29.92-50.13-22.47-56.79l4.09-3.655 13.847.835c124.15 7.487 234.01 48.719 316.35 118.72 12.729 10.823 36.27 34.901 45.41 46.43 4.348 5.491 8.696 10.961 9.661 12.155.966 1.194 5.661 7.97 10.433 15.06 50.38 74.81 62.49 164.1 33.608 247.77-11.681 33.839-35.26 73.21-62.14 103.75-8.967 10.189-34.04 34.375-35.638 34.375-.908 0-2.219-.703-2.913-1.563z"/></g></svg>