<svg xmlns="http://www.w3.org/2000/svg" width="3366" height="1547" viewBox="0 0 3367.81 1548.23" shape-rendering="geometricPrecision" image-rendering="optimizeQuality" fill-rule="evenodd" clip-rule="evenodd"><path d="m0 167.57c0 0 764.93-167.57 1668.83-167.57 903.89 0 1698.98 167.57 1698.98 167.57v1213.1c0 0-795.09 167.57-1668.83 167.57-903.89 0-1698.98-167.57-1698.98-167.57v-1213.1" fill="#074085"/><path d="m0 909.09h3367.81v471.57c0 0-795.09 167.57-1668.83 167.57-903.89 0-1698.98-167.57-1698.98-167.57v-471.58" fill="#facf00"/><g fill="#fff"><path d="m631.72 713.79v-364.61c-43.43-23.451-94.62-33.857-153.66-33.857-59.913 0-111.12 10.406-153.69 32.16v105.03h119.81v-57.33c10.468-3.435 19.97-4.339 33.88-4.339 13.881 0 24.315.909 33.851 5.192v94.62c-13.03-3.424-30.377-6.05-49.48-6.05-57.26 0-102.4 6.977-139.75 22.598v206.58c43.42 23.446 92.89 33.875 154.51 33.875 63.39-.006 112.02-11.276 154.53-33.875m-119.8-45.13c-8.688 3.497-19.97 5.192-34.721 5.192-14.757 0-26.887-1.695-34.728-5.192v-107.62c9.559-4.345 20.819-6.123 34.728-6.123 13.902.842 26.03 2.626 34.721 5.192v108.55"/><path d="m1057.86 739.8v-389.75c-43.44-23.463-97.27-34.722-156.31-34.722-59.891 0-113.66 11.26-156.23 34.722v389.75h120.65v-323.8c9.541-5.209 22.598-6.06 35.575-6.06 13.91 0 26.09.847 35.654 6.06v323.79h120.66"/><path d="m1366.34 744.17v-89.43h-26.886c-12.978 0-26.887-3.43-35.576-7.774v-230.03h64.18v-93.77h-64.18v-99.05h-122.37v99.05h-38.931v93.77h38.931v289.06c39.07 26.04 85.08 38.17 139.78 38.17h45.06"/><path d="m2193.5 739.8v-389.75c-43.42-23.463-97.26-34.722-156.31-34.722-59.886 0-113.66 11.26-156.23 34.722l.006 389.75h120.66v-323.8c9.553-5.209 22.592-6.06 35.57-6.06 13.903 0 26.11.847 35.654 6.06l.005 323.79h120.65"/><path d="m2622.35 739.8v-389.75c-43.42-23.463-97.19-34.722-156.23-34.722-59.891 0-113.74 11.26-156.31 34.722v389.75h120.74v-323.8c9.481-5.209 22.509-6.06 35.57-6.06 13.904 0 26.03.847 35.576 6.06v323.79h120.66"/><path d="m3045.15 712.07v-112.96h-120.66v65.19c-9.565 5.198-19.972 6.125-33.881 6.125-12.971-.006-25.16-1.774-34.721-6.125v-102.4h189.26v-210.08c-42.514-24.316-93.78-36.496-154.54-36.496-60.755 0-111.96 12.186-153.68 36.501v360.24c42.587 24.316 94.64 35.592 153.68 35.592 60.762-.006 112.03-12.12 154.54-35.592m-120.66-215.27c0 0-67.755 0-68.6 0v-99.83c9.564-4.351 19.965-6.125 34.721-6.125 15.61 0 25.17 1.774 33.881 6.125v99.83"/><path d="m1767.37 712.07v-112.96h-120.65v65.19c-9.537 5.198-19.949 6.125-33.859 6.125-12.977-.006-25.18-1.774-34.727-6.125v-102.4h189.24v-210.08c-42.485-24.316-93.77-36.496-154.51-36.496-60.761 0-111.96 12.186-153.68 36.501v360.24c42.57 24.316 94.64 35.592 153.68 35.592 60.744-.006 112.02-12.12 154.51-35.592m-120.65-215.27c0 0-67.738 0-68.59 0v-99.83c9.543-4.351 19.954-6.125 34.727-6.125 15.604 0 25.16 1.774 33.859 6.125v99.83"/></g><g fill="#074085"><path d="m336.43 1047.51c-6.264 0-10.974 4.429-10.974 10.193v202.8c0 5.782 4.204 10.408 10.412 10.408l191.25-.006c44.635 0 85.2-5.265 85.2-60.31 0-33.09-8.471-46.92-41.778-53.21-1.274-.005-2.851 0-4.429-.645 29.878-6.909 37.736-21.385 37.736-50.893 0-48.15-33.03-58.2-74.52-58.2l-192.9-.145m188.19 172.78h-132.42v-40.582h121.72c13.196 0 30.16 2.566 30.16 19.545 0 11.619-7.561 21.04-19.466 21.04m-12.899-84.57h-119.24v-39.02h117.3c13.561 0 26.17 4.995 26.17 20.397 0 13.904-12.333 18.618-24.24 18.618"/><path d="m1049.01 1268.34h51.932c6.203 0 11.198-5.05 11.198-11.26 0-2.065-.59-4.142-1.578-5.837l-112.02-198.54c-1.779-3.054-4.99-5.131-8.914-5.131l-75.882-.061c-3.918 0-7.274 2.065-9.05 5.135-17.546 31.595-110.53 198.74-110.3 198.74-1.01 1.627-1.638 3.637-1.638 5.697 0 6.208 4.995 11.26 11.175 11.26h49.08c3.981 0 7.337-2.285 9.116-5.478l18.11-33.521h142.48c0 0 17.828 33.582 17.973 33.582 1.774 3.295 5.192 5.417 9.116 5.417h-.792m-50.836-85.57h-93.12l47.48-86.15 45.64 86.15"/><path d="m2458.05 1269.27c-3.771 0-7.05-1.915-8.773-4.906l-32.3-51.06h-115.94v45.848c-.056 5.635-4.349 10.126-10.552 10.126l-48.27-.006c-6.203 0-10.553-4.563-10.694-10.267l.067-201.22c.079-5.698 4.418-10.267 10.547-10.267l213.07-.005c48.782 0 59.13 34.31 59.13 75.865 0 35.794-12.697 52.07-41.862 59.32 0 0 42.06 70.886 42.28 70.886.853 1.494 1.274 3.217 1.274 5.136.006 5.843-4.686 10.553-10.552 10.553l-47.42-.006m-40.923-110.67c16.979 0 29.24-5.978 29.24-24.876.006-20.482-4.715-32.1-27.312-32.1l-118.02-.006v56.983h116.09"/><path d="m1483.15 1047.51c-3.289 0-6.343 1.56-8.285 3.985l-71.38 87.56-71.03-87.62c-1.919-2.368-4.849-3.861-8.183-3.861l-58.06-.006c-5.843.084-10.188 4.659-10.188 10.278 0 2.425.847 4.71 2.346 6.489l110.53 128.21v67.25c0 5.496 4.709 10.188 10.911 10.188l47.992-.006c6.264 0 10.912-4.686 10.912-10.468v-66.963l112.81-128.35c1.499-1.785 2.347-3.923 2.347-6.409 0-5.641-4.126-10.126-9.908-10.21l-60.822-.061"/><path d="m1992.15 1259.42c-.145 5.641-4.798 10.215-10.923 10.215h-225.33c-6.208 0-10.839-4.569-10.98-10.272l.006-201.59c.141-5.641 4.765-10.21 10.974-10.21l225.42-.061c6.123 0 10.748 4.574 10.895 10.193l.006 29.867c-.152 5.641-4.777 9.99-10.986 9.99l-169-.005v36.53h159.31c6.135 0 10.766 4.49 10.906 10.187l.006 26.319c-.141 5.619-4.49 9.986-10.637 9.986h-159.58v38.988h169.37c6.117 0 10.462 4.569 10.609 10.273l-.057 29.586"/><path d="m2938.97 1269.91h93.04c6.208 0 10.272-3.997 10.412-9.615l.006-202.88c-.141-5.703-4.777-9.902-10.986-9.902l-42.2.051c-6.197 0-10.833 4.518-10.996 10.216l.006 59.891c0 34.01 1.291 67.957 1.858 101.98-42.934-56.838-87.14-112.38-131.91-167.36-1.921-2.491-4.631-4.125-8.07-4.125l-92.27-.304c-6.13 0-11.06 4.647-11.204 10.266v201.81c.147 5.641 4.794 9.992 10.917 9.992l42.71-.006c6.152 0 10.778-4.479 10.917-10.204l-.084-159c41.862 56.32 85.5 111.37 130.08 165.57l7.785 3.632"/></g></svg>