<?xml version="1.0" encoding="UTF-8" standalone="no"?>
<svg
   xmlns:dc="http://purl.org/dc/elements/1.1/"
   xmlns:cc="http://creativecommons.org/ns#"
   xmlns:rdf="http://www.w3.org/1999/02/22-rdf-syntax-ns#"
   xmlns:svg="http://www.w3.org/2000/svg"
   xmlns="http://www.w3.org/2000/svg"
   id="svg2"
   height="421.16174"
   width="477.83664"
   version="1.0">
  <metadata
     id="metadata3079">
    <rdf:RDF>
      <cc:Work
         rdf:about="">
        <dc:format>image/svg+xml</dc:format>
        <dc:type
           rdf:resource="http://purl.org/dc/dcmitype/StillImage" />
        <dc:title></dc:title>
      </cc:Work>
    </rdf:RDF>
  </metadata>
  <defs
     id="defs3077" />
  <g
     transform="translate(-57.945937,2.8912e-6)"
     id="g3396">
    <g
       transform="matrix(8.9070857,0,0,-8.9070857,447.33255,320.93922)"
       id="g3976">
      <path
         d="M 0,0 -16.9,-11.252 -33.8,0.015 -33.81,0.02 c 0.575,8.837 7.925,15.827 16.907,15.827 8.989,0 16.342,-7 16.907,-15.847 L 0,0 Z"
         id="path3978"
         style="fill:#f68a00;fill-rule:nonzero;stroke:none" />
    </g>
    <g
       transform="matrix(8.9070857,0,0,-8.9070857,476.55937,299.60319)"
       id="g3980">
      <path
         d="m 0,0 -19.569,32.612 c -0.06,0.101 -0.094,0.22 -0.094,0.346 0,0.375 0.347,0.677 0.722,0.677 C -4.7,33.148 6.649,24.261 6.649,13.37 6.649,8.248 4.14,3.57 0,0"
         id="path3982"
         style="fill:#f68a00;fill-rule:nonzero;stroke:none" />
    </g>
    <g
       transform="matrix(8.9070857,0,0,-8.9070857,116.95538,299.42059)"
       id="g3984">
      <path
         d="m 0,0 c -4.125,3.568 -6.625,8.238 -6.625,13.349 0,10.886 11.359,19.771 25.591,20.267 0.374,0 0.678,-0.304 0.678,-0.678 0,-0.127 -0.035,-0.246 -0.096,-0.348 L 0,0 Z"
         id="path3986"
         style="fill:#f68a00;fill-rule:nonzero;stroke:none" />
    </g>
  </g>
</svg>
