<?xml version="1.0" encoding="UTF-8" standalone="no"?>
<!-- Created with Inkscape (http://www.inkscape.org/) -->

<svg
   xmlns:dc="http://purl.org/dc/elements/1.1/"
   xmlns:cc="http://creativecommons.org/ns#"
   xmlns:rdf="http://www.w3.org/1999/02/22-rdf-syntax-ns#"
   xmlns:svg="http://www.w3.org/2000/svg"
   xmlns="http://www.w3.org/2000/svg"
   xmlns:sodipodi="http://sodipodi.sourceforge.net/DTD/sodipodi-0.dtd"
   xmlns:inkscape="http://www.inkscape.org/namespaces/inkscape"
   id="svg2"
   version="1.1"
   inkscape:version="0.91 r13725"
   width="204.29999"
   height="269.90939"
   viewBox="0 0 204.29998 269.9094"
   sodipodi:docname="aone.black.png">
  <metadata
     id="metadata8">
    <rdf:RDF>
      <cc:Work
         rdf:about="">
        <dc:format>image/svg+xml</dc:format>
        <dc:type
           rdf:resource="http://purl.org/dc/dcmitype/StillImage" />
        <dc:title></dc:title>
      </cc:Work>
    </rdf:RDF>
  </metadata>
  <defs
     id="defs6" />
  <sodipodi:namedview
     pagecolor="#ffffff"
     bordercolor="#666666"
     borderopacity="1"
     objecttolerance="10"
     gridtolerance="10"
     guidetolerance="10"
     inkscape:pageopacity="0"
     inkscape:pageshadow="2"
     inkscape:window-width="2560"
     inkscape:window-height="1377"
     id="namedview4"
     showgrid="false"
     fit-margin-top="0"
     fit-margin-left="0"
     fit-margin-right="0"
     fit-margin-bottom="0"
     inkscape:zoom="0.873104"
     inkscape:cx="394.21143"
     inkscape:cy="127.21326"
     inkscape:window-x="-8"
     inkscape:window-y="-8"
     inkscape:window-maximized="1"
     inkscape:current-layer="svg2" />
  <path
     style="fill:#ffffff"
     d="m 0.0744,269.45376 c 0.0762,-0.20625 1.20442,-3.2434 2.5071,-6.74923 l 2.3685,-6.37424 2.29291,-9e-4 c 1.90513,-6e-4 2.32798,0.088 2.50035,0.52424 1.16292,2.94312 4.65674,12.45937 4.65674,12.68386 0,0.16046 -0.93772,0.29127 -2.08796,0.29127 l -2.08795,0 -0.35953,-1.2 -0.35953,-1.2 -2.34095,0 -2.34095,0 -0.32313,1.2 -0.32312,1.2 -2.12054,0 c -1.57034,0 -2.08457,-0.0973 -1.98194,-0.375 z m 8.54629,-5.1 c -0.0789,-0.20625 -0.38802,-1.15125 -0.68688,-2.1 -0.29886,-0.94875 -0.62907,-1.725 -0.73381,-1.725 -0.22896,0 -1.2,2.99513 -1.2,3.70137 0,0.39269 0.29366,0.49863 1.3821,0.49863 0.98221,0 1.34057,-0.1085 1.23859,-0.375 z M 16.2,268.36907 c 0,-1.43713 0.0495,-1.54031 0.73945,-1.54031 0.42403,0 0.87191,-0.24752 1.05,-0.58028 0.17592,-0.32871 0.31055,-2.60474 0.31055,-5.25 l 0,-4.66972 5.7,0 5.7,0 0,6.76371 0,6.7637 -2.025,-0.0887 -2.025,-0.0887 -0.0822,-5.025 -0.0823,-5.025 -1.44654,0 -1.44654,0 -0.19673,3.88703 c -0.1082,2.13787 -0.3411,4.2039 -0.51755,4.59117 -0.4899,1.07522 -1.41954,1.49772 -3.64597,1.65702 l -2.03216,0.1454 0,-1.54031 z m 15.9,-5.25825 0,-6.78206 1.95,0 1.95,0 0,2.55 0,2.55 1.89555,0 c 2.46949,0 4.80641,0.7036 5.57275,1.67784 0.87392,1.11101 1.10317,3.12013 0.50086,4.38941 -0.831,1.75121 -2.03519,2.12611 -7.29416,2.2709 l -4.575,0.12596 0,-6.78205 z m 7.62857,3.24651 c 1.12158,-1.12158 -0.14189,-2.3257 -2.27907,-2.17202 -1.29743,0.0933 -1.29965,0.0955 -1.39175,1.36845 l -0.0923,1.275 1.64582,0 c 1.0962,0 1.80326,-0.15743 2.11725,-0.47143 z m 7.07143,-1.62857 0,-5.1 -2.1,0 -2.1,0 0,-1.65 0,-1.65 6.3,0 6.3,0 0,1.65 0,1.65 -2.1,0 -2.1,0 0,5.1 0,5.1 -2.1,0 -2.1,0 0,-5.1 z m 10.8,-1.64338 0,-6.75662 5.55,0 5.55,0 0,1.5 0,1.5 -3.45,0 -3.45,0 0,1.05 0,1.05 3.15,0 3.15,0 0,1.35 0,1.35 -3.15,0 -3.15,0 0,1.35 0,1.35 3.61644,0 3.61643,0 -0.0914,1.425 -0.0914,1.425 -5.625,0.0816 -5.625,0.0816 0,-6.75662 z m 13.2,-0.0277 0,-6.77112 4.64506,0.0961 4.64506,0.0961 0.95975,0.96058 c 0.81623,0.81694 0.97646,1.2207 1.07149,2.7 0.20297,3.16004 -1.40467,4.58943 -5.16173,4.58943 l -1.95963,0 0,2.55 0,2.55 -2.1,0 -2.1,0 0,-6.77112 z m 6.9,-1.62887 c 0.72225,-0.72225 0.73399,-0.8752 0.13299,-1.73325 -0.34834,-0.49732 -0.76762,-0.66675 -1.65,-0.66675 l -1.18299,0 0,1.5 0,1.5 1.05,0 c 0.65,0 1.27857,-0.22857 1.65,-0.6 z m 7.5,1.65 0,-6.75 2.1,0 2.1,0 0,2.41314 0,2.41315 2.175,-0.0881 2.175,-0.0881 0.0876,-2.325 0.0876,-2.325 2.08738,0 2.08738,0 0,6.75 0,6.75 -2.1,0 -2.1,0 0,-2.7 0,-2.7 -2.25,0 -2.25,0 0,2.7 0,2.7 -2.1,0 -2.1,0 0,-6.75 z m 14.7,6.35441 c 0,-0.23262 1.06979,-3.24254 2.37731,-6.6887 l 2.37732,-6.26576 2.3244,0 2.3244,0 2.49787,6.6 c 1.37384,3.63 2.49806,6.63375 2.49829,6.675 2.2e-4,0.0412 -0.99869,0.075 -2.21979,0.075 l -2.2202,0 -0.26606,-1.125 -0.26605,-1.125 -2.36199,0 -2.36197,0 -0.35244,1.05 c -0.35095,1.04556 -0.3609,1.05038 -2.35177,1.13871 -1.5623,0.0693 -1.99932,-0.004 -1.99932,-0.33425 z m 8.39999,-4.88289 c 0,-0.34139 -1.25916,-4.32157 -1.36716,-4.32157 -0.12608,0 -1.33284,3.83132 -1.33284,4.2316 0,0.14762 0.6075,0.2684 1.35,0.2684 0.7425,0 1.35,-0.0803 1.35,-0.17843 z m 9,0.17843 0,-5.1 -2.1,0 -2.1,0 0,-1.65 0,-1.65 6.3,0 6.3,0 0,1.65 0,1.65 -2.1,0 -2.1,0 0,5.1 0,5.1 -2.1,0 -2.1,0 0,-5.1 z m 10.8,-1.65 0,-6.75 1.95,0 1.95,0 0,3.65569 0,3.65569 2.475,-3.64776 2.475,-3.64777 2.03074,-0.008 2.03074,-0.008 -0.0807,6.675 -0.0807,6.675 -1.875,0.0893 -1.875,0.0893 0,-3.46431 c 0,-1.90539 -0.11416,-3.46433 -0.2537,-3.46433 -0.13954,0 -1.28769,1.5525 -2.55144,3.45 l -2.29773,3.45 -1.94856,0 -1.94857,0 0,-6.75 z m 15,-0.0202 0,-6.77019 4.93115,0.0952 4.93114,0.0952 0.91886,0.88113 c 0.77112,0.73946 0.91885,1.10898 0.91885,2.29833 0,1.20936 -0.13325,1.52933 -0.90858,2.18173 l -0.90859,0.76452 0.89969,0.46525 c 1.16128,0.60052 1.51748,1.30111 1.51748,2.98458 0,1.06941 -0.17865,1.56123 -0.825,2.27116 -1.05729,1.16132 -2.82392,1.5033 -7.76594,1.5033 l -3.70906,0 0,-6.77019 z m 7.98263,3.0125 c 0.46489,-0.70951 0.46238,-0.79534 -0.0396,-1.35 -0.40636,-0.44901 -0.92397,-0.59231 -2.13954,-0.59231 l -1.60351,0 0,1.35 0,1.35 1.64309,0 c 1.42602,0 1.70867,-0.10009 2.13954,-0.75769 z m -0.57251,-4.9922 c 1.04694,-0.86889 -0.0372,-2.05011 -1.88155,-2.05011 l -1.32857,0 0,1.15 c 0,0.6325 0.10125,1.25165 0.225,1.37589 0.29155,0.29271 2.4793,-0.056 2.98512,-0.47578 z m 6.68988,1.99989 0,-6.75 2.1,0 2.1,0 0,2.41314 0,2.41315 2.175,-0.0881 2.175,-0.0881 0.0876,-2.325 0.0876,-2.325 2.08738,0 2.08738,0 0,6.75 0,6.75 -2.1,0 -2.1,0 0,-2.7 0,-2.7 -2.25,0 -2.25,0 0,2.7 0,2.7 -2.1,0 -2.1,0 0,-6.75 z m 14.925,6.57855 c -0.12375,-0.1257 -0.225,-3.17605 -0.225,-6.77855 l 0,-6.55 2.1,0 2.1,0 0,2.50771 0,2.50772 2.5036,0.15619 c 2.95239,0.18419 4.52716,0.83242 5.20807,2.14383 0.62953,1.21247 0.62257,3.23237 -0.0145,4.20466 -0.98175,1.49833 -2.06015,1.79664 -6.94718,1.92177 -2.475,0.0634 -4.60125,0.0124 -4.725,-0.11333 z m 7.71489,-3.41737 c 1.01798,-1.12486 -0.17775,-2.11118 -2.55942,-2.11118 l -1.18047,0 0,1.35 0,1.35 1.6035,0 c 1.21237,0 1.73349,-0.14363 2.13639,-0.58882 z m 5.56011,-3.16118 0,-6.75 2.1,0 2.1,0 0,6.75 0,6.75 -2.1,0 -2.1,0 0,-6.75 z m 6.21269,6.56269 c -0.11698,-0.11698 -0.21269,-3.16019 -0.21269,-6.76269 l 0,-6.55 1.95,0 1.95,0 0,3.45 c 0,1.8975 0.10125,3.44581 0.225,3.44068 0.12375,-0.005 1.27892,-1.55762 2.56704,-3.45 l 2.34204,-3.44068 1.93296,0 1.93296,0 0,6.75 0,6.75 -1.94077,0 -1.94076,0 -0.0842,-3.57338 -0.0842,-3.57338 -2.40409,3.49838 -2.40409,3.49838 -1.80822,0.0877 c -0.99452,0.0482 -1.90393,-0.008 -2.02091,-0.125 z m 5.28118,-14.24375 c -0.88747,-0.25647 -2.19387,-1.51257 -2.19387,-2.1094 0,-0.47695 1.24625,-0.2667 2.01814,0.34046 0.41953,0.33 1.01457,0.6 1.32232,0.6 0.30775,0 0.82954,-0.27 1.15954,-0.6 0.63289,-0.63289 2.1,-0.82636 2.1,-0.27692 0,0.4849 -1.68819,2.07692 -2.20239,2.07692 -0.24669,0 -0.62833,0.0552 -0.84807,0.12262 -0.21975,0.0675 -0.8298,-0.002 -1.35567,-0.15368 z M 0,230.52876 l 0,-15 14.4,0 14.4,0 0,15 0,15 -4.65,0 -4.65,0 0,-11.40725 0,-11.40726 -5.025,0.0823 -5.025,0.0822 -0.0786,11.325 -0.0786,11.325 -4.6464,0 -4.64639,0 0,-15 z m 35.4,0 0,-15 12.45,0 12.45,0 0,3.15 0,3.15 -7.8,0 -7.8,0 0,2.4 0,2.4 7.2,0 7.2,0 0,3.15 0,3.15 -7.2,0 -7.2,0 0,2.85 0,2.85 7.95,0 7.95,0 0,3.45 0,3.45 -12.6,0 -12.6,0 0,-15 z m 30.6,-0.0188 0,-15.01881 9.675,0.0993 c 9.12546,0.0937 9.75168,0.13552 11.025,0.73638 1.65517,0.78107 3.40716,2.55938 4.05618,4.11712 1.20807,2.89955 0.8152,7.51385 -0.85183,10.0049 -1.93303,2.88853 -5.01907,3.97989 -11.25392,3.97989 l -3.35043,0 0,5.55 0,5.55 -4.65,0 -4.65,0 0,-15.01881 z m 14.51181,-2.66667 c 1.14349,-0.43475 2.05191,-2.03049 1.86536,-3.27672 -0.30331,-2.02616 -2.00753,-3.0378 -5.11754,-3.0378 l -1.95963,0 0,3.49402 0,3.49402 2.21194,-0.18698 c 1.21658,-0.10283 2.56651,-0.32178 2.99987,-0.48654 z m 16.08819,2.68548 0,-15 9.84554,0 c 11.03711,0 11.94094,0.12492 14.06619,1.94404 1.68834,1.44516 2.48992,3.19766 2.48168,5.42568 -0.0104,2.80053 -1.31416,4.98122 -3.70526,6.19733 l -0.86184,0.43832 1.31184,0.52237 c 2.92774,1.1658 4.32906,3.00238 4.64943,6.09357 0.35256,3.40173 -1.2639,6.54519 -4.08759,7.94899 -2.38652,1.18646 -4.78001,1.4171 -14.775,1.42376 l -8.92499,0.006 0,-15 z m 16.98274,8.01576 c 1.88278,-0.98397 2.05111,-3.54069 0.31833,-4.83523 -0.74493,-0.55653 -1.25513,-0.63053 -4.34753,-0.63053 l -3.50355,0 -0.0874,2.67626 c -0.0481,1.47194 -0.012,2.87293 0.0803,3.11332 0.23956,0.62427 6.21696,0.36756 7.53989,-0.32382 z m -1.08275,-11.70396 c 1.09709,-0.55491 1.64069,-1.87191 1.31558,-3.1873 -0.39545,-1.59995 -1.66241,-2.12345 -5.14058,-2.12403 l -2.775,-4.7e-4 0,2.85 0,2.85 2.925,-0.004 c 1.75377,-0.003 3.22532,-0.15633 3.675,-0.38378 z m 17.1,3.70925 0,-15.02105 4.65,0 4.65,0 0,5.65341 0,5.65342 4.59247,0.19802 c 4.99808,0.21551 7.31062,0.6784 9.59174,1.91994 2.87728,1.56601 4.11579,3.95286 4.11579,7.93192 0,3.9135 -1.65746,6.32064 -5.37619,7.80791 -1.59648,0.63849 -2.14852,0.67422 -11.94881,0.77345 l -10.275,0.10402 0,-15.02104 z m 15.77494,8.34138 c 1.64693,-0.4147 2.52506,-1.44083 2.52506,-2.95059 0,-0.80183 -0.21329,-1.30786 -0.77325,-1.83455 -0.7182,-0.67551 -1.0386,-0.73437 -4.5,-0.82676 l -3.72675,-0.0995 0,3.02446 0,3.02447 2.56716,0 c 1.41193,0 3.17043,-0.15191 3.90778,-0.33757 z m 14.22506,-8.36243 0,-15 4.65,0 4.65,0 0,15 0,15 -4.65,0 -4.65,0 0,-15 z m 15.6,0.008 0,-15.00781 4.49518,0 4.49518,0 0.0798,8.1175 0.0798,8.11748 5.49969,-8.1175 5.49968,-8.1175 4.47532,0 4.47531,0 0,15 0,15 -4.5,0 -4.5,0 0,-8.14968 0,-8.14968 -5.50858,8.07468 -5.50858,8.07468 -4.54142,0.0828 -4.54142,0.0828 0,-15.00781 z m 11.22874,-17.52204 c -1.70085,-0.792 -3.17387,-2.38333 -3.65389,-3.94739 l -0.31869,-1.0384 1.92192,0 c 1.39606,0 1.92192,0.10882 1.92192,0.39771 0,0.60796 1.28732,1.68318 2.39586,2.0011 1.56662,0.44931 3.2964,-0.0797 4.39964,-1.34563 0.89915,-1.03171 1.02651,-1.08043 2.59849,-0.99403 l 1.65299,0.0908 -0.40732,1.2 c -0.50804,1.49668 -2.66023,3.51139 -4.26445,3.99203 -1.97028,0.5903 -4.5268,0.4445 -6.24647,-0.35626 z M 96.3,203.65273 C 80.36133,202.2743 69.24385,199.30747 56.85,193.12485 36.63433,183.04036 20.52745,166.84681 10.65252,146.67876 5.69673,136.55733 2.90207,127.6139 1.18431,116.37877 0.36816,111.04069 0.04599,98.334689 0.58142,92.601411 4.52174,50.409097 33.76538,15.238799 74.58283,3.6025072 83.62464,1.024856 91.17108,0.02802045 101.85,6.8975421e-4 112.08077,-0.02549425 118.17689,0.68899195 127.16727,2.9679599 c 28.2003,7.1484891 52.04284,26.0528621 65.47085,51.9108071 5.53619,10.660881 8.85717,21.185675 10.66663,33.804497 0.7617,5.311992 0.75868,20.991896 -0.005,26.345506 -3.21817,22.55785 -12.74181,42.08465 -28.26734,57.95794 -16.31426,16.67969 -36.96925,26.97772 -60.08733,29.95795 -4.45748,0.57463 -15.38721,0.98959 -18.64501,0.70789 z m 17.06372,-14.67585 c 19.6015,-2.67754 36.74021,-11.11019 50.60314,-24.89794 13.59556,-13.52183 21.93243,-29.82739 25.09205,-49.07597 0.57309,-3.49132 0.66256,-5.21545 0.67581,-13.02402 0.0165,-9.73918 -0.34141,-13.253206 -2.09392,-20.557378 -7.30703,-30.45437 -30.70354,-55.116698 -60.60387,-63.882707 -7.7873,-2.283038 -14.1555,-3.268889 -22.63694,-3.504387 -23.85266,-0.6623 -46.1035,8.03764 -63.41398,24.79447 C 15.3281,63.666244 7.28492,101.32008 20.56514,134.42856 c 7.89189,19.67502 22.78788,36.00639 41.53811,45.54072 10.44771,5.31257 20.87531,8.32643 32.69675,9.45022 3.92113,0.37277 14.42865,0.12223 18.56372,-0.44262 z m 31.52588,-33.37523 -18.16039,-0.0773 -0.9728,-3.6727 c -0.53505,-2.01999 -1.79795,-6.74493 -2.80646,-10.49986 l -1.83364,-6.82716 -19.51674,0.0772 -19.51674,0.0771 -0.51873,1.8 c -0.28531,0.99 -1.56283,5.68125 -2.83894,10.425 l -2.32021,8.625 -17.83457,0 c -14.14385,0 -17.80501,-0.0776 -17.69172,-0.375 0.0786,-0.20625 0.71036,-2.13 1.40396,-4.275 0.69361,-2.145 5.98797,-18.18307 11.76524,-35.64015 C 61.6549,92.252702 64.64825,83.572643 64.901,83.767013 c 0.19195,0.147615 4.43255,3.337971 9.42356,7.089681 8.00705,6.018845 9.05465,6.900614 8.90532,7.495607 -0.0931,0.370875 -2.57267,8.088589 -5.51018,17.150479 -2.93752,9.06188 -5.31003,16.51354 -5.27225,16.55923 0.0378,0.0457 6.59087,-4.65661 14.56242,-10.44955 12.61292,-9.16585 14.5746,-10.49339 15.11692,-10.23024 0.34276,0.16632 6.9007,4.8818 14.5732,10.47886 7.6725,5.59705 13.99243,10.06973 14.04429,9.93929 0.0828,-0.20821 -3.10396,-10.16622 -9.0085,-28.14998 -1.18544,-3.61056 -1.72334,-5.669474 -1.55048,-5.934764 0.14558,-0.223422 4.44969,-3.49662 9.56469,-7.273772 5.91695,-4.369344 9.3697,-6.739389 9.49161,-6.515235 0.10538,0.193776 3.90441,11.422316 8.44229,24.952321 4.53788,13.53 9.88909,29.45853 11.89158,35.39675 2.00248,5.93821 3.60345,10.93321 3.5577,11.1 -0.0552,0.20116 -6.19665,0.27722 -18.24357,0.22595 z M 67.25,76.026192 c 0.055,-0.166413 3.61,-10.894127 7.9,-23.839364 l 7.8,-23.53679 19.2,-0.0026 19.19999,-0.0026 7.77027,23.466935 c 4.27365,12.906812 7.82865,23.635682 7.9,23.841932 0.10243,0.296061 -2.49227,0.375 -12.32621,0.375 l -12.45593,0 -0.76021,-2.475 c -0.41811,-1.36125 -2.75498,-8.98875 -5.19305,-16.949999 -2.43807,-7.961229 -4.50837,-14.474979 -4.60067,-14.474979 -0.0923,0 -1.76033,4.89375 -3.70674,10.875 -1.9464,5.98125 -4.43034,13.60875 -5.51985,16.949999 l -1.98092,6.075 -11.66334,0 c -7.70777,0 -11.62943,-0.102615 -11.56334,-0.302574 z"
     id="path4138"
     inkscape:connector-curvature="0" />
</svg>
