<svg xmlns="http://www.w3.org/2000/svg" height="147.76" width="600" viewBox="0 0 158.75 39.094091"><defs><clipPath id="0"><path d="m15.05 180.81c-2.439 0-4.417 1.97-4.417 4.41v28.63c0 2.45 1.978 4.42 4.417 4.42h28.63c2.442 0 4.42-1.97 4.42-4.42v-28.63c0-2.44-1.978-4.41-4.42-4.41z"/></clipPath></defs><g transform="translate(-10.557-147.89)"><g fill="#fff"><path d="m63.4 169.7l1.369 3.01h1.607l-5.728-12.51-5.729 12.51h1.606l1.369-3.01zm-.622-1.37h-4.262l2.132-4.85z"/><path d="m74.892 167.49c1.734-.21 2.879-1.64 2.879-3.36 0-1.15-.571-2.28-1.575-2.87-.953-.54-2.099-.55-3.165-.55h-1.815v12h1.496v-5.08h.622l3.532 5.08h1.813zm-2.18-5.44h.398c1.48 0 3.261.26 3.261 2.14 0 1.91-1.654 2.2-3.181 2.2h-.478z"/><path d="m90.5 169.7l1.369 3.01h1.607l-5.728-12.51-5.729 12.51h1.606l1.369-3.01zm-.622-1.37h-4.262l2.132-4.85z"/><path d="m103.56 166.66v1.37h3.1c-.06 1.96-2.06 3.56-3.93 3.56-2.59 0-4.659-2.39-4.659-4.9 0-2.69 2.099-4.87 4.789-4.87 1.46 0 2.91.78 3.77 1.96l1.05-1c-1.18-1.48-3.02-2.33-4.88-2.33-3.457 0-6.225 2.84-6.225 6.29 0 3.32 2.703 6.22 6.06 6.22 3.36 0 5.68-2.53 5.68-5.82v-.48z"/><path d="m117.52 156.47l-1.99 2.65.7.43 2.61-2.37zm-.33 3.98c-3.44 0-6.29 2.82-6.29 6.26 0 3.56 2.82 6.25 6.29 6.25s6.28-2.69 6.28-6.25c0-3.44-2.85-6.26-6.28-6.26m0 11.11c-2.6 0-4.79-2.12-4.79-4.85 0-2.64 1.97-4.86 4.79-4.86 2.81 0 4.79 2.22 4.79 4.86 0 2.73-2.2 4.85-4.79 4.85"/><path d="m127.06 172.71h1.5v-8.95l9.01 9.44v-12.49h-1.5v8.86l-9.01-9.43z"/><path d="m150.91 163.35h2.58v-2.64h-8.28v2.64h2.58v9.36h3.12z"/><path d="m160.11 160.71h-3.39l5.04 12h2.42l5.13-12h-3.39l-2.91 7.29z"/><path d="m15.874 147.89c-2.925 0-5.317 2.39-5.317 5.31v28.47c0 2.92 2.392 5.31 5.317 5.31h28.462c2.924 0 5.315-2.39 5.315-5.31v-28.47c0-2.92-2.391-5.31-5.315-5.31z" mix-blend-mode="normal" solid-color="#000000" white-space="normal" shape-padding="0" color="#000" image-rendering="auto" color-rendering="auto" isolation="auto" shape-rendering="auto"/></g><path d="m11.478 153.2c0-2.42 1.967-4.39 4.395-4.39h28.463c2.426 0 4.395 1.97 4.395 4.39v28.47c0 2.43-1.969 4.39-4.395 4.39h-28.463c-2.428 0-4.395-1.96-4.395-4.39z"/><path d="m38.726 205.56l1.49.14c.601.09 1.012.77.918 1.37l-.099.64-.162 1.01c-.007.04-.012.07-.022.1l-1.543 9.45h-11.11l1.097-6.44.012-.07.007-.04c.082-.52-.219-1.02-.7-1.2-1.947-.73-3.877-1.64-5.729-2.71-2.024-1.17-3.812-2.42-5.512-3.86l-.034-.03c-.394-.29-.949-.29-1.348.03l-.386.31-4.981 3.94v-13.99l2.225-1.79c.034-.03.072-.07.111-.1l.855-.68.464-.36c.48-.38 1.277-.4 1.652.08l.273.42.031.05c2.512 3.82 6.138 7.09 10.282 9.64 3.51 2.16 7.995 3.62 12.208 4.09" clip-path="url(#0)" transform="matrix(.9942 0 0 .9942.907-30.945)" fill="#f9a72b"/><path d="m32.58 201.18c-.481-.18-.783-.67-.715-1.18l2.345-11.9-8.956 7.85c-.452.33-1.095.27-1.476-.15-2.406-2.07-4.162-4.15-5.592-6.61-.222-.44-.13-.99.249-1.33l8.657-7.06h18.654l-3.558 21.18c-.097.55-.573.93-1.106.92-2.908-.12-5.8-.75-8.493-1.72z" clip-path="url(#0)" transform="matrix(.9942 0 0 .9942.907-30.945)" fill="#ee242d"/></g></svg>