<svg xmlns="http://www.w3.org/2000/svg" viewBox="0 0 260.36 109.09"><path fill="#001a4b" d="m132.39 80.28v17.531h1.781v-17.531h-1.781m12 0v5.563c-.817-.072-1.491-.094-2.188-.094-3.724 0-6.156 2.372-6.156 6.625 0 3.484 1.451 5.656 4.406 5.656 1.922 0 3.452-1.138 4.125-2.844l.031.031c-.144.721-.219 1.873-.219 2.594h1.781v-17.531h-1.781m50.625 0v17.531h1.781v-6.25l4.719 6.25h2.344l-5.125-6.5 4.75-5.438h-2.188l-4.5 5.375v-10.969h-1.781m44.41 0v17.531h1.781v-17.531h-1.781m-111.19 1c-.573.115-1 .63-1 1.219 0 .697.553 1.219 1.25 1.219.673 0 1.25-.522 1.25-1.219 0-.673-.577-1.219-1.25-1.219-.087 0-.168-.016-.25 0m-66.885.219c-1.874 0-3.383.022-4.656.094v16.219h3.125v-6.688h.094l4.531 6.688h3.875l-3.906-5.438c-.408-.553-.856-1.181-1.313-1.781 2.451-.384 4.125-2.129 4.125-4.531 0-3.316-2.295-4.563-5.875-4.563m14.375 0c-1.994 0-3.977.077-5.25.125v16.16c1.37.048 2.849.125 4.531.125 5.286 0 8.938-2.894 8.938-8.469 0-5.694-3.197-7.938-8.219-7.938m44.13.032c-1.946 0-3.426.038-4.531.063v16.219c1.394.024 2.921.094 3.906.094 5.118 0 6.188-3.121 6.188-4.875 0-1.73-1.035-3.39-3.438-3.75v-.063c1.826-.529 3.063-2.066 3.063-3.844 0-2.355-1.656-3.844-5.188-3.844m-74.22.062l-5.688 16.219h3.156l1.125-3.313h6.125l1.156 3.313h3.438l-5.781-16.219h-3.531m73.875 1.438c2.859 0 3.594 1.118 3.594 2.656 0 1.922-1.492 3.063-4.375 3.063-.625 0-1.058-.007-1.563-.031v-5.656c.697-.024 1.551-.031 2.344-.031m-58.48 1.03c1.97 0 2.938.751 2.938 2.313 0 1.514-1.157 2.469-3.03 2.469-.481 0-.909-.007-1.125-.031v-4.688c.312-.048.762-.063 1.219-.063m14.469.062c3.7 0 5.063 2.079 5.063 5.563 0 3.844-2.199 5.563-5.25 5.563-.625 0-1.286-.053-1.719-.125v-10.938c.505-.048 1.185-.063 1.906-.063m-28.25 1.063h.031c.192.913.438 1.705.75 2.594l1.5 4.25h-4.5l1.469-4.125c.312-.937.558-1.878.75-2.719m120.28.439c-2.09 0-3.577 1.176-4.25 2.906h-.063c.12-.721.188-1.887.188-2.656h-1.781v11.938h1.813v-5.75c0-2.835 1.518-4.938 3.656-4.938 1.73 0 2.219 1.095 2.219 2.969v7.719h1.813v-8.344c0-2.114-.855-3.844-3.594-3.844m54.22 0c-2.09 0-3.608 1.176-4.281 2.906h-.063c.12-.721.219-1.887.219-2.656h-1.781v11.938h1.781v-5.75c0-2.835 1.518-4.938 3.656-4.938 1.73 0 2.25 1.095 2.25 2.969v7.719h1.781v-8.344c0-2.114-.823-3.844-3.563-3.844m-43.22.031c-3.244 0-5.188 2.126-5.188 4.625 0 1.538.58 2.772 1.781 3.469-.841.384-1.313 1.121-1.313 1.938 0 .769.443 1.382 1.188 1.719-1.129.577-2.063 1.698-2.063 3.188 0 2.283 1.941 3.5 4.969 3.5 3.676 0 6.281-1.883 6.281-4.406 0-2.09-1.405-3.344-4-3.344h-2.344c-1.49 0-2.156-.334-2.156-1.031 0-.432.274-.846.875-1.063.432.096 1.104.156 1.656.156 3.436 0 5.188-1.953 5.188-4.5 0-1.129-.459-2.072-1.156-2.625h2.156v-1.406h-4.063c-.625-.144-1.14-.219-1.813-.219m11.344 0c-3.03 0-4.688 1.506-4.688 3.5 0 4.253 5.844 2.46 5.844 5.344 0 1.249-1.208 2.031-2.938 2.031-.937 0-1.919-.19-2.688-.406l-.031 1.656c.721.144 1.642.25 2.531.25 3.124 0 4.969-1.667 4.969-3.781 0-4.061-5.813-2.422-5.813-5.281 0-1.177.84-1.875 2.594-1.875.817 0 1.707.142 2.5.406l.031-1.563c-.745-.144-1.568-.281-2.313-.281m18.719 0c-1.61 0-2.996.402-4.125.906l.156 1.563c1.057-.673 2.503-1.031 3.656-1.031 2.066 0 2.719 1.01 2.719 2.813v1c-4.661 0-7.25 1.72-7.25 4.219 0 1.898 1.352 2.906 3.25 2.906 2.042 0 3.58-1.205 4.156-2.719h.063c-.12.697-.125 1.587-.125 2.5h1.781c-.048-1.057-.063-2.385-.063-3.563v-4.688c0-2.258-.927-3.906-4.219-3.906m23.562 0c-1.61 0-2.996.402-4.125.906l.156 1.563c1.057-.673 2.503-1.031 3.656-1.031 2.066 0 2.719 1.01 2.719 2.813v1c-4.661 0-7.25 1.72-7.25 4.219 0 1.898 1.383 2.906 3.281 2.906 2.042 0 3.58-1.205 4.156-2.719h.031c-.12.697-.125 1.587-.125 2.5h1.781c-.048-1.057-.031-2.385-.031-3.563v-4.688c0-2.258-.958-3.906-4.25-3.906m-104.62.219v11.938h1.813v-11.938h-1.813m21.625 0v8.344c0 2.114.855 3.844 3.594 3.844 2.09 0 3.608-1.176 4.281-2.906l.031.031c-.12.721-.188 1.856-.188 2.625h1.781v-11.938h-1.813v5.75c0 2.835-1.487 4.938-3.625 4.938-1.73 0-2.25-1.063-2.25-2.938v-7.75h-1.813m29.28 1.188c1.97 0 3.156 1.109 3.156 3.03s-1.28 2.969-3.25 2.969c-2.02 0-3.188-1.023-3.188-2.969 0-1.754 1.215-3.03 3.281-3.03m-36.406.094c.769 0 1.527.089 2.344.281v4.219c0 2.114-1.184 4.906-3.563 4.906-1.97 0-2.875-1.621-2.875-4.313 0-3.604 1.643-5.094 4.094-5.094m-23.312 2.969c2.667 0 4.781.686 4.781 2.969 0 1.898-1.266 3.313-4.125 3.313-1.057 0-1.786-.084-2.219-.156v-6.094c.384-.024 1.274-.031 1.563-.031m92.28 2.094v.188c0 2.066-1.386 4.156-3.5 4.156-1.177 0-1.969-.7-1.969-1.781 0-1.153.976-2.563 5.469-2.563m23.562 0v.188c0 2.066-1.386 4.156-3.5 4.156-1.177 0-1.938-.7-1.938-1.781 0-1.153.944-2.563 5.438-2.563m-58.12 5.656c.216.024.541.031.781.031h2.438c1.826 0 2.719.758 2.719 2.031 0 1.586-1.537 2.688-4.156 2.688-1.994 0-3.469-.806-3.469-2.344 0-1.01.654-1.878 1.688-2.406"/><path fill-rule="evenodd" fill="#db502b" d="m240.57 5c-8.169 0-14.781 6.632-14.781 14.781 0 8.197 6.612 14.844 14.781 14.844 8.166 0 14.781-6.646 14.781-14.844.0001-8.149-6.61-14.781-14.78-14.781zm0 2.188c6.934 0 12.625 5.64 12.625 12.594 0 7-5.691 12.688-12.625 12.688s-12.625-5.687-12.625-12.688c0-6.954 5.691-12.594 12.625-12.594m-167.81 3.656c-.56 0-1 .457-1 1v62.812c0 .543.441 1 1 1h8.875c.56 0 1-.458 1-1v-62.812c0-.543-.44-1-1-1h-8.875m67.66.031c-.56 0-1 .457-1 1v62.781c0 .558.44 1 1 1h8.906c.559 0 1-.443 1-1v-19.406c0-7.417 4.343-13.719 9.875-13.719 4 0 5.188 2.632 5.188 7.06l-.031 26.06c0 .558.459 1 1 1h8.844c.541 0 1-.443 1-1v-28.688c0-7.404-3.062-13.531-12.594-13.531-6.545 0-11.405 3.147-13.875 7.906l-.2-.093c.599-2.473.781-6.04.781-8.594v-19.781c0-.543-.441-1-1-1h-8.906zm106.16.094l-14.938 5.375v3.688l4.938-1.781v11.125l10-3.563v-14.844m-215.85 19.937c-8.188 0-16.05 8.08-20.22 14.812-1.943 3.415-4.539 8.845-5.281 14.219-.747 5.359.129 11.175 5.5 14.219 8.133 4.631 16.803.614 22.875-4.03.545-.386 1.09-.877 1.719-1.406 1.559-1.329 2.878-2.635 3.906-3.75.029-.043.096-.114.125-.156 1.269-1.33 2.593-2.779 3.906-4.281l.156.313c4.416 7.889 10.233 15.483 19.09 14.812 1.071-.186 1.049-1.106 1.063-2.25.014-2.23-.063-7.25-.063-7.25.029-.8-.583-1.212-1.625-1.313-.486-.043-1.421-.055-1.938-.313-2.356-1.157-3.478-3.291-5.406-6.406-1.273-2.059-2.458-4.296-3.688-6.625 2.502-3.073 12.313-15.469 12.312-15.469 2.759-3.774 1.233-4.03-1.281-4.03l-7.969-.031c-1.156.057-1.934.471-2.219.844-.673.843-1.763 2.292-2.906 3.75-1.229 1.601-2.404 3.172-3.594 4.688-3.501-5.687-7.578-10.344-14.469-10.344zm177.78.438c-8.202 0-16.01 8.08-20.19 14.812-1.958 3.415-4.552 8.862-5.281 14.25-.742 5.359.126 11.143 5.5 14.188 11.232 6.388 23.484-3.686 28.5-9.188.358-.386.527-1.323.125-1.938l-4.719-6.06c-.857-1.015-1.777-1.13-2.938 0-2.986 2.915-4.589 5.334-9.375 7.406-3.516 1.515-5.484.72-6.188-.438-1.829-2.973 3.261-11.257 3.875-12.344 3.915-6.273 8.03-9.278 10.656-9.406.544-.029 1.544.281 2.531 1.281.97.972 1.993 2.435 3.094 4.25 2.232 3.716 4.55 8.553 7.125 13.156 4.401 7.888 10.03 15.05 18.906 14.375 1.057-.171 1.031-1.075 1.031-2.219.014-2.243-.063-7.281-.063-7.281.044-.786-.566-1.196-1.594-1.281-.486-.044-1.421-.069-1.938-.313-2.371-1.157-3.196-2.899-5.125-6-2.045-3.316-3.671-7.3-5.844-11.188-4.486-8.06-8.888-16.06-18.09-16.06zm-92.25.687c-6.388 0-10.892 2.961-13.281 7.906h-.188c.245-1.629.377-3.598.406-5.313.014-.044 0-.938 0-.938 0-.557-.423-1-.969-1h-8.125c-.556 0-1 .443-1 1v63.34c0 .557.444 1 1 1h8.875c.56 0 1.031-.443 1.031-1v-1.094-20.5c1.8.257 3.393.344 5.438.344 14.635 0 22.312-9.279 22.312-24 0-12.519-5.453-19.75-15.5-19.75m-3.156 8.937c4.928 0 7.25 4.083 7.25 12 0 10.476-4.524 14.375-10.656 14.375-2.199 0-3.975-.236-5.688-.75v-11.75c0-7.232 3.391-13.875 9.09-13.875m-82.43 1.218c.527-.029 1.544.28 2.531 1.281.973.972 2.086 2.42 3.188 4.25.515.857 1.064 1.778 1.594 2.75-2 2.415-3.942 4.641-5.875 6.656-2.945 2.873-5.04 5.191-9.781 7.25-3.516 1.515-5.457.705-6.156-.438-1.815-2.973 3.261-11.288 3.875-12.375 3.918-6.274 8.01-9.246 10.625-9.375"/></svg>