<svg xmlns="http://www.w3.org/2000/svg" viewBox="0 0 410 119.68"><defs><clipPath id="0"><path d="m135.25 536h50.985v15.13h-50.985v-15.13"/></clipPath><clipPath id="1"><path d="m138.01 550.4v-11.955h43.599v11.955"/></clipPath></defs><g transform="translate(1458.15-336.51)"><g clip-path="url(#0)" transform="matrix(9.17452 0 0-9.17452-2719.31 5391.19)" fill-rule="evenodd"><g clip-path="url(#1)"><path d="m138.04 541.78c-.647.816 7.836 6.994 10.253 6.673 1.24-.152 2.542-.998 2.629-1.401-1.079.331-1.506.583-2.746.669-2.417.32-9.899-4.04-8.376-5.418-.07-.001-.88-.229-1.76-.523" fill="#ed1c24"/><path d="m145.08 542.16c-.648.816 11 8.548 13.421 8.228 1.239-.153 5.293-2.914 5.381-3.317-2.33 1.784-4.258 1.969-5.498 2.056-2.417.32-14.818-6.124-12.04-6.61.105-.193-.773-.139-1.259-.357" fill="#00adef"/></g><path d="m180.34 542.15l-.357.752h-1.61l-.289-.752h-1.043l1.559 3.624h1.383l1.626-3.624h-1.269m-.636 1.418l-.527 1.246-.516-1.246h1.043m-4.394 2.206h1.211v-3.624h-1.211v3.624m-4.788 0h1.213l1.728-2.085v2.085h.924v-3.624h-.982l-1.959 2.414v-2.414h-.924v3.624m-4.271 0h3.574v-.63h-2.363v-.702h1.905v-.708h-1.905v-.832h2.425v-.752h-3.636v3.624m-6.408 0h1.847l.804-2.17.986 2.17h1.785v-3.624h-1.158v2.958l-1.266-2.958h-.805l-1.212 2.916v-2.916h-.981v3.624m-3.637-.666v-.874h.984c.217 0 .387.044.512.132.125.089.188.194.188.316 0 .116-.058.215-.174.299-.114.085-.271.127-.468.127h-1.042m-1.151.666h2.363c.374 0 .688-.051.941-.151.252-.101.438-.23.558-.389.119-.159.178-.331.178-.516 0-.219-.077-.417-.234-.593-.156-.177-.366-.294-.628-.35l.974-1.625h-1.323l-.813 1.454h-.804v-1.454h-1.212v3.624m-1.79-3.624l-.357.752h-1.609l-.288-.752h-1.043l1.559 3.624h1.381l1.627-3.624h-1.27m-.635 1.418l-.527 1.246-.516-1.246h1.043" fill="#f47216"/><path d="m180.23 538.47v.607l-.689.827h.288l.352-.433c.062-.076.123-.158.182-.243.054.076.119.161.195.255l.347.421h.276l-.714-.827v-.607h-.237m-5.26 0v1.434h.243l.94-1.127v1.127h.227v-1.434h-.243l-.94 1.127v-1.127h-.227m-4.293.589h.606l-.187.397c-.053.113-.095.212-.127.297-.021-.093-.054-.184-.096-.273l-.196-.421m-.517-.589l.688 1.434h.255l.732-1.434h-.271l-.209.434h-.748l-.196-.434h-.251m-3.997.752h.462c.153 0 .262.023.327.069.064.045.096.109.096.192 0 .06-.019.112-.057.154-.037.043-.087.071-.149.085-.043.008-.116.013-.222.013h-.457v-.513m-.237-.752v1.434h.675c.062 0 .114 0 .157-.003.043-.002.081-.006.115-.011.087-.011.16-.034.22-.066.059-.033.107-.079.144-.138.036-.06.055-.125.055-.197 0-.121-.049-.224-.146-.309-.096-.085-.271-.127-.524-.127h-.459v-.583h-.237m-5.04 0v1.434h.356l.424-1.015.085-.213c.019.05.051.126.096.23l.428.998h.318v-1.434h-.228v1.2l-.52-1.2h-.215l-.516 1.221v-1.221h-.228m-4.714.695c0-.172.058-.308.174-.408.116-.099.262-.149.437-.149.177 0 .324.05.439.15.115.101.173.244.173.428 0 .117-.025.219-.074.306-.049.086-.121.154-.216.202-.095.048-.201.072-.319.072-.168 0-.312-.047-.433-.139-.12-.092-.181-.246-.181-.462m-.244.003c0 .238.08.425.239.559.158.135.365.202.617.202.166 0 .314-.031.446-.094.132-.062.233-.151.304-.265.07-.114.105-.243.105-.385 0-.145-.037-.275-.11-.389-.073-.115-.177-.202-.311-.261-.134-.06-.279-.089-.434-.089-.169 0-.319.032-.451.097-.132.065-.232.154-.301.267-.07.113-.104.232-.104.358m-3.405-.195l.237-.049c-.049-.154-.138-.273-.268-.355-.129-.082-.287-.123-.473-.123-.192 0-.349.031-.469.093-.121.063-.213.154-.277.274-.063.12-.095.249-.095.385 0 .148.035.278.106.389.071.111.172.196.305.254.132.058.276.087.434.087.178 0 .328-.036.45-.108.122-.073.207-.175.256-.31l-.233-.044c-.042.104-.102.179-.181.228-.079.048-.178.072-.297.072-.136 0-.251-.026-.344-.079-.093-.053-.158-.124-.196-.214-.037-.09-.056-.181-.056-.274 0-.122.022-.228.066-.319.044-.091.113-.159.206-.204.094-.046.196-.068.305-.068.133 0 .245.03.337.091.092.062.154.152.187.274m-9.377-.503l-.694 1.434h.257l.464-1.042c.023-.051.044-.101.063-.149.006-.017.017-.045.031-.085.028.08.06.159.097.234l.484 1.042h.241l-.7-1.434h-.243zm-4.532 0v1.265h-.59v.169h1.418v-.169h-.592v-1.265h-.236" fill="#231f20"/></g></g></svg>