<svg xmlns="http://www.w3.org/2000/svg" height="146.85" width="600" viewBox="0 0 480 117.48051"><g fill="#df0031"><path d="m41.03.008c-7.371.14-14.703 2.042-21.275 5.375-3.291 1.863-6.41 4.084-9.05 6.8-6.626 7.106-9.917 16.768-10.7 26.325-.019 3.803.057 7.591 0 11.4.347 5.931 1.665 11.888 4.4 17.2.619 1.175.53 2.78 1.85 3.475 3.544 5.457 8.757 9.696 14.65 12.4 13.89 5.742 30.863 4.912 43.27-3.95 2.135-1.769 3.948-3.892 5.9-5.85.657 3.96 1.738 7.827 2.275 11.8 5.116.025 10.233-.051 15.35.05.183-16.13-.128-32.27.125-48.4-.379-5.9-1.171-11.937-3.875-17.275-4.535-9.348-13.863-15.827-23.9-17.975-5.167-1.415-10.563-1.445-15.875-1.325-1.053-.053-2.097-.07-3.15-.05m3.175 10.4c1.278 0 2.533.066 3.775.2 4.295.221 8.528 1.964 11.8 4.75 4.731 4 6.674 10.312 7.375 16.275 1.03 9.639 1.348 19.626-1.45 29.02-2.293 5.919-6.982 10.849-12.85 13.3-7.908 3.184-17.768 2.398-24.35-3.325-4.889-5.173-7.134-12.32-7.45-19.325-.707-4.226-.186-8.536-.375-12.8.417-8.091 1.681-17.247 8.2-22.875 4.116-3.834 9.787-5.22 15.325-5.225"/><path d="m202.13.033c-10.947.442-22.08 4.706-29.45 13.03-8.774 9.734-11.189 23.66-9.875 36.33.802 8.673 4.065 17.19 9.8 23.8 6.228 7.138 15.439 11.182 24.725 12.325-.562.954-1.784.878-2.7 1.225-5.773 1.8-11.174 4.861-15.45 9.15-2.792 3.057-5.133 6.503-6.7 10.35 1.301-.575 2.525-1.292 3.725-2.05 6.645-4.087 14.23-6.847 22.07-7.1 3.127-.695 6.279.237 9.425.3 19.518 2.249 35.27 15.785 54.35 19.525 4.163.916 8.424.405 12.65.55 7.378.36 14.14-3.526 19.55-8.2 2.647-3.234 5.169-6.707 6.35-10.775-1.788.392-2.921 1.905-4.525 2.65-12.01 5.919-26.384 5.216-38.55.1-7.971-2.925-15.374-7.097-23.2-10.35-5.02-2.274-10.331-3.773-15.65-5.125-.771-.038-1.536-.093-2.3-.15 7.188-1.105 14.338-3.429 20.225-7.8 10.321-7.978 15.329-21.39 14.975-34.2.335-9.304-1.85-18.924-7.15-26.675-1.756-2.956-4.494-5.105-6.85-7.55-6.929-5.742-15.843-8.712-24.75-9.35-3.569-.013-7.131.057-10.7 0m4.675 10.275c4.598-.07 9.318.895 13.325 3.15 6.215 3.518 8.953 10.766 9.875 17.5.638 2.912.162 5.888.8 8.8.057 2.944.281 5.926-.325 8.825.006 6.456-1.152 13.166-4.55 18.75-3.904 5.969-11.252 8.649-18.15 8.7-5.647.152-11.597-1.193-16.05-4.8-5.71-4.687-7.317-12.382-8.03-19.375.006-4.02.038-8.05.025-12.08-.284-7.523.974-15.458 5.225-21.825 3.714-4.921 9.893-7.234 15.9-7.575.649-.052 1.293-.065 1.95-.075"/><path d="m269.45 1.183c-.019 27.932.019 55.868 0 83.8 6.803-.019 13.597.051 20.4-.025-.101-27.926-.018-55.849-.05-83.77-6.784-.006-13.566-.006-20.35 0"/><path d="m432.05.033c-5.508.31-10.99 1.466-16.1 3.55-2.533 1.219-5.06 2.517-7.525 3.85-1.712 1.668-3.606 3.102-5.375 4.7-2.01 2.438-3.978 4.946-5.5 7.725-5.186 10.195-6.239 22.02-4.925 33.25 1.042 8.862 4.838 17.578 11.325 23.8 5.976 5.382 13.741 8.567 21.725 9.3 7.694 1.061 15.711.131 22.925-2.775 5.42-2.122 10.37-5.625 13.825-10.35.196 1.396.484 2.786.825 4.15.278 2.034.96 3.991 1.225 6.03.114.619.108 1.877 1.1 1.7 4.794.095 9.581-.045 14.375.075.082-16.973 0-33.952.05-50.925-.531-6.43-2.01-13.05-5.85-18.375-1.705-2.836-4.294-4.957-6.625-7.25-6.803-5.457-15.559-7.989-24.18-8.45-3.771.025-7.529.019-11.3 0m4 10.325c4.327.025 8.872.508 12.725 2.675 2.628 1.32 4.63 3.589 6.525 5.775 3.518 5.249 4.194 11.741 4.8 17.875-.164 8.3.81 16.986-2.475 24.85-2.678 6.651-8.665 11.655-15.55 13.5-4.668 1.099-9.627 1.117-14.2-.475-5.451-1.674-9.796-6.12-11.9-11.35-2.937-7.656-3.113-15.99-3.02-24.07.556-2.716.3-5.484.85-8.2.587-4.118 1.952-8.156 4.1-11.725 4.02-5.925 11.189-8.717 18.15-8.85"/><path d="m115.85 12.306c7.359-7.454 17.952-10.751 28.18-11.502 2.318.221 4.573-.505 6.879-.436 3.929.638 7.971.303 11.837 1.383-1.788 2.842-3.48 5.761-4.984 8.767-5.413.373-10.94-.537-16.24.954-4.895 1-9.355 4.175-11.616 8.673-3.499 6.178-3.297 13.454-3.942 20.283.057 14.85-.019 29.701.038 44.551-6.632.044-13.258-.038-19.891.044-.227-14.863 0-29.732-.114-44.595.417-10.01 2.729-20.649 9.854-28.12z"/><path d="m304.64 1.233c7.06-.133 14.12-.006 21.19-.069 7.277 18.887 14.901 37.64 22.01 56.58 3.872-7.744 7.07-15.817 10.662-23.693 4.978-10.928 9.532-22.05 14.68-32.903 5.306.069 10.618-.006 15.924.044-1.301 4.699-4.169 8.736-5.95 13.233-7.239 14.97-14.389 29.985-21.609 44.961-3.91 8.584-8.332 16.935-12.09 25.588-3.064.013-6.121.032-9.178-.013-11.88-27.899-23.78-55.806-35.63-83.73z"/></g></svg>