<svg xmlns="http://www.w3.org/2000/svg" height="739.68" width="600" viewBox="0 0 158.75 195.70755" xmlns:xlink="http://www.w3.org/1999/xlink"><defs><linearGradient id="4" gradientUnits="userSpaceOnUse" x2="0" y1="395.98" y2="359.34"><stop stop-color="#005daa"/><stop stop-color="#63b2e3" offset=".989"/><stop stop-color="#63b2e3" offset="1"/></linearGradient><linearGradient id="5" gradientUnits="userSpaceOnUse" x2="0" y1="444.57" y2="378.56" xlink:href="#4"/><linearGradient id="3" gradientUnits="userSpaceOnUse" x2="0" y1="445.04" y2="397.13" xlink:href="#4"/><linearGradient id="1" gradientUnits="userSpaceOnUse" x2="0" y1="360.12" y2="294.01" xlink:href="#4"/><linearGradient id="0" gradientUnits="userSpaceOnUse" x2="0" y1="392.23" y2="350.17" xlink:href="#4"/><linearGradient id="2" gradientUnits="userSpaceOnUse" x2="0" y1="381.27" y2="350.5" xlink:href="#4"/></defs><g transform="translate(103.94-292.88)"><path fill="url(#1)" d="m-24.763 293.27c-.592 0-1.119.39-1.311.96l-15.1 45.55c-.142.42-.066.88.192 1.25.263.35.683.57 1.129.57l13.894-.07 20.672 18.24c.476.41 1.159.47 1.676.13.526-.34.749-.99.562-1.58l-20.388-64.08c-.182-.58-.709-.97-1.311-.97h-.001"/><path d="m-26.363 341.18l21.07 18.59c.471.41 1.154.47 1.676.13s.749-.99.562-1.58l-20.384-64.08c-.186-.57-.713-.96-1.31-.97-.602 0-1.134.39-1.321.95l-15.11 45.55c-.142.43-.066.89.192 1.26.263.35.683.57 1.129.57l14.415-.08c-.339 0-.668-.12-.921-.34z" stroke="#0062af" stroke-width=".774" fill="none"/><path fill="url(#0)" d="m53.03 349.7l-48 .24c-.44.0001-.855.23-1.114.59-.258.36-.324.83-.177 1.24l4.485 13.12-10.716 25.41c-.243.58-.071 1.24.415 1.63.486.39 1.174.4 1.681.02l54.25-39.76c.481-.35.684-.97.496-1.55-.187-.55-.718-.94-1.311-.94"/><path d="m8.43 364.4l-10.923 25.9c-.243.58-.066 1.24.415 1.63.486.38 1.174.4 1.68.03l54.25-39.77c.481-.35.683-.98.496-1.55-.188-.56-.719-.95-1.321-.94l-47.996.24c-.44.001-.86.22-1.118.59-.258.36-.324.83-.177 1.24l4.657 13.62c-.111-.32-.096-.68.035-.99z" stroke="#0062af" stroke-width=".774" fill="none"/><path fill="url(#2)" d="m-34.932 350.15l-67.25.36c-.6 0-1.13.39-1.31.95-.18.58.02 1.2.51 1.55l39 28c.359.26.825.33 1.25.19.42-.15.749-.48.881-.91l4.054-13.28 23.583-14.29c.531-.32.784-.96.612-1.56-.167-.59-.709-1.01-1.326-1.01"/><path d="m-58.24 367.28l24.03-14.56c.532-.32.785-.96.618-1.56-.172-.59-.719-1.01-1.342-1.01l-67.25.36c-.6 0-1.13.39-1.31.95-.18.58.02 1.2.51 1.55l39.01 28c.355.26.82.32 1.245.19.421-.15.75-.48.881-.91l4.206-13.79c-.096.33-.313.6-.602.78z" stroke="#0062af" stroke-width=".774" fill="none"/><path fill="url(#5)" d="m-51.975 377.82c-.602 0-1.134.39-1.321.97l-20.708 63.98c-.187.56.021 1.19.507 1.54.486.34 1.139.34 1.629 0l38.788-28.26c.36-.27.572-.69.572-1.13-.005-.44-.227-.86-.587-1.12l-11.338-8.03-6.201-26.88c-.136-.59-.663-1.03-1.285-1.07h-.056"/><path d="m-44.31 406.29l-6.317-27.39c-.137-.61-.668-1.05-1.286-1.08-.622-.02-1.184.37-1.377.97l-20.707 63.98c-.187.56.02 1.19.501 1.54.486.35 1.144.35 1.63 0l38.793-28.26c.359-.26.567-.68.567-1.13-.005-.44-.223-.86-.582-1.12l-11.769-8.33c.274.2.476.49.547.82z" stroke="#0062af" stroke-width=".774" fill="none"/><path fill="url(#3)" d="m8.138 396.88l-11.161 8.27-27.47-2.49c-.618-.06-1.2.3-1.417.88-.218.59-.026 1.25.481 1.61l54.33 39.63c.491.35 1.139.36 1.63 0 .481-.35.683-.98.501-1.54l-14.755-45.68c-.137-.41-.466-.75-.886-.89-.137-.04-.278-.07-.425-.07-.293 0-.582.09-.825.28"/><path d="m-2.495 405.2l-27.996-2.54c-.623-.06-1.205.3-1.422.89-.218.57-.021 1.24.486 1.6l54.33 39.63c.486.35 1.139.35 1.625 0s.688-.98.501-1.54l-14.75-45.68c-.137-.42-.466-.75-.891-.89-.425-.13-.891-.06-1.245.21l-11.581 8.58c.273-.2.612-.29.946-.26z" stroke="#0062af" stroke-width=".774" fill="none"/><path fill="url(#4)" d="m-24.15 358.94c-4.955.03-9.526 1.37-11.778 2.76l1.918 7.1c1.422-.77 4.611-2.06 7.643-2.08 3.083-.001 4.799 1.19 4.814 3.01.001 2.48-3.128 3.27-5.608 3.28l-3.529.02.036 7.05 3.746-.02c3.254-.001 6.291 1.35 6.312 4.27.015 2.53-2.298 3.81-5.827 3.83-3.416.02-7-1.35-8.544-2.1l-1.837 7.45c2.263 1.36 6.347 2.5 11.252 2.48 9.263-.05 15.292-4.55 15.261-11.17-.025-4.57-3.457-7.74-7.704-8.44v-.1c4.399-1.58 6.535-4.51 6.515-8.32-.031-5.09-4.692-9.02-12.558-9.02h-.112"/><path d="m-34.971 386.06c1.549.76 5.132 2.12 8.549 2.1 3.528-.02 5.836-1.3 5.826-3.83-.015-2.92-3.057-4.28-6.312-4.26h-3.745l-.036-7.05 3.528-.02c2.48-.0001 5.613-.8 5.603-3.28-.0001-1.82-1.726-3.02-4.808-3.01-3.03.02-6.221 1.31-7.649 2.08l-1.908-7.1c2.248-1.39 6.813-2.73 11.774-2.76 7.937-.04 12.644 3.9 12.669 9.02.02 3.81-2.116 6.74-6.514 8.31v.11c4.247.7 7.678 3.87 7.704 8.44.03 6.62-6 11.12-15.266 11.17-4.9.02-8.985-1.12-11.253-2.48z" stroke="#0062af" stroke-width=".774" fill="none"/><g fill="#005faa"><path d="m-71.08 478.5h-11.561l-.749-.94-.719.94h-14.785c-.036 0-.066-.67-.066-2.02v-5.26c0-2.09.784-3.85 2.348-5.31 1.605-1.47 3.427-2.19 5.553-2.19h7.669v-3.01h5.486v12.84h6.824zm-21.18-28.07c1.301 0 2.116 1.08 2.116 2.12 0 1.18-.683 2.22-1.989 2.22h-.197c-1.271 0-2.157-1.14-2.157-2.22 0-1.14.851-2.12 1.995-2.12zm1.402 18.51c-1.341 0-2.419 1.14-2.419 2.42v2.19h9.891v-4.67zm4.404-18.51c.618 0 1.144.22 1.6.72.359.43.526.92.526 1.47 0 1.08-.719 2.15-1.994 2.15h-.258c-1.276 0-2.157-1.04-2.157-2.22 0-1.14.846-2.12 2.02-2.12z"/><path d="m-65.56 473.55c.264 0 .456-.04.588-.07.227-.13.329-.36.359-.52.03-.1.066-.33.066-.75v-6.6h5.547v7.94h7.578v4.95h-21.71v-4.95zm-.425 9.95c1.402 0 2.318 1.14 2.318 2.45 0 .68-.161 1.21-.521 1.6-.359.49-.916.75-1.599.75h-.264c-1.437 0-2.414-1.14-2.414-2.48 0-.62.162-1.18.521-1.67.522-.62 1.048-.65 1.666-.65zm6.398.07c.749 0 1.372.23 1.797.71.425.56.618 1.12.618 1.74 0 .58-.162 1.14-.517 1.62-.46.5-1.017.72-1.7.72h-.259c-.754 0-1.341-.22-1.731-.72-.425-.48-.622-1.07-.622-1.76 0-.39.066-.78.227-1.14.102-.16.198-.36.329-.52.355-.42.912-.65 1.666-.65z"/><path d="m-54.23 473.55h6.433v-12.67h19.356c2.121 0 3.852.81 5.644 2.35 2.06 1.79 3.138 3.72 3.138 6.43v8.84h-34.571zm29.545 0v-3.69c0-3.3-2.546-3.89-3.108-3.92-.192-.04-.551-.04-1.037-.04-.036-.03-14.01-.03-14.01-.03v7.68zm-11.394-20.96c1.21 0 2.157.91 2.157 2.21 0 1.18-.785 2.16-1.995 2.16h-.293c-1.306 0-2.06-.95-2.06-2.22 0-1.18.789-2.15 1.928-2.15z"/><path d="m-3.637 478.5h-11v-28.88h4.966v23.93h6.04z"/><path d="m-5.887 473.55h9.202l.526-.14c.162-.1.288-.23.324-.39.03-.1.066-.29.066-.59v-6.75h5.03v10.77l-.126.72c-.101.26-.197.49-.364.68-.42.53-.916.65-1.923.65h-12.73zm7.866 9.92c1.402 0 2.121 1.04 2.121 2.22 0 .55-.162 1.04-.455 1.47-.425.45-.916.68-1.539.68h-.192c-1.341 0-2.151-1.05-2.151-2.22 0-1.27.78-2.15 1.989-2.15zm5.811.06c1.306 0 2.121 1.08 2.121 2.16 0 1.17-.719 2.15-1.989 2.15h-.197c-1.438 0-2.222-.98-2.222-2.15 0-1.18.82-2.16 2.09-2.16z"/><path d="m24.666 478.5v3.01c0 .88-.065 1.67-.197 2.28-.162.72-.486 1.37-.911 2-.719 1-1.665 1.79-2.809 2.28-1.013.36-2.253.52-3.69.52h-2.804v-4.8h2.51c1.832 0 2.906-.87 2.906-2.48v-15.7h4.93v7.94h6.04v4.95z"/><path d="m34.917 473.55v-23.93h5.03v28.88h-11.455v-4.95z"/><path d="m45.17 478.51h4.926v-28.89h-4.926z"/></g></g></svg>