<svg xmlns="http://www.w3.org/2000/svg" viewBox="0 0 600 144.84"><g fill="#eb741b" transform="scale(1.41769)"><path d="m4.42 53.03s.389-35.914 56.01-36.04c23.08.13 51.861 6.353 51.731 29.561v55.621h-40.84v-24.375c-.13.259-10.113 3.76-17.762 6.094-5.056 1.426-9.08 4.408-9.594 9.594-.13 4.408 4.927 8.557 4.797 8.687h-40.452c.26-.13-8.686-3.375-8.297-13.1.778-18.281 14.91-25.02 50.05-29.04 18.929-2.334 21.13-4.149 21.263-8.687-.13-4.149-2.463-8.557-12.965-8.686-15.688 0-14.651 10.502-14.391 10.372h-39.544z"/><path d="m134.33 19.578v82.59h41.748v-39.544c.13-7.131 2.074-10.372 4.797-12.576 2.723-3.112 7.779-5.316 13.484-5.316h11.669v-25.15c-.13-.259-6.223-2.982-14.78-1.686-13.743 1.945-18.54 13.225-18.67 13.354v-11.669h-38.25z"/><path d="m216.01 19.578v25.15h16.984v33.45c.13 7.65-.13 13.484 5.186 19.19 4.797 4.797 10.891 4.538 18.281 4.797h17.892v-57.44h24.764v-25.15h-24.764v-19.578h-41.36v19.578h-16.984"/><path d="m363.04 60.03h19.448c0 .13 1.815-16.725-17.762-16.595-19.19-.259-17.11 16.725-16.984 16.595h15.299v20.744h-14.391v21.393h-30.08c0-.13-12.576-11.409-12.06-33.969.259-51.47 55.88-50.564 57.695-50.3 69.62.519 58.34 63.14 58.34 62.881h-59.51v-20.744z"/></g></svg>