<svg xmlns="http://www.w3.org/2000/svg" viewBox="0 0 600 102.17"><defs><linearGradient id="0" y2="124.04" gradientUnits="userSpaceOnUse" x2="622.38" y1="252.69" x1="461.02"><stop stop-color="#535353"/><stop stop-color="#bbbcbe" offset="1"/></linearGradient></defs><g transform="matrix(.90537 0 0 .90537-2.882-80.34)"><path fill="url(#0)" d="m501.8 88.77h151.08c7.21 0 13.01 5.805 13.01 13.02v84.61c0 7.21-5.805 13.01-13.01 13.01h-151.08c-7.21 0-13.01-5.805-13.01-13.01v-84.61c0-7.21 5.805-13.02 13.01-13.02"/><g fill="#fff" fill-rule="evenodd"><path d="m511.25 106.29v76.49h19.511v-28.654h24.21v28.654h19.511v-76.49h-19.511v28.14h-24.21v-28.14h-19.511"/><path d="m585.51 106.29v76.49h22.748c24.501 0 43.01-10.07 43.01-39.498 0-29.18-18.615-36.993-43.01-36.993-5.925.065-22.748 0-22.748 0m19.396 17.994s4.732 0 6.607 0c17.556 0 19.286 11.04 19.493 19.255.213 8.438-1.943 20.578-18.999 20.755-2.025.021-7.101 0-7.101 0v-40.01"/></g><g fill="#eb741b"><path d="m8.07 147.31s.43-39.668 61.864-39.811c25.49.143 57.28 7.02 57.14 32.65v61.43h-45.11v-26.922c-.143.286-11.17 4.153-19.619 6.731-5.585 1.575-10.02 4.869-10.597 10.597-.143 4.869 5.442 9.451 5.298 9.595h-44.68c.286-.143-9.595-3.723-9.165-14.464.859-20.19 16.468-27.638 55.28-32.08 20.908-2.578 23.342-4.583 23.485-9.595-.143-4.583-2.721-9.451-14.32-9.595-17.328 0-16.182 11.6-15.896 11.456h-43.677z"/><path d="m151.56 110.37v91.22h46.11v-43.677c.143-7.876 2.291-11.456 5.298-13.891 3.01-3.437 8.592-5.871 14.893-5.871h12.888v-27.782c-.143-.286-6.874-3.294-16.325-1.862-15.18 2.148-20.478 14.607-20.621 14.75v-12.888h-42.25"/><path d="m241.77 110.37v27.782h18.76v36.947c.143 8.449-.143 14.893 5.728 21.19 5.299 5.298 12.03 5.01 20.19 5.298h19.762v-63.44h27.352v-27.782h-27.352v-21.624h-45.682v21.624h-18.76"/><path d="m404.17 155.05h21.481c0 .143 2-18.473-19.619-18.33-21.19-.286-18.903 18.473-18.76 18.33h16.898v22.913h-15.896v23.629h-33.22c0-.143-13.891-12.602-13.318-37.519.286-56.852 61.721-55.849 63.726-55.56 76.9.573 64.44 69.74 64.44 69.45h-65.731v-22.913"/></g></g></svg>