<svg xmlns="http://www.w3.org/2000/svg" viewBox="0 0 1052.36 744.09"><defs><radialGradient cx="339.67" cy="254.81" r="255.43" id="0" gradientUnits="userSpaceOnUse" gradientTransform="matrix(0-1 1 0-103.31 634.5)"><stop stop-color="#fff"/><stop offset="1" stop-color="#fff" stop-opacity="0"/></radialGradient></defs><path d="m56.974 592.22c-53.54-109.03-55.35-218.51-5.04-304.64 21.293-36.446 52.08-69.7 84.1-90.86 56.13-37.08 138.6-51.657 216.3-38.22 58.23 10.07 110.25 35.1 151.67 72.989 11.732 10.732 24.999 25.16 23.569 25.641-.607.202-6.646-3.434-13.421-8.08-52.84-36.25-107.36-58.958-162.86-67.837-19.677-3.148-64.65-3.398-83.46-.464-98.5 15.363-184.82 80.57-218.9 165.37-13.36 33.24-18.06 59.793-18.03 101.75.042 52.577 10.559 102.07 32.813 154.43 6.217 14.628 3.108 9.979-6.745-10.09m305.47-41.96c-12.637-2.652-24.333-7.29-28.648-11.36l-3.52-3.32 2.415-6.353c4.61-12.13 6.01-15.357 6.952-15.99.519-.35 4.343.913 8.497 2.806 22.269 10.148 39.783 10.978 45.17 2.14 5.946-9.752.03-16.631-20.545-23.89-19.499-6.879-27.822-12.626-33.53-23.15-5-9.229-5.102-25.673-.214-35.992 7.912-16.703 23.547-25.777 44.41-25.777 15.261 0 36.03 5.313 40.855 10.452l2.155 2.294-4.081 9.806c-5.449 13.09-5.094 12.767-11.363 10.437-24.19-8.99-43.665-5.758-43.665 7.246 0 6.273 4.098 9.535 18.5 14.725 23.291 8.394 32.933 15.08 38.719 26.838 3.134 6.37 3.281 7.183 3.281 18.238 0 11.364-.067 11.707-3.766 19.19-10.02 20.263-31.804 27.921-61.63 21.662m121.37.312c-6.754-2.336-10.697-5.302-14.323-10.777-5.718-8.632-6.395-14.468-6.922-59.671l-.475-40.75h-10.834-10.834l-.649-3.462c-1.155-6.159-.119-20.499 1.559-21.559.825-.521 5.887-.955 11.25-.963l9.75-.015v-17.309c0-12.761.347-17.783 1.32-19.11 1.936-2.648 32.33-6.742 33.722-4.542.51.806.934 10.353.942 21.22l.015 19.75h15.918c8.755 0 16.63.273 17.5.607 2.112.81 1.962 3.99-.727 15.393l-2.24 9.5-15.26.276-15.26.276.284 38.563.284 38.563 2.361 1.911c3.315 2.684 9.605 2.441 19.236-.742 6.862-2.268 8.219-2.449 9.351-1.25 1.264 1.339 6.581 22.513 6.562 26.13-.036 6.936-38.598 12.786-52.53 7.969m196.52.222c-30.22-7.951-47.15-39.973-42.971-81.25 3.835-37.864 25.511-60.17 58.47-60.17 32.958 0 54.704 22.517 58.5 60.58 3.559 35.655-9.403 66.37-32.503 77.02-11.684 5.387-29.362 7.01-41.5 3.821m25.739-29.06c7.768-5.755 10.312-13.858 10.995-35.03 1.201-37.24-5.732-51.17-24.41-49.07-12.995 1.465-18.346 14.266-18.283 43.733.054 25.23 4.256 37.854 13.96 41.93 4.087 1.717 14.554.791 17.739-1.568m234.49 27.389c-.558-.688-1.943-4.625-3.078-8.75-1.135-4.125-12.208-44.07-24.608-88.77-12.399-44.697-22.576-82.05-22.614-83-.077-1.906-1.609 2.89-4.974 15.57-3.124 11.77-1.922 11.198-23.528 11.198h-18.429v75.46c0 73.59-.048 75.49-1.934 76.5-3.343 1.789-31.622 1.336-33.494-.536-1.401-1.401-1.571-9.716-1.571-76.5v-74.929h-19.481c-23.04 0-20.73 2.108-20.307-18.5l.288-14 60.5-.27c60.37-.269 60.5-.266 62.22 1.826.947 1.153 2.171 1.819 2.719 1.48.549-.339 8.75-1.956 18.225-3.594 15.04-2.599 17.412-2.793 18.675-1.529 2.52 2.52 30.903 139.13 31.24 150.36.045 1.498 1.182-3.127 2.526-10.277 2.255-11.996 30.2-129.99 32.483-137.16.554-1.739 1.597-3.388 2.319-3.665 1.311-.503 29.366 2.803 32.662 3.849 3.02.959 2.816 2.519-3.088 23.487-3.173 11.27-11.236 39.841-17.917 63.49-6.681 23.65-15.557 55.15-19.724 70-4.167 14.85-8.03 27.563-8.582 28.25-.741.922-6.06 1.25-20.26 1.25-14.196 0-19.522-.328-20.27-1.25m-765.48-1.439c-2.794-.73-2.23-3.558 6.178-30.966 24.461-79.74 32.556-106.2 39.11-127.84 3.996-13.2 7.703-24.563 8.237-25.25.712-.917 5.707-1.25 18.726-1.25 19.789 0 19.224-.189 21.478 7.204 2.482 8.139 24.72 81.33 30.02 98.8 2.92 9.625 9.416 30.964 14.435 47.42 6.52 21.375 8.819 30.23 8.05 31-1.834 1.838-36.38 2.041-38.19.225-.813-.813-4.336-12.09-7.829-25.06l-6.352-23.584h-22.765-22.765l-.988 3.75c-.543 2.063-3.233 12.736-5.978 23.719-3.396 13.59-5.55 20.378-6.742 21.25-1.703 1.245-30.25 1.733-34.619.592m86.25-75.64c0-.733-2.679-12.545-5.952-26.25-3.274-13.705-6.749-30.431-7.722-37.17-1.587-10.988-3.325-16.15-3.325-9.88 0 5.489-4.412 26.763-10.345 49.88l-6.352 24.75h16.849c13.364 0 16.849-.275 16.849-1.332m294.2 75.13c-.9-.9-1.202-13.22-1.208-49.25-.008-50.738-.366-56-4.686-68.856-2.244-6.678-2.42-7.993-1.215-9.1 1.771-1.627 23.873-10.595 26.11-10.595 2.989 0 9.796 12.881 9.796 18.537 0 .915 3.068-1.542 7.25-5.807 9.966-10.164 14.492-12.23 26.796-12.23 9.826 0 14.225 1.435 15.63 5.098.626 1.631-8.144 26.14-10.08 28.18-.98 1.029-2.038.982-5.528-.25-9.08-3.204-15.842-1.237-24.815 7.217l-3.25 3.062v45.665c0 29.565-.365 46.35-1.035 47.599-.956 1.787-2.237 1.934-16.8 1.934-10.928 0-16.13-.368-16.965-1.2"/><path d="m289.29 153.2c-44.993.196-90.18 10.02-130.56 29.982-50.02 25.19-89.22 68.849-114.85 118.15-18.811 37.462-28.853 79.46-28.616 121.5-1.349 49.07 10.64 97.72 29.23 142.85 4.277 9.714 8.09 19.755 13.547 28.88 4.13.952 1.428-4.925.595-6.808-23.471-58.37-31.17-122.88-24.03-185.41 9.01-70.18 53.05-132.8 110.85-172.01 37.613-25.835 81.33-43.11 126.62-49.09 34.31-1.673 69.36-3.222 102.87 5.597 50.835 11.228 97.97 35.23 140.95 64.04 3.253 1.044 6.675 6.103 10.119 4.169-.616-4.746-6.559-7.697-9.198-11.54-43.614-45.842-102.95-75.17-165.15-85.65-20.549-4.03-41.47-4.915-62.38-4.661" fill="url(#0)"/></svg>