<svg xmlns="http://www.w3.org/2000/svg" viewBox="0 0 593.7 609.67"><path d="m443.19 252.15c-6.534-1.897-11.83-4.276-17.238-7.746l-4.762-3.056v-16.407-16.407l5.317 6.261c10.01 11.791 19.305 16.761 31.33 16.761 8.356 0 13.311-2.568 16.481-8.543 2.056-3.875 2.139-4.61.966-8.524-1.805-6.03-9.452-12.97-23.598-21.433-14.539-8.697-24.385-17.53-28.2-25.297-2.491-5.072-2.794-6.755-2.741-15.203.05-7.961.468-10.391 2.585-15 3.298-7.181 11.915-15.11 19.609-18.05 7.214-2.756 22.624-3.752 30.379-1.965 5.655 1.304 19.855 7.591 19.887 8.806.074 2.797.13 26.876.064 27.517-.046.443-2.622-1.263-5.725-3.791-10.745-8.752-19.697-12.218-29.19-11.302-9.798.946-15.168 5.648-15.168 13.281 0 5.393 6.438 11.652 19.838 19.287 20.614 11.744 28.832 19.415 33.18 30.968 2.974 7.9 2.501 23.363-.93 30.468-3.597 7.447-9.444 13.34-16.863 16.997-6.31 3.11-7.316 3.298-18.697 3.487-7.524.125-13.714-.289-16.529-1.106m-162-.567c0-.535.901-2.898 2-5.25 1.102-2.352 13.508-31.28 27.569-64.28 14.06-33 26.1-61.09 26.747-62.42 1.11-2.275 1.68-2.418 9.489-2.394l8.308.026 29.942 67.35c16.468 37.04 29.942 67.5 29.942 67.67 0 .177-5.667.196-12.594.042l-12.594-.28-7.344-16.5-7.344-16.5h-27.741-27.741l-7.07 16.75-7.07 16.75h-12.251c-7.276 0-12.251-.395-12.251-.973m83-56.44c0-.378-17.04-38.825-17.415-39.3-.148-.185-14.546 33.659-16.15 37.957-.605 1.624.581 1.75 16.455 1.75 9.409 0 17.11-.185 17.11-.412m189 1.412v-56h-22-22v-11.5-11.5h56.5 56.5v11.5 11.5h-22.5-22.5v56 56h-12-12v-56m85-11.616v-67.62l23.25.523c12.788.288 25.22 1.031 27.635 1.652 7.497 1.93 14.98 6.207 19.713 11.267 6.571 7.02 8.693 12.448 9.209 23.53.686 14.726-3.237 23.879-13.334 31.11l-5.139 3.68 3.245 3.41c3.967 4.168 9.991 14.203 20.482 34.12 4.384 8.322 9.237 17 10.784 19.288 1.547 2.286 3.142 4.719 3.543 5.407.569.976-2.408 1.247-13.58 1.236l-14.309-.014-9.5-18.655c-11.274-22.14-15.624-29.18-20.14-32.587-3.715-2.804-9.628-4.717-14.608-4.726l-3.25-.006v28 28h-12-12v-67.62m46.14-13.12c5.886-2.603 8.873-6.852 9.507-13.52.399-4.195.034-6.132-1.823-9.685-3.359-6.427-7.823-8.407-20.06-8.899l-9.756-.392v17.755 17.755l8.796-.501c5.694-.325 10.399-1.211 13.342-2.513m57.12 79.52c.273-.704 12.438-29.18 27.03-63.28 14.595-34.1 27.298-63.912 28.23-66.25l1.695-4.25h8.641 8.641l29.22 65.749c16.07 36.16 29.504 66.54 29.857 67.5.589 1.607-.371 1.75-11.75 1.75h-12.391l-7.555-16.75-7.555-16.75h-27.754-27.754l-3.406 8.25c-1.873 4.537-4.938 11.963-6.81 16.5l-3.404 8.25-12.714.281c-10.01.221-12.609.009-12.218-1m82.83-56.993c-2.063-5.305-16.269-36.35-16.946-37.04-.808-.817-17.234 37.29-16.551 38.4.231.374 8.06.735 17.403.803l16.984.124-.89-2.288m-39.948-123.79c-60.41-61.32-137.21-94.64-213.14-92.48-72.67 2.073-140.49 32.954-201.73 91.85-5.648 5.432-10.269 9.344-10.269 8.693 0-1.566 10.325-23.457 15.833-33.569 18.765-34.452 49.584-68.24 81.15-88.96 35.824-23.518 72.48-35.08 115.04-36.27 36.981-1.04 68.02 5.742 101.62 22.2 13.598 6.662 33.14 19.1 43.31 27.563 27.39 22.794 50.67 52.46 67.738 86.32 4.618 9.162 10.46 22.788 10.1 23.553-.154.325-4.492-3.684-9.639-8.909m-339.02-164.63c2.205-5.144 131.51-262.35 131.87-262.33.619.041 131.02 261.12 131.01 262.3-.004.468-2.534-1.459-5.622-4.282-39.37-35.98-108.6-51.677-171.88-38.969-29.531 5.931-56.32 18.715-77.42 36.954-4.58 3.957-8.158 6.802-7.952 6.321" fill="#095ba5" transform="translate(-281.19 356.4)"/></svg>