<svg xmlns="http://www.w3.org/2000/svg" height="644.91" width="600" viewBox="0 0 158.75 170.63356"><g transform="translate(-15.875-78.64)"><path d="m171.7 100.74c0 12.21-9.9 22.1-22.11 22.1s-22.1-9.89-22.1-22.1c0-12.205 9.89-22.1 22.1-22.1s22.11 9.899 22.11 22.1" fill="#d10d27"/><g fill="#fff"><path d="m136.63 92.17h13.97v3.367h-5.17v14.12h-3.64v-14.12h-5.16z"/><path d="m152.57 92.17h10.58v3.343h-7.22v2.688h.32c3.06 0 4.83.789 6.11 2.183.88.95 1.49 2.22 1.49 3.81 0 3.67-3.4 5.95-6.6 5.79-2.47-.11-3.82-.44-5.85-1.46l1.32-2.92c1.27.78 2.77 1.15 4.28 1.15 2.47 0 3.53-1.15 3.53-2.58 0-1.84-1.26-3.02-4.27-3.02-1.37 0-3.69.06-3.69.06z"/><path d="m128.46 102.79l2.31-6.131 2.32 6.131zm7.18 6.81h3.69l-6.7-17.485h-3.47c-1.11 2.63-1.73 5.531-1.73 8.565 0 1.89.24 3.73.69 5.48h6.23z"/><path d="m95.83 136.35c2.778 7.72 18.304 53.44 18.624 54.35.35 1.01-.38.86-.38.86h-38.35s-.668.08-.362-.7c.277-.71 16.566-46.45 19.481-54.41.283-.78.718-.84.985-.1m17.784-43.24h-36.513s-1.04-.117-1.402.837c-.361.948-59.24 153.21-59.705 154.34-.464 1.12.626.98.626.98h40.913c1.358 0 1.711-1.16 1.711-1.16s7.602-20.26 7.972-21.29c.367-1.04 1.5-.89 1.5-.89h53.44s1.06-.19 1.53.99c.47 1.17 7.69 20.13 8.16 21.31.41 1.04 1.54 1.04 1.54 1.04h40.46s1.13-.03.68-1.23c-.45-1.21-59.16-152.88-59.57-153.99-.41-1.097-1.34-.933-1.34-.933"/></g></g></svg>