<svg xmlns="http://www.w3.org/2000/svg" viewBox="0 0 339.84 235.68" xmlns:xlink="http://www.w3.org/1999/xlink"><defs><clipPath id="Z"><path d="m56.993 68.26h.002c.789 0 1.628.094 2.493.277 3.69.78 6.149 2.227 7.517 4.418 1.782 2.855 1.898 7.242.357 13.766l-1.445-3.28c.772-4.393.545-7.418-.682-9.381-1.066-1.71-3.03-2.817-6.178-3.484-.724-.152-1.418-.23-2.062-.23h-.002c-2.451 0-3.472 1.054-3.948 2.163l-1.973-.681c1.167-2.911 3.794-3.568 5.921-3.568"/></clipPath><clipPath id="R"><path d="m60.785 82.25c-1.381-.581-2.809-1.183-4.073-1.83-.025-.013-.048-.024-.073-.035-4.667-2.205-5.323-4.078-4.87-6.215.214-1.012.688-2.27 2.226-2.855-.713.64-1 1.489-1.156 2.213-.453 2.137.203 4.01 4.87 6.214.024.012.049.024.072.035 1.265.648 2.692 1.249 4.073 1.832 1.126.475 2.229.941 3.266 1.432-.052.353-.108.712-.173 1.084-1.288-.664-2.706-1.261-4.162-1.875"/></clipPath><clipPath><path d="m48.726 153.08h174.25v-60.49h-174.25v60.49"/></clipPath><clipPath><path d="m57.45 104.02c-.866 0-1.767-.094-2.607-.272-5.597-1.186-6.153-4.499-6.084-6.889.005-.161-.007-.319-.033-.473v-2.822c1.299.481 2.597.941 3.871 1.394 2.643.938 5.14 1.822 7.363 2.787 2.669 1.169 2.922 1.812 2.513 3.749-.484 2.278-3.674 2.526-5.02 2.526"/></clipPath><clipPath><path d="m172.89 116.09c-1.666 7.862-4.558 7.862-5.509 7.862-.363 0-.756-.044-1.17-.132-4.197-.889-7.196-2.561-4.554-15.03l1.899-8.968c4.118.667 8.23 1.37 12.335 2.098l-3 14.171"/></clipPath><clipPath id="Y"><path d="m51.07 86.72h17.363v-18.461h-17.363v18.461"/></clipPath><clipPath id="S"><path d="m94.97 112.84h23.371v-45.28h-23.371v45.28"/></clipPath><clipPath id="X"><path d="m60.727 95.98c2.897 1.268 4.334 2.585 3.629 5.913-.137.645-.385 1.186-.708 1.645l-1.773-1.143c.207-.264.363-.57.44-.934.388-1.831.201-2.421-2.419-3.567-2.218-.963-4.712-1.848-7.353-2.785-1.161-.412-2.341-.831-3.524-1.265l-2.219-3.06v-.02c2.131.85 4.319 1.626 6.441 2.381 2.676.948 5.202 1.844 7.486 2.835"/></clipPath><clipPath id="T"><path d="m100.12 86.962c2.536-11.983 6.436-19.408 18.02-19.408.064 0 .132.004.195.004l-.259 2.084c-8.978.021-13.149 4.676-15.918 17.752l-5.389 25.442-.033-.007-1.772-2.507.197.042 4.958-23.402"/></clipPath><clipPath id="V"><path d="m198.99 133.35h20.681v-44.801h-20.681v44.801"/></clipPath><clipPath id="W"><path d="m53.915 104.23c-5.419-1.148-6.03-4.198-5.958-6.727.005-.167-.007-.332-.033-.491v-2.58c.357.133.713.26 1.07.389v1.548c.026.16.038.325.033.493-.073 2.528.538 5.578 5.958 6.725.828.176 1.718.268 2.572.268.722 0 1.992-.073 3.059-.502-1.119 1.01-3.136 1.144-4.129 1.144-.854 0-1.744-.092-2.572-.267"/></clipPath><clipPath id="U"><path d="m151.88 140.52l-18.509-3.921c-.843-.179-1.5-.754-1.82-1.489l1.825-.854-.044.203 19.268 4.081.93 1.776c-.51.247-1.089.322-1.65.204"/></clipPath><clipPath><path d="m133.41 136.44l18.508 3.921c.625.131 1.277.011 1.812-.337.535-.347.909-.894 1.041-1.519l.349-1.642c3.188 4.467 7.891 7.607 13.382 8.77 2.176.461 4.265.693 6.208.693 5.123 0 9.388-1.572 12.725-4.683 3.72 6.163 9.04 9.914 16.18 11.424.012.004.026.007.039.001h-154.93v-32.879c.899.235 1.811.45 2.731.646 4.72 1 8.743 1.486 12.3 1.486 12.08 0 19.43-5.759 21.834-17.11l2.677-12.635c3.569.124 7.139.323 10.709.569l-3.685 17.403-7.294-1.544c-1.299-.276-2.577.555-2.852 1.855l-2.614 12.34c-.132.624-.001 1.275.338 1.81.348.535.894.911 1.518 1.043l7.292 1.544-2.915 13.764c-.133.625-.011 1.277.338 1.812.347.535.894.909 1.518 1.041l19.07 4.04c.625.133 1.275.011 1.811-.337.536-.349.91-.895 1.042-1.519l2.915-13.765 9.424 1.996c1.301.274 2.578-.556 2.853-1.856l2.614-12.34c.133-.625.012-1.276-.337-1.81-.348-.535-.894-.909-1.518-1.043l-9.426-1.995 4.336-20.469c1.177.092 2.353.179 3.53.262 4.176.287 8.332.668 12.473 1.116l-7.854 37.09c-.276 1.3.554 2.578 1.855 2.852"/></clipPath><clipPath id="f"><path d="m46.803 122.49h38.979v-17.714h-38.979v17.714"/></clipPath><clipPath><path d="m208.66 124.83c-.522 2.461-1.977 6.591-5.871 6.591-.431 0-.887-.05-1.354-.149-3.613-.765-4.436-2.406-4.789-4.065-.526-2.483.018-6.069.995-10.689l2.172-10.249c4.102.746 8.207 1.478 12.315 2.183l-3.468 16.378"/></clipPath><clipPath id="g"><path d="m46.32 91.68v-1.629c1.477.605 2.988 1.17 4.494 1.715-1.497-.03-2.996-.057-4.494-.086"/></clipPath><clipPath id="i"><path d="m87.07 109.5c-.439-.092-.874-.068-1.276.055.594-.592 1.465-.884 2.346-.697l6.242 1.321-.176.832-7.136-1.511"/></clipPath><clipPath id="j"><path d="m46.8 103.54h17.733v-12.774h-17.733v12.774"/></clipPath><clipPath id="h"><path d="m0 188.54h271.87v-188.54h-271.87v188.54"/></clipPath><clipPath id="e"><path d="m74.44 60.49c-.904 1.417-1.483 2.893-1.989 4.349l-.596-4.01c.247-.488.519-.975.828-1.457.575-.901 1.649-1.351 2.695-1.13l.788.166-.113 2.109-1.434-.304-.179.281"/></clipPath><clipPath><path d="m131.34 135.11h18.05v-61.81h-18.05v61.81"/></clipPath><clipPath id="d"><path d="m200.5 131.76c-3.52-.746-4.321-2.336-4.662-3.943-.521-2.453.021-6.02.995-10.62l6.03-28.494c.292-1.388-.593-2.749-1.981-3.044l-19.07-4.04c-.426-.09-.868-.068-1.278.058.125-.126.266-.242.416-.339.57-.372 1.266-.5 1.932-.36l19.07 4.04c1.388.294 2.275 1.655 1.981 3.043l-6.03 28.493c-.975 4.6-1.517 8.167-.997 10.623.342 1.605 1.143 3.194 4.665 3.94.456.097.902.147 1.322.147.678 0 1.277-.133 1.812-.36-.763.61-1.708 1-2.882 1-.42 0-.865-.05-1.323-.145"/></clipPath><clipPath><path d="m222.98 153.08h-6.974c2.61-.709 4.938-1.929 6.974-3.654v3.654"/></clipPath><clipPath id="b"><path d="m71.86 64.836h4.311v-6.656h-4.311v6.656"/></clipPath><clipPath id="c"><path d="m63.757 120.4c11.205 0 17.73-5.097 19.951-15.585l.009-.044 2.065.318-.033.159c-2.423 11.438-9.821 17.237-21.992 17.237-3.569 0-7.602-.487-12.334-1.488-.854-.182-1.7-.38-2.536-.596v.056l-2.084-2.817c1.63.508 3.326.952 5.05 1.316 4.586.972 8.479 1.444 11.901 1.444"/></clipPath><clipPath id="a"><path d="m165.28 124.3c-4.107-.87-7.04-2.514-4.431-14.841l6.01-28.382c.293-1.386-.594-2.749-1.981-3.042l-19.07-4.04c-.428-.091-.868-.068-1.277.056.126-.125.263-.239.415-.339.571-.37 1.264-.499 1.932-.359l19.07 4.04c1.387.292 2.275 1.654 1.979 3.042l-6.01 28.381c-2.611 12.326.324 13.971 4.43 14.841.404.086.787.129 1.139.129.261 0 .676 0 1.175-.181-.954.822-1.811.824-2.246.824-.351 0-.734-.045-1.137-.13"/></clipPath><clipPath><path d="m131.4 133.55l12.33-58.22c.141-.666.541-1.248 1.111-1.62.571-.37 1.264-.499 1.933-.359l2.624.555-.607 2-2.92-.619-.101.473-12.386 58.49-1.825.854c-.205-.472-.274-1.01-.159-1.554"/></clipPath><clipPath id="7"><path d="m122.17 92.79h14.887v-5.861h-14.887v5.861"/></clipPath><clipPath id="C"><path d="m82.32 127.72h11.643v-18.921h-11.643v18.921"/></clipPath><clipPath id="8"><path d="m136.29 89.25l2.969-14.02c.287-1.355-.552-2.693-1.899-3.02-1.426-.351-2.89-.775-4.306-1.186-1.97-.572-4.01-1.162-6.09-1.604-3.884-.822-7.084-1.222-9.783-1.222-3.412 0-6.153.648-8.393 1.863 2.42-1.631 5.489-2.506 9.463-2.506 2.699 0 5.899.4 9.783 1.222 2.081.442 4.12 1.033 6.09 1.605 1.416.41 2.88.836 4.305 1.185 1.347.331 2.186 1.67 1.899 3.03l-2.968 14.02c-.142.666-.542 1.249-1.113 1.621-.203.132-.423.234-.652.304.347-.35.59-.793.695-1.282"/></clipPath><clipPath id="A"><path d="m129.32 89.32c-.994-.21-1.793-.312-2.446-.312-1.217 0-2.051.173-2.541 2.492l-.273 1.283-1.894-1.127.125-.589c.616-2.906 1.986-4.145 4.583-4.145.798 0 1.741.117 2.878.357.755.161 1.519.377 2.327.606.83.236 1.689.479 2.562.664l.47.099.24-1.131 1.702 1.667c-.201.422-.515.787-.913 1.046-.571.371-1.268.501-1.933.36-.941-.2-1.834-.453-2.697-.697-.774-.22-1.504-.427-2.19-.573"/></clipPath><clipPath id="B"><path d="m217.83 89.25c-.439-.093-.875-.066-1.276.055.593-.592 1.463-.883 2.345-.696l2.96.626v.868l-4.03-.853"/></clipPath><clipPath id="9"><path d="m88.55 148.47h24.516v-22.16h-24.516v22.16"/></clipPath><clipPath id="6"><path d="m222.82 155h2.086v-10.451h-2.086v10.451"/></clipPath><clipPath id="0"><path d="m67.54 58.57h1.897c.702.566 1.385 1.182 2.043 1.843-.218.366-.426.734-.612 1.105-1.048-1.111-2.17-2.088-3.328-2.948"/></clipPath><clipPath id="5"><path d="m222.82 149.77c-1.639 1.338-3.462 2.354-5.459 3.054 0 0-3.04 1.177-7.425 1.071-4.386-.108-8.01-1.071-8.01-1.071-6.283-1.708-11.07-5.291-14.506-10.89l.359-3.496c.019-.025.039-.046.057-.07 3.498 7.146 8.655 11.229 16.17 12.82 2.192.463 4.278.7 6.204.7 6.261 0 11.196-2.499 14.689-7.434v.1l-2.086 5.543v-.327"/></clipPath><clipPath id="1"><path d="m222.82 150.09l2.086-5.543v10.451h-.014l-2.072-2.121v-2.787"/></clipPath><clipPath id="3"><path d="m47.924 153.56v-32.512c.354.091.712.179 1.07.262v31.607h150.19c.687.237 1.391.454 2.117.643h-153.38"/></clipPath><clipPath id="4"><path d="m126.93 133.45l2.613-12.338c.141-.666.013-1.361-.36-1.932-.37-.571-.953-.971-1.619-1.111l-9.267-1.964 5.075-23.962c.378-1.786.959-2.298 1.761-2.441-.279.372-.509.936-.691 1.798l-5.076 23.963 9.268 1.963c.666.143 1.248.542 1.619 1.112.373.571.502 1.265.359 1.932l-2.612 12.339c-.201.948-.901 1.662-1.768 1.925.341-.339.59-.777.698-1.284"/></clipPath><clipPath id="Q"><path d="m131.56 140.57h21.979v-6.318h-21.979v6.318"/></clipPath><clipPath id="2"><path d="m111.59 148.06c-.57.372-1.265.502-1.931.36l-19.07-4.04c-.666-.14-1.249-.54-1.619-1.11-.371-.572-.501-1.267-.36-1.933l2.883-13.607-.037-.009 2.467-1.402-3.372 15.921 20.01 4.239.484-2.282 2.024.507-.367 1.737c-.141.666-.54 1.249-1.112 1.619"/></clipPath><clipPath id="L"><path d="m210.54 125.23c-1.093 5.159-3.919 8.119-7.755 8.119-.565 0-1.155-.065-1.753-.192-.753-.16-1.431-.364-2.045-.61l1.026-1.84c.425.154.901.293 1.45.409.457.098.902.147 1.322.147 3.781 0 5.204-4.05 5.714-6.464l7.246-34.22c.294-1.387 1.656-2.273 3.044-1.98l.879.187v2.132l-1.783-.378-7.345 34.685"/></clipPath><clipPath id="K"><path d="m222.82 89.46v-31.535h-154.31l-7.252-1.691c-.331-.137-.66-.271-.986-.394h164.63v36.07l-2.121-2.458.035.008"/></clipPath><clipPath id="M"><path d="m60.28 91.91h164.63v-36.07h-164.63v36.07"/></clipPath><clipPath id="O"><path d="m187.4 141.89c-3.344 3.051-7.597 4.593-12.689 4.593-1.955 0-4.054-.235-6.241-.698-5.392-1.142-10.03-4.176-13.233-8.494l-.854-5.708c2.613 6.269 7.948 10.77 14.52 12.162 2.045.433 3.999.652 5.808.652 5.504 0 9.897-2.01 13.07-5.966l-.359 3.496c-.007-.012-.016-.025-.025-.037"/></clipPath><clipPath id="P"><path d="m154.38 146.49h33.401v-14.9h-33.401v14.9"/></clipPath><clipPath id="N"><path d="m113.97 134.85h14.427v-4.914h-14.427v4.914"/></clipPath><clipPath id="D"><path d="m84.79 105.89l5.393-25.468c1.014-4.788 2.064-9.742 4.915-13.397.545-.699.691-1.628.388-2.459-.303-.832-1.014-1.447-1.88-1.631l-19.18-4.062c-.432-.091-.868-.063-1.273.06.14-.141.292-.267.459-.37h3.45l17.616 3.73c.868.184 1.577.801 1.88 1.631.303.832.158 1.761-.388 2.459-2.851 3.657-3.9 8.608-4.915 13.398l-5.393 25.466c-1.454 6.864-4.703 11.695-9.696 14.463 4.39-2.844 7.279-7.459 8.626-13.82"/></clipPath><clipPath id="E"><path d="m82.73 125.1c-.372-.571-.501-1.265-.36-1.932l2.614-12.339c.293-1.387 1.657-2.273 3.042-1.979l1.98.418-.216 2.086-2.666-.563-2.813 13.28 9.646 2.043-.041.198-2.467 1.402-7.099-1.503c-.666-.141-1.249-.541-1.62-1.111"/></clipPath><clipPath id="F"><path d="m187.42 153.9h37.483v-15.533h-37.483v15.533"/></clipPath><clipPath id="J"><path d="m162.76 125.87h21.995v-44.949h-21.995v44.949"/></clipPath><clipPath id="H"><path d="m174.77 116.48c-1.521 7.18-4.422 10.174-8.962 9.215-1.129-.239-2.152-.562-3.048-1.021l1.047-1.783c.73.354 1.554.577 2.434.763.403.086.786.129 1.137.129.918 0 3.713 0 5.351-7.734l7.01-33.09c.141-.667.541-1.248 1.111-1.62.571-.372 1.266-.5 1.932-.36l1.974.417-.815 1.96-2.063-.436-7.107 33.563"/></clipPath><clipPath id="I"><path d="m111.74 147.08l2.882-13.608.893.189-2.705 12.777c-.142.666-.542 1.249-1.113 1.619-.204.134-.425.235-.654.304.348-.347.593-.792.697-1.281"/></clipPath><clipPath id="G"><path d="m124.85 134.79l-9.267-1.963-.02.095-1.597-2.524.009-.043 11.778 2.496.619-2.918 2.02.517-.499 2.362c-.295 1.386-1.657 2.274-3.044 1.978"/></clipPath><linearGradient x1="45.17" x2="68.46" id="1D" gradientUnits="userSpaceOnUse" y1="94.1" y2="72.17"><stop stop-color="#fff"/><stop offset="1" stop-color="#fff"/></linearGradient><linearGradient x1="85.79" x2="94.38" id="1F" gradientUnits="userSpaceOnUse" xlink:href="#1D"/><linearGradient x1="112.07" y1="146.79" x2="115.15" y2="133.89" id="1C" gradientUnits="userSpaceOnUse" xlink:href="#1L"/><linearGradient x1="216.55" x2="221.86" id="1E" gradientUnits="userSpaceOnUse" xlink:href="#1L"/><linearGradient x1="101.38" y1="108.43" x2="112.06" y2="66.55" id="1A" gradientUnits="userSpaceOnUse"><stop stop-color="#fff" stop-opacity=".4"/><stop offset="1" stop-color="#fff" stop-opacity="0"/></linearGradient><linearGradient x1="57.01" y1="93.57" x2="54.28" y2="99.13" id="17" gradientUnits="userSpaceOnUse" xlink:href="#1O"/><linearGradient x1="85.79" x2="94.38" id="1B" gradientUnits="userSpaceOnUse" xlink:href="#1L"/><linearGradient x1="57.01" y1="93.57" x2="54.28" y2="99.13" id="18" gradientUnits="userSpaceOnUse" xlink:href="#1A"/><linearGradient x1="70.51" y1="60.49" x2="67.899" y2="57.857" id="1G" gradientUnits="userSpaceOnUse" xlink:href="#1D"/><linearGradient x1="72.53" y1="62.09" x2="75.03" y2="59.698" id="19" gradientUnits="userSpaceOnUse" xlink:href="#1O"/><linearGradient x1="112.07" y1="146.79" x2="115.15" y2="133.89" id="1H" gradientUnits="userSpaceOnUse" xlink:href="#1D"/><linearGradient x1="224.55" y1="146.03" x2="222.88" y2="161.9" id="16" gradientUnits="userSpaceOnUse" xlink:href="#1A"/><linearGradient x1="101.38" y1="108.43" x2="112.06" y2="66.55" id="1O" gradientUnits="userSpaceOnUse"><stop stop-color="#373535"/><stop offset="1" stop-color="#373535"/></linearGradient><linearGradient x1="113.97" x2="128.39" id="1Q" gradientUnits="userSpaceOnUse" xlink:href="#1A"/><linearGradient x1="46.42" y1="138.84" x2="67.918" y2="38.4" id="1P" gradientUnits="userSpaceOnUse" xlink:href="#1K"/><linearGradient x1="113.97" x2="128.39" id="1N" gradientUnits="userSpaceOnUse" xlink:href="#1O"/><linearGradient x1="70.51" y1="60.49" x2="67.899" y2="57.857" id="1I" gradientUnits="userSpaceOnUse" xlink:href="#1u"/><linearGradient x1="130.34" y1="156.8" x2="151.84" y2="56.37" id="1M" gradientUnits="userSpaceOnUse" xlink:href="#1K"/><linearGradient x1="216.55" x2="221.86" id="1J" gradientUnits="userSpaceOnUse" xlink:href="#1D"/><linearGradient x1="45.17" x2="68.46" id="1L" gradientUnits="userSpaceOnUse" y1="94.1" y2="72.17"><stop stop-color="#fff" stop-opacity="0"/><stop offset="1" stop-color="#fff"/></linearGradient><linearGradient x1="46.41" y1="138.84" x2="67.906" y2="38.4" id="1K" gradientUnits="userSpaceOnUse"><stop stop-color="#fcb24c"/><stop offset="1" stop-color="#f1623b"/></linearGradient><linearGradient x1="92.11" x2="112.8" id="12" gradientUnits="userSpaceOnUse" xlink:href="#1A" y1="135.59" y2="139.4"/><linearGradient x1="123.12" y1="91.34" x2="135.84" y2="86.94" id="t" gradientUnits="userSpaceOnUse"><stop stop-color="#fff" stop-opacity="0"/><stop offset=".209" stop-color="#fff" stop-opacity=".4"/><stop offset=".933" stop-color="#fff" stop-opacity="0"/><stop offset=".933" stop-color="#fff" stop-opacity="0"/><stop offset="1" stop-color="#fff" stop-opacity="0"/></linearGradient><linearGradient x1="159.1" y1="118.86" x2="189.37" y2="90.17" id="q" gradientUnits="userSpaceOnUse" xlink:href="#m"/><linearGradient x1="154.38" x2="191.31" id="s" gradientUnits="userSpaceOnUse" xlink:href="#1O"/><linearGradient x1="159.1" y1="118.86" x2="189.37" y2="90.17" id="r" gradientUnits="userSpaceOnUse" xlink:href="#k"/><linearGradient x1="131.56" x2="152.72" id="p" gradientUnits="userSpaceOnUse" xlink:href="#1A"/><linearGradient x1="195" y1="124.04" x2="225.24" y2="99.69" id="k" gradientUnits="userSpaceOnUse"><stop stop-color="#fff" stop-opacity="0"/><stop offset=".124" stop-color="#fff" stop-opacity=".4"/><stop offset="1" stop-color="#fff" stop-opacity="0"/></linearGradient><linearGradient x1="67.785" y1="73.18" x2="57.2" y2="79.933" id="o" gradientUnits="userSpaceOnUse" xlink:href="#1O"/><linearGradient x1="72.53" y1="62.09" x2="75.03" y2="59.698" id="l" gradientUnits="userSpaceOnUse" xlink:href="#1A"/><linearGradient x1="67.785" y1="73.18" x2="57.2" y2="79.933" id="n" gradientUnits="userSpaceOnUse" xlink:href="#1A"/><linearGradient x1="195" y1="124.04" x2="225.24" y2="99.69" id="m" gradientUnits="userSpaceOnUse"><stop stop-color="#373535"/><stop offset=".942" stop-color="#373535"/><stop offset="1" stop-color="#373535"/></linearGradient><linearGradient x1="187.42" x2="224.91" id="15" gradientUnits="userSpaceOnUse" xlink:href="#1O"/><linearGradient x1="57.45" y1="124.05" x2="75.844" y2="102.95" id="10" gradientUnits="userSpaceOnUse" xlink:href="#1O"/><linearGradient x1="154.38" x2="191.31" id="11" gradientUnits="userSpaceOnUse"><stop stop-color="#fff" stop-opacity=".4"/><stop offset="1" stop-color="#fff" stop-opacity=".1"/></linearGradient><linearGradient x1="187.42" x2="224.91" id="14" gradientUnits="userSpaceOnUse" xlink:href="#11"/><linearGradient x1="224.55" y1="146.03" x2="222.88" y2="161.9" id="13" gradientUnits="userSpaceOnUse" xlink:href="#1O"/><linearGradient x1="123.12" y1="91.34" x2="135.84" y2="86.94" id="u" gradientUnits="userSpaceOnUse"><stop stop-color="#373535"/><stop offset=".712" stop-color="#373535"/><stop offset=".933" stop-color="#373535"/><stop offset="1" stop-color="#373535"/></linearGradient><linearGradient x1="131.56" x2="152.72" id="v" gradientUnits="userSpaceOnUse" xlink:href="#1O"/><linearGradient x1="57.45" y1="124.05" x2="75.844" y2="102.95" id="w" gradientUnits="userSpaceOnUse" xlink:href="#1A"/><linearGradient x1="0" x2="1" id="z" gradientUnits="userSpaceOnUse" gradientTransform="matrix(9.14293-10.0533-10.0533-9.14291 83.03 125.38)" xlink:href="#1A"/><linearGradient x1="0" x2="1" id="x" gradientUnits="userSpaceOnUse" gradientTransform="matrix(9.14293-10.0533-10.0533-9.14291 83.03 125.38)" xlink:href="#1O"/><linearGradient x1="92.11" x2="112.8" id="y" gradientUnits="userSpaceOnUse" xlink:href="#1O" y1="135.59" y2="139.4"/><mask id="1k"><path d="m-32768 32767h65535v-65534h-65535v65534" fill="url(#r)"/></mask><mask id="1j"><path d="m-32768 32767h65535v-65534h-65535v65534" fill="url(#1A)"/></mask><mask id="1i"><path d="m-32768 32767h65535v-65534h-65535v65534" fill="url(#p)"/></mask><mask id="1h"><path d="m-32768 32767h65535v-65534h-65535v65534" fill="url(#1C)"/></mask><mask id="1g"><path d="m-32767 32767h65534v-65534h-65534v65534" fill="url(#21)"/></mask><mask id="1l"><path d="m-32767 32767h65534v-65534h-65534v65534" fill="url(#1x)"/></mask><mask id="1m"><path d="m-32768 32767h65535v-65534h-65535v65534" fill="url(#1Q)"/></mask><mask id="1t"><path d="m-32768 32767h65535v-65534h-65535v65534" fill="url(#14)"/></mask><mask id="1s"><path d="m-32767 32767h65534v-65534h-65534v65534" fill="url(#2A)"/></mask><mask id="1f"><path d="m-32767 32767h65534v-65534h-65534v65534" fill="url(#24)"/></mask><mask id="1r"><path d="m-32768 32767h65535v-65534h-65535v65534" fill="url(#1I)"/></mask><mask id="1p"><path d="m-32767 32767h65534v-65534h-65534v65534" fill="url(#1z)"/></mask><mask id="1o"><path d="m-32768 32767h65535v-65534h-65535v65534" fill="url(#11)"/></mask><mask id="1q"><path d="m-32768 32767h65535v-65534h-65535v65534" fill="url(#16)"/></mask><mask id="1n"><path d="m-32768 32767h65535v-65534h-65535v65534" fill="url(#k)"/></mask><mask id="1V"><path d="m-32767 32767h65534v-65534h-65534v65534" fill="url(#29)"/></mask><mask id="1W"><path d="m-32768 32767h65535v-65534h-65535v65534" fill="url(#n)"/></mask><mask id="1U"><path d="m-32767 32767h65534v-65534h-65534v65534" fill="url(#25)"/></mask><mask id="1S"><path d="m-32768 32767h65535v-65534h-65535v65534" fill="url(#z)"/></mask><mask id="1R"><path d="m-32768 32767h65535v-65534h-65535v65534" fill="url(#1E)"/></mask><mask id="1T"><path d="m-32768 32767h65535v-65534h-65535v65534" fill="url(#1B)"/></mask><mask id="1e"><path d="m-32768 32767h65535v-65534h-65535v65534" fill="url(#t)"/></mask><mask id="1d"><path d="m-32768 32767h65535v-65534h-65535v65534" fill="url(#w)"/></mask><mask id="1b"><path d="m-32767 32767h65534v-65534h-65534v65534" fill="url(#28)"/></mask><mask id="1a"><path d="m-32768 32767h65535v-65534h-65535v65534" fill="url(#18)"/></mask><mask id="1c"><path d="m-32768 32767h65535v-65534h-65535v65534" fill="url(#l)"/></mask><mask id="1X"><path d="m-32768 32767h65535v-65534h-65535v65534" fill="url(#1L)"/></mask><mask id="1Z"><path d="m-32767 32767h65534v-65534h-65534v65534" fill="url(#1u)"/></mask><mask id="1Y"><path d="m-32768 32767h65535v-65534h-65535v65534" fill="url(#12)"/></mask><radialGradient cx="0" cy="0" r="1" id="26" gradientUnits="userSpaceOnUse" gradientTransform="matrix(9.64365-28.80377-19.47858-6.52153 119.56 115.64)" xlink:href="#1D"/><radialGradient cx="0" cy="0" r="1" id="25" gradientUnits="userSpaceOnUse" gradientTransform="matrix(-2.83159 16.38954 35.66431 6.16165 139.78 72.41)" xlink:href="#1u"/><radialGradient cx="0" cy="0" r="1" id="24" gradientUnits="userSpaceOnUse" gradientTransform="matrix(9.64365-28.80377-19.47858-6.52153 119.56 115.64)" xlink:href="#1u"/><radialGradient cx="0" cy="0" r="1" id="2A" gradientUnits="userSpaceOnUse" gradientTransform="matrix(19.9344 5.35945 16.58827-61.69975 95.84 63.897)" xlink:href="#1u"/><radialGradient cx="0" cy="0" r="1" id="27" gradientUnits="userSpaceOnUse" gradientTransform="matrix(11.81114 0 0-11.81114 50.21 101.61)" xlink:href="#1D"/><radialGradient cx="0" cy="0" r="1" id="23" gradientUnits="userSpaceOnUse" gradientTransform="matrix(12.80129-52.3402-24.1409-5.90433 204.17 87.38)" xlink:href="#1D"/><radialGradient cx="0" cy="0" r="1" id="28" gradientUnits="userSpaceOnUse" gradientTransform="matrix(12.80129-52.3402-24.1409-5.90433 204.17 87.38)" xlink:href="#1u"/><radialGradient cx="0" cy="0" r="1" id="29" gradientUnits="userSpaceOnUse" gradientTransform="matrix(12.25925-59.0353-26.71339-5.5473 167.72 83.25)" xlink:href="#1u"/><radialGradient cx="0" cy="0" r="1" id="1z" gradientUnits="userSpaceOnUse" gradientTransform="matrix(134.9737-1.99086-.54358-36.8528 78.911 152.82)" xlink:href="#1u"/><radialGradient cx="0" cy="0" r="1" id="22" gradientUnits="userSpaceOnUse" gradientTransform="matrix(134.9737-1.99086-.54358-36.8528 78.911 152.82)" xlink:href="#1D"/><radialGradient cx="0" cy="0" r="1" fx="-.038" fy="-.03" id="1w" gradientUnits="userSpaceOnUse" gradientTransform="matrix(11.62138 0 0-11.62138 55.39 77.932)" xlink:href="#1D"/><radialGradient cx="0" cy="0" r="1" id="1u" gradientUnits="userSpaceOnUse" gradientTransform="matrix(11.81114 0 0-11.81114 50.21 101.61)"><stop stop-color="#fff"/><stop offset="1" stop-color="#fff" stop-opacity="0"/></radialGradient><radialGradient cx="0" cy="0" r="1" id="1v" gradientUnits="userSpaceOnUse" gradientTransform="matrix(-2.83159 16.38954 35.66431 6.16165 139.78 72.41)" xlink:href="#1D"/><radialGradient cx="0" cy="0" r="1" id="1x" gradientUnits="userSpaceOnUse" gradientTransform="matrix(164.9408-.00465-.00099-35.2111 213.07 57.03)" xlink:href="#1A"/><radialGradient cx="0" cy="0" r="1" id="1y" gradientUnits="userSpaceOnUse" gradientTransform="matrix(164.9408-.00465-.00099-35.2111 213.07 57.03)" xlink:href="#1O"/><radialGradient cx="0" cy="0" r="1" fx="-.038" fy="-.03" id="21" gradientUnits="userSpaceOnUse" gradientTransform="matrix(11.62138 0 0-11.62138 55.39 77.932)" xlink:href="#1u"/><radialGradient cx="0" cy="0" r="1" id="2B" gradientUnits="userSpaceOnUse" gradientTransform="matrix(12.25925-59.0353-26.71339-5.5473 167.72 83.25)" xlink:href="#1D"/><radialGradient cx="0" cy="0" r="1" id="20" gradientUnits="userSpaceOnUse" gradientTransform="matrix(19.9344 5.35945 16.58827-61.69975 95.84 63.897)" xlink:href="#1D"/></defs><g transform="matrix(1.25 0 0-1.25 0 235.68)"><g clip-path="url(#h)" transform="matrix(1.40927 0 0 1.40927-57.29-36.587)" fill="#e7e8e9"><path d="m0 0c-5.272-1.117-8.138-4.187-7.991-9.312l-.033-.007v-6.734c4.947 2.027 10.257 3.607 14.598 5.49 3.11 1.36 4.67 2.863 3.909 6.454-.928 4.374-6.556 4.94-10.483 4.109" transform="translate(56.678 103.64)"/><path d="m0 0l2.97-14.02c-3.455-.849-6.838-2.035-10.316-2.771-16.265-3.444-21.413.388-24.763 16.205l-5.488 25.914-9.647-2.043-2.613 12.34 9.647 2.043-3.414 16.12 19.07 4.04 3.413-16.12 11.78 2.494 2.613-12.339-11.779-2.495 5.607-26.475c.974-4.6 3.879-5.04 8.03-4.159 1.57.332 3.204.913 4.888 1.268m19.36 41.961l.224.048c2.243 6.57 7.605 11.69 14.674 13.187 7.291 1.544 14.296.567 18.933-5.835 3.293 7.145 8.326 11.609 16.178 13.272 11.317 2.395 17.578-1.754 21.276-7.879v12.648h-179.07v-38.499c1.84.6 3.731 1.102 5.634 1.506 13.799 2.921 27.791 2.72 31.28-13.77l5.394-25.467c1.045-4.935 2.186-10.32 5.403-14.444l-19.18-4.062c-1.054 1.649-1.658 3.398-2.286 5.26-3.401-5.492-9.168-8.912-15.271-10.649h168.09v37.27l-7.129-1.509-7.248 34.22c-1.33 6.282-5.142 9.343-10.08 8.297-8.187-1.734-7.643-8.185-5.647-17.606l6.03-28.495-19.07-4.04-7.01 33.09c-1.449 6.843-4.372 10.679-9.532 9.585-6.842-1.448-8.928-5.993-6.409-17.884l6.01-28.382-19.07-4.04-12.33 58.22 18.509 3.92 1.687-7.964z" transform="translate(137.08 85.62)"/><path d="m0 0c-2.336-2.252-7.201-3.636-11.11-5.635-4.05-1.913-7.259-4.468-6.285-9.07.997-4.712 5.103-5.834 9.367-4.931 9.09 1.924 11.02 7.726 8.03 19.634" transform="translate(69.953 85.24)"/></g><path d="m54.34 106.1c-5.273-1.117-8.14-4.186-7.991-9.311l-.035-.008v-6.734c4.947 2.026 10.26 3.605 14.599 5.488 3.111 1.362 4.669 2.865 3.909 6.456-.699 3.3-4.076 4.433-7.378 4.433-1.075 0-2.14-.12-3.104-.324" fill="url(#1K)" transform="matrix(1.40927 0 0 1.40927-57.29-36.587)"/><path d="m46.32 155.48v-38.5c1.84.602 3.733 1.104 5.636 1.508 13.798 2.92 27.79 2.72 31.28-13.771l5.394-25.467c1.045-4.934 2.186-10.321 5.402-14.443l-19.18-4.062c-1.054 1.648-1.658 3.399-2.286 5.259-3.401-5.493-9.168-8.911-15.271-10.648h168.09v37.27l-7.128-1.511-7.247 34.22c-1.33 6.281-5.142 9.343-10.08 8.297-8.189-1.733-7.645-8.183-5.648-17.606l6.03-28.494-19.07-4.04-7.01 33.09c-1.449 6.843-4.372 10.678-9.533 9.586-6.843-1.449-8.927-5.993-6.409-17.885l6.01-28.382-19.07-4.04-12.33 58.22 18.511 3.921 1.686-7.964.223.047c2.244 6.571 7.606 11.692 14.673 13.188 7.294 1.545 14.298.565 18.935-5.835 3.295 7.144 8.326 11.609 16.178 13.272 11.316 2.397 17.579-1.755 21.274-7.88v12.648h-179.07m38.568-31.778l9.647 2.042-3.414 16.12 19.07 4.04 3.413-16.12 11.779 2.495 2.613-12.34-11.778-2.495 5.607-26.474c.975-4.601 3.88-5.04 8.03-4.16 1.57.332 3.205.913 4.888 1.269l2.969-14.02c-3.454-.85-6.837-2.035-10.315-2.773-16.265-3.443-21.413.389-24.763 16.206l-5.487 25.915-9.648-2.043-2.613 12.339" fill="url(#1M)" transform="matrix(1.40927 0 0 1.40927-57.29-36.587)"/><path d="m56.51 82.06c-4.048-1.91-7.259-4.467-6.285-9.06.998-4.714 5.105-5.836 9.368-4.933 9.09 1.926 11.02 7.726 8.03 19.634-2.337-2.253-7.201-3.634-11.12-5.636" fill="url(#1P)" transform="matrix(1.40927 0 0 1.40927-57.29-36.587)"/><g clip-path="url(#g)" transform="matrix(1.40927 0 0 1.40927-57.29-36.587)"><g mask="url(#1X)"><path d="m46.32 91.68v-1.629c1.477.605 2.988 1.17 4.494 1.715-1.497-.03-2.996-.057-4.494-.086" fill="url(#1D)"/></g></g><g clip-path="url(#W)" transform="matrix(1.40927 0 0 1.40927-57.29-36.587)"><g mask="url(#1Z)"><path d="m53.915 104.23c-5.419-1.148-6.03-4.198-5.958-6.727.005-.167-.007-.332-.033-.491v-2.58c.357.133.713.26 1.07.389v1.548c.026.16.038.325.033.493-.073 2.528.538 5.578 5.958 6.725.828.176 1.718.268 2.572.268.722 0 1.992-.073 3.059-.502-1.119 1.01-3.136 1.144-4.129 1.144-.854 0-1.744-.092-2.572-.267" fill="url(#27)"/></g></g><g clip-path="url(#a)" transform="matrix(1.40927 0 0 1.40927-57.29-36.587)"><g mask="url(#1V)"><path d="m165.28 124.3c-4.107-.87-7.04-2.514-4.431-14.841l6.01-28.382c.293-1.386-.594-2.749-1.981-3.042l-19.07-4.04c-.428-.091-.868-.068-1.277.056.126-.125.263-.239.415-.339.571-.37 1.264-.499 1.932-.359l19.07 4.04c1.387.292 2.275 1.654 1.979 3.042l-6.01 28.381c-2.611 12.326.324 13.971 4.43 14.841.404.086.787.129 1.139.129.261 0 .676 0 1.175-.181-.954.822-1.811.824-2.246.824-.351 0-.734-.045-1.137-.13" fill="url(#2B)"/></g></g><g clip-path="url(#d)" transform="matrix(1.40927 0 0 1.40927-57.29-36.587)"><g mask="url(#1b)"><path d="m200.5 131.76c-3.52-.746-4.321-2.336-4.662-3.943-.521-2.453.021-6.02.995-10.62l6.03-28.494c.292-1.388-.593-2.749-1.981-3.044l-19.07-4.04c-.426-.09-.868-.068-1.278.058.125-.126.266-.242.416-.339.57-.372 1.266-.5 1.932-.36l19.07 4.04c1.388.294 2.275 1.655 1.981 3.043l-6.03 28.493c-.975 4.6-1.517 8.167-.997 10.623.342 1.605 1.143 3.194 4.665 3.94.456.097.902.147 1.322.147.678 0 1.277-.133 1.812-.36-.763.61-1.708 1-2.882 1-.42 0-.865-.05-1.323-.145" fill="url(#23)"/></g></g><g clip-path="url(#i)" transform="matrix(1.40927 0 0 1.40927-57.29-36.587)"><g mask="url(#1T)"><path d="m87.07 109.5c-.439-.092-.874-.068-1.276.055.594-.592 1.465-.884 2.346-.697l6.242 1.321-.176.832-7.136-1.511" fill="url(#1F)"/></g></g><g clip-path="url(#8)" transform="matrix(1.40927 0 0 1.40927-57.29-36.587)"><g mask="url(#1U)"><path d="m136.29 89.25l2.969-14.02c.287-1.355-.552-2.693-1.899-3.02-1.426-.351-2.89-.775-4.306-1.186-1.97-.572-4.01-1.162-6.09-1.604-3.884-.822-7.084-1.222-9.783-1.222-3.412 0-6.153.648-8.393 1.863 2.42-1.631 5.489-2.506 9.463-2.506 2.699 0 5.899.4 9.783 1.222 2.081.442 4.12 1.033 6.09 1.605 1.416.41 2.88.836 4.305 1.185 1.347.331 2.186 1.67 1.899 3.03l-2.968 14.02c-.142.666-.542 1.249-1.113 1.621-.203.132-.423.234-.652.304.347-.35.59-.793.695-1.282" fill="url(#1v)"/></g></g><g clip-path="url(#B)" transform="matrix(1.40927 0 0 1.40927-57.29-36.587)"><g mask="url(#1R)"><path d="m217.83 89.25c-.439-.093-.875-.066-1.276.055.593-.592 1.463-.883 2.345-.696l2.96.626v.868l-4.03-.853" fill="url(#1J)"/></g></g><g clip-path="url(#D)" transform="matrix(1.40927 0 0 1.40927-57.29-36.587)"><g mask="url(#1s)"><path d="m84.79 105.89l5.393-25.468c1.014-4.788 2.064-9.742 4.915-13.397.545-.699.691-1.628.388-2.459-.303-.832-1.014-1.447-1.88-1.631l-19.18-4.062c-.432-.091-.868-.063-1.273.06.14-.141.292-.267.459-.37h3.45l17.616 3.73c.868.184 1.577.801 1.88 1.631.303.832.158 1.761-.388 2.459-2.851 3.657-3.9 8.608-4.915 13.398l-5.393 25.466c-1.454 6.864-4.703 11.695-9.696 14.463 4.39-2.844 7.279-7.459 8.626-13.82" fill="url(#20)"/></g></g><g clip-path="url(#0)" transform="matrix(1.40927 0 0 1.40927-57.29-36.587)"><g mask="url(#1r)"><path d="m67.54 58.57h1.897c.702.566 1.385 1.182 2.043 1.843-.218.366-.426.734-.612 1.105-1.048-1.111-2.17-2.088-3.328-2.948" fill="url(#1G)"/></g></g><g clip-path="url(#3)" transform="matrix(1.40927 0 0 1.40927-57.29-36.587)"><g mask="url(#1p)"><path d="m47.924 153.56v-32.512c.354.091.712.179 1.07.262v31.607h150.19c.687.237 1.391.454 2.117.643h-153.38" fill="url(#22)"/></g></g><g clip-path="url(#4)" transform="matrix(1.40927 0 0 1.40927-57.29-36.587)"><g mask="url(#1f)"><path d="m126.93 133.45l2.613-12.338c.141-.666.013-1.361-.36-1.932-.37-.571-.953-.971-1.619-1.111l-9.267-1.964 5.075-23.962c.378-1.786.959-2.298 1.761-2.441-.279.372-.509.936-.691 1.798l-5.076 23.963 9.268 1.963c.666.143 1.248.542 1.619 1.112.373.571.502 1.265.359 1.932l-2.612 12.339c-.201.948-.901 1.662-1.768 1.925.341-.339.59-.777.698-1.284" fill="url(#26)"/></g></g><g clip-path="url(#I)" transform="matrix(1.40927 0 0 1.40927-57.29-36.587)"><g mask="url(#1h)"><path d="m111.74 147.08l2.882-13.608.893.189-2.705 12.777c-.142.666-.542 1.249-1.113 1.619-.204.134-.425.235-.654.304.348-.347.593-.792.697-1.281" fill="url(#1H)"/></g></g><g clip-path="url(#R)" transform="matrix(1.40927 0 0 1.40927-57.29-36.587)"><g mask="url(#1g)"><path d="m60.785 82.25c-1.381-.581-2.809-1.183-4.073-1.83-.025-.013-.048-.024-.073-.035-4.667-2.205-5.323-4.078-4.87-6.215.214-1.012.688-2.27 2.226-2.855-.713.64-1 1.489-1.156 2.213-.453 2.137.203 4.01 4.87 6.214.024.012.049.024.072.035 1.265.648 2.692 1.249 4.073 1.832 1.126.475 2.229.941 3.266 1.432-.052.353-.108.712-.173 1.084-1.288-.664-2.706-1.261-4.162-1.875" fill="url(#1w)"/></g></g><g clip-path="url(#h)" transform="matrix(1.40927 0 0 1.40927-57.29-36.587)"><g clip-path="url(#S)"><g clip-path="url(#T)"><g mask="url(#1j)"><path d="m100.12 86.962c2.536-11.983 6.436-19.408 18.02-19.408.064 0 .132.004.195.004l-.259 2.084c-8.978.021-13.149 4.676-15.918 17.752l-5.389 25.442-.033-.007-1.772-2.507.197.042 4.958-23.402" fill="url(#1O)"/></g></g></g><g clip-path="url(#N)"><g clip-path="url(#G)"><g mask="url(#1m)"><path d="m124.85 134.79l-9.267-1.963-.02.095-1.597-2.524.009-.043 11.778 2.496.619-2.918 2.02.517-.499 2.362c-.295 1.386-1.657 2.274-3.044 1.978" fill="url(#1N)"/></g></g></g><g clip-path="url(#M)"><g clip-path="url(#K)"><g mask="url(#1l)"><path d="m222.82 89.46v-31.535h-154.31l-7.252-1.691c-.331-.137-.66-.271-.986-.394h164.63v36.07l-2.121-2.458.035.008" fill="url(#1y)"/></g></g></g><g clip-path="url(#V)"><g clip-path="url(#L)"><g mask="url(#1n)"><path d="m210.54 125.23c-1.093 5.159-3.919 8.119-7.755 8.119-.565 0-1.155-.065-1.753-.192-.753-.16-1.431-.364-2.045-.61l1.026-1.84c.425.154.901.293 1.45.409.457.098.902.147 1.322.147 3.781 0 5.204-4.05 5.714-6.464l7.246-34.22c.294-1.387 1.656-2.273 3.044-1.98l.879.187v2.132l-1.783-.378-7.345 34.685" fill="url(#m)"/></g></g></g><g clip-path="url(#J)"><g clip-path="url(#H)"><g mask="url(#1k)"><path d="m174.77 116.48c-1.521 7.18-4.422 10.174-8.962 9.215-1.129-.239-2.152-.562-3.048-1.021l1.047-1.783c.73.354 1.554.577 2.434.763.403.086.786.129 1.137.129.918 0 3.713 0 5.351-7.734l7.01-33.09c.141-.667.541-1.248 1.111-1.62.571-.372 1.266-.5 1.932-.36l1.974.417-.815 1.96-2.063-.436-7.107 33.563" fill="url(#q)"/></g></g></g><g clip-path="url(#Q)"><g clip-path="url(#U)"><g mask="url(#1i)"><path d="m151.88 140.52l-18.509-3.921c-.843-.179-1.5-.754-1.82-1.489l1.825-.854-.044.203 19.268 4.081.93 1.776c-.51.247-1.089.322-1.65.204" fill="url(#v)"/></g></g></g><g clip-path="url(#P)"><g clip-path="url(#O)"><g mask="url(#1o)"><path d="m187.4 141.89c-3.344 3.051-7.597 4.593-12.689 4.593-1.955 0-4.054-.235-6.241-.698-5.392-1.142-10.03-4.176-13.233-8.494l-.854-5.708c2.613 6.269 7.948 10.77 14.52 12.162 2.045.433 3.999.652 5.808.652 5.504 0 9.897-2.01 13.07-5.966l-.359 3.496c-.007-.012-.016-.025-.025-.037" fill="url(#s)"/></g></g></g><g clip-path="url(#F)"><g clip-path="url(#5)"><g mask="url(#1t)"><path d="m222.82 149.77c-1.639 1.338-3.462 2.354-5.459 3.054 0 0-3.04 1.177-7.425 1.071-4.386-.108-8.01-1.071-8.01-1.071-6.283-1.708-11.07-5.291-14.506-10.89l.359-3.496c.019-.025.039-.046.057-.07 3.498 7.146 8.655 11.229 16.17 12.82 2.192.463 4.278.7 6.204.7 6.261 0 11.196-2.499 14.689-7.434v.1l-2.086 5.543v-.327" fill="url(#15)"/></g></g></g><g clip-path="url(#6)"><g clip-path="url(#1)"><g mask="url(#1q)"><path d="m222.82 150.09l2.086-5.543v10.451h-.014l-2.072-2.121v-2.787" fill="url(#13)"/></g></g></g><g clip-path="url(#7)"><g clip-path="url(#A)"><g mask="url(#1e)"><path d="m129.32 89.32c-.994-.21-1.793-.312-2.446-.312-1.217 0-2.051.173-2.541 2.492l-.273 1.283-1.894-1.127.125-.589c.616-2.906 1.986-4.145 4.583-4.145.798 0 1.741.117 2.878.357.755.161 1.519.377 2.327.606.83.236 1.689.479 2.562.664l.47.099.24-1.131 1.702 1.667c-.201.422-.515.787-.913 1.046-.571.371-1.268.501-1.933.36-.941-.2-1.834-.453-2.697-.697-.774-.22-1.504-.427-2.19-.573" fill="url(#u)"/></g></g></g><g clip-path="url(#C)"><g clip-path="url(#E)"><g mask="url(#1S)"><path d="m82.73 125.1c-.372-.571-.501-1.265-.36-1.932l2.614-12.339c.293-1.387 1.657-2.273 3.042-1.979l1.98.418-.216 2.086-2.666-.563-2.813 13.28 9.646 2.043-.041.198-2.467 1.402-7.099-1.503c-.666-.141-1.249-.541-1.62-1.111" fill="url(#x)"/></g></g></g><g clip-path="url(#9)"><g clip-path="url(#2)"><g mask="url(#1Y)"><path d="m111.59 148.06c-.57.372-1.265.502-1.931.36l-19.07-4.04c-.666-.14-1.249-.54-1.619-1.11-.371-.572-.501-1.267-.36-1.933l2.883-13.607-.037-.009 2.467-1.402-3.372 15.921 20.01 4.239.484-2.282 2.024.507-.367 1.737c-.141.666-.54 1.249-1.112 1.619" fill="url(#y)"/></g></g></g><g clip-path="url(#f)"><g clip-path="url(#c)"><g mask="url(#1d)"><path d="m63.757 120.4c11.205 0 17.73-5.097 19.951-15.585l.009-.044 2.065.318-.033.159c-2.423 11.438-9.821 17.237-21.992 17.237-3.569 0-7.602-.487-12.334-1.488-.854-.182-1.7-.38-2.536-.596v.056l-2.084-2.817c1.63.508 3.326.952 5.05 1.316 4.586.972 8.479 1.444 11.901 1.444" fill="url(#10)"/></g></g></g><g clip-path="url(#j)"><g clip-path="url(#X)"><g mask="url(#1a)"><path d="m60.727 95.98c2.897 1.268 4.334 2.585 3.629 5.913-.137.645-.385 1.186-.708 1.645l-1.773-1.143c.207-.264.363-.57.44-.934.388-1.831.201-2.421-2.419-3.567-2.218-.963-4.712-1.848-7.353-2.785-1.161-.412-2.341-.831-3.524-1.265l-2.219-3.06v-.02c2.131.85 4.319 1.626 6.441 2.381 2.676.948 5.202 1.844 7.486 2.835" fill="url(#17)"/></g></g></g><g clip-path="url(#Y)"><g clip-path="url(#Z)"><g mask="url(#1W)"><path d="m56.993 68.26h.002c.789 0 1.628.094 2.493.277 3.69.78 6.149 2.227 7.517 4.418 1.782 2.855 1.898 7.242.357 13.766l-1.445-3.28c.772-4.393.545-7.418-.682-9.381-1.066-1.71-3.03-2.817-6.178-3.484-.724-.152-1.418-.23-2.062-.23h-.002c-2.451 0-3.472 1.054-3.948 2.163l-1.973-.681c1.167-2.911 3.794-3.568 5.921-3.568" fill="url(#o)"/></g></g></g><g clip-path="url(#b)"><g clip-path="url(#e)"><g mask="url(#1c)"><path d="m74.44 60.49c-.904 1.417-1.483 2.893-1.989 4.349l-.596-4.01c.247-.488.519-.975.828-1.457.575-.901 1.649-1.351 2.695-1.13l.788.166-.113 2.109-1.434-.304-.179.281" fill="url(#19)"/></g></g></g><g fill="#96989b"><path d="m0 0c.956 0 1.712.196 2.269.589.556.393.835 1.103.835 2.129 0 1.101-.39 1.853-1.168 2.254-.416.21-.973.314-1.67.314h-4.977v-5.286h4.711m-6.806 7.087h7.03c1.158 0 2.112-.172 2.864-.516 1.427-.66 2.141-1.878 2.141-3.654 0-.926-.191-1.685-.574-2.274-.383-.59-.918-1.065-1.606-1.422.604-.246 1.059-.569 1.364-.969.305-.4.475-1.05.51-1.948l.075-2.075c.02-.59.069-1.029.146-1.317.127-.491.352-.808.675-.947v-.348h-2.57c-.071.133-.126.306-.169.515-.042.212-.078.619-.105 1.223l-.126 2.581c-.048 1.01-.413 1.687-1.096 2.031-.388.19-.999.285-1.83.285h-4.636v-6.635h-2.095v15.47" transform="translate(51.853 37.16)"/><path d="m0 0c.825 1.324 1.238 2.847 1.238 4.569 0 1.821-.476 3.285-1.428 4.396-.952 1.11-2.252 1.666-3.901 1.666-1.602 0-2.908-.551-3.918-1.651-1.01-1.099-1.517-2.72-1.517-4.864 0-1.715.433-3.16 1.301-4.338.867-1.176 2.273-1.765 4.218-1.765 1.846 0 3.181.663 4.01 1.987m1.848 9.862c1.026-1.37 1.538-3.122 1.538-5.256 0-2.31-.587-4.229-1.759-5.76-1.376-1.798-3.339-2.697-5.887-2.697-2.381 0-4.251.787-5.613 2.359-1.215 1.517-1.822 3.433-1.822 5.75 0 2.094.519 3.883 1.558 5.371 1.334 1.911 3.307 2.866 5.919 2.866 2.731 0 4.753-.879 6.07-2.633" transform="translate(79.893 32.18)"/><path d="m0 0l9.513 11.89h-8.819v1.841h11.522v-1.8l-9.57-11.827h9.57v-1.842h-12.216v1.738" transform="translate(93.25 30.517)"/><path d="m0 0c.956 0 1.712.196 2.269.589.556.393.835 1.103.835 2.129 0 1.101-.391 1.853-1.168 2.254-.417.21-.974.314-1.67.314h-4.977v-5.286h4.711m-6.808 7.087h7.03c1.158 0 2.113-.172 2.865-.516 1.427-.66 2.141-1.878 2.141-3.654 0-.926-.192-1.685-.575-2.274-.382-.59-.917-1.065-1.606-1.422.604-.246 1.058-.569 1.364-.969.306-.4.476-1.05.511-1.948l.075-2.075c.02-.59.069-1.029.146-1.317.127-.491.351-.808.675-.947v-.348h-2.571c-.07.133-.126.306-.168.515-.042.212-.078.619-.105 1.223l-.127 2.581c-.048 1.01-.412 1.687-1.095 2.031-.389.19-.999.285-1.832.285h-4.634v-6.635h-2.097v15.47" transform="translate(123.26 37.16)"/><path d="m0 0h2.444l4.447-7.435 4.447 7.435h2.465l-5.86-9.235v-6.235h-2.094v6.235l-5.849 9.235" transform="translate(138.84 44.25)"/><path d="m0 0l2.915-12.568 3.498 12.568h2.265l3.506-12.593 2.916 12.593h2.298l-4.065-15.47h-2.201l-3.57 12.827-3.591-12.827h-2.201l-4.045 15.47h2.275" transform="translate(164.07 44.25)"/><path d="m0 0h2.043v-7.572l7.739 7.572h2.931l-6.61-6.243 6.747-9.227h-2.743l-5.543 7.774-2.521-2.382v-5.392h-2.043v15.47" transform="translate(192.03 44.25)"/><path d="m0 0l-2.383 6.835-2.474-6.835h4.857m-3.476 9.131h2.367l5.615-15.47h-2.296l-1.615 4.633h-6.07l-1.677-4.633h-2.15l5.826 15.47" transform="translate(223.03 35.12)"/></g></g></g></svg>