<svg xmlns="http://www.w3.org/2000/svg" height="266.99" width="600" viewBox="0 0 158.75 70.641645"><g transform="translate(-3.02-93.42)"><path d="m74.31 149.39c-4.045 0-7.336 3.29-7.336 7.33 0 4.05 3.29 7.33 7.335 7.33 4.04 0 7.332-3.28 7.334-7.33 0-4.04-3.29-7.33-7.333-7.33m-41.33.88c-8.252 0-14.923-7.12-14.923-16.39 0-9.5 6.671-16.73 14.923-16.73 8.253 0 14.922 7.46 14.921 16.73 0 9.04-6.668 16.39-14.921 16.39m15.601-39.45c-4.521-4.75-10.739-7.47-17.862-7.47-15.15 0-27.697 13.12-27.697 30.42 0 17.18 12.548 30.29 27.697 30.29 7.123 0 13.339-2.71 17.861-7.46v6.02h14.244v-57.99h-14.243z" fill="#01447b"/><path d="m88.16 93.42h-16.988v44.65c0 2.68.225 5.16.665 7.45.799-.18 1.626-.28 2.478-.28 6.331 0 11.48 5.15 11.48 11.48 0 1.7-.381 3.31-1.049 4.77 2.306.74 4.894 1.13 7.769 1.13 1.189 0 5.646-.06 6.904-.19l1.355-.15v-15.66l-1.605.1c-.415.02-1.887.04-2.273.04-5.446 0-8.736-2.49-8.736-8.58v-18.04h13.634v-15.51h-13.634zm56.774 11.21l-13.38 39.84-13.28-39.84h-11.15v15.51l16.04 42.48h16.77l21.84-57.99z" fill="#c6d202"/></g></svg>