<svg xmlns="http://www.w3.org/2000/svg" height="115.2" viewBox="0 0 425.4613 115.20449" width="425.46"><path fill="#e52138" d="m291.44 114.56c-.31-.57-51.99-113.22-52.39-114.18-.124-.299 6.616-.375 33.11-.375h33.27l4.439 12.825c4.666 13.481 10.433 30.13 14.883 42.975 1.458 4.207 3.677 10.615 4.932 14.24 1.255 3.624 2.397 6.705 2.538 6.846.248.248.859-1.357 4.2-11.04.854-2.475 6.322-18.27 12.15-35.1l10.596-30.6 33.23-.076c28.956-.067 33.2-.02 33.06.36-.14.366-26.891 50.14-54.5 101.42l-7.108 13.2-36.03.076-36.03.076-.346-.646zm-285.6-1.08c-4.964-7.78-6.983-19.601-5.196-30.432 2.603-15.769 15.218-26.1 37.3-30.552 9.492-1.913 13.241-2.214 46.514-3.736 26.22-1.199 30.22-1.47 33.562-2.267 2.883-.689 4.417-1.417 5.712-2.712 1.279-1.279 1.729-2.233 2.162-4.587 1.403-7.614-4.406-12.481-16.91-14.169-5.02-.677-15.912-.683-20.642-.012-10.39 1.475-16.487 5.326-18.769 11.856l-.693 1.982-29.413.077c-27.874.072-29.413.049-29.411-.45 0-.29.399-2.08.883-3.98 3.899-15.287 10.89-24.25 23.718-30.421 1.895-.911 5.104-2.201 7.13-2.867l3.684-1.21h48.591 48.591v21.297 21.297l13.575.078 13.575.078.174 27.9c.166 26.645.203 28.08.819 31.929.673 4.199 1.718 8.245 2.752 10.658.333.777.606 1.469.606 1.538s-37.668.125-83.71.125h-83.71l-.91-1.425zm93.26-11.45c13.432-2.037 22.01-6.967 25.878-14.877 1.855-3.791 2.156-5.293 2.306-11.516l.133-5.515-.727.182c-4.162 1.044-15.645 2.403-37.26 4.407-7.708.715-13.889 1.434-15.388 1.79-4.909 1.166-7.527 2.95-9.142 6.231-.947 1.924-.987 2.147-.974 5.462.011 2.87.129 3.749.697 5.182 1.897 4.79 6.639 7.881 13.894 9.06 3.967.642 15.13.424 20.586-.403m80.46 11.448c-.846-1.912-1.972-5.954-2.529-9.08-.933-5.235-1.064-9.967-1.067-38.775l-.003-29.02h-13.65-13.65v-18.301-18.301l42.07.076 42.07.076 8.207 17.85c4.514 9.818 8.279 18.02 8.366 18.225.125.294-1.404.375-7.081.375h-7.24l.086 25.27c.096 28.375-.007 27.05 2.318 29.689 2.608 2.963 5.257 3.378 20.18 3.165l11.04-.158-.079 10.09-.079 10.09-44.16.076-44.16.076-.631-1.426z"/></svg>