<svg xmlns="http://www.w3.org/2000/svg" viewBox="0 0 1024 385"><path d="m140.74 38.66l-126.98 256.42c-14.883 30.04-2.578 66.47 27.466 81.35 30.05 14.883 66.48 2.578 81.36-27.466 0 0 36.934-81.82 72.44-153.51 35.31 71.65 72.04 153.38 72.04 153.38 14.825 30.08 51.23 42.44 81.31 27.619 30.08-14.825 42.44-51.23 27.619-81.31l-126.38-256.39c-10.216-20.719-31.3-33.858-54.4-33.877-23.11-.015-44.22 13.07-54.47 33.772" fill="#dc181d"/><path d="m983.36 11.194c-30.04-14.883-66.47-2.588-81.35 27.466 0 0-36.944 81.82-72.45 153.52-35.31-71.65-72.04-153.39-72.04-153.39-10.753-21.821-32.861-34.25-55.679-33.81-.125 0-.249-.015-.364-.015h-330.08c-33.27 0-60.25 26.977-60.25 60.25 0 33.27 26.977 60.25 60.25 60.25h92.41v196.09c0 33.532 27.19 60.72 60.72 60.72 33.532 0 60.72-27.19 60.72-60.72v-196.09h79.61l110.11 223.41c10.206 20.729 31.3 33.858 54.4 33.877 23.11.015 44.22-13.07 54.47-33.772l126.98-256.41c14.883-30.05 2.587-66.47-27.466-81.36" fill="#fff"/></svg>