<svg xmlns="http://www.w3.org/2000/svg" viewBox="0 0 1374.31 377.88"><path d="m187.78 0c-23.11-.015-44.21 13.08-54.47 33.781l-127 256.44c-14.883 30.04-2.575 66.46 27.469 81.34 30.05 14.883 66.49 2.575 81.37-27.469 0 0 36.931-81.82 72.44-153.5 35.31 71.64 72.03 153.37 72.03 153.37 14.825 30.08 51.24 42.45 81.31 27.625 30.08-14.825 42.45-51.24 27.625-81.31l-126.37-256.37c-10.216-20.719-31.3-33.887-54.41-33.906m761.87 0c-22.587-.245-44.4 12.18-55.09 33.781 0 0-36.931 81.84-72.44 153.53-35.31-71.64-72.06-153.41-72.06-153.41-10.753-21.821-32.838-34.25-55.656-33.813-.125 0-.26 0-.375 0h-330.09c-33.27 0-60.25 26.977-60.25 60.25 0 33.27 26.977 60.25 60.25 60.25h92.44v196.09c0 33.532 27.19 60.719 60.719 60.719 33.532 0 60.719-27.19 60.719-60.719v-196.09h79.59l110.12 223.41c10.206 20.729 31.3 33.856 54.41 33.875 23.11.015 44.21-13.08 54.47-33.781l126.97-256.41c14.883-30.05 2.585-66.48-27.469-81.37-8.45-4.186-17.412-6.217-26.25-6.313"/><path d="m1134.5.656c-22.509-.298-44.22 12.05-54.938 33.625l-127.25 256.09c-14.917 30.02-2.773 66.21 27.25 81.12 30.02 14.917 66.21 2.742 81.12-27.28l127.25-256.06c14.917-30.02 2.742-66.21-27.28-81.12-8.444-4.196-17.348-6.258-26.16-6.375m180 0c-22.509-.298-44.22 12.05-54.938 33.625l-127.25 256.09c-14.917 30.02-2.773 66.21 27.25 81.12 30.02 14.917 66.21 2.742 81.12-27.28l127.25-256.06c14.917-30.02 2.742-66.21-27.28-81.12-8.444-4.196-17.348-6.258-26.16-6.375" fill="#dc181d"/></svg>