<svg xmlns="http://www.w3.org/2000/svg" viewBox="0 0 1504.56 377.88"><defs><filter color-interpolation-filters="sRGB" id="0"><feGaussianBlur stdDeviation="1.4425"/></filter><linearGradient y1="318" x2="0" y2="225" id="1" gradientUnits="userSpaceOnUse"><stop stop-color="#c9c9c9"/><stop offset="1" stop-color="#fff"/></linearGradient><linearGradient y1="262" x2="0" y2="66" id="2" gradientUnits="userSpaceOnUse"><stop/><stop offset="1" stop-color="#dbdbdb"/></linearGradient></defs><g transform="translate(-7.445-4.873)"><path d="m1086 65h426v284h-568l142-284" fill="url(#2)"/><path d="m1108 100v218h43v-92h80v92h44v-218h-44v82h-80v-82h-43zm193 0v218h82c46.536 0 84-37.464 84-84v-50c0-46.536-37.464-84-84-84h-82zm44 41h26c29.916 0 54 24.08 54 54v28c0 29.916-24.08 54-54 54h-26v-136z" fill="url(#1)" stroke="#000" stroke-width="4"/><g transform="matrix(7.66667 0 0 7.66667-3944.3-833.68)"><path d="m532.83 113.78l-16.563 33.446c-1.941 3.919-.336 8.67 3.582 10.611 3.92 1.941 8.671.336 10.612-3.583 0 0 4.817-10.673 9.449-20.02 4.606 9.345 9.396 20.01 9.396 20.01 1.934 3.924 6.683 5.536 10.605 3.602 3.924-1.934 5.536-6.683 3.602-10.605l-16.484-33.442c-1.332-2.703-4.082-4.416-7.096-4.419-3.01-.002-5.768 1.705-7.105 4.405" fill="#dc181d"/><path d="m642.74 110.2c-3.919-1.941-8.67-.338-10.611 3.582 0 0-4.819 10.672-9.45 20.02-4.605-9.345-9.396-20.01-9.396-20.01-1.403-2.846-4.286-4.468-7.263-4.41-.016 0-.033-.002-.048-.002h-43.05c-4.34 0-7.859 3.519-7.859 7.859 0 4.34 3.519 7.859 7.859 7.859h12.05v25.578c0 4.374 3.546 7.92 7.92 7.92 4.374 0 7.92-3.546 7.92-7.92v-25.578h10.384l14.362 29.14c1.331 2.704 4.082 4.416 7.096 4.419 3.01.002 5.768-1.705 7.105-4.405l16.563-33.445c1.941-3.92.337-8.67-3.582-10.612"/></g><path d="m1110 102v218h43v-92h80v92h44v-218h-44v82h-80v-82h-43zm193 0v218h82c46.536 0 84-37.464 84-84v-50c0-46.536-37.464-84-84-84h-82zm44 41h26c29.916 0 54 24.08 54 54v28c0 29.916-24.08 54-54 54h-26v-136z" fill="none" filter="url(#0)" stroke="#000" stroke-width="5"/></g></svg>