<svg xmlns="http://www.w3.org/2000/svg" height="117.93" width="600" viewBox="0 0 158.75 31.202231"><g transform="translate(16.893-122.19)"><g fill="#ed1c24"><g><path d="m-16.893 122.19v31.2h126.95v-31.2h-126.95m64.04.83h62.1v29.54h-62.1v-29.54"/><path d="m124.03 145.37v-6.83h-7v6.83h-2.29v-15.23h2.29v6.16h7v-6.16h2.29v15.23h-2.29"/><path d="m130.27 130.14v15.23h4.16c3.99 0 7.43-2.24 7.43-7.62 0-5.37-3.33-7.61-7.43-7.61h-4.16m2.29 2.22h1.87c3.61 0 5.1 2.2 5.1 5.39 0 3.21-1.49 5.4-5.1 5.4h-1.87v-10.79"/></g><g fill-rule="evenodd"><path d="m57.11 139.93l-1.59-.84c-.366.63-.613.95-1.204.95-.816 0-1.149-.82-1.149-1.86 0-1.07.344-1.85 1.128-1.85.623 0 .849.39 1.096 1.02l1.697-.67c-.462-1.28-1.117-1.99-2.782-1.99-1.827 0-3.095 1.31-3.095 3.49 0 2 1.075 3.5 3.084 3.5 1.601 0 2.364-.86 2.815-1.75"/><path d="m65.03 141.57v-6.77h-1.913v2.46h-2.116v-2.46h-1.913v6.77h1.913v-2.67h2.116v2.67h1.913"/><path d="m69.43 134.8l-2.461 6.77h2.01l.365-1.19h2.041l.365 1.19h2.031l-2.46-6.77h-1.891m.935 1.95c.085.46.193.82.44 1.69l.118.46h-1.117l.129-.46c.236-.86.344-1.23.43-1.69"/><path d="m81.46 141.57v-6.77h-1.795v1.85c0 .55 0 1.45.054 1.75-.15-.29-.752-1.18-1.053-1.6l-1.493-2h-1.655v6.77h1.794v-2.07c0-.55 0-1.45-.053-1.75.171.3.752 1.17 1.052 1.59l1.623 2.23h1.526"/><path d="m89.74 141.57v-6.77h-1.795v1.85c0 .55 0 1.45.054 1.75-.14-.29-.741-1.18-1.053-1.6l-1.494-2h-1.654v6.77h1.805v-2.07c0-.55-.011-1.45-.065-1.75.172.3.753 1.17 1.053 1.59l1.623 2.23h1.526"/><path d="m97.34 141.57v-1.58h-3.395v-1.16h1.998v-1.56h-1.998v-.9h3.33v-1.57h-5.189v6.77h5.254"/><path d="m104.4 141.57v-1.63h-2.99v-5.14h-1.905v6.77h4.895"/></g></g><g fill="#fff"><path d="m7.389 134.47h3.395v-7.83h-3.406s.011 1.84 0 3.39c0 .92-.075 1.61-.591 2.1-.473.44-1.891.89-3.01-.03-.591-.48-.602-1.6-.612-2.17 0-1.35.011-3.29.011-3.29h-3.428c0 0 0 2.35 0 4.33 0 .56.021 1.03.075 1.45.344 2.4 3.739 2.45 3.739 2.45 1.15.04 2.579-.18 3.825-1.15v.75"/><path d="m16.772 124.88h-3.481v1.76h-.72v1.81h.827s0 2.35-.011 4.07c0 .45.086 1.36.527 1.76.752.66 1.773.83 3.793.24v-1.62s-1.01.26-.957-1.03v-3.42h.752v-1.8h-.73v-1.77"/><path d="m25.09 126.06c-4.115.07-6.071 1.55-6.05 4.4.001 2.45 1.418 4.46 5.974 4.42 5.071-.03 6.253-2 6.242-4.53-.021-2.67-2.031-4.36-6.167-4.29m.086 2.52c1.397.03 2.202.76 2.192 1.79-.033 1.4-.827 1.92-2.246 1.92-1.289 0-2.224-.54-2.159-1.92.053-1.13.87-1.83 2.213-1.79"/><path d="m-7.694 126.03h-.173c-4.104.11-5.533 1.45-5.533 2.92h3.739c.161-.71 1.955-.73 1.955-.73 2.181.05 1.87 1.17 1.87 1.17-1.042.09-3.868.22-3.868.22-4.179.16-4.222 2.18-4.222 2.18-.613 3.91 6.596 3.65 8.122 1.93.075.28.28.75.28.75h3.578c-.333-.41-.333-.85-.333-.85s-.096-2.8-.129-4.78c-.011-.56-.129-.83-.419-1.3-.94-1.48-4.093-1.52-4.867-1.51m.661 4.92c.36 0 .761.001 1.208.03.107 1.24-1.139 1.86-2.289 1.9-1.655.06-1.977-.33-1.966-.83.038-.59.528-1.1 3.047-1.1"/><path d="m35.65 137.14h-2.256v5.5h2.256v-3.26c0-1.15 2.031-1.16 2.031.08h2.192c.333-2.33-2.085-3.5-4.223-1.65v-.67"/><path d="m14.175 136.98c-2.805.04-4.126 1.05-4.115 2.98.011 1.66.967 3.03 4.061 3 3.438-.02 4.233-1.35 4.223-3.07 0-1.81-1.376-2.96-4.169-2.91m.054 1.71c.945.02 1.493.51 1.482 1.21-.021.95-.558 1.3-1.525 1.3-.871.001-1.505-.36-1.462-1.3.032-.77.591-1.23 1.505-1.21"/><path d="m22.2 136.08h-2.396v1.21h-.495v1.25h.57s0 1.61-.011 2.8c0 .31.065.94.365 1.21.516.45 1.215.57 2.611.17v-1.12s-.698.17-.666-.71v-2.35h.527v-1.22h-.505v-1.24"/><path d="m27.962 136.98c-2.804.04-4.126 1.05-4.115 2.98.011 1.66.967 3.02 4.062 3 3.438-.02 4.233-1.35 4.222-3.07 0-1.82-1.375-2.96-4.169-2.91m.054 1.71c.945.02 1.494.51 1.483 1.21-.022.95-.559 1.3-1.526 1.3-.87.001-1.504-.36-1.461-1.3.032-.77.591-1.23 1.504-1.21"/><path d="m3.178 137.74s-1.966-1.59-4.942-.13v-.48h-2.138v5.52h2.138v-2.72c0-1.79 2.966-1.78 2.966-.02v2.74h2.31l.011-2.72c0-1.79 2.955-1.78 2.955-.02v2.74h2.246v-3.31c-.011-2.23-2.88-3.13-5.544-1.6"/><path d="m30.16 144.9c-2.32.04-3.427.88-3.417 2.48.011 1.39.806 2.52 3.374 2.5 2.869-.02 3.536-1.12 3.525-2.55 0-1.52-1.15-2.48-3.482-2.43m.054 1.43c.784.001 1.246.42 1.236 1.01-.022.78-.462 1.08-1.268 1.08-.731 0-1.257-.31-1.225-1.08.033-.65.494-1.03 1.257-1.01"/><path d="m43.25 144.36h-1.923v.97h-.398v1h.451v2.25c0 .25.043.75.29.97.409.37.978.46 2.096.14v-.9s-.559.14-.527-.56v-1.9h.408v-.98h-.397v-.99"/><path d="m22.751 144.9c-.707.02-1.289.23-1.731.65v-.4h-1.805v5.74h1.805v-1.65c.516.44 1.193.64 2.01.64 1.697.001 2.793-1.12 2.814-2.5.022-1.42-1.203-2.4-2.782-2.47-.106-.001-.21-.001-.311-.001m-.355 1.25c.741 0 1.396.54 1.396 1.24 0 .69-.644 1.29-1.386 1.29-.741 0-1.364-.58-1.364-1.27 0-.7.612-1.26 1.354-1.26"/><path d="m36.598 145.11h-1.891v4.6h1.901v-2.74c0-.95 1.687-.96 1.687.08h1.848c.269-1.94-1.751-2.93-3.545-1.39v-.55"/><path d="m15.04 146.75c-1.504.1-1.397-.73-.86-.85 0 0 1.15-.23 1.387.26h2.213c-.183-1.64-4.03-1.51-5.072-1 0 0-1.052.29-.848 1.56 0 0 .139.93 1.687 1.05l1.665.19c1.064.1.709.82-.097.81 0 0-.816.07-1.149-.4l-2.235-.001c.44 1.77 4.416 2.02 5.802.98.73-.54.816-1.68-.065-2.18 0 0-.687-.52-2.428-.41"/><path d="m6.927 147.4h.215v-1.51h-.215v.97c0 .09-.011.19-.064.27-.054.08-.15.13-.258.13-.151 0-.193-.07-.193-.19v-1.18h-.215v1.17c0 .27.14.39.365.39.15 0 .29-.09.355-.25h.011v.2"/><path d="m7.759 145.89h-.215v1.51h.226v-1.01c0-.1.011-.2.097-.28.054-.05.129-.08.204-.08.183 0 .226.11.226.27v1.1h.226v-1.17c0-.27-.15-.38-.376-.38-.161 0-.279.07-.387.2v-.16"/><path d="m9.654 145.35v.69c-.107-.13-.204-.19-.354-.19-.322 0-.473.35-.452.79 0 .13-.032.81.441.81.183 0 .279-.06.365-.25h.011v.21h.204v-2.06h-.215m-.29.68c.29 0 .29.39.29.59v.2c0 .17-.065.45-.29.45-.29 0-.301-.3-.301-.63 0-.47.118-.61.301-.61"/></g></g></svg>