<svg xmlns="http://www.w3.org/2000/svg" viewBox="0 0 405 435"><g transform="translate(-15.505-501.4)"><path d="m55.985 696.1c-3.226 13.531-.922 27.691 6.661 42.773 7.75 15.584 18.936 24.34 33.891 26.14 14.663 2.053 28.822-3.226 42.1-16.213 13.11-12.903 22.12-30.16 26.895-52.28 4.776-22.16 2.849-36.32-6.158-42.898-8.756-6.41-21.11-8.379-36.447-5.656-15.584 2.723-29.618 8-42.647 16.09-12.987 8.127-21.11 19.06-24.298 32.05" fill="#f57115"/><path d="m89.71 557.31c-13.28 3.98-24.34 13.03-33.598 27.19-9.677 14.411-11.604 28.571-5.823 42.48 5.53 13.783 17.26 23.293 35.15 28.19 17.637 5.153 37.12 4.273 58.61-2.681 21.617-6.954 32.97-15.71 34.23-26.812 1.047-10.808-3.31-22.371-13.238-34.478-10.306-11.981-21.91-21.659-35.4-28.739-13.531-7.206-26.937-8.881-39.924-5.153" fill="#fff100"/><path d="m227.37 517.13c-10.05-9.51-23.586-14.537-40.469-15.584-17.218-1.131-30.498 4.273-39.505 16.254-9.133 11.688-11.604 26.644-6.954 44.658 4.357 17.763 14.788 34.27 31.671 49.43 16.883 15.08 30.12 20.486 40.3 16.13 9.929-4.524 17.763-14.202 23.17-28.739 5.404-14.914 7.876-29.744 7.331-44.951-.628-15.291-5.907-27.775-15.542-37.2" fill="#5a7b4e"/><path d="m335.12 616.3c3.226-13.531.922-27.691-6.703-42.773-7.708-15.417-18.936-24.298-33.85-26.14-14.663-2.053-28.864 3.226-42.1 16.38-13.154 12.735-22.16 29.995-26.937 52.16-4.734 22.12-2.807 36.32 6.2 42.857 8.756 6.452 21.11 8.379 36.447 5.656 15.584-2.681 29.618-7.96 42.605-16.09 13.03-8.09 21.11-19.06 24.34-32.05" fill="#4e499b"/><path d="m297.25 755.09c13.154-3.98 24.34-13.11 33.64-27.27 9.51-14.327 11.562-28.613 5.781-42.4-5.656-13.783-17.26-23.293-35.27-28.19-17.637-5.279-37.08-4.357-58.61 2.597-21.617 7.08-32.928 15.836-34.1 26.895-1.173 10.808 3.351 22.413 13.238 34.394 10.18 12.11 21.784 21.742 35.32 28.822 13.49 7.247 27.02 8.756 40.01 5.153" fill="#ee1457"/><path d="m159.5 795.01c10.01 9.384 23.544 14.537 40.43 15.584 17.26 1.01 30.498-4.399 39.505-16.338 9.175-11.73 11.604-26.56 6.954-44.574-4.357-17.763-14.788-34.23-31.671-49.43-16.841-15.207-30.12-20.611-40.3-16.09-9.887 4.357-17.763 14.16-23.17 28.697-5.404 14.83-7.876 29.744-7.331 44.951.628 15.333 5.907 27.817 15.584 37.2" fill="#ee1c23"/><path d="m256.69 620.15c-8.337-10.683-21.617-18.684-39.631-23.963-19.06-5.53-37.62-4.985-55.76 1.299-18.936 6.577-31.17 19.313-36.698 38.12-5.53 18.684-2.723 35.651 8.337 51.11 10.725 14.579 25.764 23.04 45.33 25.513 18.559 2.178 36.07-1.801 52.28-11.981 15.584-10.05 25.764-23.334 30.917-39.673 5.03-16.59 3.477-29.995-4.776-40.43" fill="#faca43"/><path d="m189.75 705.03c4.65-.545 8.881-5.279 12.861-14.286-6.954 11.185-16.213 13.49-27.817 6.912 5.279 5.279 10.431 7.75 14.956 7.373" fill="#ee114d"/><g fill="#221e1f"><path d="m204.96 678.88c1.257-2.053 1.927-4.524 1.927-7.499 0-2.933-.67-5.53-1.927-7.583-1.299-2.053-2.723-3.1-4.524-3.1-1.801 0-3.351 1.047-4.65 3.1-1.257 2.053-1.927 4.65-1.927 7.583 0 2.974.67 5.446 1.927 7.499 1.299 2.053 2.849 3.226 4.65 3.226 1.801 0 3.226-1.173 4.524-3.226"/><path d="m174.04 678.88c1.299-2.053 1.927-4.524 1.927-7.499 0-2.933-.628-5.53-1.927-7.583-1.173-2.053-2.723-3.1-4.524-3.1-1.801 0-3.31 1.047-4.608 3.1-1.173 2.053-1.801 4.65-1.801 7.583 0 2.974.628 5.446 1.801 7.499 1.299 2.053 2.807 3.226 4.608 3.226 1.801 0 3.351-1.173 4.524-3.226"/></g><path d="m182.67 615.5c.251-.126.251-.126.251-.251.628-.628 1.299-1.257 2.053-1.676h.126c.419.126.545.67.419 1.55-.126.922-1.173 1.299-2.849 1.047v-.126c0-.126 0-.251 0-.377v-.168m12.735 4.273c-.126 0-.126 0-.251.126-3.603 1.424-7.08 1.299-10.683-.377 2.178-.251 3.603-1.424 4.524-3.351.628-1.55.377-3.1-.545-4.524-.88-1.173-2.053-1.55-3.477-1.173-2.933.67-4.901 2.472-5.53 5.446-.377-.126-.88-.251-1.299-.419-1.676-.754-2.681-1.927-3.477-3.351-.628-1.508-.628-3.184 0-5.111.67-1.969 1.927-2.723 3.896-2.346-2.22-.88-4.273-.377-5.949 1.424-1.424 1.424-1.927 3.226-1.55 5.404 0 .377 0 .628.126.922 1.173 3.477 3.603 5.53 7.499 6.284.754.251 1.382.796 1.927 1.424.628.922 1.257 1.55 2.053 1.927 3.98 1.801 8.09.922 12.735-2.304" fill="#ee114d"/><g fill="#3569a7"><path d="m405.79 886.67c0 0 .168.126.419.126h1.927v6.326l.628.377.545-.377.126-.628v-5.697h1.676l.628-.126.251-.377-.251-.628h-5.949c-.251.126-.251.377-.251.628l.251.377"/><path d="m414.97 885.67h-1.801l-.126.754v6.326l.126.377.377.377.754-.754v-5.404l1.55 5.53.796.628.628-.251.251-.377v-.754l1.55-4.776v5.404l.126.377.377.377.67-.377.251-.377v-6.326l-.503-.754h-1.801l-.126.377-1.424 4.776c-.545-1.424-.796-2.849-1.047-4.147l-.377-.628-.251-.377"/></g><g fill="#6961ac"><path d="m400.01 901.38l1.927-3.477.545-1.55c0-.628-.293-1.299-.796-1.801-.628-.503-1.299-.796-1.927-.796-.754 0-1.424.419-2.053 1.047-.796 1.047-1.55 2.346-2.304 4.106l-6.074 15.877-4.608-15.584-.796-3.351c-.377-1.173-1.299-1.801-2.43-1.801-.796 0-1.424.251-1.927.628-.545.503-.796 1.173-.796 1.927 0 .88.377 2.472 1.047 4.776l1.55 5.153c1.927 6.829 3.603 12.11 5.111 15.71.419 1.299 1.424 1.927 2.723 1.927.88 0 1.801-.503 2.304-1.55l2.22-4.524 6.284-16.715"/><path d="m376.84 895.85c-.377-.67-1.047-.796-1.801-.796l-21.365-.88c-.922-.126-1.676.251-2.178.88-.419.545-.67 1.047-.67 1.676 0 1.299.67 2.053 2.053 2.472l6.703.628h.922l1.257 18.81-.251 1.676c0 .754.251 1.257.922 1.801.503.377 1.131.628 1.801.628 1.01 0 1.676-.377 2.053-1.424.503-.754.628-1.508.628-2.555l-1.01-19.06 9.133.377c.754 0 1.424-.251 1.801-.754.503-.419.754-1.047.754-1.676 0-.796-.251-1.299-.754-1.801"/><path d="m344.67 886.42h4.608c2.053 0 3.603-.503 5.03-1.927 1.299-1.299 2.053-2.933 2.053-4.776 0-3.477-1.55-5.53-4.231-6.41l-6.452-.628h-1.299v-.545c0-7.583-2.43-11.185-7.457-10.934-1.927 0-3.477.628-4.901 1.801-1.55 1.424-2.178 2.974-2.053 4.901l.126 4.86-3.854-.084c-1.927 0-3.603.628-4.901 2.053-1.299 1.257-2.053 2.933-2.053 4.86-.126 3.896 2.053 6.2 6.452 6.703l4.734.377.419 24.09c0 1.927.754 3.477 2.43 4.901l-.126.126c1.424.922 2.974 1.424 4.65 1.424 4.985.251 7.331-3.1 7.457-10.18l-.628-20.611"/><path d="m314.13 874.86c-1.299-.796-3.351-1.047-6.03-1.047-6.452 0-11.227.503-14.16 1.424h-.168c-6.03 2.053-9.133 5.907-9.01 11.73-.126 3.98 1.801 7.457 5.949 10.306 1.55 1.01 4.734 2.681 9.635 4.86 2.346 1.047 3.603 1.55 3.896 1.927-.293.67-2.095.922-5.32.922l-3.854-1.047c-2.43-.754-4.231-1.131-5.53-1.131-4.357 0-6.452 2.053-6.452 5.907-.126 3.477 2.095 6.074 6.829 7.876v-.293c2.849 1.173 5.949 1.676 9.426 1.801 4.734 0 8.881-1.01 12.233-2.807 4.608-2.597 6.829-6.326 6.829-11.227.126-3.854-1.969-7.08-5.949-10.01-1.801-1.424-5.03-3.1-10.05-5.279l-3.854-1.801 7.75-.293c.88 2.095 2.933 3.226 5.781 3.226 3.728.251 5.656-2.555 5.656-8.504 0-3.184-1.131-5.279-3.477-6.41l-.126-.126"/><path d="m283.21 890.03v-2.555c0-7.876-3.058-11.73-9.133-11.604-4.776 0-9.133 1.173-12.861 3.603-1.173-1.927-3.1-2.933-5.781-2.933-2.22 0-3.896.754-5.03 2.053v.126c-1.173 1.173-1.801 2.681-1.801 4.776v29.618c0 1.885.503 3.477 1.508 4.734 1.173 1.424 2.849 2.053 5.03 2.053 2.095 0 3.728-.628 5.03-1.801 1.299-1.382 2.053-3.1 2.053-4.985v-17.26c1.55-2.974 3.896-4.901 6.829-5.949h.419v.922c.126 4.357 2.304 6.577 6.661 6.577 4.399.084 6.703-2.346 7.08-7.373"/><path d="m244.34 859.65c-1.55-1.299-3.226-1.927-5.279-1.927-2.178 0-3.98.628-5.404 1.927v.126c-1.55 1.424-2.43 3.226-2.43 5.279 0 2.053.754 3.728 2.43 5.279 1.424 1.299 3.226 2.053 5.404 2.053 2.053 0 3.728-.754 5.279-2.053 1.55-1.55 2.472-3.226 2.472-5.279 0-2.053-.922-3.854-2.472-5.279v-.126"/><path d="m242.79 875.61h-.126c-1.131-1.424-2.681-2.053-4.734-2.053-2.095 0-3.77.628-5.03 2.053-1.424 1.173-2.095 2.849-2.095 4.776l-.503 28.99c0 1.76.67 3.477 2.053 4.86v.126c1.299 1.173 2.974 1.676 5.03 1.676 1.927 0 3.603-.503 5.03-1.676v-.126c1.299-1.382 1.927-3.1 1.927-4.86l.377-28.99c0-1.801-.628-3.477-1.927-4.776"/><path d="m220 857.47c-4.231-1.173-7.834-1.676-10.683-1.676l-13.364 1.424-2.723-.545c-2.178 0-3.728.796-5.03 2.053-1.424 1.424-2.053 2.974-2.053 4.901l-.126 49.06c0 1.927.628 3.77 1.801 5.03h.126c1.173 1.299 2.807 1.927 4.776 1.927 2.053 0 3.728-.628 5.279-1.927 1.424-1.257 2.304-3.1 2.304-5.03v-20.444l6.829-1.173 11.06.377c1.927 0 3.477-.503 4.901-1.801v-.126c1.424-1.299 2.053-2.974 2.178-4.901.126-4.106-2.053-6.41-6.41-6.954l-11.73-.628-6.829.628v-7.08l4.231-.503h.168l4.608-.251c4.147-.126 7.625.251 10.557 1.257l2.597.545c1.801 0 3.477-.754 4.734-2.22h.168c1.257-1.382 1.927-3.058 1.927-4.86.377-2.974-2.597-5.279-9.175-7.08h-.126"/></g><g fill="#f14337"><path d="m184.6 881.4c0-1.801-.754-3.435-2.43-4.86-1.424-1.173-3.1-1.801-4.901-1.801-2.597 0-4.524 1.131-5.949 3.603v.126c-1.634 2.555-3.477 5.656-5.111 9.384l-2.723 6.2c-3.728-7.373-7.08-12.777-9.929-16.506v-.126c-1.424-1.801-3.226-2.681-5.404-2.681-1.801 0-3.477.628-4.901 2.053l-.126.126c-1.424 1.299-2.178 3.1-2.178 4.901l.503 2.43.796 1.55 1.676 2.849h.126l11.856 21.491c-5.03 10.808-7.373 17.26-7.373 19.564 0 1.927.796 3.603 2.346 4.901 1.257 1.173 2.933 1.801 4.901 1.801 3.058 0 5.404-1.424 6.535-4.65l2.346-6.661c1.55-4.02 3.854-9.05 6.661-15.08l12.4-25.26v-.126c.628-1.131.88-2.178.88-3.226"/><path d="m118.28 885.17c1.299-.545 2.43-.796 3.477-.922 2.053 0 3.603.628 4.901 2.178l.126.126c1.173 1.676 1.676 3.896 1.676 6.326 0 2.43-.628 4.524-2.178 6.03v.168c-1.55 1.634-3.477 2.43-5.949 2.43-1.801-.126-3.854-.503-6.158-1.424v-12.484c1.55-1.173 2.933-1.927 4.106-2.43m18.559-7.499c-3.896-4.483-8.881-6.787-15.08-6.787l-5.279.88-2.304.754v-10.138l.251-2.974c0-4.147-2.053-6.452-6.03-6.326-2.472-.126-4.399 1.173-5.697 3.728h-.251c-.922 1.55-1.299 3.477-1.299 5.572l-.251 45.45c0 1.801.796 3.31 2.053 4.608 1.299 1.299 2.723 1.927 4.65 1.927 1.299 0 2.555-.377 3.728-1.01 2.849 1.01 5.907 1.424 9.01 1.424 6.2 0 11.353-2.095 15.584-6.452 4.147-4.273 6.2-9.426 6.2-15.459 0-2.974-.419-5.656-1.299-8.253-.88-2.555-2.304-4.901-4.106-6.954h.126"/><path d="m83.13 887.34l-.377 4.483c0 2.597.377 6.452.88 11.604l-2.178 1.173h.126l-3.477.503c-1.55 0-2.555-.503-3.226-1.424-.88-1.424-1.424-3.351-1.424-5.907 0-2.723 1.047-5.279 2.974-7.331 1.927-2.053 4.147-3.1 6.703-3.1m13.531 7.206l.251-4.776.251-2.807c.628-.796 1.047-1.801 1.047-2.974.126-2.849-2.053-5.279-6.577-7.331-3.351-1.424-6.2-2.22-8.756-2.22-6.452 0-11.981 2.346-16.506 6.703-4.608 4.524-7.08 9.929-7.08 16.254v.084c0 6.703 1.676 11.73 4.901 14.956h.126c3.1 3.477 8 5.279 14.286 5.404l4.776-.88h.126l4.65-1.969c2.43 2.095 4.357 2.974 5.53 2.849 1.676-.126 3.351-.628 4.776-1.676l.126-.126c1.299-1.257 1.927-2.807 1.927-4.608.126-.377-.377-1.969-1.55-4.273h.126l-1.55-3.603c-.628-1.801-.88-4.776-.88-9.01"/><path d="m29.55 901.75v-8.63h7.206c1.55.126 3.226.796 5.03 1.801 1.676.922 2.597 1.927 2.849 2.974l-4.65 1.801c-3.728 1.01-7.206 1.801-10.431 2.053m9.05-31.671c1.382 1.01 2.304 2.053 2.304 3.226-.126 3.351-3.1 5.279-8.756 5.781h-2.597v-11.06h3.351c2.095 0 3.854.628 5.697 2.053m16.464 3.226c.126-5.823-2.723-10.557-8.127-14.286-4.483-3.226-9.133-4.901-14.03-4.901l-9.258.88c-5.03.67-7.876 2.472-8.127 5.823v47.38c-.126 1.927.796 3.603 2.346 5.279 1.55 1.676 3.351 2.43 5.404 2.43 8.63 0 15.836-1.01 21.742-3.226 2.597-1.01 5.279-2.43 7.625-4.483h.126c3.98-3.351 6.03-6.954 5.907-10.557v-.168c0-2.933-1.173-5.907-3.477-8.714-1.424-1.676-2.849-3.1-4.399-4.273l2.597-3.351c1.173-2.178 1.676-4.734 1.676-7.834"/></g></g></svg>