<svg xmlns="http://www.w3.org/2000/svg" height="677.5" viewBox="0 0 871.10779 677.49646" width="871.11"><path fill="#e00041" d="m280.41 674.51c-1.897-2.895-1.897-3.355 0-6.25 1.126-1.719 2.597-3.125 3.269-3.125 2.281 0 1.234-3.577-1.28-4.375-5.163-1.639-6.05-8.145-1.702-12.492 2.599-2.598 6.232-2.355 9.204.618 3.359 3.359 3.149 6.965-.625 10.739-3.627 3.627-3.813 4.634-1.25 6.761 2.561 2.126 2.358 6.676-.411 9.181-3.142 2.844-4.809 2.599-7.204-1.056m-54.914-8.665c-3.728-3.728-3.815-4.673-.686-7.504 2.82-2.552 6.962-1.714 8.836 1.788 1.539 2.875.718 5.208-2.549 7.249-2.157 1.347-2.933 1.135-5.601-1.533m111.22 0c-2.332-3.559-.903-7.536 3.173-8.83 2.938-.933 4.524-.128 6.304 3.199 1.053 1.969.704 3.04-1.812 5.555-3.89 3.89-5.158 3.903-7.665.076m-107.16-14.01c-1.854-.972-3.745-3.255-4.202-5.074-.661-2.634-.14-3.901 2.554-6.218 4.132-3.554 4.569-3.57 8.701-.32 7.521 5.916 1.378 16.03-7.05 11.613m102.16-1.022c-3.73-3.73-3.77-4.452-.477-8.638 3.48-4.424 9.08-4.477 11.936-.112 1.742 2.659 1.827 3.663.517 6.112-1.317 2.46-6.03 5.706-8.284 5.706-.343 0-2-1.381-3.691-3.068m-52.33-12.244c-5.161-4.611-5.429-8.942-.838-13.534 4.591-4.591 8.922-4.323 13.534.838 3.661 4.097 3.568 8.616-.256 12.44-3.824 3.823-8.343 3.916-12.44.256m-44.45-6.286c-1.698-.859-3.907-3.02-4.91-4.81-3.228-5.752 2.195-13.591 9.402-13.591 3.142 0 9.22 6.979 9.22 10.586 0 3.761-5.05 9.423-8.381 9.396-1.234-.0001-3.633-.721-5.332-1.581m89.28-1.47c-3.824-3.823-3.916-8.343-.256-12.44 4.565-5.109 8.947-5.424 13.406-.966 4.747 4.747 4.781 8.166.128 12.82-4.509 4.509-9.15 4.714-13.278.586m-159.99-3.738c-3.267-3.267-3.046-6.206.614-8.165 5.731-3.067 11.172 4.03 6.797 8.867-2.772 3.063-3.738 2.971-7.411-.703m234.32 1.056c-.913-1.1-1.531-3.683-1.375-5.74.281-3.687.215-3.728-4.587-2.917-4.289.725-5.186.424-7.495-2.512-2.44-3.102-2.49-3.591-.721-7.01 1.046-2.023 3.287-4.309 4.979-5.08 2.629-1.198 3.539-.968 6.253 1.581 2.732 2.566 3.06 3.668 2.349 7.879-.819 4.847-.792 4.889 2.736 4.214 7.271-1.39 10.527 4.02 5.465 9.09-3.02 3.02-5.383 3.176-7.603.5m-221.94-9.463c-3.705-1.794-5.821-6.768-4.182-9.831 3.161-5.907 10.723-5.426 13.589.864 1.896 4.162 1.772 5.04-1.112 7.928-2.764 2.764-4.327 2.959-8.295 1.038m100.93-7.782c-9.256-5.13-7.888-17.76 2.385-22.01 7.583-3.141 18.728 3.253 18.728 10.744 0 10.128-11.805 16.43-21.11 11.271m42.36-2.914c-4.926-1.377-8.03-3.817-9.585-7.529-1.437-3.437-1.431-4.703.042-8.228 2.252-5.39 7.651-9.585 12.337-9.585 5.01 0 12.208 7.12 12.202 12.06 0 2.89-3.991 11.688-5.298 11.688-.187 0-2.023.476-4.081 1.058-2.058.582-4.586.822-5.617.534m-78.61-2.086c-7.375-4.087-8.353-12.79-2.138-19.01 6.737-6.737 15.708-4.859 20.02 4.191 2.41 5.05 1.719 8.323-2.773 13.12-3.615 3.861-9.925 4.568-15.11 1.693m-50.45-.855c-1.203-.701-3.043-2.929-4.089-4.951-4.923-9.519 5.232-17.697 13.701-11.03 4.814 3.787 6.115 7.909 3.867 12.255-2.603 5.03-8.459 6.655-13.48 3.731m176.65-1.943c-3.06-3.891-3.199-5.654-.81-10.275 1.759-3.402 6.569-6.431 10.209-6.431 3.03 0 8.01 5.856 8.01 9.414 0 1.956-1.473 4.751-3.654 6.932-4.775 4.775-10.172 4.917-13.755.36m-238.53-15.03c-1.796-.725-2.159-9.172-.394-9.172.643 0 2.612.549 4.375 1.219 2.466.938 3.206 2.092 3.206 5 0 3.117-.494 3.764-2.813 3.682-1.547-.054-3.516-.382-4.375-.729m84.65-.197c-6.385-2.83-9.958-7.768-9.958-13.763 0-4.762 7.233-11.462 12.375-11.462 4.533 0 9.945 4.263 12.168 9.585 1.494 3.576 1.487 4.772-.053 8.457-2.519 6.03-9.429 9.445-14.532 7.183m133.93-.719c-8.627-4.782-8-17.916 1.072-22.609 7.296-3.773 13.842-1.321 17.06 6.392 1.521 3.639 1.513 4.803-.057 8.559-1.922 4.601-8.41 9.42-12.592 9.353-1.375-.022-3.844-.785-5.487-1.695m86.69.423c-1.697-2.746.599-7.124 4.086-7.791 4.38-.837 5.333-.209 5.333 3.516 0 4.345-7.322 7.668-9.419 4.274m-291.83-8.525c-2.732-.78-3.125-1.591-3.125-6.46 0-5.452.079-5.559 3.75-5.129 6.629.777 8.306 2.364 7.883 7.455-.413 4.969-2.326 5.898-8.508 4.135m277.5-4.254c0-5.108.318-5.704 3.438-6.448 1.891-.451 4.422-1.112 5.625-1.47 1.856-.551 2.188.204 2.188 4.986 0 6.344-.109 6.471-6.572 7.684l-4.678.878v-5.629m-146.23 1.438c-5.191-3.165-6.98-5.35-8.836-10.792-3.222-9.449 7.755-20.775 20.13-20.775 14.338 0 24.365 14.461 17.769 25.627-4.76 8.06-20.363 11.247-29.07 5.941m-111.9-9.175c-.688-.244-2.826-.793-4.751-1.218-3.354-.742-3.486-1.049-3.125-7.297l.376-6.523 5.832.072c7.981.098 10 2.049 9.541 9.194-.332 5.107-.715 5.761-3.498 5.976-1.719.133-3.688.041-4.375-.203m239.38-6.202c0-6.389.29-7.133 3.206-8.242 1.764-.67 5.139-1.219 7.5-1.219h4.294v6.801c0 3.741-.422 7.05-.938 7.357-.516.306-3.891.954-7.5 1.441l-6.563.885v-7.02m-164.07 1.508c-2.965-1.718-5.669-4.73-7.332-8.164-2.551-5.27-2.567-5.616-.498-11.03 3.932-10.295 15.17-14.727 23.878-9.417 4.189 2.554 8.02 9.347 8.02 14.209 0 6.382-10.583 17.222-16.747 17.15-1.445-.016-4.742-1.254-7.325-2.752m82.85.642c-12.39-6.37-13.197-23.571-1.392-29.676 7.86-4.065 16.914-.685 21.553 8.04 2.958 5.567 2.922 9.633-.13 14.639-4.78 7.84-12.881 10.668-20.03 6.992m-131.9-12.237c-.688-.235-3.946-.792-7.24-1.236l-5.991-.808.366-8.978.365-8.978 6.534.17c11.638.303 12.841.977 12.841 7.198 0 11.454-1.62 14.431-6.875 12.632m188.64-1.086c-.354-.922-.474-5.274-.267-9.67l.377-7.993 8.447-1.136c4.646-.625 8.663-.906 8.927-.625s.681 4.402.928 9.158c.505 9.753.856 9.422-11.786 11.133-4.437.601-6.15.377-6.627-.867m-279.27-5.67c-2.563-.713-3.125-1.646-3.125-5.188 0-3.865.327-4.282 3.12-3.966 1.716.194 3.785 1.038 4.597 1.875 1.45 1.495.877 8.517-.676 8.273-.435-.068-2.198-.516-3.917-.994m370.85.299c-.466-.466-.847-2.386-.847-4.266 0-2.712.815-3.703 3.937-4.792 2.165-.755 4.07-1.372 4.233-1.372 1.091 0 1.14 7.758.055 8.621-2.115 1.682-6.443 2.744-7.377 1.81m-357.41-8.385c-4.317-1.139-4.686-1.589-4.668-5.703.031-7.272 1.374-8.336 7.03-5.572 4.375 2.136 4.79 2.76 4.466 6.712-.459 5.592-1.157 6.06-6.83 4.563m342-.199c-.339-.884-.437-3.437-.216-5.672.337-3.418 1.128-4.315 4.982-5.642 2.52-.868 4.91-1.249 5.313-.847.402.402.731 3.052.731 5.89 0 4.979-.178 5.206-5.096 6.519-3.993 1.066-5.23 1.012-5.713-.248m-179.19-4.5c-4.03-1.608-8.524-5.828-10.744-10.1-2.485-4.776-2.18-10.584.887-16.92 1.454-3 2.299-5.804 1.878-6.225s-6.673-1.027-13.893-1.349c-7.221-.321-13.13-1.108-13.13-1.749 0-.641.923-7.094 2.052-14.34 1.618-10.391 1.724-13.377.502-14.13-.853-.527-7.223-1.603-14.156-2.392-6.933-.788-12.909-1.736-13.279-2.106s.858-6.493 2.729-13.607c1.871-7.114 3.402-13.488 3.402-14.163 0-.676-6.188-2.764-13.75-4.64-9.306-2.309-13.75-3.975-13.75-5.156 0-.96 2.054-7.111 4.564-13.668 2.649-6.92 4.091-12.357 3.438-12.956-.619-.568-5.907-2.585-11.751-4.482-16.521-5.362-15.692-3.817-9.295-17.321 3.05-6.438 5.545-12.658 5.545-13.821 0-1.456-3.8-3.879-12.187-7.772-6.703-3.111-12.362-5.831-12.574-6.04-.213-.213 2.74-5.418 6.562-11.568 3.822-6.15 6.949-12.06 6.949-13.14 0-1.141-4.97-4.922-11.928-9.07-8.195-4.89-11.584-7.569-10.831-8.559.603-.793 4.283-5.49 8.178-10.437 3.894-4.948 7.081-9.515 7.081-10.149 0-.634-1.992-1.476-4.426-1.871-10.992-1.784-18.974-12-17.764-22.746 1.375-12.198 13.226-24.363 23.734-24.363 9.145 0 17.805 6.441 21.17 15.747 1.409 3.897 3.978 5.603 4.994 3.316.791-1.779 18.849-17.812 20.06-17.812.669 0 4.397 3.03 8.285 6.739 8.669 8.263 14.635 13.261 15.831 13.261.495 0 5.655-4.5 11.465-10 9.764-9.243 13.288-11.467 14.357-9.06.91 2.048 20.14 19.06 21.481 19 .79-.032 6.468-4.757 12.618-10.5l11.182-10.443 11.318 10.497c6.225 5.773 11.789 10.498 12.366 10.5.576.002 6.158-4.733 12.404-10.523l11.357-10.526 10.08 9.276c5.545 5.102 11 9.276 12.13 9.276 1.213 0 2.358-1.4 2.812-3.438 1.579-7.084 12.05-15.33 19.408-15.285 14.914.091 28.444 17.07 24.858 31.2-1.819 7.165-7.911 13.296-15.13 15.227-3.212.859-5.839 2.233-5.839 3.053 0 .82 3.601 5.951 8 11.402l8 9.911-12.377 7.377c-6.807 4.057-12.377 7.98-12.377 8.718 0 .738 3.117 6.305 6.926 12.372 3.809 6.067 6.76 11.528 6.558 12.136-.203.608-5.611 3.577-12.02 6.599-6.407 3.02-11.982 5.826-12.388 6.232-.406.406 1.968 6.657 5.277 13.89 3.309 7.233 5.792 13.345 5.518 13.582-.274.237-6.02 2.256-12.776 4.485-6.753 2.229-12.592 4.872-12.976 5.873-.384 1 1.392 7.455 3.947 14.343s4.457 12.712 4.226 12.942c-.373.372-14.648 4.048-23.857 6.145-4.325.985-4.368 2.867-.403 17.61 1.664 6.188 2.642 11.649 2.173 12.136-.469.487-6.755 1.623-13.968 2.523l-13.11 1.637.052 5.602c.029 3.081.509 9.883 1.068 15.12l1.016 9.514-12.65.609c-6.957.335-12.999.958-13.426 1.385-.427.427.448 3.622 1.944 7.1 1.903 4.423 2.484 7.582 1.934 10.513-1.012 5.396-7.354 13.07-12.618 15.27-4.72 1.972-18.322 2.159-22.946.315zm2.932-39.22c5.788-2.418 10.774-2.373 17.09.156 2.792 1.117 5.426 1.683 5.851 1.257.426-.426.108-6.201-.708-12.834s-1.185-12.357-.822-12.72c.363-.363 6.617-1.085 13.897-1.605 7.28-.52 13.488-1.196 13.795-1.504.307-.307-.343-4.708-1.446-9.78s-2.313-11.245-2.689-13.718l-.684-4.497 13.889-2.235c7.639-1.229 13.889-2.611 13.889-3.07 0-.46-1.929-6.563-4.286-13.563-2.357-7-3.904-12.958-3.438-13.24.467-.282 6.614-2.058 13.661-3.947s12.812-3.835 12.812-4.325-2.492-6.175-5.537-12.634c-4.681-9.927-5.259-11.959-3.74-13.14.988-.767 6.855-3.204 13.04-5.416 6.182-2.211 11.24-4.474 11.24-5.03 0-.553-3.084-6.272-6.853-12.709l-6.853-11.703 12.478-6.222c6.863-3.422 12.478-6.746 12.478-7.386 0-.64-2.352-4.309-5.226-8.153-2.874-3.844-6.541-8.743-8.149-10.888l-2.923-3.899 10.649-6.707c10.856-6.837 12.597-9.08 8.142-10.497-6.117-1.941-14.993-13.01-14.993-18.698 0-3.782-3.673-1.791-13.168 7.138-5.3 4.984-10.131 9.25-10.734 9.479-.603.229-6.02-4.125-12.04-9.676-6.02-5.551-11.808-10.1-12.872-10.1-1.064-.006-4.157 2.287-6.875 5.095-2.718 2.809-7.618 7.365-10.889 10.125l-5.948 5.02-11.09-10.125c-6.1-5.569-11.775-10.125-12.611-10.125-.836 0-5.262 3.525-9.836 7.833-15.179 14.297-12.208 14.02-25.01 2.332-6.124-5.591-11.844-10.165-12.712-10.165-.868 0-6.265 4.5-11.994 10-5.729 5.5-10.851 9.986-11.383 9.969-.532-.017-5.467-4.216-10.967-9.331-5.5-5.115-10.562-9.294-11.25-9.288-.688.006-2.656 2.94-4.375 6.518-2.112 4.397-5.149 8.02-9.368 11.172-3.434 2.566-6.374 5.098-6.533 5.625-.16.528 3.95 3.49 9.132 6.584s9.995 6.298 10.694 7.121c.911 1.072-.885 4.363-6.327 11.599-4.179 5.557-7.598 10.812-7.598 11.679 0 .867 5.543 4.303 12.317 7.636l12.317 6.06-4.861 8c-2.674 4.401-5.805 9.982-6.959 12.401-2.546 5.339-2.744 5.17 12.498 10.657 6.02 2.165 10.938 4.344 10.938 4.841 0 .497-2.25 5.774-5 11.727-2.75 5.952-5 11.634-5 12.627 0 1.076 2.143 2.352 5.313 3.161 16.803 4.293 20.314 5.717 20.16 8.174-.086 1.342-1.727 7.362-3.646 13.377-1.919 6.02-3.242 11.185-2.939 11.487.303.303 6.162 1.49 13.02 2.638 6.859 1.148 12.853 2.447 13.32 2.888.467.44-.348 6.548-1.81 13.573-1.463 7.03-2.31 13.12-1.883 13.549.427.427 5.46 1.041 11.185 1.365 17.356.981 16.506.424 15.524 10.191-.463 4.605-1.172 10.481-1.576 13.06-.826 5.278-.25 5.536 6.268 2.813zm-64.05 35.31l-10.49-1.218.806-11.362c.444-6.249 1.264-11.819 1.824-12.379.559-.559 5.994-.304 12.08.567l11.06 1.584-.296 9.936c-.28 9.402-1.605 14.654-3.6 14.265-.492-.096-5.614-.723-11.383-1.393m131.86.509c-.279-.451-.908-5.95-1.399-12.218l-.892-11.398 7.336-.824c4.03-.453 9.412-1.133 11.949-1.51 4.436-.659 4.639-.526 5.291 3.474.373 2.288.829 7.798 1.012 12.245l.334 8.09-6.25.846c-13.607 1.841-16.895 2.087-17.382 1.299m-216.37-3.169l-5-1.535.376-6.766c.207-3.721.599-6.988.87-7.26.83-.83 13.09 2.459 13.867 3.721.402.65.347 3.969-.121 7.374-.943 6.854-1.459 7.085-9.992 4.465m304.93.132c-.394-1.028-.541-4.308-.326-7.289.384-5.319.504-5.452 6.435-7.12 3.324-.935 6.358-1.385 6.743-1 .385.385.966 3.47 1.291 6.855.663 6.903-.311 7.963-8.775 9.551-3.554.667-4.82.432-5.368-.996m-279.31-14.231c-3.781-1.017-7.313-2.276-7.849-2.798-1.125-1.096.179-14.08 1.653-16.465.807-1.306 2.348-1.305 8.281.006 8.698 1.922 10.192 2.95 9.667 6.653-.219 1.543-.737 5.476-1.152 8.742-.833 6.564-.714 6.52-10.601 3.861m253.31-.035c-.362-1.245-1.034-5.458-1.491-9.363l-.832-7.1 6.61-1.963c11.341-3.368 12.1-3.063 13.04 5.225.449 3.953.911 7.994 1.027 8.98.202 1.715-4.239 3.528-13.77 5.621-3.164.695-4.055.423-4.586-1.4m-338.62-14.91c-3.766-1.974-4.819-7.517-1.658-8.73 2.819-1.082 6.975 1.827 6.954 4.867-.033 4.823-1.468 5.869-5.296 3.863m429.05.471c-.0001-.861-.334-2.746-.721-4.187-.554-2.064.122-2.963 3.182-4.231 4.543-1.882 4.737-1.772 5.273 2.991.346 3.071-.209 3.876-3.655 5.307-3.192 1.325-4.066 1.351-4.079.12m-313.69-5.432c-4.443-.986-8.477-2.207-8.964-2.713-1.356-1.411 3.145-21.914 4.943-22.513 1.268-.423 14.53 2.159 20.974 4.083.966.288.774 3.69-.644 11.459-2.334 12.778-2.34 12.782-16.308 9.684m188.13-.821c-2.094-9.495-3.203-18.902-2.325-19.719 1.069-.995 17.706-4.969 20.802-4.969 1.254 0 2.439 3.363 3.979 11.295 1.207 6.212 1.948 11.541 1.647 11.841-.762.762-18.17 4.364-21.09 4.364-1.466 0-2.635-1.091-3.01-2.813m-289.7-1.01c-4.256-2.248-4.589-2.803-3.897-6.507 1.074-5.748 1.904-6.224 7.08-4.062 4.742 1.981 5.496 4.03 3.808 10.324-.902 3.367-1.067 3.373-6.991.245m399.78 1.517c-.286-.464-.896-2.843-1.355-5.288-.801-4.269-.631-4.536 4.274-6.749 2.81-1.267 5.431-1.981 5.826-1.586.394.395 1.01 2.905 1.369 5.579.634 4.729.512 4.917-4.471 6.874-2.818 1.107-5.357 1.633-5.644 1.17m-381.13-10.49c-4.155-1.783-5.789-3.13-5.31-4.377.38-.991 1.05-4.04 1.488-6.784.881-5.511 1.476-5.603 10.851-1.686 4.961 2.073 4.857 1.499 2.138 11.806-1.053 3.993-2.033 4.104-9.168 1.042m359.92.654c-.363-1.232-1.032-4.343-1.487-6.913-.818-4.617-.757-4.704 5.04-7.188 8.521-3.652 8.27-3.814 10.09 6.479.774 4.371.588 4.714-3.48 6.414-8.259 3.451-9.46 3.594-10.162 1.208m-333.22-12.38c-4.43-1.679-8.251-3.249-8.49-3.489-1.037-1.037 3.868-16.997 5.224-16.997 2.151 0 13.557 3.899 15.236 5.208 1.044.814.916 3.145-.486 8.885-1.046 4.28-2.245 8.156-2.665 8.613-.42.457-4.389-.542-8.819-2.221m305.78 1.168c-3.073-11.132-3.604-15.722-1.943-16.775 3.24-2.054 13.687-5.11 15.322-4.483 2.043.784 5.326 15.592 3.771 17-.617.56-3.653 1.877-6.747 2.927-3.094 1.05-6.558 2.29-7.7 2.757-1.407.575-2.277.115-2.703-1.43m-272.72-17.504c-5.5-1.729-10.207-3.343-10.46-3.586-1.056-1.013 6.614-23.13 7.861-22.667.742.275 5.709 1.787 11.04 3.359 5.328 1.572 9.688 3.36 9.688 3.972 0 3.893-5.562 22.254-6.716 22.17-.775-.057-5.909-1.518-11.409-3.248m234.97-3.769c-1.108-3.99-2.546-8.906-3.196-10.926-.65-2.02-.752-4.055-.228-4.525 1.552-1.389 20.713-7.461 21.394-6.78.993.993 6.399 18.508 6.418 20.792.016 1.93-2.445 2.912-20.241 8.07-1.698.493-2.544-.862-4.147-6.636m-352-3.51c-2.558-1.39-3.14-2.476-2.663-4.968.796-4.166 1.939-4.747 5.843-2.968 3.371 1.536 3.667 2.389 2.431 7-.874 3.26-1.223 3.318-5.61.934m478.23.004c-.322-1.031-.843-2.703-1.158-3.716-.581-1.868 3.667-5.659 6.34-5.659.804 0 1.842 1.516 2.307 3.368.664 2.647.225 3.846-2.052 5.597-3.563 2.741-4.682 2.825-5.437.41m-16.706-5.79c-2.067-5.93-1.775-6.855 3.067-9.712 2.445-1.443 4.606-2.623 4.802-2.623.547 0 3.479 10.204 3.03 10.53-.22.157-2.45 1.519-4.957 3.02l-4.558 2.739-1.38-3.958m-447.14.424c-4.121-2.267-4.06-1.606-1.044-11.236.377-1.203 1.775-.951 5.63 1.016 3.587 1.83 4.908 3.191 4.394 4.529-.404 1.052-1.074 3.267-1.489 4.922-.885 3.528-2.225 3.666-7.491.769m22.632-5.45c-8.354-4.561-8.117-4.117-5.909-11.02 1.106-3.459 2.489-6.288 3.072-6.288 1.61 0 10.696 4.81 11.479 6.076 1.042 1.686-3.045 12.679-4.698 12.636-.795-.021-2.57-.652-3.945-1.403m402.07-3.392c-2.208-7.369-1.916-8.08 4.789-11.675l6.236-3.345 2 6.894c1.102 3.792 1.812 7.06 1.576 7.273-1.111.983-11.08 5.686-12.06 5.686-.606 0-1.753-2.175-2.55-4.832m-26.447-3.197c0-.233-1.4-4.142-3.111-8.688l-3.111-8.265 8.59-4.326 8.59-4.326 2.73 7.486c1.501 4.117 2.551 8.315 2.334 9.329-.327 1.52-16.02 10.132-16.02 8.79m-351.18-3.956c-3.745-1.7-7.04-3.319-7.315-3.597-.549-.549 3.137-12.443 4.942-15.948 1.013-1.968 1.786-1.816 8.896 1.749 4.282 2.147 7.984 4.066 8.227 4.263 1.03.836-5.152 16.761-6.48 16.696-.803-.04-4.525-1.463-8.269-3.163m44.934-8.98c-2.277-.716-19.212-7.948-19.779-8.447-1.041-.915 9.04-21.904 10.268-21.38.762.325 5.04 2.092 9.511 3.926 4.469 1.834 8.619 3.807 9.222 4.385.623.596-.35 5.02-2.252 10.234-4.082 11.192-4.598 12.03-6.97 11.282m268.26-.067c-1.588-2.57-8.285-20.609-7.823-21.07.295-.295 4.958-2.466 10.362-4.825 8.291-3.618 10.03-4.01 11.16-2.503 2.117 2.832 8.514 19.375 7.777 20.11-1.65 1.65-20.971 9.106-21.477 8.288m-393.45-22.83c-3-2.186-3.177-2.754-1.899-6.139 1.645-4.357 1.832-4.4 5.591-1.266 2.169 1.808 2.662 3.155 2.049 5.595-1.095 4.364-1.89 4.615-5.74 1.81m515.41-1.089c-1.155-3.315-.934-4 2.036-6.34l3.332-2.621 1.794 3.788c1.686 3.561 1.613 3.939-1.221 6.298-3.987 3.32-4.42 3.238-5.942-1.126m-500.64-2.89c-3.538-2.831-3.55-2.889-1.6-7.558 2.076-4.969 2.74-5.01 8.768-.502 2.09 1.562 2.184 2.271.841 6.342-1.759 5.331-3.127 5.624-8.01 1.718m483.43-1.64c-2.02-4.83-1.628-5.573 4.927-9.373 2.741-1.589 2.744-1.586 5.145 4.16l1.894 4.534-4.189 2.589c-2.304 1.424-4.574 2.589-5.04 2.589s-1.7-2.025-2.734-4.499m-462.39-2.57c-2.738-1.825-5.132-3.433-5.322-3.573-.367-.273 4.543-12.1 5.365-12.922.652-.652 11.849 6.454 11.852 7.522.005 1.91-4.989 12.291-5.913 12.291-.552 0-3.244-1.493-5.982-3.318m439.64-2.923l-2.593-6.24 5.464-3.76c3.01-2.068 5.813-3.76 6.238-3.76.94 0 5.585 10.02 5.624 12.135.024 1.292-9.569 7.865-11.478 7.865-.364 0-1.828-2.808-3.254-6.24m-411.49-3.22c-3.778-2.343-7.06-4.831-7.292-5.528-.461-1.382 6.241-16.263 7.325-16.263.366 0 3.903 2.025 7.859 4.499 6.072 3.798 7.06 4.918 6.362 7.188-.92 2.975-6.63 14.621-7.091 14.464-.16-.055-3.383-2.02-7.161-4.36m381.48-3.94l-3.913-8.423 7.414-4.714c4.078-2.593 7.712-4.714 8.07-4.714.707 0 8.426 16.502 7.884 16.855-.178.116-2.574 1.54-5.324 3.164-2.75 1.625-6.175 3.696-7.611 4.604-2.465 1.558-2.831 1.178-6.525-6.772m-345.55-5.694c-5.326-2.905-9.685-5.661-9.688-6.124-.0001-1.94 10.317-19.783 11.449-19.783 2.067 0 18.547 10.03 18.547 11.284 0 1.652-9.155 19.972-9.962 19.935-.365-.017-5.02-2.407-10.347-5.313m308.26 1.382c-4.427-8.319-7.994-16.414-7.465-16.943.298-.298 4.825-2.982 10.06-5.966l9.519-5.425 3.891 7.709c2.14 4.24 4.691 8.93 5.669 10.422 1.702 2.599 1.408 2.929-6.971 7.823-12.301 7.184-12.16 7.161-14.704 2.381m-421.65-32.22c-2.948-2.265-3-2.55-1.221-6.312l1.866-3.94 3.398 2.673c3.264 2.567 3.323 2.817 1.501 6.34-1.043 2.02-2.023 3.655-2.177 3.64-.154-.015-1.669-1.095-3.367-2.4m542.59-.911c-1.352-2.968-1.18-3.68 1.556-6.416l3.077-3.077 1.939 3.749c1.838 3.553 1.791 3.888-.9 6.416-3.601 3.383-3.838 3.355-5.673-.672m-527.15-1.383l-3.897-3.404 2.674-4.576 2.674-4.576 4.139 3.378 4.139 3.378-2.21 4.635c-1.216 2.549-2.528 4.62-2.916 4.601s-2.46-1.565-4.603-3.438m509.75-1.192l-2.345-4.711 4.053-3.448 4.053-3.448 2.68 4.543c2.576 4.366 2.594 4.639.456 7-4.648 5.136-6.366 5.148-8.898.063m-488.6-1.4l-5.245-4.562 3.37-5.932c1.853-3.263 3.651-5.914 3.995-5.891.344.023 2.842 1.939 5.553 4.259l4.928 4.217-2.308 5.118c-3.459 7.672-4.39 7.924-10.292 2.791m465.31-1.317l-3.146-6.209 5.255-4.498 5.255-4.498 2.182 2.855c1.2 1.57 2.826 4.386 3.612 6.258 1.305 3.103 1.072 3.708-2.641 6.875-6.987 5.959-7.105 5.95-10.517-.783m-437.34-2.08c-6.843-5.372-7.172-5.872-5.549-8.437.949-1.499 3-4.835 4.564-7.413s3.366-4.688 4.01-4.688c1.634 0 13.466 9.133 13.553 10.461.062.94-8.481 15.79-9.08 15.788-.122 0-3.495-2.571-7.496-5.712m409.41 2.86c-.746-1.525-2.805-5.124-4.576-7.998l-3.22-5.225 7.368-5.669 7.368-5.669 4.526 7.333c2.489 4.03 4.526 7.856 4.526 8.495 0 .977-8.09 7.493-13.171 10.609-.866.531-2.02-.234-2.82-1.875m-370.89-7.331c-4.79-3.387-9.202-6.651-9.805-7.254-1.472-1.472 11.666-20.21 13.446-19.18 4.948 2.872 16.991 12.02 16.991 12.905 0 .59-2.683 5.26-5.961 10.378l-5.961 9.305-8.709-6.158m326.45-4.328c-3.33-5.228-5.58-9.923-5-10.433.58-.51 4.825-3.574 9.432-6.809l8.377-5.882 4.384 6c5.143 7.04 8.99 13.847 8.182 14.47-4.809 3.71-17.522 12.158-18.294 12.156-.564 0-3.751-4.28-7.081-9.508zm-371.55-36.6c-4.189-2.555-8.02-9.347-8.02-14.209 0-1.685 1.283-4.968 2.851-7.295 5.424-8.05 13.889-7.993 19.409.128 4.309 6.34 3.368 15.318-2.119 20.222-4.615 4.123-6.892 4.34-12.12 1.155m37.28-.137c-8.477-5.168-11.724-14.554-7.972-23.04 4.339-9.809 13.967-13.35 22.37-8.227 11.922 7.269 11.922 23.994 0 31.26-5.158 3.145-9.24 3.145-14.398 0m342.9.052c-4.757-3.136-9.435-10.912-9.435-15.684 0-2.063 1.295-5.89 2.879-8.505 7.541-12.457 21.471-12.858 28.24-.812 4.836 8.605 2.283 19.07-6 24.605-5.197 3.472-10.8 3.614-15.68.397m42.04.749c-3.926-2.178-7.719-8.21-7.729-12.29-.036-14.829 16.808-21.97 23.1-9.794 2.646 5.116 2.349 12.11-.724 17.08-4.101 6.635-8.811 8.244-14.651 5m28.946-2.626c-5.667-5.667-5.314-12.203.976-18.06 3.693-3.44 6.765-3.309 10.523.448 5.9 5.9 3.03 19.09-4.593 21.09-1.991.521-3.846-.412-6.905-3.471m-501.57.398c-5.02-5.393-4.451-13.09 1.202-16.12 2.091-1.119 3.144-.702 6.368 2.521 3.242 3.242 3.738 4.507 3.087 7.875-.721 3.732-4.665 8.387-7.107 8.387-.585 0-2.182-1.201-3.549-2.669m20.868.482c-3.044-3.49-4.729-7.392-4.729-10.951 0-3.716 6.092-10.611 9.375-10.611 1.137 0 3.712 1.644 5.721 3.654 4.555 4.555 5.01 11.782 1.063 16.803-3.047 3.874-8.551 4.406-11.43 1.106m504.94.624c-5.263-3.996-4.454-13.958 1.388-17.08 6.539-3.5 11.678 6.114 7.505 14.04-2.498 4.747-5.36 5.726-8.893 3.043m-542.74-2.45c-2.458-3.51-2.458-5.934 0-9.444 2.398-3.424 3.608-3.474 6.804-.278 2.996 2.996 3.242 7.83.536 10.536-2.716 2.716-5.05 2.457-7.34-.814m559.3.899c-2.239-2.698-1.92-7.805.666-10.663 2.689-2.972 3.574-3.043 6.123-.494 2.652 2.652 2.483 8.429-.322 10.967-2.832 2.563-4.458 2.61-6.467.19m-120.39-36.95c-8.826-2.49-17.11-13.344-17.11-22.42 0-5.727 4.529-11.997 10.92-15.12 4.542-2.217 5.916-2.379 9.667-1.141 8.827 2.913 16.884 16.279 15.195 25.2-1.628 8.601-11.276 15.562-18.675 13.474zm-321.02-2.02c-7.773-4.824-9.909-15.534-5-25.1 3.17-6.185 11.592-12.798 16.289-12.791 7.492.011 16.361 9.187 16.37 16.937 0 2.099-1.456 6.748-3.241 10.331-5.321 10.679-16.492 15.539-24.413 10.623m-45.14-1.102c-4.073-2.21-7.203-7.771-7.203-12.796 0-4.653 4.694-11.629 9.321-13.854 3.158-1.518 4.09-1.47 7.541.388 10.386 5.593 10.785 21.1.678 26.323-4.489 2.322-5.963 2.313-10.338-.061m408.62-.611c-4.178-3.286-6.351-10.875-4.51-15.749 3.822-10.116 12.859-13.419 19.05-6.961 4.855 5.067 6.439 10.453 4.659 15.845-2.885 8.743-12.456 12.166-19.19 6.865m-435.91-18.59c-4.487-4.487-4.743-9.355-.801-15.224 3.708-5.52 8.417-6.216 12.748-1.885 4.621 4.621 4.398 12.206-.505 17.11-2.01 2.01-4.584 3.654-5.721 3.654-1.137 0-3.712-1.644-5.721-3.654m464.68 1.385c-3.891-4.299-4.918-9.514-2.849-14.466 2.534-6.06 7.03-8.114 11.442-5.22 3.973 2.603 7.238 9.877 6.108 13.609-2.243 7.408-10.434 10.793-14.702 6.077m-351.78-2.724c-8.645-5.271-11.348-15.02-6.239-22.507 7.618-11.16 21.569-10.973 28.492.381 3.111 5.102 3.095 10.414-.048 15.569-3.08 5.05-9.426 9.04-14.382 9.04-2.063 0-5.583-1.118-7.824-2.484m92.16-5.961l-8.997-8.427 8.787-7.809c4.833-4.295 9.165-7.809 9.626-7.809 1.09 0 16.873 15.15 16.873 16.193 0 .438-3.891 4.281-8.647 8.539l-8.647 7.742-8.997-8.427m47.593-.087l-9.106-8.334 8.795-7.813c4.837-4.297 9.173-7.813 9.635-7.813 1.09 0 16.873 15.15 16.873 16.193 0 .438-3.846 4.24-8.546 8.448l-8.546 7.651-9.106-8.334m47.694.018l-9.1-8.351 8.708-7.813c4.789-4.297 9.09-7.813 9.554-7.813 1.236 0 16.944 15.359 16.548 16.18-.185.382-3.999 4.172-8.477 8.421l-8.141 7.726-9.1-8.351m47.59 6.671c-5.379-2.339-9.08-8.641-9.08-15.481 0-4.662.692-6.156 4.767-10.231 7.711-7.711 14.11-8.03 22-1.103 7.779 6.83 8.356 14.947 1.579 22.23-5.865 6.3-11.983 7.757-19.267 4.59zm-190.96-7.211l-8.412-7.814 8.911-7.92 8.911-7.92 7.304 6.328c11.344 9.827 11.21 8.739 2.14 17.449-4.406 4.231-8.558 7.692-9.226 7.692-.669 0-5-3.517-9.628-7.815m-175.19-6.643c-2.585-2.585-3.06-3.981-2.445-7.188 1.016-5.297 6.344-10.05 9.419-8.406 3.814 2.041 5.67 8.151 3.827 12.6-1.382 3.336-4.538 6.202-6.83 6.202-.42 0-2.207-1.444-3.972-3.208m503.41 1.444c-2.939-3.541-2.993-9.891-.115-13.549 3.347-4.255 5.02-4.307 8.804-.278 3.338 3.553 3.997 10.368 1.315 13.599-2.046 2.466-8.03 2.602-10 .228m-437.23-2.51c-2.082-1.752-4.481-4.864-5.331-6.916-1.334-3.221-1.189-4.466 1.061-9.115 2.576-5.321 7.986-9.705 11.977-9.705 4.154 0 9.662 3.993 11.467 8.313 1.694 4.055 1.633 4.819-.785 9.813-4.577 9.454-12.366 12.677-18.389 7.61m366.63-.799c-7.894-6.931-8.446-14.633-1.513-21.08 6.192-5.76 14.983-2.882 19.852 6.499 2.023 3.898 2.163 5.244.933 8.972-3.142 9.521-11.911 12.07-19.272 5.612m86.75-8.688c-3.186-3.186-3.199-8.05-.028-11.222 2.945-2.945 5.42-2.28 7.359 1.974 1.954 4.288 1.777 7.461-.545 9.783-2.573 2.573-3.771 2.478-6.786-.536m-533.7-1.17c-2.12-3.961-1.483-8.219 1.673-11.183 2.689-2.526 3.149-2.604 4.918-.835 3.144 3.144 3.631 6.546 1.523 10.624-2.26 4.371-6.162 5.04-8.113 1.395m111.68-11.22c-7.574-4.619-7.746-15.38-.33-20.575 6.375-4.465 17.196-.32 19.11 7.322 1.132 4.512-2.191 11.402-6.599 13.681-4.935 2.552-7.44 2.464-12.185-.429m304.8.437c-4.142-2.901-6.816-8.859-5.883-13.11 1.01-4.603 7.284-9.943 11.68-9.943 6.621 0 12.597 5.921 12.615 12.5.026 9.464-10.968 15.763-18.412 10.549m-353.46-7.609c-3.483-3.759-3.634-4.539-1.611-8.337 3.466-6.508 9.454-7.648 13.455-2.562 3.381 4.298 3.28 8.123-.302 11.489-3.864 3.63-7.818 3.428-11.542-.59m404.04 1.912c-3.497-2.034-4.562-6.231-2.569-10.131 3.428-6.709 10.3-7.07 14.71-.775 2.727 3.893 2.525 5.641-1.067 9.233-3.243 3.243-7.317 3.859-11.07 1.673m-319.54-1.439c-1.681-.851-4.118-3.365-5.416-5.587-6.264-10.726 8.323-23.09 18.13-15.372 4.78 3.76 6.621 9.185 4.695 13.835-3.146 7.595-10.521 10.612-17.414 7.124m44.799-4.535l-6.742-6.354 6.669-6.454 6.669-6.454 6.441 6.441 6.441 6.441-6.368 6.368-6.368 6.368-6.742-6.354m47.59-.1l-6.832-6.275 6.875-6.226 6.875-6.226 6.235 6.223 6.235 6.223-6.278 6.278-6.278 6.278-6.832-6.275m47.51.284c-3.687-3.39-6.272-6.719-5.805-7.475.463-.75 3.529-3.613 6.813-6.362l5.971-4.999 6.341 6.05 6.341 6.05-6.507 6.426-6.507 6.426-6.647-6.112m47.735-.341c-3.668-3.363-6.339-6.651-5.934-7.306.405-.655 3.417-3.436 6.694-6.179l5.957-4.988 6.652 6.181 6.652 6.181-2.952 2.756c-1.623 1.516-4.628 4.266-6.676 6.113l-3.724 3.357-6.67-6.115m44.05 2.026c-4.795-4.795-5.423-9-2.168-14.513 2.331-3.946 6.454-6.237 11.227-6.237 4.736 0 11.691 7.436 11.691 12.5 0 2.882-1.188 5.188-4.25 8.25s-5.368 4.25-8.25 4.25c-2.882 0-5.188-1.188-8.25-4.25m-327.04-13.56c-6.088-4.692-.02-14.453 6.737-10.837 1.256.672 2.656 2.707 3.111 4.522.638 2.541.178 3.826-1.999 5.589-3.326 2.693-5.087 2.856-7.85.727m427.84-.856c-2.82-5.268.055-10.08 6.02-10.08 2.63 0 3.709.855 4.832 3.829 1.245 3.3 1.111 4.163-.976 6.25-3.125 3.125-8.205 3.127-9.877.004m-378.7-7.07c-5.832-4.907-4.928-11.614 2.066-15.34 5.728-3.051 12.884 1.725 12.798 8.542-.046 3.683-1.982 6.538-5.816 8.58-3.837 2.044-4.705 1.873-9.05-1.782m328.29 1.015c-6.302-3.892-6.074-12.575.418-15.932 3.168-1.638 4.303-1.692 7.124-.335 7.589 3.648 8.502 13.03 1.616 16.591-4.536 2.346-4.854 2.335-9.157-.323m60.6-8.591c.507-5.958 3.645-8.089 7.19-4.88 4.751 4.299 2.071 9.441-4.92 9.441-2.296 0-2.605-.622-2.27-4.561m-448.88 1c-1.559-2.912 1.484-7.693 4.897-7.693 3.03 0 6.16 4.449 5.341 7.581-.866 3.312-8.481 3.395-10.238.112m105.46-3.261c-1.688-1.688-3.068-4.526-3.068-6.307 0-4.424 5.203-9.375 9.852-9.375 4.348 0 8.898 4.909 8.898 9.6 0 3.975-5.302 9.15-9.375 9.15-1.781 0-4.619-1.381-6.307-3.068m142.23-1.752l-5.326-4.647 5.01-4.891 5.01-4.891 4.678 4.312c2.573 2.371 4.938 4.472 5.256 4.667.318.195-1.645 2.547-4.361 5.226l-4.939 4.87-5.326-4.647m47.6-.095l-5.219-4.819 2.723-2.354c8.399-7.262 7.403-7.11 12.49-1.9l4.613 4.724-4.694 4.584-4.694 4.584-5.219-4.819m45.47 2.382c-1.771-1.393-3.563-3.615-3.983-4.938-1.097-3.456 2.627-9.859 6.263-10.772 10.865-2.727 16.996 9.872 7.903 16.241-3.79 2.654-6.3 2.523-10.183-.531m-189.08-2.78l-4.425-4.063 5.068-4.941 5.068-4.941 5 4.882 5 4.882-3.995 4.122c-2.197 2.267-4.737 4.122-5.643 4.122-.906 0-3.639-1.828-6.073-4.063m48.04-.232l-4.545-4.227 4.756-4.644 4.756-4.644 5.078 4.218c2.793 2.32 5.088 4.581 5.101 5.03.029 1.048-8.538 8.577-9.709 8.533-.492-.019-2.939-1.936-5.439-4.261m199.31-8.282c-4.426-1.672-5.954-5.757-3.535-9.449 2.624-4 5.067-4.887 8.811-3.181 7.78 3.545 2.722 15.652-5.276 12.63m-347.42-3.099c-1.676-2.558-1.805-3.781-.665-6.285 1.706-3.743 4.119-4.828 8.37-3.761 3.821.959 5.793 5.339 3.983 8.847-2.776 5.382-8.559 5.975-11.689 1.199m490.77-65.57v-63.75h20 20v21.875 21.875h21.875 21.875v-21.875-21.875h20 20v63.75 63.75h-20-20v-25.625-25.625h-21.875-21.875v25.625 25.625h-20-20v-63.75m155-.066v-63.816l39.06.385c37.465.369 39.36.503 46.25 3.279 20.978 8.452 32.14 29.798 32.15 61.47.0001 34.494-13.807 54.861-41.11 60.6-6.773 1.425-17.383 1.896-42.682 1.896h-33.668v-63.816m66.25 31.532c6.853-3.275 10.258-11.434 10.974-26.291.987-20.503-2.992-32.15-12.59-36.857-2.774-1.36-8.8-2.589-14.671-2.991l-9.963-.683v35.33 35.33l10.938-.87c6.02-.478 12.906-1.811 15.312-2.96m-656.68 23.748c-4.072-4.5-.958-11.464 5.126-11.464 3.03 0 8.158 5.858 6.973 7.959-3.409 6.05-8.472 7.513-12.1 3.505m46.22-1.294l-3.429-3.579 3.995-3.362 3.995-3.362 3.58 3.43 3.58 3.43-3.364 3.511c-1.85 1.931-3.716 3.511-4.146 3.511-.43 0-2.326-1.611-4.212-3.579m47.5 0l-3.429-3.579 3.995-3.362 3.995-3.362 3.58 3.43 3.58 3.43-3.364 3.511c-1.85 1.931-3.716 3.511-4.146 3.511-.43 0-2.325-1.611-4.212-3.579m48.38-.14l-3.953-3.55 2.703-2.429c4.507-4.05 5.317-4.096 8.767-.496l3.321 3.467-3.443 3.279-3.443 3.279-3.953-3.55m47.28.272l-4.056-3.428 4.266-3.362 4.266-3.362 3.292 3.436 3.292 3.436-3.501 3.354-3.501 3.354-4.056-3.428m44.798.947c-1.375-1.375-2.5-3.344-2.5-4.375 0-2.899 4.658-6.875 8.05-6.875 3.036 0 6.946 4.03 6.946 7.153 0 2.459-4.705 6.597-7.5 6.597-1.375 0-3.625-1.125-5-2.5m-293.66-4.908c-1.425-1.425-2.592-3.154-2.592-3.842s1.166-2.416 2.592-3.842c2.333-2.333 2.863-2.412 5.313-.785 1.496.994 2.721 3.076 2.721 4.627 0 1.551-1.224 3.633-2.721 4.627-2.45 1.626-2.979 1.548-5.313-.785m356.98.122c-2.675-2.956-2.608-4.339.342-7.01 2.969-2.686 7.125-1.64 8.309 2.093.612 1.929.071 3.3-1.95 4.936-3.485 2.822-4.131 2.82-6.702-.021m-295.82-12.714c-3.138-3.138-3.134-4.366.029-7.529 1.969-1.969 3.057-2.246 4.915-1.251 3.558 1.904 4.419 6.03 1.85 8.87-2.742 3.03-3.686 3.02-6.794-.09m233.7-.338c-2.14-2.297-2.234-2.955-.746-5.208 2.404-3.639 6.408-3.906 8.737-.582 3.902 5.571-3.32 10.804-7.991 5.79m-188.12-.957c-2.243-2.479-2.232-2.615.431-5.278l2.734-2.734 2.734 2.734c2.663 2.663 2.674 2.799.431 5.278-1.266 1.399-2.691 2.544-3.165 2.544s-1.899-1.145-3.165-2.544m47.45-.052c-2.31-2.553-2.298-2.635.744-4.945 3.03-2.301 3.142-2.3 5.514.052 2.354 2.334 2.357 2.471.119 4.945-2.872 3.173-3.463 3.168-6.377-.052m47.5 0c-2.31-2.553-2.298-2.634.741-4.927 3.036-2.29 3.141-2.284 5.958.363l2.868 2.694-2.865 2.205c-3.638 2.8-3.875 2.788-6.702-.335m47.5 0c-2.31-2.553-2.298-2.634.741-4.927 3.036-2.29 3.141-2.284 5.958.363l2.868 2.694-2.865 2.205c-3.638 2.8-3.875 2.788-6.702-.335"/></svg>