<svg xmlns="http://www.w3.org/2000/svg" viewBox="0 0 600 188.41"><g transform="matrix(4.94046 0 0 4.94046-1429.16-2535.91)"><path d="m372.5 518.84l28.719-4.538c5.716-.899 9.455 3.083 8.352 8.892-.521 2.746-2.034 10.538-2.034 10.538l-10.849 1.716-28.18 4.43" fill="#771533"/><path d="m368.69 539.86l-70.39 11.06c-5.716.898-9.455-3.083-8.352-8.893.522-2.744 2.034-10.538 2.034-10.538l10.313-1.607 70.39-11.06" fill="#3a458a"/><g fill="#fff"><path d="m389.75 522.66l-5.945.933-1.901 10.01-2.652.417 1.901-10.01-5.943.933.478-2.509 14.539-2.285-.476 2.511"/><path d="m404.98 517.83l-7.915 13.389-2.794.438-3.161-11.648 3.127-.491 2.094 8.48 5.52-9.677 3.127-.491"/><path d="m306.08 545.3l-9.755 1.533 2.379-12.517 9.753-1.533c.715-.112 1.255.034 1.619.443.364.408.479.969.344 1.683l-.417 2.193c-.22 1.165-.754 1.806-1.598 1.924.645.001.979.308 1 .896.001.164-.001.373-.059.629-.252 1.471-.499 2.448-.739 2.926-.495 1.028-1.337 1.635-2.528 1.822m1.43-7.529l.47-2.479-7.285 1.145-.47 2.479 7.285-1.145m-.953 5.02l.476-2.509-7.287 1.145-.476 2.509 7.287-1.145"/><path d="m323.22 542.61l-9.754 1.533c-.702.111-1.237-.037-1.609-.443-.372-.406-.489-.968-.353-1.683l.478-2.509c.132-.701.465-1.329.999-1.884.534-.555 1.172-.893 1.916-1.01l7.316-1.149.472-2.48-9.755 1.533.477-2.509 9.754-1.533c.715-.112 1.255.036 1.619.443.363.408.479.969.343 1.683l-1.901 10.01m-1.963-2.126l.478-2.509-7.316 1.15-.476 2.509 7.315-1.15"/><path d="m338.2 532.98l-2.469.388.475-2.511-6.279.987-1.901 10.01-2.438.383 2.378-12.517 8.719-1.37c1.322-.208 2.01.239 2.059 1.341.001.235-.012.495-.067.781l-.477 2.511"/><path d="m364.43 536.13l-9.755 1.533c-.701.111-1.237-.037-1.609-.443-.369-.406-.489-.968-.352-1.683l.476-2.509c.133-.701.467-1.329 1-1.884.534-.555 1.172-.893 1.916-1.01l7.315-1.15.472-2.479-9.755 1.532.478-2.509 9.754-1.533c.714-.112 1.255.036 1.618.443.366.408.479.969.344 1.683l-1.9 10.01m-1.963-2.126l.478-2.509-7.317 1.15-.475 2.509 7.315-1.15"/><path d="m352.21 528.34l.478-2.511-9.345 1.469c-.714.112-1.348.458-1.9 1.037-.552.58-.89 1.199-1.015 1.856l-1.425 7.498c-.057.3-.081.575-.074.824.039 1.076.719 1.511 2.037 1.303l2.52-.396-1.231 1.549 2.152-.323 1.872-1.665 4.03-.633.478-2.511-9.344 1.469 1.423-7.498 9.344-1.468"/><path d="m401.68 513.43l-99.12 15.59c0 0-10.372 1.617-10.372 1.617l-.612.095-.117.623-1.972 10.527c-1.167 6.142 2.8 10.366 8.842 9.417 0 0 99.12-15.592 99.12-15.592l10.313-1.607.609-.095c0 0 .118-.618.118-.618l2.034-10.541c1.167-6.143-2.8-10.367-8.842-9.417m-110.98 28.26l1.857-9.909 9.762-1.521c0 0 39.95-6.284 69.12-10.873l-3.935 19.827c-29.16 4.586-68.949 10.845-68.949 10.845-5.371.845-8.896-2.909-7.859-8.369m118.6-18.652l-1.913 9.918-9.705 1.512c0 0-12.522 1.97-28.663 4.509l3.935-19.827c16.06-2.525 28.487-4.481 28.487-4.481 5.37-.843 8.896 2.911 7.859 8.369"/></g></g></svg>