<?xml version="1.0" encoding="UTF-8" standalone="no"?>
<svg xmlns:rdf="http://www.w3.org/1999/02/22-rdf-syntax-ns#" xmlns="http://www.w3.org/2000/svg" height="224.49" width="600" version="1.1" xmlns:cc="http://creativecommons.org/ns#" xmlns:dc="http://purl.org/dc/elements/1.1/" viewBox="0 0 158.75 59.395187">
 <g stroke-width=".12443" transform="translate(182.94 68.34)">
  <path d="m-38.838-11.264c-1.476 0-2.408-1.091-2.408-2.618 0-1.522 0.931-2.617 2.408-2.617 1.492 0 2.417 1.094 2.417 2.617 0 1.527-0.925 2.618-2.417 2.618m0-7.542c-2.835 0-5.078 1.857-5.078 4.924 0 3.068 2.242 4.9014 5.078 4.9014 2.851 0 5.114-1.8334 5.114-4.9014 0-3.067-2.263-4.924-5.114-4.924m-8.933 4.78c0 1.012-0.19 1.585-0.606 2.061-0.406 0.453-0.983 0.618-1.548 0.618-0.754 0-1.349-0.33-1.692-0.863-0.308-0.454-0.489-1.033-0.489-1.774 0-0.926 0.234-1.584 0.625-1.999 0.392-0.431 0.98-0.659 1.694-0.659 0.889 0 1.44 0.246 2.015 0.639v1.977h0.001zm1.371-9.368c-0.728 0-1.371 0.595-1.371 1.314v3.769c-0.654-0.326-1.404-0.514-2.414-0.514-1.066 0-2.383 0.29-3.297 1.258-0.798 0.822-1.334 2.017-1.334 3.664 0 1.445 0.434 2.62 1.161 3.443 0.843 0.9665 2.143 1.48 3.701 1.48 1.463 0 2.906-0.493 3.789-1.547 0.746-0.863 1.107-1.954 1.107-3.581v-7.971c0-0.719-0.614-1.314-1.342-1.314m-14.239 4.569c-1.67 0-3.05 0.497-3.851 1.506-0.539 0.677-0.825 1.561-0.825 2.778v4.245c0 0.7204 0.591 1.3162 1.356 1.3162 0.766 0 1.356-0.5958 1.356-1.3162v-3.976c0-0.515 0.085-0.927 0.272-1.278 0.288-0.514 0.816-0.864 1.692-0.864 0.863 0 1.42 0.35 1.71 0.864 0.187 0.351 0.245 0.763 0.245 1.278v3.976c0 0.7204 0.62 1.3162 1.376 1.3162 0.749 0 1.37-0.5958 1.37-1.3162v-4.245c0-1.217-0.287-2.101-0.855-2.778-0.779-1.008-2.154-1.506-3.846-1.506m-8.922 7.024c-0.633 0.392-1.337 0.6-2.039 0.6-0.742 0-1.239-0.19-1.647-0.622-0.394-0.411-0.658-1.05-0.658-1.995 0-0.724 0.184-1.296 0.495-1.775 0.353-0.531 0.924-0.843 1.666-0.843 0.577 0 1.152 0.165 1.563 0.639 0.391 0.452 0.62 1.194 0.62 2.225v1.771zm-2.183-7.005c-1.562 0-2.843 0.517-3.707 1.503-0.718 0.828-1.153 1.98-1.153 3.42 0 1.628 0.537 2.824 1.317 3.666 0.908 0.9475 2.23 1.2358 3.295 1.2358 0.971 0 1.897-0.2463 2.554-0.6998 0.231 0.4535 0.7 0.6998 1.238 0.6998 0.738 0 1.36-0.5566 1.36-1.3168v-3.357c0-1.65-0.376-2.718-1.115-3.606-0.884-1.051-2.328-1.546-3.789-1.546m-6.077 0.353c-0.471-0.224-1.108-0.372-1.896-0.372-1.724 0-3.086 0.474-3.871 1.484-0.537 0.678-0.823 1.566-0.823 2.782v4.24c0 0.7435 0.596 1.3196 1.361 1.3196 0.763 0 1.36-0.5761 1.36-1.3196v-4.037c0-0.535 0.078-0.905 0.266-1.277 0.267-0.49 0.802-0.841 1.605-0.841 0.35 0 0.619 0.103 0.864 0.204 0.287 0.147 0.479 0.267 0.847 0.267 0.68 0 1.172-0.537 1.172-1.215 0-0.555-0.368-0.967-0.885-1.235m-7.948 0c-0.478-0.224-1.117-0.371-1.894-0.371-1.735 0-3.094 0.473-3.876 1.483-0.529 0.678-0.823 1.567-0.823 2.782v4.241c0 0.7429 0.596 1.3189 1.358 1.3189 0.761 0 1.357-0.576 1.357-1.3189v-4.038c0-0.535 0.09-0.905 0.273-1.276 0.268-0.491 0.804-0.841 1.609-0.841 0.349 0 0.614 0.102 0.864 0.203 0.287 0.147 0.469 0.268 0.847 0.268 0.672 0 1.169-0.538 1.169-1.216 0-0.555-0.367-0.967-0.883-1.235m-10.836 6.654c-0.632 0.391-1.335 0.599-2.036 0.599-0.745 0-1.242-0.189-1.65-0.622-0.39-0.411-0.66-1.049-0.66-1.994 0-0.724 0.19-1.297 0.5-1.776 0.35-0.531 0.917-0.843 1.661-0.843 0.579 0 1.155 0.165 1.563 0.639 0.396 0.452 0.622 1.194 0.622 2.225v1.772zm-2.185-7.006c-1.561 0-2.841 0.517-3.711 1.503-0.71 0.828-1.15 1.98-1.15 3.42 0 1.628 0.54 2.825 1.32 3.667 0.91 0.9467 2.23 1.235 3.294 1.235 0.968 0 1.899-0.2462 2.555-0.6998 0.227 0.4536 0.703 0.6998 1.241 0.6998 0.737 0 1.356-0.5565 1.356-1.316v-3.358c0-1.649-0.374-2.717-1.113-3.606-0.882-1.05-2.33-1.545-3.792-1.545m-9.231 6.595c-0.35 0.533-0.95 0.863-1.68 0.863-0.58 0-1.16-0.165-1.57-0.618-0.41-0.476-0.6-1.049-0.6-2.061v-1.977c0.58-0.393 1.14-0.639 2.02-0.639 0.73 0 1.3 0.228 1.69 0.659 0.39 0.415 0.64 1.073 0.64 1.998 0 0.742-0.19 1.32-0.5 1.775m-1.44-6.614c-1.03 0-1.77 0.187-2.41 0.514v-3.769c0-0.719-0.63-1.314-1.36-1.314-0.74 0-1.36 0.595-1.36 1.314v7.971c0 1.626 0.37 2.718 1.11 3.582 0.89 1.0532 2.34 1.5462 3.8 1.5462 1.56 0 2.86-0.5138 3.71-1.4802 0.71-0.824 1.15-1.997 1.15-3.443 0-1.647-0.45-2.842-1.26-3.664-0.9-0.967-2.3-1.258-3.38-1.258" fill-opacity=".96569"/>
  <path d="m-25.297-18.804c-0.735 0-1.153 0.476-1.323 1.005l-1.909 5.898h-0.084l-1.92-5.792c-0.139-0.474-0.42-1.112-1.252-1.112-0.963 0-1.504 0.579-1.504 1.32 0 0.247 0.078 0.595 0.264 1.05l2.187 5.746c0.408 1.1126 0.97 1.7084 2.135 1.7084 1.146 0 1.768-0.6156 2.187-1.7084l2.055-5.697c0.146-0.388 0.271-0.843 0.271-1.113 0-0.72-0.234-1.306-1.107-1.305" fill-opacity=".96569"/>
  <g fill="#f0008c">
   <path d="m-126.91-47.821-18.94 13.889 3.56 11.273-9.65-6.936-9.61 6.921 3.82-11.246-9.76-7.066 11.74-0.004s3.64-10.749 3.84-11.316c0.18 0.559 2.83 8.713 2.83 8.713 0.37 1.142 1.27 2.049 2.42 2.429 0.78 0.246 1.6 0.246 2.36-0.002 0.96-0.311 1.75-0.987 2.2-1.89 0.46-0.902 0.54-1.927 0.23-2.889l-6.43-19.771c-0.51-1.573-1.96-2.624-3.61-2.624s-3.1 1.051-3.6 2.624c0 0-5.35 16.383-5.6 17.147-0.14 0-18.04 0.004-18.04 0.004-1.64 0.005-3.1 1.058-3.6 2.615-0.13 0.391-0.19 0.78-0.19 1.176 0 1.19 0.56 2.338 1.56 3.065 0 0 13.94 10.149 14.59 10.623-0.05 0.14-5.57 17.156-5.57 17.156-0.51 1.579 0.04 3.275 1.37 4.244 1.34 0.9697 3.13 0.9697 4.46-0.0038l14.61-10.589 14.6 10.602c1.34 0.9693 3.13 0.978 4.46 0.0122l0.01-0.004c1.33-0.9702 1.88-2.6702 1.37-4.2412l-5.56-17.163 14.59-10.605c1.02-0.737 1.56-1.898 1.56-3.074 0-0.772-0.23-1.553-0.72-2.228-1.23-1.689-3.61-2.071-5.3-0.84"/>
   <path d="m-114.29-43.588c0-0.535 0.19-0.991 0.57-1.368 0.37-0.377 0.84-0.565 1.39-0.565 0.42 0 0.79 0.119 1.12 0.357s0.57 0.535 0.73 0.892c0.93-0.832 2.08-1.249 3.45-1.249 1.86 0 3.28 0.654 4.25 1.963 1.07-1.309 2.54-1.963 4.403-1.963 1.605 0 2.884 0.446 3.836 1.338 0.991 0.892 1.487 2.28 1.487 4.164v6.78c0 0.516-0.199 0.962-0.595 1.338s-0.852 0.565-1.368 0.565c-0.555 0-1.021-0.188-1.398-0.565-0.377-0.376-0.565-0.822-0.565-1.338v-5.799c0-1.09-0.198-1.904-0.594-2.439-0.397-0.495-0.972-0.743-1.725-0.743-0.831 0-1.461 0.357-1.871 1.07-0.36 0.615-0.54 1.576-0.54 2.885v5.026c0 0.516-0.2 0.961-0.59 1.338-0.4 0.376-0.86 0.565-1.37 0.565-0.56 0-1.02-0.189-1.4-0.565s-0.56-0.822-0.56-1.338v-5.799c0-1.091-0.2-1.904-0.6-2.439-0.4-0.495-0.97-0.744-1.72-0.744-0.82 0-1.44 0.357-1.88 1.071-0.31 0.575-0.49 1.507-0.53 2.795v5.086c0 0.535-0.2 0.992-0.58 1.368-0.39 0.376-0.85 0.565-1.39 0.565-0.55 0-1.02-0.189-1.39-0.565-0.38-0.376-0.57-0.833-0.57-1.368v-10.32"/>
   <path d="m-89.664-37.55v-6.097c0-0.516 0.188-0.962 0.565-1.338 0.376-0.377 0.843-0.565 1.398-0.565s1.021 0.188 1.397 0.565 0.565 0.822 0.565 1.338v5.858c0 0.734 0.129 1.349 0.387 1.844 0.476 0.833 1.288 1.249 2.439 1.249 1.169 0 1.972-0.416 2.409-1.249 0.257-0.495 0.386-1.11 0.386-1.844v-5.858c0-0.516 0.188-0.962 0.565-1.338 0.376-0.377 0.843-0.565 1.398-0.565s1.021 0.188 1.397 0.565 0.565 0.822 0.565 1.338v6.097c0 1.724-0.396 3.073-1.189 4.044-1.15 1.428-2.994 2.141-5.531 2.141-2.578 0-4.431-0.713-5.562-2.141-0.792-1.03-1.189-2.379-1.189-4.044"/>
   <path d="m-68.616-35.111h4.996c0.456 0 0.843 0.173 1.16 0.52s0.475 0.749 0.475 1.205c0 0.475-0.158 0.882-0.475 1.219-0.318 0.337-0.704 0.505-1.16 0.505h-8.797c-0.496 0-0.897-0.138-1.204-0.416-0.307-0.277-0.46-0.654-0.46-1.13 0-0.515 0.218-1.041 0.654-1.576l5.71-7.078h-4.967c-0.456 0-0.847-0.168-1.174-0.506-0.327-0.337-0.491-0.743-0.491-1.219 0-0.456 0.164-0.857 0.491-1.204s0.718-0.521 1.174-0.521h8.77c0.456 0 0.847 0.149 1.174 0.446s0.491 0.663 0.491 1.099c0 0.475-0.218 1-0.654 1.574l-5.713 7.082"/>
   <path d="m-56.223-49.684c-0.446 0.436-0.976 0.654-1.591 0.654-0.614 0-1.144-0.218-1.591-0.654-0.446-0.436-0.669-0.971-0.669-1.606 0-0.634 0.223-1.169 0.669-1.606 0.447-0.436 0.977-0.654 1.591-0.654 0.615 0 1.145 0.218 1.591 0.654 0.447 0.436 0.67 0.972 0.67 1.606 0 0.635-0.223 1.17-0.67 1.606m-3.553 6.038c0-0.516 0.188-0.962 0.565-1.339 0.376-0.377 0.842-0.565 1.397-0.565s1.021 0.189 1.398 0.565c0.376 0.377 0.565 0.823 0.565 1.339v10.379c0 0.516-0.198 0.961-0.595 1.338-0.396 0.376-0.852 0.565-1.368 0.565-0.555 0-1.021-0.189-1.397-0.565-0.377-0.376-0.565-0.822-0.565-1.338v-10.379"/>
   <path d="m-40.325-42.485-3.388 3.01 3.87 5.062c0.277 0.374 0.416 0.76 0.416 1.153 0 0.513-0.197 0.957-0.591 1.332-0.394 0.374-0.847 0.562-1.358 0.562-0.629 0-1.14-0.28-1.532-0.838l-3.525-4.854-1.626 1.444v2.347c0 0.515-0.199 0.961-0.595 1.337-0.397 0.376-0.853 0.564-1.368 0.564-0.555 0-1.022-0.189-1.398-0.565-0.377-0.376-0.565-0.822-0.565-1.338v-16.952c0-0.535 0.188-0.991 0.565-1.368 0.376-0.377 0.843-0.565 1.398-0.565s1.021 0.189 1.398 0.565c0.375 0.377 0.565 0.833 0.565 1.368v10.112l5.196-4.976c0.338-0.311 0.746-0.467 1.225-0.467 0.537 0 0.975 0.184 1.312 0.551 0.338 0.367 0.507 0.789 0.507 1.265 0 0.536-0.169 0.953-0.506 1.251"/>
   <path d="m-38.305-35.558c0-0.833 0.213-1.542 0.639-2.127 0.426-0.584 1.041-1.03 1.844-1.338 0.803-0.307 1.616-0.54 2.439-0.699 0.822-0.158 1.799-0.277 2.929-0.357v-0.238c0-0.714-0.139-1.249-0.416-1.606-0.318-0.396-0.853-0.594-1.606-0.594-0.555 0-1.23 0.153-2.023 0.461-0.793 0.307-1.367 0.46-1.724 0.46-0.397 0-0.734-0.138-1.011-0.416-0.278-0.277-0.417-0.614-0.417-1.011 0-0.793 0.575-1.417 1.725-1.874 1.13-0.436 2.439-0.654 3.926-0.654 1.922 0 3.35 0.515 4.282 1.546 0.793 0.853 1.19 2.052 1.19 3.599v7.137c0 0.516-0.199 0.962-0.595 1.338-0.397 0.376-0.853 0.565-1.368 0.565-0.734 0-1.279-0.277-1.636-0.832-0.972 0.555-2.191 0.832-3.658 0.832-1.288 0-2.364-0.381-3.226-1.144-0.863-0.763-1.294-1.78-1.294-3.049m5.77 1.279c0.773 0 1.467-0.188 2.081-0.565v-2.587c-2.736 0.099-4.104 0.684-4.104 1.754 0 0.457 0.189 0.803 0.566 1.041 0.375 0.238 0.862 0.357 1.457 0.357"/>
  </g>
 </g>
</svg>
