<?xml version="1.0" encoding="UTF-8" standalone="no"?>
<svg id="svg2" xmlns:rdf="http://www.w3.org/1999/02/22-rdf-syntax-ns#" xmlns="http://www.w3.org/2000/svg" xml:space="preserve" height="224.49" width="600" version="1.1" xmlns:cc="http://creativecommons.org/ns#" xmlns:dc="http://purl.org/dc/elements/1.1/" viewBox="0 0 600 224.4854"><path id="path8" fill="#fff" d="m277.71 187.16c-3.8932 0-6.6932 0.70665-9.1198 1.9466v-14.253c0-2.7066-2.3999-4.9599-5.1332-4.9599-2.7999 0-5.1465 2.2533-5.1465 4.9599v30.133c0 6.1465 1.4133 10.266 4.2132 13.533 3.3599 3.9866 8.8131 5.8532 14.346 5.8532 5.8932 0 10.813-1.9466 14.013-5.5999 2.6933-3.1066 4.3466-7.5465 4.3466-13.013 0-6.2265-1.7066-10.733-4.7466-13.84-3.4266-3.6666-8.7198-4.7599-12.773-4.7599m5.4399 24.999c-1.32 2.0133-3.5866 3.2666-6.3732 3.2666-2.1733 0-4.3599-0.62665-5.9332-2.3466-1.5333-1.7866-2.2533-3.9599-2.2533-7.7865v-7.4665c2.2-1.4933 4.3066-2.4133 7.6531-2.4133 2.7199 0 4.8932 0.85331 6.3465 2.4933 1.5066 1.56 2.4533 4.0532 2.4533 7.5465 0 2.7999-0.71998 4.9865-1.8933 6.7065m34.879-24.919c-5.8932 0-10.746 1.9466-14.013 5.6799-2.7066 3.1199-4.3732 7.4798-4.3732 12.92 0 6.1598 2.0666 10.68 4.9865 13.866 3.4399 3.5732 8.4265 4.6666 12.466 4.6666 3.6532 0 7.1732-0.93331 9.6531-2.6533 0.85331 1.72 2.6533 2.6533 4.6932 2.6533 2.7866 0 5.1199-2.1066 5.1199-4.9732v-12.693c0-6.2398-1.4133-10.28-4.1999-13.626-3.3332-3.9732-8.8131-5.8399-14.333-5.8399m8.2531 26.466c-2.3866 1.48-5.0399 2.2666-7.6931 2.2666-2.8133 0-4.6932-0.71999-6.2398-2.3466-1.48-1.56-2.4799-3.9732-2.4799-7.5332 0-2.7466 0.69332-4.9065 1.88-6.7198 1.3066-2 3.4666-3.1866 6.2798-3.1866 2.1866 0 4.3599 0.62666 5.9065 2.4133 1.4933 1.72 2.3466 4.5199 2.3466 8.4131v6.6932zm40.919-25.146c-1.7333-0.83998-4.1332-1.4-7.0665-1.4-6.6665 0-11.746 1.7866-14.706 5.6132-2 2.5599-3.1066 5.9198-3.1066 10.506v16.026c0 2.8133 2.2533 4.9865 5.1332 4.9865 2.8666 0 5.0799-2.1733 5.0799-4.9865v-15.253c0-2.0266 0.39999-3.4266 1.0666-4.8265 1.0666-1.8533 3.0666-3.1866 6.1332-3.1866 1.3333 0 2.2666 0.38666 3.1999 0.77332 1.0666 0.55998 1.7333 1.0133 3.1999 1.0133 2.5333 0 4.3999-2.0266 4.3999-4.5999 0-2.0933-1.3333-3.6532-3.3332-4.6666m30.133 0c-1.8666-0.83998-4.2666-1.4-7.1998-1.4-6.5332 0-11.733 1.7866-14.666 5.6132-2 2.5599-3.0666 5.9198-3.0666 10.506v16.026c0 2.8133 2.2666 4.9865 5.0665 4.9865 2.9333 0 5.1999-2.1733 5.1999-4.9865v-15.253c0-2.0266 0.26666-3.4266 0.93331-4.8265 1.0666-1.8533 3.0666-3.1866 6.1332-3.1866 1.3333 0 2.2666 0.38666 3.1999 0.77332 1.2 0.55998 1.8666 1.0133 3.1999 1.0133 2.6666 0 4.5332-2.0266 4.5332-4.5999 0-2.0933-1.4666-3.6532-3.3332-4.6666m22.933-1.32c-5.8665 0-10.8 1.9466-14 5.6799-2.7999 3.1199-4.3999 7.4798-4.3999 12.92 0 6.1598 2 10.68 4.9332 13.866 3.4666 3.5732 8.5331 4.6666 12.533 4.6666 3.5999 0 7.1998-0.93331 9.5998-2.6533 0.93331 1.72 2.6666 2.6533 4.6666 2.6533 2.7999 0 5.1999-2.1066 5.1999-4.9732v-12.693c0-6.2398-1.4666-10.28-4.2666-13.626-3.3332-3.9732-8.7998-5.8399-14.266-5.8399m8.2665 26.466c-2.3999 1.48-5.0665 2.2666-7.7331 2.2666-2.7999 0-4.6666-0.71999-6.2665-2.3466-1.4666-1.56-2.3999-3.9732-2.3999-7.5332 0-2.7466 0.66665-4.9065 1.8666-6.7198 1.3333-2 3.4666-3.1866 6.2665-3.1866 2.1333 0 4.2666 0.62666 5.8665 2.4133 1.4666 1.72 2.3999 4.5199 2.3999 8.4131v6.6932zm33.732-26.546c-6.3998 0-11.6 1.88-14.666 5.6932-2 2.5599-3.0666 5.8932-3.0666 10.493v16.053c0 2.7199 2.2666 4.9732 5.0665 4.9732 2.9333 0 5.1999-2.2533 5.1999-4.9732v-15.04c0-1.9333 0.26666-3.4932 1.0666-4.8265 1.0666-1.9333 3.0666-3.2666 6.3998-3.2666 3.1999 0 5.3332 1.3333 6.3998 3.2666 0.66665 1.3333 0.93331 2.8933 0.93331 4.8265v15.04c0 2.7199 2.3999 4.9732 5.1999 4.9732 2.7999 0 5.1999-2.2533 5.1999-4.9732v-16.053c0-4.5999-1.0666-7.9331-3.1999-10.493-2.9333-3.8132-8.1331-5.6932-14.533-5.6932m53.732-17.266c-2.6666 0-5.1999 2.2533-5.1999 4.9599v14.253c-2.3999-1.24-5.1999-1.9466-9.0664-1.9466-3.9999 0-9.0664 1.0933-12.533 4.7599-2.9333 3.1066-4.9332 7.6132-4.9332 13.84 0 5.4665 1.6 9.9064 4.3999 13.013 3.0666 3.6532 7.9998 5.5999 13.866 5.5999 5.5999 0 11.066-1.8666 14.4-5.8532 2.7999-3.2666 4.1332-7.3865 4.1332-13.533v-30.133c0-2.7066-2.2666-4.9599-5.0665-4.9599m-5.1999 35.399c0 3.8266-0.66665 5.9998-2.2666 7.7865-1.4666 1.72-3.7332 2.3466-5.8665 2.3466-2.7999 0-5.0665-1.2533-6.3998-3.2666-1.0666-1.72-1.8666-3.9066-1.8666-6.7065 0-3.4932 0.93331-5.9865 2.3999-7.5465 1.4666-1.64 3.7332-2.4933 6.3998-2.4933 3.3332 0 5.4665 0.91998 7.5998 2.4133v7.4665zm33.866-18.053c-10.8 0-19.2 7.0132-19.2 18.6 0 11.6 8.3998 18.533 19.2 18.533 10.666 0 19.2-6.9332 19.2-18.533 0-11.586-8.5331-18.6-19.2-18.6m0 28.493c-5.5999 0-9.1998-4.1199-9.1998-9.8931 0-5.7465 3.5999-9.8931 9.1998-9.8931s9.0664 4.1466 9.0664 9.8931c0 5.7732-3.4666 9.8931-9.0664 9.8931"/><path id="path10" fill="#fff" d="m595.73 187.24c-2.6666 0-4.2666 1.8-4.9332 3.7999l-7.1998 22.293h-0.39999l-7.1998-21.893c-0.53332-1.8-1.6-4.1999-4.7999-4.1999-3.5999 0-5.5999 2.1866-5.5999 4.9865 0 0.93331 0.26666 2.2533 0.93331 3.9599l8.2665 21.719c1.6 4.2132 3.7332 6.4665 8.1331 6.4665 4.2666 0 6.6665-2.3333 8.2665-6.4665l7.7331-21.519c0.53332-1.4666 1.0666-3.1999 1.0666-4.2132 0-2.7199-0.93331-4.9332-4.2666-4.9332"/><path id="path12" fill="#f0008c" d="m211.75 77.579-71.585 52.492 13.453 42.599-36.492-26.213-36.292 26.159 14.426-42.506-36.892-26.706 44.359-0.0133s13.773-40.626 14.506-42.759c0.67998 2.1066 10.72 32.919 10.72 32.919 1.3866 4.3199 4.7999 7.7465 9.1464 9.1864 2.9333 0.91998 6.0398 0.91998 8.9064-0.0133 3.6532-1.1733 6.6132-3.7332 8.3331-7.1332 1.7466-3.4132 2.04-7.2932 0.85332-10.92l-24.28-74.729c-1.92-5.9469-7.42-9.9201-13.62-9.9201h-0.0267c-6.2398 0-11.706 3.9732-13.613 9.9198 0 0-20.199 61.918-21.133 64.812-0.55999 0-68.185 0.01333-68.185 0.01333-6.2265 0.01333-11.706 3.9999-13.64 9.8798-0.46666 1.48-0.70665 2.9466-0.70665 4.4532 0 4.4932 2.1199 8.8398 5.9199 11.586 0 0 52.679 38.346 55.119 40.146-0.18666 0.51999-21.053 64.838-21.053 64.838-1.9333 5.9598 0.16 12.373 5.1865 16.04 5.0532 3.6666 11.826 3.6666 16.853-0.0133l55.212-40.026 55.199 40.066c5.0532 3.6666 11.826 3.7066 16.853 0.0533 0 0 0.0133-0.0133 0.04-0.0133 5.0265-3.6666 7.1065-10.093 5.1732-16.04l-21.026-64.865 55.132-40.079c3.8799-2.7866 5.9198-7.1732 5.9198-11.613 0-2.9199-0.87998-5.8799-2.7199-8.4265-4.6532-6.3865-13.653-7.8265-20.026-3.1733"/><g id="g14" fill="#f0008c" transform="matrix(1.3333,0,0,-1.3333,-981.83,835.04)"><path id="path16" d="m944.41 550.55c3.16-2.25 6.19-3.49 11.03-3.49 3.94 0 7.09 1.13 9.23 3.49s3.49 5.85 3.49 11.03c0 4.05-1.02 7.2-2.7 9.67-1.92 2.93-5.18 4.73-9.23 4.73-3.15 0-6.3-0.9-8.55-3.38-2.25-2.59-3.27-5.74-3.27-11.25v-10.8zm0-12.83v-21.38c0-3.94-3.48-7.2-7.42-7.2-4.05 0-7.43 3.26-7.43 7.2v44.45c0 8.89 2.03 14.85 6.08 19.69 4.84 5.74 12.71 8.44 20.7 8.44 8.55 0 15.64-2.82 20.25-8.1 3.94-4.62 6.31-10.92 6.31-18.91 0-8.89-2.93-15.41-7.32-20.03-4.95-5.17-12.15-6.75-18-6.75-5.63 0-9.68 1.02-13.17 2.59"/><path id="path18" d="m994.6 606.58c0 4.05 3.37 7.2 7.4 7.2 4.2 0 7.4-3.15 7.4-7.2v-64.25c0-3.93-3.3-7.2-7.4-7.2-4.03 0-7.4 3.27-7.4 7.2v64.25z"/><path id="path20" d="m1023.2 581.6c0 3.94 3.2 7.2 7.4 7.2s7.4-3.26 7.4-7.2v-22.16c0-2.93 0.5-5.07 1.5-6.98 1.6-2.81 4.5-4.72 9.2-4.72s7.7 1.91 9.1 4.72c1 1.91 1.5 4.05 1.5 6.98v22.16c0 3.94 3.3 7.2 7.4 7.2 4.2 0 7.4-3.26 7.4-7.2v-23.06c0-6.75-1.4-11.59-4.5-15.31-4.5-5.62-11.8-8.1-20.9-8.1-9.2 0-16.6 2.59-21 8.1-2.9 3.83-4.5 8.56-4.5 15.31v23.06z"/><path id="path22" d="m1117.6 574.63c-4.6 0-6.8 2.47-11.8 2.47-3.1 0-5.3-1.01-5.3-3.6 0-2.25 2.2-3.49 4.8-4.5 3.6-1.46 7-2.36 10.6-4.16 6.1-3.04 8.4-7.65 8.4-13.17 0-9.45-8-16.54-21-16.54-10.4 0-19.7 2.25-19.7 9.23 0 3.26 2.5 5.85 5.7 5.85 4.5 0 6.9-3.49 13.4-3.49 3.7 0 6 1.35 6 4.05 0 2.48-1.9 3.49-4.7 4.73-3.3 1.46-7.4 2.59-11 4.39-5.5 2.81-8.3 7.09-8.3 13.61 0 9.45 7.2 15.42 20.3 15.42 9.9 0 18.2-2.25 18.2-8.22 0-3.71-2.5-6.07-5.6-6.07"/></g></svg>
