<?xml version="1.0" encoding="UTF-8" standalone="no"?>
<svg xmlns:rdf="http://www.w3.org/1999/02/22-rdf-syntax-ns#" xmlns="http://www.w3.org/2000/svg" height="450" width="600" version="1.1" xmlns:cc="http://creativecommons.org/ns#" xmlns:xlink="http://www.w3.org/1999/xlink" xmlns:dc="http://purl.org/dc/elements/1.1/">
 <defs>
  <linearGradient id="a" x1="160.87" gradientUnits="userSpaceOnUse" y1="2646.9" gradientTransform="matrix(1.2295,0,0,1.2295,162.78,-757.45)" x2="566.34" y2="2205.6">
   <stop stop-color="#44805f" offset="0"/>
   <stop stop-color="#48854a" offset=".1"/>
   <stop stop-color="#418758" offset=".2"/>
   <stop stop-color="#3f8764" offset=".3"/>
   <stop stop-color="#2f8d7b" offset=".4"/>
   <stop stop-color="#22908b" offset=".5"/>
   <stop stop-color="#1e979f" offset=".6"/>
   <stop stop-color="#0f97ae" offset=".7"/>
   <stop stop-color="#0799c0" offset=".8"/>
   <stop stop-color="#009ccc" offset=".9"/>
   <stop stop-color="#009ccc" offset="1"/>
  </linearGradient>
 </defs>
 <g transform="translate(-311.42 -1996.5)">
  <g transform="translate(-48.083 -52.165)">
   <rect fill-rule="evenodd" fill-opacity=".99608" height="450" width="600" y="2048.7" x="359.5" fill="url(#a)"/>
   <g fill="#fff">
    <path d="m510.59 2281.2c-28.5 0-51.92 23.2-51.92 51.8 0 28.4 23 52.1 51.79 52.1 21.59 0 39.45-12.3 47.64-30.8h-13.21c-5.51 9.3-17.65 19.1-34.13 19.1-18.13 0-36.14-12.2-39.98-34.6h91.55s0.56-2.7 0.56-6.5c0-26.7-22.13-51.1-52.3-51.1zm0.13 11.5c18.91 0 36.85 13.6 39.98 34.5h-79.86c2.86-18.9 18.84-34.5 39.88-34.5z"/>
    <path d="m621.08 2281.1c-28.84 0-52.53 23.4-52.53 52 0 27.3 22.22 52.1 52.49 52.1 17.32 0 30.35-7.6 40.63-22.7v19.8h11.72v-98.2h-11.72v19.7c-9.31-14.1-22.74-22.7-40.59-22.7zm0.07 11.6c22.77 0 40.5 18.3 40.5 40.4 0 22.7-18.2 40.3-40.57 40.3-22.21 0-40.71-17.5-40.71-40.4 0-20.8 16.81-40.3 40.78-40.3z"/>
    <path d="m687.63 2382.3v-98.2h11.63v15.5c3.65-7.1 13.73-15.5 28.86-15.5h9.43v-22.2h11.72v22.2h20.35v11.4h-20.35v63.4c0 7 5.49 11.6 11.53 11.6h8.82v11.8h-9.02c-11.83 0-23.05-9.8-23.05-23v-63.8h-8.22c-19.27 0-30.07 14.7-30.07 27.1v59.7z"/>
    <path d="m777.04 2382.3v-130.1h11.73v48.3c3.45-7.8 16.39-19.4 33.19-19.4 23.44 0 39.28 15 39.28 39.3v61.9h-11.43v-61.9c0-16.4-11.02-27.7-27.75-27.7-18.63 0-33.29 15-33.29 29.6v60z"/>
    <path d="m620.03 2215c0 8.7-10.86 8.2-10.86 8.2h-10.86v-15.8h10.86c11.18 0 10.86 7.6 10.86 7.6m-21.72-31.6h8.27c8.6 0.4 8.27 6.8 8.27 6.8 0 8-9.5 8.1-9.5 8.1h-7.04v-14.9zm19.71 18s7.43-3.1 7.37-11.5c0 0 1.13-13.8-17.11-15.5h-20.25v57.7h23.21s19.39 0.1 19.39-16.3c0 0 0.45-11.1-12.61-14.4m-52.39-38.3h85.23v80.3h-85.23v-80.3z"/>
    <path d="m521.75 2215c0 8.7-10.86 8.2-10.86 8.2h-10.86v-15.8h10.86c11.18 0 10.86 7.6 10.86 7.6m-21.72-31.6h8.28c8.59 0.4 8.27 6.8 8.27 6.8 0 8-9.5 8.1-9.5 8.1h-7.05v-14.9zm19.72 18s7.43-3.1 7.37-11.5c0 0 1.13-13.8-17.12-15.5h-20.24v57.7h23.2s19.39 0.1 19.39-16.3c0 0 0.45-11.1-12.6-14.4m-52.39-38.3h85.22v80.3h-85.22v-80.3z"/>
    <path d="m731.74 2178.5v10.7s-10.4-6.4-21.91-6.5c0 0-21.46-0.4-22.42 20.6 0 0-0.78 19.3 22.16 20.4 0 0 9.63 1.1 22.69-7.2v11s-17.51 10.4-37.81 2.4c0 0-17.06-6.2-17.71-26.6 0 0-0.71-21.1 22.04-28 0 0 6.08-2.4 17-1.3 0 0 6.53 0.6 15.96 4.5m-67.83 64.9h85.22v-80.3h-85.22v80.3z"/>
   </g>
  </g>
 </g>
</svg>
