<svg xmlns="http://www.w3.org/2000/svg" width="571.68" viewBox="0 0 571.685 419.94901"><path d="m0 0h571.68v419.95h-571.68z"/><g fill="#fff"><path d="m133.52 195.68h-64.38v120.62h17.33v-56.07h47.05v-15.57h-47.05v-33.42h47.05v-15.56"/><path d="m167.97 255.99c0-26.535 19.983-45.987 46.868-45.987 27.06 0 47.05 19.452 47.05 45.987 0 26.346-19.99 45.98-47.05 45.98-26.884 0-46.868-19.634-46.868-45.98m-17.864 0c0 32.716 24.938 61.895 64.38 61.895 40.855 0 65.26-29.354 65.26-61.895 0-33.611-25.11-61.909-64.905-61.909-39.09 0-64.732 28.48-64.732 61.909z"/><path d="m398.72 195.68h-17.326v70.21c0 11.327-1.427 20.17-7.607 26.36-5.482 5.482-15.03 9.727-28.3 9.727-10.439 0-19.1-3.356-26-10.265-5.481-5.476-7.258-11.139-7.258-24.76v-71.27h-17.326v74.99c0 32.892 24.767 47.22 50.23 47.22 35.905 0 53.588-19.452 53.588-48.987v-73.22"/><path d="m440.2 210.53h11.139c16.795 0 23.515 6.894 23.689 18.221.182 10.08-5.125 19.627-23.689 19.627h-11.139v-37.848m-17.341-14.851v120.62h17.341v-52.35h7.244c8.838 0 16.1 2.824 32.01 27.591l15.914 24.759h20.697c-8.314-11.495-11.313-15.564-16.446-23.878-9.194-15.04-15.914-26.18-26.878-33.43 12.908-5.125 20.16-15.558 20.16-29.534 0-20.865-15.215-33.779-39.625-33.779h-30.416z"/><path d="m332.39 94.86h71.38v67.17h-71.38v-67.17m44.966 9.348c-.314-.056-.629-.105-.972-.161l-.377-.056c-.546-.07-1.105-.133-1.657-.189-.385-.042-.763-.063-1.14-.091-.686-.042-1.343-.056-1.986-.056-.294 0-.461.007-.748.007-.538.014-1.062.042-1.587.07-.294.014-.573.049-.867.077-.427.035-.854.077-1.259.133l-.35.042-.378.056-.475.084c-.21.028-.406.063-.616.098-.279.056-.559.112-.839.175-1.685.35-3.258.825-4.698 1.392-.741.287-1.462.601-2.14.937-.573.28-1.112.56-1.637.867-.503.293-1.01.594-1.475.902-.266.189-.524.371-.79.552-.225.161-.441.322-.657.482-.448.356-.882.706-1.294 1.063-.385.35-.762.692-1.104 1.035-.301.301-.595.602-.874.916-.28.322-.573.644-.84.979-.308.364-.587.741-.866 1.125-.21.294-.42.587-.615.881-.126.203-.252.405-.385.615-.748 1.216-1.405 2.517-1.938 3.901-.657 1.741-1.146 3.601-1.412 5.587-.084.622-.14 1.259-.182 1.902-.028.497-.049 1-.049 1.517 0 .378 0 .755.021 1.133.028.385.07.776.112 1.161l.028.266c.049.455.125.902.209 1.336.028.182.07.342.105.517.077.371.175.728.259 1.091.126.461.266.916.405 1.356.182.545.378 1.077.602 1.601.343.812.713 1.608 1.125 2.343.231.44.482.867.734 1.279.203.322.42.636.63.944.279.399.573.791.853 1.161.308.384.615.755.923 1.098.378.44.756.839 1.133 1.216l.196.189c.314.293.636.615 1.021.937.259.224.531.461.832.692.266.209.553.426.854.65.363.259.733.511 1.14.776.426.272.881.545 1.35.811.943.531 1.985 1.042 3.125 1.496.434.175.867.336 1.328.497.462.154.924.301 1.406.434.817.238 1.685.448 2.594.623.728.14 1.482.258 2.272.35.783.098 1.587.174 2.426.216.406.014.825.035 1.245.035.188.007.385.007.573.007 1.511 0 2.895-.049 4.182-.161l.251-.021c.518-.042 1.01-.098 1.482-.161.741-.091 1.44-.196 2.112-.315.419-.077.817-.154 1.216-.245.616-.126 1.203-.28 1.763-.419.405-.105.804-.224 1.182-.335.469-.147.916-.294 1.321-.434l.412-.14c.203-.077.469-.175.805-.3.427-.168.943-.371 1.538-.623.35-.161.728-.322 1.119-.503.356-.161.72-.335 1.091-.518.153-.077.308-.146.468-.224v-9.16c-.104.063-.217.133-.328.196l-.63.377c-.629.385-1.23.741-1.831 1.07-.672.364-1.322.692-1.958 1-1.14.531-2.224.979-3.272 1.356-2 .72-3.832 1.175-5.454 1.454-.188.035-.378.063-.56.098-.447.07-.874.119-1.286.168-.644.07-1.23.104-1.762.133-.35.014-.672.021-.979.021-.65 0-1.314-.014-2-.07-.79-.056-1.607-.14-2.433-.279-1.314-.224-2.644-.553-3.943-1.028-.196-.07-.385-.147-.588-.231-.111-.042-.237-.098-.363-.147-.21-.091-.42-.182-.637-.287-.454-.203-.895-.434-1.321-.685-.217-.119-.427-.245-.657-.385-.21-.133-.434-.279-.644-.426-.266-.189-.531-.377-.783-.581-.251-.196-.51-.405-.727-.587l-.301-.272-.147-.14-.083-.091-.119-.098c-.413-.419-.79-.825-1.133-1.238-.188-.23-.371-.468-.538-.699-.183-.224-.336-.454-.476-.685-.147-.217-.273-.427-.406-.643-.195-.315-.356-.644-.517-.965-.133-.272-.259-.552-.378-.818-.196-.469-.363-.93-.504-1.371-.111-.342-.202-.685-.293-1.014-.231-.951-.364-1.832-.42-2.573-.035-.293-.056-.552-.062-.797-.015-.371-.028-.686-.028-.944 0-.161.007-.356.014-.58.021-.518.057-1.182.175-1.937.07-.461.161-.951.28-1.468.084-.343.175-.685.293-1.049.099-.329.21-.657.336-.993.091-.217.196-.448.28-.678.14-.308.293-.616.454-.937.119-.231.252-.469.385-.707.308-.517.643-1.042 1.034-1.559.141-.175.28-.364.434-.545.196-.23.406-.468.615-.706.099-.112.21-.238.322-.343 1.678-1.685 3.565-2.937 5.523-3.832.308-.133.615-.259.916-.378.314-.133.622-.237.938-.342.342-.119.691-.224 1.014-.315.321-.091.657-.167.972-.245.328-.077.65-.14.965-.196.356-.063.721-.119 1.07-.161.35-.056.699-.091 1.049-.119.671-.056 1.328-.091 1.964-.091.203 0 .42 0 .637.007.476.014.937.028 1.385.056.308.021.629.042.923.07.573.049 1.133.126 1.664.203.476.07.937.154 1.356.238.657.133 1.259.279 1.797.419.35.084.671.188.965.272.454.14.825.252 1.126.35.503.182.783.28.783.28.447.168.895.343 1.321.518.58.23 1.14.482 1.671.72.44.203.867.413 1.259.601.329.161.637.322.923.469.504.259.93.496 1.272.685l.931.51v-8.999c0 0-.566-.231-1.531-.595-.42-.161-.931-.356-1.511-.559-.314-.112-.65-.238-1.01-.356-.294-.098-.588-.196-.881-.294-.35-.119-.699-.23-1.07-.335-.272-.084-.538-.168-.817-.245l-.238-.07c-.266-.077-.545-.154-.811-.224-.336-.084-.657-.175-.993-.259-.224-.049-.44-.098-.657-.161-.35-.077-.714-.154-1.077-.231-.365-.073-.75-.143-1.128-.206"/><path d="m277.54 131.9v13.201h8.569c0 0 .175-.007.454-.014.28-.007.692-.028 1.188-.07.938-.091 2.161-.252 3.343-.665 1.077-.356 2.126-.902 2.923-1.699.308-.308.56-.629.769-.951.672-1.062.847-2.14.882-2.755.021-.259.014-.413.014-.413 0 0 .007-.119 0-.322-.007-.258-.035-.755-.168-1.279-.168-.622-.469-1.356-1.01-2.01-.098-.133-.21-.259-.329-.371-.244-.238-.496-.469-.762-.678-.476-.343-1.014-.636-1.594-.895-.77-.329-1.637-.581-2.588-.755-.475-.091-.992-.167-1.523-.209-.322-.035-.644-.056-.986-.077-.287-.014-.595-.028-.902-.028-3.042 0-8.283-.006-8.283-.006"/><path d="m277.54 111.84v12.502h4.143c0 0 .28 0 .644-.007.293-.007.629-.028.937-.042.853-.063 2.041-.182 3.216-.511.231-.07.462-.14.686-.217.937-.335 1.818-.818 2.51-1.496.553-.539.909-1.14 1.147-1.72.301-.713.398-1.405.44-1.888.042-.44.042-.713.042-.713 0 0 0-.203-.015-.524-.027-.545-.14-1.434-.573-2.286-.202-.413-.489-.804-.881-1.189-.461-.461-1.027-.811-1.636-1.083-1.168-.511-2.504-.713-3.629-.791-.489-.035-.944-.035-1.321-.035-.84 0-5.71 0-5.71 0"/><path d="m250.16 94.86h71.37v67.17h-71.37v-67.17m18.721 9.418v48.37h18.208c0 0 8.88.245 13.789-4.657 3.992-3.993 3.698-8.607 3.698-8.607 0 0 .294-4.817-3.405-8.523-3.146-3.139-7.159-3.979-7.159-3.979 0 0 1.804-.86 3.202-2.251.657-.657 2.979-2.755 2.979-7.845 0-5.132-3.426-8.09-3.426-8.09 0 0-3.741-4.419-12.181-4.419h-15.705z"/><path d="m195.3 131.9v13.201h8.565c0 0 .178-.007.458-.014.287-.007.692-.028 1.188-.07.937-.091 2.154-.252 3.342-.665 1.073-.356 2.125-.902 2.923-1.699.314-.308.562-.629.772-.951.671-1.062.846-2.14.881-2.755.014-.259.014-.413.014-.413 0 0 .007-.119 0-.322-.007-.258-.042-.755-.171-1.279-.164-.622-.465-1.356-1-2.01-.101-.133-.213-.259-.335-.371-.238-.238-.49-.469-.766-.678-.476-.343-1-.636-1.591-.895-.766-.329-1.633-.581-2.577-.755-.489-.091-.996-.167-1.528-.209-.321-.035-.643-.056-.986-.077-.293-.014-.601-.028-.902-.028-3.043 0-8.284-.006-8.284-.006"/><path d="m195.3 111.84v12.502h4.146c0 0 .28 0 .644-.007.287-.007.633-.028.934-.042.856-.063 2.038-.182 3.22-.511.231-.07.458-.14.688-.217.923-.335 1.811-.818 2.507-1.496.542-.539.909-1.14 1.15-1.72.287-.713.395-1.405.437-1.888.039-.44.039-.713.039-.713 0 0 .007-.203-.011-.524-.028-.545-.143-1.434-.57-2.286-.21-.413-.497-.804-.881-1.189-.465-.461-1.032-.811-1.64-1.083-1.168-.511-2.507-.713-3.633-.791-.486-.035-.937-.035-1.314-.035-.846 0-5.716 0-5.716 0"/><path d="m167.91 94.86h71.37v67.17h-71.37v-67.17m18.722 9.418v48.37h18.214c0 0 8.88.245 13.785-4.657 3.986-3.993 3.699-8.607 3.699-8.607 0 0 .294-4.817-3.405-8.523-3.143-3.139-7.167-3.979-7.167-3.979 0 0 1.818-.86 3.213-2.251.65-.657 2.972-2.755 2.972-7.845 0-5.132-3.416-8.09-3.416-8.09 0 0-3.737-4.419-12.194-4.419h-15.701z"/></g></svg>