<svg xmlns="http://www.w3.org/2000/svg" viewBox="0 0 295 85"><g fill="#fff"><path d="m204.8 12.912v57.918h-61.54v-57.918h61.54m-22.771 8.07l-.826-.154-.336-.07-1.428-.161-.98-.07-1.715-.07h-.637l-1.372.07-.749.07-1.078.119-.301.07-.329.07-.413.07-.532.098-.714.133c-1.463.301-2.814.728-4.06 1.204-.644.245-1.253.518-1.841.805l-1.421.756-1.26.777-.686.476-.56.413-1.12.917-.952.903-.756.777-.735.847-.742.973-.518.749-.329.532c-.644 1.057-1.204 2.177-1.673 3.367-.574 1.505-.994 3.101-1.218 4.809l-.168 1.659-.035 1.295.021.973.091 1.01.028.238.175 1.148.098.448.217.931.357 1.176.511 1.365c.294.714.623 1.393.98 2.037l.63 1.092.532.826.742.994.798.945.966 1.036.182.182.882.805.7.588.749.56.98.672 1.162.707c.819.455 1.708.889 2.695 1.288l1.148.42 1.204.385c.721.203 1.463.385 2.24.532.623.126 1.288.224 1.967.301.665.084 1.372.154 2.086.182l1.064.07h.504c1.302 0 2.499-.07 3.598-.154h.217l1.295-.133 1.799-.28 1.064-.217 1.519-.357 1.022-.301 1.134-.364.357-.126.693-.259 1.33-.532.966-.427.924-.448.406-.189v-7.903l-.273.175-.546.315-1.589.931-1.68.861c-.98.448-1.911.847-2.828 1.162-1.708.616-3.297 1.022-4.69 1.26l-.483.077-1.113.14-1.519.119h-.847l-1.722-.07c-.686-.07-1.386-.119-2.086-.231-1.148-.203-2.296-.49-3.416-.889l-.49-.203-.329-.126-.546-.245-1.148-.588-.546-.329-.56-.378-.686-.497-.616-.504-.259-.245-.14-.112-.077-.077-.084-.084-.987-1.064-.462-.616-.413-.574-.336-.56-.455-.84-.322-.707-.441-1.176-.238-.875c-.217-.819-.315-1.575-.378-2.212l-.042-.686-.028-.819.014-.497c.014-.448.056-1.022.147-1.68l.238-1.26.245-.896.301-.861.245-.588.385-.812.343-.602.882-1.337.371-.476.525-.616.287-.301c1.449-1.449 3.073-2.52 4.767-3.297l.784-.329.812-.287.882-.273.833-.217.833-.168.917-.133.903-.112 1.694-.07h.546l1.19.07.798.07 1.435.175 1.169.21 1.547.357.833.231.973.315.672.231 1.141.448 1.449.63 1.085.518.791.399 1.092.588.812.441v-7.756c0 0-.49-.203-1.316-.518l-1.302-.476-.875-.301-.77-.266-.917-.287-.7-.217-.21-.07-.707-.189-.847-.231-.56-.126-.931-.203-.98-.175"/><path d="m95.97 44.855v11.375h7.385.399l1.022-.07c.805-.084 1.862-.217 2.884-.56.931-.315 1.834-.791 2.527-1.477l.658-.819c.574-.917.728-1.848.763-2.366l.014-.371v-.273l-.161-1.106-.861-1.736-.287-.315-.658-.588-1.365-.763c-.672-.287-1.407-.511-2.226-.658l-1.316-.196-.847-.07h-.777-7.154"/><path d="m95.97 27.544v10.787h3.584.546l.805-.07c.742-.07 1.764-.161 2.779-.448l.595-.182c.798-.287 1.561-.707 2.163-1.281l.987-1.491.385-1.631.028-.595-.007-.469c-.028-.476-.133-1.232-.49-1.967l-.756-1.029-1.421-.924c-1.01-.455-2.156-.63-3.129-.686l-1.134-.07h-4.935z"/><path d="m133.9 12.912v57.918h-61.54v-57.918h61.54m-45.39 8.12v41.699h15.694c0 0 7.665.224 11.879-4 3.451-3.444 3.199-7.42 3.199-7.42 0 0 .252-4.158-2.94-7.343-2.709-2.723-6.174-3.444-6.174-3.444 0 0 1.568-.728 2.772-1.932.56-.56 2.555-2.38 2.555-6.769 0-4.424-2.947-6.972-2.947-6.972 0 0-3.22-3.815-10.507-3.815h-13.531"/><path d="m25.07 44.855v11.375h7.385.399l1.022-.07c.805-.084 1.862-.217 2.884-.56.924-.315 1.834-.791 2.52-1.477l.658-.819c.581-.917.735-1.848.763-2.366l.014-.371v-.273l-.154-1.106-.861-1.736-.287-.315-.658-.588-1.372-.763c-.665-.287-1.4-.511-2.219-.658l-1.316-.196-.854-.07h-.77-7.154"/><path d="m25.07 27.544v10.787h3.577.553l.805-.07c.742-.07 1.757-.161 2.779-.448l.588-.182c.798-.287 1.575-.707 2.17-1.281l.98-1.491.392-1.631.028-.595-.014-.469c-.014-.476-.119-1.232-.49-1.967l-.756-1.029-1.421-.924c-1.01-.455-2.156-.63-3.122-.686l-1.134-.07h-4.935"/><path d="m62.993 12.912v57.918h-61.54v-57.918h61.54m-45.39 8.12v41.699h15.694c0 0 7.658.224 11.879-4 3.451-3.444 3.199-7.42 3.199-7.42 0 0 .252-4.158-2.933-7.343-2.723-2.723-6.181-3.444-6.181-3.444 0 0 1.561-.728 2.765-1.932.56-.56 2.562-2.38 2.562-6.769 0-4.424-2.94-6.972-2.94-6.972 0 0-3.227-3.815-10.507-3.815h-13.538"/><path d="m252.64 1.567l40.908 40.95-40.908 40.915-40.901-40.957 40.901-40.908"/></g><path d="m248.58 30.96l4.473-4.13-.028 31.19-4.445-4.704v-8.848h-17.542v13.587l-4.466-4.697v-22.386l4.466-4.144v13.496h17.542v-9.366"/><path d="m253.02 58.01l4.473-3.983h5.684c2.233 0 3.969-.147 5.208-.434 1.246-.315 2.268-.7 3.094-1.162.833-.483 1.582-1.071 2.275-1.75 2.205-2.233 3.304-5.061 3.304-8.477 0-3.353-1.134-6.083-3.395-8.19-.833-.791-1.792-1.449-2.884-1.953-1.071-.511-2.093-.84-3.066-1-.959-.161-2.513-.245-4.669-.245h-5.579l-4.431-3.983h10.486c4.242 0 7.609.644 10.07 1.918 2.478 1.274 4.445 3.143 5.908 5.621 1.449 2.471 2.191 5.166 2.191 8.092 0 2.079-.413 4.074-1.211 5.985-.812 1.904-1.96 3.584-3.444 5.03-1.512 1.491-3.283 2.611-5.292 3.367-1.176.462-2.268.777-3.241.938-.98.154-2.863.224-5.642.224h-9.842 9.842c2.779 0 4.662-.07 5.642-.224.973-.161 2.065-.476 3.241-.938 2.01-.756 3.78-1.876 5.292-3.367 1.484-1.449 2.632-3.129 3.444-5.03.798-1.911 1.211-3.906 1.211-5.985 0-2.926-.742-5.621-2.191-8.092-1.463-2.478-3.43-4.347-5.908-5.621-2.464-1.274-5.831-1.918-10.07-1.918h-10.486l4.431 3.983h5.579c2.156 0 3.71.084 4.669.245.973.161 1.995.49 3.066 1 1.092.504 2.051 1.162 2.884 1.953 2.261 2.107 3.395 4.837 3.395 8.19 0 3.416-1.099 6.244-3.304 8.477-.693.679-1.442 1.267-2.275 1.75-.826.462-1.848.847-3.094 1.162-1.239.287-2.975.434-5.208.434h-5.684l-4.473 3.983" fill="#fff"/><path d="m253.02 58.01l4.473-3.983h5.684c2.233 0 3.969-.147 5.208-.434 1.246-.315 2.268-.7 3.094-1.162.833-.483 1.582-1.071 2.275-1.75 2.205-2.233 3.304-5.061 3.304-8.477 0-3.353-1.134-6.083-3.395-8.19-.833-.791-1.792-1.449-2.884-1.953-1.071-.511-2.093-.84-3.066-1-.959-.161-2.513-.245-4.669-.245h-5.579l-4.431-3.983h10.486c4.242 0 7.609.644 10.07 1.918 2.478 1.274 4.445 3.143 5.908 5.621 1.449 2.471 2.191 5.166 2.191 8.092 0 2.079-.413 4.074-1.211 5.985-.812 1.904-1.96 3.584-3.444 5.03-1.512 1.491-3.283 2.611-5.292 3.367-1.176.462-2.268.777-3.241.938-.98.154-2.863.224-5.642.224h-9.842"/><g fill="#838181"><path d="m257.49 30.841l-4.466-4.01v31.18l4.466-3.983v-9.555-4.144-9.485"/><path d="m231.03 44.47l-.014 13.566 4.473-4.02-.014-9.541h-4.445"/><path d="m235.59 40.33l-.084-9.352-4.473-4.144v13.496h4.557"/></g></svg>