<svg xmlns="http://www.w3.org/2000/svg" viewBox="0 0 600 276.62"><g fill="#fff" transform="translate(163.77 712.97)"><path d="m318.33-659.99c0-7.371-4.816-12.974-12.482-15.09 1.966-1.032 3.686-2.31 4.767-3.833 1.72-2.113 2.408-4.767 2.408-7.863 0-3.735-1.474-7.568-4.521-10.369-3.145-2.85-7.961-4.718-14.448-4.718h-18.18v57.6h21.18c7.666 0 12.974-2.113 16.315-5.16 3.587-3.096 4.963-7.03 4.963-10.566m20.247 26.881h-85.02v-79.86h85.02v79.86z"/><path d="m307.8-661.14c-.049 1.818-.59 3.735-2.31 5.16-1.72 1.474-4.619 2.703-9.583 2.703h-9.73v-15.824h9.337c4.374 0 7.421 1.032 9.435 2.408 1.966 1.229 2.801 3.145 2.85 5.553"/><path d="m299.9-679.95c1.867-1.229 2.605-3.145 2.605-6.143 0-1.818-.344-3.44-1.818-4.816-1.425-1.13-3.833-1.917-7.716-1.917h-6.782v14.89h4.669c4.177 0 7.175-.688 9.04-2.01"/><path d="m419.42-659.7l-1.278.786c-6.536 4.03-13.76 6.241-20.296 6.241-13.809 0-23.05-8.256-23.05-20.296 0-11.794 9.485-20.444 22.704-20.444 6.782 0 12.875 1.671 19.952 5.701l1.376.639v-10.517l-.491-.197c-8.354-3.391-14.497-4.816-20.689-4.816-9.681 0-17.986 3.047-23.933 8.649-5.897 5.455-9.583 13.02-9.583 21.574 0 6.04 2.654 13.367 7.912 18.92 5.406 5.75 13.662 9.976 25.16 9.976 9.337 0 15.775-2.211 21.721-5.062l.491-.197v-10.959m16.808 26.587h-84.87v-79.86h84.87v79.86"/><path d="m220.62-659.99c0-7.371-5.062-12.974-12.728-15.09 2.113-1.032 3.735-2.31 5.16-3.833 1.425-2.113 2.162-4.767 2.162-7.863 0-3.735-1.376-7.568-4.619-10.369-3.145-2.85-7.912-4.718-14.35-4.718h-18.18v57.6h21.23c7.666 0 12.826-2.113 16.266-5.16 3.44-3.096 5.062-7.03 5.062-10.566m20.1 26.881h-84.968v-79.86h84.968v79.86z"/><path d="m201.97-679.95c1.867-1.229 2.801-3.145 2.801-6.143 0-1.818-.59-3.44-1.966-4.816-1.327-1.13-3.637-1.917-7.617-1.917h-6.929v14.89h4.767c4.177 0 7.08-.688 8.944-2.01"/><path d="m207.16-666.71c-2.113-1.327-5.16-2.408-9.386-2.408h-9.534v15.824h9.976c4.816 0 7.765-1.229 9.435-2.654 1.72-1.474 2.261-3.391 2.261-5.209 0-2.408-.885-4.325-2.752-5.553"/><g fill-rule="evenodd"><path d="m-162.62-631.86h22.999v84.38c0 16.12-.295 24.18-.295 37.693.442 8.748-.59 11.843 19.215 22.753-3.096 5.307-6.733 12.974-9.485 18.13-12.433-5.553-26.537-12.63-31.501-25.898-4.079-10.664-.934-26.685-.934-44.03v-93.03"/><path d="m168.26-601.15h21.13v30.616h43c-.246 24.18 0 46.1 0 63.05.393 11.549 11.991 14.399 15.775 14.694 3.784.393 6.683 0 10.467 0 6.831 0 16.709-8.944 16.709-21.328 0-11.794.639-36.661.246-56.42h20.1c0 36.27-.344 66.884-.344 88.41 0 50.18-39.56 45.801-63.739 45.605v-19.313c5.799 0 16.905.688 22.508 0 27.618-3.145 22.458-29.19 22.21-29.19-10.02 15.775-40.69 14.694-52.44 2.801-13.318-13.269-11.991-41.08-11.598-67.965h-22.901v47.914c.344 5.455 1.13 6.88 7.814 12.925-2.752 6.04-5.897 11.843-8.404 17-29.781-14.792-18.871-33.417-20.542-78.875-4.865.197-10.123.246-11.794.246 0-4.865.049-14.1.147-19.559h11.647v-30.616"/><path d="m304.53-601.15h20.247v79.56c0 14.497-2.162 26.881 8.207 31.992-2.752 5.16-6.389 11.401-9.976 16.414-6.339-3.489-14.202-8.944-17.1-17.79-2.85-9.386-1.376-23.884-1.376-34.548v-75.63"/><path d="m151.49-558.92c-3.047 3.931-8.404 9.239-11.11 13.514-13.17-8.6-26.09-14.939-37.15-8.404-6.389 2.85-13.416 16.02 6.192 19.559 19.412 5.357 51.698 4.03 44.966 35.24-6.094 28.405-38.626 32.34-64.869 21.574-4.865-1.917-12.138-5.455-15.382-9.583 4.275-4.521 9.878-9.779 13.563-14.497 4.767 3.145 9.976 7.273 15.431 9.681 19.51 9.141 44.671-9.878 21.721-19.854-20.1-6.733-58.33-3.735-46.44-41.575 1.573-4.226 7.224-10.664 10.762-13.318 22.02-16.02 57.694 0 62.31 7.666"/><path d="m-112.92-570.52h21.23v95.88h-21.23v-95.88"/><path d="m15.794-554.69c24.768 0 28.65 20.935 28.65 21.672h-53.664c2.01-14.301 12.286-21.574 25.01-21.672m16.217 61.92c-19.559 8.256-40.2-4.816-41.23-22.06h55.58 22.655c0-42.656-29.977-69.24-71.45-54.745-20.247 7.126-23.736 19.706-29.83 36.562h-19.17c-.147-19.362-.442-23.884-.442-35.38 0-16.807 18.674-15.09 22.606-12.286 2.654-5.75 6.34-15.382 7.666-19.313-17.05-4.521-34.892-2.31-44.18 10.271-3.391 4.816-6.733 9.04-6.733 16.414v40.3c-4.669.098-8.453-.098-12.63.197 0 4.325.049 11.991.098 17.986h12.531v71.01h21.08v-71.01h19.17c4.03 44.23 64.62 57.841 95.93 20.05.295-.098.639-.59 1.081-.885-5.258-2.703-11.205-6.536-17.593-10.07-1.376 0-10.418 10.959-15.14 12.974"/><path d="m382.28-554.6c23.785 0 28.749 20.935 28.749 21.967-8.06 0-42.26.197-54.3.197-.393-1.032 5.01-22.16 25.554-22.16m16.02 61.53c-19.461 8.354-40-4.718-41.13-21.77h55.53c7.666 0 16.758.197 23.49.197-.786-26.881-11.942-46.686-31.06-54.942-33.958-14.202-64.67 7.421-71.01 35.53-1.671 7.371-1.474 20.247.59 25.997 6.143 17.1 14.01 26.488 29.732 31.501 46.588 14.694 65.02-18.92 65.56-19.313-5.406-2.654-9.878-6.04-16.02-9.583-6.094 7.03-11.01 10.369-15.677 12.384"/><path d="m-89.36-593.47c0 7.371-6.094 13.269-13.318 13.269-7.175 0-13.269-5.897-13.269-13.269 0-7.371 6.094-13.416 13.269-13.416 7.224 0 13.318 6.04 13.318 13.416"/></g></g></svg>