<svg xmlns="http://www.w3.org/2000/svg" viewBox="0 0 1015.71 761.79"><defs><clipPath><path d="m95.03 136.28h335.27v48.909h-335.27v-48.909"/></clipPath><clipPath><path d="m121.25 357.17h168v126h-168v-126"/></clipPath><clipPath><path d="m0 0h841.89v595.28h-841.89v-595.28"/></clipPath></defs><g transform="translate(-4.386-5.129)"><path d="m4.386 5.129h1015.71v761.79h-1015.71v-761.79" fill="#c02519" fill-rule="evenodd"/><g fill="#fff"><path d="m326.13 389.2h20.29v149.15h-18.368l-99.72-114.87v114.87h-20.07v-149.15h17.291l100.57 115.84v-115.84"/><path d="m384.9 389.2h84.56v18.996h-63.2v45.48h61.07v19.11h-61.07v46.34h65.23v19h-86.58v-148.94"/><path d="m697.35 389.2h21.294l-60.31 149.79h-4.692l-48.766-121.29-49.27 121.29h-4.583l-60.11-149.79h21.511l41.1 102.81 41.38-102.81h20.19l41.572 102.81 40.689-102.81"/><path d="m776.5 475.86l-16.227-9.861c-10.181-6.215-17.424-12.328-21.729-18.343-4.305-6.02-6.463-12.938-6.463-20.768 0-11.747 4.075-21.282 12.231-28.609 8.144-7.334 18.736-11 31.765-11 12.449 0 23.875 3.501 34.27 10.49v24.24c-10.75-10.339-22.322-15.508-34.704-15.508-6.977 0-12.709 1.614-17.195 4.843-4.48 3.222-6.729 7.352-6.729 12.388 0 4.462 1.657 8.652 4.958 12.545 3.307 3.906 8.615 7.999 15.937 12.279l16.312 9.655c18.19 10.871 27.29 24.704 27.29 41.499 0 11.959-4 21.675-12.01 29.15-8.01 7.473-18.422 11.203-31.23 11.203-14.728 0-28.14-4.516-40.25-13.579v-27.12c11.524 14.613 24.873 21.916 40.04 21.916 6.693 0 12.261-1.862 16.711-5.586 4.45-3.724 6.675-8.386 6.675-13.99 0-9.07-6.554-17.684-19.649-25.834"/><path d="m531.89 285.65c-.012 3.192-.992 6.409-3.845 8.906-2.848 2.503-7.775 4.407-15.937 4.407h-16.427v-26.342h15.695c7.322 0 12.515 1.487 15.774 3.803 3.247 2.334 4.716 5.399 4.74 9.226"/><path d="m518.58 254.1c3.059-2.201 4.534-5.32 4.553-9.994-.012-3.21-.931-5.961-3.241-8.01-2.316-2.056-6.245-3.513-12.594-3.513h-11.62v24.964h7.975c6.904 0 11.85-1.227 14.927-3.446"/><path d="m549.61 287.58c.042-12.176-8.07-21.433-21.05-24.988 3.507-1.79 6.276-3.978 8.307-6.644 2.709-3.579 4.01-7.962 3.99-13.08.018-6.276-2.455-12.678-7.757-17.473-5.308-4.788-13.361-7.89-24.353-7.884h-30.357v96.53h35.61.018c12.709 0 21.632-3.446 27.376-8.555 5.75-5.085 8.216-11.759 8.21-17.908m33.839 45.17h-142.42v-134.03h142.42v134.03z"/><path d="m354.48 254.1c3.053-2.201 4.534-5.32 4.559-9.994-.006-3.21-.931-5.961-3.241-8.01-2.322-2.056-6.251-3.513-12.606-3.513h-11.608v24.964h7.975c6.898 0 11.844-1.227 14.921-3.446"/><path d="m363.04 276.42c-3.253-2.316-8.452-3.803-15.768-3.803h-15.695v26.342h16.427c8.162 0 13.08-1.904 15.931-4.407 2.854-2.497 3.839-5.713 3.845-8.906-.024-3.827-1.493-6.892-4.74-9.226"/><path d="m385.51 287.58c.042-12.176-8.08-21.433-21.04-24.988 3.495-1.79 6.264-3.978 8.289-6.644 2.721-3.579 4.01-7.962 4-13.08.006-6.276-2.461-12.678-7.763-17.473-5.302-4.788-13.355-7.89-24.347-7.884h-30.363v96.53h35.604.024c12.715 0 21.632-3.446 27.376-8.555 5.744-5.085 8.228-11.759 8.216-17.908m33.839 45.17h-142.42v-134.03h142.42v134.03z"/><path d="m719.27 288.2l-2.285 1.397c-11.03 6.735-23.02 10.345-33.918 10.339-23.325-.091-38.682-13.912-38.742-34.02.024-19.679 16.06-34.24 38.15-34.29 11.251.006 21.439 2.914 33.549 9.553l2.225 1.221v-17.962l-.955-.375c-13.652-5.387-24.23-7.787-34.667-7.781-16.15-.006-30.16 5.326-40.14 14.371-9.976 9.05-15.907 21.826-15.895 36.499.006 10.224 4.22 22.2 13.253 31.711 9 9.51 22.878 16.439 41.904 16.433h.067c15.78 0 26.723-3.513 36.614-8.392l.84-.411v-18.289m28.28 44.546h-142.42v-134.03h142.42v134.03"/></g></g></svg>