<?xml version="1.0" encoding="UTF-8" standalone="no"?>
<!-- Created with Inkscape (http://www.inkscape.org/) -->

<svg
   xmlns:dc="http://purl.org/dc/elements/1.1/"
   xmlns:cc="http://creativecommons.org/ns#"
   xmlns:rdf="http://www.w3.org/1999/02/22-rdf-syntax-ns#"
   xmlns:svg="http://www.w3.org/2000/svg"
   xmlns="http://www.w3.org/2000/svg"
   version="1.1"
   width="300"
   height="220"
   id="svg2">
  <defs
     id="defs4">
    <style
       type="text/css"
       id="style6" />
  </defs>
  <metadata
     id="metadata7">
    <rdf:RDF>
      <cc:Work
         rdf:about="">
        <dc:format>image/svg+xml</dc:format>
        <dc:type
           rdf:resource="http://purl.org/dc/dcmitype/StillImage" />
        <dc:title></dc:title>
      </cc:Work>
    </rdf:RDF>
  </metadata>
  <g
     transform="translate(-341.42856,-698.79071)"
     id="layer1">
    <rect
       width="300"
       height="220"
       x="341.42856"
       y="698.79071"
       id="rect3934"
       style="opacity:0.93362834;fill:#c90302;fill-opacity:1;stroke:none" />
    <g
       transform="matrix(2.9408188,0,0,2.9695412,-290.91019,299.60298)"
       id="g3024"
       style="fill:#ffffff;fill-rule:evenodd">
      <path
         d="m 242.11961,191.44273 c 2.49166,-0.39048 4.49038,-1.33578 6.08715,-2.87893 1.85726,-1.79497 2.92542,-4.00475 3.31234,-6.85199 0.0994,-0.73139 0.1128,-2.5759 0.0241,-3.3025 -0.3497,-2.86324 -1.46142,-5.21629 -3.30639,-6.99814 -2.13978,-2.06654 -5.03131,-3.10805 -8.34866,-3.0071 -2.62988,0.08 -4.94664,0.8902 -6.8506,2.39569 -1.04327,0.8249 -2.13351,2.17786 -2.76316,3.42876 -1.69701,3.3718 -1.72632,7.941 -0.0726,11.32141 0.5672,1.15954 1.13772,1.96188 2.03206,2.85788 1.8103,1.8137 4.06173,2.82167 6.96261,3.11716 0.44549,0.0453 2.47299,-0.0117 2.92325,-0.0823 z m -2.78421,-4.08957 c -1.60382,-0.16923 -2.87286,-0.73868 -3.86561,-1.73484 -0.97764,-0.98098 -1.54251,-2.20487 -1.81313,-3.92879 -0.11423,-0.728 -0.11551,-2.65433 -0.003,-3.40936 0.0972,-0.64815 0.28985,-1.40965 0.47356,-1.87203 0.68219,-1.71733 1.9255,-2.9084 3.63501,-3.48232 1.20309,-0.40394 2.92649,-0.48727 4.28727,-0.20726 2.6555,0.54637 4.35087,2.39464 4.84321,5.28012 0.19613,1.14905 0.19603,2.78294 -6e-5,3.94529 -0.53535,3.17342 -2.54048,5.08876 -5.66646,5.41264 -0.49423,0.0512 -1.38853,0.0496 -1.89161,-0.004 z m 51.29626,4.06751 c 2.60558,-0.34474 4.86863,-1.12608 6.69206,-2.31044 0.48527,-0.31518 0.98425,-0.68747 0.98425,-0.73448 0,-0.0201 -0.37453,-0.72815 -0.83223,-1.57343 l -0.83225,-1.53682 -0.24618,0.15754 c -3.35713,2.14749 -8.29181,2.73071 -11.24983,1.32951 -1.84375,-0.8734 -2.91675,-2.38864 -3.32452,-4.69482 l -0.0256,-0.14509 8.61145,0 8.61153,0 0.0234,-0.10037 c 0.1328,-0.56886 0.19243,-2.12967 0.11643,-3.04599 -0.10797,-1.30003 -0.28336,-2.19151 -0.65114,-3.30914 -1.1457,-3.48194 -3.68894,-5.84339 -7.23029,-6.71333 -1.04674,-0.25716 -1.65937,-0.32438 -2.99015,-0.32809 -1.23542,-0.004 -1.5689,0.0239 -2.47691,0.20348 -3.84382,0.76027 -6.81035,3.39115 -8.05348,7.14216 -0.57472,1.73425 -0.79591,3.56507 -0.6488,5.37027 0.32224,3.95422 2.08972,7.02335 5.08732,8.83364 1.41353,0.85361 2.86245,1.30983 4.95383,1.55986 0.0859,0.0103 0.73857,0.0129 1.45045,0.006 1.01907,-0.0101 1.45088,-0.0335 2.03064,-0.11031 z m -8.82162,-13.3878 c 0.10206,-0.97636 0.49982,-2.07249 1.06187,-2.92621 0.32534,-0.49414 1.07828,-1.23863 1.59108,-1.57331 0.7031,-0.45871 1.53171,-0.77363 2.46395,-0.93627 0.6474,-0.11301 2.12738,-0.0984 2.83446,0.0281 1.28921,0.23044 2.26408,0.68874 3.08807,1.45162 0.98119,0.90839 1.60793,2.29209 1.69456,3.74111 l 0.0287,0.47982 -6.3952,0 -6.39513,0 0.0277,-0.26485 z m -23.66849,7.45664 c 0,-3.37152 0.0177,-5.70457 0.046,-6.0584 0.18109,-2.25982 0.75714,-3.71715 1.9399,-4.9074 1.25724,-1.26522 2.94813,-1.86588 5.04314,-1.79159 1.67913,0.0595 2.84995,0.52138 3.77185,1.48758 0.72373,0.75857 1.15399,1.64505 1.40513,2.89504 0.18345,0.91339 0.20162,1.33228 0.22572,5.22193 0.0315,5.06767 0.11578,6.71282 0.4293,8.37914 l 0.0484,0.25667 2.17318,0 2.17313,0 -0.0814,-0.50212 c -0.0846,-0.52121 -0.17732,-1.36359 -0.26402,-2.39884 -0.0302,-0.36091 -0.0644,-2.57057 -0.0852,-5.51173 -0.0342,-4.85283 -0.0462,-5.22485 -0.20295,-6.33732 -0.23353,-1.65834 -0.79059,-3.16875 -1.5708,-4.25939 -0.6413,-0.89655 -1.70389,-1.86355 -2.61946,-2.38416 -2.29598,-1.30553 -5.4052,-1.55401 -8.05826,-0.64391 -0.9619,0.3299 -1.842,0.81574 -2.6151,1.44353 -0.48493,0.39378 -1.20484,1.13188 -1.51059,1.54879 -0.12126,0.16547 -0.23238,0.30081 -0.2469,0.30081 -0.0145,0 -0.0503,-0.22597 -0.0798,-0.50211 -0.0836,-0.78655 -0.2639,-1.76589 -0.46015,-2.4992 l -0.0449,-0.16737 -2.13404,0 -2.13403,0 0.0562,0.32357 c 0.1903,1.0956 0.31763,2.5903 0.37709,4.4289 0.0238,0.73666 0.0436,4.89916 0.044,9.24997 l 5.1e-4,7.91058 2.18685,0 2.18685,0 0,-5.48297 0,0 1.6e-4,0 z"
         id="path10-4"
         style="fill:#ffffff;fill-rule:evenodd" />
      <g
         transform="matrix(0.17498363,0,0,0.17498365,130.28297,-63.727848)"
         id="layer1-0"
         style="fill:#ffffff;fill-rule:evenodd">
        <g
           transform="matrix(1.5730708,0,0,1.5730708,588.02291,-385.20449)"
           id="g2890"
           style="fill:#ffffff">
          <path
             d="m 251.02923,1066.9985 4.473,-4.13 -0.028,31.192 -4.445,-4.704 0,-8.848 -17.542,0 0,13.587 -4.466,-4.697 0,-22.386 4.466,-4.144 0,13.496 17.542,0 0,-9.366 z"
             id="path15603"
             style="fill:#ffffff;fill-rule:nonzero;stroke:none" />
          <path
             d="m 255.47423,1094.0465 0,0 4.473,-3.983 5.684,0 c 2.233,0 3.969,-0.147 5.208,-0.434 1.246,-0.315 2.268,-0.7 3.094,-1.162 0.833,-0.483 1.582,-1.071 2.275,-1.75 2.205,-2.233 3.304,-5.061 3.304,-8.477 0,-3.353 -1.134,-6.083 -3.395,-8.19 -0.833,-0.791 -1.792,-1.449 -2.884,-1.953 -1.071,-0.511 -2.093,-0.84 -3.066,-1.001 -0.959,-0.161 -2.513,-0.245 -4.669,-0.245 l -5.579,0 -4.431,-3.983 10.486,0 c 4.242,0 7.609,0.644 10.073,1.918 2.478,1.274 4.445,3.143 5.908,5.621 1.449,2.471 2.191,5.166 2.191,8.092 0,2.079 -0.413,4.074 -1.211,5.985 -0.812,1.904 -1.96,3.584 -3.444,5.033 -1.512,1.491 -3.283,2.611 -5.292,3.367 -1.176,0.462 -2.268,0.777 -3.241,0.938 -0.98,0.154 -2.863,0.224 -5.642,0.224 l -9.842,0 9.842,0 c 2.779,0 4.662,-0.07 5.642,-0.224 0.973,-0.161 2.065,-0.476 3.241,-0.938 2.009,-0.756 3.78,-1.876 5.292,-3.367 1.484,-1.449 2.632,-3.129 3.444,-5.033 0.798,-1.911 1.211,-3.906 1.211,-5.985 0,-2.926 -0.742,-5.621 -2.191,-8.092 -1.463,-2.478 -3.43,-4.347 -5.908,-5.621 -2.464,-1.274 -5.831,-1.918 -10.073,-1.918 l -10.486,0 4.431,3.983 5.579,0 c 2.156,0 3.71,0.084 4.669,0.245 0.973,0.161 1.995,0.49 3.066,1.001 1.092,0.504 2.051,1.162 2.884,1.953 2.261,2.107 3.395,4.837 3.395,8.19 0,3.416 -1.099,6.244 -3.304,8.477 -0.693,0.679 -1.442,1.267 -2.275,1.75 -0.826,0.462 -1.848,0.847 -3.094,1.162 -1.239,0.287 -2.975,0.434 -5.208,0.434 l -5.684,0 -4.473,3.983 z"
             id="path15607"
             style="fill:#ffffff;fill-rule:nonzero;stroke:none" />
          <path
             d="m 255.47423,1094.0465 4.473,-3.983 5.684,0 c 2.233,0 3.969,-0.147 5.208,-0.434 1.246,-0.315 2.268,-0.7 3.094,-1.162 0.833,-0.483 1.582,-1.071 2.275,-1.75 2.205,-2.233 3.304,-5.061 3.304,-8.477 0,-3.353 -1.134,-6.083 -3.395,-8.19 -0.833,-0.791 -1.792,-1.449 -2.884,-1.953 -1.071,-0.511 -2.093,-0.84 -3.066,-1.001 -0.959,-0.161 -2.513,-0.245 -4.669,-0.245 l -5.579,0 -4.431,-3.983 10.486,0 c 4.242,0 7.609,0.644 10.073,1.918 2.478,1.274 4.445,3.143 5.908,5.621 1.449,2.471 2.191,5.166 2.191,8.092 0,2.079 -0.413,4.074 -1.211,5.985 -0.812,1.904 -1.96,3.584 -3.444,5.033 -1.512,1.491 -3.283,2.611 -5.292,3.367 -1.176,0.462 -2.268,0.777 -3.241,0.938 -0.98,0.154 -2.863,0.224 -5.642,0.224 l -9.842,0 z"
             id="path15611"
             style="fill:#ffffff;fill-rule:nonzero;stroke:none" />
          <path
             d="m 259.94723,1066.8795 -4.466,-4.011 0,31.178 4.466,-3.983 0,-9.555 0,-4.144 0,-9.485 z"
             id="path15615"
             style="fill:#ffffff;fill-opacity:1;fill-rule:nonzero;stroke:none" />
          <path
             d="m 233.48023,1080.5085 -0.014,13.566 4.473,-4.025 -0.014,-9.541 -4.445,0 z"
             id="path15619"
             style="fill:#ffffff;fill-opacity:1;fill-rule:nonzero;stroke:none" />
          <path
             d="m 238.04423,1076.3645 -0.084,-9.352 -4.473,-4.144 0,13.496 4.557,0 z"
             id="path15623"
             style="fill:#ffffff;fill-opacity:1;fill-rule:nonzero;stroke:none" />
        </g>
      </g>
    </g>
    <g
       transform="matrix(0.55976987,0,0,0.55976987,279.1677,498.03445)"
       id="layer3"
       style="display:inline">
      <path
         d="m 414.35294,444.90308 -68.49685,0 0,64.90112 68.49685,0 0,-64.90112 z"
         id="path23-6"
         style="fill:#ffffff;fill-opacity:1;fill-rule:evenodd;display:inline;overflow:visible" />
      <path
         d="m 335.38237,444.90308 -68.49685,0 0,64.90112 68.49685,0 0,-64.90112 z"
         id="path23"
         style="fill:#ffffff;fill-opacity:1;fill-rule:evenodd;overflow:visible" />
      <path
         d="m 283.36806,453.15209 0,48.1975 17.23267,0 c 3.90162,0 7.20466,-0.60455 9.84727,-1.7984 2.51672,-1.19382 4.35936,-2.73837 5.74418,-4.7658 1.38488,-1.79014 2.00593,-4.05851 2.00593,-6.56424 0,-3.10453 -1.05178,-5.85499 -3.19122,-8.00291 -2.1408,-2.26719 -5.03384,-3.71993 -8.93546,-4.31621 5.28644,-2.14792 7.80675,-5.4768 7.9325,-10.25095 -0.12599,-2.50576 -0.83936,-4.59418 -2.09712,-6.38437 -1.13324,-1.90939 -2.98849,-3.51142 -5.37948,-4.58599 -2.39105,-1.07461 -5.56831,-1.52863 -9.84724,-1.52863 l -13.31203,0 z m 7.29425,6.11462 6.2913,0 c 6.16687,0 9.30017,2.35887 9.30017,7.01382 0,2.14784 -0.82676,4.05276 -2.4618,5.48514 -1.63635,1.31182 -4.43017,1.97827 -8.20604,1.97827 l -4.92363,0 0,-14.47723 z m 0,20.68173 6.83837,0 c 3.52297,0 6.26284,0.27363 8.02369,0.98914 1.63635,0.47832 2.85655,1.47569 3.73828,2.78756 0.75465,0.95656 1.33311,2.19695 1.45887,3.86658 -0.126,1.55164 -0.52056,2.91444 -1.27649,4.22629 -0.88045,1.19382 -1.98878,2.01141 -3.3736,2.60769 -1.63635,0.47848 -4.4302,0.71939 -8.20604,0.71939 l -7.20308,0 0,-15.19665 z"
         id="path23-3"
         style="fill:#cc0000;fill-opacity:1;fill-rule:evenodd;display:inline;overflow:visible" />
      <path
         d="m 492.93107,444.90308 -68.49686,0 0,64.90112 68.49686,0 0,-64.90112 z"
         id="path23-6-1"
         style="fill:#ffffff;fill-opacity:1;fill-rule:evenodd;display:inline;overflow:visible" />
      <path
         d="m 460.57456,452.89882 c -7.49661,0 -13.89296,2.4862 -19.05574,7.21268 -5.28438,4.72769 -7.83601,10.54014 -7.83601,17.63101 0,4.25531 1.17147,8.2704 3.38374,12.28828 2.33638,3.66352 5.45034,6.56918 9.26072,8.81551 3.93319,2.127 8.59443,3.20564 14.24729,3.20564 6.63804,0 12.66781,-1.43859 18.07623,-4.27419 l 0,-7.39076 c -5.77564,3.54419 -11.69745,5.25367 -17.72005,5.25367 -5.65415,0 -10.31411,-1.58825 -14.24729,-4.89749 -3.68757,-3.54545 -5.60985,-7.91993 -5.60985,-13.00066 0,-5.31815 1.8898,-9.57458 5.6989,-13.00064 3.68751,-3.54547 8.55807,-5.34272 14.33634,-5.34272 5.40714,0 11.14167,1.61853 16.91865,4.80844 l 0,-7.30173 c -6.26827,-2.71751 -12.04317,-4.00704 -17.45293,-4.00704 z"
         id="path15-8"
         style="fill:#cc0000;fill-opacity:1;fill-rule:evenodd;display:inline;overflow:visible" />
      <path
         d="m 362.03286,453.15209 0,48.1975 17.23267,0 c 3.90162,0 7.20466,-0.60455 9.84726,-1.7984 2.51672,-1.19382 4.35937,-2.73837 5.74419,-4.7658 1.38487,-1.79014 2.00593,-4.05851 2.00593,-6.56424 0,-3.10453 -1.05178,-5.85499 -3.19122,-8.00291 -2.14081,-2.26719 -5.03384,-3.71993 -8.93547,-4.31621 5.28645,-2.14792 7.80675,-5.4768 7.9325,-10.25095 -0.12599,-2.50576 -0.83936,-4.59418 -2.09712,-6.38437 -1.13323,-1.90939 -2.98848,-3.51142 -5.37948,-4.58599 -2.39104,-1.07461 -5.5683,-1.52863 -9.84723,-1.52863 l -13.31203,0 z m 7.29424,6.11462 6.29131,0 c 6.16686,0 9.30017,2.35887 9.30017,7.01382 0,2.14784 -0.82676,4.05276 -2.4618,5.48514 -1.63635,1.31182 -4.43018,1.97827 -8.20605,1.97827 l -4.92363,0 0,-14.47723 z m 0,20.68173 6.83837,0 c 3.52298,0 6.26284,0.27363 8.02369,0.98914 1.63635,0.47832 2.85655,1.47569 3.73829,2.78756 0.75464,0.95656 1.33311,2.19695 1.45886,3.86658 -0.12599,1.55164 -0.52055,2.91444 -1.27648,4.22629 -0.88045,1.19382 -1.98879,2.01141 -3.37361,2.60769 -1.63635,0.47848 -4.4302,0.71939 -8.20604,0.71939 l -7.20308,0 0,-15.19665 z"
         id="path23-3-7"
         style="fill:#cc0000;fill-opacity:1;fill-rule:evenodd;display:inline;overflow:visible" />
    </g>
  </g>
</svg>
