<svg xmlns="http://www.w3.org/2000/svg" viewBox="0 0 300 220"><g transform="translate(-341.43-698.79)"><path opacity=".934" fill="#c90302" d="m341.43 698.79h300v220h-300z"/><g fill-rule="evenodd"><path d="m421.12 868.1c7.328-1.16 13.205-3.967 17.901-8.549 5.462-5.33 8.603-11.892 9.741-20.347.292-2.172.332-7.649.071-9.807-1.028-8.503-4.298-15.49-9.723-20.781-6.293-6.137-14.796-9.229-24.552-8.93-7.734.238-14.547 2.643-20.15 7.114-3.068 2.45-6.274 6.467-8.126 10.182-4.991 10.01-5.077 23.581-.214 33.619 1.668 3.443 3.346 5.826 5.976 8.487 5.324 5.386 11.945 8.379 20.476 9.257 1.31.135 7.273-.035 8.597-.244m-8.188-12.144c-4.717-.503-8.449-2.194-11.368-5.152-2.875-2.913-4.536-6.547-5.332-11.667-.336-2.162-.34-7.882-.009-10.124.286-1.925.852-4.186 1.393-5.559 2.01-5.1 5.663-8.637 10.69-10.341 3.538-1.2 8.606-1.447 12.608-.615 7.809 1.622 12.795 7.111 14.243 15.68.577 3.412.576 8.264 0 11.716-1.574 9.424-7.471 15.11-16.664 16.07-1.453.152-4.083.147-5.563-.012zm150.85 12.08c7.663-1.024 14.318-3.344 19.68-6.861 1.427-.936 2.894-2.041 2.894-2.181 0-.06-1.101-2.162-2.447-4.672l-2.447-4.564-.724.468c-9.873 6.377-24.385 8.109-33.08 3.948-5.422-2.594-8.578-7.093-9.777-13.941l-.075-.431h25.325 25.325l.069-.298c.391-1.689.566-6.324.342-9.05-.318-3.86-.833-6.508-1.915-9.827-3.369-10.34-10.849-17.352-21.263-19.936-3.078-.764-4.88-.963-8.793-.974-3.633-.012-4.614.071-7.284.604-11.304 2.258-20.03 10.07-23.684 21.21-1.69 5.15-2.341 10.587-1.908 15.947.948 11.742 6.145 20.856 14.961 26.23 4.157 2.535 8.418 3.89 14.568 4.632.253.031 2.172.038 4.266.018 2.997-.03 4.267-.1 5.972-.328m-25.943-39.756c.3-2.899 1.47-6.154 3.123-8.689.957-1.467 3.171-3.678 4.679-4.672 2.068-1.362 4.504-2.297 7.246-2.78 1.904-.336 6.256-.292 8.336.083 3.791.684 6.658 2.045 9.08 4.311 2.885 2.697 4.729 6.806 4.983 11.11l.084 1.425h-18.807-18.807l.082-.786m-69.6 22.14c0-10.01.052-16.94.135-17.991.533-6.711 2.227-11.04 5.705-14.573 3.697-3.757 8.67-5.541 14.831-5.32 4.938.177 8.381 1.548 11.09 4.417 2.128 2.253 3.394 4.885 4.132 8.597.539 2.712.593 3.956.664 15.507.093 15.05.34 19.934 1.262 24.882l.142.762h6.391 6.391l-.239-1.491c-.249-1.548-.521-4.049-.776-7.123-.089-1.072-.189-7.633-.251-16.367-.101-14.411-.136-15.515-.597-18.819-.687-4.925-2.325-9.41-4.619-12.648-1.886-2.662-5.01-5.534-7.703-7.08-6.752-3.877-15.896-4.615-23.698-1.912-2.829.98-5.417 2.422-7.691 4.287-1.426 1.169-3.543 3.361-4.442 4.599-.357.491-.683.893-.726.893-.043 0-.148-.671-.235-1.491-.246-2.336-.776-5.244-1.353-7.421l-.132-.497h-6.276-6.276l.165.961c.56 3.253.934 7.692 1.109 13.152.07 2.188.128 14.548.129 27.468v23.491h6.431 6.431v-16.282z" fill="#fff"/><g transform="matrix(.55977 0 0 .55977 279.17 498.03)"><g fill="#fff"><path d="m414.35 444.9h-68.5v64.901h68.5v-64.901"/><path d="m335.38 444.9h-68.5v64.901h68.5v-64.901"/></g><path d="m283.37 453.15v48.2h17.233c3.902 0 7.205-.605 9.847-1.798 2.517-1.194 4.359-2.738 5.744-4.766 1.385-1.79 2.01-4.059 2.01-6.564 0-3.105-1.052-5.855-3.191-8-2.141-2.267-5.03-3.72-8.935-4.316 5.286-2.148 7.807-5.477 7.933-10.251-.126-2.506-.839-4.594-2.097-6.384-1.133-1.909-2.988-3.511-5.379-4.586-2.391-1.075-5.568-1.529-9.847-1.529h-13.312m7.294 6.115h6.291c6.167 0 9.3 2.359 9.3 7.01 0 2.148-.827 4.053-2.462 5.485-1.636 1.312-4.43 1.978-8.206 1.978h-4.924v-14.477m0 20.682h6.838c3.523 0 6.263.274 8.02.989 1.636.478 2.857 1.476 3.738 2.788.755.957 1.333 2.197 1.459 3.867-.126 1.552-.521 2.914-1.276 4.226-.88 1.194-1.989 2.01-3.374 2.608-1.636.478-4.43.719-8.206.719h-7.203v-15.197" fill="#c00"/><path d="m492.93 444.9h-68.5v64.901h68.5v-64.901" fill="#fff"/><g fill="#c00"><path d="m460.57 452.9c-7.497 0-13.893 2.486-19.06 7.213-5.284 4.728-7.836 10.54-7.836 17.631 0 4.255 1.171 8.27 3.384 12.288 2.336 3.664 5.45 6.569 9.261 8.816 3.933 2.127 8.594 3.206 14.247 3.206 6.638 0 12.668-1.439 18.08-4.274v-7.391c-5.776 3.544-11.697 5.254-17.72 5.254-5.654 0-10.314-1.588-14.247-4.897-3.688-3.545-5.61-7.92-5.61-13 0-5.318 1.89-9.575 5.699-13 3.688-3.545 8.558-5.343 14.336-5.343 5.407 0 11.142 1.619 16.919 4.808v-7.302c-6.268-2.718-12.04-4.01-17.453-4.01"/><path d="m362.03 453.15v48.2h17.233c3.902 0 7.205-.605 9.847-1.798 2.517-1.194 4.359-2.738 5.744-4.766 1.385-1.79 2.01-4.059 2.01-6.564 0-3.105-1.052-5.855-3.191-8-2.141-2.267-5.03-3.72-8.935-4.316 5.286-2.148 7.807-5.477 7.933-10.251-.126-2.506-.839-4.594-2.097-6.384-1.133-1.909-2.988-3.511-5.379-4.586-2.391-1.075-5.568-1.529-9.847-1.529h-13.312m7.294 6.115h6.291c6.167 0 9.3 2.359 9.3 7.01 0 2.148-.827 4.053-2.462 5.485-1.636 1.312-4.43 1.978-8.206 1.978h-4.924v-14.477m0 20.682h6.838c3.523 0 6.263.274 8.02.989 1.636.478 2.857 1.476 3.738 2.788.755.957 1.333 2.197 1.459 3.867-.126 1.552-.521 2.914-1.276 4.226-.88 1.194-1.989 2.01-3.374 2.608-1.636.478-4.43.719-8.206.719h-7.203v-15.197"/></g></g></g></g></svg>