<svg xmlns="http://www.w3.org/2000/svg" viewBox="0 0 300 220"><g transform="translate(-341.43-698.79)"><path opacity=".934" fill="#c90302" d="m341.43 698.79h300v220h-300z"/><g transform="matrix(2.94082 0 0 2.96954-290.91 299.6)" fill="#fff" fill-rule="evenodd"><path d="m242.12 191.44c2.492-.39 4.49-1.336 6.087-2.879 1.857-1.795 2.925-4 3.312-6.852.099-.731.113-2.576.024-3.303-.35-2.863-1.461-5.216-3.306-6.998-2.14-2.067-5.03-3.108-8.349-3.01-2.63.08-4.947.89-6.851 2.396-1.043.825-2.134 2.178-2.763 3.429-1.697 3.372-1.726 7.941-.073 11.321.567 1.16 1.138 1.962 2.032 2.858 1.81 1.814 4.062 2.822 6.963 3.117.445.045 2.473-.012 2.923-.082m-2.784-4.09c-1.604-.169-2.873-.739-3.866-1.735-.978-.981-1.543-2.205-1.813-3.929-.114-.728-.116-2.654-.003-3.409.097-.648.29-1.41.474-1.872.682-1.717 1.925-2.908 3.635-3.482 1.203-.404 2.926-.487 4.287-.207 2.655.546 4.351 2.395 4.843 5.28.196 1.149.196 2.783 0 3.945-.535 3.173-2.54 5.089-5.666 5.413-.494.051-1.389.05-1.892-.004m51.3 4.068c2.606-.345 4.869-1.126 6.692-2.31.485-.315.984-.687.984-.734 0-.02-.375-.728-.832-1.573l-.832-1.537-.246.158c-3.357 2.147-8.292 2.731-11.25 1.33-1.844-.873-2.917-2.389-3.325-4.695l-.026-.145h8.611 8.612l.023-.1c.133-.569.192-2.13.116-3.046-.108-1.3-.283-2.192-.651-3.309-1.146-3.482-3.689-5.843-7.23-6.713-1.047-.257-1.659-.324-2.99-.328-1.235-.004-1.569.024-2.477.203-3.844.76-6.81 3.391-8.05 7.142-.575 1.734-.796 3.565-.649 5.37.322 3.954 2.09 7.02 5.087 8.834 1.414.854 2.862 1.31 4.954 1.56.086.001.739.013 1.45.006 1.019-.001 1.451-.034 2.031-.11m-8.822-13.388c.102-.976.5-2.072 1.062-2.926.325-.494 1.078-1.239 1.591-1.573.703-.459 1.532-.774 2.464-.936.647-.113 2.127-.098 2.834.028 1.289.23 2.264.689 3.088 1.452.981.908 1.608 2.292 1.695 3.741l.029.48h-6.395-6.395l.028-.265m-23.669 7.457c0-3.372.018-5.705.046-6.06.181-2.26.757-3.717 1.94-4.907 1.257-1.265 2.948-1.866 5.04-1.792 1.679.06 2.85.521 3.772 1.488.724.759 1.154 1.645 1.405 2.895.183.913.202 1.332.226 5.222.031 5.068.116 6.713.429 8.379l.048.257h2.173 2.173l-.081-.502c-.085-.521-.177-1.364-.264-2.399-.03-.361-.064-2.571-.085-5.512-.034-4.853-.046-5.225-.203-6.337-.234-1.658-.791-3.169-1.571-4.259-.641-.897-1.704-1.864-2.619-2.384-2.296-1.306-5.405-1.554-8.06-.644-.962.33-1.842.816-2.615 1.444-.485.394-1.205 1.132-1.511 1.549-.121.165-.232.301-.247.301-.014 0-.05-.226-.08-.502-.084-.787-.264-1.766-.46-2.499l-.045-.167h-2.134-2.134l.056.324c.19 1.096.318 2.59.377 4.429.024.737.044 4.899.044 9.25v7.911h2.187 2.187v-5.483"/><g transform="matrix(.27526 0 0 .27526 233.18-131.13)" fill-rule="nonzero"><path d="m251.03 1067l4.473-4.13-.028 31.19-4.445-4.704v-8.848h-17.542v13.587l-4.466-4.697v-22.386l4.466-4.144v13.496h17.542v-9.366"/><path d="m255.47 1094.05l4.473-3.983h5.684c2.233 0 3.969-.147 5.208-.434 1.246-.315 2.268-.7 3.094-1.162.833-.483 1.582-1.071 2.275-1.75 2.205-2.233 3.304-5.061 3.304-8.477 0-3.353-1.134-6.083-3.395-8.19-.833-.791-1.792-1.449-2.884-1.953-1.071-.511-2.093-.84-3.066-1-.959-.161-2.513-.245-4.669-.245h-5.579l-4.431-3.983h10.486c4.242 0 7.609.644 10.07 1.918 2.478 1.274 4.445 3.143 5.908 5.621 1.449 2.471 2.191 5.166 2.191 8.092 0 2.079-.413 4.074-1.211 5.985-.812 1.904-1.96 3.584-3.444 5.03-1.512 1.491-3.283 2.611-5.292 3.367-1.176.462-2.268.777-3.241.938-.98.154-2.863.224-5.642.224h-9.842 9.842c2.779 0 4.662-.07 5.642-.224.973-.161 2.065-.476 3.241-.938 2.01-.756 3.78-1.876 5.292-3.367 1.484-1.449 2.632-3.129 3.444-5.03.798-1.911 1.211-3.906 1.211-5.985 0-2.926-.742-5.621-2.191-8.092-1.463-2.478-3.43-4.347-5.908-5.621-2.464-1.274-5.831-1.918-10.07-1.918h-10.486l4.431 3.983h5.579c2.156 0 3.71.084 4.669.245.973.161 1.995.49 3.066 1 1.092.504 2.051 1.162 2.884 1.953 2.261 2.107 3.395 4.837 3.395 8.19 0 3.416-1.099 6.244-3.304 8.477-.693.679-1.442 1.267-2.275 1.75-.826.462-1.848.847-3.094 1.162-1.239.287-2.975.434-5.208.434h-5.684l-4.473 3.983"/><path d="m255.47 1094.05l4.473-3.983h5.684c2.233 0 3.969-.147 5.208-.434 1.246-.315 2.268-.7 3.094-1.162.833-.483 1.582-1.071 2.275-1.75 2.205-2.233 3.304-5.061 3.304-8.477 0-3.353-1.134-6.083-3.395-8.19-.833-.791-1.792-1.449-2.884-1.953-1.071-.511-2.093-.84-3.066-1-.959-.161-2.513-.245-4.669-.245h-5.579l-4.431-3.983h10.486c4.242 0 7.609.644 10.07 1.918 2.478 1.274 4.445 3.143 5.908 5.621 1.449 2.471 2.191 5.166 2.191 8.092 0 2.079-.413 4.074-1.211 5.985-.812 1.904-1.96 3.584-3.444 5.03-1.512 1.491-3.283 2.611-5.292 3.367-1.176.462-2.268.777-3.241.938-.98.154-2.863.224-5.642.224h-9.842"/><path d="m259.95 1066.88l-4.466-4.01v31.18l4.466-3.983v-9.555-4.144-9.485"/><path d="m233.48 1080.51l-.014 13.566 4.473-4.03-.014-9.541h-4.445"/><path d="m238.04 1076.36l-.084-9.352-4.473-4.144v13.496h4.557"/></g></g><g transform="matrix(.55977 0 0 .55977 279.17 498.03)" fill-rule="evenodd"><g fill="#fff"><path d="m414.35 444.9h-68.5v64.901h68.5v-64.901"/><path d="m335.38 444.9h-68.5v64.901h68.5v-64.901"/></g><path d="m283.37 453.15v48.2h17.233c3.902 0 7.205-.605 9.847-1.798 2.517-1.194 4.359-2.738 5.744-4.766 1.385-1.79 2.01-4.059 2.01-6.564 0-3.105-1.052-5.855-3.191-8-2.141-2.267-5.03-3.72-8.935-4.316 5.286-2.148 7.807-5.477 7.933-10.251-.126-2.506-.839-4.594-2.097-6.384-1.133-1.909-2.988-3.511-5.379-4.586-2.391-1.075-5.568-1.529-9.847-1.529h-13.312m7.294 6.115h6.291c6.167 0 9.3 2.359 9.3 7.01 0 2.148-.827 4.053-2.462 5.485-1.636 1.312-4.43 1.978-8.206 1.978h-4.924v-14.477m0 20.682h6.838c3.523 0 6.263.274 8.02.989 1.636.478 2.857 1.476 3.738 2.788.755.957 1.333 2.197 1.459 3.867-.126 1.552-.521 2.914-1.276 4.226-.88 1.194-1.989 2.01-3.374 2.608-1.636.478-4.43.719-8.206.719h-7.203v-15.197" fill="#c00"/><path d="m492.93 444.9h-68.5v64.901h68.5v-64.901" fill="#fff"/><g fill="#c00"><path d="m460.57 452.9c-7.497 0-13.893 2.486-19.06 7.213-5.284 4.728-7.836 10.54-7.836 17.631 0 4.255 1.171 8.27 3.384 12.288 2.336 3.664 5.45 6.569 9.261 8.816 3.933 2.127 8.594 3.206 14.247 3.206 6.638 0 12.668-1.439 18.08-4.274v-7.391c-5.776 3.544-11.697 5.254-17.72 5.254-5.654 0-10.314-1.588-14.247-4.897-3.688-3.545-5.61-7.92-5.61-13 0-5.318 1.89-9.575 5.699-13 3.688-3.545 8.558-5.343 14.336-5.343 5.407 0 11.142 1.619 16.919 4.808v-7.302c-6.268-2.718-12.04-4.01-17.453-4.01"/><path d="m362.03 453.15v48.2h17.233c3.902 0 7.205-.605 9.847-1.798 2.517-1.194 4.359-2.738 5.744-4.766 1.385-1.79 2.01-4.059 2.01-6.564 0-3.105-1.052-5.855-3.191-8-2.141-2.267-5.03-3.72-8.935-4.316 5.286-2.148 7.807-5.477 7.933-10.251-.126-2.506-.839-4.594-2.097-6.384-1.133-1.909-2.988-3.511-5.379-4.586-2.391-1.075-5.568-1.529-9.847-1.529h-13.312m7.294 6.115h6.291c6.167 0 9.3 2.359 9.3 7.01 0 2.148-.827 4.053-2.462 5.485-1.636 1.312-4.43 1.978-8.206 1.978h-4.924v-14.477m0 20.682h6.838c3.523 0 6.263.274 8.02.989 1.636.478 2.857 1.476 3.738 2.788.755.957 1.333 2.197 1.459 3.867-.126 1.552-.521 2.914-1.276 4.226-.88 1.194-1.989 2.01-3.374 2.608-1.636.478-4.43.719-8.206.719h-7.203v-15.197"/></g></g></g></svg>