<svg xmlns="http://www.w3.org/2000/svg" viewBox="0 0 949.51 698.07"><g transform="translate(111.9-149.04)"><path d="m-109.68 149.99h943.5v693.5h-943.5v-693.5" fill="#fdfafa"/><path d="m-111.9 149.08c316.5-.063 633-.037 949.51-.025-.075 232.69-.038 465.38-.025 698.05-316.49-.012-632.98.025-949.45-.012.025-232.67.088-465.35-.037-698.01" fill="#9d0a0e"/><g fill="#fdfafa"><path d="m167.08 435.21c.188-37.31-.325-74.64.262-111.94 39.07.288 78.16-.05 117.24.163.275.25.825.725 1.1.975.1 36.925.025 73.863.038 110.8-39.55.05-79.1.05-118.64 0"/><path d="m303.68 323.37c39.5.012 79-.012 118.5.012.063 37.27.012 74.56.025 111.84-39.525.025-79.04.012-118.56.012.025-37.29-.05-74.57.038-111.86"/><path d="m440.16 323.37c39.462-.063 78.925.137 118.39-.1.462 37.31.087 74.65.188 111.97-39.538-.038-79.06.025-118.6-.025 0-37.29-.038-74.56.025-111.85"/></g><g fill="#9d0a0e"><path d="m475.15 347.02c17.325-12.3 41.09-10.775 59.44-1.625-.237 4.775-.125 9.563-.15 14.337-10.75-5.7-22.875-10.375-35.26-8.412-10.7 1.262-21.01 8.3-24.688 18.65-3.887 10.2-1.1 22.775 7.238 29.962 5.45 4.95 12.825 7.263 20.06 7.825 11.85.913 23.563-3.337 33.388-9.738-.013 5.138.063 10.275-.063 15.425-13.35 6.712-28.938 8.962-43.587 5.912-12.825-2.712-24.475-11.313-29.875-23.387-8.06-16.762-1.788-38.538 13.5-48.95"/><path d="m198.13 339.17c9.113-.012 18.238-.087 27.35.025 8.7.188 18.12 3.913 22.387 11.938 4.9 8.675 1.8 21.09-7.512 25.4 4.613 2.137 9.512 4.2 12.725 8.325 5.775 7.02 5.762 18.07-.1 25.04-5.625 7-15 9.5-23.637 9.663-10.387.075-20.787.012-31.18.025 0-26.8.063-53.613-.037-80.41"/><path d="m334.54 339.24c9.07-.2 18.15-.113 27.23-.063 8.113.15 16.85 3.15 21.575 10.112 3.575 4.988 3.887 11.613 2.363 17.388-1.3 4.538-5.05 7.625-8.813 10.15 5.625 1.688 10.95 4.988 14.15 10.01 4.425 7.01 3.8 16.8-1.613 23.12-5.363 6.737-14.3 9.275-22.587 9.563-10.725.15-21.462-.012-32.19.075-.075-26.787.137-53.57-.113-80.36"/></g><g fill="#fdfafa"><path d="m212.45 351.68c5.912.288 12.225-.913 17.838 1.512 7.175 2.875 6.5 14.65-.4 17.475-5.45 2.413-11.613 1.962-17.425 1.988-.025-7-.012-13.988-.012-20.975"/><path d="m348.96 351.69c6.05.225 12.45-.887 18.18 1.575 6.637 3.038 6.288 13.6.137 16.975-5.613 2.925-12.188 2.387-18.3 2.4-.025-6.988-.012-13.962-.012-20.95"/><path d="m212.45 385.12c8.363.538 17.463-1.563 25.21 2.525 4.7 2.288 6.35 8.65 3.787 13.1-1.787 3.587-5.863 5.188-9.588 5.85-6.45.8-12.95.275-19.425.413.012-7.288 0-14.587.012-21.887"/><path d="m348.96 385.16c8.55.512 17.988-1.738 25.775 2.8 4.6 2.475 5.512 8.75 3.212 13.09-2.325 3.775-6.863 5.35-11.07 5.738-5.962.475-11.938.125-17.9.225-.025-7.288-.012-14.563-.012-21.85"/><path d="m-65.2 518.86c11.487.025 22.975-.075 34.462.038 9.825.138 20.3 3.987 25.913 12.462 8.05 12.425 6.35 31.738-6.613 40.26-11.412 7.775-25.862 5.85-38.9 6.06.012 14.975.012 29.95 0 44.938-4.95.013-9.888.013-14.838 0-.037-34.587 0-69.17-.025-103.76"/><path d="m-10.537 622.61c14.888-34.8 29.688-69.65 44.6-104.45 3.438 0 6.888 0 10.337.013 15.525 34.8 30.925 69.65 46.44 104.45-5.088.013-10.162.013-15.237-.013-4.563-10.225-9.125-20.45-13.763-30.638-14.7-.038-29.388 0-44.09-.013-4.463 10.188-8.675 20.5-13.162 30.688-5.04-.038-10.07-.013-15.13-.038z"/><path d="m102.48 518.84c9.338.05 18.675-.063 28.01.05 9.08.15 18.6 2.888 25.03 9.6 7.475 7.925 8.963 20.338 5.125 30.31-2.625 6.837-8.625 11.688-15.16 14.587 9.637 6.35 15.438 16.65 21.45 26.19 4.762 8 10.25 15.525 15.713 23.05-5.863 0-11.713-.037-17.575.037-7.3-10.638-13.6-21.975-21.425-32.25-3.85-4.862-8.09-9.962-14.1-12.11-3.938-1.112-8.1-.65-12.138-.775-.075 15.04.012 30.08-.05 45.11-4.95-.025-9.912-.013-14.862-.038-.025-34.587-.012-69.17-.012-103.76z"/><path d="m193.81 518.83c4.975.025 9.938.013 14.912.013-.037 30.11.025 60.23-.025 90.34 15.637.05 31.29-.037 46.938.05 0 4.45 0 8.913-.012 13.375-20.6.038-41.21.013-61.813.013-.025-34.6-.025-69.19 0-103.79"/><path d="m268.59 518.82c4.962 0 9.925.013 14.9-.013 0 34.613.012 69.21-.012 103.81-4.95.013-9.913 0-14.863.013-.038-34.612.012-69.21-.025-103.81"/><path d="m339.53 518.22c3.438-.063 6.887-.075 10.337-.138 15.8 34.7 30.925 69.73 46.5 104.54-5.02.013-10.06-.013-15.09.038-4.9-10.15-9.15-20.6-14.06-30.737-14.637.125-29.29-.05-43.925.088-4.438 10.237-8.45 20.7-13.363 30.725-5-.175-10.01-.1-15.01-.1 14.962-34.763 29.75-69.6 44.613-104.41"/><path d="m407.45 518.83c4.65.013 9.313.013 13.975.038 11.387 14.14 22.95 28.15 34.15 42.45 11.863-13.663 22.762-28.18 34.387-42.05 4.5-1.05 9.425-.125 14.1-.413-.038 34.588.025 69.18-.038 103.76-4.975.013-9.962.025-14.938-.037.175-27.04-.325-54.08.262-81.1-11.04 13.05-21.262 26.788-32.07 40.02-1.087 1.2-3.113.3-3.762-.962-10.45-12.95-20.6-26.14-31.15-38.987-.075 27.01-.012 54.04-.025 81.06-4.975.013-9.925.013-14.887 0-.012-34.6-.012-69.19 0-103.79"/><path d="m526.35 519.01c19.6-.35 39.23-.063 58.825-.15-.013 4.413-.013 8.825.013 13.25-14.625.025-29.24-.013-43.862.013-.075 10.438-.025 20.888-.025 31.33 14.14.062 28.3-.25 42.44.163-.087 4.413-.063 8.837-.025 13.263-14.14.013-28.27 0-42.41.013-.025 10.763.013 21.538-.025 32.3 15.1.038 30.2-.025 45.29.038-.05 4.462-.05 8.925-.038 13.388-20.02.025-40.05.038-60.08-.012-.075-34.525.1-69.06-.1-103.59z"/><path d="m602.21 518.84c3.95 0 7.913 0 11.875.013 23.513 26.688 46.675 53.7 70.39 80.21-.063-26.737.013-53.48-.038-80.2 4.6-.038 9.212-.025 13.825-.013.013 34.588.013 69.18 0 103.75-4.237.025-8.475.025-12.7.013-23.17-26.538-46.15-53.26-69.33-79.8-.112 26.612.05 53.23-.087 79.83-4.638-.025-9.275-.025-13.9-.013-.063-34.6 0-69.19-.038-103.79"/><path d="m712.28 518.84c28.837.013 57.663 0 86.5.013-.025 4.413-.025 8.825.013 13.25-11.862 0-23.725.05-35.587-.025-.85 14.65.125 29.338-.263 44.01-.013 15.525.275 31.06-.1 46.575-4.875-.075-9.75-.037-14.612-.05-.038-30.16.025-60.33-.038-90.49-11.975-.05-23.95 0-35.913-.025.013-4.425.013-8.837 0-13.263"/></g><g fill="#9d0a0e"><path d="m-50.25 532.11c8.913.513 18.325-1.387 26.85 1.963 11.338 5.05 10.787 23.938-.7 28.488-8.35 3.212-17.537 1.2-26.25 1.763.087-10.737-.088-21.475.1-32.21"/><path d="m117.38 531.61c7.25.25 14.913-.888 21.763 2.112 10.912 4.5 10.925 22.35.75 27.688-6.888 3.763-15 2.475-22.513 2.712 0-10.837 0-21.675 0-32.513"/><path d="m23.526 578.72c5.15-12.587 10.225-25.2 15.588-37.688 5.225 12.688 11.462 24.95 16.438 37.725-10.675-.225-21.35.075-32.02-.037"/><path d="m329.29 578.68c4.6-12.7 10.375-24.962 15.11-37.625 5.837 12.45 11.337 25.06 16.875 37.663-10.663-.013-21.325.037-31.988-.038"/></g></g></svg>