<svg xmlns="http://www.w3.org/2000/svg" width="100" height="19" viewBox="0 0 900 172.241" fill-rule="evenodd"><g transform="matrix(1.05263 0 0 1.05263-3.263-9.07)"><path d="m861.2 172.21v-139.78h-148.69v139.78h148.69m-33.88-99.64c-11.457-6.449-22.913-9.794-33.637-9.794-11.459 0-20.964 3.584-28.28 10.752-7.554 6.926-11.457 15.53-11.457 26.28 0 10.273 3.901 19.11 11.213 26.28 7.8 6.69 17.06 10.03 28.27 10.03 11.943 0 23.646-3.585 35.1-10.75v15.05c-10.726 5.733-22.67 8.6-35.834 8.6-11.21 0-20.475-2.149-28.27-6.448-7.556-4.543-13.648-10.517-18.282-17.924-4.387-8.123-6.826-16.245-6.826-24.848 0-14.337 5.121-26.04 15.6-35.604 10.239-9.556 22.916-14.575 37.783-14.575 10.728 0 22.18 2.629 34.613 8.124v14.814h.002"/><path d="m519.45 32.42h-148.73v139.82h148.73v-139.82m-103.38 117.35v-96.56h25.846c8.29 0 14.387.956 19.02 3.106 4.632 2.152 8.289 5.258 10.484 9.08 2.437 3.586 3.657 7.888 3.902 12.905-.244 9.561-5.12 16.255-15.361 20.557 7.558 1.194 13.165 4.063 17.313 8.603 4.144 4.302 6.34 9.795 6.34 16.01 0 5.02-1.218 9.561-3.902 13.146-2.683 4.061-6.34 7.172-11.216 9.562-5.119 2.391-11.459 3.585-19.02 3.585h-33.407v-.002"/><path d="m442.41 65.38h-12.191v29.15h9.509c7.315 0 12.679-1.436 15.848-4.062 3.168-2.868 4.877-6.691 4.877-10.992 0-9.32-6.097-14.1-18.04-14.1"/><path d="m443.38 106.96h-13.164v30.348h13.896c7.315 0 12.678-.475 15.848-1.432 2.683-1.195 4.876-2.869 6.581-5.258 1.465-2.628 2.195-5.258 2.439-8.366-.244-3.343-1.22-5.969-2.683-7.884-1.709-2.627-4.145-4.538-7.315-5.495-3.412-1.433-8.777-1.913-15.603-1.913"/><path d="m690.32 32.41h-148.69v139.8h148.69v-139.8m-103.36 117.34v-96.54h25.839c8.288 0 14.382.954 19.01 3.106 4.632 2.152 8.289 5.257 10.483 9.08 2.436 3.585 3.656 7.885 3.9 12.903-.243 9.56-5.118 16.253-15.356 20.553 7.556 1.194 13.162 4.063 17.308 8.602 4.144 4.302 6.338 9.794 6.338 16.01 0 5.02-1.217 9.56-3.9 13.146-2.683 4.06-6.339 7.17-11.212 9.56-5.119 2.389-11.457 3.585-19.01 3.585h-33.398v-.003"/><path d="m613.39 65.4h-12.191v29.15h9.511c7.314 0 12.677-1.436 15.848-4.062 3.168-2.868 4.876-6.691 4.876-10.992 0-9.32-6.097-14.1-18.04-14.1"/><path d="m614.36 106.98h-13.164v30.348h13.896c7.314 0 12.678-.475 15.848-1.433 2.683-1.194 4.876-2.868 6.581-5.258 1.463-2.627 2.196-5.257 2.438-8.365-.243-3.343-1.22-5.97-2.683-7.884-1.708-2.627-4.144-4.537-7.315-5.495-3.41-1.433-8.776-1.913-15.601-1.913"/><g transform="translate(0 1.187)"><path transform="matrix(.95689 0 0 .95689 0 7.425)" d="m323.65 0l14.17 15.655-11.11 19.705-15.06-14.08 12-21.278"/><path d="m212.28 62.53c8.941 17.952 16.11 38.02 13.891 58.38-2.23 20.455-18.807 36.582-37.19 44.06l-17.952-10.828c15.458-10.08 35.844-19.18 40.07-39 2.796-13.11-5.355-24.342-11.662-35.27-.714-1.234-2.185-3.421-2.833-4.652l15.671-12.687"/><path d="m113.57 65.951c.05 6.203.734 11.507 1.585 17.18.741 4.961 2.531 8.242 8.342 8.38 7.368.173 7.739-5.24 8.48-11.01.464-3.605.661-7.295.756-10.778l14.32-3.063c.123 5.644-.387 13.896 2.133 19.467 1.298 2.874 4.259 5.739 7.591 5.753 3.361.013 6.087-2.561 7.128-5.585 1.69-4.904 1.403-12.837 1.243-16.891l15.174-3.385c.579 9.469 1.032 21.544-2.552 31.15-3.037 8.139-9.116 14.798-18.393 14.798-5.599 0-13.751-2.359-18.09-6.124-2.401 1.611-7.531 6.05-16.42 6.05-8.89 0-14.433-3.535-18.309-6.519-12.05 8.85-27.398 4.96-40.803 8.163-3.315.793-4.83 1.437-4.435 4.768.097.821 3.914 2.11 4.833 2.412 6.269 2.07 13.593 1.498 19.531 4.924 5.366 3.098 5.732 9.436 4.311 14.462-2.443 8.635-9.162 15.322-17.249 19.303-9.194 4.524-19.804 4.803-29.853 4.803-7.789 0-16.966.184-24.25-3.059-8.786-3.91-15.491-12.348-17.373-21.795-3.288-16.509.07-33.839 7.195-48.977l12.503 4.061c-1.477 4.72-3.857 10.902-5.127 17.448-1.592 8.222-1.327 18.893 5.153 25.17 5.562 5.386 14.308 7.35 21.879 7.68 8.77.381 19.06-.407 26.22-5.858 1.179-.896 4.953-3.751 4.844-5.22-.062-.833-1.411-.691-2.405-.728-1.103-.043-2.297-.066-3.415-.223-7.299-1.027-14.975-2.02-19.791-8.097-4.737-11.254.651-26.18 12.325-30.953 10.971-4.481 24.19.709 34.614-4.328.566-.272 2.177-.968 2.537-1.477 1.436-2.03 1.386-13.948 1.817-17.917l13.963-3.989"/><path d="m263.35 10.171c-.142 32.627-.818 65.26-.072 97.85.117 5.11.093 11.645 1.626 16.584 1.983 6.378 7.597 7.302 29.07 7.302 7.57 0 19.741.684 26.19-4.846 3.066-2.63 4.979-6.515 4.771-10.564-7.975 1.945-21.605 6.344-27.18-2.671-11.02-17.834-5.554-45.29 7.301-60.52 8.477-8.442 22.513-2.529 27.855 6.768 8.485 14.919 8.875 32.497 8.684 49.18-.142 12.296-.315 20.709-8.126 29.861-4.778 5.598-11.279 9.804-18.328 11.745-6.388 1.758-16.09 1.654-28.436 1.654-11.834 0-17.723.182-23.14-1.683-9.122-3.138-16.34-11.652-16.567-21.475-.602-26.07-.827-52.18-.783-78.26.001-6.01-.616-12.06-.775-18.08-.115-4.393-.345-8.329-.692-12.1l18.6-10.74m47.837 63.58c-5.505 5.262-7.833 15.529-3.455 22.476 2.19 3.473 11.589 1.957 15.618-.177.635-5.771-.255-11.803-1.549-17.525-1.1-4.865-7.153-8.08-10.615-4.773"/></g></g></svg>