<svg xmlns="http://www.w3.org/2000/svg" height="247.1" width="600" viewBox="0 0 158.75 65.379024"><g fill="#100f0d"><path d="m30.533 2.01h13.248v12.466h-13.248zm8.347 1.736l-.177-.03-.074-.009-.306-.034-.208-.017-.371-.009h-.142l-.29.013-.164.013-.237.022-.061.009-.077.013-.082.013-.113.022-.155.03-.872.255-.398.177-.306.16-.272.168-.147.104-.125.091-.242.194-.203.19-.16.177-.16.177-.159.212-.108.164-.074.117-.362.717-.259 1.036-.039.358-.005.281v.212l.022.211.009.047.038.25.018.095.047.207.078.25.112.294.207.441.139.233.112.177.16.216.172.203.208.224.039.035.19.177.155.125.155.126.212.142.25.151.583.276.246.091.26.082.483.117.423.06.449.043.229.013h.108l.778-.034.047-.005.268-.03.393-.06.229-.043.323-.078.225-.06.242-.087.077-.021.147-.057.285-.112.216-.095.199-.099.086-.039v-1.706l-.06.039-.117.074-.341.198-.367.186-.605.25-1.01.272-.104.018-.241.03-.324.021-.182.005-.375-.013-.449-.052-.73-.19-.108-.043-.074-.026-.116-.052-.246-.129-.117-.07-.121-.086-.147-.099-.133-.112-.057-.052-.026-.026-.021-.017-.017-.013-.216-.234-.099-.129-.087-.13-.073-.117-.1-.181-.064-.151-.095-.255-.057-.19-.082-.475-.008-.147v-.281l.03-.363.052-.272.056-.19.065-.19.052-.125.082-.173.073-.134.19-.285.078-.104.116-.13.061-.065 1.023-.712.177-.073.169-.061.185-.056.182-.047.181-.039.199-.03.194-.017.363-.017.121.004.254.004.177.013.303.043.25.039.341.078.173.052.207.065.147.056.25.091.307.138.233.108.173.091.237.125.173.095v-1.671l-.285-.112-.285-.099-.186-.069-.159-.052-.199-.069-.151-.043-.048-.013-.146-.039-.19-.052-.121-.026-.199-.043z"/><path d="m20.355 8.912v2.448h1.671l.22-.022.622-.116.54-.316.151-.185.155-.505.005-.078v-.056l-.03-.246-.182-.367-.065-.069-.146-.125-.294-.164-.484-.143-.28-.039-.182-.013-.168-.004z"/><path d="m20.355 5.181v2.323h.885l.177-.013.592-.091.125-.043.475-.276.207-.319.082-.346.005-.134v-.099l-.1-.423-.172-.22-.303-.203-.673-.147-.242-.009z"/><path d="m15.269 2.01h13.248v12.466h-13.248zm3.476 1.744v8.986h3.381s1.649.039 2.556-.868c.743-.743.691-1.602.691-1.602s.052-.894-.639-1.581c-.583-.579-1.326-.738-1.326-.738l.601-.419c.116-.117.548-.51.548-1.455 0-.95-.635-1.503-.635-1.503s-.695-.82-2.262-.82z"/><path d="m5.086 8.912v2.448h1.675l.224-.022.617-.116.544-.316.143-.185.16-.505.009-.078v-.056l-.039-.246-.181-.367-.065-.069-.138-.125-.294-.164-.484-.143-.281-.039-.186-.013-.164-.004z"/><path d="m5.086 5.181v2.323h.889l.173-.013.6-.091.125-.043.466-.276.212-.319.078-.346.013-.134v-.099l-.108-.423-.16-.22-.311-.203-.678-.147-.237-.009z"/><path d="m0 2.01h13.252v12.466h-13.252zm3.476 1.744v8.986h3.381s1.645.039 2.561-.868c.738-.743.687-1.602.687-1.602s.051-.894-.639-1.581c-.583-.579-1.326-.738-1.326-.738l.596-.419c.121-.117.553-.51.553-1.455 0-.95-.635-1.503-.635-1.503s-.695-.82-2.258-.82z"/><path d="m1.481 18.842h.954c1.433 0 2.01.587 2.025 1.554.013.864-.44 1.676-2.025 1.676h-.954zm-1.481-1.274v10.307h1.481v-4.469h.618c.764 0 1.373.242 2.738 2.357l1.364 2.112h1.766c-.712-.976-.967-1.326-1.408-2.042-.786-1.279-1.36-2.229-2.297-2.846 1.101-.44 1.723-1.334 1.723-2.53 0-1.784-1.295-2.889-3.385-2.889z"/><path d="m12.806 19.781l1.667 3.727h-3.208zm.544-2.271h-1.044l-4.426 10.368h1.511l1.304-3.03h4.378l1.373 3.03h1.512z"/><path d="m20.673 18.904h2.276c2.888 0 4.205 1.749 4.205 3.821 0 1.274-.773 3.822-4.123 3.822h-2.358zm-1.485 8.973h4.02c3.398 0 5.462-2.505 5.462-5.152 0-2.435-1.671-5.155-5.479-5.155h-4.01z"/><path d="m30.391 27.878h1.476v-10.307h-1.476z"/><path d="m35.1 22.726c0-2.267 1.71-3.925 4.01-3.925 2.314 0 4.02 1.658 4.02 3.925 0 2.249-1.71 3.929-4.02 3.929-2.297 0-4.01-1.68-4.01-3.929m-1.525 0c0 2.793 2.129 5.289 5.497 5.289 3.494 0 5.583-2.509 5.583-5.289 0-2.872-2.146-5.286-5.548-5.286-3.342 0-5.532 2.436-5.532 5.286"/></g><g fill="#377a83"><path d="m129.39 43.09c-.02.57-.04 1.093-.71 1.503-.47.259-.89.259-1.07.259-.63 0-1.06-.285-1.24-.522-.24-.328-.24-.795-.24-1.257v-6.568h-3.14v6.65c0 1.723.1 2.345.65 3.113.73 1.015 2 1.119 2.69 1.119s1.38-.169 2-.488c.57-.281.76-.479 1.06-.833v1.014h3.12v-10.575h-3.12z"/><path d="m139.09 40.17c-1.01-.181-1.69-.302-1.69-.911 0-.302.29-.79 1.51-.79.72 0 1.66.285 2.65 1.054l1.92-1.779c-.73-.514-2.22-1.585-4.72-1.585-2.95 0-4.45 1.801-4.45 3.545 0 .79.33 1.52.79 1.982.46.471 1.12.734 1.76.92.47.138.95.237 1.42.319.6.104 1.33.164 1.8.406l.4.605c0 .79-1.13 1.032-1.88 1.032-1.17 0-2.22-.626-3.08-1.46l-1.96 1.784c.67.634 2.19 2.051 5.13 2.051 2.49 0 5-1.218 5-3.705 0-2.518-2.48-3.083-4.6-3.468"/><path d="m144.56 47.08h3.09v-10.596h-3.09z"/><path d="m144.56 35.17h3.09v-2.409h-3.09z"/><path d="m155.94 44.22c-.65.726-1.42.726-1.58.726-1.66 0-2.35-1.762-2.35-3.157 0-1.274.57-3.204 2.24-3.204.49 0 .88.164 1.18.367.51.367.71.726.89 1.114l2.31-1.317c-1.34-2.21-3.34-2.53-4.52-2.53-3.52 0-5.3 2.591-5.3 5.67 0 4.313 3.22 5.531 5.24 5.531 1.2 0 2.23-.389 3.04-.95.85-.613 1.28-1.278 1.66-1.887l-2.34-1.218z"/><path d="m115.37 38.04c-.56-.587-.67-1.8-2.78-1.8-1.82 0-2.64.95-3 1.377v-1.092h-3.08v10.553h3.08v-6.02c0-.73.02-1.577.71-2.043l.85-.242c.51 0 .97.225 1.21.544.29.406.31 1.037.31 1.499v6.261h3.08v-5.756c0-1.153 0-1.757.58-2.224l1.02-.324c.23 0 1.07.061 1.35.95.12.402.12 1.196.12 1.805v5.549h3.08v-6.887c0-1.132-.001-1.861-.28-2.431-.33-.648-1.22-1.49-2.96-1.52-2.24-.035-2.68 1.291-3.29 1.8"/><path d="m86.21 65.38c11.322 0 21.687-5.752 27.717-15.376l.001-.005v-.008l.04-.16-.14-.264-.43.095c-5.4 8.498-16.08 13.991-27.2 13.991-17.07 0-30.969-13.887-30.969-30.96 0-16.13 12.393-29.406 28.15-30.831l-14.353 24.872c-4.322 8.718-1.2 19.396 7.341 24.332 8.895 5.13 20.251 2.085 25.389-6.801 5.13-8.891 2.09-20.26-6.8-25.394-2.729-1.572-5.687-2.367-8.623-2.47l7.867-13.645c13.416 3.489 23.906 15.549 23.906 29.85l.31.311.31-.311v-.185c0-18.18-14.6-32.42-32.527-32.42-18.03 0-32.692 14.664-32.692 32.692 0 18.02 14.664 32.687 32.692 32.687m3.441-37.3c3.809 2.198 5.109 7.06 2.919 10.868-2.202 3.809-7.07 5.117-10.872 2.91-3.809-2.189-5.117-7.06-2.915-10.864 2.194-3.808 7.06-5.112 10.868-2.914"/></g></svg>