<svg xmlns="http://www.w3.org/2000/svg" height="329.97" width="600" viewBox="0 0 158.75 87.305314"><g fill="#100f0d"><path d="m40.783 2.69h17.694v16.654h-17.694zm11.151 2.322l-.242-.043-.091-.011-.407-.048-.285-.021-.493-.016-.188.005-.391.011-.215.021-.316.032-.086.011-.102.016-.113.021-.145.021-.214.043-1.159.343-.531.231-.412.22-.365.231-.199.129-.155.118-.327.274-.269.247-.214.231-.215.247-.209.279-.155.215-.097.155-.477.96c-.166.434-.29.896-.354 1.389l-.043.472-.011.376.006.284.026.284.006.065.059.332.021.134.059.263.107.338.145.397.279.584.183.317.155.231.209.289.236.274.279.3.043.048.257.236.204.167.215.16.273.199.344.193.777.375.327.118.349.113.638.15.569.086.595.059.311.011h.14l1.04-.043.059-.005.37-.043.521-.075.305-.059.435-.108.3-.086.322-.101.102-.033.198-.08.381-.156.284-.123.268-.123.118-.059v-2.274l-.085.053-.156.091-.45.269-.494.246-.81.344c-.493.171-.949.284-1.346.354l-.139.021-.322.043-.429.032-.252.005-.494-.016-.601-.069-.981-.258-.139-.053-.097-.038-.156-.07-.332-.171-.161-.097-.156-.107-.187-.14-.188-.15-.075-.064-.038-.038-.016-.021-.032-.022-.284-.305-.134-.177-.113-.167-.102-.16-.128-.242-.092-.198-.123-.344-.08-.257-.102-.633-.016-.198-.006-.231v-.139l.048-.483.065-.365.07-.257.091-.252.069-.166.108-.231.102-.177.252-.386.107-.134.15-.177.086-.086 1.368-.949.23-.091.231-.086.252-.075.236-.07.247-.048.257-.032.263-.027.483-.027.161.005.343.005.236.021.407.048.333.054.45.113.236.064.279.086.199.07.327.129.413.177.311.155.231.113.316.172.231.123v-2.231l-.381-.145-.376-.139-.252-.086-.22-.075-.262-.091-.204-.054-.059-.021-.199-.054-.252-.07-.155-.032-.274-.059z"/><path d="m27.19 11.899v3.272h2.124l.107-.005.301-.011.826-.172.724-.413.193-.241.22-.676.005-.113v-.075l-.043-.321-.247-.499-.085-.091-.193-.172-.392-.215-.654-.187-.36-.054-.252-.016-.225-.011z"/><path d="m27.19 6.923v3.106h1.025l.155-.005.241-.017.784-.117.176-.054.633-.37.274-.429.113-.467.005-.177v-.134l-.145-.563-.214-.295-.408-.274-.896-.193-.327-.011z"/><path d="m20.397 2.69h17.694v16.654h-17.694zm4.645 2.333v11.998h4.51s2.205.059 3.422-1.153c.987-.992.917-2.14.917-2.14s.07-1.191-.847-2.113c-.783-.772-1.775-.987-1.775-.987l.799-.552c.155-.167.735-.687.735-1.947 0-1.271-.848-2.01-.848-2.01s-.933-1.099-3.02-1.099z"/><path d="m6.795 11.899v3.272h2.129l.113-.005.295-.011.82-.172.73-.413.193-.241.214-.676.006-.113v-.075l-.038-.321-.257-.499-.075-.091-.193-.172-.392-.215-.644-.187-.37-.054-.252-.016-.225-.011z"/><path d="m6.795 6.923v3.106h1.035l.15-.005.236-.017.794-.117.177-.054.611-.37.29-.429.113-.467.005-.177v-.134l-.145-.563-.214-.295-.408-.274-.906-.193-.316-.011z"/><path d="m0 2.69h17.699v16.654h-17.699zm4.645 2.333v11.998h4.516s2.204.059 3.416-1.153c.992-.992.917-2.14.917-2.14s.075-1.191-.842-2.113c-.783-.772-1.775-.987-1.775-.987l.794-.552c.166-.167.735-.687.735-1.947 0-1.271-.848-2.01-.848-2.01s-.922-1.099-3.01-1.099z"/><path d="m1.98 25.17h1.276c1.915 0 2.687.789 2.703 2.081.016 1.153-.59 2.242-2.703 2.242h-1.276zm-1.979-1.695v13.768h1.979v-5.975h.826c1.014 0 1.834.322 3.658 3.149l1.818 2.826h2.36c-.95-1.308-1.293-1.775-1.888-2.724-1.046-1.711-1.808-2.982-3.057-3.814 1.47-.584 2.301-1.775 2.301-3.373 0-2.382-1.738-3.857-4.521-3.857z"/><path d="m17.11 26.419l2.221 4.988h-4.286zm.724-3.02h-1.394l-5.916 13.843h2.02l1.738-4.055h5.851l1.84 4.055h2.02z"/><path d="m27.611 25.25h3.041c3.861 0 5.621 2.344 5.621 5.106 0 1.7-1.036 5.111-5.509 5.111h-3.153zm-1.979 11.992h5.368c4.543 0 7.305-3.346 7.305-6.886 0-3.25-2.236-6.882-7.321-6.882h-5.352z"/><path d="m40.585 37.24h1.974v-13.768h-1.974z"/><path d="m46.883 30.357c0-3.02 2.285-5.24 5.353-5.24 3.089 0 5.368 2.215 5.368 5.24 0 3.01-2.279 5.251-5.368 5.251-3.068 0-5.353-2.242-5.353-5.251m-2.038 0c0 3.733 2.848 7.06 7.348 7.06 4.666 0 7.45-3.347 7.45-7.06 0-3.835-2.865-7.07-7.407-7.07-4.463 0-7.391 3.255-7.391 7.07"/></g><g fill="#1e2f57"><path d="m138.8 60.998h-8.88l.03 11.236-15.9.022-.02-10.11s-.02-1.121-1.35-1.164l-22.737.016v-9.327c.011-1.362.681-3.363 1.491-4.452l24.306-32.604c.82-1.083 2.59-1.973 3.95-1.968h10.26l-.02 35.26 8.88-.021zm-23.68-60.998c-24.1 0-43.627 19.544-43.627 43.653 0 24.11 19.528 43.652 43.627 43.652 24.1 0 43.63-19.539 43.63-43.652 0-24.11-19.53-43.653-43.63-43.653"/><path d="m115.39 38.06c-3.45.07-6.2 2.939-6.13 6.388.08 2.993 2.32 5.454 5.25 5.98l2.24.402c-.58 3.975-2.07 6.957-5.41 9.413 4.51-1.995 7.97-6.323 9.57-10.893 1.6-4.586.69-11.419-5.52-11.29"/></g></svg>