<svg xmlns="http://www.w3.org/2000/svg" height="250.05" width="600" viewBox="0 0 158.75 66.160021"><path d="m0 0h.64v-.923h-.64v-3.381h-1.078v3.381h-.552v.923h.552v1.59h1.078zm5.267-3.428c-.672 0-1.159.543-1.159 1.28 0 .705.446 1.273 1.159 1.273.682 0 1.183-.511 1.183-1.265 0-.785-.518-1.288-1.183-1.288m1.135 3.428v-.469c-.389.388-.836.583-1.354.583-1.118 0-2.027-.923-2.027-2.269 0-1.322.957-2.262 2.052-2.262.542 0 .948.194 1.329.567v-.454h1.078v4.304zm-3.081 0l-.333-.923c-.081.04-.202.089-.316.089-.307 0-.551-.357-.575-.99-.008-.234-.008-.502-.008-.737v-1.743h-1.078v4.304h.932v-.542c.203.445.551.656.906.656.228 0 .367-.065.472-.114m-11.215-8.855h-2.736v7.437h-1.17l1.615 2.997h2.291zm3.71 6.09c-.332-.509-1.013-1.551-1.013-1.551h-1.951s1.779 2.711 1.993 3.037c-.213.323-1.885 2.863-1.885 2.863h1.945s.598-.91.911-1.386c.222.338.588.893.781 1.188-1.425 1.676-3.548 2.743-5.92 2.743-4.29 0-7.769-3.48-7.769-7.772 0-4.293 3.479-7.773 7.769-7.773 4.064 0 7.396 3.122 7.737 7.1h-1.585s-.68 1.042-1.013 1.551m1.763 2.688c.552-1.069.866-2.28.866-3.566l-.004-.166c-.523.8-1.498 2.293-1.653 2.529.088.134.424.646.791 1.203m-18.1-2.133c-.546 0-.953.398-.953.934 0 .539.407.935.953.935.55 0 .956-.396.956-.935 0-.536-.406-.934-.956-.934m0 2.191c-.795 0-1.316-.578-1.316-1.257 0-.665.507-1.258 1.308-1.258.83 0 1.327.596 1.327 1.258 0 .682-.51 1.257-1.319 1.257m-2.075-.031h.352v-2.452h-.352zm-1.748-2.136h-.561v1.819h.541c.687 0 1-.417 1-.909 0-.302-.183-.91-.98-.91m.039 2.136h-.953v-2.451h.956c.809 0 1.301.596 1.301 1.225 0 .578-.399 1.226-1.304 1.226m-3.623-2.451h-.02l.008.017zh-.02l.008.017zm.786 1.039l.367.887.395-.887zm.247 1.426l-1.045-2.448.012-.017h-.02.36l.309.721h1.042l.327-.721h.359l-1.096 2.465zm-2.347-1.085h-.227v.769h.227c.34 0 .478-.14.481-.37.003-.205-.104-.399-.481-.399m.98-.895c-.187.305-.323.531-.546.678.262.105.41.317.41.601 0 .424-.309.687-.805.687h-.618v-2.451h.352v1.063h.147c.181 0 .326-.057.651-.56l.323-.503h.4l.008.017c-.159.219-.22.303-.322.468m.68 3.32c-.216-.217-.608-.206-.608-.206h-.805v2.136h.694c.373 0 .537-.195.537-.195s.151-.13.151-.357c0-.225-.102-.318-.13-.347l-.142-.098s.177-.038.315-.177c.164-.164.151-.375.151-.375s.013-.204-.163-.381m.912 2.346h-3.15v-2.966h3.15zm-1.758-1.306h-.184v.553h.253l.057-.003.161-.034.072-.049.038-.052.027-.1v-.024l-.002-.031-.019-.084-.051-.076-.11-.065h-.031l-.142-.022-.042-.003zm.609-.556l.009-.056v-.015l-.002-.018-.038-.121-.034-.042-.129-.076-.148-.028-.053-.003h-.019-.379v.582h.406l.044-.005.066-.009.115-.034.07-.039.034-.03.014-.015zm3.868-.484c-.217-.217-.61-.206-.61-.206h-.803v2.136h.693c.373 0 .539-.195.539-.195s.15-.13.15-.357c0-.225-.102-.318-.131-.347l-.141-.098s.176-.038.316-.177c.163-.164.151-.375.151-.375s.012-.204-.164-.381m.911 2.346h-3.151v-2.966h3.151zm-1.758-1.306h-.183v.553h.252l.058-.003.16-.034.072-.049.04-.052.024-.1v-.024-.031l-.02-.084-.05-.076-.111-.065h-.03l-.142-.022-.042-.003zm.611-.556l.007-.056v-.015-.018l-.039-.121-.034-.042-.129-.076-.147-.028-.053-.003h-.02-.378v.582h.406l.043-.005.066-.009.115-.034.07-.039.034-.03.016-.015zm4.153-.523h-.021l-.047-.023-.051-.021-.067-.029-.036-.013-.018-.005-.058-.019-.054-.015-.077-.019-.054-.011-.093-.013-.065-.008h-.011l-.185-.008h-.025l-.055.004-.106.008-.102.016-.114.027-.062.02-.058.021-.139.066-.06.036-.05.035-.037.028-.037.03-.046.042-.007.008-.05.054-.042.049-.037.051-.027.041-.033.057-.05.104-.026.07-.019.06-.0001.048-.005.024-.009.058v.013l-.006.05v.05l.003.067.008.085.062.247.086.171.017.027.027.039.037.049.038.043.039.042.047.044.059.048.028.021.035.025.065.039.073.039.094.042.207.061.038.007.026.004.021.005.018.002.015.002.056.006.038.002.07.004h.033l.087-.003.051-.003.073-.008.017-.002.043-.009.049-.008.047-.011.029-.006.046-.012h.034l.0001-.002.038-.011.045-.016.039-.012.045-.017.067-.024.067-.026v-.397l-.041.022-.056.03-.04.022-.055.025-.075.032-.058.024-.035.011-.05.016-.041.012-.08.019h-.06l-.072.009-.043.004h-.06-.029l-.087-.005-.046-.004-.046-.007-.043-.009-.043-.011-.045-.014-.041-.015-.041-.017-.243-.169-.015-.015-.028-.031-.019-.025-.045-.068-.017-.032-.02-.041-.012-.028-.016-.045-.012-.047-.012-.065-.009-.086v-.025-.041l.003-.035.019-.113.013-.045.022-.061.016-.036.024-.043.018-.028.02-.031.024-.03.05-.055.005-.004.004-.005.007-.006.013-.012.033-.025.033-.026.029-.019.028-.017.06-.031.027-.013.016-.005h.027l.173-.046.108-.013.088-.003h.044l.077.006.058.008.024.004.24.064.144.059.088.045.081.048.028.017.014.008zm.625 2.385h-3.152v-2.966h3.152z" fill="#100f0d" transform="matrix(4.256 0 0-4.256 126.91 17.573)"/></svg>