<svg xmlns="http://www.w3.org/2000/svg" height="329.97" width="600" viewBox="0 0 158.75 87.304402"><g fill="#fff"><path d="m40.781 2.687h17.699v16.656h-17.699zm11.152 2.318l-.238-.042-.096-.011-.407-.048-.286-.021-.487-.016-.191.005-.391.016-.217.016-.312.032-.085.011-.101.016-.111.021-.153.026-.212.037-1.159.344-.535.233-.402.222-.365.222-.201.138-.159.122-.328.259-.27.254-.212.233-.217.243-.212.275-.148.222-.095.148-.487.969c-.159.429-.281.895-.349 1.381l-.037.476-.016.371.005.286.032.285v.064l.058.333.021.133.064.27.1.333.148.397.276.582.19.318.154.233.206.286.238.275.275.296.048.048.254.233.207.174.211.159.276.196.344.201.778.371.328.116.344.111.64.154.572.084.598.059.307.016h.143l1.032-.048.063-.005.371-.037.519-.08.307-.058.434-.106.301-.085.323-.106.101-.037.196-.068.386-.159.28-.122.27-.127.117-.053v-2.281l-.085.053-.153.09-.456.27-.492.249-.81.333c-.492.18-.947.286-1.344.365l-.143.021-.323.043-.428.031-.249.006-.492-.016-.604-.069-.979-.259-.143-.053-.095-.037-.154-.069-.338-.169-.154-.101-.159-.111-.19-.132-.185-.149-.075-.068-.037-.037-.021-.022-.031-.026-.281-.307-.138-.175-.111-.164-.1-.164-.133-.238-.084-.201-.133-.339-.074-.259-.106-.635-.016-.196v-.376l.043-.482.074-.36.064-.259.095-.254.068-.164.106-.233.101-.175.254-.381.106-.143.148-.175.085-.085c.423-.413.884-.731 1.371-.947l.227-.095.233-.085.249-.079.243-.058.239-.053.264-.037.259-.026.487-.026.159.005.339.005.238.027.408.048.338.058.445.106.238.069.281.085.195.069.329.127.412.18.313.148.233.117.312.169.227.132v-2.239l-.375-.148-.381-.132-.249-.09-.217-.069-.265-.09-.201-.058-.058-.021-.201-.048-.249-.074-.164-.032-.265-.058z"/><path d="m27.18 11.899v3.266h2.128l.105-.005.307-.011.826-.169.72-.419.196-.238.217-.683.005-.1v-.085l-.048-.312-.243-.508-.09-.09-.185-.159-.392-.222-.651-.196-.37-.048-.244-.016-.222-.005z"/><path d="m27.18 6.921v3.097h1.186l.232-.016.8-.117.174-.058.625-.37.28-.429.111-.466v-.307l-.142-.566-.217-.291-.403-.265-.899-.201-.329-.011z"/><path d="m20.388 2.687h17.699v16.656h-17.699zm4.642 2.329v11.999h4.514s2.213.063 3.419-1.154c.985-.99.921-2.133.921-2.133s.064-1.196-.846-2.117c-.784-.778-1.774-.99-1.774-.99l.794-.551c.164-.164.736-.688.736-1.947 0-1.276-.847-2.01-.847-2.01s-.931-1.101-3.02-1.101z"/><path d="m6.791 11.899v3.266h2.128l.106-.005.302-.011.821-.169.73-.419.191-.238.217-.683.005-.1v-.085l-.048-.312-.243-.508-.079-.09-.191-.159-.392-.222-.645-.196-.376-.048-.243-.016-.227-.005z"/><path d="m6.791 6.921v3.097h1.191l.228-.016.804-.117.169-.058.619-.37.286-.429.105-.466.011-.18v-.127l-.143-.566-.217-.291-.413-.265-.905-.201-.318-.011z"/><path d="m0 2.687h17.699v16.656h-17.699zm4.642 2.329v11.999h4.52s2.196.063 3.414-1.154c.989-.99.915-2.133.915-2.133s.074-1.196-.841-2.117c-.784-.778-1.779-.99-1.779-.99l.794-.551c.164-.164.741-.688.741-1.947 0-1.276-.847-2.01-.847-2.01s-.926-1.101-3.02-1.101z"/><path d="m1.975 25.16h1.276c1.916 0 2.683.783 2.705 2.08.016 1.154-.593 2.239-2.705 2.239h-1.276zm-1.974-1.699v13.766h1.974v-5.975h.826c1.016 0 1.837.323 3.657 3.154l1.821 2.821h2.361c-.953-1.302-1.291-1.773-1.884-2.725-1.048-1.71-1.81-2.985-3.064-3.806 1.471-.593 2.302-1.784 2.302-3.377 0-2.381-1.736-3.858-4.52-3.858z"/><path d="m17.1 26.416l2.229 4.986h-4.282zm.726-3.03h-1.392l-5.912 13.84h2.02l1.741-4.049h5.854l1.837 4.049h2.02z"/><path d="m27.613 25.25h3.038c3.858 0 5.616 2.34 5.616 5.103 0 1.699-1.032 5.107-5.51 5.107h-3.144zm-1.985 11.983h5.367c4.547 0 7.304-3.345 7.304-6.88 0-3.25-2.233-6.881-7.32-6.881h-5.351z"/><path d="m40.58 37.23h1.979v-13.766h-1.979z"/><path d="m46.88 30.351c0-3.03 2.281-5.245 5.351-5.245 3.091 0 5.372 2.218 5.372 5.245 0 3.01-2.281 5.251-5.372 5.251-3.07 0-5.351-2.244-5.351-5.251m-2.038 0c0 3.737 2.848 7.07 7.347 7.07 4.663 0 7.452-3.355 7.452-7.07 0-3.832-2.869-7.07-7.41-7.07-4.462 0-7.389 3.249-7.389 7.07"/></g><path d="m136.29 23.08c-3.74 0-3.75-5.711 0-5.711 3.66 0 3.65 5.711 0 5.711m0 9.68c-3.74 0-3.75-5.716 0-5.716 3.66 0 3.65 5.716 0 5.716m-4.69 37.611c-8.02 6.187-23.51 7.394-31.812 1.349-3.482-2.535-6.451-5.536-6.346-9.649.297-10.95 18.628-6.298 14.218 1.932-1.8 2.885-6.17 2.88-9.01 1.805 4.92 7.145 18.23 6.971 23.84.709 2.83-3.144 3.16-7.325 2.81-11.432-.42-4.938-2.8-8.04-5.8-11.644 1.85-1.323 2.95-2.059 4.72-3.493 12.97 3.138 20.13 20.594 7.38 30.423m-25.98-55.855c8.62-4.88 24.8-1.662 25.38 10.125.51 10.374-12.31 17.376-20.02 21.605l-2.01-1.995c6.91-5.23 14.65-14.566 11.23-23.839-2.36-6.383-12.95-6.251-15.72-.291 2.64-.916 6.42-1.059 8.46 1.238 2.12 2.409.87 6.166-1.78 7.537-4.16 2.133-11.446.313-11.784-5.091-.112-4.071 2.724-7.537 6.244-9.289m9.5-14.513c-24.1 0-43.632 19.541-43.632 43.65 0 24.11 19.536 43.654 43.632 43.654 24.09 0 43.63-19.546 43.63-43.654 0-24.11-19.54-43.65-43.63-43.65" fill="#e8232d"/></svg>