<svg xmlns="http://www.w3.org/2000/svg" height="329.99" width="600" viewBox="0 0 158.75 87.308714"><defs><clipPath id="0"><path d="m0 0h419.53v595.28h-419.53z"/></clipPath></defs><g fill="#fff"><path d="m40.786 2.688h17.696v16.653h-17.696zm11.148 2.321l-.242-.042-.089-.011-.416-.047-.279-.021-.49-.016h-.189l-.395.021-.216.016-.31.037-.09.011-.094.011-.116.021-.153.026-.2.037-1.168.347-.532.237-.41.221-.364.216-.194.142-.164.116-.321.263-.279.253-.21.232-.216.242-.211.279-.147.216-.095.158-.484.963c-.163.432-.284.9-.347 1.379l-.048.479-.015.373.005.285.031.284.006.068.052.332.027.131.063.269.105.337.147.394.274.585.184.315.153.232.216.284.231.279.274.3.053.048.258.231.194.169.221.163.274.189.342.205.774.374.332.116.342.111.647.157.563.079.6.058.306.011h.147l1.037-.042.058-.006.368-.042.521-.073.305-.058.437-.106.3-.089.321-.1.106-.037.194-.074.385-.157.279-.122.268-.126.121-.058v-2.273l-.084.047-.153.095-.458.268-.489.247-.811.337c-.494.179-.947.29-1.347.363l-.142.022-.321.036-.432.037-.247.005-.49-.015-.605-.074-.974-.253-.147-.058-.1-.036-.153-.064-.331-.173-.158-.095-.158-.116-.195-.137-.184-.147-.069-.068-.036-.032-.027-.021-.026-.026-.284-.306-.137-.173-.111-.174-.1-.158-.137-.237-.084-.205-.126-.337-.079-.258-.1-.631-.016-.2-.005-.232v-.142l.042-.479.069-.369.078-.257.085-.247.068-.168.111-.232.1-.174.252-.389.106-.132.152-.179.079-.089c.421-.411.89-.726 1.374-.942l.226-.1.232-.084.247-.074.248-.063.242-.047.258-.042.263-.026.484-.026h.163l.337.016.232.021.415.047.332.058.447.105.237.069.279.089.2.069.326.126.411.179.316.147.226.116.316.168.231.132v-2.232l-.378-.147-.374-.137-.258-.09-.216-.074-.263-.09-.205-.058-.058-.016-.195-.058-.253-.063-.157-.032-.269-.063z"/><path d="m0 0v-.621h.404.021l.057.003.157.031.139.08.036.046.04.128v.021.014l-.007.06-.049.097-.014.017-.036.03-.076.044-.121.035-.072.0001-.046.003h-.044z" transform="matrix(5.2634 0 0-5.2634 27.18 11.904)"/><path d="m0 0v-.589h.227l.043.003.151.024.033.0001.118.07.054.081.021.09v.032.025l-.028.108-.04.055-.078.052-.171.037-.062.002z" transform="matrix(5.2634 0 0-5.2634 27.18 6.925)"/><g clip-path="url(#0)" transform="matrix(5.2634 0 0-5.2634-841.6 2552.2)"><path d="m163.77 484.38h3.37v-3.16h-3.37zm.88-.44v-2.28h.86s.42-.001.65.22c.19.19.18.41.18.41s.001.22-.16.4c-.15.15-.34.19-.34.19l.15.1c.03.03.14.13.14.37s-.16.38-.16.38-.18.21-.58.21z"/></g><path d="m0 0v-.621h.405.022l.055.003.157.031.139.08.036.046.04.128.003.021v.014l-.009.06-.049.097-.014.017-.035.03-.077.044-.121.035-.071.0001-.047.003h-.042z" transform="matrix(5.2634 0 0-5.2634 6.792 11.904)"/><path d="m0 0v-.589h.227l.043.003.151.024.033.0001.118.07.055.081.02.09v.032.025l-.027.108-.04.055-.079.052-.17.037-.062.002z" transform="matrix(5.2634 0 0-5.2634 6.792 6.925)"/><g clip-path="url(#0)" transform="matrix(5.2634 0 0-5.2634-841.6 2552.2)"><path d="m159.9 484.38h3.36v-3.16h-3.36zm.88-.44v-2.28h.86s.42-.001.65.22c.19.19.17.41.17.41s.02.22-.16.4c-.15.15-.34.19-.34.19l.15.1c.03.03.15.13.15.37s-.17.38-.17.38-.17.21-.57.21z"/><path d="m0 0h.243c.363 0 .509-.15.512-.396.005-.218-.11-.425-.512-.425h-.243zm-.376.323v-2.617h.376v1.136h.157c.193 0 .349-.062.695-.599l.346-.537h.447c-.18.249-.245.338-.357.519-.199.325-.344.567-.582.724.28.112.438.337.438.641 0 .452-.33.733-.859.733z" transform="translate(160.27 480.11)"/></g><path d="m0 0l.422-.947h-.814zm.137.575h-.265l-1.124-2.631h.384l.33.77h1.113l.349-.77h.383z" transform="matrix(5.2634 0 0-5.2634 17.11 26.418)"/><g clip-path="url(#0)" transform="matrix(5.2634 0 0-5.2634-841.6 2552.2)"><path d="m0 0h.578c.733 0 1.067-.446 1.067-.971 0-.321-.196-.97-1.046-.97h-.599zm-.376-2.278h1.02c.863 0 1.388.637 1.388 1.307 0 .618-.425 1.309-1.391 1.309h-1.017z" transform="translate(165.14 480.1)"/></g><path d="m40.592 37.24h1.979v-13.764h-1.979z"/><path d="m0 0c0 .576.433.997 1.017.997.587 0 1.02-.421 1.02-.997 0-.571-.433-.997-1.02-.997-.584 0-1.017.426-1.017.997m-.388 0c0-.71.542-1.342 1.397-1.342.886 0 1.415.637 1.415 1.342 0 .728-.544 1.342-1.407 1.342-.848 0-1.405-.617-1.405-1.342" transform="matrix(5.2634 0 0-5.2634 46.886 30.358)"/></g><path d="m0 0h-9.154l4.725 5.547c.673.76 1.038 1.277 1.038 1.829 0 .498-.341 1.034-.891 1.034-.659 0-.991-.652-1.017-1.114l-.023-.437h-3.03l.025.487c.045.854.189 1.323.59 1.934.813 1.235 1.951 1.837 3.481 1.837 2.576 0 4.177-1.359 4.177-3.548 0-.923-.318-1.669-1.05-2.48l-1.88-2.147h3.01zm-4.45 13.474c-4.578 0-8.289-3.713-8.289-8.294s3.711-8.294 8.289-8.294c4.579 0 8.29 3.713 8.29 8.294s-3.711 8.294-8.29 8.294" fill="#f46b17" transform="matrix(5.2634 0 0-5.2634 138.54 70.919)"/></svg>