<svg xmlns="http://www.w3.org/2000/svg" viewBox="0 0 744 300"><g transform="translate(-3-536.36)"><path d="m18.741 761.11h-3.633v26.698h4.601c6.141 0 10.347-.533 12.618-1.58 2.291-1.047 4.068-2.626 5.332-4.739 1.264-2.133 1.915-4.542 1.915-7.247 0-2.666-.711-5.075-2.133-7.227-1.402-2.152-3.396-3.693-5.964-4.581-2.547-.889-6.813-1.323-12.737-1.323m-15.738 74.29v-84.58h21.19c8.55 0 15.343 2.113 20.359 6.358 5.04 4.226 7.543 9.952 7.543 17.18 0 4.937-1.224 9.182-3.693 12.776-2.449 3.594-5.983 6.279-10.584 8.06 2.705 1.777 5.351 4.206 7.918 7.267 2.587 3.061 6.22 8.412 10.9 16.03 2.942 4.798 5.312 8.412 7.089 10.841l4.483 6.06h-14.415l-3.693-5.588c-.118-.197-.355-.533-.711-1.027l-2.37-3.337-3.752-6.161-4.048-6.615c-2.488-3.475-4.779-6.24-6.872-8.274-2.073-2.073-3.949-3.554-5.628-4.443-1.678-.908-4.502-1.363-8.452-1.363h-3.159v36.808z"/><path d="m77.53 750.81h47.945v10.782h-35.841v25.789h34.636v10.841h-34.636v26.26h36.986v10.782h-49.09z"/><path d="m166.88 761.59h-15.13v62.894h15.482c6.06 0 10.762-.415 14.12-1.244 3.337-.81 6.141-1.876 8.373-3.14 2.251-1.264 4.285-2.824 6.141-4.7 5.983-6.04 8.965-13.685 8.965-22.926 0-9.08-3.061-16.489-9.202-22.23-2.251-2.133-4.858-3.89-7.78-5.253-2.923-1.382-5.707-2.291-8.313-2.725-2.626-.454-6.852-.671-12.658-.671m-27.25 73.68v-84.46h28.514c11.512 0 20.616 1.738 27.31 5.193 6.694 3.436 12.03 8.511 15.975 15.205 3.969 6.714 5.944 14.02 5.944 21.919 0 5.648-1.086 11.06-3.278 16.232-2.172 5.174-5.292 9.696-9.321 13.625-4.107 4.03-8.906 7.07-14.356 9.143-3.179 1.244-6.102 2.073-8.768 2.508-2.666.415-7.741.632-15.264.632z"/><path d="m290.37 797.79h-11.315v26.816h11.927c6.615 0 11.1-.513 13.467-1.54 2.35-1.027 4.246-2.646 5.687-4.818 1.422-2.172 2.152-4.522 2.152-7.03 0-2.567-.77-4.937-2.271-7.07-1.521-2.152-3.673-3.732-6.457-4.779-2.784-1.066-7.168-1.58-13.191-1.58m-.908-36.2h-10.407v25.414h8.04c6.457 0 11.06-1.224 13.783-3.693 2.725-2.468 4.088-5.648 4.088-9.557 0-8.116-5.174-12.164-15.501-12.164m6.122 73.79h-28.633v-84.58h22.16c6.971 0 12.421.948 16.331 2.824 3.93 1.856 6.911 4.463 8.965 7.741 2.054 3.298 3.081 7.089 3.081 11.414 0 8.313-4.285 14.257-12.895 17.851 6.181 1.165 11.1 3.712 14.751 7.622 3.653 3.93 5.47 8.61 5.47 14.06 0 4.305-1.106 8.175-3.317 11.552-2.231 3.396-5.49 6.161-9.775 8.294-4.305 2.133-9.676 3.219-16.13 3.219"/><path d="m395.59 750.81h12.164v48c0 6.497-.474 11.414-1.422 14.711-.948 3.317-2.113 6.06-3.515 8.274-1.382 2.192-3.1 4.167-5.114 5.885-6.694 5.786-15.462 8.669-26.26 8.669-11.02 0-19.865-2.863-26.52-8.59-2.01-1.777-3.712-3.772-5.114-5.964-1.402-2.212-2.547-4.897-3.456-8.096-.908-3.179-1.363-8.175-1.363-15.01v-47.886h12.164v48c0 7.958.908 13.487 2.725 16.587 1.817 3.12 4.581 5.608 8.294 7.484 3.712 1.876 8.096 2.804 13.151 2.804 7.188 0 13.03-1.876 17.555-5.628 2.37-2.01 4.088-4.384 5.134-7.148 1.047-2.725 1.58-7.445 1.58-14.1z"/><path d="m417.32 750.69h70.65v10.782h-29.482v73.912h-12.164v-73.912h-29.01z"/><path d="m492.2 750.69h70.65v10.782h-29.482v73.912h-12.164v-73.912h-29.01z"/><path d="m608.23 761.11c-9.676 0-17.634 3.02-23.854 9.08-6.24 6.04-9.36 13.783-9.36 23.18 0 9.123 3.14 16.706 9.38 22.768 6.26 6.04 14.08 9.08 23.459 9.08 9.439 0 17.318-3.1 23.637-9.261 6.299-6.181 9.459-13.882 9.459-23.06 0-8.965-3.159-16.508-9.459-22.63-6.319-6.102-14.08-9.163-23.262-9.163m-.494-11.493c13.07 0 23.953 4.127 32.642 12.401 8.689 8.274 13.03 18.641 13.03 31.12 0 12.46-4.384 22.788-13.151 30.963-8.768 8.175-19.826 12.263-33.17 12.263-12.756 0-23.38-4.088-31.852-12.263-8.491-8.175-12.737-18.424-12.737-30.726 0-12.638 4.265-23.08 12.816-31.358 8.55-8.274 19.372-12.401 32.424-12.401"/><path d="m735.5 750.81h11.493v84.58h-10.407l-56.54-65.14v65.14h-11.394v-84.58h9.814l57.03 65.7z"/><path d="m482.35 536.36h167.57v157.13h-167.57zm105.69 21.84l-.237-.079h-.474l-.079-.079h-.908l-.099-.079h-.533l-.928-.237-.316-.079h-.869l-.296-.059h-.395l-.395-.099h-.158l-.237-.138h-.454l-.217-.099h-1.422l-.158-.079h-1.718l-.296-.079h-.612l-.257-.158h-7.543l-.296.158h-.849l-.237.079h-.711l-.059.079h-2.034l-.237.099h-.395l-.059.138h-.612l-.158.099h-.632l-.079.059-.79.079-1.01.237-1.01.079h-.454l-.158.079h-.316l-.158.079h-.316l-.079.158h-.77l-.079.079h-.316l-.079.079h-.395l-.059.079h-.158l-.079.158-.77.099-.711.138-.79.158-.691.158-.691.237-.711.158-.691.237-.691.158-.632.138-.691.336-.711.079-.691.316-.553.237-1.402.454-.553.237-.375.178-.316.059-.296.158-.316.178-.415.059-.375.158-.316.237-.217.079-.316.079-.296.237-.336.079-.375.178-.316.138-.217.158-.316.158-.237.158-.395.079-.158.158-.217.059-.257.178-.217.079-.316.138-.237.099-.237.158-.237.138-.217.079-.237.178-.316.059-.158.158-.237.158-.217.079-.158.237-.316.079-.237.099-.237.217-.237.079-.217.079-.237.217h-.237l-.237.178-.138.237h-.237l-.237.158-.237.237h-.237l-.158.158-.237.158-.158.138-.138.079-.079.099-.158.059-.079.099-.138.079-.079.079-.158.059-.099.099-.138.059-.079.099-.158.059-.079.079-.158.099-.237.158-.079.158h-.079l-.158.059h-.079l-.138.138v.099l-.158.079-.099.079h-.059l-.158.158-.099.079-.059.079-.079.079h-.158l-.079.079-.079.158-.079.079h-.217l-.158.138-.237.257-.158.079-.237.217-.079.079-.316.158-.059.257-.316.059-.079.158-.316.178-.079.158-.296.158-.079.158-.237.158-.079.217-.316.099-.079.138-.237.178-.138.158-.099.138-.217.158-.099.079-.217.237-.158.158h-.237l-.079.237-.158.158-.217.079-.079.217-.237.099-.079.316-.079.079-.237.079-.059.237h-.099l-.217.158-.099.237-.059.059-.237.158-.099.099-.059.138-.237.158-.079.158-.079.178-.237.138-.138.316-.237.079-.079.158-.099.158-.138.079-.059.178-.178.138-.158.079-.079.237-.138.079-.178.079-.059.237-.079.079-.237.138v.237l-.158.118-.079.197-.158.099-.158.138-.158.257-.059.059-.158.158-.158.178-.079.158-.158.217-.158.158-.079.178-.158.158-.158.138-.059.158-.158.158-.158.158-.079.237-.158.079-.079.079-.079.257-.079.059-.079.079-.079.217-.138.178-.178.217-.079.079-.059.099-.099.237-.059.079-.099.079-.059.237-.079.059-.079.079-.079.099-.079.158-.079.059-.079.079-.059.079v.158l-.099.079-.059.079v.079l-.099.079-.059.079v.079l-.099.079v.158l-.375.395-.316.711-.296.474-.336.612-.296.494-.316.553-.296.612-.316.553-.237.632-.316.553-.237.553-.316.632-.217.533-.474 1.264-.217.632-.316.632-.316.79-.237.77-.316.79-.217.79-.257.869-.217.77-.099.889-.296.77-.158.81-.237.77-.059.869-.257.869-.138.75-.158.889-.079.948-.079.237v.316l-.079.237v1.343l-.138.296v.632l-.099.237v1.165l-.079.178v6.911l.079.237v.632l.099.138v.652l.138.237v.928l.079.237v.395l.079.158v.237l.079.158v.395l.158.316v.79l.099.158v.296l.039.099v.237l.099.079v.217l.158.079v.474l.059.158v.099l.079.217v.079l.158.237v.237l.099.217v.494l.059.059v.257l.079.138v.158l.158.237.059.178v.474l.099.158.059.217.158.158v.474l.099.079.059.336.099.059.138.316v.079l.079.316v.158l.079.237.079.237.158.237v.316l.158.158.079.217.158.237v.237l.059.237.099.237.059.257.178.237.079.217.059.237.158.316.079.316.158.237.138.395.178.296.138.395.158.316.316.395.079.316.158.415.158.296.158.395.217.336.178.296.138.395.158.237.237.395.079.237.079.079.158.316.059.059.099.316.138.079.099.178.138.237.079.138.079.237.158.178.079.138.079.237.158.158.079.158.138.158.099.158.059.158.099.079.059.217.099.079.138.099.079.237.079.079.079.158.079.237h.138l.099.138.059.257.099.059.059.237.158.079.099.158.138.178.079.158.158.158.158.217.079.158.158.178.158.138.079.217.138.178v.059l.237.237.158.178v.158l.237.138.158.158v.237l.237.099.138.217.099.178.158.079.059.237.237.138.158.237v.079l.237.158.138.158.178.138.059.257.158.079.158.158.178.158.059.158.237.158.079.237.237.158.138.158.079.237.237.158.158.158.217.237.099.158.237.079.158.217.138.178.178.237.059.079.316.296.395.474h.079l.217.158.079.158.079.079.237.158.079.158.237.158.059.158.158.079.257.158.059.138.237.158.079.178.158.059.237.237.237.178h.079l.079.158.059.079.237.158.158.059.158.237.079.079h.079l.217.257.099.079.059.059.257.079.059.158.079.099.237.079v.059l.158.079.079.158h.158l.059.079.178.178.138.138h.079l.158.099.158.059.079.237h.158l.079.079.138.079.257.079.059.158.158.079.158.158.158.079.237.158.059.079.178.158.158.079.138.158.178.079.158.079.217.138.158.158.158.099.138.158.158.059.237.158h.158l.158.257.237.059.138.079.257.099.217.197h.158l.237.197.158.217h.237l.217.158.178.158.237.079.197.099.257.138.237.158.395.158.296.237.553.217.454.237.395.257.454.237.415.237.533.217.474.257.454.158.395.237.553.138.454.336.474.059.454.336.632.138h.079l.217.079.158.158h.237l.158.079.237.099.158.059.237.158h.158l.217.079.158.079.217.079.158.158h.257l.158.079.217.079h.158l.237.079.158.158h.533l.079.079.336.079.118.099.257.059.158.079.237.059h.138l.237.099.158.079.237.079.296.059.257.079.375.099.395.079.296.138.415.099.375.059.395.079.375.099.395.158.395.059.375.079.395.079h.395l.395.158.375.079.474.079h.296l.316.079.316.138h.316l.316.099.375.079h.553l.395.079.375.099h.316l.316.138h.395l.296.079h.948l.375.079h.316l.375.079h.415l.296.158h.77l.395.079h1.382l.395.079h.395l.395.059h2.626l.178.178h1.382l.632-.178h3.179l.632-.059h1.244l.632-.079h2.409l.553-.079h1.224l.158-.158h.217l.257-.079h.612l.138-.079h1.422l.237-.079h.474l.296-.138.237-.099h.316l.296-.079h.711l.237-.079h.316l.296-.099h.316l.316-.138.217-.079h.632l.316-.079h.395l.059-.079h.158l.237-.158h.553l.138-.079h.395l.158-.079h.158l.158-.059h.237l.138-.158h.612l.336-.099.217-.079.316-.059h.237l.217-.099.316-.059.257-.079h.296l.237-.079.237-.099.296-.079.237-.059.237-.079.257-.079h.296l.158-.099.158-.059h.158l.217-.079.138-.059h.178l.158-.099h.237l.158-.079.158-.079h.375l.158-.158h.158l.138-.079h.237l.158-.079.079-.079h.316l.059-.158h.316l.099-.079.296-.079.079-.079h.316l.099-.158.296-.059h.079l.316-.099.059-.079h.474l.928-.375.099-.099h.138l.079-.158h.079l.079-.079h.316l.217-.059h.079l.099-.099.059-.138h.217l.099-.099h.316l.138-.079.237-.059.158-.158.257-.079h.296l.059-.158.336-.099.138-.158h.237l.316-.079.158-.059.296-.079.316-.178.158-.059.237-.079.395-.099v-.059l.138-.079.257-.059.059-.118.158-.059.158-.079.316-.099.059-.059.158-.079.178-.079.138-.079.237-.059.158-.099.237-.079.079-.079.316-.079v-.079l.158-.079.138-.059.178-.099h.138l.158-.079.158-.158.158-.079.158-.079h.138l.158-.079.158-.138.316-.197h.395v-.059h.059l.099-.138h.059l.079-.099h.079l.079-.079h.237l.079-.059h.059l.099-.079h.158v-21.544h-.158v.158h-.099l-.059.079h-.138l-.099.079h-.079v.079h-.079v.079l-1.481.928-.296.079-.316.178-.217.138-.316.178-.158.138-.395.237-.237.158-.316.138-.217.178-.336.158-.217.158-.316.158-.217.158-.316.158-.237.079-.237.217-.316.079-.296.257-.474.217-.395.237-.296.099-.316.079-.158.217-.296.099-.415.138-.237.158-.237.158-.316.079-.276.178-.336.158-.138.158-.612.138-.474.237-.474.237-.553.237-.454.237-.395.217-.533.178-.573.237-.375.138-.474.158-.454.237-.533.178-.395.237-.474.079-.454.217-.494.178-.908.296-.869.237-.849.296-.849.336-.79.237-.849.237-.849.237-.77.237-.79.158-.77.237-.869.079-.612.237-1.56.316-.691.158-.711.079h-.395l-.059.158h-.415l-.158.059h-.217l-.158.099h-.928l-.237.079h-.395l-.059.059h-.395l-.217.178h-.553l-.257.079h-1.619l-.237.059h-.77l-.316.079h-.928l-.237.158h-2.172l-.079.079-.316-.079h-2.646l-.316-.158h-1.461l-.395-.079h-.375l-.316-.059h-1.106l-.296-.079h-.395l-.395-.178h-.237l-.395-.059-.296-.079h-.711l-.375-.099h-.296l-.731-.217-.533-.079-.632-.099-.533-.059-.612-.158-.553-.158-.533-.079-.632-.158-.533-.158-.632-.158-.553-.237-.612-.158-.553-.138-.612-.178-.553-.237-.553-.158-.138-.079h-.237l-.079-.158h-.079l-.079-.099h-.138l-.158-.059h-.079l-.079-.079h-.257l-.059-.158h-.099l-.138-.059h-.158l-.079-.099h-.138v-.079h-.415l-.059-.178h-.099l-.059-.059h-.079l-.079-.059h-.099l-.059-.079h-.217l-.079-.099h-.099l-.138-.138h-.099l-.059-.079h-.099l-.217-.079-.158-.099-.237-.138-.158-.079h-.217l-.079-.158-.336-.178-.059-.059-.316-.099-.217-.059-.178-.079-.217-.158-.158-.079-.237-.178-.158-.158h-.079l-.237-.059-.079-.079-.079-.099-.138-.059h-.158v-.079l-.079-.079h-.178l-.158-.079v-.059l-.059-.099h-.237v-.079l-.079-.079h-.079l-.217-.079v-.079l-.079-.079-.099-.059-.138-.099-.059-.059-.099-.099h-.079l-.158-.059-.158-.178h-.158l-.079-.079-.059-.079v-.079h-.099l-.217-.158v-.079l-.158-.059h-.178l-.079-.099-.059-.158-.237-.059-.079-.079-.079-.099-.059-.138-.237-.099v-.059h-.158l-.158-.079-.079-.079-.079-.158-.237-.099v-.079l-.158-.059-.059-.158h-.178l-.217-.237-.158-.158-.079-.079-.237-.079-.079-.079v-.079l-.138-.079-.178-.079v-.079l-.77-.632-.217-.316-.257-.217-.316-.178-.217-.316-.158-.059-.158-.237-.158-.158-.158-.237-.237-.158-.158-.237-.158-.079-.138-.158-.158-.237-.158-.158-.158-.237-.138-.158-.158-.237-.158-.059-.158-.178-.158-.158-.079-.079-.079-.079-.099-.138-.059-.099-.079-.079-.059-.158-.099-.079-.079-.079-.138-.138-.099-.099-.079-.059-.079-.178-.059-.059-.059-.099v-.079l-.118-.138-.059-.099-.079-.079-.079-.079-.079-.138-.237-.257-.079-.138-.059-.178-.099-.059-.059-.237-.079-.079h-.079v-.079l-.099-.237-.059-.079h-.079l-.079-.059-.079-.099-.079-.158-.079-.079v-.079l-.079-.079-.079-.158-.079-.059v-.099l-.079-.138-.059-.099-.099-.079v-.079l-.059-.158-.099-.158-.079-.158-.059-.079-.158-.296-.079-.099-.079-.217-.079-.079-.059-.079-.079-.237-.158-.316-.099-.158-.079-.079v-.099l-.059-.217-.079-.079v-.316h-.158l-.079-.158-.099-.178v-.059l-.059-.059v-.178l-.158-.158v-.079l-.079-.138-.079-.178-.079-.079v-.079l-.158-.237-.079-.138-.079-.237-.059-.257v-.138l-.158-.237-.099-.178-.138-.454-.079-.158v-.237l-.099-.178-.059-.217-.079-.158v-.395l-.158-.079-.079-.217v-.099l-.079-.158v-.158l-.079-.138v-.316l-.138-.158v-.178l-.079-.138v-.178l-.099-.138v-.178l-.059-.059v-.178l-.158-.454-.079-.395-.079-.395-.079-.395v-.395l-.158-.296-.079-.395-.079-.395v-.79l-.059-.415-.178-.296v-.395l-.079-.316v-.553l-.059-.158v-7.464l.059-.316v-.632l.079-.296v-.553l.178-.395.059-.316v-.79l.079-.237v-.237l.079-.158v-.237l.158-.237v-.395l.079-.316v-.138l.079-.316.079-.257.158-.079v-.612l.059-.158v-.158l.099-.237v-.079l.079-.178v-.138l.138-.079v-.316l.079-.158.079-.158.079-.158v-.138l.158-.178v-.474l.079-.158.059-.079v-.158l.099-.158v-.079l.079-.237.079-.059v-.158l.059-.237.099-.099.158-.059v-.336l.059-.217.079-.079v-.158l.079-.099.158-.059v-.316l.079-.158v-.079l.158-.158v-.158l.158-.158v-.158l.059-.079v-.158l.099-.079.079-.237.158-.079v-.296l.079-.178.059-.079.079-.158.099-.138.079-.099.079-.138v-.158h.079l.059-.099.079-.217.079-.079.079-.158.079-.158.079-.158.059-.099.079-.138v-.099l.099-.059.059-.079.099-.158.059-.158.158-.237.158-.217.079-.257.158-.237.158-.217.158-.178.158-.316.158-.217.138-.178.178-.316.138-.138.158-.316.178-.158.118-.237.257-.158v-.237h.079l.059-.079.079-.079.099-.099.296-.296.079-.158v-.079l.079-.079.079-.079.079-.059.079-.099h.079l.059-.158.099-.079.059-.158.099-.079.059-.079.079-.158h.079l.079-.158.158-.158.079-.079h.079l.079-.217.158-.099.059-.059h.079l.178-.099v-.138l.059-.079v-.079h.079l.079-.099.079-.138.079-.059v-.099h.158v-.099h.079l.079-.158h.079l.632-.691.77-.711.691-.711.77-.632.79-.711.77-.454.928-.711.79-.454.849-.652.711-.474.849-.533.869-.474.928-.395.77-.494.869-.375.908-.395.079-.158.178-.079h.217l.296-.158.099-.079h.158l.158-.158h.217l.158-.079.079-.079h.158l.178-.059h.138l.079-.178h.158l.138-.079h.178l.138-.079.059-.079h.178l.158-.158h.316l.079-.079.158-.079h.138l.316-.158h.138l.099-.079.158-.079h.158l.138-.059h.178l.138-.099h.158l.158-.079.158-.059h.059l.158-.099h.158l.158-.059h.158l.158-.099h.158l.316-.138h.079l.158-.099h.158l.079-.059h.217l.158-.099h.079l.158-.059h.474l.158-.158h.217l.158-.079.158-.079h.099l.158-.079h.513l.099-.158h.296l.237-.079h.533l.257-.079h.533l.237-.079h.316l.059-.158h.316l.158-.079h.691l.079-.079h.79l.217-.099h.395l.079-.059h.849l.257-.158h.671l.158-.079h8.02l.237.079h.711l.138.158h1.165l.237.059h.474l.316.099h.928l.296.079h.395l.316.079h.217l.257.158h.237l.138.079h.711l.237.079h.454l.079.079h.316l.079.158h.928l.158.079h.237l.059.079.316.079h.158l.296.158h.336l.237.059.217.099.316.059.237.099h.296l.237.079.316.059.237.099h.237l.316.059.158.099.237.059.375.079h.079l.158.099h.158l.079.059h.158l.138.079h.158l.158.079.158.079h.079l.158.079h.158l.059.079h.178l.138.079h.316l.237.158.158.079h.158l.217.079.158.079h.474l.138.178.178.059h.138l.178.079h.158l.138.079h.158l.158.158.237.079.158.079h.217l.178.079h.158l.059.079h.158l.178.158h.039l.099.079h.395l.138.079.237.059.158.178.237.059h.158l.237.118.158.059.217.138.158.099h.257l.217.079.138.059.237.079.158.178h.237l.217.059.257.099.158.237h.296l.237.059.257.158.296.079.217.178.178.059.316.079.217.158.237.099.217.059.178.158.296.079.316.158.079.099.316.059.079.079.296.079.099.079.276.158h.099l.217.158.178.099.237.059h.059l.158.079.257.158.217.158h.138l.257.079h.079l.079.158.217.059.079.079h.158l.237.099v.079l.178.158.197.079h.099l.059.079.158.079.158.158.079.059h.158l.158.079.237.099.138.158.257.059.158.079.217.079.316.158.059.079.336.079.079.158.138.079.237.079.158.079.316.158.237.178.158.059 2.172 1.264v-21.07l-.079-.079h-.079l-.158-.138h-.079l-.158-.099h-.237l-.237-.079-.217-.237-.237-.079h-.316l-.316-.158-.217-.217-.395-.099-.395-.079-.375-.158-.336-.059-.217-.099-.158-.059-.217-.099-.158-.059-.257-.079-.138-.158-.316-.099-.237-.059-.237-.079-.217-.079-.158-.079-.316-.099-.237-.059-.158-.079-.296-.079-.079-.099-.237-.059-.099-.079h-.138l-.217-.059-.099-.099h-.217l-.099-.079-.237-.079h-.138l-.257-.158h-.158l-.059-.079-.217-.079h-.099l-.237-.079h-.138l-.237-.099h-.079l-.079-.138h-.079l-.237-.079-.059-.079h-.415l-.059-.059h-.158l-.158-.178h-.079l-.217-.079-.257-.079h-.237l-.217-.059h-.099l-.197-.178h-.099l-.158-.079-.158-.079h-.375l-.099-.079h-.138l-.178-.079h-.138l-.237-.158h-.138l-.099-.059h-.158l-.079-.099h-.217l-.138-.059h-.099l-.158-.158h-.375l-.079-.079h-.079l-.573-.158-.138-.158h-.533l-.099-.079h-.158l-.059-.099h-.237l-.158-.059h-.079l-.158-.178h-.296l-.158-.079h-.158l-.158-.059h-.158l-.158-.099h-.158l-.158-.059h-.237l-.138-.079h-.178l-.138-.079h-.158l-.158-.079h-.237l-.138-.079h-.079l-.079-.079h-.316l-.079-.079h-.237v-.079h-.375v-.079h-.237l-.158-.079h-.158l-.158-.079h-.158l-.158-.079h-.158l-.138-.079h-.316l-.158-.079h-.079l-.237-.059h-.138l-.178-.099h-.612l-.237-.158h-.316l-.158-.079h-.237l-.138-.079h-.316l-.079-.079h-.533l-.158-.158z"/><path d="m353.68 623.13v30.825h21.23l.099-.099h1.066l.237-.059h1.402l.375-.158h.79l.533-.079.474-.079.454-.079.474-.158h.553l.454-.059.474-.178.632-.079.454-.158.474-.079.632-.158.454-.138.632-.178.375-.237.474-.158.454-.079.533-.316.415-.237.454-.158.395-.237.454-.217.395-.316.553-.178.375-.316.316-.296.395-.395.395-.257.395-.296.375-.316.079-.138.158-.178.158-.158.237-.217.158-.158.059-.158.158-.178.079-.079.079-.158.158-.138.079-.158.158-.099.079-.217.079-.079.158-.099.217-.454.237-.553.237-.395.237-.474.158-.474.158-.454.138-.415.178-.454.059-.395.079-.395.079-.316.079-.395v-.395l.079-.395v-.237l.079-.217v-.968h.079v-.79l-.079-.079v-1.165l-.079-.316v-.059l-.079-.257v-.237l-.079-.217v-.237l-.079-.257v-.138l-.079-.336-.138-.296-.099-.178-.079-.375-.059-.316-.158-.316-.158-.257-.079-.296-.158-.316-.237-.336-.138-.217-.158-.316-.257-.316-.138-.316-.237-.316-.237-.237-.079-.059-.079-.099v-.059h-.059v-.079l-.099-.079-.059-.099-.099-.059v-.079h-.059l-.099-.079v-.079h-.079l-.059-.099-.158-.138h-.079l-.158-.158v-.158h-.158l-.158-.079-.059-.237-.158-.079h-.099l-.138-.099-.079-.217-.158-.079h-.099l-.138-.059-.079-.099-.079-.158-.237-.138-.237-.237-.217-.079-.158-.099-.237-.237-.158-.059-.316-.158-.237-.099-.217-.138-.237-.158-.158-.079-.316-.178-.316-.059-.217-.178-.474-.138-.375-.178-.316-.059-.395-.237-.237-.158h-.395l-.375-.237-.316-.079-.375-.079-.395-.158-.395-.158-.395-.079h-.375l-.553-.079-.375-.158-.395-.158h-.553l-.217-.079h-.316l-.158-.158h-.257l-.138-.079h-1.01l-.158-.079h-.474l-.217-.079h-.415l-.217-.158h-.928l-.158-.079z"/><path d="m353.68 576.05v29.324h11.196l.158-.079h2.01l.395-.079h.375l.474-.158h.928l.395-.079.474-.079h.612l.395-.079.474-.158.533-.079.474-.079.533-.079.474-.158.533-.158.553-.079.079-.079h.079l.079-.079h.237l.079-.079h.237l.079-.079h.138l.099-.079h.217l.079-.059h.237l.316-.178.375-.138.395-.257.474-.138.375-.099.415-.316.355-.059.395-.336.395-.237.395-.138.237-.316.375-.178.296-.296.415-.316.296-.237.395-.237.237-.316.158-.237.237-.217.158-.257.296-.296.079-.257.296-.237.099-.316.237-.138.079-.316.158-.336.158-.138.079-.237.138-.395.158-.158.079-.237.079-.395.237-.237.079-.316v-.316l.059-.296.158-.316.099-.336v-.217l.079-.237v-.316l.079-.316v-.178l.138-.296v-.474l.079-.158v-3.693l-.079-.296v-.316l-.138-.336-.079-.395v-.316l-.079-.316-.099-.395-.158-.296-.059-.415-.079-.375-.237-.395-.079-.375-.237-.257-.138-.217v-.178l-.237-.237-.079-.158-.079-.158-.079-.158-.237-.237-.099-.138-.059-.178-.237-.158v-.138l-.158-.237-.217-.158-.079-.079-.237-.237-.079-.158-.316-.237-.158-.158-.316-.237-.138-.158-.158-.237-.237-.158-.237-.079-.296-.237-.316-.079-.158-.158-.257-.158-.217-.158-.237-.237h-.316l-.237-.158-.217-.079-.553-.237-.533-.237-.553-.138-.533-.158-.553-.158-.533-.158-.533-.158-.573-.079-.533-.158-.533-.079-.553-.079h-.553l-.553-.158-.474-.079-.533-.079h-.375l-.316-.079z"/><path d="m289.47 536.36h167.47v157.13h-167.47zm43.937 22.08v113.19h43.601l1.086-.079 1.481-.079 1.718-.158 2.01-.158 2.271-.316 2.31-.375 2.567-.573 2.666-.691 2.705-.869 2.646-1.086 2.725-1.284 2.567-1.481 2.33-1.817 2.35-1.876 1.619-1.896 1.402-1.738 1.224-1.718 1.027-1.797.849-1.738.691-1.639.632-1.659.395-1.501.375-1.402.257-1.264.138-1.106.079-1.01v-.79l.079-.474v-1.639l-.079-.81-.079-1.01-.138-1.027-.257-1.323-.217-1.422-.474-1.422-.474-1.639-.691-1.659-.77-1.659-.948-1.718-1.165-1.738-1.323-1.639-1.481-1.659-1.461-1.343-1.402-1.185-1.402-1.086-1.481-1.027-1.402-.869-1.461-.711-1.343-.77-1.303-.494-1.086-.553-1.086-.375-1.027-.395-.77-.237-.711-.158-.454-.079-.316-.158h-.079v-.059l.158-.099h.237l.296-.237.395-.158.375-.316.474-.237.553-.316.632-.296.533-.494.612-.375.711-.474.553-.474.691-.632.612-.573.711-.454.237-.395.395-.395.513-.612.573-.474.454-.711.711-.869.553-.869.533-1.01.612-1.185.474-1.264.533-1.402.395-1.501.395-1.659.217-1.876.316-2.034v-2.054l-.158-2.291-.217-2.034-.316-1.955-.632-1.915-.533-1.639-.711-1.481-.691-1.501-.77-1.264-.79-1.165-.691-.968-.612-.849-.553-.711-.553-.533-.395-.395-.237-.257-.059-.059-.237-.158-.237-.336-.533-.454-.711-.711-1.01-.79-1.165-.869-1.402-.948-1.619-.908-1.876-.968-2.192-.869-2.31-.928-2.567-.81-2.804-.612-3.041-.533-3.337-.336-3.495-.079z"/><path d="m160.78 623.13v30.825h21.15l.059-.099h1.106l.158-.059h1.402l.375-.158h.869l.533-.079.395-.079.474-.079.612-.158h.395l.533-.059.474-.178.553-.079.474-.158.533-.079.533-.158.553-.138.533-.178.474-.237.474-.158.454-.079.474-.316.474-.237.454-.158.395-.237.375-.217.553-.316.395-.178.454-.316.395-.296.395-.395.474-.257.375-.296.395-.316v-.138l.237-.178.079-.158.059-.079.257-.138.059-.158.079-.158.158-.178.158-.079v-.158l.079-.138.217-.158.079-.099v-.217l.099-.079.217-.099.158-.454.237-.553.316-.395.138-.474.257-.474.059-.454.237-.415.158-.454v-.395l.079-.395.158-.316.079-.395v-1.027l.079-.217v-.968h.079v-.79l-.079-.079v-1.165l-.079-.316v-.553l-.079-.217v-.237l-.158-.257v-.138l-.079-.336-.079-.296-.079-.178-.158-.375-.079-.316-.059-.316-.257-.257-.059-.296-.079-.316-.316-.336-.079-.217-.237-.316-.158-.316-.237-.316-.138-.316-.237-.237-.079-.059-.079-.099v-.059h-.158v-.079l-.079-.079v-.099l-.059-.059v-.079h-.099l-.158-.079v-.079h-.059v-.099l-.158-.138h-.158l-.079-.158-.079-.158h-.079l-.158-.079-.079-.237-.158-.079h-.138l-.099-.099-.059-.217-.237-.079-.158-.059-.158-.099-.079-.158-.158-.138-.217-.237-.316-.079-.158-.099-.257-.237-.217-.059-.237-.158-.316-.099-.138-.138-.237-.158-.237-.079-.237-.178-.296-.059-.316-.178-.178-.059-.217-.079-.395-.178-.296-.059-.395-.237-.316-.158h-.375l-.395-.237-.336-.079-.355-.079-.415-.158-.375-.158-.375-.079h-.415l-.454-.079-.375-.158-.415-.158h-.612l-.237-.079h-.237l-.217-.158h-.237l-.158-.079h-.928l-.237-.079h-.395l-.296-.079h-.395l-.079-.158h-1.01l-.237-.079z"/><path d="m160.78 576.05v29.324h11.196l.079-.079h2.093l.316-.079h.454l.316-.158h.928l.474-.079.474-.079h.533l.474-.079.454-.158.474-.079.632-.079.454-.079.553-.158.553-.158.454-.079.158-.079h.079l.059-.079h.257l.059-.079h.158l.158-.079h.079l.079-.079h.237l.079-.059h.158l.395-.178.454-.138.395-.257.375-.138.395-.099.395-.316.395-.059.375-.336.395-.237.395-.138.217-.316.474-.178.237-.296.316-.316.316-.237.375-.237.237-.316.237-.237.138-.217.257-.257.217-.296.158-.257.237-.237.138-.316.158-.138.158-.316.158-.336.099-.138.138-.237.158-.395.059-.158.178-.237.079-.395.158-.237.059-.316.099-.316.079-.296.079-.316.059-.336.099-.217.059-.237v-.316l.079-.316v-.178l.079-.296v-.474l.079-.158v-1.58h.079v-1.264l-.079-.296v-.553l-.079-.296v-.316l-.079-.336-.079-.395v-.316l-.158-.316-.059-.395-.079-.296-.079-.415-.158-.375-.158-.395-.158-.375-.158-.257-.158-.217-.079-.178-.158-.237-.059-.158-.099-.158-.158-.158-.158-.237-.059-.138-.158-.178-.158-.158-.059-.138-.158-.237-.158-.158-.158-.079-.158-.237-.158-.158-.237-.237-.237-.158-.237-.237-.158-.158-.217-.237-.158-.158-.316-.079-.237-.237-.316-.079-.217-.158-.237-.158-.158-.158-.296-.237h-.316l-.158-.158-.316-.079-.474-.237-.612-.237-.474-.138-.632-.158-.454-.158-.632-.158-.474-.158-.533-.079-.612-.158-.474-.079-.632-.079h-.454l-.632-.158-.375-.079-.553-.079h-.454l-.257-.079z"/><path d="m96.46 536.36h167.39v157.13h-167.39zm43.877 22.08v113.19h43.621l1.066-.079 1.501-.079 1.777-.158 1.955-.158 2.251-.316 2.488-.375 2.567-.573 2.626-.691 2.666-.869 2.626-1.086 2.725-1.284 2.567-1.481 2.409-1.817 2.251-1.876 1.698-1.896 1.343-1.738 1.165-1.718 1.086-1.797.928-1.738.632-1.639.632-1.659.355-1.501.415-1.402.138-1.264.237-1.106v-1.797l.079-.474v-1.639l-.079-.81v-1.01l-.237-1.027-.138-1.323-.316-1.422-.454-1.422-.395-1.639-.711-1.659-.79-1.659-1.994-3.456-1.343-1.639-1.481-1.659-1.461-1.343-1.402-1.185-1.481-1.086-1.481-1.027-1.402-.869-1.303-.711-1.481-.77-1.185-.494-1.145-.553-1.106-.375-1.086-.395-.691-.237-.79-.158-.375-.079-.316-.158h-.079v-.059l.079-.099h.316l.316-.237.375-.158.395-.316.454-.237.474-.316.612-.296.632-.494.553-.375 1.382-.948.573-.632.612-.573.691-.454.395-.395.395-.395.375-.612.553-.474.533-.711.632-.869.533-.869.632-1.01.553-1.185.533-1.264.553-1.402.375-1.501.395-1.659.237-1.876.237-2.034.079-2.054-.158-2.291-.257-2.034-.355-1.955-.553-1.915-.553-1.639-1.402-2.982-.691-1.264-.849-1.165-.711-.968-.691-.849-.553-.711-.553-.533-.612-.652-.079-.059-.079-.158-.395-.336-.533-.454-.632-.711-1.086-.79-1.086-.869-1.481-.948-1.639-.908-1.856-.968-2.093-.869-2.409-.928-2.567-.81-2.804-.612-3.041-.533-3.337-.336-3.574-.079z"/></g></svg>