<svg xmlns="http://www.w3.org/2000/svg" height="238.93" width="600" viewBox="0 0 158.75 63.216394"><g fill="#fff"><path d="m29.53 1.947h12.814v12.06h-12.814zm8.08 1.678l-.172-.029-.07-.008-.295-.033-.205-.016-.357-.012h-.136l-.283.016-.156.012-.23.025-.061.004-.07.012-.086.017-.107.016-.147.029-.842.254-.389.164-.296.16-.262.16-.144.098-.115.086-.238.193-.193.181-.16.168-.152.181-.151.197-.111.156-.066.111-.353.702-.25.997-.033.349-.008.271v.205l.021.205.008.049.037.242.02.09.041.197.078.242.107.287.201.426.131.226.111.168.156.205.164.201.205.218.033.037.185.168.147.123.152.115.205.14.242.147.567.271.234.082.25.082.468.111.41.062.435.041.217.012h.111l.747-.037.045-.004.267-.025.377-.057.218-.045.316-.074.221-.062.23-.078.074-.024.147-.054.275-.11.206-.091.192-.094.087-.041v-1.645l-.062.036-.111.07-.328.193-.357.181-.587.238-.976.262-.103.017-.23.032-.316.021-.176.008-.357-.012-.435-.049-.714-.189-.098-.041-.074-.029-.107-.049-.246-.119-.111-.07-.119-.082-.135-.102-.136-.107-.053-.049-.029-.025-.012-.012-.021-.017-.209-.225-.094-.123-.082-.127-.074-.115-.094-.172-.066-.144-.09-.25-.054-.181-.078-.464-.008-.144-.004-.164v-.107l.033-.349.053-.263.049-.189.062-.181.049-.119.082-.168.07-.127.185-.279.078-.098.11-.127.058-.061.989-.685.168-.07.168-.061.181-.058.176-.045.172-.033.193-.033.189-.021.349-.012h.119l.25.008.164.012.296.037.246.041.324.078.168.049.205.061.136.049.242.094.299.131.226.107.164.082.23.127.168.09v-1.617l-.275-.111-.275-.094-.18-.066-.156-.049-.193-.066-.148-.045-.045-.012-.139-.037-.181-.049-.115-.025-.197-.045z"/><path d="m19.685 8.62v2.371h1.539l.078-.004.217-.016.6-.119.525-.3.139-.18.156-.489.004-.074v-.062l-.033-.23-.176-.361-.062-.07-.139-.115-.287-.16-.464-.135-.271-.037-.184-.017-.156-.004z"/><path d="m19.685 5.01v2.248h.743l.115-.008.168-.008.579-.086.123-.041.451-.263.205-.312.078-.336.008-.127-.004-.098-.098-.41-.16-.209-.296-.193-.648-.144-.238-.012z"/><path d="m14.767 1.951h12.814v12.06h-12.814zm3.361 1.686v8.69h3.274s1.592.041 2.47-.837c.714-.718.665-1.551.665-1.551s.049-.862-.611-1.526c-.567-.562-1.285-.714-1.285-.714l.579-.402c.111-.119.529-.497.529-1.412 0-.919-.611-1.448-.611-1.448s-.673-.8-2.191-.8z"/><path d="m4.918 8.62v2.371h1.543l.078-.004.213-.016.599-.119.533-.3.131-.18.156-.489.012-.074v-.062l-.037-.23-.181-.361-.061-.07-.131-.115-.287-.16-.468-.135-.271-.037-.176-.017-.16-.004z"/><path d="m4.918 5.01v2.248h.751l.111-.008.168-.008.579-.086.123-.041.447-.263.205-.312.078-.336.008-.127v-.098l-.103-.41-.156-.209-.3-.193-.652-.144-.23-.012z"/><path d="m0 1.951h12.814v12.06h-12.814zm3.365 1.686v8.69h3.266s1.596.041 2.478-.837c.714-.718.665-1.551.665-1.551s.049-.862-.611-1.526c-.566-.562-1.288-.714-1.288-.714l.579-.402c.115-.119.533-.497.533-1.412 0-.919-.616-1.448-.616-1.448s-.669-.8-2.187-.8z"/><path d="m1.432 18.225h.923c1.383 0 1.945.566 1.957 1.506.016.833-.423 1.621-1.957 1.621h-.923zm-1.432-1.231v9.967h1.432v-4.321h.599c.739 0 1.329.23 2.647 2.277l1.317 2.044h1.707c-.685-.944-.931-1.285-1.358-1.97-.759-1.239-1.313-2.162-2.22-2.761 1.063-.427 1.666-1.289 1.666-2.442 0-1.727-1.256-2.794-3.274-2.794z"/><path d="m12.387 19.13l1.608 3.611h-3.102zm.525-2.191h-1.01l-4.288 10.02h1.461l1.259-2.929h4.239l1.329 2.929h1.461z"/><path d="m19.993 18.281h2.199c2.799 0 4.071 1.698 4.071 3.701 0 1.226-.747 3.696-3.989 3.696h-2.281zm-1.432 8.682h3.886c3.29 0 5.289-2.425 5.289-4.981 0-2.356-1.621-4.99-5.302-4.99h-3.873z"/><path d="m29.391 26.964h1.432v-9.971h-1.432z"/><path d="m33.949 21.981c0-2.195 1.65-3.799 3.874-3.799 2.236 0 3.885 1.604 3.885 3.799 0 2.175-1.649 3.804-3.885 3.804-2.224 0-3.874-1.629-3.874-3.804m-1.477 0c0 2.704 2.06 5.117 5.322 5.117 3.373 0 5.391-2.429 5.391-5.117 0-2.778-2.076-5.116-5.362-5.116-3.229 0-5.351 2.355-5.351 5.116"/></g><g fill="#449637"><path d="m85.19 24.19c8 0 13.59 6.101 13.59 14.832 0 4.223-1.658 8.17-4.661 11.12-3.065 2.999-7.127 4.595-11.411 4.501-7.225 0-14.558-3.59-15.867-11.546h11.51c.894 1.341 2.371 2.133 4.185 2.133 3.52 0 5.416-3.196 5.416-6.204 0-2.978-1.678-5.978-5.416-5.978-2.241 0-3.476.649-4.899 2.585l-.337.46h-10.08l5.182-25.751h26.921l-1.867 9.388h-16.971s-.8 3.676-1.169 5.777c1.686-.887 3.611-1.313 5.875-1.313m-1.834-24.19c-17.442 0-31.589 14.15-31.589 31.61 0 17.459 14.15 31.606 31.589 31.606 17.446 0 31.586-14.15 31.586-31.606 0-17.458-14.14-31.61-31.586-31.61"/><path d="m128.13 31.68l2.12-16.17h-3.99l-2.12 16.17z"/><path d="m126.92 10.385l-.43 2.888h3.99l.43-2.888z"/><path d="m138.56 31.68l8.04-16.17h-4.27s-3.7 7.928-4.56 9.778c-.41-1.969-2-9.778-2-9.778h-4.2l3.82 16.17z"/><path d="m154.72 21.772h-5.43c.43-1.637 1.59-2.634 3.11-2.634.73 0 1.32.225 1.72.66.4.439.6 1.092.6 1.904zm2.63-4.497c-1.1-1.252-2.72-1.945-4.57-1.945-3.23 0-6.97 2.171-7.77 8.255-.37 2.819.08 4.969 1.32 6.385 1.09 1.239 2.77 1.891 4.89 1.891 2.33 0 4.46-.898 6.15-2.601l.33-.332-2.62-2.511-.32.287c-.92.837-2.15 1.354-3.22 1.354-.95 0-1.7-.279-2.17-.809-.38-.434-.57-1.05-.57-1.797l.02-.242h9.47l.39-2.925.07-1.022c0-1.551-.48-2.942-1.4-3.988"/><path d="m124.32 10.383h-4l-2.8 21.279h3.99z"/><path d="m118.81 40.775c-.89 0-1.49-.262-2.02-.874l-.13-.147-1.49 1.276.14.152c.85.919 1.91 1.378 3.18 1.378 1.91 0 3.35-.972 3.56-2.425.11-.697-.02-1.288-.36-1.707-.34-.422-.88-.664-1.62-.714l-1.2-.09c-.39-.029-.56-.135-.63-.221l-.05-.242c.03-.177.1-.71 1.19-.71.65 0 1.17.188 1.74.636l.14.11 1.34-1.337-.15-.144c-.75-.718-1.66-1.054-2.86-1.054-1.77 0-3.05.952-3.27 2.425-.09.607.03 1.14.35 1.542.35.444.91.71 1.63.768l1.29.119.56.188.04.304c-.07.48-.58.767-1.38.767"/><path d="m127.07 36.538c.38 0 .63.09.79.275.31.352.23 1.07.13 1.78-.18 1.186-.41 2.093-1.6 2.093l-.77-.271c-.31-.365-.24-1.104-.14-1.764.16-1.116.41-2.113 1.59-2.113m-2.89-1.789l-1.36 9.162h1.88c.12-.808.25-1.703.3-2.01.49.439 1.01.661 1.62.661 1.1 0 1.83-.554 2.25-1.018.54-.578.73-1.12.99-2.892.26-1.797.24-2.347-.13-2.938-.3-.48-.88-1.05-2-1.05-.6 0-1.21.213-1.75.586l.08-.5z"/><path d="m132.94 38.633c.16-1.063.29-1.292.58-1.633.24-.275.68-.464 1.11-.464.41 0 .79.177.93.435l.17.673c0 .222-.03.517-.09.948-.16 1.063-.28 1.288-.57 1.629-.24.283-.69.468-1.11.468-.41 0-.79-.181-.94-.435-.18-.328-.24-.55-.08-1.621m.8 3.931c.97 0 1.81-.337 2.5-.997.73-.698 1.05-1.408 1.27-2.934.23-1.522.13-2.236-.42-2.95-.51-.677-1.26-1.022-2.24-1.022-.97 0-1.81.337-2.5.997-.74.698-1.05 1.408-1.27 2.918-.08.5-.12.919-.12 1.276 0 .73.17 1.21.53 1.69.51.681 1.27 1.022 2.25 1.022"/><path d="m143.1 34.664c-.67 0-1.28.209-1.79.595l.08-.509h-1.88l-1.15 7.726h1.88l.68-4.579c.15-1.01.88-1.358 1.46-1.358l.78.312.15.119 1.53-1.555-.16-.14c-.47-.41-.98-.611-1.58-.611"/><path d="m153.09 36.451c.65 0 1.17.189 1.74.636l.14.111 1.34-1.338-.15-.147c-.75-.714-1.65-1.051-2.86-1.051-1.77 0-3.05.952-3.27 2.425-.09.607.03 1.141.35 1.539.35.447.91.71 1.63.771l1.29.115.56.193.04.303c-.07.481-.59.764-1.38.764-.88 0-1.49-.259-2.02-.87l-.13-.148-1.49 1.276.14.152c.85.915 1.91 1.379 3.18 1.379 1.92 0 3.35-.973 3.57-2.425.1-.698-.02-1.289-.36-1.711-.35-.423-.89-.661-1.63-.714l-1.2-.086c-.39-.033-.56-.136-.63-.222l-.05-.242c.03-.177.1-.71 1.19-.71"/><path d="m117.46 46.542l.87.336c.19.218.29.525.29.915l-.001.132h-2.73c.22-.85.8-1.383 1.58-1.383m2.41 4.805l-1.18-1.153-.12.106c-.46.415-1.08.673-1.61.673-.48 0-.85-.143-1.08-.406l-.28-.87.02-.209h4.6l.2-1.371.05-.549c0-.718-.22-1.359-.64-1.847-.52-.591-1.28-.919-2.16-.919-1.54 0-3.35 1.038-3.78 3.951-.2 1.354-.001 2.384.58 3.065.5.583 1.31.895 2.31.895 1.12 0 2.14-.427 2.97-1.243z"/><path d="m125.75 44.89l-1.71 2.236c-.19-.407-1.05-2.236-1.05-2.236h-2.16l1.96 3.766-3.24 3.968h2.22l1.83-2.318c.19.393 1.13 2.318 1.13 2.318h2.17l-2.04-3.923 3.12-3.811z"/><path d="m130.06 50.824l-.03-.156.001-.144s.51-3.426.62-4.16h1.07l.22-1.473h-1.08c.03-.144.09-.583.16-1.042h-1.83c-.07.471-.14.931-.16 1.042h-.74l-.22 1.473h.75l-.64 4.242-.02.386c0 .435.12.808.37 1.091.3.353.77.542 1.35.542h.92l.26-1.74h-.75z"/><path d="m141.44 49.833c-.15 1.03-.48 1.141-1.69 1.141-.47 0-.81-.103-.98-.295l-.12-.337.001-.111c.09-.615.73-.742 1.25-.742h1.58zm-.7-5.03c-1.22 0-2.1.365-2.78 1.14l-.11.132 1.3 1.112.11-.14c.29-.373.62-.5 1.35-.5.61 0 .96.082 1.12.258l.1.324-.001.173-.09.623h-1.92c-1.76 0-2.72 1.174-2.9 2.335l-.03.386c0 .504.16.947.46 1.3.44.505 1.13.772 2.01.772.78 0 1.33-.144 1.73-.456l-.05.37h1.82l.78-5.195c.11-.78-.02-1.395-.39-1.83-.47-.537-1.29-.804-2.5-.804"/><path d="m136.48 44.8c-.7 0-1.33.23-1.85.648l.08-.562h-1.83l-1.15 7.739h1.83l.68-4.596c.16-1.034.91-1.403 1.51-1.403l.66.213 1.52-1.522c-.43-.345-.91-.517-1.45-.517"/><path d="m147.2 40.674l-.04-.156.02-.144s.5-3.426.61-4.16h1.08l.22-1.474h-1.08c.02-.143.09-.586.16-1.042h-1.84c-.07.472-.13.932-.15 1.042h-.75l-.21 1.474h.74l-.63 4.242-.03.386c0 .435.13.808.37 1.091.31.353.77.542 1.35.542h.92l.26-1.74h-.75z"/></g></svg>