<svg xmlns="http://www.w3.org/2000/svg" width="993.74" height="723.67" viewBox="0 0 280.456 204.237" fill-rule="evenodd"><path d="m0 204.24v-204.24h280.46v204.24" fill="#005e70"/><g fill="#fff"><path d="m187.47 46.33c-.166-.032-.323-.063-.5-.083l-.197-.032c-.28-.043-.575-.075-.855-.095-.209-.02-.398-.032-.595-.051-.343-.02-.697-.02-1.032-.02-.158 0-.252 0-.398 0-.26 0-.544.02-.812.043-.158 0-.303.012-.457.032-.221.012-.437.043-.646.075l-.166.016-.197.032-.252.032c-.102.02-.209.043-.303.051-.158.032-.292.063-.449.095-.855.189-1.667.425-2.419.729-.386.146-.76.303-1.115.481-.28.146-.563.291-.835.449-.26.158-.512.303-.772.469-.126.094-.26.189-.398.28-.114.083-.228.166-.343.252-.229.177-.457.366-.658.552-.209.177-.406.355-.575.532-.158.158-.303.311-.457.481-.158.166-.292.323-.437.5-.165.189-.303.386-.449.583-.114.146-.209.303-.303.457-.083.102-.146.209-.209.311-.386.634-.729 1.304-1 2.02-.343.898-.603 1.868-.741 2.888-.043.323-.075.658-.095.989-.02.26-.02.52-.02.78 0 .197 0 .398 0 .583.02.209.043.406.063.603l.012.134c.043.24.075.469.114.697.02.083.032.177.051.26.043.189.095.386.134.563.083.24.146.481.221.709.102.28.197.552.311.824.177.425.367.835.583 1.221.134.221.252.437.386.658.102.165.221.335.311.489.158.197.303.406.449.595.158.197.323.398.469.575.209.228.386.437.595.626l.102.102c.165.146.335.311.532.481.146.114.272.24.425.355.146.114.28.228.449.343.189.126.386.272.595.406.221.134.449.28.69.418.489.272 1.032.532 1.615.772.221.095.457.177.69.252.228.083.481.158.721.221.426.126.875.228 1.344.323.386.075.772.134 1.178.189.398.043.812.083 1.253.103.221.012.418.02.646.02.102 0 .209 0 .303 0 .772 0 1.489-.02 2.159-.083l.126-.012c.26-.02.532-.051.772-.083.386-.043.741-.103 1.083-.165.221-.031.425-.075.646-.126.311-.063.615-.134.898-.209.221-.063.425-.126.626-.177.228-.075.469-.158.678-.229l.221-.075c.102-.031.252-.083.418-.158.221-.083.489-.189.792-.323.189-.075.386-.158.583-.252.177-.083.374-.177.563-.272.083-.043.166-.075.24-.114l-.004-4.724c-.051.031-.126.075-.166.103l-.323.197c-.335.189-.634.374-.958.552-.343.177-.678.355-1.02.512-.583.28-1.135.512-1.69.709-1.032.366-1.97.603-2.813.749-.102.02-.209.031-.292.051-.229.031-.457.063-.658.083-.335.032-.646.051-.918.075-.189 0-.366 0-.512 0-.343 0-.678 0-1.032-.031-.418-.031-.835-.075-1.261-.146-.697-.11-1.399-.28-2.065-.528-.102-.031-.209-.075-.303-.114-.063-.02-.126-.051-.189-.075-.114-.051-.221-.102-.323-.146-.228-.114-.469-.228-.69-.355-.102-.075-.221-.134-.335-.209-.118-.071-.236-.146-.339-.217-.134-.094-.26-.189-.406-.291-.126-.114-.252-.221-.366-.311l-.166-.146-.075-.075-.051-.043-.051-.051c-.221-.209-.406-.425-.603-.634-.095-.126-.189-.24-.272-.366-.095-.114-.177-.24-.228-.355-.083-.102-.158-.221-.221-.335-.095-.166-.197-.335-.272-.5-.075-.134-.134-.28-.189-.418-.102-.24-.209-.481-.26-.709-.063-.177-.114-.355-.146-.532-.146-.489-.209-.95-.221-1.336-.031-.146-.031-.28-.043-.406-.012-.189-.012-.355-.012-.489 0-.083 0-.189 0-.291.012-.28.032-.615.095-1.013.043-.24.083-.489.146-.761.051-.177.102-.355.158-.544.051-.166.114-.335.177-.512.043-.114.102-.228.166-.355.063-.158.134-.323.221-.481.063-.126.126-.24.209-.366.158-.272.323-.544.532-.804.075-.102.146-.197.221-.291.102-.114.209-.24.323-.355.043-.063.102-.134.165-.189.875-.867 1.844-1.521 2.845-1.982.166-.075.323-.134.489-.197.166-.063.311-.126.469-.177.189-.051.366-.114.532-.166.177-.043.343-.083.512-.126.166-.032.323-.063.5-.095.197-.043.366-.063.544-.083.189-.032.374-.051.552-.063.343-.032.69-.051 1.02-.051.114 0 .221 0 .323 0 .252.012.489.02.721.032.177.012.323.02.481.043.292.032.595.063.855.102.252.043.489.083.709.126.323.075.658.146.918.221.189.043.355.095.512.134.228.075.425.134.575.189.26.083.406.146.406.146.229.075.469.166.69.26.303.114.595.252.867.374.229.102.449.209.658.311.166.083.323.166.469.24.26.134.481.252.658.355l.488.26-.008-4.649c0 0-.28-.114-.792-.303-.221-.083-.488-.189-.772-.292-.166-.051-.343-.114-.532-.177-.158-.051-.292-.102-.469-.158-.166-.063-.343-.114-.544-.177-.134-.043-.272-.083-.418-.126l-.134-.043c-.134-.032-.272-.075-.418-.114-.165-.043-.343-.083-.512-.126-.126-.032-.228-.051-.335-.083-.197-.043-.374-.083-.563-.126-.213-.024-.41-.067-.599-.099m-23.266-4.838h36.934v34.755l-36.934.004v-34.759z"/><path d="m135.81 60.664v6.828h4.433c0 0 .095 0 .24-.012.146 0 .355-.012.615-.031.481-.043 1.115-.134 1.73-.343.552-.189 1.095-.469 1.513-.886.158-.158.292-.323.398-.489.343-.544.437-1.103.457-1.418.012-.134.012-.221.012-.221 0 0 0-.063 0-.166-.016-.134-.024-.386-.099-.658-.083-.323-.24-.697-.52-1.052-.051-.063-.102-.126-.166-.189-.126-.126-.26-.24-.406-.343-.24-.177-.512-.335-.812-.457-.398-.177-.843-.303-1.336-.398-.252-.051-.52-.083-.792-.114-.166-.012-.335-.02-.512-.032-.146-.008-.315-.02-.461-.02h-4.295"/><path d="m135.81 50.28v6.473h2.147c0 0 .146 0 .335-.012.146 0 .323-.012.481-.02.449-.032 1.052-.095 1.667-.26.114-.032.24-.075.355-.114.481-.166.938-.418 1.292-.772.292-.28.481-.583.603-.886.146-.374.197-.729.221-.981.02-.228.02-.366.02-.366 0 0 .012-.102-.012-.28-.012-.28-.075-.741-.292-1.178-.102-.209-.252-.418-.449-.615-.24-.24-.544-.418-.855-.563-.603-.26-1.292-.366-1.875-.406-.252-.02-.481-.02-.678-.02h-2.959"/><path d="m131.33 46.36v25.04h9.417c0 0 4.598.126 7.139-2.407 2.065-2.076 1.919-4.46 1.919-4.46 0 0 .158-2.49-1.773-4.409-1.615-1.627-3.7-2.053-3.7-2.053 0 0 .95-.449 1.667-1.166.323-.335 1.544-1.426 1.544-4.066 0-2.648-1.773-4.18-1.773-4.18 0 0-1.95-2.293-6.308-2.293l-8.132-.004m-9.692-4.87h36.934v34.755l-36.934.004v-34.759"/><path d="m93.25 60.664v6.828h4.44c0 0 .083 0 .228-.012.146 0 .355-.012.615-.031.489-.043 1.115-.134 1.73-.343.563-.189 1.103-.469 1.513-.886.158-.158.292-.323.406-.489.343-.544.425-1.103.449-1.418.012-.134.012-.221.012-.221 0 0 0-.063 0-.166 0-.134-.02-.386-.083-.658-.095-.323-.252-.697-.52-1.052-.051-.063-.114-.126-.177-.189-.126-.126-.252-.24-.398-.343-.24-.177-.52-.335-.823-.457-.398-.177-.843-.303-1.336-.398-.252-.051-.512-.083-.78-.114-.177-.012-.343-.02-.52-.032-.146-.008-.315-.02-.469-.02h-4.287"/><path d="m93.25 50.28v6.473h2.147c0 0 .146 0 .335-.012.146 0 .323-.012.481-.02.449-.032 1.052-.095 1.667-.26.114-.032.24-.075.355-.126.481-.166.938-.418 1.304-.772.28-.28.469-.583.595-.886.158-.374.209-.729.221-.981.02-.229.02-.367.02-.367 0 0 .012-.102 0-.28-.02-.28-.075-.741-.303-1.178-.102-.209-.252-.418-.449-.615-.24-.24-.532-.418-.843-.563-.607-.26-1.304-.351-1.887-.394-.252-.02-.481-.02-.678-.02h-2.963"/><path d="m88.77 46.36v25.04h9.421c0 0 4.598.126 7.132-2.419 2.064-2.064 1.919-4.452 1.919-4.452 0 0 .146-2.49-1.761-4.409-1.627-1.627-3.712-2.065-3.712-2.065 0 0 .938-.437 1.667-1.158.335-.335 1.533-1.426 1.533-4.066 0-2.66-1.761-4.18-1.761-4.18 0 0-1.939-2.293-6.308-2.293l-8.128.004m-9.685-4.87h36.934v34.755l-36.934.004v-34.759"/><path d="m62.44 110.34v51.44h-10.92v-51.44h-18.793v-9.87h48.5v9.87z"/><path d="m140.38 100.47l13.51 44.18h.18l12.04-44.18h11.1l-17.86 61.32h-10.38l-14.22-46.69h-.16l-14.21 46.69h-10.05l-18.1-61.32h11.95l11.52 44.18h.17l13.77-44.18z"/><path d="m214.45 98.9c19.14-.343 32.639 12.478 32.639 32.14 0 19.15-13.499 31.962-32.639 32.32-18.9 0-32.411-12.813-32.411-31.962-.012-19.672 13.51-32.493 32.411-32.493m.083 54.57c12.73 0 21.12-9.697 21.12-22.789 0-12.206-8.404-21.914-21.12-21.914-12.644 0-21.06 9.704-21.06 21.914 0 13.1 8.412 22.789 21.06 22.789z"/></g></svg>