<?xml version="1.0" encoding="UTF-8" standalone="no"?>
<svg id="Layer_1" xmlns:rdf="http://www.w3.org/1999/02/22-rdf-syntax-ns#" xmlns="http://www.w3.org/2000/svg" version="1.1" xml:space="preserve" height="554" width="554" enable-background="new 0 0 1024 768" y="0px" x="0px" xmlns:cc="http://creativecommons.org/ns#" xmlns:dc="http://purl.org/dc/elements/1.1/" viewBox="0 0 554 554"><g id="g3416" transform="translate(-235,-104.9)"><rect id="rect3418" height="554" width="554" y="104.9" x="235" fill="#ed3089"/></g><g id="g3420" fill="#fff" transform="translate(-235,-104.9)"><g id="g3422"><path id="path3424" d="m628.4 174.8c-0.4-0.1-0.8-0.1-1.2-0.2l-0.5-0.1c-0.7-0.1-1.4-0.2-2.1-0.2-0.5 0-1-0.1-1.4-0.1-0.9-0.1-1.7-0.1-2.5-0.1h-1c-0.7 0-1.4 0-2 0.1-0.4 0-0.7 0.1-1.1 0.1-0.5 0.1-1.1 0.1-1.6 0.2l-0.4 0.1-0.5 0.1-0.6 0.1c-0.3 0-0.5 0.1-0.8 0.1-0.4 0.1-0.7 0.1-1.1 0.2-2.2 0.5-4.1 1.1-6 1.8-0.9 0.4-1.9 0.8-2.7 1.2-0.7 0.4-1.4 0.7-2.1 1.1-0.6 0.4-1.3 0.8-1.9 1.2-0.3 0.2-0.7 0.5-1 0.7s-0.6 0.4-0.8 0.6c-0.6 0.4-1.1 0.9-1.6 1.4-0.5 0.4-1 0.9-1.4 1.3s-0.8 0.8-1.1 1.2c-0.4 0.4-0.7 0.8-1.1 1.2-0.4 0.5-0.7 0.9-1.1 1.4-0.3 0.4-0.5 0.7-0.8 1.1-0.2 0.3-0.3 0.5-0.5 0.8-0.9 1.5-1.8 3.2-2.5 5-0.9 2.2-1.5 4.6-1.8 7.1-0.1 0.8-0.2 1.6-0.2 2.4 0 0.6-0.1 1.3-0.1 1.9v1.4c0 0.5 0.1 1 0.1 1.5v0.3c0.1 0.6 0.2 1.1 0.3 1.7 0 0.2 0.1 0.4 0.1 0.7 0.1 0.5 0.2 0.9 0.3 1.4 0.2 0.6 0.3 1.2 0.5 1.7 0.2 0.7 0.5 1.4 0.8 2 0.4 1 0.9 2.1 1.4 3 0.3 0.6 0.6 1.1 0.9 1.6 0.3 0.4 0.5 0.8 0.8 1.2 0.4 0.5 0.7 1 1.1 1.5s0.8 1 1.2 1.4c0.5 0.6 1 1.1 1.4 1.5l0.3 0.3c0.4 0.4 0.8 0.8 1.3 1.2 0.3 0.3 0.7 0.6 1 0.9s0.7 0.6 1.1 0.8c0.5 0.3 0.9 0.7 1.5 1 0.5 0.4 1.1 0.7 1.7 1 1.2 0.7 2.5 1.3 4 1.9 0.5 0.2 1.1 0.4 1.7 0.6l1.8 0.6c1 0.3 2.1 0.6 3.3 0.8 0.9 0.2 1.9 0.3 2.9 0.5 1 0.1 2 0.2 3.1 0.3 0.5 0 1 0 1.6 0.1h0.7c1.9 0 3.7-0.1 5.3-0.2h0.3c0.6-0.1 1.3-0.1 1.9-0.2 0.9-0.1 1.8-0.3 2.7-0.4 0.5-0.1 1.1-0.2 1.6-0.3 0.8-0.2 1.5-0.3 2.2-0.5 0.5-0.1 1-0.3 1.5-0.4 0.6-0.2 1.1-0.4 1.7-0.5l0.5-0.2c0.3-0.1 0.6-0.2 1-0.4 0.5-0.2 1.2-0.5 2-0.8 0.4-0.2 0.9-0.4 1.4-0.6 0.4-0.2 0.9-0.4 1.4-0.7l0.6-0.3v-11.7c-0.1 0.1-0.3 0.2-0.4 0.3l-0.8 0.5c-0.8 0.5-1.6 0.9-2.3 1.4-0.9 0.5-1.7 0.9-2.5 1.3-1.4 0.7-2.8 1.2-4.2 1.7-2.5 0.9-4.9 1.5-6.9 1.8-0.2 0-0.5 0.1-0.7 0.1-0.6 0.1-1.1 0.2-1.6 0.2-0.8 0.1-1.6 0.1-2.2 0.2h-1.2c-0.8 0-1.7 0-2.5-0.1-1-0.1-2-0.2-3.1-0.4-1.7-0.3-3.4-0.7-5-1.3-0.2-0.1-0.5-0.2-0.7-0.3s-0.3-0.1-0.5-0.2c-0.3-0.1-0.5-0.2-0.8-0.4-0.6-0.3-1.1-0.6-1.7-0.9-0.3-0.2-0.5-0.3-0.8-0.5s-0.6-0.4-0.8-0.5c-0.3-0.2-0.7-0.5-1-0.7-0.3-0.3-0.6-0.5-0.9-0.8l-0.4-0.3-0.2-0.2-0.1-0.1-0.1-0.1c-0.5-0.5-1-1-1.4-1.6-0.2-0.3-0.5-0.6-0.7-0.9l-0.6-0.9c-0.2-0.3-0.3-0.5-0.5-0.8-0.2-0.4-0.5-0.8-0.7-1.2s-0.3-0.7-0.5-1c-0.2-0.6-0.5-1.2-0.6-1.7-0.1-0.4-0.3-0.9-0.4-1.3-0.3-1.2-0.5-2.3-0.6-3.3 0-0.4-0.1-0.7-0.1-1v-1.2-0.7c0-0.7 0.1-1.5 0.2-2.5 0.1-0.6 0.2-1.2 0.4-1.9 0.1-0.4 0.2-0.9 0.4-1.3 0.1-0.4 0.3-0.8 0.4-1.3l0.3-0.9 0.6-1.2c0.2-0.3 0.3-0.6 0.5-0.9 0.4-0.7 0.8-1.3 1.3-2 0.2-0.2 0.4-0.5 0.6-0.7 0.2-0.3 0.5-0.6 0.8-0.9l0.4-0.4c2.1-2.1 4.5-3.7 7-4.9 0.4-0.2 0.8-0.3 1.2-0.5s0.8-0.3 1.2-0.4 0.9-0.3 1.3-0.4l1.2-0.3 1.2-0.3c0.5-0.1 0.9-0.1 1.3-0.2 0.5-0.1 0.9-0.1 1.3-0.1 0.9-0.1 1.7-0.1 2.5-0.1h0.8c0.6 0 1.2 0 1.8 0.1 0.4 0 0.8 0.1 1.2 0.1l2.1 0.3c0.6 0.1 1.2 0.2 1.7 0.3 0.8 0.2 1.6 0.3 2.3 0.5 0.5 0.1 0.9 0.2 1.2 0.4 0.6 0.2 1 0.3 1.4 0.4 0.6 0.2 1 0.4 1 0.4 0.6 0.2 1.1 0.4 1.7 0.6l2.1 0.9c0.6 0.2 1.1 0.5 1.6 0.8l1.2 0.6c0.6 0.3 1.2 0.6 1.6 0.9l1.2 0.6v-11.4s-0.7-0.3-1.9-0.8c-0.5-0.2-1.2-0.4-1.9-0.7-0.4-0.1-0.8-0.3-1.3-0.5-0.4-0.1-0.7-0.3-1.1-0.4s-0.9-0.3-1.4-0.4c-0.3-0.1-0.7-0.2-1-0.3l-0.3-0.1c-0.3-0.1-0.7-0.2-1-0.3-0.4-0.1-0.8-0.2-1.3-0.3-0.3-0.1-0.5-0.1-0.8-0.2-0.5-0.1-0.9-0.2-1.4-0.3-0.7-0.3-1.2-0.4-1.6-0.5zm-57.2-11.9h90.8v85.4h-90.8v-85.4z"/><path id="path3426" d="m501.4 210v16.8h10.9 0.6c0.4 0 0.9 0 1.5-0.1 1.2-0.1 2.7-0.3 4.2-0.8 1.4-0.5 2.7-1.2 3.7-2.2 0.4-0.4 0.7-0.8 1-1.2 0.9-1.3 1.1-2.7 1.1-3.5v-0.5-0.4c0-0.3-0.1-1-0.2-1.6-0.2-0.8-0.6-1.7-1.3-2.6-0.1-0.2-0.3-0.3-0.4-0.5-0.3-0.3-0.6-0.6-1-0.9-0.6-0.4-1.3-0.8-2-1.1-1-0.4-2.1-0.7-3.3-1-0.6-0.1-1.3-0.2-1.9-0.3-0.4 0-0.8-0.1-1.3-0.1h-1.2-10.4z"/><path id="path3428" d="m501.4 184.5v15.9h5.3 0.8c0.4 0 0.8 0 1.2-0.1 1.1-0.1 2.6-0.2 4.1-0.7 0.3-0.1 0.6-0.2 0.9-0.3 1.2-0.4 2.3-1 3.2-1.9 0.7-0.7 1.2-1.5 1.5-2.2 0.4-0.9 0.5-1.8 0.6-2.4s0.1-0.9 0.1-0.9v-0.7c0-0.7-0.2-1.8-0.7-2.9-0.3-0.5-0.6-1-1.1-1.5-0.6-0.6-1.3-1-2.1-1.4-1.5-0.7-3.2-0.9-4.6-1-0.6 0-1.2-0.1-1.7-0.1-1.3 0.2-7.5 0.2-7.5 0.2z"/><path id="path3430" d="m490.4 174.9v61.5h23.2s11.3 0.3 17.5-5.9c5.1-5.1 4.7-10.9 4.7-10.9s0.4-6.1-4.3-10.8c-4-4-9.1-5.1-9.1-5.1s2.3-1.1 4.1-2.9c0.8-0.8 3.8-3.5 3.8-10s-4.3-10.3-4.3-10.3-4.8-5.6-15.5-5.6h-20.1zm-23.8-12h90.7v85.4h-90.7v-85.4z"/><path id="path3432" d="m396.9 210v16.8h10.9 0.6c0.4 0 0.9 0 1.5-0.1 1.2-0.1 2.7-0.3 4.3-0.8 1.4-0.5 2.7-1.2 3.7-2.2 0.4-0.4 0.7-0.8 1-1.2 0.9-1.3 1.1-2.7 1.1-3.5v-0.5-0.4c0-0.3-0.1-1-0.2-1.6-0.2-0.8-0.6-1.7-1.3-2.6-0.1-0.2-0.3-0.3-0.4-0.5-0.3-0.3-0.6-0.6-1-0.9-0.6-0.4-1.3-0.8-2-1.1-1-0.4-2.1-0.7-3.3-1-0.6-0.1-1.3-0.2-1.9-0.3-0.4 0-0.8-0.1-1.3-0.1h-1.2-10.5z"/><path id="path3434" d="m396.9 184.5v15.9h5.3 0.8c0.4 0 0.8 0 1.2-0.1 1.1-0.1 2.6-0.2 4.1-0.7 0.3-0.1 0.6-0.2 0.9-0.3 1.2-0.4 2.3-1 3.2-1.9 0.7-0.7 1.2-1.5 1.5-2.2 0.4-0.9 0.5-1.8 0.6-2.4v-0.9-0.7c0-0.7-0.2-1.8-0.7-2.9-0.3-0.5-0.6-1-1.1-1.5-0.6-0.6-1.3-1-2.1-1.4-1.5-0.7-3.2-0.9-4.6-1-0.6 0-1.2-0.1-1.7-0.1-1.2 0.2-7.4 0.2-7.4 0.2z"/><path id="path3436" d="m385.9 174.9v61.5h23.1s11.3 0.3 17.5-5.9c5.1-5.1 4.7-10.9 4.7-10.9s0.4-6.1-4.3-10.8c-4-4-9.1-5.1-9.1-5.1s2.3-1.1 4.1-2.9c0.8-0.8 3.8-3.5 3.8-10s-4.3-10.3-4.3-10.3-4.8-5.6-15.5-5.6h-20zm-23.8-12h90.7v85.4h-90.7v-85.4z"/></g><g id="g3438"><rect id="rect3440" height="316.5" width="72.9" y="285.3" x="362.2"/><rect id="rect3442" height="316.5" width="73.1" y="285.3" x="475.3"/><g id="g3444"><rect id="rect3446" height="235.5" width="73.1" y="285.3" x="588.7"/><rect id="rect3448" height="65.1" width="73.1" y="536.8" x="588.7"/></g></g></g></svg>
