<?xml version="1.0" encoding="UTF-8" standalone="no"?>
<svg id="svg3682" xmlns:rdf="http://www.w3.org/1999/02/22-rdf-syntax-ns#" xmlns="http://www.w3.org/2000/svg" height="745.35" width="1014.7" version="1.0" xmlns:cc="http://creativecommons.org/ns#" xmlns:xlink="http://www.w3.org/1999/xlink" xmlns:dc="http://purl.org/dc/elements/1.1/">
 <defs id="defs3684">
  <clipPath id="clipPath2804">
   <path id="path2806" d="m536.3 203.17c-2.305-0.112-4.403-1.341-5.902-3.214-3.21-0.202-6.175-1.561-8.543-3.679-0.102 0.005-0.205 0.007-0.31 0.001-0.715-0.032-1.382-0.307-1.934-0.749-0.151 0.003-0.303 0.003-0.457-0.003-1.938-0.087-3.705-1.045-4.976-2.509-0.4 0.144-0.814 0.261-1.243 0.347-0.414 2.406-2.336 4.137-4.68 4.029-1.554-0.071-2.948-0.937-3.86-2.223-0.677 0.203-1.394 0.297-2.138 0.264-1.647-0.074-3.18-0.754-4.449-1.849-0.606 0.189-1.251 0.277-1.919 0.247-0.692-0.031-1.363-0.185-1.994-0.442-1.147 1.059-2.647 1.665-4.3 1.59-1.551-0.07-2.985-0.728-4.127-1.769-0.401 0.335-0.855 0.596-1.349 0.763-1.301 1.313-3.011 2.067-4.895 1.98-1.042-0.048-2.037-0.348-2.945-0.848-1.152 0.32-2.368 0.468-3.628 0.41-2.913-0.134-5.607-1.32-7.794-3.215-0.101 0.069-0.209 0.128-0.318 0.183-0.01 1.571-1.284 2.841-2.856 2.841-1.452 0-2.638-1.086-2.821-2.489-0.402 0.133-0.824 0.222-1.269 0.222-0.96 0-1.83-0.346-2.527-0.9-1.073 1.278-2.683 2.092-4.482 2.092-1.833 0-3.468-0.843-4.542-2.16-0.736 0.334-1.551 0.523-2.411 0.523-1.712 0-3.246-0.737-4.318-1.908-0.648 1.216-1.915 2.054-3.391 2.054-1.019 0-1.939-0.403-2.628-1.047-0.411 0.693-1.159 1.163-2.023 1.163-0.234 0-0.455-0.044-0.668-0.108 0.011 0.093 0.028 0.186 0.028 0.282 0 1.302-1.055 2.357-2.358 2.357-1.089 0-1.996-0.742-2.268-1.746-0.343 0.197-0.736 0.318-1.161 0.318-1.299 0-2.351-1.051-2.357-2.349-1.26-0.016-2.16 0.129-3.353-1.224-0.498 0.13-1.021 0.19-1.56 0.165-1.722-0.076-3.275-0.972-4.386-2.349-0.953 0.365-2.007 0.547-3.115 0.498-0.918-0.039-1.799-0.234-2.617-0.554-1.242 1.539-2.975 2.45-4.895 2.364-1.462-0.065-2.818-0.705-3.931-1.731-0.544 0.179-1.116 0.263-1.711 0.237-0.14-0.006-0.279-0.021-0.415-0.038-1.12 2.706-3.394 4.487-6.016 4.364-3.005-0.141-5.548-2.738-6.42-6.2v-5.218c0.18-0.697 0.431-1.35 0.742-1.948-0.108-0.107 0-54.56 0-54.56h186.81v72.479c-0.309 0.081-0.637 0.119-0.978 0.104-0.353-0.015-0.697-0.087-1.023-0.206-0.791 1.799-2.524 2.986-4.573 2.891-1.209-0.056-2.33-0.552-3.23-1.33-0.783 0.285-1.635 0.421-2.53 0.379-2.231-0.102-4.25-1.28-5.606-3.042-1.088 0.369-2.287 0.545-3.552 0.488-1.245-0.056-2.434-0.332-3.525-0.784-0.852 0.561-1.837 0.918-2.903 1.014-1.015 3.394-3.756 5.75-7.064 5.75-0.114 0-0.226-0.003-0.34-0.008"/>
  </clipPath>
  <clipPath id="clipPath2814">
   <path id="path2816" d="m-0.00088501-1.4931h1.0207v2.9663h-1.0207v-2.9663z"/>
  </clipPath>
  <clipPath id="clipPath2842">
   <path id="path2844" d="m22.677 163.28h154.29v21.12c-1.406 0.51-2.982 0.817-4.651 0.864-3.475 0.096-6.608-0.958-8.694-2.688-1.741 1.967-4.652 3.366-8.037 3.671-2.765 1.355-6.065 2.191-9.634 2.29-0.898 0.024-1.781 0-2.646-0.066-2.214 1.461-5.13 2.393-8.349 2.482-3.136 0.085-6.031-0.639-8.296-1.913-0.914 1.734-3.217 3.007-5.952 3.083-1.036 0.028-2.017-0.121-2.896-0.407 0.862 0.829 1.387 1.849 1.418 2.967 0.058 2.088-1.607 3.931-4.058 4.84 0.599 0.486 0.969 1.124 0.989 1.828 0.024 0.905-0.531 1.729-1.424 2.288 0.623 0.44 1.014 1.047 1.032 1.726 0.04 1.408-1.524 2.591-3.492 2.646s-3.594-1.041-3.634-2.448c-0.019-0.681 0.339-1.308 0.935-1.781-0.922-0.508-1.522-1.299-1.548-2.205-0.019-0.704 0.315-1.362 0.886-1.882-1.421-0.436-2.605-1.188-3.371-2.141-1.605 0.314-3.281 0.508-5.009 0.556-1.994 0.054-3.929-0.085-5.774-0.389-3.585 4.823-10.566 8.209-18.683 8.434-0.896 0.025-1.78 0.005-2.65-0.046-1.713 2.861-5.624 4.929-10.227 5.055-5.356 0.148-9.918-2.371-11.229-5.899-2.008 1.266-4.286 2.315-6.762 3.106 0.016 0.257 0.028 0.512 0.036 0.772 0.325 11.711-8.901 22.102-22.567 27.296v-73.159z"/>
  </clipPath>
  <clipPath id="clipPath2852">
   <path id="path2854" d="m0-1.0194h1.1883v2.0377h-1.1883v-2.0377z"/>
  </clipPath>
  <clipPath id="clipPath3908">
   <path id="path3910" d="m22.678 163.57v-140.9h548.94v140.51c-70.44 20.798-167.71 33.661-275.14 33.661-106.75 0-203.48-12.703-273.81-33.271"/>
  </clipPath>
  <clipPath id="clipPath3918">
   <path id="path3920" d="m0-1.2549h1v2.5098h-1v-2.5098z"/>
  </clipPath>
  <clipPath id="clipPath3312">
   <path id="path3314" d="m155.95 426.56h45.344v30.229h-45.344v-30.229z"/>
  </clipPath>
  <clipPath id="clipPath4070">
   <path id="path4072" d="m329.81 111.08h41.527v10.047h-41.527v-10.047z"/>
  </clipPath>
  <linearGradient id="linearGradient4994" gradientUnits="userSpaceOnUse" gradientTransform="matrix(9.9445 109.48 109.48 -9.9445 539.68 111.37)">
   <stop id="stop2820" stop-color="#60ba52" offset="0"/>
   <stop id="stop2822" stop-color="#183424" offset="1"/>
  </linearGradient>
  <linearGradient id="linearGradient4996" gradientUnits="userSpaceOnUse" gradientTransform="matrix(11.005 104.7 104.7 -11.005 85.701 125.72)">
   <stop id="stop2858" stop-color="#60ba52" offset="0"/>
   <stop id="stop2860" stop-color="#183424" offset="1"/>
  </linearGradient>
  <linearGradient id="linearGradient4998" gradientUnits="userSpaceOnUse" gradientTransform="matrix(-.0000305 -219.32 -219.32 .0000305 296.49 196.84)">
   <stop id="stop3924" stop-color="#9dd48a" offset="0"/>
   <stop id="stop3926" stop-color="#60ba52" offset=".39999"/>
   <stop id="stop3928" stop-color="#60ba52" offset="1"/>
  </linearGradient>
 </defs>
 <g id="layer1" transform="translate(-7.3639 -3.1076)">
  <g id="g4912" transform="matrix(29.245 0 0 29.245 -5806.3 -10510)">
   <path id="path3306" d="m198.79 359.49h34.696v25.486h-34.696v-25.486z" fill="#5b1947"/>
   <g id="g3308" transform="matrix(1.25 0 0 -1.25 -7.3102 924.06)">
    <g id="g3310" clip-path="url(#clipPath3312)">
     <g id="g3316" transform="translate(178.36 445.45)">
      <path id="path3318" d="m0 0v-0.64h0.415s0.008 0.001 0.022 0.001c0.014 0.001 0.034 0.001 0.058 0.003 0.045 0.005 0.104 0.013 0.162 0.032 0.052 0.018 0.103 0.044 0.142 0.083 0.015 0.015 0.027 0.031 0.037 0.046 0.032 0.051 0.041 0.104 0.042 0.133 0.001 0.013 0.001 0.02 0.001 0.02v0.016c0 0.013-0.002 0.036-0.008 0.062-0.008 0.03-0.023 0.066-0.049 0.098-0.005 0.006-0.01 0.012-0.016 0.018-0.011 0.011-0.024 0.022-0.037 0.032-0.023 0.017-0.049 0.031-0.077 0.043-0.037 0.017-0.079 0.029-0.125 0.037-0.023 0.005-0.048 0.008-0.074 0.011-0.015 0.001-0.031 0.002-0.048 0.003-0.014 0.001-0.029 0.002-0.043 0.002h-0.402" fill="#fff"/>
     </g>
     <g id="g3320" transform="translate(178.36 446.42)">
      <path id="path3322" d="m0 0v-0.606h0.201 0.031c0.014 0.001 0.031 0.002 0.046 0.002 0.041 0.004 0.098 0.009 0.155 0.025 0.011 0.003 0.023 0.007 0.034 0.011 0.045 0.016 0.088 0.039 0.121 0.072 0.027 0.026 0.044 0.055 0.056 0.084 0.014 0.034 0.019 0.067 0.021 0.091 0.002 0.021 0.002 0.034 0.002 0.034s0 0.01-0.001 0.026c-0.001 0.026-0.006 0.069-0.027 0.111-0.01 0.02-0.024 0.039-0.043 0.057-0.022 0.022-0.05 0.04-0.079 0.053-0.057 0.024-0.121 0.034-0.176 0.038-0.024 0.002-0.045 0.002-0.064 0.002h-0.277" fill="#fff"/>
     </g>
     <g id="g3324" transform="translate(174.37 445.45)">
      <path id="path3326" d="m0 0v-0.64h0.415s0.009 0.001 0.022 0.001c0.014 0.001 0.034 0.001 0.058 0.003 0.045 0.005 0.104 0.013 0.162 0.032 0.052 0.018 0.103 0.044 0.141 0.083 0.016 0.015 0.028 0.031 0.038 0.046 0.032 0.051 0.041 0.104 0.042 0.133 0.001 0.013 0.001 0.02 0.001 0.02v0.016c0 0.013-0.002 0.036-0.008 0.062-0.008 0.03-0.023 0.066-0.049 0.098-0.005 0.006-0.01 0.012-0.016 0.018-0.011 0.011-0.024 0.022-0.037 0.032-0.023 0.017-0.049 0.031-0.077 0.043-0.037 0.017-0.079 0.029-0.125 0.037-0.023 0.005-0.048 0.008-0.074 0.011-0.016 0.001-0.031 0.002-0.048 0.003-0.014 0.001-0.029 0.002-0.043 0.002h-0.402" fill="#fff"/>
     </g>
     <g id="g3328" transform="translate(174.37 446.42)">
      <path id="path3330" d="m0 0v-0.606h0.201 0.031c0.014 0.001 0.031 0.002 0.045 0.002 0.042 0.004 0.099 0.009 0.156 0.025 0.011 0.003 0.023 0.007 0.034 0.011 0.045 0.016 0.088 0.039 0.121 0.072 0.027 0.026 0.044 0.055 0.056 0.084 0.014 0.034 0.019 0.067 0.021 0.091 0.002 0.021 0.002 0.034 0.002 0.034v0.026c-0.002 0.026-0.008 0.069-0.028 0.111-0.01 0.02-0.024 0.039-0.043 0.057-0.022 0.022-0.05 0.04-0.079 0.053-0.057 0.024-0.122 0.034-0.176 0.038-0.024 0.002-0.046 0.002-0.064 0.002h-0.277" fill="#fff"/>
     </g>
     <g fill="#fff">
      <path id="path3332" d="m181.02 447.24h3.458v-3.254h-3.458v3.254zm2.179-0.453c-0.015 0.002-0.031 0.005-0.047 0.007l-0.019 0.003c-0.026 0.004-0.053 0.007-0.08 0.009-0.018 0.002-0.037 0.003-0.055 0.004-0.033 0.003-0.065 0.003-0.096 0.003h-0.037c-0.026-0.001-0.051-0.002-0.076-0.003-0.015-0.001-0.028-0.003-0.043-0.004-0.02-0.002-0.04-0.004-0.061-0.006l-0.016-0.003-0.019-0.002-0.023-0.004c-0.01-0.002-0.02-0.003-0.029-0.005-0.014-0.003-0.027-0.005-0.041-0.008-0.082-0.018-0.158-0.041-0.228-0.068-0.036-0.014-0.071-0.029-0.104-0.045-0.027-0.014-0.054-0.028-0.079-0.042-0.025-0.015-0.048-0.029-0.071-0.044l-0.039-0.027c-0.01-0.008-0.021-0.015-0.031-0.023-0.022-0.017-0.043-0.034-0.063-0.052-0.019-0.016-0.037-0.033-0.053-0.05-0.015-0.014-0.029-0.029-0.043-0.044-0.014-0.016-0.028-0.031-0.041-0.048-0.014-0.017-0.028-0.036-0.042-0.054-0.01-0.014-0.02-0.028-0.029-0.043-0.007-0.01-0.013-0.019-0.019-0.029-0.036-0.06-0.068-0.123-0.093-0.19-0.033-0.084-0.056-0.174-0.069-0.27-0.004-0.03-0.007-0.061-0.009-0.093-0.001-0.024-0.002-0.048-0.002-0.073 0-0.018 0-0.037 0.001-0.055 0.001-0.019 0.003-0.037 0.005-0.056l0.001-0.013c0.003-0.022 0.006-0.044 0.011-0.065 0.001-0.008 0.003-0.017 0.004-0.025 0.004-0.018 0.009-0.035 0.013-0.052 0.006-0.023 0.013-0.045 0.02-0.066 0.009-0.027 0.018-0.052 0.029-0.078 0.016-0.039 0.035-0.078 0.054-0.114 0.012-0.021 0.024-0.041 0.036-0.061 0.01-0.016 0.02-0.031 0.031-0.046 0.013-0.019 0.027-0.038 0.041-0.056 0.014-0.019 0.03-0.037 0.044-0.054 0.019-0.021 0.037-0.04 0.055-0.058l0.01-0.009c0.015-0.015 0.031-0.03 0.049-0.046 0.013-0.011 0.026-0.022 0.04-0.033s0.027-0.021 0.042-0.032c0.018-0.012 0.036-0.025 0.055-0.038 0.021-0.013 0.043-0.026 0.066-0.039 0.045-0.026 0.096-0.05 0.151-0.072 0.021-0.009 0.043-0.017 0.064-0.024 0.023-0.008 0.045-0.015 0.069-0.021 0.039-0.012 0.081-0.022 0.125-0.031 0.035-0.006 0.072-0.012 0.11-0.017 0.038-0.004 0.077-0.008 0.118-0.01 0.02-0.001 0.039-0.002 0.06-0.002h0.028c0.073 0 0.14 0.002 0.202 0.008l0.013 0.001c0.024 0.002 0.048 0.005 0.071 0.007 0.036 0.005 0.07 0.01 0.103 0.016 0.02 0.003 0.04 0.008 0.059 0.012 0.029 0.006 0.058 0.013 0.085 0.02 0.02 0.005 0.039 0.011 0.058 0.017 0.022 0.006 0.043 0.013 0.064 0.02l0.019 0.007c0.01 0.004 0.023 0.008 0.039 0.015 0.021 0.008 0.046 0.018 0.075 0.03 0.017 0.007 0.035 0.015 0.054 0.024 0.017 0.008 0.035 0.016 0.053 0.025 0.007 0.004 0.015 0.007 0.022 0.011v0.444c-0.005-0.003-0.01-0.007-0.015-0.01l-0.031-0.018c-0.03-0.018-0.059-0.036-0.089-0.052-0.032-0.017-0.064-0.033-0.095-0.048-0.055-0.026-0.107-0.048-0.158-0.066-0.097-0.035-0.186-0.057-0.264-0.07-0.009-0.002-0.019-0.004-0.027-0.005-0.022-0.003-0.043-0.006-0.063-0.008-0.03-0.004-0.059-0.005-0.085-0.007-0.017 0-0.033-0.001-0.047-0.001-0.032 0-0.064 0.001-0.097 0.004-0.039 0.002-0.078 0.007-0.118 0.013-0.064 0.011-0.128 0.027-0.191 0.05-0.01 0.003-0.019 0.007-0.028 0.011-0.006 0.002-0.013 0.005-0.018 0.007-0.011 0.005-0.021 0.009-0.031 0.014-0.022 0.01-0.043 0.021-0.064 0.033-0.011 0.006-0.021 0.012-0.032 0.019-0.01 0.007-0.021 0.014-0.031 0.021-0.013 0.009-0.026 0.018-0.039 0.028-0.011 0.009-0.024 0.019-0.034 0.028l-0.015 0.014-0.007 0.006-0.004 0.005-0.006 0.005c-0.02 0.019-0.038 0.039-0.055 0.059-0.009 0.012-0.018 0.023-0.026 0.034s-0.016 0.022-0.023 0.033c-0.007 0.01-0.013 0.021-0.019 0.032-0.01 0.015-0.018 0.031-0.026 0.046-0.006 0.014-0.012 0.027-0.018 0.04-0.009 0.022-0.017 0.045-0.024 0.066-0.006 0.017-0.01 0.034-0.014 0.049-0.012 0.047-0.018 0.089-0.021 0.125-0.002 0.014-0.002 0.027-0.003 0.039-0.001 0.018-0.001 0.033-0.001 0.045 0 0.008 0 0.018 0.001 0.028 0 0.026 0.002 0.058 0.008 0.094 0.003 0.023 0.008 0.047 0.014 0.072 0.003 0.016 0.008 0.033 0.013 0.05 0.005 0.016 0.011 0.032 0.017 0.048 0.004 0.011 0.009 0.022 0.014 0.033 0.006 0.015 0.014 0.03 0.021 0.046 0.006 0.011 0.013 0.022 0.019 0.034 0.015 0.025 0.031 0.05 0.05 0.075 0.007 0.009 0.014 0.018 0.021 0.027 0.01 0.011 0.02 0.023 0.03 0.034 0.005 0.006 0.01 0.011 0.016 0.017 0.081 0.081 0.173 0.142 0.267 0.185 0.015 0.007 0.03 0.013 0.045 0.019s0.03 0.011 0.045 0.016c0.017 0.006 0.033 0.011 0.05 0.015 0.015 0.005 0.031 0.009 0.046 0.012 0.016 0.004 0.032 0.007 0.047 0.01 0.017 0.003 0.035 0.006 0.052 0.008s0.034 0.004 0.05 0.005c0.033 0.003 0.065 0.005 0.096 0.005 0.01 0 0.02 0 0.03-0.001 0.023 0 0.046-0.001 0.068-0.002 0.015-0.001 0.03-0.002 0.044-0.004 0.028-0.002 0.056-0.006 0.081-0.01 0.023-0.003 0.045-0.007 0.066-0.011 0.031-0.007 0.061-0.014 0.087-0.02 0.017-0.005 0.033-0.009 0.047-0.014 0.021-0.006 0.039-0.012 0.054-0.017 0.024-0.008 0.038-0.013 0.038-0.013 0.022-0.008 0.043-0.017 0.064-0.025 0.028-0.011 0.055-0.023 0.081-0.035 0.022-0.01 0.042-0.02 0.061-0.029 0.016-0.008 0.03-0.016 0.045-0.023 0.024-0.012 0.044-0.024 0.061-0.033l0.046-0.025v0.436s-0.028 0.011-0.075 0.029c-0.02 0.008-0.045 0.017-0.073 0.027-0.015 0.005-0.032 0.011-0.049 0.017-0.014 0.005-0.028 0.01-0.043 0.015-0.016 0.005-0.034 0.011-0.051 0.016-0.013 0.004-0.026 0.008-0.039 0.012l-0.012 0.003c-0.013 0.004-0.027 0.007-0.04 0.011l-0.048 0.012c-0.01 0.003-0.021 0.006-0.031 0.008-0.018 0.004-0.035 0.008-0.053 0.011-0.018 0.004-0.036 0.007-0.054 0.011"/>
      <path id="path3334" d="m177.03 447.24h3.458v-3.254h-3.458v3.254zm0.907-0.457v-2.343h0.882s0.431-0.012 0.668 0.225c0.194 0.194 0.18 0.418 0.18 0.418s0.014 0.233-0.165 0.412c-0.153 0.153-0.348 0.193-0.348 0.193s0.088 0.041 0.156 0.109c0.031 0.032 0.144 0.134 0.144 0.38 0 0.249-0.166 0.392-0.166 0.392s-0.181 0.214-0.59 0.214h-0.761"/>
      <path id="path3336" d="m173.05 447.24h3.458v-3.254h-3.458v3.254zm0.907-0.457v-2.343h0.882s0.43-0.012 0.668 0.225c0.193 0.194 0.179 0.418 0.179 0.418s0.014 0.233-0.165 0.412c-0.152 0.153-0.347 0.193-0.347 0.193s0.088 0.041 0.155 0.109c0.032 0.032 0.145 0.134 0.145 0.38 0 0.249-0.166 0.392-0.166 0.392s-0.181 0.214-0.59 0.214h-0.761"/>
     </g>
     <g id="g3338" transform="translate(185.1 437.76)">
      <path id="path3340" d="m0 0c-0.157 0.268-0.24 0.57-0.24 0.885 0 0.97 0.759 1.729 1.729 1.729 0.631 0 1.212-0.343 1.504-0.871l-2.993-1.743zm-5.17 0c-0.157 0.268-0.24 0.57-0.24 0.885 0 0.97 0.76 1.729 1.729 1.729 0.632 0 1.212-0.343 1.504-0.871l-2.993-1.743zm9.631 1.131-0.02 0.152c-0.188 1.473-1.457 2.585-2.952 2.585-1.103 0-2.069-0.603-2.585-1.495-0.516 0.898-1.49 1.495-2.585 1.495-0.945 0-1.788-0.442-2.335-1.13v1.115h-0.23c-0.949 0-1.795-0.447-2.339-1.141-0.543 0.71-1.399 1.17-2.36 1.17-0.64 0-1.243-0.195-1.743-0.554v2.129h-1.254v-6.287h-0.227c-0.954 0-1.729 0.769-1.729 1.715v1.44h1.361v1.239h-1.361v1.894h-1.241v-4.573c0-1.637 1.332-2.969 2.97-2.969h1.481v2.997c0 0.97 0.765 1.729 1.743 1.729 0.953 0 1.729-0.775 1.729-1.729v-2.997h1.241v2.969c0 0.945 0.776 1.715 1.729 1.715h0.126c-0.343-0.486-0.544-1.077-0.544-1.715 0-1.637 1.338-2.969 2.983-2.969h2.411v1.24h-2.411c-0.127 0-0.257 0.015-0.383 0.043l2.577 1.484c0.104-1.543 1.399-2.767 2.976-2.767h2.411v1.24h-2.411c-0.128 0-0.257 0.015-0.383 0.043l3.222 1.856 0.133 0.076" fill="#e72a9a"/>
     </g>
    </g>
   </g>
   <g id="g2800" transform="matrix(1.25 0 0 -1.25 254.61 698.05)">
    <g id="g2802" clip-path="url(#clipPath2804)">
     <g id="g2808">
      <g id="g2810">
       <g id="g2812" clip-path="url(#clipPath2814)">
        <path id="path2824" fill="url(#linearGradient4994)" d="m536.3 203.17c-2.305-0.112-4.403-1.341-5.902-3.214-3.21-0.202-6.175-1.561-8.543-3.679-0.102 0.005-0.205 0.007-0.31 0.001-0.715-0.032-1.382-0.307-1.934-0.749-0.151 0.003-0.303 0.003-0.457-0.003-1.938-0.087-3.705-1.045-4.976-2.509-0.4 0.144-0.814 0.261-1.243 0.347-0.414 2.406-2.336 4.137-4.68 4.029-1.554-0.071-2.948-0.937-3.86-2.223-0.677 0.203-1.394 0.297-2.138 0.264-1.647-0.074-3.18-0.754-4.449-1.849-0.606 0.189-1.251 0.277-1.919 0.247-0.692-0.031-1.363-0.185-1.994-0.442-1.147 1.059-2.647 1.665-4.3 1.59-1.551-0.07-2.985-0.728-4.127-1.769-0.401 0.335-0.855 0.596-1.349 0.763-1.301 1.313-3.011 2.067-4.895 1.98-1.042-0.048-2.037-0.348-2.945-0.848-1.152 0.32-2.368 0.468-3.628 0.41-2.913-0.134-5.607-1.32-7.794-3.215-0.101 0.069-0.209 0.128-0.318 0.183-0.01 1.571-1.284 2.841-2.856 2.841-1.452 0-2.638-1.086-2.821-2.489-0.402 0.133-0.824 0.222-1.269 0.222-0.96 0-1.83-0.346-2.527-0.9-1.073 1.278-2.683 2.092-4.482 2.092-1.833 0-3.468-0.843-4.542-2.16-0.736 0.334-1.551 0.523-2.411 0.523-1.712 0-3.246-0.737-4.318-1.908-0.648 1.216-1.915 2.054-3.391 2.054-1.019 0-1.939-0.403-2.628-1.047-0.411 0.693-1.159 1.163-2.023 1.163-0.234 0-0.455-0.044-0.668-0.108 0.011 0.093 0.028 0.186 0.028 0.282 0 1.302-1.055 2.357-2.358 2.357-1.089 0-1.996-0.742-2.268-1.746-0.343 0.197-0.736 0.318-1.161 0.318-1.299 0-2.351-1.051-2.357-2.349-1.26-0.016-2.16 0.129-3.353-1.224-0.498 0.13-1.021 0.19-1.56 0.165-1.722-0.076-3.275-0.972-4.386-2.349-0.953 0.365-2.007 0.547-3.115 0.498-0.918-0.039-1.799-0.234-2.617-0.554-1.242 1.539-2.975 2.45-4.895 2.364-1.462-0.065-2.818-0.705-3.931-1.731-0.544 0.179-1.116 0.263-1.711 0.237-0.14-0.006-0.279-0.021-0.415-0.038-1.12 2.706-3.394 4.487-6.016 4.364-3.005-0.141-5.548-2.738-6.42-6.2v-5.218c0.18-0.697 0.431-1.35 0.742-1.948-0.108-0.107 0-54.56 0-54.56h186.81v72.479c-0.309 0.081-0.637 0.119-0.978 0.104-0.353-0.015-0.697-0.087-1.023-0.206-0.791 1.799-2.524 2.986-4.573 2.891-1.209-0.056-2.33-0.552-3.23-1.33-0.783 0.285-1.635 0.421-2.53 0.379-2.231-0.102-4.25-1.28-5.606-3.042-1.088 0.369-2.287 0.545-3.552 0.488-1.245-0.056-2.434-0.332-3.525-0.784-0.852 0.561-1.837 0.918-2.903 1.014-1.015 3.394-3.756 5.75-7.064 5.75-0.114 0-0.226-0.003-0.34-0.008"/>
       </g>
      </g>
     </g>
    </g>
   </g>
   <g id="g2838" transform="matrix(1.25 0 0 -1.25 254.61 698.05)">
    <g id="g2840" clip-path="url(#clipPath2842)">
     <g id="g2846">
      <g id="g2848">
       <g id="g2850" clip-path="url(#clipPath2852)">
        <path id="path2862" fill="url(#linearGradient4996)" d="m22.677 163.28h154.29v21.12c-1.406 0.51-2.982 0.817-4.651 0.864-3.475 0.096-6.608-0.958-8.694-2.688-1.741 1.967-4.652 3.366-8.037 3.671-2.765 1.355-6.065 2.191-9.634 2.29-0.898 0.024-1.781 0-2.646-0.066-2.214 1.461-5.13 2.393-8.349 2.482-3.136 0.085-6.031-0.639-8.296-1.913-0.914 1.734-3.217 3.007-5.952 3.083-1.036 0.028-2.017-0.121-2.896-0.407 0.862 0.829 1.387 1.849 1.418 2.967 0.058 2.088-1.607 3.931-4.058 4.84 0.599 0.486 0.969 1.124 0.989 1.828 0.024 0.905-0.531 1.729-1.424 2.288 0.623 0.44 1.014 1.047 1.032 1.726 0.04 1.408-1.524 2.591-3.492 2.646s-3.594-1.041-3.634-2.448c-0.019-0.681 0.339-1.308 0.935-1.781-0.922-0.508-1.522-1.299-1.548-2.205-0.019-0.704 0.315-1.362 0.886-1.882-1.421-0.436-2.605-1.188-3.371-2.141-1.605 0.314-3.281 0.508-5.009 0.556-1.994 0.054-3.929-0.085-5.774-0.389-3.585 4.823-10.566 8.209-18.683 8.434-0.896 0.025-1.78 0.005-2.65-0.046-1.713 2.861-5.624 4.929-10.227 5.055-5.356 0.148-9.918-2.371-11.229-5.899-2.008 1.266-4.286 2.315-6.762 3.106 0.016 0.257 0.028 0.512 0.036 0.772 0.325 11.711-8.901 22.102-22.567 27.296v-73.159z"/>
       </g>
      </g>
     </g>
    </g>
   </g>
   <g id="g3904" transform="matrix(1.25 0 0 -1.25 254.61 698.05)">
    <g id="g3906" clip-path="url(#clipPath3908)">
     <g id="g3912">
      <g id="g3914">
       <g id="g3916" clip-path="url(#clipPath3918)">
        <path id="path3930" fill="url(#linearGradient4998)" d="m22.678 163.57v-140.9h548.94v140.51c-70.44 20.798-167.71 33.661-275.14 33.661-106.75 0-203.48-12.703-273.81-33.271"/>
       </g>
      </g>
     </g>
    </g>
   </g>
   <g id="g4066" transform="matrix(1.25 0 0 -1.25 254.61 698.05)">
    <g id="g4068" clip-path="url(#clipPath4070)">
     <g id="g4074" transform="translate(379.69 214.82)">
      <path id="path4076" d="m0 0v-3.647c0-0.432 0.084-0.783 0.25-1.052 0.165-0.271 0.378-0.403 0.637-0.397 0.22 0.005 0.511 0.141 0.873 0.41 0.085 0.066 0.169 0.101 0.255 0.104 0.136 0.003 0.26-0.1 0.374-0.306 0.114-0.208 0.17-0.436 0.17-0.681 0-0.448-0.193-0.882-0.578-1.301-0.803-0.886-1.772-1.339-2.905-1.356-0.895-0.012-1.608 0.3-2.147 0.938-0.537 0.638-0.806 1.482-0.806 2.538v4.943c0 0.165-0.015 0.266-0.045 0.304-0.031 0.039-0.108 0.055-0.237 0.051l-0.85-0.029c-0.159-0.005-0.261 0.025-0.304 0.09-0.044 0.066-0.067 0.225-0.067 0.472v0.47c0.005 0.214 0.069 0.371 0.189 0.477l3.806 3.241c0.094 0.067 0.211 0.105 0.352 0.113l0.68 0.029c0.14 0.005 0.235-0.03 0.282-0.112 0.048-0.08 0.071-0.241 0.071-0.487v-1.455c0-0.219 0.027-0.358 0.082-0.419 0.052-0.064 0.166-0.091 0.341-0.083l1.567 0.059c0.208 0.01 0.345-0.035 0.407-0.13 0.063-0.097 0.094-0.301 0.094-0.622v-0.638c0-0.348-0.04-0.59-0.119-0.725-0.08-0.138-0.224-0.208-0.433-0.215l-1.534-0.052c-0.157-0.007-0.264-0.045-0.32-0.12-0.056-0.073-0.085-0.21-0.085-0.412" fill="#fff"/>
     </g>
     <g id="g4078" transform="translate(387.55 221.46)">
      <path id="path4080" d="m0 0-0.113-4.6c-0.011-0.549 0.122-0.818 0.401-0.81 0.14 0.005 0.276 0.132 0.409 0.378 0.566 1.054 1.322 1.601 2.273 1.638 0.937 0.034 1.684-0.295 2.242-0.989 0.249-0.31 0.426-0.682 0.53-1.114 0.104-0.433 0.162-1.056 0.174-1.87l0.08-4.008c0.006-0.348 0.043-0.602 0.112-0.765 0.068-0.159 0.227-0.361 0.478-0.601 0.173-0.168 0.259-0.369 0.259-0.607 0-0.799-0.97-1.216-2.902-1.246-1.706-0.026-2.554 0.331-2.554 1.072 0 0.124 0.014 0.221 0.043 0.286 0.03 0.068 0.132 0.245 0.307 0.535 0.247 0.41 0.369 1.421 0.369 3.036 0 0.976-0.073 1.688-0.219 2.132-0.193 0.603-0.538 0.897-1.034 0.881-0.355-0.011-0.617-0.18-0.785-0.509-0.122-0.237-0.183-0.678-0.183-1.321v-2.116c0.041-0.936 0.076-1.464 0.104-1.589 0.029-0.124 0.162-0.352 0.401-0.683 0.111-0.151 0.166-0.331 0.166-0.535 0-0.828-0.854-1.253-2.553-1.281-1.972-0.03-2.952 0.378-2.952 1.226 0 0.195 0.031 0.346 0.093 0.452 0.063 0.106 0.217 0.269 0.461 0.491 0.217 0.201 0.367 0.732 0.451 1.592 0.082 0.863 0.123 2.287 0.123 4.275 0 1.56-0.034 2.64-0.102 3.239-0.023 0.225-0.065 0.387-0.125 0.489s-0.172 0.206-0.337 0.308c-0.354 0.217-0.53 0.477-0.53 0.781 0 0.362 0.133 0.662 0.401 0.898s0.782 0.503 1.544 0.798c1.034 0.414 1.862 0.634 2.48 0.663 0.336 0.016 0.499-0.16 0.488-0.526" fill="#fff"/>
     </g>
     <g id="g4082" transform="translate(399.27 214.38)">
      <path id="path4855" d="m0 0 0.925 0.028c0.392 0.013 0.588 0.24 0.588 0.685 0 0.404-0.095 0.732-0.285 0.981-0.191 0.249-0.438 0.366-0.743 0.357-0.342-0.013-0.61-0.186-0.805-0.522-0.183-0.314-0.274-0.627-0.274-0.941 0-0.225 0.044-0.38 0.133-0.468 0.088-0.088 0.242-0.127 0.461-0.12m4.092-1.995-4.33-0.112c-0.188-0.005-0.283-0.11-0.283-0.312 0-0.486 0.215-0.939 0.644-1.36 0.431-0.421 0.895-0.627 1.39-0.615 0.294 0.005 0.622 0.082 0.982 0.23 0.359 0.147 0.657 0.324 0.892 0.532 0.211 0.187 0.378 0.281 0.501 0.284 0.16 0.005 0.319-0.114 0.474-0.351 0.155-0.239 0.233-0.487 0.233-0.744 0-0.544-0.279-1.075-0.837-1.592-0.982-0.914-2.11-1.38-3.383-1.398-1.278-0.02-2.345 0.418-3.201 1.313-0.415 0.439-0.758 0.971-1.028 1.598-0.354 0.832-0.53 1.711-0.53 2.64 0 1.248 0.305 2.377 0.917 3.393 0.529 0.883 1.204 1.552 2.027 2.008 0.619 0.344 1.291 0.532 2.017 0.561 1.162 0.043 2.156-0.323 2.977-1.108 0.414-0.393 0.749-0.865 1.004-1.416 0.291-0.625 0.437-1.241 0.437-1.848 0-0.49-0.083-0.896-0.251-1.215-0.168-0.318-0.386-0.48-0.652-0.488" fill="#fff"/>
     </g>
     <g id="g4086" transform="translate(416.82 220.98)">
      <path id="path4088" d="m0 0c-0.45-0.021-0.728-0.168-0.833-0.442-0.078-0.206-0.151-0.603-0.219-1.195-0.068-0.591-0.104-1.125-0.104-1.608 0-0.285 0.079-0.478 0.235-0.582 0.157-0.103 0.45-0.147 0.881-0.132 0.289 0.011 0.501 0.078 0.639 0.208 0.137 0.13 0.232 0.342 0.285 0.64 0.15 0.854 0.459 1.289 0.926 1.308 0.806 0.03 1.208-1.094 1.208-3.374 0-1.443-0.175-2.51-0.525-3.199-0.212-0.417-0.501-0.631-0.871-0.64-0.386-0.01-0.61 0.293-0.669 0.905-0.033 0.395-0.074 0.674-0.123 0.837-0.049 0.161-0.143 0.313-0.28 0.457-0.216 0.235-0.53 0.345-0.943 0.333-0.292-0.009-0.491-0.076-0.595-0.203-0.105-0.128-0.151-0.365-0.138-0.713 0-0.062-0.003-0.421-0.009-1.08 0-1.338 0.117-2.153 0.352-2.443 0.077-0.114 0.157-0.189 0.24-0.222 0.081-0.032 0.295-0.078 0.641-0.132 0.17-0.028 0.314-0.131 0.432-0.307 0.117-0.175 0.177-0.381 0.177-0.612 0-0.6-0.295-0.989-0.884-1.171-0.848-0.252-2.033-0.391-3.551-0.415-1.324-0.021-2.233 0.058-2.73 0.235-0.223 0.08-0.405 0.229-0.544 0.448-0.14 0.221-0.21 0.465-0.21 0.732 0 0.338 0.102 0.61 0.305 0.822 0.052 0.047 0.226 0.147 0.525 0.298 0.358 0.175 0.572 0.572 0.643 1.186 0.114 0.946 0.172 3.102 0.172 6.462 0 1.451-0.042 2.39-0.124 2.817-0.084 0.425-0.285 0.715-0.604 0.873-0.319 0.152-0.527 0.291-0.625 0.413-0.099 0.121-0.149 0.3-0.149 0.538 0 0.336 0.137 0.623 0.411 0.863s0.612 0.368 1.013 0.387c0.257 0.012 0.632 0.008 1.125-0.014 1.05-0.053 2.31-0.043 3.786 0.026 2.377 0.113 3.99 0.265 4.826 0.463 0.113 0.02 0.199 0.032 0.259 0.035 0.233 0.013 0.457-0.134 0.669-0.438 0.588-0.851 0.883-1.812 0.883-2.88 0-0.485-0.097-0.877-0.291-1.177-0.193-0.298-0.447-0.451-0.762-0.463-0.233-0.009-0.408 0.039-0.529 0.142-0.119 0.107-0.424 0.479-0.915 1.115-0.298 0.394-0.657 0.644-1.076 0.752-0.419 0.107-1.197 0.157-2.33 0.147" fill="#fff"/>
     </g>
     <g id="g4090" transform="translate(427.19 219.42)">
      <path id="path4092" d="m0 0c0.361 0.014 0.581-0.037 0.66-0.153 0.077-0.115 0.149-0.495 0.209-1.134 0.034-0.347 0.14-0.519 0.318-0.512 0.137 0.006 0.267 0.125 0.39 0.359 0.549 1.014 1.267 1.539 2.156 1.572 0.629 0.025 1.146-0.192 1.548-0.647 0.196-0.225 0.355-0.519 0.48-0.877 0.124-0.36 0.187-0.709 0.187-1.046 0-0.376-0.076-0.765-0.229-1.166s-0.351-0.733-0.595-0.997c-0.442-0.499-0.986-0.758-1.629-0.776-0.352-0.01-0.646 0.054-0.884 0.189-0.236 0.139-0.547 0.419-0.931 0.845-0.143 0.162-0.278 0.241-0.4 0.237-0.192-0.006-0.317-0.134-0.376-0.386-0.057-0.251-0.085-0.779-0.085-1.579 0-1.197 0.036-2.013 0.112-2.447 0.047-0.238 0.114-0.401 0.2-0.49 0.086-0.09 0.268-0.179 0.549-0.27 0.617-0.202 0.926-0.569 0.926-1.102 0-0.326-0.099-0.613-0.298-0.858-0.2-0.247-0.464-0.412-0.792-0.498-0.657-0.168-1.619-0.261-2.881-0.282-1.196-0.017-2.101 0.091-2.718 0.325-0.549 0.21-0.823 0.587-0.823 1.126 0 0.41 0.201 0.777 0.603 1.106 0.193 0.156 0.327 0.293 0.401 0.417 0.074 0.123 0.125 0.291 0.152 0.504 0.107 0.718 0.16 2.045 0.16 3.979 0 0.352-0.034 0.607-0.101 0.756-0.067 0.154-0.201 0.271-0.402 0.361-0.475 0.203-0.713 0.514-0.713 0.929 0 0.377 0.165 0.706 0.492 0.988 0.328 0.284 0.878 0.572 1.651 0.869 1.041 0.402 1.928 0.622 2.663 0.658" fill="#fff"/>
     </g>
     <g id="g4094" transform="translate(438.52 215.58)">
      <path id="path4096" d="m0 0 1.078 0.032c0.459 0.015 0.686 0.262 0.686 0.74 0 0.439-0.109 0.793-0.331 1.061-0.221 0.268-0.511 0.395-0.866 0.384-0.4-0.015-0.713-0.203-0.94-0.567-0.213-0.34-0.319-0.677-0.319-1.018 0-0.241 0.052-0.41 0.154-0.502 0.104-0.096 0.282-0.138 0.538-0.13m4.777-2.145-5.054-0.133c-0.22-0.004-0.329-0.117-0.329-0.335 0-0.526 0.249-1.014 0.75-1.467 0.502-0.455 1.042-0.677 1.62-0.665 0.344 0.008 0.727 0.091 1.146 0.251 0.423 0.161 0.769 0.354 1.042 0.578 0.247 0.202 0.442 0.304 0.587 0.307 0.187 0.006 0.373-0.121 0.552-0.377 0.181-0.257 0.273-0.526 0.273-0.803 0-0.589-0.326-1.164-0.978-1.723-1.145-0.99-2.464-1.494-3.948-1.517-1.491-0.022-2.735 0.45-3.733 1.415-0.484 0.473-0.884 1.048-1.198 1.725-0.411 0.897-0.618 1.844-0.618 2.847 0 1.345 0.357 2.566 1.069 3.666 0.617 0.953 1.404 1.678 2.364 2.172 0.72 0.374 1.504 0.579 2.351 0.611 1.357 0.054 2.516-0.342 3.474-1.186 0.486-0.422 0.876-0.931 1.172-1.526 0.343-0.676 0.513-1.342 0.513-1.996 0-0.531-0.099-0.97-0.295-1.315-0.195-0.344-0.449-0.521-0.76-0.529" fill="#fff"/>
     </g>
     <g id="g4098" transform="translate(450.36 215.94)">
      <path id="path4100" d="m0 0 1.128 0.035c0.477 0.014 0.718 0.266 0.718 0.756 0 0.449-0.119 0.809-0.348 1.083-0.233 0.274-0.535 0.405-0.907 0.392-0.417-0.015-0.743-0.207-0.982-0.579-0.221-0.346-0.333-0.693-0.333-1.04 0-0.248 0.054-0.418 0.161-0.515s0.297-0.139 0.563-0.132m4.992-2.189-5.282-0.138c-0.23-0.007-0.344-0.121-0.344-0.346 0-0.537 0.26-1.036 0.783-1.498 0.526-0.465 1.091-0.692 1.697-0.679 0.359 0.009 0.758 0.094 1.196 0.257 0.439 0.164 0.804 0.361 1.089 0.592 0.257 0.207 0.462 0.312 0.612 0.317 0.197 0.003 0.391-0.125 0.579-0.39 0.189-0.263 0.285-0.537 0.285-0.819 0-0.602-0.342-1.191-1.021-1.763-1.201-1.011-2.577-1.527-4.129-1.551-1.559-0.024-2.858 0.458-3.9 1.445-0.507 0.483-0.923 1.069-1.254 1.762-0.428 0.914-0.643 1.885-0.643 2.908 0 1.376 0.372 2.625 1.116 3.748 0.645 0.975 1.467 1.717 2.469 2.223 0.755 0.385 1.573 0.595 2.458 0.628 1.42 0.054 2.632-0.349 3.633-1.21 0.507-0.433 0.914-0.954 1.225-1.56 0.357-0.692 0.535-1.371 0.535-2.041 0-0.542-0.102-0.991-0.308-1.343-0.204-0.355-0.469-0.534-0.796-0.542" fill="#fff"/>
     </g>
     <g id="g4102" transform="translate(469.18 217.09)">
      <path id="path4104" d="m0 0-3.073-6.531c-0.47-1.005-0.871-1.703-1.201-2.094-0.329-0.392-0.681-0.592-1.056-0.597-0.367-0.005-0.662 0.135-0.888 0.419-0.475 0.567-0.889 1.211-1.245 1.931l-3.279 6.722c-0.177 0.365-0.347 0.625-0.509 0.785-0.166 0.158-0.392 0.273-0.682 0.347-0.579 0.165-0.868 0.496-0.868 0.998 0 0.512 0.358 0.898 1.073 1.16 0.718 0.262 1.855 0.423 3.418 0.48 1.317 0.054 2.288-0.014 2.916-0.196 0.628-0.185 0.944-0.492 0.944-0.926 0-0.306-0.15-0.605-0.447-0.894-0.188-0.193-0.307-0.337-0.36-0.433-0.057-0.095-0.083-0.214-0.083-0.359 0-0.289 0.17-0.761 0.516-1.421 0.342-0.644 0.664-0.961 0.962-0.955 0.197 0.009 0.357 0.094 0.483 0.259 0.125 0.167 0.354 0.588 0.684 1.273 0.246 0.502 0.367 0.88 0.367 1.136 0 0.205-0.125 0.445-0.377 0.715-0.27 0.298-0.402 0.579-0.402 0.842 0 0.409 0.249 0.712 0.751 0.911 0.499 0.196 1.325 0.319 2.476 0.363 1.628 0.063 2.447-0.284 2.447-1.043 0-0.437-0.294-0.765-0.878-0.983-0.456-0.171-0.766-0.348-0.93-0.533-0.163-0.186-0.416-0.644-0.759-1.376" fill="#fff"/>
     </g>
     <g id="g4106" transform="translate(476.39 226.19)">
      <path id="path4108" d="m0 0c0.712 0.034 1.276-0.079 1.695-0.344 0.42-0.262 0.629-0.634 0.629-1.111 0-0.672-0.317-1.216-0.948-1.634-0.998-0.659-2.203-1.013-3.605-1.07-0.592-0.023-1.058 0.078-1.404 0.305-0.469 0.291-0.701 0.712-0.701 1.262 0 0.741 0.493 1.344 1.487 1.811 1.01 0.479 1.961 0.738 2.847 0.781m2.435-5.605v-7.588c0-0.601 0.053-1.041 0.154-1.315 0.104-0.277 0.312-0.529 0.625-0.759 0.257-0.186 0.427-0.347 0.515-0.481 0.086-0.133 0.131-0.305 0.131-0.513 0-1.127-1.35-1.711-4.029-1.753-1.433-0.022-2.563 0.082-3.393 0.311-0.282 0.081-0.51 0.228-0.682 0.44-0.174 0.213-0.259 0.455-0.259 0.731 0 0.232 0.045 0.413 0.132 0.544 0.088 0.132 0.313 0.342 0.676 0.633 0.249 0.204 0.427 0.531 0.533 0.981 0.103 0.452 0.156 1.119 0.156 2.007 0 0.285-0.018 0.818-0.054 1.597-0.035 0.78-0.064 1.234-0.08 1.364-0.046 0.351-0.273 0.615-0.675 0.791-0.5 0.216-0.749 0.553-0.749 1.009 0 0.542 0.325 0.956 0.978 1.248 0.903 0.402 1.874 0.755 2.915 1.054 1.043 0.299 1.855 0.459 2.428 0.482 0.452 0.017 0.678-0.244 0.678-0.783" fill="#fff"/>
     </g>
     <g id="g4110" transform="translate(487.02 217.06)">
      <path id="path4112" d="m0 0 1.285 0.039c0.547 0.017 0.818 0.286 0.818 0.809 0 0.48-0.132 0.864-0.396 1.157-0.266 0.292-0.609 0.433-1.034 0.416-0.475-0.017-0.847-0.223-1.119-0.622-0.253-0.369-0.377-0.741-0.377-1.11 0-0.265 0.059-0.447 0.182-0.55 0.122-0.102 0.336-0.148 0.641-0.139m5.696-2.327-6.027-0.159c-0.26-0.007-0.393-0.129-0.393-0.369 0-0.573 0.298-1.106 0.894-1.599 0.6-0.496 1.243-0.736 1.933-0.721 0.41 0.009 0.865 0.1 1.367 0.277 0.502 0.175 0.915 0.386 1.243 0.635 0.293 0.218 0.525 0.332 0.696 0.336 0.225 0.006 0.446-0.132 0.663-0.413 0.216-0.28 0.324-0.572 0.324-0.877 0-0.642-0.39-1.272-1.167-1.883-1.368-1.081-2.938-1.636-4.707-1.662-1.779-0.027-3.257 0.485-4.447 1.537-0.577 0.515-1.05 1.14-1.426 1.879-0.489 0.976-0.734 2.009-0.734 3.103 0 1.468 0.424 2.799 1.272 4 0.734 1.044 1.671 1.836 2.812 2.38 0.861 0.412 1.793 0.636 2.802 0.677 1.617 0.062 3.001-0.364 4.144-1.283 0.577-0.462 1.044-1.014 1.398-1.663 0.409-0.738 0.611-1.464 0.611-2.179 0-0.581-0.116-1.06-0.35-1.438-0.234-0.376-0.537-0.569-0.908-0.578" fill="#fff"/>
     </g>
     <g id="g4114" transform="translate(510.05 211.36)">
      <path id="path4116" d="m0 0-1.409 2.24c-0.329 0.505-0.54 0.807-0.637 0.904-0.094 0.1-0.218 0.145-0.374 0.142-0.326-0.01-0.661-0.319-1.007-0.93l-2.259-3.983c-0.43-0.762-0.915-1.148-1.452-1.157-0.331-0.003-0.635 0.107-0.911 0.334-0.275 0.228-0.573 0.615-0.893 1.159l-3.973 6.656c-0.656 1.067-1.169 1.76-1.535 2.079-0.174 0.137-0.492 0.265-0.952 0.385-0.193 0.056-0.351 0.171-0.478 0.353-0.124 0.179-0.187 0.38-0.187 0.603 0 0.69 0.516 1.192 1.552 1.505 1.05 0.31 2.198 0.49 3.447 0.538 2.829 0.109 4.253-0.376 4.253-1.456 0-0.2-0.14-0.509-0.416-0.926-0.054-0.085-0.081-0.172-0.081-0.263 0-0.199 0.21-0.686 0.63-1.463 0.468-0.885 0.871-1.323 1.213-1.314 0.197 0.006 0.449 0.241 0.756 0.706s0.459 0.839 0.459 1.121c0 0.283-0.068 0.505-0.201 0.67-0.136 0.165-0.457 0.42-0.96 0.767-0.306 0.207-0.459 0.463-0.459 0.763 0 0.709 0.719 1.2 2.162 1.473 0.88 0.172 1.916 0.279 3.11 0.327 1.383 0.051 2.385-0.028 3.003-0.237 0.619-0.213 0.929-0.582 0.929-1.11 0-0.212-0.036-0.384-0.111-0.516-0.075-0.13-0.274-0.368-0.597-0.712-0.1-0.114-0.151-0.26-0.151-0.435 0-0.248 0.211-0.767 0.636-1.556 0.371-0.691 0.71-1.032 1.017-1.023 0.333 0.009 0.757 0.47 1.269 1.384 0.372 0.688 0.559 1.146 0.559 1.368 0 0.176-0.148 0.444-0.446 0.804-0.214 0.253-0.323 0.532-0.323 0.838 0 0.481 0.219 0.822 0.658 1.024 0.616 0.293 1.516 0.463 2.699 0.509 0.802 0.031 1.518-0.004 2.142-0.101 0.362-0.06 0.654-0.201 0.883-0.423 0.23-0.219 0.343-0.48 0.343-0.78s-0.133-0.557-0.4-0.773c-0.047-0.047-0.379-0.191-0.996-0.426-0.351-0.143-0.639-0.34-0.869-0.589-0.224-0.252-0.498-0.692-0.82-1.33l-3.514-6.836c-1.024-1.982-1.923-2.975-2.7-2.987-0.333-0.004-0.7 0.199-1.099 0.611-0.401 0.413-0.902 1.102-1.51 2.063" fill="#fff"/>
     </g>
     <g id="g4118" transform="translate(379.65 189.13)">
      <path id="path4120" d="m0 0 1.047-0.023c0.175-0.002 0.3-0.039 0.376-0.111 0.077-0.07 0.109-0.183 0.099-0.343l-0.069-1.285c-0.011-0.259-0.042-0.423-0.092-0.49-0.052-0.068-0.165-0.097-0.34-0.095-0.039 0.002-0.133 0.012-0.279 0.029-0.101 0.012-0.186 0.016-0.253 0.018-0.237 0.008-0.396-0.088-0.481-0.283-0.084-0.196-0.126-0.57-0.126-1.122 0-0.758 0.064-1.394 0.193-1.917 0.051-0.226 0.124-0.391 0.22-0.498 0.095-0.108 0.253-0.205 0.473-0.293 0.496-0.205 0.744-0.564 0.744-1.076 0-0.541-0.289-0.919-0.867-1.134-0.577-0.215-1.519-0.294-2.826-0.242-1.922 0.079-2.878 0.608-2.878 1.59 0 0.243 0.04 0.419 0.12 0.53s0.254 0.237 0.524 0.377c0.292 0.159 0.469 0.471 0.529 0.933 0.094 0.697 0.142 1.445 0.142 2.244 0 0.356-0.049 0.604-0.145 0.746-0.097 0.143-0.272 0.212-0.526 0.212-0.296 0.009-0.487 0.032-0.57 0.075-0.082 0.04-0.121 0.136-0.115 0.286l0.066 1.343c0.011 0.22 0.039 0.356 0.087 0.409 0.046 0.052 0.177 0.082 0.391 0.093 0.204 0.01 0.306 0.135 0.306 0.379 0 0.099-0.074 0.327-0.223 0.687-0.253 0.597-0.38 1.189-0.38 1.78 0 0.87 0.231 1.573 0.694 2.116 0.68 0.8 1.659 1.194 2.94 1.183 1.059-0.009 1.907-0.336 2.545-0.986 0.492-0.503 0.738-1.079 0.738-1.731 0-0.47-0.121-0.861-0.365-1.18-0.243-0.316-0.546-0.47-0.906-0.464-0.405 0.006-0.793 0.194-1.164 0.559-0.089 0.096-0.302 0.383-0.638 0.86-0.241 0.335-0.481 0.501-0.72 0.507-0.156 0.002-0.29-0.068-0.401-0.209-0.111-0.143-0.168-0.316-0.168-0.525 0-0.564 0.418-1.177 1.255-1.837 0.258-0.206 0.433-0.368 0.525-0.486 0.092-0.116 0.175-0.278 0.248-0.49 0.04-0.088 0.129-0.132 0.27-0.136" fill="#fff"/>
     </g>
     <g id="g4122" transform="translate(386.2 184.7)">
      <path id="path4124" d="m0 0c-0.254 0.008-0.475-0.116-0.661-0.371-0.188-0.257-0.281-0.567-0.281-0.932 0-0.35 0.066-0.632 0.199-0.852 0.131-0.219 0.307-0.334 0.526-0.341 0.463-0.017 0.694 0.467 0.694 1.452 0 0.402-0.033 0.673-0.101 0.814-0.066 0.14-0.192 0.218-0.376 0.23m0.581 6.323c1.009-0.018 1.867-0.354 2.574-1.013 0.375-0.352 0.638-0.754 0.787-1.201 0.15-0.449 0.225-1.063 0.225-1.843l-0.018-1.643c0-1.14 0.065-1.88 0.194-2.225 0.065-0.164 0.127-0.268 0.185-0.316 0.059-0.046 0.183-0.089 0.371-0.134 0.189-0.042 0.283-0.199 0.283-0.474 0-0.352-0.113-0.717-0.34-1.092s-0.52-0.685-0.878-0.926c-0.44-0.306-0.899-0.45-1.378-0.43-0.612 0.026-1.094 0.31-1.449 0.849-0.122 0.194-0.234 0.295-0.339 0.299-0.116 0.003-0.269-0.082-0.46-0.256-0.577-0.511-1.232-0.75-1.96-0.72-0.751 0.031-1.356 0.26-1.818 0.685-0.301 0.279-0.54 0.636-0.715 1.074-0.176 0.436-0.264 0.89-0.264 1.358 0 0.752 0.238 1.408 0.715 1.974 0.745 0.89 1.865 1.319 3.366 1.285 0.335-0.009 0.545 0.027 0.633 0.108 0.086 0.082 0.129 0.276 0.129 0.583 0 0.773-0.064 1.333-0.191 1.684-0.127 0.349-0.335 0.526-0.623 0.534-0.172 0.003-0.326-0.06-0.463-0.187-0.134-0.128-0.302-0.364-0.503-0.71-0.51-0.909-1.043-1.357-1.596-1.343-0.28 0.009-0.507 0.12-0.683 0.333-0.177 0.215-0.265 0.492-0.265 0.832 0 0.347 0.109 0.692 0.328 1.034 0.219 0.343 0.517 0.642 0.893 0.895 1.036 0.676 2.122 1.006 3.26 0.986" fill="#fff"/>
     </g>
     <g id="g4126" transform="translate(396.3 190.76)">
      <path id="path4128" d="m0 0c0.343-0.006 0.515-0.31 0.515-0.914v-0.189c-0.006-0.121-0.009-0.217-0.009-0.292 0-0.403 0.096-0.605 0.29-0.61 0.102-0.003 0.262 0.154 0.481 0.472 0.326 0.455 0.739 0.817 1.237 1.08 0.499 0.263 1.012 0.391 1.537 0.382 1.024-0.018 1.739-0.491 2.14-1.418 0.154-0.342 0.281-0.516 0.38-0.518 0.068-0.001 0.228 0.147 0.482 0.443 0.808 0.945 1.726 1.409 2.758 1.391 0.809-0.015 1.473-0.297 1.99-0.848 0.544-0.576 0.816-1.428 0.816-2.56 0-0.245-0.007-0.657-0.019-1.237-0.012-0.198-0.019-0.799-0.019-1.799 0-0.641-0.002-1.092-0.01-1.352-0.005-0.16-0.01-0.275-0.01-0.342 0-0.49 0.128-0.921 0.381-1.299 0.153-0.226 0.246-0.376 0.281-0.45 0.036-0.073 0.053-0.174 0.053-0.295 0-0.98-0.954-1.429-2.851-1.351-0.834 0.034-1.505 0.182-2.013 0.446-0.507 0.262-0.761 0.59-0.761 0.981 0 0.153 0.017 0.268 0.051 0.345 0.035 0.079 0.154 0.285 0.36 0.617 0.192 0.304 0.289 1.333 0.289 3.091 0 1.022-0.06 1.736-0.177 2.14-0.138 0.481-0.411 0.728-0.821 0.737-0.205 0.005-0.385-0.068-0.543-0.22-0.159-0.152-0.262-0.342-0.312-0.575-0.055-0.271-0.087-0.992-0.092-2.171 0.019-1.267 0.051-2.039 0.097-2.31 0.046-0.276 0.203-0.657 0.469-1.152 0.062-0.115 0.093-0.259 0.093-0.433 0-0.9-0.961-1.309-2.874-1.231-1.142 0.046-1.909 0.184-2.304 0.408-0.314 0.178-0.472 0.475-0.472 0.895 0 0.185 0.018 0.315 0.059 0.387 0.038 0.074 0.175 0.24 0.404 0.502 0.133 0.152 0.22 0.297 0.26 0.434 0.039 0.136 0.068 0.389 0.087 0.753 0.042 0.821 0.063 1.651 0.063 2.491 0 1.466-0.304 2.204-0.91 2.22-0.454 0.012-0.722-0.295-0.807-0.919-0.072-0.587-0.108-1.429-0.108-2.525 0-0.82 0.013-1.356 0.041-1.61 0.026-0.256 0.1-0.523 0.221-0.802 0.146-0.327 0.218-0.59 0.218-0.792 0-0.484-0.275-0.809-0.824-0.973-0.596-0.178-1.25-0.25-1.961-0.222-0.919 0.037-1.59 0.155-2.017 0.353s-0.64 0.493-0.64 0.884c0 0.147 0.029 0.273 0.085 0.372 0.056 0.103 0.185 0.26 0.385 0.476 0.267 0.292 0.421 0.704 0.462 1.235 0.066 0.914 0.1 1.863 0.1 2.845 0 0.703-0.029 1.193-0.086 1.473-0.056 0.277-0.176 0.505-0.359 0.679-0.179 0.174-0.292 0.305-0.342 0.397-0.051 0.087-0.076 0.21-0.076 0.365 0 0.495 0.311 0.88 0.933 1.155 1.507 0.645 2.642 0.968 3.399 0.96" fill="#fff"/>
     </g>
     <g id="g4130" transform="translate(413.58 194.8)">
      <path id="path4132" d="m0 0c0.562-0.005 1.009-0.135 1.34-0.39 0.331-0.254 0.496-0.594 0.496-1.021 0-0.594-0.249-1.064-0.749-1.404-0.789-0.538-1.741-0.794-2.852-0.776-0.467 0.008-0.839 0.122-1.113 0.339-0.37 0.283-0.555 0.667-0.555 1.157 0 0.66 0.392 1.172 1.178 1.54 0.801 0.375 1.553 0.559 2.255 0.555m1.925-5.104v-6.745c0-0.533 0.04-0.927 0.122-1.178 0.082-0.25 0.245-0.484 0.493-0.701 0.202-0.179 0.338-0.329 0.406-0.451 0.069-0.123 0.104-0.277 0.104-0.464 0-1-1.067-1.457-3.186-1.37-1.132 0.046-2.027 0.191-2.685 0.432-0.223 0.086-0.403 0.225-0.54 0.424-0.137 0.196-0.205 0.416-0.205 0.663 0 0.205 0.035 0.365 0.105 0.477 0.07 0.113 0.249 0.29 0.535 0.532 0.198 0.17 0.339 0.452 0.422 0.848s0.125 0.989 0.125 1.78c0 0.254-0.015 0.728-0.044 1.422-0.029 0.697-0.049 1.102-0.062 1.216-0.039 0.317-0.217 0.562-0.537 0.74-0.395 0.215-0.592 0.527-0.592 0.933 0 0.481 0.258 0.835 0.774 1.062 0.716 0.317 1.485 0.582 2.308 0.796 0.826 0.218 1.466 0.322 1.92 0.314 0.358-0.006 0.537-0.25 0.537-0.73" fill="#fff"/>
     </g>
     <g id="g4134" transform="translate(422.88 187.98)">
      <path id="path4136" d="m0 0v-3.78c0-1.673 0.022-2.647 0.065-2.925 0.044-0.276 0.21-0.493 0.499-0.654 0.248-0.134 0.414-0.258 0.498-0.372 0.084-0.112 0.127-0.272 0.127-0.477 0-0.26-0.08-0.492-0.237-0.699-0.159-0.206-0.368-0.347-0.63-0.423-0.482-0.155-1.295-0.206-2.431-0.16-1.278 0.052-2.172 0.201-2.685 0.449-0.237 0.111-0.431 0.277-0.582 0.494-0.15 0.22-0.225 0.447-0.225 0.679 0 0.187 0.041 0.33 0.123 0.427 0.08 0.098 0.26 0.212 0.536 0.342 0.256 0.123 0.414 0.48 0.474 1.069 0.104 1.008 0.157 2.447 0.157 4.315 0 1.9-0.046 3.124-0.139 3.671-0.091 0.547-0.321 0.955-0.69 1.225-0.275 0.191-0.463 0.37-0.564 0.541-0.102 0.166-0.153 0.371-0.153 0.611 0 0.381 0.154 0.712 0.462 0.991 0.308 0.28 0.8 0.537 1.479 0.773 0.456 0.158 1.047 0.307 1.777 0.448 0.731 0.142 1.263 0.212 1.598 0.209 0.528-0.005 0.793-0.393 0.793-1.163 0-0.251-0.034-0.829-0.101-1.73-0.086-1.403-0.137-2.691-0.151-3.861" fill="#fff"/>
     </g>
     <g id="g4138" transform="translate(434.15 184.25)">
      <path id="path4140" d="m0 0-1.379-4.317c-0.341-1.066-0.683-1.936-1.027-2.603-0.342-0.669-0.731-1.233-1.166-1.691-0.894-0.946-1.967-1.387-3.218-1.327-1.006 0.049-1.819 0.397-2.441 1.04-0.478 0.496-0.717 1.11-0.717 1.842 0 0.607 0.166 1.109 0.5 1.508 0.333 0.401 0.745 0.593 1.232 0.573 0.488-0.019 0.881-0.224 1.181-0.615 0.143-0.18 0.239-0.339 0.287-0.475 0.047-0.138 0.118-0.437 0.214-0.902 0.075-0.351 0.246-0.533 0.512-0.544 0.212-0.008 0.39 0.09 0.533 0.297 0.145 0.21 0.216 0.472 0.216 0.79 0 0.373-0.178 1.004-0.534 1.891l-2.46 6.172c-0.257 0.637-0.45 1.035-0.578 1.197-0.128 0.161-0.413 0.361-0.85 0.602-0.135 0.064-0.251 0.191-0.349 0.378-0.098 0.188-0.145 0.366-0.145 0.54 0 0.701 0.595 1.166 1.791 1.396 0.799 0.15 1.715 0.217 2.745 0.2 0.727-0.013 1.3-0.112 1.72-0.294 0.565-0.241 0.848-0.643 0.848-1.2 0-0.199-0.08-0.432-0.238-0.701-0.152-0.251-0.227-0.476-0.227-0.676 0-0.19 0.035-0.391 0.107-0.601 0.073-0.21 0.226-0.563 0.462-1.064 0.263-0.566 0.494-0.851 0.695-0.858 0.216-0.005 0.438 0.234 0.668 0.721 0.227 0.483 0.342 0.956 0.342 1.414 0 0.367-0.086 0.669-0.261 0.906-0.264 0.365-0.395 0.676-0.395 0.932 0 0.407 0.236 0.729 0.71 0.963 0.472 0.238 1.107 0.346 1.906 0.333 1.49-0.027 2.238-0.45 2.238-1.273 0-0.3-0.076-0.538-0.229-0.715-0.15-0.179-0.428-0.345-0.83-0.497-0.337-0.138-0.604-0.372-0.801-0.706-0.308-0.53-0.661-1.409-1.062-2.636" fill="#fff"/>
     </g>
     <g id="g4142" transform="translate(449.48 186.66)">
      <path id="path4144" d="m0 0v-4.187c0-0.495 0.108-0.904 0.327-1.225 0.219-0.322 0.5-0.489 0.841-0.501 0.29-0.009 0.673 0.127 1.151 0.409 0.115 0.07 0.226 0.106 0.336 0.1 0.18-0.005 0.346-0.131 0.494-0.377 0.15-0.247 0.226-0.512 0.226-0.794 0-0.514-0.254-0.999-0.764-1.453-1.059-0.962-2.338-1.411-3.831-1.349-1.177 0.048-2.118 0.458-2.827 1.228-0.707 0.769-1.059 1.758-1.059 2.968v5.67c0 0.188-0.021 0.304-0.06 0.349-0.04 0.049-0.143 0.074-0.31 0.077l-1.119 0.024c-0.21 0.005-0.343 0.047-0.401 0.125-0.057 0.078-0.086 0.259-0.086 0.547v0.536c0.006 0.246 0.089 0.422 0.249 0.534l5.006 3.461c0.124 0.072 0.28 0.108 0.463 0.105l0.897-0.01c0.185-0.002 0.309-0.051 0.371-0.147 0.064-0.097 0.096-0.284 0.096-0.565v-1.671c0-0.249 0.036-0.41 0.105-0.486 0.07-0.075 0.221-0.116 0.45-0.119l2.068-0.038c0.276-0.005 0.456-0.063 0.539-0.177 0.083-0.113 0.122-0.353 0.122-0.718v-0.736c0-0.4-0.051-0.674-0.156-0.826-0.104-0.151-0.297-0.224-0.571-0.217l-2.025 0.045c-0.206 0.004-0.348-0.033-0.421-0.113-0.073-0.082-0.111-0.238-0.111-0.469" fill="#fff"/>
     </g>
     <g id="g4146" transform="translate(458.76 189.67)">
      <path id="path4148" d="m0 0c0.408-0.006 0.656-0.075 0.742-0.203 0.089-0.126 0.168-0.531 0.237-1.215 0.039-0.371 0.158-0.558 0.358-0.562 0.154-0.006 0.301 0.115 0.44 0.356 0.616 1.042 1.426 1.554 2.427 1.538 0.709-0.014 1.29-0.273 1.745-0.783 0.22-0.251 0.4-0.571 0.541-0.96 0.14-0.391 0.211-0.764 0.211-1.12 0-0.4-0.089-0.808-0.26-1.224s-0.394-0.759-0.668-1.021c-0.501-0.505-1.113-0.746-1.839-0.724-0.393 0.01-0.727 0.095-0.993 0.254-0.267 0.16-0.616 0.477-1.049 0.952-0.161 0.182-0.313 0.275-0.451 0.277-0.215 0.005-0.356-0.123-0.422-0.388-0.065-0.262-0.097-0.818-0.097-1.668 0-1.271 0.043-2.138 0.127-2.604 0.053-0.254 0.128-0.432 0.225-0.531 0.097-0.1 0.302-0.208 0.617-0.32 0.696-0.253 1.045-0.662 1.045-1.227 0-0.347-0.113-0.644-0.337-0.894s-0.521-0.406-0.892-0.476c-0.74-0.138-1.822-0.177-3.241-0.12-1.346 0.054-2.363 0.226-3.059 0.512-0.616 0.257-0.922 0.673-0.922 1.245 0 0.436 0.222 0.813 0.675 1.137 0.219 0.152 0.369 0.289 0.452 0.415 0.082 0.128 0.138 0.302 0.169 0.527 0.121 0.754 0.182 2.157 0.182 4.21 0 0.375-0.039 0.643-0.114 0.807-0.075 0.166-0.227 0.301-0.452 0.407-0.534 0.244-0.802 0.587-0.802 1.029 0 0.399 0.185 0.739 0.554 1.018 0.368 0.279 0.986 0.553 1.857 0.819 1.171 0.365 2.17 0.543 2.994 0.537" fill="#fff"/>
     </g>
     <g id="g4150" transform="translate(471.53 184.9)">
      <path id="path4152" d="m0 0 1.217-0.031c0.515-0.013 0.776 0.236 0.776 0.743 0 0.466-0.127 0.849-0.377 1.148-0.249 0.297-0.576 0.452-0.979 0.46-0.449 0.01-0.802-0.17-1.059-0.544-0.239-0.345-0.358-0.7-0.358-1.06 0-0.257 0.056-0.439 0.172-0.545s0.32-0.164 0.608-0.171m5.393-2.572-5.707 0.171c-0.248 0.009-0.373-0.104-0.373-0.336 0-0.558 0.283-1.094 0.849-1.606 0.567-0.514 1.176-0.783 1.831-0.805 0.386-0.014 0.817 0.051 1.293 0.194 0.474 0.144 0.866 0.326 1.177 0.551 0.276 0.197 0.497 0.294 0.661 0.291 0.211-0.009 0.42-0.154 0.626-0.438 0.203-0.285 0.305-0.576 0.305-0.87 0-0.625-0.368-1.215-1.102-1.769-1.297-0.98-2.784-1.435-4.459-1.367-1.683 0.071-3.086 0.65-4.211 1.736-0.547 0.534-0.996 1.167-1.353 1.905-0.463 0.976-0.694 1.998-0.694 3.06 0 1.431 0.401 2.704 1.205 3.828 0.693 0.973 1.581 1.696 2.664 2.162 0.814 0.355 1.698 0.524 2.654 0.507 1.533-0.027 2.84-0.518 3.923-1.473 0.548-0.479 0.989-1.044 1.323-1.694 0.386-0.74 0.58-1.458 0.58-2.153 0-0.566-0.111-1.025-0.332-1.38-0.222-0.354-0.509-0.525-0.86-0.514" fill="#fff"/>
     </g>
     <g id="g4154" transform="translate(484.91 184.55)">
      <path id="path4156" d="m0 0 1.276-0.032c0.54-0.016 0.811 0.239 0.811 0.759 0 0.478-0.131 0.869-0.392 1.177-0.263 0.304-0.604 0.461-1.026 0.47-0.472 0.011-0.841-0.174-1.111-0.556-0.251-0.356-0.376-0.716-0.376-1.085 0-0.264 0.06-0.451 0.183-0.558 0.119-0.108 0.333-0.169 0.635-0.175m5.653-2.639-5.981 0.181c-0.26 0.007-0.389-0.108-0.389-0.344 0-0.572 0.294-1.12 0.886-1.646 0.595-0.526 1.235-0.8 1.918-0.825 0.409-0.014 0.86 0.051 1.356 0.198 0.498 0.147 0.912 0.334 1.234 0.563 0.291 0.202 0.523 0.301 0.694 0.297 0.223-0.007 0.44-0.156 0.655-0.449 0.216-0.29 0.322-0.589 0.322-0.891 0-0.641-0.385-1.244-1.156-1.812-1.358-1.001-2.917-1.464-4.675-1.393-1.763 0.072-3.232 0.668-4.413 1.781-0.571 0.546-1.042 1.196-1.414 1.951-0.485 1-0.729 2.045-0.729 3.133 0 1.463 0.42 2.767 1.263 3.916 0.727 0.999 1.656 1.735 2.792 2.215 0.853 0.36 1.778 0.534 2.78 0.515 1.606-0.029 2.976-0.532 4.114-1.51 0.571-0.492 1.036-1.068 1.389-1.736 0.403-0.756 0.605-1.492 0.605-2.205 0-0.579-0.115-1.049-0.348-1.412s-0.532-0.538-0.903-0.527" fill="#fff"/>
     </g>
    </g>
   </g>
  </g>
 </g>
 <g id="g4249">
  <g fill="#fff">
   <path id="path15603" d="m877.22 257.59 13.577-12.536-0.085 94.68-13.492-14.279v-26.857h-53.247v41.242l-13.556-14.257v-67.95l13.556-12.579v40.966h53.247v-28.43z"/>
   <path id="path15607" d="m890.71 339.69 13.577-12.09h17.253c6.778 0 12.047-0.4462 15.808-1.3174 3.7821-0.95615 6.8843-2.1248 9.3915-3.5271 2.5285-1.4661 4.802-3.2509 6.9055-5.312 6.693-6.778 10.029-15.362 10.029-25.731 0-10.178-3.4421-18.464-10.305-24.86-2.5285-2.401-5.4394-4.3983-8.7541-5.9281-3.2509-1.5511-6.3531-2.5497-9.3065-3.0384-2.9109-0.4887-7.628-0.74367-14.172-0.74367h-16.934l-13.45-12.09h31.829c12.876 0 23.096 1.9548 30.576 5.8219 7.5217 3.8671 13.492 9.5403 17.933 17.062 4.3983 7.5005 6.6506 15.681 6.6506 24.562 0 6.3106-1.2536 12.366-3.6759 18.167-2.4647 5.7794-5.9494 10.879-10.454 15.277-4.5895 4.5258-9.9652 7.9254-16.063 10.22-3.5696 1.4024-6.8843 2.3585-9.8377 2.8472-2.9747 0.46746-8.6903 0.67993-17.126 0.67993h-29.874 29.874c8.4354 0 14.151-0.21247 17.126-0.67993 2.9534-0.48869 6.2681-1.4448 9.8377-2.8472 6.0981-2.2948 11.474-5.6944 16.063-10.22 4.5045-4.3983 7.9892-9.4978 10.454-15.277 2.4222-5.8006 3.6759-11.856 3.6759-18.167 0-8.8816-2.2523-17.062-6.6506-24.562-4.4408-7.5217-10.411-13.195-17.933-17.062-7.4792-3.8671-17.699-5.8219-30.576-5.8219h-31.829l13.45 12.09h16.934c6.5443 0 11.261 0.25497 14.172 0.74367 2.9534 0.4887 6.0556 1.4873 9.3065 3.0384 3.3146 1.5298 6.2256 3.5271 8.7541 5.9281 6.863 6.3956 10.305 14.682 10.305 24.86 0 10.369-3.3359 18.953-10.029 25.731-2.1035 2.061-4.377 3.8458-6.9055 5.312-2.5072 1.4024-5.6094 2.571-9.3915 3.5271-3.7609 0.87116-9.0303 1.3174-15.808 1.3174h-17.253l-13.577 12.09z"/>
   <path id="path15611" d="m890.71 339.69 13.577-12.09h17.253c6.778 0 12.047-0.4462 15.808-1.3174 3.7821-0.95615 6.8843-2.1248 9.3915-3.5271 2.5285-1.4661 4.802-3.2509 6.9055-5.312 6.693-6.778 10.029-15.362 10.029-25.731 0-10.178-3.4421-18.464-10.305-24.86-2.5285-2.401-5.4394-4.3983-8.7541-5.9281-3.2509-1.5511-6.3531-2.5497-9.3065-3.0384-2.9109-0.4887-7.628-0.74367-14.172-0.74367h-16.934l-13.45-12.09h31.829c12.876 0 23.096 1.9548 30.576 5.8219 7.5217 3.8671 13.492 9.5403 17.933 17.062 4.3983 7.5005 6.6506 15.681 6.6506 24.562 0 6.3106-1.2536 12.366-3.6759 18.167-2.4647 5.7794-5.9494 10.879-10.454 15.277-4.5895 4.5258-9.9652 7.9254-16.063 10.22-3.5696 1.4024-6.8843 2.3585-9.8377 2.8472-2.9747 0.46746-8.6903 0.67993-17.126 0.67993h-29.874z"/>
  </g>
  <g fill-opacity=".26047" fill="#e72a9a">
   <path id="path15615" d="m904.29 257.23-13.556-12.175v94.638l13.556-12.09v-29.003-12.579-28.791z"/>
   <path id="path15619" d="m823.95 298.59-0.0425 41.178 13.577-12.217-0.0425-28.961h-13.492z"/>
   <path id="path15623" d="m837.8 286.02-0.25498-28.387-13.577-12.579v40.966h13.832z"/>
  </g>
 </g>
</svg>
