<svg xmlns="http://www.w3.org/2000/svg" viewBox="0 0 1014.7 745.35"><defs><clipPath><path d="m536.3 203.17c-2.305-.112-4.403-1.341-5.902-3.214-3.21-.202-6.175-1.561-8.543-3.679-.102.005-.205.007-.31 0-.715-.032-1.382-.307-1.934-.749-.151.003-.303.003-.457-.003-1.938-.087-3.705-1.045-4.976-2.509-.4.144-.814.261-1.243.347-.414 2.406-2.336 4.137-4.68 4.03-1.554-.071-2.948-.937-3.86-2.223-.677.203-1.394.297-2.138.264-1.647-.074-3.18-.754-4.449-1.849-.606.189-1.251.277-1.919.247-.692-.031-1.363-.185-1.994-.442-1.147 1.059-2.647 1.665-4.3 1.59-1.551-.07-2.985-.728-4.127-1.769-.401.335-.855.596-1.349.763-1.301 1.313-3.01 2.067-4.895 1.98-1.042-.048-2.037-.348-2.945-.848-1.152.32-2.368.468-3.628.41-2.913-.134-5.607-1.32-7.794-3.215-.101.069-.209.128-.318.183-.0001 1.571-1.284 2.841-2.856 2.841-1.452 0-2.638-1.086-2.821-2.489-.402.133-.824.222-1.269.222-.96 0-1.83-.346-2.527-.9-1.073 1.278-2.683 2.092-4.482 2.092-1.833 0-3.468-.843-4.542-2.16-.736.334-1.551.523-2.411.523-1.712 0-3.246-.737-4.318-1.908-.648 1.216-1.915 2.054-3.391 2.054-1.019 0-1.939-.403-2.628-1.047-.411.693-1.159 1.163-2.023 1.163-.234 0-.455-.044-.668-.108.011.093.028.186.028.282 0 1.302-1.055 2.357-2.358 2.357-1.089 0-1.996-.742-2.268-1.746-.343.197-.736.318-1.161.318-1.299 0-2.351-1.051-2.357-2.349-1.26-.016-2.16.129-3.353-1.224-.498.13-1.021.19-1.56.165-1.722-.076-3.275-.972-4.386-2.349-.953.365-2.01.547-3.115.498-.918-.039-1.799-.234-2.617-.554-1.242 1.539-2.975 2.45-4.895 2.364-1.462-.065-2.818-.705-3.931-1.731-.544.179-1.116.263-1.711.237-.14-.006-.279-.021-.415-.038-1.12 2.706-3.394 4.487-6.02 4.364-3-.141-5.548-2.738-6.42-6.2v-5.218c.18-.697.431-1.35.742-1.948-.108-.107 0-54.56 0-54.56h186.81v72.48c-.309.081-.637.119-.978.104-.353-.015-.697-.087-1.023-.206-.791 1.799-2.524 2.986-4.573 2.891-1.209-.056-2.33-.552-3.23-1.33-.783.285-1.635.421-2.53.379-2.231-.102-4.25-1.28-5.606-3.042-1.088.369-2.287.545-3.552.488-1.245-.056-2.434-.332-3.525-.784-.852.561-1.837.918-2.903 1.014-1.015 3.394-3.756 5.75-7.06 5.75-.114 0-.226-.003-.34-.008"/></clipPath><clipPath><path d="m0-1.493h1.021v2.966h-1.021v-2.966"/></clipPath><clipPath><path d="m22.677 163.28h154.29v21.12c-1.406.51-2.982.817-4.651.864-3.475.096-6.608-.958-8.694-2.688-1.741 1.967-4.652 3.366-8.04 3.671-2.765 1.355-6.06 2.191-9.634 2.29-.898.024-1.781 0-2.646-.066-2.214 1.461-5.13 2.393-8.349 2.482-3.136.085-6.03-.639-8.296-1.913-.914 1.734-3.217 3.01-5.952 3.083-1.036.028-2.02-.121-2.896-.407.862.829 1.387 1.849 1.418 2.967.058 2.088-1.607 3.931-4.058 4.84.599.486.969 1.124.989 1.828.024.905-.531 1.729-1.424 2.288.623.44 1.014 1.047 1.032 1.726.04 1.408-1.524 2.591-3.492 2.646s-3.594-1.041-3.634-2.448c-.019-.681.339-1.308.935-1.781-.922-.508-1.522-1.299-1.548-2.205-.019-.704.315-1.362.886-1.882-1.421-.436-2.605-1.188-3.371-2.141-1.605.314-3.281.508-5.01.556-1.994.054-3.929-.085-5.774-.389-3.585 4.823-10.566 8.209-18.683 8.434-.896.025-1.78.005-2.65-.046-1.713 2.861-5.624 4.929-10.227 5.06-5.356.148-9.918-2.371-11.229-5.899-2.01 1.266-4.286 2.315-6.762 3.106.016.257.028.512.036.772.325 11.711-8.901 22.1-22.567 27.3v-73.16z"/></clipPath><clipPath><path d="m0-1.019h1.188v2.038h-1.188v-2.038"/></clipPath><clipPath><path d="m0-1.255h1v2.51h-1v-2.51"/></clipPath><clipPath><path d="m329.81 111.08h41.527v10.05h-41.527v-10.05"/></clipPath><clipPath><path d="m22.678 163.57v-140.9h548.94v140.51c-70.44 20.798-167.71 33.661-275.14 33.661-106.75 0-203.48-12.703-273.81-33.27"/></clipPath><clipPath id="0"><path d="m155.95 426.56h45.34v30.23h-45.34v-30.23"/></clipPath></defs><g transform="matrix(29.245 0 0 29.245-5813.66-10513.11)"><path d="m198.79 359.49h34.696v25.486h-34.696v-25.486" fill="#5b1947"/><g clip-path="url(#0)" transform="matrix(1.25 0 0-1.25-7.31 924.06)"><g fill="#fff"><path d="m0 0v-.64h.415s.008 0 .022 0c.014 0 .034 0 .058.003.045.005.104.013.162.032.052.018.103.044.142.083.015.015.027.031.037.046.032.051.041.104.042.133 0 .013 0 .02 0 .02v.016c0 .013-.002.036-.008.062-.008.03-.023.066-.049.098-.005.006-.0001.012-.016.018-.011.011-.024.022-.037.032-.023.017-.049.031-.077.043-.037.017-.079.029-.125.037-.023.005-.048.008-.074.011-.015 0-.031.002-.048.003-.014 0-.029.002-.043.002h-.402" transform="translate(178.36 445.45)"/><path d="m0 0v-.606h.201.031c.014 0 .031.002.046.002.041.004.098.009.155.025.011.003.023.007.034.011.045.016.088.039.121.072.027.026.044.055.056.084.014.034.019.067.021.091.002.021.002.034.002.034s0 .0001 0 .026c0 .026-.006.069-.027.111-.0001.02-.024.039-.043.057-.022.022-.05.04-.079.053-.057.024-.121.034-.176.038-.024.002-.045.002-.064.002h-.277" transform="translate(178.36 446.42)"/><path d="m0 0v-.64h.415s.009 0 .022 0c.014 0 .034 0 .058.003.045.005.104.013.162.032.052.018.103.044.141.083.016.015.028.031.038.046.032.051.041.104.042.133 0 .013 0 .02 0 .02v.016c0 .013-.002.036-.008.062-.008.03-.023.066-.049.098-.005.006-.0001.012-.016.018-.011.011-.024.022-.037.032-.023.017-.049.031-.077.043-.037.017-.079.029-.125.037-.023.005-.048.008-.074.011-.016 0-.031.002-.048.003-.014 0-.029.002-.043.002h-.402" transform="translate(174.37 445.45)"/><path d="m0 0v-.606h.201.031c.014 0 .031.002.045.002.042.004.099.009.156.025.011.003.023.007.034.011.045.016.088.039.121.072.027.026.044.055.056.084.014.034.019.067.021.091.002.021.002.034.002.034v.026c-.002.026-.008.069-.028.111-.0001.02-.024.039-.043.057-.022.022-.05.04-.079.053-.057.024-.122.034-.176.038-.024.002-.046.002-.064.002h-.277" transform="translate(174.37 446.42)"/><path d="m181.02 447.24h3.458v-3.254h-3.458v3.254m2.179-.453c-.015.002-.031.005-.047.007l-.019.003c-.026.004-.053.007-.08.009-.018.002-.037.003-.055.004-.033.003-.065.003-.096.003h-.037c-.026 0-.051-.002-.076-.003-.015 0-.028-.003-.043-.004-.02-.002-.04-.004-.061-.006l-.016-.003-.019-.002-.023-.004c-.0001-.002-.02-.003-.029-.005-.014-.003-.027-.005-.041-.008-.082-.018-.158-.041-.228-.068-.036-.014-.071-.029-.104-.045-.027-.014-.054-.028-.079-.042-.025-.015-.048-.029-.071-.044l-.039-.027c-.0001-.008-.021-.015-.031-.023-.022-.017-.043-.034-.063-.052-.019-.016-.037-.033-.053-.05-.015-.014-.029-.029-.043-.044-.014-.016-.028-.031-.041-.048-.014-.017-.028-.036-.042-.054-.0001-.014-.02-.028-.029-.043-.007-.0001-.013-.019-.019-.029-.036-.06-.068-.123-.093-.19-.033-.084-.056-.174-.069-.27-.004-.03-.007-.061-.009-.093 0-.024-.002-.048-.002-.073 0-.018 0-.037 0-.055 0-.019.003-.037.005-.056v-.013c.003-.022.006-.044.011-.065 0-.008.003-.017.004-.025.004-.018.009-.035.013-.052.006-.023.013-.045.02-.066.009-.027.018-.052.029-.078.016-.039.035-.078.054-.114.012-.021.024-.041.036-.061.0001-.016.02-.031.031-.046.013-.019.027-.038.041-.056.014-.019.03-.037.044-.054.019-.021.037-.04.055-.058l.0001-.009c.015-.015.031-.03.049-.046.013-.011.026-.022.04-.033s.027-.021.042-.032c.018-.012.036-.025.055-.038.021-.013.043-.026.066-.039.045-.026.096-.05.151-.072.021-.009.043-.017.064-.024.023-.008.045-.015.069-.021.039-.012.081-.022.125-.031.035-.006.072-.012.11-.017.038-.004.077-.008.118-.0001.02 0 .039-.002.06-.002h.028c.073 0 .14.002.202.008h.013c.024.002.048.005.071.007.036.005.07.0001.103.016.02.003.04.008.059.012.029.006.058.013.085.02.02.005.039.011.058.017.022.006.043.013.064.02l.019.007c.0001.004.023.008.039.015.021.008.046.018.075.03.017.007.035.015.054.024.017.008.035.016.053.025.007.004.015.007.022.011v.444c-.005-.003-.0001-.007-.015-.0001l-.031-.018c-.03-.018-.059-.036-.089-.052-.032-.017-.064-.033-.095-.048-.055-.026-.107-.048-.158-.066-.097-.035-.186-.057-.264-.07-.009-.002-.019-.004-.027-.005-.022-.003-.043-.006-.063-.008-.03-.004-.059-.005-.085-.007-.017 0-.033 0-.047 0-.032 0-.064 0-.097.004-.039.002-.078.007-.118.013-.064.011-.128.027-.191.05-.0001.003-.019.007-.028.011-.006.002-.013.005-.018.007-.011.005-.021.009-.031.014-.022.0001-.043.021-.064.033-.011.006-.021.012-.032.019-.0001.007-.021.014-.031.021-.013.009-.026.018-.039.028-.011.009-.024.019-.034.028l-.015.014-.007.006-.004.005-.006.005c-.02.019-.038.039-.055.059-.009.012-.018.023-.026.034s-.016.022-.023.033c-.007.0001-.013.021-.019.032-.0001.015-.018.031-.026.046-.006.014-.012.027-.018.04-.009.022-.017.045-.024.066-.006.017-.0001.034-.014.049-.012.047-.018.089-.021.125-.002.014-.002.027-.003.039 0 .018 0 .033 0 .045 0 .008 0 .018 0 .028 0 .026.002.058.008.094.003.023.008.047.014.072.003.016.008.033.013.05.005.016.011.032.017.048.004.011.009.022.014.033.006.015.014.03.021.046.006.011.013.022.019.034.015.025.031.05.05.075.007.009.014.018.021.027.0001.011.02.023.03.034.005.006.0001.011.016.017.081.081.173.142.267.185.015.007.03.013.045.019s.03.011.045.016c.017.006.033.011.05.015.015.005.031.009.046.012.016.004.032.007.047.0001.017.003.035.006.052.008s.034.004.05.005c.033.003.065.005.096.005.0001 0 .02 0 .03 0 .023 0 .046 0 .068-.002.015 0 .03-.002.044-.004.028-.002.056-.006.081-.0001.023-.003.045-.007.066-.011.031-.007.061-.014.087-.02.017-.005.033-.009.047-.014.021-.006.039-.012.054-.017.024-.008.038-.013.038-.013.022-.008.043-.017.064-.025.028-.011.055-.023.081-.035.022-.0001.042-.02.061-.029.016-.008.03-.016.045-.023.024-.012.044-.024.061-.033l.046-.025v.436s-.028.011-.075.029c-.02.008-.045.017-.073.027-.015.005-.032.011-.049.017-.014.005-.028.0001-.043.015-.016.005-.034.011-.051.016-.013.004-.026.008-.039.012l-.012.003c-.013.004-.027.007-.04.011l-.048.012c-.0001.003-.021.006-.031.008-.018.004-.035.008-.053.011-.018.004-.036.007-.054.011"/><path d="m177.03 447.24h3.458v-3.254h-3.458v3.254m.907-.457v-2.343h.882s.431-.012.668.225c.194.194.18.418.18.418s.014.233-.165.412c-.153.153-.348.193-.348.193s.088.041.156.109c.031.032.144.134.144.38 0 .249-.166.392-.166.392s-.181.214-.59.214h-.761"/><path d="m173.05 447.24h3.458v-3.254h-3.458v3.254m.907-.457v-2.343h.882s.43-.012.668.225c.193.194.179.418.179.418s.014.233-.165.412c-.152.153-.347.193-.347.193s.088.041.155.109c.032.032.145.134.145.38 0 .249-.166.392-.166.392s-.181.214-.59.214h-.761"/></g><path d="m0 0c-.157.268-.24.57-.24.885 0 .97.759 1.729 1.729 1.729.631 0 1.212-.343 1.504-.871l-2.993-1.743m-5.17 0c-.157.268-.24.57-.24.885 0 .97.76 1.729 1.729 1.729.632 0 1.212-.343 1.504-.871l-2.993-1.743m9.631 1.131l-.02.152c-.188 1.473-1.457 2.585-2.952 2.585-1.103 0-2.069-.603-2.585-1.495-.516.898-1.49 1.495-2.585 1.495-.945 0-1.788-.442-2.335-1.13v1.115h-.23c-.949 0-1.795-.447-2.339-1.141-.543.71-1.399 1.17-2.36 1.17-.64 0-1.243-.195-1.743-.554v2.129h-1.254v-6.287h-.227c-.954 0-1.729.769-1.729 1.715v1.44h1.361v1.239h-1.361v1.894h-1.241v-4.573c0-1.637 1.332-2.969 2.97-2.969h1.481v2.997c0 .97.765 1.729 1.743 1.729.953 0 1.729-.775 1.729-1.729v-2.997h1.241v2.969c0 .945.776 1.715 1.729 1.715h.126c-.343-.486-.544-1.077-.544-1.715 0-1.637 1.338-2.969 2.983-2.969h2.411v1.24h-2.411c-.127 0-.257.015-.383.043l2.577 1.484c.104-1.543 1.399-2.767 2.976-2.767h2.411v1.24h-2.411c-.128 0-.257.015-.383.043l3.222 1.856.133.076" fill="#e72a9a" transform="translate(185.1 437.76)"/></g></g><g fill="#fff"><path d="m877.22 257.59l13.577-12.536-.085 94.68-13.492-14.279v-26.857h-53.25v41.24l-13.556-14.257v-67.95l13.556-12.579v40.966h53.25v-28.43"/><path d="m890.71 339.69l13.577-12.09h17.253c6.778 0 12.05-.446 15.808-1.317 3.782-.956 6.884-2.125 9.391-3.527 2.529-1.466 4.802-3.251 6.905-5.312 6.693-6.778 10.03-15.362 10.03-25.731 0-10.178-3.442-18.464-10.305-24.86-2.529-2.401-5.439-4.398-8.754-5.928-3.251-1.551-6.353-2.55-9.307-3.038-2.911-.489-7.628-.744-14.172-.744h-16.934l-13.45-12.09h31.829c12.876 0 23.1 1.955 30.576 5.822 7.522 3.867 13.492 9.54 17.933 17.06 4.398 7.5 6.651 15.681 6.651 24.562 0 6.311-1.254 12.366-3.676 18.17-2.465 5.779-5.949 10.879-10.454 15.277-4.59 4.526-9.965 7.925-16.06 10.22-3.57 1.402-6.884 2.358-9.838 2.847-2.975.467-8.69.68-17.13.68h-29.874 29.874c8.435 0 14.15-.212 17.13-.68 2.953-.489 6.268-1.445 9.838-2.847 6.098-2.295 11.474-5.694 16.06-10.22 4.505-4.398 7.989-9.498 10.454-15.277 2.422-5.801 3.676-11.856 3.676-18.17 0-8.882-2.252-17.06-6.651-24.562-4.441-7.522-10.411-13.195-17.933-17.06-7.479-3.867-17.699-5.822-30.576-5.822h-31.829l13.45 12.09h16.934c6.544 0 11.261.255 14.172.744 2.953.489 6.06 1.487 9.307 3.038 3.315 1.53 6.226 3.527 8.754 5.928 6.863 6.396 10.305 14.682 10.305 24.86 0 10.369-3.336 18.953-10.03 25.731-2.104 2.061-4.377 3.846-6.905 5.312-2.507 1.402-5.609 2.571-9.391 3.527-3.761.871-9.03 1.317-15.808 1.317h-17.253l-13.577 12.09"/><path d="m890.71 339.69l13.577-12.09h17.253c6.778 0 12.05-.446 15.808-1.317 3.782-.956 6.884-2.125 9.391-3.527 2.529-1.466 4.802-3.251 6.905-5.312 6.693-6.778 10.03-15.362 10.03-25.731 0-10.178-3.442-18.464-10.305-24.86-2.529-2.401-5.439-4.398-8.754-5.928-3.251-1.551-6.353-2.55-9.307-3.038-2.911-.489-7.628-.744-14.172-.744h-16.934l-13.45-12.09h31.829c12.876 0 23.1 1.955 30.576 5.822 7.522 3.867 13.492 9.54 17.933 17.06 4.398 7.5 6.651 15.681 6.651 24.562 0 6.311-1.254 12.366-3.676 18.17-2.465 5.779-5.949 10.879-10.454 15.277-4.59 4.526-9.965 7.925-16.06 10.22-3.57 1.402-6.884 2.358-9.838 2.847-2.975.467-8.69.68-17.13.68h-29.874"/></g><g fill-opacity=".26" fill="#e72a9a"><path d="m904.29 257.23l-13.556-12.175v94.64l13.556-12.09v-29-12.579-28.791"/><path d="m823.95 298.59l-.043 41.18 13.577-12.217-.043-28.961h-13.492"/><path d="m837.8 286.02l-.255-28.387-13.577-12.579v40.966h13.832"/></g></svg>