<svg xmlns="http://www.w3.org/2000/svg" enable-background="new 0 0 1024 768" viewBox="0 0 554 554"><path fill="#ed3089" d="m0 0h554v554h-554z"/><g fill="#fff" transform="translate(-235-104.9)"><g><path d="m628.4 174.8c-.4-.1-.8-.1-1.2-.2l-.5-.1c-.7-.1-1.4-.2-2.1-.2-.5 0-1-.1-1.4-.1-.9-.1-1.7-.1-2.5-.1h-1c-.7 0-1.4 0-2 .1-.4 0-.7.1-1.1.1-.5.1-1.1.1-1.6.2l-.4.1-.5.1-.6.1c-.3 0-.5.1-.8.1-.4.1-.7.1-1.1.2-2.2.5-4.1 1.1-6 1.8-.9.4-1.9.8-2.7 1.2-.7.4-1.4.7-2.1 1.1-.6.4-1.3.8-1.9 1.2-.3.2-.7.5-1 .7s-.6.4-.8.6c-.6.4-1.1.9-1.6 1.4-.5.4-1 .9-1.4 1.3s-.8.8-1.1 1.2c-.4.4-.7.8-1.1 1.2-.4.5-.7.9-1.1 1.4-.3.4-.5.7-.8 1.1-.2.3-.3.5-.5.8-.9 1.5-1.8 3.2-2.5 5-.9 2.2-1.5 4.6-1.8 7.1-.1.8-.2 1.6-.2 2.4 0 .6-.1 1.3-.1 1.9v1.4c0 .5.1 1 .1 1.5v.3c.1.6.2 1.1.3 1.7 0 .2.1.4.1.7.1.5.2.9.3 1.4.2.6.3 1.2.5 1.7.2.7.5 1.4.8 2 .4 1 .9 2.1 1.4 3 .3.6.6 1.1.9 1.6.3.4.5.8.8 1.2.4.5.7 1 1.1 1.5s.8 1 1.2 1.4c.5.6 1 1.1 1.4 1.5l.3.3c.4.4.8.8 1.3 1.2.3.3.7.6 1 .9s.7.6 1.1.8c.5.3.9.7 1.5 1 .5.4 1.1.7 1.7 1 1.2.7 2.5 1.3 4 1.9.5.2 1.1.4 1.7.6l1.8.6c1 .3 2.1.6 3.3.8.9.2 1.9.3 2.9.5 1 .1 2 .2 3.1.3.5 0 1 0 1.6.1h.7c1.9 0 3.7-.1 5.3-.2h.3c.6-.1 1.3-.1 1.9-.2.9-.1 1.8-.3 2.7-.4.5-.1 1.1-.2 1.6-.3.8-.2 1.5-.3 2.2-.5.5-.1 1-.3 1.5-.4.6-.2 1.1-.4 1.7-.5l.5-.2c.3-.1.6-.2 1-.4.5-.2 1.2-.5 2-.8.4-.2.9-.4 1.4-.6.4-.2.9-.4 1.4-.7l.6-.3v-11.7c-.1.1-.3.2-.4.3l-.8.5c-.8.5-1.6.9-2.3 1.4-.9.5-1.7.9-2.5 1.3-1.4.7-2.8 1.2-4.2 1.7-2.5.9-4.9 1.5-6.9 1.8-.2 0-.5.1-.7.1-.6.1-1.1.2-1.6.2-.8.1-1.6.1-2.2.2h-1.2c-.8 0-1.7 0-2.5-.1-1-.1-2-.2-3.1-.4-1.7-.3-3.4-.7-5-1.3-.2-.1-.5-.2-.7-.3s-.3-.1-.5-.2c-.3-.1-.5-.2-.8-.4-.6-.3-1.1-.6-1.7-.9-.3-.2-.5-.3-.8-.5s-.6-.4-.8-.5c-.3-.2-.7-.5-1-.7-.3-.3-.6-.5-.9-.8l-.4-.3-.2-.2-.1-.1-.1-.1c-.5-.5-1-1-1.4-1.6-.2-.3-.5-.6-.7-.9l-.6-.9c-.2-.3-.3-.5-.5-.8-.2-.4-.5-.8-.7-1.2s-.3-.7-.5-1c-.2-.6-.5-1.2-.6-1.7-.1-.4-.3-.9-.4-1.3-.3-1.2-.5-2.3-.6-3.3 0-.4-.1-.7-.1-1v-1.2-.7c0-.7.1-1.5.2-2.5.1-.6.2-1.2.4-1.9.1-.4.2-.9.4-1.3.1-.4.3-.8.4-1.3l.3-.9.6-1.2c.2-.3.3-.6.5-.9.4-.7.8-1.3 1.3-2 .2-.2.4-.5.6-.7.2-.3.5-.6.8-.9l.4-.4c2.1-2.1 4.5-3.7 7-4.9.4-.2.8-.3 1.2-.5s.8-.3 1.2-.4.9-.3 1.3-.4l1.2-.3 1.2-.3c.5-.1.9-.1 1.3-.2.5-.1.9-.1 1.3-.1.9-.1 1.7-.1 2.5-.1h.8c.6 0 1.2 0 1.8.1.4 0 .8.1 1.2.1l2.1.3c.6.1 1.2.2 1.7.3.8.2 1.6.3 2.3.5.5.1.9.2 1.2.4.6.2 1 .3 1.4.4.6.2 1 .4 1 .4.6.2 1.1.4 1.7.6l2.1.9c.6.2 1.1.5 1.6.8l1.2.6c.6.3 1.2.6 1.6.9l1.2.6v-11.4s-.7-.3-1.9-.8c-.5-.2-1.2-.4-1.9-.7-.4-.1-.8-.3-1.3-.5-.4-.1-.7-.3-1.1-.4s-.9-.3-1.4-.4c-.3-.1-.7-.2-1-.3l-.3-.1c-.3-.1-.7-.2-1-.3-.4-.1-.8-.2-1.3-.3-.3-.1-.5-.1-.8-.2-.5-.1-.9-.2-1.4-.3-.7-.3-1.2-.4-1.6-.5m-57.2-11.9h90.8v85.4h-90.8v-85.4"/><path d="m501.4 210v16.8h10.9.6c.4 0 .9 0 1.5-.1 1.2-.1 2.7-.3 4.2-.8 1.4-.5 2.7-1.2 3.7-2.2.4-.4.7-.8 1-1.2.9-1.3 1.1-2.7 1.1-3.5v-.5-.4c0-.3-.1-1-.2-1.6-.2-.8-.6-1.7-1.3-2.6-.1-.2-.3-.3-.4-.5-.3-.3-.6-.6-1-.9-.6-.4-1.3-.8-2-1.1-1-.4-2.1-.7-3.3-1-.6-.1-1.3-.2-1.9-.3-.4 0-.8-.1-1.3-.1h-1.2-10.4"/><path d="m501.4 184.5v15.9h5.3.8c.4 0 .8 0 1.2-.1 1.1-.1 2.6-.2 4.1-.7.3-.1.6-.2.9-.3 1.2-.4 2.3-1 3.2-1.9.7-.7 1.2-1.5 1.5-2.2.4-.9.5-1.8.6-2.4s.1-.9.1-.9v-.7c0-.7-.2-1.8-.7-2.9-.3-.5-.6-1-1.1-1.5-.6-.6-1.3-1-2.1-1.4-1.5-.7-3.2-.9-4.6-1-.6 0-1.2-.1-1.7-.1-1.3.2-7.5.2-7.5.2"/><path d="m490.4 174.9v61.5h23.2s11.3.3 17.5-5.9c5.1-5.1 4.7-10.9 4.7-10.9s.4-6.1-4.3-10.8c-4-4-9.1-5.1-9.1-5.1s2.3-1.1 4.1-2.9c.8-.8 3.8-3.5 3.8-10s-4.3-10.3-4.3-10.3-4.8-5.6-15.5-5.6h-20.1m-23.8-12h90.7v85.4h-90.7v-85.4"/><path d="m396.9 210v16.8h10.9.6c.4 0 .9 0 1.5-.1 1.2-.1 2.7-.3 4.3-.8 1.4-.5 2.7-1.2 3.7-2.2.4-.4.7-.8 1-1.2.9-1.3 1.1-2.7 1.1-3.5v-.5-.4c0-.3-.1-1-.2-1.6-.2-.8-.6-1.7-1.3-2.6-.1-.2-.3-.3-.4-.5-.3-.3-.6-.6-1-.9-.6-.4-1.3-.8-2-1.1-1-.4-2.1-.7-3.3-1-.6-.1-1.3-.2-1.9-.3-.4 0-.8-.1-1.3-.1h-1.2-10.5"/><path d="m396.9 184.5v15.9h5.3.8c.4 0 .8 0 1.2-.1 1.1-.1 2.6-.2 4.1-.7.3-.1.6-.2.9-.3 1.2-.4 2.3-1 3.2-1.9.7-.7 1.2-1.5 1.5-2.2.4-.9.5-1.8.6-2.4v-.9-.7c0-.7-.2-1.8-.7-2.9-.3-.5-.6-1-1.1-1.5-.6-.6-1.3-1-2.1-1.4-1.5-.7-3.2-.9-4.6-1-.6 0-1.2-.1-1.7-.1-1.2.2-7.4.2-7.4.2"/><path d="m385.9 174.9v61.5h23.1s11.3.3 17.5-5.9c5.1-5.1 4.7-10.9 4.7-10.9s.4-6.1-4.3-10.8c-4-4-9.1-5.1-9.1-5.1s2.3-1.1 4.1-2.9c.8-.8 3.8-3.5 3.8-10s-4.3-10.3-4.3-10.3-4.8-5.6-15.5-5.6h-20m-23.8-12h90.7v85.4h-90.7v-85.4"/></g><g><path d="m362.2 285.3h72.9v316.5h-72.9z"/><path d="m475.3 285.3h73.1v316.5h-73.1z"/><g><path d="m588.7 285.3h73.1v235.5h-73.1z"/><path d="m588.7 536.8h73.1v65.1h-73.1z"/></g></g></g></svg>