<?xml version="1.0" encoding="UTF-8" standalone="no"?>
<!-- Created with Inkscape (http://www.inkscape.org/) -->

<svg
   xmlns:dc="http://purl.org/dc/elements/1.1/"
   xmlns:cc="http://creativecommons.org/ns#"
   xmlns:rdf="http://www.w3.org/1999/02/22-rdf-syntax-ns#"
   xmlns:svg="http://www.w3.org/2000/svg"
   xmlns="http://www.w3.org/2000/svg"
   xmlns:inkscape="http://www.inkscape.org/namespaces/inkscape"
   version="1.0"
   width="1024"
   height="768"
   id="svg2">
  <defs
     id="defs4">
    <clipPath
       id="clipPath2506">
      <path
         d="m 95.031,136.276 335.268,0 0,48.909 -335.268,0 0,-48.909 z"
         inkscape:connector-curvature="0"
         id="path2508" />
    </clipPath>
    <clipPath
       id="clipPath2412">
      <path
         d="m 121.254,357.165 168,0 0,126 -168,0 0,-126 z"
         inkscape:connector-curvature="0"
         id="path2414" />
    </clipPath>
    <clipPath
       id="clipPath2398">
      <path
         d="m 0,0 841.89,0 0,595.276 L 0,595.276 0,0 z"
         inkscape:connector-curvature="0"
         id="path2400" />
    </clipPath>
  </defs>
  <metadata
     id="metadata7">
    <rdf:RDF>
      <cc:Work
         rdf:about="">
        <dc:format>image/svg+xml</dc:format>
        <dc:type
           rdf:resource="http://purl.org/dc/dcmitype/StillImage" />
      </cc:Work>
    </rdf:RDF>
  </metadata>
  <g
     id="layer1">
    <g
       transform="matrix(6.0459184,0,0,-6.0459184,-728.70545,2926.3109)"
       id="g2408">
      <g
         clip-path="url(#clipPath2412)"
         id="g2410">
        <path
           d="m 121.254,483.166 168,0 0,-126 -168,0 0,126 z"
           inkscape:connector-curvature="0"
           id="path2416"
           style="fill:#c02519;fill-opacity:1;fill-rule:evenodd;stroke:none" />
        <path
           d="m 174.47,399.792 3.356,0 0,-24.669 -3.038,0 -16.494,19 0,-19 -3.319,0 0,24.669 2.86,0 16.635,-19.16 0,19.16 z"
           inkscape:connector-curvature="0"
           id="path2418"
           style="fill:#ffffff;fill-opacity:1;fill-rule:nonzero;stroke:none" />
        <path
           d="m 184.191,399.792 13.986,0 0,-3.142 -10.454,0 0,-7.523 10.101,0 0,-3.161 -10.101,0 0,-7.665 10.789,0 0,-3.143 -14.321,0 0,24.634 z"
           inkscape:connector-curvature="0"
           id="path2420"
           style="fill:#ffffff;fill-opacity:1;fill-rule:nonzero;stroke:none" />
        <path
           d="m 235.871,399.792 3.522,0 -9.975,-24.776 -0.776,0 -8.066,20.062 -8.15,-20.062 -0.758,0 -9.943,24.776 3.558,0 6.798,-17.005 6.845,17.005 3.339,0 6.876,-17.005 6.73,17.005 z"
           inkscape:connector-curvature="0"
           id="path2422"
           style="fill:#ffffff;fill-opacity:1;fill-rule:nonzero;stroke:none" />
        <path
           d="m 248.963,385.459 -2.684,1.631 c -1.684,1.028 -2.882,2.039 -3.594,3.034 -0.712,0.995 -1.069,2.14 -1.069,3.435 0,1.943 0.674,3.52 2.023,4.732 1.347,1.213 3.099,1.82 5.254,1.82 2.059,0 3.949,-0.579 5.669,-1.735 l 0,-4.009 c -1.778,1.71 -3.692,2.565 -5.74,2.565 -1.154,0 -2.102,-0.267 -2.844,-0.801 -0.741,-0.533 -1.113,-1.216 -1.113,-2.049 0,-0.738 0.274,-1.431 0.82,-2.075 0.547,-0.646 1.425,-1.323 2.636,-2.031 l 2.698,-1.597 c 3.009,-1.798 4.513,-4.086 4.513,-6.864 0,-1.978 -0.662,-3.585 -1.986,-4.821 -1.325,-1.236 -3.047,-1.853 -5.166,-1.853 -2.436,0 -4.655,0.747 -6.657,2.246 l 0,4.486 c 1.906,-2.417 4.114,-3.625 6.622,-3.625 1.107,0 2.028,0.308 2.764,0.924 0.736,0.616 1.104,1.387 1.104,2.314 0,1.501 -1.084,2.925 -3.25,4.273"
           inkscape:connector-curvature="0"
           id="path2424"
           style="fill:#ffffff;fill-opacity:1;fill-rule:nonzero;stroke:none" />
        <path
           d="m 172.986,433.4 3.523,0 -9.974,-24.776 -0.777,0 -8.066,20.06 -8.15,-20.06 -0.758,0 -9.944,24.776 3.56,0 6.798,-17.007 6.844,17.007 3.339,0 6.876,-17.007 6.729,17.007 z"
           inkscape:connector-curvature="0"
           id="path2426"
           style="fill:#ffffff;fill-opacity:1;fill-rule:nonzero;stroke:none" />
        <path
           d="m 190.408,430.397 c -2.824,0 -5.144,-0.883 -6.961,-2.648 -1.818,-1.767 -2.726,-4.022 -2.726,-6.764 0,-2.661 0.912,-4.875 2.735,-6.641 1.823,-1.765 4.105,-2.648 6.846,-2.648 2.751,0 5.048,0.901 6.89,2.702 1.84,1.801 2.76,4.044 2.76,6.728 0,2.614 -0.92,4.812 -2.76,6.596 -1.842,1.784 -4.103,2.675 -6.784,2.675 m -0.142,3.356 c 3.812,0 6.986,-1.207 9.521,-3.621 2.535,-2.413 3.804,-5.439 3.804,-9.076 0,-3.639 -1.28,-6.649 -3.839,-9.034 -2.559,-2.383 -5.785,-3.575 -9.681,-3.575 -3.716,0 -6.814,1.192 -9.29,3.575 -2.477,2.385 -3.716,5.372 -3.716,8.963 0,3.685 1.247,6.734 3.741,9.147 2.495,2.414 5.648,3.621 9.46,3.621"
           inkscape:connector-curvature="0"
           id="path2428"
           style="fill:#ffffff;fill-opacity:1;fill-rule:nonzero;stroke:none" />
        <path
           d="m 212.27,430.397 -1.059,0 0,-7.788 1.342,0 c 1.789,0 3.016,0.153 3.682,0.46 0.665,0.305 1.183,0.768 1.554,1.385 0.371,0.618 0.556,1.322 0.556,2.112 0,0.776 -0.206,1.479 -0.618,2.11 -0.412,0.63 -0.992,1.074 -1.739,1.332 -0.748,0.26 -1.988,0.389 -3.718,0.389 m -4.591,-21.668 0,24.671 6.18,0 c 2.496,0 4.478,-0.618 5.943,-1.854 1.466,-1.237 2.198,-2.908 2.198,-5.016 0,-1.437 -0.358,-2.679 -1.076,-3.727 -0.719,-1.047 -1.749,-1.831 -3.091,-2.348 0.789,-0.519 1.56,-1.225 2.313,-2.12 0.754,-0.894 1.813,-2.453 3.179,-4.678 0.86,-1.402 1.549,-2.456 2.066,-3.161 l 1.307,-1.767 -4.203,0 -1.076,1.625 c -0.036,0.059 -0.106,0.16 -0.212,0.301 l -0.687,0.972 -1.094,1.802 -1.182,1.926 c -0.728,1.013 -1.396,1.819 -2.003,2.419 -0.607,0.599 -1.156,1.031 -1.644,1.296 -0.49,0.263 -1.312,0.396 -2.467,0.396 l -0.919,0 0,-10.737 -3.532,0 z"
           inkscape:connector-curvature="0"
           id="path2430"
           style="fill:#ffffff;fill-opacity:1;fill-rule:nonzero;stroke:none" />
        <path
           d="m 230.142,433.4 3.532,0 0,-21.457 11.107,0 0,-3.214 -14.639,0 0,24.671 z"
           inkscape:connector-curvature="0"
           id="path2432"
           style="fill:#ffffff;fill-opacity:1;fill-rule:nonzero;stroke:none" />
        <path
           d="m 256.939,430.256 -4.415,0 0,-18.348 4.52,0 c 1.767,0 3.138,0.12 4.116,0.362 0.976,0.241 1.791,0.548 2.446,0.918 0.652,0.372 1.25,0.827 1.791,1.369 1.742,1.766 2.614,3.996 2.614,6.693 0,2.649 -0.895,4.809 -2.684,6.48 -0.659,0.624 -1.416,1.137 -2.269,1.537 -0.855,0.4 -1.664,0.665 -2.429,0.795 -0.765,0.129 -1.995,0.194 -3.69,0.194 m -7.947,-21.491 0,24.635 8.317,0 c 3.356,0 6.01,-0.504 7.966,-1.511 1.954,-1.006 3.507,-2.486 4.661,-4.441 1.154,-1.954 1.731,-4.085 1.731,-6.392 0,-1.649 -0.318,-3.226 -0.954,-4.733 -0.636,-1.508 -1.542,-2.832 -2.719,-3.973 -1.201,-1.179 -2.597,-2.067 -4.186,-2.667 -0.93,-0.365 -1.783,-0.609 -2.561,-0.733 -0.777,-0.124 -2.26,-0.185 -4.449,-0.185 l -7.806,0 z"
           inkscape:connector-curvature="0"
           id="path2434"
           style="fill:#ffffff;fill-opacity:1;fill-rule:nonzero;stroke:none" />
        <path
           d="m 208.503,452.316 c -0.002,-0.528 -0.164,-1.06 -0.636,-1.473 -0.471,-0.414 -1.286,-0.729 -2.636,-0.729 l -2.717,0 0,4.357 2.596,0 c 1.211,0 2.07,-0.246 2.609,-0.629 0.537,-0.386 0.78,-0.893 0.784,-1.526"
           inkscape:connector-curvature="0"
           id="path2436"
           style="fill:#ffffff;fill-opacity:1;fill-rule:nonzero;stroke:none" />
        <path
           d="m 206.302,457.533 c 0.506,0.364 0.75,0.88 0.753,1.653 -0.002,0.531 -0.154,0.986 -0.536,1.325 -0.383,0.34 -1.033,0.581 -2.083,0.581 l -1.922,0 0,-4.129 1.319,0 c 1.142,0 1.96,0.203 2.469,0.57"
           inkscape:connector-curvature="0"
           id="path2438"
           style="fill:#ffffff;fill-opacity:1;fill-rule:nonzero;stroke:none" />
        <path
           d="m 211.434,451.996 c 0.007,2.014 -1.334,3.545 -3.481,4.133 0.58,0.296 1.038,0.658 1.374,1.099 0.448,0.592 0.663,1.317 0.66,2.163 0.003,1.038 -0.406,2.097 -1.283,2.89 -0.878,0.792 -2.21,1.305 -4.028,1.304 l -5.021,0 0,-15.966 5.89,0 0.003,0 c 2.102,0 3.578,0.57 4.528,1.415 0.951,0.841 1.359,1.945 1.358,2.962 m 5.597,-7.471 -23.557,0 0,22.168 23.557,0 0,-22.168 z"
           inkscape:connector-curvature="0"
           id="path2440"
           style="fill:#ffffff;fill-opacity:1;fill-rule:nonzero;stroke:none" />
        <path
           d="m 179.159,457.533 c 0.505,0.364 0.75,0.88 0.754,1.653 -0.001,0.531 -0.154,0.986 -0.536,1.325 -0.384,0.34 -1.034,0.581 -2.085,0.581 l -1.92,0 0,-4.129 1.319,0 c 1.141,0 1.959,0.203 2.468,0.57"
           inkscape:connector-curvature="0"
           id="path2442"
           style="fill:#ffffff;fill-opacity:1;fill-rule:nonzero;stroke:none" />
        <path
           d="m 180.576,453.842 c -0.538,0.383 -1.398,0.629 -2.608,0.629 l -2.596,0 0,-4.357 2.717,0 c 1.35,0 2.163,0.315 2.635,0.729 0.472,0.413 0.635,0.945 0.636,1.473 -0.004,0.633 -0.247,1.14 -0.784,1.526"
           inkscape:connector-curvature="0"
           id="path2444"
           style="fill:#ffffff;fill-opacity:1;fill-rule:nonzero;stroke:none" />
        <path
           d="m 184.292,451.996 c 0.007,2.014 -1.336,3.545 -3.48,4.133 0.578,0.296 1.036,0.658 1.371,1.099 0.45,0.592 0.663,1.317 0.662,2.163 0.001,1.038 -0.407,2.097 -1.284,2.89 -0.877,0.792 -2.209,1.305 -4.027,1.304 l -5.022,0 0,-15.966 5.889,0 0.004,0 c 2.103,0 3.578,0.57 4.528,1.415 0.95,0.841 1.361,1.945 1.359,2.962 m 5.597,-7.471 -23.556,0 0,22.168 23.556,0 0,-22.168 z"
           inkscape:connector-curvature="0"
           id="path2446"
           style="fill:#ffffff;fill-opacity:1;fill-rule:nonzero;stroke:none" />
        <path
           d="m 239.496,451.893 -0.378,-0.231 c -1.824,-1.114 -3.808,-1.711 -5.61,-1.71 -3.858,0.015 -6.398,2.301 -6.408,5.627 0.004,3.255 2.657,5.664 6.31,5.672 1.861,-10e-4 3.546,-0.482 5.549,-1.58 l 0.368,-0.202 0,2.971 -0.158,0.062 c -2.258,0.891 -4.007,1.288 -5.734,1.287 -2.671,0.001 -4.988,-0.881 -6.639,-2.377 -1.65,-1.497 -2.631,-3.61 -2.629,-6.037 0.001,-1.691 0.698,-3.672 2.192,-5.245 1.489,-1.573 3.784,-2.719 6.931,-2.718 l 0.011,0 c 2.61,0 4.42,0.581 6.056,1.388 l 0.139,0.068 0,3.025 z m 4.678,-7.368 -23.556,0 0,22.168 23.556,0 0,-22.168 z"
           inkscape:connector-curvature="0"
           id="path2448"
           style="fill:#ffffff;fill-opacity:1;fill-rule:nonzero;stroke:none" />
      </g>
    </g>
  </g>
</svg>
