<svg xmlns="http://www.w3.org/2000/svg" viewBox="0 0 1024 768"><defs><clipPath><path d="m95.03 136.28h335.27v48.909h-335.27v-48.909"/></clipPath><clipPath id="0"><path d="m121.25 357.17h168v126h-168v-126"/></clipPath><clipPath><path d="m0 0h841.89v595.28h-841.89v-595.28"/></clipPath></defs><g transform="matrix(6.0459 0 0-6.0459-728.71 2926.31)"><g clip-path="url(#0)"><path d="m121.25 483.17h168v-126h-168v126" fill="#c02519" fill-rule="evenodd"/><g fill="#fff"><path d="m174.47 399.79h3.356v-24.669h-3.038l-16.494 19v-19h-3.319v24.669h2.86l16.635-19.16v19.16"/><path d="m184.19 399.79h13.986v-3.142h-10.454v-7.523h10.1v-3.161h-10.1v-7.665h10.789v-3.143h-14.321v24.634"/><path d="m235.87 399.79h3.522l-9.975-24.776h-.776l-8.07 20.06-8.15-20.06h-.758l-9.943 24.776h3.558l6.798-17 6.845 17h3.339l6.876-17 6.73 17"/><path d="m248.96 385.46l-2.684 1.631c-1.684 1.028-2.882 2.039-3.594 3.034-.712.995-1.069 2.14-1.069 3.435 0 1.943.674 3.52 2.023 4.732 1.347 1.213 3.099 1.82 5.254 1.82 2.059 0 3.949-.579 5.669-1.735v-4.01c-1.778 1.71-3.692 2.565-5.74 2.565-1.154 0-2.102-.267-2.844-.801-.741-.533-1.113-1.216-1.113-2.049 0-.738.274-1.431.82-2.075.547-.646 1.425-1.323 2.636-2.031l2.698-1.597c3.01-1.798 4.513-4.086 4.513-6.864 0-1.978-.662-3.585-1.986-4.821-1.325-1.236-3.047-1.853-5.166-1.853-2.436 0-4.655.747-6.657 2.246v4.486c1.906-2.417 4.114-3.625 6.622-3.625 1.107 0 2.028.308 2.764.924.736.616 1.104 1.387 1.104 2.314 0 1.501-1.084 2.925-3.25 4.273"/><path d="m172.99 433.4h3.523l-9.974-24.776h-.777l-8.07 20.06-8.15-20.06h-.758l-9.944 24.776h3.56l6.798-17.01 6.844 17.01h3.339l6.876-17.01 6.729 17.01"/><path d="m190.41 430.4c-2.824 0-5.144-.883-6.961-2.648-1.818-1.767-2.726-4.02-2.726-6.764 0-2.661.912-4.875 2.735-6.641 1.823-1.765 4.105-2.648 6.846-2.648 2.751 0 5.05.901 6.89 2.702 1.84 1.801 2.76 4.04 2.76 6.728 0 2.614-.92 4.812-2.76 6.596-1.842 1.784-4.103 2.675-6.784 2.675m-.142 3.356c3.812 0 6.986-1.207 9.521-3.621 2.535-2.413 3.804-5.439 3.804-9.08 0-3.639-1.28-6.649-3.839-9.03-2.559-2.383-5.785-3.575-9.681-3.575-3.716 0-6.814 1.192-9.29 3.575-2.477 2.385-3.716 5.372-3.716 8.963 0 3.685 1.247 6.734 3.741 9.147 2.495 2.414 5.648 3.621 9.46 3.621"/><path d="m212.27 430.4h-1.059v-7.788h1.342c1.789 0 3.02.153 3.682.46.665.305 1.183.768 1.554 1.385.371.618.556 1.322.556 2.112 0 .776-.206 1.479-.618 2.11-.412.63-.992 1.074-1.739 1.332-.748.26-1.988.389-3.718.389m-4.591-21.668v24.671h6.18c2.496 0 4.478-.618 5.943-1.854 1.466-1.237 2.198-2.908 2.198-5.02 0-1.437-.358-2.679-1.076-3.727-.719-1.047-1.749-1.831-3.091-2.348.789-.519 1.56-1.225 2.313-2.12.754-.894 1.813-2.453 3.179-4.678.86-1.402 1.549-2.456 2.066-3.161l1.307-1.767h-4.203l-1.076 1.625c-.036.059-.106.16-.212.301l-.687.972-1.094 1.802-1.182 1.926c-.728 1.013-1.396 1.819-2 2.419-.607.599-1.156 1.031-1.644 1.296-.49.263-1.312.396-2.467.396h-.919v-10.737h-3.532z"/><path d="m230.14 433.4h3.532v-21.457h11.11v-3.214h-14.639v24.671"/><path d="m256.94 430.26h-4.415v-18.348h4.52c1.767 0 3.138.12 4.116.362.976.241 1.791.548 2.446.918.652.372 1.25.827 1.791 1.369 1.742 1.766 2.614 3.996 2.614 6.693 0 2.649-.895 4.809-2.684 6.48-.659.624-1.416 1.137-2.269 1.537-.855.4-1.664.665-2.429.795-.765.129-1.995.194-3.69.194m-7.947-21.491v24.635h8.317c3.356 0 6.01-.504 7.966-1.511 1.954-1.01 3.507-2.486 4.661-4.441 1.154-1.954 1.731-4.085 1.731-6.392 0-1.649-.318-3.226-.954-4.733-.636-1.508-1.542-2.832-2.719-3.973-1.201-1.179-2.597-2.067-4.186-2.667-.93-.365-1.783-.609-2.561-.733-.777-.124-2.26-.185-4.449-.185h-7.806z"/><path d="m208.5 452.32c-.002-.528-.164-1.06-.636-1.473-.471-.414-1.286-.729-2.636-.729h-2.717v4.357h2.596c1.211 0 2.07-.246 2.609-.629.537-.386.78-.893.784-1.526"/><path d="m206.3 457.53c.506.364.75.88.753 1.653-.002.531-.154.986-.536 1.325-.383.34-1.033.581-2.083.581h-1.922v-4.129h1.319c1.142 0 1.96.203 2.469.57"/><path d="m211.43 452c.007 2.01-1.334 3.545-3.481 4.133.58.296 1.038.658 1.374 1.099.448.592.663 1.317.66 2.163.003 1.038-.406 2.097-1.283 2.89-.878.792-2.21 1.305-4.03 1.304h-5.02v-15.966h5.89.003c2.102 0 3.578.57 4.528 1.415.951.841 1.359 1.945 1.358 2.962m5.597-7.471h-23.557v22.17h23.557v-22.17z"/><path d="m179.16 457.53c.505.364.75.88.754 1.653 0 .531-.154.986-.536 1.325-.384.34-1.034.581-2.085.581h-1.92v-4.129h1.319c1.141 0 1.959.203 2.468.57"/><path d="m180.58 453.84c-.538.383-1.398.629-2.608.629h-2.596v-4.357h2.717c1.35 0 2.163.315 2.635.729.472.413.635.945.636 1.473-.004.633-.247 1.14-.784 1.526"/><path d="m184.29 452c.007 2.01-1.336 3.545-3.48 4.133.578.296 1.036.658 1.371 1.099.45.592.663 1.317.662 2.163 0 1.038-.407 2.097-1.284 2.89-.877.792-2.209 1.305-4.03 1.304h-5.02v-15.966h5.889.004c2.103 0 3.578.57 4.528 1.415.95.841 1.361 1.945 1.359 2.962m5.597-7.471h-23.556v22.17h23.556v-22.17z"/><path d="m239.5 451.89l-.378-.231c-1.824-1.114-3.808-1.711-5.61-1.71-3.858.015-6.398 2.301-6.408 5.627.004 3.255 2.657 5.664 6.31 5.672 1.861 0 3.546-.482 5.549-1.58l.368-.202v2.971l-.158.062c-2.258.891-4.01 1.288-5.734 1.287-2.671 0-4.988-.881-6.639-2.377-1.65-1.497-2.631-3.61-2.629-6.04 0-1.691.698-3.672 2.192-5.245 1.489-1.573 3.784-2.719 6.931-2.718h.011c2.61 0 4.42.581 6.06 1.388l.139.068v3.02m4.678-7.368h-23.556v22.17h23.556v-22.17"/></g></g></g></svg>