<svg xmlns="http://www.w3.org/2000/svg" height="125.12" width="600" viewBox="0 0 158.75 33.10528"><g transform="translate(-21.17-123.21)" fill="#d40e66"><path d="m61.31 152.73c-.167-.28-.369-.45-.725-.45-.376 0-.7.27-.7.65 0 .36.376.53.66.66l.279.12c.548.24 1.012.52 1.012 1.18 0 .74-.593 1.31-1.323 1.31-.678 0-1.179-.44-1.313-1.09l.458-.13c.06.43.389.78.842.78.454 0 .865-.34.865-.82 0-.49-.384-.66-.775-.84l-.257-.11c-.49-.22-.916-.47-.916-1.08 0-.65.553-1.07 1.178-1.07.468 0 .867.24 1.089.66z"/><path d="m67.13 152.84c-.333-.35-.799-.56-1.285-.56-.937 0-1.697.81-1.697 1.74s.765 1.74 1.709 1.74c.474 0 .94-.22 1.273-.56v.58c-.363.27-.809.42-1.255.42-1.191 0-2.195-.97-2.195-2.16 0-1.21.989-2.2 2.195-2.2.468 0 .882.14 1.255.42z"/><path d="m71.963 153.62v-1.71h.468v4.22h-.468v-2.07h-2.155v2.07h-.468v-4.22h.468v1.71z"/><path d="m75.33 154.93l-.51 1.2h-.514l1.944-4.42 1.893 4.42h-.518l-.498-1.2zm.648-3.89l-.304.3-.301-.3.301-.3zm.262 1.77l-.72 1.68h1.422zm.837-1.77l-.302.3-.301-.3.301-.3z"/><path d="m80.47 156.13h-.468v-4.21h.608c.797 0 1.542.21 1.542 1.16 0 .64-.409 1.1-1.057 1.16l1.341 1.89h-.576l-1.273-1.85h-.117zm0-2.27h.145c.53 0 1.066-.1 1.066-.75 0-.69-.508-.76-1.071-.76h-.14z"/><path d="m84.89 152.35v1.25h1.403v.44h-1.403v2.09h-.468v-4.22h1.916v.44z"/><path d="m88.48 151.92h2.183v.43h-1.714v1.25h1.664v.44h-1.664v1.65h1.714v.44h-2.183z"/><path d="m93.33 156.13h-.469v-4.21h.608c.8 0 1.542.21 1.542 1.16 0 .64-.408 1.1-1.056 1.16l1.34 1.89h-.575l-1.273-1.85h-.117zm0-2.27h.144c.531 0 1.066-.1 1.066-.75 0-.69-.508-.76-1.071-.76h-.139z"/><path d="m100.87 152.35v1.25h1.4v.44h-1.4v2.09h-.47v-4.22h1.91v.44z"/><path d="m104.46 151.92h2.19v.43h-1.72v1.25h1.67v.44h-1.67v1.65h1.72v.44h-2.19z"/><path d="m109.31 156.13h-.47v-4.21h.61c.8 0 1.54.21 1.54 1.16 0 .64-.41 1.1-1.05 1.16l1.34 1.89h-.58l-1.27-1.85h-.12zm0-2.27h.15c.53 0 1.06-.1 1.06-.75 0-.69-.51-.76-1.07-.76h-.14z"/><path d="m113.29 151.74l3.29 3.44v-3.27h.46v4.4l-3.28-3.43v3.25h-.47z"/><path d="m121.22 152.73c-.16-.28-.36-.45-.72-.45-.38 0-.7.27-.7.65 0 .36.38.53.66.66l.28.12c.55.24 1.01.52 1.01 1.18 0 .74-.59 1.31-1.32 1.31-.68 0-1.18-.44-1.32-1.09l.46-.13c.06.43.39.78.85.78.45 0 .86-.34.86-.82 0-.49-.38-.66-.78-.84l-.25-.11c-.49-.22-.92-.47-.92-1.08 0-.65.55-1.07 1.18-1.07.47 0 .87.24 1.09.66z"/><path d="m123.83 151.92h2.19v.43h-1.72v1.25h1.67v.44h-1.67v1.65h1.72v.44h-2.19z"/><path d="m130.86 153.62v-1.71h.47v4.22h-.47v-2.07h-2.16v2.07h-.47v-4.22h.47v1.71z"/><path d="m133.59 151.92h2.18v.43h-1.71v1.25h1.66v.44h-1.66v1.65h1.71v.44h-2.18z"/><path d="m138 151.74l3.28 3.44v-3.27h.47v4.4l-3.28-3.43v3.25h-.47z"/><path d="m83.8 140.37h-.002c-1.114-.79-2.447-2.44-3.478-4.32-1.221-2.22-1.891-4.47-1.889-6.37 0-.53.053-1.04.155-1.52.6-2.78 2.997-4.63 6.106-4.71 1.283.03 2.626.38 3.879 1.01l.249.13c.588.32 1.076.63 1.306.87l.005.001h.022l.087-.08.005-.001-.005-.02h-.005c-.231-.25-.707-.61-1.298-.93h-.007v-.001h-.015l-.025-.001-.022-.02-.207-.1c-1.256-.64-2.544-.98-3.834-1.03v-.001h-.058-.062-.013-.199c-1.554 0-2.975.44-4.108 1.28-1.171.87-1.961 2.11-2.28 3.59-.099.46-.149.96-.152 1.47.003 1.94.733 4.25 2.053 6.53 1.106 1.91 2.521 3.6 3.695 4.42l.157.11c1.231.79 2.471 1.19 3.682 1.19h.197.052c-.152.53-.226 1-.226 1.42 0 .59.142 1.09.431 1.53.505.76 1.22 1.24 2.067 1.36l.514.04c1.385 0 2.969-.8 4.464-2.25 1.019-.99 2.043-2.55 2.88-4.38l.122.27.371.22h.07c.224 0 .488-.18.835-.55l.001.001.042-.06c.244-.28.533-.66.857-1.13 2.28-3.35 3.49-6.43 3.49-8.92 0-2.22-.94-3.96-2.8-5.18-1.026-.67-2.215-1.01-3.537-1.01h-.187-.187-.06v.001c-1.104.06-2.27.36-3.361.85-.897.38-1.724.88-2.117 1.29l-.005.001-.005.001.005.001.084.08h.025.005c.356-.29 1.365-.93 2.449-1.37 1.044-.43 2.138-.67 3.167-.69 1.2.03 2.284.36 3.214.97 1.88 1.23 2.84 2.96 2.84 5.14 0 2.61-1.36 5.91-4.03 9.8-.416.46-.635.53-.735.53h-.037l-.195-.2c-.057-.13-.097-.31-.124-.55 1.086-2.53 1.684-5.19 1.684-7.5 0-1.29-.184-2.45-.548-3.46-.085-.23-.149-.39-.209-.5v-.001c-.107-.26-.274-.41-.454-.41-.199 0-.356.18-.358.42-.038.17-.055.47-.065 1.01-.028 1.59-.137 3.28-.242 4.91-.102 1.55-.197 3.02-.197 4.15 0 .67.035 1.18.105 1.55-.847 1.91-1.891 3.52-2.94 4.54-1.457 1.42-2.995 2.2-4.327 2.2l-.446-.03-.03-.001c-.611-.14-1.084-.53-1.582-1.28-.267-.41-.396-.87-.399-1.41 0-.43.08-.9.242-1.45 1.597-.12 3.092-.97 4.215-2.38 1.022-1.28 1.632-2.93 1.632-4.41 0-.3-.027-.59-.075-.87-.167-.95-.625-1.71-1.363-2.25.177-.57.322-1.13.429-1.67l.06-.56c.002-.88-.493-1.55-1.468-1.98l-.02-.001c-.271-.13-.58-.2-.891-.2h-.085-.035c-.272.02-.541.08-.8.2-.78-.58-1.774-1.03-2.877-1.3-.309-.09-.633-.16-.964-.23h-.058l-.304-.05-.471-.04c-1.305.001-2.787.71-3.966 1.88-.6.6-1.096 1.3-1.435 2.03-.374.81-.466 1.64-.466 2.48 0 .8.175 1.6.516 2.37.842 1.89 1.622 2.82 2.586 2.85h.005.037l.543-.1c1.411-.37 2.599-2.17 3.476-3.69.476-.82.917-1.68 1.343-2.51.483-.94.934-1.82 1.348-2.47.199-.31.391-.56.59-.75.742.72 1.169 1.53 1.169 2.25 0 .26-.058.49-.172.7l-.277-.05c-.476-.1-.887-.12-1.151-.12h-.065l-.331.001c-.242.02-.473.11-.653.26l-.281.47.219.35c.144.08.351.12.615.12l.426-.02.277-.05.451-.12c.431-.12.78-.3 1.036-.55.386.13.735.31 1.039.52-.643 2.06-1.642 4.01-2.521 5.73-.733 1.44-1.425 2.79-1.794 3.98h-.11-.122l-.077.001c-1.168 0-2.364-.39-3.558-1.15l-.142-.1m4.871-11.59l-.344.58c-.354.62-.727 1.36-1.118 2.14-.369.73-.748 1.48-1.146 2.21l-.145.26c-.725 1.29-1.744 2.9-2.803 3.35l-.109.05-.05.001-.018.001-.104.03-.314.03h-.013c-.774-.18-1.432-1.09-2.147-2.7-.327-.73-.493-1.49-.493-2.25 0-1.58.6-3.13 1.871-4.38l.448-.41c1.069-.89 2.312-1.41 3.416-1.41l.441.03c.251.04.505.1.757.17l-.002.001.059.001.132.03c.972.29 1.849.75 2.542 1.33-.332.22-.621.52-.86.9m1.956 2.56c-.162.17-.374.31-.633.4l-.06.02-.02.001-.351.09-.237.04h-.02-.084c-.289 0-.441-.05-.519-.1l-.119-.17.202-.32.55-.2.045-.001h.001c.254 0 .653.02 1.116.12l.187.04zm.628-.16c.199-.27.304-.59.304-.94 0-.78-.506-1.65-1.386-2.38l.558-.2h.108c.291 0 .578.06.827.19.615.31.966.94.966 1.73l-.059.6c-.09.44-.207.91-.344 1.39-.297-.16-.623-.29-.974-.39m-2.522 9.48c.379-.91.887-1.9 1.418-2.94.451-.87.934-1.81 1.388-2.8l.179-.4.055-.12c.197-.45.386-.91.56-1.37.09-.24.177-.49.259-.73.474.49.78 1.12.912 1.86.048.27.073.55.073.84 0 .51-.075 1.04-.215 1.57-.578 2.2-2.304 4.35-4.674 4.91l-.288.06c.094-.29.206-.58.333-.88m9.326-2.03l-.005-.3c0-1 .129-2.39.281-3.99v-.001c.169-1.8.359-3.84.391-5.71l.015-.52.013-.17.039-.32c.06.1.142.29.247.57.354.98.533 2.12.533 3.39l-.005.41c-.062 2.07-.593 4.41-1.509 6.65"/><path d="m21.17 128.1h1.699c1.878 0 3.455.68 3.455 2.79 0 .84-.316 1.55-1.014 2.02 1.234.3 1.961 1.41 1.961 2.65 0 2.05-1.659 2.87-3.702 2.87h-2.399zm1.151 4.55h.438c1.303 0 2.414-.15 2.414-1.76 0-1.56-.989-1.72-2.399-1.72h-.453zm0 4.72h1.151c1.29 0 2.646-.32 2.646-1.9 0-1.6-1.535-1.83-2.796-1.83h-1z"/><path d="m32.38 128.1h5.362v1.07h-4.211v3.07h4.086v1.07h-4.086v4.06h4.211v1.07h-5.362z"/><path d="m44.678 135.5-1.248 2.93h-1.261l4.771-10.83 4.649 10.83h-1.276l-1.22-2.93zm2.235-5.21-1.769 4.14h3.495z"/><path d="m57.785 138.43h-1.151v-9.26h-2.497v-1.08h6.172v1.08h-2.524z"/><path d="m64.915 128.1h5.361v1.07h-4.21v3.07h4.086v1.07h-4.086v4.06h4.21v1.07h-5.361z"/><path d="m111.64 134.25c0 .77-.03 1.65.45 2.31.45.63 1.33.99 2.08.99.74 0 1.55-.35 2.03-.92.55-.66.51-1.57.51-2.38v-6.15h1.15v6.47c0 1.12-.08 2.02-.9 2.87-.72.76-1.74 1.17-2.79 1.17-.97 0-1.97-.36-2.67-1.05-.9-.86-1.01-1.81-1.01-2.99v-6.47h1.15z"/><path d="m129.83 132.29v-4.19h1.15v10.34h-1.15v-5.08h-5.29v5.08h-1.15v-10.34h1.15v4.19z"/><path d="m141.24 130.11c-.41-.71-.9-1.12-1.78-1.12-.92 0-1.71.66-1.71 1.6 0 .89.91 1.3 1.61 1.62l.69.3c1.34.59 2.48 1.26 2.48 2.91 0 1.81-1.45 3.19-3.25 3.19-1.66 0-2.89-1.07-3.22-2.67l1.12-.32c.15 1.06.96 1.92 2.07 1.92s2.13-.84 2.13-2.01c0-1.21-.95-1.62-1.91-2.06l-.63-.27c-1.2-.55-2.25-1.17-2.25-2.65 0-1.6 1.36-2.63 2.9-2.63 1.15 0 2.12.59 2.67 1.6z"/><path d="m147.64 128.1h5.36v1.07h-4.21v3.07h4.09v1.07h-4.09v4.06h4.21v1.07h-5.36z"/><path d="m165.36 138.43h-1.15v-9.26h-2.5v-1.08h6.17v1.08h-2.52z"/><path d="m175.72 135.98l2.95-7.88h1.25l-4.2 10.95-4.19-10.95h1.24z"/><path d="m34.04 145.44h48.918v-.53h-48.918z"/><path d="m98.91 145.44h67.748v-.53h-67.748z"/></g></svg>