<?xml version="1.0" encoding="UTF-8" standalone="no"?>
<svg xmlns="http://www.w3.org/2000/svg" height="211.42" width="600" version="1.1" viewBox="0 0 158.75 55.939">
  <defs>
    <linearGradient id="a" gradientUnits="userSpaceOnUse" gradientTransform="matrix(64.265 -37.105 37.105 64.265 44.294 1242.4)" x1="0" x2="1" y1="0" y2="0">
      <stop stop-color="#572381" offset="0"/>
      <stop stop-color="#111211" offset="1"/>
    </linearGradient>
    <linearGradient id="b" gradientUnits="userSpaceOnUse" gradientTransform="matrix(32.789 -25.119 25.119 32.789 -44.888 1197.4)" x1="0" x2="1" y1="0" y2="0">
      <stop stop-color="#190031" offset="0"/>
      <stop stop-color="#190031" offset=".0060577"/>
      <stop stop-color="#5c2d91" offset="1"/>
    </linearGradient>
    <linearGradient id="c" gradientUnits="userSpaceOnUse" gradientTransform="matrix(32.789 -25.119 25.119 32.789 -29.301 1217.7)" x1="0" x2="1" y1="0" y2="0">
      <stop stop-color="#190031" offset="0"/>
      <stop stop-color="#190031" offset=".0060577"/>
      <stop stop-color="#5c2d91" offset="1"/>
    </linearGradient>
    <linearGradient id="d" gradientUnits="userSpaceOnUse" gradientTransform="matrix(32.789 -25.119 25.119 32.789 -22.085 1227.2)" x1="0" x2="1" y1="0" y2="0">
      <stop stop-color="#190031" offset="0"/>
      <stop stop-color="#190031" offset=".0060577"/>
      <stop stop-color="#5c2d91" offset="1"/>
    </linearGradient>
    <linearGradient id="e" gradientUnits="userSpaceOnUse" gradientTransform="matrix(32.789 -25.119 25.119 32.789 -12.545 1239.6)" x1="0" x2="1" y1="0" y2="0">
      <stop stop-color="#190031" offset="0"/>
      <stop stop-color="#190031" offset=".0060577"/>
      <stop stop-color="#5c2d91" offset="1"/>
    </linearGradient>
    <linearGradient id="f" gradientUnits="userSpaceOnUse" gradientTransform="matrix(32.789 -25.119 25.119 32.789 -19.02 1244)" x1="0" x2="1" y1="0" y2="0">
      <stop stop-color="#190031" offset="0"/>
      <stop stop-color="#190031" offset=".0060577"/>
      <stop stop-color="#5c2d91" offset="1"/>
    </linearGradient>
    <linearGradient id="g" gradientUnits="userSpaceOnUse" gradientTransform="matrix(32.789 -25.119 25.119 32.789 -13.315 1251.4)" x1="0" x2="1" y1="0" y2="0">
      <stop stop-color="#190031" offset="0"/>
      <stop stop-color="#190031" offset=".0060577"/>
      <stop stop-color="#5c2d91" offset="1"/>
    </linearGradient>
    <linearGradient id="h" gradientUnits="userSpaceOnUse" gradientTransform="matrix(32.789 -25.118 25.118 32.789 -5.6568 1261.4)" x1="0" x2="1" y1="0" y2="0">
      <stop stop-color="#190031" offset="0"/>
      <stop stop-color="#190031" offset=".0060577"/>
      <stop stop-color="#5c2d91" offset="1"/>
    </linearGradient>
    <linearGradient id="i" gradientUnits="userSpaceOnUse" gradientTransform="matrix(32.789 -25.119 25.119 32.789 -22.124 1240)" x1="0" x2="1" y1="0" y2="0">
      <stop stop-color="#190031" offset="0"/>
      <stop stop-color="#190031" offset=".0060577"/>
      <stop stop-color="#5c2d91" offset="1"/>
    </linearGradient>
    <linearGradient id="j" gradientUnits="userSpaceOnUse" gradientTransform="matrix(32.789 -25.119 25.119 32.789 -8.2129 1258.1)" x1="0" x2="1" y1="0" y2="0">
      <stop stop-color="#190031" offset="0"/>
      <stop stop-color="#190031" offset=".0060577"/>
      <stop stop-color="#5c2d91" offset="1"/>
    </linearGradient>
  </defs>
  <g transform="translate(74.083 -1192)">
    <g stroke-width=".26417">
      <path d="m-74.077 1193.1s-0.006 16.5-0.006 24 6.196 14.6 14.958 14.6c8.764 0 14.95-7.5 14.95-15.1s-6.033-14.9-14.956-14.9-12.793 7-12.793 7v-15.6c0-0.6-0.481-1.1-1.077-1.1-0.594 0-1.076 0.5-1.076 1.1m2.197 23.5c0-7.1 5.693-12.8 12.719-12.8 7.022 0 12.716 5.7 12.716 12.8 0 7-5.694 12.8-12.716 12.8-7.026 0-12.719-5.8-12.719-12.8" fill="url(#b)"/>
      <path d="m-42.799 1216.6c0 8.3 6.713 15 14.993 15 5.393 0 10.118-2.9 12.759-7.1 0.343-0.5 0.191-1.2-0.32-1.6-0.514-0.3-1.214-0.2-1.554 0.3-2.241 3.7-6.277 6.1-10.885 6.1-7.041 0-12.744-5.7-12.744-12.7s5.703-12.7 12.744-12.7c6.648 0 12.103 5 12.692 11.5h-14.846c-0.624 0-1.123 0.5-1.123 1.2 0 0.6 0.509 1.1 1.134 1.1h16.002c0.842 0 1.133-0.6 1.133-1.1 0-8.3-6.712-15-14.992-15s-14.993 6.7-14.993 15" fill="url(#c)"/>
      <path d="m-8.5175 1201.6h0.0051zc-1.4536 0-2.5565 1.1-2.6335 2.2v26c0.077 1 1.1799 2.1 2.6335 2.2 1.4536-0.1 2.5534-1.2 2.6335-2.2v-26c-0.0801-1.1-1.1799-2.2-2.6335-2.2m-0.0052 0h0.0052zm0.0052 30.3h0.0051-0.0051m-0.0052 0h0.0052-0.0052" fill="url(#d)"/>
      <path d="m35.433 1201.6h0.005zc-1.43 0-2.51 1.2-2.587 2.2v19.1c0 0.7-0.436 2.5-2.091 3.3-3.558 1.6-5.389-1.6-5.389-1.6l-11.858-18.7c-1.368-2.3-5.5973-5.7-11.347-3.6-5.5432 2.3-5.613 8-5.613 8v19.5c0.0801 1 1.1825 2 2.6361 2 1.451 0 2.5663-1.1 2.5663-2.3v-18.6s-0.2659-3.7 3.9528-4.1c2.4657-0.1 3.6791 2.4 3.6791 2.4s10.792 17.1 11.89 18.7c1.092 1.7 5.522 5.6 11.277 3.2 5.82-2.4 5.474-8.2 5.474-8.2l0.002-19.1c-0.077-1.1-1.162-2.2-2.592-2.2m-0.005 0h0.005zm-36.244 30.2h0.00517zm-0.00774 0h0.00774z" fill="url(#e)"/>
      <path d="m-16.73 1238.3 0.007 8.9c0 0.4 0.346 0.8 0.767 0.8 0.426 0 0.772-0.4 0.772-0.8v-3.9h3.4c2.7398 0 4.9602-2.2 4.9602-5 0-2.7-2.2204-4.9-4.9602-4.9-3.033 0-4.946 2.1-4.946 4.9m1.538 0c0-2 1.268-3.5 3.393-3.5 1.9157 0 3.47 1.6 3.47 3.5s-1.5543 3.5-3.47 3.5h-3.387z" fill="url(#f)"/>
      <path d="m-6.5502 1240.7c0 4 3.2867 7.3 7.3247 7.3s7.3247-3.3 7.3247-7.3c0-4.1-3.2867-7.4-7.3247-7.4s-7.3247 3.3-7.3247 7.4m1.6447 0c0-3.2 2.5482-5.7 5.68-5.7s5.6826 2.5 5.6826 5.7c0 3.1-2.5508 5.6-5.6826 5.6s-5.68-2.5-5.68-5.6" fill="url(#g)"/>
      <path d="m19.198 1233.9c-0.454 0-0.823 0.3-0.823 0.8 0 0.4 0.369 0.8 0.823 0.8h3.251v11.5c0 0.5 0.351 0.9 0.787 0.9 0.434 0 0.788-0.4 0.788-0.9v-11.5h3.209c0.455 0 0.824-0.4 0.824-0.8 0-0.5-0.369-0.8-0.824-0.8z" fill="url(#h)"/>
      <path d="m-23.022 1233.3c-3.935 0-4.784 2.9-4.784 4.4s1.192 3.5 4.817 3.5c3.628 0 3.475 2.2 3.475 2.3 0 0 0.197 2.8-3.464 2.8-2.998 0-3.354-2.3-3.315-3 0-0.5-0.339-0.8-0.752-0.8-0.418 0-0.756 0.3-0.756 0.8-0.065 2.5 1.915 4.5 4.794 4.5 3.612 0 5.017-2.2 5.017-4.3s-1.653-3.8-5.006-3.8c-3.354 0-3.321-1.9-3.321-1.9s-0.214-3 3.328-3c3.545 0 3.271 3.2 3.271 3.2 0 0.4 0.336 0.8 0.747 0.8 0.408 0 0.741-0.4 0.741-0.8 0-4.6-4.41-4.7-4.769-4.7h-0.023" fill="url(#i)"/>
      <path d="m8.8324 1238.3 0.0103 8.9c0 0.4 0.346 0.8 0.7694 0.8 0.4259 0 0.7689-0.4 0.7689-0.8v-3.9h3.336l2.595 4.2c0.212 0.4 0.689 0.5 1.064 0.3 0.374-0.2 0.503-0.7 0.289-1.1l-2.272-3.7c1.947-0.7 3.351-2.5 3.351-4.7 0-2.7-2.22-4.9-4.96-4.9-3.033 0-4.9516 2.1-4.9516 4.9m1.5416 0c0-2 1.27-3.5 3.392-3.5 1.919 0 3.47 1.6 3.47 3.5s-1.551 3.5-3.47 3.5h-3.385z" fill="url(#j)"/>
      <path d="m36.267 1238.1s0.271-3.2-3.269-3.2c-3.542 0-3.328 3-3.328 3s-0.038 1.9 3.318 1.9c3.354 0 5.006 1.7 5.006 3.8s-1.402 4.3-5.014 4.3c-2.884 0-4.864-2-4.797-4.5 0-0.5 0.341-0.8 0.754-0.8 0.416 0 0.757 0.3 0.757 0.8-0.039 0.7 0.315 3 3.312 3 3.661 0 3.467-2.8 3.467-2.8 0-0.1 0.153-2.3-3.475-2.3-3.63 0-4.817-2-4.817-3.5s0.846-4.4 4.781-4.4c0 0 4.792-0.1 4.792 4.7 0 0.4-0.33 0.8-0.743 0.8-0.408 0-0.744-0.4-0.744-0.8" fill="#512c80"/>
    </g>
    <path d="m45.029 1201.5c-0.869 0-1.656 0.4-2.226 0.9-0.071 0.1-0.138 0.2-0.205 0.3-0.063 0-0.123 0.1-0.179 0.2-0.06 0.1-0.112 0.2-0.16 0.3-0.049 0-0.09 0.1-0.131 0.2s-0.074 0.2-0.108 0.3c-0.03 0.1-0.056 0.2-0.078 0.3-0.019 0.1-0.037 0.2-0.045 0.3-0.011 0.1-0.019 0.3-0.019 0.4v29.8c0.015 2.3 0.604 4.5 1.626 6.4 0.205 0.4 0.429 0.7 0.667 1.1 0.597 0.9 1.294 1.7 2.077 2.4 1.726 1.6 3.862 2.7 6.233 3.3 0.864 0.2 1.755 0.3 2.669 0.3h26.363c0.522 0 1.003-0.1 1.435-0.4h0.045 0.019c0.961-0.6 1.655-1.6 1.655-2.8v-40.1c0-1.3-0.79-2.5-1.927-2.9-0.332-0.2-0.69-0.3-1.07-0.3h-36.615-0.026zm20.469 7.4c1.376 0 2.52 0.4 3.337 1.2 0.797 0.8 1.237 2 1.237 3.3v7.9c0 0.4-0.361 0.8-0.816 0.8-0.451 0-0.813-0.4-0.813-0.8v-3.3h-5.886v3.3c0 0.4-0.362 0.8-0.816 0.8-0.452 0-0.813-0.4-0.813-0.8v-7.9c0-1.3 0.436-2.5 1.252-3.3 0.798-0.8 1.946-1.2 3.318-1.2zm-17.081 0.2c0.649 0 1.223 0.4 1.406 1l2.732 9.3 2.744-9.3c0.168-0.6 0.753-1 1.401-1 0.742 0 1.361 0.5 1.451 1.3l1.357 10.8c0.014 0 0.014 0.1 0.014 0.1 0 0.4-0.376 0.8-0.827 0.8-0.425 0-0.772-0.3-0.831-0.7l-1.238-9.9-2.956 9.8c-0.149 0.5-0.604 0.8-1.115 0.8-0.499 0-0.969-0.3-1.103-0.8l-2.957-9.8-1.252 9.9c-0.06 0.4-0.392 0.7-0.817 0.7-0.466 0-0.827-0.4-0.827-0.8v-0.1l1.372-10.8c0.074-0.8 0.708-1.3 1.446-1.3zm23.735 0c0.287 0 0.53 0.1 0.679 0.3l3.247 4.7 3.243-4.7c0.164-0.2 0.406-0.3 0.679-0.3 0.466 0 0.831 0.4 0.831 0.8 0 0.2-0.049 0.3-0.138 0.5l-3.605 5.1 3.709 5.3c0.094 0.1 0.153 0.3 0.153 0.5 0 0.4-0.376 0.8-0.831 0.8-0.287 0-0.526-0.1-0.679-0.4l-3.362-4.7-3.351 4.7c-0.15 0.3-0.407 0.4-0.679 0.4-0.47 0-0.831-0.4-0.831-0.8 0-0.2 0.048-0.4 0.153-0.5l3.694-5.3-3.59-5.1c-0.09-0.2-0.149-0.3-0.149-0.5 0-0.4 0.376-0.8 0.827-0.8zm-6.654 1.5c-1.1 0-2.941 0.3-2.941 2.9v3h5.886v-3c0-2.6-1.841-2.9-2.945-2.9zm-4.484 16h6.08l-0.641 2.3h-5.123v2.7h1.913c2.449 0 4.436 2 4.436 4.5s-1.987 4.5-4.436 4.5c-2.196 0-4.023-1.6-4.377-3.8h2.23c0.309 0.9 1.155 1.6 2.147 1.6 1.252 0 2.27-1 2.27-2.3s-1.018-2.3-2.27-2.3h-2.617c-1.066 0-1.73-0.9-1.73-2.2v-3.3c0-1.1 0.813-1.7 2.118-1.7z" stroke-width=".40649" fill="url(#a)"/>
  </g>
</svg>
