<?xml version="1.0" encoding="UTF-8" standalone="no"?>
<svg xmlns="http://www.w3.org/2000/svg" height="211.42" width="600" version="1.1" viewBox="0 0 158.75 55.939">
  <defs>
    <linearGradient id="a" gradientUnits="userSpaceOnUse" gradientTransform="matrix(64.265 -37.105 37.105 64.265 267.3 1417)" x1="0" x2="1" y1="0" y2="0">
      <stop stop-color="#572381" offset="0"/>
      <stop stop-color="#111211" offset="1"/>
    </linearGradient>
    <linearGradient id="b" gradientUnits="userSpaceOnUse" gradientTransform="matrix(32.789 -25.119 25.119 32.789 178.12 1372)" x1="0" x2="1" y1="0" y2="0">
      <stop stop-color="#190031" offset="0"/>
      <stop stop-color="#190031" offset=".0060577"/>
      <stop stop-color="#5c2d91" offset="1"/>
    </linearGradient>
    <linearGradient id="c" gradientUnits="userSpaceOnUse" gradientTransform="matrix(32.789 -25.119 25.119 32.789 193.7 1392.4)" x1="0" x2="1" y1="0" y2="0">
      <stop stop-color="#190031" offset="0"/>
      <stop stop-color="#190031" offset=".0060577"/>
      <stop stop-color="#5c2d91" offset="1"/>
    </linearGradient>
    <linearGradient id="d" gradientUnits="userSpaceOnUse" gradientTransform="matrix(32.789 -25.119 25.119 32.789 200.92 1401.8)" x1="0" x2="1" y1="0" y2="0">
      <stop stop-color="#190031" offset="0"/>
      <stop stop-color="#190031" offset=".0060577"/>
      <stop stop-color="#5c2d91" offset="1"/>
    </linearGradient>
    <linearGradient id="e" gradientUnits="userSpaceOnUse" gradientTransform="matrix(32.789 -25.119 25.119 32.789 210.46 1414.2)" x1="0" x2="1" y1="0" y2="0">
      <stop stop-color="#190031" offset="0"/>
      <stop stop-color="#190031" offset=".0060577"/>
      <stop stop-color="#5c2d91" offset="1"/>
    </linearGradient>
    <linearGradient id="f" gradientUnits="userSpaceOnUse" gradientTransform="matrix(32.789 -25.119 25.119 32.789 203.99 1418.6)" x1="0" x2="1" y1="0" y2="0">
      <stop stop-color="#190031" offset="0"/>
      <stop stop-color="#190031" offset=".0060577"/>
      <stop stop-color="#5c2d91" offset="1"/>
    </linearGradient>
    <linearGradient id="g" gradientUnits="userSpaceOnUse" gradientTransform="matrix(32.789 -25.119 25.119 32.789 209.69 1426.1)" x1="0" x2="1" y1="0" y2="0">
      <stop stop-color="#190031" offset="0"/>
      <stop stop-color="#190031" offset=".0060577"/>
      <stop stop-color="#5c2d91" offset="1"/>
    </linearGradient>
    <linearGradient id="h" gradientUnits="userSpaceOnUse" gradientTransform="matrix(32.789 -25.118 25.118 32.789 217.35 1436.1)" x1="0" x2="1" y1="0" y2="0">
      <stop stop-color="#190031" offset="0"/>
      <stop stop-color="#190031" offset=".0060577"/>
      <stop stop-color="#5c2d91" offset="1"/>
    </linearGradient>
    <linearGradient id="i" gradientUnits="userSpaceOnUse" gradientTransform="matrix(32.789 -25.119 25.119 32.789 200.88 1414.6)" x1="0" x2="1" y1="0" y2="0">
      <stop stop-color="#190031" offset="0"/>
      <stop stop-color="#190031" offset=".0060577"/>
      <stop stop-color="#5c2d91" offset="1"/>
    </linearGradient>
    <linearGradient id="j" gradientUnits="userSpaceOnUse" gradientTransform="matrix(32.789 -25.119 25.119 32.789 214.79 1432.7)" x1="0" x2="1" y1="0" y2="0">
      <stop stop-color="#190031" offset="0"/>
      <stop stop-color="#190031" offset=".0060577"/>
      <stop stop-color="#5c2d91" offset="1"/>
    </linearGradient>
  </defs>
  <g transform="translate(-148.92 -1366.7)">
    <g stroke-width=".26417">
      <path d="m148.93 1367.7s-0.01 16.5-0.01 24 6.2 14.6 14.96 14.6 14.95-7.5 14.95-15.1-6.03-14.9-14.95-14.9c-8.93 0-12.8 7-12.8 7v-15.6c0-0.6-0.48-1-1.07-1-0.6 0-1.08 0.4-1.08 1m2.2 23.5c0-7.1 5.69-12.8 12.72-12.8 7.02 0 12.71 5.7 12.71 12.8s-5.69 12.8-12.71 12.8c-7.03 0-12.72-5.7-12.72-12.8" fill="url(#b)"/>
      <path d="m180.21 1391.2c0 8.3 6.71 15 14.99 15 5.39 0 10.12-2.8 12.76-7.1 0.34-0.5 0.19-1.2-0.32-1.6-0.51-0.3-1.21-0.2-1.56 0.4-2.24 3.6-6.27 6.1-10.88 6.1-7.04 0-12.74-5.7-12.74-12.8 0-7 5.7-12.7 12.74-12.7 6.65 0 12.1 5.1 12.69 11.6h-14.84c-0.63 0-1.13 0.5-1.13 1.1s0.51 1.1 1.14 1.1h16c0.84 0 1.13-0.6 1.13-1.1 0-8.3-6.71-15-14.99-15s-14.99 6.7-14.99 15" fill="url(#c)"/>
      <path d="m214.49 1376.2zc-1.46 0-2.56 1.2-2.64 2.2v26c0.08 1 1.18 2.2 2.64 2.2 1.45 0 2.55-1.2 2.63-2.2v-26c-0.08-1-1.18-2.2-2.63-2.2m-0.01 0h0.01zm0.01 30.4m-0.01 0h0.01-0.01" fill="url(#d)"/>
      <path d="m258.44 1376.2zc-1.43 0-2.51 1.2-2.59 2.2v19.2c0 0.7-0.43 2.4-2.09 3.2-3.56 1.7-5.39-1.6-5.39-1.6l-11.86-18.6c-1.36-2.4-5.59-5.8-11.34-3.7-5.55 2.3-5.62 8.1-5.62 8.1v19.4c0.08 1 1.19 2.1 2.64 2.1s2.57-1.2 2.57-2.4v-18.6s-0.27-3.7 3.95-4.1c2.46-0.1 3.68 2.5 3.68 2.5s10.79 17 11.89 18.7c1.09 1.7 5.52 5.5 11.28 3.1 5.81-2.3 5.47-8.2 5.47-8.2v-19.1c-0.08-1-1.16-2.2-2.59-2.2m-0.01 0h0.01zm-36.24 30.3h0.01zm-0.01 0h0.01z" fill="url(#e)"/>
      <path d="m206.28 1413v8.8c0 0.4 0.35 0.8 0.77 0.8 0.43 0 0.77-0.4 0.77-0.8v-3.9h3.4c2.74 0 4.96-2.2 4.96-4.9 0-2.8-2.22-5-4.96-5-3.03 0-4.94 2.1-4.94 5m1.53 0c0-2 1.27-3.5 3.4-3.5 1.91 0 3.47 1.5 3.47 3.4 0 2-1.56 3.5-3.47 3.5h-3.39z" fill="url(#f)"/>
      <path d="m216.46 1415.3c0 4 3.28 7.3 7.32 7.3s7.33-3.3 7.33-7.3c0-4.1-3.29-7.3-7.33-7.3s-7.32 3.2-7.32 7.3m1.64 0c0-3.2 2.55-5.7 5.68-5.7s5.68 2.5 5.68 5.7c0 3.1-2.55 5.7-5.68 5.7s-5.68-2.6-5.68-5.7" fill="url(#g)"/>
      <path d="m242.2 1408.5c-0.45 0-0.82 0.4-0.82 0.8s0.37 0.8 0.82 0.8h3.25v11.6c0 0.4 0.36 0.8 0.79 0.8 0.44 0 0.79-0.4 0.79-0.8v-11.6h3.21c0.45 0 0.82-0.4 0.82-0.8s-0.37-0.8-0.82-0.8z" fill="url(#h)"/>
      <path d="m199.98 1408c-3.93 0-4.78 2.9-4.78 4.3 0 1.5 1.19 3.5 4.82 3.5 3.62 0 3.47 2.2 3.47 2.3s0.2 2.8-3.46 2.8c-3 0-3.36-2.3-3.32-3 0-0.4-0.34-0.8-0.75-0.8-0.42 0-0.76 0.4-0.76 0.8-0.06 2.5 1.92 4.5 4.8 4.5 3.61 0 5.02-2.2 5.02-4.3s-1.66-3.8-5.01-3.8-3.32-1.9-3.32-1.9-0.21-3 3.33-3 3.27 3.2 3.27 3.2c0 0.5 0.33 0.8 0.74 0.8s0.75-0.3 0.75-0.8c0-4.5-4.41-4.6-4.77-4.6h-0.03" fill="url(#i)"/>
      <path d="m231.84 1413 0.01 8.8c0 0.4 0.34 0.8 0.77 0.8 0.42 0 0.77-0.4 0.77-0.8v-3.9h3.33l2.6 4.2c0.21 0.4 0.69 0.6 1.06 0.3 0.38-0.2 0.51-0.7 0.29-1l-2.27-3.8c1.95-0.6 3.35-2.5 3.35-4.6 0-2.8-2.22-5-4.96-5-3.03 0-4.95 2.1-4.95 5m1.54 0c0-2 1.27-3.5 3.39-3.5 1.92 0 3.47 1.5 3.47 3.4 0 2-1.55 3.5-3.47 3.5h-3.38z" fill="url(#j)"/>
      <path d="m259.27 1412.7s0.27-3.2-3.27-3.2-3.32 3-3.32 3-0.04 1.9 3.31 1.9c3.36 0 5.01 1.7 5.01 3.8s-1.4 4.3-5.01 4.3c-2.89 0-4.87-2-4.8-4.5 0-0.4 0.34-0.8 0.75-0.8 0.42 0 0.76 0.4 0.76 0.8-0.04 0.7 0.31 3 3.31 3 3.66 0 3.47-2.7 3.47-2.8s0.15-2.3-3.48-2.3-4.81-2-4.81-3.5c0-1.4 0.84-4.3 4.78-4.3 0 0 4.79-0.1 4.79 4.6 0 0.5-0.33 0.8-0.74 0.8s-0.75-0.3-0.75-0.8" fill="#512c80"/>
    </g>
    <path d="m268.03 1376.1c-0.86 0-1.65 0.4-2.22 1-0.07 0-0.14 0.1-0.21 0.2-0.06 0.1-0.12 0.1-0.18 0.2-0.05 0.1-0.11 0.2-0.16 0.3-0.04 0.1-0.09 0.2-0.13 0.3s-0.07 0.2-0.1 0.2c-0.03 0.1-0.06 0.2-0.08 0.4-0.02 0.1-0.04 0.2-0.05 0.3s-0.02 0.2-0.02 0.3v29.8c0.02 2.3 0.61 4.5 1.63 6.4 0.2 0.4 0.43 0.7 0.67 1.1 0.59 0.9 1.29 1.7 2.07 2.4 1.73 1.6 3.87 2.8 6.24 3.3 0.86 0.2 1.75 0.3 2.67 0.3h26.36c0.52 0 1-0.1 1.43-0.3 0.02 0 0.03-0.1 0.05-0.1h0.02c0.96-0.5 1.65-1.6 1.65-2.7v-40.2c0-1.3-0.79-2.4-1.92-2.9-0.34-0.2-0.69-0.2-1.07-0.3h-36.62-0.03zm20.47 7.4c1.38 0 2.52 0.4 3.34 1.2 0.8 0.8 1.24 2 1.24 3.4v7.8c0 0.5-0.36 0.8-0.82 0.8-0.45 0-0.81-0.3-0.81-0.8v-3.3h-5.89v3.3c0 0.5-0.36 0.8-0.81 0.8s-0.82-0.3-0.82-0.8v-7.8c0-1.4 0.44-2.6 1.26-3.4 0.79-0.8 1.94-1.2 3.31-1.2zm-17.08 0.2c0.65 0 1.23 0.4 1.41 1.1l2.73 9.2 2.74-9.2c0.17-0.7 0.76-1.1 1.41-1.1 0.74 0 1.36 0.6 1.45 1.3l1.35 10.8c0.02 0 0.02 0.1 0.02 0.1 0 0.5-0.38 0.8-0.83 0.8-0.42 0-0.77-0.3-0.83-0.7l-1.24-9.9-2.95 9.8c-0.16 0.5-0.61 0.8-1.12 0.8-0.5 0-0.97-0.3-1.1-0.8l-2.96-9.8-1.25 9.9c-0.06 0.4-0.4 0.7-0.82 0.7-0.46 0-0.83-0.3-0.83-0.8v-0.1l1.38-10.8c0.07-0.7 0.7-1.3 1.44-1.3zm23.74 0c0.29 0 0.53 0.1 0.68 0.3l3.24 4.7 3.25-4.7c0.16-0.2 0.4-0.3 0.68-0.3 0.46 0 0.83 0.4 0.83 0.8 0 0.2-0.05 0.4-0.14 0.5l-3.61 5.1 3.71 5.3c0.1 0.2 0.16 0.3 0.16 0.5 0 0.5-0.38 0.8-0.84 0.8-0.28 0-0.52-0.1-0.67-0.3l-3.37-4.8-3.35 4.8c-0.15 0.2-0.4 0.3-0.68 0.3-0.47 0-0.83-0.3-0.83-0.8 0-0.2 0.05-0.3 0.16-0.5l3.69-5.3-3.59-5.1c-0.09-0.1-0.15-0.3-0.15-0.5 0-0.4 0.38-0.8 0.83-0.8zm-6.66 1.5c-1.1 0-2.94 0.4-2.94 2.9v3h5.89v-3c0-2.5-1.84-2.9-2.95-2.9zm-6.66 16h6.95c1.07 0 1.94 0.8 1.94 1.9 0 0.2-0.04 0.4-0.1 0.6l-3.87 11.5h-2.92l4.12-11.4h-5.52z" stroke-width=".40649" fill="url(#a)"/>
  </g>
</svg>
