<?xml version="1.0" encoding="UTF-8" standalone="no"?>
<svg xmlns="http://www.w3.org/2000/svg" height="211.42" width="600" version="1.1" viewBox="0 0 158.75 55.939012">
 <g fill="#fff" transform="translate(-71.816 -783.83)">
  <g stroke-width=".26417">
   <path d="m71.822 784.91s-0.006 16.49-0.006 23.99 6.196 14.54 14.958 14.54c8.764 0 14.946-7.49 14.946-15.09s-6.029-14.89-14.952-14.89-12.793 7.04-12.793 7.04v-15.59c0-0.6-0.482-1.08-1.077-1.08-0.594 0-1.076 0.48-1.076 1.08m2.197 23.44c0-7.06 5.693-12.78 12.719-12.78 7.022 0 12.716 5.72 12.716 12.78 0 7.07-5.694 12.79-12.716 12.79-7.026 0-12.719-5.72-12.719-12.79"/>
   <path d="m103.1 808.39c0 8.28 6.71 14.99 14.99 14.99 5.4 0 10.12-2.85 12.76-7.12 0.35-0.51 0.19-1.21-0.32-1.55s-1.21-0.2-1.55 0.31c-2.24 3.66-6.28 6.11-10.89 6.11-7.04 0-12.74-5.7-12.74-12.74s5.7-12.75 12.74-12.75c6.65 0 12.11 5.09 12.69 11.58h-14.84c-0.63 0-1.12 0.51-1.12 1.13 0 0.63 0.5 1.13 1.13 1.13h16c0.84 0 1.13-0.59 1.13-1.09 0-8.28-6.71-15-14.99-15s-14.99 6.72-14.99 15"/>
   <path d="m137.38 793.38h0.01zc-1.45 0-2.55 1.14-2.63 2.18v26c0.08 1.03 1.18 2.18 2.63 2.18s2.55-1.15 2.63-2.18v-26c-0.08-1.04-1.18-2.18-2.63-2.18zm0 30.36h0.01-0.01"/>
   <path d="m181.33 793.4h0.01zc-1.43 0-2.51 1.15-2.59 2.16v19.16c0 0.7-0.43 2.43-2.09 3.22-3.55 1.69-5.38-1.56-5.38-1.56l-11.86-18.65c-1.37-2.38-5.6-5.79-11.35-3.65-5.54 2.28-5.61 8.04-5.61 8.04v19.44c0.08 1.03 1.18 2.06 2.63 2.06s2.57-1.17 2.57-2.36v-18.61s-0.27-3.67 3.95-4.04c2.47-0.15 3.68 2.41 3.68 2.41s10.79 17.02 11.89 18.71c1.09 1.7 5.52 5.51 11.28 3.17 5.82-2.37 5.47-8.2 5.47-8.2v-19.15c-0.07-1.01-1.16-2.15-2.59-2.15zm-36.25 30.22h0.01zm-0.01 0h0.01z"/>
   <path d="m129.17 830.12 0.01 8.86c0 0.42 0.34 0.76 0.76 0.76 0.43 0 0.77-0.34 0.77-0.76v-3.9h3.41c2.73 0 4.95-2.22 4.95-4.96s-2.22-4.97-4.95-4.97c-3.04 0-4.95 2.14-4.95 4.97m1.54 0c0-1.99 1.26-3.48 3.39-3.48 1.92 0 3.47 1.55 3.47 3.47s-1.55 3.46-3.47 3.46h-3.39z"/>
   <path d="m139.35 832.44c0 4.04 3.29 7.33 7.32 7.33 4.04 0 7.33-3.29 7.33-7.33 0-4.03-3.29-7.32-7.33-7.32-4.03 0-7.32 3.29-7.32 7.32m1.64 0c0-3.13 2.55-5.68 5.68-5.68s5.69 2.55 5.69 5.68c0 3.14-2.56 5.68-5.69 5.68s-5.68-2.54-5.68-5.68"/>
   <path d="m165.1 825.67c-0.46 0-0.83 0.36-0.83 0.79 0 0.44 0.37 0.79 0.83 0.79h3.25v11.59c0 0.44 0.35 0.81 0.79 0.81 0.43 0 0.78-0.37 0.78-0.81v-11.59h3.21c0.46 0 0.83-0.35 0.83-0.79 0-0.43-0.37-0.79-0.83-0.79z"/>
   <path d="m122.88 825.13c-3.94 0-4.79 2.89-4.79 4.38s1.2 3.49 4.82 3.49c3.63 0 3.48 2.16 3.48 2.24 0 0.09 0.19 2.83-3.47 2.82-3-0.01-3.35-2.31-3.31-3.01 0-0.42-0.34-0.74-0.76-0.74-0.41 0-0.75 0.32-0.75 0.74-0.07 2.51 1.91 4.52 4.79 4.52 3.61 0 5.02-2.22 5.02-4.31s-1.65-3.78-5.01-3.78c-3.35 0-3.32-1.93-3.32-1.93s-0.21-2.94 3.33-2.94 3.27 3.2 3.27 3.2c0 0.41 0.34 0.74 0.75 0.74s0.74-0.33 0.74-0.74c0-4.59-4.41-4.68-4.77-4.68h-0.02"/>
   <path d="m154.73 830.12 0.01 8.86c0 0.42 0.35 0.76 0.77 0.76 0.43 0 0.77-0.34 0.77-0.76v-3.9h3.34l2.59 4.23c0.21 0.37 0.69 0.51 1.06 0.29 0.38-0.21 0.51-0.69 0.29-1.06l-2.27-3.73c1.95-0.67 3.35-2.52 3.35-4.69 0-2.74-2.22-4.97-4.96-4.97-3.03 0-4.95 2.14-4.95 4.97m1.54 0c0-1.99 1.27-3.48 3.39-3.48 1.92 0 3.47 1.55 3.47 3.47s-1.55 3.46-3.47 3.46h-3.38z"/>
   <path d="m182.17 829.91s0.27-3.2-3.27-3.2c-3.55 0-3.33 2.94-3.33 2.94s-0.04 1.92 3.32 1.92c3.35 0 5 1.7 5 3.79 0 2.08-1.4 4.31-5.01 4.31-2.89 0-4.87-2.01-4.8-4.52 0-0.42 0.34-0.75 0.76-0.75 0.41 0 0.75 0.33 0.75 0.75-0.04 0.7 0.32 3 3.31 3.01 3.67 0.01 3.47-2.73 3.47-2.82s0.15-2.24-3.47-2.24c-3.63 0-4.82-2-4.82-3.49s0.85-4.38 4.78-4.38c0 0 4.79-0.1 4.79 4.68 0 0.41-0.33 0.74-0.74 0.74s-0.74-0.33-0.74-0.74"/>
  </g>
  <path stroke-width=".40649" d="m190.93 793.29c-0.87 0-1.66 0.35-2.23 0.93-0.07 0.07-0.14 0.14-0.2 0.22-0.07 0.08-0.13 0.16-0.18 0.25-0.06 0.08-0.11 0.17-0.16 0.26s-0.1 0.18-0.13 0.27c-0.04 0.1-0.08 0.19-0.11 0.29s-0.06 0.2-0.08 0.31c-0.02 0.1-0.03 0.2-0.04 0.31-0.02 0.1-0.02 0.21-0.02 0.32v29.86c0.01 2.3 0.6 4.46 1.62 6.35 0.21 0.38 0.43 0.75 0.67 1.11 0.6 0.88 1.29 1.7 2.08 2.42 1.72 1.59 3.86 2.74 6.23 3.26 0.86 0.19 1.75 0.3 2.67 0.32h26.36c0.52 0 1-0.12 1.44-0.34 0.01-0.01 0.02-0.02 0.04-0.03-0.01 0-0.01 0 0.02-0.02 0.96-0.54 1.66-1.57 1.66-2.76v-40.17c0-1.3-0.79-2.43-1.93-2.9-0.33-0.15-0.69-0.23-1.07-0.25h-36.62s-0.01-0.01-0.02-0.01zm20.47 7.38c1.37 0 2.52 0.42 3.33 1.23 0.8 0.8 1.24 1.97 1.24 3.32v7.86c0 0.46-0.36 0.82-0.82 0.82-0.45 0-0.81-0.36-0.81-0.82v-3.29h-5.88v3.29c0 0.46-0.37 0.82-0.82 0.82s-0.81-0.36-0.81-0.82v-7.86c0-1.35 0.43-2.52 1.25-3.32 0.8-0.81 1.94-1.23 3.32-1.23zm-17.08 0.19c0.65 0 1.22 0.44 1.4 1.06l2.73 9.22 2.75-9.22c0.17-0.62 0.75-1.06 1.4-1.06 0.74 0 1.36 0.56 1.45 1.28l1.36 10.82c0.01 0.03 0.01 0.08 0.01 0.11 0 0.45-0.38 0.83-0.83 0.83-0.42 0-0.77-0.32-0.83-0.73l-1.24-9.91-2.95 9.81c-0.15 0.48-0.61 0.83-1.12 0.83-0.5 0-0.97-0.35-1.1-0.83l-2.96-9.81-1.25 9.91c-0.06 0.41-0.39 0.73-0.81 0.73-0.47 0-0.83-0.38-0.83-0.83v-0.11l1.37-10.82c0.07-0.72 0.71-1.28 1.45-1.28zm23.73 0c0.29 0 0.53 0.14 0.68 0.35l3.25 4.65 3.24-4.65c0.16-0.21 0.41-0.35 0.68-0.35 0.46 0 0.83 0.38 0.83 0.83 0 0.17-0.05 0.33-0.14 0.47l-3.6 5.15 3.71 5.29c0.09 0.12 0.15 0.29 0.15 0.47 0 0.45-0.38 0.83-0.83 0.83-0.29 0-0.53-0.14-0.68-0.36l-3.36-4.8-3.35 4.8c-0.15 0.22-0.41 0.36-0.68 0.36-0.47 0-0.83-0.38-0.83-0.83 0-0.18 0.04-0.35 0.15-0.47l3.69-5.29-3.59-5.15c-0.09-0.14-0.15-0.3-0.15-0.47 0-0.45 0.38-0.83 0.83-0.83zm-6.65 1.5c-1.1 0-2.94 0.37-2.94 2.94v2.94h5.88v-2.94c0-2.57-1.84-2.94-2.94-2.94zm-1.92 15.99c2.54 0 4.53 1.96 4.53 4.46 0 2.3-1.3 3.5-3.14 4.94l-3.09 2.41h6.17v2.23h-7.55c-1.29 0-2.06-0.63-2.06-1.68 0-0.8 0.41-1.13 1.16-1.73l0.14-0.1 4.66-3.66c0.39-0.31 1.32-1.18 1.32-2.39 0-1.31-0.97-2.25-2.32-2.25-1.49 0-2.41 0.96-2.41 2.51 0 0.99 0.72 1.74 1.56 2.06l-2 1.44c-1.26-0.81-1.94-2.1-1.94-3.74 0-2.93 2.56-4.5 4.97-4.5z"/>
 </g>
</svg>
