<?xml version="1.0" encoding="UTF-8" standalone="no"?>
<svg xmlns="http://www.w3.org/2000/svg" xmlns:xlink="http://www.w3.org/1999/xlink" height="211.9" width="600" version="1.1" viewBox="0 0 562.51105 198.65817">
  <defs>
    <linearGradient id="j" gradientUnits="userSpaceOnUse" gradientTransform="matrix(116.45 -89.206 89.206 116.45 103.69 19.002)" x1="0" x2="1" y1="0" y2="0">
      <stop stop-color="#190031" offset="0"/>
      <stop stop-color="#190031" offset=".0060577"/>
      <stop stop-color="#5c2d91" offset="1"/>
    </linearGradient>
    <linearGradient id="i" gradientUnits="userSpaceOnUse" gradientTransform="matrix(116.45 -89.206 89.206 116.45 159.05 91.276)" x1="0" x2="1" y1="0" y2="0">
      <stop stop-color="#190031" offset="0"/>
      <stop stop-color="#190031" offset=".0060577"/>
      <stop stop-color="#5c2d91" offset="1"/>
    </linearGradient>
    <linearGradient id="h" gradientUnits="userSpaceOnUse" gradientTransform="matrix(116.45 -89.207 89.207 116.45 184.67 124.73)" x1="0" x2="1" y1="0" y2="0">
      <stop stop-color="#190031" offset="0"/>
      <stop stop-color="#190031" offset=".0060577"/>
      <stop stop-color="#5c2d91" offset="1"/>
    </linearGradient>
    <linearGradient id="g" gradientUnits="userSpaceOnUse" gradientTransform="matrix(116.45 -89.206 89.206 116.45 218.55 168.95)" x1="0" x2="1" y1="0" y2="0">
      <stop stop-color="#190031" offset="0"/>
      <stop stop-color="#190031" offset=".0060577"/>
      <stop stop-color="#5c2d91" offset="1"/>
    </linearGradient>
    <linearGradient id="f" gradientUnits="userSpaceOnUse" gradientTransform="matrix(116.45 -89.206 89.206 116.45 195.55 184.54)" x1="0" x2="1" y1="0" y2="0">
      <stop stop-color="#190031" offset="0"/>
      <stop stop-color="#190031" offset=".0060577"/>
      <stop stop-color="#5c2d91" offset="1"/>
    </linearGradient>
    <linearGradient id="e" gradientUnits="userSpaceOnUse" gradientTransform="matrix(116.45 -89.206 89.206 116.45 215.81 210.98)" x1="0" x2="1" y1="0" y2="0">
      <stop stop-color="#190031" offset="0"/>
      <stop stop-color="#190031" offset=".0060577"/>
      <stop stop-color="#5c2d91" offset="1"/>
    </linearGradient>
    <linearGradient id="d" gradientUnits="userSpaceOnUse" gradientTransform="matrix(116.45 -89.206 89.206 116.45 243 246.49)" x1="0" x2="1" y1="0" y2="0">
      <stop stop-color="#190031" offset="0"/>
      <stop stop-color="#190031" offset=".0060577"/>
      <stop stop-color="#5c2d91" offset="1"/>
    </linearGradient>
    <linearGradient id="c" gradientUnits="userSpaceOnUse" gradientTransform="matrix(116.45 -89.206 89.206 116.45 184.52 170.15)" x1="0" x2="1" y1="0" y2="0">
      <stop stop-color="#190031" offset="0"/>
      <stop stop-color="#190031" offset=".0060577"/>
      <stop stop-color="#5c2d91" offset="1"/>
    </linearGradient>
    <linearGradient id="b" gradientUnits="userSpaceOnUse" gradientTransform="matrix(116.45 -89.206 89.206 116.45 233.94 234.65)" x1="0" x2="1" y1="0" y2="0">
      <stop stop-color="#190031" offset="0"/>
      <stop stop-color="#190031" offset=".0060577"/>
      <stop stop-color="#5c2d91" offset="1"/>
    </linearGradient>
    <linearGradient id="a" gradientUnits="userSpaceOnUse" gradientTransform="matrix(147.76 -85.313 85.313 147.76 418.24 127.16)" x1="0" x2="1" y1="0" y2="0">
      <stop stop-color="#56247a" offset="0"/>
      <stop stop-color="#111211" offset="1"/>
    </linearGradient>
  </defs>
  <g stroke-width=".93750">
    <path fill="url(#a)" d="m417.83 34.338c-4.02 0-7.26 3.273-7.26 7.258v68.364s-0.02 0.03-0.02 0.07c0 0.03 0.02 0.04 0.02 0.08v0.1c0.09 16.89 13.7 30.6 30.54 30.92 0.03 0 0.07 0.01 0.09 0.01h114.07c1.2 0 2.29-0.29 3.29-0.8 0.03-0.03 0.07-0.03 0.11-0.07-0.02 0.02-0.02 0 0.04-0.05 2.22-1.25 3.8-3.6 3.8-6.33v-92.294c0-3-1.83-5.569-4.43-6.675-0.86-0.375-1.83-0.583-2.81-0.583h-137.42zm22.29 22.099h11.46v59.593h-11.46zm32.71 0h11.36v59.593h-11.36v-25.156h-16.78v-10.582h16.78zm20.23 0.009h21.25c16.6 0 26.92 11.397 26.92 29.782 0 18.202-10.57 29.802-26.92 29.802h-5.33v-10.56h5.33c13.51 0 15.58-12.114 15.58-19.311 0-8.776-2.76-19.161-15.58-19.161h-9.89v49.032h-11.36z"/>
    <path d="m0.0225 3.8232s-0.0225 58.596-0.0225 85.212c0 26.625 22.005 51.655 53.126 51.655 31.116 0 53.094-26.63 53.094-53.614 0-26.973-21.434-52.868-53.122-52.868-31.684 0-45.429 25.014-45.429 25.014v-55.399c0-2.1092-1.7101-3.8249-3.8251-3.8249-2.1113-0.0000039-3.8214 1.7157-3.8214 3.8251m7.803 83.271c0-25.078 20.216-45.413 45.17-45.413 24.937 0 45.169 20.335 45.169 45.413 0 25.076-20.232 45.416-45.17 45.416-24.953 0-45.17-20.34-45.17-45.416" fill="url(#j)"/>
    <path d="m111.1 87.216c0 29.404 23.84 53.244 53.24 53.244 19.15 0 35.93-10.12 45.32-25.29 1.21-1.81 0.68-4.28-1.14-5.5-1.83-1.22-4.3-0.71-5.52 1.11-7.95 13-22.3 21.68-38.66 21.68-24.99 0-45.25-20.25-45.25-45.244s20.26-45.264 45.25-45.264c23.6 0 42.98 18.067 45.07 41.111h-52.71c-2.22 0-3.98 1.8-3.98 4.022 0 2.213 1.8 4.022 4.02 4.022h56.82c3 0 4.03-2.109 4.03-3.891 0-29.41-23.84-53.251-53.25-53.251-29.4 0-53.24 23.841-53.24 53.251" fill="url(#i)"/>
    <path d="m232.84 33.908h0.03zc-5.16 0.019-9.07 4.069-9.35 7.744v92.328c0.28 3.68 4.19 7.73 9.35 7.74 5.17-0.01 9.08-4.06 9.36-7.74v-92.328c-0.28-3.675-4.19-7.725-9.36-7.744m-0.02 0h0.02zm0.02 107.81h0.03-0.03m-0.02 0h0.02-0.02" fill="url(#h)"/>
    <path d="m388.94 33.993h0.02zc-5.08 0.009-8.92 4.059-9.2 7.678v68.029c0 2.49-1.55 8.63-7.41 11.43-12.64 6.01-19.15-5.53-19.15-5.53l-42.11-66.25c-4.87-8.448-19.88-20.551-40.31-12.948-19.68 8.082-19.92 28.567-19.92 28.567v69.011c0.28 3.68 4.19 7.3 9.36 7.32 5.15-0.02 9.11-4.13 9.11-8.38v-66.067s-0.94-13.031 14.04-14.382c8.75-0.506 13.06 8.569 13.06 8.569s38.34 60.45 42.23 66.47c3.89 6.01 19.62 19.56 40.05 11.24 20.67-8.42 19.45-29.11 19.45-29.11l0.01-68.006c-0.29-3.619-4.13-7.632-9.21-7.641m-0.02 0h0.02zm-128.72 107.31h0.02zm-0.02 0h0.02z" fill="url(#g)"/>
    <path d="m203.67 164.4 0.03 31.45c0 1.51 1.23 2.72 2.73 2.72 1.51 0 2.74-1.21 2.74-2.72v-13.84h12.08c9.72 0 17.61-7.89 17.61-17.62 0-9.74-7.89-17.64-17.61-17.64-10.78 0-17.58 7.59-17.58 17.65m5.47-0.03c0-7.04 4.51-12.34 12.05-12.34 6.8 0 12.33 5.52 12.33 12.34 0 6.81-5.53 12.28-12.33 12.28h-12.02z" fill="url(#f)"/>
    <path d="m239.83 172.65c0 14.35 11.68 26.01 26.02 26.01s26.01-11.66 26.01-26.01c0-14.34-11.67-26.01-26.01-26.01s-26.02 11.67-26.02 26.01m5.84 0c0-11.13 9.05-20.17 20.18-20.17 11.12 0 20.18 9.04 20.18 20.17 0 11.12-9.06 20.18-20.18 20.18-11.13 0-20.18-9.06-20.18-20.18" fill="url(#e)"/>
    <path d="m331.27 148.6c-1.61 0-2.91 1.25-2.91 2.8s1.3 2.8 2.91 2.8h11.55v41.15c0 1.59 1.25 2.87 2.8 2.87 1.54 0 2.79-1.28 2.79-2.87v-41.15h11.41c1.6 0 2.91-1.25 2.91-2.8s-1.31-2.8-2.91-2.8z" fill="url(#d)"/>
    <path d="m181.33 146.66c-13.98 0-16.99 10.28-16.99 15.57s4.23 12.39 17.11 12.39c12.9 0 12.34 7.66 12.34 7.96 0 0.31 0.71 10.04-12.31 10-10.64-0.02-11.9-8.17-11.75-10.68 0-1.48-1.21-2.64-2.69-2.64s-2.68 1.16-2.68 2.64c-0.23 8.91 6.8 16.07 17.04 16.07 12.81 0 17.8-7.91 17.8-15.32s-5.87-13.44-17.77-13.44c-11.92 0-11.8-6.83-11.8-6.83s-0.76-10.46 11.82-10.46c12.59 0 11.62 11.39 11.62 11.39 0 1.45 1.19 2.61 2.64 2.61 1.47 0 2.64-1.16 2.64-2.61 0-16.32-15.67-16.65-16.93-16.65h-0.09" fill="url(#c)"/>
    <path d="m294.47 164.4 0.03 31.45c0 1.51 1.22 2.72 2.73 2.72 1.52 0 2.74-1.21 2.74-2.72v-13.84h11.85l9.2 15.03c0.76 1.33 2.45 1.79 3.78 1.03 1.32-0.77 1.79-2.46 1.03-3.79l-8.07-13.24c6.92-2.38 11.9-8.93 11.9-16.65 0-9.74-7.89-17.64-17.61-17.64-10.77 0-17.58 7.59-17.58 17.65m5.47-0.03c0-7.04 4.51-12.34 12.05-12.34 6.8 0 12.32 5.52 12.32 12.34 0 6.81-5.52 12.28-12.32 12.28h-12.02z" fill="url(#b)"/>
    <path d="m391.9 163.65s0.97-11.38-11.61-11.38c-12.59 0-11.83 10.45-11.83 10.45s-0.13 6.84 11.79 6.84c11.91 0 17.78 6.03 17.78 13.44s-4.98 15.31-17.81 15.31c-10.23 0-17.27-7.15-17.04-16.07 0-1.47 1.21-2.63 2.69-2.63s2.68 1.16 2.68 2.63c-0.14 2.52 1.12 10.66 11.76 10.69 13.01 0.04 12.31-9.69 12.31-9.99 0-0.31 0.55-7.96-12.33-7.96-12.89 0-17.11-7.12-17.11-12.4 0-5.29 3-15.57 16.98-15.57 0 0 17.02-0.35 17.02 16.64 0 1.46-1.18 2.62-2.63 2.62-1.47 0-2.65-1.16-2.65-2.62" fill="#512c80"/>
  </g>
</svg>
