<?xml version="1.0" encoding="UTF-8" standalone="no"?>
<svg xmlns:dc="http://purl.org/dc/elements/1.1/" xmlns:cc="http://creativecommons.org/ns#" xmlns:rdf="http://www.w3.org/1999/02/22-rdf-syntax-ns#" xmlns:svg="http://www.w3.org/2000/svg" xmlns="http://www.w3.org/2000/svg" xmlns:sodipodi="http://sodipodi.sourceforge.net/DTD/sodipodi-0.dtd" xmlns:inkscape="http://www.inkscape.org/namespaces/inkscape" height="59.802052mm" width="169.33333mm" version="1.1" viewBox="0 0 600.01177 211.89737" id="svg2" inkscape:version="0.91 r" sodipodi:docname="beinsports2hd.svg">
  <metadata id="metadata104">
    <rdf:RDF>
      <cc:Work rdf:about="">
        <dc:format>image/svg+xml</dc:format>
        <dc:type rdf:resource="http://purl.org/dc/dcmitype/StillImage"/>
        <dc:title/>
      </cc:Work>
    </rdf:RDF>
  </metadata>
  <sodipodi:namedview pagecolor="#ffffff" bordercolor="#666666" borderopacity="1" objecttolerance="10" gridtolerance="10" guidetolerance="10" inkscape:pageopacity="0" inkscape:pageshadow="2" inkscape:window-width="1680" inkscape:window-height="1000" id="namedview102" showgrid="false" fit-margin-top="0" fit-margin-left="0" fit-margin-right="0" fit-margin-bottom="0" inkscape:zoom="0.52167693" inkscape:cx="300.00004" inkscape:cy="105.94835" inkscape:window-x="0" inkscape:window-y="0" inkscape:window-maximized="1" inkscape:current-layer="svg2"/>
  <defs id="defs4">
    <linearGradient id="i" gradientUnits="userSpaceOnUse" gradientTransform="matrix(135.24198,-103.59152,103.59152,135.24198,120.41177,22.098249)" x1="0" x2="1" y1="0" y2="0">
      <stop stop-color="#190031" offset="0" id="stop7"/>
      <stop stop-color="#190031" offset=".0060577" id="stop9"/>
      <stop stop-color="#5c2d91" offset="1" id="stop11"/>
    </linearGradient>
    <linearGradient id="h" gradientUnits="userSpaceOnUse" gradientTransform="matrix(135.24198,-103.59152,103.59152,135.24198,184.70271,105.99947)" x1="0" x2="1" y1="0" y2="0">
      <stop stop-color="#190031" offset="0" id="stop14"/>
      <stop stop-color="#190031" offset=".0060577" id="stop16"/>
      <stop stop-color="#5c2d91" offset="1" id="stop18"/>
    </linearGradient>
    <linearGradient id="g" gradientUnits="userSpaceOnUse" gradientTransform="matrix(135.24198,-103.59152,103.59152,135.24198,214.46315,144.80004)" x1="0" x2="1" y1="0" y2="0">
      <stop stop-color="#190031" offset="0" id="stop21"/>
      <stop stop-color="#190031" offset=".0060577" id="stop23"/>
      <stop stop-color="#5c2d91" offset="1" id="stop25"/>
    </linearGradient>
    <linearGradient id="f" gradientUnits="userSpaceOnUse" gradientTransform="matrix(135.24198,-103.59152,103.59152,135.24198,253.80372,196.20079)" x1="0" x2="1" y1="0" y2="0">
      <stop stop-color="#190031" offset="0" id="stop28"/>
      <stop stop-color="#190031" offset=".0060577" id="stop30"/>
      <stop stop-color="#5c2d91" offset="1" id="stop32"/>
    </linearGradient>
    <linearGradient id="e" gradientUnits="userSpaceOnUse" gradientTransform="matrix(135.24198,-103.59152,103.59152,135.24198,227.09333,214.30106)" x1="0" x2="1" y1="0" y2="0">
      <stop stop-color="#190031" offset="0" id="stop35"/>
      <stop stop-color="#190031" offset=".0060577" id="stop37"/>
      <stop stop-color="#5c2d91" offset="1" id="stop39"/>
    </linearGradient>
    <linearGradient id="d" gradientUnits="userSpaceOnUse" gradientTransform="matrix(135.24198,-103.59152,103.59152,135.24198,250.61368,245.00151)" x1="0" x2="1" y1="0" y2="0">
      <stop stop-color="#190031" offset="0" id="stop42"/>
      <stop stop-color="#190031" offset=".0060577" id="stop44"/>
      <stop stop-color="#5c2d91" offset="1" id="stop46"/>
    </linearGradient>
    <linearGradient id="c" gradientUnits="userSpaceOnUse" gradientTransform="matrix(135.24198,-103.59152,103.59152,135.24198,282.20414,286.20211)" x1="0" x2="1" y1="0" y2="0">
      <stop stop-color="#190031" offset="0" id="stop49"/>
      <stop stop-color="#190031" offset=".0060577" id="stop51"/>
      <stop stop-color="#5c2d91" offset="1" id="stop53"/>
    </linearGradient>
    <linearGradient id="b" gradientUnits="userSpaceOnUse" gradientTransform="matrix(135.24198,-103.59152,103.59152,135.24198,214.29314,197.60082)" x1="0" x2="1" y1="0" y2="0">
      <stop stop-color="#190031" offset="0" id="stop56"/>
      <stop stop-color="#190031" offset=".0060577" id="stop58"/>
      <stop stop-color="#5c2d91" offset="1" id="stop60"/>
    </linearGradient>
    <linearGradient id="a" gradientUnits="userSpaceOnUse" gradientTransform="matrix(135.24198,-103.59152,103.59152,135.24198,271.67398,272.50191)" x1="0" x2="1" y1="0" y2="0">
      <stop stop-color="#190031" offset="0" id="stop63"/>
      <stop stop-color="#190031" offset=".0060577" id="stop65"/>
      <stop stop-color="#5c2d91" offset="1" id="stop67"/>
    </linearGradient>
    <linearGradient id="j" gradientUnits="userSpaceOnUse" gradientTransform="matrix(133.22195,-76.91413,76.914126,133.22196,475.82697,137.99995)" x1="0" x2="1" y1="0" y2="0">
      <stop stop-color="#643e95" offset="0" id="stop70"/>
      <stop stop-color="#643e95" offset=".48543" id="stop72"/>
      <stop stop-color="#342d40" offset="1" id="stop74"/>
    </linearGradient>
    <linearGradient id="i-7" gradientUnits="userSpaceOnUse" gradientTransform="matrix(124.21245,-95.148877,95.148877,124.21245,110.59218,20.268492)" x1="0" x2="1" y1="0" y2="0">
      <stop stop-color="#190031" offset="0" id="stop7-9"/>
      <stop stop-color="#190031" offset=".0060577" id="stop9-6"/>
      <stop stop-color="#5c2d91" offset="1" id="stop11-0"/>
    </linearGradient>
    <linearGradient id="h-5" gradientUnits="userSpaceOnUse" gradientTransform="matrix(124.21245,-95.148877,95.148877,124.21245,169.63335,97.350012)" x1="0" x2="1" y1="0" y2="0">
      <stop stop-color="#190031" offset="0" id="stop14-4"/>
      <stop stop-color="#190031" offset=".0060577" id="stop16-5"/>
      <stop stop-color="#5c2d91" offset="1" id="stop18-0"/>
    </linearGradient>
    <linearGradient id="g-2" gradientUnits="userSpaceOnUse" gradientTransform="matrix(124.21245,-95.149877,95.149877,124.21245,196.96389,133.03072)" x1="0" x2="1" y1="0" y2="0">
      <stop stop-color="#190031" offset="0" id="stop21-1"/>
      <stop stop-color="#190031" offset=".0060577" id="stop23-3"/>
      <stop stop-color="#5c2d91" offset="1" id="stop25-0"/>
    </linearGradient>
    <linearGradient id="f-2" gradientUnits="userSpaceOnUse" gradientTransform="matrix(124.21245,-95.148877,95.148877,124.21245,233.1046,180.21166)" x1="0" x2="1" y1="0" y2="0">
      <stop stop-color="#190031" offset="0" id="stop28-0"/>
      <stop stop-color="#190031" offset=".0060577" id="stop30-0"/>
      <stop stop-color="#5c2d91" offset="1" id="stop32-1"/>
    </linearGradient>
    <linearGradient id="e-0" gradientUnits="userSpaceOnUse" gradientTransform="matrix(124.21245,-95.148877,95.148877,124.21245,208.57412,196.83298)" x1="0" x2="1" y1="0" y2="0">
      <stop stop-color="#190031" offset="0" id="stop35-5"/>
      <stop stop-color="#190031" offset=".0060577" id="stop37-6"/>
      <stop stop-color="#5c2d91" offset="1" id="stop39-1"/>
    </linearGradient>
    <linearGradient id="d-9" gradientUnits="userSpaceOnUse" gradientTransform="matrix(124.21245,-95.148877,95.148877,124.21245,230.17454,225.04154)" x1="0" x2="1" y1="0" y2="0">
      <stop stop-color="#190031" offset="0" id="stop42-0"/>
      <stop stop-color="#190031" offset=".0060577" id="stop44-9"/>
      <stop stop-color="#5c2d91" offset="1" id="stop46-7"/>
    </linearGradient>
    <linearGradient id="c-8" gradientUnits="userSpaceOnUse" gradientTransform="matrix(124.21245,-95.148877,95.148877,124.21245,259.18511,262.91229)" x1="0" x2="1" y1="0" y2="0">
      <stop stop-color="#190031" offset="0" id="stop49-2"/>
      <stop stop-color="#190031" offset=".0060577" id="stop51-6"/>
      <stop stop-color="#5c2d91" offset="1" id="stop53-5"/>
    </linearGradient>
    <linearGradient id="b-9" gradientUnits="userSpaceOnUse" gradientTransform="matrix(124.21245,-95.148877,95.148877,124.21245,196.81388,181.48368)" x1="0" x2="1" y1="0" y2="0">
      <stop stop-color="#190031" offset="0" id="stop56-7"/>
      <stop stop-color="#190031" offset=".0060577" id="stop58-7"/>
      <stop stop-color="#5c2d91" offset="1" id="stop60-8"/>
    </linearGradient>
    <linearGradient id="a-9" gradientUnits="userSpaceOnUse" gradientTransform="matrix(124.21245,-95.148877,95.148877,124.21245,249.51492,250.28904)" x1="0" x2="1" y1="0" y2="0">
      <stop stop-color="#190031" offset="0" id="stop63-6"/>
      <stop stop-color="#190031" offset=".0060577" id="stop65-9"/>
      <stop stop-color="#5c2d91" offset="1" id="stop67-4"/>
    </linearGradient>
    <linearGradient id="j-2" gradientUnits="userSpaceOnUse" gradientTransform="matrix(157.61311,-90.996798,90.996795,157.61311,446.0988,135.53078)" x1="0" x2="1" y1="0" y2="0">
      <stop stop-color="#572381" offset="0" id="stop70-4"/>
      <stop stop-color="#111211" offset="1" id="stop72-4"/>
    </linearGradient>
  </defs>
  <path id="path76" d="M 0.02,4.0781729 C 0.02,4.0781729 0,66.579405 0,94.969962 0,123.37053 23.47046,150.07106 56.66112,150.07106 89.85177,150.07106 113.29224,121.6605 113.29224,92.879922 113.29224,64.109357 90.43179,36.488812 56.64112,36.488812 22.84045,36.488812 8.18016,63.169338 8.18016,63.169338 L 8.18016,4.0781729 C 8.18016,1.8281289 6.35013,-0.00190739 4.10008,-0.00190739 1.84004,-0.00190739 0.02,1.8281289 0.02,4.0781729 M 8.34017,92.889922 C 8.34017,66.139397 29.91059,44.458969 56.52112,44.458969 83.12164,44.458969 104.69207,66.139397 104.69207,92.889922 104.69207,119.65046 83.12164,141.33089 56.52112,141.33089 29.91059,141.33089 8.34017,119.65046 8.34017,92.889922" inkscape:connector-curvature="0" style="fill:url(#i-7)"/>
  <path id="path78" d="M 118.50234,93.019922 C 118.50234,124.39055 143.93284,149.81106 175.29346,149.81106 195.71386,149.81106 213.61422,139.03084 223.62441,122.85052 224.92444,120.92049 224.34443,118.28043 222.40439,116.98041 220.46435,115.68038 217.8143,116.21039 216.51427,118.16043 208.03411,132.0307 192.7438,141.29089 175.29346,141.29089 148.63293,141.29089 127.02251,119.68046 127.02251,93.019922 127.02251,66.369401 148.63293,44.748975 175.29346,44.748975 200.46396,44.748975 221.12436,64.009355 223.36441,88.59984 L 167.1433,88.59984 C 164.77325,88.59984 162.89321,90.519878 162.89321,92.879922 162.89321,95.249972 164.81325,97.180012 167.1833,97.180012 L 227.7845,97.180012 C 230.98456,97.180012 232.08458,94.919962 232.08458,93.019922 232.08458,61.659308 206.65408,36.228807 175.29346,36.228807 143.93284,36.228807 118.50234,61.659308 118.50234,93.019922" inkscape:connector-curvature="0" style="fill:url(#h-5)"/>
  <path id="path80" d="M 248.3549,36.168805 248.3749,36.168805 248.3549,36.168805 Z M 248.3549,36.168805 C 242.85479,36.188806 238.67471,40.508891 238.3747,44.428968 L 238.3747,142.91092 C 238.67471,146.831 242.85479,151.16108 248.3549,151.17108 253.85501,151.16108 258.02509,146.831 258.3351,142.91092 L 258.3351,44.428968 C 258.02509,40.508891 253.85501,36.188806 248.3549,36.168805 M 248.3349,36.168805 248.3549,36.168805 248.3349,36.168805 Z M 248.3549,151.17108 248.3749,151.17108 248.3549,151.17108 M 248.3349,151.17108 248.3549,151.17108 248.3349,151.17108" inkscape:connector-curvature="0" style="fill:url(#g-2)"/>
  <path id="path82" d="M 414.84819,36.258807 414.86819,36.258807 414.84819,36.258807 Z M 414.84819,36.258807 C 409.42808,36.268807 405.338,40.588893 405.03799,44.448969 L 405.03799,117.01041 C 405.03799,119.67046 403.38796,126.22059 397.12784,129.20065 383.64757,135.61078 376.70743,123.30053 376.70743,123.30053 L 331.78655,52.63913 C 326.60644,43.628953 310.58613,30.718698 288.8057,38.828858 267.80528,47.449028 267.54528,69.299459 267.54528,69.299459 L 267.54528,142.91092 C 267.84529,146.831 272.01537,150.70107 277.52548,150.71107 283.02558,150.70107 287.25567,146.30099 287.25567,141.7709 L 287.25567,71.309499 C 287.25567,71.309499 286.24565,57.399224 302.22596,55.969196 311.56615,55.429185 316.16624,65.109376 316.16624,65.109376 316.16624,65.109376 357.04704,129.59066 361.19713,136.00078 365.34721,142.42091 382.12754,156.86119 403.91797,148.00102 425.9684,139.02084 424.65838,116.94041 424.65838,116.94041 L 424.66838,44.408968 C 424.36837,40.548892 420.26829,36.268807 414.84819,36.258807 M 414.82818,36.258807 414.84819,36.258807 414.82818,36.258807 Z M 277.52548,150.71107 277.54548,150.71107 277.52548,150.71107 Z M 277.50548,150.71107 277.52548,150.71107 277.50548,150.71107 Z" inkscape:connector-curvature="0" style="fill:url(#f-2)"/>
  <path id="path84" d="M 217.23429,175.35156 217.26429,208.89522 C 217.26429,210.50325 218.57431,211.80128 220.18435,211.80128 221.79438,211.80128 223.1044,210.50325 223.1044,208.89522 L 223.1044,194.13593 235.98466,194.13593 C 246.36486,194.13593 254.77503,185.71976 254.77503,175.34156 254.77503,164.95135 246.36486,156.53119 235.98466,156.53119 224.49443,156.53119 217.23429,164.62135 217.23429,175.35156 M 223.0744,175.33156 C 223.0744,167.81141 227.8745,162.1613 235.92466,162.1613 243.1848,162.1613 249.06491,168.05142 249.06491,175.31156 249.06491,182.5827 243.1848,188.41682 235.92466,188.41682 L 223.0944,188.41682 223.0744,175.33156 Z" inkscape:connector-curvature="0" style="fill:url(#e-0)"/>
  <path id="path86" d="M 255.80505,184.15673 C 255.80505,199.45503 268.25529,211.89928 283.55559,211.89928 298.8559,211.89928 311.29614,199.45503 311.29614,184.15673 311.29614,168.86143 298.8559,156.41119 283.55559,156.41119 268.25529,156.41119 255.80505,168.86143 255.80505,184.15673 M 262.03517,184.15673 C 262.03517,172.2815 271.68536,162.63131 283.55559,162.63131 295.42583,162.63131 305.07602,172.2815 305.07602,184.15673 305.07602,196.01897 295.42583,205.67916 283.55559,205.67916 271.68536,205.67916 262.03517,196.01897 262.03517,184.15673" inkscape:connector-curvature="0" style="fill:url(#d-9)"/>
  <path id="path88" d="M 353.33697,158.50123 C 351.62694,158.50123 350.22691,159.84125 350.22691,161.49129 350.22691,163.14132 351.62694,164.47134 353.33697,164.47134 L 365.65721,164.47134 365.65721,208.36921 C 365.65721,210.06424 366.98724,211.42927 368.63727,211.42927 370.28731,211.42927 371.61733,210.06424 371.61733,208.36921 L 371.61733,164.47134 383.78757,164.47134 C 385.50761,164.47134 386.89763,163.14132 386.89763,161.49129 386.89763,159.84125 385.50761,158.50123 383.78757,158.50123 L 353.33697,158.50123 Z" inkscape:connector-curvature="0" style="fill:url(#c-8)"/>
  <path id="path90" d="M 193.41382,156.44119 C 178.50352,156.44119 175.29346,167.3914 175.29346,173.04151 175.29346,178.68162 179.80355,186.25877 193.54382,186.25877 207.28409,186.25877 206.70408,194.42494 206.70408,194.75194 206.70408,195.07195 207.44409,205.45615 193.57382,205.41715 182.2236,205.38615 180.87357,196.69498 181.02357,194.01393 181.02357,192.4379 179.73355,191.20487 178.16352,191.20487 176.59349,191.20487 175.30346,192.4379 175.30346,194.01393 175.05345,203.52412 182.5636,211.15427 193.47382,211.15427 207.15409,211.15427 212.47419,202.7231 212.47419,194.81794 212.47419,186.91279 206.21407,180.49166 193.50382,180.49166 180.80357,180.49166 180.93357,173.20152 180.93357,173.20152 180.93357,173.20152 180.12355,162.0413 193.54382,162.0413 206.96408,162.0413 205.93406,174.18154 205.93406,174.18154 205.93406,175.73157 207.19409,176.97159 208.75412,176.97159 210.30415,176.97159 211.56418,175.73157 211.56418,174.18154 211.56418,156.79119 194.85385,156.44119 193.49382,156.44119 L 193.41382,156.44119" inkscape:connector-curvature="0" style="fill:url(#b-9)"/>
  <path id="path92" d="M 314.0862,175.35156 314.1162,208.89522 C 314.1162,210.50325 315.42622,211.80128 317.03626,211.80128 318.64629,211.80128 319.94631,210.50325 319.94631,208.89522 L 319.94631,194.13593 332.58656,194.13593 342.40676,210.16925 C 343.21677,211.58527 345.02681,212.07628 346.43684,211.26927 347.85686,210.45125 348.34687,208.64822 347.53686,207.23119 L 338.93669,193.10591 C 346.30683,190.56786 351.61694,183.58172 351.61694,175.34156 351.61694,164.95135 343.20677,156.53119 332.83657,156.53119 321.34634,156.53119 314.0862,164.62135 314.0862,175.35156 M 319.91631,175.33156 C 319.91631,167.81141 324.72641,162.1613 332.76657,162.1613 340.03671,162.1613 345.91683,168.05142 345.91683,175.31156 345.91683,182.5827 340.03671,188.41682 332.76657,188.41682 L 319.94631,188.41682 319.91631,175.33156 Z" inkscape:connector-curvature="0" style="fill:url(#a-9)"/>
  <path id="path94" d="M 418.00825,174.56154 C 418.00825,174.56154 419.03827,162.4213 405.618,162.4213 392.19774,162.4213 393.00775,173.57152 393.00775,173.57152 393.00775,173.57152 392.87775,180.86167 405.578,180.86167 418.28825,180.86167 424.54838,187.28379 424.54838,195.19295 424.54838,203.09711 419.22827,211.52827 405.548,211.52827 394.63779,211.52827 387.12764,203.89812 387.37764,194.38893 387.37764,192.8149 388.66767,191.57888 390.2377,191.57888 391.81773,191.57888 393.09776,192.8149 393.09776,194.38893 392.94775,197.06899 394.29778,205.76016 405.648,205.79216 419.51828,205.83016 418.77826,195.44696 418.77826,195.12295 418.77826,194.79894 419.35827,186.63278 405.618,186.63278 391.87773,186.63278 387.36764,179.05163 387.36764,173.41152 387.36764,167.77141 390.57771,156.81119 405.488,156.81119 405.488,156.81119 423.63836,156.43119 423.63836,174.56154 423.63836,176.11157 422.37833,177.3416 420.8283,177.3416 419.26827,177.3416 418.00825,176.11157 418.00825,174.56154" inkscape:connector-curvature="0" style="fill:#512c80"/>
  <path style="fill:url(#j-2)" d="M 445.66977,36.529532 C 441.37968,36.529532 437.89797,39.988736 437.89797,44.238819 L 437.89797,117.15967 437.89797,117.22998 437.89797,117.31984 437.89797,117.43116 C 438.01798,135.44152 452.51828,150.05121 470.50863,150.40121 470.52864,150.40121 470.56872,150.42075 470.58872,150.42075 L 592.2517,150.42075 C 593.53172,150.42075 594.71135,150.10112 595.77137,149.57111 595.81137,149.55111 595.8427,149.53056 595.88271,149.51056 595.8627,149.51056 595.86153,149.49025 595.93154,149.44024 598.28158,148.12021 600.01177,145.60026 600.01177,142.68021 L 600.01177,44.238819 C 600.01177,41.038756 598.03211,38.299187 595.24205,37.129164 594.33203,36.719156 593.30172,36.529532 592.2517,36.529532 L 544.24981,36.529532 445.69906,36.529532 445.66977,36.529532 Z M 491.31999,62.079367 502.84975,62.079367 502.84975,122.12081 491.31999,122.12081 491.31999,62.079367 Z M 524.26075,62.079367 535.68112,62.079367 535.68112,122.12081 524.26075,122.12081 524.26075,96.760422 507.34992,96.760422 507.34992,86.129143 524.26075,86.129143 524.26075,62.079367 Z M 544.62092,62.079367 566.04169,62.079367 C 582.75202,62.079367 593.1619,73.589951 593.1619,92.090312 593.1619,110.44069 582.51201,122.12081 566.04169,122.12081 L 560.65085,122.12081 560.65085,111.47 566.04169,111.47 C 579.64196,111.47 581.72199,99.290382 581.72199,92.010232 581.72199,83.19006 578.95194,72.739943 566.04169,72.739943 L 556.08036,72.739943 556.08036,122.12081 544.62092,122.12081 544.62092,62.079367 Z M 467.46945,62.149683 C 478.29966,62.149683 486.76903,70.48022 486.76903,81.150432 486.76903,90.910632 481.21953,96.019182 473.39937,102.14931 L 460.21917,112.40948 486.51902,112.40948 486.51902,121.89033 454.3498,121.89033 C 448.81968,121.89033 445.5389,119.20997 445.5389,114.72989 445.5389,111.32982 447.30973,109.91957 450.5098,107.39952 L 451.08795,106.94052 470.93834,91.389122 C 472.62837,90.039089 476.59871,86.358895 476.59871,81.218794 476.59871,75.668684 472.43875,71.628571 466.66863,71.628571 460.35852,71.628571 456.42995,75.7398 456.42995,82.339932 456.42995,86.540014 459.48858,89.72025 463.07865,91.090272 L 454.52949,97.219432 C 449.16939,93.789352 446.25963,88.280732 446.25963,81.310594 446.25963,68.860348 457.20925,62.149682 467.46945,62.149683 Z" id="path96" inkscape:connector-curvature="0"/>
</svg>
