<?xml version="1.0" encoding="UTF-8" standalone="no"?>
<svg xmlns="http://www.w3.org/2000/svg" height="211.42" width="600" version="1.1" viewBox="0 0 158.75 55.939073">
  <defs>
    <linearGradient id="b" gradientUnits="userSpaceOnUse" gradientTransform="matrix(32.789 -25.119 25.119 32.789 77.576 471.68)" x1="0" x2="1" y1="0" y2="0">
      <stop stop-color="#190031" offset="0"/>
      <stop stop-color="#190031" offset=".0060577"/>
      <stop stop-color="#5c2d91" offset="1"/>
    </linearGradient>
    <linearGradient id="c" gradientUnits="userSpaceOnUse" gradientTransform="matrix(32.789 -25.119 25.119 32.789 93.163 492.03)" x1="0" x2="1" y1="0" y2="0">
      <stop stop-color="#190031" offset="0"/>
      <stop stop-color="#190031" offset=".0060577"/>
      <stop stop-color="#5c2d91" offset="1"/>
    </linearGradient>
    <linearGradient id="d" gradientUnits="userSpaceOnUse" gradientTransform="matrix(32.789 -25.119 25.119 32.789 100.38 501.45)" x1="0" x2="1" y1="0" y2="0">
      <stop stop-color="#190031" offset="0"/>
      <stop stop-color="#190031" offset=".0060577"/>
      <stop stop-color="#5c2d91" offset="1"/>
    </linearGradient>
    <linearGradient id="e" gradientUnits="userSpaceOnUse" gradientTransform="matrix(32.789 -25.119 25.119 32.789 109.92 513.9)" x1="0" x2="1" y1="0" y2="0">
      <stop stop-color="#190031" offset="0"/>
      <stop stop-color="#190031" offset=".0060577"/>
      <stop stop-color="#5c2d91" offset="1"/>
    </linearGradient>
    <linearGradient id="f" gradientUnits="userSpaceOnUse" gradientTransform="matrix(32.789 -25.119 25.119 32.789 103.44 518.29)" x1="0" x2="1" y1="0" y2="0">
      <stop stop-color="#190031" offset="0"/>
      <stop stop-color="#190031" offset=".0060577"/>
      <stop stop-color="#5c2d91" offset="1"/>
    </linearGradient>
    <linearGradient id="g" gradientUnits="userSpaceOnUse" gradientTransform="matrix(32.789 -25.119 25.119 32.789 109.15 525.74)" x1="0" x2="1" y1="0" y2="0">
      <stop stop-color="#190031" offset="0"/>
      <stop stop-color="#190031" offset=".0060577"/>
      <stop stop-color="#5c2d91" offset="1"/>
    </linearGradient>
    <linearGradient id="h" gradientUnits="userSpaceOnUse" gradientTransform="matrix(32.789 -25.118 25.118 32.789 116.81 535.74)" x1="0" x2="1" y1="0" y2="0">
      <stop stop-color="#190031" offset="0"/>
      <stop stop-color="#190031" offset=".0060577"/>
      <stop stop-color="#5c2d91" offset="1"/>
    </linearGradient>
    <linearGradient id="i" gradientUnits="userSpaceOnUse" gradientTransform="matrix(32.789 -25.119 25.119 32.789 100.34 514.24)" x1="0" x2="1" y1="0" y2="0">
      <stop stop-color="#190031" offset="0"/>
      <stop stop-color="#190031" offset=".0060577"/>
      <stop stop-color="#5c2d91" offset="1"/>
    </linearGradient>
    <linearGradient id="j" gradientUnits="userSpaceOnUse" gradientTransform="matrix(32.789 -25.119 25.119 32.789 114.25 532.41)" x1="0" x2="1" y1="0" y2="0">
      <stop stop-color="#190031" offset="0"/>
      <stop stop-color="#190031" offset=".0060577"/>
      <stop stop-color="#5c2d91" offset="1"/>
    </linearGradient>
    <linearGradient id="a" gradientUnits="userSpaceOnUse" gradientTransform="matrix(64.265 -37.105 37.105 64.265 166.76 516.69)" x1="0" x2="1" y1="0" y2="0">
      <stop stop-color="#572381" offset="0"/>
      <stop stop-color="#111211" offset="1"/>
    </linearGradient>
  </defs>
  <g transform="translate(-48.381 -466.33)">
    <g stroke-width=".26417">
      <path d="m48.387 467.41s-0.006 16.5-0.006 23.99c0 7.5 6.196 14.55 14.958 14.55 8.764 0 14.95-7.5 14.95-15.1s-6.033-14.89-14.956-14.89c-8.922 0-12.793 7.05-12.793 7.05v-15.6c0-0.6-0.481-1.08-1.077-1.08-0.594 0-1.076 0.48-1.076 1.08m2.198 23.44c0-7.06 5.692-12.78 12.718-12.78 7.022 0 12.716 5.72 12.716 12.78 0 7.07-5.694 12.79-12.716 12.79-7.026 0-12.718-5.72-12.718-12.79" fill="url(#b)"/>
      <path d="m79.665 490.89c0 8.28 6.713 14.99 14.993 14.99 5.392 0 10.122-2.85 12.762-7.12 0.34-0.51 0.19-1.2-0.32-1.55-0.52-0.34-1.22-0.2-1.56 0.31-2.24 3.67-6.274 6.11-10.882 6.11-7.041 0-12.744-5.7-12.744-12.74s5.703-12.75 12.744-12.75c6.652 0 12.102 5.09 12.692 11.58h-14.846c-0.624 0-1.123 0.51-1.123 1.13 0 0.63 0.509 1.14 1.134 1.14h16.005c0.84 0 1.13-0.6 1.13-1.1 0-8.28-6.71-14.99-14.992-14.99-8.28 0-14.993 6.71-14.993 14.99" fill="url(#c)"/>
      <path d="m113.95 475.88zc-1.46 0-2.56 1.15-2.64 2.18v26c0.08 1.03 1.18 2.18 2.64 2.18 1.45 0 2.55-1.15 2.63-2.18v-26c-0.08-1.03-1.18-2.18-2.63-2.18m-0.01 0h0.01zm0.01 30.36m-0.01 0h0.01-0.01" fill="url(#d)"/>
      <path d="m157.9 475.9zc-1.43 0-2.51 1.15-2.59 2.17v19.15c0 0.7-0.44 2.43-2.09 3.22-3.56 1.69-5.39-1.56-5.39-1.56l-11.86-18.65c-1.37-2.38-5.6-5.79-11.34-3.65-5.55 2.28-5.62 8.04-5.62 8.04v19.44c0.08 1.03 1.18 2.06 2.64 2.06 1.45 0 2.56-1.16 2.56-2.36v-18.6s-0.26-3.67 3.96-4.05c2.46-0.15 3.68 2.41 3.68 2.41s10.79 17.02 11.89 18.72c1.09 1.69 5.52 5.5 11.27 3.16 5.82-2.37 5.48-8.2 5.48-8.2v-19.15c-0.08-1.01-1.16-2.15-2.59-2.15m-0.01 0h0.01zm-36.24 30.22zm-0.01 0h0.01z" fill="url(#e)"/>
      <path d="m105.73 512.62 0.01 8.86c0 0.42 0.35 0.77 0.77 0.77s0.77-0.35 0.77-0.77v-3.9h3.4c2.74 0 4.96-2.22 4.96-4.96s-2.22-4.97-4.96-4.97c-3.03 0-4.95 2.14-4.95 4.97m1.54 0c0-1.98 1.27-3.48 3.4-3.48 1.91 0 3.47 1.55 3.47 3.47s-1.56 3.46-3.47 3.46h-3.39z" fill="url(#f)"/>
      <path d="m115.91 514.95c0 4.03 3.29 7.32 7.33 7.32s7.32-3.29 7.32-7.32c0-4.04-3.28-7.33-7.32-7.33s-7.33 3.29-7.33 7.33m1.65 0c0-3.14 2.55-5.69 5.68-5.69s5.68 2.55 5.68 5.69c0 3.13-2.55 5.68-5.68 5.68s-5.68-2.55-5.68-5.68" fill="url(#g)"/>
      <path d="m141.66 508.17c-0.45 0-0.82 0.36-0.82 0.79 0 0.44 0.37 0.79 0.82 0.79h3.25v11.59c0 0.45 0.35 0.81 0.79 0.81 0.43 0 0.79-0.36 0.79-0.81v-11.59h3.21c0.45 0 0.82-0.35 0.82-0.79 0-0.43-0.37-0.79-0.82-0.79z" fill="url(#h)"/>
      <path d="m99.442 507.63c-3.935 0-4.784 2.89-4.784 4.38s1.193 3.49 4.817 3.49c3.625 0 3.475 2.16 3.475 2.24 0 0.09 0.2 2.83-3.464 2.82-2.998-0.01-3.354-2.3-3.315-3.01 0-0.42-0.339-0.74-0.752-0.74-0.418 0-0.756 0.32-0.756 0.74-0.065 2.51 1.916 4.52 4.794 4.52 3.613 0 5.013-2.22 5.013-4.31 0-2.08-1.65-3.78-5.002-3.78-3.354 0-3.321-1.92-3.321-1.92s-0.214-2.95 3.328-2.95c3.545 0 3.275 3.2 3.275 3.2 0 0.41 0.33 0.74 0.74 0.74s0.74-0.33 0.74-0.74c0-4.59-4.406-4.68-4.765-4.68h-0.023" fill="url(#i)"/>
      <path d="m131.3 512.62 0.01 8.86c0 0.42 0.34 0.77 0.77 0.77 0.42 0 0.77-0.35 0.77-0.77v-3.9h3.33l2.6 4.23c0.21 0.38 0.69 0.51 1.06 0.29 0.37-0.21 0.5-0.69 0.29-1.06l-2.27-3.73c1.94-0.67 3.35-2.52 3.35-4.69 0-2.74-2.22-4.97-4.96-4.97-3.04 0-4.95 2.14-4.95 4.97m1.54 0c0-1.98 1.27-3.48 3.39-3.48 1.92 0 3.47 1.55 3.47 3.47s-1.55 3.46-3.47 3.46h-3.38z" fill="url(#j)"/>
      <path d="m158.73 512.41s0.27-3.2-3.27-3.2-3.33 2.94-3.33 2.94-0.03 1.93 3.32 1.93c3.36 0 5.01 1.69 5.01 3.78s-1.4 4.31-5.02 4.31c-2.88 0-4.86-2.01-4.79-4.52 0-0.42 0.34-0.74 0.75-0.74 0.42 0 0.76 0.32 0.76 0.74-0.04 0.71 0.31 3 3.31 3.01 3.66 0.01 3.47-2.73 3.47-2.82 0-0.08 0.15-2.24-3.48-2.24s-4.82-2-4.82-3.49 0.85-4.38 4.79-4.38c0 0 4.79-0.1 4.79 4.68 0 0.41-0.33 0.74-0.75 0.74-0.4 0-0.74-0.33-0.74-0.74" fill="#512c80"/>
    </g>
    <path stroke-width=".40649" fill="url(#a)" d="m167.49 475.79c-0.87 0-1.65 0.36-2.22 0.93-0.07 0.07-0.14 0.15-0.21 0.22-0.06 0.08-0.12 0.16-0.18 0.25-0.06 0.08-0.11 0.17-0.16 0.26s-0.09 0.18-0.13 0.28c-0.04 0.09-0.07 0.19-0.11 0.29-0.03 0.09-0.05 0.19-0.07 0.3-0.02 0.1-0.04 0.2-0.05 0.31s-0.02 0.21-0.02 0.32v29.86c0.02 2.3 0.61 4.47 1.63 6.36 0.2 0.38 0.43 0.74 0.67 1.1 0.59 0.89 1.29 1.7 2.07 2.42 1.73 1.59 3.86 2.74 6.23 3.26 0.87 0.19 1.76 0.31 2.67 0.32h26.37c0.52 0 1-0.12 1.43-0.34 0.02-0.01 0.03-0.02 0.05-0.02-0.01 0-0.01-0.01 0.02-0.03 0.96-0.54 1.65-1.57 1.65-2.76v-40.17c0-1.3-0.79-2.43-1.93-2.9-0.33-0.15-0.69-0.23-1.07-0.25h-36.61c-0.01 0-0.02-0.01-0.03-0.01zm20.47 7.38c1.38 0 2.52 0.42 3.34 1.24 0.8 0.8 1.24 1.96 1.24 3.32v7.86c0 0.45-0.37 0.81-0.82 0.81s-0.81-0.36-0.81-0.81v-3.29h-5.89v3.29c0 0.45-0.36 0.81-0.82 0.81-0.45 0-0.81-0.36-0.81-0.81v-7.86c0-1.36 0.44-2.52 1.25-3.32 0.8-0.82 1.95-1.24 3.32-1.24zm-17.08 0.19c0.65 0 1.22 0.44 1.41 1.06l2.73 9.22 2.74-9.22c0.17-0.62 0.76-1.06 1.41-1.06 0.74 0 1.36 0.56 1.44 1.29l1.36 10.82c0.02 0.03 0.02 0.07 0.02 0.1 0 0.45-0.38 0.83-0.83 0.83-0.42 0-0.77-0.32-0.83-0.72l-1.24-9.92-2.96 9.81c-0.15 0.48-0.6 0.83-1.11 0.83-0.5 0-0.97-0.35-1.1-0.83l-2.96-9.81-1.25 9.92c-0.06 0.4-0.39 0.72-0.82 0.72-0.47 0-0.83-0.38-0.83-0.83v-0.1l1.37-10.82c0.08-0.73 0.71-1.29 1.45-1.29zm23.74 0c0.28 0 0.53 0.14 0.68 0.35l3.24 4.65 3.25-4.65c0.16-0.21 0.4-0.35 0.67-0.35 0.47 0 0.84 0.38 0.84 0.83 0 0.17-0.05 0.34-0.14 0.47l-3.61 5.15 3.71 5.29c0.09 0.12 0.15 0.29 0.15 0.47 0 0.45-0.37 0.83-0.83 0.83-0.28 0-0.52-0.13-0.68-0.36l-3.36-4.8-3.35 4.8c-0.15 0.23-0.41 0.36-0.68 0.36-0.47 0-0.83-0.38-0.83-0.83 0-0.18 0.05-0.35 0.15-0.47l3.7-5.29-3.59-5.15c-0.09-0.13-0.15-0.3-0.15-0.47 0-0.45 0.38-0.83 0.83-0.83zm-6.66 1.5c-1.1 0-2.94 0.38-2.94 2.94v2.94h5.89v-2.94c0-2.56-1.84-2.94-2.95-2.94zm-6.01 15.99h6.31c0.26 0 0.5 0.03 0.72 0.07 0.28 0.05 0.54 0.18 0.76 0.35 0.29 0.23 0.55 0.74 0.56 1.24 0 0.38-0.1 0.66-0.28 0.9l-2.1 2.69c1.47 0.79 2.46 2.34 2.46 4.12 0 2.58-2.08 4.67-4.65 4.67-2.41 0-4.39-1.83-4.64-4.18h2.33c0.22 1.08 1.17 1.88 2.31 1.88 1.3 0 2.36-1.06 2.36-2.37 0-1.3-0.93-2.18-2.33-2.36h-0.01c-0.66 0-1.2-0.54-1.2-1.21 0-0.29 0.11-0.56 0.28-0.76l2.13-2.72h-4.46z"/>
  </g>
</svg>
