<?xml version="1.0" encoding="UTF-8" standalone="no"?>
<svg xmlns="http://www.w3.org/2000/svg" height="211.42" width="600" version="1.1" viewBox="0 0 158.75 55.939033">
 <g fill="#fff" transform="translate(-20.411 -160.17)">
  <g stroke-width=".26417">
   <path d="m20.417 161.25s-0.006 16.5-0.006 23.99c0 7.5 6.196 14.55 14.958 14.55 8.764 0 14.95-7.5 14.95-15.1s-6.033-14.88-14.956-14.88-12.793 7.04-12.793 7.04v-15.6c0-0.6-0.481-1.08-1.077-1.08-0.594 0-1.076 0.48-1.076 1.08m2.197 23.45c0-7.07 5.693-12.79 12.719-12.79 7.022 0 12.716 5.72 12.716 12.79 0 7.06-5.694 12.78-12.716 12.78-7.026 0-12.719-5.72-12.719-12.78"/>
   <path d="m51.695 184.73c0 8.28 6.713 14.99 14.992 14.99 5.394 0 10.119-2.84 12.76-7.12 0.343-0.51 0.191-1.2-0.32-1.55-0.514-0.34-1.214-0.2-1.555 0.31-2.241 3.67-6.276 6.11-10.885 6.11-7.04 0-12.743-5.7-12.743-12.74s5.703-12.74 12.743-12.74c6.649 0 12.104 5.08 12.693 11.57h-14.846c-0.625 0-1.123 0.51-1.123 1.13 0 0.63 0.509 1.14 1.134 1.14h16.002c0.841 0 1.133-0.6 1.133-1.1 0-8.28-6.713-14.99-14.993-14.99-8.279 0-14.992 6.71-14.992 14.99"/>
   <path d="m85.976 169.72h0.005zc-1.453 0-2.556 1.15-2.633 2.18v26c0.077 1.03 1.18 2.18 2.633 2.18 1.454 0 2.554-1.15 2.634-2.18v-26c-0.08-1.03-1.18-2.18-2.634-2.18m-0.005 0h0.005zm0.005 30.36h0.005-0.005m-0.005 0h0.005-0.005"/>
   <path d="m129.93 169.74zc-1.43 0-2.51 1.15-2.59 2.17v19.15c0 0.7-0.44 2.43-2.09 3.22-3.56 1.69-5.39-1.56-5.39-1.56l-11.86-18.65c-1.37-2.38-5.6-5.79-11.345-3.65-5.543 2.28-5.613 8.05-5.613 8.05v19.43c0.08 1.04 1.182 2.06 2.636 2.06 1.451 0 2.566-1.16 2.566-2.36v-18.6s-0.266-3.67 3.956-4.05c2.46-0.15 3.68 2.41 3.68 2.41s10.79 17.02 11.89 18.72c1.09 1.69 5.52 5.5 11.27 3.16 5.82-2.37 5.48-8.2 5.48-8.2v-19.14c-0.08-1.02-1.16-2.16-2.59-2.16m-0.01 0h0.01zm-36.242 30.22h0.005zm-0.008 0h0.008z"/>
   <path d="m77.763 206.46 0.008 8.86c0 0.42 0.346 0.77 0.767 0.77 0.426 0 0.772-0.35 0.772-0.77v-3.9h3.4c2.74 0 4.96-2.22 4.96-4.96s-2.22-4.97-4.96-4.97c-3.033 0-4.947 2.14-4.947 4.97m1.539 0c0-1.98 1.268-3.48 3.393-3.48 1.915 0 3.47 1.56 3.47 3.47 0 1.92-1.555 3.46-3.47 3.46h-3.388z"/>
   <path d="m87.944 208.79c0 4.04 3.286 7.32 7.324 7.32s7.322-3.28 7.322-7.32-3.284-7.33-7.322-7.33-7.324 3.29-7.324 7.33m1.644 0c0-3.14 2.549-5.68 5.68-5.68 3.132 0 5.682 2.54 5.682 5.68 0 3.13-2.55 5.68-5.682 5.68-3.131 0-5.68-2.55-5.68-5.68"/>
   <path d="m113.69 202.02c-0.45 0-0.82 0.35-0.82 0.79 0 0.43 0.37 0.78 0.82 0.78h3.25v11.59c0 0.45 0.35 0.81 0.79 0.81 0.43 0 0.79-0.36 0.79-0.81v-11.59h3.21c0.45 0 0.82-0.35 0.82-0.78 0-0.44-0.37-0.79-0.82-0.79z"/>
   <path d="m71.472 201.47c-3.935 0-4.785 2.9-4.785 4.38 0 1.49 1.193 3.49 4.818 3.49 3.628 0 3.475 2.16 3.475 2.24 0 0.09 0.196 2.83-3.465 2.82-2.997-0.01-3.353-2.3-3.315-3.01 0-0.42-0.338-0.74-0.751-0.74-0.418 0-0.756 0.32-0.756 0.74-0.065 2.51 1.915 4.52 4.794 4.52 3.612 0 5.017-2.22 5.017-4.31 0-2.08-1.653-3.78-5.007-3.78-3.353 0-3.32-1.92-3.32-1.92s-0.214-2.95 3.328-2.95c3.545 0 3.271 3.2 3.271 3.2 0 0.41 0.336 0.74 0.746 0.74 0.408 0 0.741-0.33 0.741-0.74 0-4.59-4.409-4.68-4.768-4.68h-0.023"/>
   <path d="m103.33 206.46 0.01 8.86c0 0.42 0.34 0.77 0.77 0.77 0.42 0 0.77-0.35 0.77-0.77v-3.9h3.33l2.6 4.24c0.21 0.37 0.69 0.5 1.06 0.28 0.37-0.21 0.5-0.69 0.29-1.06l-2.27-3.73c1.94-0.67 3.35-2.51 3.35-4.69 0-2.74-2.22-4.97-4.96-4.97-3.04 0-4.95 2.14-4.95 4.97m1.54 0c0-1.98 1.27-3.48 3.39-3.48 1.92 0 3.47 1.56 3.47 3.47 0 1.92-1.55 3.46-3.47 3.46h-3.38z"/>
   <path d="m130.76 206.25s0.27-3.2-3.27-3.2-3.33 2.94-3.33 2.94-0.03 1.93 3.32 1.93c3.36 0 5.01 1.69 5.01 3.78s-1.4 4.31-5.02 4.31c-2.88 0-4.86-2.01-4.79-4.52 0-0.41 0.34-0.74 0.75-0.74 0.42 0 0.76 0.33 0.76 0.74-0.04 0.71 0.31 3 3.31 3.01 3.66 0.01 3.47-2.73 3.47-2.82 0-0.08 0.15-2.24-3.48-2.24s-4.82-2-4.82-3.49 0.85-4.38 4.79-4.38c0 0 4.79-0.1 4.79 4.68 0 0.42-0.33 0.74-0.75 0.74-0.4 0-0.74-0.32-0.74-0.74"/>
  </g>
  <path stroke-width=".40649" d="m139.52 169.63c-0.87 0-1.65 0.36-2.22 0.93-0.07 0.07-0.14 0.15-0.21 0.22-0.06 0.08-0.12 0.16-0.18 0.25-0.06 0.08-0.11 0.17-0.16 0.26s-0.09 0.18-0.13 0.28c-0.04 0.09-0.07 0.19-0.11 0.29-0.03 0.09-0.05 0.2-0.07 0.3s-0.04 0.21-0.05 0.31c-0.01 0.11-0.02 0.21-0.02 0.32v29.86c0.02 2.3 0.61 4.47 1.63 6.36 0.2 0.38 0.43 0.74 0.66 1.1 0.6 0.89 1.3 1.7 2.08 2.42 1.73 1.6 3.86 2.74 6.23 3.27 0.87 0.19 1.76 0.3 2.67 0.31h26.37c0.52 0 1-0.12 1.43-0.34 0.02-0.01 0.03-0.02 0.05-0.02-0.01 0-0.01-0.01 0.02-0.03 0.96-0.54 1.65-1.56 1.65-2.76v-40.17c0-1.3-0.79-2.43-1.93-2.9-0.33-0.15-0.69-0.23-1.07-0.25h-36.61c-0.01 0-0.02-0.01-0.03-0.01zm20.47 7.38c1.38 0 2.52 0.42 3.34 1.24 0.8 0.8 1.24 1.96 1.24 3.32v7.86c0 0.45-0.37 0.81-0.82 0.81s-0.81-0.36-0.81-0.81v-3.29h-5.89v3.29c0 0.45-0.36 0.81-0.82 0.81-0.45 0-0.81-0.36-0.81-0.81v-7.86c0-1.36 0.44-2.52 1.25-3.32 0.8-0.82 1.95-1.24 3.32-1.24zm-17.08 0.2c0.65 0 1.22 0.43 1.41 1.05l2.73 9.22 2.74-9.22c0.17-0.62 0.76-1.05 1.41-1.05 0.74 0 1.35 0.55 1.44 1.28l1.36 10.82c0.02 0.03 0.02 0.07 0.02 0.1 0 0.45-0.38 0.83-0.83 0.83-0.42 0-0.77-0.31-0.83-0.72l-1.24-9.92-2.96 9.81c-0.15 0.49-0.6 0.83-1.11 0.83-0.5 0-0.97-0.34-1.1-0.83l-2.96-9.81-1.25 9.92c-0.06 0.41-0.39 0.72-0.82 0.72-0.47 0-0.83-0.38-0.83-0.83v-0.1l1.37-10.82c0.08-0.73 0.71-1.28 1.45-1.28zm23.74 0c0.28 0 0.53 0.13 0.67 0.34l3.25 4.65 3.24-4.65c0.17-0.21 0.41-0.34 0.68-0.34 0.47 0 0.83 0.37 0.83 0.83 0 0.16-0.04 0.33-0.13 0.46l-3.61 5.15 3.71 5.29c0.09 0.13 0.15 0.29 0.15 0.47 0 0.45-0.37 0.83-0.83 0.83-0.28 0-0.52-0.13-0.68-0.36l-3.36-4.8-3.35 4.8c-0.15 0.23-0.41 0.36-0.68 0.36-0.47 0-0.83-0.38-0.83-0.83 0-0.18 0.05-0.34 0.15-0.47l3.7-5.29-3.59-5.15c-0.09-0.13-0.15-0.3-0.15-0.46 0-0.46 0.38-0.83 0.83-0.83zm-6.66 1.49c-1.1 0-2.94 0.38-2.94 2.94v2.94h5.89v-2.94c0-2.56-1.84-2.94-2.95-2.94zm-1.7 15.99h3.13l-5.83 9.45h3.05v-1.55h2.66v1.55h1.92v2.38h-1.92v2.21h-2.66v-2.21h-4.6v-0.01c-0.96-0.02-1.72-0.74-1.72-1.64 0-0.28 0.07-0.55 0.21-0.78z"/>
 </g>
</svg>
