<?xml version="1.0" encoding="UTF-8" standalone="no"?>
<svg xmlns="http://www.w3.org/2000/svg" height="230.7" width="600" version="1.1" viewBox="0 0 158.75 61.038677">
 <g fill="#fff" transform="translate(-132.14 -206.89)">
  <path stroke-width=".28819" d="m260.38 217.38c-2.35 0.05-2.37 2.38-2.37 2.38l-0.03 19.57c0 3.13 0.72 5.36 1.78 6.97 0.99 1.39 2.34 2.5 3.92 3.2 1.78 0.74 3.48 0.83 4.26 0.83 0.29 0 0.45-0.02 0.45-0.02h20.51c2.09 0 1.99-2.24 1.99-2.24v-28.46c0-1.97-1.77-2.21-2.01-2.23h-0.2zm14.59 4.15c4.41 0 7.86 3.41 7.86 7.76 0 3.99-2.26 6.07-5.45 8.58l-5.37 4.19h10.72v3.88h-13.12c-2.24 0-3.58-1.1-3.58-2.93 0-1.39 0.72-1.96 2.03-3l0.23-0.18 8.09-6.35c0.69-0.55 2.31-2.06 2.31-4.15 0-2.28-1.7-3.92-4.04-3.92-2.59 0-4.19 1.67-4.19 4.37 0 1.72 1.25 3.01 2.72 3.57l-3.48 2.51c-2.19-1.4-3.38-3.65-3.38-6.5 0-5.09 4.46-7.83 8.65-7.83z"/>
  <g stroke-width=".28827">
   <path d="m132.14 208.06v26.19c0 8.18 6.76 15.87 16.32 15.87s16.31-8.18 16.31-16.47-6.58-16.25-16.32-16.25c-9.73 0-13.96 7.68-13.96 7.68v-17.02c0-0.64-0.52-1.17-1.17-1.17s-1.18 0.53-1.18 1.17m2.4 25.59c0-7.71 6.21-13.95 13.88-13.95 7.66 0 13.88 6.24 13.88 13.95s-6.22 13.95-13.88 13.95c-7.67 0-13.88-6.24-13.88-13.95"/>
   <path d="m166.27 233.69c0 9.03 7.33 16.35 16.36 16.35 5.89 0 11.04-3.1 13.93-7.76 0.37-0.56 0.2-1.32-0.36-1.69-0.55-0.38-1.32-0.23-1.69 0.33-2.45 4-6.85 6.67-11.88 6.67-7.68 0-13.9-6.22-13.9-13.9s6.22-13.91 13.9-13.91c7.25 0 13.21 5.55 13.85 12.63h-16.2c-0.68 0-1.22 0.56-1.22 1.24s0.55 1.23 1.23 1.23h17.47c0.92 0 1.23-0.65 1.23-1.19 0-9.04-7.32-16.36-16.36-16.36-9.03 0-16.36 7.32-16.36 16.36"/>
   <path d="m203.68 217.31zc-1.59 0-2.79 1.25-2.87 2.38v28.37c0.08 1.13 1.28 2.37 2.87 2.38 1.58-0.01 2.79-1.25 2.87-2.38v-28.37c-0.08-1.13-1.29-2.38-2.87-2.38zm0 33.13"/>
   <path d="m251.64 217.33zc-1.56 0-2.74 1.25-2.83 2.36v20.91c0 0.76-0.47 2.65-2.28 3.51-3.88 1.84-5.88-1.7-5.88-1.7l-12.94-20.36c-1.49-2.59-6.1-6.31-12.38-3.98-6.05 2.49-6.12 8.78-6.12 8.78v21.21c0.09 1.13 1.29 2.24 2.87 2.25 1.59-0.01 2.81-1.28 2.81-2.58v-20.3s-0.3-4 4.31-4.42c2.69-0.15 4.01 2.64 4.01 2.64s11.78 18.57 12.97 20.42c1.2 1.85 6.03 6 12.31 3.45 6.35-2.58 5.97-8.94 5.97-8.94l0.01-20.9c-0.09-1.11-1.27-2.35-2.83-2.35m-0.01 0h0.01zm-39.55 32.98h0.01z"/>
   <path d="m194.72 257.4v9.67c0 0.46 0.38 0.83 0.84 0.83 0.47 0 0.85-0.37 0.85-0.83v-4.26h3.71c2.99 0 5.41-2.42 5.41-5.41s-2.42-5.42-5.41-5.42c-3.31 0-5.4 2.33-5.4 5.42m1.68 0c0-2.17 1.38-3.8 3.7-3.8 2.09 0 3.79 1.7 3.79 3.79s-1.7 3.77-3.79 3.77h-3.7z"/>
   <path d="m205.83 259.94c0 4.4 3.58 7.99 7.99 7.99 4.4 0 7.99-3.59 7.99-7.99 0-4.41-3.59-8-7.99-8-4.41 0-7.99 3.59-7.99 8m1.79 0c0-3.42 2.78-6.2 6.2-6.2s6.2 2.78 6.2 6.2c0 3.41-2.78 6.2-6.2 6.2s-6.2-2.79-6.2-6.2"/>
   <path d="m233.92 252.55c-0.49 0-0.9 0.38-0.9 0.86 0 0.47 0.41 0.86 0.9 0.86h3.55v12.64c0 0.49 0.38 0.88 0.86 0.88 0.47 0 0.86-0.39 0.86-0.88v-12.64h3.5c0.5 0 0.9-0.39 0.9-0.86 0-0.48-0.4-0.86-0.9-0.86z"/>
   <path d="m187.85 251.95c-4.29 0-5.22 3.16-5.22 4.78 0 1.63 1.3 3.81 5.26 3.81s3.79 2.36 3.79 2.45 0.22 3.08-3.78 3.07c-3.27-0.01-3.66-2.51-3.61-3.28 0-0.46-0.37-0.81-0.83-0.81-0.45 0-0.82 0.35-0.82 0.81-0.07 2.74 2.09 4.93 5.23 4.93 3.94 0 5.47-2.42 5.47-4.7s-1.8-4.13-5.46-4.13-3.62-2.1-3.62-2.1-0.24-3.21 3.63-3.21 3.57 3.49 3.57 3.49c0 0.45 0.36 0.81 0.81 0.81s0.81-0.36 0.81-0.81c0-5.01-4.81-5.11-5.2-5.11h-0.03"/>
   <path d="m222.61 257.4 0.01 9.67c0 0.46 0.38 0.83 0.84 0.83 0.47 0 0.84-0.37 0.84-0.83v-4.26h3.64l2.83 4.62c0.23 0.41 0.76 0.55 1.16 0.32 0.41-0.24 0.55-0.76 0.32-1.17l-2.48-4.06c2.13-0.74 3.66-2.75 3.66-5.12 0-2.99-2.43-5.42-5.41-5.42-3.31 0-5.41 2.33-5.41 5.42m1.68 0c0-2.17 1.39-3.8 3.7-3.8 2.1 0 3.79 1.7 3.79 3.79s-1.69 3.77-3.79 3.77h-3.69z"/>
   <path d="m252.55 257.17s0.29-3.49-3.57-3.49c-3.87 0-3.63 3.21-3.63 3.21s-0.04 2.1 3.62 2.1 5.46 1.85 5.46 4.12c0 2.28-1.53 4.71-5.47 4.71-3.15 0-5.31-2.2-5.24-4.94 0-0.45 0.38-0.8 0.83-0.8s0.83 0.35 0.83 0.8c-0.05 0.78 0.34 3.28 3.61 3.29 4 0.01 3.78-2.98 3.78-3.07 0-0.1 0.17-2.45-3.79-2.45s-5.26-2.18-5.26-3.81c0-1.62 0.93-4.78 5.22-4.78 0 0 5.23-0.11 5.23 5.11 0 0.45-0.36 0.81-0.81 0.81s-0.81-0.36-0.81-0.81"/>
  </g>
 </g>
</svg>
