<?xml version="1.0" encoding="UTF-8" standalone="no"?>
<svg xmlns="http://www.w3.org/2000/svg" height="211.42" width="600" version="1.1" viewBox="0 0 158.75 55.939">
  <defs>
    <linearGradient id="a" gradientUnits="userSpaceOnUse" gradientTransform="matrix(64.265 -37.105 37.105 64.265 191.7 1296.1)" x1="0" x2="1" y1="0" y2="0">
      <stop stop-color="#572381" offset="0"/>
      <stop stop-color="#111211" offset="1"/>
    </linearGradient>
    <linearGradient id="b" gradientUnits="userSpaceOnUse" gradientTransform="matrix(32.789 -25.119 25.119 32.789 102.52 1251.1)" x1="0" x2="1" y1="0" y2="0">
      <stop stop-color="#190031" offset="0"/>
      <stop stop-color="#190031" offset=".0060577"/>
      <stop stop-color="#5c2d91" offset="1"/>
    </linearGradient>
    <linearGradient id="c" gradientUnits="userSpaceOnUse" gradientTransform="matrix(32.789 -25.119 25.119 32.789 118.11 1271.4)" x1="0" x2="1" y1="0" y2="0">
      <stop stop-color="#190031" offset="0"/>
      <stop stop-color="#190031" offset=".0060577"/>
      <stop stop-color="#5c2d91" offset="1"/>
    </linearGradient>
    <linearGradient id="d" gradientUnits="userSpaceOnUse" gradientTransform="matrix(32.789 -25.119 25.119 32.789 125.33 1280.8)" x1="0" x2="1" y1="0" y2="0">
      <stop stop-color="#190031" offset="0"/>
      <stop stop-color="#190031" offset=".0060577"/>
      <stop stop-color="#5c2d91" offset="1"/>
    </linearGradient>
    <linearGradient id="e" gradientUnits="userSpaceOnUse" gradientTransform="matrix(32.789 -25.119 25.119 32.789 134.87 1293.3)" x1="0" x2="1" y1="0" y2="0">
      <stop stop-color="#190031" offset="0"/>
      <stop stop-color="#190031" offset=".0060577"/>
      <stop stop-color="#5c2d91" offset="1"/>
    </linearGradient>
    <linearGradient id="f" gradientUnits="userSpaceOnUse" gradientTransform="matrix(32.789 -25.119 25.119 32.789 128.39 1297.7)" x1="0" x2="1" y1="0" y2="0">
      <stop stop-color="#190031" offset="0"/>
      <stop stop-color="#190031" offset=".0060577"/>
      <stop stop-color="#5c2d91" offset="1"/>
    </linearGradient>
    <linearGradient id="g" gradientUnits="userSpaceOnUse" gradientTransform="matrix(32.789 -25.119 25.119 32.789 134.1 1305.1)" x1="0" x2="1" y1="0" y2="0">
      <stop stop-color="#190031" offset="0"/>
      <stop stop-color="#190031" offset=".0060577"/>
      <stop stop-color="#5c2d91" offset="1"/>
    </linearGradient>
    <linearGradient id="h" gradientUnits="userSpaceOnUse" gradientTransform="matrix(32.789 -25.118 25.118 32.789 141.75 1315.1)" x1="0" x2="1" y1="0" y2="0">
      <stop stop-color="#190031" offset="0"/>
      <stop stop-color="#190031" offset=".0060577"/>
      <stop stop-color="#5c2d91" offset="1"/>
    </linearGradient>
    <linearGradient id="i" gradientUnits="userSpaceOnUse" gradientTransform="matrix(32.789 -25.119 25.119 32.789 125.29 1293.6)" x1="0" x2="1" y1="0" y2="0">
      <stop stop-color="#190031" offset="0"/>
      <stop stop-color="#190031" offset=".0060577"/>
      <stop stop-color="#5c2d91" offset="1"/>
    </linearGradient>
    <linearGradient id="j" gradientUnits="userSpaceOnUse" gradientTransform="matrix(32.789 -25.119 25.119 32.789 139.2 1311.8)" x1="0" x2="1" y1="0" y2="0">
      <stop stop-color="#190031" offset="0"/>
      <stop stop-color="#190031" offset=".0060577"/>
      <stop stop-color="#5c2d91" offset="1"/>
    </linearGradient>
  </defs>
  <g transform="translate(-73.328 -1245.7)">
    <g stroke-width=".26417">
      <path d="m73.334 1246.8s-0.006 16.5-0.006 24 6.196 14.5 14.958 14.5c8.764 0 14.954-7.5 14.954-15.1s-6.037-14.9-14.96-14.9-12.793 7.1-12.793 7.1v-15.6c0-0.6-0.482-1.1-1.077-1.1-0.594 0-1.076 0.5-1.076 1.1m2.197 23.4c0-7 5.693-12.8 12.719-12.8 7.022 0 12.72 5.8 12.72 12.8 0 7.1-5.698 12.8-12.72 12.8-7.026 0-12.719-5.7-12.719-12.8" fill="url(#b)"/>
      <path d="m104.61 1270.3c0 8.3 6.71 15 14.99 15 5.4 0 10.12-2.9 12.76-7.2 0.35-0.5 0.19-1.2-0.32-1.5-0.51-0.4-1.21-0.2-1.55 0.3-2.24 3.7-6.28 6.1-10.89 6.1-7.04 0-12.74-5.7-12.74-12.7 0-7.1 5.7-12.8 12.74-12.8 6.65 0 12.11 5.1 12.7 11.6h-14.85c-0.62 0-1.12 0.5-1.12 1.1 0 0.7 0.51 1.2 1.13 1.2h16c0.85 0 1.14-0.6 1.14-1.1 0-8.3-6.72-15-15-15s-14.99 6.7-14.99 15" fill="url(#c)"/>
      <path d="m138.89 1255.3h0.01zc-1.45 0-2.55 1.1-2.63 2.1v26c0.08 1.1 1.18 2.2 2.63 2.2 1.46 0 2.56-1.1 2.64-2.2v-26c-0.08-1-1.18-2.1-2.64-2.1zm0 30.3h0.01-0.01" fill="url(#d)"/>
      <path d="m182.84 1255.3h0.01zc-1.43 0-2.51 1.1-2.58 2.1v19.2c0 0.7-0.44 2.4-2.09 3.2-3.56 1.7-5.39-1.5-5.39-1.5l-11.86-18.7c-1.37-2.4-5.6-5.8-11.35-3.6-5.54 2.2-5.61 8-5.61 8v19.4c0.08 1.1 1.18 2.1 2.63 2.1 1.46 0 2.57-1.2 2.57-2.4v-18.6s-0.26-3.6 3.95-4c2.47-0.2 3.68 2.4 3.68 2.4s10.8 17 11.89 18.7 5.52 5.5 11.28 3.2c5.82-2.4 5.47-8.2 5.47-8.2l0.01-19.2c-0.08-1-1.17-2.1-2.6-2.1zm-36.25 30.2h0.01z" fill="url(#e)"/>
      <path d="m130.68 1292 0.01 8.9c0 0.4 0.34 0.7 0.76 0.7 0.43 0 0.78-0.3 0.78-0.7v-3.9h3.4c2.74 0 4.96-2.3 4.96-5s-2.22-5-4.96-5c-3.04 0-4.95 2.2-4.95 5m1.54 0c0-2 1.27-3.5 3.39-3.5 1.92 0 3.47 1.6 3.47 3.5s-1.55 3.5-3.47 3.5h-3.39z" fill="url(#f)"/>
      <path d="m140.86 1294.3c0 4.1 3.29 7.4 7.33 7.4 4.03 0 7.32-3.3 7.32-7.4 0-4-3.29-7.3-7.32-7.3-4.04 0-7.33 3.3-7.33 7.3m1.65 0c0-3.1 2.54-5.7 5.68-5.7 3.13 0 5.68 2.6 5.68 5.7 0 3.2-2.55 5.7-5.68 5.7-3.14 0-5.68-2.5-5.68-5.7" fill="url(#g)"/>
      <path d="m166.61 1287.6c-0.46 0-0.82 0.3-0.82 0.7 0 0.5 0.36 0.8 0.82 0.8h3.25v11.6c0 0.5 0.35 0.8 0.79 0.8 0.43 0 0.78-0.3 0.78-0.8v-11.6h3.21c0.46 0 0.83-0.3 0.83-0.8 0-0.4-0.37-0.7-0.83-0.7z" fill="url(#h)"/>
      <path d="m124.39 1287c-3.94 0-4.79 2.9-4.79 4.4s1.2 3.5 4.82 3.5c3.63 0 3.48 2.1 3.48 2.2s0.19 2.9-3.47 2.8c-3 0-3.35-2.3-3.31-3 0-0.4-0.34-0.7-0.75-0.7-0.42 0-0.76 0.3-0.76 0.7-0.07 2.5 1.92 4.6 4.79 4.6 3.62 0 5.02-2.3 5.02-4.4 0-2-1.65-3.7-5.01-3.7-3.35 0-3.32-2-3.32-2s-0.21-2.9 3.33-2.9c3.55 0 3.27 3.2 3.27 3.2 0 0.4 0.34 0.7 0.75 0.7s0.74-0.3 0.74-0.7c0-4.6-4.41-4.7-4.77-4.7h-0.02" fill="url(#i)"/>
      <path d="m156.24 1292 0.01 8.9c0 0.4 0.35 0.7 0.77 0.7 0.43 0 0.77-0.3 0.77-0.7v-3.9h3.34l2.59 4.2c0.21 0.4 0.69 0.5 1.07 0.3 0.37-0.2 0.5-0.7 0.29-1.1l-2.28-3.7c1.95-0.7 3.35-2.5 3.35-4.7 0-2.7-2.22-5-4.95-5-3.04 0-4.96 2.2-4.96 5m1.54 0c0-2 1.27-3.5 3.4-3.5 1.92 0 3.47 1.6 3.47 3.5s-1.55 3.5-3.47 3.5h-3.39z" fill="url(#j)"/>
      <path d="m183.68 1291.8s0.27-3.2-3.27-3.2-3.33 2.9-3.33 2.9-0.04 2 3.32 2c3.35 0 5 1.7 5 3.7 0 2.1-1.4 4.4-5.01 4.4-2.88 0-4.86-2.1-4.8-4.6 0-0.4 0.34-0.7 0.76-0.7 0.41 0 0.75 0.3 0.75 0.7-0.03 0.7 0.32 3 3.32 3 3.66 0 3.46-2.7 3.46-2.8s0.16-2.2-3.47-2.2-4.82-2-4.82-3.5 0.85-4.4 4.78-4.4c0 0 4.79-0.1 4.79 4.7 0 0.4-0.33 0.7-0.74 0.7s-0.74-0.3-0.74-0.7" fill="#512c80"/>
    </g>
    <path d="m192.44 1255.2c-0.87 0-1.66 0.3-2.23 0.9-0.07 0.1-0.13 0.1-0.2 0.2l-0.18 0.3c-0.06 0.1-0.11 0.1-0.16 0.2s-0.09 0.2-0.13 0.3-0.08 0.2-0.11 0.3-0.06 0.2-0.08 0.3-0.03 0.2-0.04 0.3-0.02 0.2-0.02 0.3v29.9c0.01 2.3 0.6 4.5 1.62 6.3 0.21 0.4 0.43 0.8 0.67 1.2 0.6 0.8 1.3 1.7 2.08 2.4 1.72 1.6 3.86 2.7 6.23 3.2 0.87 0.2 1.76 0.3 2.67 0.4h26.36c0.53 0 1.01-0.2 1.44-0.4h0.04 0.02c0.96-0.6 1.66-1.6 1.66-2.8v-40.2c0-1.3-0.79-2.4-1.93-2.9-0.33-0.1-0.69-0.2-1.07-0.2h-36.61-0.03zm20.47 7.3c1.37 0 2.52 0.5 3.34 1.3 0.79 0.8 1.23 1.9 1.23 3.3v7.9c0 0.4-0.36 0.8-0.81 0.8s-0.82-0.4-0.82-0.8v-3.3h-5.88v3.3c0 0.4-0.36 0.8-0.82 0.8-0.45 0-0.81-0.4-0.81-0.8v-7.9c0-1.4 0.43-2.5 1.25-3.3 0.8-0.8 1.95-1.3 3.32-1.3zm-17.08 0.2c0.65 0 1.22 0.5 1.4 1.1l2.74 9.2 2.74-9.2c0.17-0.6 0.76-1.1 1.4-1.1 0.74 0 1.36 0.6 1.45 1.3l1.36 10.8c0.01 0.1 0.01 0.1 0.01 0.2 0 0.4-0.37 0.8-0.82 0.8-0.43 0-0.78-0.3-0.84-0.7l-1.23-10-2.96 9.9c-0.15 0.4-0.6 0.8-1.11 0.8-0.5 0-0.97-0.4-1.11-0.8l-2.95-9.9-1.26 10c-0.06 0.4-0.39 0.7-0.81 0.7-0.47 0-0.83-0.4-0.83-0.8v-0.2l1.37-10.8c0.08-0.7 0.71-1.3 1.45-1.3zm23.73 0c0.29 0 0.53 0.2 0.68 0.4l3.25 4.6 3.24-4.6c0.17-0.2 0.41-0.4 0.68-0.4 0.47 0 0.83 0.4 0.83 0.9 0 0.1-0.05 0.3-0.14 0.4l-3.6 5.2 3.71 5.3c0.09 0.1 0.15 0.3 0.15 0.5 0 0.4-0.38 0.8-0.83 0.8-0.29 0-0.53-0.2-0.68-0.4l-3.36-4.8-3.35 4.8c-0.15 0.2-0.41 0.4-0.68 0.4-0.47 0-0.83-0.4-0.83-0.8 0-0.2 0.05-0.4 0.15-0.5l3.69-5.3-3.59-5.2c-0.08-0.1-0.14-0.3-0.14-0.4 0-0.5 0.37-0.9 0.82-0.9zm-6.65 1.5c-1.1 0-2.94 0.4-2.94 3v2.9h5.88v-2.9c0-2.6-1.84-3-2.94-3zm-2.22 16c2.67 0 4.84 2.2 4.84 4.9 0 0.8-0.21 1.6-0.56 2.2l-3.77 7h-2.8l2.41-4.4h-0.12c-2.68 0-4.85-2.1-4.85-4.8s2.17-4.9 4.85-4.9zm-0.06 2.3c-1.37 0-2.49 1.1-2.49 2.6 0 1.4 1.12 2.5 2.49 2.5 1.38 0 2.5-1.1 2.5-2.5 0-1.5-1.12-2.6-2.5-2.6z" stroke-width=".40649" fill="url(#a)"/>
  </g>
</svg>
