<svg xmlns="http://www.w3.org/2000/svg" height="211.9" width="600" viewBox="0 0 600.01177 211.90146"><g fill="#fff"><path d="m.024 4.078c0 0-.024 62.5-.024 90.89 0 28.401 23.472 55.1 56.667 55.1 33.19 0 56.631-28.411 56.631-57.19 0-28.771-22.861-56.39-56.661-56.39-33.796 0-48.46 26.681-48.46 26.681v-59.09c0-2.25-1.824-4.08-4.08-4.08-2.252 0-4.076 1.83-4.076 4.08m8.323 88.82c0-26.751 21.565-48.44 48.18-48.44 26.601 0 48.18 21.691 48.18 48.44 0 26.751-21.581 48.44-48.18 48.44-26.616 0-48.18-21.691-48.18-48.44"/><path d="m118.51 93.03c0 31.361 25.431 56.791 56.791 56.791 20.421 0 38.32-10.79 48.34-26.971 1.29-1.93.72-4.57-1.22-5.87-1.95-1.3-4.59-.76-5.89 1.18-8.48 13.87-23.781 23.13-41.23 23.13-26.661 0-48.27-21.601-48.27-48.26 0-26.661 21.611-48.28 48.27-48.28 25.17 0 45.841 19.271 48.07 43.851h-56.22c-2.37 0-4.25 1.92-4.25 4.29 0 2.36 1.92 4.29 4.29 4.29h60.6c3.2 0 4.3-2.25 4.3-4.15 0-31.371-25.421-56.801-56.791-56.801-31.361 0-56.791 25.431-56.791 56.801"/><path d="m248.36 36.17h.03-.03m0 0c-5.5.02-9.67 4.34-9.97 8.26v98.48c.3 3.92 4.47 8.25 9.97 8.26 5.51-.001 9.68-4.34 9.98-8.26v-98.48c-.3-3.92-4.47-8.24-9.98-8.26m-.02 0h.02-.02m.02 115h.03-.03m-.02 0h.02-.02"/><path d="m414.87 36.26h.02-.02m0 0c-5.42.0001-9.51 4.33-9.81 8.19v72.56c0 2.66-1.65 9.21-7.91 12.19-13.48 6.41-20.421-5.9-20.421-5.9l-44.921-70.66c-5.19-9.01-21.2-21.921-42.991-13.81-21 8.62-21.251 30.471-21.251 30.471v73.61c.3 3.92 4.47 7.79 9.98 7.81 5.5-.02 9.72-4.41 9.72-8.94v-70.47c0 0-1-13.9 14.98-15.34 9.33-.54 13.93 9.14 13.93 9.14 0 0 40.891 64.48 45.04 70.902 4.15 6.41 20.931 20.861 42.721 11.99 22.05-8.98 20.741-31.05 20.741-31.05v-72.54c-.3-3.86-4.4-8.14-9.82-8.15m-.02 0h.02-.02m-137.3 114.46h.02-.02m-.02 0h.02-.02"/><path d="m217.25 175.36l.03 33.541c0 1.61 1.31 2.9 2.91 2.9 1.61 0 2.92-1.29 2.92-2.9v-14.76h12.89c10.37 0 18.78-8.42 18.78-18.79 0-10.39-8.41-18.82-18.78-18.82-11.5 0-18.75 8.1-18.75 18.83m5.83-.03c0-7.51 4.81-13.17 12.85-13.17 7.26 0 13.15 5.89 13.15 13.16 0 7.27-5.89 13.1-13.15 13.1h-12.82l-.03-13.09"/><path d="m255.82 184.16c0 15.3 12.45 27.741 27.751 27.741 15.29 0 27.741-12.44 27.741-27.741 0-15.3-12.45-27.751-27.741-27.751-15.3 0-27.751 12.45-27.751 27.751m6.22 0c0-11.87 9.66-21.521 21.531-21.521 11.86 0 21.521 9.65 21.521 21.521 0 11.86-9.66 21.521-21.521 21.521-11.87 0-21.531-9.66-21.531-21.521"/><path d="m353.36 158.5c-1.72 0-3.11 1.34-3.11 2.99 0 1.65 1.39 2.99 3.11 2.99h12.32v43.891c0 1.7 1.33 3.06 2.98 3.06 1.65 0 2.98-1.36 2.98-3.06v-43.891h12.17c1.71 0 3.11-1.34 3.11-2.99 0-1.65-1.4-2.99-3.11-2.99h-30.451"/><path d="m193.42 156.44c-14.91 0-18.12 10.96-18.12 16.6 0 5.64 4.51 13.22 18.25 13.22 13.75 0 13.16 8.17 13.16 8.49 0 .33.75 10.71-13.13 10.67-11.35-.03-12.7-8.72-12.54-11.4 0-1.58-1.29-2.81-2.86-2.81-1.58 0-2.86 1.23-2.86 2.81-.25 9.51 7.25 17.14 18.17 17.14 13.67 0 18.99-8.43 18.99-16.34 0-7.9-6.26-14.33-18.96-14.33-12.71 0-12.58-7.29-12.58-7.29 0 0-.81-11.15 12.61-11.15 13.42 0 12.39 12.14 12.39 12.14 0 1.55 1.27 2.79 2.82 2.79 1.56 0 2.81-1.24 2.81-2.79 0-17.4-16.71-17.75-18.06-17.75h-.09"/><path d="m314.1 175.36l.03 33.541c0 1.61 1.3 2.9 2.91 2.9 1.62 0 2.92-1.29 2.92-2.9v-14.76h12.64l9.82 16.03c.81 1.42 2.61 1.91 4.03 1.1 1.41-.82 1.91-2.62 1.1-4.04l-8.61-14.12c7.38-2.54 12.69-9.53 12.69-17.76 0-10.39-8.41-18.82-18.78-18.82-11.49 0-18.75 8.1-18.75 18.83m5.83-.03c0-7.51 4.81-13.17 12.85-13.17 7.26 0 13.15 5.89 13.15 13.16 0 7.27-5.89 13.1-13.15 13.1h-12.82l-.03-13.09"/><path d="m418.03 174.56c0 0 1.03-12.14-12.39-12.14-13.42 0-12.61 11.15-12.61 11.15 0 0-.14 7.29 12.57 7.29 12.71 0 18.97 6.43 18.97 14.34 0 7.9-5.32 16.33-19 16.33-10.91 0-18.42-7.63-18.17-17.14 0-1.57 1.29-2.81 2.86-2.81 1.58 0 2.86 1.24 2.86 2.81-.15 2.68 1.2 11.37 12.55 11.4 13.87.04 13.13-10.34 13.13-10.66 0-.33.58-8.49-13.16-8.49-13.74 0-18.25-7.59-18.25-13.22 0-5.65 3.21-16.61 18.12-16.61 0 0 18.15-.38 18.15 17.75 0 1.55-1.26 2.79-2.81 2.79-1.56 0-2.82-1.24-2.82-2.79"/><path d="m445.69 36.628c-4.29 0-7.75 3.49-7.75 7.741v72.921c0 0-.022.03-.022.07 0 .04.022.05.022.09v.111c.1 18.01 14.619 32.63 32.58 32.97.03 0 .07.02.09.02h121.67c1.28 0 2.45-.309 3.52-.859.03-.03.071-.03.111-.07-.02.02-.021 0 .049-.051 2.36-1.34 4.051-3.84 4.051-6.76v-98.44c0-3.2-1.951-5.939-4.731-7.119-.92-.4-1.95-.621-3-.621h-47.99-98.58-.02m4.52 25.581h27.03c1.12 0 2.141.12 3.061.34 1.23.19 2.348.711 3.238 1.471 1.26 1 2.38 3.149 2.42 5.299.03 1.64-.409 2.81-1.199 3.86h.02l-9.01 11.51c6.29 3.34 10.561 9.982 10.561 17.612 0 11.02-8.93 19.97-19.96 19.97-10.33 0-18.811-7.839-19.841-17.889h9.94c.96 4.6 5.03 8.05 9.901 8.05 5.59 0 10.12-4.529 10.12-10.129 0-5.55-3.961-9.322-9.991-10.122-2.85 0-5.139-2.319-5.139-5.139 0-1.25.439-2.411 1.19-3.291l9.09-11.581h-19.08l-2.35-9.959m41.12.0001h11.54v60.03h-11.54v-60.03m32.951 0h11.44v60.03h-11.44v-25.341h-16.911v-10.661h16.911v-24.03m20.37.0001h21.411c16.72 0 27.12 11.481 27.12 30 0 18.34-10.65 30.02-27.12 30.02h-5.371v-10.641h5.371c13.61 0 15.69-12.2 15.69-19.45 0-8.84-2.78-19.3-15.69-19.3h-9.961v49.39h-11.45v-60.02"/></g></svg>