<?xml version="1.0" encoding="UTF-8" standalone="no"?>
<svg xmlns="http://www.w3.org/2000/svg" height="211.42" width="600" version="1.1" viewBox="0 0 158.75 55.939">
 <g fill="#fff" transform="translate(-24.191 -1035.6)">
  <g stroke-width=".26417">
   <path d="m24.197 1036.6s-0.006 16.5-0.006 24 6.196 14.6 14.958 14.6c8.764 0 14.95-7.5 14.95-15.1s-6.033-14.9-14.956-14.9-12.793 7-12.793 7v-15.6c0-0.6-0.481-1-1.077-1-0.594 0-1.076 0.4-1.076 1m2.197 23.5c0-7.1 5.693-12.8 12.719-12.8 7.022 0 12.716 5.7 12.716 12.8 0 7-5.694 12.8-12.716 12.8-7.026 0-12.719-5.8-12.719-12.8"/>
   <path d="m55.475 1060.1c0 8.3 6.712 15 14.992 15 5.394 0 10.119-2.8 12.76-7.1 0.343-0.5 0.191-1.2-0.32-1.6-0.514-0.3-1.214-0.2-1.555 0.4-2.241 3.6-6.276 6.1-10.885 6.1-7.04 0-12.744-5.7-12.744-12.8 0-7 5.704-12.7 12.744-12.7 6.649 0 12.104 5.1 12.693 11.6h-14.846c-0.625 0-1.123 0.5-1.123 1.1s0.509 1.1 1.133 1.1h16.003c0.841 0 1.133-0.6 1.133-1.1 0-8.3-6.713-15-14.993-15s-14.992 6.7-14.992 15"/>
   <path d="m89.756 1045.1h0.005zc-1.453 0-2.556 1.2-2.633 2.2v26c0.077 1 1.18 2.2 2.633 2.2 1.454 0 2.554-1.2 2.634-2.2v-26c-0.08-1-1.18-2.2-2.634-2.2m-0.005 0h0.005zm0.005 30.4h0.005-0.005m-0.005 0h0.005-0.005"/>
   <path d="m133.71 1045.1zc-1.43 0-2.51 1.2-2.59 2.2v19.2c0 0.7-0.44 2.4-2.09 3.2-3.56 1.7-5.39-1.6-5.39-1.6l-11.86-18.6c-1.37-2.4-5.6-5.8-11.35-3.7-5.539 2.3-5.608 8.1-5.608 8.1v19.4c0.08 1 1.182 2 2.636 2 1.451 0 2.562-1.1 2.562-2.3v-18.6s-0.262-3.7 3.96-4.1c2.46-0.1 3.68 2.5 3.68 2.5s10.79 17 11.89 18.7c1.09 1.7 5.52 5.5 11.27 3.1 5.82-2.3 5.48-8.2 5.48-8.2v-19.1c-0.08-1-1.16-2.2-2.59-2.2m-0.01 0h0.01zm-36.242 30.2h0.005zm-0.008 0h0.008z"/>
   <path d="m81.543 1081.9 0.008 8.8c0 0.4 0.346 0.8 0.767 0.8 0.426 0 0.772-0.4 0.772-0.8v-3.9h3.4c2.74 0 4.96-2.2 4.96-4.9 0-2.8-2.22-5-4.96-5-3.033 0-4.947 2.1-4.947 5m1.539-0.1c0-1.9 1.268-3.4 3.393-3.4 1.915 0 3.47 1.5 3.47 3.4 0 2-1.555 3.5-3.47 3.5h-3.388z"/>
   <path d="m91.724 1084.2c0 4 3.286 7.3 7.324 7.3 4.042 0 7.322-3.3 7.322-7.3 0-4.1-3.28-7.3-7.322-7.3-4.038 0-7.324 3.2-7.324 7.3m1.644 0c0-3.2 2.548-5.7 5.68-5.7s5.682 2.5 5.682 5.7c0 3.1-2.55 5.7-5.682 5.7s-5.68-2.6-5.68-5.7"/>
   <path d="m117.47 1077.4c-0.45 0-0.82 0.4-0.82 0.8s0.37 0.8 0.82 0.8h3.25v11.6c0 0.4 0.35 0.8 0.79 0.8 0.43 0 0.79-0.4 0.79-0.8v-11.6h3.21c0.45 0 0.82-0.4 0.82-0.8s-0.37-0.8-0.82-0.8z"/>
   <path d="m75.251 1076.9c-3.934 0-4.784 2.9-4.784 4.3 0 1.5 1.193 3.5 4.818 3.5 3.628 0 3.475 2.2 3.475 2.3s0.196 2.8-3.465 2.8c-2.997 0-3.353-2.3-3.315-3 0-0.4-0.338-0.8-0.751-0.8-0.418 0-0.756 0.4-0.756 0.8-0.065 2.5 1.915 4.5 4.794 4.5 3.612 0 5.016-2.2 5.016-4.3s-1.652-3.8-5.006-3.8c-3.353 0-3.32-1.9-3.32-1.9s-0.214-3 3.328-3c3.545 0 3.271 3.2 3.271 3.2 0 0.5 0.336 0.8 0.746 0.8 0.408 0 0.741-0.3 0.741-0.8 0-4.5-4.409-4.6-4.768-4.6h-0.024"/>
   <path d="m107.11 1081.9 0.01 8.8c0 0.4 0.34 0.8 0.77 0.8 0.42 0 0.77-0.4 0.77-0.8v-3.9h3.33l2.6 4.2c0.21 0.4 0.69 0.5 1.06 0.3s0.5-0.7 0.29-1l-2.27-3.8c1.94-0.6 3.35-2.5 3.35-4.6 0-2.8-2.22-5-4.96-5-3.04 0-4.95 2.1-4.95 5m1.54-0.1c0-1.9 1.27-3.4 3.39-3.4 1.92 0 3.47 1.5 3.47 3.4 0 2-1.55 3.5-3.47 3.5h-3.38z"/>
   <path d="m134.54 1081.6s0.27-3.2-3.27-3.2-3.33 3-3.33 3-0.03 1.9 3.32 1.9c3.36 0 5.01 1.7 5.01 3.8s-1.4 4.3-5.02 4.3c-2.88 0-4.86-2-4.79-4.5 0-0.4 0.34-0.8 0.75-0.8 0.42 0 0.76 0.4 0.76 0.8-0.04 0.7 0.31 3 3.31 3 3.66 0 3.47-2.7 3.47-2.8s0.15-2.3-3.48-2.3-4.82-2-4.82-3.5 0.85-4.3 4.79-4.3c0 0 4.79-0.1 4.79 4.6 0 0.5-0.33 0.8-0.75 0.8-0.4 0-0.74-0.3-0.74-0.8"/>
  </g>
  <path stroke-width=".40649" d="m143.3 1045c-0.87 0-1.65 0.4-2.22 0.9l-0.21 0.3c-0.06 0.1-0.12 0.1-0.18 0.2s-0.11 0.2-0.16 0.3-0.09 0.2-0.13 0.3c-0.04 0-0.07 0.1-0.11 0.2-0.03 0.1-0.05 0.2-0.07 0.3s-0.04 0.3-0.05 0.4-0.02 0.2-0.02 0.3v29.8c0.02 2.3 0.61 4.5 1.63 6.4 0.2 0.4 0.43 0.7 0.66 1.1 0.6 0.9 1.3 1.7 2.08 2.4 1.73 1.6 3.86 2.8 6.23 3.3 0.87 0.2 1.76 0.3 2.67 0.3h26.37c0.52 0 1-0.1 1.43-0.3 0.02-0.1 0.03-0.1 0.05-0.1h0.02c0.96-0.5 1.65-1.6 1.65-2.7v-40.2c0-1.3-0.79-2.4-1.93-2.9-0.33-0.2-0.69-0.3-1.07-0.3h-36.61-0.03zm20.47 7.4c1.38 0 2.52 0.4 3.34 1.2 0.79 0.8 1.23 2 1.23 3.4v7.8c0 0.5-0.36 0.8-0.81 0.8s-0.82-0.3-0.82-0.8v-3.3h-5.88v3.3c0 0.5-0.36 0.8-0.82 0.8-0.45 0-0.81-0.3-0.81-0.8v-7.8c0-1.4 0.44-2.6 1.25-3.4 0.8-0.8 1.95-1.2 3.32-1.2zm-17.08 0.2c0.65 0 1.22 0.4 1.4 1.1l2.74 9.2 2.74-9.2c0.17-0.7 0.76-1.1 1.41-1.1 0.73 0 1.35 0.6 1.44 1.3l1.36 10.8c0.01 0 0.01 0.1 0.01 0.1 0 0.5-0.37 0.8-0.82 0.8-0.42 0-0.77-0.3-0.83-0.7l-1.24-9.9-2.96 9.8c-0.15 0.5-0.6 0.8-1.11 0.8-0.5 0-0.97-0.3-1.11-0.8l-2.95-9.8-1.26 9.9c-0.06 0.4-0.39 0.7-0.81 0.7-0.47 0-0.83-0.3-0.83-0.8v-0.1l1.37-10.8c0.08-0.7 0.71-1.3 1.45-1.3zm23.73 0c0.29 0 0.53 0.1 0.68 0.3l3.25 4.7 3.24-4.7c0.17-0.2 0.41-0.3 0.68-0.3 0.47 0 0.83 0.4 0.83 0.8 0 0.2-0.05 0.4-0.14 0.5l-3.6 5.1 3.71 5.3c0.09 0.2 0.15 0.3 0.15 0.5 0 0.5-0.37 0.8-0.83 0.8-0.29 0-0.52-0.1-0.68-0.3l-3.36-4.8-3.35 4.8c-0.15 0.2-0.41 0.3-0.68 0.3-0.47 0-0.83-0.3-0.83-0.8 0-0.2 0.04-0.3 0.15-0.5l3.7-5.3-3.59-5.1c-0.09-0.1-0.15-0.3-0.15-0.5 0-0.4 0.37-0.8 0.82-0.8zm-6.65 1.5c-1.1 0-2.94 0.4-2.94 2.9v3h5.88v-3c0-2.5-1.84-2.9-2.94-2.9zm-4.01 16h2.72c1.14 0 1.85 0.8 1.85 2.2v11.8h-2.47v-11.4h-3.09z"/>
 </g>
</svg>
