<?xml version="1.0" encoding="UTF-8" standalone="no"?>
<svg xmlns="http://www.w3.org/2000/svg" height="211.74" width="600" version="1.1" viewBox="0 0 562.52236 198.50425">
 <g fill="#fff">
  <g stroke-width=".93752">
   <path d="m0.022465 3.8114s-0.022465 58.55-0.022465 85.157c0 26.602 21.989 51.612 53.083 51.612 31.101 0 53.057-26.61 53.057-53.572 0-26.963-21.412-52.83-53.077-52.83s-45.4 24.986-45.4 24.986l0.0005-55.353c0-2.1093-1.7092-3.8156-3.8224-3.8156-2.1095-0.0000658-3.8186 1.7063-3.8186 3.8157m7.7975 83.206c0-25.06 20.203-45.377 45.136-45.377 24.918 0 45.128 20.317 45.128 45.377 0 25.073-20.21 45.383-45.128 45.383-24.933 0-45.136-20.31-45.136-45.383"/>
   <path d="m111.02 87.14c0 29.38 23.82 53.2 53.21 53.2 19.13 0 35.9-10.1 45.28-25.25 1.22-1.82 0.67-4.29-1.15-5.51-1.81-1.21-4.3-0.72-5.51 1.1-7.95 13.01-22.27 21.68-38.62 21.68-24.99 0-45.23-20.24-45.23-45.22 0-24.976 20.24-45.227 45.23-45.227 23.58 0 42.94 18.048 45.03 41.083h-52.67c-2.23 0-3.99 1.8-3.99 4.012 0 2.222 1.8 4.022 4.02 4.022h56.79c2.99 0 4.02-2.109 4.02-3.89 0-29.382-23.82-53.206-53.2-53.206-29.39 0-53.21 23.824-53.21 53.206"/>
   <path d="m232.67 33.878h0.02zc-5.15 0.009-9.06 4.069-9.34 7.735v92.267c0.28 3.67 4.19 7.73 9.34 7.74 5.16-0.01 9.07-4.07 9.35-7.74v-92.267c-0.28-3.666-4.19-7.726-9.35-7.735m-0.01 0h0.01zm0.01 107.74h0.02-0.02m-0.01 0h0.01-0.01"/>
   <path d="m388.65 33.962h0.02zc-5.08 0-8.91 4.06-9.19 7.669v67.979c0 2.49-1.54 8.63-7.41 11.42-12.63 6.01-19.13-5.53-19.13-5.53l-42.08-66.189c-4.86-8.448-19.86-20.533-40.27-12.949-19.67 8.082-19.91 28.549-19.91 28.549v68.969c0.28 3.67 4.19 7.3 9.34 7.31 5.16-0.01 9.12-4.14 9.12-8.38v-66.015s-0.95-13.022 14.02-14.362c8.75-0.516 13.06 8.559 13.06 8.559s38.3 60.408 42.19 66.418c3.88 6.01 19.6 19.54 40.02 11.23 20.66-8.41 19.43-29.09 19.43-29.09l0.01-67.956c-0.28-3.61-4.13-7.632-9.2-7.632m-0.02 0h0.02zm-128.63 107.23h0.02zm-0.02 0h0.02z"/>
   <path d="m203.53 164.27 0.02 31.43c0 1.5 1.23 2.72 2.73 2.72 1.51 0 2.74-1.22 2.74-2.72v-13.83h12.07c9.72 0 17.59-7.89 17.59-17.61 0-9.73-7.87-17.62-17.59-17.62-10.77 0-17.56 7.58-17.56 17.63m5.46-0.02c0-7.04 4.5-12.35 12.04-12.35 6.8 0 12.32 5.53 12.32 12.33 0 6.81-5.52 12.28-12.32 12.28h-12.02z"/>
   <path d="m239.66 172.52c0 14.33 11.66 25.99 25.99 25.99s25.99-11.66 25.99-25.99-11.66-26-25.99-26-25.99 11.67-25.99 26m5.83 0c0-11.13 9.05-20.17 20.16-20.17 11.12 0 20.16 9.04 20.16 20.17 0 11.11-9.04 20.16-20.16 20.16-11.11 0-20.16-9.05-20.16-20.16"/>
   <path d="m331.03 148.48c-1.61 0-2.92 1.26-2.92 2.81 0 1.53 1.31 2.79 2.92 2.79h11.54v41.12c0 1.58 1.25 2.87 2.79 2.87s2.8-1.29 2.8-2.87v-41.12h11.39c1.61 0 2.91-1.26 2.91-2.79 0-1.55-1.3-2.81-2.91-2.81z"/>
   <path d="m181.2 146.55c-13.96 0-16.97 10.27-16.97 15.55s4.22 12.39 17.1 12.39c12.87 0 12.32 7.65 12.32 7.95s0.7 10.03-12.3 9.99c-10.63-0.02-11.89-8.17-11.75-10.67 0-1.49-1.2-2.64-2.67-2.64-1.49 0-2.69 1.15-2.69 2.64-0.23 8.9 6.8 16.05 17.02 16.05 12.82 0 17.8-7.9 17.8-15.3 0-7.41-5.86-13.43-17.76-13.43-11.91 0-11.79-6.83-11.79-6.83s-0.76-10.45 11.82-10.45c12.57 0 11.6 11.37 11.6 11.37 0 1.46 1.19 2.62 2.65 2.62 1.45 0 2.63-1.16 2.63-2.62 0-16.29-15.66-16.62-16.92-16.62h-0.09"/>
   <path d="m294.25 164.27 0.03 31.43c0 1.5 1.23 2.72 2.74 2.72s2.72-1.22 2.72-2.72v-13.83h11.85l9.2 15.02c0.75 1.32 2.45 1.79 3.77 1.03 1.33-0.77 1.79-2.46 1.03-3.79l-8.06-13.23c6.91-2.38 11.89-8.92 11.89-16.64 0-9.73-7.88-17.62-17.6-17.62-10.76 0-17.57 7.58-17.57 17.63m5.47-0.02c0-7.04 4.51-12.35 12.03-12.35 6.81 0 12.32 5.53 12.32 12.33 0 6.81-5.51 12.28-12.32 12.28h-12.01z"/>
   <path d="m391.6 163.52s0.97-11.36-11.59-11.36c-12.58 0-11.82 10.44-11.82 10.44s-0.13 6.83 11.78 6.83 17.76 6.02 17.76 13.42c0 7.41-4.97 15.31-17.79 15.31-10.23 0-17.26-7.15-17.03-16.06 0-1.47 1.21-2.63 2.69-2.63 1.47 0 2.68 1.16 2.68 2.63-0.14 2.51 1.11 10.65 11.75 10.69 13 0.03 12.3-9.69 12.3-10 0-0.3 0.55-7.95-12.32-7.95-12.89 0-17.1-7.1-17.1-12.39s3.01-15.55 16.96-15.55c0 0 17.01-0.36 17.01 16.62 0 1.46-1.17 2.62-2.63 2.62s-2.65-1.16-2.65-2.62"/>
  </g>
  <path stroke-width=".93752" d="m417.54 34.056c-4.01 0-7.26 3.281-7.26 7.294v68.87c0.11 16.97 13.72 30.72 30.61 31.04h114.36c1.2 0 2.31-0.28 3.31-0.79 0.04-0.02 0.05-0.03 0.1-0.05-0.02 0-0.02-0.02 0.05-0.07 2.21-1.24 3.81-3.61 3.81-6.35v-92.65c0-3.01-1.83-5.605-4.44-6.702-0.88-0.385-1.83-0.592-2.85-0.592l-45.06 0.019h-92.57c-0.02 0-0.04-0.019-0.06-0.019zm42.91 24.085h10.83v56.509h-10.83zm30.94 0h10.74v56.509h-10.74v-23.858h-15.88v-10.022h15.88zm19.13 0h20.11c15.7 0 25.48 10.83 25.48 28.251 0 17.258-10.01 28.258-25.48 28.258h-5.05v-10.02h5.05c12.78 0 14.72-11.48 14.72-18.315 0-8.311-2.59-18.157-14.72-18.157h-9.35v46.492h-10.76zm-72.46 0.059c10.16 0 18.12 7.854 18.12 17.881 0 9.192-5.21 13.989-12.57 19.767l-12.37 9.652h24.71v8.94h-30.24c-5.17 0-8.26-2.53-8.26-6.75 0-3.2 1.65-4.52 4.67-6.91l0.54-0.42 18.65-14.631c1.59-1.264 5.32-4.737 5.32-9.566 0-5.238-3.92-9.031-9.31-9.031-5.96 0-9.65 3.861-9.65 10.084 0 3.948 2.88 6.932 6.26 8.227l-8.03 5.774c-5.04-3.233-7.77-8.421-7.77-14.986 0-11.721 10.28-18.031 19.93-18.031z"/>
 </g>
</svg>
