<?xml version="1.0" encoding="UTF-8" standalone="no"?>
<svg xmlns="http://www.w3.org/2000/svg" height="211.42" width="600" version="1.1" viewBox="0 0 158.75 55.939">
  <defs>
    <linearGradient id="a" gradientUnits="userSpaceOnUse" gradientTransform="matrix(64.265 -37.105 37.105 64.265 475.94 1684.6)" x1="0" x2="1" y1="0" y2="0">
      <stop stop-color="#572381" offset="0"/>
      <stop stop-color="#111211" offset="1"/>
    </linearGradient>
    <linearGradient id="b" gradientUnits="userSpaceOnUse" gradientTransform="matrix(32.789 -25.119 25.119 32.789 386.76 1639.6)" x1="0" x2="1" y1="0" y2="0">
      <stop stop-color="#190031" offset="0"/>
      <stop stop-color="#190031" offset=".0060577"/>
      <stop stop-color="#5c2d91" offset="1"/>
    </linearGradient>
    <linearGradient id="c" gradientUnits="userSpaceOnUse" gradientTransform="matrix(32.789 -25.119 25.119 32.789 402.35 1660)" x1="0" x2="1" y1="0" y2="0">
      <stop stop-color="#190031" offset="0"/>
      <stop stop-color="#190031" offset=".0060577"/>
      <stop stop-color="#5c2d91" offset="1"/>
    </linearGradient>
    <linearGradient id="d" gradientUnits="userSpaceOnUse" gradientTransform="matrix(32.789 -25.119 25.119 32.789 409.56 1669.4)" x1="0" x2="1" y1="0" y2="0">
      <stop stop-color="#190031" offset="0"/>
      <stop stop-color="#190031" offset=".0060577"/>
      <stop stop-color="#5c2d91" offset="1"/>
    </linearGradient>
    <linearGradient id="e" gradientUnits="userSpaceOnUse" gradientTransform="matrix(32.789 -25.119 25.119 32.789 419.1 1681.8)" x1="0" x2="1" y1="0" y2="0">
      <stop stop-color="#190031" offset="0"/>
      <stop stop-color="#190031" offset=".0060577"/>
      <stop stop-color="#5c2d91" offset="1"/>
    </linearGradient>
    <linearGradient id="f" gradientUnits="userSpaceOnUse" gradientTransform="matrix(32.789 -25.119 25.119 32.789 412.63 1686.2)" x1="0" x2="1" y1="0" y2="0">
      <stop stop-color="#190031" offset="0"/>
      <stop stop-color="#190031" offset=".0060577"/>
      <stop stop-color="#5c2d91" offset="1"/>
    </linearGradient>
    <linearGradient id="g" gradientUnits="userSpaceOnUse" gradientTransform="matrix(32.789 -25.119 25.119 32.789 418.33 1693.7)" x1="0" x2="1" y1="0" y2="0">
      <stop stop-color="#190031" offset="0"/>
      <stop stop-color="#190031" offset=".0060577"/>
      <stop stop-color="#5c2d91" offset="1"/>
    </linearGradient>
    <linearGradient id="h" gradientUnits="userSpaceOnUse" gradientTransform="matrix(32.789 -25.118 25.118 32.789 425.99 1703.7)" x1="0" x2="1" y1="0" y2="0">
      <stop stop-color="#190031" offset="0"/>
      <stop stop-color="#190031" offset=".0060577"/>
      <stop stop-color="#5c2d91" offset="1"/>
    </linearGradient>
    <linearGradient id="i" gradientUnits="userSpaceOnUse" gradientTransform="matrix(32.789 -25.119 25.119 32.789 409.52 1682.2)" x1="0" x2="1" y1="0" y2="0">
      <stop stop-color="#190031" offset="0"/>
      <stop stop-color="#190031" offset=".0060577"/>
      <stop stop-color="#5c2d91" offset="1"/>
    </linearGradient>
    <linearGradient id="j" gradientUnits="userSpaceOnUse" gradientTransform="matrix(32.789 -25.119 25.119 32.789 423.44 1700.3)" x1="0" x2="1" y1="0" y2="0">
      <stop stop-color="#190031" offset="0"/>
      <stop stop-color="#190031" offset=".0060577"/>
      <stop stop-color="#5c2d91" offset="1"/>
    </linearGradient>
  </defs>
  <g transform="translate(-357.57 -1634.3)">
    <g stroke-width=".26417">
      <path d="m357.57 1635.3v24c0 7.5 6.19 14.6 14.95 14.6 8.77 0 14.95-7.5 14.95-15.1s-6.03-14.9-14.95-14.9-12.79 7-12.79 7v-15.6c0-0.5-0.49-1-1.08-1-0.6 0-1.08 0.5-1.08 1m2.2 23.5c0-7.1 5.69-12.8 12.72-12.8 7.02 0 12.71 5.7 12.71 12.8s-5.69 12.8-12.71 12.8c-7.03 0-12.72-5.7-12.72-12.8" fill="url(#b)"/>
      <path d="m388.85 1658.8c0 8.3 6.71 15 14.99 15 5.4 0 10.12-2.8 12.76-7.1 0.35-0.5 0.19-1.2-0.32-1.5-0.51-0.4-1.21-0.2-1.55 0.3-2.24 3.6-6.28 6.1-10.89 6.1-7.04 0-12.74-5.7-12.74-12.8 0-7 5.7-12.7 12.74-12.7 6.65 0 12.11 5.1 12.69 11.6h-14.84c-0.63 0-1.12 0.5-1.12 1.1s0.5 1.1 1.13 1.1h16c0.84 0 1.14-0.6 1.14-1.1 0-8.3-6.72-15-15-15s-14.99 6.7-14.99 15" fill="url(#c)"/>
      <path d="m423.13 1643.8h0.01zc-1.45 0-2.55 1.2-2.63 2.2v26c0.08 1 1.18 2.2 2.63 2.2s2.55-1.2 2.63-2.2v-26c-0.08-1-1.18-2.2-2.63-2.2zm0 30.4h0.01-0.01" fill="url(#d)"/>
      <path d="m467.08 1643.8h0.01zc-1.43 0-2.51 1.2-2.59 2.2v19.2c0 0.7-0.43 2.4-2.09 3.2-3.55 1.7-5.38-1.6-5.38-1.6l-11.86-18.6c-1.37-2.4-5.6-5.8-11.35-3.7-5.54 2.3-5.61 8.1-5.61 8.1v19.4c0.08 1 1.18 2.1 2.63 2.1s2.57-1.2 2.57-2.4v-18.6s-0.27-3.7 3.95-4.1c2.47-0.1 3.68 2.5 3.68 2.5s10.79 17 11.89 18.7c1.09 1.7 5.52 5.5 11.28 3.1 5.82-2.3 5.47-8.2 5.47-8.2v-19.1c-0.07-1-1.16-2.2-2.59-2.2zm-36.25 30.3h0.01zm-0.01 0h0.01z" fill="url(#e)"/>
      <path d="m414.92 1680.6 0.01 8.8c0 0.4 0.34 0.8 0.76 0.8 0.43 0 0.77-0.4 0.77-0.8v-3.9h3.41c2.73 0 4.95-2.2 4.95-4.9 0-2.8-2.22-5-4.95-5-3.04 0-4.95 2.1-4.95 5m1.54 0c0-2 1.26-3.5 3.39-3.5 1.92 0 3.47 1.5 3.47 3.5 0 1.9-1.55 3.4-3.47 3.4h-3.39z" fill="url(#f)"/>
      <path d="m425.1 1682.9c0 4 3.29 7.3 7.32 7.3 4.04 0 7.33-3.3 7.33-7.3 0-4.1-3.29-7.3-7.33-7.3-4.03 0-7.32 3.2-7.32 7.3m1.64 0c0-3.1 2.55-5.7 5.68-5.7s5.69 2.6 5.69 5.7-2.56 5.7-5.69 5.7-5.68-2.6-5.68-5.7" fill="url(#g)"/>
      <path d="m450.85 1676.1c-0.46 0-0.83 0.4-0.83 0.8s0.37 0.8 0.83 0.8h3.25v11.6c0 0.4 0.35 0.8 0.79 0.8 0.43 0 0.78-0.4 0.78-0.8v-11.6h3.21c0.46 0 0.83-0.4 0.83-0.8s-0.37-0.8-0.83-0.8z" fill="url(#h)"/>
      <path d="m408.63 1675.6c-3.94 0-4.79 2.9-4.79 4.4 0 1.4 1.2 3.4 4.82 3.4 3.63 0 3.48 2.2 3.48 2.3s0.19 2.8-3.47 2.8c-3 0-3.35-2.3-3.31-3 0-0.4-0.34-0.8-0.76-0.8-0.41 0-0.75 0.4-0.75 0.8-0.07 2.5 1.91 4.5 4.79 4.5 3.61 0 5.02-2.2 5.02-4.3s-1.65-3.8-5.01-3.8c-3.35 0-3.32-1.9-3.32-1.9s-0.21-3 3.33-3 3.27 3.3 3.27 3.3c0 0.4 0.34 0.7 0.75 0.7s0.74-0.3 0.74-0.7c0-4.6-4.41-4.7-4.77-4.7h-0.02" fill="url(#i)"/>
      <path d="m440.48 1680.6 0.01 8.8c0 0.4 0.35 0.8 0.77 0.8 0.43 0 0.77-0.4 0.77-0.8v-3.9h3.34l2.59 4.3c0.21 0.3 0.69 0.5 1.06 0.2 0.38-0.2 0.51-0.6 0.29-1l-2.27-3.8c1.95-0.6 3.35-2.5 3.35-4.6 0-2.8-2.22-5-4.96-5-3.03 0-4.95 2.1-4.95 5m1.54 0c0-2 1.27-3.5 3.39-3.5 1.92 0 3.47 1.5 3.47 3.5 0 1.9-1.55 3.4-3.47 3.4h-3.38z" fill="url(#j)"/>
      <path d="m467.92 1680.4s0.27-3.3-3.27-3.3c-3.55 0-3.33 3-3.33 3s-0.04 1.9 3.32 1.9c3.35 0 5 1.7 5 3.8s-1.4 4.3-5.01 4.3c-2.89 0-4.87-2-4.8-4.5 0-0.4 0.34-0.8 0.76-0.8 0.41 0 0.75 0.4 0.75 0.8-0.04 0.7 0.32 3 3.31 3 3.67 0 3.47-2.7 3.47-2.8s0.15-2.3-3.47-2.3c-3.63 0-4.82-2-4.82-3.4 0-1.5 0.85-4.4 4.78-4.4 0 0 4.79-0.1 4.79 4.7 0 0.4-0.33 0.7-0.74 0.7s-0.74-0.3-0.74-0.7" fill="#512c80"/>
    </g>
    <path d="m476.68 1643.7c-0.87 0-1.66 0.4-2.23 1-0.07 0-0.14 0.1-0.2 0.2-0.07 0.1-0.13 0.1-0.18 0.2-0.06 0.1-0.11 0.2-0.16 0.3s-0.09 0.2-0.13 0.3-0.08 0.2-0.11 0.3-0.06 0.2-0.08 0.3-0.03 0.2-0.04 0.3c-0.02 0.1-0.02 0.2-0.02 0.3v29.9c0.01 2.3 0.6 4.4 1.62 6.3 0.21 0.4 0.43 0.8 0.67 1.1 0.6 0.9 1.29 1.7 2.08 2.4 1.72 1.6 3.86 2.8 6.23 3.3 0.86 0.2 1.75 0.3 2.67 0.3h26.36c0.52 0 1.01-0.1 1.44-0.3 0.02 0 0.02 0 0.04-0.1h0.02c0.96-0.5 1.66-1.5 1.66-2.7v-40.2c0-1.3-0.79-2.4-1.93-2.9-0.33-0.2-0.69-0.2-1.07-0.3h-36.62-0.02zm20.47 7.4c1.37 0 2.52 0.4 3.33 1.2 0.8 0.8 1.24 2 1.24 3.4v7.8c0 0.5-0.36 0.8-0.82 0.8-0.45 0-0.81-0.3-0.81-0.8v-3.3h-5.88v3.3c0 0.5-0.37 0.8-0.82 0.8s-0.81-0.3-0.81-0.8v-7.8c0-1.4 0.43-2.6 1.25-3.4 0.8-0.8 1.95-1.2 3.32-1.2zm-17.08 0.2c0.65 0 1.22 0.4 1.4 1.1l2.73 9.2 2.75-9.2c0.17-0.7 0.75-1.1 1.4-1.1 0.74 0 1.36 0.6 1.45 1.3l1.36 10.8c0.01 0 0.01 0.1 0.01 0.1 0 0.5-0.38 0.8-0.83 0.8-0.42 0-0.76-0.3-0.83-0.7l-1.24-9.9-2.95 9.8c-0.15 0.5-0.61 0.8-1.12 0.8-0.5 0-0.96-0.3-1.1-0.8l-2.96-9.8-1.25 9.9c-0.06 0.4-0.39 0.7-0.81 0.7-0.47 0-0.83-0.3-0.83-0.8v-0.1l1.37-10.8c0.07-0.7 0.71-1.3 1.45-1.3zm23.73 0c0.29 0 0.53 0.1 0.68 0.4l3.25 4.6 3.24-4.6c0.16-0.3 0.41-0.4 0.68-0.4 0.47 0 0.83 0.4 0.83 0.8 0 0.2-0.05 0.4-0.14 0.5l-3.6 5.1 3.71 5.3c0.09 0.2 0.15 0.3 0.15 0.5 0 0.5-0.38 0.8-0.83 0.8-0.29 0-0.53-0.1-0.68-0.3l-3.36-4.8-3.35 4.8c-0.15 0.2-0.41 0.3-0.68 0.3-0.47 0-0.83-0.3-0.83-0.8 0-0.2 0.04-0.3 0.15-0.5l3.69-5.3-3.59-5.1c-0.09-0.1-0.15-0.3-0.15-0.5 0-0.4 0.38-0.8 0.83-0.8zm-6.65 1.5c-1.1 0-2.94 0.4-2.94 2.9v3h5.88v-3c0-2.5-1.84-2.9-2.94-2.9zm1.42 16c2.55 0 4.62 2.1 4.62 4.6v4.8c0 2.6-2.07 4.6-4.62 4.6s-4.62-2-4.62-4.6v-4.8c0-2.5 2.07-4.6 4.62-4.6zm-10.99 0.3h2.68c1.11 0 1.79 0.9 1.79 2.3v11.1h-2.4v-10.9h-3zm10.99 2c-1.27 0-2.31 1-2.31 2.3v4.8c0 1.3 1.04 2.3 2.31 2.3s2.3-1 2.3-2.3v-4.8c0-1.3-1.03-2.3-2.3-2.3z" stroke-width=".40649" fill="url(#a)"/>
  </g>
</svg>
