<?xml version="1.0" encoding="UTF-8" standalone="no"?>
<svg xmlns="http://www.w3.org/2000/svg" xmlns:xlink="http://www.w3.org/1999/xlink" height="230.7" width="600" version="1.1" viewBox="0 0 158.75 61.038754">
  <defs>
    <linearGradient id="j" gradientUnits="userSpaceOnUse" gradientTransform="matrix(45.562 -26.307 26.307 45.562 222.8 174.43)" x1="0" x2="1" y1="0" y2="0">
      <stop stop-color="#572381" offset="0"/>
      <stop stop-color="#111211" offset="1"/>
    </linearGradient>
    <linearGradient id="i" gradientUnits="userSpaceOnUse" gradientTransform="matrix(35.781 -27.408 27.408 35.781 127.11 140.78)" x1="0" x2="1" y1="0" y2="0">
      <stop stop-color="#190031" offset="0"/>
      <stop stop-color="#190031" offset=".0060577"/>
      <stop stop-color="#5c2d91" offset="1"/>
    </linearGradient>
    <linearGradient id="h" gradientUnits="userSpaceOnUse" gradientTransform="matrix(35.781 -27.408 27.408 35.781 144.11 162.99)" x1="0" x2="1" y1="0" y2="0">
      <stop stop-color="#190031" offset="0"/>
      <stop stop-color="#190031" offset=".0060577"/>
      <stop stop-color="#5c2d91" offset="1"/>
    </linearGradient>
    <linearGradient id="g" gradientUnits="userSpaceOnUse" gradientTransform="matrix(35.781 -27.409 27.409 35.781 151.99 173.26)" x1="0" x2="1" y1="0" y2="0">
      <stop stop-color="#190031" offset="0"/>
      <stop stop-color="#190031" offset=".0060577"/>
      <stop stop-color="#5c2d91" offset="1"/>
    </linearGradient>
    <linearGradient id="f" gradientUnits="userSpaceOnUse" gradientTransform="matrix(35.781 -27.408 27.408 35.781 162.4 186.85)" x1="0" x2="1" y1="0" y2="0">
      <stop stop-color="#190031" offset="0"/>
      <stop stop-color="#190031" offset=".0060577"/>
      <stop stop-color="#5c2d91" offset="1"/>
    </linearGradient>
    <linearGradient id="e" gradientUnits="userSpaceOnUse" gradientTransform="matrix(35.781 -27.408 27.408 35.781 155.33 191.64)" x1="0" x2="1" y1="0" y2="0">
      <stop stop-color="#190031" offset="0"/>
      <stop stop-color="#190031" offset=".0060577"/>
      <stop stop-color="#5c2d91" offset="1"/>
    </linearGradient>
    <linearGradient id="d" gradientUnits="userSpaceOnUse" gradientTransform="matrix(35.781 -27.408 27.408 35.781 161.56 199.77)" x1="0" x2="1" y1="0" y2="0">
      <stop stop-color="#190031" offset="0"/>
      <stop stop-color="#190031" offset=".0060577"/>
      <stop stop-color="#5c2d91" offset="1"/>
    </linearGradient>
    <linearGradient id="c" gradientUnits="userSpaceOnUse" gradientTransform="matrix(35.781 -27.408 27.408 35.781 169.91 210.68)" x1="0" x2="1" y1="0" y2="0">
      <stop stop-color="#190031" offset="0"/>
      <stop stop-color="#190031" offset=".0060577"/>
      <stop stop-color="#5c2d91" offset="1"/>
    </linearGradient>
    <linearGradient id="b" gradientUnits="userSpaceOnUse" gradientTransform="matrix(35.781 -27.408 27.408 35.781 151.95 187.22)" x1="0" x2="1" y1="0" y2="0">
      <stop stop-color="#190031" offset="0"/>
      <stop stop-color="#190031" offset=".0060577"/>
      <stop stop-color="#5c2d91" offset="1"/>
    </linearGradient>
    <linearGradient id="a" gradientUnits="userSpaceOnUse" gradientTransform="matrix(35.781 -27.408 27.408 35.781 167.13 207.04)" x1="0" x2="1" y1="0" y2="0">
      <stop stop-color="#190031" offset="0"/>
      <stop stop-color="#190031" offset=".0060577"/>
      <stop stop-color="#5c2d91" offset="1"/>
    </linearGradient>
  </defs>
  <g transform="translate(-95.25 -134.94)">
    <g stroke-width=".28827">
      <path fill="url(#i)" d="m95.257 136.12s-0.007 18-0.007 26.18 6.76 15.87 16.32 15.87 16.32-8.18 16.32-16.47-6.59-16.24-16.32-16.24c-9.74 0-13.964 7.68-13.964 7.68v-17.02c0-0.65-0.525-1.18-1.175-1.18-0.649 0-1.174 0.53-1.174 1.18m2.397 25.58c0-7.7 6.216-13.95 13.876-13.95s13.88 6.25 13.88 13.95c0 7.71-6.22 13.96-13.88 13.96s-13.876-6.25-13.876-13.96"/>
      <path fill="url(#h)" d="m129.39 161.74c0 9.03 7.32 16.36 16.36 16.36 5.88 0 11.04-3.11 13.92-7.77 0.37-0.56 0.21-1.32-0.35-1.69s-1.33-0.22-1.7 0.34c-2.44 4-6.85 6.66-11.87 6.66-7.69 0-13.91-6.22-13.91-13.9s6.22-13.91 13.91-13.91c7.25 0 13.2 5.55 13.84 12.64h-16.2c-0.68 0-1.22 0.55-1.22 1.23s0.55 1.24 1.24 1.24h17.46c0.92 0 1.23-0.65 1.23-1.2 0-9.03-7.32-16.36-16.35-16.36-9.04 0-16.36 7.33-16.36 16.36"/>
      <path fill="url(#g)" d="m166.79 145.36h0.01zc-1.58 0.01-2.78 1.25-2.87 2.38v28.37c0.09 1.13 1.29 2.38 2.87 2.38 1.59 0 2.79-1.25 2.88-2.38v-28.37c-0.09-1.13-1.29-2.37-2.88-2.38zm0 33.13h0.01-0.01"/>
      <path fill="url(#f)" d="m214.75 145.39h0.01zc-1.56 0-2.74 1.25-2.82 2.36v20.9c0 0.76-0.48 2.65-2.28 3.51-3.89 1.85-5.88-1.7-5.88-1.7l-12.95-20.35c-1.49-2.6-6.1-6.32-12.38-3.98-6.04 2.48-6.12 8.77-6.12 8.77v21.21c0.09 1.13 1.29 2.25 2.87 2.25 1.59 0 2.81-1.27 2.81-2.58v-20.3s-0.29-4 4.31-4.41c2.69-0.16 4.02 2.63 4.02 2.63s11.77 18.57 12.97 20.42c1.19 1.85 6.02 6.01 12.3 3.45 6.35-2.58 5.98-8.94 5.98-8.94v-20.89c-0.09-1.11-1.27-2.35-2.83-2.35zm-39.56 32.97h0.01z"/>
      <path fill="url(#e)" d="m157.83 185.46 0.01 9.66c0 0.46 0.38 0.83 0.84 0.83s0.84-0.37 0.84-0.83v-4.25h3.71c2.99 0 5.41-2.43 5.41-5.42s-2.42-5.42-5.41-5.42c-3.31 0-5.4 2.34-5.4 5.43m1.68-0.01c0-2.17 1.38-3.8 3.7-3.8 2.09 0 3.79 1.7 3.79 3.79 0 2.1-1.7 3.78-3.79 3.78h-3.69z"/>
      <path fill="url(#d)" d="m168.94 187.99c0 4.41 3.59 7.99 7.99 7.99 4.41 0 7.99-3.58 7.99-7.99 0-4.4-3.58-7.99-7.99-7.99-4.4 0-7.99 3.59-7.99 7.99m1.79 0c0-3.42 2.79-6.2 6.2-6.2 3.42 0 6.2 2.78 6.2 6.2s-2.78 6.2-6.2 6.2c-3.41 0-6.2-2.78-6.2-6.2"/>
      <path fill="url(#c)" d="m197.03 180.6c-0.49 0-0.89 0.39-0.89 0.86 0 0.48 0.4 0.86 0.89 0.86h3.55v12.65c0 0.48 0.39 0.88 0.86 0.88s0.86-0.4 0.86-0.88v-12.65h3.5c0.5 0 0.9-0.38 0.9-0.86 0-0.47-0.4-0.86-0.9-0.86z"/>
      <path fill="url(#b)" d="m150.96 180.01c-4.29 0-5.21 3.15-5.21 4.78 0 1.62 1.29 3.81 5.25 3.81s3.79 2.35 3.79 2.44 0.22 3.09-3.78 3.07c-3.27 0-3.65-2.51-3.61-3.28 0-0.45-0.37-0.81-0.82-0.81-0.46 0-0.83 0.36-0.83 0.81-0.07 2.74 2.09 4.94 5.23 4.94 3.95 0 5.48-2.43 5.48-4.71 0-2.27-1.81-4.13-5.46-4.13-3.67 0-3.63-2.1-3.63-2.1s-0.23-3.21 3.63-3.21c3.87 0 3.57 3.5 3.57 3.5 0 0.45 0.37 0.8 0.82 0.8 0.44 0 0.81-0.35 0.81-0.8 0-5.01-4.82-5.11-5.21-5.11h-0.03"/>
      <path fill="url(#a)" d="m185.73 185.46v9.66c0 0.46 0.38 0.83 0.85 0.83 0.46 0 0.83-0.37 0.83-0.83v-4.25h3.64l2.84 4.62c0.23 0.4 0.75 0.55 1.16 0.31 0.4-0.23 0.55-0.75 0.31-1.16l-2.48-4.07c2.13-0.73 3.66-2.74 3.66-5.12 0-2.99-2.42-5.42-5.41-5.42-3.31 0-5.4 2.34-5.4 5.43m1.68-0.01c0-2.17 1.38-3.8 3.7-3.8 2.09 0 3.78 1.7 3.78 3.79 0 2.1-1.69 3.78-3.78 3.78h-3.7z"/>
      <path fill="#512c80" d="m215.66 185.23s0.3-3.5-3.57-3.5c-3.86 0-3.63 3.21-3.63 3.21s-0.04 2.1 3.62 2.1 5.46 1.85 5.46 4.13-1.52 4.71-5.47 4.71c-3.14 0-5.3-2.2-5.23-4.94 0-0.45 0.37-0.81 0.82-0.81 0.46 0 0.83 0.36 0.83 0.81-0.04 0.77 0.34 3.27 3.61 3.28 4 0.01 3.78-2.97 3.78-3.07 0-0.09 0.17-2.44-3.79-2.44s-5.26-2.19-5.26-3.81c0-1.63 0.93-4.79 5.22-4.79 0 0 5.23-0.11 5.23 5.12 0 0.44-0.36 0.8-0.81 0.8s-0.81-0.36-0.81-0.8"/>
    </g>
    <path stroke-width=".28819" fill="url(#j)" d="m223.5 145.43c-2.36 0.06-2.38 2.38-2.38 2.38l-0.03 19.58c0 3.12 0.72 5.36 1.78 6.96 1 1.39 2.35 2.51 3.92 3.21 1.78 0.74 3.48 0.83 4.26 0.82 0.29 0 0.45-0.01 0.45-0.01h20.52c2.08 0 1.98-2.24 1.98-2.24v-28.47c0-1.96-1.76-2.2-2.01-2.23h-0.2zm10.87 4.16h5.37s2.64 0.21 2.64 3.84v20.56h-4.29v-19.88h-5.38z"/>
  </g>
</svg>
