<?xml version="1.0" encoding="UTF-8" standalone="no"?>
<svg xmlns="http://www.w3.org/2000/svg" xmlns:xlink="http://www.w3.org/1999/xlink" height="299.38" width="600" version="1.1" viewBox="0 0 562.51105 280.66683">
  <defs>
    <linearGradient id="i" gradientUnits="userSpaceOnUse" gradientTransform="matrix(164.52 -126.03 126.03 164.52 146.49 26.846)" x1="0" x2="1" y1="0" y2="0">
      <stop stop-color="#190031" offset="0"/>
      <stop stop-color="#190031" offset=".0060577"/>
      <stop stop-color="#5c2d91" offset="1"/>
    </linearGradient>
    <linearGradient id="h" gradientUnits="userSpaceOnUse" gradientTransform="matrix(164.52 -126.03 126.03 164.52 224.7 128.96)" x1="0" x2="1" y1="0" y2="0">
      <stop stop-color="#190031" offset="0"/>
      <stop stop-color="#190031" offset=".0060577"/>
      <stop stop-color="#5c2d91" offset="1"/>
    </linearGradient>
    <linearGradient id="g" gradientUnits="userSpaceOnUse" gradientTransform="matrix(164.52 -126.03 126.03 164.52 260.9 176.22)" x1="0" x2="1" y1="0" y2="0">
      <stop stop-color="#190031" offset="0"/>
      <stop stop-color="#190031" offset=".0060577"/>
      <stop stop-color="#5c2d91" offset="1"/>
    </linearGradient>
    <linearGradient id="f" gradientUnits="userSpaceOnUse" gradientTransform="matrix(164.52 -126.03 126.03 164.52 308.77 238.69)" x1="0" x2="1" y1="0" y2="0">
      <stop stop-color="#190031" offset="0"/>
      <stop stop-color="#190031" offset=".0060577"/>
      <stop stop-color="#5c2d91" offset="1"/>
    </linearGradient>
    <linearGradient id="e" gradientUnits="userSpaceOnUse" gradientTransform="matrix(164.52 -126.03 126.03 164.52 276.27 260.72)" x1="0" x2="1" y1="0" y2="0">
      <stop stop-color="#190031" offset="0"/>
      <stop stop-color="#190031" offset=".0060577"/>
      <stop stop-color="#5c2d91" offset="1"/>
    </linearGradient>
    <linearGradient id="d" gradientUnits="userSpaceOnUse" gradientTransform="matrix(164.52 -126.03 126.03 164.52 304.89 298.08)" x1="0" x2="1" y1="0" y2="0">
      <stop stop-color="#190031" offset="0"/>
      <stop stop-color="#190031" offset=".0060577"/>
      <stop stop-color="#5c2d91" offset="1"/>
    </linearGradient>
    <linearGradient id="c" gradientUnits="userSpaceOnUse" gradientTransform="matrix(164.52 -126.03 126.03 164.52 343.32 348.24)" x1="0" x2="1" y1="0" y2="0">
      <stop stop-color="#190031" offset="0"/>
      <stop stop-color="#190031" offset=".0060577"/>
      <stop stop-color="#5c2d91" offset="1"/>
    </linearGradient>
    <linearGradient id="b" gradientUnits="userSpaceOnUse" gradientTransform="matrix(164.52 -126.03 126.03 164.52 260.69 240.39)" x1="0" x2="1" y1="0" y2="0">
      <stop stop-color="#190031" offset="0"/>
      <stop stop-color="#190031" offset=".0060577"/>
      <stop stop-color="#5c2d91" offset="1"/>
    </linearGradient>
    <linearGradient id="a" gradientUnits="userSpaceOnUse" gradientTransform="matrix(164.52 -126.03 126.03 164.52 330.51 331.52)" x1="0" x2="1" y1="0" y2="0">
      <stop stop-color="#190031" offset="0"/>
      <stop stop-color="#190031" offset=".0060577"/>
      <stop stop-color="#5c2d91" offset="1"/>
    </linearGradient>
  </defs>
  <g stroke-width="1.3245">
    <path d="m0.031788 5.4015s-0.031788 82.784-0.031788 120.39c0 37.62 31.089 72.98 75.057 72.98 43.963 0 75.013-37.63 75.013-75.75 0-38.106-30.28-74.69-75.053-74.69-44.763 0-64.182 35.339-64.182 35.339v-78.268c0-2.9798-2.4162-5.4037-5.4043-5.4037-2.9829 0.0000102-5.3989 2.4239-5.3989 5.4042m11.024 117.65c0-35.434 28.563-64.163 63.816-64.163 35.228 0 63.818 28.729 63.818 64.163 0 35.43-28.59 64.16-63.818 64.16-35.253 0-63.816-28.73-63.816-64.16" fill="url(#i)"/>
    <path d="m156.97 123.22c0 41.54 33.68 75.22 75.22 75.22 27.05 0 50.76-14.29 64.03-35.72 1.71-2.56 0.95-6.05-1.62-7.78-2.58-1.72-6.08-1-7.8 1.57-11.23 18.37-31.5 30.63-54.61 30.63-35.31 0-63.94-28.61-63.94-63.92 0-35.312 28.63-63.949 63.94-63.949 33.34 0 60.72 25.524 63.67 58.079h-74.47c-3.14 0-5.63 2.55-5.63 5.68s2.55 5.69 5.69 5.69h80.26c4.24 0 5.7-2.98 5.7-5.5 0-41.551-33.67-75.234-75.22-75.234-41.54 0-75.22 33.683-75.22 75.234" fill="url(#h)"/>
    <path d="m328.96 47.906h0.04zc-7.29 0.027-12.81 5.749-13.21 10.941v130.44c0.4 5.19 5.92 10.93 13.21 10.94 7.3-0.01 12.82-5.75 13.22-10.94v-130.44c-0.4-5.195-5.92-10.917-13.22-10.944m-0.03 0h0.03zm0.03 152.32h0.04-0.04m-0.03 0h0.03-0.03" fill="url(#g)"/>
    <path d="m549.5 48.025h0.02zc-7.18 0.014-12.6 5.736-13 10.849v96.106c0 3.53-2.18 12.2-10.47 16.15-17.86 8.49-27.05-7.82-27.05-7.82l-59.5-93.588c-6.87-11.935-28.08-29.034-56.94-18.292-27.82 11.417-28.15 40.359-28.15 40.359v97.501c0.4 5.19 5.92 10.32 13.22 10.34 7.29-0.02 12.88-5.84 12.88-11.84v-93.339s-1.33-18.411 19.84-20.319c12.35-0.715 18.45 12.107 18.45 12.107s54.16 85.411 59.66 93.911c5.49 8.49 27.72 27.63 56.58 15.88 29.21-11.89 27.47-41.13 27.47-41.13l0.01-96.079c-0.39-5.113-5.82-10.782-13-10.796m-0.03 0h0.03zm-181.86 151.6h0.03zm-0.03 0h0.03z" fill="url(#f)"/>
    <path d="m287.75 232.27 0.04 44.43c0 2.13 1.74 3.84 3.86 3.84 2.13 0 3.87-1.71 3.87-3.84v-19.55h17.07c13.73 0 24.87-11.16 24.87-24.89 0-13.76-11.14-24.93-24.87-24.93-15.23 0-24.84 10.73-24.84 24.94m7.73-0.04c0-9.95 6.37-17.44 17.02-17.44 9.61 0 17.41 7.8 17.41 17.43s-7.8 17.35-17.41 17.35h-16.98z" fill="url(#e)"/>
    <path d="m338.84 243.93c0 20.26 16.49 36.74 36.76 36.74 20.25 0 36.74-16.48 36.74-36.74 0-20.27-16.49-36.76-36.74-36.76-20.27 0-36.76 16.49-36.76 36.76m8.24 0c0-15.73 12.8-28.51 28.52-28.51 15.71 0 28.5 12.78 28.5 28.51 0 15.71-12.79 28.5-28.5 28.5-15.72 0-28.52-12.79-28.52-28.5" fill="url(#d)"/>
    <path d="m468.02 209.94c-2.27 0-4.11 1.77-4.11 3.96 0 2.18 1.84 3.96 4.11 3.96h16.32v58.13c0 2.26 1.76 4.06 3.95 4.06s3.95-1.8 3.95-4.06v-58.13h16.12c2.26 0 4.12-1.78 4.12-3.96 0-2.19-1.86-3.96-4.12-3.96z" fill="url(#c)"/>
    <path d="m256.19 207.21c-19.75 0-24 14.52-24 21.99s5.97 17.51 24.17 17.51c18.21 0 17.43 10.82 17.43 11.24 0 0.44 1 14.19-17.39 14.14-15.03-0.04-16.82-11.55-16.61-15.1 0-2.1-1.71-3.73-3.79-3.73-2.09 0-3.79 1.63-3.79 3.73-0.33 12.59 9.61 22.7 24.07 22.7 18.11 0 25.16-11.17 25.16-21.64s-8.3-18.98-25.12-18.98c-16.83 0-16.66-9.66-16.66-9.66s-1.07-14.77 16.7-14.77c17.78 0 16.41 16.08 16.41 16.08 0 2.05 1.68 3.7 3.74 3.7s3.72-1.65 3.72-3.7c0-23.05-22.13-23.51-23.92-23.51h-0.12" fill="url(#b)"/>
    <path d="m416.04 232.27 0.04 44.43c0 2.13 1.72 3.84 3.85 3.84 2.15 0 3.87-1.71 3.87-3.84v-19.55h16.74l13.01 21.23c1.07 1.88 3.45 2.53 5.34 1.46 1.86-1.09 2.53-3.48 1.45-5.36l-11.4-18.7c9.77-3.36 16.81-12.62 16.81-23.52 0-13.76-11.14-24.93-24.88-24.93-15.22 0-24.83 10.73-24.83 24.94m7.72-0.04c0-9.95 6.37-17.44 17.02-17.44 9.61 0 17.42 7.8 17.42 17.43s-7.81 17.35-17.42 17.35h-16.98z" fill="url(#a)"/>
    <path d="m553.68 231.21s1.37-16.08-16.41-16.08c-17.77 0-16.7 14.77-16.7 14.77s-0.19 9.66 16.65 9.66c16.83 0 25.13 8.51 25.13 18.99 0 10.46-7.05 21.63-25.17 21.63-14.45 0-24.4-10.11-24.07-22.7 0-2.08 1.71-3.73 3.79-3.73 2.09 0 3.79 1.65 3.79 3.73-0.2 3.55 1.59 15.06 16.62 15.1 18.37 0.05 17.39-13.7 17.39-14.12 0-0.44 0.77-11.25-17.43-11.25s-24.17-10.05-24.17-17.51c0-7.48 4.25-22 24-22 0 0 24.04-0.5 24.04 23.51 0 2.05-1.67 3.7-3.72 3.7-2.07 0-3.74-1.65-3.74-3.7" fill="#512c80"/>
  </g>
</svg>
