<svg xmlns="http://www.w3.org/2000/svg" width="600" viewBox="0 0 600.01182 230.6992" xmlns:xlink="http://www.w3.org/1999/xlink"><defs><linearGradient id="9" gradientUnits="userSpaceOnUse" x1="214.46" x2="349.71" y1="144.8" y2="41.21" xlink:href="#5"/><linearGradient id="6" gradientUnits="userSpaceOnUse" x1="227.09" x2="362.34" y1="214.3" y2="110.71" xlink:href="#5"/><linearGradient id="8" gradientUnits="userSpaceOnUse" x1="253.8" x2="389.05" y1="196.2" y2="92.61" xlink:href="#5"/><linearGradient id="7" gradientUnits="userSpaceOnUse" x1="184.7" x2="319.94" y1="106" y2="2.408" xlink:href="#5"/><linearGradient id="5" gradientUnits="userSpaceOnUse" x1="120.41" x2="255.65" y1="22.1" y2="-81.49"><stop stop-color="#190031"/><stop stop-color="#190031" offset=".006"/><stop stop-color="#5c2d91" offset="1"/></linearGradient><linearGradient id="0" gradientUnits="userSpaceOnUse" gradientTransform="matrix(133.2219-76.91413 76.91413 133.222 475.83 138)" x1="0" x2="1"><stop stop-color="#643e95"/><stop stop-color="#643e95" offset=".485"/><stop stop-color="#342d40" offset="1"/></linearGradient><linearGradient id="4" gradientUnits="userSpaceOnUse" x1="250.61" x2="385.86" y1="245" y2="141.41" xlink:href="#5"/><linearGradient id="1" gradientUnits="userSpaceOnUse" x1="282.2" x2="417.45" y1="286.2" y2="182.61" xlink:href="#5"/><linearGradient id="3" gradientUnits="userSpaceOnUse" x1="214.29" x2="349.54" y1="197.6" y2="94.01" xlink:href="#5"/><linearGradient id="2" gradientUnits="userSpaceOnUse" x1="271.67" x2="406.92" y1="272.5" y2="168.91" xlink:href="#5"/></defs><path d="m.03 4.398c0 0-.03 68.1-.03 99 0 30.9 25.56 60 61.691 60 36.14 0 61.67-31 61.67-62.3 0-31.3-24.89-61.4-61.691-61.4-36.801 0-52.761 29.1-52.761 29.1v-64.4c0-2.4-1.99-4.4-4.44-4.4-2.45 0-4.44 2-4.44 4.4m9.06 96.7c0-29.1 23.48-52.701 52.46-52.701 28.96 0 52.45 23.6 52.45 52.701 0 29.2-23.49 52.801-52.45 52.801-28.98 0-52.46-23.6-52.46-52.801" fill="url(#5)"/><path d="m129.03 101.3c0 34.1 27.69 61.801 61.821 61.801 22.24 0 41.731-11.7 52.631-29.4 1.41-2.1.78-4.9-1.33-6.3-2.12-1.5-5-.9-6.41 1.2-9.23 15.1-25.89 25.2-44.891 25.2-29.02 0-52.55-23.5-52.55-52.5 0-29.1 23.53-52.601 52.55-52.601 27.41 0 49.911 21 52.35 47.801h-61.21c-2.58 0-4.63 2-4.63 4.6 0 2.6 2.09 4.7 4.67 4.7h65.981c3.48 0 4.68-2.5 4.68-4.5 0-34.2-27.69-61.901-61.841-61.901-34.13 0-61.821 27.7-61.821 61.901" fill="url(#7)"/><path d="m270.4 39.4h.03-.03m0 0c-5.99 0-10.53 4.7-10.86 9v107.2c.33 4.3 4.87 9 10.86 9 6 0 10.54-4.7 10.87-9v-107.2c-.33-4.3-4.87-9-10.87-9m-.02 0h.02-.02m.02 125.2h.03-.03m-.02 0h.02-.02" fill="url(#9)"/><path d="m451.69 39.498h.02-.02m0 0c-5.91 0-10.36 4.7-10.69 8.9v79c0 2.9-1.79 10-8.61 13.3-14.67 6.9-22.23-6.5-22.23-6.5l-48.911-76.901c-5.64-9.8-23.08-23.9-46.801-15-22.86 9.3-23.14 33.1-23.14 33.1v80.2c.33 4.3 4.87 8.5 10.86 8.5 5.99 0 10.59-4.8 10.59-9.8v-76.7c0 0-1.09-15.1 16.31-16.7 10.16-.6 15.17 10 15.17 10 0 0 44.511 70.2 49.03 77.2 4.52 7 22.79 22.7 46.521 13 24-9.8 22.58-33.8 22.58-33.8v-79c-.33-4.2-4.8-8.8-10.69-8.8m-.03 0h.03-.03m-149.49 124.6h.03-.03m-.02 0h.02-.02" fill="url(#8)"/><path d="m236.53 190.9l.03 36.501c0 1.8 1.42 3.2 3.17 3.2 1.76 0 3.18-1.4 3.18-3.2v-16h14.03c11.29 0 20.45-9.2 20.45-20.5 0-11.3-9.16-20.5-20.45-20.5-12.51 0-20.41 8.8-20.41 20.5m6.35 0c0-8.2 5.23-14.4 13.99-14.4 7.9 0 14.31 6.5 14.31 14.4 0 7.9-6.41 14.2-14.31 14.2h-13.96l-.03-14.2" fill="url(#6)"/><path d="m278.52 200.5c0 16.6 13.55 30.2 30.21 30.2 16.66 0 30.21-13.6 30.21-30.2 0-16.7-13.55-30.2-30.21-30.2-16.66 0-30.21 13.5-30.21 30.2m6.78 0c0-12.9 10.51-23.4 23.43-23.4 12.92 0 23.43 10.5 23.43 23.4 0 12.9-10.51 23.4-23.43 23.4-12.92 0-23.43-10.5-23.43-23.4" fill="url(#4)"/><path d="m384.72 172.6c-1.87 0-3.39 1.4-3.39 3.2 0 1.8 1.52 3.3 3.39 3.3h13.41v47.801c0 1.8 1.45 3.3 3.25 3.3 1.79 0 3.24-1.5 3.24-3.3v-47.801h13.25c1.87 0 3.38-1.5 3.38-3.3 0-1.8-1.51-3.2-3.38-3.2h-33.15" fill="url(#1)"/><path d="m210.58 170.3c-16.23 0-19.72 11.9-19.72 18.1 0 6.1 4.91 14.4 19.86 14.4 14.97 0 14.33 8.9 14.33 9.2 0 .4.81 11.7-14.29 11.6-12.36 0-13.83-9.5-13.66-12.4 0-1.7-1.4-3-3.11-3-1.72 0-3.12 1.3-3.12 3-.27 10.4 7.9 18.7 19.79 18.7 14.89 0 20.68-9.2 20.68-17.8 0-8.6-6.82-15.6-20.65-15.6-13.84 0-13.69-7.9-13.69-7.9 0 0-.88-12.2 13.72-12.2 14.62 0 13.5 13.2 13.5 13.2 0 1.7 1.38 3.1 3.07 3.1 1.69 0 3.06-1.4 3.06-3.1 0-18.9-18.2-19.3-19.67-19.3h-.1" fill="url(#3)"/><path d="m341.98 190.9l.03 36.501c0 1.8 1.42 3.2 3.18 3.2 1.76 0 3.18-1.4 3.18-3.2v-16h13.75l10.7 17.4c.88 1.6 2.84 2.1 4.39 1.2 1.53-.9 2.07-2.8 1.19-4.4l-9.37-15.4c8.03-2.7 13.81-10.3 13.81-19.3 0-11.3-9.15-20.5-20.44-20.5-12.52 0-20.42 8.8-20.42 20.5m6.35 0c0-8.2 5.23-14.4 13.99-14.4 7.91 0 14.32 6.5 14.32 14.4 0 7.9-6.41 14.2-14.32 14.2h-13.96l-.03-14.2" fill="url(#2)"/><path d="m455.12 190c0 0 1.12-13.2-13.49-13.2-14.6 0-13.72 12.2-13.72 12.2 0 0-.15 7.9 13.69 7.9 13.83 0 20.64 7 20.64 15.6 0 8.6-5.79 17.8-20.68 17.8-11.88 0-20.05-8.3-19.78-18.7 0-1.7 1.4-3 3.11-3 1.72 0 3.12 1.3 3.12 3-.17 2.9 1.3 12.4 13.66 12.4 15.1.1 14.29-11.2 14.29-11.6 0-.3.64-9.2-14.33-9.2-14.96 0-19.86-8.3-19.86-14.4 0-6.2 3.49-18.1 19.72-18.1 0 0 19.76-.4 19.76 19.3 0 1.7-1.36 3.1-3.06 3.1-1.69 0-3.07-1.4-3.07-3.1" fill="#512c80"/><path d="m484.92 39.499c-9.2 0-9.299 9.1-9.299 9.1l-.061 74c0 45 39.33 41.501 39.33 41.501h77.61c7.89 0 7.51-8.401 7.51-8.401v-107.7c0-8-7.801-8.5-7.801-8.5h-107.29m54.691 13.399c18.39 0 31.16 12.902 31.16 29.3 0 6.4-3.348 15.1-5.738 17.799-2.4 2.7-3.73 6.6-34.931 29.8h39.931v14.6h-50.992c0 0-11.93-.6-11.93-11.1 0-5.5 5.811-9.6 5.811-9.6 7.99-5.6 35.38-27.6 37.34-29.8 1.95-2.2 4.811-6.8 4.811-11.2 0-8.4-6.309-15.202-15.46-15.202-9.13 0-15.42 6.802-15.42 15.202 0 6.7 4.059 12.399 10.389 14.399l-13.499 9.6c-8.79-6.2-12.43-14.199-12.67-23.999-.37-16.6 14.02-29.802 31.2-29.802" fill="url(#0)"/></svg>