<?xml version="1.0" encoding="UTF-8" standalone="no"?>
<svg xmlns="http://www.w3.org/2000/svg" height="230.7" width="600" version="1.1" viewBox="0 0 158.75 61.03877">
 <g fill="#fff" transform="translate(-112.1 -139.32)">
  <path stroke-width=".28819" d="m240.34 149.81c-2.35 0.06-2.37 2.38-2.37 2.38l-0.04 19.58c0 3.12 0.73 5.36 1.79 6.96 0.99 1.39 2.34 2.5 3.92 3.21 1.78 0.73 3.48 0.82 4.26 0.82 0.29 0 0.45-0.02 0.45-0.02h20.51c2.09 0 1.99-2.24 1.99-2.24v-28.46c0-1.97-1.77-2.21-2.01-2.23h-0.2zm7.48 4.15h10.95c0.46 0 0.87 0.05 1.24 0.14 0.51 0.08 0.95 0.3 1.33 0.6 0.5 0.4 0.95 1.28 0.97 2.16 0.01 0.66-0.17 1.13-0.49 1.56h0.01l-3.65 4.68c2.55 1.36 4.28 4.05 4.28 7.15 0 4.49-3.62 8.12-8.09 8.12-4.19 0-7.63-3.19-8.05-7.28h4.03c0.39 1.88 2.04 3.28 4.02 3.28 2.27 0 4.1-1.84 4.1-4.12 0-2.25-1.61-3.79-4.05-4.11-1.15 0-2.09-0.94-2.09-2.09 0-0.5 0.19-0.98 0.49-1.33l3.69-4.72h-7.74z"/>
  <g stroke-width=".28827">
   <path d="m112.1 140.5v26.18c0 8.18 6.76 15.87 16.32 15.87s16.31-8.18 16.31-16.47-6.58-16.25-16.32-16.25c-9.73 0-13.96 7.69-13.96 7.69v-17.02c0-0.65-0.52-1.18-1.17-1.18s-1.18 0.53-1.18 1.18m2.4 25.58c0-7.71 6.21-13.95 13.88-13.95 7.66 0 13.87 6.24 13.87 13.95s-6.21 13.95-13.87 13.95c-7.67 0-13.88-6.24-13.88-13.95"/>
   <path d="m146.23 166.12c0 9.03 7.33 16.36 16.36 16.36 5.89 0 11.04-3.11 13.93-7.77 0.37-0.56 0.2-1.32-0.36-1.69-0.55-0.37-1.32-0.22-1.69 0.34-2.45 3.99-6.85 6.66-11.88 6.66-7.68 0-13.9-6.22-13.9-13.9s6.22-13.91 13.9-13.91c7.25 0 13.21 5.55 13.85 12.63h-16.2c-0.68 0-1.22 0.56-1.22 1.24s0.55 1.23 1.23 1.23h17.47c0.91 0 1.23-0.64 1.23-1.19 0-9.04-7.32-16.36-16.36-16.36-9.03 0-16.36 7.32-16.36 16.36"/>
   <path d="m183.64 149.74zc-1.59 0-2.79 1.25-2.87 2.38v28.37c0.08 1.13 1.28 2.38 2.87 2.38 1.58 0 2.79-1.25 2.87-2.38v-28.37c-0.08-1.13-1.29-2.38-2.87-2.38m-0.01 0h0.01zm0.01 33.13m-0.01 0h0.01-0.01"/>
   <path d="m231.6 149.77zc-1.56 0-2.74 1.24-2.83 2.35v20.91c0 0.76-0.47 2.65-2.28 3.51-3.88 1.85-5.88-1.7-5.88-1.7l-12.94-20.35c-1.49-2.6-6.1-6.32-12.38-3.99-6.05 2.49-6.12 8.78-6.12 8.78v21.21c0.08 1.13 1.29 2.24 2.87 2.25 1.59-0.01 2.8-1.28 2.8-2.58v-20.3s-0.29-4 4.32-4.41c2.69-0.16 4.01 2.63 4.01 2.63s11.78 18.57 12.97 20.42c1.2 1.85 6.03 6 12.31 3.45 6.35-2.58 5.97-8.94 5.97-8.94l0.01-20.9c-0.09-1.11-1.27-2.34-2.83-2.34m-0.01 0h0.01zm-39.55 32.97h0.01zm-0.01 0h0.01z"/>
   <path d="m174.68 189.83v9.67c0 0.46 0.38 0.83 0.84 0.83 0.47 0 0.85-0.37 0.85-0.83v-4.26h3.71c2.99 0 5.41-2.42 5.41-5.41s-2.42-5.42-5.41-5.42c-3.32 0-5.4 2.33-5.4 5.42m1.68 0c0-2.17 1.38-3.8 3.7-3.8 2.09 0 3.79 1.7 3.79 3.79s-1.7 3.77-3.79 3.77h-3.7z"/>
   <path d="m185.79 192.37c0 4.41 3.58 7.99 7.99 7.99 4.4 0 7.99-3.58 7.99-7.99s-3.59-7.99-7.99-7.99c-4.41 0-7.99 3.58-7.99 7.99m1.79 0c0-3.42 2.78-6.2 6.2-6.2s6.2 2.78 6.2 6.2-2.78 6.2-6.2 6.2-6.2-2.78-6.2-6.2"/>
   <path d="m213.88 184.98c-0.49 0-0.9 0.39-0.9 0.86s0.41 0.86 0.9 0.86h3.55v12.64c0 0.49 0.38 0.89 0.86 0.89 0.47 0 0.86-0.4 0.86-0.89v-12.64h3.5c0.49 0 0.89-0.39 0.89-0.86s-0.4-0.86-0.89-0.86z"/>
   <path d="m167.81 184.38c-4.29 0-5.22 3.16-5.22 4.79 0 1.62 1.3 3.81 5.26 3.81s3.79 2.35 3.79 2.44 0.21 3.08-3.78 3.07c-3.27 0-3.66-2.51-3.62-3.28 0-0.46-0.36-0.81-0.82-0.81-0.45 0-0.82 0.35-0.82 0.81-0.07 2.74 2.09 4.94 5.23 4.94 3.94 0 5.47-2.43 5.47-4.71s-1.8-4.13-5.46-4.13-3.62-2.1-3.62-2.1-0.24-3.21 3.63-3.21 3.57 3.49 3.57 3.49c0 0.45 0.36 0.81 0.81 0.81s0.81-0.36 0.81-0.81c0-5-4.81-5.11-5.2-5.11h-0.03"/>
   <path d="m202.57 189.83 0.01 9.67c0 0.46 0.38 0.83 0.84 0.83 0.47 0 0.84-0.37 0.84-0.83v-4.26h3.64l2.83 4.62c0.23 0.41 0.76 0.55 1.16 0.32 0.41-0.24 0.55-0.76 0.32-1.17l-2.48-4.06c2.12-0.74 3.66-2.75 3.66-5.12 0-2.99-2.43-5.42-5.42-5.42-3.3 0-5.4 2.33-5.4 5.42m1.68 0c0-2.17 1.39-3.8 3.7-3.8 2.1 0 3.79 1.7 3.79 3.79s-1.69 3.77-3.79 3.77h-3.69z"/>
   <path d="m232.5 189.6s0.3-3.49-3.56-3.49c-3.87 0-3.63 3.21-3.63 3.21s-0.04 2.1 3.62 2.1 5.46 1.85 5.46 4.13c0 2.27-1.53 4.7-5.47 4.7-3.15 0-5.31-2.19-5.24-4.93 0-0.46 0.38-0.81 0.83-0.81s0.82 0.35 0.82 0.81c-0.04 0.77 0.35 3.27 3.62 3.28 3.99 0.01 3.78-2.98 3.78-3.07s0.17-2.45-3.79-2.45-5.26-2.18-5.26-3.81c0-1.62 0.93-4.78 5.22-4.78 0 0 5.23-0.11 5.23 5.11 0 0.45-0.36 0.81-0.81 0.81s-0.82-0.36-0.82-0.81"/>
  </g>
 </g>
</svg>
