<?xml version="1.0" encoding="UTF-8" standalone="no"?>
<svg xmlns="http://www.w3.org/2000/svg" height="211.42" width="600" version="1.1" viewBox="0 0 158.75 55.939093">
  <defs>
    <linearGradient id="a" gradientUnits="userSpaceOnUse" gradientTransform="matrix(64.265 -37.105 37.105 64.265 217.41 844.02)" x1="0" x2="1" y1="0" y2="0">
      <stop stop-color="#572381" offset="0"/>
      <stop stop-color="#111211" offset="1"/>
    </linearGradient>
    <linearGradient id="b" gradientUnits="userSpaceOnUse" gradientTransform="matrix(32.789 -25.119 25.119 32.789 128.23 799.01)" x1="0" x2="1" y1="0" y2="0">
      <stop stop-color="#190031" offset="0"/>
      <stop stop-color="#190031" offset=".0060577"/>
      <stop stop-color="#5c2d91" offset="1"/>
    </linearGradient>
    <linearGradient id="c" gradientUnits="userSpaceOnUse" gradientTransform="matrix(32.789 -25.119 25.119 32.789 143.81 819.36)" x1="0" x2="1" y1="0" y2="0">
      <stop stop-color="#190031" offset="0"/>
      <stop stop-color="#190031" offset=".0060577"/>
      <stop stop-color="#5c2d91" offset="1"/>
    </linearGradient>
    <linearGradient id="d" gradientUnits="userSpaceOnUse" gradientTransform="matrix(32.789 -25.119 25.119 32.789 151.03 828.78)" x1="0" x2="1" y1="0" y2="0">
      <stop stop-color="#190031" offset="0"/>
      <stop stop-color="#190031" offset=".0060577"/>
      <stop stop-color="#5c2d91" offset="1"/>
    </linearGradient>
    <linearGradient id="e" gradientUnits="userSpaceOnUse" gradientTransform="matrix(32.789 -25.119 25.119 32.789 160.57 841.23)" x1="0" x2="1" y1="0" y2="0">
      <stop stop-color="#190031" offset="0"/>
      <stop stop-color="#190031" offset=".0060577"/>
      <stop stop-color="#5c2d91" offset="1"/>
    </linearGradient>
    <linearGradient id="f" gradientUnits="userSpaceOnUse" gradientTransform="matrix(32.789 -25.119 25.119 32.789 154.09 845.62)" x1="0" x2="1" y1="0" y2="0">
      <stop stop-color="#190031" offset="0"/>
      <stop stop-color="#190031" offset=".0060577"/>
      <stop stop-color="#5c2d91" offset="1"/>
    </linearGradient>
    <linearGradient id="g" gradientUnits="userSpaceOnUse" gradientTransform="matrix(32.789 -25.119 25.119 32.789 159.8 853.06)" x1="0" x2="1" y1="0" y2="0">
      <stop stop-color="#190031" offset="0"/>
      <stop stop-color="#190031" offset=".0060577"/>
      <stop stop-color="#5c2d91" offset="1"/>
    </linearGradient>
    <linearGradient id="h" gradientUnits="userSpaceOnUse" gradientTransform="matrix(32.789 -25.118 25.118 32.789 167.46 863.06)" x1="0" x2="1" y1="0" y2="0">
      <stop stop-color="#190031" offset="0"/>
      <stop stop-color="#190031" offset=".0060577"/>
      <stop stop-color="#5c2d91" offset="1"/>
    </linearGradient>
    <linearGradient id="i" gradientUnits="userSpaceOnUse" gradientTransform="matrix(32.789 -25.119 25.119 32.789 150.99 841.57)" x1="0" x2="1" y1="0" y2="0">
      <stop stop-color="#190031" offset="0"/>
      <stop stop-color="#190031" offset=".0060577"/>
      <stop stop-color="#5c2d91" offset="1"/>
    </linearGradient>
    <linearGradient id="j" gradientUnits="userSpaceOnUse" gradientTransform="matrix(32.789 -25.119 25.119 32.789 164.9 859.73)" x1="0" x2="1" y1="0" y2="0">
      <stop stop-color="#190031" offset="0"/>
      <stop stop-color="#190031" offset=".0060577"/>
      <stop stop-color="#5c2d91" offset="1"/>
    </linearGradient>
  </defs>
  <g transform="translate(-99.03 -793.66)">
    <g stroke-width=".26417">
      <path d="m99.036 794.73s-0.006 16.5-0.006 24c0 7.49 6.2 14.54 14.96 14.54s14.95-7.5 14.95-15.09c0-7.6-6.04-14.89-14.96-14.89s-12.79 7.04-12.79 7.04v-15.6c0-0.59-0.48-1.07-1.08-1.07-0.592 0-1.074 0.48-1.074 1.07m2.194 23.45c0-7.06 5.7-12.79 12.72-12.79s12.72 5.73 12.72 12.79c0 7.07-5.7 12.79-12.72 12.79s-12.72-5.72-12.72-12.79" fill="url(#b)"/>
      <path d="m130.31 818.21c0 8.28 6.72 15 15 15 5.39 0 10.11-2.85 12.76-7.12 0.34-0.51 0.19-1.21-0.32-1.55-0.52-0.35-1.22-0.2-1.56 0.31-2.24 3.66-6.27 6.11-10.88 6.11-7.04 0-12.75-5.71-12.75-12.75 0-7.03 5.71-12.74 12.75-12.74 6.64 0 12.1 5.09 12.69 11.58h-14.85c-0.62 0-1.12 0.5-1.12 1.13 0 0.62 0.51 1.13 1.13 1.13h16.01c0.84 0 1.13-0.59 1.13-1.1 0-8.28-6.71-14.99-14.99-14.99s-15 6.71-15 14.99" fill="url(#c)"/>
      <path d="m164.6 803.21zc-1.46 0-2.56 1.14-2.64 2.18v25.99c0.08 1.04 1.18 2.18 2.64 2.19 1.45-0.01 2.55-1.15 2.63-2.19v-25.99c-0.08-1.04-1.18-2.18-2.63-2.18m-0.01 0h0.01zm0.01 30.35m-0.01 0h0.01-0.01" fill="url(#d)"/>
      <path d="m208.55 803.23zc-1.43 0-2.51 1.14-2.59 2.16v19.16c0 0.7-0.44 2.43-2.09 3.21-3.56 1.7-5.39-1.55-5.39-1.55l-11.86-18.66c-1.37-2.38-5.6-5.78-11.35-3.64-5.54 2.27-5.61 8.04-5.61 8.04v19.43c0.08 1.04 1.18 2.06 2.64 2.07 1.45-0.01 2.56-1.17 2.56-2.37v-18.6s-0.26-3.67 3.96-4.05c2.46-0.14 3.68 2.42 3.68 2.42s10.79 17.02 11.88 18.71c1.1 1.7 5.53 5.51 11.28 3.16 5.82-2.36 5.48-8.19 5.48-8.19v-19.15c-0.08-1.02-1.16-2.15-2.59-2.15m-0.01 0h0.01zm-36.24 30.21zm-0.01 0h0.01z" fill="url(#e)"/>
      <path d="m156.38 839.95 0.01 8.85c0 0.43 0.35 0.77 0.77 0.77s0.77-0.34 0.77-0.77v-3.89h3.4c2.74 0 4.96-2.22 4.96-4.96 0-2.75-2.22-4.97-4.96-4.97-3.03 0-4.95 2.14-4.95 4.97m1.54-0.01c0-1.98 1.27-3.48 3.39-3.48 1.92 0 3.47 1.56 3.47 3.48s-1.55 3.46-3.47 3.46h-3.38z" fill="url(#f)"/>
      <path d="m166.56 842.27c0 4.04 3.29 7.33 7.33 7.33s7.32-3.29 7.32-7.33-3.28-7.32-7.32-7.32-7.33 3.28-7.33 7.32m1.65 0c0-3.13 2.55-5.68 5.68-5.68s5.68 2.55 5.68 5.68-2.55 5.68-5.68 5.68-5.68-2.55-5.68-5.68" fill="url(#g)"/>
      <path d="m192.31 835.5c-0.45 0-0.82 0.35-0.82 0.79 0 0.43 0.37 0.79 0.82 0.79h3.25v11.58c0 0.45 0.35 0.81 0.79 0.81 0.43 0 0.79-0.36 0.79-0.81v-11.58h3.21c0.45 0 0.82-0.36 0.82-0.79 0-0.44-0.37-0.79-0.82-0.79z" fill="url(#h)"/>
      <path d="m150.09 834.96c-3.93 0-4.78 2.89-4.78 4.38s1.19 3.49 4.81 3.49c3.63 0 3.48 2.15 3.48 2.24 0 0.08 0.2 2.83-3.47 2.82-2.99-0.01-3.35-2.31-3.31-3.02 0-0.41-0.34-0.74-0.75-0.74-0.42 0-0.76 0.33-0.76 0.74-0.06 2.51 1.92 4.53 4.8 4.53 3.61 0 5.01-2.22 5.01-4.31s-1.65-3.79-5-3.79c-3.36 0-3.32-1.92-3.32-1.92s-0.22-2.95 3.32-2.95c3.55 0 3.28 3.21 3.28 3.21 0 0.41 0.33 0.74 0.74 0.74s0.74-0.33 0.74-0.74c0-4.59-4.41-4.68-4.77-4.68h-0.02" fill="url(#i)"/>
      <path d="m181.95 839.95 0.01 8.85c0 0.43 0.34 0.77 0.76 0.77 0.43 0 0.77-0.34 0.77-0.77v-3.89h3.34l2.59 4.23c0.22 0.37 0.69 0.5 1.07 0.29 0.37-0.22 0.5-0.69 0.29-1.07l-2.27-3.73c1.94-0.67 3.35-2.51 3.35-4.68 0-2.75-2.22-4.97-4.96-4.97-3.04 0-4.95 2.14-4.95 4.97m1.54-0.01c0-1.98 1.27-3.48 3.39-3.48 1.92 0 3.47 1.56 3.47 3.48s-1.55 3.46-3.47 3.46h-3.39z" fill="url(#j)"/>
      <path d="m209.38 839.74s0.27-3.2-3.27-3.2-3.33 2.94-3.33 2.94-0.04 1.92 3.32 1.92c3.35 0 5.01 1.7 5.01 3.78 0 2.09-1.4 4.32-5.02 4.32-2.88 0-4.86-2.02-4.79-4.53 0-0.41 0.34-0.74 0.75-0.74 0.42 0 0.76 0.33 0.76 0.74-0.04 0.71 0.31 3.01 3.31 3.02 3.66 0 3.47-2.74 3.47-2.82 0-0.09 0.15-2.24-3.48-2.24s-4.82-2-4.82-3.49 0.85-4.39 4.79-4.39c0 0 4.79-0.1 4.79 4.69 0 0.41-0.33 0.74-0.75 0.74-0.4 0-0.74-0.33-0.74-0.74" fill="#512c80"/>
    </g>
    <path stroke-width=".40649" fill="url(#a)" d="m218.14 803.12c-0.87 0-1.65 0.35-2.22 0.92-0.08 0.08-0.14 0.15-0.21 0.23-0.06 0.08-0.12 0.16-0.18 0.24-0.06 0.09-0.11 0.17-0.16 0.26s-0.09 0.19-0.13 0.28c-0.04 0.1-0.07 0.19-0.11 0.29-0.03 0.1-0.05 0.2-0.08 0.3-0.01 0.11-0.03 0.21-0.04 0.32-0.01 0.1-0.02 0.21-0.02 0.32v29.86c0.02 2.3 0.61 4.46 1.63 6.35 0.2 0.38 0.43 0.75 0.66 1.11 0.6 0.88 1.3 1.7 2.08 2.42 1.73 1.59 3.86 2.73 6.23 3.26 0.87 0.19 1.76 0.3 2.67 0.32h26.37c0.52 0 1-0.12 1.43-0.35 0.02-0.01 0.03-0.01 0.05-0.02-0.01 0-0.01-0.01 0.01-0.02 0.97-0.54 1.66-1.57 1.66-2.76v-40.17c0-1.31-0.79-2.43-1.93-2.91-0.33-0.14-0.69-0.23-1.07-0.25h-36.61-0.03zm20.47 7.37c1.38 0 2.52 0.43 3.34 1.24 0.8 0.8 1.24 1.96 1.24 3.32v7.86c0 0.45-0.37 0.82-0.82 0.82s-0.81-0.37-0.81-0.82v-3.29h-5.89v3.29c0 0.45-0.36 0.82-0.82 0.82-0.45 0-0.81-0.37-0.81-0.82v-7.86c0-1.36 0.44-2.52 1.25-3.32 0.8-0.81 1.95-1.24 3.32-1.24zm-17.08 0.2c0.65 0 1.22 0.44 1.41 1.06l2.73 9.22 2.74-9.22c0.17-0.62 0.76-1.06 1.41-1.06 0.74 0 1.35 0.56 1.44 1.28l1.36 10.82c0.02 0.03 0.02 0.08 0.02 0.11 0 0.45-0.38 0.83-0.83 0.83-0.42 0-0.77-0.32-0.83-0.73l-1.24-9.91-2.96 9.81c-0.15 0.48-0.6 0.83-1.11 0.83-0.5 0-0.97-0.35-1.11-0.83l-2.95-9.81-1.25 9.91c-0.06 0.41-0.4 0.73-0.82 0.73-0.47 0-0.83-0.38-0.83-0.83v-0.11l1.37-10.82c0.08-0.72 0.71-1.28 1.45-1.28zm23.74 0c0.28 0 0.52 0.14 0.67 0.35l3.25 4.64 3.24-4.64c0.17-0.21 0.41-0.35 0.68-0.35 0.47 0 0.83 0.38 0.83 0.83 0 0.17-0.04 0.33-0.13 0.47l-3.61 5.14 3.71 5.3c0.09 0.12 0.15 0.29 0.15 0.47 0 0.45-0.37 0.83-0.83 0.83-0.29 0-0.52-0.14-0.68-0.37l-3.36-4.79-3.35 4.79c-0.15 0.23-0.41 0.37-0.68 0.37-0.47 0-0.83-0.38-0.83-0.83 0-0.18 0.04-0.35 0.15-0.47l3.7-5.3-3.59-5.14c-0.09-0.14-0.15-0.3-0.15-0.47 0-0.45 0.37-0.83 0.83-0.83zm-6.66 1.49c-1.1 0-2.94 0.38-2.94 2.95v2.94h5.89v-2.94c0-2.57-1.85-2.95-2.95-2.95zm-9.5 15.99h2.69v14.05h-2.69zm7.69 0h2.67v14.05h-2.67v-5.93h-3.94v-2.49h3.94zm4.76 0h5c3.9 0 6.33 2.69 6.33 7.02 0 4.3-2.49 7.03-6.33 7.03h-1.26v-2.49h1.26c3.17 0 3.65-2.85 3.65-4.55 0-2.07-0.64-4.52-3.65-4.52h-2.33v11.56h-2.67zm-20.68 0.03h2.72c1.13 0 1.83 0.87 1.83 2.25v11.77h-2.45v-11.43h-3.09z"/>
  </g>
</svg>
