<?xml version="1.0" encoding="UTF-8" standalone="no"?>
<svg xmlns="http://www.w3.org/2000/svg" height="211.42" width="600" version="1.1" viewBox="0 0 158.75 55.939073">
  <defs>
    <linearGradient id="a" gradientUnits="userSpaceOnUse" gradientTransform="matrix(64.265 -37.105 37.105 64.265 46.562 633.11)" x1="0" x2="1" y1="0" y2="0">
      <stop stop-color="#572381" offset="0"/>
      <stop stop-color="#111211" offset="1"/>
    </linearGradient>
    <linearGradient id="b" gradientUnits="userSpaceOnUse" gradientTransform="matrix(32.789 -25.119 25.119 32.789 -42.62 588.1)" x1="0" x2="1" y1="0" y2="0">
      <stop stop-color="#190031" offset="0"/>
      <stop stop-color="#190031" offset=".0060577"/>
      <stop stop-color="#5c2d91" offset="1"/>
    </linearGradient>
    <linearGradient id="c" gradientUnits="userSpaceOnUse" gradientTransform="matrix(32.789 -25.119 25.119 32.789 -27.034 608.45)" x1="0" x2="1" y1="0" y2="0">
      <stop stop-color="#190031" offset="0"/>
      <stop stop-color="#190031" offset=".0060577"/>
      <stop stop-color="#5c2d91" offset="1"/>
    </linearGradient>
    <linearGradient id="d" gradientUnits="userSpaceOnUse" gradientTransform="matrix(32.789 -25.119 25.119 32.789 -19.817 617.87)" x1="0" x2="1" y1="0" y2="0">
      <stop stop-color="#190031" offset="0"/>
      <stop stop-color="#190031" offset=".0060577"/>
      <stop stop-color="#5c2d91" offset="1"/>
    </linearGradient>
    <linearGradient id="e" gradientUnits="userSpaceOnUse" gradientTransform="matrix(32.789 -25.119 25.119 32.789 -10.278 630.32)" x1="0" x2="1" y1="0" y2="0">
      <stop stop-color="#190031" offset="0"/>
      <stop stop-color="#190031" offset=".0060577"/>
      <stop stop-color="#5c2d91" offset="1"/>
    </linearGradient>
    <linearGradient id="f" gradientUnits="userSpaceOnUse" gradientTransform="matrix(32.789 -25.119 25.119 32.789 -16.753 634.71)" x1="0" x2="1" y1="0" y2="0">
      <stop stop-color="#190031" offset="0"/>
      <stop stop-color="#190031" offset=".0060577"/>
      <stop stop-color="#5c2d91" offset="1"/>
    </linearGradient>
    <linearGradient id="g" gradientUnits="userSpaceOnUse" gradientTransform="matrix(32.789 -25.119 25.119 32.789 -11.047 642.15)" x1="0" x2="1" y1="0" y2="0">
      <stop stop-color="#190031" offset="0"/>
      <stop stop-color="#190031" offset=".0060577"/>
      <stop stop-color="#5c2d91" offset="1"/>
    </linearGradient>
    <linearGradient id="h" gradientUnits="userSpaceOnUse" gradientTransform="matrix(32.789 -25.118 25.118 32.789 -3.3892 652.15)" x1="0" x2="1" y1="0" y2="0">
      <stop stop-color="#190031" offset="0"/>
      <stop stop-color="#190031" offset=".0060577"/>
      <stop stop-color="#5c2d91" offset="1"/>
    </linearGradient>
    <linearGradient id="i" gradientUnits="userSpaceOnUse" gradientTransform="matrix(32.789 -25.119 25.119 32.789 -19.856 630.66)" x1="0" x2="1" y1="0" y2="0">
      <stop stop-color="#190031" offset="0"/>
      <stop stop-color="#190031" offset=".0060577"/>
      <stop stop-color="#5c2d91" offset="1"/>
    </linearGradient>
    <linearGradient id="j" gradientUnits="userSpaceOnUse" gradientTransform="matrix(32.789 -25.119 25.119 32.789 -5.9452 648.82)" x1="0" x2="1" y1="0" y2="0">
      <stop stop-color="#190031" offset="0"/>
      <stop stop-color="#190031" offset=".0060577"/>
      <stop stop-color="#5c2d91" offset="1"/>
    </linearGradient>
  </defs>
  <g transform="translate(71.815 -582.75)">
    <g stroke-width=".26417">
      <path d="m-71.809 583.82s-0.006 16.5-0.006 24c0 7.49 6.196 14.54 14.958 14.54 8.764 0 14.949-7.5 14.949-15.09 0-7.6-6.032-14.89-14.955-14.89s-12.793 7.04-12.793 7.04v-15.6c0-0.59-0.482-1.07-1.077-1.07s-1.076 0.48-1.076 1.07m2.197 23.45c0-7.06 5.693-12.79 12.719-12.79 7.022 0 12.716 5.73 12.716 12.79 0 7.07-5.694 12.79-12.716 12.79-7.026 0-12.719-5.72-12.719-12.79" fill="url(#b)"/>
      <path d="m-40.531 607.3c0 8.28 6.712 15 14.992 15 5.394 0 10.118-2.85 12.76-7.12 0.343-0.51 0.191-1.21-0.32-1.55-0.514-0.35-1.214-0.2-1.555 0.31-2.241 3.66-6.276 6.11-10.885 6.11-7.04 0-12.744-5.71-12.744-12.75 0-7.03 5.704-12.74 12.744-12.74 6.648 0 12.104 5.09 12.693 11.58h-14.846c-0.625 0-1.123 0.5-1.123 1.13 0 0.62 0.509 1.13 1.133 1.13h16.003c0.841 0 1.133-0.59 1.133-1.1 0-8.28-6.713-14.99-14.993-14.99s-14.992 6.71-14.992 14.99" fill="url(#c)"/>
      <path d="m-6.2499 592.3h0.0052zc-1.4535 0-2.556 1.14-2.6334 2.18v25.99c0.0774 1.04 1.1799 2.18 2.6334 2.19 1.4536-0.01 2.5535-1.15 2.6335-2.19v-25.99c-0.08-1.04-1.1799-2.18-2.6335-2.18m-0.0051 0h0.0051zm0.0051 30.35h0.0052-0.0052m-0.0051 0h0.0051-0.0051" fill="url(#d)"/>
      <path d="m37.701 592.32h0.005zc-1.431 0-2.51 1.14-2.587 2.16v19.16c0 0.7-0.437 2.43-2.092 3.21-3.557 1.7-5.388-1.55-5.388-1.55l-11.858-18.66c-1.369-2.38-5.598-5.78-11.347-3.64-5.5436 2.27-5.6133 8.04-5.6133 8.04v19.43c0.08 1.04 1.1825 2.06 2.636 2.07 1.451-0.01 2.5664-1.17 2.5664-2.37v-18.6s-0.2659-3.67 3.9528-4.05c2.4661-0.14 3.6791 2.42 3.6791 2.42s10.792 17.02 11.889 18.71c1.092 1.7 5.523 5.51 11.278 3.16 5.819-2.36 5.473-8.19 5.473-8.19l0.003-19.15c-0.078-1.02-1.162-2.15-2.592-2.15m-0.006 0h0.006zm-36.243 30.21h0.0052zm-0.0077 0h0.0077z" fill="url(#e)"/>
      <path d="m-14.463 629.04 0.008 8.85c0 0.43 0.346 0.77 0.767 0.77 0.426 0 0.772-0.34 0.772-0.77v-3.89h3.4001c2.7393 0 4.9597-2.22 4.9597-4.96 0-2.75-2.2204-4.97-4.9597-4.97-3.0341 0-4.9471 2.14-4.9471 4.97m1.539-0.01c0-1.98 1.268-3.48 3.3926-3.48 1.9157 0 3.47 1.56 3.47 3.48s-1.5543 3.46-3.47 3.46h-3.3876z" fill="url(#f)"/>
      <path d="m-4.2825 631.36c0 4.04 3.2867 7.33 7.3246 7.33 4.038 0 7.3249-3.29 7.3249-7.33s-3.2869-7.32-7.3249-7.32c-4.0379 0-7.3246 3.28-7.3246 7.32m1.6446 0c0-3.13 2.5483-5.68 5.68-5.68 3.1318 0 5.6827 2.55 5.6827 5.68s-2.5509 5.68-5.6827 5.68c-3.1317 0-5.68-2.55-5.68-5.68" fill="url(#g)"/>
      <path d="m21.466 624.59c-0.454 0-0.824 0.35-0.824 0.79 0 0.43 0.37 0.79 0.824 0.79h3.251v11.58c0 0.45 0.351 0.81 0.787 0.81 0.434 0 0.788-0.36 0.788-0.81v-11.58h3.209c0.454 0 0.823-0.36 0.823-0.79 0-0.44-0.369-0.79-0.823-0.79z" fill="url(#h)"/>
      <path d="m-20.755 624.05c-3.934 0-4.784 2.89-4.784 4.38s1.193 3.49 4.818 3.49c3.627 0 3.475 2.15 3.475 2.24 0 0.08 0.196 2.83-3.465 2.82-2.997-0.01-3.353-2.31-3.315-3.02 0-0.41-0.338-0.74-0.751-0.74-0.418 0-0.757 0.33-0.757 0.74-0.064 2.51 1.916 4.53 4.795 4.53 3.612 0 5.016-2.22 5.016-4.31s-1.652-3.79-5.006-3.79-3.32-1.92-3.32-1.92-0.214-2.95 3.328-2.95c3.545 0 3.271 3.21 3.271 3.21 0 0.41 0.336 0.74 0.746 0.74 0.408 0 0.741-0.33 0.741-0.74 0-4.59-4.409-4.68-4.768-4.68h-0.024" fill="url(#i)"/>
      <path d="m11.1 629.04 0.01 8.85c0 0.43 0.346 0.77 0.77 0.77 0.426 0 0.769-0.34 0.769-0.77v-3.89h3.336l2.595 4.23c0.211 0.37 0.689 0.5 1.063 0.29 0.375-0.22 0.504-0.69 0.289-1.07l-2.272-3.73c1.947-0.67 3.352-2.51 3.352-4.68 0-2.75-2.221-4.97-4.96-4.97-3.034 0-4.952 2.14-4.952 4.97m1.541-0.01c0-1.98 1.271-3.48 3.393-3.48 1.918 0 3.47 1.56 3.47 3.48s-1.552 3.46-3.47 3.46h-3.385z" fill="url(#j)"/>
      <path d="m38.535 628.83s0.271-3.2-3.269-3.2c-3.542 0-3.328 2.94-3.328 2.94s-0.039 1.92 3.318 1.92c3.353 0 5.006 1.7 5.006 3.78 0 2.09-1.402 4.32-5.014 4.32-2.884 0-4.864-2.02-4.797-4.53 0-0.41 0.341-0.74 0.754-0.74 0.415 0 0.756 0.33 0.756 0.74-0.038 0.71 0.315 3.01 3.313 3.02 3.661 0 3.467-2.74 3.467-2.82 0-0.09 0.152-2.24-3.475-2.24-3.63 0-4.818-2-4.818-3.49s0.847-4.39 4.782-4.39c0 0 4.792-0.1 4.792 4.69 0 0.41-0.331 0.74-0.744 0.74-0.408 0-0.743-0.33-0.743-0.74" fill="#512c80"/>
    </g>
    <path stroke-width=".40649" fill="url(#a)" d="m47.296 592.21c-0.868 0-1.655 0.35-2.225 0.92-0.071 0.08-0.138 0.15-0.205 0.23-0.064 0.08-0.123 0.16-0.179 0.24-0.06 0.09-0.112 0.17-0.161 0.26-0.048 0.09-0.093 0.19-0.13 0.28-0.041 0.1-0.075 0.19-0.108 0.29-0.03 0.1-0.056 0.2-0.078 0.3-0.019 0.11-0.034 0.21-0.045 0.32-0.011 0.1-0.019 0.21-0.019 0.32v29.86c0.015 2.3 0.604 4.46 1.626 6.35 0.205 0.38 0.428 0.75 0.667 1.11 0.596 0.88 1.293 1.7 2.076 2.42 1.726 1.59 3.862 2.73 6.233 3.26 0.865 0.19 1.756 0.3 2.669 0.32h26.364c0.522 0 1.003-0.12 1.435-0.35 0.015-0.01 0.026-0.01 0.045-0.02-0.008 0-0.008-0.01 0.018-0.02 0.962-0.54 1.656-1.57 1.656-2.76v-40.17c0-1.31-0.791-2.43-1.928-2.91-0.331-0.14-0.689-0.23-1.07-0.25h-36.615-0.026zm20.47 7.37c1.375 0 2.52 0.43 3.336 1.24 0.798 0.8 1.238 1.96 1.238 3.32v7.86c0 0.45-0.362 0.82-0.816 0.82-0.451 0-0.813-0.37-0.813-0.82v-3.29h-5.886v3.29c0 0.45-0.362 0.82-0.817 0.82-0.451 0-0.812-0.37-0.812-0.82v-7.86c0-1.36 0.436-2.52 1.252-3.32 0.798-0.81 1.946-1.24 3.318-1.24zm-17.077 0.2c0.648 0 1.219 0.44 1.401 1.06l2.733 9.22 2.744-9.22c0.167-0.62 0.756-1.06 1.405-1.06 0.738 0 1.357 0.56 1.446 1.28l1.357 10.82c0.015 0.03 0.015 0.08 0.015 0.11 0 0.45-0.376 0.83-0.827 0.83-0.422 0-0.772-0.32-0.832-0.73l-1.237-9.91-2.957 9.81c-0.149 0.48-0.604 0.83-1.114 0.83-0.5 0-0.969-0.35-1.104-0.83l-2.956-9.81-1.252 9.91c-0.06 0.41-0.392 0.73-0.817 0.73-0.466 0-0.827-0.38-0.827-0.83v-0.11l1.371-10.82c0.075-0.72 0.709-1.28 1.451-1.28zm23.731 0c0.287 0 0.53 0.14 0.679 0.35l3.247 4.64 3.243-4.64c0.164-0.21 0.406-0.35 0.678-0.35 0.466 0 0.832 0.38 0.832 0.83 0 0.17-0.049 0.33-0.138 0.47l-3.605 5.14 3.709 5.3c0.093 0.12 0.153 0.29 0.153 0.47 0 0.45-0.377 0.83-0.831 0.83-0.287 0-0.526-0.14-0.679-0.37l-3.362-4.79-3.352 4.79c-0.149 0.23-0.406 0.37-0.678 0.37-0.47 0-0.832-0.38-0.832-0.83 0-0.18 0.045-0.35 0.153-0.47l3.695-5.3-3.59-5.14c-0.09-0.14-0.149-0.3-0.149-0.47 0-0.45 0.376-0.83 0.827-0.83zm-6.654 1.49c-1.1 0-2.941 0.38-2.941 2.95v2.94h5.886v-2.94c0-2.57-1.842-2.95-2.945-2.95zm-8.769 15.99h2.692v14.05h-2.692zm7.691 0h2.67v14.05h-2.67v-5.93h-3.947v-2.49h3.947zm4.755 0h4.999c3.903 0 6.334 2.7 6.334 7.03 0 4.29-2.489 7.02-6.334 7.02h-1.255v-2.49h1.255c3.177 0 3.659-2.85 3.659-4.55 0-2.07-0.644-4.52-3.659-4.52h-2.324v11.56h-2.675zm-18.011 0.02c2.525 0 4.504 1.95 4.504 4.44 0 2.29-1.295 3.48-3.125 4.92l-3.074 2.4h6.142v2.22h-7.517c-1.285 0-2.053-0.63-2.053-1.68 0-0.8 0.41-1.12 1.161-1.72l0.134-0.1 4.636-3.64c0.395-0.31 1.322-1.18 1.322-2.38 0-1.3-0.974-2.24-2.314-2.24-1.482 0-2.399 0.96-2.399 2.5 0 0.99 0.716 1.73 1.556 2.05l-1.996 1.43c-1.253-0.8-1.931-2.09-1.931-3.72 0-2.91 2.555-4.48 4.954-4.48z"/>
  </g>
</svg>
