<svg xmlns="http://www.w3.org/2000/svg" viewBox="0 0 600 253.84"><defs><clipPath><path d="m48.05 349.53h51.657v22.635h-51.657v-22.635"/></clipPath></defs><g transform="translate(207.66-473.9)"><path d="m392.35 705.25c0 12.417-10.07 22.487-22.487 22.487h-555.03c-12.428 0-22.487-10.07-22.487-22.487v-208.86c0-12.417 10.06-22.487 22.487-22.487h555.03c12.417 0 22.487 10.07 22.487 22.487v208.86" fill="#be0c00"/><g fill="#fff"><path d="m127.72 494.05h122.73v38.493h-36.11v172.76h-48.9v-172.76h-37.715v-38.493"/><path d="m255.08 494.05h49.43v173.88h43.882v37.38h-93.32v-211.26"/><path d="m14.345 494.06v211.25h49.44v-94.56h11.313c13.206 0 17.719 5.37 17.719 17.531.209 16.772.538 41.31 1.281 53.22.383 10.372 4.775 23.646 9.781 23.844h45.906c-2.683-1.998-9-10.05-9.188-21.438-.174-10.02-.246-40.945-1.5-55.813 0-17.725-12.796-30.12-29.31-33.563v-.531c21.22-7.829 28.22-24.05 28.22-48.906 0-38.07-22.48-51.03-59.22-51.03h-64.44m49.44 35.938h9.156c10.01 0 18.281 5.691 18.281 20.5 0 13.752-3.99 24.875-16 24.875h-11.438v-45.37"/><path d="m-65.91 659.28h-37.413v33.777h37.413v-33.777m10.198 43.987h-57.809v-54.17h57.809v54.17"/><path d="m-83.12 498.53c-18.968 0-38.09 5.134-52.44 14.07-8.107 5.05-21.72 15.924-21.72 31.919 0 23.439 23.985 37.494 34.706 42.593 16.15 6.156 29.22 14.275 38.551 31.01 7.411-12.463 18.445-22.441 38.818-30.699 1.185-.616 2.416-1.231 3.717-1.87 14.217-7.085 31.907-15.89 31.907-42.04 0-10.43-7.201-21.314-19.746-29.839-14.345-9.768-33.452-15.15-53.79-15.15m0-10.198c47.11 0 83.73 26.692 83.73 55.18 0 35.659-27.853 46.01-41.548 53.17-26.332 10.558-34.26 23.312-40.688 40.25h-5.343c-7.933-23.904-20.13-33.07-39.619-40.43-18.19-8.572-40.897-25.704-40.897-51.99 0-33.28 42.605-56.18 84.36-56.18"/><path transform="translate(-207.66 473.9)" d="m73.813 40.16v61.53h19.375c10.674 0 14.813-7.501 14.813-18.19 0-6.377-2.612-13.284-9.09-14.06v-.156c5.448-1.382 7.688-7.23 7.688-13.781 0-9.211-4.242-15.344-13.406-15.344h-19.375m12.813 11.563h3.094c2.613 0 4.094 2.925 4.094 6.375 0 3.264-1.48 6.188-4.094 6.188h-3.094v-12.563m0 23.438h3.594c2.335 0 4.531 2.648 4.531 7.375 0 5.01-2.197 7.594-4.531 7.594h-3.594v-14.969"/><path d="m-93.33 514.07h29.14v13.09h-16.331v10.512h15.297v12.568h-15.297v12.231h16.958v13.09h-29.77v-61.49"/><path d="m-57.5 514.07h12.823v48.4h15.773v13.09h-28.597v-61.49"/></g></g></svg>