<svg xmlns="http://www.w3.org/2000/svg" viewBox="0 0 550 161"><g transform="translate(38.05-178.4)"><g fill="#7a7879"><path d="m239.53 275.61c-10.744 0-18.757-3.108-23.871-9.132 4.911 8.542 14 12.972 26.983 12.972h36.602v-22.1h-3.844v18.257h-35.87"/><path d="m241.25 196.66c-3.724 0-8 1.177-8 10.354v37.598c0 6.952 2.454 9.312 5.262 10.05-.877-1.445-1.416-3.631-1.416-6.942v-37.591c0-8.458 3.495-9.625 7.271-9.625 0 0 5.727 0 10.235 0 0-1.48 0-2.873 0-3.844-4.092 0-13.35 0-13.35 0"/><path d="m307.77 250.66c0 4.772 0 24.951 0 24.951h-21.262v3.844h25.11c0 0 0-19.45 0-24.951h22.772c0-1.638 0-2.989 0-3.844h-26.615"/><path d="m153.68 196.19c-1.019 0-1.422.213-1.474.271-.023.029-.11.232-.11.696v56.858c0 9.851-4.211 21.595-24.265 21.595h-15.533v3.844h18.644c20.66 0 24.993-12.144 24.993-22.327v-56.855c0-.077.006-.113.013-.161.164-.039.419-.077.845-.077 0 0 13.269 0 20.237 0 0-1.906 0-3.247 0-3.844-4.85 0-23.352 0-23.352 0"/><path d="m275.4 208.25h-18.412c0 2.157 0 3.844 0 3.844h22.259v-33.693h-3.847v29.849"/><path d="m102.07 196.66h-35.77c-1.01 0-1.825.816-1.825 1.822 0 0 0 12.853 0 17.329.78 0 2.128 0 3.844 0 0-5.611 0-14.214 0-14.214 0-.603.49-1.093 1.093-1.093h36.505v-22.1h-3.847v18.257"/><path d="m26.608 221.36c4.782 4.314 6.127 10.48 6.127 16.05v16.13c0 10.07-4.127 22.07-23.791 22.07h-25.851c-9.696 0-15.681-2.751-19.283-6.704 3.137 5.927 9.661 10.544 22.398 10.544h25.851c15.81 0 24.519-8.097 24.519-22.797v-16.14c0-6.981-2.041-14.878-9.97-19.16"/><path d="m-14.553 254.97h1.316c0-1.103 0-10.138 0-14.678 5.301 0 20.424 0 21.882 0v-1.325c0-1.561-.145-2.522-2.992-2.522 0 0-17.919 0-22.733 0 0 4.321 0 15.523 0 15.523 0 2.857.961 3 2.528 3"/><path d="m311.63 200.54c.152-.048.413-.103.974-.103 0 0 14.514 0 21.782 0v-3.844c-4.921 0-24.893 0-24.893 0-1.725 0-1.725.319-1.725 1.083 0 0 0 27.15 0 32.34h3.844c0-8.587 0-29.22 0-29.22 0-.116.001-.184.019-.252"/><path d="m-14.553 196.66c-1.983 0-2.686.429-2.686 2.841 0 0 0 11.918 0 16.31.864 0 2.215 0 3.844 0 0-5.349 0-13.195 0-13.195 0-2.025.406-2.112 1.954-2.112h41.3v-22.1h-3.844v18.257h-40.571"/><path d="m62.736 275.61c0 0-.1-.116-.132-.155-8.497-.371-13.891-3-17.235-6.655 2.938 5.53 8.845 9.925 20.02 10.483.032.036.145.168.145.168h40.38v-22.1h-3.847v18.257h-39.33"/><path d="m64.47 236.45c0 4.424 0 16.7 0 16.7 0 1.01.819 1.825 1.825 1.825h2.02c0-3.047 0-10.731 0-14.681 6.088 0 34.934 0 34.934 0v-22.1c0 0-1.49 0-3.847 0v18.257c0 0-29.766 0-34.931 0"/><path d="m200.18 275.61h-20.766c0 2.435 0 3.84 0 3.84h24.61v-101.05h-3.844v97.21"/><path d="m423.31 208.41c0 2.164 0 3.847 0 3.847h22.568v-33.854h-3.847v30.01h-18.722"/><path d="m368.36 196.66v3.844c0 0 11.528 0 17.822 0 0-1.902 0-3.244 0-3.844-3.379 0-13.25 0-17.822 0"/><path d="m420.93 196.66h-10.663c0 5.746 0 78.949 0 78.949h-21.707c0 2.438 0 3.844 0 3.844h25.548c0 0 0-71.991 0-78.949h6.823c0-1.483 0-2.873 0-3.844"/><path d="m358.02 275.61h-21.25c0 2.315 0 3.84 0 3.84h25.1v-101.05h-3.847v97.21"/><path d="m503.56 217.94c2.979 2.896 4.547 7.107 4.547 12.514v26.09c0 12.295-6.075 19.07-17.11 19.07h-52.934c-5.417 0-9.628-1.57-12.527-4.556 2.77 5.472 8.08 8.397 15.639 8.397h52.934c6.665 0 17.848-2.57 17.848-19.795v-26.09c0-7.552-2.928-12.859-8.393-15.629"/><path d="m399.47 304.89h7.636v-13.424h-35.853v7.397h10.373v40.532h9.164v-40.532h8.68v6.03m-60.998-3.905c0-1.412.822-2.154 2.473-2.154h14.381v20.356h-16.855v-18.202m-8.945-1.993v40.4h8.945v-12.808h16.855v12.808h8.938v-47.929h-27.373c-4.882 0-7.365 2.483-7.365 7.526"/><path d="m189.36 331.96h10.522c1.78 0 2.663-.809 2.663-2.505v-7.926c0-1.79-.884-2.838-2.583-3.244h-10.602v13.675m0-21.11h8.906c1.851 0 2.741-1.132 2.741-3.315v-5.185c0-2.505-1.045-3.718-3.147-3.718h-8.5v12.218m16.993 3.479c3.557.726 5.337 3.073 5.337 7.04v8.742c0 6.227-3.154 9.3-9.545 9.3h-22v-40.774h-4.292v-7.442h22.978c7.526 0 11.325 3.56 11.325 10.754v5.098c0 4.295-1.293 6.713-3.798 7.287"/><path d="m284.32 339.4h-25.967v-40.774h-4.04v-7.442h13.266v40.774h16.745v7.442"/><path d="m312.42 304.62v-5.994h-10.03c-2.025 0-3.079 1.051-3.079 3.076v7.04c0 1.78.893 2.67 2.589 2.67h9.467c6.717 0 10.112 3.479 10.112 10.354v7.842c0 6.559-3.563 9.793-10.676 9.793h-19.334v-7.439h17.638c2.096 0 3.154-1.051 3.154-3.241v-6.955c0-1.941-1.058-2.912-3.073-2.912h-8.822c-6.713 0-10.11-3.479-10.11-10.357v-6.952c0-6.878 3.637-10.357 10.918-10.357h18.931v13.433h-7.684"/><path d="m230.12 291.44c-7.242 0-10.857 3.134-10.857 9.487v28.953c0 6.272 3.534 9.396 10.576 9.477l.036.039h17.857v-7.4h-16.771c-1.396 0-2.531-1.132-2.531-2.528v-10.173h17.935v-7.404h-17.935v-10.496c0-1.399 1.135-2.531 2.531-2.531h16.771v-7.397h-17.612v-.026"/></g><path d="m424.04 205.3h14.878v-26.16h-69.83v14.41h20.2v78.949h17.861v-78.949h16.89v11.75m-119.39-7.613c0-2.747 1.615-4.198 4.837-4.198h28.01v39.645h-32.845v-35.447m-17.419-3.876v78.69h17.419v-24.951h32.845v24.951h17.406v-93.36h-53.32c-9.512 0-14.352 4.843-14.352 14.672m-222.59-14.713c-14.1 0-21.14 6.107-21.14 18.473v56.4c0 12.205 6.884 18.289 20.601 18.451l.068.081h34.78v-14.41h-32.658c-2.731 0-4.94-2.212-4.94-4.937v-19.815h34.934v-14.41h-34.934v-20.44c0-2.725 2.209-4.937 4.94-4.937h32.658v-14.41h-34.31v-.042m147.47 27.918v37.598c0 18.647 9.09 27.886 27.415 27.886h32.755v-14.41h-31.03c-7.365 0-11.11-4.547-11.11-13.475v-37.598c0-8.922 3.75-13.466 11.11-13.466h16.464v11.592h14.568v-26h-32.755c-18.322 0-27.415 9.238-27.415 27.876m-200.36 44.647c0 4.227-1.877 6.426-5.633 6.426h-20.676c-3.763 0-5.643-2.038-5.643-6.114v-18.638h25.848c4.073 0 6.104 1.883 6.104 5.633v12.692m-3.286-32.735h-28.824v-19.421c0-3.918 1.883-5.956 5.801-5.956h37.456v-14.41h-39.813c-14.09 0-21.14 6.11-21.14 18.477v56.4c0 12.379 7.05 18.486 21.14 18.486h25.854c13.782 0 20.672-6.268 20.672-18.957v-16.14c0-12.379-7.05-18.48-21.15-18.48m123.6-25.529v58.728c0 3.921-1.88 5.962-5.794 5.962h-13.24v14.41h14.801c14.1 0 21.15-6.11 21.15-18.48v-56.858c0-2.67 1.57-4.082 4.698-4.082h26.464v79.42h16.922v-93.36h-51.06c-9.245 0-13.94 4.705-13.94 14.259" fill="#334e6d"/><path d="m484.28 265.47h-9.799l-11.869-30.459h-4.895v-7.391h11.454l10.215 28.23 8.216-28.23h8.961l-12.282 37.849m5.543-49.01h-42.12v11.163h7.471v7.391h-7.471v20.421c0 1.912 1.077 2.825 3.154 2.734h2.409c.742 0 1.412 0 1.993-.077v7.381h-9.88c-4.401 0-6.559-2.315-6.559-6.884v-23.574h-4.975v-7.391h4.975v-11.163h-14.778v40.858c0 10.128 4.672 15.187 14.01 15.187h52.934c9.341 0 14-5.462 14-15.955v-26.09c0-9.322-5.04-14-15.171-14" fill="#f4661f"/><g fill="#fff"><path d="m433.84 227.62v7.391h4.979v23.574c0 4.569 2.157 6.884 6.555 6.884h9.883v-7.381c-.584.077-1.251.077-1.993.077h-2.412c-2.077.09-3.15-.822-3.15-2.734v-20.421h7.468v-7.391h-7.468v-11.16h-8.884v11.16h-4.979"/><path d="m479.38 255.84l-10.219-28.23h-11.45v7.391h4.892l11.873 30.459h9.799l12.279-37.849h-8.961l-8.213 28.23"/></g></g></svg>