<svg xmlns="http://www.w3.org/2000/svg" height="332.78" viewBox="0 0 513.75 332.7771"><g fill="#eabd3c"><path d="m171.9 262.22c-5.081-.114-10.131.706-14.916 2.496-12.35 4.621-23.24 19.819-23.24 32.436 0 6.04 3.657 15.721 8.08 21.4 5.01 6.43 12.244 10.901 21.273 13.148 10.797 2.687 22.358.287 31.24-6.486 4.698-3.583 9.957-13.362 11.227-20.875l.793-4.688h-14.432c-13.598 0-14.432.144-14.432 2.5 0 2.304.833 2.5 10.625 2.5 10.555 0 10.625.019 10.625 3.186 0 7.04-7.142 15.264-15.699 18.09-2.488.821-8.581 1.282-13.59 1.029-11.497-.581-19.449-5.05-25.02-14.06-5.421-8.768-5.997-20.254-1.463-29.2 8.84-17.445 31.443-21.741 49.986-9.5 4.189 2.765 5.076 2.955 6.619 1.412 1.543-1.543 1.126-2.237-3.115-5.176-7.544-5.228-16.1-8.02-24.564-8.207m207.14.126c-.714.017-1.434.055-2.158.113-12.442.999-21.842 7.655-28.484 20.17-3.651 6.88-3.887 22.971-.432 29.521 5.281 10.01 15.622 17.872 26.21 19.928 18.495 3.59 37.658-10.225 40.619-29.28 3.426-22.05-13.612-40.981-35.758-40.451m-379.04.71v33.92 33.922h12.73c14.169 0 20.837-2.199 25.283-8.334 5.364-7.402 3.475-20.245-3.666-24.924-3.752-2.459-3.902-4.702-.598-8.902 5.04-6.402 2.319-16.681-5.723-21.65-3.574-2.209-7.02-2.932-16.281-3.416l-11.745-.61zm90 .025v33.994 33.996l2.813-.4c2.719-.386 2.823-.905 3.162-15.711.327-14.278.519-15.312 2.813-15.312 2.13 0 13.863 13.48 24.795 28.488 1.397 1.918 3.14 2.842 4.838 2.566 2.339-.38 1.391-2.028-7.973-13.881-6.205-7.854-10.453-14.356-10.209-15.625.284-1.478 2.01-2.398 5.402-2.869 6.691-.931 10.26-3.05 13.17-7.822 3.111-5.101 3.107-12.872-.001-17.984-3.953-6.484-8.86-8.246-24.738-8.879l-14.06-.561m-43.751.316v33.75 33.75h18.75c17.822 0 18.75-.122 18.75-2.463 0-2.303-1.032-2.485-15.938-2.813l-15.938-.35v-13.75-13.75l15.938-.352c14.905-.327 15.938-.509 15.938-2.813 0-2.318-.913-2.461-15.492-2.461-17.934 0-17.01.716-17.01-13.191v-9.234l15.938-.35c15.454-.339 15.949-.435 16.336-3.162.399-2.81.382-2.813-18.438-2.813h-18.836m376.25 0v5.625 5.625h6.25 6.25v28.12 28.12h5.6 5.602l.336-27.812.338-27.812 5.809-.377c6.743-.436 4.577-4.427 17.85 32.877l8 22.5 5.588.375c5.131.344 5.688.089 6.846-3.125.693-1.925 6.102-16.868 12.02-33.2 5.917-16.337 10.76-29.978 10.76-30.31 0-.334-2.456-.607-5.457-.607h-5.455l-8.164 22.812c-5.075 14.181-8.861 22.953-10 23.18-1.339.271-3.8-5.15-9.08-20-3.987-11.204-7.704-21.637-8.262-23.18-.999-2.771-1.338-2.813-22.922-2.813h-21.904zm-189.28 1.248c-.367 0-2.72 4.359-5.228 9.688s-7.02 14.891-10.03 21.25c-3.01 6.359-7.978 16.906-11.05 23.438-5.363 11.406-5.475 11.875-2.813 11.852 2.261-.02 3.733-2.094 7.994-11.25l5.225-11.227h15.766 15.764l5.168 11.25c3.752 8.17 5.793 11.25 7.449 11.25 3.03 0 2.919-.738-1.469-9.797-2.063-4.258-3.75-7.94-3.75-8.184 0-.243-3.722-8.25-8.272-17.793s-9.581-20.305-11.182-23.914c-1.6-3.609-3.209-6.563-3.576-6.563m44.25 2.191c-.025-.007-.045-.002-.059.014-.722.825-1.797 7.958-7.82 51.859-1.57 11.446-1.539 12.188.533 12.188 2.852 0 2.97-.483 6.285-25.938 1.684-12.932 3.351-21.562 4.164-21.562.745 0 6.68 10.696 13.188 23.77l11.832 23.77 11.586-23.14c6.372-12.73 12.287-23.14 13.146-23.14 1.079 0 2.528 7.06 4.682 22.812 2.889 21.13 3.313 22.839 5.768 23.19 2.623.374 2.635.273 1.092-10-.858-5.708-2.841-19.658-4.406-31-1.565-11.344-3.211-21.345-3.658-22.22-.463-.908-6.3 9.729-13.549 24.688-7 14.456-13.474 26.29-14.375 26.29-.901 0-7.492-11.806-14.648-26.23-6.933-13.977-12.985-25.11-13.76-25.326m102.11.752c5.447-.118 10.916.837 14.795 2.902 9.09 4.839 14.14 12.6 15.256 23.453 1.368 13.251-4.787 25.04-16.08 30.803-5.185 2.645-19.232 3.216-24.766 1.01-13.02-5.197-20.366-19.95-17.486-35.13 1.586-8.363 6.397-15.251 13.611-19.492 3.796-2.231 9.221-3.423 14.668-3.541m-283.33 1.25l10.891.33c11.929.363 15.616 1.673 17.721 6.291 2.459 5.396 1.675 10.335-2.266 14.275-3.502 3.502-4.126 3.654-15 3.654h-11.346v-12.275-12.275m-85 5.798l4.688.041c6.396.054 9.06 2.361 9.06 7.84 0 3.211-.787 5.03-2.779 6.424-2.831 1.983-8.632 2.62-10.139 1.113-.458-.46-.832-4.12-.832-8.13v-7.293zm222.09 3.752c1.56 0 11.658 20.18 11.658 23.297 0 1.317-2.689 1.703-11.875 1.703-9.67 0-11.875-.346-11.875-1.857 0-3.13 10.456-23.14 12.09-23.14m-222.09 22.19l6.855.57c8.656.72 11.895 3.4 11.895 9.86 0 3.476-.74 5.253-2.779 6.682-1.662 1.164-5.427 1.947-9.375 1.947h-6.596v-9.531-9.529z"/><path d="m267.34.006c-4.934-.044-9.796.174-14.529.664-13.9 1.439-30.6 5.272-36.69 8.422-4.58 2.367-10.38 2.284-20.08-.293-6.49-1.722-14.34-2.117-43.54-2.188l-35.625-.086-.32 117.21-.318 117.22 3.213 1.221c4.479 1.703 68.24 1.544 84.44-.211 12.653-1.371 13.897-1.286 26.875 1.84 7.484 1.802 15.02 3.495 16.734 3.764 1.719.268 12.12.565 23.12.658 17.324.146 21.69-.243 32.643-2.897 22.415-5.43 36.28-12.891 52.16-28.07 8.205-7.844 17.962-21.517 22.619-31.699 7.376-16.13 13.988-50.07 10.559-54.2-1.19-1.433-9.888-1.677-50.34-1.406l-48.896.328-.363 10.312c-.2 5.672-.2 10.414 0 10.539.2.125 16.957.547 37.24.938l36.875.711.385 3.328c.451 3.9-5.141 20.952-8.977 27.375-10.836 18.15-29.13 32.33-50.783 39.37-9.1 2.957-13.281 3.535-29.08 4.02-19.994.608-26.926-.107-27.992-2.887-.377-.982 1.906-5.717 5.072-10.523 10.739-16.3 14.216-30.501 11.932-48.723-2.37-18.904-13.63-35.813-30.557-45.891-4.447-2.647-8.095-5.688-8.107-6.756-.012-1.068 2-3.881 4.473-6.25 19.828-19 23.406-47.827 8.699-70.05-6.507-9.832-3.551-11.973 18.682-13.537 21.856-1.538 36.778.86 57.5 9.238 11.454 4.631 27.553 14.674 37.35 23.299 3.042 2.678 6.03 4.869 6.629 4.869 2.227 0 15.919-14.977 14.719-16.1-11.65-10.896-28.38-22.349-42.48-29.09-19.17-9.159-41.87-14.266-63.25-14.457zm-106.72 49.02h13.12c14.505 0 19.258 1.466 25.336 7.818 6.298 6.583 7.66 17.663 3.389 27.574-2.694 6.251-7.978 10.725-15.07 12.76-5.089 1.459-22.15 2.596-25.24 1.682-2.036-.602-2.186-2.625-1.875-25.24l.34-24.59m-.621 89.37h12.422c25.774 0 41.19 6.735 46.836 20.465 2.454 5.965 2.598 19.451.266 24.887-2.61 6.083-9.36 11.626-17.02 13.979-6.839 2.1-37.639 3.922-40.938 2.422-1.19-.54-1.56-8.03-1.56-31.23v-30.52z"/></g></svg>