<svg xmlns="http://www.w3.org/2000/svg" viewBox="0 0 600 189.34"><path d="m0 0v189.34h104.75c27.25 0 39.19-3.082 49.41-12.469 9.362-8.528 14.188-21.87 14.188-37.469 0-.423-.019-.858-.031-1.281 7.83 22.2 21.693 38.26 39.719 44.688 12.773 4.544 29.23 6.531 52.781 6.531h43.562v-48.625h-31.438c-37.81-.09-50.2 3.33-56.78-24.22h88.22v-42.75l-88.31-.094s4.401-25 30.594-25h26.531 60.41v140.69h54.906v-140.69h69l15.15-48.66h-227.44c-20.715 0-33.23 2.844-43.44 9.09-8.528 5.403-16.438 12.775-22.688 21.875-4.307 6.05-7.767 12.283-10.469 18.906v-.188c0-24.699-15.87-44.558-38.31-47.969-5.95-.847-15.88-1.719-23.28-1.719h-107.03zm46.47 48.812h59.31c14.702 0 13.969 12.312 13.969 12.312 0 12.885-14 12.344-14 12.344h-59.28v-24.656m115.84 25.75c-.747 5.826-1.125 11.965-1.125 18.562 0 7.345.491 14.44 1.438 21.19-4.506-8.428-11.647-15.01-21.531-19.469 8.801-3.61 16.289-11.03 21.22-20.281m-115.72 41.656h59.31c14.677 0 13.969 12.312 13.969 12.312 0 12.885-14 12.344-14 12.344h-59.28v-24.656"/><path d="m600 73.55h-75.889l-23.317-73.42-23.28 73.42h-75.901l61.52 43.982-23.628 71.51 61.29-44.36 61.32 44.36-23.6-71.51 61.49-43.985z"/></svg>