<?xml version="1.0" encoding="UTF-8" standalone="no"?>
<!-- Created with Inkscape (http://www.inkscape.org/) -->
<svg xmlns:rdf="http://www.w3.org/1999/02/22-rdf-syntax-ns#" xmlns="http://www.w3.org/2000/svg" xmlns:cc="http://creativecommons.org/ns#" xmlns:xlink="http://www.w3.org/1999/xlink" xmlns:dc="http://purl.org/dc/elements/1.1/" height="247.58" width="600" version="1.1">
  <defs>
    <linearGradient id="linearGradient10791" gradientUnits="userSpaceOnUse" gradientTransform="matrix(599.98573,0,0,599.98573,-113.33851,310.92281)" x1="0" x2="1" y1="0" y2="0">
      <stop stop-color="#312783" offset="0"/>
      <stop stop-color="#0087cc" offset="1"/>
    </linearGradient>
    <linearGradient id="linearGradient10796" gradientUnits="userSpaceOnUse" gradientTransform="matrix(-649.43724,-5.7729315e-5,5.7729315e-5,-649.43724,462.2828,312.1305)" x1="0" x2="1" y1="0" y2="0">
      <stop stop-color="#FC0" offset="0"/>
      <stop stop-color="#df7a0e" offset="1"/>
    </linearGradient>
  </defs>
  <metadata>
    <rdf:RDF>
      <cc:Work rdf:about="">
        <dc:format>image/svg+xml</dc:format>
        <dc:type rdf:resource="http://purl.org/dc/dcmitype/StillImage"/>
        <dc:title/>
      </cc:Work>
    </rdf:RDF>
  </metadata>
  <g transform="translate(113.31926,-187.12884)">
    <path fill="url(#linearGradient10791)" d="m-113.32,434.71,600,0,0-247.58-600,0,0,247.58z"/>
    <path fill="url(#linearGradient10796)" d="m174.29,209.6-15.895,65.465-0.30789,0-15.895-65.465-131.24,0,0,65.427c-3.3556-8.43-10.052-13.28-17.172-15.74,8.2745-4.5,13.74-10.54,13.74-21.82,0-11.353-6.2348-27.864-35.561-27.864h-60.962v111.3h63.156c15.856,0,31.366-7.6972,36.793-22.36v22.36h34.291v-42.412h31.289v-25.555h-31.366v-16.818h48.223v84.785h32.405v-71.392h0.34638l19.32,71.392h25.555l19.32-71.392h0.34638v71.392h32.405v-111.3h-48.801zm-229.03,26.517,18.165,0c7.0045,0,11.661,2.0013,11.661,7.5818,0,7.1969-4.5414,9.2367-11.661,9.2367h-18.165v-16.818zm0.07697,37.563,21.514,0c8.1206,0,12.008,3.5792,12.008,10.122,0,8.5439-6.2348,10.584-13.432,10.584h-20.09v-20.706zm479.96,56.806c-8.2745,0-16.357,1.9628-22.476,6.3502-6.1193,4.3489-10.16,11.161-10.122,20.475-0.0385,8.236,3.7332,13.393,9.0443,16.742,5.2341,3.3868,12.008,5.1187,18.242,6.889,6.7736,1.9628,11.007,3.1944,13.432,4.4259,2.4246,1.27,2.925,2.1167,3.0019,3.8486-0.0385,2.6556-1.3085,4.118-3.1174,5.0802-1.8473,1.0006-4.2335,1.3085-6.1578,1.3085-4.4644,0-9.3137-1.0006-10.815-5.1956-0.5388-1.347-0.84669-3.0404-0.84669-4.9262v-0.76973h-25.901v0.76973c0.077,12.893,6.7736,20.321,14.509,24.323,7.6972,4.041,16.395,4.8493,20.936,4.8493,8.9288,0,18.127-1.6549,25.247-6.0038,7.0815-4.3104,12.046-11.43,12.008-21.937,0.0385-15.01-11.623-20.475-22.745-23.515-5.619-1.5779-11.238-2.6556-15.433-4.041-4.272-1.347-6.7351-3.0019-6.8506-5.1956,0.0385-1.7704,1.0391-2.771,2.6171-3.5022,1.6164-0.73124,3.7332-0.92367,5.2726-0.92367,2.3092,0,4.9647,0.5388,6.7351,1.8473,1.6164,1.0776,2.5786,2.4631,2.6171,4.5029,0,0.30789-0.0385,0.65427-0.11545,1.0006l-0.077,0.92367h24.67v-0.80821c-0.65426-19.628-16.241-26.517-33.291-26.517h-0.38486m-73.663,0c-8.236,0-16.318,1.9628-22.437,6.3502-6.1193,4.3489-10.16,11.161-10.16,20.475-0.0385,8.236,3.7716,13.393,9.0443,16.742,5.3111,3.3868,12.046,5.1187,18.281,6.889,6.7736,1.9628,11.007,3.1944,13.432,4.4259,2.4631,1.27,2.8865,2.1167,2.9634,3.8486-0.0385,2.6556-1.27,4.118-3.1174,5.0802-1.8088,1.0006-4.2335,1.3085-6.1193,1.3085-4.4644,0-9.3137-1.0006-10.853-5.1956-0.50032-1.347-0.80821-3.0404-0.80821-4.9262v-0.76973h-25.901v0.76973c0.077,12.893,6.8121,20.321,14.471,24.323,7.6972,4.041,16.434,4.8493,21.013,4.8493,8.8518,0,18.127-1.6549,25.208-6.0038,7.12-4.3104,12.008-11.43,12.008-21.937,0-15.01-11.584-20.475-22.784-23.515-5.619-1.5779-11.199-2.6556-15.394-4.041-4.2335-1.347-6.7736-3.0019-6.889-5.1956,0.0385-1.7704,1.0391-2.771,2.6556-3.5022,1.5779-0.73124,3.6947-0.92367,5.3111-0.92367,2.3092,0,4.8878,0.5388,6.6581,1.8473,1.6549,1.0776,2.6556,2.4246,2.6556,4.5029,0,0.30789-0.0385,0.65427-0.077,1.0006l-0.15394,0.92367h24.747l-0.0385-0.80821c-0.65427-19.628-16.203-26.517-33.329-26.517h-0.38486m-252.66,0c-8.236,0-16.357,1.9628-22.437,6.3502-6.1193,4.3489-10.16,11.161-10.16,20.475-0.03849,8.236,3.7716,13.393,9.0443,16.742,5.2726,3.3868,12.008,5.1187,18.242,6.889,6.7736,1.9628,11.007,3.1944,13.432,4.4259,2.4631,1.27,2.925,2.1167,3.0019,3.8486-0.0385,2.6556-1.3085,4.118-3.1174,5.0802-1.8089,1.0006-4.2335,1.3085-6.1578,1.3085-4.4644,0-9.3137-1.0006-10.815-5.1956-0.53881-1.347-0.8467-3.0404-0.8467-4.9262v-0.76973h-25.863v0.76973c0.07697,12.893,6.7736,20.321,14.471,24.323,7.7357,4.041,16.434,4.8493,20.975,4.8493,8.8903,0,18.089-1.6549,25.247-6.0038,7.0815-4.3104,12.008-11.43,12.008-21.937,0-15.01-11.623-20.475-22.784-23.515-5.619-1.5779-11.238-2.6556-15.433-4.041-4.2335-1.347-6.7351-3.0019-6.8505-5.1956,0.03849-1.7704,1.0391-2.771,2.6171-3.5022,1.6164-0.73124,3.7332-0.92367,5.3111-0.92367,2.3092,0,4.9262,0.5388,6.6966,1.8473,1.6164,1.0776,2.6171,2.4631,2.6171,4.5029,0,0.30789-0.0385,0.65427-0.077,1.0006l-0.11546,0.92367h24.708v-0.80821c-0.69275-19.628-16.241-26.517-33.329-26.517h-0.38486m148.4,1.8858,0,80.398,68.121,0,0-21.822-42.219,0,0-8.1976,37.216,0,0-20.359-37.216,0,0-8.1976,40.949,0,0-21.822-66.851,0zm-30.212,0,0,40.218-21.899-40.218-26.132,0,0,80.398,24.554,0,0-41.18,23.13,41.18,24.901,0,0-80.398-24.554,0zm-79.474,80.398,25.863,0,0-80.436-25.863,0,0,80.436zm-101.8-80.398,0,43.72c0.03849,4.041,0,8.5054-1.347,11.777-1.3855,3.2713-3.8101,5.5035-9.3137,5.5035-5.696,0-8.1976-2.2322-9.6216-5.542-1.3855-3.2713-1.424-7.6972-1.424-11.738v-43.72h-25.863v49.147c0,11.046,3.0019,19.436,9.2367,24.978s15.394,8.1591,27.556,8.1591c12.123,0,21.283-2.6171,27.518-8.1591,6.1578-5.542,9.1597-13.932,9.1597-24.978v-49.147h-25.901zm-124.85,0,0,80.398,45.529,0c14.163-0.0385,28.403-8.39,28.403-24.747,0.03849-11.046-5.9654-17.011-12.662-19.82,5.1956-3.1944,8.6979-7.7357,8.6594-15.279,0-4.195-1.1161-9.3521-5.0032-13.47-3.8871-4.118-10.43-7.0815-20.975-7.0815h-43.951zm25.901,20.359,12.008,0c2.3861,0,4.3489,0.38487,5.5805,1.1161,1.2316,0.73124,1.8473,1.7319,1.8858,3.4638-0.07697,4.6184-2.4631,5.5805-7.4663,5.7344h-12.008v-10.314zm0,26.594,14.432,0c5.542,0.15395,7.5818,2.1168,7.6972,6.3887-0.03849,5.542-3.6947,6.5812-8.6979,6.6966h-13.432v-13.085z"/>
  </g>
</svg>
