<svg xmlns="http://www.w3.org/2000/svg" viewBox="0 0 600 247.58"><defs><linearGradient id="0" gradientUnits="userSpaceOnUse" x1="-113.34" x2="486.65"><stop stop-color="#312783"/><stop stop-color="#0087cc" offset="1"/></linearGradient><linearGradient id="1" gradientUnits="userSpaceOnUse" x1="462.28" x2="-187.15"><stop stop-color="#fc0"/><stop stop-color="#df7a0e" offset="1"/></linearGradient></defs><g transform="translate(113.32-187.13)"><path fill="url(#0)" d="m-113.32 434.71h600v-247.58h-600v247.58"/><path fill="url(#1)" d="m174.29 209.6l-15.895 65.47h-.308l-15.895-65.47h-131.24v65.43c-3.356-8.43-10.05-13.28-17.17-15.74 8.274-4.5 13.74-10.54 13.74-21.82 0-11.353-6.235-27.864-35.561-27.864h-60.962v111.3h63.16c15.856 0 31.366-7.697 36.793-22.36v22.36h34.29v-42.41h31.29v-25.555h-31.366v-16.818h48.22v84.78h32.405v-71.39h.346l19.32 71.39h25.555l19.32-71.39h.346v71.39h32.405v-111.3h-48.801zm-229.03 26.517h18.16c7 0 11.661 2 11.661 7.582 0 7.197-4.541 9.237-11.661 9.237h-18.16v-16.818m.077 37.563h21.514c8.121 0 12.01 3.579 12.01 10.122 0 8.544-6.235 10.584-13.432 10.584h-20.09v-20.706m479.96 56.806c-8.274 0-16.357 1.963-22.476 6.35-6.119 4.349-10.16 11.161-10.122 20.475-.038 8.236 3.733 13.393 9.04 16.742 5.234 3.387 12.01 5.119 18.242 6.889 6.774 1.963 11.01 3.194 13.432 4.426 2.425 1.27 2.925 2.117 3 3.849-.038 2.656-1.308 4.118-3.117 5.08-1.847 1-4.233 1.308-6.158 1.308-4.464 0-9.314-1-10.815-5.196-.539-1.347-.847-3.04-.847-4.926v-.77h-25.901v.77c.077 12.893 6.774 20.321 14.509 24.323 7.697 4.04 16.395 4.849 20.936 4.849 8.929 0 18.13-1.655 25.25-6 7.082-4.31 12.05-11.43 12.01-21.937.038-15.01-11.623-20.475-22.745-23.515-5.619-1.578-11.238-2.656-15.433-4.04-4.272-1.347-6.735-3-6.851-5.196.038-1.77 1.039-2.771 2.617-3.502 1.616-.731 3.733-.924 5.273-.924 2.309 0 4.965.539 6.735 1.847 1.616 1.078 2.579 2.463 2.617 4.503 0 .308-.038.654-.115 1l-.077.924h24.67v-.808c-.654-19.628-16.241-26.517-33.29-26.517h-.385m-73.66 0c-8.236 0-16.318 1.963-22.437 6.35-6.119 4.349-10.16 11.161-10.16 20.475-.038 8.236 3.772 13.393 9.04 16.742 5.311 3.387 12.05 5.119 18.281 6.889 6.774 1.963 11.01 3.194 13.432 4.426 2.463 1.27 2.887 2.117 2.963 3.849-.038 2.656-1.27 4.118-3.117 5.08-1.809 1-4.233 1.308-6.119 1.308-4.464 0-9.314-1-10.853-5.196-.5-1.347-.808-3.04-.808-4.926v-.77h-25.901v.77c.077 12.893 6.812 20.321 14.471 24.323 7.697 4.04 16.434 4.849 21.01 4.849 8.852 0 18.13-1.655 25.21-6 7.12-4.31 12.01-11.43 12.01-21.937 0-15.01-11.584-20.475-22.784-23.515-5.619-1.578-11.199-2.656-15.394-4.04-4.233-1.347-6.774-3-6.889-5.196.038-1.77 1.039-2.771 2.656-3.502 1.578-.731 3.695-.924 5.311-.924 2.309 0 4.888.539 6.658 1.847 1.655 1.078 2.656 2.425 2.656 4.503 0 .308-.038.654-.077 1l-.154.924h24.747l-.038-.808c-.654-19.628-16.203-26.517-33.33-26.517h-.385m-252.66 0c-8.236 0-16.357 1.963-22.437 6.35-6.119 4.349-10.16 11.161-10.16 20.475-.038 8.236 3.772 13.393 9.04 16.742 5.273 3.387 12.01 5.119 18.242 6.889 6.774 1.963 11.01 3.194 13.432 4.426 2.463 1.27 2.925 2.117 3 3.849-.038 2.656-1.308 4.118-3.117 5.08-1.809 1-4.234 1.308-6.158 1.308-4.464 0-9.314-1-10.815-5.196-.539-1.347-.847-3.04-.847-4.926v-.77h-25.863v.77c.077 12.893 6.774 20.321 14.471 24.323 7.736 4.04 16.434 4.849 20.975 4.849 8.89 0 18.09-1.655 25.25-6 7.081-4.31 12.01-11.43 12.01-21.937 0-15.01-11.623-20.475-22.784-23.515-5.619-1.578-11.238-2.656-15.433-4.04-4.234-1.347-6.735-3-6.85-5.196.038-1.77 1.039-2.771 2.617-3.502 1.616-.731 3.733-.924 5.311-.924 2.309 0 4.926.539 6.697 1.847 1.616 1.078 2.617 2.463 2.617 4.503 0 .308-.038.654-.077 1l-.115.924h24.708v-.808c-.693-19.628-16.241-26.517-33.33-26.517h-.385m148.4 1.886v80.4h68.12v-21.822h-42.22v-8.198h37.22v-20.359h-37.22v-8.198h40.949v-21.822h-66.851zm-30.21 0v40.22l-21.899-40.22h-26.13v80.4h24.554v-41.18l23.13 41.18h24.901v-80.4h-24.554m-79.47 80.4h25.863v-80.44h-25.863v80.44m-101.8-80.4v43.72c.038 4.04 0 8.505-1.347 11.777-1.386 3.271-3.81 5.503-9.314 5.503-5.696 0-8.198-2.232-9.622-5.542-1.386-3.271-1.424-7.697-1.424-11.738v-43.72h-25.863v49.15c0 11.05 3 19.436 9.237 24.978s15.394 8.159 27.556 8.159c12.12 0 21.283-2.617 27.518-8.159 6.158-5.542 9.16-13.932 9.16-24.978v-49.15h-25.901m-124.85 0v80.4h45.529c14.163-.038 28.403-8.39 28.403-24.747.038-11.05-5.965-17.01-12.662-19.82 5.196-3.194 8.698-7.736 8.659-15.279 0-4.195-1.116-9.352-5-13.47-3.887-4.118-10.43-7.082-20.975-7.082h-43.951m25.901 20.358h12.01c2.386 0 4.349.385 5.581 1.116 1.232.731 1.847 1.732 1.886 3.464-.077 4.618-2.463 5.58-7.466 5.734h-12.01v-10.314m0 26.594h14.432c5.542.154 7.582 2.117 7.697 6.389-.038 5.542-3.695 6.581-8.698 6.697h-13.432v-13.08"/></g></svg>