<svg xmlns="http://www.w3.org/2000/svg" viewBox="0 0 600 212.88"><defs><linearGradient id="0" gradientUnits="userSpaceOnUse" x1="69.66" x2="669.63"><stop stop-color="#ffcb05"/><stop stop-color="#e07e27" offset="1"/></linearGradient><linearGradient id="1" gradientUnits="userSpaceOnUse" x1="669.63" x2="-37.2"><stop stop-color="#2e3192"/><stop stop-color="#008cd0" offset="1"/></linearGradient><linearGradient id="2" gradientUnits="userSpaceOnUse" x1="69.66" x2="669.63"><stop stop-color="#ffefc8"/><stop stop-color="#f6dabf" offset="1"/></linearGradient></defs><g transform="translate(-69.63-326.58)"><path d="m669.63 539.45h-599.96v-212.83h599.96v212.83" fill="#fff"/><path d="m69.63 454.8h599.96v-128.22h-599.96z" fill="url(#0)"/><path fill="url(#1)" d="m69.63 539.45h599.96v-84.66h-599.96v84.66"/><path fill="#fff" d="m464.97 346.8l-14.507 54.724h-.251l-14.799-54.724h-92.1v23.12h22.742v67.1h27.801v-67.1h20.401l20.02 67.1h31.06l28.18-90.22h-28.554z"/><path d="m134.48 415.53h-16.304v-16.806h17.433c6.564 0 9.741 2.926 9.741 8.194 0 6.982-5.059 8.612-10.87 8.612m-16.388-47.24h14.758c5.686 0 9.448 1.63 9.448 6.187 0 5.811-3.637 7.442-9.448 7.442h-14.758v-13.629zm185.66-21.488l-12.876 53.05h-.251l-12.876-53.05h-106.35v53.05c-2.717-6.856-8.152-10.744-13.921-12.751 6.689-3.637 11.12-8.57 11.12-17.684 0-9.239-5.059-22.617-28.804-22.617h-49.41v90.22h51.17c12.876 0 25.46-6.229 29.85-18.1v18.1h27.759v-34.37h25.376v-20.736h-25.418v-13.629h39.09v68.73h26.296v-57.86h.251l15.635 57.86h20.736l15.677-57.86h.251v57.86h26.25v-90.22h-39.548z"/><g fill="#fff"><path d="m90.54 473.31h9.657l43.98 42.18v-42.18h6.48v47.993h-9.657l-43.98-42.14v42.14h-6.48v-47.993"/><path d="m169.1 473.31h47.12v5.309h-40.635v15.301h39.05v5.309h-39.05v16.764h40.928v5.309h-47.41v-47.993"/><path d="m229.56 473.31h6.355l16.764 41.973 16.472-41.973h8.319l16.263 42.18 16.973-42.18h6.354l-19.06 47.993h-8.361l-16.304-42.14-16.346 42.14h-8.319l-19.1-47.993"/><path d="m325.69 506.19h6.104v3.386c0 4.682 2.508 6.982 10.619 6.982h20.15c9.406 0 12.207-2.01 12.207-8.905 0-6.02-2.425-7.567-10.493-7.567h-12.333c-19.816 0-26.338-1.171-26.338-13.921 0-10.911 6.522-13.378 19.9-13.378h14c16.09 0 20.15 4.097 20.15 12.667v1.63h-6.104c-.125-7.609-.92-8.988-17.977-8.988h-6.898c-12.5 0-16.973.669-16.973 8.528 0 5.727 1.798 7.651 11.957 7.651h19.231c12.667 0 17.935 3.637 17.935 11.789v3.094c0 11.831-9.657 12.709-19.273 12.709h-18.06c-9.448 0-17.809-1.672-17.809-12.166v-3.512"/><path d="m422.75 512.84c0-10.493 5.1-13.211 15.97-14l21.363-1.505c9.365-.669 10.159-3.052 10.159-9.156 0-6.982-1.463-10.07-10.07-10.07h-20.15c-6.94 0-10.953.711-10.953 10.284v2.634h-6.104v-4.515c0-10.07 5.518-13.712 16.848-13.712h20.276c13.796 0 16.221 6.229 16.221 15.719 0 12.793-4.808 13.587-20.61 14.632l-9.908.669c-15.259 1-16.931 1.589-16.931 7.943v4.264h48.12v5.309h-54.22v-8.487z"/><path d="m530.35 477.96l-36.12 27.843v.125h36.12v-27.968m-42.22 25.711l39.465-30.351h8.863v32.609h8.03v5.309h-8.03v10.08h-6.104v-10.07h-42.22v-7.567"/><path d="m575.04 472.78h5.644l-24.958 49.08h-5.56l24.875-49.08"/><path d="m642.4 478.61h-48.997v-5.309h55.1v7.232l-35.619 40.803h-7.734l37.25-42.726"/></g><path fill="url(#2)" d="m519.63 346.81c-.418 0-.794.084-1.171.251-.376.125-.711.334-.962.627-.251.251-.502.585-.627.962-.167.334-.251.753-.251 1.171v84.07c0 .418.084.794.251 1.171.125.334.376.669.627.92.251.293.585.502.962.669.376.125.753.209 1.171.209h125.88c.418 0 .794-.084 1.171-.209.376-.167.669-.376.92-.669.334-.251.502-.585.669-.92.125-.376.251-.752.251-1.171v-84.07c0-.418-.125-.836-.251-1.171-.167-.376-.334-.711-.669-.962-.251-.293-.543-.502-.92-.627-.376-.167-.753-.251-1.171-.251h-125.88m79.56 18.478h24.916c1.296 0 2.55.042 3.763.125 1.171.125 2.299.209 3.345.418 1.045.125 2.048.376 2.926.585.92.293 1.714.585 2.508.92.753.334 1.463.711 2.174 1.087.627.418 1.212.878 1.798 1.296.543.502 1 1 1.421 1.547.46.502.836 1.087 1.129 1.672.293.585.585 1.254.794 1.881.209.669.376 1.338.502 2.09.084.711.167 1.463.167 2.257 0 .752 0 1.547-.125 2.383-.042.836-.167 1.714-.334 2.55-.125.878-.334 1.756-.543 2.634-.209.962-.502 1.839-.794 2.801-.293.92-.627 1.923-1 2.885-.376 1.045-.794 2.01-1.254 2.926-.418.962-.92 1.881-1.38 2.801-.502.92-1.045 1.756-1.589 2.634-.585.878-1.129 1.714-1.756 2.467-.627.794-1.254 1.589-1.923 2.341-.669.711-1.338 1.421-2.048 2.132-.711.669-1.421 1.338-2.174 1.923-.753.627-1.505 1.212-2.299 1.798-.836.543-1.63 1.087-2.467 1.547-.794.502-1.672.962-2.55 1.38-.836.46-1.714.836-2.634 1.212-.878.376-1.84.711-2.759 1-.962.293-1.881.543-2.885.794-.92.209-1.923.418-2.885.543-.962.125-1.965.251-2.968.334-.962.042-2.01.084-3.01.084h-26.17l20.11-53.05m-34.574 17.977l6.814-17.977h20.987l-20.11 53.05h-20.987l7.4-19.523h-8.988l-7.4 19.523h-20.987l20.11-53.05h20.987l-6.773 17.977h8.947m50.585-5.937l-10.953 28.972h2.048c.418 0 .836 0 1.254-.042.376 0 .753-.084 1.129-.167.376-.084.753-.167 1.087-.251.334-.125.627-.251.962-.376.334-.167.627-.334.92-.502.293-.209.585-.376.878-.627.334-.167.627-.376.878-.627l.836-.794c.293-.251.543-.543.836-.878.251-.334.502-.669.794-1.045.251-.376.502-.794.753-1.171.251-.418.502-.878.753-1.338.209-.46.46-.92.711-1.421.251-.543.46-1.045.753-1.63.209-.543.46-1.129.711-1.714.251-.627.502-1.212.753-1.881.209-.669.46-1.296.669-1.881.209-.627.418-1.171.627-1.756.125-.502.293-1.087.418-1.547.167-.502.293-1 .376-1.463.125-.46.209-.878.293-1.296.042-.418.084-.836.084-1.212.042-.376.042-.711 0-1-.042-.334-.042-.627-.084-.962l-.293-.753-.376-.669-.418-.543-.585-.502-.669-.376c-.251-.125-.585-.251-.878-.293-.293-.084-.627-.125-1-.167-.376-.042-.794-.084-1.212-.084h-2.048"/></g></svg>