<?xml version="1.0" encoding="UTF-8" standalone="no"?>
<!-- Created with Inkscape (http://www.inkscape.org/) -->
<svg xmlns:rdf="http://www.w3.org/1999/02/22-rdf-syntax-ns#" xmlns="http://www.w3.org/2000/svg" xmlns:cc="http://creativecommons.org/ns#" xmlns:xlink="http://www.w3.org/1999/xlink" xmlns:dc="http://purl.org/dc/elements/1.1/" height="212.88" width="600" version="1.1">
  <defs>
    <linearGradient id="linearGradient16123" gradientUnits="userSpaceOnUse" gradientTransform="matrix(599.97412,0,0,599.97412,69.657578,390.69827)" x1="0" x2="1" y1="0" y2="0">
      <stop stop-color="#ffcb05" offset="0"/>
      <stop stop-color="#e07e27" offset="1"/>
    </linearGradient>
    <linearGradient id="linearGradient16208" gradientUnits="userSpaceOnUse" gradientTransform="matrix(-706.83273,-6.270903e-5,6.270903e-5,-706.83273,669.63191,497.12302)" x1="0" x2="1" y1="0" y2="0">
      <stop stop-color="#2e3192" offset="0"/>
      <stop stop-color="#008cd0" offset="1"/>
    </linearGradient>
    <linearGradient id="linearGradient16213" gradientUnits="userSpaceOnUse" gradientTransform="matrix(599.97412,0,0,599.97412,69.657578,390.69827)" x1="0" x2="1" y1="0" y2="0">
      <stop stop-color="#ffefc8" offset="0"/>
      <stop stop-color="#f6dabf" offset="1"/>
    </linearGradient>
  </defs>
  <metadata>
    <rdf:RDF>
      <cc:Work rdf:about="">
        <dc:format>image/svg+xml</dc:format>
        <dc:type rdf:resource="http://purl.org/dc/dcmitype/StillImage"/>
        <dc:title/>
      </cc:Work>
    </rdf:RDF>
  </metadata>
  <g transform="translate(-69.6266,-326.57787)">
    <path d="m669.63,539.45-599.96,0,0-212.83,599.96,0,0,212.83z" fill-rule="nonzero" fill="#FFF"/>
    <path d="m69.627,454.8,599.96,0,0-128.22-599.96,0z" fill="url(#linearGradient16123)"/>
    <path fill="url(#linearGradient16208)" d="m69.627,539.45,599.96,0,0-84.657-599.96,0,0,84.657z"/>
    <path fill-rule="nonzero" fill="#FFF" d="m464.97,346.8-14.507,54.724-0.25084,0-14.799-54.724-92.099,0,0,23.119,22.742,0,0,67.099,27.801,0,0-67.099,20.401,0,20.025,67.099,31.062,0,28.177-90.217-28.554,0z"/>
    <path fill-rule="nonzero" fill="#000" d="m134.48,415.53-16.304,0,0-16.806,17.433,0c6.5636,0,9.7408,2.9264,9.7408,8.194,0,6.9816-5.0585,8.612-10.87,8.612m-16.388-47.241,14.758,0c5.6856,0,9.4482,1.6304,9.4482,6.1873,0,5.811-3.6371,7.4415-9.4482,7.4415h-14.758v-13.629zm185.66-21.488-12.876,53.052-0.25084,0-12.876-53.052-106.35,0,0,53.052c-2.7174-6.8562-8.1522-10.744-13.921-12.751,6.689-3.6371,11.12-8.5702,11.12-17.684,0-9.2391-5.0585-22.617-28.804-22.617h-49.415v90.217h51.171c12.876,0,25.46-6.2291,29.85-18.102v18.102h27.759v-34.365h25.376v-20.736h-25.418v-13.629h39.089v68.729h26.296v-57.86h0.25084l15.635,57.86h20.736l15.677-57.86h0.25084v57.86h26.254v-90.217h-39.548z"/>
    <path fill-rule="nonzero" fill="#FFF" d="m90.542,473.31,9.6572,0,43.98,42.182,0-42.182,6.4799,0,0,47.993-9.6572,0-43.98-42.14,0,42.14-6.4799,0,0-47.993z"/>
    <path fill-rule="nonzero" fill="#FFF" d="m169.1,473.31,47.115,0,0,5.3094-40.635,0,0,15.301,39.047,0,0,5.3094-39.047,0,0,16.764,40.928,0,0,5.3094-47.408,0,0-47.993z"/>
    <path fill-rule="nonzero" fill="#FFF" d="m229.56,473.31,6.3545,0,16.764,41.973,16.472-41.973,8.3194,0,16.263,42.182,16.973-42.182,6.3545,0-19.064,47.993-8.3612,0-16.304-42.14-16.346,42.14-8.3194,0-19.105-47.993z"/>
    <path fill-rule="nonzero" fill="#FFF" d="m325.69,506.19,6.1037,0,0,3.3863c0,4.6823,2.5084,6.9816,10.619,6.9816h20.15c9.4064,0,12.207-2.0067,12.207-8.9047,0-6.0201-2.4248-7.5669-10.493-7.5669h-12.333c-19.816,0-26.338-1.1706-26.338-13.921,0-10.911,6.5217-13.378,19.9-13.378h14.005c16.095,0,20.151,4.097,20.151,12.667v1.6304h-6.1037c-0.12542-7.6087-0.91974-8.9883-17.977-8.9883h-6.898c-12.5,0-16.973,0.6689-16.973,8.5284,0,5.7274,1.7977,7.6505,11.957,7.6505h19.231c12.667,0,17.935,3.6371,17.935,11.789v3.0936c0,11.831-9.6572,12.709-19.273,12.709h-18.06c-9.4482,0-17.809-1.6722-17.809-12.166v-3.5117z"/>
    <path fill-rule="nonzero" fill="#FFF" d="m422.75,512.84c0-10.493,5.1003-13.211,15.97-14.005l21.363-1.505c9.3645-0.6689,10.159-3.0518,10.159-9.1555,0-6.9816-1.4632-10.075-10.075-10.075h-20.15c-6.9398,0-10.953,0.7107-10.953,10.284v2.6338h-6.1037v-4.515c0-10.075,5.5184-13.712,16.848-13.712h20.276c13.796,0,16.221,6.2291,16.221,15.719,0,12.793-4.8077,13.587-20.61,14.632l-9.908,0.66889c-15.259,1.0034-16.931,1.5886-16.931,7.9432v4.2642h48.119v5.3094h-54.222v-8.4866z"/>
    <path fill-rule="nonzero" fill="#FFF" d="m530.35,477.96-36.12,27.843,0,0.12542,36.12,0,0-27.968zm-42.224,25.711,39.465-30.351,8.8629,0,0,32.609,8.0268,0,0,5.3094-8.0268,0,0,10.075-6.1037,0,0-10.075-42.224,0,0-7.5669z"/>
    <path fill-rule="nonzero" fill="#FFF" d="m575.04,472.78,5.6438,0-24.958,49.08-5.5602,0,24.875-49.08z"/>
    <path fill-rule="nonzero" fill="#FFF" d="m642.4,478.61-48.997,0,0-5.3094,55.1,0,0,7.2324-35.619,40.803-7.7341,0,37.249-42.726z"/>
    <path fill="url(#linearGradient16213)" d="m519.63,346.81c-0.41806,0-0.79431,0.0836-1.1706,0.25083-0.37625,0.12542-0.7107,0.33445-0.96154,0.62709-0.25083,0.25084-0.50167,0.58529-0.62709,0.96154-0.16722,0.33445-0.25083,0.75251-0.25083,1.1706v84.072c0,0.41806,0.0836,0.79431,0.25083,1.1706,0.12542,0.33445,0.37626,0.6689,0.62709,0.91974,0.25084,0.29264,0.58529,0.50167,0.96154,0.66889,0.37626,0.12542,0.75251,0.20903,1.1706,0.20903h125.88c0.41806,0,0.79431-0.0836,1.1706-0.20903,0.37626-0.16722,0.6689-0.37625,0.91974-0.66889,0.33445-0.25084,0.50167-0.58529,0.66889-0.91974,0.12542-0.37625,0.25084-0.7525,0.25084-1.1706v-84.072c0-0.41806-0.12542-0.83612-0.25084-1.1706-0.16722-0.37625-0.33444-0.7107-0.66889-0.96154-0.25084-0.29264-0.54348-0.50167-0.91974-0.62709-0.37625-0.16722-0.7525-0.25083-1.1706-0.25083h-125.88zm79.557,18.478,24.916,0c1.296,0,2.5502,0.0418,3.7626,0.12542,1.1706,0.12541,2.2993,0.20903,3.3445,0.41806,1.0452,0.12541,2.0485,0.37625,2.9264,0.58528,0.91973,0.29264,1.714,0.58528,2.5084,0.91973,0.75251,0.33445,1.4632,0.7107,2.1739,1.087,0.62709,0.41806,1.2124,0.87793,1.7977,1.296,0.54348,0.50167,1.0034,1.0033,1.4214,1.5468,0.45986,0.50167,0.83612,1.087,1.1288,1.6722,0.29264,0.58528,0.58528,1.2542,0.79431,1.8813,0.20903,0.6689,0.37626,1.3378,0.50168,2.0903,0.0836,0.7107,0.16722,1.4632,0.16722,2.2575,0,0.7525,0,1.5468-0.12542,2.3829-0.0418,0.83612-0.16722,1.714-0.33445,2.5502-0.12541,0.87792-0.33444,1.7558-0.54347,2.6338-0.20903,0.96153-0.50168,1.8395-0.79432,2.801-0.29264,0.91973-0.62709,1.9231-1.0033,2.8846-0.37626,1.0452-0.79432,2.0067-1.2542,2.9264-0.41806,0.96153-0.91974,1.8813-1.3796,2.801-0.50167,0.91973-1.0452,1.7558-1.5886,2.6338-0.58529,0.87792-1.1288,1.714-1.7558,2.4666-0.62709,0.79432-1.2542,1.5886-1.9231,2.3411-0.6689,0.7107-1.3378,1.4214-2.0485,2.1321-0.7107,0.66889-1.4214,1.3378-2.1739,1.9231-0.75251,0.6271-1.505,1.2124-2.2993,1.7977-0.83612,0.54348-1.6304,1.087-2.4666,1.5468-0.79431,0.50167-1.6722,0.96153-2.5502,1.3796-0.83612,0.45986-1.714,0.83612-2.6338,1.2124-0.87793,0.37625-1.8395,0.7107-2.7592,1.0033-0.96154,0.29265-1.8813,0.54348-2.8846,0.79432-0.91974,0.20903-1.9231,0.41806-2.8846,0.54348-0.96154,0.12541-1.9649,0.25083-2.9682,0.33444-0.96154,0.0418-2.0067,0.0836-3.01,0.0836h-26.171l20.109-53.052zm-34.574,17.977,6.8144-17.977,20.987,0-20.109,53.052-20.987,0,7.3997-19.523-8.9883,0-7.3997,19.523-20.987,0,20.109-53.052,20.987,0-6.7726,17.977,8.9465,0zm50.585-5.9365-10.953,28.972,2.0485,0c0.41806,0,0.83612,0,1.2542-0.0418,0.37625,0,0.75251-0.0836,1.1288-0.16723,0.37626-0.0836,0.75251-0.16722,1.087-0.25083,0.33445-0.12542,0.62709-0.25084,0.96154-0.37626,0.33445-0.16722,0.62709-0.33445,0.91973-0.50167,0.29264-0.20903,0.58528-0.37625,0.87793-0.62709,0.33444-0.16722,0.62709-0.37625,0.87792-0.62709l0.83612-0.79431c0.29265-0.25084,0.54348-0.54348,0.83612-0.87793,0.25084-0.33445,0.50168-0.6689,0.79432-1.0452,0.25083-0.37626,0.50167-0.79432,0.75251-1.1706,0.25083-0.41806,0.50167-0.87793,0.7525-1.3378,0.20904-0.45987,0.45987-0.91974,0.71071-1.4214,0.25083-0.54348,0.45986-1.0452,0.75251-1.6304,0.20903-0.54348,0.45986-1.1288,0.7107-1.714,0.25083-0.62709,0.50167-1.2124,0.75251-1.8813,0.20903-0.6689,0.45986-1.296,0.66889-1.8813,0.20903-0.62709,0.41806-1.1706,0.62709-1.7558,0.12542-0.50168,0.29265-1.087,0.41806-1.5468,0.16723-0.50167,0.29265-1.0033,0.37626-1.4632,0.12542-0.45986,0.20903-0.87792,0.29264-1.296,0.0418-0.41806,0.0836-0.83612,0.0836-1.2124,0.0418-0.37625,0.0418-0.7107,0-1.0033-0.0418-0.33445-0.0418-0.62709-0.0836-0.96154l-0.29264-0.75251-0.37626-0.6689-0.41806-0.54347-0.58528-0.50168-0.6689-0.37625c-0.25083-0.12542-0.58528-0.25084-0.87792-0.29264-0.29265-0.0836-0.62709-0.12542-1.0034-0.16723-0.37625-0.0418-0.79431-0.0836-1.2124-0.0836h-2.0485z"/>
  </g>
</svg>
