<svg xmlns="http://www.w3.org/2000/svg" viewBox="0 0 600 250.14"><defs><linearGradient id="0" gradientUnits="userSpaceOnUse" gradientTransform="matrix(-706.8076 0 0-706.8078 701.61 480.56)" x1="0" x2="1"><stop stop-color="#172983"/><stop stop-color="#142b84" offset=".016"/><stop stop-color="#152c85" offset=".032"/><stop stop-color="#132e86" offset=".048"/><stop stop-color="#142f87" offset=".063"/><stop stop-color="#113188" offset=".079"/><stop stop-color="#0e3389" offset=".095"/><stop stop-color="#0f3489" offset=".111"/><stop stop-color="#0b368a" offset=".127"/><stop stop-color="#0c378b" offset=".143"/><stop stop-color="#09388c" offset=".159"/><stop stop-color="#043a8d" offset=".175"/><stop stop-color="#053b8e" offset=".19"/><stop stop-color="#003d8f" offset=".206"/><stop stop-color="#003f90" offset=".222"/><stop stop-color="#004091" offset=".238"/><stop stop-color="#004192" offset=".254"/><stop stop-color="#004393" offset=".27"/><stop stop-color="#004494" offset=".286"/><stop stop-color="#004695" offset=".302"/><stop stop-color="#004896" offset=".317"/><stop stop-color="#004997" offset=".333"/><stop stop-color="#004a98" offset=".349"/><stop stop-color="#004c99" offset=".365"/><stop stop-color="#004e9a" offset=".381"/><stop stop-color="#004f9c" offset=".397"/><stop stop-color="#00519d" offset=".413"/><stop stop-color="#00529e" offset=".429"/><stop stop-color="#00539f" offset=".444"/><stop stop-color="#0055a0" offset=".46"/><stop stop-color="#0057a1" offset=".476"/><stop stop-color="#0058a2" offset=".492"/><stop stop-color="#005aa4" offset=".508"/><stop stop-color="#005ba5" offset=".524"/><stop stop-color="#005da6" offset=".54"/><stop stop-color="#005ea7" offset=".556"/><stop stop-color="#0060a9" offset=".571"/><stop stop-color="#0062aa" offset=".587"/><stop stop-color="#0063ab" offset=".603"/><stop stop-color="#0065ac" offset=".619"/><stop stop-color="#0066ad" offset=".635"/><stop stop-color="#0068af" offset=".651"/><stop stop-color="#0069b0" offset=".667"/><stop stop-color="#006bb1" offset=".683"/><stop stop-color="#006cb3" offset=".698"/><stop stop-color="#006db3" offset=".714"/><stop stop-color="#006fb5" offset=".73"/><stop stop-color="#0071b6" offset=".746"/><stop stop-color="#0072b7" offset=".762"/><stop stop-color="#0074b9" offset=".778"/><stop stop-color="#0075ba" offset=".794"/><stop stop-color="#07b" offset=".81"/><stop stop-color="#0078bc" offset=".825"/><stop stop-color="#0079bd" offset=".841"/><stop stop-color="#007bbe" offset=".857"/><stop stop-color="#007dc0" offset=".873"/><stop stop-color="#007ec1" offset=".889"/><stop stop-color="#007fc2" offset=".905"/><stop stop-color="#0081c3" offset=".921"/><stop stop-color="#0082c4" offset=".937"/><stop stop-color="#0084c5" offset=".952"/><stop stop-color="#0085c7" offset=".968"/><stop stop-color="#0086c8" offset=".984"/><stop stop-color="#0088c9" offset="1"/></linearGradient><linearGradient id="1" gradientUnits="userSpaceOnUse" x1="101.65" x2="701.61"><stop stop-color="#fc0"/><stop stop-color="#fecb00" offset=".016"/><stop stop-color="#fdca00" offset=".032"/><stop stop-color="#fdc900" offset=".048"/><stop stop-color="#fcc800" offset=".063"/><stop stop-color="#fcc600" offset=".079"/><stop stop-color="#fcc500" offset=".095"/><stop stop-color="#fbc400" offset=".111"/><stop stop-color="#fac300" offset=".127"/><stop stop-color="#f9c100" offset=".143"/><stop stop-color="#f9c000" offset=".159"/><stop stop-color="#f9bf00" offset=".175"/><stop stop-color="#f8be00" offset=".19"/><stop stop-color="#f8bd00" offset=".206"/><stop stop-color="#f7bb00" offset=".222"/><stop stop-color="#f7ba00" offset=".238"/><stop stop-color="#f6b900" offset=".254"/><stop stop-color="#f5b700" offset=".27"/><stop stop-color="#f5b700" offset=".286"/><stop stop-color="#f4b500" offset=".302"/><stop stop-color="#f4b400" offset=".317"/><stop stop-color="#f4b300" offset=".333"/><stop stop-color="#f3b100" offset=".349"/><stop stop-color="#f3b000" offset=".365"/><stop stop-color="#f2af00" offset=".381"/><stop stop-color="#f2ae00" offset=".397"/><stop stop-color="#f1ac00" offset=".413"/><stop stop-color="#f0ab00" offset=".429"/><stop stop-color="#f0aa00" offset=".444"/><stop stop-color="#efa900" offset=".46"/><stop stop-color="#efa700" offset=".476"/><stop stop-color="#eea600" offset=".492"/><stop stop-color="#eea500" offset=".508"/><stop stop-color="#eea400" offset=".524"/><stop stop-color="#eda200" offset=".54"/><stop stop-color="#eca100" offset=".556"/><stop stop-color="#eca000" offset=".571"/><stop stop-color="#eb9e00" offset=".587"/><stop stop-color="#eb9d00" offset=".603"/><stop stop-color="#ea9c00" offset=".619"/><stop stop-color="#ea9a00" offset=".635"/><stop stop-color="#e99a00" offset=".651"/><stop stop-color="#e99800" offset=".667"/><stop stop-color="#e99600" offset=".683"/><stop stop-color="#e89600" offset=".698"/><stop stop-color="#e89400" offset=".714"/><stop stop-color="#e79300" offset=".73"/><stop stop-color="#e69100" offset=".746"/><stop stop-color="#e69000" offset=".762"/><stop stop-color="#e58f00" offset=".778"/><stop stop-color="#e58d00" offset=".794"/><stop stop-color="#e48c00" offset=".81"/><stop stop-color="#e48b00" offset=".825"/><stop stop-color="#e48900" offset=".841"/><stop stop-color="#e38800" offset=".857"/><stop stop-color="#e38701" offset=".873"/><stop stop-color="#e28502" offset=".889"/><stop stop-color="#e28403" offset=".905"/><stop stop-color="#e18304" offset=".921"/><stop stop-color="#e08106" offset=".937"/><stop stop-color="#e08006" offset=".952"/><stop stop-color="#df7e08" offset=".968"/><stop stop-color="#df7d08" offset=".984"/><stop stop-color="#df7c09" offset="1"/></linearGradient></defs><g transform="translate(-101.65-274.54)"><path d="m101.65 274.54v161.63h600v-161.63h-600" fill="url(#1)"/><path d="m101.65 436.17v88.5h600v-88.5h-600" fill="url(#0)"/><path d="m620.79 300.17l-18.283 68.928h-.346l-18.601-68.928h-116.02v29.13h28.627v84.51h35.01v-84.51h25.742l25.2 84.51h39.14l35.514-113.64z" fill="#fff"/><path d="m204.45 386.77h-20.543v-21.15h21.993c8.27 0 12.246 3.643 12.246 10.318 0 8.762-6.369 10.836-13.695 10.836m-20.623-59.51h18.549c7.167 0 11.94 2.034 11.94 7.791 0 7.327-4.6 9.388-11.94 9.388h-18.549zm233.9-27.08l-16.249 66.854h-.306l-16.248-66.854h-133.97v66.827c-3.403-8.616-10.278-13.536-17.537-16.05 8.443-4.601 14.01-10.823 14.01-22.271 0-11.621-6.356-28.507-36.29-28.507h-62.25v113.66h64.49c16.195 0 32.03-7.831 37.575-22.816v22.816h34.983v-43.31h31.978v-26.09h-32.06v-17.18h49.28v86.57h33.1v-72.904h.319l19.731 72.904h26.11l19.719-72.904h.332v72.904h33.1v-113.66z"/><g fill="#fff"><path d="m149.1 457.76h8.815l40.13 38.494v-38.494h5.917v43.812h-8.816l-40.13-38.48v38.48h-5.916z"/><path d="m220.79 457.76h43.01v4.84h-37.1v13.988h35.621v4.84h-35.621v15.318h37.34v4.826h-43.25z"/><path d="m275.95 457.76h5.797l15.343 38.31 14.985-38.31h7.632l14.812 38.494 15.503-38.494h5.797l-17.418 43.812h-7.632l-14.879-38.48-14.905 38.48h-7.618z"/><path d="m363.7 487.78h5.558v3.085c0 4.308 2.287 6.356 9.68 6.356h18.416c8.549 0 11.1-1.821 11.1-8.098 0-5.505-2.18-6.9-9.547-6.9h-11.248c-18.1 0-24.04-1.091-24.04-12.698 0-9.999 5.944-12.233 18.16-12.233h12.765c14.692 0 18.362 3.75 18.362 11.568v1.502h-5.545c-.106-6.954-.837-8.23-16.395-8.23h-6.289c-11.435 0-15.49.612-15.49 7.805 0 5.213 1.622 6.967 10.889 6.967h17.565c11.542 0 16.382 3.324 16.382 10.757v2.845c0 10.77-8.83 11.568-17.605 11.568h-16.461c-8.643 0-16.262-1.503-16.262-11.08z"/><path d="m452.25 493.83c0-9.573 4.681-12.03 14.6-12.778l19.479-1.369c8.51-.612 9.241-2.792 9.241-8.35 0-6.383-1.33-9.202-9.188-9.202h-18.376c-6.303 0-9.999.652-9.999 9.374v2.42h-5.558v-4.109c0-9.201 5.01-12.538 15.371-12.538h18.509c12.592 0 14.826 5.705 14.826 14.361 0 11.674-4.442 12.392-18.828 13.376l-9.07.586c-13.921.904-15.423 1.436-15.423 7.259v3.87h43.918v4.853h-49.5z"/><path d="m550.45 462.01l-32.975 25.396v.146h32.975zm-38.519 23.481l35.993-27.723h8.098v29.784h7.326v4.826h-7.326v9.215h-5.572v-9.215h-38.519z"/><path d="m591.22 457.29h5.146l-22.724 44.782h-5.093z"/><path d="m652.71 462.61h-44.716v-4.84h50.29v6.581l-32.496 37.24h-7.1z"/></g></g></svg>