<svg xmlns="http://www.w3.org/2000/svg" viewBox="0 0 600 350.06"><g transform="translate(88.11-28.438)"><g fill="#53c1ae"><path d="m107.66 304.05c-3.898 0-6.393-1.442-6.393-5.341v-208.68c0-3.937 2.495-5.341 6.393-5.341h27.717c3.937 0 6.393 1.403 6.393 5.341v208.32c0 4.249-2.105 5.692-6.393 5.692h-27.717z"/><path d="m340.17 298.36c0 3.898-1.793 5.692-4.99 5.692h-28.419c-3.937 0-5.341-1.793-5.692-5.341l-4.288-64.36c-1.053-15.632-7.095-32.707-31.966-32.707-21.363 0-33.798 14.58-33.798 33.798l-.351 62.918c0 3.898-1.403 5.692-4.99 5.692h-30.21c-3.547 0-4.99-1.793-4.99-5.341v-208.32c0-3.898 2.144-5.692 6.081-5.692h28.769c3.197 0 5.341 1.793 5.341 5.341v73.951c0 3.898 2.495 2.456 4.288 1.053l61.48-76.44c2.846-3.197 4.288-3.898 9.629-3.898h31.615c4.288 0 5.692 3.197 3.197 6.393l-62.22 77.5c-1.754 2.495-1.403 3.937 1.442 3.937 3.898 0 7.446 0 11.03.702 29.471 4.6 44.4 27.02 44.4 58.669l4.639 66.47z"/><path d="m506.2 268.14c3.197 0 5.692 2.144 5.692 6.04v23.468c0 4.249-1.793 6.393-5.692 6.393h-120.54c-3.898 0-6.393-2.144-6.393-6.04v-207.27c0-3.898 2.495-6.04 6.393-6.04h118.39c3.197 0 6.04 1.442 6.04 5.692v23.12c0 3.898-2.105 6.393-5.692 6.393h-79.25c-4.639 0-5.692 1.442-5.692 4.639v42.647c0 4.639 1.403 6.04 5.692 6.04h65.41c4.249 0 5.692 2.144 5.692 6.393v22.766c0 3.898-1.442 6.04-5.692 6.04h-65.803c-4.249 0-5.302 1.793-5.302 5.341v49.04c0 4.288 1.754 5.341 6.393 5.341h80.34z"/></g><path d="m199.84 52.44c-2.417.273-37.618 4.444-43.817 4.444-6.159 0-31.03 4.249-35.09 4.99-4.02.78-19.92 6.549-25.3 3.976-5.383-2.612-27.14-17.737-32.477-19.53-5.38-1.793-2.183-4.951-11.344-9.824-1.053-.546-1.676-8.849 1.754-7.992 7.173 1.754 36.605 12.63 64.868 13.839 28.26 1.169 60.93.351 66.58.351 5.653 0 12.12.858 13.371 2.963 1.247 2.144 3.859 6.51 1.442 6.783" fill="#f15739"/><path d="m-4.32 268.14h-35.903c-4.288 0-5.341-1.053-5.341-4.6v-52.978c0-3.586 1.053-5.341 5.341-5.341h32.707c22.376 0 30.21 16.685 30.21 32.707 0 16.685-9.941 30.21-27.02 30.21m-41.25-143.61c0-2.846 1.053-4.639 4.249-4.639h32.01c16.02 0 25.612 9.239 25.612 24.52 0 14.58-8.888 26.313-24.871 26.313h-32.356c-3.197 0-4.639-1.754-4.639-5.691v-40.503zm121.24 107.55c-.468.039-.897.156-1.364.156-6.783 0-12.319-5.497-12.319-12.319 0-5.536 3.703-10.136 8.732-11.695-.585-1.364-1.209-2.69-1.91-4.02-1.949 1.325-4.288 2.066-6.822 2.066-6.783 0-12.28-5.497-12.28-12.28 0-3.236 1.286-6.159 3.352-8.342l-1.403-1.715c-1.871 2.183-3.937 3.781-6.705 3.781-2.963 0-5.419-2.417-5.419-5.419 0-1.559 1.871-4.054 2.885-5.458 7.68-10.525 14.424-23.08 14.424-34.19 0-37.696-24.91-57.968-64.36-57.968h-71.806c-4.288 0-6.432 2.144-6.432 6.04v207.27c0 3.898 2.144 6.04 6.432 6.04h82.956c11.07 0 21.01-1.754 29.744-4.99-.78-1.637-1.286-3.43-1.286-5.341 0-6.783 5.497-12.28 12.28-12.28 4.093 0 7.641 1.988 9.863 4.99.858-.741 1.715-1.442 2.495-2.261-2.768-2.261-4.561-5.613-4.561-9.473 0-6.783 5.497-12.28 12.28-12.28 1.988 0 3.82.507 5.497 1.325.468-1.17.936-2.339 1.364-3.547-5.341-1.364-9.317-6.159-9.317-11.89 0-6.783 5.536-12.28 12.319-12.28.429 0 .819.078 1.248.117.039-1.131.117-2.222.117-3.392v-.663" fill="#53c1ae"/><g fill="#fff"><path d="m-64.68 342.83l-1.832 1.52c-.312.312-.936.195-1.169-.195-1.637-2.027-4.6-3.353-7.368-3.353-4.639 0-7.602 3.08-7.602 7.29v19.374c0 4.21 2.885 7.407 7.874 7.407 2.768 0 5.458-1.364 7.095-3.158.429-.507.78-.819 1.364-.39l1.754 1.52c.351.273.39.585.156.936-2.495 3.08-6.237 4.717-10.369 4.717-7.134 0-12.05-4.132-12.05-10.876v-19.608c0-6.432 4.834-10.876 11.734-10.876 3.976 0 7.719 1.091 10.525 4.522.351.39.351.702-.117 1.17"/><path d="m30.16 378.09h-3c-.39 0-.663-.195-.663-.585v-17.971c0-.312-.156-.507-.468-.507h-16.06c-.312 0-.468.195-.468.507v17.893c0 .39-.195.663-.585.663h-2.924c-.39 0-.663-.195-.663-.585v-39.26c0-.39.195-.585.663-.585h2.885c.429 0 .624.234.624.585v16.646c0 .312.078.507.468.507h16.06c.39 0 .468-.195.468-.507v-16.646c0-.39.273-.585.663-.585h2.924c.468 0 .663.234.663.585v39.18c0 .39-.195.663-.585.663"/><path d="m111.36 350.63l-3.742 13.761c-.078.39 0 .468.273.468h11.344c.39 0 .468-.078.39-.468l-3.742-13.683-2.105-8.459c-.039-.273-.273-.273-.312 0l-2.105 8.381m12.514 27.444c-.468 0-.663-.117-.78-.429l-2.495-8.966c-.078-.234-.117-.273-.312-.273h-13.332c-.234 0-.312.039-.39.195-.39 1.832-1.949 7.212-2.417 9.04-.078.312-.312.429-.702.429h-2.69c-.546 0-.819-.117-.663-.78l10.564-38.983c.039-.312.234-.663.78-.663h4.366c.468 0 .663.117.819.585l10.72 38.944c.156.39.195.897-.429.897h-3.041"/><path d="m199.65 337.65c.858 0 1.053.39 1.364.858l17.04 31.11c.078.156.195.195.195 0v-31.3c0-.39.156-.663.624-.663h2.807c.39 0 .585.273.585.585v38.788c0 .858-.507 1.053-.975 1.053h-2.027c-.819 0-1.053-.234-1.325-.78l-17.04-30.991c-.078-.117-.195-.195-.195 0v31.15c0 .39-.156.624-.663.624h-2.768c-.39 0-.585-.234-.585-.624v-38.554c0-.78.156-1.247 1.053-1.247h1.91"/><path d="m297.16 337.65c.858 0 1.053.39 1.364.858l17.04 31.11c.078.156.234.195.234 0v-31.3c0-.39.117-.663.585-.663h2.807c.39 0 .585.273.585.585v38.788c0 .858-.507 1.053-.975 1.053h-2.027c-.78 0-1.053-.234-1.325-.78l-17.04-30.991c-.078-.117-.195-.195-.195 0v31.15c0 .39-.117.624-.663.624h-2.768c-.39 0-.585-.234-.585-.624v-38.554c0-.78.156-1.247 1.053-1.247h1.91"/><path d="m413.7 378.09h-21.246c-.39 0-.702-.273-.702-.663v-39.14c0-.39.234-.624.702-.624h20.739c.39 0 .624.234.624.624v2.378c0 .39-.195.585-.624.585h-16.724c-.351 0-.546.078-.546.468v13.1c0 .351.156.468.468.468h14.229c.468 0 .663.195.663.663v2.417c0 .39-.195.585-.585.585h-14.229c-.351 0-.546.117-.546.546v14.463c0 .351.195.468.468.468h17.308c.39 0 .663.195.663.585v2.417c0 .39-.195.663-.663.663"/><path d="m505.91 378.09h-20.661c-.39 0-.624-.273-.624-.663v-39.18c0-.39.117-.585.585-.585h2.924c.39 0 .585.234.585.585v35.63c0 .429.156.546.468.546h16.724c.312 0 .585.195.585.585v2.417c0 .39-.195.663-.585.663"/><path d="m-88.11 319.94v.845h600v-.845h-600" color="#000"/></g></g></svg>