<?xml version="1.0" encoding="UTF-8" standalone="no"?>
<!-- Created with Inkscape (http://www.inkscape.org/) -->
<svg xmlns:rdf="http://www.w3.org/1999/02/22-rdf-syntax-ns#" xmlns="http://www.w3.org/2000/svg" height="350.06" width="600" version="1.1" xmlns:cc="http://creativecommons.org/ns#" xmlns:dc="http://purl.org/dc/elements/1.1/">
 <defs></defs>
 <metadata>
  <rdf:RDF>
   <cc:Work rdf:about="">
    <dc:format>image/svg+xml</dc:format>
    <dc:type rdf:resource="http://purl.org/dc/dcmitype/StillImage"/>
    <dc:title/>
   </cc:Work>
  </rdf:RDF>
 </metadata>
 <g transform="translate(88.108492,-28.437514)">
  <g transform="matrix(16.724087,0,0,-16.724087,321.29515,1587.3298)">
   <path d="m0,0c0.169,0.526,0.556,0.804,1.131,0.804,0.674,0,1.11-0.407,1.2-1.121,0.01-0.05-0.01-0.09-0.06-0.109l-0.287-0.06c-0.06-0.02-0.109,0.01-0.12,0.069-0.079,0.536-0.327,0.755-0.733,0.755-0.298,0-0.546-0.139-0.665-0.487-0.059-0.218-0.089-0.337-0.089-1.498,0-1.16,0.03-1.279,0.089-1.497,0.119-0.347,0.367-0.486,0.665-0.486,0.406,0,0.654,0.218,0.733,0.753,0.011,0.06,0.06,0.09,0.12,0.07l0.287-0.059c0.05-0.02,0.07-0.06,0.06-0.11-0.09-0.714-0.526-1.12-1.2-1.12-0.575,0-0.962,0.277-1.131,0.803-0.089,0.278-0.109,0.416-0.109,1.646s0.02,1.369,0.109,1.647" fill-rule="nonzero" fill="#FFF"/>
  </g>
  <g transform="matrix(16.724087,0,0,-16.724087,408.20855,1589.9856)">
   <path d="m0,0c-0.109,0.337-0.357,0.496-0.704,0.496s-0.595-0.159-0.704-0.496c-0.07-0.208-0.08-0.367-0.08-1.478,0-1.12,0.01-1.279,0.08-1.488,0.109-0.337,0.357-0.496,0.704-0.496s0.595,0.159,0.704,0.496c0.07,0.209,0.08,0.368,0.08,1.488,0,1.111-0.01,1.27-0.08,1.478m0.466-3.115c-0.168-0.535-0.595-0.813-1.17-0.813s-1.002,0.278-1.17,0.813c-0.08,0.268-0.1,0.457-0.1,1.637,0,1.17,0.02,1.359,0.1,1.627,0.168,0.536,0.595,0.813,1.17,0.813s1.002-0.277,1.17-0.813c0.08-0.268,0.1-0.457,0.1-1.627,0-1.18-0.02-1.369-0.1-1.637" fill-rule="nonzero" fill="#FFF"/>
  </g>
  <g transform="matrix(16.724087,0,0,-16.724087,506.4057,1654.3466)">
   <path d="m0,0c-0.059,0-0.099,0.04-0.099,0.099v3.194c0,0.704-0.248,1.052-0.774,1.052-0.456,0-0.744-0.338-0.753-1.022v-3.224c0-0.059-0.04-0.099-0.1-0.099h-0.288c-0.059,0-0.098,0.04-0.098,0.099v3.194c0,0.684-0.229,1.052-0.764,1.052-0.466,0-0.764-0.338-0.764-1.052v-3.194c0-0.059-0.04-0.099-0.099-0.099h-0.288c-0.059,0-0.099,0.04-0.099,0.099v4.533c0,0.06,0.04,0.099,0.099,0.099h0.288c0.059,0,0.099-0.039,0.099-0.099v-0.387h0.01c0.129,0.308,0.407,0.566,0.902,0.566,0.487,0,0.814-0.209,0.972-0.625h0.01c0.159,0.367,0.506,0.625,0.992,0.625,0.764,0,1.141-0.466,1.141-1.439v-3.273c0-0.059-0.04-0.099-0.099-0.099h-0.288z" fill-rule="nonzero" fill="#FFF"/>
  </g>
  <g transform="matrix(16.724087,0,0,-16.724087,565.61399,1608.2283)">
   <path d="m0,0c0,0.774-0.04,0.962-0.089,1.101-0.109,0.327-0.347,0.496-0.675,0.496-0.327,0-0.565-0.169-0.674-0.496-0.05-0.139-0.09-0.327-0.09-1.101,0-0.04,0.02-0.06,0.06-0.06h1.409c0.039,0,0.059,0.02,0.059,0.06m0.387-0.496-1.855,0c-0.04,0-0.06-0.02-0.06-0.06,0-0.972,0.04-1.16,0.09-1.329,0.109-0.327,0.347-0.486,0.664-0.486,0.407,0,0.635,0.189,0.764,0.655,0.02,0.07,0.06,0.089,0.119,0.07l0.268-0.06c0.05-0.01,0.08-0.05,0.06-0.119-0.139-0.665-0.566-1.012-1.221-1.012-0.555,0-0.951,0.278-1.12,0.804-0.069,0.198-0.109,0.436-0.109,1.636s0.04,1.438,0.109,1.647c0.169,0.525,0.565,0.803,1.14,0.803,0.576,0,0.973-0.278,1.141-0.803,0.069-0.209,0.109-0.447,0.109-1.647,0-0.06-0.04-0.099-0.099-0.099" fill-rule="nonzero" fill="#FFF"/>
  </g>
  <g transform="matrix(16.724087,0,0,-16.724087,623.66998,1639.5809)">
   <path d="M0,0c0.07,0.208,0.099,0.357,0.099,1.478s-0.029,1.269-0.099,1.488c-0.099,0.307-0.347,0.496-0.684,0.496-0.347,0-0.585-0.159-0.694-0.496-0.07-0.219-0.09-0.367-0.09-1.488s0.02-1.27,0.09-1.478c0.109-0.337,0.347-0.496,0.694-0.496,0.337,0,0.585,0.179,0.684,0.496m-1.845-0.209c-0.089,0.269-0.109,0.467-0.109,1.687,0,1.23,0.02,1.418,0.109,1.696,0.169,0.525,0.526,0.754,1.022,0.754,0.526,0,0.783-0.268,0.912-0.575h0.01v2.41c0,0.059,0.04,0.099,0.1,0.099h0.287c0.06,0,0.099-0.04,0.099-0.099v-6.547c0-0.059-0.039-0.099-0.099-0.099h-0.287c-0.06,0-0.1,0.04-0.1,0.099v0.387h-0.01c-0.129-0.297-0.386-0.565-0.912-0.565-0.496,0-0.853,0.228-1.022,0.753" fill-rule="nonzero" fill="#FFF"/>
  </g>
  <g transform="matrix(16.724087,0,0,-16.724087,654.52091,1684.2024)">
   <path d="m0,0c-0.059,0-0.099,0.04-0.099,0.099v0.268c0,0.059,0.04,0.099,0.099,0.099l0.109,0.01c0.268,0,0.407,0.119,0.516,0.545l0.218,0.883-1.121,4.513c-0.01,0.06,0.02,0.099,0.08,0.099h0.327c0.059,0,0.089-0.039,0.099-0.099l0.853-3.59h0.01l0.853,3.59c0.01,0.06,0.039,0.099,0.099,0.099h0.318c0.059,0,0.089-0.039,0.079-0.099l-1.349-5.356c-0.198-0.843-0.456-1.061-1.002-1.061h-0.089z" fill-rule="nonzero" fill="#FFF"/>
  </g>
  <g transform="matrix(16.724087,0,0,-16.724087,369.29495,1693.6365)">
   <path d="m0,0c-0.911,0-1.773,0.33-2.318,0.892l0.33,0.321c0.474-0.488,1.247-0.768,2.058-0.751,0.753,0.015,1.425,0.293,1.842,0.76l0.345-0.306c-0.503-0.563-1.297-0.897-2.178-0.915-0.026-0.001-0.053-0.001-0.079-0.001" fill-rule="nonzero" fill="#FFF"/>
  </g>
  <g transform="matrix(16.724087,0,0,-16.724087,98.784514,1659.9391)">
   <path d="m0,0,0,5.315,3.201,0,0.098-1.453-1.792,0,0-0.693,1.46,0,0-1.451-1.47,0v-1.718h-1.497z" fill-rule="nonzero" fill="#000"/>
  </g>
  <g transform="matrix(16.724087,0,0,-16.724087,304.63461,1659.8137)">
   <path d="m0,0-1.601,2.758,1.455,2.542-1.602,0-0.665-1.145-0.654,1.145-1.658,0,1.483-2.56-1.571-2.743,1.611,0.001,0.768,1.343l0.777-1.341h1.657z" fill-rule="nonzero" fill="#000"/>
  </g>
  <g transform="matrix(16.724087,0,0,-16.724087,203.24316,1633.3545)">
   <path d="m0,0,0,2.123c0,0.242-0.211,0.459-0.448,0.459s-0.429-0.217-0.429-0.459l-0.001-2.117c0-0.242,0.193-0.439,0.43-0.439s0.448,0.19,0.448,0.433m-2.988,1.061c0,1.427,1.134,2.584,2.533,2.584s2.532-1.157,2.532-2.584-1.133-2.584-2.532-2.584-2.533,1.157-2.533,2.584" fill-rule="nonzero" fill="#000"/>
  </g>
  <path d="m107.66,304.05c-3.8983,0-6.3932-1.4424-6.3932-5.3407v-208.68c0-3.9373,2.4949-5.3407,6.3932-5.3407h27.717c3.9373,0,6.3932,1.4034,6.3932,5.3407v208.32c0,4.2491-2.1051,5.6915-6.3932,5.6915h-27.717z" fill-rule="nonzero" fill="#53c1ae"/>
  <path d="m340.17,298.36c0,3.8983-1.7932,5.6915-4.9898,5.6915h-28.419c-3.9373,0-5.3406-1.7932-5.6915-5.3407l-4.2881-64.361c-1.0525-15.632-7.0949-32.707-31.966-32.707-21.363,0-33.798,14.58-33.798,33.798l-0.35085,62.918c0,3.8983-1.4034,5.6915-4.9898,5.6915h-30.212c-3.5474,0-4.9898-1.7932-4.9898-5.3407v-208.32c0-3.8983,2.144-5.6915,6.0813-5.6915h28.769c3.1966,0,5.3406,1.7932,5.3406,5.3407v73.951c0,3.8983,2.4949,2.4559,4.2881,1.0525l61.476-76.445c2.8457-3.1966,4.2881-3.8983,9.6288-3.8983h31.615c4.2881,0,5.6915,3.1966,3.1966,6.3932l-62.217,77.498c-1.7542,2.4949-1.4034,3.9373,1.4424,3.9373,3.8983,0,7.4457,0,11.032,0.70169,29.471,4.6,44.402,27.015,44.402,58.669l4.639,66.466z" fill-rule="nonzero" fill="#53c1ae"/>
  <path d="m506.2,268.14c3.1966,0,5.6915,2.1441,5.6915,6.0424v23.468c0,4.2491-1.7932,6.3932-5.6915,6.3932h-120.54c-3.8983,0-6.3932-2.1441-6.3932-6.0424v-207.27c0-3.8983,2.4949-6.0423,6.3932-6.0423h118.39c3.1966,0,6.0424,1.4424,6.0424,5.6915v23.117c0,3.8983-2.1051,6.3932-5.6915,6.3932h-79.252c-4.639,0-5.6915,1.4424-5.6915,4.639v42.647c0,4.639,1.4034,6.0423,5.6915,6.0423h65.413c4.2491,0,5.6915,2.1441,5.6915,6.3932v22.766c0,3.8983-1.4424,6.0424-5.6915,6.0424h-65.803c-4.2491,0-5.3017,1.7932-5.3017,5.3407v49.04c0,4.2881,1.7542,5.3407,6.3932,5.3407h80.344z" fill-rule="nonzero" fill="#53c1ae"/>
  <path d="m199.84,52.435c-2.4169,0.27288-37.618,4.444-43.817,4.444-6.1593,0-31.03,4.2491-35.085,4.9898-4.0152,0.77966-19.92,6.5491-25.3,3.9763-5.383-2.612-27.136-17.737-32.477-19.53-5.3796-1.7932-2.183-4.9508-11.344-9.8237-1.0525-0.54576-1.6763-8.8491,1.7542-7.9915,7.1729,1.7542,36.605,12.63,64.868,13.839,28.263,1.1695,60.93,0.35085,66.583,0.35085,5.6525,0,12.124,0.85762,13.371,2.9627,1.2474,2.1441,3.8593,6.5101,1.4424,6.783" fill-rule="nonzero" fill="#f15739"/>
  <path d="m-4.3198,268.14-35.903,0c-4.2881,0-5.3407-1.0525-5.3407-4.6v-52.978c0-3.5864,1.0525-5.3407,5.3407-5.3407h32.707c22.376,0,30.212,16.685,30.212,32.707,0,16.685-9.9406,30.212-27.015,30.212m-41.245-143.61c0-2.8458,1.0525-4.639,4.2491-4.639h32.005c16.022,0,25.612,9.2389,25.612,24.52,0,14.58-8.8881,26.313-24.871,26.313h-32.356c-3.1966,0-4.639-1.7542-4.639-5.6915v-40.503zm121.24,107.55c-0.4678,0.0389-0.89661,0.15592-1.3644,0.15592-6.783,0-12.319-5.4966-12.319-12.319,0-5.5356,3.7034-10.136,8.7322-11.695-0.58474-1.3644-1.2085-2.6898-1.9102-4.0152-1.9491,1.3254-4.2881,2.0661-6.822,2.0661-6.783,0-12.28-5.4966-12.28-12.28,0-3.2356,1.2864-6.1593,3.3525-8.3423l-1.4034-1.7152c-1.8712,2.183-3.9373,3.7813-6.7051,3.7813-2.9627,0-5.4186-2.4169-5.4186-5.4186,0-1.5593,1.8712-4.0542,2.8847-5.4576,7.6796-10.525,14.424-23.078,14.424-34.188,0-37.696-24.91-57.968-64.361-57.968h-71.806c-4.2881,0-6.4322,2.1441-6.4322,6.0423v207.27c0,3.8983,2.1441,6.0424,6.4322,6.0424h82.956c11.071,0,21.012-1.7542,29.744-4.9898-0.77966-1.6373-1.2864-3.4305-1.2864-5.3407,0-6.783,5.4966-12.28,12.28-12.28,4.0932,0,7.6406,1.9881,9.8627,4.9898,0.85762-0.74068,1.7152-1.4424,2.4949-2.261-2.7678-2.261-4.561-5.6135-4.561-9.4728,0-6.783,5.4966-12.28,12.28-12.28,1.9881,0,3.8203,0.50677,5.4966,1.3254,0.46779-1.1695,0.93559-2.339,1.3644-3.5474-5.3407-1.3644-9.3169-6.1593-9.3169-11.89,0-6.783,5.5356-12.28,12.319-12.28,0.42881,0,0.81864,0.078,1.2475,0.11695,0.03898-1.1305,0.11695-2.222,0.11695-3.3915v-0.6627" fill-rule="nonzero" fill="#53c1ae"/>
  <path d="m-64.677,342.83-1.8322,1.5203c-0.31186,0.31187-0.93559,0.19492-1.1695-0.19491-1.6373-2.0271-4.6-3.3525-7.3678-3.3525-4.639,0-7.6017,3.0796-7.6017,7.2898v19.374c0,4.2102,2.8847,7.4067,7.8745,7.4067,2.7678,0,5.4576-1.3644,7.0949-3.1576,0.42881-0.50678,0.77966-0.81864,1.3644-0.38983l1.7542,1.5203c0.35084,0.27287,0.38983,0.58474,0.15593,0.93558-2.4949,3.0796-6.2373,4.7169-10.369,4.7169-7.1339,0-12.046-4.1322-12.046-10.876v-19.608c0-6.4322,4.8339-10.876,11.734-10.876,3.9763,0,7.7186,1.0915,10.525,4.522,0.35084,0.38984,0.35084,0.7017-0.11695,1.1695" fill-rule="nonzero" fill="#FFF"/>
  <path d="m30.157,378.09-3.0017,0c-0.38983,0-0.66271-0.19491-0.66271-0.58474v-17.971c0-0.31186-0.15593-0.50678-0.4678-0.50678h-16.061c-0.31186,0-0.46779,0.19492-0.46779,0.50678v17.893c0,0.38983-0.19491,0.66271-0.58474,0.66271h-2.9237c-0.38983,0-0.66271-0.19491-0.66271-0.58474v-39.256c0-0.38983,0.19491-0.58475,0.66271-0.58475h2.8847c0.42881,0,0.62373,0.2339,0.62373,0.58475v16.646c0,0.31187,0.077972,0.50678,0.46779,0.50678h16.061c0.38983,0,0.4678-0.19491,0.4678-0.50678v-16.646c0-0.38983,0.27288-0.58475,0.66271-0.58475h2.9237c0.46779,0,0.66271,0.2339,0.66271,0.58475v39.178c0,0.38983-0.19492,0.66271-0.58474,0.66271" fill-rule="nonzero" fill="#FFF"/>
  <path d="m111.36,350.63-3.7424,13.761c-0.078,0.38984,0,0.4678,0.27288,0.4678h11.344c0.38983,0,0.4678-0.078,0.38983-0.4678l-3.7424-13.683-2.1051-8.4593c-0.0389-0.27287-0.27287-0.27287-0.31186,0l-2.1051,8.3813zm12.514,27.444c-0.4678,0-0.66271-0.11696-0.77966-0.42882l-2.4949-8.9661c-0.078-0.23389-0.11694-0.27287-0.31185-0.27287h-13.332c-0.23391,0-0.31187,0.0389-0.38984,0.19491-0.38983,1.8322-1.9491,7.2118-2.4169,9.044-0.078,0.31186-0.31187,0.42882-0.7017,0.42882h-2.6898c-0.54576,0-0.81863-0.11696-0.66271-0.77967l10.564-38.983c0.0389-0.31187,0.23389-0.66271,0.77965-0.66271h4.3661c0.46778,0,0.6627,0.11694,0.81863,0.58474l10.72,38.944c0.15594,0.38982,0.19491,0.89661-0.42881,0.89661h-3.0407z" fill-rule="nonzero" fill="#FFF"/>
  <path d="m199.65,337.65c0.85763,0,1.0525,0.38983,1.3644,0.85762l17.036,31.108c0.078,0.15593,0.19492,0.19491,0.19492,0v-31.303c0-0.38983,0.15593-0.66271,0.62372-0.66271h2.8068c0.38984,0,0.58475,0.27288,0.58475,0.58474v38.788c0,0.85763-0.50677,1.0525-0.97458,1.0525h-2.0271c-0.81864,0-1.0525-0.2339-1.3254-0.77966l-17.036-30.991c-0.078-0.11696-0.19491-0.19492-0.19491,0v31.147c0,0.38982-0.15593,0.62372-0.66271,0.62372h-2.7678c-0.38982,0-0.58474-0.2339-0.58474-0.62372v-38.554c0-0.77965,0.15592-1.2474,1.0525-1.2474h1.9102z" fill-rule="nonzero" fill="#FFF"/>
  <path d="m297.16,337.65c0.85762,0,1.0525,0.38983,1.3644,0.85762l17.036,31.108c0.078,0.15593,0.23391,0.19491,0.23391,0v-31.303c0-0.38983,0.11693-0.66271,0.58474-0.66271h2.8068c0.38983,0,0.58475,0.27288,0.58475,0.58474v38.788c0,0.85763-0.50678,1.0525-0.97458,1.0525h-2.0271c-0.77966,0-1.0526-0.2339-1.3254-0.77966l-17.036-30.991c-0.078-0.11696-0.19491-0.19492-0.19491,0v31.147c0,0.38982-0.11695,0.62372-0.66271,0.62372h-2.7678c-0.38983,0-0.58474-0.2339-0.58474-0.62372v-38.554c0-0.77965,0.15593-1.2474,1.0525-1.2474h1.9102z" fill-rule="nonzero" fill="#FFF"/>
  <path d="m413.7,378.09-21.246,0c-0.38983,0-0.70169-0.27288-0.70169-0.66271v-39.139c0-0.38983,0.23389-0.62373,0.70169-0.62373h20.739c0.38983,0,0.62374,0.2339,0.62374,0.62373v2.378c0,0.38982-0.19491,0.58474-0.62374,0.58474h-16.724c-0.35085,0-0.54576,0.078-0.54576,0.46779v13.098c0,0.35086,0.15593,0.46779,0.4678,0.46779h14.229c0.4678,0,0.66272,0.19491,0.66272,0.66272v2.4169c0,0.38984-0.19492,0.58475-0.58475,0.58475h-14.229c-0.35085,0-0.54576,0.11695-0.54576,0.54576v14.463c0,0.35086,0.19491,0.4678,0.4678,0.4678h17.308c0.38982,0,0.66271,0.19491,0.66271,0.58475v2.4169c0,0.38983-0.19492,0.66271-0.66271,0.66271" fill-rule="nonzero" fill="#FFF"/>
  <path d="m505.91,378.09-20.661,0c-0.38983,0-0.62373-0.27288-0.62373-0.66271v-39.178c0-0.38983,0.11695-0.58475,0.58474-0.58475h2.9237c0.38982,0,0.58474,0.2339,0.58474,0.58475v35.63c0,0.42882,0.15594,0.54576,0.4678,0.54576h16.724c0.31186,0,0.58474,0.19491,0.58474,0.58475v2.4169c0,0.38983-0.19491,0.66271-0.58474,0.66271" fill-rule="nonzero" fill="#FFF"/>
  <path style="baseline-shift:baseline;block-progression:tb;color:#000000;direction:ltr;text-indent:0;text-align:start;enable-background:accumulate;text-transform:none;" d="m-88.108,319.94,0,0.84494,600,0,0-0.84494-600,0z" fill-rule="nonzero" fill="#FFF"/>
 </g>
</svg>
