<svg xmlns="http://www.w3.org/2000/svg" width="2250.65" height="989" viewBox="0 0 2272.8462 998.85506" fill-rule="evenodd"><g transform="translate(-.117)"><g fill="#3a3e41"><path d="m98.12 891.39h-35.33v-13.94h86.41v13.94h-35.18v104.11h-15.9z"/><path d="m244.44 995.5v-53.85h-63.99v53.85h-15.8v-118.05h15.8v50.26h63.99v-50.26h15.89v118.05z"/><path d="m355.46 941.82h-57.36v39.95h68.01v13.73h-83.27v-117.84h81.26v13.94h-66v36.29h57.36z"/><path d="m427.24 877.66h45.48c12.368 0 23.658.471 30.768 2.745 14.575 4.819 20.413 16.275 20.413 27.476 0 6.385-1.72 10.192-2.214 11.293-5.339 12.05-16.68 14.41-23 15.78 7.111 1.09 16.68 2.561 23.21 9.901 4.12 4.534 6.531 11.09 6.531 17.788 0 9.218-4.907 21.97-19.591 28.447-8.874 3.93-18.292 4.401-31.88 4.401h-49.712v-117.83m28.02 21.987v24.509h22.23c6.62-.08 17.46-.47 17.46-12.663 0-11.264-9.856-11.846-15.452-11.846h-24.23m0 45.907v28.565h20.502c9.819-.212 22.719-.508 22.719-14.04 0-14.13-11.673-14.321-17.707-14.528h-25.514"/><path d="m574.64 877.66v117.84h-29.36v-117.84z"/><path d="m651.01 998.86c-37.38 0-58.58-28.75-58.58-62.807 0-31.908 20.18-62.11 58.05-62.11 7.06 0 14.377.98 21.64 3.516 35.961 12.569 38.36 51.833 38.36 59.767.002 20.304-9.364 38.767-22.427 49.27-11.521 9.521-24.815 12.372-37.04 12.372m20.359-91.66c-4.992-5.284-12.656-8.727-20.7-8.727-17.855 0-29.23 15.803-29.23 37.07 0 28.09 15.697 38.38 29.572 38.38 14.04 0 29.01-9.911 29.93-34.647.491-12.36-2.93-24.915-9.571-32.07z"/><path d="m812.05 984.4c-4.807 4.537-14.864 13.751-34.643 13.751-32.958 0-53.18-26.7-53.18-61.41 0-37.889 24.63-63.11 58.09-63.11 31.26 0 46.42 20.02 51.962 27.19l-22.422 13.53c-4.12-6.25-10.94-16.681-27.326-16.681-22.378 0-30.808 18.548-30.808 38.27 0 13.244 3.571 24.15 9.315 30.03 4.516 4.912 12.471 8.445 21.493 8.445 5.35 0 11.388-1.269 16.201-4.527 7.738-4.898 8.727-11.376 9.559-17.448h-26.447v-22.388h51.22v65.45h-23.02v-11.09"/><path d="m855.67 877.66h53.08c12.367.186 27.728.286 38.467 11.965 5.557 6.288 9.379 15.5 9.379 26.19.002 23.776-16.188 29.557-24.14 32.592l27.13 47.09h-32.467l-23.411-42.07h-18.493v42.07h-29.543v-117.83m29.543 21.987v31.886h24.327c4.226-.1 17.665-.508 17.665-16.189.002-14.936-10.85-15.518-16.977-15.697h-25.02"/><path d="m1039.36 877.66l43.43 117.83h-31.355l-5.824-18.913h-43.43l-5.841 18.913h-31.31l43.671-117.83h30.656m-15.887 28.05c-1.374 6-3.096 12.181-4.819 18.15-2.504 8.845-6.916 22.675-9.616 31.501h29.831l-15.395-49.65"/><path d="m1094.42 877.66h47.45c19.375 0 36.543 0 46.895 14.915 4.578 6.559 6.681 16.1 6.681 24.14 0 6.452-1.325 12.74-4.03 18.336-10.151 21.11-31.886 21.578-47.83 21.87h-19.62v38.567h-29.54v-117.83m29.54 21.679v35.716h17.71c11.04 0 24.435-.302 24.435-18.543 0-17.17-14.921-17.17-23.457-17.17h-18.688"/><path d="m1282.22 877.66h29.54v117.84h-29.54v-50.23h-43.13v50.23h-29.62v-117.84h29.62v42.48h43.13z"/><path d="m1323.64 877.66h33.86l25.311 40.41c1.521-3.327 1.917-4.12 4.913-8.81l20.22-31.603h33.458l-44.505 62.11v55.72h-29.04v-54.941l-44.21-62.892"/><path d="m1610.52 952.72c-5.065 22.461-23.937 45.721-58.09 45.721-38.864 0-57.56-29.14-57.56-61.927 0-33.36 19.19-61.812 59.76-61.812 40.729 0 50.636 28.16 53.58 36.03l-15.902 3.221c-1.522-4.327-2.7-8.06-7.01-13.14-5.65-6.959-16-13.543-30.864-13.543-12.561 0-24.72 4.913-32.33 14.713-7.552 9.324-9.855 21.701-9.855 33.769 0 29.23 14.757 49.741 41.994 49.741 17.564 0 35.37-9.905 39.1-34.82l17.17 2.046"/><path d="m1708.31 995.5v-53.85h-64.13v53.85h-15.71v-118.05h15.71v50.26h64.13v-50.26h15.84v118.05z"/><path d="m1813.5 959.49h-44.94l-13.147 36.01h-16.777l44.94-117.83h16.334l42.928 117.83h-16.586l-12.752-36.01m-4.701-13.13l-17.235-49.27-17.949 49.27h35.18"/><path d="m1949.94 995.5h-14.17l-64.62-95.85 1.42 95.85h-14.78v-117.84h14.78l63.93 94.38-.73-94.38h14.17z"/><path d="m2068.1 995.5h-14.14l-64.62-95.85 1.42 95.85h-14.8v-117.84h14.8l63.88 94.38-.68-94.38h14.14z"/><path d="m2166.81 941.82h-57.51v39.95h68.16v13.73h-83.31v-117.84h81.3v13.94h-66.15v36.29h57.51z"/><path d="m2216.02 877.45v104.03h57.06v14.02h-72.71v-118.05z"/><path d="m895.85 160.83v-160.83h-160.93v160.83z"/><path d="m389.12 781.11c-82.68 0-138.06-30.421-170.69-93.62l-29.335 75.17h-105.54v-625.67c0-35.909-9.622-47.891-39.05-47.891h-44.501v-89.09h244.53v304.78c50.04-56.31 92.48-75.947 157.68-75.947 140.28 0 221.77 99.99 221.77 277.01 0 168.69-90.23 275.26-234.87 275.26m-38.06-449.04c-68.4 0-108.63 66.32-108.63 180.46 0 109.7 36.896 170.63 103.22 170.63 67.32 0 106.52-64.16 106.52-177.32 0-109.61-36.99-173.78-101.11-173.78z"/><path d="m649.01 762.65v-88.11h46.807c29.342 0 39.1-11.969 39.1-48.969v-244.64c0-35.817-9.761-47.781-39.1-47.781h-46.807v-89.2h246.85v381.62c0 36.01 9.857 48.969 39.2 48.969h45.634v88.11h-331.68"/><path d="m1281.15 781.11c-176.19 0-288.2-107.67-288.2-276.15 0-169.57 112.01-276.13 288.2-276.13 175.02 0 286.88 106.56 286.88 276.13 0 168.48-111.87 276.15-286.88 276.15m0-465.34c-74.08 0-116.28 69.47-116.28 189.19 0 119.53 42.19 189.1 116.28 189.1 72.808 0 115.25-69.58 115.25-189.1 0-119.72-42.44-189.19-115.25-189.19z"/></g><path d="m1779.3 678.07c0-51.31-41.554-92.93-92.92-92.93-51.22 0-92.82 41.619-92.82 92.93 0 51.22 41.597 92.84 92.82 92.84 51.37 0 92.92-41.613 92.92-92.84" fill="#d02a2b"/><g fill="#3a3e41"><path d="m1913.63 617.18v-88.15h-88.85v-60.85h88.85v-88.15h59.23v88.15h89.08v60.85h-89.08v88.15z"/><path d="m2268.33 666h-65.02v-245.02c-23.754 22.21-51.75 38.639-83.987 49.28v-58.999c16.967-5.553 35.4-16.08 55.3-31.582 19.898-15.502 33.549-33.587 40.953-54.26h52.752z"/></g></g></svg>