<svg xmlns="http://www.w3.org/2000/svg" viewBox="0 0 200 200"><g transform="matrix(1.32722 0 0 1.3275-291.53-929.25)"><path d="m280 701.94c-19 3.863-35.403 14.938-46.22 30.22l46.22 25.22v-55.44" fill="#00aca2"/><path d="m310.78 702.12v54.625l44.594-25.75c-10.662-14.471-26.406-24.973-44.594-28.875" fill="#00aeef"/><path d="m311 795.25v53.37c17.792-3.874 33.24-14.05 43.844-28.09l-43.844-25.281" fill="#fdba31"/><path d="m279.5 795.37l-43.625 26.09c10.681 13.69 26.02 23.575 43.625 27.28v-53.37" fill="#b2d33e"/><path d="m222.25 793.5c.913 3.679 2.097 7.277 3.531 10.719l18.594-10.719h-22.12" fill="#0079c2"/><path d="m225.19 748.12c-1.426 3.648-2.592 7.444-3.438 11.344h23.06l-19.625-11.344" fill="#ca2d92"/><path d="m364.53 747.44l-22.16 12.813 25.875-.719c-.899-4.167-2.158-8.216-3.719-12.09" fill="#ed2724"/><path d="m346.28 792.81l18.281 10.563c1.366-3.396 2.482-6.942 3.344-10.563h-21.625" fill="#f8981d"/><g fill="#fff"><path d="m353.94 729.12l-41.938 24.75v4.5h39l14.469-8.563c-2.738-7.54-6.663-14.497-11.531-20.688"/><path d="m236.06 729.12c-4.868 6.191-8.793 13.147-11.531 20.688l14.469 8.563h39v-4.5l-41.938-24.75"/><path d="m312 793.37v4.5l41.44 24.438c4.935-6.14 8.932-13.06 11.75-20.563l-14.188-8.375h-39"/></g><path d="m229.69 738.72c-1.444 2.566-2.767 5.196-3.906 7.938l18.219 10.719h17l-31.31-18.656" fill="#ee2375"/><path d="m239 793.37l-14.188 8.375c2.818 7.506 6.815 14.422 11.75 20.563l41.44-24.438v-4.5h-39" fill="#fff"/><path d="m260 794.37l-30.28 17.813c1.464 2.594 3.092 5.079 4.844 7.469l42.44-25.281h-17" fill="#00aca2"/><path d="m355.97 731.78l-42.969 25.594h17l30.719-18.06c-1.437-2.608-3.02-5.124-4.75-7.531" fill="#781d7e"/><path d="m328 794.37l31.719 18.906c1.489-2.537 2.844-5.159 4.03-7.875l-18.75-11.03h-17" fill="#ed2724"/><g fill="#fff"><path d="m222.5 756.37c-1.589 6.075-2.469 12.458-2.469 19.03 0 6.922.963 13.606 2.719 19.969h144.5c1.756-6.363 2.719-13.05 2.719-19.969 0-6.573-.88-12.957-2.469-19.03h-145"/><path d="m295.03 700.37c-6.223 0-12.25.758-18.03 2.188v145.5c5.782 1.429 11.808 2.219 18.03 2.219 6.189 0 12.216-.773 17.969-2.188v-145.56c-5.753-1.414-11.78-2.156-17.969-2.156"/></g><g fill="#781d7e"><path d="m295 700.37c-3.915 0-7.747.297-11.5.875v148.12c3.753.578 7.585.906 11.5.906 3.915 0 7.747-.328 11.5-.906v-148.12c-3.753-.578-7.585-.875-11.5-.875"/><path d="m221.19 762.37c-.733 4.209-1.156 8.519-1.156 12.938 0 4.802.481 9.511 1.344 14.06h147.25c.863-4.551 1.344-9.26 1.344-14.06 0-4.419-.423-8.729-1.156-12.938h-147.62"/></g><g transform="matrix(.77151 0 0 .77151 132.06 359.44)" fill="none" stroke="#fff"><g stroke-width="3.4"><g stroke-linecap="round"><path d="m170.36 530.36v19h12.5"/><path d="m188.36 530.36v19"/><path d="m205.36 540.36h7.554c0 4.608-2.498 9-8.554 9-6.99 0-10-5.619-10-10 0-6.208 5.343-10 10-10 5.286 0 7.662 3.978 7.662 3.978" stroke-linejoin="round"/><path d="m149.36 549.36v-19h8.432c6.843 0 5.773 9 0 9 9.826 0 7.292 10 1.568 10z"/></g><path d="m150.36 539.36h10"/><g stroke-linecap="round"><path d="m219.36 530.36v19"/><path d="m235.36 530.36v19"/></g><path d="m220.36 539.36h14"/><g stroke-linecap="round"><path d="m248.36 531.36v18"/><path d="m240.36 530.36h16"/><path d="m269.36 539.36v10"/></g></g><path d="m261.36 530.36l7.987 10 8.761-10" stroke-linecap="round" stroke-width="3.5"/></g></g></svg>