<svg xmlns="http://www.w3.org/2000/svg" viewBox="0 0 600 134.6"><g transform="matrix(.99999 0 0 .99999 41.622 310.42)" fill="#fff"><path d="m-25.648-261.38h15.168c12.768 0 18.777 3.081 18.777 11.883 0 11.05-11.27 12.359-19.424 12.359h-14.521v-24.24m-15.798 37.06h31.954c16.803 0 33.588-5.703 33.588-24 0-10.793-8.02-19.13-19.17-20.309v-.255c9.142-2.605 15.407-8.869 15.407-18.403 0-15.321-13.789-21.16-27.19-21.16h-34.592v84.13zm15.798-71.28h13.02c11.917 0 17.18 3.575 17.18 10.81 0 6.299-5.26 10.589-15.798 10.589h-14.402v-21.399"/><path d="m34.411-310.42h15.03v86.11h-15.03v-86.11"/><path d="m59.51-252.83c0 17.96 14.538 29.945 32.72 29.945 18.16 0 32.703-11.985 32.703-29.945 0-17.926-14.538-29.928-32.703-29.928-18.18 0-32.72 12-32.72 29.928m15.03 0c0-8.921 6.639-17.11 17.688-17.11 11.01 0 17.654 8.188 17.654 17.11 0 8.904-6.639 17.13-17.654 17.13-11.05 0-17.688-8.222-17.688-17.13"/><path d="m131.72-252.83c0 17.96 14.538 29.945 32.72 29.945 18.16 0 32.703-11.985 32.703-29.945 0-17.926-14.538-29.928-32.703-29.928-18.18 0-32.72 12-32.72 29.928m15.03 0c0-8.921 6.656-17.11 17.688-17.11 11.01 0 17.671 8.188 17.671 17.11 0 8.904-6.656 17.13-17.671 17.13-11.03 0-17.688-8.222-17.688-17.13"/><path d="m206.33-281.33h14.283v8.904h.238c2.639-5.346 8.41-10.333 18.42-10.333 9.295 0 15.662 3.439 18.811 10.572 4.392-7.269 10.776-10.572 19.782-10.572 16.05 0 21.688 10.81 21.688 24.463v33.98h-15.03v-32.31c0-7.116-2.247-13.313-11.151-13.313-9.397 0-12.921 7.371-12.921 14.709v30.915h-15.03v-33.98c0-7.03-2.996-11.644-10.265-11.644-9.908 0-13.789 6.912-13.789 14.504v31.12h-15.03v-57.01"/><path d="m311.73-224.31h14.317v-8.563h.238c4.392 6.895 12.274 9.993 20.684 9.993 18.539 0 29.707-13.07 29.707-29.945 0-16.888-11.934-29.928-29.08-29.928-11.287 0-17.313 4.988-20.446 8.648h-.375v-36.31h-15.05v86.11m49.914-28.515c0 8.904-6.656 17.11-17.688 17.11-11.03 0-17.671-8.206-17.671-17.11 0-8.921 6.639-17.11 17.671-17.11 11.03 0 17.688 8.188 17.688 17.11"/><path d="m444.37-247.83v-3.933c0-19.816-11.406-31-28.19-31-18.16 0-32.72 12-32.72 29.928 0 17.96 14.555 29.945 32.72 29.945 9.499 0 18.42-3.201 25.434-11.406l-10.793-7.712c-3.728 4.392-8.631 7.712-16.14 7.712-8.41 0-15.185-5.09-16.17-13.534h45.862m-45.862-10.691c1.141-8.223 6.639-13.534 15.543-13.534 9.397 0 15.13 5.209 15.287 13.534h-30.83"/><path d="m454.18-281.33h15.01v9.02h.289c3.217-6.537 9.891-10.453 17.773-10.453 1.89 0 3.643.34 5.414.817v13.789c-2.537-.596-4.903-1.055-7.286-1.055-14.164 0-16.19 11.27-16.19 14.351v30.541h-15.01v-57.01"/><path d="m544.08-281.33v8.546h-.238c-4.392-6.895-12.308-9.976-20.701-9.976-18.539 0-29.673 13.06-29.673 29.928 0 16.16 11.9 29.23 29.945 29.23 7.49 0 15.287-2.724 19.663-8.308h.255v4.137c0 11.304-4.511 19.13-19.07 19.13-8.376 0-14.64-2.962-20.667-8.189l-9.02 11.644c8.546 7.133 18.709 9.38 29.86 9.38 23.391 0 33.946-13.07 33.946-33.622v-51.906h-14.3m-17.79 11.389c10.895 0 17.79 6.912 17.79 16.751 0 9.516-6.759 16.768-17.909 16.768-10.146 0-17.671-7.507-17.671-16.53 0-10.08 7.252-16.99 17.79-16.99"/><path d="m-33.09-199.32h-8.529v-5.516h23.629v5.516h-8.529v22.778h-6.571v-22.778"/><path d="m-12.476-204.83h20.292v5.754h-13.704v5.277h12.938v5.754h-12.938v5.754h14.453v5.754h-21.04v-28.29"/><path d="m16.456-204.83h6.588v22.54h12.189v5.754h-18.777v-28.29"/><path d="m41.472-204.83h20.292v5.754h-13.704v5.277h12.938v5.754h-12.938v5.754h14.453v5.754h-21.04v-28.29"/><path d="m66.35-204.83h7.508l7.388 18.539h.085l7.49-18.539h7.05l-12.308 28.29h-5.26l-11.951-28.29"/><path d="m100.85-204.82h6.588v28.29h-6.588v-28.29"/><path d="m131.82-197.93c-1.055-1.294-3.149-1.873-4.75-1.873-1.873 0-4.443.8-4.443 2.911 0 5.158 13.755 1.856 13.755 11.763 0 6.316-5.363 9.295-11.525 9.295-3.83 0-7.201-1.055-10.03-3.541l4.682-4.869c1.345 1.668 3.524 2.673 5.737 2.673 2.145 0 4.562-.953 4.562-2.962 0-5.192-14.01-2.4-14.01-11.849 0-6.03 5.516-9.176 11.372-9.176 3.388 0 6.639.834 9.159 2.945l-4.511 4.682"/><path d="m144.38-204.82h6.588v28.29h-6.588v-28.29"/><path d="m173.4-181.57c5.601 0 9.278-3.847 9.278-9.125 0-5.243-3.677-9.108-9.278-9.108s-9.278 3.864-9.278 9.108c0 5.277 3.677 9.125 9.278 9.125m0-23.987c9.329 0 16.1 5.788 16.1 14.862 0 9.108-6.775 14.879-16.1 14.879-9.312 0-16.1-5.771-16.1-14.879 0-9.07 6.792-14.862 16.1-14.862"/><path d="m195.09-204.83h8.938l12.7 19.663h.068v-19.663h6.588v28.29h-8.597l-13.04-20.14h-.085v20.14h-6.571v-28.29"/></g></svg>