<svg xmlns="http://www.w3.org/2000/svg" height="245.21" width="600" viewBox="0 0 158.75 64.87887" xmlns:xlink="http://www.w3.org/1999/xlink"><defs><linearGradient id="0" gradientUnits="userSpaceOnUse" x1="19.507" x2="54.81"><stop stop-color="#760c04"/><stop stop-color="#d60c12" offset="1"/></linearGradient><linearGradient id="1" gradientUnits="userSpaceOnUse" x1="-63.13" x2="16.291"><stop stop-color="#252058"/><stop stop-color="#2a2372" offset="1"/></linearGradient><linearGradient id="2" gradientUnits="userSpaceOnUse" x1="514.8" x2="553.06" xlink:href="#0"/></defs><g transform="translate(103.94-117.12)"><path d="m-82.44 117.12h16.67l.096 64.38-18.387-.03c.818-2.02 1.584-4.11 2.171-6.04 3.475-11.46-4.601-15.17 2.839-28.63 6.449-1.25 8.983-7.2 8.07-11.72l.03-1.45c-.411-.29-.705-.42-1.036-.77-3.699-3.77-7.969-7.02-10.449-15.74m-18.835 0h14.944c.463 7.34 3.476 12.26 6.215 15.74.301.38.624.49 1.037.77l-.03 1.45c.922 4.52-1.604 10.48-8.05 11.73-3.846 10.98 3.315 14.2 2.978 23.41-.188 5.12-.937 7.6-1.922 11.25h-17.829v-64.35h2.66" fill-rule="evenodd" fill="url(#2)"/><path fill="url(#1)" d="m16.291 176.3v5.17h-11.892v-25.95h11.468v5.16h-4.59v4.93h4.287v4.93h-4.287v5.76zm-20.514-20.78h6.884v25.95h-6.884zm-8.756 0h7.241l-3.512 25.95h-10.353l-3.997-25.95h7.241c.82 7.14 1.415 13.2 1.779 18.18.361-5.03.753-9.48 1.173-13.36zm-18.215 18.58c0 1.53-.063 2.49-.191 2.9-.134.4-.419.61-.883.61-.448 0-.733-.18-.859-.53-.119-.35-.177-1.28-.177-2.79v-12.1c0-1.33.091-2.14.277-2.41s.456-.4.809-.4c.414 0 .691.16.825.5.13.34.199 1.11.199 2.31zm5.462-16.39c-.684-.92-1.593-1.59-2.714-2.05-1.125-.45-2.389-.68-3.8-.68-1.493 0-2.8.24-3.917.72s-2 1.17-2.662 2.07c-.658.9-1.049 1.89-1.171 2.97-.127 1.08-.192 2.93-.192 5.53v4.44c0 2.67.069 4.54.197 5.6.127 1.07.539 2.06 1.227 2.97.681.91 1.582 1.59 2.709 2.04 1.123.45 2.392.68 3.809.68 1.485 0 2.792-.24 3.904-.72 1.126-.48 2.01-1.17 2.671-2.07.651-.89 1.047-1.88 1.166-2.97.13-1.08.193-2.93.193-5.53v-4.44c0-2.67-.065-4.54-.199-5.6-.135-1.07-.533-2.06-1.221-2.96m-25.19-2.19h8.918v25.95h-5.973l-.03-17.52-2.387 17.52h-4.222l-2.506-17.17-.03 17.17h-5.978v-25.95h8.86c.232 1.56.504 3.39.816 5.5l.98 6.61zm66.776-2.62h-15.923v-35.78h15.319v7.11h-6.306v6.74h5.891v6.86h-5.891v7.86h6.91zm-19.696-2.77c-.887 1.16-2.052 2.04-3.502 2.64-1.45.6-3.157.9-5.123.9-2.177 0-4.101-.36-5.765-1.07-1.67-.7-2.913-1.63-3.741-2.77-.825-1.13-1.312-2.34-1.459-3.6-.154-1.26-.225-3.92-.225-7.97v-21.14h9.489v26.8c0 1.57.085 2.57.256 3.01.171.43.517.65 1.039.65.599 0 .98-.24 1.153-.72.171-.48.253-1.62.253-3.4v-26.34h9.49v23.89c0 2.72-.087 4.63-.266 5.73-.177 1.1-.714 2.23-1.599 3.39m-20.606 2.77h-15.199v-35.78h9.49v28.57h5.709zm-26.444-22.51c-.246.45-.833.67-1.753.67-.22 0-.53.001-.93.03v-7.92c.963.001 1.61.08 1.943.19.329.12.602.41.81.85.21.45.311 1.23.311 2.35 0 2.11-.125 3.39-.381 3.83m.381 13.01c0 1.45-.184 2.36-.547 2.73-.362.37-1.199.58-2.517.62v-10.05c1.391.05 2.251.23 2.573.56.327.32.491 1.26.491 2.79zm3.863-9.92c1.97-.44 3.292-1.07 3.963-1.9.668-.82 1-2.28 1-4.37 0-3.1-.472-5.34-1.418-6.73-.948-1.4-2.188-2.21-3.724-2.67-1.541-.45-3.802-.69-6.787-.69h-9.457v35.78h10.957c3.804 0 6.328-.22 7.557-.65 1.229-.42 2.127-1.22 2.69-2.39s.842-2.97.842-5.4v-3.34c0-2.34-.385-4.07-1.171-5.21-.779-1.12-2.266-1.94-4.456-2.43"/><path fill="url(#0)" d="m31.624 135.78h-11.544s0-7.41 1.981-10.85c1.982-3.45 6.03-8.36 16.367-7.76 10.338.61 13.956 5.34 15.08 14.05 1.119 8.7-2.93 14.64-7.667 16.19 2.67.6 9.907 2.24 8.873 17.84-1.035 15.59-14.201 16.36-17.266 16.36-3.064 0-19 .78-17.882-20.07 6.03 0 12.578.17 12.578.17s-.604 10.17 4.48 10.17c5.081 0 5.081-4.22 5.168-9.48.086-5.25-.775-7.24-1.723-8.18-.948-.95-3.188-1.73-8.271-1.55v-9.65s3.101.43 4.826.08c1.722-.34 4.477-1.63 4.393-8.95-.087-7.33-2.584-7.41-4.309-7.5-1.722-.09-4.737.09-5.081 9.13"/></g></svg>