<svg xmlns="http://www.w3.org/2000/svg" viewBox="0 0 600 203.09" xmlns:xlink="http://www.w3.org/1999/xlink"><g transform="translate(-.004.031)"><path d="m47.07 32.862c-1.818-2.02-4.053-2.98-6.704-2.98h-13.758l-3.418 26.14c-.329 2.651.307 4.995 2.02 6.923 1.818 2.02 4.053 2.98 6.726 2.98h3.834c2.651 0 5.105-.964 7.339-2.87 2.235-2.038 3.527-4.382 3.834-7.03l2.146-16.233c.329-2.651-.306-4.995-2.02-6.923m20.331 17.395c-.854 7.12-3.724 13.1-8.413 17.877-4.907 4.907-10.757 7.361-17.68 7.361h-30.15c-2.76 0-4.995-.964-6.704-2.98-1.818-2.038-2.453-4.382-2.125-7.142l7.755-63.16h13.955c3.308 0 4.907 2.125 4.907 6.485 0 .767-.11 1.599-.219 2.563-.197 1.599-.526 4.469-1.052 8.522h20.44c6.288 0 11.195 2.038 14.919 6.178 3.505 3.944 5.214 8.96 5.214 15.226 0 1.293 0 2.563-.219 3.944l-.635 5.127z" fill="#127bca"/><path d="m47.07 32.862c-1.818-2.02-4.053-2.98-6.704-2.98h-13.758l-3.418 26.14c-.329 2.651.307 4.995 2.02 6.923 1.818 2.02 4.053 2.98 6.726 2.98h3.834c2.651 0 5.105-.964 7.339-2.87 2.235-2.038 3.527-4.382 3.834-7.03l2.146-16.233c.329-2.651-.306-4.995-2.02-6.923zm20.331 17.395c-.854 7.12-3.724 13.1-8.413 17.877-4.907 4.907-10.757 7.361-17.68 7.361h-30.15c-2.76 0-4.995-.964-6.704-2.98-1.818-2.038-2.453-4.382-2.125-7.142l7.755-63.16h13.955c3.308 0 4.907 2.125 4.907 6.485 0 .767-.11 1.599-.219 2.563-.197 1.599-.526 4.469-1.052 8.522h20.44c6.288 0 11.195 2.038 14.919 6.178 3.505 3.944 5.214 8.96 5.214 15.226 0 1.293 0 2.563-.219 3.944l-.635 5.127z" stroke="#d3d2d2" stroke-width="4.491" fill="none"/><path d="m94.81 75.49h-19.893l8.96-73.13h13.32c1.818 0 3.199.416 4.36 1.271 1.183.964 1.818 2.02 1.599 3.418l-7.05 57.47h-.022l-1.271 10.976" fill="#127bca"/><path d="m94.81 75.49h-19.893l8.96-73.13h13.32c1.818 0 3.199.416 4.36 1.271 1.183.964 1.818 2.02 1.599 3.418l-7.05 57.47h-.022l-1.271 10.976z" stroke="#d3d2d2" stroke-width="4.491" fill="none"/><path d="m169.83 67.928c-.219 2.125-1.49 3.944-3.724 5.324s-4.688 2.125-7.361 2.125h-43.03c-2.563 0-4.798-.745-6.704-2.125-1.928-1.38-2.673-3.199-2.454-5.324l5.871-48.15h19.805l-4.71 37.923c-.635 5.433 3.615 8.106 12.882 8.106 2.344 0 4.579-.635 6.616-1.928 2.541-1.599 3.922-3.615 4.25-6.178l4.184-33.23c.197-1.38.942-2.432 2.344-3.286 1.38-.964 2.98-1.402 4.776-1.402h13.1l-5.85 48.15" fill="#127bca"/><path d="m169.83 67.928c-.219 2.125-1.49 3.944-3.724 5.324s-4.688 2.125-7.361 2.125h-43.03c-2.563 0-4.798-.745-6.704-2.125-1.928-1.38-2.673-3.199-2.454-5.324l5.871-48.15h19.805l-4.71 37.923c-.635 5.433 3.615 8.106 12.882 8.106 2.344 0 4.579-.635 6.616-1.928 2.541-1.599 3.922-3.615 4.25-6.178l4.184-33.23c.197-1.38.942-2.432 2.344-3.286 1.38-.964 2.98-1.402 4.776-1.402h13.1l-5.85 48.15z" stroke="#d3d2d2" stroke-width="4.491" fill="none"/><path d="m232.3 28.708c-.526.964-.745 1.49-.854 1.599-.745-.11-2.344-.219-4.798-.526-2.02-.219-3.615-.438-4.886-.438-11.195 0-17.15 2.76-17.789 8.413l-.46 3.199h20.13s4.907-.307 4.162 4.951c-.701 5.105-5.455 4.71-5.455 4.71h-20.13l-.833 6.77c-.416 3.615 1.38 6.069 5.324 7.339 2.235.745 5.652 1.073 10.45 1.073 1.161 0 2.87-.11 4.995-.416 2.454-.329 4.053-.438 4.907-.548.526 2.235.438 6.069.438 5.959-.219 2.037-3.834 3.527-10.757 4.601-4.907.745-9.596 1.052-14.175 1.052-7.996 0-13.43-.745-16.19-2.125-3.505-1.818-5.214-5.324-5.214-10.757 0-1.49.11-3.199.307-5.02l2.782-22.368c.942-7.668 3.308-12.663 7.12-15.12 3.199-2.02 9.289-2.979 18.337-2.979 4.36 0 8.829.307 13.517 1.073 6.923 1.052 10.341 2.541 10.01 4.557 0 .11-.526 4.03-.942 4.995" fill="#127bca"/><path d="m232.3 28.708c-.526.964-.745 1.49-.854 1.599-.745-.11-2.344-.219-4.798-.526-2.02-.219-3.615-.438-4.886-.438-11.195 0-17.15 2.76-17.789 8.413l-.46 3.199h20.13s4.907-.307 4.162 4.951c-.701 5.105-5.455 4.71-5.455 4.71h-20.13l-.833 6.77c-.416 3.615 1.38 6.069 5.324 7.339 2.235.745 5.652 1.073 10.45 1.073 1.161 0 2.87-.11 4.995-.416 2.454-.329 4.053-.438 4.907-.548.526 2.235.438 6.069.438 5.959-.219 2.037-3.834 3.527-10.757 4.601-4.907.745-9.596 1.052-14.175 1.052-7.996 0-13.43-.745-16.19-2.125-3.505-1.818-5.214-5.324-5.214-10.757 0-1.49.11-3.199.307-5.02l2.782-22.368c.942-7.668 3.308-12.663 7.12-15.12 3.199-2.02 9.289-2.979 18.337-2.979 4.36 0 8.829.307 13.517 1.073 6.923 1.052 10.341 2.541 10.01 4.557 0 .11-.526 4.03-.942 4.995z" stroke="#d3d2d2" stroke-width="4.491" fill="none"/><g fill="#d3d2d2"><use xlink:href="#0"/><path d="m107.31 85.14v102.46h-9.114v-46.03h-48.811v46.03h-9.399v-102.31h9.267v47.17h48.789v-47.32h9.267zm5.302-10.582h-25.15v47.32h-27.626v-47.17h-30.43v123.47h30.584v-46.01h27.626v46.01h30.28v-123.63h-5.28z"/><use xlink:href="#1"/><path d="m158.33 184.21l.394-.022c-.131.022-.263.022-.394.022m33.06-99.07v75.5c-1.621 32.424-30.408 31.964-33.673 31.811h-.131-.153c-31.876 0-33.17-30.452-33.21-31.745 0 0-.066-57.728-.066-75.41h9.618v75.78l.022.241c1.797 19.805 17.965 23.22 24.537 22.894 17.07 0 22.916-14.985 23.639-22.894l.022-.241v-75.934h9.399zm5.302-10.582h-25.282v85.946c-.197 1.775-1.906 13.12-13.08 13.12h-.153l-.219.022c-2.059.11-12.334.022-13.605-13.167v-85.77h-30.803l.088 86.14c.351 14.657 9.946 42.17 43.794 42.17h-.285c.745.022 18.469.854 31.548-10.932 8.172-7.339 12.619-17.768 13.276-31v-.131-86.41h-5.28"/><use xlink:href="#2"/><path d="m264.12 155.08c.066.131.153.263.197.416l-.351-.854c.044.131.088.307.153.438m-38.21-32.446c-.044-.022-.088-.066-.11-.088-.131-.11-.263-.197-.394-.307l.504.394zm22.434 20.221c-.153-.066-17.636-6.529-17.636-6.529-12.334-4.579-18.819-14.175-18.885-14.262-2.454-3.681-3.067-8.5-3.067-12.378 0-3.768.592-6.638.592-6.704 2.344-9.727 8.851-14.306 9.114-14.481 13.386-9.552 28.634-6.726 28.787-6.704l.285.066.329.022c9.333.745 16.672 6.244 20.703 9.99-2.454 2.322-3.637 3.44-6.134 5.806-1.227-1.139-2.498-2.235-3.659-3.155-8.303-6.901-20.44-5.828-21.799-5.674l-.285.022-.307.066c-12.356 2.782-15.686 11.414-16.04 12.4-.986 2.541-1.402 4.929-1.402 7.142 0 6.901 4.01 11.94 6.857 14.06 7.098 6.309 19.433 9.201 21.339 9.618 12.09 3.089 16.804 6.835 16.869 6.879l.219.175.307.219c7.208 4.601 9.881 11.918 9.902 11.984l.088.197.088.241c1.139 2.476 1.49 5.981 1.49 9.289 0 3.374-.372 6.507-.657 8.216-2.936 11.48-14.11 17.614-14.218 17.68l-.153.088-.175.088c-9.201 5.762-21.36 4.25-21.47 4.25-12.137-1.534-19.13-6.485-19.19-6.529-4.82-3.352-8.303-7.777-10.319-10.779 1.994-1.84 2.958-2.738 5.368-4.951 2.738 3.067 5.784 5.543 6.638 6.222 10.297 8.413 20.506 7.624 20.944 7.58l-.482.022c12.159 0 18.03-6.77 18.666-7.536 3.615-4.36 4.798-8.895 4.798-12.772 0-3.177-.833-5.828-1.731-7.646-2.432-6.244-11.787-10.625-15.774-12.225m-35.93-63.05c-.263.175-9.99 6.813-13.386 20.857-.175.789-3.352 16.256 3.987 27.25.307.46 8.303 12.51 24.01 18.337 0 0 17.505 6.463 17.505 6.463 4.25 1.731 9.07 4.776 9.771 6.2l.088.219.197.46c.241.46 2.081 4.601-1.709 9.201-.11.088-3.352 3.659-10.494 3.659h-.153l-.241.022c-.263 0-6.55.329-13.452-5.302-2.585-2.059-6.616-5.893-7.668-8.128l-3.045-6.55-21.19 19.498 1.775 3.571c.219.438 5.565 10.976 15.686 17.987.219.175 8.939 6.529 23.968 8.413.592.066 15.949 2.059 28.459-5.762l-.351.197c.635-.351 15.511-8.347 19.564-24.581l.044-.153.044-.175c.263-1.512 2.519-14.963-1.577-23.989l.197.438c-.153-.416-3.724-10.384-13.693-17.05-.789-.657-6.682-5.324-21.03-8.982l-.197-.044c-3.242-.701-12.619-3.396-16.913-7.383l-.153-.153-.263-.197c-.526-.416-2.629-2.278-2.629-5.609 0-1.03.197-2.213.701-3.527.088-.219 1.775-4.097 8.128-5.63 2.695-.219 9.64 0 13.693 3.374 2.3 1.818 4.776 4.141 5.28 4.907l-.153-.285 3.221 6.331 5.302-4.579 17.461-16.541-2.979-3.79c-.504-.635-12.663-15.949-31.526-17.439l.635.088c-.789-.175-19.805-3.856-36.915 8.369"/><use xlink:href="#3"/><path d="m356.32 85.29v10.143h-29.554v93.33h-9.683v-93.48h-30.15v-9.99h69.38m5.302-10.582h-85.27v31.15h30.12v93.48h30.89v-93.33h29.532v-31.31h-5.28z"/><use xlink:href="#4"/><path d="m383.07 85.28v93.64h43.07v9.267h-52.623v-102.9h9.552zm5.302-10.582h-25.435v124.07h73.79v-30.43h-43.07v-93.64h-5.28z"/><use xlink:href="#5"/><path d="m495.67 84.7v9.859h-42.918v37.463h42.633v8.544h-42.633v38.799h43.2v8.96h-52.32v-103.63h52.03zm5.302-10.582h-67.915v124.79h73.48v-30.12h-43.2v-17.636h42.633v-29.707h-42.633v-16.3h42.918v-31.02h-5.28z"/><use xlink:href="#6"/><path d="m587.83 111.5c0 .11 0 .263-.022.372l.022-.416v.044m-41.83-26.824c7.514.11 14.459 2.125 15.445 2.454 14.854 6.266 15.84 19.739 15.84 23.18 0 .416-.022.701-.022.767l-.022.175v.219c0 24.23-23.902 28.26-24.91 28.437l-8.676 1.358 5.236 7.03s21.339 28.502 29.97 40.05h-11.261c-2.892-3.681-43.575-55.23-43.575-55.23v55.23h-11.173v-103.67h33.15zm.088-10.582h-43.816v124.83h32.34v-35.32c10.231 12.948 27.867 35.32 27.867 35.32h37.529s-30.912-41.32-37.989-50.761c11.655-4.425 25.786-15.336 25.808-36.652.022-.482.066-.964.066-1.49 0-9-4.535-25.22-22.412-32.687l-.131-.066-.131-.044c-.372-.131-9.179-2.98-19.04-3.133h-.044-.044z"/><path d="m566.52 112.79c-.022.153 0 .329-.022.482l.022-.482m-21.16-8.08c9.881 1.01 10.604 6.091 10.604 7.514 0 .066-.022.57-.022.57 0 7.164-7.996 8.106-9.771 8.216h-11.239v-16.3h10.428m.372-10.341h-21.404v37.22h22.19.131c6.879-.329 19.871-4.71 19.871-18.797 0-.219.022-.46.022-.701 0-6.112-4.097-16.12-20.309-17.702l-.263-.022h-.241"/></g><path d="m34.7 80v112.89h19.98v-46.01h38.23v46.01h19.695v-113.05h-19.849v47.34h-38.21v-47.19h-19.849z" id="0"/><path d="m118.85 80l.066 80.84s.898 36.893 38.515 36.893c0 0 37.33 2.059 39.26-36.893v-80.994h-20v80.994s-1.621 18.07-18.359 18.07c0 0-17.505 1.336-19.257-18.07v-80.84h-20.221" id="1"/><path d="m276.06 92.05s-11.02-14.11-27.78-15.423c0 0-17.351-3.549-32.775 7.493 0 0-8.391 5.587-11.326 17.789 0 0-2.936 13.802 3.242 23.07 0 0 7.186 11.02 21.448 16.322l17.505 6.463s11.305 4.557 12.926 9.399c0 0 3.965 7.361-2.344 15.01 0 0-4.557 5.587-14.569 5.587 0 0-8.369.723-17.198-6.485 0 0-7.05-5.587-9.09-9.99l-12.948 11.918s4.842 9.683 13.955 16.02c0 0 7.799 5.762 21.623 7.493 0 0 13.955 1.906 24.975-4.995 0 0 13.386-7.05 16.913-21.16 0 0 2.344-13.08-1.183-20.878 0 0-3.089-8.96-12.05-14.7 0 0-5.148-4.404-18.951-7.931 0 0-13.1-2.804-19.411-8.676 0 0-7.493-5.433-3.681-15.292 0 0 2.366-6.748 12.203-8.96 0 0 11.02-1.183 17.943 4.557l6.616 6.616 13.955-13.233z" id="2"/><path d="m281.64 80v20.572h30.15v93.48h20.265v-93.33h29.554v-20.725h-79.965" id="3"/><path d="m368.22 79.987v113.48h63.2v-19.849h-43.07v-93.64h-20.13z" id="4"/><path d="m438.34 79.41v114.21h62.92v-19.542h-43.23v-28.22h42.633v-19.1h-42.633v-26.903h42.918v-20.44h-62.61z" id="5"/><path d="m529.62 99.4v26.903h16.76s14.832-.745 14.832-13.517c0 0 1.117-11.765-15.489-13.386h-16.1m16.452-20.02c9.114.131 17.351 2.826 17.351 2.826 20.725 8.676 19.1 29.25 19.1 29.25 0 29.25-29.401 33.673-29.401 33.673l36.32 48.5h-24.406l-35.71-45.28v45.28h-21.755v-114.25h38.493z" id="6"/></g></svg>