<svg xmlns="http://www.w3.org/2000/svg" height="232.4" width="600" viewBox="0 0 158.75 61.489014" xmlns:xlink="http://www.w3.org/1999/xlink"><defs><linearGradient id="3" gradientUnits="userSpaceOnUse" x1="50.09" x2="31.565" y1="173.7" y2="158.7"><stop stop-color="#fed892"/><stop stop-color="#fbb979" offset="1"/></linearGradient><linearGradient id="4" gradientUnits="userSpaceOnUse" x1="33.734" x2="12.567" y1="174.55" y2="157.41" xlink:href="#3"/><linearGradient id="2" gradientUnits="userSpaceOnUse" x1="843.7" x2="765.91" y1="-22.07" y2="-181.34"><stop stop-color="#d37327"/><stop stop-color="#fbb979" offset="1"/></linearGradient><linearGradient id="0" gradientUnits="userSpaceOnUse" x1="-65.07" x2="8.321"><stop stop-color="#252058"/><stop stop-color="#2a2372" offset="1"/></linearGradient><linearGradient id="1" gradientUnits="userSpaceOnUse" x1="11.699" x2="54.891" xlink:href="#0"/></defs><g transform="translate(103.86-118.41)"><path fill="url(#1)" d="m54.891 179.33h-43.19v-60.92h43.19z"/><path fill="url(#0)" d="m8.321 174.5v4.89h-10.995v-24.6h10.599v4.9h-4.242v4.67h3.964v4.68h-3.964v5.46zm-18.959-19.71h6.361v24.6h-6.361zm-8.094 0h6.692l-3.245 24.6h-9.569l-3.692-24.6h6.689c.76 6.78 1.309 12.52 1.645 17.25.337-4.78.695-9 1.087-12.68zm-16.832 17.62c0 1.45-.058 2.36-.174 2.75-.125.38-.389.58-.818.58-.412 0-.678-.17-.793-.5-.109-.34-.166-1.22-.166-2.65v-11.47c0-1.26.086-2.02.258-2.28.171-.26.423-.39.747-.39.383 0 .638.16.762.48.121.32.184 1.05.184 2.19zm5.05-15.54c-.635-.86-1.474-1.5-2.508-1.93-1.042-.43-2.21-.65-3.512-.65-1.381 0-2.589.23-3.621.68-1.032.46-1.85 1.11-2.459 1.96s-.969 1.79-1.082 2.82c-.12 1.02-.18 2.77-.18 5.24v4.21c0 2.53.064 4.3.184 5.31.117 1.01.498 1.95 1.132 2.81.632.86 1.461 1.5 2.505 1.93 1.037.44 2.211.65 3.521.65 1.371 0 2.579-.23 3.606-.69 1.038-.45 1.859-1.1 2.468-1.95.605-.85.967-1.79 1.078-2.82.121-1.03.18-2.78.18-5.24v-4.21c0-2.53-.061-4.3-.184-5.31-.124-1.02-.492-1.95-1.128-2.81m-23.277-2.08h8.242v24.6h-5.519l-.029-16.6-2.204 16.6h-3.904l-2.315-16.26-.029 16.26h-5.521v-24.6h8.188c.211 1.48.464 3.23.755 5.23l.902 6.26zm61.711-2.47h-14.718v-33.91h14.157v6.74h-5.827v6.38h5.444v6.5h-5.444v7.45h6.388zm-18.203-2.63c-.819 1.1-1.894 1.94-3.236 2.5-1.34.57-2.916.86-4.732.86-2.02 0-3.789-.34-5.329-1.01-1.543-.68-2.692-1.55-3.458-2.63-.764-1.08-1.212-2.22-1.35-3.41-.138-1.2-.207-3.72-.207-7.56v-20.03h8.772v25.4c0 1.48.075 2.43.234 2.84.157.42.479.62.961.62.55 0 .904-.22 1.067-.68.157-.45.233-1.53.233-3.22v-24.96h8.769v22.63c0 2.58-.078 4.39-.247 5.44-.163 1.04-.657 2.11-1.477 3.21m-19.04 2.63h-14.05v-33.91h8.772v27.07h5.274zm-24.436-21.34c-.228.43-.77.64-1.62.64-.205 0-.49.001-.86.02v-7.51c.89.02 1.488.08 1.796.19.305.12.557.38.749.81.193.42.289 1.16.289 2.22 0 2-.117 3.21-.354 3.63m.354 12.33c0 1.38-.172 2.24-.509 2.59-.332.35-1.109.55-2.325.59v-9.53c1.287.05 2.08.22 2.378.53.303.31.456 1.19.456 2.65zm3.566-9.4c1.821-.42 3.042-1.02 3.663-1.8.618-.78.93-2.16.93-4.15 0-2.93-.44-5.06-1.311-6.38-.877-1.32-2.024-2.09-3.443-2.52-1.423-.43-3.512-.65-6.272-.65h-8.739v33.91h10.124c3.518 0 5.85-.21 6.985-.61 1.138-.41 1.965-1.17 2.488-2.28.517-1.11.779-2.81.779-5.11v-3.17c0-2.21-.358-3.86-1.084-4.93-.72-1.07-2.096-1.85-4.12-2.31"/><path d="m-83.81 118.41h15.549v60.98l-17.06-.12c.761-1.91 1.475-3.88 2.023-5.71 3.243-10.85-4.29-14.35 2.648-27.08 6.02-1.18 8.381-6.81 7.525-11.09l.027-1.37c-.381-.27-.655-.4-.967-.72-3.449-3.58-7.433-6.64-9.745-14.89m-17.57 0h13.94c.432 6.93 3.24 11.6 5.798 14.89.281.35.58.45.967.72l-.029 1.37c.858 4.28-1.497 9.91-7.512 11.09-3.586 10.39 3.093 13.44 2.779 22.15-.175 4.84-.875 7.19-1.793 10.64h-16.63v-60.86h2.48" fill-rule="evenodd" fill="url(#2)"/><path fill="url(#4)" d="m19.18 155.17v8.34h7.941v-8.34h4.802v21.61h-4.802v-9h-7.941v9h-4.803v-21.61h4.803"/><path fill="url(#3)" d="m38.971 173.1c.406.09 1.101.09 1.672.09 4.396.03 7.271-2.4 7.271-7.56 0-4.65-2.593-6.86-6.766-6.86-1.043 0-1.771.09-2.177.19zm-4.81-17.61c1.769-.32 4.077-.48 6.482-.48 4.082 0 6.736.68 8.755 2.25 2.217 1.67 3.609 4.36 3.609 8.21 0 4.13-1.488 6.99-3.51 8.75-2.246 1.89-5.693 2.79-9.865 2.79-2.501 0-4.301-.16-5.471-.32v-21.2"/></g></svg>