<svg xmlns="http://www.w3.org/2000/svg" height="266.89" width="600" viewBox="0 0 158.75 70.614709" xmlns:xlink="http://www.w3.org/1999/xlink"><defs><linearGradient id="0" gradientUnits="userSpaceOnUse" x1="43.67" x2="130.11"><stop stop-color="#252058"/><stop stop-color="#2a2372" offset="1"/></linearGradient><linearGradient id="1" gradientUnits="userSpaceOnUse" x1="132.08" x2="158"><stop stop-color="#760c04"/><stop stop-color="#d60c12" offset="1"/></linearGradient><linearGradient id="2" gradientUnits="userSpaceOnUse" x1="27.27" x2="68.908" xlink:href="#1"/></defs><g transform="translate(.756-92.28)"><path d="m22.639 92.28h18.14l.104 70.07-20.01-.03c.888-2.2 1.722-4.47 2.363-6.58 3.781-12.47-5.01-16.5 3.088-31.16 7.02-1.36 9.778-7.83 8.779-12.76l.033-1.57c-.445-.32-.765-.46-1.128-.84-4.03-4.11-8.673-7.63-11.373-17.13m-20.502 0h16.267c.504 7.988 3.783 13.348 6.765 17.13.328.42.679.53 1.129.84l-.033 1.57c1 4.93-1.746 11.41-8.765 12.77-4.184 11.95 3.611 15.46 3.241 25.49-.205 5.56-1.02 8.27-2.092 12.24h-19.405v-70.04h2.893" fill-rule="evenodd" fill="url(#2)"/><path fill="url(#1)" d="m157.99 162.34h-14.24v-48.62h-11.67v-10.44h1.28c9.63 0 12.76-3.573 14.72-10.998h9.91v70.06"/><path fill="url(#0)" d="m130.11 156.69v5.63h-12.94v-28.25h12.48v5.62h-5v5.37h4.67v5.36h-4.67v6.27zm-22.33-22.62h7.5v28.25h-7.5zm-9.527 0h7.877l-3.82 28.25h-11.27l-4.348-28.25h7.879c.895 7.78 1.543 14.37 1.938 19.8.394-5.48.82-10.33 1.277-14.55zm-19.829 20.23c0 1.66-.066 2.71-.205 3.15-.146.44-.457.67-.964.67-.485 0-.796-.2-.933-.58-.129-.38-.193-1.39-.193-3.04v-13.17c0-1.44.099-2.32.302-2.61.202-.3.497-.45.881-.45.45 0 .751.18.897.55.142.37.215 1.2.215 2.51zm5.947-17.85c-.746-.99-1.736-1.73-2.954-2.22-1.224-.49-2.6-.74-4.136-.74-1.628 0-3.048.26-4.263.78-1.218.53-2.182 1.27-2.898 2.25s-1.142 2.06-1.276 3.24c-.139 1.18-.208 3.19-.208 6.02v4.83c0 2.9.076 4.94.215 6.1s.586 2.24 1.333 3.22c.744.99 1.724 1.74 2.951 2.23 1.223.49 2.603.74 4.146.74 1.616 0 3.039-.26 4.247-.79 1.227-.52 2.191-1.27 2.907-2.24.711-.98 1.14-2.06 1.27-3.24.143-1.18.212-3.19.212-6.02v-4.83c0-2.91-.071-4.94-.217-6.11-.146-1.16-.58-2.23-1.329-3.22m-27.414-2.38h9.708v28.25h-6.502l-.033-19.07-2.598 19.07h-4.596l-2.73-18.68-.03 18.68h-6.506v-28.25h9.643c.25 1.7.547 3.7.888 5.99l1.065 7.2zm72.68-2.85h-17.33v-38.938h16.67v7.738h-6.86v7.33h6.41v7.47h-6.41v8.55h7.52zm-21.44-3.01c-.97 1.26-2.23 2.22-3.81 2.87-1.58.66-3.44.98-5.574.98-2.372 0-4.467-.39-6.276-1.16-1.818-.77-3.173-1.78-4.072-3.01-.9-1.24-1.43-2.55-1.59-3.93-.165-1.37-.243-4.27-.243-8.67v-23.01h10.329v29.17c0 1.71.09 2.8.278 3.27.184.48.563.71 1.131.71.65 0 1.064-.26 1.255-.78.184-.53.276-1.76.276-3.7v-28.668h10.326v25.998c0 2.96-.09 5.04-.29 6.24-.19 1.2-.77 2.43-1.74 3.69m-22.427 3.01h-16.546v-38.938h10.332v31.09h6.214zm-28.783-24.49c-.268.48-.907.73-1.908.73-.242 0-.577.001-1.013.02v-8.621c1.046.016 1.751.087 2.113.217.361.127.658.435.884.923.226.481.339 1.331.339 2.551 0 2.3-.137 3.69-.415 4.18m.415 14.16c0 1.57-.2 2.56-.596 2.96-.393.41-1.307.63-2.74.68v-10.94c1.515.05 2.45.25 2.799.61.358.35.537 1.36.537 3.04zm4.202-10.8c2.144-.48 3.583-1.17 4.316-2.07.725-.9 1.093-2.49 1.093-4.76 0-3.369-.516-5.812-1.543-7.327-1.032-1.517-2.384-2.407-4.057-2.904-1.674-.495-4.136-.747-7.387-.747h-10.293v38.938h11.928c4.141 0 6.888-.23 8.223-.7 1.341-.47 2.316-1.34 2.931-2.61.61-1.27.916-3.23.916-5.87v-3.64c0-2.55-.419-4.43-1.274-5.66-.848-1.23-2.467-2.12-4.853-2.65"/></g></svg>