<svg xmlns="http://www.w3.org/2000/svg" viewBox="0 0 600 196.52"><defs><linearGradient id="0" gradientUnits="userSpaceOnUse" x1="-44.2" x2="-67.12" y1="-926.88" y2="-753.02"><stop stop-color="#df0e52"/><stop stop-color="#810729" offset="1"/></linearGradient></defs><path fill="url(#0)" d="m-68.826-897.5c-65.19 2.413-183.04 100.12-143.28 131.12 10.542 8.444 14.423 16.416 22.604 16.206 32.05-.892 53.757-41.747 106.68-80.925 11.696-8.654 14.632 4.301 3.881 29.422-2.255 5.245-3.409 9.755-7.71 13.216-27.849 21.923-81.55 53.34-55.07 85.959.787.892 1.783 1.416 3.042 1.521h1.206c15-1.206 55.645-45.37 71.33-89.74.262-1.206 1.836-2.308 2.78-2.727 10.227-7.972 20.297-12.587 27.17-18.304 1.573-1.364.944-3.199-.42-2.255-7.08 5.03-14.16 8.444-22.867 13.01-1.364.682-3.671 1.836-2.517-.682 6.608-14.58 5.245-50.663-21.923-36.712-36.765 18.671-58.27 40.803-90.94 58.16-8.916 4.72-12.325 3.619-9.545-3.881 13.898-34.719 59.841-85.28 118.74-100.38 7.185-1.573 8.182 2.675 9.44 6.87 1.206 3.986 2.78 7.972 9.965 7.08 16.73-1.836 6.398-20.978-5.454-24.86-3.776-1.259-7.972-1.888-12.325-2.098h-4.773zm229.71 30.366c2.727.472-14.37 26.01-24.86 37.814 0 0-7.552-.21-17.15-.21-4.563 0-5.717 2.098-3.461 4.563 1.888 2.308 2.989 2.308 10.961 2.989 2.098 0 4.353 0 3.933.262-7.185 8.391-13.636 17.202-18.514 25.751-9.335 7.552-25.07 19.51-24.65 18.881 1.783-9.755-5.926-16.835-12.325-23.706-4.301-4.563 1.364-5.717 11.381-10.489 11.696-5.717 14-9.545 6.661-18.251-8.916-11.12-8.444-8.234-11.433-7.29-37.709 15.11-21.451 29.21-10.909 41.747 10.437 13.216-25.436 28.688-34.51 38.02-3.671 3.724-3.671 7.552-.944 9.388 9.86 5.926 50.978-1.573 51.607-21.19 0-.787 11.486-10.542 20.821-18.776-7.657 17.15-7.185 31.992 9.545 38.39 14.842 5.822 31.468-10.07 53.39-34.04-7.03 14.475-6.293 27.17 12.12 31.73 14.16 3.199 64.928-27.587 58.95-56.33-1.573-8.391-12.535-4.982-10.279-6.608 5.454-4.51 8.234-7.238-7.552-19.14-4.353-3.409-4.563-3.409-9.335.21-12.168 9.702-29.37 26.38-39.492 42.32-.892-.053-2.412.682-4.615 2.622-31.21 28.27-50.663 40.33-46.782 24.807 2.937-11.853 13.951-30.05 29.894-56.54.734-.892 1.364-1.521 2.57-1.521 11.171-.472 25.332-.472 31.73-2.989 4.773-2.098 5.192-4.615.892-4.615-5.454 0-15.996-.21-25.804-.21-3.462 0-3.462 0-2.989-.892 16.94-26.433 12.797-34.25 4.615-38.968-.682-.367-1.259-.472-1.783-.472-2.308 0-3.357 2.57-1.678 2.727m23.968 103.48c2.989-14.11 27.849-35.09 37.24-42.849 1.154-.892 4.301-1.364 8.654-1.993 18.514-2.517-10.961 32.989-40.856 47.2-2.255.996-3.724 1.521-4.51 1.521-1.311 0-1.049-1.311-.524-3.881m-542.87-78.984v50.768h21.66c10.542 0 19.615-2.465 19.615-15.209 0-6.03-3.933-11.853-10.909-12.535v-.157c5.559-.996 8.654-4.668 8.654-10.227 0-8.444-6.713-12.64-15.05-12.64h-23.968zm9.545 7.552h11.381c5.559 0 8.08 2.517 8.08 6.346 0 4.878-3.881 6.503-8.08 6.503h-11.381v-12.849m0 19.982h12.377c5.822 0 9.335 2.045 9.335 7.762 0 5.297-3.461 7.08-9.231 7.08h-12.482v-14.842m326.53-19.2c7.5-.21-51.922 66.13-21.713 78.46 13.216 5.664 31.73-21.923 48.15-35.35 1.154-.892 3.881-3.619 2.045-.734-11.381 19.405-8.654 30.16-1.364 35.821 11.643 9.388 28.793-15.05 38.39-25.07 10.279-11.381 10.279-16.416-3.199-3.199-10.751 10.961-32.622 33.513-26.905 18.723 7.238-18.723 34.457-49.929 9.807-58.42-3.462-.892-3.933.472-4.615 3.724-.21 1.364-3.409 10.437-10.279 16.573-16.416 15.786-13.216 13.06-28.95 25.332-9.178 6.818-12.797 7.762-8.496-1.783 5.926-12.797 46.834-49.3 9.598-57.06-.42-.053-.787-.105-1.101-.105-2.989 0-2.832 3.094-1.364 3.094m-240.36 9.912h-.157v-3.514h-8.706v36.03h8.706v-18.986c0-6.661 3.514-9.493 7.762-9.493 4.458 0 5.979 3.199 5.979 6.451v22.03h8.706v-24.65c0-7.919-3.829-12.325-12.43-12.325-3.514 0-7.29 1.364-9.86 4.458m-50.716 14.475c0 10.804 6.818 18.881 18.514 18.881s18.514-8.08 18.514-18.881c0-10.751-6.818-18.933-18.514-18.933s-18.514 8.182-18.514 18.933m9.178 0c0-5.664 3.094-10.856 9.335-10.856s9.335 5.192 9.335 10.856c0 5.664-3.094 10.909-9.335 10.909s-9.335-5.245-9.335-10.909" transform="translate(358.01 897.5)"/></svg>