<svg xmlns="http://www.w3.org/2000/svg" height="456.8" width="600" viewBox="0 0 158.75 120.86048"><g transform="translate(50.15 166.13)"><path d="m108.59-90.77l-79.38 45.5-79.36-45.555v-29.815l79.35 45.546 79.39-45.49z" fill="#fff"/><path d="m108.6-120.58l-79.35-45.55-79.39 45.49 79.36 45.555z" fill="#141111"/><path d="m46.956-122.84c-2.677 1.47-5.863 1.26-8.931-.52l-6.227-3.6c-.009-.001-.009-.02-.018-.02-1.184-.75 0-1.68 0-1.68l-.009-.02 4.97-2.76.019.001s.027-.03.081-.06l.492-.27c.546-.23 1.457-.37 2.558.33.1.07.182.1.264.14l6 3.45c3.095 1.77 3.495 3.52.801 5m-21.485 13.08c-2.431 1.34-5.854 1.27-8.776-.46l-7.501-4.41-.009-.001c-.719-.47-.555-.99-.328-1.33l6.655-3.69c.537-.09 1.238-.02 2.048.49.191.12.346.19.473.21l7.05 4.13c2.949 1.73 3.03 3.62.391 5.07m46.92-21.35l-36.24-20.54-3.396-1.92c-2.149-.79-5.253-1.15-9.02.72l-50.52 28.65-.009.05s-4.625 2.44-1.257 5.24l38.91 23.24c12.07 7.201 25.335 8.07 36.551 2.048 7.365-3.941 9.213-9.519 5.535-13.879 6.05 1.65 14.821 1.11 21.785-2.63 11.698-6.29 10.387-13.77-2.34-20.98" fill="#fff"/><g fill="#141111"><path d="m99.35-111c2.844-1.81 6.754-3.43 6.534.56-.04.86-.45 1.64-.98 2.25-.57.66-1.28 1.04-2.06 1.34-1.46.55-2.63 1.6-3.422 2.95-.846 1.44-1 3.14-1 3.72-.009.809.237 3.658 2.493 2.274.27-.163.51-.346.76-.555.57-.537 1.03-1.256 1.13-2.189l-.97.6c-1.13.688-1.11-1.21-1.11-1.31.03-2.12 1.05-2.75 1.1-2.79l3.91-2.45c.06-.04 1.18-.75 1.14 1.35-.14 7.07-1.93 12.151-6.69 15.03-3.593 2.148-7.316.018-7.334-6.527-.019-6.581 2.785-11.911 6.5-14.251"/><path d="m-2.146-75.22c1.529.756 2.203-.392 2.057-2.212-.155-1.848-1.01-3.778-2.604-4.57-1.575-.783-2.194.418-2.048 2.267.146 1.82 1.065 3.759 2.595 4.515m-.382-14.202c4.962 3 8.894 9.413 8.849 16.187-.036 6.563-4.01 8.457-8.976 5.453-4.616-2.786-8.666-9.06-8.621-15.959.036-6.773 3.924-8.594 8.749-5.681"/><path d="m24.16-73.991c-1.028-.601-2.112-.583-2.84 0l-3.605 2.822-3.969-7.392c-.41-.792-1.293-2.24-2.604-2.995-.646-.374-1.229-.565-1.73-.565-1.966 0-2.039 2.677-2.039 2.977l-.073 12.836c-.055.965.009 4.27 3.059 6.05.31.182.61.273.892.273 1.684 0 2.131-2.904 2.131-4.615l.018-2.076 3.159 5.208c.173.355.473.673.846.883.437.254.92.173 1.393-.21l2.431-1.675-.018 3.551c0 2.312.255 5.544 2.521 6.809.647.364 1.229.546 1.73.546 1.493 0 2.03-1.611 2.039-2.986l.082-13.191c0-.437-.082-4.306-3.423-6.254"/><path d="m-38.463-101.56c.865.5 1.302.02 1.302-.86.009-.67-.374-1.68-1.357-2.26l-1.802-1.04-.019 3.06 1.876 1.1m-.119 7.279c.984.564 1.375.009 1.375-.665.009-.883-.419-1.866-1.284-2.367l-1.875-1.083-.018 3.068 1.802 1.047m5.253-2.14c2.64 2.358 2.841 4.698 2.831 6.191-.018 3.432-1.902 4.715-6.518 2.039l-6.227-3.651c-3.914-2.276-3.869-6.181-3.869-6.336l.082-12.522c0-.15 0-4.08 3.915-1.81l6.227 3.65c4.606 2.68 6.463 6.14 6.445 9.572-.009 1.493-.237 3.577-2.886 2.867"/><path d="m-20.595-85.54c1.565.665 2.175-.519 1.92-2.33-.254-1.83-1.229-3.715-2.867-4.406-1.612-.692-2.167.546-1.912 2.376.255 1.811 1.293 3.696 2.859 4.36m-.064-14.04c4.961 3 8.703 9.423 8.657 16.196-.036 6.573-3.814 8.448-8.776 5.444-4.624-2.786-8.994-9.213-8.958-16.11.037-6.774 4.252-8.434 9.08-5.526"/><path d="m81.41-100.16c.801-.46 1.502-.23 1.948.309l3.496 4.351-.009-3.65c0-.155-.365-4.07 2.194-5.55 2.594-1.5 2.585 2.44 2.585 2.58l.036 12.82c0 .182.001 4.097-2.567 5.59-.528.3-.983.191-1.529-.437l-3.542-4.516.001 3.888c0 .182.009 4.105-2.568 5.589-2.549 1.475-2.567-2.449-2.567-2.631l-.027-12.799c0-.146-.018-4.07 2.54-5.544"/><path d="m42.505-77.41c.209-.118 2.576-1.456 2.585 1.676.009 3.213-2.458 4.642-2.567 4.706l-4.37 2.522.009 1.821 4.525-2.604c.792-.464 1.693-.501 1.702 1.111 0 1.738-.901 2.712-1.693 3.168l-4.524 2.612.009 1.794 4.36-2.522c.21-.118 2.577-1.456 2.586 1.675.009 3.223-2.449 4.643-2.567 4.716l-7.238 4.169c-3.496 2.02-3.487-1.911-3.487-2.093l-.036-12.491c0-.154-.027-4.06 3.651-6.19z"/><path d="m68.816-79.74l3.196-1.748-1.502-4.807-1.694 6.555m8.986-3.241c.346.683.5 1.384.5 2.085.009 2.194-1.456 4.288-2.885 5.107-.884.519-1.712.228-2.149-.646l-.501-1.293-5.262 3.03-.682 2.43c-.428 1.375-1.248 2.613-2.14 3.123-1.292.746-3.168.337-3.177-1.921 0-.665.118-1.366.446-2.376l5.39-16.714c.236-.72.819-2.358 2.421-3.287 1.621-.938 2.531-.091 2.768.355z"/><path d="m54.57-76.28c.801-.464 1.211-1.429 1.202-2.303 0-.674-.355-1.702-1.284-1.174l-2.357 1.502.009 3.514 1.693-1.038m4.834-.737c2.13-.219 2.112 1.265 2.121 3.823v1.484c0 .182-.009 3.906-3.168 5.726-3.132 1.803-2.613-2.43-2.613-2.613l-.009-2.767c-.009-1.575-.382-1.693-.746-1.484l-1.593 1.147.009 4.77c0 .183-.055 3.842-3.123 5.608-3.01 1.739-3.141-1.811-3.141-1.993l-.027-12.8c-.009-.146-.036-4.06 3.605-6.163l5.772-3.405c4.297-2.476 5.489-.792 5.498 2.64 0 1.429-.191 3.678-2.585 6.03"/><path d="m105.87-93.49v.328l-.5.282.001 1.547-.34.192v-1.539l-.49.282v-.327z"/><path d="m107.77-94.59l.001 1.875-.32.182-.001-1.265v-.155-.155l-.3 1.748-.33.191-.31-1.392v.154.155 1.266l-.32.182v-1.876l.49-.282.3 1.302.3-1.648z"/></g></g></svg>