<svg xmlns="http://www.w3.org/2000/svg" height="432.55" width="600" viewBox="0 0 158.75 114.44406"><path d="m0 78.64l62.38 35.805 33.942-19.421-62.39-35.809z" fill="#ec008c"/><path d="m158.74 59.25l-62.41 35.774-62.39-35.817.007-23.445 62.39 35.814 62.42-35.764z" fill="#fff"/><path d="m158.75 35.81l-62.39-35.81-62.42 35.76 62.39 35.821z" fill="#141111"/><path d="m110.28 34.03c-2.1 1.16-4.61 1-7.02-.41l-4.894-2.82c-.007-.0001-.007-.02-.014-.02-.931-.59 0-1.32 0-1.32l-.008-.02 3.906-2.17.02.0001s.02-.02.06-.05l.39-.21c.43-.18 1.14-.29 2.01.26.08.05.14.08.21.11l4.71 2.71c2.44 1.4 2.75 2.77.63 3.93m-16.889 10.29c-1.911 1.05-4.602 1-6.9-.36l-5.897-3.47h-.008c-.565-.36-.436-.78-.257-1.04l5.232-2.9c.422-.08.973-.02 1.61.38.151.1.272.15.373.17l5.54 3.24c2.319 1.36 2.383 2.85.307 3.99m36.889-16.79l-28.49-16.15-2.673-1.511c-1.689-.62-4.129-.9-7.093.57l-39.717 22.52-.007.05s-3.637 1.91-.988 4.11l30.591 18.277c9.491 5.661 19.917 6.341 28.737 1.61 5.79-3.099 7.24-7.487 4.35-10.917 4.76 1.3 11.66.88 17.13-2.07 9.2-4.94 8.17-10.82-1.84-16.49" fill="#fff"/><g fill="#141111"><path d="m151.47 43.35c2.24-1.43 5.31-2.7 5.14.43-.03.68-.36 1.29-.77 1.77-.44.52-1 .82-1.62 1.05-1.15.44-2.07 1.26-2.69 2.32-.66 1.14-.79 2.47-.79 2.93 0 .64.19 2.876 1.96 1.788.21-.129.41-.272.6-.438.45-.42.81-.99.89-1.72l-.76.47c-.89.54-.87-.95-.87-1.02.02-1.67.82-2.17.86-2.2l3.07-1.93c.05-.03.93-.58.9 1.06-.11 5.563-1.52 9.557-5.26 11.819-2.83 1.689-5.75.014-5.77-5.132-.001-5.177 2.19-9.357 5.11-11.197"/><path d="m71.68 71.47c1.202.595 1.732-.307 1.618-1.739-.122-1.453-.795-2.97-2.047-3.593-1.239-.615-1.725.329-1.611 1.782.115 1.432.838 2.956 2.04 3.55m-.301-11.165c3.901 2.362 6.993 7.401 6.958 12.726-.029 5.16-3.15 6.649-7.06 4.287-3.629-2.19-6.814-7.122-6.778-12.547.029-5.325 3.085-6.757 6.878-4.466"/><path d="m92.36 72.44c-.809-.472-1.661-.458-2.234 0l-2.834 2.219-3.121-5.812c-.322-.622-1.016-1.76-2.047-2.354-.508-.294-.966-.444-1.36-.444-1.546 0-1.603 2.104-1.603 2.34l-.057 10.09c-.043.759.007 3.357 2.405 4.76.243.143.479.215.701.215 1.324 0 1.675-2.283 1.675-3.629l.014-1.632 2.484 4.094c.136.279.372.53.666.695.343.2.722.136 1.095-.165l1.911-1.317-.015 2.791c0 1.819.201 4.359 1.983 5.354.508.287.966.43 1.36.43 1.174 0 1.596-1.267 1.603-2.348l.065-10.371c0-.344-.065-3.386-2.691-4.918"/><path d="m43.12 50.76c.68.4 1.024.02 1.024-.67.007-.53-.294-1.33-1.067-1.78l-1.417-.82-.014 2.41 1.474.86m-.093 5.728c.773.443 1.081.007 1.081-.523.007-.694-.329-1.467-1.01-1.861l-1.475-.852-.014 2.412 1.417.824m4.13-1.682c2.076 1.853 2.233 3.693 2.226 4.867-.014 2.698-1.496 3.707-5.125 1.603l-4.896-2.87c-3.077-1.79-3.042-4.86-3.042-4.982l.065-9.844c0-.12 0-3.21 3.078-1.42l4.895 2.87c3.622 2.1 5.082 4.82 5.068 7.52-.007 1.175-.186 2.814-2.269 2.256"/><path d="m57.17 63.36c1.232.523 1.711-.408 1.511-1.832-.201-1.439-.967-2.92-2.255-3.464-1.267-.544-1.703.429-1.503 1.868.2 1.424 1.016 2.906 2.247 3.428m-.05-11.04c3.901 2.362 6.843 7.409 6.807 12.734-.028 5.168-2.999 6.642-6.9 4.28-3.636-2.19-7.07-7.243-7.04-12.669.029-5.325 3.343-6.635 7.136-4.345"/><path d="m137.37 51.87c.63-.37 1.18-.18 1.53.24l2.75 3.42-.001-2.87c0-.12-.28-3.2 1.73-4.37 2.04-1.17 2.03 1.92 2.03 2.04l.03 10.07c0 .143.001 3.221-2.02 4.395-.41.236-.77.15-1.2-.344l-2.79-3.55.001 3.057c0 .143.001 3.228-2.02 4.394-2 1.16-2.01-1.925-2.01-2.068l-.03-10.06c0-.114-.001-3.204 2-4.354"/><path d="m106.78 69.75c.17-.093 2.03-1.145 2.04 1.317 0 2.526-1.94 3.65-2.02 3.7l-3.44 1.983.001 1.431 3.56-2.047c.62-.365 1.33-.393 1.34.874 0 1.367-.71 2.133-1.34 2.49l-3.55 2.055v1.41l3.43-1.983c.17-.093 2.03-1.145 2.03 1.317.001 2.534-1.92 3.65-2.01 3.708l-5.69 3.278c-2.752 1.589-2.745-1.503-2.745-1.646l-.028-9.821c0-.121-.022-3.192 2.873-4.867z"/><path d="m127.47 67.918l2.51-1.374-1.18-3.779-1.33 5.153m7.06-2.548c.28.537.4 1.088.4 1.639.001 1.725-1.15 3.372-2.27 4.02-.69.408-1.34.179-1.69-.508l-.39-1.017-4.14 2.384-.54 1.911c-.33 1.08-.98 2.054-1.68 2.455-1.02.587-2.49.265-2.5-1.51 0-.523.1-1.074.35-1.869l4.24-13.14c.19-.565.65-1.854 1.9-2.584 1.28-.737 1.99-.071 2.18.279z"/><path d="m116.27 70.64c.63-.365.95-1.123.94-1.811 0-.529-.28-1.338-1.01-.923l-1.85 1.181.001 2.763 1.33-.816m3.8-.58c1.67-.172 1.66.995 1.67 3.01v1.167c0 .143-.001 3.071-2.5 4.502-2.46 1.417-2.05-1.911-2.05-2.054l-.001-2.176c0-1.238-.3-1.331-.58-1.167l-1.26.902.001 3.751c0 .143-.04 3.02-2.45 4.409-2.37 1.367-2.47-1.424-2.47-1.568l-.03-10.06c0-.115-.02-3.192 2.84-4.846l4.54-2.677c3.38-1.947 4.31-.623 4.32 2.076 0 1.124-.15 2.892-2.03 4.738"/><path d="m156.6 57.11v.258l-.39.222.001 1.217-.27.15v-1.21l-.39.222v-.258z"/><path d="m158.1 56.25v1.474l-.25.143-.001-.995v-.243l-.23 1.374-.26.151-.24-1.096v1.239l-.25.143v-1.475l.38-.221.24 1.023.23-1.295z"/></g><g fill="#faf228"><path d="m61.35 81.41c-1.821-.035-3.639.501-5.428 1.566-3.954 2.334-7.964 4.553-11.951 6.817-3.147 1.801-3.193 3.705-.114 5.621 1.511.93 3.101 1.754 4.624 2.66 3.987 2.385 8.361 3.325 12.815 3.425 4.748-.06 9.03-1.09 12.837-3.797 4.158-2.973 4.488-6.608.455-9.697-2.772-2.114-5.885-3.833-8.998-5.459-1.407-.736-2.824-1.109-4.24-1.136m1.61 7.778s1.11.456 1.95 1.138l.036.021.007.015c.879.731 1.427 1.711.008 2.67-1.69 1.413-4.371 2.404-5.835 2.336-1.012-.046-2.283-.65-3.13-1.115 0 0-.619-.348-.926-.523 0 0 5.298-3.051 7.89-4.542"/><path d="m35.34 66.36c-1.517.016-3.052.414-4.444 1.212-4.556 2.624-9.08 5.296-13.622 7.955l-.613.418c-1.443 1.138-1.477 2.532-.102 3.74 2.567 2.276 6.884 2.636 10.133.836l4.226-2.334 3.695 2.155-4.694 2.804c-1.898 1.277-1.954 2.857-.102 4.169 2.931 2.079 6.123 2.369 9.383.778 1.5-.732 2.92-1.626 4.374-2.45 3.272-1.87 6.567-3.705 9.816-5.61 2.09-1.231 2.181-2.984.216-4.355-3.045-2.114-6.249-2.404-9.554-.732-1.034.593-3.386 1.916-4.215 2.381l-3.675-2.145c.508-.309 3.432-1.93 4.572-2.756 1.784-1.289 1.738-2.938.023-4.274-1.547-1.202-3.467-1.812-5.417-1.792"/></g></svg>