<?xml version="1.0" encoding="UTF-8" standalone="no"?>
<svg xmlns:rdf="http://www.w3.org/1999/02/22-rdf-syntax-ns#" xmlns="http://www.w3.org/2000/svg" height="432.55" width="600" version="1.1" xmlns:cc="http://creativecommons.org/ns#" xmlns:dc="http://purl.org/dc/elements/1.1/" viewBox="0 0 158.75 114.44406">
 <g>
  <path d="m0 78.635 62.385 35.805 33.942-19.421-62.393-35.809z" fill="#ec008c"/>
  <path d="m158.74 59.248-62.412 35.774-62.393-35.817 0.007-23.445 62.386 35.814 62.422-35.764z" fill="#fff"/>
  <path d="m158.75 35.81-62.389-35.81-62.421 35.76 62.392 35.821z" fill="#141111"/>
  <path d="m110.28 34.03c-2.1 1.16-4.61 1-7.02-0.41l-4.894-2.82c-0.007-0.01-0.007-0.02-0.014-0.02-0.931-0.59 0-1.32 0-1.32l-0.008-0.02 3.906-2.17 0.02 0.01s0.02-0.02 0.06-0.05l0.39-0.21c0.43-0.18 1.14-0.29 2.01 0.26 0.08 0.05 0.14 0.08 0.21 0.11l4.71 2.71c2.44 1.4 2.75 2.77 0.63 3.93m-16.889 10.29c-1.911 1.05-4.602 1-6.9-0.36l-5.897-3.47-0.008-0.01c-0.565-0.36-0.436-0.78-0.257-1.04l5.232-2.9c0.422-0.08 0.973-0.02 1.61 0.38 0.151 0.1 0.272 0.15 0.373 0.17l5.54 3.24c2.319 1.36 2.383 2.85 0.307 3.99m36.889-16.79-28.49-16.15-2.673-1.5105c-1.689-0.62-4.129-0.9-7.093 0.5705l-39.717 22.52-0.007 0.05s-3.637 1.91-0.988 4.11l30.591 18.277c9.491 5.661 19.917 6.341 28.737 1.61 5.79-3.099 7.24-7.487 4.35-10.917 4.76 1.3 11.66 0.88 17.13-2.07 9.2-4.94 8.17-10.82-1.84-16.49" fill="#fff"/>
 </g>
 <g fill="#141111">
  <path d="m151.47 43.35c2.24-1.43 5.31-2.7 5.14 0.43-0.03 0.68-0.36 1.29-0.77 1.77-0.44 0.52-1 0.82-1.62 1.05-1.15 0.44-2.07 1.26-2.69 2.32-0.66 1.14-0.79 2.47-0.79 2.93 0 0.64 0.19 2.876 1.96 1.788 0.21-0.129 0.41-0.272 0.6-0.438 0.45-0.42 0.81-0.99 0.89-1.72l-0.76 0.47c-0.89 0.54-0.87-0.95-0.87-1.02 0.02-1.67 0.82-2.17 0.86-2.2l3.07-1.93c0.05-0.03 0.93-0.58 0.9 1.06-0.11 5.563-1.52 9.557-5.26 11.819-2.83 1.689-5.75 0.014-5.77-5.132-0.01-5.177 2.19-9.357 5.11-11.197"/>
  <path d="m71.678 71.473c1.202 0.595 1.732-0.307 1.618-1.739-0.122-1.453-0.795-2.97-2.047-3.593-1.239-0.615-1.725 0.329-1.611 1.782 0.115 1.432 0.838 2.956 2.04 3.55m-0.301-11.165c3.901 2.362 6.993 7.401 6.958 12.726-0.029 5.16-3.15 6.649-7.058 4.287-3.629-2.19-6.814-7.122-6.778-12.547 0.029-5.325 3.085-6.757 6.878-4.466"/>
  <path d="m92.359 72.44c-0.809-0.472-1.661-0.458-2.234 0l-2.834 2.219-3.121-5.812c-0.322-0.622-1.016-1.76-2.047-2.354-0.508-0.294-0.966-0.444-1.36-0.444-1.546 0-1.603 2.104-1.603 2.34l-0.057 10.092c-0.043 0.759 0.007 3.357 2.405 4.76 0.243 0.143 0.479 0.215 0.701 0.215 1.324 0 1.675-2.283 1.675-3.629l0.014-1.632 2.484 4.094c0.136 0.279 0.372 0.53 0.666 0.695 0.343 0.2 0.722 0.136 1.095-0.165l1.911-1.317-0.015 2.791c0 1.819 0.201 4.359 1.983 5.354 0.508 0.287 0.966 0.43 1.36 0.43 1.174 0 1.596-1.267 1.603-2.348l0.065-10.371c0-0.344-0.065-3.386-2.691-4.918"/>
  <path d="m43.124 50.76c0.68 0.4 1.024 0.02 1.024-0.67 0.007-0.53-0.294-1.33-1.067-1.78l-1.417-0.82-0.014 2.41 1.474 0.86m-0.093 5.728c0.773 0.443 1.081 0.007 1.081-0.523 0.007-0.694-0.329-1.467-1.009-1.861l-1.475-0.852-0.014 2.412 1.417 0.824m4.13-1.682c2.076 1.853 2.233 3.693 2.226 4.867-0.014 2.698-1.496 3.707-5.125 1.603l-4.896-2.87c-3.077-1.79-3.042-4.86-3.042-4.982l0.065-9.844c0-0.12 0-3.21 3.078-1.42l4.895 2.87c3.622 2.1 5.082 4.82 5.068 7.52-0.007 1.175-0.186 2.814-2.269 2.256"/>
  <path d="m57.172 63.357c1.232 0.523 1.711-0.408 1.511-1.832-0.201-1.439-0.967-2.92-2.255-3.464-1.267-0.544-1.703 0.429-1.503 1.868 0.2 1.424 1.016 2.906 2.247 3.428m-0.05-11.037c3.901 2.362 6.843 7.409 6.807 12.734-0.028 5.168-2.999 6.642-6.9 4.28-3.636-2.19-7.071-7.243-7.043-12.669 0.029-5.325 3.343-6.635 7.136-4.345"/>
  <path d="m137.37 51.87c0.63-0.37 1.18-0.18 1.53 0.24l2.75 3.42-0.01-2.87c0-0.12-0.28-3.2 1.73-4.37 2.04-1.17 2.03 1.92 2.03 2.04l0.03 10.074c0 0.143 0.01 3.221-2.02 4.395-0.41 0.236-0.77 0.15-1.2-0.344l-2.79-3.55 0.01 3.057c0 0.143 0.01 3.228-2.02 4.394-2 1.16-2.01-1.925-2.01-2.068l-0.03-10.064c0-0.114-0.01-3.204 2-4.354"/>
  <path d="m106.78 69.753c0.17-0.093 2.03-1.145 2.04 1.317 0 2.526-1.94 3.65-2.02 3.7l-3.44 1.983 0.01 1.431 3.56-2.047c0.62-0.365 1.33-0.393 1.34 0.874 0 1.367-0.71 2.133-1.34 2.49l-3.55 2.055v1.41l3.43-1.983c0.17-0.093 2.03-1.145 2.03 1.317 0.01 2.534-1.92 3.65-2.01 3.708l-5.69 3.278c-2.752 1.589-2.745-1.503-2.745-1.646l-0.028-9.821c0-0.121-0.022-3.192 2.873-4.867z"/>
  <path d="m127.47 67.918 2.51-1.374-1.18-3.779-1.33 5.153m7.06-2.548c0.28 0.537 0.4 1.088 0.4 1.639 0.01 1.725-1.15 3.372-2.27 4.016-0.69 0.408-1.34 0.179-1.69-0.508l-0.39-1.017-4.14 2.384-0.54 1.911c-0.33 1.08-0.98 2.054-1.68 2.455-1.02 0.587-2.49 0.265-2.5-1.51 0-0.523 0.1-1.074 0.35-1.869l4.24-13.141c0.19-0.565 0.65-1.854 1.9-2.584 1.28-0.737 1.99-0.071 2.18 0.279z"/>
  <path d="m116.27 70.64c0.63-0.365 0.95-1.123 0.94-1.811 0-0.529-0.28-1.338-1.01-0.923l-1.85 1.181 0.01 2.763 1.33-0.816m3.8-0.58c1.67-0.172 1.66 0.995 1.67 3.006v1.167c0 0.143-0.01 3.071-2.5 4.502-2.46 1.417-2.05-1.911-2.05-2.054l-0.01-2.176c0-1.238-0.3-1.331-0.58-1.167l-1.26 0.902 0.01 3.751c0 0.143-0.04 3.02-2.45 4.409-2.37 1.367-2.47-1.424-2.47-1.568l-0.03-10.063c0-0.115-0.02-3.192 2.84-4.846l4.54-2.677c3.38-1.947 4.31-0.623 4.32 2.076 0 1.124-0.15 2.892-2.03 4.738"/>
  <path d="m156.6 57.108v0.258l-0.39 0.222 0.01 1.217-0.27 0.15v-1.21l-0.39 0.222v-0.258z"/>
  <path d="m158.1 56.246v1.474l-0.25 0.143-0.01-0.995v-0.243l-0.23 1.374-0.26 0.151-0.24-1.096v1.239l-0.25 0.143v-1.475l0.38-0.221 0.24 1.023 0.23-1.295z"/>
 </g>
 <path d="m61.353 81.411c-1.821-0.035-3.639 0.501-5.428 1.566-3.954 2.334-7.964 4.553-11.951 6.817-3.147 1.801-3.193 3.705-0.114 5.621 1.511 0.93 3.101 1.754 4.624 2.66 3.987 2.385 8.361 3.325 12.815 3.425 4.748-0.06 9.031-1.09 12.837-3.797 4.158-2.973 4.488-6.608 0.455-9.697-2.772-2.114-5.885-3.833-8.998-5.459-1.407-0.736-2.824-1.109-4.24-1.136zm1.61 7.778s1.11 0.456 1.95 1.138l0.036 0.021 0.007 0.015c0.879 0.731 1.427 1.711 0.008 2.67-1.69 1.413-4.371 2.404-5.835 2.336-1.012-0.046-2.283-0.65-3.13-1.115 0 0-0.619-0.348-0.926-0.523 0 0 5.298-3.051 7.89-4.542z" fill="#faf228"/>
 <path d="m35.343 66.361c-1.517 0.016-3.052 0.414-4.444 1.212-4.556 2.624-9.078 5.296-13.622 7.955l-0.613 0.418c-1.443 1.138-1.477 2.532-0.102 3.74 2.567 2.276 6.884 2.636 10.133 0.836l4.226-2.334 3.695 2.155-4.694 2.804c-1.898 1.277-1.954 2.857-0.102 4.169 2.931 2.079 6.123 2.369 9.383 0.778 1.5-0.732 2.92-1.626 4.374-2.45 3.272-1.87 6.567-3.705 9.816-5.61 2.09-1.231 2.181-2.984 0.216-4.355-3.045-2.114-6.249-2.404-9.554-0.732-1.034 0.593-3.386 1.916-4.215 2.381l-3.675-2.145c0.508-0.309 3.432-1.93 4.572-2.756 1.784-1.289 1.738-2.938 0.023-4.274-1.547-1.202-3.467-1.812-5.417-1.792z" fill="#faf228"/>
</svg>
