<svg xmlns="http://www.w3.org/2000/svg" viewBox="0 0 600 121"><g transform="translate(447.52 1226.53)"><g fill="#004185"><path d="m-336.7-1164.6c13.654-4.726 23.433-15.618 23.433-31.772 0-4.058-2.068-13.89-9.504-20.239-4.909-4.189-12-9.125-34.914-9.688-4.739-.118-19.13.393-19.13.393s-.013.812.039.864c4.084 3.168 8.392 8.221 10.499 14.165 2.186-.079 5.498-.249 8.758-.079 9.203.497 13.209 2.213 17.372 5.472 4.163 3.273 6.402 8.889 6.375 13.981-.026 6.965-3.325 14.165-13.379 18.262-8.13 3.312-17.961 4.03-17.961 4.03l-.013 2.54s5.891 2.815 11.782 10.604c5.066 6.703 34.482 49.995 34.482 49.995h24.31s-39.27-54.721-42.15-58.53"/><path d="m-390.13-1170.7c9.334-5.511 15.33-13.641 15.33-25.737 0-12.934-7.671-30.04-39.85-30.04-15.579 0-32.872.576-32.872.576v119.84h27.452c34.914 0 53.37-12.869 53.37-37.2 0-14.505-9.1-24.1-23.433-27.426m-24.324 47.94h-13.602v-88.29c.183 0 6.101-.092 9.792-.092 15.186 0 23.617 7.868 23.865 18.655.144 6.546-1.807 12.829-8.483 17.451-5.446 3.77-13.04 4.896-13.04 4.896v2.841s10.617 1.375 15.867 4.071c9.871 5.066 12.986 11.874 12.986 21.21 0 14.191-14.15 19.257-27.387 19.257"/></g><g fill="#00b1e0"><path d="m-260.9-1175.5c-3.02 0-8.261-.144-14.518-.144v-49.694c4.189-.223 10.682-.367 16.809-.367 10.761 0 16.731 4.346 16.731 12.306 0 4.948-3.168 9.295-7.881 11.141v.144c5.891 1.257 8.837 6.114 8.837 11.128 0 7.226-4.935 15.487-19.977 15.487m.668-42.468c-1.99 0-3.914.079-5.603.144v12.986c1.178.065 2.356.065 3.901.065 6.572 0 9.949-2.658 9.949-7.082 0-3.679-2.199-6.114-8.248-6.114m-1.401 20.344c-.746 0-3.168 0-4.202.079v13.942c1.178.144 3.02.288 5.236.288 6.258 0 9.426-2.946 9.426-7.449 0-4.857-4.189-6.86-10.46-6.86"/><path d="m-203.1-1175.7l-3.469-10.172h-18.799l-3.469 10.172h-9.648l17.398-49.76h10.84l17.765 49.76h-10.617m-10.617-30.817c-.956-2.736-1.702-5.158-2.291-7.959h-.065c-.589 2.579-1.401 5.446-2.356 8.326l-4.503 12.685h13.864l-4.647-13.05"/><path d="m-171.84-1193.3v17.621h-9.583v-17.542l-15.552-32.22h10.46l6.572 14.296c1.322 2.946 2.422 5.682 3.391 8.261h.144c1.034-2.88 2.5-6.05 3.98-9.216l6.271-13.34h10.172l-15.853 32.14z"/><path d="m-150.32-1175.7v-49.76h27.06v8.02h-17.477v12.24h16.587v7.815h-16.587v13.497h17.477v8.182h-27.06"/><path d="m-87.57-1175.7l-13.864-20.566h-.367v20.566h-9.583v-49.76c3.901-.223 8.549-.301 14.296-.301 10.997 0 18.07 3.836 18.07 14.01 0 7.37-5.158 12.685-12.672 13.864 1.388 1.833 2.802 3.757 4.045 5.446l11.939 16.744h-11.861m-10.473-42.25c-1.401 0-2.802.078-3.757.223v14.374c.655.079 1.99.144 3.469.144 5.747 0 9.282-2.946 9.282-7.593 0-4.791-2.945-7.148-8.994-7.148"/><path d="m-67.743-1225.5h9.583v49.76h-9.583v-49.76"/><path d="m-36.704-1174.9c-3.535 0-7.082-.367-10.172-1.178l.589-8.915c2.801.956 6.781 1.767 10.394 1.767 4.87 0 8.627-1.99 8.627-6.572 0-9.504-20.867-5.158-20.867-21.522 0-8.85 7-14.963 18.956-14.963 2.788 0 6.04.367 8.994.877l-.524 8.405c-2.802-.812-5.891-1.322-8.915-1.322-5.538 0-8.339 2.5-8.339 6.05 0 8.915 20.946 5.603 20.946 21.16 0 9.36-7.449 16.22-19.689 16.22"/><path d="m11.439-1175c-17.398 0-23-11.573-23-23.957 0-15.788 8.261-26.837 24.926-26.837 3.535 0 7.292.432 10.538 1.322l-1.034 8.706c-3.247-.969-6.637-1.479-10.03-1.479-9.295 0-13.864 7-13.864 16.665 0 10.84 4.503 16.875 14.531 16.875 3.02 0 7.082-.877 9.661-2.055l1.1 8.549c-3.679 1.322-8.182 2.212-12.829 2.212"/><path d="m63.935-1175.7v-21.6h-21.09v21.6h-9.583v-49.76h9.583v19.899h21.09v-19.899h9.583v49.76h-9.583"/><path d="m86.5-1175.7v-49.76h27.06v8.02h-17.477v12.24h16.587v7.815h-16.587v13.497h17.477v8.182h-27.06"/><path d="m132.79-1174.9c-3.535 0-7.082-.367-10.172-1.178l.589-8.915c2.802.956 6.781 1.767 10.394 1.767 4.87 0 8.627-1.99 8.627-6.572 0-9.504-20.867-5.158-20.867-21.522 0-8.85 7-14.963 18.956-14.963 2.802 0 6.04.367 8.994.877l-.524 8.405c-2.802-.812-5.891-1.322-8.915-1.322-5.538 0-8.339 2.5-8.339 6.05 0 8.915 20.946 5.603 20.946 21.16 0 9.36-7.449 16.22-19.689 16.22"/><path d="m-265.84-1148v12.829h16.08v7.894h-16.08v20.933h-9.583v-49.76h26.614v8.103h-17.03"/><path d="m-239.67-1106.3v-49.76h27.06v8.02h-17.477v12.24h16.587v7.815h-16.587v13.497h17.477v8.182h-27.06"/><path d="m-176.93-1106.3l-13.864-20.566h-.367v20.566h-9.583v-49.76c3.901-.223 8.549-.301 14.296-.301 10.997 0 18.07 3.836 18.07 14.01 0 7.37-5.158 12.685-12.672 13.864 1.401 1.846 2.788 3.757 4.045 5.459l11.952 16.731h-11.874m-10.473-42.25c-1.401 0-2.802.078-3.757.223v14.374c.668.079 1.99.144 3.469.144 5.747 0 9.282-2.946 9.282-7.593 0-4.791-2.946-7.148-8.994-7.148"/><path d="m-128.64-1106.3l-14.597-25.15c-2.212-3.744-3.901-7.436-5.381-10.682.288 4.281.445 12.1.445 18.07v17.765h-9.295v-49.76h12.463l13.851 23.734c2.291 3.836 4.281 7.959 6.127 11.73-.367-5.01-.524-13.864-.524-19.99v-15.474h9.295v49.76h-12.384z"/><path d="m-96.72-1105.5c-3.535 0-7.082-.367-10.172-1.178l.589-8.928c2.802.969 6.781 1.78 10.394 1.78 4.87 0 8.627-1.99 8.627-6.572 0-9.504-20.867-5.158-20.867-21.522 0-8.85 7-14.963 18.943-14.963 2.802 0 6.05.367 9.01.877l-.524 8.405c-2.802-.812-5.891-1.322-8.915-1.322-5.538 0-8.339 2.5-8.339 6.04 0 8.928 20.946 5.616 20.946 21.17 0 9.36-7.449 16.22-19.689 16.22"/><path d="m-68.11-1106.3v-49.76h27.06v8.02h-17.477v12.24h16.587v7.815h-16.587v13.497h17.477v8.182h-27.06"/><path d="m1.121-1106.3v-21.6h-21.09v21.6h-9.583v-49.76h9.583v19.899h21.09v-19.899h9.583v49.76h-9.583"/><path d="m24.05-1106.3v-49.76h27.06v8.02h-17.477v12.24h16.587v7.815h-16.587v13.497h17.477v8.182h-27.06"/><path d="m91.81-1106.3l-14.597-25.15c-2.212-3.744-3.914-7.436-5.38-10.682.288 4.281.445 12.1.445 18.07v17.765h-9.295v-49.76h12.463l13.864 23.734c2.278 3.836 4.268 7.959 6.114 11.73-.367-5.01-.524-13.864-.524-19.99v-15.474h9.295v49.76h-12.384z"/></g></g></svg>