<?xml version="1.0" encoding="utf-8"?>
<!-- Generator: Adobe Illustrator 16.0.0, SVG Export Plug-In . SVG Version: 6.00 Build 0)  -->
<!DOCTYPE svg PUBLIC "-//W3C//DTD SVG 1.1//EN" "http://www.w3.org/Graphics/SVG/1.1/DTD/svg11.dtd">
<svg version="1.1"
	 id="Layer_1" xmlns:rdf="http://www.w3.org/1999/02/22-rdf-syntax-ns#" xmlns:cc="http://creativecommons.org/ns#" xmlns:dc="http://purl.org/dc/elements/1.1/"
	 xmlns="http://www.w3.org/2000/svg" xmlns:xlink="http://www.w3.org/1999/xlink" x="0px" y="0px" width="374.943px"
	 height="414.83px" viewBox="115 0 374.943 414.83" enable-background="new 115 0 374.943 414.83" xml:space="preserve">
<g transform="translate(28.543 -206.98)">
	
		<linearGradient id="SVGID_1_" gradientUnits="userSpaceOnUse" x1="-34.823" y1="810.8208" x2="-33.823" y2="810.8208" gradientTransform="matrix(-21.521 -270.9128 270.9128 -21.521 -220196.0156 8486.8047)">
		<stop  offset="0" style="stop-color:#D79631"/>
		<stop  offset="0.5" style="stop-color:#FFEF2E"/>
		<stop  offset="1" style="stop-color:#D79631"/>
	</linearGradient>
	<path fill="url(#SVGID_1_)" d="M271.457,206.982c-78.667,0-142.504,63.609-142.504,142.337c0,58.167,34.795,108.019,84.681,130.205
		c-12.778-15.307-23.032-34.582-29.503-58.394c-6.766-24.832-5.125-45.959-1.346-65.234c9.29-47.093,36.186-84.473,63.417-120.567
		c4.116-5.404,7.94-10.507,12.857-15.836c5.042-5.594,12.48-12.51,12.521-12.51H271.457z"/>
	
		<radialGradient id="SVGID_2_" cx="-36.0511" cy="810.6978" r="0.9995" gradientTransform="matrix(-8.8766 -105.1578 105.0633 -8.8687 -85104.7266 3865.8992)" gradientUnits="userSpaceOnUse">
		<stop  offset="0" style="stop-color:#D79631"/>
		<stop  offset="0.5" style="stop-color:#FFEF2E"/>
		<stop  offset="1" style="stop-color:#D79631"/>
	</radialGradient>
	<path fill="url(#SVGID_2_)" d="M334.45,374.604l0.124,0.567c0,0,19.839,54.689,29.798,82.054
		c16.264-13.984,29.333-31.597,37.947-51.591c-5.549-9.638-12.987-17.159-22.02-22.488c-9.332-5.518-20.886-9.562-34.292-9.562
		C342.308,373.584,338.442,373.886,334.45,374.604"/>
	
		<radialGradient id="SVGID_3_" cx="-35.2991" cy="810.4419" r="1" gradientTransform="matrix(-51.9874 -150.754 150.618 -51.942 -123549.4453 37281.1094)" gradientUnits="userSpaceOnUse">
		<stop  offset="0" style="stop-color:#D79631"/>
		<stop  offset="0.5" style="stop-color:#FFEF2E"/>
		<stop  offset="1" style="stop-color:#D79631"/>
	</radialGradient>
	<path fill="url(#SVGID_3_)" d="M296.375,399.625c-5.756,8.882-9.411,19.805-9.033,32.315c0.42,15.005,7.269,26.646,14.752,34.242
		c5.631,5.82,12.691,9.827,20.844,12.057c1.678,0.454,3.738,1.135,5.337,1.663c8.991-3.931,17.521-8.769,25.466-14.362
		c-10.507-29.215-21.014-58.394-31.604-87.496C309.781,383.071,302.26,390.479,296.375,399.625"/>
	
		<radialGradient id="SVGID_4_" cx="-34.8689" cy="810.8091" r="1.0007" gradientTransform="matrix(-22.7989 -255.6284 255.3978 -22.7785 -207595.8594 10064.2891)" gradientUnits="userSpaceOnUse">
		<stop  offset="0" style="stop-color:#D79631"/>
		<stop  offset="0.5" style="stop-color:#FFEF2E"/>
		<stop  offset="1" style="stop-color:#D79631"/>
	</radialGradient>
	<path fill="url(#SVGID_4_)" d="M270.239,290.321c-21.014,29.254-44.042,58.054-53.162,95.018
		c-3.655,14.854-5.84,31.785-2.563,50.154c3.654,20.296,11.263,35.225,21.434,47.244c1.72,1.965,3.484,3.855,5.337,5.744
		c9.705,2.117,19.835,3.251,30.213,3.251c14.918,0,29.333-2.306,42.863-6.651c-10.548-1.814-19.37-6.879-26.43-12.852
		c-10.927-9.26-21.309-24.075-25.342-42.481c-4.875-22.45,0-41.877,7.354-57.033c7.733-15.95,19.163-28.687,36.435-38.362
		c-7.524-20.599-14.793-41.575-22.484-61.947C279.821,277.697,274.568,284.274,270.239,290.321"/>
	
		<linearGradient id="SVGID_5_" gradientUnits="userSpaceOnUse" x1="-33.0794" y1="810.4985" x2="-32.0794" y2="810.4985" gradientTransform="matrix(-80.5909 187.7254 -187.7254 -80.5909 149872.7344 71756.8828)">
		<stop  offset="0" style="stop-color:#D79631"/>
		<stop  offset="0.5" style="stop-color:#FFEF2E"/>
		<stop  offset="1" style="stop-color:#D79631"/>
	</linearGradient>
	<path fill="url(#SVGID_5_)" d="M297.301,253.244c-1.304,1.852-4.497,6.992-4.497,6.992s2.229,6.047,3.238,8.731
		c7.48,20.863,14.075,39.156,21.892,60.321c29.461-8.806,53.204-3.477,72.03,7.71c8.7,5.14,17.019,12.321,23.743,20.599
		c0.128-2.834,0.253-5.631,0.253-8.428c0-60.775-38.075-112.744-91.695-133.191c0,0-0.042,0-0.042-0.038
		C315.163,228.45,305.873,241.301,297.301,253.244"/>
	<g>
		<path fill="#FFFFFF" d="M153.989,581.987c0-10.507-2.102-18.708-6.263-24.68c-4.161-5.896-10-8.844-17.563-8.844
			c-4.036,0-7.986,1.512-11.853,4.535c-3.866,3.061-5.798,6.085-5.798,9.108v39.534c0,3.061,2.31,6.123,6.891,9.222
			c4.622,3.1,8.866,4.649,12.816,4.649c6.852,0,12.188-3.023,16.014-9.146C152.055,600.28,153.989,592.155,153.989,581.987
			 M171.261,581.269c0,10.47-3.698,19.767-11.136,27.78c-7.398,8.05-16.012,12.057-25.763,12.057c-5.42,0-10.674-1.172-15.757-3.439
			c-3.447-1.588-6.558-2.382-9.245-2.382c-4.244,0-7.102,1.853-8.447,5.48c-0.294,0.681-1.009,1.021-2.143,1.021
			c-1.471,0-2.227-0.453-2.227-1.398c0.462-4.725,0.669-10.507,0.669-17.234v-83.264c0-4.648-0.585-7.672-1.72-9.07
			c-1.179-1.398-3.741-2.344-7.69-2.76c-0.885,0-1.346-0.643-1.346-2.041c0-1.662,0.461-2.456,1.346-2.456
			c10.125-2.646,17.313-5.669,21.558-9.071c0.881-0.68,1.596-1.02,2.144-1.02c1.595,0,2.396,0.453,2.396,1.36
			c-0.927,12.435-1.388,22.412-1.388,29.934v25.55c5.378-5.329,11.978-8.051,19.752-8.051c11.596,0,20.969,3.516,28.196,10.508
			C167.648,559.801,171.261,569.288,171.261,581.269"/>
		<path fill="#FFFFFF" d="M236.138,550.655c0,2.268-0.715,4.195-2.102,5.82c-1.388,1.588-3.067,2.381-5.085,2.381
			c-2.479,0-4.959-0.793-7.438-2.494c-1.934-1.285-3.614-1.965-5.043-1.965c-3.698,0-7.522,2.191-11.431,6.5v38.514
			c0,4.914,0.841,8.391,2.563,10.395c1.681,1.927,5.337,3.287,10.926,4.006c0.925,0.151,1.387,0.906,1.387,2.305
			c0,1.626-0.462,2.42-1.387,2.42c-2.354,0-5.631-0.189-9.917-0.529c-4.707-0.303-8.447-0.492-11.221-0.492
			c-2.857,0-6.304,0.189-10.338,0.492c-3.614,0.34-6.64,0.529-8.951,0.529c-0.925,0-1.387-0.794-1.387-2.42
			c0-1.398,0.462-2.154,1.387-2.305c4.959-0.605,8.11-1.738,9.539-3.478c1.387-1.738,2.06-5.329,2.06-10.923v-31.597
			c0-4.535-0.546-7.521-1.723-8.958c-1.177-1.436-3.782-2.343-7.816-2.834c-0.925,0-1.388-0.756-1.388-2.268
			c0-1.361,0.463-2.079,1.388-2.079c5.631-1.398,10.296-2.985,13.951-4.763c3.656-1.7,6.052-3.174,7.187-4.459
			c0.672-0.719,1.345-1.059,2.017-1.059c1.598,0,2.396,0.491,2.396,1.398l-0.672,10.771c4.538-4.195,8.446-7.181,11.725-8.882
			c3.277-1.7,6.556-2.569,9.791-2.569c2.647,0,4.875,0.869,6.766,2.569C235.212,546.384,236.138,548.387,236.138,550.655"/>
		<path fill="#FFFFFF" d="M282.127,581.874c-16.596,3.779-24.877,9.979-24.877,18.709c0,8.088,3.11,12.133,9.373,12.133
			c3.023,0,5.964-0.756,8.908-2.269c2.94-1.512,4.876-3.363,5.927-5.594L282.127,581.874z M295.197,620.387
			c-3.152,0-5.923-0.756-8.277-2.344c-2.354-1.549-3.949-3.666-4.792-6.35c-6.093,6.274-14.075,9.412-23.951,9.412
			c-5.129,0-9.29-1.588-12.566-4.725c-3.235-3.213-4.876-7.105-4.876-11.868c0-11.679,13.871-21.128,41.563-28.347l0.503-13.379
			v-0.416c0-4.119-1.006-7.37-3.024-9.789c-2.018-2.419-4.709-3.629-8.068-3.629c-3.364,0-6.222,0.794-8.572,2.457
			c-2.313,1.588-3.53,3.629-3.572,6.085c-0.041,3.667-1.009,6.501-2.856,8.579c-1.853,2.004-4.332,3.063-7.397,3.063
			c-1.852,0-3.321-0.567-4.456-1.625c-1.134-1.097-1.723-2.533-1.723-4.385c0-4.385,3.991-8.957,11.977-13.795
			c7.986-4.838,15.383-7.219,22.231-7.219c6.176,0,11.135,1.813,14.96,5.441c3.824,3.666,5.714,8.58,5.714,14.74v1.021
			l-1.258,38.626v0.604c0,6.01,1.931,8.996,5.798,8.996c1.893,0,4.077-1.135,6.599-3.439l0.59-0.189c0.461,0,0.88,0.303,1.3,0.945
			c0.378,0.566,0.59,1.209,0.59,1.89c0,1.663-1.724,3.666-5.171,6.085C303.017,619.215,299.275,620.387,295.197,620.387"/>
		<path fill="#FFFFFF" d="M389.926,547.215c0,1.437-0.461,2.23-1.383,2.344c-4.792,0.491-7.986,1.625-9.585,3.439
			c-1.637,1.775-3.696,5.404-6.134,10.998l-24.541,55.899c-0.378,0.944-1.051,1.398-2.06,1.398s-1.724-0.454-2.102-1.398
			l-23.028-55.899c-2.102-5.254-4.244-8.807-6.388-10.771c-2.185-1.965-5.129-3.175-8.825-3.666
			c-0.884-0.113-1.346-0.907-1.346-2.306c0-1.625,0.42-2.419,1.305-2.419c2.268,0,5.083,0.189,8.488,0.529
			c3.613,0.34,6.766,0.491,9.453,0.491c2.69,0,5.968-0.151,9.834-0.491c3.488-0.34,6.429-0.529,8.742-0.529
			c0.926,0,1.387,0.793,1.387,2.419c0,1.398-0.461,2.192-1.387,2.306c-3.405,0.453-5.757,1.059-7.061,1.852
			c-1.262,0.756-1.931,1.89-1.931,3.363c0,1.739,0.839,4.838,2.521,9.146l13.825,33.639l14.162-33.563
			c1.807-4.271,2.688-7.332,2.688-9.223c0-1.474-0.628-2.607-1.973-3.363c-1.305-0.793-3.613-1.398-6.853-1.852
			c-0.923-0.113-1.384-0.907-1.384-2.306c0-1.625,0.461-2.419,1.384-2.419c2.396,0,5.087,0.189,8.11,0.529
			c2.944,0.34,5.549,0.491,7.903,0.491c1.176,0,3.106-0.113,5.798-0.416c3.7-0.378,6.682-0.604,8.949-0.604
			C389.465,544.834,389.926,545.628,389.926,547.215"/>
		<path fill="#FFFFFF" d="M431.902,581.874c-16.6,3.779-24.877,9.979-24.877,18.709c0,8.088,3.107,12.133,9.37,12.133
			c3.027,0,5.968-0.756,8.908-2.269c2.898-1.512,4.875-3.363,5.926-5.594L431.902,581.874z M444.971,620.387
			c-3.151,0-5.926-0.756-8.28-2.344c-2.351-1.549-3.95-3.666-4.789-6.35c-6.093,6.274-14.078,9.412-23.954,9.412
			c-5.125,0-9.287-1.588-12.563-4.725c-3.235-3.213-4.876-7.105-4.876-11.868c0-11.679,13.867-21.128,41.561-28.347l0.506-13.379
			v-0.416c0-4.119-1.009-7.37-3.027-9.789c-2.015-2.419-4.705-3.629-8.069-3.629c-3.36,0-6.217,0.794-8.572,2.457
			c-2.309,1.588-3.529,3.629-3.571,6.085c-0.042,3.667-1.009,6.501-2.857,8.579c-1.848,2.004-4.327,3.063-7.396,3.063
			c-1.848,0-3.318-0.567-4.452-1.625c-1.138-1.097-1.724-2.533-1.724-4.385c0-4.385,3.991-8.957,11.978-13.795
			c7.982-4.838,15.379-7.219,22.228-7.219c6.18,0,11.138,1.813,14.963,5.441c3.821,3.666,5.715,8.58,5.715,14.74v1.021
			l-1.263,38.626v0.604c0,6.01,1.936,8.996,5.802,8.996c1.89,0,4.074-1.135,6.596-3.439l0.589-0.189
			c0.461,0,0.881,0.303,1.305,0.945c0.378,0.566,0.585,1.209,0.585,1.89c0,1.663-1.723,3.666-5.166,6.085
			C452.787,619.215,449.046,620.387,444.971,620.387"/>
	</g>
</g>
</svg>
