<?xml version="1.0" encoding="UTF-8" standalone="no"?>
<svg xmlns:rdf="http://www.w3.org/1999/02/22-rdf-syntax-ns#" xmlns="http://www.w3.org/2000/svg" xmlns:cc="http://creativecommons.org/ns#" xmlns:xlink="http://www.w3.org/1999/xlink" xmlns:dc="http://purl.org/dc/elements/1.1/" height="414.83" width="600" version="1.1" viewBox="0 0 158.75 109.75581">
  <defs>
    <linearGradient id="e" gradientUnits="userSpaceOnUse" gradientTransform="matrix(-5.6941 -71.679 -71.679 5.6941 36.024 276.87)" x1="0" x2="1" y1="0" y2="0">
      <stop stop-color="#d79631" offset="0"/>
      <stop stop-color="#ffef2e" offset=".5"/>
      <stop stop-color="#d79631" offset="1"/>
    </linearGradient>
    <radialGradient id="c" gradientUnits="userSpaceOnUse" cy="0" cx="0" gradientTransform="matrix(-2.3486 -27.823 -27.798 2.3465 82.156 275.81)" r="1">
      <stop stop-color="#d79631" offset="0"/>
      <stop stop-color="#ffef2e" offset=".5"/>
      <stop stop-color="#d79631" offset="1"/>
    </radialGradient>
    <radialGradient id="b" gradientUnits="userSpaceOnUse" cy="0" cx="0" gradientTransform="matrix(-13.755 -39.887 -39.851 13.743 72.355 286.23)" r="1">
      <stop stop-color="#d79631" offset="0"/>
      <stop stop-color="#ffef2e" offset=".5"/>
      <stop stop-color="#d79631" offset="1"/>
    </radialGradient>
    <radialGradient id="a" gradientUnits="userSpaceOnUse" cy="0" cx="0" gradientTransform="matrix(-6.0322 -67.635 -67.574 6.0268 52.611 286.77)" r="1">
      <stop stop-color="#d79631" offset="0"/>
      <stop stop-color="#ffef2e" offset=".5"/>
      <stop stop-color="#d79631" offset="1"/>
    </radialGradient>
    <linearGradient id="d" gradientUnits="userSpaceOnUse" gradientTransform="matrix(-21.323 49.669 49.669 21.323 81.638 212.65)" x1="0" x2="1" y1="0" y2="0">
      <stop stop-color="#d79631" offset="0"/>
      <stop stop-color="#ffef2e" offset=".5"/>
      <stop stop-color="#d79631" offset="1"/>
    </linearGradient>
  </defs>
  <g transform="translate(28.543 -206.98)">
    <path fill="url(#e)" d="m50.832 206.98c-20.814 0-37.704 16.83-37.704 37.66 0 15.39 9.206 28.58 22.405 34.45-3.381-4.05-6.094-9.15-7.806-15.45-1.79-6.57-1.356-12.16-0.356-17.26 2.458-12.46 9.574-22.35 16.779-31.9 1.089-1.43 2.101-2.78 3.402-4.19 1.334-1.48 3.302-3.31 3.313-3.31h-0.033z"/>
    <path fill="url(#c)" d="m67.499 251.33 0.033 0.15s5.249 14.47 7.884 21.71c4.303-3.7 7.761-8.36 10.04-13.65-1.468-2.55-3.436-4.54-5.826-5.95-2.469-1.46-5.526-2.53-9.073-2.53-0.979 0-2.002 0.08-3.058 0.27"/>
    <path fill="url(#b)" d="m57.425 257.95c-1.523 2.35-2.49 5.24-2.39 8.55 0.111 3.97 1.923 7.05 3.903 9.06 1.49 1.54 3.358 2.6 5.515 3.19 0.444 0.12 0.989 0.3 1.412 0.44 2.379-1.04 4.636-2.32 6.738-3.8-2.78-7.73-5.56-15.45-8.362-23.15-3.269 1.33-5.259 3.29-6.816 5.71"/>
    <path fill="url(#a)" d="m50.51 229.03c-5.56 7.74-11.653 15.36-14.066 25.14-0.967 3.93-1.545 8.41-0.678 13.27 0.967 5.37 2.98 9.32 5.671 12.5 0.455 0.52 0.922 1.02 1.412 1.52 2.568 0.56 5.248 0.86 7.994 0.86 3.947 0 7.761-0.61 11.341-1.76-2.791-0.48-5.125-1.82-6.993-3.4-2.891-2.45-5.638-6.37-6.705-11.24-1.29-5.94 0-11.08 1.946-15.09 2.046-4.22 5.07-7.59 9.64-10.15-1.991-5.45-3.914-11-5.949-16.39-1.078 1.4-2.468 3.14-3.613 4.74"/>
    <path fill="url(#d)" d="m57.67 219.22c-0.345 0.49-1.19 1.85-1.19 1.85s0.59 1.6 0.857 2.31c1.979 5.52 3.724 10.36 5.792 15.96 7.795-2.33 14.077-0.92 19.058 2.04 2.302 1.36 4.503 3.26 6.282 5.45 0.034-0.75 0.067-1.49 0.067-2.23 0-16.08-10.074-29.83-24.261-35.24 0 0-0.011 0-0.011-0.01-1.868 3.31-4.326 6.71-6.594 9.87"/>
    <g>
      <path d="m-10.675 306.2c0-2.78-0.556-4.95-1.657-6.53-1.101-1.56-2.646-2.34-4.647-2.34-1.068 0-2.113 0.4-3.136 1.2-1.023 0.81-1.534 1.61-1.534 2.41v10.46c0 0.81 0.611 1.62 1.823 2.44 1.223 0.82 2.346 1.23 3.391 1.23 1.813 0 3.225-0.8 4.237-2.42 1.011-1.61 1.523-3.76 1.523-6.45m4.5698-0.19c0 2.77-0.9785 5.23-2.9465 7.35-1.9573 2.13-4.2363 3.19-6.8163 3.19-1.434 0-2.824-0.31-4.169-0.91-0.912-0.42-1.735-0.63-2.446-0.63-1.123 0-1.879 0.49-2.235 1.45-0.078 0.18-0.267 0.27-0.567 0.27-0.389 0-0.589-0.12-0.589-0.37 0.122-1.25 0.177-2.78 0.177-4.56v-22.03c0-1.23-0.155-2.03-0.455-2.4-0.312-0.37-0.99-0.62-2.035-0.73-0.234 0-0.356-0.17-0.356-0.54 0-0.44 0.122-0.65 0.356-0.65 2.679-0.7 4.581-1.5 5.704-2.4 0.233-0.18 0.422-0.27 0.567-0.27 0.422 0 0.634 0.12 0.634 0.36-0.245 3.29-0.367 5.93-0.367 7.92v6.76c1.423-1.41 3.169-2.13 5.226-2.13 3.068 0 5.548 0.93 7.4603 2.78 1.9013 1.86 2.8575 4.37 2.8575 7.54"/>
      <path d="m11.06 297.91c0 0.6-0.189 1.11-0.556 1.54-0.367 0.42-0.8116 0.63-1.3453 0.63-0.656 0-1.312-0.21-1.968-0.66-0.5115-0.34-0.9562-0.52-1.3343-0.52-0.9784 0-1.9903 0.58-3.0243 1.72v10.19c0 1.3 0.2224 2.22 0.6782 2.75 0.4448 0.51 1.4121 0.87 2.8909 1.06 0.2447 0.04 0.367 0.24 0.367 0.61 0 0.43-0.1223 0.64-0.367 0.64-0.6226 0-1.4899-0.05-2.624-0.14-1.2453-0.08-2.2349-0.13-2.9687-0.13-0.75611 0-1.6678 0.05-2.7353 0.13-0.9562 0.09-1.7567 0.14-2.3683 0.14-0.2446 0-0.3669-0.21-0.3669-0.64 0-0.37 0.1223-0.57 0.3669-0.61 1.3121-0.16 2.146-0.46 2.524-0.92 0.3669-0.46 0.5448-1.41 0.5448-2.89v-8.36c0-1.2-0.1445-1.99-0.4558-2.37-0.3114-0.38-1.0007-0.62-2.0681-0.75-0.2447 0-0.367-0.2-0.367-0.6 0-0.36 0.1223-0.55 0.367-0.55 1.4899-0.37 2.7241-0.79 3.6914-1.26 0.96734-0.45 1.6011-0.84 1.9013-1.18 0.1779-0.19 0.3558-0.28 0.5337-0.28 0.4225 0 0.6338 0.13 0.6338 0.37l-0.1779 2.85c1.2008-1.11 2.2349-1.9 3.1021-2.35 0.8673-0.45 1.7346-0.68 2.5907-0.68 0.7005 0 1.2898 0.23 1.7901 0.68 0.5 0.45 0.745 0.98 0.745 1.58"/>
      <path d="m23.228 306.17c-4.391 1-6.582 2.64-6.582 4.95 0 2.14 0.823 3.21 2.48 3.21 0.8 0 1.578-0.2 2.357-0.6 0.778-0.4 1.29-0.89 1.568-1.48l0.177-6.08zm3.458 10.19c-0.834 0-1.567-0.2-2.19-0.62-0.623-0.41-1.045-0.97-1.268-1.68-1.612 1.66-3.724 2.49-6.337 2.49-1.357 0-2.458-0.42-3.325-1.25-0.856-0.85-1.29-1.88-1.29-3.14 0-3.09 3.67-5.59 10.997-7.5l0.133-3.54v-0.11c0-1.09-0.266-1.95-0.8-2.59s-1.246-0.96-2.135-0.96c-0.89 0-1.646 0.21-2.268 0.65-0.612 0.42-0.934 0.96-0.945 1.61-0.011 0.97-0.267 1.72-0.756 2.27-0.49 0.53-1.146 0.81-1.957 0.81-0.49 0-0.879-0.15-1.179-0.43-0.3-0.29-0.456-0.67-0.456-1.16 0-1.16 1.056-2.37 3.169-3.65s4.07-1.91 5.882-1.91c1.634 0 2.946 0.48 3.958 1.44 1.012 0.97 1.512 2.27 1.512 3.9v0.27l-0.333 10.22v0.16c0 1.59 0.511 2.38 1.534 2.38 0.501 0 1.079-0.3 1.746-0.91l0.156-0.05c0.122 0 0.233 0.08 0.344 0.25 0.1 0.15 0.156 0.32 0.156 0.5 0 0.44-0.456 0.97-1.368 1.61-0.911 0.63-1.901 0.94-2.98 0.94"/>
      <path d="m51.75 297c0 0.38-0.122 0.59-0.366 0.62-1.268 0.13-2.113 0.43-2.536 0.91-0.433 0.47-0.978 1.43-1.623 2.91l-6.493 14.79c-0.1 0.25-0.278 0.37-0.545 0.37s-0.456-0.12-0.556-0.37l-6.093-14.79c-0.556-1.39-1.123-2.33-1.69-2.85-0.578-0.52-1.357-0.84-2.335-0.97-0.234-0.03-0.356-0.24-0.356-0.61 0-0.43 0.111-0.64 0.345-0.64 0.6 0 1.345 0.05 2.246 0.14 0.956 0.09 1.79 0.13 2.501 0.13 0.712 0 1.579-0.04 2.602-0.13 0.923-0.09 1.701-0.14 2.313-0.14 0.245 0 0.367 0.21 0.367 0.64 0 0.37-0.122 0.58-0.367 0.61-0.901 0.12-1.523 0.28-1.868 0.49-0.334 0.2-0.511 0.5-0.511 0.89 0 0.46 0.222 1.28 0.667 2.42l3.658 8.9 3.747-8.88c0.478-1.13 0.711-1.94 0.711-2.44 0-0.39-0.166-0.69-0.522-0.89-0.345-0.21-0.956-0.37-1.813-0.49-0.244-0.03-0.366-0.24-0.366-0.61 0-0.43 0.122-0.64 0.366-0.64 0.634 0 1.346 0.05 2.146 0.14 0.779 0.09 1.468 0.13 2.091 0.13 0.311 0 0.822-0.03 1.534-0.11 0.979-0.1 1.768-0.16 2.368-0.16 0.256 0 0.378 0.21 0.378 0.63"/>
      <path d="m62.856 306.17c-4.392 1-6.582 2.64-6.582 4.95 0 2.14 0.822 3.21 2.479 3.21 0.801 0 1.579-0.2 2.357-0.6 0.767-0.4 1.29-0.89 1.568-1.48l0.178-6.08zm3.458 10.19c-0.834 0-1.568-0.2-2.191-0.62-0.622-0.41-1.045-0.97-1.267-1.68-1.612 1.66-3.725 2.49-6.338 2.49-1.356 0-2.457-0.42-3.324-1.25-0.856-0.85-1.29-1.88-1.29-3.14 0-3.09 3.669-5.59 10.996-7.5l0.134-3.54v-0.11c0-1.09-0.267-1.95-0.801-2.59-0.533-0.64-1.245-0.96-2.135-0.96-0.889 0-1.645 0.21-2.268 0.65-0.611 0.42-0.934 0.96-0.945 1.61-0.011 0.97-0.267 1.72-0.756 2.27-0.489 0.53-1.145 0.81-1.957 0.81-0.489 0-0.878-0.15-1.178-0.43-0.301-0.29-0.456-0.67-0.456-1.16 0-1.16 1.056-2.37 3.169-3.65 2.112-1.28 4.069-1.91 5.881-1.91 1.635 0 2.947 0.48 3.959 1.44 1.011 0.97 1.512 2.27 1.512 3.9v0.27l-0.334 10.22v0.16c0 1.59 0.512 2.38 1.535 2.38 0.5 0 1.078-0.3 1.745-0.91l0.156-0.05c0.122 0 0.233 0.08 0.345 0.25 0.1 0.15 0.155 0.32 0.155 0.5 0 0.44-0.456 0.97-1.367 1.61-0.912 0.63-1.902 0.94-2.98 0.94"/>
      <path d="m105.22 315.24c0 0.42-0.12 0.63-0.37 0.63-0.6 0-1.34-0.04-2.23-0.13-0.97-0.09-1.81-0.14-2.54-0.14-0.764 0-1.632 0.05-2.61 0.14-0.901 0.09-1.646 0.13-2.257 0.13-0.234 0-0.356-0.21-0.356-0.63 0-0.38 0.122-0.58 0.356-0.61 1.045-0.13 1.734-0.42 2.057-0.88 0.322-0.47 0.489-1.45 0.489-2.95v-7.55c0-3.26-1.49-4.89-4.448-4.89-1.879 0-3.491 0.76-4.847 2.27v10.17c0 1.36 0.189 2.3 0.589 2.84 0.389 0.52 1.156 0.85 2.313 0.99 0.233 0.03 0.355 0.23 0.355 0.61 0 0.42-0.111 0.63-0.355 0.63-0.623 0-1.424-0.04-2.413-0.13-1.123-0.09-2.046-0.14-2.78-0.14-0.756 0-1.612 0.05-2.579 0.14-0.857 0.09-1.59 0.13-2.213 0.13-0.245 0-0.367-0.21-0.367-0.63 0-0.38 0.122-0.58 0.367-0.61 1.268-0.14 2.09-0.44 2.468-0.89 0.378-0.47 0.567-1.44 0.567-2.93v-21c0-1.21-0.155-2.01-0.444-2.39-0.301-0.38-0.979-0.62-2.046-0.75-0.245-0.03-0.367-0.22-0.367-0.58 0-0.4 0.122-0.6 0.367-0.6 2.568-0.6 4.47-1.4 5.704-2.4 0.222-0.18 0.411-0.26 0.556-0.26 0.422 0 0.633 0.12 0.633 0.35-0.244 2.48-0.355 5.11-0.355 7.87v7.68c2.157-2.05 4.292-3.08 6.393-3.08 2.146 0 3.847 0.59 5.07 1.76 1.233 1.18 1.853 2.76 1.853 4.75v8.64c0 1.48 0.19 2.45 0.58 2.91 0.38 0.46 1.21 0.77 2.49 0.92 0.25 0.03 0.37 0.23 0.37 0.61"/>
      <path d="m123.29 311.95v-11.59c0-0.79-0.45-1.53-1.37-2.23-0.91-0.69-1.9-1.03-2.98-1.03-4.4 0-6.6 3.09-6.6 9.28 0 2.45 0.53 4.48 1.59 6.1 1.06 1.61 2.45 2.42 4.16 2.42 0.98 0 1.87-0.22 2.67-0.67 0.8-0.44 1.64-1.21 2.53-2.28m6.92 2.42c0 0.32-0.11 0.5-0.36 0.53-0.85 0.1-1.86 0.31-2.99 0.63-1.13 0.31-2.02 0.64-2.66 0.95-0.33 0.16-0.58 0.25-0.73 0.25-0.23 0-0.36-0.12-0.36-0.36l0.18-2.45c-1.6 1.76-3.63 2.62-6.1 2.62-2.62 0-4.84-1-6.66-3-1.84-2.01-2.76-4.41-2.76-7.21 0-3.18 1.02-5.76 3.05-7.73s4.57-2.95 7.63-2.95c1.75 0 3.36 0.54 4.84 1.63v-7.52c0-1.21-0.15-2.01-0.45-2.39s-0.99-0.62-2.08-0.75c-0.24-0.03-0.36-0.22-0.36-0.57 0-0.4 0.12-0.6 0.36-0.6 1.42-0.34 2.65-0.74 3.7-1.21 1.04-0.46 1.74-0.87 2.11-1.23 0.15-0.16 0.3-0.23 0.47-0.23 0.43 0 0.64 0.12 0.64 0.36-0.24 3.28-0.36 5.91-0.36 7.86v19.92c0 1.04 0.15 1.73 0.45 2.09 0.3 0.35 0.99 0.61 2.08 0.76 0.25 0 0.36 0.2 0.36 0.6"/>
    </g>
  </g>
</svg>
