<svg xmlns="http://www.w3.org/2000/svg" height="414.83" width="600" viewBox="0 0 158.75 109.75581" xmlns:xlink="http://www.w3.org/1999/xlink"><defs><linearGradient id="0" gradientUnits="userSpaceOnUse" x1="81.64" x2="60.32" y1="212.65" y2="262.32" xlink:href="#1"/><linearGradient id="1" gradientUnits="userSpaceOnUse" x1="36.02" x2="30.33" y1="276.87" y2="205.19"><stop stop-color="#d79631"/><stop stop-color="#ffef2e" offset=".5"/><stop stop-color="#d79631" offset="1"/></linearGradient><radialGradient id="3" gradientUnits="userSpaceOnUse" cy="0" cx="0" gradientTransform="matrix(-6.0322-67.635-67.574 6.0268 52.611 286.77)" r="1" xlink:href="#1"/><radialGradient id="2" gradientUnits="userSpaceOnUse" cy="0" cx="0" gradientTransform="matrix(-2.3486-27.823-27.798 2.3465 82.16 275.81)" r="1" xlink:href="#1"/><radialGradient id="4" gradientUnits="userSpaceOnUse" cy="0" cx="0" gradientTransform="matrix(-13.755-39.887-39.851 13.743 72.36 286.23)" r="1" xlink:href="#1"/></defs><g transform="translate(28.543-206.98)"><path fill="url(#1)" d="m50.832 206.98c-20.814 0-37.704 16.83-37.704 37.66 0 15.39 9.206 28.58 22.405 34.45-3.381-4.05-6.094-9.15-7.806-15.45-1.79-6.57-1.356-12.16-.356-17.26 2.458-12.46 9.574-22.35 16.779-31.9 1.089-1.43 2.101-2.78 3.402-4.19 1.334-1.48 3.302-3.31 3.313-3.31h-.033"/><path fill="url(#2)" d="m67.5 251.33l.033.15s5.249 14.47 7.884 21.71c4.303-3.7 7.761-8.36 10.04-13.65-1.468-2.55-3.436-4.54-5.826-5.95-2.469-1.46-5.526-2.53-9.07-2.53-.979 0-2 .08-3.058.27"/><path fill="url(#4)" d="m57.42 257.95c-1.523 2.35-2.49 5.24-2.39 8.55.111 3.97 1.923 7.05 3.903 9.06 1.49 1.54 3.358 2.6 5.515 3.19.444.12.989.3 1.412.44 2.379-1.04 4.636-2.32 6.738-3.8-2.78-7.73-5.56-15.45-8.362-23.15-3.269 1.33-5.259 3.29-6.816 5.71"/><path fill="url(#3)" d="m50.51 229.03c-5.56 7.74-11.653 15.36-14.07 25.14-.967 3.93-1.545 8.41-.678 13.27.967 5.37 2.98 9.32 5.671 12.5.455.52.922 1.02 1.412 1.52 2.568.56 5.248.86 7.994.86 3.947 0 7.761-.61 11.341-1.76-2.791-.48-5.125-1.82-6.993-3.4-2.891-2.45-5.638-6.37-6.705-11.24-1.29-5.94 0-11.08 1.946-15.09 2.046-4.22 5.07-7.59 9.64-10.15-1.991-5.45-3.914-11-5.949-16.39-1.078 1.4-2.468 3.14-3.613 4.74"/><path fill="url(#0)" d="m57.67 219.22c-.345.49-1.19 1.85-1.19 1.85s.59 1.6.857 2.31c1.979 5.52 3.724 10.36 5.792 15.96 7.795-2.33 14.08-.92 19.06 2.04 2.302 1.36 4.503 3.26 6.282 5.45.034-.75.067-1.49.067-2.23 0-16.08-10.07-29.83-24.26-35.24 0 0-.011 0-.011-.001-1.868 3.31-4.326 6.71-6.594 9.87"/><g fill="#fff"><path d="m-10.675 306.2c0-2.78-.556-4.95-1.657-6.53-1.101-1.56-2.646-2.34-4.647-2.34-1.068 0-2.113.4-3.136 1.2-1.023.81-1.534 1.61-1.534 2.41v10.46c0 .81.611 1.62 1.823 2.44 1.223.82 2.346 1.23 3.391 1.23 1.813 0 3.225-.8 4.237-2.42 1.01-1.61 1.523-3.76 1.523-6.45m4.57-.19c0 2.77-.979 5.23-2.946 7.35-1.957 2.13-4.236 3.19-6.816 3.19-1.434 0-2.824-.31-4.169-.91-.912-.42-1.735-.63-2.446-.63-1.123 0-1.879.49-2.235 1.45-.078.18-.267.27-.567.27-.389 0-.589-.12-.589-.37.122-1.25.177-2.78.177-4.56v-22.03c0-1.23-.155-2.03-.455-2.4-.312-.37-.99-.62-2.035-.73-.234 0-.356-.17-.356-.54 0-.44.122-.65.356-.65 2.679-.7 4.581-1.5 5.704-2.4.233-.18.422-.27.567-.27.422 0 .634.12.634.36-.245 3.29-.367 5.93-.367 7.92v6.76c1.423-1.41 3.169-2.13 5.226-2.13 3.068 0 5.548.93 7.46 2.78 1.901 1.86 2.857 4.37 2.857 7.54"/><path d="m11.06 297.91c0 .6-.189 1.11-.556 1.54-.367.42-.812.63-1.345.63-.656 0-1.312-.21-1.968-.66-.511-.34-.956-.52-1.334-.52-.978 0-1.99.58-3.02 1.72v10.19c0 1.3.222 2.22.678 2.75.445.51 1.412.87 2.891 1.06.245.04.367.24.367.61 0 .43-.122.64-.367.64-.623 0-1.49-.05-2.624-.14-1.245-.08-2.235-.13-2.969-.13-.756 0-1.668.05-2.735.13-.956.09-1.757.14-2.368.14-.245 0-.367-.21-.367-.64 0-.37.122-.57.367-.61 1.312-.16 2.146-.46 2.524-.92.367-.46.545-1.41.545-2.89v-8.36c0-1.2-.145-1.99-.456-2.37-.311-.38-1-.62-2.068-.75-.245 0-.367-.2-.367-.6 0-.36.122-.55.367-.55 1.49-.37 2.724-.79 3.691-1.26.967-.45 1.601-.84 1.901-1.18.178-.19.356-.28.534-.28.422 0 .634.13.634.37l-.178 2.85c1.201-1.11 2.235-1.9 3.102-2.35.867-.45 1.735-.68 2.591-.68.7 0 1.29.23 1.79.68.5.45.745.98.745 1.58"/><path d="m23.23 306.17c-4.391 1-6.582 2.64-6.582 4.95 0 2.14.823 3.21 2.48 3.21.8 0 1.578-.2 2.357-.6.778-.4 1.29-.89 1.568-1.48l.177-6.08m3.458 10.19c-.834 0-1.567-.2-2.19-.62-.623-.41-1.045-.97-1.268-1.68-1.612 1.66-3.724 2.49-6.337 2.49-1.357 0-2.458-.42-3.325-1.25-.856-.85-1.29-1.88-1.29-3.14 0-3.09 3.67-5.59 10.997-7.5l.133-3.54v-.11c0-1.09-.266-1.95-.8-2.59s-1.246-.96-2.135-.96c-.89 0-1.646.21-2.268.65-.612.42-.934.96-.945 1.61-.011.97-.267 1.72-.756 2.27-.49.53-1.146.81-1.957.81-.49 0-.879-.15-1.179-.43-.3-.29-.456-.67-.456-1.16 0-1.16 1.056-2.37 3.169-3.65s4.07-1.91 5.882-1.91c1.634 0 2.946.48 3.958 1.44 1.012.97 1.512 2.27 1.512 3.9v.27l-.333 10.22v.16c0 1.59.511 2.38 1.534 2.38.501 0 1.079-.3 1.746-.91l.156-.05c.122 0 .233.08.344.25.1.15.156.32.156.5 0 .44-.456.97-1.368 1.61-.911.63-1.901.94-2.98.94"/><path d="m51.75 297c0 .38-.122.59-.366.62-1.268.13-2.113.43-2.536.91-.433.47-.978 1.43-1.623 2.91l-6.493 14.79c-.1.25-.278.37-.545.37s-.456-.12-.556-.37l-6.093-14.79c-.556-1.39-1.123-2.33-1.69-2.85-.578-.52-1.357-.84-2.335-.97-.234-.03-.356-.24-.356-.61 0-.43.111-.64.345-.64.6 0 1.345.05 2.246.14.956.09 1.79.13 2.501.13.712 0 1.579-.04 2.602-.13.923-.09 1.701-.14 2.313-.14.245 0 .367.21.367.64 0 .37-.122.58-.367.61-.901.12-1.523.28-1.868.49-.334.2-.511.5-.511.89 0 .46.222 1.28.667 2.42l3.658 8.9 3.747-8.88c.478-1.13.711-1.94.711-2.44 0-.39-.166-.69-.522-.89-.345-.21-.956-.37-1.813-.49-.244-.03-.366-.24-.366-.61 0-.43.122-.64.366-.64.634 0 1.346.05 2.146.14.779.09 1.468.13 2.091.13.311 0 .822-.03 1.534-.11.979-.1 1.768-.16 2.368-.16.256 0 .378.21.378.63"/><path d="m62.856 306.17c-4.392 1-6.582 2.64-6.582 4.95 0 2.14.822 3.21 2.479 3.21.801 0 1.579-.2 2.357-.6.767-.4 1.29-.89 1.568-1.48l.178-6.08m3.458 10.19c-.834 0-1.568-.2-2.191-.62-.622-.41-1.045-.97-1.267-1.68-1.612 1.66-3.725 2.49-6.338 2.49-1.356 0-2.457-.42-3.324-1.25-.856-.85-1.29-1.88-1.29-3.14 0-3.09 3.669-5.59 10.996-7.5l.134-3.54v-.11c0-1.09-.267-1.95-.801-2.59-.533-.64-1.245-.96-2.135-.96-.889 0-1.645.21-2.268.65-.611.42-.934.96-.945 1.61-.011.97-.267 1.72-.756 2.27-.489.53-1.145.81-1.957.81-.489 0-.878-.15-1.178-.43-.301-.29-.456-.67-.456-1.16 0-1.16 1.056-2.37 3.169-3.65 2.112-1.28 4.069-1.91 5.881-1.91 1.635 0 2.947.48 3.959 1.44 1.01.97 1.512 2.27 1.512 3.9v.27l-.334 10.22v.16c0 1.59.512 2.38 1.535 2.38.5 0 1.078-.3 1.745-.91l.156-.05c.122 0 .233.08.345.25.1.15.155.32.155.5 0 .44-.456.97-1.367 1.61-.912.63-1.902.94-2.98.94"/><path d="m105.22 315.24c0 .42-.12.63-.37.63-.6 0-1.34-.04-2.23-.13-.97-.09-1.81-.14-2.54-.14-.764 0-1.632.05-2.61.14-.901.09-1.646.13-2.257.13-.234 0-.356-.21-.356-.63 0-.38.122-.58.356-.61 1.045-.13 1.734-.42 2.057-.88.322-.47.489-1.45.489-2.95v-7.55c0-3.26-1.49-4.89-4.448-4.89-1.879 0-3.491.76-4.847 2.27v10.17c0 1.36.189 2.3.589 2.84.389.52 1.156.85 2.313.99.233.03.355.23.355.61 0 .42-.111.63-.355.63-.623 0-1.424-.04-2.413-.13-1.123-.09-2.046-.14-2.78-.14-.756 0-1.612.05-2.579.14-.857.09-1.59.13-2.213.13-.245 0-.367-.21-.367-.63 0-.38.122-.58.367-.61 1.268-.14 2.09-.44 2.468-.89.378-.47.567-1.44.567-2.93v-21c0-1.21-.155-2.01-.444-2.39-.301-.38-.979-.62-2.046-.75-.245-.03-.367-.22-.367-.58 0-.4.122-.6.367-.6 2.568-.6 4.47-1.4 5.704-2.4.222-.18.411-.26.556-.26.422 0 .633.12.633.35-.244 2.48-.355 5.11-.355 7.87v7.68c2.157-2.05 4.292-3.08 6.393-3.08 2.146 0 3.847.59 5.07 1.76 1.233 1.18 1.853 2.76 1.853 4.75v8.64c0 1.48.19 2.45.58 2.91.38.46 1.21.77 2.49.92.25.03.37.23.37.61"/><path d="m123.29 311.95v-11.59c0-.79-.45-1.53-1.37-2.23-.91-.69-1.9-1.03-2.98-1.03-4.4 0-6.6 3.09-6.6 9.28 0 2.45.53 4.48 1.59 6.1 1.06 1.61 2.45 2.42 4.16 2.42.98 0 1.87-.22 2.67-.67.8-.44 1.64-1.21 2.53-2.28m6.92 2.42c0 .32-.11.5-.36.53-.85.1-1.86.31-2.99.63-1.13.31-2.02.64-2.66.95-.33.16-.58.25-.73.25-.23 0-.36-.12-.36-.36l.18-2.45c-1.6 1.76-3.63 2.62-6.1 2.62-2.62 0-4.84-1-6.66-3-1.84-2.01-2.76-4.41-2.76-7.21 0-3.18 1.02-5.76 3.05-7.73s4.57-2.95 7.63-2.95c1.75 0 3.36.54 4.84 1.63v-7.52c0-1.21-.15-2.01-.45-2.39s-.99-.62-2.08-.75c-.24-.03-.36-.22-.36-.57 0-.4.12-.6.36-.6 1.42-.34 2.65-.74 3.7-1.21 1.04-.46 1.74-.87 2.11-1.23.15-.16.3-.23.47-.23.43 0 .64.12.64.36-.24 3.28-.36 5.91-.36 7.86v19.92c0 1.04.15 1.73.45 2.09.3.35.99.61 2.08.76.25 0 .36.2.36.6"/></g></g></svg>