<svg xmlns="http://www.w3.org/2000/svg" height="227.7" width="600" viewBox="0 0 158.75 60.243745" xmlns:xlink="http://www.w3.org/1999/xlink"><defs><linearGradient id="0" gradientUnits="userSpaceOnUse" x1="95.39" x2="84.31" y1="2.948" y2="28.776" xlink:href="#1"/><linearGradient id="1" gradientUnits="userSpaceOnUse" x1="71.67" x2="68.71" y1="36.34" y2="-.931"><stop stop-color="#d79631"/><stop stop-color="#ffef2e" offset=".5"/><stop stop-color="#d79631" offset="1"/></linearGradient><radialGradient id="3" gradientUnits="userSpaceOnUse" cy="0" cx="0" gradientTransform="matrix(-3.1367-35.17-35.138 3.1339 80.3 41.49)" r="1" xlink:href="#1"/><radialGradient id="2" gradientUnits="userSpaceOnUse" cy="0" cx="0" gradientTransform="matrix(-1.2213-14.468-14.455 1.2202 95.66 35.791)" r="1" xlink:href="#1"/><radialGradient id="4" gradientUnits="userSpaceOnUse" cy="0" cx="0" gradientTransform="matrix(-7.1525-20.741-20.722 7.1463 90.57 41.21)" r="1" xlink:href="#1"/></defs><g stroke-width=".52"><path d="m79.37 0c-10.823 0-19.606 8.752-19.606 19.583 0 8 4.787 14.861 11.651 17.914-1.758-2.106-3.169-4.758-4.059-8.03-.931-3.417-.705-6.324-.185-8.976 1.278-6.479 4.978-11.621 8.725-16.587.566-.744 1.092-1.446 1.769-2.179.693-.77 1.717-1.721 1.722-1.721z" fill="url(#1)"/><path d="m88.04 23.06l.017.078s2.73 7.525 4.1 11.29c2.237-1.924 4.03-4.348 5.221-7.098-.764-1.326-1.787-2.361-3.03-3.094-1.284-.76-2.873-1.316-4.718-1.316-.509 0-1.041.042-1.59.14" fill="url(#2)"/><path d="m82.8 26.504c-.792 1.222-1.295 2.725-1.243 4.446.057 2.064 1 3.666 2.029 4.711.775.801 1.746 1.352 2.868 1.659.231.062.514.156.734.229 1.237-.541 2.411-1.207 3.504-1.976-1.446-4.02-2.891-8.03-4.348-12.04-1.7.691-2.735 1.71-3.544 2.969" fill="url(#4)"/><path d="m79.21 11.466c-2.891 4.02-6.06 7.987-7.314 13.07-.503 2.044-.804 4.373-.353 6.901.503 2.792 1.55 4.846 2.949 6.499.236.271.479.531.734.791 1.335.291 2.729.447 4.157.447 2.052 0 4.04-.317 5.897-.915-1.451-.25-2.665-.946-3.636-1.768-1.503-1.274-2.932-3.312-3.487-5.845-.67-3.089 0-5.761 1.012-7.847 1.064-2.194 2.637-3.946 5.01-5.278-1.035-2.833-2.035-5.719-3.093-8.522-.561.728-1.284 1.633-1.879 2.465" fill="url(#3)"/><path d="m82.93 6.364c-.179.255-.619.962-.619.962s.307.832.446 1.201c1.029 2.87 1.936 5.387 3.01 8.299 4.053-1.212 7.32-.479 9.91 1.06 1.197.708 2.341 1.696 3.266 2.834.018-.39.035-.774.035-1.159 0-8.362-5.238-15.512-12.615-18.325 0 0-.006 0-.006-.005-.972 1.721-2.25 3.489-3.429 5.132" fill="url(#0)"/></g><g stroke-width=".147" fill="#fff"><path d="m11.667 54.669c0 1.443-.51 2.717-1.531 3.823-1.02 1.105-2.202 1.658-3.544 1.658-.746 0-1.468-.157-2.167-.47-.479-.22-.903-.33-1.272-.33-.589 0-.977.251-1.166.753-.039.094-.137.141-.294.141-.204 0-.306-.063-.306-.188.063-.658.094-1.449.094-2.374v-11.459c0-.634-.081-1.049-.241-1.245-.161-.196-.512-.321-1.053-.376-.126 0-.188-.096-.188-.288 0-.224.062-.336.188-.336 1.391-.36 2.38-.776 2.966-1.246.117-.095.215-.142.293-.142.219 0 .328.063.328.189-.126 1.709-.188 3.081-.188 4.116v3.517c.739-.737 1.643-1.106 2.713-1.106 1.596 0 2.89.482 3.881 1.447.991.964 1.486 2.27 1.486 3.916m-2.376.1c0-1.444-.287-2.575-.86-3.391-.574-.817-1.379-1.225-2.416-1.225-.558 0-1.102.21-1.632.629-.53.419-.796.837-.796 1.252v5.443c0 .416.316.838.949 1.266.633.428 1.22.642 1.762.642.943 0 1.678-.42 2.204-1.26s.79-1.958.79-3.356"/><path d="m20.593 50.46c0 .313-.096.58-.288.799-.192.22-.425.33-.7.33-.345 0-.686-.114-1.023-.341-.266-.181-.498-.271-.694-.271-.51 0-1.035.298-1.576.894v5.292c0 .683.118 1.159.353 1.429.235.271.737.457 1.505.559.126.016.188.122.188.318 0 .219-.062.329-.188.329-.321 0-.776-.023-1.364-.07-.649-.047-1.164-.071-1.546-.071-.39 0-.863.024-1.418.071-.502.047-.913.07-1.235.07-.125 0-.188-.11-.188-.329 0-.196.063-.302.188-.318.683-.086 1.12-.246 1.312-.481s.288-.736.288-1.504v-4.345c0-.626-.081-1.037-.241-1.233-.161-.196-.52-.325-1.076-.387-.126 0-.189-.104-.189-.312 0-.192.063-.288.189-.288.776-.196 1.416-.414 1.919-.653s.833-.445.989-.617c.094-.095.187-.142.281-.142.218 0 .327.063.327.189l-.094 1.481c.627-.58 1.167-.988 1.617-1.223.451-.235.9-.352 1.347-.352.361 0 .67.117.929.352s.388.51.388.824"/><path d="m28.722 60.06c-.437 0-.817-.108-1.141-.324-.323-.215-.543-.507-.66-.876-.839.863-1.937 1.294-3.293 1.294-.706 0-1.282-.218-1.729-.653s-.671-.978-.671-1.629c0-1.607 1.906-2.909 5.717-3.904l.07-1.835v-.059c0-.564-.139-1.013-.418-1.346-.278-.334-.648-.5-1.111-.5s-.855.111-1.176.335c-.322.223-.486.504-.494.841-.008.502-.139.894-.394 1.176s-.594.423-1.017.423c-.251 0-.455-.074-.612-.223s-.235-.349-.235-.6c0-.604.549-1.237 1.646-1.899 1.098-.663 2.117-.994 3.058-.994.847 0 1.533.251 2.059.752.525.502.788 1.177.788 2.023v.142l-.177 5.316v.082c0 .823.266 1.235.8 1.235.259 0 .56-.157.905-.471l.083-.023c.063 0 .121.041.176.124.055.082.083.17.083.264 0 .228-.238.506-.712.835-.475.329-.99.494-1.545.494m-1.801-5.305c-2.282.519-3.423 1.377-3.423 2.572 0 1.116.43 1.674 1.289 1.674.414 0 .823-.104 1.225-.312s.674-.466.815-.773z"/><path d="m41.752 49.982c0 .201-.063.308-.188.324-.659.071-1.1.229-1.324.473-.223.244-.503.749-.84 1.514l-3.376 7.692c-.055.126-.149.188-.282.188-.141 0-.239-.062-.294-.188l-3.164-7.692c-.29-.721-.584-1.215-.882-1.482-.298-.266-.702-.435-1.211-.505-.126-.016-.189-.122-.189-.318 0-.219.061-.329.183-.329.312 0 .699.024 1.163.071.502.047.936.07 1.301.07.372 0 .825-.023 1.357-.07.48-.047.88-.071 1.202-.071.125 0 .188.11.188.329 0 .196-.063.302-.188.318-.47.063-.794.147-.971.253s-.265.26-.265.464c0 .243.114.663.342 1.259l1.904 4.628 1.952-4.617c.246-.588.369-1.01.369-1.27 0-.204-.091-.359-.273-.464-.182-.106-.496-.19-.943-.253-.125-.016-.188-.122-.188-.318 0-.219.063-.329.188-.329.33 0 .702.023 1.118.07.402.047.763.071 1.083.071.164 0 .431-.02.8-.059.509-.055.919-.082 1.231-.082.131 0 .197.108.197.323"/><path d="m49.33 60.06c-.437 0-.817-.108-1.14-.324-.324-.215-.544-.507-.661-.876-.839.863-1.937 1.294-3.293 1.294-.706 0-1.282-.218-1.729-.653s-.67-.978-.67-1.629c0-1.607 1.905-2.909 5.716-3.904l.07-1.835v-.059c0-.564-.139-1.013-.417-1.346-.279-.334-.649-.5-1.112-.5-.462 0-.854.111-1.176.335-.321.223-.486.504-.494.841-.007.502-.139.894-.394 1.176s-.594.423-1.017.423c-.251 0-.455-.074-.612-.223s-.235-.349-.235-.6c0-.604.549-1.237 1.647-1.899 1.097-.663 2.117-.994 3.058-.994.846 0 1.532.251 2.058.752.525.502.788 1.177.788 2.023v.142l-.177 5.316v.082c0 .823.267 1.235.8 1.235.259 0 .561-.157.906-.471l.082-.023c.063 0 .122.041.177.124.054.082.082.17.082.264 0 .228-.237.506-.712.835-.474.329-.989.494-1.545.494m-1.801-5.305c-2.281.519-3.422 1.377-3.422 2.572 0 1.116.429 1.674 1.289 1.674.414 0 .822-.104 1.224-.312.403-.208.674-.466.815-.773z"/><path d="m69.36 59.47c0 .219-.063.329-.188.329-.314 0-.698-.023-1.153-.07-.501-.047-.943-.071-1.326-.071-.391 0-.84.024-1.348.071-.461.047-.848.07-1.16.07-.126 0-.188-.11-.188-.329 0-.196.063-.302.188-.318.541-.063.896-.215 1.064-.458.169-.243.253-.753.253-1.529v-3.929c0-.878-.172-1.521-.517-1.928-.345-.408-.878-.612-1.6-.612-.455 0-.857.086-1.205.259-.349.172-.724.478-1.123.917v5.293c0 .776.084 1.286.252 1.529.169.243.524.396 1.065.458.125.016.188.122.188.318 0 .219-.063.329-.188.329-.322 0-.714-.023-1.176-.07-.51-.047-.957-.071-1.341-.071-.377 0-.816.024-1.317.071-.463.047-.855.07-1.177.07-.125 0-.188-.11-.188-.329 0-.196.063-.302.188-.318.675-.086 1.11-.248 1.306-.487s.294-.738.294-1.497v-4.345c0-.627-.081-1.038-.241-1.234-.161-.195-.52-.325-1.076-.387-.126 0-.188-.104-.188-.312 0-.192.062-.288.188-.288.776-.196 1.423-.418 1.94-.664.518-.247.843-.449.977-.606.078-.094.164-.141.258-.141.22 0 .33.063.33.188l-.094 1.482c1.126-1.051 2.175-1.576 3.146-1.576 1.064 0 1.896.305 2.495.917.598.612.898 1.435.898 2.47v4.493c0 .768.096 1.27.288 1.505s.621.396 1.288.482c.125.016.188.122.188.318"/><path d="m75.8 59.44c0 .22-.063.33-.188.33-.322 0-.734-.02-1.235-.059-.565-.04-1.039-.059-1.423-.059-.377 0-.843.02-1.4.059-.502.039-.914.059-1.235.059-.125 0-.188-.11-.188-.33 0-.196.063-.302.188-.317.667-.079 1.1-.237 1.3-.476s.3-.742.3-1.51v-10.918c0-.634-.079-1.049-.236-1.245s-.517-.325-1.081-.388c-.126-.016-.189-.116-.189-.3 0-.192.063-.288.189-.288.823-.212 1.497-.437 2.02-.677.526-.239.855-.441.988-.605.079-.087.165-.13.259-.13.22 0 .33.063.33.189-.126 1.756-.189 3.12-.189 4.092v10.268c0 .768.098 1.272.294 1.511s.632.398 1.306.476c.125.016.188.122.188.318"/><path d="m94.61 59.47c0 .219-.063.329-.188.329-.314 0-.718-.023-1.212-.07-.541-.047-1-.071-1.388-.071s-.866.024-1.446.071c-.541.047-.969.07-1.282.07-.126 0-.188-.11-.188-.329 0-.196.062-.302.188-.318.204-.023.348-.063.435-.117.086-.055.129-.161.129-.318 0-.235-.376-.753-1.129-1.552l-1.882-2.094c-.157-.157-.368-.235-.635-.235v2.329c0 .69.084 1.18.253 1.47s.484.462.947.517c.125.016.188.122.188.318 0 .219-.063.329-.188.329-.337 0-.776-.023-1.317-.07-.514-.047-.92-.071-1.216-.071-.335 0-.742.024-1.219.071-.455.047-.831.07-1.129.07-.125 0-.188-.11-.188-.329 0-.196.063-.302.188-.318.659-.07 1.086-.225 1.282-.464s.294-.746.294-1.522v-10.917c0-.635-.076-1.05-.229-1.246s-.508-.325-1.065-.388c-.125-.016-.188-.116-.188-.299 0-.208.063-.312.188-.312 1.338-.314 2.328-.73 2.967-1.247.117-.094.215-.141.293-.141.218 0 .327.063.327.188-.125 1.288-.188 2.653-.188 4.097v7.288c.282 0 .506-.075.671-.224l1.752-1.663c.055-.055.145-.137.27-.247.651-.594.977-1.034.977-1.319 0-.206-.314-.349-.941-.428-.126-.016-.188-.123-.188-.324 0-.215.063-.323.188-.323.329 0 .745.024 1.247.071.462.047.846.07 1.152.07.228 0 .522-.019.882-.059.439-.055.831-.082 1.176-.082.126 0 .189.108.189.323 0 .201-.063.308-.189.324-.572.063-1.072.198-1.499.404s-1.01.634-1.735 1.283l-2.023 1.793 3.082 3.377c.65.713 1.199 1.203 1.646 1.47.447.266 1.031.439 1.753.517.125.016.188.122.188.318"/><path d="m101.18 59.44c0 .22-.06.33-.19.33-.32 0-.73-.02-1.233-.059-.565-.04-1.039-.059-1.423-.059-.377 0-.843.02-1.4.059-.502.039-.913.059-1.235.059-.125 0-.188-.11-.188-.33 0-.196.063-.302.188-.317.667-.079 1.1-.237 1.3-.476s.3-.742.3-1.51v-10.918c0-.634-.078-1.049-.235-1.245s-.518-.325-1.082-.388c-.126-.016-.189-.116-.189-.3 0-.192.063-.288.189-.288.823-.212 1.497-.437 2.023-.677.525-.239.854-.441.988-.605.078-.087.164-.13.258-.13.22 0 .33.063.33.189-.126 1.756-.188 3.12-.188 4.092v10.268c0 .768.097 1.272.293 1.511s.634.398 1.304.476c.13.016.19.122.19.318"/><path d="m109.43 60.06c-.44 0-.82-.108-1.14-.324-.33-.215-.55-.507-.67-.876-.83.863-1.93 1.294-3.29 1.294-.7 0-1.28-.218-1.73-.653-.44-.435-.67-.978-.67-1.629 0-1.607 1.91-2.909 5.72-3.904l.07-1.835v-.059c0-.564-.14-1.013-.42-1.346-.28-.334-.65-.5-1.11-.5s-.85.111-1.18.335c-.32.223-.48.504-.49.841-.001.502-.14.894-.39 1.176-.26.282-.6.423-1.02.423-.25 0-.46-.074-.61-.223-.16-.149-.24-.349-.24-.6 0-.604.55-1.237 1.65-1.899 1.1-.663 2.12-.994 3.06-.994.84 0 1.53.251 2.05.752.53.502.79 1.177.79 2.023v.142l-.17 5.316v.082c0 .823.26 1.235.8 1.235.25 0 .56-.157.9-.471l.08-.023c.07 0 .13.041.18.124.05.082.08.17.08.264 0 .228-.23.506-.71.835-.47.329-.99.494-1.54.494m-1.81-5.305c-2.28.519-3.42 1.377-3.42 2.572 0 1.116.43 1.674 1.29 1.674.42 0 .82-.104 1.23-.312.4-.208.67-.466.81-.773z"/><path d="m119.53 56.763c0 .956-.38 1.76-1.13 2.411-.75.65-1.66.976-2.72.976-.38 0-.96-.083-1.74-.247-.59-.118-.99-.176-1.2-.176-.06-.549-.21-1.384-.43-2.506 0-.117.11-.176.34-.176.19 0 .3.063.34.188.18.58.53 1.086 1.07 1.517.53.432 1.08.647 1.64.647.59 0 1.05-.161 1.37-.482.33-.322.49-.772.49-1.353 0-.368-.13-.694-.4-.976s-.86-.631-1.76-1.047c-1.19-.541-1.97-1.05-2.35-1.529-.38-.478-.57-1.05-.57-1.717 0-.823.36-1.53 1.07-2.123.72-.591 1.56-.888 2.53-.888.41 0 .98.071 1.72.212.41.079.67.118.8.118.02.925.07 1.713.15 2.364 0 .117-.11.176-.34.176-.2 0-.31-.063-.33-.188-.09-.572-.3-1.037-.64-1.394-.35-.356-.76-.535-1.24-.535-1.21 0-1.82.534-1.82 1.6 0 .36.14.694.43.999.29.306.92.702 1.88 1.188 1.16.581 1.92 1.082 2.29 1.506.36.423.55.902.55 1.435"/><path d="m128.28 56.763c0 .956-.38 1.76-1.13 2.411-.75.65-1.66.976-2.72.976-.38 0-.96-.083-1.74-.247-.59-.118-.99-.176-1.2-.176-.06-.549-.21-1.384-.43-2.506 0-.117.11-.176.34-.176.19 0 .3.063.34.188.18.58.54 1.086 1.07 1.517.53.432 1.08.647 1.64.647.59 0 1.05-.161 1.37-.482.33-.322.49-.772.49-1.353 0-.368-.13-.694-.4-.976s-.86-.631-1.76-1.047c-1.19-.541-1.97-1.05-2.35-1.529-.38-.478-.57-1.05-.57-1.717 0-.823.36-1.53 1.07-2.123.72-.591 1.56-.888 2.53-.888.41 0 .98.071 1.72.212.41.079.67.118.8.118.02.925.07 1.713.15 2.364 0 .117-.11.176-.34.176-.2 0-.31-.063-.33-.188-.09-.572-.3-1.037-.64-1.394-.35-.356-.76-.535-1.24-.535-1.21 0-1.82.534-1.82 1.6 0 .36.14.694.43.999.29.306.92.702 1.88 1.188 1.16.581 1.92 1.082 2.29 1.506.36.423.55.902.55 1.435"/><path d="m135.05 59.47c0 .219-.06.329-.19.329-.32 0-.73-.023-1.23-.07-.56-.047-1.04-.071-1.42-.071-.39 0-.86.024-1.4.071-.5.047-.91.07-1.23.07-.12 0-.19-.11-.19-.329 0-.196.07-.302.19-.318.67-.086 1.1-.246 1.29-.481s.29-.736.29-1.504v-4.345c0-.626-.08-1.037-.24-1.233s-.51-.325-1.05-.387c-.13 0-.19-.104-.19-.312 0-.192.06-.288.18-.288.83-.212 1.5-.437 2.02-.677.52-.239.85-.437.99-.593.07-.095.16-.142.25-.142.22 0 .33.063.33.188-.12 1.757-.19 3.121-.19 4.093v3.693c0 .769.1 1.271.29 1.506s.63.396 1.31.482c.13.016.19.122.19.318m-1.65-14.22c0 .33-.11.616-.35.859s-.53.364-.87.364-.62-.121-.86-.364-.36-.529-.36-.859c0-.345.12-.635.35-.87.24-.235.53-.353.87-.353s.63.118.87.353.35.525.35.87"/><path d="m145.28 53.12c0 .219-.14.329-.42.329h-6.44c-.05.423-.08.862-.08 1.317 0 1.263.3 2.233.9 2.911s1.46 1.018 2.56 1.018c.56 0 1.12-.149 1.68-.447.57-.298 1.02-.678 1.37-1.141l.06-.024c.07 0 .14.043.2.13.07.086.1.188.1.305 0 .165-.25.508-.75 1.03-.5.521-1.05.919-1.63 1.193-.59.275-1.21.412-1.85.412-1.41 0-2.6-.518-3.56-1.553-.97-1.034-1.45-2.305-1.45-3.81 0-1.537.47-2.838 1.42-3.905.94-1.066 2.14-1.599 3.59-1.599 1.21 0 2.24.398 3.06 1.193.83.796 1.24 1.676 1.24 2.641m-2.14-1.035c0-.588-.2-1.076-.6-1.465-.41-.388-.93-.582-1.56-.582-.6 0-1.13.253-1.57.759-.44.505-.74 1.17-.9 1.993l3.27-.094c.49-.008.84-.055 1.05-.141s.31-.243.31-.47"/><path d="m158.75 59.47c0 .219-.06.329-.19.329-.31 0-.72-.023-1.21-.07-.54-.047-1-.071-1.39-.071-.38 0-.86.024-1.44.071-.54.047-.97.07-1.29.07-.12 0-.18-.11-.18-.329 0-.196.06-.302.18-.318.21-.023.35-.063.44-.117.09-.055.13-.161.13-.318 0-.235-.38-.753-1.13-1.552l-1.88-2.094c-.16-.157-.37-.235-.64-.235v2.329c0 .69.09 1.18.26 1.47.16.29.48.462.94.517.13.016.19.122.19.318 0 .219-.06.329-.19.329-.34 0-.77-.023-1.31-.07-.52-.047-.92-.071-1.22-.071-.34 0-.74.024-1.22.071-.45.047-.83.07-1.13.07-.12 0-.19-.11-.19-.329 0-.196.07-.302.19-.318.66-.07 1.09-.225 1.28-.464.2-.239.3-.746.3-1.522v-10.917c0-.635-.08-1.05-.23-1.246s-.51-.325-1.07-.388c-.12-.016-.18-.116-.18-.299 0-.208.06-.312.18-.312 1.34-.314 2.33-.73 2.97-1.247.12-.094.21-.141.29-.141.22 0 .33.063.33.188-.12 1.288-.19 2.653-.19 4.097v7.288c.28 0 .51-.075.67-.224l1.76-1.663c.05-.055.14-.137.27-.247.65-.594.97-1.034.97-1.319 0-.206-.31-.349-.94-.428-.12-.016-.19-.123-.19-.324 0-.215.07-.323.19-.323.33 0 .75.024 1.25.071.46.047.84.07 1.15.07.23 0 .52-.019.88-.059.44-.055.83-.082 1.18-.082.12 0 .19.108.19.323 0 .201-.07.308-.19.324-.57.063-1.07.198-1.5.404s-1.01.634-1.74 1.283l-2.02 1.793 3.08 3.376c.65.714 1.2 1.204 1.65 1.471.45.266 1.03.439 1.75.517.13.016.19.122.19.318"/></g></svg>