<svg xmlns="http://www.w3.org/2000/svg" height="115.06" width="600" viewBox="0 0 158.75 30.442679" xmlns:xlink="http://www.w3.org/1999/xlink"><defs><linearGradient id="9" gradientUnits="userSpaceOnUse" x1="106.92" x2="115.99" xlink:href="#5"/><linearGradient id="6" gradientUnits="userSpaceOnUse" x1="86.26" x2="95.15" xlink:href="#5"/><linearGradient id="8" gradientUnits="userSpaceOnUse" x1="97.48" x2="104.99" xlink:href="#5"/><linearGradient id="7" gradientUnits="userSpaceOnUse" x1="118.08" x2="126.24" xlink:href="#5"/><linearGradient id="5" gradientUnits="userSpaceOnUse" x1="128.38" x2="136.22"><stop stop-color="#ffce00"/><stop stop-color="#a4771a" offset="1"/></linearGradient><linearGradient id="0" gradientUnits="userSpaceOnUse" x2="0" y1="46.806" y2="35.603" xlink:href="#3"/><linearGradient id="4" gradientUnits="userSpaceOnUse" x1="75.14" x2="84.22" xlink:href="#5"/><linearGradient id="1" gradientUnits="userSpaceOnUse" x2="0" y1="52.31" y2="28.977"><stop stop-color="#ffde00"/><stop stop-color="#a4771a" offset=".182"/><stop stop-color="#ffce00" offset="1"/></linearGradient><linearGradient id="3" gradientUnits="userSpaceOnUse" x2="0" y1="45.7" y2="35.622"><stop stop-color="#b2b2b2"/><stop stop-color="#fff" offset="1"/></linearGradient><linearGradient id="2" gradientUnits="userSpaceOnUse" x2="0" y1="36.708" y2="46.786" xlink:href="#5"/></defs><g transform="translate(-12.323-28.977)"><g fill="url(#3)"><path d="m12.323 35.605v11.202h8.906c1.097 0 1.927-.184 2.471-.535.544-.369.82-.912.82-1.659v-1.429c0-.6-.175-1.088-.525-1.466-.351-.378-.839-.599-1.494-.682.627-.083 1.106-.286 1.438-.609.332-.313.498-.747.498-1.281v-1.374c0-.756-.203-1.3-.599-1.65-.397-.351-1.033-.517-1.918-.517h-9.597m2.563 1.817h5.937c.461 0 .765.064.94.193.176.12.268.332.268.618v1.06c0 .295-.092.507-.268.627-.175.12-.479.175-.94.175h-5.937v-2.673m0 4.517h5.937c.507 0 .83.074 1 .221.175.139.258.397.258.775v.848c0 .378-.083.636-.258.784-.175.147-.498.221-1 .221h-5.937v-2.849"/><path d="m28.475 35.605v11.202h2.563v-4.232h2.471l4.508 4.232h3.744l-5.173-4.232h1.466c.885 0 1.531-.175 1.936-.525.397-.332.59-.895.59-1.651v-2.627c0-.756-.193-1.309-.59-1.65-.405-.351-1.051-.517-1.936-.517h-9.579m2.563 1.936h5.864c.442 0 .765.065.931.194.166.138.249.36.249.682v1.356c0 .331-.083.562-.249.691s-.489.194-.931.194h-5.864v-3.117"/></g><path fill="url(#0)" d="m47.12 35.605c-.894 0-1.549.166-1.936.517h-.009c-.157.138-.277.322-.369.525-.148.314-.231.673-.231 1.134v9.03h2.563v-4.232h6.989v4.232h2.563v-9.03c0-.295-.028-.553-.102-.784-.083-.368-.249-.673-.488-.875-.406-.351-1.051-.517-1.936-.517h-7.04m-.028 2.821c0-.331.083-.553.249-.691.157-.12.452-.184.876-.184h4.794c.443 0 .756.055.922.184.166.138.249.36.249.691v2.232h-7.09v-2.232"/><g fill="url(#2)"><path d="m61.43 35.605v2h7.05l-7.828 7.984v1.217h12.03v-2.111h-7.957l7.957-7.975v-1.116h-11.257"/><path d="m77.41 35.605v2h7.05l-7.836 7.984v1.217h12.03v-2.111h-7.947l7.947-7.975v-1.116h-11.248"/></g><g fill="url(#3)"><path d="m92.61 35.605v11.202h11.575v-2.111h-8.966v-2.775h5.176v-1.909h-5.176v-2.507h8.856v-1.9h-11.465"/><path d="m108.14 35.605v11.202h2.56v-4.232h2.47l4.52 4.232h3.75l-5.19-4.232h1.48c.88 0 1.53-.175 1.93-.525.4-.332.6-.895.6-1.651v-2.627c0-.756-.2-1.309-.6-1.65-.4-.351-1.05-.517-1.93-.517h-9.59m2.56 1.936h5.87c.45 0 .76.065.93.194.16.138.24.36.24.682v1.356c0 .331-.08.562-.24.691-.17.129-.48.194-.93.194h-5.87v-3.117"/><path d="m126.99 35.605c-1.08 0-1.82.185-2.2.553-.39.388-.58 1.07-.58 2.093v1.236c0 1.023.19 1.724.58 2.093.38.378 1.12.562 2.2.562h6.99v2.554h-7.92v-.996h-2.29v.452c0 1.023.19 1.715.57 2.093.38.368 1.12.562 2.22.562h6.92c1.1 0 1.84-.194 2.22-.562.38-.378.58-1.07.58-2.093v-1.531c0-1.014-.2-1.714-.58-2.083-.38-.387-1.12-.572-2.22-.572h-6.98v-2.397h7.34v.987h2.29v-.498c0-.913-.2-1.558-.6-1.909-.39-.369-1.12-.544-2.18-.544h-6.36"/></g><path fill="url(#1)" d="m142.89 30.424c-1.6 1.881-1.63 9.837-1.63 10.206v.028c0 .368.03 8.334 1.63 10.215 0 0 4.53 1.447 13.27 1.447 8.75 0 13.27-1.447 13.27-1.447 1.64-1.927 1.64-10.234 1.64-10.234s0-8.297-1.64-10.215c0 0-4.52-1.447-13.27-1.447-8.74 0-13.27 1.447-13.27 1.447m21.67 4.361h2.97l-4.34 12.02h-3.22l-3.03-8.08c-.18-.47-.73-.848-1.23-.848h-2.66c-.5 0-.91.405-.91.912v8.01h-3.34v-8.01c0-.507-.42-.912-.91-.912h-3.09v-3.098h13.93s2.82 8.15 2.87 8.15c.09-.056 2.96-8.15 2.96-8.15"/><path fill="url(#4)" d="m75.14 49.12v8.27h9.08v-1.955h-6.693v-1.613h6.177v-1.567h-6.177v-1.41h6.592v-1.715h-8.98"/><path fill="url(#6)" d="m92.68 51.43v3.052c0 1.355-1.3 1.309-2.047 1.309-1.512 0-2.02-.065-2.02-1.143v-3.218h-2.351v3.494c.018 2.01 1.032 2.563 3.632 2.563 1 0 2.48-.129 2.766-1.143.019-.111.046-.102.046 0l-.046 1.051h2.499v-5.965h-2.48"/><path fill="url(#8)" d="m99.9 52.51c-.064.166-.101.166-.101.027l.037-1.115h-2.351v5.965h2.443v-3.043c0-1.115.804-1.299 1.554-1.299 1 0 1.25.285 1.25 1.041h2.26v-.673c0-1.493-.78-2.092-2.6-2.092-.96 0-2.09 0-2.492 1.189"/><path fill="url(#9)" d="m106.92 54.4c0 2.535.51 3.07 4.52 3.07 4.02 0 4.56-.507 4.56-3.07 0-2.573-.58-3.089-4.56-3.089-3.97 0-4.52.535-4.52 3.089m2.41-.028c0-1.282.25-1.466 2.17-1.466 1.89 0 2.15.184 2.15 1.466 0 1.263-.26 1.438-2.15 1.438-1.92 0-2.17-.175-2.17-1.438"/><path fill="url(#7)" d="m120.23 52.39c-.05.147-.09.166-.09 0v-.968h-2.06v7.993h2.13v-2.904c0-.212.02-.175.1 0 .27.526.57.876 2.58.876 2.82 0 3.36-.544 3.36-2.747 0-2.398-.35-3.264-3.33-3.264-1.13 0-2.21.11-2.69 1.014m-.05 2.065c0-1.079.15-1.41 1.94-1.41 1.76 0 1.93.331 1.93 1.41 0 1.06-.17 1.401-1.93 1.401-1.79 0-1.94-.341-1.94-1.401"/><path fill="url(#5)" d="m128.38 54.4c0 1.991.48 3.088 3.95 3.088 3.04 0 3.88-.461 3.88-2.083h-2.12c0 .626-.39.737-1.76.737-1.52 0-1.8-.157-1.8-1.346h5.67v-.396c.04-2.361-.43-3.089-3.87-3.089-2.91 0-3.95.553-3.95 3.089m3.95-1.743c1.37 0 1.85.028 1.85.904h-3.62c0-.766.33-.904 1.77-.904"/></g></svg>