<svg xmlns="http://www.w3.org/2000/svg" viewBox="0 0 599.99674 1210.6503" width="600" height="1210.7"><defs><clipPath><path d="m25.511 38.74h246.61v243.78h-246.61v-243.78"/></clipPath></defs><path d="m600 451.67v-420.88c0-16.914-13.85-30.786-30.79-30.786h-538.16c-16.913 0-30.787 13.873-30.787 30.786v420.89c0 16.943 13.873 30.786 30.787 30.786h538.16c16.943 0 30.786-13.844 30.786-30.786" fill="#00397d"/><g fill="#fff"><path d="m261.73 234.13c23.938-14.168 39.29-34.948 39.29-65.971 0-33.21-19.659-77.04-102.16-77.04-39.907 0-84.24 1.505-84.24 1.505v307.19h70.34c89.53 0 136.84-33 136.84-95.4 0-37.19-23.348-61.75-60.07-70.28m-62.34 122.85h-34.889v-226.31c.472 0 15.644-.177 25.09-.177 38.963 0 60.54 20.13 61.19 47.759.354 16.795-4.634 32.912-21.725 44.748-13.962 9.682-33.473 12.574-33.473 12.574v7.261s27.01 4.04 40.704 10.449c25.503 11.925 33.09 30.403 33.3 54.34.295 37.841-36.28 49.35-70.19 49.35"/><path d="m444.44 399.72s-75.42-111.01-88.37-128.19c-15.08-19.954-30.17-27.16-30.17-27.16v-6.494s25.21-1.86 46.05-10.361c25.739-10.479 34.21-28.956 34.27-46.785.059-13.08-5.667-27.481-16.323-35.834-10.656-8.383-20.898-12.781-44.542-14.05-8.353-.443-16.825 0-22.433.177-5.402-15.231-16.589-28.396-27.01-36.37v-2.125s36.897-1.299 48.999-1.033c58.739 1.446 76.951 14.11 89.53 24.824 19.07 16.264 24.322 41.472 24.322 51.862 0 41.44-25 69.4-60.01 81.5 7.35 9.741 108 150.04 108 150.04h-62.31z"/></g><path d="m599.7 1179.9c0 16.943-13.844 30.786-30.816 30.786h-538.09c-16.943 0-30.787-13.844-30.787-30.786v-616.56c0-16.913 13.844-30.787 30.787-30.787h538.1c16.972 0 30.816 13.873 30.816 30.787v616.53z" fill="#00397d"/><path fill="#fff" d="m553.66 1122.6c-10.508-6.671-16.264-16.264-20.337-27.54-6.996-19.629-5.903-40.2-7.143-60.51-.384-5.785.059-17.858.413-22.876 0 0 1.24-.089 4.811-.561 3.276-.443 6.582-1 9.8-1.801 10.626-2.597 23.968-7.97 31.79-13.873 4.605-3.483 5.52-8.56 4.988-13.814-1.092-9.77-6.553-13.607-16.294-11.571-8.09 1.741-16.17 3.572-24.23 5.461-2.214.502-6.317.767-6.317.767s10.42-94.6 12.01-105.73c1.24-8.796-5.667-14.818-11.246-19.57-9.15-7.793-18.921-4.428-21.695 6.996-4.487 18.655-7.202 41.44-8.678 54.05-1.564 13.05-5.667 66.886-5.667 66.886s-7.704 1.033-24.765.029c-5.136.029-7.586 2.214-8.324 7.143-1.564 10.272 1.594 15.969 11.01 21.43 4.929 2.834 17.06 4.162 19.275 4.546.295 9.888-2.066 37.1-6.14 57.03-4.9 26.831-13.02 47.08-29.871 60.16-6.76 5.225-13.312 5.579-19.57-6.346-2.125-3.985-3.808-9.682-4.634-14.11-.649-3.395-1.505-12.958-1.181-24.26.886-26.654 1.86-45.752 2.627-69.13.354-10.538 2.568-23.584 2.598-23.732 1.86-8.206-5.05-16.795-9.387-20.928-3.129-3.04-9.741-3.542-15.11-2.125-2.598.708-6.7 1.86-6.7 1.86s-5.254-.767-7.556-1.328c-13.194-3.099-22.433 2.214-31.554 12.663-4.811 5.461-8.235 10.42-12.368 17.12-16.766 32.23-26.743 66.3-24.293 103.02.62 9.09 2.745 17.769 6.228 26.01-.59.502-3.099 2.509-8.206 4.752-9.711 4.339-14.582.029-16.707-7.261-3.778-13.08-4.01-28.25-4.398-42.918-.325-11.925-1.505-32.971-1.948-53.46-.295-14.198-3.985-34.712-13.46-43.508-13.253-12.25-29.871-9.947-41.12 4.959-15.26 20.249-25.857 43.508-35.657 67.27-3.276 7.32-13.489 32.764-14.05 32.587-.502.384-5.756-36.572-7.881-48.23-3.424-18.714-6.671-36.454-19.19-48.47-13.283-12.751-31.26-12.84-42.27 2.096-3.394 4.575-6.376 9.446-8.56 14.936-5.195 13.05-9.475 26.418-13.607 39.907-1.063 3.483-4.782 18.33-5.313 18.01-.59.029-3.335-35.539-4.01-43.27-1.623-19.19-6.996-25.975-26.03-26.566-6.02-.177-9.386 3.217-10.242 8.885-.649 4.339-.236 9.416.325 13.755 1.269 9.8 10.04 95.28 15.674 127.93.797 4.575 1.476 7.911 3.955 10.862 7.379 8.944 23.968 8.531 24.293 8.472 5.106-.945 7.97-6.287 9.505-12.958 1.387-5.963 3.01-13.578 4.339-19.275 6.818-29.517 22.17-80.7 27.658-97.38 1.063-3.188 3.306-9.268 4.634-9.387 2.01-.148 3.365 7.438 3.837 10.213 1.535 9.623 10.833 76.69 15.939 101.36 2.184 10.567 9.09 21.05 18.921 23.14 8.767 1.889 13.283-1.122 19.393-12.929 14.788-28.661 25.857-59.27 37.9-89.35 10.213-27.658 19.718-47.818 21.577-47.29 2.332.059 3.188 20.721 3.335 22.964.561 7.881.767 15.792.797 23.702.029 7.675.915 28.75.915 28.75 1 19.511 2.952 42.564 11.925 55.935 16.06 23.909 43.24 20.544 61.25 5.697.118-.118.561-.531 1.122-1.063 6.641 6.671 14.759 11.276 21.99 11.689 10.538.649 17.15-.945 24.676-5.402 7.261-4.251 12.07-11.04 17.504-17.386 3.099 4.191 7.409 11.276 15.821 16.15 13.873 7.409 30.964 9.623 50.888-8.147 2.834-2.538 6.937-7.202 9.121-10.302 6.405-9 18.04-27.746 18.33-27.776.207-.029 2.745 5.638 3.749 7.852 17.622 38.4 57.14 50.3 86.87 31.14v-44.542c-15.703 21.961-36.838 24.352-46.08 18.507m-150.46-114.2c-.148 8.206-.443 12.604-.945 25.473-.443 12.161-1.24 25.18-1.623 35.15-.708 17.888-3.631 32.23-11.01 48.11-2.804 6.02-6.966 11.187-12.929 14.759-3.542 2.125-5.785 1.594-8.531-1.417-6.966-7.704-7.379-17.268-8.117-26.772-.177-2.066-.029-4.162-.029-6.258.679-15.792 3.631-31.17 8.294-46.34 3.276-10.656 6.612-19.04 11.276-29.1 3.188-6.937 8.147-14.7 13.312-19.452 1.535-1.417 4.693-5.165 8.206-4.221 3.867 1.033 2.155 7.32 2.096 10.07m-340.2-463.09c.62 9.18 2.096 24.913 1.742 37.575-.738 28.632-.472 158.98-.472 195.58 0 .708.236 7.527-.118 7.615 0 0-19.747-6.789-21.843-7.556-9.298-3.572-20.869-5.608-26.329 4.988-3.69 7.232.797 14.11 8.06 19.04 7.645 4.723 17.563 8.471 28.425 11.453 3.306.915 10.09 3.158 10.744 3.955.59.767 1.033 6.081 1.122 10.774.531 33.797 1.328 67.6-.915 101.36-.679 9.8 9.977 17.592 24.06 18.12 10.951.354 14.286-5.402 14.463-17.238.413-25.503-2.096-107.38-1.033-108.8 0-.177 13.844 2.125 26.477 3.69 11.571 1.594 19.304 2.273 26.654 2.804 0 0 1.948 67.71 1.919 76.12.384 6.346.62 13.785 4.457 15.821 9.239 4.959 18.714 6.14 27.628 3.926 6.199-2.361 4.723-8.235 4.428-13.578-1.24-24.26-1.83-58.24-3.158-82.47 0 0 13.342-1.387 28.25-2.45.354-.029.767 5.962 2.155 11.63 3.572 14.906 9.18 32.941 16.353 44.1 32.23 46.755 85.13 53.25 121.32-.148 4.191 11.423 11.158 18.07 19.54 23.909 5.962 4.162 13.607 6.7 17.622 3.07 4.693-4.103 5.166-11.659 1.269-18.921-17.74-32.735-18.15-67.919-13.962-103.78 1.978-17.03 7.03-33.827 4.841-51.27-.797-6.435-14.847-19.216-21.252-17.917-7.645 1.564-12.633 6.73-13.342 15.02-2.332 26.861-3.896 53.633-6.907 80.46-2.361 20.869-7.586 42.45-21.636 59.45-13.519 16.353-34.978 18.921-49.06 6.523-11.305-9.977-17.799-23.673-20.78-37.93-2.037-9.8-2.716-19.13-2.657-19.983.177-.177 19.304-7.379 27.13-10.892 40.586-20.337 54.19-39.2 45.04-76.66-4.103-16.943-12.309-31.849-31.524-35.893-17.15-3.601-29.37 4.04-40.586 16.854-17.563 20.13-24.09 44.13-30.05 64.67-1.417 5.608-3.513 14.552-3.513 14.552-7.911 2.804-25.621 4.546-26.831 4.546-.207 0-.561-3.513-.59-5.874-.177-21.577-.413-41.472 2.332-66.916 3.158-29.19 5.726-55.49 10.01-84.57 1.122-7.674-.945-10.685-8.06-15.91-8.06-4.929-15.05-11.482-24.499-3.749-2.479 1.978-4.575 3.158-5.05 7.763-2.302 23.909-4.28 48.851-5.815 70.4-2.834 27.481-2.775 63.4-5.107 94.49-.207 2.716-.266 4.28-.413 4.369 0 0-15.969.886-47.02-4.01-3.276-.384-5.461-1.063-5.785-1.24-.472-.236-.325-6.907-.413-9.268-1.86-33 .708-78.37.236-130.55-.443-47.67-.767-87.81-1.86-107.68-.177-3.66.207-8.117-.62-12.13h-34.598c-.767 3.808-.797 8.09-.472 12.751m200.24 205.89c4.073-7.173 7.379-13.02 13.696-18.33 3.985-3.365 9.15-4.546 12.191-3.778 3.778.915 5.225 5.874 5.962 9.268 3.188 14.493-2.981 24.411-17.533 34.21-8.855 6.228-24.293 13.755-25.444 12.811-.886-.472 4.457-22.463 11.128-34.18m130.87-120.82c.325 7.615-3.778 10.626-10.272 10.951-13.312.62-27.1-9.947-27.481-21.843.295-6.789 0-16.884 13.283-16.471 11.895.325 23.938 13.726 24.47 27.362"/></svg>