<svg xmlns="http://www.w3.org/2000/svg" height="140.65" width="600" viewBox="0 0 158.75 37.214118"><g transform="translate(-30.24-95.45)"><path d="m34.396 107.99v-3.75h1.212c1.737 0 2.708.71 2.708 2.01 0 1.11-.883 1.8-2.325 1.8h-.383c-.278 0-.549 0-.795-.03-.085-.001-.245-.001-.417-.03m0-9.616c.386-.042.869-.068 1.072-.068 1.425 0 2.254.677 2.254 1.864 0 .76-.777 1.66-1.414 1.66h-1.912zm4.798 11.916c2.043-.59 3.183-2.01 3.183-3.9 0-1.82-1.015-3.16-2.849-3.67 1.463-.77 2.077-1.69 2.077-3.088 0-2.583-2.174-3.998-6.137-3.998-1.532 0-2.581.063-4.895.343v14.373c2.129.31 3.212.37 4.926.37 1.426 0 2.817-.14 3.695-.43"/><path d="m58.3 102.79h-1.968v-4.059c.677-.049.777-.049 1.182-.049 1.518 0 2.446.783 2.446 2.048 0 1.08-.794 2.06-1.66 2.06m7.109 7.76l-3.963-6.31c1.615-.84 2.395-2.08 2.395-3.8 0-3.178-2.358-4.807-6.912-4.807-.877 0-2.398.063-3.646.175-.2.031-.529.077-.937.105v14.637h3.986v-5.06h1.637l2.84 5.06z"/><path d="m74.875 110.55h3.981v-14.713h-3.981z"/><path d="m88.68 99.12h4.2v11.431h3.992v-11.431h4.194v-3.28h-12.386z"/><path d="m114.86 95.84h-3.97v14.703h3.97z"/><path d="m131.24 101.44c-1.32-.68-1.65-1.02-1.61-1.716.05-.674.68-1.166 1.45-1.166.96 0 1.81.329 3.18 1.229l.87-3.02c-1.97-1.035-3.06-1.315-4.87-1.315-1.01 0-2.26.355-3.09.826-1.28.803-2.02 2.095-2.02 3.56 0 1.802.78 3 2.63 4 .26.12.82.42 1.59.84 1.13.58 1.52.99 1.52 1.62 0 .95-.76 1.53-1.84 1.44-1.33-.1-2.65-.74-4.04-1.95l-.41 3.53c1.79 1.1 3.48 1.61 5.32 1.61 3.3 0 5.62-1.93 5.62-4.67 0-1.17-.52-2.33-1.35-3.05-.59-.49-1.51-1.03-2.95-1.77"/><path d="m149.52 104.57h5.45v5.98h3.98v-14.712h-3.98v5.622h-5.45v-5.622h-4.01v14.712h4.01z"/><path d="m43.35 117.71l-3.874 8.98-3.872-8.98h-3.174l-2.195 14.57h3.309l.986-7.75 3.369 7.75h2.497l3.377-7.81.955 7.81h3.937l-2.166-14.57z"/><path d="m68.849 126.24c0 .99-.137 1.66-.391 2.08-.412.69-1.203 1.1-2.203 1.1-.88 0-1.566-.24-2.06-.65-.572-.52-.783-1.19-.783-2.53v-8.53h-3.964v8.53c0 1.88.275 3.16.823 4.07.983 1.52 3 2.36 5.769 2.36 2.01 0 3.964-.57 5.03-1.49 1.223-1.02 1.735-2.41 1.735-4.75v-8.72h-3.952z"/><path d="m90.17 123.27c-1.309-.67-1.64-1.03-1.614-1.72.063-.66.688-1.15 1.457-1.15.926 0 1.772.33 3.132 1.21l.874-3c-1.963-1.03-3.03-1.3-4.832-1.3-.994 0-2.24.36-3.054.84-1.272.76-2 2.07-2 3.51 0 1.8.765 2.98 2.6 3.98.257.13.82.42 1.577.81 1.123.6 1.512 1 1.512 1.63 0 .93-.758 1.52-1.826 1.42-1.335-.1-2.635-.73-3.998-1.92l-.425 3.48c1.774 1.11 3.443 1.61 5.288 1.61 3.269 0 5.547-1.9 5.547-4.64 0-1.14-.5-2.31-1.335-3.02-.571-.48-1.471-1-2.903-1.74"/><path d="m109.39 117.71h-3.95v14.57h9.56l.41-3.32h-6.02z"/><path d="m126.16 132.28h3.97v-14.57h-3.97z"/><path d="m154.03 117.71l-3.88 8.98-3.86-8.98h-3.18l-2.2 14.57h3.32l.96-7.75 3.4 7.75h2.49l3.39-7.81.94 7.81h3.94l-2.17-14.57z"/><path d="m556.3 27.385c-24.1 0-43.62 19.526-43.62 43.576 0 24.2 19.52 43.739 43.62 43.739 24.15 0 43.7-19.538 43.7-43.739 0-24.05-19.55-43.576-43.7-43.576m20.55 28.521l7.57 1.264-12.33 29.01h-6.23l-9.83-23.09h-11.19v23.09h-8.09v-23.13h-8.47v-2.387-4.211h24.99 8.76l7.24 17.926 7.58-18.467" transform="matrix(.26458 0 0 .26458 30.24 95.45)"/></g></svg>