<svg xmlns="http://www.w3.org/2000/svg" viewBox="0 0 499.54 499.54"><g transform="matrix(25.90581 0 0 25.90581-4501.98-6094.17)"><path fill="#fff" stroke="#000" stroke-width=".285" d="m173.93 254.38v-18.99h18.99v18.99z"/><path fill="#c90119" d="m180.12 251.67v.52h-1.37v-2.38h.59v1.86z"/></g><g fill="#c90119"><path d="m215.6 439.14l-3.821-10.811h-23.906l-3.94 10.811h-15.471l22.976-61.881h18.19l22.857 61.881h-16.888m-12.86-36.527c-1.078-2.852-2.285-6.425-2.979-9.168h-.127c-.705 2.743-1.663 5.958-2.733 8.829l-5.464 14.979h16.642l-5.339-14.639"/><path d="m253.45 440.46c-3.922 0-8.702-.596-12.13-1.446l.575-13.562c3.575 1.443 8.225 2.275 13.1 2.275 5.116 0 9.404-2.383 9.404-7.03 0-9.406-24.895-4.161-24.895-24.393 0-12.147 9.186-20.235 26.2-20.235 3.344 0 7.86.466 11.316.951l-.477 12.849c-3.344-.951-7.86-1.544-11.424-1.544-6.541 0-9.274 2.495-9.274 6.305 0 8.811 25.351 5.119 25.351 24.15 0 12.987-10.481 21.678-27.745 21.678"/><path d="m306.09 440.46c-3.938 0-8.681-.596-12.137-1.446l.593-13.562c3.565 1.443 8.217 2.275 13.09 2.275 5.127 0 9.404-2.383 9.404-7.03 0-9.406-24.875-4.161-24.875-24.393 0-12.147 9.165-20.235 26.18-20.235 3.334 0 7.86.466 11.305.951l-.459 12.849c-3.344-.951-7.868-1.544-11.443-1.544-6.541 0-9.292 2.495-9.292 6.305 0 8.811 25.359 5.119 25.359 24.15 0 12.987-10.463 21.678-27.727 21.678"/><g transform="matrix(25.90581 0 0 25.90581-4501.98-6094.17)"><path d="m187.24 249.81h.6v2.38h-.6z"/><path d="m188.58 249.81h.59v1.02l.79-1.02h.73l-.92 1.15.97 1.23h-.78l-.79-1.08v1.08h-.59z"/><path d="m176.12 249.81h.59v1.02l.79-1.02h.72l-.91 1.15.97 1.23h-.78l-.79-1.08v1.08h-.59z"/></g></g><path d="m191.59 332.98h-19.01v-123.48c.246 0 8.536-.256 13.691-.101 22.883.712 32.442 9.862 32.771 24.95.202 9.158-1.562 18.06-10.51 25.21-7.502 5.958-18.999 7.191-18.999 7.191v3.977c0 0 14.87 1.909 22.2 5.673 13.792 7.083 18.16 16.598 18.16 29.649 0 19.849-19.795 26.932-38.3 26.932m34.02-67.03c13.06-7.73 21.09-19.629 21.09-36.563 0-21.341-13.562-40.872-58.55-40.872-21.779 0-42.809.238-42.809.238v167.58h38.4c48.82 0 74.61-18 74.61-52.06 0-20.261-12.712-33.678-32.745-38.33"/><path d="m300.78 274.33c21.266-7.401 33.36-23.22 33.595-44.44.083-5.694-2.202-19.05-12.593-27.911-6.873-5.86-18.297-12.987-50.32-13.774-6.634-.163-26.26.578-26.26.578 0 0-.008 1.104.065 1.179 5.702 4.414 11.735 11.497 14.66 19.813 3.07-.109 7.694-.365 12.264-.109 12.867.676 19.227 2.831 25.03 7.401 5.811 4.58 8.855 12.43 8.909 19.559.083 10.546-4.971 20.616-19.02 26.346-11.378 4.624-25.553 5.083-25.553 5.083v3.536c0 0 8.235 3.93 16.461 14.805 7.09 9.375 48.21 69.912 48.21 69.912h33.996c0 0-55.43-76.64-59.45-81.976"/></svg>