<svg xmlns="http://www.w3.org/2000/svg" viewBox="0 0 425.5 329.82"><g fill="#fff"><path d="m306.84 91.91c-16.778.195-32.34 2.604-44.594 7.344-33.382 12.911-62.834 37.877-84.28 66.53-20.17 26.954-37.946 56.6-37.688 93.72.202 29.05 12.775 58.07 27.719 82.59 22.1 36.27 44.48 55.5 75.41 63.781 31.602 8.468 82.61 8.2 121.97-3.906 46.43-14.282 69.802-36.859 87.62-79.84 12.558-30.29 13.711-85.66 5.531-116.44-9.455-35.577-24.33-74.71-59.31-93.12-25.365-13.355-58.903-20.481-89-20.656-1.129-.007-2.257-.013-3.375 0m-239.28 26.19c-8.167 0-17.12.275-19.313.344v72.28h16.03c21.06 0 32.19-7.753 32.19-22.438 0-8.742-5.483-14.525-14.12-16.531 5.63-3.332 9.25-8.233 9.25-15.531 0-7.804-4.631-18.12-24.03-18.12m31.344.125c-3.648.058-8.531.25-8.531.25v.5c2.453 1.873 5.075 4.952 6.344 8.531 1.32-.043 3.339-.137 5.313-.031 5.548.296 7.969 1.347 10.469 3.312 2.514 1.974 3.86 5.361 3.844 8.438-.016 4.197-2 8.531-8.06 11-4.903 1.999-10.844 2.438-10.844 2.438v1.531c0 0 3.546 1.683 7.094 6.375 3.057 4.04 20.813 30.16 20.813 30.16h14.656c0 0-23.703-32.976-25.438-35.28 8.236-2.848 14.12-9.434 14.12-19.19 0-2.443-1.228-8.362-5.719-12.188-2.959-2.522-7.248-5.51-21.06-5.844-.714-.017-1.784-.019-3 0m-33.531 9.156c9.164 0 14.264 4.715 14.406 11.219.088 3.948-1.098 7.745-5.125 10.531-3.287 2.279-7.875 2.969-7.875 2.969v1.719c0 0 6.37.93 9.594 2.438 6 2.802 7.771 7.151 7.813 12.781.067 8.903-8.519 11.625-16.5 11.625h-8.219v-53.25c.115 0 3.684-.031 5.906-.031m282.75 63.66c2.379.017 4.7.139 7.156.125 1.955-.011 3.537 2.156 3.531 3.594-.107 28.24.13 54.74.281 88.31.011 2.385-3.277 3.332-6.469 3.719-3.257.395-5.997.481-9.844.156-1.629-.137-3.744-2.522-3.719-4.156.401-25.658.229-58.28-.156-86.22-.037-2.66.685-5 3.469-5.281 1.151-.116 2.261-.186 3.344-.219.812-.025 1.613-.037 2.406-.031m49.563 22.969c19.2 0 27.22 13.526 27.22 17.969 0 4.369-4.489 7.875-9.625 7.875-8 0-4.04-11-16.344-11-3.325 0-9.594 2.294-9.594 6.313 0 11.01 39.656 3.895 39.656 28.969 0 12.1-10.01 23.938-28.28 23.938-17.498 0-29.19-13.167-29.19-24.22 0-2.726 3.198-6.75 10.906-6.75 8.105 0 2.65 14.996 18.719 15.406 4.554.116 10.987-3.132 10.938-7.688-.127-11.64-38.813-4.353-38.813-30.688 0-5.426 4.495-20.12 24.406-20.12m-172.84.469c17.66 0 31.563 14.266 31.563 35.09 0 20.412-11.435 38.594-33.22 38.594-4.877 0-9.931-1.332-14.406-2.531-.759-.203-1.66.487-1.688 1.656l-.563 25.406c-.043 1.847-1.75 2.531-2.969 2.531-4.15 0-8.288-.188-12.438-.188-2.596 0-3.219-1.872-3.219-4.313 0-30.03-.5-62.952-.5-90.09 0-2.462 1.89-3.813 3.906-3.813 3.636 0 7.27-.781 10.906-.781 2.342 0 2.757 2.207 2.875 4.563.064 1.283 2.167 1.416 2.688.531 3.095-5.26 10.959-6.656 17.06-6.656m96.47 1.625c2.786 0 3.634 2.222 3.656 4.594.206 22.352-.879 41.918-.531 62.16.071 4.127-6.791 3.813-11.781 3.813-1.186 0-4.571.285-5.625-4.313-.19-.83-1.971-.106-2.5.563-2.865 3.621-4.832 4.656-12.688 4.656-17.615 0-25.906-7.675-25.906-26.75 0-13.33.188-27.27.188-40 0-3.285 1.507-4.563 3.406-4.563 4.241 0 10.07-.072 12.563.344 2.488.416 2.806 1.659 2.813 3.03.063 13.288-.188 28.719-.188 40.41 0 8.243 5.303 9.194 9.781 9.219 7.659.042 11.943-2.674 11.906-11.156-.052-12.08-.344-25.01-.344-38.25 0-1.921 1.05-3.186 3.03-3.344 3.973-.315 8.24-.406 12.219-.406m-99.47 17.781c-8.757 0-15.469 6.63-15.469 21.22 0 9 3.472 13.438 17.75 13.438 7.163 0 12.875-3.689 12.875-18.375 0-4.353.83-16.281-15.16-16.281" transform="translate(-43.25-86.9)" fill-rule="evenodd"/></g></svg>