<svg xmlns="http://www.w3.org/2000/svg" viewBox="0 0 1000 194.04"><defs><clipPath><path d="m532.13 805.57c.306-.792-1.683-2.304-4.464-3.384-2.763-1.08-5.256-1.314-5.571-.522-.306.792 1.692 2.304 4.464 3.384 2.763 1.08 5.265 1.314 5.571.522"/></clipPath><clipPath><path d="m455.44 807.88v-51.966h105.82v51.966h-105.82"/></clipPath><clipPath><path d="m455.44 806.45v-49.51h104.41v49.51h-104.41"/></clipPath><clipPath><path d="m557.96 786.56c-.144-1.908-.936-3.456-2.331-4.158-2.664-1.341-6.498.9-8.559 5-1.269 2.511-1.584 5.139-1.026 7.101.225-.216.459-.432.693-.657 4.401-4.077 8.811-6.876 11.223-7.29"/></clipPath><clipPath><path d="m557.96 786.56c.126 1.728-.279 3.753-1.26 5.697-2.07 4.113-5.904 6.354-8.568 5.01-1.035-.522-1.737-1.512-2.088-2.763v-.009.009c-5.319 5.103-8.541 10.197-7.245 11.592.288.306.783.414 1.431.324 9.405-1.737 16.965-8.757 19.485-17.874.207-.756.162-1.341-.162-1.692-.315-.333-.864-.423-1.593-.297"/></clipPath><clipPath><path d="m557.96 786.56c-2.412.414-6.822 3.213-11.223 7.29-.234.225-.468.441-.693.657.351 1.251 1.053 2.241 2.088 2.763 2.664 1.341 6.498-.9 8.568-5.01.981-1.944 1.386-3.969 1.26-5.697"/></clipPath><clipPath><path d="m526.55 762.8c1.881.693 5.01 1.278 8.361 1.638.09.396.171.819.243 1.26.09.54.144 1.098.18 1.665-.216-.009-.432-.018-.648-.018-6.516 0-11.781 5.274-11.781 11.781 0 4.23 2.232 7.929 5.562 10.01-2.556 3.618-5.202 5.589-6.552 6.372-2.376 1.386-6.093 2.331-8.505-2.412-1.701-3.348-2.628-7.155-2.628-11.169 0-9.909 5.769-18.477 14.15-22.509-1.719.855-2.349 1.917 1.62 3.384"/></clipPath><clipPath><path d="m535.34 767.37c6.21.333 11.133 5.472 11.133 11.763 0 6.507-5.274 11.781-11.781 11.781-2.286 0-4.41-.648-6.219-1.773 1.134-1.584 2.241-3.483 3.222-5.751 1.962-4.536 3.924-10.8 3.645-16.02"/></clipPath><clipPath><path d="m546.7 764.52c-2.835.477-7.488.378-11.781-.081-1.593-7.03-5.886-6.723-8.334-5.751-.558.225-1.071.45-1.611.702 3.249-1.593 6.921-2.448 10.791-2.448 5.274 0 10.161 1.638 14.193 4.419 1.557 1.08 1.764 2.322-3.258 3.159"/></clipPath><clipPath><path d="m0 0h697.32v558.42h-697.32v-558.42"/></clipPath><clipPath><path d="m534.91 764.44c-3.348-.36-6.48-.945-8.361-1.638-3.969-1.467-3.339-2.529-1.62-3.384.54-.261 1.089-.504 1.647-.729 2.448-.972 6.741-1.278 8.334 5.751"/></clipPath><clipPath><path d="m522.91 779.13c0-6.507 5.265-11.781 11.781-11.781.216 0 .432.009.648.018.279 5.22-1.683 11.484-3.645 16.02-.981 2.268-2.088 4.167-3.222 5.751-3.33-2.079-5.562-5.778-5.562-10.01"/></clipPath><linearGradient x1="-438.27" y1="1107.9" x2="-374.1" y2="1156.45" id="4" gradientUnits="userSpaceOnUse"><stop stop-color="#21468c"/><stop offset="1" stop-color="#1a3679"/></linearGradient><linearGradient x1="297.93" x2="315.87" id="3" gradientUnits="userSpaceOnUse"><stop stop-color="#f3a331"/><stop offset=".301" stop-color="#ec9a30"/><stop offset=".707" stop-color="#db8949"/><stop offset="1" stop-color="#d58551"/></linearGradient><linearGradient x1="-327.65" y1="1289.47" x2="-295.92" y2="1204.52" id="1" gradientUnits="userSpaceOnUse"><stop stop-color="#048745"/><stop offset="1" stop-color="#00a65e"/></linearGradient><linearGradient x1="-431.04" y1="1065.43" x2="-358.46" y2="1079.9" id="2" gradientUnits="userSpaceOnUse"><stop stop-color="#21468c"/><stop offset=".25" stop-color="#22478e"/><stop offset=".5" stop-color="#234890"/><stop offset=".75" stop-color="#254a94"/><stop offset="1" stop-color="#294e9c"/></linearGradient><linearGradient x1="18.977" y1="949.39" x2="57.1" y2="975.96" id="0" gradientUnits="userSpaceOnUse"><stop stop-color="#de993a"/><stop offset="1" stop-color="#e06e43"/></linearGradient><radialGradient cx="-349.12" cy="1025.13" r="124.92" id="5" gradientUnits="userSpaceOnUse" gradientTransform="matrix(.00521.9341-1.55025.00864 1241.9 1347.22)"><stop stop-color="#bcb7d9"/><stop offset=".25" stop-color="#afa8d1"/><stop offset=".5" stop-color="#a098c9"/><stop offset=".75" stop-color="#9089bf"/><stop offset="1" stop-color="#7a74b2"/></radialGradient></defs><g transform="matrix(4.71869 0 0 4.71869 312.09-4061.11)"><g transform="matrix(.12027 0 0 .12027-13.229 746.55)" fill="#d40000"><path d="m-172 1289.6l-238-105 30-70 235-165h67l63 26 100-17 11-9h1059.34c80.37 0 165.86 67.22 165.86 170 0 104.54-82.21 170-177 170z" fill="#000"/><g fill="#fff"><path d="m391.15 1146.86v-.582c0-8.853-1.395-16.457-4.186-22.811-2.791-6.353-6.93-11.888-12.417-16.602-5.487-4.714-12.226-8.756-20.22-12.13-7.99-3.369-17.08-6.402-27.28-9.1-8.665-2.309-15.837-4.33-21.515-6.06-5.678-1.733-10.153-3.562-13.426-5.486-3.272-1.924-5.534-4.089-6.785-6.495-1.251-2.406-1.877-5.245-1.877-8.517v-.582c0-5.01 2.165-9.193 6.495-12.562 4.33-3.369 10.827-5.05 19.493-5.05 8.659 0 17.32 1.782 25.983 5.345 6.993 2.877 14.11 6.598 21.36 11.165 3.653 2.127 5 3.811 7.414.224l18.87-27.366c1.841-2.83 1-3.819-1.091-5.34-9.544-7.114-19.911-12.666-31.1-16.654-12.42-4.427-26.04-6.64-40.863-6.64-10.393 0-19.92 1.444-28.583 4.331-8.663 2.888-16.12 7.03-22.379 12.417-6.257 5.39-11.12 11.791-14.584 19.2-3.466 7.411-5.199 15.737-5.199 24.978v.572c0 10.01 1.588 18.386 4.763 25.12 3.175 6.739 7.652 12.37 13.43 16.893 5.778 4.524 12.806 8.326 21.08 11.408 8.278 3.081 17.516 5.873 27.715 8.376 8.471 2.115 15.354 4.134 20.647 6.06 5.293 1.924 9.432 3.85 12.416 5.776 2.984 1.927 5.01 3.996 6.067 6.208 1.06 2.212 1.59 4.763 1.591 7.653v.582c0 5.963-2.551 10.629-7.653 13.998-5.102 3.369-12.274 5.05-21.515 5.05-11.55 0-22.19-2.213-31.909-6.64-8.968-4.083-17.729-9.477-26.28-16.181-1.177-.98-2.46-1.337-3.806.256l-22.348 26.77c-1.582 1.897-2.085 2.997-.11 4.651 11.557 10 24.308 17.494 38.25 22.477 14.822 5.296 29.935 7.944 45.34 7.944 10.974 0 20.985-1.397 30.03-4.19 9.05-2.793 16.843-6.837 23.388-12.13 6.544-5.293 11.645-11.838 15.303-19.634 3.657-7.796 5.485-16.699 5.486-26.71"/><path d="m570.18 1130.22v-.582c0-12.908-1.976-24.323-5.928-34.25-3.952-9.923-9.203-18.306-15.754-25.15-6.551-6.842-14.07-11.996-22.546-15.463-8.48-3.466-17.248-5.2-26.304-5.2-11.561 0-21.15 2.36-28.76 7.079-7.612 4.719-14.11 10.739-19.507 18.06v-19.576c0-1.827-.764-2.678-2.995-2.678h-38.16c-2.607 0-2.776 1.768-2.776 2.742v194.74c0 3.115 1.253 3.696 3.439 3.696h37.38c2.251 0 3.122-.844 3.122-2.97v-63.51c5.204 6.169 11.611 11.566 19.221 16.19 7.609 4.625 17.292 6.938 29.05 6.938 9.25 0 18.11-1.735 26.595-5.204 8.48-3.469 15.946-8.624 22.4-15.463 6.454-6.839 11.657-15.222 15.608-25.15 3.952-9.926 5.927-21.343 5.928-34.25m-43.936 0c0 6.551-1.012 12.428-3.034 17.633-2.023 5.204-4.769 9.684-8.239 13.438-3.47 3.755-7.468 6.645-11.996 8.671-4.528 2.026-9.394 3.039-14.598 3.039-5.199 0-10.06-1.013-14.594-3.039-4.531-2.026-8.481-4.916-11.851-8.671-3.37-3.755-6.067-8.283-8.093-13.584-2.026-5.301-3.039-11.13-3.039-17.487v-.582c0-6.357 1.013-12.184 3.039-17.483 2.026-5.298 4.724-9.826 8.093-13.584 3.369-3.757 7.32-6.648 11.851-8.671 4.531-2.023 9.396-3.034 14.594-3.034 5.204 0 10.07 1.012 14.598 3.034 4.528 2.023 8.527 4.913 11.996 8.671 3.469 3.758 6.216 8.286 8.239 13.584 2.023 5.298 3.034 11.126 3.034 17.483z"/><path d="m752.42 1129.61v-.582c0-11.158-2.117-21.597-6.351-31.32-4.234-9.719-10.06-18.19-17.464-25.401-7.409-7.215-16.213-12.89-26.414-17.03-10.201-4.137-21.265-6.206-33.19-6.206-12.13 0-23.29 2.116-33.488 6.347-10.198 4.232-19.05 10-26.555 17.319-7.505 7.315-13.375 15.83-17.609 25.546-4.234 9.717-6.351 20.16-6.351 31.32v.572c0 11.164 2.117 21.606 6.351 31.33 4.234 9.719 10.06 18.19 17.464 25.401 7.408 7.215 16.213 12.891 26.414 17.03 10.201 4.137 21.265 6.206 33.19 6.206 12.13 0 23.29-2.117 33.488-6.351 10.198-4.234 19.05-10.01 26.555-17.319 7.505-7.312 13.375-15.827 17.609-25.546 4.234-9.719 6.351-20.16 6.351-31.32m-43.31.573c0 5.779-.913 11.217-2.74 16.314-1.827 5.098-4.472 9.571-7.937 13.421-3.465 3.85-7.651 6.881-12.557 9.1-4.907 2.214-10.534 3.321-16.883 3.321-6.161 0-11.694-1.156-16.601-3.466-4.907-2.311-9.188-5.438-12.844-9.382-3.656-3.944-6.447-8.466-8.373-13.566-1.926-5.1-2.889-10.537-2.889-16.31v-.582c0-5.773.915-11.208 2.744-16.306 1.829-5.098 4.476-9.571 7.941-13.421 3.465-3.85 7.651-6.881 12.557-9.1 4.907-2.214 10.534-3.321 16.883-3.321 5.967 0 11.452 1.156 16.455 3.466 5 2.311 9.333 5.438 12.989 9.382 3.656 3.944 6.445 8.466 8.369 13.566 1.923 5.101 2.885 10.537 2.885 16.31z"/><path d="m860.02 1092.27v-38.29c0-1.918-1.781-2.426-3.73-2.414-11.366.081-23.276 3.595-30.24 9.341-7.709 6.362-10.624 11.307-15.06 21.908v-27.666c.116-1.432-.804-3.561-3.851-3.561h-37.12c-1.902 0-2.977 1.743-2.977 3.056v148.67c-.138 2.103.989 3.255 3.09 3.255h38.21c1.132 0 2.647-1.136 2.647-2.809v-54.44c0-18.7 4.193-32.483 12.578-41.35 8.385-8.865 19.491-13.297 34.14-13.297.946 0 2.312-1.027 2.312-2.402"/><path d="m974 1200.89v-30.399c0-2.743-1.882-4.04-3.443-3.838-1.989 0-8.396 3.995-17.757 3.995-9.452 0-14.67-4.568-14.67-14.597v-66.25h32.452c2.748 0 4-.888 4-3.64v-30.67c0-2.941-1.434-3.899-4-3.899h-32.452v-36.16c0-1.836-1.5-2.867-3.106-2.867h-37.881c-1.821 0-2.988 1.373-2.988 3.593v35.438h-14.911c-2.692 0-3.223 1.634-3.223 3.169v31.883c-.115 1.938.94 3.157 2.845 3.157h15.29v73.48c0 9.06 1.109 16.537 3.328 22.42 2.219 5.883 5.306 10.656 9.261 14.32 3.955 3.664 8.68 6.22 14.174 7.668 5.494 1.448 11.617 2.172 18.368 2.172 7.328 0 13.788-.82 19.383-2.459 5.594-1.639 10.704-3.81 15.331-6.511"/></g><path d="m-326.33 1146.24c-24.903 0-49.18-6.476-49.18-6.476l-18.235-55.41 46.701-116.17c18.519-9.659 42.972-18.586 70.03-18.586h132c0 0 .856 6.95.856 14.05 0 98.38-83.09 182.59-182.18 182.59z" fill="url(#5)" stroke="#ff2a2a" stroke-width=".25"/><path d="m-414.53 1139.81l-24.09-33.92c2.188-52.42 35.747-109.51 91.59-137.7 0 57.995-8.112 118.18-28.466 171.58z" fill="url(#2)"/><path d="m-412.8 1189.64l-18.367-16.225c-5.681-17.804-7.871-33.956-7.871-50.938 0-8.964.412-16.593.412-16.593 0 0 26.432 23.968 63.12 33.879 0 0-7.889 21.18-20.59 40.483z" fill="url(#4)"/><path d="m-386.58 1203.59l-28.763 3.559c-8.319-13.236-15.818-33.727-15.818-33.727 0 0 21.565 3.729 35.07 6.831z" fill="#00abb3"/><path d="m-172 1289.6h-100c-59.06 0-111.04-31.06-143.34-82.46 0 0 10.312-12.334 19.253-26.896 108.85 21.913 226.02 71.19 226.02 102.62 0 4.701-1.93 6.727-1.93 6.727" fill="url(#1)"/><path d="m19 949.6h-97c13.337 34.23 40.25 68 78 68 27.629 0 46.855-17.909 55-36l-10-22z" fill="#ffd900"/><path d="m57 956.6l8-7h31c0 30.865-6.876 40-19 40-8.216 0-16.441-4.993-22-8z" fill="#e8413b"/><path d="m19 949.6h46c0 0-2.32 15.493-10 32-16.515-9.241-36-32-36-32" fill="url(#0)"/><g transform="matrix(4.25292 0 0 4.25292 3769.89-1773.2)" fill="#fff"><path d="m-913.6 693.76h-13.06v-11.451h16.723c9.469.004 9.559 11.451-3.667 11.451m-13.06-27.971h16.18c9.226 0 8.771 10.01-1.228 10.01h-14.953v-10.01m26.332 12.11c7.743-4.705 6.258-18.581-7.665-18.581h-30.1c-2.334 0-4.271 1.921-4.271 4.258v32.847c0 2.334 1.937 4.265 4.271 4.265h26.22c20.848 0 23.451-18.55 11.551-22.789"/><path d="m-847.47 659.32h-43.655c-1.905 0-3.877 1.55-3.877 3.461 0 1.905 1.972 3.452 3.877 3.452h14.5v30.19c0 2.322 1.937 4.265 4.273 4.265h6.786c2.35 0 4.268-1.943 4.268-4.265v-30.19h13.828c1.896 0 3.861-1.546 3.861-3.452 0-1.911-1.965-3.461-3.861-3.461"/></g></g><path d="m315.98599 292.10748a8.984831 8.984831 0 1 1 -17.96966 0 8.984831 8.984831 0 1 1 17.96966 0" transform="matrix(1.8961 0 0 1.92857-456.28 317.76)" fill="url(#3)" fill-rule="evenodd"/><path d="m0 0h-3.404l1.32 1.019c1.449 1.122 2.132 1.798 2.132 3.151 0 .759-.263 1.396-.758 1.84-.492.441-1.196.674-2.033.674-1.465 0-2.215-.605-2.949-1.58-.042-.056-.032-.134.022-.178l1.055-.85c.024-.019.052-.028.081-.028.037 0 .073.015.099.046.521.628.946.991 1.575.991.672 0 1.09-.404 1.09-1.054 0-.677-.414-1.128-1.403-1.946l-2.651-2.174c-.029-.024-.047-.061-.047-.099v-1.224c0-.07.058-.128.129-.128h5.742c.071 0 .129.058.129.128v1.284c0 .07-.058.128-.129.128" fill="#fff" transform="matrix(2.45496 0 0-2.45496 133.44 887.36)"/></g></svg>