<svg xmlns="http://www.w3.org/2000/svg" viewBox="0 0 500 91"><g transform="matrix(.45191 0 0-.45191-95.81 97.3)" fill="#666"><g transform="matrix(1.99557 0 0 1.99557 133.95-241.61)"><path d="m207.53 184.74v7.01c0 5.887.372 11.868.56 17.755 1.776.28 3.925.467 7.102.467 7.102 0 15.232-1.681 15.232-11.774 0-10.372-9.06-13.456-17.849-13.456h-5.04m-7.664-11.494c0-8.04-.374-16.17-.747-24.297 2.99.281 6.074.468 9.06.468 2.99 0 6.074-.468 9.06-.468 10.84 0 23.642 4.953 23.642 18.783 0 10.653-6.821 15.14-17.942 15.7v.186c9.345 2.056 15.7 7.195 15.7 16.353 0 10.56-9.06 13.457-19.717 13.457-3.271 0-6.636-.467-9.906-.467-3.271 0-6.634.187-9.905.467.373-7.943.747-16.07.747-24.11v-16.07m7.664 8.04h4.204c12.428 0 20.558-2.522 20.558-13.175 0-10.09-7.01-15.698-15.04-15.698-3.364 0-6.821.187-9.157.466-.188 6.262-.56 12.616-.56 18.877v9.53"/><path d="m252.75 178.76c0 4.392-.093 9.624-.187 14.858 1.308-.281 2.71-.468 3.925-.468 1.215 0 2.523.187 3.832.468-.561-7.289-.934-16.821-.934-25.979 0-6.447 1.307-9.531 2.896-11.306 1.776-1.962 4.392-3.458 8.04-3.458 5.234 0 8.785 2.617 10.373 5.981 1.869 4.02 1.963 4.766 1.963 19.438 0 5.04 0 10.839-.187 15.324 1.308-.281 2.523-.468 3.924-.468 1.402 0 2.616.187 3.831.468-.56-9.719-.653-18.502-.653-28.408 0-5.513.093-11.03.373-16.26-1.215.281-2.43.468-3.645.468-1.215 0-2.429-.187-3.643-.468.186 2.711.186 5.421.186 8.04h-.186c-3.178-5.795-8.691-8.972-14.578-8.972-9.719 0-15.607 5.607-15.607 15.325 0 6.541.281 10.841.281 15.419"/><path d="m323.21 189.69c-8.691 0-12.615-5.608-12.615-15.327v-7.941c0-5.608.187-12.149.747-17.476-1.402.281-2.804.468-4.204.468-1.402 0-2.804-.187-4.206-.468.561 5.327.748 11.868.748 17.476v9.718c0 5.606-.187 12.147-.748 17.474 1.402-.281 2.804-.468 4.206-.468.934 0 2.336.187 3.737.468-.186-2.523-.28-4.953-.28-7.476h.187c3.458 5.327 8.222 8.411 14.952 8.411 6.914 0 14.951-3.365 14.951-16.259 0-5.327-.374-10.935-.374-17.289 0-4.111 0-8.04.187-12.06-1.402.281-2.617.468-3.925.468-1.309 0-2.523-.187-3.831-.468.187 6.822.653 13.643.653 20.839v5.701c0 9.157-4.02 14.204-10.185 14.204"/><path d="m358.44 170.44c0 11.307 4.205 20.18 13.175 20.18 8.878 0 13.644-6.634 13.644-18.409 0-10.185-4.206-20.745-13.923-20.745-6.075 0-12.896 4.02-12.896 18.97m26.445-21.493c1.308.187 2.429.468 3.551.468 1.121 0 2.242-.281 3.645-.468-.094 7.476-.281 13.924-.281 22.428 0 15.98.281 40.462 1.121 48.31-1.589-.187-2.896-.468-4.205-.468-1.308 0-2.71.281-4.205.468.374-8.04.374-22.708.374-34.481h-.187c-2.617 6.073-7.475 9.344-14.39 9.344-9.719 0-20.09-7.663-20.09-23.548 0-16.07 9.532-22.989 18.971-22.989 9.157 0 13.923 6.168 15.791 10.09h.187l-.28-9.158"/><path d="m424.41 191.56c9.719 0 11.494-9.532 11.494-16.17-3.924-.093-8.317-.28-12.428-.28-3.925 0-8.317.187-12.148.28.467 6.728 3.925 16.17 13.08 16.17m-21.585-21.587c0-12.428 9.251-21.96 22.707-21.96 5.794 0 11.868 2.71 15.606 5.7l.56 4.579-.467.281c-3.27-3.737-9.06-6.635-14.02-6.635-10.372 0-16.17 7.57-16.17 17.288 0 .84 0 1.682.094 2.616 4.111.093 8.129.28 12.241.28 6.634 0 13.27-.187 19.997-.28.094 1.215.187 2.429.187 3.645 0 10.372-6.261 19.06-19.344 19.06-13.736 0-21.398-9.438-21.398-24.577"/><path d="m455.16 157.92c1.308-2.522 5.326-6.448 10.559-6.448 4.673 0 9.06 2.898 9.06 8.411 0 11.587-22.05 4.766-22.05 20.559 0 8.129 5.607 14.11 15.513 14.11 4.578 0 7.475-1.682 10.372-2.616-1.028-1.776-2.056-5.234-2.243-6.636h-1.121c-.935 2.99-4.02 5.794-8.223 5.794-3.645 0-7.943-2.336-7.943-7.849 0-12.148 22.05-4.673 22.05-20.466 0-7.102-6.448-14.764-16.821-14.764-5.7 0-9.438 1.589-12.06 3.084.749 1.588 1.777 4.952 1.777 6.821h1.121"/><path d="m514.68 185.96c-.654.748-2.71 1.496-4.581 1.496-5.98 0-9.532-5.701-9.532-12.99 0-16.26 0-21.21.375-25.511-1.214.281-2.524.468-3.737.468-1.31 0-2.524-.187-3.924-.468.373 4.579.373 11.868.373 22.335v2.989c0 4.859 0 11.308-.373 19.344 1.4-.281 2.614-.468 3.924-.468 1.213 0 2.523.187 3.737.468-.466-4.485-.466-6.728-.466-9.06l.187-.094c3.55 6.728 8.04 10.09 12.333 10.09 1.123 0 1.775-.093 2.992-.561-.655-1.495-.655-5.05-.655-7.569l-.653-.468"/><path d="m549.82 158.48c-2.149-3.458-6.26-6.541-11.03-6.541-4.111 0-8.129 2.991-8.129 8.877 0 10.187 13.08 9.532 19.529 11.681l-.374-14.02m-22.707 25.791h1.029c2.149 4.02 6.821 6.354 11.772 6.354 7.478 0 10.28-5.512 10.28-11.773 0-3.645-.465-4.393-14.02-6.542-8.131-1.307-13.175-5.326-13.175-12.801 0-7.102 6.167-11.495 12.427-11.495 6.356 0 10.186 2.336 14.671 6.823.375-3.178 2.43-5.795 6.45-5.795 2.427 0 4.673.748 5.979 1.308v2.057c-.654-.374-1.402-.374-1.964-.374-3.641 0-3.641 3.83-3.641 6.915 0 7.849.372 14.764.372 21.772 0 8.317-6.166 13.831-15.14 13.831-4.955 0-9.441-1.216-15.05-5.42v-4.86"/><path d="m582.71 206.14h.468c-.374-4.673-.559-9.252-.746-13.831 1.307 0 5.605.093 9.904.28-.094-.653-.094-1.308-.094-1.963 0-.653 0-1.307.094-1.962-3.27.187-7.664.187-9.904.187-.187-.934-.657-15.605-.657-23.736 0-7.01.187-14.11 7.57-14.11 1.029 0 2.991.28 4.207.655v-2.243c-2.149-.748-4.86-1.402-7.196-1.402-7.757 0-11.494 4.393-11.494 11.681 0 6.822.561 15.232.653 29.16-1.869 0-3.924 0-6.354-.187.093.748.187 1.402.187 2.149 0 .655-.094 1.216-.187 1.87 2.804-.187 4.86-.281 6.166-.281-.091 2.43-.186 6.449-.373 10.466l7.756 3.272"/></g><path d="m312.94 215.3c-4.298-.171-8.29-2.414-10.706-6.178-1.84-2.888-1.783-6.992-.6-9.349.798-1.603 1.955-2.56 3.02-3.311.814-.587 1.404 1.302 5.274 2.863 3.336 1.343 9.06.756 9.194-1.811.148-2.863-1.658-3.167-4.667-2.863-3.056.308-11.304.904-13.317 2.01-1.125.621.394-2.107 3.418-3.412 3.02-1.307 5.546-1.858 8.232-2.967 2.571-1.055-.747-2.107-3.212-.648-2.481 1.466-.69-1.898 1.109-3.421 1.955-1.657 5.119-2.884 7.937-3.11 2.456-.207-1.561-4.791-3.115-9.248-2.11-6.03-.607-11.756-3.77-13.868-1.833-1.221-6.178.756-9.05 1.359-3.443.718-8.092.448-9.595.448-1.504 0-2.308 4.222-3.968 8.29-1.347 3.302-4.501 5.828-5.119 7.69-.754 2.261 3.246 2.476 6.327 5.274 3.311 3.01 6.03 9.797 2.859 14.02-3.02 4.03-9.04 3.315-11.905 2.568-2.991-.789-9.752-4.314-12.06-5.584-3.01-1.655-6.325-2.559-8.29-1.959-1.847.576-3.01 1.808-4.066 3.318-.855 1.226-1.208-3.614.45-5.729 1.891-2.395 4.051-3.187 3.772-3.616-1.963-3.01-17.894-18.44-27.13-26.08-3.468-2.863-8.898-8.889-11.158-11-2.177-2.036-5.423-3.162-8.594-3.77-1.923-.362 1.538-4.193 5.283-5.873 3.01-1.361 7.229-2.112 12.957.754 3.927 1.955 8.594 7.982 11.156 10.398 2.728 2.562 13.261 11.605 14.02 12.356.756.756 2.638 2.337 3.772 1.205 1.658-1.651-.304-4.363-1.512-5.722-1.167-1.311-10.393-11.01-13.259-13.87-2.868-2.863-9.655-11.603-15.823-17.635-3.286-3.2-9.06-13.378-14.624-15.371-2.112-.751-4.674.301-4.067-1.507.6-1.808 3.92-5.427 8.437-6.03 4.503-.6 10.55 1.055 14.02 5.427 3.558 4.489 6.837 8.823 9.05 11.457 2.407 2.863 17.959 24.396 19.743 26.827 1.658 2.26 3.228 3.596 4.37 2.26.904-1.055.304-2.863-1.504-5.726-1.873-2.966-36.888-53.767-40.848-59.835-1.914-2.937-4.04-4.97-6.936-3.77-.812.337 1.06-4.498 7.692-5.126 7.984-.753 13.866 3.02 20.498 12.811 2.793 4.12 25.13 42.582 26.371 44.616 2.01 3.277 3.27 5.303 4.372 4.37 1.568-1.327-.173-3.972-1.356-6.331-1.356-2.715-29.618-61.941-32.855-66.92-1.963-3.02-4.37-6.482-6.934-6.482-1.66 0 1.356-3.619 6.63-3.619 4.971 0 9.309 1.603 13.72 7.386 4.824 6.329 27.06 57.69 29.24 62.849 1.66 3.923 2.965 4.449 3.92 3.923 1.356-.756 1.051-2.141-.304-6.03-2.112-6.03-14.739-37.36-19.898-49.888-1.052-2.564-2.712-5.128-4.519-6.631-1.322-1.104 4.067-1.511 8.437 0 6.722 2.317 10.1 9.793 14.32 19.14 4.174 9.233 13.261 34.21 14.92 36.625 1.66 2.411 3.574 1.684 4.676.148 1.954-2.715 2.62-8.257 1.354-11.905-4.37-12.66-10.852-19.741-13.711-22.909-1.865-2.058-4.674-4.827-6.178-5.731-.551-.328 1.799-1.808 4.518-2.107 1.801-.202 4.093-.403 2.26-3.318-4.822-7.683-8.142-16.567-10.1-17.935-1.505-1.052-4.478-2.622-6.786-4.372-2.647-2.01-10.03 2.244-13.565 0-2.242-1.43-1.66-2.879-2.407-3.918-.911-1.262-4.19-4.206-4.075-6.63.157-3.02 1.964-5.123 4.379-6.03 2.901-1.089 1.199.907 2.103 3.167 1.159 2.879 2.721.904 4.676 1.359 1.955.447 2.71 2.254 3.77 2.859 1.052.603 3.164 0 2.712-1.657-.576-2.119-1.381-3.11-4.224-4.37-2.71-1.208-3.203-4.622-1.954-6.482.902-1.356-.781-2.189.45-4.372 1.356-2.415 4.971-3.77 7.083-3.167 1.296.371.524 1.882-.157 2.564-1.199 1.203-1.199 3.318.304 3.167 1.955-.198 3.318.751 4.222 5.575.189 1.035.756 5.578 1.963 5.578 1.208 0 1.505-1.964 1.349-3.315-.14-1.359-1.644-3.362-.6-6.03.985-2.535 2.11-2.112 3.614-3.32 1.257-.998 2.186-3.922 4.077-4.523 2.866-.902 5.726.457 6.934 2.416.681 1.106-2.901.07-3.616 3.167-.132.526 1.354 3.01 1.199 4.97-.148 1.961-2.11 4.372-3.468 5.731-.985.981-1.921 3.01-1.806 4.366.148 1.808 2.94 6.286 7.238 5.427 2.258-.452 4.813-.904 7.829-.904 2.415 0 3.648 1.129 4.527 2.564.772 1.248 3.064-1.5 3.673-3.01.517-1.287 4.739 5.996 1.453 9.476-2.636 2.793-4.921.609-6.934 1.824-3.01 1.802-7.05-1.32-9.04-2.568-1.208-.753-3.772.157-1.208 2.867 2.562 2.708 7.566 11.29 8.445 13.261.6 1.354 5.119-5.128 9.04-4.971 1.815.066-.601 3.616-.601 8.738 0 2.11 1.358 7.69 2.868 7.537 2.267-.225 2.44-7.989 2.562-12.509.14-5.877-1.232-22.392-4.222-30.29-2.357-6.228-7.287-11.642-9.809-12.03-3.837-.592-1.577-2.427.781-4.642 4.741-4.449 11.313-1.783 12.175-2.901.994-1.269 1.527-2.584 2.876-4.242 1.799-2.208 4.374-3.92 5.13-3.92 1.212 0 4.186 2.222 5.427 3.462 2.11 2.116 2.859 4.975 3.92 5.276 1.059.302 3.475-1.089 6.178-.301 3.623 1.055 6.727 4.03 7.688 6.183.609 1.35-1.831.434-4.674 2.863-3.155 2.71-6.02 7.73-7.838 13.411-2.103 6.632-3.459 18.843-3.615 26.08-.148 6.93 1.34 14.673 2.564 14.464 1.808-.301 2.868-3.468 3.02-6.63.173-3.565-.099-6.527-1.208-9.498-.452-1.208 3.01-.148 4.971 1.057 1.963 1.206 3.318 2.406 3.77 3.01.452.603 5.882-8.29 8.29-11.153 1.241-1.475 2.119-3.369 1.052-3.616-1.955-.452-5.423 3.167-9.04 2.863-2.571-.213-2.868-1.802-4.372-2.11-1.626-.326-4.199-1.813-4.518-3.767-.609-3.619 1.052-5.575 3.614-6.93 1.561-.83.362 3.212 2.112 2.562 1.199-.456 3.484-2.883 5.873-1.963 1.964.756 3.641 1.905 7.995.904 3.911-.904 5.571-1.956 5.423-4.366-.115-1.808-2.112-5.279-4.077-9.05-1.298-2.497.387-4.276 2.202-6.088.904-.904-.771-3.097-2.949-4.161-2.071-1.019 1.48-1.946 3.616-1.66 3.318.452 6.104 2.926 6.63 5.879.295 1.658 2.375 1.491 2.564 3.812.213 2.449-1.637 4.645-.148 4.93 1.649.321 2.398-2.699 3.614-5.726.904-2.26 3.427-3.225 5.735-2.865 1.734.276 1.061-4.46.443-5.879-.51-1.181 3.632.214 5.128 1.961 1.19 1.385 2.161 4.289 1.356 6.783-.47 1.444-1.858 1.799-1.356 3.165.508 1.401-.378 2.343-2.384 3.821-1.84 1.356-6.957 3.715-5.611 4.77 1.356 1.051 2.226.648 3.171.304.715-.263 2.153-1.685 3.77-2.116 1.66-.445 3.698-.317 5.05.619 1.257.875 2.226.205 2.324-1.219.083-1.097.18-1.583-.147-2.865-.311-1.178 3.01-.45 4.296 2.055 1.651 3.192 1.718 6.19.288 7.834-1.833 2.128-4.158.385-5.341 1.865-1.512 1.898-3.311 3.619-6.63 2.267-3.443-1.413-8.585-1.811-11-.308-3.03 1.892-13.654 19.1-16.365 22.963-2.103 3.01-2.128 3.524.387 2.789 3.425-1 6.522 1.293 7.229 2.436.256.407-2.695-.731-9.332 6.482-5.128 5.562-14.14 19.452-14.02 25.02.098 4.683 3.318 10.1 5.274 10.252 2.112.161 4.181-3.787 5.431-6.633 1.052-2.413 18.263-41.885 20.19-45.518 2.573-4.824 6.392-7.01 10.706-7.84 2.514-.484 5.274.304 6.482 1.057.69.43-2.308.513-4.372 5.126-1.954 4.372-22.14 53.01-23.364 56.22-1.199 3.164-.756 4.366.6 4.824 1.716.571 3.162-1.208 4.674-5.126 1.34-3.477 23.892-53.929 26.08-57.724 2.703-4.703 6.374-8.187 9.04-9.948 2.539-1.689 7.07-2.478 10.854-1.961 3.309.452 6.473 2.413 7.377 3.767.378.56-4.518 0-7.07 3.619-2.01 2.827-11.01 18.234-13.729 23.366-2.712 5.119-25.02 45.815-26.07 48.37-1.051 2.562-1.356 4.375-.304 4.822.789.337 2.721-.6 4.519-3.761 1.52-2.65 29.396-47.784 32.862-52.15 3.468-4.375 7.681-6.786 12.66-6.786 5.882 0 10.378 2.933 12.06 5.729 1.354 2.26-3.623.153-8.142 3.772-4.436 3.542-42.877 58.972-44 60.739-1.365 2.107-2.875 4.519-1.521 5.427 1.077.709 3.32-.304 5.735-3.32 1.669-2.094 27.1-33.28 30.447-36.62 4.815-4.827 8.601-7.07 14.32-6.635 3.911.301 6.777 3.315 8.585 6.331 1.314 2.193-3.236-.333-6.424 2.859-1.282 1.28-42.639 44.07-44.521 46.27-2.652 3.117-3.122 4.53-1.808 5.274 1.16.654 2.769.25 5.423-1.808 2.784-2.152 17.433-16.193 21.853-20.05 3.466-3.02 8.897-5.386 12.365-5.279 4.674.153 9.957 3.878 10.4 8.29.15 1.512-4.393-2.243-8.848 1.044-4.633 3.43-22.954 22.02-29.74 27.9-4.757 4.12-10.402 9.04-10.402 10.396 0 1.356 5.283 2.564 4.979 7.991-.098 1.68-1.658-1.759-6.325-2.108-7.986-.612-13.14 7.42-21.261 8.139-5.119.452-9.982-1.233-11.297-6.786-1.356-5.728 1.864-9.707 4.37-11.601 3.763-2.872 7.543-2.773 7.985-4.222.551-1.808-1.651-4.224-4.37-7.539-3.583-4.379-2.474-8.482-3.763-9.34-.913-.609-3.01.681-5.891.902-3.911.301-7.13-2.087-8.889-1.206-1.199.603-.443 7.386-2.258 24.868-.913 8.889-3.459 15.08-5.719 18.692-.648 1.026 1.487 1.966 2.26 2.863.895 1.055 1.354 3.918.443 4.366-.904.456-2.407-1.955-6.171-1.504-4.239.51-18.549 4.071-22.313 3.918"/></g></svg>