<svg xmlns="http://www.w3.org/2000/svg" viewBox="0 0 800 800"><defs><clipPath><path d="m310.4-62.919c-12.334-.163-23.17 11.9-26.328 26.321-9.886 31.704-20.08 63.38-29.407 95.28-1.628 7.556.16 17.414 6.519 20.696 6.371 4.388 15.256 3.113 19.957-4.072 3.217-4.559 3.598-10.978 5.891-16.06 2.355-2.753 5.9-.681 8.765-1.333 12.925 0 25.85 0 38.775 0 1.7 8.631 3.985 19.09 11.276 22.678 7.928 3.818 18.84-.777 21.22-11.468 1.876-9.559-2.549-18.589-5.01-27.352-9.318-28.54-17.722-57.665-27.473-85.91-4.276-11.323-14.07-19.14-24.18-18.779m222.31 1.108c-12.606.731-25.304-.762-37.856.996-7.16 2.634-11.4 12.346-10.557 21.329-.006 31.468-.19 62.939.007 94.41.306 6.37-.625 13.581 3 18.824 4.553 7.972 14.314 10.189 20.947 4.722 5.153-4.03 7.645-11.825 7.02-19.305.102-6.267-.239-12.573-.155-18.807.226-3.07 2.675-5.207 5.075-4.418 14.257.613 29.767 1.319 42.08-9.01 14.893-12.12 20.915-37.793 14.02-58.02-4.995-15.582-16.977-26.924-30.3-29.493-4.368-1.025-8.824-1.348-13.283-1.221m-116.12.032c-9.192.912-18.705-1.273-27.667 1.574-7.136 3.5-11.28 13.815-9.941 23.06.242 34.17-.55 68.38.464 102.52 1.409 8.677 8.335 15.44 15.548 14.379 13.04.218 26.08-.141 39.11.14 9.08.146 18.718-1.028 25.997-8.4 11.395-10.589 16.883-31.24 10.292-47.43-2.781-7.097-7.704-12.636-13.257-16.16-2.394-3.499.403-7.633 1.994-10.584 7.662-16.82 2.702-40.568-10.694-50.4-9.356-7.558-20.888-8.905-31.848-8.705m-91.23 87.982c-9.77 0-19.541 0-29.31 0 4.778-21.533 9.694-33.23 14.617-54.717 4.94 21.491 9.8 33.22 14.694 54.717m96.13-56.61c13.257.127 13.364 23.961.984 23.915-4.108 0-8.217 0-12.325 0 0-7.929 0-15.858 0-23.786 3.781 0 7.563.096 11.341-.128m94.59 1.333c8.753 1.118 18.17-2.027 26.372 2.843 6.938 5.074 8.333 18.462 2.395 25.376-4.04 5.267-10.348 5.645-15.821 4.915-4.596 0-9.192 0-13.788 0 0-11.05 0-22.1 0-33.15.281.005.561.011.842.016m-105.26 52.744c8.743.892 17.769-1.332 26.307 1.654 6.821 4.04 6.835 18.735-.596 21.875-5.411 2.358-11.222.179-16.805.948-3.25 0-6.499 0-9.749 0 0-8.164 0-16.329 0-24.493.281.005.561.011.842.016"/></clipPath></defs><g fill="#ca0016" stroke-linejoin="round" stroke-linecap="round" stroke-width="3"><path transform="matrix(8.56903 0-2.33296 8.99956-2534.83-2798.21)" d="m483.91671 361.57349a35.842125 35.842125 0 1 1 -71.68425 0 35.842125 35.842125 0 1 1 71.68425 0z" stroke="#ca0016"/><path transform="matrix(14.79485 0-3.76813 15.50053-4996.38-5076.02)" d="m449.51595 340.52945a11.338795 11.338795 0 1 1 -22.67759 0 11.338795 11.338795 0 1 1 22.67759 0z" stroke="#fff"/></g><g fill="#fff"><path d="m67.885 67.02l127.17 125.35" fill-rule="evenodd" stroke="#fff" stroke-width="37.812"/><path d="m239.29 572.8v-198.5h38.05v71.49c11.735-13.36 25.636-20.04 41.704-20.04 17.512 0 32 6.341 43.46 19.02 11.464 12.683 17.196 30.894 17.196 54.635 0 24.553-5.845 43.46-17.535 56.733-11.69 13.269-25.884 19.904-42.584 19.904-8.214 0-16.316-2.054-24.305-6.161-7.989-4.107-14.872-10.178-20.649-18.212v21.12h-35.34m37.777-75.01c0 14.894 2.347 25.907 7.04 33.04 6.589 10.11 15.345 15.16 26.27 15.16 8.395 0 15.549-3.588 21.461-10.764 5.912-7.176 8.869-18.482 8.869-33.918 0-16.429-2.979-28.28-8.937-35.543-5.958-7.266-13.585-10.9-22.883-10.9-9.117 0-16.7 3.543-22.748 10.629-6.05 7.086-9.07 17.851-9.07 32.29m172.91 75.01l-57.952-143.8h39.944l27.08 73.39 7.853 24.508c2.076-6.228 3.385-10.336 3.927-12.322 1.264-4.062 2.618-8.124 4.062-12.186l27.351-73.39h39.13l-57.14 143.8h-34.26m245.62 0h-38.05v-73.39c0-15.526-.813-25.568-2.437-30.13-1.625-4.558-4.265-8.101-7.921-10.629-3.656-2.527-8.06-3.791-13.202-3.791-6.59 0-12.502 1.805-17.738 5.416-5.236 3.611-8.824 8.395-10.764 14.353-1.941 5.958-2.911 16.97-2.911 33.04v65.13h-38.05v-143.8h35.34v21.12c12.547-16.248 28.344-24.372 47.39-24.372 8.395 0 16.07 1.512 23.02 4.536 6.951 3.02 12.209 6.883 15.774 11.577 3.565 4.694 6.05 10.02 7.447 15.977 1.399 5.958 2.099 14.488 2.099 25.591v89.37"/><path transform="matrix(9.45299 0 0 9.45299-3885.26-2910.38)" d="m436.06314 328.42194a4.228025 4.228025 0 1 1 -8.45605 0 4.228025 4.228025 0 1 1 8.45605 0"/></g><path transform="matrix(9.45299 0 0 9.45299-4012.43-3035.73)" d="m436.06314 328.42194a4.228025 4.228025 0 1 1 -8.45605 0 4.228025 4.228025 0 1 1 8.45605 0" fill="#ca0016"/></svg>