<svg xmlns="http://www.w3.org/2000/svg" height="53.57" viewBox="0 0 282.40573 53.572884" width="282.41"><path d="m90.62 52.34c.425-.688 1.831-1.25 3.125-1.25s2.638-.462 2.987-1.027c.841-1.361-3.744-5.223-6.2-5.223-1.064 0-1.573-.585-1.13-1.301.442-.715 1.741-1.01 2.886-.654 1.145.356 2.926.106 3.957-.555 1.593-1.022 1.54-1.205-.356-1.221-1.843-.016-1.998-.454-.894-2.519 1.18-2.204.951-2.5-1.935-2.5-4.01 0-3.525-3.057.516-3.269 1.512-.079 3.112-.507 3.555-.95 1.105-1.105-3.502-4.442-6.198-4.491-1.203-.022-2.188-.628-2.188-1.346 0-.816 1.642-.999 4.375-.486 2.868.538 4.375.342 4.375-.568 0-.764-.864-1.389-1.919-1.389-1.532 0-1.649-.505-.581-2.5.859-1.604 2.617-2.5 4.909-2.5 2.816 0 3.745.697 4.398 3.299l.828 3.299 10.237-.854c10.17-.848 13.713-2.117 10.852-3.885-.822-.508-4.766.068-8.765 1.279-7.442 2.253-12.13 1.858-10.434-.88.724-1.171 1.045-1.173 1.433-.009.275.826 1.353 1.501 2.396 1.501 2.237 0 16.646-6.457 16.646-7.459 0-.379-1.135-1.398-2.522-2.264-2.23-1.393-2.66-1.211-3.719 1.574-.889 2.338-2.091 3.139-4.666 3.111-2.96-.032-3.148-.225-1.281-1.312 1.203-.701 2.188-2.436 2.188-3.856 0-2.382-.218-2.441-2.813-.766-7.103 4.586-26.27 8.286-24.01 4.636.454-.734 1.543-1.06 2.421-.723.878.337 2.208 0 2.955-.746 1.609-1.616-1.663-4.593-5.123-4.656-1.204-.022-2.188-.569-2.188-1.216 0-1.992 2.64-2.933 4.109-1.465.765.765 2.23 1.391 3.255 1.391 1.414 0 1.278-.475-.563-1.968-1.335-1.082-1.787-1.651-1-1.263.81.401 1.348-.23 1.25-1.47-.125-1.58.927-2.28 3.848-2.563 3.439-.332 4.138.084 4.841 2.885l.822 3.273 10.159-.844c10.394-.863 12.955-1.799 11.476-4.192-1.234-1.996-3.932-1.67-9.442 1.141-5.444 2.777-9.419 3.201-10.692 1.141-.462-.747-.214-1.985.551-2.75 1.021-1.021 1.391-.826 1.391.734 0 2.728 1.01 2.675 8.256-.431 8.87-3.802 11.09-3.062 11.235 3.741.064 3.058.767 5.777 1.563 6.04 2.023.674 1.815 5.274-.238 5.274-2.16 0-1.974 11.489.198 12.213 2 .668 1.905 6.537-.11 6.537-2.08 0-2.026 9.378.066 11.47 2.845 2.845 1.834 6.03-1.908 6.01-2.647-.015-3.01-.291-1.569-1.201 1.603-1.014 1.514-1.449-.625-3.066-3.396-2.566-4.129-2.431-4.594.848-.299 2.106-1.341 2.898-4.149 3.153-3.393.308-3.542.176-1.563-1.388 1.203-.951 2.188-2.665 2.188-3.81 0-1.928-.288-1.933-3.891-.069-7.866 4.068-24.797 7.237-22.984 4.302zm30.359-10.936c2.948-.516 5.198-1.501 5-2.189-.389-1.354-3.537-1.373-8.484-.053l-3.125.834 3.125-1.909c1.719-1.05 3.868-1.929 4.777-1.953.908-.024 2.335-.747 3.17-1.607 1.195-1.23 1.032-2.039-.763-3.798-2.196-2.153-2.33-2.095-3.604 1.563-.979 2.809-2.106 3.798-4.327 3.798-3.338 0-4.04-1.835-1.128-2.952 2.352-.903 2.475-4.548.153-4.548-.947 0-2.386.8-3.197 1.777-.811.978-3.564 2.13-6.116 2.561-5.846.988-9.653 3.114-5.627 3.142 2.01.014 2.934 1.023 3.569 3.917.94 4.279.467 4.238 16.577 1.416m-14.06-1.478c-.396-.64-.147-1.517.551-1.949.699-.432 1.27-.229 1.27.452 0 .68 1.266 1.481 2.813 1.779 2.463.474 2.395.563-.551.712-1.85.094-3.687-.353-4.083-.993m38.997 11.877c-6.672-2.381-7.995-3.797-10.993-11.765-5.078-13.496-.842-30.27 8.899-35.24 2.65-1.352 6.269-2.458 8.04-2.458 4.889 0 12.937 4.63 15.568 8.957 2.286 3.759 5.598 18.419 4.426 19.591-.323.323-6.071.641-12.774.707-10.684.105-12.24.397-12.619 2.369-.593 3.081 3.085 8.376 5.817 8.376 1.23 0 3.443-1.125 4.919-2.5 3.46-3.225 12.79-3.56 12.79-.46 0 3.817-5.233 10.524-9.651 12.37-5.346 2.234-8.283 2.245-14.423.054zm12.824-30.509c0-6.942-8.989-10.526-11.281-4.498-2.145 5.642-1.574 6.624 4.093 7.04 6.436.476 7.188.21 7.188-2.545m92.83 28.424c-4.479-2.217-5.103-2.972-4.064-4.915.676-1.262 1.784-3.757 2.464-5.544 1.186-3.119 1.356-3.169 4.28-1.253 3.846 2.52 12.612 2.057 12.612-.667 0-1.031-2.892-3.281-6.426-5-8.495-4.132-10.181-5.704-11.593-10.817-3.97-14.439 12.34-24.04 27.95-16.456l5.611 2.726-2.683 4.774c-3.039 5.407-3.399 5.523-8.669 2.797-4.645-2.402-10.161-1.43-9.561 1.685.224 1.166 3.496 3.606 7.271 5.423 9.326 4.49 11.654 7.349 11.654 14.307 0 6.215-2.966 11.374-8.04 13.98-4.72 2.426-14.814 1.921-20.796-1.041zm-251.57-22.535v-23.906l10.636.558c9.624.505 10.991.899 14.375 4.141 3.02 2.894 3.739 4.619 3.739 8.974 0 2.965-.427 5.391-.949 5.391-.522 0-1.671 1.156-2.553 2.569-1.397 2.237-1.234 2.869 1.262 4.891 2.358 1.91 2.849 3.485 2.771 8.876-.083 5.686-.579 6.941-3.75 9.478-3.203 2.563-5.01 2.925-14.592 2.93l-10.938.006v-23.907m18.75 12.657c2.029-3.791-.466-7.5-5.04-7.5-3.49 0-3.706.291-3.706 5s.216 5 3.706 5c2.427 0 4.168-.863 5.04-2.5m-3.668-17.544c3.493-1.87 3.286-8.187-.299-9.125-3.925-1.026-4.783-.041-4.783 5.493 0 5.115.99 5.822 5.082 3.632m29.424 27.23c-2.116-7.965-6.456-26.566-8.385-35.938-.637-3.094-1.469-6.609-1.849-7.813-.576-1.824.108-2.188 4.116-2.188h4.807l2.08 8.438c1.144 4.641 2.442 10.825 2.886 13.743 1.084 7.14 2.617 7.685 3.458 1.232.642-4.929 3.172-18.313 4.129-21.85.249-.922 2.49-1.563 5.462-1.563 4.66 0 5.04.258 5.05 3.438.008 1.891.845 6.531 1.86 10.312 1.015 3.781 1.852 8.422 1.86 10.312.008 1.891.521 3.438 1.14 3.438 1.142 0 2.629-5.576 5.249-19.687l1.451-7.813h5.345 5.345l-1.221 4.688c-3.564 13.678-4.705 18.279-7.435 29.993l-2.985 12.804-4.614.009c-2.538.005-4.886-.433-5.22-.972s-1.558-5.743-2.722-11.562c-2.526-12.635-3.836-15.718-4.752-11.189-.346 1.709-1.655 7.747-2.91 13.417l-2.282 10.31-4.727.003c-2.729 0-4.902-.658-5.142-1.56zm133.28-21.875l.34-23.437 7.188-.375 7.188-.375v23.812 23.812h-7.528-7.528l.34-23.438m23.465-.312v-23.75h7.5c7.223 0 7.5.119 7.5 3.216v3.216l4.66-3.841c7.444-6.136 15.258-4.834 18.571 3.095 1.259 3.01 1.769 9.649 1.769 23.02v18.79h-7.5-7.5l-.017-14.06c-.0001-7.734-.346-15.289-.748-16.789-.909-3.39-3.666-4.541-6.825-2.851-2.189 1.171-2.409 2.772-2.409 17.496v16.206h-7.5-7.5v-23.75"/></svg>