<svg xmlns="http://www.w3.org/2000/svg" viewBox="0 0 602.25 126.19"><defs><clipPath><path d="m-.004-1.022h2.024v2.115h-2.024v-2.115"/></clipPath><clipPath><path d="m194.7 730.72h4.067v7.131l-4.068-7.132"/></clipPath><clipPath><path d="m-.332.209h.593v.619h-.593v-.619"/></clipPath><clipPath><path d="m-.899-1.084h1.894v2.167h-1.894v-2.167"/></clipPath><clipPath><path d="m198.47 745.72c-.48-.389-.933-.798-1.272-1.303l-9.817-14.822c-.484-.715-.761-1.739-.761-2.452 0-2.651 2.15-4.307 4.147-4.42h7.802l.005-4.768 7.753.335v4.321h1.983c2.074 0 3.46 1.93 3.46 4.04 0 2.066-1.343 3.839-3.473 3.934l-1.971.134.002 10.239c0 3.355-2.416 5.974-4.501 5.974l-.236.006c-1.116 0-2.05-.347-3.121-1.217m.303-7.864v-7.133h-4.068l4.068 7.133z"/></clipPath><clipPath><path d="m194.11 722.6v-4.23l4.456-.42-.005 4.65h-4.451"/></clipPath><clipPath><path d="m.109-4.256h.647v8.525h-.647v-8.525"/></clipPath><clipPath><path d="m.014-.719h1.942v1.461h-1.942v-1.461"/></clipPath><clipPath><path d="m194.9 731.06l-.197-.346h4.065l-.257.346h-3.613"/></clipPath><clipPath><path d="m199.88 746.67l.017.005-.017-.005m-3.723-1.168c-.424-.198-1.382-.733-1.861-1.409l-10.93-14.771c-.507-.752-.808-1.647-.808-2.409 0-2.677 2.086-4.199 4.346-4.199l3.633-.1c-2.17.119-4.145 1.938-4.145 4.525 0 .76.292 1.827.799 2.579l9.814 14.818c.358.53.81.991 1.331 1.364.466.333.984.593 1.544.77l-3.723-1.168m-5.392-22.895l-.228.007.228-.007"/></clipPath><clipPath><path d="m.378-1.351h.464v2.721h-.464v-2.721"/></clipPath><clipPath id="0"><path d="m447.17 713h61.971v12.986h-61.971v-12.986"/></clipPath><clipPath><path d="m198.51 737.4v-6.337l.256-.345v.011 7.12l-.255-.449"/></clipPath></defs><g transform="translate(553.78-234.66)"><g fill="#f60"><path d="m-428.87 234.66v126.19h7.406v-126.19h-7.406" color="#000"/><path d="m-542.75 283.14h-11.03v56.96h21.283c6.521-.068 11.545-1.973 15.06-5.724 3.528-3.751 5.316-8.99 5.355-15.724 0-2.779-.379-5.326-1.127-7.648-.758-2.323-1.885-4.432-3.401-6.336-1.953-2.459-4.276-4.159-6.958-5.092-2.682-.933-5.899-1.38-9.641-1.341h-9.543v-15.09m6.754 24.14c4.276-.058 7.396.836 9.388 2.682 1.983 1.846 2.964 5 2.935 9.485.039 4.305-.846 7.347-2.653 9.116-1.798 1.769-4.733 2.624-8.795 2.566h-7.629v-23.849h6.754" fill-rule="evenodd"/><path d="m-475.66 311.5l9.135 28.601h12.712l14.14-41.867h-11.361l-9.213 29.32-9.301-29.32h-11.75l-9.145 29.32-9.213-29.32h-11.594l14.616 41.867h12.235l8.737-28.601"/></g><g fill="#044c98"><path d="m-410.61 305.02v34.724h15.88v-30.943h45.46v-13.03h-45.46c.068-6.443 1.72-11.12 4.937-14.03 3.217-2.906 8.202-4.334 14.957-4.286h25.569v-13.14h-24.21c-6.978-.019-12.906.671-17.765 2.06-4.869 1.39-8.766 3.576-11.691 6.56-3.314 3.431-5.442 7.765-6.404 13.01-.952 5.248-1.38 11.604-1.273 19.08"/><path d="m-321.56 328.6c-2.682.068-4.684-.233-6.02-.894-1.322-.671-1.992-2.128-1.983-4.373-.019-2.43.719-4.082 2.196-4.966 1.477-.884 3.761-1.302 6.851-1.254h17.27v11.487h-18.319m-19.466-44.31v11.458h24.413c4.607-.068 7.979.544 10.11 1.837 2.138 1.283 3.188 3.664 3.158 7.124v1.37h-19.262c-7.687-.068-13.305 1.273-16.852 4.02-3.538 2.741-5.287 7.299-5.248 13.645.029 5.131 1.506 9.08 4.432 11.827 2.935 2.75 7.172 4.13 12.712 4.159h39.37v-34.714c-.001-6.851-1.915-12.01-5.734-15.491-3.819-3.479-9.514-5.229-17.09-5.238h-30" fill-rule="evenodd"/><path d="m-275.38 284.3v55.44h14.723v-43.25h17.16v43.25h14.937v-43.25h8.212c3.81-.087 6.356.583 7.658 1.992 1.312 1.419 1.915 4.091 1.817 8.01v33.25h14.723v-35.14c.039-7.25-1.798-12.459-5.52-15.637-3.722-3.178-9.563-4.733-17.522-4.665h-56.19"/><path d="m-136.26 264.3h-15.248v75.43h15.248v-75.43"/><path d="m-99.92 327.55c-3.907.097-6.521-.573-7.843-1.983-1.331-1.419-1.944-4.169-1.847-8.231v-33.03h-14.51v34.19c-.049 7.707 1.759 13.188 5.442 16.463 3.683 3.285 9.543 4.879 17.6 4.791h12.955v.943c-.001 2.546-.758 4.49-2.245 5.85-1.477 1.361-3.644 2.041-6.502 2.06h-26.2v11.244h28.728c7.085.001 12.333-1.769 15.744-5.335 3.411-3.576 5.112-8.98 5.092-16.239v-53.966h-14.616v43.25h-11.798"/></g><path d="m-183.39 277.84l-.088-13.635h15.248l.001 13.664-15.17-.029" fill="#f60"/><path d="m-168.21 339.72h-15.316v-55.2l15.316-.019v55.22" fill="#044c98"/><g fill="#f60"><path d="m-58.29 284.56v11.04h10.311v27.05c.039 5.695 1.497 10.01 4.383 12.945 2.886 2.925 6.997 4.402 12.342 4.412h13.363v-11.04h-5.996c-3.664.029-6.181-.836-7.541-2.585-1.361-1.759-2-4.538-1.934-8.358v-22.42h15.472v-11.04h-15.472v-19.991h-14.616v19.991h-10.311"/><path d="m-15.4 284.56l23.47 55.44h15.783l24.617-55.44h-15.783l-16.308 39.35-15.365-39.35h-16.414"/></g><g transform="matrix(9.71842 0 0-9.71842-4899.61 7290.07)" clip-path="url(#0)" fill="#044c98"><path d="m0 0c.004-.194.071-.355.2-.483.129-.127.293-.194.492-.198.2.004.364.071.493.198.129.128.195.289.2.483-.005.2-.071.366-.2.498-.129.132-.293.2-.493.205-.199-.005-.363-.073-.492-.205-.129-.132-.196-.298-.2-.498" transform="translate(497.42 715.74)"/></g></g></svg>