<svg xmlns="http://www.w3.org/2000/svg" viewBox="0 0 600 498.62"><g transform="translate(-168.5-281.35)"><g fill="#fff"><path d="m411.23 281.35c1.989 1.075 3.433 2.856 5.01 4.42 3.714 3.698 7.404 7.428 11.142 11.11-4.997 4.572-9.562 9.577-14.455 14.262-2.8 3.064-6.06 5.703-8.679 8.944 6.08 6.361 12.425 12.465 18.626 18.714 2.438-1.861 4.628-4 6.61-6.353 2.206-1.781 4.091-3.89 6-5.992 3.152-2.423 5.358-5.815 8.567-8.182 5.102 5.03 10.139 10.115 15.209 15.176-6.778 7.02-13.845 13.749-20.607 20.783 6.61 7.54 14.294 14.07 21.01 21.521 7.548-7.973 15.457-15.594 23.24-23.334 5.326 5.198 10.652 10.42 15.77 15.826-13.604 13.709-27.393 27.24-40.933 41-17.471-18.02-35.543-35.479-53.16-53.34-11.527-11.206-22.612-22.837-34.26-33.922 9.265-8.551 17.832-17.824 26.936-26.551 4.564-4.789 9.409-9.297 13.973-14.09z"/><path d="m331.37 361.09c3.369-2.848 6.06-6.393 9.521-9.144 24.04 23.551 47.695 47.527 71.55 71.28 5.19-4.516 9.634-9.81 14.767-14.382 2.727-3.321 6.265-5.848 8.88-9.273 4.997 5.39 10.62 10.195 15.361 15.802-8.583 8.8-17.43 17.342-26.05 26.12-5.118 4.668-9.521 10.09-14.928 14.43-7.468-6.93-14.43-14.374-21.746-21.473-21.714-21.722-43.45-43.46-65.23-65.15 2.262-3.08 5.495-5.222 7.869-8.206"/><path d="m503.81 401.93c4.805-4.917 9.866-9.577 14.495-14.671 6.184 6.995 13.171 13.203 19.604 19.949 6.473 6.562 13.219 12.85 19.468 19.636-10.123 10.66-20.767 20.816-31.08 31.29-53.22 53.08-106.47 106.3-159.66 159.42-21.14 20.976-42.06 42.17-63.31 63.03-13.01-13.203-26.35-26.08-39.24-39.38 79.885-79.65 159.78-159.47 239.72-239.28z"/><path d="m275.99 416.48c5.832-5.848 11.751-11.607 17.487-17.543 5.96 6.866 12.874 12.81 19.1 19.42 17.471 17.479 35 34.853 52.47 52.38 7.837-7.797 15.618-15.65 23.495-23.398 3.473 2.43 5.775 6.06 9.136 8.623 2.053 2.39 4.251 4.636 6.754 6.57-7.155 6.658-13.781 13.813-20.848 20.543-6.65 7.03-13.853 13.524-20.382 20.679-20.848-20.824-41.687-41.647-62.54-62.43-8.15-8.358-16.676-16.34-24.666-24.842z"/><path d="m250.08 442.39c-7.524 7.259-14.799 14.807-22.259 22.14 1.717 2.11 3.245 4.36 4.592 6.718 15.297 23.438 30.598 46.869 45.902 70.31 6.01 9.449 12.441 18.63 18.249 28.22 6.337-5.928 12.489-12.07 18.449-18.369-5.39-7.677-10.965-15.241-16.283-22.981-1.275-1.66-2.92-3.201-3.529-5.254 4.757-4.5 9.241-9.277 13.997-13.777 9.489 6.361 18.63 13.207 28.01 19.713 3.345-2.254 5.535-5.739 8.703-8.202 2.936-3.553 6.73-6.249 9.546-9.906-4.195-3.441-9.1-5.868-13.476-9.04-23.01-14.928-46.02-29.872-69-44.88-7.692-4.781-15.06-10.131-22.901-14.679m4.712 26.993c4.04 2.358 7.271 5.771 11.17 8.322 8.623 6.995 17.976 12.999 26.671 19.873-3.08 3.08-6.02 6.293-9.345 9.124-9.65-12.329-18.12-25.552-28.496-37.32"/><path d="m556.8 476.61c13.444-3.754 27.858-3.562 41.27.217 6.02.979 11.318 4.091 16.837 6.473 12.979 7.05 24.06 17.567 31.66 30.25 2.687 5.495 6.02 10.797 7.131 16.909 4.564 13.989 3.987 29.24-.168 43.24-1.091 5.944-4.492 11.04-7.179 16.34-8.455 13.636-19.66 25.27-30.906 36.626-8.246 8.08-16.412 16.275-25.532 23.382-4.548 3.144-9.05 6.497-14.406 8.158-10.283 4.348-21.682 2.431-32.19.08 2.679 11.31 3.12 23.479-1.235 34.436-4.468 9.714-11.615 17.783-18.826 25.516-13.12 13.42-26.27 26.848-40.32 39.3-7.219 6.313-14.96 12.152-23.695 16.227-13.869 5.05-28.997 7.901-43.693 5.134-23.767-4.131-44.17-20.43-56.26-40.925-2.326-4.837-5.342-9.409-6.577-14.711-4.773-13.12-5.864-27.706-1.925-41.18 1.733-5.254 3.072-10.741 6.088-15.457 5.23-10.54 13.332-19.243 21.738-27.321 5.952-5.848 11.727-11.88 17.743-17.663 13.58 13.564 27.28 27 40.628 40.773-4.251 4.548-8.639 8.96-13.171 13.227-5.302 5.976-12.513 10.829-14.848 18.882-5.84 14.543 10.693 31.66 25.42 26.463 6.834-1.989 11.984-7.123 16.725-12.16 8.976-8.735 17.711-17.695 26.647-26.479 5.591-5.896 12.168-11.198 15.818-18.626 1.973-3.177 2.535-7.171 1.516-10.757-2.238-6.738-7.01-12.11-11.615-17.334-2.832-2.503-5.04-5.631-8.05-7.925 12.297-12.249 24.626-24.465 36.842-36.786 3.706 4.03 7.628 7.893 11.864 11.358 4.059 3.826 8.92 7.01 14.262 8.679 5.944 1.612 11.23-2.118 15.874-5.278 8.294-7.348 15.738-15.586 23.783-23.2 5.398-5.671 11.12-11.03 16.556-16.676 3.553-4.861 6.144-11.05 4.428-17.13-2.495-8.912-10.316-16.741-19.821-17.463-4.115-.433-8.09.979-11.807 2.575-4.604 2.743-7.949 7.03-11.848 10.62-5.35 5.527-10.957 10.789-16.251 16.372-5.904-6.754-12.674-12.698-18.858-19.18-2.053-2.471-4.773-4.267-6.666-6.866-5.43-4.684-9.914-10.316-15.393-14.936 9.93-9.497 19.14-19.733 29.487-28.773 3.433-2.743 7.179-5.102 10.909-7.42 5.84-2.711 11.583-5.92 18.02-6.995"/><path d="m198.2 498.09c6.666-2.102 13.797-.361 19.909 2.607 7.412 4.275 13.676 10.187 19.628 16.275-5.703 5.687-11.214 11.575-17.1 17.06-4.155-3.971-7.524-8.799-12.369-12.02-2.743-1.684-5.888-3.393-9.225-2.663-2.02.602-3.778 1.893-5.374 3.241-2.711 2.326-2.671 6.513-1.315 9.553 3.03 5.791 7.917 10.267 12.618 14.687 10.476 10.332 20.791 20.824 31.28 31.15 3.698 3.858 7.62 7.853 12.746 9.738 6.449 2.519 13.572-5.447 10.829-11.671-3.088-7.556-9.826-12.69-15.57-18.18 5.92-5.527 11.599-11.31 17.39-16.973 7.925 7.356 15.714 15.602 19.307 26.01 1.484 4.139 1.981 8.687.914 12.987-2.029 8.599-7.717 15.794-14.222 21.529-4.604 4.444-10.372 7.837-16.62 9.281-7.692 1.677-15.16-1.853-21.505-5.856-5.142-3.626-9.802-7.853-14.302-12.233-11.06-11.174-22.396-22.09-33.27-33.457-6.257-7.211-12.273-15.489-13.452-25.24v-3.321c.842-6.385 4.171-12.136 8.102-17.11 5.904-6.626 12.802-13.07 21.602-15.409z"/><path d="m703.45 572c-21.834 21.594-43.42 43.44-65.27 65.01 21.786 21.722 43.576 43.43 65.31 65.19 14.342-14.888 29.28-29.21 43.757-43.957 7.163-6.906 13.965-14.198 21.257-20.976v-.341c-21.794-21.529-43.45-43.2-65.05-64.933"/></g><g fill="#000"><path d="m553.47 337.34c-3.74.03-7.55.34-11.16.1 0 12.17.02 24.36.03 36.53 6.09-.19 12.23.38 18.28-.41 4.85-1.14 9.86-3.64 12.32-8.18 5.69-7.91 2.87-20.47-5.78-24.97-4.17-2.66-8.89-3.1-13.69-3.07m1.28 8.57c3.45 0 6.96.54 9.44 3.06 2.64 3.87 2.68 9.5.09 13.41-3.22 3.53-8.55 3.06-12.9 3.09-.05-6.48 0-12.96-.04-19.44 1.09-.06 2.26-.13 3.41-.12" transform="translate(168.5 281.35)"/><path d="m700.62 618.76c.04 12.184.004 24.353.02 36.537-2.984-.024-5.948-.016-8.924 0-.016-4.733-.012-9.465-.02-14.198-4.283.008-8.559 0-12.834 0 0 4.725.008 9.445 0 14.178-2.976 0-5.956.012-8.924.02.008-12.168.008-24.349 0-36.517 2.976-.008 5.968-.012 8.944.02-.024 4.652.004 9.325-.02 13.977 4.283 0 8.563-.016 12.854 0-.008-4.668-.008-9.329 0-13.997 2.968.016 5.928.02 8.904-.02"/></g></g></svg>