<svg xmlns="http://www.w3.org/2000/svg" viewBox="0 0 640 310"><g transform="matrix(3.32889 0 0 3.32889-10.785-11.56)"><g transform="matrix(1.12852 0 0 1.12852 46.607 19.224)" stroke="#0d3594" stroke-linejoin="round" stroke-linecap="square" stroke-width="1.329"><g fill="#fff"><path d="m-4.18-11.156c-3.545.005-6.37 2.228-7.75 4.875-.69 1.323-1.059 2.79-.906 4.188.168 1.533 1.039 2.643 2.156 3.625.395.348 1.036.249 1.375-.156.339-.406.291-1.012-.094-1.375-.654-.654-.675-1.386 0-2.25.675-.864 2.189-1.719 4.656-1.719 2.402 0 4.199.884 5.75 2.469 1.551 1.584 2.803 3.913 3.781 6.625 1.956 5.424 2.85 12.395 3.688 18.12.223 1.528 1.097 2.963 2.219 4.03-1.122 1.069-1.995 2.503-2.219 4.03-.838 5.73-1.732 12.701-3.688 18.12-.978 2.712-2.23 5.04-3.781 6.625-1.551 1.584-3.348 2.469-5.75 2.469-2.467 0-3.981-.854-4.656-1.719-.675-.864-.654-1.596 0-2.25.385-.363.433-.969.094-1.375-.339-.406-.98-.504-1.375-.156-1.117.982-1.989 2.092-2.156 3.625-.153 1.398.216 2.864.906 4.188 1.38 2.647 4.205 4.87 7.75 4.875 5.546.008 9.819-2.767 12.844-6.75 3.02-3.983 4.889-9.157 6-14.281.853-3.935 1.713-7.818 2.594-10.875.44-1.529.902-2.837 1.344-3.844.441-1.01.896-1.693 1.156-1.906.237-.19.375-.477.375-.781 0-.304-.138-.591-.375-.781-.26-.213-.715-.899-1.156-1.906-.441-1.01-.903-2.315-1.344-3.844-.881-3.057-1.74-6.94-2.594-10.875-1.111-5.125-2.975-10.299-6-14.281-3.02-3.983-7.297-6.758-12.844-6.75z"/><path d="m-20.281-12.781c-.498.017-.991.122-1.469.344-.412.187-.648.626-.575 1.073.073.446.437.788.887.833.864.069 1.44.337 1.875.875.435.538.781 1.452.781 2.969v67.906c0 1.517-.346 2.43-.781 2.969-.435.538-1.01.806-1.875.875-.45.045-.814.387-.887.833-.073.446.162.886.575 1.073 1.872.869 3.983.042 5.594-1.281 1.611-1.323 2.875-3.255 2.875-5.344v-66.16c0-1.826-.974-3.527-2.281-4.813-1.307-1.285-2.986-2.214-4.719-2.156z"/></g><path d="m-2.156 2.938c-9.11 0-14.995 2.616-19.313 6.281-4.318 3.665-7.07 8.276-10.188 12.313-.448.58-1.113.888-1.844 1-.731.112-1.507.015-1.906-.156-.349-.154-.77-.09-1.063.156-.292.246-.405.629-.313 1 .272 1.015.979 1.641 1.781 2.094-.824.425-1.505 1.218-1.781 2.25-.092.371.02.754.313 1 .292.246.713.311 1.063.156.399-.171 1.175-.269 1.906-.156.731.112 1.396.42 1.844 1 3.115 4.04 5.87 8.647 10.188 12.313.836.71 1.722 1.38 2.688 2v-4.781c-2.307-2.302-3.868-5.206-4.875-8.656-.661-2.266-2.688-4.321-5.125-5.063 2.432-.744 4.465-2.769 5.125-5.03 1.331-4.559 3.644-8.167 7.344-10.688 3.7-2.52 8.84-3.969 15.875-3.969 2.051 0 3.945.228 5.719.594-.156-.498-.328-.993-.5-1.469-.214-.593-.447-1.166-.688-1.719-.004-.009.004-.022 0-.031-1.908-.291-3.983-.438-6.25-.438zm15.938 3.438c.335 1.156.622 2.334.875 3.5.053.243.103.477.156.719 2.104 1.403 3.939 3 5.531 4.594.526.526 1.116 1.343 1.344 2.188.228.845.17 1.662-.5 2.563-.265.346-.281.83-.031 1.188.25.357.709.506 1.125.375.223-.068.327-.28.531-.375.658-.305 1.319-.614 1.75-1.156.449-.565.763-1.287 1.063-2.031 3-.4 5.087-2.699 5.281-5 .052-.454-.197-.9-.625-1.063-.428-.162-.925 0-1.188.375-.628.88-1.443 1.438-3.406 1.438-.698 0-1.734-.522-3.094-1.5-1.359-.978-3-2.341-5.125-3.719-1.095-.71-2.323-1.429-3.688-2.094zm8.188 23.469c-.316.003-.625.169-.813.438-.25.357-.234.841.031 1.188.67.9.728 1.718.5 2.563-.228.845-.818 1.661-1.344 2.188-4.586 4.586-11.05 9.188-20.781 9.188-5.29 0-9.503-.803-12.844-2.281v3.688c3.079 1.041 6.732 1.656 11.125 1.656 9.264 0 15.377-2.775 19.625-5.531 2.124-1.378 3.766-2.741 5.125-3.719 1.359-.978 2.396-1.5 3.094-1.5 1.963 0 2.779.558 3.406 1.438.263.375.76.537 1.188.375.428-.162.677-.608.625-1.063-.194-2.302-2.282-4.573-5.281-4.969-.298-.744-.585-1.461-1.031-2.031-.431-.55-1.117-.877-1.781-1.188-.202-.094-.31-.308-.531-.375-.104-.033-.207-.064-.313-.063z" fill="#f9f9f9"/></g><path d="m113.76 26.02l-.543 1.204c-1.661.913-3.519 1.37-5.574 1.37-4.11 0-6.921-1.48-8.433-4.44-.701-1.37-1.051-2.854-1.051-4.452 0-2.582.858-4.641 2.575-6.176 1.756-1.582 4.153-2.373 7.192-2.373 1.929 0 3.815.35 5.657 1.051l.154.177c-.268 1.086-.433 2.358-.496 3.814l-.106.118h-.697l-.118-.13c-.024-.953-.067-1.614-.13-1.984-.984-1.11-2.405-1.665-4.264-1.665-1.913 0-3.413.606-4.5 1.818-1.087 1.212-1.63 2.858-1.63 4.936 0 2.81.968 4.967 2.905 6.471 1.031.803 2.413 1.204 4.145 1.204 1.575 0 3.114-.405 4.618-1.216l.295.272m12.306 1.996l-.13.13c-.661-.039-1.421-.059-2.279-.059-.669 0-1.311.02-1.925.059l-.106-.13.106-1.582-2.291 1.748c-.181.134-.441.216-.779.248-.134.016-.291.024-.472.024-.874 0-1.545-.264-2.01-.791-.468-.527-.703-1.256-.703-2.185 0-1.228.39-2.098 1.169-2.61.842-.559 2.539-1.063 5.09-1.511 0-1.252-.331-2.09-.992-2.515-.402-.26-.882-.39-1.441-.39-.614 0-1.098.126-1.453.378l-.449 1.098-.154.083-.602-.142-.083-.165.059-1.393c1.299-.96 2.275-1.504 2.929-1.63.276-.055.634-.083 1.075-.083 1.551 0 2.657.405 3.319 1.216.48.59.72 1.496.72 2.716 0 .299-.012.779-.035 1.441-.039 1.102-.059 1.838-.059 2.208 0 1.189.02 1.946.059 2.273.039.327.132.533.278.62.146.087.494.138 1.045.154l.118.13v.661m-4.334-2.751v-2.905c-1.299.283-2.175.588-2.628.915-.453.327-.679.825-.679 1.494 0 1.071.468 1.606 1.405 1.606.795 0 1.429-.37 1.901-1.11m25.853 2.763l-.118.13c-.457-.047-1.268-.071-2.433-.071-.968 0-1.657.024-2.067.071l-.165-.224c.126-1.96.189-3.389.189-4.286v-1.075c0-1.157-.035-1.933-.106-2.326-.087-.472-.283-.85-.591-1.134-.307-.283-.724-.425-1.252-.425-.591 0-1.083.165-1.476.496-.394.331-.591.752-.591 1.263v3.519l.047 1.866c.016.504.059.834.13.992.047.102.154.177.319.224.142.039.524.091 1.146.154l.13.118v.708l-.142.13c-.953-.047-1.917-.071-2.894-.071-1.213 0-2.252.024-3.118.071l-.13-.13v-.697l.118-.142c.496-.047.839-.091 1.028-.13.142-.031.244-.15.307-.354.047-.15.075-.586.083-1.311l.024-3.814c0-.882-.067-1.511-.201-1.889-.11-.299-.319-.547-.626-.744-.276-.181-.638-.272-1.087-.272-.709 0-1.272.236-1.689.708-.197.22-.313.398-.348.531-.035.134-.053.429-.053.886v2.562c0 .504.016 1.157.047 1.96.031.827.063 1.307.095 1.441.047.165.179.277.396.337.217.059.545.093.986.1l.118.118v.72l-.118.118c-.669-.047-1.669-.071-3-.071-1.409 0-2.484.028-3.224.083l-.118-.118v-.72l.118-.118c.756-.024 1.224-.083 1.405-.177.157-.071.244-.26.26-.567.055-1.023.083-2.122.083-3.294v-1.689c0-1.574-.059-2.48-.177-2.716-.079-.157-.248-.256-.508-.295-.095-.016-.437-.035-1.028-.059l-.118-.118v-.661l.118-.13c1.417-.134 2.909-.461 4.476-.98l.26.154-.024 1.877 2.102-1.7c.386-.173.842-.26 1.37-.26.905 0 1.61.148 2.114.443.504.295.909.813 1.216 1.553l2.149-1.736c.386-.181.854-.272 1.405-.272 1.52 0 2.575.551 3.165 1.653.26.488.39 1.236.39 2.244 0 .417-.004.728-.012.933l-.012.449c-.016.378-.024.63-.024.756v1.535c0 1.189.02 1.946.059 2.273.039.327.13.533.272.62.142.087.543.138 1.205.154l.118.13v.697m11.775-6.565c0 .134-.004.335-.012.602l-.13.165c-1.039.283-2.417.425-4.134.425-.307 0-.772.006-1.394.018-.622.012-1.09.018-1.405.018.047 1.157.405 2.114 1.075 2.869.701.811 1.614 1.216 2.74 1.216.756 0 1.653-.26 2.693-.779l.283.342-.52 1.169c-1.15.732-2.398 1.098-3.744 1.098-1.772 0-3.147-.5-4.128-1.5-.98-1-1.47-2.425-1.47-4.275 0-2.196.524-3.7 1.571-4.511 1.449-1.118 2.823-1.677 4.122-1.677 1.409 0 2.5.405 3.271 1.216.787.834 1.181 2.035 1.181 3.601m-3.082-.307c0-2.125-.661-3.188-1.984-3.188-1.394 0-2.09 1.055-2.09 3.165v.26c.457.071 1.268.106 2.433.106.606 0 1.15-.035 1.63-.106.008-.11.012-.189.012-.236m13.322-4.475l-.083 2.102c-.008.346-.024.74-.047 1.181l-.496.154c-.37-.535-.882-.803-1.535-.803-.591 0-1.079.236-1.464.708-.236.291-.354.72-.354 1.287v2.763c0 .575.028 1.374.083 2.397.016.291.098.48.248.567.15.087.697.146 1.642.177l.118.106v.72l-.118.118c-1.157-.047-2.307-.071-3.449-.071-1.409 0-2.484.028-3.224.083l-.118-.118v-.72l.118-.118c.756-.024 1.224-.083 1.405-.177.157-.071.244-.26.26-.567.055-1.023.083-2.122.083-3.294v-1.689c0-1.574-.059-2.48-.177-2.716-.079-.157-.248-.256-.508-.295-.095-.016-.437-.035-1.028-.059l-.118-.118v-.661l.118-.13c1.417-.134 2.909-.461 4.476-.98l.26.154-.024 2.314c.488-.567 1.079-1.228 1.772-1.984.323-.315.764-.472 1.323-.472.331 0 .61.047.839.142m11.55 11.336l-.13.13c-.661-.039-1.421-.059-2.279-.059-.669 0-1.311.02-1.925.059l-.106-.13.106-1.582-2.291 1.748c-.181.134-.441.216-.779.248-.134.016-.291.024-.472.024-.874 0-1.545-.264-2.01-.791-.468-.527-.703-1.256-.703-2.185 0-1.228.39-2.098 1.169-2.61.842-.559 2.539-1.063 5.09-1.511 0-1.252-.331-2.09-.992-2.515-.402-.26-.882-.39-1.441-.39-.614 0-1.098.126-1.453.378l-.449 1.098-.154.083-.602-.142-.083-.165.059-1.393c1.299-.96 2.275-1.504 2.929-1.63.276-.055.634-.083 1.075-.083 1.551 0 2.657.405 3.319 1.216.48.59.72 1.496.72 2.716 0 .299-.012.779-.035 1.441-.039 1.102-.059 1.838-.059 2.208 0 1.189.02 1.946.059 2.273.039.327.132.533.278.62.146.087.494.138 1.045.154l.118.13v.661m-4.334-2.751v-2.905c-1.299.283-2.175.588-2.628.915-.453.327-.679.825-.679 1.494 0 1.071.468 1.606 1.405 1.606.795 0 1.429-.37 1.901-1.11m-64.745 29.982l-.118.118c-.772-.055-1.468-.083-2.09-.083-.591 0-1.39.028-2.397.083l-.106-.083c.031-.386.047-1.031.047-1.937-.283.236-.689.598-1.216 1.086-.654.606-1.079.968-1.276 1.086-.252.118-.661.177-1.228.177-1.346 0-2.433-.508-3.26-1.523-.827-1.015-1.24-2.33-1.24-3.944 0-1.567.319-2.787.957-3.661.165-.228.653-.634 1.464-1.216.945-.677 1.634-1.106 2.067-1.287.378-.157.858-.236 1.441-.236.819 0 1.583.173 2.291.52v-.661c0-2.07-.051-3.291-.154-3.661-.055-.205-.217-.331-.484-.378-.126-.024-.488-.047-1.087-.071l-.118-.13v-.649l.118-.13c1.512-.157 3.035-.484 4.571-.98l.26.142c0 .032-.016.421-.047 1.169-.071 1.693-.106 4.235-.106 7.628v3.814c0 2.212.051 3.428.154 3.649.063.134.15.216.26.248.173.055.567.106 1.181.154l.118.118v.638m-4.665-6.164v-2.22c-.567-.677-1.11-1.11-1.63-1.299-.354-.126-.732-.189-1.134-.189-1.087 0-1.787.559-2.102 1.677-.173.622-.26 1.315-.26 2.078 0 1.63.382 2.838 1.146 3.625.402.417.941.626 1.618.626.559 0 1.079-.177 1.559-.531.433-.315.689-.653.768-1.016.024-.11.035-1.027.035-2.751m16.523-.425c0 .134-.004.335-.012.602l-.13.165c-1.039.283-2.417.425-4.134.425-.307 0-.772.006-1.394.018-.622.012-1.09.018-1.405.018.047 1.157.405 2.114 1.075 2.869.701.811 1.614 1.216 2.74 1.216.756 0 1.653-.26 2.693-.779l.283.342-.52 1.169c-1.15.732-2.397 1.098-3.744 1.098-1.772 0-3.147-.5-4.128-1.5-.98-1-1.47-2.425-1.47-4.275 0-2.196.524-3.7 1.571-4.511 1.449-1.118 2.823-1.677 4.122-1.677 1.409 0 2.5.405 3.271 1.216.787.834 1.181 2.035 1.181 3.601m-3.082-.307c0-2.125-.661-3.188-1.984-3.188-1.394 0-2.09 1.055-2.09 3.165v.26c.457.071 1.268.106 2.433.106.606 0 1.15-.035 1.63-.106.008-.11.012-.189.012-.236m9.684-8.514c0 .504-.177.935-.531 1.293-.354.358-.779.537-1.276.537-.504 0-.933-.179-1.287-.537-.354-.358-.531-.789-.531-1.293 0-.52.179-.956.537-1.311.358-.354.785-.531 1.281-.531.488 0 .911.177 1.27.531.358.354.537.791.537 1.311m1.63 15.41l-.118.118c-.748-.055-1.827-.083-3.236-.083-1.409 0-2.484.028-3.224.083l-.118-.118v-.72l.118-.118c.756-.024 1.224-.083 1.405-.177.157-.071.244-.26.26-.567.055-1.023.083-2.122.083-3.294v-1.689c0-1.527-.059-2.432-.177-2.716-.063-.157-.232-.256-.508-.295-.094-.016-.437-.035-1.028-.059l-.118-.118v-.661l.118-.13c1.512-.134 3.035-.461 4.571-.98l.248.154c-.102 1.433-.154 2.641-.154 3.625v3.767c0 .575.028 1.374.083 2.397.016.307.102.496.26.567.181.094.65.154 1.405.177l.13.118v.72m-16.12 17.894c0 2.669-.87 4.881-2.61 6.636-.85.858-1.882 1.523-3.094 1.996-1.299.512-2.815.752-4.547.72l-4.169-.071c-1.134-.016-2.071.008-2.811.071l-.118-.118v-.331l.059-.142c.583-.37.898-.602.945-.697.071-.142.114-.665.13-1.57l.035-2.645v-5.987c0-1.874-.051-3.094-.154-3.661-.039-.228-.173-.374-.402-.437-.118-.031-.579-.071-1.382-.118l-.118-.118v-.803l.118-.106c.835.047 1.63.071 2.386.071 1.835 0 3.488-.024 4.96-.071.732-.024 1.468-.035 2.209-.035 2.047 0 3.618.232 4.712.697 1.197.512 2.134 1.315 2.811 2.409.693 1.126 1.039 2.562 1.039 4.31m-3.626.567c0-2.181-.528-3.857-1.583-5.03-.551-.614-1.24-1.047-2.067-1.299-.787-.236-1.886-.354-3.295-.354-.732 0-1.433.051-2.102.154-.079.882-.118 3.02-.118 6.4l.024 5.16c.008 1.149.039 1.913.094 2.291.693.11 1.401.165 2.126.165 1.567 0 2.803-.228 3.708-.685.976-.496 1.752-1.338 2.327-2.527.59-1.228.886-2.653.886-4.275m16 2.09c0 .134-.004.335-.012.602l-.13.165c-1.039.283-2.417.425-4.134.425-.307 0-.772.006-1.394.018-.622.012-1.09.018-1.405.018.047 1.157.405 2.114 1.075 2.869.701.811 1.614 1.216 2.74 1.216.756 0 1.653-.26 2.693-.779l.283.342-.52 1.169c-1.15.732-2.397 1.098-3.744 1.098-1.772 0-3.147-.5-4.128-1.5-.98-1-1.47-2.425-1.47-4.275 0-2.196.524-3.7 1.571-4.511 1.449-1.118 2.823-1.677 4.122-1.677 1.409 0 2.5.405 3.271 1.216.787.834 1.181 2.035 1.181 3.601m-3.082-.307c0-2.125-.661-3.188-1.984-3.188-1.394 0-2.09 1.055-2.09 3.165v.26c.457.071 1.268.106 2.433.106.606 0 1.15-.035 1.63-.106.008-.11.012-.189.012-.236m17.586.083c0 .968-.173 1.893-.52 2.775-.252.646-.583 1.193-.992 1.641-.181.197-.52.48-1.016.85-.52.417-1.169.921-1.949 1.511-.465.307-1.055.461-1.772.461-.685 0-1.37-.126-2.055-.378v4.428c0 .362.043.602.13.72.047.063.154.114.319.154.126.031.63.079 1.512.142l.13.118v.732l-.118.118c-1.063-.063-2.272-.094-3.626-.094-.992 0-1.984.031-2.976.094l-.118-.118v-.708l.118-.13c.795-.024 1.252-.087 1.37-.189.079-.071.126-.146.142-.224.031-.15.063-.535.095-1.157.024-.472.039-1.075.047-1.807l.024-1.83v-6.861c0-.079-.024-.661-.071-1.748-.024-.512-.065-.84-.124-.986-.059-.146-.222-.238-.49-.277-.095-.016-.441-.035-1.039-.059l-.118-.118v-.661l.118-.13c1.504-.134 3.03-.461 4.571-.98l.26.154c0 .339-.035 1.019-.106 2.043.528-.441 1.193-.988 1.996-1.641.386-.291.98-.437 1.783-.437 1.953 0 3.283.748 3.992 2.244.323.685.484 1.468.484 2.35m-3.035 1.452c0-1.716-.453-2.873-1.358-3.472-.48-.315-.98-.472-1.5-.472-.968 0-1.772.398-2.409 1.193v5.857c.716.756 1.504 1.134 2.362 1.134 1.283 0 2.142-.665 2.575-1.996.22-.669.331-1.417.331-2.244m18.353 5.337l-.118.118c-1.181-.039-1.925-.059-2.232-.059-.26 0-.646.001-1.157.03-.512.02-.894.03-1.146.03l-.095-.094c.063-.646.095-1.26.095-1.842-.409.307-1.126.96-2.149 1.96-.512.197-1.059.295-1.642.295-1.063 0-1.901-.289-2.516-.868-.614-.579-.921-1.411-.921-2.497 0-.134.008-.417.024-.85.016-.433.024-.85.024-1.252v-1.511c0-1.559-.059-2.464-.177-2.716-.079-.157-.248-.256-.508-.295-.095-.016-.441-.035-1.039-.059l-.118-.118v-.661l.118-.13c1.504-.134 3.03-.461 4.571-.98l.26.154c-.102 1.307-.154 2.515-.154 3.625v2.303c0 1.078.035 1.815.106 2.208.079.472.266.831.561 1.075.295.244.691.366 1.187.366.614 0 1.153-.197 1.618-.59.441-.394.673-.842.697-1.346.016-.386.024-.626.024-.72v-2.114c0-1.543-.059-2.448-.177-2.716-.071-.157-.236-.256-.496-.295-.095-.016-.441-.035-1.039-.059l-.13-.118v-.661l.13-.13c1.496-.134 3.02-.461 4.571-.98l.248.154c-.102 1.181-.154 2.389-.154 3.625v3.708c0 1.661.047 2.602.142 2.822.047.11.126.181.236.213.189.055.598.102 1.228.142l.13.118v.72m8.468-1.488c-.055.063-.224.228-.508.496-.465.441-.862.842-1.193 1.204-.386.126-.776.189-1.169.189-1.094 0-1.894-.319-2.397-.956-.213-.276-.354-.594-.425-.956-.079-.433-.114-1-.106-1.7l.035-2.822v-2.952h-.319l-.626.024h-.484l-.13-.106v-.307l.095-.177c.142-.094.362-.236.661-.425.354-.22.622-.405.803-.555v-1.606c0-.669-.031-1.378-.095-2.125.591-.189 1.069-.356 1.435-.502.366-.146.884-.384 1.553-.714l.307.236c-.095.976-.161 1.85-.201 2.621l-.106 2.043h.39c.858 0 1.598-.028 2.22-.083l.13.13-.165 1.382-.118.118h-2.457v4c0 1.283.016 2.039.047 2.267.039.331.179.598.419.803.24.205.565.307.974.307.323 0 .713-.087 1.169-.26l.26.425m11.751 1.476l-.13.13c-.661-.039-1.421-.059-2.279-.059-.669 0-1.311.02-1.925.059l-.106-.13.106-1.582-2.291 1.748c-.181.134-.441.216-.779.248-.134.016-.291.024-.472.024-.874 0-1.545-.264-2.01-.791-.468-.527-.703-1.256-.703-2.185 0-1.228.39-2.098 1.169-2.61.842-.559 2.539-1.063 5.09-1.511 0-1.252-.331-2.09-.992-2.515-.402-.26-.882-.39-1.441-.39-.614 0-1.098.126-1.453.378l-.449 1.098-.154.083-.602-.142-.083-.165.059-1.393c1.299-.96 2.275-1.504 2.929-1.63.276-.055.634-.083 1.075-.083 1.551 0 2.657.405 3.319 1.216.48.59.72 1.496.72 2.716 0 .299-.012.779-.035 1.441-.039 1.102-.059 1.838-.059 2.208 0 1.189.02 1.946.059 2.273.039.327.132.533.278.62.146.087.494.138 1.045.154l.118.13v.661m-4.334-2.751v-2.905c-1.299.283-2.175.588-2.628.915-.453.327-.679.825-.679 1.494 0 1.071.468 1.606 1.405 1.606.795 0 1.429-.37 1.901-1.11m12.755 1.275c-.055.063-.224.228-.508.496-.465.441-.862.842-1.193 1.204-.386.126-.776.189-1.169.189-1.094 0-1.894-.319-2.397-.956-.213-.276-.354-.594-.425-.956-.079-.433-.114-1-.106-1.7l.035-2.822v-2.952h-.319l-.626.024h-.484l-.13-.106v-.307l.095-.177c.142-.094.362-.236.661-.425.354-.22.622-.405.803-.555v-1.606c0-.669-.031-1.378-.095-2.125.591-.189 1.069-.356 1.435-.502.366-.146.884-.384 1.553-.714l.307.236c-.095.976-.161 1.85-.201 2.621l-.106 2.043h.39c.858 0 1.598-.028 2.22-.083l.13.13-.165 1.382-.118.118h-2.457v4c0 1.283.016 2.039.047 2.267.039.331.179.598.419.803.24.205.565.307.974.307.323 0 .713-.087 1.169-.26l.26.425m5.964-13.898c0 .504-.177.935-.531 1.293-.354.358-.779.537-1.276.537-.504 0-.933-.179-1.287-.537-.354-.358-.531-.789-.531-1.293 0-.52.179-.956.537-1.311.358-.354.785-.531 1.281-.531.488 0 .911.177 1.27.531.358.354.537.791.537 1.311m1.63 15.41l-.118.118c-.748-.055-1.827-.083-3.236-.083-1.409 0-2.484.028-3.224.083l-.118-.118v-.72l.118-.118c.756-.024 1.224-.083 1.405-.177.157-.071.244-.26.26-.567.055-1.023.083-2.122.083-3.294v-1.689c0-1.527-.059-2.432-.177-2.716-.063-.157-.232-.256-.508-.295-.095-.016-.437-.035-1.028-.059l-.118-.118v-.661l.118-.13c1.512-.134 3.035-.461 4.571-.98l.248.154c-.102 1.433-.154 2.641-.154 3.625v3.767c0 .575.028 1.374.083 2.397.016.307.102.496.26.567.181.094.65.154 1.405.177l.13.118v.72" fill="#0d3594"/></g></svg>