<svg xmlns="http://www.w3.org/2000/svg" viewBox="0 0 599.99998 125.37933"><g transform="translate(-58.62-244.93)"><g fill="#24265d" color-rendering="auto" shape-rendering="auto" color-interpolation-filters="linearRGB" image-rendering="auto" color-interpolation="sRGB" color="#000"><path d="m588.26 244.95l-21.715 21.729v35.764l16.508 17.322h36.871v16.699h-15.422v-10.438h-37.957v22.574l21.715 21.715h48.648l21.715-21.715v-.1-42.514l-15.311-16.502h-38.811v-10.492h15.422v6.854h37.971v-20.539l-19.805-20.357h-49.83" mix-blend-mode="normal" isolation="auto" white-space="normal" solid-opacity="1" solid-color="#000000"/><path d="m458.99 244.93v34.04h8.775v68.68l21.713 22.623h46.28l22.17-22.621v-68.69h9.777v-.24-33.803h-58.05-.48-50.18m45.635 31.928h4.545.48 9.393v59.57h-14.418v-59.57" mix-blend-mode="normal" isolation="auto" white-space="normal" solid-opacity="1" solid-color="#000000"/><path d="m371.82 244.93v34.04h8.871v57.47h-8.871v33.836h55.781v-33.836h-9.406v-5.658h30.939l21.52-22.445v-.096-40.482l-21.518-22.832h-77.32m46.514 33.803h14.617v18.463h-14.617v-18.463" mix-blend-mode="normal" isolation="auto" white-space="normal" solid-opacity="1" solid-color="#000000"/><path d="m247.71 244.93v34.06h8.857v57.46h-8.857v33.852h52.4v-33.852h-8.871v-27.863l13.342 22.398h16.725l13.521-22.408v27.873h-9.05v33.852h52.582v-.242-33.609h-8.596v-57.46h8.596v-34.06h-43.43l-21.984 38.17-21.805-38.17h-43.43" mix-blend-mode="normal" isolation="auto" white-space="normal" solid-opacity="1" solid-color="#000000"/><path d="m182.55 244.93l-29.648 91.51h-11.326v33.852h51.24v-31.93h-7.605l2.049-6.633h23.494l1.881 6.633h-7.967v31.93h52.951v-.242-33.609h-11.12l-28.467-91.51h-35.48m16.189 49.723h.518l3.281 9.361h-7.246l3.447-9.361" mix-blend-mode="normal" isolation="auto" white-space="normal" solid-opacity="1" solid-color="#000000"/><path d="m80.71 244.95l-22.09 21.424v81.29l22.08 22.623h45.557l23.723-22.619v-.102-29.23h-37.971v18.1h-15.436v-57.46h15.436v15.08h37.971v-26.303l-21.531-22.805h-47.744" mix-blend-mode="normal" isolation="auto" white-space="normal" solid-opacity="1" solid-color="#000000"/></g><g fill="#fff"><path d="m138.5 342.72v-13.252h-14.982v10.794l-7.141 7.306h-23.949l-7.306-7.306v-66.11l7.306-6.289h23.949l7.141 6.331v8.94h14.982v-11.659l-15.367-15.422h-37.833l-15.16 15.367v71.3l15.16 16.452h36.57l16.63-16.452"/><path d="m366.88 359.18v-11.604h-8.226v-79.7h8.226v-11.81h-25.886l-28.06 46.993-27.314-46.993h-26.435v11.81h8.418v79.7h-8.418v11.604h29.442v-11.604h-8.418v-78.44l29.346 50.55h6.578l29.525-50.55v78.44h-8.404v11.604h29.621"/><path d="m383.32 256.05v11.795h8.871v79.72h-8.871v11.617h32.807v-11.617h-9.04v-27.877h36.734l15.365-15.367v-32.533l-15.365-15.736h-60.51m23.592 11.795h30.514l6.783 6.496v27.328l-6.783 6.592h-30.514v-40.42"/><path d="m556.23 267.86v-11.796h-30.898v11.796h5.754v73.22l-6.866 6.495h-24.581l-6.495-6.495v-73.22h5.205v-11.796h-28.962v11.796h8.761v75.954l15.174 15.353h37.764l15.188-15.353v-75.954h9.956"/><path d="m646.39 343.27v-32.532l-11.07-11.07h-38.22l-4.106-4.298v-21.22l6.949-6.317h24.32l7.127 6.317v1.936h14.996v-4.669l-15.174-15.367h-38.22l-14.982 15.367v26.325l10.505 11.782h38.945l3.927 4.394v26.682l-7.127 7.869h-24.32l-6.949-7.869v-5.03h-14.982v7.69l14.982 15.902h38.03l15.367-15.902"/><path d="m190.46 256.05l-30.25 91.51h-7.127v11.604h28.25v-11.604h-9.777l8.309-24.293h37.943l7.855 24.293h-9.504v11.604h30.17v-11.604h-7.869l-29.07-91.51h-18.924m7.676 11.811h2.295l14.445 45.879h-31.914l15.174-45.879"/></g></g></svg>