<svg xmlns="http://www.w3.org/2000/svg" height="321.39" width="600" viewBox="0 0 158.75 85.034485"><g transform="translate(-65.768-112.36)"><path d="m96.37 141.59l-1.32-10.24-4.24 10.24h-1.83l-4.03-10.24-1.5 10.24h-4.56l2.99-17.78h4.52l3.57 9.48 3.77-9.48h4.53l2.672 17.78z"/><path d="m115.01 136.68q0 4.89-6.36 4.91-6.37 0-6.37-4.91v-7.61h4.21v6.81q0 2.2 2.16 2.2 2.14 0 2.14-2.2v-6.81h4.22z"/><path d="m117.7 141.59v-19.38h4.22v19.38z"/><path d="m128.94 133.13v8.46h-4.22v-8.46h-1.39v-3.54h1.39v-3.6h4.22v3.6h2.41v3.54z"/><path d="m132.68 141.59v-12h4.22v12zm4.49-16.38q0 .51-.18.94-.19.42-.52.76-.33.33-.76.5-.46.17-.93.17-.93 0-1.66-.68-.71-.72-.71-1.67 0-.49.19-.95.19-.45.51-.77.31-.31.75-.51.44-.19.92-.19.49 0 .93.19.44.2.76.51.33.34.52.76.18.43.18.94"/><path d="m145.84 121.97c-1.3 0-2.49.46-3.56 1.38-1.08.94-1.64 1.96-1.69 3.06l-.07 1.54v1.64h-1.52v3.54h1.52v8.46h4.22v-8.46h2.96v-3.54h-2.96v-2.23c0-1.12.5-1.69 1.5-1.69.37 0 .86.15 1.46.43v-3.67c-.61-.31-1.23-.46-1.86-.46"/><path d="m155.07 127.31-1.95-1.44 3.33-4.1 2.68 1.94zm6.35 9.37q0 4.89-6.35 4.91-6.38 0-6.38-4.91v-7.61h4.22v6.81q0 2.2 2.16 2.2 2.13 0 2.13-2.2v-6.81h4.22z"/><path d="m168.63 133.13v8.46h-4.21v-8.46h-1.39v-3.54h1.39v-3.6h4.21v3.6h2.42v3.54z"/><path d="m186.15 135.19c0 1.77-.58 3.29-1.74 4.55-1.15 1.24-2.59 1.85-4.31 1.85-1.41 0-2.49-.4-3.24-1.21l-.21-.21c-.07-.07-.15-.17-.24-.29v1.33h-4.22v-19.38h4.22v8.56c.2-.22.39-.4.57-.52.82-.69 1.88-1.04 3.16-1.04 1.75 0 3.19.62 4.32 1.87 1.12 1.23 1.69 2.73 1.69 4.49m-4.39.05c0-.78-.26-1.43-.79-1.95-.53-.54-1.18-.8-1.93-.8-.77 0-1.41.26-1.94.8-.54.52-.8 1.16-.8 1.92 0 .78.26 1.43.8 1.95.53.52 1.18.78 1.94.78.72 0 1.35-.26 1.9-.78.55-.55.82-1.2.82-1.92"/><path d="m201.61 135.14q0 3.01-2.19 4.79-2.02 1.66-5.02 1.66-3.12 0-5.16-1.77-2.03-1.81-2.03-4.56 0-3.05 2.13-4.86 1.99-1.71 4.99-1.71 3.25 0 5.24 1.8 2.04 1.82 2.04 4.65m-4.48-.02q0-1.16-.8-1.95-.8-.81-1.93-.81-1.11 0-1.91.81-.81.81-.81 1.93 0 .57.22 1.07.21.51.57.89.35.38.87.6.5.21 1.06.21 1.13 0 1.93-.81t.8-1.94"/><path d="m203.33 141.59v-19.38h4.22v19.38z"/><path d="m65.768 112.36v38.79h11.4v7.73h11.94v-7.73h135.41v-38.79zm4.22 4.22h150.32v30.36h-135.41v7.72h-3.512v-7.72h-11.4z" stroke-width=".265"/><path d="m121.86 150.83h46.57v46.57h-46.57z" fill="#0feb0f"/><path d="m131.16 191.73l8.83-9.24q1.73-1.8 3.35-3.74 1.55-1.86 3.02-3.83.1-.15.21-.31t.23-.32l.44-.67q2.13-3.09 2.13-5.95 0-1.86-1.13-3.2-1.15-1.35-2.95-1.35-2.88 0-3.72 2.88-.33.99-.33 2.88h-9.42l.18-1.86q.14-1.81.93-3.81 1.63-3.81 4.88-5.78t7.48-1.97q5.86 0 9.66 3.52 3.8 3.53 3.8 8.93 0 3.15-1.49 5.89-.52 1.05-1.44 2.22-.86 1.1-2.22 2.61l-5.02 5.44h10.54v7.66z" fill="#fff"/></g></svg>