<svg xmlns="http://www.w3.org/2000/svg" height="263.97" width="600" viewBox="0 0 158.75 69.842888"><g transform="translate(253.37-59.4)"><path d="m-253.37 59.4v58.5h17.33v11.34h17.53v-11.34h123.89v-58.5zm6.19 6.186h146.37v46.12h-123.89v11.34h-5.15v-11.34h-17.33z" stroke-width=".388"/><g><path d="m-227.68 81.8v17.771h-5.92v-17.771h-4.8v-5.01h15.64v5.01z"/><path d="m-208.71 99.57v-1.699q-.43.519-.58.638-1.58 1.582-4.19 1.582-3.44 0-5.65-2.494-2.19-2.396-2.19-5.808 0-1.223.32-2.381.32-1.179.94-2.158.61-.979 1.5-1.78.87-.779 1.98-1.276 1.43-.6 3.04-.6 2.23 0 3.64.934.42.275 1.19 1.068v-1.52h5.46v15.494zm.15-7.744q0-1.461-1.04-2.492-1.03-1.038-2.49-1.038-1.45 0-2.49 1.038-1.03 1.031-1.03 2.455 0 .742.27 1.387.28.646.75 1.135.46.482 1.12.764.65.274 1.38.274 1.46 0 2.49-1.038 1.04-1.031 1.04-2.485"/><path d="m-187.53 107.53v-9.482l-.7.697q-1.68 1.315-4.13 1.315-3.37 0-5.59-2.405-2.19-2.396-2.19-5.741 0-3.463 2.22-5.807 2.21-2.396 5.62-2.396 1.3 0 2.43.423 1.38.542 2.34 1.765v-1.706h5.47v23.337zm.15-15.645q0-.749-.28-1.372-.29-.66-.75-1.106-.49-.459-1.13-.741-.62-.275-1.36-.275-1.47 0-2.5 1.031-1.03 1-1.03 2.433 0 .734.28 1.38.28.667.74 1.127t1.13.742q.64.274 1.38.274t1.36-.274q.64-.282 1.13-.742.46-.438.75-1.113.28-.623.28-1.364"/><path d="m-161.85 93.95q0 6.263-8.24 6.293-8.26 0-8.26-6.293v-9.754h5.47v8.723q0 2.826 2.79 2.826 2.77 0 2.77-2.826v-8.723h5.47z"/><path d="m-152.29 79.64q0 .653-.23 1.202-.24.541-.68.972-.43.422-.98.637-.59.23-1.21.23-1.2 0-2.15-.882-.91-.913-.91-2.129 0-.638.25-1.216.24-.579.65-.987t.97-.652q.57-.245 1.19-.245.64 0 1.21.245.57.244.98.652.44.43.68.972.23.549.23 1.201m-5.82 19.93v-15.376h5.46v15.376z"/><path d="m-148.92 99.57v-22.785h5.47v22.785z"/><path d="m-139.72 99.57v-22.785h5.47v22.785z"/><path d="m-118.52 99.57v-1.699q-.43.519-.58.638-1.58 1.582-4.19 1.582-3.44 0-5.65-2.494-2.19-2.396-2.19-5.808 0-1.223.32-2.381.32-1.179.94-2.158.61-.979 1.5-1.78.87-.779 1.98-1.276 1.43-.6 3.04-.6 2.23 0 3.64.934.42.275 1.19 1.068v-1.52h5.46v15.494zm.14-7.744q0-1.461-1.03-2.492-1.03-1.038-2.49-1.038-1.45 0-2.49 1.038-1.03 1.031-1.03 2.455 0 .742.27 1.387.28.646.74 1.135.46.482 1.13.764.65.274 1.38.274 1.46 0 2.49-1.038 1.03-1.031 1.03-2.485"/></g></g></svg>