<?xml version="1.0" encoding="UTF-8" standalone="no"?>
<svg xmlns:rdf="http://www.w3.org/1999/02/22-rdf-syntax-ns#" xmlns="http://www.w3.org/2000/svg" height="321.6" width="600" version="1.1" xmlns:cc="http://creativecommons.org/ns#" xmlns:dc="http://purl.org/dc/elements/1.1/" viewBox="0 0 158.75 85.087646">
 <g stroke-width=".85546" fill="#a7a5a5" transform="translate(0 -.00058581)">
  <path d="m21.549 84.832h-3.328l-0.504-12.917h-0.043l-6.005 12.917h-1.634l-2.8662-13.26h-0.0428l-3.6614 13.26h-3.4646l5.2782-19.077h3.7726l2.6182 11.977 5.457-11.977h3.662z"/>
  <path d="m34.911 68.92h-6.672l-0.548 4.534h5.869l-0.377 3.166h-5.877l-0.59 5.047h8.418l-0.385 3.165h-11.857l2.284-19.077h10.12z"/>
  <path d="m44.373 65.755c6.467 0 8.358 5.133 8.358 9.325 0 5.646-3.319 9.752-7.64 9.752h-8.366l2.258-19.077zm-3.824 15.912h3.234c3.824 0 5.398-3.337 5.398-6.673s-1.908-6.074-5.467-6.074h-1.668l-1.497 12.747"/>
  <path d="m56.666 84.832h-3.439l2.275-19.077h3.448z"/>
  <path d="m72.184 84.832h-3.542l-0.504-4.192h-5.022l-1.583 4.192h-3.798l7.939-19.333h3.661zm-8.076-6.844h3.747l-0.847-8.469h-0.042z"/>
  <path d="m84.383 70.375c-1.052-0.941-2.78-1.711-4.021-1.711-1.249 0-2.275 0.855-2.275 2.138 0 2.738 5.962 3.08 5.962 8.469 0 3.08-1.856 5.818-5.483 5.818-2.353 0-4.072-0.685-5.518-1.797l0.53-3.336c1.301 1.112 3.217 1.967 4.577 1.967 1.395 0 2.336-0.855 2.336-2.138 0-3.165-5.972-3.508-5.972-8.555 0-3.251 2.43-5.731 5.706-5.731 1.566 0 3.234 0.513 4.637 1.539z"/>
  <path d="m97.215 68.92h-6.664l-0.565 4.534h5.877l-0.385 3.166h-5.86l-0.598 5.047h8.417l-0.385 3.165h-11.856l2.275-19.077h10.129z"/>
  <path d="m113.49 68.92h-5.27l-1.9 15.912h-3.44l1.9-15.912h-5.136l0.386-3.165h13.84z"/>
 </g>
 <path style="font-variant-ligatures:normal;shape-padding:0;color-rendering:auto;font-variant-alternates:normal;text-decoration-color:#000000;color:#000000;font-variant-numeric:normal;mix-blend-mode:normal;image-rendering:auto;block-progression:tb;text-indent:0;solid-color:#000000;font-variant-position:normal;text-decoration-line:none;font-feature-settings:normal;font-variant-caps:normal;isolation:auto;white-space:normal;shape-rendering:auto;text-transform:none;text-decoration-style:solid" stroke-width=".99998" fill="#a7a5a5" d="m105.49 26.608-0.09 0.72-3.41 26.73h53.26l3.5-27.45zm7.12 3.04h3.33l-1.11 8.8h11.11l1.12-8.8h3.33l-2.7 21.32h-3.33l1.17-9.06h-11.14l-1.15 9.06h-3.33zm21.67 0h6.26c1.94 0 3.54 0.34 4.76 0.96h0.01c1.26 0.64 2.27 1.47 3.01 2.46 0.75 1 1.29 2.12 1.61 3.34 0.32 1.24 0.48 2.46 0.48 3.61 0 1.6-0.24 3.09-0.69 4.43-0.47 1.36-1.11 2.51-1.92 3.47-0.8 0.97-1.77 1.72-2.86 2.25-1.08 0.53-2.26 0.8-3.53 0.8h-9.81zm2.97 2.8-0.09 0.72-1.87 15h4.51c1.21 0 2.31-0.23 3.24-0.72 0.89-0.47 1.65-1.11 2.23-1.89 0.57-0.78 0.99-1.67 1.25-2.65 0.27-0.98 0.41-1.97 0.41-2.96 0-1.01-0.16-1.99-0.47-2.9s-0.77-1.71-1.38-2.39v-0.01c-0.62-0.68-1.39-1.22-2.28-1.61-0.91-0.4-1.95-0.59-3.09-0.59z"/>
 <path fill="#fff" d="m83.531-0.00076581h-0.748s-3.349 9.9669-21.588 9.9669h-12.111l-1.037 8.3609h35.484z"/>
 <path fill="#fff" d="m82.392 36.437c-7.828-6.675-26.862-3.131-26.862-3.131v-3.878h28.161v-8.443h-37.626l-2.647 20.044 13.826-0.004c1.524-1.11 4.362-1.562 5.825-1.521 4.434 0.127 5.819 1.394 6.623 2.482 0.739 0.994 0.793 2.773 0 3.839-1.054 1.409-3.134 2.512-6.778 2.512-1.389 0-5.471-0.209-7.368-3.369l-12.91-0.006c-0.001 8.112 9.113 10.877 13.059 11.695 0.355 0.073 8.799 1.77 18.447-0.58 6.41-1.564 10.705-5.049 11.781-9.562 0.841-3.558-0.474-7.331-3.531-10.078"/>
 <path fill="#f5520f" d="m44.27 15.778c0-1.268-0.986-2.313-2.224-2.404 0.351-0.418 0.571-0.965 0.571-1.566 0-1.329-1.07-2.406-2.407-2.406-0.591 0-1.131 0.2055-1.551 0.5562l-0.048 0.1138v0.031c-0.083-1.2173-1.105-2.1797-2.352-2.1797-1.243 0-2.25 0.9536-2.35 2.1627l-0.052-0.1259c-0.417-0.3419-0.95-0.5435-1.532-0.5435-1.324 0-2.406 1.0774-2.406 2.4084 0 0.624 0.237 1.19 0.621 1.614-1.277 0.065-2.293 1.122-2.293 2.409 0 1.285 1.02 2.323 2.293 2.394-0.361 0.422-0.586 0.979-0.586 1.576 0 1.33 1.083 2.412 2.407 2.412 0.57 0 1.093-0.197 1.508-0.527 0.134 1.201 1.147 2.138 2.39 2.138 1.28 0 2.314-0.992 2.4-2.243 0.423 0.361 0.971 0.58 1.571 0.58 1.334 0 2.406-1.084 2.406-2.413 0-0.609-0.225-1.159-0.584-1.585l-0.037 0.005c1.255-0.077 2.255-1.128 2.255-2.407m-7.994 2.21c-1.226 0-2.205-0.993-2.205-2.212s0.979-2.212 2.205-2.212c1.225 0 2.217 0.993 2.217 2.212s-0.992 2.212-2.217 2.212"/>
</svg>
