<?xml version="1.0" encoding="UTF-8" standalone="no"?>
<svg xmlns:rdf="http://www.w3.org/1999/02/22-rdf-syntax-ns#" xmlns="http://www.w3.org/2000/svg" enable-background="new 0 0 86 32" xml:space="preserve" height="223.25" viewBox="0 0 600 223.25397" width="600" version="1.1" y="0px" x="0px" xmlns:cc="http://creativecommons.org/ns#" xmlns:dc="http://purl.org/dc/elements/1.1/"><path stroke-width="1.232" d="m0.03098 0.022317c109.98-0.08041 302.41 0.089213 412.39-0.00014 0.01 25.526-0.03 51.196 0 76.722h-412.39c-0.1013-25.572 0.09006-51.152 0.00394-76.722z"/><g stroke-width="1.232" fill="#fff"><path d="m31.514 13.831c8.551-2.385 18.549-1.893 26.054 3.235-0.295 3.797-1.197 7.523-2.171 11.204-5.084-3.234-11.32-4.941-17.271-3.404-4.235 1.098-7.925 4.235-9.435 8.363-0.92 3.154-0.92 6.531 0 9.685 1.528 4.467 5.816 7.844 10.534 8.202 4.28 0.375 8.38-1.179 12.49-2.108-0.607 3.886-0.545 7.952-1.965 11.65-3.743 2.707-8.783 2.564-13.214 2.359-8.729-0.295-17.226-5.647-20.738-13.724-2.376-5.057-2.17-10.855-1.59-16.278 1.581-8.962 8.685-16.503 17.306-19.184z"/><path d="m261.91 28.1c0.17-5.325-0.18-10.649 0.21-15.957 4.73 0.099 9.45-0.018 14.19 0.09 0.14 5.306-0.21 10.623 0.19 15.921 5.64-0.063 11.27-0.089 16.9 0.008 0.2 4.835 0.11 9.677 0.05 14.511-5.72 0.277-11.44-0.099-17.15 0.233 0.03 6.075 0.07 12.15-0.02 18.235-4.72 0.071-9.43-0.027-14.14 0.071-0.44-6.129-0.06-12.285-0.21-18.423-6.07-0.045-12.15 0.027-18.22-0.045-0.02-4.887-0.24-9.775 0.13-14.653 6.03 0.027 12.05 0.027 18.07 0.009z"/><path d="m76.876 14.376c5.574-0.16 11.15-0.097 16.725-0.044 3.118 15.609 6.709 31.128 9.559 46.782-4.086 0.089-8.174 0.089-12.266-0.009-0.751-2.511-1.439-5.048-1.823-7.648-5.432-0.733-10.98-0.242-16.448-0.295-2.609 1.697-2.68 5.611-4.834 7.862-4.628 0.313-9.283 0.117-13.92 0.081 2.171-5.584 5.298-10.739 7.782-16.181 5.075-10.185 10.132-20.371 15.225-30.548z"/><path d="m115.35 14.305c4.66-0.017 9.33-0.035 13.99 0.018 5.09 8.676 9.98 17.476 15.08 26.152 1.3-8.711 2.3-17.459 3.76-26.134 4.37-0.09 8.75-0.036 13.12-0.044-1.79 15.573-4.44 31.047-6.22 46.611-4.06 0.438-8.18 0.322-12.25 0.17-1.39 0.045-1.63-1.68-2.37-2.52-5.04-8.515-9.54-17.386-14.96-25.66-1.35 9.391-2.43 18.844-4.05 28.18-4.19 0.125-8.38 0.197-12.56-0.062 2.17-15.565 4.07-31.173 6.46-46.711z"/><path d="m183.11 14.305c5.34-0.026 10.69-0.017 16.04 0 3.4 15.582 6.58 31.208 9.96 46.8-4.27 0.098-8.55 0.125-12.8-0.027-0.69-2.636-1.04-5.351-1.86-7.96-5.39 0.115-10.82-0.251-16.19 0.169-1.66 2.421-2.59 5.254-4.28 7.648-4.54 0.527-9.15 0.143-13.72 0.17 7.29-15.752 15.33-31.156 22.85-46.8z"/><path d="m220.77 14.314c4.41-0.035 8.8-0.026 13.21-0.017-1.34 12.034-3.29 23.989-4.73 35.997 4.72 0.152 9.45-0.009 14.18 0.125-0.45 3.547-1.06 7.076-1.47 10.632-9.33 0.259-18.68 0.063-28.01 0.099 2.16-15.628 4.36-31.254 6.82-46.836z"/></g><g stroke-width="1.232"><path d="m188.97 27.52c1.54 4.895 2.51 9.97 3.46 15.01-3.36 0.071-6.71 0.071-10.06 0 2.08-5.057 4.45-9.989 6.6-15.01z"/><path d="m81.066 32.05c0.625-1.242 0.938-2.824 2.261-3.548 0.956 4.735 2.215 9.399 3.288 14.108-3.343-0.053-6.684-0.036-10.034-0.027 1.251-3.609 3.029-7.005 4.485-10.533z"/><path fill="#fff" d="m115.35 14.305c4.66-0.017 9.33-0.035 13.99 0.018 5.09 8.676 9.98 17.476 15.08 26.152 1.3-8.711 2.3-17.459 3.76-26.134 4.37-0.09 8.75-0.036 13.12-0.044-1.79 15.573-4.44 31.047-6.22 46.611-3.31-0.214-12.83-0.397-14.62-2.35-5.04-8.515-9.54-17.386-14.96-25.66-1.35 9.391-2.43 18.844-4.05 28.18-4.19 0.125-8.38 0.197-12.56-0.062 2.17-15.565 4.07-31.173 6.46-46.711z"/><path fill="#fff" d="m115.35 14.305c4.66-0.017 9.33-0.035 13.99 0.018 5.09 8.676 9.98 17.476 15.08 26.152 1.3-8.711 2.3-17.459 3.76-26.134 4.37-0.09 8.75-0.036 13.12-0.044-1.79 15.573-4.44 31.047-6.22 46.611-3.4 0.353-12.83-0.397-14.62-2.35-5.04-8.515-9.54-17.386-14.96-25.66-1.35 9.391-2.43 18.844-4.05 28.18-4.19 0.125-8.38 0.197-12.56-0.062 2.17-15.565 4.07-31.173 6.46-46.711z"/></g><g stroke-width=".72956"><path fill="#f00" d="m305.99 10.561c33.24 0 66.49 0.009 99.73 0-0.08 18.625 0.1 37.258-0.09 55.891-33.22-0.122-66.43 0.027-99.64-0.079 0.02-18.606 0.01-37.204 0-55.812z"/><path fill="#fff" d="m313.33 18.039c3.92-0.009 7.84-0.009 11.75 0.009-0.01 4.836 0.02 9.674-0.03 14.51 4.51 0.009 9.03 0 13.54 0.009-0.04-4.845-0.02-9.69-0.02-14.537 3.8 0.009 7.59 0.018 11.4-0.025 0.08 13.639 0.05 27.287 0.01 40.926-3.81-0.061-7.61-0.043-11.42-0.035 0-5.769 0.04-11.538-0.02-17.308-4.48 0.026-8.97 0.017-13.45 0.009-0.02 5.752-0.01 11.512 0 17.264-3.92 0.044-7.85 0.035-11.76 0.027 0.01-13.623 0-27.235 0-40.849z"/><path fill="#fff" d="m360.39 18.039c9.67 0.567 20.09-1.751 29.09 2.806 10.02 5.404 12.58 19.723 6.43 28.918-3.23 5.212-9.09 8.297-15.1 8.828-6.8 0.471-13.61 0.262-20.43 0.288 0.03-13.614 0.01-27.226 0.01-40.84z"/><path fill="#f00" d="m372.17 26.806c4.82-0.295 10.7 0.236 13.38 4.899 2.41 4.706 2.35 11.303-1.37 15.347-3.15 3.19-7.91 2.998-12.05 3.051 0.05-7.766 0-15.531 0.04-23.297z"/></g><rect height="146.51" width="600" y="76.744" x="0" stroke-width="6.9767" fill="#0feb0f"/><g stroke-width="6.9767" fill="#fff"><path d="m93.153 128.36c0 9.88-2.427 17.29-7.269 22.23-4.849 4.94-11.84 7.41-20.965 7.41h-13.452v28.71h-23.267v-84.81h26.414c6.139 0 11.086 0.26 14.846 0.78 3.754 0.53 7.124 1.44 10.117 2.74 4.444 1.95 7.814 4.92 10.116 8.92 2.309 4.01 3.46 8.68 3.46 14.02zm-21.697 0.74c0-3.65-1.256-6.36-3.754-8.11-2.504-1.74-5.658-2.62-9.446-2.62h-6.789v22.06h7.396c3.635 0 6.544-0.81 8.721-2.44 2.581-1.95 3.872-4.92 3.872-8.89z"/><path d="m163.07 186.71h-19.63v-5.81c-0.81 0.8-3.19 2.15-7.15 4.05-5.01 2.39-8.96 3.59-11.87 3.59-7.27 0-13.57-2.58-18.9-7.74-6.06-5.89-9.094-13.67-9.094-23.34 0-8.63 2.867-15.85 8.604-21.66 5.73-5.81 12.56-8.7 20.47-8.7 3.64 0 7.3 0.89 10.97 2.67 3.67 1.77 6.08 3.43 7.21 4.96l-0.24 0.24v-6.42h19.63zm-18.91-29.08c0-3.56-1.13-6.54-3.39-8.96-2.5-2.67-5.78-3.99-9.81-3.99-3.88 0-6.93 1.29-9.15 3.87-2.22 2.59-3.34 5.62-3.34 9.09 0 3.39 1.05 6.34 3.15 8.85 2.43 2.83 5.61 4.24 9.57 4.24 4.12 0 7.31-1.28 9.57-3.83 2.27-2.54 3.4-5.63 3.4-9.27z"/><path d="m221.35 147.82c-1.37-0.72-2.89-1.27-4.54-1.63-1.65-0.37-3.54-0.54-5.64-0.54-2.82 0-5.49 0.8-7.99 2.42-3.39 2.18-5.09 5.17-5.09 8.97v29.68h-21.81v-58.16h21.81v9.81c0.73-1.6 2.95-3.71 6.66-6.29 4.85-3.39 9.46-5.1 13.82-5.1h2.78z"/><path d="m262.18 146.11h-11.15v40.59h-21.08v-40.59h-6.67v-17.56h6.67v-16.6h21.08v16.6h11.15z"/><path d="m291.99 108.08c0 3.14-1 5.75-3.01 7.81-1.99 2.06-4.75 3.09-8.26 3.09-3.68 0-6.5-1.01-8.46-3.03-1.95-2.02-2.94-4.64-2.94-7.87 0-3.16 1.06-5.82 3.18-8 2.13-2.182 4.87-3.271 8.22-3.271 3.26 0 5.95 1.047 8.08 3.147 2.12 2.104 3.19 4.804 3.19 8.124zm-1.82 78.63h-20.84v-58.16h20.84z"/><path d="m366.74 186.71h-21.08v-6.17c-1.61 1.77-3.67 3.35-6.18 4.72-3.88 2.18-7.79 3.28-11.75 3.28-8.73 0-15.84-3.07-21.33-9.21-5.17-5.82-7.76-13.05-7.76-21.69 0-7.75 2.18-14.46 6.54-20.11 5.09-6.63 12.04-9.94 20.84-9.94 5.01 0 9.65 1.13 13.94 3.39 2.66 1.38 4.56 2.75 5.69 4.12v-41.681h21.08v93.291zm-20.35-28.9c0-3.37-1.14-6.27-3.39-8.68-2.51-2.65-5.78-3.98-9.82-3.98-3.95 0-7.07 1.27-9.33 3.8-2.26 2.54-3.39 5.49-3.39 8.87s1.11 6.35 3.34 8.92c2.22 2.57 5.35 3.86 9.39 3.86 4.12 0 7.35-1.29 9.7-3.86 2.33-2.58 3.5-5.55 3.5-8.93z"/><path d="m441.51 186.71h-19.63v-5.81c-0.81 0.8-3.19 2.15-7.15 4.05-5.01 2.39-8.96 3.59-11.87 3.59-7.27 0-13.57-2.58-18.9-7.74-6.06-5.89-9.09-13.67-9.09-23.34 0-8.63 2.86-15.85 8.6-21.66 5.73-5.81 12.56-8.7 20.48-8.7 3.63 0 7.29 0.89 10.96 2.67 3.67 1.77 6.08 3.43 7.21 4.96l-0.24 0.24v-6.42h19.63zm-18.91-29.08c0-3.56-1.13-6.54-3.39-8.96-2.5-2.67-5.78-3.99-9.81-3.99-3.88 0-6.93 1.29-9.15 3.87-2.22 2.59-3.34 5.62-3.34 9.09 0 3.39 1.05 6.34 3.15 8.85 2.43 2.83 5.62 4.24 9.57 4.24 4.13 0 7.31-1.28 9.57-3.83 2.27-2.54 3.4-5.63 3.4-9.27z"/><path d="m509.97 128.55-27.99 41.19h24.11v16.97h-57.43l27.02-41.31h-25.09v-16.85z"/><path d="m579.51 157.93c0 8.79-3.15 16.1-9.45 21.9-6.29 5.81-14.22 8.71-23.74 8.71-9.38 0-17.23-2.97-23.57-8.89-6.34-5.93-9.51-13.16-9.51-21.71 0-8.7 3.13-15.98 9.39-21.82 6.26-5.85 14.15-8.77 23.7-8.77 9.6 0 17.54 2.8 23.8 8.4 6.26 5.61 9.38 12.99 9.38 22.18zm-20.6 0c0-3.13-1.2-5.93-3.59-8.37-2.4-2.46-5.34-3.68-8.83-3.68-3.57 0-6.54 1.21-8.88 3.62-2.36 2.42-3.54 5.23-3.54 8.44 0 3.14 1.2 5.89 3.59 8.27 2.4 2.36 5.35 3.55 8.84 3.55 3.48 0 6.43-1.19 8.83-3.55 2.38-2.39 3.58-5.14 3.58-8.28z"/></g></svg>
