<svg xmlns="http://www.w3.org/2000/svg" height="271.1" width="609.47" viewBox="0 0 161.25475 71.728844"><defs><clipPath id="0"><path d="m666.14 0h666.16v907.09h-666.16v-907.09"/></clipPath><clipPath id="1"><path d="m878.65 262.8h40.37v-18.38h-40.37v18.38"/></clipPath><clipPath id="2"><path d="m881.49 261.21h34.95v-15.18h-34.95v15.18"/></clipPath></defs><g transform="translate(172.26-76.74)"><path d="m-20.13 144.34h-84.51v-33.8h84.51v33.8" fill="#003675"/><g clip-path="url(#0)" transform="matrix(2.5647 0 0-2.5647-2367.9 777.9)"><g clip-path="url(#1)" opacity=".5"><path d="m0 0l-2.84-.248 1.149-13.13 18.454 1.614h-16.763v11.764m34.382 3.01l-18.19-1.592h16.763v-11.763l2.58.225-1.149 13.13z" fill="#392782" transform="translate(882.49 258.8)"/></g><g clip-path="url(#2)" opacity=".5"><path d="m0 0h-16.763l-16.188-1.416v-11.764h16.763l16.188 1.416v11.764" fill="#392782" transform="translate(915.44 260.21)"/></g></g><path d="m-37.04 76.74h-135.22v33.803h135.22l-.003-33.803z"/><g clip-path="url(#0)" transform="matrix(2.5647 0 0-2.5647-2367.9 777.9)"><path d="m0 0c-.001-.09-.055-.156-.055-.156 0 0-.043-.045-.124-.065-1.065-.436-2.251-.29-2.251-.29-1.924.21-3.146 1.387-3.538 2.909-.577 2.276.57 3.899.847 4.242.677.809 1.735 1.386 2.767 1.523 1.321.189 2.299-.122 2.699-.256 0 0 .447-.145.781-.368.165-.112.185-.156.185-.156 0 0 .012-.02-.031-.199l-.314-1.632c-.001-.067-.054-.101-.054-.101 0 0-.023-.009-.176.091-1 .71-2.169.62-2.169.62-.888-.056-1.921-.522-2.233-1.699-.277-1.044.013-1.921.632-2.445.425-.363 1.081-.554 1.768-.52.758.056 1.356.356 1.312.336 0 0 .033.008.068.02.155.078.188.067.188.067 0 0 .032-.034.012-.136l-.314-1.785m5.688 5.542l-.022-.022-1.107-2.522c-.023-.035-.015-.056-.015-.056 0 0 .015-.012.067-.012l1.633-.013.021.013c0 0 .012.012 0 .043l-.568 2.547-.009.022m18.441.031c0 0-.008 0-.02-.042l-1.111-2.514c-.023-.075-.013-.087-.013-.087l.059-.022 1.644.009h.021c0 0 .001.013 0 .046l-.557 2.579c-.009.031-.023.031-.023.031m-15.06-5.852l-1.977-.009c-.045 0-.08.019-.08.019 0 0-.012.011-.021.09l-.311 1.278c0 .032-.022.044-.022.044h-.033-2.785c-.058 0-.089-.044-.089-.044 0 0-.046-.035-.08-.112l-.554-1.188c-.022-.042-.034-.057-.034-.057 0 0-.035-.021-.066-.021h-2.303c-.064-.009-.075.021-.075.021 0 0-.012.037.011.079l3.987 8.02c.022.044.054.055.054.055h.078 2.546c.04 0 .076-.034.076-.034 0 0 .013-.009.022-.044l1.711-8.04c0-.037-.022-.048-.022-.048l-.033-.001zm8.888-.022h-2.035-.065l-.022.022-2.822 5.01-.033.023c0 0-.021 0-.021-.033l-.7-4.921c-.012-.057-.023-.068-.023-.068 0 0-.024-.001-.056-.001h-2.024c-.033 0-.052.021-.052.021 0 0-.046.045-.037.09l1.114 7.964c.009.044.031.056.031.056 0 0 .033.032.068.032h2.256c.033 0 .054-.023.054-.023 0 0 .023-.009.033-.044l2.546-4.462c.042-.093.076-.08.076-.08 0 0 .035 0 .057.1l.643 4.442c0 .035.024.044.024.044 0 0 .001.023.042.023l2.124-.023c.044 0 .056-.009.056-.009l.009-.035-1.142-8.03c-.001-.045-.033-.075-.033-.075 0 0-.013-.013-.068-.013m9.522-.001h-2.035c-.042-.024-.078.023-.078.023 0 0-.001.009-.022.075l-.265 1.254c-.021.068-.045.102-.045.102 0 0-.055.033-.122.033h-2.645c-.054 0-.088-.033-.088-.033 0 0-.045-.044-.068-.111l-.599-1.275c-.013-.036-.033-.045-.033-.045 0 0-.044-.013-.07-.013h-2.287c-.054-.001-.076.022-.076.022 0 0-.011.021.022.066l4.03 8.05.044.044c0 0 .024.011.089.011h2.5c.056 0 .091-.034.091-.034 0 0 .001-.009.021-.044l1.676-8.09-.009-.032c0 0 0-.001-.033-.001m5.833.119c-.013-.066-.023-.087-.023-.087 0 0-.012-.022-.067-.022h-4.576c-.135 0-.168.032-.168.032 0 0-.023.048-.001.146l1.134 7.885c.008.099.033.133.033.133h.119 2.079c.058 0 .079-.011.079-.011 0 0 .001-.032 0-.077l-.856-6.166c-.011-.066.022-.074.022-.074 0 0 .025-.013.111-.013h2.266c.044 0 .067-.022.067-.022 0 0 .013-.012.013-.068l-.223-1.656zm8.81 3.122c0 0-.009-.022-.044-.022h-2.845c-.045 0-.067-.022-.067-.022 0 0-.03-.001-.03-.066v-3.03c0-.045-.023-.056-.023-.056 0 0-.013-.019-.049-.019h-2.253c-.035 0-.056.019-.056.019 0 0-.009.011-.009.068v3.03c0 .034-.034.056-.034.056 0 0-.013.022-.044.022h-2.912c-.055 0-.067.009-.067.009 0 0-.023.025-.023.093v2.22c0 .024.023.056.023.056l.034.009h2.976c.025 0 .025.012.025.012l.022.033v2.656c0 .03.009.055.009.055 0 0 .021.011.089.011h2.212c.044 0 .057-.011.057-.011 0 0 .023-.025.023-.067v-2.664h2.887c.076 0 .099-.013.099-.013 0 0 .035-.012.035-.077v-2.245l-.035-.055" fill="#fff" transform="translate(864.47 263.3)"/></g><g fill="#fff"><path d="m0 0h-2.334l-.157-1.251h2.126l-.196-1.625h-2.128l-.363-2.885h-1.863l.906 7.386h4.216l-.207-1.625" transform="matrix(2.5647 0 0-2.5647-76.19 120.31)"/><path d="m-73.51 116.14h4.924v18.95h-4.924v-18.95"/><path d="m0 0h-4.226l.907 7.386h1.871l-.708-5.761h2.353l-.197-1.625" transform="matrix(2.5647 0 0-2.5647-55.09 135.08)"/><path d="m0 0l-.552 4.254-1.782-4.254h-.768l-1.694 4.254-.63-4.254h-1.911l1.251 7.386h1.901l1.497-3.939 1.586 3.939h1.9l1.123-7.386h-1.921" transform="matrix(2.5647 0 0-2.5647-33.889 135.08)"/></g></g><g transform="translate(11.11-188.53)" fill="#fff"><path d="m132.47 192.6v-4.07h-2.73v10.52h2.73v-4.34h2.67v-2.11"/><path d="m136.41 191.97v7.08h2.73v-10.52h-2.73"/><path d="m148.58 190.12c-1.02-1.05-2.22-1.59-3.61-1.59h-4.02v2.32h2.98.37c1.79 0 2.98 1.15 2.98 2.94 0 1.8-1.19 2.94-2.98 2.94h-.62v-4.61h-2.73v6.93h4.02c1.4 0 2.61-.52 3.63-1.56 1.02-1.05 1.54-2.28 1.54-3.7 0-1.4-.52-2.62-1.56-3.67"/></g></svg>