<svg xmlns="http://www.w3.org/2000/svg" enable-background="new 0 0 86 32" height="199.37" viewBox="0 0 600 199.3668"><path fill="#ff6419" d="m0 66.45h600v132.91h-600z"/><g fill="#fff"><g><path d="m43.04 152.48h4.45c6.601 0 11.851-1.97 15.785-5.88 3.85-3.87 5.784-8.99 5.784-15.39 0-6.38-1.917-11.52-5.784-15.37-3.934-3.93-9.184-5.88-15.785-5.88h-4.45zm-19.718 16.7v-75.956h29c6.301 0 12.284 1.651 17.952 4.951 6.03 3.485 10.801 8.285 14.334 14.385 3.4 5.87 5.101 12.1 5.101 18.7 0 6.55-1.684 12.77-5.05 18.64-3.517 6.08-8.301 10.88-14.334 14.38-5.634 3.27-11.618 4.9-18 4.9z"/><path d="m134.28 136.36c-1.69-5.47-5.22-8.22-10.69-8.22-5.56 0-9 2.75-10.28 8.22zm16.92 10.54h-38.39c.2 4.31 1.3 7.36 3.3 9.15 1.85 1.6 4.47 2.41 7.82 2.41 2.56 0 4.6-.55 6.08-1.63.88-.67 1.83-1.73 2.82-3.22h17.67c-1.19 3.74-2.5 6.49-3.95 8.27-5.15 6.23-12.74 9.35-22.76 9.35-9.26 0-16.58-2.68-21.93-8.02-5-4.88-7.469-11.33-7.469-19.33 0-8.7 2.767-15.54 8.299-20.47 5.15-4.58 11.94-6.88 20.39-6.88 9.21 0 16.35 2.8 21.35 8.36 4.52 5 6.78 11.7 6.78 20.07v1.94z"/><path d="m188.22 131.91c-3.24 0-6 1.15-8.32 3.47-2.23 2.26-3.35 4.98-3.35 8.15 0 3.2 1.13 5.93 3.4 8.2 2.35 2.35 5.15 3.52 8.42 3.52 3.26 0 6.06-1.15 8.4-3.45 2.26-2.29 3.36-5 3.36-8.17 0-3.2-1.13-5.95-3.41-8.25-2.27-2.34-5.1-3.47-8.5-3.47m-11.19 59.86h-18.23v-73.81h18.23v5.68c.7-.81 1.35-1.55 1.94-2.21 3.76-3.4 8.45-5.1 14.1-5.1 7.11 0 13.16 2.5 18.15 7.53 5.23 5.27 7.85 11.87 7.85 19.82 0 7.92-2.6 14.48-7.85 19.73-4.92 4.95-10.9 7.42-17.97 7.42-3.35 0-6.55-.62-9.58-1.83-2.07-.82-4.29-2.45-6.62-4.85v27.62z"/><path d="m255.31 131.71c-3.19 0-5.92 1.15-8.22 3.47-2.32 2.26-3.47 5-3.47 8.2 0 3.33 1.15 6.15 3.47 8.45 2.28 2.28 5.03 3.42 8.25 3.42 3.25 0 6.02-1.15 8.32-3.45 2.3-2.29 3.46-5.05 3.46-8.32s-1.15-6.04-3.41-8.3c-2.29-2.32-5.09-3.47-8.4-3.47m.18-15.7c6.57 0 12.45 1.48 17.65 4.45 4.27 2.45 7.53 5.68 9.85 9.7 2.32 3.98 3.47 8.45 3.47 13.4 0 7.45-2.49 13.69-7.45 18.69-2.85 2.8-6.27 4.96-10.3 6.48-4.15 1.58-8.64 2.38-13.39 2.38-9.77 0-17.63-2.98-23.55-8.9-5-4.95-7.47-11.03-7.47-18.25 0-7.65 2.59-14.07 7.72-19.23 5.72-5.79 13.55-8.72 23.47-8.72"/><path d="m294.26 117.96h18.23v8.42c2.74-4.62 6.87-7.5 12.37-8.67 2.73-.48 5.45-.57 8.15-.23v17.2c-2.7-1.22-5.22-1.84-7.55-1.84-3.97 0-7.12 1.15-9.4 3.47-1.32 1.28-2.25 2.75-2.77 4.4-.53 1.62-.8 3.79-.8 6.54v21.95h-18.23z"/></g><path transform="matrix(16.668 0 0 16.668-6497.4-1162.6)" d="m411.52 79.898h-1.1v-2.168h-.36v-.9h.36v-.93h1.1v.93h.62v.9h-.62z"/><path d="m413.94 136.36c-1.69-5.47-5.24-8.22-10.69-8.22-5.57 0-8.98 2.75-10.28 8.22zm16.91 10.54h-38.37c.2 4.31 1.3 7.36 3.3 9.15 1.85 1.6 4.45 2.41 7.82 2.41 2.57 0 4.6-.55 6.08-1.63.9-.67 1.82-1.73 2.82-3.22h17.65c-1.16 3.74-2.48 6.49-3.93 8.27-5.17 6.23-12.73 9.35-22.75 9.35-9.25 0-16.57-2.68-21.95-8.02-4.99-4.88-7.45-11.33-7.45-19.33 0-8.7 2.76-15.54 8.3-20.47 5.15-4.58 11.93-6.88 20.38-6.88 9.24 0 16.34 2.8 21.35 8.36 4.52 5 6.77 11.7 6.77 20.07v1.94z"/><path d="m478.84 119.49l-6.15 11.72c-3.5-1.67-6.82-2.52-9.97-2.52-1.78 0-3.23.44-4.3 1.29-.81.66-1.23 1.45-1.23 2.36 0 1.65 1.6 2.85 4.75 3.57l.73.15c1.22.3 2.65.63 4.3.98 3.3.7 6.02 1.87 8.12 3.52 3.5 2.75 5.23 6.52 5.23 11.32 0 6.93-3.01 12.12-9.03 15.58-4.25 2.44-9.37 3.67-15.4 3.67-6.8 0-13.72-2-20.7-5.98l6.56-12.77c5.42 3.53 10.27 5.28 14.61 5.28 1.73 0 3.2-.43 4.35-1.33.93-.72 1.38-1.58 1.38-2.62 0-1.01-.5-1.95-1.53-2.81-.7-.57-2.77-1.2-6.24-1.92-4.98-1.1-8.6-2.52-10.88-4.27-2.87-2.23-4.3-5.53-4.3-9.88 0-6.99 2.86-12.12 8.61-15.39 3.89-2.2 8.64-3.31 14.21-3.31 2.6 0 5.53.28 8.8.85 2.15.33 4.86 1.16 8.08 2.51"/><g stroke-width=".664"><path d="m49.33 16.289c.099-.542.165-.871.165-.986 0-.312-.165-.592-.493-.805-3.764-2.466-8.367-3.699-13.791-3.699-6.805 0-12.427 2.137-16.865 6.411-4.438 4.273-6.657 9.681-6.657 16.24 0 6.345 2.038 11.473 6.098 15.401 4.077 3.929 9.419 5.885 16.01 5.885 3.649 0 6.526-.625 8.63-1.89.394-.214.657-.74.772-1.578 0 0 1.118-7.874 1.151-8.186.099-.625-.247-.526-1.874-.016-3.107.904-5.654 1.364-7.643 1.364-3.206 0-5.819-1.069-7.874-3.205-2.071-2.137-3.106-4.849-3.106-8.153 0-3.551 1.183-6.444 3.534-8.696 2.35-2.235 5.408-3.369 9.172-3.369 3.632 0 6.739.838 9.352 2.515.789.493 1.283.756 1.463.756.247 0 .444-.395.592-1.2l1.364-6.789"/><path d="m80.67 13.08c-.115-.575-.427-.871-.937-.871h-12.541c-.576 0-.987.246-1.25.756l-19.33 39.12c-.082.213-.115.378-.115.476 0 .263.148.395.428.395h10.552c.641 0 1.085-.23 1.299-.658l2.712-5.605c.214-.427.575-.641 1.085-.641h13.265c.493 0 .789.23.854.707l1.414 5.638c.082.378.329.559.773.559h9.385c.329 0 .493-.165.493-.493v-.214zm-6.64 23.85h-7.874c-.246 0-.378-.065-.378-.164l.115-.329 5.26-11.95c.115-.213.197-.345.279-.378.099.066.198.247.263.543l2.778 11.572c.066.279.115.443.115.476 0 .148-.197.23-.558.23"/><path d="m93.92 52.4c0 .362.312.559.92.559h9.08c.51 0 .79-.263.87-.773l3.25-23.24c.07-.477.13-.707.17-.707.11.066.24.247.42.543l13.32 23.406c.29.51.72.773 1.3.773h9.28c.63 0 .97-.23 1.04-.658l5.44-39.498c0-.395-.25-.592-.71-.592h-9.61c-.66 0-1.02.279-1.09.822l-2.94 21.07c-.07.543-.16.806-.26.806-.12 0-.28-.198-.5-.592l-12.16-21.352c-.3-.51-.72-.756-1.3-.756h-10.32c-.51 0-.806.246-.872.707z"/><path d="m180.02 52.09l-8.22-39.05c-.1-.543-.43-.822-.97-.822h-11.95c-.57 0-.97.246-1.2.707l-19.21 39.27c-.12.214-.17.378-.17.493 0 .181.13.28.43.28h10.44c.54 0 .92-.214 1.13-.608l2.93-5.704c.21-.395.61-.592 1.15-.592h12.54c.66 0 1.04.28 1.15.871l1.02 5.26c.12.51.46.773 1.04.773h9.28c.45 0 .66-.115.66-.329 0-.263-.02-.444-.05-.542m-14.07-15.55c0 .247-.21.378-.61.378h-7.33c-.46 0-.71-.115-.71-.329 0-.115.05-.279.12-.493l5.33-11.999c.14-.296.24-.46.31-.493.08.066.15.23.23.493l2.59 11.884c0 .049.02.132.07.28v.279z"/><path d="m190.94 12.213c-.42 0-.65.296-.71.871l-5.66 39.433c0 .296.17.444.5.444h22.81c.48 0 .74-.23.81-.658l1.08-7.988c0-.362-.18-.543-.54-.543h-10.91c-.43 0-.66-.197-.66-.591v-.115l4.07-30.36c0-.329-.18-.493-.54-.493z"/><path d="m238.29 37.576c0-.461.25-.707.71-.707h13.48c.39 0 .59-.214.59-.641v-11.08c0-.477-.2-.707-.59-.707h-13.65c-.36 0-.54-.263-.54-.772v-12.542c0-.362-.23-.542-.71-.542h-11.07c-.37 0-.55.18-.55.542v12.542c0 .509-.21.772-.64.772h-14.56c-.4 0-.59.197-.59.592v11.128c0 .477.21.707.64.707h14.45c.47 0 .7.279.7.822v14.612c0 .428.2.658.61.658h11.13c.39 0 .59-.263.59-.773z"/></g></g><g stroke-width=".609"><path d="m0 0h365.47v66.46h-365.47z"/><g fill="#fff"><path d="m49.32 16.272c.114-.553.163-.879.163-.976 0-.342-.163-.602-.488-.83-3.759-2.457-8.364-3.694-13.799-3.694-6.802 0-12.416 2.148-16.858 6.428-4.443 4.263-6.656 9.665-6.656 16.223 0 6.346 2.034 11.472 6.103 15.41 4.084 3.921 9.421 5.89 16.01 5.89 3.645 0 6.526-.634 8.625-1.903.406-.212.651-.733.764-1.579 0 0 1.123-7.859 1.172-8.185.081-.618-.26-.521-1.871-.016-3.125.911-5.679 1.367-7.664 1.367-3.19 0-5.81-1.074-7.876-3.206-2.067-2.148-3.092-4.865-3.092-8.152 0-3.548 1.172-6.444 3.531-8.69 2.343-2.245 5.402-3.368 9.178-3.368 3.612 0 6.736.83 9.34 2.506.797.504 1.285.765 1.464.765.261 0 .456-.407.602-1.204l1.351-6.786"/><path d="m80.66 13.08c-.097-.586-.407-.879-.927-.879h-12.546c-.57 0-.993.26-1.237.765l-19.347 39.12c-.065.212-.098.375-.098.472 0 .261.146.391.423.391h10.544c.651 0 1.091-.212 1.302-.651l2.718-5.598c.211-.439.585-.651 1.09-.651h13.245c.505 0 .798.228.879.7l1.4 5.646c.081.375.341.554.764.554h9.406c.325 0 .488-.163.488-.488v-.212zm-6.622 23.839h-7.876c-.261 0-.374-.049-.374-.163l.097-.326 5.272-11.96c.114-.195.196-.341.277-.374.114.081.195.26.277.553l2.766 11.57c.065.277.097.439.097.488 0 .147-.179.212-.536.212"/><path d="m93.92 52.4c0 .375.309.554.928.554h9.06c.51 0 .8-.261.88-.765l3.26-23.24c.06-.488.13-.716.16-.716.1.082.24.244.42.537l13.31 23.416c.3.504.74.765 1.31.765h9.29c.62 0 .96-.212 1.04-.651l5.42-39.493c0-.39-.23-.602-.7-.602h-9.62c-.65 0-1.01.277-1.09.814l-2.93 21.07c-.06.553-.16.814-.28.814-.09 0-.26-.179-.48-.586l-12.16-21.349c-.29-.505-.73-.765-1.32-.765h-10.31c-.508 0-.801.244-.866.716z"/><path d="m180.02 52.09l-8.2-39.07c-.12-.537-.44-.814-.98-.814h-11.96c-.57 0-.97.244-1.19.716l-19.23 39.27c-.11.211-.16.374-.16.488 0 .179.14.293.44.293h10.43c.53 0 .91-.195 1.14-.602l2.93-5.695c.21-.407.6-.602 1.13-.602h12.55c.65 0 1.03.292 1.14.862l1.04 5.272c.1.505.46.765 1.03.765h9.29c.44 0 .65-.114.65-.342 0-.26-.02-.439-.05-.537m-14.08-15.54c0 .244-.19.375-.6.375h-7.32c-.47 0-.72-.114-.72-.326 0-.114.05-.276.12-.488l5.32-12.01c.14-.293.26-.456.32-.488.08.065.15.244.22.488l2.62 11.895c0 .049.001.13.04.277v.276z"/><path d="m190.94 12.204c-.41 0-.64.293-.72.879l-5.64 39.43c0 .293.16.44.48.44h22.82c.47 0 .75-.212.81-.651l1.09-7.99c0-.358-.18-.537-.54-.537h-10.91c-.44 0-.66-.211-.66-.602v-.114l4.07-30.364c0-.325-.18-.488-.55-.488z"/><path d="m238.29 37.572c0-.471.24-.699.72-.699h13.47c.39 0 .59-.228.59-.651v-11.08c0-.472-.2-.7-.59-.7h-13.64c-.35 0-.55-.261-.55-.781v-12.546c0-.358-.23-.537-.7-.537h-11.08c-.36 0-.54.179-.54.537v12.546c0 .52-.23.781-.65.781h-14.56c-.39 0-.6.179-.6.586v11.146c0 .456.22.7.65.7h14.45c.47 0 .71.26.71.813v14.613c0 .439.2.651.59.651h11.14c.39 0 .59-.261.59-.765z"/></g></g><g stroke-width=".688"><path fill="#f00" d="m264.7 7.496c31.36 0 62.7.008 94.06 0-.08 17.564.1 35.14-.09 52.709-31.33-.115-62.65.025-93.97-.074.02-17.548.001-35.09 0-52.635"/><g fill="#fff"><path d="m271.63 14.548c3.7-.008 7.39-.008 11.08.008-.001 4.562.001 9.123-.03 13.685 4.26.008 8.51 0 12.77.008-.04-4.57-.02-9.139-.02-13.709 3.58.008 7.16.016 10.74-.025.08 12.863.05 25.734.02 38.597-3.59-.058-7.18-.041-10.77-.033 0-5.441.04-10.882-.001-16.323-4.24.025-8.46.016-12.69.008-.02 5.425-.001 10.858 0 16.282-3.7.041-7.4.033-11.09.025.001-12.847 0-25.685 0-38.523"/><path d="m316.01 14.548c9.12.534 18.95-1.652 27.43 2.647 9.45 5.095 11.86 18.599 6.06 27.27-3.04 4.915-8.57 7.825-14.24 8.326-6.41.444-12.84.247-19.26.272.03-12.839.001-25.677.001-38.515"/></g><path fill="#f00" d="m327.11 22.816c4.55-.279 10.09.222 12.62 4.62 2.28 4.438 2.22 10.66-1.29 14.473-2.97 3.01-7.45 2.828-11.36 2.877.05-7.323 0-14.646.03-21.97"/></g><path d="m519.28 102.59c5.26-6.882 13.9-10.639 22.47-10.708 7.73-.326 15.78 1.738 21.65 6.97 9.19 7.478 11.54 21.478 6.49 31.968-5.01 8.98-13 15.66-19.52 23.47 7.61-.05 15.2.001 22.81-.02.23 5.49.001 10.99.13 16.49-1.44.21-2.89.38-4.35.37-15.53-.05-31.07-.001-46.6-.02-3.39-.03-6.79.16-10.16-.24 9.16-10.72 19.97-19.97 28.64-31.13 4.28-5.38 8.91-10.89 10.53-17.75 1.69-4.87-.65-11.21-5.77-12.88-4.16-1.76-9.44.88-10.63 5.22-.6 2.22-.82 4.52-1.21 6.78-6.84-.13-13.69.15-20.52-.16.4-6.5 1.78-13.22 6.04-18.36" fill="#fff"/></svg>