<svg xmlns="http://www.w3.org/2000/svg" height="321.39" width="600" viewBox="0 0 158.75 85.034453"><g transform="translate(-108.1-547.2)"><g fill="#fff"><path d="m138.7 576.43-1.32-10.24-4.24 10.24h-1.83l-4.03-10.24-1.5 10.24h-4.56l2.99-17.79h4.52l3.57 9.49 3.77-9.49h4.53l2.67 17.79z"/><path d="m157.34 571.52q0 4.89-6.36 4.91-6.37 0-6.37-4.91v-7.61h4.21v6.8q0 2.21 2.16 2.21 2.14 0 2.14-2.21v-6.8h4.22z"/><path d="m160.03 576.43v-19.38h4.22v19.38z"/><path d="m171.27 567.96v8.47h-4.22v-8.47h-1.39v-3.53h1.39v-3.61h4.22v3.61h2.41v3.53z"/><path d="m175.01 576.43v-12h4.22v12zm4.49-16.38q0 .51-.18.93-.19.43-.52.76t-.76.5q-.46.18-.93.18-.93 0-1.66-.69-.71-.71-.71-1.66 0-.5.19-.95t.51-.77q.31-.32.75-.51t.92-.19q.49 0 .93.19t.76.51q.33.34.52.76.18.43.18.94"/><path d="m188.17 556.81c-1.3 0-2.49.46-3.56 1.38-1.08.93-1.64 1.95-1.69 3.06l-.07 1.54v1.64h-1.52v3.53h1.52v8.47h4.22v-8.47h2.96v-3.53h-2.96v-2.24c0-1.12.5-1.68 1.5-1.68.37 0 .86.14 1.46.43v-3.68c-.61-.3-1.23-.45-1.86-.45"/><path d="m197.4 562.15-1.95-1.45 3.33-4.1 2.68 1.95zm6.35 9.37q0 4.89-6.35 4.91-6.38 0-6.38-4.91v-7.61h4.22v6.8q0 2.21 2.16 2.21 2.13 0 2.13-2.21v-6.8h4.22z"/><path d="m210.96 567.96v8.47h-4.21v-8.47h-1.39v-3.53h1.39v-3.61h4.21v3.61h2.42v3.53z"/><path d="m228.48 570.03c0 1.77-.58 3.28-1.74 4.55-1.15 1.23-2.59 1.85-4.31 1.85-1.41 0-2.49-.4-3.24-1.21l-.21-.22c-.07-.07-.15-.16-.24-.28v1.33h-4.22v-19.38h4.22v8.56c.2-.23.39-.4.57-.52.82-.7 1.88-1.04 3.16-1.04 1.75 0 3.19.62 4.32 1.87 1.12 1.23 1.69 2.72 1.69 4.48zm-4.39.04c0-.77-.26-1.42-.79-1.94-.53-.54-1.18-.81-1.93-.81-.77 0-1.41.27-1.94.81-.54.52-.8 1.16-.8 1.92 0 .77.26 1.42.8 1.94.53.52 1.18.79 1.94.79.72 0 1.35-.27 1.9-.79.55-.55.82-1.19.82-1.92"/><path d="m243.94 569.98q0 3.01-2.19 4.79-2.02 1.66-5.02 1.66-3.12 0-5.16-1.78-2.03-1.8-2.03-4.56 0-3.04 2.13-4.85 1.99-1.71 4.99-1.71 3.25 0 5.24 1.8 2.04 1.82 2.04 4.65m-4.48-.02q0-1.17-.8-1.95-.8-.81-1.93-.81-1.11 0-1.91.81-.81.81-.81 1.92 0 .58.22 1.08.21.5.57.89.35.37.87.59.5.22 1.06.22 1.13 0 1.93-.81.8-.82.8-1.94"/><path d="m245.66 576.43v-19.38h4.22v19.38z"/><path d="m108.1 547.2v38.79h11.4v7.72h11.94v-7.72h135.41v-38.79zm4.22 4.21h150.32v30.36h-135.41v7.73h-3.51v-7.73h-11.4z" stroke-width=".265"/></g><path d="m164.19 585.67h46.57v46.56h-46.57z" fill="#0feb0f"/><path d="m202.25 613.95q0 6.11-4.61 9.79-4.17 3.35-10.35 3.35-6.43 0-10.5-3.53-4.08-3.54-4.08-9.15 0-6.27 5.29-13.33l7.76-10.27h10.26l-8.73 10.64q.72-.28 1.86-.28 5.62 0 9.33 3.67 3.77 3.71 3.77 9.11m-9.25.22q0-2.36-1.67-4.03-1.67-1.73-4.04-1.73-2.42 0-4.09 1.68-1.67 1.67-1.67 4.08 0 2.38 1.67 4.1 1.72 1.66 4.09 1.66 2.32 0 3.99-1.71 1.72-1.72 1.72-4.05" fill="#fff"/></g></svg>