<?xml version="1.0" encoding="UTF-8" standalone="no"?>
<svg xmlns:rdf="http://www.w3.org/1999/02/22-rdf-syntax-ns#" xmlns="http://www.w3.org/2000/svg" height="322.97" width="600" version="1.1" xmlns:cc="http://creativecommons.org/ns#" xmlns:dc="http://purl.org/dc/elements/1.1/" viewBox="0 0 158.75 85.451958">
 <g transform="translate(45.735 -757.88)">
  <path d="m10.356 796.77h46.568v46.56h-46.568z" fill="#08c1b3"/>
  <g fill="#fff">
   <path d="m48.409 814.52q0 6.44-5.295 13.43l-7.756 10.21h-10.217l8.357-10.17h-0.692l-1.213-0.04q-0.93-0.05-2.018-0.31-1.123-0.26-2.393-0.71-3.946-1.49-6.134-4.54-2.178-3.05-2.178-7.27 0-6.22 4.547-9.84 4.071-3.35 10.41-3.35t10.489 3.59q4.093 3.55 4.093 9zm-8.822 0.33q0-2.37-1.678-4.05-1.667-1.66-4.037-1.66-2.426 0-4.093 1.66-1.667 1.67-1.667 4.05 0 2.37 1.667 4.04 1.678 1.68 4.048 1.68 1.202 0 2.245-0.45 1.055-0.45 1.837-1.21 0.794-0.77 1.236-1.81 0.442-1.05 0.442-2.25z"/>
   <path stroke-width=".26458" d="m-45.735 757.88v38.96h11.85v7.41h11.46v-7.41h135.44v-38.96zm4.22 4.22h150.32v30.7h-135.28v7.41h-3.365v-7.41h-11.67z"/>
   <path d="m-20.105 784.62-1.14-8.76-3.67 8.76h-1.58l-3.49-8.76-1.3 8.76h-3.94l2.58-15.21h3.92l3.08 8.11 3.26-8.11h3.92l2.31 15.21z"/>
   <path d="m-3.0051 780.87q0 4.18-5.5 4.2-5.5099 0-5.5099-4.2v-6.51h3.65v5.82q0 1.89 1.8599 1.89 1.85 0 1.85-1.89v-5.82h3.65z"/>
   <path d="m-0.50512 784.62v-15.21h3.65v15.21z"/>
   <path d="m9.7049 777.38v7.24h-3.65v-7.24h-1.2v-3.02h1.2v-3.08h3.65v3.08h2.0901v3.02z"/>
   <path d="m17.015 771.32q0 0.43-0.16 0.8-0.16 0.36-0.45 0.65-0.29 0.28-0.66 0.42-0.39 0.16-0.8 0.16-0.81 0-1.44-0.59-0.61-0.61-0.61-1.42 0-0.43 0.16-0.82 0.17-0.38 0.44-0.66 0.27-0.27 0.65-0.43t0.8-0.16 0.8 0.16 0.66 0.43q0.29 0.29 0.45 0.65 0.16 0.37 0.16 0.81zm-3.9 13.3v-10.26h3.65v10.26z"/>
   <path d="m27.275 784.62v-1.13q-0.29 0.34-0.39 0.44-1.08 1.02-2.8 1.02-2.27 0-3.75-1.61t-1.48-3.87q0-2.27 1.48-3.84 1.47-1.6 3.71-1.6 1.49 0 2.43 0.63 0.3 0.2 0.8 0.71v-5.96h3.64v15.21zm0.09-5.13q0-0.5-0.18-0.92-0.19-0.44-0.5-0.73-0.33-0.31-0.76-0.5-0.41-0.18-0.91-0.18-0.97 0-1.66 0.69-0.69 0.67-0.69 1.62 0 0.49 0.18 0.92 0.19 0.45 0.5 0.75 0.31 0.31 0.75 0.5 0.43 0.18 0.92 0.18 0.5 0 0.91-0.18 0.43-0.19 0.76-0.5 0.3-0.29 0.5-0.74 0.18-0.41 0.18-0.91z"/>
   <path d="m36.685 780.16q0.02 2.31 2.23 2.31 1.14 0 1.78-0.97h3.54q-0.34 1.12-0.94 1.82-1.5 1.71-4.4 1.71-2.69 0-4.3-1.48-1.6-1.48-1.6-3.98 0-2.54 1.54-4.02 1.55-1.48 4.22-1.48 2.62 0 4.12 1.52 1.5 1.55 1.5 4.18v0.39zm4.3-2.11q-0.42-1.64-2.13-1.64-1.74 0-2.07 1.64z"/>
   <path d="m58.505 779.51q0 1.66-0.84 3.02-0.83 1.36-2.31 1.99-0.95 0.43-2.05 0.43-0.83 0-1.56-0.25-0.3-0.09-0.46-0.17-0.18-0.08-0.39-0.21-0.15-0.1-0.38-0.3-0.17-0.15-0.43-0.41v6.32h-3.65v-15.57h3.65v1.13q0.06-0.08 0.19-0.22t0.19-0.22q1.08-1.02 2.8-1.02 2.28 0 3.76 1.6 1.48 1.61 1.48 3.88zm-3.8 0q0-0.49-0.18-0.93-0.19-0.44-0.51-0.74-0.32-0.31-0.76-0.5-0.43-0.18-0.92-0.18-0.5 0-0.91 0.18-0.43 0.19-0.75 0.5-0.31 0.29-0.51 0.73-0.18 0.42-0.18 0.92 0 0.96 0.71 1.66 0.69 0.67 1.66 0.67 0.93 0 1.64-0.67 0.71-0.7 0.71-1.64z"/>
   <path d="m72.625 779.49q0 2.58-1.89 4.1-1.75 1.42-4.34 1.42-2.7 0-4.46-1.52-1.77-1.54-1.77-3.9 0-2.6 1.85-4.15 1.72-1.47 4.32-1.47 2.81 0 4.53 1.54 1.76 1.56 1.76 3.98zm-3.87-0.02q0-0.99-0.7-1.66-0.69-0.7-1.66-0.7t-1.66 0.7q-0.69 0.69-0.69 1.64 0 0.49 0.18 0.92t0.5 0.76q0.3 0.32 0.75 0.51 0.43 0.18 0.92 0.18 0.97 0 1.66-0.69 0.7-0.69 0.7-1.66z"/>
   <path d="m82.445 777.7-0.4-0.18q-0.47-0.18-1.16-0.18-1.16 0-1.86 0.7t-0.7 2.18v4.4h-3.65v-10.26h3.65v1.68q0.53-0.81 1.06-1.15 0.97-0.67 2.37-0.67h0.31q0.03 0 0.15 0.01 0.09 0.01 0.23 0.03z"/>
   <path d="m88.145 777.38v7.24h-3.65v-7.24h-1.2v-3.02h1.2v-3.08h3.65v3.08h2.09v3.02z"/>
   <path d="m94.835 780.16q0.03 2.31 2.24 2.31 1.13 0 1.78-0.97h3.525q-0.33 1.12-0.93 1.82-1.495 1.71-4.395 1.71-2.69 0-4.3-1.48t-1.61-3.98q0-2.54 1.54-4.02 1.55-1.48 4.22-1.48 2.62 0 4.115 1.52 1.5 1.55 1.5 4.18v0.39zm4.31-2.11q-0.43-1.64-2.13-1.64-1.75 0-2.07 1.64z"/>
  </g>
 </g>
</svg>
