<?xml version="1.0" encoding="UTF-8" standalone="no"?>
<svg xmlns:rdf="http://www.w3.org/1999/02/22-rdf-syntax-ns#" xmlns="http://www.w3.org/2000/svg" enable-background="new 0 0 86 32" xml:space="preserve" height="450.01" viewBox="0 0 600 450.00886" width="600" version="1.1" y="0px" x="0px" xmlns:cc="http://creativecommons.org/ns#" xmlns:dc="http://purl.org/dc/elements/1.1/"><rect height="300.02" width="599.96" y="149.99" x="0" stroke-width="1.5" fill="#ff6419"/><rect height="149.99" width="600" y="0" x="0" stroke-width="1.5"/><g fill="#fff"><path stroke-width="1.5" d="m111.33 36.756 0.35-2.224-1.09-1.836c-8.51-5.544-18.893-8.333-31.145-8.333-15.359 0-28.07 4.837-38.063 14.477-10.027 9.639-15.041 21.856-15.041 36.65 0 14.3 4.59 25.88 13.805 34.78 9.216 8.86 21.256 13.27 36.121 13.27 8.227 0 14.724-1.41 19.491-4.27l1.694-3.56 2.648-18.47c0.18-1.412-0.564-1.2-4.237-0.035-7.026 2.048-12.746 3.035-17.301 3.035-7.132 0-13.064-2.4-17.76-7.202-4.661-4.837-6.956-10.981-6.956-18.396 0-8.015 2.613-14.547 7.98-19.631 5.296-5.049 12.217-7.591 20.726-7.591 8.156 0 15.218 1.871 21.078 5.649l3.36 1.695 1.34-2.684 3-15.324"/><path stroke-width="1.5" d="m182.05 29.553-2.12-1.977h-28.31l-2.83 1.73-43.61 88.274-0.28 1.09 0.99 0.85h23.8l2.93-1.45 6.14-12.64 2.44-1.48h29.91l2.01 1.59 3.18 12.78 1.73 1.2h21.25l1.06-1.09v-0.5l-18.29-88.377m-14.93 53.811h-17.8l-0.85-0.389 0.25-0.706 11.9-26.976 0.64-0.882 0.63 1.235 6.25 26.129 0.25 1.094-1.27 0.495"/><polyline points="520.9 140.08 520.96 140.12 521.54 140.12 521.6 140.07 521.81 138.58 521.82 138.54 521.84 138.58 522.69 140.07 522.78 140.12 523.37 140.12 523.44 140.08 523.78 137.55 523.74 137.52 523.12 137.52 523.06 137.57 522.87 138.92 522.85 138.97 522.82 138.93 522.04 137.56 521.96 137.52 521.3 137.52 521.24 137.56 520.9 140.08" transform="matrix(35.309 0 0 35.309 -18180 -4827.9)"/><path stroke-width="1.5" d="m406.33 117.58-18.5-88.168-2.22-1.836h-26.98l-2.72 1.589-43.39 88.655-0.39 1.1 0.99 0.64h23.51l2.58-1.38 6.64-12.85 2.58-1.35h28.31l2.58 1.95 2.33 11.89 2.3 1.74h20.97l1.45-0.75-0.04-1.23m-31.78-35.064-1.34 0.848h-16.56l-1.62-0.742 0.28-1.094 12.01-27.082 0.74-1.095 0.53 1.095 5.89 26.835 0.11 0.6v0.635z"/><polyline points="527.1 137.52 527.06 137.57 526.7 140.09 526.73 140.12 528.19 140.12 528.24 140.08 528.31 139.57 528.28 139.53 527.58 139.53 527.54 139.5 527.54 139.49 527.8 137.55 527.76 137.52 527.1 137.52" transform="matrix(35.309 0 0 35.309 -18180 -4827.9)"/><polyline points="530.13 139.14 530.18 139.09 531.04 139.09 531.08 139.05 531.08 138.34 531.04 138.3 530.17 138.3 530.13 138.25 530.13 137.45 530.09 137.41 529.38 137.41 529.34 137.45 529.34 138.25 529.3 138.3 528.37 138.3 528.33 138.34 528.33 139.05 528.38 139.09 529.3 139.09 529.34 139.14 529.34 140.08 529.38 140.12 530.1 140.12 530.13 140.07 530.13 139.14" transform="matrix(35.309 0 0 35.309 -18180 -4827.9)"/><g stroke-width="1.5"><path d="m135.76 286.78h88.17c-0.07 12.43-0.74 22.52-2.12 30.26-3.28 18.89-10.81 34.35-22.56 46.43-16 16.35-37.08 24.54-63.17 24.54-27.05 0-49.044-8.41-65.957-25.21-16.912-16.92-25.351-38.84-25.351-65.85 0-27.19 8.403-49.15 25.351-66 17.16-17.19 39.797-25.77 67.867-25.77 25 0 44.91 7.66 59.77 22.98 4.88 5.05 10.56 13.49 17.09 25.25l-42.3 17.62c-3.56-7.52-6.85-12.85-9.92-16.07-7.2-7.59-15.99-11.4-26.34-11.4-14.26 0-25.74 5.97-34.28 17.87-7.029 9.85-10.631 21.89-10.631 36.15 0 17.37 5.085 31.07 15.081 41.21 8.33 8.4 18.71 12.6 31.17 12.6 12.57 0 21.93-4.2 28.04-12.6 3.04-4.1 5.22-9.93 6.64-17.52h-36.58v-34.49"/><path d="m306.8 297.26c-7.13 0-13.31 2.62-18.5 7.84-5.19 5.12-7.84 11.3-7.84 18.5 0 7.52 2.61 13.88 7.84 19.11 5.15 5.12 11.33 7.69 18.6 7.69 7.38 0 13.63-2.61 18.75-7.8 5.19-5.16 7.84-11.4 7.84-18.78 0-7.35-2.58-13.6-7.73-18.72-5.12-5.19-11.44-7.84-18.96-7.84m0.46-35.38c14.79 0 28.07 3.36 39.86 10.03 9.6 5.51 16.98 12.82 22.21 21.89 5.19 9.01 7.8 19.11 7.8 30.26 0 16.81-5.58 30.86-16.84 42.2-6.43 6.32-14.16 11.19-23.23 14.61-9.36 3.57-19.46 5.37-30.23 5.37-22.03 0-39.72-6.71-53.1-20.09-11.27-11.16-16.91-24.89-16.91-41.2 0-17.27 5.82-31.75 17.4-43.43 12.96-13.1 30.62-19.64 53.04-19.64z"/><rect height="171.42" width="41.17" y="210.44" x="394.75"/><path d="m510.88 300.26v81.6h-41.17v-81.6h-14.86v-34.03h14.86v1.76l0.67-14.83c0.39-8.12 3.71-15.82 10.07-23.12 5.47-6.47 12.32-11.48 20.37-15.05 6.92-3.07 14.02-4.59 21.25-4.59 3.43 0 6.25 0.29 8.48 0.78 2.22 0.53 5.26 1.73 9.14 3.6v35.49c-5.93-2.76-10.62-4.13-14.05-4.13-4.66 0-8.3 1.44-10.95 4.34-2.5 2.82-3.77 6.78-3.77 11.83v8.72-4.8h28.77v34.03h-28.81"/></g></g></svg>
