<svg xmlns="http://www.w3.org/2000/svg" viewBox="0 0 632.14 263.01"><path d="m167.37 101.29l-93.21 38.797 21.16 51.39 90.19-39.3z" fill="#fff"/><g fill="#7b7c7e"><path d="m151.2 263.01c-8.941 0-12.692-7.708-12.692-23.881 0-17.394 4.368-26.13 13.309-26.13 7.643 0 11.806 5.794 11.806 16.918v1.092h-9.146v-2.248c0-5.729-.552-8.53-2.8-8.53-3.199 0-3.61 6.14-3.61 19.513 0 10.238.475 15 3.674 15 2.466 0 3.481-3.404 3.481-10.431v-.681h8.26c-.206 12.962-4.226 19.372-12.281 19.372"/><path d="m171.33 213.95h12.345l6.218 48.17h-8.324l-1.375-10.303h-6.886l-1.233 10.303h-7.566l6.821-48.17m7.913 29.957l-2.518-21.35-2.531 21.35h5.05"/><path d="m192.47 213.95h8.53l5.794 16.918c1.092 3.212 2.055 6.282 2.466 9.352v-26.27h7.502v48.17h-7.232l-6.616-18.627c-1.169-3.212-2.261-6.423-2.942-9.763v28.39h-7.502v-48.17"/><path d="m226.25 213.95h12.345l6.218 48.17h-8.324l-1.375-10.303h-6.886l-1.233 10.303h-7.566l6.821-48.17m7.913 29.957l-2.518-21.35-2.531 21.35h5.05"/><path transform="matrix(12.84616 0 0 12.84616-413.77-2278.56)" d="m51.47 194.03h.72v3.13h.9v.62h-1.62z"/></g><g fill="#fff"><path transform="matrix(12.84616 0 0 12.84616-413.77-2278.56)" d="m53.986 194.03h.722v1.51h.422v-1.51h.726v3.75h-.726v-1.63h-.422v1.63h-.722z"/><path d="m321.42 213.07c9.48 0 13.167 8.119 13.167 24.973 0 16.854-3.623 24.973-13.1 24.973-9.827 0-13.514-7.977-13.514-24.973.013-16.983 3.635-24.973 13.45-24.973m3.417 26.681c0-12.962-.27-18.897-3.481-18.897-3.404 0-3.61 5.524-3.61 17.535 0 11.459.334 16.584 3.687 16.584 2.788 0 3.404-4.984 3.404-15.223"/><g transform="matrix(12.84616 0 0 12.84616-413.77-2278.56)"><path d="m58.59 194.03h.72v3.13h.9v.62h-1.62z"/><path d="m60.37 194.03h.72v3.13h.9v.62h-1.62z"/><path d="m62.47 197.78v-1.52l-.623-2.23h.723l.355 1.41.425-1.41h.584l-.734 2.23v1.52z"/></g><path d="m416.13 213.95l1.914 20.4c.334 3.276.54 6.552.681 9.827.206-4.496.822-7.913 1.156-10.303l2.865-19.924h8.53l2.865 19.924c.283 2.043.886 5.46 1.092 10.303.206-4.779.475-8.05.681-9.827l2.595-20.4h6.886l-6.744 48.17h-8.401l-2.929-22.17c-.54-4.239-.886-8.26-1.028-12.08 0 4.56-.745 8.53-1.297 12.08l-3.263 22.17h-8.53l-5.537-48.17h8.466"/><path d="m460.53 213.07c9.493 0 13.167 8.119 13.167 24.973 0 16.854-3.61 24.973-13.09 24.973-9.827 0-13.514-7.977-13.514-24.973 0-16.983 3.623-24.973 13.437-24.973m3.417 26.681c0-12.962-.27-18.897-3.481-18.897-3.404 0-3.61 5.524-3.61 17.535 0 11.459.334 16.584 3.674 16.584 2.8 0 3.417-4.984 3.417-15.223"/><path d="m490.42 213.07c9.493 0 13.167 8.119 13.167 24.973 0 16.854-3.61 24.973-13.09 24.973-9.827 0-13.514-7.977-13.514-24.973 0-16.983 3.623-24.973 13.437-24.973m3.417 26.681c0-12.962-.27-18.897-3.481-18.897-3.417 0-3.61 5.524-3.61 17.535 0 11.459.334 16.584 3.674 16.584 2.8 0 3.417-4.984 3.417-15.223"/><path d="m507.82 213.97h10.226c11.6 0 14.953 7.155 14.953 24.07 0 16.995-3.276 24.09-14.953 24.09h-10.226v-48.16m9.275 40.18c.347.064.745.064 1.028.064 4.779 0 5.113-4.637 5.113-15.08 0-8.517-.141-13.501-1.156-15.15-.886-1.362-2.325-2.043-4.368-2.043h-.617v32.21"/></g><g fill="#009dd5"><path d="m179.72 129.44l65.27 71.31-105.57-12.923-42.906 75.19-13.501-94.92-83.01-15.09 80.905-40.41-7.656-112.58 68.14 79.29 121.61-75.14-83.28 125.29m-83.04 55.14l8.568-3.546-7.99-19.295 5.05-2.081 7.99 19.282 8.568-3.558-18.434-44.499-8.568 3.558 7.412 17.895-5.05 2.094-7.412-17.908-8.568 3.558 18.434 44.499m6.719-54.917l23.534 42.38 7.888-3.263-5.46-21.736c-.861-3.481-1.683-7.425-3.43-11.651 1.593 3.481 3.443 7.07 5.562 10.765l11.202 19.359 7.759-3.212-12.204-47.08-6.359 2.633 5.408 19.834c.488 1.721 1.49 4.856 3.122 9.339-2.03-4.393-3.905-7.309-4.946-9.1l-10.277-17.304-7.875 3.263 4.984 19.5c.591 2.338 1.336 5.717 2.865 9.956-1.375-2.967-2.826-5.922-4.393-8.812l-9.57-18.11-7.81 3.237m56.25 28.827l9.455-3.918c10.778-4.47 11.09-12.281 4.586-27.979-6.474-15.634-12.307-20.965-23.02-16.533l-9.455 3.918 18.434 44.512m-6.808-40.684l.565-.231c1.888-.784 3.481-.707 4.817.218 1.58 1.118 3.61 5.665 6.873 13.553 3.995 9.635 5.447 14.05 1.041 15.891-.257.103-.629.257-.976.321l-12.319-29.752"/><g transform="translate(-78.28-345.34)"><path d="m623.58 607.15v-47.02h9.495v18.508h18.604v-18.508h9.495v47.02h-9.495v-20.561h-18.604v20.561z"/><path d="m670.99 560.12h17.353c3.913 0 6.896.299 8.949.898 2.759.813 5.121 2.256 7.089 4.33 1.967 2.074 3.464 4.614 4.491 7.618 1.026 3 1.54 6.709 1.54 11.11 0 3.871-.481 7.206-1.443 10.01-1.176 3.421-2.855 6.191-5.04 8.308-1.647 1.604-3.871 2.855-6.672 3.753-2.096.663-4.897.994-8.404.994h-17.866zm9.495 7.955v31.15h7.089c2.652 0 4.565-.15 5.742-.449 1.54-.385 2.817-1.037 3.833-1.957 1.016-.919 1.844-2.432 2.486-4.539.641-2.106.962-4.977.962-8.612 0-3.635-.321-6.426-.962-8.372-.642-1.946-1.54-3.464-2.694-4.555-1.155-1.091-2.62-1.828-4.394-2.213-1.326-.299-3.924-.449-7.795-.449z"/></g></g></svg>