<svg xmlns="http://www.w3.org/2000/svg" viewBox="0 0 600 272.47"><defs><clipPath><path d="m60.963 488.06l.411-1.862h-19.268v-5.214h21.21c0 .931-.046 2.206-.046 3.137.094-.031 1.325.132 2.557.294 1.231.162 2.463.325 2.556.293-.14 1.188-.416 2.127-.527 3.352h-6.89"/></clipPath><clipPath><path d="m42.27 463.6h25.947v13.607h-25.947v-13.607"/></clipPath></defs><g transform="translate(-50-417.22)"><g fill="#1d3c85"><path d="m0 0v1.057l-12.09-1.057h12.09" transform="matrix(23.1241 0 0-23.1241 619.96 670.77)"/><path d="m0 0h-10.498v-5.487h1.314l-.406 4.648 9.59.839" transform="matrix(23.1241 0 0-23.1241 334.95 543.9)"/></g><g fill="#66cef5"><path d="m0 0l-13.147-1.15h12.326v-4.429l1.299.113-.478 5.466" transform="matrix(23.1241 0 0-23.1241 638.95 517.3)"/><path d="m0 0l9.352.818h-9.424l.072-.818" transform="matrix(23.1241 0 0-23.1241 124.24 689.69)"/></g><path d="m0 0l-9.59-.839.406-4.648h9.424l12.09 1.058v4.429h-12.326" fill="#1c63b7" transform="matrix(23.1241 0 0-23.1241 334.95 543.9)"/><path d="m0 0h-10.329 10.327.002" fill="#243b84" transform="matrix(23.1241 0 0-23.1241 331.03 543.89)"/><path d="m69.1 543.91h23.1-23.1" fill="#1c63b7"/><g fill="#fff"><path d="m0 0l-.372-1.082h.734l-.362 1.082m.825-2.346l-.223.589h-1.218l-.232-.589h-.933l1.305 3.398h.96l1.282-3.398h-.941" transform="matrix(23.1241 0 0-23.1241 553.45 589.21)"/><path d="m237.28 643.62h-20.511v-78.899h20.511v78.899"/><path d="m0 0h-.946l-.911 1.529c-.041.072-.091.159-.146.269-.113.213-.159.309-.272.577v-.155c0-.25-.009-.437-.036-.646l-.191-1.574h-.866l.42 3.412h.932l.975-1.646.145-.275.131-.262.069-.128c0 .065 0 .109.004.142.005.131.02.3.037.445l.214 1.724h.86l-.419-3.412" transform="matrix(23.1241 0 0-23.1241 329.28 643.63)"/><path d="m0 0h-1.051v-.568h.996v-.752h-.996v-.59h1.051v-.751h-1.938v3.412h.295l.051.142h1.347l-.05-.142h.295v-.751" transform="matrix(23.1241 0 0-23.1241 398.46 582.09)"/><path d="m0 0h.879l.692-1.82.732 1.82h.877l.52-3.412h-.888l-.255 1.965-.824-1.965h-.354l-.782 1.965-.292-1.965h-.884l.579 3.412" transform="matrix(23.1241 0 0-23.1241 424.04 564.72)"/><path d="m0 0c-.164-.082-.537-.15-.8-.15-.988 0-1.697.709-1.697 1.698 0 1.036.819 1.851 1.869 1.851.269 0 .533-.055.815-.172.15-.065.205-.106.205-.156v-.013l-.083-.669c-.008-.082-.012-.087-.031-.087-.009 0-.019.005-.032.014l-.05.041c-.165.137-.474.222-.742.222-.618 0-1.065-.418-1.065-.991 0-.536.388-.919.933-.919.277 0 .643.091.751.187.009.013.023.017.028.017.013 0 .018-.008.018-.023 0-.012 0-.027-.005-.049l-.064-.741c0-.023-.019-.045-.05-.06" transform="matrix(23.1241 0 0-23.1241 193.39 641.74)"/></g><path d="m556.63 417.22h-506.63v126.65h506.63v-126.65" fill="#151922"/><path d="m0 0l-.018-.009h-1.182c-.019 0-.028-.001-.028-.001 0 0-.014-.004-.014-.027v-1.26c0-.018-.009-.023-.009-.023l-.019-.009h-.937l-.023.009c0 0-.004.005-.004.028v1.259l-.015.023-.018.001h-1.21c-.022 0-.027.004-.027.004 0 0-.001.009-.001.037v.923l.001.023.014.005h1.237l.009.005.001.013v1.103l.004.023c0 0 .009.005.037.005h.919c.018 0 .023-.005.023-.005 0 0 .009-.009.009-.027v-1.108h1.2c.033 0 .042-.004.042-.004 0 0 .014-.005.014-.033v-.932l-.014-.023m-3.661-1.297c-.005-.027-.009-.036-.009-.036 0 0-.005-.001-.028-.001h-1.902c-.056 0-.069.014-.069.014 0 0-.001.018-.005.06l.471 3.276c.004.042.014.056.014.056h.05.864c.023 0 .032-.005.032-.005 0 0 .005-.014 0-.032l-.355-2.561c-.005-.028.009-.033.009-.033 0 0 .009-.004.046-.004h.942c.018 0 .027-.001.027-.001 0 0 .005-.004.005-.027l-.092-.688m-2.424-.051h-.845c-.018-.009-.032.001-.032.001 0 0-.005.005-.009.032l-.111.521c-.009.028-.019.042-.019.042 0 0-.023.014-.05.014h-1.099c-.023 0-.037-.014-.037-.014 0 0-.019-.018-.028-.046l-.249-.531-.014-.018-.028-.005h-.951c-.023-.005-.032.001-.032.001 0 0-.005.009.009.027l1.676 3.346.019.018c0 0 .009.005.036.005h1.039c.023 0 .037-.014.037-.014l.009-.019.698-3.359-.005-.014-.014-.005m-3.957.005h-.844-.028l-.009.001-1.173 2.081-.014.009-.009-.014-.291-2.044c-.005-.023-.009-.028-.009-.028l-.023-.004h-.841l-.023.009c0 0-.018.018-.013.036l.461 3.309c.005.019.014.023.014.023l.028.014h.937l.023-.009.014-.019 1.057-1.855c.019-.037.033-.032.033-.032 0 0 .013 0 .023.042l.267 1.845.001.019.018.009.882-.009c.018 0 .023-.005.023-.005l.005-.014-.476-3.336c-.005-.018-.014-.032-.014-.032 0 0-.004-.005-.028-.005m-3.693.001l-.822-.005c-.018 0-.032.009-.032.009 0 0-.005.005-.001.037l-.128.531-.001.018h-.014-1.159c-.023 0-.037-.018-.037-.018 0 0-.018-.014-.032-.047l-.231-.493c-.009-.019-.014-.023-.014-.023l-.027-.009h-.956c-.028-.005-.032.009-.032.009 0 0-.005.013.004.032l1.658 3.332c.009.018.023.023.023.023h.032 1.057c.019 0 .033-.014.033-.014l.009-.019.711-3.341-.009-.018-.014-.004zm6.26 2.431c0 0-.004 0-.009-.018l-.462-1.043c-.009-.033-.004-.037-.004-.037l.023-.009.683.004h.001v.019l-.231 1.07-.001.014m-7.664-.014l-.009-.009-.461-1.047-.005-.024c0 0 .005-.004.028-.004l.678-.005.009.005v.018l-.235 1.057-.005.009m-2.363-2.302c-.005-.037-.023-.065-.023-.065 0 0-.019-.018-.051-.028-.443-.179-.937-.12-.937-.12-.799.088-1.307.577-1.469 1.209-.24.946.236 1.62.351 1.763.282.337.721.577 1.15.632.549.079.956-.05 1.122-.106 0 0 .184-.06.323-.152.069-.046.078-.065.078-.065 0 0 .005-.009-.013-.083l-.13-.678c-.004-.028-.023-.042-.023-.042 0 0-.009-.004-.074.037-.415.296-.9.259-.9.259-.369-.023-.799-.217-.928-.706-.115-.434.005-.799.263-1.015.176-.153.448-.231.734-.217.314.023.563.147.545.138l.028.009c.064.033.078.028.078.028 0 0 .014-.014.005-.055l-.129-.743" fill="#fff" transform="matrix(23.1241 0 0-23.1241 535 486.08)"/></g></svg>