<svg xmlns="http://www.w3.org/2000/svg" viewBox="0 0 630 102"><path d="M 0,17.13 H314.52 V95.85 H0 z"/><g fill="#fff"><path d="m58.36 36.42c.13-.64.2-1.03.2-1.15 0-.39-.2-.71-.58-.97-4.46-2.92-9.9-4.38-16.33-4.38-8.05 0-14.7 2.53-19.95 7.6-5.25 5.06-7.88 11.47-7.88 19.23 0 7.51 2.42 13.59 7.23 18.24 4.83 4.66 11.14 6.99 18.93 6.99 4.33 0 7.74-.75 10.22-2.26.47-.25.77-.87.9-1.86l1.38-9.69c.1-.74-.3-.64-2.21-.02-3.69 1.06-6.71 1.6-9.07 1.6-3.77 0-6.87-1.26-9.31-3.8-2.45-2.52-3.67-5.74-3.67-9.64 0-4.21 1.39-7.64 4.18-10.3 2.78-2.66 6.4-3.99 10.86-3.99 4.29 0 7.97.99 11.05 2.96.95.6 1.53.9 1.74.9.3 0 .54-.47.7-1.41l1.61-8.05"/><path d="m95.45 32.63c-.13-.69-.5-1.03-1.1-1.03h-14.84c-.69 0-1.18.3-1.48.9l-22.88 46.33c-.09.25-.13.45-.13.58 0 .29.17.44.51.44h12.48c.77 0 1.28-.26 1.54-.77l3.21-6.62c.26-.52.69-.78 1.29-.78h15.68c.6 0 .94.28 1.03.84l1.66 6.69c.09.43.39.64.91.64h11.11c.39 0 .59-.19.59-.57v-.26l-9.58-46.39m-7.84 28.24h-9.32c-.3 0-.45-.06-.45-.19l.12-.39 6.24-14.15c.13-.26.24-.41.32-.45.13.08.24.3.32.64l3.28 13.71c.09.34.13.53.13.57 0 .18-.21.26-.64.26" fill-rule="evenodd"/><path d="m111.13 79.21c0 .43.36.64 1.1.64h10.73c.6 0 .94-.3 1.02-.9l3.86-27.54c.09-.55.15-.83.19-.83.13.09.3.3.52.64l15.74 27.73c.35.6.86.9 1.54.9h11c.72 0 1.13-.26 1.21-.77l6.43-46.78c0-.47-.28-.7-.83-.7h-11.37c-.78 0-1.21.32-1.29.96l-3.47 24.97c-.09.64-.19.96-.33.96-.12 0-.32-.23-.58-.7l-14.39-25.29c-.35-.6-.86-.9-1.54-.9h-12.21c-.6 0-.95.28-1.03.83l-6.3 46.78"/><path d="m212.99 78.83l-9.7-46.27c-.13-.64-.51-.96-1.15-.96h-14.15c-.68 0-1.15.28-1.41.83l-22.75 46.52c-.13.26-.19.46-.19.58 0 .22.17.32.51.32h12.34c.64 0 1.1-.23 1.35-.7l3.47-6.76c.26-.47.71-.71 1.35-.71h14.85c.77 0 1.22.34 1.35 1.03l1.22 6.24c.12.6.53.9 1.22.9h10.99c.52 0 .77-.13.77-.38 0-.3-.02-.52-.07-.64m-16.64-18.41c0 .3-.24.45-.71.45h-8.67c-.56 0-.84-.13-.84-.38 0-.13.05-.32.13-.58l6.3-14.22c.17-.35.3-.54.39-.58.08.08.17.28.25.58l3.09 14.09c0 .04.02.15.06.32v.32" fill-rule="evenodd"/><path d="m225.91 31.6c-.47 0-.74.34-.83 1.03l-6.68 46.71c0 .34.19.52.57.52h26.99c.56 0 .88-.26.97-.78l1.29-9.46c0-.42-.22-.64-.65-.64h-12.91c-.52 0-.78-.23-.78-.71v-.12l4.83-35.98c0-.38-.22-.57-.65-.57h-12.15"/><path d="m281.96 61.64c0-.55.28-.83.83-.83h15.95c.46 0 .7-.26.7-.77v-13.13c0-.56-.24-.83-.7-.83h-16.14c-.42 0-.64-.31-.64-.9v-14.87c0-.43-.28-.64-.84-.64h-13.1c-.43 0-.65.21-.65.64v14.87c0 .59-.26.9-.77.9h-17.23c-.47 0-.7.23-.7.7v13.19c0 .56.25.84.77.84h17.1c.55 0 .83.32.83.96v17.31c0 .51.24.77.7.77h13.19c.46 0 .7-.3.7-.9v-17.31"/></g><path fill="#c36" d="m365.2 30.46l26.37 15.23-26.37 15.23z"/><path fill="#f39" d="m391.57 45.69l-26.37-15.23 26.37-15.23z"/><path fill="#9c6" d="m365.2 0l-26.37 15.23v30.46l26.37-15.23z"/><path fill="#4ac2f1" d="m365.2 60.92l-26.37-15.23 26.37-15.23z"/><path fill="#f30" d="m365.2 60.92l26.37 15.23-26.37 15.23z"/><path fill="#f39" d="m391.57 76.15l-26.37-15.23 26.37-15.23z"/><path fill="#fc0" d="m365.2 91.38l-26.37-15.23 26.37-15.23z"/><path fill="#4ac2f1" d="m423.54 28.56l26.37 15.23-26.37 15.23z"/><path fill="#19b1b1" d="m423.54 59.02l-26.37-15.23 26.37-15.23z"/><path fill="#f30" d="m423.54 59.02l26.37 15.22-26.37 15.23z"/><path fill="#c36" d="m449.91 74.24l-26.37-15.22 26.37-15.23z"/><path fill="#9c6" d="m397.17 74.24l26.37-15.22-26.37-15.23z"/><path fill="#fc0" d="m423.54 89.47l-26.37-15.23 26.37-15.22z"/><path fill="#4ac2f1" d="m482.38 25.85l26.37 15.23-26.37 15.23z"/><path fill="#19b1b1" d="m482.38 56.31l-26.37-15.23 26.37-15.23z"/><path fill="#fc0" d="m482.38 56.31l26.37 15.23-26.37 15.23z"/><path fill="#9c6" d="m508.75 71.54l-26.37-15.23 26.37-15.23z"/><path fill="#4ac2f1" d="m508.75 41.08l26.37 15.23-26.37 15.23z"/><path fill="#f39" d="m508.75 71.54l26.37 15.23-26.37 15.23z"/><path fill="#c36" d="m535.12 86.77l-26.37-15.23 26.37-15.23z"/><path fill="#9c6" d="m456.01 71.54l26.37-15.23-26.37-15.23z"/><path fill="#f39" d="m630 45.77l-26.37 15.23v30.46l26.37-15.23z"/><path fill="#fc0" d="m630 20.73l-26.37 15.22v13.95l26.37-15.23z"/><path fill="#f39" fill-rule="evenodd" d="m586.1 76.21l13.2-38.03-26.37 15.22z"/><path fill="#4ac2f1" d="m559.73 30.53l-26.37 15.23 26.37 45.68 13.2-38.04z"/><path fill="#c36" d="m559.73 91.44l26.37-15.23-13.17-22.81z"/></svg>