<svg xmlns="http://www.w3.org/2000/svg" viewBox="0 0 600 187.28"><g transform="translate(-194.29-294.94)"><path d="m194.29 421.22h600v-126.28h-600v126.28" fill="#000408"/><g fill="#fff"><path d="m719.52 335.19l-.954-.954v-15.15l.954-.972h29.324l.934.972v75.53l-.934.954h-18.239l-.916-.954v-58.51l-.974-.916h-9.196"/><path d="m288.06 325.88l.287-1.87-.916-1.526c-7.174-4.693-15.931-7.04-26.23-7.04-12.935 0-23.619 4.064-32.07 12.172-8.414 8.127-12.63 18.43-12.63 30.888 0 12.04 3.873 21.807 11.6 29.27 7.746 7.479 17.896 11.199 30.43 11.199 6.945 0 12.42-1.201 16.408-3.606l1.45-2.995 2.213-15.568c.137-1.165-.476-.992-3.549-.015-5.914 1.717-10.798 2.576-14.557 2.576-6.067 0-11.07-2.041-14.977-6.086-3.93-4.083-5.895-9.234-5.895-15.492 0-6.754 2.232-12.248 6.716-16.522 4.483-4.255 10.264-6.41 17.457-6.41 6.868 0 12.802 1.603 17.724 4.77l2.824 1.45 1.107-2.289 2.614-12.897"/><path d="m347.62 319.8l-1.755-1.679h-23.848l-2.385 1.468-36.745 74.35-.211.916.839.725h20.01l2.461-1.241 5.189-10.646 2.06-1.241h25.18l1.679 1.355 2.671 10.741 1.43 1.03h17.877l.936-.936v-.401l-15.396-74.44zm-12.592 45.31h-14.996l-.687-.305.191-.629 10.02-22.684.534-.745.514 1.03 5.247 21.998.211.916-1.03.42"/><path d="m372.82 394.55l1.736 1.03h17.247l1.66-1.45 6.201-44.19.305-1.355.801 1.05 25.317 44.491 2.48 1.45h17.648l1.965-1.241 10.341-75.07-1.374-1.145h-18.258l-2.08 1.564-5.552 40.05-.514 1.564-.936-1.145-23.16-40.561-2.423-1.468h-19.651l-1.66 1.355-10.09 75.07"/><path d="m536.46 393.93l-15.587-74.25-1.851-1.564h-22.723l-2.27 1.355-36.535 74.65-.325.936.839.514h19.803l2.156-1.165 5.59-10.818 2.175-1.145h23.829l2.175 1.641 1.946 10.04 2 1.45h17.648l1.239-.629-.107-1.012m-26.748-29.553l-1.107.725h-13.946l-1.335-.611.191-.936 10.112-22.818.611-.934.42.934 4.941 22.608.107.514v.514"/><path d="m557.22 318.12l-1.335 1.679-10.741 74.959.934.821h43.37l1.526-1.241 2.06-15.186-1.03-1.03h-20.738l-1.259-1.126v-.209l7.765-57.732-1.05-.934h-19.498"/><path d="m647.25 366.37l1.336-1.355h25.603l1.126-1.241v-21.06l-1.126-1.355h-25.89l-1.05-1.45v-23.829l-1.336-1.05h-21.08l-1.012 1.05v23.829l-1.239 1.45h-27.683l-1.145 1.145v21.18l1.241 1.335h27.473l1.355 1.545v27.778l1.126 1.241h21.14l1.165-1.45v-27.759"/></g></g><path fill="#ff9f00" d="m441.18 126.32h158.82v60.963h-158.82z"/><g fill="#fff"><path d="m463.93 171.27c0-1.671.571-3.086 1.712-4.244 1.142-1.158 2.548-1.737 4.219-1.737 1.621 0 3.01.575 4.169 1.725 1.158 1.15 1.737 2.535 1.737 4.157 0 1.654-.579 3.061-1.737 4.219-1.158 1.158-2.564 1.737-4.219 1.737-1.588 0-2.966-.579-4.132-1.737-1.166-1.158-1.75-2.531-1.75-4.12"/><path d="m481.21 171.27c0-1.671.571-3.086 1.712-4.244 1.142-1.158 2.548-1.737 4.219-1.737 1.621 0 3.01.575 4.169 1.725 1.158 1.15 1.737 2.535 1.737 4.157 0 1.654-.579 3.061-1.737 4.219-1.158 1.158-2.564 1.737-4.219 1.737-1.588 0-2.966-.579-4.132-1.737-1.166-1.158-1.75-2.531-1.75-4.12"/><path d="m498.48 171.27c0-1.671.571-3.086 1.712-4.244 1.142-1.158 2.548-1.737 4.219-1.737 1.621 0 3.01.575 4.169 1.725 1.158 1.15 1.737 2.535 1.737 4.157 0 1.654-.579 3.061-1.737 4.219-1.158 1.158-2.564 1.737-4.219 1.737-1.588 0-2.966-.579-4.132-1.737-1.166-1.158-1.75-2.531-1.75-4.12"/><path d="m515.28 163.85h10.125c.165 1.142.343 1.956.534 2.444.19.488.567 1.013 1.129 1.576 1.075 1.026 2.349 1.539 3.822 1.539 1.506 0 2.722-.496 3.648-1.489.926-.993 1.39-2.258 1.39-3.797 0-3.259-1.952-4.889-5.857-4.889h-.347c-.248 0-.438.017-.571.05v-6.651h.571c3.21 0 4.814-1.324 4.814-3.971 0-2.713-1.282-4.07-3.847-4.07-2.664 0-4.07 1.497-4.219 4.492h-9.108c.347-2.449.91-4.417 1.688-5.906 2.366-4.401 6.411-6.601 12.135-6.601 2.382 0 4.517.438 6.403 1.315 1.886.877 3.375 2.163 4.467 3.859 1.092 1.696 1.638 3.677 1.638 5.944 0 2.267-.612 4.186-1.836 5.757-.629.745-1.39 1.423-2.283 2.035 1.373.447 2.424 1.034 3.152 1.762 2.035 1.985 3.052 4.649 3.052 7.991 0 2.482-.637 4.674-1.911 6.576-1.274 1.903-3.04 3.367-5.298 4.393-2.258 1.026-4.835 1.539-7.73 1.539-3.507 0-6.899-1.125-10.175-3.375-1.754-1.191-3.02-2.564-3.797-4.12-.778-1.555-1.307-3.689-1.588-6.403"/><path d="m550.32 157.05c0-6.088 1.472-11.04 4.417-14.84 2.978-3.789 6.858-5.683 11.639-5.683 1.969 0 3.793.314 5.472.943 1.679.629 3.131 1.506 4.355 2.631 1.224 1.125 2.275 2.395 3.152 3.809.877 1.415 1.588 2.982 2.134 4.703.778 2.564 1.166 5.393 1.166 8.487 0 6.105-1.497 11.04-4.492 14.791-2.961 3.722-6.841 5.584-11.639 5.584-1.952 0-3.764-.314-5.435-.943-1.671-.629-3.123-1.506-4.355-2.631-1.233-1.125-2.283-2.399-3.152-3.822-.869-1.423-1.568-2.986-2.097-4.69-.778-2.515-1.166-5.294-1.166-8.338m9.852 0c0 .827.033 1.634.099 2.42.066.786.178 1.572.335 2.358.157.786.347 1.518.571 2.196.223.678.509 1.311.856 1.898.347.587.732 1.092 1.154 1.514.422.422.918.753 1.489.993.571.24 1.187.36 1.849.36.778 0 1.489-.157 2.134-.472.645-.314 1.191-.757 1.638-1.328.447-.571.835-1.22 1.166-1.948.331-.728.587-1.543.769-2.444.182-.902.318-1.807.409-2.717.091-.91.136-1.853.136-2.829 0-7.792-2.06-11.689-6.179-11.689-.943 0-1.787.223-2.531.67-.745.447-1.357 1.042-1.836 1.787-.48.745-.877 1.63-1.191 2.655-.314 1.026-.538 2.08-.67 3.164-.132 1.084-.199 2.221-.199 3.412"/></g></svg>