<svg xmlns="http://www.w3.org/2000/svg" enable-background="new 0 0 86 32" height="327.26" viewBox="0 0 600 327.25579"><g stroke-width="26.643"><path fill="#0feb0f" d="m0 109.08h600v218.18h-600z"/><path d="M 0,0 H436.39 V109.1 H0 z"/></g><g fill="#fff"><g stroke-width="26.643"><path d="m80.968 26.75c.187-.906.293-1.439.293-1.599 0-.56-.293-.986-.799-1.359-6.181-4.02-13.748-6.074-22.673-6.074-11.19 0-20.409 3.543-27.682 10.55-7.247 7.01-10.897 15.879-10.897 26.643 0 10.418 3.33 18.837 10.02 25.284 6.687 6.475 15.453 9.672 26.24 9.672 6.02 0 10.737-1.039 14.174-3.117.666-.347 1.066-1.199 1.252-2.585 0 0 1.839-12.922 1.919-13.428.133-1.012-.427-.879-3.064-.027-5.089 1.492-9.325 2.212-12.576 2.212-5.249 0-9.538-1.732-12.948-5.249-3.384-3.517-5.04-7.966-5.04-13.375 0-5.834 1.892-10.577 5.782-14.254 3.863-3.703 8.898-5.541 15.05-5.541 5.968 0 11.06 1.385 15.32 4.103 1.305.826 2.131 1.252 2.424 1.252.426 0 .746-.666.959-1.972z"/><path d="m132.42 21.501c-.16-.959-.67-1.439-1.55-1.439h-20.57c-.93 0-1.65.4-2.05 1.252l-31.731 64.21c-.133.346-.187.613-.187.799 0 .4.24.586.72.586h17.264c1.093 0 1.786-.346 2.159-1.065l4.445-9.192c.38-.72.96-1.066 1.79-1.066h21.71c.86 0 1.36.373 1.47 1.146l2.32 9.272c.1.612.53.905 1.25.905h15.42c.54 0 .8-.266.8-.799v-.346zm-10.87 39.14h-12.93c-.42 0-.61-.106-.61-.266l.19-.56 8.66-19.609c.16-.346.32-.559.42-.613.19.107.35.4.46.88l4.58 18.996c.1.48.16.746.16.799-.06.24-.35.373-.93.373"/><path d="m154.18 86.03c0 .613.54.906 1.55.906h14.89c.83 0 1.31-.426 1.44-1.252l5.33-38.15c.13-.773.21-1.146.27-1.146.21.134.45.427.72.906l21.84 38.419c.48.826 1.17 1.253 2.13 1.253h15.24c.99 0 1.6-.347 1.68-1.066l8.93-64.822c0-.667-.4-.986-1.17-.986h-15.78c-1.06 0-1.68.426-1.78 1.332l-4.82 34.583c-.11.905-.3 1.358-.46 1.358-.18 0-.45-.319-.8-.986l-19.95-35.03c-.51-.853-1.2-1.252-2.16-1.252h-16.97c-.8 0-1.31.399-1.41 1.145z"/><path d="m295.52 85.52l-13.5-64.13c-.16-.906-.67-1.332-1.6-1.332h-19.61c-.96 0-1.6.4-1.95 1.146l-31.6 64.48c-.15.346-.26.639-.26.799 0 .32.24.453.72.453h17.13c.88 0 1.52-.32 1.86-.986l4.83-9.351c.34-.667.96-.986 1.86-.986h20.57c1.07 0 1.71.479 1.89 1.412l1.68 8.659c.21.826.75 1.252 1.71 1.252h15.24c.69 0 1.06-.186 1.06-.533.05-.426.03-.719-.03-.879m-23.1-25.524c0 .426-.34.639-.98.639h-12.04c-.78 0-1.15-.186-1.15-.532 0-.187.05-.453.16-.8l8.74-19.716c.24-.479.43-.746.56-.826.11.134.24.4.35.826l4.28 19.53c0 .053.03.213.08.426z"/><path d="m313.43 20.06c-.64 0-1.04.48-1.15 1.439l-9.3 64.716c0 .479.3.719.8.719h37.46c.75 0 1.2-.346 1.34-1.066l1.78-13.11c0-.586-.32-.906-.91-.906h-17.9c-.72 0-1.09-.32-1.09-.959v-.187l6.69-49.849c0-.559-.32-.799-.88-.799z"/><path d="m391.2 61.705c0-.773.37-1.172 1.14-1.172h22.15c.61 0 .95-.347.95-1.066v-18.17c0-.8-.34-1.173-.95-1.173h-22.41c-.59 0-.88-.426-.88-1.252v-20.595c0-.586-.43-.879-1.17-.879h-18.2c-.59 0-.88.293-.88.879v20.595c0 .826-.37 1.252-1.07 1.252h-23.89c-.67 0-.99.32-.99.986v18.277c0 .773.37 1.146 1.07 1.146h23.73c.78 0 1.18.453 1.18 1.359v23.978c0 .72.34 1.066.96 1.066h18.3c.61 0 .99-.426.99-1.252v-23.979z"/></g><path transform="matrix(26.643 0 0 26.643-9251.6-1856.5)" d="m349.9 80.1h-1.22v-4.68h2.68v1.03h-1.46v.78h1.33v1.03h-1.33z"/><path d="m189.83 159.38-28.53 19.39-11.49-10.63 24.44-22.88zm-36.37 34.26v47.72c0 10.28 5.07 15.43 15.24 15.43 10.07 0 15.11-5.15 15.11-15.43v-47.72h29.95v53.31c0 10.47-3.33 18.6-9.99 24.44-7.62 6.66-19.4 9.99-35.23 9.99-17.23 0-29.6-3.97-37.08-11.91-5.31-5.65-7.97-13.14-7.97-22.52v-53.31z" stroke-width="26.643"/><path transform="matrix(26.643 0 0 26.643-9251.6-1856.5)" d="m357.2 77.876v2.224h-1.12v-2.224h-.37v-.929h.37v-.951h1.12v.951h.64v.929z"/><g stroke-width="26.643"><path d="m338.85 216.53c-5.31 0-9.86 1.89-13.67 5.67-3.73 3.73-5.6 8.24-5.6 13.48 0 5.31 1.87 9.81 5.6 13.49 3.81 3.78 8.39 5.67 13.83 5.67 5.35 0 9.93-1.89 13.8-5.67 3.67-3.76 5.51-8.21 5.51-13.41 0-5.24-1.86-9.77-5.59-13.56-3.73-3.78-8.37-5.67-13.88-5.67m-18.44-63.49v48.86c6.77-7.3 15.61-10.95 26.54-10.95 11.64 0 21.5 4.05 29.52 12.18 8.6 8.6 12.92 19.39 12.92 32.37 0 13-4.32 23.84-12.92 32.58-8.1 8.21-18.07 12.34-29.84 12.34-5.76 0-11.19-1.23-16.39-3.65-3.14-1.52-6.42-4.32-9.83-8.4v9.36h-29.95v-124.69z"/><path d="m448.88 216.18c-5.19 0-9.7 1.89-13.48 5.7-3.81 3.73-5.7 8.21-5.7 13.48 0 5.47 1.89 10.08 5.7 13.89 3.73 3.73 8.26 5.59 13.56 5.59 5.36 0 9.89-1.89 13.64-5.67 3.79-3.76 5.68-8.29 5.68-13.67 0-5.33-1.87-9.89-5.6-13.62-3.73-3.81-8.34-5.7-13.8-5.7m.32-25.74c10.76 0 20.44 2.46 28.99 7.33 6.98 4 12.36 9.3 16.14 15.91 3.79 6.55 5.68 13.88 5.68 22 0 12.21-4.08 22.46-12.26 30.67-4.63 4.61-10.31 8.15-16.86 10.66-6.85 2.58-14.18 3.89-22.01 3.89-16.04 0-28.91-4.88-38.66-14.6-8.15-8.13-12.25-18.12-12.25-29.98 0-12.55 4.23-23.07 12.68-31.57 9.4-9.54 22.27-14.31 38.55-14.31"/><path d="m512.82 153.04h29.947v124.69h-29.947z"/></g></g></svg>