<?xml version="1.0" encoding="UTF-8" standalone="no"?>
<svg xmlns:rdf="http://www.w3.org/1999/02/22-rdf-syntax-ns#" xmlns="http://www.w3.org/2000/svg" height="199.59" width="600" version="1.1" xmlns:cc="http://creativecommons.org/ns#" xmlns:dc="http://purl.org/dc/elements/1.1/" viewBox="0 0 480 159.67297">
 <path d="m0 0.004005c71.065-0.00534 142.14-0.00534 213.2 0-0.04 17.667 0.02 35.335-0.03 52.997-71.05-0.022-142.1-0.011-213.15-0.006-0.03068-17.662 0.0067-35.324-0.02-52.991z" stroke-width=".53408"/>
 <g stroke-width=".53408" fill="#fff">
  <path d="m22.64 9.2438c5.586-1.3031 11.91-0.7904 16.754 2.4732 0.133 2.67-0.855 5.255-1.33 7.856-2.628-1.602-5.555-2.863-8.7-2.767-3.328-0.112-6.772 1.25-8.711 4.038-2.398 3.434-2.291 8.497 0.454 11.707 1.944 2.393 5.298 3.44 8.289 2.863 2.083-0.23 4.086-0.881 6.115-1.384-0.342 2.441-0.63 4.893-1.068 7.323-0.075 0.972-1.175 1.308-1.928 1.639-3.365 1.191-7.082 1.053-10.532 0.315-5.491-1.148-10.351-5.314-11.969-10.729-1.1162-3.691-1.1109-7.712-0.0748-11.419 1.7088-5.859 6.7988-10.5 12.701-11.915z"/>
  <path d="m181.34 8.4641c3.32-0.0535 6.63-0.0641 9.96 0.016 0.01 3.6319-0.02 7.2579 0.01 10.89 3.94 0.31 7.9-0.101 11.84 0.256 0 3.285-0.01 6.575-0.01 9.859-3.93 0.097-7.86 0.027-11.8 0.043-0.09 4.267-0.02 8.54-0.05 12.807-3.32 0.059-6.63 0.054-9.94 0.006-0.05-4.273 0.03-8.54-0.05-12.807-4.22-0.038-8.44 0.069-12.66-0.065-0.02-3.279 0-6.553-0.01-9.827 4.21-0.293 8.45-0.101 12.68-0.229 0.05-3.653 0.02-7.301 0.03-10.949z"/>
  <path d="m36.974 42.298c5.379-10.874 10.613-21.828 16.226-32.579 3.728 0.0215 7.45 0.0001 11.178 0.0001 2.12 9.1279 3.84 18.34 5.816 27.5 0.39 1.682 0.705 3.386 0.881 5.106-2.846 0.048-5.709 0.149-8.55-0.08-0.331-1.827-0.791-3.627-1.383-5.389-3.857 0.005-7.718 0-11.574 0.01-1.004 1.752-1.714 3.659-2.793 5.368-3.253 0.283-6.537 0.133-9.801 0.064z"/>
  <path d="m79.578 9.7352c3.215-0.0107 6.43-0.0267 9.651 0.0053 3.584 6.0725 6.927 12.294 10.585 18.324 0.916-6.104 1.656-12.235 2.626-18.329 3.02-0.0105 6.04-0.0105 9.07-0.0052-1.42 10.879-2.9 21.758-4.49 32.616-2.95-0.021-5.92 0.171-8.867-0.085-3.989-6.441-7.541-13.155-11.344-19.713-1.148 6.542-1.906 13.16-2.846 19.739-2.874 0.15-5.752 0.102-8.626 0.038 1.122-10.895 2.89-21.721 4.241-32.59z"/>
  <path d="m126.86 9.7031c3.59 0.0588 7.18 0 10.78 0.0267 2.48 10.826 4.62 21.737 6.92 32.605-2.92 0.049-5.84 0.081-8.76-0.021-0.43-1.784-0.76-3.589-1.14-5.383-3.8-0.129-7.6-0.075-11.4-0.038-1.01 1.784-1.94 3.605-2.88 5.421-3.2 0.091-6.41 0.086-9.61 0.011 5.36-10.879 10.59-21.823 16.09-32.622z"/>
  <path d="m148.07 42.33c1.5-10.874 3.13-21.726 4.62-32.595 2.98-0.0586 5.96-0.0052 8.94-0.0426 0.07 0.1389 0.23 0.4276 0.3 0.5716-1.09 8.273-2.44 16.53-3.23 24.84 3.24 0.011 6.49-0.027 9.73 0.021-0.36 2.404-0.65 4.818-1.03 7.221-6.44 0.032-12.89 0.07-19.33-0.016z"/>
 </g>
 <g>
  <path d="m52.634 29.501c1.527-3.428 2.942-6.905 4.598-10.275 0.897 3.407 1.698 6.841 2.489 10.281-2.366 0.032-4.727 0.021-7.087-0.006z" stroke-width=".53408"/>
  <path d="m126.13 29.48c1.46-3.626 3.07-7.189 4.74-10.724 0.79 3.573 1.53 7.156 2.34 10.729-2.36 0.049-4.72 0.065-7.08-0.005z" stroke-width=".53408"/>
  <path d="m0 159.67h480v-106.67h-480z" fill="#0078eb"/>
 </g>
 <g fill="#fff">
  <path d="m60.887 115.33c0 4.49-0.762 8.18-2.279 11.05-1.898 3.63-4.96 6.4-9.179 8.29-3.69 1.63-7.782 2.44-12.284 2.44-4.438 0-9.038-0.98-13.808-2.93-1.192-0.49-2.25-0.97-3.167-1.42-0.932-0.46-1.687-0.91-2.279-1.35l-0.896-0.6-1.052-0.69 6.738-12.68c4.77 4.12 9.434 6.18 13.984 6.18 2.11 0 3.874-0.47 5.285-1.38 1.566-1.09 2.349-2.64 2.349-4.64 0-1.73-0.832-3.2-2.511-4.39-0.706-0.49-1.955-1.03-3.74-1.62l-1.22-0.37c-0.544-0.13-1.221-0.34-2.032-0.61l-3.253-0.98c-1.898-0.53-3.902-1.35-6.011-2.43-4.77-2.44-7.155-6.96-7.155-13.582 0-6.174 1.92-11.134 5.772-14.866 3.789-3.796 8.77-5.694 14.958-5.694 6.66 0 13.109 1.658 19.346 4.96l-6.343 12.361c-3.366-2.772-6.802-4.148-10.322-4.148-1.792 0-3.309 0.423-4.558 1.298-1.51 0.974-2.272 2.3-2.272 3.979 0 1.736 1.108 3.147 3.33 4.227 0.325 0.162 1.115 0.465 2.364 0.896 1.241 0.43 3.005 1.002 5.277 1.707 5.038 1.573 8.728 3.602 11.056 6.092 2.604 2.77 3.902 6.4 3.902 10.9"/>
  <path d="m97.461 109.15c-1.143-4.39-3.986-6.59-8.537-6.59-4.657 0-7.422 2.2-8.29 6.59zm-17.229 8.45c0.056 6.18 3.034 9.26 8.939 9.26 3.034 0 5.412-1.3 7.147-3.9h14.142c-0.86 2.99-2.11 5.43-3.73 7.32-4.02 4.56-9.897 6.83-17.644 6.83-7.21 0-12.947-1.98-17.236-5.94-4.276-3.95-6.414-9.26-6.414-15.92 0-6.78 2.06-12.14 6.174-16.101 4.12-3.951 9.758-5.934 16.912-5.934 6.985 0 12.478 2.032 16.498 6.096 4.01 4.119 6.01 9.699 6.01 16.739v1.55z"/>
  <path d="m148.01 107.76-1.63-0.73c-1.29-0.49-2.84-0.73-4.62-0.73-3.09 0-5.58 0.94-7.45 2.81-1.86 1.87-2.8 4.78-2.8 8.73v17.64h-14.63v-41.128h14.63v6.748c1.41-2.169 2.82-3.714 4.23-4.631 2.6-1.792 5.77-2.681 9.51-2.681h1.22l0.61 0.035 0.93 0.127z"/>
  <path d="m154.52 94.353h14.63v41.127h-14.63zm15.6-12.192c0 1.143-0.22 2.209-0.65 3.21-0.43 1.009-1.03 1.877-1.78 2.604-0.76 0.734-1.65 1.305-2.65 1.7-1 0.41-2.06 0.621-3.21 0.621-2.16 0-4.09-0.79-5.76-2.356-1.64-1.63-2.45-3.528-2.45-5.694 0-1.136 0.22-2.223 0.65-3.253 0.44-1.03 1.02-1.912 1.75-2.638 0.73-0.734 1.6-1.32 2.6-1.75 1-0.431 2.07-0.649 3.21-0.649 1.15 0 2.21 0.218 3.21 0.649 1 0.43 1.89 1.016 2.65 1.75 0.75 0.726 1.35 1.594 1.78 2.596 0.43 1.009 0.65 2.074 0.65 3.21"/>
  <path d="m207.1 109.15c-1.13-4.39-3.98-6.59-8.53-6.59-4.66 0-7.43 2.2-8.29 6.59zm-17.23 8.45c0.05 6.18 3.04 9.26 8.94 9.26 3.04 0 5.42-1.3 7.16-3.9h14.14c-0.87 2.99-2.12 5.43-3.74 7.32-4.02 4.56-9.89 6.83-17.64 6.83-7.21 0-12.95-1.98-17.24-5.94-4.27-3.95-6.42-9.26-6.42-15.92 0-6.78 2.07-12.14 6.18-16.101 4.12-3.951 9.76-5.934 16.91-5.934 6.99 0 12.49 2.032 16.5 6.096 4.01 4.119 6.01 9.699 6.01 16.739v1.55z"/>
  <path d="m258.63 121.58c0 7.26-3.85 12.06-11.54 14.39-2.33 0.7-5.04 1.06-8.13 1.06-5.58 0-11.11-1.61-16.58-4.8l5.28-10.24c4.28 2.82 8.18 4.23 11.71 4.23 1.08 0 2.08-0.24 3.01-0.74 1.08-0.59 1.62-1.4 1.62-2.44 0-0.8-0.28-1.47-0.85-1.99-0.57-0.51-1.58-0.96-3.05-1.34l-0.9-0.2-1.46-0.28c-3.9-0.82-6.77-1.93-8.61-3.34-2.39-1.89-3.58-4.6-3.58-8.12 0-4.99 1.9-8.808 5.69-11.461 3.3-2.279 7.56-3.422 12.76-3.422 4.34 0 8.05 0.571 11.14 1.714l1.05 0.403 1.22 0.571-4.96 9.425c-2.16-1.13-4.3-1.79-6.42-1.95l-0.81-0.07h-0.73c-2.98 0-4.48 0.97-4.48 2.92 0 1.25 1.12 2.16 3.33 2.76l0.54 0.12 0.85 0.21 1.87 0.4c3.58 0.76 6.18 1.79 7.81 3.09 2.81 2.17 4.22 5.2 4.22 9.1"/>
  <path d="m318.21 135.48-13.09-19.83-13.65 19.83h-19.1l23.81-32.51-19.5-28.45h19.5l9.1 15.847 9.44-15.847h19.42l-19.83 28.45 23 32.51z"/>
  <path d="m356.98 106.46v29.02h-14.63v-29.02h-4.8v-12.11h4.8v-12.348h14.63v12.348h8.37v12.11z"/>
  <path d="m401.84 107.76-1.63-0.73c-1.29-0.49-2.84-0.73-4.62-0.73-3.09 0-5.58 0.94-7.45 2.81-1.86 1.87-2.8 4.78-2.8 8.73v17.64h-14.62v-41.128h14.62v6.748c1.41-2.169 2.82-3.714 4.23-4.631 2.6-1.792 5.77-2.681 9.51-2.681h1.22l0.61 0.035 0.93 0.127z"/>
  <path d="m439.23 114.75c0-2.59-0.92-4.81-2.76-6.66-1.85-1.84-4.07-2.76-6.66-2.76-2.61 0-4.83 0.92-6.67 2.76-1.85 1.85-2.76 4.04-2.76 6.59 0 1.29 0.24 2.53 0.73 3.69 0.48 1.17 1.15 2.18 1.99 3.05 0.83 0.87 1.84 1.55 3.01 2.03 1.16 0.49 2.39 0.73 3.7 0.73 2.59 0 4.81-0.92 6.66-2.76 1.84-1.84 2.76-4.06 2.76-6.67m-0.4 20.73v-4.55c-0.77 0.92-1.28 1.49-1.55 1.7-2.83 2.82-6.56 4.23-11.21 4.23-6.13 0-11.17-2.22-15.12-6.66-3.91-4.28-5.86-9.46-5.86-15.52 0-2.18 0.29-4.3 0.86-6.39 0.57-2.08 1.4-4.01 2.52-5.76 1.11-1.77 2.45-3.354 4.02-4.766 1.57-1.404 3.33-2.54 5.29-3.414 2.6-1.08 5.3-1.616 8.12-1.616 3.95 0 7.21 0.839 9.75 2.512 0.82 0.55 1.87 1.495 3.18 2.85v-4.064h14.63v41.448z"/>
 </g>
</svg>
