<svg xmlns="http://www.w3.org/2000/svg" viewBox="0 0 158.74999 72.230533" width="600" height="273"><defs><clipPath id="0"><path d="m666.14 0h666.16v907.09h-666.16v-907.09"/></clipPath><clipPath id="1"><path d="m1225.1 263.53h55v-19.63h-55v19.63"/></clipPath><clipPath id="2"><path d="m1227.8 261.26h48.8v-15.14h-48.8v15.14"/></clipPath></defs><g transform="translate(191.23-68.69)"><path fill="#009335" d="m-41.31 135.31h-118.72v-33.3h118.72l-.003 33.3z"/><g clip-path="url(#0)" transform="matrix(2.5352 0 0-2.5352-3275.4 761.81)"><g opacity=".5" clip-path="url(#1)"><path fill="#009335" d="m0 0l-2.744-.24 1.145-13.09 25.298 2.213h-23.699v11.12m49.17 4.301l-26.04-2.278h23.699v-11.12l3.485.305-1.145 13.09" transform="translate(1228.8 258.23)"/></g><g opacity=".5" clip-path="url(#2)"><path fill="#009335" d="m0 0h-23.699l-23.13-2.023v-11.12h23.699l23.13 2.023v11.12" transform="translate(1275.6 260.26)"/></g></g><path d="m-57.98 68.69h-133.25v33.31h133.25v-33.31"/><g fill="#fff"><path d="m0 0c-.001-.09-.055-.155-.055-.155s-.043-.046-.124-.065c-1.061-.435-2.243-.289-2.243-.289-1.918.209-3.137 1.383-3.527 2.9-.576 2.268.568 3.886.844 4.228.675.806 1.729 1.382 2.758 1.518 1.317.189 2.292-.122 2.691-.255 0 0 .445-.144.778-.367.165-.111.185-.155.185-.155s.012-.02-.031-.199l-.313-1.626c-.001-.067-.054-.101-.054-.101s-.023-.009-.175.09c-.999.708-2.162.619-2.162.619-.885-.057-1.915-.521-2.227-1.694-.275-1.041.014-1.915.631-2.438.423-.361 1.077-.551 1.762-.518.755.056 1.352.355 1.308.335 0 0 .032.008.068.02.154.078.187.067.187.067s.032-.034.012-.135l-.313-1.78m5.671 5.524l-.023-.021-1.103-2.514c-.024-.035-.015-.057-.015-.057s.015-.011.067-.011l1.627-.013.021.013s.012.011 0 .043l-.566 2.539-.008.021m18.382.031s-.008 0-.019-.041l-1.108-2.506c-.023-.076-.013-.087-.013-.087l.058-.022 1.639.009h.021s.011.013 0 .046l-.555 2.57c-.009.031-.023.031-.023.031m-15.02-5.833l-1.971-.009c-.045 0-.079.019-.079.019s-.012.011-.021.09l-.31 1.273c0 .033-.022.045-.022.045h-.033-2.776c-.057 0-.089-.045-.089-.045s-.046-.034-.079-.111l-.553-1.185c-.022-.041-.034-.056-.034-.056s-.035-.021-.066-.021h-2.295c-.064-.009-.075.021-.075.021s-.012.037.011.079l3.974 7.993c.023.044.054.055.054.055h.078 2.538c.04 0 .075-.033.075-.033s.013-.001.023-.045l1.706-8.01c0-.037-.023-.048-.023-.048l-.033-.001zm8.86-.022h-2.028-.065l-.022.022-2.812 4.993-.033.023s-.022 0-.022-.033l-.697-4.906c-.013-.056-.023-.067-.023-.067s-.025-.001-.057-.001h-2.02c-.032 0-.052.021-.052.021s-.045.045-.036.09l1.109 7.938c.001.044.032.056.032.056s.033.032.067.032h2.249c.033 0 .055-.022.055-.022s.022-.001.033-.045l2.537-4.448c.042-.093.076-.079.076-.079s.035 0 .057.099l.641 4.428c0 .035.023.045.023.045s.011.022.043.022l2.117-.022c.044 0 .056-.001.056-.001l.009-.035-1.139-8c-.001-.045-.033-.075-.033-.075s-.013-.013-.068-.013m9.492-.001h-2.028c-.042-.024-.078.023-.078.023s-.009.009-.021.075l-.265 1.249c-.02.069-.045.103-.045.103s-.055.032-.122.032h-2.636c-.053 0-.088-.032-.088-.032s-.045-.045-.067-.111l-.597-1.271c-.013-.036-.034-.045-.034-.045s-.043-.013-.069-.013h-2.28c-.054-.001-.076.022-.076.022s-.011.021.022.066l4.02 8.03.045.044s.023.011.088.011h2.492c.056 0 .091-.033.091-.033s.001-.001.02-.045l1.672-8.06-.001-.032s0-.001-.033-.001m5.816.119c-.014-.066-.023-.087-.023-.087s-.013-.022-.067-.022h-4.562c-.134 0-.168.032-.168.032s-.022.048-.001.146l1.13 7.86c.009.099.033.132.033.132h.119 2.073c.057 0 .079-.011.079-.011s.001-.032 0-.076l-.854-6.147c-.011-.066.023-.074.023-.074s.024-.013.11-.013h2.259c.043 0 .067-.022.067-.022s.013-.011.013-.067l-.222-1.651zm8.781 3.112s-.008-.022-.043-.022h-2.837c-.045 0-.066-.022-.066-.022s-.03-.001-.03-.066v-3.02c0-.045-.023-.056-.023-.056s-.013-.019-.049-.019h-2.246c-.034 0-.055.019-.055.019s-.001.011-.001.067v3.02c0 .034-.033.056-.033.056s-.014.022-.044.022h-2.903c-.055 0-.067.009-.067.009s-.023.024-.023.092v2.214c0 .024.023.055.023.055l.034.009h2.966c.025 0 .025.013.025.013l.022.033v2.647c0 .03.001.054.001.054s.021.012.088.012h2.205c.044 0 .057-.012.057-.012s.023-.024.023-.066v-2.656h2.878c.076 0 .098-.012.098-.012s.036-.013.036-.077v-2.238l-.036-.055" transform="matrix(2.5352 0 0-2.5352-170.11 94.22)"/><path d="m0 0h-2.166l-1.753 2.908-.352-2.908h-1.861l.902 7.343h2.39c1.742 0 2.594-.735 2.594-2.233 0-.771-.197-1.312-.647-1.732-.234-.226-.43-.332-.911-.527l1.804-2.851m-3.791 4.093h.334c.781 0 1.318.371 1.318.931 0 .48-.379.743-1.065.743h-.352l-.235-1.674" transform="matrix(2.5352 0 0-2.5352-80.24 126.14)"/><path d="m0 0h-1.908v5.727h-1.547v1.616h5.04v-1.616h-1.588v-5.727" transform="matrix(2.5352 0 0-2.5352-69.788 126.14)"/><path d="m0 0c-.4.345-.79.502-1.21.502-.457 0-.798-.275-.798-.637 0-.137.056-.266.171-.364.123-.117.293-.207.475-.264.105-.039.324-.099.638-.196.657-.206.991-.391 1.295-.734.323-.354.457-.745.457-1.311 0-.452-.116-1.017-.267-1.334-.399-.792-1.362-1.292-2.513-1.292-.563 0-1.038.108-1.619.353-.38.157-.524.246-.866.491l.79 1.524c.571-.504 1.094-.743 1.638-.743.552 0 .895.285.895.727 0 .146-.057.293-.152.391-.191.195-.362.272-.962.449-.591.177-.819.264-1.085.412-.562.294-.838.843-.838 1.635 0 1.479.98 2.478 2.427 2.478.753 0 1.551-.208 2.266-.597l-.742-1.49" transform="matrix(2.5352 0 0-2.5352-140.01 112.37)"/><path d="m0 0h-1.858v7.343h2.953c.837 0 1.313-.165 1.778-.616.469-.45.697-1.059.697-1.819 0-1.6-.848-2.47-2.408-2.47h-1.162v-2.438m.609 3.975c.704 0 1.018.283 1.018.912 0 .615-.333.919-1.01.919h-.619v-1.831h.609" transform="matrix(2.5352 0 0-2.5352-129.34 126.14)"/><path d="m0 0c-2.328 0-4.059-1.712-4.059-4 0-2.181 1.789-3.874 4.1-3.874 2.337 0 4.102 1.693 4.102 3.943 0 2.259-1.765 3.933-4.143 3.933m.041-6c-1.203 0-2.167.97-2.167 2.176 0 1.164.986 2.124 2.167 2.124 1.199 0 2.166-.96 2.166-2.145 0-1.196-.967-2.155-2.166-2.155" transform="matrix(2.5352 0 0-2.5352-108.11 106.88)"/><path stroke-width=".24" d="m-61.45 110.07c1.236-1.61 3.264-2.49 5.277-2.51 1.815-.08 3.707.41 5.085 1.64 2.157 1.75 2.71 5.04 1.523 7.5-1.175 2.11-3.053 3.68-4.584 5.51 1.787-.001 3.571 0 5.357 0 .055 1.29.002 2.58.031 3.87-.339.05-.68.09-1.023.09-3.646-.001-7.295 0-10.942-.001-.795-.001-1.593.04-2.386-.05 2.151-2.52 4.69-4.69 6.725-7.31 1.01-1.27 2.093-2.56 2.474-4.17.397-1.14-.154-2.63-1.355-3.03-.978-.41-2.218.21-2.497 1.23-.14.52-.193 1.06-.284 1.59-1.606-.03-3.213.04-4.819-.04.095-1.52.42-3.1 1.418-4.31"/></g></g><g transform="translate(8.61-188.53)" fill="#fff"><path d="m132.47 192.6v-4.07h-2.73v10.52h2.73v-4.34h2.67v-2.11"/><path d="m136.41 191.97v7.08h2.73v-10.52h-2.73"/><path d="m148.58 190.12c-1.02-1.05-2.22-1.59-3.61-1.59h-4.02v2.32h2.98.37c1.79 0 2.98 1.15 2.98 2.94 0 1.8-1.19 2.94-2.98 2.94h-.62v-4.61h-2.73v6.93h4.02c1.4 0 2.61-.52 3.63-1.56 1.02-1.05 1.54-2.28 1.54-3.7 0-1.4-.52-2.62-1.56-3.67"/></g></svg>