<?xml version="1.0" encoding="UTF-8" standalone="no"?>
<svg xmlns:rdf="http://www.w3.org/1999/02/22-rdf-syntax-ns#" xmlns="http://www.w3.org/2000/svg" xml:space="preserve" height="449.91" width="600" version="1.1" xmlns:cc="http://creativecommons.org/ns#" xmlns:dc="http://purl.org/dc/elements/1.1/" viewBox="0 0 599.99999 449.91324"><rect height="299.95" width="599.96" y="149.96" x="0" stroke-width="1.5" fill="#e60a2d"/><rect height="149.96" width="600" y="-9.77e-15" x="0" stroke-width="1.5"/><g fill="#fff"><g stroke-width="1.5"><path d="m111.33 36.687c0.25-1.23 0.37-1.968 0.37-2.214 0-0.737-0.37-1.332-1.11-1.844-8.5-5.554-18.894-8.321-31.15-8.321-15.351 0-28.058 4.816-38.06 14.469-10.002 9.633-15.023 21.869-15.023 36.646 0 14.306 4.611 25.887 13.793 34.757 9.203 8.88 21.233 13.3 36.113 13.3 8.26 0 14.757-1.43 19.491-4.28 0.902-0.51 1.476-1.68 1.722-3.57 0 0 2.521-17.765 2.624-18.441 0.2-1.414-0.554-1.23-4.223-0.061-7.03 2.049-12.789 3.052-17.298 3.052-7.173 0-13.096-2.397-17.769-7.213-4.653-4.837-6.989-10.945-6.989-18.384 0-8.034 2.664-14.572 7.972-19.635 5.309-5.062 12.216-7.604 20.721-7.604 8.178 0 15.208 1.886 21.086 5.657 1.81 1.127 2.91 1.701 3.3 1.701 0.58 0 1.03-0.902 1.36-2.705l3.07-15.31"/><path d="m182.08 29.473c-0.25-1.312-0.94-1.968-2.09-1.968h-28.3c-1.32 0-2.26 0.574-2.83 1.722l-43.66 88.273c-0.16 0.49-0.22 0.84-0.22 1.09 0 0.59 0.3 0.88 0.98 0.88h23.78c1.45 0 2.43-0.49 2.95-1.48l6.1-12.62c0.5-0.99 1.32-1.48 2.46-1.48h29.93c1.14 0 1.8 0.53 1.96 1.6l3.18 12.75c0.17 0.82 0.74 1.23 1.72 1.23h21.22c0.73 0 1.08-0.37 1.08-1.13v-0.47l-18.26-88.397m-14.96 53.82h-17.77c-0.57 0-0.86-0.123-0.86-0.369l0.24-0.717 11.91-26.972c0.23-0.512 0.43-0.799 0.6-0.881 0.24 0.164 0.45 0.574 0.61 1.23l6.25 26.111c0.17 0.676 0.25 1.024 0.25 1.106 0 0.308-0.41 0.492-1.23 0.492"/><path d="m211.98 118.24c0 0.8 0.7 1.23 2.09 1.23h20.48c1.15 0 1.8-0.6 1.97-1.72l7.35-52.493c0.17-1.045 0.29-1.578 0.35-1.578 0.25 0.164 0.6 0.574 0.99 1.209l30.04 52.862c0.66 1.12 1.64 1.72 2.95 1.72h20.95c1.39 0 2.17-0.51 2.34-1.48l12.25-89.132c0-0.902-0.53-1.353-1.58-1.353h-21.7c-1.48 0-2.3 0.615-2.46 1.845l-6.62 47.569c-0.16 1.23-0.37 1.824-0.61 1.824-0.25 0-0.62-0.43-1.11-1.352l-27.47-48.164c-0.65-1.148-1.63-1.722-2.93-1.722h-23.3c-1.15 0-1.78 0.533-1.97 1.599l-12.01 89.136"/><path d="m406.32 117.5-18.51-88.15c-0.24-1.21-1-1.825-2.23-1.825h-26.95c-1.34 0-2.22 0.533-2.71 1.579l-43.41 88.646c-0.22 0.51-0.35 0.86-0.35 1.1 0 0.41 0.31 0.62 0.97 0.62h23.55c1.21 0 2.07-0.45 2.58-1.33l6.6-12.9c0.49-0.9 1.35-1.33 2.58-1.33h28.33c1.45 0 2.31 0.64 2.58 1.95l2.31 11.89c0.25 1.14 1.03 1.72 2.34 1.72h20.97c0.96 0 1.45-0.25 1.45-0.74 0-0.57-0.02-1-0.1-1.23m-31.77-35.047c0 0.553-0.45 0.84-1.35 0.84h-16.54c-1.07 0-1.6-0.246-1.6-0.738 0-0.225 0.08-0.594 0.25-1.086l12.01-27.095c0.32-0.676 0.57-1.024 0.73-1.106 0.17 0.164 0.33 0.532 0.5 1.106l5.88 26.849c0 0.082 0.04 0.287 0.12 0.615v0.615z"/><path d="m430.95 27.484c-0.92 0-1.43 0.656-1.59 1.968l-12.75 88.988c0 0.68 0.37 1.01 1.1 1.01h51.49c1.06 0 1.68-0.52 1.84-1.48l2.46-18.014c0-0.84-0.43-1.25-1.23-1.25h-24.63c-1.01 0-1.48-0.431-1.48-1.333v-0.266l9.18-68.536c0-0.718-0.41-1.087-1.23-1.087h-23.16"/><path d="m537.86 84.728c0-1.066 0.53-1.599 1.6-1.599h30.41c0.9 0 1.33-0.492 1.33-1.455v-25.025c0-1.065-0.43-1.578-1.33-1.578h-30.78c-0.82 0-1.23-0.574-1.23-1.721v-28.325c0-0.82-0.53-1.23-1.6-1.23h-25c-0.82 0-1.23 0.41-1.23 1.23v28.325c0 1.147-0.48 1.721-1.48 1.721h-32.85c-0.91 0-1.34 0.431-1.34 1.332v25.148c0 1.045 0.48 1.578 1.46 1.578h32.61c1.08 0 1.6 0.636 1.6 1.845v32.996c0 0.96 0.45 1.46 1.35 1.46h25.13c0.9 0 1.35-0.58 1.35-1.73v-32.972"/></g><polyline points="106.24 133.1 103.56 129.2 106.24 129.2 107.48 131.37 108.78 129.2 111.44 129.2 108.72 133.1 111.88 137.56 109.26 137.56 107.46 134.84 105.59 137.56 102.97 137.56 106.24 133.1" transform="matrix(20.495 0 0 20.495 -2074.1 -2437.5)"/><polyline points="114.58 133.58 114.58 137.56 112.58 137.56 112.58 133.58 111.92 133.58 111.92 131.92 112.58 131.92 112.58 130.22 114.58 130.22 114.58 131.92 115.73 131.92 115.73 133.58 114.58 133.58" transform="matrix(20.495 0 0 20.495 -2074.1 -2437.5)"/><path d="m313 266.17h41.18v18.98c6.17-10.41 15.47-16.93 27.91-19.53 6.17-1.13 12.3-1.31 18.41-0.55v38.83c-6.11-2.76-11.79-4.14-17.07-4.14-8.92 0-16.01 2.61-21.2 7.81-2.99 2.89-5.06 6.21-6.25 9.94-1.21 3.63-1.8 8.57-1.8 14.72v49.56h-41.18v-115.62" stroke-width="1.5"/><path d="m475.86 296.96c-7.13 0-13.32 2.6-18.53 7.81-5.2 5.12-7.81 11.31-7.81 18.52 0 7.52 2.61 13.9 7.81 19.1 5.13 5.13 11.36 7.69 18.65 7.69 7.36 0 13.61-2.6 18.74-7.81 5.2-5.2 7.8-11.46 7.8-18.75 0-7.3-2.6-13.55-7.8-18.75-5.13-5.21-11.42-7.81-18.86-7.81m25.56-31.69h41.19v116.54h-41.19v-12.83c-8.77 11.15-20.87 16.72-36.28 16.72-15.92 0-29.45-5.63-40.62-16.95-11.99-12.11-17.98-27.28-17.98-45.44 0-18.01 5.93-32.95 17.75-44.86 11.15-11.23 24.86-16.87 41.08-16.87 7.37 0 14.45 1.4 21.21 4.14 4.47 1.78 9.41 5.45 14.84 10.95z" stroke-width="1.5"/></g></svg>
