<svg xmlns="http://www.w3.org/2000/svg" viewBox="0 0 600 314.65"><defs><clipPath id="0"><path d="m42.27 434.34h25.947v13.607h-25.947v-13.607"/></clipPath></defs><g transform="translate(-50-375.04)"><g clip-path="url(#0)" transform="matrix(23.1242 0 0-23.1242-927.44 10733.56)"><g fill="#9c1116"><path d="m0 0h-11.362v-5.479h1.314l-.4 4.565 10.448.914" transform="translate(58.12 440.65)"/><path d="m0 0v.748l-8.545-.748h8.545" transform="translate(66.902 435.17)"/></g><g fill="#f47216"><path d="m0 0l10.21.893h-10.288l.078-.893" transform="translate(48.15 434.28)"/><path d="m0 0l-9.622-.842h8.785v-4.731l1.314.115-.477 5.458" transform="translate(67.739 441.49)"/></g><path d="m0 0l-10.448-.914.4-4.565h10.287l8.546.748v4.731h-8.785" fill="#ed1c24" transform="translate(58.12 440.65)"/><g fill="#fff"><path d="m0 0c-.231.172-.413.254-.598.254-.232 0-.381-.118-.381-.299 0-.05.014-.095.031-.132.055-.095.137-.149.399-.272.567-.267.753-.507.753-.956 0-.68-.535-1.165-1.296-1.165-.408 0-.694.091-1.147.376l.385.653c.313-.213.49-.281.721-.281.272 0 .453.14.453.344 0 .15-.077.227-.394.386-.612.308-.789.53-.789.988 0 .616.53 1.069 1.251 1.069.345 0 .657-.099.988-.312l-.376-.653" transform="translate(51.92 438.92)"/><path d="m0 0v3.399h.295l.05.141h1.341l-.05-.141h.295v-.748h-1.047v-.566h.993v-.748h-.993v-.589h1.047v-.748h-1.931" transform="translate(52.823 436.42)"/><path d="m0 0c.363 0 .612.172.612.431 0 .222-.177.344-.494.344h-.163l-.109-.775h.154m.598-1.894l-.811 1.345-.163-1.345h-.861l.417 3.399h1.106c.806 0 1.201-.34 1.201-1.034 0-.358-.091-.607-.299-.802-.109-.104-.2-.154-.422-.245l.834-1.318h-1" transform="translate(56.54 438.32)"/><path d="m0 0h-.861l.417 3.399h.861l-.417-3.399" transform="translate(59.31 436.42)"/><path d="m0 0v3.399h1.931v-.748h-1.047v-.566h.993v-.748h-.993v-.589h1.047v-.748h-1.931" transform="translate(60.33 436.42)"/><path d="m0 0c-.186.154-.376.231-.576.231-.095 0-.181-.023-.253-.072-.087-.055-.127-.127-.127-.222 0-.096.063-.177.186-.236.036-.018.176-.068.426-.145.276-.086.484-.199.616-.34.145-.154.218-.358.218-.607 0-.25-.041-.454-.127-.617-.105-.199-.272-.353-.513-.462-.204-.091-.435-.136-.684-.136-.249 0-.503.054-.771.163-.131.054-.235.104-.303.154-.032.023-.068.045-.109.073l.376.707c.268-.231.526-.345.78-.345.122 0 .217.028.295.077.086.059.131.145.131.259 0 .095-.045.176-.141.244-.045.032-.113.059-.208.091-.032.009-.091.027-.181.054l-.181.055c-.114.032-.223.077-.336.136-.267.136-.399.39-.399.757 0 .344.109.621.322.829.213.213.494.317.834.317.367 0 .73-.09 1.078-.276l-.353-.689" transform="translate(64.64 438.94)"/></g><path d="m64.16 446.13h-21.894v-5.474h21.894v5.474" fill="#151922"/><path d="m0 0l-.018-.009h-1.182c-.018 0-.027-.0001-.027-.0001 0 0-.014-.004-.014-.027v-1.259c0-.018-.009-.023-.009-.023l-.019-.009h-.936l-.023.009c0 0-.005.005-.005.027v1.26l-.014.022-.018.0001h-1.209c-.023 0-.028.004-.028.004 0 0-.009.009-.009.037v.922l.009.023.014.005h1.237l.009.005.009.014v1.102l.005.023c0 0 .009.004.037.004h.918c.018 0 .023-.004.023-.004 0 0 .009-.0001.009-.028v-1.107h1.199c.033 0 .042-.004.042-.004 0 0 .014-.005.014-.033v-.931l-.014-.023m-3.659-1.296c-.004-.027-.009-.037-.009-.037 0 0-.004-.009-.028-.009h-1.9c-.056 0-.069.014-.069.014 0 0-.0001.018-.005.06l.47 3.274c.005.041.014.055.014.055h.051.863c.023 0 .032-.004.032-.004 0 0 .005-.014 0-.033l-.355-2.559c-.005-.028.009-.032.009-.032 0 0 .009-.005.046-.005h.941c.019 0 .028-.009.028-.009 0 0 .005-.005.005-.028l-.093-.687m-2.422-.051h-.844c-.018-.009-.032.0001-.032.0001 0 0-.005.004-.0001.032l-.11.521c-.009.028-.019.042-.019.042 0 0-.023.013-.05.013h-1.099c-.022 0-.036-.013-.036-.013 0 0-.019-.019-.028-.047l-.249-.53-.014-.018-.028-.005h-.95c-.023-.005-.032.009-.032.009 0 0-.005.0001.009.028l1.675 3.343.018.019c0 0 .009.004.037.004h1.038c.023 0 .037-.014.037-.014l.009-.018.697-3.357-.005-.014-.014-.005m-3.954.005h-.844-.027v.009l-1.172 2.08-.013.009v-.014l-.29-2.043c-.005-.022-.0001-.027-.0001-.027l-.023-.005h-.839-.023c0 0-.019.018-.014.036l.461 3.307c.005.018.014.023.014.023l.028.014h.936.023l.014-.018 1.057-1.854c.018-.037.032-.032.032-.032 0 0 .014 0 .023.041l.268 1.845.009.018h.018.881c.019 0 .024-.004.024-.004l.004-.014-.475-3.334c-.005-.018-.014-.032-.014-.032 0 0-.004-.005-.028-.005m-3.69.009l-.822-.004c-.018 0-.032.009-.032.009 0 0-.005.005-.009.037l-.129.53v.019h-.013-1.159c-.023 0-.036-.019-.036-.019 0 0-.019-.014-.033-.046l-.23-.494c-.0001-.018-.014-.022-.014-.022h-.028-.955c-.028-.004-.032.0001-.032.0001 0 0-.005.013.004.032l1.657 3.329c.009.019.023.023.023.023h.032 1.057c.018 0 .032-.014.032-.014l.009-.018.711-3.339v-.018l-.013-.005zm6.256 2.43c0 0-.005 0-.0001-.018l-.461-1.042c-.009-.033-.005-.037-.005-.037l.024-.009.682.004h.0001v.019l-.231 1.07-.009.013m-7.659-.013h-.009l-.461-1.046-.005-.024c0 0 .005-.004.027-.004l.679-.005.009.005v.018l-.235 1.056h-.005m-2.362-2.302c-.005-.036-.023-.064-.023-.064 0 0-.019-.019-.051-.028-.443-.179-.937-.12-.937-.12-.798.088-1.305.577-1.467 1.208-.239.946.236 1.619.351 1.762.281.337.72.576 1.149.632.549.078.955-.051 1.121-.106 0 0 .184-.06.323-.152.069-.047.078-.065.078-.065 0 0 .005-.009-.014-.083l-.129-.678c-.004-.028-.023-.041-.023-.041 0 0-.009-.005-.074.037-.415.295-.899.258-.899.258-.369-.023-.798-.217-.928-.706-.115-.433.005-.798.264-1.014.175-.153.447-.231.733-.217.314.023.563.148.544.138l.028.0001c.064.032.079.027.079.027 0 0 .013-.013.004-.055l-.129-.743" fill="#fff" transform="translate(63.23 443.15)"/><path d="m0 0c-.122.912-.244 1.825-.365 2.737h-5.839c.244-1.186.487-2.372.73-3.558 1.825.274 3.649.547 5.474.821" fill="#ed1c24" transform="translate(67.936 445.21)"/><g fill="#fff"><path d="m0 0c-.061.333-.091.5-.152.833-.296-.023-.443-.035-.74-.058.066-.344.099-.516.165-.86-.202-.023-.303-.035-.504-.059-.14.712-.281 1.423-.42 2.135.21.004.315.007.525.012.062-.323.093-.485.155-.807.298.017.447.026.744.043-.057.313-.085.469-.142.782.21.005.315.007.525.012.116-.658.232-1.316.349-1.974-.202-.024-.303-.036-.505-.059" transform="translate(64.37 445.39)"/><path d="m0 0c-.047-.002-.071-.003-.117-.005.067-.419.101-.628.169-1.047.046.004.069.007.114.011.337.032.526.253.48.559-.047.307-.302.497-.646.482m.356-1.436c-.297-.034-.445-.052-.742-.086-.108.638-.216 1.277-.323 1.916.309.007.463.011.773.018.511-.002 1.044-.354 1.12-.856.073-.481-.343-.926-.828-.992" transform="translate(65.894 447.04)"/></g></g></g></svg>