<svg xmlns="http://www.w3.org/2000/svg" xmlns:xlink="http://www.w3.org/1999/xlink" viewBox="0 0 600 714.37"><defs><clipPath id="V"><path d="m318.01 480.88c.264-.307-.117-.442-.537-.493-.227-.028-.709-.015-.976.018-.548.069-1.018.138-1.47.141-.688.005-1.572-.065-1.593-.447v-.028c.026-.456 1.612-.886 2.591-.957.815-.059 2.507-.077 2.95.518.351.473-.342.98-.898 1.25l-.067-.002"/></clipPath><clipPath id="O"><path d="m318.7 487.32c-.353-.252-.584-.811-.791-1.667-.154-.639-.193-1.404-.202-1.78.132.215.322.446.517.497.557.149.889.687 1.192 1.359.104.226.17.583.175.963v.076c-.039.158-.099.337-.183.439-.09.109-.227.223-.402.223-.092 0-.195-.032-.306-.11"/></clipPath><clipPath id="W"><path d="m313.44 480.07c.026-.456 1.612-.886 2.591-.957.815-.059 2.507-.077 2.95.518.083.112.107.224.09.336.001-.096-.018-.195-.094-.296-.448-.592-2.136-.578-2.95-.519-.958.07-2.496.482-2.587.927v-.009"/></clipPath><clipPath id="Y"><path d="m318.64 479.72c.075-.096.149-.169.209-.221.05.04.094.084.129.13.064.086.093.173.095.258v.022c0 .0001 0 .019-.002.029-.051.0001-.105.022-.152.036-.155.051-.527.212-.527.212 0 0 .147-.337.248-.466"/></clipPath><clipPath id="X"><path d="m286.83 490.63c0 0-2.835 0-2.835-2.834v-14.297c0 0 0-2.836 2.835-2.836h57.725c0 0 2.835 0 2.835 2.836v14.297c0 0 0 2.834-2.835 2.834h-57.725"/></clipPath><clipPath id="U"><path d="m318.98 479.95c.172-.237.496-.762.57-1.371.068-.552.079-1.388.074-1.886.015.004.011.003.026.007.006.493.005 1.342-.064 1.906-.076.629-.421 1.159-.588 1.384-.009-.024-.008-.018-.018-.04"/></clipPath><clipPath id="P"><path d="m314.96 487.92c-.158-.003-.248-.208-.254-.592v-.084c.007-.46.121-1.145.365-2.02.307-1.101.716-2.09 1.197-2.929.267-.466.733-1.136 1.099-1.363l-.006.094c-.549.75-1.01 2.32-.975 2.951.027.541.069 1.186-.248 2.129-.426 1.269-.82 1.813-1.172 1.813h-.006"/></clipPath><clipPath id="T"><path d="m319.39 479.62c-.041-.001-.089-.019-.136-.025.145-.263.29-.608.337-.991.024-.203.041-.444.051-.693.211-.111.485-.211.828-.259.251-.035.532-.014.767.033.185.221.337.48.439.781.126.371.13.735.015 1.074-.268-.046-.749-.108-1.246-.074-.365.024-.705.099-.977.179-.025-.009-.051-.017-.078-.025"/></clipPath><clipPath id="Q"><path d="m318.01 480.88v-.042c.055-.064.082-.117.085-.161-.018-.167-.309-.253-.622-.29-.227-.028-.709-.015-.976.018-.548.069-1.018.138-1.47.141-.688.005-1.572-.065-1.593-.447v-.028c.026-.456 1.612-.886 2.591-.957.815-.059 2.507-.077 2.95.518.351.473-.342.98-.898 1.25l-.067-.002"/></clipPath><clipPath id="S"><path d="m321.66 478.51c-.472-1.386-2-1.887-2.905-1.916-.74-.024-1.358.245-1.522.776.144-.559.775-.845 1.534-.819.902.029 2.434.529 2.905 1.916.12.352.129.697.032 1.021.085-.312.07-.642-.044-.978"/></clipPath><clipPath id="R"><path d="m318.87 480.76c.186-.236.221-.529.131-.772.045-.061.103-.143.165-.245.293-.105.761-.243 1.277-.277.497-.034.978.028 1.246.074-.124.367-.389.705-.789.996-.087.063-.18.119-.28.172-.298-.018-.68-.038-.9-.036-.303.002-.636.051-.849.088"/></clipPath><clipPath id="Z"><path d="m317.56 480.4c.028-.133.08-.367.139-.576.069-.241.178-.493.252-.651.24.04.462.1.645.181-.177.123-.482.349-.623.545-.147.202-.248.391-.309.52-.034-.007-.069-.013-.104-.019"/></clipPath><clipPath id="i"><path d="m318.16 481.13c.451-.085.715-.308.82-.562-.112.269-.379.505-.823.59l.003-.028"/></clipPath><clipPath id="a"><path d="m317.48 480.39c-.023-.003-.048-.006-.075-.008-.086-.121-.268-.4-.338-.694-.054-.228-.044-.449-.026-.596.199.005.403.017.602.039-.067.122-.162.329-.222.601-.049.226.03.527.07.658h-.011"/></clipPath><clipPath id="j"><path d="m318.94 479.87c-.197-.326-.66-.655-.828-.779-.662-.484-.911-.927-.911-1.469 0-.724.699-1.1 1.565-1.071.257.008.564.054.884.148.006.493.005 1.342-.064 1.906-.076.629-.421 1.159-.588 1.384-.016-.041-.036-.081-.058-.119"/></clipPath><clipPath id="l"><path d="m318.2 481.22l-.04-.062c.213-.041.385-.116.519-.212.119-.003.283.004.452.037.144.029.264.072.354.112-.434.089-.855.127-1.16.127-.045 0-.086 0-.125-.002"/></clipPath><clipPath id="k"><path d="m318.2 481.22l-.04-.062c.835-.158 1.041-.855.781-1.285-.197-.326-.66-.655-.828-.779-.662-.484-.911-.927-.911-1.469 0-.724.699-1.1 1.565-1.071.902.029 2.434.529 2.905 1.916.262.774-.002 1.51-.774 2.07-.691.502-1.908.683-2.573.683-.045 0-.086 0-.125-.003"/></clipPath><clipPath id="h"><path d="m318.95 481.95c-.025-.063-.065-.142-.153-.246-.048-.058-.111-.12-.165-.172.238-.003.454-.038.646-.098.182.096.456.255.615.414.138.138.245.294.316.409-.437-.059-.872-.171-1.259-.307"/></clipPath><clipPath id="b"><path d="m318.04 481.47l.034-.023c.499.098.921.072 1.26-.035-.211.074-.453.117-.725.117-.177 0-.367-.018-.569-.059"/></clipPath><clipPath id="g"><path d="m320.51 480.39c-.038-.045-.116-.099-.197-.146.034-.283.024-.562.011-.767-.044-.627.025-1.051.447-1.529.646-.732 1.647-.76 2.415-.339.125.551.028 1.156-.375 1.735-.51.734-1.286 1.131-2.093 1.306-.061-.09-.131-.168-.208-.26"/></clipPath><clipPath id="c"><path d="m318.34 481.7c-.03-.033-.066-.076-.1-.109-.03-.03-.089-.073-.14-.108.042.007.083.014.123.02.06.047.126.101.166.137.06.055.112.108.15.15-.07-.03-.136-.06-.199-.09"/></clipPath><clipPath id="e"><path d="m318.54 481.79c-.038-.042-.09-.095-.15-.15-.04-.036-.106-.09-.166-.137.141.019.277.028.406.027.054.052.117.114.165.172.088.104.128.183.153.246-.144-.05-.281-.103-.408-.158"/></clipPath><clipPath id="f"><path d="m320.21 482.25c-.071-.115-.178-.271-.316-.409-.159-.159-.433-.318-.615-.414.565-.179.915-.575.998-.975.014-.069.025-.14.033-.209.081.047.159.101.197.146.212.253.373.398.438 1.01.041.367-.068.703-.153.9-.192-.003-.387-.018-.582-.045"/></clipPath><clipPath id="d"><path d="m323.59 477.93c-.783-.695-2.056-.822-2.827.051-.349.395-.456.749-.459 1.216v-.024c.002-.468.11-.828.459-1.224.771-.872 2.044-.745 2.827-.049.505.449.816 1.06.813 1.712-.006-.64-.314-1.238-.813-1.682"/></clipPath><clipPath id="m"><path d="m318.2 481.22l-.04-.062.003-.028c.451-.085.715-.308.82-.562.099-.235.08-.495-.042-.695-.197-.326-.66-.655-.828-.779-.662-.484-.911-.927-.911-1.469 0-.724.699-1.1 1.565-1.071.902.029 2.434.529 2.905 1.916.262.774-.002 1.51-.774 2.07-.691.502-1.908.682-2.573.683-.045 0-.086 0-.125-.003"/></clipPath><clipPath id="6"><path d="m320.84 482.3c-1.03 0-2.178-.397-2.802-.76v-.069l.034-.023c.495.097.915.072 1.252-.033.538-.184.871-.569.951-.958.072-.348.061-.72.044-.976-.044-.627.025-1.051.447-1.529.771-.872 2.044-.745 2.827-.049.829.736 1.134 1.908.386 2.982-.726 1.042-1.99 1.408-3.116 1.415h-.024"/></clipPath><clipPath id="A"><path d="m317.89 482.02c.009-.055.018-.11.023-.135.005-.022.014-.052.024-.082.245.181.499.311.75.4.008.079.014.189.008.31-.006.112-.046.248-.079.343-.275-.268-.519-.552-.726-.836"/></clipPath><clipPath id="7"><path d="m320.16 482.25c.026-.001.051-.02.075-.031.346.084 1.055.232 1.618.198.772-.047 1.452-.204 1.937-.54.024-.017.048-.034.073-.053-.04.032-.08.062-.12.091-.484.335-1.164.493-1.937.54-.056.003-.113.004-.172.004-.544 0-1.173-.136-1.474-.209"/></clipPath><clipPath id="9"><path d="m312.34 484.97c-.018-.013-.028-.031-.031-.054v-.034c.034-.305.892-1.184 1.828-1.988.684-.588 1.515-1.245 2.176-1.658.323-.201.736-.481 1.115-.549.2-.036.242.059.257.102l-.065.063c-.556.185-1.574 1.095-1.993 1.496-.267.255-.764.819-1.385 1.359-.73.636-1.556 1.281-1.837 1.281-.027 0-.049-.005-.065-.018"/></clipPath><clipPath id="8"><path d="m316.71 481.15c0 0 .057.016.119.019.075.002.155-.007.155-.007l-.127.084c0 0-.099.034-.204.049-.083.013-.237.033-.237.033l.294-.178"/></clipPath><clipPath id="5"><path d="m320.16 482.25c.141-.052.26-.122.347-.205.115-.108.323-.443.485-.645.503-.627.901-.82 1.423-.943.824-.196 1.603.076 2.055.677-.167.24-.43.575-.727.781-.484.335-1.164.493-1.937.54-.056.003-.113.004-.172.004-.544 0-1.173-.136-1.474-.209"/></clipPath><clipPath id="0"><path d="m319.65 483.67c-.834-.524-1.519-1.257-1.962-1.952l.065-.065c1.03.887 2.298.819 2.751.39.115-.108.323-.443.485-.645.503-.627.901-.82 1.423-.943 1.049-.25 2.026.259 2.347 1.241.348 1.067-.122 2.17-1.54 2.592-.315.094-.663.141-1.025.141-.822 0-1.728-.246-2.544-.759"/></clipPath><clipPath id="4"><path d="m319.75 484.34c-.201-.2-.563-.692-.759-.964.463.208.788.115 1.063 0 .311-.13.644-.219.951-.245.222.178.691.612.967 1.285.13.313.241.83-.273.993-.045.015-.093.021-.146.021-.578 0-1.54-.827-1.803-1.089"/></clipPath><clipPath id="1"><path d="m320.84 482.3h-.053c.085-.197.194-.533.153-.9-.041-.388-.122-.587-.23-.746.807-.175 1.583-.572 2.093-1.306.403-.579.5-1.184.375-1.735.147.081.286.177.412.29.829.736 1.134 1.908.386 2.982-.726 1.042-1.99 1.408-3.116 1.415h-.02"/></clipPath><clipPath id="3"><path d="m317.43 482.25c.026-.041.054-.088.078-.131.032-.061.053-.121.067-.172.057.12.12.233.186.338-.074.038-.168.087-.209.109-.021.001-.052.034-.087.064-.014-.07-.025-.139-.035-.208"/></clipPath><clipPath id="2"><path d="m319.31 483.98c-.257-.289-.506-.612-.632-.779.062.039.124.076.186.11.046.025.09.046.132.066.196.272.558.764.759.964.186.187.724.655 1.227.914-.372-.147-1.198-.744-1.672-1.275"/></clipPath><clipPath id="N"><path d="m316.81 481.48c.029-.005.057-.011.077-.014.045-.009.156-.028.224-.04-.032.059-.063.121-.094.185-.042.015-.102.036-.161.06-.057.021-.164.06-.255.092.067-.097.137-.192.209-.283"/></clipPath><clipPath id="J"><path d="m320.34 486.58c-.741-.325-1.483-1-2.136-2.074-.476-.781-.83-1.854-.857-2.892l.087-.009c.31.882.859 1.401 1.424 1.71.534.291.894.191 1.195.065.565-.235 1.198-.338 1.625-.172 1.043.403 1.497 1.855 1.192 2.677-.255.685-.749.977-1.36.977-.358 0-.757-.1-1.17-.282"/></clipPath><clipPath id="I"><path d="m316.26 482.29c.04-.07.085-.145.134-.222.071-.037.147-.078.214-.113.104-.057.264-.168.348-.228-.052.116-.102.237-.148.359-.086.115-.233.3-.418.486-.157.156-.332.273-.464.349.108-.219.219-.43.334-.631"/></clipPath><clipPath id="K"><path d="m316.6 481.77c.091-.032.198-.071.255-.092.059-.024.119-.045.161-.06-.018.038-.037.078-.055.117-.084.06-.244.171-.348.228-.067.035-.143.076-.214.113.062-.099.129-.203.201-.306"/></clipPath><clipPath id="M"><path d="m317.21 487.01c-.389-.901-.564-1.913-.551-3.179.006-.614.139-1.696.523-2.516l.028-.016c-.385.819-.514 1.93-.52 2.545-.013 1.266.163 2.278.55 3.178.29.674.682 1.162 1.077 1.329-.405-.154-.81-.65-1.107-1.341"/></clipPath><clipPath id="L"><path d="m318.42 487.04c-.111-.137-.384-.646-.559-1.372-.155-.649-.211-1.568-.228-1.934.022.045.049.092.079.141.009.376.048 1.141.202 1.78.185.762.387 1.289.679 1.572-.058-.055-.121-.124-.173-.187"/></clipPath><clipPath id="B"><path d="m312.34 484.97c-.018-.013-.028-.031-.031-.054v-.034c.034-.305.892-1.184 1.828-1.988.684-.588 1.515-1.245 2.176-1.658.323-.201.736-.481 1.115-.549.156-.028.215.023.242.068-.036-.03-.099-.051-.212-.031-.378.069-.791.348-1.114.55-.661.412-1.491 1.069-2.175 1.657-1 .86-1.914 1.805-1.823 2.043-.003 0-.004-.002-.006-.004"/></clipPath><clipPath id="C"><path d="m317.47 482.46c.035-.03.066-.054.087-.064.041-.022.135-.071.209-.109.218.347.483.613.762.815-.027.127-.084.308-.214.485-.114.157-.259.258-.385.321-.203-.443-.364-.939-.459-1.448"/></clipPath><clipPath id="D"><path d="m315.93 482.93c.132-.076.307-.193.464-.349.185-.186.332-.371.418-.486-.009.022-.017.044-.026.066-.099.152-.309.451-.578.727-.097.098-.28.259-.446.4.055-.122.111-.241.168-.358"/></clipPath><clipPath id="H"><path d="m315.76 483.28c.166-.141.349-.302.446-.4.269-.276.479-.575.578-.727-.05.133-.097.268-.138.402-.135.229-.372.611-.636.958-.216.285-.492.629-.684.866.133-.384.278-.75.434-1.099"/></clipPath><clipPath id="G"><path d="m314.96 487.92c-.044 0-.084-.018-.117-.051 0 0 0 0 0 .002-.268-.151-.247-1.109.189-2.673.307-1.102.717-2.091 1.199-2.93.266-.465.722-1.099 1.089-1.326l.046-.009-.006.094c-.549.75-1.01 2.32-.975 2.951.027.541.069 1.186-.248 2.129-.426 1.268-.82 1.813-1.172 1.813h-.006"/></clipPath><clipPath id="E"><path d="m320.34 486.58c-.741-.325-1.483-1-2.136-2.074-.476-.781-.83-1.854-.857-2.892l.024-.002c.031 1.032.383 2.095.857 2.872.652 1.067 1.395 1.748 2.136 2.073.854.375 1.645.405 2.15-.087-.264.27-.61.392-1 .392-.358 0-.757-.1-1.17-.282"/></clipPath><clipPath id="F"><path d="m315.03 485.2c.307-1.102.717-2.091 1.199-2.93.266-.465.722-1.099 1.089-1.326l.046-.009c-.366.227-.832.897-1.099 1.363-.481.839-.89 1.828-1.197 2.929-.415 1.489-.455 2.428-.227 2.646-.268-.151-.247-1.109.189-2.673"/></clipPath><linearGradient x1="313.8" y1="485.18" x2="318.31" y2="483.54" id="1H" gradientUnits="userSpaceOnUse"><stop stop-color="#a5aed5"/><stop offset=".129" stop-color="#f1f6fb"/><stop offset=".736" stop-color="#666c9e"/><stop offset="1" stop-color="#666c9e"/></linearGradient><linearGradient x1="318.13" y1="483.88" x2="317.85" y2="482.27" id="1X" gradientUnits="userSpaceOnUse"><stop stop-color="#d2cee5"/><stop offset="1" stop-color="#c7bad9"/></linearGradient><linearGradient x1="313.44" x2="319.07" id="1I" gradientUnits="userSpaceOnUse"><stop stop-color="#3e215a"/><stop offset=".534" stop-color="#a78bbb"/><stop offset="1" stop-color="#632181"/></linearGradient><linearGradient x1="316.79" x2="315.33" id="1K" gradientUnits="userSpaceOnUse"><stop stop-color="#7a81b2"/><stop offset="1" stop-color="#b1badb"/></linearGradient><linearGradient x1="315.27" y1="484.26" x2="316.54" y2="484.56" id="1J" gradientUnits="userSpaceOnUse" xlink:href="#1L"/><linearGradient x1="317.2" x2="321.77" id="1G" gradientUnits="userSpaceOnUse"><stop stop-color="#362362"/><stop offset="1" stop-color="#472279"/></linearGradient><linearGradient x1="312.54" y1="485.17" x2="317.32" y2="480.39" id="1B" gradientUnits="userSpaceOnUse"><stop stop-color="#8282b0"/><stop offset=".012" stop-color="#8382b0"/><stop offset=".239" stop-color="#b1badb"/><stop offset=".84" stop-color="#5e5c8a"/><stop offset="1" stop-color="#5e5c8a"/></linearGradient><linearGradient x1="315.76" x2="316.81" id="1F" gradientUnits="userSpaceOnUse" xlink:href="#1L"/><linearGradient x1="316.4" x2="317.02" id="1C" gradientUnits="userSpaceOnUse"><stop stop-color="#8e96c7"/><stop offset=".736" stop-color="#666c9e"/><stop offset="1" stop-color="#666c9e"/></linearGradient><linearGradient x1="317.13" y1="481.5" x2="316.57" y2="481.7" id="1E" gradientUnits="userSpaceOnUse" xlink:href="#1A"/><linearGradient y1="481.3" x2="0" y2="488.35" id="1D" gradientUnits="userSpaceOnUse"><stop stop-color="#8ca2c0"/><stop offset=".736" stop-color="#dfe2f1"/><stop offset=".902" stop-color="#b0c7dd"/><stop offset="1" stop-color="#b0c7dd"/></linearGradient><linearGradient x1="315.23" y1="484.25" x2="316.54" y2="484.56" id="1L" gradientUnits="userSpaceOnUse"><stop stop-color="#a5aed5"/><stop offset=".736" stop-color="#666c9e"/><stop offset="1" stop-color="#666c9e"/></linearGradient><linearGradient x1="318.68" x2="320.98" id="1T" gradientUnits="userSpaceOnUse"><stop stop-color="#c7bdda"/><stop offset=".152" stop-color="#e2dcec"/><stop offset=".727" stop-color="#f5f3f9"/><stop offset="1" stop-color="#f5f3f9"/></linearGradient><linearGradient x1="317.84" y1="486.34" x2="319.2" y2="485.2" id="1M" gradientUnits="userSpaceOnUse"><stop stop-color="#bdd1ea"/><stop offset=".988" stop-color="#8292b6"/><stop offset=".988" stop-color="#8292b6"/><stop offset="1" stop-color="#8292b6"/></linearGradient><linearGradient x1="316.79" y1="483.13" x2="322.91" y2="485.36" id="1U" gradientUnits="userSpaceOnUse"><stop stop-color="#75508a"/><stop offset=".679" stop-color="#f5f3f9"/><stop offset="1" stop-color="#e8deed"/></linearGradient><linearGradient x1="319" x2="322.08" id="1W" gradientUnits="userSpaceOnUse"><stop stop-color="#c7bad9"/><stop offset=".455" stop-color="#e9e7f2"/><stop offset=".455" stop-color="#e9e7f2"/><stop offset="1" stop-color="#d2cae2"/></linearGradient><linearGradient x1="317.41" x2="317.76" id="1V" gradientUnits="userSpaceOnUse"><stop stop-color="#e4ddec"/><stop offset="1" stop-color="#bcadd1"/></linearGradient><linearGradient x1="317.35" x2="322.97" id="1S" gradientUnits="userSpaceOnUse"><stop stop-color="#c7bdda"/><stop offset=".455" stop-color="#e0dbec"/><stop offset=".455" stop-color="#e0dbec"/><stop offset=".867" stop-color="#d2cae2"/><stop offset="1" stop-color="#d2cae2"/></linearGradient><linearGradient x1="321.78" y1="482.84" x2="322.74" y2="480.19" id="1N" gradientUnits="userSpaceOnUse"><stop stop-color="#b197c3"/><stop offset=".752" stop-color="#75508a"/><stop offset=".752" stop-color="#75508a"/><stop offset="1" stop-color="#604071"/></linearGradient><linearGradient x1="317.69" x2="324.87" id="1R" gradientUnits="userSpaceOnUse"><stop stop-color="#8868a6"/><stop offset=".376" stop-color="#c6b0d2"/><stop offset=".926" stop-color="#75508a"/><stop offset="1" stop-color="#75508a"/></linearGradient><linearGradient y1="483.74" x2="0" y2="487.23" id="1O" gradientUnits="userSpaceOnUse"><stop stop-color="#d8e5f3"/><stop offset=".755" stop-color="#bdd6ed"/><stop offset="1" stop-color="#bdd6ed"/></linearGradient><linearGradient x1="318.74" y1="482.7" x2="317.83" y2="481.93" id="1Q" gradientUnits="userSpaceOnUse"><stop stop-color="#c6b0d2"/><stop offset="1" stop-color="#75508a"/></linearGradient><linearGradient x1="323.86" x2="320.16" id="1P" gradientUnits="userSpaceOnUse"><stop stop-color="#8868a6"/><stop offset=".613" stop-color="#d4c1dc"/><stop offset=".896" stop-color="#c6b0d2"/><stop offset="1" stop-color="#c6b0d2"/></linearGradient><linearGradient x1="316.96" x2="315.93" id="1A" gradientUnits="userSpaceOnUse"><stop stop-color="#7a81b2"/><stop offset="1" stop-color="#a5aed5"/></linearGradient><linearGradient x1="318.04" x2="324.41" id="t" gradientUnits="userSpaceOnUse"><stop stop-color="#28255a"/><stop offset="1" stop-color="#a78bbb"/></linearGradient><linearGradient x1="314.62" y1="482.48" x2="315.07" y2="483.02" id="19" gradientUnits="userSpaceOnUse"><stop stop-color="#7f7eac"/><stop offset=".84" stop-color="#5e5c8a"/><stop offset=".84" stop-color="#5e5c8a"/><stop offset="1" stop-color="#5e5c8a"/></linearGradient><linearGradient x1="319.55" y1="481.76" x2="320.78" y2="480.73" id="u" gradientUnits="userSpaceOnUse"><stop stop-color="#302662"/><stop offset=".303" stop-color="#5a3f78"/><stop offset=".303" stop-color="#5a3f78"/><stop offset="1" stop-color="#75508a"/></linearGradient><linearGradient x1="318.04" x2="319.33" id="w" gradientUnits="userSpaceOnUse" xlink:href="#t"/><linearGradient x1="320.77" y1="482.28" x2="324.1" y2="478.32" id="v" gradientUnits="userSpaceOnUse"><stop stop-color="#593f71"/><stop offset=".81" stop-color="#8468a6"/><stop offset=".81" stop-color="#8468a6"/><stop offset="1" stop-color="#8468a6"/></linearGradient><linearGradient x1="320.5" y1="478.32" x2="322.82" y2="479.41" id="s" gradientUnits="userSpaceOnUse"><stop stop-color="#1f1845"/><stop offset=".448" stop-color="#3d2461"/><stop offset=".448" stop-color="#3d2461"/><stop offset=".92" stop-color="#8468a6"/><stop offset="1" stop-color="#8468a6"/></linearGradient><linearGradient x1="318.54" x2="318.1" id="n" gradientUnits="userSpaceOnUse"><stop stop-color="#3e215a"/><stop offset=".709" stop-color="#4e3d7f"/><stop offset=".709" stop-color="#4e3d7f"/><stop offset="1" stop-color="#4e3d7f"/></linearGradient><linearGradient x1="318.82" y1="482.06" x2="319.98" y2="481.64" id="r" gradientUnits="userSpaceOnUse"><stop stop-color="#3e1e6c"/><stop offset=".2" stop-color="#432d70"/><stop offset="1" stop-color="#6f5489"/></linearGradient><linearGradient x1="318.23" x2="318.95" id="o" gradientUnits="userSpaceOnUse"><stop stop-color="#201d4b"/><stop offset="1" stop-color="#3e215a"/></linearGradient><linearGradient x1="317.2" x2="321.77" id="q" xlink:href="#1G" gradientUnits="userSpaceOnUse"/><linearGradient x1="320.31" x2="324.41" id="p" gradientUnits="userSpaceOnUse"><stop stop-color="#895fa0"/><stop offset=".988" stop-color="#3e215a"/><stop offset=".988" stop-color="#3e215a"/><stop offset="1" stop-color="#3e215a"/></linearGradient><linearGradient y1="479.99" x2="0" y2="476.55" id="x" gradientUnits="userSpaceOnUse"><stop stop-color="#311f5a"/><stop offset="1" stop-color="#472279"/></linearGradient><linearGradient x1="318.16" x2="318.98" id="15" gradientUnits="userSpaceOnUse" xlink:href="#t"/><linearGradient x1="315.52" y1="481.44" x2="317.19" y2="478.54" id="y" gradientUnits="userSpaceOnUse"><stop stop-color="#351b4e"/><stop offset=".546" stop-color="#442461"/><stop offset=".546" stop-color="#442461"/><stop offset="1" stop-color="#632181"/></linearGradient><linearGradient x1="321.77" x2="319.25" id="16" gradientUnits="userSpaceOnUse" xlink:href="#1G"/><linearGradient x1="319.11" y1="479.68" x2="321.34" y2="480.49" id="18" gradientUnits="userSpaceOnUse"><stop stop-color="#311f5a"/><stop offset=".247" stop-color="#362362"/><stop offset=".247" stop-color="#362362"/><stop offset="1" stop-color="#472279"/></linearGradient><linearGradient x1="318.98" x2="319.68" id="17" gradientUnits="userSpaceOnUse"><stop stop-color="#362362"/><stop offset="1" stop-color="#411f71"/></linearGradient><linearGradient x1="321.77" x2="317.23" id="14" gradientUnits="userSpaceOnUse"><stop stop-color="#311f5a"/><stop offset=".509" stop-color="#7b6fac"/><stop offset="1" stop-color="#55378a"/></linearGradient><linearGradient x1="318.16" x2="319.49" id="z" gradientUnits="userSpaceOnUse"><stop stop-color="#31214b"/><stop offset=".247" stop-color="#36245a"/><stop offset=".247" stop-color="#36245a"/><stop offset="1" stop-color="#3a247a"/></linearGradient><linearGradient x1="316.41" x2="316.98" id="13" gradientUnits="userSpaceOnUse"><stop stop-color="#8f8ec0"/><stop offset=".92" stop-color="#8282b0"/><stop offset="1" stop-color="#8282b0"/></linearGradient><linearGradient y1="479.17" x2="0" y2="480.42" id="10" gradientUnits="userSpaceOnUse"><stop stop-color="#4d286c"/><stop offset=".742" stop-color="#632181"/><stop offset="1" stop-color="#632181"/></linearGradient><linearGradient y1="479.09" x2="0" y2="480.39" id="12" gradientUnits="userSpaceOnUse"><stop stop-color="#442461"/><stop offset="1" stop-color="#5d1f7a"/></linearGradient><linearGradient x1="319.08" x2="318.39" id="11" gradientUnits="userSpaceOnUse"><stop stop-color="#4d286c"/><stop offset=".798" stop-color="#591e76"/><stop offset=".798" stop-color="#591e76"/><stop offset="1" stop-color="#591e76"/></linearGradient></defs><g transform="matrix(38.208 0 0 38.208-13072.8-19983.3)"><g clip-path="url(#G)" transform="matrix(1.25 0 0-1.25-48.24 1133.53)"><path d="m314.96 487.92c-.044 0-.084-.018-.117-.051 0 0 0 0 0 .002-.268-.151-.247-1.109.189-2.673.307-1.102.717-2.091 1.199-2.93.266-.465.722-1.099 1.089-1.326l.046-.009-.006.094c-.549.75-1.01 2.32-.975 2.951.027.541.069 1.186-.248 2.129-.426 1.268-.82 1.813-1.172 1.813h-.006" fill="url(#1L)"/></g><g clip-path="url(#P)" transform="matrix(1.25 0 0-1.25-48.24 1133.53)"><path d="m314.96 487.92c-.158-.003-.248-.208-.254-.592v-.084c.007-.46.121-1.145.365-2.02.307-1.101.716-2.09 1.197-2.929.267-.466.733-1.136 1.099-1.363l-.006.094c-.549.75-1.01 2.32-.975 2.951.027.541.069 1.186-.248 2.129-.426 1.269-.82 1.813-1.172 1.813h-.006" fill="url(#1J)"/></g><g clip-path="url(#H)" transform="matrix(1.25 0 0-1.25-48.24 1133.53)"><path d="m315.76 483.28c.166-.141.349-.302.446-.4.269-.276.479-.575.578-.727-.05.133-.097.268-.138.402-.135.229-.372.611-.636.958-.216.285-.492.629-.684.866.133-.384.278-.75.434-1.099" fill="url(#1K)"/></g><g clip-path="url(#F)" transform="matrix(1.25 0 0-1.25-48.24 1133.53)"><path d="m315.03 485.2c.307-1.102.717-2.091 1.199-2.93.266-.465.722-1.099 1.089-1.326l.046-.009c-.366.227-.832.897-1.099 1.363-.481.839-.89 1.828-1.197 2.929-.415 1.489-.455 2.428-.227 2.646-.268-.151-.247-1.109.189-2.673" fill="url(#1H)"/></g><g clip-path="url(#D)" transform="matrix(1.25 0 0-1.25-48.24 1133.53)"><path d="m315.93 482.93c.132-.076.307-.193.464-.349.185-.186.332-.371.418-.486-.009.022-.017.044-.026.066-.099.152-.309.451-.578.727-.097.098-.28.259-.446.4.055-.122.111-.241.168-.358" fill="url(#1F)"/></g><g clip-path="url(#I)" transform="matrix(1.25 0 0-1.25-48.24 1133.53)"><path d="m316.26 482.29c.04-.07.085-.145.134-.222.071-.037.147-.078.214-.113.104-.057.264-.168.348-.228-.052.116-.102.237-.148.359-.086.115-.233.3-.418.486-.157.156-.332.273-.464.349.108-.219.219-.43.334-.631" fill="url(#1A)"/></g><g clip-path="url(#K)" transform="matrix(1.25 0 0-1.25-48.24 1133.53)"><path d="m316.6 481.77c.091-.032.198-.071.255-.092.059-.024.119-.045.161-.06-.018.038-.037.078-.055.117-.084.06-.244.171-.348.228-.067.035-.143.076-.214.113.062-.099.129-.203.201-.306" fill="url(#1C)"/></g><g clip-path="url(#N)" transform="matrix(1.25 0 0-1.25-48.24 1133.53)"><path d="m316.81 481.48c.029-.005.057-.011.077-.014.045-.009.156-.028.224-.04-.032.059-.063.121-.094.185-.042.015-.102.036-.161.06-.057.021-.164.06-.255.092.067-.097.137-.192.209-.283" fill="url(#1E)"/></g><g clip-path="url(#X)" transform="matrix(1.25 0 0-1.25-48.24 1133.53)" fill="#bdd1ea"><path d="m0 0c-.283.417-.626.509-.966.362.002 0 .004.002.007.003-.406-.154-.811-.651-1.108-1.342-.388-.9-.563-1.912-.551-3.178.007-.615.139-1.697.524-2.517l.027-.015.064.045c-.146 1.036.054 1.62.273 2.222.075.205.371.73.675.811.557.148.889.687 1.193 1.358.228.501.28 1.634-.138 2.251" transform="translate(319.28 487.98)"/><path d="m0 0c.538 1.25 1.426 1.864 2.036.964.418-.616.366-1.75.138-2.251-.304-.671-.636-1.209-1.193-1.357-.305-.081-.6-.607-.675-.812-.219-.602-.419-1.185-.273-2.222l-.064-.044c-.385.819-.513 1.929-.519 2.544-.013 1.266.162 2.278.55 3.178" transform="translate(317.25 487.02)"/></g><g clip-path="url(#M)" transform="matrix(1.25 0 0-1.25-48.24 1133.53)"><path d="m317.21 487.01c-.389-.901-.564-1.913-.551-3.179.006-.614.139-1.696.523-2.516l.028-.016c-.385.819-.514 1.93-.52 2.545-.013 1.266.163 2.278.55 3.178.29.674.682 1.162 1.077 1.329-.405-.154-.81-.65-1.107-1.341" fill="url(#1D)"/></g><g clip-path="url(#O)" transform="matrix(1.25 0 0-1.25-48.24 1133.53)"><path d="m318.7 487.32c-.353-.252-.584-.811-.791-1.667-.154-.639-.193-1.404-.202-1.78.132.215.322.446.517.497.557.149.889.687 1.192 1.359.104.226.17.583.175.963v.076c-.039.158-.099.337-.183.439-.09.109-.227.223-.402.223-.092 0-.195-.032-.306-.11" fill="url(#1M)"/></g><g clip-path="url(#L)" transform="matrix(1.25 0 0-1.25-48.24 1133.53)"><path d="m318.42 487.04c-.111-.137-.384-.646-.559-1.372-.155-.649-.211-1.568-.228-1.934.022.045.049.092.079.141.009.376.048 1.141.202 1.78.185.762.387 1.289.679 1.572-.058-.055-.121-.124-.173-.187" fill="url(#1O)"/></g><g clip-path="url(#X)" transform="matrix(1.25 0 0-1.25-48.24 1133.53)"><path d="m0 0c-.002.029-.002.058-.004.087-.042.335-.047.622-.027.878-.048.089-.111.187-.194.277-.081.088-.174.152-.255.197.079-.494.212-1.03.423-1.478l.057.039" fill="#c2d8ee" transform="translate(317.27 481.34)"/><path d="m0 0c-.059-.441-.085-.915-.08-1.431.002-.163.012-.361.034-.58.087-.046.191-.114.28-.211.14-.151.225-.327.269-.438.059.352.164.65.274.952.004.001.008.021.013.032-.063.212-.179.561-.37.981-.137.304-.294.536-.42.695" fill="#c6d9ee" transform="translate(316.77 485.27)"/></g><g clip-path="url(#J)" transform="matrix(1.25 0 0-1.25-48.24 1133.53)"><path d="m320.34 486.58c-.741-.325-1.483-1-2.136-2.074-.476-.781-.83-1.854-.857-2.892l.087-.009c.31.882.859 1.401 1.424 1.71.534.291.894.191 1.195.065.565-.235 1.198-.338 1.625-.172 1.043.403 1.497 1.855 1.192 2.677-.255.685-.749.977-1.36.977-.358 0-.757-.1-1.17-.282" fill="url(#1S)"/></g><g clip-path="url(#E)" transform="matrix(1.25 0 0-1.25-48.24 1133.53)"><path d="m320.34 486.58c-.741-.325-1.483-1-2.136-2.074-.476-.781-.83-1.854-.857-2.892l.024-.002c.031 1.032.383 2.095.857 2.872.652 1.067 1.395 1.748 2.136 2.073.854.375 1.645.405 2.15-.087-.264.27-.61.392-1 .392-.358 0-.757-.1-1.17-.282" fill="url(#1U)"/></g><g clip-path="url(#C)" transform="matrix(1.25 0 0-1.25-48.24 1133.53)"><path d="m317.47 482.46c.035-.03.066-.054.087-.064.041-.022.135-.071.209-.109.218.347.483.613.762.815-.027.127-.084.308-.214.485-.114.157-.259.258-.385.321-.203-.443-.364-.939-.459-1.448" fill="url(#1X)"/></g><g clip-path="url(#3)" transform="matrix(1.25 0 0-1.25-48.24 1133.53)"><path d="m317.43 482.25c.026-.041.054-.088.078-.131.032-.061.053-.121.067-.172.057.12.12.233.186.338-.074.038-.168.087-.209.109-.021.001-.052.034-.087.064-.014-.07-.025-.139-.035-.208" fill="url(#1V)"/></g><g clip-path="url(#X)" transform="matrix(1.25 0 0-1.25-48.24 1133.53)"><path d="m0 0c.037.101.078.197.121.289-.014.05-.035.111-.067.172-.023.043-.052.09-.078.13-.026-.172-.044-.344-.054-.517l.078-.074" fill="#e4ddec" transform="translate(317.46 481.66)"/></g><g clip-path="url(#4)" transform="matrix(1.25 0 0-1.25-48.24 1133.53)"><path d="m319.75 484.34c-.201-.2-.563-.692-.759-.964.463.208.788.115 1.063 0 .311-.13.644-.219.951-.245.222.178.691.612.967 1.285.13.313.241.83-.273.993-.045.015-.093.021-.146.021-.578 0-1.54-.827-1.803-1.089" fill="url(#1W)"/></g><g clip-path="url(#2)" transform="matrix(1.25 0 0-1.25-48.24 1133.53)"><path d="m319.31 483.98c-.257-.289-.506-.612-.632-.779.062.039.124.076.186.11.046.025.09.046.132.066.196.272.558.764.759.964.186.187.724.655 1.227.914-.372-.147-1.198-.744-1.672-1.275" fill="url(#1T)"/></g><g clip-path="url(#0)" transform="matrix(1.25 0 0-1.25-48.24 1133.53)"><path d="m319.65 483.67c-.834-.524-1.519-1.257-1.962-1.952l.065-.065c1.03.887 2.298.819 2.751.39.115-.108.323-.443.485-.645.503-.627.901-.82 1.423-.943 1.049-.25 2.026.259 2.347 1.241.348 1.067-.122 2.17-1.54 2.592-.315.094-.663.141-1.025.141-.822 0-1.728-.246-2.544-.759" fill="url(#1R)"/></g><g clip-path="url(#5)" transform="matrix(1.25 0 0-1.25-48.24 1133.53)"><path d="m320.16 482.25c.141-.052.26-.122.347-.205.115-.108.323-.443.485-.645.503-.627.901-.82 1.423-.943.824-.196 1.603.076 2.055.677-.167.24-.43.575-.727.781-.484.335-1.164.493-1.937.54-.056.003-.113.004-.172.004-.544 0-1.173-.136-1.474-.209" fill="url(#1N)"/></g><g clip-path="url(#7)" transform="matrix(1.25 0 0-1.25-48.24 1133.53)"><path d="m320.16 482.25c.026-.001.051-.02.075-.031.346.084 1.055.232 1.618.198.772-.047 1.452-.204 1.937-.54.024-.017.048-.034.073-.053-.04.032-.08.062-.12.091-.484.335-1.164.493-1.937.54-.056.003-.113.004-.172.004-.544 0-1.173-.136-1.474-.209" fill="url(#1P)"/></g><g clip-path="url(#A)" transform="matrix(1.25 0 0-1.25-48.24 1133.53)"><path d="m317.89 482.02c.009-.055.018-.11.023-.135.005-.022.014-.052.024-.082.245.181.499.311.75.4.008.079.014.189.008.31-.006.112-.046.248-.079.343-.275-.268-.519-.552-.726-.836" fill="url(#1Q)"/></g><g clip-path="url(#X)" transform="matrix(1.25 0 0-1.25-48.24 1133.53)"><path d="m0 0c.061.052.122.101.184.147-.0001.029-.019.059-.024.081-.005.025-.014.08-.022.135-.035-.047-.068-.095-.101-.141 0-.031 0-.069-.007-.099-.007-.031-.019-.081-.03-.123" fill="#75508a" transform="translate(317.76 481.66)"/><path d="m0 0c0 0 0 0 .002 0 .0001.042.023.092.029.123.006.03.008.068.008.099-.036-.053-.071-.105-.104-.158l.065-.065" fill="#9b81af" transform="translate(317.75 481.65)"/></g><g clip-path="url(#9)" transform="matrix(1.25 0 0-1.25-48.24 1133.53)"><path d="m312.34 484.97c-.018-.013-.028-.031-.031-.054v-.034c.034-.305.892-1.184 1.828-1.988.684-.588 1.515-1.245 2.176-1.658.323-.201.736-.481 1.115-.549.2-.036.242.059.257.102l-.065.063c-.556.185-1.574 1.095-1.993 1.496-.267.255-.764.819-1.385 1.359-.73.636-1.556 1.281-1.837 1.281-.027 0-.049-.005-.065-.018" fill="url(#19)"/></g><g clip-path="url(#B)" transform="matrix(1.25 0 0-1.25-48.24 1133.53)"><path d="m312.34 484.97c-.018-.013-.028-.031-.031-.054v-.034c.034-.305.892-1.184 1.828-1.988.684-.588 1.515-1.245 2.176-1.658.323-.201.736-.481 1.115-.549.156-.028.215.023.242.068-.036-.03-.099-.051-.212-.031-.378.069-.791.348-1.114.55-.661.412-1.491 1.069-2.175 1.657-1 .86-1.914 1.805-1.823 2.043-.003 0-.004-.002-.006-.004" fill="url(#1B)"/></g><g clip-path="url(#8)" transform="matrix(1.25 0 0-1.25-48.24 1133.53)"><path d="m316.71 481.15c0 0 .057.016.119.019.075.002.155-.007.155-.007l-.127.084c0 0-.099.034-.204.049-.083.013-.237.033-.237.033l.294-.178" fill="url(#13)"/></g><g clip-path="url(#6)" transform="matrix(1.25 0 0-1.25-48.24 1133.53)"><path d="m320.84 482.3c-1.03 0-2.178-.397-2.802-.76v-.069l.034-.023c.495.097.915.072 1.252-.033.538-.184.871-.569.951-.958.072-.348.061-.72.044-.976-.044-.627.025-1.051.447-1.529.771-.872 2.044-.745 2.827-.049.829.736 1.134 1.908.386 2.982-.726 1.042-1.99 1.408-3.116 1.415h-.024" fill="url(#t)"/></g><g clip-path="url(#1)" transform="matrix(1.25 0 0-1.25-48.24 1133.53)"><path d="m320.84 482.3h-.053c.085-.197.194-.533.153-.9-.041-.388-.122-.587-.23-.746.807-.175 1.583-.572 2.093-1.306.403-.579.5-1.184.375-1.735.147.081.286.177.412.29.829.736 1.134 1.908.386 2.982-.726 1.042-1.99 1.408-3.116 1.415h-.02" fill="url(#v)"/></g><g clip-path="url(#b)" transform="matrix(1.25 0 0-1.25-48.24 1133.53)"><path d="m318.04 481.47l.034-.023c.499.098.921.072 1.26-.035-.211.074-.453.117-.725.117-.177 0-.367-.018-.569-.059" fill="url(#w)"/></g><g clip-path="url(#g)" transform="matrix(1.25 0 0-1.25-48.24 1133.53)"><path d="m320.51 480.39c-.038-.045-.116-.099-.197-.146.034-.283.024-.562.011-.767-.044-.627.025-1.051.447-1.529.646-.732 1.647-.76 2.415-.339.125.551.028 1.156-.375 1.735-.51.734-1.286 1.131-2.093 1.306-.061-.09-.131-.168-.208-.26" fill="url(#s)"/></g><g clip-path="url(#f)" transform="matrix(1.25 0 0-1.25-48.24 1133.53)"><path d="m320.21 482.25c-.071-.115-.178-.271-.316-.409-.159-.159-.433-.318-.615-.414.565-.179.915-.575.998-.975.014-.069.025-.14.033-.209.081.047.159.101.197.146.212.253.373.398.438 1.01.041.367-.068.703-.153.9-.192-.003-.387-.018-.582-.045" fill="url(#u)"/></g><g clip-path="url(#h)" transform="matrix(1.25 0 0-1.25-48.24 1133.53)"><path d="m318.95 481.95c-.025-.063-.065-.142-.153-.246-.048-.058-.111-.12-.165-.172.238-.003.454-.038.646-.098.182.096.456.255.615.414.138.138.245.294.316.409-.437-.059-.872-.171-1.259-.307" fill="url(#r)"/></g><g clip-path="url(#e)" transform="matrix(1.25 0 0-1.25-48.24 1133.53)"><path d="m318.54 481.79c-.038-.042-.09-.095-.15-.15-.04-.036-.106-.09-.166-.137.141.019.277.028.406.027.054.052.117.114.165.172.088.104.128.183.153.246-.144-.05-.281-.103-.408-.158" fill="url(#o)"/></g><g clip-path="url(#c)" transform="matrix(1.25 0 0-1.25-48.24 1133.53)"><path d="m318.34 481.7c-.03-.033-.066-.076-.1-.109-.03-.03-.089-.073-.14-.108.042.007.083.014.123.02.06.047.126.101.166.137.06.055.112.108.15.15-.07-.03-.136-.06-.199-.09" fill="url(#n)"/></g><g clip-path="url(#d)" transform="matrix(1.25 0 0-1.25-48.24 1133.53)"><path d="m323.59 477.93c-.783-.695-2.056-.822-2.827.051-.349.395-.456.749-.459 1.216v-.024c.002-.468.11-.828.459-1.224.771-.872 2.044-.745 2.827-.049.505.449.816 1.06.813 1.712-.006-.64-.314-1.238-.813-1.682" fill="url(#p)"/></g><g clip-path="url(#m)" transform="matrix(1.25 0 0-1.25-48.24 1133.53)"><path d="m318.2 481.22l-.04-.062.003-.028c.451-.085.715-.308.82-.562.099-.235.08-.495-.042-.695-.197-.326-.66-.655-.828-.779-.662-.484-.911-.927-.911-1.469 0-.724.699-1.1 1.565-1.071.902.029 2.434.529 2.905 1.916.262.774-.002 1.51-.774 2.07-.691.502-1.908.682-2.573.683-.045 0-.086 0-.125-.003" fill="url(#q)"/></g><g clip-path="url(#k)" transform="matrix(1.25 0 0-1.25-48.24 1133.53)"><path d="m318.2 481.22l-.04-.062c.835-.158 1.041-.855.781-1.285-.197-.326-.66-.655-.828-.779-.662-.484-.911-.927-.911-1.469 0-.724.699-1.1 1.565-1.071.902.029 2.434.529 2.905 1.916.262.774-.002 1.51-.774 2.07-.691.502-1.908.683-2.573.683-.045 0-.086 0-.125-.003" fill="url(#q)"/></g><g clip-path="url(#l)" transform="matrix(1.25 0 0-1.25-48.24 1133.53)"><path d="m318.2 481.22l-.04-.062c.213-.041.385-.116.519-.212.119-.003.283.004.452.037.144.029.264.072.354.112-.434.089-.855.127-1.16.127-.045 0-.086 0-.125-.002" fill="url(#z)"/></g><g clip-path="url(#j)" transform="matrix(1.25 0 0-1.25-48.24 1133.53)"><path d="m318.94 479.87c-.197-.326-.66-.655-.828-.779-.662-.484-.911-.927-.911-1.469 0-.724.699-1.1 1.565-1.071.257.008.564.054.884.148.006.493.005 1.342-.064 1.906-.076.629-.421 1.159-.588 1.384-.016-.041-.036-.081-.058-.119" fill="url(#x)"/></g><g clip-path="url(#i)" transform="matrix(1.25 0 0-1.25-48.24 1133.53)"><path d="m318.16 481.13c.451-.085.715-.308.82-.562-.112.269-.379.505-.823.59l.003-.028" fill="url(#15)"/></g><g clip-path="url(#X)" transform="matrix(1.25 0 0-1.25-48.24 1133.53)"><path d="m0 0c-.336.177-.739.301-1.133.382-.09-.039-.21-.082-.354-.111-.169-.034-.333-.04-.452-.038.075-.055.138-.116.19-.181.213-.038.547-.086.849-.088.221-.002.602.018.9.036" fill="#472279" transform="translate(320.62 480.71)"/></g><g clip-path="url(#R)" transform="matrix(1.25 0 0-1.25-48.24 1133.53)"><path d="m318.87 480.76c.186-.236.221-.529.131-.772.045-.061.103-.143.165-.245.293-.105.761-.243 1.277-.277.497-.034.978.028 1.246.074-.124.367-.389.705-.789.996-.087.063-.18.119-.28.172-.298-.018-.68-.038-.9-.036-.303.002-.636.051-.849.088" fill="url(#18)"/></g><g clip-path="url(#T)" transform="matrix(1.25 0 0-1.25-48.24 1133.53)"><path d="m319.39 479.62c-.041-.001-.089-.019-.136-.025.145-.263.29-.608.337-.991.024-.203.041-.444.051-.693.211-.111.485-.211.828-.259.251-.035.532-.014.767.033.185.221.337.48.439.781.126.371.13.735.015 1.074-.268-.046-.749-.108-1.246-.074-.365.024-.705.099-.977.179-.025-.009-.051-.017-.078-.025" fill="url(#16)"/></g><g clip-path="url(#X)" transform="matrix(1.25 0 0-1.25-48.24 1133.53)"><path d="m0 0c-.113.033-.214.067-.3.098.028-.046.057-.095.086-.148.047.007.094.015.136.026.026.006.052.015.078.024" fill="#311f5a" transform="translate(319.47 479.65)"/></g><g clip-path="url(#U)" transform="matrix(1.25 0 0-1.25-48.24 1133.53)"><path d="m318.98 479.95c.172-.237.496-.762.57-1.371.068-.552.079-1.388.074-1.886.015.004.011.003.026.007.006.493.005 1.342-.064 1.906-.076.629-.421 1.159-.588 1.384-.009-.024-.008-.018-.018-.04" fill="url(#17)"/></g><g clip-path="url(#S)" transform="matrix(1.25 0 0-1.25-48.24 1133.53)"><path d="m321.66 478.51c-.472-1.386-2-1.887-2.905-1.916-.74-.024-1.358.245-1.522.776.144-.559.775-.845 1.534-.819.902.029 2.434.529 2.905 1.916.12.352.129.697.032 1.021.085-.312.07-.642-.044-.978" fill="url(#14)"/></g><g clip-path="url(#Q)" transform="matrix(1.25 0 0-1.25-48.24 1133.53)"><path d="m318.01 480.88v-.042c.055-.064.082-.117.085-.161-.018-.167-.309-.253-.622-.29-.227-.028-.709-.015-.976.018-.548.069-1.018.138-1.47.141-.688.005-1.572-.065-1.593-.447v-.028c.026-.456 1.612-.886 2.591-.957.815-.059 2.507-.077 2.95.518.351.473-.342.98-.898 1.25l-.067-.002" fill="url(#y)"/></g><g clip-path="url(#V)" transform="matrix(1.25 0 0-1.25-48.24 1133.53)"><path d="m318.01 480.88c.264-.307-.117-.442-.537-.493-.227-.028-.709-.015-.976.018-.548.069-1.018.138-1.47.141-.688.005-1.572-.065-1.593-.447v-.028c.026-.456 1.612-.886 2.591-.957.815-.059 2.507-.077 2.95.518.351.473-.342.98-.898 1.25l-.067-.002" fill="url(#y)"/></g><g clip-path="url(#X)" transform="matrix(1.25 0 0-1.25-48.24 1133.53)"><path d="m0 0v-.041c.056-.065.082-.118.086-.162.007.057-.018.125-.086.203" fill="#2f1645" transform="translate(318.01 480.88)"/></g><g clip-path="url(#Z)" transform="matrix(1.25 0 0-1.25-48.24 1133.53)"><path d="m317.56 480.4c.028-.133.08-.367.139-.576.069-.241.178-.493.252-.651.24.04.462.1.645.181-.177.123-.482.349-.623.545-.147.202-.248.391-.309.52-.034-.007-.069-.013-.104-.019" fill="url(#10)"/></g><g clip-path="url(#a)" transform="matrix(1.25 0 0-1.25-48.24 1133.53)"><path d="m317.48 480.39c-.023-.003-.048-.006-.075-.008-.086-.121-.268-.4-.338-.694-.054-.228-.044-.449-.026-.596.199.005.403.017.602.039-.067.122-.162.329-.222.601-.049.226.03.527.07.658h-.011" fill="url(#12)"/></g><g clip-path="url(#Y)" transform="matrix(1.25 0 0-1.25-48.24 1133.53)"><path d="m318.64 479.72c.075-.096.149-.169.209-.221.05.04.094.084.129.13.064.086.093.173.095.258v.022c0 .0001 0 .019-.002.029-.051.0001-.105.022-.152.036-.155.051-.527.212-.527.212 0 0 .147-.337.248-.466" fill="url(#11)"/></g><g clip-path="url(#W)" transform="matrix(1.25 0 0-1.25-48.24 1133.53)"><path d="m313.44 480.07c.026-.456 1.612-.886 2.591-.957.815-.059 2.507-.077 2.95.518.083.112.107.224.09.336.001-.096-.018-.195-.094-.296-.448-.592-2.136-.578-2.95-.519-.958.07-2.496.482-2.587.927v-.009" fill="url(#1I)"/></g><g fill="#261555"><path d="m345.81 540.47v-.007c0-.467-.341-.855-.819-.855-.478 0-.811.381-.811.849v.006c0 .469.34.854.819.854.478 0 .811-.379.811-.846m-2.074 0v-.008c0-.676.522-1.244 1.262-1.244.739 0 1.255.56 1.255 1.237v.006c0 .678-.524 1.245-1.262 1.245-.739 0-1.255-.56-1.255-1.237"/><path d="m347.37 541.28c.505 0 .835-.34.835-.811v-.008c0-.471-.33-.817-.835-.817h-.475v1.636h.475m-.897-1.808c0-.12.092-.214.214-.214h.684c.756 0 1.28.52 1.28 1.197v.006c0 .678-.524 1.204-1.28 1.204h-.684c-.121 0-.214-.092-.214-.212v-1.981"/><path d="m348.98 539.46c0-.116.092-.21.214-.21.116 0 .209.094.209.21v2.023c0 .116-.092.21-.209.21-.121 0-.214-.094-.214-.21v-2.023"/><path d="m349.82 541.4c-.048-.035-.082-.092-.082-.161 0-.11.09-.196.2-.196.058 0 .096.018.124.038.199.159.413.247.674.247.261 0 .426-.124.426-.303v-.006c0-.173-.096-.265-.544-.369-.512-.124-.801-.275-.801-.719v-.006c0-.413.344-.697.822-.697.303 0 .546.079.764.222.048.028.092.086.092.169 0 .11-.09.196-.2.196-.041 0-.075-.001-.11-.031-.185-.12-.365-.183-.554-.183-.248 0-.391.128-.391.286v.006c0 .186.11.269.574.379.509.124.77.305.77.705v.006c0 .451-.354.719-.859.719-.327 0-.636-.102-.905-.303"/><path d="m351.91 541.46v-1.98c0-.121.092-.214.212-.214h1.4c.104 0 .19.086.19.189 0 .107-.086.19-.19.19h-1.19v.625h1.035c.104 0 .19.086.19.192 0 .104-.086.186-.19.186h-1.035v.646h1.207c.103 0 .189.086.189.189 0 .106-.086.189-.189.189h-1.418c-.12 0-.212-.092-.212-.212"/><path d="m355.49 540.71l-.423-.974-.424.974h.846m-1.575.68l.894-1.994c.049-.106.134-.171.255-.171h.02c.121 0 .204.065.251.171l.894 1.994c.017.031.025.063.025.09 0 .114-.086.202-.2.202-.1 0-.169-.058-.206-.148l-.196-.45h-1.169l-.202.464c-.035.086-.108.134-.196.134-.11 0-.196-.085-.196-.195 0-.031.001-.063.027-.097"/></g></g></svg>