<svg xmlns="http://www.w3.org/2000/svg" height="448.35" width="600" viewBox="0 0 158.75 118.62356"><g stroke-width=".855" fill="#a7a5a5" transform="scale(1.3941)"><path d="m21.549 84.83h-3.328l-.504-12.917h-.043l-6 12.917h-1.634l-2.866-13.26h-.043l-3.661 13.26h-3.465l5.278-19.08h3.773l2.618 11.977 5.457-11.977h3.662z"/><path d="m34.911 68.92h-6.672l-.548 4.534h5.869l-.377 3.166h-5.877l-.59 5.05h8.418l-.385 3.165h-11.857l2.284-19.08h10.12z"/><path d="m44.37 65.755c6.467 0 8.358 5.133 8.358 9.325 0 5.646-3.319 9.752-7.64 9.752h-8.366l2.258-19.08zm-3.824 15.912h3.234c3.824 0 5.398-3.337 5.398-6.673s-1.908-6.074-5.467-6.074h-1.668l-1.497 12.747"/><path d="m56.666 84.83h-3.439l2.275-19.08h3.448z"/><path d="m72.18 84.83h-3.542l-.504-4.192h-5.02l-1.583 4.192h-3.798l7.939-19.333h3.661zm-8.08-6.844h3.747l-.847-8.469h-.042z"/><path d="m84.38 70.37c-1.052-.941-2.78-1.711-4.02-1.711-1.249 0-2.275.855-2.275 2.138 0 2.738 5.962 3.08 5.962 8.469 0 3.08-1.856 5.818-5.483 5.818-2.353 0-4.072-.685-5.518-1.797l.53-3.336c1.301 1.112 3.217 1.967 4.577 1.967 1.395 0 2.336-.855 2.336-2.138 0-3.165-5.972-3.508-5.972-8.555 0-3.251 2.43-5.731 5.706-5.731 1.566 0 3.234.513 4.637 1.539z"/><path d="m97.22 68.92h-6.664l-.565 4.534h5.877l-.385 3.166h-5.86l-.598 5.05h8.417l-.385 3.165h-11.856l2.275-19.08h10.129z"/><path d="m113.49 68.92h-5.27l-1.9 15.912h-3.44l1.9-15.912h-5.136l.386-3.165h13.84z"/></g><g stroke-width="1.394"><g fill="#fff"><path d="m116.45 0h-1.04s-4.67 13.895-30.1 13.895h-16.884l-1.446 11.657h49.47z"/><path d="m114.87 50.799c-10.92-9.306-37.454-4.365-37.454-4.365v-5.407h39.26v-11.77h-52.46l-3.691 27.944 19.276-.006c2.124-1.547 6.081-2.177 8.121-2.12 6.181.177 8.112 1.943 9.233 3.46 1.03 1.386 1.106 3.866 0 5.352-1.469 1.964-4.369 3.502-9.449 3.502-1.937 0-7.628-.291-10.272-4.697l-17.999-.008c0 11.309 12.705 15.16 18.206 16.304.495.102 12.267 2.468 25.714-.808 8.94-2.181 14.93-7.04 16.43-13.331 1.17-4.96-.66-10.22-4.92-14.05"/></g><path fill="#f5520f" d="m61.718 21.998c0-1.768-1.374-3.225-3.1-3.352.489-.583.796-1.345.796-2.183 0-1.853-1.492-3.355-3.356-3.355-.824 0-1.577.286-2.162.775l-.067.16v.043c-.116-1.698-1.541-3.04-3.279-3.04-1.733 0-3.137 1.33-3.276 3.02l-.073-.176c-.581-.477-1.324-.758-2.136-.758-1.845 0-3.354 1.503-3.354 3.359 0 .869.33 1.659.866 2.25-1.78.09-3.197 1.564-3.197 3.358 0 1.792 1.422 3.239 3.197 3.338-.503.588-.817 1.365-.817 2.197 0 1.854 1.51 3.362 3.356 3.362.794 0 1.523-.274 2.102-.734.187 1.674 1.599 2.98 3.332 2.98 1.784 0 3.226-1.383 3.346-3.127.59.504 1.354.809 2.19.809 1.86 0 3.354-1.511 3.354-3.364 0-.849-.313-1.616-.814-2.21l-.051.007c1.749-.107 3.143-1.572 3.143-3.355m-11.144 3.081c-1.71 0-3.074-1.385-3.074-3.084 0-1.7 1.364-3.084 3.074-3.084 1.707 0 3.09 1.384 3.09 3.084 0 1.699-1.383 3.084-3.09 3.084"/></g></svg>