<?xml version="1.0" encoding="UTF-8" standalone="no"?>
<svg xmlns:rdf="http://www.w3.org/1999/02/22-rdf-syntax-ns#" xmlns="http://www.w3.org/2000/svg" enable-background="new 0 0 86 32" xml:space="preserve" height="327.26" viewBox="0 0 600 327.25579" width="600" version="1.1" y="0px" x="0px" xmlns:cc="http://creativecommons.org/ns#" xmlns:dc="http://purl.org/dc/elements/1.1/"><rect clip-path="url(#SVGID_1323_)" height="218.18" width="600" y="109.08" x="0" stroke-width="26.643" fill="#0feb0f"/><rect clip-path="url(#SVGID_1323_)" height="109.1" width="436.39" y="0" x="0" stroke-width="26.643"/><g fill="#fff"><g stroke-width="26.643"><path d="m80.968 26.75c0.187-0.906 0.293-1.439 0.293-1.599 0-0.56-0.293-0.986-0.799-1.359-6.181-4.023-13.748-6.074-22.673-6.074-11.19 0-20.409 3.543-27.682 10.55-7.247 7.007-10.897 15.879-10.897 26.643 0 10.418 3.33 18.837 10.018 25.284 6.687 6.475 15.453 9.672 26.243 9.672 6.021 0 10.737-1.039 14.174-3.117 0.666-0.347 1.066-1.199 1.252-2.585 0 0 1.839-12.922 1.919-13.428 0.133-1.012-0.427-0.879-3.064-0.027-5.089 1.492-9.325 2.212-12.576 2.212-5.249 0-9.538-1.732-12.948-5.249-3.384-3.517-5.036-7.966-5.036-13.375 0-5.834 1.892-10.577 5.782-14.254 3.863-3.703 8.898-5.541 15.053-5.541 5.968 0 11.057 1.385 15.32 4.103 1.305 0.826 2.131 1.252 2.424 1.252 0.426 0 0.746-0.666 0.959-1.972z" clip-path="url(#SVGID_1323_)"/><path d="m132.42 21.501c-0.16-0.959-0.67-1.439-1.55-1.439h-20.57c-0.93 0-1.65 0.4-2.05 1.252l-31.731 64.21c-0.133 0.346-0.187 0.613-0.187 0.799 0 0.4 0.24 0.586 0.72 0.586h17.264c1.093 0 1.786-0.346 2.159-1.065l4.445-9.192c0.38-0.72 0.96-1.066 1.79-1.066h21.71c0.86 0 1.36 0.373 1.47 1.146l2.32 9.272c0.1 0.612 0.53 0.905 1.25 0.905h15.42c0.54 0 0.8-0.266 0.8-0.799v-0.346zm-10.87 39.138h-12.93c-0.42 0-0.61-0.106-0.61-0.266l0.19-0.56 8.66-19.609c0.16-0.346 0.32-0.559 0.42-0.613 0.19 0.107 0.35 0.4 0.46 0.88l4.58 18.996c0.1 0.48 0.16 0.746 0.16 0.799-0.06 0.24-0.35 0.373-0.93 0.373" clip-path="url(#SVGID_1323_)"/><path d="m154.18 86.03c0 0.613 0.54 0.906 1.55 0.906h14.89c0.83 0 1.31-0.426 1.44-1.252l5.33-38.153c0.13-0.773 0.21-1.146 0.27-1.146 0.21 0.134 0.45 0.427 0.72 0.906l21.84 38.419c0.48 0.826 1.17 1.253 2.13 1.253h15.24c0.99 0 1.6-0.347 1.68-1.066l8.93-64.822c0-0.667-0.4-0.986-1.17-0.986h-15.78c-1.06 0-1.68 0.426-1.78 1.332l-4.82 34.583c-0.11 0.905-0.3 1.358-0.46 1.358-0.18 0-0.45-0.319-0.8-0.986l-19.95-35.035c-0.51-0.853-1.2-1.252-2.16-1.252h-16.97c-0.8 0-1.31 0.399-1.41 1.145z" clip-path="url(#SVGID_1323_)"/><path d="m295.52 85.524-13.5-64.13c-0.16-0.906-0.67-1.332-1.6-1.332h-19.61c-0.96 0-1.6 0.4-1.95 1.146l-31.6 64.476c-0.15 0.346-0.26 0.639-0.26 0.799 0 0.32 0.24 0.453 0.72 0.453h17.13c0.88 0 1.52-0.32 1.86-0.986l4.83-9.351c0.34-0.667 0.96-0.986 1.86-0.986h20.57c1.07 0 1.71 0.479 1.89 1.412l1.68 8.659c0.21 0.826 0.75 1.252 1.71 1.252h15.24c0.69 0 1.06-0.186 1.06-0.533 0.05-0.426 0.03-0.719-0.03-0.879m-23.1-25.524c0 0.426-0.34 0.639-0.98 0.639h-12.04c-0.78 0-1.15-0.186-1.15-0.532 0-0.187 0.05-0.453 0.16-0.8l8.74-19.716c0.24-0.479 0.43-0.746 0.56-0.826 0.11 0.134 0.24 0.4 0.35 0.826l4.28 19.53c0 0.053 0.03 0.213 0.08 0.426z" clip-path="url(#SVGID_1323_)"/><path d="m313.43 20.062c-0.64 0-1.04 0.48-1.15 1.439l-9.3 64.716c0 0.479 0.3 0.719 0.8 0.719h37.46c0.75 0 1.2-0.346 1.34-1.066l1.78-13.108c0-0.586-0.32-0.906-0.91-0.906h-17.9c-0.72 0-1.09-0.32-1.09-0.959v-0.187l6.69-49.849c0-0.559-0.32-0.799-0.88-0.799z" clip-path="url(#SVGID_1323_)"/><path d="m391.2 61.705c0-0.773 0.37-1.172 1.14-1.172h22.15c0.61 0 0.95-0.347 0.95-1.066v-18.17c0-0.8-0.34-1.173-0.95-1.173h-22.41c-0.59 0-0.88-0.426-0.88-1.252v-20.595c0-0.586-0.43-0.879-1.17-0.879h-18.2c-0.59 0-0.88 0.293-0.88 0.879v20.595c0 0.826-0.37 1.252-1.07 1.252h-23.89c-0.67 0-0.99 0.32-0.99 0.986v18.277c0 0.773 0.37 1.146 1.07 1.146h23.73c0.78 0 1.18 0.453 1.18 1.359v23.978c0 0.72 0.34 1.066 0.96 1.066h18.3c0.61 0 0.99-0.426 0.99-1.252v-23.979z" clip-path="url(#SVGID_1323_)"/></g><polygon clip-path="url(#SVGID_1323_)" transform="matrix(26.643 0 0 26.643 -9251.6 -1856.5)" points="349.9 80.103 348.68 80.103 348.68 75.423 351.36 75.423 351.36 76.453 349.9 76.453 349.9 77.233 351.23 77.233 351.23 78.263 349.9 78.263"/><path d="m189.83 159.38-28.53 19.39-11.49-10.63 24.44-22.88zm-36.37 34.26v47.72c0 10.28 5.07 15.43 15.24 15.43 10.07 0 15.11-5.15 15.11-15.43v-47.72h29.95v53.31c0 10.47-3.33 18.6-9.99 24.44-7.62 6.66-19.4 9.99-35.23 9.99-17.23 0-29.6-3.97-37.08-11.91-5.31-5.65-7.97-13.14-7.97-22.52v-53.31z" clip-path="url(#SVGID_1323_)" stroke-width="26.643"/><polygon clip-path="url(#SVGID_1323_)" transform="matrix(26.643 0 0 26.643 -9251.6 -1856.5)" points="357.2 77.876 357.2 80.103 356.08 80.103 356.08 77.876 355.71 77.876 355.71 76.947 356.08 76.947 356.08 75.996 357.2 75.996 357.2 76.947 357.84 76.947 357.84 77.876"/><g stroke-width="26.643"><path d="m338.85 216.53c-5.31 0-9.86 1.89-13.67 5.67-3.73 3.73-5.6 8.24-5.6 13.48 0 5.31 1.87 9.81 5.6 13.49 3.81 3.78 8.39 5.67 13.83 5.67 5.35 0 9.93-1.89 13.8-5.67 3.67-3.76 5.51-8.21 5.51-13.41 0-5.24-1.86-9.77-5.59-13.56-3.73-3.78-8.37-5.67-13.88-5.67m-18.44-63.49v48.86c6.77-7.3 15.61-10.95 26.54-10.95 11.64 0 21.5 4.05 29.52 12.18 8.6 8.6 12.92 19.39 12.92 32.37 0 13-4.32 23.84-12.92 32.58-8.1 8.21-18.07 12.34-29.84 12.34-5.76 0-11.19-1.23-16.39-3.65-3.14-1.52-6.42-4.32-9.83-8.4v9.36h-29.95v-124.69z" clip-path="url(#SVGID_1323_)"/><path d="m448.88 216.18c-5.19 0-9.7 1.89-13.48 5.7-3.81 3.73-5.7 8.21-5.7 13.48 0 5.47 1.89 10.08 5.7 13.89 3.73 3.73 8.26 5.59 13.56 5.59 5.36 0 9.89-1.89 13.64-5.67 3.79-3.76 5.68-8.29 5.68-13.67 0-5.33-1.87-9.89-5.6-13.62-3.73-3.81-8.34-5.7-13.8-5.7m0.32-25.74c10.76 0 20.44 2.46 28.99 7.33 6.98 4 12.36 9.3 16.14 15.91 3.79 6.55 5.68 13.88 5.68 22 0 12.21-4.08 22.46-12.26 30.67-4.63 4.61-10.31 8.15-16.86 10.66-6.85 2.58-14.18 3.89-22.01 3.89-16.04 0-28.91-4.88-38.66-14.6-8.15-8.13-12.25-18.12-12.25-29.98 0-12.55 4.23-23.07 12.68-31.57 9.4-9.54 22.27-14.31 38.55-14.31" clip-path="url(#SVGID_1323_)"/><rect clip-path="url(#SVGID_1323_)" height="124.69" width="29.947" y="153.04" x="512.82"/></g></g></svg>
