<svg xmlns="http://www.w3.org/2000/svg" viewBox="0 0 533 263"><path d="m166.05 99.57l-93.21 38.797 21.16 51.39 90.19-39.3z" fill="#fff"/><g fill="#7b7c7e"><path d="m151.2 263c-8.941 0-12.692-7.708-12.692-23.881 0-17.394 4.368-26.13 13.309-26.13 7.643 0 11.806 5.794 11.806 16.918v1.092h-9.146v-2.248c0-5.729-.552-8.53-2.8-8.53-3.199 0-3.61 6.14-3.61 19.513 0 10.238.475 15 3.674 15 2.466 0 3.481-3.404 3.481-10.431v-.681h8.26c-.206 12.962-4.226 19.372-12.281 19.372"/><path d="m171.33 213.94h12.345l6.218 48.17h-8.324l-1.375-10.303h-6.886l-1.233 10.303h-7.566l6.821-48.17m7.913 29.957l-2.518-21.35-2.531 21.35h5.05"/><path d="m192.47 213.94h8.53l5.794 16.918c1.092 3.212 2.055 6.282 2.466 9.352v-26.27h7.502v48.17h-7.232l-6.616-18.627c-1.169-3.212-2.261-6.423-2.942-9.763v28.39h-7.502v-48.17"/><path d="m226.25 213.94h12.345l6.218 48.17h-8.324l-1.375-10.303h-6.886l-1.233 10.303h-7.566l6.821-48.17m7.913 29.957l-2.518-21.35-2.531 21.35h5.05"/><path transform="matrix(12.84616 0 0 12.84616-413.77-2278.57)" d="m53.09 197.16v.62h-1.62v-3.75h.72v3.13z"/></g><g fill="#fff"><path transform="matrix(12.84616 0 0 12.84616-413.77-2278.57)" d="m54.708 196.15v1.63h-.722v-3.75h.722v1.51h.422v-1.51h.726v3.75h-.726v-1.63z"/><path d="m321.42 213.05c9.48 0 13.167 8.119 13.167 24.973 0 16.854-3.623 24.973-13.1 24.973-9.827 0-13.514-7.977-13.514-24.973.013-16.983 3.635-24.973 13.45-24.973m3.417 26.681c0-12.962-.27-18.897-3.481-18.897-3.404 0-3.61 5.524-3.61 17.535 0 11.459.334 16.584 3.687 16.584 2.788 0 3.404-4.984 3.404-15.223"/><g transform="matrix(12.84616 0 0 12.84616-413.77-2278.57)"><path d="m60.21 197.16v.62h-1.62v-3.75h.72v3.13z"/><path d="m61.99 197.16v.62h-1.62v-3.75h.72v3.13z"/><path d="m63.934 194.03l-.734 2.23v1.52h-.73v-1.52l-.623-2.23h.723l.355 1.41.425-1.41z"/></g><path d="m416.13 213.94l1.914 20.4c.334 3.276.54 6.552.681 9.827.206-4.496.822-7.913 1.156-10.303l2.865-19.924h8.53l2.865 19.924c.283 2.043.886 5.46 1.092 10.303.206-4.779.475-8.05.681-9.827l2.595-20.4h6.886l-6.744 48.17h-8.401l-2.929-22.17c-.54-4.239-.886-8.26-1.028-12.08 0 4.56-.745 8.53-1.297 12.08l-3.263 22.17h-8.53l-5.537-48.17h8.466"/><path d="m460.53 213.05c9.493 0 13.167 8.119 13.167 24.973 0 16.854-3.61 24.973-13.09 24.973-9.827 0-13.514-7.977-13.514-24.973 0-16.983 3.623-24.973 13.437-24.973m3.417 26.681c0-12.962-.27-18.897-3.481-18.897-3.404 0-3.61 5.524-3.61 17.535 0 11.459.334 16.584 3.674 16.584 2.8 0 3.417-4.984 3.417-15.223"/><path d="m490.42 213.05c9.493 0 13.167 8.119 13.167 24.973 0 16.854-3.61 24.973-13.09 24.973-9.827 0-13.514-7.977-13.514-24.973 0-16.983 3.623-24.973 13.437-24.973m3.417 26.681c0-12.962-.27-18.897-3.481-18.897-3.417 0-3.61 5.524-3.61 17.535 0 11.459.334 16.584 3.674 16.584 2.8 0 3.417-4.984 3.417-15.223"/><path d="m507.82 213.95h10.226c11.6 0 14.953 7.155 14.953 24.07 0 16.995-3.276 24.09-14.953 24.09h-10.226v-48.16m9.275 40.18c.347.064.745.064 1.028.064 4.779 0 5.113-4.637 5.113-15.08 0-8.517-.141-13.501-1.156-15.15-.886-1.362-2.325-2.043-4.368-2.043h-.617v32.21"/></g><path d="m73.25 0l7.656 112.56-80.906 40.44 83 15.09 13.5 94.91 42.906-75.19 105.59 12.938-65.28-71.31 83.28-125.31-121.62 75.16-68.12-79.28m83.81 108.53c6.908-.105 11.567 5.817 16.625 18.03 6.5 15.698 6.184 23.53-4.594 28l-9.438 3.906-18.438-44.5 9.469-3.938c2.344-.969 4.441-1.471 6.375-1.5m-18.813 6.688l12.219 47.06-7.781 3.219-11.188-19.375c-2.12-3.7-3.97-7.269-5.563-10.75 1.747 4.226 2.577 8.175 3.438 11.656l5.438 21.719-7.875 3.281-23.531-42.37 7.813-3.25 9.563 18.12c1.567 2.89 3.03 5.845 4.406 8.813-1.529-4.239-2.284-7.631-2.875-9.969l-5-19.5 7.875-3.25 10.281 17.281c1.041 1.786 2.908 4.7 4.938 9.09-1.631-4.483-2.606-7.591-3.094-9.313l-5.406-19.844 6.344-2.625m17.16 1.813c-.627.052-1.292.237-2 .531l-.563.219 12.313 29.75c.347-.064.712-.21.969-.313 4.406-1.837 2.964-6.272-1.031-15.906-3.263-7.888-5.295-12.414-6.875-13.531-.835-.578-1.767-.837-2.813-.75m-54.969 13.844l18.438 44.5-8.563 3.563-8-19.313-5.063 2.094 8 19.313-8.563 3.531-18.438-44.5 8.563-3.563 7.406 17.906 5.063-2.094-7.406-17.875 8.563-3.563" fill="#009dd5"/></svg>