<svg xmlns="http://www.w3.org/2000/svg" height="391.19" width="600" viewBox="0 0 158.75 103.50209"><defs><linearGradient id="0" gradientUnits="userSpaceOnUse" x1="84.08" x2="120.95"><stop stop-color="#76cb4e"/><stop stop-color="#4cbe53" offset="1"/></linearGradient><linearGradient id="1" gradientUnits="userSpaceOnUse" x1="51.12" x2="116.78"><stop stop-color="#a0da80"/><stop stop-color="#7dcf80" offset="1"/></linearGradient></defs><g transform="translate(.756-120.52)"><g fill="#4abd53"><path d="m10.624 219.24c-.684 2.77-2.328 4.78-5.423 4.78-4.227 0-5.957-4.08-5.957-7.69 0-3.78 1.858-7.38 6.106-7.38 2.946 0 4.676 1.98 5.274 4.67l-1.73.32c-.512-1.86-1.43-3.46-3.608-3.46-3.181 0-4.04 3.46-4.04 6 0 1.16.192 2.59.683 3.65.598 1.31 1.729 2.35 3.267 2.35 2.242 0 3.288-1.69 3.758-3.61l1.666.37"/><path d="m18.18 218.34h-1.388c-1.708 0-4.398.23-4.398 2.48 0 1.34 1.153 1.9 2.348 1.9 2.05 0 3.438-1.75 3.438-3.68zm0-1.26v-.47c0-1.9-.833-2.63-2.754-2.63-1.367 0-2.669.43-2.968 1.93l-1.558-.26c.298-2.26 2.69-2.97 4.675-2.97 1.174 0 2.519.13 3.331 1.07.896.96.896 2.33.896 3.56v4.21c0 .79.022 1.58.235 2.29h-1.665l-.192-2.03c-.769 1.56-2.071 2.24-3.8 2.24-2.029 0-3.779-1.13-3.779-3.29 0-1.3.811-2.48 2.01-3.01 1.217-.58 2.819-.64 4.164-.64h1.409"/><path d="m22.579 214.97h.042c.619-1.35 1.836-2.29 3.373-2.29 1.303 0 2.392.56 3.075 1.69.555.92.513 2.37.513 3.44v6h-1.666v-6.71c0-.64.021-1.45-.299-2.01-.363-.61-1.153-.98-1.857-.98-.876 0-1.665.41-2.242 1.09-.705.86-.854 1.84-.854 2.93v5.68h-1.665v-10.85h1.58v2.01"/><path d="m37.651 218.34h-1.388c-1.708 0-4.398.23-4.398 2.48 0 1.34 1.153 1.9 2.349 1.9 2.049 0 3.437-1.75 3.437-3.68zm0-1.26v-.47c0-1.9-.833-2.63-2.754-2.63-1.366 0-2.669.43-2.968 1.93l-1.558-.26c.299-2.26 2.69-2.97 4.675-2.97 1.175 0 2.52.13 3.331 1.07.897.96.897 2.33.897 3.56v4.21c0 .79.021 1.58.234 2.29h-1.665l-.192-2.03c-.769 1.56-2.071 2.24-3.8 2.24-2.029 0-3.779-1.13-3.779-3.29 0-1.3.811-2.48 2.01-3.01 1.217-.58 2.818-.64 4.163-.64h1.409"/><path d="m40.725 223.81h1.665v-14.65h-1.665z"/><path d="m46.745 218.81c.384 1.3 1.367 1.77 2.669 1.77.577 0 1.73-.08 1.73-.9 0-.89-1.132-1.06-1.794-1.19-2.754-.53-6.02-1.28-6.02-4.76 0-1.43.705-2.84 1.879-3.67 1.196-.84 2.754-1.11 4.206-1.11 2.541 0 4.996 1.04 5.893 3.58l-3.715 1.13c-.427-1.09-1.239-1.47-2.37-1.47-.598 0-1.452.17-1.452.94s1.068.92 1.623 1.05c1.388.27 2.861.51 4.142 1.17 1.43.77 2.177 2.14 2.177 3.74 0 3.52-3.501 4.93-6.533 4.93-3.074 0-5.807-1.28-6.597-4.46l4.163-.75"/><path d="m62.757 223.81v-1.8h-.043c-.448 1.41-1.899 2.01-3.309 2.01-.896 0-1.772-.21-2.433-.83-.769-.77-.855-1.73-.855-2.76v-7.53h4.228v6.59c0 .71-.022 1.45.939 1.45.427 0 .833-.23 1.025-.61.192-.37.213-.75.213-1.16v-6.27h4.228v10.91h-3.993"/><path d="m71.38 215.14c.363-1.52 1.153-2.59 2.839-2.46l.577.05v3.82c-.256-.07-.534-.11-.811-.11-.683 0-1.388.13-1.73.75-.299.53-.299 1.24-.299 1.88v4.74h-4.227v-10.91h3.608v2.24h.043"/><path d="m80.78 211.12l-2.263 7.03h4.505zm5.999 12.69h-1.879l-1.473-4.27h-5.423l-1.302 4.27h-1.537l4.739-14.65h2.114l4.761 14.65"/><path d="m89.27 214.97h.043c.619-1.35 1.835-2.29 3.373-2.29 1.302 0 2.392.56 3.074 1.69.556.92.513 2.37.513 3.44v6h-1.665v-6.71c0-.64.021-1.45-.3-2.01-.362-.61-1.152-.98-1.857-.98-.875 0-1.665.41-2.242 1.09-.704.86-.854 1.84-.854 2.93v5.68h-1.665v-10.85h1.58v2.01"/><path d="m105.45 217.38c0-.75-.1-1.52-.55-2.16-.53-.77-1.49-1.21-2.43-1.21s-1.75.57-2.2 1.36c-.494.86-.644 1.84-.644 2.82 0 1.77.474 4.44 2.794 4.44.96 0 1.84-.53 2.39-1.3.52-.71.64-1.41.64-2.22zm0-8.22h1.67v14.65h-1.52v-1.93h-.04c-.68 1.37-1.79 2.14-3.39 2.14-1.43 0-2.522-.68-3.312-1.84-.748-1.11-1.025-2.47-1.025-3.8 0-2.71 1.345-5.7 4.487-5.7 1.38 0 2.37.66 3.13 1.75v-5.27"/><path d="m116.21 218.34h-1.38c-1.71 0-4.4.23-4.4 2.48 0 1.34 1.15 1.9 2.35 1.9 2.05 0 3.43-1.75 3.43-3.68zm0-1.26v-.47c0-1.9-.83-2.63-2.75-2.63-1.37 0-2.67.43-2.97 1.93l-1.56-.26c.3-2.26 2.69-2.97 4.68-2.97 1.17 0 2.52.13 3.33 1.07.9.96.9 2.33.9 3.56v4.21c0 .79.02 1.58.23 2.29h-1.66l-.2-2.03c-.76 1.56-2.07 2.24-3.79 2.24-2.03 0-3.78-1.13-3.78-3.29 0-1.3.81-2.48 2-3.01 1.22-.58 2.82-.64 4.17-.64h1.4"/><path d="m120.36 223.81h1.66v-14.65h-1.66z"/><path d="m133.02 223.81h-1.52v-2.16h-.04c-.54 1.34-1.84 2.37-3.33 2.37-1.07 0-2.1-.39-2.78-1.22-.72-.89-.85-2.13-.85-3.24v-6.6h1.66v6.6c0 .62.05 1.43.37 1.98.32.6 1.06 1.03 1.75 1.03.89 0 1.66-.41 2.24-1.11.66-.81.83-1.71.83-2.74v-5.76h1.67v10.85"/><path d="m143.35 220.22c-.39 2.2-1.86 3.8-4.19 3.8-3.22 0-4.61-2.8-4.61-5.64 0-2.82 1.41-5.7 4.64-5.7 2.34 0 3.8 1.52 4.16 3.76l-1.54.28c-.15-1.43-1.02-2.63-2.58-2.63-2.26 0-2.9 2.37-2.9 4.19 0 1.75.53 4.31 2.79 4.31 1.62 0 2.41-1.18 2.69-2.65l1.54.28"/><path d="m146.74 223.81h-1.66v-10.85h1.66zm-1.49-11.9l-.43-.85 4.29-2.54.73 1.39-4.59 2"/><path d="m156.14 218.34h-1.39c-1.71 0-4.4.23-4.4 2.48 0 1.34 1.15 1.9 2.35 1.9 2.05 0 3.44-1.75 3.44-3.68zm0-1.26v-.47c0-1.9-.84-2.63-2.76-2.63-1.36 0-2.67.43-2.96 1.93l-1.56-.26c.3-2.26 2.69-2.97 4.67-2.97 1.18 0 2.52.13 3.33 1.07.9.96.9 2.33.9 3.56v4.21c0 .79.02 1.58.23 2.29h-1.66l-.19-2.03c-.77 1.56-2.07 2.24-3.8 2.24-2.03 0-3.78-1.13-3.78-3.29 0-1.3.81-2.48 2-3.01 1.22-.58 2.82-.64 4.17-.64h1.41"/></g><path d="m112.74 194.42l-61.62-12.32 8.215-57.5 22.495-1.5 34.946 34.94-4.04 36.38" fill="url(#1)"/><g fill="#fff"><path d="m81.63 168.02c-1.601 5.18-6.539 4.99-6.539 4.99-3.739 0-6.768-3.03-6.768-6.77s3.03-6.77 6.768-6.77c0 0 4.938-.19 6.539 4.99l6.233-2.85c-3.686-9.27-12.772-8.91-12.772-8.91-7.476 0-13.539 6.06-13.539 13.54 0 7.47 6.06 13.53 13.539 13.53 0 0 9.09.36 12.772-8.9l-6.233-2.85"/><path d="m78.47 149.49v-15.32h-6.768v15.32c3.384-.8 6.768 0 6.768 0"/><path d="m71.7 182.98v15.32h6.768v-15.32c-3.384.81-6.768 0-6.768 0"/><path d="m58.34 162.85h-15.324v6.77h15.324c-.811-3.38 0-6.77 0-6.77"/><path d="m91.83 162.85c.809 3.39 0 6.77 0 6.77h15.319v-6.77h-15.319"/><path d="m89.32 156.79l10.83-10.83-4.783-4.79-10.835 10.83c2.965 1.83 4.788 4.79 4.788 4.79"/><path d="m60.854 175.68-10.836 10.84 4.786 4.78 10.836-10.83c-2.964-1.82-4.786-4.79-4.786-4.79"/><path d="m65.64 152-10.836-10.83-4.786 4.79 10.836 10.83c1.822-2.96 4.786-4.79 4.786-4.79"/><path d="m84.53 180.47l10.835 10.83 4.783-4.78-10.83-10.84c-1.823 2.97-4.788 4.79-4.788 4.79"/></g><path d="m116.98 155.91v-.06h-.06v-.05h-.05v-.06h-.06v-.05h-.05v-.06h-.06v-.05h-.05v-.06h-.06v-.05h-.05v-.06h-.06v-.05h-.05v-.06h-.06v-.05h-.05v-.05h-.06v-.06h-.05v-.05h-.06v-.06h-.05v-.05h-.06v-.06h-.05v-.05h-.06v-.06h-.05v-.05h-.05v-.06h-.06v-.05h-.05v-.06h-.06v-.05h-.05v-.06h-.06v-.05h-.05v-.06h-.06v-.05h-.05v-.06h-.06v-.05h-.05v-.06h-.06v-.05h-.05v-.06h-.06v-.05h-.05v-.05h-.06v-.06h-.05v-.05h-.06v-.06h-.05v-.05h-.06v-.06h-.05v-.05h-.06v-.06h-.05v-.05h-.05v-.06h-.06v-.05h-.05v-.06h-.06v-.05h-.05v-.06h-.06v-.05h-.05v-.06h-.06v-.05h-.05v-.06h-.06v-.05h-.05v-.06h-.06v-.05h-.05v-.06h-.06v-.05h-.05v-.05h-.06v-.06h-.05v-.05h-.06v-.06h-.05v-.05h-.06v-.06h-.05v-.05h-.06v-.06h-.05v-.05h-.05v-.06h-.06v-.05h-.05v-.06h-.06v-.05h-.05v-.06h-.06v-.05h-.05v-.06h-.06v-.05h-.05v-.06h-.06v-.05h-.05v-.06h-.06v-.05h-.05v-.06h-.06v-.05h-.05v-.05h-.06v-.06h-.05v-.05h-.06v-.06h-.05v-.05h-.06v-.06h-.05v-.05h-.06v-.06h-.05v-.05h-.05v-.06h-.06v-.05h-.05v-.06h-.06v-.05h-.05v-.06h-.06v-.05h-.05v-.06h-.06v-.05h-.05v-.06h-.06v-.05h-.05v-.06h-.06v-.05h-.05v-.06h-.06v-.05h-.05v-.05h-.06v-.06h-.05v-.05h-.06v-.06h-.05v-.05h-.06v-.06h-.05v-.05h-.06v-.06h-.05v-.05h-.05v-.06h-.06v-.05h-.05v-.06h-.06v-.05h-.05v-.06h-.06v-.05h-.05v-.06h-.06v-.05h-.05v-.06h-.06v-.05h-.05v-.06h-.06v-.05h-.05v-.06h-.06v-.05h-.05v-.05h-.06v-.06h-.05v-.05h-.06v-.06h-.05v-.05h-.06v-.06h-.05v-.05h-.06v-.06h-.05v-.05h-.05v-.06h-.06v-.05h-.05v-.06h-.06v-.05h-.05v-.06h-.06v-.05h-.05v-.06h-.06v-.05h-.05v-.06h-.06v-.05h-.05v-.06h-.06v-.05h-.05v-.06h-.06v-.05h-.05v-.05h-.06v-.06h-.05v-.05h-.06v-.06h-.05v-.05h-.06v-.06h-.05v-.05h-.06v-.06h-.05v-.05h-.05v-.06h-.06v-.05h-.05v-.06h-.06v-.05h-.05v-.06h-.06v-.05h-.05v-.06h-.06v-.05h-.05v-.06h-.06v-.05h-.05v-.06h-.06v-.05h-.05v-.06h-.06v-.05h-.05v-.05h-.06v-.06h-.05v-.05h-.06v-.06h-.05v-.05h-.06v-.06h-.05v-.05h-.06v-.06h-.05v-.05h-.05v-.06h-.06v-.05h-.05v-.06h-.06v-.05h-.05v-.06h-.06v-.05h-.05v-.06h-.06v-.05h-.05v-.06h-.06v-.05h-.05v-.06h-.06v-.05h-.05v-.06h-.06v-.05h-.05v-.05h-.06v-.06h-.05v-.05h-.06v-.06h-.05v-.05h-.06v-.06h-.05v-.05h-.06v-.06h-.05v-.05h-.05v-.06h-.06v-.05h-.05v-.06h-.06v-.05h-.05v-.06h-.06v-.05h-.05v-.06h-.06v-.05h-.05v-.06h-.06v-.05h-.05v-.06h-.06v-.05h-.05v-.06h-.06v-.05h-.05v-.06h-.06v-.05h-.05v-.05h-.06v-.06h-.05v-.05h-.06v-.06h-.05v-.05h-.06v-.06h-.05v-.05h-.06v-.06h-.05v-.05h-.05v-.06h-.06v-.05h-.05v-.06h-.06v-.05h-.05v-.06h-.06v-.05h-.05v-.06h-.06v-.05h-.05v-.06h-.06v-.05h-.05v-.06h-.06v-.05h-.05v-.06h-.06v-.05h-.05v-.05h-.06v-.06h-.05v-.05h-.06v-.06h-.05v-.05h-.06v-.06h-.05v-.05h-.06v-.06h-.05v-.05h-.05v-.06h-.06v-.05h-.05v-.06h-.06v-.05h-.05v-.06h-.06v-.05h-.05v-.06h-.06v-.05h-.05v-.06h-.06v-.05h-.05v-.06h-.06v-.05h-.05v-.06h-.06v-.05h-.05v-.05h-.06v-.06h-.05v-.05h-.06v-.06h-.05v-.05h-.06v-.06h-.05v-.05h-.06v-.06h-.05v-.05h-.05v-.06h-.06v-.05h-.05v-.06h-.06v-.05h-.05v-.06h-.06v-.05h-.05v-.06h-.06v-.05h-.05v-.06h-.06v-.05h-.05v-.06h-.06v-.05h-.05v-.06h-.06v-.05h-.05v-.05h-.06v-.06h-.05v-.05h-.06v-.06h-.05v-.05h-.06v-.06h-.05v-.05h-.06v-.06h-.05v-.05h-.05v-.06h-.06v-.05h-.05v-.06h-.06v-.05h-.05v-.06h-.06v-.05h-.05v-.06h-.06v-.05h-.05v-.06h-.06v-.05h-.05v-.06h-.057v-.05h-.055v-.06h-.055v-.05h-.055v-.05h-.054v-.06h-.055v-.05h-.055v-.06h-.055v-.05h-.055v-.06h-.054v-.05h-.055v-.06h-.055v-.05h-.055v-.06h-.055v-.05h-.054v-.06h-.055v-.05h-.055v-.06h-.055v-.05h-.054v-.06h-.055v-.05h-.055v-.06h-.055v-.05h-.055v-.06h-.054v-.05h-.055v-.06h-.055v-.05h-.055v-.05h-.055v-.06h-.054v-.05h-.055v-.06h-.055v-.05h-.055v-.06h-.054v-.05h-.055v-.06h-.055v-.05h-.055v-.06h-.055v-.05h-.054v-.06h-.055v-.05h-.055v-.06h-.055v-.05h-.055v-.06h-.054v-.05h-.055v-.06h-.055v-.05h-.055v-.06h-.054v-.05h-.055v-.06h-.055v-.05h-.055v-.05h-.055v-.06h-.054v-.05h-.055v-.06h-.055v-.05h-.055v-.06h-.054v-.05h-.055v-.06h-.055v-.05h-.055v-.06h-.055v-.05h-.054v-.06h-.055v-.05h-.055v-.06h-.055v-.05h-.055v-.06h-.054v-.05h-.055v-.06h-.055v-.05h-.055v-.06h-.054v-.05h-.055v-.06h-.055v-.05h-.055v-.05h-.055v-.06h-.054v-.05h-.055v-.06h-.055v-.05h-.055v-.06h-.055v-.05h-.054v-.06h-.055v-.05h-.055v-.06h-.055v-.05h-.054v-.06h-.055v-.05h-.055v-.06h-.055v-.05h-.055v-.06h-.054v-.05h-.055v-.06h-.055v-.05h-.055v-.06h-.055v-.05h-.054v-.06h-.055v-.05h-.055v-.05h-.055v-.06h-.054v-.05h-.055v-.06h-.055v-.05h-.055v-.06h-.055v-.05h-.054v-.06h-.055v-.05h-.055v-.06h-.055v-.05h-.054v-.06h-.055v-.05h-.055v-.06h-.055v-.05h-.055v-.06h-.054v-.05h-.055v-.06h-.055v-.05h-.055v-.06h-.055v-.05h-.054v-.06h-.055v-.05h-.055v-.05h-.055v-.06h-.054v-.05h-.055v-.06h-.055v-.05h-.055v-.06h-.055v-.05h-.054v-.06h-.055v-.05h-.055v-.06h-.055v-.05h-.055v-.06h-.054v-.05h-.055v-.06h-.055v-.05h-.055v-.06h-.054v-.05h-.055v-.06h-.055v-.05h-.055v-.06h-.055v-.05h-.054v-.06h-.055v-.05h-.055v-.06h-.055v-.05h-.055v-.05h-.054v-.06h-.055v-.05h-.055v-.06h-.055v-.05h-.054v-.06h-.055v-.05h-.055v-.06h-.055v-.05h-.055v-.06h-.054v-.05h-.055v-.06h-.055v-.05h-.055v-.06h-.054v-.05h-.055v-.06h-.055v-.05h-.055v-.06h-.055v-.05h-.054v-.06h-.055v-.05h-.055v-.06h-.055v-.05h-.055v-.05h-.054v-.06h-.055v-.05h-.055v-.06h-.055v-.05h-.054v-.06h-.055v-.05h-.055v-.06h-.055v-.05h-.055v-.06h-.054v-.05h-.055v-.06h-.055v-.05h-.055v-.06h-.055v-.05h-.054v-.06h-.055v-.05h-.055v-.06h-.055v-.05h-.054v-.06h-.055v-.05h-.055v-.06h-.055v-.05h-.055v-.05h-.054v-.06h-.055v-.05h-.055v-.06h-.055v-.05h-.055v-.06h-.054v-.05h-.055v-.06h-.055v-.05h-.055v-.06h-.054v-.05h-.055v-.06h-.055v-.05h-.055v-.06h-.055v-.05h-.054v-.06h-.055v-.05h-.055v-.06h-.055v-.05h-.055v-.06h-.054v-.05h-.055v-.06h-.055v-.05h-.055v-.05h-.054v-.06h-.055v-.05h-.055v-.06h-.055v-.05h-.055v-.06h-.054v-.05h-.055v-.06h-.055v-.05h-.055v-.06h-.054v-.05h-.055v-.06h-.055v-.05h-.055v-.06h-.055v-.05h-.054v-.06h-.055v-.05h-.055v-.06h-.055v-.05h-.055v-.06h-.054v-.05h-.055v-.06h-.055v-.05h-.055v-.05h-.054v-.06h-.055v-.05h-.055v-.06h-.055v-.05h-.055v-.06h-.054v-.05h-.055v-.06h-.055v-.05h-.055v-.06h-.055v-.05h-.054v-.06h-.055v-.05h-.055v-.06h-.055v-.05h-.054v-.06h-.055v-.05h-.055v-.06h-.055v-.05h-.055v-.06h-.054v-.05h-.055v-.06h-.055v-.05h-.055v-.05h-.055v-.06h-.054v-.05h-.055v-.06h-.055v-.05h-.055v-.06h-.054v-.05h-.055v-.06h-.055v-.05h-.055v-.06h-.055v-.05h-.054v-.06h-.055v-.05h-.055v-.06h-.055v-.05h-.054v-.06h-.055v-.05h-.055v-.06h-.055v-.05h-.055v-.06h-.054v-.05h-.055v-.06h-.055v-.05h-.055v-.05h-.055v-.06h-.054v-.05h-.055v-.06h-.055v-.05h-.055v-.06h-.054v-.05h-.055v-.06h-.055v-.05h-.055v-.06h-.055v-.05h.329v-.06h.822v-.05h.822v-.06h.821v-.05h.822v-.06h.822v-.05h.822v-.06h.821v-.05h.822v-.06h.822v-.05h.822v-.06h.822v-.05h.821v-.05h.822v-.06h.822v-.05h.822v-.06h.821v-.05h.822v-.06h.822v-.05h.822v-.06h.817v-.05h.83v-.06h.82v-.05h.82v-.06h.82v-.05h.82v-.06h.83v-.05h.82v-.06h.82v-.05h.82v-.06h.82v-.05h.82v-.06h.83v-.05h.82v-.06h.82v-.05h.82v-.05h.82v-.06h.82v-.05h.83v-.06h.82v-.05h.82v-.06h.82v-.05h.82v-.06h.83v-.05h1.26v.27h-.06v.49h-.05v.5h-.06v.49h-.05v.49h-.06v.5h-.05v.49h-.06v.49h-.05v.5h-.06v.49h-.05v.49h-.06v.49h-.05v.5h-.06v.49h-.05v.49h-.06v.5h-.05v.49h-.06v.49h-.05v.5h-.06v.49h-.05v.49h-.06v.49h-.05v.5h-.05v.49h-.06v.49h-.05v.5h-.06v.49h-.05v.49h-.06v.5h-.05v.49h-.06v.49h-.05v.5h-.06v.49h-.05v.49h-.06v.49h-.05v.5h-.06v.49h-.05v.49h-.06v.5h-.05v.49h-.06v.49h-.05v.5h-.06v.49h-.05v.49h-.06v.5h-.05v.49h-.05v.49h-.06v.49h-.05v.5h-.06v.49h-.05v.49h-.06v.5h-.05v.49h-.06v.49h-.05v.5h-.06v.49h-.05v.49h-.06v.5h-.05v.49h-.06v.49h-.05v.49h-.06v.5h-.05v.49h-.06v.49h-.05v.5h-.06v.49h-.05v.49h-.06v.5h-.05v.49h-.06v.49h-.05v.49h-.05v.5h-.06v.11" fill="url(#0)"/><path d="m106.67 135.35l1.84-6.31.52-1.94h.07l.49 1.94 1.77 6.31zm4.89-11.37h-4.94l-5.53 16.02 2.39 2.39h1.16l1.03-3.58h6.67l1.03 3.58h4.62l-6.43-18.41" fill="#fff"/></g></svg>