<svg xmlns="http://www.w3.org/2000/svg" viewBox="0 0 600 167.62"><defs><clipPath id="0"><path d="m42.35 400.36h25.794v6.02h-25.794v-6.02"/></clipPath><clipPath id="1"><path d="m44.1 400.36h21.563v6.02h-21.563v-6.02"/></clipPath></defs><g transform="translate(-437.14-657.12)"><g clip-path="url(#0)" transform="matrix(27.82544 0 0-27.82544-789.85 11964.83)"><path d="m50.968 402.68h3.171v3.699h-3.171v-3.699" fill="#254aa5"/></g><g clip-path="url(#1)" transform="matrix(27.82544 0 0-27.82544-789.85 11964.83)"><path d="m48.33 402.68h2.643v3.699h-2.643v-3.699" fill="#2787d0"/><path d="m0 0h-2.643l-.002 3.7h2.644v-3.7" fill="#3f3f48" transform="translate(46.74 402.15)"/></g><g clip-path="url(#0)" transform="matrix(27.82544 0 0-27.82544-789.85 11964.83)"><path d="m57.31 402.68h2.643v3.7h-2.643v-3.7" fill="#d9058d"/><path d="m55.725 402.31h1.586v3.541h-1.586v-3.541" fill="#aa157a"/><path d="m54.14 402.31h1.586v3.541h-1.586v-3.541" fill="#632390"/><path d="m46.74 402.15h1.586v3.7h-1.586v-3.7" fill="#4b6889"/><g fill="#fff"><path d="m0 0c-.008-.003-.017-.005-.017-.005.012.005-.141-.071-.333-.085-.174-.009-.34.039-.447.132-.159.133-.232.355-.161.62.079.299.341.418.566.432 0 0 .296.022.55-.158.04-.025.045-.023.045-.023 0 0 .011.009.014.026l.079.414c.012.045.009.051.009.051 0 0-.006.011-.048.039-.085.057-.197.093-.197.093-.102.034-.35.113-.686.065-.262-.034-.53-.18-.701-.386-.071-.088-.362-.499-.215-1.076.099-.387.409-.686.897-.74 0 0 .301-.036.573.074.019.006.03.017.03.017 0 0 .011.017.014.039l.079.454c.006.025-.003.034-.003.034 0 0-.008.003-.048-.017" transform="translate(46.29 403.86)"/><path d="m0 0c0 0-.002-.003-.005-.003l-.406.003c-.014 0-.017.003-.017.003 0 0-.002.005.003.014l.276.626c.003.006.006.006.006.006 0 0 .003 0 .003-.006l.14-.632c.003-.008 0-.011 0-.011m.251 1.226c0 0-.008.009-.02.009h-.633-.019c0 0-.008-.003-.013-.014l-.992-1.995c-.006-.011-.003-.019-.003-.019 0 0 .003-.008.019-.005h.572c.009 0 .017.005.017.005 0 0 .003.003.008.014l.138.296c.008.019.019.027.019.027 0 0 .009.011.023.011h.693.008c0 0 .006-.002.006-.011l.077-.318c.003-.019.005-.022.005-.022 0 0 .009-.004.02-.004h.491c.007 0 .009.004.009.004 0 0 .005.003.005.011l-.425 2c-.003.008-.005.011-.005.011" transform="translate(47.833 404.11)"/><path d="m0 0c0 0-.002.006-.014.006h-.527c-.009 0-.011-.003-.011-.003 0 0-.006-.003-.006-.011l-.16-1.105c-.006-.025-.014-.025-.014-.025 0 0-.008-.003-.019.019l-.632 1.111c-.004.008-.001.011-.001.011 0 0-.005.005-.012.005h-.562c-.008 0-.016-.008-.016-.008 0 0-.006-.003-.008-.014l-.277-1.98c-.002-.011.009-.022.009-.022 0 0 .005-.006.014-.006h.502c.008 0 .014.003.014.003 0 0 .003.003.005.016l.174 1.224c0 .008.006.008.006.008 0 0 .003 0 .008-.006l.702-1.245c.003-.003.006-.006.006-.006h.016.506c.014 0 .016.003.016.003 0 0 .006.009.009.02l.284 1.997c0 .005-.003.008-.003.008" transform="translate(50.896 405.34)"/><path d="m0 0v-.447h.428v-1.586h.529v1.586h.439v.447h-1.396" transform="translate(57.922 405.35)"/><path d="m0 0h-.406c-.009 0-.014.007-.011.015l.211.617c.003.008.007.008.001 0l.207-.616c.003-.009-.003-.016-.011-.016m.096 1.267c-.003.009-.013.015-.022.015h-.544c-.009 0-.019-.006-.022-.015l-.771-2.01c-.004-.008.057-.015.066-.015h.471c.001 0 .019.006.023.015l.127.323c.003.008.012.015.023.015h.697c.001 0 .019-.007.023-.015l.122-.323c.002-.008.012-.015.022-.015h.532c.009 0 .014.007.011.015l-.758 2.01" transform="translate(57.25 404.07)"/><path d="m0 0c-.089.027-.152.043-.181.054-.052.016-.101.041-.136.073-.032.028-.049.063-.049.101 0 .1.098.176.228.176.119 0 .23-.043.344-.138l.212.412c-.204.108-.431.165-.645.165-.413 0-.692-.276-.692-.686 0-.219.078-.371.239-.452.075-.041.14-.066.309-.114.171-.049.219-.071.274-.125.027-.027.043-.068.043-.109 0-.122-.098-.2-.255-.2-.155 0-.303.065-.467.206l-.224-.423c.097-.068.138-.092.246-.136.166-.067.302-.097.461-.097.328 0 .602.138.716.358.043.086.076.243.076.368 0 .158-.038.266-.13.363-.087.095-.182.147-.369.204" transform="translate(55.46 404.56)"/><path d="m0 0h-.575c-.011 0-.019.009-.019.018v1.519c0 .001-.009.018-.019.018h-.569c-.001 0-.018-.008-.018-.018v-2.031c0-.011.008-.019.018-.019h1.182c.001 0 .019.008.019.019v.475c0 .011-.009.019-.019.019" transform="translate(54.3 403.83)"/><path d="m0 0h-.406c-.009 0-.014.007-.011.015l.211.617c.003.008.008.008.011 0l.206-.616c.003-.009-.003-.016-.011-.016m.074 1.282h-.544c-.009 0-.019-.006-.022-.015l-.771-2.01c-.004-.008.058-.015.066-.015h.471c.001 0 .019.006.023.015l.127.323c.004.008.013.015.022.015h.698c.001 0 .019-.007.023-.015l.122-.323c.002-.008.012-.015.022-.015h.532c.009 0 .014.007.011.015l-.758 2.01c-.003.009-.013.015-.022.015" transform="translate(52.06 404.07)"/></g></g><g fill="#fff"><path d="m821.86 698.26h11.909v44.13h14.72v-44.13h12.215v-12.438h-38.844v12.438"/><path d="m593.22 807.46l-5.04-14.887-5.064 14.887h10.1m19.255 17.335h-12.911l-3.172-7.958h-16.584l-3.228 7.958h-12.911l17.947-46.691h4.09l-.807-2h11.353l5.899 15.582h-2.17l12.494 33.11"/><path d="m629.74 824.72v-46.552h12.1v36.31h13.13v10.24h-25.24"/><path d="m681.57 792.57l-5.092 14.831h10.04l-4.953-14.831m11.297 32.17l-3.03-8.07h-16.695l-3.172 8.07h-12.8l17.892-46.552h13.161l17.558 46.552h-12.911"/><path d="m751.11 801.45c0-7.958-5.287-13.02-13.217-13.02h-2.727v26.04h2.727c7.93 0 13.217-5.092 13.217-13.02m12.661 0c0 6.261-2.282 11.715-6.817 16.389-4.536 4.591-9.878 6.873-16.08 6.873h-17.808v-46.552h17.808c6.122 0 11.492 2.365 16.03 7.01 4.591 4.675 6.873 10.07 6.873 16.278"/><path d="m769.07 824.72v-46.552h26.434v10.24h-14.33v7.763h13.607v10.24h-13.607v8.07h14.33v10.24h-26.434"/><path d="m846.24 824.72l-3.478-26.824-11.241 26.824h-4.842l-10.657-26.824-3.979 26.824h-12.05l7.875-46.552h11.993l9.433 24.82 9.989-24.82h11.993l7.07 46.552h-12.1"/><path d="m883.5 792.57l-5.092 14.831h10.04l-4.953-14.831m11.297 32.17l-3.03-8.07h-16.695l-3.172 8.07h-12.8l17.892-46.552h13.161l17.558 46.552h-12.911"/><path d="m945.12 824.72l-22.23-28.493v28.493h-12.1v-46.552h12.1l22.23 28.493v-28.493h12.1v46.552h-12.1"/><path d="m993.3 801.45c0-7.958-5.259-13.02-13.217-13.02h-2.727v26.04h2.727c7.958 0 13.217-5.092 13.217-13.02m12.661 0c0 6.261-2.282 11.715-6.817 16.389-4.536 4.591-9.878 6.873-16.08 6.873h-17.808v-46.552h17.808c6.149 0 11.492 2.365 16 7.01 4.619 4.675 6.901 10.07 6.901 16.278"/><path d="m1010.71 824.72v-46.552h26.434v10.24h-14.33v7.763h13.579v10.24h-13.579v8.07h14.33v10.24h-26.434"/></g></g></svg>