<svg xmlns="http://www.w3.org/2000/svg" width="625" height="193.75" viewBox="0 0 1.25 0.3875"><path d="m0 .124h1.056v.264h-1.056z"/><g fill="#fff"><path d="m.097.169c.028-.012.062-.001.089.004.003.002.009.004.007.009-.003.012-.004.023-.007.035-.02-.016-.051-.021-.073-.007-.019.012-.025.038-.018.059.006.014.02.024.035.026.015.003.03-.003.044-.008-.003.014-.004.028-.008.042-.035.015-.082.007-.106-.025-.019-.028-.02-.066-.005-.096.008-.018.024-.031.042-.039"/><path d="m.903.22c0-.019 0-.037 0-.056.016 0 .031 0 .047 0 0 .019 0 .037 0 .056.02 0 .039 0 .059 0 .002.015 0 .032 0 .047-.02 0-.04 0-.06 0 0 .021 0 .042 0 .063-.016 0-.032 0-.048 0 0-.021 0-.042 0-.063-.02-.003-.041 0-.062-.002 0-.016 0-.031 0-.047.02 0 .041 0 .061 0"/><path d="m.261.168c.018 0 .037 0 .055 0 .012.054.023.109.035.164-.014 0-.028 0-.042 0-.003-.0001-.005-.019-.007-.029-.019 0-.039 0-.058 0-.006.008-.009.019-.014.028-.016 0-.033 0-.049 0 .026-.055.054-.109.081-.163m.017.054c-.007.015-.013.03-.02.044.012 0 .023 0 .035 0-.002-.017-.007-.034-.0001-.051-.002.002-.003.004-.004.006z"/><path d="m.392.168c.016 0 .032 0 .048 0 .016.028.032.056.048.084.002.003.003.007.006.007.004-.03.0001-.061.013-.091.015 0 .03 0 .045 0-.008.054-.016.109-.023.163-.015 0-.029 0-.044 0-.016-.028-.032-.056-.048-.084-.003-.006-.006-.012-.0001-.017-.004.034-.009.068-.014.101-.015 0-.029 0-.044 0 .008-.054.015-.109.023-.163"/><path d="m.631.168c.018 0 .036 0 .054 0 .012.054.022.109.035.164-.015 0-.029 0-.044 0-.003-.0001-.002-.021-.008-.03-.018 0-.037 0-.055 0-.006.009-.009.02-.015.029-.016 0-.033 0-.049 0 .028-.054.055-.109.082-.164m-.003.1c.011 0 .023 0 .034 0-.002-.018-.007-.036-.011-.053-.008.017-.017.035-.023.053z"/><path d="m.761.168c.015 0 .031 0 .046 0-.006.042-.012.085-.018.127.017 0 .033 0 .05 0 0 .012-.003.024-.005.037-.029 0-.058 0-.087 0-.004 0-.008 0-.011-.002.003-.0001.003-.02.005-.03.007-.044.013-.088.019-.132"/></g><path d="m1.041 0h.018c.016.003.032.009.043.021.006.006.009.015.012.023.04 0 .08 0 .12 0 .006.04.011.081.017.122v.003c-.065.001-.129.02-.194.03-.019.002-.038.007-.057.008-.003-.018-.024-.137-.027-.163.007 0 .014 0 .022 0 .003-.024.025-.042.048-.044" fill="#0166b4"/><g fill="#fff"><path d="m1.024.019c.024-.012.058-.007.073.017.005.009.008.021.005.031-.002.006-.006.011-.0001.016.027.008.035.046.015.066-.024.024-.066.023-.091 0-.008-.008-.012-.019-.015-.03.012-.004.026-.003.039-.003 0 .016.022.024.035.014.007-.008.007-.022 0-.029-.006-.005-.014-.005-.021-.005-.002-.008-.002-.016-.003-.024.006 0 .014-.002.018-.008.003-.009-.002-.023-.012-.022-.005 0-.012 0-.015.004-.002.004-.002.008-.003.012-.011 0-.023 0-.034 0 0-.016.006-.034.021-.042"/><path d="m1.128.063c.023 0 .047-.005.068.006.014.008.029.023.028.041 0 .018-.012.033-.027.04-.018.008-.039.005-.058.009-.003-.032-.007-.064-.011-.096m.03.02c0 .018.003.035.006.053.011 0 .024-.003.03-.013.006-.012.003-.028-.009-.035-.008-.005-.017-.005-.026-.005z"/></g></svg>