<?xml version="1.0" encoding="UTF-8" standalone="no"?>
<svg xmlns:rdf="http://www.w3.org/1999/02/22-rdf-syntax-ns#" xmlns="http://www.w3.org/2000/svg" height="263.97" width="600" version="1.1" xmlns:cc="http://creativecommons.org/ns#" xmlns:dc="http://purl.org/dc/elements/1.1/" viewBox="0 0 158.75 69.842888">
 <g fill="#fff" transform="translate(253.37 -59.399)">
  <path d="m-253.37 59.399v58.501h17.33v11.34h17.53v-11.34h123.89v-58.501zm6.19 6.186h146.37v46.125h-123.89v11.34h-5.15v-11.34h-17.33z" stroke-width=".38837"/>
  <g>
   <path d="m-227.68 81.798v17.771h-5.92v-17.771h-4.8v-5.014h15.64v5.014z"/>
   <path d="m-208.71 99.569v-1.699q-0.43 0.519-0.58 0.638-1.58 1.582-4.19 1.582-3.44 0-5.65-2.494-2.19-2.396-2.19-5.808 0-1.223 0.32-2.381 0.32-1.179 0.94-2.158 0.61-0.979 1.5-1.78 0.87-0.779 1.98-1.276 1.43-0.6 3.04-0.6 2.23 0 3.64 0.934 0.42 0.275 1.19 1.068v-1.52h5.46v15.494zm0.15-7.744q0-1.461-1.04-2.492-1.03-1.038-2.49-1.038-1.45 0-2.49 1.038-1.03 1.031-1.03 2.455 0 0.742 0.27 1.387 0.28 0.646 0.75 1.135 0.46 0.482 1.12 0.764 0.65 0.274 1.38 0.274 1.46 0 2.49-1.038 1.04-1.031 1.04-2.485z"/>
   <path d="m-187.53 107.53v-9.482l-0.7 0.697q-1.68 1.315-4.13 1.315-3.37 0-5.59-2.405-2.19-2.396-2.19-5.741 0-3.463 2.22-5.807 2.21-2.396 5.62-2.396 1.3 0 2.43 0.423 1.38 0.542 2.34 1.765v-1.706h5.47v23.337zm0.15-15.645q0-0.749-0.28-1.372-0.29-0.66-0.75-1.106-0.49-0.459-1.13-0.741-0.62-0.275-1.36-0.275-1.47 0-2.5 1.031-1.03 1.002-1.03 2.433 0 0.734 0.28 1.38 0.28 0.667 0.74 1.127t1.13 0.742q0.64 0.274 1.38 0.274t1.36-0.274q0.64-0.282 1.13-0.742 0.46-0.438 0.75-1.113 0.28-0.623 0.28-1.364z"/>
   <path d="m-161.85 93.947q0 6.263-8.24 6.293-8.26 0-8.26-6.293v-9.754h5.47v8.723q0 2.826 2.79 2.826 2.77 0 2.77-2.826v-8.723h5.47z"/>
   <path d="m-152.29 79.639q0 0.653-0.23 1.202-0.24 0.541-0.68 0.972-0.43 0.422-0.98 0.637-0.59 0.23-1.21 0.23-1.2 0-2.15-0.882-0.91-0.913-0.91-2.129 0-0.638 0.25-1.216 0.24-0.579 0.65-0.987t0.97-0.652q0.57-0.245 1.19-0.245 0.64 0 1.21 0.245 0.57 0.244 0.98 0.652 0.44 0.43 0.68 0.972 0.23 0.549 0.23 1.201zm-5.82 19.93v-15.376h5.46v15.376z"/>
   <path d="m-148.92 99.569v-22.785h5.47v22.785z"/>
   <path d="m-139.72 99.569v-22.785h5.47v22.785z"/>
   <path d="m-118.52 99.569v-1.699q-0.43 0.519-0.58 0.638-1.58 1.582-4.19 1.582-3.44 0-5.65-2.494-2.19-2.396-2.19-5.808 0-1.223 0.32-2.381 0.32-1.179 0.94-2.158 0.61-0.979 1.5-1.78 0.87-0.779 1.98-1.276 1.43-0.6 3.04-0.6 2.23 0 3.64 0.934 0.42 0.275 1.19 1.068v-1.52h5.46v15.494zm0.14-7.744q0-1.461-1.03-2.492-1.03-1.038-2.49-1.038-1.45 0-2.49 1.038-1.03 1.031-1.03 2.455 0 0.742 0.27 1.387 0.28 0.646 0.74 1.135 0.46 0.482 1.13 0.764 0.65 0.274 1.38 0.274 1.46 0 2.49-1.038 1.03-1.031 1.03-2.485z"/>
  </g>
 </g>
</svg>
