<svg xmlns="http://www.w3.org/2000/svg" height="179.12" width="600" viewBox="0 0 158.75 47.393083"><g transform="translate(-132.05-7.542)"><g><path d="m227.69 53.799h61.85v-45.08h-61.85z" fill="#fff"/><path d="m230.32 52.664h58.21v-42.85h-58.21zm60.48 2.271h-62.75v-47.39h62.75" fill="#0d0b09"/><path d="m132.82 32.374h96.32v-23.653h-96.32z" fill="#fff"/><g fill="#0d0b09"><path d="m134.33 52.664h93.67v-42.85h-93.67zm95.95 2.271h-98.23v-47.39h98.23"/><path d="m132.82 54.17h96.32v-22.767h-96.32z"/></g></g><g fill="#1a64b7"><path d="m149.59 18.989c-.88-.86-1.97-1.594-3.21-1.594-1.63 0-2.96 1.363-2.96 3.082 0 1.74 1.41 3.082 3.04 3.082 1.26 0 2.25-.566 3.13-1.468l-.16 5.911c-.88.44-2.91.629-3.88.629-4.29 0-7.63-3.5-7.63-8.01 0-4.612 3.44-8.301 7.85-8.301 1.23 0 2.51.23 3.66.649"/><path d="m159.55 22.657l-.64-2.788c-.16-.671-.26-1.362-.36-2.033h-.2l-.99 4.821zm-3.61 5.722h-5.77l5.22-15.805h6.03l5.36 15.805h-5.78l-.5-1.97h-4.12"/><path d="m167.83 12.574h5.24l4.9 8.762h.16c-.07-1.243-.05-2.683-.05-4.02v-4.738h4.81v15.805h-5.22l-4.8-8.3h-.16c.18 1.09.12 2.117.12 3.165v5.135h-5"/><path d="m193.31 22.657l-.64-2.788c-.16-.671-.26-1.362-.36-2.033h-.2l-.99 4.821zm-3.61 5.722h-5.77l5.22-15.805h6.03l5.36 15.805h-5.78l-.5-1.97h-4.12"/><path d="m201.67 12.574h5.46v10.733h4.58v5.072h-10.04"/><path d="m213.13 12.574h10.09v4.318h-4.6v1.51h4.21v4.108h-4.21v1.552h4.76v4.317h-10.25"/></g><path d="m139.73 51.724h3.23v-15.07h-3.23z" fill="#fff"/><path d="m139.73 51.724h3.23v-15.07h-3.23z" stroke="#fff" stroke-width=".532" fill="none"/><path d="m176 47.05c0-1.82-1.89-3.359-5.23-3.359-3.2 0-5.09 1.619-5.09 3.359 0 1.759 1.83 3.397 5.09 3.397 3.37 0 5.23-1.559 5.23-3.397m2.92 4.677h-3.1v-1.46h-.06c-1.24 1.06-3.17 1.779-5.47 1.779-4.92 0-7.7-2.378-7.7-5.056 0-2.559 2.92-4.898 7.6-4.898 2.37 0 4.29.719 5.57 1.839h.06v-1.559h3.1" fill="#fff"/><path d="m176 47.05c0-1.82-1.89-3.359-5.23-3.359-3.2 0-5.09 1.619-5.09 3.359 0 1.759 1.83 3.397 5.09 3.397 3.37 0 5.23-1.559 5.23-3.397zm2.92 4.677h-3.1v-1.46h-.06c-1.24 1.06-3.17 1.779-5.47 1.779-4.92 0-7.7-2.378-7.7-5.056 0-2.559 2.92-4.898 7.6-4.898 2.37 0 4.29.719 5.57 1.839h.06v-1.559h3.1z" stroke="#fff" stroke-width=".532" fill="none"/><path d="m186.16 51.724h3.09v-15.402h-3.09z" fill="#fff"/><path d="m186.16 51.724h3.09v-15.402h-3.09z" stroke="#fff" stroke-width=".501" fill="none"/><path d="m200.34 51.724h-3.09v-9.355h3.09zm.58-13.633c0 .68-.96 1.22-2.13 1.22s-2.13-.54-2.13-1.22c0-.699.96-1.259 2.13-1.259s2.13.56 2.13 1.259" fill="#fff"/><path d="m200.34 51.724h-3.09v-9.355h3.09zm.58-13.633c0 .68-.96 1.22-2.13 1.22s-2.13-.54-2.13-1.22c0-.699.96-1.259 2.13-1.259s2.13.56 2.13 1.259z" stroke="#fff" stroke-width=".532" fill="none"/><path d="m220.89 47.05c0-1.82-1.89-3.359-5.22-3.359-3.2 0-5.09 1.619-5.09 3.359 0 1.759 1.82 3.397 5.09 3.397 3.37 0 5.22-1.559 5.22-3.397m2.93 4.677h-3.1v-1.46h-.07c-1.23 1.06-3.16 1.779-5.46 1.779-4.92 0-7.7-2.378-7.7-5.056 0-2.559 2.92-4.898 7.6-4.898 2.37 0 4.29.719 5.56 1.839h.07v-1.559h3.1" fill="#fff"/><path d="m220.89 47.05c0-1.82-1.89-3.359-5.22-3.359-3.2 0-5.09 1.619-5.09 3.359 0 1.759 1.82 3.397 5.09 3.397 3.37 0 5.22-1.559 5.22-3.397zm2.93 4.677h-3.1v-1.46h-.07c-1.23 1.06-3.16 1.779-5.46 1.779-4.92 0-7.7-2.378-7.7-5.056 0-2.559 2.92-4.898 7.6-4.898 2.37 0 4.29.719 5.56 1.839h.07v-1.559h3.1z" stroke="#fff" stroke-width=".532" fill="none"/><path d="m149.45 40.993c0-.091-.07-.138-.2-.138h-2.19c-.08 0-.12 0-.17 0v-.337c.06-.038.07-.046.14-.096l4.84-3.63c.12-.083.14-.097.18-.127l.3.003c.02 0 .12 0 .17 0v2.741c0 .092.06.138.19.138h5.03c.13 0 .15 0 .19 0v.86.446h-5.22c-.13 0-.19.047-.19.138v7.509c0 1.351.81 2.025 2.43 2.025 1.18 0 2.14-.225 2.87-.675.07-.042.15-.085.23-.132.03.043.04.069.08.132l.54.805c-.05.031-.06.033-.17.091-.97.487-1.81.818-2.52.992-.93.23-1.89.344-2.86.344-1.04 0-1.91-.239-2.62-.717-.7-.477-1.05-1.096-1.05-1.859" fill="#fff"/><path d="m149.45 40.993c0-.091-.07-.138-.2-.138h-2.19c-.08 0-.12 0-.17 0v-.337c.06-.038.07-.046.14-.096l4.84-3.63c.12-.083.14-.097.18-.127l.3.003c.02 0 .12 0 .17 0v2.741c0 .092.06.138.19.138h5.03c.13 0 .15 0 .19 0v.86.446h-5.22c-.13 0-.19.047-.19.138v7.509c0 1.351.81 2.025 2.43 2.025 1.18 0 2.14-.225 2.87-.675.07-.042.15-.085.23-.132.03.043.04.069.08.132l.54.805c-.05.031-.06.033-.17.091-.97.487-1.81.818-2.52.992-.93.23-1.89.344-2.86.344-1.04 0-1.91-.239-2.62-.717-.7-.477-1.05-1.096-1.05-1.859z" stroke="#fff" stroke-width=".52" fill="none"/><g fill="#1a64b7"><path d="m246.11 16.248c-7.2 0-11.73 3.612-11.73 7.924 0 3.992 1.77 5.51 5.19 6.667-5.26 1.631-5.88 4.597-5.88 7.412 0 4.703 4.81 8.541 12.43 8.541 7.54 0 12.52-3.838 12.52-8.541 0-4.03-2.55-6.456-5.83-7.429 3.45-1.191 5.12-3.178 5.12-6.744 0-4.549-4.7-7.83-11.82-7.83m.04 6.328c1.65 0 2.62 1.309 2.62 2.936 0 1.628-.97 2.938-2.62 2.938-1.64 0-2.61-1.31-2.61-2.938 0-1.627.97-2.936 2.61-2.936m.02 11.123c1.8 0 2.87 1.429 2.87 3.203 0 1.775-1.07 3.204-2.87 3.204-1.81 0-2.88-1.429-2.88-3.204 0-1.774 1.07-3.203 2.88-3.203"/><path d="m272.75 16.248c-7.77 0-11.1 5.337-11.2 9.561h8.57c.11-2.024 1.15-2.818 2.5-2.856 1.34 0 2.3 1.091 2.3 2.437-.001 1.056-.55 1.991-1.55 2.316-.3.12-.78.179-1.55.179v5.971c3.01-.13 3.82 1.399 3.99 2.897 0 1.613-1.45 2.921-2.92 2.921-1.86 0-2.67-.942-3.08-2.984h-9.48c.33 4.182 2.79 10.1 11.96 10.1 8.66 0 13.24-3.555 13.24-9.453 0-4.476-3.87-6.317-6.43-6.944 2.65-.795 5.44-1.942 5.44-5.79 0-5.558-4.52-8.357-11.79-8.357"/></g></g></svg>