<svg xmlns="http://www.w3.org/2000/svg" viewBox="0 0 160.42042 72.783616" width="606.31" height="275.09"><defs><clipPath id="0"><path d="m666.14 0h666.16v907.09h-666.16v-907.09"/></clipPath><clipPath id="1"><path d="m936.92 263.49h53.87v-19.51h-53.87v19.51"/></clipPath><clipPath id="2"><path d="m939.12 261.27h48.78v-15.13h-48.78v15.13"/></clipPath></defs><g transform="translate(179.33-75.26)"><path d="m-27.989 142.51h-119.84v-33.63h119.84v33.63" fill="#802984"/><g clip-path="url(#0)" transform="matrix(2.5619 0 0-2.5619-2556.3 775.66)"><g clip-path="url(#1)" opacity=".5"><path d="m0 0l-2.201-.193 1.144-13.07 24.733 2.164h-23.676v11.1m48.53 4.246l-25.424-2.225h23.675v-11.1l2.893.253-1.144 13.08z" fill="#3d267e" transform="translate(940.12 258.25)"/></g><g clip-path="url(#2)" opacity=".5"><path d="m0 0h-23.675l-23.1-2.02v-11.1h23.676l23.1 2.02v11.1" fill="#3d267e" transform="translate(986.9 260.27)"/></g></g><path d="m-44.813 75.26h-134.52v33.623h134.52l-.003-33.623z"/><g fill="#fff"><g clip-path="url(#0)" transform="matrix(2.5619 0 0-2.5619-2556.3 775.66)"><path d="m0 0c-.001-.09-.055-.155-.055-.155 0 0-.043-.045-.124-.065-1.06-.434-2.241-.289-2.241-.289-1.915.209-3.133 1.382-3.523 2.897-.575 2.266.567 3.883.843 4.224.675.806 1.728 1.381 2.756 1.517 1.315.189 2.289-.122 2.688-.255 0 0 .444-.144.777-.366.165-.112.185-.156.185-.156 0 0 .011-.02-.032-.198l-.312-1.625c-.001-.067-.054-.101-.054-.101 0 0-.023-.009-.175.091-.997.707-2.16.618-2.16.618-.884-.057-1.913-.52-2.224-1.693-.275-1.039.014-1.912.63-2.435.423-.361 1.076-.551 1.76-.518.755.056 1.35.355 1.307.335 0 0 .032.008.068.02.154.078.187.067.187.067 0 0 .032-.033.011-.135l-.312-1.778m5.665 5.519l-.023-.022-1.102-2.511c-.023-.035-.014-.057-.014-.057 0 0 .014-.011.066-.011l1.626-.013.021.013c0 0 .012.011 0 .043l-.565 2.536-.009.022m18.364.031c0 0-.008 0-.019-.042l-1.107-2.503c-.023-.076-.013-.087-.013-.087l.058-.022 1.638.009h.021c0 0 .001.013 0 .046l-.555 2.568c-.009.031-.023.031-.023.031m-15-5.828l-1.969-.008c-.045 0-.079.018-.079.018 0 0-.012.011-.021.09l-.309 1.272c0 .033-.022.045-.022.045h-.034-2.773c-.057 0-.089-.045-.089-.045 0 0-.046-.034-.079-.111l-.552-1.183c-.022-.042-.034-.057-.034-.057 0 0-.035-.021-.066-.021h-2.293c-.063-.008-.075.021-.075.021 0 0-.011.037.012.079l3.97 7.986c.022.043.054.054.054.054h.078 2.535c.04 0 .075-.033.075-.033 0 0 .013-.001.022-.045l1.705-8c0-.037-.023-.048-.023-.048l-.033-.001zm8.851-.022h-2.026-.065l-.022.022-2.809 4.988-.033.024c0 0-.022 0-.022-.033l-.696-4.901c-.013-.057-.024-.068-.024-.068 0 0-.024-.001-.056-.001h-2.02c-.032 0-.052.021-.052.021 0 0-.045.045-.037.09l1.109 7.93c.001.045.032.056.032.056 0 0 .032.032.067.032h2.247c.032 0 .054-.022.054-.022 0 0 .023-.001.033-.045l2.535-4.443c.042-.093.076-.079.076-.079 0 0 .035 0 .056.099l.641 4.423c0 .035.023.045.023.045 0 0 .011.022.043.022l2.115-.022c.043 0 .055-.001.055-.001l.001-.035-1.138-7.996c-.001-.045-.033-.074-.033-.074 0 0-.013-.014-.068-.014m9.483-.001h-2.026c-.043-.024-.078.024-.078.024 0 0-.001.008-.022.074l-.264 1.248c-.02.069-.045.103-.045.103 0 0-.055.032-.121.032h-2.635c-.053 0-.087-.032-.087-.032 0 0-.045-.045-.067-.111l-.597-1.27c-.013-.036-.033-.044-.033-.044 0 0-.044-.014-.069-.014h-2.278c-.054-.001-.076.022-.076.022 0 0-.011.021.022.066l4.02 8.02.045.043c0 0 .023.011.088.011h2.489c.056 0 .091-.033.091-.033 0 0 .001-.001.021-.045l1.669-8.05-.009-.032c0 0 0-.001-.033-.001m5.81.119c-.014-.066-.024-.087-.024-.087 0 0-.012-.022-.066-.022h-4.558c-.134 0-.167.032-.167.032 0 0-.023.048-.001.146l1.129 7.852c.008.099.033.132.033.132h.119 2.07c.057 0 .079-.011.079-.011 0 0 .001-.032 0-.076l-.853-6.14c-.011-.067.023-.075.023-.075 0 0 .024-.013.11-.013h2.257c.043 0 .066-.022.066-.022 0 0 .013-.011.013-.067l-.221-1.649zm8.772 3.109c0 0-.009-.022-.043-.022h-2.834c-.045 0-.067-.022-.067-.022 0 0-.029-.001-.029-.066v-3.02c0-.045-.023-.056-.023-.056 0 0-.013-.018-.049-.018h-2.244c-.034 0-.055.018-.055.018 0 0-.001.011-.001.068v3.02c0 .035-.033.056-.033.056 0 0-.013.022-.044.022h-2.9c-.055 0-.067.009-.067.009 0 0-.022.024-.022.092v2.211c0 .024.022.056.022.056l.034.009h2.964c.025 0 .025.012.025.012l.021.033v2.645c0 .03.001.054.001.054 0 0 .021.011.088.011h2.203c.044 0 .057-.011.057-.011 0 0 .023-.024.023-.066v-2.653h2.875c.076 0 .098-.013.098-.013 0 0 .036-.012.036-.077v-2.235l-.036-.055" transform="translate(936.14 263.34)"/><path d="m0 0c-.238-.455-.62-.806-1.168-1.054-.465-.207-.992-.31-1.56-.31-.569 0-1.147.124-1.757.372-.299.124-.537.237-.692.351-.072.052-.155.104-.248.166l.857 1.612c.61-.528 1.199-.786 1.778-.786.279 0 .496.062.672.176.196.134.299.33.299.589 0 .217-.103.403-.32.558-.104.072-.259.134-.475.207-.073.02-.207.062-.414.124l-.413.124c-.258.072-.507.175-.765.31-.61.31-.909.888-.909 1.725 0 .786.248 1.416.733 1.891.486.486 1.127.724 1.902.724.837 0 1.664-.207 2.459-.631l-.806-1.57c-.423.351-.857.527-1.312.527-.217 0-.414-.052-.579-.166-.196-.124-.289-.289-.289-.506 0-.217.145-.403.424-.537.082-.042.403-.155.971-.331.63-.196 1.106-.455 1.405-.775.331-.351.496-.816.496-1.385 0-.568-.093-1.033-.289-1.405" transform="translate(948.53 251.1)"/></g><path d="m0 0h-2.284l-.165-1.333h2.201l-.207-1.705h-2.211l-.155-1.302h2.377l-.217-1.705h-4.33l.951 7.75h4.247l-.207-1.705" transform="matrix(2.5619 0 0-2.5619-111.17 119.85)"/></g><g clip-path="url(#0)" transform="matrix(2.5619 0 0-2.5619-2556.3 775.66)"><path d="m0 0h-2.284l-1.849 3.069-.372-3.069h-1.964l.951 7.75h2.521c1.829 0 2.739-.785 2.739-2.356 0-.827-.197-1.385-.682-1.829-.248-.248-.465-.341-.961-.558l1.901-3.01m-3.999 4.319h.351c.827 0 1.395.393 1.395.982 0 .506-.392.785-1.126.785h-.372l-.248-1.767z" fill="#fff" transform="translate(961.59 249.94)"/></g><g fill="#fff"><path d="m-90.11 115.48h5.162v19.85h-5.162v-19.85"/><path d="m0 0l-.506 1.343h-2.78l-.527-1.343h-2.129l2.976 7.75h2.191l2.924-7.75h-2.149m-1.881 5.353l-.847-2.47h1.674l-.827 2.47z" transform="matrix(2.5619 0 0-2.5619-69.01 135.34)"/><path d="m0 0v7.75h2.02v-6.04h2.418v-1.705h-4.433" transform="matrix(2.5619 0 0-2.5619-61.2 135.34)"/><path d="m0 0v7.75h4.402v-1.705h-2.387v-1.292h2.263v-1.705h-2.263v-1.343h2.387v-1.705h-4.402" transform="matrix(2.5619 0 0-2.5619-47.725 135.34)"/></g></g><g transform="translate(10.28-188.53)"><path d="m132.47 192.6v-4.07h-2.73v10.52h2.73v-4.34h2.67v-2.11"/><path d="m136.41 191.97v7.08h2.73v-10.52h-2.73"/><path d="m148.58 190.12c-1.02-1.05-2.22-1.59-3.61-1.59h-4.02v2.32h2.98.37c1.79 0 2.98 1.15 2.98 2.94 0 1.8-1.19 2.94-2.98 2.94h-.62v-4.61h-2.73v6.93h4.02c1.4 0 2.61-.52 3.63-1.56 1.02-1.05 1.54-2.28 1.54-3.7 0-1.4-.52-2.62-1.56-3.67"/></g></svg>