<svg xmlns="http://www.w3.org/2000/svg" viewBox="0 0 766 220"><g transform="translate(-11.129-298.53)"><path stroke-width="24.89" d="m11.129 298.53h766v220h-766z"/><g fill="#fff"><g transform="matrix(24.88952 0 0 24.88952-5452.94-10546.78)"><path d="m228.24 443.16c2.759-.226 3.634-.864 3.357-2.318.787-1.183-1.598-1.918-2.826-2.164-2.428.314-2.866 1.298-2.473 2.22.253 1.198.256 1.839 1.942 2.262"/><path d="m225.88 442.5c-.502.267-.943.379-1.494.379-1.305 0-2.214-.798-2.214-1.94 0-.714.402-1.354 1.065-1.694.346-.179.758-.269 1.232-.269.396 0 .663.045 1.043.185.156.056.206.077.323.15v.875c-.335-.251-.842-.412-1.299-.412-.814 0-1.377.475-1.377 1.153 0 .686.558 1.166 1.349 1.166.368 0 .797-.129 1.143-.335l.19-.111.039-.022v.875"/><path d="m235.61 442.5c-.501.267-.942.379-1.494.379-1.304 0-2.213-.798-2.213-1.94 0-.714.402-1.354 1.065-1.694.346-.179.758-.269 1.232-.269.396 0 .663.045 1.042.185.156.056.207.077.324.15v.875c-.335-.251-.842-.412-1.299-.412-.814 0-1.377.475-1.377 1.153 0 .686.557 1.166 1.349 1.166.368 0 .797-.129 1.143-.335l.189-.111.039-.022v.875"/></g><path stroke-width="24.89" d="m437.66 380.41h23.869v94.65h-23.869z"/><g transform="matrix(24.88952 0 0 24.88952-5452.94-10546.78)"><path d="m239.73 440.48v2.35h-.94v-3.8h.86l2.04 2.24v-2.24h.93v3.8h-.79z"/><path d="m247.67 442.83h-1.02l-.312-.753h-1.7l-.285.753h-1l1.533-3.803h1.098l1.689 3.803m-2.782-1.416h1.171l-.613-1.473-.558 1.473"/></g></g><g transform="matrix(24.88952 0 0 24.88952-5452.94-10546.78)"><path d="m229.23 442.04c.616 0 1.115-.499 1.115-1.115 0-.616-.499-1.115-1.115-1.115-.616 0-1.115.499-1.115 1.115 0 .616.499 1.115 1.115 1.115" fill="#fabb00"/><g fill="#fff"><path d="m224.57 437.43c-.141-.08-.266-.116-.398-.116-.266 0-.464.188-.464.441 0 .256.193.438.462.438.139 0 .279-.044.412-.129v.183c-.128.069-.264.102-.422.102-.169 0-.298-.043-.411-.136-.136-.113-.214-.28-.214-.457 0-.337.274-.6.628-.6.128 0 .247.027.407.096v.178"/><path d="m229.96 438.33h-.171l-.155-.344h-.494l-.146.344h-.17l.499-1.169h.117l.52 1.169m-.755-.493h.361l-.187-.42-.174.42"/><path d="m234.4 437.44v.89h-.15v-1.16h.13l.78.9v-.9h.16v1.16h-.14z"/><path d="m240.74 438.33h-.17l-.155-.344h-.494l-.146.344h-.171l.499-1.169h.118l.519 1.169m-.754-.493h.361l-.187-.42-.174.42"/><path d="m245.19 438.18h.52v.15h-.69v-1.16h.17z"/></g></g></g></svg>