<?xml version="1.0" encoding="UTF-8" standalone="no"?>
<svg xmlns:rdf="http://www.w3.org/1999/02/22-rdf-syntax-ns#" xmlns="http://www.w3.org/2000/svg" enable-background="new 0 0 86 32" xml:space="preserve" height="199.37" viewBox="0 0 600 199.3668" width="600" version="1.1" y="0px" x="0px" xmlns:cc="http://creativecommons.org/ns#" xmlns:dc="http://purl.org/dc/elements/1.1/"><rect height="132.91" width="600" y="66.455" x="0" fill="#ff6419"/><g fill="#fff"><g><path d="m43.037 152.48h4.45c6.601 0 11.851-1.97 15.785-5.88 3.85-3.87 5.784-8.99 5.784-15.39 0-6.38-1.917-11.52-5.784-15.37-3.934-3.93-9.184-5.88-15.785-5.88h-4.45zm-19.718 16.7v-75.956h29.002c6.301 0 12.284 1.651 17.952 4.951 6.033 3.485 10.801 8.285 14.334 14.385 3.4 5.87 5.101 12.1 5.101 18.7 0 6.55-1.684 12.77-5.051 18.64-3.517 6.08-8.301 10.88-14.334 14.38-5.634 3.27-11.618 4.9-18.002 4.9z"/><path d="m134.28 136.36c-1.69-5.47-5.22-8.22-10.69-8.22-5.56 0-9 2.75-10.28 8.22zm16.92 10.54h-38.39c0.2 4.31 1.3 7.36 3.3 9.15 1.85 1.6 4.47 2.41 7.82 2.41 2.56 0 4.6-0.55 6.08-1.63 0.88-0.67 1.83-1.73 2.82-3.22h17.67c-1.19 3.74-2.5 6.49-3.95 8.27-5.15 6.23-12.74 9.35-22.76 9.35-9.26 0-16.58-2.68-21.93-8.02-5.002-4.88-7.469-11.33-7.469-19.33 0-8.7 2.767-15.54 8.299-20.47 5.15-4.58 11.94-6.88 20.39-6.88 9.21 0 16.35 2.8 21.35 8.36 4.52 5 6.78 11.7 6.78 20.07v1.94z"/><path d="m188.22 131.91c-3.24 0-6 1.15-8.32 3.47-2.23 2.26-3.35 4.98-3.35 8.15 0 3.2 1.13 5.93 3.4 8.2 2.35 2.35 5.15 3.52 8.42 3.52 3.26 0 6.06-1.15 8.4-3.45 2.26-2.29 3.36-5 3.36-8.17 0-3.2-1.13-5.95-3.41-8.25-2.27-2.34-5.1-3.47-8.5-3.47m-11.19 59.86h-18.23v-73.81h18.23v5.68c0.7-0.81 1.35-1.55 1.94-2.21 3.76-3.4 8.45-5.1 14.1-5.1 7.11 0 13.16 2.5 18.15 7.53 5.23 5.27 7.85 11.87 7.85 19.82 0 7.92-2.6 14.48-7.85 19.73-4.92 4.95-10.9 7.42-17.97 7.42-3.35 0-6.55-0.62-9.58-1.83-2.07-0.82-4.29-2.45-6.62-4.85v27.62z"/><path d="m255.31 131.71c-3.19 0-5.92 1.15-8.22 3.47-2.32 2.26-3.47 5-3.47 8.2 0 3.33 1.15 6.15 3.47 8.45 2.28 2.28 5.03 3.42 8.25 3.42 3.25 0 6.02-1.15 8.32-3.45 2.3-2.29 3.46-5.05 3.46-8.32s-1.15-6.04-3.41-8.3c-2.29-2.32-5.09-3.47-8.4-3.47m0.18-15.7c6.57 0 12.45 1.48 17.65 4.45 4.27 2.45 7.53 5.68 9.85 9.7 2.32 3.98 3.47 8.45 3.47 13.4 0 7.45-2.49 13.69-7.45 18.69-2.85 2.8-6.27 4.96-10.3 6.48-4.15 1.58-8.64 2.38-13.39 2.38-9.77 0-17.63-2.98-23.55-8.9-5-4.95-7.47-11.03-7.47-18.25 0-7.65 2.59-14.07 7.72-19.23 5.72-5.79 13.55-8.72 23.47-8.72"/><path d="m294.26 117.96h18.23v8.42c2.74-4.62 6.87-7.5 12.37-8.67 2.73-0.48 5.45-0.57 8.15-0.23v17.2c-2.7-1.22-5.22-1.84-7.55-1.84-3.97 0-7.12 1.15-9.4 3.47-1.32 1.28-2.25 2.75-2.77 4.4-0.53 1.62-0.8 3.79-0.8 6.54v21.95h-18.23z"/></g><polygon points="411.52 79.898 410.42 79.898 410.42 77.729 410.06 77.729 410.06 76.825 410.42 76.825 410.42 75.9 411.52 75.9 411.52 76.825 412.14 76.825 412.14 77.729 411.52 77.729" transform="matrix(16.668 0 0 16.668 -6497.4 -1162.6)"/><path d="m413.94 136.36c-1.69-5.47-5.24-8.22-10.69-8.22-5.57 0-8.98 2.75-10.28 8.22zm16.91 10.54h-38.37c0.2 4.31 1.3 7.36 3.3 9.15 1.85 1.6 4.45 2.41 7.82 2.41 2.57 0 4.6-0.55 6.08-1.63 0.9-0.67 1.82-1.73 2.82-3.22h17.65c-1.16 3.74-2.48 6.49-3.93 8.27-5.17 6.23-12.73 9.35-22.75 9.35-9.25 0-16.57-2.68-21.95-8.02-4.99-4.88-7.45-11.33-7.45-19.33 0-8.7 2.76-15.54 8.3-20.47 5.15-4.58 11.93-6.88 20.38-6.88 9.24 0 16.34 2.8 21.35 8.36 4.52 5 6.77 11.7 6.77 20.07v1.94z"/><path d="m478.84 119.49-6.15 11.72c-3.5-1.67-6.82-2.52-9.97-2.52-1.78 0-3.23 0.44-4.3 1.29-0.81 0.66-1.23 1.45-1.23 2.36 0 1.65 1.6 2.85 4.75 3.57l0.73 0.15c1.22 0.3 2.65 0.63 4.3 0.98 3.3 0.7 6.02 1.87 8.12 3.52 3.5 2.75 5.23 6.52 5.23 11.32 0 6.93-3.01 12.12-9.03 15.58-4.25 2.44-9.37 3.67-15.4 3.67-6.8 0-13.72-2-20.7-5.98l6.56-12.77c5.42 3.53 10.27 5.28 14.61 5.28 1.73 0 3.2-0.43 4.35-1.33 0.93-0.72 1.38-1.58 1.38-2.62 0-1.01-0.5-1.95-1.53-2.81-0.7-0.57-2.77-1.2-6.24-1.92-4.98-1.1-8.6-2.52-10.88-4.27-2.87-2.23-4.3-5.53-4.3-9.88 0-6.99 2.86-12.12 8.61-15.39 3.89-2.2 8.64-3.31 14.21-3.31 2.6 0 5.53 0.28 8.8 0.85 2.15 0.33 4.86 1.16 8.08 2.51"/><g stroke-width=".66450"><path d="m49.328 16.289c0.099-0.542 0.165-0.871 0.165-0.986 0-0.312-0.165-0.592-0.493-0.805-3.764-2.466-8.367-3.699-13.791-3.699-6.805 0-12.427 2.137-16.865 6.411-4.438 4.273-6.657 9.681-6.657 16.24 0 6.345 2.038 11.473 6.098 15.401 4.077 3.929 9.419 5.885 16.01 5.885 3.649 0 6.526-0.625 8.63-1.89 0.394-0.214 0.657-0.74 0.772-1.578 0 0 1.118-7.874 1.151-8.186 0.099-0.625-0.247-0.526-1.874-0.016-3.107 0.904-5.654 1.364-7.643 1.364-3.206 0-5.819-1.069-7.874-3.205-2.071-2.137-3.106-4.849-3.106-8.153 0-3.551 1.183-6.444 3.534-8.696 2.35-2.235 5.408-3.369 9.172-3.369 3.632 0 6.739 0.838 9.352 2.515 0.789 0.493 1.283 0.756 1.463 0.756 0.247 0 0.444-0.395 0.592-1.2l1.364-6.789z"/><path d="m80.674 13.084c-0.115-0.575-0.427-0.871-0.937-0.871h-12.541c-0.576 0-0.987 0.246-1.25 0.756l-19.33 39.121c-0.082 0.213-0.115 0.378-0.115 0.476 0 0.263 0.148 0.395 0.428 0.395h10.552c0.641 0 1.085-0.23 1.299-0.658l2.712-5.605c0.214-0.427 0.575-0.641 1.085-0.641h13.265c0.493 0 0.789 0.23 0.854 0.707l1.414 5.638c0.082 0.378 0.329 0.559 0.773 0.559h9.385c0.329 0 0.493-0.165 0.493-0.493v-0.214zm-6.64 23.85h-7.874c-0.246 0-0.378-0.065-0.378-0.164l0.115-0.329 5.26-11.95c0.115-0.213 0.197-0.345 0.279-0.378 0.099 0.066 0.198 0.247 0.263 0.543l2.778 11.572c0.066 0.279 0.115 0.443 0.115 0.476 0 0.148-0.197 0.23-0.558 0.23"/><path d="m93.923 52.402c0 0.362 0.312 0.559 0.92 0.559h9.077c0.51 0 0.79-0.263 0.87-0.773l3.25-23.242c0.07-0.477 0.13-0.707 0.17-0.707 0.11 0.066 0.24 0.247 0.42 0.543l13.32 23.406c0.29 0.51 0.72 0.773 1.3 0.773h9.28c0.63 0 0.97-0.23 1.04-0.658l5.44-39.498c0-0.395-0.25-0.592-0.71-0.592h-9.61c-0.66 0-1.02 0.279-1.09 0.822l-2.94 21.072c-0.07 0.543-0.16 0.806-0.26 0.806-0.12 0-0.28-0.198-0.5-0.592l-12.16-21.352c-0.3-0.51-0.72-0.756-1.3-0.756h-10.32c-0.51 0-0.806 0.246-0.872 0.707z"/><path d="m180.02 52.09-8.22-39.055c-0.1-0.543-0.43-0.822-0.97-0.822h-11.95c-0.57 0-0.97 0.246-1.2 0.707l-19.21 39.268c-0.12 0.214-0.17 0.378-0.17 0.493 0 0.181 0.13 0.28 0.43 0.28h10.44c0.54 0 0.92-0.214 1.13-0.608l2.93-5.704c0.21-0.395 0.61-0.592 1.15-0.592h12.54c0.66 0 1.04 0.28 1.15 0.871l1.02 5.26c0.12 0.51 0.46 0.773 1.04 0.773h9.28c0.45 0 0.66-0.115 0.66-0.329 0-0.263-0.02-0.444-0.05-0.542m-14.07-15.55c0 0.247-0.21 0.378-0.61 0.378h-7.33c-0.46 0-0.71-0.115-0.71-0.329 0-0.115 0.05-0.279 0.12-0.493l5.33-11.999c0.14-0.296 0.24-0.46 0.31-0.493 0.08 0.066 0.15 0.23 0.23 0.493l2.59 11.884c0 0.049 0.02 0.132 0.07 0.28v0.279z"/><path d="m190.94 12.213c-0.42 0-0.65 0.296-0.71 0.871l-5.66 39.433c0 0.296 0.17 0.444 0.5 0.444h22.81c0.48 0 0.74-0.23 0.81-0.658l1.08-7.988c0-0.362-0.18-0.543-0.54-0.543h-10.91c-0.43 0-0.66-0.197-0.66-0.591v-0.115l4.07-30.36c0-0.329-0.18-0.493-0.54-0.493z"/><path d="m238.29 37.576c0-0.461 0.25-0.707 0.71-0.707h13.48c0.39 0 0.59-0.214 0.59-0.641v-11.079c0-0.477-0.2-0.707-0.59-0.707h-13.65c-0.36 0-0.54-0.263-0.54-0.772v-12.542c0-0.362-0.23-0.542-0.71-0.542h-11.07c-0.37 0-0.55 0.18-0.55 0.542v12.542c0 0.509-0.21 0.772-0.64 0.772h-14.56c-0.4 0-0.59 0.197-0.59 0.592v11.128c0 0.477 0.21 0.707 0.64 0.707h14.45c0.47 0 0.7 0.279 0.7 0.822v14.612c0 0.428 0.2 0.658 0.61 0.658h11.13c0.39 0 0.59-0.263 0.59-0.773z"/></g></g><rect height="66.456" width="365.47" y="0" x="0" stroke-width=".60912"/><g stroke-width=".60912" fill="#fff"><path d="m49.321 16.272c0.114-0.553 0.163-0.879 0.163-0.976 0-0.342-0.163-0.602-0.488-0.83-3.759-2.457-8.364-3.694-13.799-3.694-6.802 0-12.416 2.148-16.858 6.428-4.443 4.263-6.656 9.665-6.656 16.223 0 6.346 2.034 11.472 6.103 15.41 4.084 3.921 9.421 5.89 16.011 5.89 3.645 0 6.526-0.634 8.625-1.903 0.406-0.212 0.651-0.733 0.764-1.579 0 0 1.123-7.859 1.172-8.185 0.081-0.618-0.26-0.521-1.871-0.016-3.125 0.911-5.679 1.367-7.664 1.367-3.19 0-5.81-1.074-7.876-3.206-2.067-2.148-3.092-4.865-3.092-8.152 0-3.548 1.172-6.444 3.531-8.69 2.343-2.245 5.402-3.368 9.178-3.368 3.612 0 6.736 0.83 9.34 2.506 0.797 0.504 1.285 0.765 1.464 0.765 0.261 0 0.456-0.407 0.602-1.204l1.351-6.786z"/><path d="m80.661 13.083c-0.097-0.586-0.407-0.879-0.927-0.879h-12.546c-0.57 0-0.993 0.26-1.237 0.765l-19.347 39.118c-0.065 0.212-0.098 0.375-0.098 0.472 0 0.261 0.146 0.391 0.423 0.391h10.544c0.651 0 1.091-0.212 1.302-0.651l2.718-5.598c0.211-0.439 0.585-0.651 1.09-0.651h13.245c0.505 0 0.798 0.228 0.879 0.7l1.4 5.646c0.081 0.375 0.341 0.554 0.764 0.554h9.406c0.325 0 0.488-0.163 0.488-0.488v-0.212zm-6.622 23.839h-7.876c-0.261 0-0.374-0.049-0.374-0.163l0.097-0.326 5.272-11.96c0.114-0.195 0.196-0.341 0.277-0.374 0.114 0.081 0.195 0.26 0.277 0.553l2.766 11.57c0.065 0.277 0.097 0.439 0.097 0.488 0 0.147-0.179 0.212-0.536 0.212"/><path d="m93.923 52.396c0 0.375 0.309 0.554 0.928 0.554h9.059c0.51 0 0.8-0.261 0.88-0.765l3.26-23.237c0.06-0.488 0.13-0.716 0.16-0.716 0.1 0.082 0.24 0.244 0.42 0.537l13.31 23.416c0.3 0.504 0.74 0.765 1.31 0.765h9.29c0.62 0 0.96-0.212 1.04-0.651l5.42-39.493c0-0.39-0.23-0.602-0.7-0.602h-9.62c-0.65 0-1.01 0.277-1.09 0.814l-2.93 21.072c-0.06 0.553-0.16 0.814-0.28 0.814-0.09 0-0.26-0.179-0.48-0.586l-12.16-21.349c-0.29-0.505-0.73-0.765-1.32-0.765h-10.31c-0.508 0-0.801 0.244-0.866 0.716z"/><path d="m180.02 52.087-8.2-39.069c-0.12-0.537-0.44-0.814-0.98-0.814h-11.96c-0.57 0-0.97 0.244-1.19 0.716l-19.23 39.265c-0.11 0.211-0.16 0.374-0.16 0.488 0 0.179 0.14 0.293 0.44 0.293h10.43c0.53 0 0.91-0.195 1.14-0.602l2.93-5.695c0.21-0.407 0.6-0.602 1.13-0.602h12.55c0.65 0 1.03 0.292 1.14 0.862l1.04 5.272c0.1 0.505 0.46 0.765 1.03 0.765h9.29c0.44 0 0.65-0.114 0.65-0.342 0-0.26-0.02-0.439-0.05-0.537m-14.08-15.54c0 0.244-0.19 0.375-0.6 0.375h-7.32c-0.47 0-0.72-0.114-0.72-0.326 0-0.114 0.05-0.276 0.12-0.488l5.32-12.009c0.14-0.293 0.26-0.456 0.32-0.488 0.08 0.065 0.15 0.244 0.22 0.488l2.62 11.895c0 0.049 0.01 0.13 0.04 0.277v0.276z"/><path d="m190.94 12.204c-0.41 0-0.64 0.293-0.72 0.879l-5.64 39.427c0 0.293 0.16 0.44 0.48 0.44h22.82c0.47 0 0.75-0.212 0.81-0.651l1.09-7.99c0-0.358-0.18-0.537-0.54-0.537h-10.91c-0.44 0-0.66-0.211-0.66-0.602v-0.114l4.07-30.364c0-0.325-0.18-0.488-0.55-0.488z"/><path d="m238.29 37.572c0-0.471 0.24-0.699 0.72-0.699h13.47c0.39 0 0.59-0.228 0.59-0.651v-11.081c0-0.472-0.2-0.7-0.59-0.7h-13.64c-0.35 0-0.55-0.261-0.55-0.781v-12.546c0-0.358-0.23-0.537-0.7-0.537h-11.08c-0.36 0-0.54 0.179-0.54 0.537v12.546c0 0.52-0.23 0.781-0.65 0.781h-14.56c-0.39 0-0.6 0.179-0.6 0.586v11.146c0 0.456 0.22 0.7 0.65 0.7h14.45c0.47 0 0.71 0.26 0.71 0.813v14.613c0 0.439 0.2 0.651 0.59 0.651h11.14c0.39 0 0.59-0.261 0.59-0.765z"/></g><g stroke-width=".68803"><path fill="#f00" d="m264.7 7.4961c31.36 0 62.7 0.0082 94.06 0-0.08 17.564 0.1 35.137-0.09 52.709-31.33-0.115-62.65 0.025-93.97-0.074 0.02-17.548 0.01-35.087 0-52.635z"/><path fill="#fff" d="m271.63 14.548c3.7-0.008 7.39-0.008 11.08 0.008-0.01 4.562 0.01 9.123-0.03 13.685 4.26 0.008 8.51 0 12.77 0.008-0.04-4.57-0.02-9.139-0.02-13.709 3.58 0.008 7.16 0.016 10.74-0.025 0.08 12.863 0.05 25.734 0.02 38.597-3.59-0.058-7.18-0.041-10.77-0.033 0-5.441 0.04-10.882-0.01-16.323-4.24 0.025-8.46 0.016-12.69 0.008-0.02 5.425-0.01 10.858 0 16.282-3.7 0.041-7.4 0.033-11.09 0.025 0.01-12.847 0-25.685 0-38.523z"/><path fill="#fff" d="m316.01 14.548c9.12 0.534 18.95-1.652 27.43 2.647 9.45 5.095 11.86 18.599 6.06 27.27-3.04 4.915-8.57 7.825-14.24 8.326-6.41 0.444-12.84 0.247-19.26 0.272 0.03-12.839 0.01-25.677 0.01-38.515z"/><path fill="#f00" d="m327.11 22.816c4.55-0.279 10.09 0.222 12.62 4.62 2.28 4.438 2.22 10.66-1.29 14.473-2.97 3.008-7.45 2.828-11.36 2.877 0.05-7.323 0-14.646 0.03-21.97z"/></g><path d="m519.28 102.59c5.26-6.882 13.9-10.639 22.47-10.708 7.73-0.326 15.78 1.738 21.65 6.97 9.19 7.478 11.54 21.478 6.49 31.968-5.01 8.98-13 15.66-19.52 23.47 7.61-0.05 15.2 0.01 22.81-0.02 0.23 5.49 0.01 10.99 0.13 16.49-1.44 0.21-2.89 0.38-4.35 0.37-15.53-0.05-31.07-0.01-46.6-0.02-3.39-0.03-6.79 0.16-10.16-0.24 9.16-10.72 19.97-19.97 28.64-31.13 4.28-5.38 8.91-10.89 10.53-17.75 1.69-4.87-0.65-11.21-5.77-12.88-4.16-1.76-9.44 0.88-10.63 5.22-0.6 2.22-0.82 4.52-1.21 6.78-6.84-0.13-13.69 0.15-20.52-0.16 0.4-6.5 1.78-13.22 6.04-18.36z" fill="#fff"/></svg>
