<svg xmlns="http://www.w3.org/2000/svg" height="321.39" width="600" viewBox="0 0 158.75 85.034404"><g transform="translate(-190.5-431.17)"><g fill="#fff"><path d="m221.1 460.4-1.32-10.24-4.24 10.24h-1.83l-4.03-10.24-1.5 10.24h-4.56l2.99-17.79h4.52l3.57 9.49 3.77-9.49h4.53l2.67 17.79z"/><path d="m239.74 455.49q0 4.89-6.36 4.91-6.37 0-6.37-4.91v-7.61h4.21v6.81q0 2.2 2.16 2.2 2.14 0 2.14-2.2v-6.81h4.22z"/><path d="m242.43 460.4v-19.38h4.22v19.38z"/><path d="m253.67 451.94v8.46h-4.22v-8.46h-1.39v-3.54h1.39v-3.6h4.22v3.6h2.41v3.54z"/><path d="m257.41 460.4v-12h4.22v12zm4.49-16.38q0 .51-.18.94-.19.42-.52.75t-.76.5q-.46.18-.93.18-.93 0-1.66-.69-.71-.71-.71-1.66 0-.5.19-.95t.51-.77q.31-.32.75-.51t.92-.19q.49 0 .93.19t.76.51q.33.34.52.76.18.43.18.94"/><path d="m270.57 440.78c-1.3 0-2.49.46-3.56 1.38-1.08.93-1.64 1.95-1.69 3.06l-.07 1.54v1.64h-1.52v3.54h1.52v8.46h4.22v-8.46h2.96v-3.54h-2.96v-2.23c0-1.13.5-1.69 1.5-1.69.37 0 .86.14 1.46.43v-3.68c-.61-.3-1.23-.45-1.86-.45"/><path d="m279.8 446.12-1.95-1.45 3.33-4.09 2.68 1.94zm6.35 9.37q0 4.89-6.35 4.91-6.38 0-6.38-4.91v-7.61h4.22v6.81q0 2.2 2.16 2.2 2.13 0 2.13-2.2v-6.81h4.22z"/><path d="m293.36 451.94v8.46h-4.21v-8.46h-1.39v-3.54h1.39v-3.6h4.21v3.6h2.42v3.54z"/><path d="m310.88 454c0 1.77-.58 3.29-1.74 4.55-1.15 1.23-2.59 1.85-4.31 1.85-1.41 0-2.49-.4-3.24-1.21l-.21-.21c-.07-.08-.15-.17-.24-.29v1.33h-4.22v-19.38h4.22v8.56c.2-.23.39-.4.57-.52.82-.69 1.88-1.04 3.16-1.04 1.75 0 3.19.62 4.32 1.87 1.12 1.23 1.69 2.73 1.69 4.49m-4.39.04c0-.77-.26-1.42-.79-1.94-.53-.54-1.18-.81-1.93-.81-.77 0-1.41.27-1.94.81-.54.52-.8 1.16-.8 1.92 0 .78.26 1.42.8 1.94.53.53 1.18.79 1.94.79.72 0 1.35-.26 1.9-.79.55-.55.82-1.19.82-1.92"/><path d="m326.34 453.95q0 3.01-2.19 4.79-2.02 1.66-5.02 1.66-3.12 0-5.16-1.78-2.03-1.8-2.03-4.55 0-3.05 2.13-4.86 1.99-1.71 4.99-1.71 3.25 0 5.24 1.8 2.04 1.82 2.04 4.65m-4.48-.02q0-1.17-.8-1.95-.8-.81-1.93-.81-1.11 0-1.91.81-.81.81-.81 1.92 0 .58.22 1.08.21.5.57.89.35.37.87.59.5.22 1.06.22 1.13 0 1.93-.81t.8-1.94"/><path d="m328.06 460.4v-19.38h4.22v19.38z"/><path stroke-width=".265" d="m190.5 431.17v38.79h11.4v7.73h11.94v-7.73h135.41v-38.79zm4.22 4.22h150.32v30.36h-135.41v7.72h-3.51v-7.72h-11.4z"/></g><path fill="#0feb0f" d="m246.59 469.64h46.57v46.57h-46.57z"/><path fill="#fff" d="m283.57 500.32q0 2.54-.97 4.66-.98 2.13-2.78 3.6-1.79 1.48-4.32 2.31-2.52.84-5.58.84-2.57 0-5.06-.9-2.44-.89-4.41-2.58-1.97-1.68-3.12-3.99-1.15-2.33-1.15-5.2h8.77q.2 1.55.69 2.5.52.98 1.2 1.53.68.56 1.48.8.78.22 1.65.22 2.09 0 3.34-1.36 1.26-1.37 1.26-3.47 0-2.21-1.49-3.33-1.48-1.12-3.85-1.12h-.33q-.34 0-.51.04v-6.08h.51q4.41 0 4.41-3.62 0-3.71-3.53-3.71-3.67 0-3.85 4.08h-8.31q.82-5.95 4.06-8.69t8.57-2.74q2.55 0 4.65.75t3.59 2.06q1.52 1.33 2.35 3.21.84 1.91.84 4.15 0 2.34-.89 4.05-.88 1.71-2.88 3.06 2.97.97 4.32 3.39 1.34 2.41 1.34 5.54"/></g></svg>