<svg xmlns="http://www.w3.org/2000/svg" viewBox="0 0 362 96"><path fill="#92015e" d="m303 12h-39-35v84h35 39v-12h59v-84h-59z"/><path fill="#01509f" d="m229 0h-72v84h72v12h35v-84h-35z"/><path fill="#3a7fcc" d="m95 0v84h62 72v-84h-72z"/><g fill="#4f6984"><path d="m95 12h-35v84h35v-12h62v-84h-62z"/><path d="m0 12v84h60 35v-84h-35z"/></g><path fill="#92015e" d="m264 12h39v84h-39z"/><path fill="#bd005f" d="m303 0h59v84h-59z"/><path fill="#56006d" d="m229 12h35v84h-35z"/><path fill="#01509f" d="m157 0h72v84h-72z"/><path fill="#3a7fcc" d="m95 0h62v84h-62z"/><path fill="#4f6984" d="m60 12h35v84h-35z"/><path fill="#2d3740" d="m0 12h60v84h-60z"/><g fill="#fff"><path d="m296.12 22.06h-7.704l-17.712 48.02h13.536l3.096-8.568h8.784 9.07l3.239 8.568h10.656 3.096l-3.096-7.704-15.623-40.32h-7.344m0 29.592h-5.688l5.688-17.208v.072l5.688 17.14h-5.688"/><path d="m339.75 70.08v-36.644h9.93v-11.376h-16.77-13.83-3.02v11.376h3.02 7.06v36.644h6.77z"/><path d="m255.92 58.924l-1.15.792-1.08.364-.29.07-1.65.21-1.73-.14-1.87-.58-2.23-.932-2.24-1.368-2.73-2.23-4.97 9.36 2.66 2.09 2.81 1.65 2.95 1.3 3.1.86 3.31.435 2.88.071h.5l3.32-.356 3.24-.94 3.09-1.44 2.38-1.73 1.8-1.94 1.37-1.95 1.01-2.08.72-2.38.28-2.52v-2.23l-.36-2.16-.72-2.306-1.22-2.304-1.66-2.16-1.94-1.728-2.16-1.222-2.38-.938-2.88-.792-2.52-.58-1.87-.572h-.07l-1.3-.72-.72-.936-.43-1.08.07-1.296.44-1.152.79-1.01 1.08-.648.14-.072 1.15-.288 1.59-.148 1.65.22 1.73.576 1.73.864 2.95 1.944 4.54-9.288-2.67-1.584-3.02-1.296-3.17-.936-3.31-.58h-3.17-.29l-3.38.436-2.88.936-2.66 1.44-2.17 1.728-1.72 1.944-1.37 2.232-.94 2.444-.57 2.452-.07 2.588.43 2.74.93 2.52 1.3 2.088 1.58 1.802 1.95 1.366 2.37 1.01 4.04 1.152 3.09.864.36.14 1.15.51 1.16 1.01.86 1.292.43 1.368-.07 1.37-.43 1.294z"/><path d="m42.05 32.585c3.725 0 8.149 1.149 11.04 2.947 1.157.769 1.472.896 1.729.896.383 0 .451-.061.704-1.406l1.601-8.02c.133-.642.195-.9.195-1.156 0-.515-.125-.638-.577-.959-4.167-2.694-10.39-4.359-16.286-4.359-16.1 0-27.775 11.219-27.775 26.736 0 15.01 10.582 25.14 26.1 25.14 4.299 0 7.763-.771 10.202-2.248.642-.379.705-.515.896-1.854l1.282-8.853c.065-.578.065-.83.065-.96 0-.388-.065-.575-.19-.575-.13 0-.322.06-.575.188-.387.195-.836.321-1.414.518-3.403.96-6.544 1.602-9.04 1.602-7.507 0-12.954-5.645-12.954-13.403 0-8.408 6.152-14.236 15-14.236"/><path d="m90.86 22.19h-14.816c-.9 0-1.09.127-1.477.896l-22.832 46.17c-.064.198-.128.387-.128.58 0 .263.19.453.514.453h12.44c.834 0 1.282-.258 1.54-.771l3.208-6.603c.321-.642.576-.771 1.282-.771h15.649c.515 0 .963.324 1.03.834l1.666 6.665c.127.389.446.646.898.646h11.1c.384 0 .575-.19.575-.584v-.251l-9.561-46.23c-.188-.772-.443-1.029-1.084-1.029m-6.738 29.18h-9.299c-.256 0-.449-.063-.449-.195.065-.191.065-.191.131-.379l6.221-14.11c.127-.26.259-.449.319-.449.068 0 .257.257.322.643l3.271 13.654c.062.261.128.448.128.578 0 .131-.193.256-.644.256"/><path d="m156.49 22.898c0-.577-.192-.704-.834-.704h-11.353c-.962 0-1.153.193-1.283.96l-3.46 24.878c-.069.585-.195.966-.319.966-.132 0-.322-.256-.582-.704l-14.364-25.2c-.452-.832-.577-.896-1.541-.896h-12.183c-.582 0-.965.257-1.028.828l-6.282 46.37v.253c0 .58.124.646 1.089.646h10.708c.643 0 .96-.258 1.026-.899l3.848-27.449c.066-.448.127-.829.196-.829.06 0 .252.255.51.64l15.713 27.639c.384.709.772.899 1.54.899h10.967c.835 0 1.155-.19 1.216-.771l6.417-46.43v-.194z"/><path d="m185.83 23.15c-.308-.833-.459-.96-1.29-.96h-14.11c-.832 0-1.068.127-1.29.828l-16.194 46.37c-.095.253-.128.446-.109.578.026.189.236.321.554.321h12.317c.708 0 1.068-.19 1.25-.713l2.516-6.729c.235-.641.414-.704 1.253-.704h14.813c1.03 0 1.172.13 1.486 1.024l2.098 6.222c.227.709.578.899 1.346.899h10.966c.58 0 .762-.066.717-.388-.027-.196-.063-.447-.155-.646l-16.17-46.1m-3.666 28.22h-8.657c-.64 0-.849-.125-.886-.387-.025-.188.006-.381.044-.577l4.293-14.168c.142-.381.242-.581.304-.581.068 0 .229.261.336.581l5.058 14.04c.027.192.126.447.152.641.036.254-.194.449-.644.449"/><path d="m233.12 59.45h-12.887c-.581 0-.802-.194-.873-.705l-.1-.125v-35.599l-.147-.254c-.063-.447-.21-.574-.722-.574h-12.12c-.51 0-.892.257-.908 1.028v46.23l.092.324c.054.379.202.511.652.511h26.936c.641 0 .823-.19.809-.771v-9.168-.26c-.073-.509-.215-.639-.73-.639"/></g></svg>