<svg xmlns="http://www.w3.org/2000/svg" viewBox="0 0 600 180.12"><defs><clipPath id="0"><path d="m419.76 279.54h27.822v7.506h-27.822v-7.506"/></clipPath><clipPath id="1"><path d="m423.72 280.3h19.898v5.974h-19.898v-5.974"/></clipPath></defs><g transform="translate(-89.31-376.41)"><g clip-path="url(#0)" transform="matrix(30.1538 0 0-30.1538-12687.42 9008.77)"><path d="m0 0l-.268 3.062h-5.601l.31-3.548 5.559.486" fill="#8d198f" transform="translate(443.62 280.79)"/><g fill="#fff"><path d="m0 0l-.596 1.565h.259l.339-.909.338.909h.26l-.6-1.565" transform="translate(439.23 280.95)"/><path d="m0 0c-.268 0-.486-.218-.486-.486 0-.274.216-.498.481-.498.27 0 .489.221.489.491 0 .272-.217.493-.484.493m0-1.214c-.394 0-.727.325-.727.709 0 .407.324.737.723.737.404 0 .732-.325.732-.725 0-.397-.327-.721-.728-.721" transform="translate(440.72 282.3)"/></g></g><g clip-path="url(#1)" transform="matrix(30.1538 0 0-30.1538-12687.42 9008.77)"><path d="m0 0h.08c.306 0 .505.185.505.47 0 .286-.199.47-.505.47h-.08v-.94m.073-.23h-.314v1.401h.316c.219 0 .376-.05.51-.163.156-.132.243-.323.243-.538 0-.217-.087-.403-.25-.538-.137-.115-.283-.162-.505-.162" fill="#fff" transform="translate(442.07 281.34)"/><path d="m423.72 282.83h18.367v3.061h-18.367v-3.061" fill="#191a21"/></g><g clip-path="url(#0)" transform="matrix(30.1538 0 0-30.1538-12687.42 9008.77)" fill="#fff"><path d="m0 0h-.519l.445.809-.632 1.094h.537l.35-.648.342.648h.53l-1.053-1.903" transform="translate(440.61 283.45)"/><path d="m0 0c-.003-.021-.013-.037-.013-.037 0 0-.011-.001-.029-.015-.251-.102-.53-.068-.53-.068-.452.049-.739.326-.831.684-.136.536.134.917.199.998.159.191.407.327.65.358.311.044.541-.029.635-.06 0 0 .104-.034.183-.086.039-.027.044-.037.044-.037 0 0 .003-.005-.008-.047l-.072-.384c-.003-.016-.014-.024-.014-.024 0 0-.005-.002-.042.021-.235.167-.509.147-.509.147-.209-.013-.452-.123-.525-.4-.065-.245.003-.452.149-.575.099-.086.253-.131.415-.122.178.012.319.083.309.078 0 0 .007.002.015.005.037.018.045.016.045.016 0 0 .007-.008.002-.032l-.073-.42" transform="translate(425.72 283.53)"/><path d="m0 0h-.469-.015c0 0-.002.002-.005.005l-.65 1.154c-.005.006-.008.006-.008.006 0 0-.005 0-.005-.008l-.161-1.134c-.003-.013-.005-.015-.005-.015 0 0-.006-.003-.013-.003h-.466c-.008 0-.013.005-.013.005 0 0-.001.001-.008.021l.256 1.835c.003.001.008.013.008.013 0 0 .008.008.015.008h.52c.008 0 .013-.005.013-.005 0 0 .005-.003.008-.011l.586-1.029c.001-.02.018-.018.018-.018 0 0 .007 0 .012.023l.149 1.024c0 .008.005.011.005.011 0 0 .003.002.001.002h.49c.001 0 .012-.005.012-.005 0 0 .003-.003.003-.008l-.264-1.851c-.003-.001-.008-.018-.008-.018 0 0-.002-.002-.015-.002" transform="translate(429.78 283.46)"/><path d="m0 0c0 0-.003-.002-.005-.002l-.376.002c-.013 0-.016.003-.016.003 0 0-.002.005.003.013l.256.581c.003.005.005.005.005.005 0 0 .003 0 .003-.005l.13-.587c.003-.007 0-.001 0-.001m.237 1.127c-.003.007-.005.001-.005.001 0 0-.008.008-.018.008h-.586-.018c0 0-.008-.003-.013-.013l-.919-1.849c-.005-.001-.003-.018-.003-.018 0 0 .003-.007.018-.005h.53c.008 0 .015.005.015.005 0 0 .003.003.008.013l.128.274c.008.018.018.026.018.026 0 0 .008.001.021.001h.642.008c0 0 .005-.002.005-.001l.072-.295c.002-.018.005-.02.005-.02 0 0 .008-.004.018-.004h.455c.006 0 .008.004.008.004 0 0 .005.002.005.001l-.394 1.854" transform="translate(427.18 284.2)"/><path d="m0 0c-.008 0-.013.006-.001.014l.196.571c.002.008.007.008.009 0l.192-.57c.002-.009-.002-.015-.011-.015h-.376m-.058 1.189c-.009 0-.018-.007-.021-.015l-.715-1.86c-.003-.008.002-.015.001-.015h.488c.009 0 .018.007.021.014l.118.3c.003.007.012.014.02.014h.647c.009 0 .018-.007.021-.014l.113-.299c.003-.008.012-.015.02-.015h.494c.009 0 .013.007.001.015l-.702 1.86c-.003.008-.012.015-.021.015h-.503" transform="translate(430.8 284.16)"/><path d="m0 0c0-.009.008-.017.017-.017h.516c.009 0 .017-.008.017-.018v-.44c0-.001-.008-.018-.017-.018h-1.077c-.001 0-.018.008-.018.018v1.882c0 .009.008.017.018.017h.527c.009 0 .017-.008.017-.017v-1.407" transform="translate(432.65 283.94)"/><path d="m0 0h-1.042l.234 1.906h.483l-.183-1.487h.559l-.051-.419" transform="translate(437.83 283.45)"/><path d="m0 0l-.209-.608h.412l-.203.608m.463-1.316l-.125.33h-.684l-.129-.33h-.524l.732 1.905h.539l.719-1.905h-.528" transform="translate(438.98 284.77)"/></g><g clip-path="url(#1)" transform="matrix(30.1538 0 0-30.1538-12687.42 9008.77)"><path d="m0 0c0 .16-.089.239-.27.239h-.165v-.476h.163c.181 0 .272.079.272.237m.519.005c0-.427-.214-.641-.643-.641h-.311v-.633h-.496v1.907h.789c.203 0 .361-.053.475-.16.125-.117.186-.275.186-.473" fill="#fff" transform="translate(436.22 284.72)"/><path d="M 0,0 0,3.244 2.782,1.621 0,0 z" fill="#191a21" transform="translate(433.33 283.03)"/></g><g clip-path="url(#0)" transform="matrix(30.1538 0 0-30.1538-12687.42 9008.77)"><path d="M 0,0 0,-2.661 2.282,-1.332 0,0 z" fill="#8d198f" transform="translate(433.5 285.99)"/></g></g></svg>