<svg xmlns="http://www.w3.org/2000/svg" height="449.91" viewBox="0 0 599.99999 449.91324"><g stroke-width="1.5"><path fill="#e60a2d" d="M 0,149.96 H599.96 V449.91 H0 z"/><path d="m0 0h600v149.96h-600z"/></g><g fill="#fff"><g stroke-width="1.5"><path d="m111.33 36.687c.25-1.23.37-1.968.37-2.214 0-.737-.37-1.332-1.11-1.844-8.5-5.554-18.894-8.321-31.15-8.321-15.351 0-28.06 4.816-38.06 14.469-10 9.633-15.02 21.869-15.02 36.646 0 14.306 4.611 25.887 13.793 34.757 9.203 8.88 21.233 13.3 36.11 13.3 8.26 0 14.757-1.43 19.491-4.28.902-.51 1.476-1.68 1.722-3.57 0 0 2.521-17.765 2.624-18.441.2-1.414-.554-1.23-4.223-.061-7.03 2.049-12.789 3.052-17.298 3.052-7.173 0-13.1-2.397-17.769-7.213-4.653-4.837-6.989-10.945-6.989-18.384 0-8.03 2.664-14.572 7.972-19.635 5.309-5.062 12.216-7.604 20.721-7.604 8.178 0 15.208 1.886 21.09 5.657 1.81 1.127 2.91 1.701 3.3 1.701.58 0 1.03-.902 1.36-2.705l3.07-15.31"/><path d="m182.08 29.473c-.25-1.312-.94-1.968-2.09-1.968h-28.3c-1.32 0-2.26.574-2.83 1.722l-43.66 88.27c-.16.49-.22.84-.22 1.09 0 .59.3.88.98.88h23.78c1.45 0 2.43-.49 2.95-1.48l6.1-12.62c.5-.99 1.32-1.48 2.46-1.48h29.93c1.14 0 1.8.53 1.96 1.6l3.18 12.75c.17.82.74 1.23 1.72 1.23h21.22c.73 0 1.08-.37 1.08-1.13v-.47l-18.26-88.4m-14.96 53.82h-17.77c-.57 0-.86-.123-.86-.369l.24-.717 11.91-26.972c.23-.512.43-.799.6-.881.24.164.45.574.61 1.23l6.25 26.11c.17.676.25 1.024.25 1.106 0 .308-.41.492-1.23.492"/><path d="m211.98 118.24c0 .8.7 1.23 2.09 1.23h20.48c1.15 0 1.8-.6 1.97-1.72l7.35-52.49c.17-1.045.29-1.578.35-1.578.25.164.6.574.99 1.209l30.04 52.862c.66 1.12 1.64 1.72 2.95 1.72h20.95c1.39 0 2.17-.51 2.34-1.48l12.25-89.13c0-.902-.53-1.353-1.58-1.353h-21.7c-1.48 0-2.3.615-2.46 1.845l-6.62 47.569c-.16 1.23-.37 1.824-.61 1.824-.25 0-.62-.43-1.11-1.352l-27.47-48.16c-.65-1.148-1.63-1.722-2.93-1.722h-23.3c-1.15 0-1.78.533-1.97 1.599l-12.01 89.14"/><path d="m406.32 117.5l-18.51-88.15c-.24-1.21-1-1.825-2.23-1.825h-26.95c-1.34 0-2.22.533-2.71 1.579l-43.41 88.65c-.22.51-.35.86-.35 1.1 0 .41.31.62.97.62h23.55c1.21 0 2.07-.45 2.58-1.33l6.6-12.9c.49-.9 1.35-1.33 2.58-1.33h28.33c1.45 0 2.31.64 2.58 1.95l2.31 11.89c.25 1.14 1.03 1.72 2.34 1.72h20.97c.96 0 1.45-.25 1.45-.74 0-.57-.02-1-.1-1.23m-31.77-35.05c0 .553-.45.84-1.35.84h-16.54c-1.07 0-1.6-.246-1.6-.738 0-.225.08-.594.25-1.086l12.01-27.09c.32-.676.57-1.024.73-1.106.17.164.33.532.5 1.106l5.88 26.849c0 .082.04.287.12.615v.615z"/><path d="m430.95 27.484c-.92 0-1.43.656-1.59 1.968l-12.75 88.988c0 .68.37 1.01 1.1 1.01h51.49c1.06 0 1.68-.52 1.84-1.48l2.46-18.01c0-.84-.43-1.25-1.23-1.25h-24.63c-1.01 0-1.48-.431-1.48-1.333v-.266l9.18-68.54c0-.718-.41-1.087-1.23-1.087h-23.16"/><path d="m537.86 84.73c0-1.066.53-1.599 1.6-1.599h30.41c.9 0 1.33-.492 1.33-1.455v-25.02c0-1.065-.43-1.578-1.33-1.578h-30.78c-.82 0-1.23-.574-1.23-1.721v-28.325c0-.82-.53-1.23-1.6-1.23h-25c-.82 0-1.23.41-1.23 1.23v28.325c0 1.147-.48 1.721-1.48 1.721h-32.85c-.91 0-1.34.431-1.34 1.332v25.15c0 1.045.48 1.578 1.46 1.578h32.61c1.08 0 1.6.636 1.6 1.845v32.996c0 .96.45 1.46 1.35 1.46h25.13c.9 0 1.35-.58 1.35-1.73v-32.972"/></g><g transform="matrix(20.495 0 0 20.495-2074.1-2437.5)"><path d="m106.24 133.1l-2.68-3.9h2.68l1.24 2.17 1.3-2.17h2.66l-2.72 3.9 3.16 4.46h-2.62l-1.8-2.72-1.87 2.72h-2.62l3.27-4.46"/><path d="m114.58 133.58v3.98h-2v-3.98h-.66v-1.66h.66v-1.7h2v1.7h1.15v1.66h-1.15"/></g><g stroke-width="1.5"><path d="m313 266.17h41.18v18.98c6.17-10.41 15.47-16.93 27.91-19.53 6.17-1.13 12.3-1.31 18.41-.55v38.83c-6.11-2.76-11.79-4.14-17.07-4.14-8.92 0-16.01 2.61-21.2 7.81-2.99 2.89-5.06 6.21-6.25 9.94-1.21 3.63-1.8 8.57-1.8 14.72v49.56h-41.18v-115.62"/><path d="m475.86 296.96c-7.13 0-13.32 2.6-18.53 7.81-5.2 5.12-7.81 11.31-7.81 18.52 0 7.52 2.61 13.9 7.81 19.1 5.13 5.13 11.36 7.69 18.65 7.69 7.36 0 13.61-2.6 18.74-7.81 5.2-5.2 7.8-11.46 7.8-18.75 0-7.3-2.6-13.55-7.8-18.75-5.13-5.21-11.42-7.81-18.86-7.81m25.56-31.69h41.19v116.54h-41.19v-12.83c-8.77 11.15-20.87 16.72-36.28 16.72-15.92 0-29.45-5.63-40.62-16.95-11.99-12.11-17.98-27.28-17.98-45.44 0-18.01 5.93-32.95 17.75-44.86 11.15-11.23 24.86-16.87 41.08-16.87 7.37 0 14.45 1.4 21.21 4.14 4.47 1.78 9.41 5.45 14.84 10.95z"/></g></g></svg>