<?xml version="1.0" encoding="UTF-8" standalone="no"?>
<svg xmlns:rdf="http://www.w3.org/1999/02/22-rdf-syntax-ns#" xmlns="http://www.w3.org/2000/svg" height="321.39" width="600" version="1.1" xmlns:cc="http://creativecommons.org/ns#" xmlns:dc="http://purl.org/dc/elements/1.1/" viewBox="0 0 158.75 85.034404">
 <g transform="translate(-190.5 -431.17)">
  <g fill="#fff">
   <path d="m221.1 460.4-1.32-10.24-4.24 10.24h-1.83l-4.03-10.24-1.5 10.24h-4.56l2.99-17.79h4.52l3.57 9.49 3.77-9.49h4.53l2.67 17.79z"/>
   <path d="m239.74 455.49q0 4.89-6.36 4.91-6.37 0-6.37-4.91v-7.61h4.21v6.81q0 2.2 2.16 2.2 2.14 0 2.14-2.2v-6.81h4.22z"/>
   <path d="m242.43 460.4v-19.38h4.22v19.38z"/>
   <path d="m253.67 451.94v8.46h-4.22v-8.46h-1.39v-3.54h1.39v-3.6h4.22v3.6h2.41v3.54z"/>
   <path d="m257.41 460.4v-12h4.22v12zm4.49-16.38q0 0.51-0.18 0.94-0.19 0.42-0.52 0.75t-0.76 0.5q-0.46 0.18-0.93 0.18-0.93 0-1.66-0.69-0.71-0.71-0.71-1.66 0-0.5 0.19-0.95t0.51-0.77q0.31-0.32 0.75-0.51t0.92-0.19q0.49 0 0.93 0.19t0.76 0.51q0.33 0.34 0.52 0.76 0.18 0.43 0.18 0.94z"/>
   <path d="m270.57 440.78c-1.3 0-2.49 0.46-3.56 1.38-1.08 0.93-1.64 1.95-1.69 3.06l-0.07 1.54v1.64h-1.52v3.54h1.52v8.46h4.22v-8.46h2.96v-3.54h-2.96v-2.23c0-1.13 0.5-1.69 1.5-1.69 0.37 0 0.86 0.14 1.46 0.43v-3.68c-0.61-0.3-1.23-0.45-1.86-0.45z"/>
   <path d="m279.8 446.12-1.95-1.45 3.33-4.09 2.68 1.94zm6.35 9.37q0 4.89-6.35 4.91-6.38 0-6.38-4.91v-7.61h4.22v6.81q0 2.2 2.16 2.2 2.13 0 2.13-2.2v-6.81h4.22z"/>
   <path d="m293.36 451.94v8.46h-4.21v-8.46h-1.39v-3.54h1.39v-3.6h4.21v3.6h2.42v3.54z"/>
   <path d="m310.88 454c0 1.77-0.58 3.29-1.74 4.55-1.15 1.23-2.59 1.85-4.31 1.85-1.41 0-2.49-0.4-3.24-1.21l-0.21-0.21c-0.07-0.08-0.15-0.17-0.24-0.29v1.33h-4.22v-19.38h4.22v8.56c0.2-0.23 0.39-0.4 0.57-0.52 0.82-0.69 1.88-1.04 3.16-1.04 1.75 0 3.19 0.62 4.32 1.87 1.12 1.23 1.69 2.73 1.69 4.49zm-4.39 0.04c0-0.77-0.26-1.42-0.79-1.94-0.53-0.54-1.18-0.81-1.93-0.81-0.77 0-1.41 0.27-1.94 0.81-0.54 0.52-0.8 1.16-0.8 1.92 0 0.78 0.26 1.42 0.8 1.94 0.53 0.53 1.18 0.79 1.94 0.79 0.72 0 1.35-0.26 1.9-0.79 0.55-0.55 0.82-1.19 0.82-1.92z"/>
   <path d="m326.34 453.95q0 3.01-2.19 4.79-2.02 1.66-5.02 1.66-3.12 0-5.16-1.78-2.03-1.8-2.03-4.55 0-3.05 2.13-4.86 1.99-1.71 4.99-1.71 3.25 0 5.24 1.8 2.04 1.82 2.04 4.65zm-4.48-0.02q0-1.17-0.8-1.95-0.8-0.81-1.93-0.81-1.11 0-1.91 0.81-0.81 0.81-0.81 1.92 0 0.58 0.22 1.08 0.21 0.5 0.57 0.89 0.35 0.37 0.87 0.59 0.5 0.22 1.06 0.22 1.13 0 1.93-0.81t0.8-1.94z"/>
   <path d="m328.06 460.4v-19.38h4.22v19.38z"/>
   <path stroke-width=".26458" d="m190.5 431.17v38.79h11.4v7.73h11.94v-7.73h135.41v-38.79zm4.22 4.22h150.32v30.36h-135.41v7.72h-3.51v-7.72h-11.4z"/>
  </g>
  <path fill="#0feb0f" d="m246.59 469.64h46.57v46.57h-46.57z"/>
  <path fill="#fff" d="m283.57 500.32q0 2.54-0.97 4.66-0.98 2.13-2.78 3.6-1.79 1.48-4.32 2.31-2.52 0.84-5.58 0.84-2.57 0-5.06-0.9-2.44-0.89-4.41-2.58-1.97-1.68-3.12-3.99-1.15-2.33-1.15-5.2h8.77q0.2 1.55 0.69 2.5 0.52 0.98 1.2 1.53 0.68 0.56 1.48 0.8 0.78 0.22 1.65 0.22 2.09 0 3.34-1.36 1.26-1.37 1.26-3.47 0-2.21-1.49-3.33-1.48-1.12-3.85-1.12h-0.33q-0.34 0-0.51 0.04v-6.08h0.51q4.41 0 4.41-3.62 0-3.71-3.53-3.71-3.67 0-3.85 4.08h-8.31q0.82-5.95 4.06-8.69t8.57-2.74q2.55 0 4.65 0.75t3.59 2.06q1.52 1.33 2.35 3.21 0.84 1.91 0.84 4.15 0 2.34-0.89 4.05-0.88 1.71-2.88 3.06 2.97 0.97 4.32 3.39 1.34 2.41 1.34 5.54z"/>
 </g>
</svg>
