<svg xmlns="http://www.w3.org/2000/svg" viewBox="0 0 600 432.82"><defs><clipPath id="0"><path d="m47.49 369.18h13.451v9.703h-13.451v-9.703"/></clipPath></defs><g transform="translate(-50-315.95)"><g clip-path="url(#0)" transform="matrix(44.60635 0 0-44.60635-2068.53 17216.54)"><path d="m60.945 369.18h-13.451v9.703h13.451v-9.703" fill="#231f20"/><g fill="#fff"><path d="m0 0l-.96-.084-.287.566-1.232-.108-.328-1.241h-.96l1.17 4.129.305.027-.074.147.845.074.54-1.121-.162-.014 1.143-2.374" transform="translate(52.14 374.51)"/><path d="m0 0v3.532h.903v-2.767h1.059v-.765h-1.962" transform="translate(52.919 374.34)"/><path d="m0 0c0-.241-.019-.431-.061-.575-.052-.18-.146-.342-.282-.495-.296-.329-.705-.491-1.217-.491-.249 0-.483.041-.695.12-.488.186-.751.533-.803 1.093-.009.102-.014.218-.014.348v2.01h.916v-1.881c0-.218.004-.352.019-.408.014-.069.037-.143.079-.213.104-.18.273-.269.513-.269.248 0 .427.093.535.283.061.112.094.315.094.607v1.881h.916v-2.01" transform="translate(52.866 371.63)"/><path d="m0 0l-1.653 2.126v-2.126h-.9v3.475h.9l1.653-2.127v2.127h.9v-3.475h-.9" transform="translate(56.24 370.16)"/><path d="m0 0v3.475h1.974v-.765h-1.071v-.578h1.015v-.765h-1.015v-.602h1.071v-.765h-1.974" transform="translate(57.844 370.16)"/><path d="m0 0l-.978-.086-1.18-4.129.951-.002.336 1.257 1.241.109.279-.581.96.085-1.609 3.347" transform="translate(57.15 377.85)"/></g><g fill="#2787d0"><path d="m0 0l-.43 1.273-.435-1.273h.865" transform="translate(50.606 375.61)"/><path d="m0 0l.435 1.273.43-1.273h-.865" transform="translate(56.39 375.59)"/></g></g></g></svg>