<svg xmlns="http://www.w3.org/2000/svg" viewBox="0 0 529.99 94.97"><path d="m0 94.97h529.99v-94.97h-529.99v94.97" fill="#000408"/><g fill="#fff"><path d="m70.52 23.272l.216-1.406-.689-1.148c-5.395-3.53-11.98-5.294-19.728-5.294-9.728 0-17.763 3.056-24.12 9.154-6.327 6.112-9.498 13.86-9.498 23.23 0 9.05 2.913 16.4 8.723 22.01 5.825 5.624 13.458 8.422 22.885 8.422 5.223 0 9.34-.903 12.339-2.712l1.09-2.253 1.664-11.708c.103-.876-.358-.746-2.669-.012-4.448 1.291-8.121 1.937-10.947 1.937-4.563 0-8.322-1.535-11.263-4.577-2.956-3.07-4.433-6.944-4.433-11.65 0-5.079 1.679-9.211 5.05-12.425 3.372-3.2 7.719-4.821 13.13-4.821 5.165 0 9.627 1.205 13.329 3.587l2.123 1.09.832-1.722 1.966-9.699"/><path d="m115.31 18.695l-1.32-1.263h-17.935l-1.793 1.104-27.634 55.913-.158.689.631.545h15.05l1.851-.933 3.903-8.01 1.55-.933h18.939l1.263 1.019 2.01 8.08 1.076.775h13.444l.704-.704v-.302l-11.579-55.985zm-9.47 34.08h-11.277l-.517-.23.143-.473 7.533-17.06.402-.56.387.775 3.946 16.543.158.689-.775.316"/><path d="m134.27 74.91l1.306.775h12.97l1.248-1.09 4.663-33.23.23-1.019.603.79 19.04 33.459 1.865 1.09h13.272l1.478-.933 7.777-56.46-1.033-.861h-13.731l-1.564 1.177-4.175 30.12-.387 1.177-.704-.861-17.418-30.503-1.822-1.104h-14.778l-1.248 1.019-7.59 56.46"/><path d="m257.33 74.45l-11.722-55.842-1.392-1.177h-17.09l-1.707 1.019-27.476 56.14-.244.704.631.387h14.893l1.621-.876 4.204-8.135 1.636-.861h17.92l1.636 1.234 1.463 7.547 1.507 1.09h13.272l.932-.473-.08-.761m-20.12-22.22l-.832.545h-10.488l-1-.459.143-.704 7.604-17.16.459-.702.316.702 3.716 17 .08.387v.387"/><path d="m272.94 17.433l-1 1.263-8.08 56.37.702.618h32.613l1.148-.933 1.55-11.421-.775-.775h-15.596l-.947-.847v-.157l5.84-43.42-.79-.702h-14.663"/><path d="m340.65 53.718l1-1.019h19.255l.847-.933v-15.84l-.847-1.019h-19.47l-.79-1.09v-17.92l-1-.79h-15.854l-.761.79v17.92l-.932 1.09h-20.819l-.861.861v15.926l.933 1h20.661l1.019 1.162v20.89l.847.933h15.897l.876-1.09v-20.876"/></g><g transform="matrix(1.03541 0 0 1.03541-36.03-4.356)"><path d="m399.95 11.763c45.573 0 91.13.012 136.71 0-.108 25.528.143 51.07-.131 76.61-45.525-.167-91.05.036-136.58-.108.024-25.504.012-50.997 0-76.5" fill="#f00"/><g fill="#fff"><path d="m410.02 22.01c5.376-.012 10.739-.012 16.1.012-.012 6.63.024 13.26-.036 19.89 6.188.012 12.364 0 18.552.012-.048-6.642-.024-13.284-.024-19.926 5.196.012 10.405.024 15.613-.036.119 18.695.072 37.4.024 56.1-5.22-.084-10.429-.06-15.649-.048 0-7.908.048-15.816-.024-23.724-6.152.036-12.292.024-18.444.012-.024 7.884-.012 15.78 0 23.665-5.376.06-10.751.048-16.11.036.012-18.671 0-37.33 0-55.99"/><path d="m474.53 22.01c13.248.776 27.535-2.401 39.863 3.847 13.738 7.406 17.238 27.03 8.816 39.636-4.42 7.144-12.459 11.372-20.702 12.1-9.318.645-18.659.358-27.989.394.036-18.659.012-37.32.012-55.978"/></g><path d="m490.67 34.03c6.606-.406 14.657.323 18.337 6.714 3.309 6.451 3.225 15.494-1.875 21.04-4.312 4.372-10.835 4.109-16.509 4.181.072-10.644 0-21.287.048-31.931" fill="#f00"/></g></svg>