<svg xmlns="http://www.w3.org/2000/svg" enable-background="new 0 0 86 32" height="327.33" viewBox="0 0 600 327.32781"><path fill="#ff6419" d="m0 109.1h600v218.23h-600z"/><g fill="#fff"><path d="m98.75 208.6h64.13c-.05 9.04-.54 16.38-1.54 22.01-2.39 13.74-7.86 24.99-16.41 33.77-11.64 11.89-26.97 17.85-45.948 17.85-19.673 0-35.673-6.11-47.975-18.34-12.302-12.3-18.44-28.25-18.44-47.9 0-19.77 6.112-35.75 18.44-48 12.482-12.51 28.944-18.75 49.36-18.75 18.18 0 32.67 5.58 43.48 16.72 3.54 3.68 7.68 9.81 12.43 18.37l-30.77 12.81c-2.59-5.47-4.98-9.35-7.21-11.68-5.24-5.53-11.64-8.3-19.16-8.3-10.376 0-18.723 4.34-24.938 13-5.111 7.16-7.731 15.92-7.731 26.29 0 12.64 3.698 22.61 10.967 29.98 6.06 6.11 13.611 9.17 22.675 9.17 9.15 0 15.95-3.06 20.39-9.17 2.21-2.98 3.81-7.22 4.83-12.74h-26.604v-25.09"/><path d="m223.16 216.22c-5.19 0-9.68 1.9-13.46 5.71-3.77 3.72-5.7 8.21-5.7 13.45 0 5.47 1.9 10.1 5.7 13.9 3.75 3.72 8.25 5.6 13.54 5.6 5.36 0 9.91-1.9 13.63-5.68 3.78-3.75 5.71-8.29 5.71-13.66 0-5.34-1.88-9.89-5.63-13.61-3.72-3.78-8.32-5.71-13.79-5.71m.33-25.73c10.76 0 20.42 2.44 29 7.29 6.98 4.01 12.35 9.33 16.15 15.93 3.78 6.55 5.68 13.89 5.68 22.01 0 12.22-4.06 22.44-12.25 30.69-4.68 4.6-10.3 8.14-16.9 10.63-6.81 2.59-14.15 3.9-21.99 3.9-16.02 0-28.89-4.88-38.62-14.61-8.2-8.11-12.3-18.11-12.3-29.97 0-12.56 4.23-23.09 12.66-31.59 9.42-9.53 22.26-14.28 38.57-14.28z"/><path d="m287.13 153.07h29.946v124.69h-29.946z"/><path d="m371.61 218.41v59.35h-29.95v-59.35h-10.81v-24.76h10.81v1.28l.49-10.78c.28-5.91 2.69-11.51 7.32-16.83 3.98-4.7 8.96-8.34 14.82-10.94 5.03-2.23 10.19-3.34 15.46-3.34 2.49 0 4.54.21 6.16.57 1.62.38 3.83 1.26 6.65 2.62v25.81c-4.31-2-7.73-3-10.22-3-3.39 0-6.03 1.05-7.96 3.15-1.82 2.06-2.75 4.94-2.75 8.61v6.34-3.49h20.93v24.76h-20.95"/><g stroke-width="1.091"><path d="m80.983 26.742c.162-.89.27-1.43.27-1.619 0-.513-.27-.971-.81-1.322-6.18-4.048-13.735-6.072-22.641-6.072-11.171 0-20.4 3.508-27.686 10.524s-10.929 15.895-10.929 26.662c0 10.416 3.346 18.835 10.01 25.285 6.693 6.449 15.463 9.66 26.28 9.66 5.99 0 10.713-1.025 14.167-3.103.648-.351 1.079-1.214 1.268-2.59 0 0 1.835-12.926 1.889-13.439.162-1.026-.405-.864-3.076-.027-5.1 1.484-9.283 2.24-12.548 2.24-5.262 0-9.553-1.754-12.926-5.262-3.4-3.508-5.1-7.961-5.1-13.385 0-5.829 1.943-10.578 5.802-14.275 3.858-3.67 8.878-5.532 15.06-5.532 5.964 0 11.06 1.376 15.355 4.129 1.295.809 2.105 1.241 2.401 1.241.405 0 .729-.648.972-1.97l2.24-11.145"/><path d="m132.44 21.48c-.19-.944-.7-1.43-1.53-1.43h-20.59c-.95 0-1.62.405-2.06 1.241l-31.73 64.22c-.135.351-.189.62-.189.782 0 .432.243.648.702.648h17.324c1.053 0 1.781-.378 2.132-1.079l4.451-9.202c.35-.702.95-1.053 1.78-1.053h21.78c.81 0 1.29.378 1.4 1.161l2.32 9.255c.14.621.54.918 1.27.918h15.41c.54 0 .81-.27.81-.81v-.35zm-10.9 39.16h-12.92c-.41 0-.63-.107-.63-.269l.19-.54 8.64-19.618c.19-.351.32-.567.46-.621.16.108.32.405.43.891l4.56 18.997c.11.459.19.729.19.783 0 .243-.33.377-.92.377"/><path d="m154.19 86.03c0 .594.52.918 1.51.918h14.9c.84 0 1.3-.432 1.43-1.268l5.34-38.16c.11-.783.22-1.161.27-1.161.19.108.41.405.7.891l21.86 38.427c.49.836 1.19 1.268 2.13 1.268h15.25c1.03 0 1.59-.378 1.7-1.079l8.93-64.846c0-.647-.4-.971-1.16-.971h-15.78c-1.08 0-1.68.459-1.78 1.349l-4.83 34.595c-.11.891-.27 1.322-.44 1.322-.19 0-.46-.323-.81-.971l-19.96-35.05c-.49-.836-1.19-1.241-2.14-1.241h-16.94c-.84 0-1.33.405-1.43 1.16z"/><path d="m295.54 85.52l-13.49-64.12c-.16-.89-.7-1.349-1.59-1.349h-19.62c-.95 0-1.59.405-1.97 1.16l-31.55 64.47c-.19.35-.27.62-.27.809 0 .297.22.459.7.459h17.14c.89 0 1.51-.351 1.86-.998l4.81-9.364c.35-.648.99-.972 1.88-.972h20.59c1.08 0 1.7.459 1.89 1.43l1.68 8.636c.19.836.75 1.268 1.7 1.268h15.24c.73 0 1.08-.189 1.08-.54 0-.431-.02-.728-.08-.89m-23.1-25.528c0 .405-.35.621-1 .621h-12.03c-.76 0-1.16-.189-1.16-.54 0-.189.08-.459.19-.81l8.74-19.699c.24-.486.4-.755.51-.809.14.108.25.377.38.809l4.26 19.51c0 .081.03.216.11.459v.459z"/><path d="m313.46 20.05c-.68 0-1.05.486-1.16 1.43l-9.28 64.737c0 .486.27.729.81.729h37.45c.78 0 1.22-.378 1.32-1.079l1.78-13.11c0-.594-.29-.891-.89-.891h-17.91c-.71 0-1.08-.324-1.08-.971v-.189l6.69-49.842c0-.539-.3-.809-.89-.809z"/><path d="m391.2 61.688c0-.756.41-1.16 1.16-1.16h22.13c.65 0 .97-.351.97-1.053v-18.19c0-.782-.32-1.16-.97-1.16h-22.4c-.59 0-.89-.432-.89-1.268v-20.59c0-.594-.37-.891-1.16-.891h-18.18c-.6 0-.9.297-.9.891v20.59c0 .836-.35 1.268-1.05 1.268h-23.91c-.64 0-.97.324-.97.971v18.269c0 .783.35 1.161 1.05 1.161h23.72c.79 0 1.16.458 1.16 1.349v23.99c0 .701.33 1.079 1 1.079h18.27c.65 0 .97-.432.97-1.268z"/></g></g><path d="m0 0h600v109.1h-600z"/><g fill="#fff"><path d="m80.971 26.714c.187-.908.267-1.442.267-1.603 0-.561-.267-.988-.802-1.362-6.171-4.03-13.731-6.06-22.653-6.06-11.167 0-20.383 3.526-27.676 10.552-7.293 6.999-10.926 15.868-10.926 26.634 0 10.418 3.339 18.833 10.02 25.298 6.705 6.438 15.467 9.671 26.29 9.671 5.984 0 10.713-1.042 14.159-3.126.668-.347 1.068-1.202 1.255-2.591 0 0 1.844-12.903 1.924-13.437.133-1.015-.428-.855-3.072-.027-5.129 1.496-9.324 2.244-12.583 2.244-5.236 0-9.537-1.763-12.929-5.263-3.393-3.526-5.076-7.987-5.076-13.384 0-5.823 1.923-10.578 5.797-14.265 3.847-3.686 8.869-5.53 15.07-5.53 5.93 0 11.06 1.363 15.334 4.114 1.309.828 2.11 1.256 2.404 1.256.427 0 .748-.668.988-1.977l2.218-11.14"/><path d="m132.42 21.478c-.16-.962-.67-1.442-1.52-1.442h-20.6c-.93 0-1.63.427-2.03 1.255l-31.761 64.22c-.106.347-.16.614-.16.775 0 .427.241.641.695.641h17.31c1.069 0 1.79-.347 2.138-1.069l4.458-9.189c.35-.722.96-1.069 1.79-1.069h21.75c.83 0 1.31.374 1.44 1.149l2.3 9.27c.13.614.56.908 1.25.908h15.44c.54 0 .81-.267.81-.802v-.347zm-10.87 39.14h-12.93c-.43 0-.61-.08-.61-.267l.16-.534 8.65-19.635c.19-.32.32-.561.46-.614.18.133.32.427.45.908l4.54 18.994c.11.454.16.721.16.801 0 .241-.29.347-.88.347"/><path d="m154.19 86.02c0 .614.51.908 1.53.908h14.88c.82 0 1.31-.428 1.44-1.256l5.34-38.15c.11-.801.22-1.175.27-1.175.16.134.4.401.69.882l21.86 38.441c.48.828 1.2 1.256 2.13 1.256h15.26c1.01 0 1.57-.347 1.71-1.069l8.89-64.835c0-.641-.37-.988-1.15-.988h-15.78c-1.07 0-1.66.454-1.79 1.335l-4.81 34.595c-.11.908-.27 1.336-.46 1.336-.16 0-.42-.294-.8-.962l-19.95-35.05c-.48-.828-1.21-1.255-2.17-1.255h-16.93c-.83 0-1.31.4-1.42 1.175z"/><path d="m295.54 85.51l-13.47-64.14c-.18-.881-.72-1.335-1.6-1.335h-19.63c-.94 0-1.61.4-1.95 1.175l-31.58 64.46c-.19.348-.27.615-.27.802 0 .294.24.481.72.481h17.13c.88 0 1.49-.321 1.87-.989l4.81-9.35c.34-.668.99-.988 1.87-.988h20.59c1.07 0 1.69.481 1.87 1.416l1.71 8.655c.16.828.75 1.256 1.69 1.256h15.25c.72 0 1.07-.187 1.07-.561 0-.428-.03-.722-.08-.882m-23.11-25.512c0 .401-.32.614-.99.614h-12.02c-.77 0-1.17-.187-1.17-.534 0-.187.08-.454.18-.801l8.74-19.715c.24-.481.43-.748.53-.802.14.107.24.401.35.802l4.3 19.528c0 .08.03.213.08.454v.454z"/><path d="m313.46 20.04c-.66 0-1.04.48-1.17 1.442l-9.27 64.729c0 .48.27.721.8.721h37.45c.78 0 1.23-.347 1.34-1.069l1.79-13.12c0-.588-.3-.882-.88-.882h-17.93c-.72 0-1.07-.347-1.07-.988v-.187l6.68-49.849c0-.534-.29-.801-.91-.801z"/><path d="m391.2 61.683c0-.775.4-1.149 1.18-1.149h22.12c.64 0 .96-.374.96-1.068v-18.19c0-.774-.32-1.148-.96-1.148h-22.39c-.59 0-.91-.428-.91-1.283v-20.596c0-.588-.37-.882-1.15-.882h-18.19c-.59 0-.88.294-.88.882v20.596c0 .855-.37 1.283-1.07 1.283h-23.91c-.64 0-.99.294-.99.961v18.3c0 .748.38 1.148 1.07 1.148h23.72c.78 0 1.18.428 1.18 1.336v23.989c0 .722.32 1.069.96 1.069h18.3c.64 0 .96-.428.96-1.256z"/></g><g stroke-width="1.129"><path d="m434.56 12.306c51.48 0 102.94.014 154.42 0-.13 28.836.16 57.684-.15 86.53-51.43-.189-102.85.04-154.27-.122.03-28.808.001-57.6 0-86.41" fill="#f00"/><g fill="#fff"><path d="m445.93 23.884c6.08-.014 12.13-.014 18.19.013-.001 7.489.03 14.978-.04 22.466 6.99.014 13.97 0 20.96.014-.06-7.502-.03-15.01-.03-22.507 5.87.014 11.75.027 17.64-.04.13 21.12.08 42.25.02 63.36-5.89-.094-11.78-.067-17.67-.054 0-8.932.05-17.865-.03-26.798-6.95.041-13.89.027-20.83.014-.03 8.906-.02 17.825 0 26.73-6.08.068-12.15.054-18.21.041.02-21.09 0-42.17 0-63.24"/><path d="m518.8 23.884c14.96.877 31.1-2.712 45.02 4.344 15.52 8.366 19.47 30.536 9.96 44.771-4.99 8.07-14.07 12.846-23.38 13.669-10.53.728-21.08.405-31.62.445.04-21.08.02-42.15.02-63.23"/></g><path d="m537.03 37.458c7.46-.459 16.55.364 20.71 7.583 3.74 7.286 3.64 17.501-2.12 23.762-4.87 4.938-12.24 4.641-18.65 4.722.08-12.02 0-24.05.06-36.07" fill="#f00"/></g></svg>