<svg xmlns="http://www.w3.org/2000/svg" viewBox="0 0 600 314.66" xmlns:xlink="http://www.w3.org/1999/xlink"><defs><clipPath id="0"><path d="m42.27 406.63h25.947v13.607h-25.947v-13.607"/></clipPath></defs><g transform="translate(-88.57-175.03)"><g clip-path="url(#0)" transform="matrix(23.125 0 0-23.125-888.92 9892.99)"><g fill="#4f4448"><path d="m0 0h-11.368v-5.488h1.313l-.4 4.573 10.455.915" transform="translate(56.29 412.94)"/><path d="m0 0v.908l-10.376-.908h10.376" transform="translate(66.91 407.45)"/></g><g fill="#7a6d73"><path d="m0 0l10.218.894h-10.296l.078-.894" transform="translate(46.32 406.56)"/><path d="m0 0l-11.445-1h10.617v-4.58l1.306.114-.478 5.467" transform="translate(67.738 413.94)"/></g><path d="m0 0l-10.455-.915.4-4.573h10.295l10.376.908v4.58h-10.616" fill="#a6959e" transform="translate(56.29 412.94)"/><path d="m0 0h-.2v-1.904h.2c.584 0 .964.377.964.953 0 .575-.38.951-.964.951m.217-2.652h-1.301v3.4h1.301c.898 0 1.673-.789 1.673-1.699 0-.917-.772-1.701-1.673-1.701" fill="#fff" transform="translate(49.27 411.36)" id="1"/><path d="m0 0c-.009-.082-.013-.086-.032-.086-.009 0-.018.004-.031.013l-.05.041c-.164.136-.471.222-.739.222-.617 0-1.061-.417-1.061-.988 0-.534.386-.916.929-.916.277 0 .64.091.748.186.009.014.023.018.028.018.013 0 .018-.009.018-.022 0-.014 0-.027-.005-.049l-.063-.74c0-.022-.019-.046-.051-.058-.162-.083-.534-.15-.797-.15-.983 0-1.691.707-1.691 1.69 0 1.034.816 1.845 1.864 1.845.267 0 .53-.055.811-.172.149-.064.203-.104.203-.154v-.013l-.081-.667" fill="#fff" transform="translate(57.01 411.17)" id="2"/><path d="m0 0l-.372-1.083h.735l-.363 1.083m.825-2.348l-.222.59h-1.219l-.232-.59h-.934l1.306 3.4h.961l1.284-3.4h-.944" fill="#fff" transform="translate(58.954 411.06)" id="3"/><path d="m0 0h-1.945l.418 3.4h.86l-.325-2.652h1.083l-.091-.748" fill="#fff" transform="translate(62.898 408.71)" id="4"/><path d="m0 0v3.4h.295l.049.14h1.342l-.049-.14h.294v-.749h-1.047v-.566h.993v-.748h-.993v-.589h1.047v-.748h-1.931" fill="#fff" transform="translate(63.52 409.01)" id="5"/><path d="m0 0v3.4h.295l.05.141h1.341l-.049-.141h.294v-.748h-1.047v-.567h.993v-.747h-.993v-.59h1.047v-.748h-1.931" fill="#fff" transform="translate(51.76 408.14)" id="6"/><use xlink:href="#1"/><use xlink:href="#2"/><use xlink:href="#3"/><use xlink:href="#4"/><use xlink:href="#5"/><use xlink:href="#6"/><path d="m64.17 418.41h-21.902v-5.476h21.902v5.476" fill="#151922"/><path d="m0 0l-.018-.009h-1.182c-.018 0-.028-.001-.028-.001 0 0-.013-.004-.013-.027v-1.259c0-.019-.001-.024-.001-.024l-.018-.009h-.937l-.023.009c0 0-.005.005-.005.028v1.259l-.014.023-.018.001h-1.209c-.023 0-.028.004-.028.004 0 0-.009.009-.009.037v.923l.009.023.014.005h1.237l.009.004.009.014v1.102l.005.024c0 0 .009.004.037.004h.918c.019 0 .023-.004.023-.004 0 0 .001-.001.001-.028v-1.107h1.199c.033 0 .042-.005.042-.005 0 0 .014-.004.014-.032v-.932l-.014-.023m-3.66-1.296c-.005-.028-.009-.037-.009-.037 0 0-.005-.001-.028-.001h-1.902c-.055 0-.069.014-.069.014 0 0-.009.019-.004.06l.47 3.276c.005.041.014.055.014.055h.051.863c.023 0 .032-.005.032-.005 0 0 .005-.013 0-.032l-.355-2.56c-.005-.028.009-.033.009-.033 0 0 .009-.004.047-.004h.941c.018 0 .028-.009.028-.009 0 0 .004-.005.004-.028l-.092-.687m-2.423-.051h-.845c-.018-.009-.032.009-.032.009 0 0-.005.005-.009.033l-.111.521c-.009.027-.019.041-.019.041 0 0-.022.014-.05.014h-1.099c-.023 0-.037-.014-.037-.014 0 0-.018-.018-.027-.046l-.25-.531-.013-.018-.028-.005h-.951c-.023-.004-.032.001-.032.001 0 0-.005.009.009.028l1.675 3.344.019.018c0 0 .009.005.037.005h1.038c.023 0 .037-.014.037-.014l.009-.018.697-3.359-.004-.014-.014-.004m-3.956.004h-.844-.028l-.009.001-1.172 2.08-.014.009-.009-.013-.291-2.044c-.005-.023-.001-.028-.001-.028l-.023-.004h-.84l-.023.009c0 0-.018.019-.013.037l.461 3.307c.005.019.014.024.014.024l.028.013h.937l.023-.009.013-.018 1.057-1.855c.019-.037.033-.032.033-.032 0 0 .014 0 .023.042l.268 1.845.009.018.018.009.882-.009c.018 0 .023-.004.023-.004l.005-.014-.476-3.335c-.005-.019-.014-.033-.014-.033 0 0-.004-.005-.028-.005m-3.692.001l-.821-.005c-.019 0-.033.009-.033.009 0 0-.004.005-.009.037l-.129.531-.009.018h-.014-1.159c-.023 0-.037-.018-.037-.018 0 0-.018-.014-.032-.046l-.231-.494c-.009-.019-.014-.023-.014-.023l-.027-.009h-.956c-.027-.005-.032.009-.032.009 0 0-.005.014.005.032l1.657 3.331c.009.018.023.023.023.023h.032 1.057c.018 0 .032-.014.032-.014l.009-.018.711-3.34-.009-.019-.014-.004zm6.259 2.431c0 0-.005 0-.001-.019l-.461-1.042c-.001-.033-.005-.037-.005-.037l.023-.009.683.004h.001v.019l-.231 1.07-.009.014m-7.662-.014l-.009-.009-.462-1.047-.004-.024c0 0 .004-.004.027-.004l.679-.005.009.005v.018l-.235 1.057-.005.009m-2.363-2.302c-.005-.037-.023-.064-.023-.064 0 0-.019-.019-.051-.028-.443-.18-.937-.12-.937-.12-.798.087-1.306.576-1.468 1.208-.239.946.236 1.62.351 1.763.282.336.72.576 1.15.632.549.078.955-.051 1.121-.106 0 0 .185-.06.323-.153.069-.046.079-.064.079-.064 0 0 .004-.009-.014-.083l-.13-.679c-.004-.027-.022-.041-.022-.041 0 0-.001-.004-.074.037-.416.295-.9.258-.9.258-.37-.023-.799-.216-.928-.705-.115-.434.004-.799.263-1.015.175-.153.448-.231.734-.217.314.023.563.148.544.138l.028.001c.065.032.079.027.079.027 0 0 .014-.014.004-.055l-.129-.743" fill="#fff" transform="translate(63.24 415.44)"/><path d="m0 0c-.122.913-.244 1.825-.365 2.738h-5.841c.243-1.187.487-2.373.73-3.559 1.825.274 3.651.547 5.476.821" fill="#ed1c24" transform="translate(67.946 417.5)"/><g fill="#fff"><path d="m0 0c-.061.333-.091.5-.152.833-.296-.023-.444-.034-.74-.057.066-.344.099-.516.165-.861-.202-.023-.303-.035-.505-.059-.14.712-.28 1.423-.42 2.135.211.005.316.007.526.013.062-.323.092-.485.154-.808.298.018.447.026.745.044-.057.313-.085.469-.142.782.21.004.315.007.525.012.116-.658.233-1.317.349-1.975-.202-.024-.303-.036-.505-.059" transform="translate(64.38 417.67)"/><path d="m0 0c-.047-.002-.071-.003-.117-.005.067-.419.101-.628.169-1.048.046.005.069.007.114.011.338.033.526.254.48.56-.047.307-.302.497-.646.482m.356-1.436c-.297-.035-.446-.052-.742-.087-.108.639-.216 1.278-.323 1.917.309.007.463.011.773.018.511-.002 1.044-.354 1.12-.856.073-.482-.342-.926-.828-.992" transform="translate(65.904 419.33)"/></g></g></g></svg>