<svg xmlns="http://www.w3.org/2000/svg" viewBox="0 0 600 327.3"><defs><clipPath><path d="m562.97 280.58c0 0-2.834 0-2.834-2.835v-14.296c0 0 0-2.835 2.834-2.835h57.725c0 0 2.834 0 2.834 2.835v14.296c0 0 0 2.835-2.834 2.835h-57.725"/></clipPath></defs><g transform="translate(0-.021)"><path d="m659.89 360h-659.89v-239.98h659.89v239.98" fill="#b50057" transform="scale(.90924)"/><g fill="#fff"><path d="m0 0v-4.658h-1.551v4.658h-1.26v1.314h4.102v-1.314h-1.291" transform="matrix(20.88448 0 0-20.88448 85.11 180.5)"/><path d="m0 0c-.249 0-.464-.091-.646-.272-.181-.179-.272-.394-.272-.646 0-.261.091-.483.272-.664.179-.179.396-.269.65-.269.256 0 .474.091.653.273.181.178.272.396.272.652 0 .257-.089.475-.268.654-.179.181-.399.272-.661.272m.015 1.232c.516 0 .979-.116 1.388-.35.335-.192.592-.445.774-.762.181-.313.272-.664.272-1.053 0-.586-.196-1.076-.587-1.47-.223-.22-.492-.39-.809-.509-.326-.124-.677-.187-1.053-.187-.767 0-1.384.234-1.851.7-.391.389-.587.867-.587 1.435 0 .601.203 1.105.607 1.512.451.456 1.066.684 1.846.684" transform="matrix(20.88448 0 0-20.88448 155.07 216.22)"/><path d="m0 0h1.434v-.661c.216.363.54.59.972.68.215.039.429.046.642.02v-1.353c-.213.096-.411.144-.595.144-.311 0-.557-.091-.738-.272-.104-.101-.177-.217-.218-.346-.042-.127-.063-.298-.063-.513v-1.727h-1.434v4.03" transform="matrix(20.88448 0 0-20.88448 216.54 193.66)"/><path d="m0 0c-.249 0-.464-.091-.645-.272-.182-.179-.273-.394-.273-.646 0-.261.091-.483.273-.664.179-.179.395-.269.649-.269.256 0 .474.091.653.273.181.178.272.396.272.652 0 .257-.089.475-.268.654-.179.181-.399.272-.661.272m.016 1.232c.515 0 .978-.116 1.387-.35.335-.192.593-.445.774-.762.181-.313.272-.664.272-1.053 0-.586-.196-1.076-.587-1.47-.223-.22-.492-.39-.809-.509-.326-.124-.677-.187-1.053-.187-.767 0-1.384.234-1.851.7-.391.389-.587.867-.587 1.435 0 .601.203 1.105.607 1.512.451.456 1.066.684 1.847.684" transform="matrix(20.88448 0 0-20.88448 336 216.22)"/><path d="m0 0l-.486-.921c-.275.132-.535.198-.781.198-.143 0-.256-.034-.338-.101-.065-.052-.098-.114-.098-.187 0-.129.125-.223.373-.279l.059-.012c.096-.024.208-.049.338-.078.259-.054.472-.146.638-.276.274-.215.412-.512.412-.89 0-.545-.237-.953-.712-1.225-.332-.192-.735-.288-1.209-.288-.536 0-1.079.157-1.629.471l.517 1c.425-.277.808-.416 1.147-.416.137 0 .251.035.342.105.073.057.109.126.109.206 0 .08-.04.154-.12.221-.055.045-.218.095-.49.152-.392.086-.677.197-.856.334-.225.177-.338.436-.338.778 0 .549.226.952.677 1.209.305.174.677.261 1.115.261.205 0 .436-.023.692-.067.171-.026.384-.092.638-.198" transform="matrix(20.88448 0 0-20.88448 463.96 196.17)"/></g><g transform="matrix(1.09092 0 0 1.09092 0 .021)"><g fill="#fff"><path d="m74.23 24.513c.148-.816.247-1.311.247-1.484 0-.47-.247-.89-.742-1.212-5.665-3.71-12.591-5.566-20.754-5.566-10.241 0-18.701 3.216-25.379 9.647-6.679 6.431-10.02 14.57-10.02 24.439 0 9.548 3.067 17.266 9.177 23.18 6.135 5.912 14.174 8.856 24.09 8.856 5.491 0 9.82-.94 12.986-2.845.594-.322.989-1.113 1.163-2.375 0 0 1.682-11.849 1.732-12.319.148-.94-.371-.792-2.82-.025-4.675 1.36-8.509 2.053-11.502 2.053-4.824 0-8.757-1.608-11.849-4.824-3.117-3.216-4.675-7.297-4.675-12.269 0-5.343 1.781-9.697 5.318-13.09 3.537-3.364 8.138-5.071 13.803-5.071 5.467 0 10.142 1.262 14.07 3.785 1.187.742 1.929 1.138 2.202 1.138.371 0 .668-.594.891-1.806l2.053-10.216"/><path d="m121.41 19.69c-.173-.866-.643-1.311-1.41-1.311h-18.874c-.866 0-1.484.371-1.88 1.138l-29.09 58.872c-.124.322-.173.569-.173.717 0 .396.223.594.643.594h15.881c.965 0 1.633-.346 1.954-.989l4.081-8.435c.322-.643.866-.965 1.633-.965h19.962c.742 0 1.187.346 1.286 1.064l2.127 8.484c.124.569.495.841 1.163.841h14.12c.495 0 .742-.247.742-.742v-.322l-12.17-58.946m-9.993 35.892h-11.849c-.371 0-.569-.099-.569-.247l.173-.495 7.916-17.983c.173-.322.297-.519.421-.569.148.099.297.371.396.816l4.18 17.414c.099.421.173.668.173.717 0 .223-.297.346-.841.346"/><path d="m141.34 78.859c0 .544.47.841 1.385.841h13.654c.767 0 1.187-.396 1.311-1.163l4.898-34.977c.099-.717.198-1.064.247-1.064.173.099.371.371.643.816l20.04 35.22c.445.767 1.088 1.163 1.954 1.163h13.976c.94 0 1.459-.346 1.558-.989l8.188-59.44c0-.594-.371-.89-1.064-.89h-14.471c-.989 0-1.534.421-1.633 1.237l-4.428 31.712c-.099.816-.247 1.212-.396 1.212-.173 0-.421-.297-.742-.891l-18.305-32.13c-.445-.767-1.088-1.138-1.954-1.138h-15.534c-.767 0-1.212.371-1.311 1.064l-8.01 59.42"/><path d="m270.91 78.39l-12.368-58.773c-.148-.816-.643-1.237-1.459-1.237h-17.983c-.866 0-1.459.371-1.806 1.064l-28.917 59.09c-.173.322-.247.569-.247.742 0 .272.198.421.643.421h15.707c.816 0 1.385-.322 1.707-.915l4.403-8.583c.322-.594.915-.891 1.732-.891h18.874c.989 0 1.558.421 1.732 1.311l1.534 7.916c.173.767.693 1.163 1.558 1.163h13.976c.668 0 .989-.173.989-.495 0-.396-.025-.668-.074-.816m-21.17-23.4c0 .371-.322.569-.915.569h-11.03c-.693 0-1.064-.173-1.064-.495 0-.173.074-.421.173-.742l8.01-18.06c.223-.445.371-.693.47-.742.124.099.223.346.346.742l3.908 17.884c0 .074.025.198.099.421v.421z"/><path d="m287.34 18.379c-.618 0-.965.445-1.064 1.311l-8.509 59.34c0 .445.247.668.742.668h34.33c.717 0 1.113-.346 1.212-.989l1.633-12.02c0-.544-.272-.816-.816-.816h-16.425c-.643 0-.989-.297-.989-.891v-.173l6.135-45.688c0-.495-.272-.742-.816-.742h-15.435"/><path d="m358.6 56.55c0-.693.371-1.064 1.064-1.064h20.284c.594 0 .891-.322.891-.965v-16.672c0-.717-.297-1.064-.891-1.064h-20.531c-.544 0-.816-.396-.816-1.163v-18.874c0-.544-.346-.816-1.064-.816h-16.672c-.544 0-.816.272-.816.816v18.874c0 .767-.322 1.163-.965 1.163h-21.916c-.594 0-.89.297-.89.891v16.746c0 .717.322 1.064.965 1.064h21.743c.717 0 1.064.421 1.064 1.237v21.99c0 .643.297.989.915.989h16.746c.594 0 .89-.396.89-1.163v-21.99"/></g><g transform="matrix(.91666 0 0 .91666-68.749-87.49)"><path d="m75 95.45h600v109.1h-600z"/><g fill="#fff"><path d="m155.97 122.16c.187-.908.267-1.443.267-1.603 0-.561-.267-.988-.801-1.362-6.171-4.03-13.731-6.06-22.654-6.06-11.167 0-20.383 3.526-27.676 10.552-7.293 6.999-10.926 15.868-10.926 26.634 0 10.419 3.339 18.833 10.02 25.298 6.705 6.438 15.467 9.671 26.287 9.671 5.984 0 10.712-1.042 14.159-3.126.668-.347 1.069-1.202 1.256-2.591 0 0 1.843-12.903 1.923-13.437.134-1.015-.427-.855-3.072-.027-5.129 1.496-9.323 2.244-12.582 2.244-5.236 0-9.537-1.763-12.93-5.263-3.393-3.526-5.076-7.988-5.076-13.384 0-5.824 1.923-10.579 5.797-14.265 3.847-3.687 8.869-5.53 15.07-5.53 5.931 0 11.06 1.362 15.334 4.114 1.309.828 2.11 1.256 2.404 1.256.427 0 .748-.668.988-1.977l2.217-11.14"/><path d="m207.42 116.93c-.16-.962-.668-1.443-1.523-1.443h-20.597c-.935 0-1.63.427-2.03 1.256l-31.763 64.22c-.107.347-.16.614-.16.775 0 .427.24.641.695.641h17.311c1.069 0 1.79-.347 2.137-1.069l4.461-9.19c.347-.721.962-1.069 1.79-1.069h21.745c.828 0 1.309.374 1.443 1.149l2.297 9.27c.134.614.561.908 1.256.908h15.441c.534 0 .801-.267.801-.801v-.347l-13.304-64.3m-10.873 39.14h-12.93c-.427 0-.614-.08-.614-.267l.16-.534 8.655-19.635c.187-.321.321-.561.454-.614.187.134.321.427.454.908l4.541 18.994c.107.454.16.721.16.801 0 .24-.294.347-.882.347"/><path d="m229.19 181.47c0 .614.508.908 1.523.908h14.88c.828 0 1.309-.427 1.443-1.256l5.343-38.15c.107-.801.214-1.175.267-1.175.16.134.401.401.695.882l21.852 38.442c.481.828 1.202 1.256 2.137 1.256h15.254c1.015 0 1.576-.347 1.71-1.069l8.896-64.835c0-.641-.374-.988-1.149-.988h-15.788c-1.069 0-1.656.454-1.79 1.336l-4.809 34.595c-.107.908-.267 1.336-.454 1.336-.16 0-.427-.294-.801-.962l-19.955-35.05c-.481-.828-1.202-1.256-2.164-1.256h-16.937c-.828 0-1.309.401-1.416 1.175l-8.736 64.809"/><path d="m370.54 180.96l-13.464-64.14c-.187-.882-.721-1.336-1.603-1.336h-19.635c-.935 0-1.603.401-1.95 1.175l-31.576 64.46c-.187.347-.267.614-.267.801 0 .294.24.481.721.481h17.12c.882 0 1.496-.321 1.87-.988l4.809-9.35c.347-.668.988-.988 1.87-.988h20.597c1.069 0 1.683.481 1.87 1.416l1.71 8.655c.16.828.748 1.256 1.683 1.256h15.254c.721 0 1.069-.187 1.069-.561 0-.427-.027-.721-.08-.882m-23.11-25.512c0 .401-.321.614-.988.614h-12.02c-.775 0-1.175-.187-1.175-.534 0-.187.08-.454.187-.801l8.736-19.715c.24-.481.427-.748.534-.801.134.107.24.401.347.801l4.301 19.528c0 .08.027.214.08.454v.454z"/><path d="m388.46 115.49c-.668 0-1.042.481-1.175 1.443l-9.27 64.728c0 .481.267.721.801.721h37.453c.775 0 1.229-.347 1.336-1.069l1.79-13.12c0-.588-.294-.882-.882-.882h-17.925c-.721 0-1.069-.347-1.069-.988v-.187l6.679-49.849c0-.534-.294-.801-.908-.801h-16.83"/><path d="m466.2 157.13c0-.775.401-1.149 1.175-1.149h22.12c.641 0 .962-.374.962-1.069v-18.19c0-.775-.321-1.149-.962-1.149h-22.386c-.588 0-.908-.427-.908-1.282v-20.597c0-.588-.374-.882-1.149-.882h-18.19c-.588 0-.882.294-.882.882v20.597c0 .855-.374 1.282-1.069 1.282h-23.909c-.641 0-.988.294-.988.962v18.299c0 .748.374 1.149 1.069 1.149h23.722c.775 0 1.175.427 1.175 1.336v23.989c0 .721.321 1.069.962 1.069h18.299c.641 0 .962-.427.962-1.256v-23.989"/></g><g transform="matrix(1.12954 0 0 1.12954 57.796 94.47)"><path d="m399.95 11.763c45.573 0 91.13.012 136.71 0-.108 25.528.143 51.07-.131 76.61-45.525-.167-91.05.036-136.58-.108.024-25.504.012-50.997 0-76.5" fill="#f00"/><g fill="#fff"><path d="m410.02 22.01c5.376-.012 10.739-.012 16.1.012-.012 6.63.024 13.26-.036 19.89 6.188.012 12.364 0 18.552.012-.048-6.642-.024-13.284-.024-19.926 5.196.012 10.405.024 15.613-.036.119 18.695.072 37.4.024 56.1-5.22-.084-10.429-.06-15.649-.048 0-7.908.048-15.816-.024-23.724-6.152.036-12.292.024-18.444.012-.024 7.884-.012 15.78 0 23.665-5.376.06-10.751.048-16.11.036.012-18.671 0-37.33 0-55.99"/><path d="m474.53 22.01c13.248.776 27.535-2.401 39.863 3.847 13.738 7.406 17.238 27.03 8.816 39.636-4.42 7.144-12.459 11.372-20.702 12.1-9.318.645-18.659.358-27.989.394.036-18.659.012-37.32.012-55.978"/></g><path d="m490.67 34.03c6.606-.406 14.657.323 18.337 6.714 3.309 6.451 3.225 15.494-1.875 21.04-4.312 4.372-10.835 4.109-16.509 4.181.072-10.644 0-21.287.048-31.931" fill="#f00"/></g></g></g></g></svg>