<svg xmlns="http://www.w3.org/2000/svg" enable-background="new 0 0 86 32" height="223.25" viewBox="0 0 600 223.25399"><g stroke-width="6.977"><path fill="#0feb0f" d="m0 76.74h600v146.51h-600z"/><g fill="#fff"><path d="m93.15 128.36c0 9.88-2.427 17.29-7.269 22.23-4.849 4.94-11.84 7.41-20.965 7.41h-13.452v28.71h-23.267v-84.81h26.414c6.139 0 11.09.26 14.846.78 3.754.53 7.124 1.44 10.117 2.74 4.444 1.95 7.814 4.92 10.116 8.92 2.309 4.01 3.46 8.68 3.46 14.02m-21.697.74c0-3.65-1.256-6.36-3.754-8.11-2.504-1.74-5.658-2.62-9.446-2.62h-6.789v22.06h7.396c3.635 0 6.544-.81 8.721-2.44 2.581-1.95 3.872-4.92 3.872-8.89"/><path d="m163.07 186.71h-19.63v-5.81c-.81.8-3.19 2.15-7.15 4.05-5.01 2.39-8.96 3.59-11.87 3.59-7.27 0-13.57-2.58-18.9-7.74-6.06-5.89-9.09-13.67-9.09-23.34 0-8.63 2.867-15.85 8.604-21.66 5.73-5.81 12.56-8.7 20.47-8.7 3.64 0 7.3.89 10.97 2.67 3.67 1.77 6.08 3.43 7.21 4.96l-.24.24v-6.42h19.63zm-18.91-29.08c0-3.56-1.13-6.54-3.39-8.96-2.5-2.67-5.78-3.99-9.81-3.99-3.88 0-6.93 1.29-9.15 3.87-2.22 2.59-3.34 5.62-3.34 9.09 0 3.39 1.05 6.34 3.15 8.85 2.43 2.83 5.61 4.24 9.57 4.24 4.12 0 7.31-1.28 9.57-3.83 2.27-2.54 3.4-5.63 3.4-9.27"/><path d="m221.35 147.82c-1.37-.72-2.89-1.27-4.54-1.63-1.65-.37-3.54-.54-5.64-.54-2.82 0-5.49.8-7.99 2.42-3.39 2.18-5.09 5.17-5.09 8.97v29.68h-21.81v-58.16h21.81v9.81c.73-1.6 2.95-3.71 6.66-6.29 4.85-3.39 9.46-5.1 13.82-5.1h2.78z"/><path d="m262.18 146.11h-11.15v40.59h-21.08v-40.59h-6.67v-17.56h6.67v-16.6h21.08v16.6h11.15z"/><path d="m291.99 108.08c0 3.14-1 5.75-3.01 7.81-1.99 2.06-4.75 3.09-8.26 3.09-3.68 0-6.5-1.01-8.46-3.03-1.95-2.02-2.94-4.64-2.94-7.87 0-3.16 1.06-5.82 3.18-8 2.13-2.182 4.87-3.271 8.22-3.271 3.26 0 5.95 1.047 8.08 3.147 2.12 2.104 3.19 4.804 3.19 8.124m-1.82 78.63h-20.84v-58.16h20.84z"/><path d="m366.74 186.71h-21.08v-6.17c-1.61 1.77-3.67 3.35-6.18 4.72-3.88 2.18-7.79 3.28-11.75 3.28-8.73 0-15.84-3.07-21.33-9.21-5.17-5.82-7.76-13.05-7.76-21.69 0-7.75 2.18-14.46 6.54-20.11 5.09-6.63 12.04-9.94 20.84-9.94 5.01 0 9.65 1.13 13.94 3.39 2.66 1.38 4.56 2.75 5.69 4.12v-41.681h21.08v93.29zm-20.35-28.9c0-3.37-1.14-6.27-3.39-8.68-2.51-2.65-5.78-3.98-9.82-3.98-3.95 0-7.07 1.27-9.33 3.8-2.26 2.54-3.39 5.49-3.39 8.87s1.11 6.35 3.34 8.92c2.22 2.57 5.35 3.86 9.39 3.86 4.12 0 7.35-1.29 9.7-3.86 2.33-2.58 3.5-5.55 3.5-8.93"/><path d="m441.51 186.71h-19.63v-5.81c-.81.8-3.19 2.15-7.15 4.05-5.01 2.39-8.96 3.59-11.87 3.59-7.27 0-13.57-2.58-18.9-7.74-6.06-5.89-9.09-13.67-9.09-23.34 0-8.63 2.86-15.85 8.6-21.66 5.73-5.81 12.56-8.7 20.48-8.7 3.63 0 7.29.89 10.96 2.67 3.67 1.77 6.08 3.43 7.21 4.96l-.24.24v-6.42h19.63zm-18.91-29.08c0-3.56-1.13-6.54-3.39-8.96-2.5-2.67-5.78-3.99-9.81-3.99-3.88 0-6.93 1.29-9.15 3.87-2.22 2.59-3.34 5.62-3.34 9.09 0 3.39 1.05 6.34 3.15 8.85 2.43 2.83 5.62 4.24 9.57 4.24 4.13 0 7.31-1.28 9.57-3.83 2.27-2.54 3.4-5.63 3.4-9.27"/><path d="m509.97 128.55-27.99 41.19h24.11v16.97h-57.43l27.02-41.31h-25.09v-16.85z"/><path d="m579.51 157.93c0 8.79-3.15 16.1-9.45 21.9-6.29 5.81-14.22 8.71-23.74 8.71-9.38 0-17.23-2.97-23.57-8.89-6.34-5.93-9.51-13.16-9.51-21.71 0-8.7 3.13-15.98 9.39-21.82 6.26-5.85 14.15-8.77 23.7-8.77 9.6 0 17.54 2.8 23.8 8.4 6.26 5.61 9.38 12.99 9.38 22.18m-20.6 0c0-3.13-1.2-5.93-3.59-8.37-2.4-2.46-5.34-3.68-8.83-3.68-3.57 0-6.54 1.21-8.88 3.62-2.36 2.42-3.54 5.23-3.54 8.44 0 3.14 1.2 5.89 3.59 8.27 2.4 2.36 5.35 3.55 8.84 3.55 3.48 0 6.43-1.19 8.83-3.55 2.38-2.39 3.58-5.14 3.58-8.28"/></g></g><path transform="scale(6.9767)" d="m43 11v-11h-43v11z"/><path d="m285.86 43.46s-.06.133-.25.133h-16.02c-.26 0-.39.118-.39.118s-.18.056-.18.37v16.919c0 .244-.13.307-.13.307s-.06.118-.24.118h-12.72c-.18 0-.31-.118-.31-.118s-.05-.07-.05-.377v-16.905c0-.188-.19-.314-.19-.314s-.07-.118-.26-.118h-16.4c-.32 0-.38-.07-.38-.07s-.13-.126-.13-.502v-12.377c0-.133.13-.321.13-.321s.06-.056.19-.056h16.77c.13 0 .13-.063.13-.063s.14-.062.14-.188v-14.805c0-.188.05-.3.05-.3s.13-.069.5-.069h12.46c.25 0 .31.069.31.069s.13.112.13.363v14.868h16.28c.44 0 .56.062.56.062s.19.056.19.44v12.502c0 .133-.19.314-.19.314m-49.66 17.4c-.06.377-.13.495-.13.495s-.05.126-.37.126h-25.8c-.74 0-.94-.174-.94-.174s-.13-.252-.06-.803l6.4-43.988c.06-.558.18-.74.18-.74h12.39c.33 0 .44.063.44.063s.06.189 0 .44l-4.82 34.37c-.05.377.13.433.13.433s.14.056.63.056h12.76c.26 0 .39.132.39.132s.05.063.05.37zm-32.86.684h-11.47c-.24.118-.44-.126-.44-.126s-.06-.069-.12-.432l-1.5-7.01c-.13-.37-.24-.551-.24-.551s-.33-.188-.7-.188h-14.92c-.31 0-.49.188-.49.188s-.25.244-.37.614l-3.39 7.123c-.06.182-.18.251-.18.251s-.26.056-.38.056h-12.9c-.31.063-.44-.125-.44-.125s-.07-.119.13-.363l22.72-44.91c.14-.062.25-.251.25-.251s.13-.063.51-.063h14.09c.31 0 .5.182.5.182s.06.07.13.251l9.44 45.1c0 .118-.05.174-.05.174s.001.07-.18.07m-53.67-.063h-11.84s-.06-.056-.12-.126l-15.91-27.927c-.13-.133-.19-.133-.19-.133s-.12 0-.12.188l-3.93 27.44c-.07.307-.13.377-.13.377s-.13.049-.33.049h-11.38c-.2 0-.32-.119-.32-.119s-.25-.244-.18-.495l6.25-44.42c.07-.238.19-.3.19-.3s.19-.189.37-.189h12.72c.18 0 .31.119.31.119s.12.07.19.251l14.33 24.907c.25.488.44.433.44.433s.18 0 .31-.566l3.64-24.774c0-.181.12-.251.12-.251s.07-.119.24-.119l11.98.119c.23 0 .3.07.3.07s.07.062.07.181l-6.44 44.791c-.07.244-.21.432-.21.432s-.04.063-.36.063m-50.1-.126l-11.142.07c-.258 0-.439-.118-.439-.118s-.063-.07-.126-.503l-1.751-7.123c0-.181-.133-.244-.133-.244h-15.893c-.321 0-.502.244-.502.244s-.251.181-.439.614l-3.126 6.628c-.133.251-.188.314-.188.314s-.196.118-.37.118h-12.977c-.37.07-.439-.118-.439-.118s-.07-.182.069-.433l22.472-44.721c.126-.251.321-.314.321-.314h14.784c.251 0 .44.182.44.182s.062.07.125.251l9.649 44.853c0 .182-.126.252-.126.252s-.076.048-.209.048m84.92-32.644s-.06 0-.13.251l-6.26 13.996c-.12.439-.07.502-.07.502s.19.133.32.133l9.25-.07h.14s.07-.063 0-.244l-3.11-14.372c-.07-.196-.14-.196-.14-.196m-103.95.196s-.063 0-.126.118l-6.258 14.07c-.126.182-.063.3-.063.3s.063.063.377.063l9.195.063c.07 0 .14-.063.14-.063s.055-.063 0-.251l-3.189-14.184c0-.118-.076-.118-.076-.118m-32.06 30.907c-.055.502-.307.872-.307.872s-.251.237-.697.363c-5.993 2.413-12.698 1.611-12.698 1.611-10.835-1.179-17.728-7.744-19.912-16.235-3.265-12.697 3.189-21.732 4.752-23.665 3.816-4.514 9.76-7.737 15.593-8.477 7.444-1.046 12.962.691 15.223 1.431 0 0 2.498.802 4.381 2.044.942.621 1.061.865 1.061.865s.063.126-.196 1.116l-1.758 9.1c-.056.377-.307.558-.307.558s-.125.07-.997-.488c-5.645-3.977-12.224-3.468-12.224-3.468-4.995.3-10.828 2.896-12.572 9.475-1.563 5.818.063 10.709 3.572 13.625 2.372 2.044 6.077 3.091 9.963 2.91 4.249-.314 7.626-1.982 7.368-1.863 0 0 .188-.056.383-.126.879-.439 1.075-.37 1.075-.37s.174.182.056.74z" stroke-width="6.977" fill="#fff"/></svg>