<svg xmlns="http://www.w3.org/2000/svg" height="257.14" width="600" viewBox="0 0 158.75 68.03456"><g transform="translate(-63.5-120.11)"><path d="m63.5 142.79h124.73v-22.68h-124.73z"/><g fill="#fff"><path d="m80.33 125.65c.036-.19.055-.3.055-.33 0-.12-.055-.21-.166-.28-1.287-.84-2.857-1.26-4.71-1.26-2.323 0-4.242.73-5.757 2.18-1.512 1.46-2.27 3.3-2.27 5.53 0 2.15.695 3.9 2.084 5.24 1.392 1.34 3.211 2 5.461 2 1.248 0 2.231-.21 2.949-.64.134-.08.22-.25.259-.54 0 0 .384-2.68.396-2.78.029-.21-.085-.19-.637-.001-1.065.31-1.935.46-2.614.46-1.089 0-1.984-.36-2.687-1.09-.705-.72-1.059-1.65-1.059-2.77 0-1.21.403-2.19 1.206-2.96.803-.76 1.845-1.14 3.133-1.14 1.236 0 2.299.28 3.188.85.272.17.439.26.5.26.086 0 .154-.14.205-.41z"/><path d="m91.02 124.56c-.037-.2-.143-.3-.317-.3h-4.281c-.199 0-.342.09-.427.26l-6.601 13.31c-.024.07-.037.13-.037.17 0 .08.051.12.149.12h3.597c.223 0 .372-.07.446-.22l.925-1.9c.074-.15.198-.22.372-.22h4.522c.174 0 .272.08.297.24l.482 1.92c.025.12.112.18.26.18h3.208c.112 0 .165-.05.165-.16v-.08zm-2.263 8.11h-2.687c-.088 0-.131-.02-.131-.05l.037-.12 1.798-4.06c.037-.08.068-.12.094-.13.035.02.068.09.092.19l.945 3.93c.026.1.038.15.038.17 0 .05-.063.07-.186.07"/><path d="m95.54 137.94c0 .12.104.18.315.18h3.096c.173 0 .271-.08.298-.25l1.107-7.92c.03-.16.05-.24.06-.24.04.03.09.09.15.19l4.54 7.97c.1.17.25.25.45.25h3.16c.22 0 .33-.07.36-.22l1.85-13.44c0-.13-.08-.2-.24-.2h-3.28c-.22 0-.35.09-.37.28l-1 7.17c-.03.19-.06.28-.09.28-.04 0-.1-.07-.17-.21l-4.16-7.26c-.09-.17-.24-.26-.44-.26h-3.523c-.172 0-.272.08-.296.24z"/><path d="m124.93 137.83l-2.8-13.29c-.04-.19-.15-.28-.33-.28h-4.08c-.2 0-.34.08-.41.24l-6.56 13.37c-.04.07-.06.12-.06.16 0 .06.05.1.15.1h3.56c.18 0 .31-.07.39-.21l1-1.94c.07-.14.2-.2.39-.2h4.28c.22 0 .35.1.39.29l.35 1.8c.04.17.16.26.35.26h3.17c.15 0 .23-.04.23-.12s-.001-.14-.02-.18m-4.8-5.29c0 .09-.07.13-.21.13h-2.5c-.16 0-.24-.04-.24-.11 0-.04.001-.09.03-.16l1.82-4.09c.05-.1.09-.16.11-.17.03.03.05.08.08.17l.89 4.05c0 .001 0 .04.02.09z"/><path d="m128.65 124.26c-.13 0-.21.1-.24.3l-1.93 13.42c0 .1.06.14.17.14h7.79c.16 0 .25-.07.28-.22l.37-2.71c0-.13-.07-.19-.19-.19h-3.72c-.15 0-.23-.07-.23-.2v-.04l1.39-10.33c0-.11-.06-.17-.18-.17z"/><path d="m144.82 132.89c0-.16.08-.24.24-.24h4.6c.13 0 .2-.07.2-.22v-3.77c0-.16-.07-.24-.2-.24h-4.66c-.12 0-.18-.09-.18-.26v-4.27c0-.12-.08-.18-.24-.18h-3.78c-.13 0-.19.06-.19.18v4.27c0 .17-.07.26-.22.26h-4.97c-.14 0-.2.07-.2.2v3.79c0 .16.07.24.22.24h4.93c.16 0 .24.1.24.28v4.97c0 .15.07.22.2.22h3.8c.14 0 .21-.08.21-.25z"/></g><path d="m186.22 122.13h-32.11v18.66h32.11z" fill="#e20026"/><g fill="#fff"><path d="m160.36 129.61h5.21v-5.37h3.61v13.9h-3.61v-5.73h-5.21v5.73h-3.61v-13.9h3.61z"/><path d="m171.74 138.13v-13.89h5.31c1.15 0 2.24.3 3.28.9 1.11.64 1.98 1.52 2.62 2.64.63 1.07.94 2.21.94 3.42 0 1.2-.31 2.33-.93 3.41-.64 1.11-1.52 1.99-2.62 2.63-1.03.6-2.13.89-3.29.89zm3.61-3.05h.81c1.21 0 2.17-.36 2.89-1.08.7-.71 1.06-1.64 1.06-2.81s-.36-2.11-1.06-2.82c-.72-.71-1.68-1.07-2.89-1.07h-.81z"/></g><path d="m222.25 188.14h-158.75v-45.36h158.75z" fill="#e20026"/><g fill="#fff"><path d="m71.45 177.86v-25.92h14.723v5.7h-7.984v4.32h7.569v5.7h-7.569v4.5h7.984v5.7z"/><path d="m103.84 171.95c0 3.09-1.64 5.13-4.912 6.11-.991.3-2.144.45-3.455.45-2.373 0-4.725-.67-7.05-2.04l2.246-4.35c1.821 1.2 3.478 1.8 4.978 1.8.46 0 .887-.11 1.277-.31.462-.26.691-.6.691-1.04 0-.35-.12-.63-.362-.85-.241-.22-.674-.41-1.295-.57-.092-.02-.221-.05-.38-.08-.164-.04-.37-.08-.624-.13-1.659-.34-2.879-.81-3.661-1.41-1.016-.81-1.523-1.96-1.523-3.46 0-2.12.807-3.74 2.42-4.87 1.406-.97 3.214-1.45 5.425-1.45 1.843 0 3.426.24 4.736.72.14.05.29.11.45.18s.33.15.52.24l-2.11 4.01c-.92-.49-1.832-.76-2.731-.83-.115-.02-.229-.04-.344-.04h-.312c-1.267 0-1.901.42-1.901 1.25 0 .53.472.92 1.416 1.17.047.03.121.04.225.05.104.02.225.05.364.09l.795.17c1.518.33 2.628.76 3.318 1.32 1.2.92 1.8 2.21 1.8 3.87"/><path d="m113.93 165.52v12.34h-6.22v-12.34h-2.04v-5.15h2.04v-5.25h6.22v5.25h3.56v5.15z"/><path d="m133.01 166.07l-.69-.31c-.56-.21-1.21-.31-1.97-.31-1.32 0-2.37.4-3.17 1.19-.79.8-1.19 2.04-1.19 3.72v7.5h-6.22v-17.49h6.22v2.87c.6-.92 1.2-1.58 1.8-1.97 1.1-.76 2.45-1.14 4.04-1.14h.52c.07 0 .16 0 .26.02.1.001.23.03.4.05z"/><path d="m148.35 166.66c-.48-1.87-1.69-2.8-3.63-2.8-1.98 0-3.15.93-3.52 2.8zm-7.32 3.6c.02 2.62 1.29 3.93 3.8 3.93 1.29 0 2.3-.55 3.04-1.65h6.01c-.37 1.26-.9 2.3-1.59 3.11-1.7 1.93-4.2 2.9-7.5 2.9-3.06 0-5.5-.84-7.33-2.52-1.82-1.68-2.73-3.94-2.73-6.78 0-2.88.88-5.16 2.63-6.84s4.15-2.52 7.19-2.52c2.97 0 5.31.86 7.02 2.59 1.7 1.75 2.55 4.12 2.55 7.12v.66z"/><path d="m169.16 177.86v-10.03c0-1.19-.47-2.04-1.38-2.55-.47-.25-.96-.38-1.49-.38-2.19 0-3.28 1.2-3.28 3.59v9.37h-6.23v-17.49h6.23v2.21c1.52-1.73 3.4-2.59 5.66-2.59 2.12 0 3.82.64 5.08 1.9 1.09 1.09 1.63 2.7 1.63 4.84v11.13z"/><path d="m192.66 169.08c0-1.13-.39-2.07-1.18-2.83-.78-.79-1.72-1.18-2.83-1.18s-2.05.39-2.83 1.18c-.79.78-1.18 1.71-1.18 2.8 0 .55.1 1.07.31 1.57.21.49.49.93.85 1.29.35.37.78.66 1.28.87.49.21 1.02.31 1.57.31 1.11 0 2.05-.39 2.83-1.18.79-.78 1.18-1.72 1.18-2.83m6.6.03c0 2.93-1.07 5.26-3.21 6.99-1.99 1.61-4.45 2.42-7.4 2.42-3.07 0-5.6-.87-7.6-2.6-2.01-1.75-3.01-3.96-3.01-6.63 0-2.97 1.05-5.34 3.14-7.09 1.96-1.66 4.42-2.49 7.37-2.49 3.18 0 5.75.88 7.7 2.63 2.01 1.78 3.01 4.03 3.01 6.77"/><path d="m216.26 171.95c0 3.09-1.63 5.13-4.9 6.11-.99.3-2.15.45-3.46.45-2.37 0-4.72-.67-7.05-2.04l2.25-4.35c1.82 1.2 3.47 1.8 4.97 1.8.46 0 .89-.11 1.28-.31.46-.26.69-.6.69-1.04 0-.35-.12-.63-.36-.85s-.67-.41-1.29-.57c-.1-.02-.23-.05-.38-.08-.17-.04-.37-.08-.63-.13-1.66-.34-2.88-.81-3.66-1.41-1.02-.81-1.52-1.96-1.52-3.46 0-2.12.8-3.74 2.42-4.87 1.4-.97 3.21-1.45 5.42-1.45 1.85 0 3.43.24 4.74.72.14.05.29.11.45.18s.33.15.52.24l-2.11 4.01c-.92-.49-1.83-.76-2.73-.83-.12-.02-.23-.04-.35-.04h-.31c-1.27 0-1.9.42-1.9 1.25 0 .53.47.92 1.42 1.17.04.03.12.04.22.05.11.02.23.05.37.09l.79.17c1.52.33 2.63.76 3.32 1.32 1.19.92 1.79 2.21 1.79 3.87"/></g></g></svg>