<svg xmlns="http://www.w3.org/2000/svg" viewBox="0 0 600 600"><g transform="matrix(-3.76256 0 0-3.76244 601.29 601.76)" fill="#bb2c28"><path d="m-51.19 118.57l-9.58-45.2-43.934 14.302 34.35-30.894-34.35-30.895 43.934 14.302 9.58-45.2z" transform="translate(131.2 23.254)"/><path d="m80.03 16.781v1.469l9.563 45.19 43.936-14.282-34.34 30.875 34.34 30.909-43.936-14.315-9.563 45.19v1.75c35.01 0 63.38-28.36 63.38-63.37 0-35.01-28.37-63.41-63.38-63.41"/><path d="m80.09.469c-44.03 0-79.75 35.718-79.75 79.75 0 44.03 35.718 79.72 79.75 79.72 44.04 0 79.72-35.69 79.72-79.72 0-44.03-35.68-79.75-79.72-79.75m0 8.75c39.2 0 70.966 31.801 70.966 71 0 39.2-31.77 70.971-70.966 70.971-39.2 0-71-31.77-71-70.971 0-39.2 31.801-71 71-71"/></g></svg>