<?xml version="1.0" encoding="UTF-8" standalone="no"?>
<svg xmlns:rdf="http://www.w3.org/1999/02/22-rdf-syntax-ns#" xmlns="http://www.w3.org/2000/svg" height="322.97" width="600" version="1.1" xmlns:cc="http://creativecommons.org/ns#" xmlns:dc="http://purl.org/dc/elements/1.1/" viewBox="0 0 158.75 85.451902">
 <g transform="translate(54.543 -1208.9)">
  <path d="m1.5483 1247.8h46.568v46.6h-46.568z" fill="#08c1b3"/>
  <path d="m39.602 1276.1q0 6.1-4.604 9.8-4.173 3.3-10.353 3.3-6.429 0-10.5-3.5-4.082-3.5-4.082-9.2 0-6.2 5.295-13.3l7.756-10.2h10.262l-8.731 10.6q0.726-0.3 1.86-0.3 5.624 0 9.332 3.7 3.765 3.7 3.765 9.1zm-9.242 0.2q0-2.3-1.678-4-1.667-1.7-4.037-1.7-2.415 0-4.093 1.6-1.667 1.7-1.667 4.1t1.667 4.1q1.723 1.7 4.093 1.7 2.325 0 3.991-1.7 1.724-1.8 1.724-4.1z" fill="#fff"/>
  <path stroke-width=".26458" d="m-54.543 1208.9v39h11.85v7.4h11.46v-7.4h135.44v-39zm4.22 4.2h150.32v30.7h-135.28v7.4h-3.37v-7.4h-11.67z"/>
  <g>
   <path d="m-28.913 1235.7-1.14-8.8-3.67 8.8h-1.58l-3.49-8.8-1.3 8.8h-3.94l2.58-15.3h3.92l3.08 8.2 3.26-8.2h3.92l2.31 15.3z"/>
   <path d="m-11.813 1231.9q0 4.2-5.5 4.2-5.51 0-5.51-4.2v-6.5h3.65v5.8q0 1.9 1.86 1.9 1.85 0 1.85-1.9v-5.8h3.65z"/>
   <path d="m-9.3129 1235.7v-15.3h3.65v15.3z"/>
   <path d="m0.89713 1228.4v7.3h-3.65v-7.3h-1.2v-3h1.2v-3.1h3.65v3.1h2.09v3z"/>
   <path d="m8.2071 1222.4q0 0.4-0.16 0.8-0.16 0.3-0.45 0.6t-0.66 0.4q-0.39 0.2-0.8 0.2-0.81 0-1.44-0.6-0.61-0.6-0.61-1.4 0-0.5 0.16-0.8 0.17-0.4 0.44-0.7t0.65-0.4q0.38-0.2 0.8-0.2t0.8 0.2q0.38 0.1 0.66 0.4 0.29 0.3 0.45 0.6 0.16 0.4 0.16 0.9zm-3.9 13.3v-10.3h3.65v10.3z"/>
   <path d="m18.467 1235.7v-1.2q-0.29 0.4-0.39 0.5-1.08 1-2.8 1-2.27 0-3.75-1.6t-1.48-3.9 1.48-3.8q1.47-1.6 3.71-1.6 1.49 0 2.43 0.6 0.3 0.2 0.8 0.7v-6h3.64v15.3zm0.09-5.2q0-0.5-0.18-0.9-0.19-0.4-0.5-0.7-0.33-0.3-0.76-0.5-0.41-0.2-0.91-0.2-0.97 0-1.66 0.7t-0.69 1.6q0 0.5 0.18 0.9 0.19 0.5 0.5 0.8t0.75 0.5q0.43 0.2 0.92 0.2 0.5 0 0.91-0.2 0.43-0.2 0.76-0.5 0.3-0.3 0.5-0.8 0.18-0.4 0.18-0.9z"/>
   <path d="m27.877 1231.2q0.02 2.3 2.23 2.3 1.14 0 1.78-1h3.54q-0.34 1.2-0.94 1.9-1.5 1.7-4.4 1.7-2.69 0-4.3-1.5-1.6-1.5-1.6-4t1.54-4q1.55-1.5 4.22-1.5 2.62 0 4.12 1.5 1.5 1.6 1.5 4.2v0.4zm4.3-2.1q-0.42-1.7-2.13-1.7-1.74 0-2.07 1.7z"/>
   <path d="m49.697 1230.5q0 1.7-0.84 3.1-0.83 1.3-2.31 2-0.95 0.4-2.05 0.4-0.83 0-1.56-0.3-0.3-0.1-0.46-0.1-0.18-0.1-0.39-0.2-0.15-0.1-0.38-0.3-0.17-0.2-0.43-0.5v6.4h-3.65v-15.6h3.65v1.1q0.06-0.1 0.19-0.2t0.19-0.2q1.08-1 2.8-1 2.28 0 3.76 1.6t1.48 3.8zm-3.8 0q0-0.4-0.18-0.9-0.19-0.4-0.51-0.7t-0.76-0.5q-0.43-0.2-0.92-0.2-0.5 0-0.91 0.2-0.43 0.2-0.75 0.5-0.31 0.3-0.51 0.7-0.18 0.4-0.18 0.9 0 1 0.71 1.7 0.69 0.7 1.66 0.7 0.93 0 1.64-0.7t0.71-1.7z"/>
   <path d="m63.817 1230.5q0 2.6-1.89 4.1-1.75 1.4-4.34 1.4-2.7 0-4.46-1.5-1.77-1.5-1.77-3.9 0-2.6 1.85-4.1 1.72-1.5 4.32-1.5 2.81 0 4.53 1.5 1.76 1.6 1.76 4zm-3.87 0q0-1-0.7-1.7-0.69-0.7-1.66-0.7t-1.66 0.7-0.69 1.7q0 0.5 0.18 0.9t0.5 0.8q0.3 0.3 0.75 0.5 0.43 0.2 0.92 0.2 0.97 0 1.66-0.7 0.7-0.7 0.7-1.7z"/>
   <path d="m73.637 1228.7-0.4-0.1q-0.47-0.2-1.16-0.2-1.16 0-1.86 0.7t-0.7 2.2v4.4h-3.65v-10.3h3.65v1.7q0.53-0.8 1.06-1.2 0.97-0.6 2.37-0.6h0.31q0.03 0 0.15 0 0.09 0 0.23 0z"/>
   <path d="m79.337 1228.4v7.3h-3.65v-7.3h-1.2v-3h1.2v-3.1h3.65v3.1h2.09v3z"/>
   <path d="m86.027 1231.2q0.03 2.3 2.24 2.3 1.13 0 1.78-1h3.53q-0.33 1.2-0.93 1.9-1.5 1.7-4.4 1.7-2.69 0-4.3-1.5t-1.61-4 1.54-4q1.55-1.5 4.22-1.5 2.62 0 4.12 1.5 1.5 1.6 1.5 4.2v0.4zm4.31-2.1q-0.43-1.7-2.13-1.7-1.75 0-2.07 1.7z"/>
  </g>
 </g>
</svg>
