<svg xmlns="http://www.w3.org/2000/svg" height="321.39" width="600" viewBox="0 0 158.75 85.034453"><g transform="translate(65.768-696.67)"><g><path d="m-35.17 725.9l-1.32-10.24-4.24 10.24h-1.83l-4.03-10.24-1.5 10.24h-4.56l2.99-17.78h4.52l3.57 9.48 3.77-9.48h4.53l2.67 17.78z"/><path d="m-16.528 720.99q0 4.89-6.36 4.91-6.37 0-6.37-4.91v-7.61h4.21v6.81q0 2.2 2.16 2.2 2.14 0 2.14-2.2v-6.81h4.22z"/><path d="m-13.838 725.9v-19.38h4.22v19.38z"/><path d="m-2.598 717.44v8.46h-4.22v-8.46h-1.39v-3.54h1.39v-3.6h4.22v3.6h2.41v3.54z"/><path d="m1.142 725.9v-12h4.22v12zm4.49-16.38q0 .51-.18.94-.19.42-.52.76-.33.33-.76.5-.46.18-.93.18-.93 0-1.66-.69-.71-.72-.71-1.67 0-.49.19-.95.19-.45.51-.77.31-.31.75-.5.44-.2.92-.2.49 0 .93.2.44.19.76.5.33.34.52.76.18.43.18.94"/><path d="m14.302 706.28c-1.3 0-2.49.46-3.56 1.38-1.08.94-1.64 1.96-1.69 3.06l-.07 1.54v1.64h-1.52v3.54h1.52v8.46h4.22v-8.46h2.96v-3.54h-2.96v-2.23c0-1.12.5-1.69 1.5-1.69.37 0 .86.15 1.46.43v-3.67c-.61-.31-1.23-.46-1.86-.46"/><path d="m23.532 711.63-1.95-1.45 3.33-4.1 2.68 1.94zm6.35 9.36q0 4.89-6.35 4.91-6.38 0-6.38-4.91v-7.61h4.22v6.81q0 2.2 2.16 2.2 2.13 0 2.13-2.2v-6.81h4.22z"/><path d="m37.09 717.44v8.46h-4.21v-8.46h-1.39v-3.54h1.39v-3.6h4.21v3.6h2.42v3.54z"/><path d="m54.612 719.5c0 1.77-.58 3.29-1.74 4.55-1.15 1.24-2.59 1.85-4.31 1.85-1.41 0-2.49-.4-3.24-1.21l-.21-.21c-.07-.07-.15-.17-.24-.28v1.32h-4.22v-19.38h4.22v8.57c.2-.23.39-.41.57-.53.82-.69 1.88-1.04 3.16-1.04 1.75 0 3.19.63 4.32 1.87 1.12 1.23 1.69 2.73 1.69 4.49m-4.39.05c0-.78-.26-1.43-.79-1.95-.53-.54-1.18-.8-1.93-.8-.77 0-1.41.26-1.94.8-.54.52-.8 1.16-.8 1.92 0 .78.26 1.43.8 1.95.53.52 1.18.78 1.94.78.72 0 1.35-.26 1.9-.78.55-.55.82-1.19.82-1.92"/><path d="m70.07 719.45q0 3.01-2.19 4.79-2.02 1.66-5.02 1.66-3.12 0-5.16-1.77-2.03-1.8-2.03-4.56 0-3.05 2.13-4.86 1.99-1.71 4.99-1.71 3.25 0 5.24 1.8 2.04 1.82 2.04 4.65m-4.48-.02q0-1.16-.8-1.95-.8-.81-1.93-.81-1.11 0-1.91.81-.81.82-.81 1.93 0 .57.22 1.07.21.51.57.89.35.38.87.6.5.21 1.06.21 1.13 0 1.93-.81t.8-1.94"/><path d="m71.792 725.9v-19.38h4.22v19.38z"/><path d="m-65.768 696.67v38.79h11.4v7.73h11.94v-7.73h135.41v-38.79zm4.22 4.22h150.32v30.36h-135.41v7.73h-3.51v-7.73h-11.4z" stroke-width=".265"/></g><path d="m-9.676 735.14h46.566v46.57h-46.566z" fill="#0feb0f"/><path d="m28.376 752.9q0 6.44-5.295 13.42l-7.756 10.22h-10.216l8.356-10.17h-.691l-1.214-.05q-.929-.04-2.02-.3-1.123-.26-2.393-.72-3.946-1.48-6.135-4.53-2.177-3.05-2.177-7.27 0-6.23 4.547-9.84 4.071-3.35 10.409-3.35 6.339 0 10.489 3.58 4.093 3.55 4.093 9.01m-8.821.33q0-2.37-1.679-4.05-1.667-1.67-4.04-1.67-2.427 0-4.094 1.67-1.667 1.67-1.667 4.05 0 2.37 1.667 4.03 1.678 1.68 4.048 1.68 1.202 0 2.245-.44 1.055-.45 1.837-1.21.794-.78 1.236-1.82.443-1.04.443-2.24" fill="#fff"/></g></svg>