<svg xmlns="http://www.w3.org/2000/svg" height="321.39" width="600" viewBox="0 0 158.75 85.03451"><g transform="translate(51.41-647.93)"><path d="m-20.805 677.15-1.32-10.24-4.24 10.24h-1.83l-4.03-10.24-1.5 10.24h-4.56l2.99-17.78h4.52l3.57 9.48 3.77-9.48h4.53l2.67 17.78z"/><path d="m-2.165 672.24q0 4.89-6.36 4.91-6.37 0-6.37-4.91v-7.61h4.21v6.81q0 2.21 2.16 2.21 2.14 0 2.14-2.21v-6.81h4.22z"/><path d="m.525 677.15v-19.37h4.22v19.37z"/><path d="m11.765 668.69v8.46h-4.22v-8.46h-1.39v-3.54h1.39v-3.6h4.22v3.6h2.41v3.54z"/><path d="m15.505 677.15v-12h4.22v12zm4.49-16.38q0 .51-.18.94-.19.42-.52.76-.33.33-.76.5-.46.18-.93.18-.93 0-1.66-.69-.71-.71-.71-1.66 0-.5.19-.95.19-.46.51-.77.31-.32.75-.51t.92-.19q.49 0 .93.19t.76.51q.33.33.52.75.18.43.18.94"/><path d="m28.665 657.54c-1.3 0-2.49.45-3.56 1.37-1.08.94-1.64 1.96-1.69 3.06l-.07 1.54v1.64h-1.52v3.54h1.52v8.46h4.22v-8.46h2.96v-3.54h-2.96v-2.23c0-1.12.5-1.68 1.5-1.68.37 0 .86.14 1.46.42v-3.67c-.61-.3-1.23-.45-1.86-.45"/><path d="m37.895 662.88-1.95-1.45 3.33-4.1 2.68 1.94zm6.35 9.36q0 4.89-6.35 4.91-6.38 0-6.38-4.91v-7.61h4.22v6.81q0 2.21 2.16 2.21 2.13 0 2.13-2.21v-6.81h4.22z"/><path d="m51.45 668.69v8.46h-4.21v-8.46h-1.39v-3.54h1.39v-3.6h4.21v3.6h2.42v3.54z"/><path d="m68.975 670.75c0 1.77-.58 3.29-1.74 4.55-1.15 1.24-2.59 1.85-4.31 1.85-1.41 0-2.49-.4-3.24-1.21l-.21-.21c-.07-.07-.15-.17-.24-.28v1.32h-4.22v-19.38h4.22v8.57c.2-.23.39-.41.57-.52.82-.7 1.88-1.05 3.16-1.05 1.75 0 3.19.63 4.32 1.87 1.12 1.23 1.69 2.73 1.69 4.49m-4.39.05c0-.78-.26-1.43-.79-1.95-.53-.53-1.18-.8-1.93-.8-.77 0-1.41.27-1.94.8-.54.52-.8 1.16-.8 1.92 0 .78.26 1.43.8 1.95.53.52 1.18.78 1.94.78.72 0 1.35-.26 1.9-.78.55-.55.82-1.19.82-1.92"/><path d="m84.44 670.7q0 3.02-2.19 4.79-2.02 1.66-5.02 1.66-3.12 0-5.16-1.77-2.03-1.8-2.03-4.56 0-3.05 2.13-4.86 1.99-1.71 4.99-1.71 3.25 0 5.24 1.81 2.04 1.81 2.04 4.64m-4.48-.02q0-1.16-.8-1.94-.8-.81-1.93-.81-1.11 0-1.91.81-.81.81-.81 1.92 0 .57.22 1.08.21.5.57.88.35.38.87.6.5.21 1.06.21 1.13 0 1.93-.81t.8-1.94"/><path d="m86.16 677.15v-19.37h4.22v19.37z"/><path d="m-51.41 647.93v38.78h11.4v7.73h11.94v-7.73h135.42v-38.78zm4.22 4.21h150.32v30.36h-135.42v7.73h-3.505v-7.73h-11.4z" stroke-width=".265"/><path d="m4.687 686.39h46.567v46.57h-46.567z" fill="#0feb0f"/><path d="m23.07 727.09h-9.979l15.83-27.17h-15.977v-7.66h30.05z" fill="#fff"/></g></svg>