<svg xmlns="http://www.w3.org/2000/svg" height="271.84" width="600" viewBox="0 0 158.74998 71.923664"><defs><clipPath id="0"><path d="m666.14 0h666.16v907.09h-666.16v-907.09"/></clipPath><clipPath id="1"><path d="m1159.4 263.39h47.6v-19.04h-47.6v19.04"/></clipPath><clipPath id="2"><path d="m1161.8 261.19h42.7v-15.2h-42.7v15.2"/></clipPath></defs><g transform="translate(-31.809-142.1)"><path d="m184.18 209.82h-104.39l-.003-33.86h104.39v33.86z" fill="#009335"/><g clip-path="url(#0)" transform="matrix(2.5647 0 0-2.5647-2902.5 843.28)"><g opacity=".5" clip-path="url(#1)"><path d="m0 0l-2.441-.214 1.151-13.15 18.761 1.641h-17.471v11.723m42.04 3.678l-25.15-2.2h23.812v-11.168l2.486.218-1.15 13.15" fill="#009335" transform="translate(1162.8 258.72)"/></g><g opacity=".5" clip-path="url(#2)"><path d="m0 0h-23.812l-16.893-1.478v-11.723h17.471l23.23 2.033v11.168" fill="#009335" transform="translate(1203.5 260.19)"/></g></g><path d="m167.24 142.1h-135.43v33.86h135.43v-33.86"/><g fill="#fff"><g clip-path="url(#0)" transform="matrix(2.5647 0 0-2.5647-2902.5 843.28)"><path d="m0 0c-.001-.09-.055-.156-.055-.156s-.043-.046-.125-.065c-1.066-.437-2.254-.291-2.254-.291-1.926.21-3.151 1.39-3.543 2.914-.579 2.279.57 3.905.848 4.248.678.811 1.737 1.389 2.771 1.525 1.323.19 2.303-.122 2.704-.256 0 0 .447-.145.781-.368.166-.112.186-.156.186-.156s.012-.021-.031-.2l-.314-1.634c-.011-.067-.055-.101-.055-.101s-.023-.009-.175.091c-1 .711-2.173.621-2.173.621-.889-.057-1.924-.523-2.237-1.702-.277-1.046.014-1.924.633-2.449.426-.364 1.083-.554 1.771-.521.759.056 1.358.357 1.314.336 0 0 .033.009.068.021.155.078.189.067.189.067s.031-.034.011-.136l-.314-1.788m5.697 5.551l-.023-.022-1.108-2.526c-.023-.035-.014-.057-.014-.057s.014-.011.067-.011l1.634-.013.021.013s.012.011 0 .043l-.568 2.551-.009.022m18.47.031s-.008 0-.02-.042l-1.112-2.518c-.024-.076-.014-.087-.014-.087l.059-.022 1.647.009h.021s.001.013 0 .046l-.558 2.583c-.009.031-.023.031-.023.031m-15.09-5.862l-1.98-.008c-.045 0-.08.019-.08.019s-.012.001-.021.09l-.311 1.279c0 .033-.022.045-.022.045h-.034-2.789c-.058 0-.089-.045-.089-.045s-.046-.034-.08-.112l-.556-1.19c-.021-.041-.033-.057-.033-.057s-.035-.021-.067-.021h-2.306c-.064-.008-.075.021-.075.021s-.012.038.011.08l3.993 8.03c.023.044.055.055.055.055h.078 2.549c.041 0 .076-.033.076-.033s.013-.001.023-.045l1.714-8.05c0-.038-.023-.048-.023-.048l-.033-.011zm8.902-.022h-2.038-.065l-.022.022-2.826 5.02-.033.024s-.022 0-.022-.033l-.7-4.93c-.013-.057-.024-.067-.024-.067s-.024-.011-.056-.011h-2.027c-.033 0-.052.021-.052.021s-.046.046-.037.091l1.115 7.976c.001.044.032.056.032.056s.033.032.067.032h2.26c.033 0 .055-.022.055-.022s.022-.001.033-.045l2.549-4.469c.043-.093.077-.079.077-.079s.035 0 .056.099l.645 4.449c0 .035.023.045.023.045s.011.022.043.022l2.127-.022c.044 0 .056-.001.056-.001l.009-.035-1.143-8.04c-.011-.046-.034-.075-.034-.075s-.013-.014-.068-.014m9.537-.001h-2.038c-.042-.024-.078.024-.078.024s-.001.008-.022.075l-.265 1.255c-.021.069-.045.103-.045.103s-.056.033-.123.033h-2.649c-.054 0-.088-.033-.088-.033s-.045-.045-.068-.111l-.6-1.277c-.013-.037-.033-.045-.033-.045s-.044-.014-.07-.014h-2.291c-.054-.001-.076.022-.076.022s-.011.021.022.067l4.04 8.06.045.044s.023.011.089.011h2.503c.057 0 .091-.033.091-.033s.011-.001.021-.045l1.68-8.098-.001-.033s0-.001-.033-.001m5.843.12c-.014-.067-.023-.088-.023-.088s-.013-.022-.067-.022h-4.584c-.135 0-.169.033-.169.033s-.022.048-.009.146l1.135 7.897c.008.1.033.133.033.133h.12 2.082c.058 0 .079-.011.079-.011s.001-.032 0-.076l-.857-6.176c-.012-.067.022-.075.022-.075s.024-.013.111-.013h2.27c.043 0 .067-.022.067-.022s.013-.011.013-.067l-.223-1.659zm8.823 3.127s-.009-.022-.043-.022h-2.851c-.045 0-.067-.022-.067-.022s-.029-.011-.029-.067v-3.037c0-.046-.023-.056-.023-.056s-.014-.019-.049-.019h-2.257c-.035 0-.056.019-.056.019s-.001.001-.001.067v3.036c0 .035-.033.057-.033.057s-.013.022-.044.022h-2.917c-.055 0-.067.009-.067.009s-.023.024-.023.092v2.224c0 .025.023.056.023.056l.034.009h2.981c.025 0 .025.013.025.013l.021.033v2.66c0 .03.001.054.001.054s.021.012.089.012h2.216c.043 0 .057-.012.057-.012s.023-.024.023-.067v-2.668h2.891c.077 0 .099-.012.099-.012s.036-.013.036-.078v-2.248l-.036-.055" transform="translate(1152.5 263.28)"/><path d="m0 0h-2.176l-1.762 2.922-.354-2.922h-1.869l.906 7.378h2.401c1.751 0 2.607-.739 2.607-2.244 0-.775-.198-1.318-.65-1.74-.235-.227-.432-.333-.916-.529l1.813-2.865m-3.809 4.112h.335c.786 0 1.325.373 1.325.936 0 .482-.381.747-1.07.747h-.354l-.236-1.683" transform="translate(1194.7 250.63)"/></g><path d="m0 0h-1.917v5.754h-1.554v1.624h5.067v-1.624h-1.596v-5.754" transform="matrix(2.5647 0 0-2.5647 172.22 200.49)"/><g clip-path="url(#0)" transform="matrix(2.5647 0 0-2.5647-2902.5 843.28)"><path d="m0 0c-.402.346-.794.504-1.215.504-.46 0-.803-.276-.803-.64 0-.138.057-.267.172-.365.124-.118.295-.208.478-.265.105-.04.325-.1.641-.198.66-.207.995-.392 1.301-.737.325-.356.458-.749.458-1.318 0-.453-.115-1.021-.268-1.34-.401-.795-1.368-1.298-2.524-1.298-.566 0-1.043.109-1.627.355-.382.158-.526.247-.87.494l.793 1.531c.575-.506 1.1-.747 1.646-.747.555 0 .899.286.899.73 0 .147-.056.295-.152.393-.192.197-.364.274-.967.451-.593.178-.822.266-1.09.415-.565.295-.842.847-.842 1.642 0 1.487.985 2.49 2.439 2.49.756 0 1.559-.209 2.276-.6l-.745-1.497" transform="translate(1171 256.09)"/><path d="m0 0h-1.867v7.378h2.967c.841 0 1.32-.166 1.787-.62.471-.452.7-1.063.7-1.827 0-1.607-.852-2.481-2.42-2.481h-1.167v-2.45m.612 3.994c.707 0 1.023.284 1.023.916 0 .618-.335.924-1.013.924h-.622v-1.84h.612" transform="translate(1175.3 250.63)"/><path d="m0 0c-2.339 0-4.079-1.72-4.079-4.02 0-2.191 1.798-3.892 4.12-3.892 2.349 0 4.122 1.701 4.122 3.961 0 2.27-1.773 3.952-4.163 3.952m.041-6.03c-1.208 0-2.177.975-2.177 2.187 0 1.169.99 2.133 2.177 2.133 1.205 0 2.177-.964 2.177-2.154 0-1.201-.972-2.166-2.177-2.166" transform="translate(1183.7 258.26)"/></g></g></g></svg>