<svg xmlns="http://www.w3.org/2000/svg" viewBox="0 0 533 263"><g transform="matrix(12.84616 0 0 12.84616-413.77-2278.57)"><g fill="#7b7c7e"><path d="m43.98 197.85c-.696 0-.988-.6-.988-1.859 0-1.354.34-2.034 1.036-2.034.595 0 .919.451.919 1.317v.085h-.712v-.175c0-.446-.043-.664-.218-.664-.249 0-.281.478-.281 1.519 0 .797.037 1.168.286 1.168.192 0 .271-.265.271-.812v-.053h.643c-.016 1.01-.329 1.508-.956 1.508"/><path d="m45.547 194.03h.961l.484 3.75h-.648l-.107-.802h-.536l-.096.802h-.589l.531-3.75m.616 2.332l-.196-1.662-.197 1.662h.393"/><path d="m47.19 194.03h.664l.451 1.317c.085.25.16.489.192.728v-2.045h.584v3.75h-.563l-.515-1.45c-.091-.25-.176-.5-.229-.76v2.21h-.584v-3.75"/><path d="m49.822 194.03h.961l.484 3.75h-.648l-.107-.802h-.536l-.096.802h-.589l.531-3.75m.616 2.332l-.196-1.662-.197 1.662h.393"/><path d="m52.19 194.03v3.13h.9v.62h-1.62v-3.75z"/></g><path d="m55.13 197.78v-1.63h-.422v1.63h-.722v-3.75h.722v1.51h.422v-1.51h.726v3.75z"/><path d="m57.23 193.96c.738 0 1.025.632 1.025 1.944 0 1.312-.282 1.944-1.02 1.944-.765 0-1.052-.621-1.052-1.944 0-1.322.283-1.944 1.047-1.944m.266 2.077c0-1.01-.021-1.471-.271-1.471-.265 0-.281.43-.281 1.365 0 .892.026 1.291.287 1.291.217 0 .265-.388.265-1.185"/><path d="m59.31 194.03v3.13h.9v.62h-1.62v-3.75z"/><path d="m61.09 194.03v3.13h.9v.62h-1.62v-3.75z"/><path d="m62.925 195.44l.425-1.41h.584l-.734 2.23v1.52h-.73v-1.52l-.623-2.23h.723z"/><path d="m64.6 194.03l.149 1.588c.026.255.042.51.053.765.016-.35.064-.616.09-.802l.223-1.551h.664l.223 1.551c.022.159.069.425.085.802.016-.372.037-.627.053-.765l.202-1.588h.536l-.525 3.75h-.654l-.228-1.726c-.042-.33-.069-.643-.08-.94 0 .355-.058.664-.101.94l-.254 1.726h-.664l-.431-3.75h.659"/><path d="m68.06 193.96c.739 0 1.025.632 1.025 1.944 0 1.312-.281 1.944-1.019 1.944-.765 0-1.052-.621-1.052-1.944 0-1.322.282-1.944 1.046-1.944m.266 2.077c0-1.01-.021-1.471-.271-1.471-.265 0-.281.43-.281 1.365 0 .892.026 1.291.286 1.291.218 0 .266-.388.266-1.185"/><path d="m70.39 193.96c.739 0 1.025.632 1.025 1.944 0 1.312-.281 1.944-1.019 1.944-.765 0-1.052-.621-1.052-1.944 0-1.322.282-1.944 1.046-1.944m.266 2.077c0-1.01-.021-1.471-.271-1.471-.266 0-.281.43-.281 1.365 0 .892.026 1.291.286 1.291.218 0 .266-.388.266-1.185"/><path d="m71.74 194.03h.796c.903 0 1.164.557 1.164 1.874 0 1.323-.255 1.875-1.164 1.875h-.796v-3.749m.722 3.128c.027.005.058.005.08.005.372 0 .398-.361.398-1.174 0-.663-.011-1.051-.09-1.179-.069-.106-.181-.159-.34-.159h-.048v2.507"/><path d="m46.2 187.45l5.081 5.551-8.218-1.01-3.34 5.853-1.051-7.389-6.462-1.175 6.298-3.146-.596-8.764 5.304 6.172 9.467-5.849-6.483 9.753m-6.464 4.292l.667-.276-.622-1.502.393-.162.622 1.501.667-.277-1.435-3.464-.667.277.577 1.393-.393.163-.577-1.394-.667.277 1.435 3.464m.523-4.275l1.832 3.299.614-.254-.425-1.692c-.067-.271-.131-.578-.267-.907.124.271.268.55.433.838l.872 1.507.604-.25-.95-3.665-.495.205.421 1.544c.038.134.116.378.243.727-.158-.342-.304-.569-.385-.708l-.8-1.347-.613.254.388 1.518c.046.182.104.445.223.775-.107-.231-.22-.461-.342-.686l-.745-1.41-.608.252m4.379 2.244l.736-.305c.839-.348.863-.956.357-2.178-.504-1.217-.958-1.632-1.792-1.287l-.736.305 1.435 3.465m-.53-3.167l.044-.018c.147-.061.271-.055.375.017.123.087.281.441.535 1.055.311.75.424 1.094.081 1.237-.02.008-.049.02-.076.025l-.959-2.316" fill="#009dd5"/></g></svg>