<svg xmlns="http://www.w3.org/2000/svg" viewBox="0 0 600 141.45"><defs><clipPath id="0"><path d="m0 0h524.41v651.97h-524.41v-651.97"/></clipPath></defs><g transform="matrix(1.81073 0 0 1.81073-264.09-497.75)"><g clip-path="url(#0)" transform="matrix(14.21647 0 0-14.21647-5853.7 5880.36)"><path d="m422.01 388.8h23.308v5.495h-23.308v-5.495" fill="#231f20"/></g><g fill="#fff"><path d="m163.98 332.55l18.355-37.1h3.067l-.338-1.57h9.25l2.971 12.365h-1.739l6.376 26.301h-9.902l-1.618-6.787h-12.921l-3.116 6.787zm16.978-14.201h7.559l-1.377-6.473c-.032-.177-.097-.459-.193-.845-.097-.386-.153-.652-.169-.797l-.193-.821c-.161-.95-.322-1.988-.483-3.116-.467 1.481-1.03 2.946-1.691 4.396z"/><path d="m220.08 332.5l4.54-37.1h9.395l-3.55 28.933h11.81l-.99 8.163z"/><path d="m242.92 332.5l18.355-37.1h10.578l9.01 37.1h-9.902l-1.618-6.787h-12.921l-3.116 6.787zm16.978-14.201h7.559l-1.377-6.473c-.08-.386-.165-.769-.254-1.147-.089-.378-.157-.672-.205-.882-.048-.209-.08-.354-.097-.435-.193-1.159-.354-2.198-.483-3.116-.064.193-.149.431-.254.712-.105.282-.173.471-.205.568-.322 1.014-.733 2.053-1.232 3.116z"/><path d="m299.31 314.8c0-2.769.527-5.398 1.582-7.885 1.055-2.488 2.484-4.629 4.287-6.424 1.803-1.795 3.965-3.216 6.485-4.263 2.52-1.047 5.18-1.57 7.982-1.57 2.882 0 5.829.628 8.839 1.884.821.354 1.397.656 1.727.906.33.25.495.511.495.785v.145l-.869 7.27c-.048.419-.093.68-.133.785-.04.105-.117.157-.229.157-.08 0-.193-.048-.338-.145l-.555-.459c-.886-.725-2.077-1.308-3.574-1.751-1.497-.443-2.987-.664-4.468-.664-3.365 0-6.138 1.014-8.32 3.043-2.182 2.029-3.273 4.605-3.272 7.728 0 2.93.95 5.329 2.85 7.197 1.9 1.868 4.331 2.802 7.294 2.802 1.513 0 3.103-.209 4.77-.628 1.666-.419 2.798-.886 3.393-1.401.08-.129.177-.193.29-.193.145 0 .217.08.217.242 0 .129-.024.314-.072.555l-.676 8.07c0 .258-.185.467-.555.628-.886.451-2.194.837-3.925 1.159-1.731.322-3.321.483-4.77.483-3.526 0-6.694-.789-9.504-2.367-2.81-1.578-5-3.772-6.581-6.581-1.578-2.81-2.367-5.977-2.367-9.504"/><path d="m329.68 332.5l18.355-37.1h10.578l9.01 37.1h-9.902l-1.618-6.787h-12.921l-3.116 6.787zm16.978-14.201h7.559l-1.377-6.473c-.08-.386-.165-.769-.254-1.147-.089-.378-.157-.672-.205-.882-.048-.209-.08-.354-.097-.435-.193-1.159-.354-2.198-.483-3.116-.064.193-.149.431-.254.712-.105.282-.173.471-.205.568-.322 1.014-.733 2.053-1.232 3.116z"/><path d="m371.88 332.5l4.54-37.1h12.08c4.396 0 7.676.934 9.842 2.802 2.166 1.868 3.248 4.693 3.248 8.477 0 1.964-.262 3.647-.785 5.05-.523 1.401-1.348 2.633-2.476 3.695-.58.564-1.183 1.026-1.811 1.389-.628.362-1.554.793-2.777 1.292l9.105 14.394h-10.941l-8.864-14.684-1.763 14.684zm11.81-20.674h1.691c1.98 0 3.586-.431 4.818-1.292 1.232-.861 1.848-2 1.848-3.417 0-1.208-.467-2.133-1.401-2.777-.934-.644-2.262-.966-3.985-.966h-1.787z"/><path d="m407.52 303.57l.99-8.163h25.19l-.99 8.163h-7.825l-3.55 28.933h-9.395l3.599-28.933z"/><path d="m433.81 332.5l4.54-37.1h20.335l-.99 8.163h-10.941l-.797 6.376h10.554l-.99 8.163h-10.602l-.725 6.231h11.375l-1.039 8.163z"/></g></g></svg>