<?xml version="1.0" encoding="UTF-8" standalone="no"?>
<svg xmlns:rdf="http://www.w3.org/1999/02/22-rdf-syntax-ns#" xmlns="http://www.w3.org/2000/svg" height="322.96" width="599.99" version="1.1" xmlns:cc="http://creativecommons.org/ns#" xmlns:dc="http://purl.org/dc/elements/1.1/" viewBox="0 0 158.74653 85.450101">
 <g transform="translate(-200.44 -1498.6)">
  <path d="m256.53 1537.5h46.57v46.5h-46.57z" fill="#08c1b3"/>
  <g fill="#fff">
   <path d="m290.29 1571v7.2h-8.36v-7.2h-16.86v-5.8l13.47-21.9h11.75v20.3h4.27v7.4zm-8.36-19.7-7.86 12.3h7.86z"/>
   <path stroke-width=".26457" d="m200.44 1498.6v38.9h11.85v7.4h11.46v-7.4h135.44v-38.9zm4.22 4.2h150.32v30.7h-135.28v7.4h-3.37v-7.4h-11.67z"/>
   <g stroke-width=".99998">
    <path d="m226.07 1525.3-1.14-8.8-3.67 8.8h-1.58l-3.49-8.8-1.3 8.8h-3.94l2.58-15.2h3.92l3.08 8.1 3.26-8.1h3.92l2.31 15.2z"/>
    <path d="m243.17 1521.6q0 4.1-5.5 4.2-5.51 0-5.51-4.2v-6.6h3.65v5.9q0 1.9 1.86 1.9 1.85 0 1.85-1.9v-5.9h3.65z"/>
    <path d="m245.67 1525.3v-15.2h3.65v15.2z"/>
    <path d="m255.88 1518.1v7.2h-3.65v-7.2h-1.2v-3.1h1.2v-3h3.65v3h2.09v3.1z"/>
    <path d="m263.19 1512q0 0.4-0.16 0.8t-0.45 0.7q-0.29 0.2-0.66 0.4-0.39 0.1-0.8 0.1-0.81 0-1.44-0.6-0.61-0.6-0.61-1.4 0-0.4 0.16-0.8 0.17-0.4 0.44-0.7 0.27-0.2 0.65-0.4 0.38-0.1 0.8-0.1t0.8 0.1q0.38 0.2 0.66 0.4 0.29 0.3 0.45 0.7t0.16 0.8zm-3.9 13.3v-10.3h3.65v10.3z"/>
    <path d="m273.45 1525.3v-1.1q-0.29 0.3-0.39 0.4-1.08 1-2.8 1-2.27 0-3.75-1.6t-1.48-3.8q0-2.3 1.48-3.9 1.47-1.6 3.71-1.6 1.49 0 2.43 0.6 0.3 0.2 0.8 0.8v-6h3.64v15.2zm0.09-5.1q0-0.5-0.18-0.9-0.19-0.5-0.5-0.8-0.33-0.3-0.76-0.5-0.41-0.2-0.91-0.2-0.97 0-1.66 0.7t-0.69 1.7q0 0.4 0.18 0.9 0.19 0.4 0.5 0.7t0.75 0.5q0.43 0.2 0.92 0.2 0.5 0 0.91-0.2 0.43-0.2 0.76-0.5 0.3-0.3 0.5-0.7 0.18-0.4 0.18-0.9z"/>
    <path d="m282.86 1520.8q0.02 2.4 2.23 2.4 1.14 0 1.78-1h3.54q-0.34 1.1-0.94 1.8-1.5 1.7-4.4 1.7-2.69 0-4.3-1.5-1.6-1.4-1.6-3.9 0-2.6 1.54-4.1 1.55-1.4 4.22-1.4 2.62 0 4.12 1.5t1.5 4.2v0.3zm4.3-2.1q-0.42-1.6-2.13-1.6-1.74 0-2.07 1.6z"/>
    <path d="m304.68 1520.2q0 1.7-0.84 3-0.83 1.4-2.31 2-0.95 0.4-2.05 0.4-0.83 0-1.56-0.2-0.3-0.1-0.46-0.2-0.18-0.1-0.39-0.2-0.15-0.1-0.38-0.3-0.17-0.1-0.43-0.4v6.3h-3.65v-15.6h3.65v1.2q0.06-0.1 0.19-0.2 0.13-0.2 0.19-0.3 1.08-1 2.8-1 2.28 0 3.76 1.6t1.48 3.9zm-3.8 0q0-0.5-0.18-0.9-0.19-0.5-0.51-0.8t-0.76-0.5q-0.43-0.2-0.92-0.2-0.5 0-0.91 0.2-0.43 0.2-0.75 0.5-0.31 0.3-0.51 0.8-0.18 0.4-0.18 0.9 0 0.9 0.71 1.6 0.69 0.7 1.66 0.7 0.93 0 1.64-0.7t0.71-1.6z"/>
    <path d="m318.8 1520.2q0 2.6-1.89 4.1-1.75 1.4-4.34 1.4-2.7 0-4.46-1.5-1.77-1.6-1.77-3.9 0-2.6 1.85-4.2 1.72-1.4 4.32-1.4 2.81 0 4.53 1.5 1.76 1.6 1.76 4zm-3.87 0q0-1-0.7-1.7-0.69-0.7-1.66-0.7t-1.66 0.7-0.69 1.6q0 0.5 0.18 1 0.18 0.4 0.5 0.7 0.3 0.3 0.75 0.5 0.43 0.2 0.92 0.2 0.97 0 1.66-0.7 0.7-0.7 0.7-1.6z"/>
    <path d="m328.62 1518.4-0.4-0.2q-0.47-0.2-1.16-0.2-1.16 0-1.86 0.7t-0.7 2.2v4.4h-3.65v-10.3h3.65v1.7q0.53-0.8 1.06-1.1 0.97-0.7 2.37-0.7h0.31q0.03 0 0.15 0 0.09 0 0.23 0z"/>
    <path d="m334.32 1518.1v7.2h-3.65v-7.2h-1.2v-3.1h1.2v-3h3.65v3h2.09v3.1z"/>
    <path d="m341.01 1520.8q0.03 2.4 2.24 2.4 1.13 0 1.78-1h3.53q-0.33 1.1-0.93 1.8-1.5 1.7-4.4 1.7-2.69 0-4.3-1.5-1.61-1.4-1.61-3.9 0-2.6 1.54-4.1 1.55-1.4 4.22-1.4 2.62 0 4.12 1.5t1.5 4.2v0.3zm4.31-2.1q-0.43-1.6-2.13-1.6-1.75 0-2.07 1.6z"/>
   </g>
  </g>
 </g>
</svg>
