<svg xmlns="http://www.w3.org/2000/svg" height="321.39" width="600" viewBox="0 0 158.75 85.034518"><g transform="translate(37.798-488.6)"><path d="m-7.198 517.83l-1.32-10.24-4.24 10.24h-1.83l-4.03-10.24-1.5 10.24h-4.56l2.99-17.78h4.52l3.57 9.48 3.77-9.48h4.53l2.67 17.78z"/><path d="m11.442 512.92q0 4.89-6.36 4.91-6.37 0-6.37-4.91v-7.61h4.21v6.81q0 2.2 2.16 2.2 2.14 0 2.14-2.2v-6.81h4.22z"/><path d="m14.13 517.83v-19.38h4.22v19.38z"/><path d="m25.372 509.37v8.46h-4.22v-8.46h-1.39v-3.54h1.39v-3.6h4.22v3.6h2.41v3.54z"/><path d="m29.11 517.83v-12h4.22v12zm4.49-16.38q0 .51-.18.94-.19.42-.52.76-.33.33-.76.49-.46.18-.93.18-.93 0-1.66-.68-.71-.72-.71-1.67 0-.49.19-.95.19-.45.51-.77.31-.31.75-.51.44-.19.92-.19.49 0 .93.19.44.2.76.51.33.34.52.76.18.43.18.94"/><path d="m42.27 498.21c-1.3 0-2.49.46-3.56 1.38-1.08.94-1.64 1.95-1.69 3.06l-.07 1.54v1.64h-1.52v3.54h1.52v8.46h4.22v-8.46h2.96v-3.54h-2.96v-2.23c0-1.13.5-1.69 1.5-1.69.37 0 .86.15 1.46.43v-3.67c-.61-.31-1.23-.46-1.86-.46"/><path d="m51.5 503.55l-1.95-1.44 3.33-4.1 2.68 1.94zm6.35 9.37q0 4.89-6.35 4.91-6.38 0-6.38-4.91v-7.61h4.22v6.81q0 2.2 2.16 2.2 2.13 0 2.13-2.2v-6.81h4.22z"/><path d="m65.06 509.37v8.46h-4.21v-8.46h-1.39v-3.54h1.39v-3.6h4.21v3.6h2.42v3.54z"/><path d="m82.58 511.43c0 1.77-.58 3.29-1.74 4.55-1.15 1.23-2.59 1.85-4.31 1.85-1.41 0-2.49-.4-3.24-1.21l-.21-.21c-.07-.08-.15-.17-.24-.29v1.33h-4.22v-19.38h4.22v8.56c.2-.22.39-.4.57-.52.82-.69 1.88-1.04 3.16-1.04 1.75 0 3.19.62 4.32 1.87 1.12 1.23 1.69 2.73 1.69 4.49m-4.39.04c0-.77-.26-1.42-.79-1.94-.53-.54-1.18-.81-1.93-.81-.77 0-1.41.27-1.94.81-.54.52-.8 1.16-.8 1.92 0 .78.26 1.43.8 1.95.53.52 1.18.78 1.94.78.72 0 1.35-.26 1.9-.78.55-.55.82-1.2.82-1.93"/><path d="m98.04 511.38q0 3.01-2.19 4.79-2.02 1.66-5.02 1.66-3.12 0-5.16-1.78-2.03-1.8-2.03-4.55 0-3.05 2.13-4.86 1.99-1.71 4.99-1.71 3.25 0 5.24 1.8 2.04 1.82 2.04 4.65m-4.48-.02q0-1.16-.8-1.95-.8-.81-1.93-.81-1.11 0-1.91.81-.81.81-.81 1.93 0 .57.22 1.07.21.51.57.89.35.38.87.6.5.21 1.06.21 1.13 0 1.93-.81t.8-1.94"/><path d="m99.76 517.83v-19.38h4.218v19.38z"/><path d="m-37.798 488.6v38.79h11.4v7.73h11.94v-7.73h135.41v-38.79zm4.22 4.22h150.32v30.36h-135.41v7.72h-3.508v-7.72h-11.4z" stroke-width=".265"/><path d="m18.294 527.07h46.567v46.57h-46.567z" fill="#0feb0f"/><path d="m55.14 558.42q0 3.58-2.415 6.27-2.155 2.44-5.715 3.57-2.642.79-5.432.79-5.93 0-9.751-2.98-3.81-2.97-3.81-7.7 0-4.5 3.02-6.97 1.27-1 3.991-1.95-1.111-.5-1.95-1.09-.816-.57-1.44-1.19-2.177-2.33-2.177-5.52 0-3.38 2.041-5.85 1.916-2.37 5.25-3.4 2.177-.74 4.921-.74 5.375 0 8.686 2.74 3.345 2.73 3.345 7.25 0 3.21-2.086 5.34-.59.62-1.497 1.2-1.077.69-2.223 1.26 2.54.75 3.992 1.9 3.254 2.69 3.254 7.07m-9.616-16.68q0-1.59-1.156-2.62-1.168-1.05-2.744-1.05-1.678 0-2.835 1.02-1.157 1.03-1.157 2.69 0 1.64 1.157 2.68 1.168 1.04 2.789 1.04 1.667 0 2.812-1.04 1.134-1.03 1.134-2.72m.329 15.7q0-1.74-1.236-2.88-1.224-1.12-2.993-1.12-1.803 0-3.062 1.12-1.258 1.12-1.258 2.88t1.258 2.9q1.247 1.14 3.02 1.14 1.826 0 3.039-1.14 1.236-1.14 1.236-2.9" fill="#fff"/></g></svg>