<svg xmlns="http://www.w3.org/2000/svg" height="175.81" width="600" viewBox="0 0 158.75 46.515266"><g transform="translate(272.9 19.567)"><g><path d="m-242.3 9.662l-1.32-10.243-4.24 10.243h-1.83l-4.03-10.243-1.5 10.243h-4.56l2.99-17.787h4.52l3.57 9.484 3.77-9.484h4.53l2.67 17.787z"/><path d="m-223.66 4.752q0 4.887-6.36 4.91-6.37 0-6.37-4.91v-7.614h4.21v6.809q0 2.206 2.16 2.206 2.14 0 2.14-2.206v-6.809h4.22z"/><path d="m-220.97 9.662v-19.379h4.22v19.379z"/><path d="m-209.73 1.197v8.465h-4.22v-8.465h-1.39v-3.538h1.39v-3.601h4.22v3.601h2.41v3.538z"/><path d="m-205.99 9.662v-12h4.22v12zm4.49-16.382q0 .51-.18.938-.19.423-.52.758-.33.33-.76.498-.46.179-.93.179-.93 0-1.66-.689-.71-.712-.71-1.662 0-.498.19-.95t.51-.77q.31-.318.75-.509t.92-.191q.49 0 .93.191t.76.509q.33.336.52.758.18.428.18.938"/><path d="m-192.83-9.957c-1.3 0-2.49.459-3.56 1.378-1.08.934-1.64 1.953-1.69 3.057l-.07 1.54v1.641h-1.52v3.538h1.52v8.465h4.22v-8.465h2.96v-3.538h-2.96v-2.232c0-1.123.5-1.685 1.5-1.685.37 0 .86.143 1.46.429v-3.676c-.61-.301-1.23-.452-1.86-.452"/><path d="m-183.6-4.616l-1.95-1.447 3.33-4.099 2.68 1.945zm6.35 9.368q0 4.887-6.35 4.91-6.38 0-6.38-4.91v-7.614h4.22v6.809q0 2.206 2.16 2.206 2.13 0 2.13-2.206v-6.809h4.22z"/><path d="m-170.04 1.197v8.465h-4.21v-8.465h-1.39v-3.538h1.39v-3.601h4.21v3.601h2.42v3.538z"/><path d="m-152.52 3.258c0 1.772-.58 3.289-1.74 4.551-1.15 1.235-2.59 1.853-4.31 1.853-1.41 0-2.49-.403-3.24-1.21l-.21-.214c-.07-.073-.15-.168-.24-.284v1.326h-4.22v-19.379h4.22v8.563c.2-.228.39-.401.57-.521.82-.695 1.88-1.042 3.16-1.042 1.75 0 3.19.623 4.32 1.87 1.12 1.231 1.69 2.727 1.69 4.487m-4.39.046c0-.776-.26-1.424-.79-1.946-.53-.536-1.18-.805-1.93-.805-.77 0-1.41.268-1.94.805-.54.521-.8 1.162-.8 1.922 0 .776.26 1.424.8 1.946.53.521 1.18.782 1.94.782.72 0 1.35-.261 1.9-.782.55-.552.82-1.193.82-1.922"/><path d="m-137.06 3.212q0 3.01-2.19 4.788-2.02 1.662-5.02 1.662-3.12 0-5.16-1.777-2.03-1.801-2.03-4.557 0-3.046 2.13-4.858 1.99-1.708 4.99-1.708 3.25 0 5.24 1.801 2.04 1.818 2.04 4.649m-4.48-.023q0-1.164-.8-1.946-.8-.811-1.93-.811-1.11 0-1.91.811-.81.811-.81 1.922 0 .573.22 1.077.21.504.57.886.35.376.87.596.5.214 1.06.214 1.13 0 1.93-.811t.8-1.94"/><path d="m-135.34 9.662v-19.379h4.22v19.379z"/></g><path d="m-272.9-19.567v38.788h11.4v7.727h11.94v-7.727h135.41v-38.788zm4.22 4.214h150.32v30.36h-135.41v7.727h-3.51v-7.727h-11.4z" stroke-width=".265"/></g></svg>