<?xml version="1.0" encoding="UTF-8" standalone="no"?>
<!-- Created with Inkscape (http://www.inkscape.org/) -->

<svg
   xmlns:dc="http://purl.org/dc/elements/1.1/"
   xmlns:cc="http://creativecommons.org/ns#"
   xmlns:rdf="http://www.w3.org/1999/02/22-rdf-syntax-ns#"
   xmlns:svg="http://www.w3.org/2000/svg"
   xmlns="http://www.w3.org/2000/svg"
   version="1.1"
   width="600"
   height="314.66748"
   id="svg125967">
  <defs
     id="defs125969">
    <clipPath
       id="clipPath120813">
      <path
         d="m 42.269,448.715 25.947,0 0,13.608 -25.947,0 0,-13.608 z"
         id="path120815" />
    </clipPath>
  </defs>
  <metadata
     id="metadata125972">
    <rdf:RDF>
      <cc:Work
         rdf:about="">
        <dc:format>image/svg+xml</dc:format>
        <dc:type
           rdf:resource="http://purl.org/dc/dcmitype/StillImage" />
        <dc:title></dc:title>
      </cc:Work>
    </rdf:RDF>
  </metadata>
  <g
     transform="translate(-57.142868,-526.45662)"
     id="layer1">
    <g
       transform="matrix(23.124239,0,0,-23.124239,-920.29559,11217.317)"
       id="g120809">
      <g
         clip-path="url(#clipPath120813)"
         id="g120811">
        <g
           transform="translate(58.117599,455.0255)"
           id="g120817">
          <path
             d="m 0,0 -11.362,0 0,-5.479 1.313,0 -0.399,4.565 L 0,0 z"
             id="path120819"
             style="fill:#317a22;fill-opacity:1;fill-rule:nonzero;stroke:none" />
        </g>
        <g
           transform="translate(66.901794,449.54671)"
           id="g120821">
          <path
             d="M 0,0 0,0.748 -8.545,0 0,0 z"
             id="path120823"
             style="fill:#317a22;fill-opacity:1;fill-rule:nonzero;stroke:none" />
        </g>
        <g
           transform="translate(67.7388,455.8672)"
           id="g120825">
          <path
             d="m 0,0 -9.621,-0.842 8.784,0 0,-4.731 1.314,0.115 L 0,0 z"
             id="path120827"
             style="fill:#cce657;fill-opacity:1;fill-rule:nonzero;stroke:none" />
        </g>
        <g
           transform="translate(48.146698,448.6534)"
           id="g120829">
          <path
             d="m 0,0 10.21,0.893 -10.288,0 L 0,0 z"
             id="path120831"
             style="fill:#cce657;fill-opacity:1;fill-rule:nonzero;stroke:none" />
        </g>
        <g
           transform="translate(58.117599,455.0255)"
           id="g120833">
          <path
             d="m 0,0 -10.448,-0.914 0.399,-4.565 10.288,0 8.545,0.748 L 8.784,0 0,0 z"
             id="path120835"
             style="fill:#4dbd38;fill-opacity:1;fill-rule:nonzero;stroke:none" />
        </g>
        <g
           transform="translate(60.770401,452.6053)"
           id="g120837">
          <path
             d="m 0,0 0.155,0 c 0.362,0 0.61,0.172 0.61,0.431 0,0.223 -0.175,0.345 -0.493,0.345 l -0.163,0 L 0,0 z m 1.756,-1.895 -1.003,0 -0.812,1.347 -0.163,-1.347 -0.862,0 0.418,3.4 1.106,0 c 0.807,0 1.202,-0.34 1.202,-1.034 0,-0.357 -0.091,-0.607 -0.3,-0.802 C 1.234,-0.435 1.143,-0.484 0.92,-0.575 l 0.836,-1.32 z"
             id="path120839"
             style="fill:#ffffff;fill-opacity:1;fill-rule:nonzero;stroke:none" />
        </g>
        <g
           transform="translate(64.435303,450.7104)"
           id="g120841">
          <path
             d="m 0,0 -0.884,0 0,2.652 -0.716,0 0,0.748 2.335,0 0,-0.748 L 0,2.652 0,0 z"
             id="path120843"
             style="fill:#ffffff;fill-opacity:1;fill-rule:nonzero;stroke:none" />
        </g>
        <g
           transform="translate(51.608902,453.2253)"
           id="g120845">
          <path
             d="m 0,0 c -0.185,0.16 -0.366,0.232 -0.56,0.232 -0.212,0 -0.37,-0.127 -0.37,-0.294 0,-0.064 0.026,-0.124 0.079,-0.169 0.057,-0.054 0.136,-0.096 0.221,-0.122 0.048,-0.018 0.149,-0.046 0.295,-0.091 0.304,-0.095 0.459,-0.181 0.599,-0.34 0.15,-0.164 0.212,-0.345 0.212,-0.607 0,-0.209 -0.054,-0.471 -0.124,-0.617 -0.184,-0.367 -0.63,-0.599 -1.163,-0.599 -0.261,0 -0.481,0.05 -0.75,0.164 -0.176,0.073 -0.242,0.113 -0.401,0.227 l 0.366,0.706 c 0.264,-0.234 0.507,-0.344 0.758,-0.344 0.256,0 0.415,0.132 0.415,0.336 0,0.068 -0.026,0.136 -0.071,0.181 -0.088,0.091 -0.167,0.126 -0.445,0.208 -0.274,0.082 -0.379,0.123 -0.503,0.191 -0.26,0.136 -0.387,0.39 -0.387,0.757 0,0.685 0.453,1.148 1.123,1.148 0.349,0 0.719,-0.097 1.05,-0.277 L 0,0 z"
             id="path120847"
             style="fill:#ffffff;fill-opacity:1;fill-rule:nonzero;stroke:none" />
        </g>
        <g
           transform="translate(53.840301,452.55)"
           id="g120849">
          <path
             d="m 0,0 c 0.326,0 0.472,0.131 0.472,0.422 0,0.285 -0.155,0.426 -0.467,0.426 l -0.287,0 L -0.282,0 0,0 z m -0.282,-1.84 -0.86,0 0,3.4 1.367,0 c 0.388,0 0.609,-0.077 0.824,-0.286 0.217,-0.208 0.322,-0.49 0.322,-0.842 0,-0.741 -0.392,-1.144 -1.115,-1.144 l -0.538,0 0,-1.128 z"
             id="path120851"
             style="fill:#ffffff;fill-opacity:1;fill-rule:nonzero;stroke:none" />
        </g>
        <g
           transform="translate(57.455307,451.4489)"
           id="g120853">
          <path
             d="m 0,0 c -0.557,0 -1.003,0.45 -1.003,1.008 0,0.539 0.456,0.983 1.003,0.983 0.555,0 1.003,-0.444 1.003,-0.993 C 1.003,0.444 0.555,0 0,0 m -0.019,2.78 c -1.078,0 -1.88,-0.793 -1.88,-1.853 0,-1.01 0.829,-1.794 1.899,-1.794 1.082,0 1.9,0.784 1.9,1.826 0,1.046 -0.818,1.821 -1.919,1.821"
             id="path120855"
             style="fill:#ffffff;fill-opacity:1;fill-rule:nonzero;stroke:none" />
        </g>
        <path
           d="m 64.163,460.5 -21.894,0 0,-5.474 21.894,0 0,5.474 z"
           id="path120857"
           style="fill:#151922;fill-opacity:1;fill-rule:nonzero;stroke:none" />
        <g
           transform="translate(63.228104,457.52361)"
           id="g120859">
          <path
             d="m 0,0 -0.018,-0.009 -1.181,0 c -0.019,0 -0.028,-0.01 -0.028,-0.01 0,0 -0.014,-0.004 -0.014,-0.027 l 0,-1.259 c 0,-0.018 -0.009,-0.023 -0.009,-0.023 l -0.019,-0.009 -0.936,0 -0.023,0.009 c 0,0 -0.005,0.005 -0.005,0.027 l 0,1.26 -0.014,0.022 -0.018,0.01 -1.209,0 c -0.023,0 -0.028,0.004 -0.028,0.004 0,0 -0.009,0.009 -0.009,0.037 l 0,0.922 0.009,0.023 0.014,0.005 1.237,0 0.009,0.005 0.009,0.014 0,1.102 0.005,0.023 c 0,0 0.009,0.004 0.037,0.004 l 0.918,0 c 0.018,0 0.023,-0.004 0.023,-0.004 0,0 0.009,-0.01 0.009,-0.028 l 0,-1.107 1.199,0 C -0.009,0.991 0,0.987 0,0.987 c 0,0 0.014,-0.005 0.014,-0.033 l 0,-0.931 L 0,0 z m -3.658,-1.296 c -0.005,-0.027 -0.01,-0.037 -0.01,-0.037 0,0 -0.004,-0.009 -0.027,-0.009 l -1.901,0 c -0.056,0 -0.069,0.014 -0.069,0.014 0,0 -0.01,0.018 -0.005,0.06 l 0.47,3.274 c 0.005,0.041 0.014,0.055 0.014,0.055 l 0.051,0 0.863,0 c 0.023,0 0.032,-0.004 0.032,-0.004 0,0 0.005,-0.014 0,-0.033 l -0.355,-2.559 c -0.005,-0.028 0.009,-0.032 0.009,-0.032 0,0 0.009,-0.005 0.046,-0.005 l 0.941,0 c 0.019,0 0.028,-0.009 0.028,-0.009 0,0 0.005,-0.005 0.005,-0.028 l -0.092,-0.687 z m -2.423,-0.051 -0.844,0 c -0.018,-0.009 -0.032,0.01 -0.032,0.01 0,0 -0.005,0.004 -0.009,0.032 l -0.111,0.521 c -0.009,0.028 -0.019,0.042 -0.019,0.042 0,0 -0.023,0.014 -0.05,0.014 l -1.098,0 c -0.023,0 -0.037,-0.014 -0.037,-0.014 0,0 -0.019,-0.019 -0.028,-0.047 l -0.249,-0.53 -0.014,-0.018 -0.028,-0.005 -0.95,0 c -0.023,-0.005 -0.032,0.009 -0.032,0.009 0,0 -0.005,0.01 0.009,0.028 l 1.675,3.343 0.018,0.019 c 0,0 0.009,0.004 0.037,0.004 l 1.038,0 c 0.023,0 0.037,-0.014 0.037,-0.014 l 0.009,-0.018 0.697,-3.357 -0.005,-0.014 -0.014,-0.005 z m -3.954,0.005 -0.844,0 -0.027,0 -0.009,0.009 -1.172,2.08 -0.014,0.009 -0.009,-0.014 -0.291,-2.043 c -0.005,-0.022 -0.01,-0.027 -0.01,-0.027 l -0.022,-0.005 -0.84,0 -0.023,0.01 c 0,0 -0.019,0.018 -0.014,0.036 l 0.461,3.307 c 0.005,0.018 0.014,0.023 0.014,0.023 l 0.028,0.014 0.936,0 0.023,-0.01 0.014,-0.018 1.057,-1.854 c 0.018,-0.037 0.032,-0.032 0.032,-0.032 0,0 0.014,0 0.023,0.042 l 0.268,1.844 0.009,0.018 0.019,0.01 0.88,-0.01 c 0.019,0 0.024,-0.004 0.024,-0.004 l 0.004,-0.014 -0.475,-3.334 c -0.004,-0.018 -0.014,-0.032 -0.014,-0.032 0,0 -0.004,-0.005 -0.028,-0.005 m -3.69,0.009 -0.821,-0.004 c -0.019,0 -0.033,0.009 -0.033,0.009 0,0 -0.005,0.005 -0.009,0.037 l -0.129,0.53 -0.01,0.019 -0.013,0 -1.158,0 c -0.023,0 -0.037,-0.019 -0.037,-0.019 0,0 -0.019,-0.014 -0.033,-0.046 l -0.23,-0.494 c -0.009,-0.018 -0.014,-0.022 -0.014,-0.022 l -0.028,-0.01 -0.955,0 c -0.028,-0.004 -0.032,0.01 -0.032,0.01 0,0 -0.005,0.013 0.004,0.032 l 1.657,3.329 c 0.009,0.019 0.023,0.023 0.023,0.023 l 0.032,0 1.057,0 c 0.018,0 0.032,-0.014 0.032,-0.014 l 0.009,-0.018 0.711,-3.339 -0.009,-0.018 -0.014,-0.005 z m 6.256,2.43 c 0,0 -0.005,0 -0.01,-0.018 L -7.94,0.037 C -7.949,0.004 -7.945,0 -7.945,0 l 0.024,-0.009 0.682,0.004 0.01,0 0,0.019 -0.231,1.07 -0.009,0.013 z m -7.659,-0.013 -0.009,-0.01 -0.461,-1.046 -0.005,-0.024 c 0,0 0.005,-0.004 0.028,-0.004 l 0.678,-0.005 0.009,0.005 0,0.018 -0.235,1.056 -0.005,0.01 z m -2.362,-2.302 c -0.005,-0.036 -0.023,-0.064 -0.023,-0.064 0,0 -0.019,-0.019 -0.051,-0.028 -0.443,-0.179 -0.936,-0.12 -0.936,-0.12 -0.798,0.088 -1.306,0.577 -1.468,1.208 -0.239,0.946 0.236,1.619 0.351,1.762 0.282,0.337 0.72,0.576 1.149,0.632 0.549,0.078 0.955,-0.051 1.121,-0.106 0,0 0.184,-0.06 0.323,-0.152 0.069,-0.047 0.078,-0.065 0.078,-0.065 0,0 0.005,-0.009 -0.014,-0.083 l -0.129,-0.678 c -0.004,-0.028 -0.023,-0.041 -0.023,-0.041 0,0 -0.009,-0.005 -0.073,0.037 -0.416,0.295 -0.9,0.258 -0.9,0.258 -0.369,-0.023 -0.798,-0.217 -0.927,-0.706 -0.116,-0.433 0.004,-0.798 0.263,-1.014 0.175,-0.152 0.447,-0.231 0.733,-0.217 0.314,0.023 0.563,0.148 0.545,0.138 l 0.027,0.01 c 0.065,0.032 0.079,0.027 0.079,0.027 0,0 0.014,-0.013 0.004,-0.055 l -0.129,-0.743 z"
             id="path120861"
             style="fill:#ffffff;fill-opacity:1;fill-rule:nonzero;stroke:none" />
        </g>
        <g
           transform="translate(67.936005,459.58569)"
           id="g120863">
          <path
             d="m 0,0 c -0.122,0.912 -0.244,1.825 -0.365,2.737 l -5.839,0 C -5.96,1.551 -5.717,0.365 -5.474,-0.821 -3.649,-0.547 -1.825,-0.274 0,0"
             id="path120865"
             style="fill:#ed1c24;fill-opacity:1;fill-rule:nonzero;stroke:none" />
        </g>
        <g
           transform="translate(64.373505,459.7608)"
           id="g120867">
          <path
             d="M 0,0 C -0.061,0.333 -0.091,0.5 -0.152,0.833 -0.448,0.81 -0.595,0.798 -0.892,0.775 c 0.066,-0.344 0.099,-0.516 0.165,-0.86 -0.202,-0.023 -0.303,-0.035 -0.504,-0.059 -0.14,0.712 -0.281,1.423 -0.42,2.135 0.21,0.004 0.315,0.007 0.525,0.012 0.062,-0.323 0.093,-0.485 0.155,-0.807 0.297,0.017 0.446,0.026 0.744,0.043 -0.057,0.313 -0.085,0.469 -0.142,0.782 0.21,0.005 0.315,0.007 0.525,0.012 C 0.272,1.375 0.388,0.717 0.505,0.059 0.303,0.035 0.202,0.023 0,0"
             id="path120869"
             style="fill:#ffffff;fill-opacity:1;fill-rule:nonzero;stroke:none" />
        </g>
        <g
           transform="translate(65.894196,461.4153)"
           id="g120871">
          <path
             d="m 0,0 c -0.047,-0.002 -0.071,-0.003 -0.117,-0.005 0.067,-0.419 0.101,-0.628 0.169,-1.047 0.046,0.004 0.069,0.007 0.114,0.011 0.337,0.032 0.526,0.253 0.48,0.559 C 0.599,-0.175 0.344,0.015 0,0 M 0.356,-1.436 C 0.059,-1.47 -0.089,-1.488 -0.386,-1.522 -0.494,-0.884 -0.602,-0.245 -0.709,0.394 -0.4,0.401 -0.246,0.405 0.064,0.412 0.575,0.41 1.108,0.058 1.184,-0.444 1.257,-0.925 0.841,-1.37 0.356,-1.436"
             id="path120873"
             style="fill:#ffffff;fill-opacity:1;fill-rule:nonzero;stroke:none" />
        </g>
      </g>
    </g>
  </g>
</svg>
