<?xml version="1.0" encoding="UTF-8" standalone="no"?>
<svg xmlns:rdf="http://www.w3.org/1999/02/22-rdf-syntax-ns#" xmlns="http://www.w3.org/2000/svg" height="322.97" width="600" version="1.1" xmlns:cc="http://creativecommons.org/ns#" xmlns:dc="http://purl.org/dc/elements/1.1/" viewBox="0 0 158.75 85.451805">
 <g transform="translate(-24.85 -1470.7)">
  <path d="m80.941 1509.6h46.569v46.6h-46.569z" fill="#08c1b3"/>
  <path d="m117.92 1540.3q0 2.5-0.97 4.7-0.98 2.1-2.78 3.6-1.79 1.4-4.32 2.3-2.52 0.8-5.58 0.8-2.57 0-5.057-0.9-2.438-0.9-4.411-2.6-1.973-1.6-3.118-4-1.157-2.3-1.157-5.2h8.777q0.193 1.6 0.691 2.5 0.515 1 1.195 1.6 0.68 0.5 1.48 0.8 0.78 0.2 1.65 0.2 2.09 0 3.34-1.4 1.26-1.3 1.26-3.4 0-2.2-1.49-3.4-1.48-1.1-3.85-1.1h-0.33q-0.34 0-0.51 0.1v-6.1h0.51q4.41 0 4.41-3.7t-3.53-3.7q-3.67 0-3.85 4.1h-8.313q0.828-5.9 4.06-8.7 3.243-2.7 8.573-2.7 2.55 0 4.65 0.7 2.1 0.8 3.59 2.1 1.52 1.3 2.35 3.2 0.84 1.9 0.84 4.2t-0.89 4q-0.88 1.7-2.88 3.1 2.98 0.9 4.32 3.4 1.34 2.4 1.34 5.5z" fill="#fff"/>
  <path stroke-width=".26458" d="m24.85 1470.7v39h11.85v7.4h11.46v-7.4h135.44v-39zm4.22 4.2h150.32v30.7h-135.28v7.5h-3.37v-7.5h-11.67z"/>
  <g>
   <path d="m50.48 1497.5-1.14-8.8-3.67 8.8h-1.58l-3.49-8.8-1.3 8.8h-3.94l2.58-15.2h3.92l3.08 8.1 3.26-8.1h3.92l2.31 15.2z"/>
   <path d="m67.58 1493.7q0 4.2-5.5 4.2-5.51 0-5.51-4.2v-6.5h3.65v5.8q0 1.9 1.86 1.9 1.85 0 1.85-1.9v-5.8h3.65z"/>
   <path d="m70.08 1497.5v-15.2h3.65v15.2z"/>
   <path d="m80.29 1490.2v7.3h-3.65v-7.3h-1.2v-3h1.2v-3.1h3.65v3.1h2.09v3z"/>
   <path d="m87.6 1484.2q0 0.4-0.16 0.8-0.16 0.3-0.45 0.6t-0.66 0.4q-0.39 0.2-0.8 0.2-0.81 0-1.44-0.6-0.61-0.6-0.61-1.4 0-0.4 0.16-0.8 0.17-0.4 0.44-0.7t0.65-0.4q0.38-0.2 0.8-0.2t0.8 0.2q0.38 0.1 0.66 0.4 0.29 0.3 0.45 0.7 0.16 0.3 0.16 0.8zm-3.9 13.3v-10.3h3.65v10.3z"/>
   <path d="m97.86 1497.5v-1.2q-0.29 0.4-0.39 0.5-1.08 1-2.8 1-2.27 0-3.75-1.6t-1.48-3.9 1.48-3.8q1.47-1.6 3.71-1.6 1.49 0 2.43 0.6 0.3 0.2 0.8 0.7v-5.9h3.64v15.2zm0.09-5.2q0-0.5-0.18-0.9-0.19-0.4-0.5-0.7-0.33-0.3-0.76-0.5-0.41-0.2-0.91-0.2-0.97 0-1.66 0.7t-0.69 1.6q0 0.5 0.18 0.9 0.19 0.5 0.5 0.8t0.75 0.5q0.43 0.2 0.92 0.2 0.5 0 0.91-0.2 0.43-0.2 0.76-0.5 0.3-0.3 0.5-0.8 0.18-0.4 0.18-0.9z"/>
   <path d="m107.27 1493q0.02 2.3 2.23 2.3 1.14 0 1.78-1h3.54q-0.34 1.2-0.94 1.9-1.5 1.7-4.4 1.7-2.69 0-4.3-1.5-1.6-1.5-1.6-4t1.54-4q1.55-1.5 4.22-1.5 2.62 0 4.12 1.5 1.5 1.6 1.5 4.2v0.4zm4.3-2.1q-0.42-1.6-2.13-1.6-1.74 0-2.07 1.6z"/>
   <path d="m129.09 1492.4q0 1.6-0.84 3-0.83 1.3-2.31 2-0.95 0.4-2.05 0.4-0.83 0-1.56-0.3-0.3 0-0.46-0.1-0.18-0.1-0.39-0.2-0.15-0.1-0.38-0.3-0.17-0.2-0.43-0.4v6.3h-3.65v-15.6h3.65v1.1q0.06 0 0.19-0.2 0.13-0.1 0.19-0.2 1.08-1 2.8-1 2.28 0 3.76 1.6t1.48 3.9zm-3.8 0q0-0.5-0.18-1-0.19-0.4-0.51-0.7t-0.76-0.5q-0.43-0.2-0.92-0.2-0.5 0-0.91 0.2-0.43 0.2-0.75 0.5-0.31 0.3-0.51 0.7-0.18 0.4-0.18 0.9 0 1 0.71 1.7 0.69 0.7 1.66 0.7 0.93 0 1.64-0.7t0.71-1.6z"/>
   <path d="m143.21 1492.3q0 2.6-1.89 4.1-1.75 1.5-4.34 1.5-2.7 0-4.46-1.6-1.77-1.5-1.77-3.9 0-2.6 1.85-4.1 1.72-1.5 4.32-1.5 2.81 0 4.53 1.6 1.76 1.5 1.76 3.9zm-3.87 0q0-1-0.7-1.6-0.69-0.7-1.66-0.7t-1.66 0.7q-0.69 0.6-0.69 1.6 0 0.5 0.18 0.9t0.5 0.8q0.3 0.3 0.75 0.5 0.43 0.2 0.92 0.2 0.97 0 1.66-0.7 0.7-0.7 0.7-1.7z"/>
   <path d="m153.03 1490.5-0.4-0.1q-0.47-0.2-1.16-0.2-1.16 0-1.86 0.7t-0.7 2.2v4.4h-3.65v-10.3h3.65v1.7q0.53-0.8 1.06-1.2 0.97-0.6 2.37-0.6h0.31q0.03 0 0.15 0 0.09 0 0.23 0z"/>
   <path d="m158.73 1490.2v7.3h-3.65v-7.3h-1.2v-3h1.2v-3.1h3.65v3.1h2.09v3z"/>
   <path d="m165.42 1493q0.03 2.3 2.24 2.3 1.13 0 1.78-1h3.53q-0.33 1.2-0.93 1.9-1.5 1.7-4.4 1.7-2.69 0-4.3-1.5t-1.61-4 1.54-4q1.55-1.5 4.22-1.5 2.62 0 4.12 1.5 1.5 1.6 1.5 4.2v0.4zm4.31-2.1q-0.43-1.6-2.13-1.6-1.75 0-2.07 1.6z"/>
  </g>
 </g>
</svg>
