<svg xmlns="http://www.w3.org/2000/svg" height="322.97" width="600" viewBox="0 0 158.75 85.451878"><g transform="translate(16.327-997.28)"><path d="m39.764 1036.2h46.567v46.5h-46.567z" fill="#08c1b3"/><g fill="#fff"><path d="m58.15 1076.9h-9.979l15.83-27.2h-15.977v-7.7h30.05z"/><path stroke-width=".265" d="m-16.327 997.28v38.92h11.85v7.4h11.46v-7.4h135.44v-38.92zm4.22 4.22h150.32v30.7h-135.28v7.4h-3.367v-7.4h-11.67z"/><g><path d="m9.303 1024l-1.14-8.7-3.67 8.7h-1.58l-3.49-8.7-1.3 8.7h-3.94l2.58-15.2h3.92l3.08 8.1 3.26-8.1h3.92l2.31 15.2z"/><path d="m26.403 1020.3q0 4.1-5.5 4.2-5.51 0-5.51-4.2v-6.5h3.65v5.8q0 1.9 1.86 1.9 1.85 0 1.85-1.9v-5.8h3.65z"/><path d="m28.903 1024v-15.2h3.65v15.2z"/><path d="m39.11 1016.8v7.2h-3.65v-7.2h-1.2v-3h1.2v-3.1h3.65v3.1h2.09v3z"/><path d="m46.42 1010.7q0 .4-.16.8t-.45.7q-.29.2-.66.4-.39.1-.8.1-.81 0-1.44-.5-.61-.7-.61-1.5 0-.4.16-.8.17-.4.44-.6.27-.3.65-.5.38-.1.8-.1t.8.1q.38.2.66.5.29.2.45.6t.16.8m-3.9 13.3v-10.2h3.65v10.2z"/><path d="m56.683 1024v-1.1q-.29.3-.39.4-1.08 1-2.8 1-2.27 0-3.75-1.6t-1.48-3.8q0-2.3 1.48-3.9 1.47-1.6 3.71-1.6 1.49 0 2.43.7.3.2.8.7v-6h3.64v15.2zm.09-5.1q0-.5-.18-.9-.19-.5-.5-.8-.33-.3-.76-.5-.41-.1-.91-.1-.97 0-1.66.6-.69.7-.69 1.7 0 .5.18.9.19.4.5.7t.75.5q.43.2.92.2.5 0 .91-.2.43-.2.76-.5.3-.3.5-.7.18-.4.18-.9"/><path d="m66.09 1019.6q.02 2.3 2.23 2.3 1.14 0 1.78-1h3.54q-.34 1.1-.94 1.8-1.5 1.7-4.4 1.7-2.69 0-4.3-1.5-1.6-1.4-1.6-3.9 0-2.6 1.54-4.1 1.55-1.4 4.22-1.4 2.62 0 4.12 1.5t1.5 4.2v.4zm4.3-2.2q-.42-1.6-2.13-1.6-1.74 0-2.07 1.6z"/><path d="m87.91 1018.9q0 1.7-.84 3-.83 1.4-2.31 2-.95.4-2.05.4-.83 0-1.56-.2-.3-.1-.46-.2-.18-.1-.39-.2-.15-.1-.38-.3-.17-.1-.43-.4v6.3h-3.65v-15.5h3.65v1.1q.06-.1.19-.2.13-.2.19-.3 1.08-1 2.8-1 2.28 0 3.76 1.6t1.48 3.9m-3.8 0q0-.5-.18-.9-.19-.5-.51-.8t-.76-.5q-.43-.1-.92-.1-.5 0-.91.1-.43.2-.75.5-.31.3-.51.8-.18.4-.18.9 0 .9.71 1.6.69.7 1.66.7.93 0 1.64-.7t.71-1.6"/><path d="m102.03 1018.9q0 2.6-1.89 4.1-1.747 1.4-4.337 1.4-2.7 0-4.46-1.5-1.77-1.6-1.77-3.9 0-2.6 1.85-4.2 1.72-1.4 4.32-1.4 2.81 0 4.527 1.5 1.76 1.6 1.76 4m-3.867 0q0-1-.7-1.7-.69-.7-1.66-.7t-1.66.7-.69 1.6q0 .5.18 1 .18.4.5.7.3.3.75.5.43.2.92.2.97 0 1.66-.7.7-.7.7-1.6"/><path d="m111.85 1017.1l-.4-.2q-.47-.2-1.16-.2-1.16 0-1.86.7t-.7 2.2v4.4h-3.65v-10.2h3.65v1.6q.53-.8 1.06-1.1.97-.7 2.37-.7h.31q.03 0 .15 0 .09 0 .23.1z"/><path d="m117.55 1016.8v7.2h-3.65v-7.2h-1.2v-3h1.2v-3.1h3.65v3.1h2.09v3z"/><path d="m124.24 1019.6q.03 2.3 2.24 2.3 1.13 0 1.78-1h3.53q-.33 1.1-.93 1.8-1.5 1.7-4.4 1.7-2.69 0-4.3-1.5-1.61-1.4-1.61-3.9 0-2.6 1.54-4.1 1.55-1.4 4.22-1.4 2.62 0 4.12 1.5t1.5 4.2v.4zm4.31-2.2q-.43-1.6-2.13-1.6-1.75 0-2.07 1.6z"/></g></g></g></svg>