<svg xmlns="http://www.w3.org/2000/svg" viewBox="0 0 1515 1277.08"><defs><radialGradient cx="524.19" cy="755.16" r="161.75" id="0" gradientUnits="userSpaceOnUse"><stop offset=".03" stop-color="#fff"/><stop offset=".1" stop-color="#e3ebf4"/><stop offset=".306" stop-color="#98b3d5"/><stop offset=".49" stop-color="#5c87bd"/><stop offset=".645" stop-color="#3068ab"/><stop offset=".766" stop-color="#1654a0"/><stop offset=".837" stop-color="#0c4d9c"/><stop offset=".916" stop-color="#024698"/></radialGradient></defs><path fill="#ed3921" d="m700.13 862.09l.05-213.34 150.99-.41-233.33-634.59h222.5l471.87 977.19h-305.94l-49.06-128.85z"/><ellipse cx="524.19" cy="755.16" rx="162.4" ry="161.09" fill="url(#0)"/><path d="m546.17 250l104.79 200c0 0-382.29 100.41-335.63 353.75 48.44 262.97 360.83 275.84 360.83 275.84l-75.37 175.72c0 0-552.13-51.579-582.13-438.23-30.01-386.94 527.51-567.08 527.51-567.08" fill="#86a337"/><g fill="#030303"><path d="m684.05 1213.12l-17.934 39.07h-37.09l82.986-167.75h44.37l1.823 167.75h-36.771l.607-39.07h-37.997m39.21-22.653l.912-37.09c.304-10.203 1.52-27.877 1.824-40.563h-.607c-4.865 12.695-11.552 31.11-15.808 40.32l-16.415 37.34h30.09"/><path d="m807.57 1084.45h37.997l-32.83 140.61h49.853l-6.384 27.12h-87.85l39.21-167.74"/><path d="m976.27 1247.46c-11.247 3.486-24.632 6.226-40.43 6.226-24.318 0-39.21-6.462-49.852-17.42-10.03-10.202-15.198-26.63-15.198-41.82 0-34.594 13.982-66.939 38.614-88.35 17.316-14.944 41.33-23.15 66.55-23.15 17.03 0 26.446 2.484 32.535 4.478l-12.159 27.377c-4.854-1.738-13.688-3.486-22.19-3.486-13.973 0-24.623 3.74-34.04 11.204-16.719 13.688-29.18 40.32-29.18 71.44 0 20.905 8.208 32.847 24.622 32.847 4.256 0 7.6-.246 10.944-.992l9.433-41.557h-18.542l6.373-25.15h52.902l-20.386 88.35"/><path d="m1090.16 1178.03h-44.988l-11.247 46.534h51.676l-6.678 27.623h-89.36l39.2-167.75h85.72l-6.688 27.377h-47.11l-10.03 39.817h45.891l-6.395 26.395"/><path d="m1128.57 1086.68c12.768-1.738 27.05-2.985 40.732-2.985 17.631 0 34.654 2.74 45.29 11.449 8.511 6.981 13.364 16.683 13.364 27.632 0 24.637-18.238 44.3-41.635 50.767v.501c11.237 4.241 16.11 13.943 16.719 32.601.608 18.676 1.207 39.33 3.344 45.552h-38.3c-.922-4.733-1.52-21.652-1.52-40.06 0-20.414-5.167-27.12-17.935-27.12h-6.384l-15.199 67.19h-37.08l38.606-165.53m19.758 74.17h8.816c19.15 0 31.907-16.674 31.907-34.34 0-8.955-4.55-18.411-18.836-18.411-3.962 0-7.6.245-10.03.746l-11.855 52.01"/><path d="m1292.51 1084.45l-39.21 167.75h-37.997l39.22-167.75h37.986"/><path d="m1369.11 1178.03h-44.989l-11.236 46.534h51.676l-6.687 27.623h-89.36l39.21-167.75h85.71l-6.688 27.377h-47.11l-10.02 39.817h45.892l-6.406 26.395"/></g></svg>