<svg xmlns="http://www.w3.org/2000/svg" viewBox="0 0 600 314.65"><defs><clipPath id="0"><path d="m42.27 420.49h25.947v13.607h-25.947v-13.607"/></clipPath></defs><g transform="translate(-50-375.04)"><g clip-path="url(#0)" transform="matrix(23.1241 0 0-23.1241-927.43 10413.05)"><g fill="#f47216"><path d="m0 0h-11.09v-5.483h1.301l-.401 4.592 10.186.891" transform="translate(57.842 426.79)"/><path d="m0 0v.773l-8.835-.773h8.835" transform="translate(66.916 421.31)"/></g><g fill="#fddd04"><path d="m0 0l9.948.87h-10.02l.076-.87" transform="translate(48.13 420.44)"/><path d="m0 0l-9.896-.866h9.07v-4.71l1.3.114-.478 5.462" transform="translate(67.738 427.66)"/></g><path d="m0 0l-10.186-.891.401-4.592h10.02l8.835.773v4.71h-9.07" fill="#f89c0e" transform="translate(57.842 426.79)"/><g fill="#fff"><path d="m0 0v-1.905h-.96v1.905h-.348v.795h.348v-.042l.016.345c.001.251.138.481.384.689.245.209.518.309.811.309.139 0 .277-.031.421-.1v-.828c-.133.064-.245.097-.33.097-.229 0-.342-.129-.342-.38v-.09h.672v-.795h-.672" transform="translate(51.02 424.33)"/><path d="m0 0c0 .167-.057.307-.177.427-.12.12-.26.177-.427.177-.166 0-.307-.057-.426-.177-.12-.12-.177-.26-.177-.422 0-.338.265-.607.603-.607.167 0 .307.056.427.176.12.12.177.26.177.426m-.026-1.326v.292c-.047-.058-.078-.095-.099-.11-.182-.182-.421-.271-.718-.271-.39 0-.712.141-.967.427-.25.276-.375.604-.375.993 0 .562.307 1.077.812 1.301.161.068.332.104.52.104.249 0 .457-.052.624-.162.057-.036.125-.099.203-.181v.26h.936v-2.653h-.936z" transform="translate(53.633 423.73)"/><path d="m0 0c-.021.055-.046.106-.077.153-.152.219-.439.355-.757.355-.392 0-.689-.168-.898-.496-.218.344-.49.491-.902.491-.292 0-.537-.084-.751-.261-.026-.026-.062-.058-.115-.105v.324h-.939v-2.64h.939v1.304c0 .235.021.355.068.449.063.125.224.224.365.224.162 0 .313-.109.37-.256.037-.093.042-.135.042-.417v-1.304h.94v1.304c0 .198.015.308.061.408.074.145.231.244.387.244.157 0 .282-.088.344-.229.047-.11.052-.141.052-.423v-1.304h.94v1.716c0 .191-.023.339-.069.463" transform="translate(59.37 424.59)"/><path d="m59.801 425.04h.943v-2.65h-.943v2.65m1.01.822c0-.293-.247-.524-.534-.524-.142 0-.267.053-.372.152-.105.105-.157.225-.157.366 0 .298.235.535.529.535.292 0 .534-.237.534-.529"/><path d="m61.26 426.32h.947v-3.943h-.947v3.943"/><path d="m0 0h-1.062l.936 1.741-1.294 2.297h1.1l.714-1.362.7 1.362h1.083l-2.177-4.04" transform="translate(63.45 421.66)"/></g><path d="m64.18 432.27h-21.908v-5.477h21.908v5.477" fill="#151922"/><path d="m0 0l-.018-.009h-1.182c-.019 0-.028-.001-.028-.001 0 0-.014-.004-.014-.027v-1.26c0-.018-.009-.023-.009-.023l-.018-.009h-.938l-.023.009c0 0-.004.005-.004.028v1.259l-.015.023-.018.001h-1.209c-.023 0-.028.004-.028.004 0 0-.009.009-.009.037v.923l.009.023.014.005h1.237l.009.004.001.014v1.103l.004.023c0 0 .009.005.037.005h.919c.018 0 .023-.005.023-.005 0 0 .009-.009.009-.027v-1.108h1.2c.033 0 .042-.005.042-.005 0 0 .014-.004.014-.032v-.932l-.014-.023m-3.661-1.297c-.005-.027-.009-.036-.009-.036 0 0-.005-.001-.028-.001h-1.902c-.055 0-.069.014-.069.014 0 0-.009.019-.005.06l.471 3.276c.004.042.014.055.014.055h.051.863c.023 0 .032-.004.032-.004 0 0 .005-.014 0-.032l-.355-2.561c-.005-.028.009-.033.009-.033 0 0 .009-.004.046-.004h.942c.018 0 .028-.009.028-.009 0 0 .004-.005.004-.028l-.092-.688m-2.424-.051h-.844c-.019-.009-.033.001-.033.001 0 0-.004.005-.009.032l-.111.521c-.009.028-.018.042-.018.042 0 0-.023.014-.051.014h-1.099c-.023 0-.037-.014-.037-.014 0 0-.018-.018-.027-.046l-.25-.531-.014-.018-.027-.005h-.951c-.024-.005-.033.001-.033.001 0 0-.004.009.009.027l1.676 3.345.019.019c0 0 .009.004.037.004h1.038c.023 0 .038-.013.038-.013l.009-.019.697-3.359-.005-.014-.014-.005m-3.956.005h-.845-.028l-.009.001-1.172 2.081-.014.009-.009-.014-.291-2.044c-.005-.023-.001-.028-.001-.028l-.023-.004h-.84l-.023.009c0 0-.019.018-.014.036l.462 3.309c.004.018.014.023.014.023l.027.014h.938l.022-.009.014-.019 1.058-1.855c.018-.037.032-.032.032-.032 0 0 .014 0 .023.042l.268 1.845.009.019.019.009.881-.009c.019 0 .023-.005.023-.005l.005-.014-.475-3.336c-.005-.018-.015-.032-.015-.032 0 0-.004-.005-.027-.005m-3.693.001l-.822-.005c-.019 0-.032.009-.032.009 0 0-.005.005-.001.037l-.129.531-.009.018h-.014-1.159c-.023 0-.037-.018-.037-.018 0 0-.018-.014-.032-.047l-.231-.493c-.009-.019-.014-.023-.014-.023l-.028-.009h-.955c-.028-.005-.032.009-.032.009 0 0-.005.014.004.032l1.658 3.331c.009.019.023.023.023.023h.032 1.057c.019 0 .032-.013.032-.013l.001-.019.711-3.34-.009-.019-.014-.004zm6.26 2.431c0 0-.005 0-.001-.018l-.461-1.043c-.001-.033-.005-.037-.005-.037l.023-.009.683.004h.001v.019l-.231 1.07-.009.014m-7.664-.014l-.009-.009-.462-1.047-.004-.024c0 0 .004-.004.027-.004l.679-.005.009.005v.018l-.235 1.057-.005.009m-2.364-2.302c-.004-.037-.023-.065-.023-.065 0 0-.018-.018-.05-.027-.444-.18-.938-.121-.938-.121-.798.088-1.306.577-1.468 1.209-.24.946.236 1.62.351 1.763.282.337.72.577 1.15.632.549.079.955-.051 1.122-.106 0 0 .184-.06.323-.152.069-.046.078-.065.078-.065 0 0 .005-.009-.014-.083l-.129-.678c-.004-.028-.023-.042-.023-.042 0 0-.009-.004-.074.037-.415.296-.9.259-.9.259-.369-.023-.799-.217-.928-.706-.115-.434.004-.799.263-1.015.175-.153.448-.231.734-.217.314.023.563.147.545.138l.028.009c.064.033.078.028.078.028 0 0 .014-.014.005-.055l-.13-.743" fill="#fff" transform="translate(63.24 429.29)"/><path d="m0 0c-.122.913-.244 1.826-.365 2.739h-5.843c.244-1.187.487-2.374.731-3.561 1.825.274 3.651.548 5.477.822" fill="#ed1c24" transform="translate(67.953 431.36)"/><g fill="#fff"><path d="m0 0c-.061.333-.091.5-.152.833-.296-.023-.444-.034-.74-.057.066-.344.099-.516.164-.861-.201-.023-.302-.035-.504-.059-.14.712-.28 1.424-.42 2.136.21.005.315.007.526.012.062-.323.092-.485.154-.808.298.018.447.027.745.044-.057.313-.085.469-.142.782.21.005.315.008.525.012.117-.658.233-1.317.349-1.975-.202-.024-.303-.036-.505-.059" transform="translate(64.39 431.53)"/><path d="m0 0c-.047-.002-.071-.003-.117-.005.067-.419.101-.629.169-1.048.046.005.069.007.114.011.338.032.526.254.48.56-.047.306-.302.497-.646.482m.356-1.437c-.297-.034-.446-.052-.742-.086-.108.639-.216 1.278-.324 1.917.31.007.464.011.774.019.511-.003 1.044-.355 1.121-.858.072-.481-.343-.926-.829-.992" transform="translate(65.91 433.19)"/></g></g></g></svg>