<?xml version="1.0" encoding="UTF-8" standalone="no"?>
<svg xmlns:rdf="http://www.w3.org/1999/02/22-rdf-syntax-ns#" xmlns="http://www.w3.org/2000/svg" height="321.39" width="600" version="1.1" xmlns:cc="http://creativecommons.org/ns#" xmlns:dc="http://purl.org/dc/elements/1.1/" viewBox="0 0 158.75 85.034485">
 <g transform="translate(-27.97 -441.94)">
  <path d="m58.57 471.17-1.32-10.25-4.24 10.25h-1.83l-4.03-10.25-1.5 10.25h-4.56l2.99-17.79h4.52l3.57 9.48 3.77-9.48h4.53l2.67 17.79z"/>
  <path d="m77.21 466.26q0 4.88-6.36 4.91-6.37 0-6.37-4.91v-7.62h4.21v6.81q0 2.21 2.16 2.21 2.14 0 2.14-2.21v-6.81h4.22z"/>
  <path d="m79.9 471.17v-19.38h4.22v19.38z"/>
  <path d="m91.14 462.7v8.47h-4.22v-8.47h-1.39v-3.54h1.39v-3.6h4.22v3.6h2.41v3.54z"/>
  <path d="m94.88 471.17v-12.01h4.22v12.01zm4.49-16.38q0 0.51-0.18 0.93-0.19 0.43-0.52 0.76t-0.76 0.5q-0.46 0.18-0.93 0.18-0.93 0-1.66-0.69-0.71-0.71-0.71-1.66 0-0.5 0.19-0.95t0.51-0.77q0.31-0.32 0.75-0.51t0.92-0.19q0.49 0 0.93 0.19t0.76 0.51q0.33 0.33 0.52 0.76 0.18 0.43 0.18 0.94z"/>
  <path d="m108.04 451.55c-1.3 0-2.49 0.46-3.56 1.38-1.08 0.93-1.64 1.95-1.69 3.05l-0.07 1.54v1.65h-1.52v3.53h1.52v8.47h4.22v-8.47h2.96v-3.53h-2.96v-2.24c0-1.12 0.5-1.68 1.5-1.68 0.37 0 0.86 0.14 1.46 0.43v-3.68c-0.61-0.3-1.23-0.45-1.86-0.45z"/>
  <path d="m117.27 456.89-1.95-1.45 3.33-4.1 2.68 1.95zm6.35 9.37q0 4.88-6.35 4.91-6.38 0-6.38-4.91v-7.62h4.22v6.81q0 2.21 2.16 2.21 2.13 0 2.13-2.21v-6.81h4.22z"/>
  <path d="m130.83 462.7v8.47h-4.21v-8.47h-1.39v-3.54h1.39v-3.6h4.21v3.6h2.42v3.54z"/>
  <path d="m148.35 464.76c0 1.78-0.58 3.29-1.74 4.55-1.15 1.24-2.59 1.86-4.31 1.86-1.41 0-2.49-0.41-3.24-1.21l-0.21-0.22c-0.07-0.07-0.15-0.16-0.24-0.28v1.33h-4.22v-19.38h4.22v8.56c0.2-0.23 0.39-0.4 0.57-0.52 0.82-0.7 1.88-1.04 3.16-1.04 1.75 0 3.19 0.62 4.32 1.87 1.12 1.23 1.69 2.72 1.69 4.48zm-4.39 0.05c0-0.78-0.26-1.42-0.79-1.95s-1.18-0.8-1.93-0.8c-0.77 0-1.41 0.27-1.94 0.8-0.54 0.53-0.8 1.17-0.8 1.93 0 0.77 0.26 1.42 0.8 1.94 0.53 0.52 1.18 0.78 1.94 0.78 0.72 0 1.35-0.26 1.9-0.78 0.55-0.55 0.82-1.19 0.82-1.92z"/>
  <path d="m163.81 464.72q0 3.01-2.19 4.79-2.02 1.66-5.02 1.66-3.12 0-5.16-1.78-2.03-1.8-2.03-4.56 0-3.04 2.13-4.85 1.99-1.71 4.99-1.71 3.25 0 5.24 1.8 2.04 1.82 2.04 4.65zm-4.48-0.03q0-1.16-0.8-1.94-0.8-0.81-1.93-0.81-1.11 0-1.91 0.81-0.81 0.81-0.81 1.92 0 0.57 0.22 1.08 0.21 0.5 0.57 0.88 0.35 0.38 0.87 0.6 0.5 0.21 1.06 0.21 1.13 0 1.93-0.81t0.8-1.94z"/>
  <path d="m165.53 471.17v-19.38h4.22v19.38z"/>
  <path d="m27.97 441.94v38.79h11.4v7.72h11.94v-7.72h135.41v-38.79zm4.22 4.21h150.32v30.36h-135.41v7.73h-3.51v-7.73h-11.4z" stroke-width=".26458"/>
  <path d="m84.062 480.41h46.568v46.56h-46.568z" fill="#0feb0f"/>
  <path d="m120.35 509.25q0 5.79-3.94 9.15-3.98 3.28-10.82 3.28-2.61 0-5.853-0.78-1.905-0.46-3.81-1.53-0.42-0.2-0.749-0.42-0.249-0.16-0.839-0.46l1.304-7.71q1.225 0.79 4.037 2.22 2.69 1.12 5.07 1.12 2.55 0 4.32-1.26 1.9-1.47 1.9-3.94 0-1.95-1.44-3.39-1.21-1.22-3.21-1.86-1.46-0.42-3.1-0.42-1.96 0-4.833 0.7l-0.748 0.2q-0.352 0.11-0.975 0.31l3.016-18.77h18.07v7.67h-11.98l-0.6 3.9q0.02 0 0.25-0.02 0.14-0.01 0.39-0.07 1.22-0.15 2.24-0.15 3.8 0 6.87 1.93 3.05 1.92 4.5 5.42 0.93 2.35 0.93 4.88z" fill="#fff"/>
 </g>
</svg>
