<?xml version="1.0" encoding="UTF-8" standalone="no"?>
<svg xmlns:rdf="http://www.w3.org/1999/02/22-rdf-syntax-ns#" xmlns="http://www.w3.org/2000/svg" xml:space="preserve" height="327.32" width="600" version="1.1" xmlns:cc="http://creativecommons.org/ns#" xmlns:dc="http://purl.org/dc/elements/1.1/" viewBox="0 0 599.99999 327.31665"><rect height="218.22" width="600" y="109.1" x=".000056434" fill="#e60a2d"/><g fill="#fff"><polyline points="106.24 133.1 103.56 129.2 106.24 129.2 107.48 131.37 108.78 129.2 111.44 129.2 108.72 133.1 111.88 137.56 109.26 137.56 107.46 134.84 105.59 137.56 102.97 137.56 106.24 133.1" transform="matrix(14.911 0 0 14.911 -1508.9 -1773.3)"/><polyline points="114.58 133.58 114.58 137.56 112.58 137.56 112.58 133.58 111.92 133.58 111.92 131.92 112.58 131.92 112.58 130.22 114.58 130.22 114.58 131.92 115.73 131.92 115.73 133.58 114.58 133.58" transform="matrix(14.911 0 0 14.911 -1508.9 -1773.3)"/><path d="m227.71 193.64h29.96v13.81c4.49-7.57 11.26-12.32 20.31-14.21 4.49-0.82 8.94-0.95 13.39-0.4v28.25c-4.45-2.01-8.58-3.01-12.42-3.01-6.49 0-11.65 1.9-15.42 5.68-2.18 2.1-3.68 4.52-4.55 7.23-0.88 2.64-1.31 6.24-1.31 10.71v36.05h-29.96v-84.11"/><path d="m346.19 216.04c-5.18 0-9.69 1.89-13.48 5.68-3.78 3.73-5.68 8.23-5.68 13.48 0 5.47 1.9 10.11 5.68 13.9 3.73 3.72 8.27 5.59 13.57 5.59 5.36 0 9.9-1.9 13.63-5.68 3.79-3.79 5.68-8.34 5.68-13.65s-1.89-9.85-5.68-13.64c-3.73-3.79-8.3-5.68-13.72-5.68m18.6-23.05h29.97v84.78h-29.97v-9.34c-6.38 8.12-15.18 12.17-26.39 12.17-11.59 0-21.43-4.1-29.56-12.33-8.72-8.81-13.07-19.85-13.07-33.06 0-13.1 4.31-23.97 12.91-32.64 8.11-8.17 18.09-12.27 29.88-12.27 5.37 0 10.51 1.02 15.43 3.02 3.25 1.29 6.85 3.96 10.8 7.96z"/><g stroke-width="1.0909"><path d="m80.983 26.742c0.162-0.89 0.27-1.43 0.27-1.619 0-0.513-0.27-0.971-0.81-1.322-6.18-4.048-13.735-6.072-22.641-6.072-11.171 0-20.4 3.508-27.686 10.524-7.286 7.017-10.929 15.895-10.929 26.662 0 10.416 3.346 18.835 10.011 25.285 6.693 6.449 15.463 9.66 26.284 9.66 5.99 0 10.713-1.025 14.167-3.103 0.648-0.351 1.079-1.214 1.268-2.59 0 0 1.835-12.926 1.889-13.439 0.162-1.025-0.405-0.864-3.076-0.027-5.1 1.484-9.283 2.24-12.548 2.24-5.262 0-9.553-1.754-12.926-5.262-3.4-3.508-5.1-7.961-5.1-13.385 0-5.829 1.943-10.578 5.802-14.275 3.858-3.67 8.878-5.532 15.057-5.532 5.964 0 11.064 1.376 15.355 4.129 1.295 0.809 2.105 1.241 2.401 1.241 0.405 0 0.729-0.648 0.972-1.97l2.24-11.145z"/><path d="m132.44 21.48c-0.19-0.944-0.7-1.43-1.53-1.43h-20.59c-0.95 0-1.62 0.405-2.06 1.241l-31.73 64.225c-0.135 0.351-0.189 0.621-0.189 0.782 0 0.432 0.243 0.648 0.702 0.648h17.324c1.053 0 1.781-0.378 2.132-1.079l4.451-9.202c0.35-0.702 0.95-1.053 1.78-1.053h21.78c0.81 0 1.3 0.378 1.4 1.161l2.32 9.256c0.14 0.62 0.54 0.917 1.27 0.917h15.41c0.54 0 0.81-0.27 0.81-0.809v-0.351zm-10.9 39.156h-12.92c-0.41 0-0.63-0.108-0.63-0.27l0.19-0.54 8.64-19.618c0.19-0.351 0.32-0.567 0.46-0.621 0.16 0.108 0.32 0.405 0.43 0.891l4.56 18.997c0.11 0.459 0.19 0.729 0.19 0.783 0 0.243-0.32 0.378-0.92 0.378"/><path d="m154.19 86.029c0 0.593 0.52 0.917 1.51 0.917h14.9c0.84 0 1.3-0.432 1.43-1.268l5.34-38.157c0.11-0.783 0.22-1.161 0.27-1.161 0.19 0.108 0.41 0.405 0.71 0.891l21.85 38.427c0.49 0.836 1.19 1.268 2.13 1.268h15.25c1.03 0 1.59-0.378 1.7-1.079l8.93-64.846c0-0.647-0.4-0.971-1.16-0.971h-15.78c-1.08 0-1.68 0.459-1.78 1.349l-4.83 34.595c-0.11 0.891-0.27 1.322-0.44 1.322-0.19 0-0.45-0.323-0.81-0.971l-19.96-35.054c-0.49-0.836-1.19-1.241-2.14-1.241h-16.94c-0.84 0-1.33 0.405-1.43 1.16z"/><path d="m295.54 85.516-13.49-64.117c-0.16-0.89-0.7-1.349-1.59-1.349h-19.62c-0.95 0-1.59 0.405-1.97 1.16l-31.55 64.468c-0.19 0.351-0.27 0.62-0.27 0.809 0 0.297 0.22 0.459 0.7 0.459h17.14c0.89 0 1.51-0.351 1.86-0.998l4.81-9.364c0.35-0.648 0.99-0.972 1.88-0.972h20.59c1.08 0 1.7 0.459 1.89 1.431l1.68 8.635c0.19 0.836 0.75 1.268 1.7 1.268h15.24c0.73 0 1.08-0.189 1.08-0.54 0-0.431-0.02-0.728-0.08-0.89m-23.1-25.528c0 0.405-0.35 0.621-1 0.621h-12.03c-0.76 0-1.16-0.189-1.16-0.54 0-0.189 0.08-0.459 0.19-0.81l8.74-19.699c0.24-0.486 0.4-0.755 0.51-0.809 0.14 0.108 0.25 0.377 0.38 0.809l4.26 19.51c0 0.081 0.03 0.216 0.11 0.459v0.459z"/><path d="m313.46 20.05c-0.67 0-1.05 0.486-1.16 1.43l-9.28 64.737c0 0.486 0.27 0.729 0.81 0.729h37.45c0.78 0 1.22-0.378 1.32-1.079l1.78-13.115c0-0.594-0.29-0.891-0.89-0.891h-17.91c-0.71 0-1.08-0.323-1.08-0.971v-0.189l6.69-49.842c0-0.539-0.3-0.809-0.89-0.809z"/><path d="m391.2 61.688c0-0.756 0.41-1.16 1.16-1.16h22.13c0.65 0 0.97-0.351 0.97-1.053v-18.188c0-0.782-0.32-1.16-0.97-1.16h-22.4c-0.59 0-0.89-0.432-0.89-1.268v-20.59c0-0.594-0.37-0.891-1.16-0.891h-18.18c-0.6 0-0.9 0.297-0.9 0.891v20.59c0 0.836-0.35 1.268-1.05 1.268h-23.91c-0.64 0-0.97 0.324-0.97 0.971v18.269c0 0.783 0.35 1.161 1.05 1.161h23.72c0.79 0 1.16 0.458 1.16 1.349v23.99c0 0.701 0.33 1.079 1 1.079h18.27c0.65 0 0.97-0.432 0.97-1.268z"/></g></g><rect y="0" x="0" width="600" height="109.1"/><g fill="#fff"><path d="m80.971 26.714c0.187-0.908 0.267-1.442 0.267-1.603 0-0.561-0.267-0.988-0.802-1.362-6.171-4.034-13.731-6.064-22.653-6.064-11.167 0-20.383 3.526-27.676 10.552-7.293 6.999-10.926 15.868-10.926 26.634 0 10.418 3.339 18.833 10.018 25.298 6.705 6.438 15.467 9.671 26.286 9.671 5.984 0 10.713-1.042 14.159-3.126 0.668-0.347 1.068-1.202 1.255-2.591 0 0 1.844-12.903 1.924-13.437 0.133-1.015-0.428-0.855-3.072-0.027-5.129 1.496-9.324 2.244-12.583 2.244-5.236 0-9.537-1.763-12.929-5.263-3.393-3.526-5.076-7.987-5.076-13.384 0-5.823 1.923-10.578 5.797-14.265 3.847-3.686 8.869-5.53 15.067-5.53 5.93 0 11.059 1.363 15.334 4.114 1.309 0.828 2.11 1.256 2.404 1.256 0.427 0 0.748-0.668 0.988-1.977l2.218-11.14z"/><path d="m132.42 21.478c-0.16-0.962-0.67-1.442-1.52-1.442h-20.6c-0.93 0-1.63 0.427-2.03 1.255l-31.761 64.221c-0.106 0.347-0.16 0.614-0.16 0.775 0 0.427 0.241 0.641 0.695 0.641h17.31c1.069 0 1.79-0.347 2.138-1.069l4.458-9.189c0.35-0.722 0.96-1.069 1.79-1.069h21.75c0.83 0 1.31 0.374 1.44 1.149l2.3 9.27c0.13 0.614 0.56 0.908 1.25 0.908h15.44c0.54 0 0.81-0.267 0.81-0.802v-0.347zm-10.87 39.136h-12.93c-0.43 0-0.61-0.08-0.61-0.267l0.16-0.534 8.65-19.635c0.19-0.32 0.32-0.561 0.46-0.614 0.18 0.133 0.32 0.427 0.45 0.908l4.54 18.994c0.11 0.454 0.16 0.721 0.16 0.801 0 0.241-0.29 0.347-0.88 0.347"/><path d="m154.19 86.02c0 0.614 0.51 0.908 1.53 0.908h14.88c0.82 0 1.31-0.428 1.44-1.256l5.34-38.148c0.11-0.801 0.22-1.175 0.27-1.175 0.16 0.134 0.4 0.401 0.69 0.882l21.86 38.441c0.48 0.828 1.2 1.256 2.13 1.256h15.26c1.01 0 1.57-0.347 1.71-1.069l8.89-64.835c0-0.641-0.37-0.988-1.15-0.988h-15.78c-1.07 0-1.66 0.454-1.79 1.335l-4.81 34.595c-0.11 0.908-0.27 1.336-0.46 1.336-0.16 0-0.42-0.294-0.8-0.962l-19.95-35.049c-0.48-0.828-1.21-1.255-2.17-1.255h-16.93c-0.83 0-1.31 0.4-1.42 1.175z"/><path d="m295.54 85.512-13.47-64.141c-0.18-0.881-0.72-1.335-1.6-1.335h-19.63c-0.94 0-1.61 0.4-1.95 1.175l-31.58 64.461c-0.19 0.348-0.27 0.615-0.27 0.802 0 0.294 0.24 0.481 0.72 0.481h17.13c0.88 0 1.49-0.321 1.87-0.989l4.81-9.35c0.34-0.668 0.99-0.988 1.87-0.988h20.59c1.07 0 1.69 0.481 1.87 1.416l1.71 8.655c0.16 0.828 0.75 1.256 1.69 1.256h15.25c0.72 0 1.07-0.187 1.07-0.561 0-0.428-0.03-0.722-0.08-0.882m-23.11-25.512c0 0.401-0.32 0.614-0.99 0.614h-12.02c-0.77 0-1.17-0.187-1.17-0.534 0-0.187 0.08-0.454 0.18-0.801l8.74-19.715c0.24-0.481 0.43-0.748 0.53-0.802 0.14 0.107 0.24 0.401 0.35 0.802l4.3 19.528c0 0.08 0.03 0.213 0.08 0.454v0.454z"/><path d="m313.46 20.036c-0.66 0-1.04 0.48-1.17 1.442l-9.27 64.729c0 0.48 0.27 0.721 0.8 0.721h37.45c0.78 0 1.23-0.347 1.34-1.069l1.79-13.116c0-0.588-0.29-0.882-0.88-0.882h-17.93c-0.72 0-1.07-0.347-1.07-0.988v-0.187l6.68-49.849c0-0.534-0.29-0.801-0.91-0.801z"/><path d="m391.2 61.683c0-0.775 0.4-1.149 1.18-1.149h22.12c0.64 0 0.96-0.374 0.96-1.068v-18.193c0-0.774-0.32-1.148-0.96-1.148h-22.39c-0.59 0-0.91-0.428-0.91-1.283v-20.596c0-0.588-0.37-0.882-1.15-0.882h-18.19c-0.59 0-0.88 0.294-0.88 0.882v20.596c0 0.855-0.37 1.283-1.07 1.283h-23.91c-0.64 0-0.99 0.294-0.99 0.961v18.3c0 0.748 0.38 1.148 1.07 1.148h23.72c0.78 0 1.18 0.428 1.18 1.336v23.989c0 0.722 0.32 1.069 0.96 1.069h18.3c0.64 0 0.96-0.428 0.96-1.256z"/></g><g stroke-width="1.1295"><path fill="#f00" d="m434.56 12.306c51.48 0 102.94 0.014 154.42 0-0.13 28.836 0.16 57.684-0.15 86.533-51.43-0.189-102.85 0.04-154.27-0.122 0.03-28.808 0.01-57.602 0-86.411z"/><path fill="#fff" d="m445.93 23.884c6.08-0.014 12.13-0.014 18.19 0.013-0.01 7.489 0.03 14.978-0.04 22.466 6.99 0.014 13.97 0 20.96 0.014-0.06-7.502-0.03-15.005-0.03-22.507 5.87 0.014 11.75 0.027 17.64-0.04 0.13 21.117 0.08 42.247 0.02 63.364-5.89-0.094-11.78-0.067-17.67-0.054 0-8.932 0.05-17.865-0.03-26.798-6.95 0.041-13.89 0.027-20.83 0.014-0.03 8.906-0.02 17.825 0 26.73-6.08 0.068-12.15 0.054-18.21 0.041 0.02-21.09 0-42.167 0-63.243z"/><path fill="#fff" d="m518.8 23.884c14.96 0.877 31.1-2.713 45.02 4.344 15.52 8.366 19.47 30.536 9.96 44.771-4.99 8.069-14.07 12.846-23.38 13.669-10.53 0.728-21.08 0.405-31.62 0.445 0.04-21.076 0.02-42.153 0.02-63.229z"/><path fill="#f00" d="m537.03 37.458c7.46-0.459 16.55 0.364 20.71 7.583 3.74 7.286 3.64 17.501-2.12 23.762-4.87 4.938-12.24 4.641-18.65 4.722 0.08-12.022 0-24.045 0.06-36.067z"/></g></svg>
