<svg xmlns="http://www.w3.org/2000/svg" viewBox="0 0 600 112.59"><g transform="translate(149.7-241.75)"><path d="m450.3 254.36h-600v99.99h600v-99.99"/><g fill="#fff"><path d="m402.01 334h-16.956l14.564-26.416-20.669-35.769h17.563l11.423 21.2 11.173-21.2h17.313l-34.412 62.19"/><path d="m-84.21 331.69c-.071.678-.428 1.214-.428 1.214s-.357.321-.928.5c-8.21 3.32-17.349 2.213-17.349 2.213-14.743-1.606-24.13-10.638-27.13-22.346-4.427-17.492 4.391-29.95 6.497-32.592 5.212-6.247 13.315-10.673 21.24-11.709 10.174-1.428 17.67.964 20.74 1.963 0 0 3.427 1.107 5.961 2.82 1.321.857 1.464 1.214 1.464 1.214s.107.143-.25 1.535l-2.392 12.53c-.071.5-.428.785-.428.785s-.178.071-1.356-.714c-7.675-5.426-16.635-4.783-16.635-4.783-6.854.428-14.779 4.03-17.17 13.06-2.106 8.03.107 14.779 4.891 18.777 3.213 2.82 8.246 4.284 13.529 4.03 5.819-.428 10.424-2.749 10.1-2.57 0 0 .25-.107.5-.178 1.214-.607 1.464-.5 1.464-.5s.25.25.071 1l-2.392 13.743"/><path d="m48.32 333.95h-15.314-.5s-.071-.071-.143-.178l-21.276-37.7c-.143-.178-.25-.178-.25-.178l-.143.286-5.283 37.02c-.071.428-.143.5-.143.5s-.178.071-.428.071h-15.243c-.25 0-.393-.143-.393-.143s-.321-.357-.25-.678l8.353-59.971c.071-.321.25-.393.25-.393s.25-.25.5-.25h16.992c.25 0 .393.143.393.143s.178.107.25.357l19.17 33.591c.321.678.571.607.571.607l.428-.75 4.855-33.448c0-.25.178-.357.178-.357s.071-.071.321-.071h15.992c.321 0 .393.178.393.178s.071.071.071.25l-8.603 60.44c-.071.357-.25.607-.25.607s-.071.071-.5.071"/><path d="m-36.7 309.62s-.071.071-.178.071l-12.28-.071c-.428 0-.5-.107-.5-.107s-.071-.143.071-.393l8.389-18.991c.071-.178.143-.178.143-.178l.107.178 4.248 19.17c.071.214 0 .321 0 .321m7.746-36.804c-.071-.25-.178-.321-.178-.321s-.25-.25-.571-.25h-19.17-.571s-.25.071-.428.393l-30.02 60.4c-.178.321-.071.571-.071.571s.071.25.571.178h17.313c.25 0 .5-.178.5-.178s.107-.071.25-.393l4.212-8.96c.214-.607.571-.857.571-.857s.25-.321.678-.321h20.954.25s.178.071.178.321l2.356 9.638c.071.571.178.643.178.643s.25.143.571.143h14.886c.178 0 .25-.143.25-.143s.178-.071.178-.321l-12.887-60.54z"/><path d="m81.61 311.12c-.286 0-.428-.214-.321-.464l6.39-18.67c.107-.25.214-.25.321 0l6.247 18.67c.071.25-.071.464-.357.464h-12.28m-1.928-38.84c-.25 0-.571.214-.643.464l-23.346 60.792c-.107.25.036.464.321.464h15.921c.286 0 .607-.214.678-.464l3.855-9.781c.107-.25.393-.464.678-.464h21.13c.286 0 .571.214.678.464l3.677 9.781c.107.25.393.464.678.464h16.14c.286 0 .428-.214.321-.464l-22.958-60.78c-.107-.25-.393-.464-.678-.464h-16.456z"/><path d="m142.13 318c0 .321.25.571.571.571h16.813c.321 0 .571.25.571.571v14.386c0 .321-.25.571-.571.571h-35.16c-.321 0-.571-.25-.571-.571v-61.51c0-.286.25-.535.571-.535h17.206c.321 0 .571.25.571.535v45.978"/><path d="m311.32 334.1h-34.06l7.639-62.26h15.778l-5.961 48.548h18.241l-1.642 13.708"/><path d="m348.79 291.1l-6.818 19.848h13.458l-6.64-19.848m15.1 42.98l-4.07-10.781h-22.311l-4.248 10.781h-17.1l23.917-62.22h17.599l23.489 62.22h-17.277"/><path d="m258.53 292.63c0-5.248-2.892-7.818-8.817-7.818h-5.39v15.564h5.319c5.89 0 8.889-2.606 8.889-7.746m16.956-.178c0 13.958-6.997 20.954-21.03 20.954h-10.138v20.704h-16.207v-62.33h25.773c6.64 0 11.78 1.749 15.528 5.212 4.07 3.82 6.069 8.996 6.069 15.457"/></g><path d="m164.23 347.74v-105.99l90.89 53.05-90.88 52.939z"/><path fill="#009fe3" d="m169.7 251.3v86.92l74.54-43.41-74.54-43.515"/></g></svg>