<svg xmlns="http://www.w3.org/2000/svg" height="322.97" width="600" viewBox="0 0 158.75 85.451958"><g transform="translate(45.735-757.88)"><path d="m10.356 796.77h46.568v46.56h-46.568z" fill="#08c1b3"/><g fill="#fff"><path d="m48.41 814.52q0 6.44-5.295 13.43l-7.756 10.21h-10.217l8.357-10.17h-.692l-1.213-.04q-.93-.05-2.02-.31-1.123-.26-2.393-.71-3.946-1.49-6.134-4.54-2.178-3.05-2.178-7.27 0-6.22 4.547-9.84 4.071-3.35 10.41-3.35t10.489 3.59q4.093 3.55 4.093 9m-8.822.33q0-2.37-1.678-4.05-1.667-1.66-4.04-1.66-2.426 0-4.093 1.66-1.667 1.67-1.667 4.05 0 2.37 1.667 4.04 1.678 1.68 4.048 1.68 1.202 0 2.245-.45 1.055-.45 1.837-1.21.794-.77 1.236-1.81.442-1.05.442-2.25"/><path stroke-width=".265" d="m-45.735 757.88v38.96h11.85v7.41h11.46v-7.41h135.44v-38.96zm4.22 4.22h150.32v30.7h-135.28v7.41h-3.365v-7.41h-11.67z"/><path d="m-20.11 784.62l-1.14-8.76-3.67 8.76h-1.58l-3.49-8.76-1.3 8.76h-3.94l2.58-15.21h3.92l3.08 8.11 3.26-8.11h3.92l2.31 15.21z"/><path d="m-3.01 780.87q0 4.18-5.5 4.2-5.51 0-5.51-4.2v-6.51h3.65v5.82q0 1.89 1.86 1.89 1.85 0 1.85-1.89v-5.82h3.65z"/><path d="m-.505 784.62v-15.21h3.65v15.21z"/><path d="m9.705 777.38v7.24h-3.65v-7.24h-1.2v-3.02h1.2v-3.08h3.65v3.08h2.09v3.02z"/><path d="m17.02 771.32q0 .43-.16.8-.16.36-.45.65-.29.28-.66.42-.39.16-.8.16-.81 0-1.44-.59-.61-.61-.61-1.42 0-.43.16-.82.17-.38.44-.66.27-.27.65-.43t.8-.16.8.16.66.43q.29.29.45.65.16.37.16.81m-3.9 13.3v-10.26h3.65v10.26z"/><path d="m27.27 784.62v-1.13q-.29.34-.39.44-1.08 1.02-2.8 1.02-2.27 0-3.75-1.61t-1.48-3.87q0-2.27 1.48-3.84 1.47-1.6 3.71-1.6 1.49 0 2.43.63.3.2.8.71v-5.96h3.64v15.21zm.09-5.13q0-.5-.18-.92-.19-.44-.5-.73-.33-.31-.76-.5-.41-.18-.91-.18-.97 0-1.66.69-.69.67-.69 1.62 0 .49.18.92.19.45.5.75.31.31.75.5.43.18.92.18.5 0 .91-.18.43-.19.76-.5.3-.29.5-.74.18-.41.18-.91"/><path d="m36.685 780.16q.02 2.31 2.23 2.31 1.14 0 1.78-.97h3.54q-.34 1.12-.94 1.82-1.5 1.71-4.4 1.71-2.69 0-4.3-1.48-1.6-1.48-1.6-3.98 0-2.54 1.54-4.02 1.55-1.48 4.22-1.48 2.62 0 4.12 1.52 1.5 1.55 1.5 4.18v.39zm4.3-2.11q-.42-1.64-2.13-1.64-1.74 0-2.07 1.64z"/><path d="m58.51 779.51q0 1.66-.84 3.02-.83 1.36-2.31 1.99-.95.43-2.05.43-.83 0-1.56-.25-.3-.09-.46-.17-.18-.08-.39-.21-.15-.1-.38-.3-.17-.15-.43-.41v6.32h-3.65v-15.57h3.65v1.13q.06-.08.19-.22t.19-.22q1.08-1.02 2.8-1.02 2.28 0 3.76 1.6 1.48 1.61 1.48 3.88m-3.8 0q0-.49-.18-.93-.19-.44-.51-.74-.32-.31-.76-.5-.43-.18-.92-.18-.5 0-.91.18-.43.19-.75.5-.31.29-.51.73-.18.42-.18.92 0 .96.71 1.66.69.67 1.66.67.93 0 1.64-.67.71-.7.71-1.64"/><path d="m72.62 779.49q0 2.58-1.89 4.1-1.75 1.42-4.34 1.42-2.7 0-4.46-1.52-1.77-1.54-1.77-3.9 0-2.6 1.85-4.15 1.72-1.47 4.32-1.47 2.81 0 4.53 1.54 1.76 1.56 1.76 3.98m-3.87-.02q0-.99-.7-1.66-.69-.7-1.66-.7t-1.66.7q-.69.69-.69 1.64 0 .49.18.92t.5.76q.3.32.75.51.43.18.92.18.97 0 1.66-.69.7-.69.7-1.66"/><path d="m82.44 777.7l-.4-.18q-.47-.18-1.16-.18-1.16 0-1.86.7t-.7 2.18v4.4h-3.65v-10.26h3.65v1.68q.53-.81 1.06-1.15.97-.67 2.37-.67h.31q.03 0 .15.001.09.001.23.03z"/><path d="m88.14 777.38v7.24h-3.65v-7.24h-1.2v-3.02h1.2v-3.08h3.65v3.08h2.09v3.02z"/><path d="m94.83 780.16q.03 2.31 2.24 2.31 1.13 0 1.78-.97h3.525q-.33 1.12-.93 1.82-1.495 1.71-4.395 1.71-2.69 0-4.3-1.48t-1.61-3.98q0-2.54 1.54-4.02 1.55-1.48 4.22-1.48 2.62 0 4.115 1.52 1.5 1.55 1.5 4.18v.39zm4.31-2.11q-.43-1.64-2.13-1.64-1.75 0-2.07 1.64z"/></g></g></svg>