<?xml version="1.0" encoding="UTF-8" standalone="no"?>
<svg xmlns:rdf="http://www.w3.org/1999/02/22-rdf-syntax-ns#" xmlns="http://www.w3.org/2000/svg" height="322.97" width="600" version="1.1" xmlns:cc="http://creativecommons.org/ns#" xmlns:dc="http://purl.org/dc/elements/1.1/" viewBox="0 0 158.75 85.451926">
 <g transform="translate(28.359 -888.27)">
  <path d="m27.733 927.16h46.567v46.56h-46.567z" fill="#08c1b3"/>
  <g fill="#fff">
   <path d="m64.578 958.5q0 3.59-2.415 6.27-2.154 2.44-5.715 3.57-2.642 0.8-5.432 0.8-5.93 0-9.751-2.98-3.81-2.97-3.81-7.7 0-4.5 3.016-6.98 1.27-0.99 3.991-1.95-1.111-0.5-1.95-1.09-0.817-0.56-1.44-1.19-2.177-2.32-2.177-5.52 0-3.38 2.041-5.85 1.916-2.37 5.25-3.39 2.177-0.75 4.921-0.75 5.375 0 8.686 2.75 3.345 2.73 3.345 7.24 0 3.21-2.086 5.34-0.59 0.63-1.497 1.2-1.077 0.7-2.223 1.26 2.54 0.75 3.992 1.91 3.254 2.69 3.254 7.06zm-9.615-16.68q0-1.59-1.157-2.62-1.168-1.04-2.744-1.04-1.678 0-2.835 1.02t-1.157 2.69q0 1.63 1.157 2.67 1.168 1.05 2.789 1.05 1.667 0 2.813-1.05 1.134-1.03 1.134-2.72zm0.328 15.71q0-1.75-1.236-2.88-1.224-1.13-2.993-1.13-1.803 0-3.062 1.13-1.258 1.12-1.258 2.88 0 1.75 1.258 2.9 1.248 1.13 3.016 1.13 1.826 0 3.039-1.13 1.236-1.15 1.236-2.9z"/>
   <path stroke-width=".26458" d="m-28.359 888.27v38.96h11.85v7.41h11.46v-7.41h135.44v-38.96zm4.22 4.22h150.32v30.7h-135.28v7.41h-3.369v-7.41h-11.67z"/>
   <g>
    <path d="m-2.7286 915.01-1.14-8.76-3.67 8.76h-1.58l-3.4904-8.76-1.3 8.76h-3.94l2.58-15.21h3.92l3.0804 8.11 3.26-8.11h3.92l2.31 15.21z"/>
    <path d="m14.371 911.26q0 4.18-5.4996 4.2-5.51 0-5.51-4.2v-6.51h3.65v5.82q0 1.89 1.86 1.89 1.8496 0 1.8496-1.89v-5.82h3.65z"/>
    <path d="m16.871 915.01v-15.21h3.65v15.21z"/>
    <path d="m27.081 907.77v7.24h-3.65v-7.24h-1.2v-3.02h1.2v-3.08h3.65v3.08h2.09v3.02z"/>
    <path d="m34.391 901.71q0 0.43-0.16 0.8-0.16 0.36-0.45 0.65-0.29 0.28-0.66 0.42-0.39 0.16-0.8 0.16-0.81 0-1.44-0.59-0.61-0.61-0.61-1.42 0-0.43 0.16-0.82 0.17-0.38 0.44-0.66 0.27-0.27 0.65-0.43t0.8-0.16 0.8 0.16 0.66 0.43q0.29 0.29 0.45 0.65 0.16 0.37 0.16 0.81zm-3.9 13.3v-10.26h3.65v10.26z"/>
    <path d="m44.651 915.01v-1.13q-0.29 0.34-0.39 0.44-1.08 1.02-2.8 1.02-2.27 0-3.75-1.61t-1.48-3.87q0-2.27 1.48-3.84 1.47-1.6 3.71-1.6 1.49 0 2.43 0.63 0.3 0.2 0.8 0.71v-5.96h3.64v15.21zm0.09-5.13q0-0.5-0.18-0.92-0.19-0.44-0.5-0.73-0.33-0.31-0.76-0.5-0.41-0.18-0.91-0.18-0.97 0-1.66 0.69-0.69 0.67-0.69 1.62 0 0.49 0.18 0.92 0.19 0.45 0.5 0.75 0.31 0.31 0.75 0.5 0.43 0.18 0.92 0.18 0.5 0 0.91-0.18 0.43-0.19 0.76-0.5 0.3-0.29 0.5-0.74 0.18-0.41 0.18-0.91z"/>
    <path d="m54.061 910.55q0.02 2.31 2.23 2.31 1.14 0 1.78-0.97h3.54q-0.34 1.12-0.94 1.82-1.5 1.71-4.4 1.71-2.69 0-4.3-1.48-1.6-1.48-1.6-3.98 0-2.54 1.54-4.02 1.55-1.48 4.22-1.48 2.62 0 4.12 1.52 1.5 1.55 1.5 4.18v0.39zm4.3-2.11q-0.42-1.64-2.13-1.64-1.74 0-2.07 1.64z"/>
    <path d="m75.881 909.9q0 1.66-0.84 3.02-0.83 1.36-2.31 1.99-0.95 0.43-2.05 0.43-0.83 0-1.56-0.25-0.3-0.09-0.46-0.17-0.18-0.08-0.39-0.21-0.15-0.1-0.38-0.3-0.17-0.15-0.43-0.41v6.32h-3.65v-15.57h3.65v1.13q0.06-0.08 0.19-0.22t0.19-0.22q1.08-1.02 2.8-1.02 2.28 0 3.76 1.6 1.48 1.61 1.48 3.88zm-3.8 0q0-0.49-0.18-0.93-0.19-0.44-0.51-0.74-0.32-0.31-0.76-0.5-0.43-0.18-0.92-0.18-0.5 0-0.91 0.18-0.43 0.19-0.75 0.5-0.31 0.29-0.51 0.73-0.18 0.42-0.18 0.92 0 0.96 0.71 1.66 0.69 0.67 1.66 0.67 0.93 0 1.64-0.67 0.71-0.7 0.71-1.64z"/>
    <path d="m90.001 909.88q0 2.58-1.89 4.1-1.75 1.42-4.34 1.42-2.7 0-4.46-1.52-1.77-1.54-1.77-3.9 0-2.6 1.85-4.15 1.72-1.47 4.32-1.47 2.81 0 4.53 1.54 1.76 1.56 1.76 3.98zm-3.87-0.02q0-0.99-0.7-1.66-0.69-0.7-1.66-0.7t-1.66 0.7q-0.69 0.69-0.69 1.64 0 0.49 0.18 0.92t0.5 0.76q0.3 0.32 0.75 0.51 0.43 0.18 0.92 0.18 0.97 0 1.66-0.69 0.7-0.69 0.7-1.66z"/>
    <path d="m99.821 908.09-0.4-0.18q-0.47-0.18-1.16-0.18-1.16 0-1.86 0.7t-0.7 2.18v4.4h-3.65v-10.26h3.65v1.68q0.53-0.81 1.06-1.15 0.97-0.67 2.37-0.67h0.31q0.03 0 0.15 0.01 0.09 0.01 0.23 0.03z"/>
    <path d="m105.52 907.77v7.24h-3.65v-7.24h-1.2v-3.02h1.2v-3.08h3.65v3.08h2.09v3.02z"/>
    <path d="m112.21 910.55q0.03 2.31 2.24 2.31 1.13 0 1.78-0.97h3.53q-0.33 1.12-0.93 1.82-1.5 1.71-4.4 1.71-2.69 0-4.3-1.48t-1.61-3.98q0-2.54 1.54-4.02 1.55-1.48 4.22-1.48 2.62 0 4.12 1.52 1.5 1.55 1.5 4.18v0.39zm4.31-2.11q-0.43-1.64-2.13-1.64-1.75 0-2.07 1.64z"/>
   </g>
  </g>
 </g>
</svg>
