<svg xmlns="http://www.w3.org/2000/svg" viewBox="0 0 600 327.3"><path fill="#d7002d" d="m0 109.1h600v218.2h-600z"/><path d="m0 0h436.4v109.1h-436.4z"/><g fill="#fff"><path d="m80.971 26.741c.187-.908.267-1.443.267-1.603 0-.561-.267-.988-.801-1.362-6.171-4.03-13.731-6.06-22.654-6.06-11.167 0-20.383 3.526-27.676 10.552-7.293 6.999-10.926 15.868-10.926 26.634 0 10.419 3.339 18.833 10.02 25.298 6.705 6.438 15.467 9.671 26.287 9.671 5.984 0 10.712-1.042 14.159-3.126.668-.347 1.069-1.202 1.256-2.591 0 0 1.843-12.903 1.923-13.437.134-1.015-.427-.855-3.072-.027-5.129 1.496-9.323 2.244-12.582 2.244-5.236 0-9.537-1.763-12.93-5.263-3.393-3.526-5.076-7.988-5.076-13.384 0-5.824 1.923-10.579 5.797-14.265 3.847-3.687 8.869-5.53 15.07-5.53 5.931 0 11.06 1.362 15.334 4.114 1.309.828 2.11 1.256 2.404 1.256.427 0 .748-.668.988-1.977l2.217-11.14"/><path d="m132.42 21.505c-.16-.962-.668-1.443-1.523-1.443h-20.597c-.935 0-1.63.427-2.03 1.256l-31.763 64.22c-.107.347-.16.614-.16.775 0 .427.24.641.695.641h17.311c1.069 0 1.79-.347 2.137-1.069l4.461-9.19c.347-.721.962-1.069 1.79-1.069h21.745c.828 0 1.309.374 1.443 1.149l2.297 9.27c.134.614.561.908 1.256.908h15.441c.534 0 .801-.267.801-.801v-.347l-13.304-64.3m-10.873 39.14h-12.93c-.427 0-.614-.08-.614-.267l.16-.534 8.655-19.635c.187-.321.321-.561.454-.614.187.134.321.427.454.908l4.541 18.994c.107.454.16.721.16.801 0 .24-.294.347-.882.347"/><path d="m154.19 86.05c0 .614.508.908 1.523.908h14.88c.828 0 1.309-.427 1.443-1.256l5.343-38.15c.107-.801.214-1.175.267-1.175.16.134.401.401.695.882l21.852 38.442c.481.828 1.202 1.256 2.137 1.256h15.254c1.015 0 1.576-.347 1.71-1.069l8.896-64.835c0-.641-.374-.988-1.149-.988h-15.788c-1.069 0-1.656.454-1.79 1.336l-4.809 34.595c-.107.908-.267 1.336-.454 1.336-.16 0-.427-.294-.801-.962l-19.955-35.05c-.481-.828-1.202-1.256-2.164-1.256h-16.937c-.828 0-1.309.401-1.416 1.175l-8.736 64.809"/><path d="m295.54 85.54l-13.464-64.14c-.187-.882-.721-1.336-1.603-1.336h-19.635c-.935 0-1.603.401-1.95 1.175l-31.576 64.46c-.187.347-.267.614-.267.801 0 .294.24.481.721.481h17.12c.882 0 1.496-.321 1.87-.988l4.809-9.35c.347-.668.988-.988 1.87-.988h20.597c1.069 0 1.683.481 1.87 1.416l1.71 8.655c.16.828.748 1.256 1.683 1.256h15.254c.721 0 1.069-.187 1.069-.561 0-.427-.027-.721-.08-.882m-23.11-25.512c0 .401-.321.614-.988.614h-12.02c-.775 0-1.175-.187-1.175-.534 0-.187.08-.454.187-.801l8.736-19.715c.24-.481.427-.748.534-.801.134.107.24.401.347.801l4.301 19.528c0 .08.027.214.08.454v.454z"/><path d="m313.46 20.06c-.668 0-1.042.481-1.175 1.443l-9.27 64.728c0 .481.267.721.801.721h37.453c.775 0 1.229-.347 1.336-1.069l1.79-13.12c0-.588-.294-.882-.882-.882h-17.925c-.721 0-1.069-.347-1.069-.988v-.187l6.679-49.849c0-.534-.294-.801-.908-.801h-16.83"/><path d="m391.2 61.709c0-.775.401-1.149 1.175-1.149h22.12c.641 0 .962-.374.962-1.069v-18.19c0-.775-.321-1.149-.962-1.149h-22.386c-.588 0-.908-.427-.908-1.282v-20.597c0-.588-.374-.882-1.149-.882h-18.19c-.588 0-.882.294-.882.882v20.597c0 .855-.374 1.282-1.069 1.282h-23.909c-.641 0-.988.294-.988.962v18.299c0 .748.374 1.149 1.069 1.149h23.722c.775 0 1.175.427 1.175 1.336v23.989c0 .721.321 1.069.962 1.069h18.299c.641 0 .962-.427.962-1.256v-23.989"/><path d="m105.73 231.4l-13.304-39.777-13.651 39.777h26.955m8.762 24.764h-44.72l-8.442 21.585h-34.25l47.872-124.7h35.24l47.1 124.7h-34.595l-8.201-21.585"/><path d="m226.75 195.84v25.24c-5.343-3.687-10.499-5.53-15.414-5.53-6.118 0-11.09 1.923-14.933 5.77-3.793 3.847-5.69 8.736-5.69 14.693 0 5.797 1.897 10.606 5.69 14.452 3.9 3.9 8.869 5.85 14.933 5.85 5.637 0 10.766-1.897 15.414-5.69v25.06c-6.812 3.232-13.891 4.889-21.264 4.889-13.197 0-24.283-4.435-33.21-13.304-8.549-8.442-12.823-18.807-12.823-31.1 0-12.663 4.354-23.268 13.06-31.817 9-8.923 20.249-13.384 33.793-13.384 3.98 0 7.881.427 11.674 1.282 2.484.614 5.423 1.79 8.762 3.58"/><path d="m305.88 195.84v25.24c-5.37-3.687-10.499-5.53-15.441-5.53-6.118 0-11.09 1.923-14.933 5.77-3.793 3.847-5.69 8.736-5.69 14.693 0 5.797 1.897 10.606 5.69 14.452 3.9 3.9 8.869 5.85 14.933 5.85 5.637 0 10.766-1.897 15.441-5.69v25.06c-6.839 3.232-13.918 4.889-21.291 4.889-13.197 0-24.26-4.435-33.18-13.304-8.575-8.442-12.85-18.807-12.85-31.1 0-12.663 4.354-23.268 13.09-31.817 8.976-8.923 20.223-13.384 33.767-13.384 4.01 0 7.907.427 11.674 1.282 2.484.614 5.423 1.79 8.789 3.58"/><path d="m353.78 277.75h-29.947v-84.1h29.947v84.1m-14.933-126.06c4.568 0 8.495 1.683 11.861 5.02 3.259 3.259 4.862 7.213 4.862 11.861 0 4.488-1.603 8.388-4.862 11.674-3.313 3.366-7.293 5.05-12.02 5.05-4.595 0-8.549-1.683-11.861-5.05-3.232-3.232-4.862-7.079-4.862-11.514 0-4.782 1.656-8.842 4.969-12.182 3.179-3.286 7.159-4.862 11.915-4.862"/><path d="m444.76 159.38l-28.638 19.421-11.46-10.659 24.443-22.867 15.654 14.11m-27.11 56.848c-5.183 0-9.671 1.87-13.464 5.663-3.793 3.74-5.69 8.228-5.69 13.491 0 5.45 1.897 10.1 5.69 13.865 3.74 3.767 8.255 5.61 13.544 5.61 5.37 0 9.911-1.897 13.651-5.663 3.793-3.74 5.69-8.281 5.69-13.651 0-5.37-1.87-9.911-5.61-13.651-3.74-3.793-8.335-5.663-13.811-5.663m.321-25.752c10.793 0 20.436 2.431 28.985 7.32 6.999 4.01 12.369 9.323 16.16 15.922 3.793 6.518 5.69 13.865 5.69 21.986 0 12.235-4.087 22.467-12.262 30.695-4.648 4.595-10.285 8.121-16.883 10.632-6.812 2.591-14.159 3.9-22.01 3.9-16 0-28.905-4.889-38.629-14.613-8.175-8.121-12.262-18.11-12.262-29.973 0-12.556 4.221-23.08 12.663-31.576 9.43-9.537 22.28-14.292 38.549-14.292"/><path d="m481.6 193.65h29.973v10.632c1.175-1.362 2.404-2.618 3.633-3.82 5.797-5.797 13.678-8.682 23.642-8.682 10.178 0 18.299 3.045 24.417 9.163 2.939 2.939 4.969 6.118 6.091 9.59 1.149 3.339 1.71 7.881 1.71 13.731v53.48h-29.947v-42.529-5.69c0-2.858-.614-5.396-1.79-7.64-2.378-4.328-6.465-6.492-12.262-6.492-4.862 0-8.709 1.576-11.514 4.702-2.671 2.992-3.98 7.186-3.98 12.582v45.07h-29.973v-84.1"/></g></svg>