<?xml version="1.0" encoding="UTF-8" standalone="no"?>
<svg xmlns:rdf="http://www.w3.org/1999/02/22-rdf-syntax-ns#" xmlns="http://www.w3.org/2000/svg" height="175.81" width="600" version="1.1" xmlns:cc="http://creativecommons.org/ns#" xmlns:dc="http://purl.org/dc/elements/1.1/" viewBox="0 0 158.75 46.515266">
 <g fill="#fff" transform="translate(272.9 19.567)">
  <path d="m-272.9-19.567v38.788h11.4v7.727h11.94v-7.727h135.41v-38.788zm4.22 4.214h150.32v30.36h-135.41v7.727h-3.51v-7.727h-11.4z" stroke-width=".26458"/>
  <g>
   <path d="m-242.3 9.662-1.32-10.243-4.24 10.243h-1.83l-4.03-10.243-1.5 10.243h-4.56l2.99-17.787h4.52l3.57 9.4841 3.77-9.484h4.53l2.67 17.787z"/>
   <path d="m-223.66 4.7521q0 4.8867-6.36 4.9099-6.37 0-6.37-4.9099v-7.6139h4.21v6.8091q0 2.206 2.16 2.206 2.14 0 2.14-2.206v-6.8091h4.22z"/>
   <path d="m-220.97 9.662v-19.379h4.22v19.379z"/>
   <path d="m-209.73 1.197v8.465h-4.22v-8.465h-1.39v-3.5377h1.39v-3.6013h4.22v3.6013h2.41v3.5377z"/>
   <path d="m-205.99 9.662v-12.003h4.22v12.003zm4.49-16.382q0 0.5095-0.18 0.938-0.19 0.4226-0.52 0.7584-0.33 0.3301-0.76 0.498-0.46 0.1795-0.93 0.1795-0.93 0-1.66-0.689-0.71-0.7122-0.71-1.6618 0-0.4979 0.19-0.9495t0.51-0.7701q0.31-0.3184 0.75-0.5095t0.92-0.1911q0.49 0 0.93 0.1911t0.76 0.5095q0.33 0.3358 0.52 0.7585 0.18 0.4285 0.18 0.938z"/>
   <path d="m-192.83-9.957c-1.3 0-2.49 0.4594-3.56 1.378-1.08 0.9342-1.64 1.9533-1.69 3.0573l-0.07 1.54v1.6414h-1.52v3.5376h1.52v8.4647h4.22v-8.4647h2.96v-3.5376h-2.96v-2.232c0-1.1232 0.5-1.6851 1.5-1.6851 0.37 0 0.86 0.1429 1.46 0.4286v-3.6764c-0.61-0.3011-1.23-0.4518-1.86-0.4518z"/>
   <path d="m-183.6-4.6161-1.95-1.4475 3.33-4.0994 2.68 1.9455zm6.35 9.3682q0 4.8867-6.35 4.9099-6.38 0-6.38-4.9099v-7.6139h4.22v6.8091q0 2.206 2.16 2.206 2.13 0 2.13-2.206v-6.8091h4.22z"/>
   <path d="m-170.04 1.197v8.465h-4.21v-8.465h-1.39v-3.5377h1.39v-3.6013h4.21v3.6013h2.42v3.5377z"/>
   <path d="m-152.52 3.2583c0 1.7717-0.58 3.2887-1.74 4.5509-1.15 1.2352-2.59 1.8528-4.31 1.8528-1.41 0-2.49-0.4034-3.24-1.2101l-0.21-0.2143c-0.07-0.0733-0.15-0.1679-0.24-0.2837v1.3259h-4.22v-19.379h4.22v8.5631c0.2-0.2277 0.39-0.4014 0.57-0.5211 0.82-0.6948 1.88-1.0422 3.16-1.0422 1.75 0 3.19 0.6234 4.32 1.8702 1.12 1.2314 1.69 2.7271 1.69 4.4873zm-4.39 0.0463c0-0.7759-0.26-1.4244-0.79-1.9455-0.53-0.5365-1.18-0.80477-1.93-0.80477-0.77 0-1.41 0.26827-1.94 0.80477-0.54 0.5211-0.8 1.1619-0.8 1.9223 0 0.7759 0.26 1.4244 0.8 1.9455 0.53 0.5211 1.18 0.7816 1.94 0.7816 0.72 0 1.35-0.2605 1.9-0.7816 0.55-0.552 0.82-1.1928 0.82-1.9223z"/>
   <path d="m-137.06 3.2119q0 3.0108-2.19 4.7884-2.02 1.6617-5.02 1.6617-3.12 0-5.16-1.7775-2.03-1.8007-2.03-4.5568 0-3.0455 2.13-4.8578 1.99-1.708 4.99-1.708 3.25 0 5.24 1.8007 2.04 1.818 2.04 4.6493zm-4.48-0.0231q0-1.1638-0.8-1.9455-0.8-0.81056-1.93-0.81056-1.11 0-1.91 0.81056-0.81 0.8106-0.81 1.9223 0 0.5732 0.22 1.077 0.21 0.5037 0.57 0.8858 0.35 0.3764 0.87 0.5964 0.5 0.2142 1.06 0.2142 1.13 0 1.93-0.8106t0.8-1.9396z"/>
   <path d="m-135.34 9.662v-19.379h4.22v19.379z"/>
  </g>
 </g>
</svg>
