<svg xmlns="http://www.w3.org/2000/svg" height="322.97" width="600" viewBox="0 0 158.75 85.451902"><g transform="translate(-58.52-1307.2)"><path d="m114.61 1346.1h46.57v46.6h-46.57z" fill="#08c1b3"/><g fill="#fff"><path d="m150.9 1375q0 5.8-3.95 9.1-3.98 3.3-10.82 3.3-2.6 0-5.85-.8-1.9-.4-3.81-1.5-.42-.2-.75-.4-.25-.2-.84-.5l1.31-7.7q1.22.8 4.04 2.2 2.68 1.1 5.06 1.1 2.56 0 4.32-1.2 1.91-1.5 1.91-4 0-1.9-1.44-3.4-1.21-1.2-3.21-1.8-1.46-.4-3.11-.4-1.96 0-4.83.7l-.75.2q-.35.1-.97.3l3.02-18.8h18.07v7.7h-11.98l-.61 3.9q.03 0 .25 0 .15-.1.4-.1 1.21-.2 2.23-.2 3.8 0 6.88 2 3.05 1.9 4.5 5.4.93 2.3.93 4.9"/><path stroke-width=".265" d="m58.52 1307.2v39h11.85v7.4h11.46v-7.4h135.44v-39zm4.22 4.3h150.32v30.7h-135.28v7.4h-3.374v-7.4h-11.67z"/><g><path d="m84.15 1334l-1.14-8.8-3.67 8.8h-1.58l-3.49-8.8-1.3 8.8h-3.94l2.58-15.2h3.92l3.08 8.1 3.26-8.1h3.92l2.31 15.2z"/><path d="m101.25 1330.2q0 4.2-5.504 4.2-5.51 0-5.51-4.2v-6.5h3.65v5.8q0 1.9 1.86 1.9 1.85 0 1.85-1.9v-5.8h3.654z"/><path d="m103.75 1334v-15.2h3.65v15.2z"/><path d="m113.96 1326.7v7.3h-3.65v-7.3h-1.2v-3h1.2v-3.1h3.65v3.1h2.09v3z"/><path d="m121.27 1320.7q0 .4-.16.8-.16.3-.45.6t-.66.4q-.39.2-.8.2-.81 0-1.44-.6-.61-.6-.61-1.4 0-.4.16-.8.17-.4.44-.7t.65-.4q.38-.2.8-.2t.8.2q.38.1.66.4.29.3.45.7.16.3.16.8m-3.9 13.3v-10.3h3.65v10.3z"/><path d="m131.53 1334v-1.2q-.29.4-.39.5-1.08 1-2.8 1-2.27 0-3.75-1.6t-1.48-3.9q0-2.2 1.48-3.8 1.47-1.6 3.71-1.6 1.49 0 2.43.6.3.2.8.7v-5.9h3.64v15.2zm.09-5.2q0-.5-.18-.9-.19-.4-.5-.7-.33-.3-.76-.5-.41-.2-.91-.2-.97 0-1.66.7t-.69 1.6q0 .5.18.9.19.5.5.8t.75.5q.43.2.92.2.5 0 .91-.2.43-.2.76-.5.3-.3.5-.7.18-.5.18-1"/><path d="m140.94 1329.5q.02 2.3 2.23 2.3 1.14 0 1.78-.9h3.54q-.34 1.1-.94 1.8-1.5 1.7-4.4 1.7-2.69 0-4.3-1.5-1.6-1.5-1.6-4t1.54-4q1.55-1.5 4.22-1.5 2.62 0 4.12 1.5 1.5 1.6 1.5 4.2v.4zm4.3-2.1q-.42-1.6-2.13-1.6-1.74 0-2.07 1.6z"/><path d="m162.76 1328.9q0 1.6-.84 3-.83 1.3-2.31 2-.95.4-2.05.4-.83 0-1.56-.2-.3-.1-.46-.2-.18-.1-.39-.2-.15-.1-.38-.3-.17-.2-.43-.4v6.3h-3.65v-15.6h3.65v1.1q.06 0 .19-.2.13-.1.19-.2 1.08-1 2.8-1 2.28 0 3.76 1.6t1.48 3.9m-3.8 0q0-.5-.18-1-.19-.4-.51-.7t-.76-.5q-.43-.2-.92-.2-.5 0-.91.2-.43.2-.75.5-.31.3-.51.7-.18.4-.18.9 0 1 .71 1.7.69.7 1.66.7.93 0 1.64-.7t.71-1.6"/><path d="m176.88 1328.8q0 2.6-1.89 4.1-1.75 1.5-4.34 1.5-2.7 0-4.46-1.6-1.77-1.5-1.77-3.9 0-2.6 1.85-4.1 1.72-1.5 4.32-1.5 2.81 0 4.53 1.6 1.76 1.5 1.76 3.9m-3.87 0q0-1-.7-1.6-.69-.7-1.66-.7t-1.66.7-.69 1.6q0 .5.18.9.18.5.5.8.3.3.75.5.43.2.92.2.97 0 1.66-.7.7-.7.7-1.7"/><path d="m186.7 1327.1l-.4-.2q-.47-.2-1.16-.2-1.16 0-1.86.7t-.7 2.2v4.4h-3.65v-10.3h3.65v1.7q.53-.8 1.06-1.2.97-.6 2.37-.6h.31q.03 0 .15 0 .09 0 .23 0z"/><path d="m192.4 1326.7v7.3h-3.65v-7.3h-1.2v-3h1.2v-3.1h3.65v3.1h2.09v3z"/><path d="m199.09 1329.5q.03 2.3 2.24 2.3 1.13 0 1.78-.9h3.53q-.33 1.1-.93 1.8-1.5 1.7-4.4 1.7-2.69 0-4.3-1.5t-1.61-4 1.54-4q1.55-1.5 4.22-1.5 2.62 0 4.12 1.5 1.5 1.6 1.5 4.2v.4zm4.31-2.1q-.43-1.6-2.13-1.6-1.75 0-2.07 1.6z"/></g></g></g></svg>