<svg xmlns="http://www.w3.org/2000/svg" viewBox="0 0 500 125"><g transform="translate(-332.74-410.91)"><path d="m832.74 410.91v125h-500v-125h500"/><path d="m813.23 479.75c0 0-.097.209-.435.209h-26.966c-.435 0-.645.209-.645.209 0 0-.322.113-.322.644v28.74c0 .434-.21.531-.21.531 0 0-.113.225-.435.225h-21.437c-.306 0-.532-.225-.532-.225 0 0-.113-.096-.113-.628v-28.756c0-.306-.258-.531-.258-.531 0 0-.161-.209-.435-.209h-27.675c-.532 0-.629-.113-.629-.113 0 0-.21-.209-.21-.853v-21.03c0-.257.21-.531.21-.531 0 0 .097-.096.322-.096h28.26c.226 0 .226-.113.226-.113 0 0 .193-.113.193-.322v-25.18c0-.306.113-.531.113-.531 0 0 .226-.113.854-.113h21.02c.419 0 .532.113.532.113 0 0 .21.225.21.644v25.28h27.465c.693 0 .903.113.903.113 0 0 .322.113.322.74v21.257c0 .209-.322.531-.322.531m-83.67 29.609c-.097.628-.21.837-.21.837 0 0-.113.225-.645.225h-43.47c-1.257 0-1.596-.338-1.596-.338 0 0-.21-.418-.113-1.368l10.783-74.81c.113-.901.322-1.223.322-1.223 0 0 .113 0 1.112 0h19.793c.532 0 .693.096.693.096 0 0 .113.338 0 .756l-8.107 58.46c-.113.628.21.692.21.692 0 0 .21.113 1.08.113h21.485c.467 0 .629.193.629.193 0 0 .113.113.113.644l-2.079 15.722m-55.4 1.159h-19.309c-.419.209-.758-.209-.758-.209 0 0-.097-.113-.21-.756l-2.563-11.924c-.21-.579-.419-.901-.419-.901 0 0-.532-.322-1.177-.322h-25.11c-.484 0-.806.322-.806.322 0 0-.419.37-.645 1.014l-5.706 12.149c-.097.306-.306.418-.306.418 0 0-.435.113-.645.113h-21.759c-.532.096-.693-.225-.693-.225 0 0-.097-.209.161-.644l38.34-76.34c.21-.097.419-.434.419-.434 0 0 .226-.096.854-.096h23.742c.532 0 .838.322.838.322 0 0 .113.113.226.418l15.941 76.66c0 .225-.113.338-.113.338 0 0 0 .096-.306.096m-90.5-.097h-19.309c-.322 0-.629 0-.629 0 0 0-.064-.113-.177-.225l-26.821-47.49c-.21-.209-.306-.209-.306-.209 0 0-.226 0-.226.306l-6.657 46.65c-.113.531-.226.628-.226.628 0 0-.21.113-.532.113h-19.2c-.306 0-.532-.209-.532-.209 0 0-.419-.434-.258-.853l10.493-75.49c.113-.434.338-.531.338-.531 0 0 .306-.338.629-.338h21.437c.322 0 .532.225.532.225 0 0 .21.113.322.418l24.16 42.34c.419.837.741.74.741.74 0 0 .322 0 .532-.966l6.093-42.11c0-.306.193-.418.193-.418 0 0 .113-.225.435-.225l20.15.225c.435 0 .548.113.548.113 0 0 .097.097.097.306l-10.88 76.13c-.113.434-.306.756-.306.756 0 0-.113.113-.645.113m-84.43-.225l-18.761.113c-.435 0-.741-.225-.741-.225 0 0-.113-.096-.226-.837l-2.933-12.149c0-.257-.193-.37-.193-.37 0 0-.113 0-.338 0h-26.498c-.532 0-.854.37-.854.37 0 0-.419.322-.741 1.062l-5.287 11.296c-.21.434-.322.531-.322.531 0 0-.306.209-.58.209h-21.856c-.645.113-.758-.209-.758-.209 0 0-.113-.322.113-.74l37.91-76.03c.161-.434.484-.531.484-.531 0 0 .21 0 .741 0h24.16c.435 0 .741.322.741.322 0 0 .113.113.226.418l16.247 76.24c0 .322-.193.418-.193.418 0 0-.113.113-.338.113m143.14-55.52c0 0-.113 0-.226.418l-10.541 23.8c-.226.74-.113.853-.113.853 0 0 .306.209.532.209l15.618-.113c.113 0 .21 0 .21 0 0 0 .113-.097 0-.418l-5.271-24.443c-.097-.306-.21-.306-.21-.306m-175.19.306c0 0-.097 0-.21.225l-10.557 23.896c-.21.322-.113.531-.113.531 0 0 .113.113.645.113l15.506.097c.113 0 .161-.097.161-.097 0 0 .113-.113 0-.434l-5.335-24.11c0-.225-.097-.225-.097-.225m-54.06 52.56c-.113.837-.532 1.48-.532 1.48 0 0-.451.434-1.128.644-10.187 4.103-21.453 2.719-21.453 2.719-18.278-1.963-29.851-13.163-33.59-27.581-5.496-21.611 5.4-36.946 8.06-40.25 6.399-7.676 16.424-13.147 26.289-14.434 12.54-1.754 21.824 1.175 25.66 2.462 0 0 4.207 1.32 7.35 3.46 1.596 1.062 1.821 1.48 1.821 1.48 0 0 .097.225-.338 1.867l-2.966 15.48c-.113.644-.5.966-.5.966 0 0-.21.113-1.709-.853-9.477-6.71-20.567-5.906-20.567-5.906-8.43.531-18.294 4.956-21.23 16.12-2.611 9.912.113 18.216 6.01 23.16 4.01 3.524 10.251 5.278 16.811 4.972 7.14-.531 12.846-3.363 12.427-3.154 0 0 .306-.113.645-.209 1.483-.74 1.805-.644 1.805-.644 0 0 .322.322.097 1.287l-2.966 16.928" fill="#fff"/></g></svg>