<svg xmlns="http://www.w3.org/2000/svg" viewBox="0 0 189.39917 39.682999" width="715.84" height="149.98"><defs><clipPath id="0"><path d="m666.14 0h666.16v907.09h-666.16v-907.09"/></clipPath></defs><g transform="translate(320.86-48.02)"><path d="m-162.11 48.02h-158.75v39.683h158.75v-39.683"/><g clip-path="url(#0)" transform="matrix(3.023 0 0-3.023-2473.9 874.49)"><path d="m0 0c-.001-.09-.055-.155-.055-.155 0 0-.043-.045-.124-.065-1.06-.434-2.241-.289-2.241-.289-1.916.209-3.134 1.382-3.524 2.898-.575 2.266.567 3.883.843 4.225.675.805 1.728 1.381 2.756 1.516 1.316.189 2.29-.121 2.689-.255 0 0 .444-.144.777-.366.165-.112.185-.155.185-.155 0 0 .012-.021-.031-.198l-.312-1.626c-.011-.067-.055-.101-.055-.101 0 0-.023-.009-.175.091-.997.707-2.16.618-2.16.618-.885-.057-1.913-.52-2.225-1.693-.275-1.04.014-1.913.63-2.435.423-.362 1.076-.552 1.761-.518.755.055 1.35.355 1.307.334 0 0 .032.008.068.021.154.077.187.067.187.067 0 0 .032-.034.012-.136l-.313-1.778m5.666 5.52c0 0-.013 0-.023-.022l-1.102-2.512c-.023-.035-.015-.056-.015-.056 0 0 .015-.011.067-.011l1.626-.013c.012 0 .021.013.021.013 0 0 .012.011 0 .042l-.565 2.537c0 .022-.009.022-.009.022m18.367.031c0 0-.008 0-.019-.042l-1.107-2.504c-.023-.075-.013-.086-.013-.086 0 0 .034-.022.058-.022l1.638.009h.021c0 0 .001.013 0 .045l-.555 2.569c-.009.031-.023.031-.023.031m-15-5.829l-1.969-.008c-.045 0-.079.018-.079.018 0 0-.013.011-.022.09l-.309 1.272c0 .033-.022.045-.022.045h-.033-2.774c-.058 0-.089-.045-.089-.045 0 0-.046-.034-.079-.111l-.553-1.183c-.022-.042-.034-.057-.034-.057 0 0-.034-.021-.065-.021h-2.294c-.063-.008-.074.021-.074.021 0 0-.012.037.011.079l3.97 7.987c.023.044.055.054.055.054h.077 2.536c.04 0 .075-.033.075-.033 0 0 .013-.001.022-.044l1.705-8.01c0-.037-.022-.048-.022-.048 0 0-.001-.001-.033-.001m8.852-.022h-2.026-.065c0 0-.012.014-.022.022l-2.81 4.989c-.023.023-.033.023-.033.023 0 0-.022 0-.022-.033l-.696-4.901c-.013-.057-.024-.068-.024-.068 0 0-.024-.001-.056-.001h-2.02c-.032 0-.051.021-.051.021 0 0-.046.045-.037.09l1.109 7.932c.001.044.032.055.032.055 0 0 .032.033.067.033h2.247c.033 0 .054-.023.054-.023 0 0 .023-.001.033-.044l2.535-4.445c.043-.092.077-.079.077-.079 0 0 .035 0 .056.1l.641 4.424c0 .034.023.044.023.044 0 0 .011.023.043.023l2.115-.023c.044 0 .056-.001.056-.001 0 0 .009-.011.009-.034l-1.137-7.998c-.011-.045-.034-.074-.034-.074 0 0-.013-.014-.068-.014m9.485-.001h-2.027c-.042-.024-.078.024-.078.024 0 0-.009.008-.021.074l-.264 1.248c-.021.069-.045.103-.045.103 0 0-.056.032-.122.032h-2.635c-.053 0-.087-.032-.087-.032 0 0-.045-.045-.068-.111l-.596-1.27c-.013-.036-.034-.044-.034-.044 0 0-.043-.014-.069-.014h-2.278c-.054-.001-.076.022-.076.022 0 0-.001.021.022.066l4.02 8.02c.022.011.045.044.045.044 0 0 .023.001.088.001h2.49c.056 0 .09-.033.09-.033 0 0 .011-.001.021-.044l1.67-8.05c0-.018-.001-.032-.001-.032 0 0 0-.001-.032-.001m5.81.119c-.013-.066-.023-.087-.023-.087 0 0-.012-.022-.067-.022h-4.558c-.134 0-.167.032-.167.032 0 0-.023.048-.001.146l1.129 7.853c.008.099.033.132.033.132h.119 2.071c.057 0 .079-.001.079-.001 0 0 .009-.033 0-.077l-.853-6.141c-.012-.066.022-.075.022-.075 0 0 .024-.013.11-.013h2.257c.044 0 .067-.021.067-.021 0 0 .013-.012.013-.068l-.222-1.649zm8.775 3.11c0 0-.009-.022-.044-.022h-2.834c-.045 0-.067-.022-.067-.022 0 0-.029-.011-.029-.066v-3.02c0-.045-.023-.056-.023-.056 0 0-.014-.018-.049-.018h-2.244c-.035 0-.056.018-.056.018 0 0-.009.011-.009.068v3.02c0 .035-.033.057-.033.057 0 0-.014.022-.044.022h-2.901c-.055 0-.067.009-.067.009 0 0-.022.024-.022.092v2.211c0 .024.022.056.022.056 0 0 .012.009.034.009h2.964c.025 0 .025.012.025.012 0 0 .022.013.022.033v2.645c0 .031.009.055.009.055 0 0 .021.011.089.011h2.203c.043 0 .057-.011.057-.011 0 0 .023-.024.023-.067v-2.653h2.875c.076 0 .099-.013.099-.013 0 0 .035-.012.035-.077v-2.235c0-.023-.035-.055-.035-.055" fill="#fff" transform="translate(720.53 263.34)"/></g></g><g transform="matrix(1.18922 0 0 1.18922 10.851-224.2)" fill="#fff"><path d="m132.47 192.6v-4.07h-2.73v10.52h2.73v-4.34h2.67v-2.11"/><path d="m136.41 191.97v7.08h2.73v-10.52h-2.73"/><path d="m148.58 190.12c-1.02-1.05-2.22-1.59-3.61-1.59h-4.02v2.32h2.98.37c1.79 0 2.98 1.15 2.98 2.94 0 1.8-1.19 2.94-2.98 2.94h-.62v-4.61h-2.73v6.93h4.02c1.4 0 2.61-.52 3.63-1.56 1.02-1.05 1.54-2.28 1.54-3.7 0-1.4-.52-2.62-1.56-3.67"/></g></svg>