<svg xmlns="http://www.w3.org/2000/svg" height="327.27" width="600" viewBox="0 0 158.75 86.590833"><g transform="translate(25.886-124.44)" fill="#49648c"><path d="m-25.886 148.49h158.75v-24.05h-158.75z"/><path d="m-25.886 211.03h158.75v-24.06h-158.75z"/><path d="m-12.784 180.83c5.509 0 8.843-2.31 11.158-5.74l-5.88-4.26c-1.389 1.62-2.732 2.6-4.815 2.6-2.963 0-5-2.46-5-5.7v-.09c0-3.06 2.083-5.56 4.907-5.56 2.13 0 3.472.98 4.676 2.64l5.972-4.44c-2.129-3.38-5.555-5.6-10.694-5.6-7.917 0-13.426 5.97-13.426 13.05v.09c0 7.09 5.555 13.01 13.1 13.01m21.666-.04c3.288 0 5.649-1.25 7.362-3.15v2.59h8.704v-14.4c0-3.51-.787-6.11-2.686-7.96-1.991-1.99-5.05-3.05-9.537-3.05-4.306 0-7.315.78-10.139 1.94l1.806 6.2c2.222-.88 4.259-1.39 6.899-1.39 3.379 0 5 1.49 5 4.08v.42c-1.435-.51-3.704-.98-6.02-.98-5.88 0-9.815 2.69-9.815 7.87v.1c0 5 3.657 7.73 8.426 7.73m3.148-5.51c-1.805 0-3.101-1.02-3.101-2.73v-.1c0-1.85 1.481-3.1 4.03-3.1 1.296 0 2.546.28 3.426.65v1.16c0 2.5-1.806 4.12-4.353 4.12m17.64 4.95h8.796v-13.56c0-2.73 1.575-4.22 3.704-4.22 2.084 0 3.519 1.49 3.519 4.22v13.56h8.796v-16.39c0-5.69-3.194-9.21-8.519-9.21-3.564 0-5.879 1.99-7.5 4.07v-3.51h-8.796zm36.06.19h8.01l10-25.23h-9.121l-4.815 14.63-4.815-14.63h-9.259zm26.16.37c3.287 0 5.648-1.25 7.361-3.15v2.59h8.708v-14.4c0-3.51-.79-6.11-2.69-7.96-1.99-1.99-5.05-3.05-9.537-3.05-4.305 0-7.315.78-10.139 1.94l1.806 6.2c2.222-.88 4.259-1.39 6.898-1.39 3.38 0 5 1.49 5 4.08v.42c-1.435-.51-3.704-.98-6.02-.98-5.88 0-9.815 2.69-9.815 7.87v.1c0 5 3.657 7.73 8.426 7.73m3.148-5.51c-1.806 0-3.102-1.02-3.102-2.73v-.1c0-1.85 1.481-3.1 4.03-3.1 1.296 0 2.546.28 3.426.65v1.16c0 2.5-1.806 4.12-4.352 4.12m27.591 5.51c6.11 0 10.23-2.87 10.23-8.38v-.09c0-4.87-3.93-6.58-8.89-7.97-2.63-.78-4.07-1.25-4.07-2.22v-.09c0-.7.69-1.21 2.04-1.21 1.99 0 4.81.88 7.41 2.32l3-5.56c-2.87-1.85-6.66-2.91-10.32-2.91-5.79 0-10.05 2.96-10.05 8.28v.1c0 5.04 3.94 6.71 8.89 8.01 2.64.74 4.03 1.15 4.03 2.13v.09c0 .88-.69 1.34-2.22 1.34-2.59 0-5.74-.97-8.61-2.87l-3.29 5.32c3.47 2.5 7.64 3.71 11.85 3.71"/></g></svg>