<svg xmlns="http://www.w3.org/2000/svg" width="400" height="120.05" viewBox="0 0 320 96.042603"><g transform="matrix(.73264 0 0 .73264-273.69-941.32)"><g transform="matrix(.14832 0 0 .14832 374.11 1294.39)"><path d="m636.65 0h638.25c-.001 212.43.001 424.85-.001 637.28-212.75.001-425.49 0-638.24 0v-637.28" fill="#fff"/><path d="m0 0h637.45c-.001 212.43.001 424.85-.001 637.28-212.48.001-424.96 0-637.44 0v-637.28"/><path d="m307.08 35.49c28.54-3.19 57.52-1.57 85.69 3.98 51.11 10.18 99.22 34.87 137.33 70.42 21.19 19.76 39.74 42.57 53.78 67.96-52.81 30.13-105.63 60.23-158.32 90.57-10.42-18.07-26.25-33.01-45.13-41.93-17.45-8.27-37.32-11.68-56.48-9.05-23.01 2.69-44.88 13.76-60.88 30.47-16.17 16.63-26.36 38.92-28.3 62.04-3.53 36 13.98 73.1 44.03 93.25 26.23 18.4 61.36 23.05 91.51 12.26 23.22-8.01 43.06-24.85 55.26-46.12 52.65 30.44 105.6 60.38 158.33 90.68-18.6 33.18-44.41 62.18-74.49 85.39-31.42 24.02-67.85 41.49-106.34 50.63-44.18 10.58-90.9 10.39-135.01-.5-37.52-9.27-73.08-26.35-103.8-49.79-33.19-25.24-60.79-57.84-80.07-94.82-31.64-59.86-40.45-131.2-24.92-197.04 12.11-52.35 39.58-101.03 78.08-138.52 45.34-44.83 106.26-73.61 169.73-79.88" fill="#fff"/><path d="m683.23 45.67c60.62.05 121.24-.001 181.86.03 60.88 75.85 121.39 151.99 182.33 227.78.14-75.94-.03-151.89.08-227.83 60.63.07 121.26.05 181.89.001-.02 182.05-.04 364.1.001 546.14-1.83.02-3.61.06-5.4.09-15.67-.15-31.33.13-46.99-.07-27.66.16-55.34-.04-83.01.04-15.65-.04-31.3.07-46.95-.06-60.57-75.81-121.25-151.54-181.78-227.38-.24 75.79-.04 151.59-.1 227.39-9.39.12-18.78.03-28.16.05-1.35.001-2.69.001-4.02 0-48.99.2-97.99-.04-147 .001-.7 0-2.11-.02-2.81-.02.04-182.06-.06-364.12.05-546.18"/><path d="m38.25 689.14c9.92-7.03 23.09-9.3 34.74-5.75 10.03 2.82 18.46 9.84 23.91 18.63-7.01 3.98-13.92 8.13-20.99 12.01-3.66-5.1-9.69-8.76-16.16-7.79-6.39.62-11.99 5.48-13.67 11.66-3.19 9.47 4.86 20.58 14.86 20.55 6.07.56 11.66-3.11 15.03-7.93 6.94 4.13 13.97 8.09 20.97 12.12-6.93 11.46-19.24 19.23-32.62 20.36h-5.17c-14.63-1.05-28.47-10.27-34.41-23.78-3.55-7.23-4.13-15.5-3.2-23.39 1.68-10.68 7.88-20.47 16.71-26.69"/><g transform="scale(.8)"><path d="m494.87 852.59c-12.98.093-25.711 5.902-34.594 15.313-9.06 9.112-13.981 21.894-14.344 34.656.1 11.7 3.969 23.425 11.469 32.5 8.275 10.425 20.863 16.837 33.938 18.688h10.563c13.237-1.775 25.994-8.188 34.28-18.813 8.6-10.288 12.356-24.12 10.906-37.37-2.025-24.587-24.788-45.737-49.625-44.938-.866-.045-1.728-.038-2.594-.031m1.344 31.969c8.37-.182 16.68 5.81 18.438 14.25 3.513 11.913-8.03 24.656-20.22 22.594-8.275-1-15.3-8.08-16-16.406-1.038-8.188 4.325-16.556 12.06-19.281 1.856-.743 3.787-1.114 5.719-1.156"/><path d="m606.03 852.56c-2.995.026-5.994.25-8.938.688-12.825 2.288-24.487 9.962-32 20.563-8.125 11.388-11.163 26.27-8.125 39.938 2.675 12.85 10.663 24.5 21.625 31.688 6.775 4.65 14.837 7 22.875 8.313h10.219c13.888-1.825 27.19-8.919 35.5-20.344 9.06-11.862 11.881-27.781 8.656-42.22-3.163-13.413-12.07-25.388-24.09-32.12-7.753-4.697-16.733-6.579-25.719-6.5m.531 31.969c9.459.053 18.589 8.202 18.25 17.969 1.125 11.538-11.269 21.656-22.344 18.531-9.75-1.875-16.675-12.906-13.813-22.469 1.663-6.6 7.237-12.03 13.875-13.531 1.339-.342 2.68-.508 4.03-.5"/><path d="m1310.09 852.25c-19.18-.089-38.07 11.621-45.906 29.28-7.25 15.337-6.06 34.34 3.125 48.625 8.25 13.4 22.975 21.919 38.5 23.594h9c11.7-1.5 23.03-6.531 31.375-14.969 7.813-8.02 12.963-18.625 14.313-29.75 1.525-11.55-1.45-23.462-7.563-33.31-8.08-12.625-21.9-21.513-36.875-23.06-1.978-.268-3.985-.397-5.969-.406m-.875 32.25c8.93-.322 17.935 6.32 19.06 15.531 2.425 11.688-8.956 23.294-20.656 21.281-8.963-1.125-16.45-9.694-15.813-18.781-.225-7.2 4.862-13.837 11.313-16.625 1.955-.867 4.03-1.332 6.094-1.406"/><path d="m202 854.37c-16.2.038-32.412.056-48.625.031-9.963 32.475-20.17 64.869-30.344 97.28 11.5-.025 23.03.006 34.531-.031 1.5-5.45 3.03-10.869 4.656-16.281 10.375.038 20.794-.35 31.16.125 2.113 5.237 3.02 10.862 4.906 16.188 11.4-.075 22.787.05 34.19-.063-10.225-32.4-20.18-64.875-30.469-97.25m-24.375 26.844c3.338 9.95 6.162 20.1 8.813 30.25-5.787.025-11.588.019-17.375-.031 2.813-10.09 5.688-20.16 8.563-30.22"/><path d="m242.28 854.41v97.25c10.738.063 21.481.019 32.22.031.025-9.475-.05-18.962.063-28.438 3.475-.075 6.962-.063 10.438 0 4.85 9.475 9.575 18.994 14.438 28.469 11.95-.075 23.894.006 35.844-.031-6.04-10.763-12.731-21.14-18.781-31.906 1.387-1.45 3.175-2.394 4.75-3.594 9.113-6.388 14.9-17.531 14.12-28.719.012-17.438-15.7-32.388-32.875-32.875-20.06-.438-40.14-.038-60.22-.188m42.531 28.344c3.434-.009 6.875-.025 10.313 0 4.488-.3 8.669 4.075 8.094 8.563.012 4.112-3.844 7.888-7.969 7.75-6.913.063-13.837-.019-20.75.031 0-5.438-.025-10.875 0-16.313 3.438 0 6.878-.022 10.313-.031"/></g><path d="m275.41 706.21c.15-7.56.06-15.13.05-22.69 25.98.03 51.96-.001 77.94.02.02 7.55.03 15.11-.001 22.66-8.19.03-16.39-.05-24.59.05-.001 18.36 0 36.73-.001 55.09-9.66-.001-19.31.02-28.97-.001 0-18.38 0-36.75 0-55.12-8.14 0-16.27-.001-24.41 0"/><path d="m533.71 683.55c8.6-.05 17.19.001 25.79-.04 8.84 10.69 17.25 21.73 26.13 32.38.2-10.78.04-21.56.09-32.34 8.59-.05 17.18.02 25.77-.05-.05 25.95-.1 51.9.03 77.86-8.58-.03-17.16-.03-25.74 0-8.92-10.66-17.32-21.74-26.18-32.44-.45 10.79-.15 21.61-.17 32.42-8.58.001-17.15 0-25.72 0-.001-25.93-.001-51.86 0-77.79"/><path d="m664.15 683.51c8.64.08 17.29-.07 25.93.08 8.63 10.84 17.15 21.79 26.05 32.4.15-10.82.02-21.64.07-32.47 8.53.03 17.05-.001 25.58.02 0 25.94 0 51.87 0 77.8-8.58-.001-17.15.03-25.73-.02-8.87-10.74-17.33-21.82-26.22-32.54-.08 10.85-.04 21.71-.02 32.56-8.55.001-17.09 0-25.64 0-.02-25.94.03-51.89-.02-77.83"/><path d="m753.15 683.5c22.66.1 45.32-.05 67.98.08.02 5.47-.05 10.94.04 16.42-.05 2.07-.22 4.15-.38 6.23-14-.02-28-.09-42 .04-.04 2.33.19 4.66.35 7 11.78-.05 23.56-.001 35.34-.03-.05 6.38-.02 12.76-.02 19.14-11.88.03-23.75-.06-35.63.05.001 2.69.001 5.39.08 8.1 14.07.15 28.15.05 42.22.04-.001 3.14 0 6.28 0 9.43 0 3.77-.001 7.54 0 11.32-22.65.06-45.31 0-67.96.02.001-25.94.04-51.89-.02-77.84"/><path d="m829.77 683.54c26.01.001 52.02-.07 78.03.04-.07 7.53.09 15.07-.1 22.61-8.14 0-16.28-.02-24.42 0-.001 18.39 0 36.77 0 55.15-9.66 0-19.31 0-28.96 0-.001-18.39 0-36.77-.001-55.16-8.18-.13-16.38.31-24.54-.24-.001-7.47-.02-14.94 0-22.4"/><path d="m914.22 683.57c8.72-.08 17.44-.05 26.16-.001 2.06 11.38 4.06 22.79 6.57 34.09 4.37-10.43 8.59-20.93 12.97-31.35 4.34 10.42 8.36 21 13.05 31.28 2.32-11.32 4.21-22.73 6.57-34.05 8.64.02 17.28-.05 25.92.05-4.96 25.92-9.87 51.84-14.82 77.75-7.19 0-14.38.05-21.57-.02-2.98-7.03-6.03-14.02-9.18-20.97-3.29 6.94-6.1 14.09-9.39 21.02-7.07-.03-14.15-.03-21.21.001-5.36-25.87-9.83-51.91-15.07-77.8"/><path d="m1399.72 854.41c-9.678.011-19.356.056-29.03.031-.013 32.413-.025 64.806 0 97.22 10.825.025 21.644.044 32.469.031-.012-9.563-.05-19.14 0-28.688 3.45-.025 6.931-.031 10.406.094 4.563 9.575 9.531 18.969 14.156 28.531 12.06.087 24.14.069 36.22.031-6.375-10.8-13.06-21.438-19.16-32.375 10.2-5.25 17.369-15.431 19.219-26.719 0-2.563-.019-5.106-.031-7.656-1.263-6.888-3.869-13.681-8.719-18.844-6.612-7.438-16.55-11.769-26.5-11.531-9.675-.131-19.353-.136-29.03-.125m3.406 28.313c6.938.05 13.862-.056 20.813.031 5.162-.2 9.65 6.225 7.25 10.938-1.138 2.987-4.063 5.337-7.313 5.375-6.912.112-13.838-.031-20.75.031 0-5.462.013-10.925 0-16.375" transform="scale(.8)"/><path d="m1179.44 761.33c-.07-25.93-.07-51.85 0-77.78 8.68-.001 17.37-.08 26.06.06-.001 8.37-.15 16.75.07 25.13 6.6-8.31 12.78-16.93 19.36-25.25 11.04.12 22.08-.04 33.12.08-10.12 12.28-19.95 24.8-30.1 37.06 9.57 13.88 20.2 27.05 30.12 40.69-11.07.05-22.13.001-33.19.03-6.44-9.65-12.9-19.28-19.29-28.96-.3 9.64-.05 19.29-.12 28.94-8.68.02-17.36.02-26.03 0"/><path d="m1270.28 740.47c5.73-.09 11.47-.05 17.2-.05 0 1.13.001 2.26.04 3.4-2.09-.02-4.19-.03-6.25-.04-.79 5.85-.28 11.76-.42 17.65-1.4-.001-2.77 0-4.14.001-.04-5.88.02-11.76-.04-17.63-2.12-.02-4.21-.001-6.3-.001-.05-1.12-.08-2.23-.09-3.33"/><path d="m1290.24 740.45c2.1-.03 4.22-.05 6.34-.07 1.45 5.6 2.53 11.3 4.23 16.83 1.21-5.61 2.42-11.23 3.84-16.8 2.1-.001 4.22-.02 6.35-.001v21.04c-.96.001-2.88.001-3.84.02-.06-5.83.14-11.65-.14-17.47-1.95 5.67-2.87 11.62-4.36 17.42-1.03.001-3.09.03-4.12.04-1.54-5.74-2.51-11.61-4.07-17.34-.5 5.74-.25 11.52-.25 17.28-1.33.02-2.66.04-3.96.08-.03-7.01-.001-14.01-.02-21.02"/></g><path d="m577.6 1415.39l-10.6-130 242.8 9.6-8.8 111.6z" fill="#2d75da"/><g fill="#fff"><path d="m615.2 1399.39l-7.2-57-25.8 4.2-3-34 92.2-14.8 3.4 26.2c-7.79 0-39 7.462-39 38.2 0 22.684 17.16 30.373 17.16 30.373z"/><path d="m931.62 1639.97c-46.13 0-56.719 38-56.719 38 0 0-8.47-13.625-28.25-13.625-18.17 0-43.47 12.561-43.47 38.531 0 17.461 11.859 33.906 35.34 33.906 29.321 0 39.03-21.719 39.03-21.719 0 0 12.662 31.453 56 30.563 41.877 0 58.5-30.814 58.5-51.594 0-29.858-25.613-54.06-60.44-54.06m-.969 38.34c10.233 0 18.12 7.101 18.12 15.875 0 6.106-5.226 15.16-17.531 15.16-9.812 0-18.09-7.911-18.09-15.781 0-7.87 6.773-15.25 17.5-15.25m-86.78 12.906c8.243 0 10.125 5.793 10.125 9.437 0 2.762-2.943 9.563-11.844 9.563-6.162 0-10.188-4.294-10.188-8.875 0-6.813 7.139-10.125 11.906-10.125" transform="scale(.8)"/></g></g></svg>