<svg xmlns="http://www.w3.org/2000/svg" height="288.16" width="600" viewBox="0 0 158.75 76.243462"><g transform="translate(116.44 65.2)"><path d="m-53.1-1.403h63.34v-63.35h-63.34z" fill="#fff"/><path d="m-116.44-1.403h63.34v-63.35h-63.34z" fill="#11100f"/><path d="m-74.16-28.04c-1.75 3.062-5.04 5.133-8.832 5.133-5.621 0-10.177-4.556-10.177-10.183 0-5.616 4.556-10.177 10.177-10.177 3.788 0 7.082 2.071 8.832 5.138l15.716-8.985c-4.872-8.511-14.03-14.246-24.548-14.246-15.612 0-28.28 12.658-28.28 28.27 0 15.632 12.665 28.29 28.28 28.29 10.514 0 19.676-5.739 24.548-14.246z" fill="#fff"/><g fill="#11100f"><path d="m5.714-5.927v-54.3h-18.1v22.619l-18.1-22.619h-18.1v54.3h18.1v-22.629l18.1 22.629z"/><path d="m-21.07 8.787l.918 2.086h2.145l1.479-7.752h-2.604l-.646 3.402-1.292-3.136-1.297 3.136-.641-3.402h-2.603l1.474 7.752h2.15z"/><path d="m-26.24 3.122h-7.757v2.258h2.426v5.494h2.909v-5.494h2.422z"/><path d="m-12.301 8.449c-.803 0-1.454-.646-1.454-1.45s.651-1.455 1.454-1.455c.799 0 1.455.651 1.455 1.455s-.656 1.45-1.455 1.45m0-5.493c-2.233 0-4.04 1.81-4.04 4.04 0 2.229 1.805 4.04 4.04 4.04 2.229 0 4.04-1.81 4.04-4.04 0-2.234-1.81-4.04-4.04-4.04"/><path d="m-42.716 10.873v-7.752h-2.589v3.23l-2.584-3.23h-2.584v7.752h2.584v-3.23l2.584 3.23z"/><path d="m-34.84 5.38v-2.259h-6.785v7.752h6.785v-2.101h-4.206v-.774h3.56v-1.943h-3.56v-.676z"/><path d="m-4.911 5.38h1.617c.355 0 .646.291.646.646 0 .36-.291.651-.646.651h-1.617zm4.847.488c0-1.41-1.115-2.747-2.909-2.747h-4.522v7.752h2.584v-2.264h.824l1.134 2.264h2.89l-1.538-2.579c.902-.459 1.538-1.376 1.538-2.426"/><path d="m8.581 3.122h-3.324l-1.923 2.535v-2.535h-2.589v7.752h2.589v-2.895l1.923 2.895h3.324l-3.02-4.03z"/><path d="m-102.98 7.649l.67-2.377.69 2.377zm2.29 3.23h2.747l-2.417-7.752h-3.89l-2.42 7.752h2.76l.37-1.292h2.48z"/><path d="m-81.31 3.127h-7.752v2.263h2.421v5.489h2.909v-5.489h2.422z"/><path d="m-108.92 7.782c-.28.483-.79.809-1.39.809-.88 0-1.59-.72-1.59-1.603 0-.883.71-1.603 1.59-1.603.6 0 1.11.33 1.39.809l2.11-1.208c-.7-1.218-2.01-2.037-3.51-2.037-2.23 0-4.04 1.81-4.04 4.04 0 2.234 1.81 4.04 4.04 4.04 1.5 0 2.81-.819 3.51-2.032z"/><path d="m-76.951 8.461c-.804 0-1.455-.656-1.455-1.46 0-.804.651-1.455 1.455-1.455.799 0 1.455.651 1.455 1.455 0 .804-.656 1.46-1.455 1.46m0-5.493c-2.229 0-4.04 1.805-4.04 4.03 0 2.234 1.81 4.04 4.04 4.04s4.04-1.809 4.04-4.04c0-2.229-1.81-4.03-4.04-4.03"/><path d="m-68.23 8.461c-.803 0-1.454-.656-1.454-1.46 0-.804.651-1.455 1.454-1.455.804 0 1.455.651 1.455 1.455 0 .804-.651 1.46-1.455 1.46m0-5.493c-2.229 0-4.04 1.805-4.04 4.03 0 2.234 1.809 4.04 4.04 4.04 2.234 0 4.04-1.809 4.04-4.04 0-2.229-1.805-4.03-4.04-4.03"/><path d="m-55.667 10.88v-7.752h-2.583v3.23l-2.584-3.23h-2.584v7.752h2.584v-3.23l2.584 3.23z"/><path d="m-94.61 5.388h1.618c.36 0 .646.291.646.646 0 .36-.286.651-.646.651h-1.618zm4.847.488c0-1.415-1.109-2.752-2.904-2.752h-4.527v7.757h2.584v-2.264h.824l1.139 2.264h2.884l-1.533-2.579c.897-.459 1.533-1.376 1.533-2.426"/><path d="m11.266 8.848v.375h-.631v1.746h-.444v-1.746h-.636v-.375z"/><path d="m12.933 8.848h.636v2.12h-.409v-1.613-.168l-.399 1.78h-.434l-.395-1.78v.168 1.613h-.409v-2.12h.641l.384 1.662z"/><path d="m21.633-58.56v-5.39c0-.562.069-.912.202-1.045.133-.138.484-.202 1.046-.202h1.869c.562 0 .912.064 1.045.202.133.133.202.483.202 1.045v5.39h5.538c.587 0 .947.069 1.085.202.133.133.202.484.202 1.046v1.686c0 .562-.069.912-.202 1.046-.138.133-.498.202-1.085.202h-5.538v5.39c0 .562-.069.912-.202 1.045-.133.138-.483.202-1.045.202h-1.869c-.562 0-.913-.064-1.046-.202-.133-.133-.202-.483-.202-1.045v-5.39h-5.538c-.562 0-.912-.069-1.045-.202-.133-.134-.202-.484-.202-1.046v-1.686c0-.562.069-.913.202-1.046s.483-.202 1.045-.202z"/><path d="m40.456-51.29h.966c.4 0 .646.049.745.143.094.098.143.355.143.769v1.75c0 .42-.049.676-.143.775-.099.093-.345.143-.745.143h-6.114c-.4 0-.646-.05-.74-.143-.099-.099-.148-.355-.148-.775v-1.75c0-.414.049-.671.148-.769.094-.094.34-.143.74-.143h.966v-10.632h-1.094c-.42 0-.676-.044-.77-.143-.098-.094-.143-.345-.143-.745v-1.435c0-.399.045-.65.143-.744.094-.099.35-.143.77-.143h4.388c.4 0 .646.044.745.143.094.094.143.345.143.744z"/></g></g></svg>