<svg xmlns="http://www.w3.org/2000/svg" viewBox="0 0 600 352.8" xmlns:xlink="http://www.w3.org/1999/xlink"><g transform="translate(95.27 56.02)"><path fill="#fff" d="m199.46 238.74h294.76v-294.76h-294.76v294.76" id="0"/><use xlink:href="#0"/><path d="m-95.27 238.78h294.77v-294.76h-294.77v294.76"/><path fill="#fff" d="m99.26 114.88c-8.165 14.246-23.493 23.885-41.1 23.887-26.14 0-47.36-21.22-47.37-47.37-.005-26.15 21.21-47.37 47.35-47.37 17.606-.004 32.936 9.623 41.11 23.875l73.11-41.796c-22.66-39.598-65.31-66.3-114.22-66.29-72.67.001-131.57 58.921-131.56 131.6.011 72.67 58.922 131.58 131.59 131.56 48.912-.001 91.56-26.72 114.21-66.32"/><path d="m344.04 286.24l4.272 9.73h10.03l6.904-36.2h-12.166l-3.01 15.896-6.04-14.644-6.04 14.646-3.02-15.896h-12.158l6.906 36.2h10.04"/><path d="m319.89 259.77l-36.21.004v10.56h11.314l.004 25.641h13.57l-.004-25.641h11.322"/><path d="m384.96 284.64c-3.753 0-6.793-3.039-6.793-6.775 0-3.753 3.038-6.793 6.791-6.793 3.751 0 6.791 3.038 6.793 6.791 0 3.738-3.039 6.777-6.791 6.777m-.004-25.639c-10.412 0-18.862 8.436-18.86 18.866 0 10.412 8.452 18.846 18.866 18.846 10.414 0 18.862-8.438 18.86-18.852 0-10.428-8.452-18.862-18.866-18.86"/><path d="m242.95 295.98l-.004-36.2h-12.07v15.08l-12.07-15.08h-12.07l.006 36.2h12.07v-15.08l12.07 15.08"/><path d="m279.72 270.33v-10.558l-31.685.004.004 36.2 31.686-.004v-9.803l-19.613.004v-3.637h16.594v-9.05h-16.594v-3.156"/><path d="m419.47 270.31h7.548c1.657 0 3.01 1.353 3.01 3.01 0 1.671-1.353 3.02-3.01 3.02h-7.548v-6.04m22.63 2.266c0-6.589-5.209-12.828-13.57-12.826h-21.13l.004 36.2h12.07v-10.56h3.84l5.31 10.558h13.481l-7.185-12.03c4.202-2.154 7.183-6.429 7.183-11.345"/><path d="m482.46 259.75h-15.518l-9 11.854v-11.852h-12.07l.004 36.2h12.07v-13.495l9 13.495 15.52-.004-14.1-18.787"/><path d="m-38.424 280.98l3.176-11.142 3.202 11.14h-6.378zm10.72 15.08h12.821l-11.32-36.21h-18.1l-11.318 36.21h12.886l1.73-6.04h11.563"/><path d="m62.748 259.83l-36.21.006v10.558h11.31l.002 25.655h13.586l-.004-25.655h11.314"/><path d="m-66.14 281.59c-1.279 2.254-3.694 3.767-6.478 3.767-4.123 0-7.469-3.344-7.469-7.459 0-4.131 3.344-7.475 7.467-7.477 2.784 0 5.199 1.527 6.478 3.765l9.854-5.644c-3.253-5.685-9.362-9.526-16.372-9.524-10.42 0-18.862 8.452-18.86 18.88 0 10.414 8.444 18.848 18.866 18.846 7.01 0 13.12-3.827 16.368-9.498"/><path d="m83.12 284.71c-3.751 0-6.785-3.02-6.785-6.777 0-3.751 3.03-6.791 6.783-6.791 3.748 0 6.787 3.039 6.787 6.789 0 3.753-3.037 6.779-6.785 6.779m0-25.625c-10.422 0-18.862 8.422-18.862 18.85 0 10.414 8.446 18.848 18.866 18.846 10.422 0 18.856-8.438 18.854-18.85 0-10.43-8.438-18.848-18.858-18.846"/><path d="m123.86 284.71c-3.759 0-6.799-3.02-6.799-6.777 0-3.751 3.037-6.793 6.797-6.793 3.738 0 6.785 3.039 6.785 6.791 0 3.753-3.045 6.777-6.783 6.779m-.004-25.627c-10.428 0-18.862 8.422-18.86 18.852 0 10.412 8.436 18.846 18.866 18.844 10.406 0 18.848-8.436 18.846-18.85 0-10.428-8.444-18.848-18.852-18.846"/><path d="m182.51 296.03l-.006-36.22h-12.06v15.08l-12.08-15.08h-12.07l.006 36.21h12.07v-15.08l12.08 15.08"/><path d="m.704 270.4h7.54c1.667 0 3.02 1.353 3.02 3.03 0 1.657-1.353 3.01-3.02 3.01h-7.54v-6.04m22.63 2.263c0-6.573-5.209-12.826-13.578-12.825h-9.05-7.548-4.525l.006 36.22h12.07v-10.558h3.825l5.326 10.556h13.483l-7.18-12.04c4.196-2.138 7.177-6.413 7.177-11.345"/><path d="m473.14-34.965l-84.21.012.013 105.26-84.22-105.25-84.21.012.04 252.62 84.21-.012-.013-105.25 84.22 105.24 84.21-.012-.018-126.29"/><path d="m494.1 285.97v1.744h-2.939v8.04h-2.049v-8.04h-2.939v-1.746"/><path d="m501.78 285.97h2.952v9.787h-1.904v-6.619-.799-.787l-1.847 8.205h-1.993l-1.831-8.203v.785.801 6.617h-1.891v-9.787h2.968l1.79 7.709"/></g></svg>