<svg xmlns="http://www.w3.org/2000/svg" width="986.61" height="616.04" viewBox="-0.70584 -0.70584 37.665195 23.527999"><path d="m36.961 12.228c-.068-1.322-.813-2.479-1.867-3.144.1-.095.473-.455.473-.455l.015-.015c.709-.717 1.119-1.748 1.119-2.791 0-.068-.002-.137-.005-.204-.137-2.595-2.689-4.351-6.077-4.175-2.02.104-3.834.947-5.119 2.371-.132.146-.257.304-.378.463h-.646v-4.391h-6.271c0 0-1.769 1.776-1.981 1.99v-2.583h-9.398l-.002 1.944c0 0-.002.871-.002 1.633h-4.358c-1.752 0-3.178 1.426-3.178 3.178v8.04c0 1.753 1.426 3.178 3.178 3.178h5.929v5.559h19.14v-6.419c1.651.388 2.761.562 3.933.502 3.83-.199 5.506-2.354 5.506-4.471 0-.068-.002-.137-.006-.206" fill="#99cc03"/><path d="m35.02 12.328c-.058-1.075-.994-1.94-2.02-1.888-.392.02-.731.178-1.021.307-.272.119-.489.211-.771.225-.301.017-.518-.039-.711-.145l3.701-3.582c.395-.398.581-.992.554-1.525-.09-1.722-2.179-2.428-4.03-2.332-1.529.08-2.843.695-3.774 1.731-.3.331-.552.705-.759 1.106h-3.658v-4.392h-3.516l-1.538 1.545v1.745c-.123-.243-.586-.591-1.704-.729-.637-.08-1.333.025-1.497.091v-3.245h-5.502l-.003 2.59h.75v.986h-7.05c-.68 0-1.232.551-1.232 1.231v8.04c0 .681.552 1.229 1.232 1.229h7.843v-1.215h4.284.833c.004 0 .009 0 .013 0 .918 0 1.571-.176 2.034-.434v1.348h8.599l1.357-1.359c1 .961 2.416 1.381 3.935 1.302 2.3-.118 3.732-1.142 3.655-2.631"/><path d="m2.03 14.09c0 .237.192.429.429.429h7.06v-3.283h-2.736v1.332h-2.01v-5.03h2.01v1.332h2.735v-3.243h-7.06c-.236 0-.428.192-.428.428v8.04zm32.19-1.73c-.029-.569-.479-1.162-1.156-1.127-.25.012-.485.117-.739.229-.297.132-.636.28-1.058.303-1.601.084-2.239-1.229-2.306-2.482-.044-.828.177-1.573.599-2.045.324-.356.748-.552 1.263-.578.754-.039 1.125.09 1.425.193.202.071.397.138.647.126.826-.043 1.088-.683 1.061-1.218-.072-1.376-2.107-1.635-3.174-1.58-1.321.069-2.439.571-3.234 1.453-.861.954-1.291 2.298-1.216 3.784.077 1.475.642 2.758 1.591 3.614.898.81 2.08 1.201 3.416 1.131 1.433-.073 2.943-.586 2.881-1.803m-13.474-8.652v4.342h4.78v6.168h-7.258l.004-10.511h2.474zm2.297 6.576h-2.294v1.703h2.294v-1.703m-13.481-8.248h3.91v3.793c.251-.433.862-.649 1.834-.649 1.445 0 2.165.618 2.165 1.853v4.875c0 .93-.72 1.396-2.165 1.396-.972 0-1.583-.183-1.834-.541v.541h-3.159v-10.274h-.751v-.994m3.911 8.538c0 .298.281.446.551.446.28 0 .566-.148.566-.446v-3.155c0-.262-.286-.393-.566-.393-.27 0-.551.131-.551.393v3.155" fill="#fff"/><path d="m20.973 16.526h4.607v4.347h-4.607v-4.347m2.902.605c-.148-.026-.277-.039-.391-.039-.564 0-1.018.173-1.359.515-.309.311-.463.687-.463 1.129 0 .408.154.767.463 1.07.33.334.768.502 1.314.502.373 0 .664-.047.871-.139.057-.018.174-.068.352-.152v-.599c-.395.256-.779.384-1.162.384-.406 0-.725-.115-.955-.345-.201-.204-.305-.457-.305-.761 0-.295.1-.541.299-.741.242-.243.553-.364.93-.364.24 0 .471.041.688.123.15.057.309.13.473.221v-.576c-.132-.057-.382-.133-.755-.228m-8.217-.605h4.607v4.347h-4.607v-4.347zm1.211.6v3.148h1.17c.117 0 .229-.013.332-.033.242-.049.43-.139.561-.271.158-.161.238-.35.238-.563 0-.217-.072-.401-.221-.551-.135-.136-.287-.224-.462-.263.039-.017.108-.063.209-.145.126-.128.188-.298.188-.513 0-.205-.074-.379-.222-.522-.187-.193-.449-.289-.787-.289h-1.01zm.559.498h.363c.2 0 .344.041.431.123.063.07.095.156.091.26.004.111-.031.205-.104.279-.097.095-.274.142-.535.142h-.246v-.804m0 1.291h.533c.248 0 .428.056.539.169.064.069.1.155.1.259 0 .03-.006.061-.014.09-.018.07-.051.129-.099.176-.104.104-.272.156-.507.156h-.553v-.85m-7.084-2.389h4.608v4.347h-4.608v-4.347m1.212.6v3.148h1.17c.117 0 .228-.013.332-.033.243-.049.429-.139.559-.271.16-.161.24-.35.24-.563 0-.217-.073-.401-.221-.551-.134-.136-.288-.224-.462-.263.039-.017.109-.063.209-.145.126-.128.189-.298.189-.513 0-.205-.074-.379-.221-.522-.187-.193-.449-.289-.787-.289h-1.01zm.557.498h.365c.199 0 .342.041.428.123.066.07.096.156.092.26.004.111-.031.205-.104.279-.096.095-.274.142-.534.142h-.247v-.804m0 1.291h.533c.248 0 .427.056.541.169.064.069.097.155.097.259 0 .03-.005.061-.013.09-.018.07-.05.129-.098.176-.104.104-.273.156-.507.156h-.553v-.85"/></svg>