<svg xmlns="http://www.w3.org/2000/svg" viewBox="0 0 1112.37 442.68"><g transform="matrix(28.94848 0 0 28.94848.019 0)"><path d="m34.618 10.288c-.977-.912-2.563-.988-3.542.062-.026.028-.056.063-.085.101l-.004-.029-.037-.279.214-.18c.079-.068.14-.135.185-.186.195-.23.348-.532.396-.771.284-1.459-.714-2.221-1.446-2.381-.77-.149-1.586-.006-2.208.454.017-.217.006-.401-.032-.549.784-.229 1.385-1.398 1.025-1.971-.193-.31-.584-.568-.964-.656-.45-.103-1.069.02-1.301.714-.166.5-.168 1.01.049 1.394-.305.091-.612.253-.854.463-.056.048-.099.084-.148.126.027-.26.027-.493.003-.675l-.005-.073c-.022-.16-.057-.312-.082-.402-.346-1.254-1.696-1.355-2.327-1.225l-.037.008.012-.035c.066-.205.087-.258.128-.338.071-.129.182-.297.411-.666.019-.026.124-.143.457-.747.16-.29.222-.569.212-.832-.008-.895-.729-1.615-1.641-1.615-.607 0-1.081.299-1.367.762-.035.046-.094.131-.16.258-.091.173-.193.42-.271.744 0 0-.131.536-.168.881-.018.151-.027.362-.036.565 0 0-.003.08-.009.189-.001.125-.024.286-.051.403-.009.036-.027.082-.059.141-.294-1.151-1.303-1.65-2.037-1.693-.902-.032-1.756.267-2.346.818-.365.34-.61.771-.751 1.26-.026-.014-.052-.028-.077-.041-.003-.078-.006-.156-.006-.156l-.045-.347c-.079-.349-.252-.705-.453-.928-1.162-1.291-2.588-.897-3.262-.317-.431.388-.768.883-.954 1.427-.681-.725-2.361-.68-3.382-.16-.999.509-2.457 1.496-1.87 3.899-.043-.04-.079-.081-.127-.119-.563-.453-1.213-.932-1.876-1.161-.705-.243-1.451-.205-2.075.405-.973.947-3.03 3.624-.113 6.797 1.408 1.533 2.715 1.823 3.789 1.543.509-.133.93-.385 1.252-.625.307-.231.539-.465.685-.597.311-.282.762-.817 1.043-1.401.187-.383.365-.94.212-1.469 1.182.348 2.413.062 3.113-.275.995-.479 2.307-1.526 1.885-2.938.922.115 1.837-.185 2.61-.88.006-.006.001-.012.016-.018.025.041.049.083.049.083.581.813 1.504 1.272 2.611 1.31.549.02.951-.109 1.233-.392 0 0 .006-.012.013-.024.004.001.006.019.001.029.541 1.645 2.543 2.094 3.953 1.457.301-.135.535-.305.694-.443.04-.033.06-.056.09-.084.25.434.822.643 1.163.674.439.043.833-.148 1.161-.447-.022 1.192.698 2.412 2.334 2.73.397.078.757.061 1.043-.148.028-.021.049-.053.075-.078-.004.104 0 .207.021.309l.004.021-.022.004c-.07.009-.136.024-.194.046-.216.075-.392.219-.504.338-.662.71-.58 1.61.088 2.235.983.916 2.565.985 3.542-.063.241-.259.659-.957.522-1.593l-.006-.022.023-.003c.07-.009.135-.026.192-.046.218-.075.392-.218.505-.338.661-.708.588-1.605-.089-2.234m-29.07.186c-.037.208-.062.44-.096.665-.034.214-.072.373-.122.482-.024.053-.075.103-.09.118-.429.149-.826.056-1.302-.526-.194-.238-.38-.662-.473-1.074.162.158.393.294.724.352.554.098 1.115-.145 1.499-.511-.074.167-.113.346-.14.494m5.407-4.637c.063.173.14.343.242.512l-.411-.052.169-.46z" fill-rule="evenodd"/><path d="m22.877 12.04c-.014-.002-.029-.004-.044-.006l-.02-.002c-.025-.005-.052-.007-.078-.001-.017-.002-.036-.003-.054-.004-.031-.003-.063-.004-.094-.004-.015 0-.021 0-.035.0001-.025 0-.051.002-.074.004-.014 0-.028.0001-.043.003-.02.0001-.038.003-.059.006l-.016.002-.018.004-.023.002c-.001.002-.02.004-.027.006-.015.002-.027.005-.039.008-.08.017-.156.04-.224.066-.036.014-.069.029-.103.045-.026.012-.051.025-.076.039-.025.016-.047.029-.07.043-.012.001-.023.019-.037.026-.001.008-.021.017-.031.022-.021.018-.041.035-.061.051-.018.016-.036.033-.053.049-.014.014-.026.027-.041.044-.014.015-.026.029-.039.046-.014.018-.028.035-.041.053-.012.015-.02.028-.029.041-.006.001-.012.021-.018.03-.035.058-.066.119-.092.185-.031.082-.054.17-.066.263-.004.03-.008.06-.001.091 0 .023-.002.047-.002.071 0 .018 0 .036.002.054 0 .018.002.037.004.055l.002.012c.003.022.006.043.011.064 0 .008.003.016.004.024.004.017.009.034.013.052.006.021.012.042.02.063.009.026.017.052.027.076.017.039.035.076.054.111.011.021.022.041.034.061.001.015.02.029.031.043.012.021.025.039.039.057.016.017.029.035.043.052.019.021.036.039.055.058l.009.008c.014.015.03.029.048.045.012.011.025.021.039.033.013.001.027.02.041.03.018.013.035.024.054.037.021.013.041.025.063.038.046.025.095.049.148.071.021.008.041.015.063.022.021.008.042.014.065.021.039.011.08.022.123.028.033.008.069.014.106.018.038.004.075.008.114.001.02.0001.039.002.059.002h.027c.072 0 .138-.002.197-.008h.012c.025-.002.049-.005.07-.008.035-.004.068-.001.101-.016.021-.002.039-.006.058-.012.028-.005.057-.012.083-.019.019-.005.039-.011.058-.017.021-.007.041-.014.061-.021l.02-.007c.001-.004.022-.008.037-.014.021-.007.045-.018.073-.029.017-.008.035-.016.054-.023.017-.008.033-.018.051-.023.007-.004.015-.008.022-.013v-.432c-.005.003-.001.006-.016.009l-.029.018c-.03.019-.058.035-.087.052-.031.016-.063.032-.093.046-.054.025-.104.047-.154.064-.095.033-.183.057-.257.068-.001.002-.02.003-.027.004-.021.004-.041.006-.061.001-.03.002-.059.004-.084.006-.016 0-.032 0-.047 0-.029 0-.062 0-.094-.002-.037-.002-.076-.008-.115-.015-.061-.001-.125-.026-.187-.048-.009-.003-.018-.007-.026-.012-.006 0-.012-.004-.019-.006-.008-.004-.021-.001-.03-.014-.021-.001-.041-.02-.062-.033-.009-.005-.019-.011-.03-.018-.011-.006-.021-.014-.031-.02-.013-.001-.024-.018-.037-.027-.012-.001-.024-.02-.033-.028l-.014-.013-.009-.008-.003-.002-.006-.006c-.02-.02-.037-.039-.053-.06-.001-.001-.02-.021-.027-.032-.008-.011-.014-.021-.021-.031-.006-.011-.014-.021-.019-.03-.001-.017-.019-.031-.024-.046-.008-.014-.014-.027-.019-.039-.009-.022-.017-.045-.024-.065-.006-.016-.001-.032-.013-.047-.012-.046-.018-.087-.021-.122-.002-.014-.002-.025-.004-.038 0-.017 0-.032 0-.044 0-.008 0-.018 0-.027.002-.024.004-.057.009-.092.003-.021.008-.045.013-.068.003-.018.001-.033.014-.051.006-.016.001-.03.017-.047.005-.011.009-.021.013-.033.008-.014.014-.027.021-.043.006-.011.013-.022.019-.033.015-.025.03-.049.048-.073.008-.008.014-.017.021-.026.001-.011.018-.022.029-.033.004-.006.001-.012.016-.017.079-.079.168-.139.26-.181.016-.006.029-.012.045-.018.014-.007.028-.012.043-.017.016-.006.032-.001.049-.015.014-.004.029-.008.045-.012.017-.004.031-.007.045-.001.019-.003.035-.005.052-.007.016-.003.032-.004.049-.006.032-.003.063-.005.092-.005h.032c.021.002.044.002.064.004.016.0001.029.002.045.004.025.002.053.005.076.009.023.004.045.007.065.011.03.006.06.014.084.021.017.004.033.009.047.013.021.008.038.012.054.016.023.001.036.015.036.015.021.007.042.016.063.024.027.001.053.021.078.033.021.001.041.02.059.028.016.008.03.017.043.022.025.013.044.023.061.032l.045.024v-.426c0 0-.026-.001-.072-.027-.02-.008-.045-.018-.071-.027-.015-.005-.03-.011-.048-.016-.014-.005-.027-.001-.041-.016-.018-.004-.033-.011-.052-.015-.013-.004-.025-.008-.038-.012l-.012-.003c-.012-.003-.024-.008-.039-.012-.014-.004-.03-.008-.045-.012-.012-.003-.021-.004-.031-.007-.018-.004-.034-.008-.053-.011-.014 0-.034-.003-.052-.007m-2.123-.441h3.371v3.173h-3.371v-3.173z"/><path d="m17.754 12.04v2.285h.86c0 0 .42.013.65-.219.189-.188.177-.406.177-.406 0 0 .013-.229-.162-.403-.149-.149-.338-.188-.338-.188 0 0 .085-.039.151-.105.029-.031.141-.131.141-.372 0-.242-.162-.382-.162-.382 0 0-.178-.209-.576-.209h-.741m-.885-.446h3.372v3.173h-3.372v-3.173z"/><path d="m13.868 12.04v2.285h.86c0 0 .42.013.652-.219.188-.188.174-.406.174-.406 0 0 .014-.229-.16-.403-.149-.149-.339-.188-.339-.188 0 0 .086-.039.152-.105.031-.031.14-.131.14-.372 0-.242-.16-.382-.16-.382 0 0-.178-.209-.577-.209h-.742m-.884-.446h3.371v3.173h-3.371v-3.173z"/><g fill="#ffe512"><g fill-rule="evenodd"><path d="m33.09 14.17c.32-.343.61-1.074.203-1.453-.267-.25-.527-.336-.785-.576-.215-.198-.215-.479-.051-.654.156-.167.465-.359.669-.169.279.26.302.741.573.996.199.185.479.014.627-.146.455-.487.415-1.057-.063-1.501-.791-.738-2.049-.779-2.808.036-.319.343-.606 1.078-.203 1.453.273.255.662.329.847.646.151.258.121.396-.006.59-.129.195-.47.354-.674.164-.273-.256-.295-.736-.572-.996-.199-.186-.479-.014-.629.146-.455.488-.408 1.062.063 1.502.8.743 2.051.777 2.809-.038"/><path d="m27.374 4.802c-.215.647-.039 1.041.311 1.176.42.163 1.1-.797.902-1.111-.196-.314-.997-.712-1.213-.065"/><path d="m30.19 7.125c-1.129-.22-2.29.267-2.55 1.614-.213 1.079.322 2.316 1.877 2.618.677.132.742-.158.876-.399.133-.242.146-.723-.124-.766-.27-.042-.543.042-.829-.014-.437-.086-.897-1.021-.413-.928.273.053.764.346 1.372.465.421.082.789-.535.842-.808.219-1.133-.527-1.671-1.051-1.782"/><path d="m18.797 3c-1.234-.044-2.384.668-2.436 2.14-.041 1.178.732 2.401 2.432 2.46.74.026.762-.291.861-.57.102-.279.031-.791-.26-.791-.293 0-.568.134-.881.123-.479-.016-1.124-.931-.594-.913.297.011.868.239 1.533.261.459.017.746-.699.758-.997.044-1.239-.839-1.683-1.413-1.713"/><path d="m4.247 9.986c.899.157 2.142-1.104 1.019-2.01-1.122-.903-2.341-1.687-3.283-.767-.944.92-2.709 3.263-.118 6.083 2.59 2.822 4.452.768 5 .264.553-.503 1.643-1.951.927-2.711-.716-.76-1.233-1.226-1.573-.747-.34.478-.108 1.894-.784 2.127-.676.235-1.297.015-1.883-.704-.586-.718-.935-2.346-.375-2.486.559-.142.164.791 1.065.95"/><path d="m12.393 3.11c-.917.826-1.25 2.137-.265 3.231.789.876 2.195 1.218 3.457.082.551-.496.346-.74.225-1.01-.122-.27-.526-.591-.736-.388-.21.203-.316.491-.548.701-.356.32-1.456.109-1.063-.244.222-.199.792-.432 1.286-.878.341-.307.05-1.021-.149-1.243-.83-.922-1.774-.628-2.207-.251"/><path d="m26.303 6.884c.789-.685 1.338-.488 1.193.347-.145.833-.877 1.825-1.52 1.764-.48-.047-1.092-.351-.48-1.207.258-.36.393-.542.807-.904"/></g><path d="m20.529 5.655c.063-.232.306-.625.306-.625.344-.522.576-.788.648-1.102.08-.348.064-.502.064-.502.013-.237.02-.524.043-.713.029-.312.154-.812.154-.812.133-.56.348-.818.348-.818.193-.324.494-.52.904-.52.606 0 1.077.477 1.077 1.066.007.155-.026.336-.141.546-.319.576-.421.687-.437.713-.488.78-.467.713-.606 1.148-.06.164-.099.306-.067.447.055.239.253.333.406.342.061.003.141-.007.23-.027.03-.007.063-.014.097-.018.532-.121 1.463.009 1.683.824.02.07.047.172.064.301l.004.077c.043.294.025.8-.188 1.384-.041.094-.346.742-.6.979l-.016.016c0 0-.082.097-.201.199-.131.11-.318.249-.557.354-1.218.552-2.799.108-3.195-1.132-.449-1.139-.02-2.127-.02-2.127"/><path d="m7.803 4.279c-.996.507-2.438 1.435-1.3 4.198 1.138 2.764 3.712 2.399 4.861 1.848 1.101-.528 2.097-1.49 1.467-2.656-.6-1.107-2.142-.441-2.495-1.335-.154-.392.648-1.458.277-1.961-.373-.503-1.813-.602-2.81-.094" fill-rule="evenodd"/></g><g fill="#4e2f91" fill-rule="evenodd"><path d="m29.3 7.928c-.176.266-.135.805.225.85.359.047 1.025-.328.76-.742-.254-.394-.716-.511-.985-.108"/><path d="m18.11 4.434c-.105.321.354.648.699.636.346-.011.758-.147.721-.596-.06-.755-1.253-.539-1.42-.04"/><path d="m12.515 4.667c.137.314.737.189 1.01-.089.272-.278.513-.7.172-.994-.575-.496-1.391.593-1.181 1.083"/><path d="m24.04 7.199c-.328.341-1.06.71-1.538.25-.48-.457-.535-1.516-.029-1.627.505-.113 2.544.358 1.567 1.377"/><path d="m8.886 6.728c.421-.484.324-1.484-.197-1.621-.746-.193-1.305.861-1.099 1.205.206.343.876.898 1.296.416"/><path d="m10.801 8.625c-.15.417-.636 1.01-1.222.802-.586-.209-1.037-1.095-.646-1.385.391-.29 2.318-.664 1.868.583"/></g><path d="m18.16 13.346v.623h.404c0 0 .008 0 .021-.002.015 0 .033 0 .058-.002.043-.005.101-.013.157-.031.051-.019.101-.043.139-.082.014-.014.025-.028.036-.043.032-.052.04-.102.041-.131 0-.013 0-.02 0-.02v-.016c0-.013-.002-.035-.008-.06-.008-.03-.022-.065-.047-.096-.006-.007-.012-.013-.017-.019-.011-.011-.022-.021-.036-.031-.021-.017-.048-.03-.074-.041-.037-.017-.078-.027-.123-.036-.022-.005-.047-.009-.071-.011-.017 0-.031-.002-.048-.004h-.043c-.142.002-.39.002-.39.002"/><path d="m18.16 12.397v.59h.196.03c.014 0 .031 0 .043-.002.041-.002.097-.008.152-.023.012-.004.022-.006.033-.001.044-.017.086-.039.118-.071.026-.025.043-.054.056-.081.012-.034.018-.066.02-.089.002-.021.002-.034.002-.034 0 0 0-.009 0-.023-.002-.027-.008-.068-.027-.108-.001-.021-.023-.038-.042-.056-.022-.022-.049-.039-.077-.052-.055-.024-.119-.034-.172-.038-.021-.002-.044-.002-.063-.002h-.269"/><path d="m14.278 13.346v.623h.405c0 0 .008 0 .021-.002.014 0 .032 0 .057-.002.044-.005.101-.013.158-.031.05-.019.099-.043.136-.082.016-.014.028-.028.037-.043.032-.052.041-.102.043-.131v-.02-.016c0-.013 0-.035-.008-.06-.008-.03-.022-.065-.048-.096-.004-.007-.0001-.013-.015-.019-.011-.011-.023-.021-.036-.031-.023-.017-.048-.03-.075-.041-.037-.017-.078-.027-.123-.036-.022-.005-.046-.009-.071-.011-.016 0-.031-.002-.047-.004h-.043c-.143.002-.391.002-.391.002"/><path d="m14.278 12.397v.59h.196.03c.013 0 .031 0 .044-.002.041-.002.096-.008.152-.023.011-.004.022-.006.033-.001.043-.017.086-.039.118-.071.026-.025.044-.054.054-.081.015-.034.02-.066.021-.089.002-.021.002-.034.002-.034 0 0 0-.009 0-.023-.002-.027-.007-.068-.027-.108-.011-.021-.024-.038-.042-.056-.022-.022-.049-.039-.077-.052-.055-.024-.119-.034-.172-.038-.023-.002-.044-.002-.062-.002h-.27"/></g><g transform="matrix(.60339 0 0 .60339 623.33-330.32)"><g fill="#ffe512"><path d="m585.22 632.68l30.425-28.09-.19 212.17-30.23-31.997v-60.18h-119.32v92.42l-30.378-31.949v-152.27l30.378-28.19v91.8h119.32v-63.708"/><path d="m615.46 816.66l30.425-27.09h38.663c15.189 0 26.997-1 35.425-2.952 8.475-2.143 15.427-4.761 21.05-7.904 5.666-3.285 10.761-7.285 15.475-11.904 14.998-15.189 22.474-34.425 22.474-57.661 0-22.807-7.713-41.38-23.09-55.708-5.666-5.38-12.189-9.856-19.617-13.284-7.285-3.476-14.237-5.714-20.855-6.809-6.523-1.095-17.09-1.666-31.759-1.666h-37.948l-30.14-27.09h71.33c28.854 0 51.756 4.38 68.52 13.05 16.855 8.666 30.23 21.379 40.19 38.23 9.856 16.808 14.903 35.14 14.903 55.04 0 14.14-2.809 27.711-8.237 40.71-5.523 12.951-13.332 24.378-23.426 34.23-10.285 10.142-22.331 17.76-35.996 22.902-7.999 3.143-15.427 5.285-22.05 6.38-6.666 1.048-19.474 1.524-38.38 1.524h-66.945 66.945c18.903 0 31.711-.476 38.38-1.524 6.618-1.095 14.05-3.238 22.05-6.38 13.665-5.142 25.712-12.761 35.996-22.902 10.09-9.856 17.903-21.284 23.426-34.23 5.428-12.999 8.237-26.569 8.237-40.71 0-19.903-5.05-38.23-14.903-55.04-9.951-16.855-23.331-29.568-40.19-38.23-16.76-8.666-39.663-13.05-68.52-13.05h-71.33l30.14 27.09h37.948c14.665 0 25.24.571 31.759 1.666 6.618 1.095 13.57 3.333 20.855 6.809 7.428 3.428 13.951 7.904 19.617 13.284 15.379 14.332 23.09 32.901 23.09 55.708 0 23.24-7.475 42.472-22.474 57.661-4.714 4.619-9.808 8.618-15.475 11.904-5.618 3.143-12.57 5.761-21.05 7.904-8.428 1.952-20.236 2.952-35.425 2.952h-38.663l-30.425 27.09"/><path d="m615.46 816.66l30.425-27.09h38.663c15.189 0 26.997-1 35.425-2.952 8.475-2.143 15.427-4.761 21.05-7.904 5.666-3.285 10.761-7.285 15.475-11.904 14.998-15.189 22.474-34.425 22.474-57.661 0-22.807-7.713-41.38-23.09-55.708-5.666-5.38-12.189-9.856-19.617-13.284-7.285-3.476-14.237-5.714-20.855-6.809-6.523-1.095-17.09-1.666-31.759-1.666h-37.948l-30.14-27.09h71.33c28.854 0 51.756 4.38 68.52 13.05 16.855 8.666 30.23 21.379 40.19 38.23 9.856 16.808 14.903 35.14 14.903 55.04 0 14.14-2.809 27.711-8.237 40.71-5.523 12.951-13.332 24.378-23.426 34.23-10.285 10.142-22.331 17.76-35.996 22.902-7.999 3.143-15.427 5.285-22.05 6.38-6.666 1.048-19.474 1.524-38.38 1.524h-66.945"/></g><g fill="#4e2f91"><path d="m645.88 631.87l-30.378-27.28v212.07l30.378-27.09v-64.993-28.19-64.52"/><path d="m465.85 724.57l-.095 92.28 30.425-27.378-.095-64.898h-30.23"/><path d="m496.9 696.38l-.571-63.61-30.425-28.19v91.8h30.997"/></g></g></svg>