<svg xmlns="http://www.w3.org/2000/svg" viewBox="0 0 600 123.2"><g transform="translate(6.712 1834.53)"><g fill="#f14f1b"><path d="m39.01-1787.6c-.871-1.403-1.961-2.629-3.272-3.694-1.31-1.057-2.79-1.885-4.447-2.477-1.648-.592-3.381-.888-5.19-.888-3.297 0-6.103.642-8.411 1.919-2.308 1.276-4.176 2.992-5.613 5.14-1.437 2.156-2.477 4.599-3.128 7.338-.659 2.747-.989 5.579-.989 8.513 0 2.806.33 5.537.989 8.183.651 2.646 1.691 5.04 3.128 7.152 1.437 2.122 3.305 3.821 5.613 5.097 2.308 1.276 5.114 1.919 8.411 1.919 4.489 0 7.997-1.37 10.524-4.117 2.528-2.739 4.066-6.357 4.632-10.846h14.21c-.372 4.176-1.344 7.946-2.9 11.311-1.555 3.373-3.618 6.239-6.171 8.606-2.561 2.367-5.554 4.176-8.977 5.427-3.432 1.243-7.202 1.868-11.319 1.868-5.106 0-9.704-.888-13.787-2.663-4.083-1.784-7.532-4.227-10.33-7.346-2.807-3.111-4.962-6.78-6.458-10.981-1.496-4.21-2.24-8.749-2.24-13.61 0-4.987.744-9.611 2.24-13.889 1.496-4.269 3.652-7.988 6.458-11.175 2.798-3.178 6.247-5.672 10.33-7.481 4.083-1.801 8.682-2.705 13.787-2.705 3.686 0 7.16.524 10.431 1.589 3.272 1.057 6.205 2.604 8.791 4.624 2.587 2.029 4.717 4.54 6.408 7.532 1.682 2.993 2.739 6.416 3.178 10.288h-14.219c-.245-1.691-.812-3.229-1.682-4.632"/><path d="m92.68-1805.4c3.178 0 6.078.279 8.698.837 2.621.566 4.861 1.488 6.729 2.764 1.868 1.276 3.322 2.976 4.353 5.097 1.023 2.113 1.538 4.734 1.538 7.853 0 3.364-.761 6.171-2.291 8.411-1.53 2.249-3.787 4.091-6.78 5.52 4.117 1.183 7.185 3.263 9.214 6.222 2.02 2.959 3.035 6.526 3.035 10.702 0 3.373-.651 6.289-1.961 8.749-1.31 2.46-3.069 4.472-5.283 6.03-2.215 1.564-4.742 2.714-7.574 3.457-2.84.752-5.748 1.124-8.741 1.124h-32.359v-66.765h31.421m-1.869 27.03c2.612 0 4.768-.626 6.45-1.868 1.682-1.251 2.528-3.271 2.528-6.078 0-1.564-.279-2.84-.845-3.838-.558-.997-1.31-1.775-2.24-2.342-.938-.558-2.01-.947-3.229-1.167s-2.477-.33-3.787-.33h-13.745v15.622h14.869m.837 28.336c1.437 0 2.806-.144 4.117-.423 1.31-.279 2.46-.752 3.457-1.403s1.792-1.547 2.384-2.663c.592-1.124.888-2.561.888-4.303 0-3.432-.964-5.875-2.891-7.338-1.936-1.471-4.489-2.198-7.667-2.198h-15.994v18.327h15.706"/><path d="m137.62-1755.1c.812 1.564 1.885 2.823 3.229 3.787 1.336.972 2.908 1.682 4.717 2.156 1.809.465 3.677.693 5.613.693 1.31 0 2.714-.101 4.21-.321 1.496-.22 2.899-.642 4.201-1.268 1.31-.617 2.401-1.479 3.28-2.57.871-1.09 1.31-2.477 1.31-4.159 0-1.809-.583-3.272-1.733-4.396-1.158-1.124-2.663-2.054-4.54-2.806-1.868-.744-3.99-1.403-6.357-1.961-2.367-.566-4.768-1.183-7.202-1.868-2.494-.626-4.92-1.386-7.287-2.291-2.375-.905-4.489-2.071-6.365-3.508-1.868-1.437-3.381-3.229-4.531-5.376-1.158-2.156-1.733-4.751-1.733-7.811 0-3.424.735-6.408 2.198-8.927 1.462-2.528 3.381-4.632 5.748-6.315 2.375-1.682 5.06-2.933 8.05-3.745 2.993-.803 5.985-1.209 8.977-1.209 3.491 0 6.839.389 10.05 1.167 3.212.778 6.06 2.046 8.555 3.787 2.494 1.75 4.472 3.973 5.943 6.687 1.462 2.714 2.189 6 2.189 9.865h-14.21c-.127-1.995-.549-3.652-1.26-4.954-.719-1.31-1.674-2.342-2.857-3.085-1.184-.752-2.536-1.276-4.066-1.589-1.53-.313-3.195-.473-5-.473-1.184 0-2.367.127-3.55.38-1.184.245-2.257.685-3.229 1.302-.964.626-1.758 1.403-2.384 2.342-.626.938-.93 2.122-.93 3.55 0 1.31.245 2.375.744 3.178.499.812 1.479 1.564 2.95 2.249 1.462.685 3.483 1.37 6.078 2.054 2.587.685 5.968 1.564 10.144 2.62 1.243.254 2.976.702 5.19 1.353 2.215.659 4.404 1.699 6.594 3.136 2.181 1.437 4.066 3.348 5.655 5.748 1.589 2.401 2.384 5.469 2.384 9.214 0 3.052-.592 5.892-1.775 8.513-1.184 2.612-2.95 4.878-5.283 6.78-2.342 1.902-5.241 3.381-8.698 4.438-3.457 1.057-7.464 1.589-12.01 1.589-3.686 0-7.253-.457-10.71-1.353-3.457-.905-6.518-2.325-9.163-4.261-2.654-1.927-4.759-4.396-6.315-7.388-1.555-2.993-2.308-6.543-2.24-10.66h14.21c0 2.249.406 4.151 1.217 5.706"/><path d="m216.37-1805.1c-18.564 0-33.611 15.06-33.611 33.619 0 18.564 15.05 33.611 33.611 33.611 18.572 0 33.627-15.05 33.627-33.611 0-18.555-15.06-33.619-33.627-33.619m0 53.38c-13.796-.068-25.02-9.13-30.965-19.984 6.02-10.812 17.279-19.586 30.965-19.586 13.94 0 25.1 8.715 30.982 19.586-5.884 10.854-16.932 20.04-30.982 19.984"/><path d="m216.37-1753.6c9.848 0 17.82-7.997 17.82-17.828 0-9.831-7.971-17.82-17.82-17.82-9.831 0-17.82 7.988-17.82 17.82 0 9.831 7.988 17.828 17.82 17.828"/></g><g fill="#f9b00b"><path d="m328.9-1806.9c18.91 0 32.27 12.562 32.27 36.06 0 1.606.11 2.468 0 3.973h-46.16c1.708 7.836 7.904 11.59 15.385 11.59 6.517 0 10.795-4.607 14.219-9.121 0 0 11.86 6.872 15.495 9.121-5.774 10.313-16.89 17.18-30.66 17.18-20.22 0-34.11-12.342-34.11-34.456 0-19.967 14.227-34.35 33.568-34.35m-13.153 26.08h24.904c-2.35-6.332-5.774-9.333-11.97-9.333-6.72 0-10.474 3.221-12.934 9.333"/><path d="m396.03-1806.9c8.01 0 13.04 2.68 18.919 8.05v-6.763h19.671v65.911h-19.975v-6.441s-7.168 8.05-19.663 8.05c-18.293 0-30.796-13.1-30.796-34.24 0-18.361 13.576-34.566 31.844-34.566m-11.64 34.24c0 9.13 5.765 16.645 14.962 16.645 8.868 0 16.239-6.551 16.239-16.1 0-9.662-6.83-16.315-15.605-16.315-9.502 0-15.596 7.084-15.596 15.774"/><path d="m440.5-1822h19.882v82.23h-19.882v-82.23"/><path d="m477.38-1834.5c6.619 0 12.07 5.275 12.07 11.919 0 6.771-5.452 12.232-12.291 12.232-6.517 0-11.767-5.25-11.767-12.02 0-6.653 5.359-12.13 11.987-12.13m-10.05 28.885h19.874v65.911h-19.874v-65.911z"/><path d="m497.37-1739.7v-47.762h-6.526v-18.15h6.526v-16.315h19.984v16.315h10.567v18.251h-10.567v47.66h-19.984"/><path d="m573.84-1805.9v38.33c0 6.653-3.956 10.846-11.11 10.846-6.737 0-11.226-4.193-11.226-11.378v-37.795h-19.882v38.33c0 18.242 12.08 29.19 30.889 29.19 4.413 0 8.42-.566 12-1.648l-.008.642c0 7.194-6.05 10.406-12.612 10.406-4.649 0-7.287-.854-9.907-5.368h-21.11c2.02 14.81 15.351 22.985 30.61 22.985 17.363 0 31.802-10.634 31.802-31.03v-63.5h-19.451z"/><path d="m276.02-1770.1v30.381h-20.19v-65.919h19.434v10.415c1.615-4.937 7.735-11.7 15.673-11.7h4.506v20.609s-2.46-1.285-6.974-1.285c-7.726 0-12.452 4.726-12.452 17.498"/></g></g></svg>