<svg xmlns="http://www.w3.org/2000/svg" height="137.92" width="600" viewBox="0 0 562.51105 129.30296"><g stroke-width=".938"><g fill-rule="evenodd"><path d="m66.11 4.117h17.379c3.68 0 6.665 3.188 6.665 6.769v1.734c0 3.479-2.985 6.46-6.665 6.46h-15.15c-22.694 0-45 12.76-44.24 36.901.59 22.594 22.303 35.926 44.24 35.926h15.15c3.68 0 6.665 2.887 6.665 6.356v1.847c0 3.29-3.578 6.56-7.05 6.77h-16.214c-23.758.28-49.25-11.411-59.21-33.433-7.913-17.466-3.478-38.13 11.981-52.24 12.938-11.878 29.458-17.09 46.45-17.09"/><path d="m68.906 25.746h14.578c3.68 0 6.665 3.01 6.665 6.769v1.837c0 3.76-2.985 6.957-6.665 6.957h-15.253c-5.03.281-9.854 1.143-13.8 4.434-6.379 5.4-6.952 14.757-.88 20.672 3.763 3.554 9.753 5.597 14.782 5.597h15.15c3.68 0 6.665 3.272 6.665 7.03v1.847c0 3.862-2.985 6.947-6.665 6.947h-15.15c-10.917 0-23.368-3.947-30.708-12.16-9.568-10.819-11.405-26.954 2.31-40.28 10.917-10.604 28.971-9.647 28.971-9.647"/><path d="m153.88 4.01h17.4c3.66 0 6.66 3.188 6.66 6.769v1.734c0 3.582-3 6.375-6.66 6.375h-15.17c-22.7 0-45 12.844-44.23 36.995.57 22.688 22.31 35.916 44.23 35.916h15.17c3.66 0 6.66 2.888 6.66 6.46v1.659c0 3.478-3.58 6.648-7.05 6.858h-16.24c-23.75.28-49.25-11.395-59.19-33.521-7.912-17.475-3.476-38.04 11.985-52.24 12.94-11.794 29.34-17.01 46.43-17.01m2.8 20.279h14.6c3.66 0 6.66 3.093 6.66 6.872v1.818c0 3.788-3 6.872-6.66 6.872-5.14 0-10.14.085-15.28 0-5.01.385-9.83 1.144-13.69 4.538-6.49 5.4-7.06 14.757-.99 20.654 3.79 3.572 9.78 5.597 14.79 5.597h15.17c3.66 0 6.66 3.187 6.66 7.05v1.847c0 3.862-3 6.947-6.66 6.947h-15.17c-10.92 0-23.37-3.966-30.71-12.263-9.55-10.819-11.39-26.954 2.31-40.18 10.92-10.604 28.97-9.75 28.97-9.75" fill="#e43929"/><path d="m268.51 24.19c6.39 0 9.87 3.01 12.07 7.651l20 48.08s5.11 12.844 11.87 12.45c6.85-.468 10.53-9.647 10.53-9.647l30.43-69.25c1.83-4.256 3.65-9.08 9.46-9.469l11.57-.188-39.58 84.69c-.78 1.745-6.37 15.458-18.82 17.298-11.31 1.73-20.86-4.54-25.32-14.01l-22.49-47.701s-2.33-4.247-7.44-4.068h-7.34c-2.52.29-3.76 1.659-3.95 4.153v55.632c0 3.951-3.78 7.131-7.83 7.131h-2.3c-4.07 0-7.45-3.18-7.45-7.131v-68.27c0-4.538 2.7-7.36 7.45-7.36h29.14m-79.38.497c-3.56 0-6.57 3.188-6.57 6.76v2.212c0 3.582 3.01 6.479 6.57 6.479h15.17c2.51.187 3.76 1.556 3.96 4.153v55.53c0 3.951 3.66 7.131 7.81 7.131h2.23c4.15 0 7.44-3.18 7.44-7.131v-67.792c0-4.547-2.72-7.341-7.44-7.341h-29.17zm82.37-20.672h-82.37c-3.56 0-6.57 3.188-6.57 6.769v1.734c0 3.582 3.01 6.375 6.57 6.375h82.19c7.44.188 11.59 2.991 14.96 11.11l20 47.898c1.17 3.272 3.09 7.913 5.88 8.41 2.91.468 4.83-4.847 6.47-6.666 1.55-1.847 8.89-19.51 8.89-19.51l23.86-56.31-10.34.188c-6.96.487-8.88 7.153-8.88 7.153l-17.01 42.77c-.08.966-1.24 3.01-2.59 2.803-1.46-.103-2.13-2.803-2.13-2.803l-12.37-36.1c-5.29-15.272-24.62-13.716-26.56-13.819"/></g><path d="m2.332 120.3h336.81s31.81 0 42.18-39.41c0 0 2.32-30.367 3.45-35.964 2.09-10.369 11.06-40.1 43.57-42.882 28.38-2.409 62.23-2.756 81.59-.694 19.37 2.091 53.26 17.991 52.57 56.72-.69 38.72-13.63 62.68-48.41 69.14 0 0-11.76 2.09-20.73 2.09h-491.7c-.003 0-4.147-8.3.672-9"/><path d="m451.08 73.71l24.36-27.338.38 27.338h-24.74m48.37-.365v-57.24h-22.9l-48 55.41v23.982h46.89v17.352h23.64v-17.718h11.82v-21.778h-11.45" fill="#fff"/></g></svg>