<?xml version="1.0" encoding="UTF-8" standalone="no"?>
<svg xmlns:rdf="http://www.w3.org/1999/02/22-rdf-syntax-ns#" xmlns="http://www.w3.org/2000/svg" height="140.09" viewBox="0 0 600 140.09046" width="600" version="1.1" xmlns:cc="http://creativecommons.org/ns#" xmlns:dc="http://purl.org/dc/elements/1.1/">
 <path d="m600 74.587c0 36.183-23.19 65.503-62.08 65.503h-108.24c-2.25 0-4.63-0.12-6.98-0.33h-415.93c-3.7324 0-6.77-3.04-6.77-6.77 0-3.67 3.0376-6.7 6.7669-6.7h310.43c8.82-0.3 19.49-1.54 24.34-5.12 9.05-6.55 12.93-11 15.15-19.03 2.2-8.095 7.91-44.305 7.91-44.305 3.31-32.511 27.22-57.835 65.09-57.835h108.24c38.34 0 62.07 29.353 62.07 65.564v9.022z"/>
 <g fill="#fff">
  <path d="m381.86 96.617v-53.143h10.79l16.76 27.759v-27.759h12.72v53.143h-10.83l-16.6-27.91v27.91h-12.84z"/>
  <path d="m434.47 43.737v52.872h38.25v-11.94l-25.35-0.151v-8.24l23.01-0.09v-12h-22.95v-8.301h24.69l0.03-12.15h-37.68z"/>
  <path d="m483.19 43.737 8.54 52.872h13.8l5.51-31.519 5.65 31.519h13.9l8.21-52.872h-12.31l-3.78 33.173-4.91-33.173h-13.2l-5.14 32.962-3.79-32.962h-12.48z"/>
  <path d="m545.72 80.577s0.27 6.015 2.58 9.834c1.45 2.166 2.68 4.211 5.9 5.745 3.09 1.443 6.04 2.376 11.37 2.195 5.2-0.18 10.1-1.082 13.44-4.301 4.24-4.12 5.29-6.646 5.95-11.187 0.67-4.903 0.18-10.075-2.22-12.692-2.56-2.617-5.84-4.692-11.04-6.166-5.26-1.473-9.35-2.797-10.41-3.94-1.14-1.172-1.56-2.706-0.99-4.03 0.6-1.383 2.56-3.368 5.08-3.007 2.59 0.361 5.09 1.173 5.6 2.586 0.45 1.384 0.57 2.166 0.57 2.166l12.81-0.782s-0.24-3.519-1.62-7.369c-1.21-2.797-3.13-5.112-6.65-6.586-2.47-1.143-8.24-1.744-11.94-1.594-3.76 0.241-5.92 0.361-8.42 1.865-2.56 1.443-4.96 4.27-5.92 6.105-1.33 2.737-1.99 5.744-2.2 7.519-0.24 2.947 0.42 6.947 1.2 8.812 1.27 2.706 2.95 4.511 4.97 5.563 3.24 1.835 5.2 2.497 8.36 3.309 3.15 0.842 7.67 2.195 8.48 2.706 0.78 0.602 1.65 1.534 1.77 2.437 0.15 1.744 0.39 2.225-0.75 4.06-0.81 1.173-1.59 2.165-4.42 2.255-2.77 0.03-4.06 0-5.38-0.902-1.21-0.842-2.32-2.015-2.86-3.098-0.6-0.872-0.45-1.654-0.45-1.654l-12.81 0.151z"/>
 </g>
 <g>
  <path d="m54.972 72.397c5.895 2.075 16.722 2.406 23.008 2.135 6.165-0.15 7.729 3.699 8.09 6.857 0.481 3.278-1.233 6.466-3.429 7.579-2.105 1.053-10.767 0.842-10.767 0.842s-44.51 3.85-44.51-30.496c0-31.849 37.414-30.976 44.059-31.217 1.955-0.03 5.384 0.24 8.873 0.24 3.368 0 6.045 4.752 6.045 6.887 0 2.136-1.354 6.226-3.7 7.519-2.345 1.293-7.969 0.632-7.969 0.632-12.812-0.211-19.338 2.406-19.338 2.406-16.511 8.782-7.97 24.09-0.361 26.617"/>
  <path d="m42.01 9.5963c13.534-3.2481 37.744-2.2256 37.744-2.2256s6.586-0.0301 6.586 6.5563c0 6.647-6.045 7.729-6.045 7.729s-4.962-0.391-15.699-0.21c-10.737 0.21-19.098 3.218-19.098 3.218-18.736 7.308-24.33 20.481-24.33 33.293 0 12.931 6.075 21.112 17.413 29.202 11.579 8.451 39.789 7.429 39.789 7.429s7.97-0.511 7.97 6.432c0 6.83-7.579 7.73-7.579 7.73-29.895 1.51-45.293-5.83-45.293-5.83s-31.879-12.061-31.879-44.963c-0.0003-29.203 26.286-44.902 40.42-48.361"/>
  <path d="m184.75 27.457h28.54c5.74 0 6.83 2.978 6.83 10.075v63.248c0 4.54-4.39 8.15-8.91 8.15-4.51 0-8.18-3.61-8.18-8.15v-54.827c0-3.007-3.21-3.429-3.21-3.429h-15.07c-3.97 0-7.19-3.218-7.19-7.217 0-3.97 3.22-7.85 7.19-7.85"/>
  <path d="m184.75 7.2203h83.28s4.63-0.1504 7.57 0.5714c3.01 0.6917 6.74 1.7744 9.54 3.9093 4.12 3.098 4.96 4.903 5.89 7.249 0.82 2.375 10.5 31.157 11.76 35.097 1.39 3.91 1.75 4.933 3.55 5.023 1.9 0.09 2.38-3.278 2.38-3.278s14.82-37.113 15.88-40.12c1.05-3.068 3.06-5.504 4.54-6.9774 1.41-1.4436 4.54-1.8045 5.8-1.8947 1.33-0.1203 8.93 0 8.93 0s-20.03 47.429-24.69 58.526c-4.63 11.067-6.64 15.367-9.8 19.969-3.1 4.572-3.91 3.128-5.14 2.436-1.06-0.631-3.55-5.052-3.55-5.052s-20.36-49.654-21.69-52.451c-1.08-2.767-2.79-4.511-5.17-6.676-2.02-1.715-7.52-2.015-9.68-2.015h-79.4c-4.03 0-7.19-3.248-7.19-7.158 0-3.97 3.16-7.1581 7.19-7.1581"/>
  <path d="m351.97 7.9723c1.38-0.7218 4.15-1.2932 5.62-1.1729 1.47 0.0902 9.32 0 9.32 0s-34.1 73.414-38.19 81.805c-4.06 8.331-6.86 11.756-11.01 15.336-4.3 3.61-8.81 4.03-13.26 3.97-4.54-0.12-7.46-1.62-12.3-4.69-4.87-3.1-7.94-10.105-7.94-10.105s-20.75-44.03-22.26-47.038c-1.44-3.067-6.04-3.579-6.67-3.549h-8.7c-1.11 0-3.21 1.294-3.21 3.429v54.823c0 4.55-3.58 8.15-8.12 8.15-4.52 0-8.91-3.6-8.91-8.15v-63.244c0-7.098 0.76-10.617 6.5-10.617h28.48c0.24 0 0.39 0.03 0.63 0.06 0.12-0.03 0.27-0.06 0.39-0.06 3.13 0 5.39 0.812 8.3 2.857 2.98 1.985 5.24 8.632 5.24 8.632s16.15 39.098 18.19 43.82c2.2 4.781 4.03 7.789 7.4 10.676 3.28 2.797 6.68 1.444 9.26-0.18 2.53-1.714 3.97-4.722 5.15-7.098 1.05-2.315 29.83-67.698 31.15-70.676 1.24-3.038 3.61-6.2558 4.94-6.9776"/>
 </g>
 <path d="m166.83 21.647s5.89-1.083 5.89-7.699c0-6.6164-6.55-6.5864-6.55-6.5864s-24.18-1.0226-37.75 2.2556c-14.22 3.4288-40.358 19.128-40.358 48.361 0 32.872 31.818 44.962 31.818 44.962s15.49 7.31 45.38 5.8c0 0 7.46-0.9 7.46-7.7 0-6.972-7.91-6.461-7.91-6.461s-28.21 1.022-39.82-7.399c-11.33-8.12-17.41-16.271-17.41-29.203 0-12.841 5.59-25.984 24.33-33.292 0 0 8.45-3.038 19.13-3.248 10.74-0.181 15.79 0.21 15.79 0.21" fill="#ee3124"/>
 <path d="m161.11 43.387s5.71 0.632 8.06-0.632c2.25-1.293 3.55-5.413 3.55-7.518 0-2.136-2.56-6.887-5.9-6.887-3.58 0-7.03-0.301-8.87-0.241-6.74 0.241-44.09-0.632-44.09 31.188 0 34.346 44.48 30.526 44.48 30.526s8.69 0.21 10.83-0.843c2.04-1.112 3.79-4.3 3.31-7.578-0.36-3.188-1.87-7.038-8.09-6.858-6.23 0.241-17.09-0.06-23.04-2.165-7.46-2.526-16.09-17.805 0.45-26.617 0 0 6.44-2.616 19.31-2.376" fill="#ee3124"/>
</svg>
