<svg xmlns="http://www.w3.org/2000/svg" viewBox="0 0 1000 220.85"><g transform="translate(131.66 353.98)" fill="#f6710a"><path d="m-73.16-188.6h44.693v-24.309h-44.39c-16.599 0-32.821-13.282-32.821-33.01 0-17.914 14.182-34.539 33.406-34.539 18.17 0 36.38 13.438 42.749 24.21v-32.557c-6.147-7.432-24.513-16.1-43.22-16.1-34.03 0-58.41 29.23-58.41 58.51 0 30.937 25.653 57.791 57.999 57.791"/><path d="m11.694-188.6h-25.366v-164.88h25.366v54.96h19.553c32.565 0 56.02 24.26 56.02 57.07v52.846h-24.838v-51.789c0-17.514-10.766-33.822-32.765-33.822h-17.968z"/><path d="m159.6-303.86c-36.36 0-59.19 28.992-59.19 59.716 0 30.458 24.483 56.61 61.37 56.61h54.43v-59.19c0-26.25-19.502-57.14-56.61-57.14m.165 24.342c17.273 0 31.08 15.16 31.08 32.798v34.878h-31.18c-20.447 0-33.855-15.585-33.855-33.23 0-16.854 12.67-34.449 33.954-34.449"/><path d="m533.81-188.6h-25.366v-109.92h44.42c32.565 0 56.02 24.26 56.02 57.07v52.846h-24.838v-51.789c0-17.514-10.766-33.822-32.765-33.822h-17.467z"/><path d="m299.18-212.91v24.309h-10.569c-35.68 0-58.13-25.22-58.13-53.4v-111.48h24.309v107.81c0 17.526 11.789 32.765 32.765 32.765z"/><path d="m375.61-212.91v24.309h-10.569c-35.68 0-58.13-25.22-58.13-53.4v-111.48h24.309v107.81c0 17.526 11.789 32.765 32.765 32.765z"/><path d="m436.68-304.85c-30.907 0-57.635 26.683-57.635 59.42 0 31.531 25.576 56.843 56.48 56.843h53.903v-24.309h-52.846c-15.03 0-28.836-10.925-30.552-22.724h87.86l-.132-12.155c0-29.09-23.674-57.07-57.07-57.07m-.066 24.21c13.816 0 26.09 10.05 29.561 21.238h-59.62c2.444-7.228 15.809-21.238 30.06-21.238"/><path d="m810.63-304.85c-30.907 0-57.635 26.683-57.635 59.42 0 31.531 25.576 56.843 56.48 56.843h53.903v-24.309h-52.846c-15.03 0-28.836-10.925-30.552-22.724h87.86l-.132-12.155c0-29.09-23.674-57.07-57.07-57.07m-.066 24.21c13.816 0 26.09 10.05 29.561 21.238h-59.62c2.444-7.228 15.809-21.238 30.06-21.238"/><path d="m679.67-298.5c-26.828 0-56.18 20.553-56.18 55.786 0 34.64 28.16 57.5 58.1 57.5 14.02 0 26.873-5.874 30.849-9.71v9.512c0 12.619-13.04 27.48-29.23 27.48h-54.27v24.309h53.903c26.977 0 54.96-19.805 54.96-54.96v-109.92h-58.13m0 24.309h32.765v31.708c0 19.12-13.21 32.699-30.75 32.699-18.851 0-32.93-15.12-32.93-32.666 0-15.551 12.262-31.741 30.915-31.741"/></g></svg>