<?xml version="1.0" encoding="UTF-8" standalone="no"?>
<!-- Created with Inkscape (http://www.inkscape.org/) -->

<svg
   xmlns:dc="http://purl.org/dc/elements/1.1/"
   xmlns:cc="http://creativecommons.org/ns#"
   xmlns:rdf="http://www.w3.org/1999/02/22-rdf-syntax-ns#"
   xmlns:svg="http://www.w3.org/2000/svg"
   xmlns="http://www.w3.org/2000/svg"
   xmlns:inkscape="http://www.inkscape.org/namespaces/inkscape"
   version="1.1"
   width="1160.3116"
   height="220.85353"
   id="svg2">
  <defs
     id="defs4" />
  <metadata
     id="metadata7">
    <rdf:RDF>
      <cc:Work
         rdf:about="">
        <dc:format>image/svg+xml</dc:format>
        <dc:type
           rdf:resource="http://purl.org/dc/dcmitype/StillImage" />
        <dc:title />
      </cc:Work>
    </rdf:RDF>
  </metadata>
  <g
     transform="translate(131.66071,353.97853)"
     id="layer1">
    <path
       d="m -73.162065,-188.59855 44.692744,0 0,-24.30922 -44.390766,0 c -16.598842,0 -32.821233,-13.28241 -32.821233,-33.00997 0,-17.91435 14.182097,-34.53874 33.406315,-34.53874 18.167727,0 36.38056,13.43815 42.748761,24.21486 l 0,-32.557 c -6.146825,-7.43182 -24.513207,-16.09921 -43.220601,-16.09921 -34.027125,0 -58.413865,29.23038 -58.413865,58.50825 0,30.93701 25.65329,57.79103 57.998645,57.79103 z"
       inkscape:connector-curvature="0"
       id="path2998"
       style="fill:#f6710a;fill-opacity:1;stroke:none" />
    <path
       d="m 11.693752,-188.59855 -25.366151,0 0,-164.87998 25.366151,0 0,54.95999 19.553076,0 c 32.56507,0 56.016919,24.25837 56.016919,57.07384 l 0,52.84615 -24.837691,0 0,-51.78922 c 0,-17.51424 -10.766018,-33.82154 -32.764613,-33.82154 l -17.967691,0 z"
       inkscape:connector-curvature="0"
       id="path3000"
       style="fill:#f6710a;fill-opacity:1;stroke:none" />
    <path
       d="m 159.59691,-303.85566 c -36.36031,0 -59.18768,28.9921 -59.18768,59.71615 0,30.45826 24.4829,56.61144 61.36759,56.61144 l 54.43153,0 0,-59.18769 c 0,-26.24885 -19.50173,-57.1399 -56.61144,-57.1399 z m 0.16515,24.34226 c 17.27316,0 31.08014,15.16257 31.08014,32.79764 l 0,34.87846 -31.17923,0 c -20.4474,0 -33.85456,-15.58468 -33.85456,-33.22702 0,-16.85355 12.66982,-34.44908 33.95365,-34.44908 z"
       inkscape:connector-curvature="0"
       id="path3002"
       style="fill:#f6710a;fill-opacity:1;stroke:none" />
    <path
       d="m 533.81371,-188.59855 -25.36615,0 0,-109.91999 44.41876,0 c 32.56507,0 56.01692,24.25837 56.01692,57.07384 l 0,52.84615 -24.83769,0 0,-51.78922 c 0,-17.51424 -10.76602,-33.82154 -32.76461,-33.82154 l -17.46723,0 z"
       inkscape:connector-curvature="0"
       id="path3006"
       style="fill:#f6710a;fill-opacity:1;stroke:none" />
    <path
       d="m 299.17681,-212.90777 0,24.30922 -10.56923,0 c -35.67959,0 -58.13077,-25.22112 -58.13077,-53.40013 l 0,-111.47985 24.30923,0 0,107.80614 c 0,17.52628 11.78923,32.76462 32.76461,32.76462 z"
       inkscape:connector-curvature="0"
       id="path3008"
       style="fill:#f6710a;fill-opacity:1;stroke:none" />
    <path
       d="m 375.61388,-212.90777 0,24.30922 -10.56923,0 c -35.67959,0 -58.13077,-25.22112 -58.13077,-53.40013 l 0,-111.47985 24.30923,0 0,107.80614 c 0,17.52628 11.78923,32.76462 32.76462,32.76462 z"
       inkscape:connector-curvature="0"
       id="path3010"
       style="fill:#f6710a;fill-opacity:1;stroke:none" />
    <path
       d="m 436.67588,-304.84653 c -30.907,0 -57.63533,26.68301 -57.63533,59.41889 0,31.5313 25.57552,56.84264 56.47932,56.84264 l 53.90308,0 0,-24.30922 -52.84615,0 c -15.03171,0 -28.83649,-10.92471 -30.55168,-22.72385 l 87.85672,0 -0.13212,-12.15461 c 0,-29.09483 -23.67392,-57.07385 -57.07384,-57.07385 z m -0.0661,24.21015 c 13.81583,0 26.08571,10.04504 29.56081,21.23754 l -59.61706,0 c 2.44418,-7.22753 15.80934,-21.23754 30.05625,-21.23754 z"
       inkscape:connector-curvature="0"
       id="path3012"
       style="fill:#f6710a;fill-opacity:1;stroke:none" />
    <path
       d="m 810.63333,-304.84653 c -30.907,0 -57.63533,26.68301 -57.63533,59.41889 0,31.5313 25.57552,56.84264 56.47932,56.84264 l 53.90308,0 0,-24.30922 -52.84615,0 c -15.03171,0 -28.83649,-10.92471 -30.55168,-22.72385 l 87.85672,0 -0.13212,-12.15461 c 0,-29.09483 -23.67392,-57.07385 -57.07384,-57.07385 z m -0.0661,24.21015 c 13.81583,0 26.08571,10.04504 29.56081,21.23754 l -59.61706,0 c 2.44418,-7.22753 15.80934,-21.23754 30.05625,-21.23754 z"
       inkscape:connector-curvature="0"
       id="path3017"
       style="fill:#f6710a;fill-opacity:1;stroke:none" />
    <path
       d="m 679.66909,-298.50499 c -26.82796,0 -56.18207,20.55313 -56.18207,55.78572 0,34.64024 28.16362,57.50322 58.09774,57.50322 14.01667,0 26.87268,-5.87435 30.84894,-9.71048 l 0,9.5123 c 0,12.61887 -13.03592,27.48 -29.23053,27.48 l -54.26639,0 0,24.30923 53.90307,0 c 26.97693,0 54.96,-19.80534 54.96,-54.96 l 0,-109.91999 -58.13076,0 z m 0,24.30923 32.76461,0 0,31.70769 c 0,19.12175 -13.21046,32.69856 -30.74986,32.69856 -18.85059,0 -32.92975,-15.12255 -32.92975,-32.66553 0,-15.55067 12.26177,-31.74072 30.915,-31.74072 z"
       inkscape:connector-curvature="0"
       id="path3022"
       style="fill:#f6710a;fill-opacity:1;stroke:none" />
    <g
       id="text3000"
       style="font-size:133.96131897px;font-style:normal;font-weight:normal;line-height:125%;letter-spacing:0px;word-spacing:0px;fill:#f6710a;fill-opacity:1;stroke:none;font-family:Sans">
      <path
         d="m 927.87621,-211.31862 0,-24.92151 -25.11774,0 0,-17.20304 25.11774,0 0,-24.92152 16.74517,0 0,24.92152 25.18316,0 0,17.20304 -25.18316,0 0,24.92151 z"
         inkscape:connector-curvature="0"
         id="path2995"
         style="font-weight:bold;fill:#f6710a;-inkscape-font-specification:Sans Bold" />
      <path
         d="m 1028.151,-197.51694 -18.3805,0 0,-69.27003 c -6.7155,6.2795 -14.6302,10.92366 -23.74409,13.9325 l 0,-16.67976 c 4.79678,-1.56978 10.00783,-4.54597 15.63319,-8.92857 5.6253,-4.38244 9.4845,-9.49538 11.5777,-15.33884 l 14.9137,0 z"
         inkscape:connector-curvature="0"
         id="path2997"
         style="font-weight:bold;fill:#f6710a;-inkscape-font-specification:Sans Bold" />
    </g>
  </g>
</svg>
