<?xml version="1.0" encoding="UTF-8" standalone="no"?>
<!-- Created with Inkscape (http://www.inkscape.org/) -->
<svg xmlns:rdf="http://www.w3.org/1999/02/22-rdf-syntax-ns#" xmlns="http://www.w3.org/2000/svg" height="270.28" width="600" version="1.1" xmlns:cc="http://creativecommons.org/ns#" xmlns:dc="http://purl.org/dc/elements/1.1/">
 <defs></defs>
 <metadata>
  <rdf:RDF>
   <cc:Work rdf:about="">
    <dc:format>image/svg+xml</dc:format>
    <dc:type rdf:resource="http://purl.org/dc/dcmitype/StillImage"/>
    <dc:title/>
   </cc:Work>
  </rdf:RDF>
 </metadata>
 <g fill-rule="nonzero" transform="translate(-2.5e-5,-1.0392551e-5)">
  <path d="m270.27,135.15c0,74.637-60.483,135.13-135.13,135.13-74.643,0-135.14-60.5-135.14-135.13,0-74.64,60.497-135.15,135.13-135.15,74.65,0,135.14,60.51,135.14,135.15" fill="#941a1f"/>
  <path fill="#941a1f" d="m310.78,147.4-23.323,0,0-23.185,23.323,0,0-23.737,24.014,0,0,23.737,23.323,0,0,23.185-23.323,0,0,23.737-24.014,0,0-23.737z"/>
  <path fill="#941a1f" d="m358.1,177.49,52.087-39.756c12.911-10.136,17.882-16.695,17.882-25.049,0-8.741-6.1587-14.113-15.507-14.113-9.3348,0-16.695,5.3716-27.632,17.896l-26.03-21.662c14.9-19.291,29.62-29.827,56.644-29.827,30.421,0,51.286,18.09,51.286,44.326v0.40046c0,22.274-11.53,33.79-32.202,48.704l-23.848,16.695h57.445v31.415h-110.13v-29.026z"/>
  <path fill="#941a1f" d="m544.94,150.85,0-39.949-33.196,39.949,33.196,0zm0,28.626-67.387,0-6.3658-27.231,72.165-85.877,38.955,0,0,84.289,17.689,0,0,28.819-17.689,0,0,27.038-37.367,0,0-27.038z"/>
  <path d="m213.36,165.26c0-43.843-26.817-63.079-59.102-63.079-13.546,0-28.377,2.4166-39.576,10.95l-0.51093-0.53854,5.1921-24.566h84.372v-45.445h-124.45l-18.766,107.17h48.428c5.4821-8.5477,14.071-12.028,26.306-12.028,15.618,0,26.03,9.6386,26.03,25.933,0,14.969-12.248,24.856-27.604,24.856-8.0782,0-15.355-1.8642-20.561-6.1449-3.9079-2.9413-6.2554-7.222-7.2773-12.29h-51.314c-2.0713,18.435,11.213,60.662,77.606,60.662,52.322,0,81.224-27.783,81.224-65.482" fill="#FFF"/>
 </g>
</svg>
