<svg xmlns="http://www.w3.org/2000/svg" viewBox="0 0 600 600.02"><path d="m300 0c-165.7 0-300 134.33-300 300 0 165.7 134.3 300.02 300 300.02 165.73 0 300-134.33 300-300.02 0-165.67-134.27-300-300-300" fill="#af1d23"/><path d="m293.33 512.24c-147.37 0-176.89-93.77-172.24-134.69h113.88c2.275 11.255 7.493 20.78 16.17 27.303 11.558 9.495 27.727 13.621 45.656 13.621 34.1 0 61.28-21.934 61.28-55.15 0-36.19-23.12-57.58-57.79-57.58-27.18 0-46.23 7.736-58.4 26.696h-107.52l41.656-237.92h276.27v100.9h-187.3l-11.528 54.55 1.122 1.183c24.845-18.959 57.79-24.3 87.85-24.3 71.69 0 131.2 42.683 131.2 140.03 0 83.67-64.13 145.37-180.32 145.37" fill="#fff"/></svg>