<?xml version="1.0" encoding="UTF-8" standalone="no"?>
<!-- Created with Inkscape (http://www.inkscape.org/) -->
<svg xmlns:rdf="http://www.w3.org/1999/02/22-rdf-syntax-ns#" xmlns="http://www.w3.org/2000/svg" height="349.99" width="600" version="1.1" xmlns:cc="http://creativecommons.org/ns#" xmlns:dc="http://purl.org/dc/elements/1.1/">
 <defs></defs>
 <metadata>
  <rdf:RDF>
   <cc:Work rdf:about="">
    <dc:format>image/svg+xml</dc:format>
    <dc:type rdf:resource="http://purl.org/dc/dcmitype/StillImage"/>
    <dc:title/>
   </cc:Work>
  </rdf:RDF>
 </metadata>
 <g fill-rule="nonzero" transform="translate(-21.472527,209.84245)">
  <path fill="#af1d24" d="m573.27-155.69-70.09,19.836,12.652,51.28,40.327-9.2368,0,179.16,65.313,0,0-241.04-48.201,0z"/>
  <path fill="#af1d24" d="m433.7-13.016-40.009,0,0-39.761,40.009,0,0-40.716,41.194,0,0,40.716,39.991,0,0,39.761-39.991,0,0,40.716-41.194,0,0-40.716z"/>
  <path fill="#af1d23" d="m196.46-209.84c-96.651,0-174.99,78.354-174.99,174.99,0,96.651,78.336,175,174.99,175,96.668,0,174.99-78.354,174.99-175,0-96.633-78.318-174.99-174.99-174.99"/>
  <path fill="#FFF" d="m192.57,88.95c-85.963,0-103.18-54.696-100.47-78.566h66.427c1.3271,6.5649,4.3707,12.121,9.4315,15.926,6.7418,5.5386,16.173,7.9451,26.631,7.9451,19.889,0,35.744-12.794,35.744-32.17,0-21.11-13.484-33.585-33.709-33.585-15.855,0-26.967,4.5122-34.063,15.572h-62.711l24.295-138.78h161.15v58.854h-109.25l-6.7241,31.816,0.65471,0.69011c14.492-11.059,33.709-14.174,51.245-14.174,41.814,0,76.531,24.897,76.531,81.681,0,48.803-37.407,84.795-105.18,84.795"/>
 </g>
</svg>
