<svg xmlns="http://www.w3.org/2000/svg" viewBox="0 0 600 349.99"><g transform="translate(-21.473 209.84)"><g fill="#af1d24"><path d="m573.27-155.69l-70.09 19.836 12.652 51.28 40.33-9.237v179.16h65.31v-241.04h-48.2"/><path d="m433.7-13.02h-40.01v-39.761h40.01v-40.716h41.19v40.716h39.991v39.761h-39.991v40.716h-41.19v-40.716"/></g><path fill="#af1d23" d="m196.46-209.84c-96.65 0-174.99 78.35-174.99 174.99 0 96.65 78.34 175 174.99 175 96.67 0 174.99-78.35 174.99-175 0-96.63-78.32-174.99-174.99-174.99"/><path fill="#fff" d="m192.57 88.95c-85.963 0-103.18-54.696-100.47-78.57h66.43c1.327 6.565 4.371 12.12 9.431 15.926 6.742 5.539 16.17 7.945 26.631 7.945 19.889 0 35.744-12.794 35.744-32.17 0-21.11-13.484-33.585-33.709-33.585-15.855 0-26.967 4.512-34.06 15.572h-62.711l24.295-138.78h161.15v58.854h-109.25l-6.724 31.816.655.69c14.492-11.06 33.709-14.174 51.25-14.174 41.814 0 76.53 24.897 76.53 81.68 0 48.803-37.41 84.8-105.18 84.8"/></g></svg>