<svg xmlns="http://www.w3.org/2000/svg" viewBox="0 0 832.11694 381.25" width="832.12"><path fill="#ca0001" d="m87.86 3.477l-5.426 5.908c-2.984 3.25-5.426 6.703-5.426 7.67 0 2.517-6.08 4.511-11.562 3.795-2.578-.337-5-.098-5.393.529-.718 1.161 2.28 4.871 3.935 4.871.5 0 2.753 1.406 5.01 3.125s4.696 3.125 5.43 3.125c1.936 0 1.635 1.944-.588 3.789-1.471 1.221-1.729 2.946-1.094 7.342.457 3.16 1.264 6.307 1.793 6.994.529.688 1.236 3.318 1.568 5.844.49 3.723.041 5.081-2.371 7.178-1.636 1.423-2.975 3.329-2.975 4.236 0 .907-1.688 3.266-3.75 5.242s-3.75 4.155-3.75 4.842c0 .686-1.058 2.409-2.35 3.828-2.433 2.673-11.4 19.06-11.4 20.838 0 .553-1.318 2.948-2.928 5.32-1.61 2.373-3.92 8.446-5.133 13.494-1.213 5.05-2.89 10.02-3.728 11.05-.838 1.031-1.581 3.036-1.648 4.455s-2.058 7.607-4.426 13.75c-4.569 11.856-9.637 27.752-9.637 30.23 0 .818-2.482 3.334-5.516 5.59-6.175 4.592-7.658 8.759-6.311 17.746.56 3.732.228 6.527-1.074 9.04-2.715 5.249-5.925 20.452-7.219 34.19-.615 6.531-1.402 12.622-1.748 13.535-.346.913-.011 9.913.746 20 1.524 20.315 4.765 31.3 11.324 38.38 3.21 3.466 8.533 19.314 8.555 25.471.016 4.595 2.706 11.363 4.518 11.363 3.821 0 .952 4.177-6.4 9.318-5.443 3.806-7.607 6.142-7.889 8.516-.338 2.845.233 3.441 4.375 4.578 2.62.719 6.17 1.519 7.889 1.777 1.719.259 11.637.547 22.04.641 18.627.168 18.93.127 19.672-2.643.415-1.547.761-4.341.77-6.211s1.214-5.696 2.678-8.504c3.544-6.8 2.53-14.03-3.477-24.773-2.755-4.926-5.228-11.654-6.246-16.99-2.217-11.65-2.148-13.23.579-13.23 1.246 0 3.918-1.733 5.937-3.852 2.02-2.119 5.622-4.672 8-5.674 2.382-1 4.747-2.495 5.256-3.318 1.273-2.06 4.967 2.067 9.03 10.09 1.763 3.479 3.729 6.648 4.367 7.04 3.626 2.241 7.523-3.801 8.412-13.04.298-3.094 1.37-12.358 2.383-20.588 2.1-17.07 2.33-24.41.75-24.41-.604 0-1.765-1.609-2.58-3.576-1.466-3.539-1.575-3.571-10.03-2.967-4.698.336-12.818.21-18.05-.279l-9.502-.891v-7.377c0-7.208.111-7.45 4.844-10.438 2.664-1.682 6.03-4.642 7.478-6.578 4.02-5.378 9.377-10.392 11.1-10.393 2.068-.002 12.83-11.165 12.83-13.309 0-.931.487-1.693 1.082-1.693 1.409 0 6.923-14.597 7.223-19.12.127-1.921.906-4.303 1.728-5.295.823-.992 1.176-2.641.783-3.664-.393-1.023.053-3.702.99-5.953.937-2.251 1.702-6.259 1.699-8.906-.003-2.647.566-5.384 1.266-6.084.7-.7.965-3.175.588-5.5-.377-2.325-.163-4.228.477-4.228.64 0 1.222-1.828 1.293-4.063.181-5.697 4.646-29.768 7.564-40.783 2.867-10.821 2.525-19.397-.965-24.17-1.363-1.863-2.478-3.915-2.478-4.559 0-.644-2.01-2.935-4.465-5.092-3.881-3.408-4.355-4.421-3.623-7.756.463-2.11 1.812-4.806 2.998-5.992 5.153-5.153 7.665-13.11 7.473-23.682-.18-9.91-.3-10.262-4.46-13.914-2.34-2.061-4.38-3.782-4.53-3.826s-6.13-.386-13.28-.762l-13.02-.682z"/><g fill="#fff"><path d="m644.72 0l-.74 4.688c-.739 4.672-46.979 374.66-46.979 375.91 0 .36 21.656.654 48.12.654h48.12l.004-2.813c.002-1.547 1.119-16.03 2.482-32.19 1.364-16.16 2.487-30.359 2.496-31.562.015-1.974 1.661-2.188 16.893-2.188 9.281 0 16.883.422 16.895.938.011.516 1.133 15.562 2.492 33.438 1.359 17.875 2.476 32.922 2.481 33.438.005.516 21.408.938 47.564.938h47.557l-.709-4.063c-.39-2.24-12.21-86.19-26.27-186.57-14.06-100.37-25.88-184.32-26.28-186.56l-.72-4.06h-66.71-66.71zm70.906 87.67c.082.149.125.679.125 1.617 0 4.96 7.742 93.45 10.637 121.58 1.712 16.634 3.113 31.12 3.113 32.19 0 1.659-2.39 1.943-16.312 1.943h-16.312l.701-7.188c6.741-69.17 16.816-152.38 18.05-150.14z"/><path d="m162.22 0l-.74 4.688c-.739 4.672-46.979 374.66-46.979 375.91 0 .36 21.656.654 48.12.654h48.12l.004-2.813c.002-1.547 1.119-16.03 2.482-32.19 1.364-16.16 2.487-30.359 2.496-31.562.015-1.974 1.661-2.188 16.893-2.188 9.281 0 16.883.422 16.895.938.011.516 1.133 15.562 2.492 33.438 1.359 17.875 2.476 32.922 2.481 33.438.005.516 21.408.938 47.564.938h47.557l-.709-4.063c-.39-2.24-12.21-86.19-26.27-186.57-14.06-100.37-25.88-184.32-26.28-186.56l-.72-4.06h-66.71-66.71zm203.53 0v190.62 190.62h46.25 46.25v-80.21c0-44.12.247-79.96.549-79.66.302.302 8.76 35.41 18.797 78.02s18.546 78.46 18.91 79.66c.615 2.033 4.01 2.188 48.16 2.188 44.669 0 47.46-.13 46.809-2.188-4.29-13.53-57.24-205.32-57.2-207.17.03-1.38 11.84-40.47 26.26-86.88l26.21-84.37-42.56-.328c-23.411-.181-42.832-.063-43.16.264-.326.326-9.785 32.753-21.02 72.06s-20.727 71.77-21.09 72.13c-.365.365-.662-32.06-.662-72.05v-72.71h-46.25-46.25zm-132.62 87.67c.082.149.125.679.125 1.617 0 4.96 7.742 93.45 10.637 121.58 1.712 16.634 3.113 31.12 3.113 32.19 0 1.659-2.39 1.943-16.312 1.943h-16.312l.701-7.188c6.741-69.17 16.816-152.38 18.05-150.14z"/></g></svg>