<svg xmlns="http://www.w3.org/2000/svg" viewBox="0 0 600 270.28"><g fill="#941a1f"><path d="m270.27 135.15c0 74.64-60.48 135.13-135.13 135.13-74.64 0-135.14-60.5-135.14-135.13 0-74.64 60.5-135.15 135.13-135.15 74.65 0 135.14 60.51 135.14 135.15"/><path d="m310.78 147.4h-23.323v-23.19h23.323v-23.737h24.01v23.737h23.323v23.19h-23.323v23.737h-24.01v-23.737"/><path d="m358.1 177.49l52.09-39.756c12.911-10.136 17.882-16.695 17.882-25.05 0-8.741-6.159-14.11-15.507-14.11-9.335 0-16.695 5.372-27.632 17.896l-26.03-21.662c14.9-19.291 29.62-29.827 56.644-29.827 30.421 0 51.29 18.09 51.29 44.33v.4c0 22.274-11.53 33.79-32.2 48.704l-23.848 16.695h57.44v31.415h-110.13v-29.03z"/><path d="m544.94 150.85v-39.949l-33.2 39.949h33.2m0 28.626h-67.39l-6.366-27.23 72.16-85.88h38.955v84.29h17.689v28.819h-17.689v27.04h-37.37v-27.04"/></g><path d="m213.36 165.26c0-43.843-26.817-63.08-59.1-63.08-13.546 0-28.377 2.417-39.576 10.95l-.511-.539 5.192-24.566h84.37v-45.45h-124.45l-18.766 107.17h48.43c5.482-8.548 14.07-12.03 26.306-12.03 15.618 0 26.03 9.639 26.03 25.933 0 14.969-12.248 24.856-27.604 24.856-8.08 0-15.355-1.864-20.561-6.145-3.908-2.941-6.255-7.222-7.277-12.29h-51.31c-2.071 18.435 11.213 60.662 77.61 60.662 52.32 0 81.22-27.783 81.22-65.48" fill="#fff"/></svg>