<svg xmlns="http://www.w3.org/2000/svg" height="351.41" viewBox="0 0 599.99999 351.4086"><g stroke-width="1.183" fill="#e4212f"><path d="m20.17 286.1c94.86-41.38 206.43-69.31 318.09-79.62 43.63-4.04 60.21-4.74 112.39-4.77 54.86-.04 76.1.94 114.7 5.3 10.7 1.21 19.89 1.93 20.41 1.61s.94-2.08.94-3.91c0-3.87 1.99-3.27-27.8-8.33-50.16-8.53-87.01-11.28-150.25-11.22-50.92.04-65.09.72-111.8 5.35-90.28 8.95-206.75 33.66-270.7 57.44-16.221 6.03-18.433 7.97-22.01 19.29-3.304 10.46-4.907 20.31-3.781 23.24 1.045 2.72 6.085 1.61 19.808-4.38z"/><path d="m162.48.003c-21.04.281-53.04 20.395-89.97 58.11-21.727 22.19-35.401 41.08-47.813 66.07-21.484 43.25-17.01 81.99 11.06 95.8 4.03 1.98 9.729 4.11 12.658 4.72 7.699 1.62 21.797.54 31.351-2.38 22.602-6.93 46.862-22.84 71.852-47.13l16.29-15.82v6.1c0 6.74 2.45 13.81 5.63 16.23 2.8 2.12 8.13 2.02 11.93-.23 1.73-1.02 8.04-8.36 14.02-16.31 13.7-18.18 20.4-25.8 32.95-37.43l4.47-4.14-2.46 4.14c-12.78 21.45-16.15 30.36-15.41 40.7.44 6.04 1.01 7.43 4.28 10.35 6.55 5.85 12.1 4.56 39.56-9.18 7.02-3.51 13-6.38 13.3-6.38.29 0 1.85 2.61 3.46 5.8 12.02 23.7 40.74 19.33 72.66-11.05 7.85-7.47 23.69-26.48 28.32-33.99 2.36-3.82 3.99-4.79 13.5-7.98 5.95-1.99 11.08-3.36 11.4-3.04s-1.12 2.95-3.21 5.85c-5.25 7.31-10.58 19.09-12.25 27.07-3.08 14.65 6.05 29.17 18.33 29.17 5.44 0 15.45-6.37 26.29-16.73l10.95-10.47.73 4.43c.41 2.44 2.08 7.31 3.73 10.83 8.99 19.18 24.41 19.12 52.52-.23 3.69-2.53 5.44-3.17 5.79-2.12 1.1 3.3 8.16 10.05 12.64 12.09 18.97 8.61 47.21-6.74 73.74-40.09 5.8-7.28 5.86-7.46 4.51-12.05-.76-2.56-1.73-5-2.16-5.43s-4.94 3.42-10.04 8.56c-16.01 16.18-31.71 25.1-44.24 25.16-5.61.02-7.02-.44-9.46-3.07l-2.87-3.09 3.45-2.53c31.63-23.1 49.34-41.722 52.1-54.777 1.21-5.77-1.23-13.1-5.02-15.02-19.08-9.656-54.08 8.775-69.77 36.744-5.22 9.31-8.56 20.5-8.56 28.69v6.79l-9.5 4.45c-14.3 6.71-22.45 5.96-22.45-2.05 0-2.28 5.24-13.76 14.28-31.32 7.86-15.249 14-28.471 13.64-29.385-.49-1.28-3.48-1.661-13.03-1.661h-12.4l-2.85 3.845c-1.57 2.115-6.48 11.705-10.91 21.311-8.55 18.52-12.78 24.05-24.23 31.65-8.09 5.37-12.47 6.52-16.01 4.2-6.77-4.44-1.76-17.97 12.3-33.2 8.47-9.19 9.64-11.251 9.64-17.09 0-4.096-.92-6.96-3.53-11.08-3.36-5.301-3.77-5.555-8.95-5.555-4.4 0-20.99 3.487-31.59 6.641-1.64.487-2.07-.104-2.07-2.831 0-4.396-3.7-7.884-7.35-6.941-3.62.931-12.41 8.281-17.85 14.917-6.17 7.53-9.42 14.905-10.04 22.745-.49 6.19-.26 6.98 2.78 9.81l3.32 3.07-7.62 7.75c-20.12 20.48-40.06 30.24-50.63 24.78-4.8-2.48-7.18-7.81-4.26-9.55 17.21-10.24 38.35-26.37 44.64-34.07 15.62-19.09 12.52-36.32-6.54-36.32-6.35 0-17.33 2.792-25.13 6.391-19.85 9.162-36.54 31.18-41.37 54.56-1.07 5.15-2.05 9.48-2.19 9.62-1.38 1.38-16.2 7.51-18.16 7.51-9.65 0-8.61-3.63 8.98-31.29 4.99-7.84 9.7-15.72 10.47-17.51 2.81-6.526-1.39-11.02-13.08-13.962-4.91-1.235-6.04-1.086-11.81 1.556-7.72 3.536-18.52 12.396-35.47 29.11-6.99 6.9-12.72 12.14-12.72 11.66 0-.49 5.02-10.59 11.14-22.46 49.49-95.8 51.63-100.37 49.67-105.93-1.87-5.322-15.37-6.541-23.85-2.156-5.41 2.794-9 9.153-22.86 40.49-25.77 58.23-39.27 83.23-52.55 97.3-21.17 22.43-59.07 47.9-78.8 52.96-15.472 3.96-26.942-2.06-31.19-16.37-5.296-17.83 2.464-48.25 18.936-74.23 27.21-42.922 64.27-79.15 84.22-82.34 11.48-1.836 8.77 8.571-9.3 35.732-9.55 14.361-28.21 33.871-44.56 46.605-10.592 8.25-16.788 16.15-16.788 21.41 0 11.89 11.999 16.39 25.2 9.45 35.32-18.59 77.59-77.35 77.71-108.04.001-2.418-1.05-7.238-2.35-10.712-4.13-11.06-12.14-16.352-23.16-16.205m398.16 86.32c2.6 0 1.02 5.704-3.14 11.295-4.12 5.532-23.84 24.322-26.44 25.19-.66.22.12-3.11 1.73-7.41 3.47-9.22 8.31-16.581 14.42-21.944 4.16-3.656 10.71-7.133 13.43-7.133m-228.23 9.412c1.81.234 2 2.414-.08 6.625-3.69 7.46-25.97 28.92-30.02 28.92-.34 0 .17-2.25 1.14-4.99 2.96-8.41 7.12-14.41 15.25-22.01 6.34-5.933 11.37-8.847 13.71-8.545"/><path d="m318.15 70.39c12.65-4.406 28.31-8.07 40.5-9.474 3.73-.431 7.02-1.165 7.31-1.632 1-1.62-3.46-19.03-5.37-20.932-1.76-1.762-2.55-1.66-10.05 1.298-4.48 1.765-17.86 7.893-29.73 13.617-20.47 9.865-21.59 10.58-21.58 13.747.001 1.838.35 4.587.76 6.109.88 3.282.87 3.283 18.16-2.733"/><path d="m510.65 65.13c4.98-3.604 9.15-10.801 10.35-17.852.52-3.02.06-5.185-1.68-7.986-2.09-3.371-3.01-3.842-7.43-3.825-10.37.04-20.92 9.583-21.9 19.804-.48 4.93-.11 6.243 2.64 9.511 4.36 5.181 11.17 5.313 18.02.348"/><path d="m559.69 235.9c-13.78 2.68-27.8 3.6-41.69 5.42-3.24 6.54-5.22 13.64-8.62 20.11-2.53 5.87-6.7 10.78-9.26 16.61.7.12 2.09.36 2.79.48-.71.07-2.12.2-2.82.27 2.62 7.15 7.83 13.54 14.61 17.04 6.36-4.32 12.92-8.35 19.86-11.71 8.22-3.03 19.05-8.31 26.75-1.41 3.74 5.64 2.39 12.92-.57 18.6-4.72 9.32-13.99 15.49-23.67 18.67-9.32 1.65-19.51 1.93-28.32-2.06-8.06-3.25-14.23-10.03-18.72-17.3-.95-.12-1.89-.25-2.83-.37-3.45 5.6-5.56 11.82-7.29 18.13-21.08-.89-42.11 1.62-62.69 6.17 5.93-2.63 11.15-6.54 16.97-9.38 16.29-9.62 33.27-18.94 46.33-32.94 4.59-4.71 8.04-10.51 9.56-16.96.53-5.33-.77-10.83-3.94-15.16-3.84-5.69-10.18-8.81-16.39-11.16-7.98-2.59-16.55-1.95-24.78-1.38-13.12 2.39-27.07 7.58-35.03 18.92-2.83 3.62-2.93 8.44-2.49 12.8 2.58 5.87 6.6 14.03 14.3 12.53 5.47-11.49 13.53-22.53 25.46-27.76 6.05-3.33 14.39-3.62 19.33 1.71 1.6 8.74-5.91 14.67-11.6 19.82-8.61 7.73-18.78 13.45-27.78 20.7-11.53 8.91-23.65 17.42-32.95 28.82-4.22 6.65-1.91 15.02 1.59 21.44 1.83 2.86 5.07 5.49 8.67 4.73 8.55-2.26 16.57-6.13 25.02-8.72 14.87-5.39 30.39-8.72 46.01-11.07 3.4-.09 7.48-1.49 10.4.86 5.18 4.45 11.77 6.71 18.3 8.28 25.19 5.27 53.69-5.17 67.83-27.18 5.96-9.2 8.18-21.2 4.66-31.7-3.11-9.55-13.55-14.47-22.99-14.49-9.65.08-18.96 3.17-28.07 6.06 3-5.87 6.13-11.7 9.02-17.64 14.7-5.05 30.5-6 45.81-4.03 2.57-5.29 5.94-11.78 3.42-17.68-.71-.29-2.13-.85-2.84-1.13-7.24-.03-14.29 1.7-21.35 3.06"/></g></svg>