<svg xmlns="http://www.w3.org/2000/svg" viewBox="0 0 600 215.93"><g transform="matrix(1.63169 0 0 1.63169 232.86-1043.98)" fill="#42b1cc"><path d="m116.44 765.86c0 3.438-1.571 5.02-3.805 5.698-1.867.576-4.686.576-7.164.576-2.496 0-5.297 0-7.164-.576-2.234-.681-3.805-2.26-3.805-5.698v-119.76c0-3.429 1.571-5.02 3.805-5.716 1.867-.558 4.669-.567 7.164-.567 2.478 0 5.297.009 7.164.567 2.234.698 3.805 2.286 3.805 5.716v119.76"/><path d="m-24.286 656.06c0 3.438-1.588 5.02-3.822 5.698-1.867.585-4.669.593-7.164.593-2.496 0-5.279-.009-7.182-.593-2.216-.681-3.787-2.26-3.787-5.698v-9.957c0-3.429 1.571-5.03 3.787-5.698 1.902-.576 4.686-.593 7.182-.593s5.297.017 7.164.593c2.234.672 3.822 2.269 3.822 5.698v9.957"/><path d="m-24.286 765.86c0 3.438-1.588 5.02-3.822 5.698-1.867.576-4.669.576-7.164.576-2.496 0-5.279 0-7.182-.576-2.216-.681-3.787-2.26-3.787-5.698v-83.33c0-3.412 1.571-5.01 3.787-5.689 1.902-.567 4.686-.576 7.182-.576s5.297.009 7.164.576c2.234.681 3.822 2.278 3.822 5.689v83.33"/><path d="m177.07 696.21c-15.384 0-26 12.548-26 28.04 0 15.48 10.62 28.04 26 28.04 15.393 0 25.996-12.557 25.996-28.04 0-15.489-10.602-28.04-25.996-28.04m47.933 28.04c0 28.517-21.458 47.898-47.933 47.898s-47.951-19.381-47.951-47.898c0-28.5 21.475-47.89 47.951-47.89 26.475 0 47.933 19.39 47.933 47.89"/><path d="m-71.44 742.45c2.487-2.147 4.852-2.347 6.588-1.422 1.318.707 3.03 2.478 4.398 4.11 1.379 1.597 2.714 3.56 3.307 5.07.864 2.234.183 4.293-1.702 6.196-9.302 9.355-21.493 15.742-35.917 15.742-26.475 0-47.942-19.381-47.942-47.898 0-14.09 5.131-25.463 13.447-34.25 8.648-9.163 21.318-13.639 35.647-13.639h22.488c3.429 0 5.02 1.414 5.689 3.368.585 1.684.602 4.162.602 6.388 0 2.199-.017 4.686-.602 6.353-.672 1.981-2.26 3.569-5.689 3.569h-22.671c-6.946 0-13.761 1.824-19.01 7.33-4.93 5.149-7.958 12.828-7.958 20.882 0 15.489 10.602 28.04 25.996 28.04 9.608 0 16.92-4.346 23.325-9.835"/><path d="m35.724 695.05c13.14 0 21.528 8.595 23.482 20.245h-47.654c2.138-11.51 11.04-20.245 24.17-20.245m46.05 27.505c.087-23.13-17.636-46.21-45.848-46.21-26.493 0-47.37 19.913-47.37 47.898 0 29.643 18.613 47.898 50.638 47.898h28.858c3.447 0 5.04-1.422 5.707-3.386.567-1.658.768-3.962.768-6.169 0-2.216-.201-4.485-.768-6.178-.672-1.955-2.26-3.569-5.707-3.569h-29.06c-13.412 0-26.414-6.632-27.479-20.577h61.26c7.173 0 8.979-5.698 8.997-9.712"/></g></svg>