<svg xmlns="http://www.w3.org/2000/svg" viewBox="0 0 600 310.37"><defs><clipPath><path d="m45.07 270.95h20.342v10.648h-20.342v-10.648"/></clipPath><clipPath><path d="m34.3 297.18l2.118.098v-.196l-2.118.098"/></clipPath><clipPath><path d="m34.09 297.27l-1.436 1.56.15.126 1.286-1.686"/></clipPath><clipPath><path d="m34.24 297.07l1.144-1.786-.17-.098-.974 1.884"/></clipPath><clipPath><path d="m34.3 297.16l2.103-.271-.034-.193-2.069.464"/></clipPath><clipPath><path d="m34.28 297.12l1.884-.974-.098-.169-1.786 1.143"/></clipPath><clipPath><path d="m34.29 297.13l2.024-.632-.067-.184-1.957.816"/></clipPath><clipPath><path d="m34.25 297.08l1.436-1.559-.15-.126-1.286 1.685"/></clipPath><clipPath><path d="m34.22 297.06l.816-1.957-.183-.067-.633 2.024"/></clipPath><clipPath><path d="m34.2 297.06l.464-2.069-.193-.034-.271 2.103"/></clipPath><clipPath><path d="m34.17 297.05l.098-2.118h-.195l.097 2.118"/></clipPath><clipPath><path d="m34.09 297.08l-1.286-1.685-.15.126 1.436 1.559"/></clipPath><clipPath><path d="m34.29 297.22l1.957.817.067-.184-2.024-.633"/></clipPath><clipPath><path d="m34.15 297.06l-.272-2.103-.193.034.465 2.069"/></clipPath><clipPath><path d="m34.11 297.07l-.974-1.884-.17.098 1.144 1.786"/></clipPath><clipPath><path d="m34.13 297.06l-.633-2.024-.184.067.817 1.957"/></clipPath><clipPath><path d="m34.08 297.1l-1.56-1.437-.126.15 1.686 1.287"/></clipPath><clipPath><path d="m34.27 297.1l1.685-1.287-.125-.15-1.56 1.437"/></clipPath><clipPath><path d="m34.05 297.2l-2.103.272.034.193 2.069-.465"/></clipPath><clipPath><path d="m34.05 297.16l-2.069-.464-.034.193 2.103.271"/></clipPath><clipPath><path d="m34.06 297.12l-1.785-1.143-.098.169 1.883.974"/></clipPath><clipPath><path d="m34.05 297.18l-2.118-.098v.196l2.118-.098"/></clipPath><clipPath><path d="m34.06 297.22l-2.024.633.067.184 1.957-.817"/></clipPath><clipPath><path d="m34.08 297.26l-1.686 1.286.126.151 1.56-1.437"/></clipPath><clipPath><path d="m34.06 297.24l-1.883.974.098.17 1.785-1.144"/></clipPath><clipPath><path d="m34.11 297.29l-1.144 1.785.17.098.974-1.883"/></clipPath><clipPath><path d="m34.13 297.3l-.817 1.957.184.067.633-2.024"/></clipPath><clipPath><path d="m34.15 297.3l-.465 2.069.193.034.272-2.103"/></clipPath><clipPath><path d="m34.06 297.13l-1.957-.816-.067.184 2.024.632"/></clipPath><clipPath><path d="m34.17 297.3l-.097 2.119h.195l-.098-2.119"/></clipPath><clipPath><path d="m34.2 297.3l.271 2.103.193-.034-.464-2.069"/></clipPath><clipPath><path d="m34.22 297.3l.633 2.024.183-.067-.816-1.957"/></clipPath><clipPath><path d="m34.24 297.29l.974 1.883.17-.098-1.144-1.785"/></clipPath><clipPath><path d="m34.27 297.26l1.56 1.437.125-.151-1.685-1.286"/></clipPath><clipPath><path d="m34.28 297.24l1.786 1.144.098-.17-1.884-.974"/></clipPath><clipPath><path d="m34.25 297.27l1.286 1.686.15-.126-1.436-1.56"/></clipPath><clipPath><path d="m34.3 297.2l2.069.465.034-.193-2.103-.272"/></clipPath><clipPath><path d="m76.56 254.92l2.118.098v-.196l-2.118.098"/></clipPath><clipPath><path d="m76.55 254.9l2.103-.271-.034-.193-2.069.464"/></clipPath><clipPath><path d="m76.37 255.03l-1.144 1.786.169.097.975-1.883"/></clipPath><clipPath><path d="m76.47 254.8l.816-1.957-.184-.067-.632 2.024"/></clipPath><clipPath><path d="m76.55 254.88l2.024-.632-.067-.184-1.957.816"/></clipPath><clipPath><path d="m76.53 254.84l1.685-1.287-.126-.15-1.559 1.437"/></clipPath><clipPath><path d="m76.54 254.86l1.883-.974-.098-.17-1.785 1.144"/></clipPath><clipPath><path d="m76.49 254.81l1.144-1.785-.169-.098-.975 1.883"/></clipPath><clipPath><path d="m76.45 254.8l.464-2.069-.193-.034-.271 2.103"/></clipPath><clipPath><path d="m76.43 254.8l.098-2.118h-.196l.098 2.118"/></clipPath><clipPath><path d="m76.41 254.8l-.271-2.103-.193.034.464 2.069"/></clipPath><clipPath><path d="m76.33 254.84l-1.56-1.437-.126.15 1.686 1.287"/></clipPath><clipPath><path d="m76.55 254.94l2.069.464.034-.193-2.103-.271"/></clipPath><clipPath><path d="m76.39 254.8l-.632-2.024-.184.067.816 1.957"/></clipPath><clipPath><path d="m76.35 254.83l-1.287-1.686-.15.126 1.437 1.56"/></clipPath><clipPath><path d="m76.37 254.81l-.975-1.883-.169.098 1.144 1.785"/></clipPath><clipPath><path d="m76.32 254.86l-1.785-1.144-.098.17 1.883.974"/></clipPath><clipPath><path d="m76.51 254.83l1.437-1.56-.15-.126-1.287 1.686"/></clipPath><clipPath><path d="m76.31 254.96l-2.024.632.067.184 1.957-.816"/></clipPath><clipPath><path d="m76.31 254.92l-2.118-.098v.196l2.118-.098"/></clipPath><clipPath><path d="m76.31 254.88l-1.957-.816-.067.184 2.024.632"/></clipPath><clipPath><path d="m76.31 254.94l-2.103.271.034.193 2.069-.464"/></clipPath><clipPath><path d="m76.32 254.98l-1.883.975.098.169 1.785-1.144"/></clipPath><clipPath><path d="m76.35 255.02l-1.437 1.559.15.126 1.287-1.685"/></clipPath><clipPath><path d="m76.33 255l-1.686 1.287.126.15 1.56-1.437"/></clipPath><clipPath><path d="m76.39 255.04l-.816 1.957.184.067.632-2.024"/></clipPath><clipPath><path d="m76.41 255.04l-.464 2.069.193.034.271-2.103"/></clipPath><clipPath><path d="m76.43 255.05l-.098 2.118h.196l-.098-2.118"/></clipPath><clipPath><path d="m76.31 254.9l-2.069-.464-.034.193 2.103.271"/></clipPath><clipPath><path d="m76.45 255.04l.271 2.103.193-.034-.464-2.069"/></clipPath><clipPath><path d="m76.47 255.04l.632 2.024.184-.067-.816-1.957"/></clipPath><clipPath><path d="m76.49 255.03l.975 1.883.169-.097-1.144-1.786"/></clipPath><clipPath><path d="m76.51 255.02l1.287 1.685.15-.126-1.437-1.559"/></clipPath><clipPath><path d="m76.54 254.98l1.785 1.144.098-.169-1.883-.975"/></clipPath><clipPath><path d="m76.55 254.96l1.957.816.067-.184-2.024-.632"/></clipPath><clipPath><path d="m76.53 255l1.559 1.437.126-.15-1.685-1.287"/></clipPath></defs><g transform="matrix(1.05859 0 0 1.05859-70.7-416.99)"><path d="m542.25 393.91h-475.47v150.16h475.47v-150.16" fill="#443a3d"/><g fill="#fff"><path d="m156.57 503.63c0 1.209-1 2.212-3.156 3.01-5.929 2.01-11.415 3.01-16.577 3.01-7.757 0-15.16-1.888-22.358-5.781-14.335-7.934-22.328-21.237-22.328-37.636 0-9.03 2.478-17.196 7.315-24.57 4.926-7.344 11.562-12.831 19.851-16.282 5.398-2.36 11.12-3.451 17.284-3.451 4.159 0 8.642.678 13.45 1.888 1.475.324 2.596.796 3.598 1.239l1.239.56c1 .442 1.563 1.209 1.563 2.212v21.561c0 .56-.206.767-.56.767-.118 0-.442-.206-1-.56-1.681-1.652-4.159-3.01-7.403-4.129-3.48-1.209-6.637-1.77-9.321-1.77-9.763 0-17.933 5.132-21.65 13.715-1.239 2.802-1.799 5.811-1.799 9.06 0 6.342 2.36 11.503 7.079 15.515 4.365 3.687 9.763 5.575 16.16 5.575 7.285 0 12.89-2.01 17.05-6.135.324-.442.678-.678.885-.678.442 0 .678.678.678 2.124v20.765"/><path d="m172.58 423.7h21.886v83.71h-21.886v-83.71"/><path d="m274 507.41l-40.17-51.23v51.23h-21.886v-83.71h21.886l40.17 51.23v-51.23h21.886v83.71h-21.886"/><path d="m311.23 507.41v-83.71h7.285l1.239-3.48h33.21l-1.239 3.48h7.315v18.405h-25.927v13.951h24.57v18.435h-24.57v14.512h25.927v18.405h-47.812"/></g><path d="m633.58 638.34c-150.19 16.282-300.38 32.504-450.58 48.756-4.631-52.3-9.291-104.59-13.922-156.86 149.75-8.495 299.5-17.02 449.22-25.514 5.073 44.538 10.176 89.08 15.279 133.62" fill="#102d5d"/><g fill="#fff"><path d="m343.63 615.83c-2.566 7.905-9.527 21.473-18.05 22.299-4.188.413-6.725-1.18-7.256-6.43-.295-2.743.442-6.02 1.239-10.913 3.864-24.747 5.781-37.05 9.645-61.56.501-3.186 1.416-7.787 1.239-9.675-.236-2.242-2.684-2.832-5.781-3.01.029-1.062.059-1.593.089-2.655 7.403-.796 11.12-1.18 18.553-1.947-5.103 31.18-7.669 46.869-12.772 78.49-.383 2.035-.796 4.749-.649 6.253.177 2.01.678 2.33 1.711 2.242 3.304-.295 7.846-11.326 9.03-14.482 1.209.56 1.799.826 3.01 1.386"/><path d="m364.4 622.1c.354 3.598 2.33 6.283 5.752 5.958 9.321-.885 19.526-33.21 18.464-43.889-.354-3.333-2.36-7.374-5.87-7.108-11.71.885-18.966 38.58-18.346 45.04m38.08-49.29c-3.215 17.786-4.808 26.694-8.02 44.627-.295 1.534-.324 2.537-.265 2.891.177 1.711 1.062 2.625 1.622 2.566 2.95-.265 6.843-10.648 8.288-13.362 1 .59 1.475.914 2.448 1.504-2.891 6.548-8.76 20.09-16.606 20.853-4.336.413-5.929-3.038-6.342-7.108-.354-3.687.413-7.492.649-11-.118.029-.147.029-.236.029-3.569 9.03-8.288 19.467-18.877 20.47-7.492.737-12.182-4.985-12.949-12.831-1.622-16.547 11.887-45.689 30.646-47.13 5.427-.413 9.06 3.097 11.533 3.186 1.799.059 3.363-3.097 4.247-4.395 1.534-.118 2.33-.177 3.864-.295"/><path d="m440.14 576.87c-.708-3.038-1.976-3.923-4.542-3.923-3.569.029-6.489 2.596-6.076 6.607.885 8.701 19.526 14.659 21 28.994 1.239 12.03-7.197 18.199-17.55 19.2-6.725.649-18.199-.472-19.14-9.734-.295-2.92 1.534-6.283 4.483-6.548 10.03-.914 7.669 14.246 16.871 13.362 3.746-.354 6.43-5.722 6.05-9.35-1.239-12.182-19.644-16.08-21-29.32-1-9.734 6.578-15.19 14.984-15.839 5.01-.383 16.488 1.032 17.225 8.111.354 3.245-1.327 5.811-4.513 6.076-4.896.383-6.813-3.333-7.787-7.639"/><path d="m486.08 573.24c-.708-2.979-1.976-3.834-4.542-3.834-3.569.029-6.489 2.537-6.076 6.489.914 8.554 19.526 14.394 21.03 28.493 1.239 11.828-7.197 17.904-17.55 18.907-6.696.649-18.199-.442-19.14-9.527-.295-2.891 1.534-6.194 4.483-6.46 10.03-.914 7.669 14.01 16.901 13.13 3.746-.354 6.401-5.663 6.02-9.232-1.268-11.975-19.674-15.78-21.03-28.817-1-9.557 6.578-14.925 14.984-15.574 5.01-.383 16.488 1 17.225 7.964.354 3.186-1.327 5.693-4.513 5.958-4.896.413-6.784-3.245-7.787-7.492"/><path d="m529.04 551.37c-3.51.265-7.138-2.537-7.58-6.519-.413-3.982 2.537-7.256 6.076-7.492 3.51-.236 7.138 2.596 7.58 6.548.413 3.952-2.566 7.197-6.076 7.462m7.551 48.43c-3.097 7.344-8.672 18.73-17.432 19.585-3.304.324-6.342-1.18-6.755-5.073-.147-1.386-.265-3.51 1.062-8.495 2.566-10.117 3.864-15.16 6.46-25.22.914-3.392 1.475-5.545 1.357-6.607-.118-1.15-.501-1.622-1.534-1.534-3.421.265-6.106 8.406-9.616 14.158-1.032-.413-1.563-.619-2.625-1.062 4.483-10.589 10.618-21.591 16.989-22.09 4.454-.324 7.167 2.537 7.58 6.253.206 1.976-.295 5.899-1.386 10.589-2.507 9.675-3.746 14.512-6.224 24.25-.649 2.537-1.062 4.129-.885 5.781.088.678.826 1.209 1.504 1.15 3.186-.295 7.521-10.264 8.849-12.86 1.062.472 1.593.708 2.655 1.18"/><path d="m585.6 592.72c-4.631 9.881-9.704 21.18-22 22.387-9.203.885-14.984-3.598-16.05-13.244-1.681-15.544 8.377-40.792 26.13-42.15 5.103-.383 13.656 1.268 14.246 6.754.442 3.775-.796 7.079-5.132 7.433-4.188.354-6.43-2.242-6.843-6.02-.531-4.837-1.209-5.693-4.04-5.486-9.999.767-12.477 30.439-11.621 38.2.796 7.374 2.743 9.203 7.403 8.76 7.167-.678 12.09-12.06 14.925-17.638 1.18.413 1.799.59 2.979 1"/><path d="m300.13 611.28c-2.655 13.627-3.982 20.47-6.637 34.19-1.239-.295-1.858-.413-3.068-.708.708-2.271-1.534-3.657-4.247-3.392-2.832.265-10.235 5.811-20.44 6.813-20.647 2.035-38.14-12.447-39.996-35.926-2.566-32.475 19.497-72.68 54.21-75.66 8.406-.708 17.02 3.156 24.599 7.846 1.77-1.032 2.655-1.534 4.395-2.566.855.678 1.268 1.032 2.124 1.74-2.094 12.801-3.127 19.2-5.221 32.06-1.681-.236-2.537-.324-4.218-.56-.059-2.153-.177-4.601-.413-7.05-1.239-13.07-5.604-29.732-19.349-27.667-29.85 4.483-38.787 50.32-36.575 78.02 1 12.742 8.347 26.989 21.237 25.72 15.1-1.445 24.22-20.735 29.555-34.392 1.622.619 2.419.914 4.04 1.534"/><path d="m480.51 477.44v30.14c0 1.121-.206 1.563-1.121 1.563h-22.977c-.767 0-1.239-.56-1.239-1.357v-30.12c0-1.239-.442-1.681-1.445-1.681h-29.791c-.914 0-1.357-.56-1.357-1.593v-22.83c0-.914.354-1.327 1.239-1.327h30.03c.885 0 1.327-.472 1.327-1.475v-25.868c0-.678.472-1.121 1.121-1.121h22.889c.885 0 1.327.324 1.327 1.121v25.868c0 1.209.236 1.475 1.239 1.475h30.03c.885 0 1.239.413 1.239 1.445v22.948c0 .796-.442 1.357-1.239 1.357h-29.702c-1.209 0-1.563.236-1.563 1.445"/></g></g></svg>