<svg xmlns="http://www.w3.org/2000/svg" viewBox="0 0 600 355.63"><defs><clipPath id="0"><path d="m44.29 321.97h21.912v10.372h-21.912v-10.372"/></clipPath><clipPath id="1"><path d="m45.814 322.33h16.894v10.01h-16.894v-10.01"/></clipPath></defs><g transform="translate(-131.43-680.26)"><g clip-path="url(#0)" transform="matrix(35.51703 0 0-35.51703-1495.75 12484.1)"><path d="m45.814 326.5h13.875v4.382h-13.875v-4.382" fill="#413d46"/><g fill="#fff"><path d="m0 0c0-.036-.03-.065-.092-.088-.173-.059-.334-.088-.484-.088-.226 0-.442.055-.652.17-.419.231-.652.619-.652 1.097 0 .264.073.502.214.717.143.215.337.375.579.476.157.068.324.1.504.1.121 0 .252-.019.393-.055.043-.001.075-.023.105-.036l.036-.016c.029-.013.046-.036.046-.065v-.629c0-.016-.007-.023-.017-.023-.003 0-.013.007-.029.017-.049.048-.121.088-.216.12-.102.036-.193.052-.272.052-.285 0-.524-.15-.632-.4-.036-.082-.052-.17-.052-.264 0-.186.068-.336.206-.453.128-.108.285-.163.472-.163.212 0 .376.059.497.179.001.013.02.02.026.02.013 0 .02-.02.02-.062v-.606" transform="translate(48.43 327.68)"/><path d="m48.901 327.57h.638v2.443h-.638v-2.443"/><path d="m0 0l-1.172 1.495v-1.495h-.639v2.443h.639l1.172-1.495v1.495h.638v-2.443h-.638" transform="translate(51.861 327.57)"/></g></g><g clip-path="url(#1)" transform="matrix(35.51703 0 0-35.51703-1495.75 12484.1)"><path d="m0 0v2.443h.213l.036.101h.969l-.036-.101h.213v-.538h-.756v-.407h.717v-.537h-.717v-.424h.756v-.537h-1.395" fill="#fff" transform="translate(52.947 327.57)"/><path d="m0 0c-4.382-.474-8.764-.948-13.147-1.423-.162 1.832-.244 2.747-.406 4.578 4.369.248 8.738.496 13.11.744.179-1.559.267-2.34.446-3.899" fill="#33a077" transform="translate(62.35 323.75)"/></g><g clip-path="url(#0)" transform="matrix(35.51703 0 0-35.51703-1495.75 12484.1)"><g fill="#fbfbfb"><path d="m0 0c-.069.027-.104.041-.173.069-.064-.04-.096-.06-.16-.1-.11-.022-.165-.034-.275-.056-.013-.066-.019-.099-.031-.165.019-.096.03-.144.05-.24.006-.051.009-.077.015-.129.015-.132.022-.198.037-.331.031-.015.047-.023.078-.038.111.012.167.019.278.031.051-.017.077-.026.128-.043.033-.054.05-.08.083-.134-.003-.063-.004-.095-.007-.159-.014-.025-.022-.038-.036-.063-.178-.03-.267-.045-.445-.075-.026-.034-.039-.052-.066-.087.037-.423.055-.634.092-1.058-.04-.059-.06-.089-.1-.148-.065-.009-.097-.013-.162-.021-.046.059-.07.089-.116.148-.015.32-.022.479-.037.798-.036.324-.055.486-.091.809.011.088.016.132.027.219-.024.218-.036.328-.06.546 0 .165 0 .248 0 .412.025.024.038.037.063.061.049.005.073.007.122.013.042.036.063.054.105.091.171.005.256.007.427.012.059-.017.088-.025.146-.043.066-.005.098-.008.164-.013.024-.031.036-.046.06-.076.005-.053.008-.08.012-.133-.051-.039-.077-.058-.129-.097" transform="translate(50.796 325.89)"/><path d="m0 0c-.036.051-.054.077-.09.128-.121-.011-.181-.017-.302-.029.0001-.169.015-.254.025-.424 0-.073-.002-.11-.004-.184.015-.129.023-.194.038-.323.03.004.044.006.074.0001.108.023.162.034.271.057.025.055.037.082.062.136-.03.252-.044.377-.074.629m.579-2.354c-.061-.049-.091-.073-.152-.122-.038.006-.057.008-.094.014-.036.048-.054.073-.09.122-.032.114-.049.172-.081.286-.018.072-.027.107-.045.179-.028.071-.042.106-.07.176-.033.137-.049.206-.082.343-.026.05-.039.075-.065.125-.043.029-.063.042-.106.07-.027-.003-.04-.005-.067-.009-.025-.035-.037-.053-.062-.089.041-.371.062-.557.105-.928.008-.073.012-.109.02-.181-.015-.036-.023-.053-.038-.088-.015-.021-.023-.031-.038-.052-.059-.007-.088-.011-.147-.018-.043.058-.064.086-.106.145-.063.638-.094.957-.157 1.596-.006.052-.009.078-.015.13-.025.311-.038.465-.062.775.008.076.013.114.021.19.009.011.013.017.022.029.062.036.093.054.155.09.046.014.07.021.117.036.173-.007.259-.0001.433-.015.059-.025.089-.037.147-.062.033-.029.049-.044.082-.073.041-.133.061-.2.102-.333.015-.127.023-.19.038-.317.024-.208.036-.313.06-.52-.062-.124-.093-.186-.155-.31.029-.082.044-.123.073-.204.091-.301.136-.451.228-.751.023-.026.035-.039.059-.065-.012-.068-.018-.102-.03-.169" transform="translate(52.36 325.84)"/><path d="m0 0c-.082-.009-.122-.014-.204-.024-.043.035-.065.052-.108.086-.065.552-.097.827-.162 1.378-.008.072-.013.108-.021.179-.011.346-.017.519-.027.865-.011.093-.016.14-.026.232.04.055.06.082.1.136.03-.004.045-.007.076-.011.015 0 .022.002.038.002.021-.018.033-.028.054-.046.024-.198.035-.296.059-.494-.013-.052-.02-.079-.033-.131-.031-.046-.047-.069-.078-.115.052-.046.077-.069.129-.115-.018-.063-.028-.095-.046-.159.041-.04.062-.06.103-.101 0-.104.002-.157.004-.26.03-.249.045-.373.075-.621.027-.141.04-.211.066-.353.015-.126.023-.189.038-.315-.015-.053-.022-.08-.037-.133" transform="translate(54.14 323.59)"/><path d="m0 0c-.072-.038-.108-.057-.179-.095-.068-.018-.102-.029-.17-.047-.035-.005-.052-.008-.088-.013-.069.021-.103.031-.172.052-.082.054-.124.081-.206.134-.046.056-.07.084-.117.14-.016.131-.024.196-.039.328.034.037.052.056.086.093.058-.004.086-.006.143-.0001.036-.047.054-.069.09-.115.014-.064.02-.096.034-.159.075-.04.113-.06.188-.101.064.018.095.028.159.046.038.076.057.114.095.189-.002.092-.003.137-.005.229-.009.071-.013.107-.022.178-.039.077-.059.116-.098.194-.019.02-.028.029-.047.049-.148.015-.222.023-.37.038-.071.043-.106.065-.178.108-.052.056-.078.084-.131.14-.03.079-.045.119-.076.198-.027.226-.04.339-.067.566.037.105.055.156.091.261.067.082.101.122.168.204.072.035.107.053.179.088.102 0 .153 0 .255-.002.062-.023.093-.035.155-.058.055-.067.082-.1.137-.167.016-.05.025-.076.041-.126-.017-.024-.026-.036-.043-.06.007-.059.0001-.089.018-.148-.018-.022-.026-.034-.044-.056-.015-.003-.023-.004-.038-.007-.08.086-.12.129-.199.215-.019.018-.028.027-.047.046-.094-.029-.141-.044-.234-.074-.024-.125-.037-.187-.061-.311.024-.112.035-.168.059-.28.005-.032.008-.048.012-.08.072-.053.108-.078.18-.131.098-.012.147-.018.245-.03.093-.083.14-.124.234-.206.051-.219.078-.328.13-.546.007-.032.0001-.048.018-.078.0001-.141.015-.211.024-.352-.044-.097-.066-.147-.11-.244" transform="translate(55.833 323.81)"/><path d="m0 0c.072.035.107.052.179.087.068.016.102.024.169.041.035.004.053.005.088.009.069-.023.103-.033.172-.056.082-.054.123-.081.206-.136.046-.055.07-.082.117-.137.016-.127.024-.19.04-.318-.035-.035-.052-.053-.087-.088-.057.004-.086.007-.143.012-.036.045-.054.068-.09.113-.013.062-.02.093-.033.155-.076.04-.113.061-.188.102-.064-.016-.096-.024-.159-.04-.038-.073-.057-.11-.095-.184.003-.09.004-.135.006-.225.008-.07.013-.105.021-.175.04-.077.059-.116.098-.192.019-.02.029-.03.048-.049.148-.016.221-.023.37-.038.071-.042.106-.063.177-.105.053-.055.08-.081.132-.135.03-.077.046-.115.077-.191.027-.219.041-.328.068-.547-.037-.102-.055-.153-.091-.255-.067-.082-.101-.122-.168-.204-.072-.037-.107-.055-.179-.092-.102-.003-.154-.004-.256-.007-.062.021-.093.032-.155.053-.055.064-.082.096-.137.161-.017.049-.025.074-.042.124.018.024.026.036.044.061-.008.058-.011.087-.019.145.018.023.027.034.044.058.016.002.023.003.039.006.08-.083.119-.124.199-.207.019-.018.029-.027.047-.045.094.032.141.047.234.079.025.122.037.183.061.306-.024.108-.036.163-.06.271-.005.031-.007.047-.012.078-.072.051-.108.076-.18.127-.098.012-.147.018-.245.029-.086.081-.13.122-.216.204-.037.218-.055.327-.091.544-.023.03-.035.045-.058.075-.017.14-.025.209-.042.348.044.096.066.143.11.238" transform="translate(56.51 326.59)"/><path d="m0 0c-.095.002-.143.003-.238.005-.025-.044-.038-.066-.063-.111-.004-.116-.007-.175-.012-.291.027-.045.04-.068.066-.113.013-.24.019-.361.032-.601.016-.126.025-.188.041-.313.005-.168.007-.251.012-.42.033-.044.05-.066.083-.109.099-.019.149-.028.247-.047.035.036.052.054.087.089.015.08.023.121.039.202-.042.387-.063.581-.104.969-.023.254-.035.381-.058.636-.053.041-.079.062-.132.104m.634-1.889c-.028-.084-.042-.125-.071-.209-.077-.07-.116-.106-.194-.176-.063-.025-.094-.038-.157-.064-.087 0-.131-.002-.217-.003-.091.036-.137.055-.228.092-.066.072-.099.107-.165.18-.034.106-.051.159-.085.266.016.04.024.06.04.099-.008.12-.011.179-.018.298.018.071.027.107.045.178-.005.038-.008.057-.013.095-.056.146-.083.219-.139.365-.026.193-.039.29-.065.483.022.061.033.092.055.152-.009.072-.014.107-.023.179.108.107.162.159.27.265.045.015.068.022.113.037.095 0 .143 0 .238-.002.092-.04.138-.059.23-.099.066-.072.099-.109.165-.181.039-.297.059-.447.098-.744.0001-.078.015-.117.025-.194.015-.118.023-.176.038-.293.023-.29.035-.435.058-.724" transform="translate(58.844 326.37)"/><path d="m0 0c.036-.276.055-.414.092-.69-.022-.059-.033-.089-.055-.148-.026-.023-.039-.034-.065-.057-.046-.006-.07-.008-.116-.015-.051.034-.076.051-.127.085-.058.137-.087.206-.146.344-.022.027-.034.04-.057.066-.017.057-.026.084-.043.14-.02.027-.031.04-.051.068-.033.09-.049.135-.082.226-.052.101-.079.152-.131.254-.019.017-.029.026-.048.043-.017-.021-.026-.032-.043-.054.008-.221.013-.332.022-.553.029-.218.044-.326.074-.544-.023-.053-.034-.08-.057-.132-.025-.014-.038-.021-.064-.036-.029-.002-.044-.004-.074-.007-.063.059-.095.088-.158.147-.008.207-.011.31-.018.517-.048.44-.072.66-.12 1.1-.004.07-.006.105-.009.176-.014.258-.021.386-.036.644.019.011.029.017.047.028.058-.005.086-.007.143-.012.079-.097.118-.146.197-.242.018-.059.027-.089.045-.148.034-.043.052-.065.086-.108.091-.176.136-.264.226-.439.031-.083.046-.125.077-.209.023-.023.034-.036.057-.059.007 0 .0001 0 .017 0-.021.382-.032.573-.053.954-.014.095-.02.143-.033.237.025.039.038.059.063.097.065.008.097.011.161.018.028-.055.041-.083.069-.139.025-.113.038-.169.064-.283.03-.11.046-.165.077-.275.027-.397.041-.597.069-.995" transform="translate(61.28 325.21)"/></g><path d="m0 0v-.879c0-.033-.007-.046-.033-.046h-.67c-.023 0-.036.016-.036.039v.879c0 .037-.013.05-.042.05h-.87c-.026 0-.039.016-.039.045v.667c0 .026.001.039.036.039h.876c.026 0 .039.013.039.043v.755c0 .019.013.032.033.032h.667c.026 0 .039-.009.039-.032v-.755c0-.036.007-.043.036-.043h.876c.026 0 .036-.013.036-.042v-.671c0-.022-.013-.038-.036-.038h-.866c-.036 0-.046-.007-.046-.043" fill="#fff" transform="translate(57.887 328.45)"/><path d="m0 0c-.097.73-.195 1.461-.292 2.191h-4.674c.194-.95.389-1.899.584-2.849 1.46.22 2.921.439 4.382.658" fill="#eb1f26" transform="translate(62.707 330.15)"/><g fill="#fff"><path d="m0 0c-.049.266-.073.4-.122.667-.237-.019-.355-.028-.592-.046.053-.276.079-.413.132-.689-.162-.019-.242-.028-.404-.047-.112.569-.224 1.139-.336 1.708.168.005.253.006.421.011.049-.259.074-.388.123-.647.239.014.358.021.596.035-.045.25-.068.375-.114.626.168.004.253.006.421.001.093-.527.186-1.054.279-1.581-.162-.019-.243-.028-.404-.047" transform="translate(59.855 330.29)"/><path d="m0 0c-.038 0-.057-.002-.094-.004.054-.335.081-.503.135-.838.037.003.056.005.092.008.27.026.421.203.384.448-.037.246-.241.398-.517.386m.285-1.149c-.238-.028-.357-.042-.594-.07-.086.512-.173 1.023-.259 1.535.248.005.371.008.619.014.409-.002.836-.284.897-.686.058-.385-.274-.741-.663-.793" transform="translate(61.07 331.62)"/></g></g></g></svg>