<svg xmlns="http://www.w3.org/2000/svg" viewBox="0 0 600 102.89"><g transform="translate(19.945-258.37)"><g fill="#30b4b6"><path d="m4.144 281.51c-19 0-24.09 8.03-24.09 30.11v10.177c0 22.09 5.085 30.12 24.09 30.12 16.334 0 23.16-6.157 23.16-21.02v-5.222h-18.873v5.358c0 6.287-.935 9.365-4.819 9.365-3.877 0-4.683-3.078-4.683-9.365v-28.641c0-6.293.935-9.372 4.819-9.372 3.877 0 5.215 2.676 5.215 8.43v4.02h18.341v-2.949c0-14.853-6.826-21.01-23.16-21.01"/><path d="m32.75 350.3h18.873v-67.19h-18.873v67.19"/><path d="m32.75 273.89h18.873v-15.522h-18.873v15.522"/><path d="m91.23 281.51c-5.488 0-10.03 3.078-14.32 9.365l-.532-7.761h-18.341v67.19h18.873v-46.975c0-5.624 1.072-8.164 4.287-8.164 3.345 0 4.01 2.805 4.01 8.164v46.975h19v-48.989c0-13.515-2.409-19.802-12.983-19.802"/><path d="m133.31 281.51c-18.471 0-23.562 8.278-23.562 30.09v10.187c0 21.945 5.091 30.12 24.09 30.12 16.327 0 23.16-6.308 23.16-21.03v-2.281h-18.19v2.406c0 6.287-1.064 9.375-5.344 9.375-3.884 0-4.844-3.088-4.844-9.375v-11.375h28.375v-8.03c0-22.21-4.951-30.09-23.687-30.09m.406 10.687c4.15 0 5.094 3.353 5.094 9.906v6.844h-10.187v-6.844c0-6.689.95-9.906 5.094-9.906"/><path d="m269.87 268.76c-20.03 0-27.922 3.99-29.22 19.219-1.652-5.467-5.11-7.219-12.03-7.219-6.177 0-10.637 2.392-15.312 9.375-1.099-6.566-5.846-9.375-13-9.375-5.638 0-9.961 2.115-14.344 8.531l-.344-6.969h-20.09v70.06h20.375v-48.22c0-5.747.671-8.219 4.125-8.219 3 0 3.75 2.601 3.75 8.219v48.22h20.5v-48.781c-.007-5.42.656-7.656 4.062-7.656 3.01 0 3.688 2.282 3.688 7.75v48.687h18.16c2.867 6.307 8.149 8.875 16.16 8.875 7.372 0 12.916-3.705 18.06-11.937l1.125 9.906h23.906v-6.844h16.5.687l.344-.594 9.844-17.5 9.781 17.5.344.594h.688 21.531 2.094l-1.031-1.75-19.906-34.593 18.531-32.31 1-1.781h-2.063-21.531-.719l-.344.625-8.344 15.187-8.406-15.187-.344-.625h-.719-19.562c-3.16-9.542-11.323-13.187-27.937-13.187zm-.875 15.375c4.921 0 5.406 4.283 5.406 11.969v6.094c-16.641.997-26.428 2.987-31.875 9.06v-9.687c0-1.979-.071-3.789-.188-5.25h20.22v-1.625c0-7.351 1.325-10.562 6.437-10.562m30.375 7.593l13.875 24.25v.031l-13.812 24.03v-45.499c0-.99-.028-1.905-.063-2.813m-25 25.592v16.969c0 7.72-.971 11.25-5.906 11.25-4.921.007-6-3.53-6-11.25v-5.406c0-8.06 2.923-10.689 11.906-11.562"/><path d="m367.34 281.58c-2.423 0-4.469 1.916-4.469 4.469 0 2.58 2.046 4.437 4.469 4.437 2.396 0 4.437-1.857 4.437-4.437 0-2.553-2.042-4.469-4.437-4.469m0 .75c1.986 0 3.563 1.61 3.563 3.719 0 2.143-1.576 3.719-3.563 3.719-2.01 0-3.563-1.575-3.563-3.719 0-2.109 1.549-3.719 3.563-3.719m-1.688 1.156v5.125h.75v-2.219h.906l1.313 2.219h.875l-1.438-2.25c.744-.096 1.313-.516 1.313-1.438 0-1.01-.611-1.438-1.813-1.438h-1.906m.75.656h1.063c.532 0 1.094.108 1.094.75 0 .785-.57.844-1.219.844h-.937v-1.594"/></g><g fill="#928e89"><path d="m497.01 281.98h9.754v68.11h-9.754v-29.644h-38.28v29.644h-9.747v-68.11h9.747v29.446h38.28v-29.446"/><path d="m517.46 281.98v68.03h21.531c6.05 0 10.162-.19 12.312-.531 2.15-.348 4.489-1.021 7.06-2.031 4.382-1.652 8.238-4.088 11.562-7.344 3.235-3.154 5.746-6.812 7.5-10.969 1.761-4.164 2.625-8.51 2.625-13.06 0-6.368-1.6-12.257-4.781-17.656-3.194-5.392-7.489-9.503-12.875-12.281-5.392-2.778-12.73-4.156-22-4.156h-22.937m9.751 8.688h12.187c4.683 0 8.07.176 10.187.531 2.109.362 4.332 1.089 6.687 2.188 2.362 1.113 4.459 2.53 6.281 4.25 4.942 4.614 7.406 10.564 7.406 17.875 0 7.447-2.4 13.626-7.219 18.5-1.488 1.495-3.153 2.764-4.969 3.781-1.802 1.024-4.02 1.869-6.719 2.531-2.703.669-6.501 1-11.375 1h-12.469v-50.656z"/></g><path fill="#30b4b6" d="m376.85 293.47c0-3.795.956-13.46 5.788-19.399 4.382-5.536 12.416-7.672 21.05-7.433 21.15.232 24.914 12.518 25.406 24.935.355 9.44-3.563 16.416-7.454 21.255-4.853 6.396-23.276 20.559-25.17 30.73h31.904v17.488h-53.41v-6.03c0-22.798 13.467-35.08 24.709-45.49 5.058-4.614 8.355-11.918 8.355-17.952.246-5.092-.928-8.983-5.529-8.983-5.563 0-6.03 4.368-6.03 8.983v9.222h-19.617v-7.324z"/></g></svg>