<svg xmlns="http://www.w3.org/2000/svg" viewBox="0 0 600 115.14"><g transform="translate(-54.18-408.05)"><g fill="#928e89"><path d="m561.25 436.53h10.916v76.22h-10.916v-33.17h-42.831v33.17h-10.909v-76.22h10.909v32.958h42.831v-32.958"/><path d="m584.12 436.53v76.12h24.12c6.77 0 11.342-.187 13.75-.562 2.407-.39 5.03-1.147 7.906-2.281 4.905-1.851 9.229-4.611 12.937-8.25 3.632-3.527 6.451-7.602 8.406-12.25 1.969-4.662 2.937-9.539 2.937-14.625 0-7.132-1.788-13.711-5.344-19.75-3.576-6.04-8.367-10.64-14.406-13.75-6.03-3.11-14.22-4.656-24.593-4.656h-25.718m10.905 9.719h13.656c5.239 0 9.04.197 11.406.594 2.359.404 4.87 1.237 7.5 2.469 2.644 1.238 4.968 2.823 7 4.75 5.531 5.163 8.312 11.811 8.312 20 0 8.328-2.702 15.232-8.094 20.687-1.67 1.67-3.506 3.078-5.531 4.219-2.02 1.148-4.536 2.099-7.562 2.844-3.03.744-7.271 1.125-12.719 1.125h-13.969v-56.687z"/></g><g fill="#f08900"><path d="m81.14 433.94c-21.262 0-26.96 8.982-26.96 33.695v11.389c0 24.713 5.698 33.695 26.96 33.695 18.277 0 25.917-6.888 25.917-23.51v-5.851h-21.12v5.997c0 7.04-1.051 10.485-5.392 10.485s-5.239-3.444-5.239-10.485v-32.05c0-7.04 1.044-10.485 5.392-10.485 4.341 0 5.837 2.999 5.837 9.434v4.495h20.525v-3.291c0-16.628-7.639-23.516-25.917-23.516"/><path d="m113.15 510.92h21.12v-75.18h-21.12v75.18"/><path d="m113.15 425.42h21.12v-17.373h-21.12v17.373"/><path d="m178.6 433.94c-6.143 0-11.236 3.444-16.03 10.478l-.598-8.683h-20.518v75.19h21.12v-52.57c0-6.297 1.204-9.142 4.794-9.142 3.743 0 4.495 3.145 4.495 9.142v52.57h21.269v-54.818c0-15.13-2.693-22.17-14.527-22.17"/><path d="m225.69 433.94c-20.671 0-26.375 9.273-26.375 33.687v11.406c0 24.56 5.699 33.687 26.968 33.687 18.27 0 25.906-7.02 25.906-23.5v-2.562h-20.375v2.687c0 7.04-1.175 10.5-5.969 10.5-4.349 0-5.406-3.459-5.406-10.5v-12.719h31.749v-9c0-24.859-5.536-33.687-26.5-33.687zm.437 11.969c4.641 0 5.687 3.753 5.687 11.09v7.656h-11.375v-7.656c0-7.493 1.04-11.09 5.687-11.09"/><path d="m378.5 419.66c-22.417 0-31.23 4.485-32.687 21.531-1.844-6.116-5.7-8.094-13.437-8.094-6.923 0-11.931 2.687-17.16 10.5-1.238-7.34-6.53-10.5-14.531-10.5-6.31 0-11.188 2.382-16.09 9.562l-.375-7.812h-22.468v78.4h22.781v-53.937c.007-6.429.757-9.187 4.625-9.187 3.353 0 4.187 2.898 4.187 9.187v53.937h22.968v-54.56c-.007-6.067.687-8.562 4.5-8.562 3.374 0 4.156 2.54 4.156 8.656v54.47h20.312c3.214 7.05 9.132 9.937 18.09 9.937 8.252 0 14.458-4.132 20.22-13.344l1.25 11.06h26.718v-7.625h18.468.781l.406-.687 11-19.562 10.937 19.562.406.687h.75 24.12 2.313l-1.156-2-22.281-38.687 20.75-36.16 1.125-2h-2.313-24.09-.812l-.375.687-9.344 17-9.406-17-.375-.687h-.812-21.875c-3.534-10.68-12.69-14.781-31.28-14.781zm-.969 17.25c5.517 0 6.06 4.768 6.06 13.375v6.812c-18.618 1.12-29.592 3.352-35.687 10.156v-10.844c0-2.219-.062-4.233-.188-5.875h22.593v-1.813c0-8.224 1.507-11.812 7.219-11.812m33.969 8.469l15.562 27.16v.031l-15.5 26.875v-50.905c0-1.106-.021-2.14-.063-3.156m-27.968 28.655v19c0 8.627-1.069 12.562-6.594 12.562-5.51.007-6.719-3.935-6.719-12.562v-6.06c0-9.02 3.266-11.963 13.312-12.937"/><path d="m487.56 434.03c-2.7 0-4.969 2.109-4.969 4.969 0 2.887 2.269 5 4.969 5 2.686 0 5-2.113 5-5 0-2.86-2.314-4.969-5-4.969m0 .844c2.233 0 4 1.766 4 4.125 0 2.4-1.767 4.156-4 4.156-2.247 0-4-1.756-4-4.156 0-2.359 1.753-4.125 4-4.125m-1.875 1.281v5.75h.844v-2.5h1l1.5 2.5h.937l-1.594-2.563c.828-.104 1.469-.533 1.469-1.563 0-1.134-.664-1.625-2-1.625h-2.156m.844.719h1.188c.598 0 1.219.134 1.219.844 0 .884-.651.937-1.375.937h-1.031v-1.781"/></g></g></svg>