<svg xmlns="http://www.w3.org/2000/svg" viewBox="0 0 600 178.24" xmlns:xlink="http://www.w3.org/1999/xlink"><defs><linearGradient id="M" gradientUnits="userSpaceOnUse" x1="679.01" x2="702.16" y1="-114.3" y2="-133.52"><stop stop-color="#231f20"/><stop stop-color="#231f20" offset=".102"/><stop stop-color="#231f20" offset=".37"/><stop stop-color="#989696" offset=".459"/><stop stop-color="#989696" offset=".541"/><stop stop-color="#989696" offset=".568"/><stop stop-color="#353132" offset=".681"/><stop stop-color="#231f20" offset="1"/></linearGradient><linearGradient id="L" gradientUnits="userSpaceOnUse" x1="676.23" x2="684.38" y1="-83.47" y2="-85.65"><stop stop-color="#423e3f"/><stop stop-color="#565353" offset=".247"/><stop stop-color="#565353" offset=".25"/><stop stop-color="#231f20" offset=".287"/><stop stop-color="#231f20" offset="1"/></linearGradient><linearGradient id="V" gradientUnits="userSpaceOnUse" x1="224.58" x2="263.71" y1="-70.38" y2="-133.97"><stop stop-color="#231f20"/><stop stop-color="#231f20" offset=".031"/><stop stop-color="#5a5758" offset=".182"/><stop stop-color="#231f20" offset=".376"/><stop stop-color="#2e2a2b" offset=".573"/><stop stop-color="#2e2a2b" offset="1"/></linearGradient><linearGradient id="K" gradientUnits="userSpaceOnUse" x1="682.78" x2="707.95"><stop stop-color="#231f20"/><stop stop-color="#353132" offset="1"/></linearGradient><linearGradient id="I" gradientUnits="userSpaceOnUse" x1="555.55" x2="568" y1="-40.907" y2="-60.98"><stop stop-color="#231f20"/><stop stop-color="#231f20" offset=".063"/><stop stop-color="#4b4748" offset=".281"/><stop stop-color="#4b4748" offset=".424"/><stop stop-color="#4b4748" offset=".538"/><stop stop-color="#231f20" offset=".809"/><stop stop-color="#231f20" offset="1"/></linearGradient><linearGradient id="H" gradientUnits="userSpaceOnUse" x2="0" y1="-185.29" y2="-183.4"><stop stop-color="#918f90"/><stop stop-color="#3b3839" offset="1"/></linearGradient><linearGradient id="J" gradientUnits="userSpaceOnUse" x1="679.01" x2="701.27" y1="-160.16" y2="-129.82"><stop stop-color="#373334"/><stop stop-color="#373334" offset=".096"/><stop stop-color="#5e5b5c" offset=".157"/><stop stop-color="#5e5b5c" offset=".223"/><stop stop-color="#4b4748" offset=".253"/><stop stop-color="#4b4748" offset=".286"/><stop stop-color="#353132" offset=".422"/><stop stop-color="#231f20" offset="1"/></linearGradient><linearGradient id="N" gradientUnits="userSpaceOnUse" x2="0" y1="-38.765" y2="-40.511"><stop stop-color="#231f20"/><stop stop-color="#231f20" offset=".075"/><stop stop-color="#706d6e" offset=".706"/><stop stop-color="#706d6e" offset=".787"/><stop stop-color="#706d6e" offset=".851"/><stop stop-color="#3d3a3b" offset="1"/></linearGradient><linearGradient id="U" gradientUnits="userSpaceOnUse" x1="149.96" x2="262.85"><stop stop-color="#b4b3b3"/><stop stop-color="#b4b3b3" offset=".015"/><stop stop-color="#fff" offset=".223"/><stop stop-color="#fff" offset=".256"/><stop stop-color="#e9e9e9" offset=".512"/><stop stop-color="#e9e9e9" offset=".631"/><stop stop-color="#231f20" offset=".821"/><stop stop-color="#777475" offset=".835"/><stop stop-color="#777475" offset=".865"/><stop stop-color="#464344" offset=".883"/><stop stop-color="#5a5758" offset=".903"/><stop stop-color="#231f20" offset=".959"/><stop stop-color="#2e2a2b" offset="1"/></linearGradient><linearGradient id="T" gradientUnits="userSpaceOnUse" x1="318.49" x2="348.51"><stop stop-color="#231f20"/><stop stop-color="#3b3839" offset=".466"/><stop stop-color="#231f20" offset=".781"/><stop stop-color="#231f20" offset="1"/></linearGradient><linearGradient id="O" gradientUnits="userSpaceOnUse" x1="194.65" x2="209.16" y1="-107.29" y2="-98.72"><stop stop-color="#231f20"/><stop stop-color="#5a5758" offset=".182"/><stop stop-color="#2e2a2b" offset=".693"/><stop stop-color="#2e2a2b" offset="1"/></linearGradient><linearGradient id="S" gradientUnits="userSpaceOnUse" x1="720.01" x2="638.79" y1="-103.04" y2="-192.78" xlink:href="#M"/><linearGradient id="Q" gradientUnits="userSpaceOnUse" x1="323.05" x2="352.49" y1="-69.902" y2="-64.14"><stop stop-color="#231f20"/><stop stop-color="#231f20" offset=".146"/><stop stop-color="#a5a3a4" offset=".398"/><stop stop-color="#a5a3a4" offset=".464"/><stop stop-color="#a5a3a4" offset=".53"/><stop stop-color="#deddde" offset=".638"/><stop stop-color="#deddde" offset=".717"/><stop stop-color="#231f20" offset=".847"/><stop stop-color="#231f20" offset="1"/></linearGradient><linearGradient id="P" gradientUnits="userSpaceOnUse" x1="283.15" x2="359.04" y1="-104.12" y2="-93.57"><stop stop-color="#231f20"/><stop stop-color="#ebebeb" offset=".127"/><stop stop-color="#ebebeb" offset=".184"/><stop stop-color="#ebebeb" offset=".257"/><stop stop-color="#706d6e" offset=".58"/><stop stop-color="#231f20" offset=".898"/><stop stop-color="#231f20" offset="1"/></linearGradient><linearGradient id="R" gradientUnits="userSpaceOnUse" x1="544.67" x2="570.07" y1="-82.45" y2="-75.997"><stop stop-color="#231f20"/><stop stop-color="#231f20" offset=".161"/><stop stop-color="#231f20" offset=".501"/><stop stop-color="#706d6e" offset=".787"/><stop stop-color="#706d6e" offset=".85"/><stop stop-color="#231f20" offset=".998"/><stop stop-color="#231f20" offset="1"/></linearGradient><linearGradient id="G" gradientUnits="userSpaceOnUse" x1="403.16" x2="402.41" y1="-188.41" y2="-119.77"><stop stop-color="#231f20"/><stop stop-color="#231f20" offset=".154"/><stop stop-color="#706d6e" offset=".181"/><stop stop-color="#706d6e" offset=".286"/><stop stop-color="#231f20" offset=".335"/><stop stop-color="#231f20" offset="1"/></linearGradient><linearGradient id="5" gradientUnits="userSpaceOnUse" x1="688.59" x2="691.44" y1="-154.02" y2="-131.72"><stop stop-color="#373334"/><stop stop-color="#373334" offset=".096"/><stop stop-color="#5e5b5c" offset=".157"/><stop stop-color="#5e5b5c" offset=".223"/><stop stop-color="#4b4748" offset=".253"/><stop stop-color="#4b4748" offset=".286"/><stop stop-color="#353132" offset=".422"/><stop stop-color="#3d3a3b" offset=".855"/><stop stop-color="#3d3a3b" offset="1"/></linearGradient><linearGradient id="4" gradientUnits="userSpaceOnUse" x1="353.5" x2="316.33" y1="-5.613" y2="-113.56"><stop stop-color="#231f20"/><stop stop-color="#231f20" offset=".015"/><stop stop-color="#3d3a3b" offset=".152"/><stop stop-color="#3d3a3b" offset=".174"/><stop stop-color="#353132" offset=".39"/><stop stop-color="#d5d4d5" offset=".405"/><stop stop-color="#c4c3c3" offset=".417"/><stop stop-color="#393536" offset=".434"/><stop stop-color="#393536" offset=".444"/><stop stop-color="#393536" offset=".454"/><stop stop-color="#5c595a" offset=".528"/><stop stop-color="#393536" offset=".624"/><stop stop-color="#393536" offset=".833"/><stop stop-color="#464344" offset="1"/></linearGradient><linearGradient id="F" gradientUnits="userSpaceOnUse" x1="689.47" x2="691" y1="-131.28" y2="-108.85"><stop stop-color="#3d3a3b"/><stop stop-color="#4b4748" offset=".323"/><stop stop-color="#4b4748" offset=".348"/><stop stop-color="#797677" offset=".453"/><stop stop-color="#2c2829" offset=".52"/><stop stop-color="#2c2829" offset=".577"/><stop stop-color="#2c2829" offset=".628"/><stop stop-color="#fff" offset=".68"/><stop stop-color="#fff" offset=".711"/><stop stop-color="#2e2a2b" offset=".746"/><stop stop-color="#2e2a2b" offset="1"/></linearGradient><linearGradient id="3" gradientUnits="userSpaceOnUse" x1="676.57" x2="706.68"><stop stop-color="#353132"/><stop stop-color="#484546" offset="1"/></linearGradient><linearGradient id="1" gradientUnits="userSpaceOnUse" x2="0" y1="-10.07" y2="-185.16"><stop stop-color="#2e2a2b"/><stop stop-color="#2e2a2b" offset=".377"/><stop stop-color="#393536" offset=".777"/><stop stop-color="#4f4c4d" offset="1"/></linearGradient><linearGradient id="0" gradientUnits="userSpaceOnUse" x1="573.98" x2="581.4" y1="-49.911" y2="-9.403"><stop stop-color="#302c2d"/><stop stop-color="#302c2d" offset=".003"/><stop stop-color="#302c2d" offset=".389"/><stop stop-color="#444141" offset="1"/></linearGradient><linearGradient id="2" gradientUnits="userSpaceOnUse" x1="201.23" x2="210.31" y1="-101.9" y2="-153.37"><stop stop-color="#353132"/><stop stop-color="#353132" offset=".53"/><stop stop-color="#231f20" offset=".951"/><stop stop-color="#393536" offset=".958"/><stop stop-color="#393536" offset=".974"/><stop stop-color="#373334" offset="1"/></linearGradient><linearGradient id="6" gradientUnits="userSpaceOnUse" x1="295.84" x2="342.08" y1="-43.685" y2="-148.16"><stop stop-color="#393536"/><stop stop-color="#393536" offset=".015"/><stop stop-color="#393536" offset=".627"/><stop stop-color="#393536" offset=".724"/><stop stop-color="#393536" offset=".753"/><stop stop-color="#4f4c4d" offset=".867"/><stop stop-color="#231f20" offset=".915"/><stop stop-color="#4f4c4d" offset=".955"/><stop stop-color="#322f30" offset=".968"/><stop stop-color="#444141" offset=".985"/><stop stop-color="#373334" offset="1"/></linearGradient><linearGradient id="E" gradientUnits="userSpaceOnUse" x2="0" y1="-40.533" y2="-185.15"><stop stop-color="#231f20"/><stop stop-color="#231f20" offset=".178"/><stop stop-color="#353132" offset=".385"/><stop stop-color="#5a5758" offset=".812"/><stop stop-color="#484546" offset=".912"/><stop stop-color="#3d3a3b" offset=".952"/><stop stop-color="#3d3a3b" offset="1"/></linearGradient><linearGradient id="D" gradientUnits="userSpaceOnUse" x1="548.83" x2="588.65" y1="-89.13" y2="-153.35"><stop stop-color="#2e2a2b"/><stop stop-color="#2e2a2b" offset=".002"/><stop stop-color="#2e2a2b" offset=".277"/><stop stop-color="#3f3c3d" offset=".713"/><stop stop-color="#231f20" offset=".74"/><stop stop-color="#231f20" offset="1"/></linearGradient><linearGradient id="7" gradientUnits="userSpaceOnUse" x2="0" y1="-8.579" y2="-185.19"><stop stop-color="#2e2a2b"/><stop stop-color="#2e2a2b" offset=".019"/><stop stop-color="#444141" offset=".284"/><stop stop-color="#393536" offset=".698"/><stop stop-color="#4f4c4d" offset="1"/></linearGradient><linearGradient id="C" gradientUnits="userSpaceOnUse" x1="448.32" x2="487.58" y1="-50.26" y2="-31.627"><stop stop-color="#231f20"/><stop stop-color="#5a5758" offset=".199"/><stop stop-color="#5a5758" offset=".224"/><stop stop-color="#353132" offset=".397"/><stop stop-color="#353132" offset=".71"/><stop stop-color="#535051" offset=".853"/><stop stop-color="#3d3a3b" offset="1"/></linearGradient><linearGradient id="B" gradientUnits="userSpaceOnUse" x1="385.45" x2="381.43" y1="-21.884" y2="-178.14"><stop stop-color="#231f20"/><stop stop-color="#231f20" offset=".3"/><stop stop-color="#5a5758" offset=".652"/><stop stop-color="#5a5758" offset=".7"/><stop stop-color="#353132" offset=".837"/><stop stop-color="#7b7979" offset=".876"/><stop stop-color="#484546" offset=".912"/><stop stop-color="#3d3a3b" offset=".952"/><stop stop-color="#3d3a3b" offset="1"/></linearGradient><linearGradient id="8" gradientUnits="userSpaceOnUse" x2="0" y1="-8.525" y2="-72.75"><stop stop-color="#4f4c4d"/><stop stop-color="#4f4c4d" offset=".261"/><stop stop-color="#2e2a2b" offset=".997"/><stop stop-color="#2e2a2b" offset="1"/></linearGradient><linearGradient id="A" gradientUnits="userSpaceOnUse" x1="549.61" x2="572.25"><stop stop-color="#423e3f"/><stop stop-color="#535051" offset=".698"/><stop stop-color="#535051" offset="1"/></linearGradient><linearGradient id="9" gradientUnits="userSpaceOnUse" x2="0" y1="-72.941" y2="-182.71"><stop stop-color="#231f20"/><stop stop-color="#231f20" offset=".015"/><stop stop-color="#5a5758" offset=".152"/><stop stop-color="#5a5758" offset=".174"/><stop stop-color="#231f20" offset=".276"/><stop stop-color="#231f20" offset=".72"/><stop stop-color="#4c494a" offset=".756"/><stop stop-color="#4c494a" offset=".833"/><stop stop-color="#231f20" offset=".902"/><stop stop-color="#231f20" offset="1"/></linearGradient></defs><g transform="translate(-149.95 186.29)"><g fill="#050301"><path d="m222.16-120.12c0 5.42.03 12.15-5.7 14.43-2.5 1.07-6.2 1.21-8.2 1.21h-.99-14.11v-49.91c9.12 0 19.38.21 22.12.75 5.84 1.1 6.34 5.73 6.59 8.23l.04.35c.46 3.53.53 11.72.25 24.33v.61m17.95-63.52c-5.2-1.28-9.05-1.49-18.77-1.49h-71.39v176.62l43.21-.002v-64.23h30.42c9.41 0 18.31 0 26.4-5.308 7.55-4.916 11.79-13.394 12.61-25.22l.04-.25c.24-2.99.24-6.06.24-8.98v-36.37-1.03c.04-8.37.18-27.93-22.76-33.74"/><path d="m319.37-140.46c-.11-2.85.14-9.69 4.99-12.15 1.78-.92 4.31-1.42 7.26-1.42h.75.25c6.31 0 12.65.6 14.54 7.62.46 1.96.46 2.42.46 6.13v85.992c0 5.165-.43 10.402-5.7 13.04-2.85 1.318-6.91 1.46-8.55 1.46-5.45 0-9.16-1.068-11.33-3.241-2.67-2.672-2.67-6.697-2.67-10.616v-86.63-.18m56.6-33.52c-12.39-10.83-28.49-12.29-42.6-12.29-17.71 0-37.4 2.38-49.41 20.09-7.66 11.36-8.26 22.26-8.26 33.38v68.29c0 16.07 1.42 22.478 4.23 29.28 2.14 5.522 5.6 10.438 10.34 14.641 13.18 11.578 29.67 12.54 44.1 12.54 23.19 0 37.76-5.486 47.16-17.848 9.3-12.396 9.3-26.361 9.3-39.826v-63.13c0-9.37 0-18.24-3.03-27.25-3.49-10.22-9.76-15.96-11.83-17.88"/><path d="m444.98-185.14h-43.67v176.62l87.49-.003v-31.99h-43.82v-144.63z"/><path d="m572.26-79.1h-22.62l11.43-74.81 11.19 74.81m17.03-106.05h-57.46l-35.66 176.12-.11.5h42.46l6.24-40.08h31.84l5.99 40.08h42.5l-35.73-176.26-.07-.36"/><path d="m676.57-153.9h12.5c8.94 0 13.04 2.35 13.75 7.84.53 3.06.75 9.33.75 13.89 0 13.75-3.21 17.74-14.25 17.74h-12.75v-39.47m43.67 64.762c17.1-8.3 22.05-18.702 22.05-46.02 0-14.11-1.28-23.84-4.02-30.53-5.6-13.47-18.53-19.45-41.97-19.45h-60.45v176.62l40.72-.003v-74.916h6.19l23.84 74.59.07.321h43.28l-29.71-80.61"/></g><path fill="url(#2)" d="m193.16-104.5h14.11c.14 0 .5.04.99.04 1.07 0 2.68-.07 4.28-.28h-12.5v-47.78c7.05 0 14.89.18 18.95.47-.93-.71-2.1-1.28-3.71-1.61-2.74-.49-13-.71-22.12-.74v49.9"/><path fill="url(#8)" d="m193.16-72.75v64.23l6.88-1.781v-62.45h-6.88"/><path fill="url(#9)" d="m243.32-182.69c16.24 5.59 19.02 18.81 19.48 27.79v.03c0 .29.04.57.04.86v.14c0 .25.03.5.03.71v.25.61.35.54.39.39.75 1.03 36.34c0 2.96 0 6.02-.28 8.98v.25c-.82 11.823-5.09 20.301-12.61 25.25-.46.285-.89.57-1.39.819-.11.071-.21.142-.36.214-.39.213-.82.427-1.24.641-.04 0-.07.035-.11.071-.46.249-.93.428-1.35.606-.15.071-.29.107-.4.178-.42.142-.81.32-1.17.427-.11.036-.18.072-.25.107-.43.178-.93.285-1.35.428-.15.071-.32.071-.47.142-.35.107-.71.214-1.07.285-.1 0-.25.036-.35.071-.47.143-.89.214-1.32.285-.21.036-.39.072-.57.107-.32.071-.61.143-.93.178-.14 0-.35.036-.53.072-.43.071-.86.142-1.25.178-.21.035-.5.071-.71.071-.25 0-.5.036-.71.071-.47.036-1 .071-1.46.107-.07.036-.15.036-.22.036 7.91-.072 15.46-.677 22.45-5.237 7.48-4.88 11.68-13.252 12.46-24.9l.04-.25c.28-2.96.28-5.91.28-8.8v-35.44-1c.04-7.95.15-26.04-19.91-32.6l-4.81-1.56.04.03m-10.62 109.76h.07-.07m-.14 0h.14-.14"/><path fill="url(#B)" d="m375.98-173.96c2.06 1.89 8.33 7.62 11.83 17.85 3.02 9.04 3.02 17.88 3.02 27.28v63.09c0 13.501 0 27.465-9.29 39.826-2.04 2.672-4.28 4.987-6.81 7.02 3.39-2.351 6.31-5.201 8.84-8.514 9.15-12.219 9.15-25.862 9.15-39.11v-61.52c0-9.19 0-17.89-2.92-26.72-3.46-10.08-9.62-15.75-11.68-17.63-1.18-1.04-2.39-1.96-3.67-2.85.53.42.99.82 1.53 1.28"/><path fill="url(#E)" d="m444.98-40.481l1.35-1.888v-141.03l-1.35-1.75v144.67z"/><path fill="url(#C)" d="m446.33-42.37l-1.35 1.888h43.78l.04-.035-.54-1.853h-41.93"/><path fill="url(#D)" d="m559.33-142.58l9.37 62.59 3.56.891-11.18-74.8-1.75 11.32"/><path fill="url(#A)" d="m549.78-79.987l-.17.891h22.65l-3.56-.891h-18.92"/><path fill="url(#7)" d="m529.41-183.4l-35.02 173.09 1.64 1.783 35.8-176.62-2.42 1.75z"/><path fill="url(#0)" d="m573.22-48.603h-.03l5.73 38.3 3.67 1.781-5.98-40.08h-3.39"/><path fill="url(#1)" d="m630.79-183.4v173.09l5.06 1.783v-176.62l-5.06 1.75z"/><path fill="url(#3)" d="m676.57-83.44v.071h.07l23.12 72.46.17.605 6.74 1.781-23.87-74.915h-6.23"/><path fill="url(#6)" d="m324.4-152.59c-4.92 2.46-5.13 9.3-5.03 12.12v.21 43.42h3.71v-42.35-.22c-.11-2.67.1-9.12 4.63-11.4 1.67-.89 4.06-1.38 6.87-1.38h.72l.28.03c3.31 0 6.59.14 9.23 1.43-2.89-2.96-7.52-3.28-12.19-3.28h-.24c-.22-.04-.47-.04-.75-.04-2.99 0-5.49.5-7.23 1.46"/><path fill="url(#4)" d="m319.37-96.84v43.21c-.03 3.883-.03 7.909 2.67 10.616 2.14 2.173 5.88 3.206 11.33 3.206 1.64 0 5.7-.107 8.52-1.425 1.03-.534 1.85-1.104 2.53-1.781-2.68 1.211-6.56 1.354-8.13 1.354-5.2 0-8.72-.998-10.75-3.03-2.46-2.494-2.46-6.341-2.46-10.05v-42.11h-3.71m25.05 53.826l.03-.036-.03.036"/><path fill="url(#5)" d="m676.57-153.9v1.88h6.52c8.44 0 12.32 2.18 12.96 7.27.54 2.96.75 9.05.75 13.47v.39h6.66.11v-1.28c0-4.53-.22-10.83-.75-13.86-.68-5.52-4.84-7.87-13.75-7.87h-12.5"/><path fill="url(#F)" d="m696.8-130.89c-.07 12.86-3.03 16.42-13.47 16.42h5.99c10.72 0 14.07-3.7 14.25-16.42h-6.77m-20.23 16.42h6.76-6.76"/><path fill="url(#I)" d="m543.44-49.671l1.32 1.068h31.85l1.28-1.068h-34.45"/><path fill="url(#O)" d="m192.48-102.75l1.75.04h15.1l-16.42-1.79-.43 1.75"/><path fill="url(#P)" d="m284-166.16c-7.66 11.33-8.3 22.23-8.3 33.34 0-10.83 2.35-21.44 9.72-32.34 11.51-17.07 30.71-19.34 47.95-19.34 13.82 0 29.5 1.38 41.43 11.82 1.96 1.82 8.02 7.34 11.37 17.14 2.92 8.76 2.92 17.49 2.92 26.71v63.09c0 13.216 0 26.895-8.94 38.757-9.05 11.899-23.16 18.916-45.78 18.916 23.19 0 37.76-5.486 47.17-17.847 9.29-12.361 9.29-26.325 9.29-39.826v-63.09c0-9.4 0-18.24-3.02-27.28-3.5-10.23-9.77-15.96-11.83-17.85-12.4-10.83-28.46-12.33-42.61-12.33-17.7 0-37.44 2.43-49.37 20.13"/><path d="m487.05-38.764l1.74 30.24v-31.989l-1.74 1.745" fill="#231f20"/><path fill="url(#R)" d="m547.9-79.1l-.33 1.425h26.05l-1.36-1.425h-24.36"/><path fill="url(#S)" d="m635.88-185.15l60.42.97c22.62 0 35.09 6.44 40.36 19.13 2.64 6.51 3.89 15.99 3.89 29.88 0 14.11-1.32 22.91-4.42 29.39-3.1 6.379-8.05 10.903-16.67 15.07l-1.39.677 2.17.89c17.1-8.3 22.05-18.668 22.05-46.03 0-14.1-1.28-23.83-4.02-30.53-5.6-13.46-18.49-19.45-41.97-19.45h-60.42"/><path fill="url(#U)" d="m149.99-185.15l1.71 1.75h69.64c9.55 0 13.32.21 18.34 1.46 9.3 2.35 15.64 7.37 18.81 14.89 2.71 6.34 2.64 13.11 2.64 17.17l-.04 1.03v20.13h1.78v-20.13-1.03c.04-8.37.18-27.96-22.76-33.77-5.16-1.28-9.05-1.5-18.77-1.5h-71.35"/><path fill="url(#V)" d="m262.84-128.72h-1.75v16.21c0 2.88 0 5.91-.21 8.87l-.04.25c-.78 11.256-4.77 19.271-11.82 23.866-7.63 5.059-16.28 6.769-25.44 6.769 9.44 0 18.31 0 26.4-5.272 7.52-4.952 11.79-13.43 12.61-25.25v-.25c.28-2.96.28-6.02.28-8.98v-16.21h-.03"/><path fill="url(#T)" d="m331.63-154.9c-3.1 0-5.77.53-7.66 1.53-5.31 2.64-5.63 9.94-5.49 12.93v.18 43.42h1.78v-43.46-.17c-.14-2.68.07-9.12 4.53-11.33 1.64-.89 4.02-1.36 6.84-1.36h.71.28c6.24 0 12.83.54 14.57 6.99l.79-.22v-2.49c-2.85-5.52-9.69-6.02-15.32-6.02h-1.03"/><path fill="url(#Q)" d="m318.48-96.84v43.567c0 3.954.11 8.02 2.92 10.865 2.35 2.351 6.27 3.491 11.97 3.491 1.68 0 5.88-.143 8.94-1.532 5.7-2.886 6.2-8.656 6.2-13.822 0 5.059-1.35 9.832-6.16 12.219-2.71 1.282-7.41 1.389-8.98 1.389-5.2 0-8.72-.997-10.72-2.992-2.42-2.423-2.39-6.27-2.39-9.975v-43.21h-1.78"/><path fill="url(#N)" d="m444.98-40.481l-1.75 1.71h1.75 42.07l1.75-1.71h-43.82"/><path fill="url(#G)" d="m401.31-8.527l1.71-174.87-1.71-1.75v176.62"/><path fill="url(#H)" d="m401.31-185.15l1.71 1.75h40.21l1.75-1.75h-43.67"/><path fill="url(#J)" d="m676.57-154.76l.67 1.75h11.83c8.51 0 12.22 2.03 12.9 7.08.46 2.61.67 7.56.71 11.76h1.74c-.07-4.27-.28-9.33-.71-12-.78-5.95-5.31-8.59-14.64-8.59h-12.5"/><path fill="url(#M)" d="m702.68-134.17c.03.71.03 1.35.03 2 0 13.21-2.88 16.85-13.39 16.85h-12.75v1.78h12.75c11.58 0 15.1-4.39 15.1-18.63v-2h-1.74"/><path fill="url(#K)" d="m682.8-83.44l23.8 74.63.07.285 1.28-1.745-23.51-73.7-.39-1.212-1.25 1.746"/><path fill="url(#L)" d="m682.8-85.19h-6.23-1.75l1.75 1.746h6.23l1.25-1.746h-1.25"/></g></svg>