<svg xmlns="http://www.w3.org/2000/svg" viewBox="0 0 600 310.4"><defs><clipPath><path d="m44.661 334.27h21.16v11.352h-21.16v-11.352"/></clipPath><clipPath><path d="m45.866 334.92h16.859v9.995h-16.859v-9.995"/></clipPath><clipPath><path d="m0 0h524.41v651.97h-524.41v-651.97"/></clipPath></defs><g transform="matrix(1.28213 0 0 1.28213-107.87-555.16)"><path d="m84.13 556.97h392.54v-123.97h-392.54v123.97" fill="#383536"/><g fill="#fff"><path d="m0 0c0-.036-.029-.065-.091-.088-.174-.058-.334-.088-.484-.088-.226 0-.441.056-.65.17-.419.23-.651.617-.651 1.095 0 .263.072.501.212.716.144.214.337.374.579.474.157.069.324.101.503.101.122 0 .252-.02.392-.056.043-.009.076-.023.105-.035l.036-.017c.029-.013.046-.036.046-.064v-.628c0-.017-.007-.023-.017-.023-.003 0-.013.006-.029.017-.049.048-.121.088-.216.119-.101.036-.193.053-.271.053-.284 0-.523-.15-.631-.4-.035-.081-.052-.169-.052-.264 0-.185.069-.335.206-.451.127-.107.285-.163.471-.163.212 0 .375.059.496.179.001.013.02.02.026.02.013 0 .02-.02.02-.063v-.604" transform="matrix(28.35007 0 0-28.35007 158.25 523.59)"/><path d="m171.48 526.72h18.06v-69.15h-18.06v69.15"/><path d="m0 0l-1.17 1.492v-1.492h-.637v2.439h.637l1.17-1.493v1.493h.637v-2.439h-.637" transform="matrix(28.35007 0 0-28.35007 255.22 526.73)"/><path d="m0 0v2.439h.213l.035.1h.968l-.036-.1h.212v-.537h-.755v-.406h.717v-.537h-.717v-.422h.755v-.537h-1.392" transform="matrix(28.35007 0 0-28.35007 285.93 526.73)"/></g><path d="m0 0c-4.375-.473-8.748-.946-13.12-1.42-.135 1.524-.27 3.046-.405 4.568 4.361.249 8.721.496 13.08.744.148-1.297.296-2.595.446-3.892" fill="#ec1b27" transform="matrix(28.35007 0 0-28.35007 552.1 634.83)"/><g fill="#fff"><path d="m0 0c.016-.169-.092-.315-.241-.327-.035-.003-.053-.004-.088-.007-.096-.007-.143-.012-.239-.019-.021.238-.043.479-.065.717.096.008.143.011.239.017.018.002.059.005.059.005.164.011.312-.131.328-.319.004-.027.004-.04.007-.067m-.385.932c-.049-.004-.075-.006-.124-.009-.216-.015-.433-.029-.65-.043.091-1.01.181-2.02.272-3.02.191.018.286.028.477.047-.035.398-.072.797-.108 1.195.131.012.196.018.327.029.446.042.706.49.667.907-.002.025-.004.048-.006.068-.04.434-.391.854-.855.828" transform="matrix(28.35007 0 0-28.35007 221.91 590.89)"/><path d="m0 0c.259.025.516.049.775.073.021-.208.031-.312.051-.519-.417-.041-.834-.084-1.251-.124-.093.965-.186 1.931-.279 2.897.416.027.833.055 1.25.082.019-.208.029-.311.05-.52-.258-.018-.516-.037-.774-.055.023-.235.035-.354.058-.589.258.021.516.04.774.061.02-.208.031-.312.051-.519-.259-.023-.516-.044-.775-.066.023-.241.047-.48.07-.721" transform="matrix(28.35007 0 0-28.35007 311.73 625.21)"/><path d="m0 0c-.051.515-.102 1.028-.154 1.541.19-.5.38-1 .573-1.499.142.014.213.022.357.035.087.521.174 1.041.261 1.56.053-.506.105-1.012.156-1.518.191.019.286.028.477.048-.095.921-.191 1.843-.287 2.767-.214-.015-.32-.022-.535-.036-.123-.564-.246-1.126-.368-1.692-.236.541-.47 1.082-.703 1.623-.214-.014-.321-.022-.536-.036.094-.947.189-1.893.283-2.841.19.02.286.029.476.048" transform="matrix(28.35007 0 0-28.35007 360.12 635.36)"/><path d="m0 0c.095.007.143.0001.238.016.019.002.06.005.06.005.164.011.312-.127.329-.311.002-.025.003-.039.005-.067.016-.165-.091-.308-.238-.32-.036-.003-.055-.004-.09-.007-.095-.007-.143-.011-.238-.019-.022.234-.044.468-.066.703m1.109-.32c-.002.025-.004.046-.006.066-.042.435-.397.834-.856.808-.049 0-.074-.003-.124-.006-.217-.015-.433-.03-.65-.044.092-.987.183-1.974.276-2.962.191.019.286.028.477.048-.037.39-.074.78-.11 1.171.099.009.148.013.247.021.145-.379.29-.758.436-1.136.2.02.3.03.5.05-.161.415-.321.831-.482 1.246.216.18.319.461.292.738" transform="matrix(28.35007 0 0-28.35007 253.47 577.02)"/><path d="m0 0c.096-.918.192-1.835.287-2.754.192.02.287.029.477.048-.095.913-.191 1.824-.287 2.737-.191-.013-.286-.019-.477-.031" transform="matrix(28.35007 0 0-28.35007 410.56 551.47)"/><path d="m0 0c.257.025.516.049.775.072.022-.194.032-.291.054-.487-.418-.042-.835-.083-1.253-.125-.097.908-.193 1.815-.289 2.723.417.027.832.054 1.249.082.022-.195.032-.293.053-.487-.257-.019-.515-.037-.773-.056.024-.221.034-.332.058-.554.259.021.517.042.776.061.02-.194.031-.292.052-.486-.259-.022-.516-.045-.775-.066.024-.225.049-.452.073-.677" transform="matrix(28.35007 0 0-28.35007 456.66 611.65)"/><path d="m0 0c.095.008.143.011.239.018.018 0 .059.004.059.004.164.012.313-.113.331-.277.002-.025.003-.036.007-.06.016-.148-.09-.279-.239-.291-.034-.002-.195-.015-.231-.019l-.096-.007c-.028.253-.042.38-.07.632m1.122-.278c-.003.021-.005.042-.007.059-.049.422-.435.746-.861.722-.049-.004-.074-.005-.124-.009-.217-.014-.433-.027-.649-.042.096-.889.195-1.777.291-2.665.192.018.287.027.478.047-.039.351-.078.703-.117 1.053.1.009.149.013.248.022.146-.34.295-.679.442-1.018.2.02.301.029.501.049-.165.372-.327.744-.49 1.116.207.155.317.409.288.666" transform="matrix(28.35007 0 0-28.35007 497.57 559.56)"/><path d="m0 0v-.878c0-.033-.006-.046-.033-.046h-.669c-.022 0-.036.016-.036.04v.878c0 .035-.013.048-.042.048h-.868c-.026 0-.038.017-.038.046v.665c0 .026.009.039.035.039h.874c.026 0 .039.014.039.043v.754c0 .019.014.032.033.032h.666c.027 0 .039-.009.039-.032v-.754c0-.036.006-.043.036-.043h.874c.026 0 .035-.013.035-.042v-.668c0-.023-.011-.04-.035-.04h-.864c-.036 0-.046-.006-.046-.042" transform="matrix(28.35007 0 0-28.35007 425.72 501.97)"/></g></g></svg>