<svg xmlns="http://www.w3.org/2000/svg" viewBox="0 0 600 359.6"><defs><clipPath id="0"><path d="m44.21 309.2h22.06v10.761h-22.06v-10.761"/></clipPath><clipPath id="1"><path d="m46.23 309.2h17.955v10.761h-17.955v-10.761"/></clipPath></defs><g transform="translate(-411.43-572.56)"><g clip-path="url(#0)" transform="matrix(33.41688 0 0-33.41688-1133.33 11264.83)"><path d="m46.23 313.63h14.717v4.648h-14.717v-4.648" fill="#413e47"/><g fill="#fff"><path d="m0 0c0-.038-.031-.069-.097-.093-.184-.062-.354-.094-.514-.094-.24 0-.469.059-.691.18-.445.245-.692.657-.692 1.165 0 .28.077.532.226.76.153.228.358.397.615.504.167.073.344.107.535.107.128 0 .267-.02.417-.058.045-.011.08-.025.111-.038l.038-.018c.031-.014.048-.038.048-.069v-.667c0-.017-.006-.024-.017-.024-.003 0-.014.007-.031.017-.052.052-.128.094-.229.128-.108.038-.205.056-.289.056-.302 0-.555-.16-.67-.425-.038-.087-.055-.18-.055-.28 0-.197.072-.356.218-.481.136-.114.303-.172.501-.172.225 0 .399.062.527.19.011.014.021.02.028.02.014 0 .021-.02.021-.065v-.643" transform="translate(49.01 314.88)"/><path d="m49.5 314.77h.677v2.591h-.677v-2.591"/><path d="m0 0l-1.244 1.586v-1.586h-.677v2.591h.677l1.244-1.586v1.586h.677v-2.591h-.677" transform="translate(52.641 314.77)"/></g></g><g clip-path="url(#1)" transform="matrix(33.41688 0 0-33.41688-1133.33 11264.83)"><path d="m0 0v2.591h.226l.038.108h1.028l-.038-.108h.226v-.57h-.803v-.432h.761v-.57h-.761v-.449h.803v-.57h-1.48" fill="#fff" transform="translate(53.793 314.77)"/><path d="m0 0c-4.649-.503-9.298-1-13.947-1.509-.144 1.619-.287 3.237-.431 4.856 4.635.263 9.27.526 13.905.789.158-1.378.315-2.757.473-4.136" fill="#eb0d8a" transform="translate(63.771 310.71)"/></g><g clip-path="url(#0)" transform="matrix(33.41688 0 0-33.41688-1133.33 11264.83)" fill="#fff"><path d="m0 0c.096.23.266.424.507.443.219.017.486-.346.486-.346.016 0 .31.407.559.427.187.014.429-.055.452-.292.046-.468.069-.703.115-1.171.095.008.142.013.237.022.005-.045.007-.067.012-.112-.368-.035-.552-.053-.919-.087-.004.045-.006.067-.011.112.076.008.115.011.19.019-.043.447-.064.67-.108 1.117-.0001.109-.032.221-.164.21-.212-.016-.343-.337-.323-.547.032-.332.048-.497.08-.829.076.007.114.011.19.018.004-.046.006-.068.011-.114-.348-.033-.523-.049-.871-.083-.004.046-.006.069-.011.115.076.007.114.0001.191.018-.039.403-.058.605-.097 1.01-.025.269-.058.344-.193.333-.117-.009-.338-.204-.304-.568.031-.329.047-.493.078-.822.076.007.114.011.19.018.004-.046.006-.069.011-.114-.353-.034-.529-.051-.882-.085-.004.047-.006.07-.011.116.081.008.121.011.201.019-.052.559-.078.839-.13 1.398-.094-.007-.141-.011-.234-.018-.005.046-.007.069-.011.115.094.007.141.011.234.019.164.012.324.041.488.054.015-.157.022-.236.037-.393" transform="translate(53.1 311.99)"/><path d="m0 0c.086.007.129.001.215.016.095.007.191.041.285.059.021-.199.031-.299.051-.499.112.008.167.013.278.021.005-.043.007-.064.011-.108-.111-.008-.166-.013-.277-.022.043-.42.065-.63.108-1.05.008-.077.002-.199.108-.189.143.013.156.135.165.261.044-.005.065-.008.109-.014-.03-.318-.216-.449-.505-.477-.341-.033-.356.124-.377.319-.045.444-.067.666-.113 1.11-.089-.007-.133-.001-.223-.018-.004.044-.006.066-.011.11.089.007.134.001.223.017-.019.186-.028.279-.047.464" transform="translate(57.29 313.13)"/><path d="m0 0c.127.286.312.374.56.394.223.017.421-.034.453-.319.046-.406.069-.609.115-1.014.09.008.135.012.226.021.005-.041.007-.062.012-.102-.366-.035-.549-.053-.915-.088-.004.042-.007.062-.011.104.079.007.118.011.197.018-.042.375-.062.562-.104.937-.027.235-.087.282-.189.273-.234-.018-.332-.331-.31-.535.032-.289.048-.434.08-.724.078.007.117.011.194.018.005-.041.007-.062.012-.103-.368-.035-.551-.053-.919-.088-.004.042-.006.063-.011.104.094.009.141.014.234.023-.055.505-.083.759-.138 1.264-.094-.007-.141-.011-.235-.018-.004.041-.006.062-.011.104.094.007.14.011.234.018.164.013.324.041.488.053.015-.136.023-.204.038-.34" transform="translate(61.828 312.72)"/><path d="m0 0c-.024.24-.071.304-.316.286-.223-.017-.278-.089-.254-.33.033-.338.05-.507.084-.845.023-.23.139-.283.314-.267.176.016.279.088.256.317-.033.335-.05.503-.084.839m.635-.377c.051-.504-.325-.839-.797-.882-.523-.048-.915.298-.958.737-.051.523.356.878.794.911.439.031.909-.253.961-.766" transform="translate(56.43 312.61)"/><path d="m0 0c-.025.229-.072.29-.317.272-.223-.016-.278-.085-.253-.316.034-.323.051-.484.086-.807.023-.219.139-.27.315-.254.176.016.279.086.255.304-.034.321-.052.481-.086.801m.636-.357c.053-.482-.323-.803-.795-.846-.522-.048-.916.282-.96.701-.053.499.353.84.792.872.438.032.909-.238.963-.727" transform="translate(60.39 312.92)"/><path d="m0 0c-.101-.008-.151-.012-.252-.02-.005.043-.007.065-.012.108.101.008.152.012.253.02.168.013.334.041.502.054.06-.569.09-.853.15-1.422.089.009.134.013.223.021.005-.043.007-.064.012-.107-.387-.037-.58-.055-.967-.092-.004.043-.006.065-.011.108.095.009.143.014.238.022-.054.524-.082.785-.136 1.308" transform="translate(58.51 312.68)"/><path d="m0 0c-.02.215-.029.322-.049.537-.013.142-.127.222-.358.205-.207-.015-.284-.126-.27-.276.019-.207.028-.31.047-.518.252.021.378.031.63.052m-.617-.195c.026-.285.039-.427.064-.712.026-.286.175-.372.425-.348.381.036.66.277.731.711.046-.013.069-.02.115-.033-.078-.517-.421-.779-.866-.824-.646-.066-1.183.392-1.239 1.035-.055.629.382 1.204 1.02 1.254.473.037.968-.308 1.02-.873.012-.131-.139-.116-.217-.122-.421-.035-.632-.053-1.053-.088" transform="translate(51.55 311.86)"/><path d="m0 0c.015-.145-.092-.283-.23-.294-.139-.001-.276.111-.292.257-.015.146.1.281.234.29.135.009.272-.108.288-.253" transform="translate(58.942 313.37)"/><path d="m0 0c-.019.202-.17.319-.338.309-.206-.013-.293-.172-.272-.404.004-.043.033-.092.061-.134.028-.042.055-.084.058-.112.009-.099-.19-.146-.243-.15.015-.055.022-.083.037-.138.3.041.734.228.697.629" transform="translate(51.673 313.52)"/></g><g clip-path="url(#1)" transform="matrix(33.41688 0 0-33.41688-1133.33 11264.83)"><path d="m0 0v-.933c0-.035-.007-.049-.035-.049h-.711c-.024 0-.038.018-.038.042v.933c0 .038-.014.052-.045.052h-.922c-.028 0-.042.017-.042.049v.707c0 .028.011.041.039.041h.929c.027 0 .041.014.041.045v.801c0 .021.014.035.035.035h.708c.027 0 .041-.001.041-.035v-.801c0-.037.007-.045.038-.045h.93c.027 0 .038-.013.038-.045v-.711c0-.024-.014-.041-.038-.041h-.919c-.038 0-.049-.007-.049-.045" fill="#fff" transform="translate(59.03 315.69)"/><path d="m0 0c-.103.775-.207 1.549-.31 2.324h-4.958c.207-1.01.413-2.01.62-3.02 1.549.232 3.099.464 4.648.697" fill="#e91f26" transform="translate(64.18 317.64)"/></g><g clip-path="url(#0)" transform="matrix(33.41688 0 0-33.41688-1133.33 11264.83)" fill="#fff"><path d="m0 0c-.052.283-.078.424-.129.707-.252-.02-.377-.029-.628-.049.056-.292.084-.438.14-.73-.172-.02-.258-.03-.429-.05-.119.604-.238 1.208-.356 1.812.178.005.267.006.446.011.052-.274.078-.412.131-.686.253.015.379.023.632.037-.048.266-.072.399-.121.664.179.004.268.006.447.011.098-.559.197-1.118.295-1.677-.171-.02-.257-.03-.428-.05" transform="translate(61.12 317.65)"/><path d="m0 0c-.04-.002-.06-.003-.1-.004.058-.356.087-.534.144-.889.039.003.059.005.097.009.287.027.447.215.407.475-.039.26-.256.422-.548.409m.302-1.219c-.252-.03-.378-.045-.63-.074-.091.543-.183 1.085-.274 1.628.262.006.394.009.656.015.434-.002.887-.301.951-.727.062-.409-.29-.786-.703-.842" transform="translate(62.41 319.06)"/></g></g></svg>