<?xml version="1.0" encoding="UTF-8" standalone="no"?>
<!-- Created with Inkscape (http://www.inkscape.org/) -->
<svg xmlns:rdf="http://www.w3.org/1999/02/22-rdf-syntax-ns#" xmlns="http://www.w3.org/2000/svg" height="137.47" width="600" version="1.1" xmlns:cc="http://creativecommons.org/ns#" xmlns:dc="http://purl.org/dc/elements/1.1/">
 <metadata>
  <rdf:RDF>
   <cc:Work rdf:about="">
    <dc:format>image/svg+xml</dc:format>
    <dc:type rdf:resource="http://purl.org/dc/dcmitype/StillImage"/>
    <dc:title/>
   </cc:Work>
  </rdf:RDF>
 </metadata>
 <g fill-rule="nonzero" transform="translate(95.413034,-241.08158)" fill="#30b4b6">
  <path d="m-63.228,271.99c-25.39,0-32.185,10.725-32.185,40.228v13.598c0,29.512,6.7944,40.238,32.185,40.238,21.824,0,30.944-8.2263,30.944-28.081v-6.9768h-25.217v7.1592c0,8.3996-1.2494,12.513-6.4387,12.513-5.1802,0-6.2563-4.1131-6.2563-12.513v-38.268c0-8.4087,1.2494-12.522,6.4387-12.522,5.1802,0,6.9677,3.575,6.9677,11.263v5.3717h24.506v-3.9399c0-19.845-9.12-28.071-30.944-28.071"/>
  <path d="m-25.006,363.9,25.217,0,0-89.768-25.217,0,0,89.768z"/>
  <path d="m-25.006,261.82,25.217,0,0-20.739-25.217,0,0,20.739z"/>
  <path d="m53.134,271.99c-7.3325,0-13.406,4.1132-19.134,12.513l-0.71136-10.369h-24.506v89.768h25.217v-62.764c0-7.5149,1.4318-10.908,5.7274-10.908,4.4688,0,5.3626,3.7483,5.3626,10.908v62.764h25.39v-65.454c0-18.058-3.2194-26.457-17.346-26.457"/>
  <path d="m109.35,272c-24.679,0-31.482,11.061-31.482,40.208v13.612c0,29.321,6.8015,40.25,32.192,40.25,21.815,0,30.939-8.4279,30.939-28.1v-3.048h-24.3v3.215c0,8.3995-1.4215,12.526-7.1398,12.526-5.1893,0-6.4717-4.1264-6.4717-12.526v-15.198h37.912v-10.731c0-29.677-6.6144-40.208-31.649-40.208zm0.54278,14.28c5.545,0,6.8058,4.4805,6.8058,13.236v9.1439h-13.612v-9.1439c0-8.9376,1.2699-13.236,6.8058-13.236z"/>
  <path d="m291.81,254.96c-26.767,0-37.306,5.3314-39.039,25.678-2.207-7.3052-6.8272-9.645-16.075-9.645-8.2536,0-14.212,3.1962-20.459,12.526-1.4683-8.7735-7.8115-12.526-17.369-12.526-7.5332,0-13.31,2.8258-19.165,11.399l-0.45928-9.311h-26.847v93.61h27.223v-64.425c0-7.679,0.8967-10.981,5.5114-10.981,4.0128,0,5.0104,3.4753,5.0104,10.981v64.425h27.39v-65.177c-0.009-7.2413,0.877-10.23,5.4279-10.23,4.0219,0,4.9269,3.0496,4.9269,10.355v65.051h24.259c3.8304,8.4269,10.889,11.858,21.586,11.858,9.8496,0,17.257-4.9509,24.133-15.95l1.5031,13.236h31.941v-9.1439h22.046,0.91857l0.45927-0.7933,13.152-23.382,13.069,23.382,0.45928,0.7933h0.91858,28.768,2.7975l-1.3779-2.3382-26.597-46.221,24.76-43.173,1.3361-2.3799h-2.7557-28.768-0.96032l-0.45929,0.83506-11.148,20.292-11.232-20.292-0.45929-0.83506h-0.96032-26.137c-4.2226-12.75-15.129-17.62-37.327-17.62zm-1.1691,20.543c6.5756,0,7.2233,5.7223,7.2233,15.991v8.1418c-22.235,1.3315-35.31,3.9916-42.588,12.108v-12.943c0-2.6448-0.0954-5.0628-0.25052-7.0145h27.014v-2.1712c0-9.8223,1.7702-14.113,8.6011-14.113zm40.584,10.146,18.538,32.4,0,0.0417-18.455,32.108,0-60.792c0-1.3224-0.0378-2.5448-0.0835-3.7578zm-33.402,34.196,0,22.672c0,10.315-1.2976,15.031-7.8913,15.031-6.5755,0.009-8.0166-4.7164-8.0166-15.031v-7.2233c0-10.771,3.906-14.281,15.908-15.449z"/>
  <path d="m422.04,272.08c-3.2376,0-5.9707,2.5598-5.9707,5.9707,0,3.4474,2.7331,5.9289,5.9707,5.9289,3.2011,0,5.9289-2.4816,5.9289-5.9289,0-3.4109-2.7278-5.9707-5.9289-5.9707zm0,1.0021c2.6539,0,4.7598,2.1506,4.7598,4.9686,0,2.8637-2.1059,4.9686-4.7598,4.9686-2.6904,0-4.7598-2.1049-4.7598-4.9686,0-2.8181,2.0694-4.9686,4.7598-4.9686zm-2.2547,1.5449,0,6.8475,1.0021,0,0-2.9645,1.2108,0,1.7536,2.9645,1.1691,0-1.9206-3.0062c0.99407-0.12773,1.7536-0.68943,1.7536-1.9206,0-1.3498-0.81655-1.9206-2.4217-1.9206h-2.5469zm1.0021,0.87681,1.4196,0c0.71136,0,1.4614,0.1448,1.4614,1.0021,0,1.0488-0.76196,1.1273-1.6284,1.1273h-1.2526v-2.1294z"/>
  <path d="m434.75,287.98c0-5.0708,1.2768-17.985,7.7338-25.919,5.855-7.3963,16.589-10.251,28.126-9.9317,28.254,0.31009,33.288,16.726,33.945,33.315,0.47424,12.613-4.7607,21.934-9.9591,28.4-6.4844,8.5454-31.099,27.47-33.635,41.058h42.627v23.366h-71.355v-8.053c0-30.461,17.994-46.877,33.015-60.785,6.7579-6.1651,11.163-15.924,11.163-23.986,0.32832-6.8035-1.2403-12.002-7.3872-12.002-7.4328,0-8.0621,5.8368-8.0621,12.002v12.321h-26.211v-9.7858z"/>
 </g>
</svg>
