<svg xmlns="http://www.w3.org/2000/svg" viewBox="0 0 600 266.92" xmlns:xlink="http://www.w3.org/1999/xlink"><defs><clipPath id="0"><path d="m45.66 129.82h19.17v9.79h-19.17v-9.79"/></clipPath><linearGradient id="H" gradientUnits="userSpaceOnUse" x2="0" y1="133.18" y2="133.23"><stop stop-color="#231f20"/><stop stop-color="#231f20" offset=".075"/><stop stop-color="#706d6e" offset=".706"/><stop stop-color="#706d6e" offset=".787"/><stop stop-color="#706d6e" offset=".851"/><stop stop-color="#3d3a3b" offset="1"/></linearGradient><linearGradient id="M" gradientUnits="userSpaceOnUse" x1="62.02" x2="62.727"><stop stop-color="#231f20"/><stop stop-color="#353132" offset="1"/></linearGradient><linearGradient id="N" gradientUnits="userSpaceOnUse" x1="61.915" x2="62.54" y1="136.59" y2="135.74"><stop stop-color="#373334"/><stop stop-color="#373334" offset=".096"/><stop stop-color="#5e5b5c" offset=".157"/><stop stop-color="#5e5b5c" offset=".223"/><stop stop-color="#4b4748" offset=".253"/><stop stop-color="#4b4748" offset=".286"/><stop stop-color="#353132" offset=".422"/><stop stop-color="#231f20" offset="1"/></linearGradient><linearGradient id="L" gradientUnits="userSpaceOnUse" x1="61.915" x2="62.56" y1="135.3" y2="135.84"><stop stop-color="#231f20"/><stop stop-color="#231f20" offset=".102"/><stop stop-color="#231f20" offset=".37"/><stop stop-color="#989696" offset=".459"/><stop stop-color="#989696" offset=".541"/><stop stop-color="#989696" offset=".568"/><stop stop-color="#353132" offset=".681"/><stop stop-color="#231f20" offset="1"/></linearGradient><linearGradient id="J" gradientUnits="userSpaceOnUse" x1="61.837" x2="62.07" y1="134.44" y2="134.5"><stop stop-color="#423e3f"/><stop stop-color="#565353" offset=".247"/><stop stop-color="#565353" offset=".25"/><stop stop-color="#231f20" offset=".287"/><stop stop-color="#231f20" offset="1"/></linearGradient><linearGradient id="I" gradientUnits="userSpaceOnUse" x1="54.17" x2="54.15" y1="137.38" y2="135.45"><stop stop-color="#231f20"/><stop stop-color="#231f20" offset=".154"/><stop stop-color="#706d6e" offset=".181"/><stop stop-color="#706d6e" offset=".286"/><stop stop-color="#231f20" offset=".335"/><stop stop-color="#231f20" offset="1"/></linearGradient><linearGradient id="K" gradientUnits="userSpaceOnUse" x2="0" y1="137.3" y2="137.25"><stop stop-color="#918f90"/><stop stop-color="#3b3839" offset="1"/></linearGradient><linearGradient id="O" gradientUnits="userSpaceOnUse" x1="51.922" x2="52.749" y1="134.06" y2="133.9"><stop stop-color="#231f20"/><stop stop-color="#231f20" offset=".146"/><stop stop-color="#a5a3a4" offset=".398"/><stop stop-color="#a5a3a4" offset=".464"/><stop stop-color="#a5a3a4" offset=".53"/><stop stop-color="#deddde" offset=".638"/><stop stop-color="#deddde" offset=".717"/><stop stop-color="#231f20" offset=".847"/><stop stop-color="#231f20" offset="1"/></linearGradient><linearGradient id="V" gradientUnits="userSpaceOnUse" x1="63.06" x2="60.785" y1="134.99" y2="137.51" xlink:href="#L"/><linearGradient id="U" gradientUnits="userSpaceOnUse" x1="49.16" x2="50.26" y1="134.07" y2="135.86"><stop stop-color="#231f20"/><stop stop-color="#231f20" offset=".031"/><stop stop-color="#5a5758" offset=".182"/><stop stop-color="#231f20" offset=".376"/><stop stop-color="#2e2a2b" offset=".573"/><stop stop-color="#2e2a2b" offset="1"/></linearGradient><linearGradient id="P" gradientUnits="userSpaceOnUse" x1="58.45" x2="58.798" y1="133.24" y2="133.8"><stop stop-color="#231f20"/><stop stop-color="#231f20" offset=".063"/><stop stop-color="#4b4748" offset=".281"/><stop stop-color="#4b4748" offset=".424"/><stop stop-color="#4b4748" offset=".538"/><stop stop-color="#231f20" offset=".809"/><stop stop-color="#231f20" offset="1"/></linearGradient><linearGradient id="T" gradientUnits="userSpaceOnUse" x1="58.14" x2="58.857" y1="134.41" y2="134.23"><stop stop-color="#231f20"/><stop stop-color="#231f20" offset=".161"/><stop stop-color="#231f20" offset=".501"/><stop stop-color="#706d6e" offset=".787"/><stop stop-color="#706d6e" offset=".85"/><stop stop-color="#231f20" offset=".998"/><stop stop-color="#231f20" offset="1"/></linearGradient><linearGradient id="R" gradientUnits="userSpaceOnUse" x1="51.794" x2="52.637"><stop stop-color="#231f20"/><stop stop-color="#3b3839" offset=".466"/><stop stop-color="#231f20" offset=".781"/><stop stop-color="#231f20" offset="1"/></linearGradient><linearGradient id="Q" gradientUnits="userSpaceOnUse" x1="48.32" x2="48.725" y1="135.11" y2="134.87"><stop stop-color="#231f20"/><stop stop-color="#5a5758" offset=".182"/><stop stop-color="#2e2a2b" offset=".693"/><stop stop-color="#2e2a2b" offset="1"/></linearGradient><linearGradient id="S" gradientUnits="userSpaceOnUse" x1="50.802" x2="52.932" y1="135.02" y2="134.72"><stop stop-color="#231f20"/><stop stop-color="#ebebeb" offset=".127"/><stop stop-color="#ebebeb" offset=".184"/><stop stop-color="#ebebeb" offset=".257"/><stop stop-color="#706d6e" offset=".58"/><stop stop-color="#231f20" offset=".898"/><stop stop-color="#231f20" offset="1"/></linearGradient><linearGradient id="G" gradientUnits="userSpaceOnUse" x1="62.21" x2="62.25" y1="135.78" y2="135.15"><stop stop-color="#3d3a3b"/><stop stop-color="#4b4748" offset=".323"/><stop stop-color="#4b4748" offset=".348"/><stop stop-color="#797677" offset=".453"/><stop stop-color="#2c2829" offset=".52"/><stop stop-color="#2c2829" offset=".577"/><stop stop-color="#2c2829" offset=".628"/><stop stop-color="#fff" offset=".68"/><stop stop-color="#fff" offset=".711"/><stop stop-color="#2e2a2b" offset=".746"/><stop stop-color="#2e2a2b" offset="1"/></linearGradient><linearGradient id="6" gradientUnits="userSpaceOnUse" x1="52.777" x2="51.733" y1="132.25" y2="135.28"><stop stop-color="#231f20"/><stop stop-color="#231f20" offset=".015"/><stop stop-color="#3d3a3b" offset=".152"/><stop stop-color="#3d3a3b" offset=".174"/><stop stop-color="#353132" offset=".39"/><stop stop-color="#d5d4d5" offset=".405"/><stop stop-color="#c4c3c3" offset=".417"/><stop stop-color="#393536" offset=".434"/><stop stop-color="#393536" offset=".444"/><stop stop-color="#393536" offset=".454"/><stop stop-color="#5c595a" offset=".528"/><stop stop-color="#393536" offset=".624"/><stop stop-color="#393536" offset=".833"/><stop stop-color="#464344" offset="1"/></linearGradient><linearGradient id="5" gradientUnits="userSpaceOnUse" x1="51.16" x2="52.46" y1="133.32" y2="136.25"><stop stop-color="#393536"/><stop stop-color="#393536" offset=".015"/><stop stop-color="#393536" offset=".627"/><stop stop-color="#393536" offset=".724"/><stop stop-color="#393536" offset=".753"/><stop stop-color="#4f4c4d" offset=".867"/><stop stop-color="#231f20" offset=".915"/><stop stop-color="#4f4c4d" offset=".955"/><stop stop-color="#322f30" offset=".968"/><stop stop-color="#444141" offset=".985"/><stop stop-color="#373334" offset="1"/></linearGradient><linearGradient id="W" gradientUnits="userSpaceOnUse" x1="47.06" x2="50.23"><stop stop-color="#b4b3b3"/><stop stop-color="#b4b3b3" offset=".015"/><stop stop-color="#fff" offset=".223"/><stop stop-color="#fff" offset=".256"/><stop stop-color="#e9e9e9" offset=".512"/><stop stop-color="#e9e9e9" offset=".631"/><stop stop-color="#231f20" offset=".821"/><stop stop-color="#777475" offset=".835"/><stop stop-color="#777475" offset=".865"/><stop stop-color="#464344" offset=".883"/><stop stop-color="#5a5758" offset=".903"/><stop stop-color="#231f20" offset=".959"/><stop stop-color="#2e2a2b" offset="1"/></linearGradient><linearGradient id="4" gradientUnits="userSpaceOnUse" x2="0" y1="132.38" y2="137.3"><stop stop-color="#2e2a2b"/><stop stop-color="#2e2a2b" offset=".377"/><stop stop-color="#393536" offset=".777"/><stop stop-color="#4f4c4d" offset="1"/></linearGradient><linearGradient id="2" gradientUnits="userSpaceOnUse" x1="58.966" x2="59.17" y1="133.5" y2="132.36"><stop stop-color="#302c2d"/><stop stop-color="#302c2d" offset=".003"/><stop stop-color="#302c2d" offset=".389"/><stop stop-color="#444141" offset="1"/></linearGradient><linearGradient id="1" gradientUnits="userSpaceOnUse" x1="62.18" x2="62.26" y1="136.42" y2="135.79"><stop stop-color="#373334"/><stop stop-color="#373334" offset=".096"/><stop stop-color="#5e5b5c" offset=".157"/><stop stop-color="#5e5b5c" offset=".223"/><stop stop-color="#4b4748" offset=".253"/><stop stop-color="#4b4748" offset=".286"/><stop stop-color="#353132" offset=".422"/><stop stop-color="#3d3a3b" offset=".855"/><stop stop-color="#3d3a3b" offset="1"/></linearGradient><linearGradient id="3" gradientUnits="userSpaceOnUse" x2="0" y1="132.34" y2="137.3"><stop stop-color="#2e2a2b"/><stop stop-color="#2e2a2b" offset=".019"/><stop stop-color="#444141" offset=".284"/><stop stop-color="#393536" offset=".698"/><stop stop-color="#4f4c4d" offset="1"/></linearGradient><linearGradient id="7" gradientUnits="userSpaceOnUse" x1="61.846" x2="62.691"><stop stop-color="#353132"/><stop stop-color="#484546" offset="1"/></linearGradient><linearGradient id="F" gradientUnits="userSpaceOnUse" x1="53.674" x2="53.56" y1="132.71" y2="137.1"><stop stop-color="#231f20"/><stop stop-color="#231f20" offset=".3"/><stop stop-color="#5a5758" offset=".652"/><stop stop-color="#5a5758" offset=".7"/><stop stop-color="#353132" offset=".837"/><stop stop-color="#7b7979" offset=".876"/><stop stop-color="#484546" offset=".912"/><stop stop-color="#3d3a3b" offset=".952"/><stop stop-color="#3d3a3b" offset="1"/></linearGradient><linearGradient id="E" gradientUnits="userSpaceOnUse" x1="55.44" x2="56.54" y1="133.51" y2="132.99"><stop stop-color="#231f20"/><stop stop-color="#5a5758" offset=".199"/><stop stop-color="#5a5758" offset=".224"/><stop stop-color="#353132" offset=".397"/><stop stop-color="#353132" offset=".71"/><stop stop-color="#535051" offset=".853"/><stop stop-color="#3d3a3b" offset="1"/></linearGradient><linearGradient id="8" gradientUnits="userSpaceOnUse" x1="58.28" x2="58.917"><stop stop-color="#423e3f"/><stop stop-color="#535051" offset=".698"/><stop stop-color="#535051" offset="1"/></linearGradient><linearGradient id="D" gradientUnits="userSpaceOnUse" x2="0" y1="133.23" y2="137.29"><stop stop-color="#231f20"/><stop stop-color="#231f20" offset=".178"/><stop stop-color="#353132" offset=".385"/><stop stop-color="#5a5758" offset=".812"/><stop stop-color="#484546" offset=".912"/><stop stop-color="#3d3a3b" offset=".952"/><stop stop-color="#3d3a3b" offset="1"/></linearGradient><linearGradient id="C" gradientUnits="userSpaceOnUse" x2="0" y1="134.14" y2="137.22"><stop stop-color="#231f20"/><stop stop-color="#231f20" offset=".015"/><stop stop-color="#5a5758" offset=".152"/><stop stop-color="#5a5758" offset=".174"/><stop stop-color="#231f20" offset=".276"/><stop stop-color="#231f20" offset=".72"/><stop stop-color="#4c494a" offset=".756"/><stop stop-color="#4c494a" offset=".833"/><stop stop-color="#231f20" offset=".902"/><stop stop-color="#231f20" offset="1"/></linearGradient><linearGradient id="9" gradientUnits="userSpaceOnUse" x1="48.5" x2="48.758" y1="134.96" y2="136.41"><stop stop-color="#353132"/><stop stop-color="#353132" offset=".53"/><stop stop-color="#231f20" offset=".951"/><stop stop-color="#393536" offset=".958"/><stop stop-color="#393536" offset=".974"/><stop stop-color="#373334" offset="1"/></linearGradient><linearGradient id="B" gradientUnits="userSpaceOnUse" x1="58.26" x2="59.38" y1="134.6" y2="136.4"><stop stop-color="#2e2a2b"/><stop stop-color="#2e2a2b" offset=".002"/><stop stop-color="#2e2a2b" offset=".277"/><stop stop-color="#3f3c3d" offset=".713"/><stop stop-color="#231f20" offset=".74"/><stop stop-color="#231f20" offset="1"/></linearGradient><linearGradient id="A" gradientUnits="userSpaceOnUse" x2="0" y1="132.33" y2="134.13"><stop stop-color="#4f4c4d"/><stop stop-color="#4f4c4d" offset=".261"/><stop stop-color="#2e2a2b" offset=".997"/><stop stop-color="#2e2a2b" offset="1"/></linearGradient></defs><g transform="translate(-144.04 227.26)"><path d="m0 0c0-.163-.132-.295-.295-.295h-18.575c-.163 0-.295.132-.295.295v7.936c0 .163.132.295.295.295h18.575c.163 0 .295-.132.295-.295v-7.936" fill="#fff" transform="matrix(31.307 0 0-31.307 744.04 30.43)"/><g fill="#050301"><path d="m0 0c0-.152 0-.341-.16-.405-.07-.03-.174-.034-.23-.034h-.028-.396v1.401c.256 0 .544-.006.621-.021.164-.031.178-.161.185-.231v-.0001c.013-.099.015-.329.007-.683v-.017m.504 1.783c-.146.036-.254.042-.527.042h-2v-4.958h1.213v1.803h.854c.264 0 .514 0 .741.149.212.138.331.376.354.708v.007c.007.084.007.17.007.252v1.021.029c0 .235.005.784-.639.947" transform="matrix(31.307 0 0-31.307 249.76-117.34)"/><path d="m0 0c-.003.08.004.272.14.341.05.026.121.04.204.04h.021.007c.177 0 .355-.017.408-.214.013-.055.013-.068.013-.172v-2.414c0-.145-.012-.292-.16-.366-.08-.037-.194-.041-.24-.041-.153 0-.257.03-.318.091-.075.075-.075.188-.075.298v2.432.005m1.589.941c-.348.304-.8.345-1.196.345-.497 0-1.05-.067-1.387-.564-.215-.319-.232-.625-.232-.937v-1.917c0-.451.04-.631.119-.822.06-.155.157-.293.29-.411.37-.325.833-.352 1.238-.352.651 0 1.06.154 1.324.501.261.348.261.74.261 1.118v1.772c0 .263 0 .512-.085.765-.098.287-.274.448-.332.502" transform="matrix(31.307 0 0-31.307 335.19-135.22)"/><path d="m0 0h-1.226v-4.958h2.456v.898h-1.23v4.06" transform="matrix(31.307 0 0-31.307 445.59-174.48)"/><path d="m0 0h-.635l.321 2.1.314-2.1m.478 2.977h-1.613l-1-4.944-.003-.014h1.192l.175 1.125h.894l.168-1.125h1.193l-1 4.948h-.002" transform="matrix(31.307 0 0-31.307 557.44-81.29)"/><path d="m0 0h.351c.251 0 .366-.066.386-.22.015-.086.021-.262.021-.39 0-.386-.09-.498-.4-.498h-.358v1.108m1.226-1.818c.48.233.619.525.619 1.292 0 .396-.036.669-.113.857-.157.378-.52.546-1.178.546h-1.697v-4.958h1.143v2.103h.174l.669-2.094.002-.009h1.215l-.834 2.263" transform="matrix(31.307 0 0-31.307 649.11-147.03)"/></g><path fill="url(#9)" d="m48.28 135.03h.396.028c.03 0 .075 0 .12.001h-.351v1.34c.198 0 .418-.001.532-.02-.026.02-.059.04-.104.05-.077.001-.365.02-.621.02v-1.4" transform="matrix(31.307 0 0-31.307-1287.1 4123.8)"/><path fill="url(#A)" d="m48.28 134.14v-1.8l.193.04v1.76h-.193" transform="matrix(31.307 0 0-31.307-1287.1 4123.8)"/><path fill="url(#C)" d="m49.684 137.22c.456-.15.534-.52.547-.78 0 0 0-.0001 0-.02s0-.02 0-.02v-.0001-.02-.0001-.0001-.0001-.02-.02-.03-1.02c0-.08 0-.17-.008-.25-.023-.34-.143-.58-.354-.71-.013-.0001-.025-.02-.039-.03-.012-.0001-.024-.02-.036-.02h-.003c-.013-.0001-.026-.02-.038-.02h-.011c-.012-.0001-.023-.0001-.033-.02h-.007c-.012 0-.026-.0001-.038-.0001-.004 0-.009 0-.013-.0001h-.03c-.003 0-.007 0-.0001-.0001h-.037c-.006-.0001-.011-.0001-.016-.0001h-.026-.015c-.012-.0001-.024-.0001-.035-.0001h-.02-.02c-.013 0-.028-.0001-.041-.0001h-.006c.222 0 .434.02.63.15.21.14.328.37.35.7v.0001c.008.08.008.16.008.24v1 .03c0 .22.004.73-.559.91l-.135.04m-.297-3.08h.002-.002m-.004 0h.004-.004" transform="matrix(31.307 0 0-31.307-1287.1 4123.8)"/><path fill="url(#F)" d="m53.41 136.98c.058-.05.234-.22.332-.5.085-.26.085-.5.085-.77v-1.77c0-.38 0-.77-.261-1.12-.057-.07-.12-.14-.191-.19.095.06.177.14.248.23.257.35.257.73.257 1.1v1.73c0 .26 0 .5-.082.75-.097.28-.27.44-.328.5-.033.02-.067.05-.103.08.015-.02.028-.03.043-.04" transform="matrix(31.307 0 0-31.307-1287.1 4123.8)"/><path fill="url(#D)" d="m55.34 133.23l.038.05v3.96l-.038.05v-4.06" transform="matrix(31.307 0 0-31.307-1287.1 4123.8)"/><path fill="url(#E)" d="m55.38 133.28l-.038-.05h1.229l-.014.05h-1.177" transform="matrix(31.307 0 0-31.307-1287.1 4123.8)"/><path fill="url(#B)" d="m58.55 136.1l.263-1.76.1-.02-.314 2.1-.049-.32" transform="matrix(31.307 0 0-31.307-1287.1 4123.8)"/><path fill="url(#8)" d="m58.29 134.34l-.005-.02h.636l-.1.02h-.531" transform="matrix(31.307 0 0-31.307-1287.1 4123.8)"/><path fill="url(#3)" d="m57.715 137.24l-.983-4.86.046-.04 1.01 4.95-.068-.05" transform="matrix(31.307 0 0-31.307-1287.1 4123.8)"/><path fill="url(#2)" d="m58.945 133.46l.16-1.08.103-.04-.168 1.12h-.095" transform="matrix(31.307 0 0-31.307-1287.1 4123.8)"/><path fill="url(#4)" d="m60.56 137.24v-4.86l.142-.04v4.95l-.142-.05" transform="matrix(31.307 0 0-31.307-1287.1 4123.8)"/><path fill="url(#7)" d="m61.846 134.44h.002l.649-2.04.005-.02.189-.04-.67 2.1h-.175" transform="matrix(31.307 0 0-31.307-1287.1 4123.8)"/><path fill="url(#5)" d="m51.96 136.38c-.138-.07-.144-.26-.141-.34v-.001-1.22h.104v1.19.001c-.003.07.003.25.13.32.047.02.114.04.193.04h.02.008c.093 0 .185-.001.259-.04-.081.08-.211.09-.342.09h-.007-.021c-.084 0-.154-.001-.203-.04" transform="matrix(31.307 0 0-31.307-1287.1 4123.8)"/><path fill="url(#6)" d="m51.819 134.81v-1.21c0-.11 0-.22.075-.3.06-.06.165-.09.318-.09.046 0 .16.0001.239.04.029.02.052.03.071.05-.075-.03-.184-.04-.228-.04-.146 0-.245.03-.302.09-.069.07-.069.18-.069.28v1.18h-.104" transform="matrix(31.307 0 0-31.307-1287.1 4123.8)"/><path fill="url(#1)" d="m61.846 136.42v-.06h.183c.237 0 .346-.06.364-.2.015-.08.021-.26.021-.38v-.001h.187.003v.04c0 .12-.006.3-.021.39-.019.15-.136.22-.386.22h-.351" transform="matrix(31.307 0 0-31.307-1287.1 4123.8)"/><path fill="url(#G)" d="m62.41 135.77c-.002-.36-.085-.46-.378-.46h.168c.301 0 .395.1.4.46h-.19m-.568-.46h.19-.19" transform="matrix(31.307 0 0-31.307-1287.1 4123.8)"/><path fill="url(#P)" d="m58.11 133.49l.037-.03h.894l.036.03h-.967" transform="matrix(31.307 0 0-31.307-1287.1 4123.8)"/><path fill="url(#Q)" d="m48.26 134.98h.049.424l-.461.05-.012-.05" transform="matrix(31.307 0 0-31.307-1287.1 4123.8)"/><path fill="url(#S)" d="m50.826 136.76c-.215-.32-.233-.62-.233-.94 0 .31.066.61.273.91.323.48.862.55 1.346.55.388 0 .828-.04 1.163-.34.055-.05.225-.2.319-.48.082-.24.082-.49.082-.75v-1.77c0-.37 0-.75-.251-1.09-.254-.33-.65-.53-1.285-.53.651 0 1.06.16 1.324.5.261.35.261.74.261 1.12v1.77c0 .27 0 .51-.085.77-.098.28-.274.45-.332.5-.348.3-.799.34-1.196.34-.497 0-1.051-.06-1.386-.56" transform="matrix(31.307 0 0-31.307-1287.1 4123.8)"/><g clip-path="url(#0)" transform="matrix(31.307 0 0-31.307-1287.1 4123.8)"><path d="m0 0l.049-.849v.898l-.049-.049" fill="#231f20" transform="translate(56.53 133.18)"/></g><path fill="url(#T)" d="m58.23 134.32l-.009-.04h.731l-.038.04h-.684" transform="matrix(31.307 0 0-31.307-1287.1 4123.8)"/><path fill="url(#V)" d="m60.704 137.29l1.696-.02c.635 0 .985-.19 1.133-.54.074-.18.109-.45.109-.84 0-.4-.037-.64-.124-.83-.087-.17-.226-.3-.468-.42l-.039-.02.061-.02c.48.23.619.52.619 1.29 0 .4-.036.67-.113.86-.157.37-.519.54-1.178.54h-1.696" transform="matrix(31.307 0 0-31.307-1287.1 4123.8)"/><path fill="url(#W)" d="m47.06 137.29l.048-.05h1.955c.268 0 .374 0 .515-.04.261-.06.439-.2.528-.42.076-.17.074-.36.074-.48v-.03-.56h.05v.56.03c0 .24.005.79-.639.95-.145.04-.254.04-.527.04h-2" transform="matrix(31.307 0 0-31.307-1287.1 4123.8)"/><path fill="url(#U)" d="m50.23 135.71h-.049v-.46c0-.08 0-.16-.006-.25-.023-.32-.135-.54-.333-.67-.214-.14-.457-.19-.714-.19.265 0 .514 0 .741.15.211.13.331.37.354.71.008.08.008.17.008.25v.46" transform="matrix(31.307 0 0-31.307-1287.1 4123.8)"/><path fill="url(#R)" d="m52.16 136.44c-.087 0-.162-.001-.215-.04-.149-.07-.158-.28-.154-.36v-.001-1.22h.05v1.22.001c-.004.07.002.26.127.32.046.02.113.04.192.04h.02.008c.175 0 .36-.02.409-.2h.022v.08c-.08.15-.272.16-.43.16h-.029" transform="matrix(31.307 0 0-31.307-1287.1 4123.8)"/><path fill="url(#O)" d="m51.794 134.81v-1.22c0-.11.003-.22.082-.3.066-.07.176-.1.336-.1.047 0 .165 0 .251.04.16.08.174.24.174.39 0-.14-.038-.28-.173-.34-.076-.04-.208-.04-.252-.04-.146 0-.245.02-.301.08-.068.07-.067.18-.067.28v1.21h-.05" transform="matrix(31.307 0 0-31.307-1287.1 4123.8)"/><path fill="url(#H)" d="m55.34 133.23l-.049-.05h.049 1.181l.049.05h-1.23" transform="matrix(31.307 0 0-31.307-1287.1 4123.8)"/><path fill="url(#I)" d="m54.12 132.34l.048 4.9-.048.05v-4.95" transform="matrix(31.307 0 0-31.307-1287.1 4123.8)"/><path fill="url(#K)" d="m54.12 137.29l.048-.05h1.129l.049.05h-1.226" transform="matrix(31.307 0 0-31.307-1287.1 4123.8)"/><path fill="url(#N)" d="m61.846 136.44l.019-.05h.332c.239 0 .343-.06.362-.2.013-.07.019-.21.02-.33h.049c-.002.12-.008.26-.02.34-.022.17-.149.24-.411.24h-.351" transform="matrix(31.307 0 0-31.307-1287.1 4123.8)"/><path fill="url(#L)" d="m62.58 135.86c0-.02 0-.04 0-.05 0-.37-.081-.48-.376-.48h-.358v-.05h.358c.325 0 .424.13.424.53v.05h-.049" transform="matrix(31.307 0 0-31.307-1287.1 4123.8)"/><path fill="url(#M)" d="m62.02 134.44l.668-2.1h.002l.036.04-.66 2.07-.011.04-.035-.05" transform="matrix(31.307 0 0-31.307-1287.1 4123.8)"/><path fill="url(#J)" d="m62.02 134.49h-.175-.049l.049-.05h.175l.035.05h-.035" transform="matrix(31.307 0 0-31.307-1287.1 4123.8)"/></g></svg>