<svg xmlns="http://www.w3.org/2000/svg" viewBox="0 0 600 319.53"><defs><clipPath id="0"><path d="m45.36 296.64h19.761v10.345h-19.761v-10.345"/></clipPath></defs><g transform="translate(37.14-418.31)"><g clip-path="url(#0)" transform="matrix(31.2598 0 0-31.2598-1472.87 10014.71)"><path d="m62.51 306.99h-16.577v-5.235h16.577v5.235" fill="#443a3d"/><g fill="#fff"><path d="m0 0c0-.043-.035-.078-.11-.105-.207-.07-.398-.105-.578-.105-.27 0-.528.066-.779.202-.501.277-.779.74-.779 1.312 0 .315.087.599.255.856.172.257.403.447.692.568.188.082.388.121.603.121.145 0 .301-.024.469-.066.051-.012.09-.028.125-.043l.043-.02c.035-.015.055-.042.055-.077v-.751c0-.02-.008-.028-.02-.028-.003 0-.015.008-.035.02-.058.058-.144.105-.258.144-.121.042-.231.062-.324.062-.341 0-.626-.179-.756-.479-.043-.097-.062-.202-.062-.315 0-.222.082-.401.246-.541.153-.128.341-.195.564-.195.254 0 .449.07.594.215.012.015.024.023.031.023.016 0 .024-.023.024-.074v-.724" transform="translate(49.06 303.16)"/><path d="m49.618 305.95h.763v-2.919h-.763v2.919"/><path d="m0 0l-1.401 1.786v-1.786h-.763v2.919h.763l1.401-1.787v1.787h.763v-2.919h-.763" transform="translate(53.15 303.03)"/><path d="m0 0v2.919h.254l.043.12h1.158l-.043-.12h.255v-.643h-.904v-.486h.857v-.642h-.857v-.506h.904v-.642h-1.667" transform="translate(54.45 303.03)"/></g><path d="m0 0c-5.237-.566-10.474-1.133-15.712-1.699-.162 1.822-.323 3.645-.485 5.468 5.221.297 10.443.594 15.664.89.177-1.553.355-3.106.533-4.659" fill="#fab20b" transform="translate(65.69 298.47)"/><g fill="#fff"><path d="m0 0c.076-.333.114-.499.19-.83.299.029.449.044.748.074-.252.998-.502 1.998-.752 2.998-.296-.02-.444-.03-.74-.05-.113-.423-.17-.636-.284-1.062-.005-.016-.0001-.031-.018-.045-.007-.014-.016-.028-.025-.04-.0001-.013-.021-.024-.033-.035-.012-.0001-.024-.019-.038-.026-.014-.008-.028-.014-.043-.019-.015-.005-.031-.008-.048-.009-.017 0-.033 0-.049 0-.016.003-.031.007-.046.012-.015.005-.03.012-.044.021-.013.008-.026.017-.038.028-.012.011-.023.023-.033.036-.0001.013-.019.027-.027.042-.189.405-.283.608-.473 1.016-.295-.02-.443-.03-.739-.049-.06-1.058-.119-2.116-.178-3.174.297.029.446.044.744.073.013.347.019.521.032.868.002.018.005.034.009.05.005.016.011.032.018.046.007.015.016.028.026.041.009.013.02.025.032.035.012.0001.025.02.038.027.014.008.029.015.044.019.015.005.031.009.048.0001.016 0 .033 0 .048 0 .016-.002.032-.006.047-.011.015-.006.03-.012.043-.02.014-.009.027-.018.039-.029.012-.011.023-.022.033-.036.0001-.013.018-.026.026-.042.169-.348.254-.522.423-.868.12.012.18.018.3.029.103.372.155.558.259.927.005.016.011.031.018.045.007.015.016.028.025.041.0001.013.021.024.033.034.012.011.024.02.038.027.014.008.028.014.044.019.015.005.031.008.047.0001.017 0 .033 0 .049-.002.016-.002.032-.005.047-.0001.014-.006.029-.012.043-.02.013-.008.026-.017.038-.028.012-.011.024-.022.034-.035.0001-.013.018-.027.026-.042.007-.014.014-.03.019-.046" transform="translate(58.926 299.57)"/><path d="m0 0c-.202-.018-.383.151-.405.376-.021.226.125.421.327.437.202.016.384-.153.405-.377.022-.223-.125-.419-.327-.436m.219 2.034c-.326-.022-.488-.033-.813-.055-.269-1.105-.536-2.21-.801-3.316.316.031.474.047.791.078.04.163.061.244.101.407.009.033.024.063.043.09.02.026.043.048.071.064.028.016.058.027.091.03.281.026.422.039.703.065.033.003.066 0 .096-.012.029-.011.057-.028.081-.05.024-.022.045-.049.06-.079.068-.151.102-.226.17-.376.319.031.479.047.798.078-.467 1.024-.931 2.049-1.391 3.076" transform="translate(54.43 299.48)"/><path d="m0 0c.419.041.628.062 1.047.103-.067.632-.135 1.264-.202 1.896-.419-.033-.628-.049-1.046-.082.067-.639.134-1.278.201-1.917" transform="translate(60.36 298.86)"/><path d="m0 0c-.31-.019-.534-.299-.5-.624.034-.326.313-.57.624-.547.31.024.534.303.5.624-.035.322-.314.567-.624.547" transform="translate(60.53 302.22)"/><path d="m0 0c-.014.15.082.281.214.293.232.02.347.03.578.049-.027.286-.04.429-.067.714-.231-.018-.346-.027-.577-.046-.132-.001-.25.104-.265.254-.013.15.083.28.215.29.263.019.394.029.657.049-.026.285-.04.427-.067.712-.657-.044-.986-.066-1.643-.11.1-1.097.2-2.195.3-3.292.299.029.449.044.748.074-.037.405-.056.608-.093 1.013" transform="translate(52.11 299.07)"/><path d="m0 0c-.016-.002-.033 0-.049 0-.015.002-.031.006-.046.0001-.015.005-.03.012-.044.019-.013.008-.026.017-.038.027-.012.0001-.023.021-.033.033-.011.012-.02.026-.027.04-.008.013-.014.029-.019.044-.005.016-.009.032-.011.049 0 .016 0 .033 0 .049.002.016.005.032.009.047.004.015.0001.03.017.043.304.66.61 1.319.919 1.976-.792-.053-1.584-.106-2.375-.159.028-.26.042-.39.07-.651.282.021.423.031.705.052.017 0 .033 0 .049-.002.016 0 .031-.005.047-.011.014-.005.029-.011.043-.019.013-.008.026-.017.038-.027.012-.011.024-.022.033-.034.011-.013.02-.026.027-.04.008-.014.014-.029.019-.045.005-.016.009-.032.0001-.049.002-.017.002-.033 0-.05 0-.016-.005-.031-.009-.046-.004-.015-.0001-.03-.018-.044-.311-.672-.62-1.345-.927-2.02.822.081 1.643.161 2.464.242-.028.255-.042.382-.071.637-.313-.029-.47-.044-.784-.072" transform="translate(63.3 299.8)"/><path d="m0 0v-1.051c0-.039-.008-.055-.039-.055h-.801c-.027 0-.043.02-.043.048v1.05c0 .043-.015.059-.05.059h-1.04c-.031 0-.046.019-.046.054v.797c0 .031.011.047.043.047h1.047c.031 0 .046.015.046.051v.902c0 .023.016.039.039.039h.797c.032 0 .047-.012.047-.039v-.902c0-.043.008-.051.043-.051h1.047c.031 0 .043-.016.043-.051v-.801c0-.027-.015-.046-.043-.046h-1.035c-.043 0-.055-.008-.055-.051" transform="translate(60.35 304.08)"/></g></g></g></svg>