<svg xmlns="http://www.w3.org/2000/svg" viewBox="0 0 556.44 556.44" xmlns:xlink="http://www.w3.org/1999/xlink"><defs><clipPath><path d="m49.34 168.7c0-.065 2.642-.117 5.902-.117 3.26 0 5.902.052 5.902.117 0 .064-2.642.116-5.902.116-3.26 0-5.902-.052-5.902-.116"/></clipPath><clipPath><path d="m0 0h524.41v651.97h-524.41v-651.97"/></clipPath><clipPath id="0"><path d="m49.34 168.58h11.804v11.09h-11.804v-11.09"/></clipPath><linearGradient x1="53.52" x2="54.48" id="3" gradientUnits="userSpaceOnUse"><stop stop-color="#42be9c"/><stop offset="1" stop-color="#172d29"/></linearGradient><linearGradient x1="57.6" x2="59.5" id="2" gradientUnits="userSpaceOnUse"><stop stop-color="#57c5a9"/><stop offset="1" stop-color="#25564e"/></linearGradient><linearGradient x1="51.858" y1="179.92" x2="59.01" y2="168.02" id="1" gradientUnits="userSpaceOnUse"><stop stop-color="#e2e2e2"/><stop offset="1" stop-color="#484546"/></linearGradient><radialGradient cx="0" cy="0" r="1" id="4" gradientUnits="userSpaceOnUse" gradientTransform="matrix(5.0432 0 0-5.0432 54.664 173.48)"><stop stop-color="#387769"/><stop offset=".526" stop-color="#3bab8c"/><stop offset="1" stop-color="#387466"/></radialGradient><radialGradient cx="0" cy="0" r="1" id="5" gradientUnits="userSpaceOnUse" gradientTransform="matrix(6.0559-6.72581-6.72581-6.0559 50.777 179.62)"><stop stop-color="#fff"/><stop offset="1" stop-color="#d5d4d5"/></radialGradient></defs><g transform="translate(-74.3-250.46)"><path d="m52.55 179.67c-1.511 0-2.736-1.226-2.736-2.737v-5.473c0-1.512 1.225-2.737 2.736-2.737h5.474c1.512 0 2.737 1.225 2.737 2.737v5.473c0 1.511-1.225 2.737-2.737 2.737h-5.474" fill="url(#1)" transform="matrix(50.83023 0 0-50.83023-2458.01 9383.28)"/><path d="m52.612 179.56c-1.479 0-2.679-1.201-2.679-2.68v-5.361c0-1.479 1.2-2.68 2.679-2.68h5.361c1.479 0 2.68 1.201 2.68 2.68v5.361c0 1.479-1.201 2.68-2.68 2.68h-5.361" fill="url(#5)" transform="matrix(50.83023 0 0-50.83023-2458.01 9383.28)"/><g clip-path="url(#0)" transform="matrix(50.83023 0 0-50.83023-2458.01 9383.28)"><g fill="#bbbcbf"><path d="m0 0v.004c0 .372.278.68.665.68.212 0 .347-.07.469-.171.015-.014.03-.034.03-.06 0-.04-.035-.074-.075-.074-.021 0-.037.001-.049.017-.101.09-.216.15-.377.15-.291 0-.509-.236-.509-.539v-.003c0-.304.22-.543.509-.543.163 0 .278.056.39.16.012.011.029.02.047.02.038 0 .072-.033.072-.071 0-.023-.011-.041-.025-.053-.129-.118-.272-.193-.488-.193-.379 0-.659.299-.659.676" transform="translate(51.14 177.02)"/><path d="m0 0c0 .041.034.075.073.075.042 0 .075-.034.075-.075v-1.183c0-.041-.033-.075-.075-.075-.039 0-.073.034-.073.075v1.183" transform="translate(52.705 177.61)" id="6"/><path d="m0 0c0 .039.034.073.073.073h.021c.034 0 .054-.017.075-.043l.798-1.018v.992c0 .039.032.073.073.073.04 0 .072-.034.072-.073v-1.187c0-.039-.029-.069-.068-.069h-.007c-.032 0-.055.018-.077.045l-.815 1.042v-1.018c0-.039-.032-.073-.074-.073-.039 0-.071.034-.071.073v1.183" transform="translate(53.34 177.61)" id="7"/><path d="m0 0v1.164c0 .042.034.075.073.075h.817c.038 0 .068-.03.068-.067 0-.038-.03-.068-.068-.068h-.742v-.449h.658c.037 0 .067-.032.067-.067 0-.038-.03-.068-.067-.068h-.658v-.46h.751c.038 0 .068-.03.068-.068 0-.037-.03-.067-.068-.067h-.826c-.039 0-.073.034-.073.075" transform="translate(54.929 176.44)" id="8"/></g><g fill="#91979d"><path d="m0 0v.004c0 .372.278.68.665.68.212 0 .347-.07.469-.171.015-.014.03-.034.03-.06 0-.04-.035-.074-.075-.074-.021 0-.037.001-.049.017-.101.09-.216.15-.377.15-.291 0-.509-.236-.509-.538v-.004c0-.304.22-.543.509-.543.163 0 .278.056.39.16.012.011.029.02.047.02.038 0 .072-.033.072-.071 0-.023-.012-.041-.025-.053-.129-.118-.272-.193-.488-.193-.379 0-.659.299-.659.676" transform="translate(51.14 177.07)"/><g transform="translate(0 .06)"><use xlink:href="#6"/><use xlink:href="#7"/></g><use transform="translate(0 .06)" xlink:href="#8"/></g></g><path d="m57.46 176.01l-.779-1.116-.778 1.116h-.95-1.031-2.763v-5.304h1.625v1.823h.772l.926 1.33h-1.698v.683h2.152l.754-1.092-1.882-2.744h1.989l.884 1.299.892-1.299h1.981l-1.875 2.744 1.769 2.56h-1.988" fill="url(#4)" transform="matrix(50.83023 0 0-50.83023-2458.01 9383.28)"/><g clip-path="url(#0)" transform="matrix(50.83023 0 0-50.83023-2458.01 9383.28)"><path d="m0 0c-.024-.023-.025-.062-.002-.086.023-.024.062-.025.086-.002l.28.266c.024.023.025.062.002.086-.023.024-.062.025-.086.002l-.28-.266" fill="#bbbcbf" transform="translate(55.32 178.12)"/><path d="m0 0c-.024-.023-.025-.062-.002-.086.023-.024.061-.025.086-.002l.28.266c.024.023.025.062.002.086-.023.024-.062.025-.086.002l-.28-.266" fill="#91979d" transform="translate(55.31 178.15)"/><path d="m0 0l.091-.083h4.623l.03.083h-4.744" fill="#1e433d" transform="translate(51.16 176.01)"/><path d="m0 0l.103.103v5.129l-.091.083-.012-5.315" fill="#2b665d" transform="translate(51.15 170.69)"/><path d="m0 0l-.093.09h-1.441l-.103-.101 1.637.011" fill="#59c6b3" transform="translate(52.783 170.7)"/><path d="m0 0l.091-.107-.002-1.822-.091.09.002 1.839" fill="#3cae94" transform="translate(52.693 172.63)"/><path d="m0 0l-.035.105h-.826l.091-.107.77.002" fill="#5bc7b6" transform="translate(53.55 172.53)"/></g><path d="m54.32 173.77l-.801-1.139.036-.106.927 1.333-.162-.088" fill="url(#3)" transform="matrix(50.83023 0 0-50.83023-2458.01 9383.28)"/><g clip-path="url(#0)" transform="matrix(50.83023 0 0-50.83023-2458.01 9383.28)"><path d="m0 0l-.09-.088h1.626l.163.088h-1.699" fill="#225145" transform="translate(52.784 173.86)"/><path d="m0 0l.089-.107v-.679l-.09-.088v.874" fill="#3db498" transform="translate(52.693 174.65)"/><path d="m0 0l-.066-.107h-2.152l-.089.107h2.307" fill="#59c6b4" transform="translate(55 174.65)"/><path d="m0 0l.126.003-.815 1.196-.066-.107.755-1.092" fill="#379a82" transform="translate(55.69 173.45)"/><path d="m0 0l.172.083 1.836 2.664-.126-.003-1.882-2.744" fill="#224b47" transform="translate(53.807 170.7)"/><path d="m0 0l-.056.094h-1.793l-.172-.083 2.02-.011" fill="#52c4ad" transform="translate(55.828 170.69)"/><path d="m0 0v-.139l-.851-1.31-.056.094.907 1.355" fill="#54c5ae" transform="translate(56.68 172.14)"/><path d="m0 0l.075.084-.968 1.354v-.139l.892-1.299" fill="#39a088" transform="translate(57.57 170.7)"/><path d="m0 0l-.173.11-1.778-.002-.076-.084 2.027-.024" fill="#51c4ad" transform="translate(59.6 170.68)"/><path d="m0 0h.129l1.873-2.775-.173.11-1.829 2.665" fill="#2e7065" transform="translate(57.6 173.45)"/><path d="m0 0l.072-.083h1.797l.173.104-2.042-.021" fill="#1f463f" transform="translate(57.46 176.01)"/><path d="m0 0v-.151l.85 1.184-.072.082-.779-1.115" fill="#214a43" transform="translate(56.68 174.89)"/><path d="m0 0l-.809 1.183.03.083.778-1.115v-.151" fill="#296258" transform="translate(56.68 174.74)"/></g><path d="m59.33 175.92l-1.73-2.471h.129l1.775 2.573-.174-.102" fill="url(#2)" transform="matrix(50.83023 0 0-50.83023-2458.01 9383.28)"/></g></svg>