<?xml version="1.0" encoding="UTF-8" standalone="no"?>
<svg xmlns:rdf="http://www.w3.org/1999/02/22-rdf-syntax-ns#" xmlns="http://www.w3.org/2000/svg" height="359.62" viewBox="0 0 600 359.61835" width="600" version="1.1" xmlns:cc="http://creativecommons.org/ns#" xmlns:dc="http://purl.org/dc/elements/1.1/">
 <path d="m491.79 56.368h-491.79v155.31h491.79z" fill="#443a3d"/>
 <g fill="#fff">
  <path d="m92.872 169.85c0 1.25-1.038 2.29-3.265 3.11-6.132 2.08-11.806 3.11-17.145 3.11-8.024 0-15.681-1.95-23.125-5.98-14.827-8.2-23.094-21.96-23.094-38.92 0-9.34 2.562-17.79 7.566-25.42 5.094-7.592 11.959-13.267 20.531-16.836 5.583-2.441 11.502-3.57 17.878-3.57 4.301 0 8.939 0.702 13.911 1.953 1.526 0.335 2.685 0.823 3.722 1.281l1.282 0.58c1.037 0.457 1.617 1.251 1.617 2.288v22.304c0 0.58-0.214 0.79-0.58 0.79-0.122 0-0.458-0.21-1.037-0.58-1.739-1.71-4.302-3.11-7.658-4.27-3.6-1.25-6.864-1.83-9.64-1.83-10.098 0-18.549 5.31-22.393 14.19-1.281 2.89-1.861 6.01-1.861 9.36 0 6.56 2.441 11.9 7.322 16.05 4.515 3.81 10.098 5.76 16.718 5.76 7.536 0 13.332-2.07 17.634-6.34 0.335-0.46 0.701-0.7 0.915-0.7 0.458 0 0.702 0.7 0.702 2.19z"/>
  <path d="m109.43 87.181h22.64v86.579h-22.64z"/>
  <path d="m214.33 173.77-41.55-52.99v52.99h-22.64v-86.583h22.64l41.55 52.993v-52.993h22.64v86.583z"/>
  <path d="m252.83 173.77v-86.583h7.54l1.28-3.6h34.35l-1.28 3.6h7.56v19.033h-26.81v14.43h25.41v19.07h-25.41v15.01h26.81v19.04z"/>
 </g>
 <path d="m586.24 309.19c-155.34 16.84-310.69 33.62-466.03 50.43-4.79-54.09-9.61-108.18-14.4-162.24 154.88-8.79 309.77-17.61 464.63-26.39 5.25 46.07 10.53 92.13 15.8 138.2" fill="#102d5d"/>
 <g fill="#fff">
  <path d="m286.35 285.9c-2.66 8.18-9.86 22.21-18.67 23.07-4.34 0.42-6.96-1.22-7.51-6.65-0.3-2.84 0.46-6.23 1.28-11.29 4-25.6 5.98-38.32 9.98-63.67 0.52-3.3 1.46-8.06 1.28-10.01-0.25-2.32-2.78-2.93-5.98-3.11 0.03-1.1 0.06-1.65 0.09-2.75 7.66-0.82 11.5-1.22 19.19-2.01-5.28 32.25-7.93 48.48-13.21 81.18-0.4 2.11-0.82 4.91-0.67 6.47 0.18 2.07 0.7 2.41 1.77 2.32 3.42-0.31 8.11-11.72 9.33-14.98 1.25 0.58 1.86 0.85 3.12 1.43"/>
  <path d="m307.83 292.39c0.37 3.72 2.41 6.49 5.95 6.16 9.64-0.92 20.2-34.35 19.1-45.4-0.37-3.44-2.44-7.62-6.07-7.35-12.11 0.92-19.62 39.9-18.98 46.59m39.39-50.98c-3.33 18.39-4.97 27.61-8.3 46.16-0.31 1.58-0.34 2.62-0.27 2.99 0.18 1.76 1.09 2.71 1.67 2.65 3.05-0.28 7.08-11.01 8.58-13.82 1.03 0.61 1.52 0.95 2.53 1.56-2.99 6.77-9.06 20.77-17.18 21.56-4.48 0.43-6.13-3.14-6.56-7.35-0.36-3.81 0.43-7.75 0.67-11.38-0.12 0.03-0.15 0.03-0.24 0.03-3.69 9.34-8.57 20.14-19.52 21.18-7.75 0.76-12.6-5.16-13.4-13.28-1.68-17.11 12.3-47.25 31.7-48.75 5.61-0.42 9.37 3.21 11.93 3.3 1.86 0.06 3.48-3.21 4.39-4.55 1.59-0.12 2.41-0.18 4-0.3"/>
  <path d="m386.17 245.6c-0.73-3.14-2.04-4.06-4.7-4.06-3.69 0.03-6.71 2.69-6.28 6.84 0.91 9 20.19 15.16 21.72 29.99 1.28 12.44-7.44 18.82-18.15 19.86-6.96 0.67-18.83-0.49-19.8-10.07-0.31-3.02 1.58-6.5 4.63-6.77 10.38-0.95 7.94 14.73 17.46 13.82 3.87-0.37 6.65-5.92 6.25-9.67-1.28-12.6-20.32-16.63-21.72-30.33-1.04-10.07 6.8-15.71 15.5-16.38 5.18-0.4 17.05 1.07 17.81 8.39 0.37 3.35-1.37 6.01-4.67 6.28-5.06 0.4-7.04-3.44-8.05-7.9"/>
  <path d="m433.68 241.85c-0.73-3.08-2.04-3.97-4.7-3.97-3.69 0.03-6.71 2.63-6.28 6.71 0.94 8.85 20.19 14.89 21.75 29.48 1.28 12.23-7.44 18.51-18.15 19.55-6.93 0.67-18.83-0.46-19.8-9.85-0.31-2.99 1.58-6.41 4.64-6.68 10.37-0.95 7.93 14.49 17.48 13.57 3.87-0.36 6.62-5.86 6.22-9.55-1.31-12.38-20.35-16.32-21.75-29.8-1.04-9.89 6.8-15.44 15.5-16.11 5.18-0.4 17.05 1.04 17.81 8.24 0.37 3.29-1.37 5.88-4.67 6.16-5.06 0.43-7.01-3.36-8.05-7.75"/>
  <path d="m478.12 219.24c-3.63 0.27-7.38-2.63-7.84-6.75-0.43-4.11 2.62-7.5 6.28-7.74 3.64-0.25 7.39 2.68 7.85 6.77 0.42 4.09-2.66 7.44-6.29 7.72m7.81 50.09c-3.2 7.6-8.97 19.37-18.03 20.26-3.42 0.33-6.56-1.22-6.99-5.25-0.15-1.43-0.27-3.63 1.1-8.79 2.66-10.46 4-15.68 6.68-26.08 0.95-3.51 1.53-5.74 1.41-6.83-0.12-1.19-0.52-1.68-1.59-1.59-3.54 0.27-6.31 8.69-9.94 14.64-1.07-0.42-1.62-0.64-2.72-1.09 4.64-10.96 10.98-22.34 17.57-22.86 4.61-0.33 7.42 2.63 7.84 6.47 0.22 2.05-0.3 6.1-1.43 10.95-2.59 10.01-3.88 15.01-6.44 25.08-0.67 2.63-1.1 4.27-0.91 5.98 0.09 0.7 0.85 1.25 1.55 1.19 3.3-0.3 7.78-10.62 9.16-13.3 1.09 0.49 1.64 0.73 2.74 1.22"/>
  <path d="m536.62 262c-4.79 10.22-10.04 21.91-22.76 23.16-9.52 0.91-15.5-3.72-16.6-13.7-1.74-16.08 8.67-42.19 27.03-43.6 5.28-0.39 14.13 1.32 14.74 6.99 0.45 3.91-0.83 7.32-5.31 7.69-4.33 0.36-6.65-2.32-7.08-6.22-0.55-5.01-1.25-5.89-4.18-5.68-10.34 0.79-12.9 31.48-12.02 39.51 0.82 7.63 2.84 9.52 7.66 9.06 7.41-0.7 12.51-12.48 15.44-18.24 1.22 0.42 1.86 0.61 3.08 1.03"/>
  <path d="m241.35 281.2c-2.74 14.09-4.12 21.17-6.86 35.36-1.28-0.31-1.92-0.43-3.17-0.74 0.73-2.34-1.59-3.78-4.4-3.5-2.93 0.27-10.58 6.01-21.14 7.04-21.35 2.11-39.45-12.87-41.37-37.15-2.65-33.59 20.17-75.18 56.08-78.26 8.69-0.73 17.6 3.27 25.44 8.12 1.83-1.07 2.75-1.59 4.54-2.66 0.89 0.71 1.32 1.07 2.2 1.8-2.16 13.24-3.23 19.86-5.4 33.17-1.74-0.25-2.62-0.34-4.36-0.58-0.06-2.23-0.18-4.76-0.43-7.3-1.28-13.51-5.79-30.75-20.01-28.61-30.88 4.64-40.12 52.04-37.83 80.69 1.04 13.18 8.63 27.92 21.96 26.6 15.62-1.49 25.05-21.44 30.57-35.57 1.68 0.64 2.51 0.95 4.18 1.59"/>
  <path d="m427.92 142.77v31.18c0 1.16-0.21 1.61-1.16 1.61h-23.76c-0.79 0-1.28-0.57-1.28-1.4v-31.15c0-1.28-0.46-1.74-1.5-1.74h-30.81c-0.95 0-1.4-0.58-1.4-1.64v-23.62c0-0.94 0.36-1.37 1.28-1.37h31.05c0.92 0 1.38-0.49 1.38-1.52v-26.76c0-0.702 0.49-1.159 1.16-1.159h23.67c0.92 0 1.37 0.335 1.37 1.159v26.76c0 1.25 0.25 1.52 1.28 1.52h31.06c0.92 0 1.28 0.43 1.28 1.5v23.73c0 0.82-0.45 1.4-1.28 1.4h-30.72c-1.25 0-1.62 0.25-1.62 1.5"/>
 </g>
 <g>
  <path d="m600 77.656c-3.44-25.896-6.92-51.76-10.36-77.656h-165.67c6.92 33.649 13.8 67.331 20.72 100.95 51.76-7.756 103.55-15.508 155.31-23.294" fill="#e91f26"/>
  <path d="m497.67 77.285c-1.73-9.456-2.6-14.167-4.31-23.624-8.42 0.668-12.59 0.969-20.98 1.638 1.87 9.757 2.81 14.635 4.68 24.392-5.75 0.669-8.62 1.003-14.34 1.671-3.97-20.182-7.95-40.365-11.89-60.548 5.94-0.167 8.92-0.2 14.9-0.367 1.74 9.156 2.61 13.767 4.38 22.922 8.45-0.501 12.66-0.768 21.11-1.236-1.6-8.888-2.4-13.332-4.04-22.187 5.98-0.134 8.96-0.201 14.94-0.368 3.27 18.679 6.58 37.358 9.86 56.037-5.72 0.668-8.59 1.002-14.31 1.67" fill="#fff"/>
  <path d="m540.82 30.341c-1.34 0.066-2.01 0.1-3.35 0.133 1.94 11.896 2.91 17.844 4.82 29.706 1.3-0.1 1.97-0.167 3.24-0.301 9.59-0.902 14.93-7.184 13.6-15.872-1.31-8.688-8.56-14.101-18.31-13.666m10.09 40.732c-8.42 1.003-12.63 1.504-21.05 2.473-3.05-18.144-6.12-36.255-9.16-54.399 8.75-0.201 13.17-0.301 21.92-0.502 14.5 0.067 29.64 10.058 31.78 24.293 2.07 13.667-9.69 26.264-23.49 28.135" fill="#fff"/>
 </g>
</svg>
