<svg xmlns="http://www.w3.org/2000/svg" height="43.32" viewBox="0 0 90.443717 43.321045" width="90.44"><path fill="#0f95c9" d="m3.706 43.23l-2.463-.087.288-.758c.158-.417.288-1.245.288-1.841 0-1.898 2.208-5.959 4.386-8.07 1.889-1.829 4.963-3.709 6.07-3.709.317 0 .744-.203.949-.45.205-.247.6-.45.877-.45.842 0 1.223-.652 1.223-2.093 0-1.823-.636-2.707-1.949-2.707-.558 0-1.099-.135-1.201-.3-.102-.165-.633-.3-1.181-.3-.548 0-1.164-.203-1.369-.45-.205-.247-.63-.45-.943-.45s-1.104-.337-1.757-.75c-.653-.413-1.28-.75-1.392-.75-.237 0-3.112-2.142-3.735-2.782-.233-.238-.786-.847-1.23-1.353-.994-1.132-.967-1.163 2.574-3.038l1.367-.724 1.48 1.385c1.915 1.792 4.616 3.513 5.512 3.513.387 0 .856.151 1.041.337.539.539 7.219.612 8.228.091.454-.235 1.15-.427 1.546-.427.396 0 1.355-.337 2.131-.75.776-.412 1.532-.75 1.68-.75.373 0 2.869-1.679 4.541-3.055.765-.63 1.529-1.145 1.697-1.145.419 0 2.761 2.835 2.761 3.342 0 1.341-7.588 6.858-9.431 6.858-.382 0-.863.203-1.068.45-.219.264-.884.453-1.612.457-1.871.0001-2.485.675-2.671 2.889-.161 1.922.076 2.504 1.019 2.504.284 0 .898.191 1.365.424s1.367.672 2 .975c.633.303 1.668 1.023 2.3 1.601 1.195 1.093 3.296 4.184 3.304 4.861.002.214.198.944.434 1.621.236.677.522 2.252.635 3.5l.206 2.268-2.232.1c-1.868.084-2.237.023-2.267-.375-.043-.587-.89-4.631-1.201-5.737-.335-1.192-2.271-3.371-3.585-4.04-1.535-.778-5.076-.932-6.344-.276-.506.261-1.202.475-1.549.475-.933 0-3.597 1.813-4.99 3.395-1.078 1.225-1.683 2.414-2.926 5.755l-.335.9-2.463-.087zm34.65-6.929c-2.505-.529-5.093-3.085-5.97-5.895-.716-2.293-.71-3.811.023-6.184.711-2.302 2.331-4.045 4.812-5.177 2.214-1.01 5.8-.953 7.649.123 1.371.798 3.15 2.38 3.15 2.802 0 .547-1.956 2.292-2.573 2.295-.342.002-.926-.319-1.296-.714-1.633-1.738-4.698-1.672-6.768.145-3.466 3.044-1.01 9.105 3.672 9.05 1.25-.014 3.664-1.281 3.664-1.922 0-.143.269-.259.597-.259.725 0 2.403 1.685 2.403 2.413 0 .585-1.633 2.13-2.995 2.834-1.041.538-4.773.823-6.368.486m11.963-.534c-.11-.11-.2-3.829-.2-8.265v-8.06l1.725.09 1.725.09.08 7.929c.062 6.144-.005 7.983-.3 8.17-.46.292-2.75.33-3.03.05m10.8 0c-.11-.11-.202-2.911-.205-6.225-.002-3.314-.108-6.187-.234-6.386-.136-.213-1.144-.397-2.47-.45l-2.241-.089-.091-1.581-.091-1.581 6.841.081 6.841.081v1.5 1.5l-2.4.15-2.4.15-.081 6.127c-.052 3.901-.201 6.272-.412 6.525-.338.407-2.695.56-3.057.198m15.9 0c-.11-.11-.2-1.863-.2-3.896v-3.696l-3-3.115c-1.65-1.713-3-3.24-3-3.393 0-.153.534-.8 1.186-1.436l1.186-1.158 2.326 2.447c1.279 1.346 2.536 2.447 2.793 2.447.257 0 2.422-1.957 4.81-4.35s4.485-4.35 4.66-4.35.846.541 1.491 1.201l1.173 1.201-5.01 5.04-5.01 5.04v3.923c0 3.3-.075 3.952-.475 4.105-.637.245-2.675.232-2.925-.018m-66.09-21.933c-1.216-1.051-1.605-1.85-1.605-3.293 0-2.237.813-4.146 2.579-6.05 1.712-1.849 4.661-3.62 6.03-3.62.391 0 1.196-.203 1.789-.45 1.344-.561 3.02-.561 4 0 .413.236 1.052.434 1.42.439.369.006 1.106.4 1.638.875.882.788.978 1.048 1.081 2.925.086 1.566-.027 2.384-.471 3.412-1.11 2.571-3.46 4.625-6.384 5.582-.821.269-1.566.607-1.656.752-.09.145-1.809.26-3.82.256-3.544-.008-3.687-.033-4.602-.825m8.68-3.509c1.337-.559 2.915-2.445 2.915-3.486 0-.435-.28-1.147-.622-1.582-.525-.668-.857-.79-2.14-.79-1.817 0-3.224.769-4.299 2.35-.903 1.329-.933 2.124-.118 3.159.5.635.875.79 1.913.79.71 0 1.768-.199 2.35-.442"/></svg>