<svg xmlns="http://www.w3.org/2000/svg" height="97.3" width="600" viewBox="0 0 158.75 25.744557" xmlns:xlink="http://www.w3.org/1999/xlink"><g fill="#00adef"><path d="m0 0h.003v.004z" transform="matrix(2.7301 0 0-2.7301 40.742 19.31)"/><path d="m0 0h-.478l-3-6.361.311-.686 2.922 6.117 3.878-8.483h.633z" transform="matrix(2.7301 0 0-2.7301 51.14.04)"/></g><path d="m0 0c.367.342.887.525 1.504.528h.015c.603 0 1.206-.191 1.79-.567l.012-.008-.392.911c-.445.18-.906.269-1.396.269h-.02c-1.561-.008-2.689-1.041-2.682-2.455.007-1.274 1.163-1.861 2.282-2.429 1.048-.532 2.039-1.034 2.044-2.055.002-.505-.191-.969-.545-1.305-.388-.368-.94-.564-1.598-.567h-.017c-.978 0-1.895.426-2.383.79l-.053.04-.002-.026.41-.952c.608-.287 1.336-.457 2-.457h.019c.849.004 1.572.275 2.09.785.475.467.735 1.096.731 1.771-.007 1.343-1.196 1.938-2.347 2.513-1.021.511-1.986.993-1.991 1.958-.003.491.184.937.526 1.256" fill="#00adef" transform="matrix(2.7301 0 0-2.7301 70.11 3.13)" id="0"/><g fill="#00adef"><path d="m0 0c-2.138.06-3.897 1.776-4.01 3.912-.124 2.368 1.761 4.339 4.105 4.351 1.415.007 2.669-.701 3.42-1.785l.279.591c-.888 1.11-2.266 1.809-3.804 1.768-2.516-.066-4.555-2.138-4.582-4.655-.027-2.635 2.107-4.773 4.732-4.759 1.326.006 2.521.562 3.372 1.448v.91c-.767-1.106-2.058-1.822-3.514-1.781" transform="matrix(2.7301 0 0-2.7301 12.529 24.13)"/><path d="m0 0l-.273.593h-5.219v8.54l-.593.28v-9.413z" transform="matrix(2.7301 0 0-2.7301 45.3 25.75)"/><path d="m0 0h.597v9.125l-.597.285z" transform="matrix(2.7301 0 0-2.7301 106.58 25.75)"/></g><use transform="translate(18.83)" xlink:href="#0"/><g fill="#00adef"><path d="m0 0h.634l-4.266 9.414h-.478l-2.212-4.687.315-.699 2.129 4.456z" transform="matrix(2.7301 0 0-2.7301 157.02 25.75)"/><path d="m0 0c-2.279-.012-4.142 1.833-4.153 4.112-.012 2.278 1.833 4.141 4.111 4.153 1.415.007 2.669-.702 3.42-1.785l.279.591c-.868 1.084-2.205 1.777-3.702 1.77-2.6-.014-4.697-2.132-4.684-4.732.013-2.601 2.132-4.698 4.732-4.685 1.475.008 2.787.693 3.645 1.758l-.271.603c-.743-1.072-1.977-1.778-3.377-1.785" transform="matrix(2.7301 0 0-2.7301 127.46 24.17)"/></g></svg>