<svg xmlns="http://www.w3.org/2000/svg" viewBox="0 0 746.43 431.76"><g transform="translate(-26.607-32.01)"><g fill-rule="evenodd"><path fill="#2a3996" d="m26.607 32.01h746.43v431.76h-746.43z"/><path fill="#ee3129" d="m26.607 32.01h746.43v278.08h-746.43z"/></g><path d="m265.72 73.5v197.86h58.909v-197.86h-58.909m297.11 0v197.86h53.15v-21.557c5.253 8.08 12.11 14.449 20.49 18.996 8.385 4.547 17.399 6.83 26.893 6.83 16.363 0 30.07-6.255 40.98-18.783 12.528-14.34 18.782-34.54 18.783-60.4 0-24.445-6.495-43.22-19.423-56.35-10.913-10.906-24.384-16.435-40.34-16.435-8.89 0-17.07 1.902-24.546 5.336-7.476 3.434-13.25 8.03-17.289 14.09v-69.58h-58.696m-407.24 48.24c-27.27 0-48.7 7.96-64.46 24.12-14.14 14.544-21.344 32.35-21.344 53.36 0 20.808 7.211 38.613 21.557 53.36 15.752 16.17 37.17 24.12 64.25 24.12 22.83 0 40.878-4.343 54.21-13.233 14.544-9.698 23.2-24.858 25.826-45.46h-56.775c-1.622 6.264-4.03 11.08-7.257 14.514-4.242 4.445-9.541 6.617-16.01 6.617-8.483 0-14.879-3.972-19.423-11.953-4.544-7.981-6.83-17.252-6.83-27.961 0-10.703 2.184-19.98 6.83-27.961 4.645-7.981 11.143-11.953 19.423-11.953 6.467 0 11.756 2.172 15.795 6.617 3.237 3.638 5.632 8.453 7.04 14.514h57.2c-2.627-20-12.02-35.15-28.17-45.46-13.94-8.884-31.26-13.233-51.866-13.233m204.9 5.336v101.6c0 15.352 5.762 27.16 17.08 35.644 9.895 7.478 22.18 11.312 36.925 11.312 11.313 0 21.789-2.283 31.589-6.83 9.8-4.547 16.899-10.913 21.344-18.996v21.557h53.36v-144.29h-58.696v80.04c0 7.676-2.162 13.684-6.403 17.929-4.242 4.245-9.281 6.403-14.941 6.403-5.857 0-10.909-2.273-15.15-6.617-4.245-4.343-6.19-10.237-6.19-17.715v-80.04h-58.909m278.97 37.35c1.152-.107 2.392 0 3.628 0 7.478 0 13.26 3.489 17.502 10.459 4.242 6.97 6.403 15.04 6.403 24.332 0 9.297-2.162 17.362-6.403 24.332-4.242 6.97-10.02 10.459-17.502 10.459-9.698 0-16.925-4.093-21.771-12.379-3.434-6.06-5.336-13.521-5.336-22.411 0-10.703 1.912-18.886 5.549-24.546 3.89-6.01 9.867-9.494 17.929-10.245m-320.59 167.76v110.78h21.13v-47.597c1.265-.152 2.142-.376 2.775-.427.633-.05 1.252 0 1.708 0 3.442 0 6.04.692 7.684 2.134 1.645 1.443 2.348 3.681 2.348 6.617v34.15c0 1.266.373 2.392.854 3.202.481.81 1.122 1.364 2.134 1.921h21.771c-.81-.81-1.44-1.513-1.921-2.348-.481-.835-.865-1.813-1.067-2.775v-33.08c0-6.378-1.322-11.09-4.055-14.3-2.734-3.214-7.086-5.094-12.806-5.549 4.809-.304 8.629-2.024 11.312-4.909 2.683-2.885 4.055-6.717 4.055-11.526v-16.01c0-6.277-2.437-11.347-7.04-14.941-4.607-3.594-10.897-5.336-18.996-5.336h-29.882m58.27 0v20.49h16.221v90.28h21.771v-90.28h16.221v-20.49h-54.21m62.11 0v110.78h46.1v-20.06h-23.905v-90.71h-22.2m-97.97 19.21c.481-.025 1.223 0 2.134 0 3.24 0 5.662.706 7.257 1.921 1.595 1.215 2.348 3.02 2.348 5.549v10.03c0 2.632-.804 4.548-2.348 5.763-1.544 1.215-3.804 1.707-7.04 1.708-.962 0-1.842.026-2.348 0-.506-.025-.876.051-1.281 0v-24.759c.405-.05.8-.188 1.281-.213" fill="#fff"/></g></svg>