<svg xmlns="http://www.w3.org/2000/svg" viewBox="0 0 600 276.61"><g transform="matrix(35.4883 0 0 35.4883-13483.65-33994.92)"><g fill="#ed192d"><path d="m396.64 965.08c-.012-.008-.034-.012-.062-.012h-.043v.106h.046c.022 0 .039-.002.049-.006.02-.008.031-.024.031-.046 0-.021-.008-.035-.02-.042m-.055-.046c.036 0 .062.004.08.0001.03.012.045.037.045.075 0 .026-.0001.045-.029.057-.0001.006-.025.012-.042.014.022.004.04.014.05.029.012.016.016.031.016.046v.021c0 .006 0 .014 0 .021 0 .008 0 .014.002.014v.004h-.049v-.002c0 0 0-.002 0-.004v-.008-.024c0-.034-.008-.056-.027-.066-.012-.006-.03-.0001-.056-.0001h-.041v.115h-.051v-.292h.102zm-.157-.014c-.043.045-.066.098-.066.162 0 .063.022.118.066.163.045.045.099.067.162.067.063 0 .117-.022.162-.067.043-.045.066-.1.066-.163s-.022-.117-.066-.162c-.045-.045-.1-.067-.162-.067-.063 0-.117.022-.162.067m.35.35c-.052.052-.115.078-.188.078-.074 0-.137-.026-.188-.078-.051-.051-.077-.115-.077-.188 0-.073.026-.136.077-.188.052-.051.115-.077.188-.077.074 0 .136.026.188.077.051.052.077.115.077.188 0 .073-.026.136-.077.188"/><path d="m394.07 957.95v3.547c-.077-.133-1.519-2.598-1.519-2.598-.526-.902-1.275-1.073-1.802-.931-.608.164-1.018.725-1.018 1.396v2.131c-.077-.133-1.505-2.597-1.505-2.597-.526-.902-1.276-1.073-1.803-.93-.609.164-1.019.724-1.019 1.394v3.808c0 .065-.025.127-.069.171-.042.043-.099.066-.161.066h-1.19c-1.271 0-1.842-.804-1.843-1.601 0-.799.591-1.649 1.69-1.65h1.337v-2.206h-1.215c-2.754 0-4.01 1.97-4.01 3.801 0 1.864 1.276 3.871 4.081 3.873h2.102c.457 0 .836-.138 1.097-.399.267-.267.408-.662.408-1.143v-1.857c.077.128 1.6 2.651 1.6 2.651.393.648 1.127.972 1.785.788.589-.164.941-.678.941-1.373v-2.064c.077.128 1.6 2.651 1.6 2.651.393.648 1.127.972 1.785.788.591-.166.943-.682.941-1.38v-6.336h-2.211"/></g><path d="m395.3 957.95h-.264v6.196c0 .117-.042.201-.113.223-.065.02-.14-.014-.191-.087 0 0-.087-.141-.087-.141-1.652-2.647-2.721-4.365-3.089-4.97-.128-.182-.341-.263-.533-.203-.199.063-.323.253-.322.495v4.682c0 .118-.041.202-.11.223-.062.02-.132-.014-.184-.087l-.087-.141c-1.652-2.647-2.721-4.365-3.089-4.97-.127-.182-.341-.263-.535-.202-.199.062-.323.252-.322.495v4.652c0 .133-.113.247-.248.247h-2.247c-1.848 0-2.692-1.332-2.692-2.57 0-1.286.891-2.588 2.598-2.591h1.385v-.287h-1.385c-1.896.002-2.886 1.449-2.885 2.878 0 1.376.933 2.856 2.978 2.856h2.247c.294 0 .535-.239.535-.533v-4.653c0-.113.045-.197.122-.221.074-.024.154.0001.207.086.596.975 2.91 4.682 3.173 5.101h.006c.127.182.327.262.508.203.151-.047.31-.202.31-.496v-4.682c0-.115.045-.197.121-.221.074-.024.154.0001.207.086.596.975 2.91 4.682 3.172 5.101h.008c.127.183.329.262.515.203.152-.049.314-.204.314-.496v-6.196h-.022" fill="#fff"/></g></svg>