<?xml version="1.0" encoding="UTF-8" standalone="no"?>
<svg xmlns="http://www.w3.org/2000/svg" height="61.024" viewBox="0 0 600 61.023801" width="600" version="1.1">
 <g>
  <g fill="#ff09a8">
   <path d="m75.904 37.808c-0.379 3.763-1.151 6.812-2.302 9.149-2.46 4.902-7.301 8.689-14.506 11.378-4.841 1.787-11.92 2.689-21.255 2.689-8.009 0-14.19-0.771-18.542-2.296-6.796-2.442-11.849-6.41-15.168-11.903-2.7592-4.525-4.131-10.066-4.131-16.625 0-10.14 3.2244-17.674 9.6811-22.592 4.2419-3.255 9.0899-5.3864 14.538-6.3947 4.43-0.80342 9.129-1.2133 14.095-1.2133 9.287 0 16.777 1.1723 22.453 3.5086 7.458 3.0824 12.172 7.9924 14.128 14.723 0.354 1.377 0.693 3.213 1.009 5.509h-24.25c-0.694-2.665-1.64-4.591-2.838-5.772-2.255-2.229-5.724-3.344-10.407-3.344-5.235 0-9.098 1.361-11.573 4.066-2.397 2.582-3.595 6.312-3.595 11.181 0 4.575 1.08 8.354 3.248 11.346 2.46 3.46 6.441 5.181 11.952 5.181 4.328 0 7.544-0.926 9.649-2.787 1.151-1.066 2.342-3.001 3.564-5.804z"/>
   <path d="m121.47 0c9.08 0 16.29 1.0745 21.65 3.2152 6.86 2.8052 11.56 6.9798 14.14 12.533 1.85 4.003 2.78 8.924 2.78 14.764 0 10.195-2.94 17.675-8.8 22.441-4.1 3.371-8.82 5.594-14.14 6.66-4.88 0.935-10 1.411-15.37 1.411-9.28 0-16.58-1.083-21.905-3.248-6.819-2.756-11.535-6.923-14.139-12.5-1.861-4.019-2.783-9.105-2.783-15.256 0-9.859 2.928-17.2 8.801-22.015 4.141-3.3872 8.846-5.5854 14.136-6.5942 4.99-0.93507 10.19-1.4108 15.63-1.4108zm0 14.633c-4.59 0-8.18 1.271-10.74 3.805-2.65 2.674-3.98 6.611-3.98 11.811 0 10.762 4.92 16.142 14.75 16.142 4.6 0 8.16-1.288 10.71-3.871 2.66-2.641 3.98-6.644 3.98-12.008 0-5.381-1.32-9.4-3.98-12.074-2.57-2.534-6.15-3.805-10.74-3.805z"/>
   <path d="m168.93 2.5368v57.06h56.94v-14.55h-34.81v-42.51z"/>
   <path d="m233.35 59.597v-57.06h32.67l5.4 16.181c1.44 4.331 2.3 8.997 2.56 13.996h0.68c0.42-5.236 1.26-9.901 2.55-13.996l5.14-16.181h32.47v57.06h-19.9v-41.89h-0.36c-0.48 4.657-1.22 8.531-2.23 11.614l-9.98 30.276h-16.33l-10.13-30.276c-1.01-3.017-1.78-6.892-2.32-11.614h-0.32v41.89z"/>
   <path d="m319.77 59.597 23.25-57.06h29.4l23.26 57.06h-24.32l-2.43-5.253h-23.75l-2.16 5.253zm29.46-19.803h15.35l-7.54-20.945z"/>
   <path d="m391.96 59.597 23.13-30.471-20.75-26.589h26.78l8.13 10.994 7.85-10.994h25.98l-21.09 27.209 23.19 29.851h-27.06l-10.05-13.768-10.48 13.768z"/>
  </g>
  <path d="m473.23 2.2072v14.635h21.57v42.756h21.7v-42.756h16.84l18.34 42.756h24.78l23.54-57.391h-22.15l-10.02 24.15c-1.54 3.7-2.63 7.958-3.26 12.765h-0.69c-0.63-4.963-1.72-9.221-3.26-12.765l-10.39-24.15c-25.5 0.0002-50.5 0.0002-77 0.0002z"/>
  <path d="m494.8 59.597"/>
 </g>
</svg>
