<?xml version="1.0" encoding="UTF-8" standalone="no"?>
<!-- Created with Inkscape (http://www.inkscape.org/) -->

<svg
   xmlns:dc="http://purl.org/dc/elements/1.1/"
   xmlns:cc="http://creativecommons.org/ns#"
   xmlns:rdf="http://www.w3.org/1999/02/22-rdf-syntax-ns#"
   xmlns:svg="http://www.w3.org/2000/svg"
   xmlns="http://www.w3.org/2000/svg"
   xmlns:inkscape="http://www.inkscape.org/namespaces/inkscape"
   version="1.1"
   width="220.67511"
   height="124.71875"
   viewBox="0 0 220.67511 124.71875"
   id="Layer_1"
   xml:space="preserve"><metadata
   id="metadata59"><rdf:RDF><cc:Work
       rdf:about=""><dc:format>image/svg+xml</dc:format><dc:type
         rdf:resource="http://purl.org/dc/dcmitype/StillImage" /></cc:Work></rdf:RDF></metadata><defs
   id="defs57">
	
	
	
	
	
	
	
	
	
	
	
	
	
	
	
	
	
	
	
	
	
	
	
	
	
</defs>

<g
   transform="translate(-194.11159,46.469544)"
   id="layer1"><path
     d="m 387.75359,-46.469544 c -7.436,9.949 15.165,82.495 -73.802,73.063 -9.04,-89.013 63.452,-66.544 73.802,-73.063 l 0,0 z"
     inkscape:connector-curvature="0"
     id="path7"
     style="fill:#913073;fill-rule:evenodd" /><path
     d="m 314.34259,26.326456 c 67.816,7.192 50.592,-48.114 56.26,-55.696 -7.892,4.968 -63.15,-12.161 -56.26,55.696 l 0,0 z"
     inkscape:connector-curvature="0"
     id="path9"
     style="fill:#ff690f;fill-rule:evenodd" /><path
     d="m 315.44959,25.248456 c 45.355,4.812 33.831,-32.1730005 37.626,-37.246 -5.285,3.3229995 -42.235,-8.127 -37.626,37.246 l 0,0 z"
     inkscape:connector-curvature="0"
     id="path11"
     style="fill:#ffc70d;fill-rule:evenodd" /><path
     d="m 412.46359,35.781456 h -18.023 c -6.833,0 -17.021,2.812 -16.549,13.265 0.717,15.78 24.979,6.738 26.688,17.041 0.391,2.376 -0.822,4.058 -3.453,4.204 -5.904,0.328 -17.673,0.276 -17.673,0.276 0,0 -5.685,-1.124 -4.992,7.602 l 20.1,-0.021 c 7.542,0.094 15.768,-3.931 16.199,-11.313 1.025,-17.68 -28.473,-8.907 -26.388,-20.036 0.293,-1.566 0.945,-2.828 2.794,-2.877 4.602,-0.113 12.313,-0.081 15.669,-0.049 3.665,0.038 6.458,-2.009 5.628,-8.092 l 0,0 z"
     inkscape:connector-curvature="0"
     id="path13"
     style="fill:#913073;fill-opacity:1;fill-rule:evenodd" /><path
     d="m 211.28959,77.488456 c -9.444,0 -17.178,-7.454 -17.178,-16.564 v -8.472 c 0,-9.114 7.733,-16.569 17.178,-16.569 h 17.179 c 0,9.294 1.556,7.597 -19.944,7.536 -7.103,-0.021 -5.244,8.851 -5.244,17.806 0,10.624 13.068,8.989 19.561,8.989 6.402,0 5.628,0.902 5.628,7.274 h -17.18 l 0,0 z"
     inkscape:connector-curvature="0"
     id="path15"
     style="fill:#913073;fill-opacity:1;fill-rule:evenodd" /><path
     d="m 250.83434,35.124206 c -11.027,0 -20.0625,8.38525 -20.0625,18.65625 l 0,5.8125 c 0,10.271 9.0345,18.65625 20.0625,18.65625 l 4.4375,0 c 11.026,-0.001 20.0625,-8.38625 20.0625,-18.65625 l 0,-5.8125 c 0,-10.271 -9.0365,-18.65625 -20.0625,-18.65625 l -4.4375,0 z m -5.375,7.4375 10,0 c 5.499,0 10.03125,4.5845 10.03125,10.1875 l 0,13.40625 c 0,2.804 -2.248,5.09375 -5,5.09375 l -10.03125,0 c -5.505,0 -10,-4.5805 -10,-10.1875 l 0,-13.40625 c 0,-2.804 2.249,-5.09375 5,-5.09375 z"
     inkscape:connector-curvature="0"
     id="path17"
     style="fill:#913073;fill-opacity:1;fill-rule:evenodd" /><path
     d="m 282.02659,74.103456 v -54.828 h 5.664 c 2.078,0 3.777,1.697 3.777,3.77 v 54.83 h -5.666 c -2.074,0 -3.775,-1.698 -3.775,-3.772 l 0,0 z"
     inkscape:connector-curvature="0"
     id="path21"
     style="fill:#913073;fill-opacity:1;fill-rule:evenodd" /><path
     d="m 350.51059,75.630456 v -39.948 h 4.325 c 1.588,0 2.883,1.092 2.883,2.423 v 3.991 c 1.8,-3.138 6.051,-7.732 15.173,-6.405 0,0.171 0.024,5.416 0.024,5.416 0,0 0.032,3.301 -2.745,3.435 -4.153,0.203 -10.18,-1.241 -10.106,5.725 l 0.081,27.739 h -6.792 c -1.393,0 -2.843,-0.86 -2.843,-2.376 l 0,0 z"
     inkscape:connector-curvature="0"
     id="path23"
     style="fill:#913073;fill-opacity:1;fill-rule:evenodd" /><path
     d="m 319.95934,34.874206 c -11.027,0 -20.0625,8.4175 -20.0625,18.6875 l 0,5.8125 c 0,10.266 9.0345,18.65625 20.0625,18.65625 l 4.4375,0 c 11.019,0 20.03125,-8.39025 20.03125,-18.65625 l 0,-5.8125 c 0,-10.27 -9.01225,-18.6875 -20.03125,-18.6875 l -4.4375,0 z m -5.375,7.46875 10,0 c 5.506,0 10,4.5815 10,10.1875 l 0,13.375 c 0,2.803 -2.247,5.09275 -5,5.09375 l -10,0 c -5.497,0 -10,-4.5805 -10,-10.1875 l 0,-13.375 c 0,-2.799 2.247,-5.09375 5,-5.09375 z"
     inkscape:connector-curvature="0"
     id="path25"
     style="fill:#913073;fill-opacity:1;fill-rule:evenodd" /></g></svg>