<svg xmlns="http://www.w3.org/2000/svg" viewBox="0 0 600 535.7"><g transform="translate(-20.856-415.21)"><path d="m356.7 911.62v.04l1.717-9.502-1.717 9.462" fill="#f89c35"/><path d="m248.43 415.21l-.918 12.577 192.44 30.982-88.56 481.58 22.478 4.671 91.03-495-216.48-34.815z" fill="#f47216"/><path d="m187.06 919.17l151.72 31.741h10.7l1.956-10.58-139.46-29.19 35.534-483.38-24.03-3.873-36.412 495.28z" fill="#f89c35"/><path d="m370.94 797.17c-2.435 16.689-9.622 30.383-19.883 39.965-8.903 8.265-20.08 13.415-32.619 14.653-11.618 7.546-25.952 10.7-41.522 8.185-17.607-2.795-31.701-11.618-40.604-24.24-8.544-12.137-12.337-27.708-9.822-44.796 4.352-29.744 25.632-50.35 52.821-53.42 7.865-4.991 16.968-8.105 26.83-8.903 5.111-.399 10.421-.2 15.85.639 7.865 1.278 14.972 3.713 21.16 7.107 20.841 11.419 31.741 33.897 27.788 60.806m-97.54-321.2l24.07 3.593.918-12.297 116.58 17.408-49.987 226.46-10.341-2.196-11.698-2.395-2.915 13.295-73.78-15.411-9.502-1.996 16.649-226.46zm-25.912-48.19l-35.534 483.38 139.46 29.15 88.56-481.54-192.48-30.982z" fill="#f04338"/><path d="m386.49 509.24l-43.519 197.27 11.698 2.435 10.341 2.196 49.987-226.46-116.58-17.447-.918 12.337 92.51 13.814-3.513 15.85z" fill="#f89c35"/><g fill="#f47216"><path d="m340.03 719.85l2.954-13.335-61.25-12.776 14.573-197.95 1.198-16.21-24.07-3.593-16.649 226.46 9.462 1.956 73.78 15.451z"/><path d="m301.88 851.3c-34.496-5.51-55.54-34.14-50.43-69.07.639-4.152 1.557-8.145 2.835-11.938 4.671-14.13 13.535-25.472 25.03-32.739-27.19 3.034-48.51 23.676-52.861 53.42-2.475 17.09 1.278 32.659 9.862 44.756 8.903 12.616 22.957 21.44 40.564 24.275 15.571 2.515 29.944-.639 41.562-8.185-5.31.559-10.86.399-16.569-.519"/></g><path d="m343.16 736.38c-6.228-3.434-13.295-5.869-21.16-7.107-5.43-.878-10.74-1.078-15.85-.639-9.862.799-18.965 3.913-26.83 8.903 5.669-.639 11.618-.519 17.687.439 24.634 3.953 41.802 19.284 47.631 40.604 2.236 8.304 2.755 17.527 1.317 27.309-2.994 20.522-13.175 36.612-27.509 45.914 12.537-1.238 23.716-6.388 32.579-14.653 10.301-9.582 17.487-23.277 19.923-39.965 3.913-26.91-6.947-49.39-27.788-60.806" fill="#f89c35"/><g fill="#443a3d"><path d="m620.86 766.86h-599.96v124.13h599.96v-124.13"/><path d="m496.73 890.99h-475.87v-124.13h475.87v124.13"/></g><g fill="#fff"><path d="m101.88 858.05c0 1.038-.838 1.837-2.595 2.475-4.871 1.677-9.382 2.515-13.655 2.515-6.348 0-12.457-1.557-18.366-4.791-11.818-6.548-18.366-17.527-18.366-31.1 0-7.506 2.036-14.213 5.989-20.322 4.072-6.069 9.542-10.62 16.369-13.455 4.392-1.956 9.103-2.875 14.213-2.875 3.394 0 7.07.559 11.06 1.557 1.198.279 2.116.679 2.954 1.038l.998.439c.838.399 1.317 1.038 1.317 1.876v17.807c0 .439-.2.639-.479.639-.08 0-.359-.2-.838-.479-1.358-1.357-3.394-2.475-6.069-3.394-2.875-1.038-5.47-1.477-7.666-1.477-8.03 0-14.772 4.232-17.807 11.339-1.038 2.316-1.477 4.791-1.477 7.466 0 5.27 1.916 9.502 5.789 12.856 3.633 3.034 8.03 4.591 13.295 4.591 5.989 0 10.62-1.637 14.01-5.071.279-.359.559-.559.759-.559.359 0 .559.559.559 1.757v17.17z"/><path d="m145.74 830.18c-2.116-2.116-4.631-3.114-7.586-3.114-2.954 0-5.43.998-7.546 3.114-2.116 2.116-3.154 4.631-3.154 7.466 0 6.03 4.711 10.82 10.7 10.82 2.954 0 5.47-1.038 7.586-3.154s3.114-4.591 3.114-7.546c0-3.074-.998-5.55-3.114-7.586m12.177 26.311c-5.35 4.352-11.898 6.468-19.763 6.468-8.185 0-14.932-2.316-20.282-6.947-5.35-4.711-8.03-10.58-8.03-17.687 0-7.865 2.755-14.213 8.384-18.925 5.27-4.432 11.818-6.668 19.643-6.668 8.424 0 15.331 2.316 20.602 7.03 5.35 4.711 8.03 10.7 8.03 18.09 0 7.825-2.875 14.01-8.584 18.645"/><path d="m239.07 861.19v-23.08c0-3.234-.2-5.23-.479-6.188-1.357-3.953-3.673-5.35-6.548-5.35-4.03 0-7.187 3.234-7.666 7.187-.16 1.118-.279 2.595-.279 4.352v23.08h-16.609v-23.08c0-3.394-.08-5.43-.279-6.268-.998-3.234-3.673-5.63-6.987-5.63-2.515 0-5.35 1.757-6.468 3.953-.838 1.597-1.198 4.272-1.198 7.945v23.08h-16.609v-46.673h16.609v5.709c.439-.359 1.118-1.038 2.036-1.837 3.673-3.074 8.105-4.631 13.255-4.631 6.947 0 12.297 2.875 15.97 8.664 3.713-5.789 8.943-8.744 15.89-8.744 6.188 0 10.62 2.116 13.375 6.268 1.757 2.595 2.595 6.188 2.595 10.9v30.343h-16.609"/><path d="m291.06 807.67l-7.666-5.63 13.1-15.97 10.54 7.586-15.97 14.01m10.421 23.636c-1.278-4.991-4.512-7.506-9.662-7.506-5.27 0-8.424 2.515-9.422 7.506h19.08m-19.563 9.582c.08 7.03 3.513 10.5 10.141 10.5 3.513 0 6.188-1.437 8.145-4.392h16.05c-1.038 3.473-2.475 6.268-4.232 8.304-4.551 5.15-11.259 7.745-20.04 7.745-8.105 0-14.653-2.236-19.563-6.747-4.911-4.512-7.266-10.62-7.266-18.09 0-7.666 2.276-13.734 6.987-18.286 4.711-4.512 11.179-6.707 19.2-6.707s14.213 2.276 18.725 6.907c4.512 4.631 6.827 10.98 6.827 19v1.757h-34.975"/><path d="m352.55 827.24c-2.954 0-5.47.998-7.546 3.114-2.156 2.036-3.154 4.552-3.154 7.386 0 6.03 4.711 10.7 10.7 10.7 5.909 0 10.7-4.671 10.7-10.58 0-5.909-4.791-10.62-10.7-10.62m10.261 33.937v-5.15c-.838.998-1.397 1.677-1.757 2.036-3.234 3.034-7.506 4.591-12.736 4.591-6.947 0-12.577-2.395-17.09-7.266-4.512-4.911-6.747-10.7-6.747-17.647 0-6.827 2.236-12.616 6.747-17.408 4.512-4.911 10.141-7.306 16.888-7.306 4.432 0 8.105.918 11.06 2.875 1.038.639 2.236 1.757 3.633 3.194v-27.11h16.609v69.19h-16.609z"/><path d="m390.69 814.49h16.609v46.673h-16.609v-46.673m8.305-4.591c-2.475 0-4.711-.958-6.548-2.715-1.837-1.837-2.755-3.953-2.755-6.428 0-5.27 4.152-9.422 9.303-9.422 5.19 0 9.422 4.152 9.422 9.303 0 5.19-4.352 9.263-9.422 9.263"/><path d="m453.17 831.29c-1.278-4.991-4.512-7.466-9.702-7.466-5.23 0-8.384 2.475-9.382 7.466h19.08m-19.563 9.582c.12 7.03 3.513 10.54 10.141 10.54 3.513 0 6.188-1.477 8.145-4.432h16.05c-1.038 3.513-2.475 6.268-4.272 8.304-4.472 5.15-11.219 7.745-20 7.745-8.105 0-14.653-2.196-19.563-6.747-4.871-4.512-7.266-10.58-7.266-18.09 0-7.626 2.316-13.734 6.987-18.246 4.711-4.512 11.179-6.747 19.2-6.747s14.213 2.316 18.725 6.907c4.512 4.631 6.827 10.98 6.827 19.04v1.717h-34.975"/><path d="m569.84 835.91v24.913c0 .918-.2 1.318-.918 1.318h-19c-.639 0-.998-.479-.998-1.158v-24.874c0-1.038-.359-1.397-1.198-1.397h-24.634c-.759 0-1.118-.479-1.118-1.317v-18.885c0-.719.279-1.078 1.038-1.078h24.794c.759 0 1.118-.399 1.118-1.238v-21.36c0-.559.359-.958.918-.958h18.885c.759 0 1.118.279 1.118.958v21.36c0 1.038.2 1.238 1.038 1.238h24.794c.759 0 1.038.359 1.038 1.198v18.965c0 .639-.359 1.118-1.038 1.118h-24.554c-.998 0-1.278.2-1.278 1.198"/></g></g></svg>