<svg xmlns="http://www.w3.org/2000/svg" viewBox="0 0 600 657.08"><g transform="translate(1.612 326.17)" fill="#fff"><path d="m291.98 121.97c-82.33 0-157.85-45.05-197.16-117.49l40.48-21.949c31.19 57.61 91.25 93.37 156.68 93.37 98.17 0 178.08-79.82 178.08-177.99 0-98.22-79.91-178.08-178.08-178.08-64.64 0-124.27 35.13-155.71 91.67l-40.24-22.418c39.534-71.08 114.67-115.27 195.95-115.27 123.55 0 224.11 100.52 224.11 224.09 0 123.53-100.55 224.05-224.11 224.05"/><path d="m291.63 8.705c-61.11 0-110.86-49.698-110.86-110.84 0-61.06 49.751-110.81 110.86-110.81 40.13 0 77.26 21.733 96.76 56.808l-40.13 22.453c-11.463-20.504-33.18-33.25-56.632-33.25-35.707 0-64.795 29.11-64.795 64.795 0 35.724 29.09 64.778 64.795 64.778 23.927 0 45.818-13.08 57.16-34.18l40.552 21.786c-19.346 36.01-56.773 58.46-97.71 58.46"/><path d="m-.295 230.58c0-.86.228-1.422.772-2 .562-.579 1.211-.808 1.896-.808h60.16c.843 0 1.51.228 2.124.808.439.579.685 1.141.685 2v15.799c0 .702-.246 1.492-.685 1.913-.614.614-1.282.878-2.124.878h-40.22v20.908h33.21c.72 0 1.44.316 1.896.755.579.562.808 1.229.808 1.913v15.887c0 .772-.228 1.492-.808 1.913-.456.597-1.176.86-1.896.86h-33.21v35.18c0 .86-.263 1.527-.737 2.107-.579.562-1.194.79-2.054.79h-17.15c-.685 0-1.334-.228-1.896-.79-.544-.579-.772-1.246-.772-2.107v-96.01"/><path d="m136.9 227.02c-1.071 0-1.882.568-2.531 1.656l-45.34 97.69c-.562 1.071-.495 1.796.031 2.656.544.79 1.294 1.125 2.313 1.125h16c1.492 0 2.626-.335 3.469-1.125.913-.685 1.448-1.49 1.781-2.438l5.219-11.531h39.562l5.156 11.469c.614 1.387 1.378 2.292 2.063 2.906.632.562 1.773.719 3.125.719h16.03c1.159 0 1.925-.335 2.469-1.125.456-.86.562-1.585 0-2.656l-45.47-97.69c-.456-1.088-1.279-1.656-2.438-1.656h-1.438zm.563 44.28h.156l11.06 23.969h-22.16l10.938-23.969"/><path d="m231.76 228.67c.123-.667.421-1.176.983-1.65.579-.492 1.036-.667 1.685-.667h2.23c.404 0 .86.088 1.475.351.492.316.86.597 1.088 1.071l33.67 62.776h.246l33.793-62.776c.176-.474.474-.755 1.123-1.071.474-.263.86-.351 1.299-.351h2.335c.562 0 1.123.176 1.703.667.527.474.79.983.913 1.65l16.414 97.61c.123.895 0 1.668-.562 2.3-.65.597-1.264.913-2.177.913h-17.17c-.597 0-1.334-.228-1.808-.79-.562-.527-.895-1-.948-1.58l-6.618-44.87h-.193l-24.472 47.01c-.176.562-.527.895-1.036 1.246-.562.298-1.053.404-1.457.404h-2.475c-1.159 0-1.931-.562-2.528-1.65l-24.612-47.01h-.263l-6.372 44.87c-.14.579-.404 1.053-.86 1.58-.527.562-1.071.79-1.896.79h-17.17c-.895 0-1.492-.316-2.177-.913-.544-.632-.755-1.404-.544-2.3l16.379-97.61z"/><path d="m387.33 249v-18.415c0-.86-.246-1.422-.755-2-.527-.579-1.159-.808-2-.808h-17.432c-.808 0-1.404.228-1.966.808-.474.579-.808 1.141-.808 2v18.415h22.962"/><path d="m364.37 264.62v61.969c0 .86.334 1.527.808 2.107.562.562 1.159.79 1.966.79h17.432c.843 0 1.475-.228 2-.79.509-.579.755-1.246.755-2.107v-61.969h-22.962"/><path d="m428.22 230.58c0-.86.14-1.422.737-2 .597-.579 1.194-.808 2-.808h17.274c.79 0 1.44.228 1.931.808.579.579.825 1.141.825 2v77.49h34.636c.702 0 1.352.316 1.861.808.579.579.825 1.229.825 2v15.712c0 .86-.246 1.527-.825 2.107-.509.562-1.159.79-1.861.79h-54.666c-.808 0-1.404-.228-2-.79-.597-.579-.737-1.246-.737-2.107v-96.01"/><path d="m542.61 280.49l-32.12-48.539c-.597-.878-.597-1.878-.105-2.791.421-.895 1.317-1.387 2.51-1.387h18.819c.562 0 1.071.158 1.071.158.79.562 1.036.86 1.036.86l20.329 30.09 20.258-29.72s.492-.667.772-.983c.456-.246.895-.404 1.562-.404h18.959c1.053 0 1.826.492 2.405 1.387.421.913.404 1.913-.193 2.791l-32.512 48.38v46.26c0 .86-.246 1.527-.825 2.107-.544.562-1.141.79-1.878.79h-17.309c-.808 0-1.475-.228-2.02-.79-.544-.579-.755-1.246-.755-2.107v-46.1"/><path d="m20.297 165.4c6.092 0 10.568 1.896 14.693 5.635.527.492.527 1.194.053 1.685l-4.722 4.951c-.421.421-1.106.421-1.527 0-2.23-2.02-5.214-3.09-8.198-3.09-6.864 0-11.885 5.67-11.885 12.464 0 6.741 5.091 12.306 11.955 12.306 2.844 0 5.934-.983 8.128-2.879.421-.351 1.211-.351 1.562.035l4.722 5.056c.439.439.369 1.229-.035 1.615-4.143 4.02-9.339 5.898-14.746 5.898-12.13 0-21.909-9.655-21.909-21.786 0-12.148 9.778-21.891 21.909-21.891"/><path d="m68.74 165.4c-12.13 0-21.781 9.758-21.781 21.906 0 12.166 9.651 21.781 21.781 21.781 12.08 0 21.812-9.616 21.812-21.781 0-12.148-9.735-21.906-21.812-21.906m0 9.719c6.636 0 12.09 5.534 12.09 12.188 0 6.618-5.458 12.06-12.09 12.06-6.653 0-12.09-5.444-12.09-12.06 0-6.653 5.44-12.188 12.09-12.188"/><path d="m106.33 166.37c.053-.544.614-.966 1.106-.966h.966c.298 0 .825.228 1.036.632l14.08 26.21h.105l14.1-26.21c.176-.404.685-.632 1.018-.632h1c.474 0 1 .421 1.071.966l6.846 40.78c.14.79-.421 1.334-1.159 1.334h-7.145c-.562 0-1.124-.509-1.141-.966l-2.739-18.766h-.105l-10.234 19.662c-.14.369-.72.667-1.018.667h-1.106c-.334 0-.825-.298-1-.667l-10.287-19.662h-.105l-2.668 18.766c-.07.456-.544.966-1.159.966h-7.127c-.755 0-1.281-.544-1.176-1.334l6.846-40.78"/><path d="m163.33 167.14c0-.597.474-1.106 1.141-1.106h25.1c.685 0 1.159.509 1.159 1.106v6.636c0 .597-.474 1.141-1.159 1.141h-16.765v7.549h13.833c.579 0 1.124.544 1.124 1.106v6.653c0 .667-.544 1.141-1.124 1.141h-13.833v8.198h16.765c.685 0 1.159.544 1.159 1.141v6.636c0 .597-.474 1.141-1.159 1.141h-25.1c-.667 0-1.141-.544-1.141-1.141v-40.2"/><path d="m204.21 166.02c-.632 0-1.094.528-1.094 1.125v40.19c0 .597.462 1.156 1.094 1.156h14.812c11.692 0 21.281-9.537 21.281-21.281 0-11.656-9.59-21.19-21.281-21.19h-14.812m8.375 8.906h5.813c6.864 0 11.844 5.4 11.844 12.281 0 6.899-4.98 12.281-11.844 12.281h-5.813v-24.562"/><path d="m262.59 188.03l-13.412-20.258c-.474-.79 0-1.738.983-1.738h7.865c.509 0 .825.263 1 .509l8.444 12.446 8.409-12.446c.176-.246.421-.509.948-.509h7.917c.966 0 1.475.948.966 1.738l-13.588 20.19v19.381c0 .597-.544 1.141-1.176 1.141h-7.197c-.65 0-1.159-.544-1.159-1.141v-19.31"/><path d="m577.31 208.57c-5.828 0-10.09-1.773-14.06-5.424-.492-.439-.492-1.141-.053-1.615l4.547-4.687c.369-.404 1.053-.404 1.439 0 2.142 1.913 4.986 2.949 7.847 2.949 6.566 0 11.376-5.46 11.376-11.937 0-6.46-4.845-11.832-11.411-11.832-2.739 0-5.688 1.036-7.812 2.826-.386.334-1.159.334-1.51-.07l-4.512-4.828c-.404-.421-.351-1.194.035-1.562 3.967-3.827 8.935-5.653 14.11-5.653 11.621 0 20.996 9.234 20.996 20.873 0 11.656-9.374 20.961-20.996 20.961"/><path d="m548.65 206.9c0 .562-.439 1.071-1.124 1.071h-23.998c-.65 0-1.106-.509-1.106-1.071v-6.355c0-.579.456-1.088 1.106-1.088h16.08v-7.215h-13.254c-.597 0-1.106-.509-1.106-1.106v-6.32c0-.65.509-1.106 1.106-1.106h13.254v-7.829h-16.08c-.65 0-1.106-.562-1.106-1.106v-6.337c0-.579.456-1.124 1.106-1.124h23.998c.685 0 1.124.544 1.124 1.124v38.463"/><path d="m507.09 207.53c0 .579-.492 1.036-1.071 1.036h-1.457l-23.19-22.295h-.053v20.627c0 .562-.456 1.071-1.106 1.071h-6.987c-.562 0-1.088-.509-1.088-1.071v-39.09c0-.614.527-1.071 1.088-1.071h.913c.193 0 .667.193.79.281l22.962 23.09h.07v-21.663c0-.579.439-1.124 1.071-1.124h6.917c.562 0 1.106.544 1.106 1.124l.035 39.09"/><path d="m449.37 199.47h8.286c.65 0 1.141.492 1.141 1.071v6.355c0 .562-.492 1.071-1.141 1.071h-25.753c-.667 0-1.106-.509-1.106-1.071v-6.355c0-.579.439-1.071 1.106-1.071h8.286v-31.04c0-.579.527-1.124 1.106-1.124h6.969c.597 0 1.106.544 1.106 1.124v31.04"/><path d="m388.68 167.3c-.983 0-1.369.946-1 1.719l7.969 14.75c-5.056 2.054-8.594 6.32-8.594 11.656 0 6.917 5.701 12.531 12.688 12.531h17.375c.65 0 1.063-.501 1.063-1.063v-38.469c0-.579-.413-1.125-1.063-1.125h-6.938c-.579 0-1.094.546-1.094 1.125v14.812h-4.03l-7.719-15.375c-.123-.246-.446-.563-.938-.563h-7.719zm11 23.344h8.594v9.03h-8.594c-2.387 0-4.438-1.931-4.438-4.406 0-2.423 2.05-4.625 4.438-4.625"/><path d="m339.87 167.3c-.878 0-1.351.759-1 1.531l18.19 39.09c.193.334.6.625.969.625h.594c.404 0 .842-.291 1-.625l18.19-39.09c.316-.772-.105-1.531-1-1.531h-6.375c-1.159 0-1.799.704-2.063 1.406l-2.125 4.625h-15.812l-2.063-4.594c-.544-1.106-1.01-1.438-2.063-1.438h-6.438zm14.06 13.969h8.875l-4.406 9.594h-.031l-4.438-9.594"/><path d="m327.96 206.9c0 .562-.456 1.071-1.123 1.071h-6.882c-.579 0-1.106-.509-1.106-1.071v-31.06h-13.868c-.597 0-1.053-.527-1.053-1.071v-6.337c0-.579.456-1.124 1.053-1.124h21.856c.667 0 1.123.544 1.123 1.124v38.463"/></g></svg>