<svg xmlns="http://www.w3.org/2000/svg" viewBox="0 0 232.01 206.53"><g fill="#fff"><path d="m73.35 0c-31.498 0-58.917 17.47-73.1 43.25l15.855 8.498c11.169-19.976 32.531-33.484 57.04-33.484 36.07 0 65.31 29.24 65.31 65.31 0 36.07-29.24 65.31-65.31 65.31-24.826 0-46.42-13.856-57.47-34.25l-15.681 8.411c14.11 26.03 41.661 43.707 73.35 43.707 46.04 0 83.37-37.33 83.37-83.37 0-46.04-37.33-83.37-83.37-83.37m-.198 43.27c-22.254 0-40.3 18.04-40.3 40.3 0 22.254 18.04 40.3 40.3 40.3 15.391 0 28.77-8.629 35.556-21.314l-16.413-8.796c-3.678 7.04-11.05 11.848-19.54 11.848-12.169 0-22.03-9.865-22.03-22.03 0-12.169 9.865-22.03 22.03-22.03 8.185 0 15.318 4.466 19.12 11.09l16.413-8.808c-6.909-12.263-20.06-20.545-35.13-20.545"/><g transform="matrix(1.71304 0 0 1.71304-246.96 82.956)"><path d="m249.66 10.495v-7.441h-7.5v-5.137h7.5v-7.441h5v7.441h7.52v5.137h-7.52v7.441z"/><path d="m279.6 14.616h-5.488v-20.684c-2.01 1.875-4.368 3.262-7.09 4.16v-4.98c1.432-.469 2.988-1.357 4.668-2.666 1.68-1.309 2.832-2.835 3.457-4.58h4.453z"/></g><g transform="translate(-21.861.616)"><path d="m33.91 205.91v-28.633h21.23v4.844h-15.449v6.348h14.375v4.824h-14.375v7.793h15.996v4.824z"/><path d="m57.719 205.91l9.785-14.941-8.867-13.691h6.758l5.742 9.199 5.625-9.199h6.699l-8.906 13.906 9.785 14.727h-6.973l-6.348-9.902-6.367 9.902z"/><path d="m93.79 205.91v-23.789h-8.496v-4.844h22.754v4.844h-8.477v23.789z"/><path d="m111.82 205.91v-28.633h12.168c3.06 0 5.283.257 6.67.771 1.387.514 2.497 1.429 3.33 2.744.833 1.315 1.25 2.819 1.25 4.512 0 2.148-.632 3.923-1.895 5.322-1.263 1.4-3.151 2.282-5.664 2.646 1.25.729 2.282 1.53 3.096 2.402.814.872 1.911 2.422 3.291 4.648l3.496 5.586h-6.914l-4.18-6.23c-1.484-2.227-2.5-3.63-3.047-4.209-.547-.579-1.126-.977-1.738-1.191-.612-.215-1.582-.322-2.91-.322h-1.172v11.953zm5.781-16.523h4.277c2.773 0 4.505-.117 5.195-.352.69-.234 1.23-.638 1.621-1.211.391-.573.586-1.289.586-2.148 0-.964-.257-1.742-.771-2.334-.514-.592-1.24-.967-2.178-1.123-.469-.065-1.875-.098-4.219-.098h-4.512z"/><path d="m166.53 205.91h-6.289l-2.5-6.504h-11.445l-2.363 6.504h-6.133l11.152-28.633h6.113zm-10.645-11.328l-3.945-10.625-3.867 10.625z"/></g></g></svg>