<svg xmlns="http://www.w3.org/2000/svg" viewBox="0 0 232.94 212.91"><path d="m97.93 19.384c-31.498 0-58.917 17.47-73.1 43.25l15.855 8.498c11.169-19.976 32.531-33.484 57.04-33.484 36.07 0 65.31 29.24 65.31 65.31 0 36.07-29.24 65.31-65.31 65.31-24.826 0-46.42-13.856-57.47-34.25l-15.681 8.411c14.11 26.03 41.661 43.707 73.35 43.707 46.04 0 83.37-37.33 83.37-83.37 0-46.04-37.33-83.37-83.37-83.37m-.198 43.27c-22.254 0-40.3 18.04-40.3 40.3 0 22.254 18.04 40.3 40.3 40.3 15.391 0 28.77-8.629 35.556-21.314l-16.413-8.796c-3.678 7.04-11.05 11.848-19.54 11.848-12.169 0-22.03-9.865-22.03-22.03 0-12.169 9.865-22.03 22.03-22.03 8.185 0 15.318 4.466 19.12 11.09l16.413-8.808c-6.909-12.263-20.06-20.545-35.13-20.545"/><path d="m35.725 199.04c-.215.001-.442.135-.492.425l-2.139 12.583c-.058.343.121.629.378.629h2.171c.257 0 .427-.286.472-.629l.755-5.741 3.272 6.244c.168.32.834.32 1.01 0l3.311-6.134.763 5.631c.047.343.072.629.433.629h2.328c.196 0 .307-.286.248-.629l-2.175-12.583c-.089-.514-.738-.514-.881-.252l-4.53 8.305-4.53-8.305c-.063-.115-.222-.18-.389-.173m-28.867.047c-3.763-.017-6.818 3.03-6.858 6.783 0 .051 0 .102 0 .149.04 3.753 3.095 6.8 6.858 6.783 1.572-.006 3.359-.541 4.727-1.887.127-.124.125-.245-.008-.378l-1.762-1.762c-.116-.116-.239-.112-.366 0-.63.558-1.592.975-2.591 1.01-2.093.066-3.798-1.677-3.838-3.763 0-.051 0-.102 0-.149.039-2.086 1.745-3.83 3.838-3.763 1 .032 1.962.449 2.591 1.01.127.112.25.116.366 0l1.762-1.762c.133-.133.134-.253.008-.377-1.368-1.346-3.155-1.881-4.727-1.888m15.352 0c-3.788 0-6.858 3.07-6.858 6.858 0 3.788 3.07 6.858 6.858 6.858 3.788 0 6.858-3.07 6.858-6.858 0-3.788-3.07-6.858-6.858-6.858m31.443.126c-.235 0-.425.189-.425.425v12.615c0 .235.189.425.425.425h7.833c.235 0 .425-.189.425-.425v-2.045c0-.235-.189-.425-.425-.425h-5.238v-2.517h4.357c.235 0 .425-.189.425-.425v-2.045c0-.235-.189-.425-.425-.425h-4.357v-2.265h5.238c.235 0 .425-.189.425-.425v-2.045c0-.235-.189-.425-.425-.425h-7.833m13.826 0c-.287 0-.519.233-.519.519v12.426c0 .287.233.519.519.519h4.436.425c.056 0 .107-.012.157-.028 3.445-.295 6.15-3.183 6.15-6.705 0-3.522-2.705-6.409-6.15-6.705-.05-.017-.101-.028-.157-.028h-.425-4.436m14.235 0c-.344 0-.466.233-.275.519l3.409 5.136.712 1.07.134.201v5.918c0 .344.277.621.621.621h1.903c.344 0 .621-.277.621-.621v-5.894l.149-.224.692-1.046.02-.024 3.409-5.136c.19-.287.065-.519-.279-.519h-2.186c-.344 0-.773.232-.963.519l-2.407 3.622-2.407-3.622c-.19-.287-.623-.519-.967-.519h-2.186m-59.5 2.894c2.12 0 3.838 1.718 3.838 3.838 0 2.12-1.718 3.838-3.838 3.838-2.12 0-3.838-1.718-3.838-3.838 0-2.12 1.718-3.838 3.838-3.838m47.754 0h1.699c2.12 0 3.838 1.718 3.838 3.838 0 2.12-1.718 3.838-3.838 3.838h-1.699v-7.676"/><path d="m159.12 199.03c-.35-.012-.845.206-.845.464v12.56c0 .344.277.621.621.621h1.903c.344 0 .621-.277.621-.621v-6.591l7.432 7.298c.245.241 1.125-.025 1.125-.37v-12.56c0-.344-.277-.621-.621-.621h-1.903c-.344 0-.621.277-.621.621v6.826l-7.432-7.534c-.06-.061-.163-.09-.279-.095m33.924.055c-1.572.006-3.359.541-4.727 1.887-.127.124-.125.245.007.378l1.762 1.762c.116.116.239.112.366 0 .63-.558 1.592-.975 2.591-1.01 2.093-.066 3.799 1.677 3.838 3.763 0 .048 0 .098 0 .149-.039 2.086-1.745 3.83-3.838 3.763-1-.032-1.962-.449-2.591-1.01-.127-.112-.25-.116-.366 0l-1.762 1.762c-.132.132-.135.253-.007.377 1.368 1.346 3.155 1.881 4.727 1.887 3.763.017 6.818-3.03 6.858-6.783v-.149c-.04-3.753-3.095-6.8-6.858-6.783m-90.86.126c-.229 0-.413.184-.413.413v2.068c0 .229.184.413.413.413h4.495v10.157c0 .229.184.413.413.413h2.32c.229 0 .413-.184.413-.413 0-3.046 0-8.548 0-12.638.015-.228-.184-.413-.413-.413h-7.228m11.844 0c-.252 0-.37.184-.263.413l6.06 13.05c.146.313.684.313.83 0l6.068-13.05c.106-.229-.011-.413-.263-.413h-2.159c-.252 0-.542.184-.649.413l-.743 1.6h-5.316l-.743-1.6c-.106-.229-.393-.413-.645-.413h-2.178m16.339 0c-.287 0-.407.204-.271.456l2.705 5.02c-1.649.527-2.843 2.073-2.843 3.897 0 2.259 1.831 4.09 4.09 4.09 2.095 0 3.693 0 5.71 0 .287 0 .519-.233.519-.519v-12.426c0-.287-.232-.519-.519-.519h-1.982c-.287 0-.519.233-.519.519v4.766h-1.172l-2.603-4.829c-.136-.252-.476-.456-.763-.456h-2.352m17.872 0c-.229 0-.413.184-.413.413v10.157h-2.733c-.229 0-.413.184-.413.413v2.068c0 .229.184.413.413.413h8.486c.229 0 .413-.184.413-.413v-2.068c0-.229-.184-.413-.413-.413h-2.733v-10.157c0-.229-.184-.413-.413-.413h-2.194m27.19 0c-.235 0-.425.189-.425.425v2.045c0 .235.189.425.425.425h5.238v2.517h-4.357c-.235 0-.425.189-.425.425v2.045c0 .235.189.425.425.425h4.357v2.265h-5.238c-.235 0-.425.189-.425.425v2.045c0 .235.189.425.425.425h7.833c.235 0 .425-.189.425-.425v-12.615c0-.235-.189-.425-.425-.425h-7.833m-56.61 4.656h2.855l-1.427 3.071-1.427-3.071m15.662 3.02h2.768v3.02h-2.768c-.834 0-1.51-.676-1.51-1.51 0-.834.676-1.51 1.51-1.51"/><path d="m167.5.032c-.809 0-1.452.661-1.452 1.494v33.682c0 .833.642 1.609 1.452 1.609h6.03c.809 0 1.452-.776 1.452-1.609v-12.415h13.177v12.415c0 .833.642 1.609 1.452 1.609h6.03c.809 0 1.452-.776 1.452-1.609v-33.682c0-.833-.642-1.494-1.452-1.494h-6.03c-.809 0-1.452.661-1.452 1.494v12.99h-13.177v-12.99c0-.833-.642-1.494-1.452-1.494h-6.03m35.29 0c-.494.215-.893.792-.893 1.379v33.912c0 .783.691 1.494 1.452 1.494h11.725 1.117c.148 0 .313-.071.447-.115 9.143-.807 16.303-8.656 16.303-18.278 0-9.621-7.16-17.586-16.303-18.393-.133-.047-.298 0-.447 0h-1.117-11.725c-.19 0-.394-.072-.558 0m7.147 7.817h4.467c5.625 0 10.162 4.785 10.162 10.576 0 5.791-4.536 10.461-10.162 10.461h-4.467v-21.04"/></svg>