<svg xmlns="http://www.w3.org/2000/svg" height="576.77" width="600" viewBox="0 0 158.75 152.60445"><g transform="translate(239.77 15.2)" fill="#fff"><g stroke-width=".331" transform="matrix(.64676 0 0 .64676-122.75-57.997)"><path d="m-180.94 249.87h52.26l-26.29 52.26z"/><path d="m-106.02 249.87h52.26l-26.293 52.26z"/><path d="m-143.72 301.97l26.46-52.26 25.792 52.26z"/><path d="m-42.19 249.54l26.13 52.59h-52.26z"/><path d="m-28.96 249.76h8.732l.089 20.53 22.655-.02.076-20.53h8.93l.006 52.25h-8.93v-23.81l-19.18-.04-12.369-25.13z"/><path d="m19.988 249.76v52.25c7.872-.04 15.974.12 23.614-.12 4.928-.16 9.724-2.49 13.362-6.02 4.431-4.3 6.647-10.32 7.342-16.34.28-2.43.29-4.83 0-7.31-.999-8.47-5.556-17.33-13.758-20.84-3.44-1.47-7.409-1.79-11.11-1.79zm18.719 8.26c2.534.001 5.061.23 7.475 1.03 5.093 2.28 7.739 7.84 8.4 13.13.417 5.39.473 11.44-2.857 16.04-2.107 3.28-5.887 5.13-9.723 5.49-4.366.33-8.732.14-13.06.15l-.009-35.72 9.79-.13z"/></g><g transform="matrix(2.0113 0 0 2.0113-277.47-267.02)"><path d="m53.3 130.33c-8.334 0-15.589 4.62-19.34 11.44l4.195 2.25c2.955-5.28 8.607-8.86 15.09-8.86 9.542 0 17.278 7.74 17.278 17.28 0 9.55-7.736 17.28-17.278 17.28-6.569 0-12.282-3.66-15.205-9.06l-4.149 2.22c3.732 6.89 11.02 11.57 19.406 11.57 12.182 0 22.06-9.88 22.06-22.06s-9.876-22.06-22.06-22.06m-.052 11.45c-5.889 0-10.662 4.77-10.662 10.66s4.773 10.66 10.662 10.66c4.072 0 7.612-2.28 9.407-5.64l-4.343-2.32c-.973 1.86-2.922 3.13-5.169 3.13-3.22 0-5.83-2.61-5.83-5.83s2.61-5.83 5.83-5.83c2.165 0 4.053 1.18 5.058 2.94l4.342-2.33c-1.827-3.25-5.306-5.44-9.295-5.44"/><path d="m36.845 177.86c-.057.001-.117.04-.13.12l-.566 3.33c-.015.09.032.16.1.16h.574c.068 0 .113-.07.125-.16l.2-1.52.865 1.65c.045.08.221.08.267 0l.876-1.62.202 1.49c.012.09.019.16.114.16h.616c.052 0 .081-.07.066-.16l-.576-3.33c-.023-.14-.195-.14-.233-.07l-1.198 2.2-1.199-2.2c-.017-.03-.059-.05-.103-.05m-7.638.02c-.995-.001-1.804.8-1.814 1.79v.04c.001.99.819 1.8 1.814 1.8.416-.001.889-.15 1.251-.5.033-.04.033-.07-.002-.1l-.466-.47c-.031-.03-.064-.03-.097 0-.167.15-.421.26-.686.27-.554.001-1-.45-1.015-1v-.04c.001-.55.461-1.01 1.015-.99.265 0 .519.11.686.26.033.03.066.03.097 0l.466-.46c.035-.04.035-.07.002-.1-.362-.36-.835-.5-1.251-.5m4.062 0c-1 0-1.814.81-1.814 1.81s.812 1.82 1.814 1.82 1.815-.82 1.815-1.82-.813-1.81-1.815-1.81m8.319.03c-.062 0-.112.05-.112.11v3.34c0 .06.05.11.112.11h2.073c.062 0 .112-.05.112-.11v-.54c0-.06-.05-.11-.112-.11h-1.386v-.67h1.153c.062 0 .112-.05.112-.11v-.54c0-.06-.05-.11-.112-.11h-1.153v-.6h1.386c.062 0 .112-.05.112-.12v-.54c0-.06-.05-.11-.112-.11zm3.658 0c-.075 0-.137.06-.137.14v3.29c0 .07.062.13.137.13h1.286.042c.912-.08 1.627-.85 1.627-1.78s-.715-1.69-1.627-1.77c-.013-.001-.027-.001-.042-.001h-1.286m3.767 0c-.091 0-.123.06-.073.14l.902 1.36.188.28.036.05v1.57c0 .09.073.16.164.16h.504c.091 0 .164-.07.164-.16v-1.56l.04-.06.183-.28h.005l.902-1.36c.05-.08.017-.14-.074-.14h-.578c-.092 0-.205.06-.255.14l-.637.96-.637-.96c-.05-.08-.165-.14-.256-.14h-.578m-15.744.77c.561 0 1.015.45 1.015 1.01s-.454 1.02-1.015 1.02-1.015-.46-1.015-1.02.454-1.01 1.015-1.01m12.635 0h.449c.561 0 1.016.45 1.016 1.01s-.455 1.02-1.016 1.02h-.449z"/><path d="m69.49 177.86c-.093 0-.224.06-.224.13v3.32c0 .09.074.16.165.16h.503c.091 0 .165-.07.165-.16v-1.75l1.966 1.94c.065.06.298-.001.298-.1v-3.33c0-.09-.074-.16-.165-.16h-.503c-.091 0-.165.07-.165.16v1.81l-1.966-1.99c-.016-.02-.043-.03-.074-.03m8.976.02c-.416 0-.889.14-1.251.5-.033.03-.033.06.002.1l.466.46c.031.03.063.03.097 0 .166-.15.421-.26.686-.26.553-.02 1 .44 1.015.99v.04c-.001.55-.462 1.01-1.015 1-.265-.001-.52-.12-.686-.27-.034-.03-.066-.03-.097 0l-.466.47c-.035.03-.036.06-.002.1.362.35.835.49 1.251.5.995 0 1.804-.81 1.814-1.8v-.04c-.001-.99-.819-1.8-1.814-1.79m-24.04.03c-.061 0-.109.05-.109.11v.55c0 .06.048.11.109.11h1.189v2.68c0 .06.049.11.109.11h.614c.061 0 .109-.05.109-.11v-3.34c.004-.06-.048-.11-.109-.11zm3.134 0c-.067 0-.098.05-.07.11l1.604 3.45c.039.09.181.09.22 0l1.605-3.45c.028-.06-.003-.11-.07-.11h-.571c-.067 0-.143.05-.172.11l-.196.42h-1.407l-.196-.42c-.029-.06-.104-.11-.171-.11zm4.322 0c-.075 0-.107.05-.071.12l.716 1.33c-.437.14-.753.55-.753 1.03 0 .6.485 1.08 1.082 1.08h1.511c.076 0 .137-.06.137-.13v-3.29c0-.08-.061-.14-.137-.14h-.524c-.076 0-.138.06-.138.14v1.26h-.31l-.688-1.28c-.036-.07-.127-.12-.202-.12zm4.729 0c-.06 0-.109.05-.109.11v2.69h-.723c-.061 0-.109.05-.109.11v.54c0 .06.048.11.109.11h2.245c.061 0 .109-.05.109-.11v-.54c0-.06-.048-.11-.109-.11h-.723v-2.69c0-.06-.049-.11-.109-.11zm7.195 0c-.063 0-.113.05-.113.11v.54c0 .07.05.12.113.12h1.386v.66h-1.153c-.062 0-.113.05-.113.11v.55c0 .06.051.11.113.11h1.153v.6h-1.386c-.063 0-.113.05-.113.11v.54c0 .06.05.11.113.11h2.072c.063 0 .113-.05.113-.11v-3.34c0-.06-.051-.11-.113-.11zm-14.977 1.23h.755l-.377.81zm4.144.8h.732v.8h-.732c-.221 0-.4-.18-.4-.4s.179-.4.4-.4"/><path d="m71.71 125.21c-.214 0-.384.18-.384.4v8.91c0 .22.17.42.384.42h1.596c.214 0 .384-.2.384-.42v-3.29h3.486v3.29c0 .22.17.42.384.42h1.596c.214 0 .384-.2.384-.42v-8.91c0-.22-.17-.4-.384-.4h-1.596c-.214 0-.384.18-.384.4v3.43h-3.486v-3.43c0-.22-.17-.4-.384-.4zm9.337 0c-.131.06-.237.21-.237.37v8.97c0 .21.183.39.384.39h3.398c.039 0 .083-.001.118-.03 2.419-.21 4.314-2.29 4.314-4.83 0-2.55-1.895-4.66-4.314-4.87-.035-.001-.079 0-.118 0h-3.398c-.05 0-.104-.02-.147 0m1.891 2.07h1.181c1.489 0 2.689 1.27 2.689 2.8s-1.2 2.77-2.689 2.77h-1.181z"/></g></g></svg>