<svg xmlns="http://www.w3.org/2000/svg" viewBox="0 0 548 371"><g transform="translate(-64.25-208.64)" fill-rule="evenodd"><path d="m557.91 525.3l-4.733 4.733-50.24-50.24 4.733-4.733c21.634-21.592 33.55-50.33 33.55-80.918 0-30.55-11.916-59.33-33.55-80.918l-4.733-4.775 45.508-45.47 4.733-4.733 4.733 4.733c35.07 35.03 54.34 81.59 54.34 131.16 0 49.565-19.31 96.13-54.34 131.16" fill="#808080"/><path d="m380.91 525.3c-35.03 35.03-81.64 54.34-131.16 54.34-102.3 0-185.5-83.2-185.5-185.5 0-102.3 83.2-185.5 185.5-185.5 49.52 0 96.13 19.31 131.16 54.34l4.733 4.733-50.24 50.24-4.733-4.733c-21.592-21.634-50.37-33.55-80.918-33.55-63.13 0-114.47 51.34-114.47 114.47 0 63.09 51.34 114.47 114.47 114.47 30.55 0 59.33-11.916 80.918-33.55l4.733-4.733 50.24 50.24-4.733 4.733" fill="#ea3232"/><path d="m294.88 394.14c0 24.93-20.24 45.13-45.13 45.13-24.93 0-45.13-20.2-45.13-45.13 0-24.93 20.2-45.13 45.13-45.13 24.888 0 45.13 20.2 45.13 45.13" fill="#808080"/><path d="m474.55 394.14c0 24.93-20.2 45.13-45.09 45.13-24.93 0-45.13-20.2-45.13-45.13 0-24.93 20.2-45.13 45.13-45.13 24.888 0 45.09 20.2 45.09 45.13" fill="#ea3232"/></g></svg>