<svg xmlns="http://www.w3.org/2000/svg" viewBox="0 0 621 296"><g transform="matrix(19.7122 0 0 19.7122-4045.57-2075.89)"><path d="m229.93 105.31h-13.457-9.342c-1.706 0-1.894 1.38-1.894 2.124v6.375c0 0-.424 6.518 6.801 6.518h13.458 9.343c1.705 0 1.892-1.38 1.892-2.125v-6.374c0 0 .424-6.517-6.801-6.517" fill="#c60753"/><g fill="#7d1324"><path d="m210.53 108.2c-1.753 0-2.61 1.805-2.607 5.395.003 3.336.738 4.926 2.492 4.926h.002c1.527 0 2.316-1.239 2.402-3.74-.006-.085-.012-.171-.017-.26l-1.597.002v.141c0 1.449-.2 2.154-.682 2.154-.629 0-.725-.984-.725-3.097-.002-2.759.078-4.03.706-4.03h.002c.441 0 .548.579.548 1.759 0 .156 0 .296 0 .466h1.763c.009-.116.019-.23.031-.341-.029-2.22-.843-3.376-2.319-3.376"/><path d="m215.41 108.21c-1.565 0-2.327 1.085-2.557 3.365-.012.111-.021.224-.03.341-.033.442-.049.925-.048 1.45 0 .41.0001.795.031 1.154.005.088.011.174.017.259.19 2.536.958 3.738 2.604 3.738h.002c1.421 0 2.17-.978 2.445-2.988 0-.06-.002-.12-.002-.181h.025c.069-.58.101-1.242.101-1.985-.002-3.479-.727-5.153-2.588-5.153m.005 8.646c-.656 0-.724-1.056-.726-3.421 0-2.478.039-3.618.708-3.62.629 0 .684 1.226.686 3.901 0 2.111-.12 3.139-.668 3.14"/><path d="m220.35 108.21h-.003c-1.352 0-2.368 1.114-2.367 2.746 0 .718.214 1.395.603 1.971.456.662 1.018 1.112 1.488 1.578.562.548.898.928.898 1.533 0 .578-.294.916-.71.916-.495 0-.736-.408-.736-1.21 0-.127 0-.254.012-.395h-1.635-.025c0 .061 0 .122.002.181.045 1.99.807 2.986 2.301 2.986h.002c1.442 0 2.39-.964 2.504-2.473v-.611c-.061-.729-.349-1.354-.846-2-.308-.408-.858-.858-1.501-1.477-.483-.464-.737-.858-.737-1.336 0-.48.307-.846.668-.846h.003c.441 0 .695.367.695 1.056 0 .14-.014.294-.028.449h1.608c0-.114.014-.212.014-.309-.002-1.761-.873-2.759-2.21-2.759"/><path d="m222.68 108.39v7.04.61 2.29h1.37l-.001-7.07 1.15 7.07h1.01l1.19-7.07.001 7.07h1.64v-9.95l-2.4.001-.8 4.83-.8-4.83z"/><path d="m231.68 108.2c-1.928 0-2.637 1.65-2.636 5.156.003 3.504.726 5.151 2.654 5.151h.002c1.86 0 2.57-1.676 2.567-5.153-.002-3.479-.725-5.154-2.587-5.154m.007 8.646c-.656 0-.724-1.056-.726-3.421 0-2.479.037-3.62.708-3.62.629 0 .684 1.226.685 3.901 0 2.111-.12 3.139-.667 3.14"/></g><g fill="#fff"><path d="m210.42 118.02c-1.756 0-2.492-1.589-2.494-4.927-.003-3.59.853-5.393 2.607-5.394 1.5 0 2.318 1.195 2.319 3.49 0 .072 0 .155 0 .226h-1.795c0-.169 0-.309 0-.465 0-1.183-.109-1.761-.55-1.76-.629 0-.709 1.268-.708 4.03 0 2.112.096 3.097.726 3.097.481 0 .682-.705.681-2.154 0-.043 0-.099 0-.141h1.621c-.04 2.675-.829 3.999-2.408 4"/><path d="m216.08 113.22c-.002-2.675-.057-3.9-.686-3.899-.669 0-.709 1.14-.707 3.619 0 2.365.068 3.421.725 3.42.548 0 .668-1.028.668-3.14m-.673-5.505c1.861 0 2.585 1.674 2.588 5.152 0 3.477-.708 5.153-2.569 5.155-1.928 0-2.652-1.646-2.654-5.151-.004-3.507.705-5.155 2.635-5.156"/><path d="m219.53 114.85c-.013.141-.013.267-.013.395 0 .802.242 1.21.737 1.21.415 0 .71-.338.71-.916 0-.605-.336-.985-.899-1.534-.469-.465-1.032-.915-1.488-1.576-.388-.577-.602-1.253-.602-1.971 0-1.633 1.015-2.747 2.368-2.747 1.338 0 2.21.998 2.211 2.758 0 .098-.014.196-.014.309h-1.607c.013-.155.027-.309.028-.449 0-.69-.256-1.057-.698-1.056-.361 0-.669.366-.668.845 0 .479.254.873.737 1.337.643.619 1.192 1.07 1.5 1.478.563.732.858 1.435.858 2.295.002 1.688-.975 2.788-2.516 2.789-1.539 0-2.303-1.055-2.304-3.167h1.66"/><path d="m227.39 110.76l-1.19 7.07h-1.01l-1.15-7.07.001 7.07h-1.37v-9.94h2.37l.79 4.83.8-4.83h2.4v9.94h-1.64z"/><path d="m232.35 113.21c0-2.675-.056-3.9-.685-3.9-.67 0-.709 1.141-.708 3.619.002 2.366.07 3.422.726 3.421.549 0 .668-1.028.667-3.14m-.673-5.505c1.861 0 2.585 1.674 2.588 5.153.002 3.477-.707 5.153-2.568 5.154-1.929 0-2.652-1.646-2.655-5.151-.002-3.507.707-5.155 2.635-5.156"/></g></g></svg>