<?xml version="1.0" encoding="UTF-8" standalone="no"?>
<!-- Created with Inkscape (http://www.inkscape.org/) -->
<svg xmlns:rdf="http://www.w3.org/1999/02/22-rdf-syntax-ns#" xmlns="http://www.w3.org/2000/svg" height="245.84" width="600" version="1.1" xmlns:cc="http://creativecommons.org/ns#" xmlns:dc="http://purl.org/dc/elements/1.1/">
 <defs></defs>
 <metadata>
  <rdf:RDF>
   <cc:Work rdf:about="">
    <dc:format>image/svg+xml</dc:format>
    <dc:type rdf:resource="http://purl.org/dc/dcmitype/StillImage"/>
    <dc:title/>
   </cc:Work>
  </rdf:RDF>
 </metadata>
 <g fill-rule="nonzero" transform="translate(-95.323216,-454.44663)">
  <path fill="#FFF" d="m95.323,498.12c0-25.976,17.696-43.673,43.673-43.673h512.65c25.976,0,43.673,17.696,43.673,43.673v158.49c0,25.976-17.696,43.673-43.673,43.673h-512.65c-25.976,0-43.673-17.696-43.673-43.673v-158.49z"/>
  <path fill="#ee3430" d="m184.55,527.65c-4.3792,0-8.4745,0.80709-12.331,2.4362-3.8262,1.6441-7.1592,3.901-9.999,6.8005-2.8398,2.8996-5.0668,6.2475-6.7108,10.014-1.6441,3.7814-2.4661,7.8318-2.4661,12.211v38.636c0,4.4241,0.82204,8.5492,2.496,12.36,1.659,3.8412,3.9159,7.1592,6.7258,9.9542,2.8248,2.8099,6.1429,5.0668,9.9392,6.7557,3.8113,1.7039,7.9215,2.5558,12.346,2.5558h48.441v-23.48h-43.598c-3.5871,0-6.6062-1.2405-9.1022-3.7067-2.4661-2.4661-3.7066-5.56-3.7066-9.2517v-29.026c0-3.617,1.2256-6.6959,3.6917-9.2368,2.4811-2.5259,5.5002-3.7814,9.1172-3.7814h43.598v-23.241h-48.441zm83.191-0.47828c-3.8711,0-7.503,0.73237-10.896,2.1971-3.4227,1.4647-6.3671,3.4376-8.8332,5.9336-2.4811,2.4661-4.439,5.3956-5.8738,8.7585-1.4199,3.3629-2.1523,6.95-2.1523,10.716v4.6483c0,3.8561,0.73237,7.4283,2.1672,10.761,1.4498,3.318,3.4227,6.2624,5.9187,8.8332,2.496,2.5707,5.4404,4.5735,8.8033,6.0084,3.3629,1.4498,6.9799,2.1821,10.866,2.1821h40.982c2.6156,0,4.7828,0.88183,6.5315,2.6455,1.7338,1.7636,2.5857,3.8711,2.5857,6.3521v2.2569c0,2.5707-0.86688,4.7529-2.6156,6.6062-1.7636,1.8234-3.9308,2.7352-6.5016,2.7352h-61.055v20.835h65.883c3.8561,0,7.4731-0.71741,10.821-2.1672,3.3629-1.4498,6.3222-3.4227,8.878-5.9336,2.5708-2.5259,4.5885-5.4703,6.0233-8.878,1.4498-3.3928,2.1821-6.9948,2.1821-10.806v-4.6483c0-3.7216-0.73236-7.2788-2.1672-10.657-1.4348-3.3629-3.4227-6.3073-5.9635-8.8183-2.5558-2.511-5.5301-4.4839-8.9079-5.9336-3.4077-1.4498-7.0247-2.1971-10.866-2.1971h-40.968c-2.5259,0-4.6782-0.88182-6.4717-2.6455-1.7786-1.7786-2.6754-3.9458-2.6754-6.5315v-2.2569c0-2.5857,0.89677-4.7529,2.6754-6.5165,1.7636-1.7636,3.9308-2.6455,6.4717-2.6455h61.19v-20.835h-66.032zm-154.62-17.876,0,137.76c0,23.406,12.121,35.437,35.766,35.437h201.77c23.645,0,35.766-12.032,35.766-35.437v-137.76c0-23.421-12.121-35.437-35.766-35.437h-201.77c-23.645,0-35.766,12.017-35.766,35.437m19.34,11.254c0-13.646,9.0275-22.703,22.599-22.703h186.07c13.586,0,22.614,9.0574,22.614,22.703v115.25c0,13.646-9.0275,22.703-22.614,22.703h-186.07c-13.571,0-22.599-9.0574-22.599-22.703v-115.25z"/>
  <path fill="#3b3996" d="m409.07,585.21,0-20.461,19.55,0,0-21.792c0-5.9934,2.4811-10.746,7.4133-14.304,4.3494-3.1088,9.6403-4.6632,15.888-4.6632h20.88v20.461h-22.927v20.297h22.927v20.461h-22.927v43.912h-21.253v-43.912h-19.55z"/>
  <path fill="#3b3996" d="m504.16,533.47c6.8902,0,10.313,3.0789,10.313,9.2368,0,2.9444-0.85193,5.3956-2.5857,7.3685-1.8683,2.1522-4.3493,3.2433-7.4283,3.2433-3.2134,0-5.829-0.98645-7.8468-2.9594-2.0476-1.9878-3.064-4.5287-3.064-7.6524,0-6.1578,3.5422-9.2368,10.612-9.2368m10.627,95.641-21.239,0,0-64.373,21.239,0,0,64.373z"/>
  <path d="m557.04,629.12-21.239,0,0-105.12,21.239,0,0,105.12z" fill="#3b3996"/>
  <path fill="#3b3996" d="m637.04,585.21,0,43.912-21.239,0,0-43.912-13.706,0,0,43.912-21.239,0,0-64.373,67.362,0c5.829,0,10.985,1.8085,15.484,5.4404,4.9024,3.9607,7.3685,8.7435,7.3685,14.363v44.57h-21.253v-43.912h-12.779z"/>
 </g>
</svg>
