<svg xmlns="http://www.w3.org/2000/svg" viewBox="0 0 600 502.98" xmlns:xlink="http://www.w3.org/1999/xlink"><g transform="translate(133.38 211.43)"><g transform="translate(-242.86)"><path d="m109.48 96.24c0-25.1 17.09-42.19 42.19-42.19h515.62c25.1 0 42.19 17.09 42.19 42.19v153.13c0 25.08-17.09 42.18-42.19 42.18h-515.62c-25.1 0-42.19-17.09-42.19-42.18v-153.13" fill="#fff"/><path d="m195.68 124.77c-4.238 0-8.192.779-11.905 2.367-3.699 1.573-6.916 3.756-9.68 6.562-2.721 2.792-4.889 6.02-6.477 9.666-1.573 3.656-2.381 7.582-2.381 11.791v37.33c0 4.28.808 8.262 2.409 11.961 1.616 3.699 3.784 6.902 6.505 9.609 2.735 2.707 5.938 4.889 9.609 6.533 3.671 1.63 7.639 2.466 11.919 2.466h46.797v-22.69h-42.12c-3.458 0-6.378-1.205-8.787-3.586-2.395-2.381-3.586-5.371-3.586-8.929v-28.05c0-3.501 1.176-6.477 3.571-8.929 2.395-2.438 5.315-3.656 8.801-3.656h42.12v-22.449h-46.797m80.37-.467c-3.727 0-7.242.723-10.53 2.126-3.288 1.417-6.137 3.33-8.532 5.726-2.381 2.395-4.28 5.23-5.669 8.475-1.375 3.245-2.083 6.703-2.083 10.346v4.493c0 3.727.709 7.171 2.097 10.402 1.389 3.203 3.302 6.04 5.726 8.518 2.395 2.494 5.244 4.436 8.489 5.825 3.26 1.403 6.76 2.097 10.502 2.097h39.598c2.537 0 4.62.85 6.307 2.551 1.672 1.701 2.509 3.756 2.509 6.151v2.183c0 2.48-.85 4.592-2.537 6.378-1.701 1.757-3.798 2.636-6.278 2.636h-58.985v20.14h63.66c3.713 0 7.214-.694 10.445-2.097 3.26-1.403 6.108-3.302 8.588-5.726 2.48-2.438 4.422-5.3 5.811-8.588 1.403-3.274 2.098-6.76 2.098-10.431v-4.493c0-3.6-.694-7.04-2.083-10.303-1.389-3.245-3.316-6.094-5.768-8.518-2.466-2.423-5.343-4.323-8.617-5.74-3.274-1.403-6.774-2.112-10.473-2.112h-39.598c-2.438 0-4.521-.85-6.25-2.551-1.715-1.715-2.579-3.812-2.579-6.321v-2.183c0-2.494.865-4.592 2.579-6.292 1.701-1.701 3.798-2.551 6.25-2.551h59.13v-20.14h-63.804m-149.39-17.262v133.09c0 22.619 11.721 34.23 34.566 34.23h194.94c22.846 0 34.566-11.607 34.566-34.23v-133.09c0-22.633-11.721-34.24-34.566-34.24h-194.94c-22.846 0-34.566 11.607-34.566 34.24m18.693 10.87c0-13.18 8.716-21.939 21.84-21.939h179.76c13.14 0 21.854 8.758 21.854 21.939v111.34c0 13.194-8.716 21.939-21.854 21.939h-179.76c-13.12 0-21.84-8.744-21.84-21.939v-111.34z" fill="#ee322b"/><path d="m409.21 170.44s-.794-44.25 17.9-21.13c18.707 23.12 7.44-.057 25.14-7.568 6.179-2.608 12.12-1.077 16.624.879 4.521 1.984 8.163 5.13 10.941 9.467 2.565-6.477 5.655-11.31 9.269-14.47 3.614-3.175 8.376-5.386 14.328-6.633 8.858-1.857 16.497-.184 22.874 5.02 6.392 5.201 11.01 14.286 13.846 27.22l9.481 43.16-33.15 6.987-8.333-37.911c-.822-3.756-2.069-6.406-3.685-7.993-2.268-2.296-4.634-3.203-7.1-2.664-3.075.638-5.272 2.48-6.576 5.527-1.318 3.03-1.276 7.696.099 13.974l7.228 32.922-33.16 6.959-7.908-36.01c-.865-3.869-1.601-6.42-2.225-7.625-.978-1.842-2.268-3.231-3.855-4.138-1.587-.907-3.274-1.176-5.05-.794-3 .624-5.187 2.494-6.548 5.612-1.361 3.104-1.318 7.951.142 14.555l7.07 32.27-33.15 6.973-4.209-64.58" fill="#8fc742"/><path d="m548.99 217.83l20.38-1.786v-77.962c1.389-1.488 2.593-3.16 3.543-4.975 2.409 1.488 5.244 2.353 8.291 2.353 8.659 0 15.689-6.944 15.689-15.519 0-8.56-7.03-15.519-15.689-15.519-4.181 0-7.993 1.63-10.813 4.28-4.153-5.088-10.516-8.362-17.645-8.362-12.543 0-22.704 10.05-22.704 22.463 0 8.886 5.215 16.553 12.798 20.2l6.151 74.83" fill="#ffca2c"/><path d="m535.82 123.21c0 9.467 7.766 17.16 17.333 17.16 7.88 0 14.541-5.23 16.652-12.358 2.112 2.551 5.329 4.181 8.943 4.181 6.363 0 11.536-5.13 11.536-11.437 0-6.307-5.173-11.423-11.536-11.423-4.408 0-8.234 2.438-10.19 6.01-2.877-5.513-8.688-9.269-15.405-9.269-9.566 0-17.333 7.667-17.333 17.13" fill="#e9e9ea"/><path d="m541.6 123.21c0-6.307 5.173-11.423 11.55-11.423 6.392 0 11.55 5.116 11.55 11.423 0 6.307-5.159 11.437-11.55 11.437-6.378 0-11.55-5.13-11.55-11.437"/><path d="m572.13 120.76c0-4.053 3.331-7.341 7.426-7.341 4.11 0 7.441 3.288 7.441 7.341 0 4.067-3.331 7.355-7.441 7.355-4.096 0-7.426-3.288-7.426-7.355"/><path d="m532.88 102.64l3.614 9.581 17.489-6.959-2.537-6.04-18.566 3.415"/><path d="m570.35 107.39l18.75 4.535.978-9.765-18.778-1.63-.95 6.859" id="0"/><path d="m583.34 152.9s16.199-40.25 24.447-12.642c8.319 27.792 6.874 2.622 26.12 2.225 6.732-.156 11.664 3.401 15.12 6.859s5.641 7.681 6.562 12.67c4.932-4.989-1.02 27.381-2.168 33.673l-6.04 32.979-33.617-6.292 6.604-35.842c.709-3.855 1.01-6.434.893-7.752-.213-2.069-.85-3.798-1.97-5.201-1.105-1.417-2.565-2.282-4.351-2.594-3-.539-5.74.354-8.177 2.679-2.452 2.338-4.28 6.76-5.485 13.265l-5.924 31.987-32.908-6.151 20.89-59.864z" fill="#ee322b"/><path d="m650.59 151.49c0 6.987 3.345 13.166 8.546 17.09l4.266 53.727s28.841-.808 27.25-3.189c-1.148-1.715-5.556-31.718-7.993-48.824 6.675-3.656 11.196-10.714 11.196-18.807 0-11.876-9.694-21.485-21.641-21.485s-21.627 9.609-21.627 21.485" fill="#5dc8db"/><path d="m653.79 150.69c0-8.801 7.171-15.916 16.03-15.916 8.843 0 16.01 7.114 16.01 15.916 0 8.787-7.171 15.901-16.01 15.901-8.858 0-16.03-7.114-16.03-15.901" fill="#e9e9ea"/><path d="m657.07 146.23c0-4.067 3.331-7.341 7.426-7.341 4.11 0 7.412 3.274 7.412 7.341s-3.302 7.341-7.412 7.341c-4.096 0-7.426-3.274-7.426-7.341"/><use xlink:href="#0"/></g><g transform="translate(-228.71-665.88)"><path fill="#fff" d="m95.32 498.12c0-25.976 17.696-43.673 43.673-43.673h512.65c25.976 0 43.673 17.696 43.673 43.673v158.49c0 25.976-17.696 43.673-43.673 43.673h-512.65c-25.976 0-43.673-17.696-43.673-43.673v-158.49"/><path fill="#ee3430" d="m184.55 527.65c-4.379 0-8.475.807-12.331 2.436-3.826 1.644-7.159 3.901-9.999 6.801-2.84 2.9-5.067 6.247-6.711 10.01-1.644 3.781-2.466 7.832-2.466 12.211v38.636c0 4.424.822 8.549 2.496 12.36 1.659 3.841 3.916 7.159 6.726 9.954 2.825 2.81 6.143 5.067 9.939 6.756 3.811 1.704 7.922 2.556 12.346 2.556h48.44v-23.48h-43.598c-3.587 0-6.606-1.24-9.102-3.707-2.466-2.466-3.707-5.56-3.707-9.252v-29.03c0-3.617 1.226-6.696 3.692-9.237 2.481-2.526 5.5-3.781 9.117-3.781h43.598v-23.24h-48.44m83.19-.478c-3.871 0-7.503.732-10.896 2.197-3.423 1.465-6.367 3.438-8.833 5.934-2.481 2.466-4.439 5.396-5.874 8.759-1.42 3.363-2.152 6.95-2.152 10.716v4.648c0 3.856.732 7.428 2.167 10.761 1.45 3.318 3.423 6.262 5.919 8.833 2.496 2.571 5.44 4.573 8.803 6.01 3.363 1.45 6.98 2.182 10.866 2.182h40.982c2.616 0 4.783.882 6.531 2.645 1.734 1.764 2.586 3.871 2.586 6.352v2.257c0 2.571-.867 4.753-2.616 6.606-1.764 1.823-3.931 2.735-6.502 2.735h-61.06v20.835h65.883c3.856 0 7.473-.717 10.821-2.167 3.363-1.45 6.322-3.423 8.878-5.934 2.571-2.526 4.589-5.47 6.02-8.878 1.45-3.393 2.182-6.995 2.182-10.806v-4.648c0-3.722-.732-7.279-2.167-10.657-1.435-3.363-3.423-6.307-5.964-8.818-2.556-2.511-5.53-4.484-8.908-5.934-3.408-1.45-7.02-2.197-10.866-2.197h-40.968c-2.526 0-4.678-.882-6.472-2.645-1.779-1.779-2.675-3.946-2.675-6.532v-2.257c0-2.586.897-4.753 2.675-6.516 1.764-1.764 3.931-2.645 6.472-2.645h61.19v-20.835h-66.03m-154.62-17.875v137.76c0 23.406 12.12 35.437 35.766 35.437h201.77c23.645 0 35.766-12.03 35.766-35.437v-137.76c0-23.421-12.12-35.437-35.766-35.437h-201.77c-23.645 0-35.766 12.02-35.766 35.437m19.34 11.254c0-13.646 9.03-22.703 22.599-22.703h186.07c13.586 0 22.614 9.06 22.614 22.703v115.25c0 13.646-9.03 22.703-22.614 22.703h-186.07c-13.571 0-22.599-9.06-22.599-22.703v-115.25z"/><g fill="#3b3996"><path d="m409.07 585.21v-20.461h19.55v-21.792c0-5.993 2.481-10.746 7.413-14.304 4.349-3.109 9.64-4.663 15.888-4.663h20.88v20.461h-22.927v20.297h22.927v20.461h-22.927v43.912h-21.253v-43.912h-19.55"/><path d="m504.16 533.47c6.89 0 10.313 3.079 10.313 9.237 0 2.944-.852 5.396-2.586 7.369-1.868 2.152-4.349 3.243-7.428 3.243-3.213 0-5.829-.986-7.847-2.959-2.048-1.988-3.064-4.529-3.064-7.652 0-6.158 3.542-9.237 10.612-9.237m10.627 95.64h-21.239v-64.37h21.239v64.37z"/><path d="m557.04 629.12h-21.239v-105.12h21.239v105.12"/><path d="m637.04 585.21v43.912h-21.239v-43.912h-13.706v43.912h-21.239v-64.37h67.36c5.829 0 10.985 1.808 15.484 5.44 4.902 3.961 7.369 8.744 7.369 14.363v44.57h-21.253v-43.912h-12.779z"/></g></g></g></svg>