<?xml version="1.0" encoding="UTF-8" standalone="no"?>
<!-- Created with Inkscape (http://www.inkscape.org/) -->
<svg xmlns:rdf="http://www.w3.org/1999/02/22-rdf-syntax-ns#" xmlns="http://www.w3.org/2000/svg" height="502.98" width="600" version="1.1" xmlns:cc="http://creativecommons.org/ns#" xmlns:dc="http://purl.org/dc/elements/1.1/">
 <defs></defs>
 <metadata>
  <rdf:RDF>
   <cc:Work rdf:about="">
    <dc:format>image/svg+xml</dc:format>
    <dc:type rdf:resource="http://purl.org/dc/dcmitype/StillImage"/>
    <dc:title/>
   </cc:Work>
  </rdf:RDF>
 </metadata>
 <g fill-rule="nonzero" transform="translate(133.38144,211.43359)">
  <g transform="translate(-242.85935,1.3334789e-6)">
   <path d="m109.48,96.241c0-25.099,17.092-42.191,42.191-42.191h515.62c25.099,0,42.191,17.092,42.191,42.191v153.13c0,25.085-17.092,42.177-42.191,42.177h-515.62c-25.099,0-42.191-17.092-42.191-42.177v-153.13z" fill="#FFF"/>
   <path d="m195.68,124.77c-4.2375,0-8.1916,0.77948-11.905,2.3668-3.699,1.5731-6.9161,3.7557-9.6797,6.5618-2.7211,2.792-4.8894,6.0232-6.4768,9.6655-1.5731,3.6565-2.381,7.5822-2.381,11.791v37.33c0,4.28,0.80783,8.2625,2.4093,11.961,1.6156,3.699,3.784,6.9019,6.5051,9.6088,2.7353,2.7069,5.9382,4.8894,9.6088,6.5334,3.6706,1.6298,7.6389,2.466,11.919,2.466h46.797v-22.69h-42.12c-3.458,0-6.3776-1.2046-8.7868-3.5856-2.3951-2.381-3.5856-5.3713-3.5856-8.9286v-28.047c0-3.5006,1.1763-6.4768,3.5714-8.9286,2.3951-2.4376,5.3146-3.6565,8.801-3.6565h42.12v-22.449h-46.797zm80.371-0.46769c-3.7273,0-7.2421,0.72279-10.53,2.1258-3.288,1.4172-6.1366,3.3305-8.5317,5.7256-2.381,2.3951-4.28,5.2296-5.6689,8.475-1.3747,3.2455-2.0833,6.7035-2.0833,10.346v4.4926c0,3.7273,0.70861,7.1712,2.0975,10.402,1.3889,3.203,3.3022,6.0374,5.7256,8.5176,2.3951,2.4943,5.2438,4.4359,8.4892,5.8248,3.2596,1.4031,6.7602,2.0975,10.502,2.0975h39.598c2.5368,0,4.6202,0.85034,6.3067,2.551,1.6723,1.7007,2.5085,3.7557,2.5085,6.1508v2.1825c0,2.4802-0.85034,4.5918-2.5368,6.3776-1.7007,1.7574-3.7982,2.636-6.2784,2.636h-58.985v20.139h63.662c3.7132,0,7.2137-0.69444,10.445-2.0975,3.2596-1.4031,6.1083-3.3022,8.5884-5.7256,2.4802-2.4376,4.4218-5.3004,5.8107-8.5884,1.4031-3.2738,2.0975-6.7602,2.0975-10.431v-4.4926c0-3.5998-0.69445-7.0436-2.0833-10.303-1.3889-3.2455-3.3163-6.0941-5.7681-8.5176-2.466-2.4235-5.343-4.3226-8.6168-5.7398-3.2738-1.4031-6.7744-2.1117-10.473-2.1117h-39.598c-2.4376,0-4.521-0.85034-6.25-2.551-1.7148-1.7148-2.5794-3.8124-2.5794-6.3209v-2.1825c0-2.4943,0.86452-4.5918,2.5794-6.2925,1.7007-1.7007,3.7982-2.551,6.25-2.551h59.127v-20.139h-63.804zm-149.39-17.262,0,133.09c0,22.619,11.721,34.226,34.566,34.226h194.94c22.846,0,34.566-11.607,34.566-34.226v-133.09c0-22.633-11.721-34.24-34.566-34.24h-194.94c-22.846,0-34.566,11.607-34.566,34.24m18.693,10.87c0-13.18,8.716-21.939,21.84-21.939h179.76c13.138,0,21.854,8.7585,21.854,21.939v111.34c0,13.194-8.716,21.939-21.854,21.939h-179.76c-13.124,0-21.84-8.7443-21.84-21.939v-111.34z" fill="#ee322b"/>
   <path d="m409.21,170.44s-0.79365-44.246,17.9-21.131c18.707,23.115,7.4405-0.0567,25.142-7.568,6.1791-2.6077,12.117-1.0771,16.624,0.87868,4.521,1.9841,8.1633,5.1304,10.941,9.4671,2.5652-6.4768,5.6548-11.31,9.2687-14.47,3.6139-3.1746,8.3758-5.3855,14.328-6.6326,8.8577-1.8566,16.497-0.18424,22.874,5.017,6.3917,5.2012,11.012,14.286,13.846,27.225l9.4813,43.155-33.149,6.987-8.3333-37.911c-0.822-3.7557-2.0692-6.4059-3.6848-7.9932-2.2676-2.2959-4.6344-3.203-7.1003-2.6644-3.0754,0.63776-5.2721,2.4802-6.576,5.5272-1.318,3.0329-1.2755,7.6956,0.0992,13.974l7.2279,32.922-33.163,6.9586-7.9082-36.012c-0.86451-3.869-1.6015-6.4201-2.2251-7.6247-0.97789-1.8424-2.2676-3.2313-3.8549-4.1383-1.5873-0.90703-3.2738-1.1763-5.0454-0.79365-3.0045,0.62359-5.1871,2.4943-6.5476,5.6122-1.3606,3.1037-1.318,7.9507,0.14172,14.555l7.072,32.27-33.149,6.9728-4.2092-64.583z" fill="#8fc742"/>
   <path d="m548.99,217.83,20.38-1.7857,0-77.962c1.3889-1.4881,2.5935-3.1604,3.5431-4.9745,2.4093,1.4881,5.2438,2.3526,8.2908,2.3526,8.6593,0,15.689-6.9444,15.689-15.519,0-8.5601-7.0295-15.519-15.689-15.519-4.1808,0-7.9932,1.6298-10.813,4.28-4.1525-5.0879-10.516-8.3617-17.645-8.3617-12.543,0-22.704,10.048-22.704,22.463,0,8.886,5.2154,16.553,12.798,20.196l6.1508,74.83z" fill="#ffca2c"/>
   <path d="m535.82,123.21c0,9.4671,7.7664,17.163,17.333,17.163,7.8798,0,14.541-5.2296,16.652-12.358,2.1117,2.551,5.3288,4.1808,8.9428,4.1808,6.3634,0,11.536-5.1304,11.536-11.437,0-6.3067-5.1729-11.423-11.536-11.423-4.4076,0-8.2341,2.4376-10.19,6.0091-2.877-5.513-8.6876-9.2687-15.405-9.2687-9.5663,0-17.333,7.6672-17.333,17.134" fill="#e9e9ea"/>
   <path d="m541.6,123.21c0-6.3067,5.1729-11.423,11.55-11.423,6.3917,0,11.55,5.1162,11.55,11.423,0,6.3067-5.1587,11.437-11.55,11.437-6.3776,0-11.55-5.1304-11.55-11.437" fill="#000"/>
   <path d="m572.13,120.76c0-4.0533,3.3305-7.3413,7.4263-7.3413,4.11,0,7.4405,3.288,7.4405,7.3413,0,4.0675-3.3305,7.3554-7.4405,7.3554-4.0958,0-7.4263-3.288-7.4263-7.3554" fill="#000"/>
   <path d="m532.88,102.64,3.614,9.5805,17.489-6.9586-2.5368-6.0374-18.566,3.4155z" fill="#000"/>
   <path d="m570.35,107.39,18.75,4.5352,0.97789-9.7647-18.778-1.6298-0.94955,6.8594z" fill="#000"/>
   <path d="m583.34,152.9s16.199-40.249,24.447-12.642c8.3192,27.792,6.8736,2.6219,26.12,2.225,6.7319-0.15589,11.664,3.4014,15.122,6.8594s5.6406,7.6814,6.5618,12.67c4.932-4.9887-1.0204,27.381-2.1684,33.673l-6.0374,32.979-33.617-6.2925,6.6043-35.842c0.70862-3.8549,1.0062-6.4342,0.89286-7.7523-0.21258-2.0692-0.85034-3.7982-1.97-5.2012-1.1054-1.4172-2.5652-2.2818-4.3509-2.5935-3.0045-0.53855-5.7398,0.35431-8.1774,2.6786-2.4518,2.3384-4.28,6.7602-5.4847,13.265l-5.924,31.987-32.908-6.1508,20.89-59.864z" fill="#ee322b"/>
   <path d="m650.59,151.49c0,6.987,3.3447,13.166,8.5459,17.092l4.2659,53.727s28.841-0.80782,27.253-3.1888c-1.148-1.7149-5.5556-31.718-7.9932-48.824,6.6752-3.6565,11.196-10.714,11.196-18.807,0-11.876-9.6939-21.485-21.641-21.485s-21.627,9.6088-21.627,21.485" fill="#5dc8db"/>
   <path d="m653.79,150.69c0-8.801,7.1712-15.916,16.029-15.916,8.8435,0,16.015,7.1145,16.015,15.916,0,8.7868-7.1712,15.901-16.015,15.901-8.8577,0-16.029-7.1145-16.029-15.901" fill="#e9e9ea"/>
   <path d="m657.07,146.23c0-4.0675,3.3305-7.3413,7.4263-7.3413,4.11,0,7.4121,3.2738,7.4121,7.3413s-3.3022,7.3413-7.4121,7.3413c-4.0958,0-7.4263-3.2738-7.4263-7.3413" fill="#000"/>
   <path d="m570.35,107.39,18.75,4.5352,0.97789-9.7647-18.778-1.6298-0.94955,6.8594z" fill="#000"/>
  </g>
  <g transform="matrix(1.0000067,0,0,1.0000067,-228.70508,-665.88363)">
   <path fill="#FFF" d="m95.323,498.12c0-25.976,17.696-43.673,43.673-43.673h512.65c25.976,0,43.673,17.696,43.673,43.673v158.49c0,25.976-17.696,43.673-43.673,43.673h-512.65c-25.976,0-43.673-17.696-43.673-43.673v-158.49z"/>
   <path fill="#ee3430" d="m184.55,527.65c-4.3792,0-8.4745,0.80709-12.331,2.4362-3.8262,1.6441-7.1592,3.901-9.999,6.8005-2.8398,2.8996-5.0668,6.2475-6.7108,10.014-1.6441,3.7814-2.4661,7.8318-2.4661,12.211v38.636c0,4.4241,0.82204,8.5492,2.496,12.36,1.659,3.8412,3.9159,7.1592,6.7258,9.9542,2.8248,2.8099,6.1429,5.0668,9.9392,6.7557,3.8113,1.7039,7.9215,2.5558,12.346,2.5558h48.441v-23.48h-43.598c-3.5871,0-6.6062-1.2405-9.1022-3.7067-2.4661-2.4661-3.7066-5.56-3.7066-9.2517v-29.026c0-3.617,1.2256-6.6959,3.6917-9.2368,2.4811-2.5259,5.5002-3.7814,9.1172-3.7814h43.598v-23.241h-48.441zm83.191-0.47828c-3.8711,0-7.503,0.73237-10.896,2.1971-3.4227,1.4647-6.3671,3.4376-8.8332,5.9336-2.4811,2.4661-4.439,5.3956-5.8738,8.7585-1.4199,3.3629-2.1523,6.95-2.1523,10.716v4.6483c0,3.8561,0.73237,7.4283,2.1672,10.761,1.4498,3.318,3.4227,6.2624,5.9187,8.8332,2.496,2.5707,5.4404,4.5735,8.8033,6.0084,3.3629,1.4498,6.9799,2.1821,10.866,2.1821h40.982c2.6156,0,4.7828,0.88183,6.5315,2.6455,1.7338,1.7636,2.5857,3.8711,2.5857,6.3521v2.2569c0,2.5707-0.86688,4.7529-2.6156,6.6062-1.7636,1.8234-3.9308,2.7352-6.5016,2.7352h-61.055v20.835h65.883c3.8561,0,7.4731-0.71741,10.821-2.1672,3.3629-1.4498,6.3222-3.4227,8.878-5.9336,2.5708-2.5259,4.5885-5.4703,6.0233-8.878,1.4498-3.3928,2.1821-6.9948,2.1821-10.806v-4.6483c0-3.7216-0.73236-7.2788-2.1672-10.657-1.4348-3.3629-3.4227-6.3073-5.9635-8.8183-2.5558-2.511-5.5301-4.4839-8.9079-5.9336-3.4077-1.4498-7.0247-2.1971-10.866-2.1971h-40.968c-2.5259,0-4.6782-0.88182-6.4717-2.6455-1.7786-1.7786-2.6754-3.9458-2.6754-6.5315v-2.2569c0-2.5857,0.89677-4.7529,2.6754-6.5165,1.7636-1.7636,3.9308-2.6455,6.4717-2.6455h61.19v-20.835h-66.032zm-154.62-17.876,0,137.76c0,23.406,12.121,35.437,35.766,35.437h201.77c23.645,0,35.766-12.032,35.766-35.437v-137.76c0-23.421-12.121-35.437-35.766-35.437h-201.77c-23.645,0-35.766,12.017-35.766,35.437m19.34,11.254c0-13.646,9.0275-22.703,22.599-22.703h186.07c13.586,0,22.614,9.0574,22.614,22.703v115.25c0,13.646-9.0275,22.703-22.614,22.703h-186.07c-13.571,0-22.599-9.0574-22.599-22.703v-115.25z"/>
   <path fill="#3b3996" d="m409.07,585.21,0-20.461,19.55,0,0-21.792c0-5.9934,2.4811-10.746,7.4133-14.304,4.3494-3.1088,9.6403-4.6632,15.888-4.6632h20.88v20.461h-22.927v20.297h22.927v20.461h-22.927v43.912h-21.253v-43.912h-19.55z"/>
   <path fill="#3b3996" d="m504.16,533.47c6.8902,0,10.313,3.0789,10.313,9.2368,0,2.9444-0.85193,5.3956-2.5857,7.3685-1.8683,2.1522-4.3493,3.2433-7.4283,3.2433-3.2134,0-5.829-0.98645-7.8468-2.9594-2.0476-1.9878-3.064-4.5287-3.064-7.6524,0-6.1578,3.5422-9.2368,10.612-9.2368m10.627,95.641-21.239,0,0-64.373,21.239,0,0,64.373z"/>
   <path fill="#3b3996" d="m557.04,629.12-21.239,0,0-105.12,21.239,0,0,105.12z"/>
   <path fill="#3b3996" d="m637.04,585.21,0,43.912-21.239,0,0-43.912-13.706,0,0,43.912-21.239,0,0-64.373,67.362,0c5.829,0,10.985,1.8085,15.484,5.4404,4.9024,3.9607,7.3685,8.7435,7.3685,14.363v44.57h-21.253v-43.912h-12.779z"/>
  </g>
 </g>
</svg>
