<svg xmlns="http://www.w3.org/2000/svg" viewBox="0 0 600 170.98"><g transform="translate(150.28 636.19)" fill="#ed1c24"><path d="m102.49-550.7c0-10.04-.691-24.798-3.039-38.682-5.618-33.32-14.275-40.869-60.694-44.576-16.877-1.335-35.11-2-49.918-2.233v21.943c7 .23 14.851.714 22.2 1.497 25.88 2.763 30.692 8.381 33.824 33.23 1.312 10.361 1.704 21.344 1.704 28.85 0 7.46-.391 18.466-1.704 28.781-3.131 24.867-7.944 30.462-33.824 33.23-7.345.806-15.196 1.266-22.2 1.52v21.943c14.805-.23 33.04-.898 49.918-2.233 46.42-3.707 55.08-11.259 60.694-44.576 2.349-13.884 3.039-28.666 3.039-38.682m-189.03-83.26c-46.42 3.707-55.08 11.236-60.694 44.576-2.349 13.884-3.039 28.643-3.039 38.682 0 10.02.691 24.798 3.039 38.682 5.618 33.32 14.275 40.869 60.694 44.576 16.877 1.335 35.14 2 49.941 2.233v-21.943c-7.02-.253-14.851-.714-22.22-1.52-25.88-2.763-30.692-8.381-33.824-33.23-1.312-10.315-1.704-21.321-1.704-28.781 0-7.483.391-18.489 1.704-28.85 3.131-24.844 7.944-30.462 33.824-33.23 7.368-.783 15.196-1.243 22.22-1.497v-21.943c-14.805.23-33.06.875-49.941 2.233m245.72 67.1l-12.917-30.531 43.47-26.939h34.975v140.41h-39.23v-98.82l-26.294 15.887z"/><path d="m335.15-577.92v35.504h21.275v-81.9h-21.275v30.554h-32.419v-30.554h-21.275v81.9h21.275v-35.504h32.419m39.21 35.504h28.965c28.09 0 46.39-14.483 46.39-40.961 0-26.709-18.19-40.938-46.39-40.938h-28.965v81.9m21.298-66.06h9.141c14.483 0 23.02 9.141 23.02 25.1 0 15.979-8.542 25.12-23.02 25.12h-9.141v-50.22"/></g></svg>