<?xml version="1.0" encoding="UTF-8" standalone="no"?>
<!-- Created with Inkscape (http://www.inkscape.org/) -->

<svg
   xmlns:dc="http://purl.org/dc/elements/1.1/"
   xmlns:cc="http://creativecommons.org/ns#"
   xmlns:rdf="http://www.w3.org/1999/02/22-rdf-syntax-ns#"
   xmlns:svg="http://www.w3.org/2000/svg"
   xmlns="http://www.w3.org/2000/svg"
   version="1.1"
   width="600"
   height="188.87701"
   id="svg19348">
  <defs
     id="defs19350">
    <linearGradient
       x1="0"
       y1="0"
       x2="1"
       y2="0"
       id="linearGradient7934"
       gradientUnits="userSpaceOnUse"
       gradientTransform="matrix(-1.1e-6,24.45702,24.45702,1.1e-6,297.16938,464.69361)"
       spreadMethod="pad">
      <stop
         id="stop7936"
         style="stop-color:#254aa5;stop-opacity:1"
         offset="0" />
      <stop
         id="stop7938"
         style="stop-color:#66cef5;stop-opacity:1"
         offset="1" />
    </linearGradient>
  </defs>
  <metadata
     id="metadata19353">
    <rdf:RDF>
      <cc:Work
         rdf:about="">
        <dc:format>image/svg+xml</dc:format>
        <dc:type
           rdf:resource="http://purl.org/dc/dcmitype/StillImage" />
        <dc:title></dc:title>
      </cc:Work>
    </rdf:RDF>
  </metadata>
  <g
     transform="translate(-49.999959,-437.9237)"
     id="layer1">
    <g
       transform="matrix(7.7225047,0,0,-7.7225047,-1944.8929,4215.3946)"
       id="g7922">
      <g
         id="g7924">
        <g
           id="g7930">
          <g
             id="g7932">
            <path
               d="m 278.216,486.013 c 1.004,-0.035 2.125,-0.103 3.176,-0.216 l 0,0 c 3.702,-0.395 4.392,-1.197 4.84,-4.752 l 0,0 c 0.187,-1.483 0.242,-3.054 0.242,-4.125 l 0,0 c 0,-1.067 -0.055,-2.642 -0.242,-4.119 l 0,0 c -0.448,-3.554 -1.138,-4.356 -4.84,-4.752 l 0,0 c -1.051,-0.113 -2.172,-0.18 -3.176,-0.216 l 0,0 0,-3.14 c 2.119,0.035 4.73,0.129 7.142,0.321 l 0,0 c 6.639,0.531 7.877,1.61 8.682,6.376 l 0,0 c 0.335,1.987 0.434,4.098 0.434,5.533 l 0,0 c 0,1.435 -0.099,3.546 -0.434,5.532 l 0,0 c -0.805,4.767 -2.043,5.844 -8.682,6.376 l 0,0 c -2.412,0.192 -5.023,0.286 -7.142,0.32 l 0,0 0,-3.138 z m -10.778,2.818 c -6.639,-0.532 -7.877,-1.609 -8.683,-6.376 l 0,0 c -0.335,-1.986 -0.433,-4.097 -0.433,-5.532 l 0,0 c 0,-1.435 0.098,-3.546 0.433,-5.533 l 0,0 c 0.806,-4.766 2.044,-5.845 8.683,-6.376 l 0,0 c 2.412,-0.192 5.023,-0.286 7.142,-0.321 l 0,0 0,3.14 c -1.004,0.036 -2.126,0.103 -3.178,0.216 l 0,0 c -3.701,0.396 -4.392,1.198 -4.839,4.752 l 0,0 c -0.187,1.477 -0.242,3.052 -0.242,4.119 l 0,0 c 0,1.071 0.055,2.642 0.242,4.125 l 0,0 c 0.447,3.555 1.138,4.357 4.839,4.752 l 0,0 c 1.052,0.113 2.174,0.181 3.178,0.216 l 0,0 0,3.138 c -2.119,-0.034 -4.73,-0.128 -7.142,-0.32 m 33.728,-3.289 1.486,-3.822 c 1.729,0.971 3.579,1.668 5.339,1.668 l 0,0 c 1.667,0 3.063,-0.637 3.063,-1.971 l 0,0 c 0,-4.278 -9.736,-4.187 -9.736,-12.315 l 0,0 c 0,-0.546 0.03,-1.123 0.121,-1.729 l 0,0 15.378,0 0,4.095 -9.494,0 c 0.759,2.578 9.555,4.004 9.555,10.434 l 0,0 c 0,4.246 -3.762,6.006 -8.008,6.006 l 0,0 c -2.881,0 -5.521,-0.941 -7.704,-2.366 m 26.086,1.911 -9.161,-11.799 0,-4.095 9.949,0 0,-4.186 5.612,0 0,4.186 2.365,0 0,4.095 -2.365,0 0,11.799 -6.4,0 z m -3.61,-11.678 4.277,6.249 0.121,0 0,-6.37 -4.398,0 0,0.121 z"
               id="path7940"
               style="fill:url(#linearGradient7934);stroke:none" />
          </g>
        </g>
      </g>
    </g>
  </g>
</svg>
