<svg xmlns="http://www.w3.org/2000/svg" viewBox="0 0 600 188.88"><defs><linearGradient y1="464.69" x2="0" y2="489.15" id="0" gradientUnits="userSpaceOnUse"><stop stop-color="#254aa5"/><stop offset="1" stop-color="#66cef5"/></linearGradient></defs><path d="m278.22 486.01c1-.035 2.125-.103 3.176-.216 3.702-.395 4.392-1.197 4.84-4.752.187-1.483.242-3.054.242-4.125 0-1.067-.055-2.642-.242-4.119-.448-3.554-1.138-4.356-4.84-4.752-1.051-.113-2.172-.18-3.176-.216v-3.14c2.119.035 4.73.129 7.142.321 6.639.531 7.877 1.61 8.682 6.376.335 1.987.434 4.098.434 5.533 0 1.435-.099 3.546-.434 5.532-.805 4.767-2.043 5.844-8.682 6.376-2.412.192-5.02.286-7.142.32v-3.138m-10.778 2.818c-6.639-.532-7.877-1.609-8.683-6.376-.335-1.986-.433-4.097-.433-5.532 0-1.435.098-3.546.433-5.533.806-4.766 2.044-5.845 8.683-6.376 2.412-.192 5.02-.286 7.142-.321v3.14c-1 .036-2.126.103-3.178.216-3.701.396-4.392 1.198-4.839 4.752-.187 1.477-.242 3.052-.242 4.119 0 1.071.055 2.642.242 4.125.447 3.555 1.138 4.357 4.839 4.752 1.052.113 2.174.181 3.178.216v3.138c-2.119-.034-4.73-.128-7.142-.32m33.728-3.289l1.486-3.822c1.729.971 3.579 1.668 5.339 1.668 1.667 0 3.063-.637 3.063-1.971 0-4.278-9.736-4.187-9.736-12.315 0-.546.03-1.123.121-1.729h15.378v4.095h-9.494c.759 2.578 9.555 4 9.555 10.434 0 4.246-3.762 6.01-8.01 6.01-2.881 0-5.521-.941-7.704-2.366m26.09 1.911l-9.161-11.799v-4.095h9.949v-4.186h5.612v4.186h2.365v4.095h-2.365v11.799h-6.4zm-3.61-11.678l4.277 6.249h.121v-6.37h-4.398v.121" fill="url(#0)" transform="matrix(7.7225 0 0-7.7225-1994.89 3777.47)"/></svg>