<svg xmlns="http://www.w3.org/2000/svg" viewBox="0 0 919.06 250.59"><defs><clipPath id="0"><path d="m166.01 463.81h64.5v25.344h-64.5v-25.344"/></clipPath></defs><g transform="translate(-152.14-449.92)"><g clip-path="url(#0)" transform="matrix(9.88777 0 0-9.88777-1491.01 5286.54)"><path d="m0 0c-2.499.199-5.205.296-7.401.331v-3.252c1.041-.037 2.203-.107 3.292-.223 3.836-.41 4.551-1.241 5.01-4.926.193-1.535.251-3.163.251-4.273 0-1.106-.058-2.737-.251-4.268-.464-3.683-1.179-4.515-5.01-4.925-1.089-.117-2.251-.187-3.292-.224v-3.253c2.196.035 4.902.133 7.401.332 6.88.55 8.163 1.668 8.997 6.607.348 2.058.45 4.247.45 5.733 0 1.487-.102 3.676-.45 5.734-.834 4.939-2.117 6.06-8.997 6.607m-27.567-6.607c-.348-2.058-.45-4.247-.45-5.734 0-1.486.102-3.675.45-5.733.835-4.939 2.118-6.06 8.997-6.607 2.5-.199 5.206-.297 7.402-.332v3.253c-1.042.037-2.203.107-3.293.224-3.835.41-4.551 1.242-5.02 4.925-.194 1.531-.251 3.162-.251 4.268 0 1.11.057 2.738.251 4.273.464 3.685 1.18 4.516 5.02 4.926 1.09.116 2.251.186 3.293.223v3.252c-2.196-.035-4.902-.133-7.402-.331-6.879-.551-8.162-1.668-8.997-6.607m50.33-11.386h9.838v-4.244h-15.936c-.094.629-.125 1.226-.125 1.792 0 8.424 10.09 8.329 10.09 12.761 0 1.383-1.446 2.044-3.175 2.044-1.823 0-3.741-.723-5.532-1.729l-1.541 3.96c2.263 1.478 4.999 2.452 7.984 2.452 4.401 0 8.299-1.824 8.299-6.224 0-6.663-9.116-8.141-9.902-10.812" fill="#f89a0f" transform="translate(194.2 488.82)"/></g><g fill="#f89a0f"><path d="m821.9 467.15h30.754v45.45h45.37v-45.45h30.754v119.26h-30.754v-50.564h-45.37v50.564h-30.754v-119.26"/><path d="m989.73 490.4v72.77h11.02c12.568 0 22.15-3.115 28.757-9.346 6.657-6.231 9.985-15.284 9.985-27.16 0-11.822-3.302-20.822-9.905-26.999-6.604-6.177-16.216-9.266-28.837-9.266h-11.02m-30.754-23.24h32.431c18.11 0 31.579 1.305 40.42 3.914 8.893 2.556 16.508 6.923 22.846 13.1 5.591 5.379 9.745 11.583 12.461 18.612 2.716 7.03 4.074 14.991 4.074 23.884 0 9-1.358 17.04-4.074 24.12-2.716 7.03-6.87 13.233-12.461 18.612-6.39 6.177-14.06 10.571-23.01 13.18-8.947 2.556-22.366 3.834-40.26 3.834h-32.431v-119.26"/></g></g></svg>