<svg xmlns="http://www.w3.org/2000/svg" viewBox="0 0 600 188.03"><g transform="translate(95.7 372)" fill="#a9a9a8"><path d="m-92.35-320.53c-2.582 15.266-3.342 31.494-3.342 42.532s.759 27.27 3.342 42.532c6.203 36.633 15.722 44.937 66.759 49.01 18.532 1.494 38.608 2.202 54.886 2.481v-24.15c-7.721-.278-16.329-.785-24.405-1.646-28.456-3.038-33.772-9.215-37.22-36.557-1.443-11.342-1.873-23.443-1.873-31.646 0-8.228.43-20.329 1.873-31.722 3.443-27.316 8.759-33.494 37.22-36.532 8.08-.861 16.684-1.367 24.405-1.646v-24.13c-16.278.253-36.35.987-54.886 2.456-51.04 4.076-60.56 12.354-66.759 49.01"/><path d="m112.16-369.55c-18.532-1.468-38.608-2.202-54.886-2.456v24.13c7.696.278 16.329.785 24.405 1.646 28.456 3.038 33.772 9.215 37.22 36.557 1.418 11.392 1.848 23.468 1.848 31.696 0 8.202-.43 20.304-1.848 31.671-3.443 27.316-8.76 33.494-37.22 36.532-8.08.861-16.709 1.392-24.405 1.671v24.13c16.278-.253 36.35-.987 54.886-2.456 51.04-4.101 60.56-12.38 66.759-49.04 2.557-15.266 3.316-31.494 3.316-42.532 0-11.01-.759-27.27-3.316-42.532-6.202-36.633-15.722-44.911-66.759-49.01"/><path d="m501.72-255.45c-15.19 2.582-21.468.38-21.468-7.949v-41.468h22.2v-24.08h-22.2v-23.671h-29.62l-3.696 23.671-14.81 1.873v22.2h14.81v45.17c0 34.608 30.911 36.835 57.37 27.772l-2.582-23.519"/><path d="m383.38-314.3l-2.405-14.633h-31.468v98.86h33.32v-55.899c9.823-12.785 19.24-16.861 37.772-14.633l2.582-30.734c-18.15-1.646-33.873 6.127-39.797 17.04"/><path d="m281.84-331.7c-15.924 0-32.759 3.696-44.23 10.177l2.582 23.316c13.519-5.165 27.01-6.658 36.1-6.658 10.734 0 17.215 3.342 17.215 11.11v3.139c-31.11-7.04-62.38 2.051-62.38 32.582 0 18.13 13.873 30.709 31.646 30.709 12.582 0 22.582-3.696 30.734-10.911l1.848 8.152h31.468v-67.01c0-25.899-21.468-34.608-44.987-34.608m11.671 72.56c-3.519 4.253-10.557 7.949-16.304 7.949-6.658 0-11.848-3.139-11.848-9.06 0-9.06 9.443-13.873 28.15-9.443v10.557z"/></g></svg>