<svg xmlns="http://www.w3.org/2000/svg" viewBox="0 0 600 135.49"><defs><clipPath id="0"><path d="m193.05 251.4h95.24v22.24h-95.24v-22.24"/></clipPath></defs><g transform="translate(-50-464.62)"><g clip-path="url(#0)" transform="matrix(6.40889 0 0-6.40889-1187.24 2214.84)"><path d="m0 0c0-1.24-.085-3.066-.375-4.782-.696-4.12-1.766-5.05-7.505-5.512-2.085-.166-4.342-.248-6.173-.277v2.714c.867.031 1.837.089 2.745.187 3.2.342 3.797 1.036 4.183 4.108.162 1.277.21 2.637.21 3.56 0 .926-.048 2.284-.21 3.565-.386 3.073-.983 3.767-4.183 4.109-.908.096-1.878.155-2.745.186v2.712c1.831-.029 4.088-.11 6.173-.276 5.739-.46 6.809-1.391 7.505-5.512.29-1.716.375-3.542.375-4.782m-23.37 10.294c2.085.165 4.342.247 6.174.276v-2.712c-.869-.031-1.838-.09-2.747-.186-3.199-.342-3.796-1.036-4.183-4.109-.162-1.281-.21-2.639-.21-3.565 0-.923.048-2.283.21-3.56.387-3.072.984-3.766 4.183-4.108.909-.098 1.878-.156 2.747-.187v-2.714c-1.832.029-4.089.111-6.174.277-5.738.459-6.809 1.392-7.505 5.512-.29 1.716-.375 3.542-.375 4.782 0 1.24.085 3.066.375 4.782.696 4.121 1.767 5.05 7.505 5.512m35.09-12.554c0-.499-.354-.707-1.415-.707-1.249 0-2.601.145-4.391.645l-.291-2.518c1.332-.562 3.142-.853 4.849-.853 2.642 0 4.973.999 4.973 3.558 0 4.62-6.201 3.413-6.201 4.745 0 .416.187.707 1.415.707.832 0 2.185-.146 3.974-.645l.291 2.518c-1.331.562-2.934.853-4.432.853-2.642 0-4.973-.853-4.973-3.558 0-4.62 6.201-3.413 6.201-4.745m5.577-7.05h3.745v4.328c.937-.499 1.894-.707 3.02-.707 2.538 0 5.264 1.914 5.264 5.868 0 3.954-2.496 5.868-5.056 5.868-1.124 0-2.289-.416-3.226-1.228l-.208.916h-3.537v-15.04zm3.745 11.778c.583.354 1.228.541 1.832.541 1.331 0 2.497-.854 2.497-2.83 0-1.977-1.166-2.83-2.497-2.83-.604 0-1.249.187-1.832.541v4.578m9.626-2.289c0-3.413 2.393-5.868 6.222-5.868 3.829 0 6.222 2.455 6.222 5.868 0 3.412-2.393 5.868-6.222 5.868-3.829 0-6.222-2.456-6.222-5.868m3.954 0c0 1.727.957 2.955 2.268 2.955 1.311 0 2.268-1.228 2.268-2.955 0-1.727-.957-2.955-2.268-2.955-1.311 0-2.268 1.228-2.268 2.955m18.776 5.826c-2.04.188-3.808-.686-4.474-1.914l-.271 1.644h-3.537v-11.11h3.746v6.284c1.102 1.436 2.163 1.894 4.244 1.644l.292 3.454zm6.267-.27v2.663h-3.329l-.416-2.663-1.665-.208v-2.497h1.665v-5.078c0-3.891 3.475-4.141 6.45-3.121l-.291 2.643c-1.706-.292-2.414-.042-2.414.895v4.661h2.498v2.705h-2.498" fill="#8ad03a" transform="translate(224.3 262.52)"/></g></g></svg>