<svg xmlns="http://www.w3.org/2000/svg" viewBox="0 0 385.76 85.38"><g fill="#f00"><path d="m65.42 34.99l-14.609 4.475c-.618-3.518-5.752-7.464-7.937-9.244-2.185-1.78-5.02-2.67-8.508-2.67-4.635 0-8.332 1.537-11.09 4.61-2.759 3.073-4.138 8.213-4.138 15.418 0 8.01 1.401 13.67 4.205 16.976 2.803 3.306 6.566 4.959 11.289 4.959 3.531 0 6.423-.964 8.674-2.893 2.251-1.929 3.84-5.245 4.767-9.95l18.275 2.988c-1.898 8.05-5.54 14.14-10.925 18.248-5.385 4.112-12.603 6.167-21.652 6.167-10.285 0-18.484-3.115-24.598-9.346-6.114-6.231-9.17-14.857-9.17-25.877 0-11.148 3.068-19.827 9.204-26.04 6.136-6.21 14.434-9.315 24.896-9.315 8.563 0 15.372 1.77 20.427 5.309 5.05 3.539 8.685 8.933 10.892 16.181"/><path d="m157.47 35.645l-15.878.171c.544-6.892 2.635-14.89 8.768-17.683 5.135-2.338 11.562-4.729 20.732-4.729 8.328 0 14.53.948 18.606 2.844 4.075 1.896 6.944 4.303 8.605 7.222 1.661 2.919 2.492 8.277 2.492 16.07l-.199 20.963c0 5.965-.078 19.531.52 22.364l-16.873-.059c-.198-4.997.496-7.01-.174-7.06-.852-.063-3.943 3.409-10.386 6.354-3.633 1.491-7.509 2.237-11.629 2.237-7.265 0-12.991-1.896-17.18-5.688-4.186-3.792-6.279-8.585-6.279-14.38 0-3.835.952-7.254 2.857-10.258 1.905-3 4.574-5.305 8.01-6.902 3.433-1.598 10.516-4.784 16.984-5.977 8.727-1.576 12.641-1.255 16.01-2.619v-1.79c0-3.451-.886-5.912-2.658-7.382-1.772-1.47-5.117-2.205-10.03-2.205-3.322 0-5.914.629-7.774 1.885-1.861 1.257-3.367 3.462-4.519 6.615m24.985 14.572c-2.392.767-6.18 1.683-11.363 2.748-5.183 1.065-8.572 2.109-10.167 3.132-2.436 1.662-3.655 3.771-3.655 6.327 0 2.514.975 4.687 2.924 6.519 1.949 1.832 4.43 2.748 7.442 2.748 3.367 0 6.578-1.065 9.635-3.196 2.259-1.619 3.743-3.6 4.452-5.944.487-1.534.731-4.452.731-8.756v-3.579"/><path d="m240.74 15.654v14.819h-12.677v26.21c0 5.308.121 8.401.363 9.279.242.878.792 1.603 1.651 2.174.858.572 1.904.857 3.136.857 1.717 0 4.204-.551 7.461-1.654l1.585 13.352c-4.314 1.715-9.199 2.572-14.657 2.572-3.345 0-6.36-.521-9.05-1.562-2.685-1.041-4.655-2.389-5.909-4.04-1.254-1.654-2.124-3.889-2.608-6.707-.396-2-.594-6.04-.594-12.13v-28.357-29.759l16.546-.328.189 15.268h14.562"/><path d="m248.84 16.16l.533 67.15h16.527v-38.11c0 0 2.133-14.519 21.06-14.519l.533-16.334c0 0-16.527.259-21.592 10.63l-.267-9.07-16.794.259" fill-rule="evenodd"/><path d="m360.27 49.603c0 19.75-16.481 35.778-36.787 35.778-20.306 0-36.787-16.03-36.787-35.778 0-19.75 16.481-35.778 36.787-35.778 20.306 0 36.787 16.03 36.787 35.778"/><path d="m385.76 12.679c0 6.999-5.587 12.679-12.471 12.679-6.884 0-12.471-5.68-12.471-12.679 0-6.999 5.587-12.679 12.471-12.679 6.884 0 12.471 5.68 12.471 12.679"/><path d="m95.13 84.7c-7.636-1.207-14.13-4.819-18.1-10.07-3.044-4.02-4.911-8.951-5.833-15.389-.237-1.654-.441-10.384-.538-23.05l-.157-20.387h8.818 8.818l.162 20.22c.129 16.07.264 20.736.659 22.733 1.398 7.07 5.615 10.645 12.616 10.681 6.541.034 10.736-2.739 12.66-8.368.729-2.133.741-2.468.853-23.715l.114-21.552h8.801 8.801v17.789c0 18.474-.255 24.02-1.364 29.641-1.411 7.156-5.442 13.149-11.547 17.17-2.62 1.725-4.807 2.649-8.723 3.686-2.854.755-12.737 1.13-16.04.608"/></g></svg>