<svg xmlns="http://www.w3.org/2000/svg" viewBox="0 0 582.04 250.26"><defs><clipPath><path d="m166.01 463.81h64.5v25.344h-64.5v-25.344"/></clipPath></defs><g transform="translate(7497.88 19379.11)"><g fill="#969696"><path d="m-7429.38-19352.72v46.777h-68.5v100.24l36.753 36.754h68.49v-183.77zm-31.742 81.86h33.412v68.49h-33.412z"/><path d="m-7382.61-19305.94v35.08h68.49v10.02h-68.49v91.88h100.24v-136.99zm33.412 73.51h35.08v30.07h-35.08z"/><path d="m-7272.35-19352.72v36.754h36.753v-36.753zm0 46.777v140.33l36.753 36.754v-177.08z"/><path d="m-7225.57-19352.72v183.77h71.836v-33.413h-35.08v-66.824h35.08v-36.754h-35.08v-46.777z"/><path d="m-7143.71-19305.94v136.99h100.24v-103.58l-33.412-33.413zm33.412 36.754h33.412v66.824h-33.412z"/></g><path d="m-7062.85-19379.11v73.17l36.753 36.754h110.26v-74.77l-39.761-35.15zm36.771 19.594l-.017 30.19h18.377l.017-30.19h11.694v68.759h-11.694l-.017-26.875h-18.377l.017 26.875h-11.694v-68.759zm43.44 0h30.07l11.694 10.358v48.04l-10.02 10.358h-31.742zm11.677 11.884v45.04h15.04l3.341-3.342v-38.35l-3.341-3.341z" fill="#ffc500"/></g></svg>