<?xml version="1.0" encoding="UTF-8" standalone="no"?>
<svg
   xmlns:dc="http://purl.org/dc/elements/1.1/"
   xmlns:cc="http://creativecommons.org/ns#"
   xmlns:rdf="http://www.w3.org/1999/02/22-rdf-syntax-ns#"
   xmlns:svg="http://www.w3.org/2000/svg"
   xmlns="http://www.w3.org/2000/svg"
   version="1.1"
   id="svg2"
   height="250.25787"
   width="582.04102">
  <defs
     id="defs3">
    <clipPath
       id="clipPath7914">
      <path
         d="m 166.009,463.807 64.501,0 0,25.344 -64.501,0 0,-25.344 z"
         id="path7916" />
    </clipPath>
  </defs>
  <metadata
     id="metadata6">
    <rdf:RDF>
      <cc:Work
         rdf:about="">
        <dc:format>image/svg+xml</dc:format>
        <dc:type
           rdf:resource="http://purl.org/dc/dcmitype/StillImage" />
        <dc:title></dc:title>
      </cc:Work>
    </rdf:RDF>
  </metadata>
  <g
     transform="translate(7497.8777,19379.111)"
     id="layer1">
    <path
       id="path3644"
       d="m -7429.3826,-19352.716 0,46.777 -68.4951,0 0,100.237 36.7535,36.754 68.495,0 0,-183.768 z m -31.7416,81.861 33.4122,0 0,68.494 -33.4122,0 z"
       style="fill:#969696;fill-opacity:1;stroke:none" />
    <path
       id="path3654"
       d="m -7382.6055,-19305.939 0,35.084 68.495,0 0,10.023 -68.495,0 0,91.884 100.2367,0 0,-136.991 z m 33.4122,73.508 35.0828,0 0,30.07 -35.0828,0 z"
       style="fill:#969696;fill-opacity:1;stroke:none" />
    <path
       id="path3660"
       d="m -7272.3452,-19352.716 0,36.754 36.7535,0 0,-36.753 z m 0,46.777 0,140.332 36.7535,36.754 0,-177.085 z"
       style="fill:#969696;fill-opacity:1;stroke:none" />
    <path
       id="path3664"
       d="m -7225.5681,-19352.716 0,183.768 71.8363,0 0,-33.413 -35.0828,0 0,-66.824 35.0828,0 0,-36.754 -35.0828,0 0,-46.777 z"
       style="fill:#969696;fill-opacity:1;stroke:none" />
    <path
       id="path3666"
       d="m -7143.7081,-19305.939 0,136.991 100.2367,0 0,-103.578 -33.4122,-33.413 z m 33.4122,36.754 33.4123,0 0,66.824 -33.4123,0 z"
       style="fill:#969696;fill-opacity:1;stroke:none" />
    <path
       id="path3670"
       d="m -7062.8506,-19379.111 2e-4,73.172 36.7534,36.754 110.2603,0 0,-74.773 -39.7605,-35.153 z m 36.7706,19.594 -0.017,30.19 18.3767,0 0.017,-30.19 11.6943,0 0,68.759 -11.6943,0 -0.017,-26.875 -18.3767,0 0.017,26.875 -11.6943,0 0,-68.759 z m 43.4359,0 30.071,0 11.6942,10.358 0,48.043 -10.0236,10.358 -31.7416,0 z m 11.6773,11.884 0,45.036 15.0355,0 3.3412,-3.342 0,-38.353 -3.3412,-3.341 z"
       style="fill:#ffc500;fill-opacity:1;stroke:none" />
  </g>
</svg>
