<svg xmlns="http://www.w3.org/2000/svg" viewBox="0 0 600 229.28"><g transform="translate(563.33-133.17)"><g fill="#e31d2a"><path d="m-491.11 142.76c2.734 1.331 4.585 4.071 5.625 8.281s1.594 9.189 1.594 14.875c0 4.815-.207 9.798-.594 15-.387 5.202-.829 9.943-1.313 14.25-.484 4.331-1.101 9.286-1.875 14.875-1.21-.774-2.731-1.472-4.594-2.125-1.524-.556-3.56-1.065-6.125-1.5s-5.586-.656-9.09-.656c-4.573 0-9.163 1.104-13.688 3.281-4.524 2.178-8.863 5.097-13 8.75-4.161 3.653-7.999 7.904-11.531 12.719-3.557 4.791-6.644 9.826-9.281 15.12-2.613 5.274-4.673 10.598-6.125 15.969-1.476 5.347-2.219 10.369-2.219 15.06 0 2.516.154 4.92.469 7.219.339 2.298 1.022 4.31 2.063 6.125 1.04 1.79 2.561 3.255 4.594 4.344 2.01 1.089 4.738 1.656 8.125 1.656 3.266 0 6.546-.774 9.813-2.25 3.29-1.476 6.427-3.431 9.5-5.875 3.048-2.468 6.02-5.268 8.875-8.438 2.831-3.17 5.47-6.397 7.938-9.688 2.444-3.266 4.679-6.487 6.688-9.656 2.032-3.145 3.76-5.98 5.188-8.375 4.573-7.984 7.734-14.387 9.5-19.25 1.742-4.863 2.625-7.407 2.625-7.625l-8.531 59.03c1.742 1.185 3.477 2.258 5.219 3.25 1.548.871 3.115 1.659 4.688 2.313 1.597.653 2.978.969 4.188.969.871 0 1.695-.301 2.469-.906.75-.581 1.125-1.281 1.125-2.031 0-2.516-.014-4.465-.063-5.844-.073-1.355-.16-2.693-.281-4-.097-1.307-.146-2.82-.219-4.563-.048-1.766-.094-4.332-.094-7.719 0-1.645.045-3.558.094-5.688.073-2.129.143-4.583.313-7.438.169-2.831.366-6.05.656-9.656.266-3.605.592-7.775.906-12.469.992-11.807 1.931-22.05 2.875-30.812.919-8.734 1.722-16.08 2.375-22.03.653-5.952 1.221-10.623 1.656-13.938.435-3.339.656-5.441.656-6.313v-1.469c0-.435-.091-.877-.188-1.313-.121-.992-1.039-2.071-2.781-3.281-1.742-1.185-3.809-2.363-6.156-3.5-2.371-1.161-4.67-2.17-6.969-2.969-2.298-.823-4-1.38-5.094-1.719m-9.03 70.53c2.298 0 4.328.161 6.094.5 1.742.315 2.594.756 2.594 1.313-.121 1.863-1.039 4.943-2.781 9.25-1.742 4.331-4.04 9.213-6.875 14.656-2.831 5.468-6.097 11.128-9.75 17.03-3.653 5.879-7.47 11.286-11.438 16.12-3.992 4.863-8.04 8.862-12.12 12.03-4.089 3.17-7.926 4.75-11.531 4.75-1.089 0-2.112-.816-3.03-2.438-.944-1.645-1.375-4.365-1.375-8.188 0-3.702.69-7.931 2.094-12.625 1.428-4.694 3.355-9.435 5.75-14.25 2.395-4.791 5.234-9.465 8.5-14.06 3.266-4.573 6.798-8.662 10.5-12.219 3.702-3.557 7.539-6.385 11.531-8.563 3.968-2.178 7.924-3.313 11.844-3.313"/><path d="m-416.9 189.67c1.428.75 2.346 1.808 2.781 3.188.435 1.355.656 2.82.656 4.344 0 2.516-.256 4.598-.813 6.219-.218-.097-.659-.377-1.313-.813-.653-.435-1.456-.901-2.375-1.313-.919-.46-1.911-.818-3-1.156-1.113-.339-2.133-.469-3.125-.469-3.702 0-7.35 1.037-10.906 3.094-3.557 2.081-6.924 4.881-10.09 8.438-3.145 3.557-6.079 7.657-8.813 12.375-2.734 4.694-5.072 9.642-7.03 14.844-1.984 5.178-3.536 10.434-4.625 15.781s-1.625 10.459-1.625 15.25c0 3.17.28 6.155.813 8.938.556 2.782 1.394 5.246 2.531 7.375 1.161 2.129 2.609 3.836 4.375 5.094 1.742 1.258 3.859 1.875 6.375 1.875 2.274 0 5.077-1.391 8.344-4.125 3.266-2.71 6.627-6.351 10.06-10.875 3.46-4.524 6.803-9.672 10.09-15.406 3.266-5.734 6.01-11.534 8.188-17.438-.435 1.863-.912 4.01-1.469 6.531-.532 2.516-1.065 5.267-1.5 8.219-.435 2.952-.81 5.966-1.125 9.06-.339 3.121-.5 6.142-.5 9.09 0 5.25.501 9.455 1.469 12.625.992 3.17 2.383 5.654 4.125 7.469 1.766 1.79 3.845 3.094 6.313 3.844 2.468.774 5.204 1.377 8.156 1.813-1.331-.774-2.417-1.854-3.313-3.281-.871-1.428-1.614-3.043-2.219-4.906-.605-1.863-1.046-3.871-1.313-6-.29-2.129-.466-4.291-.563-6.469 0-4.355.221-9.187.656-14.438.435-5.226.972-10.573 1.625-15.969.653-5.42 1.396-10.764 2.219-16.06.823-5.299 1.597-10.216 2.25-14.812.677-4.573 1.197-8.631 1.656-12.188.435-3.557.656-6.322.656-8.281 0-1.21-.06-2.1-.156-2.656-.339-1.403-1.162-2.602-2.469-3.594-1.307-.968-2.904-1.798-4.719-2.5-1.815-.726-3.637-1.29-5.5-1.75-1.863-.436-3.475-.751-4.781-.969m2.188 15.688c.218 0 .403.42.5 1.219.121.823.156 1.691.156 2.563 0 4.573-.788 9.64-2.313 15.16-1.524 5.541-3.434 11.127-5.781 16.812-2.347 5.686-5.02 11.184-7.969 16.531-2.952 5.371-5.847 10.12-8.75 14.281-2.879 4.161-5.542 7.484-7.938 10s-4.322 3.781-5.75 3.781c-1.524 0-2.281-3.192-2.281-9.531 0-11.03 1.559-20.929 4.656-29.688 3.121-8.734 6.818-16.16 11.125-22.281 4.331-6.121 8.733-10.789 13.281-14.03 4.524-3.218 8.207-4.813 11.06-4.813z"/><path d="m-337.16 191.7c2.395 0 4.428.435 6.05 1.306 1.645.871 3 1.984 4.02 3.363 1.04 1.355 1.79 2.879 2.226 4.573s.653 3.363.653 4.984c0 1.742-.29 3.508-.895 5.25-.605 1.742-1.5 3.315-2.71 4.718-1.185 1.428-2.637 2.589-4.307 3.46-1.694.871-3.581 1.306-5.637 1.306h-2.492c-.435 0-.944-.073-1.5-.169 2.081-.871 3.46-2.807 4.113-5.807.653-3.02.992-6.363.992-10.09 0-2.734-.46-4.645-1.403-5.734-.919-1.089-1.718-1.621-2.371-1.621-1.428 0-3.121.774-5.081 2.347-1.96 1.597-3.895 3.436-5.807 5.492-1.911 2.081-3.605 4.04-5.081 5.904-1.476 1.863-2.371 3.121-2.71 3.774-3.048 5.03-5.541 10.258-7.452 15.726-1.911 5.468-3.436 10.791-4.573 15.968-1.161 5.202-1.96 9.968-2.371 14.347-.46 4.355-.677 8.03-.677 10.96v2.298c0 1.645.073 3.508.169 5.565.121 2.081.363 4.186.75 6.315.363 2.129.992 4.137 1.863 5.976.871 1.863 2.153 3.387 3.774 4.597-.315 0-1.04-.145-2.129-.411-1.089-.29-2.298-.629-3.605-1.065-1.307-.435-2.54-.871-3.702-1.307-1.137-.435-1.936-.774-2.371-.992-2.855-1.621-4.887-3.629-6.097-5.976-1.185-2.347-1.79-5.153-1.79-8.444 0-5.661.145-11.202.484-16.622.339-5.42.702-10.767 1.137-16.04.436-5.299.823-10.573 1.161-15.823.315-5.226.484-10.646.484-16.21 0-3.726-.677-7.21-2.032-10.5-1.379-3.266-3.75-5.516-7.137-6.726h.339c.532.121 1.863.46 3.992.992 2.129.556 4.428 1.282 6.895 2.226 2.468.919 4.815 2.032 7.04 3.339 2.25 1.306 3.798 2.807 4.67 4.428.339 1.645.532 3.266.581 4.839.048 1.597.097 3.194.097 4.839v1.234c0 .363-.073.847-.169 1.379.871-1.742 2.395-4.161 4.573-7.283 2.202-3.097 4.791-6.194 7.791-9.218 3-3.073 6.266-5.734 9.75-8.03 3.508-2.298 6.992-3.436 10.5-3.436"/><path d="m-312.63 300.04c-1.307-.532-2.371-1.04-3.194-1.476-.823-.435-1.573-.847-2.274-1.234-.726-.363-1.234-.677-1.573-.895-.435-.315-1.04-.895-1.79-1.718-.75-.823-1.5-2.202-2.202-4.186-.702-1.96-1.331-4.645-1.887-8.105-.556-3.436-.823-7.984-.823-13.67 0-5.347.194-9.871.581-13.525.387-3.653.798-7.04 1.234-10.162.435-3.097.847-6.194 1.234-9.242.363-3.073.556-6.605.556-10.67 0-1.282-.073-2.371-.242-3.194-.169-.798-.508-1.21-1.065-1.21 2.928 0 5.42.315 7.428.968 2.032.677 3.629 1.428 4.839 2.298s2.081 1.863 2.613 2.952c.556 1.089.823 2.081.823 2.952 0 1.089-.097 2.129-.339 3.121-.194.968-.435 1.742-.629 2.274-2.202 9.508-3.726 18.218-4.597 26.13-.871 7.936-1.307 14.783-1.307 20.565 0 4.911.242 8.904.726 11.976.508 3.048 1.137 5.081 1.887 6.05"/><path d="m-312.46 201.59c0-1.089.169-2.371.484-3.847.339-1.476.798-2.903 1.403-4.258.605-1.379 1.258-2.516 1.96-3.46.702-.919 1.452-1.379 2.226-1.379 1.185 0 2.516.242 3.992.75 1.476.484 2.879 1.089 4.186 1.79 1.307.702 2.42 1.476 3.291 2.298.871.823 1.307 1.548 1.307 2.202 0 .556-.169 1.5-.508 2.879-.315 1.355-.774 2.758-1.379 4.161-.605 1.428-1.258 2.661-1.96 3.702-.726 1.04-1.403 1.548-2.057 1.548-.992 0-2.178-.218-3.605-.653s-2.831-.992-4.258-1.645c-1.428-.653-2.613-1.331-3.605-2.032-.992-.726-1.476-1.403-1.476-2.056"/><path d="m-290.37 268.85c0-9.605-.339-17.565-.992-23.856-.653-6.266-1.428-11.299-2.371-15.05-.919-3.774-1.863-6.557-2.782-8.371-.919-1.79-1.669-3.02-2.202-3.678 5.347.871 9.508 2.419 12.46 4.67 2.952 2.226 4.815 5.323 5.589 9.267.315 1.524.581 3.29.823 5.323.218 2.01.435 4.04.653 6.05.218 2.01.363 3.871.484 5.565.121 1.694.169 2.928.169 3.702 1.863-6.895 4.02-12.823 6.46-17.783 2.468-4.984 5.03-9.1 7.718-12.388 2.661-3.266 5.395-5.71 8.178-7.307 2.782-1.597 5.492-2.395 8.105-2.395 2.419 0 4.742.532 6.968 1.573 2.226 1.04 4.234 2.807 5.976 5.274s3.145 5.758 4.186 9.847c1.04 4.089 1.548 9.145 1.548 15.15 0 3.823-.121 7.791-.315 11.88-.242 4.113-.508 8.03-.847 11.807-.315 3.774-.677 7.162-1.065 10.234-.387 3.048-.726 5.347-1.065 6.871-.992 0-2.178-.097-3.605-.315-1.428-.218-2.831-.556-4.186-.992-1.379-.435-2.661-.944-3.871-1.548-1.185-.605-2.081-1.282-2.613-2.057.75-6.121 1.548-12.1 2.371-17.928.823-5.855 1.234-12.484 1.234-19.912 0-7.96-.484-13.791-1.403-17.444-.919-3.653-2.637-5.492-5.153-5.492-2.613 0-5.516 1.694-8.734 5.081-3.218 3.387-6.266 8.129-9.17 14.226-2.879 6.121-5.299 13.549-7.258 22.283-1.984 8.71-2.952 18.364-2.952 28.961 0 .484-.387.702-1.113.702-.992 0-2.129-.218-3.387-.653-1.282-.435-2.54-.944-3.798-1.548-1.258-.605-2.42-1.258-3.46-1.96-1.04-.702-1.839-1.403-2.371-2.057.435-1.307.75-2.758.968-4.331.218-1.597.387-3.145.484-4.67.121-1.548.218-2.903.266-4.113.048-1.185.073-2.057.073-2.613"/><path d="m-166.33 185.29c.895.435 1.579 1.553 2.063 3.344.508 1.815.859 3.711 1.125 5.719.29 2.01.473 4.671.594 7.938-1.524-.653-3.01-1.249-4.438-1.781-1.306-.556-2.68-1.019-4.156-1.406-1.476-.387-2.881-.594-4.188-.594-5.444 0-10.7 1.951-15.781 5.75-5.081 3.823-9.588 8.985-13.531 15.469-3.919 6.508-7.06 14.04-9.406 22.625-2.347 8.565-3.531 17.585-3.531 27.09 0 4.694.522 8.517 1.563 11.469 1.04 2.952 2.284 5.275 3.688 6.969 1.428 1.669 2.903 2.833 4.5 3.438 1.573.581 2.883.906 3.875.906 2.395 0 4.953-.988 7.688-2.875 2.734-1.936 5.513-4.424 8.344-7.594 2.855-3.17 5.641-6.817 8.375-10.906 2.71-4.113 5.257-8.332 7.531-12.688 2.298-4.379 4.23-8.725 5.875-13.03 1.645-4.331 2.851-8.27 3.625-11.875 0 .218.035 1.462.156 3.688.097 2.25.156 5.271.156 9.09 0 1.428-.105 4.102-.25 8.094-.169 3.992-.471 8.8-.906 14.438-.435 5.613-1.084 11.753-1.906 18.406-.798 6.654-1.874 13.396-3.156 20.22-1.331 6.823-2.932 13.411-4.844 19.75-1.911 6.315-4.154 11.932-6.719 16.844-2.565 4.911-5.55 8.829-8.938 11.781-3.387 2.952-7.186 4.438-11.469 4.438-1.185 0-2.349-.221-3.438-.656l-1.313-.656c3.484 2.492 6.957 3.75 10.344 3.75 5.347 0 10.1-1.549 14.312-4.719 4.21-3.17 7.938-7.434 11.156-12.781 3.218-5.347 5.997-11.508 8.344-18.5 2.347-6.992 4.379-14.323 6-21.969 1.645-7.646 2.96-15.341 4-23.16 1.04-7.791 1.85-15.195 2.406-22.19.532-6.992.907-13.314 1.125-19 .218-5.686.313-10.171.313-13.438 0-1.524.066-3.364.188-5.469.097-2.129.125-4.477.125-6.969 0-2.419-.035-4.859-.156-7.375-.097-2.516-.332-4.854-.719-7.03s-.916-4.105-1.594-5.75c-.653-1.645-1.505-2.784-2.594-3.438-.315-.097-1.162-.458-2.469-1.063-1.331-.605-2.68-1.222-4.156-1.875-1.476-.653-2.941-1.235-4.344-1.719-1.428-.484-2.472-.719-3.125-.719h-.344m-4.406 20.999c1.21 0 2.275.095 3.219.313.919.218 1.624.439 2.156.656.653.339 1.256.595 1.813.813 0 5.25-.757 10.794-2.281 16.625-1.524 5.831-3.48 11.596-5.875 17.281-2.395 5.661-5.139 11.08-8.188 16.281-3.048 5.178-6.05 9.691-9 13.562-2.928 3.871-5.7 6.997-8.313 9.344-2.637 2.347-4.761 3.5-6.406 3.5-.532 0-.953-.557-1.219-1.719-.29-1.137-.406-2.476-.406-4 0-7.839.883-16.04 2.625-24.531 1.742-8.517 4.16-16.363 7.281-23.5 3.097-7.162 6.752-13.04 10.938-17.688 4.21-4.621 8.769-6.938 13.656-6.938z"/><path d="m-116.29 288.14l-4.428-10.646c.992-.871 2.081-1.694 3.29-2.468.968-.532 2.081-1.089 3.339-1.621 1.258-.556 2.54-.823 3.871-.823.436 0 .871.411 1.306 1.234.436.823.847 1.839 1.234 3.097.363 1.258.677 2.589.895 3.944.218 1.379.315 2.589.315 3.678l-9.823 3.605"/><path d="m-120.33 257.19c-.677-6.218-1.016-12.605-1.016-19.16 0-7.96.411-15.702 1.234-23.18.823-7.476 1.694-14.831 2.637-22.04.944-7.21 1.815-14.299 2.637-21.291.823-6.992 1.258-14.03 1.258-21.15 0-4.355-.242-8.01-.677-10.984-.436-2.928-1.089-5.01-1.96-6.218.532.121 1.597.508 3.194 1.161 1.573.653 3.557 1.355 5.976 2.129 1.621.871 2.903 1.597 3.823 2.202.919.605 1.645 1.428 2.129 2.468.484 1.04.798 2.371.895 4.02.121 1.621.169 3.919.169 6.871 0 4.258-.605 10.162-1.815 17.686-1.186 7.549-2.54 15.799-3.992 24.751-1.476 8.952-2.807 18.15-4.02 27.606-1.21 9.46-1.815 18.267-1.815 26.445v2.952c0 .992.073 1.911.218 2.782l-8.879 2.952"/></g><path d="m20.747 202.66s-17.589 53.54-20.807 63.32c-3.315-9.726-21.582-63.32-21.582-63.32h-62.954v14.662h20.227v71.64h15.388v-71.64h16.235l20.928 61.962c2.71 7.863 6.17 11.08 11.904 11.08 5.782 0 9.363-3.315 11.904-11.11 0 0 24.678-76.6 24.678-76.6h-15.92"/></g></svg>