<svg xmlns="http://www.w3.org/2000/svg" viewBox="0 0 600 281.41"><g fill="#fff"><g transform="matrix(.50007 0 0 .50007-90.11-39.714)"><path d="m1103.3 190.59v349.25h89.41c162.24 0 187.31-82.54 187.31-175.84 0-84.27-26.292-173.41-187.31-173.41-26.827 0-89.41 0-89.41 0m89.41 75.16s17.46 0 24.937 0c57.18 0 72.969 54.11 72.969 100.84 0 49.63-16.525 101.66-68.69 101.66h-29.22v-202.5z" fill-rule="evenodd"/><path d="m804.81 190.59v349.25h88.22v-146.22h103.78v146.22h88.22v-349.25h-88.22v125.69h-103.78v-125.69h-88.22"/></g><path fill-rule="evenodd" d="m140.72 0c-77.67 0-140.72 63.05-140.72 140.72 0 77.67 63.05 140.69 140.72 140.69 77.67 0 140.69-63.02 140.69-140.69 0-77.67-63.02-140.72-140.69-140.72m55.78 55.53v140.59l-94.87 33.09v-104.56l-47.16 16.5v-34.625l142.03-51z"/></g></svg>