<svg xmlns="http://www.w3.org/2000/svg" viewBox="0 0 600 183.19"><g color="#000"><path d="m0 0v.813 20.16.813h.813 17.42c3.038 0 5.831.534 7.77 1.828s3.098 3.275 3.098 6.602v121.74c0 3.335-1.159 5.31-3.098 6.602-1.939 1.292-4.732 1.828-7.77 1.828h-17.42v.813h-.813v.813 19.35.813h.813 108.63c27.515 0 50.5-7.791 66.58-23.11s25.19-38.13 25.19-68.11c0-29.985-9.112-52.805-25.19-68.05-16.07-15.246-39.06-22.901-66.57-22.901h-108.64-.813zm68.867 21.787h35.398c14.284 0 27.366 3.985 36.922 14.576 9.556 10.591 15.642 27.892 15.642 54.596 0 26.696-6.06 44.04-15.947 54.697s-23.657 14.728-39.31 14.728h-32.707v-138.6z"/><path d="m266.93 46.876c-10.69 0-24.23 1.471-35.25 6.45-11.02 4.979-19.502 13.666-19.502 27.679 0 11.401 8.149 20.67 20.11 20.67 5.335 0 10.216-.952 13.814-3.555 3.598-2.603 5.79-6.879 5.79-13.1 0-5.7-2.026-9.85-5.434-12.29-2.868-2.054-6.761-2.629-10.919-2.438 2.377-2.283 5.691-4.124 9.548-5.282 4.607-1.383 9.579-1.981 13.255-1.981 7.05 0 14.11.818 19.299 3.657 5.192 2.839 8.634 7.534 8.634 15.896 0 9.179-4.74 14.385-12.138 18.08s-17.434 5.705-27.526 8.177c-10.09 2.472-20.262 5.397-27.983 11.07-7.721 5.675-12.9 14.19-12.9 27.425 0 12.266 4.165 21.05 11.07 26.714 6.907 5.662 16.422 8.177 27.02 8.177 16.518 0 33.41-4.657 43.676-18.842 1.382 6.377 4.703 11.09 9.294 14.12 5.01 3.304 11.399 4.723 18.232 4.723 11.427 0 20.391-3.237 26.409-10.36 6.02-7.124 9.04-18.02 9.04-33.16v-8.02-1.27l-1.067.457h-16.963-.813v.813 10.208c0 8.267-.805 13.275-2.031 16.1-1.227 2.824-2.653 3.453-4.418 3.453-1.811 0-3.104-.603-4.063-1.879-.959-1.276-1.524-3.307-1.524-6.145v-65.769c0-11.47-4.03-21.468-12.646-28.542-8.616-7.07-21.778-11.224-40.02-11.224zm19.35 65.41v16.252c0 8.43-2.516 16.427-7.212 22.295-4.696 5.869-11.565 9.599-20.467 9.599-5.363 0-9.113-1.343-11.579-3.961-2.467-2.619-3.707-6.62-3.707-12.138 0-6.13 1.95-10.1 4.875-13.05 2.926-2.952 6.886-4.863 10.767-6.602l27.323-12.392"/><path d="m331.53 50.787v.813 18.334.813h.813c6.559 0 10.432.64 12.798 1.879 2.366 1.24 3.374 3 4.317 5.841v.051l36.06 103.15.203.559h.559 35.5.559l.203-.559 35.25-99.29c1.208-3.515 2.797-6.147 5.587-8.08s6.843-3.193 12.951-3.606l.762-.051v-.711-18.334-.813h-.813-61.1-.813v.813 18.334.813h.813 12.392c3.16 0 5.536 2.302 5.536 5.79 0 .823-.268 2.567-.813 4.825s-1.389 5.059-2.489 8.227v.051l-20.67 60.03-19.05-60.03c-.967-3.186-1.809-6.01-2.387-8.278-.578-2.267-.863-4.04-.863-4.825 0-3.49 2.325-5.79 5.485-5.79h9.396v-.813h.813v-18.334-.813h-.813-69.37-.813z"/><path d="m538.85 46.927c-18.858 0-34.791 7.03-45.962 19.1-11.171 12.06-17.572 29.14-17.572 49.06 0 22.04 5.594 39.09 16.556 50.634s27.24 17.471 48.35 17.471c18.12 0 31.969-4.564 41.747-13.1 9.778-8.539 15.396-21.01 17.17-36.566l.102-.863h-.914-22.448-.66l-.102.66c-1.74 9.216-5.02 16.193-10.157 20.873-5.135 4.68-12.192 7.11-21.787 7.11-12.329 0-19.881-5.449-24.428-13.56-4.438-7.915-5.846-18.426-5.536-28.644h85.68.762l.051-.711c1.508-15.608-2.423-33.41-12.392-47.38-9.968-13.973-26.03-24.07-48.45-24.07zm-.56 20.568c9.366 0 15.193 3.987 18.791 10.11 3.48 5.918 4.758 13.902 4.723 22.04h-48.5c.486-8.118 2.313-16.12 6.145-22.04 3.971-6.141 9.905-10.11 18.842-10.11"/></g></svg>