<svg xmlns="http://www.w3.org/2000/svg" viewBox="0 0 600 112.62"><g color="#000"><path d="m0 0v.5 12.396.5h.5 10.71c1.868 0 3.585.328 4.777 1.124 1.192.796 1.905 2.01 1.905 4.059v74.844c0 2.05-.713 3.265-1.905 4.059-1.192.794-2.909 1.124-4.777 1.124h-10.71v.5h-.5v.5 11.896.5h.5 66.788c16.917 0 31.05-4.79 40.935-14.207 9.885-9.417 15.487-23.441 15.487-41.871 0-18.435-5.602-32.465-15.487-41.84-9.883-9.375-24.02-14.08-40.932-14.08h-66.788-.5zm42.34 13.395h21.763c8.782 0 16.825 2.45 22.7 8.961 5.875 6.511 9.617 17.15 9.617 33.566 0 16.413-3.725 27.08-9.804 33.628-6.08 6.552-14.545 9.06-24.17 9.06h-20.11v-85.21"/><path d="m164.11 28.82c-6.573 0-14.897.904-21.669 3.965-6.772 3.061-11.99 8.402-11.99 17.02 0 7.01 5.01 12.708 12.365 12.708 3.28 0 6.281-.585 8.493-2.186 2.212-1.6 3.56-4.229 3.56-8.06 0-3.505-1.246-6.06-3.341-7.556-1.763-1.263-4.156-1.616-6.713-1.499 1.461-1.403 3.499-2.535 5.87-3.247 2.832-.85 5.889-1.218 8.149-1.218 4.337 0 8.673.503 11.865 2.248 3.192 1.745 5.308 4.632 5.308 9.773 0 5.643-2.914 8.844-7.463 11.12-4.549 2.272-10.719 3.507-16.923 5.03-6.205 1.52-12.457 3.318-17.204 6.807-4.747 3.489-7.931 8.724-7.931 16.861 0 7.541 2.56 12.943 6.807 16.424 4.246 3.481 10.1 5.03 16.611 5.03 10.155 0 20.541-2.863 26.853-11.584.849 3.921 2.892 6.819 5.714 8.68 3.081 2.031 7.01 2.904 11.209 2.904 7.03 0 12.536-1.99 16.236-6.37s5.558-11.08 5.558-20.389v-4.933-.781l-.656.281h-10.429-.5v.5 6.276c0 5.082-.495 8.162-1.249 9.898-.754 1.736-1.631 2.123-2.716 2.123-1.114 0-1.909-.371-2.498-1.155-.589-.785-.937-2.033-.937-3.778v-40.44c0-7.05-2.478-13.199-7.775-17.548-5.297-4.349-13.389-6.901-24.604-6.901m11.895 40.22v9.992c0 5.183-1.547 10.1-4.434 13.707s-7.11 5.901-12.583 5.901c-3.297 0-5.602-.826-7.119-2.436s-2.279-4.07-2.279-7.463c0-3.769 1.199-6.209 2.998-8.02 1.799-1.815 4.233-2.99 6.619-4.059l16.799-7.619"/><path d="m203.83 31.22v.5 11.272.5h.5c4.03 0 6.413.393 7.868 1.155 1.455.762 2.074 1.847 2.654 3.591v.031l22.17 63.42.125.343h.343 21.826.343l.125-.343 21.669-61.04c.742-2.161 1.72-3.779 3.435-4.965 1.715-1.186 4.207-1.963 7.962-2.217l.468-.031v-.437-11.272-.5h-.5-37.562-.5v.5 11.272.5h.5 7.619c1.943 0 3.403 1.415 3.403 3.559 0 .506-.165 1.578-.5 2.966s-.854 3.11-1.53 5.058v.031l-12.708 36.907-11.709-36.907c-.594-1.959-1.112-3.696-1.468-5.09-.355-1.394-.531-2.483-.531-2.966 0-2.145 1.429-3.559 3.372-3.559h5.776v-.5h.5v-11.272-.5h-.5-42.652-.5"/><path d="m331.29 28.851c-11.594 0-21.39 4.324-28.26 11.74-6.868 7.417-10.804 17.918-10.804 30.16 0 13.552 3.439 24.03 10.179 31.13 6.74 7.099 16.746 10.741 29.725 10.741 11.138 0 19.655-2.806 25.666-8.06 6.01-5.25 9.466-12.917 10.554-22.481l.063-.531h-.562-13.801-.406l-.063.406c-1.07 5.666-3.088 9.956-6.245 12.833-3.157 2.878-7.496 4.371-13.395 4.371-7.58 0-12.223-3.35-15.02-8.337-2.728-4.866-3.594-11.329-3.403-17.61h52.675.468l.031-.437c.927-9.596-1.49-20.541-7.619-29.13s-16-14.8-29.788-14.8zm-.343 12.646c5.758 0 9.341 2.451 11.553 6.214 2.139 3.638 2.925 8.547 2.904 13.551h-29.819c.299-4.991 1.422-9.908 3.778-13.551 2.441-3.775 6.089-6.214 11.584-6.214"/></g><path d="m439.09 65.62h34.15v-15.16c-.081-4.65-.162-7.258-.243-7.824-.041-.606-.243-1.314-.607-2.123-.566-1.132-1.557-1.84-2.972-2.123-.607-.121-1.617-.182-3.03-.182h-6.975v-8.855h45.25v8.855h-7.824c-2.103 0-3.538.202-4.306.607-1.456.647-2.264 2.123-2.426 4.428 0 .768-.041 3.174-.121 7.218v40.515c.081 4 .121 6.409.121 7.218.162 2.345.97 3.841 2.426 4.488.809.364 2.244.546 4.306.546h7.824v8.916h-45.25v-8.916h6.975c2.062 0 3.498-.182 4.306-.546 1.456-.647 2.244-2.143 2.365-4.488.04-.687.101-3.093.182-7.218v-16.497h-34.15v16.497c.081 4.61.141 7.238.182 7.885.04.607.263 1.314.667 2.123.566 1.132 1.536 1.82 2.911 2.062.606.121 1.638.182 3.093.182h6.975v8.916h-45.25v-8.916h7.824c2.062 0 3.498-.182 4.306-.546 1.456-.647 2.264-2.143 2.426-4.488 0-.728.04-3.134.121-7.218v-40.515c-.081-3.962-.121-6.368-.121-7.218-.162-2.305-.97-3.781-2.426-4.428-.768-.404-2.204-.606-4.306-.607h-7.824v-8.855h45.25v8.855h-6.975c-2.062 0-3.498.202-4.306.607-1.456.607-2.264 2.083-2.426 4.428 0 .768-.04 3.174-.121 7.218v15.16"/><path d="m511.98 29.351v8.836h7.837c1.456 0 2.463.066 3.03.187 1.415.283 2.4.991 2.966 2.123.404.809.646 1.539.687 2.186.04.607.106 3.206.187 7.775v40.498c-.081 4.084-.125 6.516-.125 7.244-.162 2.345-.98 3.818-2.436 4.465-.809.364-2.247.562-4.309.562h-7.837v8.899h39.748c8.855 0 14.941-.343 18.297-1.03 8.855-1.86 15.935-6.143 21.232-12.896 5.822-7.48 8.743-16.707 8.743-27.664 0-9.421-2.234-17.685-6.682-24.761-5.05-8.05-12.644-13.191-22.794-15.456-2.062-.445-4.01-.7-5.87-.781-1.82-.121-5.58-.187-11.241-.187h-41.43zm31.443 8.836h9.742c3.356 0 6.07.154 8.09.437 4 .607 7.389 1.979 10.179 4.122 7.116 5.378 10.679 14.714 10.679 27.977 0 14.516-3.716 24.02-11.12 28.507-4.488 2.709-11.07 4.059-19.765 4.059h-7.806v-65.1"/></svg>