<svg xmlns="http://www.w3.org/2000/svg" height="120.26" width="600" viewBox="0 0 158.75 31.818611"><g transform="translate(103.94-132.92)"><g fill="#65c766"><path d="m-63.59 157.39l2.724-8.77 2.769 8.77zm-12.236-10.53c2.955 0 2.698 3.51 2.698 3.51h-5.467s-.415-3.51 2.769-3.51m-18.977 12.75c-.876 0-2.262-.05-2.262-.05v-9.83h2.079c.738 0 4.43.55 4.43 4.89s-3.369 4.99-4.247 4.99m38.6-14.82s-8.863-.14-8.911 0c-.047.14-3.414 8.95-3.414 8.95s-2.91 2.31-6.327 1.76c-3.417-.56-3.51-3-3.51-3h9.329s.553-2.91-.878-5.22c-1.434-2.31-2.68-2.49-2.68-2.49h-8.08s-3.047 1.38-3.417 5.58v.14s-.553-1.71-3.322-3.69c-2.77-1.99-6.465-1.99-9.514-1.99-1.154 0-7.01.05-7.01.05v19.44s8.445.04 11.08.04c3.51 0 9.467-2.08 9.496-8.95 0 0 .724 1.13 2.166 2.23 2.089 1.59 5.679 3.12 10.733 1.04l-1.986 5.64h7.295l1.063-3.1h6.189l1.153 3.05h7.665z"/><path d="m-14.87 137.98c0 2.8-2.267 5.07-5.06 5.07-2.796 0-5.062-2.27-5.062-5.07 0-2.79 2.266-5.06 5.062-5.06 2.793 0 5.06 2.27 5.06 5.06"/></g><g fill="#ee1d68"><path d="m-34.644 164.27-4.218-7.93v7.93h-9.358v-27.13h9.358v13.95l3.962-6.28h9.432l-5.98 7.93 6.752 11.53z"/><path d="m-.178 154.5c0-1.8-1.1-3.26-2.716-3.26-1.613 0-2.716 1.46-2.716 3.26s1.103 3.27 2.716 3.27c1.616 0 2.716-1.47 2.716-3.27m-.77-7.78v-9.58h9.358v27.13h-8.99v-2.5c-1.434 1.8-3.489 2.97-5.909 2.97-4.882 0-8.183-4.62-8.183-10.24 0-5.61 3.483-10.16 8.511-10.16 2.24 0 3.891.92 5.213 2.38"/><path d="m27.17 157.95c0 4.59-3.671 6.79-9.432 6.79-3.23 0-6.314-.88-8.845-2.24l.844-5.57c1.65 1.1 4.11 1.98 6.607 1.98.989 0 1.539-.26 1.539-.74 0-1.21-8.366 0-8.366-7.01 0-4.62 3.817-6.82 9.578-6.82 2.713 0 5.25.62 7.488 1.58l-.807 5.32c-1.323-.59-3.708-1.18-5.25-1.18-.918 0-1.944.04-1.944.66 0 1.36 8.588.04 8.588 7.23"/><path d="m-24.584 144.81h9.358v19.46h-9.358z"/></g><path d="m39.679 160.26h-4.573v-4.52h-4.288v-3.75h4.288v-4.51h4.573v4.51h4.317v3.75h-4.317z" fill="#65c766"/><path d="m39.679 160.26h-4.573v-4.52h-4.288v-3.75h4.288v-4.51h4.573v4.51h4.317v3.75h-4.317z" stroke="#65c766" stroke-miterlimit="10" stroke-width="1.113" fill="none"/><path d="m49.45 148.33h-3.01v-4.4h7.811v19.88h-4.801z" fill="#65c766"/><path d="m49.45 148.33h-3.01v-4.4h7.811v19.88h-4.801z" stroke="#65c766" stroke-miterlimit="10" stroke-width="1.113" fill="none"/></g></svg>