<svg xmlns="http://www.w3.org/2000/svg" xmlns:xlink="http://www.w3.org/1999/xlink" viewBox="0 0 192.87 118.9"><defs><linearGradient id="4"><stop stop-color="#8f1719"/><stop offset="1" stop-color="#bc151f"/></linearGradient><linearGradient x1="235.2" y1="276.19" x2="296.59" y2="274.39" id="5" xlink:href="#4" gradientUnits="userSpaceOnUse"/><linearGradient x1="296.46" y1="368.79" x2="258.01" y2="327.78" id="3" xlink:href="#4" gradientUnits="userSpaceOnUse"/><linearGradient x1="154" x2="121" id="1" xlink:href="#4" gradientUnits="userSpaceOnUse"/><linearGradient x1="161" y1="82" x2="190" y2="51" id="0" xlink:href="#4" gradientUnits="userSpaceOnUse"/><linearGradient x1="-299.7" y1="582.16" x2="-360.67" y2="575.66" id="2" xlink:href="#4" gradientUnits="userSpaceOnUse"/></defs><g transform="translate(-203.12-327.57)"><path d="m203.12 359.44l54.844-31.875 54.844 31.875-.033.757-54.811 32.493-54.797-32.513z" fill="url(#3)"/><path d="m-361.87 541.36h63.44l4.02-.467-3.448 54.652-.569.955h-63.44z" transform="matrix(-.86444.50273 0 1 0 0)" fill="url(#2)"/><path transform="matrix(.86444.50273 0 1 0 0)" fill="url(#5)" d="m234.99 241.3h63.44v55.14h-63.44z"/><path d="m159 45v39h17.5c10.803 0 19.5-8.697 19.5-19.5 0-10.803-8.697-19.5-19.5-19.5h-17.5m9 8h7.5c6.371 0 11.5 5.129 11.5 11.5 0 6.371-5.129 11.5-11.5 11.5h-7.5v-23" transform="translate(200 324.65)" fill="url(#0)"/><path d="m121 45v39h9v-15h15v15h9v-39h-9v15h-15v-15z" transform="translate(200 324.65)" fill="url(#1)"/><g fill="#fff"><path d="m211 368.65v17h7.5c4.709 0 8.5-3.791 8.5-8.5 0-4.709-3.791-8.5-8.5-8.5h-7.5m4 4h3.5c2.493 0 4.5 2.01 4.5 4.5 0 2.493-2.01 4.5-4.5 4.5h-3.5v-9"/><path d="m229 368.65v17h12v-4h-8v-2.5h6.5v-4h-6.5v-2.5h8v-4h-12"/><path d="m245 368.65v17h12v-4h-8v-13z"/><path d="m258.5 368.65v9.5c0 4.155 3.345 7.5 7.5 7.5 4.155 0 7.5-3.345 7.5-7.5v-9.5h-4v9.5c0 1.939-1.561 3.5-3.5 3.5-1.939 0-3.5-1.561-3.5-3.5v-9.5h-4"/><path d="m275 368.65l5.5 8.5-5.5 8.5h5l3-4.625 3 4.625h5l-5.5-8.5 5.5-8.5h-5l-3 4.625-3-4.625h-5"/><path d="m293 368.65v17h12v-4h-8v-2.5h6.5v-4h-6.5v-2.5h8v-4h-12"/><path d="m11 63.5v21h5v-11.813l4.344 6.844h2.313l4.344-6.844v11.813h5v-21h-5l-5.5 8.625-5.5-8.625h-5" transform="translate(200 324.65)"/><path d="m236 388.15v12.5c0 4.986 4.01 9 9 9 4.986 0 9-4.01 9-9v-12.5h-5v12.5c0 2.216-1.784 4-4 4-2.216 0-4-1.784-4-4v-12.5z"/><path d="m276.5 388.15h5v21h-5z"/><path d="m295.03 387.65c-3.899.171-7.575 2.434-9.406 6.188-2.663 5.46-.398 12.02 5.063 14.688 5.46 2.663 12.02.398 14.688-5.063l-4.469-2.188c-.972 2-3.03 3.375-5.406 3.375-3.314 0-6-2.686-6-6 0-3.314 2.686-6 6-6 2.377 0 4.435 1.371 5.406 3.375l4.469-2.188c-1.076-2.206-2.857-3.987-5.063-5.063-1.706-.832-3.509-1.203-5.281-1.125"/><path d="m268.84 394.97l4.874-1.375c-1.058-2.236-2.622-5.908-8.359-5.908-4.663 0-7.908 2.394-7.899 6.526.016 7.236 10.926 6.179 10.935 9.138.004 1.225-1.376 2.037-2.704 1.99-1.554-.055-2.793-.787-4.64-3.417l-4.546 1.711c1.522 3.233 3.617 6.01 8.877 6.01 5.683 0 8.211-2.624 8.209-6.362-.004-7.321-10.876-6.509-10.859-9.667.006-1.096.774-1.508 2.639-1.334 1.592.149 2.837 1.497 3.472 2.69"/></g></g></svg>