<svg xmlns="http://www.w3.org/2000/svg" xmlns:xlink="http://www.w3.org/1999/xlink" viewBox="0 0 109.69 118.9"><defs><linearGradient x1=".219" y1="66.752" x2="61.61" y2="64.951" id="3" xlink:href="#2" gradientUnits="userSpaceOnUse"/><linearGradient id="2"><stop stop-color="#8f1719"/><stop offset="1" stop-color="#bc151f"/></linearGradient><linearGradient x1="93.34" y1="41.22" x2="54.887" y2=".212" id="0" xlink:href="#2" gradientUnits="userSpaceOnUse"/><linearGradient x1="-299.7" y1="582.16" x2="-360.67" y2="575.66" id="1" xlink:href="#2" gradientUnits="userSpaceOnUse" gradientTransform="matrix(-.86444.50273 0 1-203.12-327.57)"/></defs><path d="m0 31.875l54.844-31.875 54.844 31.875-.033.757-54.811 32.493-54.797-32.513z" fill="url(#0)"/><path d="m109.69 31.867l-54.838 31.892-3.473 1.553 2.981 52.919.492.668 54.838-31.892z" fill="url(#1)"/><path transform="matrix(.86444.50273 0 1 0 0)" fill="url(#3)" d="m.014 31.86h63.44v55.14h-63.44z"/><g fill="#fff"><path d="m7.875 41.08v17h7.5c4.709 0 8.5-3.791 8.5-8.5 0-4.709-3.791-8.5-8.5-8.5h-7.5m4 4h3.5c2.493 0 4.5 2.01 4.5 4.5 0 2.493-2.01 4.5-4.5 4.5h-3.5v-9"/><path d="m25.875 41.08v17h12v-4h-8v-2.5h6.5v-4h-6.5v-2.5h8v-4h-12"/><path d="m41.875 41.08v17h12v-4h-8v-13z"/><path d="m55.37 41.08v9.5c0 4.155 3.345 7.5 7.5 7.5 4.155 0 7.5-3.345 7.5-7.5v-9.5h-4v9.5c0 1.939-1.561 3.5-3.5 3.5-1.939 0-3.5-1.561-3.5-3.5v-9.5h-4"/><path d="m71.875 41.08l5.5 8.5-5.5 8.5h5l3-4.625 3 4.625h5l-5.5-8.5 5.5-8.5h-5l-3 4.625-3-4.625h-5"/><path d="m89.87 41.08v17h12v-4h-8v-2.5h6.5v-4h-6.5v-2.5h8v-4h-12"/><path d="m7.875 60.58v21h5v-11.813l4.344 6.844h2.313l4.344-6.844v11.813h5v-21h-5l-5.5 8.625-5.5-8.625h-5"/><path d="m32.875 60.58v12.5c0 4.986 4.01 9 9 9 4.986 0 9-4.01 9-9v-12.5h-5v12.5c0 2.216-1.784 4-4 4-2.216 0-4-1.784-4-4v-12.5z"/><path d="m73.37 60.58h5v21h-5z"/><path d="m91.91 60.08c-3.899.171-7.575 2.434-9.406 6.187-2.663 5.46-.398 12.02 5.063 14.688 5.46 2.663 12.02.398 14.688-5.063l-4.469-2.188c-.972 2-3.03 3.375-5.406 3.375-3.314 0-6-2.686-6-6 0-3.314 2.686-6 6-6 2.377 0 4.435 1.371 5.406 3.375l4.469-2.187c-1.076-2.206-2.857-3.987-5.063-5.063-1.706-.832-3.509-1.203-5.281-1.125"/><path d="m65.71 67.41l4.874-1.375c-1.058-2.236-2.622-5.908-8.359-5.908-4.663 0-7.908 2.394-7.899 6.526.016 7.236 10.926 6.179 10.935 9.138.004 1.225-1.376 2.037-2.704 1.99-1.554-.055-2.793-.787-4.64-3.417l-4.546 1.711c1.522 3.233 3.617 6.01 8.877 6.01 5.683 0 8.211-2.624 8.209-6.362-.004-7.321-10.876-6.509-10.859-9.667.006-1.096.774-1.508 2.639-1.334 1.592.149 2.837 1.497 3.472 2.69"/></g></svg>