<?xml version="1.0" encoding="UTF-8" standalone="no"?>
<!-- Created with Inkscape (http://www.inkscape.org/) -->

<svg
   xmlns:dc="http://purl.org/dc/elements/1.1/"
   xmlns:cc="http://creativecommons.org/ns#"
   xmlns:rdf="http://www.w3.org/1999/02/22-rdf-syntax-ns#"
   xmlns:svg="http://www.w3.org/2000/svg"
   xmlns="http://www.w3.org/2000/svg"
   xmlns:inkscape="http://www.inkscape.org/namespaces/inkscape"
   version="1.1"
   width="3589"
   height="661"
   viewBox="0 0 3709.84 682.689"
   id="svg2"
   xml:space="preserve"
   style="fill-rule:evenodd"><metadata
   id="metadata42"><rdf:RDF><cc:Work
       rdf:about=""><dc:format>image/svg+xml</dc:format><dc:type
         rdf:resource="http://purl.org/dc/dcmitype/StillImage" /><dc:title /></cc:Work></rdf:RDF></metadata><defs
   id="defs40" />
 <g
   id="Ebene_x0020_1">
  <metadata
   id="CorelCorpID_0Corel-Layer" />
  <polygon
   points="3709.84,682.689 0,682.689 0,0 3709.84,0 "
   id="polygon6"
   style="fill:#0068a9" />
  <path
   d="m 286.92,160.762 108.292,0 c 21.2118,0 38.5171,4.46917 51.9136,12.8411 12.835,8.93345 24.0012,21.7684 32.3718,37.9592 8.37679,16.7426 14.5159,35.7228 18.4236,58.054 3.90762,21.7684 6.13915,44.655 6.13915,69.2177 0,38.5171 -2.78819,68.0995 -8.92734,89.3113 -5.58249,21.2118 -13.3977,38.5171 -24.006,53.033 -10.0468,14.5098 -20.6563,23.9999 -32.378,28.4642 -16.1859,6.70192 -30.7019,10.0468 -43.5368,10.0468 l -108.292,0 0,-358.927 z m 73.1254,80.9406 0,196.489 17.862,0 c 15.0726,0 25.6748,-2.78819 32.3767,-7.81402 6.13915,-5.02094 11.1601,-14.5111 15.0665,-26.7955 3.35096,-12.835 5.58371,-34.0467 5.58371,-62.5158 0,-37.9604 -4.46428,-64.1931 -12.2783,-78.1524 -8.3719,-13.9544 -21.7684,-21.2118 -40.7486,-21.2118 l -17.862,0 z"
   inkscape:connector-curvature="0"
   id="path8"
   style="fill:#ffffff" />
  <path
   d="m 727.345,414.192 -131.179,0 c 1.11332,16.1859 3.90762,27.9076 8.37068,35.7216 6.14037,11.1662 14.5172,16.7487 24.5639,16.7487 6.69459,0 12.8398,-2.23153 18.4175,-7.25858 3.9064,-2.78819 7.25736,-8.37068 11.7277,-16.1859 l 64.1919,8.92857 c -10.0468,26.2376 -21.7684,44.6611 -35.7277,56.3828 -13.9544,11.1601 -34.0467,16.7426 -59.7289,16.7426 -22.8878,0 -40.1859,-5.01972 -53.5836,-14.5098 -12.8411,-9.49011 -23.4494,-25.1194 -31.8201,-46.3311 -8.93467,-21.213 -12.8411,-45.7757 -12.8411,-74.2448 0,-40.7486 8.37679,-73.6832 25.6809,-98.8014 16.7426,-25.1194 40.192,-37.9604 70.3323,-37.9604 24.5627,0 44.0984,6.14526 58.0528,17.3041 13.9532,11.1662 25.1194,27.357 32.3767,48.57 7.25858,21.7684 11.1662,49.1193 11.1662,83.7276 l 0,11.1662 z m -66.4308,-47.4506 c -1.66877,-19.5357 -5.01972,-33.4901 -10.6022,-41.3041 -5.58371,-8.37801 -12.8411,-12.8411 -21.7684,-12.8411 -10.0529,0 -18.4236,6.13915 -24.5627,18.9802 -3.90762,7.81402 -6.70192,19.5357 -7.81524,35.1649 l 64.7486,0 z"
   inkscape:connector-curvature="0"
   id="path10"
   style="fill:#ffffff" />
  <path
   d="m 937.232,519.689 -61.4037,0 0,-42.4235 c -8.93345,17.3041 -18.4236,29.5885 -27.3509,36.8459 -9.49011,7.81524 -20.6563,11.1601 -34.0528,11.1601 -18.4236,0 -32.378,-8.37068 -42.4247,-24.5566 -10.6083,-16.192 -15.6293,-41.8681 -15.6293,-75.9209 l 0,-165.225 65.868,0 0,142.901 c 0,16.1847 2.23153,27.9076 6.13915,34.6083 3.90762,7.25248 9.49011,10.6034 16.7487,10.6034 7.81402,0 13.9532,-4.46428 18.979,-13.9532 5.02094,-8.93467 7.25248,-25.676 7.25248,-49.1266 l 0,-125.033 65.8741,0 0,260.12 z"
   inkscape:connector-curvature="0"
   id="path12"
   style="fill:#ffffff" />
  <path
   d="m 1055.57,160.762 0,98.8075 35.7216,0 0,72.5626 -35.7216,0 0,92.1068 c 0,11.165 0.5554,18.979 2.2315,22.33 1.6749,5.57761 5.5825,8.3719 11.165,8.3719 4.4643,0 11.1662,-2.23275 20.0935,-6.70192 l 5.0259,69.2177 c -16.192,5.02705 -31.2585,7.81524 -45.2178,7.81524 -16.7426,0 -28.4642,-3.34485 -36.2795,-9.49011 -7.8141,-6.13915 -13.39654,-16.1859 -17.30414,-29.027 -3.35096,-12.8337 -5.02583,-34.0467 -5.02583,-63.0725 l 0,-91.5501 -24.5627,0 0,-72.5626 24.5627,0 0,-48.0072 65.31127,-50.8003 z"
   inkscape:connector-curvature="0"
   id="path14"
   style="fill:#ffffff" />
  <path
   d="m 1110.83,447.682 65.3052,-9.49011 c 2.7943,11.7216 6.1453,20.0996 11.165,25.1194 4.4643,5.02583 11.165,7.81402 18.9802,7.81402 8.9334,0 15.6293,-2.78819 20.6551,-8.92734 3.9076,-3.9064 5.5825,-9.49011 5.5825,-15.6293 0,-7.25736 -2.2376,-12.8398 -7.2574,-16.7475 -3.9076,-2.7943 -12.8411,-6.13915 -28.4703,-10.0468 -22.3312,-6.14526 -38.5171,-11.7216 -46.8878,-16.7487 -8.9334,-5.58249 -16.7487,-13.9532 -22.3312,-26.2376 -6.1391,-12.2783 -9.4901,-26.2327 -9.4901,-41.862 0,-17.3041 3.351,-31.8201 10.0468,-44.0984 6.7019,-12.8411 15.6354,-21.7684 26.7942,-27.9137 11.7229,-6.13915 26.7955,-9.49011 46.3311,-9.49011 20.0996,0 35.1722,2.7943 45.219,7.25858 9.4901,5.02583 17.3041,12.2844 23.9999,22.33 6.7019,9.49011 11.7216,23.4445 16.192,40.192 l -61.9665,9.49011 c -1.67,-8.37679 -4.4643,-14.5159 -8.3707,-18.4236 -5.0209,-5.58249 -11.1662,-7.81402 -18.4187,-7.81402 -7.2573,0 -12.8398,1.67487 -16.1908,5.58249 -3.3509,4.46306 -5.0209,8.92734 -5.0209,14.5098 0,6.70192 2.2327,11.7216 6.6958,14.5172 3.9076,3.34974 13.3977,6.13915 27.9137,8.92734 21.7684,3.9125 37.9543,8.93345 48.5627,15.6354 10.6034,6.69459 18.4187,16.1847 24.0012,29.0258 5.5825,12.2783 8.3707,25.676 8.3707,40.7486 0,15.0726 -2.7882,29.5824 -8.9273,43.5368 -5.5825,14.5159 -15.0726,25.6821 -27.9138,34.0528 -12.835,8.37068 -30.1391,12.8411 -52.4703,12.8411 -30.7019,0 -53.0269,-7.25858 -66.4247,-20.6563 -13.3965,-13.3965 -21.7683,-32.9334 -25.6748,-57.4961 z"
   inkscape:connector-curvature="0"
   id="path16"
   style="fill:#ffffff" />
  <path
   d="m 1450.78,418.1 61.9604,10.6022 c -3.351,19.5369 -8.9334,36.841 -16.7487,51.3582 -7.814,14.5098 -17.8608,25.6748 -29.5824,33.4901 -12.2844,7.81402 -27.9137,12.2844 -46.3311,12.2844 -18.4236,0 -33.4962,-2.7943 -45.219,-7.81524 -12.2783,-5.02583 -22.8866,-13.3965 -31.2585,-25.1194 -8.9335,-11.7216 -15.6293,-25.1194 -20.6551,-40.7535 -4.4631,-15.0677 -7.2525,-35.7228 -7.2525,-61.3988 0,-26.7942 2.7894,-49.1254 8.9286,-66.9862 4.4692,-12.8411 10.6083,-24.5627 17.8669,-35.1661 7.814,-10.0517 15.6293,-17.8669 23.4433,-22.8866 12.835,-7.81524 29.5837,-12.2844 49.1193,-12.2844 27.9137,0 49.1254,7.81402 63.6365,22.8866 14.5159,15.0738 25.1194,37.4038 30.7019,66.9874 l -61.4037,12.2783 c -1.6761,-11.1601 -5.021,-19.5369 -10.6034,-25.1194 -5.0258,-5.58249 -11.7216,-8.37068 -20.0984,-8.37068 -11.1662,0 -19.5369,5.58249 -26.2327,17.8608 -6.7019,11.7216 -10.0529,29.5885 -10.0529,53.5897 0,21.2118 3.3509,37.3965 9.4901,48.5627 6.7019,11.165 15.0726,16.7475 25.6821,16.7475 8.3707,0 15.6293,-3.34974 21.7684,-10.0456 5.5825,-6.70192 10.0468,-17.3054 12.8411,-30.7019 z"
   inkscape:connector-curvature="0"
   id="path18"
   style="fill:#ffffff" />
  <path
   d="m 1537.3,160.762 65.3113,0 0,132.298 c 8.9335,-14.5159 17.8669,-24.5627 26.7942,-30.1452 8.3768,-6.13915 18.9802,-9.49011 31.2585,-9.49011 17.3041,0 31.8213,8.37679 41.8668,25.1194 10.0468,16.1908 15.0726,41.8668 15.0726,75.9197 l 0,165.226 -65.3101,0 0,-142.901 c 0,-16.7426 -2.2327,-27.9076 -6.1391,-34.6095 -3.9077,-7.25248 -9.4902,-10.6022 -16.7487,-10.6022 -7.8153,0 -14.5098,5.02583 -18.9802,13.9532 -5.0198,8.93345 -7.8141,25.676 -7.8141,49.1254 l 0,125.034 -65.3113,0 0,-358.927 z"
   inkscape:connector-curvature="0"
   id="path20"
   style="fill:#ffffff" />
  <polygon
   points="1824.78,519.689 1758.91,519.689 1758.91,160.762 1824.78,160.762 "
   id="polygon22"
   style="fill:#ffffff" />
  <path
   d="m 1925.81,343.855 -62.5232,-10.0468 c 2.7943,-16.7487 6.1453,-30.1452 10.6095,-39.6292 4.4631,-9.49011 10.6022,-17.3054 18.9802,-24.5627 6.1391,-5.02705 14.5098,-8.93345 24.5566,-11.7229 10.6083,-2.7943 21.7745,-4.46917 34.0528,-4.46917 19.5357,0 35.7277,1.67487 47.4493,5.02583 11.7229,3.35096 21.7684,10.6095 29.5837,21.2118 5.5825,7.25858 10.0468,17.862 13.3977,31.2585 3.3497,13.3977 4.4631,26.2388 4.4631,38.5171 l 0,114.993 c 0,11.7216 0.5566,21.7684 1.676,28.4691 1.1183,6.69581 3.3498,15.6293 6.7007,26.7894 l -61.4037,0 c -2.2315,-6.69581 -3.9076,-11.7216 -4.4691,-15.6293 -1.1133,-3.34485 -1.67,-8.92734 -2.2328,-16.1859 -8.9273,12.2783 -17.3041,21.2118 -25.6748,26.7942 -11.7229,7.25858 -25.1194,10.6034 -40.192,10.6034 -20.6563,0 -36.2856,-7.25248 -46.8878,-21.7684 -10.0468,-13.9544 -15.6293,-31.8152 -15.6293,-53.0269 0,-19.543 3.9076,-35.7277 11.7216,-48.5688 7.2586,-12.835 21.2118,-22.3251 41.8681,-28.4642 24.5566,-7.25858 40.1859,-12.8411 47.9999,-15.6293 6.7019,-2.7943 14.5159,-7.25858 22.8878,-11.7277 0,-12.2783 -1.6761,-20.649 -5.0209,-25.676 -3.351,-5.01972 -8.9335,-7.25736 -17.3041,-7.25736 -11.1662,0 -18.9802,2.23763 -24.5627,7.81402 -3.9076,3.90762 -7.2586,11.7277 -10.0468,22.8878 z m 56.9346,52.4764 c -8.9273,4.46306 -18.4175,8.92734 -27.9076,12.835 -13.3977,5.02583 -21.7745,10.6083 -25.6821,15.628 -3.3448,5.58371 -5.0197,11.7229 -5.0197,18.4236 0,7.81524 1.6749,14.5111 5.0197,19.5369 3.9076,5.02583 8.9335,7.25858 16.192,7.25858 7.2574,0 13.9532,-2.7943 20.0923,-7.81524 6.1392,-5.58249 10.6095,-12.2844 13.3977,-20.0984 2.7943,-7.81524 3.9076,-17.8608 3.9076,-30.1391 l 0,-15.6293 z"
   inkscape:connector-curvature="0"
   id="path24"
   style="fill:#ffffff" />
  <path
   d="m 2086.02,259.569 60.8422,0 0,42.4235 c 8.9335,-17.3041 18.4236,-29.5885 27.3509,-37.4038 9.4901,-7.25736 20.6551,-11.165 34.0528,-11.165 18.4236,0 32.3767,8.37679 42.4235,25.1194 10.6095,16.1908 15.6293,41.3102 15.6293,75.9197 l 0,165.226 -65.868,0 0,-142.901 c 0,-16.7426 -1.6749,-27.9076 -5.5825,-34.6095 -4.4643,-7.25248 -10.0468,-10.6022 -16.7475,-10.6022 -8.3719,0 -14.5111,5.02583 -19.5369,13.9532 -5.0209,8.93345 -7.2525,25.676 -7.2525,49.1254 l 0,125.034 -65.3113,0 0,-260.12 z"
   inkscape:connector-curvature="0"
   id="path26"
   style="fill:#ffffff" />
  <path
   d="m 2485.14,160.762 0,358.927 -61.4037,0 0,-38.511 c -8.3768,16.1859 -16.192,27.3509 -23.4433,32.9334 -9.4901,7.25248 -20.0996,11.1601 -31.2646,11.1601 -23.4445,0 -41.3053,-13.3977 -53.5836,-40.1859 -12.2844,-26.7942 -18.4236,-59.7289 -18.4236,-98.2447 0,-42.9863 6.7019,-75.9209 20.6551,-98.8075 13.3977,-22.8878 30.7019,-34.6095 51.3521,-34.6095 10.0517,0 19.5357,2.7943 27.9137,7.81402 8.3707,5.58371 15.6293,13.3977 21.7684,24.0073 l 0,-124.484 66.4296,0 z m -65.8729,228.311 c 0,-20.6551 -2.7894,-35.7277 -8.3719,-45.7745 -5.5825,-10.0468 -12.8411,-15.0726 -21.7684,-15.0726 -7.2574,0 -13.9532,4.46917 -18.9802,14.5159 -5.0258,9.49011 -7.814,25.676 -7.814,48.006 0,21.213 2.7882,36.841 7.814,46.8878 5.5837,10.0468 12.2783,14.5111 20.0935,14.5111 8.3768,0 15.0726,-4.46428 20.6551,-14.5111 5.5825,-10.0468 8.3719,-26.2376 8.3719,-48.5627 z"
   inkscape:connector-curvature="0"
   id="path28"
   style="fill:#ffffff" />
  <path
   d="m 2597.34,259.569 31.2585,0 0,73.1254 -31.2585,0 0,186.994 -65.3113,0 0,-186.994 -24.5627,0 0,-73.1254 24.5627,0 0,-11.7216 c 0,-10.6095 0.5567,-22.3312 2.2315,-35.1722 1.6761,-12.835 4.4643,-22.8878 8.3719,-31.2585 3.9064,-7.81402 10.0456,-14.5098 17.3041,-19.5369 7.2586,-5.02583 18.4236,-7.25736 32.9334,-7.25736 11.1662,0 27.9137,1.67487 49.6821,6.13915 l -7.2573,60.2904 c -7.8153,-2.23763 -13.9544,-3.35096 -18.9802,-3.35096 -5.5776,0 -10.0468,1.67609 -12.2783,5.02094 -2.7882,2.7943 -4.4643,7.25736 -5.5825,13.9593 -0.5567,3.90762 -1.1133,11.1662 -1.1133,22.8878 z"
   inkscape:connector-curvature="0"
   id="path30"
   style="fill:#ffffff" />
  <path
   d="m 2832.34,519.689 -60.841,0 0,-42.4235 c -8.9347,17.3041 -18.4236,29.5885 -27.3521,36.8459 -9.4901,7.81524 -20.6551,11.1601 -34.6083,11.1601 -17.862,0 -31.8213,-8.37068 -41.8681,-24.5566 -10.6022,-16.192 -15.6293,-41.8681 -15.6293,-75.9209 l 0,-165.225 65.868,0 0,142.901 c 0,16.1847 1.6749,27.9076 5.5825,34.6083 4.4643,7.25248 10.0468,10.6034 16.7487,10.6034 7.814,0 14.5098,-4.46428 19.5357,-13.9532 5.0209,-8.93467 7.2586,-25.676 7.2586,-49.1266 l 0,-125.033 65.3052,0 0,260.12 z"
   inkscape:connector-curvature="0"
   id="path32"
   style="fill:#ffffff" />
  <path
   d="m 2871.97,259.569 60.841,0 0,42.4235 c 9.4901,-17.3041 18.4236,-29.5885 27.9137,-37.4038 9.4901,-7.25736 20.6563,-11.165 34.0528,-11.165 17.862,0 32.3718,8.37679 42.4247,25.1194 10.0456,16.1908 15.628,41.3102 15.628,75.9197 l 0,165.226 -65.8729,0 0,-142.901 c 0,-16.7426 -2.2315,-27.9076 -6.1391,-34.6095 -3.9077,-7.25248 -9.4902,-10.6022 -16.7426,-10.6022 -7.8141,0 -13.9593,5.02583 -18.9802,13.9532 -5.0259,8.93345 -7.2574,25.676 -7.2574,49.1254 l 0,125.034 -65.868,0 0,-260.12 z"
   inkscape:connector-curvature="0"
   id="path34"
   style="fill:#ffffff" />
  <polygon
   points="3158.33,345.53 3207.46,259.569 3287.84,259.569 3226.44,350.555 3291.19,519.689 3217.5,519.689 3182.89,415.305 3158.33,452.146 3158.33,519.689 3091.35,519.689 3091.35,160.762 3158.33,160.762 "
   id="polygon36"
   style="fill:#ffffff" />
 </g>
</svg>