<svg xmlns="http://www.w3.org/2000/svg" width="3589" height="661" viewBox="0 0 3709.84 682.689" fill-rule="evenodd"><path fill="#0068a9" d="M3709.84 682.69 0 682.69 0 0 3709.84 0z"/><g fill="#fff"><path d="m286.92 160.76h108.29c21.21 0 38.517 4.469 51.914 12.841 12.835 8.933 24 21.768 32.372 37.959 8.377 16.743 14.516 35.723 18.424 58.05 3.908 21.768 6.139 44.655 6.139 69.22 0 38.517-2.788 68.1-8.927 89.31-5.582 21.21-13.398 38.517-24.01 53.03-10.05 14.51-20.656 24-32.378 28.464-16.186 6.702-30.702 10.05-43.537 10.05h-108.29v-358.93m73.13 80.94v196.49h17.862c15.07 0 25.675-2.788 32.377-7.814 6.139-5.02 11.16-14.511 15.07-26.796 3.351-12.835 5.584-34.05 5.584-62.52 0-37.96-4.464-64.19-12.278-78.15-8.372-13.954-21.768-21.21-40.749-21.21h-17.862"/><path d="m727.35 414.19h-131.18c1.113 16.186 3.908 27.908 8.371 35.722 6.14 11.166 14.517 16.749 24.564 16.749 6.695 0 12.84-2.232 18.418-7.259 3.906-2.788 7.257-8.371 11.728-16.186l64.19 8.929c-10.05 26.24-21.768 44.661-35.728 56.38-13.954 11.16-34.05 16.743-59.729 16.743-22.888 0-40.19-5.02-53.584-14.51-12.841-9.49-23.449-25.12-31.82-46.33-8.935-21.21-12.841-45.776-12.841-74.24 0-40.749 8.377-73.68 25.681-98.8 16.743-25.12 40.19-37.96 70.33-37.96 24.563 0 44.1 6.145 58.05 17.304 13.953 11.166 25.12 27.357 32.377 48.57 7.259 21.768 11.166 49.12 11.166 83.73v11.166m-66.43-47.45c-1.669-19.536-5.02-33.49-10.602-41.3-5.584-8.378-12.841-12.841-21.768-12.841-10.05 0-18.424 6.139-24.563 18.98-3.908 7.814-6.702 19.536-7.815 35.16h64.749"/><path d="m937.23 519.69h-61.4v-42.42c-8.933 17.304-18.424 29.589-27.351 36.846-9.49 7.815-20.656 11.16-34.05 11.16-18.424 0-32.378-8.371-42.42-24.557-10.608-16.192-15.629-41.868-15.629-75.921v-165.22h65.868v142.9c0 16.185 2.232 27.908 6.139 34.608 3.908 7.252 9.49 10.603 16.749 10.603 7.814 0 13.953-4.464 18.979-13.953 5.02-8.935 7.252-25.676 7.252-49.13v-125.03h65.874v260.12"/><path d="m1055.57 160.76v98.81h35.722v72.56h-35.722v92.11c0 11.165.555 18.979 2.232 22.33 1.675 5.578 5.582 8.372 11.165 8.372 4.464 0 11.166-2.233 20.09-6.702l5.03 69.22c-16.192 5.03-31.26 7.815-45.22 7.815-16.743 0-28.464-3.345-36.28-9.49-7.814-6.139-13.397-16.186-17.304-29.03-3.351-12.834-5.03-34.05-5.03-63.07v-91.55h-24.563v-72.56h24.563v-48.01l65.31-50.8"/><path d="m1110.83 447.68l65.31-9.49c2.794 11.722 6.145 20.1 11.165 25.12 4.464 5.03 11.165 7.814 18.98 7.814 8.933 0 15.629-2.788 20.655-8.927 3.908-3.906 5.582-9.49 5.582-15.629 0-7.257-2.238-12.84-7.257-16.748-3.908-2.794-12.841-6.139-28.47-10.05-22.331-6.145-38.517-11.722-46.888-16.749-8.933-5.582-16.749-13.953-22.331-26.24-6.139-12.278-9.49-26.23-9.49-41.862 0-17.304 3.351-31.82 10.05-44.1 6.702-12.841 15.635-21.768 26.794-27.914 11.723-6.139 26.795-9.49 46.33-9.49 20.1 0 35.17 2.794 45.22 7.259 9.49 5.03 17.304 12.284 24 22.33 6.702 9.49 11.722 23.445 16.192 40.19l-61.966 9.49c-1.67-8.377-4.464-14.516-8.371-18.424-5.02-5.582-11.166-7.814-18.419-7.814-7.257 0-12.84 1.675-16.191 5.582-3.351 4.463-5.02 8.927-5.02 14.51 0 6.702 2.233 11.722 6.696 14.517 3.908 3.35 13.398 6.139 27.914 8.927 21.768 3.913 37.954 8.933 48.563 15.635 10.603 6.695 18.419 16.185 24 29.03 5.582 12.278 8.371 25.676 8.371 40.749 0 15.07-2.788 29.582-8.927 43.537-5.582 14.516-15.07 25.682-27.914 34.05-12.835 8.371-30.14 12.841-52.47 12.841-30.702 0-53.03-7.259-66.42-20.656-13.397-13.397-21.768-32.933-25.675-57.5"/><path d="m1450.78 418.1l61.96 10.602c-3.351 19.537-8.933 36.841-16.749 51.36-7.814 14.51-17.861 25.675-29.582 33.49-12.284 7.814-27.914 12.284-46.33 12.284-18.424 0-33.496-2.794-45.22-7.815-12.278-5.03-22.887-13.397-31.26-25.12-8.934-11.722-15.629-25.12-20.655-40.753-4.463-15.07-7.253-35.723-7.253-61.4 0-26.794 2.789-49.13 8.929-66.986 4.469-12.841 10.608-24.563 17.867-35.17 7.814-10.05 15.629-17.867 23.443-22.887 12.835-7.815 29.584-12.284 49.12-12.284 27.914 0 49.13 7.814 63.64 22.887 14.516 15.07 25.12 37.4 30.702 66.987l-61.4 12.278c-1.676-11.16-5.02-19.537-10.603-25.12-5.03-5.582-11.722-8.371-20.1-8.371-11.166 0-19.537 5.582-26.23 17.861-6.702 11.722-10.05 29.589-10.05 53.59 0 21.21 3.351 37.4 9.49 48.563 6.702 11.165 15.07 16.748 25.682 16.748 8.371 0 15.629-3.35 21.768-10.05 5.582-6.702 10.05-17.305 12.841-30.702"/><path d="m1537.3 160.76h65.31v132.3c8.934-14.516 17.867-24.563 26.794-30.15 8.377-6.139 18.98-9.49 31.26-9.49 17.304 0 31.821 8.377 41.867 25.12 10.05 16.191 15.07 41.867 15.07 75.92v165.23h-65.31v-142.9c0-16.743-2.233-27.908-6.139-34.609-3.908-7.252-9.49-10.602-16.749-10.602-7.815 0-14.51 5.03-18.98 13.953-5.02 8.933-7.814 25.676-7.814 49.13v125.03h-65.31v-358.93"/><path d="m1824.78 519.69h-65.87v-358.93h65.87z"/><path d="m1925.81 343.86l-62.52-10.05c2.794-16.749 6.145-30.15 10.61-39.629 4.463-9.49 10.602-17.305 18.98-24.563 6.139-5.03 14.51-8.933 24.557-11.723 10.608-2.794 21.774-4.469 34.05-4.469 19.536 0 35.728 1.675 47.45 5.03 11.723 3.351 21.768 10.61 29.584 21.21 5.582 7.259 10.05 17.862 13.398 31.26 3.35 13.398 4.463 26.24 4.463 38.517v114.99c0 11.722.557 21.768 1.676 28.469 1.118 6.696 3.35 15.629 6.701 26.789h-61.4c-2.232-6.696-3.908-11.722-4.469-15.629-1.113-3.345-1.67-8.927-2.233-16.186-8.927 12.278-17.304 21.21-25.675 26.794-11.723 7.259-25.12 10.603-40.19 10.603-20.656 0-36.29-7.252-46.888-21.768-10.05-13.954-15.629-31.815-15.629-53.03 0-19.543 3.908-35.728 11.722-48.569 7.259-12.835 21.21-22.325 41.868-28.464 24.557-7.259 40.19-12.841 48-15.629 6.702-2.794 14.516-7.259 22.888-11.728 0-12.278-1.676-20.649-5.02-25.676-3.351-5.02-8.934-7.257-17.304-7.257-11.166 0-18.98 2.238-24.563 7.814-3.908 3.908-7.259 11.728-10.05 22.888m56.935 52.48c-8.927 4.463-18.418 8.927-27.908 12.835-13.398 5.03-21.774 10.608-25.682 15.628-3.345 5.584-5.02 11.723-5.02 18.424 0 7.815 1.675 14.511 5.02 19.537 3.908 5.03 8.934 7.259 16.192 7.259 7.257 0 13.953-2.794 20.09-7.815 6.139-5.582 10.61-12.284 13.398-20.1 2.794-7.815 3.908-17.861 3.908-30.14v-15.629"/><path d="m2086.02 259.57h60.842v42.42c8.934-17.304 18.424-29.589 27.351-37.4 9.49-7.257 20.655-11.165 34.05-11.165 18.424 0 32.377 8.377 42.42 25.12 10.61 16.191 15.629 41.31 15.629 75.92v165.23h-65.868v-142.9c0-16.743-1.675-27.908-5.582-34.609-4.464-7.252-10.05-10.602-16.747-10.602-8.372 0-14.511 5.03-19.537 13.953-5.02 8.933-7.253 25.676-7.253 49.13v125.03h-65.31v-260.12"/><path d="m2485.14 160.76v358.93h-61.4v-38.511c-8.377 16.186-16.192 27.351-23.443 32.933-9.49 7.252-20.1 11.16-31.26 11.16-23.445 0-41.31-13.398-53.584-40.19-12.284-26.794-18.424-59.729-18.424-98.24 0-42.986 6.702-75.921 20.655-98.81 13.398-22.888 30.702-34.609 51.35-34.609 10.05 0 19.536 2.794 27.914 7.814 8.371 5.584 15.629 13.398 21.768 24.01v-124.48h66.43m-65.873 228.31c0-20.655-2.789-35.728-8.372-45.774-5.582-10.05-12.841-15.07-21.768-15.07-7.257 0-13.953 4.469-18.98 14.516-5.03 9.49-7.814 25.676-7.814 48.01 0 21.21 2.788 36.841 7.814 46.888 5.584 10.05 12.278 14.511 20.09 14.511 8.377 0 15.07-4.464 20.655-14.511 5.582-10.05 8.372-26.24 8.372-48.563"/><path d="m2597.34 259.57h31.26v73.13h-31.26v186.99h-65.31v-186.99h-24.563v-73.13h24.563v-11.722c0-10.609.557-22.331 2.231-35.17 1.676-12.835 4.464-22.888 8.372-31.26 3.906-7.814 10.05-14.51 17.304-19.537 7.259-5.03 18.424-7.257 32.933-7.257 11.166 0 27.914 1.675 49.682 6.139l-7.257 60.29c-7.815-2.238-13.954-3.351-18.98-3.351-5.578 0-10.05 1.676-12.278 5.02-2.788 2.794-4.464 7.257-5.582 13.959-.557 3.908-1.113 11.166-1.113 22.888"/><path d="m2832.34 519.69h-60.841v-42.42c-8.935 17.304-18.424 29.589-27.352 36.846-9.49 7.815-20.655 11.16-34.608 11.16-17.862 0-31.821-8.371-41.868-24.557-10.602-16.192-15.629-41.868-15.629-75.921v-165.22h65.868v142.9c0 16.185 1.675 27.908 5.582 34.608 4.464 7.252 10.05 10.603 16.749 10.603 7.814 0 14.51-4.464 19.536-13.953 5.02-8.935 7.259-25.676 7.259-49.13v-125.03h65.31v260.12"/><path d="m2871.97 259.57h60.841v42.42c9.49-17.304 18.424-29.589 27.914-37.4 9.49-7.257 20.656-11.165 34.05-11.165 17.862 0 32.372 8.377 42.42 25.12 10.05 16.191 15.628 41.31 15.628 75.92v165.23h-65.873v-142.9c0-16.743-2.231-27.908-6.139-34.609-3.908-7.252-9.49-10.602-16.743-10.602-7.814 0-13.959 5.03-18.98 13.953-5.03 8.933-7.257 25.676-7.257 49.13v125.03h-65.868v-260.12"/><path d="m3158.33 345.53l49.13-85.96h80.38l-61.4 90.99 64.75 169.13h-73.69l-34.61-104.38-24.56 36.84v67.54h-66.98v-358.93h66.98z"/></g></svg>