<svg xmlns="http://www.w3.org/2000/svg" height="160.03" width="600" viewBox="0 0 158.75 42.341601"><g transform="translate(-21.17-125.39)"><path d="m28.36 131.34c0 1.96-1.596 3.56-3.56 3.56s-3.56-1.6-3.56-3.56c0-1.97 1.596-3.56 3.56-3.56s3.56 1.59 3.56 3.56" fill="#b40d34"/><g fill="#fff"><path d="m24.958 134.57h-.053c-.042.02-.095 0-.137.02 0 .001 0 .02-.001.02-.053.03-.105-.04-.095.07l.011.001c.063 0 .105-.05.147-.08.042-.02.095 0 .137-.001v-.03"/><path d="m24.506 134.58c0-.02-.021-.03-.032-.03-.001-.001-.021 0-.031 0v-.03c-.032-.001-.095.001-.126.02-.042.001-.063 0-.095 0 0 0-.001 0-.001.001.052.03.136.02.21.001.001.02-.011.03-.021.03v.001c.021.001.084 0 .094-.02h.011"/><path d="m23.33 134.19c-.011 0-.011 0-.021.02 0 .001-.021.02-.032.03.063.04.126.07.189.11.011-.02.021-.05.021-.07-.042-.04-.084-.09-.157-.09"/><path d="m23.23 134.05c-.042 0-.084 0-.126-.001-.021.001-.042.001-.053.03.053.05.126.05.221.04 0-.03-.021-.05-.042-.06"/><path d="m24.979 134.28v-.001h.021c.001-.001.001-.02.001-.03-.052-.02-.126 0-.2 0-.021 0-.063-.02-.073-.001h-.011c0 .001.011.001.021.02l-.001.001c-.011 0-.021-.02-.042-.001s-.053.04-.095.03-.199-.09-.22-.13c0 0 0-.001.001-.001-.031-.04-.073-.06-.115-.03-.042 0-.074-.04-.095-.05-.042-.02-.094-.02-.147-.03-.031-.06-.084-.09-.147-.09h-.001c.001.09.031.12.115.11.021.001.032.03.053.04v.03c.031 0 .031.001.063.02.001 0 .021.001.042.001v.001h-.032v.02c.053.08.147.07.231.1v.001c-.001 0-.031.02-.052.02-.063-.001-.147-.08-.221-.09v.02h-.084c-.052 0-.126.02-.168.001v-.001c.021-.02.074-.02.105-.02 0-.03-.157-.09-.189-.09l-.021.02h-.105-.031c-.011.04 0 .08.001.11-.001 0-.021 0-.031.001-.011 0-.011 0-.011.001v.001c.063.001.137.03.21.04.011.001.011.02.011.03-.032.02-.074.03-.126.03v.001c.001.02.021.02.031.03v.001c0 .001.074.04.084.04.042-.001.074-.04.126-.03.042.001.074.02.105.02v.001c-.021.001-.073-.001-.094.001.001 0 .021.001.031.02h.011c-.032.02-.105-.02-.126.02.052.05.115.04.168.06l.042-.001c-.011-.001-.042-.04-.053-.05 0-.02.011-.02.011-.03.094-.03.189-.02.283-.001.053 0 .095-.001.137-.001.001.001.001.001.001.02.074.03.137-.03.189-.03v-.001c.021 0 .032 0 .053-.001 0 0 0-.001-.011-.001 0-.001-.031-.02-.042-.02v-.02c.011-.001.021-.001.032-.02.001-.001.021-.02.031-.03.042-.02.147.001.169 0 .001 0 .001-.001.021-.001.001-.001.031-.001.042-.001.001 0 .001-.001.021-.02.021-.001.063-.001.105-.001v-.001c-.011-.001-.021-.001-.042-.001"/><path d="m23.907 133.91c-.031-.04-.084-.08-.168-.07.011.07.084.08.168.07"/><path d="m23.519 133.81c-.021-.04-.053-.08-.095-.08-.021.04.032.09.042.13.032.001.063-.02.053-.05"/><path d="m23.372 133.69c0-.02-.032-.03-.053-.04h-.052c-.011.001-.011.001-.021.001-.011 0-.011.001-.021.001.001.02.021.04.021.05.001 0 .001.001.001.001.053-.001.105-.02.116-.04"/><path d="m26.365 133.74c.001 0 .001 0 .001.001-.063.02-.115.04-.168.05-.031.001-.063.04-.084.05-.042.001-.073.001-.105.02-.094.02-.21.06-.315.04-.052 0-.105-.03-.147-.04-.063-.001-.168.08-.21.001.011-.02.011-.02.032-.02v-.02c.042-.001.115 0 .168 0 .094 0 .178 0 .262-.02.032-.001.063-.001.095-.02.001 0 .001.001.021.001 0 0 .147-.02.147-.02.001-.02.084-.07.084-.08s-.011-.001-.021-.02c-.032 0-.095.05-.126.05-.011-.001-.021-.02-.042-.001l-.116-.001-.052.001h-.074c-.126-.001-.157.03-.231.03-.042-.001-.084.001-.115 0-.053 0-.095-.001-.147-.001-.042 0-.084.001-.126.001-.021.001-.042.001-.063.001-.011-.001-.032-.02-.042-.02h-.116c-.084.001-.158.001-.231.02-.032.02-.063-.001-.095 0-.021 0-.042-.001-.042-.03v-.001c-.001 0-.001-.001-.021-.001-.031-.02-.063-.03-.094-.03h-.231c-.021-.001-.032-.03-.053-.04-.042-.03-.115-.06-.168-.05-.021 0-.042-.001-.063-.001-.021.001-.042.04-.052.001-.011 0 0-.001 0-.001h.021v-.001c-.011-.02-.032-.03-.042-.03-.032-.02-.063-.05-.095-.07.021-.001.032-.02.053-.02 0-.001 0-.001.001-.001-.021-.02-.042-.02-.063-.03-.073-.04-.073-.08-.168-.03-.031 0-.042-.05-.073-.04h-.011v.02c.032.001.053.03.084.04.011 0 .011-.001.032-.001.042 0 .073.04.094.07-.031.03-.105-.03-.126-.04-.001 0-.031.001-.042.001v.02c.042.03.095.05.158.07-.011.001-.011 0-.021.001h-.011v.001c.032.03.074.04.105.05v.001c-.031 0-.031-.001-.073 0-.011.02.084.05.115.05v.001l-.001.001v.001c.031.04.052 0 .084-.001.021 0 .063.001.073.02-.001.001-.042 0-.052 0l-.011.001c.021.02.063.02.095.03h.001v-.02c.053.001.105.02.158.03.052.001.115.02.168.04h.042l.021.02c.021 0 .063-.001.094-.001.042.001.074.03.126.04.042-.001.074-.001.105-.02.063-.001.105.02.137.03.021.001.042.02.053.04.001.04-.032.05-.064.05-.073.03-.178.06-.262.07v.001c.021.03.084.03.126.04.115.02.263.03.378 0 .042-.001.095-.001.126-.02.042-.001.074-.001.116-.02.084 0 .126.02.21.02.105.02.21.02.304 0 .053-.001.21-.03.305-.06.157-.04.21-.08.325-.15.032-.02.105-.04.137-.06.001-.02.105-.07.115-.09.032-.001.147-.1.179-.12.115-.07.325-.41.399-.51.021-.02.052-.08.031-.13-.063.001-.43.46-.472.5-.032.001-.053.02-.084.03-.021.02-.042.04-.063.05-.084.05-.179.05-.252.11l-.053.05c.032.001.158-.04.189-.04l-.073.06-.126.06"/><path d="m25.829 129.63c.011-.02.011-.04.011-.06.021-.001.031-.02.042-.03-.032-.04-.095-.09-.147-.11-.021 0-.053-.001-.074-.001-.021-.02 0-.07-.052-.09h-.011c-.001.02-.021.04-.021.07.042.05.084.08.116.12-.021 0-.032-.001-.053-.001-.001.02-.021.05-.021.07.011.03.021.04.053.04.001.001.001.03.001.04.032 0 .053-.001.074-.02.001.02.021.03.021.04v.001.001s.001 0 .001.001c.011.001.021.001.021.02l-.001.05c.021.02.031.07.073.07.021-.001.021-.03.053-.05l.001-.001c-.001-.001-.001-.001-.021-.001 0-.02.021-.03.032-.04v-.001c-.021-.02-.042-.03-.063-.04.021-.03.042-.05.073-.07v-.001c-.042.001-.084.02-.115.02h-.011"/><path d="m22.595 129.17l.031-.04v-.001h-.001c-.053.001-.074.07-.105.08v-.03c.052-.04.105-.09.157-.14l.021-.04v-.04c.021-.001.011-.03 0-.03.063-.04.095-.05.147-.1.032-.02.053-.07.084-.1l.095-.06c.084-.05.168-.13.273-.17.031-.001.084-.02.115-.04.074-.001.126-.03.189-.06.074-.03.116-.08.21-.08l.011.001c-.011.06-.158.1-.221.12-.105.04-.22.1-.325.17l-.074.05c-.001 0-.031 0-.042.001-.052.02-.094.06-.147.08-.021.02-.021.03-.021.05v.001h.011c.042-.02.073-.06.105-.08h.052c.042-.02.074-.04.105-.06.032-.02.063-.06.105-.07.011 0 .021.001.032.001h.021c.105-.05.22-.13.336-.16h.073c.063-.02.116-.03.168-.05.053-.02.095-.04.147-.07.032-.02.053-.03.084-.04.032-.001.063-.001.095-.02l.157-.06c.042 0 .084-.001.126-.02.011-.001.011-.001.011-.02h.001.011c.021 0 .052.001.063.001.031-.02.021-.06.031-.07v-.02c-.001-.001-.021-.001-.031-.001h-.011c-.001.001-.031.001-.042.02-.042.02-.073.06-.115.06h-.021-.2c-.063.001-.136.001-.21.001h-.094c-.042 0-.074 0-.105.001-.063.02-.116.04-.179.07-.136.04-.262.08-.388.15-.053.02-.095.05-.137.08-.063.03-.136.06-.199.11-.189.1-.368.25-.494.42-.031.05-.052.1-.084.15-.031.04-.063.08-.094.12-.084.1-.137.23-.158.4 0 .03-.031.1-.031.16 0 .02 0 .03.001.04l.011.001c.031-.001.031-.04.042-.05.021-.08.042-.14.063-.2s.063-.09.094-.14l.242-.33"/><path d="m26.16 129.38c.021-.001.021-.02.021-.03-.032-.03-.063-.05-.095-.07-.063-.04-.136-.13-.241-.13-.032 0-.063.001-.095.02v-.001c0-.03-.031-.06-.042-.06-.031.001-.084.001-.094.03l-.011.001c.021.02.053.07.105.07h.032c.052.02.094.05.147.07.001.001.031.001.052.02l-.001.001v.001c.031.03.073.02.105.03v.001c0 .05-.021.09-.042.12.001.001.021.02.031.02 0 0 0 .001-.001.001.073.02.115.05.168.07.001 0 .021 0 .031-.001l.011-.001v-.001c-.021-.001-.063-.03-.063-.05l-.011-.001h.011.052c.042 0 .063.03.137.04l.031-.001v-.02l-.22-.12"/><path d="m26.21 129.01c-.021.02-.031.04-.031.05-.032-.02-.074-.03-.116-.04-.001-.001.011-.03-.021-.06-.021.02-.031.02-.042.03-.021 0-.042-.001-.063-.001h-.001c.021.05.073.08.136.08h.032c0 .001.001.001.001.001v.001.03.001c.011.001.021.001.032.001.042 0 .094-.04.147-.04.001-.001.001-.02.001-.02v-.02c0 .001.011.001.021.001.021 0 .032 0 .053.001.021-.001.042-.03.052-.03 0 .001.011.001.011.03h.021.021c.001 0 .021-.001.021-.02-.021-.05-.074-.09-.137-.09-.021 0-.042 0-.063.02h-.052l-.032.03"/><path d="m24.25 128.59l.031-.05v-.001c-.021-.001-.031-.02-.052-.02h-.011c-.021.001-.042.02-.063.02l-.001-.001c-.011 0-.032.001-.032.001h-.001c0 .001-.011.03-.021.05-.032.001-.053.02-.074.05v.02h.063c.084 0 .074.001.147-.04l.032-.02"/><path d="m25.546 129.95v.02.001c.031 0 .042-.02.052-.02.011 0 .011 0 .021.02h.011c.031 0 .052 0 .073-.02v-.001l-.031-.001s0-.02-.011-.03c-.031-.02-.084-.03-.084-.06-.021-.02-.042-.02-.052-.02.001-.001.021-.03.042-.04.001-.001.001-.02.001-.03s0-.02-.001-.03c-.021-.001-.042-.001-.053-.001h-.001c-.021.02-.021.04-.032.04-.021.02-.042.02-.073.02l.001-.08v-.03l-.001-.001-.053.05c-.021.03-.031.08-.063.08v-.03c.011-.001.011-.001.011-.02 0-.02-.021-.03-.021-.04.001.001.001 0 .031 0v-.02c-.001-.02-.031-.04-.031-.05-.021-.11-.042-.28-.158-.29-.031.02-.063.03-.063.09v.001c.011.001.021.001.021.02h.011c.021-.001.031-.02.031-.04.021.001.032.02.042.04-.001 0-.021.001-.031.02v.02l.001.001h.021c.011 0 .021-.001.032-.001.001.001.021.02.021.04 0 0-.011.001-.011.04v.001c.011.04.021.08.042.12 0 .02-.031.02-.042.05-.001.04 0 .07-.001.08-.032.03-.063.05-.095.07-.031.05-.031.09-.094.09l-.021-.03s.001-.001.001-.03c-.021-.02-.031-.02-.031-.05 0 0 .001-.001.031-.001.021-.02.032-.04.032-.06 0-.04-.011-.06-.021-.07l-.021-.001c0 .001-.021.02-.021.02-.022 0-.022-.001-.032-.02 0-.02.053-.03.074-.06.021-.04.001-.11.031-.15 0-.001-.001-.02-.001-.02h-.021c-.032 0-.042-.02-.074-.04-.053.001-.095.03-.126.05-.032.001-.032.03-.053.04-.001.001-.001.001-.001.02.021.05.063.05.073.08.011.001.021.001.021.001.021 0 .032-.001.053-.001.001.001.021.001.021.02v.001.02c-.011.001-.021.001-.021.001h-.011c-.001 0-.001-.001-.021-.03-.031 0-.031.02-.052.02-.011.001-.011.02-.011.02.021.03.042.07.074.09-.011.001-.042.03-.042.03l-.011-.001c-.073-.05-.115 0-.126-.09l-.001-.001c-.011 0-.021.001-.032.001-.001-.001-.021-.001-.031-.02-.021-.001-.042-.001-.063-.02 0-.001-.021-.02-.032-.03l-.042-.03c0-.001-.001-.02-.001-.03-.021-.03-.063-.04-.095-.05-.001.001-.021.02-.031.02-.011.03-.011.03-.011.04.021.02.095.03.084.04h.011c0 .001-.011.02-.032.02-.031 0-.052-.001-.073-.001-.042.04-.074.08-.147.08 0-.02.052-.04.063-.07-.032-.02-.042-.001-.042-.03-.042-.02-.063-.001-.084-.02-.032.001-.042.02-.053.02h-.001c-.011 0-.011-.02-.032-.04-.031.001-.031.02-.042.03-.001.001-.021.001-.031.001-.021 0-.053-.001-.074-.02.032-.02.105-.09.105-.15v-.001c0-.03-.031-.06-.031-.1l.042-.06c.042-.04.094-.05.147-.1.021.001.031.02.042.03.063-.001.105-.02.157-.02h.053c.001-.001.021-.001.021-.02l-.021-.02-.021-.04.031-.001c.011 0 .021.03.032.03h.021c.042-.001.147-.03.189-.02 0-.001.001 0 .001 0l.011.02h.063c.178 0 .242.12.315.15l.011.001.001-.001c.011 0 .021 0 .021-.02-.021-.03-.031-.08-.052-.11s-.106-.05-.106-.06c-.021-.05-.136-.09-.189-.11-.001-.02-.052-.03-.052-.04l-.011-.02c-.115-.04-.178-.001-.262-.04l.031-.02c.032 0 .053 0 .084-.001 0 0 .032-.001.053-.02l.063.02c.073.001.105.02.157.04h.011l-.011.001c0 .001 0 .001.011.001v.001c0 .03.021.03.001.04.021.02.032.03.053.04l.001-.02h.011c.042.02.063.05.116.05h.001c.011-.03.011-.05.011-.07.021.001.031.02.052.03l.021-.001v-.001-.001c-.021-.04-.073-.04-.094-.05-.011.001-.011.03-.011.03v.02c-.053-.001-.074-.06-.126-.08v-.001h.021c.021 0 .063.02.095.03.001-.02.001-.03.021-.04-.042-.05-.085-.06-.137-.06h-.053c0-.001.011-.02.011-.02-.021-.03-.074-.03-.105-.03.001-.02.021-.04.021-.06v-.02h-.053-.063c-.001 0-.031 0-.042-.001.011 0 .021 0 .021-.02-.021-.001-.042-.02-.052-.02-.011 0-.021 0-.021.001-.011.001-.011.02-.011.03v.03c-.001 0-.031.001-.052.001h-.053c-.021 0-.052-.001-.084-.001-.021 0-.042.001-.073.02l-.252.07c-.032.02-.074.05-.095.07l-.042.02c-.126.04-.063.19-.231.2l-.021-.03.063-.13c-.021-.001-.021-.001-.031-.001-.074 0-.158.1-.21.1-.011 0-.032-.001-.042-.02l-.011-.001h-.001v.04c.001.02.021.02.031.02v.001c0 .001-.001.001-.001.02.001.001.021.02.031.02h-.001c-.021.001-.011 0-.042.001v.001l-.011.001.011.001c-.063.04-.147.05-.2.09-.073.05-.147.19-.178.27-.021.04-.021.07-.053.12v-.001l-.021.02c-.001.02-.042.04-.063.07-.021.05-.021.13-.021.19v.13c0-.001 0 0-.001 0 0 0 0-.001-.011-.001-.031.001-.031.03-.031.05v.05.02c0 .001-.011.03-.011.04l.032.05c.001.001.001.03.021.06.001.02.031.04.042.06.001.02 0 .03.021.05.021.05.063.05.084.08.001.001.021.02.031.03.011 0 .021.001.021.001.021.05.074.1.105.15.011.02.021.04.032.05.001.02.052.02.073.03.021-.001.042-.02.063-.04 0-.05-.042-.1-.063-.14.021-.001.021 0 .063-.001.021.001.053.03.074.05h.042l.001-.02c-.021-.02-.001-.03-.031-.06h.001c.011-.001.053-.001.074-.02l.094.05h.021c.053 0 .084-.05.116-.05.021 0 .042 0 .063.001.021-.001.031-.02.042-.04v-.02c-.021-.02-.042-.02-.042-.05h-.011c0-.001.042-.02.053-.03l.084.02h.042.031.021.063c.021-.001.042-.03.053-.04.001-.001.042-.001.063-.02v-.001c-.021-.02-.042-.03-.053-.03-.021 0-.042.001-.052.001-.011 0-.021 0-.032-.001-.021 0-.042-.001-.063-.02h-.021c-.021 0-.042.001-.063.001h-.001c.001 0 0-.001 0-.02-.011-.001-.011-.001-.021-.001-.053 0-.105.05-.137.05h-.001-.011l.011-.001h.021v-.02c-.011-.02-.021-.02-.042-.03-.011-.001-.032-.001-.042-.02h-.011c-.042 0-.063.02-.084.02h-.001-.032c-.001 0-.021 0-.031.001-.011.001-.021.001-.032.02h-.001c-.011.001-.053-.001-.053-.02l-.073.001c-.011.02-.021.02-.042.03h-.032c-.042 0-.063-.03-.084-.06.011.001.021.001.021.001v-.001h.032l.001-.001v-.04c-.042-.001-.178-.07-.189-.08 0 0 0-.001-.001-.02l.001-.001c-.021-.02-.031-.02-.042-.02-.001 0 0 .03-.001.03l-.042-.02-.011-.04c0-.02.011-.06.021-.08.032-.06.042-.11.105-.12v.04.02s0-.001.011-.001v.001c0-.001.001-.001.001-.001.032-.001.021-.05.042-.05.011 0 .021.001.042.001.042-.05.053-.09.084-.12.011-.02.042-.02.053-.04l.001-.001c0-.001-.001-.02-.001-.03.001-.04.073-.09.105-.12h.001c.053 0 .084-.03.116-.05v.02c.001.001.021.02.021.02.001.001.021.001.021.001.021-.001.021-.02.021-.02v-.001h.001c.011.001.011.02.021.03.032 0 .042 0 .053-.001.001-.02.001-.06.001-.07.011 0 .021-.02.032-.02l.042-.001.001.04v.001c0 .07-.052.15-.052.21v.02c0-.001-.021-.001-.032-.001h-.052c-.011.001-.021.02-.032.03-.031.02-.084.001-.136.03v.001.001c0 .001.021.001.031.001h.053c.001 0 .021 0 .021.02h-.011c.011.04.032.05.042.05.011 0 .011 0 .021-.001.011-.001.011-.02.011-.02.001 0 .031-.02.052-.03 0 0 0 .001.011.001v.03c-.011.001-.032.02-.042.04-.011.001-.021.02-.021.03h-.053c-.001.02-.021.04-.031.06v.001h.001.032c.001-.001.001-.001.021-.001v.001.02c.001.001.021.001.031.03.032-.03.042-.05.063-.05.011-.001.011-.001.021-.001.021 0 .042.001.074.001.001 0 .021 0 .031-.001.021-.001.042-.02.063-.04.032-.02.074-.03.116-.04h.052c.053 0 .105.001.137.02.021.001.042.02.063.02.001.001.021.001.031.001.042 0 .095-.02.137-.02.001 0 .021.001.031.001.168.02.263.05.305.21v.001c0 .05-.095.14-.126.17-.063.08-.147.18-.252.23l-.105.04c-.011.001-.032.02-.042.03-.021 0-.042.001-.063.001 0 0-.011-.001-.032-.001h-.001c-.021 0-.095.02-.105.04l-.011.02c.032.02.053.03.074.04h-.011s-.021.001-.042.001-.052.001-.073.001c-.063.06-.074.06-.168.06h-.032l-.042-.05h-.001c-.032.04-.042.07-.084.09-.021.03-.084.001-.126.03-.032.001-.053.001-.084.02-.021 0-.042-.001-.063-.001-.011.001-.021.001-.021.001h-.011c-.001 0-.021 0-.031-.001-.011.001-.021.001-.032.001-.021-.001-.052-.02-.073-.04-.042 0-.063 0-.084-.001 0-.001-.011-.02-.021-.03-.021-.001-.095-.04-.105-.05h.001.011c.001-.001.001-.02.021-.02-.021-.03-.032-.04-.053-.04-.031 0-.063.03-.094.03-.011 0-.011 0-.021-.001-.021-.001-.042-.06-.053-.1-.021-.03-.063-.06-.094-.08h-.042c-.032-.001-.053-.04-.053-.08l-.001-.001.001-.02c.011-.03.021-.07.021-.11v-.001l-.001-.001c-.021.001-.032.001-.042.02l-.021-.001-.053-.05v-.001l.011-.001v-.02c0-.02-.011-.03-.011-.03v-.001c0-.02.032-.04.053-.06.001-.001.001-.001.001-.02 0-.02-.001-.03-.021-.04.053-.03.095-.09.116-.16v-.05c.031-.06.052-.1.084-.15.001-.03.021-.06.031-.1 0-.02 0-.04.011-.06.001-.001.021-.02.021-.02.001-.001.001-.02.001-.02v-.02c0-.03.011-.03.011-.05v-.04c.052-.05.052-.11.126-.14.021-.04.031-.08.042-.12v-.001l-.042.001s-.084.05-.137.15c0 0-.031.02-.042.02-.063.03-.094.16-.136.22 0 .001-.011.02-.021.02-.021.02-.032.05-.042.08 0 .001-.011.02-.011.04-.001.001-.021.02-.021.05v.001c.011.001.021.02.032.03.021-.001.021-.001.031-.001v.001c0 .03-.021.08-.042.09v.001c0 .02.011.04 0 .06v.02c-.001.06-.052.1-.073.18-.011-.001-.011-.001-.021-.001h-.011c0 .001-.001.001-.021.02 0-.001.011-.02.011-.03 0-.02-.011-.03-.011-.05.021-.04.032-.08.053-.12 0-.001.021-.05.021-.08v-.03h-.011c-.042.02-.031.06-.042.08 0 0-.021 0-.031.001-.032.04-.011.06-.053.06-.021.03-.031.08-.031.11 0 .02.001.04.001.05-.001 0-.001.02-.001.04v.03c.021.001.031.001.052.001.011-.02.021-.03.032-.04.001.001.001.001.001.02s-.042.06-.042.07 0 .02-.001.02h-.011-.021-.021c-.001.001-.021.02-.042.03 0 .001-.001.001-.001.02v.001c.001.001.021.001.021.001.021 0 .031-.001.042-.001h.001s0 .001.011.03l.001.001h.011l.063-.06.031.04v.03c0 .02.011.03.011.03 0 .001-.032.08-.042.08v-.03c-.011-.001-.021-.001-.021-.001-.021.001-.021.02-.021.03v.001.02c-.011.02-.021.03-.021.07 0 .001.001.001.001.02.053-.001.074-.05.095-.05l.126.14c0 .001.021.04.021.05s-.011.001-.011.02c-.042-.02-.052-.001-.084-.03-.021 0-.021.001-.031.001 0 .001-.011.02-.011.02 0 .001 0 .001.011.02.021.05.094.07.147.1.031-.03.052-.05.084-.06h.001s.032.11.032.12-.011.02-.011.02v.02h.032c.021-.02.021-.04.042-.05 0 .001 0 .001.001.001.021 0 .032-.001.042-.001.021 0 .032.03.042.06.032 0 .042-.001.053-.001h.001.011l.052.02c.021.02.032.05.074.05h.001c.011 0 .011-.001.021-.001v-.001c-.001-.02-.021-.03-.031-.04v-.001.001h.001c.021 0 .053-.001.074-.001h.021c.031.001.031.03.063.03h.042c.001-.02.001-.03.021-.04.001 0 .001-.001.021-.001.021 0 .042.02.073.02h.032c.073 0 .157-.04.189-.08.001.001.031.001.052.02.032-.001.063-.03.095-.04h.063.052c.032 0 .053 0 .084-.001.032-.02.063-.04.084-.05.042-.02.095-.02.137-.03l.001.03c-.001.02-.021.05-.042.05l-.001-.02c-.021.02-.032.02-.032.02h-.001l-.011.001s-.001 0-.001-.001c-.011 0-.021.001-.021.02-.032.03-.074.05-.116.08l-.001.001c.021.001.021.02.031.02.032-.001.063-.03.095-.04.042 0 .073 0 .115-.02.032-.001.053-.04.084-.05 0 0 .011 0 .021-.001.021-.001.021-.03.032-.03.021-.001.052-.001.073-.001.011-.001.011-.02.011-.02 0-.001-.011-.02-.011-.02v-.001h.021c.011 0 .021.001.021.02.011 0 .011.001.021.001h.011c.021-.03.063-.04.105-.06.001-.02.021-.03.031-.04.011 0 .021-.001.032-.001.001-.001.021-.02.031-.03h.032c.021-.04.042-.06.063-.08v-.02c-.032 0-.042.001-.053.001v-.001c0-.001-.001-.03-.001-.05-.011-.03-.053-.03-.074-.04v-.001c0-.02.021-.05.021-.09h.021.021.021c.011-.001.021-.03.021-.04h.011c0 .001 0 .001.001.02h.032c.001-.02 0-.03 0-.04v-.001c.001-.001.021-.03.021-.04v-.03c.001-.05.105-.13.137-.14.021 0 .042-.001.063-.02l.084.001c.031 0 .052-.03.052-.04h.063v.001c-.001.03-.042.05-.063.08 0 .03.021.03.021.04.011.02-.052.06-.073.08-.084.07-.189.13-.242.24v.02c.001.001.021.001.021.001.021 0 .032-.02.053-.02-.011 0 0 0 0 .001v.02l.001.001c.053-.001.032-.05.053-.08.001-.001.031-.02.052-.03v.001.001.001c.011.001.021.02.021.02.011 0 .011-.001.021-.001.021-.001.021-.03.042-.03v-.04c0 .001.011.001.021.001.021 0 .042.02.053.03h.001c.021 0 .032 0 .042-.001.011 0 .021-.02.021-.03s-.001-.02-.001-.03c.001 0 .021-.001.031-.02v-.04c.011 0 .032-.001.053-.001.001-.02.001-.04.001-.06v-.001c-.001-.03-.021-.03-.031-.03h-.021v-.001c.001-.001.042-.001.084-.03v-.001c.001 0 .001-.001.001-.001 0-.001-.001-.001-.001-.02l.021-.02v-.001c.001-.001.042-.03.073-.03v-.001c-.001-.001-.021-.02-.031-.02-.021 0-.053.02-.074.02 0-.001 0-.001-.001-.02h-.105c-.011-.001-.021-.02-.021-.05 0-.04.052-.09.084-.09h.001c.011.001.021.02.021.04.011.001.021.001.021.001.021 0 .032-.001.042-.02v-.001l.074.03"/><path d="m25.43 128.89c-.001 0-.031 0-.042.001v.001c0 .03.105.15.179.15.001 0 .031 0 .031-.001.011-.001.021-.02.021-.03 0-.06-.094-.13-.189-.13"/><path d="m25.304 128.25v-.001l.011.001.021-.06c-.021-.03-.105-.05-.137-.05-.021.03-.042.04-.073.04l-.011.02v.001c.074.001.095.02.189.04"/><path d="m26.459 129.62l.011.03c.021.06.21.15.315.15.001 0 .031-.001.042-.001l.001-.001c-.021-.06-.252-.21-.304-.22-.021.02-.053.001-.063.02l-.011.04"/><path d="m24.695 128.35v.001c.021.001.042.02.052.03 0 0-.001 0-.021.001-.021.001-.031.03-.031.04h-.053c-.042 0-.105-.001-.126-.001l-.073.001c-.011.001-.011.02-.011.02 0 .001-.042.02-.073.02-.011 0-.021-.001-.032-.001l-.001.001v.03c-.011 0-.011.001-.011.001v.001.001c.032.03.053.03.074.03h.105.031c.032.001.063.001.084.02l.021-.001c-.001-.02-.001-.02-.021-.04.011 0 .021.02.021.02.053-.02.074-.04.116-.04s.073.05.105.07c.021 0 .031.001.042.001.021.001.031.04.063.05l-.011.001c.011.03.043.06.085.07v-.001c.021 0 .031-.001.052-.001.042.06.116.09.221.1 0 0 .031.04.063.05h.042c.021 0 .042-.001.063-.03v-.02c0-.03-.042-.03-.084-.04-.011 0-.032.001-.042.001-.011-.001-.021-.04-.042-.05 0-.001.001-.02.001-.03v-.001h-.001c-.011 0-.011 0-.021.001 0-.001-.011-.02-.021-.03l-.021-.02v-.02c-.063-.05-.116-.1-.221-.11.011-.001.032-.001.042-.001.032-.001.105.03.137.05.021-.02.031-.02.031-.02.021 0 .021.02.032.02h.001c.021-.02.053 0 .063-.03h.032c.042 0 .084.04.084.04h.073s0 .02.021.03h-.001l-.011.001h-.021c-.031 0-.063-.001-.084-.001l-.001.001c.042.06.136.08.199.1.021-.001.021-.001.032-.02v-.001h.001c.011 0 .042.001.063.02.032.03.032.04.084.07.042.02.053.04.084.04h.042c.011 0 .032-.001.032-.03v-.001c-.011-.05-.063-.05-.063-.07-.011-.04-.116-.06-.116-.08.011-.001 0-.001-.001-.02.001 0 .001 0 .001-.001v-.001c.011 0 .021.001.021.001.021-.001.032-.02.032-.03v-.02c-.074-.02-.147-.04-.221-.06v-.02c.011 0 .053-.02.084-.02.011 0 .021 0 .032.001.001-.001.021-.02.021-.03h-.011v-.001s-.001-.001-.031-.001c.021-.02.084-.02.126-.03l.001-.001c-.031-.001-.052-.001-.073-.001.001-.02.001-.03.021-.04l-.011-.001c-.094 0-.178.07-.252.07-.001 0-.021 0-.031-.001-.021 0-.032 0-.053-.001h.053l.001-.02-.001-.02c-.011 0-.032-.001-.042-.001h.021c.021 0 .052.001.073.02.032-.02.053-.04.074-.05.001-.001 0-.02 0-.02-.042-.03-.105-.05-.168-.05-.011.001-.032.02-.053.02-.021.001-.021.02-.021.03s.021.02.032.03c-.011.001-.011.001-.021.02.001.001 0 .001 0 .001-.011 0-.032 0-.042.001h-.053-.021c-.052-.001-.126-.02-.199-.02-.032 0-.063 0-.095.001l.032-.03c.031-.001.052-.001.084-.001h.063c.001 0 .021-.001.021-.001v-.001c-.032-.03-.074-.03-.116-.03h-.105.011s.021-.001.021-.02h.001l-.001-.02h-.021c-.032 0-.064.001-.085.001-.021.001-.031.02-.031.03 0 .02.021.03.021.04.021 0 .042-.001.052-.001v.03l-.094.03h-.042-.042-.011c-.021 0-.031.04-.031.04"/><path d="m21.839 130.47c.021-.05.147-.16.168-.2.031-.1.115-.2.147-.2h.001.011c-.011.09-.179.35-.105.51v.11.02c.063.07.084.11.115.25h.021l.063.09c.011.05.084.09.084.13 0 0 .273.07.315.1.063.03.074-.05.105-.06.095-.02.168-.001.252.03 0 .001.074.03.074.06l.136.001c-.105.18-.441.13-.651.09l-.21-.03c-.294-.13-.304-.16-.42-.28l-.052-.09c0-.001-.042-.14-.042-.15-.042-.06-.137-.17-.126-.21.021-.05.031-.04.073-.03l.032-.15"/><path d="m22.385 131.73c-.011.04 0 .03.031.05l.095-.001c.042 0 .052.06.084.08.105.06.168.001.283.03v-.001c-.001-.001-.021-.001-.031-.02.073-.03.136-.001.199-.02 0-.02-.021-.02-.001-.03.001 0 .031-.001.031-.001v-.03l.042-.03c.032-.03.063-.02.105-.06.053.001.011.04.053.05-.011.02.042.02.021.04-.042.02-.063.02-.105.04l-.105.06c-.011.001-.231.07-.252.07-.105.02-.116-.02-.2-.001-.063.001-.262-.06-.315-.09-.105-.05-.084-.15-.241-.12-.063-.05-.116-.04-.168-.12-.011-.02.021-.02.031-.02-.001-.001-.063-.04-.063-.06.032-.02.21.07.21.07-.073-.14-.147-.07-.262-.15l-.116-.1c-.031-.03-.115-.16-.126-.2l-.021-.03.011-.001c-.011-.001-.032-.02-.032-.04-.031 0-.031.02-.052.02 0 0-.011 0-.011-.02v-.03h.021s.011-.001.011-.02c-.021-.02-.032-.05-.032-.08.011 0 .021-.001.053 0v.03c0-.001 0-.001.001-.001v-.001c0-.02-.021-.03-.021-.07l.011-.02h.042c-.032-.02-.042-.07-.032-.11.011-.001.021-.02.032-.02h.021c0 .03 0 .06.001.08l.032.15c-.021.001-.021.001-.042 0v.03c0 .001.001.001.001.001.011-.001.021-.001.032-.02.001.001.021.03.031.04v-.001c.032.001.053.09.063.11v.03.03l.042.09c0 .001.105.12.105.13.158.02.21.06.336.09.011.03.021.04.021.06.116-.001.221.03.263.09 0 .001-.011.001 0 .001.063.04.147.03.21.08-.011.001-.021.001-.032.02l.126.07c.042 0 .032-.001.084-.001 0 .001 0 .02-.001.02l-.021.001c-.011.001-.053.001-.053.001-.031-.001-.105-.05-.115-.04l-.189-.08-.074-.001-.031.03"/><path d="m25.25 131.75c-.042-.03-.042-.03-.084-.03-.053-.001-.053.001-.084.03-.021.001 0 .02.001.03h-.073c0 .001-.011.001-.021.001.001.04.052.03.084.04.084.001.147.04.231.03h.001v-.001c-.001-.001-.031-.02-.042-.02.032-.001.011-.06-.031-.08"/><path d="m23.592 132.46c-.042-.02-.073-.05-.105-.08-.063-.02-.189-.02-.252 0v.001.001c.021.02.063.03.084.06v.001c-.042.001-.052-.02-.084-.03-.063-.04-.157-.05-.199-.13-.095-.001-.284.06-.326-.02v-.02c.021-.001.095.001.126.02.053 0 .116-.001.158-.02.001-.001.031-.001.031-.02s-.001-.02-.001-.04h.063c.031 0 .042-.001.073 0 .021-.03.053-.06.095-.06.021.001.042.001.063.02.073.001.126-.04.136-.1v-.001c-.042-.06-.21.03-.231.03-.052-.001-.094-.04-.157-.03-.053.001-.095.001-.147.02-.042 0-.042-.06-.126-.04-.042.001-.032.04-.053.05 0 0-.105.04-.105.05-.031 0-.052-.001-.073-.001-.032.001-.074.03-.116.02-.094-.02-.094-.1-.157-.11-.011-.001-.011-.02 0-.03 0-.001-.011-.001-.011-.001-.042-.001-.084-.02-.126-.04-.052-.02-.094-.07-.168-.07l-.001.02c.001 0 .001.001.001.02v.04c.011.001.021.03.032.04.001.001.021.03.031.05.011 0 .074.07.084.07.042.02.147.04.168.08.011.02.011.03.011.04.001.02.021.03.021.05-.011.03-.053.001-.074.03v.001c0 .03.042.04.063.07s.084.13.158.11c.001-.001.021-.02.042-.02.073.06.168.09.262.12.063.02.179.05.2.1v.05c-.011.02-.042.02-.063.05.001.02.042.07.063.08.031.001.157.03.199.02v-.001c.011-.02-.001-.03-.001-.04-.011-.02-.011-.05-.032-.06-.042-.001-.084.001-.094-.03.001-.001.031-.001.042-.02-.011-.04-.042-.03-.063-.06.189-.03.252.2.367.22.021-.001.021-.03.032-.04h.031c-.021-.03-.042-.04-.063-.07v-.001c.011-.001.021-.001.042-.02v-.001c-.021-.02-.126-.07-.105-.12.021-.04.231.03.284.02h.001v-.03c-.001-.001-.021-.001-.021-.03.011-.02.084-.09.074-.12-.011-.02-.053-.02-.074-.03"/><path d="m24.03 133.23s-.001 0-.001.001c-.011.02-.021.06-.011.08.011.001.021.03.042.03.021-.001.032-.02.063-.04h.011c-.011-.04-.053-.08-.095-.08"/><path d="m23.529 132.93c0 .03.021.03.021.06-.021.02-.031.02-.021.05-.063 0-.094-.05-.168-.05-.001.001-.021.03-.031.03-.011.001-.011.001-.011.02.021.02.189.05.231.05v-.001c0-.001-.001-.02-.021-.04.042.001.074.02.105.001.032-.04-.052-.12-.105-.12"/><path d="m22.857 133.09c-.021.06.032.15.105.16h.011c.001-.07-.042-.14-.116-.16"/><path d="m22.616 132.75c0 .02.021.07.042.09.042.001.105.001.147 0h.001v-.02c-.042-.03-.126-.09-.199-.09v.02"/><path d="m24.979 132.43c-.042-.001-.053.03-.095.05-.031-.02-.052-.06-.073-.07-.053-.02-.105 0-.158-.02l-.001-.08c-.063-.04-.116-.08-.168-.12-.032-.02-.053-.04-.074-.06h-.042c-.031.03-.031.1-.084.12-.053.03-.084-.001-.126-.02-.095 0-.2.04-.252.1v.001c.031.02.073.001.105.02.021.02.042.03.063.04h.021c.021-.02.042-.05.063-.07.063-.04.2-.04.263-.04.021.04.001.08.031.11.021.001.042.03.063.04.021.02.011.04.021.06.063.08.452.14.494-.03 0-.03-.021-.04-.042-.04"/><path d="m25.934 131.6c-.001-.02-.001-.04-.021-.05-.052-.001-.073.03-.115.02-.011-.001-.021-.02-.032-.03h-.031c-.053.03-.105 0-.179.02-.001.02 0 .05-.001.07 0 .001-.011.001-.011.02-.031 0-.042-.03-.063-.02v.001c0 .06.074.02.105.06.021.001.021.05.042.06.126.08.126-.03.21-.04.042-.001.084.001.105.001.042.02.095.001.126 0 .032-.05-.105-.09-.126-.13"/><path d="m25.871 132.02c-.031.02-.063.02-.073.05v.02c.001.04.094.001.115.001l.011-.02c0-.03-.021-.05-.053-.06"/><path d="m25.661 131.97c-.052-.04-.189-.14-.262-.15v.02c.021.04.115.09.157.12s.084.05.116.08h.001c.042-.02 0-.07-.021-.07"/><path d="m24.905 132.21c-.042 0-.063-.02-.105-.001-.021.02-.021.06 0 .08.032.03.084 0 .126.001.032.02.074.04.105.06h.011.042s0-.001.001-.001v-.04c-.063-.1-.063-.09-.189-.09"/><path d="m23.666 133.05c0 .001 0 .04.001.06.021.02.242.11.294.11v-.001-.001c-.042-.06-.21-.16-.283-.17-.011.001-.021.001-.021.02"/><path d="m24.79 131.57v.001c0 .04.073.08.126.08l.001-.001c.011-.04-.084-.08-.126-.08h-.001"/><path d="m24 131.86c-.063-.04-.084-.03-.158-.001 0 .001-.001.001-.001.02.021.001.042.07.073.07.032.001.074-.05.084-.07.053.001.074.08.126.09.105.03.2 0 .295-.02.063-.02.115-.03.178-.05.011-.001.011-.001.011-.02-.021-.02-.074-.02-.105-.03v-.02l.001-.001c.032.001.063.02.095.02.073.02.283.02.325-.001 0-.001.011-.001.011-.001-.042-.05-.126-.02-.179-.03-.021-.001-.031-.02-.042-.03-.021-.02-.031-.02-.031-.04.021-.04.073-.04.105-.05v-.02c-.011-.001-.021-.02-.042-.02-.105.04-.221-.04-.252.09h-.042c0 .001 0 .001-.011.001.011.001.021.02.032.03.001.02 0 .03-.011.04-.021.06-.084.02-.136.001-.011.001-.011.02-.022.03-.021.02-.063 0-.115.001-.053.001-.137 0-.189.02"/><path d="m24.422 131.36c0-.02-.021-.05-.042-.06h-.021c-.031.04-.095 0-.095.09l.011.001c.063.02.126 0 .147-.04"/><path d="m22.668 132.68v-.001c-.001-.02-.052-.02-.073-.03-.042-.02-.105-.1-.158-.1-.001.001-.021.02-.021.03-.031-.001-.073-.02-.084.001v.02c.021.02.042.04.074.06h.001c.011-.001.011-.03.011-.04l.001-.001c.042.03.158.1.221.08l.001-.001"/><path d="m25.04 131.46c.021-.04.031-.1 0-.13h-.021c-.011.001-.032.02-.042.03-.021.001-.021.03-.032.05-.021.001-.031.02-.042.02 0 .001 0 .001-.001.02.031.04.105.02.147.001"/><path d="m24.905 131.11c.053-.001.084.001.126.02h.032c.021-.09-.042-.15-.095-.19h-.021c-.105.07-.357.17-.21.27.126.001.116-.06.168-.1"/><path d="m22.16 132.41c-.031-.02-.084-.02-.115-.04-.021-.02-.011-.04-.021-.07-.021-.04-.2-.13-.252-.14l-.011.001c.011.05.084.05.126.08.074.04.158.31.242.29.031-.03.052-.09.031-.13"/><path d="m23.802 131.42c.011.03-.021.09.032.09.021-.02.042-.07.084-.08h.105s0-.001.001-.001c0-.02-.031-.03-.021-.06l.011-.001c.073-.02.084 0 .126.03h.001c.011-.02 0-.03 0-.04 0-.05.021-.08.042-.1v-.001h-.001c-.011 0-.011 0-.021-.001-.021.001-.042.001-.074.02-.042.02-.084.05-.126.07-.042.03-.094.09-.157.09v-.04h-.011c-.021 0-.021.001-.031.03.001.02.021.001.031.03"/><path d="m22.22 132.63c-.011 0-.021 0-.032.001h-.001c-.011.03.042.07.063.08.001 0 .021 0 .031-.001 0 0 0-.001.011-.001 0-.04-.021-.07-.063-.07"/><path d="m23.697 131.51c-.001 0-.031 0-.042-.001-.031.001-.063.001-.084.02-.094.03-.147.05-.168.09.032.02.074.03.137.02.073-.001.189-.1.157-.12"/><path d="m23.519 132.05c.052.1.304.12.315-.03-.021-.03-.063-.05-.126-.05-.063.03-.126.03-.179.06 0 .001 0 .001-.001.02"/></g><g fill="#740232"><path d="m82.78 128.15l-1.744 4.97-1.617-4.97h-1.659l2.52 6.73-.021.05s-.504 1.38-.966 1.7c-.346.18-1.176.17-1.491.15v1.27c.546 0 1.827.03 2.247-.23.515-.33.63-.46.987-1.19.389-.79 3.361-8.48 3.361-8.48h-1.617"/><path d="m74.66 129.27v-1.12h-1.554v6.78h1.554v-2.58c0-.46.042-.85.168-1.18.473-1.24 1.775-1.59 2.447-1.69l-.536-1.29c-.535.09-1.491.35-2.079 1.08"/><path d="m47.903 133.73c-1.186 0-2.026-.97-2.026-2.19 0-1.2.819-2.18 1.953-2.18.787 0 1.281.35 1.764.85l.956-1.04c-.63-.69-1.418-1.16-2.71-1.16-2.026 0-3.518 1.62-3.518 3.55 0 1.94 1.492 3.52 3.508 3.52 1.323 0 2.111-.53 2.772-1.27l-.934-.93c-.484.51-1.03.85-1.765.85"/><path d="m68.7 128.01c-.483 0-.935.09-1.334.27-.399.19-.756.44-1.05.76s-.525.69-.682 1.12c-.168.43-.252.89-.252 1.38v.03c0 .51.094 1 .273 1.43.178.43.43.8.745 1.11.305.31.672.55 1.103.71.42.17.871.27 1.365.27.63 0 1.166-.12 1.607-.35.451-.23.84-.55 1.165-.92l-.913-.82c-.273.27-.546.47-.83.61-.283.13-.619.21-1.01.21-.504 0-.935-.16-1.292-.45-.346-.3-.567-.72-.651-1.28h4.978c.011-.08.021-.15.021-.23v-.21c0-.48-.063-.95-.2-1.39-.136-.44-.335-.82-.608-1.16-.273-.33-.609-.6-1.019-.8-.409-.2-.882-.29-1.418-.29m-.001 1.27c.252 0 .483.04.682.14.2.08.378.21.525.37s.263.35.347.57.137.3.168.54h-3.486c.073-.53.262-.8.577-1.13.304-.33.704-.49 1.187-.49"/><path d="m61.765 133.13l-1.827-4.98h-1.67l2.794 6.83h1.396l2.773-6.83h-1.628l-1.838 4.98"/><path d="m54.603 128.01c-.525 0-1.01.09-1.449.28s-.819.44-1.145.76c-.315.32-.567.7-.756 1.12-.178.43-.273.9-.273 1.38v.03c0 .47.084.93.263 1.36.189.43.43.8.756 1.12.325.31.703.57 1.145.74.441.19.913.29 1.428.29.525 0 1.01-.1 1.449-.29.451-.19.829-.44 1.155-.76.315-.33.567-.7.756-1.13s.273-.88.273-1.36v-.02c0-.5-.084-.95-.262-1.38-.189-.42-.431-.79-.756-1.11-.326-.32-.704-.57-1.145-.76-.441-.18-.924-.27-1.439-.27m-.031 1.35c.304 0 .588.07.84.18.252.12.473.28.662.46.178.2.325.43.43.71.095.26.147.54.147.84v.03c0 .28-.042.57-.137.83-.094.26-.23.48-.409.68-.178.2-.399.36-.651.47-.252.12-.536.17-.851.17-.304 0-.578-.05-.83-.17-.252-.11-.472-.27-.661-.47-.179-.21-.325-.44-.43-.7-.095-.27-.148-.55-.148-.84v-.02c0-.31.043-.58.137-.84.095-.27.231-.5.409-.69.179-.18.4-.34.652-.46.252-.11.535-.18.84-.18"/><path d="m42.936 131.57c-.199-.15-.42-.27-.672-.38-.252-.1-.494-.19-.746-.27-.199-.06-.388-.13-.567-.19-.189-.06-.346-.13-.493-.2-.137-.07-.252-.16-.336-.24-.084-.1-.126-.2-.126-.32v-.03c0-.19.084-.36.252-.48.157-.13.399-.19.693-.19.283 0 .588.05.924.17.336.11.662.27.987.47l.62-1.1c-.357-.24-.756-.43-1.197-.57-.431-.14-.862-.21-1.292-.21-.336 0-.651.05-.945.15-.294.09-.557.23-.777.41-.21.18-.389.39-.504.64-.126.26-.189.54-.189.87v.03c0 .32.063.6.189.82s.294.41.493.56c.2.14.431.27.683.36.252.1.504.18.756.25.189.06.388.11.567.17.189.06.346.12.493.19.137.08.253.16.326.25.084.1.126.21.126.34v.02c0 .22-.094.4-.273.54-.189.13-.441.2-.777.2-.357 0-.725-.08-1.103-.21-.378-.15-.756-.36-1.123-.63l-.694 1.05c.431.33.893.59 1.397.76.494.17.998.26 1.481.26.357 0 .682-.05.987-.14.315-.08.578-.22.809-.39.22-.18.399-.4.525-.67.136-.26.199-.58.199-.94v-.02c0-.31-.063-.57-.199-.78-.126-.21-.294-.4-.494-.55"/><path d="m35.617 134.93h1.553v-6.78h-1.553v6.78"/><path d="m34.724 130.37c0 2.54-1.953 4.51-4.778 4.51h-2.731c.547-.37 1.01-.86 1.334-1.44h1.397c1.88 0 3.119-1.27 3.119-3.05 0-1.76-1.239-3.06-3.119-3.06h-1.775v1.32c-.262-.33-.567-.61-.903-.85-.21-.15-.441-.26-.672-.38v-1.53h3.35c2.825 0 4.778 1.94 4.778 4.48"/></g><g fill="#b40d34"><path d="m27.961 160.3c-4.442.47-6.794-2.2-6.794-6.35v-12.6h3.885v3.84h2.731v3.44h-2.731v5.35c0 2.12.966 2.91 2.909 2.79v3.53"/><path d="m37.622 148.55c-2.468-.44-4.116.88-4.116 3.02v8.76h-3.875v-8.76c0-4.28 2.961-7.28 7.991-6.66v3.64"/><path d="m45.04 144.86c-3.939 0-7.205 3.42-7.205 7.91 0 4.48 3.266 7.89 7.205 7.89 1.848 0 3.465-.72 4.641-1.94v1.61h3.707v-15.14h-3.707v1.62c-1.176-1.23-2.793-1.95-4.641-1.95m.588 3.6c2.142 0 3.874 1.94 3.874 4.34 0 2.36-1.732 4.27-3.874 4.27-2.153 0-3.876-1.85-3.876-4.27 0-2.46 1.723-4.34 3.876-4.34"/><path d="m64.2 160.33h-4.169l-5.734-15.13h4.054l3.76 11.28 3.791-11.28h4l-5.703 15.13"/><path d="m77.06 144.81c-4.263 0-7.761 3.58-7.761 7.96 0 4.39 3.498 7.91 7.761 7.91 3.76 0 6.438-2.08 7.32-5.17h-4.148c-.651 1.21-1.912 1.77-3.203 1.77-1.828 0-3.298-1.16-3.791-3.01h11.436c.556-5.99-3.151-9.46-7.614-9.46m-.031 3.41c1.848 0 3.318 1.12 3.791 2.88h-7.53c.568-1.76 1.974-2.88 3.739-2.88"/><path d="m86.46 160.33h3.881v-20.46h-3.881v20.46"/></g><path d="m100.75 139.44c-2.734 0-4.855 1.99-4.855 4.57 0 1.33.619 2.62 1.648 3.83l.357.44c-2.383 1.38-4.379 3.08-4.379 6.22 0 3.63 3.35 6.18 7.189 6.18 2.24 0 4.18-.79 5.62-2.17l1.5 1.82h3.21l-3.17-3.88c.64-1.2.96-2.65.96-4.17v-1.57h-2.41v1.57c0 .73-.12 1.44-.3 2.08l-4.54-5.53c2.25-1.32 3.81-2.7 3.81-5.02 0-2.59-1.91-4.37-4.64-4.37m-.04 2.28c1.33 0 2.22.89 2.22 2.15 0 1.09-.6 1.94-2.79 3.2l-.685-.82c-.651-.77-.998-1.5-.998-2.24 0-1.35 1.029-2.29 2.253-2.29m-1.339 8.35l5.459 6.64c-.96 1.03-2.4 1.62-4.12 1.62-2.726 0-4.657-1.79-4.657-3.83 0-1.67.934-2.99 3.318-4.43" fill="#740232"/><g fill="#b40d34"><path d="m114.89 160.33h3.88v-20.46h-3.88v20.46"/><path d="m125.3 160.33h-3.88v-15.13h3.88v15.13"/><path d="m125.3 143.55h-3.88v-3.61h3.88v3.61"/><path d="m136.12 160.33h-4.18l-5.73-15.13h4.06l3.76 11.28 3.79-11.28h4l-5.7 15.13"/><path d="m146.64 160.33h-3.88v-15.13h3.88v15.13"/><path d="m146.64 143.55h-3.88v-3.61h3.88v3.61"/><path d="m162.79 160.33h-3.89v-8.84c0-.88-.26-3-2.81-3-1.73 0-2.94 1.29-2.94 3v8.84h-3.88v-15.13h3.7v1.47c.98-1.14 2.29-1.86 3.91-1.86 3.56 0 5.91 2.68 5.91 6.68v8.84"/><path d="m171.57 144.86c-3.94 0-7.21 3.42-7.21 7.91 0 4.48 3.27 7.89 7.21 7.89 1.76 0 3.28-.65 4.46-1.77v.74c0 2.7-1.23 4.49-3.97 4.49-1.05 0-2.57-.47-3.08-1.68h-4.26c.59 3.21 3.73 5.3 7.34 5.3 4.86 0 7.86-3.15 7.86-8.17v-14.38h-3.71v1.62c-1.2-1.23-2.79-1.95-4.64-1.95m.59 3.6c2.14 0 3.87 1.94 3.87 4.34 0 2.36-1.73 4.27-3.87 4.27-2.15 0-3.88-1.85-3.88-4.27 0-2.46 1.73-4.34 3.88-4.34"/></g><g fill="#740232"><path d="m86.39 125.9v2.32h-.536v-2.32h-.756v-.51h2.048v.51h-.756"/><path d="m90.23 128.22h-.525v-2.07l-.577 2.07h-.567l-.578-2.07v2.07h-.525v-2.82h.798l.588 2.12.588-2.12h.798v2.82"/></g></g></svg>