<svg xmlns="http://www.w3.org/2000/svg" height="339.78" width="600" viewBox="0 0 480 271.82073"><path fill="#1b4265" d="m12.333 1.7c5.099-1.109 10.333-1.44 15.536-1.7 12 .389 23.942 3.269 34.709 8.634 6.124 2.925 12.05 6.376 17.261 10.754 4.547-8.523 14.323-13.771 23.941-13.1 4.229 0 7.635 2.757 11.365 4.32 3.347 1.408 6 4.482 6.584 8.108.967 3.983-.162 8.193-2.277 11.611 5.03-.052 10.327.026 14.828 2.575 1.596-.162 3.204-.234 4.813-.182 1.524-3.133 4.391-5.909 8.095-5.838 4.385-.37 7.849 2.744 10.534 5.799 5.03-1.213 10.19-1.615 15.334-1.972 4.01-.772 8.07.577 11.442 2.711 1.868-1.732 4.184-3.315 6.85-3.178 2.796-.149 5.332 1.323 7.129 3.366 2.296-.616 4.735-1.576 7.103-.759 2.731.662 4.858 2.653 6.798 4.58 9.269 9.321 18.604 18.584 27.886 27.905 61.953-.039 123.91 0 185.86-.019 2.809-.006 5.702-.195 8.394.791 3.522 1.129 5.948 4.061 8.478 6.577 11.03 11 22.02 22.03 33.07 33.01 2.465 2.627 4 6.175 3.924 9.808-.026 35.683.019 71.37-.019 107.05-.084 5.04-3.606 9.01-7.187 12.149-10.197 10.353-20.562 20.537-30.798 30.85-2.919 3.217-6.694 6.123-11.222 6.234-63.815.032-127.62 0-191.44.013-2.348-.026-4.722.156-7.04-.279-2.854-.467-5.397-2.082-7.44-4.067-9.691-9.736-19.46-19.401-29.15-29.13-9.09 9.133-18.24 18.208-27.341 27.334-2.99 3.587-7.213 6.376-12.06 6.149-17.734-.026-35.469.013-53.2-.019-5.767 0-10.865-5.254-10.709-11 .006-17.747 0-35.488 0-53.23-.013-3.632 1.609-7.207 4.255-9.678 9.762-9.762 19.518-19.525 29.29-29.27-35.66-35.65-71.35-71.31-107.04-106.96-3.211-3.178-6.104-7.08-6.72-11.676-.558-4.197 1.654-8.394 4.975-10.865 4.216-3.36 9.328-5.3 14.491-6.662.538-3.516 1.2-7.02 2.854-10.216-4.521-.928-9.14-1.453-13.758-1.252-1.194.934-2.134 2.173-3.444 2.964-2.724 1.33-5.877 1.323-8.822.941-4.768-.643-8.543-5.19-8.439-9.977.681-6.473 6.05-11.883 12.331-13.194"/><g fill="#c1d72d"><path d="m9.881 11.235c2.303-2.783 6.227-2.796 9.516-3.276 11.54-1.44 23.423.272 34.14 4.768 9.425 3.606 18.15 9.03 25.642 15.782 4.67 4.567 9.06 9.879 10.651 16.353 1.375 6.967-2.562 14.08-8.283 17.922-9.886 7.06-22.988 7.732-34.509 5.111-.474 1.46-1.129 3.418-2.971 3.522-1.323.422-2.504-.499-3.684-.928-.785-1.706-1.239-3.535-1.401-5.41-6.48-2.848-12.513-6.947-16.969-12.5-.979-1.343-2.102-2.822-1.946-4.586-.071-1.68 1.31-2.828 2.53-3.723 4.858-3.483 10.813-4.807 16.567-5.974.396-3.587.415-7.258 1.408-10.755.292-1.291 1.323-2.173 2.179-3.101 3.71 3.347 3.114 8.809 3.71 13.336 6.02-.052 12.169.376 17.877 2.419 3.036 1.271 6.24 3.6 6.603 7.135-.091 3.97-4.378 6.921-8.115 5.319-1.122-1.596 2.056-2.614 2.095-4.359-2.238-1.836-5.176-2.277-7.914-2.874-3.464-.707-7.01-.882-10.541-.791.221 5.922.201 11.838.584 17.754 7.784 1.421 16.02 1.174 23.559-1.336 4.229-1.609 8.737-4.158 10.366-8.653 2.173-5.228-.065-11.11-3.321-15.354-4.742-6.31-11.358-10.915-18.2-14.717-12.07-6.389-25.661-10.222-39.37-9.944-2.698.298-5.604.007-8.05 1.375.791.623 1.55 1.271 2.283 1.953-1.81 1.193-4.787 1.427-6.247-.422-.305-1.583.798-2.964 1.81-4.048m14.04 36.03c-.817.538-2.27 1.206-1.823 2.413 4.158 5.527 10.923 7.92 16.936 10.8-.02-5.248.039-10.495.091-15.749-5.072.727-10.417.448-15.205 2.536z"/><path d="m97.22 14.264c4.03-1.232 8.731-1.018 12.01 1.901 2.199.61 5.105 1.81 4.949 4.56.311 4.21-3.315 7.083-6.162 9.574-4.275 3.561-9.996 4.91-15.438 3.743-.785.532-1.583 1.057-2.381 1.57-.61-.305-1.213-.61-1.823-.915-.24-1.181-.467-2.355-.688-3.535-1.297-2.335-2.491-5.124-1.278-7.752 1.933-4.469 6.162-7.823 10.807-9.146m-7.05 11.228c2.4-2.407 5.03-4.567 7.816-6.506-3.302.96-7.323 2.614-7.816 6.506m15.25-5.05c-4.177 2-7.609 5.28-10.787 8.582 4.573 1.174 9.308-.461 13.03-3.107 1.362-1.031 2.653-2.64 2.212-4.456-.61-1.875-3.02-1.797-4.456-1.018z"/><path d="m146.58 35.624c.175-.746.558-1.401 1.135-1.959 4.891 3.191 6.999 8.945 8.465 14.329 1.181 4.45.973 9.652-2.082 13.336-1.232 1.447-3.626 2.647-5.293 1.213-4.262-3.6-6.396-8.965-9.886-13.207-1.524 4.631.104 9.795-2.02 14.258-1.849 2.205-4.91-.37-4.871-2.692-.298-6.915.726-14.08 3.769-20.361.584-.298 1.161-.603 1.745-.908 5.468 4 8.212 10.463 12.448 15.568 1.511-6.727-3.094-12.941-3.412-19.577"/><path d="m105.83 40.42c5.968-3.049 12.856-2.789 19.362-2.627 2.16.026 4.411.564 5.903 2.238-.363.649-.726 1.297-1.083 1.953-5.099 1.706-10.541 1.44-15.827 2-2.024.279-4.618.052-5.877 2.024 4.722 1.148 9.62 1.135 14.407 1.862 2.912.512 6.117 1.836 7.421 4.69 1.498 3.276.208 7.382-2.666 9.458-3.73 2.861-8.731 2.874-13.2 2.471-3.911-.499-8.193-2.179-10.04-5.916-1.369-2.828 1.031-6.273 3.996-6.616 3.937-.363 7.881.13 11.741.902 1.304.266 2.192 1.31 3.068 2.212-2.154 2.361-5.715 2.75-8.582 1.596-2.147-.649-4.314-2.212-6.629-1.466-1.55.603-1.122 2.329-.363 3.386 4.832.843 9.827.045 14.504-1.245 1.518-.584 3.996-1.239 3.879-3.263-3.406-2.374-7.706-2.627-11.663-3.328-3.587-.649-7.81.889-10.897-1.583-2.692-2.783-.402-7.213 2.549-8.75z"/><path d="m168.6 38.4c3.367.039 6.928-1.369 10.139.221 1.713.616 2.66 2.257 3.619 3.684-1.044.629-1.985 1.687-3.295 1.667-3.328.162-6.655.383-9.957.824-.24 1.116-.448 2.231-.623 3.36 2.51.512 5.072.59 7.622.474.785 1.239 1.434 3.315-.298 4.087-2.964.623-6.06-.117-9.04.538-1.505 1.336-1.459 3.529-1.719 5.364 3.386-.259 6.688-1.233 10.09-1.382 1.68-.039 3.139 1.44 3.269 3.081-3.691 3.814-9.05 5.942-14.309 6.247-3.224.117-5.261-2.854-5.909-5.676-1.213-3.645 2.744-7.06.902-10.625 1.07-1.031 2.335-1.823 3.652-2.497.259-1.142.532-2.283.785-3.431-1.213-.584-2.426-1.174-3.632-1.771-.363-.655-.726-1.304-1.083-1.959 2.789-2.115 6.48-1.842 9.788-2.205z"/><path d="m190.97 37.836c1.492-1.018 1.894 1.401 1.615 2.432-1.297 4.794-6.143 8.588-5.442 13.875 4.541-4.91 8.608-10.606 14.608-13.849 1.661-1.116 3.561-.026 4.943 1.01 2.582 2.588 3.172 6.551 2.64 10.04-.564 3.47-2.75 6.383-5.163 8.828-3.496 3.555-8.283 6.06-13.362 5.929-2.082 7.836-5.079 15.445-6.273 23.494-3.334.486-5.792-3.036-6.305-5.961.123-7.803 2.971-15.218 4.858-22.703-.318-2.77-1.745-5.494-.915-8.329 1.161-5.669 4.456-10.975 8.796-14.763m2.906 21.04c5-.532 10.229-3.678 11.462-8.828.726-1.784-.162-3.503-1.044-5.03-4.852 3.386-7.258 9.06-10.417 13.855z"/><path d="m95.57 37.966c1.116.448 2.497.941 2.757 2.283 1.226 4.839 1.317 9.892 1.414 14.861-.006 3.224.35 6.545-.688 9.659-1.829.675-4.288.519-5.241-1.434-1.447-4.294-.746-8.913-.817-13.349.396-4.061.045-8.556 2.575-12.02"/><path d="m102.78 73.65c1.622-.272 3.269-.136 4.904-.156 15.581.045 31.16-.019 46.736.026 2.569-.195 4.249 1.972 5.851 3.613 11.04 11 22.04 22.05 33.09 33.04 1.258 1.505 3.743 1.498 4.962-.052 10.949-10.884 21.821-21.847 32.77-32.718 1.712-1.79 3.522-4.119 6.292-3.885 16.651-.019 33.31 0 49.966-.006 2.043-.305 4.01 1.609 3.639 3.671-.019 17.319 0 34.638-.013 51.951.188 1.842-.941 3.393-2.199 4.593-10.787 10.859-21.678 21.613-32.452 32.485-1.369 1.103-1.635 3.308-.279 4.541 10.859 10.975 21.899 21.782 32.751 32.764 1.323 1.194 2.348 2.822 2.186 4.677-.006 17.929.006 35.858-.006 53.787-1.07.817-2.186 1.836-3.632 1.706-17.287.006-34.58.026-51.867-.013-2.757.195-4.599-1.952-6.318-3.736-10.139-10.19-20.335-20.316-30.48-30.493-.889-.954-2.108-1.446-3.263-1.959-1.31.954-2.562 1.991-3.678 3.172-9.607 9.646-19.272 19.226-28.872 28.878-1.849 1.816-3.652 4.288-6.564 4.138-17.07.052-34.15-.013-51.22.032-1.589.065-3.464-.298-4.223-1.875-.292-1.609-.156-3.263-.175-4.891.045-16.45-.026-32.913.026-49.36-.097-1.576.798-2.945 1.875-4 9.912-9.899 19.817-19.804 29.728-29.702 1.401-1.44 3.03-2.711 4.074-4.45.454-1.557-.675-2.822-1.641-3.866-10.619-10.567-21.21-21.15-31.804-31.739-1.297-1.22-2.413-2.828-2.251-4.696 0-17.306.013-34.606-.006-51.912-.136-1.466.487-3.237 2.102-3.555z"/><path d="m299.83 74.08c1.213-.318 2.452-.59 3.723-.59 41.949.026 83.9.013 125.85.013 1.842-.11 3.561.817 4.852 2.076 11.909 11.877 23.78 23.799 35.715 35.663 1.258 1.291 2 3.068 1.913 4.884-.026 35.03.019 70.05-.019 105.07.084 2.497-1.362 4.638-3.308 6.05-10.82 10.8-21.678 21.581-32.504 32.394-1.207 1.161-2.283 2.491-3.704 3.399-2.154.934-4.579.59-6.856.655-40.859-.039-81.72.006-122.58-.019-1.985.182-4.087-1.336-3.749-3.483-.032-60.779.006-121.57-.019-182.34-.013-1.291.331-2.543.688-3.769"/></g><g fill="#1b4265"><path d="m381.16 141.42c8.08-.006 16.15.013 24.23-.013 3.101-.071 6.474.739 8.621 3.12 2.02 2.601 2.854 5.961 2.783 9.217-.006 9.522.006 19.05-.006 28.567.032 3.01-.837 6.234-3.185 8.264-1.952 1.511-4.463 2.186-6.908 2.108-8.51-.032-17.02-.013-25.531-.019v-51.24m7.369 6.487c.006 12.902-.019 25.797.013 38.699 5.183-.019 10.366-.026 15.548.013 1.453-.026 3.055.13 4.327-.746 1.155-.778 1.116-2.355 1.168-3.594-.045-10.171.013-20.342-.026-30.506.104-1.706-.889-3.814-2.809-3.827-6.072-.117-12.149.006-18.221-.039z"/><path d="m304.2 141.82c8.01 7.609 15.646 15.613 23.546 23.339 1.395 1.245 3.049 3.263 1.628 5.124-3.081 3.464-6.61 6.506-9.775 9.899-5.157 5-10.02 10.314-15.393 15.09-.013-17.819-.006-35.637-.006-53.45"/><path d="m336.64 141.71c2.406-.006 4.82-.006 7.233 0 .071 7.083.019 14.167.032 21.25 7.226.253 14.472.24 21.704.013-.039-7.096.019-14.186-.039-21.276 2.374.013 4.755.013 7.129-.006-.039 16.995 0 33.983-.019 50.978h-7.083c0-7.706-.006-15.419.006-23.12-7.233.006-14.465.013-21.698-.006.006 7.713 0 15.419 0 23.13h-7.265v-50.959"/></g></svg>