<svg xmlns="http://www.w3.org/2000/svg" viewBox="0 0 600 239.87"><g transform="translate(-97.82-547.37)" fill="#fff"><path d="m210.23 748.03c1.833.161 2.053.669 2.053 1.326v19.385c0 5.581-3.344 7.807-9.133 7.807-5.8 0-9.145-2.226-9.145-7.807v-19.385c0-.657.242-1.165 2.03-1.326v-.853h-14.91v.853c1.81.161 2.03.669 2.03 1.326v19.385c0 12.766 8.925 16.963 19.996 16.963 11.06 0 19.984-4.197 19.984-16.963v-19.385c0-.657.219-1.165 2.03-1.326v-.853h-14.934v.853"/><path d="m264.78 784.05v1.038h15.914v-1.038c-1.372-.092-2.399-.334-2.399-1.557v-32.75c0-1.176 1.026-1.476 2.399-1.522v-1.038h-15.15v1.038c1.384.046 2.41.346 2.41 1.522v16.963c-7.219-7.795-15.591-16.34-15.591-16.963 0-1.176 1.049-1.476 1.822-1.522v-1.038h-20.492v1.038c1.292.046 2.318.346 2.318 1.522v32.75c0 1.222-1.026 1.465-2.145 1.557v1.038h14.714v-1.038c-1.199-.092-2.249-.334-2.249-1.557v-22.556l.173-.161c9.756 11.347 20.745 21.16 20.745 23.16 0 1.026-1.614 1.119-2.468 1.119"/><path d="m307.05 784.05c-1.707-.092-2.733-.334-2.733-1.557v-32.75c0-1.176 1.026-1.476 2.733-1.522v-1.038h-17.03v1.038c1.707.046 2.733.346 2.733 1.522v32.75c0 1.222-1.026 1.465-2.733 1.557v1.038h17.03v-1.038"/><path d="m342.58 748.21c.53 0 1.995 0 1.995.865 0 .761-5.95 14.657-8.983 21.956h-.161c-.611-2.583-7.761-21.02-7.761-21.956 0-.865 1.464-.865 2.168-.865v-1.061h-16.271v1.061c.438 0 .784 0 1.464.427 1.176.773 12.224 33.661 12.224 34.03 0 .923-1 1.476-1.81 1.372v1.038h18.16v-1.038c-.784.104-1.81-.45-1.81-1.372 0-.68 12.224-29.625 13.377-33.26.219-.853.842-1.119 1.799-1.199v-1.061h-14.392v1.061"/><path d="m402.56 754.77c.703 0 1.557.323 1.557 2.087h1.049v-11.578h-1.049c0 1.557-.853 1.88-1.557 1.88h-39.07v1.061c1.176.069 2.375.346 2.375 1.522v32.773c0 1.222-1.199 1.453-2.375 1.557v1.015h38.39c1.384 0 1.799.242 2.41 1.799h.876v-11.555h-1.049c-.357 1.58-1.234 2.156-2.237 2.156h-24.47v-8.522h16.214c.669 0 1.522.334 1.522 1.995h1.049v-11.186h-1.049c0 1.649-.853 1.972-1.522 1.972h-16.214v-6.977h25.15"/><path d="m453.81 782.31l-7.657-11.555c5.339-2.053 9.583-5.431 9.583-11.589 0-7.853-5.662-12.02-14.13-12.02h-27.676v1.061c.876.092 1.914.346 1.914 1.534v32.773c0 1.188-1.038 1.465-1.718 1.545v1h14.795v-1c-1.199-.081-2.226-.357-2.226-1.545v-11.543h8.291c.669 1.453 6.515 10.851 6.515 11.97 0 .853-1.269 1.119-2.064 1.119v1h17.413v-1c-1.245 0-2.433-.784-3.044-1.753m-14.864-18.578h-12.247v-9.294h11.635c5.05 0 6.538 1.983 6.538 4.636 0 3.148-2.353 4.659-5.927 4.659"/><path d="m476.26 758.21c0-3.794 7.657-3.794 9.802-3.794 5.766 0 11.889 2.329 11.889 3.171 0 .369-.081.726-.081.98l1.084.507 5.178-10.863-.957-.346c-.438.346-.946 1.026-1.88 1.026-1.903 0-8.96-2.272-17.14-2.272-14.05 0-19.14 7.519-19.14 12.904 0 14.415 28.19 7.853 28.19 14.588 0 3.367-5.685 3.736-7.83 3.736-7 0-16.928-2.272-16.928-4.497 0-.461.115-.68.115-.946l-1.119-.519-3.517 11.555.934.265c.611-.611 1.211-1.199 1.972-1.199.726 0 10.344 3.102 18.624 3.102 13.181 0 18.935-5.87 18.935-12.616 0-14.98-28.14-8.706-28.14-14.784"/><path d="m555.94 783.19c-3.736-8.879-15.833-33.07-15.833-34.11 0-.623.265-.784 1.119-.865v-1.061h-17.966v1.061c.842.081 1.084.242 1.084.865 0 1.199-8 17.978-14.864 34.11-.288.611-1.026.853-1.73.853v1.026h12.904v-1.026c-.346 0-1.119 0-1.119-.761 0-.98 1.995-4.324 2.502-5.893h19.973c.6 1.568 2.502 4.913 2.502 5.893 0 .761-.773.761-1.119.761v1.026h14.276v-1.026c-.68 0-1.465-.242-1.73-.853m-31.14-12l7.07-15.04 7.207 15.04h-14.276z"/><path d="m602.89 774.11c0 1.833-.83 2.179-1.534 2.179h-23.594v-26.557c0-1.176.992-1.442 2.237-1.522v-1.061h-16.12v1.061c1.315.081 2.318.346 2.318 1.522v32.785c0 1.211-1 1.453-2.318 1.545v1.015h37.478c.703 0 1.534.334 1.534 2.156h1.026v-13.12h-1.026"/><path d="m291.84 704.6h36.05v-157.22h-36.05v157.22"/><path d="m172.3 547.41l-1.857-.035-72.61-.011v157.23l72.59.011 1.949-.058c47.09-1.707 82.57-35.506 82.57-78.55 0-43.21-35.471-77.01-82.64-78.59m-38.435 32.981h35.921c28.622.404 49.44 19.535 49.44 45.516 0 25.958-21.691 45.562-50.51 45.562l-34.849.046v-91.12z"/><path d="m396.57 547.38l55.906 94.21 56.39-94.21h41.09l-97.48 161.48-97.22-161.48h41.32"/><path d="m603.96 547.37l-94.04 157.25h41.28l52.757-89.96 52.665 89.96h41.2l-93.87-157.25z"/></g></svg>