<svg xmlns="http://www.w3.org/2000/svg" width="479.9" height="697.05" viewBox="0 0 383.92395 557.64053"><path d="m241.23.8c-.6 1.76-1.17 3.54-1.75 5.3 6.45-.001 13.03.44 19.13 2.75 5.96 2.08 11.265 6.77 12.825 13.05 2.36 8.78-.68 17.73-3.4 26.05-10.04 31.23-20.03 62.49-30.1 93.7-9.47-8.16-21.07-13.935-33.4-16.17-8.85-1.74-17.925-1.165-26.875-.825-13.38.93-26.68 3.14-39.55 6.9-30.57 8.85-58.48 26.26-80.48 49.18-26.41 27.31-43.32 62.68-52.25 99.35-5.02 21.2-6.985 43.955-.325 65.02 5.8 18.52 19.07 34.475 36.17 43.625 19.92 10.76 43.12 13.62 65.48 12.9 19.94-1.3 38.645-9.43 56.03-18.8 2.2 3.93 3.8 8.165 6.15 12.02 1.58 2.3 3.79 4.855 6.85 4.775 35.05.11 70.09-.055 105.15.075.54-1.71 1.115-3.4 1.675-5.1-7.09-.04-14.375-.7-20.925-3.6-5.42-2.29-9.8-7.02-11.15-12.825-1.55-7.11-.075-14.475 2.175-21.275 33.39-103.99 66.77-208 100.15-312 3.03-9.39 5.815-19.02 6.02-28.95-.24-4.22-.8-8.965-4.05-12.03-2.34-2.43-5.88-3.03-9.1-3.1-34.81-.001-69.63.025-104.45-.025m-52.1 128.55c11.91-.043 23.831 2.969 34.03 9.2 4.58 2.69 8.645 6.1 12.625 9.6-20.17 63.41-40.66 126.74-60.95 190.12-4.1 12.95-8.65 25.785-11.55 39.07-17.01 9.96-35.695 18.16-55.625 19.225-9.93.46-20.645-.54-28.925-6.55-8.12-5.93-11.87-16.285-11.8-26.07.37-7.82 2.36-15.45 4.1-23.05 7.99-31.9 18.17-63.2 28.3-94.47 7.41-22.39 14.97-44.755 23.95-66.58 3-6.94 5.9-13.99 10.1-20.3 8.59-12.06 20.45-22.255 34.7-26.875 6.773-2.186 13.904-3.299 21.05-3.325"/><path d="m334.22 316.83c11.34-1.96 23.45 1 32.48 8.18 10.61 8.15 16.8 21.67 15.85 35.05-.61 17.23-13.37 33.04-29.97 37.53-12.35 3.63-26.28.94-36.45-6.92-11.22-8.4-17.55-22.77-16.13-36.72 1.27-18.25 16.2-34.27 34.22-37.12" fill="#5eb2d7"/><path d="m41.959 457.05c-3.599-.022-7.21.005-10.8.2 3.34 1.11 8.13 1.4 8.9 5.7.52 7.18.015 14.425.225 21.625-11.92-7.67-30.26-1.485-35.05 11.925-2.84 7.86-2.8 16.88.35 24.65 5.34 12.99 23.46 18.825 35.15 10.825.96 1.08 1.945 2.17 2.925 3.25 18.28-.08 36.565.27 54.825-.2-1.96-.74-4.055-1.05-5.975-1.85-2.33-1.06-3.21-3.845-3.2-6.225-.08-12.94.08-25.885-.05-38.825.001-2.7-1.085-6.775-4.525-6.375-6.95.08-13.91-.295-20.85.225 2.19.85 4.645.985 6.675 2.225 2.13 1.5 2.525 4.37 2.475 6.8-.08 12.32.105 24.63-.075 36.95-.23 6.73-9.395 7.88-13.925 4.75-2.15-1.52-2.435-4.29-2.475-6.7-.03-20.68.055-41.37-.025-62.05-.08-2.56-.49-6.67-3.8-6.8-3.595.005-7.176-.077-10.775-.1m-12.425 25.18c3.806-.1 7.615 1.465 10.75 3.625.05 15.05-.16 30.1.1 45.15-3.98 2.63-8.84 4.56-13.65 3.25-3.47-.77-5.855-3.98-6.425-7.35-1.22-11.64-.74-23.375-.2-35.02.13-3.67 1.96-7.7 5.65-8.95 1.247-.447 2.506-.667 3.775-.7"/><path d="m78.16 457.61c5.04-2.13 11.33 1.9 11.15 7.44.6 6.59-8.32 11.15-13.22 6.56-4.96-3.49-3.63-12.06 2.07-14"/><path d="m166.32 457.83c5.08-2.57 11.8 1.41 11.79 7.13.52 6.28-7.43 10.94-12.59 7.19-5.3-3.1-4.81-11.81.8-14.32"/><path d="m269.22 457.65c5.41-2.41 12.15 2.49 11.19 8.43-.24 6.19-8.67 9.81-13.25 5.49-4.84-3.54-3.56-11.91 2.06-13.92"/><path d="m303.23 467.33c3.35.09 6.69.08 10.04.03-.03 4.78 0 9.56-.03 14.34 10.16-.06 20.32.06 30.48.05 3.42-.21 5.08 3.46 6.27 6.08 4.18 10.33 8.36 20.67 12.59 30.98 2.33-6.28 7.795-18.575 9.865-24.955.31.65.61.567.91 1.247-5.71 12.79-13.04 32.968-18.455 45.888-.25-.06-.76-.18-1.02-.24-7.06-17.39-13.86-34.9-20.9-52.31-1.09-2.27-2.33-5.35-5.28-5.46-4.8-.55-9.64-.2-14.45-.28.05 14.74.11 29.49-.001 44.24-.07 2.39.84 5.21 3.19 6.26 1.91.78 3.99 1.1 5.94 1.82-32.74.58-65.51-.03-98.25.29-.29-.2-.87-.59-1.16-.79 3.5-.25 8.16-1.47 8.45-5.71.29-9.94.08-19.89.1-29.83-.16-5.41-.79-11.76-5.31-15.37-4.93-2.98-10.94-.66-15.35 2.22.32 14.3-.14 28.62.23 42.91.28 4.11 4.68 5.5 8.14 5.72l-.02.84c-21.69-.09-43.39-.12-65.09.001-.26-.19-.78-.57-1.03-.77 2.29-.56 5.04-.45 6.76-2.31 2.01-1.84 1.87-4.77 1.97-7.25-.02-10.98-.02-21.96 0-32.95-.1-2.49.05-5.41-1.93-7.26-1.92-1.91-4.87-1.78-7.25-2.77 7.01-.55 14.07-.17 21.1-.24 3.33-.29 4.17 3.7 4.3 6.24.19 13.3-.07 26.61.11 39.91.09 8.62 16.03 8.73 16.3.2.18-12.04-.001-24.08.09-36.11-.09-2.44.28-5.34-1.74-7.15-1.75-2-4.68-1.76-7-2.59 6.51-1.19 13.32-.22 19.95-.51 2.25-.41 3.32 1.9 4.76 3.15 6.25-4.6 14.35-4.1 21.56-2.65 4.26.91 8.56 2.57 11.61 5.79 3.03 3.16 4.31 7.65 4.32 11.95.06 9.32-.1 18.65.06 27.98.12 8.54 15.9 8.58 16.05.001.03-13.33.25-26.69-.11-40.01-.54-4.51-5.51-4.92-8.95-5.97 6.87-.56 13.79-.15 20.68-.26 3.43-.47 4.71 3.49 4.66 6.24.23 13.36-.12 26.73.16 40.09.43 8.44 15.84 8.49 16.31.05.16-13.07.1-26.17.03-39.25.02-4.88-5.2-6.02-8.96-6.82 3.61-.73 7.79.51 10.87-1.98 3.83-3 4.13-8.27 4.44-12.74"/><path d="m151.98 481.91c-2.85 1.17-5.81 2.75-6.82 5.91-6.51 15.8-12.71 31.73-19.18 47.55-2.22-.29-5.73.52-6.39-2.43-5.75-14.33-11.4-28.71-17.11-43.05-.91-2.19-1.83-4.5-3.62-6.12-1.89-.88-4.02-1.08-5.98-1.78 6.61-.54 13.25-.16 19.87-.24 2.82-.2 4.46 2.66 5.56 4.84 4.48 10.76 8.76 21.61 13.22 32.38 3.65-9.65 7.73-19.14 11.53-28.74.55-1.65 1.3-3.36 1-5.13-1.29-2.47-4.52-2.03-6.75-3 5.279-.746 9.284-.638 14.67-.19"/><path d="m368.32 481.98c4.91-.46 9.87-.27 14.8-.1-6.15 1.79-8.02 8.04-9.831 13.358-.38-.6-.509-.738-.859-1.338 1.19-2.85 3.16-5.74 2.73-8.95-1.5-2.29-4.58-1.95-6.84-2.97"/><path d="m334.61 547.91c.37-4.02 3.88-7.62 8.02-7.44 3.5-.29 5.85 2.71 8.77 4.05.53-.42 1.801-4.217 2.331-4.637l1.181 1.043c-1.78 4.88-4.232 12.524-9.09 15.214-5.36 2.6-11.94-2.46-11.21-8.23"/></svg>