<svg xmlns="http://www.w3.org/2000/svg" height="126.56" width="562.5" viewBox="0 0 158.74998 35.717461"><g transform="translate(-93.74-183.14)"><path stroke-width=".265" fill="#dc5013" d="m93.74 183.14h107.16v35.717h-107.16z"/><path opacity=".75" fill="#1a1a1a" d="m200.84 183.22h51.646v35.54h-51.646z"/><g fill="#fff"><g stroke-width=".265"><path d="m221.16 197.67v4.32h-4.66v3.42h4.66v4.67h3.44v-4.67h4.67v-3.42h-4.67v-4.68h-3.44v.36"/><path d="m236.78 196.94l-4.49.77v-2.79l9.17-1.75c-.09 5.84.17 11.9 0 16.91l-4.68-.03"/></g><g fill-rule="evenodd" stroke-width="4.606"><path d="m100.89 212.59h9.4c6.66 0 10.74-3.86 10.74-11.03 0-6.78-4.02-10.86-10.74-10.86h-9.4z"/><path d="m122.51 212.59h24.4v-21.89h-8.39l-3.83 11.97-3.78-11.97h-8.4z"/><path d="m147.59 212.59h22.17l-8.19-21.89h-5.79z"/><path d="m170.29 212.59h22.07l-7.72-11.49 7.08-10.4h-20.78l7.14 10.4z"/></g><g stroke-width="4.606"><path d="m194.31 210.85h.02l.13.1-.13.1h-.36l-.03.03v1.41l-.11.12-.09-.12v-1.41l-.03-.03h-.36l-.14-.09.12-.11z"/><path d="m195.36 212.27l-.13-.12-.36-.73-.02-.03v.04l-.001 1.05v.02l-.1.11-.09-.11v-1.53l.09-.13.12.11.48.98.02.001.02-.001.48-.97.13-.12.09.13v1.53l-.1.11-.09-.11v-.02l-.001-1.05v-.04l-.03.03-.36.73z"/><path d="m195.36 212.27l-.13-.12-.36-.73-.02-.03v.04l-.001 1.05v.02l-.1.11-.09-.11v-1.53l.09-.13.12.11v.001l.48.97.02.001.02-.001.48-.97.001-.001.12-.11.09.13v1.53l-.1.11-.09-.11v-.02l-.001-1.05v-.04l-.03.03-.36.73z" fill-rule="evenodd"/><path d="m194.31 210.85h.02l.13.1-.13.1h-.37l-.02.03v1.41l-.11.12-.09-.12v-1.42l-.03-.02h-.37l-.13-.09.12-.11z"/></g></g></g></svg>