<svg xmlns="http://www.w3.org/2000/svg" height="175.88" width="600" viewBox="0 0 158.75 46.534168"><g transform="translate(-63.22-86.58)"><g fill="#bc2024"><path d="m110.63 133.12h31.93v-2.65h-31.93z"/><path d="m87.61 118.64h-6.388v-23.15h6.388c1.764 0 3.368.285 4.828.84 1.445.568 2.674 1.365 3.685 2.374 1.012 1.024 1.807 2.247 2.385 3.667.578 1.44.867 3 .867 4.7v.11c0 1.75-.289 3.3-.852 4.69-.593 1.4-1.388 2.59-2.4 3.61-1.01 1.01-2.24 1.8-3.685 2.35-1.46.54-3.05.81-4.828.81"/></g><g fill="#fff"><path d="m165.18 105.36l-7.58-17.866h-9.91l-3.27 39.35h9.39l2.18-23.54 8.74 19.25h.8l8.84-19.42 2.18 23.71h9.39l-3.27-39.35h-9.91z"/><path d="m87.43 118.15h-5.919v-21.805h5.919c1.633 0 3.12.268 4.472.79 1.339.536 2.478 1.286 3.415 2.237.937.968 1.674 2.118 2.21 3.458.535 1.35.803 2.82.803 4.42v.1c0 1.65-.268 3.11-.79 4.42-.549 1.31-1.286 2.44-2.223 3.4-.937.95-2.076 1.69-3.415 2.21-1.352.51-2.825.77-4.472.77m19.258-18.711c-1.01-2.357-2.44-4.433-4.29-6.187s-4.04-3.133-6.585-4.111c-2.558-.991-5.357-1.486-8.383-1.486h-15.4v39.17h15.4c3.03 0 5.825-.49 8.383-1.5 2.544-1 4.735-2.38 6.585-4.13 1.85-1.76 3.28-3.83 4.3-6.23 1.01-2.38 1.5-4.97 1.5-7.71v-.11c0-2.75-.49-5.32-1.51-7.701"/><path d="m205.07 109.78h-8.43l4.21-10.301zm.12-22.393h-8.46l-.15.348-16.63 39.08h9.75l3.48-8.53h15.33l3.49 8.53h9.97z"/><path d="m126.6 118.6c-6.29 0-11.38-5.1-11.38-11.38 0-6.29 5.09-11.397 11.38-11.397 6.28 0 11.38 5.107 11.38 11.397 0 6.28-5.1 11.38-11.38 11.38m0-32.02c-11.4 0-20.62 9.24-20.62 20.637 0 11.38 9.22 20.62 20.62 20.62s20.62-9.24 20.62-20.62c0-11.397-9.22-20.637-20.62-20.637"/></g><path d="m63.22 96.34v21.805h24.21c1.648 0 3.121-.26 4.473-.77 1.339-.52 2.478-1.26 3.415-2.21.937-.96 1.674-2.09 2.223-3.4.522-1.31.79-2.77.79-4.42v-.1c0-1.6-.268-3.07-.803-4.42-.536-1.34-1.273-2.49-2.21-3.458-.937-.951-2.076-1.701-3.415-2.236-1.352-.523-2.839-.791-4.473-.791h-24.21" fill="#bc2024"/><g fill="#fff"><path d="m68.4 101.28h2.967v4.79h4.377v-4.79h2.966v12.06h-2.966v-4.82h-4.377v4.82h-2.967z"/><path d="m84.58 103.63v7.36h1.099q1.879 0 2.866-.95.995-.94.995-2.74t-.987-2.73q-.987-.94-2.874-.94h-1.099m-3.066-2.35h3.233q2.707 0 4.03.4 1.33.38 2.277 1.32.836.82 1.242 1.88.407 1.07.407 2.42 0 1.36-.407 2.43-.406 1.07-1.242 1.89-.955.93-2.293 1.33-1.338.39-4.01.39h-3.233v-12.06"/></g></g></svg>