<svg xmlns="http://www.w3.org/2000/svg" height="273.66" width="600" viewBox="0 0 158.75 72.405116"><g transform="translate(137.15-306.91)"><path d="m-83.938 317.67c7-7.05 15.482-10.66 25.41-10.66h37.07v72.2h-37.07c-9.928-.3-18.406-3.69-25.41-10.71-6.949-7.07-10.458-15.47-10.458-25.42 0-9.97 3.509-18.39 10.458-25.41" fill="#b2dce7"/><path d="m-137.15 364.35h158.75l.003-42.92h-158.75v42.92z" fill="#504748"/><path d="m-31.733 317.6c-7.03-7.08-15.527-10.69-25.483-10.69h-37.18v72.4h37.18c9.956-.31 18.457-3.7 25.483-10.74 6.968-7.08 10.487-15.52 10.487-25.49 0-10-3.519-18.45-10.487-25.48" fill="#22afc3"/><path d="m-137.15 321.44v42.91h70.18v-21.49l21.419-21.42" fill="#504748"/><g fill="#fff"><path d="m4.452 337.57c-.173 0-.307-.14-.307-.31v-7.63c0-.17-.134-.31-.304-.31h-6.725c-.17 0-.304.14-.304.31v7.63c0 .17-.144.31-.307.31h-8.792c-.169 0-.304.13-.304.3v6.79c0 .17.135.31.304.31h8.792c.163 0 .307.13.307.3v8.96c0 .16.134.3.304.3h6.725c.17 0 .304-.14.304-.3v-8.96c0-.17.134-.3.307-.3h8.18c.17 0 .304-.14.304-.31v-6.79c0-.17-.134-.3-.304-.3"/><path d="m-120.18 334.88h-1.48v14.13h1.48c4.31 0 7.17-2.76 7.17-7.07s-2.86-7.06-7.17-7.06m10.33 15.95c-2.46 2.49-5.35 3.73-8.71 3.73h-9.66v-25.24h9.66c3.33 0 6.22 1.28 8.68 3.8 2.49 2.53 3.73 5.46 3.73 8.82 0 3.4-1.24 6.36-3.7 8.89"/><path d="m-91.3 343.25c-.771-.77-1.68-1.14-2.758-1.14-1.075 0-1.987.37-2.761 1.14-.771.78-1.143 1.69-1.143 2.73 0 2.19 1.715 3.94 3.904 3.94 1.078 0 1.987-.37 2.758-1.15.774-.77 1.145-1.68 1.145-2.75 0-1.12-.371-2.03-1.145-2.77m4.443 9.6c-1.951 1.58-4.341 2.35-7.201 2.35-2.998 0-5.452-.84-7.403-2.52-1.95-1.72-2.93-3.87-2.93-6.47 0-2.86 1.01-5.18 3.06-6.89 1.923-1.62 4.31-2.43 7.17-2.43 3.062 0 5.586.85 7.506 2.56 1.952 1.72 2.928 3.9 2.928 6.6 0 2.86-1.044 5.11-3.13 6.8"/><path d="m-58.45 354.56v-8.41c0-1.18-.067-1.92-.169-2.26-.502-1.44-1.344-1.95-2.387-1.95-1.481 0-2.627 1.18-2.796 2.63-.067.4-.099.94-.099 1.58v8.41h-6.06v-8.41c0-1.25-.032-1.99-.099-2.29-.371-1.18-1.347-2.05-2.56-2.05-.908 0-1.951.64-2.354 1.44-.304.58-.439 1.55-.439 2.9v8.41h-6.06v-17.03h6.06v2.09c.17-.13.407-.37.743-.68 1.343-1.11 2.959-1.68 4.847-1.68 2.524 0 4.476 1.05 5.819 3.17 1.347-2.12 3.267-3.2 5.788-3.2 2.255 0 3.871.77 4.882 2.29.64.94.941 2.25.941 3.97v11.07"/><path d="m-37.3 343.25c-.771-.77-1.68-1.14-2.758-1.14s-1.987.37-2.761 1.14c-.775.78-1.142 1.69-1.142 2.73 0 2.19 1.714 3.94 3.903 3.94 1.078 0 1.987-.37 2.758-1.15.774-.77 1.145-1.68 1.145-2.75 0-1.12-.371-2.03-1.145-2.77m4.444 9.6c-1.952 1.58-4.342 2.35-7.202 2.35-2.998 0-5.452-.84-7.403-2.52-1.952-1.72-2.928-3.87-2.928-6.47 0-2.86 1.01-5.18 3.062-6.89 1.916-1.62 4.306-2.43 7.166-2.43 3.062 0 5.587.85 7.506 2.56 1.952 1.72 2.928 3.9 2.928 6.6 0 2.86-1.043 5.11-3.129 6.8"/></g></g></svg>