<svg xmlns="http://www.w3.org/2000/svg" height="224.93" width="600" viewBox="0 0 158.75 59.512818"><g transform="translate(123.01-313.36)"><path d="m-79.28 322.2c5.757-5.8 12.726-8.76 20.886-8.76h30.473v59.34h-30.473c-8.16-.25-15.13-3.03-20.886-8.8-5.711-5.81-8.596-12.72-8.596-20.89 0-8.2 2.885-15.12 8.596-20.89" fill="#b2dce7"/><path d="m-123.01 360.57h130.48v-35.28h-130.48v35.28" fill="#504748"/><path d="m-36.37 322.14c-5.775-5.81-12.762-8.78-20.945-8.78h-30.56v59.51h30.56c8.183-.26 15.17-3.05 20.945-8.83 5.728-5.82 8.621-12.76 8.621-20.95 0-8.22-2.893-15.17-8.621-20.95" fill="#22afc3"/><path d="m-123.01 325.3v35.27h57.677v-17.67l17.606-17.6" fill="#504748"/><g fill="#fff"><path d="m-6.628 338.55c-.142 0-.253-.11-.253-.25v-6.27c0-.14-.11-.25-.25-.25h-5.528c-.139 0-.249.11-.249.25v6.27c0 .14-.119.25-.253.25h-7.226c-.14 0-.25.12-.25.26v5.58c0 .13.11.25.25.25h7.226c.134 0 .253.11.253.25v7.36c0 .14.11.25.249.25h5.528c.139 0 .25-.11.25-.25v-7.36c0-.14.111-.25.253-.25h6.724c.139 0 .25-.12.25-.25v-5.58c0-.14-.11-.26-.25-.26"/><path d="m-109.07 336.34h-1.22v11.62h1.22c3.54 0 5.89-2.27 5.89-5.81s-2.35-5.81-5.89-5.81m8.49 13.11c-2.02 2.05-4.39 3.07-7.16 3.07h-7.94v-20.74h7.94c2.74 0 5.12 1.05 7.13 3.12 2.053 2.08 3.076 4.48 3.076 7.25 0 2.79-1.023 5.23-3.046 7.3"/><path d="m-85.33 343.23c-.634-.64-1.381-.94-2.267-.94-.884 0-1.633.3-2.27.94-.634.64-.939 1.38-.939 2.24 0 1.8 1.41 3.24 3.209 3.24.886 0 1.633-.31 2.267-.94.636-.64.941-1.39.941-2.27 0-.92-.305-1.66-.941-2.27m3.652 7.88c-1.604 1.3-3.568 1.94-5.919 1.94-2.464 0-4.481-.69-6.085-2.08-1.605-1.41-2.407-3.18-2.407-5.31 0-2.35.829-4.26 2.517-5.67 1.578-1.33 3.54-1.99 5.891-1.99 2.516 0 4.591.69 6.169 2.1 1.604 1.41 2.406 3.21 2.406 5.42 0 2.36-.857 4.21-2.572 5.59"/><path d="m-58.33 352.52v-6.91c0-.97-.055-1.58-.139-1.86-.413-1.18-1.105-1.6-1.962-1.6-1.218 0-2.159.97-2.299 2.16-.055.33-.081.77-.081 1.3v6.91h-4.981v-6.91c0-1.03-.026-1.63-.081-1.88-.305-.97-1.107-1.69-2.104-1.69-.747 0-1.604.53-1.935 1.19-.25.47-.361 1.27-.361 2.38v6.91h-4.978v-13.99h4.978v1.71c.14-.11.334-.3.61-.55 1.105-.92 2.433-1.39 3.984-1.39 2.075 0 3.679.86 4.784 2.6 1.107-1.74 2.685-2.62 4.757-2.62 1.854 0 3.182.63 4.01 1.88.526.77.773 1.85.773 3.26v9.1"/><path d="m-40.945 343.23c-.634-.64-1.381-.94-2.267-.94s-1.633.3-2.27.94c-.636.64-.938 1.38-.938 2.24 0 1.8 1.409 3.24 3.208 3.24.886 0 1.633-.31 2.267-.94.636-.64.941-1.39.941-2.27 0-.92-.305-1.66-.941-2.27m3.652 7.88c-1.604 1.3-3.568 1.94-5.919 1.94-2.464 0-4.481-.69-6.085-2.08-1.604-1.41-2.407-3.18-2.407-5.31 0-2.35.829-4.26 2.517-5.67 1.575-1.33 3.54-1.99 5.891-1.99 2.516 0 4.591.69 6.169 2.1 1.604 1.41 2.406 3.21 2.406 5.42 0 2.36-.857 4.21-2.572 5.59"/></g><g fill="#504748"><path d="m14.631 330.28v-4.86h-3.264v12.56h3.264v-5.18h3.184v-2.52"/><path d="m19.335 329.52v8.46h3.264v-12.56h-3.264"/><path d="m33.88 327.31c-1.223-1.25-2.661-1.89-4.318-1.89h-4.804v2.76h3.558.442c2.143 0 3.563 1.38 3.563 3.52s-1.42 3.51-3.563 3.51h-.737v-5.51h-3.263v8.28h4.804c1.673 0 3.111-.62 4.334-1.86 1.223-1.26 1.841-2.73 1.841-4.42 0-1.67-.618-3.13-1.857-4.39"/></g></g></svg>