<svg xmlns="http://www.w3.org/2000/svg" height="110.01" width="600" viewBox="0 0 158.75 29.108066"><g fill="#d70072"><path d="m45.15 19.932h-2.722v-9.396h2.722c2.9 0 4.791 1.997 4.791 4.719 0 2.723-1.891 4.677-4.791 4.677m0-11.606h-3.184-2.765v.341c.299.092.505.206.619.341.114.128.177.32.177.576v1.28 11.28h5.153c4.343 0 7.335-3.02 7.335-6.923 0-3.909-2.992-6.894-7.335-6.894"/><path d="m62.908 20.15c-2.744 0-4.699-2.224-4.699-4.932 0-2.701 1.919-4.89 4.656-4.89 2.743 0 4.698 2.232 4.698 4.932 0 2.701-1.912 4.89-4.655 4.89m0-12.05c-4.244 0-7.243 3.255-7.243 7.164 0 3.903 2.964 7.122 7.2 7.122 4.243 0 7.243-3.255 7.243-7.164 0-3.902-2.957-7.122-7.2-7.122"/><path d="m76.26 15.178v-4.641h3.533c1.791 0 2.857.789 2.857 2.31 0 1.421-1.102 2.331-2.836 2.331h-3.554m5.565 1.734c1.934-.533 3.291-1.912 3.291-4.2 0-2.701-1.947-4.386-5.124-4.386h-4.187-2.764v.341c.298.092.504.206.618.334.114.135.17.327.17.583v1.28h.008v11.279h2.423v-4.819h3.035l3.398 4.819h2.857l-3.725-5.231"/><path d="m95.69 20.15c-2.644 0-4.556-2.21-4.556-4.932s1.912-4.89 4.556-4.89c1.578 0 2.765.689 3.867 1.713l1.552-1.791c-1.311-1.265-2.853-2.154-5.398-2.154-4.186 0-7.121 3.22-7.121 7.164 0 3.981 2.999 7.122 7.02 7.122 2.587 0 4.165-.945 5.597-2.445l-1.553-1.578c-1.187 1.102-2.267 1.791-3.966 1.791"/><path d="m107.73 19.971v-3.71h6.92v-2.168h-6.92v-3.589h7.81v-2.175h-8.26-2.76v.341c.29.092.5.199.61.334.11.121.16.299.17.526v12.616h10.34v-2.175h-7.91"/><path d="m123.16 19.932v-11.606h-2.42v.007h-.8v.341c.3.092.51.206.62.334.12.135.18.327.18.583v1.279 11.273h9.69v-2.211h-7.27"/><path d="m52.641 28.05c-.526-.398-1.109-1.165-1.337-1.435-.142.192-.49.732-.646 1.03.085.015.192.036.241.036l.057.007.007.05.022.156h-.079c-.064 0-.369-.014-.597-.014-.22 0-.334.007-.433.014l-.093.007.029-.092.043-.121.035-.007c.078-.007.171-.021.235-.05.064-.042.298-.327.518-.611.192-.256.391-.519.477-.64-.278-.362-.725-.995-.903-1.187-.064-.021-.156-.035-.235-.049l-.049-.008v-.049l-.029-.171.086.014c.035.007.248.014.604.014.213 0 .476-.007.632-.014l.093-.007-.022.085-.042.128-.043.008c-.099.007-.178.021-.242.035.114.178.391.597.519.768.135-.185.405-.569.519-.768-.071-.021-.163-.028-.199-.035l-.043-.008-.007-.049-.035-.164.085.007c.093.007.306.014.519.014.163 0 .313-.007.412-.014l.078-.007-.007.078-.014.128-.043.015c-.085.014-.191.035-.248.049v.007l-.029.029-.099.099c-.078.086-.178.199-.277.32-.171.206-.356.427-.441.533.263.356.966 1.379 1.237 1.742l.064.078-.1.021-.163.043-.036.007-.021-.022"/><path d="m40.33 27.509h.86v.327h-1.215v-2.843h.355v2.516"/><path d="m44.998 24.993v1.677c0 .462.142.896.682.896.548 0 .69-.434.69-.896v-1.677h.355v1.798c0 .625-.391 1.102-1.045 1.102-.647 0-1.037-.477-1.037-1.102v-1.798h.355"/><path d="m56.21 24.993v1.677c0 .462.142.896.682.896.547 0 .689-.434.689-.896v-1.677h.356v1.798c0 .625-.391 1.102-1.045 1.102-.647 0-1.038-.477-1.038-1.102v-1.798h.356"/><path d="m62.04 26.338h.114c.362 0 .753-.071.753-.519 0-.447-.419-.511-.774-.511h-.093v1.03m1.415 1.493h-.434l-.832-1.201h-.149v1.201h-.355v-2.836h.433c.249 0 .519 0 .747.128.241.142.376.412.376.682 0 .405-.277.746-.682.796l.896 1.23"/><path d="m66.996 24.993h1.528v.327h-1.173v.796h1.137v.32h-1.137v1.073h1.173v.327h-1.528v-2.843"/><path d="m76.899 27.509h.128c.718 0 1.343-.27 1.343-1.094 0-.832-.625-1.095-1.343-1.095h-.128v2.189m-.356-2.516h.59c.867 0 1.592.462 1.592 1.408 0 .966-.703 1.435-1.606 1.435h-.576v-2.843"/><path d="m82.34 24.993h1.528v.327h-1.173v.796h1.137v.32h-1.137v1.073h1.173v.327h-1.528v-2.843"/><path d="m87.92 26.327h.113c.363 0 .754-.071.754-.518 0-.448-.419-.498-.775-.498h-.092v1.016m0 1.507h-.356v-2.843h.405c.875 0 1.152.306 1.152.825 0 .597-.462.824-.995.824h-.206v1.194"/><path d="m93 24.993v1.677c0 .462.142.896.689.896.54 0 .683-.434.683-.896v-1.677h.355v1.798c0 .625-.391 1.102-1.038 1.102-.654 0-1.045-.477-1.045-1.102v-1.798h.356"/><path d="m98.83 27.834h-.355v-2.843h.355v2.843"/><path d="m103.88 25.531c-.1-.177-.24-.27-.45-.27-.23 0-.48.157-.48.405 0 .221.22.342.4.406l.2.078c.4.163.71.384.71.86 0 .512-.41.881-.91.881-.46 0-.82-.334-.88-.796l.36-.071c-.001.313.24.54.55.54.3 0 .52-.256.52-.554 0-.306-.24-.441-.49-.54l-.2-.086c-.32-.135-.61-.319-.61-.718 0-.454.41-.732.83-.732.32 0 .58.157.74.427l-.29.17"/><path d="m112.45 25.317l.2-.327h.63v2.843h-.34v-2.516h-.49"/><path d="m119.17 25.845c0-.299-.27-.597-.58-.597-.34 0-.63.27-.63.597 0 .341.31.597.61.597.36 0 .6-.291.6-.597m-1.19 1.869l.76-1.016-.02-.007c-.08.042-.17.049-.27.049-.47 0-.82-.419-.82-.874 0-.519.42-.931.94-.931.49 0 .94.405.94.903 0 .284-.14.533-.31.753l-.97 1.301-.25-.178z"/><path d="m123.05 25.317v-.327h2.05l-1.77 2.907-.28-.171 1.47-2.409h-1.47"/><path d="m130.05 25.845c0-.299-.27-.597-.58-.597-.33 0-.62.27-.62.597 0 .341.31.597.6.597.36 0 .6-.291.6-.597m-1.19 1.869l.76-1.016-.02-.007c-.07.042-.17.049-.27.049-.47 0-.82-.419-.82-.874 0-.519.42-.931.94-.931.49 0 .94.405.94.903 0 .284-.14.533-.31.753l-.97 1.301-.25-.178z"/><path d="m137.68 22.14h-1.58v-12.36h-4.62v-1.436h10.84v1.436h-4.64v12.36"/><path d="m157.07 8.345h1.68l-5.93 13.896h-1.38l-5.94-13.896h1.74l4.91 11.884 4.92-11.884"/><path d="m6.389 2.473c-1.791-.263-2.083 1.251-2.289 2.616-.391 2.637.043 3.284-1.94 5.266-1.699 1.699-2.338 2.95-2.118 5.559.192 2.302.839 3.98 2.68 5.16 1.507.98.959 4.477 2.772 6.368 2.509 2.637 4.883 1.087 7.655.718 3.497-.476 5.793 2.594 9.652-.334 3.853-2.929 7.179-3.945 7.101-9.844-.05-3.327 2.075-6.511-.796-9.375-3.142-3.134-4.201-8.28-12.851-8.6-3.426-.121-5.359 1.407-6.226 1.72-.874.32-1.834 1.01-3.639.746"/></g><g fill="#fff"><path d="m15.774 2.727c-6.482 0-11.756 5.274-11.756 11.756 0 6.475 5.274 11.749 11.756 11.749 6.482 0 11.756-5.274 11.756-11.749 0-6.482-5.274-11.756-11.756-11.756m0 24.308c-6.923 0-12.559-5.629-12.559-12.552 0-6.923 5.636-12.559 12.559-12.559 6.923 0 12.559 5.636 12.559 12.559s-5.636 12.552-12.559 12.552"/><path d="m23.17 22.05c-.853-1.102-2.573-3.568-3.952-5.544-.789-1.123-1.478-2.111-1.898-2.687.882-1.094 3.725-4.506 4.045-4.698.106-.021.234-.05.376-.078.263-.057.562-.121.789-.185l.135-.036.078-.775-.241.021c-.555.05-1.265.078-1.941.078-1.059 0-2.032-.043-2.416-.078l-.263-.021.142.796.142.021c.455.064.825.135 1.073.192-.554.988-1.968 3.01-2.58 3.845-.597-.767-2.139-3.049-2.622-3.838.376-.078.817-.142 1.307-.199l.136-.014.227-.796-.277.014c-.725.036-1.933.078-2.985.078-1.678 0-2.63-.036-2.836-.078l-.27-.05.114.817.142.028c.1.021.213.043.327.057.292.057.59.114.818.178.519.554 1.514 1.912 2.48 3.227.64.867 1.301 1.762 1.834 2.445-.142.177-.348.455-.597.789-1.166 1.563-3.596 4.826-4.151 5.16-.327.142-.732.199-1.137.256l-.121.014-.27.796.462-.036c.448-.021.945-.056 1.877-.056.703 0 1.57.028 2.146.049.313.014.547.022.647.022h.227l-.099-.775-.157-.014c-.263-.029-.853-.121-1.286-.206.732-1.436 2.502-4.222 3.163-5.089.156.191.369.447.611.753 1.272 1.578 3.632 4.506 5.729 6.084l.071.057 1.194-.277-.192-.249"/></g></svg>