<svg xmlns="http://www.w3.org/2000/svg" viewBox="0 0 158.75 26.624158" width="600" height="100.62"><g stroke-width=".915"><g transform="translate(-7.409-1.242)" fill="#d70072"><path d="m48.704 19.473h-2.49v-8.594h2.49c2.652 0 4.382 1.826 4.382 4.316 0 2.491-1.73 4.278-4.382 4.278m0-10.616h-5.441v.312c.273.085.461.189.566.312.104.117.162.293.162.526v11.488h4.713c3.972 0 6.709-2.763 6.709-6.332 0-3.576-2.737-6.306-6.709-6.306"/><path d="m64.946 19.67c-2.51 0-4.298-2.034-4.298-4.511 0-2.471 1.755-4.473 4.258-4.473 2.509 0 4.297 2.041 4.297 4.511 0 2.471-1.749 4.473-4.257 4.473m0-11.03c-3.882 0-6.625 2.978-6.625 6.553 0 3.57 2.711 6.514 6.585 6.514 3.881 0 6.625-2.977 6.625-6.552 0-3.57-2.705-6.515-6.585-6.515"/><path d="m77.16 15.12v-4.245h3.232c1.638 0 2.613.721 2.613 2.113 0 1.299-1.01 2.132-2.594 2.132zm5.09 1.586c1.769-.488 3.01-1.749 3.01-3.842 0-2.47-1.781-4.01-4.686-4.01h-6.358v.312c.272.085.461.189.565.306.104.123.155.299.155.533v1.171h.008v10.316h2.216v-4.407h2.776l3.108 4.407h2.613z"/><path d="m94.93 19.67c-2.418 0-4.167-2.02-4.167-4.511 0-2.49 1.749-4.473 4.167-4.473 1.443 0 2.529.63 3.537 1.567l1.419-1.638c-1.199-1.158-2.609-1.971-4.937-1.971-3.829 0-6.513 2.945-6.513 6.553 0 3.641 2.743 6.514 6.423 6.514 2.366 0 3.809-.864 5.119-2.236l-1.421-1.443c-1.085 1.01-2.073 1.638-3.627 1.638"/><path d="m105.94 19.509v-3.394h6.33v-1.983h-6.33v-3.282h7.15v-1.99h-10.08v.312c.26.085.45.182.55.306.11.111.15.273.16.481v11.539h9.46v-1.989h-7.24"/><path d="m120.06 19.473v-10.616h-2.22v.007h-.73v.312c.27.085.47.189.57.306.11.123.16.299.16.533v11.481h8.87v-2.02z"/><path d="m55.55 26.9c-.481-.364-1.015-1.065-1.223-1.312-.13.175-.448.669-.591.942.078.013.176.033.22.033l.052.006.007.046.02.142h-.072c-.059 0-.338-.012-.546-.012-.202 0-.306.006-.396.012l-.085.007.026-.084.039-.111.032-.006c.072-.007.157-.02.215-.046.059-.039.273-.299.474-.559.176-.234.358-.475.436-.585-.254-.331-.663-.91-.825-1.086-.059-.019-.143-.032-.215-.045l-.045-.007v-.045l-.027-.156.079.012c.032.007.227.013.552.013.195 0 .436-.006.578-.013l.086-.006-.021.078-.038.117-.039.007c-.091.007-.163.019-.222.032.105.163.358.546.475.703.123-.17.37-.521.475-.703-.065-.019-.149-.025-.182-.032l-.04-.007-.006-.045-.032-.15.078.006c.085.007.28.013.474.013.149 0 .287-.006.377-.013l.072-.006-.007.071-.013.117-.039.014c-.078.013-.175.032-.227.045v.006l-.026.027-.091.09c-.071.079-.163.182-.253.293-.157.189-.326.391-.404.488.241.325.884 1.261 1.132 1.593l.058.071-.091.02-.149.039-.033.006z"/><path d="m44.3 26.403h.787v.3h-1.112v-2.601h.325z"/><path d="m48.564 24.1v1.534c0 .423.13.82.624.82.501 0 .631-.397.631-.82v-1.534h.325v1.645c0 .571-.358 1.01-.956 1.01-.592 0-.949-.437-.949-1.01v-1.645z"/><path d="m58.818 24.1v1.534c0 .423.13.82.624.82.5 0 .63-.397.63-.82v-1.534h.326v1.645c0 .571-.358 1.01-.956 1.01-.592 0-.949-.437-.949-1.01v-1.645z"/><path d="m64.15 25.332h.104c.331 0 .689-.065.689-.474 0-.409-.384-.468-.708-.468h-.085zm1.294 1.366h-.397l-.761-1.099h-.136v1.099h-.325v-2.594h.396c.228 0 .475 0 .683.117.221.13.344.377.344.624 0 .37-.253.682-.624.728z"/><path d="m68.69 24.1h1.397v.299h-1.073v.728h1.04v.293h-1.04v.981h1.073v.3h-1.397z"/><path d="m77.74 26.403h.117c.656 0 1.228-.246 1.228-1 0-.761-.572-1-1.228-1h-.117zm-.326-2.301h.54c.793 0 1.456.423 1.456 1.288 0 .884-.643 1.313-1.469 1.313h-.527z"/><path d="m82.72 24.1h1.397v.299h-1.072v.728h1.04v.293h-1.04v.981h1.072v.3h-1.397z"/><path d="m87.83 25.322h.103c.332 0 .69-.065.69-.473 0-.41-.384-.456-.709-.456h-.084zm0 1.379h-.326v-2.601h.37c.801 0 1.054.28 1.054.755 0 .546-.422.754-.91.754h-.188z"/><path d="m92.47 24.1v1.534c0 .423.13.82.63.82.494 0 .625-.397.625-.82v-1.534h.325v1.645c0 .571-.358 1.01-.95 1.01-.598 0-.955-.437-.955-1.01v-1.645z"/><path d="m97.8 26.701h-.324v-2.601h.324z"/><path d="m102.42 24.594c-.09-.162-.22-.247-.41-.247-.21 0-.44.144-.44.371 0 .202.2.313.37.371l.18.071c.37.15.65.352.65.787 0 .468-.38.806-.83.806-.42 0-.75-.306-.81-.728l.33-.065c-.001.286.22.494.5.494.28 0 .48-.234.48-.507 0-.28-.22-.403-.45-.494l-.18-.079c-.29-.123-.56-.291-.56-.656 0-.416.38-.67.76-.67.29 0 .53.144.68.391z"/><path d="m110.26 24.399l.18-.3h.58v2.601h-.31v-2.301z"/><path d="m116.41 24.881c0-.273-.25-.546-.53-.546-.32 0-.58.247-.58.546 0 .312.28.547.56.547.33 0 .55-.267.55-.547m-1.09 1.71l.69-.929-.02-.007c-.07.039-.15.045-.24.045-.43 0-.75-.383-.75-.799 0-.475.38-.852.86-.852.45 0 .86.371.86.826 0 .26-.13.488-.29.689l-.88 1.19z"/><path d="m119.96 24.399v-.3h1.87l-1.62 2.659-.25-.156 1.34-2.203z"/><path d="m126.36 24.881c0-.273-.25-.546-.53-.546-.3 0-.57.247-.57.546 0 .312.28.547.55.547.33 0 .55-.267.55-.547m-1.09 1.71l.69-.929-.001-.007c-.07.039-.16.045-.25.045-.43 0-.75-.383-.75-.799 0-.475.38-.852.86-.852.45 0 .86.371.86.826 0 .26-.13.488-.28.689l-.89 1.19z"/><path d="m133.34 21.494h-1.45v-11.306h-4.22v-1.313h9.91v1.313h-4.24v11.306"/><path d="m151.07 8.875h1.54l-5.43 12.71h-1.26l-5.43-12.71h1.59l4.49 10.869 4.5-10.869"/><path d="m13.25 3.504c-1.639-.241-1.905 1.144-2.094 2.392-.357 2.412.039 3-1.774 4.817-1.554 1.554-2.139 2.699-1.937 5.085.175 2.106.767 3.64 2.451 4.72 1.378.896.878 4.095 2.536 5.824 2.294 2.412 4.465.994 7 .657 3.198-.435 5.299 2.373 8.828-.306 3.524-2.679 6.567-3.608 6.495-9-.045-3.043 1.898-5.955-.728-8.575-2.874-2.867-3.842-7.574-11.754-7.866-3.134-.111-4.902 1.287-5.695 1.573-.799.293-1.677.923-3.328.683"/></g><g fill="#fff"><path d="m14.425 2.494c-5.929 0-10.753 4.824-10.753 10.753 0 5.922 4.824 10.746 10.753 10.746 5.929 0 10.753-4.824 10.753-10.746 0-5.929-4.824-10.753-10.753-10.753m0 22.23c-6.332 0-11.487-5.149-11.487-11.481 0-6.332 5.155-11.487 11.487-11.487 6.332 0 11.487 5.155 11.487 11.487 0 6.332-5.155 11.481-11.487 11.481"/><path d="m21.19 20.16c-.781-1.01-2.354-3.264-3.615-5.071-.722-1.027-1.352-1.931-1.736-2.458.807-1 3.407-4.121 3.7-4.297.097-.02.214-.046.344-.072.24-.052.514-.111.721-.169l.124-.033.071-.708-.22.019c-.508.046-1.157.072-1.776.072-.968 0-1.858-.039-2.21-.072l-.24-.019.13.728.13.02c.416.059.754.123.981.175-.507.903-1.8 2.756-2.36 3.516-.546-.701-1.956-2.788-2.398-3.51.344-.072.747-.13 1.196-.182l.124-.013.208-.728-.254.013c-.663.033-1.768.072-2.73.072-1.535 0-2.406-.032-2.594-.072l-.247-.045.104.748.13.026c.091.02.195.039.299.052.266.052.539.104.747.162.475.507 1.385 1.749 2.269 2.951.585.793 1.19 1.612 1.677 2.237-.13.162-.318.416-.546.721-1.066 1.43-3.289 4.415-3.796 4.72-.299.13-.67.182-1.04.234l-.111.013-.247.728.423-.033c.409-.019.864-.051 1.716-.051.643 0 1.436.026 1.963.045.286.013.501.02.592.02h.208l-.091-.709-.144-.013c-.24-.026-.78-.11-1.176-.188.67-1.314 2.289-3.862 2.893-4.655.143.175.338.409.559.689 1.164 1.443 3.322 4.121 5.24 5.565l.065.052 1.092-.254z"/></g></g><g fill="#d70072" stroke-width=".2"><path d="m152.36 7.688l-1.342 5.808h-1.506l.593-2.567h-2.204l-.593 2.567h-1.506l1.342-5.808h1.506l-.495 2.138h2.204l.495-2.138h1.506"/><path d="m158.75 9.955q0 .987-.519 1.822-.519.835-1.33 1.279-.491.265-1.026.355-.534.086-1.279.086h-2.102l1.342-5.808h1.88q.831 0 1.338.129.507.129.819.347.429.296.651.741.226.441.226 1.049m-1.568.137q0-.398-.148-.683-.148-.289-.452-.464-.14-.078-.289-.117-.144-.043-.332-.062-.179-.016-.41-.016-.23 0-.402 0h-.051l-.858 3.682h.137q.226 0 .484 0 .257 0 .417-.02.207-.02.371-.062.168-.043.367-.144.562-.289.862-.862.304-.573.304-1.252"/></g></svg>