<svg xmlns="http://www.w3.org/2000/svg" height="178.94" viewBox="0 0 334.0332 178.94278" width="334.03"><path fill="#fff" d="m.451 177.67c-.268-.69-.366-12.4-.219-26.01l.268-24.74 166.5.009 166.5.009.267 26 .267 26h-166.55c-133.58 0-166.64-.251-167.03-1.268zm265.05-25.23v-23h-130.76-130.76l-.377 22.697c-.207 12.484-.127 22.948.179 23.254.306.306 59.32.442 131.14.303l130.58-.254v-23zm-249.5 10.05c0-.881.861-1.548 2-1.548 1.843 0 2-.667 2-8.5 0-7.951-.135-8.5-2.087-8.5-1.4 0-2.459.987-3.219 3-1.623 4.299-2.694 3.702-2.694-1.5v-4.5h10.5 10.5v3.387c0 3.053.319 3.433 3.236 3.861 1.78.261 3.97.016 4.867-.544 3.521-2.199 7.514 2.107 4.63 4.992-1.922 1.922-4.079.738-3.398-1.866.705-2.697-1.518-1.792-3.069 1.249-1.975 3.871-1.602 8.02.776 8.642 3.681.963 1.408 2.773-3.87 3.081-4.137.242-5.171-.008-5.171-1.25 0-.854.627-1.552 1.393-1.552 1.989 0 2.702-2.552 1.978-7.079-.461-2.882-1.105-3.921-2.433-3.921-1.206 0-1.911-.878-2.122-2.642-.198-1.653-1.159-2.951-2.566-3.468-2.227-.817-2.25-.736-2.25 8.142 0 8.421.127 8.968 2.083 8.968 1.22 0 1.912.518 1.671 1.25-.256.774-2.763 1.363-6.583 1.548-5.03.243-6.171.012-6.171-1.25m32.15-.298c-1.575-3.01.392-5.932 5.02-7.476 5.25-1.75 6.127-5.067 1.481-5.599-2.442-.28-2.752-.045-2.209 1.666.856 2.696-1.252 3.792-3.295 1.713-1.541-1.567-1.492-1.816.707-3.618 3.05-2.5 7.603-2.471 10.139.065 1.473 1.473 2 3.333 2 7.06 0 3.172.379 4.825 1.016 4.431.559-.345.757-1.047.441-1.559-.316-.512.126-.931.984-.931 1.811 0 1.984 1.338.524 4.066-1.091 2.038-5.399 2.659-6.466.932-.414-.67-1.241-.67-2.493 0-2.912 1.558-6.839 1.185-7.852-.747m9.4-3.418c.866-2.73-.092-3.363-3.049-2.02-2.648 1.206-3.356 3.72-1.254 4.453 1.946.679 3.614-.266 4.303-2.437m12.933-.082c-.921-2.887-2.545-6.488-3.61-8l-1.936-2.75h4.53c2.492 0 4.53.45 4.53 1s-.48 1-1.067 1c-1.064 0-.719 1.829 1.32 7 .957 2.427 1.03 2.37 2.516-1.95 1.108-3.222 1.213-4.556.381-4.833-2.484-.828-.96-2.217 2.433-2.217 1.971 0 3.41.338 3.199.75-.683 1.332-4.866 10.681-5.817 13-1.702 4.151-4.631 2.795-6.479-3m15.586 2.615c-4.246-5.398-.971-14.365 5.247-14.365 3.416 0 7.68 3.649 7.68 6.573 0 2.246-.373 2.427-5 2.427-4.303 0-5 .274-5 1.965 0 1.081.89 2.441 1.977 3.02 1.57.84 2.393.642 4-.965 2.373-2.373 4.02-2.611 4.02-.58 0 2.161-4.02 4.557-7.65 4.557-2.271 0-3.809-.768-5.278-2.635m8.927-8.83c0-1.715-2.947-3.463-4.75-2.817-.688.247-1.25 1.311-1.25 2.365 0 1.463.71 1.917 3 1.917 1.968 0 3-.504 3-1.465m5 9.965c0-.825.675-1.5 1.5-1.5 1.222 0 1.5-1.667 1.5-9s-.278-9-1.5-9c-.825 0-1.5-.45-1.5-1s1.575-1 3.5-1h3.5v10c0 8.222.267 10 1.5 10 .825 0 1.5.675 1.5 1.5 0 1.133-1.222 1.5-5 1.5s-5-.367-5-1.5m17.881-.619c-2.632-2.632-2.367-6.353.619-8.702 1.833-1.442 2.5-2.919 2.5-5.537 0-2.6.569-3.875 2.093-4.691 2.769-1.482 6.619-.433 7.396 2.01.674 2.124-.962 6.04-2.524 6.04-1.676 0-1.046 2.616 1.096 4.555 1.764 1.596 2.194 1.655 2.985.405 1.327-2.097 1.167-2.96-.546-2.96-.825 0-1.5-.45-1.5-1s2.25-1 5-1 5 .45 5 1-.59 1-1.312 1c-1.439 0-5.688 5.253-5.688 7.03 0 1.933 3.456.556 4.487-1.789 1.236-2.81 2.513-2.9 2.513-.178 0 5.01-1.331 5.696-11.09 5.696-7.621 0-9.461-.314-11.03-1.881m7.36-3.971c-2.15-3.396-3.56-3.882-4.075-1.405-.584 2.813.689 4.494 3.401 4.494h2.63l-1.956-3.09m2.572-11.172c.231-1.2-.307-1.738-1.739-1.738s-2.073.642-2.073 2.073c0 2.563 3.31 2.272 3.812-.335m22.855 16.595c-1.268-1.268-.659-2.333 1.333-2.333 1.851 0 2-.667 2-8.968 0-8.856-.028-8.958-2.23-8.143-1.227.454-2.476 1.868-2.778 3.144-1.03 4.39-2.99 3.44-2.99-1.45v-4.583h10.437 10.437l.313 3.246c.262 2.718.801 3.336 3.313 3.799 1.65.304 3.789.085 4.754-.488 2.226-1.322 5.124.332 5.549 3.168.34 2.269-1.785 3.522-3.829 2.259-1.11-.686-1.116-1.107-.037-2.407 1.087-1.309 1.067-1.576-.114-1.576-2.583 0-3.822 2.335-3.822 7.2 0 3.6.375 4.8 1.5 4.8.825 0 1.5.675 1.5 1.5 0 1.133-1.222 1.5-5 1.5s-5-.367-5-1.5c0-.825.675-1.5 1.5-1.5 1.151 0 1.5-1.278 1.5-5.5 0-4.608-.289-5.5-1.781-5.5-1.039 0-2.228-1.185-2.855-2.845-.591-1.565-2.039-3.098-3.219-3.406-2.08-.54-2.15-.27-2.15 8.35 0 8.24.15 8.906 2 8.906 1.111 0 2 .667 2 1.5 0 1.162-1.315 1.5-5.833 1.5-3.208 0-6.133-.3-6.5-.667zm33.406-1.968c-2.877-3.658-2.712-8.817.382-11.911 4.442-4.442 11.01-2.273 12.998 4.295.651 2.146.424 2.25-4.885 2.25-4.868 0-5.567.247-5.567 1.965 0 1.081.89 2.441 1.977 3.02 1.57.84 2.393.642 4-.965 2.34-2.34 4.03-2.62 4.03-.68 0 2.376-3.553 4.655-7.256 4.655-2.697 0-4.118-.66-5.671-2.635zm8.737-9.115c-.213-1.104-1.25-1.75-2.81-1.75s-2.597.646-2.81 1.75c-.263 1.367.351 1.75 2.81 1.75s3.073-.383 2.81-1.75m5.721 10.8c-.323-.522.326-1.438 1.441-2.035 3.02-1.618 2.875-9.18-.222-11.341-2.203-1.536-2.162-1.571 1.917-1.622 4.757-.06 5.287.731 4.259 6.353-.759 4.152-.322 6.594 1.181 6.594.491 0 .893.675.893 1.5 0 1.108-1.16 1.5-4.441 1.5-2.442 0-4.705-.427-5.03-.95m11.47-.549c0-.825.45-1.5 1-1.5s1-2.475 1-5.5c0-5.2-.136-5.5-2.5-5.5-3.31 0-3.204-1.785.155-2.628 4.289-1.076 5.809.648 6.145 6.973.234 4.404.732 5.869 2.278 6.697 2.996 1.604 1.331 2.958-3.637 2.958-3.281 0-4.441-.392-4.441-1.5m13-.5c-2.923-2.923-2.75-9.946.314-12.826 2.423-2.276 6.13-2.882 7.186-1.174 1.154 1.868 2.5 1.01 2.5-1.594 0-1.748-.649-2.763-1.989-3.114-3.02-.789-1.345-2.293 2.548-2.293h3.441v10c0 8.222.267 10 1.5 10 .825 0 1.5.675 1.5 1.5 0 1.877-6.612 2.104-7.292.25-.367-1-.723-1-1.783 0-1.974 1.862-5.662 1.513-7.925-.75m9.2-3.54c1.693-3.717-.012-7.96-3.2-7.96-1.765 0-2.719.759-3.405 2.71-1.249 3.551.604 7.79 3.405 7.79 1.217 0 2.511-1.027 3.2-2.54m8.8 1.79c0-3.919.916-4.082 3.868-.687 1.406 1.618 3.041 2.448 4.43 2.25 3.67-.522 2.502-3.143-2.13-4.781-4.982-1.762-6.746-4.085-5.239-6.901 1.412-2.638 3.708-3.308 8.744-2.553 3.712.557 4.326.988 4.326 3.035 0 2.745-1.187 3.071-3.042.836-1.376-1.658-6.068-1.618-5.948.051.04.55 1.694 1.561 3.676 2.248 4.594 1.59 6.314 3.036 6.314 5.303 0 3.542-2.763 4.974-9.08 4.703l-5.924-.254v-3.25m48-4.25v-11h5.837 5.837l5.104 11c4.359 9.394 5.441 10.995 7.413 10.967 1.985-.028 3.114-1.835 8.06-12.897 3.163-7.08 5.75-13.304 5.75-13.841 0-.567-1.333-.704-3.176-.327-2.858.584-3.523 1.473-6.644 8.874-1.908 4.523-3.789 8.224-4.18 8.224-.391 0-2.277-3.713-4.19-8.25l-3.478-8.25-16.666-.274-16.67-.28v2.524c0 2.362.321 2.524 5 2.524h5v11 11h3.5 3.5v-11zm-155.83-46.01c-21.79-3.22-36.27-24.479-36.24-53.22.021-23.442 9.516-41.939 25.591-49.853 8.143-4.01 19.968-5.05 28.473-2.52 20.265 6.04 33.1 28.764 31.694 56.1-.763 14.82-4.81 26.362-12.858 36.669-7.46 9.553-22.684 14.877-36.651 12.817zm16.599-7.56c23.2-11.56 26.19-69.32 4.577-88.35-16.13-14.196-35.52-3.325-41.966 23.523-3.745 15.597-1.457 39.537 4.975 52.05 7.143 13.901 19.99 18.963 32.414 12.772m67.89 4.409c-.862-2.384-8.1-24.24-16.09-48.578-7.986-24.334-15.215-45.589-16.06-47.23-1.739-3.362-6.14-6.02-9.963-6.02-3.954 0-3.119-2.748 1.2-3.947 5.315-1.476 10.926-1.3 14.633.459 6.237 2.96 8.314 7.977 24.626 59.49 3.919 12.375 7.33 23.13 7.582 23.893.251.766.676 1.174.944.906 1.595-1.595 22.642-74.71 21.867-75.96-.254-.411-3.148-1.051-6.431-1.423-4.74-.542-5.97-1.038-5.97-2.417 0-1.581 1.364-1.718 15.25-1.539 12.152.157 15.25.475 15.25 1.567 0 .787-1.841 1.819-4.323 2.423-2.378.579-4.732 1.783-5.232 2.677-1.725 3.082-22.06 61.07-30.472 86.87-2.061 6.325-4.084 11.876-4.495 12.335-.411.459-1.453-1.116-2.315-3.5zm80.59 2.436c-25.523-.253-30.25-.525-30.25-1.74 0-.895 1.42-1.659 3.75-2.02 2.063-.317 4.875-.911 6.25-1.319l2.5-.742.26-46.754c.219-39.479.041-46.838-1.15-47.3-.775-.298-3.587-.852-6.248-1.233-3.088-.442-4.942-1.231-5.125-2.181-.249-1.294 3.898-1.489 31.617-1.489h31.904l.614 6.5c.338 3.575.617 8.45.621 10.833.011 6.709-2.285 4.643-3.739-3.362-.685-3.775-1.719-7.338-2.298-7.917-.65-.652-7.233-1.054-17.254-1.054h-16.202v22 22l10.5-.32c5.775-.176 12.06-.642 13.977-1.036 3.332-.687 3.52-.963 4.5-6.601.562-3.236 1.484-6.04 2.047-6.222.967-.318.837 33.563-.133 34.596-.946 1.01-1.528-1.153-2.078-7.718-.711-8.476-.065-8.166-17.06-8.185l-12.25-.014v23.08 23.08l17.419-.333c9.58-.183 17.708-.622 18.06-.977.353-.354 1.361-4.292 2.239-8.75.878-4.458 1.99-8.106 2.471-8.106.481 0 .747 5.287.592 11.75l-.28 11.743-2.5.035c-1.375.019-16.11-.1-32.75-.265zm-298.25-1.7c0-.846 1.012-1.729 2.25-1.962 1.237-.233 4.05-.804 6.25-1.269l4-.846.26-45.885c.177-31.23-.079-46.29-.8-47.16-.583-.703-3.288-1.584-6.01-1.959-3.666-.504-4.95-1.11-4.95-2.337 0-1.502 2.209-1.633 23.75-1.407 13.06.137 26.23.746 29.25 1.354 15.757 3.165 28.26 15.768 33.12 33.397 2.064 7.48 1.776 28.448-.494 36-4.328 14.396-14 26.1-25.342 30.653-5.485 2.203-7.223 2.34-33.535 2.643-24.448.28-27.748.14-27.748-1.22m54.56-6.8c12.917-6.686 20.389-22.737 20.422-43.866.032-21.07-7.584-37.27-20.668-43.949-4.326-2.21-6.04-2.461-16.817-2.461h-12l-.26 46.17c-.244 43.34-.152 46.21 1.5 46.686.968.281 6.485.404 12.26.274 9.101-.206 11.175-.586 15.563-2.858z"/></svg>