<svg xmlns="http://www.w3.org/2000/svg" height="138.51" width="600" viewBox="0 0 158.75 36.646299"><g transform="translate(11.5-101.77)"><path d="m111.75 101.78h-123.25v36.64h123.25v-36.64"/><g fill="#fff"><path d="m30.467 125.67h-8.185c-.236 0-.28-.09-.28-.28v-11.01c0-.19.044-.28.28-.28h8.185c4.868 0 6.816 1.39 6.816 5.77s-1.948 5.8-6.816 5.8m6.768-14.94h-26.13c-.232 0-.348.15-.348.35v17.6c0 .21.116.35.348.35h26.13c7.673 0 11.549-2.55 11.549-9.21 0-6.6-3.876-9.09-11.549-9.09"/><path d="m73.6 120.96h-9.137c-.208 0-.28-.07-.28-.28v-6.3c0-.21.072-.28.28-.28h9.137c3.06 0 4.36.83 4.36 3.36 0 2.55-1.3 3.5-4.36 3.5m16.413 7.33l-7.557-5.33c-.188-.14-.3-.22-.3-.31s.068-.14.228-.14c3.829 0 6.797-1.78 6.797-5.72 0-3.92-2.552-6.05-7.261-6.05h-28.638c-.232 0-.348.13-.348.34v17.6c0 .21.116.35.348.35h10.541c.232 0 .348-.14.348-.35v-4.17c0-.21.068-.28.276-.28h6.06c.304 0 .42.02.628.19l5.264 4.36c.256.21.44.25.74.25h13.1c.188 0 .28-.07.28-.21 0-.18-.324-.39-.512-.53"/></g><path d="m147.25 138.41h-36.64v-36.64h36.64v36.64" fill="#ef4123"/><path d="m132.42 110.17c0-.23-.11-.37-.37-.37-5.16 0-7.84.63-9.81 1.13-.21.06-.32.11-.32.31v4.68c0 .2.05.26.19.26.06 0 .13-.02.27-.05.9-.21 2.23-.59 4.13-.77.06 0 .2 0 .2.22v9.16c0 .26-.12.36-.36.36h-4.67c-.25 0-.37.11-.37.37v4.16c0 .19.12.33.37.33h15.35c.24 0 .36-.14.36-.33v-4.16c0-.26-.12-.37-.36-.37h-4.25c-.24 0-.36-.1-.36-.36v-14.57" fill="#fff"/></g></svg>