<svg xmlns="http://www.w3.org/2000/svg" height="138.48" width="600" viewBox="0 0 158.75 36.638301"><g transform="translate(-88.66-169.23)"><path d="m212.67 169.23h-124.01l.003 36.64h124.01v-36.64z"/><g fill="#fff"><path d="m130.63 193.12h-8.18c-.24 0-.28-.09-.28-.28v-11.01c0-.18.04-.28.28-.28h8.18c4.87 0 6.82 1.39 6.82 5.78 0 4.38-1.95 5.79-6.82 5.79m6.77-14.93h-26.14c-.23 0-.34.14-.34.35v17.6c0 .21.11.35.34.35h26.14c7.67 0 11.55-2.55 11.55-9.21 0-6.61-3.88-9.09-11.55-9.09"/><path d="m173.76 188.42h-9.14c-.2 0-.28-.08-.28-.28v-6.31c0-.21.08-.28.28-.28h9.14c3.06 0 4.36.84 4.36 3.37 0 2.54-1.3 3.5-4.36 3.5m16.41 7.32l-7.55-5.33c-.19-.14-.3-.21-.3-.3s.06-.14.22-.14c3.83 0 6.8-1.79 6.8-5.73 0-3.92-2.55-6.05-7.26-6.05h-28.64c-.23 0-.35.14-.35.35v17.6c0 .2.12.34.35.34h10.54c.24 0 .35-.14.35-.34v-4.18c0-.2.07-.27.28-.27h6.06c.31 0 .42.02.63.18l5.26 4.36c.26.21.44.25.74.25h13.1c.19 0 .28-.06.28-.2 0-.19-.32-.4-.51-.54"/></g><path d="m247.41 205.87h-36.63v-36.64h36.63v36.64" fill="#00c0f3"/><path d="m220.87 193.41v3.63c0 .24.13.37.37.37h15.33c.24 0 .37-.13.37-.37v-4.16c0-.24-.13-.36-.37-.36h-6.92c-.14 0-.18-.04-.18-.09s.02-.12.1-.19l2.77-2.31c3.05-2.55 4.29-3.87 4.29-6.94 0-3.01-2.51-5.96-8.1-5.96-3.85 0-6.5 1.3-7.16 1.73-.1.07-.19.13-.19.3v4.61c0 .18.03.28.17.28.05 0 .1-.02.2-.07 1.1-.55 3.98-1.81 6.56-1.81 1.78 0 2.76.55 2.76 1.65s-.8 1.78-2.64 3.32l-7.23 6.06c-.07.07-.13.13-.13.31" fill="#fff"/></g></svg>