<svg xmlns="http://www.w3.org/2000/svg" height="138.48" width="600" viewBox="0 0 158.75 36.638313"><g transform="translate(-40.661-239.14)"><path d="m163.44 239.14h-122.78v36.63h122.78v-36.63"/><g fill="#fff"><path d="m82.63 263.02h-8.184c-.236 0-.28-.09-.28-.28v-11.01c0-.18.044-.27.28-.27h8.184c4.868 0 6.817 1.38 6.817 5.77 0 4.38-1.949 5.79-6.817 5.79m6.769-14.93h-26.13c-.232 0-.348.14-.348.35v17.6c0 .21.116.35.348.35h26.13c7.672 0 11.544-2.55 11.544-9.21 0-6.61-3.872-9.09-11.544-9.09"/><path d="m125.76 258.32h-9.14c-.21 0-.28-.07-.28-.28v-6.31c0-.2.07-.28.28-.28h9.14c3.06 0 4.36.84 4.36 3.37 0 2.55-1.3 3.5-4.36 3.5m16.41 7.33l-7.56-5.34c-.18-.14-.3-.21-.3-.3s.07-.14.23-.14c3.83 0 6.8-1.78 6.8-5.72 0-3.92-2.55-6.06-7.26-6.06h-28.64c-.23 0-.35.14-.35.35v17.6c0 .21.12.35.35.35h10.54c.23 0 .35-.14.35-.35v-4.17c0-.21.07-.28.27-.28h6.07c.3 0 .42.02.63.18l5.26 4.36c.26.21.44.26.74.26h13.1c.19 0 .28-.07.28-.21 0-.19-.32-.39-.51-.53"/></g><path d="m199.41 275.77h-36.64v-36.63h36.64v36.63" fill="#50b848"/><path d="m173.5 252.13c0 .3.18.36.36.36h8.12c.1 0 .12.06.12.08s0 .04-.04.08l-3.66 3.59c-.12.13-.12.18-.12.31v1.76c0 .2.12.26.32.26h1.17c3.13 0 3.8 1.05 3.8 2.27 0 .67-.55 2.15-3.44 2.15-2.57 0-5.82-1.1-6.63-1.42-.1-.04-.18-.06-.22-.06-.08 0-.1.08-.1.14v4.64c0 .12.04.2.14.26.79.46 3.92 1.41 7.05 1.41 4.12 0 8.9-1.83 8.9-6.75 0-2.98-1.47-4.62-4.16-5.41-.06-.02-.1-.04-.1-.1 0-.04.02-.08.06-.12l3.4-3.15c.16-.14.2-.28.2-.48v-3.94c0-.24-.06-.38-.36-.38h-14.45c-.24 0-.36.14-.36.38v4.12" fill="#fff"/></g></svg>