<svg xmlns="http://www.w3.org/2000/svg" width="540.59" height="115.39" viewBox="0 0 152.56608 32.565" fill-rule="evenodd"><g fill-rule="nonzero"><path transform="translate(-16.473-131.92)" fill="#2a941f" d="m169.04 131.92h-152.57v32.57h152.57z"/><g fill="#fff"><path d="m59.21 5.464c-1.124 0-2.114.911-2.087 2.302-.027 1.339.91 2.276 2.061 2.276 1.178 0 2.14-.937 2.113-2.276 0-1.391-.936-2.302-2.087-2.302m1.833 19.767h-3.666v-13.02h3.666v13.02"/><path d="m67.746 22.751c-1.044 0-1.553-1.552-1.553-4.07 0-1.928.402-4.02 1.526-4.02.991 0 1.418 2.087 1.418 4.02 0 2.061-.427 4.069-1.391 4.069m.178-10.763c-2.651 0-5.14 2.17-5.14 6.774 0 4.069 1.765 6.666 5.14 6.666 1.874 0 5.03-1.205 5.03-6.774 0-3.908-1.742-6.666-5.03-6.666"/><path d="m39.823 21.27c0 .241-.026.509-.108.642-.268.696-.936.964-1.444.964-.535 0-1.365-.509-1.365-1.848 0-1.579 1.338-2.168 2.917-2.195v2.436m3.587-3.561c0-2.49-.428-5.702-4.791-5.702-1.874 0-3.4.536-4.23.964l.589 2.329c.802-.455 1.66-.696 2.73-.696 1.232 0 1.981.723 1.981 1.58v.482c-3.079.026-6.184 1.365-6.184 4.819 0 2.275 1.419 3.962 3.373 3.962 1.096 0 2.489-.428 3.293-1.499l.214 1.285h3.185c-.108-.884-.16-1.848-.16-2.865v-4.658"/><path d="m51.53 20.733c0 .401-.054.669-.161.909-.215.617-.643.831-1.098.831-.803 0-1.659-.964-1.659-3.614 0-2.141.563-3.774 1.659-3.774.697 0 1.044.615 1.205 1.311.054.268.054.536.054.803v3.535m3.64-13.574h-3.64v6.104c-.295-.696-1.312-1.259-2.436-1.259-2.195 0-4.096 2.276-4.096 6.747 0 3.32 1.045 6.692 3.962 6.692 1.043 0 2.462-.669 2.998-1.686l.214 1.473h3.106c-.053-1.339-.108-2.73-.108-4.069v-14"/><path d="m100.56 5.464c-1.124 0-2.114.911-2.088 2.302-.026 1.339.909 2.276 2.061 2.276 1.177 0 2.141-.937 2.114-2.276 0-1.391-.937-2.302-2.087-2.302m1.832 19.767h-3.665v-13.02h3.665v13.02"/><path d="m139.72 25.23v-8.09c0-1.07-.347-2.062-1.312-2.062-.535 0-.963.295-1.258.911-.134.294-.242.777-.242 1.392v7.847h-3.668v-8.945c0-1.338-.054-2.757-.107-4.069h3.107l.214 1.527c.777-1.125 2.25-1.741 3.536-1.741 2.624 0 3.4 2.25 3.4 4.98v8.249h-3.669"/><path d="m131.54 20.227l-6.319-.053c.053 1.661 1.15 2.518 2.892 2.518.937 0 1.768-.188 2.464-.375l.429 2.517c-.937.322-2.329.537-3.642.537-3.615 0-5.65-2.251-5.65-6.348 0-4.446 2.383-7.04 5.383-7.04 2.757 0 4.552 1.981 4.552 6.319 0 .938-.026 1.527-.107 1.928m-4.659-5.703c-1.152 0-1.66 1.713-1.66 3.24h3.187c0-1.686-.349-3.24-1.527-3.24"/><path d="m115.92 25.396c-1.017 0-2.303-.321-2.946-.722l.59-2.598c.616.268 1.553.589 2.356.589.911 0 1.393-.375 1.393-1.071 0-.589-.429-.965-1.58-1.634-2.224-1.206-2.572-2.624-2.572-3.695 0-2.383 1.661-4.258 4.446-4.258 1.017 0 1.848.242 2.545.51l-.563 2.624c-.483-.268-1.044-.375-1.687-.375-.937 0-1.312.508-1.312 1.071 0 .481.268.83 1.58 1.58 2.035 1.124 2.544 2.518 2.544 3.83 0 2.704-1.928 4.151-4.794 4.151"/><path d="m107.18 25.396c-1.017 0-2.303-.321-2.946-.722l.59-2.598c.616.268 1.553.589 2.356.589.911 0 1.392-.375 1.392-1.071 0-.589-.428-.965-1.58-1.634-2.223-1.206-2.571-2.624-2.571-3.695 0-2.383 1.66-4.258 4.446-4.258 1.018 0 1.847.242 2.544.51l-.563 2.624c-.481-.268-1.043-.375-1.686-.375-.938 0-1.312.508-1.312 1.071 0 .481.268.83 1.58 1.58 2.035 1.124 2.544 2.518 2.544 3.83 0 2.704-1.928 4.151-4.793 4.151"/><path d="m86.39 25.25l1.164-5.816c.379-1.745.678-3.728 1-5.869h.054c.244 2.168.514 4.204.812 5.843l1.028 5.842h3.931l3.112-17.818h-3.713l-.757 6.373c-.243 2.061-.46 3.965-.704 6.291h-.054c-.217-2.326-.541-4.309-.866-6.318l-1.108-6.346h-3.081l-1.2 6.4c-.378 2.141-.785 4.072-1.028 6.265h-.081c-.217-2.168-.379-4.203-.623-6.239l-.758-6.425h-3.927l3 17.818h3.794"/><path d="m17.804 23.736c-1.232 1.097-2.972 1.66-5.596 1.66-1.126 0-2.196-.106-2.919-.188v-17.728c.883-.188 2.249-.348 3.668-.348 2.356 0 3.99.562 5.195 1.713 1.554 1.446 2.223 3.883 2.223 7.257 0 3.456-.857 6.16-2.571 7.633m-4.04-13.712c-.241 0-.401 0-.831.027v12.319c.402.054.59.054.803.054 1.527 0 2.838-1.715 2.838-6.535 0-3.615-.911-5.865-2.812-5.865"/><path d="m25.541 9.961c.189-.08.541-.107.866-.107 1.57.054 2.194 1.123 2.194 2.675 0 1.578-.867 2.807-2.41 2.807h-.649v-5.375m-3.548 15.27h3.548v-7.194h.541c1.165 0 1.733.642 2.058 2.861.271 2.01.677 3.825.921 4.333h3.709c-.324-.668-.812-2.889-1.164-4.894-.351-1.952-.975-3.075-2.22-3.583v-.054c1.841-.829 2.816-2.567 2.816-4.492 0-1.552-.352-2.755-1.463-3.744-1.163-1.07-2.925-1.338-4.874-1.338-1.353 0-2.762.135-3.872.348v17.758"/></g></g></svg>