<svg xmlns="http://www.w3.org/2000/svg" height="138.49" width="600" viewBox="0 0 158.75 36.64231"><g transform="translate(-79.21-294.9)"><path d="m203.59 294.9h-124.38l.004 36.64h124.38v-36.64z"/><g fill="#fff"><path d="m121.18 318.79h-8.18c-.24 0-.28-.09-.28-.28v-11.01c0-.19.04-.28.28-.28h8.18c4.87 0 6.82 1.39 6.82 5.77 0 4.39-1.95 5.8-6.82 5.8m6.77-14.93h-26.13c-.24 0-.35.14-.35.34v17.6c0 .21.11.35.35.35h26.13c7.67 0 11.55-2.55 11.55-9.21 0-6.6-3.88-9.08-11.55-9.08"/><path d="m164.31 314.08h-9.14c-.2 0-.28-.07-.28-.27v-6.31c0-.21.08-.28.28-.28h9.14c3.06 0 4.36.83 4.36 3.36 0 2.55-1.3 3.5-4.36 3.5m16.41 7.33l-7.55-5.33c-.19-.14-.3-.21-.3-.31 0-.09.07-.14.23-.14 3.82 0 6.79-1.78 6.79-5.72 0-3.92-2.55-6.05-7.26-6.05h-28.64c-.23 0-.34.13-.34.34v17.6c0 .21.11.35.34.35h10.54c.24 0 .35-.14.35-.35v-4.17c0-.21.07-.28.28-.28h6.06c.31 0 .42.02.63.19l5.26 4.35c.26.22.44.26.74.26h13.11c.18 0 .28-.07.28-.21 0-.18-.33-.39-.52-.53"/></g><path d="m237.96 331.53h-36.63v-36.63h36.63v36.63" fill="#522e91"/><path d="m223.52 323.2c-.38 0-.49-.06-.63-.28l-4.71-6.83-1.52 2v4.83c0 .22-.17.28-.4.28h-4.99c-.23 0-.37-.08-.37-.28v-19.36c0-.2.14-.34.37-.34h5.02c.23 0 .37.08.37.28v7.34l5.4-7.34c.08-.11.23-.28.4-.28h6.17c.25 0 .28.11.2.28l-6.51 8.62 7.59 10.8c.17.22 0 .28-.17.28h-6.22" fill="#fff"/></g></svg>