<svg xmlns="http://www.w3.org/2000/svg" height="198.69" width="600" viewBox="0 0 158.75 52.568906"><g transform="translate(-60.44-225.97)"><path d="m155.69 237.15h-95.25v28.57h95.25v-28.57"/><g fill="#fff"><path d="m93.18 255.78h-6.385c-.181 0-.216-.07-.216-.22v-8.59c0-.14.035-.21.216-.21h6.385c3.796 0 5.316 1.08 5.316 4.5s-1.52 4.52-5.316 4.52m5.281-11.65h-20.388c-.177 0-.27.11-.27.27v13.73c0 .17.093.28.27.28h20.388c5.982 0 9-2 9-7.18 0-5.16-3.02-7.1-9-7.1"/><path d="m126.82 252.11h-7.13c-.16 0-.21-.05-.21-.22v-4.92c0-.16.05-.22.21-.22h7.13c2.39 0 3.4.66 3.4 2.63 0 1.99-1.01 2.73-3.4 2.73m12.81 5.72l-5.9-4.17c-.15-.11-.24-.16-.24-.23s.06-.11.18-.11c2.99 0 5.3-1.39 5.3-4.47 0-3.05-1.99-4.72-5.66-4.72h-22.34c-.18 0-.27.11-.27.27v13.73c0 .17.09.28.27.28h8.22c.18 0 .27-.11.27-.28v-3.25c0-.17.06-.22.22-.22h4.73c.24 0 .33.02.49.14l4.11 3.4c.2.17.34.21.58.21h10.21c.15 0 .22-.06.22-.17 0-.14-.25-.31-.39-.41"/></g><path d="m204.96 229.14c3.03-.99 5.43-1.28 7.18-.45-1.72-.88-6.37-2.21-6.37-2.21-2.03-.62-4.21-.83-7.58.27l-2.29.76 4.69 1.52-18.62 6.07v7.31l5.61-1.83v18.06l3.88 1.27 3.81-10.08v-11.74l5.32-1.74v-5.78l4.37-1.43m-39.95 27.82c0 .84.4 1.16 1.01 1.16 1.07 0 1.91-.77 1.91-2.11v-13.87l9.39-3.05-6.88-2.25-9.26 3v1.96l-2.93-.99-9.49 3.08v14.65c.2 4.621 3.53 8.261 12.59 8.951-3.42-.32-5.63-2.43-5.66-7.39v-13.98l9.32-3.05v13.88m36.39 9.33l-1.83-6.72-1.84 5.54 3.67 1.18m1.72-25.62l1.75-.58c1.38-.44 2.28-1.43 2.28-2.85v-.14c0-1.45-.86-1.66-2.24-1.21l-1.79.59v4.19m-6.47 32.85l4.48-1.43-3.64-1.18-.84 2.61m-15.88-10.92v-14.83l-8.29-2.68v23.31l15.99 5.19v-8.48l-7.7-2.51m30.24-12.26l-8.63-2.82-7.11 2.31 8.63 2.81 8.2 25.9 7.09-2.31-8.18-25.89" fill="#f5eb00"/><path d="m195.27 238.09v11.74l7.11-2.31 8.63 2.82 6.07-1.97-5.53-6.83c1.95-2.21 3.26-4.76 3.26-7.44v-.16c0-2.42-.74-4.05-2.24-5.02-1.68-1.07-4.21-.89-7.61.22l-4.37 1.43v5.78l-5.32 1.74m2.46 27.02l1.84-5.54 1.83 6.72-3.67-1.18m5.39-28.63l1.79-.59c1.38-.45 2.23-.24 2.23 1.21v.15c0 1.41-.89 2.4-2.27 2.85l-1.75.57v-4.19m-15.54 4.1l-5.61 1.83v-7.31l18.62-6.07-8.31-2.7-18.64 6.05v5.51l3.68 1.2-9.38 3.05v13.87c0 1.35-.85 2.11-1.92 2.11-.61 0-1.01-.32-1.01-1.16v-13.88l-9.32 3.05v13.98c0 4.98 2.34 7.43 6.5 7.43 4.42 0 8.2-2.24 10.29-4.03v-18.42l8.29 2.69v14.82l7.7 2.51v8.48l4.22-1.36 3.96 1.29.84-2.61 4.01 1.31.87 3.16 9.74 3.16-8.21-25.9-8.63-2.81-3.81 10.08-3.88-1.26v-18.07"/></g></svg>