<svg xmlns="http://www.w3.org/2000/svg" viewBox="0 0 600 600.02"><g transform="translate(46.975-256.12)"><g fill="#bfce16"><path d="m387.87 512.22c28.16 2.093 51.93 11.01 71.58 26.741 28.362 12.223 55.779 13.843 82.18 4.659.675-.27 1.351-.27 2.026 0 .473.067.945.473 1.418 1.148.27.473.405 1.013.203 1.688-.135.675-.405 1.216-.675 1.688-24.445 21.947-41.26 44.974-50.44 69.22-3.309 22.69-15.937 41.463-37.816 56.25-12.425 8.441-25.931 14.384-40.517 17.828-7.833 9.184-11.547 17.828-11.07 26.07.675 8.306 5.605 16.207 14.856 23.635 5.808 4.457 9.387 8.509 10.67 12.02 1.756 4.322.81 8.04-2.836 11.08-5.537 4.659-19.313 7.226-41.26 7.698-12.09 2.769-23.838 4.93-35.32 6.55-17.895 2.229-35.25 3.039-51.997 2.161-28.632-1.418-49.23-7.293-61.789-17.625-.27-.135-.473-.203-.473-.203-5.267-6.618-8.711-12.898-10.129-18.841-1.215-5.808-.675-11.21 1.688-16.41 2.228-5.132 6.01-9.05 11.345-11.615 3.174-1.891 6.82-1.756 10.872.338 3.917 1.756 7.293 5.267 10.332 10.602 3.714 6.888 8.04 11.953 13.1 15.194 6.28 3.647 14.991 5.537 26.27 5.74l57.6-10.602c0-11.277-2.228-21.744-6.82-31.401-3.039-6.55-6.888-12.763-11.75-18.773-16.41-5.402-30.793-13.911-43.15-25.593-15.262-13.911-24.513-29.51-27.754-46.46-.27-1.823-.54-3.511-.743-5.335v-.27c-14.31-90.86-38.82-139.75-73.46-146.91-5.267.473-10.332.473-15.464 0h-.27c-21.947-3.174-38.424-8.644-49.701-16.07-2.093-1.08-3.917-2.093-5.335-3.174-22.622 13.371-42.881 20.799-60.64 22.42-20.12 1.756-34.71-3.917-43.961-17.08-4.322-6.145-6.82-12.56-7.293-19.04v-.338c-.27-5.942.878-11.142 3.444-15.599 2.769-4.862 6.078-7.428 10.129-7.766 4.457-.675 8.441 1.688 11.75 7.02 5.537 8.509 14.451 11.818 26.876 9.859 12.966-2.093 29.578-9.589 49.634-22.42v-1.418c-3.106-27.01 3.444-47.41 19.583-61.05 15.802-13.641 34.642-19.651 56.39-17.828 21.542 1.621 39.437 9.927 53.753 25.05 14.316 15.262 20.664 32.684 19.246 52.33-.675 11.953-3.782 22.622-9.589 32.14 7.698 48.823 40.517 76.04 98.32 81.44 6.213.473 12.628.81 19.381 1.013 5.605-.338 11.48-.27 17.625.203z"/><path d="m480.25 360.48c-36.533-42.543-79.68-72.05-129.39-88.46-23.568-8.04-48.688-12.966-75.43-14.924-82.59-6.28-155.32 17.625-217.98 71.65-49.5 42.611-81.44 94.13-95.76 154.57-2.228 9.589-4.119 19.516-5.537 29.848-.945 6.753-1.688 13.573-2.161 20.461-1.823 24.04-1.081 47.13 2.161 69.56 1.418 9.454 3.309 18.773 5.537 27.957 10.872 43.489 32.21 83.74 63.882 120.61 54.02 62.67 122.43 97.17 205.02 103.45 42.746 3.174 82.86-1.756 120.27-14.721 34.912-12.02 67.53-31.13 97.78-56.994 62.67-54.16 97.11-122.5 103.45-204.88 6.078-82.65-17.895-155.38-71.851-218.12"/></g><g fill="#1f325c"><path d="m-9.256 536.58v22.625c-1.553-1.891-3.443-3.305-5.469-4.25-2.093-.945-4.408-1.406-6.906-1.406-5.2 0-9.499 2.032-12.875 6.219-3.309 4.119-5 10.1-5 17.938 0 7.02 1.461 12.982 4.5 17.844 3.106 4.93 7.505 7.344 13.312 7.344 2.836 0 5.48-.676 7.844-2.094 1.756-1.013 3.652-3.03 5.813-6v7.03h15.188v-65.25h-16.406m-7.375 30.468c2.161 0 3.988.864 5.406 2.688s2.094 4.598 2.094 8.313c0 4.119-.676 7.02-2.094 8.844-1.351 1.823-3.094 2.719-5.187 2.719-1.958 0-3.592-.895-4.875-2.719-1.351-1.756-2.031-4.588-2.031-8.438 0-4.119.686-7.093 1.969-8.781 1.283-1.756 2.828-2.625 4.719-2.625"/><path d="m61.843 601.83h-15.194v-7.698c-2.228 3.174-4.524 5.402-6.82 6.753s-5.132 2.026-8.509 2.026c-4.457 0-7.968-1.486-10.535-4.457-2.566-3.039-3.849-7.631-3.849-13.776v-30.12h16.41v25.999c0 2.971.473 5.065 1.486 6.28.945 1.283 2.364 1.891 4.119 1.891 1.958 0 3.579-.81 4.795-2.499 1.215-1.621 1.823-4.659 1.823-8.914v-22.757h16.274v47.27"/><path d="m103.37 583.33l15.464 1.958c-.878 3.579-2.228 6.685-4.187 9.319s-4.457 4.659-7.428 6.078c-3.039 1.486-6.888 2.229-11.547 2.229-4.524 0-8.239-.473-11.277-1.418-2.971-.945-5.537-2.431-7.698-4.524s-3.849-4.524-5.132-7.361c-1.216-2.836-1.823-6.55-1.823-11.21 0-4.862.743-8.914 2.228-12.155 1.148-2.364 2.634-4.457 4.524-6.348s3.849-3.309 5.808-4.187c3.174-1.486 7.226-2.228 12.223-2.228 6.888 0 12.223 1.418 15.802 4.187 3.647 2.769 6.213 6.753 7.698 12.09l-15.329 2.229c-.473-2.026-1.351-3.511-2.634-4.524-1.216-1.081-2.904-1.553-5.065-1.553-2.701 0-4.862 1.081-6.55 3.241-1.688 2.093-2.499 5.402-2.499 9.724 0 3.917.81 6.82 2.499 8.846 1.621 2.026 3.714 3.039 6.28 3.039 2.161 0 3.917-.608 5.402-1.823 1.418-1.216 2.499-3.106 3.241-5.605"/><path d="m126.33 536.6h16.68v33.629l12.09-15.667h20.06l-15.262 16.545 16.14 30.726h-18.368l-8.576-18.908-6.078 6.618v12.29h-16.68v-65.23"/></g><path fill="#f1495f" d="m242.69 551.99c-1.148.27-2.026.878-2.701 1.891-6.888 11.08-11.142 21.2-12.763 30.388-5.267-3.917-7.631-9.454-7.226-16.747.067-1.148-.27-2.161-1.081-3.039-.743-.945-1.688-1.418-2.904-1.418-1.148-.067-2.161.203-3.106.945-.878.81-1.351 1.823-1.418 2.971-.338 5.402.405 10.197 2.363 14.316-.473-.27-1.013-.473-1.621-.608-1.215-.203-2.296.067-3.241.675-6.213 4.457-10.805 6.82-13.708 6.956-.135 0-.135 0-.203.067-.338-.675-.405-1.688-.405-3.039v-.135l1.621-18.908c6.753-2.634 17.895-5.605 33.629-8.914 1.148-.203 2.026-.81 2.701-1.823.608-1.013.81-2.093.54-3.241-.203-1.081-.81-2.026-1.823-2.634-1.013-.675-2.093-.878-3.174-.608-13.573 2.836-23.905 5.47-31.06 7.833l.675-8.104c.067-1.148-.203-2.161-1.013-3.039-.743-.878-1.688-1.418-2.836-1.553-1.215-.067-2.228.203-3.106 1.013-.878.743-1.418 1.688-1.553 2.904l-1.013 12.425c-7.158 3.647-12.155 7.833-14.924 12.493-.675 1.013-.81 2.093-.54 3.241.27 1.081.945 2.026 1.958 2.566 1.013.675 2.093.878 3.174.54 1.148-.27 1.958-.878 2.634-1.891 1.553-2.364 3.782-4.592 6.753-6.55l-1.081 13.573c-.067.203-.067.27-.067.473-.203 3.511.405 6.145 1.621 7.968 1.553 2.566 4.052 3.917 7.496 3.917 4.119.135 10.332-2.634 18.638-8.509.945-.675 1.553-1.688 1.756-2.769.067-.338.135-.608.067-.878 2.971 4.389 7.428 7.766 13.371 10.332.945.405 1.823.473 2.701.203.945-.203 1.756-.743 2.296-1.486.608-.675.945-1.553.945-2.499.473-9.657 4.524-20.596 12.223-32.887.608-1.013.743-2.093.54-3.241-.338-1.081-.945-1.958-1.891-2.566-1.013-.675-2.093-.878-3.241-.608"/><path fill="#fff" d="m456.35 543.69c-18.976-15.329-42-23.905-69.01-25.796-5.808-.473-11.48-.675-17.08-.608h-.27c-6.55-.067-12.898-.473-19.04-.945-61.721-5.402-96.36-34.37-103.93-87.05l.27-1.688v-.203c5.605-8.779 8.846-18.976 9.657-30.456 1.216-17.963-4.727-34.03-17.895-47.946-13.506-14.11-30.25-22.01-50.38-23.433-20.259-1.823-37.749 3.714-52.34 16.41-14.654 12.695-20.596 31.604-17.828 56.52.135.945.27 1.891.473 2.836v.473c3.984 12.628 5.335 24.378 4.119 35.453.27-.067.608-.067.945 0 .608 0 1.216.27 1.688.743 1.216 1.418 3.039 2.701 5.335 3.647.067 0 .27.067.473.203 10.67 7.091 26.539 12.09 47.47 15.262 4.66.27 9.184.338 13.438.135.473-.27 1.081-.338 1.756-.135h.473c37.28 6.55 63.34 57.06 78.13 151.6v.27c.203 1.621.54 3.241 1.013 4.997 3.039 15.937 11.682 30.591 25.796 43.759 12.02 11.08 25.864 19.11 41.733 24.378.067 0 .27.067.473.135 2.904.945 5.942 1.823 9.116 2.701 5.47 1.283 11.07 2.228 16.882 2.904 2.228.27 4.524.608 6.82.675 13.708 1.013 26.809.203 39.03-2.364h.203c14.11-3.241 27.28-8.914 39.572-17.15 20.326-13.978 32.14-31.468 35.25-52.54 0-.27.067-.608.203-.743 8.441-22.285 22.825-43.556 43.42-63.61-24.581 5.943-49.769 3.309-75.5-7.968-.203-.203-.405-.405-.473-.473"/><path fill="#f2541b" d="m118.7 402.76c-.27.473-.675.945-.945 1.216-21.744 13.978-39.572 22.08-53.55 24.378-14.924 2.296-25.729-1.891-32.28-12.493-1.958-3.174-4.052-4.592-6.348-4.389-2.363.27-4.322 2.026-5.942 5.065-2.093 3.512-2.971 7.766-2.701 12.56.338 5.605 2.296 11.01 6.01 16.14 8.239 11.547 21.2 16.612 39.03 15.194 17.76-1.823 37.884-9.387 60.3-22.892.203-.135.473-.27.81-.27 1.216-11.07-.135-22.825-4.119-35.453-.203.27-.27.675-.27.945"/><path fill="#962c1e" d="m348.1 689.75c.945 1.418 1.891 2.971 2.836 4.389 7.901 12.763 11.953 26.876 12.155 42.14l19.246-3.579c1.958-9.657-3.444-22.757-16.14-39.37-5.267-.81-10.399-1.756-15.262-2.836-.945-.203-1.891-.473-2.836-.743"/><path fill="#f2541b" d="m374.16 694.14h-.743c12.695 17.558 17.22 31.401 13.708 41.733-.135.473-.473.81-.743 1.216-.27.27-.675.608-1.148.675l-84.48 15.667h-.675c-12.56-.135-22.285-2.431-29.17-6.753-5.605-3.511-10.602-9.184-14.991-17.09-2.363-4.187-4.997-7.02-7.968-8.441-2.161-1.148-4.187-1.216-5.942-.27-4.119 2.093-6.956 5.132-8.779 9.184-1.891 3.917-2.228 8.171-1.081 12.83 1.013 5.132 3.984 10.535 8.576 16.07 11.885 9.522 31.401 14.924 58.41 16.14 16.612.878 33.9.135 51.795-2.161 11.07-1.621 22.555-3.714 34.31-6.28.135-.067.405-.203.675-.203 20.326-.27 33.02-2.431 38.15-6.55 1.553-1.216 2.026-2.701 1.216-4.524-1.351-2.904-4.254-6.145-8.914-9.859-10.805-8.711-16.41-17.895-16.882-27.484-.878-8.104 1.891-16.477 8.171-25.12-10.67 1.621-21.812 2.093-33.494 1.216"/><g fill="#231f20"><path d="m152.33 359.4c-1.081-4.997-3.376-7.968-6.82-8.981-3.512-1.418-7.226-.473-11.142 2.634-3.309 2.566-5.74 6.348-7.361 11.412-1.823 4.795-2.228 9.252-1.283 13.438 1.013 4.862 3.376 7.901 7.02 8.914 3.376 1.418 6.956.54 10.805-2.566 3.444-2.769 5.875-6.55 7.496-11.345 1.823-4.862 2.228-9.319 1.283-13.506"/><path d="m309.2 566.04c-.27.675-.405 1.351-.203 2.161 6.55 24.513 20.596 41.665 41.935 51.592 12.966 6.145 28.7 9.589 47 10.467h.27c14.181 0 23.635-4.119 28.3-12.358 4.659-7.901 4.524-19.651-.27-35.18-.203-.203-.338-.27-.338-.27-13.641-30.05-38.627-46.26-74.957-48.756-1.891-.067-3.917-.203-6.01-.203-.81 0-1.418.338-1.891.81-.675.473-.945 1.013-.743 1.891-.203.81.067 1.418.743 1.891.473.675 1.08.945 1.891.945 1.891 0 3.917.067 6.01.27 33.832 2.296 57.2 17.355 69.96 45.11 4.187 13.708 4.457 23.905.743 30.861-4.052 6.213-11.818 9.386-23.433 9.386-18.841-.81-34.575-4.457-47.27-11.142-18.503-9.454-30.658-24.986-36.601-46.73-.203-.81-.608-1.418-1.216-1.688-.878-.473-1.553-.54-2.228-.203-.743.135-1.283.473-1.688 1.148"/><path d="m181.15 319.74c-18.357.148-34.58 6.189-48.41 18.12-16.14 13.708-22.7 34.08-19.594 61.09v1.438c-20.06 12.763-36.659 20.25-49.625 22.344-12.425 2.026-21.338-1.335-26.875-9.844-3.309-5.335-7.293-7.707-11.75-7.03-4.052.405-7.356 2.955-10.125 7.75-2.566 4.457-3.708 9.745-3.438 15.688v.25c.473 6.55 2.954 12.917 7.344 19.06 9.184 13.236 23.783 18.886 43.906 17.06 17.828-1.621 38-8.973 60.62-22.344 1.418 1.013 3.25 2.112 5.344 3.125 11.277 7.496 27.772 12.884 49.719 16.12h.25c5.132.473 10.269.473 15.469 0 26.13 5.47 46.529 34.771 61.25 87.78 4.66 17.15 8.77 36.877 12.281 59.09v.281c.135 1.823.48 3.489.75 5.313 3.241 16.95 12.488 32.495 27.75 46.41 12.358 11.682 26.747 20.254 43.16 25.656 4.862 5.942 8.711 12.231 11.75 18.781 4.592 9.657 6.813 20.07 6.813 31.344l-57.59 10.656c-11.277-.203-20.07-2.098-26.28-5.813-5.065-3.241-9.38-8.232-13.09-15.188-3.039-5.267-6.463-8.77-10.312-10.594-4.119-2.093-7.696-2.172-10.938-.281-5.267 2.566-9.05 6.43-11.281 11.562-2.363 5.2-2.903 10.599-1.688 16.406 1.418 6.01 4.858 12.221 10.125 18.906 0 0 .199.057.469.125 12.56 10.332 33.09 16.207 61.719 17.625 16.815.878 34.17.14 52.06-2.156 11.48-1.621 23.23-3.794 35.31-6.563 21.947-.473 35.718-3.03 41.19-7.625 3.714-3.039 4.667-6.736 2.844-11.125-1.216-3.511-4.786-7.574-10.594-12.03-9.252-7.428-14.168-15.251-14.844-23.625-.473-8.239 3.162-16.91 11.06-26.09 14.586-3.376 28.07-9.371 40.5-17.812 21.879-14.789 34.535-33.565 37.844-56.19 8.779-23.433 24.718-45.858 47.812-67.06h-.094c.81-.878 1.711-1.481 2.656-2.156.27-.473.589-1.075.656-1.75.203-.608.083-1.215-.188-1.688-.473-.675-.965-1.021-1.438-1.156-.675-.27-1.33-.27-1.938 0-26.471 9.251-53.888 7.629-82.25-4.594-19.583-15.802-43.43-24.724-71.59-26.75-6.145-.473-12.02-.593-17.625-.188-6.753-.203-13.167-.621-19.312-1.094-57.872-5.402-90.68-32.614-98.37-81.44 5.808-9.454 8.887-20.17 9.563-32.12 1.418-19.583-4.903-37.08-19.219-52.34-14.316-15.06-32.21-23.442-53.75-25.06-2.71-.219-5.378-.302-8-.281zm.031 5.5c2.446-.002 4.936.116 7.469.344 20.12 1.418 36.869 9.293 50.37 23.406 13.168 13.911 19.12 29.939 17.906 47.969-.878 11.48-4.051 21.591-9.656 30.438v.219l-.281 1.688c7.563 52.605 42.15 81.63 103.94 87.03 6.145.473 12.481.87 19.03.938h.281c5.605-.067 11.286.09 17.09.563 27.01 1.958 50.02 10.52 69 25.781.067.135.266.334.469.469 5.942 2.566 11.834 4.661 17.844 6.281h.063c19.583 5.605 38.821 6.144 57.59 1.688-20.529 20.12-34.965 41.34-43.41 63.62-.067.203-.219.475-.219.813-3.106 21-14.856 38.558-35.25 52.47-12.223 8.306-25.386 13.977-39.5 17.219h-.188c-12.223 2.566-25.318 3.388-39.09 2.375-2.228-.135-4.548-.417-6.844-.688-5.74-.675-11.338-1.618-16.875-2.969-3.106-.81-6.154-1.68-9.125-2.625-.135-.067-.334-.219-.469-.219-15.802-5.2-29.636-13.233-41.656-24.375-14.181-13.168-22.774-27.751-25.812-43.688-.473-1.823-.86-3.447-1.063-5v-.344c-3.309-21.812-7.372-41.2-12.03-58.28h-.063c-15.262-57.06-37.26-88.18-66.03-93.31h-.469c-.675-.135-1.309-.083-1.781.188-4.254.203-8.778.15-13.438-.188-20.934-3.106-36.794-8.123-47.531-15.281-.135-.067-.334-.125-.469-.125-2.228-1.013-4.066-2.238-5.281-3.656-.473-.473-1.08-.719-1.688-.719-.338-.067-.662-.067-1 0-.27 0-.547.047-.75.25-22.487 13.506-42.521 21.08-60.28 22.906-17.828 1.418-30.824-3.64-39.06-15.188-3.714-5.132-5.662-10.551-6-16.16-.27-4.795.625-9.113 2.719-12.625 1.553-3.039 3.574-4.73 5.938-5 2.296-.203 4.385 1.232 6.344 4.406 6.55 10.602 17.357 14.765 32.28 12.469 13.978-2.296 31.787-10.397 53.53-24.375.27-.27.699-.746.969-1.219 0-.27.047-.667.25-.938v-.469c-.203-.945-.401-1.898-.469-2.844-2.769-24.986 3.122-43.805 17.844-56.5 12.763-11.11 27.725-16.738 44.844-16.75zm166.91 364.5c.945.27 1.898.547 2.844.75 4.862 1.081 9.983 2.033 15.25 2.844 12.695 16.612 18.12 29.718 16.16 39.37l-19.25 3.563c-.203-15.262-4.255-29.362-12.156-42.12-.945-1.418-1.898-2.988-2.844-4.406m59.56 3.187c-6.28 8.644-9.03 17.02-8.156 25.12.473 9.589 6.07 18.758 16.875 27.469 4.659 3.714 7.556 6.971 8.906 9.875.81 1.823.334 3.316-1.219 4.531-5.132 4.119-17.83 6.261-38.16 6.531-.27 0-.521.151-.656.219-11.75 2.566-23.24 4.661-34.31 6.281-17.895 2.296-35.17 3.034-51.781 2.156-27.01-1.216-46.552-6.635-58.44-16.16-4.592-5.537-7.55-10.93-8.563-16.06-1.148-4.659-.797-8.927 1.094-12.844 1.823-4.052 4.662-7.06 8.781-9.156 1.756-.945 3.777-.898 5.938.25 2.971 1.418 5.605 4.251 7.969 8.438 4.389 7.901 9.364 13.582 14.969 17.09 6.888 4.322 16.627 6.615 29.19 6.75h.688l84.47-15.656c.473-.067.886-.417 1.156-.688.27-.405.584-.746.719-1.219 3.512-10.332-.992-24.16-13.688-41.719h.719c11.682.878 22.83.402 33.5-1.219"/></g></g></svg>