<svg xmlns="http://www.w3.org/2000/svg" height="284.07" width="600" viewBox="0 0 158.75 75.160369"><g color-rendering="auto" shape-rendering="auto" image-rendering="auto" color="#000"><path d="m24.06 28.94c-2.671.001-5.127.21-7.366.53-4.478.65-8.089 1.83-10.851 3.21-2.763 1.38-4.685 2.87-5.846 4.69l4.6 2.93c.269-.42 1.524-1.66 3.689-2.74 2.165-1.09 5.232-2.12 9.19-2.69 7.914-1.15 19.405-.47 34.536 5.09 31.634 11.63 48.45 4.04 53.705-2.73l-4.32-3.34c-2.701 3.49-17.211 12.09-47.5.95-11.876-4.36-21.823-5.93-29.833-5.9" fill="#3190ce" mix-blend-mode="normal" solid-color="#000000" white-space="normal" shape-padding="0" isolation="auto"/><path d="m52.825 0c-20.725 0-37.584 16.86-37.579 37.59 0 20.72 16.857 37.571 37.579 37.571 20.721 0 37.574-16.851 37.574-37.571.0001-20.73-16.849-37.59-37.574-37.59m0 5.45c17.777 0 32.12 14.36 32.12 32.13 0 17.771-14.35 32.12-32.12 32.12s-32.12-14.351-32.12-32.12c-.004-17.771 14.347-32.13 32.12-32.13" fill="#fff" mix-blend-mode="normal" solid-color="#000000" white-space="normal" shape-padding="0" isolation="auto"/></g><path d="m110.33 56.67v18.201h27.89v-18.201z" fill="#3190ce"/><g fill="#fff"><path d="m112.33 59.54h3.02v4.921h4.36v-4.921h3.03v12.361h-3.03v-5.17h-4.36v5.17h-3.02z"/><path d="m125.09 59.54v12.361h4.39c3.69 0 6.81-1.72 6.76-6.21-.04-3.891-2.19-6.151-7.12-6.151zm2.98 2.31h1.38c2.8 0 3.81 1.971 3.82 3.891.001 2.72-1.54 3.9-3.84 3.9h-1.36z"/><path d="m110.25 24.64v12.25h4.35c3.66 0 6.75-1.7 6.71-6.16-.04-3.86-2.17-6.09-7.06-6.09zm12.45 0v6.53c0 1.37.08 2.41.26 3.11.11.47.36.93.73 1.36s.87.78 1.51 1.05 1.58.41 2.81.41c1.03 0 1.85-.13 2.49-.37.63-.25 1.14-.59 1.52-1.01.38-.41.64-.93.78-1.53.14-.61.21-1.65.21-3.12v-6.43h-2.61v6.77c0 .97-.04 1.66-.12 2.08-.07.42-.3.78-.67 1.07-.38.28-.94.42-1.68.42-.73 0-1.31-.15-1.73-.45-.42-.31-.68-.71-.79-1.21-.06-.31-.1-.99-.1-2.05v-6.63zm12.08 0v12.25h2.14v-8.96l6.43 8.96h2.27v-12.25h-2.21v7.69l-5.5-7.69zm16.3 0l-4.87 12.25h2.67l1.03-2.79h5l1.1 2.79h2.74l-5.01-12.25zm-37.88 2.28h1.38c2.77 0 3.77 1.96 3.78 3.87.001 2.69-1.52 3.86-3.81 3.86h-1.35zm39.18.57l1.72 4.55h-3.41z"/><path d="m112.94 49.64h1.7l1.47-5.93 1.47 5.93h1.93l2.35-8.76h-1.86l-1.46 6.37-1.57-6.39h-1.69l-1.57 6.39-1.46-6.37h-1.9l2.35 8.76"/><path d="m126.37 49.73c2.68 0 4.63-2.03 4.63-4.5v-.02c0-2.48-1.93-4.47-4.61-4.47s-4.63 2.02-4.63 4.49v.03c0 2.47 1.92 4.47 4.61 4.47m.02-1.77c-1.54 0-2.63-1.24-2.63-2.73v-.02c0-1.49 1.07-2.71 2.61-2.71s2.63 1.24 2.63 2.73v.03c0 1.49-1.07 2.7-2.61 2.7"/><path d="m131.46 49.58h1.91v-2.79h1.51l1.86 2.79h2.23l-2.12-3.11c1.11-.41 1.86-1.29 1.86-2.69v-.03c0-.82-.26-1.5-.74-1.98-.57-.58-1.43-.89-2.53-.89h-3.98v8.7m1.91-4.47v-2.5h1.9c.94 0 1.51.42 1.51 1.24v.03c0 .73-.54 1.23-1.47 1.23h-1.94"/><path d="m139.2 49.58h6.25v-1.74h-4.33v-6.96h-1.92v8.7"/><path d="m146.07 40.88v8.7h3.09c2.59 0 4.79-1.21 4.75-4.37-.02-2.74-1.54-4.33-5.01-4.33zm2.09 1.63h.98c1.97 0 2.68 1.39 2.68 2.74.001 1.91-1.08 2.74-2.7 2.74h-.96z"/></g><g fill="#3190ce" color-rendering="auto" shape-rendering="auto" image-rendering="auto" color="#000"><path d="m23.701 18.93c-8.763.19-16.13 2.16-21.535 5.24l2.697 4.74c8.787-5 26.08-7.08 46.865.61l1.892-5.12c-10.993-4.07-21.16-5.66-29.919-5.47" mix-blend-mode="normal" solid-color="#000000" white-space="normal" shape-padding="0" isolation="auto"/><path d="m53.884 45.01l-1.893 5.12c21.987 8.14 40.638 6.38 51.45.23l-2.69-4.74c-8.791 5-26.08 7.09-46.866-.61" mix-blend-mode="normal" solid-color="#000000" white-space="normal" shape-padding="0" isolation="auto"/></g></svg>