<svg xmlns="http://www.w3.org/2000/svg" height="284.07" width="600" viewBox="0 0 158.75 75.15919"><g transform="translate(-29.547-125.47)"><g color-rendering="auto" shape-rendering="auto" image-rendering="auto" color="#000"><path d="m53.609 154.41c-2.67.001-5.124.2-7.363.52-4.478.65-8.09 1.83-10.852 3.22-2.763 1.38-4.686 2.86-5.847 4.69l4.601 2.93c.27-.42 1.525-1.66 3.69-2.75 2.165-1.08 5.231-2.12 9.188-2.69 7.915-1.14 19.405-.46 34.534 5.1 31.64 11.63 48.45 4.04 53.7-2.74l-4.31-3.34c-2.7 3.49-17.22 12.09-47.51.96-11.876-4.37-21.824-5.94-29.834-5.9" fill="#002691" mix-blend-mode="normal" solid-color="#000000" white-space="normal" shape-padding="0" isolation="auto"/><path d="m82.37 125.47c-20.72 0-37.576 16.86-37.577 37.58-.004 20.72 16.853 37.58 37.577 37.58 20.719 0 37.579-16.86 37.579-37.58s-16.86-37.58-37.579-37.58m0 5.46c17.769 0 32.12 14.35 32.12 32.12.001 17.78-14.34 32.13-32.12 32.13-17.775 0-32.13-14.35-32.12-32.13 0-17.77 14.35-32.12 32.12-32.12" fill="#fff" mix-blend-mode="normal" solid-color="#000000" white-space="normal" shape-padding="0" isolation="auto"/></g><path fill="#002691" d="m139.87 176.56v18.2h27.89v-18.2z"/><g fill="#fff"><path d="m141.87 179.43h3.02v4.92h4.37v-4.92h3.02v12.35h-3.02v-5.16h-4.37v5.16h-3.02z"/><path d="m154.64 179.43v12.35h4.38c3.69 0 6.81-1.71 6.77-6.2-.04-3.89-2.19-6.15-7.13-6.15zm2.97 2.31h1.39c2.8 0 3.81 1.97 3.81 3.89.02 2.72-1.53 3.9-3.84 3.9h-1.36z"/><path d="m139.8 156.65v12.25h4.35c3.65 0 6.75-1.7 6.7-6.15-.04-3.86-2.17-6.1-7.06-6.1zm12.45 0v6.53c0 1.37.08 2.41.25 3.11.12.47.36.93.73 1.36s.88.78 1.51 1.05c.64.27 1.58.41 2.82.41 1.02 0 1.85-.13 2.48-.37.64-.25 1.14-.59 1.52-1.01.38-.41.64-.93.79-1.53.14-.61.21-1.65.21-3.12v-6.43h-2.61v6.77c0 .97-.04 1.67-.12 2.08-.08.42-.3.78-.68 1.07-.37.28-.93.42-1.67.42-.73 0-1.31-.15-1.73-.45-.42-.31-.68-.71-.8-1.21-.06-.31-.09-.99-.09-2.05v-6.63zm12.07 0v12.25h2.15v-8.96l6.42 8.96h2.27v-12.25h-2.21v7.69l-5.49-7.69zm16.3 0l-4.87 12.25h2.68l1.03-2.79h5l1.09 2.79h2.75l-5.01-12.25zm-37.87 2.28h1.37c2.78 0 3.78 1.96 3.79 3.87.001 2.69-1.53 3.86-3.82 3.86h-1.34zm39.18.57l1.72 4.55h-3.41z"/></g></g></svg>