<svg xmlns="http://www.w3.org/2000/svg" viewBox="0 0 600 565.83"><g transform="translate(388.8 274.24)"><path d="m211.2 291.58h-600v-565.83h600v565.83" fill="#f9f9f9"/><path d="m64.25 99.64l-136.77-.076c0-15.06 43.598-34.628 80.57-56.01 15.933-9.196 78.49-37.959 78.49-104.07 0-61.38-57.45-107.97-122.92-107.97-61.764 0-115.47 44.39-115.47 44.39s.568 1.892 15.554 39.775c5.752 14.533 20.02 21.23 34.931 13.851 20.13-9.915 45.23-23.2 64.98-23.2 26.719 0 45.34 17.825 45.34 37.01 0 25.47-26.719 36.407-71.49 61.35-43.4 24.14-93.92 61.913-93.92 127.53v15.365c0 13.208 10.71 23.918 23.918 23.918h216.25v-52.42c0-10.748-8.704-19.452-19.453-19.452"/><path d="m-243.43-102.46c-25.02 0-45.38 20.55-45.38 45.793 0 25.281 20.361 45.831 45.38 45.831s45.38-20.55 45.38-45.831c0-25.24-20.361-45.793-45.38-45.793"/><path d="m-243.43 36.15c-25.02 0-45.38 20.55-45.38 45.793 0 25.281 20.361 45.831 45.38 45.831s45.38-20.55 45.38-45.831c0-25.24-20.361-45.793-45.38-45.793"/></g></svg>