<?xml version="1.0" encoding="UTF-8" standalone="no"?>
<!-- Created with Inkscape (http://www.inkscape.org/) -->
<svg xmlns:rdf="http://www.w3.org/1999/02/22-rdf-syntax-ns#" xmlns="http://www.w3.org/2000/svg" height="565.83" width="600" version="1.1" xmlns:cc="http://creativecommons.org/ns#" xmlns:xlink="http://www.w3.org/1999/xlink" xmlns:dc="http://purl.org/dc/elements/1.1/">
 <defs></defs>
 <metadata>
  <rdf:RDF>
   <cc:Work rdf:about="">
    <dc:format>image/svg+xml</dc:format>
    <dc:type rdf:resource="http://purl.org/dc/dcmitype/StillImage"/>
    <dc:title/>
   </cc:Work>
  </rdf:RDF>
 </metadata>
 <g fill-rule="nonzero" transform="translate(388.79905,274.24261)">
  <path d="m211.2,291.58-600,0,0-565.83,600,0,0,565.83z" fill="#000"/>
  <path fill="#FFF" d="M64.251,99.639-72.522,99.563c0-15.062,43.598-34.628,80.573-56.011,15.933-9.196,78.491-37.959,78.491-104.07,0-61.385-57.449-107.97-122.92-107.97-61.764,0-115.47,44.393-115.47,44.393s0.56768,1.8923,15.554,39.775c5.7525,14.533,20.02,21.231,34.931,13.851,20.134-9.9155,45.225-23.199,64.98-23.199,26.719,0,45.339,17.825,45.339,37.013,0,25.47-26.719,36.407-71.49,61.347-43.399,24.143-93.919,61.913-93.919,127.53v15.365c0,13.208,10.71,23.918,23.918,23.918h216.25v-52.416c0-10.748-8.7044-19.452-19.453-19.452"/>
  <path fill="#FFF" d="m-243.43-102.46c-25.016,0-45.377,20.55-45.377,45.793,0,25.281,20.361,45.831,45.377,45.831s45.377-20.55,45.377-45.831c0-25.243-20.361-45.793-45.377-45.793"/>
  <path fill="#FFF" d="m-243.43,36.146c-25.016,0-45.377,20.55-45.377,45.793,0,25.281,20.361,45.831,45.377,45.831s45.377-20.55,45.377-45.831c0-25.243-20.361-45.793-45.377-45.793"/>
 </g>
</svg>
