<svg xmlns="http://www.w3.org/2000/svg" viewBox="0 0 600 161.18"><g fill="#fff"><path d="m230.21 109.45h-15.817l-11.288-26.62-11.09 26.62h-15.82l-17.562-54.991h18.654l8.374 28.517 10.445-28.517h14.195l10.448 28.517 8.371-28.517h18.657l-17.562 54.991m-148.94 34.613c-34.891 0-63.17-28.29-63.17-63.18 0-34.891 28.28-63.17 63.17-63.17 34.891 0 63.17 28.28 63.17 63.17 0 34.891-28.28 63.18-63.17 63.18m119.55-144.06c-23.897 0-45.36 10.399-60.12 26.917-14.757-16.518-36.22-26.917-60.12-26.917-44.508 0-80.59 36.08-80.59 80.59 0 44.508 36.08 80.59 80.59 80.59 23.894 0 45.36-10.399 60.12-26.921 14.757 16.521 36.22 26.921 60.12 26.921 44.505 0 80.58-36.08 80.58-80.59 0-44.508-36.08-80.59-80.58-80.59"/><path d="m83.35 94.26h-17.387v-26.07h17.387c12.599 0 17.1 5.243 17.1 13.04 0 7.792-4.465 13.04-17.1 13.04m2.397-44.25h-39.43v62.42h39.43c17.584 0 35.611-8.842 35.611-31.21 0-22.366-18.03-31.21-35.611-31.21"/><g transform="matrix(3.23061 0 0-3.23061-182.69 2519.73)" fill-rule="evenodd"><path d="m186.98 767.48h2.875v-10.576h-2.384l-.207.792c-.894-.517-1.912-.956-2.867-.956-2.623 0-3.922 1.289-3.922 4.44v6.3h2.816v-5.847c0-1.78.66-2.267 2.035-2.267.435 0 1.108.232 1.654.546v7.568m-22.864-3.475c0-2.494-1.306-4.134-4.171-4.134h-2.079v8.269h2.176c2.885 0 4.074-1.348 4.074-4.135m3.203 0c0 5.194-2.927 7.101-6.985 7.101h-5.647v-14.202h5.444c3.891 0 7.188 2.11 7.188 7.101m51.08.586c-.692.496-1.382.747-2.181.747-1.471 0-2.288-1.448-2.332-2.923-.047-1.53.739-3.089 2.487-3.089.731 0 1.344.141 2.172.766l1.471-1.764c-1.081-.981-2.306-1.573-3.726-1.573-3.589 0-5.292 2.871-5.237 5.694.053 2.734 1.753 5.422 4.995 5.422 1.476 0 2.773-.482 3.672-1.353l-1.321-1.927zm6.03-7.611h-2.838v14.589h2.838v-4.33c.709.308 1.784.632 2.58.632 2.623 0 4.076-1.289 4.076-4.44v-6.451h-2.853v5.998c0 1.78-.699 2.267-2.075 2.267-.434 0-1.183-.232-1.728-.547v-7.718m-50.5 10.887c-2.762 0-4.691-2.297-4.659-5.569.035-3.374 1.808-5.549 5.089-5.549 1.453 0 2.979.631 3.84 1.728l-1.441 1.423c0 0-.929-.692-2.183-.742-1.515-.061-2.435.83-2.553 2.294h6.258c.664 4.336-1.325 6.415-4.351 6.415m1.954-4.489h-3.887c.071 1.166.792 2.19 1.905 2.19 1.953 0 1.976-1.656 1.982-2.19m22.618-3.633c0 0-.552-.261-1.059-.261-.669 0-1.035.189-1.035 1.203v4.658h2.556v2.185h-2.556v2.549h-2.287l-.399-2.549h-1.898v-2.185h1.822l-.037-5.333c0-1.867.85-3.205 2.971-3.205 1.101 0 1.863.435 2.715 1.043l-.793 1.895zm39.3 8.122c-2.762 0-4.692-2.297-4.658-5.569.034-3.374 1.807-5.549 5.088-5.549 1.454 0 2.979.631 3.839 1.728l-1.441 1.423c0 0-.928-.692-2.182-.742-1.515-.061-2.434.83-2.553 2.294h6.258c.665 4.336-1.326 6.415-4.351 6.415m1.954-4.489h-3.888c.071 1.166.792 2.19 1.906 2.19 1.952 0 1.976-1.656 1.982-2.19m-31.354 1.291l.851 2.151c0 0-1.888 1.065-3.949 1.033-2.59-.039-4.185-1.071-4.227-3.02-.026-1.199.546-2.227 1.934-2.957 1.037-.546 2-.865 2.955-1.222.486-.183.823-.456.723-.913-.082-.382-.502-.535-.815-.58-1.277-.182-2.819.306-4.143.87l-.869-2.039c0 0 1.898-1.237 4.34-1.237 1.918 0 4.254.572 4.428 2.955.111 1.505-.546 2.476-2.128 3.13-.649.269-2.75 1.058-2.75 1.058-.64.233-.858.589-.78.972.125.618 1.056.601 1.78.544 1.463-.115 2.65-.747 2.65-.747"/><path d="m191.76 752.85h-2.838v-14.59h2.838v14.59m-20.888-1.327h-3.066l-1.301-6.15c-.13-.67-.358-2.565-.423-3.153-.108.588-.471 2.463-.644 3.153l-1.703 6.15h-2.857l-1.681-6.15c-.173-.69-.535-2.565-.644-3.153-.064.588-.33 2.463-.46 3.153l-1.265 6.15h-3.109l3.106-13.338h2.973l1.917 7.06c.217.832.462 2.188.527 2.716.086-.528.33-1.865.547-2.716l1.875-7.06h3.103l3.105 13.338m15.227 1.327h-2.837v-14.59h2.837v14.59m-9.586-3.694c-2.763 0-4.691-2.296-4.658-5.569.034-3.374 1.808-5.548 5.088-5.548 1.453 0 2.979.63 3.84 1.728l-1.441 1.422c0 0-.928-.692-2.183-.742-1.515-.06-2.435.831-2.552 2.294h6.257c.665 4.336-1.325 6.415-4.351 6.415m1.954-4.489h-3.887c.071 1.166.792 2.191 1.905 2.191 1.953 0 1.976-1.657 1.982-2.191m20.19 4.489c-2.762 0-4.692-2.296-4.658-5.569.034-3.374 1.808-5.548 5.087-5.548 1.454 0 2.98.63 3.84 1.728l-1.441 1.422c0 0-.928-.692-2.182-.742-1.515-.06-2.435.831-2.554 2.294h6.259c.665 4.336-1.326 6.415-4.351 6.415m1.954-4.489h-3.888c.071 1.166.792 2.191 1.906 2.191 1.952 0 1.976-1.657 1.982-2.191"/></g></g></svg>