<svg xmlns="http://www.w3.org/2000/svg" viewBox="0 0 600 459.66"><g transform="translate(-15.03-57.5)"><g color="#000"><path fill="#642f90" d="m255.22 57.5l-2.094.063h-.094-.094c-34.3 1.598-62.975 13.939-85.938 37.25l-.031.031-.938.969-.156.156-.156.156-123.75 141.81c-23.713 27.16-26.937 61.701-26.937 79.906 0 .636 0 .969 0 2.656 0 1.688-.002 4.079 0 6.969.004 5.779.026 13.485.031 21.19.005 7.703-.004 15.406 0 21.19.004 5.782.031 10.482.031 9.656 0 20.436 8.19 39.943 22.906 54.75 13.799 13.935 40.09 29.906 84.87 29.906.632 0 .307 0 .906 0s1.501 0 2.625 0c2.248 0 5.46.002 9.375 0 7.83-.004 18.416.005 29.437 0 19.879-.009 38.53-.029 47.656-.031 3.702 9.382 8.219 17.595 13.844 24.625 14.576 18.22 36.12 28.406 59.812 28.406h65.812c23.688 0 45.24-10.195 59.812-28.437 7.532-9.431 13.13-20.95 17.344-34.781 29.02-11.915 46.04-28.09 50.5-50.34 0 0 1.281-6.095 1.281-12.187v-3.563h80.906c24.664 0 39.25-13.691 45.937-26.75 6.69-13.06 6.906-25.937 6.906-25.937v-.094-.094-131.75c0-34.717-14.936-53.824-30.16-62.59-14.767-8.509-29.29-8.07-30.16-8.03h-.313-120.59c-4.28-17.18-13.13-32.988-25.97-45.827-18.55-18.578-43.4-29.31-68.53-29.31h-83.937-.094-.063z"/><path fill="#fff" d="m255.37 72.63h.156 83.78c20.794 0 41.986 9.03 57.812 24.875 12.189 12.189 20.1 27.349 23.12 43.781l.906-.156v6.594h133.56.188l.156-.031s11.127-.396 22.281 6.03c11.155 6.427 22.562 18.853 22.562 49.5v131.56s-.335 9.812-5.25 19.406c-4.915 9.594-12.98 18.531-32.469 18.531h-96v8.125h-.031v10.562c0 3.719-1 9.219-1 9.219-3.487 17.417-15.634 29.522-44.5 40.656l-3.563 1.375-1.031 3.688c-3.9 14.05-9.06 24.559-15.75 32.937-11.809 14.78-28.534 22.75-47.969 22.75h-65.812c-19.435 0-36.19-7.989-48-22.75-5.404-6.755-9.766-14.898-13.312-25.19l-1.75-5.094h-5.406c-7.02 0-30.8-.0001-52.844 0-11.02.005-21.607.027-29.437.031-3.915.002-7.158 0-9.406 0-1.124 0-1.995 0-2.594 0-.599 0-1.535 0-.906 0-41.25 0-62.899-14.1-74.12-25.437h-.031c-12.04-12.11-18.5-27.674-18.5-44.09 0-.856.004-3.875 0-9.656s-.026-13.485-.031-21.19c-.005-7.703.004-15.408 0-21.19-.002-2.889 0-5.312 0-7s-.031-3.251-.031-2.625c0-16.301 3.315-47.17 23.22-69.969l123.47-141.47.938-.969c20.448-20.758 44.584-31.26 75.66-32.75l1.938-.063z"/></g><path d="m428.2 330.15c-1.257-5.318-6.802-19.624-30.899-24.2-3.669-.742-1.835-.309-6.782-1.608s-6.555-5.359-6.555-11.461v-3.504-132.91c.041-27.869-24.344-46.17-44.648-46.17h-83.936c-21.623.989-37.39 7.977-50.77 21.582l-122.86 140.74c-10.1 11.585-13.914 29.27-13.914 45.23l.041 61.47c-.124 16.305 16.346 32.07 55.02 32.07l97.23-.041h23.23c6.122 0 10.162 1.711 11.461 6.658 1.299 4.947.907 3.113 1.608 6.802 5.669 29.807 15.03 39.557 30.12 39.557h65.797c15.11 0 24.447-9.75 30.12-39.577.618-3.195 2.453-9.358 2.453-9.358.969-2.453 2.721-4.102 5.565-4.844 4.947-1.278 3.092-.886 6.782-1.587 25.07-4.782 30.05-20.08 31-24.839.082-.453.165-1.072.227-1.855 0 0 .082-47.781.082-47.843 0-2.103-.206-3.525-.35-4.308" fill="#642f90"/><path d="m317.69 262.54c0 12.409-7.647 17.13-15.419 17.13l-71.61-.041c-7.977 0-13.234 2.288-15.707 5.01l-11.688 13.357c-3.278 3.813-1.278 7.709 3.298 7.709.392 0 95.73-.021 95.73-.021 7.792 0 15.439 4.638 15.439 17.05v5.38c0 12.409-7.647 17.13-15.439 17.13 0 0-150.04.021-152.37.021-6.947 0-13.316-3.71-13.316-12.224 0-5.277-.021-6.349-.021-12.285 0-9.03 4.143-15.439 11.172-22.963l95.52-109.31s10.533-13.13 26.838-13.831c2.288 0 32.18-.082 32.18-.082 7.792 0 15.439 4.617 15.439 17.03v5.483c0 12.409-7.647 17.13-15.439 17.13l-18.06.021c-7.627 0-12.739 2.206-15.11 4.803l-11.956 13.749c-3.154 3.669-1.237 7.4 3.154 7.4h41.948c7.771 0 15.419 4.617 15.419 17.03v5.339" fill="#fff"/><g fill="#642f90"><path d="m476.04 295.98c0 6.823-5.401 12.409-12.02 12.409h-13.996c-6.596 0-11.997-5.586-11.997-12.409v-69.09c0-6.823 5.401-12.409 11.997-12.409h13.996c6.617 0 12.02 5.586 12.02 12.409v69.09"/><path d="m492.34 242.64c6.596 0 11.997 5.586 11.997 12.43v13.234c0 6.823-5.401 12.409-11.997 12.409h-70.847c-6.596 0-11.997-5.586-11.997-12.409v-13.234c0-6.844 5.401-12.43 11.997-12.43h70.847"/><path d="m429.54 242.6s9.152.989 9.152-7.73c0-8.699 4.7 10.925 4.7 10.925s-8.101 1.773-8.431 1.773c-.309 0-5.421-4.968-5.421-4.968"/><path d="m434.21 275.62c-.33 0-5.607 5.112-5.607 5.112s9.441-1.031 9.441 7.957 4.844-11.255 4.844-11.255-8.348-1.814-8.678-1.814"/><path d="m485.2 242.64s-9.152.989-9.152-7.73c0-8.699-4.7 10.925-4.7 10.925s8.101 1.773 8.41 1.773c.33 0 5.442-4.968 5.442-4.968"/><path d="m479.9 275.62c.33 0 5.607 5.112 5.607 5.112s-9.42-1.031-9.42 7.957-4.844-11.255-4.844-11.255 8.328-1.814 8.658-1.814"/><path d="m551.78 340.62h-4.885c-10.698 0-14.841-7.297-14.841-14.594v-102.69c0-4.555-1.278-7.895-5.442-7.895h-4.164c-6.699 0-11.585-4.329-11.585-15.975v-3.937c0-11.626 6.699-16.16 13.378-16.16h27.354c10.678 0 14.841 7.297 14.841 14.594v132.07c0 7.297-3.978 14.594-14.656 14.594"/></g><path d="m551.78 340.62h-4.885c-10.698 0-14.841-7.297-14.841-14.594v-102.69c0-4.555-1.278-7.895-5.442-7.895h-4.164c-6.699 0-11.585-4.329-11.585-15.975v-3.937c0-11.626 6.699-16.16 13.378-16.16h27.354c10.678 0 14.841 7.297 14.841 14.594v132.07c0 7.297-3.978 14.594-14.656 14.594z" stroke="#643091" stroke-width="10.657" fill="none"/></g></svg>