<svg xmlns="http://www.w3.org/2000/svg" viewBox="0 0 600 251.3"><g transform="translate(-300.46-793.43)"><path d="m542.62 868.47s20.991-75.57 48.01-75.04c26.414.529 43.22 75.65 43.22 75.65s76.848-17.414 82.25 13.212c6.116 34.684-51.646 68.42-51.646 68.42s35.703 77.27 14.423 90.64c-25.12 15.76-85.85-28.818-85.85-28.818s-75.03 46.828-90.66 24.616c-15.606-22.22 13.222-80.44 13.222-80.44s-67.68-44.559-55.22-74.42c12.51-29.991 82.24-13.818 82.24-13.818" fill="#eda3c5"/><path d="m588.84 908.09s-24.981-22.568-40.799-10.212c-41.42 32.29 41.39 77.44 41.39 77.44s68.73-46.992 45.03-73.819c-20.472-23.21-45.617 6.596-45.617 6.596" fill="#e66ea0"/><g fill="#4488c6"><g fill-rule="evenodd"><path d="m757.65 943.09c11.202-.058 10.05 6.269 10.05 17.01v19.674c0 3.539-.269 7.962.394 10.846.404.135.827.212 1.442.212.587-.471 1.423-.587 2.048-1.01 2.644-1.894 3.115-4.01 7.202-4.923 2.038-.471 3.885.538 4.904 1.231 4.558 3.087 4.375 9.971 1.221 14.529-3.644 5.298-14.731 9.539-23.981 6.577-1.712-.558-3.712-1.221-5.337-2.058-1.221-.625-2.221-1.663-3.865-1.837-3.644 3.462-16.15 4.452-22.337 2.452-10.221-3.317-16.789-10.596-20.09-20.895-.808-2.49-2.087-9.289-1.221-13.12 2.827-12.818 7.875-20.414 18.827-25.01 3.962-1.663 11.51-3.144 17.231-1.635 2.788.75 5.539 1.76 7.789 3.077.433-1.712 2.115-3.471 3.481-4.308l2.24-.817m-21.914 18.232c-1.519.99-3.644.942-5.125 1.846-3.115 1.923-5.414 5.183-6.558 9.01-2.356 7.904 3.221 14.222 7.981 16.606 1.423.702 4.144 2 6.567 1.423 6.164-1.433 9.731-4.394 11.885-9.827.913-2.327.913-5.471.221-7.798-2.096-6.885-5.942-11.366-14.972-11.26"/><path d="m411.33 929.76c4.74-.029 7.635 1.096 9.212 4.106 1.413 2.663.615 8.568.615 12.289v19.866c0 3.75-.221 8.192.413 11.27.423.163.952.212 1.644.221.654-.548 1.567-.712 2.26-1.24l.606-1.019c1.163-1.269 3.317-2.952 5.115-3.481 2.317-.663 4.615.135 5.952 1.01 4.625 3.144 4.625 9.558 1.433 14.356-3.625 5.442-14.798 9.798-24.17 6.769l-5.317-2.067c-1.298-.644-2.173-1.654-3.904-1.827-.712.865-1.952.962-3.077 1.442-3.923 1.644-11 3.03-16.597 1.635-12.404-3.125-20.02-11.193-23.376-23.366-1.106-4.096-.875-10.76.221-14.548.76-2.712 1.077-4.923 2.24-7.183 3.058-5.914 8.5-11.625 14.77-14.347 2.587-1.115 5.519-1.577 8.606-2.24 3.885-.846 11.539.625 13.933 1.644 1.183.5 2.221 1.385 3.673 1.625.404-1.385 2.01-3.144 3.087-3.894.769-.49 1.894-.49 2.663-1.019m-21.92 18.25c-1.51.99-3.971 1.087-5.529 2.048-2.817 1.75-5.05 4.99-6.144 8.414-2.567 8.02 2.971 14.933 8.404 17.212 1.404.577 3.779 1.788 6.154 1.221 5.625-1.337 9.423-4.135 11.462-9 4.414-10.596-4.048-20.01-14.347-19.895"/><path d="m328.58 930.83c12.11-.202 18.943 2.962 24.818 8.818 2.077 2.077 5.683 5.279 3.673 10.04-.798 1.904-5.519 5.74-7.183 7.385l-19.251 19.664c5.087.596 9.664-.115 13.13-2.26 2.163-1.356 4.212-3.49 6.962-4.298 5.356-1.567 8.894 2.26 9.827 5.942 1.529 6.192-3.471 9.404-6.346 11.471-3.279 2.365-6.692 4.635-11.07 5.952-11.616 3.49-23.808-1.933-30.16-6.567-5.05-3.712-9.116-9.548-11.231-16.183-4.356-13.51 3.039-27.799 10.221-33.2 3.125-2.346 6.75-4.394 10.875-5.741l5.721-1.019zm1.24 16.616c-1.606 1.029-3.981.875-5.529 1.837-5.519 3.365-8.385 8.981-6.577 17.212h.442l13.09-13.327c1.404-1.356 4.03-2.99 4.721-4.904h-.423c-1.183-.913-3.683-.856-5.721-.817"/></g><path d="m651.92 905.17c12.923-.087 10.04 10.395 10.04 22.558v39.13c0 10.568-.942 16.943 5.731 21.12 11.616 7.26 26.616-4.885 20.914-18.05-.731-1.644-2.231-4.048-4.106-4.49-1.769-.433-3.26 1.683-4.298 2.25-3.03 1.635-7.423.913-9.866-.827-3.865-2.798-6.567-10.558-3.048-16.202 2.212-3.519 5.616-4.692 10.452-5.721 4.414-.952 10.5 2.02 12.904 3.471 8.337 5.077 12.837 10.375 15.568 21.12.827 3.202 1.096 8.827.221 12.289-2.808 11.08-9.116 18.904-18.866 22.962-2.154.885-4.596 1.317-6.971 1.846-4.03.904-9.587.106-12.702-.827-9.644-2.885-17.991-8.779-21.12-18.03-1.423-4.279-1.221-9.76-1.221-15.366v-23.366-26.847c0-3.087-.712-9.221.221-11.673.577-1.615 2.135-3.433 3.481-4.317.769-.51 1.894-.49 2.663-1.019"/><path d="m792.91 905.17c13.12-.087 10.25 10.423 10.25 22.741v38.751c0 4.125-.625 9.366.183 13.1v1.846c.769 2.577 3.644 5.26 5.741 6.558 11.635 7.164 26.04-5.414 20.712-18.02-.712-1.712-2.26-4.173-4.106-4.712-1.798-.529-3.327 1.663-4.298 2.25-2.769 1.712-7.308.913-9.625-.625-1.5-.981-3.394-3-4.106-4.702-1.279-3-.798-9.183.625-11.471 2.24-3.625 5.558-4.904 10.443-5.952 4.298-.923 9.846 1.788 12.289 3.077 8.5 4.442 13.51 10.779 16.202 21.1.76 2.904 1.24 8.818.404 12.308-2.788 11.558-9.318 19.424-19.472 23.568-5.01 2.039-14.289 2.702-20.07.808-9.09-2.933-17.491-9.289-20.318-18.433-1.385-4.5-1.221-9.971-1.221-15.799v-22.741-27.24c0-3.683-.702-9.26.625-11.895.712-1.433 2.519-3.106 3.885-3.885.615-.221 1.24-.423 1.856-.625"/><path d="m459.5 929.76c7.875-.038 11.943.49 13.51 6.769.49 1.933.26 4.865-.625 6.135-1.327 1.99-3.971 3.135-6.539 3.894-2.519.74-6.096.606-6.981 2.865-.163.24-.154.356-.202.827 7.894 5.942 17.12 11.51 22.347 20.08 3.49 5.731 2.192 14.472-1.24 19.06-7.741 10.433-35.386 8.625-37.895-5.115-.846-4.558 3.442-9.837 9.414-8.404 4 .971 9.308 4.74 14.13 2.663.058-.846.058-.577 0-1.433-.596-.596-.942-1.548-1.644-2.058-3.26-2.462-6.885-4.375-10.221-6.76-1.913-1.337-3.5-3.317-5.346-4.712-2.769-2.087-5.962-4.596-7.375-7.991-1.135-2.75-1.01-9.337 0-12.09.721-1.962 1.885-3.779 3.077-5.327 2.404-3.212 6.779-5.894 10.866-7.385 1.423-.51 3.462-.24 4.721-1.019"/><path d="m491.44 929.76c5.164-.029 8.192 1.231 9.644 4.702.933 2.25.404 6.327.404 9.231v20.08c0 5.692-.548 10.875 2.875 13.12 4.192 2.75 13.866.788 14.337-4.106.192-1.856-.202-4.914-.202-7.164v-19.876c0-5.346-.404-9.606 1.856-12.693 1.625-2.269 5.615-4.644 9.808-2.885 6.491 2.74 4.942 11.952 4.942 20.904v43.03c0 8.741.423 17.251-2.875 22.539-3.269 5.269-8.808 8.462-15.587 10.26-11.27 2.981-27.357-1.625-29.501-9.625-1.808-6.769 4.808-12.654 11.09-10.866 1.269.356 2.288 1.231 3.26 1.846 1.606.981 3.779 1.548 5.741 2.038 2.769.702 6.269.067 8.01-1.019 3.442-2.135 3.26-6.606 3.26-12.298 0-1.385-.125-3.24.202-4.298h-.606c-3.375 2.385-15.549.567-18.645-.615-7.26-2.788-12.183-8.366-14.13-16.395v-29.51c0-3.49-.788-8.962.404-11.693.577-1.337 2.279-3.106 3.481-3.885.769-.269 1.51-.558 2.24-.817"/><path d="m856.43 942.67c5.289-.038 8.337 1.144 9.846 4.721.913 2.221.404 6.317.404 9.221v20.08c0 6.135-.49 11.02 3.279 13.318 1.106.702 3.452 1.25 4.702 1.029 3.539-.587 6.635-.798 8.221-3.289 1.221-1.962.808-6.03.808-9.212v-20.693c0-2.894-.587-6.923.192-9.423 1.26-4.067 7.539-8.144 12.712-4.721 5.106 3.394 3.683 12.798 3.683 21.12v42.42c0 8.673.423 17.05-2.875 22.318-3.49 5.654-9.212 8.625-16.577 10.462-2.183.539-4.462.404-7 .404-10.09 0-19.779-3.067-21.693-11.07-1.462-6.116 5.289-11.924 11.481-10.04 2.375.731 4.087 2.481 6.548 3.279 1.385.442 2.933.5 4.317.817 1.5.346 2.981-.279 3.885-.615 6.567-2.49 5.356-8.519 5.327-17.222h-.423c-3.317 2.385-15.587.635-18.645-.596-6.548-2.721-11.231-7.05-13.529-13.943-.933-2.837-.606-7.144-.606-10.866v-20.481c0-3.125-.731-9.385.202-11.895.529-1.375 2.115-3.308 3.279-4.096.769-.5 1.75-.51 2.462-1.029"/></g></g></svg>