<svg xmlns="http://www.w3.org/2000/svg" viewBox="0 0 667.98 297.46"><g transform="translate(-33.29-114.17)"><path d="m151.68 304.92c-.721-.012-1.466.201-2.031.688l-.781.688v20.438 20.438l.781.656c1.109.954 3.04.96 4 0l.688-.688v-20.344-20.375l-.719-.75c-.503-.503-1.216-.739-1.938-.75m-12.594.031c-1.426 0-2.371.655-2.719 1.906-.157.564-.28 3.932-.281 7.469v6.438l-.938-.719c-1.974-1.503-3.318-1.997-5.844-2.125-2.879-.146-4.991.365-7.156 1.75-7.257 4.642-8.538 17.811-2.438 24.938 1.238 1.446 3.44 2.872 5.281 3.438 1.803.553 5.524.594 7.313.063.776-.231 1.952-.816 2.594-1.281l1.156-.844.406.969c.486 1.164 1.165 1.563 2.656 1.563.786 0 1.387-.214 1.938-.688l.781-.656.063-19.938c.056-14.6-.011-20.11-.25-20.688-.445-1.075-1.288-1.594-2.563-1.594m61.66 0c-.916 0-1.355.168-2 .813l-.813.813v20c0 20.572.002 20.755 1.094 21.594.245.188 1.042.344 1.75.344 1.026.007 1.425-.141 1.969-.719l.656-.719.156-9.75.125-9.75.75-1.406c1.696-3.242 6.2-4.246 9.313-2.063.425.298 1.137 1.151 1.563 1.875l.75 1.313.156 9.938.125 9.938.813.656c1.116.96 3.03.972 4 0l.719-.719-.094-10.875-.094-10.906-.719-1.563c-1.777-3.722-4.741-5.642-8.969-5.844-3.01-.144-5.05.388-6.875 1.781-.707.54-1.362.969-1.438.969-.076 0-.125-3.153-.125-7.03v-7.06l-.813-.813c-.645-.645-1.084-.813-2-.813m-35.656 2.938c-1.617-.022-3.153 1.153-3.344 3.156-.148 1.56.522 2.7 2 3.344 1.152.502 1.717.487 2.875-.063 1.778-.844 2.404-3.484 1.188-5.03-.75-.953-1.749-1.393-2.719-1.406m241.28 1.344c-.86-.035-1.708.25-2.219.813-.445.491-.569 1.178-.688 4.281l-.125 3.688-1.406.156c-1.849.218-2.374.489-2.688 1.313-.756 1.988.201 3.403 2.531 3.688l1.563.188.063 11.844.063 11.844.75.75c1.083 1.082 2.934 1.034 4.063-.094l.813-.813v-11.813-11.781l1.563-.156c1.99-.165 2.781-.867 2.781-2.469 0-1.57-.814-2.308-2.719-2.5l-1.469-.156-.156-3.688c-.091-2.396-.265-3.843-.5-4.125-.502-.604-1.359-.934-2.219-.969m-314.91 8.594c-.73.003-1.503.284-2.094.875l-.813.813v13.5c0 14.11.031 14.613 1.219 15.188.33.16 1.12.303 1.75.313.883.015 1.319-.16 1.844-.719l.656-.719.156-9.75.125-9.75.875-1.563c2.364-4.173 8.624-4.117 10.875.094.609 1.139.645 1.503.781 10.875.146 10.1.191 10.616 1.375 11.25.797.426 2.612.335 3.313-.156.338-.236.746-.893.906-1.469.368-1.325.398-16.613.031-19.438-.513-3.95-2.368-6.662-5.594-8.25-1.76-.867-2.01-.906-4.938-.906-2.848 0-3.235.051-4.656.781-.851.437-1.806 1.046-2.125 1.344-.767.715-.869.688-1.063-.281-.259-1.294-1.408-2.037-2.625-2.031m355.22 0c-.74-.012-1.491.227-2.063.719l-.813.688v13.969 13.969l.813.656c1.13.972 3.047.963 3.969-.031l.688-.719.094-8.781c.09-8.536.097-8.803.75-10.25.968-2.146 2.604-3.459 5.219-4.219 2.896-.842 3.884-1.971 3.406-3.875-.34-1.354-1.38-2.094-2.969-2.094-1.869 0-3.08.532-4.75 2.094-1.445 1.352-1.719 1.379-1.719.156 0-.416-.308-1.091-.688-1.5-.471-.509-1.197-.769-1.938-.781m29.781 0c-1.169.017-2.281.69-2.563 1.813-.088.352-.112 5.144-.063 10.625.087 9.626.096 10.01.719 11.563.71 1.767 2.611 4.076 4.156 5.03.548.339 1.718.845 2.594 1.125 1.941.621 6.301.702 8.344.156 3.322-.887 5.56-2.711 7-5.75l.875-1.875.094-10.625.063-10.625-.688-.688c-.486-.486-1.226-.745-1.969-.75-.743-.005-1.504.239-2.063.719l-.781.688-.125 9.938c-.138 9.746-.159 9.953-.813 11.281-.946 1.922-2.315 2.759-4.813 2.938-3.206.229-5.241-.844-6.406-3.438-.445-.991-.5-2.309-.625-10.938l-.156-9.781-.781-.688c-.575-.494-1.298-.729-2-.719m28.688 0c-.742-.002-1.508.242-2.063.719l-.781.688-.094 13.438c-.082 14.11-.023 14.59 1.188 15.438.766.537 2.69.514 3.469-.031 1.048-.734 1.185-2.088 1.188-11.188.002-9.424.097-10.173 1.5-11.875 2.213-2.685 6.838-2.791 9.25-.219 1.699 1.812 1.758 2.197 1.844 12.188.043 5.03.142 9.438.219 9.781.418 1.876 3.167 2.427 4.656.938l.813-.813v-9.656c-.005-12.407-.304-13.835-3.5-16.781-1.848-1.704-3.488-2.342-6.375-2.5-2.908-.16-4.859.32-6.938 1.719-1.47.989-1.75 1.019-1.75.125 0-.291-.308-.839-.688-1.219-.48-.48-1.195-.748-1.938-.75m-339.84.031c-1.414 0-2.393.46-2.781 1.313-.215.472-.313 4.889-.313 14.188v13.531l.844.813c.66.66 1.055.822 2.031.813 1.308-.0001 1.921-.342 2.438-1.313.236-.442.313-4.375.313-14.09v-13.5l-.719-.875c-.582-.691-.944-.875-1.813-.875m180.28 0c-.834-.008-1.712.243-2.188.719l-.688.688.094 10.625.063 10.625.781 1.625c.423.902 1.143 2.121 1.594 2.688.987 1.24 3.429 2.752 5.281 3.281 2.18.622 7.403.379 9.5-.438 2.303-.897 4.849-3.422 5.781-5.75.664-1.657.694-1.89.781-12l.094-10.281-.75-.875c-.641-.762-.946-.906-2.094-.906-1.068 0-1.454.169-2 .75l-.688.719-.125 9.75-.156 9.781-.844 1.656c-1.161 2.257-2.25 2.813-5.5 2.813-2.174 0-2.512-.097-3.594-.813-.795-.526-1.41-1.222-1.813-2.094-.576-1.246-.617-1.843-.75-11.03-.146-10.1-.222-10.585-1.406-11.219-.386-.207-.874-.308-1.375-.313m29.5 0c-1.169 0-1.466.129-2.094.875l-.719.875v13.594 13.594l.719.875c.624.742.92.844 2.063.844 1.068 0 1.454-.138 2-.719l.688-.719.156-9.75.125-9.75.875-1.563c.694-1.225 1.207-1.71 2.406-2.344 1.349-.712 1.694-.774 3.406-.656 2.494.171 3.963 1.113 5.063 3.281l.75 1.531v9.09c0 9.667.129 10.614 1.375 11.281.312.167 1.032.313 1.594.313.562 0 1.282-.145 1.594-.313 1.238-.663 1.347-1.647 1.344-10.844 0-4.76-.12-9.495-.281-10.5-.606-3.772-2.445-6.387-5.531-7.906-1.535-.755-2.241-.932-4.313-1.031-2.962-.142-5.086.431-6.938 1.844-1.422 1.086-1.469 1.09-1.469.375 0-.297-.35-.93-.75-1.406-.628-.746-.894-.875-2.063-.875m51.625 0c-2.472.051-4.987.748-6.938 2-8.612 5.527-8.598 21.74.031 26.906.83.497 2.212 1.085 3.063 1.313 2.04.546 6.213.565 8.313.031 2.394-.609 5.492-2.219 6.844-3.531 1.052-1.021 1.156-1.245 1.156-2.5 0-1.162-.129-1.48-.75-1.969-.407-.32-.906-.594-1.125-.594-.559 0-2.027.79-3.188 1.719-2.478 1.982-6.518 2.734-9.688 1.813-2.787-.81-4.893-3.452-5.281-6.625l-.063-.688 9.563-.156c6.875-.101 9.717-.218 10.156-.469.917-.525 1.322-2.071 1.094-4.25-.619-5.907-4.116-10.788-8.906-12.406-1.317-.445-2.798-.624-4.281-.594m114.88 0c-5.374 0-9.259 2.647-10.219 6.938-.262 1.17-.259 1.844 0 3 .65 2.904 2.673 4.551 8.938 7.25 4.795 2.065 6.406 3.263 6.406 4.813 0 1.356-.707 2.284-2.25 3.03-1.101.534-1.609.609-3.438.5-2.299-.137-3.488-.573-6.06-2.344-1.535-1.056-2.994-1.258-4.03-.531-.676.473-1.081 1.992-.781 2.938.568 1.79 3.587 3.843 6.813 4.625 2.257.547 6.649.553 8.531 0 4.289-1.26 6.689-4.139 6.938-8.281.164-2.737-.524-4.326-2.563-5.938-1.708-1.35-2.842-1.958-6.188-3.25-5.058-1.953-6.656-3.057-6.656-4.594 0-1.919 1.807-3.074 4.719-3.063 1.776.007 3.223.529 5.125 1.906 2.35 1.702 4.781.928 4.781-1.531 0-2.953-4.62-5.469-10.06-5.469m-471.03.156c-3.379 0-3.592.032-5.438.906-3.681 1.744-6.588 5.537-7.625 9.938-.953 4.045-.303 9.712 1.469 12.969 1.665 3.06 4.522 5.411 7.656 6.25 2.04.546 6.213.565 8.313.031 2.605-.662 5.532-2.233 6.844-3.656 1.457-1.581 1.609-3.11.438-4.281-.959-.959-1.868-.749-4.188.906-3.155 2.251-6.609 2.939-9.875 1.969-2.604-.773-5.02-3.679-5.25-6.344l-.063-.969 9.563-.156c6.979-.103 9.701-.24 10.156-.5 1.915-1.095 1.133-7.394-1.438-11.438-1.169-1.839-3.437-3.862-5.438-4.844-1.492-.732-1.849-.781-5.125-.781m113.16 0c-1.747.047-2.17.247-3.563.906-3.596 1.703-6.302 5.09-7.438 9.375-.632 2.387-.627 7.385 0 9.75 1.348 5.082 4.735 8.826 9.156 10.09.807.231 2.516.349 4.531.313 2.924-.054 3.391-.147 4.875-.875 2.532-1.243 3.386-3.179 2.125-4.781-.741-.942-2.29-1.013-3.969-.156-1.449.739-4.156.987-5.844.531-1.765-.476-3.908-2.676-4.781-4.906-.563-1.438-.688-2.187-.688-5.063 0-4.222.606-5.958 2.781-8.188 2.199-2.254 4.737-2.673 8.188-1.375 1.027.387 2.266.688 2.719.688 2.057 0 2.951-2.78 1.406-4.344-1.591-1.61-2.877-1.969-7.219-1.969-.961 0-1.699-.016-2.281 0m-113.25 4.906c.752-.008 1.489.086 2.188.281 2.54.711 4.817 3.668 5 6.5l.094 1.25-7.344.063c-4.03.041-7.384.022-7.469-.063-.483-.483.723-4.177 1.875-5.688 1.084-1.421 3.4-2.32 5.656-2.344m356.06 0c1.725-.014 3.485.515 4.781 1.625 1.354 1.159 2.548 3.497 2.625 5.156l.063 1.25-7.406.063-7.375.094v-.813c0-1.303.779-3.538 1.656-4.75 1.239-1.71 3.438-2.607 5.656-2.625m-297.78.063c1.261-.033 2.611.196 3.563.688 2.335 1.206 3.995 4.547 4.25 8.469.33 5.066-1.431 9.213-4.531 10.656-3.785 1.762-7.94-.049-9.469-4.094-2.378-6.293-.425-13.649 4.094-15.375.59-.225 1.337-.324 2.094-.344" fill="#464448"/><path d="m603.84 129.17c-10.255.073-20.546 2.059-30.26 6.02-21.19 8.624-37.905 25.878-45.905 47.36-2.362 6.343-4.245 14.647-4.764 21.02l-.188 2.36h17.59c15.782 0 17.622-.05 17.778-.456.095-.249.17-4.786.17-10.08 0-9.04.04-9.689.563-10.547 1.239-2.031.503-1.94 16.634-1.94 14.265 0 14.526.011 15.32.599 1.181.874 1.683 2.637 1.189 4.165-.214.661-.74 1.455-1.189 1.788-.78.577-1.204.604-12.585.742l-11.78.143-.036 7.24c-.022 3.983.019 7.49.098 7.794.139.53.477.554 8.098.554h7.955l.876.733c1.766 1.486 1.735 4.34-.063 5.676-.762.566-1.252.607-8.866.742l-8.06.143-.143 13.01-.143 13.01h-3.861-3.861l-.143-13.01-.143-13.01h-17.733-17.733l.072 2c.55 14.776 5.947 30.466 14.757 42.902 13.444 18.978 34.814 31.724 57.25 34.15 1.573.17 3.311.364 3.861.429 1.758.209 13.501-.096 15.874-.411 6.509-.864 14.625-2.961 20.584-5.327 4.123-1.637 9.995-4.742 14.167-7.481 29.347-19.27 43.09-54.49 34.554-88.56-4.977-19.867-17.14-36.949-34.42-48.36-13.586-8.971-29.506-13.512-45.503-13.398m3.173 52.993c1.061 0 2.156.234 3.209.724 2.069.963 3.749 2.749 9.671 10.297 2.831 3.608 5.48 6.939 5.881 7.401l.724.831 5.854-7.392c7.331-9.265 7.929-9.912 10.162-11.01 1.611-.793 2.02-.879 3.808-.778 1.651.093 2.223.261 3.236.965.675.47 1.482 1.367 1.797 1.993.56 1.114.572 1.714.572 27.6v26.456l-3.718.08c-3.244.07-3.761.019-4.076-.411-.282-.386-.358-5.28-.358-22.631v-22.14l-3.075 3.781c-9.58 11.786-12.32 15.03-12.996 15.409-.572.321-1 .359-1.832.152-1.223-.306-1.743-.875-11.09-12.397-3.087-3.804-5.506-6.552-5.649-6.409-.138.138-.281 10.223-.322 22.407l-.072 22.16-3.736.08c-2.054.044-3.823-.016-3.933-.125-.332-.332-.236-51.869.098-53.07.684-2.462 3.135-3.967 5.845-3.968" fill="#097359"/><path d="m98.08 151.94c-7.498.026-9.97.132-11.771.366-9.341 1.215-17.569 5.241-24.579 12.01-6.315 6.1-10.509 13.523-12.352 21.871-1.049 4.75-1.176 8.885-1.046 33.633.119 22.592.155 23.891.724 26.885 1.98 10.422 5.883 18.248 12.459 24.973 6.987 7.144 15.758 11.33 25.875 12.343 1.966.197 29.12.295 80.73.295 69.44 0 77.77.049 77.77.438 0 .239-.514 1.454-1.144 2.708-2.412 4.798-3.928 9.622-4.576 14.587-.22 1.683-.285 10.658-.215 29.17.101 26.52.112 26.766.751 29.602 1.852 8.223 5.067 14.943 9.921 20.736 7.279 8.688 16.507 13.602 28.15 14.989 1.914.228 8.453-.095 11.01-.545 18.623-3.278 32.953-19.916 34.733-40.33.413-4.733.406-48.13-.009-52.47-1.625-16.982-13.361-31.862-29.31-37.16-5.757-1.914-4.433-1.828-31.444-2.029-27.06-.201-25.855-.128-30.07-2.02-5.328-2.393-9.623-7.04-11.566-12.531-1.438-4.062-1.455-4.539-1.35-32.793.098-26.22.094-26.32.724-28.315 2.02-6.397 5.854-11.03 11.369-13.747 4.887-2.407 2.673-2.243 32.722-2.342 28.946-.095 29.09-.097 32.91 1.448 6.48 2.618 11.642 8.384 13.791 15.4.639 2.086.645 2.219.795 26.984l.152 24.883 21.16.143 21.16.143.206.715c.109.393.459 2.293.787 4.219 1.364 8.01 4.958 15.713 10.154 21.782 5.899 6.889 13.891 11.479 23.543 13.523 3.076.651 3.11.659 32.802.742 28.519.08 29.856.06 33.03-.483 9.369-1.601 17.194-5.876 24.16-13.201 7.307-7.685 11.752-17.553 12.746-28.3.384-4.154.391-43.956.009-47.907-.757-7.836-3.054-14.298-7.401-20.799-6.397-9.567-16.434-16.316-28.06-18.868l-3-.661h-30.17-30.17l-2.905.644c-1.596.354-4.22 1.1-5.836 1.662-12.9 4.49-23.271 15-27.565 27.931-1.985 5.977-1.965 5.694-2.074 22.247-.054 8.259-.161 15.303-.241 15.659l-.143.652-10.94-.081-10.931-.071-.17-15.588c-.188-17.403-.214-17.685-2.431-24.07-5.08-14.632-17.74-25.641-32.749-28.476-2.464-.465-5.106-.509-31.578-.509-32.01 0-30.807-.064-37.04 1.913-15.542 4.93-26.512 18.544-28.593 35.466-.233 1.895-.306 10.698-.232 30.407.103 27.579.109 27.76.751 30.604.83 3.674 2.108 7.39 3.548 10.359.628 1.295 1.066 2.55.974 2.789-.148.387-6.503.438-57.793.438-38.64 0-58.33-.103-59.777-.304-7.488-1.042-13.592-5.49-17.04-12.424-1.646-3.305-2.488-6.324-2.789-9.993-.117-1.426-.15-13.339-.072-26.474l.143-23.882.778-2.288c2.388-7.01 7.928-12.478 15.32-15.12l2.494-.894h28.601 28.601l2.315.795c6.512 2.237 12.747 8.283 15.257 14.792 2.574 6.674 2.21 13.17-1.117 19.878-3.228 6.508-8.581 11.354-14.882 13.478-1.473.497-3.25.543-28.03.679l-26.456.143v10.01 10.01h26.885c29.994 0 28.751.075 34.795-2.029 11.08-3.858 20.376-12.388 25.84-23.712 5.28-10.942 6.121-22.637 2.422-33.678-2.455-7.329-6.398-13.503-12.2-19.11-5.93-5.73-12.225-9.161-20.539-11.19-2.547-.622-2.869-.625-30.836-.724-9.06-.032-15.37-.052-19.869-.036m337.69 20.307c10.692.003 15.925.084 16.893.25 9.541 1.639 17.636 9.416 19.789 19.01.306 1.362.384 6.53.384 25.03 0 20.645-.056 23.544-.474 25.321-2.3 9.796-9.274 17.13-18.367 19.306-2.22.532-3.532.556-30.21.536-22.04-.016-28.25-.102-29.602-.402-8.778-1.939-14.823-7.811-17.366-16.875-.639-2.278-.648-2.394-.733-26.823-.082-23.713-.062-24.607.492-26.939 1.997-8.41 8.318-15.01 16.911-17.652l2.127-.652 27.6-.089c4.822-.016 8.994-.019 12.558-.018m-153.12 112.07c1.399.004 2.77.144 4.02.42 8.324 1.833 15.13 8.522 17.304 17 .514 2.01.547 3.513.545 28.03-.002 24.972-.026 26-.581 28.315-1.999 8.34-7.877 14.883-15.579 17.349-2.252.721-6.935 1.154-8.723.804-9.286-1.816-15.517-7.596-18.502-17.15l-.795-2.547-.089-25.741c-.075-22.656-.026-26.01.375-27.994 1.622-8.02 7.511-14.759 15.23-17.42 2.05-.707 4.461-1.07 6.793-1.064" fill="#464448"/></g></svg>