<?xml version="1.0" encoding="UTF-8" standalone="no"?>
<!-- Created with Inkscape (http://www.inkscape.org/) -->

<svg
   xmlns:dc="http://purl.org/dc/elements/1.1/"
   xmlns:cc="http://creativecommons.org/ns#"
   xmlns:rdf="http://www.w3.org/1999/02/22-rdf-syntax-ns#"
   xmlns:svg="http://www.w3.org/2000/svg"
   xmlns="http://www.w3.org/2000/svg"
   version="1.0"
   width="755.18073"
   height="98.807014"
   id="svg2426">
  <metadata
     id="metadata3243">
    <rdf:RDF>
      <cc:Work
         rdf:about="">
        <dc:format>image/svg+xml</dc:format>
        <dc:type
           rdf:resource="http://purl.org/dc/dcmitype/StillImage" />
        <dc:title></dc:title>
      </cc:Work>
    </rdf:RDF>
  </metadata>
  <defs
     id="defs2428" />
  <g
     transform="translate(12.865924,-393.62686)"
     id="layer1">
    <g
       id="g3479">
      <path
         d="m 35.775952,463.60788 -36.11146182,0 c -0.34083447,13.10213 5.46834412,19.02825 16.74586682,19.02825 5.808679,0 11.848745,-1.37033 16.517978,-3.64972 l 1.139946,9.68629 c -5.692235,2.38984 -12.644359,3.64323 -19.593484,3.64323 -17.6579238,0 -27.340721,-9.11157 -27.340721,-29.04889 0,-17.0897 9.3384644,-29.847 25.86044,-29.847 16.176644,0 23.125768,11.04913 23.125768,24.4926 0,1.59423 -0.113444,3.53279 -0.344332,5.69524 M 12.536239,442.42117 c -6.8316823,0 -11.61835756,5.00956 -12.64435926,12.64385 l 24.03882526,0 c 0.226889,-7.74423 -4.214953,-12.64385 -11.394466,-12.64385 z"
         id="_88688792"
         style="fill:#c5182f;fill-opacity:1" />
      <path
         d="m 52.06654,426.12608 c -4.332396,0 -7.861682,-3.41584 -7.861682,-7.63029 0,-4.21846 3.529286,-7.63779 7.861682,-7.63779 4.210955,0 7.743739,3.30589 7.743739,7.63779 0,4.21445 -3.532784,7.63029 -7.743739,7.63029 m -6.153512,8.4329 12.18958,0 0,56.61651 -12.18958,0 0,-56.61651 z"
         id="_88689824"
         style="fill:#c5182f;fill-opacity:1" />
      <path
         d="m 106.74448,491.17449 0,-36.4523 c 0,-7.06557 -1.93905,-11.16658 -8.4329,-11.16658 -8.543351,0 -14.806809,9.00063 -14.806809,20.27816 l 0,27.34072 -12.193078,0 0,-56.61651 11.621356,0 c 0,2.96157 -0.22739,7.86169 -0.795614,11.04964 l 0.110446,0.11694 c 3.305895,-7.29246 10.141075,-12.30602 19.709929,-12.30602 12.87175,0 16.86231,8.09207 16.86231,18.1152 l 5e-4,39.64075 -12.07614,0 0,0 z"
         id="_88689728"
         style="fill:#c5182f;fill-opacity:1" />
      <path
         d="m 141.14378,492.31393 c -4.21496,0 -8.42891,-0.45478 -11.96219,-1.13994 l 0.34433,-10.36447 c 3.52629,1.026 7.97113,1.82112 12.30352,1.82112 6.60779,0 11.16008,-2.84762 11.16008,-7.51685 0,-11.39097 -24.83393,-4.55879 -24.83393,-24.15227 0,-9.79574 7.97462,-17.54348 23.35265,-17.54348 3.3059,0 7.17902,0.45778 10.59936,1.026 l -0.34534,9.90969 c -3.41484,-1.026 -7.4029,-1.59373 -11.04913,-1.59373 -6.72224,0 -10.02413,2.73367 -10.02413,7.06207 0,10.93619 25.06133,5.3544 25.06133,24.15227 0,10.59536 -9.45541,18.33959 -24.60655,18.33959 l 0,0 z"
         id="_88689632"
         style="fill:#c5182f;fill-opacity:1" />
      <path
         d="m 210.0643,422.02807 c -2.0525,-0.68517 -4.33189,-1.026 -6.26795,-1.026 -5.23946,0 -7.6303,2.50678 -7.6303,8.54285 l 0,5.01356 11.61836,0 0,13.32553 -11.61836,0 0,43.29098 -17.31659,0 0,-43.29098 -8.65979,0 0,-13.32553 8.65979,0 0,-4.89962 c 0,-15.04119 6.72074,-22.67149 23.23872,-22.67149 2.96506,0 6.15101,0.22739 9.11457,0.90906 l -1.13845,14.13164 0,0 z"
         id="_88690304"
         style="fill:#c5182f;fill-opacity:1" />
      <path
         d="m 261.09452,467.14116 -33.71762,0 c 0.11494,7.51735 4.67023,11.84575 14.01069,11.84575 5.58179,0 11.39047,-1.13645 16.63242,-3.52979 l 1.59373,13.10264 c -6.3769,2.61673 -14.0112,3.87362 -20.95932,3.87362 -18.56748,0 -28.8215,-9.00113 -28.8215,-28.93845 0,-17.43053 9.68279,-30.30178 27.22627,-30.30178 17.0872,0 24.60655,11.50741 24.60655,26.31422 0,2.39333 -0.22939,4.89662 -0.57122,7.63379 m -24.4921,-21.30415 c -5.01007,0 -8.6578,3.98756 -9.11058,9.79974 l 17.0847,0 c 0.22789,-6.3804 -2.96156,-9.79974 -7.97412,-9.79974 z"
         id="_88690376"
         style="fill:#c5182f;fill-opacity:1" />
      <path
         d="m 281.48412,492.43388 c -3.98457,0 -8.08558,-0.45778 -11.7333,-0.91256 l 0.34583,-14.12514 c 3.41484,1.023 7.74324,1.82161 11.84375,1.82161 4.44334,0 7.17751,-1.82161 7.17751,-4.44534 0,-8.31596 -20.84788,-3.87362 -20.84788,-22.66799 0,-10.25402 8.31647,-18.91081 25.06483,-18.91081 3.18945,0 6.71924,0.45478 9.90669,0.91255 l -0.34033,13.55642 c -2.96207,-0.91256 -6.6043,-1.37083 -10.02264,-1.37083 -4.44284,0 -6.49534,1.70817 -6.49534,4.33189 5e-4,7.06257 21.19021,4.90012 21.19021,22.67149 0,11.7318 -10.25402,19.13871 -26.08933,19.13871 l 0,0 z"
         id="_88690448"
         style="fill:#c5182f;fill-opacity:1" />
      <path
         d="m 335.70578,492.43388 c -13.09714,0 -17.31259,-4.3319 -17.31259,-18.22965 l 0,-26.31472 -8.54535,0 0,-13.32903 8.54535,0 0,-16.74886 17.31259,-4.67223 0,21.42109 12.30403,0 0,13.32903 -12.18608,0 0,22.32766 c 0,5.80867 1.48078,7.74723 5.81267,7.74723 2.04901,0 4.55229,-0.45428 6.37341,-0.91255 l 0,13.7843 c -3.75718,0.91256 -8.20152,1.59773 -12.30403,1.59773 z"
         id="_88690520"
         style="fill:#c5182f;fill-opacity:1" />
      <path
         d="m 365.66823,428.63486 c -5.81268,0 -10.59235,-4.55579 -10.59235,-10.25452 0,-5.69923 4.77967,-10.25452 10.59235,-10.25452 5.92212,0 10.7088,4.55529 10.7088,10.25452 0,5.58179 -4.78668,10.25452 -10.7088,10.25452 m -8.65829,5.92212 17.31509,0 0,56.61651 -17.31509,0 0,-56.61651 z"
         id="_88690616"
         style="fill:#c5182f;fill-opacity:1" />
      <path
         d="m 417.26967,491.17449 -17.65692,0 -20.84788,-56.61651 19.02126,0 6.95362,20.04727 c 1.48079,4.21845 2.96007,9.4594 4.10051,13.7878 l 0.22789,0 c 0.91156,-4.21495 2.16495,-9.00113 3.64573,-13.21608 l 6.95013,-20.61899 18.45104,0 -20.84538,56.61651 0,0 z"
         id="_88690688"
         style="fill:#c5182f;fill-opacity:1" />
      <path
         d="m 471.1535,491.17449 c 0,-2.73417 0,-5.69524 0.45678,-8.54335 l -0.11645,0 c -2.73417,5.92662 -9.45141,9.80024 -17.31309,9.80024 -10.82324,0 -16.52147,-6.3804 -16.52147,-15.49548 5e-4,-14.35553 13.89625,-21.18721 31.8985,-21.18721 l 5e-4,-2.16595 c 0,-4.66923 -2.61672,-6.94862 -10.14107,-6.94862 -5.00857,0 -11.84425,1.59423 -16.51798,4.10101 l -1.36633,-14.35203 c 5.80917,-1.82512 13.44646,-3.3054 20.50953,-3.3054 19.47954,0 24.94689,7.28946 24.94689,20.27766 l 0,24.37965 c 0,4.09751 0.11444,8.99763 0.45478,13.43948 l -16.29059,0 0,0 z m -1.59523,-24.37566 c -12.52991,0 -15.49197,3.41584 -15.49197,7.51685 0,2.84761 2.0485,4.89962 5.69273,4.89962 5.81268,0 9.79874,-5.24046 9.79874,-10.82225 l 5e-4,-1.59422 z"
         id="_88690592"
         style="fill:#c5182f;fill-opacity:1" />
      <polygon
         points="129.188,129.681 129.188,146.323 125.723,146.323 125.723,129.681 125.723,129.681 "
         transform="matrix(4.9975728,0,0,4.9975728,-130.50429,-240.08036)"
         id="_86968824"
         style="fill:#c5182f;fill-opacity:1" />
      <path
         d="m 556.1872,393.62686 c 16.92178,0 30.65361,13.72534 30.65361,30.65661 5e-4,16.92778 -13.71783,30.66311 -30.65361,30.66311 -16.94427,0 -30.66411,-13.73533 -30.66411,-30.66311 0,-16.93127 13.71934,-30.65661 30.66411,-30.65661 m 12.31302,43.08058 0,-30.70159 -30.86201,11.08112 0,7.6203 10.21704,-3.68471 0,23.0603 20.64497,-7.37542 z M 556.1872,398.11668 c -14.45148,0 -26.15979,11.70782 -26.15979,26.16679 0,14.44849 11.70831,26.1628 26.15979,26.1628 14.44499,0 26.1493,-11.71431 26.1493,-26.1628 0,-14.45897 -11.71031,-26.16629 -26.1493,-26.16679 l 0,0 z"
         id="_86851536"
         style="fill:#c5182f;fill-opacity:1" />
      <polygon
         points="155.559,139.394 149.468,139.394 149.468,146.323 145.62,146.323 145.62,129.677 149.468,129.677 149.468,136.063 155.559,136.063 155.559,129.677 159.405,129.677 159.405,146.323 155.559,146.323 155.559,146.323 "
         transform="matrix(4.9975728,0,0,4.9975728,-130.50429,-240.08036)"
         id="_88965336"
         style="fill:#c5182f;fill-opacity:1" />
      <path
         d="m 699.42763,423.64229 c -3.20144,0 -5.79168,5e-4 -7.88767,0.24488 l 0,50.90377 c 1.60073,0.24439 4.19247,0.48877 7.15053,0.48877 13.1861,0 23.04631,-8.13355 23.04631,-25.87744 5e-4,-15.64989 -5.05455,-25.75948 -22.30917,-25.75998 z m -2.4648,68.15539 c -8.74975,0 -17.00424,-0.37181 -24.64553,-0.74363 l 0,-82.82078 c 6.52533,-0.36832 17.12768,-0.74014 28.34623,-0.74014 25.01785,0 41.65127,10.85023 41.65127,40.42836 0,28.47068 -18.24214,43.87619 -45.35197,43.87619 z"
         id="_62641584"
         style="fill:#c5182f;fill-opacity:1" />
    </g>
  </g>
</svg>
