<svg xmlns="http://www.w3.org/2000/svg" viewBox="0 0 584.14 96.23"><g transform="translate(34.29-400.21)" fill="#c5182f"><path d="m13.1 468.37h-35.17c-.332 12.759 5.326 18.531 16.31 18.531 5.658 0 11.538-1.331 16.09-3.552l1.11 9.431c-5.547 2.331-12.319 3.552-19.08 3.552-17.199 0-26.634-8.878-26.634-28.29 0-16.646 9.1-29.07 25.19-29.07 15.754 0 22.522 10.763 22.522 23.857 0 1.553-.108 3.441-.332 5.547m-22.64-20.637c-6.654 0-11.317 4.88-12.313 12.316h23.411c.221-7.543-4.105-12.316-11.1-12.316z"/><path d="m28.571 431.87c-4.216 0-7.657-3.327-7.657-7.432 0-4.105 3.441-7.436 7.657-7.436 4.105 0 7.547 3.22 7.547 7.436 0 4.105-3.441 7.432-7.547 7.432m-5.993 8.214h11.876v55.15h-11.876v-55.15z"/><path d="m81.83 495.23v-35.506c0-6.882-1.885-10.877-8.212-10.877-8.32 0-14.425 8.767-14.425 19.752v26.631h-11.873v-55.15h11.32c0 2.885-.221 7.658-.778 10.763l.11.114c3.22-7.104 9.877-11.987 19.2-11.987 12.536 0 16.42 7.882 16.42 17.645v38.611h-11.762"/><path d="m114.08 496.34c-4.109 0-8.213-.443-11.655-1.11l.335-10.1c3.438.996 7.766 1.774 11.984 1.774 6.437 0 10.874-2.774 10.874-7.325 0-11.09-24.19-4.437-24.19-23.522 0-9.542 7.767-17.09 22.747-17.09 3.22 0 6.989.446 10.321.999l-.336 9.653c-3.327-.999-7.211-1.553-10.762-1.553-6.548 0-9.764 2.663-9.764 6.879 0 10.652 24.41 5.215 24.41 23.522 0 10.32-9.206 17.867-23.964 17.867"/><path d="m181.2 427.87c-1.995-.667-4.216-.999-6.105-.999-5.105 0-7.432 2.442-7.432 8.321v4.883h11.32v12.98h-11.32v42.17h-16.867v-42.17h-8.431v-12.98h8.431v-4.772c0-14.647 6.546-22.08 22.635-22.08 2.889 0 5.992.221 8.882.885l-1.113 13.761"/><path d="m231.01 471.81h-32.846c.11 7.322 4.55 11.538 13.647 11.538 5.44 0 11.1-1.11 16.2-3.438l1.556 12.759c-6.215 2.552-13.651 3.773-20.416 3.773-18.09 0-28.07-8.767-28.07-28.18 0-16.978 9.433-29.515 26.518-29.515 16.642 0 23.968 11.209 23.968 25.631 0 2.331-.222 4.769-.553 7.436m-23.858-20.751c-4.884 0-8.431 3.884-8.878 9.545h16.647c.22-6.215-2.889-9.545-7.769-9.545z"/><path d="m250.68 496.45c-3.884 0-7.879-.442-11.43-.889l.335-13.758c3.326.999 7.542 1.774 11.541 1.774 4.326 0 6.986-1.774 6.986-4.327 0-8.1-20.304-3.773-20.304-22.08 0-9.988 8.1-18.42 24.414-18.42 3.105 0 6.543.443 9.653.889l-.333 13.205c-2.883-.889-6.436-1.335-9.763-1.335-4.331 0-6.326 1.664-6.326 4.219 0 6.879 20.638 4.773 20.638 22.08 0 11.431-9.989 18.642-25.41 18.642"/><path d="m304.75 496.45c-12.759 0-16.867-4.219-16.867-17.756v-25.628h-8.321v-12.983h8.321v-16.314l16.867-4.547v20.861h11.985v12.983h-11.875v21.748c0 5.658 1.442 7.543 5.662 7.543 1.995 0 4.437-.442 6.213-.888v13.429c-3.66.889-7.99 1.553-11.985 1.553"/><path d="m335.2 434.31c-5.658 0-10.317-4.437-10.317-9.988 0-5.548 4.659-9.985 10.317-9.985 5.772 0 10.431 4.437 10.431 9.985 0 5.437-4.659 9.988-10.431 9.988m-8.433 5.768h16.869v55.15h-16.869v-55.15z"/><path d="m386.04 495.23h-17.196l-20.308-55.15h18.531l6.768 19.527c1.442 4.109 2.888 9.214 3.999 13.43h.218c.888-4.105 2.112-8.767 3.554-12.873l6.764-20.08h17.978l-20.308 55.15"/><path d="m438.92 495.23c0-2.663 0-5.547.443-8.321h-.115c-2.658 5.769-9.206 9.542-16.863 9.542-10.542 0-16.09-6.215-16.09-15.09 0-13.979 13.537-20.634 31.07-20.634v-2.11c0-4.548-2.554-6.768-9.878-6.768-4.883 0-11.542 1.553-16.09 3.995l-1.336-13.98c5.662-1.778 13.1-3.22 19.976-3.22 18.978 0 24.299 7.1 24.299 19.752v23.743c0 3.995.112 8.767.443 13.09h-15.864m-1.552-23.743c-12.21 0-15.09 3.327-15.09 7.318 0 2.774 1.995 4.773 5.547 4.773 5.658 0 9.546-5.105 9.546-10.538v-1.553"/><path transform="matrix(4.86778 0 0 4.86778-240.31 122.85)" d="m144.51 59.857h3.46v16.643h-3.46z"/><path d="m520 400.21c16.481 0 29.854 13.369 29.854 29.857 0 16.488-13.36 29.867-29.854 29.867-16.506 0-29.868-13.379-29.868-29.867 0-16.488 13.362-29.857 29.868-29.857m11.99 41.958v-29.901l-30.06 10.79v7.422l9.952-3.589v22.462l20.11-7.184zm-11.99-37.585c-14.08 0-25.484 11.403-25.484 25.483 0 14.07 11.404 25.484 25.484 25.484 14.07 0 25.467-11.411 25.467-25.484 0-14.08-11.404-25.483-25.467-25.483"/></g></svg>