<svg xmlns="http://www.w3.org/2000/svg" viewBox="0 0 755.18 98.81"><g transform="translate(12.866-393.63)" fill="#c5182f"><path d="m35.776 463.61h-36.11c-.341 13.1 5.468 19.03 16.746 19.03 5.809 0 11.849-1.37 16.518-3.65l1.14 9.686c-5.692 2.39-12.644 3.643-19.593 3.643-17.658 0-27.341-9.112-27.341-29.05 0-17.09 9.338-29.847 25.86-29.847 16.177 0 23.13 11.05 23.13 24.493 0 1.594-.113 3.533-.344 5.695m-23.24-21.19c-6.832 0-11.618 5.01-12.644 12.644h24.04c.227-7.744-4.215-12.644-11.394-12.644z"/><path d="m52.07 426.13c-4.332 0-7.862-3.416-7.862-7.63 0-4.218 3.529-7.638 7.862-7.638 4.211 0 7.744 3.306 7.744 7.638 0 4.214-3.533 7.63-7.744 7.63m-6.154 8.433h12.19v56.617h-12.19v-56.617z"/><path d="m106.74 491.17v-36.452c0-7.07-1.939-11.167-8.433-11.167-8.543 0-14.807 9-14.807 20.278v27.341h-12.193v-56.617h11.621c0 2.962-.227 7.862-.796 11.05l.11.117c3.306-7.292 10.141-12.306 19.71-12.306 12.872 0 16.862 8.092 16.862 18.12v39.641h-12.08"/><path d="m141.14 492.31c-4.215 0-8.429-.455-11.962-1.14l.344-10.364c3.526 1.026 7.971 1.821 12.304 1.821 6.608 0 11.16-2.848 11.16-7.517 0-11.391-24.834-4.559-24.834-24.15 0-9.796 7.975-17.543 23.353-17.543 3.306 0 7.179.458 10.599 1.026l-.345 9.91c-3.415-1.026-7.403-1.594-11.05-1.594-6.722 0-10.02 2.734-10.02 7.06 0 10.936 25.06 5.354 25.06 24.15 0 10.595-9.455 18.34-24.607 18.34"/><path d="m210.06 422.03c-2.053-.685-4.332-1.026-6.268-1.026-5.239 0-7.63 2.507-7.63 8.543v5.01h11.618v13.326h-11.618v43.29h-17.317v-43.29h-8.66v-13.326h8.66v-4.9c0-15.04 6.721-22.671 23.24-22.671 2.965 0 6.151.227 9.115.909l-1.138 14.13"/><path d="m261.09 467.14h-33.718c.115 7.517 4.67 11.846 14.01 11.846 5.582 0 11.39-1.136 16.632-3.53l1.594 13.1c-6.377 2.617-14.01 3.874-20.959 3.874-18.567 0-28.822-9-28.822-28.938 0-17.431 9.683-30.3 27.23-30.3 17.09 0 24.607 11.507 24.607 26.314 0 2.393-.229 4.897-.571 7.634m-24.492-21.304c-5.01 0-8.658 3.988-9.111 9.8h17.08c.228-6.38-2.962-9.8-7.974-9.8z"/><path d="m281.48 492.43c-3.985 0-8.09-.458-11.733-.913l.346-14.13c3.415 1.023 7.743 1.822 11.844 1.822 4.443 0 7.178-1.822 7.178-4.445 0-8.316-20.848-3.874-20.848-22.668 0-10.254 8.316-18.911 25.06-18.911 3.189 0 6.719.455 9.907.913l-.34 13.556c-2.962-.913-6.604-1.371-10.02-1.371-4.443 0-6.495 1.708-6.495 4.332 0 7.06 21.19 4.9 21.19 22.671 0 11.732-10.254 19.14-26.09 19.14"/><path d="m335.71 492.43c-13.1 0-17.313-4.332-17.313-18.23v-26.315h-8.545v-13.329h8.545v-16.749l17.313-4.672v21.421h12.304v13.329h-12.186v22.328c0 5.809 1.481 7.747 5.813 7.747 2.049 0 4.552-.454 6.373-.913v13.784c-3.757.913-8.202 1.598-12.304 1.598"/><path d="m365.67 428.63c-5.813 0-10.592-4.556-10.592-10.255 0-5.699 4.78-10.255 10.592-10.255 5.922 0 10.709 4.555 10.709 10.255 0 5.582-4.787 10.255-10.709 10.255m-8.658 5.922h17.315v56.617h-17.315v-56.617z"/><path d="m417.27 491.17h-17.657l-20.848-56.617h19.02l6.954 20.05c1.481 4.218 2.96 9.459 4.101 13.788h.228c.912-4.215 2.165-9 3.646-13.216l6.95-20.619h18.451l-20.845 56.617"/><path d="m471.15 491.17c0-2.734 0-5.695.457-8.543h-.116c-2.734 5.927-9.451 9.8-17.313 9.8-10.823 0-16.521-6.38-16.521-15.495 0-14.356 13.896-21.19 31.899-21.19v-2.166c0-4.669-2.617-6.949-10.141-6.949-5.01 0-11.844 1.594-16.518 4.101l-1.366-14.352c5.809-1.825 13.446-3.305 20.51-3.305 19.48 0 24.947 7.289 24.947 20.278v24.38c0 4.098.114 8.998.455 13.439h-16.291m-1.595-24.376c-12.53 0-15.492 3.416-15.492 7.517 0 2.848 2.048 4.9 5.693 4.9 5.813 0 9.799-5.24 9.799-10.822v-1.594"/><path transform="matrix(4.99757 0 0 4.99757-130.5-240.08)" d="m129.19 129.68v16.64h-3.47v-16.64z"/><path d="m556.19 393.63c16.922 0 30.654 13.725 30.654 30.657 0 16.928-13.718 30.663-30.654 30.663-16.944 0-30.664-13.735-30.664-30.663 0-16.931 13.719-30.657 30.664-30.657m12.313 43.08v-30.702l-30.862 11.08v7.62l10.217-3.685v23.06l20.645-7.375zm-12.313-38.591c-14.451 0-26.16 11.708-26.16 26.17 0 14.448 11.708 26.16 26.16 26.16 14.445 0 26.15-11.714 26.15-26.16 0-14.459-11.71-26.17-26.15-26.17"/><path transform="matrix(4.99757 0 0 4.99757-130.5-240.08)" d="m155.56 139.39h-6.09v6.93h-3.85v-16.64h3.85v6.38h6.09v-6.38h3.85v16.64h-3.85z"/><path d="m699.43 423.64c-3.201 0-5.792 0-7.888.245v50.904c1.601.244 4.192.489 7.151.489 13.186 0 23.05-8.134 23.05-25.877 0-15.65-5.05-25.759-22.309-25.76m-2.465 68.16c-8.75 0-17-.372-24.646-.744v-82.82c6.525-.368 17.13-.74 28.346-.74 25.02 0 41.651 10.85 41.651 40.43 0 28.471-18.242 43.876-45.35 43.876"/></g></svg>