<svg xmlns="http://www.w3.org/2000/svg" height="142.59" width="600" viewBox="0 0 158.74999 37.727442" xmlns:xlink="http://www.w3.org/1999/xlink"><g transform="translate(48.757-182.89)" fill="#adc30d"><path d="m28.806 193.94h-5.03v26.2l5.02-2.55z" id="0"/><path d="m42.648 213.1h4.983v-11.26h-4.983z" id="1"/><path d="m47.633 186.43-4.983 2.54v11.44h4.983z" id="2"/><path d="m67.13 193.94h-4.994l-.011 6.47h5.01z" id="3"/><path d="m55.612 193.94h-5.074v6.47h5.074z" id="4"/><path d="m62.12 201.84v11.27h5.01v-11.27z" id="5"/><path d="m58.7 208.75c-3.34-.03-3.088-4.18-3.088-4.18v-2.73h-5.075v3.26c0 7.22 4.17 8.43 7.216 8.43 1.231 0 2.285-.36 3.051-.74v-4.61c-.498.34-1.172.58-2.104.57" id="6"/><path d="m80.06 198.28c.567.15 1.793.65 2.671 1.08l1.664-4.04s-2.403-1.12-3.64-1.4c-1.017-.23-2.066-.36-3.077-.4v4.35c1.097.07 1.868.29 2.382.41" id="7"/><path d="m74.876 208.97c-1.938-.34-4.095-1.52-4.095-1.52l-1.702 3.88s.942.55 2.114 1.05c.787.34 1.66.64 2.478.79.787.15 1.671.27 2.586.33v-4.33c-.584-.06-1.092-.14-1.381-.2" id="8"/><path d="m84.75 205.87c-.75-2.38-2.843-3.45-6.097-4.54-.878-.28-2.43-.88-3.062-1.1-.787-.28-1.172-.93-1.049-1.37.219-.81 1.07-.95 1.702-.99h.016v-4.35c-.744.04-1.434.12-2.045.27-1.659.39-3.859 1.47-4.448 3.77-.257 1.02-.262 3.31.23 4.15.594 1.01 1.772 2.24 3.886 3.03.943.35 3.121 1.1 4.615 1.52.926.27 1.771.96 1.402 1.98-.252.71-1.199.94-2.221.98v4.31c1.209-.03 2.435-.21 3.57-.63 2.232-.83 3.147-2.42 3.501-3.59.203-.66.31-2.47 0-3.44" id="9"/><path d="m19.658 186.43h-2.452v13.98h2.452z" id="A"/><path d="m17.206 220.61h2.452v-18.8h-2.452z" id="B"/><path d="m8.764 198.25c.567.13 1.793.64 2.671 1.08l1.664-4.05s-2.403-1.12-3.639-1.4c-1.017-.23-2.072-.36-3.089-.4v4.35c1.103.07 1.879.29 2.393.42" id="C"/><path d="m3.579 208.94c-1.938-.35-4.095-1.53-4.095-1.53l-1.702 3.88s.942.55 2.114 1.05c.787.34 1.659.64 2.478.79.787.15 1.665.27 2.58.32v-4.32c-.583-.06-1.087-.14-1.376-.19" id="D"/><path d="m13.454 205.83c-.754-2.38-2.837-3.45-6.096-4.53-.883-.29-2.436-.89-3.062-1.11-.787-.28-1.172-.93-1.054-1.37.225-.81 1.076-.95 1.708-.99h.005v-4.35c-.739.04-1.429.12-2.039.27-1.654.39-3.859 1.48-4.443 3.77-.262 1.02-.262 3.32.23 4.16.594 1 1.772 2.23 3.886 3.02.942.35 3.121 1.1 4.614 1.53.926.26 1.772.95 1.402 1.98-.252.7-1.204.94-2.232.97v4.31c1.215-.03 2.446-.2 3.581-.63 2.232-.83 3.142-2.42 3.5-3.59.204-.66.311-2.47 0-3.44" id="E"/><path d="m-20.607 201.84v11.27h4.994v-11.27z" id="F"/><path d="m-28.694 213.11h4.989v-11.27h-4.989z" id="G"/><path d="m-26.2 187.35c-1.376 0-2.495 1.12-2.495 2.5 0 1.37 1.119 2.49 2.495 2.49 1.375 0 2.494-1.12 2.494-2.49 0-1.38-1.119-2.5-2.494-2.5" id="H"/><path d="m-31.963 210.84l-2.162-2.98c-1.199.92-2.5 1.53-4.433 1.57v4.04c2.57 0 5.091-1.16 6.595-2.63" id="I"/><path d="m-43.516 201.82s0-.21.016-.44c0-1.38 1.408-3.41 3.522-3.79v-3.98c-6.03.45-8.779 5.53-8.779 10.15 0 5.51 3.18 9.13 8.779 9.64v-4.08c-2.093-.39-3.485-1.78-3.485-3.88h12.188c.081-.43.199-1.33.199-2.35 0-.42-.017-.84-.049-1.27z" id="J"/><path d="m-15.615 193.94h-4.989v6.47h5z" id="K"/><path d="m-23.705 193.94h-4.989v6.47h4.989z" id="L"/><path d="m-38.559 193.61v3.98c1.654.31 2.388 1.63 2.629 2.81h4.619c-.632-3.54-2.671-6.56-7.248-6.79" id="M"/><path d="m-11.227 193.55c-1.178 0-2.2.33-2.96.69v4.6c.492-.31 1.14-.51 2.01-.51 1.783-.001 2.553 1.03 2.88 2.07h5.198c-.567-5.81-4.325-6.85-7.13-6.85" id="N"/><path d="m-9.07 201.84c.011 1.36-.021 2.27-.021 2.27v9h5.08v-10.8c0-.16-.005-.31-.005-.47z" id="O"/><use xlink:href="#0"/><use xlink:href="#1"/><use xlink:href="#2"/><use xlink:href="#3"/><use xlink:href="#4"/><use xlink:href="#5"/><use xlink:href="#6"/><use xlink:href="#7"/><use xlink:href="#8"/><use xlink:href="#9"/><use xlink:href="#A"/><use xlink:href="#B"/><use xlink:href="#C"/><use xlink:href="#D"/><use xlink:href="#E"/><use xlink:href="#F"/><use xlink:href="#G"/><use xlink:href="#H"/><use xlink:href="#I"/><use xlink:href="#J"/><use xlink:href="#K"/><use xlink:href="#L"/><use xlink:href="#M"/><use xlink:href="#N"/><use xlink:href="#O"/><path d="m39.71 199.19c-.209-.82-.787-3.1-3.265-4.74-1.782-1.17-4.186-1.08-5.246-.75-.337.1-.674.27-.985.44v4.51c.445-.23.98-.39 1.617-.38 1.081.02 2.157.56 2.655 1.71.45 1.04.696 2.34.696 3.57 0 1.83-.289 3.53-1.13 4.41-.679.72-1.391.83-2.044.85-.728-.03-1.317-.22-1.794-.47v4.62c.284.14.605.25.969.35 1.67.42 3.474.16 4.743-.45 1.022-.49 2.077-1.37 2.992-2.94.819-1.4 1.151-3.32 1.279-4.79.161-1.79.123-3.55-.487-5.94"/><path d="m99.56 182.89c-5.765 0-10.438 4.67-10.438 10.43 0 5.77 4.673 10.44 10.438 10.44s10.435-4.67 10.435-10.44c0-5.76-4.67-10.43-10.435-10.43m8.855 10.51c0 4.89-3.96 8.86-8.855 8.86-4.892 0-8.858-3.97-8.858-8.86 0-4.9 3.966-8.87 8.858-8.87 4.895 0 8.855 3.97 8.855 8.87"/><path d="m93.34 190.91v2.55l3.405-1.27v7.88l6.933-2.51v-10.42z"/></g></svg>