<svg xmlns="http://www.w3.org/2000/svg" height="114.76" width="600" viewBox="0 0 158.74999 30.362779" xmlns:xlink="http://www.w3.org/1999/xlink"><g transform="translate(33.26-186.57)" fill="#adc30d"><path d="m108.08 210.91v-7.33h-8.458v7.33h-1.775v-15.56h1.775v6.76h8.458v-6.76h1.76v15.56z"/><path d="m117.3 196.71c-.87 0-1.91.05-2.53.07v12.59c.62.09 1.56.16 2.23.16 3.92 0 6.64-2 6.64-6.43 0-4.22-2.12-6.39-6.34-6.39m-.53 14.27c-1.57 0-2.69-.07-3.78-.07v-15.56c1.2 0 2.88-.07 4.5-.07 5.05 0 8 2.4 8 7.71 0 5.34-3.63 7.99-8.72 7.99"/><path d="m29.16 195.46h-4.045v21.09l4.04-2.05z" id="0"/><path d="m40.3 210.88h4.01v-9.06h-4.01z" id="1"/><path d="m44.31 189.42l-4.01 2.04v9.21h4.01z" id="2"/><path d="m60 195.46h-4.02l-.008 5.21h4.03z" id="3"/><path d="m50.733 195.46h-4.084v5.21h4.084z" id="4"/><path d="m55.97 201.82v9.07h4.03v-9.07z" id="5"/><path d="m53.22 207.39c-2.689-.03-2.486-3.37-2.486-3.37v-2.2h-4.084v2.63c0 5.81 3.356 6.78 5.807 6.78.991 0 1.84-.29 2.456-.59v-3.71c-.401.27-.944.46-1.693.46" id="6"/><path d="m70.41 198.96c.457.12 1.443.52 2.15.87l1.339-3.26s-1.934-.9-2.929-1.12c-.818-.19-1.663-.29-2.477-.32v3.5c.883.05 1.504.23 1.917.33" id="7"/><path d="m66.24 207.56c-1.56-.28-3.296-1.22-3.296-1.22l-1.37 3.12s.758.44 1.702.84c.633.28 1.335.52 1.994.64.633.12 1.344.22 2.081.26v-3.48c-.47-.04-.879-.11-1.111-.16" id="8"/><path d="m74.18 205.06c-.603-1.91-2.288-2.77-4.907-3.64-.706-.24-1.956-.72-2.464-.9-.633-.22-.943-.74-.844-1.09.176-.66.861-.77 1.37-.81h.013v-3.49c-.599.03-1.155.1-1.646.21-1.336.32-3.106 1.19-3.58 3.04-.207.82-.211 2.67.185 3.34.478.81 1.426 1.8 3.128 2.44.758.28 2.511.88 3.713 1.22.745.21 1.426.77 1.129 1.59-.203.58-.965.76-1.788.79v3.47c.974-.02 1.96-.16 2.873-.5 1.797-.68 2.533-1.96 2.818-2.9.164-.53.25-1.98 0-2.77" id="9"/><path d="m21.797 189.42h-1.973v11.25h1.973z" id="A"/><path d="m19.824 216.93h1.973v-15.13h-1.973z" id="B"/><path d="m13.03 198.93c.457.11 1.443.52 2.15.87l1.339-3.26s-1.934-.9-2.929-1.12c-.819-.19-1.667-.29-2.486-.33v3.51c.888.05 1.512.23 1.926.33" id="C"/><path d="m8.858 207.53c-1.559-.28-3.296-1.22-3.296-1.22l-1.37 3.12s.758.44 1.702.84c.633.27 1.335.52 1.995.64.633.12 1.34.21 2.076.26v-3.48c-.47-.05-.874-.11-1.107-.16" id="D"/><path d="m16.805 205.03c-.607-1.91-2.283-2.78-4.907-3.65-.711-.23-1.96-.71-2.464-.89-.633-.22-.943-.74-.849-1.1.181-.65.866-.76 1.374-.79h.004v-3.51c-.595.03-1.15.1-1.641.22-1.331.31-3.106 1.19-3.575 3.04-.211.82-.211 2.66.185 3.34.478.81 1.426 1.8 3.127 2.43.758.29 2.511.89 3.713 1.23.746.22 1.426.77 1.129 1.6-.202.56-.969.75-1.796.78v3.47c.977-.02 1.968-.16 2.882-.51 1.796-.67 2.528-1.95 2.817-2.89.164-.53.25-1.98 0-2.77" id="E"/><path d="m-10.607 201.82v9.07h4.02v-9.07z" id="F"/><path d="m-17.12 210.89h4.02v-9.07h-4.02z" id="G"/><path d="m-15.11 190.16c-1.108 0-2.01.9-2.01 2.01s.9 2.01 2.01 2.01c1.107 0 2.01-.9 2.01-2.01s-.9-2.01-2.01-2.01" id="H"/><path d="m-19.747 209.07l-1.74-2.4c-.965.74-2.01 1.23-3.567 1.26v3.25c2.068 0 4.097-.93 5.307-2.11" id="I"/><path d="m-29.05 201.81s0-.17.013-.36c0-1.11 1.133-2.74 2.835-3.05v-3.2c-4.855.36-7.07 4.45-7.07 8.16 0 4.45 2.559 7.35 7.07 7.77v-3.29c-1.685-.31-2.805-1.43-2.805-3.12h9.809c.065-.35.16-1.07.16-1.89 0-.34-.013-.68-.039-1.02z" id="J"/><path d="m-6.59 195.46h-4.02v5.21h4.02z" id="K"/><path d="m-13.1 195.46h-4.01v5.21h4.02z" id="L"/><path d="m-25.05 195.2v3.2c1.331.25 1.922 1.31 2.115 2.27h3.718c-.508-2.86-2.149-5.29-5.833-5.47" id="M"/><path d="m-3.059 195.15c-.948 0-1.771.26-2.382.55v3.71c.396-.25.918-.41 1.62-.42 1.434 0 2.055.84 2.318 1.68h4.183c-.457-4.68-3.481-5.52-5.738-5.52" id="N"/><path d="m-1.322 201.82c.009 1.09-.017 1.83-.017 1.83v7.24h4.088v-8.69c0-.13-.004-.25-.004-.38z" id="O"/><use xlink:href="#0"/><use xlink:href="#1"/><use xlink:href="#2"/><use xlink:href="#3"/><use xlink:href="#4"/><use xlink:href="#5"/><use xlink:href="#6"/><use xlink:href="#7"/><use xlink:href="#8"/><use xlink:href="#9"/><use xlink:href="#A"/><use xlink:href="#B"/><use xlink:href="#C"/><use xlink:href="#D"/><use xlink:href="#E"/><use xlink:href="#F"/><use xlink:href="#G"/><use xlink:href="#H"/><use xlink:href="#I"/><use xlink:href="#J"/><use xlink:href="#K"/><use xlink:href="#L"/><use xlink:href="#M"/><use xlink:href="#N"/><use xlink:href="#O"/><path d="m37.935 199.69c-.168-.66-.633-2.5-2.627-3.81-1.435-.95-3.369-.87-4.222-.61-.271.08-.543.22-.793.36v3.62c.358-.18.789-.31 1.301-.3.87.001 1.736.45 2.137 1.37.362.84.56 1.89.56 2.88 0 1.47-.233 2.84-.909 3.55-.547.58-1.12.66-1.646.68-.585-.02-1.059-.18-1.443-.37v3.71c.229.11.487.21.78.28 1.344.34 2.796.13 3.817-.36.823-.39 1.671-1.1 2.408-2.36.659-1.13.926-2.68 1.029-3.86.13-1.44.1-2.85-.392-4.78"/><path d="m86.1 186.57c-4.639 0-8.4 3.76-8.4 8.4s3.761 8.4 8.4 8.4c4.64 0 8.401-3.76 8.401-8.4s-3.761-8.4-8.401-8.4m7.13 8.46c0 3.94-3.192 7.13-7.13 7.13-3.937 0-7.129-3.19-7.129-7.13s3.192-7.13 7.129-7.13c3.938 0 7.13 3.19 7.13 7.13"/><path d="m81.1 193.03v2.05l2.74-1.03v6.35l5.583-2.02v-8.39z"/></g></svg>