<svg xmlns="http://www.w3.org/2000/svg" height="229.56" width="600" viewBox="0 0 158.75 60.737338"><defs><linearGradient id="0" gradientUnits="userSpaceOnUse" gradientTransform="matrix(84.03 0 0-63.701 71.1 456.68)" x1="0" x2="1"><stop stop-color="#f57e20"/><stop stop-color="#ef4623" offset="1"/></linearGradient><linearGradient id="1" gradientUnits="userSpaceOnUse" gradientTransform="matrix(88.196 0 0-60.159-7.534 455.57)" x1="0" x2="1"><stop stop-color="#3168b2"/><stop stop-color="#2b4187" offset="1"/></linearGradient></defs><g transform="translate(4.536-395.26)"><path d="m90.03 449.6c-.733-1.31-1.513-2.67-2.246-3.99-.417-.72-.8-1.41-1.197-2.11l-20.15 6.92-.793.26h-.027c-.094.06-.175.07-.256.08-.228.09-.464.17-.685.22-.256.06-.491.13-.747.17-.229.06-.464.08-.713.11-.222.04-.47.07-.712.09-.236.02-.471.03-.7.03-.262.03-.491.03-.733 0-.235 0-.477-.001-.719-.03-.236-.02-.471-.05-.72-.1-.228-.02-.464-.04-.699-.1-1.022-.19-1.916-.39-2.744-.54-1.062-.23-1.963-.38-2.743-.55l-.323-.05c-1.17-.26-2.031-.41-2.669-.53-.357-.07-.646-.11-.868-.16-.222-.04-.41-.09-.531-.12-.269-.03-.383-.07-.437-.07l-.02-.02c-.236-.04-.424-.07-.619-.13-.215-.06-.417-.09-.592-.17-.208-.07-.383-.13-.591-.22-.182-.07-.364-.14-.559-.23-.201-.07-.369-.17-.544-.26-.182-.09-.37-.18-.545-.28-.181-.11-.35-.23-.524-.32-.168-.11-.35-.24-.518-.36-.121-.06-.215-.16-.343-.27-.114-.08-.249-.17-.343-.26-.114-.08-.222-.19-.329-.28-.115-.08-.236-.19-.357-.28l-4.229.91v.02h-.021c-.08 0-.148 0-.222.02s-.147.02-.221.07h-.243c-.067.001-.147.001-.215.001h-.222c-.06 0-.148-.001-.201-.001-.081 0-.148 0-.216-.05-.073 0-.147-.02-.208-.04v.02c-.155-.02-.309-.08-.437-.13-.168-.04-.296-.08-.451-.17-.121-.04-.262-.11-.39-.2-.154-.08-.282-.16-.403-.25-.141-.11-.242-.18-.37-.32-.134-.09-.276-.21-.403-.32-.121-.14-.256-.24-.363-.39-.115-.13-.243-.28-.364-.43l-.49-.63-.491-.71-6.113 1.04-.053.02c-.095.02-.209.02-.31.02h-.02c-.141.03-.289.03-.43.03-.155 0-.296-.03-.437-.05l-.525-.09c-.175-.03-.336-.08-.484-.12-.148-.07-.309-.14-.451-.22-.121-.06-.289-.14-.43-.24-.121-.1-.262-.19-.383-.3-.141-.11-.262-.24-.397-.38-.114-.1-.242-.25-.35-.39-.114-.15-.242-.28-.336-.47-.033-.04-.094-.13-.141-.2l-4.304.61c-.04.001-.121.03-.168.06h-.639c-.221 0-.423-.03-.659-.06l-7.168-1.4c-.101-.04-.209-.06-.296-.11-.121-.02-.202-.09-.309-.11-.094-.08-.195-.12-.282-.21-.094-.07-.195-.1-.269-.21-.074-.05-.168-.16-.242-.24-.087-.07-.168-.18-.255-.3-.074-.11-.128-.21-.229-.34l-.013-.04c-.572.09-1.13.17-1.688.22-.558.07-1.116.13-1.668.21h-.262c-.087 0-.188 0-.256-.001l-3.658-.73c-.067-.02-.134-.04-.202-.08-.101-.001-.148-.02-.222-.05-.067-.05-.148-.07-.215-.11-.067-.02-.114-.09-.195-.12-.06-.07-.128-.09-.188-.14-.067-.04-.135-.11-.202-.15-.06-.08-.114-.13-.175-.19-.047-.07-.121-.13-.188-.22-.054-.05-.101-.13-.148-.21-.067-.06-.114-.13-.182-.22-.054-.08-.108-.14-.148-.23-.054-.1-.114-.19-.148-.28-.054-.06-.121-.16-.148-.26-.054-.09-.101-.18-.121-.28-.067-.08-.107-.19-.141-.26-.047-.11-.101-.21-.141-.32-.074-.19-.155-.37-.202-.56l-.04-.08c-.034-.1-.074-.22-.108-.34-.034-.09-.061-.24-.094-.33-.034-.14-.067-.22-.081-.36-.061-.12-.074-.24-.108-.36-.02-.12-.047-.23-.087-.38-.027-.13-.04-.24-.054-.38-.04-.12-.074-.26-.094-.39s-.02-.27-.047-.41c-.02-.12-.054-.27-.054-.41-.02-.14-.04-.27-.061-.43 0-.14-.007-.27-.007-.4-.027-.14-.04-.28-.047-.42 0-.15 0-.3-.02-.43v-.42l-.02-10.51c0-.15.007-.3.007-.45 0-.14.007-.31.007-.45 0-.13.007-.29.027-.43 0-.13.02-.27.02-.43.027-.12.034-.28.054-.43.02-.14.04-.28.074-.42.013-.14.04-.27.047-.4.02-.13.04-.27.087-.41.027-.12.04-.25.067-.37.027-.11.061-.25.087-.34.013-.13.047-.26.081-.38.04-.09.067-.23.101-.33.034-.11.081-.21.101-.34.04-.09.067-.22.108-.32.054-.09.101-.2.128-.31.034-.08.081-.2.128-.3.04-.1.081-.21.141-.31.02-.1.067-.2.141-.29.02-.1.081-.19.141-.26.034-.1.087-.19.148-.28.04-.08.101-.17.148-.25.074-.09.108-.15.168-.23.054-.11.121-.16.175-.24.047-.07.108-.12.168-.19s.135-.14.195-.2c.054-.05.114-.13.181-.18.067-.06.135-.1.188-.15.074-.06.121-.08.208-.12.054-.07.114-.09.188-.13.06-.03.128-.04.202-.09.047-.04.121-.06.188-.08.081-.02.148-.05.215-.06l3.382-.74c.094-.02.175-.02.242-.04.067 0 .168 0 .229-.03.081 0 .155 0 .229.03h.108.034l4.398.47c.013-.04.067-.08.108-.15.06-.09.128-.2.215-.28.074-.08.155-.2.215-.27.081-.09.168-.21.262-.29.101-.11.202-.18.296-.26.074-.08.188-.17.276-.25.101-.07.202-.15.303-.2.094-.08.195-.12.289-.17.121-.08.235-.11.336-.16.094-.02.215-.08.316-.12.114-.04.228-.07.336-.11l5.971-1.31c.128 0 .222-.02.343-.04s.256-.02.377 0c.047.02.101.02.134.04v-.02l3.894.57.013-.04c.114-.17.235-.33.336-.48.121-.15.236-.29.363-.42.121-.15.236-.25.37-.36.135-.13.262-.22.39-.32.155-.11.283-.18.437-.26.142-.08.283-.15.437-.17.155-.09.296-.12.458-.16.1-.001.168-.02.242-.06h.08c.021-.02.061-.02.081-.04.034-.001.047-.001.047-.001h.101c.135-.03.296-.06.451-.07.147 0 .289 0 .423.001.101 0 .182 0 .289.04l5.877 1.03.444-.7.168-.21c.115-.2.242-.38.363-.55.135-.16.256-.33.39-.48.148-.15.296-.32.431-.46.148-.11.296-.23.444-.35.147-.12.316-.24.464-.34.181-.1.349-.17.497-.27.175-.11.35-.13.518-.21.168-.07.343-.09.524-.16.222-.06.424-.07.646-.07.202-.03.403-.02.605.001.155 0 .316.001.471.06l5.164 1.14.02-.02c.081-.12.148-.24.242-.35.135-.2.303-.4.464-.57.155-.2.323-.39.491-.55.168-.15.363-.32.545-.49.168-.13.363-.27.571-.42.175-.11.364-.25.559-.37.215-.13.43-.2.632-.31.195-.1.41-.18.618-.25.222-.07.437-.14.666-.18l11.01-2.42c.249-.08.498-.11.76-.15.236-.05.484-.07.726-.09.276-.05.498-.05.76-.05.256-.001.498-.001.747 0 .242 0 .477 0 .712.05.269.02.491.04.72.09.242.05.484.08.719.15.236.04.464.12.72.19.195.06.39.12.605.2l4.996 1.79 4.996 1.76c.135-.22.269-.44.411-.66.847-1.23 1.936-2.32 3.227-3.18 1.312-.88 2.764-1.52 4.264-1.89.625-.15 1.244-.25 1.876-.29.659-.05 1.324-.05 1.997 0l26.22 1.67c.63.07 1.26.11 1.87.19.61.09 1.24.24 1.84.43.57.2 1.11.46 1.65.75.53.31 1.03.65 1.49 1.03.44.38.85.78 1.24 1.21.4.43.76.89 1.1 1.4.33.45.64.93.93 1.46.29.52.55 1.06.79 1.6l.48 1.08c2.65-1.08 5.74-2.37 8.86-3.69l6.79-2.81c.36-.16.77-.29 1.13-.4.59-.14 1.18-.21 1.77-.26.75-.02 1.46.03 2.16.17 2.36.49 4.46 1.99 5.99 3.97 1.52 1.98 2.48 4.47 2.63 6.96.04.9-.02 1.8-.2 2.69-.19.88-.53 1.67-.91 2.49l-.1.24-13.55 30.59-.09.19c-.43.98-.83 1.91-1.43 2.8-.41.61-.87 1.2-1.35 1.7-.49.52-1 1-1.56 1.39-.74.57-1.52 1-2.38 1.31-.84.31-1.74.53-2.67.59-1.05.13-2.09.11-3.08-.11-.88-.19-1.7-.51-2.49-.95l-6.09-3.45c-2.14-1.19-4.19-2.37-6.08-3.42-.02.09-.04.18-.06.26-.26 1.32-.76 2.6-1.46 3.78-.67 1.09-1.52 2.13-2.52 2.89-1.07.91-2.27 1.58-3.57 2.04-1.38.53-2.85.79-4.31.89-1.893.12-3.675-.26-5.242-1.07-1.641-.87-3.06-2.14-4.129-3.76-.356-.52-.652-1.03-.901-1.55"/><path d="m60.51 397.17c-.491.02-.988.11-1.493.21l-11.01 2.44c-.444.1-.874.25-1.278.42-.423.17-.827.42-1.197.68-.383.28-.739.58-1.089.91-.35.35-.659.72-.975 1.15-.161.19-.309.44-.464.67-.141.24-.269.51-.39.76-.141.23-.262.51-.356.78-.115.26-.189.52-.303.81-.034-.1-.081-.21-.141-.29-.027-.1-.094-.2-.141-.26-.074-.11-.108-.2-.195-.29-.048-.09-.108-.18-.182-.27l-.155-.25-.262-.36c-.309-.45-.659-.82-1-1.12-.35-.31-.733-.54-1.116-.73-.377-.17-.794-.27-1.204-.33-.39-.02-.82 0-1.257.1-.343.06-.679.21-1.029.35-.309.16-.646.36-.962.61-.295.23-.578.49-.854.82-.269.3-.531.64-.766 1.01l-.162.23-.591.89-1.937 2.92c-.027.03-.06.08-.081.13-.053.03-.06.08-.1.13-.014.03-.048.06-.081.1-.034.06-.061.1-.074.16-.061-.35-.135-.64-.242-.99-.081-.3-.182-.59-.303-.86-.114-.28-.255-.56-.383-.79-.155-.25-.316-.48-.484-.69-.229-.3-.451-.53-.72-.71-.269-.2-.517-.35-.793-.47-.276-.11-.538-.17-.847-.18-.276-.04-.572-.03-.875.03 0 0-.013.02-.074.03 0 0-.053.001-.154.03-.061.03-.175.04-.323.08-.289.07-.598.16-.874.31-.289.14-.552.35-.814.57-.255.21-.504.48-.739.79-.209.31-.444.63-.633 1-.094.15-.168.31-.262.49-.074.17-.128.33-.215.49-.06.19-.121.36-.175.56-.06.2-.121.35-.161.54-.074-.19-.148-.4-.215-.59-.061-.2-.168-.38-.236-.55-.094-.19-.201-.36-.302-.49-.094-.18-.222-.3-.316-.43-.189-.24-.384-.41-.579-.58-.201-.13-.417-.26-.645-.35-.215-.09-.437-.13-.659-.13-.242-.02-.484 0-.713.03l-5.978 1.31c-.222.05-.43.12-.645.21-.216.09-.431.2-.626.33s-.39.28-.578.45c-.195.17-.377.36-.545.56-.148.17-.289.34-.417.55-.161.19-.303.39-.444.59-.114.22-.242.44-.356.66-.101.23-.208.46-.336.7-.013.07-.047.15-.094.2-.02.09-.04.14-.074.23-.02.06-.054.13-.081.18-.013.09-.047.15-.081.24-.027-.11-.087-.23-.121-.33-.04-.06-.094-.16-.148-.25-.034-.08-.087-.2-.134-.27-.04-.09-.088-.17-.141-.24-.121-.19-.229-.36-.363-.54-.121-.18-.235-.3-.377-.47-.135-.15-.262-.26-.397-.38-.141-.1-.303-.19-.437-.29-.148-.1-.282-.15-.43-.22-.141-.04-.303-.09-.464-.12-.128-.001-.282-.03-.43-.03-.155.02-.289.02-.457.06l-3.409.73c-.134.05-.262.09-.383.14-.148.06-.269.13-.397.22-.128.07-.256.18-.39.3-.121.09-.242.24-.356.35-.128.12-.235.27-.35.43-.101.13-.222.31-.323.49-.121.16-.208.33-.296.53-.101.18-.188.38-.276.58-.101.23-.161.42-.249.63-.067.22-.135.44-.208.65-.081.24-.135.45-.195.71-.061.23-.101.46-.155.72-.061.27-.094.54-.128.8-.054.28-.101.57-.108.85-.04.3-.047.57-.074.86v.9l.027 10.51c0 .28 0 .56.02.84 0 .29.034.56.054.82.027.3.054.58.101.85.02.28.061.54.141.81.04.24.101.52.135.75.067.24.141.51.188.69.067.27.134.47.202.7.087.22.168.41.256.63.081.2.168.4.269.59.067.2.175.38.282.54.087.18.202.34.289.5.114.17.222.31.323.43.141.15.249.25.363.38.135.13.269.24.39.33.128.09.262.15.403.2.128.06.282.12.424.14l3.671.71c.168.05.316.05.477.03.168-.03.329-.11.491-.19.148-.08.303-.22.457-.36.128-.14.276-.31.397-.51.155-.24.262-.5.39-.76.094-.29.188-.62.276-.93.074-.36.135-.72.175-1.11.047-.37.061-.76.061-1.2v.14c.013.36.047.75.081 1.15.04.39.108.77.188 1.09.074.37.175.7.282 1.04.128.32.262.62.417.92.155.26.289.48.424.69.168.19.323.38.504.54.161.14.343.27.538.37.188.11.397.21.605.23l7.162 1.41c.45.08.874.09 1.291.04.43-.04.827-.18 1.21-.35.397-.22.773-.48 1.116-.82.35-.37.673-.76 1.016-1.27 0-.02.02-.04.047-.08.013-.02.027-.07.027-.07.047-.05.06-.09.087-.14 0-.02.04-.04.047-.07.047.16.101.34.148.46.067.2.121.33.188.5.068.16.142.3.195.47.094.14.162.3.236.43.208.36.417.72.652.98.242.28.491.54.746.77.256.21.532.41.827.55.283.14.585.26.901.31l.545.12c.276.04.552.05.861.03.282-.03.565-.1.834-.23.289-.11.551-.25.807-.48.235-.2.49-.45.712-.72.175-.24.337-.49.491-.74.162-.28.283-.57.404-.88.121-.29.215-.61.322-.93.068-.32.142-.67.189-1.04l3.254 4.63.491.65c.222.27.478.57.72.78.248.26.524.47.753.67.269.18.531.32.813.45.263.11.559.22.868.28.134.001.269.03.417.05.141.04.275.04.423.04.162 0 .303 0 .471-.06.128-.02.289-.03.437-.08.182-.04.33-.09.498-.14.161-.06.323-.13.497-.22.162-.11.33-.19.478-.32.154-.11.336-.25.497-.41 0 0 .081-.06.142-.12.08-.06.141-.15.242-.25.101-.08.188-.18.282-.24.067-.07.128-.13.148-.16.013-.02.047-.06.061-.07.02-.02.053-.05.094-.08.006-.03.027-.06.054-.1 0 0 .047-.02.073-.07.195.23.397.44.585.66.216.22.417.43.633.61.208.22.43.38.659.58.228.19.464.37.699.53.336.27.679.45 1.029.65.363.2.712.4 1.082.57.377.16.774.32 1.15.44.383.12.794.25 1.211.32.047 0 .188.03.464.08.255.04.699.16 1.398.27.679.14 1.648.34 2.986.61 1.358.25 3.153.6 5.487 1.05.477.1.955.16 1.419.21.484.04.961.06 1.452.04.464 0 .941-.04 1.419-.13.471-.04.955-.14 1.419-.27.491-.13.955-.29 1.405-.46.464-.15.894-.38 1.338-.63.431-.21.854-.47 1.244-.74.424-.3.821-.6 1.204-.95.383-.33.733-.66 1.069-1.05.343-.35.672-.76.982-1.19.309-.39.605-.84.874-1.28.282-.47.518-.95.76-1.44.276-.53.497-1.12.692-1.68.195-.58.35-1.18.498-1.8.128-.61.208-1.23.282-1.88.061-.62.074-1.3.068-1.94l-.162-23.36c0-.61-.04-1.22-.107-1.84-.061-.62-.148-1.21-.276-1.82s-.282-1.19-.477-1.73c-.162-.59-.397-1.11-.633-1.67-.215-.52-.457-.99-.732-1.46-.263-.46-.552-.92-.834-1.34-.323-.45-.639-.85-.955-1.25-.363-.36-.686-.72-1.083-1.06-.356-.33-.746-.66-1.143-.93-.383-.29-.793-.55-1.204-.78-.41-.25-.833-.45-1.257-.63-.424-.2-.874-.35-1.311-.48-.484-.14-.955-.24-1.432-.33-.464-.08-.955-.12-1.46-.16-.47 0-.988 0-1.479.08" fill="url(#1)"/><g fill="#fff"><path d="m6.01 418.38v.34l.027 4.75v.13c0 .04 0 .08-.013.14v.39s-.013.001-.013.02v.27c-.027.04-.027.08-.027.08-.013.19-.054.41-.074.6-.034.19-.081.35-.128.53-.054.14-.101.31-.148.45-.074.12-.128.25-.215.37-.094.14-.188.28-.282.39-.094.1-.195.2-.296.28-.114.07-.229.13-.35.17-.101.03-.215.04-.336.04l-5.151-.12c0 .27.013.55.013.86v2.01c0 .04 0 .06.007.08 0 .11.007.21.02.32.007.08.034.2.034.26.027.12.054.18.074.27.027.06.047.13.074.2.034.08.074.15.121.23.054.05.108.09.168.16.04.02.114.06.182.08.087.02.155.05.242.05l3.03.25c.081.02.161.02.215.07.108.04.155.08.215.11.074.08.135.14.195.23.054.06.128.15.182.26.047.12.108.23.148.36.04.13.074.26.128.41.02.13.04.3.061.46.007.14.02.31.02.49v.5c0 .19 0 .37-.02.51 0 .17-.04.31-.047.44-.054.16-.074.27-.121.39-.04.11-.114.22-.155.3-.061.12-.121.18-.175.24-.081.07-.141.13-.188.15-.074.06-.134.08-.222.09-.061.001-.148.001-.215 0l-3.645-.56c-.087 0-.188-.02-.289-.08-.061-.03-.161-.07-.256-.11-.067-.05-.148-.12-.242-.18-.074-.08-.161-.17-.215-.26-.087-.08-.161-.17-.222-.26-.087-.12-.155-.22-.209-.35-.087-.09-.148-.22-.208-.35-.061-.13-.121-.26-.175-.41-.074-.14-.114-.28-.168-.45-.047-.11-.094-.26-.155-.43-.034-.14-.081-.32-.114-.5-.054-.16-.074-.34-.101-.51-.054-.17-.081-.38-.114-.54 0-.2-.027-.38-.067-.56-.007-.21-.034-.37-.034-.56-.007-.19-.02-.38-.02-.6l-.02-10.69c0-.2.007-.39.007-.59.013-.2.013-.39.034-.58.027-.17.034-.35.094-.55.007-.18.027-.35.067-.51.054-.17.081-.33.114-.51.04-.15.094-.32.128-.47.061-.15.108-.32.141-.45.067-.12.121-.28.188-.4.047-.14.114-.27.175-.41.061-.12.114-.25.202-.36.074-.1.148-.2.235-.31.06-.1.148-.19.222-.3.094-.06.161-.14.262-.22.087-.06.161-.11.242-.19.087-.02.182-.08.262-.11.094-.03.182-.07.282-.07l3.389-.62c.101 0 .235-.02.303-.02.114 0 .229.02.316.04.094.02.195.05.289.09.101.04.195.1.276.17.108.04.229.11.289.19.108.09.195.17.289.28.074.07.141.19.242.3.094.13.161.24.229.36.074.14.148.28.222.41.067.15.135.3.188.46.074.17.114.34.181.49.047.17.081.34.128.56.027.02.027.04.027.06.013.04.02.07.027.1 0 .03 0 .05.02.08 0 .02.013.07.013.1.007.05.013.13.04.18 0 .06.02.13.02.19.027.06.027.12.034.19.007.06.02.12.02.2v.05c.013.001.013.03.013.03v.02c0 .04 0 .05.007.11v.06c.02.02.02.03.02.03v.1c0 .03.007.06.007.08s.007.05.007.07v.07c0 .04 0 .06.027.08v.25zm-4.209 4.18l1.506-.07v-2.92l-.013-.06v-.04c0-.1 0-.21-.007-.33 0-.1-.04-.19-.054-.29-.027-.07-.054-.17-.074-.24-.02-.09-.081-.17-.108-.24-.04-.05-.067-.12-.114-.19-.061-.06-.081-.08-.121-.13-.067-.02-.087-.06-.161-.06-.04-.04-.087-.04-.148-.04l-2.838.33c-.047.001-.101.02-.141.04-.034.03-.074.05-.128.08-.04.06-.081.11-.114.15-.034.06-.087.16-.108.23-.027.07-.074.16-.101.24-.027.07-.034.16-.054.24-.007.09-.02.19-.027.29 0 .08-.007.16-.007.31l.007 2.84z"/><path d="m18.77 423.34c.188.26.369.54.511.89.148.31.275.7.39 1.11.074.38.161.82.222 1.25.04.47.073.99.087 1.5v3.97c0 .59-.014 1.14-.067 1.66-.054.49-.101.98-.222 1.4-.094.46-.209.87-.336 1.24-.142.37-.31.72-.505 1.05-.188.31-.383.57-.605.78-.222.22-.464.41-.693.54-.262.13-.497.22-.793.26-.256.02-.538.02-.827 0l-7.188-1.12c-.087 0-.175-.04-.262-.06-.081-.07-.161-.09-.235-.17-.081-.06-.161-.14-.229-.22-.061-.11-.135-.21-.195-.3-.061-.13-.128-.26-.168-.41-.054-.14-.101-.28-.108-.43-.047-.15-.087-.29-.094-.47-.02-.16-.02-.35-.02-.52l-.007-.55c0-.18.007-.35.027-.51.007-.16.034-.33.074-.47.027-.13.074-.27.121-.4.027-.11.107-.22.148-.32.087-.12.141-.22.215-.26.06-.07.141-.13.208-.17.081-.07.155-.08.249-.09.087-.06.168-.06.242-.06l6.758.59h.074c.034 0 .067 0 .081-.001 0 0 .047-.02.06-.03.04-.02.047-.03.054-.05.027-.04.054-.07.087-.1.014-.05.041-.06.061-.09.007-.06.047-.08.047-.15.013-.03.034-.08.054-.1.02-.07.053-.13.067-.16.007-.06.013-.12.02-.18 0-.05.027-.12.027-.18 0-.05.027-.11.027-.17.02-.08.02-.15.04-.21 0-.06.014-.13.014-.18v-2.73c0-.04 0-.07-.014-.12 0-.05-.02-.09-.02-.16 0-.02 0-.07-.02-.1 0-.07-.027-.09-.027-.12 0-.02-.027-.07-.027-.08 0-.04-.007-.06-.013-.11-.007-.03-.021-.05-.054-.08-.007-.03-.02-.04-.04-.11 0 0-.034-.03-.034-.06-.014-.001-.04-.001-.061-.06-.006-.001-.033-.03-.047-.05 0 0-.033-.02-.033-.05-.027 0-.061-.001-.074-.02 0 0-.068-.001-.121-.02-.034-.02-.081-.02-.135-.02l-4.868-.1c-.108 0-.236 0-.33-.04-.08-.001-.195-.07-.289-.08-.101-.04-.195-.1-.309-.14-.087-.07-.188-.15-.269-.22-.108-.09-.215-.17-.296-.25-.081-.11-.182-.2-.255-.29-.094-.12-.161-.23-.255-.33-.067-.12-.141-.25-.229-.38-.06-.13-.114-.26-.168-.38-.06-.12-.121-.27-.175-.41-.061-.14-.101-.3-.148-.43-.074-.17-.108-.33-.135-.49-.013-.03-.04-.04-.04-.05v-.06s-.02-.02-.02-.06c0 0-.007-.001-.007-.02-.04-.22-.087-.41-.114-.59-.027-.19-.067-.41-.094-.58-.027-.21-.027-.41-.034-.64-.013-.22-.02-.43-.02-.63l-.027-3.08v-.1s0-.04.027-.06v-.33c0-.04.007-.04.007-.09v-.14c.013 0 .013-.02.013-.06 0-.001 0-.02.007-.05v-.18s.02-.05.02-.08v-.02c0-.04 0-.08.007-.09v-.06c0-.001.02-.04.02-.1.007 0 .007-.02.007-.03.013-.001.013-.06.013-.08.02-.03.02-.04.027-.06v-.09c.02-.001.02-.02.02-.05v-.06c.007-.04.007-.06.007-.06 0-.03 0-.03.027-.05v-.09c0-.04 0-.04.02-.06v-.04s0-.04.013-.04c.04-.19.061-.37.121-.56.054-.18.101-.35.155-.55.061-.16.128-.34.182-.49.06-.19.121-.35.208-.5.074-.16.134-.31.229-.47.081-.16.175-.31.269-.44.074-.16.168-.28.262-.41.121-.16.229-.28.336-.4.101-.12.222-.23.343-.33.134-.09.256-.21.383-.28.141-.07.289-.15.424-.18.141-.06.295-.1.443-.14l5.972-1.06h.322c.108 0 .195.04.289.07.108.04.195.11.276.15.088.09.168.17.256.27.087.11.168.24.235.38.061.15.121.29.168.45.054.15.094.34.114.51.014.21.034.39.041.61v.64c0 .2-.027.4-.041.59-.02.19-.053.38-.094.57-.04.17-.114.32-.175.49-.067.15-.147.3-.235.43-.074.13-.161.23-.242.34-.087.09-.182.15-.289.25-.081.04-.175.1-.276.14-.087.05-.181.06-.289.07l-5.527.6c-.094.04-.182.05-.249.06-.094.03-.161.06-.235.11-.061.04-.122.09-.182.15-.061.07-.114.13-.141.21-.014.05-.047.11-.074.17-.034.09-.067.16-.074.22-.02.13-.034.21-.054.35-.02.12-.034.27-.034.43l.014 1.95c0 .07.007.17.02.23.02.09.034.19.054.27.007.08.027.19.074.26.027.09.074.17.101.27.033.03.053.07.087.13.027.05.074.1.108.16.067.06.134.09.222.13.08.04.188.05.316.05l4.868-.24c.229 0 .464.03.679.1.229.04.417.13.652.25.182.12.384.25.585.46.182.19.39.4.559.64"/><path d="m39.14 436.19c.054.06.061.11.114.17.034.06.068.13.108.2.047.11.067.16.101.26.047.08.087.18.114.29.034.1.081.22.101.33.04.14.061.26.081.39.013.12.027.25.054.38v.77c0 .03 0 .11-.027.16 0 .06-.014.12-.021.17l-.013.14c0 .02-.013.04-.013.04-.014.03-.014.05-.014.08l-.007.04c0 .02-.033.06-.033.08 0 .03-.007.05-.007.06s-.02.04-.02.04v.07c-.014 0-.014.02-.014.03v.03l-.026.03-.007.02h-.007l-.034.13s-.02.02-.02.06c0 .001 0 .02-.02.02 0 .001-.02.05-.02.07-.013.02-.027.02-.027.02-.229.73-1.183 1.84-2.031 2.07-.06.02-.141.04-.201.04-.074 0-.121 0-.195.02h-.182c-.074-.02-.134-.02-.215-.02-.094 0-.188-.04-.289-.1-.094-.02-.209-.09-.303-.17-.087-.07-.195-.14-.296-.26-.101-.1-.195-.22-.302-.36-.027-.03-.074-.04-.081-.09-.027-.03-.047-.05-.081-.09-.027 0-.04-.05-.06-.06-.047-.05-.067-.07-.108-.12l-8.02-11v2.45c.014.41.014.83.014 1.23 0 .42.02.81.02 1.16v2.61c0 .22 0 .46-.047.63-.021.24-.054.41-.108.58-.06.2-.114.38-.215.52-.04.16-.135.3-.249.43-.067.12-.195.23-.289.34-.108.1-.229.17-.336.21-.115.08-.229.08-.363.09-.115.04-.229.04-.37 0l-.558-.06c-.128-.03-.249-.07-.37-.13-.128-.03-.256-.11-.37-.22-.094-.08-.208-.21-.309-.3-.101-.13-.202-.27-.283-.41-.08-.16-.168-.34-.242-.51-.067-.15-.121-.35-.168-.54-.04-.17-.087-.36-.114-.57-.007-.2-.027-.38-.027-.59v-1.38c-.007-.41-.007-.93-.007-1.5 0-.56-.013-1.21-.013-1.91-.007-1.79-.027-3.93-.027-6.14-.007-2.19-.02-4.46-.02-6.48-.027-2.02-.041-3.83-.041-5.15-.013-1.3-.013-2.1-.013-2.1 0-.19.013-.4.054-.61.013-.2.047-.4.087-.58.047-.18.081-.37.168-.52.054-.19.121-.35.215-.49.094-.16.189-.31.289-.43.108-.12.216-.22.31-.31.121-.1.255-.18.37-.24.114-.06.242-.08.383-.12l.545-.11h.363c.114 0 .255.05.376.11.101.04.215.12.33.21.101.07.201.19.302.3.101.13.195.28.249.44.101.15.148.32.215.5.047.19.074.37.121.58.027.2.047.42.047.63v1.71l.027 3.69v1.87c.068-.08.141-.21.202-.3.087-.11.148-.2.235-.33.074-.1.168-.21.229-.34.087-.11.182-.22.249-.36.141-.19.275-.4.444-.62.148-.22.295-.44.443-.64.182-.24.316-.46.478-.68.168-.22.329-.47.497-.71.579-.86 1.177-1.71 1.749-2.53.585-.84 1.123-1.61 1.6-2.28.471-.69.901-1.31 1.177-1.7.269-.43.457-.68.457-.68.088-.14.188-.27.316-.41.128-.1.229-.22.35-.33.134-.06.262-.14.41-.2.121-.08.303-.12.43-.12.135-.04.283-.05.431-.04.134.04.296.04.464.1.168.08.329.2.517.33.169.16.337.34.505.58l.43.68c.108.11.188.26.262.43.068.14.142.3.202.47.054.16.081.33.121.5.027.17.034.35.047.54 0 .2-.02.43-.047.65-.033.21-.067.46-.141.71s-.182.51-.309.77c-.135.28-.303.53-.498.78l-8.331 11.21c.114.13.262.3.403.51.135.16.303.37.457.56.175.22.343.45.518.68.182.23.377.47.585.73.014.05.027.07.074.09.034.04.054.08.067.12 0 0 .034.06.088.1.02 0 .033.04.054.06.363.45.719.91 1.096 1.42.363.45.766.95 1.136 1.45.397.48.787.99 1.15 1.47.376.45.733.92 1.069 1.36.081.09.135.2.208.28.074.08.128.16.195.24.074.07.135.17.209.24.047.09.114.17.161.25.175.19.31.37.458.56.141.19.242.34.363.48.134.17.235.3.329.44.094.11.188.22.256.29.02.04.02.06.033.06.014.02.034.04.034.04.013.02.013.05.034.05 0 .001.026.02.026.04.021.04.041.06.061.06.027.04.034.05.034.05.04.03.04.06.04.06h.02"/><path d="m69.07 413.14l.168 22.4c0 .41-.026.81-.04 1.22-.054.4-.128.77-.195 1.15-.067.4-.161.75-.276 1.1-.127.35-.269.71-.403 1.05-.155.31-.316.63-.498.94-.154.31-.343.59-.538.87-.208.26-.396.54-.625.78-.208.26-.43.5-.679.72-.209.22-.484.43-.753.63-.262.2-.518.36-.78.54-.31.14-.585.28-.874.44-.283.11-.579.24-.895.33-.309.1-.639.17-.948.21-.309.06-.639.11-.948.14-.316.001-.632.001-.948 0-.316 0-.639-.03-.948-.09l-10.342-1.58c-.269-.05-.538-.09-.8-.19-.269-.06-.505-.15-.767-.25-.255-.11-.518-.21-.74-.35-.235-.13-.491-.27-.712-.43-.229-.13-.417-.28-.626-.43-.215-.17-.39-.32-.571-.5-.202-.19-.37-.37-.552-.53-.168-.22-.329-.43-.497-.62-.007-.03-.027-.03-.054-.06-.014-.02-.027-.05-.047-.07-.027-.03-.027-.04-.054-.07-.007-.02-.02-.04-.02-.07-.188-.24-.37-.47-.498-.71-.168-.27-.316-.53-.444-.79-.141-.26-.269-.55-.383-.81-.107-.28-.222-.58-.316-.86-.101-.29-.188-.58-.262-.9-.061-.3-.128-.59-.182-.91-.047-.32-.087-.62-.121-.93-.02-.34-.027-.66-.027-.98l-.02-1.4-.02-5.52c0-.49.02-.96.074-1.39.067-.43.134-.83.256-1.21.1-.35.255-.69.396-.99.168-.32.363-.58.572-.82.208-.23.437-.41.666-.62.201-.17.443-.31.692-.45.242-.09.498-.19.76-.27.269-.06.551-.12.827-.12l10.456-.49 4.701-.21c-.014-.48-.014-1.02-.014-1.55v-2.82c-.013-.33-.013-.52-.013-.55 0-.29-.014-.55-.054-.79s-.087-.46-.141-.67c-.068-.2-.148-.4-.236-.57-.1-.17-.208-.3-.349-.45-.115-.13-.242-.25-.404-.34-.161-.09-.356-.17-.558-.2-.181-.04-.417-.09-.659-.11-.235 0-.491 0-.753.04l-8.963.98h-.599c-.181-.02-.363-.07-.531-.14-.175-.05-.33-.12-.498-.23-.161-.09-.289-.22-.43-.34-.148-.17-.283-.31-.383-.5-.108-.17-.189-.36-.249-.58-.101-.22-.135-.47-.195-.69-.034-.24-.061-.49-.061-.75v-.84c0-.26.007-.53.061-.76.033-.25.081-.5.181-.74.047-.23.142-.43.242-.65.115-.24.236-.43.384-.6.141-.17.282-.33.423-.48.168-.14.31-.26.478-.38.195-.12.349-.17.551-.28.175-.06.383-.12.578-.16l11.01-1.95c.316-.04.646-.1.962-.1h.934c.31.02.592.07.888.13.309.05.605.16.908.22.275.13.565.25.847.38.276.13.525.26.8.45.289.15.531.33.774.5.235.23.504.43.732.66.216.23.444.47.659.73.222.26.431.54.599.83.222.27.397.58.545.89.188.32.349.63.47.99.155.32.276.71.41 1.05.115.37.182.74.269 1.1.088.4.142.79.169 1.16.053.41.053.82.053 1.21m-8.741 21.09l.007-.06v-.19l-.054-5.35-13.07-.28c.007.44.007.99.027 1.51v1.54c0 .48.007.9.007 1.21v.8c.013.14.027.3.061.44.02.13.08.29.107.43.047.13.121.26.195.39.061.13.141.24.235.38.095.11.209.24.33.35.101.11.188.18.323.24.127.09.242.15.383.17.121.06.256.09.417.09l8.6.74c.155.03.323.03.478 0 .168-.04.316-.08.437-.13.141-.07.276-.12.43-.23.121-.09.242-.19.377-.32.101-.13.195-.23.302-.37.061-.13.135-.25.189-.42.074-.11.107-.27.141-.43.027-.16.067-.33.074-.51"/></g><path d="m83.38 395.6c-2.918.72-5.756 2.54-7.457 5.08-.464.66-.827 1.36-1.103 2.1v8.72c.666 1.86 1.883 3.68 3.221 4.98 2.334 2.23 5.42 3.34 8.614 3.7.686.07 1.405.11 2.138.13v22.72c.047 2.99.444 5.59 2.152 8.09 2.125 3.18 5.494 5.09 9.354 4.84 2.82-.16 5.64-1.05 7.87-2.91 2.02-1.6 3.47-4.14 3.98-6.67.28-1.39.41-2.83.46-4.27.12-3.03.04-6.12.04-9.16l6.98 14.49c.7 1.41 1.6 2.79 2.72 3.91.62.63 1.22 1.12 1.86 1.5 1.74 1.1 3.75 1.41 5.78 1.19 1.81-.17 3.53-.79 5.01-1.91 1.15-.83 2.12-1.87 2.91-3.06.63-.96 1.06-1.96 1.52-3l13.55-30.62c.39-.88.78-1.71 1-2.7 1.36-6.48-3.89-14.1-10.55-13.76-1.16.05-2.31.34-3.35.89-.81.43-1.56.99-2.23 1.63-.67.69-1.17 1.4-1.68 2.24l-6.46 13.32-5.36-12.03c-.43-1.05-.99-2.1-1.69-3.06-.65-.96-1.45-1.85-2.34-2.57-.92-.8-1.98-1.4-3.13-1.79-1.19-.45-2.41-.53-3.7-.6l-26.23-1.7c-.33-.02-.659-.03-.989-.03-.982 0-1.95.11-2.885.31" fill="url(#0)"/><path d="m148.56 412.29l-13.95 31.08c-.52 1.11-.88 2.16-1.76 3.07-1.24 1.26-3.41 1.99-5.1 1.22-1.35-.59-2.61-2.28-3.5-4.23l-13.43-29.29-4.4-.12v26.52c0 1.02-.03 1.91-.11 2.69-.001 3.49-1.83 6.08-5.32 6.1-3.547.03-5.45-2.59-5.47-6.08v-29.52l-6.576-.18c-1.036-.03-1.386-.02-2.186-.12-2.642-.42-4.371-1.43-5.083-3.23-.767-1.95-.404-4.85.914-6.47.874-1.13 2.219-1.76 4.115-1.66l26.786 1.35c1.01.05 1.86.05 2.77.54 1.05.59 1.82 1.69 2.37 2.71 2.95 5.53 5.23 11.59 7.86 17.29l1.98 4.28 1.24 2.7c.09-.2.19-.44.3-.67 3.64-7.84 7.22-15.7 10.99-23.47.51-.89 1.25-1.47 2.05-1.71 4.07-1.34 7.01 3.84 5.51 7.2" fill="#fff"/></g></svg>