<svg xmlns="http://www.w3.org/2000/svg" viewBox="0 0 600 148.11"><g transform="translate(172.87 267.56)" fill="#ef2e31"><path d="m241.06-267.55h-218.16c-22.319-.071-37.1 11.729-39.24 29.356-.782 6.469-1.493 12.226-1.493 12.226h290.65s.498-4.336.995-7.748c2.208-17.77-5.328-33.834-32.765-33.834"/><path d="m-154.48-267.56h131.86l-5.189 41.582h-131.79l5.118-41.582"/><path d="m-161.57-210.15h131.79l-4.194 34.405h-82.6l-2.132 16.918h82.53l-4.834 39.38h-131.86l11.302-90.7z"/><path d="m288.01-267.55h107.48c17.06 0 34.688 7.89 31.21 35.19-.64 4.905-.782 6.397-.782 6.397h-143.02l5.118-41.582z"/><path d="m270.87-210.15s-.64 5.9-1.493 12.226c-1.777 12.724-11.231 22.18-28.788 22.18h-61.913l-6.966 56.3h-49.33l11.231-90.7h137.26z"/><path d="m280.88-210.17h49.33l-11.302 90.63-49.26.071 11.231-90.7z"/><path d="m88.48-210.13h-108.26c-3.696 23.67 8.174 34.33 24.949 34.33h66.68l-2.061 16.989h-95.96l-4.834 39.31s104.42.071 108.61 0c3.483-.213 27.936-.924 36.25-20.899 2.772-6.469 5.118-29.713 5.829-34.617 3.838-28.362-15.709-35.12-31.21-35.12"/><path d="m374.53-210.17h49.26l-11.231 90.63-49.26.071 11.231-90.7"/></g></svg>