<svg xmlns="http://www.w3.org/2000/svg" viewBox="0 0 600 189.75"><g transform="translate(292.17 278.26)"><g fill="#fff"><path d="m256.19-198.77h-15.27l5.683-42.4s4.585-.227 11.594-.227c8.563 0 17.16 4.244 17.16 17.505 0 11.14-6.744 25.12-19.17 25.12m10.571-61.19c-22.696 0-48.878.038-48.878.038l-10.761 78.58h53.54c38.875 0 47.17-25.765 47.17-46.3 0-24.477-15.08-32.32-41.07-32.32"/><path d="m176.95-259.86l-3.903 28.834h-31.07l3.903-28.834h-31.03l-10.647 78.51h31.03l3.978-29.25h31.07l-3.978 29.25h31.07l10.647-78.51h-31.07"/></g><path d="m97.28-113.98c5.153-.72 9.131-5.532 8.828-10.761l-23.07-144.05c-.341-5.191-4.85-9.472-10.08-9.472h-329.34c-5.229 0-9.738 4.281-10.08 9.472l-25.69 144.05c-.303 5.229 3.637 10.04 8.828 10.761l180.89 24.931c5.191.72 13.64.72 18.793 0l180.92-24.931"/><path fill="#fff" d="m-83.6-104.92c-5.191.568-13.678.568-18.869 0l-171.34-15.53c-5.191-.417-5.267.152-.152.985l171.49 23.567c5.191.72 13.64.72 18.793 0l171.72-23.567c5.229-.947 5.115-1.402-.152-.947l-171.49 15.497z"/><g fill="#ef2e31"><path d="m-34.1-260.22h-116.28c-11.897-.038-19.778 6.252-20.915 15.648-.417 3.448-.796 6.517-.796 6.517h154.93s.265-2.311.53-4.13c1.177-9.472-2.84-18.03-17.465-18.03"/><path d="m-244.93-260.22h70.28l-2.766 22.16h-70.25l2.728-22.16"/><path d="m-248.71-229.62h70.25l-2.236 18.339h-44.03l-1.137 9.02h43.99l-2.577 20.991h-70.28l6.02-48.35"/><path d="m-9.07-260.22h57.29c9.09 0 18.49 4.206 16.634 18.755-.341 2.614-.417 3.41-.417 3.41h-76.23l2.728-22.17"/></g><path fill="#fff" d="m-128.89-143.86h13.11l1.175-9.662h-13.11l.568-4.585h21.673l1.213-10.117h-32.926l-4.736 39.06h33.31l1.213-10.154h-22.01l.53-4.547m127.92-24.363h-22.923c-3.183 0-5.342.682-6.517 1.781-1.212 1.061-2.122 3.145-2.501 6.328l-2.804 22.848c-.379 3.258.038 5.305.985 6.365.909 1.099 2.88 1.743 6.1 1.743h22.923c3.183 0 5.342-.644 6.517-1.743 1.175-1.061 2.084-3.107 2.501-6.365l.72-5.911h-11.235l-.455 3.6h-16.482l2.198-18.15h16.52l-.379 2.993h11.215l.682-5.38c.379-3.183-.038-5.267-.985-6.328-.871-1.099-2.88-1.781-6.06-1.781m-225.52 21.635l4.926-8.449 2.728 8.449h-7.654zm.038-21.635l-22.317 39.06h12.352l4.623-7.957h16.06l2.652 7.957h12.39l-12.845-39.06h-12.92m55.66 14.284l-8.298-14.284h-12.541l-4.736 39.06h10.42l2.539-20.915 9.169 17.24h1.705l13.565-17.202-2.577 20.877h10.458l4.774-39.06h-12.541l-11.935 14.284zm198.69 7.351l4.054-6.972.834-1.629 2.577 8.03.189.568h-7.654m12.958-21.635h-12.92l-22.279 39.06h12.352l4.585-7.957h16.07l2.652 7.957h12.39l-12.845-39.06m-114.73 14.36h-.038l-.038.341h-12.958l.53-4.547h12.996l-.038.341h.038l-.493 3.865m1.099 10.458l2.01-.076c2.652-.038 4.433-.72 5.532-1.857 1.099-1.099 1.97-3.145 2.349-6.176l1.023-8.601c.417-3.183-.038-5.267-.947-6.328-.909-1.099-2.917-1.781-6.1-1.781h-27.394l-4.736 39.06h11.253l1.705-14.247h2.576l11.481 14.247h12.731l-10.306-12.807-1.175-1.44m16.481 14.248h11.253l4.736-39.06h-11.215l-4.774 39.06"/><g fill="#ef2e31"><path d="m-18.208-229.62s-.341 3.145-.796 6.517c-.947 6.782-5.987 11.822-15.345 11.822h-33l-3.713 30.01h-26.295l5.987-48.35h73.17z"/><path d="m-12.87-229.63h26.295l-6.02 48.31-26.26.038 5.987-48.35"/><path d="m-115.43-229.61h-57.706c-1.97 12.617 4.357 18.301 13.299 18.301h35.541l-1.099 9.06h-51.15l-2.577 20.953s55.66.038 57.895 0c1.857-.114 14.891-.493 19.324-11.14 1.478-3.448 2.728-15.838 3.107-18.452 2.046-15.12-8.374-18.718-16.634-18.718"/><path d="m37.05-229.63h26.26l-5.987 48.31-26.26.038 5.987-48.35"/></g></g></svg>