<svg xmlns="http://www.w3.org/2000/svg" viewBox="0 0 600 89.71"><g transform="translate(54.58 238.36)"><g fill="#fff"><path d="m486.49-168.54h-17.424l6.485-48.38s5.231-.259 13.229-.259c9.771 0 19.585 4.842 19.585 19.974 0 12.711-7.696 28.664-21.876 28.664m12.06-69.823c-25.897 0-55.772.043-55.772.043l-12.279 89.67h61.09c44.36 0 53.826-29.399 53.826-52.831 0-27.929-17.207-36.878-46.865-36.878"/><path d="m396.08-238.25l-4.453 32.901h-35.452l4.453-32.901h-35.409l-12.149 89.58h35.409l4.539-33.377h35.452l-4.539 33.377h35.452l12.149-89.58h-35.452"/></g><g fill="#ef2e31"><path d="m196.14-238.35h-132.14c-13.519-.043-22.474 7.104-23.766 17.781-.474 3.918-.904 7.405-.904 7.405h176.05s.301-2.626.603-4.693c1.337-10.763-3.227-20.493-19.846-20.493"/><path d="m-43.44-238.36h79.87l-3.143 25.19h-79.82l3.1-25.19z"/><path d="m-47.734-203.59h79.82l-2.54 20.839h-50.03l-1.292 10.247h49.987l-2.928 23.852h-79.87l6.846-54.937z"/><path d="m224.57-238.35h65.1c10.333 0 21.01 4.779 18.901 21.312-.387 2.971-.474 3.875-.474 3.875h-86.63l3.1-25.19z"/><path d="m214.19-203.59s-.387 3.573-.904 7.405c-1.076 7.707-6.803 13.434-17.437 13.434h-37.501l-4.219 34.1h-29.879l6.803-54.937h83.14z"/><path d="m220.26-203.6h29.879l-6.846 54.894-29.837.043 6.803-54.937z"/><path d="m103.72-203.58h-65.57c-2.239 14.337 4.951 20.796 15.11 20.796h40.39l-1.249 10.29h-58.12l-2.928 23.809s63.25.043 65.787 0c2.11-.129 16.921-.56 21.958-12.659 1.679-3.918 3.1-17.997 3.531-20.967 2.325-17.18-9.515-21.27-18.901-21.27"/><path d="m276.98-203.6h29.837l-6.803 54.894-29.837.043 6.803-54.937"/></g></g></svg>