<svg xmlns="http://www.w3.org/2000/svg" viewBox="0 0 600 200.61"><g transform="translate(-153.72-404.26)"><path d="m691.52 565.8c2.235-15.14 14.578-24.16 14.578-24.16-15.515 17.191-15.768 39.933-4.451 45.25 0 0-12.866-2.397-10.127-21.08m-251.42 18.957c-3.244 0-6.704-1.261-6.704-10.596 0-12.668 16.254-42.708 31.05-42.708 4.217 0 7.352 2.595 7.352 7.05 0 11.785-17.966 45.28-31.697 46.26m-17.642-16.885c2.577-13.948 15.984-26.49 15.984-26.49-15.12 19.786-18.471 39.36-7.01 45.825 0 0-12.308-1.297-8.974-19.336m-87.87-51.23c3.496-10.776 10.434-18.597 19.48-25.643.829.793 1.099 2.865 2.721 2.613 1.37-1.406.36-3.208.505-4.883 1.207-13.227 9.262-22.958 16.182-32.923l6.758-9.01c-.18.126-.306.288-.414.432 0 0 5.658-10.434 7.05-9.461 8.415 5.875 1.243 17.227-1.532 26.02-2.126 6.812-9.731 26.706-12.398 29.427-2.126 2.144-4.361 2.505-7.352 7.587-2.973 5.1-9.695 15.209-13.01 18.597-3.334 3.424-11.551 18.597-17.48 4.235-1.045-2.523-.667-6.343-.505-6.992m53.952-94.14c1.37-3.171 2.973-6.217 4.92-9.01 1.207-1.388 2.144.018 3.622.072 2.18 1.063 7.731 3.19 9.947 3.352.324.703-.288 1.406-.396 2.054-1.261.739-2.595 1.063-4 1.117-1.73.234-3.118-2.307-4.847-.667-.523 1.532 2.162 2.811.469 4.073-1.189.757-4.109-.865-3.55 1.532 1.928 2.559 2.523 4.343 2.847 7.587-.36 1.604-.793 3.478-2.433 3.802-1.712-.631-3.928-3.135-5.172-4.469-.955-3.03-2.325-6.04-1.406-9.443m-216.86 136.98c-13.12-27.697 8.686-57.7 32.869-75.43.487 1.189.973 2.379 1.424 3.442-25.661 21.462-38.96 50.709-20.921 76.946 26.399 38.37 112 28.11 145.93 12.09l.216-.018c-54.37 28.27-139.62 24.994-159.51-17.03m75.34-.649c.667 5.244 3.982 19.14 7.244 25.715-27.463-1.37-51.808-13.857-58.51-31.932-3.586-9.641-4.181-19.21-.198-29.01 3.658-9.06 7.929-17.03 16.398-24.634.451-.469.937-.847 1.424-1.189l6.253 8.163c5.568 11.821 7.587 24.85 18.543 33.752 3.172 3.964 6.343 6.05 8.06 10.92.469 5.154-.252 3.298.793 8.217m-49.23-111.39c-3.748-2.955-4.613-8.199-.721-10.74.757-2.505 1.225-4.181 2.919-6.163-.36-1.604-2.901-.991-2.415-3.171.09-.793 1.01-1.46.595-2.433-1.766-1.243-3.73 1.207-5.406-.451-.577-.505-2.162-2.397-1.766-3.316 1.856-.595 5.893-1.135 7.767-1.658 1.135-.811 2.505 1.982 2.973 2.667 1.46 3.55 3.982 7.334 2.559 11.497-2.613 5.748 1.189 10.812 3.856 15.389 8.632 12.11 20.435 25.21 25.12 39.18.829 2.667 2.108 5.154 3.838 7.46 8.722 8.415 15.858 18.453 19.714 29.409.234-.09 1.261.27 1.658.27 6.559 2.595 8.74 5.01 11.929 12.11 6.613-1.225 13.479 2.901 13.1 3.694 2.757 2.415 5.514 1.676 5.893 2.235 5.352-3.856 9.695-3.64 15.984-5.244 3.171-1.081 5.965-7.605 10.217-11.515 3.514-3.226 14.06-8.289 14.06-8.289-.324 3.55-2.739 8.487-6.145 12.794-5.947 7.496-8.686 15.984-6.397 21.14 1.73 3.874 4.829 13.569 4.235 16.651-.631 4.703-11.605 7.46-16.579 8.596-4.433 1.316-10.524 1.91-16.15 2.144-5.82.216-6.938-4.343-8.02-5.911-1.243-2.054-2.487-2.198-2.271-6.235-.288-.451-1.82.054-2.343.523-.414 4.145.901 2.955.396 7.496.018 2.054-.577 1.946-3.622 2.253-5.05-.432-12.776-1.568-16.903-8.271-3.208-6.253-2.559-9.05-3.118-18.06-1.694-4.757-1.874-4.199-4.974-8.07-16.579-13.894-15.587-24.06-19.21-35.662-1.279-2.108-3.568-3.388-5.064-5.352-5.226-5.784-9.03-11.19-11.785-18.02l-7.911-23.859c-1.622-2.991-1.964-11.479-6.02-13.08m66.927 10.217c-6.091 1.784-16.831 5.784-33.373 14.326-.432-.667-.883-1.351-1.351-2.054 12.686-5.929 25.12-10.07 34.725-12.272m23.606 79.901c-.469 1.153-1.766 2.991-3.712 2.721-.432-.108-1.225-.378-2.397-2.02-1.099-1.514-3.766-8.127-4.289-11.154-.288-1.82.252-2.469.847-1.478.595.973 3.226 11.317 9.226 10.29.505.09.811.865.324 1.64m-2.973-35.446c-.396-.577-.613-1.46-.432-2 .342-.595 1.261-1.964 2.054-1.081 1.207 1.351 2.901 2.739 3.388 4.775.09.739-.126 2.649-1.171 3.01-3.081.649-2.739-2.901-3.838-4.703m-15.984 11.587c-.451-.685-1.045-1.73-.937-2.559.27-1.838.487-3.226.847-6.631.378-3.496.144-4.595 1.388-6.992 1.081-2.036 3.099-3.226 3.081-4.271 0-1.045.234-3.352.901-4.253 1.045-1.424 2.108-1.784 2.973-2.865.757-.937 3.03-3.19 6.127-4.235.396.18.757-1.207 1.514-1.315 6.974-1.01 11.03 1.351 13.659 4.811 2.595 2 4.992 4 2.108 9.911.288.432-1.045 1.856-1.46 2.307-3.46 1.027-2.379-1.91-4.974-3.352-2.595-2.865-8.109-1.388-11.461-3.045-2.216-2.721-5.604-2.289-6.235-2.289-.631.054-1.225.396-.541 2.036 4.433.883 4.072 2.541 3.352 4-1.82 2.054-4.541 4.109-6 4.847-1.081 2.649 1.55 3.154 2.541 4.577.414 1.514-1.946 1.315-2.289 3.135-1.982 3.334 5.01 4.361.649 9.551-1.64-.829-2.649-1.55-5.244-3.37m445.6 70.981c-7.857 0-11.227-7.46-11.227-15.732 0-20.471 17.516-38.545 28.796-38.545 3.172 0 3.424 3.532 3.424 4.613 0 3.82-1.316 7.803-2.577 11.677-.432 1.333-.883 2.703-1.279 4.054l-.523 1.784 1.82.36c.703.144 2.198.378 4.253.378 7.893 0 16.06-5.875 16.06-15.696 0-7.442-7.731-12.632-18.777-12.632-23.14 0-46.1 16.867-52.48 36.27-.595.631-1.171 1.207-1.64 1.676-11.659 11.821-17.588 18.741-24.561 21.05-2.289.775-4.469.396-4.469-2.072 0-5.424 5.857-14.506 20.435-37.32l9.05-14.2 1.766-2.793c0 .018-3.28.162-3.28.162l-17.588.865-.883.036s-.469.757-.469.757l-6.05 9.515c-6.073 9.551-10.56 16.615-13.785 22.22-6.649 6.866-18.723 17.588-25.697 20 1.568-3.03 2.433-6.667 2.433-10.38 0-7.154-3.388-12.164-7.19-17.08-3.316-4.487-6.469-8.74-6.469-14.488 0-5.37 3.784-8.704 8.199-8.704 5.352 0 6.145 5.28 6.145 7.388 0 3.352-.829 5.334-2.469 8.83-.901 1.856-1.316 3.28-1.316 3.28s3.424 1.478 7.03 1.478c7.496 0 13.14-3.856 13.14-11.245 0-9.08-8.433-15.191-20.993-15.191-13.317 0-26.796 7.208-26.796 20.993 0 5.694 3.496 10.38 6.866 14.921l.306.432c3.424 4.451 6.487 8.866 6.487 14.164 0 7.767-6.397 12.974-13.984 12.974-6.577 0-11.425-3.262-12.398-9.461-.595-3.82 1.01-5.929 1.01-5.929s1.784.523 3.496.523c3.172 0 6.974-2.343 6.974-7.839 0-3.748-3.478-8.163-8.65-8.163-7.532 0-12.47 5.856-13.677 12.884-4.721 4.577-10.217 9.01-14.867 10.614 1.568-3.03 2.433-6.667 2.433-10.38 0-7.154-3.388-12.164-7.19-17.08-3.316-4.487-6.469-8.74-6.469-14.488 0-5.37 3.784-8.704 8.199-8.704 5.352 0 6.145 5.28 6.145 7.388 0 3.352-.829 5.334-2.487 8.83-.883 1.856-1.316 3.28-1.316 3.28s3.442 1.478 7.05 1.478c7.478 0 13.14-3.856 13.14-11.245 0-9.08-8.433-15.191-20.993-15.191-13.317 0-26.796 7.208-26.796 20.993 0 5.694 3.478 10.38 6.848 14.921l.324.432c3.424 4.451 6.487 8.866 6.487 14.164 0 7.767-6.397 12.974-13.984 12.974-6.577 0-11.443-3.262-12.398-9.461-.595-3.82 1.01-5.929 1.01-5.929s1.784.523 3.496.523c3.172 0 6.974-2.343 6.974-7.839 0-3.748-3.496-8.163-8.65-8.163-6.487 0-11.03 4.325-12.956 10-8.956 8.686-19.1 17.696-22.471 17.696-1.46 0-2.162-.991-2.162-2.883 0-7.677 30.742-54.871 30.742-54.871l-21.624 1.243-3.081 4.919c-3.262-6-8.07-8.722-15.227-8.722-19.444 0-43.16 19.03-49.862 38.4-1.424 1.442-2.829 2.847-4.217 4.217-9.803 9.677-20.02 16-24.561 16.921-2.216.451-4.379-.162-4.361-2.505.054-5.316 4.685-13.209 13.299-26.958-.018.018 61.18-104.71 61.18-104.71l-23.14 1.243-54.781 96.91c-.757 1.261-1.478 2.469-2.162 3.658-12.434 7.19-25.895 14-38.527 18.471.811-7.03-2.09-18.615.739-25.535 14.15-9.875 29.895-27.931 36.09-44.564 7.569-6.271 11.227-15.173 15.299-23.733 3.856-11.335 7.677-23.05 11.713-34.436 2.271-2.865 6.379-3.568 9.425-5.568 4.181-3.82 7.406-8.379 9.515-13.623.288-1.406.414-2.919-.667-4.02-2.02-1.784.018-3.676-.721-5.586-.487-1.766-1.982-2.523-3.64-3.081-1.874-1.027-1.442-4.649-4.253-4.757-2.361 1.01-4.974-.505-6.884-1.496-1.64-.126-2.523 1.334-3.586 2.235-2.144.108-4.307-.613-6.361.45-3.03 2.829-4.577 6.83-6.974 10.199-2.739 4.505.559 8.992-.631 13.785-6.02 12.74-15.533 23.12-23.48 34.509-5.803 8.199-7.352 15.84-8.56 19.912-7.154 5.64-13.245 12.218-18.272 19.372-2.577 3.748-3.19 3.802-6.974 6.469-8.74 3.37-18.399 11.245-23.39 17.263 0 0-3.64-1.045-1.442-6.703 1.604-3.1 7.298-5.46 9.461-7.965 5.19-5.316 5.136-8.83 6.415-15.461 1.478-5.839-1.46-10.217-4.109-14.74-2.397-3.334-5.947-5.064-9.154-7.172-8.794-3.316-15.227-1.928-19.786-.955-1.892.991-3.73 1.532-4.487 2.667-.487.27-2.198.649-2.685.991-2.02 1.297-6.199 4.469-7.713 6.974-1.045 1.712-1.117 3.874-1.46 4.901-.396 1.297-2.793 2.126-3.298 4.145-.739 3.03-.721 4.721-1.243 9.01-.324 2.685-.937 4.091-1.207 6.884-.216 2.054.901 4.271 4.289 6.091 3.766 2.02 2.847 2.757 3.694 8.145.09 1.297-.505 2.559-.973 3.568-2.397-4.865-6.505-9.695-13.659-12.38-2.252-10.06-10.758-19.714-17.606-27.769l-3.586-7.118c7.659-4.469 15.497-8.397 22.994-11.335 33.18-13.12 56.33-11.695 64.46-11.03 14.344 1.171 21.732 5.803 21.804 20.237l17.84-28.4-3.838-.991c-38-9.659-80.32-5.406-107.06 2.649-8.866 2.667-19.822 5.893-27.895 9.767-6.109-7.677-12.04-14.668-16.16-23.39-.973-4.847 2.09-9.677-.667-14.164-2.361-3.64-2.721-10.92-9.1-10.09-.919-.757-1.568-2.469-3.03-2.469-1.261-.09-2.198.505-2.991 1.496-1.315 1.622-3.352-.036-4.901.667-1.045.721-1.442 1.874-1.658 3.045-.451 1.153-1.892 1.351-2.883 1.351-2.072.901-1.64 3.135-1.91 4.829-1.964 1.46-2.793 4.02-2.02 6.487 1.928 6.541 3.874 15.281 11.407 17.353 4.145 1.622 3.658 4.847 5.298 7.911l5.298 19.01c-16.759 9.911-33.391 27.08-40.545 40.87-7.641 14.704-9.08 30.31-4.181 45.1 6.83 20.633 26.904 37.16 57.32 42.13 65.52 10.704 123.73-19.07 155.24-40.11-4.343 8.127-6.559 13.876-6.559 18.489 0 7.713 6.451 11.983 12.83 11.983 10.488 0 23.769-7.478 36.509-20.327 0 .324-.036.685-.036 1.01 0 12.524 8.199 20.309 18.615 20.309 8.109 0 16.597-3.982 24.24-11.299.072 6.667 5.46 11.299 13.14 11.299 9.533 0 19.1-8.686 28.598-18.453.775 11.587 10.362 18.453 26.02 18.453 15.822 0 29.445-6.938 40.888-16.687 1.604 10.506 10.992 16.687 25.859 16.687 16.07 0 32.508-8.776 45.591-19.732-.595 2.09-.883 4-.883 5.911 0 7.767 5.28 12.794 13.479 12.794 13.263 0 22.255-10.271 33.34-22-.018.252-.036.505-.036.739 0 14.975 9.641 22.24 24.18 22.24 17.335 0 31.878-9.352 45.16-21.606l-3.28-4.181c-4.541 4-22.507 16.579-31.806 16.579" fill="#fff"/><g fill="#ef2c30"><path d="m688.65 509.04l4.289-34.905h-18.723l-4.289 34.905h18.723"/><path d="m650.83 509.04l4.289-35.01h-18.813l-4.199 35.01h18.723"/><path d="m694.48 459.83c-.577-3.099-1.964-5.244-4.289-6.812-3.117-2.126-8.632-1.748-8.578-1.694-.018-.018-42.27-.054-42.27-.054l-2.361 16.633h57.02s1.081-4.974.487-8.07"/><path d="m634.5 464.41c0-3.135.306-4.127-1.01-7.298-1.37-3.262-3.892-4.325-5.64-5.064-1.676-.703-5.478-.775-5.478-.775h-90.8s-3.154.577-4.902 1.55c-2.973 1.658-4.685 3.676-6.02 6.415-1.424 2.901-1.748 8.56-1.748 8.56l115.55.018s.054-.306.054-3.406"/><path d="m574.25 509.04h19.1l2.433-21.696h23.859l6.343-.577c2.541-.577 3.856-1.856 5.352-4.181 1.442-2.216 1.964-8.56 1.964-8.56h-54.763l-4.289 35.01"/><path d="m516.55 493.67l-2.343 15.371h40.13s6.541.685 10.83-1.46c4.829-2.397 5.947-5.334 6.92-8.469.973-3.099 2.541-15.948 1.964-18.471-.595-2.523-1.55-4.163-3.514-5.442-1.856-1.189-6.05-1.171-6.05-1.171h-46.35s-.27 2.937-.18 3.748c.18 1.406.451 4.505 2.883 6.613 3.964 3.406 8.181 2.775 8.181 2.775h25.931l-.775 6.505h-37.626"/><path d="m512.85 493.67h-31.571l.775-6.415h31.571l1.568-13.425h-50.47l-4.397 35.21h50.583l1.946-15.371"/><path d="m518.13 451.26h-50.49l-2.054 16.542h50.37l2.18-16.542"/></g></g></svg>