<svg xmlns="http://www.w3.org/2000/svg" viewBox="0 0 139.64 48.744"><defs><clipPath id="0"><path d="m368.23 587.6h119.14v41.588h-119.14v-41.588"/></clipPath></defs><g transform="translate(-120.54-331.6)"><g clip-path="url(#0)" transform="matrix(1.17206 0 0-1.17206-311.05 1069.04)" fill="#1c63b7"><path d="m0 0c3.922-3.796 9.621-5.841 16.15-5.841 1.626 0 88.22.104 88.22.104v41.485h-110.04c0 0-.152-16.421.109-22.64.109-2.735.696-5.462 1.867-7.944.93-1.972 2.18-3.698 3.695-5.164" transform="translate(373.94 593.44)"/><path d="m0 0c1.625 0 97.28.104 97.28.104v41.484h-119.09" transform="translate(390.09 587.6)"/></g><g clip-path="url(#0)" transform="matrix(1.2968 0 0-1.2968-358.28 1146.53)" fill="#fff"><path d="m0 0c-.836.142-1.579.446-2.217.915-.647.474-1.156 1.163-1.527 2.048-.377.899-.557 2.065-.558 3.505v7.139.196l.194.032c.345.057 1.094.08 1.861.081.767 0 1.516-.024 1.862-.081l.193-.032v-7.232c0-.69.054-1.251.159-1.679.106-.428.264-.751.464-.981.204-.235.452-.397.758-.497.311-.102.691-.155 1.134-.155.534 0 .989.043 1.361.128v10.416l.194.032c.344.057 1.087.08 1.848.081.76 0 1.503-.024 1.848-.081l.194-.032v-13.633l-.157-.054c-.658-.213-4.049-.319-5.056-.325-.886 0-1.738.069-2.556.209" transform="translate(396.16 600.88)"/><path d="m0 0l-.196.031v13.499.191l.187.037c.263.053.512.092.751.118.124.014.365.018.64.019.367 0 .756-.009.932-.032.253-.035.503-.079.75-.132l.098-.02.052-.087c.068-.117.119-.257.166-.433.044-.168.084-.343.119-.529.029-.153.055-.306.078-.459.319.377.684.722 1.094 1.036.594.455 1.241.645 2.1.644.18 0 .634-.124.634-.124l.026-.131c.037-.184.063-.389.081-.619.018-.229.026-.466.026-.711 0-.298-.013-.62-.039-.967-.026-.354-.075-.689-.146-1.01l-.049-.218c0 0-.336.088-.488.088-.318 0-.589-.029-.938-.087-.318-.053-.622-.192-.922-.429-.286-.224-.535-.574-.739-1.062-.195-.468-.304-1.162-.303-2.069v-6.513l-.193-.032c-.21-.032-1.855-.041-1.855-.041-.844 0-1.651.0001-1.866.041" transform="translate(406.02 600.96)"/><path d="m0 0c-.886.006-1.459.313-1.843.951-.388.654-.597 1.639-.596 2.951 0 1.312.208 2.297.596 2.951.384.638.957.945 1.843.952.904-.007 1.484-.315 1.867-.952.388-.654.598-1.639.598-2.951 0-1.312-.21-2.297-.598-2.951-.383-.637-.963-.945-1.867-.951m6.231 6.717c-.265.883-.675 1.653-1.227 2.304-.555.652-1.253 1.167-2.086 1.538-.84.376-1.814.56-2.918.56-1.105 0-2.075-.184-2.908-.56-.824-.372-1.515-.886-2.059-1.54-.544-.65-.952-1.419-1.225-2.3-.273-.881-.409-1.82-.409-2.817 0-.997.136-1.928.409-2.792.274-.864.682-1.625 1.225-2.274.544-.654 1.236-1.163 2.061-1.528.832-.365 1.802-.545 2.906-.545 1.103 0 2.077.18 2.917.545.833.363 1.532.874 2.087 1.527.551.649.961 1.411 1.227 2.277.263.863.394 1.794.394 2.79 0 .996-.131 1.934-.394 2.815" transform="translate(420.42 603.91)"/><path d="m0 0c0-1.358-.279-2.337-.795-2.959-.519-.626-1.247-.94-2.26-.943-.51 0-.963.051-1.36.15v4.343c0 .413.04.797.122 1.156.08.353.207.655.377.911.169.252.383.447.651.593.258.141.581.216.981.216.431 0 .776-.088 1.05-.25.284-.17.517-.399.705-.696.187-.296.324-.656.405-1.087.083-.437.124-.916.124-1.434m3.932 3.152c-.273.862-.659 1.59-1.162 2.174-.501.58-1.091 1.02-1.767 1.308-.671.286-1.394.429-2.158.429-.5 0-.961-.067-1.381-.204-.412-.134-.786-.309-1.12-.526-.335-.217-.622-.468-.861-.752-.087-.105-.17-.21-.247-.315-.023.134-.05.271-.081.41-.044.19-.087.368-.13.533-.047.176-.097.317-.167.434l-.052.087-.099.02c-.301.06-.965.074-1.622.076-.662-.002-1.241-.015-1.427-.05l-.184-.04v-18.383l.196-.031c.214-.031 1.018-.04 1.859-.041.842 0 1.645.0001 1.86.041l.196.031v4.444c.136-.019.287-.036.453-.051.289-.026.583-.039.881-.039 1.153 0 2.192.17 3.112.515.917.345 1.701.837 2.343 1.479.64.641 1.129 1.42 1.465 2.331.336.91.503 1.936.502 3.071 0 1.165-.134 2.18-.409 3.049" transform="translate(436.55 607.96)"/><path d="m0 0h-4.678c.105.713.344 1.252.704 1.64.393.421.967.642 1.782.645.704-.003 1.204-.225 1.581-.674.341-.411.547-.941.611-1.611m3.523 1.523c-.265.807-.662 1.508-1.19 2.098-.526.589-1.166 1.054-1.912 1.392-.754.34-1.61.509-2.562.509-1.087 0-2.051-.189-2.883-.574-.824-.381-1.521-.903-2.082-1.562-.56-.659-.982-1.432-1.264-2.315-.282-.88-.422-1.82-.422-2.817 0-1.014.135-1.955.409-2.818.274-.868.702-1.624 1.283-2.257.582-.637 1.335-1.131 2.244-1.484.915-.356 2-.529 3.255-.529 1.701 0 3.237.26 4.603.786l.153.059-.005.164c-.018.565-.098 1.098-.24 1.597-.142.492-.309.919-.508 1.28l-.096.176-.188-.07c-.535-.2-1.098-.356-1.694-.464-.595-.109-1.176-.163-1.743-.164-1.029 0-1.833.224-2.434.651-1.218.977-1.329 2.048-1.298 2.566.008.109.018.217.043.317.018.082.083.089.098-.005.101-.656.615-1.063 1.719-1.063h6.945l.034.19c.037.201.067.459.094.781.025.323.039.65.038.981 0 .913-.132 1.772-.397 2.576" transform="translate(450.61 609.5)"/><path d="m0 0c-.862.147-1.629.461-2.287.943-.667.49-1.191 1.2-1.574 2.113-.389.929-.56 2.131-.56 3.617l.003 1.988v9.98h10.94v-3.647h-6.728v-3.543h5.341v-3.673h-5.341v-1.064c.004-.682.059-1.244.165-1.67.108-.443.272-.779.48-1.018.212-.242.469-.411.785-.515.287-.094.687-.124 1.122-.126h4.47v-3.647c0 0-4.088-.009-4.178-.009-.924 0-1.804.129-2.638.271" transform="translate(384.18 601.24)"/><path d="m0 0c-.424.277-3.453.44-4.299.057l-10.391-7.569c0 0 .044-.983.6-1.979.634-1.135 1.446-1.845 1.446-1.845l3.571 1.383-3.145-18.04h7.402l4.877 27.857-.061.133" transform="translate(471.28 624.1)"/></g></g></svg>