<svg xmlns="http://www.w3.org/2000/svg" height="69.63" width="600" viewBox="0 0 158.75 18.423414" xmlns:xlink="http://www.w3.org/1999/xlink"><g transform="translate(-15.826-101.07)" fill="#131b4d"><path d="m31.607 119.17l-5.964-3.92-9.219 3.91 5.429-6.38-6.03-3.95h9.399l6.382-7.48v7.48h9.109l-9.109 3.88v6.46" id="0"/><path d="m42.92 105c.319 0 .579-.26.579-.58v-2.5c0-.32-.26-.58-.579-.58h-9.767v3.66h9.766" id="1"/><path d="m42.92 119.2c.319 0 .579-.26.579-.58v-2.5c0-.32-.26-.58-.579-.58h-9.767v3.66h9.766" id="2"/><path d="m174 101.33h-12.21c-.32 0-.58.26-.58.58v2.51c0 .32.26.58.58.58h4.27v13.64c0 .32.26.58.58.58h2.51c.32 0 .58-.26.58-.58v-13.64h4.27c.32 0 .58-.26.58-.58v-2.51c0-.32-.26-.58-.58-.58" id="3"/><path d="m121.9 108.98c-.13.35-.32.66-.55.91s-.5.41-.82.55c-.31.14-.86.22-1.95.22h-2.82v-5.66h3.7c.39 0 .76.07 1.08.22.32.14.6.34.84.58.23.24.4.54.53.88.13.36.19.75.19 1.16 0 .4-.07.78-.2 1.14m3.46-3.64c-.29-.79-.72-1.48-1.28-2.07-.57-.59-1.26-1.06-2.05-1.41-.81-.35-1.72-.53-2.72-.53h-6.64c-.32 0-.58.26-.58.58v16.71c0 .32.26.58.58.58h2.51c.32 0 .58-.26.58-.58v-4.28h3.55c1 0 1.91-.17 2.7-.51s1.48-.81 2.04-1.4c.56-.58 1-1.27 1.29-2.04.3-.76.45-1.73.45-2.58 0-.86-.15-1.69-.43-2.47" id="4"/><path d="m100.4 106.46c-.001.37.08.6.22.8.16.22.38.41.67.56.31.16.68.29 1.1.38.46.1.93.19 1.39.28.85.13 1.69.3 2.49.5.84.21 1.58.52 2.21.92.65.43 1.17.99 1.54 1.68.38.69.55 1.57.5 2.62-.04 1.02-.31 1.89-.78 2.59-.46.68-1.05 1.24-1.76 1.65-.7.41-1.39.71-2.24.87-.84.16-1.78.21-2.6.17-2.03-.09-5.03-1.26-6.534-3.31-.119-.17-.266-.45.057-.78s1.869-1.9 1.869-1.9c.313-.33.616-.1.745.09.883 1.29 2.633 2.25 4.01 2.31.72.03.81 0 1.26-.06.41-.05.78-.16 1.12-.31.31-.15.57-.34.78-.6.19-.24.3-.59.33-.99.02-.39-.08-.7-.26-.94-.2-.28-.46-.49-.78-.65-.37-.19-.78-.31-1.24-.4-.49-.09-.98-.17-1.45-.24-.78-.1-1.56-.26-2.32-.47-.771-.22-1.466-.54-2.059-.93-.617-.41-1.114-.95-1.479-1.59-.373-.65-.543-1.4-.503-2.34.042-.94.277-1.77.699-2.47.418-.69.966-1.25 1.63-1.68.649-.42 1.392-.73 2.222-.92 1.6-.36 3.21-.3 4.8.2 1.71.54 3.09 1.86 3.72 2.79.12.17.23.44-.02.72-.24.28-1.76 1.76-1.76 1.76-.32.31-.66.24-.84-.03-.93-1.37-2.13-1.98-3.51-2.07-1.49-.1-3.16.23-3.23 1.79" id="5"/><path d="m91.28 112.76c-.281.69-.669 1.27-1.152 1.73-.484.46-1.052.82-1.689 1.05-.647.24-1.348.36-2.083.36-.752 0-1.461-.12-2.108-.36-.635-.23-1.192-.58-1.658-1.04-.47-.47-.851-1.05-1.133-1.74-.284-.7-.428-1.53-.428-2.46s.144-1.75.428-2.45c.282-.69.666-1.27 1.143-1.74.474-.46 1.039-.82 1.679-1.06.645-.24 1.353-.37 2.102-.37.732 0 1.431.13 2.077.37.637.24 1.201.6 1.676 1.07.478.47.863 1.06 1.146 1.76.284.69.428 1.51.428 2.42 0 .93-.144 1.76-.428 2.46m1.463-9.27c-.826-.78-1.8-1.39-2.894-1.8-1.087-.41-2.252-.61-3.462-.61-1.194 0-2.354.2-3.448.61-1.103.41-2.084 1.01-2.918 1.8s-1.506 1.77-1.997 2.91-.74 2.44-.74 3.88c0 1.45.245 2.76.727 3.89.483 1.13 1.146 2.11 1.972 2.9.825.78 1.799 1.39 2.895 1.8 1.086.41 2.251.61 3.462.61 1.325 0 2.561-.22 3.674-.66 1.121-.45 2.096-1.08 2.898-1.9.798-.81 1.431-1.79 1.88-2.92.447-1.12.674-2.37.674-3.72 0-1.43-.249-2.74-.739-3.88-.492-1.14-1.159-2.12-1.984-2.91" id="6"/><path d="m141.04 112.76c-.28.69-.67 1.27-1.15 1.73s-1.05.82-1.69 1.05c-.65.24-1.35.36-2.08.36-.75 0-1.46-.12-2.11-.36-.63-.23-1.19-.58-1.66-1.04-.47-.47-.85-1.05-1.13-1.74-.28-.7-.43-1.53-.43-2.46s.15-1.75.43-2.45c.28-.69.67-1.27 1.14-1.74.48-.46 1.04-.82 1.68-1.06.65-.24 1.35-.37 2.1-.37.74 0 1.43.13 2.08.37.64.24 1.2.6 1.68 1.07.47.47.86 1.06 1.14 1.76.29.69.43 1.51.43 2.42 0 .93-.14 1.76-.43 2.46m1.47-9.27c-.83-.78-1.8-1.39-2.9-1.8-1.09-.41-2.25-.61-3.46-.61-1.2 0-2.36.2-3.45.61-1.1.41-2.08 1.01-2.92 1.8-.83.79-1.5 1.77-1.99 2.91s-.74 2.44-.74 3.88c0 1.45.24 2.76.72 3.89.49 1.13 1.15 2.11 1.98 2.9.82.78 1.79 1.39 2.89 1.8 1.09.41 2.25.61 3.46.61 1.33 0 2.56-.22 3.68-.66 1.12-.45 2.09-1.08 2.89-1.9.8-.81 1.44-1.79 1.88-2.92.45-1.12.68-2.37.68-3.72 0-1.43-.25-2.74-.74-3.88s-1.16-2.12-1.98-2.91" id="7"/><path d="m58.99 101.33h-2.516c-.32 0-.581.26-.581.58v11.06c0 .48-.079.89-.235 1.23-.154.34-.368.63-.636.86-.276.24-.609.42-.988.55-.392.13-1.053.2-1.513.2-.463 0-1.161-.07-1.562-.2-.388-.13-.729-.31-1.013-.55-.273-.23-.49-.52-.644-.86-.156-.34-.234-.75-.234-1.23v-11.06c0-.32-.261-.58-.581-.58h-2.508c-.319 0-.58.26-.58.58v11.15c0 1.03.192 1.94.57 2.74.376.78.901 1.46 1.559 2.02.652.54 1.417.96 2.272 1.24.843.27 1.758.41 2.721.41.946 0 1.854-.14 2.697-.41.857-.28 1.616-.7 2.253-1.25.64-.55 1.154-1.23 1.53-2.01.378-.8.57-1.72.57-2.74v-11.15c0-.32-.261-.58-.581-.58" id="8"/><path d="m76.63 118.23l-4.075-5.05s3.29-1.2 3.29-5.37c0-.86-.145-1.69-.429-2.47-.289-.79-.721-1.48-1.284-2.07-.561-.59-1.251-1.06-2.05-1.41-.803-.35-1.716-.53-2.714-.53h-6.631c-.32 0-.58.26-.58.58v16.71c0 .32.26.58.58.58h2.501c.32 0 .58-.26.58-.58v-13.62h3.713c.395 0 .758.07 1.08.22.324.14.607.34.838.58.23.24.409.54.532.88.128.36.193.75.193 1.16 0 .4-.068.78-.201 1.14-.132.35-.318.66-.553.91-.231.25-.496.41-.812.55-.313.14-.87.22-1.956.22h-1.553c-.308 0-.544.28-.309.66l5.808 7.64c.108.15.285.24.473.24h3.207c.472 0 .787-.43.352-.97" id="9"/><path d="m161.43 118.23l-4.08-5.05s3.29-1.2 3.29-5.37c0-.86-.14-1.69-.42-2.47-.29-.79-.73-1.48-1.29-2.07s-1.25-1.06-2.05-1.41-1.71-.53-2.71-.53h-6.63c-.32 0-.58.26-.58.58v16.71c0 .32.26.58.58.58h2.5c.32 0 .58-.26.58-.58v-13.62h3.71c.4 0 .76.07 1.08.22.32.14.61.34.84.58s.41.54.53.88c.13.36.19.75.19 1.16 0 .4-.06.78-.2 1.14-.13.35-.32.66-.55.91s-.5.41-.81.55c-.32.14-.87.22-1.96.22h-1.55c-.31 0-.55.28-.31.66l5.81 7.64c.11.15.28.24.47.24h3.21c.47 0 .78-.43.35-.97" id="A"/><use xlink:href="#0"/><use xlink:href="#1"/><use xlink:href="#2"/><use xlink:href="#3"/><use xlink:href="#4"/><use xlink:href="#5"/><use xlink:href="#6"/><use xlink:href="#7"/><use xlink:href="#8"/><use xlink:href="#9"/><use xlink:href="#A"/></g></svg>