<svg xmlns="http://www.w3.org/2000/svg" height="53.26" width="600" viewBox="0 0 158.75 14.0918" xmlns:xlink="http://www.w3.org/1999/xlink"><g transform="translate(265.78 88.4)"><g fill="#fff"><path d="m-114.88-87.978c0-.129-.1-.22-.23-.22h-1c-.13 0-.23.091-.23.22v2.456h-2.65v-2.456c0-.129-.11-.22-.24-.22h-1c-.12 0-.23.091-.23.22v6.691c0 .129.11.232.23.232h1c.13 0 .24-.103.24-.232v-2.77h2.65v2.77c0 .129.1.232.23.232h1c.13 0 .23-.103.23-.232z"/><path d="m-110.54-88.2c2.31 0 3.51 1.779 3.51 3.55 0 .961-.32 1.844-.9 2.499-.65.719-1.55 1.094-2.61 1.094h-2.43c-.12 0-.23-.108-.23-.233v-6.686c0-.129.11-.224.23-.224zm-1.2 5.687h1.29c1.36 0 1.97-1.103 1.97-2.128 0-1.021-.61-2.098-1.96-2.098h-1.3z"/><g stroke-width=".883"><path d="m-253.71-74.56l-4.56-3-7.05 2.994 4.15-4.874-4.61-3.02h7.19l4.88-5.721v5.721h6.96l-6.96 2.967v4.936" id="0"/><path d="m-245.06-85.39c.24 0 .44-.203.44-.442v-1.916c0-.247-.2-.441-.44-.441h-7.47v2.799h7.47" id="1"/><path d="m-245.06-74.53c.24 0 .44-.203.44-.441v-1.916c0-.248-.2-.442-.44-.442h-7.47v2.799h7.47" id="2"/><path d="m-144.83-88.2h-9.33c-.24 0-.45.203-.45.441v1.925c0 .239.21.442.45.442h3.26v10.427c0 .248.2.442.44.442h1.93c.24 0 .44-.194.44-.442v-10.427h3.26c.24 0 .45-.203.45-.442v-1.925c0-.238-.21-.441-.45-.441" id="3"/><path d="m-184.67-82.34c-.1.265-.24.494-.42.689-.18.194-.38.317-.62.423s-.67.168-1.5.168h-2.15v-4.326h2.83c.3 0 .58.053.82.168.25.105.47.256.64.441.18.185.32.415.41.68.1.274.15.565.15.874s-.05.609-.16.883m2.65-2.79c-.22-.601-.55-1.13-.98-1.581-.43-.45-.96-.812-1.57-1.077s-1.31-.406-2.08-.406h-5.07c-.25 0-.45.203-.45.441v12.786c0 .238.2.441.45.441h1.92c.24 0 .44-.203.44-.441v-3.276h2.71c.77 0 1.46-.133 2.07-.389.6-.265 1.13-.627 1.56-1.077.43-.441.76-.971.99-1.554.22-.583.34-1.324.34-1.978 0-.653-.11-1.289-.33-1.889" id="4"/><path d="m-201.11-84.27c-.001.283.07.45.17.601.12.176.3.317.51.432.24.124.53.221.84.292.36.079.71.15 1.07.211.65.106 1.29.23 1.9.38.64.159 1.21.397 1.69.706.5.327.9.76 1.18 1.281.29.529.42 1.209.38 2.01-.03.777-.23 1.439-.59 1.978-.35.521-.81.944-1.35 1.262s-1.06.548-1.72.662c-.64.124-1.35.159-1.98.133-1.55-.071-3.85-.963-5-2.534-.09-.124-.2-.344.05-.592.24-.256 1.42-1.457 1.42-1.457.24-.256.48-.07.57.071.68.989 2.02 1.722 3.07 1.766.56.026.62 0 .97-.044.31-.044.59-.124.85-.239.24-.114.44-.256.6-.459.14-.185.23-.45.25-.759.02-.291-.06-.53-.2-.724-.15-.203-.35-.362-.6-.495-.27-.141-.59-.229-.94-.3-.38-.07-.75-.132-1.11-.185-.6-.071-1.2-.194-1.77-.362-.59-.168-1.13-.406-1.58-.707-.47-.317-.85-.724-1.13-1.218-.29-.494-.42-1.068-.38-1.784.03-.724.21-1.359.53-1.889s.74-.962 1.25-1.289c.49-.327 1.06-.556 1.69-.706 1.23-.274 2.46-.23 3.67.158 1.31.415 2.37 1.422 2.85 2.128.09.133.18.345-.001.557s-1.35 1.342-1.35 1.342c-.25.238-.5.185-.64-.027-.71-1.042-1.63-1.51-2.69-1.58-1.14-.071-2.41.185-2.47 1.377" id="5"/><path d="m-208.08-79.46c-.22.521-.51.971-.88 1.325-.37.353-.81.618-1.29.803-.5.177-1.04.274-1.6.274-.57 0-1.11-.097-1.61-.274-.48-.177-.91-.45-1.27-.803-.36-.354-.65-.795-.86-1.325-.22-.538-.33-1.165-.33-1.881 0-.706.11-1.342.33-1.871.21-.53.51-.98.87-1.334.36-.353.79-.626 1.28-.812.5-.185 1.04-.282 1.61-.282.56 0 1.1.097 1.59.282.49.186.92.468 1.28.821.37.362.66.813.88 1.342.21.53.32 1.157.32 1.854 0 .716-.11 1.343-.32 1.881m1.12-7.09c-.64-.6-1.38-1.059-2.22-1.377-.83-.309-1.72-.468-2.64-.468s-1.8.159-2.64.468c-.84.318-1.59.777-2.23 1.377-.64.601-1.15 1.351-1.53 2.225-.37.874-.56 1.872-.56 2.967 0 1.112.18 2.11.55 2.975.37.866.88 1.616 1.51 2.217.63.6 1.38 1.068 2.21 1.377s1.72.468 2.65.468c1.01 0 1.96-.168 2.81-.503.86-.345 1.6-.83 2.22-1.457.61-.618 1.09-1.369 1.43-2.225.34-.866.52-1.819.52-2.852 0-1.095-.19-2.093-.57-2.967-.37-.874-.88-1.616-1.51-2.225" id="6"/><path d="m-170.03-79.46c-.21.521-.51.971-.88 1.325-.37.353-.8.618-1.29.803-.5.177-1.03.274-1.59.274-.58 0-1.12-.097-1.62-.274-.48-.177-.91-.45-1.26-.803-.36-.354-.65-.795-.87-1.325-.22-.538-.33-1.165-.33-1.881 0-.706.11-1.342.33-1.871.22-.53.51-.98.87-1.334.37-.353.8-.626 1.29-.812.49-.185 1.03-.282 1.61-.282.55 0 1.09.097 1.58.282.49.186.92.468 1.28.821.37.362.67.813.88 1.342.22.53.33 1.157.33 1.854 0 .716-.11 1.343-.33 1.881m1.12-7.09c-.63-.6-1.38-1.059-2.21-1.377-.83-.309-1.73-.468-2.65-.468-.91 0-1.8.159-2.64.468-.84.318-1.59.777-2.23 1.377-.64.601-1.15 1.351-1.53 2.225-.37.874-.56 1.872-.56 2.967 0 1.112.19 2.11.56 2.975.36.866.87 1.616 1.5 2.217.63.6 1.38 1.068 2.22 1.377.83.309 1.72.468 2.64.468 1.02 0 1.96-.168 2.81-.503.86-.345 1.61-.83 2.22-1.457.61-.618 1.09-1.369 1.44-2.225.34-.866.51-1.819.51-2.852 0-1.095-.19-2.093-.56-2.967-.38-.874-.89-1.616-1.52-2.225" id="7"/><path d="m-232.77-88.2h-1.93c-.24 0-.44.203-.44.441v8.459c0 .362-.06.68-.18.945s-.28.485-.49.653c-.21.186-.46.327-.75.424-.3.097-.81.15-1.16.15s-.89-.053-1.19-.15-.56-.238-.78-.424c-.21-.176-.37-.397-.49-.653-.12-.265-.18-.583-.18-.945v-8.459c0-.238-.2-.441-.44-.441h-1.92c-.25 0-.44.203-.44.441v8.53c0 .786.14 1.483.43 2.092.29.601.69 1.122 1.19 1.545.5.415 1.09.733 1.74.945.64.212 1.34.318 2.08.318.72 0 1.42-.106 2.06-.318.66-.212 1.24-.53 1.73-.953.49-.415.88-.936 1.17-1.537.29-.609.43-1.306.43-2.092v-8.53c0-.238-.2-.441-.44-.441" id="8"/><path d="m-219.29-75.27l-3.11-3.867s2.51-.909 2.51-4.106c0-.653-.11-1.289-.33-1.889-.22-.601-.55-1.13-.98-1.581-.43-.45-.95-.812-1.56-1.077-.62-.265-1.32-.406-2.08-.406h-5.07c-.25 0-.44.203-.44.441v12.786c0 .238.19.441.44.441h1.91c.25 0 .45-.203.45-.441v-10.419h2.84c.3 0 .57.053.82.168.25.105.47.256.64.441.18.185.31.415.41.68.1.274.15.565.15.874s-.06.609-.16.883c-.1.265-.24.494-.42.689-.18.194-.38.317-.62.423s-.67.168-1.5.168h-1.19c-.23 0-.41.212-.23.503l4.44 5.846c.08.114.22.185.36.185h2.45c.37 0 .61-.336.27-.742" id="9"/><path d="m-154.44-75.27l-3.12-3.867s2.52-.909 2.52-4.106c0-.653-.11-1.289-.33-1.889-.22-.601-.54-1.13-.98-1.581-.43-.45-.96-.812-1.57-1.077s-1.31-.406-2.07-.406h-5.07c-.25 0-.45.203-.45.441v12.786c0 .238.2.441.45.441h1.91c.24 0 .44-.203.44-.441v-10.419h2.84c.31 0 .58.053.83.168.25.105.46.256.64.441.17.185.31.415.4.68.11.274.15.565.15.874s-.05.609-.15.883c-.1.265-.25.494-.42.689-.18.194-.38.317-.62.423s-.67.168-1.5.168h-1.19c-.23 0-.41.212-.23.503l4.44 5.846c.08.114.22.185.36.185h2.45c.37 0 .61-.336.27-.742" id="A"/><use xlink:href="#0"/><use xlink:href="#1"/><use xlink:href="#2"/><use xlink:href="#3"/><use xlink:href="#4"/><use xlink:href="#5"/><use xlink:href="#6"/><use xlink:href="#7"/><use xlink:href="#8"/><use xlink:href="#9"/><use xlink:href="#A"/></g></g><g stroke-width=".883"><path fill="#d50032" d="m-126.07-74.31h-12.73c-.26 0-.46-.203-.46-.459v-13.174c0-.247.2-.459.46-.459h12.73c.25 0 .46.212.46.459v13.174c0 .256-.21.459-.46.459"/><path fill="#fff" d="m-135.52-77.06v.274c0 .176.13.318.3.318h5.92c.17 0 .3-.142.3-.318v-1.369c0-.159-.14-.309-.31-.309h-2.77l1.73-2.313c1.02-1.325 1.25-2.808.69-3.938-.47-.954-1.46-1.492-2.72-1.492-1.96.008-3.07 1.077-3.11 3.01l-.001.451c0 .185.13.309.33.309h1.32c.18 0 .31-.141.32-.318l.02-.415c.02-.512.23-1.13 1.08-1.13.68 0 1.03.432 1.04.883.02.485-.1.856-.53 1.412l-3.44 4.539c-.11.123-.16.229-.16.406"/></g></g></svg>