<svg xmlns="http://www.w3.org/2000/svg" viewBox="0 0 600 281.32" xmlns:xlink="http://www.w3.org/1999/xlink"><defs><clipPath><path d="m924.16 96.35l-.892.638-1.392-.636.865 1.016-.865.617h1.392l.891 1.045v-1.045h1.28l-1.28-.588v-1.047"/></clipPath><clipPath><path d="m931.24 94.66h-.666l.666.78v-.78"/></clipPath><clipPath><path d="m919.56 95.22l-.891.638-1.393-.636.866 1.016-.866.617h1.393l.891 1.045v-1.045h1.28l-1.28-.588v-1.047"/></clipPath><clipPath><path d="m928.36 95.21l-.891.639-1.392-.636.866 1.016-.866.617h1.392l.891 1.045v-1.045h1.28l-1.28-.589v-1.047"/></clipPath><clipPath id="2"><path d="m934.76 81.05h-17.616v5.336h17.616v-5.336"/></clipPath><clipPath id="1"><path d="m920.15 86.39h-15.357v5.336h15.357v-5.336"/></clipPath><clipPath id="0"><path d="m904.79 99.03h40.38v-18.931h-40.38v18.931"/></clipPath><clipPath><path d="m915.42 94.66h-.664l.664.778v-.778"/></clipPath><linearGradient id="3" gradientUnits="userSpaceOnUse" x2="0"><stop stop-color="#284985"/><stop stop-color="#00030b" offset="1"/></linearGradient><linearGradient id="4" gradientUnits="userSpaceOnUse" x2="0"><stop stop-color="#a21332"/><stop offset="1"/></linearGradient></defs><g transform="translate(194.29-365.99)"><path d="m0 0l-.892.638-1.392-.636.866 1.016-.865.617h1.391l.892 1.045v-1.045h1.281l-1.281-.588v-1.047" fill="#bdc0c2" transform="matrix(14.86 0 0-14.86-36.39 459.28)" id="5"/><g fill="#bdc0c2"><path d="m0 0l-.891.638-1.393-.636.866 1.016-.866.617h1.393l.891 1.045v-1.045h1.28l-1.28-.588v-1.047" transform="matrix(14.86 0 0-14.86 25.13 422.71)"/><path d="m0 0l-.892.638-1.392-.636.865 1.016-.865.617h1.392l.892 1.045v-1.045h1.28l-1.28-.588v-1.047" transform="matrix(14.86 0 0-14.86 93.48 405.81)"/><path d="m0 0l-.891.639-1.392-.636.866 1.016-.866.617h1.392l.891 1.045v-1.045h1.28l-1.28-.589v-1.047" transform="matrix(14.86 0 0-14.86 155.91 422.75)"/></g><use transform="translate(235.13-.03)" xlink:href="#5"/><g clip-path="url(#0)" transform="matrix(14.86 0 0-14.86-13640 1837.6)"><path d="m0 0c.505 0 .656-.16.625-.448l-.047-.217-.543-1.922c-.118-.425-.256-.665-.889-.665h-.817l.839 2.946-.429.306h1.261m.408 1.042h-2.035l-1.518-5.336h2.18c1.53 0 1.89.673 2.086 1.378l.669 2.355c.027.097.046.201.056.297.073.673-.284 1.306-1.438 1.306" fill="#bdc0c2" transform="translate(943.31 90.68)"/></g><path d="m0 0l-.609-2.163h1.178l1.509 5.336h-1.177l-.606-2.139h-1.707l.606 2.139h-1.177l-1.51-5.336h1.178l.516 1.834-.462.329h2.261" fill="#bdc0c2" transform="matrix(14.86 0 0-14.86 312.97 521.75)"/><g clip-path="url(#1)" transform="matrix(14.86 0 0-14.86-13640 1837.6)"><path fill="url(#3)" d="m906.3 91.72h13.842l-1.499-5.336h-13.858l1.515 5.336"/></g><g fill="#fff"><path d="m0 0h16.13l-1.516-5.336h-16.11l1.499 5.336" transform="matrix(14.86 0 0-14.86 33.909 474.62)"/><path d="m0 0h2.158l-.19-.67h-1.401l-.184-.654h1.293l-.19-.664h-1.293l-.222-.773h1.402l-.186-.67h-2.158l.971 3.431" transform="matrix(14.86 0 0-14.86-161.24 488.7)"/><path d="m0 0l.034.176.689 2.436h.757l-.662-2.333-.033-.16c-.022-.206.074-.32.435-.32.412 0 .579.165.661.449l.671 2.364h.757l-.689-2.436c-.165-.577-.504-1.046-1.55-1.046-.829 0-1.119.417-1.07.87" transform="matrix(14.86 0 0-14.86-130.34 527.52)"/><path d="m0 0l.031.144c.019.175-.082.247-.345.247h-.628l-.291-1.035h.649c.335 0 .435.124.51.386l.074.258m-.902-1.298h-.52l-.301-1.072h-.757l.971 3.431h1.314c.737 0 1.067-.278 1.013-.783l-.043-.211-.116-.412c-.119-.428-.303-.701-.746-.85l.523-1.175h-.85l-.488 1.072" transform="matrix(14.86 0 0-14.86-48.714 504.47)"/><path d="m0 0c.023.211-.103.34-.469.34-.391 0-.615-.17-.696-.443l-.373-1.308-.022-.119c-.023-.206.099-.325.469-.325.392 0 .614.15.697.444l.372 1.308.022.103m-2.337-1.612l.033.159.399 1.417c.182.639.617 1.046 1.586 1.046.813 0 1.145-.464 1.095-.933l-.032-.154-.398-1.401c-.183-.655-.612-1.046-1.627-1.046-.808 0-1.106.448-1.056.912" transform="matrix(14.86 0 0-14.86.83 502.94)"/></g><g fill="#a7012d"><path d="m0 0l.227.583c.319-.098.584-.17.914-.17.402 0 .503.077.586.376l.041.18c.016.154-.083.196-.488.304-.557.144-.746.345-.703.747.011.108.04.232.081.371.231.762.454.917 1.386.917.263 0 .69-.057.985-.134l-.202-.634c-.296.072-.682.119-.914.119-.371 0-.449-.052-.525-.325l-.04-.185c-.018-.165.082-.191.473-.294.622-.16.776-.355.738-.706-.011-.108-.039-.226-.08-.366-.199-.705-.479-1.01-1.453-1.01-.283 0-.773.098-1.026.226" transform="matrix(14.86 0 0-14.86 27.831 537.09)"/><path d="m0 0l.031.149c.019.175-.075.257-.307.257h-.639l-.299-1.061h.623c.351 0 .441.124.515.382l.076.273m-1.402-1.309l-.298-1.046h-.758l.971 3.431h1.309c.736 0 1.062-.283 1.01-.772l-.059-.263-.109-.387c-.182-.638-.479-.963-1.386-.963h-.679" transform="matrix(14.86 0 0-14.86 105.79 504.69)"/><path d="m0 0c.023.211-.103.34-.469.34-.391 0-.615-.17-.696-.443l-.372-1.308-.023-.119c-.022-.206.099-.325.469-.325.392 0 .615.15.698.444l.372 1.308.021.103m-2.337-1.612l.033.159.399 1.417c.182.639.617 1.046 1.586 1.046.814 0 1.145-.464 1.095-.933l-.032-.154-.398-1.401c-.183-.655-.612-1.046-1.627-1.046-.808 0-1.106.448-1.056.912" transform="matrix(14.86 0 0-14.86 153.13 502.94)"/><path d="m0 0l.031.144c.019.175-.081.247-.344.247h-.628l-.292-1.035h.649c.335 0 .436.124.51.386l.074.258m-.901-1.298h-.52l-.301-1.072h-.757l.971 3.431h1.313c.737 0 1.068-.278 1.013-.783l-.043-.211-.116-.412c-.118-.428-.302-.701-.745-.85l.523-1.175h-.85l-.488 1.072" transform="matrix(14.86 0 0-14.86 199.74 504.47)"/><path d="m0 0h-.762l.78 2.761h-.927l.191.67h2.617l-.191-.67h-.927l-.781-2.761" transform="matrix(14.86 0 0-14.86 230.26 539.69)"/></g><g fill="#bdc0c2"><path d="m0 0l-.892.638-1.392-.636.866 1.016-.866.617h1.392l.892 1.046v-1.046h1.28l-1.28-.588v-1.047" transform="matrix(14.86 0 0-14.86-93.28 608.08)"/><path d="m0 0l-.892.638-1.392-.636.866 1.016-.866.617h1.392l.892 1.045v-1.045h1.28l-1.28-.588v-1.047" transform="matrix(14.86 0 0-14.86-51.2 647.31)"/></g><g clip-path="url(#2)" transform="matrix(14.86 0 0-14.86-13640 1837.6)"><path fill="url(#4)" d="m918.65 86.39h16.12l-1.516-5.336h-16.1l1.501 5.336"/></g><g fill="#430308"><path d="m0 0c.328 0 .446.093.508.318l.058.211c.059.215-.021.261-.344.261-.226 0-.458-.025-.727-.072l.082.58c.309.061.574.092.876.092.857 0 1.017-.256.876-.769l-.066-.241c-.083-.302-.249-.533-.531-.682.252-.128.321-.308.232-.631l-.071-.261c-.138-.503-.464-.831-1.398-.831-.312 0-.567.026-.809.113l.233.569c.238-.046.422-.067.72-.067.359 0 .476.072.531.272l.064.236c.053.19-.043.272-.299.272h-.677l.173.63h.569" transform="matrix(14.86 0 0-14.86 82.62 590.96)"/><path d="m0 0l.062.226c.057.21-.048.256-.181.256-.17 0-.328-.036-.467-.092l-.107-.39c-.064-.236-.001-.318.257-.318.266 0 .375.097.436.318m-1.421.036l.343 1.251c.255.928.953 1.174 1.897 1.174.148 0 .334-.015.491-.041l-.217-.605c-.104.016-.265.026-.342.026-.687 0-.972-.123-1.089-.549l-.069-.251c.2.056.375.077.585.077.575 0 .799-.246.63-.862l-.06-.22c-.141-.513-.472-.99-1.359-.99s-.958.451-.81.99" transform="matrix(14.86 0 0-14.86 125.27 606.87)"/><path d="m0 0c-.07-.256-.028-.364.295-.364s.425.108.495.364l.383 1.395c.07.256.028.364-.295.364s-.424-.108-.495-.364l-.383-1.395m1.5-.102c-.14-.513-.515-.908-1.382-.908s-1.025.395-.884.908l.439 1.6c.141.512.516.907 1.382.907.867 0 1.025-.395.884-.907l-.439-1.6" transform="matrix(14.86 0 0-14.86 155.05 606.04)"/></g><g fill="#fff"><path d="m0 0c.328 0 .446.092.508.318l.058.21c.059.216-.021.262-.344.262-.226 0-.458-.026-.727-.072l.082.58c.309.061.574.092.876.092.857 0 1.017-.257.876-.769l-.066-.241c-.083-.303-.249-.534-.531-.682.252-.129.321-.308.232-.631l-.071-.262c-.138-.502-.464-.83-1.397-.83-.313 0-.568.025-.81.113l.233.569c.238-.046.422-.067.72-.067.359 0 .476.072.531.272l.065.236c.052.189-.044.271-.3.271h-.677l.173.631h.569" transform="matrix(14.86 0 0-14.86 79.07 589.77)"/><path d="m0 0l.062.225c.057.21-.048.256-.181.256-.17 0-.328-.035-.467-.092l-.107-.389c-.064-.236-.001-.318.257-.318.266 0 .375.097.436.318m-1.421.035l.343 1.252c.255.928.953 1.174 1.897 1.174.148 0 .334-.016.491-.041l-.217-.605c-.104.015-.265.025-.342.025-.687 0-.972-.123-1.089-.548l-.069-.252c.2.057.375.077.585.077.575 0 .799-.246.63-.861l-.06-.221c-.141-.512-.472-.989-1.359-.989s-.958.451-.81.989" transform="matrix(14.86 0 0-14.86 121.72 605.68)"/><path d="m0 0c-.07-.256-.028-.364.295-.364s.425.108.495.364l.383 1.395c.07.256.028.364-.295.364s-.424-.108-.495-.364l-.383-1.395m1.5-.103c-.14-.512-.515-.907-1.382-.907s-1.025.395-.884.907l.439 1.6c.141.513.516.908 1.382.908.867 0 1.025-.395.884-.908l-.439-1.6" transform="matrix(14.86 0 0-14.86 151.5 604.85)"/></g></g></svg>