<svg xmlns="http://www.w3.org/2000/svg" viewBox="0 0 600 600"><g transform="translate(9.974-31.641)"><path d="m-9.974 31.641h600v600h-600v-600" fill="#96999b"/><g fill="#fff"><path d="m290.05 169.32c-64.23 0-116.3 52.06-116.3 116.3 0 64.23 52.06 116.3 116.3 116.3 64.23 0 116.3-52.06 116.3-116.3 0-64.23-52.06-116.3-116.3-116.3"/><path d="m187.25 448.92h-.198v.198 25.535c0 3.109-1.125 6.02-3.109 8.137-1.985 1.985-4.565 3.109-7.343 3.109s-5.424-1.125-7.343-3.109c-2.051-2.117-3.175-5.03-3.175-8.137v-25.535-.198h-.132-8.07-.132v.198 25.535c0 5.623 1.852 10.452 5.358 13.958 3.44 3.44 8.203 5.358 13.495 5.358 5.226 0 10.06-1.918 13.429-5.358 3.572-3.506 5.424-8.335 5.424-13.958v-25.535-.198h-.198-8"/><path d="m258.35 481.75c-2.58 2.646-6.152 4.168-10.121 4.168-3.969 0-7.607-1.522-10.121-4.168-2.58-2.712-4.04-6.549-4.04-10.783 0-4.234 1.455-8.07 4.04-10.783 2.514-2.646 6.152-4.168 10.121-4.168 3.969 0 7.541 1.522 10.121 4.168 2.58 2.712 3.969 6.549 3.969 10.783 0 4.234-1.389 8.07-3.969 10.783m5.887-27.321c-4.3-4.168-9.989-6.417-16.01-6.417-6.086 0-11.775 2.249-16.01 6.417-4.432 4.234-6.88 10.121-6.88 16.538 0 6.417 2.448 12.37 6.88 16.604 4.234 4.101 9.923 6.351 16.01 6.351 6.02 0 11.709-2.249 16.01-6.351 4.432-4.3 6.88-10.187 6.88-16.604 0-6.417-2.448-12.304-6.88-16.538"/><path d="m296.34 448.01c-5.292 0-10.06 1.918-13.495 5.358-3.506 3.506-5.358 8.335-5.358 13.958v25.535.198h.132 8.07.198v-.198-25.535c0-3.109 1.058-6.02 3.109-8.137 1.918-2.051 4.565-3.175 7.343-3.175s5.425 1.125 7.343 3.175c2.051 2.117 3.109 5.03 3.109 8.137v25.535.198h.198 8.07.132v-.198-25.535c0-5.623-1.852-10.452-5.358-13.958-3.44-3.44-8.203-5.358-13.495-5.358"/><path d="m422.05 448.92h-.198v.198 27.916c0 5.358-2.977 8.864-7.674 8.864-5.557 0-8.335-3.44-8.335-10.187v-26.593-.198h-.198-8-.198v.198 26.593c0 6.748-2.844 10.187-8.401 10.187-4.631 0-7.674-3.506-7.674-8.864v-27.916-.198h-.132-8.07-.132v.198 29.702c0 8.467 6.946 15.15 15.877 15.15 5.292 0 9.923-2.249 12.767-6.086 2.712 3.837 7.343 6.086 12.701 6.086 8.93 0 15.877-6.681 15.877-15.15v-29.702-.198h-.198-8"/><path d="m455.87 466.33c-5.358-1.455-9.989-2.778-9.989-5.755.198-2.448.992-3.638 5.03-3.638h20.243.198v-.198-7.608-.198h-.198-18.853c-9.791 0-15.15 4.234-15.15 12.04 0 3.969 1.852 7.01 5.689 9.394 3.308 2.051 7.608 3.308 11.444 4.432 5.623 1.588 10.452 2.977 10.452 6.218 0 2.778-1.522 3.969-4.961 3.969h-22.426-.198v.198 7.674.198h.198 22.426c3.969 0 7.409-1.058 9.791-3.043 2.58-2.183 3.969-5.425 3.969-9.327 0-9.394-9.791-12.172-17.663-14.355"/><path d="m202.76 465.65v26.858.132h.198 7.409.198v-.132-26.858c0-4.961 1.522-10.717 13.495-10.717h.198v-.198-7.409-.198h-.198c-18.523 0-21.301 11.643-21.301 18.523"/><path d="m143.06 477.62l-.132-.066-.132.132c-1.191 2.315-2.977 4.3-5.292 5.755-7.078 4.432-16.472 2.315-20.904-4.763-2.183-3.374-2.844-7.475-1.985-11.378.926-3.969 3.308-7.343 6.681-9.526 5.03-3.175 11.444-3.043 16.406.198l-13.363 10.981-.132.132.132.132 4.565 5.689.132.132.132-.132 19.647-16.07.132-.132-.132-.132-.132-.198c-3.241-5.094-8.335-8.666-14.289-9.989-5.887-1.389-12.04-.331-17.13 2.977-5.16 3.175-8.732 8.269-10.121 14.223-1.323 5.954-.265 12.04 2.977 17.2 6.748 10.65 20.838 13.826 31.488 7.144 3.374-2.117 6.152-5.16 8-8.666l.066-.132-.132-.132-6.483-3.374"/><path d="m357.81 477.62l-.132-.066-.132.132c-1.191 2.315-3.043 4.3-5.292 5.755-7.078 4.432-16.472 2.315-20.904-4.763-2.183-3.374-2.844-7.475-1.985-11.378.926-3.969 3.241-7.343 6.681-9.526 5.03-3.175 11.444-3.043 16.406.198l-13.363 10.981-.132.132.066.132 4.631 5.689.132.132.132-.132 19.581-16.07.198-.132-.132-.132-.132-.198c-6.681-10.584-20.838-13.76-31.422-7.01-5.16 3.175-8.798 8.269-10.121 14.223-1.323 5.954-.265 12.04 2.977 17.2 6.748 10.65 20.838 13.826 31.488 7.144 3.374-2.117 6.152-5.16 8-8.666l.066-.132-.198-.132-6.417-3.374"/></g></g></svg>