<svg xmlns="http://www.w3.org/2000/svg" height="46.18" width="600" viewBox="0 0 158.75 12.218668"><g stroke-width=".434" transform="translate(-125.49-166.91)"><g fill="#141b4d"><path d="m135.89 178.92-3.94-2.6-6.07 2.6 3.6-4.21-3.99-2.6h6.2l4.2-4.94v4.94h5.98l-5.98 2.56z"/><path d="m143.35 169.6c.22 0 .39-.18.39-.39v-1.65c0-.22-.17-.39-.39-.39h-6.46v2.43z"/><path d="m143.35 178.92c.22 0 .39-.18.39-.39v-1.65c0-.22-.17-.39-.39-.39h-6.46v2.43z"/><path d="m229.7 167.17h-8.02c-.21 0-.39.17-.39.39v1.65c0 .21.18.39.39.39h2.82v8.97c0 .22.17.39.39.39h1.65c.22 0 .39-.17.39-.39v-8.97h2.82c.21 0 .39-.18.39-.39v-1.65c-.05-.22-.22-.39-.44-.39"/><path d="m197.67 169.81c-.18-.52-.48-.99-.87-1.38s-.82-.7-1.34-.91c-.52-.22-1.13-.35-1.78-.35h-4.38c-.22 0-.39.17-.39.39v11.01c0 .22.17.39.39.39h1.65c.21 0 .39-.17.39-.39v-2.82h2.34c.65 0 1.26-.13 1.78-.35.52-.21.95-.52 1.34-.91s.65-.82.87-1.34c.17-.52.3-1.13.3-1.69-.04-.61-.13-1.13-.3-1.65m-2.3 2.39c-.09.21-.22.43-.35.6-.17.18-.34.26-.52.35-.21.09-.56.13-1.3.13h-1.86v-3.68h2.43c.26 0 .52.04.69.13.22.08.39.21.56.39.13.17.26.34.35.56s.13.48.13.78c0 .26-.04.52-.13.74"/><path d="m181.19 170.55c0 .26.05.39.13.52.09.13.26.26.44.39.21.09.43.17.73.26.31.09.61.13.91.17.57.09 1.13.22 1.65.35.57.13 1.04.35 1.48.61.43.26.78.65.99 1.08.26.48.35 1.04.35 1.74-.04.65-.22 1.25-.52 1.69-.3.43-.69.82-1.17 1.08s-.91.48-1.47.56c-.57.09-1.18.13-1.7.13-1.34-.04-3.29-.82-4.29-2.16-.08-.13-.17-.31.05-.52.21-.22 1.21-1.26 1.21-1.26.22-.22.39-.05.48.04.56.87 1.73 1.48 2.64 1.52.48 0 .52 0 .82-.04.26-.05.52-.09.74-.22.22-.09.39-.22.52-.39s.22-.39.22-.65-.04-.48-.17-.61c-.13-.17-.31-.3-.52-.43-.22-.13-.53-.22-.83-.26-.3-.05-.65-.13-.95-.18-.52-.08-1.04-.17-1.52-.3-.52-.13-.95-.35-1.34-.61s-.74-.6-.96-1.04c-.26-.43-.34-.91-.34-1.56.04-.6.17-1.17.47-1.64.26-.44.65-.83 1.09-1.13.43-.26.91-.48 1.47-.61 1.04-.26 2.12-.22 3.17.13 1.12.35 2.03 1.22 2.47 1.82.08.13.17.31 0 .48l-1.17 1.17c-.22.22-.44.17-.57-.04-.6-.91-1.39-1.3-2.3-1.35-1.04 0-2.16.22-2.21 1.26"/><path d="m176.16 168.6c-.56-.52-1.17-.91-1.9-1.17-.74-.26-1.48-.39-2.3-.39-.78 0-1.56.13-2.25.39-.74.26-1.39.65-1.91 1.17-.57.52-1 1.17-1.3 1.91-.31.73-.48 1.6-.48 2.55 0 .96.17 1.82.48 2.56.3.74.73 1.39 1.3 1.91.56.52 1.17.91 1.91 1.17.73.26 1.47.39 2.29.39.87 0 1.69-.13 2.43-.43.74-.31 1.39-.7 1.91-1.26.52-.52.95-1.17 1.26-1.91.3-.74.43-1.56.43-2.47 0-.95-.17-1.82-.48-2.56-.39-.69-.86-1.34-1.39-1.86m-.95 6.11c-.17.43-.43.83-.74 1.13-.3.3-.69.52-1.12.69-.44.18-.87.22-1.39.22-.48 0-.95-.09-1.39-.22-.43-.17-.78-.39-1.08-.69s-.56-.7-.74-1.13c-.17-.48-.3-1-.3-1.6 0-.61.09-1.17.3-1.61.18-.47.44-.82.74-1.12.3-.31.69-.52 1.13-.7.43-.17.91-.26 1.38-.26.48 0 .96.09 1.39.26.43.18.78.39 1.08.7.31.3.57.69.74 1.17.17.47.3.99.3 1.6-.04.52-.13 1.08-.3 1.56"/><path d="m208.94 168.6c-.57-.52-1.17-.91-1.91-1.17s-1.47-.39-2.3-.39c-.78 0-1.56.13-2.25.39-.74.26-1.39.65-1.91 1.17-.56.52-1 1.17-1.3 1.91-.3.73-.48 1.6-.48 2.55 0 .96.18 1.82.48 2.56s.74 1.39 1.3 1.91 1.17.91 1.91 1.17 1.47.39 2.3.39c.86 0 1.69-.13 2.42-.43.74-.31 1.39-.7 1.91-1.26.52-.52.96-1.17 1.26-1.91s.43-1.56.43-2.47c0-.95-.17-1.82-.47-2.56-.39-.69-.83-1.34-1.39-1.86m-.96 6.11c-.17.43-.43.83-.73 1.13-.31.3-.7.52-1.13.69-.43.18-.87.22-1.39.22-.47 0-.95-.09-1.38-.22-.44-.17-.78-.39-1.09-.69-.3-.3-.56-.7-.73-1.13-.18-.48-.31-1-.31-1.6 0-.61.09-1.17.31-1.61.17-.47.43-.82.73-1.12.31-.31.7-.52 1.13-.7.43-.17.91-.26 1.39-.26.47 0 .95.09 1.38.26.44.18.78.39 1.09.7.3.3.56.69.73 1.17.18.47.31.99.31 1.6 0 .52-.13 1.08-.31 1.56"/><path d="m153.93 167.17h-1.65c-.22 0-.39.17-.39.39v7.28c0 .3-.04.56-.17.83-.09.21-.26.43-.44.56-.17.17-.39.26-.65.35-.26.08-.69.13-1 .13-.3 0-.78-.05-1.04-.13-.26-.09-.47-.22-.65-.35-.17-.13-.3-.35-.43-.56-.09-.22-.17-.53-.17-.83v-7.28c0-.22-.18-.39-.39-.39h-1.65c-.22 0-.39.17-.39.39v7.32c0 .7.13 1.31.39 1.83s.61.95 1.04 1.34c.43.35.95.65 1.52.82.56.18 1.17.26 1.77.26.61 0 1.22-.08 1.78-.26.57-.17 1.09-.47 1.48-.82.43-.35.78-.82.99-1.34.26-.52.39-1.13.39-1.83v-7.32c.05-.22-.13-.39-.34-.39"/><path d="m165.54 178.31l-2.68-3.34s2.16-.78 2.16-3.55c0-.57-.08-1.13-.3-1.65-.17-.52-.48-1-.87-1.39s-.82-.69-1.34-.91c-.52-.21-1.13-.34-1.78-.34h-4.33c-.22 0-.39.17-.39.39v11.01c0 .21.17.39.39.39h1.64c.22 0 .39-.18.39-.39v-8.93h2.43c.26 0 .52.04.7.13.21.08.39.21.56.39.13.17.26.34.35.56.08.22.13.48.13.78 0 .26-.05.52-.13.74-.09.21-.22.43-.35.6-.17.18-.35.26-.52.35-.22.09-.56.13-1.3.13h-1.04s-.35.17-.22.43l3.82 5.03c.08.09.17.18.3.18h2.12c.35.04.57-.26.26-.61"/><path d="m221.42 178.31l-2.68-3.34s2.16-.78 2.16-3.55c0-.57-.08-1.13-.3-1.65-.17-.52-.48-1-.87-1.39s-.82-.69-1.34-.91c-.52-.21-1.13-.34-1.78-.34h-4.38c-.21 0-.39.17-.39.39v11.01c0 .21.18.39.39.39h1.65c.22 0 .39-.18.39-.39v-8.98h2.43c.26 0 .52.05.69.13.22.09.39.22.56.39.14.18.27.35.35.57.09.21.13.47.13.78 0 .26-.04.52-.13.73-.08.22-.21.44-.35.61-.17.17-.34.26-.52.35-.21.08-.56.13-1.3.13h-1.04c-.21 0-.34.17-.21.43l3.81 5.03c.09.09.18.17.31.17h2.12c.39.09.56-.21.3-.56"/></g><path fill="#de0038" d="m283.54 179.13h-48.37c-.35 0-.66-.3-.66-.65v-10.83c0-.35.31-.66.66-.66h48.42c.34 0 .65.31.65.66v10.83c0 .35-.31.65-.7.65"/><g fill="#fff"><path d="m263.3 174.02v2.99c0 .17-.13.26-.3.26h-1.13c-.17 0-.3-.13-.3-.26v-2.99l-2.87-4.64c-.13-.17 0-.35.18-.35h1.39c.21 0 .26.05.34.18l1.82 3.07 1.82-3.12c.09-.13.13-.17.35-.17h1.39c.17 0 .3.17.17.35z"/><path d="m256.19 174.02l-.91-2.08-.91 2.08zm-1.26-4.99c-.17 0-.21.09-.26.22l-3.47 7.72c-.04.17 0 .3.22.3h1.3c.22 0 .31-.09.35-.26l.56-1.34h3.25l.57 1.34c.08.17.13.26.34.26h1.3c.26 0 .26-.17.22-.3l-3.42-7.76c-.05-.13-.09-.22-.26-.22h-.7z" fill-rule="evenodd"/><path d="m249.86 175.58h-2.86v-6.33c0-.13-.13-.26-.26-.26h-1.17c-.13 0-.26.13-.26.26v7.76c0 .13.13.26.26.26h4.33c.13 0 .26-.13.26-.26v-1.17c-.04-.13-.17-.26-.3-.26"/><path d="m272.79 175.58h-3.59v-1.56h3.03c.13 0 .26-.13.26-.26v-1.17c0-.13-.13-.26-.26-.26h-3.03v-1.61h3.59c.13 0 .26-.13.26-.3v-1.17c0-.13-.13-.26-.26-.26h-5.03c-.13 0-.26.09-.26.26v7.76c0 .13.13.26.26.26h5.03c.13 0 .26-.13.26-.26v-1.17c0-.13-.13-.26-.26-.26"/><path d="m277.95 169.03c1.74 0 3.04 1.22 3.04 2.99 0 1.95-1.52 2.56-1.52 2.56l1.91 2.34c.13.18.04.39-.18.39h-1.51c-.09 0-.18-.04-.26-.17l-2.65-3.47c-.08-.13 0-.3.13-.3h.74c.52 0 .78-.05.91-.09.13-.09.26-.13.39-.26.09-.13.17-.26.26-.43.04-.18.09-.35.09-.52 0-.18-.05-.35-.09-.52-.04-.18-.13-.31-.26-.39-.09-.13-.22-.22-.39-.26-.13-.09-.3-.09-.52-.09h-1.74v6.29c0 .13-.13.26-.26.26h-1.17c-.13 0-.26-.13-.26-.26v-7.81c0-.13.13-.26.26-.26z"/><path d="m240.97 169.03h-2.99c-.13 0-.26.13-.26.26v7.72c0 .13.13.26.26.26h1.17c.13 0 .26-.13.26-.26v-2h1.56c2.13 0 3.08-1.51 3.08-2.99 0-1.51-.99-2.99-3.08-2.99m-1.56 4.29v-2.6h1.69c.74 0 1.22.57 1.22 1.3 0 .74-.48 1.3-1.22 1.3z"/></g></g></svg>