<svg xmlns="http://www.w3.org/2000/svg" height="60.3" width="600" viewBox="0 0 158.75 15.955665" xmlns:xlink="http://www.w3.org/1999/xlink"><g transform="translate(-26.458-102.3)"><g fill="#131b4d"><path d="m40.12 117.98l-5.165-3.4-7.984 3.39 4.701-5.52-5.219-3.43h8.14l5.527-6.47v6.47h7.889l-7.889 3.37v5.59" id="0"/><path d="m49.923 105.71c.277 0 .501-.23.501-.5v-2.17c0-.28-.225-.5-.501-.5h-8.459v3.17h8.458" id="1"/><path d="m49.923 118.01c.277 0 .501-.23.501-.5v-2.17c0-.28-.225-.5-.501-.5h-8.459v3.17h8.458" id="2"/><path d="m163.44 102.53h-10.57c-.27 0-.5.23-.5.5v2.18c0 .27.23.5.5.5h3.7v11.81c0 .28.22.5.5.5h2.17c.28 0 .51-.22.51-.5v-11.81h3.69c.28 0 .5-.23.5-.5v-2.18c0-.27-.22-.5-.5-.5" id="3"/><path d="m118.32 109.15c-.11.31-.27.57-.48.79-.2.22-.42.36-.7.48-.27.12-.75.19-1.69.19h-2.44v-4.9h3.2c.34 0 .66.06.93.18.28.13.53.3.73.51s.35.47.46.76c.11.31.17.65.17 1s-.06.69-.18.99m3-3.15c-.25-.68-.63-1.28-1.11-1.79-.49-.51-1.09-.92-1.78-1.22-.69-.31-1.48-.46-2.35-.46h-5.75c-.27 0-.5.23-.5.5v14.48c0 .27.23.5.5.5h2.17c.28 0 .51-.23.51-.5v-3.71h3.07c.87 0 1.65-.15 2.34-.45.69-.29 1.28-.7 1.77-1.21.48-.5.86-1.1 1.12-1.76.25-.67.38-1.51.38-2.24 0-.74-.12-1.46-.37-2.14" id="4"/><path d="m99.7 106.97c-.014.32.069.52.191.69.134.2.334.36.574.49.27.14.6.25.96.33.39.09.8.17 1.2.24.74.11 1.46.26 2.16.43.72.18 1.36.45 1.91.8.56.37 1.01.86 1.34 1.45.32.6.47 1.37.43 2.28-.04.88-.27 1.63-.67 2.23s-.92 1.08-1.53 1.44c-.61.35-1.21.62-1.95.75-.72.14-1.53.18-2.24.15-1.76-.08-4.359-1.09-5.662-2.87-.103-.15-.23-.39.049-.67.28-.29 1.619-1.65 1.619-1.65.271-.29.533-.08.645.08.762 1.11 2.279 1.95 3.479 2 .62.03.7 0 1.09-.05.35-.05.67-.14.97-.27.27-.13.49-.29.67-.52.17-.21.26-.51.29-.86.02-.33-.07-.6-.23-.82-.17-.23-.4-.41-.68-.56-.31-.16-.67-.26-1.06-.34-.43-.08-.85-.15-1.26-.21-.68-.08-1.36-.22-2.01-.41-.673-.19-1.274-.46-1.788-.81-.534-.35-.965-.81-1.281-1.37-.322-.57-.47-1.21-.435-2.02.036-.82.24-1.54.605-2.14.362-.6.837-1.09 1.412-1.46.562-.37 1.209-.63 1.923-.8 1.39-.31 2.78-.26 4.16.18 1.48.47 2.67 1.61 3.22 2.41.1.15.2.38-.001.63-.22.24-1.53 1.52-1.53 1.52-.28.27-.57.21-.73-.03-.8-1.18-1.84-1.71-3.04-1.79-1.29-.08-2.736.2-2.795 1.55" id="5"/><path d="m91.8 112.42c-.243.6-.579 1.11-.997 1.51-.419.4-.911.7-1.463.91-.56.2-1.168.31-1.804.31-.651 0-1.265-.11-1.826-.31-.549-.21-1.032-.51-1.436-.91-.406-.4-.736-.91-.981-1.51-.246-.6-.371-1.31-.371-2.12s.125-1.52.371-2.12c.244-.6.577-1.11.99-1.51.411-.4.9-.71 1.454-.92.559-.21 1.172-.32 1.821-.32.634 0 1.239.11 1.798.32.552.21 1.04.52 1.452.93.414.41.747.92.992 1.52.247.6.371 1.31.371 2.1 0 .81-.124 1.52-.371 2.12m1.268-8.02c-.716-.68-1.559-1.21-2.507-1.56-.941-.35-1.95-.53-2.998-.53-1.034 0-2.039.18-2.986.53-.955.35-1.805.88-2.527 1.56-.723.68-1.305 1.53-1.73 2.52s-.641 2.12-.641 3.36c0 1.26.212 2.39.63 3.37s.993 1.82 1.708 2.51c.714.68 1.558 1.2 2.507 1.56.941.35 1.95.53 2.998.53 1.147 0 2.218-.19 3.182-.58.971-.38 1.815-.93 2.51-1.64.691-.7 1.239-1.55 1.628-2.53.388-.97.584-2.05.584-3.22 0-1.24-.216-2.37-.64-3.36-.426-.99-1-1.84-1.718-2.52" id="6"/><path d="m134.9 112.42c-.24.6-.58 1.11-1 1.51-.41.4-.91.7-1.46.91-.56.2-1.17.31-1.8.31-.65 0-1.27-.11-1.83-.31-.55-.21-1.03-.51-1.43-.91-.41-.4-.74-.91-.98-1.51-.25-.6-.38-1.31-.38-2.12s.13-1.52.38-2.12c.24-.6.57-1.11.98-1.51.42-.4.9-.71 1.46-.92s1.17-.32 1.82-.32c.63 0 1.24.11 1.8.32.55.21 1.04.52 1.45.93s.75.92.99 1.52c.25.6.37 1.31.37 2.1 0 .81-.12 1.52-.37 2.12m1.27-8.02c-.72-.68-1.56-1.21-2.51-1.56-.94-.35-1.95-.53-3-.53-1.03 0-2.03.18-2.98.53-.96.35-1.81.88-2.53 1.56s-1.3 1.53-1.73 2.52c-.42.99-.64 2.12-.64 3.36 0 1.26.21 2.39.63 3.37s.99 1.82 1.71 2.51c.71.68 1.56 1.2 2.51 1.56.94.35 1.94.53 2.99.53 1.15 0 2.22-.19 3.19-.58.97-.38 1.81-.93 2.51-1.64.69-.7 1.23-1.55 1.62-2.53.39-.97.59-2.05.59-3.22 0-1.24-.22-2.37-.64-3.36-.43-.99-1.01-1.84-1.72-2.52" id="7"/><path d="m63.84 102.53h-2.179c-.277 0-.503.23-.503.5v9.58c0 .41-.068.77-.203 1.07-.134.29-.319.54-.551.74-.239.21-.527.37-.856.48-.339.11-.912.17-1.31.17-.401 0-1.01-.06-1.352-.17-.337-.11-.632-.27-.878-.48-.237-.2-.424-.45-.558-.74-.135-.3-.203-.66-.203-1.07v-9.58c0-.27-.225-.5-.503-.5h-2.171c-.277 0-.503.23-.503.5v9.66c0 .89.166 1.68.493 2.37.326.68.781 1.27 1.351 1.75.565.47 1.227.83 1.967 1.07.73.24 1.523.36 2.357.36.819 0 1.605-.12 2.335-.36.743-.24 1.4-.6 1.952-1.08.554-.48 1-1.06 1.325-1.74.327-.69.493-1.49.493-2.37v-9.66c0-.27-.225-.5-.503-.5" id="8"/><path d="m79.11 117.17l-3.529-4.38s2.849-1.04 2.849-4.65c0-.74-.125-1.46-.371-2.14-.251-.68-.625-1.28-1.112-1.79-.486-.51-1.083-.92-1.776-1.22-.695-.31-1.486-.46-2.35-.46h-5.743c-.277 0-.503.23-.503.5v14.48c0 .27.226.5.503.5h2.166c.277 0 .502-.23.502-.5v-11.8h3.216c.342 0 .657.06.935.18.281.13.526.3.726.51.199.21.354.47.461.76.111.31.167.65.167 1s-.059.69-.174.99c-.115.31-.276.57-.479.79-.2.22-.429.36-.704.48-.27.12-.753.19-1.694.19h-1.345c-.266 0-.47.24-.267.57l5.03 6.62c.093.13.246.21.408.21h2.778c.409 0 .682-.38.305-.84" id="9"/><path d="m152.56 117.17l-3.53-4.38s2.85-1.04 2.85-4.65c0-.74-.13-1.46-.37-2.14-.25-.68-.63-1.28-1.11-1.79-.49-.51-1.09-.92-1.78-1.22-.7-.31-1.49-.46-2.35-.46h-5.74c-.28 0-.51.23-.51.5v14.48c0 .27.23.5.51.5h2.16c.28 0 .5-.23.5-.5v-11.8h3.22c.34 0 .66.06.94.18.28.13.52.3.72.51s.36.47.46.76c.11.31.17.65.17 1s-.06.69-.18.99c-.11.31-.27.57-.47.79s-.43.36-.71.48c-.27.12-.75.19-1.69.19h-1.35c-.26 0-.47.24-.26.57l5.03 6.62c.09.13.24.21.41.21h2.77c.41 0 .69-.38.31-.84" id="A"/><use xlink:href="#0"/><use xlink:href="#1"/><use xlink:href="#2"/><use xlink:href="#3"/><use xlink:href="#4"/><use xlink:href="#5"/><use xlink:href="#6"/><use xlink:href="#7"/><use xlink:href="#8"/><use xlink:href="#9"/><use xlink:href="#A"/></g><path d="m184.69 118.26h-14.42c-.29 0-.52-.23-.52-.52v-14.92c0-.29.23-.52.52-.52h14.42c.29 0 .52.23.52.52v14.92c0 .29-.23.52-.52.52" fill="#d50032"/><path d="m179.24 105.12c0-.19-.16-.35-.36-.35h-3.61c-.2 0-.36.16-.36.35v1.56c0 .21.14.36.35.36h1.54v8.4c0 .19.15.35.34.35h1.76c.2 0 .34-.16.34-.35v-10.32" fill="#fff"/></g></svg>