<svg xmlns="http://www.w3.org/2000/svg" viewBox="0 0 600 158.93"><g transform="translate(-71.64-154.8)"><g fill="#e8e8e8"><path d="m71.64 278.21h54.777v-16.529h-54.777v16.529"/><path d="m71.64 243.11h54.777v-16.529h-54.777v16.529"/><path d="m71.64 208.03h54.777v-16.529h-54.777v16.529"/></g><path fill="#8b1b1f" d="m110.51 154.8h38.579l45.21 55.38 45.44-55.38h38.34l-64.733 79.78 64.733 79.14h-38.34l-45.44-55.38-45.21 55.38h-38.627l64.756-79.13-.367-.449-64.34-79.35"/><g fill="#e8e8e8"><path d="m289.28 191.39h-32.372v16.647h16.647 15.725c8.678 0 12.556 6.656 12.556 13.266 0 6.538-3.878 13.148-12.556 13.148h-15.725l-16.647.012v43.734h16.647v-27.336h15.725c19.02 0 28.979-14.933 28.979-29.676 0-14.803-9.955-29.795-28.979-29.795"/><path d="m339.28 191.51h-16.529v86.69h55.13v-16.529h-38.603v-70.16"/><path d="m418.44 262.61c-7.177 0-14.223-2.991-19.343-8.229-5.238-5.226-8.111-12.19-8.111-19.579 0-7.401 2.873-14.353 8.123-19.603 5.108-5.214 12.154-8.217 19.331-8.217 7.212 0 14.354 3 19.556 8.217 5.179 5.285 8.02 12.237 8.02 19.603 0 7.354-2.838 14.318-7.993 19.579-5.226 5.226-12.367 8.229-19.579 8.229m0-72.28c-11.622 0-23.02 4.788-31.25 13.148-8.288 8.56-12.852 19.674-12.852 31.32 0 11.634 4.564 22.748 12.852 31.31 8.099 8.359 19.497 13.148 31.25 13.148 11.871 0 23.01-4.67 31.367-13.148 8.288-8.56 12.852-19.674 12.852-31.31 0-11.646-4.564-22.76-12.876-31.344-8.466-8.465-19.591-13.12-31.344-13.12"/><path d="m492.71 246.4c13.325-4.055 19.343-15.843 19.343-26.508 0-18.716-14.637-28.494-29.1-28.494h-32.25v.426c1.998 1.513 3.913 3.169 5.711 4.978 3.334 3.441 6.16 7.224 8.466 11.232h2.235 15.843c8.631 0 12.568 6.148 12.568 11.859 0 5.959-3.878 11.977-12.568 11.977h-10.996c.047.97.083 1.951.083 2.92 0 3.689-.39 7.33-1.123 10.877l27.02 32.538h21.495l-26.721-31.805"/><path d="m560.67 238.2h-13.81l6.988-19.591 6.822 19.591m-.981-47.873h-11.859l-34.831 87.87h17.853l.568-1.513c1.927-5.072 4.942-12.497 9.222-22.653h26.331l9.849 24.17h17.688l-34.82-87.87"/></g><g fill="#e6e7e8"><path d="m616.6 207.83h-16.02v-17.428h-9.92v47.743h9.92v-20.809h16.02v20.809h9.92v-47.743h-9.92v17.428"/><path d="m645.35 228.64h-1.431v-28.719h1.431c5.297 0 9.305 1.23 11.93 3.642 2.956 2.755 4.386 6.255 4.386 10.724 0 4.41-1.454 7.886-4.434 10.617-1.442 1.301-3.086 2.27-4.836 2.861-1.833.579-4.209.875-7.05.875m18.882-32.06c-2.436-2.235-5.19-3.831-8.158-4.753-2.743-.934-6.491-1.407-11.126-1.407h-10.948v47.731h10.83c4.741 0 8.335-.426 10.948-1.312 2.838-.887 5.581-2.483 8.134-4.741 5.131-4.528 7.732-10.511 7.732-17.806 0-7.271-2.495-13.23-7.413-17.711"/></g></g></svg>