<svg xmlns="http://www.w3.org/2000/svg" viewBox="0 0 387 297"><g transform="translate(-382.42-489.77)" fill="#fff"><path d="m410.39 786.77c-2.661 0-4.873-.311-6.674-1.553l2.743-1.802c.942.59 2.539.808 3.931.808 1.72 0 2.539-.373 2.539-1.056 0-.28-.082-.528-.327-.683-.205-.155-.614-.249-1.188-.342l-2.129-.186c-1.515-.155-2.703-.497-3.481-1.025-.819-.559-1.228-1.336-1.228-2.361 0-2.112 2.416-3.696 6.429-3.696 2.498 0 4.381.404 5.896 1.429l-2.744 1.771c-1.065-.714-2.539-.683-3.276-.683-1.515 0-2.129.59-2.129 1.087 0 .155.082.342.327.559.205.124.614.28 1.188.342l2.17.186c1.515.155 2.662.466 3.44.963.942.621 1.31 1.46 1.31 2.578 0 2.361-3.112 3.666-6.797 3.666"/><path d="m439.09 778.76c0 .59-.696 1.18-1.924 1.18h-2.375v-2.392h2.375c1.228 0 1.924.621 1.924 1.212m4.3 0c0-1.926-2.088-3.759-5.978-3.759h-6.961v11.711h4.34v-4.194h2.621c3.89 0 5.978-1.864 5.978-3.759"/><path d="m464.85 780.84c0 2.112-.287 2.516-.655 2.858-.328.28-.942.528-1.72.528-.778 0-1.392-.249-1.72-.528-.41-.342-.655-.745-.655-2.858 0-2.174.246-2.516.655-2.858.328-.28.942-.528 1.72-.528.778 0 1.392.249 1.72.528.368.342.655.683.655 2.858m4.3 0c0-1.771.082-3.386-1.761-4.629-1.31-.839-2.784-1.336-4.914-1.336-2.129 0-3.644.497-4.914 1.336-1.843 1.243-1.802 2.858-1.802 4.629 0 1.771-.041 3.386 1.802 4.629 1.269.839 2.784 1.305 4.914 1.305 2.129 0 3.603-.466 4.914-1.305 1.843-1.243 1.761-2.858 1.761-4.629"/><path d="m709.59 786.71v-11.711h11.916v2.547h-7.616v1.957h6.511v2.578h-6.511v2.02h7.616v2.609"/><path d="m734.98 786.71v-11.711h4.381v9.102h7.289v2.609"/><path d="m575.9 489.77c-106.87 0-193.48 44.887-193.48 103.35 0 58.46 86.6 103.35 193.48 103.35 106.87 0 193.52-44.887 193.52-103.35 0-58.46-86.65-103.35-193.52-103.35m.205 197.22c-84.02 0-151.79-40.818-151.79-94.34 0-53.49 67.768-92.91 151.79-92.91 84.02 0 151.42 39.42 151.42 92.91 0 53.52-67.4 94.34-151.42 94.34"/><path d="m575.9 602.81l111.3-33.859v31.16l-59.62 17.24 54.58 13.02-6.961 25.907-99.26-22.987-99.18 22.645-7.125-25.597 54.706-12.985-59.58-17.52v-30.877"/><path d="m549.73 536.18h50.98c6.593 0 8.03-2.02 3.153-4.442 0 0-10.319-5.188-27.762-5.188-18.918 0-29.482 5.219-29.482 5.219-4.955 2.423-3.562 4.411 3.112 4.411m-55.16 12.612c0-18.607 40.866-38.3 81.08-37.34 40.37.963 73.42 20.875 74.893 39.05.041.435.082 1.367.082 1.398l-104.21.093c-7.289 0-9.95 3.572-4.463 6.772 0 0 13.717 7.579 32.758 7.579 12.694 0 22.11-2.951 27.353-5.281l47.95-.031-1.474 1.522c-13.267 13.513-41.767 22.832-72.11 22.832-40.21 0-81.85-15.967-81.85-36.593"/><path d="m491.22 778.76c0 .59-.696 1.18-1.884 1.18h-2.457v-2.392h2.457c1.188 0 1.884.621 1.884 1.212m5.241 7.952l-3.808-4.939c1.392-.435 2.866-1.429 2.866-3.01 0-1.926-2.088-3.759-6.02-3.759h-6.879v11.711h4.259v-4.38h1.474l3.112 4.38"/><path d="m516.69 777.54v9.164h-4.3v-9.164h-4.34v-2.547h12.939v2.547"/><path d="m538.97 786.77c-2.703 0-4.914-.311-6.634-1.553l2.743-1.802c.901.59 2.498.808 3.931.808 1.679 0 2.498-.373 2.498-1.056 0-.28-.082-.528-.327-.683-.246-.155-.614-.249-1.188-.342l-2.088-.186c-1.556-.155-2.744-.497-3.562-1.025-.778-.559-1.187-1.336-1.187-2.361 0-2.112 2.416-3.696 6.429-3.696 2.498 0 4.381.404 5.896 1.429l-2.703 1.771c-1.106-.714-2.58-.683-3.358-.683-1.474 0-2.088.59-2.088 1.087 0 .155.082.342.368.559.205.124.573.28 1.147.342l2.129.186c1.597.155 2.744.466 3.481.963.942.621 1.31 1.46 1.31 2.578 0 2.361-3.071 3.666-6.797 3.666"/><path d="m581.02 786.77c-2.01 0-3.562-.466-4.873-1.305-1.843-1.243-1.761-2.858-1.761-4.629 0-1.771-.082-3.386 1.761-4.629 1.31-.839 2.866-1.336 4.873-1.336 3.358 0 6.02 1.243 6.674 3.79h-4.381c-.287-.621-.819-1.212-2.252-1.212-.778 0-1.392.217-1.679.497-.368.342-.696.714-.696 2.889 0 2.112.328 2.547.696 2.889.287.28.901.497 1.679.497 1.433 0 1.966-.621 2.252-1.274h4.381c-.655 2.609-3.317 3.821-6.674 3.821"/><path d="m609.31 786.71v-4.66h-4.586v4.66h-4.3v-11.711h4.3v4.473h4.586v-4.473h4.299v11.711"/><path d="m635.48 782.51h-3.071l1.597-3.106 1.474 3.106m6.47 4.194l-6.388-11.711h-3.358l-6.388 11.711h4.504l.901-1.771h5.364l.86 1.771"/><path d="m664.1 786.71l-5.61-5.902v5.902h-4.34v-11.711h3.767l5.61 5.871v-5.871h4.34v11.711"/><path d="m691.82 786.71l-5.61-5.902v5.902h-4.34v-11.711h3.767l5.651 5.871v-5.871h4.258v11.711"/><path d="m404.53 725.51v35.879h28.17v-8.201c0 0-17.198 0-17.689 0 0-.466 0-5.312 0-5.778.491 0 15.11 0 15.11 0v-8.232c0 0-14.618 0-15.11 0 0-.466 0-4.877 0-5.343.491 0 17.689 0 17.689 0v-8.325h-.246"/><path d="m486.68 725.51h-.491-11.506c0 0-5.405 9.04-5.815 9.754-.409-.714-5.774-9.754-5.774-9.754h-12.04c0 0 11.834 17.209 12.08 17.52-.246.28-12.898 18.359-12.898 18.359h12.08c0 0 6.142-9.94 6.552-10.624.41.683 6.552 10.624 6.552 10.624h12.08c0 0-12.694-18.08-12.898-18.359.205-.311 12.08-17.52 12.08-17.52"/><path d="m503.71 725.51v8.325c0 0 9.5 0 9.991 0 0 .497 0 27.554 0 27.554h10.442c0 0 0-27.06 0-27.554.532 0 10.07 0 10.07 0v-8.325h-.287"/><path d="m585.4 737.19c0-3.168-1.229-5.871-3.603-8.05-2.662-2.392-6.183-3.634-10.524-3.634h-16.09-.287v35.879h10.524c0 0 0-12.643 0-13.11.369 0 2.703 0 2.948 0 .123.249 7.207 13.11 7.207 13.11h12.202c0 0-8.558-14.413-8.886-14.88 4.3-1.957 6.511-5.063 6.511-9.319m-19.982-3.355c.451 0 5.405 0 5.405 0 1.187 0 2.211.342 2.989.963.737.683 1.106 1.429 1.106 2.392 0 .87-.369 1.615-1.106 2.268-.778.652-1.72.963-2.989.963 0 0-4.955 0-5.405 0 0-.435 0-6.12 0-6.586"/><path d="m607.47 725.51v35.879h28.21v-8.201c0 0-17.239 0-17.73 0 0-.466 0-5.312 0-5.778.491 0 15.15 0 15.15 0v-8.232c0 0-14.659 0-15.15 0 0-.466 0-4.877 0-5.343.491 0 17.73 0 17.73 0v-8.325h-.287"/><path d="m685.76 725.51c0 0-8.558 14.631-9.01 15.345-.409-.714-8.968-15.345-8.968-15.345h-10.237v35.879h10.483c0 0 0-14.693 0-16.246.819 1.274 8.681 13.357 8.681 13.357 0 0 7.944-12.08 8.804-13.388 0 1.522 0 16.277 0 16.277h10.524v-35.879h-.287"/><path d="m747.02 733.84v-8.325h-.246-27.926v35.879h28.17v-8.201c0 0-17.198 0-17.689 0 0-.466 0-5.312 0-5.778.491 0 15.15 0 15.15 0v-8.232c0 0-14.659 0-15.15 0 0-.466 0-4.877 0-5.343.491 0 17.689 0 17.689 0"/></g></svg>