<svg xmlns="http://www.w3.org/2000/svg" height="190.46" width="600" viewBox="0 0 158.75 50.393352"><g transform="translate(234.61 78)"><path d="m-197.62-63.34h6.54v26.16h-6.54v-2.766q-1.93 1.828-3.87 2.646-1.93.793-4.19.793-5.07 0-8.77-3.92-3.71-3.943-3.71-9.787 0-6.06 3.58-9.931 3.59-3.871 8.71-3.871 2.36 0 4.42.889 2.07.89 3.83 2.669v-2.885m-6.9 5.386q-3.06 0-5.08 2.165-2.02 2.14-2.02 5.506 0 3.391 2.05 5.579 2.06 2.188 5.07 2.188 3.1 0 5.15-2.14 2.04-2.164 2.04-5.651 0-3.414-2.04-5.531-2.05-2.116-5.17-2.116"/><path d="m-186.51-63.34h6.59v3.01q1.68-1.852 3.72-2.766 2.07-.913 4.5-.913 2.45 0 4.42 1.202 1.98 1.202 3.18 3.511 1.56-2.309 3.82-3.511 2.29-1.202 4.98-1.202 2.79 0 4.91 1.298 2.11 1.299 3.03 3.391.93 2.092.93 6.805v15.342h-6.61v-13.274q0-4.449-1.11-6.01-1.1-1.587-3.31-1.587-1.69 0-3.03.962-1.33.962-1.98 2.669-.65 1.684-.65 5.435v11.807h-6.61v-12.673q0-3.511-.53-5.074-.5-1.587-1.54-2.356-1.03-.77-2.5-.77-1.63 0-2.98.986-1.32.962-1.99 2.717-.65 1.756-.65 5.531v11.639h-6.59v-26.16"/><path d="m-138.4-74.11q1.73 0 2.95 1.25 1.26 1.251 1.26 3.03 0 1.756-1.23 3.01-1.23 1.226-2.93 1.226-1.76 0-3.01-1.25-1.23-1.274-1.23-3.078 0-1.731 1.23-2.958 1.23-1.226 2.96-1.226"/><path d="m-141.7-63.34h6.59v26.16h-6.59v-26.16"/><path d="m-131.24-73.44h6.56v36.26h-6.56v-36.26"/><path d="m-122.87-63.34h6.71l6.81 16.424 7.5-16.424h6.735l-16.405 35.733h-6.78l5.39-11.518-9.96-24.21"/><path d="m-234.61-65.899h2.62q.02-5.781.19-6.835.29-2.431 2.02-3.836 1.76-1.432 4.95-1.432 2.29 0 5.18 1.054v5.619q-1.59-.459-2.62-.459-1.29 0-1.89.54-.43.405-.43 1.675l-.03 3.674h4.68v6.268h-4.68v23.12h-7.37v-23.12h-2.62v-6.268"/><path d="m-87.18-76.919h11.32v39.74h-7.511v-32.635h-8.185l4.376-7.105"/></g></svg>