<svg xmlns="http://www.w3.org/2000/svg" viewBox="0 0 653.99997 348.99999" enable-background="new 0 0 1190.55 841.89"><g transform="matrix(4.0023 0 0 4.0023-2528.26-358.57)"><path d="m752.05 91.34c15.02 0 21.988 8.05 21.988 8.05l-1.287 2.574h-38.768v5.47h-8.533c0 0 8.581-16.09 26.6-16.09" fill="#008e35"/><path d="m713.47 139.41c2.674 6.931 7.134 12.857 13.09 17.11l21.08-42.12h-13.662l-.002-7.07h-18.479-67.64c0 0-16.15.854-16.15 15.722 0 16.816 15.845 16.368 15.845 16.368h65.921" fill="#e60004"/><path d="m655.54 123.53h-6.781v9.794h-5.915v-21.737h13.412v4.37h-7.535v4.559h6.819v3.01m18.427 7.478l-3.471 2.769c-.532-.162-.996-.426-1.393-.793-.396-.367-.658-.786-.783-1.26l-2.734 1.516c-.106.061-.288.121-.545.183-.258.059-.474.09-.647.09-2.104 0-3.842-.703-5.214-2.107-1.372-1.405-2.058-3.361-2.058-5.868 0-2.375.711-4.333 2.135-5.875 1.423-1.54 3.238-2.312 5.445-2.312.882 0 1.703.168 2.469.502.765.336 1.268.633 1.51.892l2.542-.904.854.264v9.715c0 .851.151 1.526.457 2.027.305.502.783.888 1.433 1.161m-6.43-2.512v-6.05c-.254-.324-.586-.599-.995-.825-.41-.227-.911-.341-1.502-.341-.854 0-1.562.316-2.123.946-.563.629-.844 1.675-.844 3.137 0 1.16.262 2.088.785 2.787.524.699 1.261 1.048 2.207 1.048.541 0 1.047-.086 1.521-.257.473-.17.79-.319.951-.446m31.724 4.828h-4.116v-9.552c0-.567-.181-1.063-.544-1.488-.362-.425-.932-.638-1.71-.638-.636 0-1.204.129-1.705.387-.501.257-.922.593-1.261 1.01v10.284h-4.116v-9.552c0-.567-.181-1.063-.542-1.488-.361-.425-.929-.638-1.704-.638-.73 0-1.346.161-1.845.482-.499.322-.864.639-1.096.949v10.247h-4.116v-15.219l4.116-.301v1.506l1.599-1.037c.529-.345 1.049-.578 1.56-.701.511-.122 1.03-.183 1.559-.183.951 0 1.761.204 2.434.612.672.409 1.188.97 1.546 1.686l2.223-1.421c.448-.292.938-.512 1.469-.657.53-.146 1.082-.22 1.657-.22 1.428 0 2.55.465 3.366 1.395.818.93 1.228 2.153 1.228 3.669v10.871zm9.177-17.1h-4.709v-4.068h4.709v4.068m0 17.1h-4.709v-15.219l4.709-.264v15.483m10.84-2.524l-3.225 2.826c-1.172-.667-2.103-1.438-2.789-2.313-.687-.874-1.031-1.929-1.031-3.163v-16.563h4.634v15.01c0 1.041.192 1.86.576 2.456.385.597.996 1.178 1.835 1.744m6.944 1.772l-6.671-13.222 4.28-1.848 4.545 9.979 4.736-9.979 4.069 1.848-6.723 13.572c0 0-1.456 4.429-7.484 8.497 0 0-1.959-2.26-1.959-3.918 0 0 3.631-2.775 5.207-4.929" fill="#fff"/><g fill="#2f2373"><path d="m646.61 171.96c-1.722.735-2.746.882-2.979.975-.29.12-1.141.188-1.449-.24-.427-.562.328-1.015.869-1.096.213-.026 1.277-.08 1.547-.146 1.297-.294 3.793-1.644 3.793-2.913 0-.614-1.915-1.109-4.952-1.109-.678 0-2.147.161-2.979.401v1.323c.02.801.098.735.251 1.175.233.668.291.749.098 1.203-.136.32-1.761.186-1.876-.161-.059-.267-.271-.561-.137-1.229.059-.24-.038-2.284-.038-2.284 0 0 .038-2.151.059-2.832-.291-.054-.697-.2-.716-.521-.02-.267.096-.588.482-.761l.213-.108c.059-.186.232-.56.658-.64.638-.134.87.026.987.213 1.16-.24 5.474-1.068 7.176-.654 1.238.307.252 1.549-.444 2.02-1.412.948-2.321 1.389-3.173 1.763 1.896.08 6.112.454 6.074 2.271-.022 1.244-2.188 2.819-3.464 3.353m-6.03-7.414c-.29.307-.252 1.416-.213 1.95.658-.24 1.993-.734 2.901-1.149 2.496-1.161 3.309-1.683 3.114-1.856-.56-.321-5.377.574-5.802 1.055"/><path d="m660.31 170.17c-.502.2-4.643 2.738-6.847 2.03-1.567-.507-2.612-1.95-2.245-3.139.657-2.11 5.068-3.326 7.408-2.311.232.093-.56 1.416-2.708 2.084-1.45.454-2.281.427-3.02.507-.058.188-.154.695.426 1.296.29.347.677.642 1.354.615 1.47-.04 4.236-1.603 4.43-1.79.213-.254.658-.815 1.354-.481.698.347.446.895-.154 1.189m-5.532-2.525c-.755.227-1.373.695-1.373.695 0 0 1.063-.147 1.663-.334.948-.294 1.683-.695 1.683-.695 0 0-.909.014-1.973.334"/><path d="m663.85 167.22c-.311 1.763-.406 3.58-.271 4.743.02.454-.116 1.535-1.393.921-.58-.267-.116-4.929.194-7.294.231-1.817.444-3.139.695-3.286.368-.214.755-.334 1.355.107.405.307.116.788-.58 4.809"/><path d="m674.45 170.17c-.502.2-4.642 2.738-6.847 2.03-1.567-.507-2.612-1.95-2.245-3.139.658-2.11 5.069-3.326 7.409-2.311.231.093-.561 1.416-2.708 2.084-1.451.454-2.282.427-3.02.507-.059.188-.154.695.425 1.296.291.347.678.642 1.354.615 1.47-.04 4.237-1.603 4.43-1.79.213-.254.658-.815 1.354-.481.698.347.446.895-.154 1.189m-5.533-2.525c-.754.227-1.373.695-1.373.695 0 0 1.063-.147 1.663-.334.948-.294 1.684-.695 1.684-.695 0 0-.909.014-1.974.334"/><path d="m684.41 170.17c-.503.2-4.642 2.738-6.847 2.03-1.567-.507-2.612-1.95-2.245-3.139.658-2.11 5.069-3.326 7.409-2.311.233.093-.56 1.416-2.708 2.084-1.451.454-2.283.427-3.02.507-.06.188-.155.695.425 1.296.29.347.677.642 1.354.615 1.471-.04 4.237-1.603 4.431-1.79.213-.254.656-.815 1.354-.481.696.347.444.895-.156 1.189m-5.532-2.525c-.756.227-1.373.695-1.373.695 0 0 1.063-.147 1.663-.334.947-.294 1.683-.695 1.683-.695 0 0-.909.014-1.973.334"/><path d="m691.88 163.48c-2.282-.601-2.96 1.63-2.921 4.114 0 .134 0 .254.019.388 1.509-.107 2.186.026 2.476-.107.581-.281 1.451.027 1.433.547-.021.481-.658.575-1.161.589-1.412.04-1.954 0-2.728.066 0 1.162-.058 2.271-.271 3.38-.407 1.883-1.045 3.326-.948 3.54.155.334-.29 1.029-1.412.722-.542-.148-.677-.735-.231-1.083.135-.12.656-1.442.947-3.192.252-1.417.271-2.044.271-3.126-.232.066-.367.147-.619.4-.754.762-2.282-.173-1.411-.788.348-.267.773-.547 2.01-.748 0-.187.019-.387.019-.601.02-4.849 2.592-5.37 4.488-5.21 1.489.12 1.548.682 1.509.909-.253.668-1.22.254-1.472.2"/><path d="m710.89 172.29c-.909.013-.967-.708-.89-1.202.097-.775.271-3.113-.367-3.367-.909-.347-3.463 1.47-4 2.284-.563.815-.484 1.63-.465 1.79.213 1.31-1.335 1.096-1.684.869-.444-.32-.213-.761 0-1.109.213-.307-.039-1.924.483-5.183.368-2.365.426-3.54 1.142-3.527 1.277.054.813.842.542 2.846-.097.694-.193 1.456-.271 2.164-.039.267-.059.481-.059.694 1.025-.788 3.23-2.351 4.913-1.923 1.471.374 1.528 2.899 1.412 4.529-.075.721.215 1.122-.752 1.135"/><path d="m721.84 170.17c-.502.2-4.642 2.738-6.847 2.03-1.567-.507-2.612-1.95-2.245-3.139.658-2.11 5.069-3.326 7.409-2.311.232.093-.561 1.416-2.708 2.084-1.451.454-2.283.427-3.02.507-.059.188-.154.695.425 1.296.291.347.678.642 1.354.615 1.47-.04 4.237-1.603 4.43-1.79.213-.254.658-.815 1.354-.481.699.347.447.895-.154 1.189m-5.532-2.525c-.755.227-1.373.695-1.373.695 0 0 1.063-.147 1.663-.334.948-.294 1.684-.695 1.684-.695 0 0-.909.014-1.974.334"/><path d="m730.29 166.8c-1.063 0-2.244.16-2.96.267-.116.601-.502 3.01-.387 4.542.02.174.407 1-.754.948-.813-.039-.948-.761-.948-.948.058-.601 0-1.429.213-2.805.116-.788.174-1.095.251-1.496-.329.066-.793.16-1.18.293-.967.308-1.257.575-1.528.535-.541-.107-.928-.401-.773-.735.115-.227.136-.387 1.374-.708 1.045-.28 1.314-.347 2.341-.534.077-.321.29-1.256.443-2.432.039-.387-.096-1.309.697-1.309.542 0 1.045.428.832 1.898-.097.721-.213.975-.349 1.616.562-.054 1.605-.146 2.728-.107.522.013 1.354.08 1.412.534.059.548-.966.441-1.412.441"/><path d="m746.6 166.2c-.366 0-.58-.16-.734-.16-.601.013-.774.307-2.205 1.189-.852.534-1.335 1.296-1.238 1.643.174.761 1.18.828 2.341 1.122 1.296.374 2.341.521 2.495 1.403.098.601-3.424 1.938-3.792 1.963-.812-.026-1.237-.481-.793-.881.271-.147 2.863-.749 2.747-1.163-.155-.654-4.294-.494-4.584-2.271-.252-1.629 2.379-3.059 3.791-3.86.483-.308 1.219-.241 1.567-.147.29.12 1.083.441 1.103.641.058.267-.079.521-.698.521"/><path d="m752.5 172.08c-.059-.04-.098-.08-.137-.134-.773.294-2.728.935-3.753.188-1.198-.855.232-2.979 2.147-3.18 1.063-.093 1.684.308 2.089.828.117-.52.155-1.349-.521-2.217-.696-.868-2.282-.347-2.321-.093.039.24-1.238.293-1.296-.228-.059-.694 2.533-1.523 3.906-.935 3.309 1.429 1.123 5.757.93 5.838-.174.134-.754.16-1.044-.067m-1.471-2.124c-1.16.067-1.721 1.323-1.354 1.456.658.268 1.838-.334 2.263-.561-.116-.28-.444-.922-.909-.895"/><path d="m765.19 171.71c-.368-.441-.213-2.524-.194-3.313 0-.44 0-.881-.328-1.015-.136-.067-1.103.895-1.993 2.391-1.199 2.031-1.296 2.966-1.915 2.846-.89-.134-.831-.428-.909-1.991-.097-1.87-.115-2.859-.349-2.952-.444-.187-1.624 1.803-2.03 3.58-.252 1 .154 1.029-.31 1.229-.367.174-1.141.134-1.354-.107-.29-.334.136-2.952.175-3.393.154-1-.136-1.67.058-1.897.29-.32 1.025-.387 1.374-.12.173.134.289.214.386.401.484-.615 1.239-1.523 1.877-1.563.388-.027.947.293 1.16.574.252.254.368 1.028.503 2.779.813-1.149 2.265-3.193 3.463-3.34.522-.067 1.354.561 1.509.949.291.681.232 3.767.214 4.03-.021.281.29.682.096.909-.253.267-1.105.428-1.433 0"/><path d="m776.99 170.17c-.503.2-4.643 2.738-6.848 2.03-1.567-.507-2.612-1.95-2.244-3.139.658-2.11 5.068-3.326 7.409-2.311.232.093-.562 1.416-2.708 2.084-1.452.454-2.283.427-3.02.507-.058.188-.154.695.426 1.296.29.347.678.642 1.354.615 1.471-.04 4.237-1.603 4.432-1.79.212-.254.656-.815 1.354-.481.695.347.443.895-.156 1.189m-5.533-2.525c-.755.227-1.373.695-1.373.695 0 0 1.063-.147 1.664-.334.946-.294 1.682-.695 1.682-.695 0 0-.909.014-1.973.334"/><path d="m782.99 171.88c.116-.214-.231-.882-.192-2.511.038-.842-.039-1.163-.194-1.336-.309-.147-1.276 1.095-2.128 2.685-.638 1.162-.657 1.509-.909 1.643-.29.107-.812.227-1.179-.147-.291-.28-.06-.922-.021-3.193.059-1.269.213-2.244.251-2.431.155-.748 1.259-.481 1.568-.187.23.2-.039.815-.058 1.924 0 .053 0 .106-.021.16.793-.989 2.166-2.565 3.115-2.445 1.063.134 1.218 1.697 1.218 3.821-.019 1.229-.038 1.656.039 1.803.232.348.541.882.058 1.149-.503.308-1.913-.159-1.547-.935"/><path d="m787.63 173.99c-.464.014-.851-.481-.851-.788 0-.334.29-.628.503-.668.89-.013 1.083.334 1.102.615 0 .307-.077.801-.754.841m1.509-7.908c-.213 1.256-.773 3.139-.677 3.38 0 .16.193.588.174.774-.039.374-.444.655-.87.575-.619-.08-.908-.454-.793-1.269.271-2.204.406-3.153.677-5.357.077-.614.116-1.817.232-1.91.193-.161.986-.441 1.393.027.29.266.154 1.843-.136 3.78"/></g><path d="m733.98 101.96v12.427h13.661l-21.08 42.13c4.64 3.387 10.07 5.754 15.966 6.771l30.22-61.33h-38.769z" fill="#fff"/><path d="m754.29 139.42h37.65c.609-1.464 12.202-30.344-13.11-49.826l-24.545 49.826" fill="#2f2373"/><path d="m780.36 139.4l-26.07.02-7.33 14.874c2.514.449 22.558 3.298 33.403-14.894" fill="#008e35"/></g></svg>