<svg xmlns="http://www.w3.org/2000/svg" viewBox="0 0 600 548.06"><g transform="translate(213.98-334.33)"><path d="m298.2 383.18v-.043h-93.08c-34.71-30.404-80.17-48.803-129.88-48.803-100.48 0-183.43 75.08-195.74 172.2-19.748 16.833-34.841 39.37-41.28 64.33l-2.653 10.309h48.629c4.567 17.703 11.527 34.406 20.531 49.847-6.568 10.439-11.657 21.835-14.702 33.754l-2.653 10.309h52.41c35.32 33.406 82.992 53.849 135.45 53.849 108.96 0 197.3-88.34 197.3-197.3 0-14.832-1.653-29.23-4.741-43.11l3.915-.043.043-.304c50.5-3.915 98.74-44.32 111.66-94.69l2.61-10.309h-87.82z"/><path d="m-89.88 804.96l-4.611 13.528h-55.5l-6.829 2.914-5.307 15.485h36.668l-4.654 13.571h-36.668l-10.918 31.927h-36.28l23.23-67.768c1.044-3.088 4.48-5.568 10.222-7.438 4.785-1.479 9.7-2.218 14.789-2.218h75.859z"/><path d="m-14.305 882.39h-39.15l-1.696-9.656h-46.542l-8.395 9.656h-20.357l57.807-66.68c2.74-3.219 6.568-5.829 11.44-7.786 4.915-2 9.917-2.958 15.01-2.958 4.959 0 9.352.957 13.18 2.914l6.568 7.438 12.136 67.07m-43.45-23.23l-5.568-30.709-26.62 30.709h32.19"/><path d="m117.06 804.96l-21.879 63.984c-1.348 3.784-4.611 7-9.874 9.569-5.263 2.61-10.787 3.871-16.529 3.871-7.05 0-11.744-1.435-14.18-4.35l-29.19-34.493-13.223 38.843h-23.23l21.879-63.984c1.305-3.784 4.567-7 9.83-9.569 5.22-2.566 10.7-3.871 16.442-3.871 7.09 0 11.875 1.435 14.31 4.35l29.19 34.493 13.18-38.843h23.271"/><path d="m232.19 836.89l-1.479 6.785c-3.61 10.657-12.44 19.748-26.403 27.36-14.01 7.568-28.969 11.353-44.889 11.353h-50.848l26.49-77.42h50.804c14.14 0 25.576 3.045 34.28 9.134 8.699 6.09 12.745 13.702 12.05 22.792m-38.973-6c.652-8.264-3.349-12.397-11.918-12.397h-10.178l-17.18 50.33h10.135c7.569 0 13.745-3.132 18.53-9.482 2.566-3.48 5.05-8.699 7.438-15.659 1.914-5.568 2.958-9.83 3.175-12.788"/><path d="m331.9 882.39h-39.19l-1.696-9.656h-46.5l-8.395 9.656h-20.357l57.807-66.68c2.74-3.219 6.568-5.829 11.44-7.786 4.915-2 9.917-2.958 15.01-2.958 4.959 0 9.352.957 13.18 2.914l6.568 7.438 12.136 67.07m-43.497-23.23l-5.524-30.709-26.62 30.709h32.14"/><g fill="#faba09"><path d="m-14.592 659.09c41.496-.56 83.82-32.1 99.17-72.24h-76.64c-41.41.478-83.78 32.06-99.13 72.25h76.6z"/><path d="m-142.96 565.18h86.56v.043h168.64c41.1-1.174 82.73-32.449 97.95-72.25h-87.21l.043-.13h-164.16l-2.827.087c-41.41.609-83.69 32.19-99 72.25"/><path d="m264.47 470.39c41.452-.565 83.77-32.14 99.09-72.25h-86.91l.043-.043h-168.51c-41.06 1.218-82.64 32.492-97.82 72.25h87.04v.13h162.33l4.741-.087z"/></g></g></svg>