<svg xmlns="http://www.w3.org/2000/svg" enable-background="new 0 0 416.583 199.016" viewBox="0 0 599.99999 234.88037"><g transform="scale(1.18242)"><path d="m59.941 198.64v-83.91h6c12.864 0 18.13 9.568 18.13 29.802v3.904h2.348v-68.72h-2.348v3.916c0 19.14-6.184 27.19-16.7 27.19h-7.437v-66.56h13.214c18.54 0 28.12 16.978 28.12 35.89v3.481h2.37v-43.29h-55.11l-.203 27.686h-48.34v-68.03h171.49v68.03h-56.748v130.62"/><g transform="matrix(1.32733 0 0 1.32733-40.686-27.365)"><g><path d="m125.27 133.51h20.55v1.9h-8.9v23.24h-2.75v-23.24h-8.9"/><path d="m159.58 158.65v-25.14h17.13v1.9h-14.39v9.23h10.36v1.9h-10.36v10.24h15.19v1.87"/><path d="m191.03 133.51h2.73v23.27h13.36v1.87h-16.09"/><path d="m220.11 158.65v-25.14h17.12v1.9h-14.37v9.23h10.36v1.9h-10.36v10.24h15.19v1.87"/><path d="m247.72 133.51h2.92l8.14 21.87h.06l8.42-21.87h2.91l-9.98 25.14h-2.76"/></g><path d="m283.24 133.51h2.728v25.13h-2.728z"/><path d="m302.53 151.63c1.179 3.832 3.829 5.517 8.581 5.517 3.738 0 5.977-1.991 5.977-5.03 0-6.743-16.229-4.107-16.229-12.428 0-3.694 3.049-6.499 8.628-6.499 4.75 0 8.214 2.162 9.593 6.02l-2.359.584c-1.088-2.774-3.388-4.721-7.233-4.721-3.509 0-5.9 1.687-5.9 4.613 0 1.7.598 2.927 6.113 4.657 8.43 2.651 10.146 4.399 10.146 8.02 0 4.276-4.292 6.651-9.149 6.651-5.731 0-9.02-2.115-10.682-6.712"/><path d="m334.52 133.51h2.743v25.13h-2.743z"/><path d="m363.84 133.19c-7.539 0-11.844 5.522-11.844 12.938 0 7.401 4.305 12.875 11.844 12.875 7.51 0 11.844-5.474 11.844-12.875 0-7.416-4.334-12.938-11.844-12.938m0 1.875c5.516 0 9.09 3.982 9.09 11.06 0 7.05-3.578 11.03-9.09 11.03-5.533 0-9.125-3.98-9.125-11.03 0-7.08 3.592-11.06 9.125-11.06"/><g><path d="m390.19 133.51h4.62l14.26 20.97h.08v-20.97h2.74v25.14h-2.82l-16.06-23.24h-.09v23.24h-2.73"/><path d="m138.06 109.04v15.77h-12.56v-42.07h30.37v9.99h-17.81v6.87h13.66v9.44"/></g><path d="m171.28 82.75l-13.06 42.06h10.5l2.563-8.313h11.219l2.375 8.313h13.188l-13.188-42.06h-13.594m5.593 12.375l3.438 12.219h-6.875l3.438-12.219"/><path d="m216.94 110.43c1.104 3.771 3.924 5.104 7.647 5.104 1.67 0 4.964-.246 4.964-2.56 0-2.622-3.247-3.097-5.133-3.449-7.892-1.548-17.302-3.662-17.302-13.67 0-4.106 2.038-8.138 5.395-10.544 3.448-2.405 7.908-3.187 12.08-3.187 7.31 0 14.375 2.987 16.935 10.298l-10.651 3.249c-1.226-3.127-3.57-4.215-6.819-4.215-1.733 0-4.169.476-4.169 2.698 0 2.191 3.064 2.636 4.658 3 3.985.797 8.199 1.441 11.877 3.371 4.108 2.176 6.27 6.099 6.27 10.698 0 10.13-10.06 14.16-18.759 14.16-8.827 0-16.674-3.678-18.94-12.813"/><path d="m289.69 124.81h-12.86v-16.4h-9.93v16.4h-12.86v-42.07h12.86v15.53h9.93v-15.53h12.86"/><path d="m302.13 82.74h12.996v42.07h-12.996z"/><path d="m346 82.12c-12.795 0-20.09 9.198-20.09 21.781 0 11.922 7.36 21.5 20.09 21.5 12.767 0 20.09-9.578 20.09-21.5 0-12.583-7.297-21.781-20.09-21.781m0 9.531c5.686 0 6.313 8.187 6.313 12.281 0 4.045-.413 11.844-6.313 11.844-5.869 0-6.313-7.799-6.313-11.844 0-4.094.613-12.282 6.313-12.281"/><path d="m402.41 124.81l-12.09-19.709-3.725-7.57-.107.107.107.505c.614 2.698.874 4.169.874 7.05v19.62h-10.503v-42.07h12.213l14.08 23.479.124-.139-.936-11.631v-11.708h10.497v42.07"/></g></g></svg>