<svg xmlns="http://www.w3.org/2000/svg" height="240.08" width="600" viewBox="0 0 158.75 63.520297"><g transform="translate(-248.99-3.723)" fill="#4a5b63"><path d="m313 45.12c-.03-3.724-.05-7.452-.05-11.175v-11.23-4.772-4.968c0-1.617.16-3.324.49-5.118.34-1.798 1.37-2.897 3.12-3.292.99-.295 2.23-.418 3.73-.368 1.51.045 2.8.073 3.88.073v1.88 1.88h-4.79c-1.22 0-1.93.368-2.13 1.113-.2.74-.3 1.49-.3 2.248 0 1.78.001 3.56.03 5.345.02 1.78.02 3.56.02 5.34h3.27v3.855c-.73.036-1.28.05-1.66.05h-1.61v.495c-.06 6.266-.06 12.478 0 18.645h-4"/><path d="m336.04 4.266h4.16v40.849h-4.16v-40.849"/><path d="m361.42 45.12c-.99.031-2.02.072-3.07.122-1.06.05-1.83-.041-2.32-.272-1.75-.922-2.79-2.066-3.12-3.438-.33-1.366-.49-2.992-.49-4.867v-16.15-16.247h2 2.05c0 5.572-.001 11.175-.03 16.815-.001 5.635-.02 11.243-.02 16.815 0 .758.1 1.448.3 2.075.2.626.9.94 2.13.94h2.57v2.129 2.076"/><path d="m386.34 7.678c-.83.132-1.3.495-1.43 1.09-.14.59-.2 1.217-.2 1.875 0 5.576 0 11.33.02 17.26.02 5.935.03 11.675.03 17.214h-2.06-2.04v-17.214c0-5.93.001-11.684.04-17.26 0-.658-.06-1.289-.19-1.902-.14-.608-.62-.963-1.44-1.063-.83.132-1.29.495-1.41 1.09-.12.59-.17 1.217-.17 1.875v17.26 17.214h-2.03-1.98c0-5.376-.001-10.825-.02-16.347-.02-5.521-.03-10.984-.03-16.392 0-1.88.17-3.497.5-4.85.33-1.349 1.38-2.502 3.16-3.46.4-.232 1.02-.345 1.88-.345.89 0 1.6.114 2.13.345.62.363 1.15.74 1.58 1.135.46-.427 1-.804 1.63-1.135.46-.232 1.11-.345 1.93-.345.86 0 1.55.114 2.08.345 1.71.958 2.74 2.111 3.09 3.46.35 1.353.52 2.97.52 4.85v16.392 16.347h-2.03-1.97c0-5.539-.001-11.279-.03-17.214-.02-5.93-.001-11.684.03-17.26 0-.658-.07-1.289-.2-1.902-.14-.608-.6-.963-1.39-1.063"/><path d="m336.66 50.788c.76.912 1.28 1.766 1.58 2.57.25.676.39 1.466.43 2.356h-6.38c.05-.89.19-1.68.44-2.356.3-.804.82-1.658 1.58-2.57-1.29.249-2.28.817-2.97 1.698-.64.804-.98 1.884-1.03 3.228h-81.32v.495h81.31c.02 1.467.36 2.634 1.04 3.488.69.881 1.68 1.448 2.97 1.698-.76-.754-1.28-1.53-1.58-2.334-.3-.799-.45-1.753-.45-2.852h6.41 1.84.14c0-1.602-.35-2.842-1.04-3.723s-1.68-1.449-2.97-1.698"/><path d="m354.01 60.45v-9.663h-3.16c.79 0 1.18.391 1.18 1.177v9.667h3.16c-.79 0-1.18-.395-1.18-1.181"/><path d="m348.03 60.62c-.54-.331-.82-.826-.85-1.485v-8.346h-3.16c.78 0 1.18.395 1.18 1.181v7.165c0 .786.21 1.399.66 1.839.44.441 1.06.659 1.86.659s1.63-.236 2.48-.708l-.71.049c-.59 0-1.08-.118-1.46-.354"/><path d="m365.61 50.693c-.78 0-1.43.127-1.93.377.85 0 1.32.055 1.41.164l.14.426.31.636.8.377.76-.282.26-.708-.29-.708c-.19-.186-.67-.282-1.46-.282"/><path d="m361.6 60.45v-9.899l-3.16 1.176.28-.022c.59.009.88.299.88.872v7.873c0 .786-.39 1.181-1.18 1.181h4.37c-.79 0-1.19-.395-1.19-1.181"/><path d="m373.7 50.788c-1.29.249-2.28.817-2.97 1.698s-1.04 2.08-1.04 3.605c0 1.526.35 2.729 1.04 3.606.69.881 1.68 1.448 2.97 1.698-.76-.754-1.28-1.53-1.58-2.334-.3-.799-.45-1.753-.45-2.852 0-1.098.15-2.052.45-2.851.3-.804.82-1.658 1.58-2.57"/><path d="m376.06 50.788c.75.912 1.28 1.766 1.58 2.57.3.799.44 1.753.44 2.851 0 1.099-.14 2.053-.44 2.852-.3.804-.83 1.58-1.58 2.334 1.29-.25 2.28-.817 2.97-1.698.69-.877 1.04-2.08 1.04-3.606 0-1.525-.35-2.724-1.04-3.605s-1.68-1.449-2.97-1.698"/><path d="m389.89 50.788c.89.159 1.44.826 1.68 2 .23 1.181.35 2.321.35 3.419 0 1.099-.12 2.239-.35 3.42-.24 1.176-.79 1.843-1.68 2 1.26 0 2.24-.54 2.95-1.625.71-1.086 1.06-2.389 1.06-3.915 0-1.525-.35-2.788-1.06-3.796-.71-1-1.69-1.507-2.95-1.507"/><path d="m386.64 66.06v-15.557l-3.16 1.176.27-.023c.59.009.89.3.89.872v13.532c0 .785-.4 1.18-1.18 1.18h4.36c-.79 0-1.18-.395-1.18-1.18"/><path d="m406.7 52.48c-.69-.881-1.68-1.444-2.97-1.699.76.913 1.28 1.771 1.58 2.57.3.804.45 1.753.45 2.852h1.98c0-1.603-.35-2.843-1.04-3.723"/><path d="m401.37 50.788c-1.28.249-2.27.817-2.96 1.698-.7.881-1.04 2.08-1.04 3.605 0 1.526.34 2.729 1.04 3.606.69.881 1.68 1.448 2.96 1.698-.75-.754-1.28-1.53-1.58-2.334-.3-.799-.44-1.753-.44-2.852 0-1.098.14-2.052.44-2.851.3-.804.83-1.658 1.58-2.57"/></g></svg>