<svg xmlns="http://www.w3.org/2000/svg" viewBox="0 0 602.36 602.36"><path d="m17.717 584.65h475.49v-475.49h-475.49v475.49"/><path d="m109.19 462.07l-21.12 1.712.571 41.667c0 0 25.15 1.336 31.11 1.712 5.936.365 12.09.525 13.984 7.706 2.055 7.785-6.884 13.413-9.989 13.414 9.384 0 7.226 0 14.27 0 5.731-1.05 12.238-7.991 11.416-18.265-1.084-13.585-11.45-16.838-22.546-16.838l3.507-22.19-21.2-8.916m-49.659 39.38c-3.802 4.601-7.603 11.815-5.422 19.692 6.518 22.01 41.473 31.667 56.22 32.25l-1.712-25.685c0 0-23.859 2.991-35.96-9.703-5.126-5.354-4.144-10.811-.285-15.697-4.521-.194-9.806-.731-12.843-.856" fill="#fff"/><path d="m109.16 493.2h475.49v-475.49h-475.49v475.49" fill="#ed0180"/><path d="m208.94 241.59c-14.237 0-29.5 5.542-37.656 17.625-6.594 10.02-6.06 23.959-6.06 35.563h-15.563v30h15.563v100.34h38.688v-100.31h23.719v-30.03h-23.719v-2.906c0-11.336.002-19.469 12.375-19.469 6.092 0 8.971-.011 14.75.781v-29.75c-8.145-1.584-18.936-1.844-22.09-1.844m36.875.25v37.37h38.719v-37.37h-38.719m127.75 46.875c-17.12 0-27.674 7.648-34.781 22.375h-.531v-19.75h-36.34v178.78h38.719v-59.781h.5c5.534 11.871 17.667 17.375 30.844 17.375 38.994 0 51.09-36.29 51.09-69.22 0-16.323-1.565-32.4-10-46.625-8.926-15.263-21.615-23.16-39.5-23.16m-127.75 2.625v133.78h38.719v-133.78h-38.719m116.19 24.781c19.458 0 20.531 27.611 20.531 41.31 0 13.69-.785 42.906-20.813 42.906-6.873 0-13.693-4.167-17.375-9.969-4.485-7.386-3.719-18.699-3.719-27.16v-13.156c0-7.899-.012-16.05 3.938-23.16 3.448-6.605 9.773-10.781 17.438-10.781" fill="#fff"/></svg>