<svg xmlns="http://www.w3.org/2000/svg" xmlns:xlink="http://www.w3.org/1999/xlink" height="910.44" width="600" viewBox="0 0 158.75 240.8862"><defs><linearGradient id="3" xlink:href="#2" gradientUnits="userSpaceOnUse" gradientTransform="matrix(153.99 0 0 154.78 23.273 87.72)" x1="0" x2="1"/><linearGradient id="2" gradientUnits="userSpaceOnUse" x1="22.478" x2="177.8"><stop stop-color="#2b9f41"/><stop stop-color="#21592a" offset="1"/></linearGradient><linearGradient id="0" xlink:href="#2" gradientUnits="userSpaceOnUse" x1="22.478" x2="177.8"/><linearGradient id="1" gradientUnits="userSpaceOnUse" gradientTransform="matrix(155.78 0 0 159.94 21.927 169.74)" x1="0" x2="1"><stop stop-color="#377ac7"/><stop stop-color="#20466d" offset="1"/></linearGradient></defs><g transform="translate(-20.41-27.827)"><path fill="url(#3)" d="m164.61 29.645c-44.12.192-88.3-.373-132.4.274-7.555 1.549-10.824 10.141-9.397 17.16v106.14c51.4-.02 102.81-.04 154.21-.05-.18-38.02.37-76.1-.28-114.1-1.19-5.464-6.53-9.707-12.13-9.425z"/><g fill="url(#0)"><path d="m177.19 142.13c-.03-.14-.05-.28-.05-.4-.07-.02-.16-.02-.23-.02l.28.42"/><path d="m177.78 142.95l-.59-.82c.12.33.3.61.59.82"/></g><path fill="url(#1)" d="m102.92 117.41c-29.29.85-57.51 12.55-80.38 29.97.287 22.05-.539 44.17.348 66.17 1.423 7.07 9.536 10.29 16.304 8.95 42.854-.18 85.77.35 128.58-.26 7.55-1.42 10.49-9.81 9.25-16.44-.24-21.49.48-43.27-.36-64.58-6.36-5.96-15.16-9.15-23.03-12.99-15.91-6.82-33.22-11.26-50.72-10.82z"/><g color-rendering="auto" shape-rendering="auto" image-rendering="auto" color="#000"><g fill="#fff"><path d="m34.2 27.827c-7.58 0-13.785 6.204-13.785 13.785v169.23c0 7.6 6.21 13.78 13.785 13.78h131.16c7.59 0 13.8-6.18 13.8-13.78v-169.23c0-7.579-6.21-13.783-13.81-13.783h-131.16zm0 4.135h131.16c5.36 0 9.67 4.314 9.67 9.65v97.25c-8.97-5.76-17.95-11.51-26.9-17.27-.12-6.46-2.67-12.63-5.95-18.1 3.92-2.12 6.73-6.624 5.67-11.136v-.012h-.0001c-4.5.071-7.46 3.834-10.53 6.58h-.0001v.003c-.26.371-.63.457-1.02.443-.39-.015-.81-.133-1.19-.168-11.09-1.55-22.19-3.593-33.45-3.334-7.769.211-15.587.798-23.359.328-2.442-.211-4.906-.494-7.205-1.315-4.666-1.712-8.115-6.496-7.857-11.513.281-3.448.915-6.965 2.273-10.131 4.533.395 9.04-1.271 12.656-3.924l.024-.017-.027-.012c-3.961-1.617-8.2-2.345-12.37-3.164 1.52-1.469 3.27-2.799 5.229-3.592 2.2-.773 4.497.211 6.66.611 10.851 2.889 22.267 3.781 33.376 2.067 5.45-.776 10.85-2.091 15.93-4.299 4.7-2.091 9.21-5.03 12.33-9.211 2.68-3.524 4.09-8.03 3.72-12.451v-.006l-.0001-.076-.02.072c0 .002 0 .004-.0001.006-1.8 5.23-5.44 9.642-9.74 13.09-5.88 4.663-13.3 7.753-20.89 7.298 5.01-3.831 9.11-9.761 9.23-16.256v-.053l-.03.043c-4.58 6.575-9.91 13.265-17.44 16.527-4.698 1.69-10.165 1.924-14.692-.375-.13-.071-.277-.129-.399-.207-.118-.076-.207-.173-.243-.314 5.585-1.91 9.903-7.119 10.373-13.04l.003-.043-.031.031c-3.451 3.404-7.208 6.598-11.433 9.04-5.701 3.425-13.514 2.955-18.745-1.221-2.028-1.652-3.066-3.99-3.365-6.482s.142-5.139 1.069-7.403l.015-.037-.037.018c-2.659 1.2-4.448 3.858-4.731 6.705-.281 2.253.097 4.554.823 6.689-.033.047-.073.074-.118.087-.046.013-.097.012-.152.003-.108-.017-.223-.063-.32-.076h-.002c-3.638-.915-7.205-2.488-9.926-5.092-2.767-2.532-3.868-6.519-3.047-10.154l.016-.072-.045.06c-2.069 2.728-3.01 6.395-2.211 9.758.729 2.87 2.799 5.222 5.244 6.797 3.871 2.557 8.442 3.731 12.943 4.6-1.15 2-3.156 3.41-4.935 4.814-.261.155-.507.413-.77.612-.262.198-.538.336-.861.255-8.643-2.114-17.734-2.749-26.519-1.316v.002h-.004c-.446 1.62-.892 3.216-1.244 4.861l-.002.012.0001.005c5.05 3.051 10.09 6.147 15.13 9.221-3.474 7.372-5.96 15.473-5.655 23.711.423 5.22 1.338 10.43 3.1 15.39 1.196 3.21 2.629 6.38 4.925 8.94-7.885 5.9-15.863 11.69-23.726 17.59v-101.66c0-5.334 4.317-9.648 9.652-9.648zm14.486 34.794c.18-.004.359.015.534.055.35.08.687.243.982.463.59.44 1.021 1.112 1.092 1.834.142 1.372-1.015 2.671-2.363 2.812-1.561.142-3-1.391-2.787-2.929v-.002c.189-1.016.989-1.935 2.01-2.149.178-.053.358-.08.537-.084m56.49 55.11c14.98 0 29.79 3.45 43.72 8.83 9.08 3.53 17.85 7.86 26.14 12.97v67.17c0 5.36-4.31 9.65-9.68 9.65h-131.16c-5.335 0-9.647-4.29-9.647-9.65v-60.7c4.377-3.27 8.96-6.22 13.682-8.97 20.264-11.76 43.39-19.11 66.945-19.3" mix-blend-mode="normal" solid-color="#000000" white-space="normal" shape-padding="0" isolation="auto"/><path d="m102.76 126.75c-.46.001-.93.001-1.39.02-11.152.24-22.24 2.78-32.774 6.42-10.73 3.85-21.22 8.76-30.407 15.55h-.007l-.043.03h.053c9.341-.28 18.354 3.55 25.702 9.11l.016.001.008-.001c4.04-6.56 9.09-12.61 15.285-17.26 6.924-5 15.702-6.95 24.13-6.29 8.34.61 16.55 4.29 22.16 10.56 1.71 2.39 2.44 5.51 1.76 8.39-.68 2.91-2.67 5.35-4.9 7.28-3.36 2.76-7.42 4.67-11.67 5.53-7.3 1.2-15.05.35-21.959 3.55-9.75 4.68-17.761 13.18-21.356 23.45l-.004.001h.001c7.54 5.71 16.772 10.2 26.453 9.52 9.226-.47 18.386-3.33 26.07-8.55 4.25.97 8.55 2.35 12.96 2.33 5.15-.03 10.51-3.06 12.21-8.09v-.02h-.02c-5.61-1.55-11.31-2.66-17.02-3.71-.03-.03-.08-.06-.12-.09s-.07-.05-.1-.07c3.4-3.09 6.64-6.3 9.67-9.73 5.21-5.47 7.8-12.78 10.05-19.8.13-.26.16-.63.25-.93.04-.15.1-.29.19-.39s.21-.16.39-.17h.001c2.42-.68 4.86-1.34 7.16-2.38 1.88-.87 3.49-2.54 3.91-4.61.42-2.24-.35-4.57-1.72-6.35l-.001-.001h-.001c-4.06 2.14-8.02 4.48-12.1 6.62-1.91-4.37-5.52-7.65-9.32-10.35-7.1-4.79-15.3-7.87-23.75-8.98-3.25-.41-6.51-.6-9.76-.59m-16.666 57.03c1.709.08 3.419 1.35 3.564 3.13.141 1.02-.29 1.97-1 2.66-.71.68-1.699 1.11-2.678 1.07-1.77.1-3.631-1.25-3.796-3.04-.284-1.91 1.39-3.56 3.207-3.78.119-.02.24-.03.361-.04h.342" mix-blend-mode="normal" solid-color="#000000" white-space="normal" shape-padding="0" isolation="auto"/><path d="m124.84 146.14l.001.07c.47 2.91-.14 6.12-2.15 8.35-3.76 4.13-9.69 5.04-15 5.18l-.001.001v.001c-.1 1.76-.5 3.43-.61 5.19l-.001.02h.02c4.23-.03 8.25-1.81 11.68-4.14 2.59-1.74 5.08-3.9 6.44-6.77 1.2-2.45 1.2-5.55-.33-7.86l-.04-.06" mix-blend-mode="normal" solid-color="#000000" white-space="normal" shape-padding="0" isolation="auto"/></g><g fill="#1b1a18"><path d="m34.27 29.19c-6.834 0-12.41 5.576-12.41 12.41v169.22c0 6.86 5.578 12.41 12.41 12.41h131.16c6.85 0 12.43-5.55 12.43-12.41v-169.22c0-6.836-5.58-12.412-12.44-12.412h-131.16zm0 1.385h131.16c6.1 0 11.04 4.943 11.04 11.02v169.22c0 6.11-4.94 11.03-11.05 11.03h-131.16c-6.078 0-11.02-4.92-11.02-11.03v-169.22c0-6.084 4.944-11.03 11.03-11.03z" mix-blend-mode="normal" solid-color="#000000" white-space="normal" shape-padding="0" isolation="auto"/><path d="m23.496 241.38v11.46h.527 2.01v-5.17h4.227v-1.62h-4.227v-3.05h5.073v-1.62h-7.61" mix-blend-mode="normal" solid-color="#000000" white-space="normal" shape-padding="0" isolation="auto"/><path d="m33.17 241.38v11.47h2.539v-.53-10.94h-2.539" mix-blend-mode="normal" solid-color="#000000" white-space="normal" shape-padding="0" isolation="auto"/><path d="m41.08 241.14c-.931 0-1.773.3-2.449.87-.745.61-1.133 1.47-1.133 2.4 0 1.02.511 1.9 1.346 2.57l.001.001.007.001c.407.3 1.01.69 1.85 1.14.808.44 1.355.79 1.66 1.03l.001.001.012.001c.486.35.648.68.648 1.07 0 .37-.117.6-.426.84-.304.21-.642.32-1.111.32-.463 0-.886-.09-1.272-.31h-.005-.004c-.416-.22-.696-.49-.877-.85l-.006-.001-.008-.02c-.107-.18-.211-.63-.211-1.28v-.53h-1.529v.53c0 .98.202 1.82.656 2.48h.002c.387.57.817.99 1.303 1.23l.011.001h.012c.399.18.798.31 1.221.35.301.05.581.05.871.05.985 0 1.879-.28 2.611-.87l.006-.001h.004c.757-.65 1.172-1.54 1.172-2.54 0-.48-.115-.96-.338-1.41-.285-.57-.757-1.06-1.394-1.49-.279-.19-.801-.5-1.639-.92-1.16-.65-1.89-1.17-2.104-1.42-.151-.19-.209-.34-.209-.54 0-.29.095-.51.381-.73h.004.004c.269-.22.568-.33.914-.33h.024l.023-.001c.419-.03.835.07 1.299.35h.004.002c.306.19.653.73.828 1.75l.074.44h.916l.555.001-.026-.56c-.026-.62-.187-1.2-.418-1.74h-.002c-.196-.45-.515-.88-.978-1.23-.528-.43-1.273-.61-2.262-.68h-.019z" mix-blend-mode="normal" solid-color="#000000" white-space="normal" shape-padding="0" isolation="auto"/><path d="m47.01 241.38v.74l.023 10.73h2.514v-5.01h3.779v5.01h2.514v-.98-10.49h-2.514v.53 4.29h-3.779v-4.82h-2.537" mix-blend-mode="normal" solid-color="#000000" white-space="normal" shape-padding="0" isolation="auto"/><path d="m58.47 241.38v11.47h2.537v-.53-10.94h-2.537" mix-blend-mode="normal" solid-color="#000000" white-space="normal" shape-padding="0" isolation="auto"/><path d="m63.67 241.38v.53 10.94h1.74v-7.25l6.078 7.41h1.037v-11.63h-1.714v6.85l-5.584-6.85h-1.557" mix-blend-mode="normal" solid-color="#000000" white-space="normal" shape-padding="0" isolation="auto"/><path d="m79.6 240.92c-1.068 0-2.065.26-2.948.81-.906.52-1.613 1.28-2.121 2.22h-.002-.002c-.487.93-.742 1.98-.742 3.09 0 1.39.389 2.64 1.164 3.67.0001.001 0 .001 0 .001 1.032 1.41 2.573 2.14 4.414 2.14.924 0 1.849-.21 2.819-.64.017 0 .032-.001.048-.02.384-.22.941-.54 1.709-.96l.276-.15v-4.98h-3.947v1.95h.529c.298 0 .506.04.619.09.114.04.131.07.152.11l.037.08.024.02v.09 2.04c-.737.37-1.385.63-1.678.63-.686 0-1.262-.17-1.793-.47-.526-.33-.906-.74-1.144-1.34l-.004-.001-.004-.001c-.269-.6-.424-1.35-.424-2.23 0-2.18.562-3.45 1.563-4.1.458-.28.991-.44 1.572-.44.593 0 1.083.14 1.556.39.388.21.93.74 1.543 1.56l.286.38 1.082-.65-.247-.44c-.551-1-1.225-1.74-2.01-2.24h-.006-.006c-.68-.41-1.465-.6-2.314-.6" mix-blend-mode="normal" solid-color="#000000" white-space="normal" shape-padding="0" isolation="auto"/><path d="m106.33 241.38v.74l.02 10.73h2.52v-5.01h3.78v5.01h2.51v-.98-10.49h-2.51v.53 4.29h-3.78v-4.82h-2.54" mix-blend-mode="normal" solid-color="#000000" white-space="normal" shape-padding="0" isolation="auto"/><path d="m117.53 241.37v6.45c0 1.27.04 2.13.27 2.74.3.83.85 1.49 1.59 1.92.75.42 1.67.61 2.75.61 1.11 0 2.04-.22 2.77-.72.72-.49 1.25-1.18 1.5-2 .19-.59.26-1.35.26-2.34v-6.63h-1.74v6.56c0 1.07-.13 1.8-.27 2.15-.16.38-.46.68-.96.92h-.001c-.45.23-.92.35-1.48.35-.88 0-1.39-.27-1.74-.77-.22-.36-.4-1.15-.4-2.32v-6.92h-2.54" mix-blend-mode="normal" solid-color="#000000" white-space="normal" shape-padding="0" isolation="auto"/><path d="m129.1 241.38v.53 10.94h1.74v-7.25l6.08 7.41h1.04v-11.63h-1.72v6.84l-5.58-6.84h-1.56" mix-blend-mode="normal" solid-color="#000000" white-space="normal" shape-padding="0" isolation="auto"/><path d="m139.2 241.39v1.75l3.47-.03v9.72h2.54v-9.72h3.54v-1.72h-9.55" mix-blend-mode="normal" solid-color="#000000" white-space="normal" shape-padding="0" isolation="auto"/><path d="m150.07 241.38v11.47h2.54v-.53-10.94h-2.54" mix-blend-mode="normal" solid-color="#000000" white-space="normal" shape-padding="0" isolation="auto"/><path d="m155.27 241.38v.53 10.94h1.74v-7.25l6.08 7.41h1.04v-11.63h-1.72v6.84l-5.59-6.84h-1.55" mix-blend-mode="normal" solid-color="#000000" white-space="normal" shape-padding="0" isolation="auto"/><path d="m171.2 240.92c-1.07 0-2.06.26-2.95.81-.9.52-1.61 1.28-2.12 2.22-.49.93-.74 1.98-.74 3.09 0 1.39.38 2.64 1.16 3.67 1.03 1.42 2.57 2.15 4.42 2.15.92 0 1.85-.21 2.82-.64.6-.33 1.21-.68 1.75-.98l.28-.15-.03-4.98h-3.92v1.95h.53c.3 0 .51.04.62.09.11.04.13.07.15.11l.04.08.02.03v.08 2.04c-.74.37-1.38.63-1.68.63-.68 0-1.26-.17-1.79-.47-.53-.33-.91-.75-1.17-1.35-.25-.61-.4-1.36-.4-2.24 0-2.18.56-3.45 1.56-4.1.46-.28.99-.44 1.57-.44.59 0 1.08.14 1.56.39.38.21.92.74 1.54 1.56l.29.38 1.08-.65-.25-.45c-.57-.99-1.22-1.73-2.01-2.23h-.001c-.68-.41-1.47-.6-2.32-.6" mix-blend-mode="normal" solid-color="#000000" white-space="normal" shape-padding="0" isolation="auto"/><path d="m67.77 256.62c-1.049 0-2.042.26-2.922.78-.931.54-1.662 1.33-2.172 2.3-.49.93-.719 1.96-.719 3.04 0 1.39.385 2.64 1.158 3.67h.002c1.032 1.42 2.576 2.14 4.442 2.14 2.025 0 3.679-1.04 4.757-2.94l.254-.45-1.088-.65-.287.38c-.519.7-.985 1.18-1.351 1.43h-.004-.004c-.463.33-1.025.49-1.715.49-.686 0-1.261-.16-1.793-.46-1.043-.65-1.551-1.75-1.551-3.59 0-1.1.136-1.97.426-2.65h.002c.552-1.34 1.347-1.88 2.705-1.88.57 0 1.093.14 1.531.38.394.22.952.75 1.536 1.58l.304.43 1.072-.77-.247-.39c-.55-.97-1.217-1.73-2.01-2.23h-.002c-.664-.42-1.453-.6-2.324-.6" mix-blend-mode="normal" solid-color="#000000" white-space="normal" shape-padding="0" isolation="auto"/><path d="m73.62 257.09v.74l.024 10.72h2.513v-5h3.78v5h2.513v-.98-10.48h-2.513v.53 4.28h-3.78v-4.81h-2.537" mix-blend-mode="normal" solid-color="#000000" white-space="normal" shape-padding="0" isolation="auto"/><path d="m88.88 256.86l-.138.32-4.913 11.33 1.915.06 1.508-3.51h3.316l.497 1.18h-.002c.131.33.238.58.314.76.076.17.13.34.109.25l.007.03.466 1.27h3.138l-5.269-11.68h-.948m.06 4.26l.972 2.32h-1.97l.998-2.32" mix-blend-mode="normal" solid-color="#000000" white-space="normal" shape-padding="0" isolation="auto"/><path d="m96.39 257.09v.53 10.93h1.74v-7.25l6.079 7.41h1.04v-11.62h-1.72v6.84l-5.585-6.84h-1.554" mix-blend-mode="normal" solid-color="#000000" white-space="normal" shape-padding="0" isolation="auto"/><path d="m107.73 257.09v.53 10.93h1.74v-7.25l6.08 7.41h1.04v-11.62h-1.72v6.84l-5.58-6.84h-1.56" mix-blend-mode="normal" solid-color="#000000" white-space="normal" shape-padding="0" isolation="auto"/><path d="m119.02 257.08v11.47h7.61v-.53-1.1h-4.74c-.2 0-.31-.04-.3-.03-.001 0-.001.001-.001-.06v-.55-2.9h4.2v-1.62h-4.2v-3.05h5.05v-1.63h-7.61" mix-blend-mode="normal" solid-color="#000000" white-space="normal" shape-padding="0" isolation="auto"/><path d="m131.18 257.08l-2.54.04v11.43h7.47l.12-.37.43-1.35h-4.41-.75c-.14-.02-.24-.05-.27-.06l-.02-.03c.06.09-.03-.15-.03-.58v-9.08" mix-blend-mode="normal" solid-color="#000000" white-space="normal" shape-padding="0" isolation="auto"/><path d="m90.11 229.84v1.49l2.067-.03v5.85h1.951v-5.85h2.137v-1.46h-6.155" mix-blend-mode="normal" solid-color="#000000" white-space="normal" shape-padding="0" isolation="auto"/><path d="m96.56 229.84v.64 6.66h1.951v-3h1.826v3h1.93v-.79-6.51h-1.93v.53 2.35h-1.826v-2.88h-1.951" mix-blend-mode="normal" solid-color="#000000" white-space="normal" shape-padding="0" isolation="auto"/><path d="m103.39 229.83v7.31h4.98v-.53-.86h-3.03v-.18-1.53h2.53v-1.39h-2.53v-1.41h3.03v-1.41h-4.98" mix-blend-mode="normal" solid-color="#000000" white-space="normal" shape-padding="0" isolation="auto"/><path d="m94.78 241.15c-.741 0-1.436.2-2.02.65-.793.54-1.184 1.43-1.184 2.42 0 .61.2 1.3.498 2.06-.89.52-1.629 1.07-2.14 1.67-.589.7-.918 1.49-.918 2.3 0 .86.384 1.63 1.081 2.14.618.48 1.379.69 2.196.69 1.127 0 2.247-.47 3.325-1.33.882.84 1.783 1.33 2.71 1.33.713 0 1.366-.22 1.866-.66s.83-1.07 1.02-1.85l.08-.34-1.18-.89-.205.75c-.084.3-.201.47-.332.57-.13.11-.295.17-.568.17-.438 0-.919-.29-1.456-.81.569-.71.978-1.47 1.11-2.29.148-.91.165-1.64-.044-2.27l-.121-.36h-1.42l.232.7c.06.17.07.64-.103 1.29-.115.45-.418.95-.812 1.47-.458-.66-.909-1.35-1.347-2.09.497-.28 1-.56 1.304-.82.654-.57 1.026-1.32 1.026-2.11 0-.7-.298-1.33-.82-1.77-.482-.42-1.111-.62-1.776-.62m-.023 1.6c.205 0 .326.07.479.22.132.17.19.3.19.54 0 .35-.104.64-.354.94-.164.2-.427.4-.737.59-.239-.66-.387-1.19-.387-1.43 0-.27.064-.43.22-.59l.009-.0001.007-.0001c.167-.18.33-.25.573-.25m-1.959 5.02c.454.83 1.019 1.72 1.711 2.69-.585.4-1.08.63-1.42.63-.446 0-.741-.12-1.023-.42-.279-.3-.396-.63-.396-1.12 0-.65.344-1.22 1.128-1.78" mix-blend-mode="normal" solid-color="#000000" white-space="normal" shape-padding="0" isolation="auto"/></g></g></g></svg>