<?xml version="1.0" encoding="UTF-8" standalone="no"?>
<svg xmlns:rdf="http://www.w3.org/1999/02/22-rdf-syntax-ns#" xmlns="http://www.w3.org/2000/svg" height="48.208mm" width="169.33mm" version="1.1" xmlns:cc="http://creativecommons.org/ns#" xmlns:dc="http://purl.org/dc/elements/1.1/" viewBox="0 0 599.99998 170.81445">
 <g transform="translate(-66.326 -360.05)">
  <path d="m66.326 360.05v4.67c0 3.34 1.78 6.02 4.904 7.57l17.36 7.13v134.08l-16.477 6.44c-3.124 1.59-4.443 3.8-4.443 7.13v3.79h102v-4c0-3.33-1.78-5.33-4.9-6.92l-16.71-6.44v-59.91h13.36l14.7 19.83c1.78 2.23 3.81 4.22 5.8 4.22h2v-61.69h-2c-1.99 0-4.02 2.01-5.8 4.45l-14.7 20.73h-13.36v-72.39h26.28c3.17 25.61 19.02 36.12 32.44 37.1-12.1 11.25-19.29 27.25-19.29 46.18 0 37.66 26.26 63.93 65.71 63.93 30.45 0 54.56-15.88 63.81-40.6 8.12 23.13 29.49 40.6 63.36 40.6 25.83 0 44.98-12.91 51.45-27.39l-3.36-7.59c-3.78 3.36-16.92 11.59-34.74 11.59-21.15 0-31.86-16.03-31.86-48.32 0-32.97 6.92-48.78 19.84-48.78 3.55 0 8.89 1.33 10.89 3.56-2.2 3.56-3.98 8.48-3.98 13.15 0 18.49 7.8 26.05 30.28 26.05 2.62-3.95 7.48-19.15 8.94-28.36l7.55 2.74v66.39c0 26.92 21.83 36.96 38.29 36.96 17.14 0 26.07-7.35 38.09-20.93h0.88l11.57 20.93h2.25l42.05-12.93c4.38 4.9 17.13 12.93 46.36 12.93 26.29 0 51.46-16.25 51.46-39.42 0-20.05-15.15-31.64-46.55-46.09-8.47-4.02-16.49-9.61-16.49-20.28 0-6.67 3.34-14.93 14.04-14.93 6 0 10.24 1.79 13.8 3.79-2.68 4.67-3.11 8.03-3.11 11.8 0 12.7 8.68 19.39 20.7 19.39 3.14 0 12.04-20.72 12.04-28.07 0-6.23-14.48-14.03-41.2-14.03-36.54 0-53.02 18.71-53.02 38.31 0 18.04 11.59 29.62 35.64 42.54 18.06 9.8 24.71 16.05 24.71 22.27 0 13.36-10.02 18.27-20.05 18.27-4.42 0-9.76-2.46-12.9-5.14 2.69-5.12 3.79-8.46 3.79-12.9 0-10.49-7.57-19.84-17.82-19.84-2.79 0-9.38 13.19-12.13 22.05l-12.36-4.46v-94.43c0-3.56-4.23-6.45-9.38-5.55l-51.87 9.79v4.24c0 1.55 1.55 3.11 5.57 4.9l10.47 4.44v70.61c-6.46 8.46-11.15 11.58-18.27 11.58s-11.36-4.01-11.36-15.8v-84.43c0-4.65-3.13-6.23-7.14-5.56l-48.05 9.06c-5.82-6.63-20.52-9.95-42.59-9.95-27.05 0-54.91 13.91-65.26 41.15-8.5-25.13-31.4-41.15-62.13-41.15-14.7 0-27.93 3.67-38.71 10.23l-2.04-38.29h-148.33zm188.2 35.41c10.47 0 17.37 12.7 17.37 56.56 0 43.66-6.9 56.35-17.37 56.35-10.71 0-17.82-12.69-17.82-56.35 0-43.86 7.11-56.56 17.82-56.56z" fill="#c41e25"/>
 </g>
</svg>
