<svg xmlns="http://www.w3.org/2000/svg" height="92.59" width="600" viewBox="0 0 158.75 24.498459"><g stroke-width="10.686" fill="#002561"><path d="m4.679 23.908h-4.082c-.331 0-.598-.268-.598-.599v-22.16c0-.331.267-.587.598-.587h20.698c.321 0 .588.256.588.588v3.751c0 .321-.267.588-.588.588h-15.74c-.149 0-.277.128-.277.288v17.535c0 .331-.267.599-.598.599"/><path d="m9.06 16.76v-6.71c0-.385.31-.684.695-.684h6.7c.545 0 .812.651.438 1.036l-6.796 6.785c-.384.385-1.036.118-1.036-.427"/><path d="m35.587 19.971c4.392 0 7.811-2.917 7.811-7.725 0-4.809-3.419-7.726-7.811-7.726-4.391 0-7.811 2.917-7.811 7.726 0 4.808 3.42 7.725 7.811 7.725m0 4.52c-7.095 0-13.09-4.904-13.09-12.245 0-7.352 5.994-12.246 13.09-12.246 7.096 0 13.09 4.894 13.09 12.246 0 7.341-5.994 12.245-13.09 12.245"/><path d="m57.09 1.183v7.982h6.796l5.685-8.335c.117-.171.309-.278.523-.278h4.542c.502 0 .801.566.512.983l-6.785 9.831 7.405 11.562c.267.427-.032.972-.534.972h-4.744c-.225 0-.428-.117-.535-.299l-5.941-9.628h-6.924v9.297c0 .353-.278.63-.631.63h-3.975c-.352 0-.63-.277-.63-.63v-22.09c0-.353.278-.631.63-.631h3.975c.353 0 .631.278.631.63"/><path d="m83.2.548c.352 0 .63.278.63.63v11.316c0 4.563 2.073 7.352 6.668 7.352 4.605 0 6.668-2.789 6.668-7.352v-11.316c0-.353.288-.631.63-.631h4.02c.35 0 .63.278.63.63v11.273c0 7.726-4.636 12.03-11.945 12.03-7.298 0-11.947-4.306-11.947-12.03v-11.273c0-.353.278-.631.631-.631z"/><path d="m126.39 6.867c-.17.256-.52.342-.78.171-2.6-1.667-5.28-2.34-8.78-2.34-4.57 0-5.66 1.175-5.66 2.49 0 1.346 1.22 1.688 3.04 1.891l7.01.812c4.98.588 8.06 2.693 8.06 6.999 0 5.236-5.1 7.608-12.11 7.608-4.6 0-8.09-.94-11.65-3.451-.25-.171-.31-.513-.16-.759l1.9-3.131c.18-.288.54-.363.81-.181 3.05 2.01 6.04 2.917 9.69 2.917 3.71 0 6.42-.93 6.42-2.917 0-1.261-.69-1.891-2.66-2.105l-7.86-.887c-4.77-.556-7.68-2.404-7.68-6.753 0-4.947 4.89-7.223 10.85-7.223 4.16 0 7.84.695 11.33 3.142.25.171.31.524.14.78z"/><path d="m140.44 2.788v8.186h-2.68v-8.185h-4.09v-2.233h10.87v2.233z"/><path d="m153.68 10.985h-2.76l-5.09-10.418h2.99l2.31 4.968c.4.866.81 1.71 1.18 2.597.38-.865.77-1.731 1.17-2.597l2.28-4.969h2.99z"/></g></svg>