<svg xmlns="http://www.w3.org/2000/svg" enable-background="new 0 0 200 200" height="600.07" viewBox="0 0 600.00001 600.07404"><g transform="translate(202.03 200.54)"><path fill="#ee3424" d="m397.97 99.52c0 165.72-134.31 300.02-300.02 300.02-165.69 0-299.98-134.31-299.98-300.02 0-165.73 134.29-300.05 299.98-300.05 165.72 0 300.02 134.32 300.02 300.05"/><g fill="#fff"><path d="m-98.3 189.85c5.165-24.66 10.517-79.35 17.379-145.04l23.299-.059 1.626-10.286-23.648.059c2.147-20.325 6.093-64.18 25.08-72.07 5.137 8.907 10.07 15.799 20.976 16 7.07.16 13.303-2.989 13.42-10.693.247-10.894-16.509-15.333-25.07-15.478-15.929-.262-61.15 5.67-72.29 66.56l-2.888 15.682-18.354.086-1.669 10.345 18.511.059c-5.353 47.684-15.901 144.14-18.77 157.37-6.368 29.01-8.589 35.976-23.09 43.871 1.755 3.104 3.539 6.149 5.411 9.194 24.777-7.568 52.645-30.2 60.07-65.6"/><path d="m31.16 84.78c0-12.186-.855-41.07-18.687-41.07-26.36 0-30.04 50.689-30.04 69.11 0 11.869.87 40.767 18.687 40.767 26.332 0 30.04-50.686 30.04-68.808m-89.78 35.38c0-46.743 30.565-87.23 81.28-87.23 31.17 0 49.557 13.883 49.557 44.17 0 46.743-30.568 87.3-81.28 87.3-31.16.003-49.557-13.896-49.557-44.24"/><path d="m172.76 84.78c0-12.186-.839-41.07-18.656-41.07-26.344 0-30.06 50.689-30.06 69.11 0 11.869.87 40.767 18.687 40.767 26.372 0 30.03-50.686 30.03-68.808m-89.78 35.38c0-46.743 30.568-87.23 81.28-87.23 31.22 0 49.585 13.883 49.585 44.17 0 46.743-30.552 87.3-81.27 87.3-31.17.003-49.597-13.896-49.597-44.24"/><path d="m303.07 106.58c6.757-17.527 9.08-33.687 12.766-60.05-1.422-.565-3.135-.827-4.526-.827-31.19 0-45.932 45.3-45.932 70.54 0 6.21 1.422 21.238 10.474 21.238 12.476 0 23.503-21.238 27.22-30.901m64.847 42.19c-17.845 8.558-39.604 15.611-54.635 15.611-7.657 0-7.37-12.155-7.37-17.289 0-5.951.58-14.161 1.974-30l-.58-.58c-10.187 20.427-30.03 47.875-55.54 47.875-20.337 0-28.868-21.238-28.868-38.82 0-44.47 35.14-90.67 84.14-90.67h10.184c4-30.842 4.236-43.883 4.236-53.21 0-3.119 0-5.948-3.397-5.948-2.582 0-6.47.811-16.45 3.961l-2.496-8.225c20.08-7.08 41.955-11.591 61.42-12.155 2.551 0 3.421 0 3.421 4.248 0 26.05-19.585 160.58-19.585 174.16 0 3.714 0 8.53 3.714 8.53 1.971 0 8.53-2.261 17.289-5.365l2.533 7.883"/><path d="m-16.15 234.13v-36.3h7.966v3.918c3.178-2.261 6.861-4.584 11.14-4.584 7.21 0 10.721 4.76 10.721 12.13v24.835h-8.647v-23.564c0-4.933-1.54-6.439-4.452-6.439-3.742 0-6.63 2.144-8.08 3.829v26.17h-8.648z"/><path d="m50.745 211.5c-.13-5.02-2.801-7.92-6.994-7.92-4.149 0-6.806 2.9-6.979 7.92h13.973m-13.973 5.89c.173 7.515 3.511 10.474 7.574 10.474 4.02 0 5.89-1.857 8.05-4.35l6.297 3.887c-3.323 5.165-8.225 7.37-15.204 7.37-9.416 0-15.305-7.281-15.305-18.773 0-11.517 5.89-18.832 15.753-18.832 9.474-.114 14.753 7.95 14.753 16.654v3.57h-21.92"/><path d="m75.55 197.83v-11.924h8.648v11.924h7.124v6.994h-7.124v20.541c0 1.913 1.015 2.496 3.15 2.496 1.305 0 2.7-.435 3.974-.753v7.195c-2.391.231-4.483.494-6.861.494-6.411 0-8.907-3.162-8.907-8.385v-21.587h-4.989v-6.994h4.986"/><path d="m124.57 211.5h-.173l-5.282 22.63h-7.805l-9.326-36.3h8.225l4.933 22.602h.114l5.251-22.602h7.981l5.078 22.602h.114l5.223-22.602h8.185l-9.345 36.3h-7.864z"/><path d="m173.55 204.13c-4.816 0-7.08 3.77-7.08 11.838 0 8.06 2.261 11.893 7.08 11.893 4.819 0 7.111-3.829 7.111-11.893-.003-8.07-2.295-11.838-7.111-11.838m0-6.966c9.866 0 15.784 7.343 15.784 18.804 0 11.548-5.917 18.801-15.784 18.801-9.835 0-15.725-7.253-15.725-18.801 0-11.461 5.89-18.804 15.725-18.804"/><path d="m203.26 234.13v-36.3h7.92v6.235h.145c2.089-4.35 4.989-6.787 10.215-6.905v9.11c-.463-.028-.987-.028-1.567-.028-4.298 0-8.07 4.958-8.07 5.831v22.05h-8.645z"/><path d="m244.02 234.13h-8.648v-50.34h8.648v28.06h.259l10.705-14.01h9.894l-10.702 13.55 11.458 22.747h-9.228l-8.01-16.249-4.378 5.05z"/></g></g></svg>