<svg xmlns="http://www.w3.org/2000/svg" height="767.44" width="600" viewBox="0 0 158.75 203.05064"><g transform="translate(-9.257 2.585)"><path d="m168.01 76.79c0 43.843-35.54 79.37-79.38 79.37-43.836 0-79.37-35.53-79.37-79.37 0-43.836 35.537-79.37 79.37-79.37 43.84 0 79.38 35.536 79.38 79.37" fill="#b50938"/><g fill="#fff"><path d="m36.712 100.7c1.371-6.532 2.792-21.01 4.591-38.39l6.164-.014.44-2.722-6.264.02c.57-5.374 1.602-16.977 6.634-19.07 1.365 2.363 2.658 4.182 5.542 4.235 1.876.035 3.53-.795 3.567-2.824.05-2.884-4.378-4.06-6.639-4.099-4.212-.079-16.178 1.498-19.13 17.599l-.755 4.156-4.864.032-.437 2.725 4.89.015c-1.403 12.619-4.191 38.14-4.962 41.641-1.688 7.68-2.274 9.51-6.105 11.6.463.82.94 1.64 1.426 2.44 6.556-2.01 13.932-8 15.9-17.35"/><path d="m70.959 72.895c0-3.223-.227-10.867-4.946-10.867-6.971 0-7.945 13.412-7.945 18.284 0 3.146.226 10.791 4.946 10.791 6.97 0 7.945-13.413 7.945-18.208m-23.757 9.365c0-12.365 8.096-23.08 21.51-23.08 8.242 0 13.11 3.671 13.11 11.689 0 12.364-8.095 23.08-21.505 23.08-8.246 0-13.12-3.67-13.12-11.689"/><path d="m108.42 72.895c0-3.223-.23-10.867-4.94-10.867-6.973 0-7.948 13.412-7.948 18.284 0 3.146.225 10.791 4.948 10.791 6.97 0 7.94-13.413 7.94-18.208m-23.756 9.365c0-12.365 8.103-23.08 21.506-23.08 8.25 0 13.12 3.671 13.12 11.689 0 12.364-8.09 23.08-21.508 23.08-8.247 0-13.12-3.67-13.12-11.689"/><path d="m142.89 78.66c1.8-4.648 2.4-8.919 3.38-15.887-.38-.151-.83-.225-1.2-.225-8.25 0-12.14 11.988-12.14 18.659 0 1.647.37 5.622 2.77 5.622 3.3 0 6.22-5.622 7.19-8.169m17.16 11.163c-4.72 2.251-10.49 4.123-14.46 4.123-2.02 0-1.95-3.223-1.95-4.572 0-1.573.15-3.745.52-7.942l-.14-.15c-2.7 5.395-7.95 12.664-14.69 12.664-5.4 0-7.65-5.619-7.65-10.268 0-11.765 9.3-23.978 22.26-23.978h2.7c1.05-8.172 1.12-11.613 1.12-14.09 0-.822 0-1.572-.89-1.572-.68 0-1.73.225-4.35 1.048l-.68-2.173c5.32-1.874 11.09-3.073 16.26-3.223.68 0 .9 0 .9 1.124 0 6.894-5.16 42.489-5.16 46.08 0 .98 0 2.253.97 2.253.52 0 2.25-.602 4.57-1.425l.67 2.097z"/><path d="m58.44 112.4v-9.59h2.103v1.03c.848-.59 1.821-1.21 2.947-1.21 1.916 0 2.84 1.25 2.84 3.2v6.57h-2.287v-6.24c0-1.29-.402-1.69-1.179-1.69-.995 0-1.75.57-2.139 1.01v6.92h-2.285"/><path d="m76.14 106.43c-.035-1.34-.739-2.11-1.844-2.11-1.106 0-1.805.77-1.842 2.11h3.686m-3.686 1.54c.037 1.99.92 2.77 1.992 2.77 1.068 0 1.568-.48 2.139-1.14l1.658 1.03c-.88 1.37-2.174 1.96-4.02 1.96-2.492 0-4.06-1.95-4.06-4.99s1.568-4.98 4.169-4.98c2.509-.001 3.908 2.11 3.908 4.41v.94h-5.789"/><path d="m82.7 102.81v-3.172h2.288v3.172h1.879v1.84h-1.879v5.42c0 .52.257.67.83.67.352 0 .719-.11 1.049-.18v1.88c-.624.07-1.175.15-1.804.15-1.695 0-2.363-.85-2.363-2.22v-5.72h-1.326v-1.84h1.326"/><path d="m89.69 102.81h2.175l1.309 5.97h.039l1.386-5.97h2.117l1.327 5.97h.037l1.364-5.97h2.173l-2.468 9.59h-2.068l-1.415-5.97h-.037l-1.405 5.97h-2.064l-2.47-9.59"/><path d="m108.63 104.47c-1.27 0-1.88 1-1.88 3.13 0 2.15.61 3.14 1.88 3.14s1.88-.99 1.88-3.14c0-2.13-.61-3.13-1.88-3.13m0-1.85c2.6 0 4.17 1.94 4.17 4.98s-1.57 4.99-4.17 4.99-4.17-1.95-4.17-4.99 1.57-4.98 4.17-4.98"/><path d="m116.49 112.4v-9.59h2.1v1.64h.04c.55-1.14 1.32-1.79 2.69-1.82v2.41c-.11-.02-.24-.02-.41-.02-1.14 0-2.14 1.31-2.14 1.55v5.83h-2.28"/><path d="m124.99 112.4v-13.314h2.28v7.424h.07l2.83-3.7h2.61l-2.82 3.58 3.03 6.01h-2.44l-2.12-4.3-1.16 1.35v2.95h-2.28"/></g><path d="m20.812 160.11v29.77c0 5.85 4.744 10.59 10.618 10.59h123.3c5.86 0 10.61-4.74 10.61-10.59v-24.67h-133.91c-4.299 0-8.124-2-10.618-5.1" fill="#a7a9ac"/><g fill="#fff"><path d="m54.898 181.05c0 1.22-.425 2.19-1.28 2.94-.855.74-1.898 1.11-3.123 1.11h-7.488v-2.77h7.488c1.033 0 1.559-.43 1.559-1.28v-1.78c0-.91-.526-1.37-1.559-1.37h-10.139v12.4h-2.844v-15.1h12.965c1.231 0 2.273.38 3.133 1.15.863.76 1.288 1.73 1.288 2.92v1.78"/><path d="m73.25 186.25v-7c0-.37-.169-.69-.501-.96-.328-.29-.687-.43-1.07-.43h-8.447c-.386 0-.738.14-1.077.43-.323.27-.498.59-.498.96v7c0 .91.529 1.36 1.575 1.36h8.447c1.043 0 1.571-.45 1.571-1.36m2.84-.03c0 1.2-.433 2.18-1.298 2.93-.87.78-1.903 1.15-3.126 1.15h-8.422c-1.217 0-2.259-.37-3.127-1.15-.861-.75-1.296-1.73-1.296-2.93v-6.97c0-1.13.443-2.09 1.345-2.88.901-.8 1.928-1.2 3.078-1.2h8.422c1.15 0 2.169.4 3.078 1.2.891.79 1.346 1.75 1.346 2.88v6.97z"/><path d="m93.27 190.3h-8.394c-1.218 0-2.25-.37-3.115-1.15-.861-.75-1.291-1.73-1.291-2.93v-11.05h2.845v11.08c0 .91.521 1.35 1.561 1.35h8.394v2.7"/><path d="m113.94 177.86h-12.62c-.39 0-.74.15-1.07.42-.326.28-.495.6-.495.97v.76c0 .9.525 1.35 1.565 1.35l8.44.03c1.21 0 2.24.36 3.1 1.09.89.78 1.33 1.77 1.33 2.97v.78c0 1.14-.46 2.11-1.36 2.89-.9.79-1.91 1.19-3.06 1.19h-12.624v-2.7h12.634c.38 0 .73-.14 1.06-.41.34-.26.5-.59.5-.97v-.79c0-.91-.53-1.36-1.56-1.36l-8.45-.02c-1.21 0-2.254-.38-3.115-1.13-.874-.76-1.301-1.73-1.301-2.92v-.76c0-1.13.447-2.09 1.352-2.88.895-.8 1.914-1.2 3.064-1.2h12.61v2.69"/><path d="m135.61 190.34h-3.05l-1.39-5.28h-6.92l.66-2.77h5.53c-.12-.46-.5-2.1-.76-3.02-.25-.91-.76-1.37-1.54-1.37h-3.49c-.8 0-1.31.46-1.57 1.38l-2.83 11.06h-3.05l2.84-11.05c.72-2.72 2.2-4.08 4.42-4.08h3.86c2.26 0 3.73 1.36 4.42 4.08l2.87 11.05"/><path d="m151.39 177.86h-6.33v12.45h-2.85v-12.45h-6.22v-2.69h15.4v2.69"/></g></g></svg>