<svg xmlns="http://www.w3.org/2000/svg" height="256.74" width="600" viewBox="0 0 562.51103 240.69769"><g transform="matrix(.79278 0 0 .79278 139.1-341.59)"><path fill="#4b464a" d="m424.54 483.65h-600v160h600z"/><g fill="#41a62b"><path d="m-122.15 670.32l202.32-26.67h-205.61z"/><path d="m157.24 431.65-303.77 40.06 1.45 11.94h366.86z"/></g><path fill="#287621" d="m250.46 506.75-28.68-23.08h-366.86l19.68 160h205.56l184.13-24.27z"/><g fill="#fff"><path d="m-76.14 534.97v14.89h25.327v19.63h-25.327v35.06h-23.18v-89.21h51v19.63z"/><path d="m13.05 533.55c-15.09 0-26.525 11.64-26.525 27.03 0 14.83 10.59 25.67 24.977 25.67 14.886 0 25.926-11.29 25.926-26.67 0-15.09-10.341-26.03-24.378-26.03m-1.299 74.08c-28.17 0-48.26-19.23-48.26-46.51 0-28.02 21.28-49 50.05-49 27.924 0 46.957 18.58 46.957 45.81 0 29.02-20.332 49.7-48.756 49.7"/><path d="m122.04 533.55c-15.09 0-26.527 11.64-26.527 27.03 0 14.83 10.587 25.67 24.977 25.67 14.89 0 25.93-11.29 25.93-26.67 0-15.09-10.34-26.03-24.38-26.03m-1.3 74.08c-28.17 0-48.31-19.23-48.31-46.51 0-28.02 21.28-49 50.06-49 27.97 0 47 18.58 47 45.81 0 29.02-20.33 49.7-48.75 49.7"/><path d="m217.1 534.97v69.58h-23.18v-69.58h-18.79v-19.63h61.25v19.63z"/></g><path fill="#96c03a" d="m168.57 523.56l81.88-16.83-93.22-75.08z"/><path fill="#fff" d="m358.74 568.27v32.12c0 1.2-.25 1.7-1.2 1.7h-24.48c-.79 0-1.29-.6-1.29-1.45v-32.12c0-1.35-.5-1.8-1.55-1.8h-31.77c-.95 0-1.45-.59-1.45-1.64v-24.38c0-.95.4-1.4 1.35-1.4h31.97c.95 0 1.45-.5 1.45-1.55v-27.57c0-.75.5-1.2 1.15-1.2h24.37c.95 0 1.45.35 1.45 1.2v27.57c0 1.3.25 1.55 1.3 1.55h32.02c.95 0 1.3.45 1.3 1.55v24.43c0 .85-.45 1.44-1.3 1.44h-31.67c-1.3 0-1.65.25-1.65 1.55"/><path fill="#57aa28" d="m393.01 701.27c-3.5-30.38-6.94-60.75-10.44-91.12-102.11 5.79-204.21 11.59-306.32 17.38 3.197 35.67 6.345 71.34 9.492 106.96 102.41-11.04 204.86-22.13 307.27-33.22"/><g fill="#fff"><path d="m97.67 706.83c6.04-6.94 9.04-10.39 15.08-17.23 4.05-4.55 7.74-9.24 10.69-13.79.5-.7.95-1.5 1.45-2.3 2.4-3.74 3.4-7.19 3.1-10.34-.4-4.09-3.85-7.39-8.34-7.04-3.55.25-5.7 2.15-6.5 5.34-.3 1.2-.35 2.8-.15 4.9-7.04.55-10.59.8-17.632 1.35.05-1.25.05-1.9.1-3.15-.05-2.25.349-4.45 1.149-6.64 3.147-8.85 11.343-14.04 21.833-14.74 7.29-.45 13.43 1.1 18.58 4.7 5.14 3.64 7.94 8.44 8.49 14.38.35 3.45-.35 6.9-1.85 10.04-1.1 2.3-3.19 5.15-6.09 8.6-3.45 3.99-5.15 5.94-8.54 9.94 7.89-.7 11.84-1.05 19.68-1.75.5 5.09.75 7.64 1.2 12.74-20.88 1.99-31.37 2.99-52.25 4.99"/><path d="m183.06 654.36c-5.1 8.5-7.65 12.74-12.74 21.33 5.89-.49 8.79-.74 14.69-1.24-.8-8.05-1.2-12.04-1.95-20.09m18.73 30.83c.45 4.64.65 6.94 1.1 11.59-6.25.59-9.34.89-15.59 1.49-.45-4.69-.7-7.04-1.15-11.69-12.58 1.1-18.88 1.7-31.47 2.85-.4-3.89-.55-5.79-.9-9.64 8.7-15.38 12.99-22.98 21.68-37.96 8.8-.6 13.19-.9 21.93-1.45 1.3 13.09 1.95 19.68 3.2 32.77 3.2-.25 4.8-.4 7.99-.65.45 4.79.7 7.19 1.2 11.94-3.19.3-4.79.45-7.99.75"/><path d="m263.89 690.95c6-6.45 9-9.65 14.99-15.94 4.05-4.25 7.74-8.59 10.69-12.79.45-.65.9-1.35 1.4-2.1 2.35-3.39 3.35-6.64 3.05-9.49-.4-3.79-3.9-6.79-8.4-6.44-3.54.25-5.69 2-6.44 4.94-.3 1.1-.35 2.55-.15 4.5-7.04.55-10.54.85-17.58 1.35v-2.9c0-2.1.4-4.14 1.14-6.09 3.1-8.2 11.29-12.99 21.78-13.69 7.3-.45 13.49.95 18.64 4.25 5.14 3.29 7.94 7.64 8.54 13.08.35 3.2-.3 6.35-1.8 9.25-1.1 2.14-3.2 4.74-6.04 7.99-3.4 3.64-5.1 5.44-8.5 9.14 7.85-.7 11.79-1.05 19.69-1.75.5 4.7.75 6.99 1.25 11.69-20.89 2-31.38 3-52.26 5"/><path d="m349.06 642.18c-5.05 7.79-7.6 11.74-12.64 19.63 5.89-.5 8.79-.75 14.68-1.25-.85-7.34-1.25-11.04-2.04-18.38m18.88 28.12c.5 4.2.7 6.35 1.2 10.6-6.25.59-9.39.89-15.64 1.49-.45-4.29-.7-6.44-1.2-10.69-12.59 1.1-18.88 1.7-31.47 2.8-.4-3.55-.55-5.29-.95-8.84 8.64-14.14 12.94-21.13 21.53-34.92 8.79-.6 13.19-.9 21.93-1.45 1.35 11.99 2 17.99 3.35 29.97 3.2-.24 4.79-.39 7.99-.64.5 4.39.75 6.59 1.25 10.94-3.2.3-4.79.44-7.99.74"/><path d="m217.85 695.34c6.49-.6 9.74-.95 16.23-1.55 8.49-23.23 12.74-34.67 21.23-57.29-6.49.45-9.74.65-16.23 1.04-8.5 22.83-12.74 34.37-21.23 57.8"/></g></g><path d="m0 0c-.145 1.085-.29 2.17-.434 3.256h-6.945c.289-1.411.578-2.823.867-4.233 2.171.326 4.341.651 6.512.977" fill="#e91f26" transform="matrix(19.405 0 0-19.405 562.51 63.18)"/><g fill="#fff"><path d="m0 0c-.072.396-.109.595-.181.99-.352-.027-.528-.04-.88-.068.079-.409.118-.613.196-1.023-.24-.028-.36-.042-.6-.07-.166.846-.333 1.692-.499 2.539.25.006.375.009.625.014.073-.383.11-.576.183-.96.355.021.532.031.886.052-.068.372-.101.558-.169.93.249.006.375.008.625.015l.414-2.349c-.24-.028-.36-.042-.6-.07" transform="matrix(19.405 0 0-19.405 480.28 59.14)"/><path d="m0 0c-.056-.002-.084-.003-.14-.006.081-.498.121-.747.202-1.245.054.005.082.007.136.012.401.039.625.302.57.666-.055.365-.358.591-.768.573m.424-1.708c-.353-.041-.53-.062-.883-.103l-.384 2.28c.367.009.551.013.919.022.608-.004 1.242-.422 1.333-1.019.086-.572-.408-1.101-.985-1.18" transform="matrix(19.405 0 0-19.405 515.37 20.953)"/></g></svg>