<svg xmlns="http://www.w3.org/2000/svg" height="238.68" width="599.99" viewBox="0 0 599.99998 238.67622"><g transform="translate(175.46-431.65)"><path d="m424.54 483.65h-600v160h600v-160" fill="#4b464a"/><g fill="#41a62b"><path d="m-122.15 670.32l202.32-26.67h-205.61l3.29 26.67"/><path d="m157.24 431.65l-303.77 40.06 1.45 11.94h366.86l-64.54-52"/></g><path d="m250.46 506.75l-28.68-23.08h-366.86l19.68 160h205.56l184.13-24.27-13.83-112.65" fill="#287621"/><g fill="#fff"><path d="m-76.14 534.97v14.89h25.327v19.63h-25.327v35.06h-23.18v-89.21h51v19.63h-27.825"/><path d="m13.05 533.55c-15.09 0-26.525 11.64-26.525 27.03 0 14.83 10.59 25.67 24.977 25.67 14.886 0 25.926-11.29 25.926-26.67 0-15.09-10.341-26.03-24.378-26.03m-1.299 74.08c-28.17 0-48.26-19.23-48.26-46.51 0-28.02 21.28-49 50.05-49 27.924 0 46.957 18.58 46.957 45.81 0 29.02-20.332 49.7-48.756 49.7"/><path d="m122.04 533.55c-15.09 0-26.527 11.64-26.527 27.03 0 14.83 10.587 25.67 24.977 25.67 14.89 0 25.93-11.29 25.93-26.67 0-15.09-10.34-26.03-24.38-26.03m-1.3 74.08c-28.17 0-48.31-19.23-48.31-46.51 0-28.02 21.28-49 50.06-49 27.97 0 47 18.58 47 45.81 0 29.02-20.33 49.7-48.75 49.7"/><path d="m217.1 534.97v69.58h-23.18v-69.58h-18.79v-19.63h61.25v19.63h-19.28"/></g><path d="m168.57 523.56l81.88-16.83-93.22-75.08 11.34 91.91" fill="#96c03a"/><path d="m358.74 568.27v32.12c0 1.2-.25 1.7-1.2 1.7h-24.48c-.79 0-1.29-.6-1.29-1.45v-32.12c0-1.35-.5-1.8-1.55-1.8h-31.77c-.95 0-1.45-.59-1.45-1.64v-24.38c0-.95.4-1.4 1.35-1.4h31.97c.95 0 1.45-.5 1.45-1.55v-27.57c0-.75.5-1.2 1.15-1.2h24.37c.95 0 1.45.35 1.45 1.2v27.57c0 1.3.25 1.55 1.3 1.55h32.02c.95 0 1.3.45 1.3 1.55v24.43c0 .85-.45 1.44-1.3 1.44h-31.67c-1.3 0-1.65.25-1.65 1.55" fill="#fff"/></g></svg>