<svg xmlns="http://www.w3.org/2000/svg" viewBox="0 0 600 259.88"><g fill="#f58500"><path d="m160.88 69.34l-88.62-.04c0 12.201 0 23.709-.04 35.33l70.905.04c0 14.304-.04 54.22-.04 69.2l-69.52-.76-.099 86.27-73.47-.05.179-259.33 155.28.079 5.416 69.26z"/><path d="m452.53.296l31.22 54.32 30.957-54.46s52.48.397 79.38.397l-70.91 124.18 76.82 135.15-81.72-.059-36.03-65.27-36.19 65.23-80.43-.079 78.55-134.99-73.52-124.47 81.88.059z"/><path d="m279.27 2.933c-44.15 2.401-86.55 26.52-107.46 67.806-22.318 36.684-18.03 96.16 6.61 130.34 27.795 37.08 67.19 58.17 114.38 54.38 48.13-2.599 94.16-41.32 107.67-86.81 11.6-38 4.35-81.7-17.6-112.77-25.18-34.521-62.37-51.25-103.61-52.933zm1.601 54.33h3.822c10.197.04 18.488 7.3 18.488 16.267l-.11 111.39c-.02 8.908-8.302 16.215-18.538 16.215h-3.77c-10.276-.04-18.591-7.359-18.591-16.267l.052-111.39c0-8.948 8.346-16.215 18.643-16.215z"/></g></svg>