<svg xmlns="http://www.w3.org/2000/svg" viewBox="0 0 600 77.52"><g fill="#c235f7"><path d="m554.18 54.805v-13.694h-21.06v13.694h-6.149v-31.852h6.149v13.155h21.06v-13.155h6.149v31.852h-6.149"/><path d="m581.29 27.957h-9.607v21.846h10.07c7.465 0 12.278-2.96 12.278-10.973 0-8.142-5.322-10.873-12.737-10.873m.857 26.849h-16.374v-31.852h15.517c10.465 0 18.707 4.365 18.707 15.876 0 11.152-7.425 15.976-17.849 15.976"/><path d="m503.29 77.4h-4.056v-76.909h4.056v76.909"/><path d="m193.12 53.917l6.538.06-3.618-26.331-2.92 26.27m10.435-53.648l10.714 74.55-10.833.349-1.605-10.654-9.916.289-1.156 12.458-9.707.05 9.328-75.853 13.175-1.186"/><path d="m239.37.438l10.813-.279.409 76.13-10.305-.11-12.428-39.885.688 39.26-10.764.12.169-73.76 10.185-.399 11.571 38.07-.339-39.15z"/><path d="m258.08.492h10.365l.977 76.71-10.484.11-.857-76.82"/><path d="m288.01 36.694l-1.146 40.11h-10.774l2.591-76.6 10.195.06v.06h2.82l7.335 44.798 4.983-44.798 9.787-.06 2.99-.11 2.88 76.25-10.195.737-1.495-39.04-4.415 34.02-9.269 1.076-6.289-36.506"/><path d="m336.65 53.638l6.787.06-4.136-25.494-2.651 25.434m8.212-53.37l10.714 74.55-9.02.07-1.615-10.654-9.498.279-1.156 12.468-11.93.329 9.318-75.853 13.185-1.186"/><path d="m353.34.1l29.01.11.578 12.01-9.269-.11-.229 64.29-10.764-.508.11-63.784-9.607-.229.169-11.78"/><path d="m386.3.704l9.528-.209.977 76.7-9.647.329-.857-76.82"/><path d="m421.77 19.3c-.56-4.495-1.92-6.827-4.06-7.03v.06c-2.232.299-3.608 2.661-4.146 7.086-.538 4.415-.807 10.873-.807 19.374 0 8.491.269 14.959.807 19.394.538 4.445 1.904 6.817 4.086 7.116v.05c2.193-.179 3.548-2.522 4.086-7.02.578-4.495.857-10.993.857-19.494 0-8.531-.269-15.05-.827-19.544m11.541 19.544c0 12.318-.897 21.716-2.701 28.21-1.804 6.498-6.219 9.877-13.245 10.146v-.06c-7.18-.488-11.63-3.926-13.35-10.315-1.73-6.378-2.6-15.746-2.6-28.09h.06c0-12.278.857-21.587 2.591-27.925 1.724-6.428 6.179-9.847 13.355-10.255v-.06c7.03.229 11.441 3.588 13.235 10.09 1.804 6.498 2.711 15.916 2.711 28.26h-.06z"/><path d="m460.71.438l10.823-.279.399 76.55h-10.305l-12.428-40.41.688 40.41h-10.763l.169-74.8 10.185-.399 11.581 38.07-.349-39.15"/><path d="m0 77.47v-77.47h46.652l1.425 21.18h-26.11v10.11h21.278v21.14h-21.427v25.05h-21.816z"/><path d="m179.58 77.36l-23.33-40.19 21.2-37.05h-23.351l-9.697 16.683-9.518-16.683h-24.17l21.617 37.31-22.892 39.984 23.47-.02 11.202-19.574 11.322 19.544h24.15z"/><path d="m91.04 54.3v-30.945c0-3.528-3.079-6.697-6.538-6.697-3.448 0-6.249 3.169-6.249 6.697l-.001 30.855c0 3.528 2.811 6.398 6.259 6.398 3.458 0 6.538-2.771 6.538-6.309m-43.552-15.467c0-20.789 16.524-37.662 36.915-37.662s36.915 16.873 36.915 37.662c0 20.809-16.524 37.672-36.915 37.672s-36.915-16.863-36.915-37.672"/></g></svg>