<svg xmlns="http://www.w3.org/2000/svg" viewBox="0 0 600 98.56"><g fill="#c235f7"><path d="m245.53 68.55l8.312.076-4.599-33.476-3.713 33.4m13.266-68.21l13.621 94.78-13.773.443-2.04-13.545-12.607.367-1.47 15.838-12.341.063 11.86-96.44 16.751-1.508z"/><path d="m304.33.556l13.748-.355.519 96.79-13.1-.139-15.8-50.708.874 49.91-13.684.152.215-93.78 12.949-.507 14.711 48.4-.431-49.771"/><path d="m328.11.626h13.178l1.242 97.53-13.33.139-1.09-97.67"/><path d="m366.17 46.651l-1.457 51h-13.697l3.294-97.39 12.962.076v.076h3.586l9.326 56.955 6.335-56.955 12.443-.076 3.801-.139 3.662 96.94-12.962.938-1.901-49.631-5.613 43.24-11.784 1.368-7.995-46.41"/><path d="m428.01 68.19l8.629.076-5.258-32.412-3.37 32.34m10.441-67.852l13.621 94.78-11.467.089-2.053-13.545-12.07.355-1.47 15.851-15.167.418 11.85-96.44 16.76-1.508"/><path d="m449.23.127l36.885.139.735 15.268-11.784-.139-.291 81.74-13.684-.646.139-81.09-12.215-.291.215-14.977"/><path d="m491.13.895l12.11-.266 1.242 97.51-12.265.418-1.09-97.67"/><path d="m536.22 24.537c-.71-5.715-2.433-8.68-5.157-8.933v.076c-2.838.38-4.587 3.383-5.271 9.01-.684 5.613-1.026 13.824-1.026 24.632 0 10.795.342 19.02 1.026 24.657.684 5.651 2.42 8.667 5.195 9.05v.063c2.788-.228 4.511-3.206 5.195-8.92.735-5.715 1.09-13.976 1.09-24.784 0-10.846-.342-19.13-1.052-24.847m14.673 24.847c0 15.661-1.14 27.61-3.434 35.871-2.293 8.261-7.907 12.557-16.839 12.899v-.076c-9.123-.621-14.787-4.992-16.979-13.11-2.192-8.109-3.294-20.02-3.294-35.719h.076c0-15.61 1.09-27.445 3.294-35.503 2.192-8.173 7.856-12.519 16.979-13.04v-.076c8.933.291 14.546 4.561 16.827 12.823 2.293 8.261 3.446 20.235 3.446 35.934h-.076z"/><path d="m585.73.556l13.76-.355.51 97.32h-13.1l-15.8-51.38.874 51.38h-13.684l.215-95.09 12.95-.507 14.723 48.4-.443-49.771z"/><path d="m0 98.49v-98.49h59.31l1.812 26.925h-33.2v12.848h27.05v26.875h-27.24v31.842h-27.736"/><path d="m228.32 98.35l-29.662-51.1 26.951-47.11h-29.688l-12.329 21.21-12.1-21.21h-30.727l27.483 47.44-29.1 50.835 29.84-.025 14.242-24.885 14.394 24.847h30.701z"/><path d="m115.74 69.03v-39.34c0-4.485-3.915-8.515-8.312-8.515-4.384 0-7.945 4.03-7.945 8.515l-.013 39.23c0 4.485 3.573 8.135 7.957 8.135 4.397 0 8.312-3.522 8.312-8.02m-55.37-19.665c0-26.431 21.01-47.883 46.933-47.883 25.924 0 46.933 21.452 46.933 47.883 0 26.457-21.01 47.895-46.933 47.895-25.924 0-46.933-21.439-46.933-47.895"/></g></svg>