<svg xmlns="http://www.w3.org/2000/svg" viewBox="0 0 600 291.17"><defs><clipPath id="I"><path d="m475.34 199.98l-.836-1.555-.951 1.555h-2.601l2.235-3.481-2.388-3.855h2.582l1.068 1.618 1.075-1.618h2.64l-2.451 3.829 2.268 3.507h-2.641"/></clipPath><clipPath id="D"><path d="m463.96 196.3c0-2.043 1.811-3.699 4.04-3.699 2.235 0 4.04 1.656 4.04 3.699 0 2.044-1.806 3.702-4.04 3.702-2.232 0-4.04-1.658-4.04-3.702m3.385-1.73v3.386s-.028.524.688.524c.718 0 .673-.524.673-.524v-3.111c0-.353-.041-.644-.703-.644-.658 0-.658.369-.658.369"/></clipPath><clipPath id="H"><path d="m459.12 199.94v-7.298h2.16v2.288h2.36v2.055h-2.332v.977h2.726l-.029 1.978h-4.885"/></clipPath><clipPath id="F"><path d="m-.006-.513h1.01v1.01h-1.01z"/></clipPath><clipPath id="G"><path d="m0-.47h1.124v.936h-1.124z"/></clipPath><clipPath id="J"><path d="m-.149-.676h1.298v1.353h-1.298z"/></clipPath><clipPath id="P"><path d="m-.072-.474h1.072v.84h-1.072z"/></clipPath><clipPath id="K"><path d="m464.9 191.32v-1.689c0-.124-.037-.185-.117-.185h-1.611c-.08 0-.121.061-.121.185v1.689h-.571v-1.689c0-.207.064-.384.193-.533.127-.148.293-.223.5-.223h1.611c.204 0 .368.075.499.223.13.149.193.326.193.533v1.688h-.575"/></clipPath><clipPath id="O"><path d="m459.11 192.2v-.47h19.595l-.295.47h-19.3"/></clipPath><clipPath id="M"><path d="m0-.268h1v.676h-1z"/></clipPath><clipPath id="L"><path d="m0-1.311h1v2.6h-1z"/></clipPath><clipPath id="N"><path d="m476.35 196.52l2.995-4.791h1.253l-2.625 7.24-1.623-2.449"/></clipPath><clipPath id="E"><path d="m478.52 199.98l2.422-8.25h.988.002l-1.093 8.249h-2.319"/></clipPath><clipPath id="C"><path d="m0-.55h1.061v1.167h-1.061z"/></clipPath><clipPath id="5"><path d="m472.02 191.32v-1.636l-1.465 1.636h-.57v-2.445h.571v1.647l1.465-1.647h.567v2.445h-.568"/></clipPath><clipPath id="3"><path d="m0-.275h1v.551h-1z"/></clipPath><clipPath id="1"><path d="m466.53 191.32c-.202 0-.37-.074-.497-.222-.129-.15-.195-.328-.195-.533 0-.207.063-.382.191-.526.131-.15.299-.226.501-.226h1.531c.078 0 .12-.062.12-.183 0-.123-.042-.184-.12-.184h-2.104v-.571h2.104c.203 0 .371.076.502.228.125.145.185.321.185.527 0 .203-.06.381-.185.525-.131.153-.299.228-.502.228h-1.531c-.078 0-.12.061-.12.182 0 .122.042.184.12.184h2.103v.571h-2.103"/></clipPath><clipPath id="0"><path d="m472.96 191.32v-2.445h2.599v.571h-2.029v.367h1.9v.57h-1.9v.366h2.033v.571h-2.602"/></clipPath><clipPath id="2"><path d="m0-.515h1v1.03h-1z"/></clipPath><clipPath id="4"><path d="m469.05 191.32v-2.445h.569.002v2.444h-.57"/></clipPath><clipPath id="B"><path d="m-.067-.613h1.132v1.228h-1.132z"/></clipPath><clipPath id="A"><path d="m-.066-.613h1.132v1.228h-1.132z"/></clipPath><clipPath id="6"><path d="m0-.623h1.058v1.174h-1.058z"/></clipPath><clipPath id="7"><path d="m476.61 191.32c-.202 0-.366-.074-.497-.222-.13-.15-.195-.328-.195-.533 0-.207.063-.382.191-.526.132-.15.299-.226.501-.226h1.531c.078 0 .119-.062.119-.183 0-.123-.041-.184-.119-.184h-2.104v-.571h2.106c.201 0 .371.076.504.228.121.145.183.321.183.527 0 .203-.062.381-.183.525-.134.153-.303.228-.504.228h-1.533c-.08 0-.12.061-.12.182 0 .122.04.184.12.184h2.105v.571h-2.105"/></clipPath><clipPath id="9"><path d="m479.82 191.32c-.2 0-.363-.074-.496-.222-.127-.15-.195-.328-.195-.533 0-.207.065-.382.187-.526.137-.15.304-.226.504-.226h1.534c.078 0 .12-.062.12-.183 0-.123-.042-.184-.12-.184h-2.104v-.571h2.104c.201 0 .369.076.502.228.125.145.185.321.185.527 0 .203-.06.381-.185.525-.133.153-.301.228-.502.228h-1.534c-.077 0-.117.061-.117.182 0 .122.04.184.117.184h2.106v.571h-2.106"/></clipPath><clipPath id="8"><path d="m459.12 191.32v-2.445h2.367c.215 0 .385.068.512.209.117.124.176.28.176.465 0 .252-.102.442-.301.565.17.127.254.305.254.532 0 .184-.058.339-.174.465-.125.139-.297.209-.509.209h-2.324m.57-.571h1.754c.082 0 .122-.063.122-.186 0-.124-.04-.187-.122-.187h-1.754v.373m0-.936h1.796c.082 0 .125-.062.125-.183 0-.123-.043-.184-.125-.184h-1.796v.367"/></clipPath><linearGradient id="S" gradientUnits="userSpaceOnUse" x1="0" x2="1"><stop stop-color="#ae8721"/><stop stop-color="#b58d2f" offset=".213"/><stop stop-color="#c59b52" offset=".5"/><stop stop-color="#c3ac5a" offset="1"/></linearGradient><linearGradient id="R" gradientUnits="userSpaceOnUse" x1="0" x2="1"><stop stop-color="#977b65"/><stop stop-color="#f9f899" offset=".6"/><stop stop-color="#f9f8a1" offset=".684"/><stop stop-color="#f9f8b4" offset=".783"/><stop stop-color="#f8f8d2" offset=".889"/><stop stop-color="#f8f9f9" offset="1"/></linearGradient><linearGradient id="Q" gradientUnits="userSpaceOnUse" x1="0" x2="1"><stop stop-color="#fcec98"/><stop stop-color="#f2d781" offset=".213"/><stop stop-color="#deac58" offset=".5"/><stop stop-color="#866537" offset=".787"/><stop stop-color="#6f532f" offset=".91"/><stop stop-color="#664c2c" offset="1"/></linearGradient></defs><g transform="matrix(26.1632 0 0-26.1632-12011.83 5232.77)" clip-path="url(#H)"><g clip-path="url(#G)" transform="matrix(2.59856-7.13947-7.13947-2.59856 460.11 200.3)"><path fill="url(#Q)" d="m4.061 65.923l-97.96-35.653 27.55-75.69 97.96 35.653-27.55 75.69"/></g></g><g transform="matrix(26.1632 0 0-26.1632-12011.83 5232.77)" clip-path="url(#I)"><g clip-path="url(#F)" transform="matrix(3.20143-8.79585-8.79585-3.20143 472.81 200.65)"><path fill="url(#Q)" d="m2.868 54.798l-79.51-28.939 22.362-61.44 79.51 28.939-22.362 61.44"/></g></g><g transform="matrix(26.1632 0 0-26.1632-12011.83 5232.77)" clip-path="url(#D)"><g clip-path="url(#J)" transform="matrix(2.56047-7.0349-7.0349-2.56047 466.73 199.82)"><path fill="url(#Q)" d="m3.759 67.71l-99.41-36.18 27.96-76.82 99.41 36.18-27.96 76.82"/></g></g><g transform="matrix(26.1632 0 0-26.1632-12011.83 5232.77)" clip-path="url(#E)"><g clip-path="url(#M)" transform="matrix(3.05046-8.38107-8.38107-3.05046 479.29 200.26)"><path fill="url(#R)" d="m2.719 58.18l-83.44-30.371 23.469-64.48 83.44 30.372-23.469 64.48"/></g></g><g transform="matrix(26.1632 0 0-26.1632-12011.83 5232.77)" clip-path="url(#N)"><g clip-path="url(#P)" transform="matrix(2.63362-7.23581-7.23581-2.63362 476.86 198.56)"><path fill="url(#R)" d="m3.051 67.01l-96.65-35.18 27.18-74.69 96.65 35.18-27.18 74.69"/></g></g><g transform="matrix(26.1632 0 0-26.1632-12011.83 5232.77)" clip-path="url(#O)"><g clip-path="url(#L)" transform="matrix(2.44324-6.71275-6.71275-2.44324 467.61 195.29)"><path fill="url(#R)" d="m3.301 70.862l-104.18-37.92 29.3-80.5 104.18 37.92-29.3 80.51"/></g></g><g transform="matrix(26.1632 0 0-26.1632-12011.83 5232.77)" clip-path="url(#K)"><g clip-path="url(#C)" transform="matrix(1.07048-2.94113-2.94113-1.07048 463.51 191.7)"><path fill="url(#S)" d="m6.903 160.11l-237.78-86.55 66.88-183.74 237.78 86.55-66.877 183.75"/></g></g><g transform="matrix(26.1632 0 0-26.1632-12011.83 5232.77)" clip-path="url(#1)"><g clip-path="url(#A)" transform="matrix(.99466-2.73282-2.73282-.99466 466.8 191.47)"><path fill="url(#S)" d="m6.968 173.35l-255.91-93.14 71.97-197.75 255.91 93.14-71.974 197.75"/></g></g><g transform="matrix(26.1632 0 0-26.1632-12011.83 5232.77)" clip-path="url(#4)"><g clip-path="url(#3)" transform="matrix(.85271-2.3428-2.3428-.85271 468.91 191.27)"><path fill="url(#S)" d="m7.764 202.98l-298.51-108.65 83.96-230.67 298.51 108.65-83.956 230.67"/></g></g><g transform="matrix(26.1632 0 0-26.1632-12011.83 5232.77)" clip-path="url(#5)"><g clip-path="url(#2)" transform="matrix(1.09019-2.99527-2.99527-1.09019 470.74 191.6)"><path fill="url(#S)" d="m5.972 159.34l-233.48-84.986 65.66-180.42 233.49 84.985-65.67 180.43"/></g></g><g transform="matrix(26.1632 0 0-26.1632-12011.83 5232.77)" clip-path="url(#0)"><g clip-path="url(#2)" transform="matrix(1.08986-2.99435-2.99435-1.08986 473.71 191.6)"><path fill="url(#S)" d="m5.656 160.26l-233.56-85.01 65.69-180.47 233.55 85-65.69 180.48"/></g></g><g transform="matrix(26.1632 0 0-26.1632-12011.83 5232.77)" clip-path="url(#7)"><g clip-path="url(#A)" transform="matrix(.995-2.73373-2.73373-.995 476.88 191.47)"><path fill="url(#S)" d="m5.78 176.55l-255.82-93.11 71.95-197.69 255.82 93.12-71.951 197.68"/></g></g><g transform="matrix(26.1632 0 0-26.1632-12011.83 5232.77)" clip-path="url(#9)"><g clip-path="url(#B)" transform="matrix(.99466-2.73282-2.73282-.99466 480.09 191.47)"><path fill="url(#S)" d="m5.404 177.64l-255.91-93.14 71.98-197.75 255.91 93.15-71.975 197.74"/></g></g><g transform="matrix(26.1632 0 0-26.1632-12011.83 5232.77)" clip-path="url(#8)"><g clip-path="url(#6)" transform="matrix(1.08017-2.96774-2.96774-1.08017 459.97 191.63)"><path fill="url(#S)" d="m7.205 157.61l-235.65-85.77 66.28-182.09 235.65 85.77-66.28 182.09"/></g></g></svg>