<svg xmlns="http://www.w3.org/2000/svg" viewBox="0 0 600 89.13"><g transform="translate(-229.24-73.02)"><g fill="#d63e32"><path d="m772.11 120.82h10.798v5.592h-10.798v10.79h-5.575v-10.79h-10.848v-5.592h10.848v-10.782h5.575v10.782"/><path d="m787.94 139.67c0-25.346 32.788-17.258 32.788-27.352 0-5.862-7.098-7.851-11.953-7.851-5 0-11.502 1.302-13.09 6.852l-6.861-1.858c2.751-8.572 11.658-11.453 19.779-11.453 9.01 0 19.697 3.88 19.697 14.311 0 15.383-28.752 9.865-31.56 20.909h32.502v6.443h-41.3"/></g><path d="m730.36 78.56v82.61"/><g fill="#808285"><path d="m732.53 161.17h-4.38v-82.61h4.38v82.61" fill-opacity=".902"/><path d="m279.93 100.75l-27.909-.008c0 3.856 0 7.491-.016 11.167l22.35.008c0 4.535-.016 17.14-.033 21.883l-21.883-.237-.033 27.28-23.16-.016.065-81.999 48.916.025 1.703 21.9"/><path d="m371.82 78.936l9.841 17.17 9.75-17.217s16.529.196 24.994.074l-22.325 39.31 24.2 42.702h-25.739l-11.355-20.639-11.396 20.606-25.338-.008 24.732-42.678-23.14-39.35 25.78.025"/><path d="m349.87 96.49c6.926 9.816 9.21 23.644 5.559 35.645-4.233 14.401-18.764 26.632-33.934 27.459-14.867 1.195-27.27-5.493-36.03-17.2-7.769-10.823-9.104-29.595-2.096-41.2 6.599-13.05 19.968-20.68 33.893-21.441 12.976.54 24.675 5.821 32.608 16.742m-25.11 5.592c0-2.841-2.595-5.133-5.813-5.141h-1.212c-3.242 0-5.862 2.292-5.862 5.125l-.033 35.21c0 2.833 2.62 5.125 5.854 5.133h1.212c3.226 0 5.821-2.3 5.837-5.133l.016-35.19z"/></g><g fill="#d63e32"><path d="m476.46 83.09l-.016 14.229c-6.91-5.854-14.08-8.76-21.515-8.768-8.138 0-15.02 2.923-20.614 8.784-5.649 5.845-8.457 13.03-8.457 21.466-.016 8.326 2.808 15.367 8.424 21.11 5.641 5.723 12.501 8.621 20.647 8.645 4.257.008 7.876-.72 10.798-2.104 1.621-.68 3.357-1.613 5.1-2.751 1.752-1.187 3.643-2.587 5.583-4.241l-.016 14.515c-6.844 3.856-14.03 5.821-21.621 5.821-11.347-.016-21.02-3.995-29.04-11.904-8.01-8.01-11.985-17.675-11.969-28.973 0-10.111 3.332-19.17 10.04-27.1 8.244-9.734 18.895-14.564 31.961-14.564 7.163 0 14.05 1.973 20.696 5.829"/><path d="m511.65 124.53l24.683 33.893-14.72-.008-22.817-32.526-2.17-.008-.016 32.51-11.953-.008.057-79.47 14.11.008c10.52.016 18.14 2.01 22.8 5.919 5.19 4.413 7.736 10.225 7.736 17.43-.016 5.641-1.654 10.471-4.879 14.515-3.226 4.03-7.515 6.639-12.837 7.745m-15.01-9.1h3.782c11.453.008 17.17-4.355 17.17-13.01 0-8.162-5.559-12.182-16.66-12.207h-4.265l-.025 25.22z"/><path d="m555.95 78.968l-.057 79.45h-11.953l.041-79.46 11.969.008"/><path d="m565.49 158.45l16.775-85.43 27.26 61.786 28.29-61.753 14.974 85.45-12.297-.008-7.622-47.983-23.562 51.642-22.849-51.724-8.588 48.02h-12.387z"/><path d="m704.08 90.36l-31.888-.041-.008 19.02 25.764.016-.016 11.29-25.748-.016-.016 26.615 31.863.041v11.257l-43.816-.033.057-79.46 43.808.033v11.281"/></g></g></svg>