<svg xmlns="http://www.w3.org/2000/svg" viewBox="0 0 600 122.49"><path d="m557.42 73.78v-12.721h-19.57v12.721h-5.704v-29.599h5.704v12.217h19.57v-12.217h5.704v29.599h-5.704"/><path d="m582.62 48.839h-8.918v20.293h9.339c6.933 0 11.409-2.743 11.409-10.18 0-7.572-4.93-10.113-11.829-10.113m.808 24.955h-15.228v-29.599h14.421c9.726 0 17.382 4.055 17.382 14.757 0 10.348-6.899 14.842-16.574 14.842"/><path d="m510.12 90.85h-3.769v-63.724h3.769v63.724"/><path d="m179.47 36.876c2.272-7.084 7.488-10.82 15.228-10.82 9.09 0 14.96 5.486 16.17 15.09.135.673-.135 1.212-.808 1.481l-3.87.791c-.808.269-1.464-.135-1.615-.925-1.06-7.219-4.392-10.163-9.877-10.163-4 0-7.337 1.868-8.952 6.546-.791 2.945-1.195 4.543-1.195 20.18s.404 17.23 1.195 20.18c1.615 4.678 4.947 6.546 8.952 6.546 5.486 0 8.817-2.945 9.877-10.147.151-.808.808-1.212 1.615-.942l3.87.808c.673.252.942.791.808 1.464-1.212 9.625-7.084 15.09-16.17 15.09-7.74 0-12.957-3.736-15.228-10.82-1.212-3.736-1.464-5.603-1.464-22.18 0-16.557.252-18.443 1.464-22.18"/><path d="m249.47 39.01c-1.464-4.543-4.813-6.68-9.49-6.68s-8.01 2.137-9.474 6.68c-.942 2.81-1.077 4.947-1.077 19.907 0 15.09.135 17.23 1.077 20.04 1.464 4.543 4.796 6.68 9.474 6.68s8.03-2.137 9.49-6.68c.942-2.81 1.077-4.947 1.077-20.04 0-14.96-.135-17.1-1.077-19.907m6.276 41.95c-2.272 7.202-8.01 10.954-15.767 10.954-7.74 0-13.479-3.752-15.75-10.954-1.077-3.601-1.346-6.142-1.346-22.04 0-15.767.269-18.308 1.346-21.909 2.272-7.219 8.01-10.954 15.75-10.954 7.757 0 13.496 3.736 15.767 10.954 1.077 3.601 1.346 6.142 1.346 21.909 0 15.901-.269 18.443-1.346 22.04"/><path d="m328.55 90.86c-.808 0-1.329-.538-1.329-1.346v-43.01c0-9.491-3.349-14.169-10.416-14.169-6.159 0-10.03 4.543-10.163 13.764v43.41c0 .808-.538 1.346-1.329 1.346h-3.887c-.791 0-1.329-.538-1.329-1.346v-43.01c0-9.221-3.079-14.169-10.281-14.169-6.276 0-10.298 4.543-10.298 14.169v43.01c0 .808-.522 1.346-1.329 1.346h-3.87c-.808 0-1.346-.538-1.346-1.346v-61.05c0-.791.538-1.329 1.346-1.329h3.87c.808 0 1.329.538 1.329 1.329v5.216h.135c1.733-4.139 5.486-7.623 12.166-7.623 6.546 0 10.954 2.81 13.09 8.413h.135c2.137-4.93 6.815-8.413 13.361-8.413 10.281 0 15.363 6.276 15.363 19.368v44.09c0 .808-.538 1.346-1.329 1.346h-3.887"/><path d="m376.23 53.709c0-10.416-.538-12.957-1.195-14.825-1.481-4.409-4.678-6.68-9.09-6.68s-7.623 2.272-9.09 6.68c-.673 1.868-1.212 4.409-1.212 14.825 0 .538.269.808.808.808h18.964c.538 0 .808-.269.808-.808m5.216 6.68h-24.988c-.538 0-.808.269-.808.808 0 13.09.538 15.633 1.212 17.904 1.464 4.409 4.678 6.546 8.952 6.546 5.469 0 8.548-2.541 10.281-8.817.269-.942.808-1.212 1.615-.942l3.601.808c.673.135 1.06.673.808 1.599-1.885 8.952-7.623 13.63-16.44 13.63-7.488 0-12.822-3.752-15.09-10.82-.925-2.675-1.464-5.873-1.464-22.04s.538-19.368 1.464-22.18c2.272-7.084 7.606-10.82 15.363-10.82 7.74 0 13.09 3.736 15.363 10.82.925 2.81 1.464 6.01 1.464 22.18 0 .791-.538 1.329-1.329 1.329"/><path d="m422.99 78.954c.942-2.81 1.329-4.813 1.329-19.907s-.387-17.1-1.329-20.04c-1.329-4.139-4.678-6.68-9.221-6.68-4.678 0-7.875 2.137-9.356 6.68-.925 2.945-1.195 4.947-1.195 20.04s.269 17.1 1.195 19.907c1.481 4.543 4.678 6.68 9.356 6.68 4.543 0 7.892-2.406 9.221-6.68m-24.853 2.81c-1.195-3.618-1.464-6.276-1.464-22.717 0-16.558.269-19.1 1.464-22.851 2.272-7.07 7.084-10.147 13.764-10.147 7.084 0 10.551 3.601 12.284 7.74h.135v-32.461c.001-.791.55-1.329 1.36-1.329h3.87c.808 0 1.329.538 1.329 1.329v88.17c0 .808-.522 1.346-1.329 1.346h-3.87c-.808 0-1.346-.538-1.346-1.346v-5.2h-.135c-1.733 4-5.2 7.606-12.284 7.606-6.68 0-11.493-3.063-13.764-10.147"/><path d="m447.83 114.89c-.808 0-1.346-.538-1.346-1.329v-3.618c0-.791.538-1.329 1.346-1.329l1.464-.135c3.618 0 5.486-1.599 6.95-7.353l2.945-11.88-15.09-60.796c-.135-.791.269-1.329 1.06-1.329h4.409c.808 0 1.212.538 1.346 1.329l11.493 48.36h.118l11.493-48.36c.135-.791.538-1.329 1.346-1.329h4.274c.791 0 1.195.538 1.06 1.329l-18.17 72.16c-2.659 11.341-6.142 14.286-13.496 14.286h-1.195"/><path d="m218.13 122.49c-12.267 0-23.877-4.442-31.23-12.02l4.459-4.325c6.377 6.579 16.794 10.348 27.715 10.113 10.147-.202 19.2-3.938 24.82-10.231l4.627 4.123c-6.764 7.589-17.45 12.08-29.31 12.317-.37.017-.724.017-1.077.017"/><g fill="#6f92cc"><path d="m0 95.35v-71.58h43.11l1.329 19.57h-24.15v9.339h19.67v19.537h-19.805v23.14h-20.16z"/><path d="m166.05 95.25l-21.556-37.14 19.587-34.24h-21.572l-8.969 15.413-8.801-15.413h-22.33l19.973 34.479-21.15 36.935h21.69l10.348-18.09 10.466 18.06h22.313z"/><path d="m84.12 73.943v-28.589c0-3.264-2.844-6.192-6.04-6.192-3.18 0-5.772 2.928-5.772 6.192l-.017 28.506c0 3.264 2.608 5.906 5.788 5.906 3.197 0 6.04-2.558 6.04-5.822m-40.25-14.287c0-19.217 15.279-34.798 34.12-34.798 18.829 0 34.11 15.581 34.11 34.798s-15.279 34.798-34.11 34.798c-18.846 0-34.12-15.581-34.12-34.798"/></g></svg>