<svg xmlns="http://www.w3.org/2000/svg" viewBox="0 0 600 152.88"><g fill="#fff"><path d="m224 46.03c2.835-8.842 9.346-13.505 19.01-13.505 11.341 0 18.671 6.847 20.18 18.84.168.84-.168 1.512-1.01 1.848l-4.83.987c-1.01.336-1.827-.168-2.02-1.155-1.323-9.01-5.482-12.685-12.328-12.685-4.999 0-9.157 2.331-11.173 8.17-.987 3.675-1.491 5.671-1.491 25.18 0 19.512.504 21.506 1.491 25.18 2.02 5.839 6.175 8.17 11.173 8.17 6.847 0 11-3.675 12.328-12.665.189-1.01 1.01-1.512 2.02-1.176l4.83 1.01c.84.315 1.176.987 1.01 1.827-1.512 12.01-8.842 18.84-20.18 18.84-9.661 0-16.17-4.663-19.01-13.505-1.512-4.662-1.827-6.994-1.827-27.681 0-20.666.315-23.02 1.827-27.681"/><path d="m311.37 48.688c-1.827-5.671-6.01-8.338-11.845-8.338-5.839 0-9.997 2.667-11.824 8.338-1.176 3.507-1.344 6.175-1.344 24.846 0 18.84.168 21.506 1.344 25.01 1.827 5.671 5.986 8.338 11.824 8.338 5.839 0 10.02-2.667 11.845-8.338 1.176-3.507 1.344-6.175 1.344-25.01 0-18.671-.168-21.339-1.344-24.846m7.834 52.36c-2.835 8.989-9.997 13.672-19.679 13.672-9.661 0-16.823-4.684-19.659-13.672-1.344-4.495-1.68-7.666-1.68-27.514 0-19.679.336-22.851 1.68-27.345 2.835-9.01 9.997-13.672 19.659-13.672 9.682 0 16.844 4.663 19.679 13.672 1.344 4.495 1.68 7.666 1.68 27.345 0 19.847-.336 23.02-1.68 27.514"/><path d="m410.07 113.4c-1.01 0-1.659-.672-1.659-1.68v-53.682c0-11.845-4.18-17.684-13-17.684-7.687 0-12.517 5.671-12.685 17.18v54.19c0 1.01-.672 1.68-1.659 1.68h-4.852c-.987 0-1.659-.672-1.659-1.68v-53.683c0-11.509-3.843-17.684-12.832-17.684-7.834 0-12.853 5.671-12.853 17.684v53.682c0 1.01-.651 1.68-1.659 1.68h-4.83c-1.01 0-1.68-.672-1.68-1.68v-76.2c0-.987.672-1.659 1.68-1.659h4.83c1.01 0 1.659.672 1.659 1.659v6.511h.168c2.163-5.166 6.847-9.514 15.185-9.514 8.17 0 13.672 3.507 16.339 10.501h.168c2.667-6.154 8.506-10.501 16.676-10.501 12.832 0 19.18 7.834 19.18 24.17v55.03c0 1.01-.672 1.68-1.659 1.68h-4.852z"/><path d="m469.59 67.04c0-13-.672-16.17-1.491-18.503-1.848-5.503-5.839-8.338-11.341-8.338-5.503 0-9.514 2.835-11.341 8.338-.84 2.331-1.512 5.503-1.512 18.503 0 .672.336 1.01 1.01 1.01h23.67c.672 0 1.01-.336 1.01-1.01m6.511 8.338h-31.19c-.672 0-1.01.336-1.01 1.01 0 16.339.672 19.512 1.512 22.346 1.827 5.503 5.839 8.17 11.173 8.17 6.826 0 10.669-3.171 12.832-11 .336-1.176 1.01-1.512 2.02-1.176l4.495 1.01c.84.168 1.323.84 1.01 1.995-2.352 11.173-9.514 17.01-20.519 17.01-9.346 0-16-4.684-18.84-13.505-1.155-3.339-1.827-7.33-1.827-27.514s.672-24.17 1.827-27.681c2.835-8.842 9.493-13.505 19.18-13.505 9.661 0 16.339 4.663 19.18 13.505 1.155 3.507 1.827 7.498 1.827 27.681 0 .987-.672 1.659-1.659 1.659"/><path d="m527.94 98.54c1.176-3.507 1.659-6.01 1.659-24.846 0-18.84-.483-21.339-1.659-25.01-1.659-5.166-5.839-8.338-11.509-8.338-5.839 0-9.829 2.667-11.677 8.338-1.155 3.675-1.491 6.175-1.491 25.01 0 18.84.336 21.339 1.491 24.846 1.848 5.671 5.839 8.338 11.677 8.338 5.671 0 9.85-3 11.509-8.338m-31.02 3.507c-1.491-4.516-1.827-7.834-1.827-28.354 0-20.667.336-23.838 1.827-28.521 2.835-8.821 8.842-12.665 17.18-12.665 8.842 0 13.168 4.495 15.332 9.661h.168v-40.512c0-.987.68-1.659 1.68-1.659h4.831c1.01 0 1.659.672 1.659 1.659v110.05c0 1.01-.651 1.68-1.659 1.68h-4.831c-1.01 0-1.68-.672-1.68-1.68v-6.49h-.168c-2.163 4.999-6.49 9.493-15.332 9.493-8.338 0-14.345-3.822-17.18-12.665"/><path d="m558.95 143.4c-1.01 0-1.68-.672-1.68-1.659v-4.516c0-.987.672-1.659 1.68-1.659l1.827-.168c4.515 0 6.847-1.995 8.674-9.178l3.675-14.827-18.84-75.881c-.168-.987.336-1.659 1.323-1.659h5.503c1.01 0 1.512.672 1.68 1.659l14.345 60.36h.147l14.345-60.36c.168-.987.672-1.659 1.68-1.659h5.335c.987 0 1.491.672 1.323 1.659l-22.683 90.06c-3.318 14.156-7.666 17.831-16.844 17.831h-1.491z"/><path d="m272.25 152.88c-15.311 0-29.802-5.545-38.98-14.996l5.566-5.398c7.96 8.212 20.961 12.916 34.591 12.622 12.665-.252 23.963-4.915 30.978-12.769l5.776 5.146c-8.443 9.472-21.78 15.08-36.586 15.374-.462.021-.903.021-1.344.021"/></g><g fill="#6f92cc"><path d="m0 119.01v-89.34h53.808l1.659 24.426h-30.14v11.656h24.551v24.384h-24.719v28.879h-25.16z"/><path d="m207.25 118.89l-26.905-46.35 24.447-42.74h-26.925l-11.194 19.238-10.984-19.238h-27.87l24.929 43.03-26.4 46.1h27.07l12.916-22.577 13.06 22.536h27.849z"/><path d="m105 92.29v-35.683c0-4.075-3.549-7.729-7.54-7.729-3.969 0-7.204 3.654-7.204 7.729l-.021 35.578c0 4.075 3.255 7.372 7.225 7.372 3.99 0 7.54-3.192 7.54-7.267m-50.24-17.83c0-23.985 19.07-43.43 42.592-43.43 23.501 0 42.572 19.448 42.572 43.43 0 23.985-19.07 43.43-42.572 43.43-23.523 0-42.592-19.448-42.592-43.43"/></g></svg>