<svg xmlns="http://www.w3.org/2000/svg" viewBox="0 0 600 157.31"><g fill="#f58500"><path d="m97.35 41.955l-53.629-.024c0 7.383 0 14.347-.024 21.382l42.907.024c0 8.656-.024 32.812-.024 41.875l-42.07-.468-.06 52.21-44.46-.03.107-156.92 93.97.048 3.278 41.912z"/><path d="m273.84.176l18.9 32.872 18.73-32.956s31.755.24 48.03.24l-42.9 75.14 46.49 81.78-49.45-.036-21.802-39.498-21.898 39.474-48.67-.048 47.53-81.69-44.492-75.32 49.547.036z"/><path d="m169 1.771c-26.72 1.453-52.38 16.05-65.03 41.03-13.507 22.2-10.912 58.19 4 78.878 16.82 22.44 40.66 35.2 69.22 32.9 29.12-1.57 56.98-25 65.15-52.53 7.01-22.999 2.64-49.45-10.65-68.25-15.24-20.889-37.74-31.01-62.69-32.03m.97 32.875h2.31c6.17.024 11.19 4.417 11.19 9.844l-.06 67.41c-.02 5.39-5.03 9.81-11.22 9.81h-2.28c-6.22-.03-11.25-4.45-11.25-9.84l.03-67.41c0-5.415 5.05-9.813 11.28-9.813"/><path d="m506.19 111.17v-27.937h-43.14v27.937h-12.594v-64.986h12.594v26.833h43.14v-26.833h12.582v64.986h-12.582"/><path d="m529.97 46.18v65h33.53c21.35 0 36.5-9.86 36.5-32.596 0-23.507-16.83-32.406-38.25-32.406h-31.78m12.09 10.218h19.69c15.16 0 26.06 5.548 26.06 22.19 0 16.352-9.86 22.376-25.15 22.376h-20.6v-44.564"/><path d="m397.84.326v156.96"/><path d="m394.89.336v156.97h5.906v-156.97h-5.906" color="#000"/></g></svg>