<svg xmlns="http://www.w3.org/2000/svg" viewBox="0 0 600 179.84"><g transform="matrix(.99999 0 0 .99999-152.73-476.14)"><g fill="#52205b"><path d="m152.74 498.12v94.36h26.684v-31.381l25.21.252v-25.19h-25.693v-12.863h32.12l-1.991-25.18h-56.33"/><path d="m316.77 498.11l11.351 19.753 11.246-19.835h28.781l-25.677 45.34 27.895 49.16h-29.642l-13.08-23.759-13.07 23.759h-29.17l28.431-49.16-26.684-45.26h29.626"/><path d="m255.07 499.59c-25.23 0-45.698 20.485-45.698 45.714 0 25.21 20.468 45.682 45.698 45.682 25.22 0 45.698-20.468 45.698-45.682 0-25.23-20.476-45.714-45.698-45.714m7.41 65.972c0 3.266-2.99 5.923-6.704 5.923h-1.398c-3.697 0-6.72-2.657-6.72-5.923v-40.514c0-3.283 3.02-5.94 6.72-5.94h1.398c3.713 0 6.704 2.657 6.704 5.94v40.514z"/></g><path d="m629.31 613.85h-211.67v42.14l-35.525-63.58v-116.26h247.2v137.7z" fill="#dd5122"/><g fill="#f0ebdc"><path d="m447.67 569.72c0 4.64.479 5.753 5.485 5.753h3.299v9.889h-38.475v-9.889h3.299c4.9 0 5.745-1.113 5.745-5.753v-49.21c0-6.232-.618-7.224-5.501-7.224h-3.543v-9.864h29.691v66.3"/><path d="m468.47 544.32c0-5.119-.122-6.484-5.501-6.484h-3.9v-10.124h30.05v42c0 4.778.845 5.753 5.501 5.753h3.047v9.889h-38.596v-9.889h3.656c4.884 0 5.745-1.113 5.745-5.753v-24.661-.731m9.141-41.652c5.631 0 10.149 4.526 10.149 10.133 0 5.623-4.518 10.141-10.149 10.141-5.72 0-10.11-4.396-10.11-10.141 0-5.607 4.51-10.133 10.11-10.133"/><path d="m500.64 574.96h2.925c6.102 0 6.102-2.072 6.102-8.654v-28.464h-9.03v-10.124h9.03v-3.307c0-6.59.374-11.465 3.559-15.39 3.762-4.64 10.97-7.817 19.875-7.817 12.481 0 20.06 5.867 20.06 13.562 0 5.501-3.665 9.166-8.8 9.166-4.762 0-8.304-3.307-8.304-7.817 0-2.69 1.593-4.64 4.502-6.11-1.463-.244-2.803-.358-3.9-.358-5.379 0-6.59 3.039-6.59 10.246v7.825h10.49v10.124h-10.49v28.464c0 7.08.244 8.654 6.224 8.654h4.266v10.393h-39.921v-10.393"/><path d="m602.69 565.81c-3.665 14.301-13.553 21.614-29.18 21.614-18.689 0-30.91-12.213-30.91-30.28 0-19.29 11.725-31.25 30.414-31.25 19.306 0 30.666 11.473 30.666 31.01v2.202h-39.71v.975c0 10.628 4.04 15.869 11.847 15.869 7.232 0 11.62-3.657 12.327-10.133h14.545m-19.64-16.6v-.496c0-8.05-3.315-12.335-9.539-12.335-5.745 0-9.166 4.396-9.288 12.83h18.827"/></g><g fill="#dd5122"><path d="m662.92 497.34v95.91"/><path d="m665.44 593.25h-5.07v-95.91h5.07v95.91"/><path d="m714.17 547.27h12.587v6.517h-12.587v12.578h-6.5v-12.578h-12.668v-6.517h12.668v-12.587h6.5v12.587"/><path d="m743.49 569.24v-39.62l-11.896 5.615-2.925-6.362 15.926-7.516h8.142v47.884h-9.247"/></g></g></svg>