<svg xmlns="http://www.w3.org/2000/svg" viewBox="0 0 346 327"><g transform="translate(-21.668-716.23)"><path d="m367.61 992.59l.047-276.3h-345.95v276.33l345.91-.031" fill="#032a61"/><path d="m21.699 754.38c24.24-8.382 49.977-13.489 76.861-14.742 120.02-5.593 225.7 66.881 269.08 173.21v-6c-45.2-104.43-150.39-175.08-269.58-169.51-26.68 1.253-52.26 6.235-76.36 14.445v2.601" fill="#fff"/><path d="m367.67 1043.23l-.11-43.585-345.81.125v43.46h345.92" fill="#e11048"/><g fill="#fff"><path d="m46.47 1037.15c-9.478 0-15.698-4.418-15.698-11.03 0-7.207 6.329-11.546 16.246-11.546 8.711 0 14.319 3.102 14.977 8.241h-10.45c-.595-1.943-2.146-2.945-4.59-2.945-3.588 0-5.499 2.068-5.499 6.05 0 3.87 1.739 5.781 5.374 5.781 2.695 0 4.293-1 4.904-3.071h10.199c-1.018 5.374-6.737 8.523-15.463 8.523"/><path d="m156.81 1036.48c-.235-.689-.407-1.394-.533-2.193-2.93 1.943-6.141 2.867-10.09 2.867-6.204 0-9.901-2.475-9.901-6.204 0-3.556 2.804-5.703 8.413-6.58 7.348-1.144 11.28-.83 11.28-2.46v-.517c0-1.238-1.426-1.88-4.12-1.88-2.977 0-4.716.83-5.123 2.397h-9.557c1.018-4.825 5.906-7.097 14.915-7.097 5.562 0 9.431.877 11.64 2.757 1.974 1.708 2.084 3.854 2.084 6.768v7.99c0 1.88.486 2.992 1.567 3.353v.799h-10.575m-7.269-8.679c-2.334.439-3.4 1.065-3.4 2.35 0 1.473 1.488 2.507 3.807 2.507 3.525 0 6.03-1.473 6.03-3.713v-2.428c-1.786.768-4.12.846-6.439 1.285"/><path d="m190.56 1015.34h10.136v2.898c2.162-2.303 5.248-3.431 9.604-3.431 7.708 0 10.575 2.507 10.575 7.927v13.74h-10.387v-10.638c0-3.901-.235-5.765-4.355-5.765-3.76 0-5.248 1.629-5.248 5.092v11.311h-10.324v-21.13"/><path d="m84.44 1007.85h10.387v10.23c2.381-2.272 5.421-3.306 9.713-3.306 6.627 0 10.215 2.475 10.215 7.16v14.539h-10.387v-10.638c0-3.901-.235-5.765-4.355-5.765-3.76 0-5.248 1.629-5.248 5.092v11.311h-10.324v-28.623"/><path d="m243.73 1015.34h10.152v2.898c2.146-2.303 5.248-3.431 9.604-3.431 7.692 0 10.575 2.507 10.575 7.927v13.74h-10.387v-10.638c0-3.901-.251-5.765-4.355-5.765-3.776 0-5.264 1.629-5.264 5.092v11.311h-10.324v-21.13"/><path d="m327.81 1029.82c-1.849 4.622-7.52 7.285-15.635 7.285-9.792 0-15.933-4.214-15.933-11.11 0-7.081 6.267-11.374 15.933-11.374 9.964 0 16.17 4.34 16.17 11.703 0 .392 0 .83-.047 1.222h-21.432c0 2.992 1.974 4.59 5.671 4.59 2.804 0 4.59-.799 5.311-2.319h9.964m-9.431-6.157c-.047-2.757-2.319-4.34-5.906-4.34-3.337 0-5.483 1.504-5.906 4.34h11.813"/><path d="m348.02 1007.85h10.387v28.623h-10.387v-28.623"/><path d="m21.668 992.66h.376l95.91-276.42h-39.18l-57.11 271.9v4.528"/><path d="m23.908 992.66l174.81-276.39h-44.12l-132.21 276.39h1.52"/></g><g stroke="#032a61"><g stroke-width="6.799"><g fill="none"><path d="m139.45 883.22v-89.05h55.59l1.708 24.346h-31.11v11.625h25.364v24.299h-25.568l-.016 28.78h-25.96z" stroke-miterlimit="3.864"/><path d="m356.34 883.1l-27.62-46.22 24.863-42.582h-28.56l-10.716 18.502-11.05-18.502h-28.639l25.599 42.88-26.555 45.919 28.09-.031 12.784-21.886 13.07 21.918h28.733z"/><path d="m248.99 857.48l.172-37.851c0-4.324-3.838-8.194-8.225-8.194-4.387 0-7.927 3.87-7.927 8.194l-.016 37.741c0 4.324 3.556 7.818 7.943 7.818 4.387 0 8.05-3.384 8.05-7.708zm-53.53-18.283c0-24.8 20.414-44.901 45.622-44.901 25.19 0 45.606 20.1 45.606 44.901 0 24.8-20.414 44.901-45.606 44.901-25.21 0-45.622-20.1-45.622-44.901z" stroke-miterlimit="3.864"/></g><g fill="#221e1f"><path d="m148.52 898h52.719v18.988h-32.26v11.954h26.508v17.578h-26.508v13.849h32.665v18.988h-53.13v-81.36z"/><path d="m205.22 898h20.899l9.839 47.47 9.431-47.47h17.515l9.948 47 10.136-47h16.904l-19.05 81.36h-18.643l-9.635-46.31-9.322 46.31h-19.07l-18.957-81.36z"/><path d="m315.61 950.9c1.52 6.799 5.859 10.199 13.442 10.199 4.951 0 7.88-2.46 7.88-5.624 0-5.969-4.951-5.75-14.241-8.554-15.87-4.684-23.547-11.249-23.547-24.612 0-15.479 11.421-26.962 30.11-26.962 13.74 0 23.343 7.144 27.793 20.398l-17.891 5.969c-2.115-5.859-5.562-8.194-11.311-8.194-4.246 0-7.175 2.695-7.175 5.844 0 4.81 4.543 5.04 12.831 7.395 6.878 1.99 13.238 3.274 18.69 8.319 4.449 4.105 6.768 10.09 6.768 17.343 0 6.815-2.413 13.254-6.862 18.06-5.765 6.22-13.849 9.619-23.453 9.619-17.782 0-29.406-9.149-32.743-24.863l19.709-4.34z"/><path d="m123.05 898.31v40.875l-24.456-40.828h-23.563l-.204 80.934 20.837-.047v-46.891l27.918 46.938h19.724v-80.934l-20.257-.047z"/></g></g><g fill="#fff"><path d="m139.4 883.08v-89.07h55.6l1.708 24.346h-31.11v11.625h25.349v24.299h-25.568l-.016 28.795h-25.96"/><path d="m356.31 882.96l-27.636-46.22 24.863-42.598h-28.56l-10.7 18.502-11.06-18.502h-28.639l25.599 42.896-26.555 45.919 28.11-.031 12.768-21.886 13.08 21.918h28.733"/><path d="m248.95 857.34l.172-37.867c0-4.308-3.823-8.178-8.209-8.178-4.402 0-7.943 3.87-7.943 8.178l-.016 37.757c0 4.308 3.556 7.818 7.959 7.818 4.387 0 8.04-3.4 8.04-7.708zm-53.52-18.299c0-24.785 20.414-44.901 45.606-44.901 25.19 0 45.622 20.12 45.622 44.901 0 24.8-20.429 44.901-45.622 44.901-25.19 0-45.606-20.1-45.606-44.901"/><path d="m148.47 898.01h52.719v18.988h-32.26v11.954h26.524v17.578h-26.524v13.834h32.665v18.988h-53.13v-81.34"/><path d="m205.17 898.01h20.915l9.839 47.47 9.416-47.47h17.515l9.948 47 10.136-47h16.92l-19.07 81.34h-18.643l-9.635-46.3-9.322 46.3h-19.07l-18.957-81.34"/><path d="m315.56 950.92c1.52 6.799 5.875 10.199 13.442 10.199 4.951 0 7.88-2.46 7.88-5.624 0-5.969-4.951-5.75-14.241-8.554-15.87-4.684-23.547-11.264-23.547-24.612 0-15.479 11.421-26.962 30.11-26.962 13.74 0 23.343 7.144 27.793 20.382l-17.891 5.985c-2.115-5.859-5.546-8.209-11.311-8.209-4.246 0-7.175 2.695-7.175 5.859 0 4.81 4.543 5.04 12.831 7.395 6.878 1.99 13.238 3.274 18.69 8.319 4.449 4.105 6.784 10.09 6.784 17.343 0 6.799-2.428 13.254-6.878 18.06-5.765 6.204-13.849 9.604-23.453 9.604-17.782 0-29.406-9.134-32.743-24.847l19.709-4.34"/><path d="m123.02 898.22v40.89l-24.456-40.859h-23.563l-.204 80.95 20.837-.047v-46.891l27.918 46.938h19.724v-80.95l-20.257-.031"/></g></g></g></svg>