<svg xmlns="http://www.w3.org/2000/svg" viewBox="0 0 600 159.63"><g fill="#f58500"><path d="m98.79 42.578l-54.42-.024c0 7.492 0 14.559-.024 21.698l43.541.024c0 8.784-.024 33.3-.024 42.494l-42.69-.47-.061 52.98-45.11-.03.11-159.25 95.36.049 3.326 42.53z"/><path d="m277.89.182l19.17 33.36 19.01-33.442s32.22.244 48.744.244l-43.541 76.25 47.17 82.989-50.18-.036-22.12-40.08-22.22 40.06-49.39-.049 48.23-82.89-45.15-76.44 50.28.037"/><path d="m171.49 1.801c-27.11 1.474-53.15 16.285-65.989 41.638-13.705 22.527-11.07 59.05 4.059 80.04 17.07 22.77 41.26 35.719 70.24 33.392 29.556-1.596 57.822-25.372 66.12-53.31 7.12-23.334 2.67-50.17-10.81-69.25-15.46-21.2-38.3-31.466-63.62-32.502zm.983 33.36h2.347c6.262.024 11.353 4.483 11.353 9.989l-.063 68.4c-.012 5.47-5.098 9.957-11.384 9.957h-2.315c-6.31-.024-11.416-4.519-11.416-9.989l.032-68.4c0-5.494 5.125-9.957 11.448-9.957z"/><path d="m403.72.334v159.28"/><path d="m400.72.344v159.29h5.993v-159.29h-5.993" color="#000"/><path d="m489.02 82.61h20.976v10.862h-20.976v20.961h-10.83v-20.961h-21.07v-10.862h21.07v-20.945h10.83v20.945"/><path d="m519.77 119.22c0-49.24 63.694-33.526 63.694-53.13 0-11.387-13.789-15.252-23.22-15.252-9.717 0-22.344 2.529-25.431 13.312l-13.327-3.61c5.344-16.651 22.647-22.249 38.423-22.249 17.51 0 38.26 7.538 38.26 27.801 0 29.883-55.854 19.16-61.31 40.618h63.15v12.516h-80.23z"/></g></svg>