<svg xmlns="http://www.w3.org/2000/svg" width="1276.24" height="598.35" viewBox="0 0 1276.243 598.352" enable-background="new 0 0 1276.243 598.352" xmlns:xlink="http://www.w3.org/1999/xlink"><defs><linearGradient id="0" gradientUnits="userSpaceOnUse" x1="2924.36" y1="83.55" x2="2884.82" y2="59.676" xlink:href="#1"/><linearGradient id="1" gradientUnits="userSpaceOnUse" x1="-1634.4" y1="96.5" x2="-1594.39" y2="71.975"><stop stop-color="#32608f"/><stop offset=".2" stop-color="#245583"/><stop offset=".4" stop-color="#154976"/><stop offset=".603" stop-color="#083f69"/><stop offset=".8" stop-color="#01335d"/><stop offset="1" stop-color="#002c55"/></linearGradient><radialGradient id="8" cx="184246.69" cy="25456.54" r="1462.84" gradientTransform="matrix(-.0336.00013-.00001-.026 6815.38 1109.32)" gradientUnits="userSpaceOnUse" xlink:href="#6"/><radialGradient id="9" cx="48668.43" cy="81690.95" r="1443.51" gradientTransform="matrix(-.00019.0308-.0412-.00026 3982.95-1726.86)" gradientUnits="userSpaceOnUse"><stop stop-color="#4372a1"/><stop offset="1" stop-color="#002c55"/></radialGradient><radialGradient id="A" cx="48668.12" cy="81690.95" r="1443.51" gradientTransform="matrix(-.00019.0308-.0412-.00026 3982.95-1726.86)" gradientUnits="userSpaceOnUse" xlink:href="#9"/><radialGradient id="7" cx="29432.97" cy="111066.49" r="1935.01" gradientTransform="matrix(.00021.1-.0355.00008 4547.68-2976.26)" gradientUnits="userSpaceOnUse"><stop stop-color="#fff" stop-opacity="0"/><stop offset=".682" stop-color="#e5e9f1"/><stop offset="1" stop-color="#c2cbdd"/></radialGradient><radialGradient id="6" cx="184246.31" cy="25455.9" r="1462.83" gradientTransform="matrix(-.0336.00013-.00001-.026 6815.38 1109.32)" gradientUnits="userSpaceOnUse"><stop stop-color="#4372a1"/><stop offset=".746" stop-color="#113d68"/><stop offset="1" stop-color="#002c55"/></radialGradient><radialGradient id="2" cx="184246.31" cy="25456.03" r="1462.83" gradientTransform="matrix(-.0336.00013-.00001-.026 6815.38 1109.32)" gradientUnits="userSpaceOnUse" xlink:href="#6"/><radialGradient id="B" cx="48668.24" cy="81690.99" r="1443.5" gradientTransform="matrix(-.00019.0308-.0412-.00026 3982.95-1726.86)" gradientUnits="userSpaceOnUse" xlink:href="#9"/><radialGradient id="3" cx="184246.19" cy="25455.67" r="1462.83" gradientTransform="matrix(-.0336.00013-.00001-.026 6815.38 1109.32)" gradientUnits="userSpaceOnUse" xlink:href="#6"/><radialGradient id="5" cx="184246.31" cy="25455.41" r="1462.82" gradientTransform="matrix(-.0336.00013-.00001-.026 6815.38 1109.32)" gradientUnits="userSpaceOnUse"><stop stop-color="#4372a1"/><stop offset=".658" stop-color="#113d68"/><stop offset="1" stop-color="#002c55"/></radialGradient><radialGradient id="4" cx="184246.44" cy="25455.73" r="1462.82" gradientTransform="matrix(-.0336.00013-.00001-.026 6815.38 1109.32)" gradientUnits="userSpaceOnUse" xlink:href="#6"/></defs><path fill="#002c55" stroke="#032a61" stroke-width="1.218" d="m605.49 162.53v.844c-1.579-.059-3.156-.125-4.75-.125-72.39 0-131.09 61.01-131.09 136.25s58.708 136.25 131.09 136.25c1.596 0 3.17-.066 4.75-.125v.188h258.47 17.25 258.5v-.219c1.82.078 3.632.156 5.47.156 72.39 0 131.06-61.01 131.06-136.25s-58.677-136.25-131.06-136.25c-1.838 0-3.648.079-5.47.156v-.875h-258.5-17.25-258.47z"/><g transform="matrix(.18645 0 0 .18645 376.54 170.86)"><path fill="#93a1be" d="m656.14 2292.84c-1404.36 0-2675.68-668.22-2675.68-1620.1 0-817.87 1126.95-1589.12 2678.68-1589.12 1543.71 0 2679.38 762.88 2679.38 1585.7 0 944.63-1234.06 1623.52-2682.38 1623.52"/><path fill="#f3f5fa" d="m718.2 2226.33c1230.82 0 2543.93-604.8 2543.93-1559.13 0-863.37-1268.02-1516.84-2543.93-1516.84v1347.94 1638.64 89.4"/><path fill="#f8f9fc" d="m600.94 2226.33c-1230.82 0-2543.93-604.8-2543.93-1559.13 0-808.73 1178.73-1516.84 2543.93-1516.84v1347.94 1638.64 89.4"/><path fill="#fbfbfd" d="m2611.88 688.57c0 792.64-874.65 1435.2-1953.58 1435.2s-1953.58-642.56-1953.58-1435.2 874.65-1435.2 1953.58-1435.2 1953.58 642.56 1953.58 1435.2"/><path fill="url(#7)" d="m653.95 2111.49l-373.15-20.731-416.49-88.57-393.87-169.61-314.72-207.31-254.42-339.22-196-665.25 147.94-367.49c227.19-136.68 403.3-193.17 403.3-193.17l622.85-29.21 233.69 165.84 324.15-222.38 290.22 15.08 282.68 120.61 226.15-67.844 418.38 56.54 226.14-98c255.08 62.769 619.08 266.67 619.08 266.67l74.44 604.01-128.15 410.84-184.69 239.34-165.85 143.23-344.87 209.18-373.15 156.42-491.87 71.62-231.8 9.417"/><g fill="#fff" stroke="#fff"><path stroke-width="43.8" d="m1378 1020.36h-376l366.57-639.43-345.57-596.57h387l152 267 155-267h373.63l-339.47 592.91 373.84 643.09h-386.52l-181.42-313.27-179.06 313.27z"/><path stroke-width="44" d="m-762 1022.37v-1240h746l22.999 339h-419v162h341v338h-343v401h-347.99z"/></g><path fill="url(#9)" d="m-762 1022.37v-1240h746l22.999 339h-419v162h341v338h-343v401h-347.99"/><path fill="url(#B)" d="m587.31-199.06c-339.43 0-589.85 285.65-589.85 603.66 0 300.23 235.45 602.19 591.41 602.19 335.56 0 590.5-277.54 590.5-603.97 0-321.55-254.08-601.88-592.06-601.88m2.687 247.44c60.57 0 105 54.653 105 109v492c0 60.14-48.39 103-105 103-63.44 0-101-54.35-101-105v-485c0-61.57 42.693-114 101-114"/><path fill="url(#A)" d="m1378 1020.36h-376l366.57-639.43-345.57-596.57h387l152 267 155-267h373.63l-339.47 592.91 373.84 643.09h-386.52l-181.42-313.27-179.06 313.27"/><g fill="#002c55"><path d="m-1852 722.36h420c15.86 488.54 356.42 957.87 954.14 1237.78l-11.423 42.28c-763.95-230.02-1336.34-699.04-1362.72-1280.06"/><path d="m3169.81 722.36h-420c-15.86 488.54-356.42 957.87-954.14 1237.78l11.429 42.28c763.95-230.02 1336.33-699.04 1362.72-1280.06"/></g><path fill="url(#1)" d="m-1490 152.36l-143-68.999c235.23-314.75 680.62-569.45 1143.86-709.32l11.492 42.39c-281.76 132.39-523.46 317.67-682.35 523.92l-330 212"/><path fill="#002c55" d="m-1850 618.36h420c15.331-251.19 110.97-476.99 270-678-277.17 50.44-473 143-473 143-130.43 172.3-202.17 350.23-217 535"/><path fill="url(#0)" d="m2808.82 152.36l143-68.999c-235.23-314.75-680.63-569.45-1143.86-709.32l-11.492 42.39c281.76 132.39 523.46 317.67 682.35 523.92l330 212"/><path fill="#002c55" d="m3168.82 618.36h-420c-15.331-251.19-110.97-476.99-270-678 277.18 50.44 473 143 473 143 130.43 172.3 202.17 350.23 217 535"/><g fill="#fff" stroke="#fff" stroke-width="43"><path d="m-791 1562.86v-63.63l32.5-31.887h266.55l9.946-9.983v-69l-7.998-7.993h-247l-54-54.01v-157.01l62.999-62.994h358v68.996l-26 26h-260l-9.999 10v67l7.998 7.993h246l55 55.01v159l-62.5 62.5h-371.5z"/><path d="m1700.66 1562.86v-63.63l32.5-31.887h266.56l9.941-9.983v-69l-7.998-7.993h-247l-54-54.01v-157.01l62.999-62.994h358v68.996l-26 26h-260l-10 10v67l8 7.993h246l55 55.01v159l-62.5 62.5h-371.5z"/></g><path fill="url(#6)" d="m-791 1562.86v-63.63l32.5-31.887h266.55l9.946-9.983v-69l-7.998-7.993h-247l-54-54.01v-157.01l62.999-62.994h358v68.996l-26 26h-260l-9.999 10v67l7.998 7.993h246l55 55.01v159l-62.5 62.5h-371.5"/><path fill="url(#3)" d="m-278 1106.38v456.5h125v-146.5h247l70-70.01v-170l-70-69.997h-372m125 96h172l19 19v87.994l-19 19h-172v-126"/><path fill="url(#5)" d="m301 1106.38l-69.997 69.997v317l68.996 69.51h309l70-69.51v-317l-70-69.997h-308m80 98.99h147l26 25.01v200.44l-25.812 25.56h-147.19l-26-26v-199.01l26-26"/><path fill="url(#4)" d="m762 1106.38v456.5h125v-165.5h134l58.998 165.99h140l-79.996-187.53 60.998-60.46v-146l-62.999-62.999h-376m125 93h170l18 17.997v67l-18 17.997h-170v-103"/><path fill="url(#2)" d="m1389 1562.86v-351.5h-145v-105h416v105h-145.5v351.5h-125.5"/><path fill="url(#8)" d="m1700.66 1562.86v-63.63l32.5-31.887h266.56l9.941-9.983v-69l-7.998-7.993h-247l-54-54.01v-157.01l62.999-62.994h358v68.996l-26 26h-260l-10 10v67l8 7.993h246l55 55.01v159l-62.5 62.5h-371.5"/><path fill="#60779c" d="m657.47-765.06c-1159.42 0-2001.62 696.23-2001.62 1440.75 0 845.77 930.47 1465.12 2000.62 1465.12 1029.17 0 2005.97-583.78 2005.97-1472.9 0-724.58-828.35-1432.97-2004.97-1432.97m.598 51.22c570.93 0 1109.03 173.13 1493.87 498.85 197.92 228.05 352.19 530.61 352.19 905.28 0 366.87-150.38 669.22-351.25 900.38-345.05 297.32-876.56 499.87-1495.41 499.87-619 0-1148.87-205.33-1494.59-500.06-226.37-263.95-350.87-573.59-350.87-902.07 0-350.72 136.88-653.55 349.97-901.5 329.1-282.61 858.84-500.75 1496.1-500.75"/></g><path fill="#fff" transform="matrix(1 0-.21999 1 0 0)" d="m1235.77 207.52v98.51h13.71l.05 40.37h-13.76v44.43h-50.47v-44.44h-99.68l-1.07-40.37 27.97-98.51 51.05.0001-28 98.5h49.73v-61.06l.28-37.45z"/></svg>