<svg xmlns="http://www.w3.org/2000/svg" xmlns:xlink="http://www.w3.org/1999/xlink" viewBox="0 0 600 221.91"><defs><linearGradient id="1" y2="20.408" xlink:href="#2" gradientUnits="userSpaceOnUse" x2="264.27" y1="67.842" x1="342.84"/><linearGradient id="2" x1="0" x2="1"><stop stop-color="#32608f"/><stop stop-color="#245583" offset=".2"/><stop stop-color="#154976" offset=".4"/><stop stop-color="#083f69" offset=".603"/><stop stop-color="#01335d" offset=".8"/><stop stop-color="#002c55" offset="1"/></linearGradient><linearGradient id="0" y2="20.415" xlink:href="#2" gradientUnits="userSpaceOnUse" x2="106.29" y1="69.15" x1="26.798"/><radialGradient id="5" gradientUnits="userSpaceOnUse" cy="2490.1" cx="725.13" gradientTransform="matrix(-.06688.00025-.00019-.05169 231.4 224.48)" r="1462.8"><stop stop-color="#4372a1"/><stop stop-color="#113d68" offset=".658"/><stop stop-color="#002c55" offset="1"/></radialGradient><radialGradient id="3" gradientUnits="userSpaceOnUse" cy="-1173.2" cx="586.64" gradientTransform="matrix(-.00038.0613-.08196-.00051 85.73 9.64)" r="1443.5"><stop stop-color="#4372a1"/><stop stop-color="#002c55" offset="1"/></radialGradient><radialGradient id="6" gradientUnits="userSpaceOnUse" cy="-888.92" cx="612.99" gradientTransform="matrix(.00042.19889-.07058.00016 119.04-60.09)" r="1935"><stop stop-color="#fff" stop-opacity="0"/><stop stop-color="#e5e9f1" offset=".682"/><stop stop-color="#c2cbdd" offset="1"/></radialGradient><radialGradient id="4" gradientUnits="userSpaceOnUse" cy="2490.1" cx="725.13" gradientTransform="matrix(-.06688.00025-.00019-.05169 231.4 224.48)" r="1462.8"><stop stop-color="#4372a1"/><stop stop-color="#113d68" offset=".746"/><stop stop-color="#002c55" offset="1"/></radialGradient></defs><path d="m351.01 60.28v.313c-.586-.022-1.171-.046-1.762-.046-26.846 0-48.619 22.626-48.619 50.53 0 27.906 21.773 50.53 48.619 50.53.591 0 1.176-.025 1.762-.046v.07h95.86 6.398 95.87v-.081c.675.029 1.346.058 2.028.058 26.846 0 48.608-22.626 48.608-50.53 0-27.906-21.761-50.53-48.608-50.53-.682 0-1.353.029-2.028.058v-.325h-95.87-6.398-95.86z" stroke="#032a61" stroke-width=".452" fill="#002c55"/><path fill="#93a1be" d="m185.02 221.91c-97.11 0-185.02-46.2-185.02-112.03 0-56.55 77.927-109.88 185.23-109.88 106.74 0 185.28 52.752 185.28 109.65 0 65.32-85.33 112.26-185.48 112.26z"/><path fill="#f3f5fa" d="m189.31 217.31c85.11 0 175.91-41.821 175.91-107.81 0-59.698-87.68-104.89-175.91-104.89v93.21 113.31z"/><path fill="#f8f9fc" d="m181.2 217.31c-85.11 0-175.91-41.821-175.91-107.81.003-55.92 81.51-104.89 175.91-104.89v93.21 113.31z"/><path fill-rule="evenodd" fill="#fbfbfd" d="m320.26 110.98a135.09 99.242 0 0 1 -270.17 0 135.09 99.242 0 1 1 270.17 0"/><path fill="url(#6)" d="m184.87 209.37l-25.8-1.43-28.8-6.13-27.24-11.72-21.763-14.34-17.592-23.46-13.553-46 10.23-25.408c15.71-9.451 27.887-13.357 27.887-13.357l43.07-2.02 16.16 11.468 22.414-15.377 20.07 1.042 19.547 8.34 15.638-4.691 28.93 3.909 15.638-6.776c17.638 4.34 42.809 18.44 42.809 18.44l5.147 41.766-8.861 28.409-12.771 16.55-11.468 9.904-23.848 14.465-25.802 10.816-34.01 4.952z"/><g fill="#fff" stroke="#fff"><path d="m234.93 133.92h-26l25.348-44.22-23.896-41.25h26.76l10.511 18.463 10.718-18.463h25.836l-23.473 40.999 25.85 44.47h-26.727l-12.546-21.662z" stroke-width="3.03"/><path d="m86.957 134.06v-85.74h51.585l1.59 23.441h-28.973v11.202h23.58v23.372h-23.718v27.729z" stroke-width="3.043"/></g><g fill="url(#3)"><path d="m86.957 134.06v-85.74h51.585l1.59 23.441h-28.973v11.202h23.58v23.372h-23.718v27.729z"/><path d="m180.26 49.601c-23.471 0-40.787 19.752-40.787 41.742 0 20.761 16.281 41.64 40.895 41.64 23.2 0 40.832-19.19 40.832-41.764 0-22.23-17.569-41.619-40.94-41.619zm.186 17.11c4.189 0 7.261 3.779 7.261 7.537v34.02c0 4.159-3.346 7.122-7.261 7.122-4.387 0-6.984-3.758-6.984-7.261v-33.537c0-4.257 2.952-7.883 6.984-7.883"/><path d="m234.93 133.92h-26l25.348-44.22-23.896-41.25h26.76l10.511 18.463 10.718-18.463h25.836l-23.473 40.999 25.85 44.47h-26.727l-12.546-21.662z"/></g><g fill="#002c55"><path d="m11.585 113.32h29.04c1.097 33.782 24.646 66.24 65.978 85.59l-.79 2.924c-52.821-15.91-92.4-48.34-94.22-88.51z"/><path d="m358.84 113.32h-29.04c-1.097 33.782-24.646 66.24-65.978 85.59l.79 2.924c52.826-15.906 92.41-48.34 94.23-88.51"/></g><path fill="url(#0)" d="m36.617 73.902l-9.888-4.772c16.265-21.764 47.06-39.38 79.09-49.05l.795 2.931c-19.474 9.155-36.19 21.967-47.17 36.23z"/><path fill="#002c55" d="m11.724 106.12h29.04c1.06-17.364 7.673-32.979 18.67-46.878-19.17 3.488-32.707 9.888-32.707 9.888-9.02 11.915-13.98 24.22-15.01 36.99"/><path fill="url(#1)" d="m333.87 73.902l9.888-4.771c-16.26-21.765-47.06-39.38-79.09-49.05l-.795 2.931c19.484 9.154 36.2 21.966 47.18 36.23z"/><path fill="#002c55" d="m358.77 106.12h-29.04c-1.06-17.369-7.673-32.983-18.67-46.883 19.17 3.488 32.707 9.888 32.707 9.888 9.02 11.914 13.98 24.22 15 36.994"/><g fill="#fff" stroke="#fff" stroke-width="2.973"><path d="m84.952 171.44v-4.4l2.247-2.205h18.432l.688-.69v-4.771l-.553-.553h-17.08l-3.734-3.734v-10.856l4.356-4.356h24.755v4.771l-1.798 1.798h-17.979l-.691.691v4.633l.553.553h17.01l3.803 3.803v10.995l-4.322 4.322z" id="7"/><path d="m257.25 171.44v-4.4l2.247-2.205h18.432l.688-.69v-4.771l-.553-.553h-17.08l-3.734-3.734v-10.856l4.356-4.356h24.755v4.771l-1.798 1.798h-17.979l-.691.691v4.633l.553.553h17.01l3.803 3.803v10.995l-4.322 4.322z" id="8"/></g><g fill="url(#4)"><use xlink:href="#7"/><path d="m120.43 139.87v31.566h8.644v-10.13h17.08l4.84-4.84v-11.755l-4.84-4.84h-25.723m8.643 6.638h11.894l1.314 1.314v6.085l-1.314 1.314h-11.894v-8.713"/></g><path fill="url(#5)" d="m160.46 139.87l-4.84 4.84v21.92l4.771 4.806h21.367l4.84-4.806v-21.92l-4.84-4.84h-21.298m5.532 6.846h10.165l1.798 1.729v13.86l-1.785 1.768h-10.178l-1.798-1.798v-13.761l1.798-1.798"/><g fill="url(#4)"><path d="m192.34 139.87v31.566h8.644v-11.444h9.266l4.08 11.479h9.681l-5.532-12.968 4.218-4.181v-10.1l-4.356-4.356h-26m8.644 6.431h11.755l1.245 1.245v4.633l-1.245 1.245h-11.755v-7.122"/><path d="m235.7 171.44v-24.306h-10.03v-7.261h28.766v7.261h-10.06v24.306z"/><use xlink:href="#8"/></g><path fill="#60779c" d="m185.11 10.463c-80.17 0-138.41 48.14-138.41 99.63 0 58.48 64.34 101.31 138.34 101.31 71.17 0 138.71-40.37 138.71-101.85 0-50.1-57.28-99.09-138.64-99.09m.041 3.542c39.479 0 76.69 11.971 103.3 34.494 13.686 15.769 24.353 36.691 24.353 62.6 0 25.368-10.398 46.28-24.288 62.26-23.859 20.56-60.61 34.566-103.41 34.566-42.803 0-79.44-14.198-103.35-34.579-15.653-18.251-24.26-39.662-24.26-62.38 0-24.25 9.465-45.19 24.2-62.34 22.757-19.542 59.39-34.626 103.45-34.626z"/><g fill="#fff"><path d="m388.48 76.73h45.757l7.601 9.883-6.06 25.2-10.52 8.399h-25.693l-3.188 2.57-1.974 8.203h28.26l4.801 5.929-1.926 8h-53.17l7.42-30.835 10.447-8.499h25.693l3.164-2.47 2.449-10.179-1.823-2.274h-28.362l-4.801-5.929z"/><path d="m455.08 76.73h18.678l-6.469 26.881h19.866l6.469-26.881h18.777l-16.409 68.19h-18.777l6.02-25h-19.866l-6.02 25h-18.678z"/><path d="m523.22 76.73h47.04l8.05 10.474-11.368 47.24-13.09 10.474h-47.04zm22.376 54.45l4.168-3.36 8.181-33.995-2.551-3.36h-16.802l-9.797 40.715z"/></g></svg>