<?xml version="1.0" encoding="UTF-8" standalone="no"?>
<!-- Created with Inkscape (http://www.inkscape.org/) -->

<svg
   xmlns:dc="http://purl.org/dc/elements/1.1/"
   xmlns:cc="http://creativecommons.org/ns#"
   xmlns:rdf="http://www.w3.org/1999/02/22-rdf-syntax-ns#"
   xmlns:svg="http://www.w3.org/2000/svg"
   xmlns="http://www.w3.org/2000/svg"
   xmlns:xlink="http://www.w3.org/1999/xlink"
   version="1.1"
   width="1660.5558"
   height="740.49518"
   id="svg9180">
  <defs
     id="defs9182">
    <linearGradient
       id="linearGradient10273">
      <stop
         id="stop10275"
         style="stop-color:#ffffff;stop-opacity:0"
         offset="0" />
      <stop
         id="stop10281"
         style="stop-color:#e5e9f1;stop-opacity:1"
         offset="0.68156213" />
      <stop
         id="stop10277"
         style="stop-color:#c2cbdd;stop-opacity:1"
         offset="1" />
    </linearGradient>
    <linearGradient
       id="linearGradient10202">
      <stop
         id="stop10204"
         style="stop-color:#4372a1;stop-opacity:1"
         offset="0" />
      <stop
         id="stop10206"
         style="stop-color:#113d68;stop-opacity:1"
         offset="0.65811276" />
      <stop
         id="stop10208"
         style="stop-color:#002c55;stop-opacity:1"
         offset="1" />
    </linearGradient>
    <linearGradient
       id="linearGradient10192">
      <stop
         id="stop10194"
         style="stop-color:#4372a1;stop-opacity:1"
         offset="0" />
      <stop
         id="stop10198"
         style="stop-color:#113d68;stop-opacity:1"
         offset="0.74586087" />
      <stop
         id="stop10196"
         style="stop-color:#002c55;stop-opacity:1"
         offset="1" />
    </linearGradient>
    <linearGradient
       id="linearGradient10174">
      <stop
         id="stop10176"
         style="stop-color:#4372a1;stop-opacity:1"
         offset="0" />
      <stop
         id="stop10178"
         style="stop-color:#002c55;stop-opacity:1"
         offset="1" />
    </linearGradient>
    <linearGradient
       id="linearGradient10151">
      <stop
         id="stop10153"
         style="stop-color:#32608f;stop-opacity:1"
         offset="0" />
      <stop
         id="stop10165"
         style="stop-color:#245583;stop-opacity:1"
         offset="0.2" />
      <stop
         id="stop10163"
         style="stop-color:#154976;stop-opacity:1"
         offset="0.40000001" />
      <stop
         id="stop10161"
         style="stop-color:#083f69;stop-opacity:1"
         offset="0.60312504" />
      <stop
         id="stop10159"
         style="stop-color:#01335d;stop-opacity:1"
         offset="0.80000001" />
      <stop
         id="stop10155"
         style="stop-color:#002c55;stop-opacity:1"
         offset="1" />
    </linearGradient>
    <linearGradient
       x1="-1632.0377"
       y1="83.693161"
       x2="-482.44995"
       y2="-621.13605"
       id="linearGradient10157"
       xlink:href="#linearGradient10151"
       gradientUnits="userSpaceOnUse" />
    <linearGradient
       x1="2938.5215"
       y1="64.735039"
       x2="1802.2333"
       y2="-621.24847"
       id="linearGradient10167"
       xlink:href="#linearGradient10151"
       gradientUnits="userSpaceOnUse" />
    <radialGradient
       cx="586.64026"
       cy="-1173.2079"
       r="1443.5"
       fx="586.64026"
       fy="-1173.2079"
       id="radialGradient10180"
       xlink:href="#linearGradient10174"
       gradientUnits="userSpaceOnUse"
       gradientTransform="matrix(-0.0055236,0.88650048,-1.1852983,-0.00738534,-779.69895,-776.96929)" />
    <radialGradient
       cx="725.13293"
       cy="2490.1211"
       r="1462.8293"
       fx="725.13293"
       fy="2490.1211"
       id="radialGradient10190"
       xlink:href="#linearGradient10192"
       gradientUnits="userSpaceOnUse"
       gradientTransform="matrix(-0.96720511,0.00364388,-0.00281603,-0.74746748,1326.89,2329.9911)" />
    <radialGradient
       cx="725.13293"
       cy="2490.1211"
       r="1462.8293"
       fx="725.13293"
       fy="2490.1211"
       id="radialGradient10239"
       xlink:href="#linearGradient10192"
       gradientUnits="userSpaceOnUse"
       gradientTransform="matrix(-0.96720511,0.00364388,-0.00281603,-0.74746748,1326.89,2329.9911)" />
    <radialGradient
       cx="725.13293"
       cy="2490.1211"
       r="1462.8293"
       fx="725.13293"
       fy="2490.1211"
       id="radialGradient10242"
       xlink:href="#linearGradient10192"
       gradientUnits="userSpaceOnUse"
       gradientTransform="matrix(-0.96720511,0.00364388,-0.00281603,-0.74746748,1326.89,2329.9911)" />
    <radialGradient
       cx="725.13293"
       cy="2490.1211"
       r="1462.8293"
       fx="725.13293"
       fy="2490.1211"
       id="radialGradient10245"
       xlink:href="#linearGradient10192"
       gradientUnits="userSpaceOnUse"
       gradientTransform="matrix(-0.96720511,0.00364388,-0.00281603,-0.74746748,1326.89,2329.9911)" />
    <radialGradient
       cx="725.13293"
       cy="2490.1211"
       r="1462.8293"
       fx="725.13293"
       fy="2490.1211"
       id="radialGradient10248"
       xlink:href="#linearGradient10202"
       gradientUnits="userSpaceOnUse"
       gradientTransform="matrix(-0.96720511,0.00364388,-0.00281603,-0.74746748,1326.89,2329.9911)" />
    <radialGradient
       cx="725.13293"
       cy="2490.1211"
       r="1462.8293"
       fx="725.13293"
       fy="2490.1211"
       id="radialGradient10251"
       xlink:href="#linearGradient10192"
       gradientUnits="userSpaceOnUse"
       gradientTransform="matrix(-0.96720511,0.00364388,-0.00281603,-0.74746748,1326.89,2329.9911)" />
    <radialGradient
       cx="725.13293"
       cy="2490.1211"
       r="1462.8293"
       fx="725.13293"
       fy="2490.1211"
       id="radialGradient10254"
       xlink:href="#linearGradient10192"
       gradientUnits="userSpaceOnUse"
       gradientTransform="matrix(-0.96720511,0.00364388,-0.00281603,-0.74746748,1326.89,2329.9911)" />
    <radialGradient
       cx="586.64026"
       cy="-1173.2079"
       r="1443.5"
       fx="586.64026"
       fy="-1173.2079"
       id="radialGradient10263"
       xlink:href="#linearGradient10174"
       gradientUnits="userSpaceOnUse"
       gradientTransform="matrix(-0.0055236,0.88650048,-1.1852983,-0.00738534,-779.69895,-776.96929)" />
    <radialGradient
       cx="586.64026"
       cy="-1173.2079"
       r="1443.5"
       fx="586.64026"
       fy="-1173.2079"
       id="radialGradient10266"
       xlink:href="#linearGradient10174"
       gradientUnits="userSpaceOnUse"
       gradientTransform="matrix(-0.0055236,0.88650048,-1.1852983,-0.00738534,-779.69895,-776.96929)" />
    <radialGradient
       cx="586.64026"
       cy="-1173.2079"
       r="1443.5"
       fx="586.64026"
       fy="-1173.2079"
       id="radialGradient10269"
       xlink:href="#linearGradient10174"
       gradientUnits="userSpaceOnUse"
       gradientTransform="matrix(-0.0055236,0.88650048,-1.1852983,-0.00738534,-779.69895,-776.96929)" />
    <radialGradient
       cx="612.99243"
       cy="-888.92322"
       r="1935.0112"
       fx="612.99243"
       fy="-888.92322"
       id="radialGradient10279"
       xlink:href="#linearGradient10273"
       gradientUnits="userSpaceOnUse"
       gradientTransform="matrix(0.00601042,2.8762583,-1.0207144,0.00231398,-298.02864,-1785.4399)" />
    <radialGradient
       cx="612.99243"
       cy="-888.92322"
       r="1935.0112"
       fx="612.99243"
       fy="-888.92322"
       id="radialGradient10310"
       xlink:href="#linearGradient10273"
       gradientUnits="userSpaceOnUse"
       gradientTransform="matrix(0.00601042,2.8762583,-1.0207144,0.00231398,-298.02864,-1785.4399)" />
    <radialGradient
       cx="586.64026"
       cy="-1173.2079"
       r="1443.5"
       fx="586.64026"
       fy="-1173.2079"
       id="radialGradient10312"
       xlink:href="#linearGradient10174"
       gradientUnits="userSpaceOnUse"
       gradientTransform="matrix(-0.0055236,0.88650048,-1.1852983,-0.00738534,-779.69895,-776.96929)" />
    <radialGradient
       cx="586.64026"
       cy="-1173.2079"
       r="1443.5"
       fx="586.64026"
       fy="-1173.2079"
       id="radialGradient10314"
       xlink:href="#linearGradient10174"
       gradientUnits="userSpaceOnUse"
       gradientTransform="matrix(-0.0055236,0.88650048,-1.1852983,-0.00738534,-779.69895,-776.96929)" />
    <radialGradient
       cx="586.64026"
       cy="-1173.2079"
       r="1443.5"
       fx="586.64026"
       fy="-1173.2079"
       id="radialGradient10316"
       xlink:href="#linearGradient10174"
       gradientUnits="userSpaceOnUse"
       gradientTransform="matrix(-0.0055236,0.88650048,-1.1852983,-0.00738534,-779.69895,-776.96929)" />
    <linearGradient
       x1="-1632.0377"
       y1="83.693161"
       x2="-482.44995"
       y2="-621.13605"
       id="linearGradient10318"
       xlink:href="#linearGradient10151"
       gradientUnits="userSpaceOnUse" />
    <linearGradient
       x1="2938.5215"
       y1="64.735039"
       x2="1802.2333"
       y2="-621.24847"
       id="linearGradient10320"
       xlink:href="#linearGradient10151"
       gradientUnits="userSpaceOnUse" />
    <radialGradient
       cx="725.13293"
       cy="2490.1211"
       r="1462.8293"
       fx="725.13293"
       fy="2490.1211"
       id="radialGradient10322"
       xlink:href="#linearGradient10192"
       gradientUnits="userSpaceOnUse"
       gradientTransform="matrix(-0.96720511,0.00364388,-0.00281603,-0.74746748,1326.89,2329.9911)" />
    <radialGradient
       cx="725.13293"
       cy="2490.1211"
       r="1462.8293"
       fx="725.13293"
       fy="2490.1211"
       id="radialGradient10324"
       xlink:href="#linearGradient10192"
       gradientUnits="userSpaceOnUse"
       gradientTransform="matrix(-0.96720511,0.00364388,-0.00281603,-0.74746748,1326.89,2329.9911)" />
    <radialGradient
       cx="725.13293"
       cy="2490.1211"
       r="1462.8293"
       fx="725.13293"
       fy="2490.1211"
       id="radialGradient10326"
       xlink:href="#linearGradient10202"
       gradientUnits="userSpaceOnUse"
       gradientTransform="matrix(-0.96720511,0.00364388,-0.00281603,-0.74746748,1326.89,2329.9911)" />
    <radialGradient
       cx="725.13293"
       cy="2490.1211"
       r="1462.8293"
       fx="725.13293"
       fy="2490.1211"
       id="radialGradient10328"
       xlink:href="#linearGradient10192"
       gradientUnits="userSpaceOnUse"
       gradientTransform="matrix(-0.96720511,0.00364388,-0.00281603,-0.74746748,1326.89,2329.9911)" />
    <radialGradient
       cx="725.13293"
       cy="2490.1211"
       r="1462.8293"
       fx="725.13293"
       fy="2490.1211"
       id="radialGradient10330"
       xlink:href="#linearGradient10192"
       gradientUnits="userSpaceOnUse"
       gradientTransform="matrix(-0.96720511,0.00364388,-0.00281603,-0.74746748,1326.89,2329.9911)" />
    <radialGradient
       cx="725.13293"
       cy="2490.1211"
       r="1462.8293"
       fx="725.13293"
       fy="2490.1211"
       id="radialGradient10332"
       xlink:href="#linearGradient10192"
       gradientUnits="userSpaceOnUse"
       gradientTransform="matrix(-0.96720511,0.00364388,-0.00281603,-0.74746748,1326.89,2329.9911)" />
    <radialGradient
       cx="612.99243"
       cy="-888.92322"
       r="1935.0112"
       fx="612.99243"
       fy="-888.92322"
       id="radialGradient3437"
       xlink:href="#linearGradient10273"
       gradientUnits="userSpaceOnUse"
       gradientTransform="matrix(0.00601042,2.8762583,-1.0207144,0.00231398,-298.02864,-1785.4399)" />
    <radialGradient
       cx="586.64026"
       cy="-1173.2079"
       r="1443.5"
       fx="586.64026"
       fy="-1173.2079"
       id="radialGradient3439"
       xlink:href="#linearGradient10174"
       gradientUnits="userSpaceOnUse"
       gradientTransform="matrix(-0.0055236,0.88650048,-1.1852983,-0.00738534,-779.69895,-776.96929)" />
    <radialGradient
       cx="586.64026"
       cy="-1173.2079"
       r="1443.5"
       fx="586.64026"
       fy="-1173.2079"
       id="radialGradient3441"
       xlink:href="#linearGradient10174"
       gradientUnits="userSpaceOnUse"
       gradientTransform="matrix(-0.0055236,0.88650048,-1.1852983,-0.00738534,-779.69895,-776.96929)" />
    <radialGradient
       cx="586.64026"
       cy="-1173.2079"
       r="1443.5"
       fx="586.64026"
       fy="-1173.2079"
       id="radialGradient3443"
       xlink:href="#linearGradient10174"
       gradientUnits="userSpaceOnUse"
       gradientTransform="matrix(-0.0055236,0.88650048,-1.1852983,-0.00738534,-779.69895,-776.96929)" />
    <linearGradient
       x1="-1632.0377"
       y1="83.693161"
       x2="-482.44995"
       y2="-621.13605"
       id="linearGradient3445"
       xlink:href="#linearGradient10151"
       gradientUnits="userSpaceOnUse" />
    <linearGradient
       x1="2938.5215"
       y1="64.735039"
       x2="1802.2333"
       y2="-621.24847"
       id="linearGradient3447"
       xlink:href="#linearGradient10151"
       gradientUnits="userSpaceOnUse" />
    <radialGradient
       cx="725.13293"
       cy="2490.1211"
       r="1462.8293"
       fx="725.13293"
       fy="2490.1211"
       id="radialGradient3449"
       xlink:href="#linearGradient10192"
       gradientUnits="userSpaceOnUse"
       gradientTransform="matrix(-0.96720511,0.00364388,-0.00281603,-0.74746748,1326.89,2329.9911)" />
    <radialGradient
       cx="725.13293"
       cy="2490.1211"
       r="1462.8293"
       fx="725.13293"
       fy="2490.1211"
       id="radialGradient3451"
       xlink:href="#linearGradient10192"
       gradientUnits="userSpaceOnUse"
       gradientTransform="matrix(-0.96720511,0.00364388,-0.00281603,-0.74746748,1326.89,2329.9911)" />
    <radialGradient
       cx="725.13293"
       cy="2490.1211"
       r="1462.8293"
       fx="725.13293"
       fy="2490.1211"
       id="radialGradient3453"
       xlink:href="#linearGradient10202"
       gradientUnits="userSpaceOnUse"
       gradientTransform="matrix(-0.96720511,0.00364388,-0.00281603,-0.74746748,1326.89,2329.9911)" />
    <radialGradient
       cx="725.13293"
       cy="2490.1211"
       r="1462.8293"
       fx="725.13293"
       fy="2490.1211"
       id="radialGradient3455"
       xlink:href="#linearGradient10192"
       gradientUnits="userSpaceOnUse"
       gradientTransform="matrix(-0.96720511,0.00364388,-0.00281603,-0.74746748,1326.89,2329.9911)" />
    <radialGradient
       cx="725.13293"
       cy="2490.1211"
       r="1462.8293"
       fx="725.13293"
       fy="2490.1211"
       id="radialGradient3457"
       xlink:href="#linearGradient10192"
       gradientUnits="userSpaceOnUse"
       gradientTransform="matrix(-0.96720511,0.00364388,-0.00281603,-0.74746748,1326.89,2329.9911)" />
    <radialGradient
       cx="725.13293"
       cy="2490.1211"
       r="1462.8293"
       fx="725.13293"
       fy="2490.1211"
       id="radialGradient3459"
       xlink:href="#linearGradient10192"
       gradientUnits="userSpaceOnUse"
       gradientTransform="matrix(-0.96720511,0.00364388,-0.00281603,-0.74746748,1326.89,2329.9911)" />
  </defs>
  <metadata
     id="metadata9185">
    <rdf:RDF>
      <cc:Work
         rdf:about="">
        <dc:format>image/svg+xml</dc:format>
        <dc:type
           rdf:resource="http://purl.org/dc/dcmitype/StillImage" />
        <dc:title></dc:title>
      </cc:Work>
    </rdf:RDF>
  </metadata>
  <path
     d="m 989.19688,162.53137 0,0.84375 c -1.5799,-0.0587 -3.1564,-0.125 -4.75,-0.125 -72.3865,0 -131.09375,61.00624 -131.09375,136.25 0,75.24375 58.70725,136.25 131.09375,136.25 1.594,0 3.1697,-0.0664 4.75,-0.125 l 0,0.1875 258.46882,0 17.25,0 258.5,0 0,-0.21875 c 1.8199,0.0779 3.6304,0.15625 5.4687,0.15625 72.3865,0 131.0626,-61.00625 131.0626,-136.25 0,-75.24375 -58.6762,-136.25 -131.0626,-136.25 -1.8379,0 -3.6491,0.0784 -5.4687,0.15625 l 0,-0.875 -258.5,0 -17.25,0 -258.46882,0 z"
     id="path3118"
     style="fill:#002c55;fill-opacity:1;stroke:#032a61;stroke-width:1.21754503;stroke-opacity:1" />
  <g
     transform="translate(2062.2923,-1694.4869)"
     id="layer1">
    <g
       transform="matrix(0.1864481,0,0,0.1864481,-1643.0035,1865.3435)"
       id="g10283">
      <path
         d="m 656.13513,2292.839 c -1404.357,0 -2675.67873,-668.2161 -2675.67873,-1620.09904 0,-817.87122 1126.9515,-1589.1163 2678.67706,-1589.1163 1543.70524,0 2679.38244,762.87617 2679.38244,1585.69965 0,944.63759 -1234.0676,1623.51569 -2682.38077,1623.51569 z"
         id="path10049"
         style="fill:#93a1be;fill-opacity:1;stroke:none" />
      <path
         d="m 718.20222,2226.3316 c 1230.82128,0 2543.93378,-604.8054 2543.93378,-1559.12843 0,-863.3657 -1268.0124,-1516.84334 -2543.93408,-1516.84334 l 0,1347.93875 3e-4,1638.63372 z"
         id="path10043"
         style="fill:#f3f5fa;fill-opacity:1;stroke:none" />
      <path
         d="m 600.942,2226.3316 c -1230.82132,0 -2543.9338,-604.8054 -2543.9338,-1559.12843 0,-808.72942 1178.72876,-1516.84334 2543.93409,-1516.84334 l 0,1347.93875 -2.9e-4,1638.63372 z"
         id="path10041"
         style="fill:#f8f9fc;fill-opacity:1;stroke:none" />
      <path
         d="m 2478.6217,679.23633 a 1953.5803,1082.0649 0 1 1 -3907.1606,0 1953.5803,1082.0649 0 1 1 3907.1606,0 z"
         transform="matrix(1,0,0,1.3263547,133.25923,-212.3438)"
         id="path10137"
         style="fill:#fbfbfd;fill-opacity:1;fill-rule:evenodd;stroke:none" />
      <path
         d="m 653.94582,2111.4906 -373.14488,-20.7303 -416.48999,-88.5748 -393.87514,-169.6113 -314.72321,-207.3027 -254.417,-339.2226 -195.9952,-665.25327 147.9387,-367.49116 C -919.57159,116.62566 -743.46289,60.136036 -743.46289,60.136036 L -120.61248,30.925201 113.0742,196.76737 437.22026,-25.611902 727.44405,-10.535341 1010.1296,110.07714 1236.278,42.232621 1654.6525,98.769723 1880.8009,0.77207938 C 2135.879,63.541122 2499.8822,267.43874 2499.8822,267.43874 l 74.4405,604.00472 -128.1507,410.83624 -184.6879,239.3404 -165.8422,143.2274 -344.8763,209.1872 -373.1449,156.4194 -491.87276,71.6136 z"
         id="path10271"
         style="fill:url(#radialGradient3437);fill-opacity:1;stroke:none" />
      <path
         d="m 1378,1020.3622 -376,0 L 1368.5714,380.93361 1023,-215.63782 l 387,0 152,267.000003 155,-267.000003 373.625,0 -339.4643,592.91072 373.8393,643.0893 -386.5179,0 -181.4285,-313.26788 z"
         id="path10126"
         style="fill:#ffffff;stroke:#ffffff;stroke-width:43.79999924;stroke-linecap:butt;stroke-linejoin:miter;stroke-miterlimit:4;stroke-opacity:1;stroke-dasharray:none" />
      <path
         d="m -762,1022.3622 0,-1240.00002 746,0 23,339 -419,0 0,162 341,0 0,338 -343,0 0,401.00002 z"
         id="path9243"
         style="fill:#ffffff;stroke:#ffffff;stroke-width:44;stroke-linecap:butt;stroke-linejoin:miter;stroke-miterlimit:4;stroke-opacity:1;stroke-dasharray:none" />
      <path
         d="m -762,1022.3622 0,-1240.00002 746,0 23,339 -419,0 0,162 341,0 0,338 -343,0 0,401.00002 z"
         id="path9241"
         style="fill:url(#radialGradient3439);fill-opacity:1;stroke:none" />
      <path
         d="m 587.3125,-199.0625 c -339.42484,0 -589.84375,285.645751 -589.84375,603.65625 0,300.2312 235.44864,602.18745 591.40625,602.18745 335.5607,0 590.5,-277.53467 590.5,-603.9687 0,-321.553582 -254.08179,-601.875 -592.0625,-601.875 z M 590,48.375 c 60.5721,0 105,54.65262 105,109 l 0,492 c 0,60.1444 -48.38604,103 -105,103 -63.44324,0 -101,-54.34568 -101,-105 l 0,-485 c 0,-61.57 42.69176,-114 101,-114 z"
         id="path10013"
         style="fill:url(#radialGradient3441);fill-opacity:1;stroke:none" />
      <path
         d="m 1378,1020.3622 -376,0 L 1368.5714,380.93361 1023,-215.63782 l 387,0 152,267.000003 155,-267.000003 373.625,0 -339.4643,592.91072 373.8393,643.0893 -386.5179,0 -181.4285,-313.26788 z"
         id="path10017"
         style="fill:url(#radialGradient3443);fill-opacity:1;stroke:none" />
      <path
         d="m -1852,722.36218 420,0 c 15.8587,488.53822 356.417,957.86692 954.1437,1237.77382 l -11.42521,42.2851 C -1253.232,1772.3974 -1825.616,1303.3816 -1852,722.36218 z"
         id="path10045"
         style="fill:#002c55;fill-opacity:1;stroke:none" />
      <path
         d="m 3169.81,722.36218 -420,0 C 2733.9513,1210.9004 2393.393,1680.2291 1795.6663,1960.136 l 11.4252,42.2851 C 2571.042,1772.3974 3143.426,1303.3816 3169.81,722.36218 z"
         id="path10047"
         style="fill:#002c55;fill-opacity:1;stroke:none" />
      <path
         d="m -1490,152.36218 -143,-68.999997 c 235.2261,-314.752913 680.62212,-569.443263 1143.85534,-709.316693 l 11.49361,42.39309 C -759.41478,-451.1764 -1001.1118,-265.89218 -1160,-59.637817 z"
         id="path10053"
         style="fill:url(#linearGradient3445);fill-opacity:1;stroke:none" />
      <path
         d="m -1850,618.36218 420,0 c 15.3301,-251.18357 110.9695,-476.99264 270,-677.999997 -277.1756,50.4413345 -473,143 -473,143 -130.4358,172.298177 -202.1703,350.231507 -217,534.999997 z"
         id="path10051"
         style="fill:#002c55;fill-opacity:1;stroke:none" />
      <path
         d="m 2808.8211,152.36218 143,-68.999997 C 2716.595,-231.39073 2271.199,-486.08108 1807.9658,-625.95451 l -11.4937,42.39309 c 281.7638,132.38502 523.4608,317.66924 682.349,523.923603 z"
         id="path10063"
         style="fill:url(#linearGradient3447);stroke:none" />
      <path
         d="m 3168.8211,618.36218 -420,0 c -15.3301,-251.18357 -110.9695,-476.99264 -270,-677.999997 277.1756,50.4413345 473,143 473,143 130.4358,172.298177 202.1703,350.231507 217,534.999997 z"
         id="path10061"
         style="fill:#002c55;fill-opacity:1;stroke:none" />
      <path
         d="m -791,1562.8622 0,-63.6338 32.50171,-31.8829 266.554,0 9.94429,-9.9833 0,-69 -8,-8 -247,0 -54,-54 0,-157 63,-63 358,0 0,69 -26,26 -260,0 -10,10 0,67 8,8 246,0 55,55 0,159 -62.5,62.5 z"
         id="path10128"
         style="fill:#ffffff;stroke:#ffffff;stroke-width:43;stroke-linecap:butt;stroke-linejoin:miter;stroke-miterlimit:4;stroke-opacity:1;stroke-dasharray:none" />
      <path
         d="m 1700.6585,1562.8622 0,-63.6338 32.5017,-31.8829 266.554,0 9.9443,-9.9833 0,-69 -8,-8 -247,0 -54,-54 0,-157 63,-63 358,0 0,69 -26,26 -260,0 -10,10 0,67 8,8 246,0 55,55 0,159 -62.5,62.5 z"
         id="path10130"
         style="fill:#ffffff;stroke:#ffffff;stroke-width:43;stroke-linecap:butt;stroke-linejoin:miter;stroke-miterlimit:4;stroke-opacity:1;stroke-dasharray:none" />
      <path
         d="m -791,1562.8622 0,-63.6338 32.50171,-31.8829 266.554,0 9.94429,-9.9833 0,-69 -8,-8 -247,0 -54,-54 0,-157 63,-63 358,0 0,69 -26,26 -260,0 -10,10 0,67 8,8 246,0 55,55 0,159 -62.5,62.5 z"
         id="path10019"
         style="fill:url(#radialGradient3449);stroke:none" />
      <path
         d="m -278,1106.375 0,456.5 125,0 0,-146.5 247,0 70,-70 0,-170 -70,-70 -372,0 z m 125,96 172,0 19,19 0,88 -19,19 -172,0 0,-126 z"
         id="path10021"
         style="fill:url(#radialGradient3451);stroke:none" />
      <path
         d="m 301,1106.375 -70,70 0,317 69,69.5 309,0 70,-69.5 0,-317 -70,-70 -308,0 z m 80,99 147,0 26,25 0,200.4375 -25.8125,25.5625 -147.1875,0 -26,-26 0,-199 26,-26 z"
         id="path10025"
         style="fill:url(#radialGradient3453);stroke:none" />
      <path
         d="m 762,1106.375 0,456.5 125,0 0,-165.5 134,0 59,166 140,0 -80,-187.5312 61,-60.4688 0,-146 -63,-63 -376,0 z m 125,93 170,0 18,18 0,67 -18,18 -170,0 0,-103 z"
         id="path10029"
         style="fill:url(#radialGradient3455);stroke:none" />
      <path
         d="m 1389,1562.8622 0,-351.5 -145,0 0,-105 416,0 0,105 -145.5,0 0,351.5 z"
         id="path10033"
         style="fill:url(#radialGradient3457);stroke:none" />
      <path
         d="m 1700.6585,1562.8622 0,-63.6338 32.5017,-31.8829 266.554,0 9.9443,-9.9833 0,-69 -8,-8 -247,0 -54,-54 0,-157 63,-63 358,0 0,69 -26,26 -260,0 -10,10 0,67 8,8 246,0 55,55 0,159 -62.5,62.5 z"
         id="path10035"
         style="fill:url(#radialGradient3459);stroke:none" />
      <path
         d="m 657.46875,-765.0625 c -1159.42417,0 -2001.62495,696.228566 -2001.62495,1440.75 0,845.7721 930.47245,1465.125 2000.62495,1465.125 1029.16965,0 2005.96875,-583.7741 2005.96875,-1472.90625 0,-724.580855 -828.3489,-1432.96875 -2004.96875,-1432.96875 z m 0.59375,51.21875 c 570.9303,0 1109.0318,173.12664 1493.875,498.84375 197.9206,228.051846 352.1875,530.6093 352.1875,905.28125 0,366.86845 -150.3793,669.21735 -351.25,900.37495 -345.0465,297.3246 -876.557,499.875 -1495.40625,499.875 -619.008132,0 -1148.87579,-205.3301 -1494.59375,-500.0624 C -1063.4938,1326.524 -1188,1016.8876 -1188,688.40625 c 0,-350.72018 136.8822,-653.545217 349.96875,-901.5 329.09738,-282.60602 858.837409,-500.75 1496.09375,-500.75 z"
         id="path10039"
         style="fill:#60779c;fill-opacity:1;stroke:none" />
    </g>
  </g>
  <g
     transform="matrix(1,0,-0.24063472,1,1.8532342,2.7477954e-5)"
     id="text3085"
     style="font-size:29.60746384px;font-style:normal;font-variant:normal;font-weight:normal;font-stretch:normal;line-height:125%;letter-spacing:0px;word-spacing:0px;fill:#ffffff;fill-opacity:1;stroke:none;font-family:UScoreRGK;-inkscape-font-specification:UScoreRGK">
    <path
       d="m 1138.1595,206.89379 123.3777,0 26.9086,26.64835 0,67.95043 -22.9158,22.64744 -69.276,0 -6.9284,6.9284 0,22.11886 76.2044,0 16.7924,15.98738 0,21.58216 -143.366,0 0,-83.14089 22.6556,-22.91579 69.2759,0 6.9284,-6.66005 0,-27.44528 -6.3917,-6.13148 -76.4727,0 -16.7924,-15.98738 z"
       id="path3123"
       style="font-size:266.4671936px;fill:#ffffff" />
    <path
       d="m 1317.737,206.89379 50.3611,0 0,72.47992 53.565,0 0,-72.47992 50.6294,0 0,183.86302 -50.6294,0 0,-67.41373 -53.565,0 0,67.41373 -50.3611,0 z"
       id="path3125"
       style="font-size:266.4671936px;fill:#ffffff" />
    <path
       d="m 1501.4536,206.89379 126.8419,0 28.5106,28.24221 0,127.3786 -28.5106,28.24221 -126.8419,0 z m 95.6641,146.82206 9.059,-9.05898 0,-91.66315 -9.059,-9.05897 -45.303,0 0,109.7811 z"
       id="path3127"
       style="font-size:266.4671936px;fill:#ffffff" />
  </g>
  <g
     transform="matrix(1,0,-0.17046175,1,126.2261,2.570061e-5)"
     id="text3057"
     style="font-size:4px;font-style:normal;font-variant:normal;font-weight:normal;font-stretch:normal;line-height:125%;letter-spacing:0px;word-spacing:0px;fill:#002c55;fill-opacity:1;stroke:none;font-family:UScoreRGK;-inkscape-font-specification:UScoreRGK">
    <path
       d="m 0,740.49518 0,-99.36035 26.20459,0 0,99.36035 z"
       id="path3083"
       style="font-size:144px;fill:#002c55;-inkscape-font-specification:UScoreRGK" />
    <path
       d="m 41.629395,641.13483 27.65039,0 31.680175,58.31982 0,-58.31982 24.1919,0 0,99.36035 -27.93604,0 -31.394531,-59.18555 0,59.18555 -24.191894,0 z"
       id="path3085"
       style="font-size:144px;fill:#002c55;-inkscape-font-specification:UScoreRGK" />
    <path
       d="m 161.79346,663.02399 -26.49903,0 0,-21.88916 80.49903,0 0,21.88916 -26.63965,0 0,77.47119 -27.36035,0 z"
       id="path3087"
       style="font-size:144px;fill:#002c55;-inkscape-font-specification:UScoreRGK" />
    <path
       d="m 225.84814,641.13483 69.84229,0 0,20.59277 -42.62695,0 0,17.85498 38.44775,0 0,20.59277 -38.44775,0 0,19.72705 42.91259,0 0,20.59278 -70.12793,0 z"
       id="path3089"
       style="font-size:144px;fill:#002c55;-inkscape-font-specification:UScoreRGK" />
    <path
       d="m 309.66064,641.13483 69.98291,0 14.5459,14.40088 0,31.53515 -12.67383,12.52881 14.83594,40.89551 -28.37109,0 -12.52881,-36.86572 -18.57568,0 0,36.86572 -27.21534,0 z m 53.2793,43.77832 3.88916,-4.03418 0,-17.2793 -3.88916,-3.88916 -26.06396,0 0,25.20264 z"
       id="path3091"
       style="font-size:144px;fill:#002c55;-inkscape-font-specification:UScoreRGK" />
    <path
       d="m 406.41064,641.13483 27.6504,0 31.68017,58.31982 0,-58.31982 24.1919,0 0,99.36035 -27.93604,0 -31.39453,-59.18555 0,59.18555 -24.1919,0 z"
       id="path3093"
       style="font-size:144px;fill:#002c55;-inkscape-font-specification:UScoreRGK" />
    <path
       d="m 524.4126,641.13483 40.75049,0 26.20898,99.36035 -28.3667,0 -4.46484,-19.44141 -29.80811,0 -4.46484,19.44141 -25.91895,0 z m 9.07031,59.76123 20.45215,0 -10.08106,-44.06397 z"
       id="path3095"
       style="font-size:144px;fill:#002c55;-inkscape-font-specification:UScoreRGK" />
    <path
       d="m 620.51221,663.02399 -26.49903,0 0,-21.88916 80.49903,0 0,21.88916 -26.63965,0 0,77.47119 -27.36035,0 z"
       id="path3097"
       style="font-size:144px;fill:#002c55;-inkscape-font-specification:UScoreRGK" />
    <path
       d="m 684.28125,740.49518 0,-99.36035 26.20459,0 0,99.36035 z"
       id="path3099"
       style="font-size:144px;fill:#002c55;-inkscape-font-specification:UScoreRGK" />
    <path
       d="m 724.47363,725.23297 0,-68.83594 15.26221,-15.2622 54.43066,0 15.40723,15.2622 0,68.83594 -15.40723,15.26221 -54.43066,0 z m 52.84424,-4.75488 4.8999,-4.89551 0,-49.53516 -4.8999,-4.8955 -20.58838,0 -4.8999,4.8955 0,49.53516 4.8999,4.89551 z"
       id="path3101"
       style="font-size:144px;fill:#002c55;-inkscape-font-specification:UScoreRGK" />
    <path
       d="m 824.06689,641.13483 27.6504,0 31.68017,58.31982 0,-58.31982 24.1919,0 0,99.36035 -27.93604,0 -31.39453,-59.18555 0,59.18555 -24.1919,0 z"
       id="path3103"
       style="font-size:144px;fill:#002c55;-inkscape-font-specification:UScoreRGK" />
    <path
       d="m 942.06885,641.13483 40.75049,0 26.20896,99.36035 -28.36668,0 -4.46484,-19.44141 -29.80811,0 -4.46484,19.44141 -25.91895,0 z m 9.07031,59.76123 20.45215,0 -10.08106,-44.06397 z"
       id="path3105"
       style="font-size:144px;fill:#002c55;-inkscape-font-specification:UScoreRGK" />
    <path
       d="m 1017.2856,641.13483 27.2154,0 0,77.61621 36.29,0 0,21.74414 -63.5054,0 z"
       id="path3107"
       style="font-size:144px;fill:#002c55;-inkscape-font-specification:UScoreRGK" />
  </g>
</svg>
