<svg xmlns="http://www.w3.org/2000/svg" xmlns:xlink="http://www.w3.org/1999/xlink" viewBox="0 0 1561.81 771.06"><defs><linearGradient x1="-1632.04" y1="83.69" x2="-482.45" y2="-621.14" id="1" xlink:href="#2" gradientUnits="userSpaceOnUse"/><linearGradient id="2"><stop stop-color="#32608f"/><stop offset=".2" stop-color="#245583"/><stop offset=".4" stop-color="#154976"/><stop offset=".603" stop-color="#083f69"/><stop offset=".8" stop-color="#01335d"/><stop offset="1" stop-color="#002c55"/></linearGradient><linearGradient x1="2938.52" y1="64.735" x2="1802.23" y2="-621.25" id="0" xlink:href="#2" gradientUnits="userSpaceOnUse"/><radialGradient cx="725.13" cy="2490.12" r="1462.83" id="5" gradientUnits="userSpaceOnUse" gradientTransform="matrix(-.96721.00364-.00282-.74747 1326.89 2329.99)"><stop stop-color="#4372a1"/><stop offset=".658" stop-color="#113d68"/><stop offset="1" stop-color="#002c55"/></radialGradient><radialGradient cx="725.13" cy="2490.12" r="1462.83" id="3" gradientUnits="userSpaceOnUse" gradientTransform="matrix(-.96721.00364-.00282-.74747 1326.89 2329.99)"><stop stop-color="#4372a1"/><stop offset=".746" stop-color="#113d68"/><stop offset="1" stop-color="#002c55"/></radialGradient><radialGradient cx="612.99" cy="-888.92" r="1935.01" id="6" gradientUnits="userSpaceOnUse" gradientTransform="matrix(.00601 2.87626-1.02071.00231-298.03-1785.44)"><stop stop-color="#fff" stop-opacity="0"/><stop offset=".682" stop-color="#e5e9f1"/><stop offset="1" stop-color="#c2cbdd"/></radialGradient><radialGradient cx="586.64" cy="-1173.21" r="1443.5" id="4" gradientUnits="userSpaceOnUse" gradientTransform="matrix(-.00552.8865-1.1853-.00739-779.7-776.97)"><stop stop-color="#4372a1"/><stop offset="1" stop-color="#002c55"/></radialGradient></defs><path d="m890.45 162.53v.844c-1.58-.059-3.156-.125-4.75-.125-72.39 0-131.09 61.01-131.09 136.25 0 75.24 58.707 136.25 131.09 136.25 1.594 0 3.17-.066 4.75-.125v.188h258.47 17.25 258.5v-.219c1.82.078 3.63.156 5.469.156 72.39 0 131.06-61.01 131.06-136.25 0-75.24-58.676-136.25-131.06-136.25-1.838 0-3.649.078-5.469.156v-.875h-258.5-17.25-258.47z" fill="#002c55" stroke="#032a61" stroke-width="1.218"/><g transform="matrix(.18645 0 0 .18645 376.54 170.86)"><path d="m656.14 2292.84c-1404.36 0-2675.68-668.22-2675.68-1620.1 0-817.87 1126.95-1589.12 2678.68-1589.12 1543.71 0 2679.38 762.88 2679.38 1585.7 0 944.64-1234.07 1623.52-2682.38 1623.52" fill="#93a1be"/><path d="m718.2 2226.33c1230.82 0 2543.93-604.81 2543.93-1559.13 0-863.37-1268.01-1516.84-2543.93-1516.84v1347.94 1638.63z" fill="#f3f5fa"/><path d="m600.94 2226.33c-1230.82 0-2543.93-604.81-2543.93-1559.13 0-808.73 1178.73-1516.84 2543.93-1516.84v1347.94 1638.63z" fill="#f8f9fc"/><path d="m2478.6217 679.23633a1953.5803 1082.0649 0 1 1 -3907.1606 0 1953.5803 1082.0649 0 1 1 3907.1606 0" transform="matrix(1 0 0 1.32635 133.26-212.34)" fill="#fbfbfd" fill-rule="evenodd"/><path d="m653.95 2111.49l-373.14-20.73-416.49-88.57-393.88-169.61-314.72-207.3-254.42-339.22-196-665.25 147.94-367.49c227.19-136.68 403.3-193.17 403.3-193.17l622.85-29.21 233.69 165.84 324.15-222.38 290.22 15.08 282.69 120.61 226.15-67.845 418.37 56.54 226.15-98c255.08 62.769 619.08 266.67 619.08 266.67l74.44 604-128.15 410.84-184.69 239.34-165.84 143.23-344.88 209.19-373.14 156.42-491.87 71.61z" fill="url(#6)"/><g fill="#fff" stroke="#fff"><path d="m1378 1020.36h-376l366.57-639.43-345.57-596.57h387l152 267 155-267h373.62l-339.46 592.91 373.84 643.09h-386.52l-181.43-313.27z" stroke-width="43.8"/><path d="m-762 1022.36v-1240h746l23 339h-419v162h341v338h-343v401z" stroke-width="44"/></g><g fill="url(#4)"><path d="m-762 1022.36v-1240h746l23 339h-419v162h341v338h-343v401z"/><path d="m587.31-199.06c-339.42 0-589.84 285.65-589.84 603.66 0 300.23 235.45 602.19 591.41 602.19 335.56 0 590.5-277.53 590.5-603.97 0-321.55-254.08-601.87-592.06-601.87m2.688 247.44c60.57 0 105 54.653 105 109v492c0 60.14-48.39 103-105 103-63.44 0-101-54.35-101-105v-485c0-61.57 42.692-114 101-114"/><path d="m1378 1020.36h-376l366.57-639.43-345.57-596.57h387l152 267 155-267h373.62l-339.46 592.91 373.84 643.09h-386.52l-181.43-313.27z"/></g><g fill="#002c55"><path d="m-1852 722.36h420c15.859 488.54 356.42 957.87 954.14 1237.77l-11.425 42.29c-763.95-230.02-1336.33-699.04-1362.72-1280.06"/><path d="m3169.81 722.36h-420c-15.859 488.54-356.42 957.87-954.14 1237.77l11.425 42.29c763.95-230.02 1336.33-699.04 1362.72-1280.06"/></g><path d="m-1490 152.36l-143-69c235.23-314.75 680.62-569.44 1143.86-709.32l11.494 42.39c-281.76 132.39-523.46 317.67-682.35 523.92z" fill="url(#1)"/><path d="m-1850 618.36h420c15.33-251.18 110.97-476.99 270-678-277.18 50.44-473 143-473 143-130.44 172.3-202.17 350.23-217 535" fill="#002c55"/><path d="m2808.82 152.36l143-69c-235.23-314.75-680.62-569.44-1143.86-709.32l-11.494 42.39c281.76 132.39 523.46 317.67 682.35 523.92z" fill="url(#0)"/><path d="m3168.82 618.36h-420c-15.33-251.18-110.97-476.99-270-678 277.18 50.44 473 143 473 143 130.44 172.3 202.17 350.23 217 535" fill="#002c55"/><g fill="#fff" stroke="#fff" stroke-width="43"><path d="m-791 1562.86v-63.63l32.502-31.883h266.55l9.944-9.983v-69l-8-8h-247l-54-54v-157l63-63h358v69l-26 26h-260l-10 10v67l8 8h246l55 55v159l-62.5 62.5z" id="7"/><path d="m1700.66 1562.86v-63.63l32.502-31.883h266.55l9.944-9.983v-69l-8-8h-247l-54-54v-157l63-63h358v69l-26 26h-260l-10 10v67l8 8h246l55 55v159l-62.5 62.5z" id="8"/></g><g fill="url(#3)"><use xlink:href="#7"/><path d="m-278 1106.37v456.5h125v-146.5h247l70-70v-170l-70-70h-372m125 96h172l19 19v88l-19 19h-172v-126"/></g><path d="m301 1106.37l-70 70v317l69 69.5h309l70-69.5v-317l-70-70h-308m80 99h147l26 25v200.44l-25.813 25.563h-147.19l-26-26v-199l26-26" fill="url(#5)"/><g fill="url(#3)"><path d="m762 1106.37v456.5h125v-165.5h134l59 166h140l-80-187.53 61-60.47v-146l-63-63h-376m125 93h170l18 18v67l-18 18h-170v-103"/><path d="m1389 1562.86v-351.5h-145v-105h416v105h-145.5v351.5z"/><use xlink:href="#8"/></g><path d="m657.47-765.06c-1159.42 0-2001.62 696.23-2001.62 1440.75 0 845.77 930.47 1465.12 2000.62 1465.12 1029.17 0 2005.97-583.77 2005.97-1472.91 0-724.58-828.35-1432.97-2004.97-1432.97m.594 51.22c570.93 0 1109.03 173.13 1493.87 498.84 197.92 228.05 352.19 530.61 352.19 905.28 0 366.87-150.38 669.22-351.25 900.37-345.05 297.32-876.56 499.87-1495.41 499.87-619.01 0-1148.88-205.33-1494.59-500.06-226.37-263.94-350.87-573.58-350.87-902.06 0-350.72 136.88-653.55 349.97-901.5 329.1-282.61 858.84-500.75 1496.09-500.75" fill="#60779c"/></g><g transform="matrix(1 0-.21999 1 0 0)" fill="#fff"><path d="m1100.29 207.52h67.48v183.31h-50.48v-145.85h-33.735v-21.517z"/><path d="m1206.19 207.52h50.21v72.26h53.4v-72.26h50.48v183.31h-50.48v-67.21h-53.4v67.21h-50.21z"/><path d="m1389.35 207.52h126.46l28.424 28.16v126.99l-28.424 28.16h-126.46zm95.37 146.38l9.03-9.03v-91.39l-9.03-9.03h-45.17v109.45z"/></g><g transform="matrix(1.3076 0-.24667 1.3076 16.946-197.21)" fill="#002c55"><path d="m129.47 641.13h69.842v20.593h-42.627v17.855h38.448v20.593h-38.448v19.727h42.913v20.593h-70.13z"/><path d="m213.28 641.13h69.983l14.546 14.401v31.535l-12.674 12.529 14.836 40.896h-28.371l-12.529-36.866h-18.576v36.866h-27.22zm53.28 43.778l3.889-4.03v-17.279l-3.889-3.889h-26.06v25.2z"/><path d="m310.03 641.13h69.842v20.593h-42.627v17.855h38.448v20.593h-38.448v19.727h42.913v20.593h-70.13z"/><path d="m393.84 641.13h68.55l15.407 15.262v68.836l-15.407 15.262h-68.55zm51.697 79.34l4.896-4.896v-49.54l-4.896-4.895h-24.482v59.33z"/><path d="m491.99 740.5v-99.36h26.2v99.36z"/><path d="m526.71 641.13h28.371l16.13 79.34 16.13-79.34h26.06l-22.896 99.36h-41.04z"/><path d="m621.93 740.5v-99.36h26.2v99.36z"/><path d="m661.11 727.39l9.215-8.64h43.923l2.878-2.878v-12.384l-2.162-2.162h-41.04l-12.243-12.384v-33.407l14.401-14.401h68.11v13.395l-8.205 7.629h-44.06l-2.883 3.02v12.384l2.162 2.307h41.04l12.239 12.239v33.983l-14.401 14.401h-68.977z"/><path d="m757.78 740.5v-99.36h26.2v99.36z"/><path d="m799.4 641.13h69.842v20.593h-42.627v17.855h38.448v20.593h-38.448v19.727h42.913v20.593h-70.13z"/></g></svg>