<?xml version="1.0" encoding="utf-8"?>
<!-- Generator: Adobe Illustrator 16.0.0, SVG Export Plug-In . SVG Version: 6.00 Build 0)  -->
<!DOCTYPE svg PUBLIC "-//W3C//DTD SVG 1.1//EN" "http://www.w3.org/Graphics/SVG/1.1/DTD/svg11.dtd">
<svg version="1.1"
	 id="svg9180" xmlns:rdf="http://www.w3.org/1999/02/22-rdf-syntax-ns#" xmlns:cc="http://creativecommons.org/ns#" xmlns:dc="http://purl.org/dc/elements/1.1/" xmlns:svg="http://www.w3.org/2000/svg"
	 xmlns="http://www.w3.org/2000/svg" xmlns:xlink="http://www.w3.org/1999/xlink" x="0px" y="0px" width="1634.197px"
	 height="771.059px" viewBox="0 0 1634.197 771.059" enable-background="new 0 0 1634.197 771.059" xml:space="preserve">
<path id="path3118" fill="#002C55" stroke="#032A61" stroke-width="1.2175" d="M963.448,162.531v0.844
	c-1.579-0.059-3.156-0.125-4.75-0.125c-72.386,0-131.094,61.006-131.094,136.25s58.708,136.25,131.094,136.25
	c1.596,0,3.17-0.066,4.75-0.125v0.188h258.469h17.25h258.5v-0.219c1.82,0.078,3.632,0.156,5.47,0.156
	c72.387,0,131.063-61.006,131.063-136.25s-58.677-136.25-131.063-136.25c-1.838,0-3.648,0.079-5.47,0.156v-0.875h-258.5h-17.25
	H963.448z"/>
<g id="layer1" transform="translate(2019.5436,-1694.4869)">
	<g id="g10283" transform="matrix(0.1864481,0,0,0.1864481,-1643.0035,1865.3435)">
		<path id="path10049" fill="#93A1BE" d="M656.136,2292.842c-1404.359,0-2675.679-668.218-2675.679-1620.103
			c0-817.87,1126.953-1589.116,2678.675-1589.116c1543.708,0,2679.382,762.876,2679.382,1585.704
			C3338.514,1613.96,2104.45,2292.842,656.136,2292.842L656.136,2292.842z"/>
		<path id="path10043" fill="#F3F5FA" d="M718.203,2226.333c1230.822,0,2543.935-604.8,2543.935-1559.131
			c0-863.365-1268.015-1516.844-2543.935-1516.844v1347.94v1638.637V2226.333z"/>
		<path id="path10041" fill="#F8F9FC" d="M600.941,2226.333c-1230.822,0-2543.935-604.8-2543.935-1559.131
			c0-808.73,1178.728-1516.844,2543.935-1516.844v1347.94v1638.637V2226.333L600.941,2226.333z"/>
		<path id="path10137" fill="#FBFBFD" d="M2611.88,688.565c0,792.64-874.647,1435.204-1953.581,1435.204
			s-1953.581-642.564-1953.581-1435.204S-420.634-746.639,658.299-746.639S2611.88-104.075,2611.88,688.565z"/>
		
			<radialGradient id="path10271_1_" cx="20574.7832" cy="89509.8438" r="1935.0095" gradientTransform="matrix(2.050929e-004 0.1 -0.0355 8.044064e-005 3784.6252 -2088.8003)" gradientUnits="userSpaceOnUse">
			<stop  offset="0" style="stop-color:#FFFFFF;stop-opacity:0"/>
			<stop  offset="0.6816" style="stop-color:#E5E9F1"/>
			<stop  offset="1" style="stop-color:#C2CBDD"/>
		</radialGradient>
		<path id="path10271" fill="url(#path10271_1_)" d="M653.947,2111.491l-373.146-20.731l-416.493-88.57l-393.871-169.608
			l-314.724-207.309l-254.417-339.221L-1294.7,620.797l147.939-367.492c227.191-136.678,403.299-193.17,403.299-193.17
			l622.849-29.211l233.686,165.842L437.22-25.612l290.222,15.077l282.685,120.612l226.149-67.844l418.379,56.536l226.144-97.998
			c255.082,62.769,619.083,266.668,619.083,266.668l74.444,604.003l-128.151,410.844l-184.688,239.333L2095.64,1664.85
			l-344.867,209.184l-373.151,156.419l-491.874,71.621L653.947,2111.491z"/>
		<path id="path10126" fill="#FFFFFF" stroke="#FFFFFF" stroke-width="43.8" d="M1377.999,1020.361h-376l366.572-639.429
			l-345.569-596.571h386.999L1562,51.362l155-267.001h373.628l-339.467,592.91l373.842,643.09H1738.48l-181.424-313.268
			L1377.999,1020.361z"/>
		<path id="path9243" fill="#FFFFFF" stroke="#FFFFFF" stroke-width="44" d="M-761.998,1022.362V-217.639H-16L6.999,121.362
			h-419.002v162h341.002v338.001h-343.003v401H-761.998L-761.998,1022.362z"/>
		
			<radialGradient id="path9241_1_" cx="29239.4668" cy="63283.7266" r="1443.5045" gradientTransform="matrix(-1.864481e-004 0.0308 -0.0412 -2.610273e-004 3220.8398 -1132.7998)" gradientUnits="userSpaceOnUse">
			<stop  offset="0" style="stop-color:#4372A1"/>
			<stop  offset="1" style="stop-color:#002C55"/>
		</radialGradient>
		<path id="path9241" fill="url(#path9241_1_)" d="M-761.998,1022.362V-217.639H-16L6.999,121.362h-419.002v162h341.002v338.001
			h-343.003v401H-761.998L-761.998,1022.362z"/>
		
			<radialGradient id="path10013_1_" cx="29239.4609" cy="63283.6641" r="1443.5031" gradientTransform="matrix(-1.864481e-004 0.0308 -0.0412 -2.610273e-004 3220.8398 -1132.7998)" gradientUnits="userSpaceOnUse">
			<stop  offset="0" style="stop-color:#4372A1"/>
			<stop  offset="1" style="stop-color:#002C55"/>
		</radialGradient>
		<path id="path10013" fill="url(#path10013_1_)" d="M587.313-199.064c-339.425,0-589.846,285.647-589.846,603.658
			c0,300.231,235.451,602.188,591.407,602.188c335.56,0,590.501-277.536,590.501-603.969
			C1179.374,81.259,925.292-199.064,587.313-199.064z M589.999,48.374C650.574,48.374,695,103.027,695,157.376v492
			c0,60.145-48.386,103-105.001,103C526.555,752.376,489,698.029,489,647.375v-485C489,100.803,531.693,48.374,589.999,48.374z"/>
		
			<radialGradient id="path10017_1_" cx="29239.3613" cy="63283.6641" r="1443.5022" gradientTransform="matrix(-1.864481e-004 0.0308 -0.0412 -2.610273e-004 3220.8398 -1132.7998)" gradientUnits="userSpaceOnUse">
			<stop  offset="0" style="stop-color:#4372A1"/>
			<stop  offset="1" style="stop-color:#002C55"/>
		</radialGradient>
		<path id="path10017" fill="url(#path10017_1_)" d="M1377.999,1020.361h-376l366.572-639.429l-345.569-596.571h386.999L1562,51.362
			l155-267.001h373.628l-339.467,592.91l373.842,643.09H1738.48l-181.424-313.268L1377.999,1020.361z"/>
		<path id="path10045" fill="#002C55" d="M-1851.999,722.361h419.997c15.86,488.541,356.416,957.867,954.145,1237.781
			l-11.424,42.279C-1253.233,1772.401-1825.616,1303.379-1851.999,722.361z"/>
		<path id="path10047" fill="#002C55" d="M3169.813,722.361H2749.81c-15.86,488.541-356.416,957.867-954.145,1237.781l11.429,42.279
			C2571.042,1772.401,3143.425,1303.379,3169.813,722.361z"/>
		
			<linearGradient id="path10053_1_" gradientUnits="userSpaceOnUse" x1="-179527.2031" y1="-802.5593" x2="-178377.6094" y2="-1507.3887" gradientTransform="matrix(0.0348 0 0 0.0348 4613.9912 123.8413)">
			<stop  offset="0" style="stop-color:#32608F"/>
			<stop  offset="0.2" style="stop-color:#245583"/>
			<stop  offset="0.4" style="stop-color:#154976"/>
			<stop  offset="0.6031" style="stop-color:#083F69"/>
			<stop  offset="0.8" style="stop-color:#01335D"/>
			<stop  offset="1" style="stop-color:#002C55"/>
		</linearGradient>
		<path id="path10053" fill="url(#path10053_1_)" d="M-1489.999,152.361l-143-68.999
			c235.226-314.753,680.621-569.445,1143.855-709.318l11.492,42.394c-281.763,132.386-523.458,317.67-682.349,523.924
			L-1489.999,152.361z"/>
		<path id="path10051" fill="#002C55" d="M-1850.003,618.364h420.002c15.331-251.185,110.972-476.994,269.999-678.002
			c-277.175,50.442-472.998,143-472.998,143C-1763.434,255.659-1835.17,433.593-1850.003,618.364z"/>
		
			<linearGradient id="path10063_1_" gradientUnits="userSpaceOnUse" x1="-48532.2969" y1="-1177.1636" x2="-49668.5859" y2="-1863.1469" gradientTransform="matrix(0.0348 0 0 0.0348 4613.9912 123.8413)">
			<stop  offset="0" style="stop-color:#32608F"/>
			<stop  offset="0.2" style="stop-color:#245583"/>
			<stop  offset="0.4" style="stop-color:#154976"/>
			<stop  offset="0.6031" style="stop-color:#083F69"/>
			<stop  offset="0.8" style="stop-color:#01335D"/>
			<stop  offset="1" style="stop-color:#002C55"/>
		</linearGradient>
		<path id="path10063" fill="url(#path10063_1_)" d="M2808.823,152.361l143-68.999
			c-235.226-314.753-680.626-569.445-1143.86-709.318l-11.492,42.394c281.763,132.386,523.463,317.67,682.349,523.924
			L2808.823,152.361z"/>
		<path id="path10061" fill="#002C55" d="M3168.823,618.364H2748.82c-15.331-251.185-110.966-476.994-270-678.002
			c277.175,50.442,473.003,143,473.003,143C3082.259,255.659,3153.995,433.593,3168.823,618.364z"/>
		<path id="path10128" fill="#FFFFFF" stroke="#FFFFFF" stroke-width="43" d="M-790.999,1562.861v-63.628l32.5-31.887h266.553
			l9.946-9.983v-69.002l-7.998-7.993h-247l-54.001-54.006v-157.006l62.999-62.994h357.998v68.996l-26,26h-260l-9.999,10.004v67.001
			l7.998,7.993h246l55.001,55.006v158.996l-62.502,62.502H-790.999L-790.999,1562.861z"/>
		<path id="path10130" fill="#FFFFFF" stroke="#FFFFFF" stroke-width="43" d="M1700.658,1562.861v-63.628l32.5-31.887h266.558
			l9.941-9.983v-69.002l-7.998-7.993h-247l-54.001-54.006v-157.006l62.999-62.994h358.003v68.996l-26,26h-260l-10.004,10.004v67.001
			l8.003,7.993h246l55.001,55.006v158.996l-62.502,62.502H1700.658L1700.658,1562.861z"/>
		
			<radialGradient id="path10019_1_" cx="156740.5156" cy="43625.4375" r="1462.8414" gradientTransform="matrix(-0.0336 1.266718e-004 -9.789336e-005 -0.026 5892.3516 1585.0422)" gradientUnits="userSpaceOnUse">
			<stop  offset="0" style="stop-color:#4372A1"/>
			<stop  offset="0.7459" style="stop-color:#113D68"/>
			<stop  offset="1" style="stop-color:#002C55"/>
		</radialGradient>
		<path id="path10019" fill="url(#path10019_1_)" d="M-790.999,1562.861v-63.628l32.5-31.887h266.553l9.946-9.983v-69.002
			l-7.998-7.993h-247l-54.001-54.006v-157.006l62.999-62.994h357.998v68.996l-26,26h-260l-9.999,10.004v67.001l7.998,7.993h246
			l55.001,55.006v158.996l-62.502,62.502H-790.999L-790.999,1562.861z"/>
		
			<radialGradient id="path10021_1_" cx="156740.8281" cy="43625.7969" r="1462.8396" gradientTransform="matrix(-0.0336 1.266718e-004 -9.789336e-005 -0.026 5892.3516 1585.0422)" gradientUnits="userSpaceOnUse">
			<stop  offset="0" style="stop-color:#4372A1"/>
			<stop  offset="0.7459" style="stop-color:#113D68"/>
			<stop  offset="1" style="stop-color:#002C55"/>
		</radialGradient>
		<path id="path10021" fill="url(#path10021_1_)" d="M-278.001,1106.375v456.507h124.998v-146.499h247L164,1346.375v-170.001
			l-70.002-70H-278.001L-278.001,1106.375z M-153.003,1202.375H18.999l19.002,19.002v87.994l-19.002,19.002h-172.002V1202.375
			L-153.003,1202.375z"/>
		
			<radialGradient id="path10025_1_" cx="156741" cy="43625.3984" r="1462.829" gradientTransform="matrix(-0.0336 1.266718e-004 -9.789336e-005 -0.026 5892.3516 1585.0422)" gradientUnits="userSpaceOnUse">
			<stop  offset="0" style="stop-color:#4372A1"/>
			<stop  offset="0.6581" style="stop-color:#113D68"/>
			<stop  offset="1" style="stop-color:#002C55"/>
		</radialGradient>
		<path id="path10025" fill="url(#path10025_1_)" d="M300.998,1106.375l-69.997,70v316.997l68.996,69.51h308.999l70.002-69.51
			v-316.997l-70.002-70H300.998z M380.999,1205.371h147.002l26,25.005v200.442l-25.812,25.56h-147.19l-26-26v-199.007
			L380.999,1205.371z"/>
		
			<radialGradient id="path10029_1_" cx="156741.3125" cy="43625.3125" r="1462.8204" gradientTransform="matrix(-0.0336 1.266718e-004 -9.789336e-005 -0.026 5892.3516 1585.0422)" gradientUnits="userSpaceOnUse">
			<stop  offset="0" style="stop-color:#4372A1"/>
			<stop  offset="0.7459" style="stop-color:#113D68"/>
			<stop  offset="1" style="stop-color:#002C55"/>
		</radialGradient>
		<path id="path10029" fill="url(#path10029_1_)" d="M762.001,1106.375v456.507h124.998V1397.38h134.002l58.998,165.994h139.999
			l-79.996-187.531l60.999-60.464v-146.001l-62.999-62.999h-376V1106.375z M886.999,1199.379H1057l18.002,17.997v67.001
			L1057,1302.373H886.999V1199.379z"/>
		
			<radialGradient id="path10033_1_" cx="156741.3594" cy="43625.4375" r="1462.8359" gradientTransform="matrix(-0.0336 1.266718e-004 -9.789336e-005 -0.026 5892.3516 1585.0422)" gradientUnits="userSpaceOnUse">
			<stop  offset="0" style="stop-color:#4372A1"/>
			<stop  offset="0.7459" style="stop-color:#113D68"/>
			<stop  offset="1" style="stop-color:#002C55"/>
		</radialGradient>
		<path id="path10033" fill="url(#path10033_1_)" d="M1388.998,1562.861v-351.498h-145.001v-105h416.001v105h-145.499v351.498
			H1388.998z"/>
		
			<radialGradient id="path10035_1_" cx="156741.3594" cy="43625.8438" r="1462.8387" gradientTransform="matrix(-0.0336 1.266718e-004 -9.789336e-005 -0.026 5892.3516 1585.0422)" gradientUnits="userSpaceOnUse">
			<stop  offset="0" style="stop-color:#4372A1"/>
			<stop  offset="0.7459" style="stop-color:#113D68"/>
			<stop  offset="1" style="stop-color:#002C55"/>
		</radialGradient>
		<path id="path10035" fill="url(#path10035_1_)" d="M1700.658,1562.861v-63.628l32.5-31.887h266.558l9.941-9.983v-69.002
			l-7.998-7.993h-247l-54.001-54.006v-157.006l62.999-62.994h358.003v68.996l-26,26h-260l-10.004,10.004v67.001l8.003,7.993h246
			l55.001,55.006v158.996l-62.502,62.502H1700.658L1700.658,1562.861z"/>
		<path id="path10039" fill="#60779C" d="M657.467-765.063c-1159.422,0-2001.621,696.227-2001.621,1440.75
			c0,845.774,930.471,1465.124,2000.621,1465.124c1029.17,0,2005.974-583.781,2005.974-1472.905
			C2662.44-56.674,1834.089-765.063,657.467-765.063z M658.064-713.845c570.927,0,1109.03,173.128,1493.871,498.846
			c197.923,228.05,352.19,530.607,352.19,905.282c0,366.868-150.38,669.218-351.247,900.38
			c-345.051,297.324-876.559,499.867-1495.411,499.867c-619.004,0-1148.873-205.329-1494.594-500.056
			c-226.369-263.955-350.875-573.585-350.875-902.066c0-350.723,136.883-653.547,349.969-901.501
			C-508.932-495.699,20.806-713.845,658.064-713.845z"/>
	</g>
</g>
<g id="text3085" transform="matrix(1,0,-0.24063472,1,0,4.9e-5)">
	<path id="path3406" fill="#FFFFFF" d="M1280.481,207.172h50.208l1.492,72.261h53.402l-1.492-72.261h50.478l3.784,183.307h-50.477
		l-1.387-67.209h-53.403l1.387,67.209h-50.208L1280.481,207.172z"/>
	<path id="path3084_1_" fill="#FFFFFF" d="M1100.426,206.895h151.085l-0.008,23.189l-15.453,14.379h-84.626l0.278,34.399
		l12.606-11.333l62.513-0.126l25.481,25.376l-0.481,72.396l-25.316,25.583h-122.542l-0.026-21.582l16.818-15.989h74.304l6.393-6.132
		l-0.056-36.745l-5.671-5.906h-38.25l-8.809,9.625h-49.272L1100.426,206.895z"/>
	<path id="path3408" fill="#FFFFFF" d="M1463.642,207.172H1590.1l29.006,28.157l2.62,126.993l-27.844,28.156h-126.458
		L1463.642,207.172z M1562.039,353.55l8.845-9.032l-1.887-91.386l-9.218-9.032h-45.166l2.26,109.45H1562.039z"/>
</g>
<g id="text3057" transform="matrix(1.307601,0,-0.24667403,1.307601,16.946246,-197.21224)">
	<path id="path3062" fill="#002C55" d="M129.467,641.135h69.843l0,20.592h-42.626l-0.001,17.855h38.448l0.001,20.592h-38.448
		l0,19.728h42.912l0,20.592h-70.129L129.467,641.135z"/>
	<path id="path3064" fill="#002C55" d="M213.28,641.135h69.983l14.546,14.4l0,31.534l-12.672,12.529l14.836,40.895H271.6
		l-12.529-36.865h-18.575l0.001,36.865H213.28L213.28,641.135z M266.559,684.913l3.889-4.034l0-17.279l-3.889-3.89h-26.064
		l-0.001,25.203H266.559z"/>
	<path id="path3066" fill="#002C55" d="M310.03,641.135h69.843l0,20.592h-42.626l0,17.855h38.447l0.001,20.592h-38.448l0,19.728
		h42.912l0,20.592H310.03L310.03,641.135z"/>
	<path id="path3068" fill="#002C55" d="M393.842,641.135h68.546l15.406,15.261l0.001,68.837l-15.407,15.261h-68.546L393.842,641.135
		z M445.539,720.478l4.895-4.896l0-49.535l-4.896-4.896h-24.482l0,59.326H445.539L445.539,720.478z"/>
	<path id="path3070" fill="#002C55" d="M491.994,740.494l0-99.359h26.205l0,99.359H491.994z"/>
	<path id="path3072" fill="#002C55" d="M526.711,641.135h28.371l16.128,79.342l16.128-79.342h26.064l-22.895,99.359h-41.041
		L526.711,641.135z"/>
	<path id="path3074" fill="#002C55" d="M621.932,740.494l0-99.359h26.204l0,99.359H621.932z"/>
	<path id="path3076" fill="#002C55" d="M661.113,727.39l9.216-8.639h43.924l2.878-2.878l0-12.384l-2.162-2.161h-41.036
		l-12.243-12.384l0.001-33.407l14.402-14.4h68.111l-0.001,13.394l-8.204,7.63h-44.064l-2.883,3.023l0,12.384l2.162,2.306h41.041
		l12.239,12.239l0.001,33.982l-14.401,14.401h-68.978l0-13.106H661.113z"/>
	<path id="path3078" fill="#002C55" d="M757.775,740.494l0-99.359h26.205l0,99.359H757.775z"/>
	<path id="path3080" fill="#002C55" d="M799.405,641.135h69.843l0,20.592H826.62l-0.001,17.855h38.449l0,20.592H826.62l0,19.728
		h42.912l0,20.592h-70.129L799.405,641.135z"/>
</g>
</svg>
