<svg xmlns="http://www.w3.org/2000/svg" viewBox="0 0 602.36 602.36"><path d="m17.717 584.65h475.49v-475.49h-475.49v475.49"/><path d="m109.19 462.07l-21.12 1.712.571 41.667c0 0 25.15 1.336 31.11 1.712 5.936.365 12.09.525 13.984 7.706 2.055 7.785-6.884 13.413-9.989 13.414 9.384 0 7.226 0 14.27 0 5.731-1.05 12.238-7.991 11.416-18.265-1.084-13.585-11.45-16.838-22.546-16.838l3.507-22.19-21.2-8.916m-49.659 39.38c-3.802 4.601-7.603 11.815-5.422 19.692 6.518 22.01 41.473 31.667 56.22 32.25l-1.712-25.685c0 0-23.859 2.991-35.96-9.703-5.126-5.354-4.144-10.811-.285-15.697-4.521-.194-9.806-.731-12.843-.856" fill="#fff"/><path d="m109.16 493.2h475.49v-475.49h-475.49v475.49" fill="#773694"/><path d="m384.84 327.16c-3.728.084-7.695 1.568-9.844 4.781-1.797 2.701-1.656 6.509-1.656 9.656h-4.219v8.188h4.219v27.313h10.563v-27.28h6.438v-8.188h-6.438v-.781c0-3.091.007-5.547 3.813-5.313l3.594.219v-8.125l-4.906-.438c-.518-.045-1.03-.043-1.563-.031m26.625 12.781c-4.03.163-5.985 3.921-7 7.563h-.125v-6.844h-9.813v36.438h10.531v-13.906c0-6.484 1-13.01 9.06-12.563v-10.5l-1.813-.188c-.287-.022-.575-.011-.844 0m63.25 0c-5.301 0-8.337 2.241-10.469 6.906h-.156v-6.156h-9.938v36.406h10.531v-19.563c0-2.31.147-4.371 1.219-6.469.848-1.618 2.585-2.719 4.438-2.719 5.323 0 4.812 5.438 4.813 9.188v19.563h10.531v-22.531c0-3.292-.002-7.871-2-10.594-2.143-2.946-5.531-4.03-8.969-4.03m-40.906.031c-7.667 0-16.292 2.567-17.375 11.406l10 .906c0-3.594 2.922-5.281 6.281-5.281 1.585 0 3.375.493 4.313 1.688 1.049 1.384.938 3.248.938 4.844v.844c-4.442.413-10.243.719-14.406 2.281-4.788 1.786-8.156 5.465-8.156 10.844 0 6.886 5.01 10.313 11.469 10.313 5.435 0 8.601-2.089 11.625-6.375-.078 1.864.033 3.792.469 5.656h10.469c-.558-1.808-.719-3.594-.719-5.469v-16.969c0-4.386.353-8.382-3.375-11.406-2.935-2.411-7.815-3.281-11.531-3.281m73.53 0c-11.484 0-18.219 8.099-18.219 19.281 0 10.736 6.545 18.563 17.594 18.563 8.884 0 15.703-5.366 16.563-14.406l-10.03-.563c-.379 3.37-2.241 6.281-5.969 6.281-6.04 0-6.094-6.268-6.094-10.688 0-4.676.697-10.437 6.5-10.438 3.806 0 5.562 3.208 5.563 6.5l10.03-.563c-.714-8.549-7.456-13.969-15.938-13.969m34.813 0c-10.683.52-16.656 9.02-16.656 19.438 0 10.825 7.096 18.406 18 18.406 12.343 0 16.563-10.757 16.563-12.531l-9.75-.719c0 3.348-3.243 5.719-6.469 5.719-4.598 0-7.03-3.493-7.03-7.813l.094-1.813h23.375c.089-4.933-.717-10.09-3.719-14.281-3.047-4.14-8.288-6.406-13.344-6.406-.354 0-.718-.017-1.063 0m1.469 6.875c4.598 0 5.882 3.663 6.094 7.625h-12.906c.357-4.185 2.148-7.625 6.813-7.625m-105.62 12.813v1.438c0 2.611.047 4.732-1.438 7.03-1.239 1.841-3.181 3-5.313 3-2.935 0-4.687-1.913-4.688-4.781 0-5.323 7.409-6.23 11.438-6.688m-152.31 8.906v101.72h21.813v-101.72h-21.813m63.5 2.688l-18.969 1.469-1.938 22.09h-13.219v17.344h12.313v33.25c0 7.366.023 16.402 6.094 21.469 4.899 3.984 13.168 4.906 19.406 4.906 4.02 0 8.01-.741 12.188-1.344l1.469-.313v-16.406l-6.813.281c-10.524.446-10.531-3.148-10.531-11.875v-29.969h16.16v-17.344h-16.16v-23.563m133.84 22.19c-8.331.351-12.345 8.113-14.438 15.625h-.313v-14.06h-20.313v75.28h21.813v-28.75c0-13.348 2.07-26.83 18.688-25.938v-21.781l-3.688-.344c-.594-.045-1.195-.055-1.75-.031m-312.28.031c-23.716 0-37.688 16.76-37.688 39.906 0 22.22 13.521 38.38 36.34 38.37 18.403 0 32.484-11.1 34.28-29.781l-20.781-1.188c-.737 6.953-4.601 13.06-12.313 13.06-12.455 0-12.625-13.07-12.625-22.25 0-9.654 1.503-21.5 13.5-21.5 7.879 0 11.438 6.67 11.438 13.5l20.781-1.219c-1.484-17.644-15.416-28.906-32.938-28.906m358.94.031c-23.448 0-36.625 17.934-36.625 40.19 0 22.41 14.664 38.09 37.22 38.09 25.501 0 34.25-22.21 34.25-25.938l-20.16-1.5c0 6.942-6.701 11.875-13.375 11.875-9.486 0-14.531-7.25-14.531-16.16l.156-3.719h48.37c.145-10.245-1.523-20.907-7.75-29.5-6.227-8.616-17.05-13.344-27.563-13.344m-318.59 1.5v47.44c0 7.265-.444 14.389 3.719 20.906 4.297 6.797 10.84 8.437 18.406 8.438 10.223 0 17.92-4.889 21.469-14.375h.313v12.875h20.16v-75.28h-21.781v40.469c0 3.828.274 8.136-1.188 11.563-1.92 4.431-6.089 7.25-11 7.25-7.712 0-8.313-5.773-8.313-11.844v-47.44h-21.781m162.28 0v47.44c0 7.265-.422 14.389 3.719 20.906 4.308 6.797 10.82 8.437 18.375 8.438 10.245 0 17.96-4.889 21.531-14.375h.25v12.875h20.22v-75.28h-21.844v40.469c0 3.828.35 8.136-1.156 11.563-1.92 4.431-6.069 7.25-10.969 7.25-7.723 0-8.312-5.773-8.313-11.844v-47.44h-21.813m157.19 12.719c9.486 0 12.179 7.561 12.625 15.719h-26.719c.77-8.582 4.474-15.719 14.09-15.719" fill="#fff"/></svg>