<svg xmlns="http://www.w3.org/2000/svg" height="373.3" viewBox="0 0 600 373.30361"><defs><linearGradient id="3" y2="244.1" gradientUnits="userSpaceOnUse" x2="567.87" y1="166.48" x1="554.97"><stop stop-color="#f6f6f6" stop-opacity="0"/><stop stop-color="#fff" offset=".392"/><stop stop-color="#bbb" offset=".514"/><stop stop-color="#c0c0c0" offset=".845"/><stop stop-color="#c5c5c5" stop-opacity="0" offset="1"/></linearGradient><linearGradient id="2" y2="311.04" gradientUnits="userSpaceOnUse" x2="295.58" y1="102.42" x1="308.98"><stop stop-color="#cdcdcd"/><stop stop-color="#ededed" offset=".225"/><stop stop-color="#fff" offset=".451"/><stop stop-color="#bbb" offset=".478"/><stop stop-color="#fff" offset="1"/></linearGradient><linearGradient id="0" y2="311.76" gradientUnits="userSpaceOnUse" x2="0" y1="88.82"><stop stop-color="#fff" offset=".5"/><stop stop-color="#d9d9d9" offset="1"/></linearGradient><linearGradient id="1" y2="376.81" gradientUnits="userSpaceOnUse" x2="135.35" y1="14.687" x1="103.67"><stop stop-color="#ffe7a6"/><stop stop-color="#ffd259" offset=".15"/><stop stop-color="#ffe499" offset=".5"/><stop stop-color="#ffc82f" offset="1"/></linearGradient></defs><path fill="url(#2)" d="m290.81 103.48v207.32h59.97v-84.93h67.98v84.93h95.86c72.19 0 85.38-62.77 85.38-102.87v-1.57c0-40.09-13.19-102.88-85.38-102.88h-95.86v72.55h-67.98v-72.55zm200.81 46.74c28.3.03 47.96 3.67 47.96 56.3v1.24c0 60.29-25.56 56.29-60.86 56.22v-113.68s8.79-.08 12.9-.08"/><path fill="url(#3)" d="m525.07 157.69c9.15 7.23 14.51 21.34 14.51 48.83v1.24c0 29.25-6.02 43.37-16.25 50.14h68.76c6.07-16.85 7.91-34.99 7.91-49.97v-1.57c0-14.59-1.75-32.19-7.45-48.67z"/><g stroke-width=".457"><path d="m0 316.25c0 5.03 4.03 10 8.945 11.05l215.52 45.81c4.93 1.04 8.96-2.22 8.96-7.25v-358.42c0-5.03-4.03-8.29-8.95-7.245l-215.52 45.812c-4.925 1.047-8.95 6.02-8.95 11.05z" fill="#ffc82f"/><path d="m2.515 313.13c0 5.03 4.03 10 8.945 11.04l210.27 44.7c4.92 1.04 8.95-2.22 8.95-7.25v-349.94c0-5.03-4.03-8.287-8.95-7.242l-210.27 44.695c-4.92 1.045-8.945 6.02-8.945 11.05z" fill="url(#1)"/><path d="m2.038 55.19s205.68-24.487 231.37 31.1l.001 111.85s-1.55 67.47-33.14 77.59l-103.64 22c.005 0-89.84 30.07-95.66-161.1-2.712-62.2 1.057-81.44 1.057-81.44z" fill="#ffc82f"/><path d="m180.15 265.82v-177h-49.83c-2.31 4.552-3.74 8.342-6.12 11.36-3.87 4.89-8.14 8.54-12.81 10.92-4.68 2.4-10.01 3.87-16 4.4-5.998.55-13.06.93-21.19 1.15v40.75h53.38v108.42h-53.38v45.91h52.746v.03c-21 0 106.48-.03 106.48-.03s-54.65 0-54.65.02v-.02h54.65v-45.91z" fill="url(#0)"/></g><g stroke-width=".457" fill="#fff"><path d="m153.62 68.7c0 2.109.46 3.7 1.36 4.772s2.59 1.607 5.07 1.607c1.07 0 1.92-.091 2.54-.276.62-.184 1.1-.427 1.43-.728.34-.301.58-.644.73-1.03.15-.384.28-.778.38-1.181h6.83c-.14.804-.37 1.701-.7 2.688-.34.988-.94 1.909-1.81 2.762-.87.854-2.1 1.575-3.67 2.161-1.58.586-3.67.879-6.28.879-4.49 0-7.74-1.147-9.77-3.441s-3.04-5.735-3.04-10.323c0-2.11.23-4.02.68-5.726.45-1.708 1.19-3.173 2.21-4.396 1.02-1.222 2.37-2.168 4.04-2.838 1.68-.67 3.74-1.01 6.18-1.01 2.92 0 5.23.486 6.93 1.457 1.71.971 3 2.219 3.87 3.742.87 1.525 1.42 3.24 1.64 5.15.21 1.908.27 3.817.17 5.726zm5.08-18.235l-5.48-7.736h5.93l2.76 7.736zm6.35 11.152c-.12-.704-.35-1.331-.7-1.884s-.86-.988-1.53-1.306c-.67-.317-1.58-.477-2.72-.477-1.4 0-2.51.184-3.31.553-.81.368-1.42.837-1.84 1.406-.41.57-.69 1.198-.82 1.884-.14.687-.26 1.365-.36 2.034h11.46c0-.77-.06-1.507-.18-2.21"/><path d="m190.6 58.656c-.81 0-1.56.118-2.26.352-.71.234-1.31.653-1.81 1.256-.57.737-.93 1.624-1.08 2.662-.15 1.039-.23 1.876-.23 2.512v14.216h-6.98v-26.322h6.23v4.922c.23-.669.48-1.339.75-2.01.27-.669.65-1.272 1.13-1.809.49-.534 1.13-.971 1.94-1.305.8-.335 1.85-.503 3.16-.503.57 0 1.14.025 1.71.076.57.05 1.14.109 1.71.176v5.776z"/><path d="m205.78 68.7c0 2.109.45 3.7 1.36 4.772.9 1.072 2.59 1.607 5.07 1.607 1.07 0 1.92-.091 2.54-.276.62-.184 1.09-.427 1.43-.728.33-.301.58-.644.73-1.03.15-.384.27-.778.37-1.181h6.84c-.14.804-.37 1.701-.71 2.688-.33.988-.93 1.909-1.81 2.762-.87.854-2.09 1.575-3.66 2.161-1.58.586-3.67.879-6.28.879-4.49 0-7.75-1.147-9.77-3.441-2.03-2.294-3.04-5.735-3.04-10.323 0-2.11.23-4.02.68-5.726.45-1.708 1.19-3.173 2.21-4.396 1.02-1.222 2.37-2.168 4.04-2.838 1.68-.67 3.73-1.01 6.18-1.01 2.91 0 5.22.486 6.93 1.457s3 2.219 3.87 3.742c.87 1.525 1.41 3.24 1.63 5.15.22 1.908.28 3.817.18 5.726zm11.43-7.083c-.12-.704-.35-1.331-.71-1.884-.35-.553-.86-.988-1.53-1.306-.67-.317-1.57-.477-2.71-.477-1.41 0-2.51.184-3.32.553-.8.368-1.41.837-1.83 1.406-.42.57-.69 1.198-.83 1.884-.13.687-.25 1.365-.35 2.034h11.45c0-.77-.05-1.507-.17-2.21"/></g></svg>