<?xml version="1.0" encoding="UTF-8" standalone="no"?>
<!-- Created with Inkscape (http://www.inkscape.org/) -->

<svg
   xmlns:dc="http://purl.org/dc/elements/1.1/"
   xmlns:cc="http://creativecommons.org/ns#"
   xmlns:rdf="http://www.w3.org/1999/02/22-rdf-syntax-ns#"
   xmlns:svg="http://www.w3.org/2000/svg"
   xmlns="http://www.w3.org/2000/svg"
   xmlns:xlink="http://www.w3.org/1999/xlink"
   xmlns:inkscape="http://www.inkscape.org/namespaces/inkscape"
   version="1.1"
   width="510.50299"
   height="816.43921"
   viewBox="-0.5 -7.721 510.503 816.43923"
   id="Calque_1"
   xml:space="preserve"><metadata
   id="metadata229"><rdf:RDF><cc:Work
       rdf:about=""><dc:format>image/svg+xml</dc:format><dc:type
         rdf:resource="http://purl.org/dc/dcmitype/StillImage" /><dc:title /></cc:Work></rdf:RDF></metadata><defs
   id="defs227">
	
	
	
	
	
	
<linearGradient
   x1="3372.2368"
   y1="1359.9609"
   x2="3441.5239"
   y2="568.00562"
   id="linearGradient3524"
   xlink:href="#SVGID_1_"
   gradientUnits="userSpaceOnUse"
   gradientTransform="matrix(1,0,0,-1,4,1384.3867)" /><linearGradient
   x1="3467.5728"
   y1="1166.3867"
   x2="3467.5728"
   y2="710.26758"
   id="linearGradient3526"
   xlink:href="#SVGID_2_"
   gradientUnits="userSpaceOnUse"
   gradientTransform="matrix(1,0,0,-1,4,1384.3867)" /><linearGradient
   x1="2742.2368"
   y1="1359.96"
   x2="2811.5239"
   y2="568.00513"
   id="linearGradient3528"
   xlink:href="#SVGID_3_"
   gradientUnits="userSpaceOnUse"
   gradientTransform="matrix(1,0,0,-1,4,1384.3867)" /><linearGradient
   x1="2837.6958"
   y1="1228.9727"
   x2="2837.6958"
   y2="739.91888"
   id="linearGradient3530"
   xlink:href="#SVGID_4_"
   gradientUnits="userSpaceOnUse"
   gradientTransform="matrix(1,0,0,-1,4,1384.3867)" /><linearGradient
   x1="2112.2378"
   y1="1359.96"
   x2="2181.5249"
   y2="568.00513"
   id="linearGradient3532"
   xlink:href="#SVGID_5_"
   gradientUnits="userSpaceOnUse"
   gradientTransform="matrix(1,0,0,-1,4,1384.3867)" /><linearGradient
   x1="2200.3208"
   y1="1228.9209"
   x2="2200.3208"
   y2="739.9209"
   id="linearGradient3534"
   xlink:href="#SVGID_6_"
   gradientUnits="userSpaceOnUse"
   gradientTransform="matrix(1,0,0,-1,4,1384.3867)" /><linearGradient
   x1="1482.2363"
   y1="1359.9609"
   x2="1551.5233"
   y2="568.0061"
   id="linearGradient3536"
   xlink:href="#SVGID_7_"
   gradientUnits="userSpaceOnUse"
   gradientTransform="matrix(1,0,0,-1,4,1384.3867)" /><linearGradient
   x1="1577.625"
   y1="1228.6318"
   x2="1577.625"
   y2="739.92291"
   id="linearGradient3538"
   xlink:href="#SVGID_8_"
   gradientUnits="userSpaceOnUse"
   gradientTransform="matrix(1,0,0,-1,4,1384.3867)" /><linearGradient
   x1="852.23682"
   y1="1359.96"
   x2="921.52368"
   y2="568.00562"
   id="linearGradient3540"
   xlink:href="#SVGID_9_"
   gradientUnits="userSpaceOnUse"
   gradientTransform="matrix(1,0,0,-1,4,1384.3867)" /><linearGradient
   x1="942.58148"
   y1="1228.8809"
   x2="942.58148"
   y2="739.91412"
   id="linearGradient3542"
   xlink:href="#SVGID_10_"
   gradientUnits="userSpaceOnUse"
   gradientTransform="matrix(1,0,0,-1,4,1384.3867)" /><linearGradient
   x1="222.2368"
   y1="1359.96"
   x2="291.5238"
   y2="568.00562"
   id="linearGradient3544"
   xlink:href="#SVGID_11_"
   gradientUnits="userSpaceOnUse"
   gradientTransform="matrix(1,0,0,-1,4,1384.3867)" /><linearGradient
   x1="335.88281"
   y1="186.5298"
   x2="335.88281"
   y2="674.12061"
   id="linearGradient3546"
   xlink:href="#SVGID_12_"
   gradientUnits="userSpaceOnUse" /><linearGradient
   x1="3372.2368"
   y1="1359.9609"
   x2="3441.5239"
   y2="568.00562"
   id="linearGradient3933"
   xlink:href="#SVGID_1_"
   gradientUnits="userSpaceOnUse"
   gradientTransform="matrix(1,0,0,-1,4,1384.3867)" /><linearGradient
   x1="3467.5728"
   y1="1166.3867"
   x2="3467.5728"
   y2="710.26758"
   id="linearGradient3935"
   xlink:href="#SVGID_2_"
   gradientUnits="userSpaceOnUse"
   gradientTransform="matrix(1,0,0,-1,4,1384.3867)" /><linearGradient
   x1="2742.2368"
   y1="1359.96"
   x2="2811.5239"
   y2="568.00513"
   id="linearGradient3937"
   xlink:href="#SVGID_3_"
   gradientUnits="userSpaceOnUse"
   gradientTransform="matrix(1,0,0,-1,4,1384.3867)" /><linearGradient
   x1="2837.6958"
   y1="1228.9727"
   x2="2837.6958"
   y2="739.91888"
   id="linearGradient3939"
   xlink:href="#SVGID_4_"
   gradientUnits="userSpaceOnUse"
   gradientTransform="matrix(1,0,0,-1,4,1384.3867)" /><linearGradient
   x1="2112.2378"
   y1="1359.96"
   x2="2181.5249"
   y2="568.00513"
   id="linearGradient3941"
   xlink:href="#SVGID_5_"
   gradientUnits="userSpaceOnUse"
   gradientTransform="matrix(1,0,0,-1,4,1384.3867)" /><linearGradient
   x1="2200.3208"
   y1="1228.9209"
   x2="2200.3208"
   y2="739.9209"
   id="linearGradient3943"
   xlink:href="#SVGID_6_"
   gradientUnits="userSpaceOnUse"
   gradientTransform="matrix(1,0,0,-1,4,1384.3867)" /><linearGradient
   x1="852.23682"
   y1="1359.96"
   x2="921.52368"
   y2="568.00562"
   id="linearGradient3945"
   xlink:href="#SVGID_9_"
   gradientUnits="userSpaceOnUse"
   gradientTransform="matrix(1,0,0,-1,4,1384.3867)" /><linearGradient
   x1="942.58148"
   y1="1228.8809"
   x2="942.58148"
   y2="739.91412"
   id="linearGradient3947"
   xlink:href="#SVGID_10_"
   gradientUnits="userSpaceOnUse"
   gradientTransform="matrix(1,0,0,-1,4,1384.3867)" /><linearGradient
   x1="222.2368"
   y1="1359.96"
   x2="291.5238"
   y2="568.00562"
   id="linearGradient3949"
   xlink:href="#SVGID_11_"
   gradientUnits="userSpaceOnUse"
   gradientTransform="matrix(1,0,0,-1,4,1384.3867)" /><linearGradient
   x1="335.88281"
   y1="186.5298"
   x2="335.88281"
   y2="674.12061"
   id="linearGradient3951"
   xlink:href="#SVGID_12_"
   gradientUnits="userSpaceOnUse" /></defs>

<g
   transform="translate(-1890,1.132535e-4)"
   id="France_4A_2_">
		<g
   id="g98">
			<path
   d="m 1889.5,683.941 c 0,11 8.803,21.87 19.563,24.157 l 471.373,100.193 c 10.76,2.287 19.563,-4.842 19.563,-15.842 V 8.548 c 0,-11 -8.803,-18.129 -19.563,-15.842 L 1909.063,92.9 c -10.76,2.287 -19.563,13.158 -19.563,24.158 v 566.883 z"
   inkscape:connector-curvature="0"
   id="path100"
   style="fill:#76246f" />
		</g>
		<g
   id="g102">
			
				<linearGradient
   x1="2112.2378"
   y1="1359.96"
   x2="2181.5249"
   y2="568.00513"
   id="SVGID_5_"
   gradientUnits="userSpaceOnUse"
   gradientTransform="matrix(1,0,0,-1,4,1384.3867)">
				<stop
   id="stop105"
   style="stop-color:#9e639a;stop-opacity:1"
   offset="0" />
				<stop
   id="stop107"
   style="stop-color:#802a75;stop-opacity:1"
   offset="0.25" />
				<stop
   id="stop109"
   style="stop-color:#985d93;stop-opacity:1"
   offset="0.5" />
				<stop
   id="stop111"
   style="stop-color:#76246f;stop-opacity:1"
   offset="1" />
			</linearGradient>
			<path
   d="m 1895,677.106 c 0,11 8.803,21.87 19.563,24.157 l 459.875,97.749 c 10.76,2.287 19.563,-4.842 19.563,-15.842 V 17.828 c 0,-11 -8.803,-18.129 -19.563,-15.842 l -459.875,97.75 c -10.76,2.287 -19.563,13.158 -19.563,24.158 v 553.212 z"
   inkscape:connector-curvature="0"
   id="path113"
   style="fill:url(#linearGradient3941)" />
		</g>
		<path
   d="m 1893.958,112.973 c 0,0 449.838,-53.555 506.035,68.021 l 0.01,244.633 c 0,0 -3.381,147.555 -72.469,169.701 l -226.662,48.103 c 0,0 -196.492,65.773 -209.225,-352.325 -5.929,-136.053 2.314,-178.133 2.314,-178.133 z"
   inkscape:connector-curvature="0"
   id="path115"
   style="fill:#76246f" />
		
			<linearGradient
   x1="2200.3208"
   y1="1228.9209"
   x2="2200.3208"
   y2="739.9209"
   id="SVGID_6_"
   gradientUnits="userSpaceOnUse"
   gradientTransform="matrix(1,0,0,-1,4,1384.3867)">
			<stop
   id="stop118"
   style="stop-color:#ffffff;stop-opacity:1"
   offset="0.5" />
			<stop
   id="stop120"
   style="stop-color:#bfbfbf;stop-opacity:1"
   offset="1" />
		</linearGradient>
		<path
   d="m 2320.92,155.466 h -100.943 l -201.322,276.572 c -8.307,10.459 -9.854,21.002 -10.012,26.795 v 0.125 c 0,0.595 0,1.136 0,1.589 l 0.045,90.651 h 209.281 l -0.02,93.268 h 102.971 v -94.211 h 79.078 V 447.316 l -79.078,-0.084 c 0,0 0,-272.624 0,-291.766 z m -102.949,291.655 c 0,0 -101.959,0.063 -101.959,0 0,-3.104 1.076,-5.969 2.705,-8.295 l 5.807,-8.007 93.447,-127.134 v 143.436 l 0,0 z"
   inkscape:connector-curvature="0"
   id="path122"
   style="fill:url(#linearGradient3943)" />
	</g>
</svg>