<svg xmlns="http://www.w3.org/2000/svg" height="373.3" viewBox="0 0 600 373.30319"><defs><linearGradient id="3" y2="244.1" gradientUnits="userSpaceOnUse" x2="567.87" y1="166.48" x1="554.97"><stop stop-color="#f6f6f6" stop-opacity="0"/><stop stop-color="#fff" offset=".392"/><stop stop-color="#bbb" offset=".514"/><stop stop-color="#c0c0c0" offset=".845"/><stop stop-color="#c5c5c5" stop-opacity="0" offset="1"/></linearGradient><linearGradient id="2" y2="311.04" gradientUnits="userSpaceOnUse" x2="295.58" y1="102.42" x1="308.98"><stop stop-color="#cdcdcd"/><stop stop-color="#ededed" offset=".225"/><stop stop-color="#fff" offset=".451"/><stop stop-color="#bbb" offset=".478"/><stop stop-color="#fff" offset="1"/></linearGradient><linearGradient id="0" y2="298.21" gradientUnits="userSpaceOnUse" x2="0" y1="74.58"><stop stop-color="#fff" offset=".5"/><stop stop-color="#bfbfbf" offset="1"/></linearGradient><linearGradient id="1" y2="376.81" gradientUnits="userSpaceOnUse" x2="135.3" y1="14.687" x1="103.62"><stop stop-color="#acd480"/><stop stop-color="#8cc642" offset=".25"/><stop stop-color="#a6d16f" offset=".5"/><stop stop-color="#7bc143" offset="1"/></linearGradient></defs><path fill="url(#2)" d="m290.81 103.48v207.32h59.97v-84.94h67.98v84.94h95.86c72.19 0 85.38-62.77 85.38-102.87v-1.57c0-40.09-13.19-102.88-85.38-102.88h-95.86v72.55h-67.98v-72.55zm200.81 46.74c28.3.03 47.96 3.67 47.96 56.3v1.24c0 60.29-25.56 56.29-60.86 56.22v-113.68s8.79-.08 12.9-.08"/><path fill="url(#3)" d="m525.07 157.69c9.15 7.22 14.51 21.34 14.51 48.83v1.24c0 29.25-6.02 43.37-16.25 50.14h68.76c6.07-16.85 7.91-34.99 7.91-49.97v-1.57c0-14.59-1.75-32.19-7.45-48.67z"/><g stroke-width=".457"><path d="m0 316.25c0 5.03 4.03 10 8.945 11.05l215.53 45.81c4.92 1.04 8.95-2.22 8.95-7.25v-358.42c0-5.03-4.03-8.29-8.95-7.245l-215.53 45.812c-4.915 1.046-8.94 6.02-8.94 11.05z" fill="#7bc143"/><path d="m2.515 313.13c0 5.03 4.03 10 8.945 11.04l210.27 44.7c4.92 1.04 8.94-2.22 8.94-7.25v-349.94c0-5.03-4.02-8.287-8.94-7.242l-210.27 44.695c-4.92 1.046-8.945 6.02-8.945 11.05z" fill="url(#1)"/><path d="m2.038 55.19s205.68-24.487 231.37 31.1l.001 111.85s-1.55 67.47-33.14 77.59l-103.63 22c-.004 0-89.85 30.07-95.67-161.1-2.712-62.2 1.057-81.44 1.057-81.44z" fill="#7bc143"/><path d="m70.32 200.63l50.19 8.1c6.28-7.44 14.34-12.81 27.97-12.81 17.8 0 30.22 6.26 30.22 28.81 0 24.11-12.02 31.4-29.73 31.4-21.22 0-28.06-12.99-29.37-24.16h-58.38c0 36.72 24.05 66.23 85 66.23 46.69 0 78-16.2 87.2-51.1v-46.35c-9.41-34.85-40.87-45.93-71.52-45.93-12.7 0-29.24 5.11-36.41 11.33 0 0-.43-.45-.57-.38l4.34-40.39h104.16v-50.789h-150.13z" fill="url(#0)"/></g></svg>