<svg xmlns="http://www.w3.org/2000/svg" viewBox="0 0 602.36 602.36"><path d="m17.717 584.65h475.49v-475.49h-475.49v475.49"/><path d="m109.19 462.07l-21.12 1.712.571 41.667c0 0 25.15 1.336 31.11 1.712 5.936.365 12.09.525 13.984 7.706 2.055 7.785-6.884 13.413-9.989 13.414 9.384 0 7.226 0 14.27 0 5.731-1.05 12.238-7.991 11.416-18.265-1.084-13.585-11.45-16.838-22.546-16.838l3.507-22.19-21.2-8.916m-49.659 39.38c-3.802 4.601-7.603 11.815-5.422 19.692 6.518 22.01 41.473 31.667 56.22 32.25l-1.712-25.685c0 0-23.859 2.991-35.96-9.703-5.126-5.354-4.144-10.811-.285-15.697-4.521-.194-9.806-.731-12.843-.856" fill="#fff"/><path d="m109.16 493.2h475.49v-475.49h-475.49v475.49" fill="#fff200"/><path d="m400.29 262.58c-16.1 0-33.29 6.267-42.524 19.978-7.466 11.324-6.849 27.11-6.849 40.24h-17.694v33.962h17.694v113.59h43.665v-113.59h26.827v-33.962h-26.827v-3.425c0-12.831.251-21.975 14.27-21.975 6.861 0 9.989-.046 16.553.856v-33.676c-9.258-1.792-21.53-1.998-25.11-1.998m-268.27.285v42.24h43.665v-42.24h-43.665m69.921 4.281c-2.922 0-6.02 1.222-7.706 3.71-1.347 2.078-1.142 5.03-1.142 7.42h-3.139v5.993h3.139v20.548h7.991v-20.548h4.852v-5.993h-4.852v-.856c0-2.329.023-3.996 2.569-3.996 1.256 0 1.655.114 2.854.285v-5.993c-1.689-.342-3.927-.571-4.566-.571m20.548 9.703c-3.47-.251-5.183 2.774-5.993 5.708v-5.137h-7.42v27.398h7.991v-10.274c0-4.875.776-10.02 6.849-9.703v-7.706l-1.427-.285m16.267 0c-5.788 0-12.318 1.884-13.13 8.562l7.42.856c0-2.694 2.306-3.995 4.852-3.996 1.199 0 2.432.217 3.139 1.142.811 1.027.856 2.511.856 3.71v.571c-3.345.331-7.706.537-10.845 1.712-3.642 1.347-6.279 4.212-6.279 8.276 0 5.206 3.676 7.706 8.562 7.706 4.121 0 6.576-1.324 8.847-4.566-.046 1.404.251 2.58.571 3.996h7.706c-.434-1.347-.571-2.591-.571-3.996v-12.843c0-3.322.24-6.302-2.569-8.562-2.226-1.849-5.731-2.569-8.562-2.569m30.823 0c-4.01 0-6.37 1.609-7.991 5.137v-4.566h-7.42v27.398h7.991v-14.555c0-1.735.046-3.276.856-4.852.651-1.244 2.02-2.283 3.425-2.283 4.02 0 3.425 4.315 3.425 7.135v14.555h7.991v-16.838c0-2.5.091-5.925-1.427-7.991-1.621-2.226-4.247-3.139-6.849-3.139m24.829 0c-8.664 0-13.984 6.107-13.984 14.555 0 8.128 5.069 13.984 13.414 13.984 6.712 0 11.907-4.02 12.557-10.845l-7.706-.285c-.262 2.546-1.758 4.566-4.566 4.566-4.566 0-4.566-4.623-4.566-7.991 0-3.528.457-7.991 4.852-7.991 2.865 0 4.281 2.637 4.281 5.137l7.706-.571c-.536-6.438-5.594-10.56-11.987-10.56m26.827 0c-8.562 0-13.13 6.713-13.13 14.84 0 8.185 5.183 13.699 13.414 13.699 9.326 0 12.557-8.05 12.557-9.418l-7.42-.571c0 2.546-2.42 4.281-4.852 4.281-3.47 0-5.137-2.454-5.137-5.708v-1.427h17.694c.057-3.756-.571-7.706-2.854-10.845-2.283-3.139-6.427-4.852-10.274-4.852m.571 5.137c3.47 0 4.395 2.728 4.566 5.708h-9.703c.274-3.139 1.621-5.708 5.137-5.708m-79.91 9.703v1.142c0 1.941 0 3.687-1.142 5.422-.913 1.404-2.363 2.283-3.996 2.283-2.215 0-3.425-1.541-3.425-3.71 0-4.02 5.537-4.817 8.562-5.137m36.816 24.26c-22.07 0-34.727 9.167-43.665 28.539h-.571v-25.685h-41.38v151.54h43.951v-81.34c0-9.532.377-18.16 4.852-26.827 3.573-6.861 10.811-11.416 18.551-11.416 22.08 0 19.978 22.729 19.978 38.24v81.34h43.951v-93.61c0-13.71.08-32.912-8.276-44.24-8.95-12.226-23.07-16.553-37.39-16.553m212.05 0c-46.23 0-71.919 34.34-71.919 78.48 0 43.848 25.377 79.05 71.919 79.05 44.738 0 73.06-34.384 73.06-77.63 0-44.738-25.651-79.91-73.06-79.91m-358.74 2.854v151.54h43.665v-151.54h-43.665m359.03 25.971c10.137 0 17.261 3.836 20.834 13.699 4.178 11.336 4.852 25.731 4.852 37.672 0 18.19-1.221 47.946-25.971 47.946-25.07 0-24.829-36.93-24.829-54.22 0-17.318 1.553-45.09 25.11-45.09"/></svg>