<?xml version="1.0" encoding="UTF-8" standalone="no"?>
<!-- Created with Inkscape (http://www.inkscape.org/) -->

<svg
   xmlns:dc="http://purl.org/dc/elements/1.1/"
   xmlns:cc="http://creativecommons.org/ns#"
   xmlns:rdf="http://www.w3.org/1999/02/22-rdf-syntax-ns#"
   xmlns:svg="http://www.w3.org/2000/svg"
   xmlns="http://www.w3.org/2000/svg"
   xmlns:xlink="http://www.w3.org/1999/xlink"
   xmlns:inkscape="http://www.inkscape.org/namespaces/inkscape"
   version="1.1"
   width="510.50299"
   height="816.43921"
   viewBox="-0.5 -7.721 510.503 816.43923"
   id="Calque_1"
   xml:space="preserve"><metadata
   id="metadata229"><rdf:RDF><cc:Work
       rdf:about=""><dc:format>image/svg+xml</dc:format><dc:type
         rdf:resource="http://purl.org/dc/dcmitype/StillImage" /><dc:title /></cc:Work></rdf:RDF></metadata><defs
   id="defs227">
	
	
	
	
	
	
<linearGradient
   x1="3372.2368"
   y1="1359.9609"
   x2="3441.5239"
   y2="568.00562"
   id="linearGradient3524"
   xlink:href="#SVGID_1_"
   gradientUnits="userSpaceOnUse"
   gradientTransform="matrix(1,0,0,-1,4,1384.3867)" /><linearGradient
   x1="3467.5728"
   y1="1166.3867"
   x2="3467.5728"
   y2="710.26758"
   id="linearGradient3526"
   xlink:href="#SVGID_2_"
   gradientUnits="userSpaceOnUse"
   gradientTransform="matrix(1,0,0,-1,4,1384.3867)" /><linearGradient
   x1="2742.2368"
   y1="1359.96"
   x2="2811.5239"
   y2="568.00513"
   id="linearGradient3528"
   xlink:href="#SVGID_3_"
   gradientUnits="userSpaceOnUse"
   gradientTransform="matrix(1,0,0,-1,4,1384.3867)" /><linearGradient
   x1="2837.6958"
   y1="1228.9727"
   x2="2837.6958"
   y2="739.91888"
   id="linearGradient3530"
   xlink:href="#SVGID_4_"
   gradientUnits="userSpaceOnUse"
   gradientTransform="matrix(1,0,0,-1,4,1384.3867)" /><linearGradient
   x1="2112.2378"
   y1="1359.96"
   x2="2181.5249"
   y2="568.00513"
   id="linearGradient3532"
   xlink:href="#SVGID_5_"
   gradientUnits="userSpaceOnUse"
   gradientTransform="matrix(1,0,0,-1,4,1384.3867)" /><linearGradient
   x1="2200.3208"
   y1="1228.9209"
   x2="2200.3208"
   y2="739.9209"
   id="linearGradient3534"
   xlink:href="#SVGID_6_"
   gradientUnits="userSpaceOnUse"
   gradientTransform="matrix(1,0,0,-1,4,1384.3867)" /><linearGradient
   x1="1482.2363"
   y1="1359.9609"
   x2="1551.5233"
   y2="568.0061"
   id="linearGradient3536"
   xlink:href="#SVGID_7_"
   gradientUnits="userSpaceOnUse"
   gradientTransform="matrix(1,0,0,-1,4,1384.3867)" /><linearGradient
   x1="1577.625"
   y1="1228.6318"
   x2="1577.625"
   y2="739.92291"
   id="linearGradient3538"
   xlink:href="#SVGID_8_"
   gradientUnits="userSpaceOnUse"
   gradientTransform="matrix(1,0,0,-1,4,1384.3867)" /><linearGradient
   x1="852.23682"
   y1="1359.96"
   x2="921.52368"
   y2="568.00562"
   id="linearGradient3540"
   xlink:href="#SVGID_9_"
   gradientUnits="userSpaceOnUse"
   gradientTransform="matrix(1,0,0,-1,4,1384.3867)" /><linearGradient
   x1="942.58148"
   y1="1228.8809"
   x2="942.58148"
   y2="739.91412"
   id="linearGradient3542"
   xlink:href="#SVGID_10_"
   gradientUnits="userSpaceOnUse"
   gradientTransform="matrix(1,0,0,-1,4,1384.3867)" /><linearGradient
   x1="222.2368"
   y1="1359.96"
   x2="291.5238"
   y2="568.00562"
   id="linearGradient3544"
   xlink:href="#SVGID_11_"
   gradientUnits="userSpaceOnUse"
   gradientTransform="matrix(1,0,0,-1,4,1384.3867)" /><linearGradient
   x1="335.88281"
   y1="186.5298"
   x2="335.88281"
   y2="674.12061"
   id="linearGradient3546"
   xlink:href="#SVGID_12_"
   gradientUnits="userSpaceOnUse" /><linearGradient
   x1="3372.2368"
   y1="1359.9609"
   x2="3441.5239"
   y2="568.00562"
   id="linearGradient3933"
   xlink:href="#SVGID_1_"
   gradientUnits="userSpaceOnUse"
   gradientTransform="matrix(1,0,0,-1,4,1384.3867)" /><linearGradient
   x1="3467.5728"
   y1="1166.3867"
   x2="3467.5728"
   y2="710.26758"
   id="linearGradient3935"
   xlink:href="#SVGID_2_"
   gradientUnits="userSpaceOnUse"
   gradientTransform="matrix(1,0,0,-1,4,1384.3867)" /><linearGradient
   x1="2742.2368"
   y1="1359.96"
   x2="2811.5239"
   y2="568.00513"
   id="linearGradient3937"
   xlink:href="#SVGID_3_"
   gradientUnits="userSpaceOnUse"
   gradientTransform="matrix(1,0,0,-1,4,1384.3867)" /><linearGradient
   x1="2837.6958"
   y1="1228.9727"
   x2="2837.6958"
   y2="739.91888"
   id="linearGradient3939"
   xlink:href="#SVGID_4_"
   gradientUnits="userSpaceOnUse"
   gradientTransform="matrix(1,0,0,-1,4,1384.3867)" /><linearGradient
   x1="2112.2378"
   y1="1359.96"
   x2="2181.5249"
   y2="568.00513"
   id="linearGradient3941"
   xlink:href="#SVGID_5_"
   gradientUnits="userSpaceOnUse"
   gradientTransform="matrix(1,0,0,-1,4,1384.3867)" /><linearGradient
   x1="2200.3208"
   y1="1228.9209"
   x2="2200.3208"
   y2="739.9209"
   id="linearGradient3943"
   xlink:href="#SVGID_6_"
   gradientUnits="userSpaceOnUse"
   gradientTransform="matrix(1,0,0,-1,4,1384.3867)" /><linearGradient
   x1="852.23682"
   y1="1359.96"
   x2="921.52368"
   y2="568.00562"
   id="linearGradient3945"
   xlink:href="#SVGID_9_"
   gradientUnits="userSpaceOnUse"
   gradientTransform="matrix(1,0,0,-1,4,1384.3867)" /><linearGradient
   x1="942.58148"
   y1="1228.8809"
   x2="942.58148"
   y2="739.91412"
   id="linearGradient3947"
   xlink:href="#SVGID_10_"
   gradientUnits="userSpaceOnUse"
   gradientTransform="matrix(1,0,0,-1,4,1384.3867)" /><linearGradient
   x1="222.2368"
   y1="1359.96"
   x2="291.5238"
   y2="568.00562"
   id="linearGradient3949"
   xlink:href="#SVGID_11_"
   gradientUnits="userSpaceOnUse"
   gradientTransform="matrix(1,0,0,-1,4,1384.3867)" /><linearGradient
   x1="335.88281"
   y1="186.5298"
   x2="335.88281"
   y2="674.12061"
   id="linearGradient3951"
   xlink:href="#SVGID_12_"
   gradientUnits="userSpaceOnUse" /><linearGradient
   x1="3372.2368"
   y1="1359.9609"
   x2="3441.5239"
   y2="568.00562"
   id="linearGradient4151"
   xlink:href="#SVGID_1_"
   gradientUnits="userSpaceOnUse"
   gradientTransform="matrix(1,0,0,-1,4,1384.3867)" /><linearGradient
   x1="3467.5728"
   y1="1166.3867"
   x2="3467.5728"
   y2="710.26758"
   id="linearGradient4153"
   xlink:href="#SVGID_2_"
   gradientUnits="userSpaceOnUse"
   gradientTransform="matrix(1,0,0,-1,4,1384.3867)" /><linearGradient
   x1="2742.2368"
   y1="1359.96"
   x2="2811.5239"
   y2="568.00513"
   id="linearGradient4155"
   xlink:href="#SVGID_3_"
   gradientUnits="userSpaceOnUse"
   gradientTransform="matrix(1,0,0,-1,4,1384.3867)" /><linearGradient
   x1="2837.6958"
   y1="1228.9727"
   x2="2837.6958"
   y2="739.91888"
   id="linearGradient4157"
   xlink:href="#SVGID_4_"
   gradientUnits="userSpaceOnUse"
   gradientTransform="matrix(1,0,0,-1,4,1384.3867)" /><linearGradient
   x1="1482.2363"
   y1="1359.9609"
   x2="1551.5233"
   y2="568.0061"
   id="linearGradient4159"
   xlink:href="#SVGID_7_"
   gradientUnits="userSpaceOnUse"
   gradientTransform="matrix(1,0,0,-1,4,1384.3867)" /><linearGradient
   x1="1577.625"
   y1="1228.6318"
   x2="1577.625"
   y2="739.92291"
   id="linearGradient4161"
   xlink:href="#SVGID_8_"
   gradientUnits="userSpaceOnUse"
   gradientTransform="matrix(1,0,0,-1,4,1384.3867)" /><linearGradient
   x1="852.23682"
   y1="1359.96"
   x2="921.52368"
   y2="568.00562"
   id="linearGradient4163"
   xlink:href="#SVGID_9_"
   gradientUnits="userSpaceOnUse"
   gradientTransform="matrix(1,0,0,-1,4,1384.3867)" /><linearGradient
   x1="942.58148"
   y1="1228.8809"
   x2="942.58148"
   y2="739.91412"
   id="linearGradient4165"
   xlink:href="#SVGID_10_"
   gradientUnits="userSpaceOnUse"
   gradientTransform="matrix(1,0,0,-1,4,1384.3867)" /><linearGradient
   x1="222.2368"
   y1="1359.96"
   x2="291.5238"
   y2="568.00562"
   id="linearGradient4167"
   xlink:href="#SVGID_11_"
   gradientUnits="userSpaceOnUse"
   gradientTransform="matrix(1,0,0,-1,4,1384.3867)" /><linearGradient
   x1="335.88281"
   y1="186.5298"
   x2="335.88281"
   y2="674.12061"
   id="linearGradient4169"
   xlink:href="#SVGID_12_"
   gradientUnits="userSpaceOnUse" /></defs>

<g
   transform="translate(-2520,1.132535e-4)"
   id="France_5_1_">
		<g
   id="g71">
			<path
   d="m 2519.5,683.941 c 0,11 8.803,21.87 19.563,24.157 l 471.373,100.193 c 10.76,2.287 19.563,-4.842 19.563,-15.842 V 8.548 c 0,-11 -8.803,-18.129 -19.563,-15.842 L 2539.063,92.9 c -10.76,2.287 -19.563,13.158 -19.563,24.158 v 566.883 z"
   inkscape:connector-curvature="0"
   id="path73"
   style="fill:#7bc143" />
		</g>
		<g
   id="g75">
			
				<linearGradient
   x1="2742.2368"
   y1="1359.96"
   x2="2811.5239"
   y2="568.00513"
   id="SVGID_3_"
   gradientUnits="userSpaceOnUse"
   gradientTransform="matrix(1,0,0,-1,4,1384.3867)">
				<stop
   id="stop78"
   style="stop-color:#acd480;stop-opacity:1"
   offset="0" />
				<stop
   id="stop80"
   style="stop-color:#8cc642;stop-opacity:1"
   offset="0.25" />
				<stop
   id="stop82"
   style="stop-color:#a6d16f;stop-opacity:1"
   offset="0.5" />
				<stop
   id="stop84"
   style="stop-color:#7bc143;stop-opacity:1"
   offset="1" />
			</linearGradient>
			<path
   d="m 2525,677.106 c 0,11 8.803,21.87 19.563,24.157 l 459.875,97.749 c 10.76,2.287 19.563,-4.842 19.563,-15.842 V 17.828 c 0,-11 -8.803,-18.129 -19.563,-15.842 l -459.875,97.75 c -10.76,2.287 -19.563,13.158 -19.563,24.158 v 553.212 z"
   inkscape:connector-curvature="0"
   id="path86"
   style="fill:url(#linearGradient4155)" />
		</g>
		<path
   d="m 2523.958,112.973 c 0,0 449.838,-53.555 506.035,68.021 l 0.01,244.633 c 0,0 -3.381,147.555 -72.469,169.701 l -226.662,48.103 c 0,0 -196.492,65.773 -209.223,-352.325 -5.931,-136.053 2.312,-178.133 2.312,-178.133 z"
   inkscape:connector-curvature="0"
   id="path88"
   style="fill:#7bc143" />
		
			<linearGradient
   x1="2837.6958"
   y1="1228.9727"
   x2="2837.6958"
   y2="739.91888"
   id="SVGID_4_"
   gradientUnits="userSpaceOnUse"
   gradientTransform="matrix(1,0,0,-1,4,1384.3867)">
			<stop
   id="stop91"
   style="stop-color:#ffffff;stop-opacity:1"
   offset="0.5" />
			<stop
   id="stop93"
   style="stop-color:#bfbfbf;stop-opacity:1"
   offset="1" />
		</linearGradient>
		<path
   d="m 2673.297,431.071 109.771,17.724 c 13.736,-16.287 31.357,-28.029 61.176,-28.029 38.93,0 66.09,13.696 66.09,63.012 0,52.728 -26.291,68.666 -65.021,68.666 -46.412,0 -61.365,-28.391 -64.234,-52.828 h -127.688 c 0,80.316 52.598,144.853 185.904,144.853 102.105,0 170.586,-35.427 190.705,-111.764 V 431.33 c -20.576,-76.208 -89.389,-100.444 -156.408,-100.444 -27.779,0 -63.949,11.17 -79.641,24.776 0,0 -0.947,-0.979 -1.238,-0.828 l 9.488,-88.346 H 3030 V 155.414 h -328.33 l -28.373,275.657 z"
   inkscape:connector-curvature="0"
   id="path95"
   style="fill:url(#linearGradient4157)" />
	</g>
</svg>