<svg xmlns="http://www.w3.org/2000/svg" width="510.5" viewBox="-0.5 -7.721 510.50199 816.43923"><defs><linearGradient x1="856.24" y1="24.427" x2="925.52" y2="816.38" id="0" gradientUnits="userSpaceOnUse"><stop stop-color="#f37364"/><stop offset=".15" stop-color="#f16152"/><stop offset=".5" stop-color="#f26758"/><stop offset="1" stop-color="#ed1b2f"/></linearGradient><linearGradient y1="155.51" x2="0" y2="644.47" id="1" gradientUnits="userSpaceOnUse"><stop offset=".5" stop-color="#fff"/><stop offset="1" stop-color="#bfbfbf"/></linearGradient></defs><g transform="translate(-630)"><path d="m629.5 683.94c0 11 8.804 21.87 19.563 24.16l471.37 100.19c10.761 2.287 19.563-4.842 19.563-15.842v-783.9c0-11-8.804-18.13-19.563-15.842l-471.37 100.19c-10.759 2.287-19.563 13.158-19.563 24.16v566.88" fill="#ed1b2f"/><path d="m635 677.11c0 11 8.804 21.87 19.563 24.16l459.88 97.75c10.76 2.287 19.563-4.842 19.563-15.842v-765.34c0-11-8.804-18.13-19.563-15.842l-459.88 97.75c-10.759 2.286-19.563 13.158-19.563 24.16v553.21" fill="url(#0)"/><path d="m633.96 112.97c0 0 449.84-53.55 506.03 68.02v244.63c0 0-3.381 147.56-72.47 169.7l-226.66 48.1c0 0-196.49 65.773-209.22-352.32-5.93-136.05 2.311-178.13 2.311-178.13" fill="#ed1b2f"/><path d="m1140 530.84h-223.31c0 0 31.01-17.461 84.73-47.27 92.2-51.17 126.45-91.17 138.58-130.52v-93.54c-18.865-63.62-80.8-104.02-185.9-104.02-104.05 0-203.71 40.942-196.45 186.19 0 0 129.41-.37 131.27 0 0-59.805 11.646-91.16 62.6-91.16 44.41 0 65.772 19.867 65.772 54.07 0 32.535-29.18 54.35-57.735 73.64-39.35 26.563-57.56 38.664-121.56 82.04-79.45 53.875-84.83 92.67-84.83 184.14.151.106 334.6.023 386.84 0v-113.57z" fill="url(#1)"/></g></svg>