<svg xmlns="http://www.w3.org/2000/svg" height="600" width="600" viewBox="0 0 158.75 158.75001"><g transform="translate(-20.722-63.37)"><path d="m20.722 63.37h158.75v158.75h-158.75z" fill="#e62f33"/><g fill="#fff"><path d="m38.581 84.88l12.02 12.03h-12.02v15.717l3.514 3.51v-6.93h13.37v-3.61h-13.37v-5.34h13.37v-3.369l-16.884-16.895zm22.262 35.37h-22.262v5.77h28.03v-18l-5.764-5.77zm-16.488 63.62h-5.774v15.36l5.774 5.76h22.252v-5.76h-11.131v-9.58l-5.764-5.78v15.36h-5.357zm0-52.93h-5.774v15.34l5.764 5.76h22.262v-21.1h-5.764v15.33h-5.367v-9.57l-5.764-5.76v15.33h-5.357zm-5.774 26.33h28.03v16.13l-5.764 5.76h-22.262v-5.76h22.262v-10.35h-22.262zm65.18 47.72h59.83l-29.92-29.92zm53.67-101.22l-77.44 77.46 18.234 18.23 59.21-59.22zm-23.76 12.71l-59.22 59.21v-36.47l59.22-59.22z"/><path d="m164.76 197.86c.97 0 1.74.78 1.74 1.77s-.77 1.76-1.74 1.76c-.95 0-1.73-.77-1.73-1.76s.78-1.77 1.73-1.77m0 .28l-1.4 1.49 1.4 1.48 1.41-1.48zm-.33 2.5h-.31v-1.95l.55-.06.62.16.18.4-.4.48.34.49.12.48h-.33l-.13-.5-.41-.34h-.23zm0-1.08h.24l.47-.34-.47-.34-.24.001z"/></g></g></svg>