<svg xmlns="http://www.w3.org/2000/svg" viewBox="0 0 600 76.54"><g transform="translate(103.53-274.49)"><path d="m-31.845 329.48c-6.151 12.576-19.03 21.255-33.892 21.255-20.89 0-37.79-17.05-37.79-38.12 0-21.04 16.9-38.12 37.79-38.12 10.262 0 19.55 4.141 26.371 10.841l-10.506 10.567c-4.141-3.959-9.714-6.395-15.865-6.395-12.668 0-22.96 10.353-22.96 23.11 0 12.79 10.293 23.14 22.96 23.14 6.09 0 11.602-2.406 15.713-6.303l18.18.03z"/><path d="m.107 276.21h-2.68s-1.888.122-3.837 1.248c-1.797 1.035-3.867 3.167-3.867 3.167s-20.19 20.92-21.864 22.473c-1.644 1.523-3.745 2.223-6.699 2.223h-25.12c-4.507.091-8.131 3.776-8.131 8.283 0 4.598 3.685 8.283 8.283 8.283h27.28c2.649 0 5.42 0 7.03-.853 1.584-.853 2.649-1.736 2.649-1.736l15.713-15.774s2.284-2.345 2.284-.274v43.33s-.122 4.446 3.989 4.446h9.653c3.928 0 3.989-4.446 3.989-4.446v-59.35c0-5.786-2.741-11.02-8.679-11.02"/><path d="m17.647 284.24c0-6.699 4.568-8.191 9.01-8.191h4.872c5.146 0 7.582 2.01 9.318 7.582l14.464 46.13h.213l14.282-46.13c1.705-5.573 4.141-7.582 9.318-7.582h4.659c4.446 0 9.01 1.492 9.01 8.191v58.59c0 4.141-2.04 8.1-7.4 8.1-5.359 0-7.4-3.959-7.4-8.1v-44.52h-.183l-15.5 47.748c-1.127 3.441-3.654 4.872-7.095 4.872s-5.968-1.431-7.095-4.872l-15.5-47.748h-.183v44.52c0 4.141-2.04 8.1-7.4 8.1-5.39 0-7.4-3.959-7.4-8.1v-58.59"/><path d="m100.47 285.77c0-7.4 3.837-9.714 9.714-9.714h39.01c4.842 0 8.405 1.401 8.405 6.669 0 5.268-3.563 6.699-8.405 6.699h-32.13v16.992h28.17c4.355 0 7.796 1.188 7.796 6.364s-3.441 6.364-7.796 6.364h-28.17v18.21h32.948c4.842 0 8.405 1.431 8.405 6.699s-3.563 6.669-8.405 6.669h-39.83c-5.877 0-9.714-2.314-9.714-9.714v-55.24"/><path d="m216.07 337.5c14.799 0 19.885-11.541 19.885-25.24 0-13.734-6.577-23.478-19.885-23.478-13.307 0-19.885 9.744-19.885 23.478 0 13.703 4.568 25.24 19.885 25.24m0-61.847c23.447 0 36.18 15.622 36.18 36.602 0 20.19-11.724 38.37-36.18 38.37-25.64 0-36.18-16.687-36.18-38.37 0-20.981 12.729-36.602 36.18-36.602"/><path d="m256.96 285.59c0-6.76 3.289-9.562 10.232-9.562 3.38 0 6.395 1.309 8.161 4.294l28.533 46.773h.213v-43.18c0-5.298 2.984-7.887 7.826-7.887 4.903 0 7.856 2.588 7.856 7.887v56.913c0 6.456-2.771 10.14-9.623 10.14-5.177 0-6.882-1.096-8.953-4.385l-28.35-45.49h-.183v42.02c0 5.268-2.984 7.856-7.856 7.856s-7.856-2.588-7.856-7.856v-57.52"/><path d="m326.12 285.59c0-7.247 3.776-9.562 9.562-9.562h38.25c4.781 0 8.283 1.401 8.283 6.577s-3.502 6.577-8.283 6.577h-31.487v17.54h27.619c4.263 0 7.674 1.188 7.674 6.273 0 5.05-3.411 6.243-7.674 6.243h-27.619v18.575h32.28c4.781 0 8.252 1.401 8.252 6.577 0 5.146-3.471 6.547-8.252 6.547h-39.04c-5.786 0-9.562-2.284-9.562-9.562v-55.787"/><path d="m392.16 280.98h.639c.396 0 .7-.061.883-.213.152-.122.244-.305.244-.518s-.091-.396-.244-.518c-.152-.152-.457-.213-.853-.213h-.67v1.462m-1.462-2.497h2.619c.731 0 1.279.152 1.614.457.335.305.487.7.487 1.218 0 .396-.122.731-.365 1.035-.274.274-.67.487-1.218.609.213.091.396.183.487.274.152.152.305.335.487.609 0 0 .335.579.944 1.705h-1.736c-.548-1.127-.914-1.797-1.127-2.01-.183-.213-.365-.335-.548-.335-.061 0-.122.03-.183.03v2.314h-1.462v-5.908m6.912 2.954c0-1.218-.426-2.253-1.309-3.137-.853-.853-1.888-1.309-3.106-1.309-1.248 0-2.284.457-3.167 1.309-.853.883-1.279 1.918-1.279 3.137 0 1.218.426 2.284 1.279 3.137.883.853 1.918 1.309 3.167 1.309 1.218 0 2.253-.457 3.106-1.309.883-.853 1.309-1.918 1.309-3.137m1.066 0c0 .974-.244 1.918-.731 2.771-.487.822-1.157 1.523-2.01 2.01-.853.487-1.766.731-2.771.731-.974 0-1.888-.244-2.741-.731-.853-.487-1.523-1.188-2.01-2.01-.487-.853-.731-1.797-.731-2.771 0-.974.244-1.888.731-2.741.487-.853 1.157-1.553 2.01-2.04.853-.487 1.766-.731 2.741-.731 1 0 1.918.244 2.771.731.853.487 1.523 1.188 2.01 2.04.487.853.731 1.766.731 2.741"/><path fill="#231f20" d="m487.61 274.63h-2.741s-1.918.122-3.928 1.279c-1.797 1.066-3.928 3.228-3.928 3.228s-20.616 21.346-22.29 22.93c-1.705 1.553-3.837 2.253-6.882 2.253h-15.926v-8.13c0-4.598-3.715-8.313-8.313-8.313-4.598 0-8.313 3.715-8.313 8.313v8.313h-11.08c-4.568 0-8.283 3.715-8.283 8.313 0 4.568 3.715 8.313 8.283 8.313h11.08v8.313c0 4.568 3.715 8.313 8.313 8.313 4.598 0 8.313-3.745 8.313-8.313v-8.191h18.301c2.71 0 5.542 0 7.187-.883 1.614-.883 2.71-1.766 2.71-1.766l16.02-16.08s2.345-2.406 2.345-.305v44.25s-.122 4.537 4.08 4.537h9.836c4.02 0 4.08-4.537 4.08-4.537v-60.6c0-5.908-2.801-11.237-8.861-11.237"/></g></svg>