<svg xmlns="http://www.w3.org/2000/svg" viewBox="0 0 600 91.45"><g transform="translate(152.42-267.04)" fill="#fff"><path d="m-66.783 332.74c-7.349 15.02-22.738 25.394-40.492 25.394-24.957 0-45.15-20.373-45.15-45.549 0-25.14 20.19-45.549 45.15-45.549 12.26 0 23.356 4.948 31.506 12.952l-12.551 12.624c-4.948-4.729-11.605-7.64-18.954-7.64-15.13 0-27.431 12.369-27.431 27.613 0 15.28 12.297 27.649 27.431 27.649 7.276 0 13.861-2.874 18.773-7.531l21.719.036"/><path d="m-28.608 269.1h-3.201s-2.256.146-4.584 1.492c-2.147 1.237-4.62 3.784-4.62 3.784s-24.12 24.994-26.12 26.849c-1.965 1.819-4.475 2.656-8 2.656h-30.01c-5.384.109-9.714 4.511-9.714 9.896 0 5.493 4.402 9.896 9.896 9.896h32.597c3.165 0 6.476 0 8.404-1.019 1.892-1.019 3.165-2.074 3.165-2.074l18.773-18.845s2.729-2.801 2.729-.327v51.77s-.146 5.312 4.766 5.312h11.533c4.693 0 4.766-5.312 4.766-5.312v-70.906c0-6.912-3.274-13.17-10.369-13.17"/><path d="m-7.653 278.69c0-8 5.457-9.786 10.769-9.786h5.821c6.148 0 9.06 2.401 11.133 9.06l17.281 55.12h.255l17.06-55.12c2.037-6.658 4.948-9.06 11.133-9.06h5.566c5.312 0 10.769 1.783 10.769 9.786v69.997c0 4.948-2.438 9.677-8.841 9.677s-8.841-4.729-8.841-9.677v-53.19h-.218l-18.518 57.05c-1.346 4.111-4.366 5.821-8.477 5.821s-7.131-1.71-8.477-5.821l-18.518-57.05h-.218v53.19c0 4.948-2.438 9.677-8.841 9.677-6.439 0-8.841-4.729-8.841-9.677v-69.997z"/><path d="m91.3 280.51c0-8.841 4.584-11.605 11.605-11.605h46.604c5.785 0 10.04 1.673 10.04 7.967s-4.257 8-10.04 8h-38.38v20.301h33.652c5.202 0 9.314 1.419 9.314 7.604 0 6.185-4.111 7.604-9.314 7.604h-33.652v21.756h39.36c5.785 0 10.04 1.71 10.04 8s-4.257 7.967-10.04 7.967h-47.586c-7.02 0-11.605-2.765-11.605-11.605v-65.995z"/><path d="m229.41 342.32c17.681 0 23.757-13.788 23.757-30.16 0-16.408-7.858-28.05-23.757-28.05-15.898 0-23.757 11.642-23.757 28.05 0 16.371 5.457 30.16 23.757 30.16m0-73.889c28.01 0 43.22 18.663 43.22 43.73 0 24.12-14.01 45.84-43.22 45.84-30.633 0-43.22-19.937-43.22-45.84 0-25.07 15.207-43.73 43.22-43.73"/><path d="m278.26 280.29c0-8.08 3.929-11.424 12.224-11.424 4.04 0 7.64 1.564 9.75 5.13l34.09 55.881h.255v-51.588c0-6.33 3.565-9.423 9.35-9.423 5.857 0 9.386 3.092 9.386 9.423v67.996c0 7.713-3.311 12.12-11.496 12.12-6.185 0-8.222-1.31-10.696-5.239l-33.871-54.35h-.218v50.21c0 6.294-3.565 9.386-9.386 9.386s-9.386-3.092-9.386-9.386v-68.72"/><path d="m360.88 280.29c0-8.659 4.511-11.424 11.424-11.424h45.694c5.712 0 9.896 1.673 9.896 7.858s-4.184 7.858-9.896 7.858h-37.618v20.955h32.997c5.093 0 9.168 1.419 9.168 7.495 0 6.04-4.075 7.458-9.168 7.458h-32.997v22.19h38.564c5.712 0 9.859 1.673 9.859 7.858 0 6.148-4.147 7.822-9.859 7.822h-46.64c-6.912 0-11.424-2.729-11.424-11.424v-66.65z"/><path d="m439.79 274.79h.764c.473 0 .837-.073 1.055-.255.182-.146.291-.364.291-.618s-.109-.473-.291-.618c-.182-.182-.546-.255-1.019-.255h-.8v1.746m-1.746-2.983h3.129c.873 0 1.528.182 1.928.546.4.364.582.837.582 1.455 0 .473-.146.873-.437 1.237-.327.327-.8.582-1.455.728.255.109.473.218.582.327.182.182.364.4.582.728 0 0 .4.691 1.128 2.037h-2.074c-.655-1.346-1.091-2.147-1.346-2.401-.218-.255-.437-.4-.655-.4-.073 0-.146.036-.218.036v2.765h-1.746v-7.06m8.258 3.529c0-1.455-.509-2.692-1.564-3.747-1.019-1.019-2.256-1.564-3.711-1.564-1.492 0-2.729.546-3.784 1.564-1.019 1.055-1.528 2.292-1.528 3.747s.509 2.729 1.528 3.747c1.055 1.019 2.292 1.564 3.784 1.564 1.455 0 2.692-.546 3.711-1.564 1.055-1.019 1.564-2.292 1.564-3.747m1.273 0c0 1.164-.291 2.292-.873 3.311-.582.982-1.382 1.819-2.401 2.401-1.019.582-2.11.873-3.311.873-1.164 0-2.256-.291-3.274-.873s-1.819-1.419-2.401-2.401c-.582-1.019-.873-2.147-.873-3.311s.291-2.256.873-3.274 1.382-1.855 2.401-2.438c1.019-.582 2.11-.873 3.274-.873 1.201 0 2.292.291 3.311.873s1.819 1.419 2.401 2.438.873 2.11.873 3.274"/></g></svg>