<svg xmlns="http://www.w3.org/2000/svg" viewBox="0 0 600 442.26"><g transform="translate(-153.46-492.81)" fill="#2e538a"><path d="m427.13 718.42c0-27.538 20.509-49.87 45.82-49.87 25.296 0 45.82 22.331 45.82 49.87 0 27.538-20.524 49.87-45.82 49.87-25.311 0-45.82-22.331-45.82-49.87"/><path d="m153.46 492.81h468.77c-6.726 3.095-13.711 6.509-20.972 10.255l-65.17 33.613 41.539 98.48c-15.187-23.532-35.652-40.743-59.835-50.26-32.788-12.612-68.09-10.428-101.62 6.856s-57.752 45.791-70.07 81.67c-9.242 27.437-10.341 56.6-3.052 85.49l-111.87 57.68 24.544 58.2 35.1-18.09c3.515 13.784-3.298 26.584-18.961 34.654-25.687 13.248-49.52 1.07-64.28-33.917-14.608-34.64-7.087-63.827 15.794-75.62 13.784-7.116 26.584-5.699 40.57 3.963l59.34-66.44c-40.541-30.981-86.84-34.944-132.59-11.354-14.13 7.289-26.627 16.445-37.24 27.25v-242.44z"/><path d="m688.6 667.65l-40.469-95.96 3.442-1.779c32.586-16.792 55.31-9.951 69.05 22.606 14.16 33.613 3.399 56.03-32.02 75.14"/><path d="m377.81 825.92c13 14.42 28.551 25.22 46.17 32.15 32.788 12.627 68.25 10.79 101.78-6.494 33.21-17.12 57.911-46.31 69.76-81.52 9.08-27 10.5-55.11 3.977-83.06l41.08 97.37 59.21-30.532c20.292-10.457 38.27-20.336 53.688-31.458v212.7h-410.95c16.792-19 28.25-42.25 33.27-67.746 2.647-13.639 3.327-27.379 2.025-41.41"/></g></svg>