<svg xmlns="http://www.w3.org/2000/svg" viewBox="0 0 600 171.4"><defs><clipPath><path d="m230.82 82.08h27.28v8.679h-27.28v-8.679"/></clipPath></defs><g transform="matrix(1.19684 0 0 1.19684-59.839-580.01)"><path d="m73.846 627.82h477.47v-143.21h-477.47v143.21" fill="#2c2c2e"/><path d="m0 0c-1.559-1.315-4.685-3.26-10.226-2.383-.099-.044-.213-.07-.349-.07-.25 0-.46.087-.633.25-1.103.23-2.293.567-3.579 1.038v-2.039c8.163-2.679 12.918 1.182 14.883 3.16l-.096.044" fill="#99d324" transform="matrix(21.99825 0 0-21.99825 375.29 524.73)"/><g fill="#fff"><path d="m0 0v-1.307c0-.049-.001-.069-.049-.069h-.996c-.033 0-.053.025-.053.059v1.307c0 .054-.02.073-.063.073h-1.292c-.039 0-.059.024-.059.068v.991c0 .039.015.058.054.058h1.302c.038 0 .058.019.058.063v1.122c0 .03.02.049.048.049h.992c.039 0 .058-.014.058-.049v-1.122c0-.053.001-.063.053-.063h1.303c.039 0 .053-.019.053-.063v-.996c0-.034-.019-.058-.053-.058h-1.288c-.053 0-.068-.001-.068-.063" transform="matrix(21.99825 0 0-21.99825 492.42 560.38)"/><path d="m0 0c0-.315-.024-.581-.078-.794-.101-.426-.319-.76-.648-1-.315-.232-.692-.348-1.133-.348-.571 0-1.036.179-1.399.532-.358.354-.537.818-.537 1.394 0 .581.179 1.05.542 1.409.363.358.842.537 1.433.537.489 0 .881-.135 1.186-.412.111-.101.218-.237.319-.396.034-.058.078-.131.121-.213l-.895-.373c-.073.16-.15.281-.237.368-.14.14-.32.213-.533.213-.213 0-.397-.063-.557-.194-.145-.121-.251-.285-.319-.489-.048-.14-.073-.295-.073-.46 0-.333.093-.609.272-.822.184-.213.421-.32.706-.32.305 0 .514.112.635.329.043.078.077.18.101.31h-.774v.731h1.868" transform="matrix(21.99825 0 0-21.99825 182.9 548.56)"/><path d="m0 0v-.605h1.031v-.799h-1.031v-1.428h-.944v3.631h2.077v-.799h-1.133" transform="matrix(21.99825 0 0-21.99825 379.5 530.57)"/><path d="m0 0c-.199.198-.44.295-.721.295-.276 0-.518-.101-.722-.3-.198-.198-.3-.431-.3-.707 0-.285.097-.532.296-.731.198-.198.44-.3.726-.3.285 0 .522.102.721.3.198.199.3.441.3.722 0 .285-.102.523-.3.721m.702-2.115c-.387-.364-.862-.543-1.423-.543-.567 0-1.046.184-1.433.547-.383.368-.576.818-.576 1.356 0 .411.106.779.319 1.103.213.325.509.566.881.717.242.097.504.145.789.145.586 0 1.07-.184 1.453-.547.382-.363.575-.828.575-1.384 0-.567-.193-1.031-.585-1.394" transform="matrix(21.99825 0 0-21.99825 256.91 537.95)"/><path d="m0 0v3.631h.944v-2.832h1.133v-.799h-2.077" transform="matrix(21.99825 0 0-21.99825 300.42 592.86)"/></g></g></svg>