<svg xmlns="http://www.w3.org/2000/svg" enable-background="new 0 0 467 97" viewBox="0 0 600 599.99993"><defs><radialGradient id="0" gradientUnits="userSpaceOnUse" cx="172.96" cy="325.04" r="49.09" gradientTransform="matrix(-4.70379-9.87008 10.64722-5.07417-2226.8 3886.29)"><stop stop-color="#fc0"/><stop stop-color="#ec6800" offset=".812"/><stop stop-color="#ea4902" offset=".889"/><stop stop-color="#e73900" offset=".912"/><stop stop-color="#f00" offset="1"/></radialGradient></defs><path d="m600 300c0 165.6-134.4 300-300 300s-300-134.4-300-300 134.4-300 300-300c69.13 0 118.7 24.783 118.7 24.783s28.696 62.61 28.696 62.61-57.39 53.48-57.39 53.48 78.26-9.13 78.26-9.13 32.609 71.74 32.609 71.74 15.652-78.26 15.652-78.26 24.783-2.609 24.783-2.609 58.696 69.13 58.696 177.39z" fill="url(#0)"/><g fill="#fff" fill-rule="evenodd"><path d="m120 395.22h40.44v-75.65h53.48v-32.609h-53.48v-39.13h79.56v-33.913h-120v181.3z"/><path d="m56.09 370.43c0-5.217 3.913-7.826 9.13-7.826v-15.652c-10.435 0-22.17 6.522-22.17 23.478 0 16.957 11.739 24.783 23.478 24.783h26.09c11.739 0 23.478-6.522 23.478-24.783 0-11.739-7.826-15.652-7.826-15.652h6.522v-7.826h-36.522v23.478h11.739v-7.826h3.913c5.217 0 9.13 2.609 9.13 7.826s-3.913 9.13-9.13 9.13h-28.696c-5.217 0-9.13-3.913-9.13-9.13z"/><path d="m326.09 319.57c0-32.609-9.13-58.696-50.12-58.682-45.1-.012-52.922 26.07-52.922 58.682v18.261c0 32.609 7.826 58.696 52.922 58.52 40.991.174 50.12-25.913 50.12-58.52v-18.261m-35.22-2.609c0-20.13-2.882-29.92-15.861-29.912-14.279-.006-16.748 9.784-16.748 29.912v23.478c0 20.13 2.469 30.332 16.748 30.23 12.979.108 15.861-10.1 15.861-30.23v-23.478"/><path d="m434.87 319.57c0-32.609-9.13-58.696-50.12-58.682-45.1-.012-52.922 26.07-52.922 58.682v18.261c0 32.609 7.826 58.696 52.922 58.52 40.991.174 50.12-25.913 50.12-58.52v-18.261m-35.22-2.609c0-20.13-2.882-29.92-15.861-29.912-14.279-.006-16.748 9.784-16.748 29.912v23.478c0 20.13 2.469 30.332 16.748 30.23 12.979.108 15.861-10.1 15.861-30.23v-23.478"/><path d="m92.23 341.42c12.644 0 22.76-3.43 22.755-18.826.005-16.939-10.11-19.879-22.755-19.879h-7.081c-12.644 0-22.76 2.94-22.692 19.879-.067 15.397 10.05 18.826 22.692 18.826h7.081m1.012-13.228c7.805 0 11.602-1.083 11.599-5.958.003-5.363-3.794-6.291-11.599-6.291h-9.104c-7.805 0-11.762.927-11.72 6.291-.043 4.875 3.915 5.958 11.72 5.958h9.104"/><path d="m92.23 297.58c12.644 0 22.76-3.43 22.755-18.826.005-16.939-10.11-19.879-22.755-19.879h-7.081c-12.644 0-22.76 2.94-22.692 19.879-.067 15.397 10.05 18.826 22.692 18.826h7.081m1.012-13.228c7.805 0 11.602-1.083 11.599-5.958.003-5.363-3.794-6.291-11.599-6.291h-9.104c-7.805 0-11.762.927-11.72 6.291-.043 4.875 3.915 5.958 11.72 5.958h9.104"/><path d="m542.61 213.91h-33.913v69.13s-9.13-22.17-35.22-22.17c-31.3 0-33.704 26.09-33.704 58.696v18.261c0 32.609 3.704 58.696 33.704 58.696 27.391 0 36.522-23.478 36.522-23.478v22.17h32.609c.321-57.826.124-123.48 0-181.3zm-33.913 87.39c0-3.913-11.04-13.05-20.87-13.04-7.826 0-13.04 7.826-13.04 20.87v35.22c0 11.739 3.913 21.652 13.04 21.652 12.979.108 20.87-9.913 20.87-13.826v-50.87"/><path d="m44.829 213.91v13.02h26.57s-8.523 3.506-8.523 13.524c0 12.02 10.03 12.943 22.56 12.943h7.02c12.533 0 22.56-1.423 22.56-12.943 0-10.519-9.02-14.03-9.02-14.03h8.523v-12.522c-22.22-.124-47.46-.049-69.68 0m33.588 13.02c-1.504 0-5.02 4.24-5.01 8.01 0 3.01 3.01 5.01 8.02 5.01h13.536c4.512 0 8.322-1.503 8.322-5.01.043-4.984-3.81-8.01-5.314-8.01h-19.552"/></g></svg>