<svg xmlns="http://www.w3.org/2000/svg" height="433.2" enable-background="new 0 0 467 97" xmlns:xlink="http://www.w3.org/1999/xlink" viewBox="0 0 600 433.19572"><defs><linearGradient id="0" xlink:href="#2" gradientUnits="userSpaceOnUse" x2="676.76" x1="454.16"/><linearGradient id="1" xlink:href="#2" gradientUnits="userSpaceOnUse" x2="647.79" x1="408.59"/><radialGradient id="2" gradientUnits="userSpaceOnUse" cy="325.04" cx="172.96" gradientTransform="matrix(-4.70379-9.87008 10.64722-5.07417-2226.8 3886.29)" r="49.09"><stop stop-color="#fc0"/><stop stop-color="#ec6800" offset=".8"/><stop stop-color="#ea4902" offset="1"/><stop stop-color="#e73900" offset="1"/><stop stop-color="#f00" offset="1"/></radialGradient><radialGradient id="3" gradientUnits="userSpaceOnUse" cy="325.04" cx="172.96" gradientTransform="matrix(-3.3961-7.12613 7.68722-3.66351-1607.73 2805.87)" r="49.09"><stop stop-color="#fc0"/><stop stop-color="#ec6800" offset=".812"/><stop stop-color="#ea4902" offset=".889"/><stop stop-color="#e73900" offset=".912"/><stop stop-color="#f00" offset="1"/></radialGradient></defs><path fill="url(#3)" d="m433.2 216.6c0 119.56-97.04 216.6-216.6 216.6s-216.6-97.04-216.6-216.6 97.04-216.6 216.6-216.6c49.911 0 85.7 17.893 85.7 17.893s20.718 45.2 20.718 45.2-41.44 38.611-41.44 38.611 56.5-6.592 56.5-6.592 23.543 51.795 23.543 51.795 11.301-56.5 11.301-56.5 17.893-1.883 17.893-1.883 42.38 49.911 42.38 128.07z"/><g fill="#fff" fill-rule="evenodd"><path d="m86.64 285.35h29.19v-54.62h38.611v-23.543h-38.611v-28.25h57.44v-24.485h-86.64v130.9"/><path d="m40.494 267.45c0-3.767 2.825-5.65 6.592-5.65v-11.303c-7.534 0-16.01 4.709-16.01 16.951 0 12.243 8.476 17.893 16.951 17.893h18.836c8.475 0 16.951-4.709 16.951-17.893 0-8.476-5.65-11.301-5.65-11.301h4.709v-5.65h-26.37v16.951h8.475v-5.65h2.825c3.767 0 6.592 1.884 6.592 5.65s-2.825 6.592-6.592 6.592h-20.719c-3.767 0-6.592-2.825-6.592-6.592z"/><path d="m235.43 230.73c0-23.543-6.592-42.38-36.19-42.37-32.559-.009-38.21 18.825-38.21 42.37v13.184c0 23.543 5.65 42.38 38.21 42.25 29.595.126 36.19-18.709 36.19-42.25v-13.184m-25.426-1.883c0-14.532-2.081-21.602-11.452-21.596-10.309-.004-12.09 7.06-12.09 21.596v16.951c0 14.532 1.783 21.899 12.09 21.822 9.371.078 11.452-7.29 11.452-21.822v-16.956z"/><path d="m313.97 230.73c0-23.543-6.592-42.38-36.19-42.37-32.559-.009-38.21 18.825-38.21 42.37v13.184c0 23.543 5.65 42.38 38.21 42.25 29.595.126 36.19-18.709 36.19-42.25v-13.184m-25.426-1.883c0-14.532-2.081-21.602-11.452-21.596-10.309-.004-12.09 7.06-12.09 21.596v16.951c0 14.532 1.783 21.899 12.09 21.822 9.371.078 11.452-7.29 11.452-21.822v-16.956z"/><path d="m66.59 246.5c9.129 0 16.433-2.476 16.429-13.592 0-12.23-7.299-14.352-16.429-14.352h-5.112c-9.129 0-16.433 2.122-16.383 14.352-.049 11.12 7.255 13.592 16.383 13.592h5.112m.73-9.55c5.635 0 8.377-.782 8.374-4.301 0-3.872-2.739-4.542-8.374-4.542h-6.573c-5.635 0-8.492.67-8.462 4.542-.031 3.52 2.827 4.301 8.462 4.301h6.573"/><path d="m66.59 214.85c9.129 0 16.433-2.476 16.429-13.592 0-12.23-7.299-14.352-16.429-14.352h-5.112c-9.129 0-16.433 2.122-16.383 14.352-.049 11.12 7.255 13.592 16.383 13.592h5.112m.73-9.55c5.635 0 8.377-.782 8.374-4.301 0-3.872-2.739-4.542-8.374-4.542h-6.573c-5.635 0-8.492.67-8.462 4.542-.031 3.52 2.827 4.301 8.462 4.301h6.573"/><path d="m391.76 154.44h-24.485v49.911s-6.592-16.01-25.426-16.01c-22.601 0-24.334 18.835-24.334 42.38v13.184c0 23.543 2.675 42.38 24.334 42.38 19.776 0 26.369-16.951 26.369-16.951v16.01h23.543c.232-41.75.089-89.15 0-130.9m-24.486 63.1c0-2.825-7.972-9.422-15.07-9.417-5.65 0-9.417 5.65-9.417 15.07v25.426c0 8.476 2.825 15.633 9.417 15.633 9.371.078 15.07-7.157 15.07-9.982v-36.728"/><path d="m32.366 154.44v9.403h19.18s-6.153 2.531-6.153 9.764c0 8.679 7.239 9.345 16.288 9.345h5.067c9.05 0 16.288-1.027 16.288-9.345 0-7.595-6.515-10.126-6.515-10.126h6.153v-9.04c-16.05-.089-34.27-.035-50.31 0m24.25 9.403c-1.086 0-3.621 3.061-3.62 5.786 0 2.17 2.172 3.616 5.791 3.616h9.773c3.257 0 6.01-1.085 6.01-3.616.031-3.598-2.751-5.786-3.837-5.786h-14.12z"/></g><path fill="url(#1)" d="m459.01 213.55h27.711v-23.751h27.699v23.751h27.711v25.731h-27.711v25.719h-27.699v-25.719h-27.713v-25.728z"/><path d="m550.13 183.37h17.213v102.91h32.656v-133.59h-49.868z" fill="url(#0)"/></svg>