<svg xmlns="http://www.w3.org/2000/svg" viewBox="0 0 600 276.71"><g transform="matrix(.99996 0 0 .99996.007 0)"><g fill="#f68624"><path d="m50.27 62.29c0 3.196-4.959 4.342-8.265 4.342-4.937 0-9.962-.507-9.962-4.342v-24.662c0-7.03 2.513-8.287 9.587-8.287 5.73 0 8.639 1.278 8.639 8.287v24.662m-31.627 45.16h49.32c5.245 0 8.287.595 8.287 3.615 0 21.665-33.28 22.282-37.07 22.282-9.257 0-17.213-3.438-20.739-8.992-1.389-2.204-2.094-4.739-2.094-7.537 0-2.865.793-6.04 2.292-9.367m72.819-77.66c0-4.761-3.813-10.05-9.301-10.05-6.722 0-10.116 4.584-13.4 9.01 0 0-.485.639-.926 1.256-7.648-5.135-16.992-8.02-26.579-8.02-23.428 0-36.39 15.538-36.39 26.293 0 7.538 3.703 13.731 10.932 18.491-7.427 2.446-15.802 7.405-15.802 20.01 0 7.207 3.989 13.863 10.689 18.205-8.684 4.65-10.689 10.557-10.689 14.855 0 15.934 28.06 20.871 38.26 20.871 23.869 0 47.958-11.416 47.958-36.938 0-14.656-6.48-22.745-18.249-22.745h-49.32c-2.424 0-8.09 0-8.09-2.49 0-1.521 1.19-2.777 2.204-3.57 2.733-2.138 6.964-3.174 8.948-2.667 3.174.793 10.513 1.344 17.852 1.344 18.954 0 39.19-6.722 39.19-25.544 0-3.989-1.697-8.551-4.43-12.364 2.667 2.777 5.532 4.254 8.595 4.254 3.901 0 8.551-1.763 8.551-10.204"/><path d="m179.15 2.585l-25.786.749h-14.15v7.736h12.893v42.29c0 5.378-7.56 19.11-17.06 19.11-1.962 0-3.372-.463-4.298-1.388-2.028-2.05-1.984-6.568-1.94-12.298l.022-2.821v-53.42l-27.04.793h-14.15v7.736h12.893v43.09c0 10.601.132 18.293 5.03 23.18 3.615 3.615 9.609 5.289 18.844 5.289 12.717 0 22.546-4.893 27.703-13.576v12.651h1.256c4.364 0 8.772-.485 13.03-.948 4.188-.463 8.529-.926 12.761-.926h13.775v-7.736h-12.518v-69.56l-1.256.044"/><path d="m227.94 6.429l-5.356.815c-3.064.507-6.259 1.036-9.256 1.036h-12.276v22.24h-11.394v7.758h11.394v51.991c0 9.279 0 18.07 18.623 18.07 16.64 0 26.2-7.05 29.25-21.555l.264-1.234-7.89-1.631-.242 1.256c-1.212 6.502-2.468 10.755-8.485 10.755-1.036 0-1.763-.242-2.27-.749-.86-.904-1.014-2.667-1.014-4.43 0-.529 0-1.08.022-1.587l.022-1.521v-49.37h14.215v-7.758h-14.215v-24.309l-1.388.22"/><path d="m284.98 22.93c0-6.06 5.51-7.339 10.138-7.339 5.4 0 11.835 1.146 11.835 6.59v17.06h-21.973v-16.309m43.682 36.12l-.353 1.256c-3.989 13.532-14.458 20.981-29.445 20.981-9.874 0-13.885-3.438-13.885-11.835v-22.855h39.671l1.322.044c2.49.088 5.598.22 7.427-1.543.837-.815 1.278-1.94 1.278-3.306 0-21-19.06-33.566-37.489-33.566-21.819 0-44.982 14.259-44.982 40.663 0 27.461 22.767 39.759 45.34 39.759 19.439 0 32.751-9.301 37.467-26.14l.309-1.146-6.656-2.314"/></g><g fill="#dd048c"><path d="m140.56 96.02l-9.433.815c-5.356.507-10.865 1.058-16.265 1.058h-14.348v7.736h13.09v112.78h-11.218v7.736h51.66v-7.736h-12.144v-122.49l-1.344.11"/><path d="m203.06 181.21c0 4.827-4.209 9.962-12.01 9.962-7.273 0-9.984-8.507-9.984-13.885 0-11.659 11.196-13.554 21.995-14.215v18.14m33.764 5.841l-.573 1.014c-.573.992-2.887 2.182-3.923 2.182-3.835 0-4.54-2.601-4.54-7.736v-45.4c0-6.347-11.04-13.202-35.26-13.202-12.607 0-32.618 5.62-32.618 20.673 0 7.01 5.378 12.1 12.827 12.1 8.155 0 12.827-5.091 12.827-13.951 0-1.719-.97-3.482-2.01-5.135-.771-1.256-1.741-2.777-1.741-3.46 0-2.38 6.722-3.614 9.04-3.614 5.157 0 8.375.793 10.116 2.535 1.94 1.962 2.094 5.069 2.094 9.323v2.777 11.681c-22.17.683-47.649 8.485-47.649 28.497 0 11.835 11.725 18.249 22.745 18.249 9.301 0 18.866-4.562 25.852-12.188 2.557 6.193 9.19 12.188 16.926 12.188 9.411 0 15.05-3.108 20.17-11.06l.375-.573-4.65-4.893"/><path d="m327.29 113.95l-25.786.749h-14.15v7.736h12.893v42.29c0 5.378-7.56 19.11-17.06 19.11-1.962 0-3.372-.463-4.298-1.388-2.028-2.05-1.984-6.568-1.94-12.298l.022-2.821v-53.42l-27.04.793h-14.15v7.736h12.893v43.09c0 10.579.132 18.271 5.03 23.19 3.614 3.614 9.609 5.289 18.844 5.289 12.717 0 22.546-4.893 27.703-13.576v12.651h1.256c4.364 0 8.772-.485 13.02-.948 4.188-.463 8.529-.926 12.761-.926h13.775v-7.736h-12.518v-69.56l-1.256.044"/><path d="m382 145.24v-14.237l-26.293.771h-13.224v7.736h11.967v61.03h-11.967v7.736h49.41v-7.736h-9.896v-35.37c0-10.16 6.634-24.331 17.433-24.331 3.703 0 6.788.992 6.788 13.312v46.39h-10.09v7.736h49.21v-7.736h-11.593v-50.691c0-12.915-7.317-19.2-22.37-19.2-13.312 0-22.304 4.452-29.378 14.59"/><path d="m477.59 134.2c0-6.391 5.73-7.714 10.535-7.714 5.554 0 12.21 1.19 12.21 6.964v17.433h-22.745v-16.684m44.32 36.629l-.242.882c-3.989 13.488-14.855 21.22-29.819 21.22-9.984 0-14.259-3.659-14.259-12.21v-23.23h40.05l1.344.044c2.424.088 5.444.198 7.141-1.433.771-.749 1.168-1.763 1.168-3.041 0-20.783-18.866-33.19-37.11-33.19-21.621 0-44.586 14.13-44.586 40.29 0 27.2 22.568 39.38 44.96 39.38 19.24 0 32.42-9.19 37.09-25.874l.22-.793-5.951-2.05"/></g><g fill="#fddd04"><path d="m440.67 203.13c2.689-3.196 7.449-3.614 10.645-.926 3.218 2.689 3.637 7.449.948 10.645-2.689 3.218-7.471 3.637-10.667.948-3.196-2.689-3.614-7.471-.926-10.667"/><path d="m429.23 218.9c2.226-2.667 6.193-2.997 8.86-.771 2.645 2.226 2.997 6.193.771 8.86-2.226 2.645-6.193 2.997-8.86.771-2.667-2.226-2.997-6.193-.771-8.86"/><path d="m419.69 232.42c1.785-2.116 4.937-2.402 7.05-.617s2.402 4.937.617 7.05-4.937 2.402-7.05.617-2.402-4.937-.617-7.05"/><path d="m411.36 244.48c1.322-1.565 3.681-1.785 5.245-.463 1.587 1.322 1.785 3.681.463 5.245-1.322 1.587-3.681 1.785-5.245.463-1.587-1.322-1.785-3.659-.463-5.245"/><path d="m457.78 216.13c1.433-3.923 5.774-5.951 9.697-4.518 3.923 1.411 5.951 5.774 4.518 9.697-1.433 3.923-5.774 5.951-9.697 4.518-3.923-1.433-5.951-5.774-4.518-9.697"/><path d="m452.43 234.86c1.19-3.262 4.805-4.937 8.07-3.769 3.262 1.19 4.937 4.805 3.747 8.07s-4.783 4.937-8.04 3.769c-3.284-1.19-4.959-4.805-3.769-8.07"/><path d="m448.08 250.82c.948-2.601 3.813-3.945 6.413-2.975 2.601.926 3.945 3.813 2.997 6.391-.948 2.601-3.813 3.945-6.413 2.997-2.601-.948-3.945-3.813-2.997-6.413"/><path d="m444.39 265.01c.705-1.94 2.843-2.931 4.783-2.226 1.917.705 2.931 2.843 2.226 4.783-.705 1.917-2.843 2.931-4.783 2.226-1.94-.705-2.931-2.843-2.226-4.783"/><path d="m478.31 222.49c0-4.188 3.394-7.56 7.56-7.56 4.188 0 7.582 3.372 7.582 7.56s-3.394 7.56-7.582 7.56c-4.165 0-7.56-3.372-7.56-7.56"/><path d="m479.68 241.92c0-3.482 2.821-6.281 6.281-6.281 3.482 0 6.281 2.799 6.281 6.281 0 3.46-2.799 6.281-6.281 6.281-3.46 0-6.281-2.821-6.281-6.281"/><path d="m481.06 258.41c0-2.755 2.248-5 5-5 2.777 0 5 2.248 5 5s-2.226 5-5 5c-2.755 0-5-2.248-5-5"/><path d="m482.44 273c0-2.05 1.675-3.725 3.725-3.725 2.072 0 3.725 1.675 3.725 3.725 0 2.05-1.653 3.725-3.725 3.725-2.05 0-3.725-1.675-3.725-3.725"/><path d="m499.77 221.44c-1.433-3.923.595-8.265 4.518-9.697 3.923-1.433 8.265.595 9.697 4.518 1.433 3.923-.595 8.287-4.518 9.697-3.923 1.433-8.265-.595-9.697-4.518"/><path d="m507.71 239.23c-1.19-3.262.485-6.876 3.769-8.07 3.24-1.168 6.854.507 8.04 3.769 1.19 3.262-.485 6.876-3.747 8.07-3.262 1.168-6.876-.507-8.07-3.769"/><path d="m514.64 254.26c-.948-2.601.397-5.466 2.997-6.413 2.601-.948 5.466.397 6.413 2.997.948 2.579-.397 5.466-2.997 6.414-2.601.948-5.466-.397-6.413-2.997"/><path d="m520.93 267.49c-.705-1.94.287-4.077 2.226-4.783 1.939-.705 4.077.309 4.783 2.226.705 1.94-.309 4.077-2.226 4.783-1.939.705-4.077-.287-4.783-2.226"/><path d="m519.58 213.12c-2.689-3.196-2.27-7.978.926-10.667 3.218-2.667 7.978-2.27 10.667.948 2.689 3.196 2.27 7.956-.926 10.645-3.218 2.689-7.978 2.27-10.667-.926"/><path d="m533.12 227.12c-2.226-2.667-1.873-6.634.771-8.86 2.667-2.226 6.634-1.873 8.86.771 2.226 2.667 1.895 6.634-.771 8.86s-6.634 1.895-8.86-.771"/><path d="m544.78 238.87c-1.785-2.116-1.499-5.267.617-7.05s5.267-1.499 7.05.617 1.499 5.267-.617 7.05c-2.116 1.763-5.267 1.499-7.05-.617"/><path d="m555.21 249.16c-1.322-1.565-1.124-3.923.463-5.245 1.565-1.322 3.923-1.124 5.245.463 1.322 1.565 1.124 3.923-.463 5.245-1.565 1.322-3.923 1.124-5.245-.463"/><path d="m535.35 198.53c-3.615-2.094-4.871-6.722-2.777-10.336 2.094-3.614 6.722-4.849 10.336-2.777 3.614 2.094 4.871 6.722 2.777 10.336-2.094 3.614-6.722 4.871-10.336 2.777"/><path d="m552.87 207.05c-2.997-1.741-4.03-5.576-2.292-8.595 1.719-2.997 5.576-4.03 8.573-2.292 3.02 1.741 4.03 5.576 2.314 8.595-1.741 2.997-5.598 4.03-8.595 2.292"/><path d="m567.83 214.1c-2.402-1.388-3.218-4.452-1.829-6.832 1.389-2.402 4.452-3.218 6.832-1.829 2.402 1.366 3.218 4.43 1.829 6.832-1.366 2.38-4.43 3.218-6.832 1.829"/><path d="m581.16 220.2c-1.785-1.036-2.402-3.306-1.366-5.091 1.036-1.785 3.306-2.402 5.091-1.366 1.785 1.036 2.402 3.306 1.366 5.091-1.036 1.785-3.306 2.402-5.091 1.366"/><path d="m545.18 179.42c-4.121-.727-6.876-4.65-6.149-8.772s4.65-6.854 8.772-6.127c4.121.727 6.854 4.65 6.149 8.772-.727 4.099-4.65 6.854-8.772 6.127"/><path d="m564.55 181.43c-3.416-.595-5.708-3.857-5.091-7.295.595-3.416 3.857-5.686 7.273-5.091 3.416.595 5.708 3.857 5.091 7.295-.595 3.416-3.857 5.686-7.273 5.091"/><path d="m581.03 182.94c-2.733-.485-4.54-3.085-4.055-5.796.463-2.733 3.063-4.54 5.796-4.055 2.711.463 4.54 3.064 4.055 5.796-.485 2.711-3.063 4.54-5.796 4.055"/><path d="m595.64 184.11c-2.028-.353-3.394-2.292-3.02-4.32.353-2.028 2.292-3.372 4.32-3.02 2.028.353 3.372 2.292 3.02 4.32-.375 2.028-2.292 3.372-4.32 3.02"/><path d="m547.87 158.1c-4.121.727-8.04-2.028-8.772-6.127-.705-4.121 2.028-8.04 6.149-8.772s8.04 2.028 8.772 6.127c.705 4.121-2.028 8.04-6.149 8.772"/><path d="m566.77 153.37c-3.416.595-6.678-1.675-7.273-5.091-.617-3.438 1.675-6.678 5.091-7.295 3.416-.595 6.678 1.675 7.273 5.113.617 3.416-1.675 6.656-5.091 7.273"/><path d="m582.77 149.15c-2.733.485-5.312-1.344-5.796-4.055-.485-2.733 1.344-5.333 4.055-5.796 2.733-.485 5.333 1.322 5.796 4.055.485 2.711-1.322 5.311-4.055 5.796"/><path d="m596.9 145.25c-2.028.353-3.967-.992-4.32-3.02-.353-2.028.992-3.967 3.02-4.32 2.028-.353 3.967.992 4.32 3.02.353 2.028-.992 3.967-3.02 4.32"/><path d="m543.12 137.14c-3.615 2.094-8.243.86-10.336-2.777-2.094-3.614-.86-8.243 2.777-10.314 3.615-2.094 8.243-.86 10.336 2.755 2.072 3.615.837 8.243-2.777 10.336"/><path d="m559.26 126.23c-2.997 1.741-6.854.705-8.595-2.292-1.719-3.02-.705-6.854 2.314-8.595 2.997-1.741 6.854-.705 8.573 2.292 1.741 3.02.705 6.854-2.292 8.595"/><path d="m572.85 116.8c-2.402 1.388-5.466.551-6.832-1.829-1.389-2.402-.573-5.466 1.829-6.854 2.38-1.366 5.444-.551 6.832 1.851 1.389 2.38.573 5.444-1.829 6.832"/><path d="m584.8 108.3c-1.785 1.036-4.055.419-5.091-1.366-1.036-1.785-.419-4.055 1.366-5.091 1.785-1.036 4.055-.419 5.091 1.366 1.036 1.785.419 4.055-1.366 5.091"/><path d="m531.48 119.08c-2.689 3.196-7.449 3.615-10.645.926-3.218-2.689-3.636-7.449-.948-10.645 2.689-3.218 7.449-3.636 10.667-.948 3.196 2.689 3.614 7.471.926 10.667"/><path d="m542.92 103.31c-2.226 2.667-6.193 2.997-8.86.771-2.645-2.226-2.997-6.193-.771-8.86 2.226-2.645 6.193-2.997 8.86-.771 2.667 2.226 2.997 6.193.771 8.86"/><path d="m552.46 89.79c-1.785 2.116-4.937 2.402-7.05.617s-2.402-4.937-.617-7.05 4.937-2.402 7.05-.617 2.402 4.937.617 7.05"/><path d="m560.79 77.73c-1.322 1.587-3.681 1.785-5.245.463-1.587-1.322-1.785-3.681-.463-5.245 1.322-1.587 3.681-1.785 5.245-.463s1.785 3.659.463 5.245"/><path d="m514.37 106.08c-1.433 3.923-5.774 5.951-9.697 4.518-3.923-1.433-5.951-5.774-4.518-9.697 1.433-3.923 5.774-5.951 9.697-4.518 3.923 1.433 5.951 5.774 4.518 9.697"/><path d="m519.72 87.35c-1.19 3.262-4.805 4.937-8.07 3.747-3.24-1.19-4.937-4.782-3.747-8.04 1.19-3.262 4.805-4.937 8.07-3.769 3.262 1.19 4.937 4.805 3.747 8.07"/><path d="m524.06 71.39c-.948 2.601-3.813 3.945-6.413 2.997-2.601-.948-3.945-3.835-2.997-6.413.948-2.601 3.813-3.945 6.413-2.997 2.601.948 3.945 3.813 2.997 6.413"/><path d="m527.76 57.2c-.705 1.94-2.843 2.931-4.783 2.226-1.939-.705-2.931-2.843-2.226-4.782.705-1.917 2.843-2.931 4.783-2.226 1.939.705 2.931 2.843 2.226 4.782"/></g><g fill="#d7d7d7"><path d="m397.57 0v33.1h19.284v4.099h-19.284v57.831c0 3.747-.353 8.706 4.783 8.706 8.706 0 12.1-13.995 12.959-20.651h3.747c-1.697 23.891-18.579 30.877-37.533 30.877l-23.03-.154v-61.953h-10.07v-25.588h10.07v-26.27h39.08"/><path d="m475.89 26.27v4.099h-10.932l23.384 51.02 15.868-36.19c4.276-9.719-.683-14.833-4.937-14.833h-3.945v-4.099h26.293l-45.732 87.52h-19.791l-45.886-87.52h65.68"/></g></g></svg>