<svg xmlns="http://www.w3.org/2000/svg" viewBox="0 0 496.93 255.39"><g transform="translate(-27.25-294.1)"><path d="m329.33 421.91c0 70.46-57.12 127.58-127.58 127.58-70.46 0-127.58-57.12-127.58-127.58 0-70.46 57.12-127.58 127.58-127.58 70.46 0 127.58 57.12 127.58 127.58" fill="#fff"/><g fill="#f90"><path d="m193.1 383.34c-4.172 0-4.727 4.058-4.727 7.117 0 3.059.555 7.174 4.728 7.174 4.17 0 4.726-4.116 4.725-7.174 0-3.058-.556-7.117-4.726-7.117"/><path d="m108.8 396.46c0 1.334 1.446 2.669 3.448 2.669 2.503 0 4.448-1.503 4.614-4.505v-2.669c-1.335.668-2.835 1.056-4.336 1.39-2.447.554-3.726 1.166-3.726 3.116"/><path d="m145.2 383.34c-3.948 0-4.837 3.723-4.837 7.117 0 3.445.89 7.174 4.837 7.174 3.949 0 4.839-3.729 4.839-7.174 0-3.393-.89-7.117-4.839-7.117"/><path d="m201.94 294.1c-54.16 0-100.44 33.74-118.97 81.35h3.069v4.615h.113c1.779-3.447 4.114-5.338 8.118-5.338 1.11 0 2.168.167 3.225.446v9.73c-1.114-.392-2.114-.724-4.339-.724-4.336 0-6.672 2.557-6.672 8.729v11.4h-10.981c-.777 5.696-1.188 11.509-1.188 17.418 0 70.49 57.14 127.62 127.62 127.62 70.49 0 127.62-57.13 127.62-127.62 0-70.49-57.14-127.63-127.62-127.63m-84.4 110.82c-.277-.779-.444-1.948-.388-2.724-2.447 2.668-5.838 3.447-9.397 3.447-5.561 0-10.176-2.671-10.176-8.731 0-9.118 10.675-8.785 16.292-9.842 1.502-.276 3-.722 3-2.557 0-1.946-1.835-2.668-3.614-2.668-3.393 0-4.058 1.723-4.114 2.945h-10.23c.333-8.119 8.01-9.452 14.845-9.452 13.79 0 13.679 5.726 13.679 11.288l.002 11.844c0 2.169.112 4.615 1.334 6.451h-11.233m32.506 0v-3.169c-1.502 1.832-3.17 3.891-8.564 3.891-8.173 0-12.12-8.06-12.12-15.292 0-6.783 2.614-15.01 12.287-15.01 3.281 0 6.226 1.445 7.896 3.892l.111-14.01h11.01l.002 39.702h-10.621m25.06-39.702v7.73l-11.01-.002v-7.729h11.01m-11.01 39.702v-28.858h11.01l.002 28.858h-11.01m29.01.724c-10.843 0-15.736-7.172-15.737-15.181 0-8.01 4.893-15.12 15.736-15.12 10.842 0 15.736 7.119 15.736 15.12 0 8.01-4.892 15.181-15.735 15.181"/></g><path d="m385.03 402.42h-21.13l-5.245 17.781c-.361 1.226-.689 2.382-1.01 3.532-.174-.564-1.397-4.516-1.397-4.516l.045.139-5.269-16.937h-21.77l2.865 7.441c-.233-.402-.478-.806-.752-1.201-3.416-4.89-8.974-7.578-15.654-7.578-4.03 0-7.01.979-9.299 2.267.007-.367.017-.929.017-.929h-19.675v19.673c-1.219-6.03-4.238-11.45-8.584-15.14-6.97-5.759-14.817-6.03-17.773-6.129l-.226-.006c-11.236 0-17.771 5.174-20.666 8.257l-.091.099c-1.932 2.228-4.848 6.435-6.168 12.595-.005-5.931-.408-9.823-2.927-13.46-3.178-4.756-8.558-7.399-15.12-7.399-5.431 0-10.1 1.87-13.975 5.375-3.053-3.534-7.325-5.375-12.774-5.375-1.585 0-5.25.036-9.129 2.226.003-.237.012-.714.012-.714h-18.549v-1.425h-3.365c-3.354 0-8.189.058-12.274 2.572 0-.516 0-1.147 0-1.147h-19.524v50.984l-2.912-4.528c-.434-.671-.479-.742-.58-1.185l-.036-.162-.054-.16c-.088-.264-.185-.933-.185-1.775l-.008-.242-.079-3.4v-21.238c0-2.571-.089-4.775-1.189-7.748-1.761-4.564-6.924-12.15-21.903-12.15-6.951 0-12.297 1.396-16.344 4.264-2.758 1.897-4.763 4.571-6.095 8.149-.881 2.436-1.259 4.232-1.363 6.436l-.002.063c-.183-3.684-.85-7.534-3.262-11.12-1.262-1.855-6.089-7.879-15.585-7.879-3.642 0-6.563.899-8.816 2 0-6.254 0-17.821 0-17.821h-19.965v69.47h19.965v-30.14c-.002-1.592-.006-3.099.621-3.972.237-.319 1.328-1.532 3.748-1.532 1.034 0 1.883.081 2.599 1.08.862 1.168.919 1.844.892 5.555l-.007 1.736v27.27h19.878v-7.03c.622 1.022 1.349 1.979 2.207 2.843 3.639 3.674 9.169 5.696 15.574 5.696 4.259 0 7.742-.913 10.869-2.703.175.674.349 1.355.349 1.355l2.563-.161h39.18v-15.1l-.007-2.491c-.031-9.275.078-13.12 3.127-15.3 1.378-.99 3.126-1.51 5.064-1.51l2.094.144 3.713.349v33.904h19.702v-26.387c0-.004.028-2 .028-2 .032-2.933.061-3.831.573-4.989.657-1.432 2.504-1.549 3.054-1.549 1.238 0 1.827.284 2.067.45.113.079.693.489.944 1.29.399 1.314.471 3.218.471 6.718v26.471h19.786v-25.58c0-.063-.013-.702-.013-.702-.021-1.057-.036-1.94-.036-2.694 0-1.941.102-3.01.486-3.887l.034-.085.033-.084c.455-1.228 1.442-1.801 3.354-1.978 1.586.027 2.471.61 2.916 1.955.324.974.368 2.099.368 4.499 0 .291-.004 2.263-.004 2.263v26.292h19.793v-19.34c1.87 8.881 7.533 15.897 15.7 19.02 3.371 1.218 6.986 1.825 10.8 1.825 3.761 0 7.081-.516 9.867-1.534 8.933-2.958 15.268-10.594 17.16-20.19v20.22h19.788c0 0 0-26.644 0-26.647 0-.005.018-1.113.018-1.113.04-3.487.186-5.693 1.886-6.928.967-.72 2.266-.773 2.645-.773 1.628 0 2.146.517 2.424.793 1.043 1 1.498 2.418 1.405 7.868v26.8h19.88l.002-30.11c.007-2.952.007-6.138-.71-9.281l9.987 25.945c1.375 3.439 2.668 6.84 3.061 8.04.015.142.087.793.087.793 0 .849-.316 1.539-.426 1.714-.351.548-1.281.611-2.057.607l-.31.007-3.01.016-5.137-.063.013 3.376-.116 13.521h10.05c5.364 0 8.06-.169 11.332-1.753 3.273-1.624 5.242-3.921 7.294-8.492 1.304-2.926 2.356-5.861 3.128-8.094-.007.021 15.451-43.702 15.451-43.702l1.586-4.485m-310.09 26.83v-5.334c0-.249 0-.503 0-.757 1.054.009 5.488.042 6.758.051-.746.392-1.513.752-2.2 1.237-1.541 1.07-3.231 2.623-4.558 4.802m18.657-9.588c.187-.776.699-1.467 2.409-1.883 1.064-.185 1.85-.193 2.225-.193 1.315 0 2.807.274 3.329.613.067.046.107.094.153.145-.113.027-.218.056-.402.084l-.24.04c.005 0-2.68.399-2.68.399l-.263.033-3.2.53c-.441.068-.888.159-1.331.232m21.975 29.521c.027.114.06.198.089.304 0 .005 0 .012.003.019l-.092-.323m86.08-42.481c-.019-.023-.042-.037-.059-.058-.031-.037-.046-.068-.081-.103l.14.161m156.09 17.356c0 0-.032-.103-.033-.107v-.035l-.005-.013.049.155m-94.49 13.738c-1.352.622-2.785.697-3.346.697-4.834 0-7.39-3.507-7.39-10.143 0-6.758 2.505-10.228 7.45-10.318 3.336-.04 5.504 1.516 6.63 4.76.318.924.7 2.581.7 5.202 0 4.917-1.44 8.39-4.04 9.802m-62.759-18.79c.013-.033.034-.068.044-.101.0001-.023.015-.044.024-.067l-.068.168m-85.36 26.829c0 0-.002-.142-.002-.154 0-.026-.006-.063-.006-.089l.008.243m-14.761-18.401l-.544.114c-.084.019-2.169.492-2.169.492l-3.719.892c-1.421.381-3.545 1.032-5.178 2.159l-.071.049-.069.054c-2.048 1.576-3.177 3.814-3.177 6.307 0 2.161.913 3.601 1.305 4.215l.147.233.133.187c1.761 2.284 4.481 3.442 8.09 3.442 5.059 0 8.978-1.635 11.652-4.86.038-.045 1.671-2.545 1.671-2.545l.528-.963v-13.11l-4.758 2.167c-1.443.658-2.196.818-3.838 1.169m1.868 7.972c-.288.445-.686 1.064-.686 1.064-1.975 2.381-5.331 2.381-6.436 2.381-1.966 0-2.502-.517-2.699-.757-.204-.319-.246-.405-.246-.593 0-.276.08-.581.516-.937.431-.274 1.281-.675 3.03-1.145.037-.0001 3.377-.807 3.377-.807l2.231-.506c-.084.019.443-.093.443-.093.167-.036.312-.069.469-.105v1.497m404.01-34.879c-5.433 0-11.1 2.209-15.246 5.69-2.598-3.615-6.971-5.69-12.574-5.69-4.259 0-8.185.959-11.621 2.739.144-.659.318-1.441.318-1.441h-18.842c0 0-.258 0-.685 0h-8.549c.594-2.093 1.132-2.175 3.518-2.175l2.664.162 4.304.35.585-2.884 2.789-12.924-3.498-.567c-3.255-.529-6.251-.786-9.164-.786-15.02 0-18.683 7.36-21.337 18.824-2.334 0-7.909 0-7.909 0l-3.277 15.535c0 0 5.977 0 7.792 0-1.376 6.521-8.255 39.13-8.255 39.13h20.05c0 0 7.276-34.492 8.255-39.13h8.79l-8.172 39.13h20.04l5.937-28.36c.864-3.867 3.752-10.49 9.05-10.49 1.147 0 2.381.545 2.381 1.738l-.225 2.154c0 0-.07.521-.095.71-.049.233-7.127 34.25-7.127 34.25h20.13l5.934-28.361c.861-3.866 3.75-10.489 9.05-10.489 1.4 0 2.376.714 2.376 1.738l-.229 2.177c0 0-.069.503-.094.685-.046.229-7.118 34.25-7.118 34.25h20.03l6.498-30.853c.011-.056.41-1.991.41-1.991.519-2.44 1.053-4.965 1.053-7.607 0-9.133-7.368-15.509-17.92-15.509m-117.81 39.38c-4.71 0-8.543 3.834-8.543 8.547 0 4.706 3.832 8.534 8.543 8.534 4.706 0 8.535-3.828 8.535-8.534 0-4.713-3.829-8.547-8.535-8.547" fill="#fff"/><path d="m361.89 421.16c-1.512 5.149-2.934 10.397-4.089 15.729-.624-2.571-1.333-5.152-2.042-7.733-.446-1.417-.804-2.847-1.243-4.175-.451-1.595-.886-3.112-1.427-4.62l-4.534-14.571h-14.394l13.07 33.944c1.421 3.557 2.839 7.282 3.198 8.447.174.797.174 1.334.174 1.595 0 1.691-.624 3.02-.975 3.555-1.422 2.225-4.177 2.13-4.979 2.13-1.597.095-3.286 0-4.974 0l-.089 10.128h6.663c5.157 0 7.289-.168 9.865-1.416 2.135-1.059 3.737-2.487 5.694-6.842 1.149-2.583 2.128-5.246 3.02-7.815l15.457-43.725h-13.856l-4.533 15.37m-46.17-16.71c-7.638 0-10.665 4.093-12.798 6.313l.092-4.973h-12.888v45.23h13.06v-23.284c.088-3.644-.266-8.18 3.29-10.76 1.778-1.329 3.907-1.418 4.622-1.418 2.666 0 4 .982 4.8 1.779 2.124 2.042 2.486 4.801 2.393 10.304v23.379h13.154v-25.954c0-4.977.179-10.131-2.839-14.487-4.098-5.864-10.756-6.133-12.889-6.133m-39.718 5.072c-6.136-5.072-13.156-5.243-15.821-5.334-9.771 0-15.463 4.262-18.215 7.192-2.314 2.671-6.04 8.271-6.04 17.07 0 9.771 4.706 18.838 14.217 22.479 4.177 1.508 7.907 1.602 9.597 1.602 4.262 0 7.02-.711 8.713-1.33 9.948-3.295 15.548-12.888 15.548-23.11 0-6.846-2.665-14.05-7.997-18.574m-11.199 31.28c-2.041.977-4.088 1.061-4.887 1.061-5.066 0-10.754-3.107-10.754-13.506 0-10.665 5.777-13.593 10.754-13.682 6.756-.09 9.06 4.706 9.868 7.02.886 2.573.886 5.506.886 6.305 0 7.472-2.843 11.197-5.866 12.801m-49.593-36.523c-7.02 0-10.932 3.466-12.798 5.42-.266.354-.799 1.064-1.508 2.043-.626-1.159-.98-1.955-1.87-2.933-3.553-4.443-8.794-4.529-10.573-4.529-1.958 0-6.129.086-9.954 3.552-1.687 1.597-2.224 2.751-2.666 3.727l.089-5.768h-12.886v45.23h12.976v-23.02c.086-4.442-.091-6.132.887-8.351 1.504-3.285 5.067-3.554 6.131-3.554.533 0 2.487 0 3.999 1.061.535.361 1.687 1.339 2.221 3.03.537 1.779.626 3.91.626 7.731v23.11h13.06v-22.21c-.083-4.448-.173-6.583.713-8.623 1.419-3.82 5.246-4.089 6.398-4.183 4.179 0 5.686 2.665 6.219 4.271.622 1.868.535 3.732.535 7.822v22.927h13.06v-26.395c.088-7.649-.09-11.197-2.308-14.4-2.851-4.259-7.559-5.95-12.355-5.95m-72.35 6.751c-.802 1.778-1.158 3.199-1.51 5.066.264-3.379.441-6.844.441-10.306h-12.796v45.23h13.332v-11.731c0-10.84-.447-16.977 4.532-20.53 2.847-2.047 5.952-2.135 7.02-2.135 1.248 0 2.402.178 3.555.267v-12.53c-5.949 0-11.637.532-14.569 6.665m-24.36 34.57c-.09-1.239-.09-2.404-.09-3.642v-21.238c0-2.492-.089-4.177-.977-6.579-1.957-5.067-7.112-9.953-18.75-9.953-7.376 0-11.643 1.689-14.401 3.644-1.421.977-3.462 2.751-4.884 6.577-.709 1.958-1.065 3.462-1.158 5.42l11.91.091c.176-1.779.973-4.451 5.154-5.426 1.425-.264 2.488-.264 2.933-.264.269 0 3.378 0 5.158 1.152 1.061.715 1.863 1.871 1.863 3.204 0 2.837-3.113 3.11-3.555 3.195-.979.184-2.041.361-3.02.444l-3.199.529c-4.537.715-10.131 1.69-14.04 4.447-5.248 3.643-5.51 8.891-5.51 11.11-.089 9.865 8.09 14.217 16.793 14.217 5.157 0 9.153-1.33 12.89-4.983.266 1.155.529 2.321.891 3.473h13.591c-.62-.973-.975-1.426-1.238-2.579-.359-1.07-.359-2.572-.359-2.845m-12.885-9.246c-.536.977-.711 1.334-1.425 2.225-3.02 3.643-7.645 3.643-9.06 3.643-3.02 0-4.533-.977-5.422-2.131-.265-.441-.887-1.239-.887-2.582 0-1.51.705-2.75 1.865-3.642 1.155-.797 2.843-1.331 4.174-1.689 1.871-.525 3.825-.882 5.689-1.332 2.045-.441 3.11-.62 5.068-1.512v7.02m-49.584-32.25c-5.598 0-9.156 2.485-10.75 3.907l-1.427 1.419v-21.15h-13.24v62.744h13.24v-26.395c0-2.136-.088-4.443 1.246-6.305.797-1.071 2.846-2.942 6.484-2.942 1.073 0 3.555 0 5.335 2.489 1.779 2.404 1.512 4.272 1.512 9.247v23.906h13.151v-26.311c0-4.885.18-9.863-2.755-14.217-1.508-2.221-5.512-6.394-12.795-6.394m388.12 1.095h-9.364c1.39-5.566 1.3-8.902 7.791-8.902 1.39 0 2.876.184 4.264.28l2.041-9.461c-2.875-.467-5.75-.742-8.625-.742-13.815 0-16.04 6.583-18.638 18.824h-7.881l-1.856 8.807h7.792l-8.254 39.13h13.169l8.254-39.13h9.456l1.851-8.807m62.11-1.299c-6.124 0-12.98 3.43-16.229 8.348-1.117-5.752-5.841-8.348-11.591-8.348-6.864 0-12.797 2.689-16.786 8.06h-.183l1.483-6.765h-12.611l-10.01 47.934h13.164l5.38-25.687c1.301-5.836 5.285-13.161 12.337-13.161 3.336 0 5.745 2.222 5.745 5.099 0 .924-.185 2.036-.367 3.432l-6.31 30.32h13.26l5.375-25.687c1.3-5.836 5.288-13.161 12.341-13.161 3.331 0 5.739 2.222 5.739 5.099 0 .924-.183 2.036-.368 3.432l-6.3 30.32h13.164l5.934-28.18c.555-2.88 1.391-5.94 1.391-8.905 0-8.253-7.05-12.147-14.556-12.147m-117.81 39.38c-2.861 0-5.18 2.328-5.18 5.183 0 2.865 2.319 5.169 5.18 5.169 2.86 0 5.171-2.305 5.171-5.169 0-2.855-2.312-5.183-5.171-5.183" fill="#141213"/><path d="m101.97 436.5c-.315.576-.419.786-.839 1.311-1.778 2.146-4.503 2.146-5.338 2.146-1.781 0-2.67-.576-3.193-1.255-.156-.26-.523-.73-.523-1.521 0-.889.415-1.62 1.099-2.145.68-.469 1.675-.784 2.459-.995 1.102-.309 2.253-.52 3.351-.785 1.205-.26 1.832-.365 2.985-.89v4.135" fill="#f90"/></g></svg>