<svg xmlns="http://www.w3.org/2000/svg" viewBox="0 0 600 119.59" xmlns:xlink="http://www.w3.org/1999/xlink"><g fill="#009a3c"><path d="m497.5 25.594h-8.635c-.929 0-1.685.756-1.685 1.685v26.471h-54.25v-26.472c0-.929-.747-1.685-1.676-1.685h-8.635c-.929 0-1.685.756-1.685 1.685v65.55c0 .929.756 1.685 1.685 1.685h8.635c.929 0 1.676-.756 1.676-1.685v-28.466h54.26v28.466c0 .929.756 1.685 1.685 1.685h8.635c.929 0 1.685-.756 1.685-1.685v-65.55c0-.929-.756-1.685-1.685-1.685"/><path d="m571.05 83.91h-43.642v-47.705h45.1c2.578 0 4.883.255 6.832.756 1.776.465 3.234 1.357 4.445 2.742 1.239 1.412 2.204 3.48 2.869 6.14.692 2.769 1.038 6.486 1.038 11.04v6.704c0 4.7-.419 8.49-1.248 11.241-.793 2.633-1.895 4.618-3.279 5.912-1.385 1.303-3.02 2.132-4.974 2.523-2.122.428-4.518.647-7.142.647m27.638-40.22c-.902-4.491-2.551-8.125-4.892-10.822-2.378-2.715-5.566-4.646-9.483-5.721-3.753-1.029-8.517-1.558-14.174-1.558h-53.34c-.929 0-1.685.756-1.685 1.685v65.56c0 .929.756 1.676 1.685 1.676h53.07c5.739 0 10.585-.601 14.402-1.794 3.981-1.239 7.187-3.307 9.546-6.14 2.332-2.806 3.972-6.459 4.874-10.886.865-4.254 1.312-9.51 1.312-15.641 0-6.54-.446-12.04-1.312-16.36"/></g><path d="m130.12 46.853h-15.322v-17.526h15.613c3.589.018 7.02 4.391 7.02 8.736 0 4.454-3.361 8.79-7.315 8.79m.601 43.36h-15.805v-17.554h14.566c4.518-.055 7.952 4.199 7.952 8.872 0 4.227-2.487 8.581-6.713 8.681m18.19-30.21c10.439-2.387 18.246-11.97 18.246-23.438 0-20-11.177-33.486-29.76-33.486l-51.959.018v113.84l51.36-.018c.246.018.492.027.738.027 18.583 0 29.76-13.482 29.76-33.467 0-11.523-7.87-21.14-18.382-23.475" fill-rule="evenodd" id="0"/><path d="m216.73 88.29c-15.559 0-28.17-12.99-28.17-29.01 0-16.01 12.607-29 28.17-29 15.568 0 28.18 12.99 28.18 29 0 16.02-12.607 29.01-28.18 29.01m0-88.3c-31.791 0-57.58 26.544-57.58 59.28 0 32.748 25.788 59.28 57.58 59.28 31.8 0 57.59-26.535 57.59-59.28 0-32.739-25.788-59.28-57.59-59.28" fill-rule="evenodd" id="1"/><path d="m216.73 36.543c-12.197 0-22.09 10.184-22.09 22.737 0 12.571 9.893 22.746 22.09 22.746s22.09-10.175 22.09-22.746c0-12.553-9.893-22.737-22.09-22.737" fill-rule="evenodd" id="2"/><path d="m272.41 17.06c3.27 0 5.793-2.66 5.793-6.185 0-3.452-2.523-6.14-5.793-6.14-3.325 0-5.83 2.687-5.83 6.14 0 3.525 2.505 6.185 5.83 6.185m0-13.418c3.853 0 7.087 3.134 7.087 7.233 0 4.145-3.234 7.278-7.087 7.278-3.871 0-7.123-3.134-7.123-7.278 0-4.099 3.252-7.233 7.123-7.233m-1.539 6.732h1.94c1.293 0 1.703-.474 1.703-1.43 0-.838-.61-1.312-1.439-1.312h-2.204v2.742zm0 4.71h-1.175v-8.462h3.134c1.922 0 2.86.802 2.86 2.396 0 1.53-.956 2.177-2.141 2.332l2.377 3.735h-1.321l-2.214-3.698h-1.521v3.698" fill-rule="evenodd" id="3"/><path d="m29.478 116.89h-29.478v-113.83h29.478v42.85h20.97v-42.85h29.07v113.83h-29.07v-44.28h-20.97" fill-rule="evenodd"/><use xlink:href="#0"/><use xlink:href="#1"/><use xlink:href="#2"/><use xlink:href="#3"/><path d="m335.27 88.72c27.628-33.15 27.14-42.08 27.14-42.08h-.009c.92-3.808.938-7.442.291-11.715-2.177-18.984-19.19-33.768-39.871-33.768-22.16 0-40.12 18.02-40.12 38.942 0 .009.009.027.018.036h27.738c.173-6.094 5.438-11.268 11.915-11.268 5.602 0 10.293 3.644 11.578 8.563.228.874.364 1.776.364 2.715h-.009.036c-.246 2.377-1.148 4.627-2.459 6.495h-.046l-32.12 42.08h-.036l-21.689 28.23h88.08v-28.23h-30.804z" fill="#009a3c"/><path d="m310.49 40.563h.082c-.036 0-.064-.009-.082-.009v.009" fill="#961580"/><path d="m396.82 3.094h-5.05-.009v116.5h5.065v-116.5h-.009"/></svg>