<svg xmlns="http://www.w3.org/2000/svg" viewBox="0 0 600 194.18" xmlns:xlink="http://www.w3.org/1999/xlink"><g transform="translate(.006-.002)"><path d="m213.1 76.73h-25.09v-28.702h25.569c5.878.03 11.502 7.191 11.502 14.307 0 7.295-5.505 14.396-11.979 14.396m.985 71.01h-25.884v-28.748h23.855c7.4-.09 13.02 6.877 13.02 14.53 0 6.922-4.073 14.05-10.995 14.217m29.791-49.47c17.1-3.909 29.881-19.603 29.881-38.38 0-32.76-18.305-54.84-48.738-54.84l-85.09.03v186.44l84.11-.03c.403.03.806.045 1.208.045 30.433 0 48.738-22.08 48.738-54.81 0-18.871-12.889-34.626-30.11-38.445" fill-rule="evenodd" fill="#fff" id="0"/><path d="m354.95 144.61c-25.481 0-46.13-21.274-46.13-47.51 0-26.23 20.646-47.5 46.13-47.5 25.496 0 46.14 21.274 46.14 47.5 0 26.24-20.646 47.51-46.14 47.51m0-144.6c-52.07 0-94.3 43.47-94.3 97.09 0 53.631 42.24 97.09 94.3 97.09 52.08 0 94.31-43.46 94.31-97.09 0-53.617-42.24-97.09-94.31-97.09" fill-rule="evenodd" fill="#fff" id="1"/><path d="m354.95 59.847c-19.975 0-36.18 16.678-36.18 37.24 0 20.587 16.201 37.25 36.18 37.25 19.975 0 36.18-16.664 36.18-37.25 0-20.558-16.201-37.24-36.18-37.24" fill-rule="evenodd" fill="#fff" id="2"/><path d="m446.14 27.946c5.356 0 9.488-4.356 9.488-10.13 0-5.654-4.132-10.05-9.488-10.05-5.445 0-9.548 4.401-9.548 10.05 0 5.773 4.103 10.13 9.548 10.13m0-21.975c6.31 0 11.607 5.132 11.607 11.845 0 6.788-5.296 11.92-11.607 11.92-6.34 0-11.666-5.132-11.666-11.92 0-6.713 5.326-11.845 11.666-11.845m-2.521 11.03h3.178c2.118 0 2.79-.776 2.79-2.342 0-1.373-.985-2.148-2.357-2.148h-3.61v4.49zm0 7.713h-1.925v-13.859h5.132c3.148 0 4.699 1.313 4.699 3.924 0 2.506-1.581 3.565-3.521 3.819l3.894 6.117h-2.163l-3.625-6.06h-2.491v6.06" fill-rule="evenodd" fill="#fff" id="3"/><path d="m48.27 191.44h-48.28v-186.42h48.28v70.18h34.34v-70.18h47.605v186.42h-47.605v-72.52h-34.34" fill-rule="evenodd" fill="#fff"/><use xlink:href="#0"/><use xlink:href="#1"/><use xlink:href="#2"/><use xlink:href="#3"/><path d="m580.39 92.36c8.936-9.369 14.307-21.15 14.307-33.925.97-29.986-29.388-56.41-65.65-56.41-35.24 0-63.88 24.362-65.49 53.23h32.477v.06h12.666c1.954-8.578 10.607-15.04 20.976-15.04 11.83 0 21.408 8.384 21.408 18.722 0 9.951-9.01 20.587-20.21 21.2h-2.148v28.09l2.551.179c12.158.791 21.945 10.696 21.945 21.542 0 11.368-10.532 20.602-23.542 20.602-12.994 0-27.21-9.1-27.21-20.468 0-.119.03-.224.03-.343h-47.42c-.045.85-.179 1.686-.179 2.551h-.015c-.03.015-.045.03-.045.045 0 .164.015.313.015.462 0 .089-.015.164-.015.254 0 0 .015.015.045.03.194 13.307 6.43 25.794 16.424 35.834 13.949 13.964 35.22 23.17 57.719 23.17 38.833 0 70.802-25.645 70.966-57.704v-.671c.03-15.858-7.4-30.404-19.603-41.41" fill="#009a3c"/></g></svg>