<svg xmlns="http://www.w3.org/2000/svg" viewBox="0 0 600 119.62" xmlns:xlink="http://www.w3.org/1999/xlink"><g transform="translate(186.85-20.342)"><path d="m-56.734 67.19h-15.322v-17.526h15.613c3.589.018 7.02 4.391 7.02 8.736 0 4.455-3.361 8.79-7.315 8.79m.601 43.36h-15.805v-17.554h14.566c4.518-.055 7.952 4.199 7.952 8.873 0 4.227-2.487 8.581-6.714 8.681m18.19-30.21c10.439-2.387 18.246-11.97 18.246-23.438 0-20-11.177-33.486-29.76-33.486l-51.96.018v113.84l51.36-.018c.246.018.492.027.738.027 18.583 0 29.76-13.482 29.76-33.468 0-11.523-7.87-21.14-18.383-23.475" fill-rule="evenodd" id="0"/><path d="m29.881 108.64c-15.559 0-28.17-12.99-28.17-29.01 0-16.01 12.607-29 28.17-29 15.568 0 28.17 12.99 28.17 29 0 16.02-12.607 29.01-28.18 29.01m0-88.3c-31.792 0-57.58 26.545-57.58 59.28 0 32.748 25.788 59.28 57.58 59.28 31.801 0 57.59-26.535 57.59-59.28 0-32.739-25.788-59.28-57.59-59.28" fill-rule="evenodd" id="1"/><path d="m29.881 56.885c-12.197 0-22.09 10.184-22.09 22.737 0 12.571 9.893 22.746 22.09 22.746s22.09-10.175 22.09-22.746c0-12.553-9.893-22.737-22.09-22.737" fill-rule="evenodd" id="2"/><path d="m85.56 37.41c3.27 0 5.793-2.66 5.793-6.185 0-3.452-2.523-6.14-5.793-6.14-3.325 0-5.83 2.687-5.83 6.14 0 3.525 2.505 6.185 5.83 6.185m0-13.418c3.853 0 7.087 3.134 7.087 7.233 0 4.145-3.234 7.278-7.087 7.278-3.871 0-7.123-3.134-7.123-7.278 0-4.099 3.252-7.233 7.124-7.233m-1.54 6.732h1.94c1.293 0 1.703-.474 1.703-1.43 0-.838-.601-1.312-1.439-1.312h-2.204v2.742zm0 4.71h-1.175v-8.463h3.134c1.922 0 2.869.802 2.869 2.396 0 1.53-.966 2.177-2.15 2.332l2.377 3.735h-1.321l-2.214-3.698h-1.521v3.698" fill-rule="evenodd" id="3"/><path d="m-157.37 137.24h-29.478v-113.83h29.478v42.85h20.97v-42.85h29.07v113.83h-29.07v-44.28h-20.97" fill-rule="evenodd"/><use xlink:href="#0"/><use xlink:href="#1"/><use xlink:href="#2"/><use xlink:href="#3"/><path d="m209.98 139.96h-5.056v-116.5h5.056v116.5"/><g fill="#009a3c"><path d="m167.54 76.74c5.457-5.721 8.736-12.917 8.736-20.715.592-18.31-17.945-34.442-40.09-34.442-21.516 0-39.01 14.876-39.99 32.502h19.831v.036h7.734c1.193-5.238 6.477-9.182 12.808-9.182 7.224 0 13.07 5.119 13.07 11.432 0 6.076-5.502 12.571-12.343 12.944h-1.312v17.15l1.558.109c7.424.483 13.4 6.531 13.4 13.154 0 6.941-6.431 12.58-14.375 12.58-7.934 0-16.615-5.557-16.615-12.498 0-.073.018-.137.018-.21h-6.203-22.746c-.027.519-.109 1.029-.109 1.558h-.009c-.018.009-.027.018-.027.027 0 .1.009.191.009.282 0 .055-.009.1-.009.155 0 0 .009.009.027.018.118 8.126 3.926 15.75 10.03 21.881 8.517 8.526 21.507 14.15 35.24 14.15 23.712 0 43.23-15.659 43.33-35.23v-.41c.018-9.683-4.518-18.565-11.97-25.287"/><g color="#000"><path d="m553-169.28a1.6808 1.6808 0 0 0 -1.5 1.6875v65.56a1.6808 1.6808 0 0 0 1.6562 1.6562h53.09c5.706 0 10.493-.561 14.406-1.781 3.926-1.228 7.15-3.293 9.531-6.156 2.363-2.844 3.985-6.504 4.875-10.875.889-4.322 1.313-9.508 1.313-15.625 0-6.531-.423-11.982-1.313-16.375-.889-4.428-2.489-8.06-4.875-10.812a1.6808 1.6808 0 0 0 -.0312 0c-2.39-2.733-5.589-4.654-9.469-5.719-3.832-1.062-8.558-1.563-14.188-1.563h-53.34a1.6808 1.6808 0 0 0 -.15625 0m10.782 10.594h45.09c2.63 0 4.906.286 6.844.781 1.784.467 3.216 1.327 4.438 2.719 1.194 1.361 2.19 3.401 2.875 6.156.678 2.719 1.031 6.408 1.031 11.03v6.719c0 4.792-.442 8.546-1.25 11.219-.826 2.733-1.928 4.674-3.25 5.906a1.6808 1.6808 0 0 0 -.0312 .0312c-1.389 1.303-2.997 2.132-4.969 2.531-2.116.428-4.472.625-7.125.625h-43.656v-47.719" transform="translate(-223.23 215.22)"/><path d="m235.59 45.938a1.6808 1.6808 0 0 0 -1.5312 1.6875v65.56a1.6808 1.6808 0 0 0 1.6875 1.6875h8.625a1.6808 1.6808 0 0 0 1.6875 -1.6875v-28.469h54.28v28.469a1.6808 1.6808 0 0 0 1.65 1.69h8.656a1.6808 1.6808 0 0 0 1.6875 -1.6875v-65.56a1.6808 1.6808 0 0 0 -1.6875 -1.6875h-8.656a1.6808 1.6808 0 0 0 -1.6562 1.6875v26.469h-54.28v-26.469a1.6808 1.6808 0 0 0 -1.6875 -1.6875h-8.625a1.6808 1.6808 0 0 0 -.15625 0z"/></g></g></g></svg>