<svg xmlns="http://www.w3.org/2000/svg" viewBox="0 0 600 210.05" xmlns:xlink="http://www.w3.org/1999/xlink"><path d="m155.97 54.57h-17.845v-20.412h18.18c4.18.021 8.18 5.114 8.18 10.175 0 5.188-3.915 10.238-8.519 10.238m.7 50.5h-18.408v-20.445h16.965c5.262-.064 9.262 4.891 9.262 10.334 0 4.923-2.896 9.994-7.819 10.111m21.19-35.18c12.158-2.78 21.251-13.941 21.251-27.298 0-23.299-13.02-39-34.661-39l-60.52.021v132.59l59.816-.021c.286.021.573.032.859.032 21.643 0 34.661-15.702 34.661-38.98 0-13.421-9.167-24.625-21.411-27.341" fill-rule="evenodd" fill="#fff" id="0"/><path d="m256.84 102.84c-18.12 0-32.805-15.13-32.805-33.791 0-18.651 14.683-33.781 32.805-33.781 18.13 0 32.815 15.13 32.815 33.781 0 18.662-14.683 33.791-32.815 33.791m0-102.84c-37.03 0-67.06 30.917-67.06 69.05 0 38.14 30.03 69.05 67.06 69.05 37.04 0 67.07-30.905 67.07-69.05 0-38.13-30.04-69.05-67.07-69.05" fill-rule="evenodd" fill="#fff" id="1"/><path d="m256.84 42.56c-14.206 0-25.728 11.861-25.728 26.482 0 14.641 11.522 26.492 25.728 26.492s25.728-11.851 25.728-26.492c0-14.62-11.522-26.482-25.728-26.482" fill-rule="evenodd" fill="#fff" id="2"/><path d="m321.7 19.873c3.809 0 6.748-3.098 6.748-7.204 0-4.02-2.939-7.151-6.748-7.151-3.873 0-6.79 3.13-6.79 7.151 0 4.106 2.918 7.204 6.79 7.204m0-15.628c4.488 0 8.254 3.65 8.254 8.424 0 4.827-3.766 8.477-8.254 8.477-4.509 0-8.297-3.65-8.297-8.477 0-4.774 3.788-8.424 8.297-8.424m-1.793 7.84h2.26c1.507 0 1.984-.552 1.984-1.666 0-.976-.7-1.528-1.676-1.528h-2.568v3.194zm0 5.485h-1.369v-9.856h3.65c2.239 0 3.342.934 3.342 2.79 0 1.782-1.125 2.536-2.504 2.716l2.769 4.35h-1.538l-2.578-4.308h-1.772v4.308" fill-rule="evenodd" fill="#fff" id="3"/><path d="m38.755 136.15h-34.33v-132.58h34.33v49.907h24.424v-49.907h33.855v132.58h-33.855v-51.573h-24.424" fill-rule="evenodd" fill="#fff"/><use xlink:href="#0"/><use xlink:href="#1"/><use xlink:href="#2"/><use xlink:href="#3"/><path d="m363.37 139.32h-5.888v-135.69h5.888v135.69" fill="#fff"/><g fill="#e97e16"><g color="#000"><path d="m502.89 29.814a1.9576 1.9576 0 0 0 -1.747 1.9654v76.36a1.9576 1.9576 0 0 0 1.929 1.929h61.838c6.646 0 12.221-.653 16.779-2.075 4.573-1.43 8.328-3.835 11.1-7.17 2.753-3.312 4.642-7.575 5.678-12.666 1.035-5.03 1.529-11.07 1.529-18.2 0-7.607-.492-13.955-1.529-19.07-1.036-5.157-2.899-9.391-5.678-12.593a1.9576 1.9576 0 0 0 -.0363 0c-2.784-3.183-6.51-5.42-11.03-6.661-4.463-1.237-9.968-1.82-16.525-1.82h-62.13a1.9576 1.9576 0 0 0 -.18198 0zm12.557 12.339h52.52c3.063 0 5.714.333 7.971.91 2.078.544 3.746 1.545 5.168 3.167 1.39 1.585 2.551 3.961 3.348 7.17.789 3.166 1.201 7.464 1.201 12.848v7.825c0 5.581-.515 9.953-1.456 13.07-.962 3.184-2.246 5.444-3.785 6.879a1.9576 1.9576 0 0 0 -.0363 .03634c-1.618 1.517-3.49 2.483-5.787 2.948-2.465.499-5.209.728-8.298.728h-50.82v-55.58z"/><path d="m393.2 29.81a1.9576 1.9576 0 0 0 -1.7834 1.9654v76.36a1.9576 1.9576 0 0 0 1.9654 1.9654h10.05a1.9576 1.9576 0 0 0 1.9654 -1.9654v-33.15h63.22v33.16a1.9576 1.9576 0 0 0 1.9217 1.9683h10.08a1.9576 1.9576 0 0 0 1.9654 -1.9654v-76.36a1.9576 1.9576 0 0 0 -1.9654 -1.9654h-10.08a1.9576 1.9576 0 0 0 -1.929 1.9654v30.829h-63.24v-30.828a1.9576 1.9576 0 0 0 -1.9654 -1.9654h-10.05a1.9576 1.9576 0 0 0 -.182 0z"/></g><path d="m44.955 166.49c-6.218-3.727-11.554-5.395-17.394-5.395-11.512 0-20.08 8.447-20.08 19.875 0 11.642 8.277 19.733 20.418 19.733 5.672 0 11.889-2.059 17.562-5.856v8.163c-4.915 2.657-10.335 4.537-18.233 4.537-18.948 0-27.23-15.01-27.23-25.902 0-15.834 11.596-27.406 27.646-27.406 5.168 0 10.419 1.278 17.31 4.259"/><path d="m79.2 200.71c11.302 0 19.664-8.447 19.664-19.804 0-11.428-8.361-19.804-19.664-19.804-11.26 0-19.578 8.376-19.578 19.804 0 11.357 8.319 19.804 19.578 19.804m0-46.46c16.638 0 27.14 12.175 27.14 26.655 0 14.02-10.21 26.655-27.27 26.655-16.512 0-26.931-12.565-26.931-26.655 0-14.41 10.714-26.655 27.06-26.655"/><path d="m159.61 206.89h-7.268v-40.461h-.126l-15.545 20.12h-1.176l-15.545-20.12h-.126v40.461h-7.269v-51.96h6.806l16.722 21.331 16.807-21.331h6.722"/></g><path fill="#ab4b1d" d="m189.49 157.06l-15.252 15.404 10.63 11.216 14.747-14.872 4.537 4.792-14.705 14.872 10.966 11.535 15.755-15.865 4.538 4.792-20.924 21.12-35.29-37.16 20.461-20.622"/><g fill="#e97e16"><path d="m232.29 200.19h11.512c16.427 0 20.21-12.884 20.21-19.272 0-10.435-6.428-19.272-20.587-19.272h-11.134v38.544m-7.268-45.25h19.578c18.655 0 26.847 13.7 26.847 25.981 0 13.345-10.125 25.981-26.763 25.981h-19.664"/><path d="m306.12 154.94h8.739l-18.738 24.525v27.436h-7.226v-27.508l-18.738-24.455h8.739l13.528 17.925"/></g></svg>