<svg xmlns="http://www.w3.org/2000/svg" viewBox="0 0 600 143.74" xmlns:xlink="http://www.w3.org/1999/xlink"><g><path d="m156.42 56.32h-18.419v-21.07h18.769c4.314.022 8.443 5.278 8.443 10.502 0 5.355-4.04 10.567-8.793 10.567m.723 52.12h-19.01v-21.1h17.521c5.431-.066 9.56 5.05 9.56 10.666 0 5.081-2.989 10.315-8.07 10.436m21.868-36.31c12.549-2.869 21.934-14.389 21.934-28.18 0-24.05-13.436-40.25-35.775-40.25l-62.47.022v136.85l61.749-.022c.296.022.591.033.887.033 22.339 0 35.775-16.207 35.775-40.23 0-13.852-9.461-25.416-22.1-28.22" fill-rule="evenodd" fill="#fff" id="0"/><path d="m260.54 106.14c-18.704 0-33.859-15.616-33.859-34.878 0-19.251 15.16-34.867 33.859-34.867 18.715 0 33.87 15.616 33.87 34.867 0 19.262-15.16 34.878-33.87 34.878m0-106.14c-38.22 0-69.22 31.91-69.22 71.27 0 39.37 31 71.27 69.22 71.27 38.23 0 69.23-31.899 69.23-71.27 0-39.36-31-71.27-69.23-71.27" fill-rule="evenodd" fill="#fff" id="1"/><path d="m260.54 43.929c-14.663 0-26.555 12.243-26.555 27.333 0 15.11 11.892 27.344 26.555 27.344s26.555-12.232 26.555-27.344c0-15.09-11.892-27.333-26.555-27.333" fill-rule="evenodd" fill="#fff" id="2"/><path d="m327.48 20.51c3.931 0 6.964-3.198 6.964-7.424 0-4.161-3.03-7.391-6.964-7.391-3.997 0-7.01 3.23-7.01 7.391 0 4.227 3.01 7.424 7.01 7.424m0-16.13c4.632 0 8.519 3.767 8.519 8.706 0 4.971-3.887 8.738-8.519 8.738-4.654 0-8.563-3.767-8.563-8.739 0-4.939 3.909-8.706 8.563-8.706m-1.851 8.092h2.332c1.555 0 2.048-.569 2.048-1.719 0-1.01-.734-1.577-1.73-1.577h-2.65v3.295zm0 5.661h-1.413v-10.173h3.767c2.311 0 3.438.964 3.438 2.88 0 1.84-1.15 2.617-2.573 2.803l2.858 4.49h-1.588l-2.661-4.446h-1.829v4.446" fill-rule="evenodd" fill="#fff" id="3"/><path d="m35.434 140.53h-35.436v-136.84h35.436v51.51h25.21v-51.51h34.943v136.84h-34.943v-53.23h-25.21" fill-rule="evenodd" fill="#fff"/><use xlink:href="#0"/><use xlink:href="#1"/><use xlink:href="#2"/><use xlink:href="#3"/><g fill="#0662ad"><path d="m478.8 30.769h-10.381c-1.117 0-2.026.909-2.026 2.026v31.822h-65.23v-31.822c0-1.117-.898-2.026-2.01-2.026h-10.381c-1.117 0-2.026.909-2.026 2.026v78.8c0 1.128.909 2.026 2.026 2.026h10.381c1.117 0 2.01-.898 2.01-2.026v-34.22h65.23v34.22c0 1.128.909 2.026 2.026 2.026h10.381c1.117 0 2.026-.898 2.026-2.026v-78.8c0-1.117-.909-2.026-2.026-2.026"/><path d="m565.2 100.87h-52.46v-57.35h54.22c3.099 0 5.869.307 8.213.909 2.135.558 3.887 1.632 5.344 3.296 1.489 1.697 2.65 4.183 3.449 7.381.832 3.329 1.248 7.797 1.248 13.272v8.06c0 5.65-.504 10.206-1.5 13.513-.953 3.165-2.278 5.552-3.942 7.107-1.664 1.566-3.625 2.562-5.968 3.03-2.562.515-5.442.777-8.596.777m33.22-48.35c-1.084-5.398-3.066-9.768-5.88-13.01-2.858-3.263-6.691-5.585-11.4-6.877-4.512-1.237-10.239-1.873-17.04-1.873h-64.12c-1.117 0-2.026.909-2.026 2.026v78.81c0 1.117.909 2.01 2.026 2.01h63.797c6.899 0 12.725-.723 17.313-2.157 4.785-1.489 8.64-3.975 11.476-7.381 2.803-3.373 4.774-7.764 5.859-13.09 1.04-5.114 1.577-11.432 1.577-18.802 0-7.862-.537-14.477-1.577-19.667"/></g><path d="m359.81 143.74h-6.077v-140.05h6.077v140.05" fill="#fff"/></g></svg>