<svg xmlns="http://www.w3.org/2000/svg" viewBox="0 0 600 289.09"><defs><radialGradient id="0" gradientUnits="userSpaceOnUse" cy="338.44" cx="237.26" r="441.05"><stop stop-color="#1488ca"/><stop stop-color="#24416e" offset="1"/></radialGradient></defs><g transform="translate(-93.37-286)"><path fill="url(#0)" d="m546.92 286.01v66.31c-25.99-39.85-71.13-66.26-122.54-66.26h-25.661v-.047h-115.57v102.04h-84.57v-101.8h-105.17v288.83h105.17v-102.6h84.57v102.6h144.74c78.86-1.873 142.21-65.839 142.21-144.46 0-16.01-2.576-31.468-7.446-45.844h25.521v190.31h105.17v-289.07h-146.43zm-169.42 83.77h38.726c32.967 0 59.705 28.14 59.705 60.829 0 32.639-26.738 60.782-59.705 60.782h-38.726v-121.61m18.684 21.446v78.58h20.51c21.915 0 39.663-17.56 39.663-39.29s-17.748-39.29-39.663-39.29h-20.51"/><path fill="#16223b" d="m95.25 288.1l-1.873-1.873v288.83h105.17l-1.826-1.826h-101.48v-285.13zm190.35 285.13h-.609v-102.6h-88.27v3.699l1.826-1.873h84.62v102.6h.609 140.62c40.693 0 77.55-16.53 103.96-43.22-26.27 25.615-62.33 41.39-102.13 41.39h-140.62zm-.609-285.37l-1.826-1.873v102.08l-1.873 1.826h3.699v-102.04zm261.91 64.44l1.873 2.622v-67.06l-1.873-1.873v66.31m43.13 220.93v-190.31h-27.956l.609 1.873h25.521v190.26h105.17l-1.873-1.826h-101.48zm-193.8-182.01v78.62h20.51c11.426 0 21.728-4.776 28.986-12.456-7.118 6.603-16.624 10.63-27.11 10.63h-20.51v-74.971l-1.873-1.826m79.7 39.38c0 16.249-6.603 31.374-17.279 42.472 11.754-11.239 19.15-27.16 19.15-44.35 0-32.639-26.738-60.782-59.658-60.782h-42.43v3.652l1.826-1.826h38.726c32.967 0 59.658 28.14 59.658 60.829"/><path fill="#69acdf" d="m198.57 286.25h-105.17l1.873 1.873h101.43v101.8h84.62l1.826-1.873h-84.57v-101.8zm-1.873 286.96l1.873 1.873v-102.6l-1.873 1.826v98.9m365.94-188.43c4.87 14.376 5.619 31.655 5.619 47.624 0 39.476-15.921 75.2-41.77 101.29 26.926-26.22 43.643-62.749 43.643-103.11 0-15.313-2.435-30.06-6.884-43.971l-.609-1.826zm-15.734-98.76l1.873 1.826h142.73v285.41l1.826 1.826v-289.07h-146.43zm-1.88 63.54c-26.22-38.3-70.43-63.49-120.67-63.49h-25.661v-.047h-115.57l1.873 1.826h111.87v.094h25.661c51.42 0 96.51 25.15 124.37 64.39l-1.873-2.763zm-88.64 80.965c0-21.728-17.748-39.29-39.663-39.29h-20.557l1.873 1.826h16.811c21.915 0 39.663 17.607 39.663 39.29 0 10.396-4.074 19.855-10.723 26.879 7.773-7.165 12.597-17.373 12.597-28.705m-78.86 60.876v-121.61l-1.873 1.826v121.61h38.726c16.577 0 31.562-7.118 42.38-18.31-10.677 10.115-24.912 16.483-40.506 16.483h-38.726z"/></g></svg>