<?xml version="1.0" encoding="UTF-8" standalone="no"?>
<svg xmlns:rdf="http://www.w3.org/1999/02/22-rdf-syntax-ns#" xmlns="http://www.w3.org/2000/svg" height="218.4" width="600" version="1.1" xmlns:cc="http://creativecommons.org/ns#" xmlns:dc="http://purl.org/dc/elements/1.1/" viewBox="0 0 158.75 57.784237">
 <g stroke-width=".99999" fill="#ea4747">
  <path d="m45.731 56.854v-6.52h-2.07c-1.17 0-1.58-0.07-2.34-0.98-0.69-0.77-1.03-1.68-1.03-2.94v-15.91c0-6.81-6.179-10.805-11.747-10.805-5.565 0-10.305 3.364-12.093 7.501v-27.2h-16.383v6.2397h1.545c0.823 0 1.579 0.351 2.128 0.911 0.5509 0.771 0.6889 1.4719 0.6889 2.5229v37.23c0 0.98-0.206 1.89-0.7569 2.52-0.549 0.63-1.305 0.91-2.129 0.91h-1.544v6.52h19.469v-6.52h0.074c-1.03 0-1.785-0.2-2.404-1.12-0.688-0.84-0.756-1.75-0.756-2.87v-5.61c0-7.29 2.749-11.921 7.214-11.921 3.229 0 4.879 2.111 4.879 6.311v12.13c0 0.98 0.068 1.89-0.62 2.45-0.411 0.35-0.824 0.63-1.442 0.63h-0.645v6.52z"/>
  <path d="m71.011 34.304h-12.43v-1.62c0-4.557 2.47-7.713 6.32-7.713 4.19 0 6.11 3.435 6.11 7.783zm12.37 2.38c0-10.871-7.63-17.67-18.48-17.67-11.89 0-20.07 8.55-20.07 19.42s7.97 19.28 19.65 19.35c12.23 0.07 18.07-7.92 18.42-11.92l0.13-1.4h-9.2c-0.48 4.56-3.02 6.73-7.63 6.73-5.01 0-7.49-3.36-7.56-7.78l-0.06-3.09h24.73c0.21-2.24 0.07-2.24 0.07-3.64" fill-rule="evenodd"/>
  <path d="m131.22 47.974v-3.66h-4.4l-0.14 2.88c0 1.41-0.2 3.02-1.99 3.02-1.86 0-1.92-1.4-1.92-2.66v-17.67c0-7.647-8.87-10.871-16.15-10.871-9.339 0-17.719 3.643-17.649 10.307 0.06 4.414 3.15 6.874 6.93 6.874 3.23 0 6.669-2.18 6.669-5.54 0-2.106-1.1-2.808-2.54-3.65 0.68-1.052 1.92-2.524 5.08-2.524 4.12 0 5.91 3.015 5.91 6.454 0 5.4-3.85 5.82-7.77 6.45l-3.839 0.56c-3.64 0.56-13.13 1.05-13.13 9.32 0 6.31 5.91 10.52 12.51 10.52 3.919 0 7.829-0.91 11.059-4.42l1.17-1.26 0.89 1.4c2.06 3.23 4.95 4.28 8.73 4.28 6.32 0 10.58-3.79 10.58-9.81m-20.48-4.98c0 4.13-3.16 7.64-7.14 7.71-2.34 0-4.399-1.82-4.399-4.28 0-2.45 1.719-3.57 4.599-4.27l1.52-0.42c1.16-0.29 1.78-0.56 2.88-0.99 0.96-0.41 1.58-0.84 2.54-1.4z" fill-rule="evenodd"/>
  <path d="m158.75 46.844v-7.43h-5.29v5.68c0 4.42-1.93 5.68-3.78 5.68-1.86 0-3.43-1.26-3.43-4.7v-18.718h9.89v-6.38h-9.83v-13.529h-7.97c0-0.0003 0 9.111-1.51 11.075-1.51 1.962-2.88 2.454-5.01 2.454h-2.99v6.38h5.46v18.158c0 6.59 3.44 12.2 11.47 12.2 8.38 0 12.99-4.21 12.99-10.87"/>
 </g>
</svg>
