<svg xmlns="http://www.w3.org/2000/svg" height="394.76" width="600" viewBox="0 0 158.75 104.44657"><g transform="translate(-19.537-76.46)"><g fill="#fff"><path d="m64.69 165.78h.724c1.832-.19 2.741-.87 3.02-2.39.436-2.09-.827-3.34-3.634-3.34h-1.773v5.73zm-2.556 14.52h-5.718s-.451-.001-.687-.26c-.237-.26-.229-.84-.229-.84v-23.93s-.015-.37.207-.64c.229-.28.709-.28.709-.28h9.426c.399 0 .798 0 1.19.04 5.917.5 8.761 3.09 9.05 8 .288 5.19-2.852 8.51-8.799 8.94-.539.03-1.079.07-1.655.07h-2.563v7.8s.029.6-.207.84c-.259.25-.724.26-.724.26"/><path d="m52.1 155.27s-.081-.51-.333-.67c-.258-.17-.694-.25-.694-.25h-5.666s-.333.08-.584.36c-.258.29-.258.56-.258.56v23.93s-.045.66.206.89c.222.21.636.22.636.22h5.696s.406 0 .731-.32c.318-.31.266-.79.266-.79z"/><path d="m41.37 179.2v-23.93s-.007-.27-.258-.56c-.251-.28-.584-.37-.584-.37h-5.666s-.436.09-.687.26c-.251.16-.34.67-.34.67v7.75s-.03.42-.281.67c-.258.25-.731.32-.731.32h-4.706s-.473-.07-.724-.32-.288-.67-.288-.67v-7.75s-.081-.51-.333-.67c-.251-.17-.694-.26-.694-.26h-5.659s-.34.09-.591.37c-.251.29-.258.56-.258.56v23.93s-.045.66.214.89c.214.21.635.21.635.21h5.689s.413.001.731-.31c.318-.31.266-.79.266-.79v-8.51s.022-.49.258-.73c.229-.24.717-.22.717-.22h4.78s.487-.02.724.22c.236.24.251.73.251.73v8.51s-.052.48.273.79c.318.32.724.31.724.31h5.696s.421 0 .636-.21c.258-.23.206-.89.206-.89"/><path d="m143.29 165.78h.72c1.84-.19 2.74-.87 3.03-2.39.43-2.09-.83-3.34-3.64-3.34h-1.77v5.73zm-2.56 14.52h-5.71s-.45-.001-.69-.26c-.24-.26-.24-.84-.24-.84v-23.93s0-.37.22-.64c.23-.28.71-.28.71-.28h9.42c.4 0 .79 0 1.19.04 5.91.5 8.76 3.09 9.05 8 .29 5.19-2.84 8.51-8.8 8.94-.54.03-1.08.07-1.65.07h-2.57v7.8s.03.6-.2.84c-.26.25-.73.26-.73.26"/><path d="m103.56 179.2v-23.93s0-.27-.25-.56c-.26-.28-.59-.37-.59-.37h-5.664s-.436.09-.687.26c-.251.16-.34.67-.34.67v7.75s-.029.42-.28.67c-.252.25-.724.32-.724.32h-4.714s-.472-.07-.716-.32c-.259-.25-.288-.67-.288-.67v-7.75s-.089-.51-.34-.67c-.251-.17-.687-.26-.687-.26h-5.667s-.332.09-.591.37c-.251.29-.251.56-.251.56v23.93s-.051.66.207.89c.214.21.635.21.635.21h5.696s.407.001.724-.31c.325-.31.274-.79.274-.79v-8.51s.014-.49.251-.73c.236-.24.716-.22.716-.22h4.78s.488-.02.724.22c.237.24.251.73.251.73v8.51s-.044.48.274.79c.317.32.731.31.731.31h5.686s.42 0 .64-.21c.26-.23.2-.89.2-.89"/><path d="m113.53 168.78c.36 3.89 1.84 5.77 4.14 6.23 3.57.73 6.06-1.36 6.5-6.23.1-.98.1-1.99 0-2.96-.44-4.87-2.93-6.95-6.5-6.24-2.3.47-3.78 2.34-4.14 6.24-.04.51-.08.97-.08 1.48 0 .5.04 1.01.08 1.48m-7.83-1.48c0-8.62 4.84-13.55 13.16-13.55 9.13 0 14.36 6.13 12.94 16.43-.82 6.02-4.49 9.7-10.56 10.53-9.55 1.3-15.54-4.07-15.54-13.41"/><path d="m155.86 151.64c0-.66.36-.6.45-.6h12.87c.31.08.43.13.59.71.05.2 1.95 6.14 1.95 6.14l1.96-6.29s.08-.56.55-.56c.56.001 3.54 0 3.54 0 .45.001.66.63.41 1.36-.05.16-3.14 8.32-4.06 10.72-.16.41-.3.65-.53.65h-3.68c-.33 0-.48-.17-.66-.62-.04-.08-3.09-7.97-3.09-7.97h-2.16v7.97c0 .38-.11.62-.44.62h-3.65c-.33-.001-.44-.22-.45-.62 0-.04.001-7.97.001-7.97h-3.16c-.14-.02-.45-.06-.45-.57v-2.97"/><path d="m51.49 107.06c-.731-.54-3.01-1.88-2.992-4.72h-.022v-.49c0-.07-.007-.14-.007-.2v-23.376c-.185-1.034-.975-1.817-1.914-1.817h-25.07c-1.078 0-1.957 1.027-1.957 2.29v68.64c0 1.27.879 2.29 1.957 2.29h24.771c1.079 0 1.958-1.02 1.958-2.29 0 0 .007-19.05 0-19.61h.044c-.059-1.09-.185-4.36 2.837-4.36 2.866 0 2.829 2.96 2.881 4.36h.007c0 .03.045 19.61.045 19.61 0 1.27.879 2.29 1.957 2.29h6.93l8.946-26.92z"/><path d="m83.45 76.52h-27.386c-.946 0-1.729.776-1.914 1.803v24.636c.185 1.04.968 1.81 1.914 1.81h21.417l7.926-24.969v-.99c0-1.263-.871-2.29-1.957-2.29"/><path d="m90.82 76.52h27.381c.95 0 1.73.776 1.92 1.803v24.636c-.19 1.04-.97 1.81-1.92 1.81h-21.412l-7.927-24.969v-.99c0-1.263.872-2.29 1.958-2.29"/></g><path d="m87.14 90.75l5.408 17.701c.177.59.702.99 1.293.99l17.56-.03-14.221 10.9c-.48.37-.68 1.02-.495 1.61l5.456 17.67-14.196-10.95c-.48-.37-1.13-.37-1.603 0l-14.236 10.99 5.497-17.71c.184-.59-.015-1.24-.495-1.61l-14.244-10.9 17.583.03c.591 0 1.115-.4 1.293-.99z" fill="#b49154"/><path d="m123.16 107.09c.73-.54 3.02-1.88 2.99-4.72h.03v-.49-.19-23.386c.19-1.035.98-1.818 1.92-1.818h25.06c1.08 0 1.96 1.027 1.96 2.29v68.64c0 1.27-.88 2.29-1.96 2.29h-24.77c-1.08 0-1.95-1.02-1.95-2.29 0 0-.001-19.05 0-19.61h-.05c.06-1.09.19-4.35-2.84-4.35-2.86 0-2.83 2.95-2.88 4.35 0 .03-.05 19.61-.05 19.61 0 1.27-.88 2.29-1.96 2.29h-6.93l-8.94-26.92z" fill="#fff"/></g></svg>