<?xml version="1.0" encoding="UTF-8" standalone="no"?>
<svg xmlns:rdf="http://www.w3.org/1999/02/22-rdf-syntax-ns#" xmlns="http://www.w3.org/2000/svg" xmlns:cc="http://creativecommons.org/ns#" xmlns:dc="http://purl.org/dc/elements/1.1/" enable-background="new 0 0 86 32" xml:space="preserve" height="533.34" viewBox="0 0 600 533.33926" width="600" version="1.1" y="0px" x="0px"> <defs> <linearGradient id="b" gradientUnits="userSpaceOnUse" gradientTransform="matrix(165.46 311.19 -311.19 165.46 421.09 -45.453)" x1="0" x2="1" y1="0" y2="0"> <stop stop-color="#b26e23" offset="0"/> <stop stop-color="#b26e23" offset=".11311"/> <stop stop-color="#a15b28" offset=".43"/> <stop stop-color="#f0cb27" offset=".64286"/> <stop stop-color="#f0cb27" offset=".92"/> <stop stop-color="#f0cb27" offset=".92592"/> <stop stop-color="#f0cb27" offset="1"/> </linearGradient> <linearGradient id="c" gradientUnits="userSpaceOnUse" gradientTransform="matrix(170.81 321.24 -321.24 170.81 537.34 -101.59)" x1="0" x2="1" y1="0" y2="0"> <stop stop-color="#b26e23" offset="0"/> <stop stop-color="#95591d" offset=".46226"/> <stop stop-color="#95591d" offset=".52"/> <stop stop-color="#95591d" offset=".57330"/> <stop stop-color="#f0cb27" offset="1"/> </linearGradient> <linearGradient id="d" gradientUnits="userSpaceOnUse" gradientTransform="matrix(63.308 0 0 63.308 649.24 218.2)" x1="0" x2="1" y1="0" y2="0"> <stop stop-color="#976523" offset="0"/> <stop stop-color="#976523" offset=".18904"/> <stop stop-color="#f4c419" offset="1"/> </linearGradient> <linearGradient id="e" gradientUnits="userSpaceOnUse" gradientTransform="matrix(-260.28 -260.28 260.28 -260.28 566.52 275.91)" x1="0" x2="1" y1="0" y2="0"> <stop stop-color="#edeb63" offset="0"/> <stop stop-color="#d36c1c" offset=".51"/> <stop stop-color="#f4ca1b" offset="1"/> </linearGradient> <linearGradient id="f" gradientUnits="userSpaceOnUse" gradientTransform="matrix(-263.35 -263.35 263.35 -263.35 711.15 134.91)" x1="0" x2="1" y1="0" y2="0"> <stop stop-color="#edeb63" offset="0"/> <stop stop-color="#d36c1c" offset=".51"/> <stop stop-color="#f4ca1b" offset="1"/> </linearGradient> <linearGradient id="g" gradientUnits="userSpaceOnUse" gradientTransform="matrix(63.361 0 0 63.361 445.13 218.2)" x1="0" x2="1" y1="0" y2="0"> <stop stop-color="#976523" offset="0"/> <stop stop-color="#976523" offset=".18904"/> <stop stop-color="#f4c419" offset="1"/> </linearGradient> <linearGradient id="h" gradientUnits="userSpaceOnUse" gradientTransform="matrix(91.555 0 0 91.555 441.58 -105.17)" x1="0" x2="1" y1="0" y2="0"> <stop stop-color="#f1d624" offset="0"/> <stop stop-color="#f1d624" offset=".12626"/> <stop stop-color="#f1d624" offset=".48"/> <stop stop-color="#f1d624" offset=".61678"/> <stop stop-color="#f2eda4" offset="1"/> </linearGradient> <linearGradient id="i" gradientUnits="userSpaceOnUse" gradientTransform="matrix(-78.696 -352.07 352.07 -78.696 345.75 237.52)" x1="0" x2="1" y1="0" y2="0"> <stop stop-color="#edeb63" offset="0"/> <stop stop-color="#d36c1c" offset=".51"/> <stop stop-color="#f4ca1b" offset="1"/> </linearGradient> <linearGradient id="j" gradientUnits="userSpaceOnUse" gradientTransform="matrix(91.266 0 0 91.266 645.94 -105.15)" x1="0" x2="1" y1="0" y2="0"> <stop stop-color="#f1d624" offset="0"/> <stop stop-color="#f1d624" offset=".12626"/> <stop stop-color="#f1d624" offset=".48"/> <stop stop-color="#f1d624" offset=".61678"/> <stop stop-color="#f2eda4" offset="1"/> </linearGradient> <linearGradient id="k" gradientUnits="userSpaceOnUse" gradientTransform="matrix(175.71 330.46 -330.46 175.71 696.89 -185.41)" x1="0" x2="1" y1="0" y2="0"> <stop stop-color="#b26e23" offset="0"/> <stop stop-color="#95591d" offset=".46226"/> <stop stop-color="#95591d" offset=".52"/> <stop stop-color="#95591d" offset=".57330"/> <stop stop-color="#f0cb27" offset="1"/> </linearGradient> <radialGradient id="a" gradientUnits="userSpaceOnUse" cy="0" cx="0" gradientTransform="matrix(354.48 0 0 354.48 551.52 448.77)" r="1"> <stop stop-color="#9e661f" offset="0"/> <stop stop-color="#9e661f" offset=".13989"/> <stop stop-color="#9e661f" offset=".74"/> <stop stop-color="#9e661f" offset=".77970"/> <stop stop-color="#e7b40f" offset=".95"/> <stop stop-color="#e7b40f" offset=".95370"/> <stop stop-color="#e7b40f" offset="1"/> </radialGradient> </defs> <g transform="translate(-251.72 100.34)" display="none"> <rect height="993.53" width="1492.5" y="-275.49" x="-243.99"/> </g> <g transform="translate(-251.72 100.34)"> <g fill="#e6252f"> <path d="m379.34 215.33v-2.71l-33.25-33.25-1.34 0.55v68.07l1.34 0.55z"/> <path d="m336.88 283.55 3.18-1.3h413.08l3.15 1.3 28.35 28.35-0.51 1.34h-475.09l-0.55-1.34z"/> <path d="m293.76 298.78 1.44 0.58 30.34-30.34 1.37-3.42v-103.44l-1.37-3.39-30.34-30.34-1.44 0.58z"/> </g> <path fill="url(#k)" d="m648.33-59.461-0.04 282.49 88.31 40.67-40.4-40.33-0.07-282.8 40.5-40.91z"/> <path fill="url(#j)" d="m561.12-100.34 87.21 40.879 88.3-40.879z"/> <path fill="url(#i)" d="m356.49-100.34 40.85 40.913-0.03 282.32-40.78 40.85h0.03l88.1-40.71 0.04-282.49z"/> <path fill="url(#h)" d="m356.53-100.34 88.17 40.879 87.86-40.849z"/> <path fill="url(#g)" d="m444.66 223.03h0.04zm-88.1 40.71h176l-87.9-40.71z"/> <path fill="url(#f)" d="m561.12-100.34 40.71 40.879v78.24l46.5 34.686v-112.93z"/> <path fill="url(#e)" d="m601.86 97.944-0.07 124.98-40.67 40.78 87.17-40.61 0.04-169.62z"/> <path fill="url(#d)" d="m561.12 263.7h175.48l-88.31-40.67z"/> <path fill="url(#c)" d="m444.7-59.461v112.93l47.11-34.69v-78.309l40.75-40.78z"/> <path fill="url(#b)" d="m444.66 223.03 87.9 40.71-40.78-40.71 0.03-125.09-47.11-44.475z"/> <path fill="url(#a)" d="m444.7 53.465 47.11 44.479h110.05l46.47-44.479z"/> <path d="m648.31 53.452-46.5-34.686h-109.98l-47.12 34.686z" fill="#f1e54a"/> <g> <path d="m547.6 345.2h46.91l-23.46 24.86z"/> <path d="m831.85 431.28h-1.81v-9.87h-4.08v-1.23h9.97v1.23h-4.08z"/> <path d="m851.72 431.28h-1.78v-9.69h-0.1l-4.56 9.69h-1.2l-4.65-9.69h-0.07v9.69h-1.51v-11.1h2.67l4.35 8.87 4.21-8.87h2.64z"/> <path d="m251.72 350.84h24.58v30.62h24.31v-30.62h24.59v80.64h-24.59v-32.12h-24.31v32.12h-24.58z"/> <path d="m341.94 350.85h24.59v80.63h-24.59z"/> <path d="m433.85 373.14c-4.76-5.1-10.48-7.15-17.98-7.15-6.12 0-10.34 2.05-10.34 5.75 0 13.04 47.19 1.5 47.19 34.38 0 13.32-11.37 26.87-36.5 26.87-15.34 0-28.9-3.42-38.01-15.68l14.79-10.78c5.38 6.19 12.88 9.82 21.64 9.82 9.66 0 13.53-3.52 13.53-7.05 0-12.26-46.54-2.88-46.54-33.39 0-15.78 14.01-26.57 34.59-26.57 12.05 0 24.34 3.43 31.98 12.71z"/> <path d="m479.47 366.84h-23.66v-15.99h71.91v15.99h-23.66v64.65h-24.59z"/> <path d="m571.62 432.98c-25.58 0-41.06-16.09-41.06-41.81 0-25.71 15.48-41.81 41.06-41.81 25.61 0 41.05 16.1 41.05 41.81 0 25.72-15.44 41.81-41.05 41.81m-15.14-41.81c0 21.64 6.71 25.82 15.14 25.82 8.28 0 15.13-4.18 15.13-25.82 0-20.47-5.58-25.81-15.13-25.81-9.9 0-15.14 6.3-15.14 25.81"/> <path d="m622.81 350.84h41.2c28.66 0 34.24 12.81 34.24 23.25 0 10.04-6.71 16.75-16.27 20.27l16.03 37.12h-27.29l-12.19-33.08h-11.13v33.08h-24.59zm24.59 32.22h12.74c7.05 0 12.15-2.87 12.15-8.11 0-5.14-3.52-8.73-11.13-8.73h-13.76z"/> <path d="m705.65 350.85h24.58v80.63h-24.58z"/> <path d="m768.54 350.84h26.51l29.44 80.64h-25.57l-5.14-15.34h-29.34l-5.55 15.34h-19.45zm1.37 48.66h18.32l-8.66-26.37h-0.21z"/> </g> </g> </svg>
