<svg xmlns="http://www.w3.org/2000/svg" height="420.16" enable-background="new 0 0 200 200" viewBox="0 0 600.00001 420.16301" xmlns:xlink="http://www.w3.org/1999/xlink"><defs><linearGradient id="8" gradientUnits="userSpaceOnUse" gradientTransform="matrix(129.8523 244.3572-244.515 129.7687 133.31 27.19)" x1="0" x2="1"><stop stop-color="#b16f23"/><stop stop-color="#955a1e" offset=".52"/><stop stop-color="#f0cb28" offset="1"/></linearGradient><linearGradient id="7" gradientUnits="userSpaceOnUse" gradientTransform="matrix(136.7211 257.2819-257.4481 136.6331 61.47 61.06)" x1="0" x2="1"><stop stop-color="#b16f23"/><stop stop-color="#a35e28" offset=".43"/><stop stop-color="#f0cb28" offset=".92"/><stop stop-color="#f0cb28" offset="1"/></linearGradient><linearGradient id="9" gradientUnits="userSpaceOnUse" gradientTransform="matrix(-198.0494-197.9215 198.0494-197.9215 268.23 226.71)" x1="0" x2="1"><stop stop-color="#edea64"/><stop stop-color="#d26c1c" offset=".51"/><stop stop-color="#f4cb1c" offset="1"/></linearGradient><linearGradient id="B" gradientUnits="userSpaceOnUse" gradientTransform="matrix(48.1724 0 0 48.1414 272 261.08)" x1="0" x2="1"><stop stop-color="#986621"/><stop stop-color="#f4c41a" offset="1"/></linearGradient><linearGradient id="A" gradientUnits="userSpaceOnUse" gradientTransform="matrix(-200.3914-200.2621 200.3914-200.2621 345.42 152.32)" x1="0" x2="1" xlink:href="#9"/><linearGradient id="6" gradientUnits="userSpaceOnUse" gradientTransform="matrix(221.4565-824.2775 824.81 221.3134 121.19 740.24)" x1="0" x2="1"><stop stop-color="#5e161b"/><stop stop-color="#e7272f" offset=".448"/><stop stop-color="#5e161b" offset="1"/></linearGradient><linearGradient id="0" gradientUnits="userSpaceOnUse" gradientTransform="matrix(-59.70118-267.7629 267.9359-59.66283 102.71 242.92)" x1="0" x2="1" xlink:href="#9"/><linearGradient id="1" gradientUnits="userSpaceOnUse" gradientTransform="matrix(133.9734 0 0 133.8868 49.681 15.271)" x1="0" x2="1"><stop stop-color="#f0d624"/><stop stop-color="#f2eea5" offset="1"/></linearGradient><linearGradient id="2" gradientUnits="userSpaceOnUse" gradientTransform="matrix(133.5495 0 0 133.4635 205.39 15.281)" x1="0" x2="1" xlink:href="#1"/><linearGradient id="4" gradientUnits="userSpaceOnUse" gradientTransform="matrix(133.5751 251.3617-251.5239 133.489 227.85-22.291)" x1="0" x2="1" xlink:href="#8"/><linearGradient id="5" gradientUnits="userSpaceOnUse" gradientTransform="matrix(48.2132 0 0 48.1818 116.69 261.1)" x1="0" x2="1" xlink:href="#B"/><linearGradient id="3" gradientUnits="userSpaceOnUse" gradientTransform="matrix(220.1397-819.379 819.9081 219.9976 386.47 809.37)" x1="0" x2="1"><stop stop-color="#5e161b"/><stop stop-color="#e7272f" offset=".951"/><stop stop-color="#e7272f" offset="1"/></linearGradient><radialGradient id="C" gradientUnits="userSpaceOnUse" cy="0" cx="0" gradientTransform="matrix(350.285 0 0 350.4739 197.64 417.3)" r="1"><stop stop-color="#9e661e"/><stop stop-color="#e6b40f" offset=".95"/><stop stop-color="#e6b40f" offset="1"/></radialGradient></defs><path fill="url(#6)" d="m438.75 184.78l-7.03 47.661h-31.13l7.089-47.661h-40.28l-15.984 106.12h-316c-.806 0-1.869.451-2.417.999l-21.72 21.687c-.516.58-.354 1.031.419 1.031l376.71-.032 7.508-50.69h31.19l-7.412 50.69h40.571l18.723-129.8h-40.25z"/><path fill="url(#3)" d="m491.24 184.68l-18.626 129.9h51.56c9.152 0 17.949-1.386 26.392-3.899 8.475-2.546 16.435-7.154 23.943-13.857 6.993-6.155 12.6-13.406 16.757-21.784 4.157-8.314 6.832-16.789 7.992-25.329.451-3.094.677-6.123.741-9.12v-2.707c-.097-5.124-.773-10.151-1.966-15.02-2.062-8.507-6.123-15.984-12.149-22.429-3.126-3.416-6.381-6.155-9.796-8.25-3.416-2.095-7.06-3.674-10.828-4.802-3.803-1.16-7.831-1.901-12.05-2.288-2.062-.193-4.189-.322-6.381-.419h-55.59m36.32 29.2h4.64c2.288 0 4.415.032 6.381.097 1.998.097 3.803.322 5.51.773 1.644.451 3.19 1.16 4.64 2.191 1.45.999 2.836 2.449 4.093 4.35 2.32 3.674 3.738 8.06 4.318 13.08.612 5.092.58 9.861-.032 14.243-.612 4.447-1.708 8.797-3.158 13.05-1.482 4.221-3.674 8.25-6.51 12.05-2.707 3.641-5.994 6.477-9.861 8.54-2.739 1.418-5.156 2.127-7.154 2.191-1.998.065-4.35.097-7.06.097h-5.768l9.958-70.67z"/><g fill="#e72730"><path d="m65.41 239.97c.56-.564.56-1.485 0-2.072l-25.409-25.4c-.565-.558-1.031-.368-1.031.429v51.982c0 .804.466.992 1.031.416l25.409-25.362z"/><path d="m-.002 303.71c0 .824.469 1.02 1.086.446l23.19-23.18c.579-.583 1.064-1.769 1.064-2.615v-79.02c0-.827-.485-2-1.064-2.591l-23.19-23.16c-.617-.588-1.086-.408-1.086.425v129.69z"/></g><path fill="url(#4)" d="m337.85.032l-66.58 30.775-.032 214.81 67.22 30.936-30.743-30.678-.032-215.04 30.517-30.807h-.354z"/><path fill="url(#2)" d="m205.57.032l65.71 30.775 66.58-30.775h-132.28z"/><path fill="url(#0)" d="m49.53 0l30.807 30.839-.032 214.68-31.03 31.07 67.06-30.97v-214.81l-66.48-30.81h-.322"/><path fill="url(#1)" d="m49.888 0l66.48 30.807 66.35-30.807h-132.83"/><path fill="url(#5)" d="m115.79 245.88l-66.51 30.711h133.96l-66.32-30.711h-1.128"/><path fill="url(#A)" d="m205.24.032l30.678 30.775v59.49l35.35 26.36v-85.85l-65.71-30.775h-.322"/><path fill="url(#9)" d="m270.98 116.94l-35.03 33.579-.097 95.03-30.936 30.968 66.32-30.839.032-128.74h-.29"/><path fill="url(#B)" d="m270.69 245.88l-65.771 30.646 133.54.032-66.64-30.678h-1.128"/><path fill="url(#8)" d="m182.65.032l-66.29 30.775v85.85l35.834-26.36v-59.52l30.775-30.743h-.322"/><path fill="url(#7)" d="m116.37 116.94l-.032 128.67 66.899 30.968-31.03-30.968v-95.06l-35.512-33.611h-.322z"/><path fill="url(#C)" d="m116.69 116.94l35.512 33.611 83.75-.032 35.03-33.579h-154.29z"/><path fill="#eee34a" d="m271.28 116.95l-35.38-26.381-83.71.006-35.841 26.382 154.92-.007z"/><g fill="#fff"><path d="m12.841 336.82h24.972v31.06h24.739v-31.06h24.974v81.83h-24.974v-32.581h-24.739v32.581h-24.972v-81.83"/><path d="m104.52 336.82h24.971v81.83h-24.971v-81.83"/><path d="m197.93 359.44c-4.853-5.194-10.635-7.25-18.266-7.25-6.243 0-10.523 2.056-10.523 5.843 0 13.206 47.98 1.513 47.98 34.85 0 13.53-11.561 27.28-37.11 27.28-15.608 0-29.367-3.467-38.616-15.912l15.03-10.936c5.431 6.281 13.06 9.96 21.965 9.96 9.826 0 13.76-3.572 13.76-7.141 0-12.447-47.29-2.925-47.29-33.881 0-16.02 14.216-26.946 35.15-26.946 12.254 0 24.741 3.463 32.485 12.876l-14.567 11.258"/><path d="m244.28 353.05h-24.04v-16.236h73.06v16.236h-24.05v65.59h-24.97v-65.59"/><path d="m322.55 377.73c0 21.97 6.82 26.19 15.377 26.19 8.438 0 15.371-4.225 15.371-26.19 0-20.782-5.664-26.19-15.371-26.19-10.06 0-15.377 6.383-15.377 26.19m15.377 42.43c-26.02 0-41.737-16.344-41.737-42.43 0-26.08 15.721-42.43 41.737-42.43 26.01 0 41.73 16.341 41.73 42.43 0 26.09-15.721 42.43-41.73 42.43"/><path d="m414.92 369.51h12.949c7.166 0 12.37-2.92 12.37-8.222 0-5.195-3.586-8.877-11.331-8.877h-13.989v17.1m-24.973-32.686h41.849c29.13 0 34.802 12.991 34.802 23.597 0 10.172-6.822 16.99-16.53 20.566l16.298 37.664h-27.744l-12.369-33.551h-11.332v33.551h-24.974v-81.83"/><path d="m497.46 383.9l-31.675-47.08h28.324l18.266 27.819 17.458-27.819h22.659l-30.06 45.14v36.69h-24.972v-34.746z"/><path d="m538.32 418.64h-1.284v-9.119h-2.911v-1.121h7.107v1.121h-2.912v9.119"/><path d="m552.49 418.64h-1.284v-8.941h-.06l-3.245 8.941h-.863l-3.315-8.941h-.064v8.941h-1.074v-10.24h1.915l3.094 8.195 3.02-8.195h1.879v10.24"/></g></svg>