<svg xmlns="http://www.w3.org/2000/svg" viewBox="0 0 1024 920"><g fill="#214295"><g fill-rule="evenodd"><path d="m0 0c.007-.405-.242-.603-.657-.61l-.896-.016.161 1.039.804.014c.401.007.583-.155.588-.427m-.351-1.014c.578.144.862.522.853 1.057-.011.579-.408.852-1.061.84l-1.233-.021-.513-3.232.472.009.205 1.279.776.013.456-1.267.516.009-.471 1.313z" transform="matrix(32.84313.6239.6239-32.84313 377.07 834.7)"/><path d="m0 0l-.975-.017.444.865c.111.212.223.454.275.579.012-.129.052-.367.093-.569l.163-.858m.724-1.185l-.654 3.211-.488-.008-1.673-3.252.523.009.388.776 1.252.022.147-.767.505.009" transform="matrix(32.84313.6239.6239-32.84313 470.44 873.27)"/><path d="m0 0c-.032-.842-.605-1.258-1.244-1.269l-.409-.007.365 2.289.216.004c.768.013 1.11-.322 1.072-1.017m.496-.006c.065 1.038-.523 1.51-1.553 1.492l-.641-.011-.514-3.231.921.016c.791.014 1.717.477 1.787 1.734" transform="matrix(32.84313.6239.6239-32.84313 592.44 857.19)"/><path d="m0 0c-.113-.701-.502-1.142-1.012-1.151-.538-.009-.856.506-.735 1.249.112.697.51 1.141.994 1.15.551.009.872-.495.753-1.248m.492-.019c.165 1.029-.316 1.748-1.181 1.733-.782-.014-1.394-.633-1.55-1.597-.172-1.044.324-1.749 1.204-1.733.768.013 1.373.646 1.527 1.597" transform="matrix(32.84313.6239.6239-32.84313 758.71 862.97)"/></g><path d="m0 0c-.006.326-.166.531-.463.65.274.097.552.322.545.704-.009.549-.419.854-1.248.839-.612-.001-1-.229-1.204-.375l.327-.575c.177.109.419.22.733.226.362.006.504-.098.506-.263.003-.171-.12-.265-.372-.269l-.442-.008-.113-.697.395.007c.365.007.463-.093.466-.264.005-.271-.22-.367-.466-.372-.36-.006-.685.159-.97.412l-.538-.557c.299-.323.791-.604 1.428-.593.864.015 1.428.43 1.416 1.135" transform="matrix(32.84313.6239.6239-32.84313 1016.26 878.38)"/><path d="m0 0l.515 3.231-.484-.008-.515-3.232.484.009" transform="matrix(32.84313.6239.6239-32.84313 644.99 913.38)"/><path d="m0 0l.124.78-2.677-.047-.125-.78.879.015-.39-2.451.907.016.389 2.451.893.016" transform="matrix(32.84313.6239.6239-32.84313 290.37 833.05)"/><path d="m0 0l.514 3.232-.911-.016-.514-3.231.911.015" transform="matrix(32.84313.6239.6239-32.84313 162.7 912.1)"/><path d="m0 0l.51 3.231-.911-.016-.187-1.176-.984-.017.186 1.176-.911-.016-.51-3.231.912.016.198 1.275.984.017-.197-1.275.91.016" transform="matrix(32.84313.6239.6239-32.84313 98.07 910.88)"/><path d="m0 0c-.05.177-.258.269-.446.216-.187-.053-.313-.242-.263-.419.049-.166.257-.262.444-.207.187.053.313.245.265.41" transform="matrix(32.84313.6239.6239-32.84313 870.93 794.14)"/><path d="m0 0c-.051.176-.258.269-.441.217-.191-.055-.318-.243-.267-.421.046-.165.255-.262.446-.207.184.054.309.245.262.411" transform="matrix(32.84313.6239.6239-32.84313 905.61 794.8)"/><path d="m0 0c.807.014 1.284-.414 1.299-1.255.018-1-.615-1.848-1.533-1.864-.806-.014-1.283.414-1.298 1.255-.018 1 .614 1.848 1.532 1.864m-.036-.697c-.426-.008-.653-.572-.644-1.105.007-.408.168-.625.481-.62.426.008.654.572.645 1.106-.007.407-.168.624-.482.619" fill-rule="evenodd" transform="matrix(32.84313.6239.6239-32.84313 871.11 812.54)"/></g><g fill="#e41c2a"><path d="m0 0c-1.5.717-3.252 1.113-5.116 1.081-1.886-.033-3.641-.502-5.126-1.286l-2.288 2.897c2.08 1.093 4.555 1.747 7.219 1.794 2.75.048 5.323-.56 7.485-1.644l-2.174-2.842" transform="matrix(32.84313.6239.6239-32.84313 685.64 157.17)"/><path d="m0 0c4.221-.249 7.564-3.01 7.624-6.45.064-3.651-3.606-6.675-8.199-6.756-3.961-.069-7.313 2.074-8.201 5.01l3.914.751c.464-1.537 2.191-2.658 4.233-2.623 2.371.042 4.265 1.63 4.231 3.55-.033 1.919-1.981 3.442-4.353 3.401-.561-.001-1.094-.106-1.582-.272l2.333 3.391" transform="matrix(32.84313.6239.6239-32.84313 540.19 162.3)"/></g><path d="m0 0c-.054 3.072 1.487 5.876 4.01 7.903l2.97-2.448c-1.932-1.529-3.122-3.69-3.081-6.068.079-4.517 4.568-8.102 10.03-8.01 5.457.095 9.818 3.835 9.74 8.352-.042 2.378-1.307 4.497-3.289 5.957l2.811 2.39c2.472-1.928 4.02-4.612 4.077-7.604.105-6.02-5.912-11.01-13.44-11.142-7.529-.132-13.716 4.645-13.821 10.667" fill="#214295" transform="matrix(32.84313.6239.6239-32.84313 65.62 363.55)"/></svg>