<?xml version="1.0" encoding="UTF-8" standalone="no"?>
<svg xmlns:rdf="http://www.w3.org/1999/02/22-rdf-syntax-ns#" xmlns="http://www.w3.org/2000/svg" xmlns:cc="http://creativecommons.org/ns#" xmlns:dc="http://purl.org/dc/elements/1.1/" height="305.87" width="600" version="1.1" viewBox="0 0 158.75 80.928364">
  <defs>
    <linearGradient id="d" gradientUnits="userSpaceOnUse" gradientTransform="matrix(0 -7.9036 7.9036 0 -61.378 129.94)" x1="0" x2="1" y1="0" y2="0">
      <stop stop-color="#fdf7e5" offset="0"/>
      <stop stop-color="#efcf5c" offset="1"/>
    </linearGradient>
    <linearGradient id="e" gradientUnits="userSpaceOnUse" gradientTransform="matrix(0 -7.9036 7.9036 0 -73.157 129.94)" x1="0" x2="1" y1="0" y2="0">
      <stop stop-color="#fdf7e5" offset="0"/>
      <stop stop-color="#efcf5c" offset="1"/>
    </linearGradient>
    <linearGradient id="f" gradientUnits="userSpaceOnUse" gradientTransform="matrix(0 -7.9036 7.9036 0 -86.275 129.94)" x1="0" x2="1" y1="0" y2="0">
      <stop stop-color="#fdf7e5" offset="0"/>
      <stop stop-color="#efcf5c" offset="1"/>
    </linearGradient>
    <linearGradient id="g" gradientUnits="userSpaceOnUse" gradientTransform="matrix(0 -7.9036 7.9036 0 -100.32 129.94)" x1="0" x2="1" y1="0" y2="0">
      <stop stop-color="#fdf7e5" offset="0"/>
      <stop stop-color="#efcf5c" offset="1"/>
    </linearGradient>
    <linearGradient id="h" gradientUnits="userSpaceOnUse" gradientTransform="matrix(0 -7.9036 7.9036 0 -114.34 129.94)" x1="0" x2="1" y1="0" y2="0">
      <stop stop-color="#fdf7e5" offset="0"/>
      <stop stop-color="#efcf5c" offset="1"/>
    </linearGradient>
    <linearGradient id="i" gradientUnits="userSpaceOnUse" gradientTransform="matrix(0 -7.9036 7.9036 0 -128.06 129.94)" x1="0" x2="1" y1="0" y2="0">
      <stop stop-color="#fdf7e5" offset="0"/>
      <stop stop-color="#efcf5c" offset="1"/>
    </linearGradient>
    <linearGradient id="j" gradientUnits="userSpaceOnUse" gradientTransform="matrix(0 -7.9039 7.9039 0 -141.38 129.94)" x1="0" x2="1" y1="0" y2="0">
      <stop stop-color="#fdf7e5" offset="0"/>
      <stop stop-color="#efcf5c" offset="1"/>
    </linearGradient>
    <linearGradient id="k" gradientUnits="userSpaceOnUse" gradientTransform="matrix(-3.8716 -38.91 38.91 -3.8716 -108.66 116.16)" x1="0" x2="1" y1="0" y2="0">
      <stop stop-color="#d6dbf2" offset="0"/>
      <stop stop-color="#4675c3" offset=".49438"/>
      <stop stop-color="#c2cbeb" offset="1"/>
    </linearGradient>
    <linearGradient id="l" gradientUnits="userSpaceOnUse" gradientTransform="matrix(-2.9038 -49.945 49.945 -2.9038 -108.79 117.59)" x1="0" x2="1" y1="0" y2="0">
      <stop stop-color="#7994d4" offset="0"/>
      <stop stop-color="#7994d4" offset=".0056152"/>
      <stop stop-color="#d6dbf2" offset=".24158"/>
      <stop stop-color="#4675c3" offset=".49438"/>
      <stop stop-color="#c2cbeb" offset=".71910"/>
      <stop stop-color="#7994d4" offset=".99438"/>
      <stop stop-color="#7994d4" offset="1"/>
    </linearGradient>
    <linearGradient id="m" gradientUnits="userSpaceOnUse" gradientTransform="matrix(0 -58.077 58.077 0 -108.59 126.47)" x1="0" x2="1" y1="0" y2="0">
      <stop stop-color="#d6dbf2" offset="0"/>
      <stop stop-color="#4675c3" offset=".57303"/>
      <stop stop-color="#c2cbeb" offset=".82022"/>
      <stop stop-color="#7994d4" offset="1"/>
    </linearGradient>
    <radialGradient id="a" gradientUnits="userSpaceOnUse" cy="0" cx="0" gradientTransform="matrix(68.581 0 0 68.581 -193.11 80.635)" r="1">
      <stop stop-color="#fdf7e5" offset="0"/>
      <stop stop-color="#f5df92" offset=".17224"/>
      <stop stop-color="#f5df92" offset=".23033"/>
      <stop stop-color="#f5df92" offset=".32497"/>
      <stop stop-color="#e8bd21" offset=".53371"/>
      <stop stop-color="#efcf5c" offset=".67536"/>
      <stop stop-color="#efcf5c" offset="1"/>
    </radialGradient>
    <radialGradient id="b" gradientUnits="userSpaceOnUse" cy="0" cx="0" gradientTransform="matrix(68.582 0 0 68.582 -193.11 80.632)" r="1">
      <stop stop-color="#fdf7e5" offset="0"/>
      <stop stop-color="#f5df92" offset=".17224"/>
      <stop stop-color="#f5df92" offset=".23033"/>
      <stop stop-color="#f5df92" offset=".32497"/>
      <stop stop-color="#e8bd21" offset=".53371"/>
      <stop stop-color="#efcf5c" offset=".67536"/>
      <stop stop-color="#efcf5c" offset="1"/>
    </radialGradient>
    <linearGradient id="n" gradientUnits="userSpaceOnUse" gradientTransform="matrix(18.197 17.229 -17.229 18.197 -189.22 68.442)" x1="0" x2="1" y1="0" y2="0">
      <stop stop-color="#fdf7e5" offset="0"/>
      <stop stop-color="#fdf7e5" offset=".18865"/>
      <stop stop-color="#e8bd21" offset=".43259"/>
      <stop stop-color="#e8bd21" offset=".51534"/>
      <stop stop-color="#efcf5c" offset="1"/>
    </linearGradient>
    <linearGradient id="o" gradientUnits="userSpaceOnUse" gradientTransform="matrix(31.555 58.658 -58.658 31.555 -218.57 66.282)" x1="0" x2="1" y1="0" y2="0">
      <stop stop-color="#e8bd21" offset="0"/>
      <stop stop-color="#fdf7e5" offset=".21349"/>
      <stop stop-color="#efcf5c" offset=".55057"/>
      <stop stop-color="#f8e9b5" offset=".82022"/>
      <stop stop-color="#efcf5c" offset="1"/>
    </linearGradient>
    <linearGradient id="p" gradientUnits="userSpaceOnUse" gradientTransform="matrix(36.333 0 0 36.333 -215.84 93.442)" x1="0" x2="1" y1="0" y2="0">
      <stop stop-color="#e8bd21" offset="0"/>
      <stop stop-color="#e8bd21" offset=".011230"/>
      <stop stop-color="#faf0cd" offset=".20409"/>
      <stop stop-color="#faf0cd" offset=".26967"/>
      <stop stop-color="#efcf5c" offset=".41640"/>
      <stop stop-color="#efcf5c" offset="1"/>
    </linearGradient>
    <linearGradient id="q" gradientUnits="userSpaceOnUse" gradientTransform="matrix(44.524 -65.237 65.237 44.524 -179.38 112.87)" x1="0" x2="1" y1="0" y2="0">
      <stop stop-color="#e8bd21" offset="0"/>
      <stop stop-color="#e8bd21" offset=".0056152"/>
      <stop stop-color="#e8bd21" offset=".18774"/>
      <stop stop-color="#f3dc87" offset=".35954"/>
      <stop stop-color="#f3dc87" offset=".40642"/>
      <stop stop-color="#e8bd21" offset=".58427"/>
      <stop stop-color="#f8e9b5" offset=".69010"/>
      <stop stop-color="#f8e9b5" offset=".75842"/>
      <stop stop-color="#efcf5c" offset=".85067"/>
      <stop stop-color="#efcf5c" offset="1"/>
    </linearGradient>
    <linearGradient id="r" gradientUnits="userSpaceOnUse" gradientTransform="matrix(33.296 -72.593 72.593 33.296 -168.59 123.67)" x1="0" x2="1" y1="0" y2="0">
      <stop stop-color="#fdf7e5" offset="0"/>
      <stop stop-color="#fdf7e5" offset=".048911"/>
      <stop stop-color="#e8bd21" offset=".33147"/>
      <stop stop-color="#efcf5c" offset=".45392"/>
      <stop stop-color="#efcf5c" offset=".48314"/>
      <stop stop-color="#e8bd21" offset=".56741"/>
      <stop stop-color="#e8bd21" offset=".61237"/>
      <stop stop-color="#e8bd21" offset=".62035"/>
      <stop stop-color="#f8e9b5" offset=".79776"/>
      <stop stop-color="#efcf5c" offset=".83839"/>
      <stop stop-color="#efcf5c" offset="1"/>
    </linearGradient>
    <linearGradient id="c" gradientUnits="userSpaceOnUse" gradientTransform="matrix(34.093 0 0 34.093 -196.1 123.41)" x1="0" x2="1" y1="0" y2="0">
      <stop stop-color="#e8bd21" offset="0"/>
      <stop stop-color="#e8bd21" offset=".55894"/>
      <stop stop-color="#faf0cd" offset=".80338"/>
      <stop stop-color="#faf0cd" offset=".84288"/>
      <stop stop-color="#faf0cd" offset="1"/>
    </linearGradient>
  </defs>
  <g transform="translate(216.36 -49.174)">
    <path d="m-108.32 96.584c-0.08 0.057-0.33 0.05-0.41-0.012-0.94-0.675-3.17-0.561-4.52-0.461-0.36 0.027-0.53-0.238-0.35-0.555 1.14-1.995 2.5-3.835 3.87-5.67l5.39-7.192c0.47-0.631 1.81-2.253 3.02-3.979 1.24-1.767 2.237-3.493 2.221-4.402-0.02-1.071-0.693-1.789-1.751-1.8-0.79-0.01-1.33 0.647-1.87 1.434-0.5 0.732-1.02 1.451-1.55 2.156-5.07 6.635-10.04 13.483-14.52 20.533-0.02 0.035-0.2 0.158-0.24 0.165-6.1 1.221-12.12 2.735-18.19 4.089-0.37 0.08-0.58-0.18-0.41-0.52 0.86-1.785 1.95-3.438 3.09-5.022 3.04-4.227 6.06-8.491 8.78-12.936 0.26-0.43 0.78-1.229 1.35-2.183 0.55-0.943 1.15-2.039 1.56-3.086 0.89-2.223 0.77-3.554-1.06-3.593-0.74-0.014-1.24 0.269-1.76 0.834-0.27 0.284-0.75 1.138-1.26 2.085-0.49 0.93-0.96 1.882-1.18 2.311-0.91 1.778-2.04 3.423-3.12 5.099-1.92 2.988-3.87 6.025-5.98 8.884-0.81 1.098-1.64 2.206-2.37 3.358-1.33 2.107-2.55 4.299-3.94 6.359-0.02 0.02-0.16 0.14-0.19 0.15-0.85 0.31-2.34 0.7-3.77 1.13-1.44 0.44-2.71 0.88-3.23 1.27-0.48 0.36-0.7 0.83-0.7 1.44-0.01 0.35 0.09 0.67 0.28 0.91 0.33 0.41 0.95 0.43 1.87 0.17 0.91-0.26 1.85-0.7 2.5-0.86 0.38-0.09 0.59 0.18 0.42 0.53-0.98 1.98-2.02 3.92-3.03 5.88-1.54 2.98-2.72 6.1-3.8 9.27-0.27 0.78-0.6 1.92-0.59 2.68 0.01 1.69 2.17 3.04 3.24 1.97 0.33-0.33 0.45-0.81 0.58-1.4 0.49-2.29 1.34-4.54 2.24-6.71 0.79-1.9 1.56-3.84 2.48-5.68 1.34-2.7 2.95-5.28 4.41-7.92 0.01-0.03 0.17-0.16 0.21-0.17 6.09-2.03 12.18-3.59 18.52-4.6 0.38-0.06 0.57 0.22 0.38 0.55-0.89 1.58-2.93 5.06-4.75 8.53-1.84 3.52-3.37 6.88-3.38 8.29 0 0.69 0.23 1.12 0.73 1.68 0.47 0.51 1.01 0.85 1.55 0.73 0.28-0.06 0.6-0.45 0.92-1.12 0.31-0.63 0.55-1.34 0.72-1.74 1.37-3.21 2.42-5.38 4.06-8.46 1.73-3.25 3.79-6.23 5.82-9.288 0.03-0.038 0.22-0.155 0.26-0.162 1-0.144 2.03-0.296 3.04-0.294 0.41 0.001 0.55 0.345 0.26 0.635-3.55 3.499-7.57 9.489-7.61 14.489-0.01 1.2 0.27 2.34 1.05 3.19 0.75 0.82 1.79 1.16 2.94 1.19 5.75 0.14 11.12-7.98 13.76-12.67-0.02-0.06-0.04-0.11-0.05-0.16-0.04-0.12-0.08-0.29-0.07-0.45 0.02-0.26 0.14-0.5 0.27-0.69 0.13-0.2 0.3-0.4 0.46-0.58 0.15-0.17 0.32-0.35 0.46-0.52s0.24-0.32 0.3-0.44c0.67-1.51 1.319-3.676 1.202-5.45-0.113-1.715-0.922-3.016-3.212-3.077-1.83-0.049-3.76 0.849-5.35 1.861m0.32 11.276c-0.23-0.23-0.29-0.37-0.29-0.41 0-0.01 0.02-0.08 0.1-0.19 0.06-0.1 0.16-0.19 0.23-0.27 0.26-0.25 0.8-0.76 1.43-1.41 0.64-0.67 1.36-1.47 2-2.29 0.63-0.83 1.19-1.71 1.47-2.51 0.27-0.793 0.31-1.636-0.33-2.227-0.61-0.569-1.44-0.522-2.21-0.244-0.79 0.281-1.64 0.831-2.44 1.455-1.61 1.256-3.12 2.886-3.71 3.546-1.35 1.5-2.55 3.17-3.46 5-0.63 1.26-1.37 3.11-1.37 4.63 0.01 0.56 0.17 1.16 0.6 1.62 0.42 0.46 0.96 0.65 1.54 0.68 1.49 0.06 2.88-0.97 3.82-1.82 1.42-1.31 2.52-2.91 3.35-4.62 0.07-0.14 0.01-0.38-0.12-0.47-0.16-0.1-0.4-0.28-0.61-0.47m29.446 0.34c0.076-0.17 0.305-0.26 0.473-0.19 8.294 3.31 17.676-8.234 13.942-12.029-0.634-0.646-1.389-0.934-2.311-0.961-3.57-0.101-8.165 3.011-10.627 5.62-2.83 3-6.602 8.67-6.629 12.74-0.005 0.93 0.287 1.76 0.797 2.55 0.542 0.84 1.31 1.54 2.194 2.01 5.035 2.68 12.095-2.15 15.771-5.85 0.427-0.43 1.309-1.33 2.072-2.29 0.8-1 1.34-1.92 1.309-2.42-0.032-0.53-0.367-0.82-0.963-0.85-0.266-0.02-0.617 0.18-1.015 0.55-0.376 0.35-0.711 0.79-0.941 1.09-1.586 2.07-3.545 3.83-5.739 5.23-2.012 1.29-6.184 3.39-8.687 1.27-1.1-0.93-1.18-2.17-0.916-3.33 0.128-0.57 0.345-1.14 0.584-1.69 0.231-0.52 0.48-1.02 0.686-1.45m4.467-2.22c2.235 0.05 4.845-1.9 6.391-3.79 0.776-0.95 1.349-1.96 1.455-2.788 0.119-0.944-0.384-1.628-1.531-1.688-1.699-0.089-3.744 1.651-4.746 2.566-1.481 1.35-2.735 2.99-3.914 4.54-0.165 0.22-0.096 0.47 0.155 0.57 0.589 0.24 1.451 0.58 2.19 0.59m-16.566-7.498c-0.416 0.257-0.782-0.138-0.495-0.534 0.2-0.273 0.513-0.66 0.848-1.106 0.325-0.432 0.672-0.924 0.952-1.425 0.582-1.048 0.726-1.879 0.217-2.392-0.259-0.261-0.429-0.338-0.789-0.365-0.578-0.042-1.372 0.63-2.221 1.7-0.814 1.024-1.532 2.215-1.956 2.817-5.587 7.953-10.353 16.323-15.053 24.813-0.61 1.1-0.86 2.27-0.11 3.11 0.29 0.32 0.6 0.53 0.93 0.55 0.35 0.01 0.73-0.28 1.12-0.84 0.19-0.26 0.36-0.55 0.5-0.83s0.26-0.54 0.36-0.74c1.04-2.22 2.23-4.47 3.58-6.52 0.12-0.17 0.36-0.21 0.52-0.1 5.072 3.49 11.043-0.97 14.678-4.96 2.589-2.84 6.148-7.77 6.181-11.58 0.021-2.365-1.03-3.475-3.402-3.527-2.063-0.047-4.069 0.826-5.86 1.929m-10.407 15.558c-0.11-0.11-0.14-0.35-0.06-0.48 1.129-1.7 2.19-3.45 3.275-5.18 1.52-2.42 3.258-4.87 5.534-6.72 1.186-0.97 3.392-2.559 5.203-2.47 1.049 0.053 1.852 0.602 1.879 1.8 0.089 3.95-10.279 18.14-15.831 13.05" fill-rule="evenodd" fill="#4675c3"/>
    <path fill="url(#m)" d="m-103.95 72.809c-0.5 0.728-1.01 1.44-1.55 2.14-5.07 6.644-10.04 13.502-14.53 20.56-6.1 1.222-12.12 2.735-18.2 4.093 0.85-1.755 1.93-3.387 3.06-4.964 3.05-4.236 6.07-8.509 8.79-12.959 1.06-1.73 6.29-9.33 1.55-9.428-0.87-0.017-1.47 0.333-2.05 0.954-0.6 0.658-2.04 3.62-2.48 4.478-0.91 1.767-2.03 3.403-3.1 5.068-1.92 2.982-3.87 6.011-5.97 8.864-0.82 1.105-1.65 2.221-2.39 3.38-1.33 2.103-2.54 4.292-3.94 6.355-1.71 0.62-5.93 1.58-7.1 2.46-0.58 0.43-0.85 1.02-0.85 1.73-0.01 0.41 0.1 0.83 0.36 1.15 0.99 1.22 3.46-0.26 4.75-0.56-0.98 1.97-2.02 3.91-3.03 5.87-1.55 3-2.73 6.13-3.82 9.32-0.27 0.78-0.62 1.97-0.61 2.8 0.01 1.76 2.4 3.71 3.88 2.24 0.42-0.42 0.55-1.03 0.67-1.58 0.49-2.28 1.34-4.51 2.23-6.66 0.78-1.89 1.55-3.82 2.46-5.65 1.35-2.7 2.95-5.28 4.41-7.91 6.07-2.02 12.14-3.57 18.46-4.579-1.79 3.159-8.16 13.959-8.18 16.999 0 0.81 0.29 1.33 0.83 1.93 0.48 0.53 1.15 1.01 1.91 0.84 0.94-0.21 1.55-2.27 1.89-3.07 1.37-3.2 2.42-5.37 4.05-8.44 1.73-3.23 3.78-6.21 5.81-9.251 0.98-0.14 1.99-0.291 2.98-0.289-3.56 3.52-7.68 9.6-7.72 14.75-0.01 1.26 0.28 2.5 1.15 3.44 0.84 0.92 1.99 1.28 3.21 1.31 6.07 0.15 11.6-8.42 14.17-13.01-0.06-0.16-0.17-0.43-0.16-0.61 0.05-0.67 1.16-1.42 1.46-2.11 1.36-3.066 2.717-8.911-2.34-9.045-1.95-0.052-3.95 0.896-5.55 1.918-1.07-0.772-3.47-0.625-4.76-0.53 1.13-1.982 2.47-3.809 3.84-5.633l5.39-7.19c0.95-1.267 5.352-6.5 5.314-8.611-0.023-1.254-0.844-2.151-2.114-2.165h-0.02c-1.01 0-1.65 0.843-2.16 1.595m-11.41 41.131c-0.5-0.02-0.93-0.18-1.28-0.56-0.35-0.37-0.49-0.87-0.49-1.37-0.01-1.42 0.7-3.21 1.33-4.47 0.88-1.79 2.06-3.43 3.4-4.91 1.17-1.32 5.99-6.441 7.83-4.733 1.89 1.757-3.53 6.903-4.57 7.903-0.17 0.16-0.44 0.46-0.45 0.71-0.01 0.45 0.75 0.99 1.06 1.2-0.82 1.68-1.89 3.24-3.27 4.5-0.9 0.84-2.15 1.73-3.44 1.73h-0.12m20.032-17.904c-5.592 7.964-10.372 16.344-15.072 24.854-0.62 1.11-0.99 2.5-0.07 3.53 0.32 0.35 0.71 0.64 1.2 0.67 1.11 0.05 1.95-1.81 2.33-2.62 1.03-2.21 2.21-4.44 3.56-6.47 5.355 3.69 11.556-1.07 15.154-5.02 2.584-2.83 6.243-7.86 6.278-11.822 0.022-2.566-1.187-3.847-3.764-3.904-2.171-0.048-4.25 0.868-6.062 1.984 0.79-1.091 3.41-3.96 1.979-5.402-0.322-0.322-0.574-0.441-1.027-0.474-0.025-0.002-0.051-0.003-0.076-0.003-1.599 0-3.59 3.483-4.43 4.677m-6.412 16.804c1.13-1.71 2.194-3.46 3.281-5.19 1.516-2.41 3.227-4.82 5.456-6.63 1.208-0.99 3.303-2.468 4.95-2.386 0.906 0.045 1.504 0.483 1.526 1.436 0.079 3.52-7.451 13.72-12.758 13.72-0.895 0-1.725-0.29-2.455-0.95m23.465-13.38c-2.837 3.01-6.702 8.77-6.729 13-0.007 1 0.315 1.91 0.856 2.75 0.576 0.89 1.393 1.63 2.331 2.13 5.304 2.82 12.565-2.25 16.207-5.92 0.867-0.86 3.573-3.65 3.489-4.99-0.046-0.76-0.574-1.16-1.313-1.2-0.863-0.05-1.814 1.19-2.27 1.79-1.559 2.03-3.484 3.76-5.646 5.14-2.074 1.33-5.984 3.22-8.246 1.3-1.902-1.61-0.365-4.3 0.45-6.03 8.179 3.26 18.712-8.199 14.344-12.638-0.711-0.723-1.561-1.042-2.564-1.07-0.061-0.002-0.122-0.003-0.182-0.003-3.705 0.001-8.287 3.154-10.727 5.741m3.267 5.23c-0.658-0.02-1.454-0.33-2.057-0.57 1.183-1.56 2.419-3.17 3.868-4.495 1.041-0.949 2.962-2.548 4.479-2.467 3.737 0.195-2.112 7.532-6.223 7.532h-0.067"/>
    <path fill="url(#l)" d="m-104.32 72.067c-0.5 0.727-1.01 1.441-1.55 2.139-5.07 6.645-10.04 13.503-14.53 20.561-6.1 1.22-12.12 2.736-18.2 4.092 0.85-1.753 1.92-3.387 3.06-4.964 3.05-4.235 6.07-8.506 8.79-12.958 1.06-1.731 6.29-9.331 1.54-9.427-0.86-0.018-1.46 0.332-2.04 0.951-0.6 0.659-2.05 3.622-2.49 4.48-0.9 1.766-2.02 3.402-3.1 5.067-1.92 2.982-3.86 6.013-5.96 8.866-0.82 1.105-1.65 2.22-2.39 3.379-1.33 2.103-2.55 4.292-3.94 6.357-1.71 0.62-5.93 1.58-7.11 2.46-0.57 0.43-0.84 1.01-0.85 1.73 0 0.41 0.11 0.83 0.37 1.15 0.99 1.22 3.46-0.26 4.75-0.57-0.98 1.98-2.02 3.92-3.03 5.88-1.55 3-2.73 6.13-3.82 9.32-0.27 0.78-0.62 1.97-0.61 2.8 0 1.76 2.4 3.7 3.88 2.24 0.42-0.42 0.55-1.03 0.67-1.59 0.49-2.27 1.34-4.5 2.23-6.65 0.78-1.89 1.55-3.82 2.46-5.66 1.34-2.69 2.95-5.27 4.4-7.9 6.08-2.02 12.15-3.58 18.47-4.58-1.79 3.15-8.16 13.95-8.18 17 0 0.81 0.29 1.33 0.83 1.93 0.48 0.53 1.15 1.01 1.91 0.84 0.94-0.21 1.55-2.27 1.89-3.07 1.37-3.2 2.42-5.37 4.05-8.44 1.72-3.23 3.78-6.21 5.8-9.254 0.99-0.14 2-0.29 2.99-0.287-3.56 3.521-7.68 9.601-7.72 14.751-0.01 1.25 0.28 2.49 1.15 3.44 0.84 0.92 1.99 1.28 3.21 1.31 6.07 0.15 11.6-8.42 14.17-13.02-0.06-0.16-0.17-0.42-0.16-0.61 0.05-0.66 1.16-1.42 1.46-2.1 1.35-3.067 2.716-8.914-2.34-9.047-1.95-0.052-3.95 0.897-5.55 1.918-1.08-0.773-3.48-0.626-4.76-0.529 1.13-1.983 2.47-3.811 3.84-5.635l5.39-7.19c0.95-1.267 5.351-6.5 5.31-8.611-0.02-1.254-0.84-2.15-2.11-2.165h-0.02c-1.01 0-1.65 0.843-2.16 1.596m-11.41 41.133c-0.5-0.02-0.93-0.19-1.28-0.56s-0.49-0.87-0.49-1.38c-0.01-1.42 0.7-3.2 1.32-4.46 0.89-1.79 2.07-3.43 3.4-4.92 1.18-1.31 6-6.433 7.84-4.724 1.89 1.755-3.53 6.904-4.57 7.904-0.18 0.16-0.44 0.45-0.45 0.71-0.01 0.44 0.75 0.98 1.06 1.2-0.82 1.67-1.89 3.24-3.27 4.5-0.91 0.84-2.15 1.73-3.45 1.73h-0.11m20.032-17.905c-5.592 7.955-10.372 16.345-15.072 24.855-0.62 1.1-0.99 2.49-0.07 3.53 0.32 0.35 0.71 0.64 1.2 0.67 1.11 0.05 1.95-1.82 2.32-2.62 1.04-2.21 2.22-4.44 3.56-6.47 5.363 3.69 11.565-1.07 15.164-5.02 2.583-2.83 6.242-7.86 6.278-11.823 0.021-2.568-1.188-3.849-3.765-3.904-2.17-0.049-4.25 0.866-6.062 1.984 0.791-1.091 3.41-3.962 1.978-5.404-0.32-0.321-0.572-0.441-1.026-0.472-0.025-0.002-0.051-0.004-0.078-0.004-1.599 0-3.588 3.484-4.427 4.678m-6.412 16.805c1.13-1.71 2.194-3.46 3.281-5.19 1.514-2.42 3.227-4.82 5.455-6.63 1.208-0.988 3.304-2.47 4.95-2.389 0.906 0.046 1.502 0.483 1.524 1.433 0.081 3.526-7.449 13.726-12.757 13.726-0.893 0-1.723-0.29-2.453-0.95m23.464-13.383c-2.836 3.013-6.701 8.773-6.729 12.993-0.006 1.01 0.313 1.91 0.856 2.75 0.577 0.9 1.394 1.64 2.331 2.14 5.304 2.82 12.565-2.25 16.208-5.92 0.866-0.87 3.572-3.65 3.489-4.99-0.047-0.76-0.575-1.16-1.313-1.2-0.866-0.05-1.815 1.19-2.272 1.78-1.558 2.04-3.483 3.77-5.644 5.15-2.077 1.33-5.985 3.22-8.247 1.3-1.902-1.61-0.367-4.3 0.45-6.04 8.179 3.27 18.711-8.191 14.345-12.629-0.711-0.723-1.562-1.043-2.567-1.071-0.059-0.002-0.119-0.004-0.18-0.004-3.704 0.002-8.286 3.154-10.727 5.741m3.267 5.223c-0.657-0.01-1.454-0.32-2.056-0.57 1.182-1.55 2.417-3.17 3.868-4.488 1.041-0.947 2.962-2.548 4.478-2.467 3.737 0.197-2.112 7.525-6.223 7.525h-0.067"/>
    <path fill="url(#k)" d="m-103.85 72.538c-0.5 0.732-1.02 1.451-1.56 2.156-5.06 6.635-10.03 13.483-14.51 20.533-0.02 0.035-0.2 0.157-0.24 0.165-6.1 1.222-12.12 2.735-18.19 4.09-0.38 0.084-0.58-0.177-0.42-0.523 0.86-1.782 1.95-3.435 3.1-5.018 3.04-4.229 6.06-8.493 8.77-12.938 0.27-0.43 0.79-1.228 1.36-2.183 0.55-0.941 1.15-2.038 1.56-3.086 0.88-2.222 0.77-3.555-1.07-3.592-0.73-0.015-1.23 0.268-1.76 0.833-0.26 0.286-0.75 1.139-1.25 2.086-0.49 0.929-0.96 1.881-1.18 2.311-0.91 1.777-2.04 3.422-3.12 5.098-1.92 2.989-3.87 6.025-5.98 8.885-0.81 1.097-1.64 2.205-2.37 3.358-1.33 2.106-2.55 4.297-3.95 6.367-0.01 0.01-0.16 0.13-0.18 0.14-0.85 0.31-2.35 0.71-3.77 1.14-1.44 0.43-2.71 0.87-3.24 1.27-0.47 0.35-0.69 0.82-0.7 1.43 0 0.35 0.1 0.68 0.29 0.92 0.33 0.4 0.95 0.42 1.87 0.16 0.91-0.25 1.85-0.7 2.5-0.86 0.38-0.08 0.59 0.18 0.42 0.53-0.98 1.98-2.02 3.92-3.03 5.88-1.55 2.98-2.72 6.1-3.81 9.27-0.26 0.79-0.59 1.92-0.58 2.68 0 1.69 2.17 3.04 3.24 1.97 0.33-0.32 0.45-0.81 0.58-1.4 0.49-2.29 1.34-4.54 2.24-6.71 0.79-1.9 1.56-3.84 2.48-5.68 1.34-2.7 2.95-5.28 4.41-7.92 0.01-0.03 0.17-0.16 0.2-0.17 6.1-2.03 12.18-3.59 18.53-4.596 0.38-0.06 0.57 0.215 0.38 0.55-0.9 1.576-2.93 5.056-4.75 8.526-1.84 3.52-3.37 6.88-3.38 8.3-0.01 0.68 0.23 1.11 0.73 1.67 0.46 0.51 1.01 0.85 1.55 0.73 0.28-0.06 0.6-0.45 0.92-1.12 0.31-0.63 0.55-1.34 0.72-1.74 1.37-3.2 2.42-5.38 4.06-8.46 1.73-3.25 3.79-6.23 5.82-9.287 0.03-0.038 0.21-0.155 0.26-0.162 1-0.144 2.03-0.295 3.04-0.294 0.41 0.001 0.55 0.345 0.26 0.636-3.55 3.497-7.57 9.487-7.61 14.497-0.01 1.19 0.27 2.33 1.05 3.18 0.75 0.83 1.79 1.16 2.94 1.19 5.75 0.14 11.12-7.97 13.76-12.67-0.02-0.05-0.04-0.11-0.06-0.16-0.03-0.12-0.07-0.29-0.06-0.45 0.02-0.26 0.13-0.5 0.26-0.69 0.14-0.2 0.3-0.4 0.47-0.58 0.15-0.17 0.32-0.35 0.46-0.52s0.24-0.32 0.3-0.44c0.66-1.51 1.32-3.674 1.2-5.448-0.11-1.715-0.92-3.016-3.21-3.077-1.84-0.049-3.76 0.848-5.35 1.861-0.09 0.056-0.33 0.05-0.41-0.012-0.94-0.675-3.17-0.562-4.52-0.461-0.36 0.027-0.53-0.239-0.35-0.554 1.14-1.998 2.5-3.835 3.87-5.672l5.39-7.192c0.47-0.631 1.81-2.252 3.02-3.978 1.24-1.766 2.23-3.494 2.22-4.401-0.02-1.072-0.69-1.791-1.75-1.802h-0.02c-0.78 0-1.32 0.653-1.85 1.434m-11.73 41.292c-0.57-0.03-1.11-0.22-1.53-0.68-0.43-0.46-0.59-1.06-0.6-1.62 0-1.52 0.74-3.37 1.37-4.63 0.91-1.83 2.11-3.5 3.46-5 0.59-0.66 2.1-2.291 3.71-3.543 0.8-0.625 1.65-1.176 2.44-1.455 0.77-0.279 1.6-0.326 2.21 0.243 0.64 0.59 0.6 1.433 0.33 2.227-0.28 0.798-0.84 1.678-1.48 2.508-0.63 0.82-1.36 1.63-1.99 2.29-0.63 0.65-1.17 1.16-1.43 1.42-0.08 0.07-0.17 0.16-0.24 0.26-0.07 0.11-0.09 0.18-0.09 0.2 0 0.03 0.06 0.17 0.29 0.4 0.21 0.19 0.45 0.37 0.61 0.47 0.13 0.09 0.19 0.33 0.12 0.47-0.83 1.71-1.93 3.31-3.35 4.62-0.91 0.83-2.25 1.82-3.7 1.82h-0.13m22.308-20.88c-0.813 1.025-1.532 2.216-1.955 2.819-5.593 7.951-10.353 16.321-15.053 24.821-0.61 1.09-0.87 2.26-0.11 3.1 0.29 0.32 0.59 0.53 0.93 0.55 0.35 0.01 0.73-0.28 1.12-0.83 0.19-0.27 0.35-0.56 0.5-0.84 0.14-0.28 0.26-0.54 0.36-0.74 1.04-2.22 2.23-4.47 3.58-6.51 0.11-0.17 0.36-0.22 0.52-0.11 5.072 3.49 11.041-0.97 14.677-4.96 2.589-2.84 6.146-7.77 6.18-11.575 0.021-2.369-1.029-3.479-3.401-3.531-2.064-0.045-4.069 0.826-5.861 1.929-0.415 0.257-0.781-0.138-0.495-0.532 0.199-0.275 0.513-0.66 0.848-1.107 0.326-0.434 0.674-0.924 0.953-1.426 0.581-1.048 0.726-1.879 0.216-2.391-0.259-0.26-0.427-0.339-0.788-0.365-0.018-0.001-0.035-0.002-0.054-0.002-0.573 0-1.344 0.664-2.167 1.7m-8.918 19.68c-0.11-0.11-0.15-0.35-0.06-0.48 1.13-1.7 2.19-3.45 3.274-5.18 1.519-2.42 3.258-4.87 5.536-6.72 1.184-0.965 3.39-2.558 5.201-2.467 1.047 0.052 1.851 0.6 1.879 1.795 0.076 3.362-7.423 14.142-13.079 14.142-0.991 0-1.921-0.33-2.751-1.09m23.981-13.396c-2.829 2.996-6.602 8.676-6.627 12.746-0.007 0.92 0.283 1.75 0.796 2.54 0.541 0.84 1.309 1.54 2.194 2.01 5.035 2.68 12.095-2.15 15.77-5.85 0.427-0.43 1.309-1.33 2.073-2.29 0.799-1 1.339-1.91 1.309-2.42-0.033-0.53-0.368-0.82-0.964-0.85-0.265-0.02-0.616 0.18-1.013 0.55-0.377 0.35-0.712 0.79-0.941 1.09-1.588 2.07-3.547 3.83-5.74 5.23-2.013 1.29-6.184 3.4-8.688 1.27-1.099-0.93-1.18-2.17-0.916-3.33 0.13-0.57 0.346-1.14 0.585-1.69 0.23-0.52 0.481-1.02 0.685-1.45 0.077-0.17 0.305-0.26 0.474-0.19 8.293 3.31 17.675-8.233 13.942-12.028-0.636-0.645-1.39-0.934-2.312-0.961-0.056-0.001-0.113-0.002-0.17-0.002-3.544 0-8.033 3.055-10.457 5.625m2.991 5.346c-0.74-0.02-1.601-0.36-2.191-0.6-0.25-0.1-0.319-0.35-0.155-0.57 1.179-1.55 2.434-3.19 3.914-4.541 1.003-0.913 3.046-2.653 4.746-2.564 1.148 0.061 1.651 0.745 1.531 1.688-0.106 0.828-0.678 1.837-1.454 2.787-1.529 1.87-4.099 3.8-6.317 3.8h-0.074"/>
    <path d="m-136.82 123.4h-2.65c-0.04-0.41-0.2-0.73-0.5-0.95-0.29-0.22-0.7-0.33-1.22-0.33-0.48 0.01-0.84 0.17-1.09 0.49-0.25 0.31-0.42 0.71-0.51 1.17-0.08 0.47-0.12 0.94-0.12 1.4s0.04 0.9 0.13 1.34 0.26 0.81 0.51 1.1 0.61 0.45 1.08 0.46c1.08-0.01 1.65-0.46 1.72-1.34h2.65c0 0.76-0.21 1.37-0.63 1.82-0.41 0.46-0.95 0.79-1.62 0.99-0.66 0.2-1.37 0.3-2.12 0.29-1.43 0-2.51-0.41-3.25-1.23s-1.12-1.99-1.12-3.53c0-1.53 0.38-2.7 1.12-3.5s1.82-1.21 3.25-1.23c0.75-0.01 1.46 0.09 2.12 0.28 0.67 0.19 1.21 0.51 1.62 0.96 0.42 0.45 0.63 1.05 0.63 1.81" fill-rule="evenodd" fill="#6889ce"/>
    <path d="m-136.82 123.4h-2.65c-0.04-0.41-0.2-0.73-0.5-0.95-0.29-0.22-0.7-0.33-1.22-0.33-0.48 0.01-0.84 0.17-1.09 0.49-0.25 0.31-0.42 0.71-0.51 1.17-0.08 0.47-0.12 0.94-0.12 1.4s0.04 0.9 0.13 1.34 0.26 0.81 0.51 1.1 0.61 0.45 1.08 0.46c1.08-0.01 1.65-0.46 1.72-1.34h2.65c0 0.76-0.21 1.37-0.63 1.82-0.41 0.46-0.95 0.79-1.62 0.99-0.66 0.2-1.37 0.3-2.12 0.29-1.43 0-2.51-0.41-3.25-1.23s-1.12-1.99-1.12-3.53c0-1.53 0.38-2.7 1.12-3.5s1.82-1.21 3.25-1.23c0.75-0.01 1.46 0.09 2.12 0.28 0.67 0.19 1.21 0.51 1.62 0.96 0.42 0.45 0.63 1.05 0.63 1.81z" stroke="#6889ce" stroke-miterlimit="3.864" stroke-width=".51517" fill="none"/>
    <path d="m-129.42 129.66h-2.53v-9.12h2.54v3.62h3.09v-3.62h2.53v9.12h-2.53v-3.74h-3.1v3.74z" fill-rule="evenodd" fill="#6889ce"/>
    <path d="m-129.42 129.66h-2.53v-9.12h2.54v3.62h3.09v-3.62h2.53v9.12h-2.53v-3.74h-3.1v3.74z" stroke="#6889ce" stroke-miterlimit="3.864" stroke-width=".51517" fill="none"/>
    <path d="m-115.53 126.11h2.43l-1.16-3.78h-0.04l-1.23 3.78zm-1.24 3.55h-2.53l3.6-9.12h3.08l3.6 9.12h-2.85l-0.61-1.78h-3.7l-0.59 1.78z" fill-rule="evenodd" fill="#6889ce"/>
    <path d="m-115.53 126.11h2.43l-1.16-3.78h-0.04l-1.23 3.78zm-1.24 3.55h-2.53l3.6-9.12h3.08l3.6 9.12h-2.85l-0.61-1.78h-3.7l-0.59 1.78z" stroke="#6889ce" stroke-miterlimit="3.864" stroke-width=".51517" fill="none"/>
    <path d="m-104.58 129.66v-9.12h3.54l3.056 6.8 0.026-0.03v-6.77h2.273v9.12h-3.499l-3.096-6.98h-0.02v6.98h-2.28z" fill-rule="evenodd" fill="#6889ce"/>
    <path d="m-104.58 129.66v-9.12h3.54l3.056 6.8 0.026-0.03v-6.77h2.273v9.12h-3.499l-3.096-6.98h-0.02v6.98h-2.28z" stroke="#6889ce" stroke-miterlimit="3.864" stroke-width=".51517" fill="none"/>
    <path d="m-90.535 129.66v-9.12h3.536l3.056 6.8 0.025-0.03v-6.77h2.273v9.12h-3.498l-3.094-6.98h-0.026v6.98h-2.272z" fill-rule="evenodd" fill="#6889ce"/>
    <path d="m-90.535 129.66v-9.12h3.536l3.056 6.8 0.025-0.03v-6.77h2.273v9.12h-3.498l-3.094-6.98h-0.026v6.98h-2.272z" stroke="#6889ce" stroke-miterlimit="3.864" stroke-width=".51517" fill="none"/>
    <path d="m-69.498 129.66h-6.947v-9.12h6.947v1.77h-4.419v1.88h4.065v1.77h-4.065v1.93h4.419v1.77z" fill-rule="evenodd" fill="#6889ce"/>
    <path d="m-69.498 129.66h-6.947v-9.12h6.947v1.77h-4.419v1.88h4.065v1.77h-4.065v1.93h4.419v1.77z" stroke="#6889ce" stroke-miterlimit="3.864" stroke-width=".51517" fill="none"/>
    <path d="m-57.865 129.66h-6.656v-9.12h2.526v7.35h4.13v1.77z" fill-rule="evenodd" fill="#6889ce"/>
    <path d="m-57.865 129.66h-6.656v-9.12h2.526v7.35h4.13v1.77z" stroke="#6889ce" stroke-miterlimit="3.864" stroke-width=".51517" fill="none"/>
    <path fill="url(#j)" d="m-141.38 119.61c-1.42 0.01-2.51 0.42-3.25 1.23-0.74 0.8-1.11 1.97-1.12 3.5 0.01 1.54 0.38 2.71 1.12 3.53 0.74 0.81 1.83 1.22 3.25 1.23 0.75 0.01 1.46-0.09 2.13-0.29 0.66-0.2 1.2-0.53 1.62-0.99 0.41-0.45 0.62-1.06 0.62-1.82h-2.65c-0.07 0.88-0.64 1.32-1.72 1.33-0.47-0.01-0.83-0.16-1.08-0.45s-0.42-0.66-0.51-1.1-0.13-0.89-0.12-1.34c-0.01-0.47 0.03-0.93 0.12-1.4s0.25-0.86 0.5-1.17c0.25-0.32 0.61-0.48 1.09-0.5 0.52 0.01 0.93 0.12 1.23 0.34 0.29 0.22 0.46 0.54 0.49 0.95h2.65c0-0.76-0.21-1.36-0.62-1.81-0.42-0.45-0.96-0.77-1.62-0.96-0.65-0.19-1.34-0.28-2.07-0.28h-0.06"/>
    <path fill="url(#i)" d="m-126.5 119.8v3.61h-3.1v-3.61h-2.53v9.12h2.52v-3.74h3.11v3.74h2.52v-9.12h-2.52z"/>
    <path fill="url(#h)" d="m-115.89 119.8-3.59 9.12h2.52l0.6-1.78h3.7l0.6 1.78h2.85l-3.59-9.12h-3.09zm1.41 1.78h0.03l1.17 3.79h-2.44l1.24-3.79z"/>
    <path fill="url(#g)" d="m-98.144 119.8v6.77l-0.025 0.03-3.061-6.8h-3.53v9.12h2.27v-6.98h0.03l3.091 6.98h3.498v-9.12h-2.273z"/>
    <path fill="url(#f)" d="m-84.102 119.8v6.77l-0.027 0.03-3.055-6.8h-3.537v9.12h2.275v-6.98h0.024l3.093 6.98h3.5v-9.12h-2.273z"/>
    <path fill="url(#e)" d="m-76.629 119.8v9.12h6.946v-1.77h-4.42v-1.93h4.067v-1.77h-4.067v-1.88h4.42v-1.77h-6.946z"/>
    <path fill="url(#d)" d="m-64.706 119.8v9.12h6.656v-1.77h-4.131v-7.35h-2.525z"/>
    <path d="m-215 67.692c17.04 7.466 31.39 30.661 35.25 35.468 4.55-5.301 20.28-33.189 42.19-52.648-31.34 50.378-25.93 67.468-25.28 77.588-5.85 1.01-26.13 1.01-32.28 0-0.12-5.5 7.33-27.61-19.88-60.408z" stroke="#f3dc87" stroke-miterlimit="3.864" stroke-width=".12879" fill="none"/>
    <path fill="url(#c)" d="m-196.1 128.65c0.17 0.3 0.48 0.56 0.78 0.61 3.07 0.5 9.52 0.76 16.01 0.77 6.78 0.01 13.59-0.25 16.65-0.77 0.24-0.04 0.48-0.21 0.65-0.42-2.92-2.01-8.96-6.17-17.48-12.06-2.5 1.8-8 5.7-16.61 11.87"/>
    <path fill="url(#r)" d="m-151.27 66.342c-2.35 5.109-10.59 23.081-24.37 53.088l13.63 9.41c0.17-0.22 0.28-0.49 0.27-0.75-0.16-2.52-0.62-5.47-0.73-9.27-0.11-3.74 0.13-8.32 1.35-14.13 2.44-11.664 8.86-28.406 24.49-53.529 0.35-0.558 0.29-1.079 0-1.44l-14.64 16.621z"/>
    <path fill="url(#q)" d="m-138.32 49.741c-11.04 9.809-20.51 21.722-27.76 31.816-1.93 2.678-3.7 5.232-5.31 7.587-1.41 2.067-2.72 4.017-3.87 5.73-1.88 2.81-3.41 5.077-4.49 6.526l0.03 15.2 4.07 2.82c14.06-30.62 22.07-48.056 24.37-53.069 4.28-4.859 9.23-10.49 14.65-16.63-0.19-0.224-0.47-0.359-0.78-0.359-0.29 0-0.61 0.113-0.91 0.379"/>
    <path fill="url(#p)" d="m-215.84 66.765 16.09 15.081c7.75 20.324 13.17 32.884 15.29 38.454l4.95-3.54s-0.15-9.31-0.24-15.36c-1.11-1.501-2.7-3.783-4.66-6.453-2.02-2.749-4.44-5.931-7.19-9.18-6.23-7.363-14.21-15.194-22.97-19.032-0.23-0.103-0.45-0.148-0.65-0.148-0.24 0-0.45 0.066-0.62 0.178"/>
    <path fill="url(#o)" d="m-215.88 68.465c13.49 16.256 18.34 29.797 19.86 39.895 0.76 5.05 0.7 9.27 0.44 12.57-0.26 3.41-0.7 5.86-0.67 7.25 0 0.15 0.06 0.32 0.15 0.47l11.64-8.35c-2.18-5.72-7.17-18.79-14.73-38.594l-16.65-14.941c-0.48 0.322-0.59 1.03-0.04 1.7"/>
    <path d="m-191.58 85.704c5.42 6.419 9.59 12.582 11.84 15.636 1.09-1.449 2.59-3.68 4.5-6.528 2.46-3.672 5.54-8.272 9.17-13.317 7.26-10.094 16.73-22.006 27.77-31.816 1.12-0.997 2.48 0.144 1.68 1.421-15.63 25.122-22.04 41.865-24.49 53.53-1.22 5.81-1.45 10.38-1.35 14.13 0.11 3.79 0.57 6.75 0.73 9.27 0.04 0.51-0.42 1.08-0.92 1.17-5.98 1.03-26.38 1.03-32.65 0-0.45-0.07-0.93-0.63-0.94-1.08-0.03-1.39 0.42-3.84 0.68-7.25 0.25-3.3 0.32-7.52-0.44-12.57-1.52-10.1-6.37-23.641-19.86-39.897-0.91-1.103-0.01-2.305 1.3-1.73 8.77 3.838 16.75 11.669 22.98 19.031z" stroke="#e8bd21" stroke-miterlimit="3.864" stroke-width=".25758" fill="none"/>
    <path fill="url(#n)" d="m-192.32 77.268c0 6.859 5.56 12.419 12.42 12.419s12.43-5.56 12.43-12.419c0-6.861-5.57-12.421-12.43-12.421s-12.42 5.56-12.42 12.421"/>
    <path d="m-179.89 64.846c6.85 0 12.42 5.561 12.42 12.421s-5.57 12.421-12.42 12.421c-6.86 0-12.43-5.561-12.43-12.421s5.57-12.421 12.43-12.421z" stroke="#e8bd21" stroke-miterlimit="3.864" stroke-width=".25758" fill="none"/>
    <path fill="url(#b)" d="m-191.2 77.268c0 6.243 5.06 11.308 11.3 11.308 6.25 0 11.31-5.065 11.31-11.308 0-6.246-5.06-11.309-11.31-11.309-6.24 0-11.3 5.063-11.3 11.309"/>
    <path d="m-191.2 77.267c0-6.246 5.06-11.308 11.31-11.308 6.24 0 11.3 5.062 11.3 11.308 0 6.245-5.06 11.308-11.3 11.308-6.25 0-11.31-5.063-11.31-11.308z" stroke="#f3dc87" stroke-miterlimit="3.864" stroke-width=".12995" fill="none"/>
    <path fill="url(#a)" d="m-179.75 103.16c-3.86-4.806-18.21-28.002-35.25-35.468 27.21 32.798 19.76 54.908 19.88 60.408 6.15 1.01 26.43 1.01 32.28 0-0.65-10.12-6.06-27.21 25.28-77.587-21.91 19.459-37.64 47.346-42.19 52.647"/>
  </g>
</svg>
