<svg xmlns="http://www.w3.org/2000/svg" width="510.23" height="391.69" viewBox="0 0 510.23409 391.68853"><g transform="translate(-20-20)"><g fill="#007dc5"><path d="m278.04 411.59c-86.15 1.502-190.56-14.221-258.04-43.34v-26.24c70.92 30.09 167.39 46.02 253.53 44.542 92.94-1.611 189.71-17.241 256.7-43.542v25.455c-74.952 26.652-159.82 41.555-252.2 43.13"/><path d="m64.854 20l-.018 97.15c0 0 30.515-6.352 57.33-6.082 44.586.448 66.925 24.415 68.5 55.707.404 7.955.321 12.341.321 20.892v126.48h-47.02v-129.18c0-15.806 1-35.448-34.517-35.28-25.303.12-43.16 4.982-43.16 4.982v159.48h-45.889v-291.22l44.45-2.928"/><path d="m350.28 110.83c-.571-.109-41.983.949-66.45 6.569-28.533 6.52-46.825 23.757-49.38 50.1-.492 5.062-.725 8.285-.725 19.85v126.8h46.983l-.003-129.65c0-11.375.885-18.598 8.318-25.27 8.424-7.551 27.639-8.648 38.627-9.545 7.537-.617 22.623-1.315 22.623-1.315l.003-37.539"/></g><path d="m466.4 314.14v-228.53l-58.57 27.851v-54.24l63.863-33.14h56.5v288.06h-61.789" fill="#dbad00"/></g></svg>