<svg xmlns="http://www.w3.org/2000/svg" viewBox="0 0 566.93 637.8"><g transform="scale(.00004)" fill-rule="evenodd"><path d="m7843830 11846000c-2451780 42990-5423090-404210-7343830-1233260 0 0 0-747210 0-747210 2018510 856230 4763880 1310270 7215530 1267810 2645450-45670 5399520-490870 7306190-1239550 0 0 140 724440 140 724440-2133160 758870-4548650 1182900-7178030 1227770m-6067450-11145500c0 0-400 2765050-400 2765050 0 0 868290-180940 1631980-173440 1268750 12860 1904400 694980 1949530 1585640 11520 226480 9110 350900 9110 594260 0 0 140 3600130 140 3600130h-1338400c0 0-130-3676610-130-3676610 0-449750 28520-1008920-982270-1004100-720290 3750-1228710 141970-1228710 141970 0 0 140 4538740 140 4538740l-1305990 130-130-8288730 1265130-83040m8123870 2584650c-16340-2820-1195090 27050-1891540 187230-811910 185370-1332370 675970-1405230 1425860-14070 144240-20490 236120-20490 565060 0 0 130 3608840 130 3608840h1337190c0 0-400-3690000-400-3690000 0-323720 25450-529170 236790-719220 239610-214830 786590-246170 1099460-271620 214290-17540 643820-37230 643820-37230 0 0 270-1068920 270-1068920" fill="#007dc5"/><path d="m13814500 5196030c580730-700480 1266870-1485860 1266870-2448440 0-1459870-1166150-2324010-2560400-2324010-1352320 0-2425130 850880-2542990 2135430 0 0 1329690 0 1329690 0 92410-678100 733150-931640 1184370-931640 651180 0 1171920 474800 1171920 1056200 130 515110-257290 902040-558100 1267010 0 0-3055960 3683840-3055960 3683840v1437640h4972010v-1204730h-3440480c0 0 2233070-2671300 2233070-2671300m-13314300 8105640l140 4240060h530780c0 0-140-944360-140-944360 0-179340 66970-288090 246310-343270 157500-48490 293580 5350 380770 124420 166610 227550 744940 1163210 744940 1163210 0 0 651980 0 651980 0 0 0-732480-1133880-816320-1275040-174520-294120-385860-394300-554220-422300 134470-138350 1232320-1267670 1232320-1267670 0 0-679840 0-679840 0 0 0-1039590 1058340-1205940 1227630 0-248720 0-2502680 0-2502680 0 0-530780 0-530780 0m4756780 1275050c0 0 0 1812920 0 1812920 130 446260-239070 702340-656000 702340-411720 0-638460-249510-638460-702340 0 0 0-1812920 0-1812920h-530920c0 0 0 1876540 0 1876540 0 360010 103270 642740 306980 840690 185090 184700 453500 282470 775610 282470 286880 0 592120-128710 748820-324650 0 89200 0 289960 0 289960 0 0 525020 0 525020 0v-2965010h-531050m1530190-1275050c0 0 130 3423870 130 3423870 0 511090 291980 816190 781100 816190 0 0 358270 0 358270 0v-472780c0 0-282860 0-282860 0-240410 0-325590-94290-325590-360550 0 0 0-3406730 0-3406730h-531050m1802210 399790c0 0 0 793150 0 892800-80500 0-359080 0-359080 0 0 0 0 432070 0 432070 0 0 278580 0 359080 0 0 106340 130 1693590 130 1693590 0 499170 308850 821810 786990 821810 0 0 352520 0 352520 0v-472780c0 0-277110 0-277110 0-223000 0-331350-117860-331350-360550 0 0-140-1575730-140-1682070 93490 0 608600 0 608600 0 0 0 0-432070 0-432070 0 0-515110 0-608600 0 0-99650 0-892800 0-892800 0 0-531040 0-531040 0m3636820 875120c0 0 0 1812920 0 1812920 0 446400-239070 702350-655870 702350-411840 130-638730-249380-638730-702350 0 0-130-1812780-130-1812780h-530780c0 0 0 1876540 0 1876540 0 359740 103260 642470 306980 840690 184820 184560 453230 282470 775600 282470 286760-130 576190-115050 748690-324790 0 89340 0 290100 0 290100 0 0 525150 0 525150 0v-2965150h-530910m2102350 300410c0-95360 0-300410 0-300410 0 0-530910 0-530910 0l140 2965150h530770c0 0 0-1807160 0-1807160 0-416940 257830-708240 627080-708240 160190 0 260370 32680 369390 120670 0 0 75540 60940 75540 60940l99510-586620c0 0-44200-16340-44200-16340-114910-42460-240810-62950-384520-62950-293310 0-587970 127230-742800 334960" fill="#f8941e"/></g></svg>