<svg xmlns="http://www.w3.org/2000/svg" viewBox="0 0 566.93 425.2"><g fill-rule="evenodd"><path d="m279.97 411.78c-87.57 1.523-193.67-14.448-262.26-44.05v-26.668c72.08 30.585 170.13 46.781 257.68 45.27 94.46-1.642 192.8-17.526 260.9-44.25v25.864c-76.17 27.09-162.43 42.22-256.32 43.834m-216.66-397.99l-.024 98.73c0 0 31.01-6.462 58.28-6.187 45.31.45 68 24.822 69.61 56.617.406 8.092.322 12.543.322 21.233v128.56h-47.788v-131.3c0-16.06 1.014-36.02-35.09-35.85-25.715.12-43.864 5.068-43.864 5.068v162.08h-46.639v-295.99l45.19-2.965m290.1 92.6c-.592-.114-42.672.67-67.54 6.379-29.01 6.625-47.601 24.15-50.18 50.914-.508 5.14-.749 8.416-.749 20.17v128.88h47.753v-131.78c0-11.561.898-18.9 8.464-25.674 8.552-7.685 28.08-8.792 39.25-9.697 7.656-.635 23-1.054 23-1.054v-38.14" fill="#007dc5"/><path transform="matrix(.00004 0 0 .00004 0-.004)" fill="#4eb849" d="m13370500 8826230v-1199940h-3059200v-1328710l2628500-5921580h1497700l-2495800 5921580h1428800v-1777860h1384000v1777860h745500v1328710h-745500v1199940z"/></g></svg>