<svg xmlns="http://www.w3.org/2000/svg" viewBox="0 0 600 137.33"><g transform="translate(-2.947-577.07)"><g fill="#0e79bd"><path d="m93.43 714.35c-30.21.58-66.847-4.94-90.49-15.23v-9.214c24.853 10.62 58.676 16.17 88.94 15.712 32.611-.606 66.51-6.134 90-15.348v8.971c-26.307 9.311-56.08 14.524-88.45 15.11"/><path d="m18.659 577.07v33.993s10.717-2.231 20.12-2.109c15.615.097 23.446 8.607 24 19.591.145 2.716.121 4.243.121 7.322v44.25h-16.488v-45.2c0-5.552.339-12.511-12.1-12.414-8.898 0-15.15 1.77-15.15 1.77v55.839h-16.1v-102.1l15.59-.946z"/><path d="m118.72 608.94c-.121-.121-14.645.242-23.25 2.231-10.01 2.255-16.415 8.389-17.312 17.603-.194 1.77-.267 2.837-.267 6.959v44.39h16.488v-45.46c0-4 .291-6.474 2.91-8.85 2.958-2.594 9.698-2.958 13.529-3.298 2.716-.242 7.904-.485 7.904-.485v-13.09"/></g><g fill="#0aafd9"><path d="m203.13 631.49h-25.507c.121-3.419.364-5.092 1.528-7.565 1.77-4.243 5.916-7.08 11.226-7.08 5.431 0 9.432 2.837 11.202 7.08 1.188 2.473 1.552 4.146 1.552 7.565m11.323 7.783v-4.946c0-15.833-8.826-26.816-24.08-26.816-14.524 0-23.98 10.402-23.98 28.465 0 21.12 11.226 28.441 25.507 28.441 9.917 0 15.348-2.958 21.24-8.607l-7.298-6.74c-4.02 4.02-7.322 5.795-13.699 5.795-9.335 0-14.524-6.134-14.524-15.59h36.83z"/><path d="m298.16 663.82v-33.872c0-8.753-5.067-12.414-11.323-12.414-6.401 0-11.808 3.782-11.808 12.414v33.872h-11.469v-55.6h11.226v5.552c3.904-4.146 9.432-6.256 15.11-6.256 5.795 0 10.62 1.891 13.942 5.067 4.364 4.122 5.771 9.456 5.771 15.712v35.521h-11.444"/><path d="m344.66 665.01c-9.335 0-17.12-1.528-23.81-8.03l7.516-7.322c4.631 4.607 10.765 5.795 16.294 5.795 6.959 0 12.414-2.376 12.414-7.686 0-3.661-2.134-6.134-7.565-6.498l-9.09-.824c-10.62-.824-16.778-5.528-16.778-15.348 0-10.862 9.577-16.997 21.41-16.997 8.462 0 15.784 1.77 20.973 6.256l-7.201 7.201c-3.516-3.055-8.486-4.122-13.917-4.122-6.837 0-10.28 2.958-10.28 7.201 0 3.176 1.77 5.771 7.783 6.256l8.971.824c10.644.824 16.924 5.795 16.924 15.712 0 11.566-10.04 17.579-23.64 17.579"/><path d="m413.73 632.08h-25.507c.121-3.443.364-5.092 1.527-7.565 1.77-4.243 5.916-7.08 11.226-7.08 5.431 0 9.432 2.837 11.202 7.08 1.188 2.473 1.43 4.122 1.552 7.565m11.323 7.783v-4.946c0-15.833-8.85-26.816-24.08-26.816-14.524 0-23.98 10.402-23.98 28.465 0 21.12 11.226 28.441 25.507 28.441 9.917 0 15.348-2.958 21.24-8.607l-7.298-6.74c-4.02 4.02-7.322 5.795-13.699 5.795-9.335 0-14.524-6.159-14.524-15.59h36.83z"/><path d="m472.28 663.82v-34.24c0-8.389-5.092-12.147-11.469-12.147-6.353 0-11.444 3.879-11.444 12.147v34.24h-11.469v-78.15h11.469v28.1c3.904-4.267 8.971-6.256 14.621-6.256 12.657 0 19.615 8.244 19.615 20.415v35.885h-11.323"/><path d="m532.83 632.08h-25.507c.121-3.443.364-5.092 1.406-7.565 1.77-4.243 6.04-7.08 11.372-7.08 5.286 0 9.408 2.837 11.202 7.08 1.043 2.473 1.406 4.122 1.528 7.565m11.347 7.783v-4.946c0-15.833-8.85-26.816-24.08-26.816-14.548 0-24.1 10.402-24.1 28.465 0 21.12 11.323 28.441 25.483 28.441 10.04 0 15.469-2.958 21.264-8.607l-7.201-6.74c-4.02 4.02-7.419 5.795-13.82 5.795-9.214 0-14.402-6.159-14.402-15.59h36.854z"/><path d="m591.5 663.82v-33.872c0-8.753-4.946-12.414-11.323-12.414s-11.808 3.782-11.808 12.414v33.872h-11.347v-55.6h11.11v5.552c4.02-4.146 9.432-6.256 15.11-6.256 5.795 0 10.62 1.891 14.06 5.067 4.364 4.122 5.649 9.456 5.649 15.712v35.521h-11.444"/><path d="m254.94 607.63l-1.309-.121c-6.474 0-12.244 2.837-15.1 6.74v-6.04h-11.202v55.6h11.444v-33.751c0-7.662 4.849-12.39 10.984-12.39l5.189 1.188v-11.226"/><path d="m156.28 594.77h5.067v-9.553h-7.225c-10.01 0-14.984 6.595-15.445 14.04v64.57h11.323v-44.37h11.347v-10.28h-11.347v-8.03c0-4.02 2.01-6.377 6.28-6.377"/></g></g></svg>