<svg xmlns="http://www.w3.org/2000/svg" viewBox="0 0 600 264.14"><g transform="translate(331.4-299.48)"><g fill="#0076bc"><path d="m-301.16 299.48l-29.98 1.823v196.38h30.956v-107.37s12.06-3.392 29.13-3.392c23.951-.227 23.24 13.161 23.24 23.832v86.93h31.719v-85.11c0-5.903.103-8.857-.17-14.08-1.067-21.11-16.16-37.471-46.22-37.698-18.09-.227-38.673 4.071-38.673 4.071v-65.39z"/><path d="m-110.04 360.76c-5.736.032-28.938.99-43.38 4.368-19.252 4.313-31.605 16.09-33.33 33.797-.341 3.405-.509 5.454-.509 13.4v85.36h31.719v-87.4c0-7.719.58-12.464 5.597-17 5.698-4.994 18.616-5.68 25.994-6.361 5.221-.454 15.223-.933 15.223-.933v-25.19c-.025-.025-.495-.047-1.315-.041"/><path d="m-331.4 516.55v17.683c45.519 19.752 115.91 30.438 174.03 29.3 62.25-1.135 119.46-11.11 170.09-29.05v-17.259c-45.18 17.708-110.3 28.379-173.1 29.514-58.12.908-123.18-9.76-171.02-30.19"/></g><g fill="#5a5a5a"><path d="m50.767 360.17v137.47h20.869v-59.956h54.55v59.956h20.869v-137.47h-20.869v58.852h-54.55v-58.852h-20.869"/><path d="m171.22 360.21v137.47h46.816c10.194 0 18.837-2.173 25.948-6.514 7.174-4.405 12.803-9.813 16.894-16.231 3.083-4.783 5.066-9.746 6.073-14.906 1.07-5.223 1.656-15.547 1.656-31.03 0-14.41-.349-24.16-1.104-29.26-.755-5.097-2.896-10.6-6.294-16.452-9.125-15.417-23.03-23.08-41.848-23.08h-48.14zm20.869 19.764h24.954c10.635 0 18.786 3.806 24.512 11.483 2.769 3.776 4.45 7.978 5.079 12.698.692 4.72 1.104 13.283 1.104 25.616 0 12.774-.365 21.15-.994 25.18-.566 3.964-1.93 7.691-4.196 11.152-5.538 7.992-14.05 12.04-25.506 12.04h-24.954v-98.16z"/></g></g></svg>