<svg xmlns="http://www.w3.org/2000/svg" viewBox="0 0 566.93 212.6"><g transform="matrix(.00004 0 0 .00004 0-.002)" fill-rule="evenodd"><path d="m9951170 1365630v2852920h-511190l-1393070-1901010v1901010h-558390v-2852920h511230l1392900 1890400v-1890400h558520m2802630 0v452590h-1547780v774100h1318020v452710h-1318020v1173520h-595960v-2852920h2143740m2424610 235720c-250880-219150-545350-309630-912480-309630-370370 0-664560 96200-915480 315220-332360 291030-331910 713920-331910 1150060v82340c0 457450 18310 858020 337790 1163190 241020 230330 539230 300060 909600 300060 367130 0 650460-78320 912480-319190 329360-303060 321500-669460 321500-1177820v-41730c0-508190 15320-867580-321500-1162500m-458030 2070560c-109200 109770-270600 164400-454450 164400-184260 0-351650-56210-458870-164120-143530-139680-174530-294800-174530-874020 0-579390 31000-734510 174120-873740 107910-108520 275190-170680 459280-170680 183560 0 344800 60620 454170 170400h-120c120 0 120 0 280 280 136520 132950 179110 271170 179110 873740 0 602970-42590 741070-178990 873740m-8492710-1976470h596000v-329890h-596000v329890m596000 465150c0 54020 0 2057960 0 2057960h-596000c0 0 0-2003940 0-2057960 49030 0 546810 0 596000 0m7896590-236160c-160 0-160-280-160-280l280 440c-120-160-120-160-120-160" fill="#00676d"/><path d="m1056080 572530l-290 1204080c0 0 378240-78780 710640-75340 552640 5430 829530 302620 849140 690460 4980 98630 3970 152970 3970 259060v1567760h-582950v-1601230c0-195970 12560-439420-427710-437280-313640 1420-535100 61760-535100 61760v1976750h-568810v-3609710l551110-36310m3562660 1125750c-7010-1300-520340 11870-823530 81490-353680 80760-580400 294470-612130 621000-6160 62730-8990 102640-8990 246010v1571770h582380l-160-1607070c0-141090 11140-230610 103210-313230 104380-93650 342650-107220 478770-118370 93480-7580 280450-16290 280450-16290v-465310m-920340 3728080c-1067840 18600-2361990-176280-3198410-537210l120-325230c879050 372970 2074690 570390 3142570 552080 1152050-20020 2351420-213720 3181840-539800v315510c-929050 330370-1981040 515190-3126120 534650" fill="#007dc5"/></g></svg>