<svg xmlns="http://www.w3.org/2000/svg" viewBox="0 0 600 165.67"><g transform="translate(-271.51 231.54)" fill="#ff640a"><path d="m271.51-214.82c.88-9.877 7.756-15.366 16.789-15.366 9.678 0 16.876 6.302 16.876 17.556v47.717h47.696v-47.717c0-11.254 7.207-17.556 16.884-17.556 9.675 0 16.878 6.302 16.878 17.556v127.85c0 11.251-7.203 17.549-16.878 17.549-9.678 0-16.884-6.299-16.884-17.549v-49.08h-47.696v49.08c0 11.251-7.198 17.549-16.881 17.549-9.03 0-15.905-5.485-16.784-15.359v-132.23"/><path d="m510.02-206.77c0 8.781-5.849 16.657-15.08 16.657-9.226 0-23.18-9-36.682-9-9.68 0-18.457 5.182-18.457 14.636 0 23.18 75.18 8.315 75.18 66.39 0 32.19-26.563 52.22-57.62 52.22-17.329 0-54.692-4.052-54.692-25.22 0-8.776 5.854-15.973 15.08-15.973 10.575 0 23.18 8.775 37.811 8.775 14.853 0 22.957-8.326 22.957-19.357 0-26.563-75.17-10.572-75.17-62.801 0-31.51 25.882-51.09 55.814-51.09 12.608 0 50.87 6.98 50.87 24.758"/><path d="m531.62-209.25c0-11.254 5.628-19.576 17.555-19.576l57.808.101c10.805 0 15.98 7.651 15.98 15.527 0 7.659-5.397 15.534-15.98 15.534l-41.601-.1v32.854h36.913c11.03 0 16.429 7.657 16.429 15.533 0 7.646-5.623 15.523-16.429 15.523h-36.913v34.22h41.636c10.81 0 15.985 7.647 15.985 15.524 0 7.646-5.4 15.533-15.985 15.533h-58.06c-9.909 0-17.334-6.748-17.334-16.881v-123.79z"/><path d="m743.78-99.7c9.904 0 16.432 5.909 16.432 16.262 0 10.363-7.655 14.855-16.205 14.855h-75.17c-9.905 0-17.56-4.492-17.56-14.855 0-4.722 2.929-8.775 5.178-11.481 18.684-22.281 38.938-42.527 56.04-67.29 4.05-5.851 7.876-12.828 7.876-20.935 0-9.224-6.977-17.33-16.198-17.33-25.89 0-13.505 36.468-35.12 36.468-10.809 0-16.433-7.657-16.433-16.432 0-28.363 25.21-51.09 52.893-51.09 27.688 0 49.966 18.231 49.966 46.811 0 31.29-33.755 60.945-52.893 85.03h41.19"/><path d="m819.52-195.71h-.456l-30.382 62.802h30.839v-62.802m-54.25 92.51c-11.03 0-15.758-7.428-15.758-13.288 0-4.942 1.802-7.646 3.155-9.892l50.42-91.38c4.949-9 11.253-13.06 22.952-13.06 13.06 0 25.889 8.334 25.889 28.813v69.1h3.83c8.77 0 15.75 5.849 15.75 14.854s-6.98 14.855-15.75 14.855h-3.83v19.13c0 11.929-4.726 17.56-16.206 17.56-11.476 0-16.202-5.631-16.202-17.56v-19.13h-54.25"/></g></svg>