<svg xmlns="http://www.w3.org/2000/svg" viewBox="0 0 600.01 76.58"><g transform="translate(-266.43 392.69)"><g fill="#ff640a"><path d="m266.43-383.95c0-5.202 3.329-8.113 7.803-8.113 4.474 0 7.803 2.912 7.803 8.113v22.06h22.05v-22.06c0-5.202 3.33-8.113 7.802-8.113 4.474 0 7.804 2.912 7.804 8.113v59.1c0 5.202-3.33 8.115-7.804 8.115-4.472 0-7.803-2.913-7.803-8.115v-22.684h-22.05v22.684c0 5.202-3.329 8.115-7.803 8.115-4.474 0-7.803-2.913-7.803-8.115v-59.1"/><path d="m376.73-381.24c0 4.058-2.704 7.699-6.971 7.699-4.266 0-10.716-4.162-16.96-4.162-4.473 0-8.53 2.392-8.53 6.763 0 10.717 34.75 3.848 34.75 30.693 0 14.878-12.277 24.14-26.635 24.14-8.01 0-25.283-1.873-25.283-11.653 0-4.058 2.706-7.387 6.972-7.387 4.889 0 10.717 4.057 17.479 4.057 6.867 0 10.613-3.85 10.613-8.949 0-12.277-34.751-4.889-34.751-29.03 0-14.565 11.965-23.618 25.802-23.618 5.827 0 23.514 3.227 23.514 11.446"/><path d="m386.71-382.39c0-5.202 2.601-9.05 8.116-9.05l26.722.049c4.994 0 7.387 3.537 7.387 7.179 0 3.538-2.497 7.179-7.387 7.179l-19.231-.049v15.189h17.06c5.099 0 7.596 3.538 7.596 7.179 0 3.538-2.601 7.179-7.596 7.179h-17.06v15.816h19.247c4.995 0 7.389 3.537 7.389 7.178 0 3.538-2.498 7.18-7.389 7.18h-26.842c-4.578 0-8.01-3.121-8.01-7.803v-57.23"/><path d="m484.78-331.75c4.579 0 7.596 2.731 7.596 7.517s-3.538 6.867-7.491 6.867h-34.751c-4.579 0-8.116-2.08-8.116-6.867 0-2.186 1.353-4.057 2.394-5.307 8.636-10.3 17.999-19.664 25.906-31.11 1.874-2.706 3.641-5.93 3.641-9.676 0-4.267-3.225-8.01-7.49-8.01-11.967 0-6.243 16.855-16.232 16.855-4.995 0-7.595-3.537-7.595-7.595 0-13.11 11.653-23.618 24.451-23.618s23.1 8.428 23.1 21.641c0 14.463-15.607 28.17-24.452 39.3h19.04"/><path d="m519.79-376.13h-.21l-14.05 29.03h14.255v-29.03m-25.08 42.762c-5.099 0-7.285-3.433-7.285-6.139 0-2.288.833-3.538 1.456-4.578l23.308-42.24c2.289-4.163 5.202-6.04 10.611-6.04 6.04 0 11.966 3.849 11.966 13.318v31.941h1.768c4.058 0 7.283 2.705 7.283 6.868 0 4.161-3.225 6.866-7.283 6.866h-1.768v8.844c0 5.514-2.184 8.115-7.491 8.115-5.305 0-7.49-2.601-7.49-8.115v-8.844h-25.07z"/></g><g stroke-linecap="round" stroke-width="3.746"><path d="m553.98-389.46h310.57" stroke="#a8ba4b" fill="#a8ba4b"/><path d="m553.98-321.38h310.57" stroke="#b995b1" fill="#b995b1"/></g><g fill="#828186"><path d="m577.66-334.06l.024-37.02h-24.19v-4.292h55.01v4.536h-23.02v36.773z"/><path d="m615.05-375.32v41.12l7.163-.062v-16.09h24.284l16.637 16.15h9.114l-17.464-16.387c7.914-1.987 16.616-5.376 16.2-12.735-.686-9.272-14.289-11.708-18.775-12h-37.16m7.117 4.433h29.918c4.755.314 10.457 2.664 10.784 7.538-.299 5.245-4.174 7.939-10.909 8.568l-29.793.031v-16.14"/></g><path fill="#828284" d="m681.52-334.25v-41.02h50.771v4.438h-43.504v13.607h35.798v4.194h-35.7v14.436h42.87v4.487z"/><g fill="#828186"><path d="m741.75-334.3v-41.602l45.46 30.872v-30.482h7.316v42.33l-45.592-31.32.186 30.29z"/><path d="m833.95-375.34l-28.12.047v41.09l27.655-.047c25.05-1.711 33.25-13.425 32.493-20.804-1.993-17.03-24.12-19.938-32.02-20.289m-20.944 4.386h21.865c7.02.5 22.849 4.559 23.1 15.903.345 6.158-5.942 15.317-23.488 16.481l-21.475-.031v-32.353"/></g></g></svg>