<svg xmlns="http://www.w3.org/2000/svg" viewBox="0 0 600 85.44"><g transform="translate(-279.55 99.42)"><g fill="#ff640a"><path d="m279.55-84.73c.374-4.197 3.296-6.529 7.134-6.529 4.112 0 7.171 2.678 7.171 7.46v20.275h20.266v-20.275c0-4.782 3.062-7.46 7.174-7.46 4.111 0 7.172 2.678 7.172 7.46v54.32c0 4.78-3.061 7.457-7.172 7.457-4.112 0-7.174-2.676-7.174-7.457v-20.853h-20.266v20.853c0 4.78-3.059 7.457-7.173 7.457-3.836 0-6.758-2.331-7.132-6.526v-56.19"/><path d="m380.89-81.31c0 3.731-2.486 7.078-6.409 7.078-3.92 0-9.849-3.826-15.587-3.826-4.113 0-7.843 2.202-7.843 6.219 0 9.849 31.943 3.533 31.943 28.21 0 13.676-11.287 22.19-24.485 22.19-7.363 0-23.24-1.722-23.24-10.714 0-3.729 2.487-6.787 6.409-6.787 4.493 0 9.851 3.728 16.07 3.728 6.311 0 9.755-3.538 9.755-8.225 0-11.287-31.941-4.492-31.941-26.685 0-13.389 10.997-21.708 23.716-21.708 5.357 0 21.615 2.966 21.615 10.52"/><path d="m390.07-82.36c0-4.782 2.391-8.318 7.459-8.318l24.563.043c4.591 0 6.79 3.251 6.79 6.598 0 3.254-2.293 6.601-6.79 6.601l-17.677-.043v13.96h15.685c4.686 0 6.981 3.254 6.981 6.6 0 3.249-2.389 6.596-6.981 6.596h-15.685v14.541h17.691c4.593 0 6.792 3.249 6.792 6.596 0 3.249-2.295 6.6-6.792 6.6h-24.672c-4.21 0-7.365-2.867-7.365-7.173v-52.601"/><path d="m480.22-35.817c4.208 0 6.982 2.511 6.982 6.91 0 4.403-3.252 6.312-6.886 6.312h-31.941c-4.209 0-7.461-1.909-7.461-6.312 0-2.01 1.245-3.728 2.2-4.878 7.939-9.467 16.545-18.07 23.812-28.594 1.721-2.486 3.347-5.451 3.347-8.895 0-3.919-2.964-7.364-6.883-7.364-11 0-5.738 15.495-14.921 15.495-4.593 0-6.982-3.253-6.982-6.982 0-12.05 10.712-21.71 22.475-21.71 11.765 0 21.23 7.746 21.23 19.89 0 13.294-14.343 25.896-22.475 36.13h17.502"/><path d="m512.4-76.61h-.194l-12.91 26.685h13.1v-26.685m-23.05 39.31c-4.686 0-6.696-3.156-6.696-5.646 0-2.1.766-3.249 1.341-4.203l21.423-38.829c2.103-3.826 4.781-5.549 9.752-5.549 5.549 0 11 3.541 11 12.243v29.362h1.627c3.726 0 6.692 2.486 6.692 6.312s-2.966 6.312-6.692 6.312h-1.627v8.127c0 5.069-2.01 7.461-6.886 7.461-4.876 0-6.884-2.393-6.884-7.461v-8.127h-23.05"/></g><g fill="#7b797c"><path d="m609.44-54.922h-13.948v11.669h15.601v5.955h-22.365v-39.733h21.538v5.955h-14.774v10.256h13.948v5.896"/><path d="m634.85-37.3l-4.01-7.902c-1.595-3.063-2.638-5.184-3.682-7.483h-.165c-.878 2.299-1.867 4.42-3.351 7.483l-3.686 7.902h-7.741l10.986-20.1-10.549-19.631h7.745l4.01 8.195c1.208 2.473 2.087 4.42 3.075 6.664h.114c.984-2.477 1.756-4.246 2.91-6.664l3.953-8.195h7.75l-10.825 19.393 11.266 20.34h-7.805"/><path d="m653.91-70.956h-10.556v-6.074h27.966v6.074h-10.651v33.659h-6.759v-33.659"/><path d="m680.43-58.931h4.01c4.56 0 7.411-2.138 7.411-6.087 0-4.36-1.96-6.481-6.355-6.481-2.146 0-4.424.008-5.069.008v12.56m-6.702-18.12c2.651 0 7.945.008 11.848.008 5.332 0 7.33.662 9.803 2.902 2.032 1.828 3.186 4.598 3.186 7.957 0 5.128-3.241 8.607-6.702 9.964v.174c2.634 1.061 4.225 3.835 5.162 7.665 1.154 4.95 2.142 9.548 2.91 11.08h-6.973c-.551-1.179-1.429-4.424-2.477-9.374-1.044-5.188-2.796-6.838-6.647-6.957h-3.406v16.331h-6.702v-39.754"/><path d="m721.82-54.04l-2.91-9.785c-.717-2.418-1.319-5.129-1.87-7.428h-.111c-.547 2.299-1.098 5.069-1.756 7.428l-2.859 9.785h9.505m-10.604 5.485l-3.186 11.257h-6.982l11.869-39.733h8.628l12.03 39.733h-7.254l-3.355-11.257h-11.754"/></g><path fill="#ff640a" d="m757.49-56.695c-.136 9.718-7.953 16.746-15.542 21.633-12.11 7.797-26.498 11.907-40.471 14.808-33.994 7.08-71.36 5.828-104.46-4.853-15.555-5.02-46.796-19.305-34.876-40.763 5.353-9.633 16.857-15.339 26.596-19.383 15.07-6.257 31.525-9.36 47.691-10.977 27.852-2.784 56.904-.671 83.62 7.95 9.675 3.12 19.33 7.395 27.29 13.825 5.459 4.416 10.05 10.477 10.151 17.76.021 1.633 13.557 1.519 13.536 0 .021-1.514-13.514-1.629-13.536 0zm13.536 0c-.136-9.404-7.589-16.522-14.867-21.438-11.572-7.816-25.587-12.12-39.07-15.219-18.397-4.228-37.32-5.847-56.17-6.05-19.11-.209-38.29 1.405-57.03 5.202-14.04 2.847-28.29 7.158-40.645 14.572-7.688 4.615-15.917 11.606-17.12 21.06-1.156 9.129 5.808 16.73 12.566 21.777 10.844 8.098 24.464 12.564 37.435 15.848 17.812 4.505 36.3 6.43 54.63 6.872 2.438.059 4.878.092 7.319.097h1.525c16.578-.039 33.18-1.352 49.47-4.399 14.537-2.719 29.18-6.778 42.21-13.926 8.123-4.454 17.03-11.143 19.309-20.649.293-1.222.403-2.486.42-3.742"/><g transform="matrix(.6167 0 0 .6167 394.84 98.74)"><g fill="#808080"><path d="m716.59-287.19v69.37h23.874c19.215 0 34.685-15.469 34.685-34.685 0-19.215-15.469-34.685-34.685-34.685h-23.874m-76.69.028v69.54h8.136v-33.868h37.27v33.868h8.136v-69.54h-8.136v28.27h-37.27v-28.27h-8.136m84.8 7.179h14.583c15.222 0 27.477 12.255 27.477 27.477s-12.255 27.477-27.477 27.477h-14.583v-54.955"/><path d="m629.06-308.52h156.91v5.74h-156.91z"/></g><path d="m629.06-308.52h156.91v5.74h-156.91z" fill="#89a02c"/><path d="m629.06-201.05h156.91v5.74h-156.91z" fill="#bc5fd3"/></g></g></svg>