<svg xmlns="http://www.w3.org/2000/svg" viewBox="0 0 600 114.41"><g transform="translate(-216.57-79.15)"><path d="m747.2 100.77v69.37h23.874c19.215 0 34.685-15.469 34.685-34.685 0-19.215-15.469-34.685-34.685-34.685h-23.874m-76.69.029v69.54h8.136v-33.868h37.27v33.868h8.136v-69.54h-8.136v28.27h-37.27v-28.27h-8.136m84.8 7.179h14.583c15.222 0 27.477 12.255 27.477 27.477s-12.255 27.477-27.477 27.477h-14.583v-54.955z" fill="#808080"/><g fill="#ff640a"><path d="m216.57 92.21c0-7.771 4.974-12.12 11.657-12.12 6.684 0 11.657 4.35 11.657 12.12v32.953h32.941v-32.953c0-7.771 4.975-12.12 11.656-12.12 6.685 0 11.659 4.35 11.659 12.12v88.29c0 7.772-4.975 12.12-11.659 12.12-6.682 0-11.657-4.353-11.657-12.12v-33.888h-32.941v33.888c0 7.772-4.972 12.12-11.657 12.12-6.684 0-11.657-4.353-11.657-12.12v-88.29"/><path d="m381.35 96.26c0 6.06-4.04 11.503-10.415 11.503-6.373 0-16.01-6.217-25.337-6.217-6.682 0-12.743 3.573-12.743 10.1 0 16.01 51.915 5.749 51.915 45.854 0 22.23-18.342 36.06-39.791 36.06-11.969 0-37.772-2.799-37.772-17.409 0-6.06 4.04-11.03 10.415-11.03 7.304 0 16.01 6.06 26.11 6.06 10.258 0 15.855-5.752 15.855-13.369 0-18.342-51.915-7.303-51.915-43.37 0-21.759 17.875-35.28 38.547-35.28 8.705 0 35.13 4.821 35.13 17.1z"/><path d="m396.27 94.54c0-7.772 3.885-13.521 12.12-13.521l39.922.073c7.461 0 11.04 5.284 11.04 10.724 0 5.286-3.73 10.725-11.04 10.725l-28.73-.073v22.692h25.491c7.617 0 11.348 5.285 11.348 10.725 0 5.285-3.885 10.725-11.348 10.725h-25.491v23.628h28.754c7.462 0 11.04 5.285 11.04 10.724 0 5.286-3.731 10.726-11.04 10.726h-40.1c-6.839 0-11.969-4.662-11.969-11.657v-85.49z"/><path d="m542.78 170.2c6.84 0 11.348 4.081 11.348 11.231 0 7.15-5.286 10.258-11.191 10.258h-51.916c-6.84 0-12.12-3.108-12.12-10.258 0-3.266 2.02-6.06 3.576-7.928 12.902-15.388 26.89-29.377 38.702-46.47 2.799-4.04 5.44-8.86 5.44-14.456 0-6.374-4.818-11.969-11.189-11.969-17.877 0-9.327 25.18-24.25 25.18-7.463 0-11.347-5.284-11.347-11.347 0-19.585 17.41-35.28 36.528-35.28 19.12 0 34.508 12.591 34.508 32.33 0 21.606-23.315 42.08-36.53 58.716h28.445z"/><path d="m595.09 103.9h-.314l-20.983 43.37h21.296v-43.37m-37.46 63.885c-7.617 0-10.883-5.129-10.883-9.171 0-3.418 1.245-5.285 2.176-6.839l34.82-63.11c3.419-6.219 7.771-9.02 15.852-9.02 9.02 0 17.876 5.751 17.876 19.896v47.718h2.641c6.06 0 10.88 4.04 10.88 10.261 0 6.217-4.818 10.258-10.881 10.258h-2.641v13.213c0 8.237-3.264 12.12-11.192 12.12-7.926 0-11.189-3.886-11.189-12.12v-13.213h-37.461z"/></g><path fill="#808080" d="m659.67 79.43h156.91v5.74h-156.91z"/><path fill="#89a02c" d="m659.67 79.43h156.91v5.74h-156.91z"/><path fill="#bc5fd3" d="m659.67 186.9h156.91v5.74h-156.91z"/></g></svg>