<svg xmlns="http://www.w3.org/2000/svg" height="95.5" width="600" viewBox="0 0 158.75 25.268294" xmlns:xlink="http://www.w3.org/1999/xlink"><defs><linearGradient id="K" gradientUnits="userSpaceOnUse" x2="0" y1="198.03" y2="187.93" xlink:href="#H"/><linearGradient id="D" gradientUnits="userSpaceOnUse" x2="0" y1="178.07" y2="202.99"><stop stop-color="#ebc900"/><stop stop-color="#905501" offset="1"/></linearGradient><linearGradient id="B" gradientUnits="userSpaceOnUse" x1="168.93" x2="169.01" y1="175.67" y2="185.17" xlink:href="#D"/><linearGradient id="C" gradientUnits="userSpaceOnUse" x2="0" y1="175.96" y2="189.19"><stop stop-color="#fd0"/><stop stop-color="#905501" offset="1"/></linearGradient><linearGradient id="E" gradientUnits="userSpaceOnUse" x2="0" y1="178.76" y2="199.22"><stop stop-color="#ffdb00"/><stop stop-color="#be860f" offset=".644"/><stop stop-color="#e3a513" offset="1"/></linearGradient><linearGradient id="J" gradientUnits="userSpaceOnUse" x1="164.95" x2="180.26" xlink:href="#C"/><linearGradient id="F" gradientUnits="userSpaceOnUse" x2="0" y1="198.03" y2="187.93" xlink:href="#D"/><linearGradient id="I" gradientUnits="userSpaceOnUse" x2="0" y1="176.09" y2="185.94" xlink:href="#C"/><linearGradient id="G" gradientUnits="userSpaceOnUse" x2="0" y1="178.07" y2="203" xlink:href="#D"/><linearGradient id="H" gradientUnits="userSpaceOnUse" x2="0" y1="198.04" y2="187.93"><stop stop-color="#ebc900"/><stop stop-color="#6a3c00" offset="1"/></linearGradient><linearGradient id="A" gradientUnits="userSpaceOnUse" x2="0" y1="198.65" y2="191.44" xlink:href="#D"/><linearGradient id="9" gradientUnits="userSpaceOnUse" x2="0" y1="195.8" y2="179.74"><stop stop-color="#ebc900"/><stop stop-color="#7d4900" offset=".374"/><stop stop-color="#7d4900" offset="1"/></linearGradient><linearGradient id="2" gradientUnits="userSpaceOnUse" x1="191.07" x2="187.2" xlink:href="#D"/><linearGradient id="0" gradientUnits="userSpaceOnUse" x2="0" y1="172.1" y2="202.17"><stop stop-color="#231f20"/><stop stop-color="#939598" offset=".055"/><stop stop-color="#f1f2f2" offset=".388"/><stop stop-color="#a7a9ac" offset=".537"/><stop stop-color="#e6e7e8" offset=".71"/><stop stop-color="#414042" offset="1"/></linearGradient><linearGradient id="1" gradientUnits="userSpaceOnUse" x2="0" y1="196.12" y2="178.38"><stop stop-color="#ebc900"/><stop stop-color="#ebc900" offset=".27"/><stop stop-color="#905501" offset="1"/></linearGradient><linearGradient id="3" gradientUnits="userSpaceOnUse" x2="0" y1="175.14" y2="196.21" xlink:href="#E"/><linearGradient id="8" gradientUnits="userSpaceOnUse" x1="191.15" x2="184.71" xlink:href="#D"/><linearGradient id="4" gradientUnits="userSpaceOnUse" x2="0" y1="175.71" y2="179.4" xlink:href="#D"/><linearGradient id="7" gradientUnits="userSpaceOnUse" x2="0" y1="175.87" y2="199.78"><stop stop-color="#fff"/><stop stop-color="#58595b" offset=".264"/><stop stop-color="#fff" offset=".472"/><stop stop-color="#414042" offset=".73"/><stop stop-color="#fff" offset="1"/></linearGradient><linearGradient id="5" gradientUnits="userSpaceOnUse" x2="0" y1="175.86" y2="199.77" xlink:href="#7"/><linearGradient id="6" gradientUnits="userSpaceOnUse" x1="197.1" x2="202.15" xlink:href="#E"/></defs><g transform="translate(-52.16-174.75)"><path fill="url(#0)" d="m86.996 176.46c-.866.87-1.165.9-1.975 2.52v-3.43h-5.815v16.36c-.042.35-.364 2.5-2.497 2.5h-.067c-.393.03-2.356.001-2.596-2.5v-16.34h-5.03v-.02h-5.79v9.01h-5.279v-8.99h-5.785v23.53h5.815v-8.77h5.261v8.77h5.778v-3.68c1.057 2.34 3.297 4.59 7.506 4.59 1.106.09 4.209-.51 5.974-2.07.888-.79 1.532-1.79 1.962-2.96.295.54 1.272 2.13 2.876 3.23.044.03 1.695 1.24 4.563 1.6.111.02 3 .39 5.372-1.07.211-.11 2.952-1.63 3.722-4.67v-.03-.03c.05-.29.49-2.85-.29-4.57l.04.09c-.04-.08-.71-1.98-2.62-3.25-.144-.13-1.272-1.02-4-1.72l-.037-.001c-.621-.13-2.403-.64-3.22-1.39l-.039-.04-.042-.04c-.104-.07-.508-.43-.508-1.06 0-.2.043-.42.144-.68.02-.04.339-.78 1.552-1.07.497-.04 1.826 0 2.6.64.426.34.869.76.995.92l.594 1.17 1.012-.87 2.02-1.93v1.31h5.741v17.8h5.88v-17.77h4.87v17.66h13.35v.02h19.35v-6.71c1.95 2.46 5.3 6.71 5.3 6.71h7.16s-5.89-7.86-7.25-9.65c2.23-.85 4.93-2.92 4.93-6.99 0-.09.001-.18.001-.28 0-1.72-.87-4.81-4.28-6.22l-.001-.02-.04-.001c-.06-.02-1.74-.56-3.62-.59h-21.55v17.95h-7.5v-17.84h-22.341v1.89c-.953-.91-2.767-2.29-5.172-2.52-.119-.02-.871-.19-1.921-.19-1.435 0-3.422.31-5.1 1.71m61.43 4.82h2c1.87.2 2.02 1.17 2.02 1.44v.1c0 1.37-1.53 1.54-1.87 1.58h-2.15zm-13.63.08h7.42v3.12h-7.42zm-49.779 10.67v-6.65c.067.11.131.22.198.33.06.09 1.582 2.39 4.578 3.49l3.329 1.23c.819.33 1.732.91 1.863 1.18l.025.05.025.09c.044.08.403.87-.322 1.74-.017.02-.636.7-1.987.7h-.079c-.06 0-1.253.07-2.569-1-.493-.4-1.26-1.12-1.458-1.55l-.581-1.26-3.158 2.92c.065-.4.109-.83.136-1.27m49.779-1.9h7.42v3.36h-7.42z"/><g fill="#231f20"><path d="m53.16 176.59v21.5h3.809v-8.77h7.288v8.77h3.751v-21.54h-3.788v9.02h-7.286v-8.98z"/><path d="m69.2 176.59l.005 15.39s.173 7.03 7.333 7.03c0 0 7.114.39 7.48-7.03v-15.43h-3.808v15.43s-.314 3.44-3.499 3.44c0 0-3.339.26-3.668-3.44v-15.39z"/><path d="m99.14 178.88s-2.103-2.69-5.298-2.94c0 0-3.301-.67-6.243 1.43 0 0-1.587 1.06-2.156 3.39 0 0-.552 2.63.619 4.39 0 0 1.368 2.1 4.083 3.1l3.336 1.24s2.15.87 2.465 1.78c0 0 .759 1.41-.446 2.87 0 0-.868 1.06-2.764 1.06 0 0-1.599.14-3.281-1.23 0 0-1.334-1.07-1.74-1.9l-2.46 2.26s.923 1.85 2.658 3.05c0 0 1.482 1.1 4.118 1.43 0 0 2.658.37 4.761-.95 0 0 2.541-1.35 3.21-4.03 0 0 .443-2.49-.218-3.98 0 0-.592-1.71-2.302-2.8 0 0-.975-.83-3.605-1.51 0 0-2.5-.53-3.692-1.65 0 0-1.431-1.04-.706-2.9 0 0 .443-1.29 2.324-1.72 0 0 2.094-.22 3.418.87 0 0 1.091.86 1.257 1.26z"/><path d="m100.19 176.59v3.92h5.75v17.79h3.86v-17.77h5.62v-3.94z"/><path d="m116.68 176.58v21.62h12.05v-3.79h-8.2v-17.83z"/><path d="m130.05 176.46v21.75h11.97v-3.71h-8.22v-5.38h8.11v-3.63h-8.11v-5.12h8.17v-3.91z"/><path d="m147.43 180.28v5.12h3.19s2.83-.13 2.83-2.58c0 0 .2-2.24-2.96-2.54zm3.13-3.82c1.74.03 3.31.54 3.31.54 3.94 1.65 3.64 5.58 3.64 5.58 0 5.56-5.6 6.41-5.6 6.41l6.91 9.22h-4.65l-6.8-8.61v8.61h-4.13v-21.75z"/></g><path fill="url(#7)" d="m64.07 176.4v9.02h-6.971v-9h-4.093v21.82h4.113v-8.76h6.973v8.76h4.061v-21.84zm.3 9.33v-9.02h3.474v21.22h-3.442v-8.76h-7.587v8.76h-3.5v-21.2h3.475v9z"/><path fill="url(#5)" d="m80.05 176.4l.002 15.56c-.017.14-.334 3.31-3.353 3.31h-.124c-.727 0-3.098-.23-3.375-3.29v-15.56h-4.167l.015 15.57c.005.07.252 7.17 7.478 7.17 0 0 .067.001.193.001 1.198 0 7.114-.34 7.449-7.19v-15.58zm-3.341 19.18c3.299 0 3.65-3.55 3.65-3.6v-15.27h3.502v15.26c-.322 6.55-6 6.89-7.142 6.89-.111 0-.161-.001-.186-.001-6.919 0-7.171-6.59-7.171-6.87l-.015-15.25h3.539v15.27c.314 3.41 3.123 3.58 3.689 3.58z"/><path d="m85.43 194.37c.228.4 1.116 1.88 2.561 2.89.02.001 1.495 1.08 4.046 1.4 0 0 .334.05.852.05 1.024 0 2.521-.17 3.808-.98.032-.02 2.507-1.35 3.155-3.94 0-.02.425-2.45-.218-3.87-.009-.03-.598-1.69-2.246-2.74-.02-.02-1-.84-3.557-1.49-.098-.02-2.548-.55-3.766-1.69 0 0-1.497-1.11-.745-3.08.025-.04.498-1.37 2.453-1.8.081-.02 2.182-.22 3.536.91.091.07.876.69 1.2 1.12l2.405-2.28c-.43-.5-2.363-2.56-5.092-2.77-.02-.001-.508-.11-1.272-.11-1.267 0-3.128.26-4.868 1.5-.02.001-1.557 1.07-2.084 3.3-.017.02-.539 2.58.587 4.28.017.02 1.381 2.07 4.01 3.04l3.326 1.23c.097.04 2.237.91 2.561 1.89 0 0 .792 1.49-.475 3-.032.05-.938 1.13-2.88 1.13h-.139c-.398 0-1.804-.09-3.244-1.26-.05-.05-1.193-.96-1.683-1.78zm7.459 4.65c-.532 0-.876-.05-.891-.05-2.638-.33-4.118-1.41-4.185-1.46-1.744-1.21-2.672-3.03-2.707-3.1l-.052-.12 2.7-2.48.094.19c.366.8 1.675 1.84 1.69 1.85 1.368 1.11 2.682 1.2 3.051 1.2h.114c1.814 0 2.665-1 2.675-1.01 1.111-1.36.453-2.63.423-2.69-.245-.73-1.801-1.48-2.38-1.72l-3.326-1.23c-2.742-1.01-4.123-3.07-4.163-3.17-1.202-1.8-.67-4.39-.643-4.51.562-2.35 2.155-3.44 2.22-3.48 1.801-1.29 3.737-1.56 5.04-1.56.787 0 1.299.1 1.324.1 3.194.25 5.288 2.9 5.379 3l.082.12-2.915 2.76-.092-.2c-.106-.26-.801-.88-1.217-1.2-.894-.74-2.165-.86-2.851-.86-.272 0-.445.02-.445.02-1.745.39-2.18 1.57-2.195 1.61-.681 1.75.628 2.72.638 2.73 1.171 1.1 3.616 1.62 3.635 1.64 2.648.66 3.641 1.5 3.692 1.54 1.713 1.09 2.317 2.79 2.332 2.87.68 1.49.25 3.93.23 4.05-.681 2.73-3.185 4.08-3.296 4.14-1.329.84-2.896 1.02-3.962 1.02" fill="#231f20"/><g fill="url(#5)"><path d="m100.04 176.42v4.24h5.75v17.8h4.16v-17.78h5.63v-4.26zm.32.31h14.91v3.65h-5.63v17.77h-3.54v-17.8h-5.74z"/><path d="m116.53 176.42v21.93h12.35v-4.09h-8.19v-17.84zm.31.31h3.53v17.84h8.2v3.47h-11.73z"/></g><g fill="url(#7)"><path d="m129.89 176.32v22.06h12.3v-4.04h-8.24v-5.06h8.12v-3.95h-8.12v-4.81h8.17v-4.2zm.31.3h11.61v3.58h-8.16v5.44h8.1v3.33h-8.1v5.68h8.23v3.42h-11.68z"/><path d="m143.08 176.31v22.07h4.44v-8.34l6.58 8.34h5.04l-6.96-9.28c1.11-.26 5.48-1.57 5.48-6.52.001-.03.27-4.04-3.74-5.72-.06-.03-1.62-.53-3.36-.55zm.31.3h7.17c1.69.03 3.25.54 3.25.54 3.79 1.59 3.56 5.26 3.54 5.43 0 5.36-5.24 6.22-5.46 6.25l-.26.05 6.89 9.19h-4.27l-7.03-8.91v8.91h-3.83zm3.89 3.51v5.44h3.35c.02 0 2.96-.18 2.96-2.72 0-.02.2-2.39-3.09-2.72zm.3.31h2.9c2.96.29 2.82 2.3 2.81 2.39 0 2.26-2.57 2.42-2.67 2.42h-3.04z"/></g><path d="m186.97 179.56-1.57 1v-3.46l1.57-1.5z" fill="#905501"/><path fill="url(#9)" d="m201.73 188.76c0 .02-.001.05-.001.07 0-.04.001-.09.001-.13v.06m-.31 1.29c0 .02 0 .02-.001.03.001-.03.02-.05.03-.08-.001.02-.001.03-.02.05m-.52 1.11c-.001.02-.02.02-.03.04.001-.02.03-.04.04-.06-.001.001-.001.02-.001.02m-.76.93c-.001.001-.04.001-.04.03l.08-.08c-.001.001-.03.03-.04.05m-.38.32c0-.001.001-.001.001-.02 0 0-.001.001-.001.02m1.48-8.41c.02.04.04.07.06.12.001.02.001.04.02.06-.02-.06-.05-.12-.08-.18m-1.66-1.99l.06.03c.03.03.09.06.11.09-.05-.04-.11-.08-.17-.12m5.57 1.63c-.41-.98-1.04-1.76-1.89-2.36-.87-.61-1.96-1.03-3.33-1.31-1.36-.27-2.97-.4-4.87-.42l-8.09.001-1.57 1h7.07c1.65 0 3.07.11 4.27.34.87.18 1.62.43 2.26.76.38.24.73.52 1.01.84.35.36.63.78.86 1.25.22.47.38.99.5 1.58.1.59.15 1.24.15 1.94-.04.69-.1 1.32-.21 1.89-.12.58-.29 1.09-.49 1.56-.21.47-.45.89-.77 1.27-.24.28-.51.54-.81.78-.12.07-.23.13-.35.2-.16.08-.34.16-.51.24-.36.15-.75.28-1.17.4-.43.12-.9.21-1.38.28-.49.08-1.02.14-1.58.17-.56.04-1.15.06-1.78.06l-3.07.001 2.14.98 3.52-.001c.71 0 1.39-.001 2.03-.06s1.25-.11 1.8-.2c.57-.08 1.09-.2 1.58-.32.48-.14.93-.29 1.35-.46.19-.09.38-.18.57-.28.18-.09.36-.19.53-.3.16-.11.32-.22.48-.34.14-.11.29-.24.43-.37.33-.31.62-.67.86-1.06.25-.39.44-.81.6-1.26.16-.46.28-.96.34-1.49.09-.53.13-1.09.13-1.71 0-1.42-.2-2.62-.61-3.61"/><path d="m186.97 199.07l-1.57-1.49v-6.92l1.57.48z" fill="#6a3c00"/><path d="m186.97 191.14l-1.57-.48 4 .001 2.14.49z" fill="url(#8)"/><path d="m201.99 198.45c-.26.07-.53.12-.78.18-.31.06-.61.11-.93.17-.32.05-.64.09-.97.12-.32.03-.66.05-.99.07-.34.03-.68.03-1.03.03l.79-.16c.34-.001.68-.001 1.02-.03s.67-.05 1-.08c.33-.04.64-.08.96-.12.32-.06.63-.11.93-.18" fill="#905501"/><path d="m201.99 198.45l-.76.17c-.31.06-.62.12-.94.17-.31.05-.64.09-.97.13-.32.02-.66.05-1 .07-.34.03-.68.03-1.03.03l.79-.16c.34-.001.68-.001 1.02-.03s.67-.05 1-.08c.33-.04.64-.08.96-.12.32-.06.63-.11.93-.18" fill="#805e00"/><path d="m201.36 176.07c.26.06.53.11.79.17-.33-.07-.68-.14-1.02-.19-.35-.05-.7-.09-1.05-.13s-.73-.06-1.09-.09c-.37-.001-.74-.001-1.12-.02l-.78-.17c.38.001.75.001 1.12.04.36.001.72.04 1.08.07.36.04.71.08 1.04.13.36.07.69.12 1.03.19" fill="url(#6)"/><g fill="#fff200"><path d="m197.87 175.81l-.77-.17c.24.001.47.001.71.02.23 0 .47.02.7.03s.46.03.68.06c.23.02.46.04.68.07l.78.17c-.24-.03-.46-.06-.68-.08-.23-.001-.46-.04-.69-.05-.23-.02-.46-.03-.7-.04-.24 0-.47 0-.71-.001"/><path d="m200.65 175.99l-.78-.17c.13.001.26.03.38.05.13.02.26.04.39.07.12.001.25.04.37.06.13.03.25.05.37.08l.77.17c-.13-.03-.24-.06-.38-.08-.11-.03-.24-.05-.36-.07-.13-.02-.25-.05-.39-.07-.12-.001-.25-.03-.37-.04"/></g><path d="m187.97 178.73l-1 .83v-3.96l1 .16z" fill="url(#4)"/><path d="m198.08 198.86l-.79.16-10.32.05 1-.17z" fill="#905501"/><path d="m206.71 183.25c-.45-1.1-1.14-1.97-2.09-2.63-.95-.67-2.15-1.14-3.62-1.45-1.47-.3-3.21-.44-5.24-.44h-7.79l-1 .83 8.09-.001c1.9.02 3.51.15 4.87.42 1.37.28 2.46.7 3.33 1.31.85.6 1.48 1.38 1.89 2.36.41.99.61 2.19.61 3.61 0 .26-.001.5-.02.73-.02.25-.04.49-.07.71-.02.23-.05.44-.09.65-.04.23-.09.43-.14.63-.03.12-.07.24-.1.37-.05.11-.09.23-.13.33-.04.13-.09.24-.14.35-.05.1-.1.21-.15.32-.05.06-.09.13-.12.2-.04.07-.09.14-.13.2-.03.07-.08.12-.12.19-.04.06-.09.12-.14.18-.03.06-.08.11-.12.16-.05.06-.09.12-.13.17-.05.05-.1.09-.14.14-.06.05-.11.1-.15.15-.06.06-.12.11-.18.16-.04.05-.1.1-.16.15-.05.04-.12.09-.18.14-.06.04-.12.09-.19.14-.09.05-.17.11-.25.17-.1.06-.18.11-.29.16-.08.06-.18.11-.28.16-.09.05-.19.1-.3.15-.42.18-.88.36-1.37.51-.5.13-1.04.25-1.62.35-.58.09-1.21.16-1.87.21s-1.37.07-2.12.07l-3.52.001.001.85 4.21-.001c.81-.001 1.56-.03 2.28-.08.7-.04 1.37-.12 1.98-.21.63-.1 1.2-.22 1.71-.37.54-.14 1.03-.31 1.47-.52.12-.04.22-.09.33-.15.11-.05.21-.1.3-.17.1-.05.2-.12.3-.17.09-.06.18-.12.27-.19.08-.05.14-.09.21-.14.06-.05.13-.1.19-.16.06-.05.12-.1.19-.15.05-.06.12-.1.18-.17.05-.06.1-.11.15-.16s.1-.12.16-.17c.05-.06.1-.11.14-.17.05-.07.1-.12.14-.18.06-.06.1-.14.15-.21.05-.06.09-.13.14-.21.05-.06.08-.14.14-.21.03-.08.07-.16.11-.23.07-.11.13-.24.19-.35.05-.13.1-.26.16-.39.05-.12.1-.25.13-.39.05-.13.09-.27.13-.41.07-.23.13-.46.18-.71.05-.24.09-.49.13-.76.05-.26.08-.53.1-.81.03-.28.05-.56.07-.86 0-1.58-.22-2.91-.68-4" fill="url(#1)"/><path d="m187.97 175.76l-1-.16 10.12.04.78.17z" fill="#fff200"/><path fill="url(#3)" d="m210.84 188.61l-.17 1.32-.29 1.24-.4 1.14-.51 1.04-.62.96-.69.87-.8.76-.89.68-.97.59-1.06.5-1.12.4-1.21.32-1.26.23-1.32.15-1.39.05-10.17.04-.02-7.81 4.51.001v3.91l3.48-.001 1.36-.03 1.27-.09 1.16-.15 1.07-.2.95-.26.87-.32.76-.38.68-.44.59-.51.5-.56.42-.63.33-.7.26-.77.18-.83.1-.9.05-.98-.05-1.01-.1-.93-.19-.84-.26-.77-.35-.69-.42-.62-.51-.54-.59-.49-.69-.41-.77-.35-.86-.29-.96-.24-1.06-.17-1.14-.12-1.25-.08-1.35-.03h-7.97v-3.91l9.98.05 1.33.04 1.3.12 1.24.2 1.2.28 1.14.36 1.07.44.99.54.92.63.84.73.74.82.64.93.54 1.03.43 1.15.32 1.25.19 1.38.07 1.48z"/><path d="m187.95 191.85l-.98-.71 4.57.02.001.69z" fill="url(#2)"/><path d="m187.97 198.9l-1 .17v-7.93l.98.71z" fill="url(#A)"/><path d="m179.78 199.11l-.65-1.5v-8.85l.65.2z" fill="#6a3c00"/><path d="m179.78 184.89l-.65.31v-8.13l.65-1.51z" fill="#905501"/><path d="m168.58 175.51l.78 1.51v8.17l-.78-.32z" fill="url(#B)"/><path d="m168.58 188.97l.78-.2v8.88l-.78 1.51z" fill="#905501"/><path d="m184.13 175.75l.24-.17v23.5l-.24-.15z" fill="url(#G)"/><path d="m180.53 185.38l-.75-.49v-9.33l.75.17z" fill="url(#I)"/><path d="m184.13 198.93l.24.15-4.59.03.75-.17z" fill="#905501"/><path d="m180.53 198.94l-.75.17v-10.15l.75-.51z" fill="url(#K)"/><path d="m180.53 175.73l-.75-.17 4.59.02-.24.16z" fill="#fff200"/><path d="m167.79 185.36l.79-.49 11.2.02.75.49z" fill="url(#J)"/><path d="m180.53 188.45l-.75.51-11.2.001-.79-.52z" fill="url(#H)"/><path d="m167.79 188.45l.79.52v10.19l-.79-.15z" fill="url(#F)"/><path d="m167.79 175.66l.79-.15v9.36l-.79.49z" fill="url(#C)"/><path d="m167.79 199.01l.79.15-4.65.02.2-.16z" fill="#905501"/><path fill="url(#E)" d="m180.53 185.38v-9.65l3.6.02v23.18l-3.6.001v-10.49h-12.74v10.56l-3.66.001v-23.37l3.66.001v9.7z"/><path d="m164.13 199.02l-.2.16v-23.69l.2.16z" fill="url(#D)"/><path d="m164.13 175.65l-.2-.16 4.66.02-.8.15z" fill="#fff200"/></g></svg>