<svg xmlns="http://www.w3.org/2000/svg" height="184.86" width="600" viewBox="0 0 158.75 48.910149"><g transform="translate(257.91 190.61)" fill="#00464f"><path d="m-215.22-180.63v22.74c0 4.14-2.52 7.69-6.11 9.2.11-4.19-.73-11.76-8.05-19.16-5.11-5.18-8.94-1.5-9.75-1.09-.58.29-1.26-1.14-1.24-1.92.05-2.49 3.24-3.09 4.69-6.07.67-1.39.36-3.32-.55-4.69.85.5 2.4 4.41 2.62 6.72.1-10.44-5.38-10.36-6.24-10.48-.98-.13-3.5.001-4.89 1.21-1.03.89-4.17 1.64-5.22 1.9-1.05.27-1.93.65-3.6 1.1.79-.001 4.06.09 4.94.31.88.23 4.88.73 5.73.66 2.02-.16 4.31 1.47 3.5 3.22-.99 2.13-2.48 2.46-3.88 4.8-5.32 8.9 5.9 16.64 6.21 18.27.39 2.13 4.93 6 4.93 6h-9.52l-2.2 6.21-2.84-6.21h-1.25c-5.51 0-9.97-4.47-9.97-9.98v-22.74c0-5.51 4.46-9.98 9.97-9.98h22.75c5.51 0 9.97 4.47 9.97 9.98" fill-rule="evenodd"/><g transform="matrix(1.0179 0 0 1.0179-19.12-100.14)"><g fill-rule="evenodd"><path d="m-89.87-69.5l5.499 11.933h.274l5.459-11.933h-1.642l-3.957 8.69-3.998-8.69z"/><path d="m-99.61-72.18h3.635v14.663h1.66v-14.663h3.623v-1.58h-8.918z"/></g><path d="m-184.66-74.12h1.62v16.243h-1.62z"/><g fill-rule="evenodd"><path d="m-173.29-59.06c.86 0 1.65-.207 2.38-.627.73-.425 1.31-1.024 1.74-1.791s.65-1.573.65-2.429c0-.851-.22-1.668-.65-2.44-.44-.773-1.02-1.372-1.76-1.797-.73-.437-1.51-.655-2.34-.655-.85 0-1.65.218-2.42.655-.75.425-1.34 1-1.76 1.729-.4.734-.6 1.551-.6 2.463 0 1.394.45 2.552 1.37 3.487.92.94 2.05 1.405 3.39 1.405m-6.19 1.181v-16.646h1.54v6.7c.64-.795 1.37-1.388 2.17-1.78.81-.397 1.69-.593 2.64-.593 1.7 0 3.15.615 4.35 1.852 1.21 1.232 1.81 2.726 1.81 4.484 0 1.735-.6 3.218-1.82 4.449-1.21 1.232-2.67 1.842-4.38 1.842-.98 0-1.87-.207-2.66-.627s-1.5-1.047-2.11-1.886v2.205z"/><path d="m-154.04-65.1c-.21-.823-.51-1.483-.91-1.976-.39-.492-.9-.89-1.55-1.192s-1.33-.453-2.04-.453c-1.18 0-2.19.38-3.04 1.136-.62.554-1.08 1.382-1.4 2.485zm0 3.235l1.31.683c-.44.839-.93 1.517-1.49 2.032s-1.18.912-1.88 1.181c-.7.268-1.49.397-2.38.397-1.96 0-3.48-.638-4.59-1.92-1.11-1.287-1.65-2.742-1.65-4.36 0-1.522.46-2.883 1.4-4.075 1.18-1.517 2.77-2.272 4.75-2.272 2.05 0 3.69.772 4.91 2.328.86 1.097 1.31 2.463 1.32 4.109h-10.79c.02 1.399.47 2.546 1.33 3.442.86.89 1.92 1.338 3.19 1.338.61 0 1.2-.107 1.78-.325.58-.213 1.07-.493 1.48-.845.4-.359.84-.924 1.31-1.713"/></g><path d="m-150.04-69.891h1.58v1.758c.47-.694.96-1.209 1.48-1.545.53-.347 1.07-.521 1.64-.521l1.37.409-.81 1.304-.81-.213c-.52 0-1.02.213-1.5.638-.47.42-.84 1.081-1.09 1.965-.19.688-.28 2.071-.28 4.153v4.064h-1.58z"/><path d="m-136.87-68.71c-.87 0-1.66.212-2.39.638-.73.42-1.31 1.013-1.74 1.78-.43.766-.64 1.572-.64 2.429 0 .845.22 1.657.65 2.429s1.02 1.377 1.74 1.808c.74.431 1.53.644 2.37.644s1.65-.213 2.4-.644c.76-.426 1.34-1 1.75-1.73.41-.727.61-1.55.61-2.462 0-1.394-.45-2.553-1.38-3.487-.9-.935-2.04-1.405-3.37-1.405m6.18-1.181v12.01h-1.53v-2.065c-.64.789-1.37 1.382-2.18 1.78-.8.397-1.68.593-2.64.593-1.7 0-3.15-.616-4.36-1.841-1.2-1.237-1.8-2.737-1.8-4.506 0-1.73.61-3.207 1.82-4.439 1.22-1.225 2.68-1.841 4.38-1.841.99 0 1.88.207 2.68.627s1.5 1.052 2.1 1.892v-2.211z" fill-rule="evenodd"/><path d="m-127.44-74.53h1.54v16.645h-1.54z"/><g fill-rule="evenodd"><path d="m-122.92-69.893h1.56v12.01h-1.56zm.78-4.942l.9.375.37.906-.37.89-.9.375-.9-.375-.37-.89.37-.906z"/><path d="m-112.38-68.71c-.86 0-1.65.212-2.38.638-.73.42-1.31 1.013-1.75 1.78-.42.766-.63 1.572-.63 2.429 0 .845.21 1.657.65 2.429.43.772 1.01 1.377 1.74 1.808s1.52.644 2.36.644c.85 0 1.65-.213 2.41-.644.76-.426 1.34-1 1.75-1.73.41-.727.61-1.55.61-2.462 0-1.394-.46-2.553-1.37-3.487-.92-.935-2.05-1.405-3.39-1.405m6.19-1.181v12.01h-1.52v-2.065c-.66.789-1.39 1.382-2.19 1.78-.81.397-1.69.593-2.64.593-1.7 0-3.15-.616-4.36-1.841-1.2-1.237-1.8-2.737-1.8-4.506 0-1.73.6-3.207 1.82-4.439 1.21-1.225 2.67-1.841 4.38-1.841.99 0 1.88.207 2.68.627s1.5 1.052 2.11 1.892v-2.211z"/></g></g></g></svg>