<svg xmlns="http://www.w3.org/2000/svg" viewBox="0 0 600 616.38"><g transform="translate(-1127.56 1436.71)"><g fill="#73cb65"><path d="m1173.6-1087.5v-56.39c0-4.795-.472-7.992-1.31-9.329-.839-1.441-2.647-2.227-5.424-2.411l-5.188-.419c-2.411-.183-3.59-1.467-3.59-3.695.052-1.913.314-2.987.681-3.38.288-.341 1.336-.576 2.909-.576h7.678c5.32 0 10.377-.052 15.172-.236 4.717-.052 9.224-.367 13.626-.576l4.114-.498h.734c.917 0 1.572.131 1.808.524.367.419.55 1.101.55 2.175 0 .157-.052.97-.21 2.149-.629 9.329-.996 19.47-.996 30.13v41.32c0 5.87.524 9.381 1.389 10.718 1.022 1.415 2.725 2.175 5.32 2.385l4.743.603c.367.052.865.079 1.415.131 1.756.183 2.673 1.284 2.673 3.407 0 1.939-.236 3.145-.76 3.669-.419.419-1.572.681-3.328.681-.288 0-1.363-.052-2.961-.105-8.359-.576-16.823-.917-25.287-.917-6.787 0-13.967.341-21.461.76-1.992.21-3.223.262-3.747.262-1.625 0-2.83-.262-3.275-.681-.498-.524-.786-1.729-.786-3.669 0-2.122.891-3.223 2.647-3.407.524-.052 1.022-.079 1.415-.131l4.638-.603c2.725-.236 4.586-1.153 5.398-2.594.943-1.363 1.415-4.507 1.415-9.303"/><path d="m1173.3-1201.3c0-5.582 1.258-9.512 3.695-12.08 2.516-2.516 6.42-3.747 11.818-3.747 5.45 0 9.329 1.232 11.713 3.695 2.306 2.516 3.564 6.446 3.564 12.133 0 5.686-1.258 9.722-3.564 12.185-2.385 2.437-6.263 3.669-11.713 3.669-5.398 0-9.303-1.232-11.818-3.8-2.437-2.568-3.695-6.499-3.695-12.05"/><path d="m1343.3-1221.8l-4.25.219c-5.608.472-10.711.79-15.375 1-4.664.105-8.995.156-13.188.156h-7.656c-1.782 0-2.847.306-3.188.594-.446.419-.625 1.495-.625 3.094.079 1.834.206 3 .625 3.344.236.393 1.349.604 3 .656l5.344.156c2.515.236 4.275.946 5.219 2.125.891 1.232 1.313 4.365 1.313 9.344v45.03c-3.721-3.669-7.769-6.287-12.25-7.938-4.507-1.651-10.05-2.469-16.781-2.469-15.198 0-26.366 4.214-33.625 12.469-7.101 8.307-10.75 21.23-10.75 38.656 0 17.06 3.493 29.777 10.438 38.03 6.918 8.412 17.541 12.5 31.875 12.5 7.05 0 13.12-1.019 18.281-3.063 5.188-2.044 9.808-5.244 13.844-9.594v9.125c0 .707.18 1.212.469 1.5.341.184.834.313 1.594.313h.969l4.156-.188c4.428-.288 8.966-.442 13.656-.625 4.691-.184 9.664-.219 15.06-.219h5.75c1.546 0 2.513-.201 2.906-.594.367-.341.661-1.457.688-3.344 0-2.358-1.209-3.562-3.594-3.719l-5.438-.406c-2.542-.131-4.124-.79-5.094-1.969-.917-1.153-1.406-4.472-1.406-9.844v-99.47c0-9.984.428-19.764 1.031-29.25.131-1.599.219-2.608.219-2.844 0-1.074-.169-1.8-.563-2.219-.236-.341-.859-.563-1.75-.563h-.906m-49.31 65.59c7.914 0 13.221 2.716 16.16 8.219 2.909 5.555 4.375 18.05 4.375 37.438 0 12.499-1.657 21.632-4.906 27.19-3.197 5.555-8.497 8.406-15.625 8.406-7.599 0-12.925-2.598-15.781-7.813-2.909-5.162-4.5-15.818-4.5-31.75 0-16.771 1.596-27.887 4.531-33.469 2.935-5.503 8.229-8.219 15.75-8.219"/><path d="m1430-1166.5c-18.212 0-31.22 4.09-39 12.187-7.783 8.07-11.562 21.596-11.562 40.594 0 17.295 3.709 29.838 11.125 37.438 7.573 7.547 19.909 11.406 37.12 11.406 14.465 0 25.366-2.17 32.625-6.625 7.311-4.402 10.875-11.06 10.875-19.781 0-2.201-.236-3.663-.813-4.188-.629-.603-1.905-.938-3.844-.938h-7.688c-3.092 0-5.068 1.827-5.906 5.313-.183 1.048-.426 1.845-.688 2.5-1.572 5.241-3.865 9.05-7.219 11.562-3.302 2.62-7.442 3.844-12.656 3.844-7.363 0-12.627-2.459-15.719-7.438-3.145-4.953-4.688-13.415-4.688-25.469 0-2.122.042-3.665.094-4.844.026-1.127.077-2.17.156-3.219h58.31c1.939 0 3.168-.407 3.719-1.063.681-.681.969-2.299.969-4.5 0-17.11-3.536-29.1-10.375-36.09-6.918-7.154-18.492-10.688-34.844-10.688zm-1.094 8.313c5.817 0 10.1 1.836 12.719 5.531 2.62 3.721 3.875 9.724 3.875 18.19v11.781h-33.28v-12.281c0-8.438 1.234-14.395 3.75-17.906 2.568-3.537 6.858-5.312 12.938-5.312z"/><path d="m1549.9-1166.5c-13.783 0-24.04 2.042-30.906 6.156-6.997 4.114-10.375 10.251-10.375 18.531 0 2.594.869 4.472 2.625 5.625 1.834 1.074 4.817 1.656 9.06 1.656 4.376 0 7.37-.603 8.969-1.625 1.677-1.022 2.676-3.311 2.938-6.875.446-5.896 1.7-9.991 3.875-12.219 2.122-2.306 5.688-3.375 10.719-3.375 5.424 0 9.402 1.137 11.812 3.469 2.411 2.306 3.656 5.953 3.656 11.06v21.594h-22.344c-13.914 0-24.1 2.315-30.625 7.03-6.525 4.795-9.781 12.161-9.781 22.25 0 9.224 2.67 16.194 7.938 21.09 5.372 4.874 12.989 7.25 23.16 7.25 5.765 0 11.368-.911 16.688-2.719 5.32-1.861 10.757-4.627 16.312-8.531l1.969 7.563c.262.812.587 1.368.875 1.656.288.183.777.281 1.406.281h.625l3.906-.375c.131 0 .63-.068 1.469-.094 4.795-.367 9.859-.563 14.969-.563h10.156l5.563.25h.875c1.179 0 1.977-.236 2.344-.813.419-.498.594-1.505.594-3.156 0-2.463-1.209-3.749-3.594-3.906l-5.531-.406c-2.516-.21-4.265-.924-5.156-2.313-.76-1.415-1.188-4.758-1.188-10.156v-45.31c0-12.05-3.24-20.49-9.844-25.469-6.525-5.057-17.565-7.563-33.16-7.563m1.094 51.625h11.281v18.562c0 6.42-1.306 11.122-4.03 14.188-2.751 3.04-6.902 4.5-12.562 4.5-4.612 0-8.1-1.425-10.406-4.281-2.411-2.856-3.563-7.1-3.563-12.812 0-6.708 1.662-11.745 4.938-15.12 3.275-3.276 8.03-5.03 14.344-5.03"/><path d="m1640.4-1087.5v-113.26c0-5.084-.472-8.149-1.31-9.512-.865-1.31-2.725-2.07-5.45-2.358l-5.162-.183c-1.651-.052-2.594-.288-2.987-.629-.314-.341-.576-1.494-.681-3.328.105-1.729.367-2.804.655-3.171.341-.262 1.336-.576 3.01-.576h7.626c4.297 0 8.805-.052 13.521-.131 4.638-.21 9.853-.524 15.33-1.022l4.01-.184h.865c.891 0 1.494.184 1.808.576.288.367.472 1.127.472 2.201 0 .131-.079.786-.288 2.122-.524 9.381-.839 19.417-.839 30.06v99.39c0 4.769.446 7.888 1.336 9.25.917 1.441 2.752 2.332 5.398 2.594l4.717.603c.341.053.786.079 1.441.131 1.703.183 2.594 1.284 2.594 3.407 0 1.939-.262 3.145-.734 3.669-.498.393-1.572.681-3.302.681-.367 0-1.389-.052-2.961-.105-8.412-.576-16.849-.917-25.34-.917-6.787 0-13.941.341-21.488.734-1.887.236-3.145.288-3.695.288-1.651 0-2.778-.288-3.328-.681-.472-.524-.812-1.729-.812-3.669 0-2.122.917-3.223 2.673-3.407.55-.052 1.101-.079 1.467-.131l4.691-.603c2.673-.262 4.428-1.074 5.372-2.437.917-1.389 1.389-4.481 1.389-9.407"/></g><g fill="#2f62b7"><path d="m1163.5-973.67h20.754l17.898 55.946h3.695l15.09-55.946h24.475l15.172 55.946h3.878l17.924-55.946h21.566l-25.942 74.68h-31.34l-13.338-54.662-13.259 54.662h-31.471l-25.1-74.68z"/><path d="m1359.9-974.61c-14.36 0-24.347.344-29.719 1.156-7.73 1.232-12.468 5.284-14.25 12.438-1.232 4.822-1.781 12.909-1.781 24.281 0 11.949.55 20.314 1.781 25.19 1.782 7.154 6.52 11.285 14.25 12.438 5.477.839 15.415 1.219 29.906 1.219 14.255 0 24.12-.38 29.469-1.219 7.809-1.153 12.593-5.284 14.375-12.438 1.179-4.874 1.813-13.11 1.813-24.719 0-11.661-.633-19.928-1.813-24.75-1.782-7.154-6.566-11.206-14.375-12.438-5.346-.812-15.322-1.156-29.656-1.156m.062 19.375c9.407 0 15.349.258 17.812.625 2.463.393 4.233 1.339 5.281 2.938.812 1.258 1.419 3.157 1.813 5.594.288 2.62.438 6.493.438 11.812 0 4.56-.175 7.806-.594 9.719-.446 1.965-1.284 3.609-2.438 4.5-1.31 1.232-3.275 1.878-6 2.219-2.725.341-8.07.531-16.25.531-8.648 0-14.47-.331-17.562-.75-4.04-.55-6.474-2.664-7.313-6.438-.472-2.044-.656-5.294-.656-9.906 0-7.442.344-12.5 1.156-15.09.76-2.385 2.412-4.074 4.875-4.781 2.254-.603 8.668-.969 19.438-.969"/><path d="m1422-973.67v74.69h20.281v-18.969h28.625c4.04 0 6.836.129 8.094.313 1.336.314 2.412.875 3.094 1.688.76 1.022 1.348 2.369 1.531 4.125.341 1.808.438 4.787.438 8.875v3.969h20.06v-6.906c0-6.42-.186-10.649-.5-12.719-.262-2.02-.957-3.736-2.031-5.125-1.782-2.411-4.937-3.732-9.156-4.125 3.564-.603 6.307-1.755 8.06-3.406 1.677-1.52 2.835-3.657 3.438-6.094.524-2.542.844-6.555.844-12.03 0-6.42-.406-11.159-1.375-14.09-.97-3.118-2.682-5.484-5.25-7.188-2.149-1.467-4.283-2.343-6.563-2.5-2.332-.262-9.174-.448-20.625-.5h-48.969zm20.281 18.688h28.406c4.717.026 7.525.135 8.469.188 1.022.131 1.803.284 2.563.625 1.022.55 1.706 1.508 2.125 2.688.341 1.179.594 3.01.594 5.344 0 2.62-.159 4.425-.5 5.656-.393 1.205-1.036 2.116-1.875 2.719-.681.498-1.52.812-2.438.969-.996.026-3.917.145-8.844.25h-28.5v-18.438"/><path d="m1520.2-973.67h21.278v55.71h47.51v18.972h-68.786v-74.68"/><path d="m1601.7-973.67v74.66h48.12c7.494 0 12.907-.045 16.16-.281 3.354-.262 6.373-.704 9.281-1.438 6.237-1.494 10.342-5.626 12.281-12.12.917-2.83 1.457-5.895 1.719-9.406.341-3.407.438-8.438.438-15.09 0-6.05-.045-10.705-.281-13.719-.341-2.987-.824-5.802-1.531-8.344-1.992-6.97-6.37-11.251-13-12.719-2.961-.681-5.713-1.067-8.281-1.25-2.647-.131-8.27-.281-16.812-.281h-48.09zm20.09 18.656h28c6.237 0 10.382.284 12.531.625 2.122.393 3.649 1.262 4.75 2.625 1.048 1.232 1.727 2.938 2.094 5.375.367 2.332.594 5.821.594 10.406 0 4.612-.3 8.153-.719 10.406-.419 2.385-1.274 4.057-2.375 5-.943 1.022-2.667 1.753-5.156 2.094-2.411.341-6.264.531-11.531.531h-28.19v-37.06"/></g><path fill="#ee293d" d="m1727.6-1219.1h-.157v-2.725l.105-3.066-.341-2.463-.603-2.175-.629-1.389-1.467-2.411-1.467-1.861-1.284-.97-1.965-1.546-.105.079-277.66-194.51-3.695-2.358-3.538-1.467-3.826-.708-3.433.184-3.249.707-3.669 1.782-2.489 1.598-8.726 6-281.8 196.87 17.478 18 284.79-194.91 272.81 187.65v.262l-.026.105h.026v374.75h1.179-1.258v.157h-546.91.026v-172.97h518.92v-25.16h-519.4-11.08l-3.01.603-3.564 1.441-2.882 2.463-2.07 3.04-1.258 2.778-.629 3.721-.131 3.957.026 6.682v173.45l-.026 2.856v2.856l.026 3.511.446 3.171 1.625 3.485 2.358 2.961 2.778 2.096 2.542 1.179 2.752.839 3.747.262h555.87v-.157h8.438l3.511-.105 2.909-.629 2.568-1.258 2.02-1.572 1.677-1.52 1.284-2.149 1.363-2.463.576-3.302v-4.04l-.026-3.511-.026-1.991.131.157.419-376.27z"/></g></svg>