<?xml version="1.0" encoding="UTF-8" standalone="no"?>
<!-- Created with Inkscape (http://www.inkscape.org/) -->

<svg
   xmlns:dc="http://purl.org/dc/elements/1.1/"
   xmlns:cc="http://creativecommons.org/ns#"
   xmlns:rdf="http://www.w3.org/1999/02/22-rdf-syntax-ns#"
   xmlns:svg="http://www.w3.org/2000/svg"
   xmlns="http://www.w3.org/2000/svg"
   version="1.1"
   width="600"
   height="151.75681"
   id="svg128404">
  <defs
     id="defs128406">
    <clipPath
       id="clipPath71609">
      <path
         d="m 231.042,268.934 26.827,0 0,6.786 -26.827,0 0,-6.786 z"
         id="path71611" />
    </clipPath>
  </defs>
  <metadata
     id="metadata128409">
    <rdf:RDF>
      <cc:Work
         rdf:about="">
        <dc:format>image/svg+xml</dc:format>
        <dc:type
           rdf:resource="http://purl.org/dc/dcmitype/StillImage" />
        <dc:title></dc:title>
      </cc:Work>
    </rdf:RDF>
  </metadata>
  <g
     transform="translate(-49.999889,-456.4839)"
     id="layer1">
    <g
       transform="matrix(22.365527,0,0,-22.365527,-5117.3762,6623.107)"
       id="g71605">
      <g
         clip-path="url(#clipPath71609)"
         id="g71607">
        <path
           d="m 231.041,269.669 26.828,0 0,4.408 -26.828,0 0,-4.408 z"
           id="path71613"
           style="fill:#443a3d;fill-opacity:1;fill-rule:nonzero;stroke:none" />
        <g
           transform="translate(242.96449,269.6687)"
           id="g71615">
          <path
             d="m 0,0 -10.531,0 0.09,-0.734"
             id="path71617"
             style="fill:#66c544;fill-opacity:1;fill-rule:nonzero;stroke:none" />
        </g>
        <g
           transform="translate(250.5022,275.7206)"
           id="g71619">
          <path
             d="m 0,0 -18.651,-1.314 0.04,-0.33 20.534,0"
             id="path71621"
             style="fill:#66c544;fill-opacity:1;fill-rule:nonzero;stroke:none" />
        </g>
        <g
           transform="translate(253.0872,273.511)"
           id="g71623">
          <path
             d="m 0,0 -0.662,0.566 -20.534,0 0.542,-4.408 10.531,0 10.497,0.739 0,0.053 L 0,0 z"
             id="path71625"
             style="fill:#40b93c;fill-opacity:1;fill-rule:nonzero;stroke:none" />
        </g>
        <g
           transform="translate(242.99249,269.6687)"
           id="g71627" />
        <g
           transform="translate(253.4682,270.4075)"
           id="g71629">
          <path
             d="m 0,0 -0.007,0 0,0.053 L 0,0 z"
             id="path71631"
             style="fill:#400707;fill-opacity:1;fill-rule:nonzero;stroke:none" />
        </g>
        <path
           d="m 233.157,270.746 0.639,0 0,2.458 -0.639,0 0,-2.458 z"
           id="path71633"
           style="fill:#ffffff;fill-opacity:1;fill-rule:nonzero;stroke:none" />
        <g
           transform="translate(236.54829,270.74631)"
           id="g71635">
          <path
             d="M 0,0 -0.681,0 -1.337,1.101 C -1.366,1.154 -1.402,1.216 -1.442,1.294 -1.523,1.448 -1.556,1.517 -1.638,1.71 l 0,-0.111 c 0,-0.18 -0.006,-0.315 -0.026,-0.465 L -1.801,0 l -0.623,0 0.301,2.457 0.672,0 0.701,-1.186 0.105,-0.196 0.095,-0.19 0.049,-0.092 c 0,0.046 0,0.078 0.003,0.102 0.003,0.094 0.014,0.216 0.027,0.321 l 0.153,1.241 0.62,0"
             id="path71637"
             style="fill:#ffffff;fill-opacity:1;fill-rule:nonzero;stroke:none" />
        </g>
        <g
           transform="translate(237.8295,272.6629)"
           id="g71639">
          <path
             d="m 0,0 0,-0.41 0.698,0 0,-0.54 -0.698,0 0,-0.967 -0.639,0 0,2.458 1.406,0 0,-0.541"
             id="path71641"
             style="fill:#ffffff;fill-opacity:1;fill-rule:nonzero;stroke:none" />
        </g>
        <g
           transform="translate(240.2074,272.7021)"
           id="g71643">
          <path
             d="m 0,0 c -0.417,0 -0.731,-0.321 -0.731,-0.743 0,-0.41 0.292,-0.708 0.688,-0.708 0.41,0 0.715,0.311 0.715,0.734 C 0.672,-0.301 0.387,0 0,0 m -0.036,-2.041 c -0.777,0 -1.331,0.53 -1.331,1.281 0,0.774 0.586,1.35 1.38,1.35 0.77,0 1.294,-0.511 1.294,-1.261 0,-0.8 -0.56,-1.37 -1.343,-1.37"
             id="path71645"
             style="fill:#ffffff;fill-opacity:1;fill-rule:nonzero;stroke:none" />
        </g>
        <g
           transform="translate(249.7686,272.12711)"
           id="g71647">
          <path
             d="M 0,0 C 0.256,0 0.425,0.12 0.426,0.297 0.425,0.448 0.31,0.531 0.085,0.532 l -0.107,0 L -0.097,0 0,0 z m 0.422,-1.38 -0.568,0.941 -0.113,-0.941 -0.641,0 0.301,2.458 0.804,0 C 0.785,1.077 1.075,0.828 1.076,0.325 1.077,0.068 1.011,-0.115 0.859,-0.257 0.781,-0.331 0.716,-0.367 0.565,-0.43 l 0.591,-0.933 -0.01,-0.006 0,0.012 0,-0.012 0.01,0.006 0.012,-0.017"
             id="path71649"
             style="fill:#ffffff;fill-opacity:1;fill-rule:nonzero;stroke:none" />
        </g>
        <g
           transform="translate(251.5648,270.7469)"
           id="g71651">
          <path
             d="m 0,0 0,1.899 -0.513,0 0,0.559 1.695,0 0,-0.559 -0.526,0 0,-1.899"
             id="path71653"
             style="fill:#ffffff;fill-opacity:1;fill-rule:nonzero;stroke:none" />
        </g>
        <g
           transform="translate(243.0918,272.5596)"
           id="g71655">
          <path
             d="M 0,0 0.007,0.009 0,0 z m -1.122,-1.76 c -0.127,0.052 -0.176,0.082 -0.289,0.163 l -0.008,0.006 0.273,0.528 0.011,-0.01 c 0.188,-0.167 0.359,-0.243 0.535,-0.243 0.18,0.001 0.285,0.089 0.286,0.228 0,0.046 -0.018,0.092 -0.048,0.122 -0.061,0.063 -0.114,0.087 -0.314,0.146 -0.195,0.059 -0.273,0.088 -0.361,0.138 -0.191,0.099 -0.284,0.287 -0.284,0.552 0,0.496 0.331,0.832 0.817,0.833 0.251,0 0.517,-0.069 0.756,-0.199 L 0.262,0.498 0.01,-0.006 0.004,-0.019 l -0.012,0.01 c -0.131,0.112 -0.257,0.163 -0.392,0.163 -0.148,0 -0.254,-0.087 -0.254,-0.199 0,-0.043 0.017,-0.081 0.053,-0.112 0.039,-0.038 0.094,-0.066 0.154,-0.086 0.033,-0.012 0.106,-0.032 0.211,-0.064 0.218,-0.069 0.332,-0.131 0.434,-0.247 0.109,-0.119 0.155,-0.253 0.154,-0.443 0,-0.151 -0.037,-0.339 -0.09,-0.447 -0.134,-0.267 -0.458,-0.434 -0.842,-0.434 l -0.002,0 c -0.188,0 -0.347,0.036 -0.54,0.118"
             id="path71657"
             style="fill:#ffffff;fill-opacity:1;fill-rule:nonzero;stroke:none" />
        </g>
        <g
           transform="translate(244.64709,272.07561)"
           id="g71659">
          <path
             d="m 0,0 -0.202,0 0,0.607 0.205,0 c 0.224,0 0.335,-0.1 0.335,-0.305 C 0.338,0.094 0.233,0 0,0 M 0.759,0.921 C 0.603,1.072 0.44,1.129 0.161,1.128 l -0.991,0 0,-2.457 0.64,0 0,0.808 0.373,0 c 0.523,0.001 0.81,0.296 0.81,0.83 0,0.255 -0.077,0.46 -0.234,0.612"
             id="path71661"
             style="fill:#ffffff;fill-opacity:1;fill-rule:nonzero;stroke:none" />
        </g>
        <g
           transform="translate(246.79401,272.43719)"
           id="g71663">
          <path
             d="m 0,0 c -0.129,-0.13 -0.194,-0.277 -0.194,-0.457 0,-0.186 0.062,-0.344 0.191,-0.473 0.129,-0.128 0.283,-0.193 0.469,-0.194 0.186,0.001 0.338,0.065 0.467,0.194 0.129,0.129 0.194,0.284 0.194,0.467 0,0.186 -0.065,0.337 -0.194,0.466 C 0.804,0.132 0.649,0.194 0.466,0.194 0.287,0.194 0.132,0.129 0,0 m 0.466,-1.799 c -0.388,0 -0.72,0.127 -0.987,0.377 -0.263,0.253 -0.398,0.566 -0.398,0.936 0,0.283 0.074,0.537 0.221,0.76 0.147,0.224 0.351,0.392 0.608,0.495 0.167,0.067 0.347,0.1 0.543,0.1 0.401,0 0.737,-0.127 1,-0.377 0.264,-0.25 0.398,-0.573 0.398,-0.955 0,-0.389 -0.134,-0.713 -0.404,-0.962 -0.266,-0.25 -0.595,-0.374 -0.98,-0.374"
             id="path71665"
             style="fill:#ffffff;fill-opacity:1;fill-rule:nonzero;stroke:none" />
        </g>
        <g
           transform="translate(250.8311,273.048)"
           id="g71667">
          <path
             d="m 0,0 2.256,0.463 -2.585,2.21"
             id="path71669"
             style="fill:#8cd24e;fill-opacity:1;fill-rule:nonzero;stroke:none" />
        </g>
        <g
           transform="translate(256.0569,271.6244)"
           id="g71671">
          <path
             d="m 0,0 0,-0.885 c 0,-0.033 -0.007,-0.046 -0.033,-0.046 l -0.674,0 c -0.023,0 -0.037,0.017 -0.037,0.04 l 0,0.884 c 0,0.037 -0.012,0.05 -0.042,0.05 l -0.875,0 c -0.026,0 -0.039,0.016 -0.039,0.046 l 0,0.671 c 0,0.026 0.01,0.039 0.036,0.039 l 0.881,0 c 0.027,0 0.039,0.013 0.039,0.042 l 0,0.76 c 0,0.02 0.014,0.033 0.033,0.033 l 0.671,0 C -0.013,1.634 0,1.624 0,1.601 L 0,0.841 C 0,0.806 0.007,0.799 0.036,0.799 l 0.882,0 c 0.026,0 0.036,-0.013 0.036,-0.043 l 0,-0.674 C 0.954,0.059 0.941,0.043 0.918,0.043 l -0.872,0 C 0.01,0.043 0,0.036 0,0"
             id="path71673"
             style="fill:#ffffff;fill-opacity:1;fill-rule:nonzero;stroke:none" />
        </g>
      </g>
    </g>
  </g>
</svg>
