<svg xmlns="http://www.w3.org/2000/svg" height="136.38" viewBox="0 0 600 136.37769"><path d="m0 121.62h539.14v-88.58h-539.14z" fill="#443a3d"/><g fill="#66c544"><path d="m0 0h-10.531l.09-.734" transform="matrix(20.096 0 0-20.096 239.61 121.63)"/><path d="m0 0l-18.651-1.314.04-.33h20.534" transform="matrix(20.096 0 0-20.096 391.09.008)"/></g><path d="m0 0l-.662.566h-20.534l.542-4.408h10.531l10.497.739v.053z" fill="#40b93c" transform="matrix(20.096 0 0-20.096 443.04 44.41)"/><path d="m0 0h-.007v.053z" fill="#400707" transform="matrix(20.096 0 0-20.096 450.7 106.78)"/><g fill="#fff"><path d="m42.523 99.98h12.842v-49.4h-12.842z"/><path d="m0 0h-.681l-.656 1.101c-.029.053-.065.115-.105.193-.081.154-.114.223-.196.416v-.111c0-.18-.006-.315-.026-.465l-.137-1.134h-.623l.301 2.457h.672l.701-1.186.105-.196.095-.19.049-.092c0 .046 0 .078.003.102.003.094.014.216.027.321l.153 1.241h.62" transform="matrix(20.096 0 0-20.096 110.67 99.97)"/><path d="m0 0v-.41h.698v-.54h-.698v-.967h-.639v2.458h1.406v-.541" transform="matrix(20.096 0 0-20.096 136.42 61.46)"/><path d="m0 0c-.417 0-.731-.321-.731-.743 0-.41.292-.708.688-.708.41 0 .715.311.715.734 0 .416-.285.717-.672.717m-.036-2.041c-.777 0-1.331.53-1.331 1.281 0 .774.586 1.35 1.38 1.35.77 0 1.294-.511 1.294-1.261 0-.8-.56-1.37-1.343-1.37" transform="matrix(20.096 0 0-20.096 184.21 60.668)"/><path d="m0 0c.256 0 .425.12.426.297 0 .151-.116.234-.341.235h-.107l-.075-.532zm.422-1.38l-.568.941-.113-.941h-.641l.301 2.458h.804c.58 0 .87-.25.871-.753 0-.257-.065-.44-.217-.582-.078-.074-.143-.11-.294-.173l.591-.933v-.006.012-.012.006l.012-.017" transform="matrix(20.096 0 0-20.096 376.35 72.22)"/><path d="m0 0v1.899h-.513v.559h1.695v-.559h-.526v-1.899" transform="matrix(20.096 0 0-20.096 412.45 99.96)"/><path d="m0 0l.007.009zm-1.122-1.76c-.127.052-.176.082-.289.163l-.008.006.273.528h.011c.188-.167.359-.243.535-.243.18 0 .285.089.286.228 0 .046-.018.092-.048.122-.061.063-.114.087-.314.146-.195.059-.273.088-.361.138-.191.099-.284.287-.284.552 0 .496.331.832.817.833.251 0 .517-.069.756-.199l.0001-.006-.252-.504-.006-.013h-.012c-.131.112-.257.163-.392.163-.148 0-.254-.087-.254-.199 0-.043.017-.081.053-.112.039-.038.094-.066.154-.086.033-.012.106-.032.211-.064.218-.069.332-.131.434-.247.109-.119.155-.253.154-.443 0-.151-.037-.339-.09-.447-.134-.267-.458-.434-.842-.434h-.002c-.188 0-.347.036-.54.118" transform="matrix(20.096 0 0-20.096 242.17 63.53)"/><path d="m0 0h-.202v.607h.205c.224 0 .335-.1.335-.305 0-.208-.105-.302-.338-.302m.759.921c-.156.151-.319.208-.598.207h-.991v-2.457h.64v.808h.373c.523 0 .81.296.81.83 0 .255-.077.46-.234.612" transform="matrix(20.096 0 0-20.096 273.43 73.26)"/><path d="m0 0c-.129-.13-.194-.277-.194-.457 0-.186.062-.344.191-.473.129-.128.283-.193.469-.194.186 0 .338.065.467.194s.194.284.194.467c0 .186-.065.337-.194.466s-.284.191-.467.191c-.179 0-.334-.065-.466-.194m.466-1.799c-.388 0-.72.127-.987.377-.263.253-.398.566-.398.936 0 .283.074.537.221.76.147.224.351.392.608.495.167.067.347.1.543.1.401 0 .737-.127 1-.377.264-.25.398-.573.398-.955 0-.389-.134-.713-.404-.962-.266-.25-.595-.374-.98-.374" transform="matrix(20.096 0 0-20.096 316.57 65.992)"/></g><path d="m0 0l2.256.463-2.585 2.21" fill="#8cd24e" transform="matrix(20.096 0 0-20.096 397.7 53.717)"/><path d="m0 0v-.885c0-.033-.007-.046-.033-.046h-.674c-.023 0-.037.017-.037.04v.884c0 .037-.012.05-.042.05h-.875c-.026 0-.039.016-.039.046v.671c0 .026.001.039.036.039h.881c.027 0 .039.013.039.042v.76c0 .02.014.033.033.033h.671c.027 0 .04-.001.04-.033v-.76c0-.035.007-.042.036-.042h.882c.026 0 .036-.013.036-.043v-.674c0-.023-.013-.039-.036-.039h-.872c-.036 0-.046-.007-.046-.043" fill="#fff" transform="matrix(20.096 0 0-20.096 502.72 82.33)"/><path d="m0 0c-.145 1.085-.29 2.17-.434 3.256h-6.945c.289-1.411.578-2.823.867-4.233 2.171.326 4.341.651 6.512.977" fill="#e91f26" transform="matrix(13.58 0 0-13.58 600 50.31)"/><g fill="#fff"><path d="m0 0c-.072.396-.109.595-.181.99-.352-.027-.528-.04-.88-.068.079-.409.118-.613.196-1.023-.24-.028-.36-.042-.6-.07-.166.846-.333 1.692-.499 2.539.25.006.375.009.625.014.073-.383.11-.576.183-.96.355.021.532.031.886.052-.068.372-.101.558-.169.93.249.006.375.008.625.015l.414-2.349c-.24-.028-.36-.042-.6-.07" transform="matrix(13.58 0 0-13.58 542.45 47.49)"/><path d="m0 0c-.056-.002-.084-.003-.14-.006.081-.498.121-.747.202-1.245.054.005.082.007.136.012.401.039.625.302.57.666-.055.365-.358.591-.768.573m.424-1.708c-.353-.041-.53-.062-.883-.103l-.384 2.28c.367.009.551.013.919.022.608-.004 1.242-.422 1.333-1.019.086-.572-.408-1.101-.985-1.18" transform="matrix(13.58 0 0-13.58 567.01 20.762)"/></g></svg>