<?xml version="1.0" encoding="UTF-8" standalone="no"?>
<svg xmlns:rdf="http://www.w3.org/1999/02/22-rdf-syntax-ns#" xmlns="http://www.w3.org/2000/svg" height="136.38" viewBox="0 0 600 136.37769" width="600" version="1.1" xmlns:cc="http://creativecommons.org/ns#" xmlns:dc="http://purl.org/dc/elements/1.1/">
 <path d="m0 121.62h539.14v-88.582h-539.14z" fill="#443a3d"/>
 <g transform="matrix(20.096 0 0 -20.096 239.61 121.63)">
  <path d="m0 0h-10.531l0.09-0.734" fill="#66c544"/>
 </g>
 <g transform="matrix(20.096 0 0 -20.096 391.09 .0080372)">
  <path d="m0 0-18.651-1.314 0.04-0.33h20.534" fill="#66c544"/>
 </g>
 <g transform="matrix(20.096 0 0 -20.096 443.04 44.412)">
  <path d="m0 0-0.662 0.566h-20.534l0.542-4.408h10.531l10.497 0.739v0.053z" fill="#40b93c"/>
 </g>
 <g transform="matrix(20.096 0 0 -20.096 450.7 106.78)">
  <path d="m0 0h-0.007v0.053z" fill="#400707"/>
 </g>
 <path d="m42.523 99.978h12.842v-49.396h-12.842z" fill="#fff"/>
 <g transform="matrix(20.096 0 0 -20.096 110.67 99.972)">
  <path d="m0 0h-0.681l-0.656 1.101c-0.029 0.053-0.065 0.115-0.105 0.193-0.081 0.154-0.114 0.223-0.196 0.416v-0.111c0-0.18-0.006-0.315-0.026-0.465l-0.137-1.134h-0.623l0.301 2.457h0.672l0.701-1.186 0.105-0.196 0.095-0.19 0.049-0.092c0 0.046 0 0.078 0.003 0.102 0.003 0.094 0.014 0.216 0.027 0.321l0.153 1.241h0.62" fill="#fff"/>
 </g>
 <g transform="matrix(20.096 0 0 -20.096 136.42 61.456)">
  <path d="m0 0v-0.41h0.698v-0.54h-0.698v-0.967h-0.639v2.458h1.406v-0.541" fill="#fff"/>
 </g>
 <g transform="matrix(20.096 0 0 -20.096 184.21 60.668)">
  <path d="m0 0c-0.417 0-0.731-0.321-0.731-0.743 0-0.41 0.292-0.708 0.688-0.708 0.41 0 0.715 0.311 0.715 0.734 0 0.416-0.285 0.717-0.672 0.717m-0.036-2.041c-0.777 0-1.331 0.53-1.331 1.281 0 0.774 0.586 1.35 1.38 1.35 0.77 0 1.294-0.511 1.294-1.261 0-0.8-0.56-1.37-1.343-1.37" fill="#fff"/>
 </g>
 <g transform="matrix(20.096 0 0 -20.096 376.35 72.223)">
  <path d="m0 0c0.256 0 0.425 0.12 0.426 0.297-0.001 0.151-0.116 0.234-0.341 0.235h-0.107l-0.075-0.532zm0.422-1.38-0.568 0.941-0.113-0.941h-0.641l0.301 2.458h0.804c0.58-0.001 0.87-0.25 0.871-0.753 0.001-0.257-0.065-0.44-0.217-0.582-0.078-0.074-0.143-0.11-0.294-0.173l0.591-0.933-0.01-0.006v0.012-0.012l0.01 0.006 0.012-0.017" fill="#fff"/>
 </g>
 <g transform="matrix(20.096 0 0 -20.096 412.45 99.96)">
  <path d="m0 0v1.899h-0.513v0.559h1.695v-0.559h-0.526v-1.899" fill="#fff"/>
 </g>
 <g transform="matrix(20.096 0 0 -20.096 242.17 63.532)">
  <path d="m0 0 0.007 0.009zm-1.122-1.76c-0.127 0.052-0.176 0.082-0.289 0.163l-0.008 0.006 0.273 0.528 0.011-0.01c0.188-0.167 0.359-0.243 0.535-0.243 0.18 0.001 0.285 0.089 0.286 0.228 0 0.046-0.018 0.092-0.048 0.122-0.061 0.063-0.114 0.087-0.314 0.146-0.195 0.059-0.273 0.088-0.361 0.138-0.191 0.099-0.284 0.287-0.284 0.552 0 0.496 0.331 0.832 0.817 0.833 0.251 0 0.517-0.069 0.756-0.199l0.01-0.006-0.252-0.504-0.006-0.013-0.012 0.01c-0.131 0.112-0.257 0.163-0.392 0.163-0.148 0-0.254-0.087-0.254-0.199 0-0.043 0.017-0.081 0.053-0.112 0.039-0.038 0.094-0.066 0.154-0.086 0.033-0.012 0.106-0.032 0.211-0.064 0.218-0.069 0.332-0.131 0.434-0.247 0.109-0.119 0.155-0.253 0.154-0.443 0-0.151-0.037-0.339-0.09-0.447-0.134-0.267-0.458-0.434-0.842-0.434h-0.002c-0.188 0-0.347 0.036-0.54 0.118" fill="#fff"/>
 </g>
 <g transform="matrix(20.096 0 0 -20.096 273.43 73.258)">
  <path d="m0 0h-0.202v0.607h0.205c0.224 0 0.335-0.1 0.335-0.305 0-0.208-0.105-0.302-0.338-0.302m0.759 0.921c-0.156 0.151-0.319 0.208-0.598 0.207h-0.991v-2.457h0.64v0.808h0.373c0.523 0.001 0.81 0.296 0.81 0.83 0 0.255-0.077 0.46-0.234 0.612" fill="#fff"/>
 </g>
 <g transform="matrix(20.096 0 0 -20.096 316.57 65.992)">
  <path d="m0 0c-0.129-0.13-0.194-0.277-0.194-0.457 0-0.186 0.062-0.344 0.191-0.473 0.129-0.128 0.283-0.193 0.469-0.194 0.186 0.001 0.338 0.065 0.467 0.194s0.194 0.284 0.194 0.467c0 0.186-0.065 0.337-0.194 0.466s-0.284 0.191-0.467 0.191c-0.179 0-0.334-0.065-0.466-0.194m0.466-1.799c-0.388 0-0.72 0.127-0.987 0.377-0.263 0.253-0.398 0.566-0.398 0.936 0 0.283 0.074 0.537 0.221 0.76 0.147 0.224 0.351 0.392 0.608 0.495 0.167 0.067 0.347 0.1 0.543 0.1 0.401 0 0.737-0.127 1-0.377 0.264-0.25 0.398-0.573 0.398-0.955 0-0.389-0.134-0.713-0.404-0.962-0.266-0.25-0.595-0.374-0.98-0.374" fill="#fff"/>
 </g>
 <g transform="matrix(20.096 0 0 -20.096 397.7 53.717)">
  <path d="m0 0 2.256 0.463-2.585 2.21" fill="#8cd24e"/>
 </g>
 <g transform="matrix(20.096 0 0 -20.096 502.72 82.325)">
  <path d="m0 0v-0.885c0-0.033-0.007-0.046-0.033-0.046h-0.674c-0.023 0-0.037 0.017-0.037 0.04v0.884c0 0.037-0.012 0.05-0.042 0.05h-0.875c-0.026 0-0.039 0.016-0.039 0.046v0.671c0 0.026 0.01 0.039 0.036 0.039h0.881c0.027 0 0.039 0.013 0.039 0.042v0.76c0 0.02 0.014 0.033 0.033 0.033h0.671c0.027 0 0.04-0.01 0.04-0.033v-0.76c0-0.035 0.007-0.042 0.036-0.042h0.882c0.026 0 0.036-0.013 0.036-0.043v-0.674c0-0.023-0.013-0.039-0.036-0.039h-0.872c-0.036 0-0.046-0.007-0.046-0.043" fill="#fff"/>
 </g>
 <g transform="matrix(13.58 0 0 -13.58 600 50.313)">
  <path d="m0 0c-0.145 1.085-0.29 2.17-0.434 3.256h-6.945c0.289-1.411 0.578-2.823 0.867-4.233 2.171 0.326 4.341 0.651 6.512 0.977" fill="#e91f26"/>
 </g>
 <g transform="matrix(13.58 0 0 -13.58 542.45 47.489)">
  <path d="m0 0c-0.072 0.396-0.109 0.595-0.181 0.99-0.352-0.027-0.528-0.04-0.88-0.068 0.079-0.409 0.118-0.613 0.196-1.023-0.24-0.028-0.36-0.042-0.6-0.07-0.166 0.846-0.333 1.692-0.499 2.539 0.25 0.006 0.375 0.009 0.625 0.014 0.073-0.383 0.11-0.576 0.183-0.96 0.355 0.021 0.532 0.031 0.886 0.052-0.068 0.372-0.101 0.558-0.169 0.93 0.249 0.006 0.375 0.008 0.625 0.015l0.414-2.349c-0.24-0.028-0.36-0.042-0.6-0.07" fill="#fff"/>
 </g>
 <g transform="matrix(13.58 0 0 -13.58 567.01 20.762)">
  <path d="m0 0c-0.056-0.002-0.084-0.003-0.14-0.006 0.081-0.498 0.121-0.747 0.202-1.245 0.054 0.005 0.082 0.007 0.136 0.012 0.401 0.039 0.625 0.302 0.57 0.666-0.055 0.365-0.358 0.591-0.768 0.573m0.424-1.708c-0.353-0.041-0.53-0.062-0.883-0.103l-0.384 2.28c0.367 0.009 0.551 0.013 0.919 0.022 0.608-0.004 1.242-0.422 1.333-1.019 0.086-0.572-0.408-1.101-0.985-1.18" fill="#fff"/>
 </g>
</svg>
