<?xml version="1.0" encoding="UTF-8" standalone="no"?>
<svg xmlns:rdf="http://www.w3.org/1999/02/22-rdf-syntax-ns#" xmlns="http://www.w3.org/2000/svg" height="403.04" width="600" version="1.1" xmlns:cc="http://creativecommons.org/ns#" xmlns:dc="http://purl.org/dc/elements/1.1/" viewBox="0 0 158.75 106.63777">
 <g transform="translate(283.7 4.0841)">
  <g>
   <path d="m-283.7-4.0841h13.7v60.44h-13.7z"/>
   <path d="m-191.7-4.0841h13.7v60.44h-13.7z"/>
   <path d="m-216.95 11.027c0 11.483-14.1 15.109-14.1 15.109l14.08 30.22h-13.71l-14.07-30.22s14.1-3.626 14.1-15.109c0-11.484-14.1-15.111-14.1-15.111h13.7c3.05-0.0001 14.1 3.6274 14.1 15.111"/>
   <path d="m-140.66-4.0841s-12.09 3.6275-12.09 15.111c0 11.483 14.1 18.937 14.1 30.22 0 11.281-12.09 15.109-12.09 15.109h13.7s12.09-3.828 12.09-15.109c0-11.283-14.1-18.737-14.1-30.22 0-11.484 12.09-15.111 12.09-15.111z"/>
  </g>
  <g fill="#a7a5a5">
   <path d="m-253.66 102.2h-4.63l-0.7-18.004h-0.06l-8.39 18.004h-2.28l-3.97-18.507h-0.07l-5.1 18.507h-4.84l7.35-26.628h5.28l3.63 16.748 7.62-16.748h5.1z"/>
   <path d="m-235.01 80.022h-9.32l-0.76 6.284h8.18l-0.53 4.452h-8.18l-0.83 6.991h11.73l-0.53 4.451h-16.53l3.19-26.628h14.11z"/>
   <path d="m-221.83 75.572c9.01 0 11.66 7.183 11.66 12.966 0 7.927-4.65 13.662-10.67 13.662h-11.66l3.15-26.628zm-5.33 22.177h4.5c5.34 0 7.53-4.686 7.53-9.293 0-4.682-2.66-8.434-7.63-8.434h-2.32z"/>
   <path d="m-204.7 102.2h-4.8l3.18-26.628h4.81z"/>
   <path d="m-183.07 102.2h-4.93l-0.69-5.815h-7.03l-2.19 5.815h-5.29l11.05-26.984h5.11zm-11.26-9.605h5.23l-1.19-11.794h-0.06z"/>
   <path d="m-166.06 82.013c-1.46-1.252-3.88-2.341-5.6-2.341-1.75 0-3.19 1.165-3.19 2.926 0 3.829 8.32 4.335 8.32 11.798 0 4.294-2.59 8.154-7.64 8.154-3.28 0-5.67-0.97-7.69-2.53l0.73-4.652c1.82 1.566 4.5 2.734 6.38 2.734 1.96 0 3.25-1.168 3.25-2.923 0-4.421-8.3-4.929-8.3-11.917 0-4.607 3.37-8.046 7.94-8.046 2.19 0 4.5 0.742 6.46 2.112z"/>
   <path d="m-148.17 80.022h-9.31l-0.76 6.284h8.18l-0.53 4.452h-8.18l-0.82 6.991h11.72l-0.53 4.451h-16.53l3.19-26.628h14.09z"/>
   <path d="m-125.48 80.022h-7.34l-2.66 22.178h-4.79l2.63-22.178h-7.15l0.54-4.45h19.3z"/>
  </g>
 </g>
</svg>
