<?xml version="1.0" encoding="UTF-8" standalone="no"?>
<svg xmlns:rdf="http://www.w3.org/1999/02/22-rdf-syntax-ns#" xmlns="http://www.w3.org/2000/svg" height="448.35" width="600" version="1.1" xmlns:cc="http://creativecommons.org/ns#" xmlns:dc="http://purl.org/dc/elements/1.1/" viewBox="0 0 158.75 118.62472">
 <g transform="translate(46.626 -120.52)">
  <g fill="#a7a5a5">
   <path d="m-16.586 238.79h-4.632l-0.706-17.99h-0.061l-8.375 17.99h-2.282l-3.99-18.49h-0.064l-5.096 18.49h-4.834l7.353-26.61h5.266l3.647 16.73 7.616-16.73h5.096z"/>
   <path d="m2.0492 216.64h-9.3042l-0.7632 6.27h8.1774l-0.52896 4.45h-8.1855l-0.8238 6.97h11.731l-0.5289 4.46h-16.533l3.183-26.61h14.109z"/>
   <path d="m15.235 212.18c9.013 0 11.654 7.19 11.654 12.95 0 7.93-4.632 13.66-10.657 13.66h-11.662l3.1496-26.61zm-5.3266 22.15h4.4986c5.339 0 7.527-4.67 7.527-9.27 0-4.69-2.657-8.42-7.62-8.42h-2.322l-2.0836 17.69"/>
   <path d="m32.37 238.79h-4.798l3.183-26.61h4.805z"/>
   <path d="m54.006 238.79h-4.938l-0.699-5.81h-7.01l-2.197 5.81h-5.298l11.064-26.96h5.101zm-11.258-9.6h5.221l-1.183-11.77h-0.061z"/>
   <path d="m71.008 218.61c-1.466-1.24-3.877-2.33-5.601-2.33-1.748 0-3.178 1.17-3.178 2.93 0 3.83 8.319 4.33 8.319 11.78 0 4.28-2.593 8.15-7.649 8.15-3.279 0-5.673-0.98-7.688-2.54l0.734-4.64c1.814 1.56 4.491 2.73 6.385 2.73 1.946 0 3.251-1.17 3.251-2.92 0-4.41-8.319-4.92-8.319-11.9 0-4.6 3.38-8.04 7.947-8.04 2.185 0 4.511 0.74 6.469 2.11z"/>
   <path d="m88.9 216.64h-9.296l-0.779 6.27h8.189l-0.533 4.45h-8.173l-0.836 6.97h11.731l-0.533 4.46h-16.529l3.174-26.61h14.122z"/>
   <path d="m111.59 216.64h-7.34l-2.66 22.15h-4.791l2.641-22.15h-7.152l0.529-4.46h19.303z"/>
  </g>
  <path d="m32.878 120.52c-1.723-0.04-3.459 0.6-4.78 1.92l-33.42 33.33c-2.5729 2.55-2.5729 6.7-0.0004 9.25l25.016 24.95v5.49c0 3.44 4.796 7.23 8.833 3.28 2.588 2.16 6.438 2.02 8.872-0.4l33.42-33.32c2.574-2.55 2.574-6.7 0-9.25l-25.054-24.99v-4.71c0-4.58-4.972-6.64-8.646-3.89-1.212-1.08-2.721-1.63-4.241-1.66zm-0.184 4.47c0.411-0.01 0.824 0.1 1.184 0.33l-22.455 22.43c-3.0599 3.47-1.5279 8.52 4.725 8.53h3.518s0.017 15.73 0.024 27.31l-21.8-21.73c-0.8384-0.84-0.8384-2.18-0.0003-3.01l33.341-33.24c0.411-0.41 0.936-0.61 1.463-0.62zm8.021 0.17c0.364 0.02 0.531 0.54 0.559 1.13l-0.004 0.39v51.23c0.124 2.13-0.98 2.67-0.98 2.77l-14.238 14.18-0.229 0.22-0.145 0.13-0.051 0.05-0.167 0.14-0.016 0.01-0.166 0.12c-0.78 0.52-1.072 0.07-1.079-1.3v-42.36h-7.455c-2.296-0.01-2.577-0.49-1.317-1.74l21.688-21.67 2.863-2.86 0.163-0.16 0.141-0.12c0.168-0.12 0.312-0.17 0.433-0.16zm5.05 11.93 21.825 21.76c0.831 0.83 0.831 2.17 0 3.01l-33.345 33.23c-0.664 0.67-1.655 0.79-2.442 0.4l12.746-12.71c0-0.11 1.216-1.15 1.216-3.46z" stroke-width=".13313" fill="#0d91da"/>
 </g>
</svg>
