<?xml version="1.0" encoding="UTF-8" standalone="no"?>
<svg xmlns:rdf="http://www.w3.org/1999/02/22-rdf-syntax-ns#" xmlns="http://www.w3.org/2000/svg" height="321.62" width="600" version="1.1" xmlns:cc="http://creativecommons.org/ns#" xmlns:dc="http://purl.org/dc/elements/1.1/" viewBox="0 0 158.75 85.094938">
 <g transform="translate(24.19 -137.28)">
  <g fill="#a7a5a5">
   <path d="m-2.6411 222.12h-3.3226l-0.507-12.9h-0.0434l-6.0079 12.9h-1.637l-2.862-13.26h-0.046l-3.656 13.26h-3.467l5.275-19.08h3.777l2.616 12 5.4633-12h3.6557z"/>
   <path d="m10.727 206.23h-6.6747l-0.5475 4.51h5.866l-0.3794 3.19h-5.8719l-0.5909 5h8.4154l-0.38 3.19h-11.859l2.2825-19.08h10.122z"/>
   <path d="m20.185 203.04c6.466 0 8.36 5.15 8.36 9.29 0 5.68-3.322 9.79-7.644 9.79h-8.366l2.259-19.08zm-3.821 15.89h3.227c3.83 0 5.4-3.36 5.4-6.66 0-3.36-1.906-6.03-5.466-6.03h-1.666l-1.495 12.69"/>
   <path d="m32.477 222.12h-3.441l2.282-19.08h3.447z"/>
   <path d="m47.998 222.12h-3.543l-0.501-4.17h-5.029l-1.576 4.17h-3.8l7.937-19.33h3.658zm-8.077-6.88h3.746l-0.849-8.45h-0.043z"/>
   <path d="m60.194 207.65c-1.052-0.89-2.781-1.67-4.018-1.67-1.254 0-2.28 0.84-2.28 2.1 0 2.74 5.968 3.1 5.968 8.45 0 3.07-1.86 5.84-5.487 5.84-2.352 0-4.07-0.7-5.515-1.81l0.527-3.34c1.301 1.13 3.221 1.96 4.58 1.96 1.396 0 2.332-0.83 2.332-2.09 0-3.16-5.968-3.53-5.968-8.54 0-3.3 2.425-5.77 5.701-5.77 1.567 0 3.236 0.54 4.641 1.52z"/>
   <path d="m73.029 206.23h-6.669l-0.559 4.51h5.875l-0.383 3.19h-5.863l-0.599 5h8.415l-0.383 3.19h-11.856l2.277-19.08h10.13z"/>
   <path d="m89.309 206.23h-5.273l-1.903 15.89h-3.438l1.894-15.89h-5.13l0.379-3.19h13.85z"/>
   <path style="color-rendering:auto;text-decoration-color:#000000;color:#000000;font-variant-numeric:normal;shape-rendering:auto;solid-color:#000000;text-decoration-line:none;font-variant-position:normal;mix-blend-mode:normal;block-progression:tb;font-feature-settings:normal;shape-padding:0;font-variant-alternates:normal;text-indent:0;font-variant-caps:normal;image-rendering:auto;white-space:normal;text-decoration-style:solid;font-variant-ligatures:normal;isolation:auto;text-transform:none" d="m81.295 163.89-0.091 0.72-3.409 26.73h53.265l3.5-27.45zm7.129 3.04h3.327l-1.113 8.8h11.112l1.12-8.8h3.33l-2.7 21.32h-3.33l1.17-9.06h-11.142l-1.144 9.06h-3.331zm21.666 0h6.26c1.94 0 3.54 0.34 4.76 0.96h0.01c1.26 0.64 2.27 1.47 3.01 2.46 0.75 1 1.29 2.12 1.61 3.34 0.32 1.24 0.48 2.46 0.48 3.61 0 1.6-0.24 3.09-0.69 4.43-0.47 1.36-1.11 2.51-1.92 3.47-0.8 0.97-1.77 1.72-2.86 2.25-1.08 0.53-2.26 0.8-3.53 0.8h-9.81zm2.97 2.8-0.09 0.72-1.87 15h4.51c1.21 0 2.31-0.23 3.24-0.72 0.89-0.47 1.65-1.11 2.23-1.89 0.57-0.78 0.99-1.67 1.25-2.65 0.27-0.98 0.41-1.97 0.41-2.96 0-1.01-0.16-1.99-0.47-2.9s-0.77-1.71-1.38-2.39v-0.01c-0.62-0.68-1.39-1.22-2.28-1.61-0.91-0.4-1.95-0.59-3.09-0.59z"/>
  </g>
  <path d="m32.841 137.28c-1.235-0.02-2.481 0.44-3.429 1.38l-23.973 23.91c-1.8458 1.83-1.8458 4.81-0.0004 6.63l17.945 17.9v3.94c0 2.47 3.44 5.19 6.336 2.36 1.857 1.54 4.618 1.45 6.365-0.29l23.974-23.91c1.846-1.82 1.846-4.8 0-6.63l-17.973-17.93v-3.38c0-3.28-3.567-4.76-6.202-2.78-0.87-0.78-1.952-1.18-3.043-1.2zm-0.132 3.21c0.295-0.01 0.592 0.07 0.85 0.24l-16.108 16.09c-2.195 2.48-1.096 6.11 3.39 6.11h2.523s0.012 11.29 0.017 19.6l-15.638-15.59c-0.6014-0.6-0.6014-1.56-0.0002-2.16l23.917-23.85c0.295-0.29 0.672-0.43 1.049-0.44zm5.755 0.12c0.261 0.01 0.38 0.39 0.4 0.82l-0.003 0.27v36.76c0.089 1.52-0.703 1.91-0.703 1.98l-10.213 10.17-0.164 0.16-0.105 0.09-0.036 0.04-0.119 0.1h-0.012l-0.119 0.09c-0.56 0.37-0.769 0.05-0.774-0.93v-30.39h-5.348c-1.647-0.01-1.849-0.35-0.945-1.25l15.558-15.54 2.054-2.05 0.116-0.12 0.102-0.08c0.12-0.09 0.223-0.13 0.311-0.12zm3.622 8.56 15.656 15.61c0.596 0.6 0.596 1.56 0 2.16l-23.92 23.83c-0.477 0.48-1.187 0.57-1.752 0.3l9.143-9.12c0-0.09 0.873-0.83 0.873-2.48z" stroke-width="0.0955" fill="#0d91da"/>
 </g>
</svg>
