<svg xmlns="http://www.w3.org/2000/svg" height="448.35" width="600" viewBox="0 0 158.75 118.62472"><g transform="translate(46.626-120.52)"><g fill="#a7a5a5"><path d="m-16.586 238.79h-4.632l-.706-17.99h-.061l-8.375 17.99h-2.282l-3.99-18.49h-.064l-5.096 18.49h-4.834l7.353-26.61h5.266l3.647 16.73 7.616-16.73h5.096z"/><path d="m2.049 216.64h-9.304l-.763 6.27h8.177l-.529 4.45h-8.185l-.824 6.97h11.731l-.529 4.46h-16.533l3.183-26.61h14.11z"/><path d="m15.235 212.18c9.01 0 11.654 7.19 11.654 12.95 0 7.93-4.632 13.66-10.657 13.66h-11.662l3.15-26.61zm-5.327 22.15h4.499c5.339 0 7.527-4.67 7.527-9.27 0-4.69-2.657-8.42-7.62-8.42h-2.322l-2.084 17.69"/><path d="m32.37 238.79h-4.798l3.183-26.61h4.805z"/><path d="m54.01 238.79h-4.938l-.699-5.81h-7.01l-2.197 5.81h-5.298l11.06-26.96h5.101zm-11.258-9.6h5.221l-1.183-11.77h-.061z"/><path d="m71.01 218.61c-1.466-1.24-3.877-2.33-5.601-2.33-1.748 0-3.178 1.17-3.178 2.93 0 3.83 8.319 4.33 8.319 11.78 0 4.28-2.593 8.15-7.649 8.15-3.279 0-5.673-.98-7.688-2.54l.734-4.64c1.814 1.56 4.491 2.73 6.385 2.73 1.946 0 3.251-1.17 3.251-2.92 0-4.41-8.319-4.92-8.319-11.9 0-4.6 3.38-8.04 7.947-8.04 2.185 0 4.511.74 6.469 2.11z"/><path d="m88.9 216.64h-9.296l-.779 6.27h8.189l-.533 4.45h-8.173l-.836 6.97h11.731l-.533 4.46h-16.529l3.174-26.61h14.12z"/><path d="m111.59 216.64h-7.34l-2.66 22.15h-4.791l2.641-22.15h-7.152l.529-4.46h19.303z"/></g><path d="m32.878 120.52c-1.723-.04-3.459.6-4.78 1.92l-33.42 33.33c-2.573 2.55-2.573 6.7 0 9.25l25.02 24.95v5.49c0 3.44 4.796 7.23 8.833 3.28 2.588 2.16 6.438 2.02 8.872-.4l33.42-33.32c2.574-2.55 2.574-6.7 0-9.25l-25.05-24.99v-4.71c0-4.58-4.972-6.64-8.646-3.89-1.212-1.08-2.721-1.63-4.241-1.66m-.184 4.47c.411-.001.824.1 1.184.33l-22.455 22.43c-3.06 3.47-1.528 8.52 4.725 8.53h3.518s.017 15.73.024 27.31l-21.8-21.73c-.838-.84-.838-2.18 0-3.01l33.34-33.24c.411-.41.936-.61 1.463-.62m8.02.17c.364.02.531.54.559 1.13l-.004.39v51.23c.124 2.13-.98 2.67-.98 2.77l-14.238 14.18-.229.22-.145.13-.051.05-.167.14-.016.001-.166.12c-.78.52-1.072.07-1.079-1.3v-42.36h-7.455c-2.296-.001-2.577-.49-1.317-1.74l21.688-21.67 2.863-2.86.163-.16.141-.12c.168-.12.312-.17.433-.16m5.05 11.93l21.825 21.76c.831.83.831 2.17 0 3.01l-33.34 33.23c-.664.67-1.655.79-2.442.4l12.746-12.71c0-.11 1.216-1.15 1.216-3.46z" stroke-width=".133" fill="#0d91da"/></g></svg>