<svg xmlns="http://www.w3.org/2000/svg" viewBox="0 0 600 300"><g transform="translate(70.19 174.38)"><path fill="#f8a10e" d="m355.92-64.3c1.414 1.782 3.099 3.835 5.868 8.328 7.805 12.763 23.376 40.496 39.14 67.997 10.187 17.779 21.15 37.475 27.09 48.824 18.13-31.03 38.463-80.973 51.826-125.42 1.336-4.454 3.428-6.604 7.282-6.604 2.072 0 5.52.852 15.05 3.757 5.733 1.743 17.16 5.248 21.42 6.604 4.396 1.394 6.217 3.602 6.217 6.43 0 2.75-1.569 7.166-3.796 13.189-17.818 48.24-42.53 100.67-71.52 145-11.06 16.888-23.318 21.807-43.769 21.807-21.575 0-31.22-5.752-41.813-21.42-7.185-10.632-14.68-22.291-24.828-37.998 15.494-25.99 22.12-57.42 22.12-88.41 0-19.812-5.345-35.945-10.284-42.08"/><path fill="#a71563" d="m366.2-22.22c0 30.987-6.623 62.44-22.12 88.41l-51.05-79.888c-6.314-10.787-7.999-15.339-7.999-21.42 0-17.934 31.723-37.17 53.16-37.17 7.65 0 12.53 1.859 17.721 7.979 4.939 6.139 10.284 22.272 10.284 42.08"/><path fill="#7c7722" d="m344.09 66.19c-22.834 37.4-61.935 59.4-115.14 59.4-40.28 0-76.75-12.356-96.85-30.658 25.351-21.21 42.665-53.879 42.665-93.7l.019 13.692c0 23.09 4.842 36.894 14.854 47.18 10.497 10.768 26.61 16.694 47.47 16.694 43.963 0 66.72-27.617 66.72-58.08 0-12.24-3.602-22.18-10.787-34.434l51.06 79.908z"/><path fill="#4dc4c6" d="m132.12 94.94c-20.451 18.902-55.08 30.658-88.27 30.658-33.25 0-68.25-9.141-88.72-29.612-15.763-15.743-24.788-35.729-24.788-70.72v-87.69c0-4.319 1.549-6.139 6.178-6.139h65.925c4.706 0 6.275 1.879 6.275 6.12v96.99c0 15.513 3.351 25.99 10.516 33.563 6.856 7.243 18.36 11.562 31.34 11.562 13.305 0 25.409-4.474 33.1-12.743 8.753-9.413 12.704-22.835 12.704-47.585v-7.65c0 32.07 11.368 62.03 35.751 83.26zm-162.58-190.55c-24.557 0-39.722-17.43-39.722-39.39s15.16-39.37 39.722-39.37c24.538 0 39.702 17.411 39.702 39.37s-15.16 39.39-39.702 39.39"/><path fill="#fff" d="m135.57-153.83c14.68 0 27.15 2.692 33.19 8.212 4.106 3.738 6 8.734 6 16.04v60.986h61.993c4.687 0 6.333 1.898 6.333 6.139v37.28c0 4.222-1.646 6.12-6.333 6.12h-34.802c-10.865 0-19.851-1.588-27.19-4.726v25.02c0 39.799-17.314 72.49-42.627 93.7-24.37-21.246-35.742-51.24-35.742-83.32v-141.18c0-7.282 1.898-12.317 5.984-16.06 6.04-5.52 18.282-8.212 33.19-8.212"/></g></svg>