<svg xmlns="http://www.w3.org/2000/svg" height="240" viewBox="0 0 600 240.001"><g fill="#879ba5" stroke-width="1.35"><path d="m567.96 93.5c-21.76 0-32.26 3.372-32.26 12.884v39.16h-57.53c-2.43 0-3.53-1.72-2.02-4.11 23.32-36.73 49.38-77.72 75.67-117.79 4.44-6.76 6.23-11.475 6.23-13.919 0-4.335-2.65-6.693-7.1-7.45-6.46-1.118-16.23-2.271-26.19-2.271-10.02 0-19.93.671-27.1 1.979-7.11 1.308-11.12 5.248-14.47 11.201-20.32 36.06-48.14 87.34-65.5 120.59-3 5.73-4.25 10.45-4.25 15.18 0 4.87 1.7 10.17 3.61 16.07l4.94 14.28c2.94 7.11 7.83 9.86 17.55 9.86h96.16v38.97c0 8.15 7.73 11.87 32.19 11.87 21.65 0 32.11-3.63 32.11-11.92v-121.44c0-9.773-9.81-13.145-32.04-13.145"/><path d="m133.74 35.85c-9.69 0-17.64 1.755-21.57 5.333-2.67 2.426-3.89 5.678-3.89 10.427v96.8c0 16.1-2.58 24.83-8.28 30.94-5.01 5.36-12.852 8.29-21.506 8.29-8.431 0-15.916-2.82-20.372-7.52-4.645-4.92-6.831-11.75-6.831-21.82v-63.06c0-2.753-1.032-3.975-4.077-3.975h-42.842c-3.03 0-4.03 1.187-4.03 3.992v56.999c0 22.75 5.867 35.74 16.12 45.98 13.3 13.31 36.05 19.25 57.655 19.25 21.576 0 44.08-7.66 57.38-19.94 13.05 11.91 36.77 19.92 62.94 19.92 34.58 0 60-14.29 74.85-38.6 6.59 10.2 11.46 17.79 16.12 24.7 6.9 10.19 13.16 13.92 27.18 13.92 13.29 0 21.27-3.18 28.45-14.17 18.85-28.82 34.91-62.89 46.49-94.26 1.44-3.92 2.47-6.78 2.47-8.57 0-1.838-1.18-3.266-4.04-4.177-2.77-.878-10.2-3.149-13.92-4.285-6.19-1.892-8.45-2.443-9.79-2.443-2.5 0-3.87 1.394-4.73 4.284-8.69 28.891-21.91 61.36-33.69 81.52-3.86-7.36-11-20.18-17.62-31.73-10.24-17.87-20.36-35.91-25.43-44.2-5.13-8.362-8.57-10.599-15.33-10.599-13.92 0-34.55 12.488-34.55 24.14 0 3.96 1.1 6.92 5.19 13.94 4.68 7.96 7.02 14.42 7.02 22.37 0 19.82-14.79 37.76-43.37 37.76-13.56 0-24.04-3.85-30.85-10.86-6.5-6.67-9.67-15.65-9.67-30.66v-25.16c4.77 2.03 10.62 3.08 17.67 3.08h22.63c3.04 0 4.11-1.24 4.11-3.99v-24.22c0-2.753-1.07-3.992-4.11-3.992h-40.3v-39.641c0-4.749-1.24-8-3.9-10.426-3.93-3.579-12.03-5.334-21.58-5.334m-107.91 37.852c-15.967 0-25.826-11.321-25.826-25.603 0-14.281 9.859-25.602 25.826-25.602 15.951 0 25.808 11.321 25.808 25.602 0 14.28-9.859 25.603-25.808 25.603"/></g></svg>