<svg xmlns="http://www.w3.org/2000/svg" viewBox="0 0 600 222.23"><g transform="translate(-7.594 135.51)"><path fill="#f8a10e" d="m323.23-53.949c1.047 1.32 2.295 2.84 4.347 6.169 5.781 9.454 17.315 29.997 28.993 50.37 7.546 13.169 15.666 27.759 20.07 36.17 13.428-22.982 28.491-59.98 38.39-92.9.99-3.3 2.539-4.892 5.394-4.892 1.535 0 4.089.631 11.147 2.783 4.246 1.291 12.71 3.888 15.866 4.892 3.257 1.033 4.605 2.668 4.605 4.763 0 2.037-1.162 5.308-2.812 9.77-13.198 35.735-31.503 74.57-52.979 107.41-8.191 12.51-17.272 16.15-32.421 16.15-15.981 0-23.12-4.261-30.973-15.866-5.322-7.876-10.874-16.512-18.391-28.15 11.477-19.252 16.383-42.535 16.383-65.49 0-14.676-3.959-26.626-7.618-31.17"/><path fill="#a71563" d="m330.84-22.782c0 22.953-4.906 46.25-16.383 65.49l-37.815-59.18c-4.677-7.991-5.925-11.362-5.925-15.866 0-13.284 23.498-27.53 39.38-27.53 5.667 0 9.282 1.377 13.13 5.91 3.658 4.548 7.618 16.498 7.618 31.17"/><path fill="#7c7722" d="m314.46 42.709c-16.914 27.702-45.878 43.998-85.29 43.998-29.839 0-56.852-9.153-71.74-22.709 18.779-15.709 31.604-39.91 31.604-69.41l.014 10.142c0 17.1 3.586 27.329 11 34.946 7.775 7.976 19.711 12.366 35.16 12.366 32.565 0 49.42-20.457 49.42-43.02 0-9.07-2.668-16.426-7.991-25.507l37.815 59.19z"/><path fill="#4dc4c6" d="m157.45 64c-15.15 14-40.799 22.709-65.39 22.709-24.632 0-50.554-6.771-65.718-21.935-11.678-11.662-18.363-26.467-18.363-52.39v-64.958c0-3.199 1.148-4.548 4.576-4.548h48.833c3.486 0 4.648 1.392 4.648 4.533v71.844c0 11.491 2.482 19.252 7.79 24.861 5.078 5.365 13.6 8.564 23.21 8.564 9.855 0 18.822-3.314 24.517-9.44 6.484-6.972 9.411-16.914 9.411-35.25v-5.667c0 23.757 8.421 45.949 26.482 61.672zm-120.43-141.15c-18.19 0-29.423-12.911-29.423-29.18s11.233-29.16 29.423-29.16c18.18 0 29.409 12.897 29.409 29.16s-11.233 29.18-29.409 29.18"/><g fill="#fff"><path d="m160-120.27c10.874 0 20.11 1.994 24.589 6.083 3.041 2.769 4.447 6.47 4.447 11.878v45.17h45.921c3.472 0 4.691 1.406 4.691 4.548v27.616c0 3.127-1.219 4.533-4.691 4.533h-25.779c-8.05 0-14.704-1.176-20.14-3.5v18.535c0 29.481-12.825 53.696-31.575 69.41-18.06-15.736-26.48-37.958-26.48-61.715v-104.58c0-5.394 1.406-9.124 4.433-11.893 4.476-4.088 13.542-6.083 24.589-6.083"/><path d="m540.93-3.252c-41.22 0-66.67-29.25-66.67-66.12s25.449-66.13 66.67-66.13c41.22 0 66.66 29.27 66.66 66.13s-25.449 66.12-66.66 66.12"/></g><path d="m524.67-44.658c0 1.133-1.133 1.922-5.15 1.922-4.361 0-5.05-.875-5.05-1.922v-11.778h-12.223c-1.047 0-1.736-1.219-1.736-4.791 0-4.02.775-4.806 1.736-4.806h12.223v-13.428h10.2v13.428h13.958v9.597h-13.958v11.778"/><path d="m570.78-45.13c0 1.592-1.435 2.396-5.896 2.396-4.619 0-5.581-.803-5.581-2.468v-38.16c-3.816 2.381-9.325 5.652-14.03 8.206l-4.304-8.765c6.298-3.759 13.241-7.89 17.703-10.759 1.75-1.119 2.539-1.363 4.533-1.363h4.777c2.08 0 2.797.717 2.797 2.482v48.43"/></g></svg>