<svg xmlns="http://www.w3.org/2000/svg" viewBox="0 0 600 304.76"><path d="m318.94 0c-108.75.005-217.44.031-217.44.031-18.346 0-33.48 12.906-36.906 31.469l-8.406 42.688-.125.719c-1.952 11.19.904 22.384 7.844 30.625.564.651 1.143 1.299 1.75 1.906l-14.719 76.09-3.719.031h-1.344c-18.13.347-33.14 13.671-36.22 31.844l-9.03 45.85c-2.038 11.363.755 22.21 7.781 30.625 6.896 8.197 17.26 12.906 28.406 12.906h24.594c8.154 0 15.977-2.338 22.656-6.719l75-51.781s4.386-3.48 5.688-4.781c5.248 2.906 11.223 4.469 17.469 4.469h352.97c18.13 0 33.29-12.829 36.938-31.22l27-140.25c3.513-17.349-4.211-29.1-9.719-35l-22.66-25.17c-8.41-9.455-18.49-14.269-30.03-14.313-.22-.022-109.04-.037-217.78-.031zm-217.44 33.09h73.47c2.559 0 3.208 2.047 2.688 4.563l-34.1 175.53c-.737 3.426-1.404 4.432-3.313 5.906l-74.41 51.34c-1.258.824-2.864 1.25-4.469 1.25h-24.594c-2.949 0-4.114-1.601-3.594-4.594l9.06-45.875c.347-2.602 1.797-4.519 4.313-4.563h16.562c-.173 0 2.249-.306 3.594-1l12.06-8.594c1.865-1.084 1.575-2.065 2.313-5.188l21.658-112.22c.52-2.472-.129-4.5-2.688-4.5h-8.563c-2.559 0-3.278-2.047-2.844-4.563l8.471-42.938c.434-2.516 1.816-4.563 4.375-4.563zm99.72 0h73.25c2.559 0 3.208 2.047 2.688 4.563l-33 170.66c-.477 2.516-1.91 4.563-4.469 4.563h-57.44c-2.559 0-3.208-2.028-2.688-4.5l22.85-118.72c.477-2.472-.172-4.5-2.688-4.5h-8.5c-2.559 0-3.246-2.047-2.813-4.563l8.406-42.938c.434-2.516 1.847-4.563 4.406-4.563zm102.25 0h228.44 4.594c2.169 0 3.611 1.1 5.563 3.313l23.06 25.625c2.299 2.299 1.965 4.08 1.531 6.03l-27 140.31c-.477 2.472-1.953 4.5-4.469 4.5h-57.44c-2.515 0-3.196-2.028-2.719-4.5l22.79-118.4c.52-2.516-.129-4.563-2.688-4.563h-24.625c-2.516 0-3.992 2.047-4.469 4.563l-22.81 118.41c-.477 2.472-1.953 4.5-4.469 4.5h-57.47c-2.559 0-3.208-2.028-2.688-4.5l22.75-118.41c.52-2.516-.128-4.563-2.688-4.563h-24.625c-2.559 0-3.979 2.047-4.5 4.563l-22.77 118.41c-.477 2.472-1.941 4.5-4.5 4.5h-57.44c-2.559 0-3.165-2.028-2.688-4.5l22.72-118.41c.737-2.602-.129-4.563-2.688-4.563h-7.625c-2.559 0-4.277-2.047-3.844-4.563l8.406-43.19c.434-2.516 1.859-4.563 4.375-4.563z" transform="matrix(.99994 0 0 .99994.03 0)" fill="#387a9c"/></svg>