<svg xmlns="http://www.w3.org/2000/svg" height="265.76" width="600" viewBox="0 0 158.75 70.314727"><g stroke-width=".265"><path d="m28.627 24.659c-.98-.073-2.19-.059-4.09.025-4.12.182-10.22 1.563-14.22 3.02-1.99.726-4.1 1.711-5.88 2.778-.89.534-1.69 1.079-2.37 1.67-.67.591-1.27 1.178-1.62 2.158-.8 2.294-.41 4.71.26 6.71.34.99.76 1.89 1.26 2.64.51.75.97 1.52 2.29 1.8 1.45.31 4.33.3 8.58-1.75.27.3.63.75 1.01 1.34.88 1.35 1.71 3.01 2.02 3.64.39.78 1.24 3.98.69 5.72-.71 2.25-1.77 3.36-3.27 3.89-.611.23-1.621.44-2.391.37-.78-.08-1.22-.25-1.64-1-.15-.27-.26-.51-.33-.72.1.06.19.16.28.21.58.33 1.2.5 1.88.55 1.36.1 3.12-.44 4.15-1.99.61-.93.88-1.99.82-2.92-.05-.93-.36-1.69-.65-2.29-.931-1.91-2.791-3-4.971-3.24-2.35-.26-4.84.96-6.51 3.36-1.67 2.41-3.44 7.44-.43 12.51 1.59 2.68 4.02 4.24 6.51 4.97 2.49.72 5.06.7 7.33.45 2.5-.28 4.88-1.07 7.27-2.37 1.86-1.01 3.76-2.69 5.3-5.94 1.94-4.08 1.23-8.88.83-11.82-.12-.911-.49-2.211-1.16-4.631-.38-1.4-.99-2.67-1.49-3.64 1.02-.19 2.2-.55 3.5-1.24 1.55-.826 3.31-2.069 3.73-4.286v-.008c.2-1.047.05-1.857-.12-2.902-.16-1.045-.38-2.088-.81-3.035v-.008c-.65-1.406-1.61-2.877-3.32-3.497-.66-.24-1.43-.44-2.41-.513z" fill="#432156" color="#000"/><path d="m30.16 26.887c-1.15-.416-2.04-.539-5.8-.373-3.76.165-9.9 1.533-13.67 2.905-3.76 1.367-8.18 3.813-8.75 5.469-1.16 3.336 1.05 8.419 2.43 8.709.97.21 3.72.33 8.09-1.95 1.39-.72 4.21 4.94 4.83 6.18s1.61 4.54.79 7.13c-.84 2.66-2.34 4.36-4.42 5.1-1.64.59-4.86 1.14-6.32-1.49-1.6-2.86-.09-4.81.57-5.39.81-.71 1.41-.62 1.81-.29.4.33-.53 1.16-.4 2.03s2.83 1.62 4.07-.25c.84-1.27.53-2.36.05-3.35-.51-1.05-1.99-2.04-3.5-2.21-1.5-.16-3.45.67-4.77 2.58-1.33 1.91-2.92 6.17-.36 10.49 2.7 4.52 7.79 4.99 12.03 4.52 2.26-.25 4.38-.96 6.59-2.16 1.64-.89 3.1-2.12 4.52-5.1 1.59-3.36 1.06-7.88.66-10.78-.06-.45-.45-1.99-1.11-4.4-.66-2.4-2.26-4.81-2.21-4.93.04-.12.09-.79 1.72-.956 1.37-.137 5.71-1.576 6.2-4.145.16-.866-.22-3.567-.8-4.807-.57-1.244-1.21-2.153-2.25-2.531" fill="#955ea1"/><path d="m35.617 39.01c-.8.0001-1.5.05-1.89.05-1.3 0-2.62.6-3.28 1.43h-.0001c-.97 1.21-1.17 2.43-1.19 2.55h-.0001s-1.69 5.59-2.42 8.03c-.42 1.431-.92 3.941-1.37 6.371-.22 1.22-.42 2.4-.57 3.37s-.25 1.63-.27 2.21c-.04 1.231.52 2.311 1.22 3.041.7.74 1.54 1.23 2.42 1.55 0 0 0 .0001.0001.0001v-.0001c1.14.42 2.34.49 3.74.54 1.41.06 2.87.03 4.05-.09 1.11-.11 2.12-.25 3.08-.59.97-.34 1.97-.96 2.53-2.01.48-.89.69-2.05.58-3.18-.11-1.12-.38-2.49-.74-5.01-.32-2.27-.18-5.45.07-8.08.26-2.63.58-4.53.67-5.11v-.02c.06-.49.63-1.99-.47-3.54-.671-.932-1.571-1.172-2.211-1.302-.64-.12-1.18-.14-1.37-.15-.84-.08-1.75-.08-2.56-.06" fill="#432156" color="#000"/><path d="m38.01 40.937c-1.41-.13-3.33 0-4.28 0-.96 0-1.46.26-1.83.72-.55.69-.86 1.93-.86 1.93s-1.69 5.59-2.42 8.02c-.72 2.44-2.09 10.21-2.14 11.49-.04 1.28 1.14 2.3 2.42 2.77 1.27.47 4.87.56 6.96.35 2.1-.22 3.59-.58 4.15-1.63.73-1.36.37-1.92-.37-7.04-.72-5.13.64-13.03.74-13.71.09-.69.32-1.58-.14-2.22s-1.62-.63-2.23-.68" fill="#955ea1"/><path d="m45.528 38.25c-2.15.189-3.531.897-4.331 1.717-1.23 1.261-1.83 2.741-2.11 4.321-.48 2.57-.71 7-.73 11.27-.0001 2.14.04 4.2.16 5.94.13 1.73.2 2.98.74 4.19.64 1.46 1.95 2.29 3.03 2.62 1.081.33 2.051.33 2.481.37 2.381.19 4.521-.83 5.721-2.52v-.0001c.41-.57.5-.99.61-1.48.12-.48.22-1.01.29-1.59.16-1.17.27-2.54.36-3.92.0001-.21 0-.22.0001-.41.03.05.05.07.08.11.47.6 1.21 1.69 2.09 2.68.89.99 1.92 2.19 3.83 2.14 1.09-.03 1.84-.52 2.48-1.02.64-.51 1.19-1.11 1.7-1.74l.03-.03c-.02 1.48.03 3.12.23 4.49.13.91.19 1.75.69 2.71.51.95 1.6 1.67 2.7 1.96 0 0 0 .0001.0001.0001v-.0001c1.44.37 2.99.32 4.47-.0001 1.49-.33 2.933-.91 3.985-2.16.002 0 0 0 0-.0001.88-1.04 1.01-2.21 1.034-3.27.026-1.07-.098-2.13-.207-3.09-.129-1.16-.642-4.19-1.182-7.38-.54-3.18-1.1-6.38-1.273-7.4-.237-1.431-.587-2.761-1.547-3.851s-2.38-1.66-3.99-1.89c-2.16-.31-4.82-.2-7.2 1.17-1.31.75-2.1 1.75-2.62 2.38-.37-.62-.85-1.5-1.58-2.44-1.66-2.15-4.22-3.59-7.55-3.847-.9-.068-1.71-.063-2.42 0" fill="#432156" color="#000"/><path d="m47.798 40.13c-3.27-.25-4.61.49-5.261 1.16-1 1.02-1.35 1.92-1.61 3.35-.84 4.56-1.04 17.85.04 20.3.81 1.82 2.871 1.79 3.961 1.88 1.93.16 3.12-.44 4.05-1.74.47-.67.73-3.31.91-6.03.17-2.72-.26-3.57.65-4.1.56-.33 1.7 1.38 2.78 2.76 1.09 1.39 2.83 4.15 4.4 4.11 1.69-.05 4.04-3.7 5-5.36.32-.54 1.41-.1 1.31.98-.14 1.25-.31 5.28.04 7.68.26 1.83.38 2.71 2 3.13 2.09.54 5.33-.09 6.563-1.57.828-.97.61-3.03.393-4.95-.209-1.86-2.086-12.62-2.436-14.69-.43-2.58-1.21-3.8-3.96-4.19-1.87-.27-4.13-.14-6 .94-1.92 1.1-2.57 3.21-3.78 3.12-.91-.06-1.48-1.92-2.83-3.66-1.38-1.78-3.3-2.9-6.22-3.12" fill="#955ea1"/><g fill="#389d3d" color="#000"><path d="m118.03 37.491c-.72 0-1.41.059-2.09.24h-.0001c-1.02.272-1.63 1.056-1.93 1.706-.07.16-.1.31-.15.47-.32-.21-.59-.4-1.02-.62-1.39-.7-3.44-1.263-6.49-1.242-5.93.049-9.231 3.862-10.443 6.282-.521 1.041-.636 2.041-.843 3.411-.208 1.36-.384 2.95-.529 4.47-.291 3.04-.455 5.83-.455 5.83l-.033.51.231.45s.511 1 1.306 2.16c.796 1.16 1.846 2.55 3.349 3.49v-.0001c3.977 2.49 8.797 1.71 11.847.28.55-.25.99-.58 1.37-.92.08.18.16.35.27.52h-.0001c.86 1.39 1.98 1.51 3.01 1.75s2.11.35 3.03.4c.83.04 1.89.11 3.04-.08 1.16-.19 2.54-.76 3.39-2.04.62-.96.71-1.8.85-2.83.13-1.02.19-2.17.21-3.33.05-2.32-.05-4.66-.14-5.87-.09-1.271.07-3.721.31-5.821.12-1.05.26-2.03.37-2.78.11-.72.27-1.41.22-1.25.13-.45.4-1.37-.06-2.36-.47-.99-1.35-1.5-2.35-1.882h-.0001c-1.1-.415-2.49-.641-4.02-.794-.76-.076-1.5-.139-2.22-.14m-8.29 10.746c1.23 0 3.04 1.33 3.04 2.89 0 1-.3 1.86-.74 2.4-.45.54-.97.85-1.93.85-1.98.0001-3.08-1.23-3.08-3.05 0-1.71 1.59-3.09 2.71-3.09"/><path d="m113.68 40.867c0 .14-.03.29-.001.44-.03-.33-.02-.42.001-.44"/></g><path d="m110.13 56.4c-3.05.02-5.16-2.27-5.16-5.12s2.35-5.16 4.76-5.16 5.11 2.1 5.11 4.95-1.67 5.32-4.71 5.33m13.48-16.22c-1.46-.55-5.61-1.06-7.19-.63-.68.18-.93 1.06-.88 1.6.04.55-.62 1.61-1.5 1.19-.89-.42-2.03-2.45-7.68-2.41-5.15.04-7.817 3.3-8.787 5.24-.97 1.95-1.632 12.99-1.632 12.99s1.831 3.57 3.974 4.91c3.175 1.98 7.525 1.34 10.06.16 1.71-.8 2.07-2.53 2.91-2.83.62-.22 1.06.21 1.01.89-.04.67-.53 1.25.09 2.24.53.85 2.87 1.18 4.54 1.27 1.68.08 3.8.21 4.77-1.27 1.03-1.57.78-8.58.62-10.87-.22-3.13.75-9.81.97-10.53s.3-1.35-1.28-1.95" fill="#95cc22"/><path d="m97.3 23.304c-.996-.074-2.236-.06-4.183.024-4.206.187-10.446 1.602-14.526 3.084-2.036.742-4.203 1.745-6.02 2.836-.908.545-1.728 1.109-2.418 1.711-.69.603-1.3 1.199-1.64 2.191-.81 2.332-.41 4.793.27 6.827.34 1.02.77 1.92 1.28 2.69.52.76.99 1.54 2.318 1.83 1.465.31 4.412.3 8.771-1.81.284.31.669.78 1.067 1.4.894 1.38 1.748 3.09 2.067 3.73.402.81 1.271 4.09.702 5.89-.735 2.3-1.822 3.45-3.356 4.01-.003 0-.006-.0001-.009 0-.644.23-1.672.45-2.472.37-.802-.08-1.275-.26-1.711-1.04-.185-.34-.295-.62-.372-.87.128.09.249.22.372.29.586.33 1.219.5 1.91.55 1.381.1 3.158-.44 4.2-2.01.627-.94.899-2.02.843-2.97-.056-.94-.371-1.71-.67-2.32-.946-1.93-2.846-3.04-5.05-3.29-2.39-.26-4.928.98-6.629 3.42-1.7 2.45-3.51 7.59-.43 12.75 1.624 2.74 4.099 4.33 6.637 5.07 2.539.74 5.149.71 7.466.45 2.559-.28 4.994-1.09 7.424-2.41 1.895-1.03 3.835-2.74 5.407-6.06 1.978-4.16 1.264-9.07.851-12.08h-.008c-.127-.891-.492-2.241-1.174-4.721-.398-1.44-1.031-2.77-1.546-3.76-.003-.0001-.005-.0001-.008-.02 1.054-.18 2.27-.54 3.623-1.261 1.58-.838 3.37-2.105 3.79-4.357v-.008c.2-1.053.06-1.884-.11-2.952-.17-1.067-.39-2.132-.84-3.092-.66-1.426-1.62-2.933-3.371-3.563-.002 0-.006 0-.008 0-.676-.245-1.454-.447-2.447-.521z" fill="#419037" color="#000"/><path d="m99.12 25.588c-1.174-.426-2.077-.549-5.919-.383-3.843.17-10.121 1.571-13.963 2.966-3.843 1.401-8.361 3.899-8.951 5.593-1.18 3.407 1.08 8.593 2.487 8.893.994.22 3.795.34 8.271-1.99 1.41-.73 4.292 5.04 4.925 6.31.634 1.28 1.652 4.64.814 7.29-.861 2.71-2.399 4.45-4.518 5.21-1.675.6-4.968 1.16-6.464-1.52-1.627-2.92-.09-4.92.587-5.51.828-.73 1.448-.64 1.855-.3s-.544 1.19-.407 2.08 2.891 1.65 4.154-.25c.861-1.3.544-2.42.048-3.44-.521-1.06-2.035-2.07-3.568-2.24-1.538-.17-3.525.67-4.883 2.62-1.351 1.95-2.981 6.32-.36 10.72 2.749 4.63 7.95 5.1 12.288 4.62 2.305-.26 4.476-.98 6.733-2.2 1.675-.91 3.166-2.16 4.609-5.22 1.627-3.42 1.088-8.04.681-11.01-.066-.46-.454-2.03-1.131-4.49-.676-2.46-2.304-4.912-2.257-5.04.043-.127.09-.804 1.76-.974 1.396-.142 5.828-1.609 6.328-4.235.16-.885-.23-3.643-.81-4.916-.59-1.269-1.24-2.201-2.31-2.584" fill="#95cc22"/><path d="m130.33 38.3c-2.08.187-3.42.887-4.2 1.687h-.001c-1.18 1.23-1.75 2.67-2.02 4.21v.001c-.45 2.49-.68 6.78-.71 10.91-.001 2.07.04 4.07.16 5.75s.19 2.89.71 4.07v.001c.63 1.42 1.91 2.24 2.96 2.56 1.05.33 1.98.33 2.39.37h.001c2.3.19 4.4-.83 5.56-2.48.4-.57.48-.98.6-1.45.11-.47.2-.98.27-1.55.15-1.12.26-2.45.35-3.79 0-.09-.001-.09 0-.18.45.59 1.12 1.58 1.94 2.51.85.96 1.85 2.15 3.73 2.1 1.08-.03 1.81-.51 2.43-1.01.57-.46 1.06-.99 1.52-1.55-.001 1.38.05 2.88.23 4.15.12.88.17 1.7.67 2.63.49.94 1.55 1.67 2.62 1.95h.001c1.4.36 2.9.3 4.34-.02 1.43-.32 2.84-.89 3.86-2.12.86-1.03.97-2.17 1-3.2.02-1.04-.1-2.06-.2-3-.13-1.11-.62-4.05-1.13-7.13-.52-3.08-1.05-6.2-1.21-7.18-.23-1.38-.58-2.67-1.51-3.74s-2.31-1.65-3.87-1.87c-2.08-.3-4.66-.19-6.96 1.14v.001c-1.21.7-1.94 1.61-2.44 2.22-.35-.59-.79-1.39-1.46-2.26-1.6-2.1-4.09-3.51-7.3-3.756h-.001c-.86-.067-1.63-.063-2.33 0" fill="#419037" color="#000"/><path d="m132.52 40.17c-3.13-.24-4.42.48-5.04 1.13-.96.99-1.29 1.85-1.54 3.24-.8 4.42-1 17.28.04 19.65.77 1.76 2.75 1.73 3.8 1.81 1.85.16 2.98-.42 3.87-1.68.45-.65.71-3.19.88-5.83.16-2.64-.25-3.45.62-3.97.54-.32 1.62 1.33 2.66 2.67 1.05 1.34 2.71 4.02 4.22 3.98 1.62-.04 3.87-3.59 4.78-5.19.31-.53 1.36-.1 1.25.95-.12 1.21-.28 5.11.05 7.43.25 1.78.36 2.63 1.91 3.03 2 .52 5.11-.09 6.3-1.51.79-.96.58-2.94.37-4.8-.2-1.8-2-12.22-2.33-14.21-.42-2.5-1.17-3.68-3.79-4.06-1.8-.26-3.96-.13-5.76.91-1.83 1.06-2.45 3.11-3.62 3.02-.87-.07-1.42-1.86-2.71-3.54-1.32-1.73-3.16-2.81-5.96-3.03" fill="#95cc22"/><g fill="#eb5220" color="#000"><path d="m63.07 1.102c-1.06.026-1.36.536-1.8.959s-.85.923-1.24 1.414c-.57.727-.81 1.116-1.03 1.439-.41.039-.99.085-2.04.272-.68.123-1.39.275-2.03.496-.64.222-1.33.333-1.8 1.331a1.2989 1.2989 0 0 0 -.001 .009c-.24.518-.15 1.026-.03 1.364s.28.582.45.818c.35.473.76.891 1.18 1.273.42.373.52.421.84.67-.24.437-.37.624-.69 1.331-.28.622-.54 1.274-.68 1.943-.08.334-.13.675-.09 1.067.03.391.16.902.58 1.297.46.436.99.517 1.42.53.42.012.8-.048 1.2-.141.78-.186 1.59-.506 2.36-.843s1.49-.699 2.03-.968c.08-.04.11-.062.19-.099.05.036.08.06.14.099.46.288 1.07.661 1.73 1.017.66.357 1.36.699 2.04.943.67.244 1.28.577 2.29.14v.009c.5-.22.8-.634.97-.976s.24-.661.29-.984c.1-.646.1-1.306.06-1.943-.05-.924-.14-1.37-.21-1.777.3-.297.66-.636 1.29-1.381.43-.504.86-1.041 1.19-1.587.17-.273.32-.547.43-.868.11-.32.229-.719.05-1.273v-.009c-.2-.609-.62-.88-.93-1.041-.32-.163-.61-.252-.92-.323-.62-.141-1.29-.206-1.94-.248-.62-.039-1.2-.045-1.66-.049-.16-.377-.37-.817-.62-1.298-.29-.536-.62-1.086-1.04-1.571s-.97-1.068-1.97-1.042"/><path d="m88.64.003c-.163-.011-.34.009-.537.058-.859.214-.966.64-1.199.992-.232.351-.432.734-.611 1.108-.235.488-.298.682-.406.95-.297.098-.56.169-1.149.414-.427.177-.863.382-1.265.628-.401.246-.901.414-1.099 1.306a1.1546 1.1546 0 0 0 -.008 0c-.103.47.067.862.214 1.1.148.238.298.391.455.529.315.276.66.488.992.678.209.119.227.112.414.206-.082.292-.112.341-.19.72-.093.446-.176.912-.174 1.397 0 .242.018.488.107.777.089.287.285.665.687.909v.009c0 0 .006 0 .008 0 .445.265.879.24 1.19.182.313-.059.568-.168.819-.29.502-.242.978-.564 1.43-.893.443-.322.848-.647 1.149-.892.331.117.751.266 1.207.396.478.137.979.26 1.472.323.492.063.976.239 1.703-.29.37-.268.527-.647.595-.934.069-.286.073-.528.058-.76-.029-.465-.139-.895-.256-1.307-.147-.517-.228-.691-.339-.975.164-.263.291-.449.562-.959.207-.389.414-.794.562-1.216.074-.21.135-.422.166-.677.031-.256.064-.592-.182-1.017a1.1546 1.1546 0 0 0 -.009 -.017c-.28-.471-.671-.593-.934-.661-.263-.069-.481-.081-.702-.083-.443-.003-.892.049-1.323.116-.334.052-.617.11-.885.165-.143-.19-.281-.383-.471-.603-.268-.311-.568-.62-.934-.893-.275-.205-.626-.464-1.116-.496"/><path d="m110.02 7.05c-.26-.017-.55.039-.86.223-.001.0001-.001-.002-.001 0v.008c-.68.402-.68.808-.8 1.199-.11.393-.19.817-.25 1.223-.09.568-.1.819-.13 1.092-.24.167-.51.339-1.02.76-.36.29-.71.602-1.02.943-.3.341-.7.634-.64 1.455a1.0103 1.0103 0 0 0 0 .008c.03.429.27.722.46.893s.38.272.56.355c.37.168.74.262 1.11.348.29.068.33.059.57.099 0 .321-.001.416.02.86.04.448.11.91.24 1.356.07.222.15.445.31.677.16.233.42.515.84.62.45.116.82-.019 1.09-.157.26-.137.47-.304.67-.487.4-.367.76-.816 1.1-1.257.33-.441.64-.876.86-1.199.001-.017.001-.025.02-.041.001 0 .02-.0001.03 0 .35.018.82.039 1.31.033s1-.038 1.48-.116.96-.059 1.45-.703a1.0103 1.0103 0 0 0 .001 -.008c.25-.327.29-.695.28-.967-.02-.272-.08-.493-.16-.703-.16-.42-.38-.801-.6-1.157-.31-.479-.46-.655-.64-.885.08-.284.15-.538.27-1.132.09-.428.16-.874.18-1.307.001-.216.001-.432-.03-.669s-.11-.534-.43-.835c-.36-.332-.73-.348-.98-.339-.26.008-.46.056-.66.115-.42.12-.83.302-1.22.488-.33.16-.62.318-.88.455-.2-.152-.42-.323-.69-.496-.34-.217-.71-.421-1.13-.57-.2-.075-.44-.165-.71-.182"/><path d="m130.16 16.901c-.15.006-.27.041-.37.075-.19.066-.34.147-.48.239-.28.184-.54.413-.78.637-.2.179-.36.338-.51.488-.21-.08-.26-.112-.54-.19-.3-.084-.62-.156-.97-.174-.34-.018-.81-.037-1.22.413-.46.492-.34.805-.34 1.125 0 .319.04.647.08.959.06.414.1.572.15.785-.15.187-.29.342-.55.744-.2.293-.39.602-.54.926s-.4.64-.15 1.282c.13.337.39.515.59.603.19.088.35.12.51.141.31.041.62.028.91.008.19-.013.2-.029.36-.05.07.221.07.268.18.546.13.321.28.655.48.959.11.152.22.302.4.446.18.145.45.298.81.282.39-.019.66-.221.83-.389s.28-.339.39-.521c.21-.364.38-.768.53-1.166.14-.391.26-.767.34-1.05.26-.065.59-.153.94-.264.36-.115.73-.246 1.06-.413.34-.167.71-.27.95-.893v-.009c.12-.319.07-.62 0-.826-.08-.209-.19-.365-.29-.505-.22-.28-.46-.508-.71-.719-.31-.269-.44-.347-.63-.479-.001-.235-.001-.406-.05-.844-.04-.332-.08-.673-.16-1-.04-.163-.09-.323-.18-.496s-.21-.4-.55-.562c-.18-.089-.35-.114-.49-.108"/><path d="m140.84 27.649c-.12.025-.22.075-.29.116-.16.083-.27.175-.38.273-.21.196-.4.418-.58.645-.15.187-.27.359-.38.512-.16-.029-.33-.06-.53-.082-.27-.03-.56-.049-.85-.017-.2.022-.43.092-.66.24a.72164 .72164 0 0 0 -.32 .273c-.3.467-.17.719-.12.992.04.273.12.548.2.81.11.354.17.494.24.67-.1.177-.2.341-.38.735-.12.28-.25.578-.34.877-.08.298-.24.6.05 1.099.16.263.41.375.58.422.18.047.31.053.45.05.27-.008.53-.059.78-.116.18-.041.19-.056.34-.099.09.185.1.234.24.471.16.258.33.521.55.752.11.116.22.226.39.323s.42.186.72.124c.32-.07.51-.265.63-.43.13-.166.2-.334.27-.505.13-.341.22-.711.29-1.074.07-.361.12-.711.15-.968v-.008c.22-.093.5-.217.79-.364.29-.148.6-.314.87-.504.26-.19.57-.323.68-.884.05-.284-.04-.53-.13-.695s-.19-.275-.3-.38c-.22-.21-.47-.381-.71-.529-.32-.192-.45-.244-.63-.331-.03-.198-.06-.362-.16-.744-.08-.282-.16-.567-.28-.835-.06-.134-.13-.263-.22-.397-.1-.133-.23-.306-.53-.397-.17-.048-.31-.049-.43-.025"/><path d="m42.19 15.479c-.24.029-.46.097-.67.166-.4.137-.78.326-1.15.545-.76.439-1.54 1.01-2.27 1.588-1.15.907-1.76 1.482-2.15 1.835-.67-.132-1.74-.324-3.14-.48-1.01-.111-2.05-.188-3.02-.132-.96.057-1.96.048-2.79 1.091-.43.531-.48 1.116-.46 1.571.03.455.13.851.27 1.249.27.794.68 1.589 1.11 2.339.39.697.8 1.332 1.14 1.836-.5.55-1.16 1.296-1.8 2.124-.63.814-1.25 1.685-1.68 2.572-.44.887-.93 1.912-.27 3.125.37.668.97 1.01 1.51 1.198.55.188 1.09.262 1.67.29 1.14.055 2.39-.072 3.61-.248 1.21-.177 2.37-.41 3.23-.587.22-.046.35-.071.52-.108.11.138.2.246.34.414.52.633 1.23 1.458 2 2.281.78.819 1.61 1.639 2.43 2.279.83.65 1.53 1.35 2.911 1.15.7-.1 1.19-.51 1.51-.89.32-.39.52-.8.71-1.23.37-.87.62-1.849.82-2.813.28-1.344.41-2.407.48-3.076.45-.27 1.27-.75 2.56-1.678.8-.576 1.61-1.207 2.27-1.86.66-.654 1.4-1.201 1.36-2.547a1.4433 1.4433 0 0 0 0 -.008c-.02-.73-.39-1.204-.72-1.538s-.69-.578-1.08-.81c-.77-.464-1.68-.852-2.58-1.199-.89-.346-1.77-.641-2.43-.851-.06-.022-.1-.03-.16-.05-.001-.06-.001-.092-.02-.157-.08-.662-.2-1.546-.39-2.463-.18-.918-.43-1.863-.79-2.712-.36-.85-.8-1.795-2.03-2.141a1.4433 1.4433 0 0 0 0 -.009c-.321-.09-.601-.094-.851-.066"/></g><g fill="#e0e210"><path d="m42.43 17.371c-1.32-.373-6.08 4.093-6.08 4.093s-6.93-1.485-7.98-.165c-.89 1.112 2.68 6.04 2.68 6.04s-5.07 5.167-4.18 6.78c1 1.846 9.52-.454 9.56-.331.05.123 4.94 6.322 6.671 6.082 1.66-.24 2.29-7.198 2.29-7.198s5.95-3.511 5.91-5.04c-.05-1.448-6.66-3.265-6.66-3.308 0-.042-.49-6.463-2.211-6.946"/><path d="m88.38 1.379c-.591.146-1.58 2.758-1.58 2.758s-2.995.928-3.151 1.628c-.128.587 2.228 1.604 2.228 1.604s-.974 2.933-.317 3.326c.753.45 3.634-2.176 3.672-2.143.043.038 3.161 1.235 3.785.78.601-.435-.506-3.07-.506-3.07s1.647-2.522 1.33-3.067c-.303-.511-3.237.232-3.246.218-.001-.014-1.453-2.224-2.215-2.034"/><path d="m109.72 8.33c-.52.308-.71 3.1-.71 3.1s-2.6 1.746-2.55 2.465c.04.601 2.59.894 2.59.894s-.09 3.09.66 3.274c.85.218 2.85-3.127 2.9-3.108.05.023 3.38.269 3.85-.341.45-.591-1.37-2.801-1.37-2.801s.84-2.886.38-3.312c-.43-.407-3.03 1.149-3.04 1.14-.001-.014-2.03-1.713-2.71-1.311"/><path d="m126.01 19.1c-.31.34.17 2.408.17 2.408s-1.51 1.85-1.31 2.357c.17.43 2.08.075 2.08.075s.62 2.267 1.2 2.238c.67-.033 1.39-2.91 1.42-2.9.05.004 2.52-.554 2.72-1.103.2-.53-1.61-1.732-1.61-1.732s-.02-2.285-.45-2.493c-.41-.199-1.95 1.509-1.96 1.505-.001-.001-1.86-.795-2.26-.355"/><path d="m137.55 30.1c-.22.336.48 2.063.48 2.063s-1.04 1.812-.8 2.224c.21.345 1.82-.227 1.82-.227s.85 1.874 1.35 1.77c.57-.123.79-2.712.83-2.712.03-.004 2.1-.832 2.2-1.334.09-.487-1.65-1.273-1.65-1.273s-.34-1.978-.74-2.096c-.38-.118-1.47 1.581-1.49 1.576 0-.005-1.71-.431-2 .009"/><path d="m63.05 2.705c-.94.024-3.28 3.605-3.28 3.605s-4.79.402-5.26 1.396c-.38.838 2.81 3.137 2.81 3.137s-2.43 4.069-1.58 4.878c.98.923 6.16-2.058 6.21-1.992.05.067 4.33 2.887 5.41 2.418 1.05-.454.26-4.769.26-4.769s3.29-3.232 3-4.15c-.28-.866-4.92-.724-4.93-.747-.001-.024-1.44-3.805-2.64-3.776"/></g></g></svg>