<svg xmlns="http://www.w3.org/2000/svg" height="216.15" width="600" viewBox="0 0 158.75 57.189446"><g stroke-width=".215"><path d="m23.284 20.06c-.797-.06-1.782-.048-3.327.02-3.351.148-8.312 1.271-11.566 2.454-1.618.59-3.334 1.392-4.782 2.259-.724.435-1.375.878-1.928 1.359-.545.48-1.033.958-1.318 1.755-.651 1.866-.333 3.831.212 5.457.277.806.618 1.538 1.025 2.148.415.61.789 1.236 1.863 1.464 1.179.252 3.522.244 6.979-1.424.22.244.512.61.821 1.09.716 1.098 1.391 2.448 1.643 2.961.318.634 1.01 3.237.562 4.652-.578 1.83-1.44 2.733-2.66 3.164h-.008c-.496.187-1.318.358-1.944.301-.634-.065-.992-.203-1.334-.813-.122-.22-.211-.415-.268-.586.081.049.155.13.228.171.472.268.976.406 1.529.447 1.107.081 2.537-.358 3.376-1.618.496-.757.716-1.619.667-2.375-.041-.757-.293-1.375-.529-1.863h-.008c-.756-1.553-2.269-2.44-4.04-2.635-1.911-.212-3.937.781-5.295 2.733-1.358 1.96-2.798 6.05-.35 10.175 1.293 2.179 3.27 3.448 5.295 4.04 2.025.585 4.115.569 5.962.366 2.033-.228 3.969-.87 5.913-1.928 1.513-.821 3.058-2.188 4.31-4.831 1.578-3.318 1-7.222.676-9.614v-.008c-.098-.74-.399-1.797-.944-3.766-.309-1.138-.805-2.171-1.212-2.96.83-.155 1.79-.448 2.847-1.01 1.261-.672 2.692-1.683 3.034-3.486v-.006c.162-.852.04-1.511-.098-2.361-.13-.85-.309-1.698-.659-2.468 0 0-.008.002-.008 0v-.007c-.529-1.143-1.309-2.34-2.7-2.844-.537-.195-1.163-.358-1.96-.417z" fill="#432156" color="#000"/><path d="m24.528 21.868c-.935-.338-1.659-.439-4.717-.304-3.059.135-8.05 1.247-11.12 2.363-3.058 1.112-6.653 3.102-7.117 4.448-.943 2.714.854 6.848 1.976 7.084.789.171 3.03.268 6.58-1.586 1.13-.586 3.424 4.02 3.928 5.03.505 1.01 1.31 3.693.643 5.799-.683 2.164-1.903 3.547-3.595 4.148-1.334.48-3.953.928-5.14-1.211-1.301-2.327-.073-3.913.464-4.384.659-.578 1.147-.505 1.472-.236.325.268-.431.943-.325 1.651.106.707 2.302 1.317 3.31-.203.683-1.033.431-1.92.041-2.725-.415-.854-1.619-1.659-2.847-1.798-1.22-.13-2.806.545-3.88 2.099-1.082 1.553-2.375 5.02-.293 8.532 2.196 3.676 6.336 4.058 9.784 3.676 1.838-.203 3.563-.781 5.36-1.757 1.334-.724 2.522-1.724 3.677-4.148 1.293-2.733.862-6.409.536-8.768-.048-.366-.366-1.618-.902-3.578-.537-1.952-1.839-3.913-1.798-4.01.033-.098.073-.643 1.399-.778 1.114-.111 4.644-1.282 5.04-3.371.13-.704-.179-2.901-.651-3.91-.464-1.012-.984-1.751-1.83-2.058" fill="#955ea1"/><path d="m28.969 31.726c-.651.008-1.22.04-1.537.04-1.058 0-2.131.488-2.668 1.163h-.008c-.789.984-.952 1.977-.968 2.074h-.008s-1.375 4.547-1.969 6.532v.008c-.341 1.163-.748 3.204-1.114 5.181-.179.992-.341 1.952-.463 2.741s-.204 1.325-.22 1.797v.008c-.033 1 .423 1.879.992 2.473.57.602 1.253 1 1.969 1.26 0 0 0 .009.008.009v-.009c.927.342 1.903.399 3.042.44 1.146.048 2.334.024 3.294-.074.902-.089 1.724-.203 2.505-.479.789-.277 1.602-.781 2.058-1.635.39-.724.561-1.668.471-2.587-.089-.911-.309-2.025-.602-4.074-.26-1.847-.146-4.433.057-6.572.212-2.139.472-3.685.545-4.156v-.017c.049-.398.513-1.618-.382-2.879v-.008l-.008-.008c-.545-.757-1.277-.952-1.798-1.058-.52-.097-.959-.113-1.114-.122-.683-.065-1.423-.065-2.082-.048" fill="#432156" color="#000"/><path d="m30.913 33.3c-1.147-.105-2.709 0-3.481 0-.781 0-1.188.212-1.489.586-.447.561-.699 1.57-.699 1.57s-1.375 4.546-1.968 6.523c-.586 1.984-1.7 8.304-1.741 9.345-.033 1.041.927 1.871 1.968 2.253 1.033.382 3.961.455 5.661.285 1.708-.179 2.92-.472 3.375-1.326.594-1.106.301-1.562-.3-5.726-.586-4.172.52-10.598.601-11.151.074-.561.261-1.285-.113-1.806-.375-.52-1.318-.512-1.814-.553" fill="#955ea1"/><path d="m37.03 31.11c-1.749.154-2.871.729-3.522 1.396v.009c-1 1.024-1.488 2.228-1.716 3.513-.39 2.09-.577 5.694-.594 9.167-.008 1.74.033 3.416.131 4.831.105 1.407.162 2.424.601 3.408.521 1.187 1.587 1.862 2.465 2.131.878.268 1.667.268 2.02.301h.008c1.936.154 3.676-.675 4.652-2.05v-.008c.334-.464.407-.805.497-1.204.097-.39.179-.821.235-1.293.131-.952.22-2.066.293-3.188.008-.171 0-.179.008-.334.025.041.041.057.065.09.383.488.985 1.374 1.7 2.179.724.806 1.562 1.782 3.115 1.741.887-.024 1.497-.423 2.02-.83.52-.415.967-.903 1.382-1.415l.025-.024c-.017 1.203.024 2.537.187 3.652.105.74.154 1.423.561 2.204.415.772 1.301 1.358 2.196 1.594 0 0 0 .008.008.008v-.008c1.171.301 2.432.26 3.636-.008 1.212-.269 2.385-.74 3.241-1.757.002 0 0 0 0-.008.716-.846.819-1.798.841-2.66.021-.87-.08-1.732-.168-2.513-.105-.944-.523-3.408-.962-6-.439-2.586-.895-5.189-1.035-6.02 0-.008 0-.008 0-.008-.193-1.163-.478-2.245-1.258-3.132-.781-.886-1.936-1.35-3.246-1.537-1.757-.252-3.92-.163-5.856.952-1.065.61-1.708 1.423-2.131 1.935-.301-.504-.691-1.22-1.285-1.984-1.35-1.749-3.432-2.92-6.141-3.129-.732-.055-1.39-.051-1.968 0" fill="#432156" color="#000"/><path d="m38.875 32.637c-2.659-.204-3.749.398-4.278.943-.813.83-1.098 1.562-1.309 2.725-.683 3.709-.846 14.518.032 16.511.659 1.48 2.335 1.455 3.221 1.529 1.57.13 2.538-.358 3.294-1.416.382-.544.594-2.692.74-4.904.139-2.212-.211-2.904.529-3.335.455-.268 1.383 1.123 2.261 2.245.887 1.131 2.302 3.375 3.579 3.343 1.374-.041 3.286-3.01 4.067-4.36.26-.439 1.146-.081 1.065.798-.114 1.016-.252 4.294.033 6.246.211 1.488.309 2.204 1.626 2.546 1.7.439 4.335-.073 5.338-1.277.674-.789.496-2.465.32-4.03-.17-1.513-1.697-10.265-1.981-11.948-.35-2.099-.985-3.091-3.221-3.408-1.521-.22-3.359-.114-4.88.764-1.562.895-2.091 2.611-3.075 2.538-.74-.049-1.204-1.562-2.302-2.977-1.122-1.448-2.684-2.359-5.059-2.537" fill="#955ea1"/><g fill="#389d3d" color="#000"><path d="m96 30.493c-.584 0-1.146.048-1.701.195h-.007c-.828.221-1.328.859-1.567 1.387-.059.13-.081.252-.12.383-.262-.171-.483-.326-.834-.505-1.132-.569-2.798-1.027-5.279-1.01-4.824.04-7.507 3.141-8.493 5.11v.008c-.423.846-.517 1.659-.685 2.773-.169 1.106-.313 2.4-.43 3.636-.237 2.472-.371 4.742-.371 4.742l-.026.414.187.366s.416.814 1.063 1.757c.647.944 1.501 2.074 2.724 2.839v-.008c3.237 2.025 7.158 1.391 9.635.227.449-.203.808-.471 1.116-.748.061.147.13.285.216.423h-.008c.705 1.131 1.608 1.228 2.449 1.423.839.196 1.719.285 2.467.326.674.032 1.537.089 2.474-.065.938-.155 2.063-.618 2.753-1.659.51-.781.58-1.465.69-2.302.11-.83.16-1.765.18-2.709.03-1.887-.05-3.79-.12-4.774v-.008c-.07-1.033.06-3.03.25-4.734.1-.854.21-1.651.3-2.261.09-.586.22-1.147.18-1.017.11-.366.32-1.114-.05-1.919-.38-.805-1.1-1.22-1.91-1.531h-.0001c-.89-.337-2.023-.521-3.265-.646-.619-.061-1.224-.113-1.808-.113m-6.745 8.74c1 0 2.475 1.081 2.475 2.35 0 .814-.245 1.513-.605 1.952-.359.44-.788.692-1.567.692-1.612.008-2.501-1-2.501-2.481 0-1.391 1.289-2.513 2.198-2.513"/><path d="m92.46 33.24c-.004.114-.023.236-.014.358-.02-.268-.012-.341.014-.358"/><path d="m93.99 50.847c.004.008.002.008.007.008-.007-.008-.003 0-.007 0 0 0 0-.008 0-.008"/></g><path d="m89.57 45.87c-2.474.016-4.194-1.847-4.194-4.165s1.909-4.197 3.872-4.197c1.962 0 4.16 1.708 4.16 4.03 0 2.318-1.359 4.326-3.838 4.335m10.961-13.193c-1.178-.447-4.553-.862-5.845-.512-.547.146-.755.862-.716 1.301.034.447-.504 1.31-1.22.968-.72-.342-1.651-1.993-6.247-1.96-4.183.032-6.353 2.684-7.142 4.262-.789 1.586-1.328 10.565-1.328 10.565s1.489 2.904 3.232 3.994c2.583 1.61 6.123 1.09 8.183.13 1.396-.651 1.685-2.058 2.367-2.302.507-.179.862.171.827.724-.039.545-.435 1.017.069 1.822.431.691 2.336.96 3.698 1.033 1.362.065 3.087.171 3.872-1.033.84-1.277.64-6.979.51-8.841-.18-2.546.61-7.979.79-8.565.17-.585.24-1.098-1.05-1.586" fill="#95cc22"/><path d="m79.14 18.954c-.81-.061-1.819-.049-3.402.019-3.421.152-8.496 1.303-11.815 2.509-1.656.603-3.418 1.419-4.895 2.306-.738.443-1.405.902-1.966 1.392s-1.058.975-1.334 1.782c-.659 1.897-.334 3.898.22 5.553.276.829.626 1.561 1.041 2.187.423.619.805 1.253 1.885 1.489 1.191.252 3.588.244 7.134-1.472.231.252.544.634.868 1.138.727 1.123 1.421 2.514 1.681 3.034.327.659 1.034 3.327.571 4.791-.598 1.87-1.482 2.806-2.73 3.261-.002 0-.005-.008-.007 0-.524.187-1.36.366-2.01.301-.652-.065-1.037-.211-1.391-.846-.151-.276-.24-.504-.303-.707.104.073.203.179.303.236.476.268.991.406 1.553.447 1.123.081 2.569-.358 3.416-1.635.51-.764.731-1.643.686-2.416-.046-.764-.302-1.39-.545-1.887-.77-1.569-2.315-2.472-4.108-2.675-1.944-.212-4.01.797-5.392 2.781-1.383 1.993-2.855 6.174-.35 10.37 1.321 2.229 3.334 3.522 5.398 4.124 2.066.602 4.188.577 6.073.366 2.081-.228 4.062-.887 6.04-1.96 1.541-.838 3.119-2.229 4.398-4.929 1.608-3.384 1.028-7.377.692-9.825h-.006v-.008c-.104-.724-.401-1.822-.955-3.839-.324-1.172-.839-2.253-1.258-3.058-.002-.009-.004-.009-.006-.017.857-.146 1.846-.439 2.945-1.025 1.287-.682 2.74-1.712 3.086-3.544v-.007c.161-.856.043-1.532-.094-2.401-.137-.867-.319-1.734-.679-2.514-.537-1.16-1.322-2.386-2.743-2.898-.002 0-.005 0-.007 0-.55-.2-1.183-.364-1.99-.424" fill="#419037" color="#000"/><path d="m80.62 20.811c-.955-.346-1.69-.446-4.815-.311-3.125.138-8.231 1.278-11.356 2.412-3.126 1.14-6.801 3.171-7.28 4.549-.96 2.771.878 6.989 2.02 7.233.809.179 3.087.277 6.727-1.618 1.147-.594 3.491 4.099 4.01 5.132.516 1.041 1.344 3.774.662 5.929-.7 2.204-1.951 3.62-3.674 4.238-1.363.488-4.04.943-5.258-1.237-1.323-2.375-.073-4 .478-4.481.673-.594 1.177-.521 1.508-.244.331.276-.442.968-.331 1.692.112.724 2.352 1.342 3.379-.204.7-1.057.442-1.968.039-2.798-.424-.862-1.655-1.683-2.902-1.821-1.251-.139-2.867.544-3.972 2.131-1.098 1.586-2.424 5.14-.292 8.719 2.235 3.765 6.466 4.148 9.994 3.757 1.875-.211 3.64-.797 5.476-1.789 1.363-.74 2.575-1.757 3.749-4.246 1.323-2.781.885-6.539.554-8.955-.054-.374-.37-1.651-.92-3.652-.55-2-1.874-3.995-1.836-4.099.035-.103.073-.654 1.432-.792 1.135-.116 4.741-1.309 5.146-3.445.134-.719-.186-2.963-.662-3.998-.478-1.032-1-1.79-1.875-2.102" fill="#95cc22"/><path d="m106 31.15c-1.69.152-2.78.721-3.41 1.372h-.001c-.96 1-1.42 2.171-1.65 3.424v.008c-.36 2.025-.55 5.514-.57 8.874-.001 1.683.03 3.31.13 4.676.1 1.367.15 2.351.58 3.311v.008c.51 1.155 1.55 1.822 2.4 2.082.86.268 1.61.268 1.95.301 1.88.154 3.58-.675 4.53-2.02.32-.464.39-.797.48-1.18.1-.382.16-.797.23-1.26.12-.911.21-1.993.28-3.083 0-.073-.001-.073 0-.146.36.48.91 1.285 1.58 2.041.69.781 1.5 1.749 3.03 1.708.88-.024 1.47-.415 1.98-.821.46-.374.86-.805 1.24-1.261-.001 1.122.03 2.342.18 3.375.1.716.14 1.383.54 2.14.4.764 1.27 1.358 2.14 1.586h.001c1.14.292 2.35.244 3.52-.017 1.17-.26 2.31-.724 3.15-1.724.69-.838.78-1.765.8-2.603.02-.846-.07-1.675-.16-2.44-.1-.903-.5-3.294-.92-5.799s-.85-5.04-.98-5.84c-.19-1.122-.47-2.171-1.22-3.042-.76-.87-1.88-1.342-3.15-1.521-1.7-.244-3.79-.154-5.66.928-.001 0-.001.008-.001.008-.98.569-1.57 1.309-1.98 1.805-.28-.479-.64-1.13-1.19-1.838-1.3-1.708-3.33-2.855-5.93-3.055h-.001c-.7-.054-1.33-.051-1.9 0" fill="#419037" color="#000"/><path d="m107.79 32.669c-2.55-.195-3.6.39-4.11.919-.77.805-1.05 1.505-1.25 2.635-.65 3.595-.81 14.05.03 15.983.63 1.431 2.24 1.407 3.09 1.472 1.51.13 2.43-.342 3.15-1.367.37-.528.58-2.594.71-4.741.14-2.148-.2-2.807.51-3.229.44-.261 1.32 1.081 2.17 2.171s2.2 3.27 3.42 3.237c1.32-.032 3.15-2.92 3.9-4.221.25-.431 1.1-.081 1.02.773-.1.984-.24 4.156.03 6.04.2 1.448.3 2.139 1.56 2.464 1.63.423 4.15-.073 5.12-1.228.64-.781.47-2.391.3-3.904-.16-1.464-1.63-9.939-1.9-11.558-.34-2.033-.94-2.993-3.08-3.302-1.46-.211-3.22-.105-4.68.74-1.49.863-2 2.53-2.95 2.457-.7-.057-1.15-1.513-2.2-2.88-1.08-1.407-2.57-2.285-4.84-2.464" fill="#95cc22"/><g fill="#eb5220" color="#000"><path d="m51.3.896c-.862.021-1.106.436-1.464.78-.358.344-.691.751-1.01 1.15-.464.591-.659.908-.838 1.17-.334.032-.805.069-1.659.221-.553.1-1.131.224-1.651.403-.521.181-1.082.271-1.464 1.083a1.0565 1.0565 0 0 0 -.009 .0073c-.195.421-.122.835-.024 1.109s.228.473.366.665c.285.385.618.725.96 1.035.341.303.423.342.683.545-.195.355-.301.508-.561 1.082-.228.506-.439 1.037-.553 1.581-.065.271-.106.549-.074.868.025.318.131.733.472 1.054.374.355.805.421 1.155.432.342.009.651-.039.976-.115.635-.151 1.293-.412 1.92-.686.626-.274 1.212-.568 1.651-.787.065-.033.089-.051.154-.081.041.03.065.049.114.081.374.234.87.538 1.407.827.537.29 1.106.569 1.659.767.545.199 1.042.469 1.863.114v.007c.407-.179.651-.515.789-.794.138-.278.195-.537.236-.8.081-.525.081-1.062.049-1.58-.041-.752-.114-1.114-.171-1.445.244-.242.537-.517 1.049-1.123.35-.41.7-.847.968-1.291.138-.222.26-.445.35-.706.089-.26.186-.585.04-1.035v-.007c-.162-.495-.504-.716-.756-.847-.26-.133-.496-.205-.748-.263-.505-.115-1.05-.168-1.578-.202-.505-.032-.976-.037-1.35-.04-.131-.307-.301-.664-.505-1.056-.236-.436-.504-.883-.846-1.278-.341-.395-.788-.869-1.602-.847"/><path d="m72.09.002c-.133-.009-.277.007-.437.047-.699.174-.786.521-.975.807-.189.285-.352.597-.497.901-.191.397-.243.555-.33.773-.242.08-.456.138-.935.337-.347.144-.702.311-1.029.511-.326.2-.733.337-.894 1.062a.93909 .93909 0 0 0 -.006 0c-.084.382.054.701.174.895.12.194.242.318.37.43.256.224.537.397.807.551.17.097.184.091.337.168-.067.237-.092.277-.155.586-.076.363-.143.742-.142 1.136 0 .197.015.397.087.632.073.233.232.541.559.739v.007c0 0 .005 0 .007 0 .362.216.715.195.968.148.254-.048.462-.137.666-.236.408-.197.795-.459 1.163-.726.36-.262.69-.526.934-.726.27.095.611.216.982.322.389.111.796.211 1.197.263.4.051.794.194 1.385-.236.301-.218.429-.526.484-.76.057-.233.06-.429.048-.618-.024-.378-.113-.728-.209-1.063-.119-.42-.185-.562-.275-.793.133-.214.236-.365.457-.78.168-.316.336-.646.457-.989.06-.171.11-.343.135-.551.025-.208.052-.482-.148-.827a.93909 .93909 0 0 0 -.008 -.0138c-.227-.383-.545-.482-.759-.538-.214-.056-.391-.066-.571-.067-.36-.002-.726.04-1.076.094-.272.042-.502.089-.72.134-.116-.155-.229-.311-.383-.49-.218-.253-.462-.504-.76-.726-.223-.167-.509-.377-.907-.403z"/><path d="m89.49 5.731c-.215-.014-.45.032-.706.181-.002 0-.005-.002-.007 0v.006c-.549.327-.55.657-.646.975-.096.32-.157.665-.208.995-.071.462-.082.666-.101.888-.196.136-.415.276-.833.618-.289.236-.579.49-.827.767-.249.278-.572.516-.525 1.184a.82172 .82172 0 0 0 0 .006c.027.349.22.587.376.726.157.14.309.222.458.289.296.137.601.213.901.283.238.056.269.048.463.081.004.261-.011.338.021.699.032.365.084.74.195 1.103.055.181.122.362.249.551s.34.419.679.504c.371.094.672-.015.887-.128.216-.111.389-.247.552-.396.324-.298.615-.663.887-1.022.273-.359.522-.713.7-.975.009-.014.011-.021.02-.034h.02c.289.015.668.032 1.069.027s.816-.031 1.204-.094c.388-.064.782-.048 1.183-.572a.82172 .82172 0 0 0 .007 -.006c.201-.266.235-.566.222-.787s-.065-.401-.128-.572c-.126-.341-.306-.651-.49-.941-.249-.389-.371-.533-.519-.72.065-.231.126-.438.222-.921.07-.348.132-.711.149-1.063.008-.176.006-.351-.027-.544-.034-.193-.087-.434-.35-.679-.292-.27-.595-.283-.8-.276-.206.006-.371.045-.538.093-.335.098-.671.246-.989.397-.272.13-.507.259-.713.37-.165-.124-.343-.263-.565-.403-.276-.176-.578-.342-.914-.464-.168-.061-.362-.134-.578-.148"/><path d="m105.86 13.746c-.12.005-.22.033-.3.061-.15.054-.27.119-.38.194-.23.15-.44.336-.64.518-.16.146-.29.275-.41.397-.18-.065-.22-.091-.45-.154-.24-.069-.5-.127-.78-.142-.29-.014-.66-.03-1 .336-.37.4-.28.655-.28.915.001.26.04.526.07.78.05.337.09.465.12.639-.12.152-.23.278-.45.605-.16.238-.31.489-.43.753-.13.263-.33.52-.13 1.043.11.274.32.418.48.49s.29.098.42.115c.25.033.5.022.74.006.15-.001.16-.023.29-.04.06.179.06.217.15.444.11.261.23.532.39.78.08.123.18.245.32.362.15.118.37.243.66.23.32-.016.54-.18.68-.317.14-.136.22-.275.31-.423.18-.296.31-.625.43-.949.12-.318.21-.624.29-.854.21-.053.47-.124.75-.215.3-.093.6-.2.87-.335.27-.136.58-.22.77-.727h.001c0-.002-.001-.005 0-.007.09-.26.05-.504-.001-.672-.06-.17-.15-.297-.24-.411-.17-.227-.37-.413-.57-.584-.25-.219-.36-.283-.52-.39 0-.191 0-.33-.04-.686-.02-.271-.06-.548-.12-.814-.04-.132-.08-.263-.15-.403-.07-.141-.17-.326-.45-.457-.15-.073-.28-.093-.4-.088"/><path d="m114.55 22.488c-.09.02-.18.061-.24.094-.12.067-.21.142-.3.222-.18.159-.33.34-.48.525-.12.152-.22.292-.31.416-.13-.024-.26-.049-.43-.067-.22-.024-.45-.039-.69-.013-.16.017-.35.074-.53.195a.58693 .58693 0 0 0 -.26 .222c-.25.38-.14.585-.1.807.03.222.1.445.16.658.09.288.14.402.19.545-.08.144-.15.278-.3.598-.1.228-.21.47-.28.713-.06.243-.2.488.04.894.13.214.33.305.47.344.14.038.26.043.37.04.22-.006.43-.048.63-.094.15-.033.16-.046.28-.081.07.151.08.191.2.383.12.21.26.424.44.612.09.094.18.184.32.263.13.079.34.151.58.101.26-.057.42-.216.52-.35.1-.135.16-.272.22-.411.1-.277.17-.578.23-.873.06-.294.1-.579.13-.788v-.006c.17-.076.4-.177.64-.296.24-.121.49-.256.7-.41.22-.155.47-.263.55-.719.05-.231-.02-.431-.1-.565-.07-.135-.16-.224-.25-.309-.17-.171-.38-.31-.57-.431-.26-.156-.36-.198-.51-.269-.03-.161-.05-.294-.13-.605-.06-.229-.14-.461-.23-.679-.05-.109-.1-.214-.18-.323-.08-.108-.19-.249-.43-.323-.13-.039-.25-.04-.35-.02"/><path d="m34.31 12.589c-.196.024-.375.079-.545.135-.326.112-.635.265-.936.444-.618.357-1.252.822-1.846 1.291-.935.738-1.431 1.205-1.749 1.493-.545-.108-1.415-.264-2.554-.391-.821-.09-1.667-.153-2.456-.107-.781.046-1.594.039-2.269.887-.35.432-.391.908-.374 1.278.024.37.105.692.219 1.016.22.646.553 1.292.903 1.902.317.567.651 1.084.927 1.494-.406.447-.943 1.054-1.464 1.727-.512.662-1.016 1.371-1.366 2.092-.358.721-.756 1.555-.22 2.542.301.543.789.822 1.228.974.448.153.887.213 1.359.236.927.045 1.944-.059 2.936-.202.984-.144 1.928-.333 2.627-.477.179-.038.285-.058.423-.088.089.112.163.2.277.337.422.515 1 1.186 1.626 1.855.635.666 1.31 1.333 1.977 1.854.675.528 1.244 1.098 2.366.935.57-.081.968-.415 1.229-.724.26-.317.423-.651.577-1 .301-.708.504-1.504.667-2.288.228-1.093.333-1.958.39-2.502.366-.22 1.033-.61 2.083-1.365.65-.468 1.309-.982 1.846-1.513.537-.532 1.139-.977 1.106-2.071a1.1739 1.1739 0 0 0 0 -.007c-.016-.594-.317-.979-.586-1.251-.268-.271-.561-.47-.878-.659-.626-.377-1.366-.693-2.098-.975-.724-.281-1.44-.521-1.977-.692-.049-.018-.081-.024-.13-.041-.008-.048-.008-.074-.016-.127-.065-.539-.163-1.258-.317-2-.147-.746-.35-1.515-.643-2.205-.293-.692-.651-1.46-1.651-1.742a1.1739 1.1739 0 0 0 0 -.007c-.26-.073-.488-.077-.691-.054"/></g><g fill="#e0e210"><path d="m34.508 14.13c-1.074-.303-4.945 3.329-4.945 3.329s-5.637-1.208-6.491-.134c-.724.904 2.18 4.91 2.18 4.91s-4.124 4.203-3.4 5.515c.814 1.501 7.743-.37 7.776-.27.04.1 4.02 5.142 5.425 4.947 1.35-.195 1.862-5.854 1.862-5.854s4.84-2.856 4.807-4.103c-.041-1.178-5.417-2.655-5.417-2.69s-.398-5.257-1.797-5.65"/><path d="m71.88 1.121c-.481.119-1.285 2.243-1.285 2.243s-2.436.755-2.563 1.324c-.104.478 1.812 1.305 1.812 1.305s-.792 2.386-.258 2.705c.613.366 2.956-1.77 2.987-1.743.035.031 2.571 1 3.079.634.488-.354-.412-2.497-.412-2.497s1.34-2.051 1.082-2.495c-.247-.416-2.633.189-2.64.177-.008-.011-1.182-1.809-1.802-1.654"/><path d="m89.24 6.775c-.423.25-.585 2.521-.585 2.521s-2.113 1.42-2.071 2c.035.489 2.109.727 2.109.727s-.073 2.513.531 2.663c.693.177 2.321-2.543 2.36-2.528.042.019 2.751.219 3.132-.277.366-.481-1.116-2.279-1.116-2.279s.689-2.347.315-2.694c-.349-.331-2.466.935-2.474.927-.011-.011-1.651-1.393-2.201-1.066"/><path d="m102.49 15.535c-.26.277.13 1.959.13 1.959s-1.22 1.504-1.06 1.917c.14.349 1.69.061 1.69.061s.51 1.844.98 1.82c.54-.027 1.13-2.367 1.16-2.359.03.004 2.04-.45 2.21-.897.16-.431-1.31-1.409-1.31-1.409s-.02-1.858-.37-2.027c-.33-.162-1.59 1.227-1.6 1.224 0-.008-1.5-.647-1.83-.289"/><path d="m111.88 24.48c-.18.274.39 1.678.39 1.678s-.85 1.474-.65 1.809c.16.281 1.47-.184 1.47-.184s.7 1.524 1.1 1.439c.47-.1.64-2.206.67-2.206.03-.003 1.71-.676 1.79-1.085.08-.396-1.33-1.035-1.33-1.035s-.28-1.609-.61-1.705c-.3-.096-1.19 1.286-1.21 1.282 0-.004-1.39-.351-1.62.007"/><path d="m51.28 2.2c-.765.019-2.668 2.932-2.668 2.932s-3.896.327-4.278 1.135c-.309.682 2.285 2.551 2.285 2.551s-1.976 3.309-1.285 3.967c.797.751 5.01-1.674 5.05-1.62.041.054 3.522 2.348 4.4 1.967.854-.37.212-3.879.212-3.879s2.676-2.629 2.44-3.375c-.228-.704-4-.589-4.01-.608-.008-.019-1.171-3.095-2.147-3.071"/></g></g><g color-rendering="auto" shape-rendering="auto" image-rendering="auto" color="#000"><path d="m155.65 30.753c-.87 0-1.77.365-2.89 1.024a.64648 .64648 0 0 0 -.03 .021l-2.41 1.625c-.8.54-1.36 1.199-1.54 1.989-.17.79.07 1.618.59 2.388.49.731 1.12 1.25 1.87 1.414.43.094.87.037 1.32-.091v10.681c0 .967.23 1.802.79 2.391.55.59 1.37.852 2.3.852.94 0 1.76-.264 2.31-.853.56-.59.79-1.423.79-2.39v-15.809c0-.966-.23-1.799-.79-2.389-.55-.59-1.37-.853-2.31-.853" fill="#419037" mix-blend-mode="normal" solid-color="#000000" white-space="normal" shape-padding="0" isolation="auto"/><path d="m155.65 32.05c.71 0 1.11.17 1.37.446.26.277.44.739.44 1.503v15.809c0 .764-.18 1.227-.44 1.503-.26.277-.66.447-1.37.447-.7 0-1.1-.17-1.36-.447-.26-.276-.44-.739-.44-1.503v-11.647a.64648 .64648 0 0 0 -.98 -.553c-.58.348-1 .423-1.35.347-.35-.077-.71-.323-1.08-.876-.39-.579-.48-1.01-.4-1.38.09-.371.37-.774 1.01-1.199a.64648 .64648 0 0 0 0 -.002l2.37-1.605c1.03-.604 1.74-.843 2.23-.843" fill="#95cc22" mix-blend-mode="normal" solid-color="#000000" white-space="normal" shape-padding="0" isolation="auto"/><path d="m139.57 32.815c-.93 0-1.75.261-2.3.85-.56.589-.79 1.424-.79 2.392v3.779h-3.78c-.97 0-1.8.232-2.39.787s-.85 1.376-.85 2.306c0 .841.31 1.622.89 2.202a.64648 .64648 0 0 0 .001 .013c.62.585 1.44.881 2.34.881h3.78v3.779c0 .967.23 1.802.79 2.391.55.59 1.37.852 2.3.852s1.76-.262 2.31-.852c.56-.589.79-1.424.79-2.391v-3.779h3.78c.97 0 1.8-.233 2.39-.789s.85-1.377.85-2.307-.26-1.75-.85-2.305-1.42-.788-2.39-.788h-3.78v-3.779c0-.968-.23-1.803-.79-2.392s-1.38-.85-2.31-.85" fill="#419037" mix-blend-mode="normal" solid-color="#000000" white-space="normal" shape-padding="0" isolation="auto"/><path d="m139.57 34.11c.71 0 1.11.171 1.37.447s.44.739.44 1.504v4.426a.64648 .64648 0 0 0 .64 .646h4.43c.76 0 1.23.176 1.5.436.28.259.45.662.45 1.364s-.17 1.106-.45 1.366c-.27.261-.74.437-1.5.437h-4.43a.64648 .64648 0 0 0 -.64 .647v4.425c0 .764-.18 1.227-.44 1.503-.26.277-.66.447-1.37.447-.7 0-1.1-.17-1.36-.447-.26-.276-.44-.739-.44-1.503v-4.425a.64648 .64648 0 0 0 -.65 -.647h-4.42c-.63 0-1.06-.171-1.44-.524-.35-.352-.51-.737-.51-1.279 0-.701.17-1.104.45-1.364.27-.261.74-.436 1.5-.436h4.32a.64648 .64648 0 0 0 .55 -.173 .64648 .64648 0 0 0 .03 -.02 .64648 .64648 0 0 0 .03 -.045 .64648 .64648 0 0 0 .001 -.005 .64648 .64648 0 0 0 .13 -.505v-4.324c0-.765.18-1.228.44-1.504s.66-.447 1.36-.447" fill="#95cc22" mix-blend-mode="normal" solid-color="#000000" white-space="normal" shape-padding="0" isolation="auto"/></g></svg>