<svg xmlns="http://www.w3.org/2000/svg" height="332.5" width="600" viewBox="0 0 158.75 87.97392"><g transform="translate(-67.12-143.95)"><path d="m146.21 143.95c-43.84.29-79.24 20.22-79.08 44.51.158 24.28 35.824 43.75 79.65 43.46 43.84-.28 79.24-20.2 79.09-44.5-.16-24.29-35.82-43.74-79.66-43.47" fill="#009fe3"/><path d="m140.3 221.21c-37.86.25-68.66-16-68.795-36.28-.137-20.28 30.455-36.92 68.31-37.17 37.87-.24 68.68 16 68.81 36.28s-30.46 36.93-68.33 37.17" fill="#fff"/><g fill="#009fe3"><path d="m115.12 161.94h-14.23l-6.913 25.89c-.452 1.83-1.372 2.96-3.96 2.98-1.99.001-3.126-.95-3.138-2.52-.009-1.32.836-3.57 1.091-4.89h-13.07c-.715 2.04-1.159 4.92-1.146 6.65.033 4.57 3.719 9.47 15.663 9.39 11.614-.07 17.12-4.23 19.05-12.57z"/><path d="m151.97 161.94l-11.78 19.22-.13.001-1.47-19.23h-20.76l-9.7 36.25h14.21l6.65-24.86h.13l1.91 24.86h10.81l15.35-25.05h.13l-6.71 25.05h14.2l9.71-36.25z"/><path d="m191.46 161.94h-14.19l-9.75 36.25h35.01l2.66-9.95h-20.8z"/></g></g></svg>