<svg xmlns="http://www.w3.org/2000/svg" viewBox="0 0 600 378.41"><defs><clipPath id="0"><path d="m305.26 536.33c-.15 1.065-1.365 2.131-2.894 2.437-.756.15-4.112.15-5.03.15-1.52.307-3.499.154-4.875.307-1.976 0-9.905.153-13.254 0h-2.132c-1.066 0-2.895-.307-2.895-.763 0-1.37-.304-3.049-.304-4.568 0-3.507.304-2.44.456-5.641v-4.113c0-2.589.305-4.266.305-6.855-.152 0-.152 0-.152.151v-.304c0-.148-.153-.302-.153-.454 0-1.222.153-2.442.153-3.809 0-1.521-.153-2.897-.153-4.118v-.606c0-.15-.152-.15-.152-.15v-.613c0-.917.152-1.83.152-2.745 0-.458 0-.758-.152-1.217-.304-1.371 0-2.893-.304-4.267-.154-.151-.306-.306-.306-.608v-.153c.152 0 .61 0 .61-.153v-.303l-.304-.156.304-3.655c-.61-.912.152-2.132.152-3.197v-.308h-.152v-1.219c0-.148 0-.456-.304-.912.304-1.676.304-.61.609-2.288-.153-.151-.153-.307-.153-.453 0-.156.153-.156.153-.156 0-.459.152-.761.607-1.219v-.457c-.455 0-.607-.154-.607-.301 0-.151.152-.458.152-.458 0-1.219-.305-9.904-.457-10.968-.458-1.067-.761-2.896-.912-4.12-.156-.912-1.066-2.284-1.223-3.195-.609-.459-.76-1.066-1.217-1.374-1.217-.761-.76-1.52-4.875-1.52-.763 0 .456.3-.304.3-.307 0-.307-.3-.459-.3-1.674 0-1.217-.156-2.589.455-.913.762-1.065.611-1.982 1.217-.152 1.065-.913 1.832-1.216 2.896 0 .459-.155.609-.307.912-.454 1.372-.152 2.29-.914 3.811-.15.612 0 1.982-.307 3.049v4.263c0 .157 0 .46-.152.612.152.303.152.609.152.764 0 .148-.152.302-.608.607-1.83.61-4.418.151-6.55.307-6.401-.156-16-.458-22.55-.458 0-.308.149-.611.149-.761 0-.914-.149-1.828-.299-2.594v-.15c0-.306.15-.151.15-.61 0-1.677.304-5.485.611-7.468 0-.454.149-1.219.149-1.984.154-.3.609-.451.919-.451.609-.153.758-.612 1.52-1.067l-.154-.151c0 .151-.148.151-.608.151-.149 0-.611-.151-.611-.305l-.912-1.217c.765-6.861 3.656-14.326 8.381-17.524 2.132-1.372 5.33-5.336 8.378-6.251v-.152c0-.149-.149-.149-.307-.149-.3 0-.3-.155-.3-.155.607-.153.912-.458 1.215-.611.765-.15 1.22-.15 1.524-.452 0 0 0 .15.154.15h.609c1.525-.611 4.875-1.068 6.858-1.217 3.81-.46 6.095-.918 10.207-1.066 3.202 0 6.553.148 9.905.754 2.897.312 6.245.768 9.139 1.379 1.072.452.916.758 1.827 1.218 3.505 1.372 5.03 4.724 7.317 7.01h.609v.153c0 .15 0 .15.459.15 1.066.608 2.438 1.373 3.198 2.286l.151.153c.919 1.828 1.218 3.351 2.286 4.725 1.066.763 1.219 1.373 1.984 2.286v.454c0 1.07 1.064 2.284 1.064 3.353 0 .458.156.914.156 1.372 0 .914-.156 1.673-.156 2.592 0 .61.156 1.22.156 1.828 0 .305.454 1.676.454 1.977v1.067c0 2.288 0 4.419-.304 6.556.304 0 .304.15.304.15h-.61c-.305 0-.305.153-.305.153v.149.156c.305 0 .305-.156.461-.156 0 .156.15.46.15.615 0 0 0 .151-.15.151l-.613.15v.153c.152 0 .152.154.457.154.156 0 .156-.154.306-.154.304 1.22.304 2.441.304 3.812v7.765c0 1.528 0 3.048.151 4.726 0 .609.158 1.525.158 2.287 0 1.366-.158 2.589-.158 4.114 0 .913.158 1.825.61 2.894 0 1.368-.452 2.435-.61 3.809 0 2.892.158 5.943.158 8.836.452 0 .452 0 .452.155 0 0 0 .152-.452.152h-.158c.158.301.158.758.158 1.067 0 .154.452.302.452.455 0 .151.149.151.149.301 0 .156-.149.459-.149.611v.918c0 2.129-.452 4.416-.452 6.4 0 .608.452 1.218.602 1.824 0 .611.154 1.374.154 1.981 0 1.676-.608 3.657-1.369 4.877-1.072.763 1.826 1.371 1.215 2.134m75.57-20.11s-.455.303-.608.612c0 .154-.155.606-.155.756-2.283 7.469-2.592 14.02-13.1 19.05-5.639 3.2-13.1 3.965-19.502 3.965-2.589 0-6.398 0-8.685-.306-5.18-.459-11.58-1.829-15.54-4.267-7.462-4.874-10.819-10.359-12.798-17.214 0-.46-.306-1.826-.306-2.289-.15-1.218-.302-3.044-.302-4.262 0-.61-.304-1.068-.304-1.529 0-.451 0 .461-.159 0v-.912c0-.306-.15-.455-.15-.608 0-.15 0-.15-1.673-2.44l1.823-.76-.454.151v-5.331c0-1.372.304-2.591-.149-3.811v-12.797c0-6.096.149-14.322 1.218-20.264 1.213-9.143 6.244-20.721 19.65-24.23 7.01-1.829 13.1-1.527 18.899-1.527l5.177.459c5.18 0 9.75 1.522 13.864 3.198 3.963 1.676 5.183 4.117 7.618 6.402.305.303.915.915 1.068 1.218 2.285 3.96 2.744 5.488 3.505 7.465h-.159l.771 1.07c.455 1.064.91 2.283 1.365 3.5.154 1.069.307 7.01.307 8.992.458 4.877.609 10.06.609 14.781v12.646c0 1.066-.151 2.438-.151 3.657 0 5.941-.458 9.598-1.675 14.625m-28.24-16.62c0-.767-.159-1.375-.159-2.137.159-3.501.159-8.381.159-12.04l-1.069-25.14c0-.914-.916-2.283-1.831-3.044-.149-.155-1.068-.155-1.671-.459h.301c-.301-.15-.455-.15-.455-.15h-.612c-.913.3-1.216.3-2.134.3l-.302.309-.46.15c-1.061.611-1.678 2.132-1.825 3.962-1.524 7.161-1.524 14.776-1.524 21.33 0 1.675 0 5.03-.154 7.01v8.07c0 7.165.154 13.11 1.217 20.876.159 2.588 1.83 3.657 4.269 3.657h.305c.608 0 1.068-.149 1.374-.303 1.215-.308 2.282-1.526 2.736-2.439h-.15c1.376-5.185 1.985-8.841 1.985-13.41v-6.547zm93.32-51.35c0 .191-.29.492-.435.616.409.02.139.457.435.755v7.162c-.304.15-.455 1.07-1.068.76-1.065-.76-1.827-.91-1.369 0 .304.46-.306.762-.458.762-1.065 0-2.741-.762-3.507-.302-1.22.302-2.435 0-3.501.302-5.572.813-17.436.419-24.37-.22.326.634.419 1.312.419 1.896.611 6.706.793 19.859 2.776 21.383.306-.92 1.793.099 2.405-.661 1.521-1.674 4.72-1.371 7.162-.61 0-.453.763-.303.763-.303 2.74-.15 5.636-.15 8.227.303 2.132.154 4.266-.453 6.4-.303.604.303.917.762 1.067.913 1.367-1.063 4.111-1.371 4.571 0 1.675 3.81.76 15.235.76 19.2 0 .61-.459 1.065-1.066 1.065-1.367-.305-2.898 0-4.265-.305-.764-.15-1.829.305-2.597.305-.297 0-.297-.455-.604-.455-1.832 0-3.963.455-5.334-.762-1.83 1.828-4.267 0-6.244 0-.915 0-5.336.762-6.401.457-1.83-.305-1.524 1.371-3.051-.457-.451-.307-.76.762-1.37.912-.758 0-1.367 0-1.826.61-.458.762 0 1.524 0 2.133 0 .15-.458.302-.458.459v-.917c-.151.151-.608.151-.608.458 0 .607-.307 1.065-.457 1.525-.307 1.369.457 2.133.761 3.507 0 0-1.068 2.129-1.068 2.584.764 4.727 5.539 9.763 6.817 9.341 1.68-.612 7.77 0 9.449-.308.298 0 .452-.759.754-.759 2.442.302 4.578.455 7.01.302.155-.302.76.765 1.221.765.61 0 .61-1.067.913-1.067 2.133 0 4.262 0 6.403.455 3.346.918.146 12.494 2.128 15.08 0 0-.302 1.22-.612 1.982 0 1.217.31 2.438-1.066 3.352-.45 0-.45-.61-.757-.61-.612 0-1.374.305-1.524 0-5.872-.188-5.183-.304-5.485-.304-1.525.914-3.356 0-5.03.609-.453.305-1.673.305-2.133-.305 0 .61-.452.305-.758.61-1.376.304-9.148-.305-10.363 0h-8.226c-.249-.247-.591-.496-.875-.746-.47.039-.954.121-1.37.396-.458 0-1.373-.302-1.526 0-1.522.459-4.869.611-8.384.611 0 0-.15.154-.3.154l-.309-.154c-.596 0-1.188-.011-1.786-.021-.654.035-1.309.064-2.02.064-1.074 0-2.863.309-3.585-.929h-1.073c-2.508-.928-2.146-3.871-2.508-6.04.362-1.702.717-3.405.717-4.955v-1.859c0-2.629.359-5.107.359-7.74v-1.237c0-.773.179-1.238.179-2.01 0-1.393-.179-2.934-.179-4.333 0-1.24-.359-2.633-.359-4.02 0-.619.184-1.24.359-2.01v-.309c0-.778-.175-1.398-.175-2.01 0-.461 0-.775.354-.775.179 0 .179-.153.179-.153-.179-.15-.358-.463-.358-.772v-.468c.179-1.855.179-3.865.179-5.879 0-1.858 0-3.87-.179-5.724 0-.159-.175-.467-.175-.624 0-.464.175-.774.175-1.24 0-.307 0-.926-.359-.926v-.774c0-1.55-.355-2.941-.355-4.337 0-.773.176-1.698.176-2.316 0-1.089-.358-2.01-.358-2.948 0-.773.537-1.548.537-2.47 0-.933-.355-2.02-.355-2.79 0-5.262-.362-10.838-.542-15.79h.18c-.18-3.561-.36-7.12-.36-10.371 0-.463.18-.929.18-1.396 0-.617-.18-1.077-.718-1.547 0-.311.356-.769.356-1.083-.536-.465-1.072-1.086-1.611-1.544h3.765c.896-.156 1.79-.47 2.508-.628h.361c.357 0 .717.158.897.158.128 0 .281 0 .425-.002v-.381c1.142.06 2.513.047 3.973.005.598-.158 1.132-.376 1.512-.706h.178c.16 0 .062.477.415.58v.061c2.474-.09 5.04-.196 7.174-.131h.148c1.529.152 2.897.304 3.811.461.062 0 .145-.033.228-.06.033-.032.081-.07.105-.097.048-.008.109-.008.161-.022.266-.13.547-.282.726-.282.061.047.1.113.151.171 2.535-.124 6.575.844 8.565-.476.45-.152 1.516 1.068 2.283.766 1.98-.461 8.07-.461 9.903-.157h1.369c.309 0 .309.609.914.459.148 0 .148-.459.462-.459 1.521-.761 3.499.157 4.72-.761.302-.301.917.457 1.371.761 1.984.157 4.571-1.062 5.03.915.912 1.981.304 4.266.304 6.251 0 .91.302 1.828 0 2.741"/></clipPath><clipPath id="1"><path d="m226.26 551.25l-4.66-124.29 240.31-1.98-2.79 137.12-232.86-10.85"/></clipPath><linearGradient id="2" gradientUnits="userSpaceOnUse" x2="0"><stop stop-color="#7fcc29"/><stop stop-color="#225e2d" offset="1"/></linearGradient><linearGradient id="3" gradientUnits="userSpaceOnUse" x2="0"><stop stop-color="#c8c7c7"/><stop stop-color="#fff" offset=".5"/><stop stop-color="#c8c7c7" offset="1"/></linearGradient></defs><g transform="matrix(1.83749 0 0 1.83749-494.72-608.12)"><path d="m292.2 533.5c11.295-2.587 26.361-1.024 38.768-2.879 1.451-.145-.334 1.184 2.955.769 12-2.135 31.07-1.899 45.834-1.207l-.875.367c2.81.128 6.189-1.101 9.16-1.067.039.215-.935.347-.234.62.719-.686 5.351-.515 6.594-1.056 1.189.209 1.089.732 2.618.966l1.671-.824c4.651-1.972 11.481-.326 17.881-1.513-.295.19-.928.349-.411.504 10.306-1.503 23.254-1.815 34.82-2.668-.452.28-.861.784-.173 1.053.535-.813 4.11-1.16 7.204-1.43 1.425.759 5.28-.96 8.941-.655l-.3.19c2.654-.954 4.01.332 6.146-.77l1.73.571c1.136-1.197 3.913.442 6.108-.23l-.074-.235c2.085-.365 3.194.169 5.129-.097l.192.122c4.534-.486 7.209.056 7.06-.836 1.62.644-4.4.495-1.851 1.436 14.936-1.509 30.374-1.944 45.44-2.556 1.729.288 2.825.357 3.224.679 1.486-.232 5.654-.391 7.01-.903-.504.035.987.421 1.785.431 2.759.23 2.957-1.102 5.986-.819-1.19.29-1.589.595-1.17.911 2.54-.805 5.977-.83 9-1.175-.469.169-1.194.29-1.069.563 3.283-.928 6.06-.077 8.952-.689l-1.075.559c4.707.445 1.339-1.134 5.408-.928-.969.204-.619.393-.785.609 3.74-1.087 9.862-1.024 13.625-1.486-.222.071-.16.214-.16.214 2.717 1.355.467-6.883.447-10.154.116-1.652 1.295.454.815-3.874-1.028.233-.929-7.336-1.929-4.701-.084-3.715-.094-9.605-.615-12.04.511 1.632 1.146-1.896 1.449 1.179l.465-2.374c.454.315.014 2.408.506 1.635-.143-1.551-.865-6.02-.786-7.411-.835-2.81-2.2-5.355-2.649-9.98.556 2.15 1.058-1.322 1.337.15l-2.423-6.33c-.155-1.539.8-.39.37-2.596-.264.136-.503-.824-.761-1.49.072-.582-.697-6.386.278-7.126.351-.704.383 2.498.63.766-.204-2.851-.56-2.944-.769-5.793l.131-.06c.026-1.892-.821-5.515-1.237-3.434.055 1.314.582-.534.416 1.423-.685-1.288-1.074-4.58-1.279-7.428.232.961.494.825.81 1.196-1.061-3.771-1.59-7.806-2.216-12.05-.495-.034.991 1.53.773 2.176.303-5.526-1.724-11.241-1.043-15.865.138.746-.665.452-.528.391-.12-2.639.587-2.571.211-4.27.398-.194-.28-2.147-.531-3.909-.354-.891.18-.478.324 1.061-.519-2.434-1.82-12.259-1.606-17.994-.266.129-1.241-3.43-1.299-4.739l.678.469c.295-1.219-.359-4.385.175-4.639-.962-2.743 1.393 10.719.533 6.98.469-1.016-1.375-5.197-.446-4.439-.201-2.635-1.092-5.131-.668-7.688-.055.739 1.029 2.075.839-.044-.366-3.728-.372-1.044-.798-4.058l-.384-1.882c-.64-.086-.149-3.35-.747-1.91.482-.499-.685-5.415.37-5.099l.846.462c-.169-1.614-1.034-2.586-1.476-3.834.06-.216.192-.652.327-.582-1.256-.173-.155-3.865-1.251-5.716.202-3.421-.544-8.619.119-10.27-.548-2.577-1.16-4.928-1.099-7.915.16.582.249 1.392.53 1.545.122-.951.089-1.527-.009-2.085l-.04-.21-.011-.051-.005-.027-.002-.016-.004-.004v-.002c1.33 1.13-2.977-2.526 2.985 2.531h-.005l-.102.027-.436.118-1.071.267c.366-.224-3.791-.368-5.901-.605-2.551.618-1.595 1.201-1.815 1.636-2.485-.998-7.219 1.494-10.281.669.876-.256 3.707-.966 1.533-1.067-2.482-.991-4.679 1.366-8.54 1.144l1.033.928c-1.751-.466-5.548 1.13-5.259.053-1.239.494-4.52.103-4 1.054-6.341-.236-15.16 1.969-19.18.569-.883.25-3.131.298-2.626.766 1.539.409 2.04-.596 2.638-.275-.805.109-.955.396-1.029.541-1.964-.038-3.5.035-1.744-.962-4.383-.201-4.3 2.116-9.839 2.256.21-.434-.225-.548-1.829-.326l-2.989.996c-3.574.181-2.113-.734-2.27-1.421-1.889.303-4.219.494-5.03 1.095l-2.39-.652c1.745.469-1.527.567-2.404.829l.876-.261c-.381-.255-2.561.135-3.66.331.301.404 2.564.363 3.801.371-.945.396-2.467.475-3.712.957.359-.724-3.151-.188-4.67-.111-1.746.024-1.894.801-2.405.824-.076-.351-2.835.216-1.531-.41.576-.168 1.382.215 2.332-.19-1.173-.152-1.099-.783-3.426-.108-1.755.51.59 1.305-2.841 1.202.873-.257 1.012-.544 1.678-.856l-3.214-.049-.069.632c-.446-.118-.155-.194-.36-.261-.879.749-4.831.673-5.474 1.473-1.601.221-3.419-.105-4.949-.026l.279-.084c-1.901-.183-4.356.295-5.892.868l.072-.141c-1.024.046-3.428.38-4.673.866-2.624-.216-1.095-2.26-3.869-1.201-2.621.274-3.999 1.531-2.902 1.825-4.749.038-9.989 1.569-14.444 1.022-.649.32-.21.436-1.59.717-6.931.423-14.514 2.144-20.13 1.454 1.983-.455.074-.635-.005-.984-1.595.716-2.038-.387-2.536.624.22.545.074.836 2.044.875-4.091.7-10.354 1.303-12.691 1 1.166.151.3.405-.587.663.214-.923-2.845-.765-5.11-.23l-.267.576-1.549-.416c-.868.261-.864 1.243-3.199.934-.136-.199-.29-.397-.725-.512-2.336.676-5.615 1.752-8.24 1.546l-2.195-.594c-1.089.192-2.902.853-.94.894-4.446-.056-7.291.158-8.756-.396-7.421 2.411-18.426 3.543-27.26 4.272l.219-.434c-2.402-.15-1.156.832-2.839.714.729-.465-1.89-.673-.075-1.335-3.426-.099-4.296 1.131-6.484 1.531-.281.567 1.738-.512 1.379.207-.355.226-4.728.035-5.178.895-.88-.233-.274-.895.149-1.269l-2.033.596c-2.62-.705 5.609-2.254 2.836-3.163l-1.901.31c-1.9-.671 4.961-1.45.145-1.274-2.045.603-3.707 1.949-1.821 2.126-4.303.642-1.816 2.129-6.478 2.506-1.315-.348 3.719-.47 2.755-1.05-2.252-.441-4.366.786-6.337.748 2.195.098.446 1.096-.94 1.381-2.405-.156 1.462-.92-1.894-.676-.511.52-3.559 1.168-.863 1.236-1.105 1.176-3.515.043-5.261 1.041-1.168-.641 3.284-2.063-.434-2.081.652.669-4.45 1.418-2.397 2.3-1.469-.064-1.676-.619-.664-1.16-2.108-.245-4.876 1.793-5.692.433l-.641.803c-.666-.178-1.608-.265-2.7-.563-1.824.164-5.764 1.563-5.7.433-.574.173-4.726.522-3.05 1.137 2.624.221 2.909-.848 4.445.055-1.902-.67-3.704.47-5.174.896l-.283-.406c-.871.255-2.925.356-3.435.874.655-.313.277-.571-.445-.603l-.865.74c-3.576.679-.957-1.065-4.449-.536l2.613-.767c-.572.168-1.825-.325-3.485.039l-.533.522-.31.267-.163.135v.004c-.92 1.022 8-8.916 4.223-4.71v.005l.014.015.014.019.035.044.054.084c.319.46.623.904.855 1.184.29 1.983-.663.901-.025 2.845l-.751-2.554c-.199-.384-.971 1.74-.925 4.391.23 1.696 1.129 4.32 1.42 1.637.03 1.339-.313 3.207-.762 2.147.239 3.02.64-.4 1.041 2.202-.385 1.065-.914 4.386-1.469 6.397l-1.039-2.71v1.809c-.824-2.332-.595 1.192-1.456-.114-.12 1.236.186 2.724.42 3.913 1.314-3.624 1.904 4.02 3.129 2.962.396 4.935-2.971 3.119-.976 8.256.311-.851 1.281 1.574.894-1.538-.104 3.077 1.262 2.076.79 5.706-.538-2.681-1.216 2.895-2-.973.416.256.288-2.168.163-2.765-.456 1.275-1.25-.249-1.207 2.902.14 1.916.188 4.549.836 4.161.707-.089-.115-2.933.614-1.709.3 3.825-.772 4.47.5 6.04-.127-2.414.595-3.02 1.086-2.985l.327 2.808-.479-.543c-.285 4.51.868 1.319.799 5.689l-.909 2.06c-.814-1.031.279-6.355-1.01-5.565-.021 2.841.65 3.774.345 6.456l-.279-1.994c-.036 1.014-1.75 2.05-.688 6.087.414 2.082.466.539.955.591.202 4.554.717 5.904.824 8.842-.96-.596-.024 5.186-1.04 1.956.541-1.496.405-8.08-.519-9.69-1.11 1.669.114-3.584-1.04-4.55.02 3.663-1.098 3.498-1.813 4.094-.041 1.01.275 1.996.396 2.594.692.423.665-.9 1.37-.984-.14 4.075.293 7.996.985 10.234-.322 1.368-1.012.95-1.092-.66.257 4.842.225 10.03.074 14.642 1.082-2.994.324 5.135 1.228 3.092.225-2.47.995-4.604 1.51-3.25-.054 1.544-.485-.04-.72.606.637 1.956-.941 3.066.045 4.988-.418-4.431-1.373-.854-2.261-1.65.531 3.188-.621-.136-.585 3.03.524 3.18.956 7.087 1.184 10.625-.774 4.457.124 11.262.202 15.235-.42 2.082-1.423.688-1.571 2.942.053 2.641 1.043-1.973.641 1.947l-.201-.373c.244 1.18-.589 7.188.849 8.331l-1.091-1.196c-.087.731.171 1.406.289 2.01-.351.027-.655.886-.901-.306-.709 2.431.183 5.081.241 7.705l.614-1.699c.555 4.499-.039 7.517.234 11.86l-.625-.118.4 2.58c-.605-.617-.964 1.756-.449 3.116l-1.603-6.709c.348-1.87.774 2.029 1.374.848.525-1 .309-5.03-.299-5.671-.051 1.544.089 1.624.329 2.813-.861.516-.856-1.826-1.445-2.978.041.803-.204 1.962.072 2.13-.445-1.58-.526-3.175-.582-5.819.358 1.784.525-.984.784-.31-.762-.201-1.03-2.723-.856-5.986.853-2.344-.636-6.127-.44-9.915.784 1.521 1.431 3.481 1.767 5.779.363-2.385-.054-2.646.308-5.03-.585-1.147-1.476-1.957-1.865-5.05l.567-.176c-.327-2.811-1.166-2.8-1.049-6.376.206-6.13.129-12.43.147-17.11l.564-.184c-1.249-2.582-.553-8.658-1.135-12.15.475-5.973-.696-12.94.248-16.01-.565-10.509-1.099-19.686-1.025-30.585l.853 1.815c-.63-1.939.457-1.269.315-3.178-.635 2.2-.89-2.646-1.413-3.991.584-4.855-.19-11.07-.82-15.37l.569-.166c-.56-2.171-.626-4.553-.531-7.07l.212-3.87.109-1.989.024-.504c4.889-5.39 1.644-1.505 2.87-2.714l1.01-.061c.641.178 1.666.613 3.266.395 2.831-1.199 4.371-1.279 8.601-2.266 3.13-.304 8.233-.564 11.446-.516 11.66-2.424 23.762-2.764 35.928-4.716l.946.577c11.734-2.57 26.45-2.689 36.521-4.395l-.871 1.229c3.209.046 7.206-.999 6.322-1.721 3.224.041 7.894-1.319 10.01-.579 3.27-.108 3.931-.915 6.62-1.324 6.559-.2 8.974-.534 15.09-1.339l-1.526.074c-.651.321-.661.805.876.731 2.256-.535 8.456-.509 6.05-1.644 6.627.147 15.231-2.113 21.716-1.676-.577-.316 1.025-.541 1.678-.858 5.751-.571 11.879-.402 16.406-1.476.94.096-1.396.771.952.586 1.371-.276-.012-.49 1.669-.863 9.256-1.587 18.948-1.11 27.41-2.109 15.01-2.171 30.758-3.322 45.19-4.839l-.134.285c4.73-1.507 11.441-.027 15.15-1.969 1.165.149 4.376-.298 3.579.31 3.786-1.109 10.85-.35 16.329-1.821-.514.024-.8.109-1.383.283 2.837.027 5.484-.284 8.16-.605l4.071-.449 2.115-.155.544-.024.133-.009c-.995-.844 8.71 7.385 4.597 3.904v.004.013.036.069l.007.275-.013 1.109-.255-1.087-.076-.26-.038-.119-.006-.015-.004-.007v-.002c-8.341-7.07-2.315-1.96-4.178-3.54l-.024.011-.05.025-.269.196.224.025.107.005h.029.015c1.731 1.469-3.883-3.286 3.88 3.291v.004.002.016l-.002.054v.46l.1.94.415 1.882c.27 1.216.431 2.314-.18 2.989.099 1.317.724.892.636.087.37 13.06 2.155 26.904 3.375 40.43-.125 9.762-2.174.741-.673 8.337-.217.642.536.42.269.545.57 2.936-1.161 4.715-.322 6.725.745-.901.54 1.342 1.038 1.37-.124 5.965-.771 7.211.161 11.854l-.444-.321c1.57 5.416 1.355 11.819 3.059 16.361 2.316 30.28 5.059 59.27 7.221 88.8l.169 2.727.084 1.37.016.344.016.17.002.087.007.04c-2.523 2.81 5.631-6.255-5.648 6.304h-.02l-.689.019-5.459.204-10.909.421-21.765.92c-14.522.609-29.1 1.156-43.966 1.384-7-.847-7.524-.794-15.15-.034.306-.196.784-.26.265-.409-.345.935-5.375.296-6.075 1.211-10.986.263-21.09.909-32.38 1.37 1.784-.17 2.649-.957.527-.814l-2.195.675-.37-.235c-1.449.188-3.01.701-1.502.935-28.349 1.916-56.33 1.194-84.11 2.521-6.62-.125-15.992.601-23.16 1.074-21.305-.378-40.5-.602-62.06 1.114 0 0 2.723-2.485 11.611-3.391" fill="#7fcc29"/><g clip-path="url(#1)" transform="matrix(1.25 0 0-1.25 0 1052.36)"><path d="m226.26 551.25l-4.66-124.29 240.31-1.98-2.79 137.12-232.86-10.85" fill="url(#2)"/></g><path d="m383.24 383.61c-.188-1.332-1.705-2.666-3.618-3.046-.946-.188-5.14-.188-6.288-.188-1.902-.384-4.374-.194-6.092-.384-2.47 0-12.38-.194-16.568 0h-2.666c-1.334 0-3.619.384-3.619.951 0 1.716-.381 3.814-.381 5.715 0 4.379.381 3.049.57 7.05v5.142c0 3.238.384 5.327.384 8.567-.192 0-.192 0-.192-.188v.381c0 .184-.191.374-.191.564 0 1.529.191 3.054.191 4.762 0 1.901-.191 3.62-.191 5.149v.756c0 .188-.189.188-.189.188v.767c0 1.142.189 2.285.189 3.431 0 .572 0 .945-.189 1.522-.381 1.709 0 3.616-.381 5.334-.194.183-.381.377-.381.76v.189c.188 0 .762 0 .762.189v.381l-.381.192.381 4.574c-.762 1.137.189 2.659.189 3.991v.385h-.189v1.524c0 .19 0 .571-.381 1.14.381 2.1.381.765.761 2.864-.191.185-.191.38-.191.566 0 .191.191.191.191.191 0 .571.192.956.761 1.521v.572c-.569 0-.761.195-.761.384 0 .185.192.569.192.569 0 1.522-.384 12.375-.572 13.71-.575 1.335-.952 3.623-1.142 5.15-.194 1.137-1.332 2.854-1.526 3.996-.765.571-.951 1.329-1.522 1.712-1.52.95-.95 1.901-6.095 1.901-.952 0 .571-.375-.377-.375-.384 0-.384.375-.575.375-2.091 0-1.52.195-3.235-.566-1.141-.956-1.332-.766-2.476-1.525-.19-1.332-1.144-2.288-1.522-3.618 0-.575-.192-.764-.385-1.14-.567-1.715-.19-2.86-1.141-4.767-.184-.761 0-2.479-.381-3.806v-5.33c0-.199 0-.576-.19-.765.19-.381.19-.765.19-.952 0-.19-.19-.38-.761-.761-2.288-.761-5.524-.188-8.189-.386-8 .199-20 .577-28.19.577 0 .38.186.757.186.951 0 1.137-.186 2.284-.374 3.238v.191c0 .377.188.188.188.76 0 2.091.381 6.855.764 9.336 0 .566.185 1.522.185 2.479.191.376.761.565 1.149.565.761.191.95.764 1.902 1.332l-.194.19c0-.19-.185-.19-.759-.19-.189 0-.764.19-.764.382l-1.144 1.52c.957 8.577 4.571 17.905 10.48 21.908 2.664 1.715 6.661 6.669 10.469 7.813v.189c0 .189-.186.189-.381.189-.376 0-.376.189-.376.189.757.192 1.14.576 1.519.764.955.194 1.525.194 1.906.57 0 0 0-.189.191-.189h.762c1.905.765 6.095 1.336 8.571 1.521 4.762.57 7.62 1.149 12.76 1.332 4 0 8.19-.184 12.379-.947 3.624-.385 7.81-.955 11.426-1.717 1.336-.57 1.141-.95 2.285-1.522 4.377-1.716 6.29-5.909 9.145-8.764h.759v-.189c0-.188 0-.188.574-.188 1.334-.762 3.051-1.715 4-2.859l.188-.194c1.147-2.284 1.521-4.183 2.858-5.9 1.331-.956 1.522-1.719 2.48-2.86v-.567c0-1.336 1.327-2.855 1.327-4.191 0-.574.2-1.144.2-1.717 0-1.141-.2-2.087-.2-3.236 0-.761.2-1.526.2-2.288 0-.38.56-2.092.56-2.47v-1.336c0-2.859 0-5.521-.373-8.191.373 0 .373-.19.373-.19h-.76c-.379 0-.379-.189-.379-.189v-.188-.196c.379 0 .379.196.579.196 0-.196.188-.579.188-.769l-.188-.188-.77-.191v-.194c.191 0 .191-.185.57-.185.2 0 .2.185.387.185.373-1.522.373-3.044.373-4.76v-9.707c0-1.909 0-3.81.196-5.908 0-.757.195-1.906.195-2.856 0-1.715-.195-3.238-.195-5.141 0-1.144.195-2.284.761-3.621 0-1.707-.566-3.043-.761-4.759 0-3.619.195-7.43.195-11.05.566 0 .566 0 .566-.195 0 0 0-.189-.566-.189h-.195c.195-.377.195-.947.195-1.335 0-.19.566-.374.566-.567 0-.188.188-.188.188-.38 0-.191-.188-.574-.188-.76v-1.146c0-2.665-.566-5.522-.566-8 0-.759.566-1.521.754-2.281 0-.762.194-1.716.194-2.476 0-2.094-.761-4.571-1.711-6.094-1.341-.951 2.281-1.714 1.517-2.668m94.46 25.14s-.569-.377-.762-.765c0-.19-.192-.755-.192-.947-2.855-9.334-3.235-17.521-16.374-23.806-7.06-3.999-16.384-4.955-24.381-4.955-3.239 0-8 0-10.856.38-6.476.576-14.472 2.288-19.426 5.337-9.329 6.092-13.526 12.948-15.999 21.518 0 .576-.38 2.284-.38 2.861-.19 1.521-.379 3.806-.379 5.327 0 .761-.384 1.335-.384 1.909 0 .566 0-.574-.195 0v1.142c0 .38-.188.569-.188.757 0 .19 0 .19-2.096 3.051l2.284.95-.569-.188v6.664c0 1.715.381 3.236-.186 4.764v15.995c0 7.619.186 17.905 1.522 25.33 1.519 11.43 7.806 25.901 24.558 30.29 8.767 2.285 16.388 1.909 23.628 1.909l6.471-.575c6.479 0 12.191-1.901 17.329-3.998 4.957-2.094 6.484-5.146 9.525-8 .384-.379 1.15-1.144 1.335-1.525 2.856-4.949 3.433-6.856 4.38-9.327h-.192l.96-1.336c.569-1.332 1.14-2.855 1.705-4.379.191-1.335.384-8.757.384-11.241.571-6.091.762-12.568.762-18.475v-15.805c0-1.336-.191-3.05-.191-4.575 0-7.423-.571-11.994-2.091-18.279m-35.23 20.755c0 .957-.197 1.717-.197 2.669.197 4.379.197 10.48.197 15.05l-1.336 31.428c0 1.141-1.147 2.855-2.29 3.806-.188.192-1.335.192-2.091.575h.377c-.377.185-.567.185-.567.185h-.762c-1.14-.375-1.524-.375-2.666-.375l-.382-.385-.572-.191c-1.326-.76-2.094-2.664-2.277-4.952-1.913-8.944-1.913-18.468-1.913-26.66 0-2.099 0-6.285-.191-8.761v-10.09c0-8.954.191-16.379 1.526-26.09.192-3.239 2.284-4.574 5.336-4.574h.376c.764 0 1.339.189 1.716.38 1.522.382 2.854 1.909 3.423 3.05h-.189c1.721 6.479 2.484 11.05 2.484 16.761v8.183zm116.65 64.19c0-.239-.369-.611-.549-.767.516-.026.174-.571.549-.944v-8.951c-.384-.19-.575-1.34-1.337-.952-1.331.952-2.286 1.137-1.715 0 .384-.574-.379-.954-.571-.954-1.329 0-3.424.954-4.378.38-1.528-.38-3.049 0-4.38-.38-6.965-1.014-21.79-.525-30.46.275.404-.791.523-1.636.523-2.37.764-8.384.99-24.821 3.465-26.728.384 1.147 2.25-.124 3.01.827 1.906 2.09 5.901 1.711 8.955.759 0 .571.95.377.95.377 3.425.194 7.05.194 10.286-.377 2.665-.19 5.326.571 8 .377.751-.377 1.143-.949 1.33-1.136 1.711 1.33 5.144 1.711 5.712 0 2.099-4.765.951-19.05.951-23.999 0-.762-.576-1.334-1.329-1.334-1.715.379-3.624 0-5.335.379-.955.192-2.285-.379-3.244-.379-.372 0-.372.571-.76.571-2.285 0-4.947-.571-6.661.949-2.289-2.288-5.332 0-7.809 0-1.143 0-6.665-.949-8-.572-2.285.386-1.903-1.715-3.808.572-.572.385-.956-.949-1.714-1.141-.95 0-1.714 0-2.285-.759-.572-.956 0-1.908 0-2.665 0-.191-.572-.384-.572-.577v1.15c-.191-.194-.761-.194-.761-.572 0-.762-.381-1.334-.572-1.909-.384-1.714.572-2.666.954-4.384 0 0-1.337-2.661-1.337-3.233.956-5.906 6.928-12.204 8.523-11.672 2.1.761 9.714 0 11.809.382.378 0 .572.951.949.951 3.049-.381 5.715-.572 8.765-.381.188.381.949-.952 1.523-.952.763 0 .763 1.334 1.144 1.334 2.666 0 5.327 0 7.999-.572 4.19-1.144.189-15.615 2.664-18.852 0 0-.381-1.526-.763-2.476 0-1.522.381-3.048-1.332-4.192-.569 0-.569.762-.95.762-.763 0-1.715-.38-1.909 0-7.331.239-6.471.382-6.852.382-1.903-1.145-4.191 0-6.29-.762-.566-.382-2.09-.382-2.666.38 0-.762-.565-.38-.942-.762-1.725-.379-11.436.382-12.96 0h-10.281c-.308.313-.736.625-1.091.935-.589-.05-1.189-.151-1.711-.496-.571 0-1.719.38-1.909 0-1.901-.576-6.09-.764-10.479-.764 0 0-.188-.192-.376-.192l-.385.192c-.744 0-1.49.014-2.231.026-.817-.045-1.641-.08-2.527-.08-1.348 0-3.577-.386-4.478 1.161h-1.346c-3.135 1.163-2.679 4.842-3.135 7.546.456 2.126.896 4.255.896 6.195v2.321c0 3.288.449 6.382.449 9.674v1.548c0 .969.221 1.549.221 2.516 0 1.743-.221 3.67-.221 5.418 0 1.549-.449 3.293-.449 5.03 0 .774.231 1.549.449 2.516v.385c0 .974-.217 1.746-.217 2.517 0 .584 0 .969.439.969.231 0 .231.194.231.194-.231.19-.452.579-.452.966v.584c.221 2.321.221 4.83.221 7.349 0 2.321 0 4.834-.221 7.158 0 .196-.217.581-.217.777 0 .58.217.965.217 1.549 0 .384 0 1.156-.449 1.156v.969c0 1.938-.44 3.68-.44 5.421 0 .966.217 2.126.217 2.895 0 1.36-.447 2.52-.447 3.684 0 .969.67 1.934.67 3.09 0 1.168-.44 2.521-.44 3.486 0 6.577-.456 13.548-.679 19.738h.223c-.223 4.449-.451 8.9-.451 12.964 0 .581.229 1.163.229 1.746 0 .77-.229 1.344-.896 1.933 0 .386.445.962.445 1.356-.675.579-1.342 1.354-2.02 1.928h4.706c1.119.199 2.236.589 3.137.786h.445c.447 0 .897-.197 1.124-.197.161 0 .349 0 .531.005v.473c1.425-.074 3.14-.056 4.966-.005.744.196 1.415.471 1.887.882h.224c.197 0 .075-.596.522-.726v-.076c3.09.114 6.298.246 8.962.166h.188c1.91-.19 3.622-.384 4.763-.576.076 0 .183.038.285.074.048.041.104.086.134.119.06.011.14.011.202.027.332.166.681.356.906.356.074-.059.128-.142.19-.212 3.166.154 8.215-1.06 10.702.59.564.194 1.896-1.33 2.854-.954 2.477.576 10.09.576 12.379.192h1.71c.39 0 .39-.762 1.144-.569.19 0 .19.569.577.569 1.903.955 4.379-.192 5.904.955.379.376 1.146-.571 1.709-.955 2.481-.192 5.715 1.331 6.288-1.142 1.145-2.475.384-5.33.384-7.813 0-1.137.376-2.285 0-3.428" fill="#225e2d"/><g fill="#fff"><path d="m562.92 495.08v4.694l3-.002v-3.919c0-.365.085-.637.242-.816.165-.175.378-.271.655-.271.279 0 .487.096.649.271.165.185.245.451.245.809v3.926h3.872c.494 0 .852.111 1.099.329.235.223.359.505.359.854 0 .353-.124.642-.362.861-.242.22-.607.334-1.092.334l-9.05.002c-.342 0-.622-.045-.837-.144-.219-.109-.372-.265-.471-.481-.099-.22-.153-.491-.153-.83v-5.616c0-.379.087-.66.251-.844.17-.183.39-.279.65-.279.29 0 .509.096.684.279.168.184.253.465.253.844"/><path d="m571.06 488.21l-7.48 1.89 8.11-.004c.441 0 .789.101 1.016.299.221.199.336.469.336.8 0 .319-.115.582-.33.786-.23.202-.56.308-1.023.308l-9.298.002c-.521 0-.865-.132-1.045-.402-.175-.269-.27-.629-.27-1.082v-.736c0-.442.046-.766.119-.964.086-.204.225-.353.436-.45.209-.098.548-.202 1.02-.325l6.436-1.715-6.436-1.709c-.472-.121-.811-.228-1.02-.321-.211-.099-.35-.252-.436-.447-.072-.2-.119-.521-.122-.97l.004-.738c-.004-.452.087-.816.266-1.082.174-.264.524-.401 1.041-.401l9.303-.007c.442 0 .785.103 1.013.306.225.196.336.466.336.801 0 .313-.111.579-.336.777-.227.206-.569.308-1.013.308l-8.115.005 7.487 1.884c.49.125.84.224 1.071.294.226.086.436.22.621.433.192.215.284.491.284.869 0 .276-.054.51-.18.702-.125.195-.276.34-.46.447-.192.113-.393.197-.629.26-.227.058-.45.123-.707.184"/></g><g clip-path="url(#0)" transform="matrix(1.25 0 0-1.25 0 1052.36)"><path d="m305.26 536.33c-.15 1.065-1.365 2.131-2.894 2.437-.756.15-4.112.15-5.03.15-1.52.307-3.499.154-4.875.307-1.976 0-9.905.153-13.254 0h-2.132c-1.066 0-2.895-.307-2.895-.763 0-1.37-.304-3.049-.304-4.568 0-3.507.304-2.44.456-5.641v-4.113c0-2.589.305-4.266.305-6.855-.152 0-.152 0-.152.151v-.304c0-.148-.153-.302-.153-.454 0-1.222.153-2.442.153-3.809 0-1.521-.153-2.897-.153-4.118v-.606c0-.15-.152-.15-.152-.15v-.613c0-.917.152-1.83.152-2.745 0-.458 0-.758-.152-1.217-.304-1.371 0-2.893-.304-4.267-.154-.151-.306-.306-.306-.608v-.153c.152 0 .61 0 .61-.153v-.303l-.304-.156.304-3.655c-.61-.912.152-2.132.152-3.197v-.308h-.152v-1.219c0-.148 0-.456-.304-.912.304-1.676.304-.61.609-2.288-.153-.151-.153-.307-.153-.453 0-.156.153-.156.153-.156 0-.459.152-.761.607-1.219v-.457c-.455 0-.607-.154-.607-.301 0-.151.152-.458.152-.458 0-1.219-.305-9.904-.457-10.968-.458-1.067-.761-2.896-.912-4.12-.156-.912-1.066-2.284-1.223-3.195-.609-.459-.76-1.066-1.217-1.374-1.217-.761-.76-1.52-4.875-1.52-.763 0 .456.3-.304.3-.307 0-.307-.3-.459-.3-1.674 0-1.217-.156-2.589.455-.913.762-1.065.611-1.982 1.217-.152 1.065-.913 1.832-1.216 2.896 0 .459-.155.609-.307.912-.454 1.372-.152 2.29-.914 3.811-.15.612 0 1.982-.307 3.049v4.263c0 .157 0 .46-.152.612.152.303.152.609.152.764 0 .148-.152.302-.608.607-1.83.61-4.418.151-6.55.307-6.401-.156-16-.458-22.55-.458 0-.308.149-.611.149-.761 0-.914-.149-1.828-.299-2.594v-.15c0-.306.15-.151.15-.61 0-1.677.304-5.485.611-7.468 0-.454.149-1.219.149-1.984.154-.3.609-.451.919-.451.609-.153.758-.612 1.52-1.067l-.154-.151c0 .151-.148.151-.608.151-.149 0-.611-.151-.611-.305l-.912-1.217c.765-6.861 3.656-14.326 8.381-17.524 2.132-1.372 5.33-5.336 8.378-6.251v-.152c0-.149-.149-.149-.307-.149-.3 0-.3-.155-.3-.155.607-.153.912-.458 1.215-.611.765-.15 1.22-.15 1.524-.452 0 0 0 .15.154.15h.609c1.525-.611 4.875-1.068 6.858-1.217 3.81-.46 6.095-.918 10.207-1.066 3.202 0 6.553.148 9.905.754 2.897.312 6.245.768 9.139 1.379 1.072.452.916.758 1.827 1.218 3.505 1.372 5.03 4.724 7.317 7.01h.609v.153c0 .15 0 .15.459.15 1.066.608 2.438 1.373 3.198 2.286l.151.153c.919 1.828 1.218 3.351 2.286 4.725 1.066.763 1.219 1.373 1.984 2.286v.454c0 1.07 1.064 2.284 1.064 3.353 0 .458.156.914.156 1.372 0 .914-.156 1.673-.156 2.592 0 .61.156 1.22.156 1.828 0 .305.454 1.676.454 1.977v1.067c0 2.288 0 4.419-.304 6.556.304 0 .304.15.304.15h-.61c-.305 0-.305.153-.305.153v.149.156c.305 0 .305-.156.461-.156 0 .156.15.46.15.615 0 0 0 .151-.15.151l-.613.15v.153c.152 0 .152.154.457.154.156 0 .156-.154.306-.154.304 1.22.304 2.441.304 3.812v7.765c0 1.528 0 3.048.151 4.726 0 .609.158 1.525.158 2.287 0 1.366-.158 2.589-.158 4.114 0 .913.158 1.825.61 2.894 0 1.368-.452 2.435-.61 3.809 0 2.892.158 5.943.158 8.836.452 0 .452 0 .452.155 0 0 0 .152-.452.152h-.158c.158.301.158.758.158 1.067 0 .154.452.302.452.455 0 .151.149.151.149.301 0 .156-.149.459-.149.611v.918c0 2.129-.452 4.416-.452 6.4 0 .608.452 1.218.602 1.824 0 .611.154 1.374.154 1.981 0 1.676-.608 3.657-1.369 4.877-1.072.763 1.826 1.371 1.215 2.134m75.57-20.11s-.455.303-.608.612c0 .154-.155.606-.155.756-2.283 7.469-2.592 14.02-13.1 19.05-5.639 3.2-13.1 3.965-19.502 3.965-2.589 0-6.398 0-8.685-.306-5.18-.459-11.58-1.829-15.54-4.267-7.462-4.874-10.819-10.359-12.798-17.214 0-.46-.306-1.826-.306-2.289-.15-1.218-.302-3.044-.302-4.262 0-.61-.304-1.068-.304-1.529 0-.451 0 .461-.159 0v-.912c0-.306-.15-.455-.15-.608 0-.15 0-.15-1.673-2.44l1.823-.76-.454.151v-5.331c0-1.372.304-2.591-.149-3.811v-12.797c0-6.096.149-14.322 1.218-20.264 1.213-9.143 6.244-20.721 19.65-24.23 7.01-1.829 13.1-1.527 18.899-1.527l5.177.459c5.18 0 9.75 1.522 13.864 3.198 3.963 1.676 5.183 4.117 7.618 6.402.305.303.915.915 1.068 1.218 2.285 3.96 2.744 5.488 3.505 7.465h-.159l.771 1.07c.455 1.064.91 2.283 1.365 3.5.154 1.069.307 7.01.307 8.992.458 4.877.609 10.06.609 14.781v12.646c0 1.066-.151 2.438-.151 3.657 0 5.941-.458 9.598-1.675 14.625m-28.24-16.62c0-.767-.159-1.375-.159-2.137.159-3.501.159-8.381.159-12.04l-1.069-25.14c0-.914-.916-2.283-1.831-3.044-.149-.155-1.068-.155-1.671-.459h.301c-.301-.15-.455-.15-.455-.15h-.612c-.913.3-1.216.3-2.134.3l-.302.309-.46.15c-1.061.611-1.678 2.132-1.825 3.962-1.524 7.161-1.524 14.776-1.524 21.33 0 1.675 0 5.03-.154 7.01v8.07c0 7.165.154 13.11 1.217 20.876.159 2.588 1.83 3.657 4.269 3.657h.305c.608 0 1.068-.149 1.374-.303 1.215-.308 2.282-1.526 2.736-2.439h-.15c1.376-5.185 1.985-8.841 1.985-13.41v-6.547zm93.32-51.35c0 .191-.29.492-.435.616.409.02.139.457.435.755v7.162c-.304.15-.455 1.07-1.068.76-1.065-.76-1.827-.91-1.369 0 .304.46-.306.762-.458.762-1.065 0-2.741-.762-3.507-.302-1.22.302-2.435 0-3.501.302-5.572.813-17.436.419-24.37-.22.326.634.419 1.312.419 1.896.611 6.706.793 19.859 2.776 21.383.306-.92 1.793.099 2.405-.661 1.521-1.674 4.72-1.371 7.162-.61 0-.453.763-.303.763-.303 2.74-.15 5.636-.15 8.227.303 2.132.154 4.266-.453 6.4-.303.604.303.917.762 1.067.913 1.367-1.063 4.111-1.371 4.571 0 1.675 3.81.76 15.235.76 19.2 0 .61-.459 1.065-1.066 1.065-1.367-.305-2.898 0-4.265-.305-.764-.15-1.829.305-2.597.305-.297 0-.297-.455-.604-.455-1.832 0-3.963.455-5.334-.762-1.83 1.828-4.267 0-6.244 0-.915 0-5.336.762-6.401.457-1.83-.305-1.524 1.371-3.051-.457-.451-.307-.76.762-1.37.912-.758 0-1.367 0-1.826.61-.458.762 0 1.524 0 2.133 0 .15-.458.302-.458.459v-.917c-.151.151-.608.151-.608.458 0 .607-.307 1.065-.457 1.525-.307 1.369.457 2.133.761 3.507 0 0-1.068 2.129-1.068 2.584.764 4.727 5.539 9.763 6.817 9.341 1.68-.612 7.77 0 9.449-.308.298 0 .452-.759.754-.759 2.442.302 4.578.455 7.01.302.155-.302.76.765 1.221.765.61 0 .61-1.067.913-1.067 2.133 0 4.262 0 6.403.455 3.346.918.146 12.494 2.128 15.08 0 0-.302 1.22-.612 1.982 0 1.217.31 2.438-1.066 3.352-.45 0-.45-.61-.757-.61-.612 0-1.374.305-1.524 0-5.872-.188-5.183-.304-5.485-.304-1.525.914-3.356 0-5.03.609-.453.305-1.673.305-2.133-.305 0 .61-.452.305-.758.61-1.376.304-9.148-.305-10.363 0h-8.226c-.249-.247-.591-.496-.875-.746-.47.039-.954.121-1.37.396-.458 0-1.373-.302-1.526 0-1.522.459-4.869.611-8.384.611 0 0-.15.154-.3.154l-.309-.154c-.596 0-1.188-.011-1.786-.021-.654.035-1.309.064-2.02.064-1.074 0-2.863.309-3.585-.929h-1.073c-2.508-.928-2.146-3.871-2.508-6.04.362-1.702.717-3.405.717-4.955v-1.859c0-2.629.359-5.107.359-7.74v-1.237c0-.773.179-1.238.179-2.01 0-1.393-.179-2.934-.179-4.333 0-1.24-.359-2.633-.359-4.02 0-.619.184-1.24.359-2.01v-.309c0-.778-.175-1.398-.175-2.01 0-.461 0-.775.354-.775.179 0 .179-.153.179-.153-.179-.15-.358-.463-.358-.772v-.468c.179-1.855.179-3.865.179-5.879 0-1.858 0-3.87-.179-5.724 0-.159-.175-.467-.175-.624 0-.464.175-.774.175-1.24 0-.307 0-.926-.359-.926v-.774c0-1.55-.355-2.941-.355-4.337 0-.773.176-1.698.176-2.316 0-1.089-.358-2.01-.358-2.948 0-.773.537-1.548.537-2.47 0-.933-.355-2.02-.355-2.79 0-5.262-.362-10.838-.542-15.79h.18c-.18-3.561-.36-7.12-.36-10.371 0-.463.18-.929.18-1.396 0-.617-.18-1.077-.718-1.547 0-.311.356-.769.356-1.083-.536-.465-1.072-1.086-1.611-1.544h3.765c.896-.156 1.79-.47 2.508-.628h.361c.357 0 .717.158.897.158.128 0 .281 0 .425-.002v-.381c1.142.06 2.513.047 3.973.005.598-.158 1.132-.376 1.512-.706h.178c.16 0 .062.477.415.58v.061c2.474-.09 5.04-.196 7.174-.131h.148c1.529.152 2.897.304 3.811.461.062 0 .145-.033.228-.06.033-.032.081-.07.105-.097.048-.008.109-.008.161-.022.266-.13.547-.282.726-.282.061.047.1.113.151.171 2.535-.124 6.575.844 8.565-.476.45-.152 1.516 1.068 2.283.766 1.98-.461 8.07-.461 9.903-.157h1.369c.309 0 .309.609.914.459.148 0 .148-.459.462-.459 1.521-.761 3.499.157 4.72-.761.302-.301.917.457 1.371.761 1.984.157 4.571-1.062 5.03.915.912 1.981.304 4.266.304 6.251 0 .91.302 1.828 0 2.741" fill="url(#3)"/></g></g></svg>