<svg xmlns="http://www.w3.org/2000/svg" viewBox="0 0 600 371.7"><g fill="#fff" transform="scale(1.25148)"><path d="m68.04 70.1h-33.34c-3.397 0-5.799 3.057-5.799 6.454v149.11c0 10.919-.024 10.749-8.03 18.757 0 0-.024.024-.024.024l-18.829 18.83c-2.523 2.548-2.766 6.915-.243 9.439l22.518 22.518c2.548 2.524 6.891 2.305 9.415-.243 0 0 17.13-17.11 27.25-27.23 12.326-12.326 12.86-21.79 12.86-40.546v-150.66c0-3.397-2.378-6.454-5.775-6.454"/><path d="m304.45 55.9l22.299-22.275c2.524-2.548 2.524-6.673 0-9.196l-22.51-22.518c-2.548-2.548-6.673-2.548-9.196 0l-22.299 22.275c-2.524 2.523-2.742 6.891-.218 9.439l22.518 22.518c2.524 2.523 6.891 2.281 9.415-.243"/><path d="m315.34 70.1h-31.3c-3.761 0-6.818 3.057-6.818 6.794v152.79c0 3.737 3.057 7.134 6.818 7.134h31.3c3.737 0 6.794-3.397 6.794-7.134v-152.79c0-3.737-3.057-6.794-6.794-6.794"/><path d="m472.64 236.82h-118.41c-7.498 0-13.612-6.139-13.612-13.612v-18.781c0-3.761 1.092-7.279 4.416-10.895l83.28-83.83c.51-.51.267-1.577-.728-1.577h-80.971c-3.397 0-6.115-2.038-6.115-5.435l.121-25.793c0-3.737 3.057-6.794 6.818-6.794h118.41c7.474 0 13.588 6.454 13.588 13.952l-.121 20.09c0 2.839-.024 8.01-3.955 11.962 0 0-79.22 79.52-80.63 80.995-.728.752-.146 1.698.607 1.698h77.986c3.397 0 6.115 2.038 6.115 5.435v25.769c0 3.761-3.057 6.818-6.794 6.818"/><path d="m220.86 153.46c0 25.04-20.285 45.33-45.33 45.33s-45.33-20.285-45.33-45.33 20.285-45.33 45.33-45.33 45.33 20.285 45.33 45.33m-130.06 0c0 46.782 37.95 84.73 84.73 84.73s84.73-37.95 84.73-84.73-37.95-84.73-84.73-84.73c-46.806 0-84.73 37.95-84.73 84.73"/></g></svg>