<?xml version="1.0" encoding="UTF-8" standalone="no"?>
<svg xmlns:rdf="http://www.w3.org/1999/02/22-rdf-syntax-ns#" xmlns="http://www.w3.org/2000/svg" enable-background="new 0 50 150 40" xml:space="preserve" viewBox="0 50 600 97.757843" height="97.758" width="600" version="1.1" y="0px" x="0px" xmlns:cc="http://creativecommons.org/ns#" xmlns:dc="http://purl.org/dc/elements/1.1/"><g stroke-width="4.4843" fill="#909094"><path d="m134.98 50.448c21.07 0 34.08 10.314 38.56 23.319 1.8 4.933 0.45 7.175-4.48 8.968l-11.21 3.588c-4.94 1.794-7.18 0.897-9.42-4.484-2.24-5.83-7.17-8.969-14.35-8.969-9.42 0-14.35 4.484-14.35 13.453v24.667c0 8.52 4.93 13.45 14.35 13.45 7.18 0 12.11-3.59 14.35-8.97 1.79-4.93 4.04-5.83 9.42-4.04l11.66 3.59c4.93 1.8 6.72 4.04 4.48 9.42-6.28 14.8-18.83 23.32-40.81 23.32-28.25 0-40.355-13.9-40.355-37.67v-22.422c0-22.87 13.005-37.22 42.155-37.22z"/><path d="m204.93 59.417v78.923c0 4.93-1.79 6.73-6.28 6.73h-13.9c-4.93 0-6.72-1.8-6.72-6.73v-78.923c0-4.933 1.79-6.726 6.72-6.726h13.9c4.49 0.448 6.28 1.793 6.28 6.726z"/><path d="m253.36 50.448c26.01 0 38.12 13.453 38.12 36.323v51.569c0 4.93-1.79 6.73-6.28 6.73h-13.9c-4.93 0-6.73-1.8-6.73-6.73v-50.672c0-8.968-4.93-13.453-15.24-13.453-4.94 0-8.52 0.449-12.11 1.794 0 0-0.45 0.448-0.45 0.897v61.434c0 4.93-1.79 6.73-6.73 6.73h-13.45c-4.93 0-6.72-1.8-6.72-6.73v-71.3c0-5.829 1.34-8.071 7.17-10.314 7.62-3.139 18.83-6.278 36.32-6.278z"/><path d="m339.01 50.448c29.15 0 42.6 17.041 42.6 37.22v10.762c0 5.38-2.24 8.97-8.96 8.97h-49.33v4.48c0 9.42 5.83 13.9 15.69 13.9 8.52 0 13.46-2.69 17.04-7.17 3.14-4.04 4.94-4.93 10.32-2.24l8.52 4.48c4.93 2.24 5.83 5.83 2.69 10.32-6.73 10.31-18.84 16.59-39.01 16.59-30.5 0-42.16-17.04-42.16-39.46v-18.838c0.45-25.112 15.25-39.014 42.6-39.014zm0 21.077c-10.31 0-15.69 4.932-15.69 13.453v2.69h31.39v-2.69c0-8.521-5.38-13.453-15.7-13.453z"/><path d="m478.92 50.448c25.12 0 36.33 13.453 36.33 36.323v51.569c0 4.93-1.8 6.73-6.73 6.73h-13.45c-4.94 0-6.73-1.8-6.73-6.73v-50.672c0-8.52-4.48-13.004-13.45-13.004-4.04 0-8.52 0.897-12.11 1.793 0.9 3.139 0.9 6.727 0.9 10.763v51.12c0 4.93-1.8 6.73-6.73 6.73h-13.45c-4.93 0-6.73-1.8-6.73-6.73v-50.672c0-8.52-4.48-13.004-13.45-13.004-3.59 0-6.73 0.448-10.32 1.345-0.44 0-0.89 0.448-0.89 0.897v61.434c0 4.93-1.8 6.73-6.73 6.73h-13.45c-4.93 0-6.73-1.8-6.73-6.73v-71.748c0-5.83 1.35-8.072 7.18-10.314 7.17-3.139 17.49-6.278 34.53-6.278 8.96 0 16.14 1.794 21.52 4.933 8.07-2.242 17.04-4.485 30.49-4.485z"/><path d="m560.54 50.448c29.59 0 39.46 15.695 39.46 37.22v44.842c0 6.28-1.35 8.07-6.73 10.32-6.72 3.13-18.38 4.93-33.18 4.93-32.29 0-40.36-10.32-40.36-29.15 0-21.973 12.11-29.148 41.26-29.148 4.48 0 9.86 0 12.55 0.448v-4.036c0-8.52-4.03-13.004-13.45-13.004-7.18 0-11.66 2.242-14.8 6.726-2.69 4.036-4.03 4.933-8.97 2.691l-9.86-4.036c-4.49-1.794-5.83-4.484-3.59-9.417 6.28-11.659 18.39-18.386 37.67-18.386zm-2.24 59.192c-10.32 0-12.11 3.59-12.11 8.52s1.79 8.52 12.11 8.52c7.17 0 11.66-0.45 13.9-0.9 0.89 0 1.34-0.44 1.34-1.34v-14.8c-3.58 0.45-10.31 0-15.24 0z"/></g><path d="m68.161 127.13c-7.174 7.17-20.179 14.8-38.565 13.45-11.21-1.34-21.524-7.17-27.354-16.59-0.4483-0.9-0.8967-1.34-1.3451-2.24 4.9327 15.25 18.386 23.77 39.462 23.77 26.457 0 41.255-14.35 41.255-37.67v-4.94c-0.897 3.14-1.793 6.28-3.139 9.87-2.242 4.93-5.829 9.87-10.314 14.35z" stroke-width="4.4843" fill="#ea2832"/><path d="m30.493 57.623c0.449 0 0.897-0.448 1.346-0.448 0.448 0 0.896-0.449 0.896-0.449 5.83-2.242 25.561-4.932 13.453 0-10.762 2.243-17.488 5.83-26.905 15.247-6.279 6.278-18.835 25.112-8.521 44.397 5.83 9.86 17.489 15.69 30.045 13.45 8.52-1.34 17.041-5.83 22.87-13 5.83-7.63 9.866-18.838 5.381-27.807-3.587-6.726-10.762-10.313-17.937-9.865-7.623 0.448-12.108 2.242-17.489 8.969-11.21 13.903-4.484 25.113 5.381 26.453 5.83 0.45 13.453-1.34 18.835-11.21 0.896-1.79 2.69-2.24 2.242 1.35-1.794 6.28-5.381 10.31-10.763 13.45-7.175 4.04-16.143 3.14-21.973-0.45-5.829-3.58-9.417-8.97-9.417-16.14-0.448-9.866 4.036-19.731 13.005-26.458 7.175-5.829 14.798-8.52 23.318-8.52 10.314 0 21.076 4.484 26.009 15.247 0.897 1.793 1.794 4.035 2.242 6.278-0.897-22.422-15.246-35.875-41.255-35.875-26.458 0-40.808 13.901-41.256 36.771 0.89686-2.242 1.7937-4.932 3.139-7.174 5.8296-11.211 15.695-20.18 27.354-24.216z" stroke-width="4.4843" fill="#ea2832"/></svg>
