<svg xmlns="http://www.w3.org/2000/svg" height="444.58" width="600" viewBox="0 0 158.75 117.62884"><g transform="translate(-30.24-62.05)"><path d="m30.29 179.68h117.1v-10.01c0-.17.03-.31.03-.49v-100.53c0 0 .34-6.601-7.27-6.601h-99.87-.108-9.881v9.178c-.02.287-.056.559-.056.866" fill="#fff"/><g fill="#212121"><path d="m140.15 118.51s2.64 0 2.64-1.99v-48.31s0-1.984-2.64-1.984h-12.12s-2.64 0-2.64 1.984v35.25s0 1.98-2.64 1.98h-12.12s-2.64 0-2.64-1.98v-35.25s0-1.984-2.64-1.984h-12.12s-2.64 0-2.64 1.984v48.31s0 1.99 2.64 1.99z"/><path d="m84.49 118.51s2.639 0 2.639-1.99v-48.31s0-1.984-2.639-1.984h-12.12s-2.639 0-2.639 1.984v35.25s0 1.98-2.64 1.98h-12.12s-2.639 0-2.639-1.98v-9.105s0-1.983-2.639-1.983h-12.12s-2.64 0-2.64 1.983v22.17s0 1.99 2.64 1.99z"/></g><path d="m140.15 134.49s2.64 0 2.64-2.01v-9.19s0-2-2.64-2h-46.923s-2.64 0-2.64 2v9.19s0 2.01 2.64 2.01z" fill="#94bd3d"/><path d="m140.15 174.09s2.64 0 2.64-2v-9.2s0-2-2.64-2h-46.923s-2.64 0-2.64 2v9.2s0 2 2.64 2z" fill="#1cb5ca"/><path d="m140.15 154.29s2.64 0 2.64-2v-9.2s0-2-2.64-2h-46.923s-2.64 0-2.64 2v9.2s0 2 2.64 2z" fill="#ba213d"/><path d="m52.33 136.49s0-2 2.644-2h29.519s2.639 0 2.639-2.01v-9.19s0-2-2.639-2h-46.922s-2.64 0-2.64 2v48.8s0 2 2.64 2h46.922s2.639 0 2.639-2v-9.2s0-2-2.639-2h-29.519s-2.644 0-2.644-2z" fill="#212121"/><path d="m175.91 86.16h5.77l7.31-20.04h-6.64l-3.5 11.172-3.5-11.172h-6.74zm-19.03-.144h6.02v-14.267h5.3v-5.632h-16.62v5.632h5.3z" fill="#fff"/></g></svg>