<svg xmlns="http://www.w3.org/2000/svg" height="692.83" width="600" viewBox="0 0 158.75 183.31177"><g transform="translate(-54.43-27.87)"><path d="m133.8 68.45v51.09l27.93-16.12-.05-23.261 17.16 9.788.04 6.501-45.38 69.832-21.56-45.82zm-44.27 104.35l.015-35.47 18.596 45.99s25.65 15.51 25.77 15.45l68.56-39.59v-25.37l-31.21 18.82 31.17-44.91.04-27.03-68.67-39.09-22.04 12.289-22.246 47.595c-.076-18.366-.167-22.73-.167-34.685-10.682 6.076-24 13.212-24 13.212l.015 79.05z" fill="#f7ec29"/><g fill="#2a2d7d"><path d="m202.47 133.81v25.37l-68.55 39.58c-.14.09-25.79-15.44-25.79-15.44l-18.563-45.99-.016 35.46-24.2-13.73-.015-79.05s13.319-7.137 24-13.228c0 11.97.106 16.349.182 34.709l22.23-47.588 22.05-12.304 68.67 39.11-.05 27.03-31.15 44.89zm-68.67-105.94l-79.37 45.836v91.65l79.15 45.82 79.6-45.82v-91.65z"/><path d="m161.68 80.15l.05 23.26-27.93 16.12v-51.09l-21.86 52.03 21.56 45.82 45.38-69.851-.05-6.501z"/></g></g></svg>