<svg xmlns="http://www.w3.org/2000/svg" viewBox="0 0 600 77.75"><g transform="matrix(.78001 0 0 .78001 188.18-281.7)"><path d="m491.62 460.84c-14.88 0-26.16-3.166-35.798-12.935l12.393-12.393c6.196 6.196 14.586 8.254 23.677 8.254 11.284 0 17.345-4.274 17.345-12.12 0-3.437-.95-6.332-3.03-8.254-1.922-1.786-4.116-2.759-8.661-3.437l-11.85-1.652c-8.39-1.245-14.586-3.867-18.996-8.141-4.681-4.681-7.03-11.01-7.03-19.267 0-17.481 12.958-29.738 34.15-29.738 13.501 0 23.293 3.302 31.682 11.42l-12.12 11.986c-6.196-5.925-13.636-6.762-20.1-6.762-10.176 0-15.15 5.654-15.15 12.393 0 2.488.838 5.111 2.895 7.03 1.922 1.787 5.111 3.302 9.09 3.844l11.578 1.673c8.933 1.221 14.586 3.709 18.725 7.553 5.224 4.975 7.553 12.12 7.553 20.805 0 18.996-15.83 29.738-36.34 29.738m-79.01 0c-10.448 0-19.267-3.573-26.436-10.742-4.251-4.274-6.875-9.227-7.983-14.722-1.085-5.518-1.65-13.636-1.65-24.378 0-10.742.564-18.86 1.65-24.378 1.109-5.654 3.731-10.47 7.983-14.722 7.169-7.169 15.988-10.742 26.436-10.742 18.883 0 32.791 11.01 36.09 30.981h-19.426c-2.058-8.412-7.282-13.908-16.508-13.908-5.247 0-9.385 1.652-12.257 5.088-4 4.274-4.817 8.684-4.817 27.68 0 18.996.814 23.406 4.817 27.68 2.872 3.437 7.01 5.088 12.257 5.088 9.227 0 14.45-5.518 16.508-13.908h19.426c-3.302 19.968-17.345 30.981-36.09 30.981m-52.28-.836h-19.14v-98.04h19.14v98.04m-69.29.836c-14.88 0-26.16-3.166-35.798-12.935l12.393-12.393c6.196 6.196 14.586 8.254 23.677 8.254 11.284 0 17.345-4.274 17.345-12.12 0-3.437-.95-6.332-3.03-8.254-1.922-1.786-4.116-2.759-8.661-3.437l-11.85-1.652c-8.39-1.245-14.586-3.867-18.996-8.141-4.681-4.681-7.03-11.01-7.03-19.267 0-17.481 12.958-29.738 34.15-29.738 13.501 0 23.27 3.302 31.682 11.42l-12.12 11.986c-6.196-5.925-13.636-6.762-20.1-6.762-10.199 0-15.15 5.654-15.15 12.393 0 2.488.838 5.111 2.895 7.03 1.922 1.787 5.088 3.302 9.09 3.844l11.556 1.673c8.955 1.221 14.609 3.709 18.725 7.553 5.247 4.975 7.576 12.12 7.576 20.805 0 18.996-15.83 29.738-36.34 29.738m-80.03 0c-14.88 0-26.16-3.166-35.821-12.935l12.415-12.393c6.196 6.196 14.586 8.254 23.677 8.254 11.284 0 17.345-4.274 17.345-12.12 0-3.437-.973-6.332-3.03-8.254-1.922-1.786-4.138-2.759-8.684-3.437l-11.827-1.652c-8.412-1.245-14.609-3.867-19.02-8.141-4.681-4.681-7.01-11.01-7.01-19.267 0-17.481 12.935-29.738 34.15-29.738 13.501 0 23.27 3.302 31.66 11.42l-12.1 11.986c-6.196-5.925-13.636-6.762-20.1-6.762-10.199 0-15.15 5.654-15.15 12.393 0 2.488.814 5.111 2.895 7.03 1.922 1.787 5.088 3.302 9.09 3.844l11.556 1.673c8.955 1.221 14.609 3.709 18.725 7.553 5.246 4.975 7.576 12.12 7.576 20.805 0 18.996-15.83 29.738-36.34 29.738m-83.921-69.945l-12.393 35.663h24.355l-11.963-35.663m22.863 69.11l-5.789-17.345h-34.848l-5.925 17.345h-19.946l35.663-98.03h14.993l35.798 98.03h-19.946m-138.01 0v-98.03h19.15v80.959h44.48v17.07h-63.64m-49.28.836c-10.47 0-19.29-3.573-26.436-10.742-4.274-4.274-6.897-9.227-7.983-14.722-1.109-5.518-1.652-13.636-1.652-24.378 0-10.742.543-18.86 1.652-24.378 1.085-5.654 3.709-10.47 7.983-14.722 7.146-7.169 15.966-10.742 26.436-10.742 18.86 0 32.768 11.01 36.07 30.981h-19.403c-2.081-8.412-7.304-13.908-16.531-13.908-5.224 0-9.362 1.652-12.257 5.088-4 4.274-4.817 8.684-4.817 27.68 0 18.996.814 23.406 4.817 27.68 2.895 3.437 7.03 5.088 12.257 5.088 9.227 0 14.45-5.518 16.531-13.908h19.403c-3.302 19.968-17.345 30.981-36.07 30.981" fill="#231f20"/><g transform="matrix(.20512 0 0 .20512-241.26 361.21)"><g fill="#e75411"><path d="m16.59 0h691.75c9.53 3.36 15.79 12.65 16.66 22.54v380.01h-725v-265.13-114.86c.93-9.88 7.09-19.12 16.59-22.56"/><path d="m0 285.33l54 200.36h-36.2c-10.76-1.66-17.06-13.12-17.8-23.21z"/></g><path d="m454.12 42.05c40.12-6.73 80.15-14.55 119.25-25.9 7.72 19.1 14.84 38.47 20.17 58.38 5.39 19.8 9.27 40.06 10.77 60.53 3.88 76.69-20.66 154.6-68.51 214.75-22.7 28.64-50.44 53.29-81.61 72.37-46.37 28.55-100.09 44.55-154.37 47.63-23.85 1.77-47.96.53-71.37-4.51-31.86-6.64-62.37-18.73-91.24-33.6-10.11-5.32-20.34-10.56-29.62-17.28-28.41-19.63-54.91-42.65-75.25-70.74-12.48-16.96-22.31-35.67-30.74-54.92-.51-1.15-1.07-2.29-1.6-3.43v-147.91c1 21.65 2.47 43.36 6.67 64.67 6.67 35.09 19.77 69.73 42.77 97.47 21.33 26.17 51 44.72 82.91 55.2 34.81 11.91 72.7 15.07 108.9 8.26 29.67-5.79 58.15-18.37 81.68-37.44 31.33-25.11 53.44-61.07 63.15-99.91l-86.84 16.983c.93-28.88 1.867-58.53 2.137-87.43 32.54-7.23 64.4-20.92 89.15-43.68 18.74-17.03 32.53-40.08 35.9-65.41 9.21-1.47 18.49-2.51 27.69-4.08" fill="#fff"/><g fill="#b40b1f"><path d="m593.54 74.53l131.46 328.02v60.92c-1.08 10.46-8.52 21.92-19.97 22.22h-651.12l-53.91-200.36c8.43 19.25 19.86 41.39 32.34 58.35 20.34 28.09 46.84 51.11 75.25 70.74 9.28 6.72 19.51 11.96 29.62 17.28 28.87 14.87 59.38 26.96 91.24 33.6 23.41 5.04 47.52 6.28 71.37 4.51 54.28-3.08 108-19.08 154.37-47.63 31.17-19.08 58.91-43.73 81.61-72.37 47.85-60.15 72.39-138.06 68.51-214.75-1.5-20.47-5.38-40.73-10.77-60.53"/><path d="m386.08 225.67c-9.71 38.84-31.82 74.8-63.15 99.91l-23.687-82.927z"/></g></g></g></svg>