<?xml version="1.0" encoding="UTF-8" standalone="no"?>
<!-- Created with Inkscape (http://www.inkscape.org/) -->

<svg
   xmlns:dc="http://purl.org/dc/elements/1.1/"
   xmlns:cc="http://creativecommons.org/ns#"
   xmlns:rdf="http://www.w3.org/1999/02/22-rdf-syntax-ns#"
   xmlns:svg="http://www.w3.org/2000/svg"
   xmlns="http://www.w3.org/2000/svg"
   version="1.1"
   width="600.00018"
   height="201.646"
   id="svg2">
  <defs
     id="defs4" />
  <metadata
     id="metadata7">
    <rdf:RDF>
      <cc:Work
         rdf:about="">
        <dc:format>image/svg+xml</dc:format>
        <dc:type
           rdf:resource="http://purl.org/dc/dcmitype/StillImage" />
        <dc:title></dc:title>
      </cc:Work>
    </rdf:RDF>
  </metadata>
  <g
     transform="translate(-1344.5113,-398.53918)"
     id="layer1">
    <g
       transform="matrix(0.18242506,0,0,0.18242506,1344.5113,408.266)"
       id="g3027">
      <g
         transform="matrix(2.2758621,0,0,2.2758621,0,-53.319549)"
         id="g3026">
        <g
           id="g3037">
          <g
             id="#cf6728ff">
            <path
               d="m 16.59,0 691.75,0 c 9.53,3.36 15.79,12.65 16.66,22.54 l 0,380.0096 -725,0 L 0,137.42 0,22.56 C 0.93,12.68 7.09,3.44 16.59,0 z"
               id="path3030"
               style="fill:#e75411;fill-opacity:1" />
            <path
               d="m 0,285.3296 54,200.36 -36.2,0 C 7.04,484.0296 0.74,472.57 0,462.48 z"
               id="path3032"
               style="fill:#e75411;fill-opacity:1" />
          </g>
          <g
             id="#ffffffff">
            <path
               d="m 454.12,42.05 c 40.12,-6.73 80.15,-14.55 119.25,-25.9 7.72,19.1 14.84,38.47 20.17,58.38 5.39,19.8 9.27,40.06 10.77,60.53 3.88,76.69 -20.66,154.6 -68.51,214.75 -22.7,28.64 -50.44,53.29 -81.61,72.37 -46.37,28.55 -100.09,44.55 -154.37,47.63 -23.85,1.77 -47.96,0.53 -71.37,-4.51 -31.86,-6.64 -62.37,-18.73 -91.24,-33.6 C 127.1,426.38 116.87,421.14 107.59,414.42 79.18,394.79 52.68,371.77 32.34,343.68 19.86,326.72 10.03,308.01 1.6,288.76 1.09,287.61 0.53,286.47 0,285.33 L 0,137.42 c 1,21.65 2.47,43.36 6.67,64.67 6.67,35.09 19.77,69.73 42.77,97.47 21.33,26.17 51,44.72 82.91,55.2 34.81,11.91 72.7,15.07 108.9,8.26 29.67,-5.79 58.15,-18.37 81.68,-37.44 31.33,-25.11 53.44,-61.07 63.15,-99.91 l -86.8368,16.9828 c 0.93,-28.88001 1.8668,-58.5328 2.1368,-87.4328 32.54,-7.23 64.4,-20.92 89.15,-43.68 18.74,-17.03 32.53,-40.08 35.9,-65.41 9.21,-1.47 18.49,-2.51 27.69,-4.08 z"
               id="path3053"
               style="fill:#ffffff" />
          </g>
          <g
             id="#9f1a1bff">
            <path
               d="M 593.54,74.53 725,402.55 l 0,60.92 c -1.08,10.46 -8.52,21.92 -19.97,22.22 L 53.91,485.6896 0,285.3296 c 8.43,19.25 19.86,41.3904 32.34,58.3504 20.34,28.09 46.84,51.11 75.25,70.74 9.28,6.72 19.51,11.96 29.62,17.28 28.87,14.87 59.38,26.96 91.24,33.6 23.41,5.04 47.52,6.28 71.37,4.51 54.28,-3.08 108,-19.08 154.37,-47.63 31.17,-19.08 58.91,-43.73 81.61,-72.37 47.85,-60.15 72.39,-138.06 68.51,-214.75 -1.5,-20.47 -5.38,-40.73 -10.77,-60.53 z"
               id="path3056"
               style="fill:#b40b1f;fill-opacity:1" />
            <path
               d="m 386.08,225.67 c -9.71,38.84 -31.82,74.8 -63.15,99.91 l -23.6868,-82.9272 z"
               id="path3058"
               style="fill:#b40b1f;fill-opacity:1" />
          </g>
        </g>
      </g>
      <g
         transform="matrix(3.887758,0,0,3.8882164,337.76451,-1776.0972)"
         id="layer1-7"
         style="fill:#e75411;fill-opacity:1">
        <g
           transform="matrix(0.4394352,0,0,0.4394352,30.359396,664.40966)"
           id="g2903"
           style="fill:#e75411;fill-opacity:1">
          <path
             d="m 875.1927,-343.42811 0,326.4375 87.125,0 0,-140.78125 184.6563,0 0,140.78125 87.0938,0 0,-326.4375 -87.0938,0 0,123.0625 -184.6563,0 0,-123.0625 -87.125,0 z"
             id="rect2870"
             style="fill:#e75411;fill-opacity:1;stroke:none" />
          <path
             d="m 1296.5165,-343.44373 0,63.3125 78.5625,0 c 0,0 75.1602,0.0143 113.2188,0 22.1025,0.0143 49.0948,0.0143 64.7812,16.375 14.64,15.26936 16.4511,56.21425 16.2665,84.9375 -0.1939,30.16588 0.043,73.6702 -18.1415,88.999995 -14.022,11.82045 -40.6253,11.80777 -61.5,11.8125 -35.0915,0.008 -105.75,0 -105.75,0 l 0,-144.999995 -87.3438,0 0,206.031245 c 74.1239,-0.006 137.5161,-0.0127 198.9969,-0.006 34.8884,0.004 99.695,-1.51042 124.6281,-25.93115 33.9309,-33.23362 38.1682,-80.542705 38.1563,-137.281245 -0.012,-56.73855 1.3765,-101.66347 -52.6563,-143.40626 -25.6448,-19.81173 -85.2238,-19.81218 -115.6453,-19.81173 -51.5312,7.7e-4 -115.0109,-0.032 -115.0109,-0.032 l -78.5625,0 0,-5e-5 0,-3.1e-4 z"
             id="rect2878"
             style="fill:#e75411;fill-opacity:1;stroke:none" />
        </g>
      </g>
    </g>
  </g>
</svg>
