<svg xmlns="http://www.w3.org/2000/svg" viewBox="0 0 610.52502 267.64957" width="610.53"><g transform="translate(-.737.025)"><path d="m370.34 260.1c-.478-4.139-2.111-19.571-3.628-34.3s-3.052-27.06-3.41-27.421c-.358-.358-2.477.742-4.71 2.445-5.653 4.312-22.771 12.07-32.1 14.543-10.248 2.72-41.965 3.795-55.47 1.881-11.712-1.66-44.26-9.405-45.799-10.898-.621-.603.258-6.231 2.1-13.448 1.743-6.826 3.168-13.07 3.168-13.872 0-1.024-2.776-1.449-9.3-1.424l-9.3.036-27 22.879c-14.85 12.583-29.3 24.786-32.11 27.12l-5.11 4.238-5.49-4.277c-3.02-2.352-6.12-4.067-6.89-3.811-.77.256-7.34 1.829-14.6 3.494-30.431 6.98-70.932 16.423-72.66 16.942-1.528.457-2.903-4.04-7.629-24.948-3.171-14.03-7.04-30.906-8.592-37.506s-4.435-19.02-6.401-27.6-7.727-33.69-12.803-55.8c-5.086-22.11-9.669-42.35-10.196-44.995-.526-2.64-1.272-5.613-1.658-6.607-.572-1.474 7.207-3.886 42.22-13.09 23.604-6.204 43.536-11.502 44.29-11.775.855-.308 2.191 2.952 3.519 8.585 1.178 4.995 2.465 9.08 2.862 9.08.396 0 3.925-6.48 7.841-14.4s7.678-14.395 8.36-14.389c5.932.052 38.28 10.06 50.955 15.762 4.332 1.949 8.02 2.974 8.4 2.337.377-.624 4.465-7.369 9.08-14.99l8.4-13.855 46.5-.033 46.5-.033v21.14 21.14l3.3-.771c26.13-6.106 54.859-5.382 74.35 1.874 16.393 6.104 32.24 19.962 40.01 34.997 2.348 4.54 4.923 7.999 5.943 7.984 3.733-.056 48.04-5.606 48.5-6.074.261-.269 2.536-11.965 5.056-25.99l4.582-25.5h7.02c20.702 0 84.46 10.397 139.44 22.741 2.154.484 3.501 1.501 3.355 2.533-.135.949-3.78 17.757-8.1 37.35s-7.863 36.33-7.873 37.2c-.054 4.617-1.565 4.808-16.649 2.1-8.05-1.445-14.799-2.424-15-2.176-.204.248-4.465 21.16-9.47 46.47s-9.389 46.31-9.744 46.664c-.553.553-19.953-2.643-34.766-5.727l-4.649-.968.853 18.833.853 18.833-37 3.991c-20.352 2.195-49.15 5.282-64 6.859-14.85 1.577-28.684 3.155-30.742 3.507l-3.742.639-.869-7.525zm35.35-20.626c22.12-2.064 78.57-8.07 78.891-8.39.212-.212.013-7.812-.442-16.888l-.828-16.503-12.05.854c-6.626.47-18.261 1.577-25.857 2.46-7.596.883-14.239 1.34-14.763 1.016-.524-.324-.953-3.723-.953-7.554v-6.965l12.3-1.317c6.765-.725 17.233-1.673 23.262-2.108 6.03-.435 11.579-1.173 12.334-1.639.977-.604 1.137-4.705.557-14.256-.777-12.786-.937-13.408-3.466-13.408-3.797 0-38.83 3.517-43.549 4.372l-3.961.718.361-7.645.361-7.645 21-2.615c11.55-1.438 23.263-2.653 26.03-2.7s5.35-.604 5.742-1.239c.392-.635.338-9.08-.119-18.774l-.833-17.62-13.91.762c-12.415.68-34.691 3.278-58.01 6.765-7.283 1.089-13.957 2.371-22.386 4.3l-2.888.661.775 24.23c.426 13.326 1.333 30.44 2.01 38.03 2.316 25.804 6.06 61.795 6.578 63.28.308.879 1.875 1.267 3.864.957 1.84-.287 6.316-.799 9.946-1.138m-318.89-27.26c13.837-3.072 17.7-4.35 17.7-5.86 0-1.062-1.912-12.36-4.249-25.11s-4.092-23.626-3.9-24.18c.192-.549 2.787 1.276 5.768 4.054 15.703 14.637 43.937 39.23 44.981 39.18 1.576-.074 30.938-24.17 31.35-25.731.175-.66-5.188-5.25-11.916-10.2l-12.234-9 7.959-.352 7.959-.352 6.357-13.748 6.357-13.748h15.567 15.567l-.741 13.826-.741 13.826 22.457-.326 22.457-.326v-65.4-65.4h-29.365c-28.15 0-29.416.099-30.605 2.4-.682 1.32-3.619 6.72-6.526 12s-6.894 12.57-8.86 16.2c-1.966 3.63-4.781 8.76-6.256 11.4-1.475 2.64-5 9.12-7.843 14.4-8.767 16.307-11.976 22.257-20.708 38.4-4.641 8.58-9.09 16.836-9.89 18.347l-1.452 2.747-4.048-3.344c-2.226-1.839-5.398-4.571-7.05-6.071l-3-2.727 3.636-6.876c2-3.782 7.91-14.976 13.13-24.876 5.223-9.9 12.369-23.08 15.881-29.28 3.511-6.206 6.242-11.421 6.068-11.589-3.098-2.993-36.05-16.13-40.46-16.13-1.603 0-18.22 34.13-27.712 56.921l-6.463 15.524-5.068-25.12c-2.787-13.817-5.384-26.98-5.769-29.25-.386-2.272-.988-4.416-1.338-4.766-.35-.35-6.411.913-13.47 2.806-7.06 1.893-16.973 4.518-22.03 5.833-5.34 1.389-9.02 2.951-8.772 3.725.235.733 3.145 13.213 6.468 27.733 17.191 75.12 27.871 121.43 28.449 123.35.393 1.309 1.43 1.929 2.649 1.584 1.102-.312 9.968-2.335 19.703-4.496m114.93-122.54c.019-.825 3.427-7.835 7.574-15.578l7.539-14.08-.452 14.08c-.248 7.743-.67 14.753-.936 15.578-.31.961-2.871 1.5-7.122 1.5-4.529 0-6.627-.477-6.603-1.5m325.76 104.4c1.133-4.813 15.09-74.48 16.411-81.9.703-3.96 1.676-7.633 2.162-8.162.485-.529 7.526.153 15.645 1.515 8.119 1.363 15.04 2.202 15.375 1.865 1.124-1.124 8.335-38.41 7.571-39.15-2.21-2.138-72.28-13.13-95.02-14.916l-10.26-.803-3.4 18.422c-1.871 10.132-3.462 18.94-3.535 19.572-.073.633 4.727 1.809 10.667 2.615 5.94.805 13.03 1.796 15.759 2.202l4.959.738-1.061 4.448c-3.368 14.12-17.858 83.954-17.858 86.06 0 2.293 1.683 2.846 18.9 6.217 23.462 4.593 22.914 4.564 23.69 1.268zm-207.67-2.651c15.739-3.993 24.661-8.989 35.518-19.891 10.46-10.504 17.556-22.891 21.64-37.777 3.477-12.675 2.884-32.27-1.307-43.18-3.336-8.689-14.362-20.318-23.12-24.387-17.676-8.211-48.52-8.734-64.26-1.091-3.161 1.535-2.61-.172-17.526 54.28-7.145 26.08-16.4 59.54-17.423 62.992-1.93 6.506-1.658 6.953 5.056 8.325 26.69 5.453 42.09 5.636 61.42.733m-20.468-37.31c.965-2.514 8.04-26.429 12.11-40.919 3.399-12.11 3.595-12.424 7.831-12.424 9.678 0 13.812 5.107 13.642 16.854-.262 18.13-13.353 34.778-29.729 37.815-4.228.784-4.61.653-3.851-1.326" fill="#ca1214"/><g fill="#fff"><path d="m64.784 215.11c-.26-.68-4.586-19.12-9.613-40.97s-12.667-55.01-16.978-73.67c-4.311-18.668-7.954-34.624-8.096-35.46-.226-1.332 0-1.627 1.836-2.394 2.468-1.031 31.14-8.737 37.09-9.966 2.435-.504 4.308-.647 4.602-.352.273.273 3.1 13.496 6.281 29.385 3.181 15.888 5.904 29.01 6.05 29.16.148.148.496-.325.774-1.05 4.472-11.647 14.695-34.645 22.722-51.12 7.104-14.58 10.158-20.01 11.256-20.01 3.884 0 39.494 14.53 39.494 16.11 0 .267-3.574 6.994-7.942 14.949-4.368 7.955-13.07 24.15-19.339 35.986l-11.398 21.522 1.889 1.655c1.039.911 4.306 3.714 7.261 6.229l5.372 4.573 18.08-33.545c29.27-54.31 43.941-80.84 45.05-81.5.714-.423 9.91-.663 29.595-.775l28.558-.161v65.06 65.06l-22.11.406c-12.163.223-22.18.32-22.25.216-.075-.104.175-5.529.555-12.05.38-6.526.708-12.676.728-13.667l.038-1.802-15.828.146-15.828.146-6.32 13.658-6.32 13.658-3.927.072c-2.16.04-5.781.226-8.05.414l-4.119.342 9.09 6.713c4.997 3.692 10.452 7.951 12.12 9.465l3.035 2.752-1.656 1.767c-3.931 4.195-28.05 23.727-29.29 23.727-1.163 0-23.964-19.636-41.34-35.606-6.564-6.03-8.918-7.809-9.53-7.196-.358.358 1.186 9.958 6.218 38.663l1.838 10.485-1.121.969c-.617.533-2.396 1.34-3.953 1.792-4.29 1.247-31.733 7.447-32.962 7.447-.609 0-1.281-.54-1.549-1.243zm150.12-124.62c.969-.504 1.244-3.563 1.924-21.473.239-6.28.169-8.934-.226-8.554-1.419 1.368-15.01 27.836-15.01 29.23 0 .782.675 1.061 3.863 1.596 1.89.317 8.351-.229 9.447-.799"/><path d="m285.47 194.5c-9.446-.837-27.702-3.846-30.994-5.109-.809-.31-1.619-1.031-1.8-1.602-.181-.571.647-4.496 1.841-8.723s7.676-27.676 14.406-52.11c13.374-48.556 15.567-56.15 17.04-59.05.789-1.546 1.728-2.241 4.702-3.482 6.812-2.843 12.237-3.752 24.325-4.077 8.583-.231 12.402-.096 17.17.605 10.881 1.598 18.287 3.989 24.462 7.895 4.02 2.543 13.601 12.351 15.964 16.34 4.362 7.365 6.134 15.761 6.134 29.07 0 13.521-1.935 22.328-7.513 34.19-7.568 16.1-23.349 32.19-37.21 37.962-6.449 2.683-16.179 5.444-23.64 6.709-6.565 1.113-19.674 1.837-24.892 1.374zm22.483-40.23c5.376-1.932 9.281-4.586 13.888-9.439 7.322-7.713 11.09-17.16 11.09-27.798 0-9.446-2.359-13.931-8.249-15.68-3.422-1.016-6.794-1.145-8.337-.319-1.7.91-2.353 2.675-7.334 19.85-2.597 8.954-5.959 20.366-7.47 25.361s-2.619 9.291-2.461 9.546c.417.675 4.901-.094 8.876-1.522"/><path d="m392.94 239.98c-1.102-.815-2.165-9.374-5.608-45.14-2.264-23.524-2.846-32.16-3.604-53.53-.307-8.65-.671-18.254-.809-21.342l-.251-5.615 4.795-1.101c18.571-4.265 61.898-9.894 83.85-10.894l8.416-.383-.008 1.871c-.004 1.029.284 8.899.642 17.489.574 13.8.552 15.715-.187 16.455-.6.6-3.295 1.052-9.512 1.595-9.306.813-42.37 4.721-42.772 5.06-.234.197-1.086 15.224-.879 15.495.058.076 2.568-.228 5.578-.675 6.377-.947 30.666-3.454 38.36-3.959 4.702-.309 5.333-.241 5.658.607.607 1.582 1.457 12.862 1.462 19.412.003 4.408-.2 6.311-.721 6.743-.399.331-4.559.976-9.243 1.433-32.06 3.124-37.29 3.623-37.903 3.621-.514-.002-.676 1.576-.635 6.206.03 3.415.232 6.829.448 7.588.38 1.333.532 1.374 4.498 1.217 2.257-.089 8.574-.637 14.04-1.217 13.425-1.425 33.862-3.02 34.21-2.672.839.839 1.848 31.695 1.061 32.425-.528.49-26.886 3.442-64.52 7.228-12.141 1.221-22.819 2.353-23.729 2.516-.952.17-2.07-.0001-2.63-.425"/><path d="m513.94 194.54c-14.14-2.688-25.305-5.123-26.838-5.855-.87-.416-1.657-1.276-1.748-1.912-.234-1.632 13.1-66.837 17.247-84.33.786-3.317 1.238-6.198 1-6.403-.234-.204-5.392-1.054-11.463-1.888-11.749-1.615-18.514-2.852-19.12-3.495-.203-.217 1.167-8.713 3.044-18.881l3.413-18.487 5.226.127c16.878.409 96.6 12.47 99.49 15.05.699.624-5.277 33.25-6.847 37.38-.619 1.628-1.78 1.614-12.919-.157-4.856-.772-10.995-1.553-13.641-1.735l-4.812-.331-.57 1.499c-.313.824-4.543 21.372-9.399 45.661s-8.967 44.39-9.137 44.661c-.517.837-5.678.477-12.936-.902"/></g></g></svg>