<svg xmlns="http://www.w3.org/2000/svg" height="255.62" viewBox="0 0 197.50572 255.61767" width="197.51"><g fill="#1d2565"><path d="m54.697 255.31c-4.474-.605-7.07-2.204-7.07-4.36 0-1.157.85-2.133 2.751-3.157.509-.274 1.144-.919 1.409-1.433.812-1.571 1.137-7.292.996-17.568-.154-11.223-.181-11.356-2.604-12.583-4.306-2.182-1.928-5.804 4.767-7.261 1.51-.329 3.828-.499 7.05-.518 4.179-.025 5.078.058 6.949.643 2.504.782 3.714 1.922 3.68 3.468-.033 1.496-.356 2.01-2.099 3.339-2.01 1.534-2.34 2.399-2.363 6.219-.018 3.157.238 4.24 1.085 4.587.301.123 2.64.203 5.198.176 6.335-.065 6.135.086 5.924-4.488-.181-3.934-.639-5.414-1.924-6.213-1.874-1.166-2.2-1.639-2.2-3.2 0-1.239.139-1.607.859-2.28 1.096-1.024 3.371-1.736 6.791-2.125 6.961-.793 13.277.057 15.441 2.079.744.695.909 1.087.909 2.162 0 1.595-.564 2.463-2.114 3.253-2.266 1.156-2.225.871-2.331 16.01-.069 9.858 0 13.695.26 14.321.201.486.99 1.246 1.827 1.761 1.71 1.053 2.212 1.937 1.936 3.412-.393 2.096-2.795 3.26-7.828 3.794-7.391.784-13.764-.178-15.461-2.335-.402-.511-.589-1.212-.589-2.209 0-1.404.056-1.5 1.47-2.516 1.651-1.186 2.236-2.326 2.718-5.301.412-2.541.392-6.04-.04-6.985-.474-1.04-1.019-1.131-6.06-1.01-4.112.098-4.383.142-5.116.831-.747.703-.774.849-.774 4.292 0 5.288.364 6.29 3.103 8.533.596.488.797.927.797 1.74 0 2.31-1.516 3.64-5.127 4.5-2.424.577-9.327.817-12.226.426z"/><path d="m120.65 208.69c-13.571 0-13.988.017-15.322.635-1.651.764-2.315 1.994-1.885 3.494.21.731.667 1.177 1.916 1.869 2.911 1.613 2.821.995 2.432 16.604-.184 7.369-.473 13.889-.643 14.488-.463 1.641-1.346 2.562-2.977 3.103-1.608.534-1.822.835-1.822 2.564 0 1.412.903 2.565 2.414 3.08.781.267 4.996.352 15.898.324 14.09-.036 14.959-.07 17.238-.674 6.351-1.682 11.165-5.486 13.738-10.857 1.802-3.761 2.331-5.974 2.527-10.562.485-11.347-4.045-19.15-12.992-22.381-4.459-1.61-5.394-1.688-20.523-1.688m6.256 6.933c4.866.083 8.01 3.137 9.543 9.266.407 1.628.527 3.416.537 7.951.012 5.298-.052 6.06-.684 8.1-1.084 3.5-2.65 5.573-5 6.617-1.272.565-3.957.909-5.314.682-.448-.075-1.158-.544-1.576-1.041l-.76-.904v-14.779c0-14.648.005-14.787.631-15.354.498-.451 1.054-.564 2.625-.537"/></g><path fill="#e22739" d="m87.72 196.97c-20.236-2.451-37.92-10.131-53.17-23.09-3.575-3.038-10.249-9.923-13.07-13.486-13.07-16.5-20.568-36.39-21.383-56.77-.691-17.27 2.342-32.557 9.399-47.36 4.755-9.978 10.537-18.204 18.604-26.468 14.934-15.299 33.561-25.05 54.5-28.516 10.767-1.785 23.285-1.688 34.06.264 40.905 7.41 73.25 40.522 79.72 81.61 1.123 7.131 1.463 18.351.762 25.15-3.01 29.16-17.948 54.669-41.899 71.54-13.247 9.332-29.617 15.423-46.1 17.15-5.391.566-16.692.559-21.421-.014z"/><path fill="#fff" d="m103.42 184.55c12.416-.765 23.424-3.707 34.04-9.1 38.12-19.367 56.3-63.39 42.87-103.8-9.979-30.02-36.02-52.39-67.07-57.62-23.584-3.975-47.15 1.767-66.24 16.14-5.709 4.298-12.533 11.122-16.831 16.831-23.13 30.727-23.17 72.75-.096 103.34 15.1 20.01 38.05 32.507 62.819 34.19 4.781.325 5.525.326 10.517.018z"/><path fill="#1d2565" d="m86.45 162.76c-.578-.065-2.332-.263-3.9-.44-8.387-.947-17.216-3.615-26.359-7.963l-4.01-1.907.173-.98c.095-.539.928-6.38 1.852-12.98.924-6.6 1.773-12.23 1.887-12.511.178-.44.563-.283 2.757 1.126 4.37 2.807 10.145 4.961 16.01 5.975 3.5.604 9.745.597 12.723-.015 4.49-.923 8.939-3.379 10.963-6.05 1.811-2.393 2.397-3.952 2.54-6.765.13-2.556.099-2.713-.954-4.843-3.38-6.84-13.557-10.761-25.322-9.755-6.365.544-12.212 2.476-15.768 5.212l-1.453 1.118.172-.844c.094-.464 2.269-16.774 4.832-36.24 2.563-19.47 4.737-35.771 4.83-36.23l.17-.825h35.976c19.787 0 35.976.101 35.976.225 0 .124-.81 7.766-1.8 16.982s-1.8 16.81-1.8 16.875c0 .065-8.682.118-19.294.118h-19.294l-.768 5.175c-.422 2.846-.737 5.212-.699 5.257.038.045 1.405-.151 3.037-.436 2.192-.383 4.693-.52 9.568-.526 5.681-.007 7.07.086 9.979.67 16.92 3.399 27.752 14.939 29.17 31.08 1.137 12.956-3.987 25.574-14.341 35.32-7.501 7.06-16.328 11.396-27.486 13.51-2.702.512-4.716.645-10.82.713-4.125.046-7.972.031-8.55-.034z"/></svg>