<svg xmlns="http://www.w3.org/2000/svg" height="599.99" width="599.99" viewBox="0 0 599.99998 600"><path d="m300 0c-165.7 0-300 134.33-300 300 0 165.7 134.3 300 300 300 165.67 0 300-134.3 300-300 0-165.67-134.33-300-300-300m10.34 98.95c40.47 0 80.94 15.403 111.75 46.21 61.62 61.61 61.62 161.87 0 223.49l-157.12 157.15-65.32-65.31 55.51-55.51c-20.63-7.65-40-19.74-56.59-36.33-61.58-61.62-61.58-161.88 0-223.49 30.82-30.81 71.3-46.21 111.77-46.21m.001 92.3c-16.83 0-33.65 6.4-46.46 19.2-25.6 25.62-25.6 67.28 0 92.91 25.62 25.6 67.29 25.6 92.91 0 25.6-25.63 25.6-67.29 0-92.91-12.81-12.8-29.63-19.2-46.45-19.2" fill="#fff"/></svg>