<svg xmlns="http://www.w3.org/2000/svg" height="599.99" width="599.99" viewBox="0 0 599.99998 600.00004"><g transform="translate(-474.89-590.28)"><path d="m1074.9 890.28c0 165.62-134.3 300.02-299.96 300.02-165.71 0-300.05-134.4-300.05-300.02 0-165.66 134.34-300 300.05-300 165.66 0 299.96 134.34 299.96 300" fill="#54c6d3"/><g fill="#ed0579"><path d="m617.03 1101.9h108.96v-423.28h-108.96v423.28"/><path d="m932.81 678.62h-108.97v423.28h108.97v-423.28"/></g><g><path d="m725.98 866.28v235.72l97.85-187.72v-235.69l-97.85 187.69"/><path d="m523.65 857.65h93.38v-179.04l-93.38 179.04"/><path d="m1026.2 922.92h-93.41v179.08l93.41-179.08"/></g></g></svg>