<svg xmlns="http://www.w3.org/2000/svg" height="600" width="600" viewBox="0 0 158.75 158.75"><defs><clipPath id="0"><path d="m198.72 122.48h23.27v11.63h-23.27z"/></clipPath></defs><g transform="translate(-177.65-181.34)"><path d="m177.65 340.09h158.75v-158.75h-158.75z" fill="#da205f"/><g clip-path="url(#0)" transform="matrix(13.645 0 0-13.645-2613.3 2011.3)"><path d="m0 0v2.252l-1.925-2.252zm-3.825-1.271v1.283l4.225 5.072c.036.036.072.073.181.073h.872c.121 0 .229-.097.229-.23l.013-4.963h.956c.133 0 .23-.097.23-.218v-1c0-.121-.097-.23-.23-.23h-.956l.012-1.489c0-.121-.109-.23-.23-.23h-1.295c-.121 0-.23.109-.23.23v1.477h-3.547c-.133 0-.23.109-.23.23" fill="#eceded" transform="translate(210.82 127.32)"/></g></g></svg>