<svg xmlns="http://www.w3.org/2000/svg" height="244.8" width="600" viewBox="0 0 158.75 64.768941"><g transform="translate(-60.03-11.506)"><path d="m186.95 11.639h-63.13-31.827c-8.459 0-16.439 3.367-22.472 9.479-6.03 6.111-9.353 14.194-9.356 22.763 0 5.36 1.297 10.528 3.744 15.14.978 1.845 2.14 3.603 3.477 5.249.667.823 1.379 1.618 2.134 2.382 6.03 6.113 14.02 9.479 22.474 9.479h94.96c8.46 0 16.45-3.369 22.48-9.481 6.03-6.113 9.35-14.201 9.35-22.772 0-8.6-3.31-16.695-9.33-22.793-6.02-6.099-14.01-9.459-22.5-9.458" fill="#ffe229"/><g fill="#e61c45"><path d="m140.03 52.699-2.67-4.307-1.16 1.385v2.922h-3.88v-16.799h3.88v9.495l3.7-4.86h4.68l-4.48 5.54 4.71 6.624h-4.78"/><path d="m144.28 46.604c0-3.525 2.65-6.371 6.45-6.371 3.6 0 6.22 2.644 6.22 6.774v.881h-8.66c.27 1.083 1.28 1.99 3.04 1.99.86 0 2.27-.378 2.97-1.033l1.69 2.543c-1.21 1.084-3.22 1.613-5.08 1.613-3.76 0-6.63-2.443-6.63-6.397m6.45-3.249c-1.69 0-2.34 1.01-2.49 1.889h5.01c-.1-.856-.73-1.889-2.52-1.889"/><path d="m159.47 43.884h-2.01v-.655l5.21-6.02h.68v3.324h2.47v3.35h-2.47v4.458c0 .68.41 1.234 1.06 1.234.4 0 .83-.151.98-.302l.73 2.921c-.48.403-1.43.756-2.79.756-2.5 0-3.86-1.109-3.86-3.476v-5.591"/><path d="m175.92 52.699v-7.03c0-1.486-.78-2.02-1.99-2.02-1.16 0-1.91.63-2.37 1.185v7.857h-3.87v-12.164h3.87v1.486c.73-.857 2.17-1.788 4.24-1.788 2.74 0 4 1.611 4 3.853v8.613h-3.88"/><path d="m181.33 46.604c0-3.525 2.65-6.371 6.45-6.371 3.6 0 6.22 2.644 6.22 6.774v.881h-8.66c.28 1.083 1.28 1.99 3.05 1.99.85 0 2.26-.378 2.97-1.033l1.68 2.543c-1.2 1.084-3.22 1.613-5.08 1.613-3.75 0-6.63-2.443-6.63-6.397m6.45-3.249c-1.69 0-2.34 1.01-2.49 1.889h5.01c-.1-.856-.73-1.889-2.52-1.889"/><path d="m196.47 43.884h-2.02v-.655l5.22-6.02h.68v3.324h2.47v3.35h-2.47v4.458c0 .68.4 1.234 1.06 1.234.4 0 .83-.151.98-.302l.73 2.921c-.48.403-1.44.756-2.8.756-2.49 0-3.85-1.109-3.85-3.476v-5.591"/></g><path d="m92.42 76.28c-17.856 0-32.385-14.528-32.385-32.384 0-17.858 14.529-32.385 32.385-32.385 17.853 0 32.383 14.527 32.383 32.385 0 17.856-14.53 32.384-32.383 32.384" fill="#602376"/><g fill="#ffe229"><path d="m87.77 45.07v-17.11c0-1.457-.569-2.828-1.602-3.861s-2.405-1.602-3.862-1.602c-1.452 0-2.822.57-3.858 1.605-1.035 1.036-1.605 2.406-1.605 3.858v26.395c0 3.01 2.451 5.463 5.463 5.463 3.01 0 5.464-2.451 5.464-5.463v-9.285"/><path d="m98.6 37.37l-5.438 5.438-3.863 3.863c-1.027 1.026-1.592 2.399-1.592 3.862 0 1.464.565 2.836 1.591 3.863v.002c.641.641 1.418 1.102 2.268 1.359.34.102.692.171 1.05.206.18.018.362.027.545.027 1.465 0 2.836-.566 3.863-1.593l9.301-9.301c1.03-1.027 1.59-2.399 1.59-3.863 0-1.465-.56-2.836-1.59-3.863-1.03-1.031-2.4-1.598-3.86-1.598s-2.836.567-3.866 1.598"/></g><path d="m106.33 55.965l-5.44-5.438-3.865-3.864c-1.026-1.027-2.398-1.592-3.862-1.592s-2.835.565-3.863 1.591c-.642.642-1.103 1.419-1.359 2.269-.102.34-.172.691-.207 1.05-.017.18-.026.361-.026.545 0 1.464.566 2.836 1.593 3.863l9.3 9.301c1.028 1.027 2.4 1.593 3.86 1.593 1.47 0 2.84-.566 3.87-1.593 1.03-1.03 1.59-2.402 1.59-3.863s-.56-2.833-1.59-3.863" fill="#ee204b"/><path d="m102.46 65.28c-3.01 0-5.463-2.451-5.463-5.464 0-3.01 2.452-5.463 5.463-5.463 3.01 0 5.46 2.451 5.46 5.463 0 3.01-2.45 5.464-5.46 5.464" fill="#ffe229"/></g></svg>