<svg xmlns="http://www.w3.org/2000/svg" height="224.5" width="600" viewBox="0 0 158.75 59.396386"><g fill="#fff"><path d="m69.71 44.949c-.74 0-1.36.59-1.36 1.31v7.974c0 1.627.37 2.718 1.11 3.582.89 1.053 2.33 1.547 3.8 1.547 1.56 0 2.86-.515 3.71-1.481.71-.824 1.15-1.998 1.15-3.443 0-1.649-.45-2.839-1.26-3.659-.91-.97-2.31-1.26-3.38-1.26-1.03 0-1.77.19-2.41.51v-3.77c0-.72-.64-1.31-1.36-1.31m66.83 0c-.73 0-1.38.59-1.38 1.31v3.77c-.65-.32-1.4-.51-2.41-.51-1.07 0-2.38.29-3.3 1.26-.79.82-1.33 2.01-1.33 3.659 0 1.445.43 2.619 1.16 3.443.84.966 2.14 1.481 3.7 1.481 1.46 0 2.91-.494 3.79-1.547.75-.864 1.11-1.955 1.11-3.582v-7.974c0-.72-.62-1.31-1.34-1.31m-41.26 4.57c-1.74 0-3.1.47-3.88 1.48-.53.68-.82 1.57-.82 2.783v4.241c0 .743.59 1.318 1.35 1.318s1.36-.575 1.36-1.318v-4.04c0-.535.09-.905.27-1.276.27-.49.81-.84 1.61-.84.35 0 .62.1.87.2.28.15.47.27.84.27.68 0 1.17-.54 1.17-1.22 0-.55-.36-.96-.88-1.23-.48-.22-1.12-.37-1.89-.37m7.94 0c-1.72 0-3.09.47-3.87 1.48-.54.68-.82 1.57-.82 2.783v4.241c0 .743.59 1.318 1.36 1.318.76 0 1.36-.575 1.36-1.318v-4.04c0-.535.08-.905.26-1.276.27-.49.81-.84 1.61-.84.35 0 .62.1.86.2.29.15.48.27.85.27.68 0 1.17-.54 1.17-1.22 0-.55-.37-.96-.88-1.23-.48-.22-1.11-.37-1.9-.37m19.08 0c-1.67 0-3.05.5-3.85 1.5-.54.68-.83 1.56-.83 2.782v4.244c0 .721.59 1.317 1.36 1.317.76 0 1.35-.596 1.35-1.317v-3.976c0-.515.09-.926.28-1.28.28-.51.81-.86 1.69-.86.86 0 1.42.35 1.71.86.18.354.24.765.24 1.28v3.976c0 .721.62 1.317 1.38 1.317.75 0 1.37-.596 1.37-1.317v-4.244c0-1.222-.29-2.102-.86-2.782-.78-1-2.15-1.5-3.84-1.5m-38.15.02c-1.56 0-2.84.51-3.71 1.5-.72.83-1.15 1.981-1.15 3.421 0 1.628.54 2.824 1.32 3.666.9.947 2.22 1.236 3.29 1.236.97 0 1.9-.247 2.56-.701.22.454.7.701 1.24.701.73 0 1.35-.557 1.35-1.317v-3.358c0-1.649-.37-2.718-1.11-3.608-.88-1.05-2.33-1.54-3.79-1.54m27.04 0c-1.56 0-2.84.51-3.7 1.5-.72.83-1.16 1.981-1.16 3.421 0 1.628.54 2.824 1.32 3.666.91.947 2.23 1.236 3.29 1.236.98 0 1.9-.247 2.56-.701.23.454.7.701 1.24.701.73 0 1.36-.557 1.36-1.317v-3.358c0-1.649-.38-2.718-1.12-3.608-.88-1.05-2.33-1.54-3.79-1.54m32.91 0c-2.84 0-5.08 1.85-5.08 4.921 0 3.068 2.24 4.902 5.08 4.902 2.85 0 5.11-1.834 5.11-4.902 0-3.071-2.26-4.921-5.11-4.921m7.05 0c-.96 0-1.5.58-1.5 1.32 0 .24.08.59.26 1.05l2.19 5.744c.41 1.113.97 1.709 2.13 1.709 1.15 0 1.77-.616 2.19-1.709l2.06-5.694c.14-.39.27-.85.27-1.12 0-.72-.24-1.3-1.11-1.3-.74 0-1.15.47-1.32 1l-1.91 5.902h-.09l-1.92-5.792c-.14-.47-.42-1.11-1.25-1.11m-78.06 2.16c.72 0 1.3.23 1.68.66.4.41.65 1.073.65 1.998 0 .742-.19 1.319-.5 1.774-.35.533-.95.863-1.69.863-.57 0-1.15-.164-1.56-.618-.41-.475-.6-1.049-.6-2.061v-1.976c.58-.39 1.14-.64 2.02-.64m60.06 0c.89 0 1.44.25 2.01.64v1.976c0 1.012-.19 1.586-.6 2.061-.41.454-.98.618-1.55.618-.75 0-1.35-.33-1.69-.863-.31-.455-.49-1.032-.49-1.774 0-.925.23-1.588.63-1.998.39-.43.97-.66 1.69-.66m10.95.14c1.49 0 2.41 1.1 2.41 2.621 0 1.527-.92 2.618-2.41 2.618-1.48 0-2.41-1.091-2.41-2.618 0-1.521.93-2.621 2.41-2.621m-59.95.07c.58 0 1.15.16 1.56.64.4.45.62 1.19.62 2.221v1.772c-.63.391-1.33.599-2.03.599-.75 0-1.25-.19-1.65-.622-.4-.411-.66-1.049-.66-1.994 0-.724.18-1.297.5-1.776.34-.53.91-.84 1.66-.84m27.04 0c.58 0 1.16.16 1.57.64.39.45.62 1.19.62 2.221v1.772c-.64.391-1.34.599-2.04.599-.74 0-1.24-.19-1.65-.622-.39-.411-.66-1.049-.66-1.994 0-.724.19-1.297.5-1.776.35-.53.92-.84 1.66-.84"/><path d="m56.03 20.519l-18.94 13.89 3.56 11.27-9.66-6.93-9.6 6.92 3.82-11.25-9.77-7.06 11.74-.001 3.84-11.31c.18.56 2.84 8.71 2.84 8.71.36 1.14 1.27 2.05 2.42 2.43.77.24 1.59.24 2.35 0 .97-.31 1.75-.99 2.21-1.89.46-.91.54-1.93.22-2.89l-6.42-19.77c-.51-1.58-1.97-2.63-3.61-2.63-1.66 0-3.1 1.05-3.61 2.63 0 0-5.34 16.38-5.59 17.14-.15 0-18.04.001-18.04.001-1.65 0-3.1 1.06-3.61 2.61-.12.39-.18.78-.18 1.18 0 1.19.56 2.34 1.56 3.06 0 0 13.94 10.15 14.59 10.63-.06.14-5.58 17.15-5.58 17.15-.51 1.579.05 3.275 1.38 4.245 1.33.969 3.12.969 4.46-.004l14.6-10.594 14.61 10.606c1.34.969 3.13.978 4.46.012 0 0 0-.004.001-.004 1.33-.97 1.88-2.669 1.37-4.241l-5.57-17.16 14.59-10.61c1.03-.73 1.57-1.89 1.57-3.07 0-.77-.24-1.55-.72-2.23-1.23-1.69-3.61-2.07-5.3-.84"/></g><path d="m90.9 7.379c-1.66 0-3 1.35-3 3.01 0 1.66 1.34 3.01 3 3.01 1.67 0 3.01-1.35 3.01-3.01 0-1.66-1.34-3.01-3.01-3.01m-19.82 1.86c-1.46 0-2.61 1.15-2.61 2.57v22.56c0 1.38 1.15 2.53 2.61 2.53 1.39 0 2.61-1.15 2.61-2.53v-3.13l2.18-1.9 4.67 6.45c.51.72 1.18 1.11 2.06 1.11 1.34 0 2.61-1.11 2.61-2.53 0-.63-.24-1.11-.56-1.54l-5.14-6.73 4.47-4c.44-.39.67-1.03.67-1.66 0-1.19-.95-2.41-2.41-2.41-.59 0-1.15.19-1.62.63l-6.93 6.61v-13.46c0-1.42-1.15-2.57-2.61-2.57m36.25 8.75c-3.21 0-5.86.95-7.4 2.89-1.03 1.3-1.59 3-1.59 5.34v8.15c0 1.38 1.15 2.53 2.61 2.53 1.47 0 2.62-1.15 2.62-2.53v-7.64c0-.99.15-1.78.51-2.45.55-.99 1.58-1.66 3.25-1.66 1.66 0 2.73.67 3.28 1.66.36.67.47 1.46.47 2.45v7.64c0 1.38 1.19 2.53 2.66 2.53 1.42 0 2.61-1.15 2.61-2.53v-8.15c0-2.34-.56-4.04-1.63-5.34-1.5-1.94-4.15-2.89-7.39-2.89m-16.43.04c-1.46 0-2.61 1.14-2.61 2.53v13.81c0 1.38 1.15 2.53 2.61 2.53 1.39 0 2.62-1.15 2.62-2.53v-13.81c0-1.39-1.15-2.53-2.62-2.53m38.98 0c-5.46 0-9.77 3.56-9.77 9.45 0 5.9 4.31 9.42 9.77 9.42s9.81-3.52 9.81-9.42c0-5.89-4.35-9.45-9.81-9.45m0 4.43c2.85 0 4.63 2.1 4.63 5.02 0 2.93-1.78 5.03-4.63 5.03s-4.63-2.1-4.63-5.03c0-2.92 1.78-5.02 4.63-5.02" fill="#f0008c"/></svg>