<svg xmlns="http://www.w3.org/2000/svg" height="225.2" width="600" viewBox="0 0 158.75 59.584729"><defs><radialGradient id="0" gradientUnits="userSpaceOnUse" cy="0" cx="0" gradientTransform="matrix(132.02 48.867-45.118 54.003-78.04-26.08)" r="1"><stop stop-color="#a49b8b"/><stop stop-color="#615a4b" offset="1"/></radialGradient></defs><g transform="translate(144.5 51.65)"><path d="m-144.5-51.65h158.75v59.59h-158.75v-59.59" fill="url(#0)"/><g fill="#fff"><path d="m-135.81-42.687h88.18v-4.074h-88.18z"/><path d="m-135.81 2.841h88.18v-4.076h-88.18z"/><path d="m-121.28-39.01v19.427h3.79v-5.84l2.51-2.998 4.99 8.838h4.42l-6.9-11.705 6.44-7.722h-4.61l-6.85 8.462v-8.462h-3.79"/><path d="m-102.37-19.58h3.793v-19.429h-3.793z"/><path d="m-78.46-39.01h-3.796v11.897l-7.693-11.897h-3.384v19.427h3.795v-11.923l7.694 11.923h3.384v-19.427"/><path d="m-69.92-34.749c.543-.627 1.418-1.038 2.456-1.038 1.034 0 1.886.411 2.426 1.038.736.816.958 1.716.958 5.457 0 3.737-.222 4.634-.958 5.457-.54.623-1.392 1.034-2.426 1.034-1.038 0-1.913-.411-2.456-1.034-.739-.823-.925-1.72-.925-5.457 0-3.741.186-4.641.925-5.457m-2.808 13.205c1.359 1.363 3.053 2.131 5.264 2.131s3.875-.768 5.235-2.131c1.966-1.964 1.938-4.393 1.938-7.748s.028-5.785-1.938-7.748c-1.36-1.363-3.02-2.128-5.235-2.128s-3.905.765-5.264 2.128c-1.967 1.963-1.913 4.393-1.913 7.748s-.054 5.784 1.913 7.748"/><path d="m-118.84-4.977h1.11l2.48-8.941 2.48 8.941h1.11l2.86-11.168h-1.27l-2.18 9-2.47-9h-1.06l-2.46 9-2.19-9h-1.27l2.86 11.168"/><path d="m-105.51-4.977h6.931v-1.067h-5.741v-4.03h4.896v-1.067h-4.896v-3.937h5.741v-1.067h-6.931v11.168"/><path d="m-95.51-16.14v11.168h6.46v-1.067h-5.268v-10.1h-1.192"/><path d="m-84.9-4.977v-10.1h3.23v-1.067h-7.655v1.067h3.233v10.1h1.192"/><path d="m-80.41-4.977h1.475v-1.475h-1.475z"/><path d="m-77.68-15.08h3.233v10.1h1.189v-10.1h4.625l3.612 10.1h1.061l3.991-11.168h-1.366l-3.156 9.03-3.159-9.03h-10.03v1.067"/><path d="m-17.694-38.941v34.27h11.503c3.561 0 6.544-1.107 8.565-3.128 3.467-3.465 3.322-9.866 3.322-14.486 0-4.62.145-10.06-3.322-13.523-2.02-2.02-5-3.128-8.565-3.128zm2.598 2.31h8.28c2.742 0 5.389.625 7.362 2.646 2.743 2.792 2.551 7.893 2.551 11.695s.193 9.866-2.551 12.657c-1.973 2.02-4.62 2.647-7.362 2.647h-8.28z"/><path d="m-23.858-4.676v-16.12h-17.855v16.12h-2.599v-34.27h2.599v15.834h17.855v-15.834h2.599v34.27h-2.599"/></g></g></svg>