<?xml version="1.0" encoding="UTF-8" standalone="no"?>
<svg xmlns:rdf="http://www.w3.org/1999/02/22-rdf-syntax-ns#" xmlns="http://www.w3.org/2000/svg" height="224.49" width="600" version="1.1" xmlns:cc="http://creativecommons.org/ns#" xmlns:dc="http://purl.org/dc/elements/1.1/" viewBox="0 0 158.75 59.395054">
 <g transform="translate(531.43 153.01)">
  <path d="m-461.72-108.06c-0.74 0-1.36 0.59-1.36 1.31v7.974c0 1.627 0.37 2.718 1.11 3.582 0.89 1.053 2.33 1.547 3.8 1.547 1.56 0 2.86-0.515 3.71-1.481 0.71-0.824 1.15-1.998 1.15-3.443 0-1.649-0.45-2.839-1.26-3.659-0.91-0.97-2.31-1.26-3.38-1.26-1.03 0-1.77 0.19-2.41 0.51v-3.77c0-0.72-0.64-1.31-1.36-1.31zm66.83 0c-0.73 0-1.38 0.59-1.38 1.31v3.77c-0.65-0.32-1.4-0.51-2.41-0.51-1.07 0-2.38 0.29-3.3 1.26-0.79 0.82-1.33 2.01-1.33 3.659 0 1.445 0.43 2.619 1.16 3.443 0.84 0.966 2.14 1.481 3.7 1.481 1.46 0 2.91-0.494 3.79-1.547 0.75-0.864 1.11-1.955 1.11-3.582v-7.974c0-0.72-0.62-1.31-1.34-1.31zm-41.26 4.57c-1.74 0-3.1 0.47-3.88 1.48-0.53 0.68-0.82 1.57-0.82 2.783v4.241c0 0.743 0.59 1.318 1.35 1.318s1.36-0.575 1.36-1.318v-4.038c0-0.535 0.09-0.905 0.27-1.276 0.27-0.49 0.81-0.84 1.61-0.84 0.35 0 0.62 0.1 0.87 0.2 0.28 0.15 0.47 0.27 0.84 0.27 0.68 0 1.17-0.54 1.17-1.22 0-0.55-0.36-0.96-0.88-1.23-0.48-0.22-1.12-0.37-1.89-0.37zm7.94 0c-1.72 0-3.09 0.47-3.87 1.48-0.54 0.68-0.82 1.57-0.82 2.783v4.241c0 0.743 0.59 1.318 1.36 1.318 0.76 0 1.36-0.575 1.36-1.318v-4.038c0-0.535 0.08-0.905 0.26-1.276 0.27-0.49 0.81-0.84 1.61-0.84 0.35 0 0.62 0.1 0.86 0.2 0.29 0.15 0.48 0.27 0.85 0.27 0.68 0 1.17-0.54 1.17-1.22 0-0.55-0.37-0.96-0.88-1.23-0.48-0.22-1.11-0.37-1.9-0.37zm19.08 0c-1.67 0-3.05 0.5-3.85 1.5-0.54 0.68-0.83 1.56-0.83 2.782v4.244c0 0.721 0.59 1.317 1.36 1.317 0.76 0 1.35-0.596 1.35-1.317v-3.976c0-0.515 0.09-0.926 0.28-1.28 0.28-0.51 0.81-0.86 1.69-0.86 0.86 0 1.42 0.35 1.71 0.86 0.18 0.354 0.24 0.765 0.24 1.28v3.976c0 0.721 0.62 1.317 1.38 1.317 0.75 0 1.37-0.596 1.37-1.317v-4.244c0-1.222-0.29-2.102-0.86-2.782-0.78-1-2.15-1.5-3.84-1.5zm-38.15 0.02c-1.56 0-2.84 0.51-3.71 1.5-0.72 0.83-1.15 1.981-1.15 3.421 0 1.628 0.54 2.824 1.32 3.666 0.9 0.947 2.22 1.236 3.29 1.236 0.97 0 1.9-0.247 2.56-0.701 0.22 0.454 0.7 0.701 1.24 0.701 0.73 0 1.35-0.557 1.35-1.317v-3.358c0-1.649-0.37-2.718-1.11-3.608-0.88-1.05-2.33-1.54-3.79-1.54zm27.04 0c-1.56 0-2.84 0.51-3.7 1.5-0.72 0.83-1.16 1.981-1.16 3.421 0 1.628 0.54 2.824 1.32 3.666 0.91 0.947 2.23 1.236 3.29 1.236 0.98 0 1.9-0.247 2.56-0.701 0.23 0.454 0.7 0.701 1.24 0.701 0.73 0 1.36-0.557 1.36-1.317v-3.358c0-1.649-0.38-2.718-1.12-3.608-0.88-1.05-2.33-1.54-3.79-1.54zm32.91 0c-2.84 0-5.08 1.85-5.08 4.921 0 3.068 2.24 4.902 5.08 4.902 2.85 0 5.11-1.834 5.11-4.902 0-3.071-2.26-4.921-5.11-4.921zm7.05 0c-0.96 0-1.5 0.58-1.5 1.32 0 0.24 0.08 0.59 0.26 1.05l2.19 5.744c0.41 1.113 0.97 1.709 2.13 1.709 1.15 0 1.77-0.616 2.19-1.709l2.06-5.694c0.14-0.39 0.27-0.85 0.27-1.12 0-0.72-0.24-1.3-1.11-1.3-0.74 0-1.15 0.47-1.32 1l-1.91 5.902h-0.09l-1.92-5.792c-0.14-0.47-0.42-1.11-1.25-1.11zm-78.06 2.16c0.72 0 1.3 0.23 1.68 0.66 0.4 0.41 0.65 1.073 0.65 1.998 0 0.742-0.19 1.319-0.5 1.774-0.35 0.533-0.95 0.863-1.69 0.863-0.57 0-1.15-0.164-1.56-0.618-0.41-0.475-0.6-1.049-0.6-2.061v-1.976c0.58-0.39 1.14-0.64 2.02-0.64zm60.06 0c0.89 0 1.44 0.25 2.01 0.64v1.976c0 1.012-0.19 1.586-0.6 2.061-0.41 0.454-0.98 0.618-1.55 0.618-0.75 0-1.35-0.33-1.69-0.863-0.31-0.455-0.49-1.032-0.49-1.774 0-0.925 0.23-1.588 0.63-1.998 0.39-0.43 0.97-0.66 1.69-0.66zm10.95 0.14c1.49 0 2.41 1.1 2.41 2.621 0 1.527-0.92 2.618-2.41 2.618-1.48 0-2.41-1.091-2.41-2.618 0-1.521 0.93-2.621 2.41-2.621zm-59.95 0.07c0.58 0 1.15 0.16 1.56 0.64 0.4 0.45 0.62 1.19 0.62 2.221v1.772c-0.63 0.391-1.33 0.599-2.03 0.599-0.75 0-1.25-0.19-1.65-0.622-0.4-0.411-0.66-1.049-0.66-1.994 0-0.724 0.18-1.297 0.5-1.776 0.34-0.53 0.91-0.84 1.66-0.84zm27.04 0c0.58 0 1.16 0.16 1.57 0.64 0.39 0.45 0.62 1.19 0.62 2.221v1.772c-0.64 0.391-1.34 0.599-2.04 0.599-0.74 0-1.24-0.19-1.65-0.622-0.39-0.411-0.66-1.049-0.66-1.994 0-0.724 0.19-1.297 0.5-1.776 0.35-0.53 0.92-0.84 1.66-0.84z"/>
  <path d="m-475.4-132.49-18.94 13.89 3.56 11.27-9.66-6.93-9.6 6.92 3.82-11.25-9.77-7.06 11.74-0.01l3.84-11.31c0.18 0.56 2.84 8.71 2.84 8.71 0.36 1.14 1.27 2.05 2.42 2.43 0.77 0.24 1.59 0.24 2.35 0 0.97-0.31 1.75-0.99 2.21-1.89 0.46-0.91 0.54-1.93 0.22-2.89l-6.42-19.77c-0.51-1.58-1.97-2.63-3.61-2.63-1.66 0-3.1 1.05-3.61 2.63 0 0-5.34 16.38-5.59 17.14-0.15 0-18.04 0.01-18.04 0.01-1.65 0-3.1 1.06-3.61 2.61-0.12 0.39-0.18 0.78-0.18 1.18 0 1.19 0.56 2.34 1.56 3.06 0 0 13.94 10.15 14.59 10.63-0.06 0.14-5.58 17.153-5.58 17.153-0.51 1.579 0.05 3.275 1.38 4.245 1.33 0.969 3.12 0.969 4.46-0.004l14.6-10.594 14.61 10.606c1.34 0.969 3.13 0.978 4.46 0.012 0 0 0-0.004 0.01-0.004 1.33-0.97 1.88-2.669 1.37-4.241l-5.57-17.163 14.59-10.61c1.03-0.73 1.57-1.89 1.57-3.07 0-0.77-0.24-1.55-0.72-2.23-1.23-1.69-3.61-2.07-5.3-0.84" fill="#f0008c"/>
  <path d="m-440.53-145.63c-1.66 0-3 1.35-3 3.01s1.34 3.01 3 3.01c1.67 0 3.01-1.35 3.01-3.01s-1.34-3.01-3.01-3.01zm-19.82 1.86c-1.46 0-2.61 1.15-2.61 2.57v22.56c0 1.38 1.15 2.53 2.61 2.53 1.39 0 2.61-1.15 2.61-2.53v-3.13l2.18-1.9 4.67 6.45c0.51 0.72 1.18 1.11 2.06 1.11 1.34 0 2.61-1.11 2.61-2.53 0-0.63-0.24-1.11-0.56-1.54l-5.14-6.73 4.47-4c0.44-0.39 0.67-1.03 0.67-1.66 0-1.19-0.95-2.41-2.41-2.41-0.59 0-1.15 0.19-1.62 0.63l-6.93 6.61v-13.46c0-1.42-1.15-2.57-2.61-2.57zm36.25 8.75c-3.21 0-5.86 0.95-7.4 2.89-1.03 1.3-1.59 3-1.59 5.34v8.15c0 1.38 1.15 2.53 2.61 2.53 1.47 0 2.62-1.15 2.62-2.53v-7.64c0-0.99 0.15-1.78 0.51-2.45 0.55-0.99 1.58-1.66 3.25-1.66 1.66 0 2.73 0.67 3.28 1.66 0.36 0.67 0.47 1.46 0.47 2.45v7.64c0 1.38 1.19 2.53 2.66 2.53 1.42 0 2.61-1.15 2.61-2.53v-8.15c0-2.34-0.56-4.04-1.63-5.34-1.5-1.94-4.15-2.89-7.39-2.89zm-16.43 0.04c-1.46 0-2.61 1.14-2.61 2.53v13.81c0 1.38 1.15 2.53 2.61 2.53 1.39 0 2.62-1.15 2.62-2.53v-13.81c0-1.39-1.15-2.53-2.62-2.53zm38.98 0c-5.46 0-9.77 3.56-9.77 9.45 0 5.9 4.31 9.42 9.77 9.42s9.81-3.52 9.81-9.42c0-5.89-4.35-9.45-9.81-9.45zm0 4.43c2.85 0 4.63 2.1 4.63 5.02 0 2.93-1.78 5.03-4.63 5.03s-4.63-2.1-4.63-5.03c0-2.92 1.78-5.02 4.63-5.02z" fill="#f0008c"/>
 </g>
</svg>
