<?xml version="1.0" encoding="UTF-8" standalone="no"?>
<svg xmlns:rdf="http://www.w3.org/1999/02/22-rdf-syntax-ns#" xmlns="http://www.w3.org/2000/svg" height="340.83" width="600" version="1.1" xmlns:cc="http://creativecommons.org/ns#" xmlns:dc="http://purl.org/dc/elements/1.1/" viewBox="0 0 158.75 90.175875">
 <g transform="translate(0 -.00056097)" fill="#92278f">
  <path d="m96.9 44.595 8.79-11.009c0.31-0.408 0.46-0.863 0.46-1.357 0-0.615-0.21-1.119-0.63-1.513-0.42-0.393-0.94-0.591-1.55-0.591-0.67 0-1.21 0.263-1.61 0.785l-12.26 15.354v-14.002c0-0.581-0.21-1.083-0.62-1.505-0.42-0.42-0.92-0.632-1.49-0.632-0.58 0-1.08 0.212-1.49 0.632-0.42 0.422-0.63 0.924-0.63 1.505v31.143c0 0.58 0.21 1.083 0.63 1.504 0.41 0.421 0.91 0.633 1.49 0.633 0.57 0 1.07-0.212 1.49-0.633 0.41-0.42 0.62-0.922 0.62-1.504v-10.291l3.88-4.856 8.77 16.147c0.41 0.758 1.05 1.137 1.92 1.137 0.58 0 1.08-0.215 1.48-0.635 0.41-0.423 0.61-0.926 0.61-1.509 0-0.351-0.08-0.686-0.24-1.008z"/>
  <path d="m110.89 30.125c-0.58 0-1.08 0.212-1.49 0.632-0.42 0.421-0.63 0.924-0.63 1.505v31.142c0 0.581 0.21 1.083 0.63 1.506 0.41 0.42 0.91 0.632 1.49 0.632 0.57 0 1.07-0.212 1.49-0.632 0.41-0.423 0.62-0.925 0.62-1.506v-31.142c0-0.581-0.21-1.084-0.62-1.505-0.42-0.42-0.92-0.632-1.49-0.632"/>
  <path d="m133.02 48.42c-1.22-1.078-3.11-2.156-5.67-3.233-2.33-0.988-3.84-1.732-4.54-2.226-1.65-1.165-2.48-2.519-2.48-4.062 0-2.999 1.77-4.499 5.32-4.499 3.22 0 5.13 1.203 5.71 3.608 0.26 1.025 0.93 1.537 2.01 1.537 0.17 0 0.36-0.027 0.56-0.085 1.11-0.203 1.66-0.859 1.66-1.964 0-0.93-0.42-2.005-1.26-3.228-1.92-2.762-4.82-4.142-8.68-4.142-2.76 0-5.03 0.771-6.81 2.311-1.89 1.627-2.83 3.793-2.83 6.499 0 2.616 1.02 4.797 3.05 6.542 1.34 1.134 3.52 2.357 6.54 3.663 2.27 0.99 3.84 1.89 4.72 2.705 1.13 1.076 1.7 2.471 1.7 4.186 0 1.628-0.69 2.923-2.05 3.882-1.2 0.845-2.65 1.265-4.37 1.265-3.63 0-5.65-1.365-6.06-4.1-0.08-0.611-0.37-1.081-0.85-1.416-0.48-0.336-1.02-0.461-1.63-0.373-0.58 0.088-1.06 0.366-1.42 0.83-0.37 0.466-0.5 0.988-0.42 1.571 0.38 2.5 1.59 4.463 3.62 5.887 1.86 1.309 4.12 1.964 6.76 1.964 3 0 5.49-0.83 7.46-2.491 2.13-1.745 3.19-4.09 3.19-7.031 0-3.203-1.08-5.735-3.23-7.6"/>
  <path d="m155.52 48.42c-1.22-1.078-3.11-2.156-5.66-3.233-2.33-0.988-3.84-1.732-4.54-2.226-1.66-1.165-2.49-2.519-2.49-4.062 0-2.999 1.77-4.499 5.33-4.499 3.22 0 5.13 1.203 5.71 3.608 0.26 1.025 0.93 1.537 2 1.537 0.18 0 0.37-0.027 0.57-0.085 1.11-0.203 1.66-0.859 1.66-1.964 0-0.93-0.42-2.005-1.27-3.228-1.92-2.762-4.81-4.142-8.67-4.142-2.77 0-5.04 0.771-6.81 2.311-1.89 1.627-2.83 3.793-2.83 6.499 0 2.616 1.01 4.797 3.05 6.542 1.33 1.134 3.52 2.357 6.54 3.663 2.27 0.99 3.84 1.89 4.71 2.705 1.13 1.076 1.7 2.471 1.7 4.186 0 1.628-0.68 2.923-2.05 3.882-1.19 0.845-2.65 1.265-4.36 1.265-3.64 0-5.66-1.365-6.06-4.1-0.09-0.611-0.37-1.081-0.85-1.416-0.48-0.336-1.03-0.461-1.64-0.373-0.58 0.088-1.05 0.366-1.42 0.83-0.36 0.466-0.5 0.988-0.41 1.571 0.38 2.5 1.58 4.463 3.62 5.887 1.86 1.309 4.11 1.964 6.76 1.964 3 0 5.48-0.83 7.46-2.491 2.12-1.745 3.18-4.09 3.18-7.031 0-3.203-1.07-5.735-3.23-7.6"/>
  <path d="m100.16 5.267-70.72-5.267-29.44 72.725 95.85 17.452-37.28-49.741z"/>
 </g>
</svg>
