<svg xmlns="http://www.w3.org/2000/svg" viewBox="0 0 600 628.01"><g transform="matrix(1.25 0 0-1.25 171.04 448.98)"><path d="m-136.8-15.182l-.034 374.37h236.42v-66.03l23.55 23.552c23.07 25.904 56.667 42.23 94.08 42.23 69.56 0 125.95-56.39 125.95-125.95 0-33.839-13.346-64.56-35.06-87.18l.07-.072-37.877-37.875 37.877-37.868-.07-.076c21.709-22.631 35.06-53.35 35.06-87.18 0-69.56-56.39-125.95-125.95-125.95-37.412 0-71.01 16.322-94.08 42.23l-24.16 24.15c-21.587-38.37-62.683-64.29-109.84-64.29-69.56 0-125.95 56.39-125.95 125.95 0 .361.001.719.013 1.077h-.046"/><g fill="#fff"><path d="m22.511-21.375s.147-1.33.147-2.659c0-1.038-.147-2.662-.147-2.662s-18.623.147-24.536.147c-5.764 0-15.962-.147-15.962-.147s-.149 1.624-.149 2.662c0 1.626.149 2.808.149 2.808l7.538 1.035-34.585 41.677 39.609 42.12-11.08 2.957s-.147 1.329-.147 2.364.147 2.662.147 2.662 11.233-.146 17.14-.146c5.913 0 18.328.146 18.328.146s.295-1.627.295-2.662c0-1.33-.147-2.659-.147-2.659l-15.224-3.252-31.481-32.664 41.531-49.809 8.573-1.919zm-59.27 90.3c0-1.33-.148-2.659-.148-2.659l-9.755-1.624v-84.25l10.05-1.626s.148-1.333.148-2.808c0-1.038-.295-2.662-.295-2.662s-14.19.147-20.1.147c-5.765 0-21.58-.147-21.58-.147s-.294 1.624-.294 2.662c0 1.475.147 2.659.147 2.659l11.676 1.624v84.4l-11.676 1.624s-.147 1.328-.147 2.659c0 1.035.294 2.662.294 2.662s15.815-.146 21.58-.146c6.65 0 19.953.146 19.953.146s.148-1.329.148-2.662"/><path d="m56.908-20.341c2.661-.442 10.494-1.18 12.266-1.331 0 0 .15-.886.15-2.361 0-1.038-.15-2.662-.15-2.662s-15.813.147-21.578.147c-5.912 0-18.623-.147-18.623-.147s-.295 1.624-.295 2.662c0 1.329.148 2.217.148 2.217l9.46 1.328v94.3l-11.09 3.843s-.148 1.035-.148 1.921c0 1.331.148 2.217.148 2.217 8.573 1.181 30.15 4.729 30.15 4.729s-.444-21.14-.444-30.889v-75.971"/><path d="m110.51 6.558c-13.302-.146-18.327-4.727-18.327-14.63 0-5.765 3.252-11.231 9.312-11.231 3.845 0 8.426 2.512 10.936 7.093 0 8.13 0 10.789.149 18.769h-2.068zm20.837 18.921c0-12.12-.591-22.91-.591-36.36 0-9.903 4.285-9.165 11.822-6.207l1.48-3.697c-5.616-4.729-11.676-6.946-18.325-6.946-6.653 0-11.827 3.253-12.269 10.643-2.661-4.881-11.676-10.938-20.1-10.938-11.675 0-20.839 6.651-20.839 17.587 0 13.453 13.892 21.283 37.541 21.579h2.512c.147 2.662.147 11.825.147 13.597 0 13.746-4.434 17.59-12.267 17.59-3.252 0-7.241-.74-10.345-2.218 1.774-6.654 1.774-14.337.294-20.397-8.866 0-13.596 4.583-13.596 11.529 0 10.199 16.406 17.292 30.15 17.292 16.996 0 24.387-8.279 24.387-23.06"/><path d="m175.48 29.763v-49.51l15.07-1.922s.149-.886.149-2.361c0-1.038-.149-2.662-.149-2.662s-18.771.147-24.536.147c-5.765 0-18.62-.147-18.62-.147s-.149 1.624-.149 2.662c0 1.329.149 2.217.149 2.217l9.31 1.328v56.61l-11.09 3.697s-.147 1.035-.147 2.068c0 1.33.147 2.217.147 2.217 8.577 1.182 29.563 4.581 29.563 4.581v-12.416c3.543 6.949 12.264 12.27 17.734 12.27 10.05 0 14.337-5.911 14.337-14.338 0-6.206-5.467-12.857-15.519-12.857-1.48 7.538-.591 17.294.149 21.43-6.207-.886-14.188-7.684-16.405-13.01"/><path d="m245.74 6.558c-13.302-.146-18.327-4.727-18.327-14.631 0-5.765 3.255-11.231 9.312-11.231 3.841 0 8.424 2.512 10.936 7.093 0 8.13 0 10.789.149 18.769h-2.07m20.842 18.921c0-12.12-.596-22.91-.596-36.36 0-9.903 4.292-9.165 11.827-6.207l1.477-3.697c-5.616-4.729-11.676-6.946-18.327-6.946-6.649 0-11.822 3.253-12.267 10.643-2.659-4.881-11.676-10.938-20.1-10.938-11.676 0-20.837 6.651-20.837 17.587 0 13.453 13.893 21.283 37.54 21.579h2.512c.149 2.662.149 11.825.149 13.597 0 13.746-4.434 17.59-12.269 17.59-3.252 0-7.24-.74-10.345-2.218 1.773-6.654 1.773-14.337.295-20.397-8.868 0-13.597 4.583-13.597 11.529 0 10.199 16.408 17.292 30.15 17.292 16.994 0 24.387-8.279 24.387-23.06"/></g></g></svg>