<svg xmlns="http://www.w3.org/2000/svg" height="187.15" width="600" viewBox="0 0 480 149.71797"><g transform="matrix(.99998 0 0 .99998 1.525 170.47)"><path fill="#100f0e" d="m478.45-26.973c0 3.444-2.782 6.219-6.242 6.219h-467.48c-3.42 0-6.215-2.775-6.215-6.219v-36.544c0-3.444 2.795-6.252 6.215-6.252h467.48c3.461 0 6.242 2.808 6.242 6.252"/><g fill="#eb1c24"><path d="m478.41-78.864c0 2.976 0 9.128-9.9 9.128h-460.42c-9.613 0-9.613-6.085-9.613-9.06v-82.45c0-2.976.498-9.195 9.756-9.195h458.38c3.263 0 11.95-1.036 11.869 8.392"/><path d="m5.229-71.64h465.91v-96.91h-465.91v96.91"/></g><g fill="#fff"><path d="m68.65-37.14l-1.709 5.717-4.678 3.678c-2.01.869-4.323 1.27-6.934 1.27l-2.678-.134-4.206-.769-5.457-1.872v-8.593l5.236 2.708 5.51 1.103 3.514-.903.809-1.705-1.371-2.407-3.982-2.01-5.069-2.641-3.564-3.578-1.398-5.115 1.424-5.115 4.23-3.644c1.932-.936 4.273-1.371 7-1.371l5.46.568 4.099 1.27 2.22 1.103v8.258l-4.791-2.775-5.657-1.204-2.859.736-.903 1.872.903 1.806 3.173 1.839c2.705 1.304 4.845 2.441 6.493 3.444l3.785 3.511 1.398 4.948"/><path d="m147.36-50.946l-1.475-3.444c-1.01-.602-2.755-.903-5.316-.903h-2.233v8.426h2.287l4.072-.301 2.026-1.237.639-2.541m10.816-.067l-.692 3.812-2.157 3.511-4.04 2.575-6.02 1h-6.934v13.173h-10.592v-35.11h17.527l6.02 1 4.04 2.641 2.157 3.511.692 3.878"/><path d="m242.75-44.526l-.588-3.611-1.752-2.842-2.872-1.872-3.932-.669c-2.832 0-5.065.836-6.714 2.474-1.618 1.672-2.427 3.845-2.427 6.52s.809 4.848 2.454 6.52c1.622 1.672 3.855 2.508 6.687 2.508l4.965-1.17 3.119-3.176 1.06-4.681m10.786 0c0 3.277-.756 6.319-2.26 9.06-1.501 2.775-3.761 4.948-6.75 6.553-3.01 1.638-6.623 2.441-10.92 2.441-4.346 0-8.02-.869-11.03-2.541-3.01-1.672-5.239-3.912-6.714-6.687-1.451-2.708-2.17-5.651-2.17-8.827 0-3.143.719-6.085 2.17-8.86 1.448-2.708 3.681-4.948 6.687-6.62 3.043-1.705 6.714-2.541 11.06-2.541 3.24 0 6.139.502 8.673 1.438 2.534 1 4.624 2.274 6.269 3.945l3.735 5.751 1.254 6.888"/><path d="m331.66-50.946l-1.591-3.41-5.212-.936h-2.233v8.426h2.287c2.598 0 4.35-.267 5.329-.836l1.421-3.243m14.407 24.01h-11.401l-2.755-6.219-2.732-5.02-2.377-2.039-2.976-.435h-1.204v13.708h-10.579v-35.11h18.02c2.899 0 5.289.602 7.132 1.772l4.01 4.313 1.254 4.815-1.033 4.48-2.167 2.675-2.561 1.605 2.808 2.34c.732.903 1.725 2.742 2.979 5.483"/><path d="m434.22-53.52h-12.862v26.614h-10.569v-26.614h-12.902v-8.526h36.33"/><path d="m147.27-120.59c0-2.842-.378-5.416-1.11-7.757l-3.42-6.119-5.577-4.01c-2.17-.97-4.704-1.438-7.576-1.438-5.523 0-9.81 1.772-12.956 5.316-3.146 3.577-4.714 8.258-4.714 14.01 0 5.784 1.568 10.465 4.741 14.04 3.146 3.578 7.469 5.35 12.929 5.35 3.735 0 6.961-.802 9.613-2.474 2.638-1.638 4.651-3.912 6.02-6.854 1.357-2.909 2.05-6.252 2.05-10.06m20.897 0c0 7.05-1.475 13.541-4.4 19.459s-7.262 10.632-13.06 14.11c-5.771 3.511-12.812 5.216-21.12 5.216-8.412 0-15.517-1.805-21.341-5.416-5.824-3.644-10.147-8.426-12.983-14.31-2.819-5.951-4.243-12.304-4.243-19.06 0-6.787 1.424-13.14 4.206-19.06 2.819-5.885 7.168-10.632 12.993-14.243 5.814-3.644 12.956-5.45 21.368-5.45 6.269 0 11.873 1.07 16.771 3.109 4.935 2.073 8.971 4.881 12.144 8.426 3.176 3.544 5.577 7.657 7.225 12.371 1.605 4.714 2.441 9.663 2.441 14.845"/><path d="m254.47-82.64h-20.502v-43.733l-18.469 25.31h-1.618l-18.56-25.31v43.733h-19.89v-75.53h18.583l20.897 28.319 20.99-28.319h18.57"/><path d="m305.25-105.18c0-6.453-4.4-9.696-13.203-9.696h-8.726v19.359h8.726c8.803 0 13.203-3.21 13.203-9.663m-3.474-31.429c0-3.644-1.123-6.085-3.384-7.255-2.247-1.204-5.757-1.805-10.552-1.805h-4.52v18.09h4.624c4.885 0 8.426-.602 10.565-1.772 2.17-1.204 3.267-3.644 3.267-7.255m24.986 32.365c0 6.52-2.09 11.702-6.269 15.581-4.179 3.878-10.03 5.818-17.553 5.818h-41.01v-75.53h34.32c4.427 0 8.305.468 11.595 1.371 3.28.936 5.931 2.14 7.967 3.745l4.48 5.55c1.01 2.173 1.501 4.547 1.501 7.05 0 2.775-.522 5.316-1.555 7.657l-3.785 5.784-4.597 3.176c4.845 2.04 8.553 4.614 11.09 7.723s3.815 7.122 3.815 12.07"/><path d="m378.38-111.2l-9.95-27.584-10.06 27.584h20.01m31.23 28.453h-20.977l-5.55-15.347h-29.53l-5.627 15.347h-20.99l30.07-75.53h22.659"/><path d="m467.83-139.92h-24.906v57.17h-20.452v-57.17h-24.909v-18.356h70.27"/></g><path fill="#ac1b21" d="m91.94-82.11h-28.3l-29.449-36.04v36.04h-23.21v-76.933h23.21v34.404l27.898-34.404h25.21l-28.67 36.01"/><path d="m91.94-82.11h-28.3l-29.449-36.04v36.04h-23.21v-76.933h23.21v34.404l27.898-34.404h25.21l-28.67 36.01 33.32 40.924z" stroke="#f5f4f4" stroke-miterlimit="10" stroke-width="4.681" fill="none"/><path fill="#75787d" d="m471.72-67.998h-466.48l-1.411-1.973 1.411-2.01h466.48l1.358 2.01"/><path fill="#100f0d" d="m13.17-84.51h18.69v-72.5h-18.69v72.5"/></g></svg>