<svg xmlns="http://www.w3.org/2000/svg" viewBox="0 0 600 334.73"><defs><clipPath id="0"><path d="m33 248.43h374.17v-215.43h-374.17v215.43"/></clipPath></defs><g transform="translate(-28.571-67.856)"><g clip-path="url(#0)" transform="matrix(1.65766 0 0-1.65766-37.19 470.27)"><path d="m0 0c-4.211-19.22-22.981-35.509-42.36-37.938-70.18-6.519-140.02-6.518-210.19-.002-19.375 2.432-38.15 18.718-42.36 37.94-6.544 39.34-6.544 76.94 0 116.27 4.21 19.223 22.983 35.506 42.36 37.94 70.17 6.515 140.02 6.515 210.19 0 19.375-2.432 38.15-18.717 42.36-37.94 6.546-39.33 6.546-76.941 0-116.27" fill="#f9a82c" transform="translate(339.49 83.66)"/><path d="m0 0c-3.754-16.277-19.16-29.662-35.598-31.885-59.03-5.379-117.61-5.379-176.64 0-16.434 2.22-31.844 15.611-35.598 31.885-5.318 33.25-5.318 64.46 0 97.71 3.75 16.274 19.16 29.664 35.597 31.886 59.03 5.38 117.61 5.38 176.64 0 16.438-2.221 31.844-15.612 35.598-31.886 5.324-33.24 5.324-64.47 0-97.71" fill="#eaeaea" transform="translate(315.74 93.42)"/><path d="m0 0c-59.03 5.38-117.61 5.38-176.64 0-16.431-2.222-31.846-15.611-35.596-31.886-4.302-26.895-5.122-52.46-2.462-78.85 33.64-12.04 77.25-22.457 125.94-21.37 49.51 1.105 93.41 11.907 127.03 23.647 2.39 25.584 1.509 50.45-2.674 76.57-3.754 16.275-19.16 29.665-35.598 31.886" fill="#fff" transform="translate(280.14 223.02)"/><path d="m0 0c-3.778 0-6.977-1.741-8.556-4.657-2.539-4.693-.095-10.955 5.45-13.959 1.916-1.037 4.03-1.586 6.112-1.586 3.778 0 6.975 1.741 8.554 4.657 2.542 4.693.098 10.956-5.448 13.96-1.916 1.037-4.03 1.585-6.112 1.585m4.01-36.93c-5.126 0-10.295 1.331-14.947 3.849-14.09 7.628-19.971 24.14-13.11 36.815 4.4 8.122 13.01 12.971 23.02 12.971 1.619 0 3.246-.131 4.861-.392l54.52 100.69 16.13-8.734-4.219-7.789 29.409-15.927-10.443-19.282.004-.003-10.916-20.15-29.408 15.923-28.56-52.746c9.51-8.666 12.378-21.761 6.706-32.23-4.408-8.136-13.02-12.993-23.04-12.993" fill="#393637" transform="translate(296.88 102.77)"/><path d="m0 0c-1.461 0-2.958.392-4.331 1.135-3.662 1.984-5.465 6.05-3.935 8.879.913 1.685 2.879 2.693 5.261 2.693 1.461 0 2.957-.393 4.329-1.135 3.662-1.984 5.466-6.05 3.934-8.878-.913-1.687-2.879-2.694-5.258-2.694m53.836 138.54l-3.568-6.592-51.52-95.16c-.926.077-1.853.115-2.779.115-11.243 0-21.327-5.721-26.317-14.933-7.844-14.491-1.285-33.28 14.621-41.896 5.199-2.814 10.984-4.302 16.731-4.302 11.249 0 21.342 5.731 26.339 14.957 6.06 11.191 3.701 24.932-5.368 34.7l25.439 46.982 22.817-12.354 6.59-3.568 3.57 6.59 7.346 13.564 3.57 6.592-.004.002 6.873 12.691 3.57 6.591-6.591 3.569-22.818 12.357.649 1.199 3.57 6.591-6.591 3.569-9.535 5.165-6.592 3.57zm-53.836-146.04c4.957 0 9.539 2.352 11.849 6.62 3.531 6.52.416 15.04-6.958 19.04-2.551 1.38-5.276 2.038-7.897 2.038-4.958 0-9.542-2.355-11.851-6.62-3.53-6.522-.415-15.04 6.959-19.04 2.551-1.38 5.277-2.038 7.898-2.038m56.858 135.88l9.536-5.164-4.219-7.79 29.408-15.927-7.586-14.01-16.09 8.713 4.369 8.08-5.958 3.23-4.371-8.08-6.6 3.573-2.855-5.273 6.598-3.571-4.61-8.522 5.96-3.227 4.612 8.519 16.1-8.716-7.347-13.565-29.409 15.922-31.812-58.752c9.768-7.249 13.477-19.729 8.174-29.519-3.852-7.111-11.486-11.03-19.749-11.03-4.367 0-8.912 1.097-13.163 3.398-12.292 6.655-17.484 20.864-11.599 31.735 3.847 7.102 11.471 11.01 19.726 11.01 2.25 0 4.549-.291 6.828-.886l54.06 99.86" fill="#f9a82c" transform="translate(299.88 86.31)"/><path d="m0 0v7.201c0 3.174-2.106 5.853-4.996 6.721v14.543h7.939c1.548 0 2.802 1.256 2.802 2.805 0 1.548-1.254 2.802-2.802 2.802h-7.939v7.241c0 1.546-1.255 2.802-2.803 2.802-1.547 0-2.804-1.256-2.804-2.802v-7.241h-7.939c-1.547 0-2.806-1.254-2.806-2.802 0-1.549 1.259-2.805 2.806-2.805h7.939v-14.544c-2.887-.869-4.995-3.547-4.995-6.72v-7.201c-32.31-5.973-57.36-47.901-57.36-81.25 0-35.988 130.32-35.988 130.32 0 0 33.35-25.05 75.28-57.36 81.25" fill="#e9e9e9" transform="translate(201.61 175.8)"/><path d="m0 0h-13.584c-1.898 0-2.467.571-3.513 2.185l-10.07 15.956c-1.614 2.566-2.564 5.414-2.564 5.414h-.19v-21.275c0-1.521-.759-2.28-2.279-2.28h-12.442c-1.52 0-2.281.759-2.281 2.28v68.1c0 1.52.761 2.28 2.281 2.28h12.442c1.52 0 2.279-.76 2.279-2.28v-40.935h.19l13.11 17.571c1.141 1.518 1.521 2.183 3.42 2.183h11.682c1.521 0 2.281-.758 2.281-2.28 0-.474-.285-1.232-.76-1.709l-14.911-17 16.62-24.22c.381-.57.57-1.235.57-1.709 0-1.521-.761-2.28-2.279-2.28" fill="#f9a82c" transform="translate(155.72 91.82)"/><g fill="#393637"><path d="m0 0h-18.14c-1.521 0-2.28.666-2.28 2.186v7.216c0 1.521.759 2.28 2.28 2.28h18.14c1.519 0 2.278-.759 2.278-2.28v-7.216c0-1.52-.759-2.186-2.278-2.186" transform="translate(176.83 114.24)"/><path d="m0 0c-6.46 0-15.578 2.089-15.578 15.1v26.21h-4.369c-1.519 0-2.184.76-2.184 2.281v4.651c0 1.522.665 2.28 2.184 2.28h4.369v5.7c0 1.615.381 2.469 1.519 2.945l11.778 4.747c.474.189.951.476 1.521.476 1.424 0 2.278-.854 2.278-2.28v-11.588h6.744c1.519 0 2.279-.758 2.279-2.28v-4.651c0-1.521-.76-2.281-2.279-2.281h-6.744v-26.691c0-4.842 2.281-6.077 5.13-6.077h1.614c1.901 0 3.041-1.046 3.041-2.945 0-3.324-5.03-5.604-11.303-5.604" transform="translate(207.27 90.49)"/><path d="m0 0l-14.533-43.02c-.474-1.519-1.139-2.09-2.849-2.09h-13.772c-1.71 0-2.47.571-2.945 2.09l-14.53 43.02c-.191.666-.381 1.331-.381 1.804 0 1.522.76 2.28 2.28 2.28h13.11c1.615 0 2.374-.569 2.755-2.088l5.794-21.752c1.139-4.368 1.711-10.351 1.711-10.351h.189c0 0 .759 5.983 1.995 10.351l6.077 21.752c.477 1.519 1.141 2.088 2.85 2.088h10.354c1.519 0 2.277-.758 2.277-2.28 0-.569-.189-1.138-.378-1.804" transform="translate(272.44 136.94)"/></g></g></g></svg>