<?xml version="1.0" encoding="UTF-8" standalone="no"?>
<svg xmlns="http://www.w3.org/2000/svg" height="387.78" width="600" version="1.1" viewBox="0 0 158.75 102.5991">
 <g fill="#e64c92">
  <path d="m19.04 65.55h-13.75c-3.59 0-5.29-1.67-5.29-5.54v-19.08c0-3.11 1.77-5.01 4.65-5.01 2.87 0 4.65 1.9 4.65 5.01v17.1h9.74c2.38 0 4 1.37 4 3.75 0 2.39-1.62 3.77-4 3.77"/>
  <path d="m34.28 55.8 3.16-10.63h0.07l3.16 10.63zm15.28 1.1-6.18-17.22c-0.9-2.43-2.1-3.77-4.45-3.77h-2.91c-2.34 0-3.55 1.34-4.44 3.77l-6.2 17.22c-0.68 1.94-1.45 4.08-1.45 5.41 0 2.19 2.15 3.76 4.24 3.76 1.46 0 3.29-0.65 3.76-2.3l0.65-2.15h9.79l0.64 2.15c0.49 1.65 2.31 2.3 3.77 2.3 2.09 0 4.24-1.57 4.24-3.76 0-1.33-0.77-3.47-1.46-5.41"/>
  <path d="m134.83 63.35c-1.39 5.81-6.92 10.3-15.18 12.32-12.42 3.02-23.293 0.84-23.751 0.74-5.081-1.06-16.813-4.62-16.813-15.06h16.618c2.443 4.08 7.706 4.35 9.496 4.35 4.69 0 7.37-1.43 8.73-3.24 1.01-1.38 0.95-3.67 0-4.95-1.04-1.4-2.82-3.03-8.53-3.19-1.89-0.06-5.548 0.53-7.507 1.95l-17.806 0.01 3.41-25.81h48.453v10.87h-36.263v5s24.513-4.56 34.593 4.03c3.94 3.54 5.62 8.4 4.55 12.98m23.92-12.73c0-8.17-6.35-14.89-14.32-15.49 2.26-2.69 3.67-6.22 3.67-10.09 0-8.58-6.91-15.51-15.51-15.51-3.82-0.0005-7.3 1.33-10 3.58l-0.32 0.74v0.2c-0.53-7.8405-7.12-14.05-15.15-14.05-8.023-0.00045155-14.504 6.1495-15.157 13.94l-0.331-0.81c-2.689-2.21-6.124-3.5005-9.874-3.5005-8.534 0-15.507 6.9405-15.507 15.52 0 4.02 1.527 7.68 4.004 10.41-8.225 0.41-14.775 7.23-14.775 15.52 0 8.28 6.57 14.97 14.767 15.43-2.316 2.72-3.767 6.31-3.767 10.16 0 8.57 6.982 15.55 15.516 15.55 3.664 0 7.032-1.28 9.713-3.4 0.873 7.74 7.397 13.78 15.411 13.78 8.25 0 14.91-6.39 15.47-14.46 2.73 2.33 6.26 3.74 10.12 3.74 8.6 0 15.5-6.98 15.5-15.55 0-3.93-1.44-7.48-3.75-10.22 7.97-0.62 14.29-7.33 14.29-15.49"/>
 </g>
</svg>
