<svg xmlns="http://www.w3.org/2000/svg" height="739.72" width="600" viewBox="0 0 158.75 195.71716" xmlns:xlink="http://www.w3.org/1999/xlink"><defs><linearGradient id="4" gradientUnits="userSpaceOnUse" x2="0" y1="396.39" y2="359.72"><stop stop-color="#e36f1e"/><stop stop-color="#fdba51" offset=".989"/><stop stop-color="#fdba51" offset="1"/></linearGradient><linearGradient id="5" gradientUnits="userSpaceOnUse" x2="0" y1="444.39" y2="378.41" xlink:href="#4"/><linearGradient id="3" gradientUnits="userSpaceOnUse" x2="0" y1="445.37" y2="397.33" xlink:href="#4"/><linearGradient id="1" gradientUnits="userSpaceOnUse" x2="0" y1="360.21" y2="293.91" xlink:href="#4"/><linearGradient id="0" gradientUnits="userSpaceOnUse" x2="0" y1="392.56" y2="350.73" xlink:href="#4"/><linearGradient id="2" gradientUnits="userSpaceOnUse" x2="0" y1="381.07" y2="350.4" xlink:href="#4"/></defs><g transform="translate(103.94-292.88)"><path fill="url(#1)" d="m-24.462 293.18c-.597 0-1.124.37-1.322.95l-15.358 45.52c-.142.42-.071.89.192 1.25.254.36.674.58 1.125.58h13.899l20.608 18.38c.466.41 1.15.46 1.677.13.522-.33.755-.98.567-1.58l-20.07-64.26c-.177-.56-.704-.96-1.307-.97h-.011"/><path d="m-26.318 341.13l20.998 18.73c.466.42 1.15.47 1.677.13.527-.33.76-.99.573-1.58l-20.07-64.25c-.177-.58-.709-.97-1.312-.98s-1.135.37-1.328.95l-15.358 45.52c-.147.42-.076.89.188 1.25.258.36.674.58 1.13.58h14.426c-.34 0-.669-.12-.923-.35z" stroke="#e36f1e" stroke-width=".598" fill="none"/><path fill="url(#0)" d="m5.074 350.27c-.451 0-.866.21-1.135.57-.258.36-.329.83-.182 1.26l4.423 13.14-10.854 25.39c-.248.57-.081 1.24.406 1.63.492.39 1.181.4 1.687.04l54.52-39.53c.481-.34.689-.98.506-1.55-.187-.57-.719-.95-1.322-.95z"/><path d="m8.395 364.75l-11.07 25.88c-.248.57-.081 1.24.406 1.63.492.39 1.181.4 1.687.03l54.52-39.51c.481-.36.689-.99.501-1.56-.187-.57-.719-.96-1.322-.96h-48.05c-.446 0-.866.22-1.13.59-.258.36-.329.82-.183 1.24l4.596 13.66c-.107-.33-.096-.68.04-1z" stroke="#e36f1e" stroke-width=".598" fill="none"/><path fill="url(#2)" d="m-102.25 350.06c-.61 0-1.14.39-1.33.96-.19.58.02 1.2.51 1.56l38.893 28.23c.36.26.826.34 1.257.2.42-.14.75-.48.881-.91l4.135-13.27 23.678-14.18c.537-.33.796-.96.629-1.56-.173-.61-.72-1.03-1.343-1.03z"/><path d="m-58.35 367.1l24.13-14.45c.537-.33.791-.97.624-1.56-.168-.61-.715-1.02-1.338-1.02h-67.31c-.61 0-1.14.38-1.33.95-.18.58.02 1.21.51 1.56l38.895 28.23c.36.27.826.33 1.252.2.425-.15.755-.49.886-.91l4.297-13.78c-.101.33-.324.6-.613.78z" stroke="#e36f1e" stroke-width=".598" fill="none"/><path fill="url(#5)" d="m-52.16 377.68c-.593 0-1.125.37-1.317.96l-21.06 63.93c-.182.57.02 1.2.502 1.56.486.35 1.145.35 1.631 0l38.986-28.08c.36-.27.572-.69.572-1.13 0-.45-.212-.87-.577-1.13l-11.3-8.09-6.07-26.94c-.142-.61-.669-1.05-1.297-1.08h-.066"/><path d="m-44.613 406.22l-6.182-27.46c-.142-.61-.669-1.05-1.297-1.08-.618-.03-1.186.36-1.383.96l-21.06 63.93c-.187.57.015 1.2.497 1.55.486.36 1.15.36 1.636.001l38.981-28.08c.36-.27.572-.69.572-1.13 0-.45-.212-.87-.577-1.13l-11.735-8.4c.278.2.471.49.547.83z" stroke="#e36f1e" stroke-width=".598" fill="none"/><path fill="url(#3)" d="m7.927 397.07l-11.208 8.21-27.489-2.64c-.623-.05-1.201.31-1.429.9-.223.58-.03 1.24.476 1.6l54.18 39.96c.492.35 1.145.36 1.637.001.491-.35.694-.98.511-1.55l-14.527-45.8c-.131-.42-.471-.76-.892-.9-.142-.04-.289-.07-.436-.07-.294 0-.578.1-.821.28"/><path d="m-2.753 405.34l-28.02-2.69c-.623-.06-1.205.3-1.428.88-.228.59-.036 1.25.471 1.62l54.18 39.94c.486.36 1.145.37 1.636.001.487-.35.694-.97.512-1.54l-14.527-45.8c-.137-.42-.471-.76-.897-.89-.421-.15-.892-.07-1.252.19l-11.639 8.54c.274-.21.618-.3.958-.26z" stroke="#e36f1e" stroke-width=".598" fill="none"/><path fill="url(#4)" d="m-25.07 359.32l-10.61 4.67 1.657 7.71 7.296-3.31h.117v28h9.926v-37.07z"/><path d="m-26.614 368.39h-.116l-7.302 3.3-1.652-7.7 10.611-4.67h8.381v37.07h-9.922z" stroke="#e36f1e" stroke-width=".598" fill="none"/><g fill="#e8762a"><path d="m-64.02 481.88v-21.21h-7.408c-4.48 0-7.07 5.3-7.07 7.51v10.26h9.217v2.92c0 .45-.542 2.3-1.981 2.3h-7.06v4.66h9.374c1.941 0 4.931-2.99 4.931-6.44m-4.971-8.58h-4.307v-4.8c.765-3.55 4.307-2.67 4.307-2.67z"/><path d="m34.551 473.16h-16.2c-1.221 0-2.361-.41-3.425-1.05-1.069-.69-1.621-1.57-1.621-2.64v-.34c0-1.2.516-2.2 1.586-3.01 1.059-.86 2.239-1.28 3.607-1.28h3.122v2.03h4.854v-7.16h-3.456v-.06h-4.52c-2.508 0-4.677.47-6.562 1.4-2.052 1.05-3.344 2.6-3.815 4.62l-.223.99-.076 1.2c0 2.02.735 3.77 2.245 5.3h-10.413v-8.32h-5.665v5.49c0 .71 0 2.83-1.51 2.83h-56.61v5.22h104.31v-28.74h-5.624z"/><path d="m-86.33 479.18h-8.73v-12.54h-4.829v14.22c0 1.73 1.414 3.15 3.147 3.15h11.993c1.728 0 3.142-1.42 3.142-3.15v-14.22h-4.723z"/><path d="m-1.958 484.07h-.294c-1.317 0-2.174 1.02-2.174 2.26s.816 2.27 2.321 2.27h.294c1.444 0 2.285-.94 2.285-2.27 0-1.13-.917-2.26-2.432-2.26"/><path d="m-8.505 484.01h-.147c-1.505 0-2.362 1.02-2.362 2.25s.928 2.34 2.433 2.34h.294c.669 0 1.216-.25 1.657-.72.405-.45.628-.97.628-1.55 0-1.23-.882-2.32-2.503-2.32"/><path d="m44.05 478.47h5.634v-28.82h-5.634z"/><path d="m-90.7 459.32h.294c.669 0 1.211-.24 1.657-.72.405-.45.623-.96.623-1.55 0-1.23-.876-2.32-2.498-2.32h-.147c-1.51 0-2.361 1.02-2.361 2.26 0 1.23.927 2.33 2.432 2.33"/></g></g></svg>