<svg xmlns="http://www.w3.org/2000/svg" viewBox="0 0 600 260.86" xmlns:xlink="http://www.w3.org/1999/xlink"><defs><clipPath id="7"><path d="m424.63 468.73h15.888v-13.405h-15.888v13.405"/></clipPath><clipPath id="6"><path d="m443.08 455.34h16.619v7.287h-16.619v-7.287"/></clipPath><clipPath id="9"><path d="m422.08 457.2h9.798v-7.227h-9.798v7.227"/></clipPath><clipPath id="B"><path d="m439.88 471.85l3.756-21.305-21.238-3.745-3.757 21.305"/></clipPath><clipPath id="A"><path d="m431.14 449.97c.247 0 .494.013.736.031 0 0-1.949.385-5.128 2.62-3.178 2.236-4.67 4.576-4.67 4.576.955-4.141 4.65-7.227 9.06-7.227"/></clipPath><clipPath id="8"><path d="m424.63 465.99s4.382.309 9.511-3.429c4.747-3.459 5.408-7.239 5.408-7.239s.956 1.965.96 4.061c.009 5.161-4.164 9.344-9.302 9.344-2.568 0-4.894-1.046-6.577-2.737"/></clipPath><clipPath id="5"><path d="m439.72 457.42l7.388 12.797 15.853-9.153-7.388-12.797"/></clipPath><clipPath id="1"><path d="m421.84 459.32c0-5.161 4.164-9.344 9.301-9.344 5.138 0 9.303 4.183 9.303 9.344s-4.165 9.344-9.303 9.344c-5.137 0-9.301-4.183-9.301-9.344"/></clipPath><clipPath id="2"><path d="m431.19 468.91c-5.273 0-9.548-4.282-9.548-9.565 0-5.284 4.275-9.566 9.548-9.566s9.548 4.282 9.548 9.566c0 5.283-4.275 9.565-9.548 9.565"/></clipPath><clipPath id="0"><path d="m440.73 449.78h-19.1v19.13h19.1v-19.13"/></clipPath><clipPath id="3"><path d="m452.69 462.88l-1.894-7.246s3.109-.041 4.764-.041c1.777 0 2.947.727 3.271 1.817.352 1.193.403 1.777.605 2.867.368 1.986-1.14 2.603-2.149 2.603h-4.597m2.597-5.648c-1.032.004-1.849.001-1.849.001l1.045 4.02h2.024c.811 0 .83-.775.735-1.247-.113-.565-.283-1.282-.49-1.848-.148-.402-.494-.938-1.454-.938h-.011m-10.516 5.645l-1.898-7.267h2.141l.755 2.825h3l-.726-2.825h2.098l1.879 7.262h-2.098l-.715-2.74h-3l.717 2.745h-2.154"/></clipPath><clipPath id="4"><path d="m415.2 449.56h44.505v19.349h-44.505v-19.349"/></clipPath><linearGradient id="F" gradientUnits="userSpaceOnUse" x1="429.52" x2="432.76" y1="468.52" y2="450.12"><stop stop-color="#f5a4c7"/><stop stop-color="#ec008c" offset="1"/></linearGradient><linearGradient id="E" gradientUnits="userSpaceOnUse" x2="0" y1="449.78" y2="468.91" xlink:href="#G"/><linearGradient id="D" gradientUnits="userSpaceOnUse" x2="0" y1="468.73" y2="455.32"><stop stop-color="#fad5e5"/><stop stop-color="#ec008c" offset="1"/></linearGradient><linearGradient id="C" gradientUnits="userSpaceOnUse" x1="447.63" x2="454.56" y1="452.87" y2="464.87"><stop stop-color="#343334"/><stop stop-color="#d5d7d8" offset=".17"/><stop stop-color="#a9acae" offset=".39"/><stop stop-color="#7c7e81" offset=".527"/><stop stop-color="#c6c8ca" offset=".643"/><stop stop-color="#515153" offset=".725"/><stop stop-color="#808285" offset=".83"/><stop stop-color="#dcddde" offset="1"/></linearGradient><linearGradient id="G" gradientUnits="userSpaceOnUse" x1="422.08" x2="431.88"><stop stop-color="#ef62a4"/><stop stop-color="#ed3193" offset="1"/></linearGradient></defs><g transform="translate(-246.81-347.89)"><g clip-path="url(#6)" transform="matrix(13.48174 0 0-13.48174-5350.75 6669.62)"><path d="m0 0c-1.656 0-4.765.04-4.765.04l1.894 7.247h4.597c1.01 0 2.517-.618 2.149-2.603-.201-1.091-.252-1.675-.605-2.867-.323-1.09-1.494-1.817-3.27-1.817m-1.078 5.671l-1.045-4.02s.818-.006 1.849-.011h.011c.961 0 1.307.537 1.454.939.208.566.377 1.282.49 1.848.095.471.076 1.246-.735 1.246h-2.024m-4.337-5.655h-2.098l.727 2.825h-3l-.756-2.825h-2.14l1.898 7.268h2.154l-.717-2.746h3l.715 2.741h2.099l-1.881-7.263" fill="#d9dbdc" transform="translate(455.77 455.34)"/></g><g clip-path="url(#5)" transform="matrix(13.48174 0 0-13.48174-5350.75 6669.62)"><g clip-path="url(#3)"><g clip-path="url(#4)"><path fill="url(#C)" d="m415.2 449.56h44.505v19.349h-44.505v-19.349"/></g></g></g><path d="m0 0l.035-.007c-.114-.567-.283-1.284-.492-1.853-.148-.41-.512-.964-1.488-.962-1.033.004-1.85.011-1.85.011h-.046l1.063 4.093h2.052c.315 0 .524-.117.646-.291.123-.173.163-.397.163-.611 0-.137-.016-.271-.039-.387l-.035.007-.034.007c.022.112.038.241.038.373-.005.415-.147.829-.739.831h-1.997l-1.038-3.996-.034.009v.035c.002 0 .817-.006 1.849-.0001.948.002 1.275.52 1.423.915.206.563.376 1.278.489 1.843l.034-.007m.045 2.862v-.035h-4.57l-1.887-7.22-.034.009v.035c.005 0 3.109-.041 4.764-.041 1.768 0 2.92.722 3.237 1.792.352 1.19.402 1.771.604 2.863.004.214.021.405.021.582-.002 1.501-1.276 1.984-2.17 1.987v.07c.913-.002 2.241-.505 2.241-2.057 0-.182-.018-.377-.057-.588-.202-1.088-.253-1.675-.607-2.87-.329-1.11-1.519-1.843-3.304-1.842-1.656 0-4.765.04-4.765.04h-.045l1.912 7.316h4.625v-.035zm-7.36-.008l.034-.009-.721-2.767h-3.077l.717 2.745h-2.082l-1.879-7.197h2.068l.756 2.826h3.077l-.727-2.826h2.025l1.862 7.193h-2.053v.035l.034-.009-.034.009v.035h2.144l-1.898-7.333h-2.171l.727 2.825h-2.932l-.756-2.825h-2.213l1.916 7.338h2.227l-.717-2.745h2.931l.715 2.74h.027v-.035" fill="#404041" transform="matrix(13.48174 0 0-13.48174 813.65 467.73)"/><path d="m0 0h-.139c-5.084.038-9.193 4.165-9.193 9.25s4.109 9.212 9.193 9.25h.139c5.083-.038 9.192-4.165 9.192-9.25s-4.109-9.212-9.192-9.25" fill="#d1d3d4" transform="matrix(13.48174 0 0-13.48174 467.09 608.75)"/><g clip-path="url(#0)" transform="matrix(13.48174 0 0-13.48174-5350.75 6669.62)"><g clip-path="url(#2)"><path fill="url(#E)" d="m431.19 468.91c-5.273 0-9.548-4.282-9.548-9.565 0-5.284 4.275-9.566 9.548-9.566s9.548 4.282 9.548 9.566c0 5.283-4.275 9.565-9.548 9.565"/></g></g><g clip-path="url(#B)" transform="matrix(13.48174 0 0-13.48174-5350.75 6669.62)"><g clip-path="url(#1)"><path fill="url(#F)" d="m421.84 459.32c0-5.161 4.164-9.344 9.301-9.344 5.138 0 9.303 4.183 9.303 9.344s-4.165 9.344-9.303 9.344c-5.137 0-9.301-4.183-9.301-9.344"/></g></g><g clip-path="url(#9)" transform="matrix(13.48174 0 0-13.48174-5350.75 6669.62)"><g clip-path="url(#A)"><path fill="url(#G)" d="m431.14 449.97c.247 0 .494.013.736.031 0 0-1.949.385-5.128 2.62-3.178 2.236-4.67 4.576-4.67 4.576.955-4.141 4.65-7.227 9.06-7.227"/></g></g><g clip-path="url(#7)" transform="matrix(13.48174 0 0-13.48174-5350.75 6669.62)"><g clip-path="url(#8)"><path fill="url(#D)" d="m424.63 465.99s4.382.309 9.511-3.429c4.747-3.459 5.408-7.239 5.408-7.239s.956 1.965.96 4.061c.009 5.161-4.164 9.344-9.302 9.344-2.568 0-4.894-1.046-6.577-2.737"/></g></g><g fill="#ee4d9b"><path d="m246.81 495.86h14.749v-56.39h-14.749v56.39"/><path d="m0 0c0 .119-.034.196-.102.229-.087.047-.272.07-.557.07h-.48c-.219 0-.366-.025-.441-.075-.075-.054-.113-.144-.113-.269 0-.1.043-.169.13-.207.082-.043.229-.064.441-.064h.309c.347 0 .569.025.666.076.098.046.147.126.147.24m-1.15.915c.338 0 .587-.014.744-.041.158-.026.286-.09.384-.191v.259c0 .153-.031.256-.091.306-.072.06-.211.09-.416.09h-.64c-.166 0-.276-.013-.331-.04-.057-.03-.085-.096-.085-.198h-1.051c0 .375.102.628.306.757.176.109.507.164.992.164h1.26c.758 0 1.138-.35 1.138-1.052v-1.92h-1.025v.331c-.15-.159-.281-.262-.392-.309-.112-.046-.299-.07-.562-.07h-.741c-.368 0-.631.051-.789.153-.197.124-.295.349-.295.677v.243c0 .367.133.605.4.716.2.083.598.125 1.194.125" transform="matrix(13.48174 0 0-13.48174 305.38 483)"/></g><g fill="#fff"><path d="m0 0h.644c.231 0 .394.034.489.101.112.084.169.232.169.442v.294c0 .213-.051.358-.153.435-.101.072-.27.109-.505.109h-.644c-.242 0-.403-.044-.483-.132-.061-.069-.091-.197-.091-.384v-.35c0-.182.03-.309.091-.378.08-.091.241-.137.483-.137m-.081 2.207h.323c.26 0 .471-.04.634-.12.201-.098.316-.254.346-.467l.013 1.782h1.094v-4.18h-1.027v.539c-.069-.195-.179-.338-.331-.428-.174-.106-.419-.159-.735-.159h-.317c-.64 0-1.071.113-1.293.34-.177.181-.265.484-.265.91v.533c0 .43.086.732.259.907.222.228.656.343 1.299.343" transform="matrix(13.48174 0 0-13.48174 364.49 485.37)"/><path d="m0 0c-.354 0-.574-.022-.661-.065-.091-.05-.136-.165-.136-.343h1.595c0 .171-.052.284-.156.337-.101.047-.316.071-.642.071m-.547.69h.764c.602 0 1.019-.081 1.25-.244.259-.182.389-.522.389-1.02v-.495h-2.653v-.178c0-.15.054-.254.161-.313.106-.062.276-.093.511-.093h.337c.261 0 .437.035.528.105.06.047.091.125.091.237h1.025v-.132c0-.344-.14-.587-.422-.729-.224-.114-.564-.171-1.02-.171h-.817c-.455 0-.793.074-1.014.221-.315.214-.472.604-.472 1.172v.287c0 .517.123.881.37 1.091.209.175.533.262.972.262" transform="matrix(13.48174 0 0-13.48174 430.26 464.94)"/><path d="m0 0v.473c-.098-.195-.241-.33-.427-.407-.187-.076-.436-.115-.747-.115-.49 0-.845.057-1.066.171-.371.19-.557.566-.557 1.129v1.694h1.093v-1.692c0-.291.236-.437.708-.437h.25c.239 0 .424.056.554.166.128.111.192.271.192.48v1.483h1.093v-2.945" transform="matrix(13.48174 0 0-13.48174 502.77 495.86)"/><path d="m0 0h1.416l.559-.797.558.797h1.414l-1.136-1.396 1.238-1.549h-1.38l-.694.993-.694-.993h-1.383l1.241 1.549" transform="matrix(13.48174 0 0-13.48174 526.92 456.15)"/></g></g></svg>