<svg xmlns="http://www.w3.org/2000/svg" height="484.95" width="600" viewBox="0 0 158.75 128.311"><g transform="translate(67.22-231.19)"><g fill="#381b45"><path d="m-67.22 232.51v101.52l32.501-2.46v-99.06z"/><path d="m57.05 273.95v50.01l32.493-2.47v-47.54z"/></g><path d="m73.29 267.66c10.112 0 18.235-8.13 18.235-18.24s-8.123-18.23-18.235-18.23c-10.111 0-18.235 8.12-18.235 18.23s8.124 18.24 18.235 18.24" fill="#772d87"/><path d="m12.52 293.18c7.46 0 11.722 5.31 10.566 14.93l-23.953 1.73c0-12.32 4.501-16.66 13.387-16.66m15.861 42.17c-3.214.39-6.497.6-9.772.6-11.484 0-17.888-2.25-19.17-7.51l50.828-3.76c.501-4.81.663-9.78.663-14.25 0-21.06-7.291-39.13-37.795-39.13-28.509 0-41.773 14.09-41.773 44.1 0 30 12.1 44.1 42.767 44.1 5.21 0 11.422-.45 17.61-1.44z" fill="#381b45"/></g></svg>