<svg xmlns="http://www.w3.org/2000/svg" height="392.34" width="600" viewBox="0 0 158.75 103.80794"><g transform="translate(52.06-243.44)"><g fill="#381b45"><path d="m-52.06 244.51v82.14l26.294-2v-80.14z"/><path d="m48.48 278.04v40.45l26.288-1.99v-38.46z"/></g><path d="m61.62 272.94c8.18 0 14.752-6.57 14.752-14.75s-6.572-14.75-14.752-14.75c-8.181 0-14.753 6.57-14.753 14.75s6.572 14.75 14.753 14.75" fill="#772d87"/><g fill="#381b45"><path d="m12.45 293.6c6.04 0 9.484 4.29 8.549 12.07l-19.38 1.4c0-9.96 3.642-13.47 10.831-13.47m12.832 34.11c-2.6.31-5.256.49-7.906.49-9.291 0-14.472-1.82-15.507-6.08l41.12-3.04c.406-3.89.537-7.91.537-11.54 0-17.03-5.899-31.65-30.578-31.65-23.06 0-33.795 11.4-33.795 35.68 0 24.27 9.789 35.67 34.599 35.67 4.215 0 9.241-.36 14.248-1.16z"/><path d="m83.81 310.4h-5.556v-3.45h5.556v-5.56h3.454v5.56h5.556v3.45h-5.556v5.56h-3.454z"/><path d="m97.99 298.86c2.506-.49 4.376-1.38 5.846-3.45h2.85v20.55h-4.95v-12.32c0-1.61-.15-2.36-1.844-2.36h-1.902z"/></g></g></svg>