<svg xmlns="http://www.w3.org/2000/svg" height="364.24" width="600" viewBox="0 0 158.75 96.371208"><g transform="translate(-19.12-67.945)"><g fill="#231f20"><path d="m19.12 102.66v57.41h10.451v-22.83h7.168c9.01 0 16.311-7.3 16.311-16.31v-1.31c0-9.36-7.592-16.96-16.96-16.96h-2.719-14.251m10.451 10.44h5.221 1.298c3.602 0 6.518 2.92 6.518 6.52v1.31c0 3.24-2.634 5.86-5.879 5.86h-1.937-5.221v-13.69"/><path d="m54.32 87.76l6.726-1.185.733 4.139-10.864 1.918-4.02-22.773 10.864-1.918.734 4.138-6.735 1.195.827 4.656 6.726-1.185.734 4.139-6.735 1.185 1.01 5.691"/><path d="m100.21 102.66v57.4l10.45.001v-22.84h5.41l7.13 22.83h10.94l-7.88-25.17c4.72-2.86 7.88-8.05 7.88-13.96v-1.31c0-9.36-7.6-16.96-16.96-16.96h-2.72-14.25m10.45 10.44h5.21 1.31c3.6 0 6.51 2.92 6.51 6.52v1.31c0 3.24-2.62 5.87-5.87 5.87h-1.95-5.21v-13.7"/><path d="m42.845 89.73l4.873-.856.743 4.195-9.209 1.618-4.064-23.08 4.327-.762 3.33 18.888"/><path d="m177.87 160.06v-57.39h-10.45v33.54l-14.68-33.54h-11.4v57.39h10.42v-33.57l14.71 33.57h11.4"/></g><path d="m72.51 96.36c-.851.02-1.711.104-2.575.257-9.228 1.627-15.389 10.42-13.762 19.64l6 34.04c1.627 9.22 10.422 15.38 19.65 13.76 9.218-1.63 15.389-10.43 13.762-19.66l-6-34.04c-1.475-8.35-8.845-14.187-17.08-13.997m4.78 10.237c.221-.001.443 0 .668.02 3.584.31 6.237 3.48 5.926 7.06l-3.02 34.44c-.31 3.59-3.471 6.25-7.06 5.94-3.584-.32-6.237-3.48-5.927-7.08l3.01-34.43c.3-3.36 3.097-5.91 6.406-5.95" fill="#ec008c"/></g></svg>