<svg xmlns="http://www.w3.org/2000/svg" viewBox="0 0 600 127.43"><defs><clipPath><path d="m325.47 599.43h27.19v7.246h-27.19v-7.246"/></clipPath></defs><g transform="matrix(.98945 0 0 .98945-43.839-460.43)"><path d="m44.31 594.13h606.4v-128.79h-606.4v128.79" fill="#ed2123"/><g fill="#fff"><path d="m0 0l.171.397h-.765l.876 2.038h-1.097l-.173-.402h.26l-.874-2.033h1.602" transform="matrix(22.0678 0 0-22.0678 165.22 556.45)"/><path d="m0 0c-.072-.384-.353-.805-.894-.932.097.214.228.53.228.53h-.258l.174.402h.75" transform="matrix(22.0678 0 0-22.0678 194.09 502.71)"/><path d="m0 0h-.48l-.082-.192h-.595l-.173-.402h.26l-.873-2.033h1.578l.173.402h-.765l.295.689h.77l.149.346h-.768l.252.596h.767l.173.402h-.764l.083.192" transform="matrix(22.0678 0 0-22.0678 227.06 498.47)"/><path d="m0 0l-.553-1.287-.121.199-.306-.17.075-.115c-.265 0-.222.221-.157.345l.482 1.123c.057.127.173.183.288.187.183.009.361-.113.292-.282m-.292.654c-.799-.005-1.137-.568-1.322-.963-.53-1.129.313-1.463.505-1.498.109-.02.33-.02.439 0l.071-.119h.414l-.14.213c.31.021.675.445.835.784.16.341.628 1.557-.802 1.583" transform="matrix(22.0678 0 0-22.0678 273.69 517.15)"/><path d="m0 0h-1.044l-.173-.402h.258l-.509-1.183c-.204-.447.1-.859.759-.864.678-.005.897.417.969.592l.797 1.857h-.434l-.789-1.835c-.137-.272-.752-.247-.579.1l.745 1.735" transform="matrix(22.0678 0 0-22.0678 323.14 502.71)"/><path d="m0 0h-1.061l-.173-.402h.259l-.871-2.033h.8l1.046 2.435" transform="matrix(22.0678 0 0-22.0678 375.96 502.71)"/><path d="m0 0c.199 0 .082-.401.046-.471-.036-.071-.138-.309-.291-.309h-.325l.335.78h.235m.347.402h-1.456l-.173-.402h.262l-.873-2.033h.785l.364.848h.8c.372 0 .636.368.76.689.128.329.041.898-.469.898" transform="matrix(22.0678 0 0-22.0678 406.49 511.59)"/><path d="m0 0l-.174-.402h.261l-.874-2.033h1.578l.173.402h-.765l.295.689h.77l.149.346h-.768l.252.596h.767l.173.402h-1.837" transform="matrix(22.0678 0 0-22.0678 432.82 502.71)"/><path d="m0 0h-1.042l-.17-.406h.232l-.861-2.029h.795l1.046 2.435" transform="matrix(22.0678 0 0-22.0678 565.13 502.71)"/><path d="m0 0h-1.054l-.177-.403h.882c.2 0 .138-.257.104-.332-.044-.095-.132-.253-.286-.253h-.473c-.469 0-.631-.369-.764-.692l-.327-.755h1.913l.177.403h-1.123c0 0 .141.32.159.361.049.108.139.311.293.311h.547c.321 0 .559.289.639.625.087.369-.039.735-.51.735" transform="matrix(22.0678 0 0-22.0678 520.76 502.72)"/></g></g></svg>