<svg xmlns="http://www.w3.org/2000/svg" viewBox="0 0 600 90.74"><g transform="matrix(1.13422 0 0 1.13422-260.91-865.67)"><g fill="#ed1d25"><path d="m252.17 768.61h30.07l-25.386 59.2h22.337l-4.483 10.503h-44.675l25.08-58.53h-7.736l4.79-11.169"/><path d="m286.72 779.77l4.79-11.169h21.902c0 0-3.151 12.501-9.247 17.419-5.584 4.508-15.01 8.71-15.01 8.71l6.43-14.96h-8.863"/><path d="m324.3 768.61h17.854l2.305-5.379h13.705l-2.305 5.379h20.8l-4.79 11.169h-22.312l-7.557 17.65h22.286l-3.714 8.71h-22.286l-9.299 21.671h22.337l-4.508 10.503h-44.649l25.08-58.53h-7.736l4.79-11.169"/><path d="m394.64 826.81l-1.998-3.381 9.04-4.816 3.048 5.507c1.511-1.87 1.947-3.791 2.843-5.917l12.629-29.484c2.126-4.944.231-9.76-7.377-9.76-5.636 0-7.864 3.638-10.528 9.76l-12.629 29.484c-1.998 4.662-.102 8.505 4.406 8.914l.564-.307m9.504 16.42l-2.818-3.842c-1.383.154-4.841.461-6.225.461-17.829 0-30.97-13.858-23.926-35.914 5.917-18.546 19.468-36.02 42.34-36.02 26.641 0 31.2 17.854 25.821 36.27-4.099 13.91-13.5 29.07-27.691 32.609l4.099 6.43h-12.27.666"/><path d="m526.18 768.61h27.64l-29.868 69.7h-22.414l25.08-58.53h-7.147l4.944-11.169h1.768"/><path d="m450.13 779.77l4.79-11.169h30.765l-19.52 45.571c0 0-7.147 12.731 3.919 12.731 7.967 0 11.502-6.66 11.502-6.66l22.337-51.642h12.398l-23 54.23c0 0-7.634 16.292-28.23 16.292-20.339 0-26.564-14.217-20.724-27.845 7.582-17.65 13.5-31.508 13.5-31.508h-7.736"/><path d="m629.65 768.61h52.36l-4.79 11.169h-22.286l-7.557 17.65h22.286l-3.74 8.71h-22.286l-9.299 21.671h22.337l-4.483 10.503h-44.675l25.08-58.53h-7.736l4.79-11.169"/></g><g fill="#fff"><path d="m734.98 768.43l-3.074 24.21 17.445-24.03h9.683l-28.23 38.809h-12.911l4.124-38.962"/><path d="m685.64 807.47l11.322-27.819h-8.274l4.765-11.04h27.384l-4.688 11.04h-8.3l-11.297 27.819"/></g><path d="m587.89 779.77l-9.785 22.798h9.555c3.766 0 6.968-4.483 9.35-10.07 2.408-5.584 3.971-12.731-3.02-12.731h-6.097m17.16-11.169c10.759 0 16.984 10.118 15.677 17.726-4.918 29.2-24.05 27.614-24.05 27.614h-23.439l-10.426 24.361h-22.286l25.08-58.53h-7.736l4.765-11.169h42.42" fill="#ed1d25" fill-rule="evenodd"/></g></svg>