<svg xmlns="http://www.w3.org/2000/svg" height="260.1" viewBox="0 0 238.75 260.10425"><path fill="#fec500" d="m169.72 242.92l-.348-17.188-5.938-.381-5.938-.381v-4.931-4.931h18.12 18.12v5 5h-6.25-6.25v17.5 17.5h-5.59-5.59l-.348-17.188m40.889 15.692c-1.08-2.9-14.36-42.78-14.36-43.15 0-.195 2.734-.355 6.075-.355h6.075l4.199 15.625c2.309 8.594 4.638 15.625 5.175 15.625.537 0 .976-.644.976-1.43 0-.787 1.758-7.818 3.906-15.625l3.906-14.195h5.469c3.547 0 5.466.549 5.459 1.563-.005.859-3.07 10.844-6.811 22.19l-6.801 20.625-6.328.378c-4.339.259-6.52-.134-6.939-1.25zm-103.11-86.01v-83.75h-27.5-27.5v-11.25-11.25h27.5 27.5v-17.273c0-22.656 1.668-28.592 10.442-37.15 7.47-7.277 14.59-9.938 29.87-11.158l9.69-.773v10.677 10.677h-6.706c-13.11 0-17.08 6.548-18.01 29.688l-.616 15.312h28.29 28.29v10.479c0 9.811-.179 10.527-2.813 11.233-1.547.415-14.203.761-28.12.771l-25.312.017v83.75 83.75h-12.5-12.5v-83.75zm-107.5-44.37v-60.63h15.625 15.625v60.62 60.62h-15.625-15.625v-60.62zm180.06 59.34c-12.988-2.737-23.413-13.351-27.05-27.536-4.932-19.251 3.167-37.849 20.12-46.2 5.669-2.793 7.768-3.08 22.588-3.093 15.717-.014 16.618.129 23.696 3.749 12.527 6.406 19.34 18.592 19.34 34.589v7.273h-28.75c-28.354 0-28.75.036-28.75 2.62 0 4.207 3.927 9.679 8.504 11.851 5.286 2.508 11.349 1.543 16.26-2.589 3.474-2.923 3.942-2.982 14.724-1.847 6.125.644 12.422 1.181 13.993 1.194 2.534.02 2.694.326 1.419 2.708-2.798 5.228-12.447 13.345-18.328 15.419-7.03 2.479-29.565 3.589-37.766 1.861zm29.94-46.88c0-7.214-7.141-14.335-14.375-14.335-7.195 0-14.375 6.837-14.375 13.688 0 2.434.717 2.562 14.375 2.562 12.08 0 14.375-.306 14.375-1.915m-157.5 8.165v-38.75h15 15v38.75 38.75h-15-15v-38.75"/></svg>