<svg xmlns="http://www.w3.org/2000/svg" height="188.02" viewBox="0 0 190.69577 188.02246" width="190.7"><path fill="#fff" d="m0 0h190.7v188.02h-190.7z"/><path fill="#c51015" d="m-5.347 98.02v-105.15h105.15 105.15v105.15 105.15h-105.15-105.15v-105.15m105 65.11c1.073-.266 2.456-.618 3.075-.783l1.125-.3v-9.288-9.288h-6.45-6.45v3.3 3.3h2.7 2.7v3.444c0 3.434-.002 3.445-.758 3.635-.417.105-2.071.136-3.675.069-2.617-.109-3.111-.226-4.805-1.134-2.957-1.584-4.527-3.991-5.15-7.894-.826-5.171 1.386-9.916 5.494-11.783 3.285-1.493 8.44-1.612 12.213-.28.701.247 1.352.372 1.447.278.095-.095.533-1.526.975-3.18l.803-3.01-.947-.39c-1.974-.814-4.669-1.177-8.746-1.179-4.763 0-7.544.596-10.785 2.315-3.733 1.981-7.151 6.107-8.249 9.958-.587 2.06-.856 5.796-.591 8.197.844 7.621 5.603 12.749 13.324 14.358 2.426.506 10.163.297 12.75-.344m51.792.119c1.577-.764 2.845-2.173 3.972-4.418.855-1.701 10.235-28.882 10.235-29.657 0-.298-.506-.405-1.914-.405-1.807 0-1.932.046-2.244.825-.182.454-1.67 4.808-3.307 9.675-6.142 18.263-6.074 18.09-7.627 19.725-1.635 1.723-3.156 1.038-4.688-2.111-.499-1.025-2.335-6.386-4.081-11.914-1.746-5.528-3.616-11.4-4.157-13.05l-.983-3-15.666-.078-15.666-.078.091 1.578.091 1.578 6.525.081 6.525.081v15.744 15.744h1.95 1.95v-15.757-15.757l5.6.082 5.6.082.53 1.65c.292.907 1.226 3.877 2.077 6.6 5.418 17.337 5.965 18.771 8 21.03 2.125 2.352 4.661 2.97 7.18 1.751zm-90.49-3.403v-3.723l-5.932-.102-5.932-.102-1.975-.973c-2.128-1.048-3.139-2.19-4.051-4.577-.441-1.154-.534-2.823-.639-11.483l-.123-10.133-4.098.083-4.098.083.016 10.5.016 10.5.806 2.423c1.457 4.382 4.422 7.766 8.399 9.586 2.826 1.294 4.946 1.591 11.539 1.617l6.075.024v-3.723m10.427-13.602l-.077-17.325h-3.9-3.9l-.077 17.325-.077 17.325h4.055 4.055l-.077-17.325m-1.497-20.939c.611-.255 1.43-.762 1.82-1.125.889-.829 1.847-2.67 1.859-3.574.009-.635.04-.647.408-.162.219.289.552.525.74.525s.342.338.342.75c0 .467.17.75.45.75.25 0 .45.267.45.6 0 .4.2.6.6.6.347 0 .6.2.6.474 0 .374.205.433.975.281 1.246-.247 2.71-1.856 3.203-3.521.522-1.764.343-1.527 4.466-5.916 3.981-4.237 5.02-5.932 5.902-9.618 1.213-5.075 1.504-5.471 5.388-7.335l2.781-1.335 2.691 1c1.48.55 3.135 1.23 3.677 1.51.542.28 1.092.397 1.222.259.13-.138.864-1.394 1.632-2.792.768-1.398 1.452-2.597 1.52-2.665.068-.068.625.317 1.237.855 1.714 1.505 4.279 3.053 4.846 2.924.28-.064 1.016.133 1.635.437 1.71.84 4.638 1.507 5.645 1.286 1.256-.276 2.528-1.436 3.469-3.166.551-1.013.995-1.48 1.406-1.48.663 0 8.234-7.667 8.766-8.877.172-.391 1.04-1.253 1.929-1.917 1.221-.911 1.895-1.206 2.751-1.206.624 0 1.849-.293 2.721-.652 1.021-.419 2.547-.713 4.28-.825 2.578-.166 2.706-.208 2.972-.969.227-.647.144-.965-.444-1.708-.397-.502-.912-.921-1.144-.93-.232-.009-.854-.346-1.383-.75-.646-.492-1.182-.675-1.634-.557-.414.108-.773.015-.933-.242-.212-.341-.372-.349-.865-.043-1.164.721-4.813.103-4.813-.815 0-.193-.3-.246-.754-.132-.415.104-.929.044-1.143-.134-.284-.236-.669-.184-1.421.192-1.104.551-1.734 1.825-1.765 3.569-.012.689-.247 1.117-.842 1.537-1.209.853-3.604 2-5.378 2.584-2.11.691-3.763 1.951-5.03 3.838l-1.063 1.579v-1.556-1.556l-2.448-1.506c-1.76-1.083-2.311-1.559-1.961-1.693.912-.35.83-1.267-.38-4.27-1.326-3.29-1.366-3.523-.873-5.168.268-.894.232-1.699-.174-3.909l-.511-2.783 1.231-1.746c1.382-1.959 1.891-3.896 1.621-6.17-.217-1.834.099-2.123 2.456-2.244 1.326-.068 1.79-.205 1.79-.53 0-.302.364-.45 1.175-.478.912-.032 1.365-.254 2.025-.992.467-.523.85-1.291.85-1.706 0-1.964-1.965-4.336-3.591-4.336-.465 0-.92-.197-1.013-.438-.242-.631-3.116-2.034-3.36-1.64-.107.174.02.554.284.846.713.787.586 1.029-.433.825-.519-.104-1.182-.023-1.539.188-.475.281-.658.285-.755.017-.071-.194-.829-.718-1.686-1.164-2.228-1.16-2.144-.862-1.482-5.234.238-1.572.368-4.864.219-5.573-.118-.566-1.035-1.209-4.134-2.901-1.634-.892-5.059-.462-6.511.817-.412.364-1.175.952-1.695 1.308-.795.544-.963.873-1.059 2.073-.122 1.52.323 3.766.85 4.293.21.21.232.787.064 1.684-.268 1.435-.162 1.899.436 1.899.199 0 .494.243.657.539.809 1.473 1.537 2.468 1.911 2.612.228.088.87-.107 1.425-.435 1.398-.825 1.264-.498-.466 1.138-.939.888-1.992 2.378-2.895 4.096-.78 1.485-1.669 3.167-1.974 3.738-.305.571-.555 1.347-.555 1.723 0 .532-.586 1.063-2.621 2.376-1.442.93-4.209 3.02-6.15 4.648-3.896 3.264-3.588 3.141-9.679 3.885-1.485.181-2.747.377-2.805.435-.342.342.46.745 1.48.745 1.186 0 1.188.002.718.718-.291.444-.494 1.505-.532 2.775l-.061 2.057h.9c.852 0 .905-.071.996-1.35.105-1.484.729-2.4 1.632-2.4.494 0 .433.142-.393.914-.748.699-.895.996-.626 1.265.483.483 2.152-.42 4.091-2.215 1.928-1.785 3.268-2.455 8.4-4.2l4.2-1.428.277 1.228c.191.847.158 1.748-.107 2.907-.211.924-.491 2.759-.621 4.079-.242 2.452-1.133 5.919-1.568 6.102-.654.275-1.153 1.046-.865 1.335.503.503-.139 1.341-3.84 5.01-1.978 1.963-3.864 4.141-4.376 5.05-.495.882-1.41 2.299-2.033 3.15-1.099 1.5-1.448 2.402-1.856 4.789-.107.628-.474 1.371-.816 1.65-.984.805-5.421 10.194-5.49 11.62-.033.667-.292 1.567-.576 2-.483.736-.631.779-2.223.632-1.245-.115-2.062-.405-3.02-1.074-1-.698-1.431-.844-1.799-.612-.353.222-.789.145-1.618-.287-2.543-1.326-6.149-.349-7.866 2.13-.802 1.157-.902 1.546-.902 3.496 0 1.984.09 2.318.945 3.497 1.745 2.409 4.852 3.312 7.536 2.191"/></svg>