<svg xmlns="http://www.w3.org/2000/svg" viewBox="0 0 600 396.49"><g fill="#fff" color="#000"><path d="m0 107.87v2.5 103 2.5h2.5 58.62 2.5v-2.5-14.406-2.5h-2.5-37.437v-86.09-2.5h-2.5-18.687-2.5"/><path d="m78.41 107.87v2.5 63.906c0 13.01 1.273 22.2 4.531 28 3.073 5.472 7.737 9.509 13.687 11.937 5.851 2.388 12.62 3.563 20.312 3.563 9.902 0 18.04-1.844 24.281-5.75 6.101-3.82 10.245-8.869 12-14.937 1.685-5.829 2.437-13.745 2.438-23.937v-62.781-2.5h-2.5-16.781-2.5v2.5 63.62c0 8.751-.674 14.663-1.5 16.906-.929 2.523-2.396 4.329-4.594 5.687-2.078 1.284-5.297 2.063-9.75 2.063-4.686 0-8.158-.942-10.562-2.563-2.492-1.679-3.933-3.721-4.625-6.562-.732-3-1.188-8.202-1.188-15.25v-63.906-2.5h-2.5-18.25-2.5"/><path d="m212.15 106c-10.812 0-19.825 2.959-26.593 9-6.71 5.989-10.219 13.695-10.219 22.531 0 5.819 1.542 11.179 4.625 15.812 3 4.517 6.745 8.04 11.125 10.406 4.248 2.3 10.805 4.953 19.906 8.094 8.39 2.915 13.524 5.874 14.937 7.594 1.845 2.246 2.656 4.452 2.656 6.937 0 3.554-1.179 6.256-3.844 8.687-2.523 2.303-6.386 3.594-12 3.594-5.716 0-10.05-1.411-13.344-4.156-3.295-2.746-5.688-6.941-7.06-12.906l-.563-2.5-2.5.625-16.687 4.312-2.438.625.625 2.406c2.586 10.02 7.377 17.81 14.344 23 6.967 5.19 15.978 7.719 26.781 7.719 12.492 0 22.593-3.191 29.843-9.781 7.134-6.484 10.875-14.67 10.875-23.968 0-5.733-1.422-10.937-4.25-15.406-2.768-4.373-6.441-7.923-10.906-10.531-4.369-2.552-10.373-5.115-18.12-7.812-8.892-3.087-14.82-5.83-17.312-7.687-2.465-1.837-3.5-3.89-3.5-7 0-2.77.992-5.05 3.281-7.312 2.13-2.104 5.136-3.25 9.594-3.25 4.884 0 8.389 1.15 10.906 3.281 2.594 2.197 4.879 5.785 6.656 10.937l.812 2.313 2.313-.719 15.969-5.062 2.344-.75-.719-2.375c-2.659-8.704-7.172-15.462-13.531-19.969-6.359-4.507-14.445-6.687-24-6.687"/><path d="m262.84 107.87v2.5 14.5 2.5h2.5 22.468v85.999 2.5h2.5 18.687 2.5v-2.5-85.999h22.718 2.5v-2.5-14.5-2.5h-2.5-68.874-2.5"/><path d="m68.28 248.09v2.5 103.03 2.5h2.5 18.687 2.5v-2.5-37.718h7.156c10.971 0 19.225-1.039 25-3.438 5.662-2.352 10.256-6.286 13.594-11.562 3.367-5.323 5-11.673 5-18.844 0-7.824-2.058-14.729-6.187-20.437-4.075-5.633-9.274-9.435-15.406-11.125-5.897-1.625-13.333-2.406-22.406-2.406h-27.937-2.5m23.686 18.219h6.75c5.297 0 9.147.377 11.219.937 1.798.487 3.626 1.836 5.5 4.469 1.728 2.428 2.687 5.702 2.688 10.06 0 5.923-1.433 9.645-3.906 11.844-2.363 2.1-7.515 3.594-15.5 3.594h-6.75v-30.906"/><path d="m154.12 248.09v2.5 63.937c0 13.01 1.273 22.17 4.531 27.968 3.073 5.472 7.737 9.54 13.687 11.969 5.851 2.388 12.651 3.531 20.344 3.531 9.902 0 18.04-1.844 24.281-5.75 6.101-3.82 10.214-8.837 11.969-14.906 1.685-5.829 2.469-13.745 2.469-23.937v-62.812-2.5h-2.5-16.781-2.5v2.5 63.62c0 8.751-.674 14.663-1.5 16.906-.929 2.523-2.396 4.329-4.594 5.687-2.078 1.284-5.328 2.063-9.781 2.063-4.686 0-8.127-.911-10.531-2.531-2.492-1.679-3.964-3.753-4.656-6.594-.732-3-1.156-8.171-1.156-15.219v-63.937-2.5h-2.5-18.281-2.5"/><path d="m249.28 248.09v2.5 103.03 2.5h2.5 18.687 2.5v-2.5-40.531h13.344l16.969 41.468.656 1.563h1.656 20.281 3.906l-1.656-3.563-20.437-44.44c10.754-5.783 16.531-15.418 16.531-28 0-10.02-3.199-18.19-9.625-23.781-6.498-5.651-16.207-8.25-28.843-8.25h-33.968-2.5zm23.687 18.219h11.969c5.781 0 9.736 1.259 12.187 3.406 2.452 2.147 3.75 5.342 3.75 10.25 0 4.699-1.296 8.144-3.844 10.875-2.401 2.573-6.275 4.063-12.25 4.062h-11.812v-28.593"/></g><g fill="#da0000"><path d="m486.15 106.97c-11.965.162-23.73 5.192-23.645 17.718.089 13.11 7.949 17.498 17.75 17.498.193 0 .375-.025.567-.031v.473s81.18-12.12 82.979 55.33c-4.431 31.55-20.867 48.679-45.998 51.17-39.03 3.867-85.28-4.694-106.31 17.718-9.43 10.05-17.643 28.24-18.223 48.709-.844 21.246.067 42.577-.914 63.779 0 9.473 7.678 17.15 17.15 17.15 8.431 0 15.427-6.076 16.867-14.09 1.423-12.586 1.38-26.97 1.576-40.07.124-20.754-.797-42.947 6.652-48.741 13.892-10.805 57.746-3.749 91.02-7.22 23.385-2.439 74.09-28.843 74.37-86.67.277-56.02-33.14-93.8-111.45-92.69-.796-.032-1.598-.042-2.396-.031z"/><path d="m410.08 0c-10.213 0-18.443 8.23-18.443 18.443v103.25s-2.039 40.525 3.462 56.963c3.331 9.954 8.354 15.918 16.441 22.608 9.375 7.755 17.931 10.579 29.941 12.52 20.17 3.26 49.844 1.513 49.844 1.513h18.443c10.213 0 18.443-8.23 18.443-18.443s-8.23-18.443-18.443-18.443c-15.484-.335-30.734.34-45.904.126-10.162-.14-17.447-.218-25.979-6.397-8-6.109-9.947-17.817-9.836-28.19l.48-125.51c0-10.213-8.23-18.443-18.44-18.443z"/></g></svg>