<svg xmlns="http://www.w3.org/2000/svg" viewBox="0 0 600 87.989"><g transform="translate(227.3-571.26)"><path d="m372.7 659.25h-600v-87.989h600v87.989" fill="#fff"/><path d="m225.35 656.84h-450.29v-83.23h450.29v83.23"/><g fill="#939598"><path d="m241.45 646.47v-62.58h12.989v25.366h26.14v-25.366h12.989v62.58h-12.989v-28.664h-26.14v28.664h-12.989"/><path d="m309.51 646.47v-62.58h26.954c9.691 0 17.1 2.565 22.272 7.736 5.171 5.13 7.736 12.541 7.736 22.23 0 10.342-2.728 18.363-8.184 24.06-5.497 5.7-13.151 8.551-22.964 8.551h-25.814m12.989-8.918h9.731c6.84 0 11.93-1.914 15.309-5.7 3.38-3.787 5.05-9.528 5.05-17.264 0-5.985-1.344-10.953-4.072-14.943-1.832-2.728-4.072-4.601-6.718-5.66-2.606-1.018-6.433-1.547-11.441-1.547h-7.858v45.11"/></g><g fill="#fff"><path d="m-159.81 626.74c.407 0 .692-.122.896-.407.204-.285.366-.855.448-1.71h.936v12.989h-.936c-.082-.814-.244-1.303-.448-1.466-.204-.163-.489-.285-.896-.285h-39.37v-.896c.977-.082 1.547-.244 1.792-.489.204-.244.326-.529.326-.855v-35.22c0-.326-.122-.651-.326-.855-.244-.244-.814-.407-1.792-.489v-.896h15.554v.896c-.977.082-1.547.244-1.792.489-.204.244-.326.529-.326.855v28.339h25.936"/><path d="m-101.43 597.54c-.244-.244-.814-.407-1.791-.489v-.896h15.554v.896c-.977.082-1.547.244-1.791.489-.204.204-.326.529-.326.855v20.277c0 3.339-.529 6.148-1.629 8.388-1.059 2.28-2.565 4.112-4.438 5.456-1.873 1.384-4.112 2.321-6.637 2.85-2.524.529-5.252.774-8.103.774s-5.578-.244-8.103-.774-4.764-1.466-6.637-2.85c-1.873-1.344-3.38-3.176-4.438-5.456-1.099-2.239-1.629-5.05-1.629-8.388v-20.277c0-.326-.122-.651-.326-.855-.244-.244-.814-.407-1.792-.489v-.896h15.554v.896c-.977.082-1.547.244-1.791.489-.204.244-.326.529-.326.855v20.318c0 2.932.814 5.01 2.484 6.27 1.669 1.262 3.99 1.914 7 1.914 3.01 0 5.375-.651 7-1.914 1.669-1.262 2.484-3.339 2.484-6.27v-20.318c0-.326-.082-.611-.326-.855"/><path d="m-62.66 634.97c.448 0 1.018-.448 1.751-1.303l15.06-17.956-14.01-17.671c-.366-.407-.692-.651-.977-.814-.244-.122-.529-.163-.774-.163v-.936h17.63v.936c-.611.041-1.059.122-1.344.204-.326.122-.448.366-.448.774 0 .082.326.57.977 1.384.651.814 1.384 1.751 2.199 2.728.855.977 1.629 1.914 2.362 2.769.733.896 1.181 1.466 1.384 1.71.326-.366.855-.977 1.588-1.832.774-.896 1.507-1.832 2.28-2.769.814-.977 1.507-1.832 2.117-2.606.651-.774.977-1.262.977-1.384 0-.407-.204-.692-.57-.814-.407-.122-.733-.163-1.018-.163v-.936h17.264v.936c-.814.041-1.425.326-1.914.896l-13.844 17.223 15.309 19.422c.122.204.326.326.57.326.285.041.529.041.774.041v.896h-17.63v-.896c.936 0 1.425-.122 1.425-.366 0-.204-.244-.651-.733-1.384-.489-.692-1.059-1.547-1.791-2.524-.733-.977-1.547-2.036-2.402-3.135-.896-1.14-1.751-2.239-2.565-3.298-.122.244-.448.651-.936 1.221-.448.529-.977 1.14-1.588 1.792-.57.651-1.181 1.344-1.832 2.077-.651.733-1.262 1.425-1.791 2.077-.57.651-1.018 1.221-1.384 1.71-.326.448-.529.814-.529 1.018 0 .407.244.611.692.692.448.082.814.122 1.14.122v.896h-17.427v-.896"/><path d="m39.17 621.37c-.122-.489-.326-.936-.651-1.262-.326-.326-.855-.489-1.629-.489h-14.01v7.125h24.19c.407 0 .733-.122.936-.407.204-.285.326-.896.448-1.873h.896v12.866h-.896c-.122-.651-.244-1.059-.448-1.221-.204-.163-.529-.244-.936-.244h-37.622v-.896c.977-.082 1.547-.244 1.791-.489.204-.204.326-.529.326-.855v-35.06c0-.366-.122-.651-.326-.896-.244-.204-.814-.366-1.791-.489v-.896h37.622c.407 0 .733-.122.936-.407.204-.285.326-.896.448-1.751h.896v13.11h-.896c-.122-.855-.244-1.425-.448-1.71-.204-.244-.529-.407-.936-.407h-24.19v6.23h14.01c.774 0 1.303-.163 1.629-.489.326-.326.529-.733.651-1.221h.896v11.726h-.896"/><path d="m84.52 626.2c1.181 1.181 1.751 2.606 1.751 4.194 0 1.629-.57 2.972-1.751 4.112-1.181 1.099-2.565 1.669-4.194 1.669-1.588 0-2.972-.57-4.153-1.669-1.181-1.14-1.791-2.484-1.791-4.112 0-1.588.611-3.01 1.791-4.194s2.565-1.792 4.153-1.792c1.629 0 3.01.611 4.194 1.792"/><path d="m144.6 602.38c.285-.204.448-.611.448-1.303h.896v10.953h-.896c0-.733-.163-1.181-.448-1.384-.285-.204-.611-.285-.896-.285h-10.79v23.25c0 .57.204.896.57 1.059.366.163.774.244 1.181.285v.936h-13.64v-.936c.407-.041.814-.122 1.181-.285.366-.163.57-.489.57-1.059v-23.25h-10.79c-.326 0-.611.082-.896.285-.326.204-.448.651-.448 1.384h-.936v-10.953h.936c0 .692.122 1.099.448 1.303.285.204.57.285.896.285h31.718c.285 0 .611-.082.896-.285"/><path d="m179.82 602.67v.896c-.285 0-.692.041-1.181.082-.448.041-.692.285-.692.692 0 .082.122.611.448 1.506.285.896.692 1.995 1.181 3.298.448 1.344.977 2.728 1.547 4.275.529 1.547 1.059 3.01 1.547 4.397.529 1.384.977 2.606 1.344 3.664.366 1.059.611 1.751.692 2.077h.163c.651-1.588 1.425-3.461 2.362-5.619.896-2.117 1.751-4.194 2.524-6.148.814-1.954 1.506-3.664 2.077-5.09.611-1.425.896-2.199.896-2.362 0-.407-.244-.651-.692-.692-.448-.041-.814-.082-1.059-.082v-.896h12.581v.896c-.407.041-.733.163-1.018.285-.244.122-.448.366-.57.774-.122.57-.529 1.629-1.14 3.257-.651 1.588-1.384 3.461-2.28 5.578-.855 2.117-1.792 4.357-2.728 6.678-.977 2.362-1.873 4.519-2.687 6.515-.855 1.954-1.506 3.624-2.036 4.967-.529 1.344-.814 2.036-.814 2.158 0 .407.204.692.529.936.366.204.733.326 1.059.244v.936h-15.879v-.936c.326.082.692-.041 1.059-.244.326-.244.489-.529.489-.936 0-.082-.204-.814-.692-2.28s-1.099-3.257-1.832-5.415c-.692-2.158-1.506-4.519-2.402-7.085-.855-2.524-1.71-4.886-2.524-7.085-.814-2.199-1.506-4.03-2.077-5.538-.57-1.506-.977-2.321-1.14-2.443-.326-.163-.57-.285-.733-.326-.163 0-.366-.041-.57-.041v-.896h14.251"/></g></g></svg>