<svg xmlns="http://www.w3.org/2000/svg" height="510.34" width="600" viewBox="0 0 158.75 135.02625"><g transform="translate(-20.99-106.27)"><g color-rendering="auto" shape-rendering="auto" image-rendering="auto" color="#000"><path d="m69.34 106.27v135.02h7.402v-135.02z" fill="#b9004f" mix-blend-mode="normal" solid-color="#000000" white-space="normal" shape-padding="0" isolation="auto"/><path d="m73.07 121.61c-28.723 0-52.09 23.37-52.08 52.09-.008 28.72 23.354 52.09 52.08 52.09 28.724 0 52.08-23.37 52.07-52.09.001-28.72-23.35-52.09-52.07-52.09m0 7.4c24.722 0 44.684 19.97 44.674 44.69.001 24.72-19.952 44.69-44.674 44.69-24.721 0-44.681-19.97-44.674-44.69-.007-24.72 19.953-44.69 44.674-44.69" fill="#fff" mix-blend-mode="normal" solid-color="#000000" white-space="normal" shape-padding="0" isolation="auto"/></g><path fill="#fff" d="m152.8 165.22v17h3.13v-12.47l4.15 12.47h3.09l4.14-12.47v12.47h3.13v-17h-4.83l-3.97 12.07-4-12.07zm21.05 0v3.59h2.68v13.41h3.21v-17z"/></g></svg>