<svg xmlns="http://www.w3.org/2000/svg" height="475.17" width="600" viewBox="0 0 158.75 125.72243"><g transform="translate(-26.458-110.92)"><g color-rendering="auto" shape-rendering="auto" image-rendering="auto" color="#000"><path d="m71.48 110.92v125.72h6.892v-125.72z" fill="#b9004f" mix-blend-mode="normal" solid-color="#000000" white-space="normal" shape-padding="0" isolation="auto"/><path d="m183.27 53.988c-101.08 0-183.3 82.23-183.27 183.31-.024 101.08 82.19 183.31 183.27 183.31s183.28-82.23 183.25-183.31c.03-101.08-82.18-183.31-183.25-183.31m0 26.05c86.99 0 157.23 70.26 157.2 157.26.03 87-70.21 157.26-157.2 157.26-87 0-157.24-70.26-157.22-157.26h.003c-.026-87 70.22-157.26 157.22-157.26z" transform="matrix(.26458 0 0 .26458 26.458 110.92)" mix-blend-mode="normal" solid-color="#000000" white-space="normal" shape-padding="0" isolation="auto"/></g><path d="m149.19 165.81v15.83h2.91v-11.62l3.86 11.62h2.88l3.86-11.62v11.62h2.91v-15.83h-4.5l-3.69 11.24-3.73-11.24zm19.59 0v3.34h2.5v12.49h2.99v-15.83z"/><path fill="#b9004f" d="m149.17 191.42v23.52h36.04v-23.52z"/><g fill="#fff"><path d="m151.75 195.13h3.91v6.36h5.64v-6.36h3.9v15.97h-3.9v-6.67h-5.64v6.67h-3.91z"/><path d="m535.9 318.29v60.35h21.42c18.01 0 33.26-8.38 33.04-30.31-.19-19.01-10.71-30.04-34.8-30.04h-19.66m14.52 11.27h6.77c13.69 0 18.61 9.65 18.65 19.03.05 13.28-7.52 19.02-18.78 19.02h-6.64v-38.05" transform="matrix(.26458 0 0 .26458 26.458 110.92)"/></g></g></svg>