<?xml version="1.0" encoding="UTF-8" standalone="no"?>
<svg xmlns:rdf="http://www.w3.org/1999/02/22-rdf-syntax-ns#" xmlns="http://www.w3.org/2000/svg" height="493.46" width="600" version="1.1" xmlns:cc="http://creativecommons.org/ns#" xmlns:dc="http://purl.org/dc/elements/1.1/" viewBox="0 0 158.75 130.56168">
 <g stroke-width="1.0385" transform="translate(-9.2375 -74.574)">
  <path d="m162.61 131.23c-1.91 0-3.66 0.93-4.59 2.45-0.63 0.97-0.87 1.96-0.87 3.54h2.92c0-1.97 1.02-3.26 2.57-3.26 1.36 0 2.39 1.12 2.39 2.59 0 1.07-0.71 2.12-1.9 3.3-1.63 1.6-3.47 2.24-6.13 5.03v3.14h10.93v-2.8h-7.03c2.06-1.99 4.63-3.19 6.11-5.46 0.65-0.93 0.98-2.06 0.98-3.17 0-3.03-2.32-5.36-5.38-5.36zm-25.91 0.36v16.43h3.02v-12.06l4.01 12.06h2.99l4.01-12.06v12.06h3.02v-16.43h-4.67l-3.84 11.66-3.87-11.66z"/>
  <path style="font-variant-ligatures:normal;shape-padding:0;color-rendering:auto;font-variant-alternates:normal;text-decoration-color:#000000;color:#000000;font-variant-numeric:normal;mix-blend-mode:normal;image-rendering:auto;block-progression:tb;text-indent:0;solid-color:#000000;font-variant-position:normal;text-decoration-line:none;font-feature-settings:normal;font-variant-caps:normal;isolation:auto;white-space:normal;shape-rendering:auto;text-transform:none;text-decoration-style:solid" d="m63.149 74.574v130.57h7.157v-130.57z" fill-opacity=".91373" fill="#d4009e"/>
  <path style="font-variant-ligatures:normal;shape-padding:0;color-rendering:auto;font-variant-alternates:normal;text-decoration-color:#000000;color:#000000;font-variant-numeric:normal;mix-blend-mode:normal;image-rendering:auto;block-progression:tb;text-indent:0;solid-color:#000000;font-variant-position:normal;text-decoration-line:none;font-feature-settings:normal;font-variant-caps:normal;isolation:auto;white-space:normal;shape-rendering:auto;text-transform:none;text-decoration-style:solid" d="m48.833 74.574v130.57h7.157v-130.57z" fill-opacity=".91373" fill="#d4009e"/>
  <path style="font-variant-ligatures:normal;shape-padding:0;color-rendering:auto;font-variant-alternates:normal;text-decoration-color:#000000;color:#000000;font-variant-numeric:normal;mix-blend-mode:normal;image-rendering:auto;block-progression:tb;text-indent:0;solid-color:#000000;font-variant-position:normal;text-decoration-line:none;font-feature-settings:normal;font-variant-caps:normal;isolation:auto;white-space:normal;shape-rendering:auto;text-transform:none;text-decoration-style:solid" d="m59.593 89.404c-27.777 0-50.368 22.596-50.356 50.376-0.0119 27.78 22.579 50.38 50.356 50.38 27.775 0 50.377-22.61 50.357-50.38 0.02-27.78-22.582-50.376-50.357-50.376zm0 7.155c23.912 0 43.207 19.301 43.197 43.221 0.01 23.91-19.285 43.22-43.197 43.22-23.909 0-43.208-19.31-43.196-43.22-0.012-23.92 19.287-43.221 43.196-43.221z"/>
 </g>
</svg>
