<svg xmlns="http://www.w3.org/2000/svg" height="475.15" width="600" viewBox="0 0 158.75 125.71762"><g transform="translate(-12.182-76.996)"><path fill="#fff" d="m159.86 131.55c-1.84 0-3.52.89-4.42 2.35-.6.94-.84 1.89-.84 3.41h2.82c0-1.89.98-3.14 2.47-3.14 1.31 0 2.3 1.08 2.3 2.5 0 1.03-.68 2.04-1.83 3.18-1.57 1.54-3.34 2.15-5.9 4.84v3.02h10.52v-2.69h-6.76c1.98-1.92 4.45-3.08 5.88-5.26.62-.9.94-1.98.94-3.05 0-2.92-2.23-5.16-5.18-5.16m-24.95.34v15.82h2.91v-11.61l3.86 11.61h2.88l3.86-11.61v11.61h2.91v-15.82h-4.5l-3.69 11.23-3.73-11.23z"/><g color-rendering="auto" shape-rendering="auto" image-rendering="auto" color="#000"><g fill="#d4009e" fill-opacity=".914"><path d="m64.09 76.996v125.71h6.892v-125.71z" mix-blend-mode="normal" solid-color="#000000" white-space="normal" shape-padding="0" isolation="auto"/><path d="m50.31 76.996v125.71h6.892v-125.71z" mix-blend-mode="normal" solid-color="#000000" white-space="normal" shape-padding="0" isolation="auto"/></g><path d="m60.67 91.28c-26.747 0-48.5 21.765-48.49 48.5-.012 26.75 21.741 48.51 48.49 48.51 26.744 0 48.5-21.77 48.48-48.51.02-26.74-21.736-48.5-48.48-48.5m0 6.89c23.02 0 41.6 18.585 41.59 41.615.001 23.02-18.566 41.62-41.59 41.62-23.02 0-41.606-18.6-41.594-41.62-.012-23.03 18.572-41.615 41.594-41.615" fill="#fff" mix-blend-mode="normal" solid-color="#000000" white-space="normal" shape-padding="0" isolation="auto"/></g><path d="m134.89 157.5v23.52h36.04v-23.52z" fill-opacity=".914" fill="#d4009e"/><g fill="#fff"><path d="m137.47 161.21h3.91v6.35h5.64v-6.35h3.9v15.96h-3.9v-6.67h-5.64v6.67h-3.91z"/><path d="m153.97 161.21v15.96h5.66c4.77 0 8.8-2.21 8.75-8.01-.05-5.04-2.84-7.95-9.21-7.95zm3.84 2.98h1.79c3.62 0 4.92 2.55 4.93 5.03.02 3.52-1.98 5.04-4.96 5.04h-1.76z"/></g></g></svg>