<svg xmlns="http://www.w3.org/2000/svg" height="461.48" width="599.99" viewBox="0 0 599.99998 461.48633" xmlns:xlink="http://www.w3.org/1999/xlink"><defs><linearGradient id="9" gradientUnits="userSpaceOnUse" x1="80.69" x2="202.44" y1="439.4" y2="567.05"><stop stop-color="#a4c1db"/><stop stop-color="#a4c1db" offset=".0001"/><stop stop-color="#c3d3e6" offset=".629"/><stop stop-color="#c3d3e6" offset="1"/></linearGradient><linearGradient id="D" gradientUnits="userSpaceOnUse" x1="265.95" x2="849.06" y1="444.14" y2="449.43"><stop stop-color="#ef362e"/><stop stop-color="#ef362d" offset=".773"/><stop stop-color="#ca2a27" offset="1"/></linearGradient><linearGradient id="B" gradientUnits="userSpaceOnUse" x1="575.03" x2="94.43" y1="130.56" y2="1101.07" xlink:href="#C"/><linearGradient id="C" gradientUnits="userSpaceOnUse" x1="369.34" x2="285.07" y1="442.8" y2="579.08"><stop stop-color="#fff"/><stop stop-color="#ef362d" offset=".773"/><stop stop-color="#ca2a27" offset="1"/></linearGradient><linearGradient id="E" gradientUnits="userSpaceOnUse" x1="376.15" x2="223.5" y1="698.13" y2="650.05" xlink:href="#C"/><linearGradient id="F" gradientUnits="userSpaceOnUse" x1="357.78" x2="278.45" y1="624.36" y2="700.19" xlink:href="#G"/><linearGradient id="I" gradientUnits="userSpaceOnUse" x1="346.79" x2="266.32"><stop stop-color="#f5967f"/><stop stop-color="#d72120" offset="1"/></linearGradient><linearGradient id="G" gradientUnits="userSpaceOnUse" x1="377.56" x2="533.29"><stop stop-color="#67839e"/><stop stop-color="#67839e" offset=".0001"/><stop stop-color="#c3d3e7" offset=".995"/><stop stop-color="#c3d3e7" offset="1"/></linearGradient><linearGradient id="H" gradientUnits="userSpaceOnUse" x1="369.5" x2="321.5" y1="454.75" y2="536.41"><stop stop-color="#ef362e"/><stop stop-color="#ef362d" offset=".635"/><stop stop-color="#ca2a27" offset="1"/></linearGradient><linearGradient id="A" gradientUnits="userSpaceOnUse" x1="236.66" x2="297.07" y1="598.24" y2="669.25" xlink:href="#G"/><linearGradient id="4" gradientUnits="userSpaceOnUse" x1="-211.51" x2="470.24" y1="1383.8" y2="737.01" xlink:href="#G"/><linearGradient id="2" gradientUnits="userSpaceOnUse" x1="7.084" x2="82.28"><stop stop-color="#93b8dd"/><stop stop-color="#93b8dd" offset=".0001"/><stop stop-color="#c3d3e6" offset=".629"/><stop stop-color="#c3d3e6" offset="1"/></linearGradient><linearGradient id="0" gradientUnits="userSpaceOnUse" x2="0" y1="627.72" y2="619.49"><stop stop-color="#c2c4c6"/><stop stop-color="#fff" offset="1"/></linearGradient><linearGradient id="1" gradientUnits="userSpaceOnUse" x1="133.76" x2="407.74" y1="731.83" y2="980.15" xlink:href="#G"/><linearGradient id="3" gradientUnits="userSpaceOnUse" x1="188.87" x2="142.52" y1="707.42" y2="954.91" xlink:href="#G"/><linearGradient id="7" gradientUnits="userSpaceOnUse" x1="605.47" x2="487.51" y1="893.51" y2="162.47" xlink:href="#G"/><linearGradient id="8" gradientUnits="userSpaceOnUse" x2="0" y1="759.71" y2="900.61"><stop stop-color="#6982a7"/><stop stop-color="#6982a7" offset=".0001"/><stop stop-color="#c7d6ed" offset=".995"/><stop stop-color="#c7d6ed" offset="1"/></linearGradient><linearGradient id="6" gradientUnits="userSpaceOnUse" x2="0" y1="759.11" y2="900.61" xlink:href="#8"/><linearGradient id="5" gradientUnits="userSpaceOnUse" x1="438.29" x2="449.24" y1="749.42" y2="838.09" xlink:href="#G"/><radialGradient id="J" gradientUnits="userSpaceOnUse" cy="607.64" cx="174.37" r="423.41"><stop stop-color="#c7d6ed"/><stop stop-color="#c7d6ed" offset=".354"/><stop stop-color="#6982a7" offset="1"/></radialGradient><radialGradient id="K" gradientUnits="userSpaceOnUse" cy="582.86" cx="174.77" r="267.74"><stop stop-color="#f9ae9c"/><stop stop-color="#f9ae9c" offset=".051"/><stop stop-color="#ef4629" offset=".803"/><stop stop-color="#d72124" offset="1"/></radialGradient></defs><g transform="translate(-7.086-438.77)"><path fill="url(#0)" d="m236.29 624.38c5.89 4.7 14.45 4.51 19.9-.95 1.17-1.17 1.9-2.55 2.61-3.93-7.52 1.53-15.02 3.22-22.51 4.88"/><path fill="url(#6)" d="m157.54 898.87h11.79l15.98-128.57-10.59-11.2-17.18 139.77"/><path fill="url(#8)" d="m429 770.6l15.84 128.27h11.77l-17.24-139.16-10.37 10.89"/><path fill="url(#J)" d="m307.07 675.85l-225.46-235.05-73.59 458.07h149.59l17.11-139.77 132.35 139.77 132.5-139.77 17.09 139.77h149.46l-73.46-458.07-225.59 235.05"/><path fill="url(#7)" d="m532 442.89l73.14 455.96 1.95.02-73.8-460.1-1.29 4.12"/><path fill="url(#5)" d="m438.86 761.29l16.82 137.58h1.97l-17.37-141.9-1.42 4.32"/><path fill="url(#4)" d="m307.07 897.46v2.8l131.79-138.97 1.42-4.32-133.21 140.49"/><path fill="url(#1)" d="m174.01 756.98l1.41 4.31 131.65 138.95v-2.79l-133.06-140.47"/><path fill="url(#3)" d="m156.65 898.85l1.93.02 16.84-137.58-1.41-4.31-17.36 141.87"/><path fill="url(#2)" d="m7.086 898.87l1.914-.02 73.27-455.93-1.305-4.15-73.882 460.1"/><path fill="url(#9)" d="m80.968 438.77l1.305 4.15 147.38 153.58 1.32-1.39-150-156.34z"/><path fill="url(#A)" d="m229.65 596.5l77.42 80.74v-2.8l-76.1-79.33-1.32 1.39"/><path fill="url(#F)" d="m307.07 674.44v2.8l71.87-74.86-1.38-1.36-70.49 73.42"/><path fill="url(#G)" d="m377.56 601.02l1.38 1.36 153.06-159.49 1.29-4.12-155.73 162.25"/><path fill="url(#I)" d="m265.07 630.99l10.59 10.89c19.21-15.45 44.61-15.55 62.89-.17l10.58-10.99c-13.75-11.93-28.52-16.4-42.04-16.4-18.05 0-33.85 7.94-42.02 16.67"/><path fill="url(#H)" d="m311.9 536.93c0 .07 8.93.63 16.96 1.39 20-36.58 41.93-69.85 41.93-69.85v-24.79c-13.62 17.83-48.24 74.41-58.89 93.25"/><path fill="url(#K)" d="m273.75 444.67c-46.46 65.2-89.69 143.03-101.96 195.87-3.06 11.49-4.73 23.49-4.73 35.85 0 76.83 62.81 138.99 140.13 138.99 77.44 0 140.1-62.16 140.1-138.99 0-75.52-60.93-137.04-136.78-138.83 20.53-35.33 42.3-70.43 58.26-92.89h-95.02m-28.91 231.72c0-34.32 27.89-62.14 62.35-62.14 34.52 0 62.34 27.82 62.34 62.14 0 34.46-27.82 62.16-62.34 62.16-34.46 0-62.35-27.7-62.35-62.16"/><path fill="url(#E)" d="m243.88 676.39c0 34.82 28.39 63.11 63.31 63.11 34.9 0 63.29-28.29 63.29-63.11 0-34.78-28.39-63.09-63.29-63.09-34.92 0-63.31 28.31-63.31 63.09m1.93 0c0-33.73 27.53-61.17 61.38-61.17 33.83 0 61.34 27.44 61.34 61.17 0 33.77-27.51 61.21-61.34 61.21-33.85 0-61.38-27.44-61.38-61.21"/><path fill="url(#B)" d="m171.08 640.34c-3.12 11.79-4.74 23.94-4.74 36.05 0 77.17 63.29 139.96 141.07 139.96 77.81 0 141.1-62.79 141.1-139.96 0-74.74-60.93-137.07-136.14-139.7h-1.81l-1.49 1.86 1.62-.02c74.94 1.78 135.89 63.62 135.89 137.87 0 76.1-62.43 138.03-139.17 138.03-76.71 0-139.14-61.93-139.14-138.03 0-11.94 1.57-23.94 4.69-35.59 11.15-48.06 50.03-122.81 101.55-195.17l-1.04-1.95c-40.54 57-88.97 138.86-102.39 196.66"/><path fill="url(#D)" d="m273.47 443.68l1.04 1.95h92.65l3.63-1.95h-97.32"/><path fill="url(#C)" d="m367.16 445.63c-14.84 21.08-35.58 54.18-57.24 91.45l-.85 1.46 3.3-1.85c21.84-37.51 43.73-72.3 58.42-93.01l-3.63 1.95"/></g></svg>