<svg xmlns="http://www.w3.org/2000/svg" height="223.01" viewBox="0 0 599.99998 223.00658"><defs><clipPath><path d="m114.98 86.28h27.992v10.404h-27.992v-10.404"/></clipPath><linearGradient x1="553.41" y1="903.86" x2="-127" y2="767.26" gradientUnits="userSpaceOnUse" id="0"><stop stop-color="#80d4ce"/><stop offset=".081" stop-color="#80d4ce"/><stop offset=".9" stop-color="#82b0e2"/><stop offset="1" stop-color="#82b0e2"/></linearGradient></defs><g transform="translate(-25.714-743.72)"><path d="m375.53 751.75c-14.49 5.38-27.651 13.247-39.42 23.707-11.553 10.267-20.877 22.12-27.929 35.474l-2.465-62.14h-.6-77.979-16.826l-21.11 47.48c-5.101-21.67-7.867-40.769-9.388-47.48h-13.29-78.75-.622l-61.43 212.27h.622 74.81 18.2l16.955-66.1 11.253 66.1h4.223 39.08 2.079l14.404-34.488 13.825-32.409 2.079 66.898h16.1 74.21.622l-1.243-31.32c7.07 8.981 16.08 16.869 27.03 23.642 7.202 4.287 15.476 7.524 24.779 9.86 9.281 2.315 19.1 3.472 29.43 3.472.836 0 1.65-.043 2.422-.064 9.05-.472 36.37-2.979 49.578-16.183 8.531 4.223 17.15 7.738 25.872 10.332 13.461 3.944 27.16 5.916 41.07 5.916 27.16 0 50.14-7.459 68.848-22.314 18.734-14.897 29.494-34.12 32.28-57.6 1.715-14.383-1.05-26.665-8.252-36.825-7.202-10.139-17.919-16.869-32.11-20.15-1.779-.386-4.351-.965-7.631-1.736-20.62-4.566-30.587-9.839-29.859-15.819.364-3.172 2.122-5.659 5.209-7.481 3.108-1.758 7.352-2.658 12.646-2.658 6.988 0 13.997 1.436 21.03 4.266 7.07 2.872 13.933 7.01 20.663 12.411l29.794-55.54c-11.253-6.473-22.549-11.296-33.953-14.49-11.403-3.215-23.24-4.823-35.389-4.823-26.515 0-48.785 7.181-66.791 21.499-11.04 8.724-19.14 19.08-24.457 31.02l4.994-42.05c-7.502-3.558-15.326-6.237-23.471-8.04-8.167-1.801-16.526-2.679-25.14-2.679-16.14 0-31.466 2.679-45.977 8.04m8.938 129.44c-5.252-6.087-7.181-14.34-5.895-25.14 1.329-11.318 5.616-20.08 13.01-26.793 7.416-6.666 16.355-9.924 27.351-9.924 7.03 0 13.632 1.458 19.634 4.33 4.501 2.143 8.938 5.294 13.354 9.324.579 10.932 3.858 20.556 9.796 28.615.686.986 1.436 1.908 2.208 2.808l-.021.021c.364.45.772.9 1.179 1.35v-.043c8.04 8.831 19.484 15.15 34.23 18.841 2.636.579 6.302 1.415 11.08 2.508 2.894.6 5.23 1.2 7.202 1.822 8.788 2.358 9.667 4.394 9.796 6.388.171 2.122-3.901 10.417-28.401 3.537-22.249-6.28-40.64-24.864-43.834-28.27l-1.5 1.029c-9.367 6.559-17.898 11.403-25.379 14.361-7.202 2.829-14.15 4.244-20.706 4.244-10.396 0-17.941-2.915-23.11-9" fill="url(#0)"/><path d="m271.03 828.68v7.609l-13.718-5.466-13.718 5.466v-7.609l13.718-5.466 13.718 5.466m-38.733 28.958c0 3.129-2.551 5.659-5.659 5.659-3.129 0-5.659-2.529-5.659-5.659 0-3.129 2.529-5.659 5.659-5.659 3.108 0 5.659 2.529 5.659 5.659m97.89-9.496h-.836c-7.524 0-11.189 2.358-11.189 7.223v25.08h-9.71v-25.08c0-11.275 7.03-16.998 20.899-16.998h.836v9.774m-28.83 22.528h4.844v9.774h-4.844c-13.868 0-20.899-5.723-20.899-16.998v-41.22h9.71v9.324c.171 4.544 3.815 6.773 11.189 6.773h.836v9.774h-.836c-4.416 0-8.167-.579-11.189-1.736v17.08c0 4.866 3.665 7.223 11.189 7.223m-86.15-15.304v25.08h-9.71v-25.08c0-4.866-3.665-7.223-11.189-7.223-7.352 0-11.02 2.251-11.189 6.859v25.443h-9.71v-42.08h9.71v1.758c3.02-1.179 6.773-1.758 11.189-1.758 13.868 0 20.899 5.723 20.899 16.998m42.25-7.223c7.07 0 9.56 2.101 9.967 6.388h-20.277c.407-4.287 3.237-6.388 10.31-6.388m0-9.774c-13.868 0-20.06 5.723-20.06 16.998v8.08c0 11.275 7.03 16.998 20.899 16.998h14.833v-9.774h-14.833c-7.07 0-10.739-2.079-11.146-6.366h30.01v-8.938c0-11.275-5.83-16.998-19.698-16.998m93.73 9.774c7.07 0 9.56 2.101 9.989 6.388h-20.277c.407-4.287 3.215-6.388 10.289-6.388m0-9.774c-13.847 0-20.04 5.723-20.04 16.998v8.08c0 11.275 7.03 16.998 20.899 16.998h14.811v-9.774h-14.811c-7.095 0-10.739-2.079-11.146-6.366h30.01v-8.938c0-11.275-5.852-16.998-19.72-16.998m-201.64 9.774c7.07 0 9.581 2.101 9.989 6.388h-20.277c.407-4.287 3.215-6.388 10.289-6.388m0-9.774c-13.847 0-20.04 5.723-20.04 16.998v8.08c0 11.275 7.03 16.998 20.899 16.998h14.833v-9.774h-14.833c-7.07 0-10.739-2.079-11.146-6.366h30.03v-8.938c0-11.275-5.873-16.998-19.741-16.998m-26.343-14.168c1.093 1.093 1.65 2.444 1.65 3.987 0 1.565-.557 2.915-1.65 4.01-1.093 1.093-2.422 1.65-3.965 1.65-1.565 0-2.894-.557-3.987-1.65-1.093-1.093-1.629-2.444-1.629-4.01 0-1.543.536-2.894 1.629-3.987 1.093-1.093 2.444-1.65 3.987-1.65 1.522 0 2.872.557 3.965 1.65m-8.745 14.168h9.71v42.08h-9.71v-42.08m-35.09 9.946v-9.09c0-4.394 3.065-7.159 9.195-7.159 6.195 0 9.174 2.765 9.174 7.159 0 4.951-2.401 7.352-7.545 7.588-4.866.214-8.424.707-10.825 1.5m11.189 7.909c7.524 0 11.189 2.379 11.189 7.266 0 4.844-3.665 7.181-11.189 7.181h-11.189v-7.995c.386-4.287 4.051-6.409 11.189-6.452m-4.844-33.717c-10.653 1.243-16.05 6.881-16.05 16.719v22.635c-.021.536-.043 1.072-.043 1.629l.043 16.955h20.899c13.868 0 20.899-5.702 20.899-16.955 0-6.473-2.336-11.167-6.988-13.954 1.972-2.658 2.979-6.109 2.979-10.31 0-9.839-5.402-15.476-16.05-16.719-3.344-.279-5.68 0-5.68 0" fill="#fff"/></g></svg>