<svg xmlns="http://www.w3.org/2000/svg" enable-background="new 0 0 209 90.1" height="270.3" viewBox="0 0 600 270.3013"><g fill="#2face3"><path d="m420.66.574h54.806l.287 38.737c-.287 0-17.791-30.99-55.09-38.737"/><path d="m420.66 179.05h54.806l.287-38.737c-.287 0-17.791 30.99-55.09 38.737"/></g><path fill="#da1d5d" d="M99.857,0,52.224,74.605,4.5911,0z"/><path fill="#8a3188" d="m0 60.832l52.22 79.49 51.37-79.2v117.93h-103.59z"/><g fill="#016839"><path d="m144.05 0h67.43l-67.43 156.96z"/><path d="m319.66 0h-67.43l67.43 156.96z"/></g><path fill="#d3d92e" d="m207.46 103.01h48.21l-24.39-60.26z"/><path fill="#abcd71" d="m270.01 139.17l16.643 39.885h-110.47l15.782-39.885z"/><path fill="#2f358b" d="m360.11 33.572v110.47h36.15s50.5 2.583 50.5-58.25c0 0 .574-52.22-50.5-52.22h-36.15"/><path fill="#ea5b2d" d="m515.06 31.851h84.65v39.31h-84.65z"/><path fill="#c01e2f" d="m515.06 105.6h84.65v39.31h-84.65z"/><g fill="#fff"><path d="m2.01 206.6h6.6v62.27h-6.6z"/><path d="m101 268.87l-39.31-51.08v51.08h-6.6v-62.27h5.739l39.31 50.789v-50.789h6.6v62.27z"/><path d="m202.3 206.6h12.912v50.789h31.564v11.478h-44.48z"/><path d="m323.96 241.32h-26.399v16.07h33.859v11.478h-46.772v-62.27h45.911v11.478h-32.999v11.765h26.399z"/><path d="m409.76 241.32h-26.686v16.07h33.859v11.478h-46.49v-62.27h45.624v11.478h-32.999v11.765h26.686z"/><path d="m455.95 268.87v-62.27h23.24c10.04 0 18.364 2.869 24.677 8.608 6.313 5.739 9.469 13.199 9.469 22.382 0 9.182-3.156 16.643-9.469 22.382-6.313 5.739-14.634 8.608-24.677 8.608h-23.24zm12.912-11.478h9.469c13.773 0 22.1-7.174 22.1-19.512 0-12.339-8.321-19.799-22.1-19.799h-9.469v39.31"/><path d="m550.65 263.41v-13.199c2.582 2.296 6.03 4.304 10.33 5.739 4.304 1.722 8.608 2.296 12.912 2.296 6.887 0 12.05-2.583 12.05-7.174 0-2.296-1.148-4.304-3.156-5.165-1.148-.574-1.722-.861-3.443-1.722l-2.01-.574-4.878-1.435-4.591-1.435c-.861-.287-2.296-.861-4.304-1.435-2.01-.574-3.156-1.435-4.02-2.01-1.722-1.148-4.591-3.156-5.739-5.452-1.148-2.01-2.01-5.165-2.01-8.608 0-5.452 2.01-9.756 6.313-12.912 4.304-3.156 10.04-4.878 17.217-4.878 7.174 0 14.06 1.722 20.373 5.165v12.339c-6.313-4.02-13.199-5.739-20.09-5.739-6.887 0-10.617 2.01-10.617 6.03 0 2.01 1.148 3.156 3.156 4.304 1.148.574 3.443 1.435 5.165 2.01 1.722.574 4.878 1.435 6.887 2.01 6.03 2.01 9.469 3.443 13.486 6.6 4.304 2.869 6.313 7.174 6.313 12.912 0 6.03-2.296 10.617-6.887 14.06-4.591 3.443-10.617 5.165-17.791 5.165-10.33-.287-18.08-2.582-24.677-6.887"/></g></svg>