<svg xmlns="http://www.w3.org/2000/svg" enable-background="new 0 0 209 90.1" height="264.11" viewBox="0 0 600 264.11484"><path fill="#db1f5d" d="m52.25 75.5l-47.656-75.5 95.02.574z"/><path fill="#8b328a" d="m103.64 61.722l-51.965 79.24-51.675-79.53v118.28l103.64-.29z"/><g fill="#056839"><path d="m211.58.861l-67.46-.287v157.03z"/><path d="m319.52 157.89l-67.46-157.03h67.751z"/></g><path fill="#d4da30" d="m231.39 43.35l-23.828 60.57h48.23z"/><path fill="#8fc045" d="m176.27 180.29l15.789-40.478 78.09.287 16.651 39.33z"/><g fill="#2fade4"><path d="m421.15.861h54.833l.287 38.756s-17.799-31-55.12-38.756"/><path d="m406.79 180.57l68.32.574-.287-42.775c0-.287-16.08 35.885-68.04 42.2"/></g><path fill="#30358c" d="m360 144.69l41.05.287s42.2-3.445 45.36-44.785c1.435-16.651-.861-25.26-.861-25.26s-4.306-35.598-47.656-40.766c-17.799 0-37.608.574-37.608.574l-.28 109.94z"/><path fill="#eb5c2e" d="m515.31 32.44v39.33h84.69v-39.04z"/><path fill="#c1202f" d="m515.6 106.51v39.04l84.4-.29v-39.04z"/><path d="m.574 208.42h6.316v55.694h-6.316v-55.694"/><path d="m40.478 208.42h5.455l34.45 44.498v-44.498h6.316v55.694h-5.455l-34.45-44.785v44.785h-6.316v-55.694"/><path d="m146.12 236.27c0-16.651 12.632-28.13 29.28-28.13 5.455 0 10.05 1.148 14.354 3.445v11.196c-4.02-2.584-8.04-4.306-14.07-4.306-10.05 0-18.09 7.464-18.09 17.799s8.04 17.799 18.373 17.799c5.454 0 10.622-1.435 14.928-4.593v11.196c-4.593 2.297-10.05 3.445-15.502 3.445-16.651 0-29.28-11.483-29.28-27.847"/><path d="m237.42 208.71h10.622l23.254 54.26h-11.77l-5.455-12.632h-22.967l-5.454 12.632h-11.77l23.541-54.26m12.918 32.727l-7.751-18.66-8.04 18.66h15.789"/><path d="m297.13 209h24.976c11.77 0 18.66 6.603 18.66 16.08 0 7.177-4.02 12.919-11.196 14.928l16.651 22.967h-12.919l-15.789-21.818h-9.474v21.818h-11.196v-53.971zm24.402 22.966c4.88 0 8.04-2.297 8.04-6.603 0-4.306-2.871-6.603-8.04-6.603h-13.206v13.206h13.206"/><path d="m372.06 209h20.1c17.512 0 29.569 11.196 29.569 26.986 0 15.789-12.06 26.986-29.569 26.986h-20.1v-53.971m19.234 44.21c12.06 0 19.234-6.316 19.234-16.938s-7.177-16.938-19.234-16.938h-8.04v34.16h8.04z"/><path d="m451.29 209h10.909v53.971h-10.909v-53.971"/><path d="m493.21 209h39.617v10.05h-28.421v10.909h22.1v9.761h-22.11v23.254h-11.196v-53.971"/><path d="m560.38 209h39.62v10.05h-28.421v10.909h22.11v9.761h-22.11v23.254h-11.196v-53.971z"/></svg>