<svg xmlns="http://www.w3.org/2000/svg" viewBox="0 0 600 275.44"><defs><clipPath id="0"><path d="m138.89 252.47h21.919v10.06h-21.919v-10.06"/></clipPath></defs><g transform="matrix(1.07662 0 0 1.07662-22.351-16.306)"><path d="m1166.74 2036.62h170.1v40.824h-170.1v-40.824" fill="#443a3d" transform="matrix(3.27633 0 0-3.41835-3801.88 7186.39)"/><path d="m0 0l61.24 3.97v63.51l-61.24 7.367v-74.842" fill="#52a5e0" transform="matrix(3.27633 0 0-3.41835 243.88 270.98)"/><path d="m 0,0 45.559,4.864 0,40.838 L 0.198,55.909 0,0 z" fill="#1c63b7" transform="matrix(3.27633 0 0-3.41835 276.68 241.14)"/><g clip-path="url(#0)" transform="matrix(27.37351 0 0-27.37351-3801.88 7186.39)"><path d="m0 0v-8.19c0-.309-.061-.431-.306-.431h-6.244c-.211 0-.337.155-.337.369v8.191c0 .336-.117.459-.392.459h-8.101c-.245 0-.366.149-.366.425v6.212c0 .243.09.36.338.36h8.158c.246 0 .363.124.363.4v7.03c0 .183.126.306.304.306h6.216c.244 0 .367-.094.367-.306v-7.03c0-.333.062-.4.332-.4h8.167c.244 0 .333-.117.333-.39v-6.242c0-.216-.119-.365-.333-.365h-8.07c-.336 0-.426-.065-.426-.398" fill="#fff" transform="matrix(.11969 0 0 .12488 158 256.59)"/><path d="m0 0v-40.816h86v20.441l20.375 20.375h-106.38" fill="#443a3d" transform="matrix(.11969 0 0 .12488 139.65 259.43)"/><g fill="#fff"><path d="m0 0l-1.7 13.11-5.489-13.11h-2.368l-5.217 13.11-1.943-13.11h-5.887l3.854 22.757h5.855l4.613-12.137 4.885 12.137h5.855l3.46-22.757h-5.918" transform="matrix(.11969 0 0 .12488 143.27 255.55)"/><path d="m0 0c-.699.698-1.516 1.032-2.487 1.032-.969 0-1.789-.334-2.488-1.032-.697-.699-1.031-1.518-1.031-2.456 0-1.977 1.547-3.552 3.519-3.552.971 0 1.788.333 2.487 1.03.697.7 1.033 1.519 1.033 2.488 0 .972-.336 1.791-1.033 2.49m.881-10.226v1.7c-.272-.333-.456-.547-.577-.638-1.063-1.062-2.457-1.578-4.188-1.578-2.275 0-4.157.82-5.643 2.489-1.457 1.608-2.184 3.518-2.184 5.797 0 3.277 1.791 6.278 4.734 7.584.94.395 1.942.605 3.03.605 1.457 0 2.673-.303 3.642-.941.333-.211.727-.573 1.183-1.059v1.517h5.461v-15.476h-5.461" transform="matrix(.11969 0 0 .12488 145.59 256.83)"/><path d="m1231.63 2046.42h-5.462v15.354h5.462v-15.354m-2.731 16.868c-.818 0-1.549.305-2.153.882-.608.607-.913 1.303-.913 2.124 0 1.762 1.366 3.126 3.066 3.126 1.667 0 3.063-1.364 3.063-3.096 0-1.7-1.424-3.036-3.063-3.036" transform="scale(.11969.12488)"/><path d="m0 0c1.306-.273 2.276-.637 2.914-1.152 1.062-.818 1.576-1.972 1.576-3.4 0-2.7-1.424-4.491-4.309-5.368-.91-.273-1.912-.398-3.03-.398-2.094 0-4.156.608-6.19 1.796l1.972 3.82c1.609-1.062 3.064-1.58 4.37-1.58.425 0 .789.094 1.122.276.394.211.608.515.608.91 0 .604-.363.97-1.458 1.243-.15.031-.455.093-.879.181-1.486.305-2.549.733-3.215 1.243-.879.699-1.335 1.702-1.335 3.035 0 1.85.696 3.278 2.122 4.278 1.244.852 2.823 1.274 4.765 1.274 1.607 0 3-.211 4.156-.636.243-.091.516-.214.849-.366l-1.851-3.516c-.816.422-1.636.665-2.395.726-.213.033-.428.033-.578.033-1.122 0-1.668-.366-1.668-1.092 0-.488.426-.821 1.247-1.032.087-.033.27-.06.514-.125l.696-.15" transform="matrix(.11969 0 0 .12488 148.76 256.77)"/><path d="m0 0c-.696.699-1.517 1.03-2.487 1.03-.97 0-1.791-.331-2.487-1.03-.697-.7-1.035-1.519-1.035-2.459 0-1.972 1.553-3.547 3.522-3.547.97 0 1.791.332 2.487 1.031.697.698 1.032 1.519 1.032 2.485 0 1-.335 1.822-1.032 2.49m4-8.646c-1.758-1.427-3.914-2.127-6.492-2.127-2.699 0-4.913.76-6.676 2.278-1.762 1.546-2.638 3.488-2.638 5.827 0 2.576.908 4.669 2.759 6.215 1.733 1.459 3.886 2.188 6.465 2.188 2.76 0 5.04-.759 6.765-2.306 1.76-1.547 2.639-3.521 2.639-5.948 0-2.578-.939-4.611-2.822-6.127" transform="matrix(.11969 0 0 .12488 150.94 256.83)"/><path d="m0 0v8.798c0 1.065-.395 1.79-1.213 2.249-.395.211-.85.333-1.304.333-1.913 0-2.884-1.064-2.884-3.156v-8.224h-5.46v15.354h5.46v-1.945c1.336 1.519 3.01 2.278 4.977 2.278 1.849 0 3.338-.544 4.459-1.669.942-.94 1.426-2.368 1.426-4.249v-9.769h-5.461" transform="matrix(.11969 0 0 .12488 153.36 255.55)"/></g></g></g></svg>