<svg xmlns="http://www.w3.org/2000/svg" viewBox="0 0 305.01 309.04"><g transform="matrix(3.45287 0 0 3.45287-254.91-1775.44)"><g fill-rule="evenodd"><path d="m0 0c.845-.292 2.913-1.195 2.913-3.408 0-2.506-2.738-3.35-2.826-3.408l-.262-.058c0 0 .175 2.155.175 3.32 0 1.194-.117 3.234-.175 3.554h.175" transform="matrix(0 1.25 1.25 0 122.36 600.05)"/><path d="m0 0l.058.524c1.602-.641 3.408-1.719 3.408-3.904 0-2.096-1.223-3.116-2.039-3.583l-.204-.349c0 0-.145 3.612-1.223 7.312" transform="matrix(0 1.25 1.25 0 130.59 598.37)"/><path d="m0 0l.058-.525c1.602.612 3.408 1.719 3.408 3.875 0 2.097-1.281 3.234-2.039 3.699l-.204.233c0 0-.145-3.612-1.223-7.282" transform="matrix(0 1.25 1.25 0 105.76 598.37)"/><g fill="#fff"><path d="m0 0c.495-.35.466-.583.466-.991 0-.204.175-.495.466-.495.233 0 .437.204.437.524 0 .758-1.019 1.311-1.457 1.486 0 0-.029.437-.029.554 0 0 2.331-.787 2.331-2.826 0-2.039-2.302-2.855-2.302-2.855 0 0 .088 1.719.088 2.709 0 .962 0 1.602 0 1.894" transform="matrix(0 1.25 1.25 0 120.32 600.27)"/><path d="m0 0c.378-1.311.67-2.272.932-4.486 0 0 .233.058.204.553 0 .175-.058.205-.058.292-.03.117.116.35.349.32.175-.029.379-.175.379-.67 0-.495-.408-1.078-.787-1.368 0 0 .087-.292.087-.583 0 0 1.341.931 1.341 2.796 0 2.068-1.836 2.826-2.447 3.146" transform="matrix(0 1.25 1.25 0 130.23 598.96)"/><path d="m0 0c-.32 0-.612-.087-.874-.262.175-.728.32-1.545.495-2.768.029 0 .059 0 .087-.029.059.087.117.233.117.495 0 .175-.058.204-.058.292-.029.116.116.349.349.32.175-.029.379-.175.379-.67 0-.116-.029-.262-.058-.378.204.058.408.174.583.32.086.262.116.582.116.903 0 .67-.175 1.194-.466 1.631-.204.087-.437.146-.67.146" transform="matrix(0 1.25 1.25 0 128.51 600.6)"/><g transform="matrix(0 1.25 1.25 0 128.48 600.6)"><path d="m0 0c-.32 0-.612-.087-.874-.262.175-.699.32-1.515.466-2.709.058 0 .088-.029.146-.029.058.087.087.204.087.465 0 .175-.058.205-.058.292-.029.117.116.35.349.32.175-.029.379-.175.379-.67 0-.116-.029-.233-.058-.378.233.087.437.203.611.35.058.261.088.553.088.873 0 .67-.175 1.165-.437 1.603-.204.087-.437.145-.699.145"/><path d="m0 0c-.32 0-.612-.117-.845-.292.146-.698.291-1.485.437-2.65.058-.029.116-.029.146-.029.058.058.087.203.087.436 0 .175-.058.205-.058.292-.029.117.116.35.349.32.175-.029.379-.175.379-.67 0-.116 0-.233-.058-.349.233.087.437.204.611.349.058.263.088.554.088.845 0 .641-.175 1.136-.408 1.544-.233.117-.466.204-.728.204"/></g><path d="m0 0c.378 1.34.67 2.272.932 4.515 0 0 .233-.088.204-.554 0-.204-.058-.233-.058-.291-.03-.146.116-.349.349-.321.175 0 .379.147.379.642 0 .495-.408 1.078-.787 1.369 0 0 .087.291.087.612 0 0 1.341-.962 1.341-2.826 0-2.068-1.836-2.826-2.447-3.146" transform="matrix(0 1.25 1.25 0 106.09 598.96)"/><path d="m0 0c0 7.078-4.34 14.943-10.632 20.478-.67.582-1.981 1.602-1.981 4.02 0 2.389 2.214 5.592 6.176 5.214 2.913-.292 9.467-4.428 13.487-11.535 4.049-7.108 4.922-13.633 4.922-18.18 0-4.545-.873-11.1-4.922-18.206-4.02-7.079-10.574-11.245-13.487-11.506-3.962-.379-6.176 2.796-6.176 5.214 0 2.388 1.311 3.408 1.981 3.991 6.292 5.534 10.632 13.399 10.632 20.507" transform="matrix(0 1.25 1.25 0 117.92 585.27)"/></g><path d="m0 0c0 3.437-1.048 7.05-2.854 10.516-1.865 3.583-4.545 6.991-7.72 9.758-.349.321-.845.728-1.282 1.398-.437.67-.757 1.544-.757 2.826 0 .116 0 .262 0 .408.117 1.165.67 2.418 1.66 3.408.962.99 2.36 1.66 4.137 1.66.204 0 .407 0 .641-.029 1.66-.145 4.486-1.544 7.37-3.991 2.243-1.922 4.515-4.486 6.321-7.661 2.039-3.554 3.262-6.991 3.991-10.11.728-3.116.932-5.913.932-8.185 0-2.302-.204-5.098-.932-8.215-.729-3.087-1.952-6.525-3.991-10.11-1.806-3.146-4.078-5.739-6.321-7.661-2.884-2.447-5.71-3.845-7.37-3.99-.234-.03-.437-.03-.641-.03-1.777 0-3.175.7-4.137 1.661-.99.99-1.543 2.272-1.66 3.408 0 .145 0 .291 0 .437 0 1.253.32 2.156.757 2.826.437.64.933 1.048 1.282 1.368 3.175 2.797 5.855 6.176 7.72 9.788 1.806 3.437 2.854 7.078 2.854 10.516m.495 0c0-3.525-1.048-7.254-2.884-10.749-1.893-3.671-4.602-7.108-7.836-9.933-.349-.292-.815-.7-1.194-1.282-.379-.583-.699-1.398-.699-2.534 0-.146 0-.262.029-.379.088-1.049.612-2.214 1.486-3.088.903-.903 2.156-1.544 3.787-1.544.204 0 .407.03.612.03 1.572.145 4.281 1.514 7.05 3.874 2.213 1.893 4.456 4.428 6.234 7.544 2.01 3.525 3.204 6.904 3.932 9.963.728 3.087.932 5.826.932 8.098 0 2.243-.204 5.01-.932 8.07-.728 3.059-1.922 6.467-3.932 9.991-1.778 3.088-4.02 5.623-6.234 7.516-2.768 2.388-5.477 3.728-7.05 3.874-.205.029-.408.029-.612.029-1.631 0-2.884-.641-3.787-1.515-.874-.903-1.398-2.068-1.486-3.117-.029-.116-.029-.233-.029-.349 0-1.165.32-1.952.699-2.563.379-.583.845-.991 1.194-1.282 3.234-2.826 5.943-6.264 7.836-9.905 1.836-3.524 2.884-7.224 2.884-10.748" transform="matrix(0 1.25 1.25 0 117.92 584.98)"/><path d="m0 0l-.088-.087c-.64-.554-1.543-1.341-1.543-3.176 0-1.077.583-2.301 1.485-3.116.671-.612 1.836-1.311 3.612-1.136 2.447.233 8.797 4.136 12.73 11.04 3.175 5.564 4.778 11.535 4.778 17.71 0 6.147-1.603 12.12-4.778 17.682-3.933 6.933-10.283 10.807-12.73 11.04-1.776.174-2.941-.525-3.612-1.137-.902-.786-1.485-2.01-1.485-3.088 0-1.864.903-2.65 1.543-3.204l.088-.087c6.787-5.942 10.982-14.07 10.982-21.21 0-7.165-4.195-15.292-10.982-21.235" transform="matrix(0 1.25 1.25 0 91.3 572.74)"/><path d="m0 0c-3.408 0-6.175 2.768-6.175 6.146 0 3.409 2.767 6.176 6.175 6.176 3.408 0 6.176-2.767 6.176-6.176 0-3.378-2.768-6.146-6.176-6.146" fill="#fff" transform="matrix(0 1.25 1.25 0 146.43 562.76)"/><path d="m0 0c-1.776 0-3.379.728-4.544 1.893-1.165 1.137-1.865 2.768-1.865 4.516 0 1.777.7 3.408 1.865 4.544 1.165 1.165 2.768 1.893 4.544 1.893 1.777 0 3.379-.728 4.544-1.893 1.165-1.136 1.894-2.767 1.894-4.544 0-1.748-.729-3.379-1.894-4.516-1.165-1.165-2.767-1.893-4.544-1.893m0 .495c1.632 0 3.117.67 4.195 1.748 1.078 1.078 1.718 2.535 1.718 4.166 0 1.66-.64 3.116-1.718 4.195-1.078 1.078-2.563 1.718-4.195 1.718-1.631 0-3.116-.64-4.166-1.718-1.078-1.079-1.748-2.535-1.748-4.195 0-1.631.67-3.088 1.748-4.166 1.05-1.078 2.535-1.748 4.166-1.748" transform="matrix(0 1.25 1.25 0 146.1 562.76)"/><path d="m0 0c-3.408 0-6.176 2.767-6.176 6.175 0 3.408 2.768 6.176 6.176 6.176 3.408 0 6.146-2.768 6.146-6.176 0-3.408-2.738-6.175-6.146-6.175" fill="#fff" transform="matrix(0 1.25 1.25 0 74.12 562.8)"/><path d="m0 0c-1.777 0-3.379.699-4.544 1.864-1.165 1.165-1.894 2.767-1.894 4.544 0 1.777.729 3.38 1.894 4.545 1.165 1.165 2.767 1.893 4.544 1.893 1.748 0 3.379-.728 4.544-1.893 1.136-1.165 1.865-2.768 1.865-4.545 0-1.777-.729-3.379-1.865-4.544-1.165-1.165-2.796-1.864-4.544-1.864m0 .495c1.631 0 3.088.669 4.166 1.747 1.078 1.049 1.748 2.535 1.748 4.166 0 1.632-.67 3.117-1.748 4.195-1.078 1.078-2.535 1.718-4.166 1.718-1.632 0-3.117-.64-4.195-1.718-1.078-1.078-1.718-2.563-1.718-4.195 0-1.631.64-3.117 1.718-4.166 1.078-1.078 2.563-1.747 4.195-1.747" transform="matrix(0 1.25 1.25 0 73.825 562.8)"/><path d="m0 0l-1.66.058c.378.495.407 1.456-.205 2.01-.262.262-.698.408-1.135.379-.496-.029-.991-.233-1.34-.612-2.039-2.069-4.049-3.903-4.049-3.903-.321-.204-.525-.495-.612-.67-.117-.262-.525-1.165.524-1.835.933-.612 2.272-.525 2.767-.408l2.652 1.951c.844.641 2.621 2.535 3.058 3.03" fill-opacity=".941" transform="matrix(0 1.25 1.25 0 156.22 542.05)"/><g transform="matrix(0 1.25 1.25 0 104.34 520.56)"><path d="m0 0c-.816 2.447-1.486 4.66-1.777 7.69l1.777-7.69"/><path d="m0 0c-.816 2.447-1.486 4.66-1.748 7.69l-.262.466c-1.34-1.689-2.243-3.379-2.243-5.04 0-1.049.728-3.176 4.457-3.642l-.204.525"/></g><path d="m0 0c-.816-2.447-1.486-4.69-1.748-7.691l-.262-.465c-1.34 1.689-2.243 3.35-2.243 5.01 0 1.048.728 3.175 4.457 3.641l-.204-.495" transform="matrix(0 1.25 1.25 0 131.5 520.56)"/><path d="m0 0c-.029.495-.058 1.631-.058 2.098 0 .465.058 1.718.087 2.01l-.029-4.107" transform="matrix(0 1.25 1.25 0 115.41 517.9)"/><path d="m0 0c-2.359 1.223-3.204 2.36-3.204 2.971 0 .787 1.223 1.69 2.826 2.418l.378.145-.058-.611c-.088-.437-.088-1.602-.088-2.068 0-.466 0-1.457.03-2.068l.116-.787" transform="matrix(0 1.25 1.25 0 114.46 518.2)"/><g fill="#fff"><path d="m0 0l4.108-1.107-4.953-2.068-.35-1.253 5.827-1.573.349 1.399-4.136 1.106 5.01 2.098.321 1.223-5.797 1.573-.379-1.398" transform="matrix(0 1.25 1.25 0 111.44 588.11)"/><path d="m0 0l-.087-1.573 6.03-.321.087 1.602-6.03.292" transform="matrix(0 1.25 1.25 0 117.41 589.02)"/><path d="m0 0l.787.117-.234 1.69 5.186.728-.233 1.573-5.156-.728-.233 1.66-.787-.117.67-4.923" transform="matrix(0 1.25 1.25 0 119.19 588.95)"/><path d="m0 0c1.34.787 2.331.612 3-.553l.322-.554-3.817-2.214-.349.583c-.816 1.427-.117 2.213.844 2.738m-1.602-3.058l1.194-2.04 5.244 3-1.194 2.039c-1.195 2.097-3.03 2.301-4.516 1.486-1.747-1.02-1.777-2.651-.728-4.486" transform="matrix(0 1.25 1.25 0 139.59 585.88)"/><path d="m0 0l-1.864-.583-.583 1.778-.757-.263.583-1.777-1.573-.495-.612 1.807-.758-.234 1.107-3.349 5.71 1.863-1.194 3.7-.758-.262.699-2.185" transform="matrix(0 1.25 1.25 0 130.96 593.17)"/><path d="m0 0l3.233-1.806c.962-.524 1.573-1.078 1.05-1.981-.496-.903-1.253-.699-2.243-.146l-3.234 1.777-.787-1.427 3.409-1.893c1.864-1.049 3.03.262 3.612 1.281.583 1.107 1.048 2.709-.816 3.728l-3.437 1.895-.787-1.428" transform="matrix(0 1.25 1.25 0 102.33 584.87)"/><path d="m0 0h28.23l8.651 13.487-8.651 13.487h-28.17c-.379-.408-1.224-1.311-1.66-2.039v-22.983c.407-.583 1.398-1.777 1.601-1.952" transform="matrix(0 1.25 1.25 0 101.06 540.62)"/></g><path d="m0 0h28.08l8.506 13.254-8.506 13.225h-28.02v.524l28.17-.029h.116l.088-.116 8.681-13.488.087-.116-.087-.146-8.681-13.486-.088-.117h-28.343v.495" transform="matrix(0 1.25 1.25 0 101.35 540.62)"/><path d="m0 0c-.116-.116-.029-.029-.146-.146-.437-.465-1.135-1.223-1.485-1.835l-.437.263c.408.64 1.107 1.427 1.544 1.922 0 0-.059-.058.116.146l.408-.35" transform="matrix(0 1.25 1.25 0 134.56 540.95)"/></g><path d="m103.5 538.29v.656h28.729v-.656h-28.729"/><g fill-rule="evenodd"><path d="m0 0c.204-.292.525-.67.815-1.02.322-.437.67-.786.758-.903l-.32-.378c-.146.116-.496.524-.845.961-.321.378-.641.757-.816 1.048l.408.292" transform="matrix(0 1.25 1.25 0 103.68 538.88)"/><path d="m0 0c-.058-.087.204-.408.466-.583.233-.145.554-.174.67.03.117.204-.029.495-.408.553-.233.029-.699.117-.728 0m.728-2.563c.379.058.525.32.408.554-.116.203-.437.174-.67 0-.262-.147-.524-.467-.466-.554.029-.088.495-.029.728 0m3.729 1.34c-.728.466-1.515.64-1.515.64v-1.281c0 0 .787.204 1.515.641m-5.564.233l-1.835 1.049 1.835.815v1.34c.757-.815 1.923-1.136 2.68-1.136h.845c.35 0 .932-.174.932-.174 0 0 .903 1.165 1.049 1.339.058.087.116.175.262.117.262-.088.611-.903.699-.991.146-.174.233-.204.407-.174.147.058.175.204.059.524-.087.291-.437.932-.641 1.486-.233.524-.204 1.252-.204 1.252h-1.02v-2.039h-3.262l-.554-.349-1.602.903 1.602.873.554-.349h1.719v1.049h-1.719l-.554-.379-1.602.903 1.602.903.554-.349h1.719v1.018h-1.719l-.554-.348-1.602.873 1.602.903.554-.349h3.262v-2.01h1.515c.438.436 1.398.873 2.01.873.583 0 .816-.378.816-.378.466.146.67.116 1.078.058.437-.058 1.107-.582 1.107-.582h7.777c.554 0 .495-1.224.03-1.224h-7.632c-.758-.699-1.34-2.592-1.34-2.592.67-.7 1.893-1.136 1.893-1.136.203.32 0 .786-.204.961-.204.175-.263.524-.146.728.146.204.175.262.495.175.292-.058.816-.204 1.166-.204.349 0 .291.437.32.728.029.612.728.728 1.107.67.379-.058 1.195-.233 1.719-.233.495 0 1.019.029 1.31.088.263.028.583.145.933.116.495-.029.554-.32.262-.641-.32-.291-4.864-4.573-4.864-4.573.931-.291 2.504.903 2.999 1.282.467.378.845.349 1.165.029.35-.35.525-.991.817-1.107.32-.117 1.223.32 2.388 1.194 1.136.903 1.923-1.02 2.126-2.156.233-1.165-.553-1.165-.99-1.077-.437.087-.67.087-1.078.058-.378-.029-.903-.379-1.543-.874-.642-.495-1.224-.495-2.71-.292-1.485.205-2.418.147-2.418.147 0 0 .03-.496 0-1.224-.028-.757-.466-1.369-2.243-1.427-1.806-.03-6.06-.088-6.495-.204-.467-.117-.554-.583-.583-.787-.059-.233-.379-.233-.466-.029-.262.525-.932 1.165-1.34.932-.408-.233-.321-1.165 0-1.806.291-.641.961-1.281 1.136-1.456.204-.175.204-.321 0-.292-.204 0-1.165-.116-1.515-.203-.349-.088-.99-.408-1.165-.496-.175-.116-.233 0-.175.175.088.175.233.524.321.903.116.35-.059.699-.408.874-.32.146-1.049.495-1.398.641-.321.175-.233.466-.205.67.059.233.205.437.292.641.088.203.058.378-.029.437-.116.058-.146.145-.408.261-.262.117-.145.292-.029.292 3.67.612 3.816 2.214 3.816 2.214.641-.233 1.602-.816 1.836-.932.232-.146.553-.204.815-.233.262-.029 2.679.087 3.554.262.903.175.553.699.291.874-.291.175-1.398.699-1.398.699 0 0-.321.145-.583.145-.233 0-.816-.436-.99-.553-.146-.087-.496-.466-1.34-.466-.845 0-1.457.758-1.689 1.019-.205.292-.525.292-.7.262-.67-.145-2.039-.844-2.563-1.165-.553-.349-1.544-1.019-1.544-1.019v1.398l-1.835.874 1.835.962.029 1.019m9.263 5.447h-1.049c0 0-.436-.291-.436-.99 0-.67.203-1.078.378-1.078.291 0 1.107.611 1.107 2.068" transform="matrix(0 1.25 1.25 0 119.08 555.74)"/></g><path d="m102.37 549.44v2.111h31.1v-2.111h-31.1"/><path d="m102.37 539.9v8.448h31.1v-8.448h-31.1"/><g fill-rule="evenodd"><g fill="#fff"><path d="m0 0h-1.165v-1.806h-.729v1.486h-3.262v-1.37l-.903-.466.903-.466v-1.339h3.262v1.485h.729v-3.554h-.729v1.486h-3.262v-1.37l-.903-.465.903-.437v-1.37h3.262v1.486h.729v-3.612h-.729v1.485h-3.262v-1.368l-.903-.467.903-.466v-1.34h3.262v1.486h.729l.029-2.855-.671-2.854 1.807.582v16.11" transform="matrix(0 1.25 1.25 0 127.35 548.6)"/><path d="m0 0l.466 1.893-2.884 1.02h-.728l3.146-2.913" transform="matrix(0 1.25 1.25 0 107.72 546.16)"/><path d="m0 0c.262-2.971.903-4.777 1.69-7.195-1.02.204-1.632.437-2.243.845.524-.029 1.106.408 1.106 1.282 0 .874-.495 1.339-.815 1.339-.291 0-.728-.174-.728-.64 0-.466.349-.583.465-.525.147.03.175-.087.205-.203.029-.146-.175-.525-.641-.379-.495.146-.787.757-.787 1.515 0 0-.058 1.747 1.748 3.961" transform="matrix(0 1.25 1.25 0 113.48 518.12)"/><path d="m0 0c-.816-2.418-1.427-4.311-1.689-7.253-.962 1.339-1.748 2.622-1.748 4.02 0 .728.262 1.34.786 1.485.467.146.67-.233.642-.349-.059-.146-.088-.233-.205-.204-.145.029-.465-.058-.465-.525 0-.465.436-.67.728-.67.291 0 .786.496.786 1.37 0 .845-.553 1.281-1.078 1.252.583.438 1.224.699 2.243.874" transform="matrix(0 1.25 1.25 0 131.35 520.27)"/><path d="m0 0c.145-.087.233-.145.378-.233-.028.495-.058 1.631-.058 2.068 0 .466.058 1.689.088 1.981-1.02-.467-2.448-1.282-2.448-1.865 0-.116-.058-.378.496-.845 0 0 .233-.058.204.234-.058.378.32.524.524.495.466-.059.903-.612.903-1.136 0-.524-.087-.699-.087-.699" transform="matrix(0 1.25 1.25 0 115.73 517.43)"/></g><path d="m0 0l-2.651 1.952c-.496.117-1.835.204-2.767-.408-1.049-.699-.642-1.602-.525-1.864.088-.146.292-.466.612-.641 0 0 2.068-1.893 4.078-3.961.291-.263.816-.612 1.311-.642.437 0 .874.175 1.165.409.583.582.553 1.573.175 2.068l1.66.029c-.437.524-2.214 2.389-3.058 3.058" transform="matrix(0 1.25 1.25 0 83.58 538.22)"/><path d="m0 0c0 11.1 10.429 17.419 12.264 18.788 3.262 2.447 5.913 5.448 5.04 8.914-1.282 5.127-8.856 4.836-8.856 4.836-.903-1.224-2.01-3.321-7.427-7.137-5.302-3.758-13.196-12.235-13.196-25.401 0-13.196 7.894-21.672 13.196-25.43 5.418-3.816 6.524-5.914 7.427-7.137 0 0 7.574-.262 8.856 4.836.874 3.466-1.777 6.466-5.04 8.913-1.835 1.369-12.264 7.69-12.264 18.818" fill="#fff" transform="matrix(0 1.25 1.25 0 117.92 533.38)"/><path d="m0 0c0 10.312 8.855 16.545 11.739 18.555.263.175.466.35.612.437 1.602 1.224 3.058 2.564 4.02 4.02.903 1.426 1.34 2.971.932 4.631-1.165 4.544-7.516 4.661-8.506 4.661-.058-.117-.145-.204-.203-.32-.904-1.283-2.331-3.351-7.196-6.788-3.058-2.156-6.962-5.884-9.7-11.186-2.01-3.845-3.379-8.506-3.379-14.01 0-5.506 1.369-10.196 3.379-14.04 2.738-5.301 6.642-9.03 9.7-11.156 4.865-3.437 6.292-5.506 7.196-6.817.058-.087.145-.203.203-.291.99-.029 7.341.088 8.506 4.632.408 1.66-.029 3.204-.932 4.66-.962 1.457-2.418 2.797-4.02 3.991-.146.116-.349.263-.612.437-2.884 2.039-11.739 8.244-11.739 18.585m.495 0c0-10.08 8.71-16.17 11.535-18.18.263-.175.467-.292.612-.437 1.661-1.223 3.176-2.622 4.137-4.136 1.019-1.545 1.456-3.234 1.019-5.04-1.369-5.302-9.118-5.04-9.118-5.04h-.145l-.058.116c-.117.146-.204.262-.321.437-.844 1.252-2.243 3.263-7.05 6.641-3.117 2.185-7.079 5.972-9.875 11.362-2.01 3.903-3.437 8.68-3.437 14.273 0 5.592 1.427 10.341 3.437 14.244 2.796 5.389 6.758 9.176 9.875 11.36 4.806 3.38 6.205 5.419 7.05 6.671.117.146.204.292.321.408l.058.117h.145c0 0 7.749.291 9.118-5.04.437-1.806 0-3.496-1.019-5.04-.961-1.515-2.476-2.884-4.137-4.136-.145-.117-.349-.263-.612-.438-2.825-1.98-11.535-8.097-11.535-18.15" transform="matrix(0 1.25 1.25 0 117.92 533.09)"/><path d="m0 0c0 10.69 9.09 17.07 12.09 19.17.233.146.437.291.583.408 3.757 2.826 5.301 5.418 4.66 7.894-.903 3.583-5.825 4.02-7.312 4.078h-.058l-.028-.058c-.875-1.252-2.331-3.35-7.371-6.904-3-2.097-12.758-10.137-12.758-24.585 0-14.478 9.787-22.488 12.758-24.615 4.982-3.524 6.526-5.709 7.341-6.904l.03-.028h.058c1.485.028 6.437.495 7.34 4.048.641 2.476-.903 5.069-4.66 7.895-.146.116-.35.262-.583.437-3 2.068-12.09 8.447-12.09 19.17" transform="matrix(0 1.25 1.25 0 117.92 532.14)"/><g fill="#fff"><path d="m0 0l1.339-1.106 4.312 2.096-1.457-4.514 1.136-.962 3.875 4.631-.816.7-2.738-3.263 1.398 4.37-.524.466-4.195-2.098 2.767 3.292-1.223.991-3.874-4.603" transform="matrix(0 1.25 1.25 0 89.12 537.38)"/><path d="m0 0l1.107-1.048-2.068-1.05.961 2.098m-2.738-2.418l1.107-1.048 5.739 2.913-.758.698-1.515-.786-1.514 1.398.67 1.573-1.224 1.166-2.505-5.914" transform="matrix(0 1.25 1.25 0 96.4 536.26)"/><path d="m0 0l3.612 2.243-1.894-5.04.729-1.107 5.098 3.175-.758 1.223-3.641-2.271 1.864 5.097-.669 1.078-5.099-3.175.758-1.224" transform="matrix(0 1.25 1.25 0 102.19 526.02)"/><path d="m0 0l-1.835.641.611 1.777-.757.262-.612-1.777-1.573.524.641 1.836-.757.261-1.166-3.321 5.71-1.98 1.252 3.67-.757.263-.757-2.156" transform="matrix(0 1.25 1.25 0 126 529.7)"/><path d="m0 0l.612-.554 1.136 1.282 3.874-3.496 1.049 1.166-3.875 3.495 1.137 1.253-.612.524-3.321-3.67" transform="matrix(0 1.25 1.25 0 138.89 529.23)"/><path d="m0 0l-1.253 1.486 1.428 1.223-.525.612-1.427-1.195-1.078 1.253 1.486 1.253-.495.611-2.709-2.272 3.874-4.602 2.971 2.476-.524.641-1.748-1.486" transform="matrix(0 1.25 1.25 0 141.04 540.55)"/><path d="m0 0c.466.408 1.019.408 1.427-.059.437-.495.349-1.078-.146-1.543l-.32-.291-1.369 1.543.408.35m2.942-.816c.029.029.495.932-.437 1.952-.758.845-1.806.582-2.797-.32l-1.835-1.632 4.049-4.486 1.165 1.049-1.601 1.777.582.524 2.534-1.106 1.078 1.339-2.738.903" transform="matrix(0 1.25 1.25 0 149.78 542.48)"/><path d="m0 0l2.476-.029-.058-2.359-2.447.029-.029-1.573 6-.117.029 1.602-2.739.03.03 2.388 2.767-.058.029 1.573-6.03.116-.029-1.602" transform="matrix(0 1.25 1.25 0 120.43 522.27)"/><path d="m0 0c.699 1.107.583 2.36-.378 2.913-.67.437-1.195.437-2.185-.058-.291-.146-.495-.321-.758-.437-.408-.204-.728-.408-1.048-.233-.35.233-.379.699-.117 1.136.292.466.729.67 1.049.757l-.292.728c-.611-.233-1.135-.553-1.601-1.31-.758-1.282-.554-2.331.175-2.768.728-.436 1.339-.32 1.951 0 0 .03.379.233.612.35.495.291 1.078.612 1.486.378.465-.291.582-.786.29-1.252-.407-.641-.844-.787-1.31-.903l.35-.787c.612.175 1.252.583 1.776 1.486" transform="matrix(0 1.25 1.25 0 131.17 533.45)"/><path d="m0 0c.408-1.981 1.865-3.263 3.816-2.826 1.078.233 3.03 1.195 2.389 4.166-.146.845-.495 1.281-.903 1.718l-.641-.553c.233-.175.582-.495.728-1.194.292-1.428-.874-2.301-1.893-2.506-1.486-.32-2.534.554-2.738 1.545-.146.698.029 1.106.145 1.398l-.786.175c-.175-.467-.32-1.049-.117-1.923" transform="matrix(0 1.25 1.25 0 110.64 522.67)"/><path d="m0 0c-.35-.058-1.894-.203-2.68.379-.758.553-.495 1.02-.379 1.281.029.147.262.496.729.554.232.029.582-.029.845-.233.495-.349.815-1.194.815-1.194 0 0 2.097 1.078 4.166 3.321h1.398c-2.971-3.088-4.894-4.108-4.894-4.108" transform="matrix(0 1.25 1.25 0 150.54 535.2)"/><path d="m0 0c.525.292 1.806 1.078 3.641 3.03.321.32.553 1.136.058 1.573-.203.175-.495.292-.815.262-.379 0-.816-.233-.991-.466-.349-.379-2.038-2.069-3.35-3.262.234-.03.642-.233.642-.233.232-.175.553-.35.815-.904" transform="matrix(0 1.25 1.25 0 152.51 534.65)"/><path d="m0 0h-1.311c-2.097 2.272-4.165 3.321-4.165 3.321 0 0-.321-.816-.816-1.195-.262-.174-.612-.261-.845-.233-.466.088-.699.437-.729.554-.116.262-.378.757.379 1.282.787.582 2.301.437 2.651.349 0 0 1.865-1.048 4.836-4.078" transform="matrix(0 1.25 1.25 0 80.31 541.21)"/><path d="m0 0c.525-.292 1.806-1.078 3.641-3.03.321-.32.553-1.106.058-1.573-.203-.175-.495-.291-.815-.262-.379 0-.816.234-.991.466-.349.379-2.038 2.069-3.35 3.263.234.029.642.233.642.233.232.175.553.378.815.903" transform="matrix(0 1.25 1.25 0 83.44 534.65)"/></g><path d="m0 0c-2.767 0-5.01 2.243-5.01 5.04 0 2.768 2.243 5.01 5.01 5.01 2.797 0 5.04-2.243 5.04-5.01 0-2.796-2.243-5.04-5.04-5.04" transform="matrix(0 1.25 1.25 0 75.57 562.84)"/><path d="m0 0c.058.087.233.32.233.32.379.437.845.816 1.398 1.049.67.291 1.719-.612 1.952-.874 1.078-1.165 1.078-1.893 1.136-2.302.058-.407-.204-.669-.525-.669-.903.029-2.476.669-2.767.874-.204.116-.32.32-.32.32-.117.437-.292.845-.554 1.049-.233.233-.553.233-.553.233m-.67-4.195c-.146.466-.262.962-.262 1.485 0 .787.145 1.515.554 2.156.116.175.232.204.407.204.612 0 .816-.932.816-1.543 0-.612-.262-1.37-.437-1.923-.146-.524-.466-.641-.612-.641-.146 0-.408.087-.466.262m7.224-1.981c-.612-.64-1.748-1.078-2.942-1.078-.437 0-.874.058-1.311.175 0 0-.175.117-.029.233.116.058.233.175.408.262.146.088.524.583.816.525 1.107-.175 2.592 0 2.825.029.262.058.378-.029.233-.146m-3.816.117c-.117-.234-.67-.495-.845-.583-.116-.058-.466-.058-.611.029-.67.379-1.253.903-1.574 1.573-.028.087-.028.204.146.204.116 0 .291.058.408.058.088 0 .321.059.495-.087.175-.146 1.224-.758 1.836-.903.145-.029.291-.058.145-.291m5.418 3.437c0-.029 0-.058 0-.088 0-.844-.291-1.747-.612-2.301-.32-.553-1.747-.757-2.476-.757-2.359 0-3.786.962-4.078 1.107-.262.175-.291.525-.233.786.058.234.116.35.204.642.059.175.117.495.175.728.058.233.117.495.554.349.465-.174 1.543-.67 2.825-.728 1.165-.058 2.331.087 3.03.349.467.175.641.175.612-.087m-.174 1.194c.087-.262-.088-.379-.233-.495-.525-.466-1.981-.582-2.156-.582-.204 0-.408.058-.408.203-.029 1.137-.349 1.923-.961 2.68-.612.728-1.311 1.05-1.428 1.108-.145.087-.116.232.088.262.145.028.437.087.728.087 2.068 0 3.758-1.399 4.37-3.263" fill="#fff" transform="matrix(0 1.25 1.25 0 85.22 558.32)"/><path d="m0 0c-2.767 0-5.01-2.243-5.01-5.04 0-2.767 2.243-5.01 5.01-5.01 2.797 0 5.04 2.243 5.04 5.01 0 2.797-2.243 5.04-5.04 5.04" transform="matrix(0 1.25 1.25 0 160.49 562.84)"/><g fill="#fff"><path d="m0 0c.262.203.437.611.554 1.048 0 0 .116.205.32.321.291.204 1.864.845 2.767.874.321 0 .583-.262.525-.67-.058-.408-.058-1.136-1.136-2.301-.233-.262-1.282-1.165-1.952-.874-.553.233-1.019.612-1.398 1.048 0 0-.175.234-.233.321 0 0 .32 0 .553.233m-.758 4.224c.147 0 .467-.117.613-.641.174-.554.437-1.311.437-1.923 0-.612-.205-1.544-.816-1.544-.175 0-.292.029-.408.204-.408.641-.554 1.369-.554 2.156 0 .524.117 1.02.263 1.485.058.175.32.263.465.263m6.526 1.573c-.233.029-1.718.204-2.826.029-.291-.059-.67.436-.815.524-.175.087-.292.204-.408.262-.146.117.029.233.029.233.437.117.874.175 1.31.175 1.195 0 2.331-.436 2.943-1.078.145-.116.029-.203-.233-.145m-3.728-.263c-.613-.145-1.661-.757-1.836-.903-.175-.145-.407-.087-.495-.087-.117 0-.292.058-.408.058-.175 0-.175.117-.146.204.321.67.904 1.195 1.574 1.573.145.088.495.088.611.03.175-.088.728-.35.845-.583.145-.234 0-.262-.145-.292m4.951-3.233c-.698.262-1.864.408-3.03.35-1.282-.058-2.36-.583-2.825-.728-.438-.147-.496.116-.554.349-.058.233-.116.554-.175.728-.088.291-.146.408-.204.641-.058.262-.029.612.233.786.292.146 1.719 1.107 4.078 1.107.728 0 2.156-.203 2.476-.757.321-.553.612-1.456.612-2.301 0-.03 0-.058 0-.088.029-.262-.145-.262-.612-.087m-3.933-4.369c-.29 0-.582.058-.728.087-.203.029-.232.175-.087.262.117.059.815.379 1.428 1.107.612.757.932 1.544.961 2.68 0 .146.204.204.408.204.175 0 1.631-.116 2.156-.583.145-.116.32-.233.232-.495-.612-1.864-2.301-3.262-4.37-3.262" transform="matrix(0 1.25 1.25 0 151.13 559.01)"/><path d="m0 0c-1.369 0-2.651.554-3.554 1.486-.903.903-1.486 2.155-1.486 3.554 0 1.398.583 2.651 1.486 3.554.903.932 2.185 1.485 3.554 1.485 1.398 0 2.68-.553 3.583-1.485.903-.903 1.486-2.156 1.486-3.554 0-1.399-.583-2.651-1.486-3.554-.903-.932-2.185-1.486-3.583-1.486m0 .059c1.398 0 2.651.553 3.554 1.456.903.903 1.457 2.155 1.457 3.525 0 1.369-.554 2.621-1.457 3.524-.903.903-2.156 1.457-3.554 1.457-1.369 0-2.622-.554-3.525-1.457-.903-.903-1.456-2.155-1.456-3.524 0-1.37.553-2.622 1.456-3.525.903-.903 2.156-1.456 3.525-1.456" transform="matrix(0 1.25 1.25 0 147.96 562.8)"/></g></g></g></svg>