<svg xmlns="http://www.w3.org/2000/svg" height="216.37" width="600" viewBox="0 0 158.75 57.248744"><defs><clipPath id="0"><path d="m986.64 446.96h22.66v11.34h-22.66z"/></clipPath><radialGradient id="1" gradientUnits="userSpaceOnUse" cy="-.003" cx=".36" gradientTransform="matrix(36.32 38.786-54.089 50.651 28.21 71.39)" r="1"><stop stop-color="#fb0001"/><stop stop-color="#7e0101" offset="1"/></radialGradient></defs><g transform="translate(-28.726-74.1)"><g clip-path="url(#0)" transform="matrix(8.6011 0 0-8.6011-8475.5 3995.8)" fill="#050301"><path d="m0 0l.004-.033c0-.042-.015-.077-.046-.106-.03-.029-.065-.044-.104-.044-.037 0-.069.011-.096.034-.027.022-.045.05-.053.084l-.217.974c-.009.041-.03.074-.063.101-.034.026-.072.039-.112.039h-.33v-1.082c0-.042-.015-.077-.045-.106-.031-.029-.067-.044-.107-.044-.041 0-.076.015-.106.044s-.045.064-.045.106v1.082h-.408c-.051 0-.093-.017-.127-.052-.035-.034-.052-.077-.052-.127v-.903c0-.042-.015-.077-.044-.106s-.065-.044-.107-.044-.078.015-.108.044c-.029.029-.044.064-.044.106v.903c0 .133.047.246.141.34.094.093.208.14.341.14h1.041c.114 0 .214-.035.302-.107.087-.071.143-.161.167-.269z" transform="translate(998.26 452.14)"/><path d="m0 0h.848l-.073.327c-.008.041-.029.075-.063.101s-.071.04-.112.04h-.354c-.039 0-.076-.014-.11-.041s-.055-.06-.063-.1zm1.287-.578l.004-.032c0-.042-.015-.078-.046-.107-.03-.029-.066-.043-.106-.043-.037 0-.069.011-.095.033s-.044.05-.052.084l-.077.342h-.984l-.075-.342c-.008-.034-.026-.062-.053-.084s-.059-.033-.096-.033c-.04 0-.076.014-.106.043-.029.029-.044.065-.044.107l.004.032.217.971c.025.108.081.198.168.269.088.071.188.107.3.107h.354c.114 0 .214-.036.302-.107.087-.071.143-.16.168-.267z" transform="translate(998.82 452.72)"/><path d="m0 0c0 .133.047.246.14.339.094.094.207.14.34.14h.547c.112 0 .212-.035.3-.106.087-.071.143-.16.168-.267l.217-.973.004-.033c0-.042-.015-.077-.046-.106-.03-.029-.065-.044-.104-.044-.037 0-.069.011-.096.034-.027.022-.045.05-.053.084l-.217.97c-.008.042-.029.076-.063.102-.034.025-.071.038-.11.038h-.547c-.05 0-.093-.017-.127-.051-.035-.035-.052-.077-.052-.127v-.9c0-.042-.015-.077-.044-.106s-.064-.044-.107-.044c-.042 0-.077.015-.106.044s-.044.064-.044.106v.788z" transform="translate(1000.2 453.01)"/><path d="m0 0c0 .129.046.24.138.332s.204.138.334.138h.76c.098 0 .181-.034.25-.103.069-.07.104-.153.104-.25 0-.04-.014-.074-.043-.104-.028-.03-.063-.045-.103-.045-.041 0-.076.015-.105.044s-.044.064-.044.105c0 .039-.019.059-.059.059h-.76c-.049 0-.09-.018-.124-.052s-.051-.074-.051-.122v-.566c0-.048.017-.088.051-.122s.075-.051.124-.051h.72c.024 0 .045.008.063.025.017.017.026.038.026.064 0 .047-.02.076-.061.085-.041.001-.072.028-.093.054-.022.027-.033.057-.033.093 0 .039.014.074.043.104.028.029.063.044.105.044.089 0 .167-.042.236-.126.065-.08.098-.165.098-.254 0-.107-.038-.198-.113-.274-.075-.075-.166-.112-.271-.112h-.72c-.13 0-.242.046-.334.138s-.138.203-.138.332z" transform="translate(1002 453.02)"/><path d="m0 0h.848l-.073.327c-.008.041-.03.075-.063.101-.034.026-.071.04-.112.04h-.354c-.039 0-.076-.014-.11-.041s-.055-.06-.063-.1zm1.287-.578l.004-.032c0-.042-.015-.078-.046-.107-.03-.029-.066-.043-.106-.043-.037 0-.068.011-.095.033-.026.022-.044.05-.052.084l-.077.342h-.984l-.075-.342c-.009-.034-.026-.062-.053-.084s-.059-.033-.096-.033c-.04 0-.076.014-.106.043-.029.029-.044.065-.044.107l.004.032.217.971c.025.108.081.198.168.269.088.071.188.107.3.107h.354c.114 0 .214-.036.302-.107.087-.071.143-.16.168-.267z" transform="translate(1004.3 452.72)"/><path d="m0 0c.041 0 .075-.014.103-.042.027-.027.041-.062.041-.102s-.014-.073-.041-.101c-.028-.028-.062-.042-.103-.042h-1.051c-.026 0-.048-.009-.067-.028s-.029-.042-.029-.067c0-.049.025-.081.076-.096l.929-.271-.015.002c.087-.018.159-.062.216-.134s.085-.152.085-.241c0-.106-.037-.196-.111-.271-.075-.074-.165-.112-.271-.112h-1.051c-.04 0-.073.014-.102.042-.028.028-.043.062-.043.103 0 .039.015.073.044.1.029.028.063.042.101.042h1.051c.026 0 .048.001.067.029s.029.041.029.067c0 .049-.026.081-.076.095l-.929.271.014-.002c-.086.018-.158.063-.215.135s-.086.152-.086.24c0 .105.038.195.113.27s.165.113.27.113z" transform="translate(1007.1 453.49)"/></g><path fill="url(#1)" d="m28.726 102.72c0 15.81 12.816 28.62 28.625 28.62 15.808 0 28.624-12.81 28.624-28.62 0-15.817-12.816-28.624-28.624-28.624-15.809 0-28.625 12.807-28.625 28.624"/><g clip-path="url(#0)" transform="matrix(8.6011 0 0-8.6011-8475.5 3995.8)"><path d="m0 0c-1.516 0-2.745-.456-2.745-1.018s1.229-1.017 2.745-1.017 2.745.455 2.745 1.017-1.229 1.018-2.745 1.018" fill="#fff" transform="translate(992.03 453.65)"/><g fill="#050301"><path d="m0 0c.048.068.086.144.115.224-.029.081-.067.157-.115.225-.244.347-.64.347-.885 0-.047-.068-.085-.144-.114-.225.029-.08.067-.156.114-.224.245-.347.641-.347.885 0" transform="translate(990.92 452.4)"/><path d="m0 0c.048.068.086.144.115.224-.029.081-.067.157-.115.225-.244.347-.64.347-.884 0-.048-.068-.086-.144-.115-.225.029-.08.067-.156.115-.224.244-.347.64-.347.884 0" transform="translate(994.02 452.4)"/></g><g fill="#fff"><path d="m0 0c.233.233.391.451.327.515-.064.065-.327-.05-.56-.282-.232-.233-.347-.496-.282-.56.064-.064.282.094.515.327" transform="translate(990.22 454.67)"/><path d="m0 0c.031-.048-.012-.131-.095-.185-.084-.054-.177-.058-.208-.001s.012.131.095.185c.084.054.177.058.208.001" transform="translate(990.44 452.96)"/><path d="m0 0c.031-.048-.011-.131-.095-.185s-.177-.058-.208-.001.012.131.095.185c.084.054.177.058.208.001" transform="translate(993.6 452.96)"/></g></g></g></svg>