<?xml version="1.0" encoding="UTF-8" standalone="no"?>
<svg xmlns:rdf="http://www.w3.org/1999/02/22-rdf-syntax-ns#" xmlns="http://www.w3.org/2000/svg" height="145.33mm" width="169.33mm" version="1.1" xmlns:cc="http://creativecommons.org/ns#" xmlns:dc="http://purl.org/dc/elements/1.1/" viewBox="0 0 599.99998 514.93241">
 <defs>
  <clipPath id="a" clipPathUnits="userSpaceOnUse">
   <path d="m109.15 529.7h18.1v8.6h-18.1v-8.6z"/>
  </clipPath>
  <clipPath id="b" clipPathUnits="userSpaceOnUse">
   <path d="m109.15 529.7h18.1v8.6h-18.1v-8.6z"/>
  </clipPath>
  <clipPath id="c" clipPathUnits="userSpaceOnUse">
   <path d="m114.11 530.87h7.77v6.64h-7.77v-6.64z"/>
  </clipPath>
 </defs>
 <g transform="translate(-127.03 -152.6)">
  <g transform="matrix(73.334 0 0 -73.334 -8241 39571)">
   <g clip-path="url(#c)">
    <g transform="translate(120.18 534.09)">
     <path d="m0 0c0.239-0.246 0.523-0.6 1.048-0.493 0.422 0.087 0.722 0.356 1.013 0.559-0.136-0.2-0.172-0.235-0.278-0.331-0.24-0.217-0.501-0.444-0.806-0.582-0.221-0.1-0.514-0.145-0.761-0.055-0.222 0.082-0.39 0.226-0.535 0.389-0.51-0.578-1.303-1.096-2.439-0.93-0.973 0.142-1.602 0.71-2.137 1.29-0.351 0.41-0.631 0.891-1.102 1.18-0.009 0.036-0.015 0.074-0.021 0.113 0.476-0.233 0.786-0.683 1.118-1.081 0.519-0.559 1.124-1.103 2.05-1.26 1.099-0.187 1.893 0.303 2.343 0.893-0.207 0.206-0.419 0.404-0.748 0.478-0.293 0.065-0.545-0.035-0.711-0.167-0.044-0.035-0.111-0.133-0.17-0.136-0.131-0.005-0.248 0.266-0.3 0.354-0.239 0.415-0.438 0.865-0.68 1.273-0.191-0.322-0.367-0.701-0.584-1.025-0.066-0.099-0.163-0.271-0.3-0.282-0.089-0.007-0.237 0.044-0.275 0.092-0.205 0.253-0.272 0.734-0.214 1.152 0.056 0.405 0.206 0.732 0.397 0.999 0.393 0.546 0.936 0.944 1.812 0.984 0.483 0.023 0.933-0.13 1.252-0.29 0.663-0.333 1.154-0.923 1.242-1.832 0.046-0.483-0.038-0.944-0.214-1.292m-0.483 2.228c-0.348 0.444-0.973 0.812-1.768 0.774-0.732-0.033-1.176-0.361-1.526-0.788-0.315-0.384-0.624-1.085-0.377-1.759 0.264 0.373 0.47 0.89 0.722 1.31 0.081 0.135 0.18 0.296 0.343 0.339 0.218 0.059 0.353-0.235 0.428-0.368 0.245-0.426 0.449-0.874 0.689-1.292 0.175 0.228 0.556 0.371 0.953 0.27 0.338-0.086 0.59-0.297 0.809-0.485 0.292 0.692 0.066 1.567-0.273 1.999" fill="#293f8e"/>
    </g>
   </g>
  </g>
  <g transform="matrix(73.334 0 0 -73.334 -8241 39571)">
   <g clip-path="url(#b)">
    <g transform="translate(114.11 530.51)">
     <path d="m0 0 0.223 1.12h0.29l-0.093-0.466c0.074 0.144 0.159 0.261 0.254 0.352 0.096 0.093 0.191 0.139 0.287 0.139 0.049 0 0.092-0.016 0.128-0.049 0.036-0.032 0.054-0.082 0.054-0.153 0-0.042-0.004-0.086-0.013-0.133l-0.03-0.156c0.18 0.327 0.363 0.491 0.548 0.491 0.059 0 0.105-0.021 0.139-0.063s0.05-0.094 0.05-0.158c0-0.03-0.004-0.067-0.013-0.111l-0.162-0.813h-0.29l0.151 0.754c0.003 0.016 0.005 0.034 0.005 0.053 0 0.022-0.005 0.038-0.015 0.047s-0.02 0.013-0.03 0.013c-0.069 0-0.214-0.159-0.436-0.479l-0.078-0.388h-0.283l0.15 0.754c0.004 0.016 0.005 0.035 0.005 0.055s-0.005 0.036-0.014 0.045c-0.01 0.009-0.02 0.013-0.03 0.013-0.067 0-0.211-0.159-0.43-0.479l-0.078-0.388h-0.289z" fill="#293f8e"/>
    </g>
    <g transform="translate(116.7 530.51)">
     <path d="m0 0 0.093 0.466c-0.072-0.139-0.159-0.255-0.259-0.35-0.1-0.094-0.196-0.142-0.288-0.142-0.072 0-0.13 0.031-0.173 0.09-0.042 0.058-0.064 0.122-0.064 0.187 0 0.137 0.043 0.281 0.128 0.435 0.085 0.155 0.182 0.27 0.293 0.346s0.221 0.113 0.331 0.113c0.023 0 0.048-0.002 0.074-0.005 0.027-0.004 0.056-0.011 0.088-0.02h0.302l-0.223-1.12h-0.302zm0.146 0.733 0.037 0.186c-0.024 0.013-0.048 0.022-0.071 0.029-0.024 0.005-0.048 0.009-0.072 0.009-0.061 0-0.121-0.026-0.181-0.079-0.06-0.052-0.116-0.138-0.166-0.258s-0.075-0.217-0.075-0.292c0-0.019 0.005-0.038 0.014-0.055 0.009-0.018 0.025-0.028 0.047-0.028 0.054 0 0.13 0.058 0.228 0.172s0.177 0.22 0.239 0.316" fill="#293f8e"/>
    </g>
    <g transform="translate(117.26 530.51)">
     <path d="m0 0 0.223 1.12h0.302l-0.093-0.466c0.08 0.153 0.168 0.272 0.266 0.36 0.097 0.087 0.185 0.131 0.266 0.131 0.027 0 0.055-0.005 0.084-0.014l-0.088-0.286c-0.031 0.015-0.06 0.022-0.085 0.022-0.075 0-0.157-0.052-0.246-0.154-0.089-0.103-0.173-0.217-0.252-0.343l-0.075-0.37h-0.302z" fill="#293f8e"/>
    </g>
   </g>
  </g>
  <g transform="matrix(73.334 0 0 -73.334 428.58 665.57)">
   <path d="m0 0 0.321 1.61h0.301l-0.205-1.032 0.53 0.542h0.26l-0.476-0.498 0.359-0.622h-0.338l-0.335 0.579-0.115-0.579h-0.302z" fill="#293f8e"/>
  </g>
  <g transform="matrix(73.334 0 0 -73.334 552.89 547.59)">
   <path d="m0 0-0.274-0.302h0.189l0.369 0.302h-0.284zm-0.279-0.49-0.222-1.119h0.301l0.223 1.119h-0.302z" fill="#293f8e"/>
  </g>
  <g transform="matrix(73.334 0 0 -73.334 551.39 665.57)">
   <path d="m0 0 0.038 0.189 0.755 0.741h-0.589l0.037 0.19h0.945l-0.038-0.19-0.759-0.741h0.668l-0.039-0.189h-1.018z" fill="#293f8e"/>
  </g>
  <g transform="matrix(73.334 0 0 -73.334 -8241 39571)">
   <g clip-path="url(#a)">
    <g transform="translate(121.76 530.51)">
     <path d="m0 0 0.094 0.466c-0.073-0.139-0.159-0.255-0.259-0.35-0.1-0.094-0.196-0.142-0.288-0.142-0.073 0-0.131 0.031-0.173 0.09-0.043 0.058-0.064 0.122-0.064 0.187 0 0.137 0.042 0.281 0.127 0.435 0.085 0.155 0.183 0.27 0.294 0.346s0.221 0.113 0.332 0.113c0.022 0 0.046-0.002 0.073-0.005 0.027-0.004 0.056-0.011 0.088-0.02h0.301l-0.223-1.12h-0.302zm0.147 0.733 0.037 0.186c-0.024 0.013-0.048 0.022-0.071 0.029-0.025 0.005-0.048 0.009-0.072 0.009-0.061 0-0.121-0.026-0.182-0.079-0.06-0.052-0.115-0.138-0.165-0.258s-0.074-0.217-0.074-0.292c0-0.019 0.004-0.038 0.013-0.055 0.009-0.018 0.025-0.028 0.047-0.028 0.054 0 0.13 0.058 0.227 0.172 0.098 0.114 0.177 0.22 0.24 0.316" fill="#293f8e"/>
    </g>
   </g>
  </g>
 </g>
</svg>
