<?xml version="1.0" encoding="UTF-8" standalone="no"?>
<svg id="svg2" xmlns:rdf="http://www.w3.org/1999/02/22-rdf-syntax-ns#" xmlns="http://www.w3.org/2000/svg" height="167.18" viewBox="0 0 179.04002 167.17746" width="179.04" version="1.1" xmlns:cc="http://creativecommons.org/ns#" xmlns:dc="http://purl.org/dc/elements/1.1/">
 <path id="path3338" fill="#293f8e" d="m6 143.03v-24.15h81.125c44.619 0 81.339 0.0819 81.6 0.1821 0.42724 0.16394 0.47454 2.5712 0.47454 24.15v23.968h-81.6-81.6v-24.15zm159.6 0v-20.25h-78.15-78.15v20.25 20.25h78.15 78.15v-20.25zm-120 0.45v-16.5h4.95 4.95v5.7 5.7h6 6v-5.7-5.7h4.95 4.95v16.5 16.5h-4.95-4.95v-6.75-6.75h-6-6v6.75 6.75h-4.95-4.95v-16.5zm54.3 0v-16.5h9.1352c5.6262 0 9.7459 0.12967 10.725 0.33758 3.8068 0.80835 7.0502 3.3013 8.6213 6.6265 1.5313 3.241 1.9424 5.3365 1.9295 9.8359-0.018 6.2683-1.0156 9.058-4.457 12.463-1.4976 1.4817-2.2028 1.9344-3.8607 2.4787-3.1765 1.0428-5.461 1.2462-14.068 1.2525l-8.025 0.006v-16.5zm17.409 8.325c0.73488-0.37125 1.627-1.1129 1.9825-1.6482 1.1848-1.7841 1.6763-6.9916 0.97555-10.337-0.8203-3.9164-2.8262-5.3772-7.6752-5.5892l-2.7918-0.12211v9.1858 9.1858h3.0864c2.6049 0 3.2949-0.10532 4.4226-0.675zm-42.025-43.56c-13.325-1.47-24.794-6.35-36.285-15.456-6.069-4.808-14.203-13.383-20.922-22.057-5.495-7.092-9.6957-11.654-13.388-14.538-4.2561-3.324-4.69-3.754-4.69-4.653 0-0.714 0.057-0.75 0.675-0.424 2.702 1.423 7.9295 5.2675 7.7926 5.7311-0.0453 0.15352 0.0306 0.20926 0.16881 0.12386 0.2611-0.16137 5.9492 5.5162 7.2636 7.2501 0.4125 0.54416 1.0875 1.359 1.5 1.8107 0.4125 0.45172 1.2225 1.4173 1.8 2.1458 0.5775 0.72849 1.4034 1.7362 1.8353 2.2393 0.43193 0.50313 1.486 1.7923 2.3424 2.8648 1.7157 2.1486 7.8606 8.421 11.041 11.27 14.396 12.896 29.334 19.03 46.339 19.03 8.668 0 15.479-1.529 22.865-5.1328 2.9772-1.4527 7.8803-4.5206 9.6075-6.0113 0.50605-0.43677 1.7301-1.4921 2.7201-2.3453 2.0796-1.7921 5.7424-5.8276 6.2433-6.8786 0.31751-0.66618 0.18187-0.86823-1.8783-2.7981-4.0155-3.7615-7.8453-6.3084-11.422-7.5959-1.4628-0.5266-1.3915-0.50851-4.1328-1.0491-5.2667-1.0387-12.632 1.2998-16.066 5.1012-1.9107 2.1149-2.9289 2.3033-4.5135 0.83496-1.2999-1.2045-2.0496-2.3122-4.2439-6.2703-2.8074-5.064-3.4055-6.1809-5.9194-11.055-1.3192-2.5575-3.2702-6.3375-4.3355-8.4-2.9636-5.7372-5.0005-9.2862-5.334-9.2934-0.16591-0.0036-0.72391 0.7697-1.24 1.7184-5.3564 9.8468-7.9108 14.495-8.4492 15.375-0.35333 0.5775-0.86814 1.4522-1.144 1.9437-1.4895 2.6538-4.5327 6.9901-5.7058 8.1303-1.4933 1.4513-2.622 1.8028-4.9162 1.5311-4.0093-0.47484-6.5118-3.7689-8.3238-10.957-0.74935-2.9726-0.80674-3.6537-0.81279-9.6484-0.006-5.623 0.083-6.8731 0.69164-9.75 2.416-11.444 7.61-20.144 17.497-29.32 1.398-1.297 4.45-3.6078 4.45-3.3688 0 0.09963 0.21017-0.02902 0.46705-0.2859 0.80221-0.80221 3.9338-2.5181 7.1218-3.9023 9.256-4.019 20.74-5.1984 31.086-3.1927 3.99 0.7734 10.165 2.8631 14.425 4.8794 3.194 1.5126 8.2328 4.4769 9.8919 5.8192 3.5975 2.9107 6.2976 5.6121 9.3997 9.4041 1.2183 1.4892 3.395 5.1458 4.7424 7.9665 3.712 7.7705 5.2874 15.933 4.9774 25.789-0.23477 7.4646-1.2138 12.397-3.6545 18.411l-1.1361 2.7995 1.4646 1.5284c4.1404 4.3209 6.5519 6.2504 9.8646 7.893 3.2723 1.6225 5.3993 2.0494 9.15 1.8366 6.2132-0.35259 12.627-3.1962 20.7-9.1775 1.2375-0.91686 2.6753-1.9604 3.195-2.3189l0.94502-0.65184-0.89127 1.3206c-0.4902 0.72634-1.0392 1.3206-1.22 1.3206-0.18081 0-0.24298 0.08578-0.13814 0.19061 0.22485 0.22485-2.8547 3.328-6.2406 6.2884-9.6477 8.4353-16.599 12.051-24.208 12.592-6.0032 0.4268-11.744-2.0362-17.465-7.4934-1.1404-1.0877-2.1399-1.9777-2.2211-1.9777s-1.6599 1.5278-3.5083 3.3952c-7.6889 7.7678-17.172 13.387-26.908 15.944-6.2662 1.6458-14.419 2.2366-20.954 1.5186zm54.999-40.133c4.7082-15.093 0.5427-34.293-9.7466-44.925-1.9415-2.0061-4.3529-4.1356-5.6709-5.0078-0.64-0.429-1.16-0.893-1.16-1.036 0-0.14307-0.12385-0.26013-0.27521-0.26013-0.15137 0-1.303-0.60761-2.5591-1.3503-4.8448-2.8643-8.6834-4.3578-14.716-5.7256-3.236-0.73373-4.2066-0.81879-9.6-0.84141-5.0118-0.02101-6.6051 0.08612-9.6737 0.65042-5.1281 0.94303-10.423 2.8919-14.626 5.3834-2.2785 1.3506-7.1309 5.3512-9.3871 7.7393-2.31 2.445-6.363 7.43-6.363 7.827 0 0.09565-0.25484 0.53225-0.56631 0.97022-0.96392 1.3554-3.5104 6.6814-4.3252 9.0463-2.0969 6.0861-2.866 11.543-2.3539 16.699 0.28314 2.8506 1.2968 7.7524 1.6831 8.1386 0.73227 0.73227 3.9407-4.6676 10.926-18.388 6.5301-12.827 9.2854-16.677 12.65-17.676 3.5396-1.0511 5.8773 0.74978 9.5694 7.372 3.2681 5.8618 3.1495 5.6416 5.7719 10.719 5.7595 11.151 8.3478 16.06 9.3161 17.672l0.59278 0.98651 1.4246-1.2865c3.1493-2.8441 5.7753-4.18 9.852-5.012 3.5402-0.72254 9.5882-0.15251 12.835 1.2097 4.8262 2.0251 9.7127 5.043 13.026 8.0448 0.9075 0.82228 1.8664 1.5009 2.131 1.508 0.34358 0.0093 0.70148-0.69395 1.253-2.462z"/>
</svg>
