<svg xmlns="http://www.w3.org/2000/svg" height="167.18" viewBox="0 0 179.04002 167.17746"><path fill="#293f8e" d="m6 143.03v-24.15h81.12c44.619 0 81.34.082 81.6.182.427.164.475 2.571.475 24.15v23.968h-81.6-81.6v-24.15m159.6 0v-20.25h-78.15-78.15v20.25 20.25h78.15 78.15v-20.25m-120 .45v-16.5h4.95 4.95v5.7 5.7h6 6v-5.7-5.7h4.95 4.95v16.5 16.5h-4.95-4.95v-6.75-6.75h-6-6v6.75 6.75h-4.95-4.95v-16.5m54.3 0v-16.5h9.135c5.626 0 9.746.13 10.725.338 3.807.808 7.05 3.301 8.621 6.626 1.531 3.241 1.942 5.337 1.929 9.836-.018 6.268-1.016 9.06-4.457 12.463-1.498 1.482-2.203 1.934-3.861 2.479-3.177 1.043-5.461 1.246-14.07 1.252l-8.03.006v-16.5m17.409 8.325c.735-.371 1.627-1.113 1.983-1.648 1.185-1.784 1.676-6.992.976-10.337-.82-3.916-2.826-5.377-7.675-5.589l-2.792-.122v9.186 9.186h3.086c2.605 0 3.295-.105 4.423-.675m-42.03-43.56c-13.325-1.47-24.794-6.35-36.28-15.456-6.069-4.808-14.203-13.383-20.922-22.06-5.495-7.092-9.696-11.654-13.388-14.538-4.256-3.324-4.69-3.754-4.69-4.653 0-.714.057-.75.675-.424 2.702 1.423 7.93 5.267 7.793 5.731-.045.154.031.209.169.124.261-.161 5.949 5.516 7.264 7.25.412.544 1.088 1.359 1.5 1.811.413.452 1.223 1.417 1.8 2.146.578.728 1.403 1.736 1.835 2.239.432.503 1.486 1.792 2.342 2.865 1.716 2.149 7.861 8.421 11.04 11.27 14.396 12.896 29.334 19.03 46.34 19.03 8.668 0 15.479-1.529 22.865-5.133 2.977-1.453 7.88-4.521 9.608-6.01.506-.437 1.73-1.492 2.72-2.345 2.08-1.792 5.742-5.828 6.243-6.879.318-.666.182-.868-1.878-2.798-4.02-3.761-7.845-6.308-11.422-7.596-1.463-.527-1.391-.509-4.133-1.049-5.267-1.039-12.632 1.3-16.07 5.101-1.911 2.115-2.929 2.303-4.513.835-1.3-1.204-2.05-2.312-4.244-6.27-2.807-5.064-3.406-6.181-5.919-11.05-1.319-2.557-3.27-6.337-4.335-8.4-2.964-5.737-5-9.286-5.334-9.293-.166-.004-.724.77-1.24 1.718-5.356 9.847-7.911 14.495-8.449 15.375-.353.578-.868 1.452-1.144 1.944-1.489 2.654-4.533 6.99-5.706 8.13-1.493 1.451-2.622 1.803-4.916 1.531-4.01-.475-6.512-3.769-8.324-10.957-.749-2.973-.807-3.654-.813-9.648-.006-5.623.083-6.873.692-9.75 2.416-11.444 7.61-20.14 17.497-29.32 1.398-1.297 4.45-3.608 4.45-3.369 0 .1.21-.029.467-.286.802-.802 3.934-2.518 7.122-3.902 9.256-4.02 20.74-5.198 31.09-3.193 3.99.773 10.165 2.863 14.425 4.879 3.194 1.513 8.233 4.477 9.892 5.819 3.597 2.911 6.298 5.612 9.4 9.404 1.218 1.489 3.395 5.146 4.742 7.966 3.712 7.771 5.287 15.933 4.977 25.789-.235 7.465-1.214 12.397-3.655 18.411l-1.136 2.799 1.465 1.528c4.14 4.321 6.552 6.25 9.865 7.893 3.272 1.623 5.399 2.049 9.15 1.837 6.213-.353 12.627-3.196 20.7-9.177 1.238-.917 2.675-1.96 3.195-2.319l.945-.652-.891 1.321c-.49.726-1.039 1.321-1.22 1.321-.181 0-.243.086-.138.191.225.225-2.855 3.328-6.241 6.288-9.648 8.435-16.599 12.05-24.21 12.592-6 .427-11.744-2.036-17.465-7.493-1.14-1.088-2.14-1.978-2.221-1.978s-1.66 1.528-3.508 3.395c-7.689 7.768-17.17 13.387-26.908 15.944-6.266 1.646-14.419 2.237-20.954 1.519zm54.999-40.13c4.708-15.09.543-34.29-9.747-44.925-1.942-2.01-4.353-4.136-5.671-5.01-.64-.429-1.16-.893-1.16-1.036 0-.143-.124-.26-.275-.26-.151 0-1.303-.608-2.559-1.35-4.845-2.864-8.683-4.358-14.716-5.726-3.236-.734-4.207-.819-9.6-.841-5.01-.021-6.605.086-9.674.65-5.128.943-10.423 2.892-14.626 5.383-2.279 1.351-7.131 5.351-9.387 7.739-2.31 2.445-6.363 7.43-6.363 7.827 0 .096-.255.532-.566.97-.964 1.355-3.51 6.681-4.325 9.05-2.097 6.086-2.866 11.543-2.354 16.699.283 2.851 1.297 7.752 1.683 8.139.732.732 3.941-4.668 10.926-18.388 6.53-12.827 9.285-16.677 12.65-17.676 3.54-1.051 5.877.75 9.569 7.372 3.268 5.862 3.15 5.642 5.772 10.719 5.76 11.151 8.348 16.06 9.316 17.672l.593.987 1.425-1.287c3.149-2.844 5.775-4.18 9.852-5.01 3.54-.723 9.588-.153 12.835 1.21 4.826 2.025 9.713 5.04 13.03 8.04.907.822 1.866 1.501 2.131 1.508.344.009.701-.694 1.253-2.462z"/></svg>