<svg xmlns="http://www.w3.org/2000/svg" height="122.94" viewBox="0 0 150 122.93704"><path d="m55.31 110.16v-12.781l2.502.297c2.326.276 2.508.627 2.578 4.984l.076 4.688h4.688 4.688l.283-4.922c.261-4.528.472-4.93 2.579-4.93h2.295v12.656 12.656h-2.344c-2.216 0-2.344-.281-2.344-5.156v-5.156h-5.226-5.226l.266 4.922c.256 4.731.167 4.933-2.274 5.219l-2.54.297v-12.781z"/><path d="m80.62 97.5v12.656 12.656h5.25c9.748 0 14.438-4.112 14.438-12.656 0-8.735-4.342-12.656-14.02-12.656h-5.672m4.687 4.688h3.137c4.396 0 6.551 2.674 6.551 8.127 0 3.398-.468 4.732-2.135 6.082-1.174.951-3.354 1.728-4.844 1.728h-2.709v-7.969-7.969"/><path fill="#00af3f" d="m0 40.31v-40.31h75 75v40.31 40.31h-75-75v-40.31"/><path fill="#fff" d="m29.09 50.859l.027-10.08 3.489 6.32c3.146 5.7 3.775 6.321 6.414 6.328 2.656.008 3.236-.575 6.301-6.32l3.375-6.328.027 10.08.027 10.08h9.638 9.638l1.377-3.984 1.377-3.984h7.5 7.5l1.377 3.984 1.377 3.984h7.195 7.195l4.484-6.563c2.466-3.609 4.617-6.563 4.78-6.563.163 0 2.26 2.953 4.66 6.563l4.364 6.563h5.543c4.176 0 5.373-.289 4.855-1.172-.378-.645-3.589-5.29-7.136-10.322-3.886-5.515-6.176-9.612-5.764-10.312.376-.639 3.532-5.02 7.01-9.745s6.078-8.834 5.772-9.141c-.307-.307-2.738-.557-5.404-.557h-4.847l-4.138 6.071c-2.276 3.339-4.405 6.082-4.731 6.094-.326.012-2.38-2.72-4.563-6.071l-3.97-6.094h-5.05c-2.874 0-5.05.42-5.05.977 0 .537 2.787 4.935 6.193 9.774s6.192 9.07 6.191 9.406c-.003.815-8.975 13.505-9.572 13.538-.258.014-3.264-7.456-6.68-16.6l-6.229-16.624-5.092-.275-5.091-.276-7.448 19.859-7.447 19.86-.469-19.584-.469-19.584-4.367-.282-4.368-.282-4.994 10.517-4.994 10.517-4.988-10.518-4.989-10.519-4.4.284-4.4.283-.252 20.391-.253 20.391h4.706 4.706l.027-10.08z"/><path fill="#00af3f" d="m74.07 44.3c.013-2.228 4.664-13.554 5.091-12.397 1.104 2.994 4.28 12.474 4.28 12.778 0 .177-2.11.322-4.688.322s-4.686-.316-4.683-.703"/></svg>