<svg xmlns="http://www.w3.org/2000/svg" height="83.66" viewBox="0 0 225.30934 83.661995"><path fill="#d32329" d="m119.7 83.22c-7.08-1.2-13.388-4.602-17.09-9.212-2.495-3.103-4.165-7.445-2.864-7.445.286 0 1.215.625 2.064 1.389 3.48 3.131 7.505 5.274 12.494 6.652 2.499.69 3.404.786 7.35.78 4.26-.007 4.648-.058 7.269-.957 3.593-1.232 6.47-3.01 9.106-5.615 4.742-4.692 6.715-9.05 7.948-17.55 2.01-13.859-4.769-24.889-15.624-25.424-4.561-.224-8.03.885-10.504 3.362-2.061 2.061-2.229 2.603-3.02 9.723-.395 3.569-.928 8.244-1.184 10.389-.256 2.145-.472 5.52-.479 7.5-.017 4.52.609 6.515 2.675 8.518 1.261 1.223 1.32 1.346.819 1.713-1.666 1.218-7.06.74-10.54-.935-4.02-1.931-6.658-5.396-7.791-10.214-.759-3.227-.539-6.684 2.125-33.431.821-8.247 1.139-13.354.92-14.807-.421-2.798-2.626-4.413-8.123-5.953-1.144-.32-1.5-.559-1.5-1.01 0-.567.312-.588 9.985-.664 9.63-.076 10.04-.056 11.477.563 1.86.8 3.068 2.15 3.743 4.182.615 1.851.548 3.817-.449 13.14-.359 3.356-.608 6.146-.554 6.201.054.054 1.16-.419 2.458-1.052 3.929-1.917 7.06-2.554 12.339-2.516 3.857.028 4.929.147 7.5.832 6.96 1.854 12.253 5.57 15.425 10.828 6.145 10.186 5.311 26.783-1.889 37.598-3.459 5.196-10.11 10.1-16.544 12.2-4.939 1.612-12.221 2.116-17.542 1.213m75.901-.916c-17.963-2.508-30.14-17.06-28.522-34.09.944-9.922 6.299-18.705 14.888-24.42 9.685-6.444 21.895-8.177 33.434-4.745 5.89 1.752 11.538 5.504 9.476 6.296-.233.09-1.752-.345-3.375-.967-2.873-1.1-3.075-1.133-7.67-1.253-3.632-.096-5.257-.0001-7.05.372-11.608 2.473-19.874 10.471-22.13 21.411-.585 2.838-.581 8.614.009 11.155 1.041 4.491 2.864 7.836 6.108 11.209 4.853 5.05 10.782 7.6 18.331 7.899 4.439.175 7.731-.423 11.942-2.172 3.715-1.543 3.958-1.581 3.958-.614 0 1.637-4.197 5.127-8.53 7.091-6.5 2.947-13.357 3.876-20.87 2.827m-185.12-.848c-4.513-1.217-6.05-5.132-5.091-12.968.16-1.305.505-4.533.768-7.173s.667-6.555.898-8.7c.231-2.145.635-5.992.897-8.55s.686-6.54.944-8.85c.708-6.357.685-8.747-.097-10.2-1.253-2.324-3.697-3.997-6.612-4.523-1.6-.289-2.187-.653-2.187-1.357 0-.601.124-.608 9.225-.514 8.985.092 9.266.113 10.813.812.873.395 2.041 1.246 2.594 1.893 1.571 1.835 1.744 3.054 1.214 8.553-.251 2.605-.663 6.897-.915 9.537-1.237 12.941-1.901 19.832-2.691 27.9-.613 6.259-.353 8.04 1.407 9.64 1.126 1.024 2.511 1.605 5.26 2.206 1.414.309 2.719.71 2.9.891.454.454-.105 1.291-1.035 1.551-1.338.374-16.817.249-18.29-.148m31.616.096c-3.62-.716-5.799-3.691-5.797-7.916 0-1.396.688-8.792 1.047-11.271.084-.578.283-2.468.443-4.2s.501-5.108.758-7.5c.257-2.392.661-6.24.897-8.55s.637-6.157.891-8.55.462-4.965.463-5.716c0-1.753-1.195-4.189-2.641-5.381-1.024-.844-3.466-1.812-5.703-2.26-1.105-.221-1.506-.829-.972-1.472.525-.632 16.299-.482 18.535.176 2.288.674 3.837 1.87 4.722 3.646.842 1.689.92 2.807.475 6.807-.156 1.402-.499 4.845-.762 7.65-1.026 10.931-2.138 22.404-2.712 27.977-.62 6.01-.584 9.263.115 10.578.911 1.713 2.701 2.742 6.288 3.617 2.76.673 3.22.872 3.302 1.43.07.47-.121.73-.695.948-.948.36-16.821.349-18.653-.013m30.701-.301c-2.788-.468-4.631-2.402-5.495-5.766-.533-2.075-.503-2.794.492-12.07.689-6.419.95-8.898 1.817-17.25.334-3.218.811-7.74 1.06-10.05.848-7.855.879-9.468.214-10.965-1.247-2.807-2.872-4.047-6.493-4.957-2.225-.559-2.883-1.069-2.295-1.778.537-.647 14.486-.644 17.542.004 2.925.619 4.575 1.715 5.651 3.751 1.036 1.961 1.054 1.392-.551 18.08-.575 5.977-1.246 12.961-1.491 15.518-.245 2.557-.66 6.81-.923 9.45-.623 6.26-.596 8.232.135 9.885.904 2.044 2.741 3.03 7.687 4.118 1.614.356 1.8.474 1.8 1.147 0 .685-.142.767-1.65.945-2.344.277-15.765.232-17.5-.059"/></svg>