<svg xmlns="http://www.w3.org/2000/svg" viewBox="0 0 600 164.07"><g transform="translate(4.864 20.51)"><path d="m594.99 10.261c-1.68-17.507-19.63-30.771-41.691-30.771h-131.79c-18.745 0-30.594 9.505-37.14 19.14-3.67-9.416-12.51-19.14-33.56-19.14h-63c-10.04 0-19.453 2.52-27.366 7.295-6.01 3.625-11.583 8.931-15.695 14.722-5.792-12.998-21.18-22.02-39.39-22.02h-131.79c-26.836 0-39.569 19.497-42.84 30.992-1.94 6.853-35.584 133.08-35.584 133.08h557.67c4.996 0 9.328-3.316 10.655-8.135l30.6-113.36c.044-.088.044-.221.044-.309.973-3.979 1.238-7.781.884-11.495" fill="#ee2a24"/><g fill="#fff"><path d="m583.4 19.236l-30.594 113.36h-56.46s25.51-99.52 25.996-101.99c.442-2.255-.84-5.747-4.2-6.234-.265-.044-3.625-.044-3.89-.044-4.02 0-5.217 3.89-5.217 3.89l-26.26 104.38h-56.06s26.571-99.52 27.1-101.99c.442-2.255-.84-5.703-4.2-6.234-.265-.044-3.625-.044-3.935-.044-3.979 0-5.173 3.846-5.173 3.846l-27.366 104.43h-55.661s29.842-112.25 31.787-119.1c1.945-6.853 10.611-23.03 32.23-23.03h131.79c16.225 0 29.577 9.06 30.726 20.912.221 2.343.088 4.907-.619 7.87"/><path d="m313.5 132.59h-67.16c-11.893 0-21.31-7.251-22.326-17.331-.265-2.962.221-6.322 1.105-9.284l24.05-89.13c1.857-7.07 9.107-15.96 16.977-20.691 6.19-3.758 13.705-5.703 21.663-5.703h63c15.651 0 23.564 6.101 24.802 18.922.265 2.564.309 5.128-.265 7.295l-9.329 35.06h-54.38s4.731-20.912 4.907-21.796c.442-2.255-.752-5.57-3.979-6.189-.354-.088-6.808-.088-7.206-.088-3.979 0-5.173 3.89-5.173 3.89l-15.341 57.695-.044.221c-.486 2.21.752 5.615 3.979 6.189.309.044 6.808.088 7.162.088 4.02 0 5.173-3.891 5.173-3.891l5.394-16.933h55.794l-10.92 35.501c-4.244 15.562-19.674 26.17-37.889 26.17"/><path d="m148.41 132.59s26.659-100.54 27.15-102.97c.442-2.255-.84-5.747-4.2-6.234-.265-.044-3.625-.044-3.891-.044-4.02 0-5.217 3.89-5.217 3.89l-27.411 105.35h-56.06s26.659-100.54 27.14-102.97c.442-2.255-.796-5.703-4.156-6.234-.265-.044-3.625-.044-3.935-.044-4.02 0-5.173 3.89-5.173 3.89l-27.455 105.35h-55.661c29.845-112.23 29.845-112.23 31.79-119.08 1.945-6.852 10.611-23.03 32.23-23.03h131.79c16.225 0 29.577 9.06 30.726 20.912.221 2.343.088 4.907-.619 7.87l-30.594 113.36h-56.46z"/></g></g></svg>