<svg xmlns="http://www.w3.org/2000/svg" viewBox="0 0 600 126.8"><g transform="translate(-79.01-248.41)"><path d="m478.47 375.19h200.54v-126.74h-200.54v126.74" fill="#f03c1f"/><path d="m421.44 248.45h50.702v126.74h-50.702v-126.74" fill-rule="evenodd" fill="#6d94d4"/><g fill="#fff"><path d="m491.15 338.65v23.864h5.681v-9.908h7.269v-4.272h-7.269v-5.345h7.627v-4.339h-13.307"/><path d="m508.69 338.65v23.864h14v-4.339h-8.387v-5.793h7.515v-4.294h-7.515v-5.099h8.07v-4.339h-13.687"/><g fill-rule="evenodd"><path d="m534.25 342.79h-1.543v5.971h1.588c2.035 0 3.221-1.141 3.221-3.042 0-2.035-1.297-2.93-3.265-2.93m3.959 19.704l-1.879-6.978c-.537-1.923-1.252-2.572-2.438-2.572h-1.141v9.55h-5.614v-23.841h8.767c3.847 0 7.358 1.968 7.358 6.106 0 3.109-1.677 5.256-4.764 5.86 1.722.47 2.55 1.431 3.265 3.757l2.505 8.119h-6.06z"/><path d="m558.68 362.5l-5.86-17.355v17.355h-4.831v-23.864h7.291l5.904 17.378v-17.378h4.831v23.864h-7.336"/><path d="m577 362.9c-2.035 0-4.697-.403-6.396-.962l.201-4.585c1.789 1.01 3.869 1.476 5.301 1.476 2.617 0 3.355-1.61 3.355-2.908 0-1.677-1.163-2.393-2.684-3.109l-2.169-1.029c-3.086-1.476-4.16-3.668-4.16-6.665 0-4.473 3.981-6.821 8.409-6.821 2.192 0 3.69.38 5.547.805l-.201 4.563c-1.342-.693-3.243-1.297-4.741-1.297-1.677 0-3.131.828-3.131 2.505 0 1.431.805 2.08 2.326 2.751l2.035.939c2.975 1.342 4.652 2.885 4.652 6.889 0 4.406-3.556 7.448-8.342 7.448"/><path d="m589.66 362.5v-23.864h13.687v4.339h-8.07v5.122h7.515v4.272h-7.515v5.815h8.409v4.317h-14.02"/><path d="m619.17 362.5v-10.02h-5.412v10.02h-5.681v-23.864h5.681v9.371h5.412v-9.371h5.726v23.864h-5.726"/><path d="m630.29 362.5v-23.864h13.687v4.339h-8.07v5.122h7.515v4.272h-7.515v5.815h8.409v4.317h-14.02"/><path d="m659.44 362.5l-5.86-17.355v17.355h-4.831v-23.864h7.291l5.904 17.378v-17.378h4.831v23.864h-7.336"/></g></g><path d="m79.01 248.42h336.01v126.79h-336.01v-126.79" fill="#1969bc"/><g fill="#fff"><path d="m155.45 290.41c-3.064-7.38-11.563-13.755-22.701-13.307-11.138.47-18.339 8.05-23.17 15.767v-13.307h-30.573v7.738h10.937c5.323 0 5.949 2.46 5.949 7.537v31.848s11.943-19.03 15.14-23.953c4.03-6.15 9.751-17.467 21.56-17.914 17.87-.649 19.637 18.899 19.95 22.499l.179.157s8.298-21.895 24.13-22.656c15.812-.738 19.06 14.918 19.659 20.889.224 2.348.201 7.984.201 7.984h6.687c.022 0 .022-2.371.022-2.371 0-18.787-5.144-34.8-26.413-34.22-9.908.268-16.886 6.575-21.56 13.307"/><path d="m224.35 325.75c0-.291-.559-2.93-.738-4.808-.335-3.221-.112-7.313-.045-8.32 1.029-14.336 7.895-26.905 23.15-26.749 12.211.157 18.943 8.722 22.19 12.06l14.336 16.04v-65.55h-29.79v7.47h8.454c5.39 0 7.492 3.802 7.492 9.04v22.544c-7-7.627-15.835-10.467-26.26-10.467-22.88 0-33.749 17.646-35.05 35.807-.089 1.23-.313 5.793.604 12.949h15.656"/><path d="m343.91 284.87c3.467-.134 8.365.828 9.17 4.63-5.681 0-9.483 2.639-9.483 8.566 0 4.786 4.585 7.604 8.857 7.604 6.307 0 8.834-4.786 8.834-11.07 0-11.384-7.112-17.937-17.847-17.49-11.138.47-17.713 8.096-22.544 15.812v-13.307h-30.573v7.716h10.937c5.323 0 5.949 2.46 5.949 7.559v31.848s11.943-19.03 15.14-23.953c4-6.15 9.751-17.467 21.56-17.914"/></g></g></svg>