<?xml version="1.0" encoding="UTF-8" standalone="no"?>
<!-- Created with Inkscape (http://www.inkscape.org/) -->
<svg xmlns:rdf="http://www.w3.org/1999/02/22-rdf-syntax-ns#" xmlns="http://www.w3.org/2000/svg" height="126.8" width="600" version="1.1" xmlns:cc="http://creativecommons.org/ns#" xmlns:dc="http://purl.org/dc/elements/1.1/">
 <defs></defs>
 <metadata>
  <rdf:RDF>
   <cc:Work rdf:about="">
    <dc:format>image/svg+xml</dc:format>
    <dc:type rdf:resource="http://purl.org/dc/dcmitype/StillImage"/>
    <dc:title/>
   </cc:Work>
  </rdf:RDF>
 </metadata>
 <g transform="translate(-79.007367,-248.41014)">
  <path d="m478.47,375.19,200.54,0,0-126.74-200.54,0,0,126.74z" fill-rule="nonzero" fill="#f03c1f"/>
  <path d="m421.44,248.45,50.702,0,0,126.74-50.702,0,0-126.74z" fill-rule="evenodd" fill="#6d94d4"/>
  <path fill-rule="nonzero" fill="#FFF" d="m491.15,338.65,0,23.864,5.6808,0,0-9.9078,7.2687,0,0-4.2717-7.2687,0,0-5.3453,7.6265,0,0-4.3388-13.307,0z"/>
  <path fill-rule="nonzero" fill="#FFF" d="m508.69,338.65,0,23.864,14.001,0,0-4.3388-8.3869,0,0-5.7926,7.5147,0,0-4.2941-7.5147,0,0-5.0993,8.0738,0,0-4.3388-13.687,0z"/>
  <path fill-rule="evenodd" fill="#FFF" d="m534.25,342.79-1.5432,0,0,5.9715,1.5879,0c2.0352,0,3.2206-1.1406,3.2206-3.0417,0-2.0352-1.2972-2.9298-3.2653-2.9298m3.9586,19.704-1.8787-6.9779c-0.53676-1.9234-1.2524-2.572-2.4378-2.572h-1.1406v9.5499h-5.6136v-23.841h8.7671c3.8468,0,7.3581,1.9681,7.3581,6.1057,0,3.1088-1.6774,5.2558-4.7638,5.8597,1.7221,0.46967,2.5496,1.4314,3.2653,3.7573l2.5049,8.1186h-6.061z"/>
  <path fill-rule="evenodd" fill="#FFF" d="m558.68,362.5-5.8597-17.355,0,17.355-4.8309,0,0-23.864,7.291,0,5.9044,17.378,0-17.378,4.8309,0,0,23.864-7.3358,0z"/>
  <path fill-rule="evenodd" fill="#FFF" d="m577,362.9c-2.0352,0-4.6967-0.40257-6.3964-0.9617l0.20128-4.5848c1.7892,1.0064,3.8692,1.4761,5.3005,1.4761,2.6167,0,3.3548-1.6103,3.3548-2.9075,0-1.6774-1.163-2.3931-2.6838-3.1088l-2.1694-1.0288c-3.0864-1.4761-4.1599-3.6679-4.1599-6.6648,0-4.473,3.981-6.8214,8.4093-6.8214,2.1918,0,3.6902,0.38021,5.5466,0.80515l-0.20128,4.5625c-1.3419-0.69332-3.243-1.2972-4.7414-1.2972-1.6774,0-3.1311,0.82752-3.1311,2.5049,0,1.4314,0.80515,2.08,2.326,2.7509l2.0352,0.93934c2.9746,1.3419,4.6519,2.8851,4.6519,6.8885,0,4.4059-3.556,7.4476-8.3422,7.4476"/>
  <path fill-rule="evenodd" fill="#FFF" d="m589.66,362.5,0-23.864,13.687,0,0,4.3388-8.0738,0,0,5.1216,7.5147,0,0,4.2717-7.5147,0,0,5.8149,8.4093,0,0,4.3165-14.023,0z"/>
  <path fill-rule="evenodd" fill="#FFF" d="m619.17,362.5,0-10.02-5.4124,0,0,10.02-5.6807,0,0-23.864,5.6807,0,0,9.371,5.4124,0,0-9.371,5.7255,0,0,23.864-5.7255,0z"/>
  <path fill-rule="evenodd" fill="#FFF" d="m630.29,362.5,0-23.864,13.687,0,0,4.3388-8.0738,0,0,5.1216,7.5147,0,0,4.2717-7.5147,0,0,5.8149,8.4093,0,0,4.3165-14.023,0z"/>
  <path fill-rule="evenodd" fill="#FFF" d="m659.44,362.5-5.8597-17.355,0,17.355-4.8309,0,0-23.864,7.291,0,5.9044,17.378,0-17.378,4.8309,0,0,23.864-7.3358,0z"/>
  <path d="m79.007,248.42,336.01,0,0,126.79-336.01,0,0-126.79z" fill-rule="nonzero" fill="#1969bc"/>
  <path fill-rule="nonzero" fill="#FFF" d="m155.45,290.41c-3.064-7.3805-11.563-13.755-22.701-13.307-11.138,0.46967-18.339,8.0514-23.17,15.767v-13.307h-30.573v7.7383h10.937c5.3229,0,5.9491,2.4602,5.9491,7.537v31.848s11.943-19.033,15.141-23.953c4.0257-6.1504,9.7512-17.467,21.56-17.914,17.87-0.6486,19.637,18.899,19.95,22.499l0.17892,0.15656s8.2975-21.895,24.132-22.656c15.812-0.73805,19.055,14.918,19.659,20.889,0.22365,2.3483,0.20128,7.9844,0.20128,7.9844h6.6872c0.0224,0,0.0224-2.3707,0.0224-2.3707,0-18.787-5.144-34.8-26.413-34.219-9.9078,0.26838-16.886,6.5754-21.56,13.307"/>
  <path fill-rule="nonzero" fill="#FFF" d="m224.35,325.75c0-0.29075-0.55913-2.9298-0.73805-4.8085-0.33548-3.2206-0.11183-7.3134-0.0447-8.3198,1.0288-14.336,7.8949-26.905,23.148-26.749,12.211,0.15656,18.943,8.7224,22.186,12.055l14.336,16.036v-65.552h-29.79v7.47h8.454c5.39,0,7.4923,3.8021,7.4923,9.0355v22.544c-7.0003-7.6265-15.835-10.467-26.257-10.467-22.88,0-33.749,17.646-35.046,35.807-0.0895,1.2301-0.31311,5.7926,0.60385,12.949h15.656z"/>
  <path fill-rule="nonzero" fill="#FFF" d="m343.91,284.87c3.4666-0.13419,8.3646,0.82751,9.1697,4.6296-5.6807,0-9.4828,2.6391-9.4828,8.5658,0,4.7861,4.5849,7.6042,8.8566,7.6042,6.307,0,8.8342-4.7861,8.8342-11.071,0-11.384-7.1121-17.937-17.847-17.49-11.138,0.46967-17.713,8.0962-22.544,15.812v-13.307h-30.573v7.716h10.937c5.3229,0,5.9491,2.4602,5.9491,7.5594v31.848s11.943-19.033,15.141-23.953c4.0034-6.1504,9.7512-17.467,21.56-17.914"/>
 </g>
</svg>
