<svg xmlns="http://www.w3.org/2000/svg" viewBox="0 0 500 100"><g transform="matrix(17.63855 0 0-17.63855-2156.21 4711.58)" fill-rule="evenodd"><path d="m140.1 267.12h10.488v-5.669h-10.488v5.669" fill="#25a840"/><path d="m137.55 267.12h2.268v-5.669h-2.268v5.669" fill="#6d94d4"/><path d="m122.24 267.12h15.02v-5.669h-15.02v5.669" fill="#1969bc"/><g fill="#fff"><path d="m0 0c-.137.33-.517.615-1.015.595-.498-.021-.82-.36-1.036-.705v.594h-1.367v-.345h.489c.238 0 .266-.11.266-.337v-1.425c0 0 .534.852.677 1.072.18.275.436.781.964.801.799.029.878-.845.892-1.01l.008-.007c0 0 .371.979 1.079 1.013.707.033.852-.667.879-.934.0001-.105.009-.357.009-.357h.299c.002 0 0 .106 0 .106 0 .84-.23 1.556-1.181 1.53-.443-.013-.755-.294-.964-.595" transform="translate(125.66 265.24)"/><path d="m0 0c0 .013-.025.131-.033.215-.015.144-.005.327-.002.372.046.641.353 1.203 1.035 1.196.546-.007.847-.39.992-.539l.641-.717v2.931h-1.332v-.334h.378c.241 0 .335-.17.335-.404v-1.01c-.313.341-.708.469-1.174.469-1.023 0-1.509-.791-1.567-1.602-.004-.055-.014-.259.027-.579h.7" transform="translate(128.74 263.66)"/><path d="m0 0c.155.006.374-.037.41-.207-.254 0-.424-.118-.424-.383 0-.214.205-.34.396-.34.282 0 .395.214.395.495 0 .509-.318.802-.798.782-.498-.021-.792-.362-1.01-.707v.595h-1.367v-.345h.489c.238 0 .266-.11.266-.338v-1.424c0 0 .534.851.677 1.071.179.275.436.781.964.801" transform="translate(134.09 265.49)"/><path d="m0 0h-.069v-.267h.071c.091 0 .144.051.144.136 0 .091-.058.131-.146.131m.178-.882l-.085.312c-.024.087-.056.116-.109.116h-.051v-.428h-.251v1.068h.392c.172 0 .329-.089.329-.274 0-.139-.075-.235-.213-.262.077-.021.114-.064.146-.168l.112-.364h-.27z" transform="translate(142.61 264.5)"/><path d="m0 0l-.112-.442h.227l-.115.442m.219-.859l-.061.24h-.31l-.059-.24h-.256l.33 1.067h.291l.329-1.067h-.264" transform="translate(143.6 264.48)"/><path d="m0 0h-.054v-.68h.06c.189 0 .248.16.248.339 0 .181-.052.341-.254.341m.029-.874h-.338v1.068h.33c.333 0 .497-.216.497-.535 0-.301-.174-.533-.489-.533" transform="translate(144.53 264.49)"/><path d="m145.22 264.68h.254v-1.067h-.254v1.067"/><path d="m0 0c-.154 0-.176-.213-.176-.368 0-.192.035-.368.176-.368.162 0 .179.214.179.368 0 .157-.014.368-.179.368m0-.918c-.326 0-.44.268-.44.55 0 .275.131.55.44.55.33 0 .443-.272.443-.55 0-.283-.133-.55-.443-.55" transform="translate(146.09 264.52)"/><path d="m0 0v2.116l-.344-.352-.228.34.652.564h.396v-2.668h-.476" transform="translate(141.02 263.62)"/><path d="m0 0c-.091 0-.21.018-.286.043l.009.205c.08-.045.173-.066.237-.066.117 0 .15.072.15.13 0 .075-.052.107-.12.139l-.097.047c-.138.065-.186.163-.186.297 0 .2.178.306.376.306.098 0 .165-.018.248-.037l-.001-.203c-.059.03-.143.057-.211.057-.075 0-.14-.036-.14-.112 0-.064.036-.093.104-.123l.091-.041c.133-.061.208-.13.208-.309 0-.197-.159-.333-.373-.333" transform="translate(142.54 262)"/><path d="m0 0l-.112-.442h.227l-.115.442m.219-.859l-.061.24h-.31l-.059-.24h-.256l.329 1.067h.292l.329-1.067h-.264" transform="translate(143.45 262.88)"/><path d="m0 0c-.291 0-.482.216-.482.55 0 .379.261.551.469.551.147 0 .229-.039.263-.052l-.001-.206c-.035.026-.093.061-.195.061-.154 0-.263-.136-.263-.354 0-.216.104-.353.26-.353.123 0 .182.048.204.057l.001-.217c-.051-.015-.122-.037-.256-.037" transform="translate(144.45 262)"/><path d="m0 0v.448h-.242v-.448h-.254v1.067h.254v-.419h.242v.419h.256v-1.067h-.256" transform="translate(145.39 262.02)"/><path d="m0 0c-.091 0-.21.018-.286.043l.009.205c.08-.045.173-.066.237-.066.117 0 .15.072.15.13 0 .075-.052.107-.12.139l-.097.047c-.138.065-.186.163-.186.297 0 .2.178.306.376.306.098 0 .165-.018.248-.037l-.001-.203c-.059.03-.144.057-.211.057-.075 0-.141-.036-.141-.112 0-.064.037-.093.105-.123l.091-.041c.133-.061.208-.13.208-.309 0-.197-.159-.333-.373-.333" transform="translate(146.13 262)"/><path d="m0 0v1.067h.613v-.193h-.362v-.229h.336v-.192h-.336v-.259h.376v-.194h-.627" transform="translate(146.7 262.02)"/><path d="m0 0l-.262.776v-.776h-.216v1.067h.326l.264-.777v.777h.216v-1.067h-.328" transform="translate(148 262.02)"/></g></g></svg>