<svg xmlns="http://www.w3.org/2000/svg" viewBox="0 0 500 100"><g transform="matrix(20.1651 0 0 20.1651-4661.86-9971.23)"><path d="m246.81 499.44h9.174v-4.958h-9.174v4.958" fill="#c50766"/><path d="m244.57 499.44h1.984v-4.959h-1.984v4.959" fill="#6c99d7"/><path d="m231.18 499.44h13.14v-4.959h-13.14v4.959" fill="#1969bc"/><g fill="#fff" fill-rule="evenodd"><path d="m231.85 496.84v.698c0 0 .256-.408.439-.698h-.439m3.941 0c.002.092.002.189.002.189h.262c0 0 0-.092 0-.092 0-.033 0-.065 0-.097h-.263m.464 0c-.008.051-.014.102-.017.154-.004.049-.013.227.023.507h.612c0-.011-.021-.115-.028-.188-.013-.126-.005-.286-.002-.325.003-.05.009-.1.016-.148h-.604m2.743 0l.179.2v-.2h-.179m1.117 0v.699c0 0 .256-.409.44-.699h-.44"/><path d="m232.28 496.84c.065-.102.12-.189.153-.239.157-.241.381-.684.843-.701.699-.025.768.739.781.88.006.006.33-.85.95-.88.619-.029.745.583.769.817.003.031.005.076.006.123h.263c-.018-.693-.237-1.263-1.032-1.242-.388.011-.661.257-.843.521-.12-.289-.452-.539-.888-.521-.435.019-.717.315-.906.617v-.52h-1.196v.302h.428c.208 0 .233.096.233.295v.548h.439m4.57 0c.074-.497.346-.904.889-.899.478.006.741.342.868.472l.382.427h.179v-2.364h-1.166v.292h.331c.211 0 .293.149.293.354v.881c-.273-.298-.619-.41-1.027-.41-.829 0-1.255.595-1.353 1.247h.604m3.696 0c.064-.101.119-.188.152-.238.157-.24.381-.683.843-.7.136-.005.327.032.358.181-.222 0-.371.103-.371.335 0 .187.18.297.347.297.247 0 .346-.187.346-.432 0-.446-.279-.702-.699-.685-.435.019-.692.317-.881.619v-.521h-1.196v.302h.428c.208 0 .233.097.233.296v.546h.44"/><path d="m253.48 497.72c-.206 0-.236.286-.236.495 0 .258.047.494.236.494.217 0 .241-.288.241-.494 0-.211-.02-.495-.241-.495m0 1.234c-.438 0-.591-.361-.591-.739 0-.37.176-.739.591-.739.443 0 .595.365.595.739 0 .38-.178.739-.595.739m-1.122-.023l-.114-.42c-.032-.116-.075-.154-.146-.154h-.068v.574h-.338v-1.434h.527c.232 0 .442.118.442.367 0 .188-.101.317-.286.353.104.028.153.086.196.226l.15.488h-.363m-.238-1.185h-.093v.359h.095c.122 0 .193-.068.193-.182 0-.123-.077-.177-.195-.177m-.974 1.185l-.081-.323h-.417l-.08.323h-.344l.443-1.434h.391l.443 1.434h-.355m-.294-1.155l-.151.593h.306l-.155-.593m-1.26 1.178c-.445 0-.658-.297-.658-.739 0-.434.279-.739.72-.739.159 0 .262.03.354.06l-.012.275c-.091-.045-.172-.082-.316-.082-.262 0-.391.219-.391.486 0 .241.081.485.341.485.037 0 .071-.006.104-.021v-.331h-.166v-.241h.479v.772c-.131.058-.316.075-.455.075m-.892-.023h-.342v-1.433h.342v1.433m-1.053-1.174v.323h.436v.255h-.436v.596h-.342v-1.434h.799v.26h-.457"/></g></g></svg>