<?xml version="1.0" encoding="UTF-8" standalone="no"?>
<!-- Created with Inkscape (http://www.inkscape.org/) -->
<svg xmlns:rdf="http://www.w3.org/1999/02/22-rdf-syntax-ns#" xmlns="http://www.w3.org/2000/svg" height="119.93" width="600" version="1.1" xmlns:cc="http://creativecommons.org/ns#" xmlns:dc="http://purl.org/dc/elements/1.1/">
 <defs></defs>
 <metadata>
  <rdf:RDF>
   <cc:Work rdf:about="">
    <dc:format>image/svg+xml</dc:format>
    <dc:type rdf:resource="http://purl.org/dc/dcmitype/StillImage"/>
    <dc:title/>
   </cc:Work>
  </rdf:RDF>
 </metadata>
 <g transform="translate(-221.92035,-212.48824)">
  <path d="M599.92,212.49h222v119.93h-222v-119.93z" fill="#f03c1f"/>
  <path d="m545.99,212.49h48.019v119.93h-48.024v-119.93z" fill="#6d94d4"/>
  <path d="M221.92,212.49h318.04v119.93h-318.03v-119.93z" fill="#1969bc"/>
  <path d="m294.29,252.2c-2.8448-7.0548-10.923-13.085-21.392-12.63-10.582,0.45508-17.41,7.6235-21.961,14.906v-12.517h-29.016v7.2827h10.355c5.1202,0,5.6896,2.2754,5.6896,7.1684v30.153s11.265-18.093,14.337-22.758c3.755-5.8032,9.2167-16.499,20.368-16.841,16.954-0.68227,18.547,17.865,18.888,21.278l0.22719,0.11359s7.7378-20.709,22.758-21.392c15.02-0.79657,18.092,13.996,18.661,19.685,0.22719,2.2754,0.11359,7.5099,0.11359,7.5099h6.3719v-2.1618c0-17.751-4.7794-32.998-24.919-32.429-9.4432,0.34219-16.043,6.2597-20.48,12.632" fill="#FFF"/>
  <path d="m359.49,285.65c0-0.2279-0.45508-2.7312-0.68298-4.5515-0.34149-3.0727-0.11359-6.9412,0-7.8514,0.91017-13.541,7.3963-25.488,21.848-25.375,11.606,0.1143,17.978,8.3065,21.05,11.378l13.54,15.247v-62.014h-28.219v7.0548h8.0786c5.0066,0,7.0548,3.5271,7.0548,8.5337v21.278c-6.5998-7.1684-15.02-9.8996-24.919-9.8996-21.62,0-31.861,16.727-33.112,33.908-0.1136,1.1381-0.34149,5.4617,0.56867,12.289h14.794" fill="#FFF"/>
  <path d="m472.71,246.97c3.2999-0.1136,7.8514,0.79657,8.6473,4.3243-5.3481,0-8.9888,2.5033-8.9888,8.1929,0,4.4372,4.3236,7.1684,8.4201,7.1684,5.9168,0,8.3065-4.5515,8.3065-10.468,0-10.81-6.7134-16.954-16.84-16.613-10.582,0.45508-16.841,7.7378-21.392,15.02v-12.63h-28.902v7.2827h10.355c5.0066,0,5.6889,2.3897,5.6889,7.1684v30.153s11.265-17.978,14.223-22.644c3.8686-5.8032,9.3302-16.499,20.482-16.954" fill="#FFF"/>
  <path d="m617.33,301.93v5.1202h6.9412v3.9829h-6.9412v9.4446h-5.3481v-22.644h12.63v4.0964h-7.282z" fill="#FFF"/>
  <path d="m628.6,320.47v-22.644h12.972v4.0964h-7.7378v4.893h7.1684v3.9822h-7.1684v5.576h7.965v4.0964h-13.204z" fill="#FFF"/>
  <path d="m656.59,320.47-1.821-6.5998c-0.56867-1.8203-1.2516-2.5033-2.3897-2.5033h-1.0238v9.1031h-5.3481v-22.644h8.3065c3.6414,0,7.0548,1.821,7.0548,5.8032,0,2.9584-1.7067,5.0066-4.5515,5.5753,1.5931,0.45509,2.3897,1.3652,3.072,3.5278l2.3897,7.7378h-5.6889zm-3.755-18.661h-1.4788v5.5753h1.4788c1.9339,0,2.9584-1.0238,2.9584-2.8448,0-1.9339-1.1381-2.7305-2.9584-2.7305" fill="#FFF"/>
  <path d="m675.93,320.47-5.576-16.499v16.499h-4.5515v-22.644h6.9412l5.5753,16.499v-16.499h4.5515v22.644h-6.9405z" fill="#FFF"/>
  <path d="m693.23,320.81c-1.9346,0-4.4372-0.34078-6.0304-0.91016l0.22789-4.3236c1.7067,0.91017,3.6414,1.3652,5.0066,1.3652,2.3897,0,3.1863-1.4788,3.1863-2.7305,0-1.5931-1.1381-2.2761-2.6169-2.9584l-2.0482-1.0238c-2.8448-1.3652-3.8686-3.4135-3.8686-6.2583,0-4.21,3.755-6.4862,7.965-6.4862,2.0482,0,3.4135,0.45509,5.2345,0.79657l-0.22789,4.3236c-1.2517-0.68298-3.072-1.2516-4.4379-1.2516-1.5931,0-3.072,0.79657-3.072,2.389,0,1.3652,0.79657,1.9346,2.2761,2.6169l1.9339,0.91016c2.7312,1.2517,4.3236,2.7312,4.3236,6.4862,0,4.2108-3.3006,7.0548-7.8521,7.0548" fill="#FFF"/>
  <path d="m705.17,320.47v-22.644h12.972v4.0964h-7.6235v4.893h7.1684v3.9822h-7.1684v5.576h7.965v4.0964h-13.313z" fill="#FFF"/>
  <path d="m733.17,320.47v-9.5582h-5.1202v9.5582h-5.3481v-22.644h5.3481v8.8759h5.1202v-8.8759h5.4617v22.644h-5.4617z" fill="#FFF"/>
  <path d="m743.75,320.47v-22.644h12.858v4.0964h-7.6235v4.893h7.1684v3.9822h-7.1684v5.576h7.965v4.0964h-13.2z" fill="#FFF"/>
  <path d="m771.28,320.47-5.5753-16.499v16.499h-4.542v-22.644h6.9405l5.576,16.499v-16.499h4.5515v22.644h-6.9412z" fill="#FFF"/>
  <path fill="#FFF" d="m622.2,236.12h14.153c-1.3434,6.1101-2.6465,12.239-3.7782,18.394,5.2296,0.036,10.464,0.0988,15.699-0.0402,1.4287-6.0882,2.4666-12.261,3.8862-18.354h14.18c-3.5673,15.995-6.7437,32.084-10.334,48.074h-14.148c1.397-6.259,2.8039-12.526,3.985-18.83-5.2479-0.0402-10.5-0.14817-15.743,0.0586-1.3928,6.2449-2.6014,12.536-4.0301,18.771h-14.148v-0.36407c3.6033-15.864,6.7077-31.842,10.28-47.71z"/>
  <path fill="#FFF" d="m674.88,236.12h22.087c5.2747,0.59761,10.81,2.008,14.705,5.8364,2.5746,2.4215,3.913,5.8321,4.4887,9.2555v5.2839c-0.55738,4.6771-1.5007,9.417-3.8142,13.573-2.655,4.9558-7.0492,8.9048-12.189,11.147-3.8368,1.7434-8.0292,2.4708-12.18,2.9788h-23.319c3.441-16.018,6.8065-32.053,10.221-48.075m12.181,9.3408c-2.008,9.8262-4.21,19.616-6.1284,29.46,4.7265,0.35066,9.8347-0.26035,13.667-3.2886,4.6454-3.5673,6.5102-9.6146,6.7169-15.267,0.16651-3.1136-0.35913-6.6767-2.9203-8.7658-3.1588-2.5351-7.5078-2.4356-11.335-2.1392z"/>
 </g>
</svg>
