<?xml version="1.0" encoding="UTF-8" standalone="no"?>
<!-- Created with Inkscape (http://www.inkscape.org/) -->

<svg
   xmlns:dc="http://purl.org/dc/elements/1.1/"
   xmlns:cc="http://creativecommons.org/ns#"
   xmlns:rdf="http://www.w3.org/1999/02/22-rdf-syntax-ns#"
   xmlns:svg="http://www.w3.org/2000/svg"
   xmlns="http://www.w3.org/2000/svg"
   xmlns:inkscape="http://www.inkscape.org/namespaces/inkscape"
   version="1.0"
   width="499"
   height="100"
   id="svg2">
  <metadata
     id="metadata16">
    <rdf:RDF>
      <cc:Work
         rdf:about="">
        <dc:format>image/svg+xml</dc:format>
        <dc:type
           rdf:resource="http://purl.org/dc/dcmitype/StillImage" />
      </cc:Work>
    </rdf:RDF>
  </metadata>
  <defs
     id="defs14" />
  <g
     transform="translate(-118.70474,-400.52884)"
     id="layer1">
    <g
       transform="matrix(20.163254,0,0,20.163648,-4544.523,-9386.2157)"
       id="g3476">
      <g
         transform="matrix(1,0,0,-1,-86.12744,658.86017)"
         id="g6223">
        <path
           d="m 333.022,168.536 9.1274,0 0,4.9584 -9.1274,0 0,-4.9584 z"
           inkscape:connector-curvature="0"
           id="path6225"
           style="fill:#173d7d;fill-rule:nonzero;stroke:none" />
      </g>
      <path
         d="m 244.66257,490.32519 1.9836,0 0,-4.9587 -1.9836,0 0,4.9587 z"
         inkscape:connector-curvature="0"
         id="path6227"
         style="fill:#6c99d7;fill-rule:nonzero;stroke:none" />
      <path
         d="m 231.27357,490.32519 13.142,0 0,-4.9586 -13.142,0 0,4.9586 z"
         inkscape:connector-curvature="0"
         id="path6229"
         style="fill:#1969bc;fill-rule:nonzero;stroke:none" />
      <path
         d="m 231.93457,487.73019 0,0.698 c 0,0 0.256,-0.408 0.439,-0.698 l -0.439,0 z m 3.941,0 c 0.002,0.092 0.002,0.189 0.002,0.189 l 0.262,0 c 0.001,0 0,-0.092 0,-0.092 0,-0.033 -0.001,-0.065 -0.001,-0.097 l -0.263,0 z m 0.464,0 c -0.008,0.051 -0.014,0.102 -0.018,0.154 -0.003,0.048 -0.012,0.227 0.024,0.507 l 0.612,0 c 0,-0.012 -0.021,-0.115 -0.028,-0.189 -0.013,-0.126 -0.005,-0.285 -0.002,-0.324 0.003,-0.051 0.009,-0.1 0.016,-0.149 l -0.604,10e-4 z m 2.743,0 0.179,0.2 0,-0.2 -0.179,0 z m 1.117,0 0,0.699 c 0,0 0.256,-0.409 0.44,-0.7 l -0.44,10e-4"
         inkscape:connector-curvature="0"
         id="path6231"
         style="fill:#ffffff;fill-rule:evenodd;stroke:none" />
      <path
         d="m 232.37357,487.73019 c 0.065,-0.102 0.12,-0.189 0.153,-0.239 0.157,-0.241 0.381,-0.684 0.843,-0.701 0.699,-0.026 0.768,0.739 0.78,0.88 0.007,0.006 0.331,-0.85 0.951,-0.88 0.619,-0.029 0.745,0.583 0.769,0.817 0.003,0.03 0.005,0.076 0.006,0.122 l 0.263,10e-4 c -0.018,-0.693 -0.237,-1.263 -1.032,-1.242 -0.388,0.011 -0.661,0.257 -0.843,0.52 -0.12,-0.288 -0.452,-0.538 -0.888,-0.52 -0.435,0.019 -0.717,0.315 -0.906,0.617 l 0,-0.52 -1.196,0 0,0.301 0.428,0 c 0.208,0 0.233,0.097 0.233,0.296 l 0,0.548 0.439,0 z m 4.57,0 c 0.074,-0.497 0.346,-0.904 0.889,-0.899 0.478,0.006 0.741,0.341 0.868,0.472 l 0.382,0.427 0.179,0 0,-2.364 -1.166,0 0,0.292 0.331,0 c 0.211,0 0.293,0.149 0.293,0.354 l 0,0.881 c -0.273,-0.298 -0.619,-0.41 -1.027,-0.41 -0.829,0 -1.255,0.594 -1.353,1.246 l 0.604,10e-4 z m 3.696,0 c 0.064,-0.102 0.119,-0.188 0.152,-0.238 0.157,-0.24 0.381,-0.683 0.843,-0.7 0.136,-0.005 0.327,0.032 0.358,0.18 -0.222,0 -0.371,0.104 -0.371,0.336 0,0.187 0.18,0.297 0.347,0.297 0.247,0 0.346,-0.187 0.346,-0.432 0,-0.446 -0.279,-0.702 -0.699,-0.685 -0.435,0.019 -0.692,0.316 -0.881,0.618 l 0,-0.52 -1.196,0 0,0.302 0.428,0 c 0.208,0 0.233,0.096 0.233,0.295 l 0,0.547 0.44,0"
         inkscape:connector-curvature="0"
         id="path6233"
         style="fill:#ffffff;fill-rule:evenodd;stroke:none" />
      <path
         d="m 251.03057,489.84419 c -0.438,0 -0.59,-0.361 -0.59,-0.738 0,-0.37 0.176,-0.739 0.59,-0.739 0.442,0 0.595,0.365 0.595,0.739 0,0.38 -0.178,0.738 -0.595,0.738 z m 0,-1.232 c -0.206,0 -0.236,0.285 -0.236,0.494 0,0.257 0.047,0.493 0.236,0.493 0.217,0 0.241,-0.287 0.241,-0.493 0,-0.211 -0.02,-0.494 -0.241,-0.494 z m -1.245,0.036 0,0.322 0.436,0 0,0.256 -0.436,0 0,0.594 -0.341,0 0,-1.431 0.798,0 0,0.259 -0.457,0 z m -1.105,1.172 -0.352,-1.041 0,1.041 -0.29,0 0,-1.431 0.438,0 0.354,1.043 0,-1.043 0.29,0 0,1.431 -0.44,0 z m -0.949,0 -0.34131,0 0,-1.4316 0.34131,0 0,1.4316 z"
         inkscape:connector-curvature="0"
         id="path6235"
         style="fill:#ffffff;fill-rule:evenodd;stroke:none" />
    </g>
  </g>
</svg>
