<svg xmlns="http://www.w3.org/2000/svg" viewBox="0 0 420 210"><path d="m178.01 205.61c-.347 0-.7 0-1.052-.006-19.587-.205-33.709-5.131-43.16-15.06-5.758-6.05-9.536-13.683-11.46-23.22-6.794 2.622-14.687 3.946-23.559 3.947-1.234 0-2.503-.025-3.771-.075-16.57-.65-28.998-5.46-36.936-14.294-11.524-12.824-10.333-30.486-9.621-41.04 0 0 .085-1.268.119-1.8l.342-5.374c-7.093.249-38.02 1.414-38.02 1.414l.161-5.281c.642-21.08 3.314-34.766 9.858-50.51l1.122-2.699 2.905-.314c30.11-3.264 50.46-5.092 78.06-6.02l.933-.031c.996-7.832 2.064-15.683 3.212-23.616l1.299-8.98 50.75-1.231c0 0-1.843 27.28-2.311 34.02 6.285.011 35.28.156 43.25.156l-1.373-39.469 61.812 1.404 5.894 20.18c-.042-2.742-.101-5.518-.174-8.322l-.302-11.593 62.29 3.137 2.226 7.166c.021.066 1.57 6.857 4.457 18.21 5.2.391 11.06.627 13.09.772.938.066 1.954.121 3.03.18 7.48.404 17.673.957 27.408 5.568 7.617 3.607 18.25 12.492 25.25 26.611 5.6 11.296 11.09 33.48 3.26 48.3-5.571 10.544-19.05 17.629-33.532 17.629-.237 0-.475 0-.713-.005-.013 0-.025 0-.038 0 1.032 11.34 1.781 22.843 2.33 35.729l.474 11.123-49.618.342c0 0-.872-22.447-1.18-28.19l-91.81.042c-.938 32.58-20.843 51.21-54.899 51.21"/><path d="m402.64 115.43c-4.739 8.972-16.461 14.999-29.17 14.999-.211 0-.422-.002-.634-.005-.988-.017-2.852-.078-5.564-.184 1.301 13.05 2.215 26.28 2.845 41.06l.256 6.01-39.71.273-.207-5.631c-.285-7.774-.637-15.253-1.063-22.549l-25.17.103-.38-5.421c-.902-12.876-2.02-24.784-3.188-35.46-1.116 12-2.59 24.512-4.531 36.02l-.816 4.84h-34.68l-1.082-4.427c-3.226-13.188-6.229-25.19-8.945-35.868.538 10.948 1 22.627 1.288 34.35l.145 5.956-24.02-.036c0 .952 0 1.89-.002 2.792-.109 31.23-17.865 48.43-49.997 48.43-.328 0-.661-.002-.993-.006-18.19-.19-31.16-4.616-39.649-13.527-6.256-6.568-9.923-15.497-11.14-27.1-7.311 4.189-16.488 6.303-27.454 6.304-1.164 0-2.368-.024-3.577-.071-15.188-.597-26.444-4.856-33.458-12.661-10.13-11.273-9.07-27-8.367-37.408.042-.622.083-1.229.12-1.818l.341-5.36 42.469-.601-.458 6.313c-.195 2.696-.678 10.285-.57 12.991.055 1.374 1.084 3.078 1.65 3.289 1.825-.009 3.762-.009 4.247-6.876 2.512-35.615 5.962-67.963 10.858-101.8l.702-4.854 41.17-.999c0 0-1.265 18.393-2.304 33.807l22.431-.16c0 0 .09 82.14.009 103.6-.012 3.217-.02 5.239-.02 5.645 0 1.641 1.335 2.975 2.976 2.975 1.64 0 2.975-1.334 2.975-2.975 0-3.03-.077-109.21-.077-109.21l25.35-.047-1.366-38.945 52.969 1.203 14.239 48.752c.414-10.993.585-24.936.143-41.877l-.163-6.265 53.52 2.696 1.202 3.872c.064.206 2.468 8.03 5.744 21.237 6.083.458 13.667 1.026 16.17 1.205.975.07 2.032.127 3.156.188 7.03.381 16.665.902 25.523 5.098 6.869 3.254 16.501 11.357 22.938 24.342 4.952 9.987 10.231 30.712 3.318 43.797m-299.47-65.22c-28.64.968-50.02 2.999-77.7 5.999-6.676 16.06-8.902 29.704-9.482 48.766 31.06-1.161 51.572-2.032 81.47-2.419 1.644-17.997 3.676-37.35 5.708-52.35" fill="#fff"/><path d="m394.12 74.21c-5.611-11.32-14.04-18.746-20.222-21.673-9.192-4.354-19.835-4.258-26.608-4.741-4.444-.318-24.576-1.838-24.576-1.838 8.127 45.717 11.9 80.985 13.546 125.78l28.06-.193c-.704-16.528-1.798-31.76-3.521-47.38 4.633.198 10.142.423 12.13.456 10.701.17 20.779-4.714 24.576-11.901 5.419-10.257 1.495-28.661-3.387-38.51m-22.786 21.602c-.764 2.915-3.365 5.406-6.205 5.406l-7.267.032c-1.385-9.527-3.02-19.462-4.961-30.14 0 0 3.872.152 5.419.193 4.56.121 9.08 4.873 10.691 8.902.898 2.245 3.588 10.765 2.323 15.603m-54.34-48.838c6.272 35.28 9.948 64.36 12.04 96.63l-19.407.079c-3.851-54.958-11.446-92.06-11.446-92.06 0 0-1.016 51.91-7.789 92.06h-25.21c-14.455-59.12-24.324-93.95-24.324-93.95 0 0 4.063 46.35 5.225 93.95l-18.1-.027c-.254-29.719-2.045-75.72-2.665-87.91l-.285-5.605-14.15.061-.992-33.08 42.573.967 21.915 75.03c0 0 3.958-23.947 2.651-74.02l43.21 2.177c0 0 2.171 6.99 5.212 19.06-1.391-.105-2.267-.172-2.308-.174l-7.463-.564 1.309 7.367m-97.47 8.576c.653 12.845 2.786 67.872 2.685 96.68-.072 20.864-8.62 43.02-45.12 42.635-33.999-.357-45.514-16.255-45.514-43.976 0-33.09 1.887-55.01 4.79-94.39.78-.013 30.379-.478 31.875-.496.381 12.809-.018 100.43-.018 103.37 0 4.85 3.931 8.78 8.781 8.78 4.85 0 8.781-3.931 8.781-8.78 0-3.03-.073-103.49-.073-103.49 0 0 30.686-.29 33.816-.344m-93.76 95.34c0 .865.017 1.711.038 2.552-6.732 4.715-16.411 7.575-30.372 7.03-40.638-1.596-37.16-29.752-36.14-45.717l30.769-.436c0 0-.726 10.01-.581 13.643.145 3.628 2.902 8.854 7.402 8.854 7.122 0 9.577-5.03 10.09-12.265 2.467-34.978 5.878-67.27 10.813-101.38l29.898-.726c0 0-.836 12.257-1.903 28.1-2.859.045-5.755.09-8.532.134l-6.285.099c0 0-.929 12.573-1.184 16-2.416 32.47-4.01 53.92-4.01 84.11m-72.2-83.67c-1.677 7.805-2.709 14.296-2.918 21.898h-3.969c.065-5.752.368-9.188 1.335-15.11-2.612 5.696-4.03 9.07-6.096 15.166l-3.789.044c-1.364-5.595-1.98-9.368-2.561-14.702-1.234 5.262-1.633 9.579-1.923 15.239h-4.03c-.066-5.232 1.052-14.296 3.266-21.371l6.676-.29c.145 5.225.508 10.74 1.052 13.643 2.213-5.986 3.398-8.551 6.604-14.296l6.35-.218m4.02-.484l6.241-.218c4.548-.13 6.127 1.182 6.628 2.902.604 2.08.315 4.859.073 6.821-.242 1.96-.629 6.144-1.524 8.539-.977 2.613-3.768 4.02-7.991 4.072h-6.287c0-5.619.925-14.409 2.86-22.12m3.786 3.822c-.883 4.983-1.439 10.668-1.597 14.26l1.754-.012c.955 0 2.806-.663 3.145-1.645.75-2.178 1.209-5.516 1.354-10.16.045-1.43-1.072-2.479-2.733-2.479l-1.923.036m13.969-4.717l6.555-.218c2.622.03 4.928.16 6.289 2.032 1.355 1.862 2.032 8.346-3.338 10.57l3.898 9.865-5.321-.045-3.173-8.828h-2.104c0 0-.363 4.451-.363 9.119l-4.645.008c0-6.659.955-15.516 2.202-22.503m3.991 3.58c-.556 2.951-.779 6.071-.779 6.071 0 0 1.942.029 2.544 0 1.394-.058 2.855-.731 3.266-2.806.226-1.146.079-2.314-1.028-2.992-.675-.404-1.336-.273-2.533-.273h-1.47" fill="#e22435"/></svg>