<svg xmlns="http://www.w3.org/2000/svg" viewBox="0 0 602.36 148.5"><g transform="translate(195.47-43.826)"><g fill-rule="evenodd"><path transform="matrix(.00004 0 0 .00004-195.47 43.808)" fill="#fff" d="m16500000 3691340h-5919400v-3190640h5919400z"/><path d="m179.44 61.55h209.74v113.05h-209.74v-113.05m36.839 102.06l-10.929-17.932 10.02-15.665h-9.117l-7.804 14.11v-14.11h-8.01v33.597h8.01v-15.461l8.207 15.461h9.621m20.752 0v-6.296h-10.478v-27.3h-8.01v33.597h18.487m30.711 0l-10.374-33.597h-9.169l-10.374 33.597h8.06l1.863-7.558h9.772l1.911 7.558h8.311m-11.583-13.147h-7.154l3.527-13.902 3.627 13.902m34.537 3.223c0-5.642-2.366-7.808-6.548-9.719l-2.868-1.309c-2.115-.958-3.276-1.864-3.276-3.878 0-2.371 2.068-3.528 4.434-3.528 2.114 0 4.784.859 6.647 1.812l.303-6.396c-2.617-.603-4.732-1.157-7.804-1.157-6.249 0-11.839 3.323-11.839 9.619 0 4.23 1.512 7.302 5.842 9.369l3.072 1.461c2.119 1.01 3.779 2.01 3.779 4.381 0 1.812-1.058 4.082-4.732 4.082-2.02 0-4.936-.658-7.458-2.066l-.299 6.447c2.418.806 6.145 1.361 9.01 1.361 6.751 0 11.734-4.281 11.734-10.478m25.19 0c0-5.642-2.371-7.808-6.548-9.719l-2.873-1.309c-2.115-.958-3.272-1.864-3.272-3.878 0-2.371 2.063-3.528 4.429-3.528 2.118 0 4.788.859 6.65 1.812l.3-6.396c-2.617-.603-4.732-1.157-7.804-1.157-6.245 0-11.835 3.323-11.835 9.619 0 4.23 1.509 7.302 5.842 9.369l3.072 1.461c2.115 1.01 3.775 2.01 3.775 4.381 0 1.812-1.058 4.082-4.732 4.082-2.02 0-4.936-.658-7.454-2.066l-.303 6.447c2.417.806 6.144 1.361 9.02 1.361 6.748 0 11.736-4.281 11.736-10.478m5.59 9.924h8.01v-33.597h-8.01v33.597m40.946 0l-10.928-17.932 10.02-15.665h-9.117l-7.809 14.11v-14.11h-8.01v33.597h8.01v-15.461l8.212 15.461h9.62" fill="#e81d3c"/><path fill="#fff" d="m-177.75 61.55h299.81v113.05h-299.81z"/><path d="m-177.75 61.55h156.46v6.642h7.593c4.82 0 6.72 3.415 6.72 8.112v20.21c-6.282-6.833-14.218-9.396-23.562-9.396-20.51 0-30.27 15.848-31.431 32.12-.077 1.108-.289 5.196.543 11.62h14.04c0-.255-.491-2.624-.66-4.315-.295-2.892-.108-6.556-.043-7.452.915-12.86 7.084-24.13 20.763-24 10.952.14 16.988 7.828 19.908 10.821l12.856 14.375v-58.737h116.63v113.05h-299.81v-78.24h9.816c4.764 0 5.34 2.212 5.34 6.776v28.572c0 0 10.7-17.08 13.58-21.497 3.597-5.515 8.735-15.668 19.332-16.06 16.02-.587 17.611 16.936 17.9 20.18l.144.144c0 0 7.444-19.644 21.651-20.321 14.188-.676 17.1 13.368 17.628 18.725.213 2.1.185 7.156.185 7.156h6.01c.019 0 .002-2.108.002-2.108 0-16.86-4.608-31.22-23.68-30.696-8.895.248-15.16 5.891-19.339 11.931-2.745-6.627-10.365-12.348-20.356-11.931-9.989.42-16.457 7.216-20.789 14.14v-11.928h-27.424v-27.894m237.61 32.642c3.116-.116 7.512.741 8.219 4.144-5.099 0-8.504 2.368-8.504 7.696 0 4.293 4.108 6.809 7.936 6.809 5.668 0 7.937-4.293 7.937-9.917 0-10.208-6.385-16.09-16.02-15.691-9.992.42-15.883 7.252-20.22 14.175v-11.928h-27.423v6.92h9.816c4.76 0 5.339 2.209 5.339 6.777v28.568c0 0 10.7-17.08 13.58-21.492 3.592-5.516 8.732-15.668 19.333-16.06" fill="#006cb8"/></g><path transform="matrix(.00004 0 0 .00004-195.47 43.808)" fill="#6795ce" d="m10401400 500700h-1266950v3190640h1266950z"/></g></svg>