<?xml version="1.0" encoding="UTF-8" standalone="no"?>
<!-- Created with Inkscape (http://www.inkscape.org/) -->

<svg
   xmlns:dc="http://purl.org/dc/elements/1.1/"
   xmlns:cc="http://creativecommons.org/ns#"
   xmlns:rdf="http://www.w3.org/1999/02/22-rdf-syntax-ns#"
   xmlns:svg="http://www.w3.org/2000/svg"
   xmlns="http://www.w3.org/2000/svg"
   xmlns:inkscape="http://www.inkscape.org/namespaces/inkscape"
   version="1.0"
   width="602.36218"
   height="148.5"
   id="svg2203">
  <metadata
     id="metadata13">
    <rdf:RDF>
      <cc:Work
         rdf:about="">
        <dc:format>image/svg+xml</dc:format>
        <dc:type
           rdf:resource="http://purl.org/dc/dcmitype/StillImage" />
      </cc:Work>
    </rdf:RDF>
  </metadata>
  <defs
     id="defs2205" />
  <g
     id="layer1">
    <g
       transform="translate(195.4668,-43.82646)"
       id="g2216">
      <polygon
         points="16500000,3691340 10580600,3691340 10580600,500700 10580600,500700 16500000,500700 "
         transform="matrix(3.543307e-5,0,0,3.543307e-5,-195.4675,43.80804)"
         id="polygon2184"
         style="fill:#ffffff;fill-rule:evenodd" />
      <path
         d="m 179.43562,61.549383 209.74393,0 0,113.054167 -209.74393,0 0,-113.054167 0,0 z m 36.83941,102.064957 -10.92933,-17.93161 10.02331,-15.66496 -9.11729,0 -7.80413,14.10519 0,-14.10519 -8.00894,0 0,33.59657 8.00894,0 0,-15.46122 8.20665,15.46122 9.62079,0 z m 20.75244,0 0,-6.29646 -10.47827,0 0,-27.30011 -8.00858,0 0,33.59657 18.48685,0 z m 30.71091,0 -10.37374,-33.59657 -9.16937,0 -10.3741,33.59657 8.05996,0 1.86272,-7.55752 9.77244,0 1.91126,7.55752 8.31083,0 z m -11.58272,-13.14709 -7.15394,0 3.52666,-13.90181 3.62728,13.90181 z m 34.53732,3.22335 c 0,-5.64165 -2.36622,-7.80768 -6.54768,-9.71894 l -2.8683,-1.30889 c -2.115,-0.95776 -3.2765,-1.86378 -3.2765,-3.87815 0,-2.37083 2.06752,-3.52772 4.43374,-3.52772 2.11394,0 4.78418,0.85854 6.64689,1.81169 l 0.30331,-6.39602 c -2.61709,-0.60272 -4.73244,-1.15689 -7.80413,-1.15689 -6.24898,0 -11.83855,3.32291 -11.83855,9.61937 0,4.23035 1.51193,7.30205 5.84185,9.3685 l 3.0717,1.46126 c 2.11854,1.00559 3.77893,2.01437 3.77893,4.38059 0,1.81205 -1.05768,4.08189 -4.73244,4.08189 -2.01543,0 -4.93583,-0.65834 -7.45795,-2.06645 l -0.2987,6.44704 c 2.4183,0.80646 6.14516,1.36063 9.01346,1.36063 6.75107,0 11.73437,-4.28102 11.73437,-10.47791 z m 25.18618,0 c 0,-5.64165 -2.37082,-7.80768 -6.54767,-9.71894 l -2.87292,-1.30889 c -2.115,-0.95776 -3.27189,-1.86378 -3.27189,-3.87815 0,-2.37083 2.06292,-3.52772 4.42914,-3.52772 2.11819,0 4.78771,0.85854 6.65043,1.81169 l 0.29976,-6.39602 c -2.61744,-0.60272 -4.73244,-1.15689 -7.80413,-1.15689 -6.24473,0 -11.83535,3.32291 -11.83535,9.61937 0,4.23035 1.50874,7.30205 5.84185,9.3685 l 3.07204,1.46126 c 2.115,1.00559 3.7754,2.01437 3.7754,4.38059 0,1.81205 -1.05768,4.08189 -4.73244,4.08189 -2.01544,0 -4.93583,-0.65834 -7.45371,-2.06645 l -0.30295,6.44704 c 2.41689,0.80646 6.14374,1.36063 9.01666,1.36063 6.74787,0 11.73578,-4.28102 11.73578,-10.47791 z m 5.58957,9.92374 8.00787,0 0,-33.59657 -8.00787,0 0,33.59657 z m 40.9461,0 -10.92827,-17.93161 10.02225,-15.66496 -9.11729,0 -7.80874,14.10519 0,-14.10519 -8.00787,0 0,33.59657 8.00787,0 0,-15.46122 8.21233,15.46122 9.61972,0 z"
         inkscape:connector-curvature="0"
         id="path2186"
         style="fill:#e81d3c;fill-rule:evenodd" />
      <rect
         width="299.81339"
         height="113.05417"
         x="-177.75098"
         y="61.549381"
         id="rect2188"
         style="fill:#ffffff;fill-rule:evenodd" />
      <path
         d="m -177.75098,61.549383 156.456844,0 0,6.642283 7.592598,0 c 4.8199604,0 6.7202359,3.41504 6.7202359,8.111693 l 0,20.212086 c -6.2815749,-6.832559 -14.2175189,-9.396141 -23.5615739,-9.396141 -20.510433,0 -30.267283,15.847796 -31.430551,32.120076 -0.07724,1.10764 -0.289134,5.19626 0.543189,11.61957 l 14.039291,0 c 0,-0.25512 -0.490748,-2.62382 -0.659764,-4.3154 -0.294803,-2.8924 -0.107716,-6.55582 -0.04323,-7.45157 0.915236,-12.86043 7.084488,-24.128858 20.763425,-24.00059 10.952007,0.139606 16.988385,7.82823 19.9080702,10.82055 l 12.8558265,14.37484 0,-58.737397 116.6290193,0 0,113.054167 -299.81338,0 0,-78.240113 9.81602,0 c 4.76433,0 5.34047,2.212441 5.34047,6.776223 l 0,28.57216 c 0,0 10.70008,-17.0759 13.58008,-21.49689 3.59681,-5.51515 8.73532,-15.667792 19.33228,-16.060036 16.0239,-0.58748 17.6113,16.936296 17.90044,20.177006 l 0.14386,0.14386 c 0,0 7.44377,-19.644094 21.651016,-20.320866 14.18811,-0.675709 17.095393,13.368186 17.628307,18.724606 0.213307,2.09976 0.18496,7.15571 0.18496,7.15571 l 6.008032,0 c 0.01949,0 0.0025,-2.10791 0.0025,-2.10791 0,-16.86048 -4.608071,-31.216185 -23.679566,-30.695673 -8.895118,0.248031 -15.156489,5.891456 -19.339009,11.931377 -2.74536,-6.627401 -10.36489,-12.347716 -20.3563,-11.931377 -9.98929,0.419527 -16.45689,7.21559 -20.78929,14.140273 l 0,-11.928187 -27.42378,0 0,-27.89433 0,0 z M 59.854326,94.191036 c 3.11563,-0.115512 7.511811,0.740551 8.219055,4.144252 -5.098819,0 -8.503937,2.367642 -8.503937,7.695712 0,4.29271 4.10811,6.80881 7.935945,6.80881 5.668228,0 7.937008,-4.29271 7.937008,-9.917 0,-10.207916 -6.384685,-16.091577 -16.016811,-15.691183 -9.991771,0.419527 -15.883228,7.252086 -20.215629,14.175353 l 0,-11.928188 -27.423425,0 0,6.920078 9.815669,0 c 4.760079,0 5.339409,2.208544 5.339409,6.77693 l 0,28.56756 c 0,0 10.700079,-17.07591 13.580079,-21.49229 3.592205,-5.51622 8.732126,-15.66779 19.332637,-16.060034 z"
         inkscape:connector-curvature="0"
         id="path2190"
         style="fill:#006cb8;fill-opacity:1;fill-rule:evenodd" />
      <polygon
         points="10401400,500700 9134450,500700 9134450,3691340 9134450,3691340 10401400,3691340 "
         transform="matrix(3.543307e-5,0,0,3.543307e-5,-195.4675,43.80804)"
         id="polygon2192"
         style="fill:#6795ce;fill-rule:nonzero" />
    </g>
  </g>
</svg>
