<?xml version="1.0" encoding="UTF-8" standalone="no"?>
<!-- Created with Inkscape (http://www.inkscape.org/) -->

<svg
   xmlns:dc="http://purl.org/dc/elements/1.1/"
   xmlns:cc="http://creativecommons.org/ns#"
   xmlns:rdf="http://www.w3.org/1999/02/22-rdf-syntax-ns#"
   xmlns:svg="http://www.w3.org/2000/svg"
   xmlns="http://www.w3.org/2000/svg"
   xmlns:inkscape="http://www.inkscape.org/namespaces/inkscape"
   version="1.0"
   width="500"
   height="100"
   id="svg2">
  <metadata
     id="metadata29">
    <rdf:RDF>
      <cc:Work
         rdf:about="">
        <dc:format>image/svg+xml</dc:format>
        <dc:type
           rdf:resource="http://purl.org/dc/dcmitype/StillImage" />
      </cc:Work>
    </rdf:RDF>
  </metadata>
  <defs
     id="defs27" />
  <g
     transform="translate(-321.70867,-438.34823)"
     id="layer1">
    <path
       d="m 321.70867,538.10128 264.42885,0 0,-99.71424 -264.42885,0 0,99.71424 z"
       inkscape:connector-curvature="0"
       id="path3913"
       style="fill:#1969bc;fill-rule:nonzero;stroke:none" />
    <path
       d="m 591.5351,538.10128 39.59995,0 0,-99.71424 -39.59995,0 0,99.71424 z"
       inkscape:connector-curvature="0"
       id="path3915"
       style="fill:#6d94d4;fill-rule:nonzero;stroke:none" />
    <path
       d="m 636.72666,538.10128 184.98201,0 0,-99.71424 -184.98201,0 0,99.71424 z"
       inkscape:connector-curvature="0"
       id="path3917"
       style="fill:#25a840;fill-rule:nonzero;stroke:none" />
    <g
       transform="matrix(17.639173,0,0,-17.639173,382.17752,471.56456)"
       id="g3919">
      <path
         d="M 0,0 C -0.137,0.331 -0.518,0.617 -1.018,0.596 -1.517,0.575 -1.841,0.236 -2.057,-0.111 l 0,0.597 -1.371,0 0,-0.346 0.49,0 c 0.239,0 0.267,-0.111 0.267,-0.339 l 0,-1.428 c 0,0 0.536,0.853 0.679,1.074 0.18,0.276 0.437,0.784 0.967,0.803 0.801,0.03 0.881,-0.847 0.895,-1.009 l 0.007,-0.007 c 0,0 0.372,0.982 1.083,1.016 0.709,0.034 0.855,-0.668 0.881,-0.936 0.011,-0.105 0.01,-0.358 0.01,-0.358 l 0.3,0 c 0.001,0 0,0.106 0,0.106 0,0.843 -0.23,1.56 -1.184,1.534 C 0.522,0.584 0.209,0.302 0,0"
         inkscape:connector-curvature="0"
         id="path3921"
         style="fill:#ffffff;fill-rule:nonzero;stroke:none" />
    </g>
    <g
       transform="matrix(17.639173,0,0,-17.639173,436.67727,499.52088)"
       id="g3923">
      <path
         d="M 0,0 C 0,0.013 -0.025,0.131 -0.033,0.216 -0.048,0.36 -0.038,0.544 -0.035,0.588 0.011,1.231 0.319,1.795 1.003,1.788 1.551,1.781 1.852,1.397 1.998,1.247 l 0.643,-0.718 0,2.939 -1.336,0 0,-0.335 0.379,0 c 0.241,0 0.336,-0.17 0.336,-0.405 l 0,-1.011 C 1.706,2.059 1.31,2.187 0.842,2.187 -0.183,2.187 -0.671,1.395 -0.729,0.581 -0.733,0.525 -0.744,0.321 -0.702,0 L 0,0 z"
         inkscape:connector-curvature="0"
         id="path3925"
         style="fill:#ffffff;fill-rule:nonzero;stroke:none" />
    </g>
    <g
       transform="matrix(17.639173,0,0,-17.639173,531.26028,467.17946)"
       id="g3927">
      <path
         d="m 0,0 c 0.156,0.006 0.376,-0.037 0.411,-0.207 -0.255,0 -0.425,-0.119 -0.425,-0.385 0,-0.215 0.205,-0.341 0.397,-0.341 0.283,0 0.396,0.215 0.396,0.496 0,0.511 -0.319,0.805 -0.8,0.785 -0.5,-0.021 -0.795,-0.363 -1.011,-0.709 l 0,0.597 -1.371,0 0,-0.347 0.49,0 c 0.239,0 0.267,-0.11 0.267,-0.338 l 0,-1.429 c 0,0 0.535,0.854 0.679,1.075 C -0.787,-0.527 -0.53,-0.02 0,0"
         inkscape:connector-curvature="0"
         id="path3929"
         style="fill:#ffffff;fill-rule:nonzero;stroke:none" />
    </g>
    <g
       transform="matrix(1.4670587,0,0,1.4670587,-344.515,-246.65941)"
       id="g3023">
      <g
         transform="matrix(17.639173,0,0,-17.639173,686.34566,494.48666)"
         id="g3939">
        <path
           d="m 0,0 c 0,0.182 -0.077,0.252 -0.212,0.314 l -0.093,0.043 c -0.068,0.03 -0.105,0.06 -0.105,0.125 0,0.076 0.066,0.114 0.143,0.114 0.068,0 0.155,-0.028 0.215,-0.059 l 0.01,0.207 c -0.085,0.02 -0.153,0.037 -0.253,0.037 -0.202,0 -0.382,-0.107 -0.382,-0.311 0,-0.136 0.048,-0.236 0.188,-0.302 l 0.1,-0.048 c 0.068,-0.032 0.122,-0.065 0.122,-0.141 0,-0.059 -0.034,-0.132 -0.153,-0.132 -0.065,0 -0.16,0.021 -0.241,0.067 l -0.01,-0.209 c 0.078,-0.026 0.199,-0.044 0.292,-0.044 C -0.161,-0.339 0,-0.2 0,0 m 1.027,-0.321 -0.336,1.086 -0.296,0 -0.335,-1.086 0.26,0 0.061,0.245 0.315,0 0.062,-0.245 0.269,0 z m -0.375,0.425 -0.231,0 0.114,0.45 0.117,-0.45 z M 1.824,-0.301 1.815,-0.08 C 1.792,-0.09 1.731,-0.138 1.606,-0.138 c -0.158,0 -0.264,0.14 -0.264,0.359 0,0.222 0.111,0.36 0.267,0.36 0.105,0 0.163,-0.036 0.199,-0.062 l 0.01,0.21 C 1.784,0.742 1.7,0.781 1.551,0.781 c -0.212,0 -0.477,-0.174 -0.477,-0.56 0,-0.34 0.193,-0.56 0.49,-0.56 0.136,0 0.208,0.023 0.26,0.038 m 0.935,-0.02 0,1.086 -0.261,0 0,-0.426 -0.246,0 0,0.426 -0.258,0 0,-1.086 0.258,0 0,0.456 0.246,0 0,-0.456 0.261,0 z M 3.621,0 c 0,0.182 -0.076,0.252 -0.211,0.314 L 3.317,0.357 c -0.068,0.03 -0.106,0.06 -0.106,0.125 0,0.076 0.067,0.114 0.143,0.114 0.069,0 0.155,-0.028 0.215,-0.059 l 0.01,0.207 C 3.494,0.764 3.426,0.781 3.327,0.781 3.125,0.781 2.944,0.674 2.944,0.47 2.944,0.334 2.993,0.234 3.133,0.168 L 3.232,0.12 c 0.069,-0.032 0.122,-0.065 0.122,-0.141 0,-0.059 -0.034,-0.132 -0.153,-0.132 -0.065,0 -0.159,0.021 -0.241,0.067 L 2.951,-0.295 C 3.029,-0.321 3.149,-0.339 3.242,-0.339 3.46,-0.339 3.621,-0.2 3.621,0 m 0.819,-0.321 0,0.197 -0.382,0 0,0.264 0.342,0 0,0.195 -0.342,0 0,0.233 0.368,0 0,0.197 -0.624,0 0,-1.086 0.638,0 z m 1.006,0 0,1.086 -0.219,0 0,-0.791 -0.269,0.791 -0.332,0 0,-1.086 0.22,0 0,0.79 0.267,-0.79 0.333,0 z m 0.567,0.601 -0.387,0 0,-0.192 0.387,0 0,0.192 z"
           inkscape:connector-curvature="0"
           id="path3941"
           style="fill:#ffffff;fill-rule:nonzero;stroke:none" />
      </g>
      <g
         transform="matrix(17.639173,0,0,-17.639173,690.45206,528.11222)"
         id="g3943">
        <path
           d="m 0,0 -0.335,1.086 -0.297,0 L -0.967,0 l 0.26,0 0.061,0.244 0.315,0 L -0.269,0 0,0 z m -0.375,0.425 -0.231,0 0.114,0.449 0.117,-0.449 z M 0.949,0 l 0,1.086 -0.22,0 0,-0.791 -0.268,0.791 -0.333,0 0,-1.086 0.22,0 0,0.79 L 0.615,0 0.949,0 z m 0.993,0 0,1.086 -0.26,0 0,-0.427 -0.246,0 0,0.427 -0.259,0 0,-1.086 0.259,0 0,0.456 0.246,0 0,-0.456 0.26,0 z M 3.038,0 2.702,1.086 2.406,1.086 2.071,0 l 0.26,0 0.06,0.244 0.316,0 L 2.769,0 3.038,0 z m -0.375,0.425 -0.231,0 0.114,0.449 0.117,-0.449 z M 3.764,0 l 0,0.203 -0.339,0 0,0.883 -0.259,0 0,-1.086 0.598,0 z m 0.654,0.882 0,0.204 -0.719,0 0,-0.204 0.231,0 0,-0.882 0.259,0 0,0.882 0.229,0 z"
           inkscape:connector-curvature="0"
           id="path3945"
           style="fill:#ffffff;fill-rule:nonzero;stroke:none" />
      </g>
    </g>
    <g
       transform="matrix(1,0,0,-1,52.590412,886.55976)"
       id="g5433" />
    <g
       transform="matrix(1,0,0,-1,52.590412,886.55976)"
       id="g5987" />
    <g
       transform="matrix(1,0,0,-1,52.590412,886.55976)"
       id="g6535" />
  </g>
</svg>
