<svg xmlns="http://www.w3.org/2000/svg" viewBox="0 0 500 100"><g transform="translate(-321.71-438.35)"><path d="m321.71 538.1h264.43v-99.71h-264.43v99.71" fill="#1969bc"/><path d="m591.54 538.1h39.6v-99.71h-39.6v99.71" fill="#6d94d4"/><path d="m636.73 538.1h184.98v-99.71h-184.98v99.71" fill="#25a840"/><g fill="#fff"><path d="m0 0c-.137.331-.518.617-1.018.596-.499-.021-.823-.36-1.039-.707v.597h-1.371v-.346h.49c.239 0 .267-.111.267-.339v-1.428c0 0 .536.853.679 1.074.18.276.437.784.967.803.801.03.881-.847.895-1.01l.007-.007c0 0 .372.982 1.083 1.016.709.034.855-.668.881-.936.011-.105.0001-.358.0001-.358h.3c0 0 0 .106 0 .106 0 .843-.23 1.56-1.184 1.534-.445-.012-.758-.294-.967-.596" transform="matrix(17.63917 0 0-17.63917 382.18 471.56)"/><path d="m0 0c0 .013-.025.131-.033.216-.015.144-.005.328-.002.372.046.643.354 1.207 1.038 1.2.548-.007.849-.391.995-.541l.643-.718v2.939h-1.336v-.335h.379c.241 0 .336-.17.336-.405v-1.01c-.314.342-.71.47-1.178.47-1.025 0-1.513-.792-1.571-1.606-.004-.056-.015-.26.027-.581h.702" transform="matrix(17.63917 0 0-17.63917 436.68 499.52)"/><path d="m0 0c.156.006.376-.037.411-.207-.255 0-.425-.119-.425-.385 0-.215.205-.341.397-.341.283 0 .396.215.396.496 0 .511-.319.805-.8.785-.5-.021-.795-.363-1.01-.709v.597h-1.371v-.347h.49c.239 0 .267-.11.267-.338v-1.429c0 0 .535.854.679 1.075.18.276.437.783.967.803" transform="matrix(17.63917 0 0-17.63917 531.26 467.18)"/><g transform="matrix(1.46706 0 0 1.46706-344.51-246.66)"><path d="m0 0c0 .182-.077.252-.212.314l-.093.043c-.068.03-.105.06-.105.125 0 .076.066.114.143.114.068 0 .155-.028.215-.059l.0001.207c-.085.02-.153.037-.253.037-.202 0-.382-.107-.382-.311 0-.136.048-.236.188-.302l.1-.048c.068-.032.122-.065.122-.141 0-.059-.034-.132-.153-.132-.065 0-.16.021-.241.067l-.0001-.209c.078-.026.199-.044.292-.044.218 0 .379.139.379.339m1.027-.321l-.336 1.086h-.296l-.335-1.086h.26l.061.245h.315l.062-.245h.269zm-.375.425h-.231l.114.45.117-.45m1.172-.405l-.009.221c-.023-.0001-.084-.058-.209-.058-.158 0-.264.14-.264.359 0 .222.111.36.267.36.105 0 .163-.036.199-.062v.21c-.034.013-.118.052-.267.052-.212 0-.477-.174-.477-.56 0-.34.193-.56.49-.56.136 0 .208.023.26.038m.935-.02v1.086h-.261v-.426h-.246v.426h-.258v-1.086h.258v.456h.246v-.456h.261zm.862.321c0 .182-.076.252-.211.314l-.093.043c-.068.03-.106.06-.106.125 0 .076.067.114.143.114.069 0 .155-.028.215-.059v.207c-.085.02-.153.037-.252.037-.202 0-.383-.107-.383-.311 0-.136.049-.236.189-.302l.099-.048c.069-.032.122-.065.122-.141 0-.059-.034-.132-.153-.132-.065 0-.159.021-.241.067l-.009-.209c.078-.026.198-.044.291-.044.218 0 .379.139.379.339m.819-.321v.197h-.382v.264h.342v.195h-.342v.233h.368v.197h-.624v-1.086h.638zm1.01 0v1.086h-.219v-.791l-.269.791h-.332v-1.086h.22v.79l.267-.79h.333m.567.601h-.387v-.192h.387v.192" transform="matrix(17.63917 0 0-17.63917 686.35 494.49)"/><path d="m0 0l-.335 1.086h-.297l-.335-1.086h.26l.061.244h.315l.062-.244h.269m-.375.425h-.231l.114.449.117-.449m1.324-.425v1.086h-.22v-.791l-.268.791h-.333v-1.086h.22v.79l.267-.79h.334m.993 0v1.086h-.26v-.427h-.246v.427h-.259v-1.086h.259v.456h.246v-.456h.26m1.096 0l-.336 1.086h-.296l-.335-1.086h.26l.06.244h.316l.062-.244h.269m-.375.425h-.231l.114.449.117-.449m1.101-.425v.203h-.339v.883h-.259v-1.086h.598m.654.882v.204h-.719v-.204h.231v-.882h.259v.882h.229" transform="matrix(17.63917 0 0-17.63917 690.45 528.11)"/></g></g></g></svg>