<svg xmlns="http://www.w3.org/2000/svg" viewBox="0 0 423 74"><path d="m184.65 36.998c0-33.859-33.05-36.992-33.05-36.992h-114.59c-20.429 0-37.01 16.564-37.01 36.992 0 20.429 16.579 36.992 37.01 36.992 1.328 0 113.29-.075 114.59-.209 18.578-1.97 33.05-17.683 33.05-36.784" fill="#bdbcbc"/><path d="m184.65 36.998c0 20.429-16.564 36.992-36.992 36.992-20.444 0-37.01-16.564-37.01-36.992 0-20.429 16.564-36.992 37.01-36.992 20.429 0 36.992 16.564 36.992 36.992" fill="#ef2728"/><path d="m184.48 1.647c-19.489 0-35.35 15.862-35.35 35.35 0 19.489 15.862 35.35 35.35 35.35 2 0 202.33-.075 205.38-.209 17.922-1.91 31.501-17.01 31.501-35.14 0-31.576-29.606-35.16-31.486-35.35h-205.39" fill="#fff"/><g fill="#221e1f"><path d="m389.6 70.51c0 0 0 0 .015 0h-.015m.164-.015c0 0 .015 0 .015 0 0 0-.015 0-.015 0m-205.29.209c-4.551 0-8.968-.895-13.13-2.641-3.999-1.701-7.61-4.133-10.699-7.237-3.104-3.089-5.536-6.7-7.237-10.714-1.746-4.148-2.641-8.565-2.641-13.12 0-4.551.895-8.953 2.641-13.12 1.701-4.01 4.133-7.61 7.237-10.714 3.089-3.089 6.7-5.521 10.699-7.222 4.163-1.761 8.58-2.641 13.13-2.641h205.29c1.059.134 8.207 1.134 15.191 5.432 4.298 2.656 7.715 6.03 10.147 10.04 3.059 5.04 4.596 11.177 4.596 18.22 0 8.386-3.089 16.415-8.7 22.607-5.551 6.133-13.12 9.998-21.294 10.893-5.82.134-203.26.209-205.23.209m205.47-70.7h-205.47c-20.444 0-37.01 16.564-37.01 36.992 0 20.444 16.564 37.01 37.01 37.01 1.328 0 204.17-.075 205.47-.209 18.578-1.97 33.05-17.698 33.05-36.798 0-33.859-33.05-36.992-33.05-36.992"/><path d="m399.65 55.55l-15.325-19.697 14.31-17.653h-12.699l-11.669 15.758v-15.758h-10.953v37.35h10.953v-16.474l11.953 16.474h13.43"/><path d="m357 25.472h-10.461v-7.282h10.461v7.282"/><path d="m356.79 28.815h-10.147v26.726h10.147v-26.726"/><path d="m302.85 25.902v-7.7h-27.502v7.7h7.864v20.608c.418 10.03 7.06 9.819 9.386 9.819 2.343 0 7.327-1.164 7.327-1.164l-.313-7.595c-.985.985-3.298.791-3.298.791-2.059 0-2.865-1.85-2.865-1.85v-20.608h9.401"/><path d="m322.28 25.954c-6.432 0-6.312 5.685-6.312 5.685v23.906h-11.06v-25.398c1.865-13.221 17.37-12.535 17.37-12.535 0 0 15.504-.686 17.37 12.535v25.398h-11.06v-23.906c0 0 .119-5.685-6.312-5.685"/><path d="m254.07 47.798c6.432 0 6.312-5.685 6.312-5.685v-23.906h11.06v25.398c-1.865 13.221-17.37 12.535-17.37 12.535 0 0-15.504.686-17.37-12.535v-25.398h11.06v23.906c0 0-.119 5.685 6.312 5.685"/><path d="m216.29 36.491h-5.656v-11.177l5.372.075c0 0 5.79-.284 5.79 5.01 0 5.73-5.506 6.088-5.506 6.088m4.01-18.295h-20.2v37.35h10.535v-12.4h11.237c0 0 10.625-.358 10.625-12.759 0-12.4-12.192-12.192-12.192-12.192"/><path d="m193.16 18.948l-.209 7.73c0 0-3.865-1.791-9.67-1.791-5.805 0-6.954 2.507-6.954 3.298 0 .791.224 2.656 4.805 4.01 4.581 1.358 14.684 3.074 14.176 12.162-.507 9.103-9.03 12.251-16.609 11.893-7.595-.358-12.535-1.433-12.893-1.791l.507-7.73c0 0 6.148 2.999 11.162 2.582 5.01-.433 6.954-2.01 6.954-4.163 0-2.149-3.447-3.79-8.819-5.372-5.357-1.567-10.09-4.148-10.09-10.804 0-6.655 6.73-11.863 16.325-11.311 9.595.537 11.311 1.283 11.311 1.283"/></g><g fill="#fff"><path d="m28.468 12.962h3.981l5.04 13.438 5.066-13.438h3.981v19.748h-2.606v-17.34l-5.092 13.544h-2.685l-5.092-13.544v17.34h-2.592v-19.748"/><path d="m54.53 15.16v15.356h3.227q4.087 0 5.979-1.852 1.905-1.852 1.905-5.846 0-3.968-1.905-5.807-1.891-1.852-5.979-1.852h-3.227m-2.672-2.196h5.489q5.74 0 8.425 2.394 2.685 2.381 2.685 7.46 0 5.106-2.698 7.5-2.698 2.394-8.412 2.394h-5.489v-19.748"/><path d="m82.06 23.451q.86.291 1.667 1.243.82.952 1.64 2.619l2.711 5.397h-2.87l-2.526-5.066q-.979-1.984-1.905-2.632-.913-.648-2.5-.648h-2.91v8.346h-2.672v-19.748h6.03q3.386 0 5.05 1.415 1.667 1.415 1.667 4.272 0 1.865-.873 3.095-.86 1.23-2.513 1.706m-6.693-8.293v7.01h3.36q1.931 0 2.91-.886.992-.899.992-2.632 0-1.733-.992-2.606-.979-.886-2.91-.886h-3.36"/></g></svg>