<svg xmlns="http://www.w3.org/2000/svg" viewBox="0 0 303.12 141.79"><defs><clipPath id="0"><path d="m0 0h595.28v841.89h-595.28v-841.89"/></clipPath><clipPath id="1"><path d="m177.64 439.91h48.35v33.819h-48.35v-33.819"/></clipPath></defs><g transform="matrix(1.25 0 0-1.25-222.05 597.4)"><g fill="#1969bc"><g clip-path="url(#0)"><path d="m0 0c0 5.04-2.61 8.464-7.881 8.464h-5.22v-16.902h5.347c4.992 0 7.754 3.674 7.754 8.438m-4.181 0c0-2.838-.938-5.372-3.928-5.372h-.963v10.769h.862c3.193 0 4.03-2.534 4.03-5.397m19.71-8.438l-5.22 16.902h-4.612l-5.22-16.902h4.054l.938 3.801h4.916l.963-3.801h4.181zm-5.828 6.614h-3.599l1.774 6.993 1.825-6.993m17.12-1.622c0 2.838-1.191 3.927-3.294 4.89l-1.445.659c-1.064.482-1.647.938-1.647 1.951 0 1.191 1.039 1.774 2.23 1.774 1.065 0 2.408-.431 3.345-.912l.152 3.218c-1.317.304-2.382.583-3.928.583-3.142 0-5.954-1.672-5.954-4.84 0-2.129.76-3.674 2.939-4.713l1.546-.735c1.064-.507 1.9-1.014 1.9-2.205 0-.912-.532-2.052-2.382-2.052-1.013 0-2.483.329-3.75 1.039l-.152-3.244c1.216-.405 3.091-.684 4.536-.684 3.395 0 5.904 2.154 5.904 5.271m20.779-4.992l-1.774 5.752c-.507 1.647-1.09 2.331-2.306 2.661 2.179.43 3.37 1.951 3.37 4.155 0 2.94-2.483 4.334-5.22 4.334h-6.208v-16.902h3.978v6.766h.811c.836 0 1.343-.457 1.723-1.825l1.343-4.941h4.283zm-4.789 11.884c0-1.343-.837-2.154-2.281-2.154h-1.115v4.232h1.09c1.393 0 2.306-.633 2.306-2.078m20.398-11.884l-5.22 16.902h-4.612l-5.22-16.902h4.055l.937 3.801h4.916l.963-3.801h4.181zm-5.828 6.614h-3.598l1.774 6.993 1.824-6.993m20.677 1.824c0 5.04-2.61 8.464-7.881 8.464h-5.22v-16.902h5.347c4.992 0 7.754 3.674 7.754 8.438m-4.181 0c0-2.838-.937-5.372-3.928-5.372h-.962v10.769h.861c3.193 0 4.03-2.534 4.03-5.397m10.871 8.464h-4.03v-16.902h4.03v16.902zm16.648-8.464c0 4.409-1.799 8.717-7.02 8.717-4.891 0-6.969-4.359-6.969-8.717 0-4.46 1.799-8.717 6.969-8.717 4.916 0 7.02 4.232 7.02 8.717m-4.181 0c0-2.433-.279-5.828-2.838-5.828-2.23 0-2.788 2.787-2.788 5.828 0 2.458.355 5.828 2.788 5.828 2.61 0 2.838-3.345 2.838-5.828" transform="translate(256.67 373.21)"/><path d="m0 0v16.902h-5.803l-2.762-11.251-2.585 11.251h-5.777v-16.902h3.421v13.38l3.345-13.38h2.914l3.345 13.38v-13.38h3.902m16.42 8.438c0 5.04-2.61 8.464-7.881 8.464h-5.22v-16.902h5.347c4.992 0 7.754 3.674 7.754 8.438m-4.181 0c0-2.838-.938-5.372-3.928-5.372h-.963v10.77h.862c3.193 0 4.03-2.534 4.03-5.398m18.979-8.438l-1.773 5.752c-.507 1.647-1.09 2.331-2.306 2.661 2.179.431 3.37 1.951 3.37 4.156 0 2.939-2.484 4.333-5.22 4.333h-6.209v-16.902h3.979v6.766h.811c.836 0 1.343-.456 1.723-1.825l1.343-4.941h4.282zm-4.789 11.884c0-1.343-.836-2.153-2.281-2.153h-1.114v4.231h1.089c1.394 0 2.306-.633 2.306-2.078m22.73 1.85v3.168h-11.2v-3.168h3.598v-13.734h4.03v13.734h3.573zm13.759-13.734v16.902h-4.054v-6.639h-3.826v6.639h-4.03v-16.902h4.03v7.095h3.826v-7.095h4.054m12.594 21.691h-2.635v-3.218h2.635v3.218m-4.232 0h-2.635v-3.218h2.635v3.218m6.817-15.533v10.744h-4.03v-11.429c0-1.444-.405-2.762-2-2.762-1.673 0-1.952 1.318-1.952 2.762v11.429h-4.054v-10.744c0-4.08 1.825-6.437 6.01-6.437 4.03 0 6.03 2.534 6.03 6.437m15.305-6.158l-1.774 5.752c-.507 1.647-1.09 2.331-2.306 2.661 2.179.431 3.37 1.951 3.37 4.156 0 2.939-2.483 4.333-5.22 4.333h-6.208v-16.902h3.978v6.766h.811c.836 0 1.343-.456 1.723-1.825l1.343-4.941h4.283zm-4.789 11.884c0-1.343-.837-2.153-2.281-2.153h-1.115v4.231h1.09c1.393 0 2.306-.633 2.306-2.078m10.946 5.02h-4.03v-16.902h4.03v16.902zm16.09-16.902v16.902h-3.421v-12.315l-4.181 12.315h-5.169v-16.902h3.42v12.29l4.156-12.29h5.195m15.786.608v9.1h-5.65v-2.838h1.951v-3.902c-.38-.178-.786-.254-1.216-.254-3.067 0-4.03 2.889-4.03 5.727 0 3.142 1.521 5.727 4.612 5.727 1.698 0 2.661-.431 3.725-.963l.152 3.244c-1.089.354-2.306.709-4.181.709-5.194 0-8.489-3.598-8.489-8.717 0-5.22 2.509-8.717 7.754-8.717 1.647 0 3.827.203 5.372.887m12.797-.608v3.066h-5.955v4.105h5.321v3.041h-5.321v3.624h5.727v3.066h-9.705v-16.902h9.933zm15.407 0v16.902h-3.421v-12.315l-4.181 12.315h-5.17v-16.902h3.421v12.29l4.156-12.29h5.195" transform="translate(260.5 392.83)"/><path d="m0 0c0-5.376 4.373-9.751 9.749-9.751 5.376 0 9.75 4.375 9.75 9.751 0 5.376-4.374 9.749-9.75 9.749-5.376 0-9.749-4.373-9.749-9.749m1.592 0c0 4.498 3.659 8.158 8.157 8.158 4.498 0 8.158-3.66 8.158-8.158 0-4.499-3.66-8.159-8.158-8.159-4.498 0-8.157 3.66-8.157 8.159" transform="translate(309.92 468.17)"/></g><path d="m0 0l9.606 3.508v-9.46l-6.625-2.421v7.207l-2.981-1.131v2.297" transform="translate(313.73 470.26)"/><path d="m177.64 473.73h127.42v-48.08h-127.42v48.08"/></g><g clip-path="url(#1)"><path d="m0 0c-1.16 2.801-4.381 5.22-8.605 5.04-4.225-.177-6.958-3.05-8.79-5.978v5.04h-11.595v-2.926h4.15c2.01 0 2.258-.935 2.258-2.865v-12.08c0 0 4.524 7.22 5.741 9.09 1.52 2.332 3.693 6.625 8.174 6.791 6.775.249 7.446-7.161 7.568-8.531l.061-.062c0 0 3.147 8.306 9.155 8.593 5.999.285 7.227-5.652 7.453-7.917.089-.888.078-3.03.078-3.03h2.539c.009 0 .002.893.002.893 0 7.128-1.947 13.197-10.01 12.976-3.761-.103-6.408-2.491-8.178-5.04" fill="#fff" transform="translate(206.63 457.81)"/></g><g clip-path="url(#0)" fill="#fff"><path d="m0 0c0 .109-.208 1.11-.28 1.825-.124 1.223-.045 2.771-.018 3.15.387 5.439 2.995 10.203 8.778 10.148 4.631-.059 7.183-3.31 8.418-4.574l5.435-6.079v24.856h-11.3v-2.829h3.21c2.038 0 2.841-1.444 2.841-3.43v-8.547c-2.655 2.889-6.01 3.974-9.962 3.974-8.672 0-12.796-6.701-13.288-13.581-.033-.469-.122-2.197.229-4.913h5.937" transform="translate(232.75 444.4)"/><path d="m0 0c1.318.048 3.176-.313 3.476-1.752-2.157 0-3.596-1-3.596-3.254 0-1.815 1.738-2.879 3.356-2.879 2.396 0 3.355 1.816 3.355 4.192 0 4.317-2.7 6.804-6.771 6.635-4.224-.178-6.716-3.066-8.548-5.994v5.04h-11.595v-2.927h4.15c2.01 0 2.259-.934 2.259-2.865v-12.08c0 0 4.524 7.219 5.741 9.09 1.52 2.332 3.693 6.625 8.173 6.791" transform="translate(278.1 459.91)"/></g></g></svg>