<?xml version="1.0" encoding="UTF-8" standalone="no"?>
<!-- Created with Inkscape (http://www.inkscape.org/) -->

<svg
   xmlns:dc="http://purl.org/dc/elements/1.1/"
   xmlns:cc="http://creativecommons.org/ns#"
   xmlns:rdf="http://www.w3.org/1999/02/22-rdf-syntax-ns#"
   xmlns:svg="http://www.w3.org/2000/svg"
   xmlns="http://www.w3.org/2000/svg"
   xmlns:inkscape="http://www.inkscape.org/namespaces/inkscape"
   version="1.1"
   width="303.125"
   height="141.78662"
   id="svg2985"
   xml:space="preserve"><metadata
     id="metadata2991"><rdf:RDF><cc:Work
         rdf:about=""><dc:format>image/svg+xml</dc:format><dc:type
           rdf:resource="http://purl.org/dc/dcmitype/StillImage" /><dc:title /></cc:Work></rdf:RDF></metadata><defs
     id="defs2989"><clipPath
       id="clipPath2999"><path
         d="m 0,0 595.276,0 0,841.89 L 0,841.89 0,0 z"
         inkscape:connector-curvature="0"
         id="path3001" /></clipPath><clipPath
       id="clipPath3025"><path
         d="m 177.637,439.91 48.348,0 0,33.819 -48.348,0 0,-33.819 z"
         inkscape:connector-curvature="0"
         id="path3027" /></clipPath><clipPath
       id="clipPath3037"><path
         d="m 0,0 595.276,0 0,841.89 L 0,841.89 0,0 z"
         inkscape:connector-curvature="0"
         id="path3039" /></clipPath></defs><g
     transform="matrix(1.25,0,0,-1.25,-222.04737,597.40113)"
     id="g2993"><g
       id="g2995"><g
         clip-path="url(#clipPath2999)"
         id="g2997"><g
           transform="translate(256.6716,373.2086)"
           id="g3003"><path
             d="m 0,0 c 0,5.043 -2.61,8.464 -7.881,8.464 l -5.22,0 0,-16.902 5.347,0 C -2.762,-8.438 0,-4.764 0,0 m -4.181,0 c 0,-2.838 -0.938,-5.372 -3.928,-5.372 l -0.963,0 0,10.769 0.862,0 c 3.193,0 4.029,-2.534 4.029,-5.397 m 19.71,-8.438 -5.22,16.902 -4.612,0 -5.22,-16.902 4.054,0 0.938,3.801 4.916,0 0.963,-3.801 4.181,0 z m -5.828,6.614 -3.599,0 1.774,6.993 1.825,-6.993 z m 17.124,-1.622 c 0,2.838 -1.191,3.927 -3.294,4.89 l -1.445,0.659 c -1.064,0.482 -1.647,0.938 -1.647,1.951 0,1.191 1.039,1.774 2.23,1.774 1.065,0 2.408,-0.431 3.345,-0.912 l 0.152,3.218 c -1.317,0.304 -2.382,0.583 -3.928,0.583 -3.142,0 -5.954,-1.672 -5.954,-4.84 0,-2.129 0.76,-3.674 2.939,-4.713 l 1.546,-0.735 c 1.064,-0.507 1.9,-1.014 1.9,-2.205 0,-0.912 -0.532,-2.052 -2.382,-2.052 -1.013,0 -2.483,0.329 -3.75,1.039 l -0.152,-3.244 c 1.216,-0.405 3.091,-0.684 4.536,-0.684 3.395,0 5.904,2.154 5.904,5.271 m 20.779,-4.992 -1.774,5.752 c -0.507,1.647 -1.09,2.331 -2.306,2.661 2.179,0.43 3.37,1.951 3.37,4.155 0,2.94 -2.483,4.334 -5.22,4.334 l -6.208,0 0,-16.902 3.978,0 0,6.766 0.811,0 c 0.836,0 1.343,-0.457 1.723,-1.825 l 1.343,-4.941 4.283,0 z M 42.815,3.446 c 0,-1.343 -0.837,-2.154 -2.281,-2.154 l -1.115,0 0,4.232 1.09,0 c 1.393,0 2.306,-0.633 2.306,-2.078 m 20.398,-11.884 -5.22,16.902 -4.612,0 -5.22,-16.902 4.055,0 0.937,3.801 4.916,0 0.963,-3.801 4.181,0 z m -5.828,6.614 -3.598,0 1.774,6.993 1.824,-6.993 z M 78.062,0 c 0,5.043 -2.61,8.464 -7.881,8.464 l -5.22,0 0,-16.902 5.347,0 c 4.992,0 7.754,3.674 7.754,8.438 m -4.181,0 c 0,-2.838 -0.937,-5.372 -3.928,-5.372 l -0.962,0 0,10.769 0.861,0 c 3.193,0 4.029,-2.534 4.029,-5.397 m 10.871,8.464 -4.029,0 0,-16.902 4.029,0 0,16.902 z M 101.4,0 c 0,4.409 -1.799,8.717 -7.019,8.717 -4.891,0 -6.969,-4.359 -6.969,-8.717 0,-4.46 1.799,-8.717 6.969,-8.717 4.916,0 7.019,4.232 7.019,8.717 m -4.181,0 c 0,-2.433 -0.279,-5.828 -2.838,-5.828 -2.23,0 -2.788,2.787 -2.788,5.828 0,2.458 0.355,5.828 2.788,5.828 2.61,0 2.838,-3.345 2.838,-5.828"
             inkscape:connector-curvature="0"
             id="path3005"
             style="fill:#1969bc;fill-opacity:1;fill-rule:nonzero;stroke:none" /></g><g
           transform="translate(260.4979,392.8254)"
           id="g3007"><path
             d="m 0,0 0,16.902 -5.803,0 -2.762,-11.251 -2.585,11.251 -5.777,0 0,-16.902 3.421,0 0,13.38 L -10.161,0 -7.247,0 -3.902,13.38 -3.902,0 0,0 z m 16.42,8.438 c 0,5.043 -2.61,8.464 -7.881,8.464 l -5.22,0 0,-16.902 5.347,0 c 4.992,0 7.754,3.674 7.754,8.438 m -4.181,0 C 12.239,5.6 11.301,3.066 8.311,3.066 l -0.963,0 0,10.77 0.862,0 c 3.193,0 4.029,-2.534 4.029,-5.398 M 31.218,0 29.445,5.752 c -0.507,1.647 -1.09,2.331 -2.306,2.661 2.179,0.431 3.37,1.951 3.37,4.156 0,2.939 -2.484,4.333 -5.22,4.333 l -6.209,0 0,-16.902 3.979,0 0,6.766 0.811,0 c 0.836,0 1.343,-0.456 1.723,-1.825 L 26.936,0 31.218,0 z m -4.789,11.884 c 0,-1.343 -0.836,-2.153 -2.281,-2.153 l -1.114,0 0,4.231 1.089,0 c 1.394,0 2.306,-0.633 2.306,-2.078 m 22.73,1.85 0,3.168 -11.2,0 0,-3.168 3.598,0 0,-13.734 4.029,0 0,13.734 3.573,0 z M 62.918,0 l 0,16.902 -4.054,0 0,-6.639 -3.826,0 0,6.639 -4.03,0 0,-16.902 4.03,0 0,7.095 3.826,0 0,-7.095 4.054,0 z m 12.594,21.691 -2.635,0 0,-3.218 2.635,0 0,3.218 z m -4.232,0 -2.635,0 0,-3.218 2.635,0 0,3.218 z m 6.817,-15.533 0,10.744 -4.03,0 0,-11.429 c 0,-1.444 -0.405,-2.762 -2.001,-2.762 -1.673,0 -1.952,1.318 -1.952,2.762 l 0,11.429 -4.054,0 0,-10.744 c 0,-4.08 1.825,-6.437 6.006,-6.437 4.029,0 6.031,2.534 6.031,6.437 M 93.402,0 91.628,5.752 c -0.507,1.647 -1.09,2.331 -2.306,2.661 2.179,0.431 3.37,1.951 3.37,4.156 0,2.939 -2.483,4.333 -5.22,4.333 l -6.208,0 0,-16.902 3.978,0 0,6.766 0.811,0 c 0.836,0 1.343,-0.456 1.723,-1.825 L 89.119,0 93.402,0 z m -4.789,11.884 c 0,-1.343 -0.837,-2.153 -2.281,-2.153 l -1.115,0 0,4.231 1.09,0 c 1.393,0 2.306,-0.633 2.306,-2.078 m 10.946,5.018 -4.029,0 0,-16.902 4.029,0 0,16.902 z M 115.65,0 l 0,16.902 -3.421,0 0,-12.315 -4.181,12.315 -5.169,0 0,-16.902 3.42,0 0,12.29 4.156,-12.29 5.195,0 z m 15.786,0.608 0,9.097 -5.65,0 0,-2.838 1.951,0 0,-3.902 c -0.38,-0.178 -0.786,-0.254 -1.216,-0.254 -3.067,0 -4.03,2.889 -4.03,5.727 0,3.142 1.521,5.727 4.612,5.727 1.698,0 2.661,-0.431 3.725,-0.963 l 0.152,3.244 c -1.089,0.354 -2.306,0.709 -4.181,0.709 -5.194,0 -8.489,-3.598 -8.489,-8.717 0,-5.22 2.509,-8.717 7.754,-8.717 1.647,0 3.827,0.203 5.372,0.887 M 144.233,0 l 0,3.066 -5.955,0 0,4.105 5.321,0 0,3.041 -5.321,0 0,3.624 5.727,0 0,3.066 -9.705,0 0,-16.902 9.933,0 z m 15.407,0 0,16.902 -3.421,0 0,-12.315 -4.181,12.315 -5.17,0 0,-16.902 3.421,0 0,12.29 4.156,-12.29 5.195,0 z"
             inkscape:connector-curvature="0"
             id="path3009"
             style="fill:#1969bc;fill-opacity:1;fill-rule:nonzero;stroke:none" /></g><g
           transform="translate(309.9202,468.1719)"
           id="g3011"><path
             d="m 0,0 c 0,-5.376 4.373,-9.751 9.749,-9.751 5.376,0 9.75,4.375 9.75,9.751 0,5.376 -4.374,9.749 -9.75,9.749 C 4.373,9.749 0,5.376 0,0 m 1.592,0 c 0,4.498 3.659,8.158 8.157,8.158 4.498,0 8.158,-3.66 8.158,-8.158 0,-4.499 -3.66,-8.159 -8.158,-8.159 -4.498,0 -8.157,3.66 -8.157,8.159"
             inkscape:connector-curvature="0"
             id="path3013"
             style="fill:#1969bc;fill-opacity:1;fill-rule:nonzero;stroke:none" /></g></g></g><g
       transform="translate(313.7339,470.2576)"
       id="g3015"><path
         d="m 0,0 9.606,3.508 0,-9.46 -6.625,-2.421 0,7.207 L 0,-2.297 0,0 z"
         inkscape:connector-curvature="0"
         id="path3017"
         style="fill:#1969bc;fill-opacity:1;fill-rule:nonzero;stroke:none" /></g><path
       d="m 177.638,473.73 127.418,0 0,-48.078 -127.418,0 0,48.078 z"
       inkscape:connector-curvature="0"
       id="path3019"
       style="fill:#1969bc;fill-opacity:1;fill-rule:nonzero;stroke:none" /><g
       id="g3021"><g
         clip-path="url(#clipPath3025)"
         id="g3023"><g
           transform="translate(206.6279,457.806)"
           id="g3029"><path
             d="m 0,0 c -1.16,2.801 -4.381,5.22 -8.605,5.043 -4.225,-0.177 -6.958,-3.05 -8.79,-5.978 l 0,5.044 -11.595,0 0,-2.926 4.15,0 c 2.014,0 2.258,-0.935 2.258,-2.865 l 0,-12.08 c 0,0 4.524,7.22 5.741,9.088 1.52,2.332 3.693,6.625 8.174,6.791 6.775,0.249 7.446,-7.161 7.568,-8.531 l 0.061,-0.062 c 0,0 3.147,8.306 9.155,8.593 5.999,0.285 7.227,-5.652 7.453,-7.917 0.089,-0.888 0.078,-3.026 0.078,-3.026 l 2.539,0 c 0.009,0 0.002,0.893 0.002,0.893 0,7.128 -1.947,13.197 -10.011,12.976 C 4.417,4.94 1.77,2.552 0,0"
             inkscape:connector-curvature="0"
             id="path3031"
             style="fill:#ffffff;fill-opacity:1;fill-rule:nonzero;stroke:none" /></g></g></g><g
       id="g3033"><g
         clip-path="url(#clipPath3037)"
         id="g3035"><g
           transform="translate(232.7543,444.4037)"
           id="g3041"><path
             d="m 0,0 c 0,0.109 -0.208,1.11 -0.28,1.825 -0.124,1.223 -0.045,2.771 -0.018,3.15 0.387,5.439 2.995,10.203 8.778,10.148 4.631,-0.059 7.183,-3.31 8.418,-4.574 l 5.435,-6.079 0,24.856 -11.3,0 0,-2.829 3.21,0 c 2.038,0 2.841,-1.444 2.841,-3.43 l 0,-8.547 c -2.655,2.889 -6.01,3.974 -9.962,3.974 C -1.55,18.494 -5.674,11.793 -6.166,4.913 -6.199,4.444 -6.288,2.716 -5.937,0 L 0,0 z"
             inkscape:connector-curvature="0"
             id="path3043"
             style="fill:#ffffff;fill-opacity:1;fill-rule:nonzero;stroke:none" /></g><g
           transform="translate(278.0953,459.9078)"
           id="g3045"><path
             d="m 0,0 c 1.318,0.048 3.176,-0.313 3.476,-1.752 -2.157,0 -3.596,-1.002 -3.596,-3.254 0,-1.815 1.738,-2.879 3.356,-2.879 2.396,0 3.355,1.816 3.355,4.192 0,4.317 -2.7,6.804 -6.771,6.635 -4.224,-0.178 -6.716,-3.066 -8.548,-5.994 l 0,5.045 -11.595,0 0,-2.927 4.15,0 c 2.014,0 2.259,-0.934 2.259,-2.865 l 0,-12.079 c 0,0 4.524,7.219 5.741,9.087 C -6.653,-4.459 -4.48,-0.166 0,0"
             inkscape:connector-curvature="0"
             id="path3047"
             style="fill:#ffffff;fill-opacity:1;fill-rule:nonzero;stroke:none" /></g></g></g></g></svg>