<svg xmlns="http://www.w3.org/2000/svg" height="182.01" viewBox="0 0 600 182.00553"><g stroke-width="9.679" fill="#fff"><path d="m165.14 19.416h-3.71l1.4-11.325h3.74c3.99.03 6.12 1.956 6.14 5.276-.001 3.048-2.12 6-7.55 6.05m8.57 5.875c5.6-1.51 8.23-6.436 8.2-11.682 0-5.537-3.36-13.571-13.41-13.58h-13.61l-5.48 44.717h8.93l2.15-17.809h1.45c3.92.038 4.57.716 7.94 8.711l3.77 9.1h9.86l-6.2-14.489c-.95-2.207-1.84-3.872-3.61-4.975m141.22-25.26l-.02.29-3.29 26.686c-.93 7.22-5.13 9.485-9.39 9.485-3.06 0-8.44-1.2-8.46-8.788 0-.755.04-1.53.16-2.352l3.17-25.331h-8.92l-3.23 25.36c-.15 1.21-.24 2.39-.24 3.542.03 9.466 5.52 16.397 17.52 16.406h.16c7.38 0 16.3-3.068 18.03-17.461l3.44-27.837h-8.92zm-46.97 44.718h8.94l5.55-44.718h-8.94l-5.54 44.718zm-14.26-44.718l-.1.194-12.64 26.811-6.1-27h-9.56l-11.28 39.39.29-2.323.03-.387h-20.12l1.34-10.879h14.03l.99-8.03h-14.04l1.22-9.728h15.97l1.02-8.03h-24.9l-5.54 44.717h37.19l8.51-29.782 6.64 29.792h4.42l13.97-28.96 1.16 28.97h8.64l-1.84-44.718h-9.31zm-120.51 20.539h-3.06l1.54-12.873h1.71c5.16.019 7.18 2.642 7.21 6.166-.03 3.736-2.06 6.649-7.39 6.697m3.47-20.539h-12.97l-5.49 44.718h8.93l2.04-16.59h6.23c6.74 0 14.35-3.436 14.38-14.683-.03-8.963-6.06-13.454-13.13-13.454m234.72 0h-9.29l-12.75 27-6.1-27h-9.56l-12.82 44.717h9l8.52-29.782 6.65 29.792h4.42l13.98-28.941 1.16 28.941h8.65l-1.84-44.718z"/><path d="m379.04 81.73c13.71.02 24.81 7.01 32.29 15.07l16.87-19.591c-11.79-12.428-28.56-21.1-49.16-21.1-37.6.038-64.26 28.311-64.26 62.94 0 34.65 26.66 62.92 64.26 62.96 20.62 0 37.37-8.68 49.16-21.1l-16.87-19.59c-7.49 8.06-18.58 15.07-32.29 15.07-9.58 0-18.32-3.82-24.68-10.4-6.34-6.58-10.26-15.94-10.26-26.95 0-11 3.92-20.352 10.26-26.924 6.36-6.582 15.1-10.395 24.68-10.395"/><path d="m560.37 146c-6.35 6.58-15.1 10.39-24.66 10.39-9.58 0-18.33-3.81-24.68-10.39-6.36-6.58-10.29-15.93-10.28-26.94 0-11 3.92-20.352 10.28-26.925 6.35-6.581 15.1-10.395 24.68-10.395 9.56 0 18.31 3.823 24.66 10.405s10.29 15.925 10.29 26.925c0 11.01-3.93 20.35-10.27 26.93m-24.68-89.88c-37.58.02-64.24 28.3-64.27 62.941.03 34.65 26.69 62.92 64.27 62.95 37.62-.02 64.27-28.31 64.29-62.95-.03-34.649-26.67-62.912-64.27-62.941"/><path d="m64.28 81.73c13.706.02 24.808 7.01 32.28 15.07l16.861-19.591c-11.79-12.428-28.553-21.1-49.15-21.1-37.584.038-64.23 28.311-64.27 62.94.039 34.65 26.685 62.92 64.27 62.96 20.617 0 37.36-8.69 49.17-21.1l-16.891-19.59c-7.482 8.06-18.584 15.07-32.29 15.07-9.563 0-18.323-3.82-24.682-10.4-6.34-6.58-10.26-15.94-10.26-26.95 0-11 3.92-20.352 10.26-26.924 6.359-6.582 15.12-10.395 24.682-10.395"/><path d="m435.73 179.46h28.07v-120.55h-28.07z"/><path d="m263.65 152.1c-2.03-2.23-2.71-5.54-2.73-10.19v-83h-28.07v87.77c.03 9.83 2.58 18.02 7.58 23.71 5.01 5.71 12.51 9.05 22.77 9.06h55.55v-24.37h-45.66c-4.26 0-7.38-.75-9.44-2.97"/><path d="m154.95 132.52l.39-1.36c4.45-16.07 9.66-32.985 15.16-48.42l.99-2.807 1.01 2.807c5.5 15.438 10.7 32.353 15.17 48.43l.39 1.36h-33.09zm36.49-73.6h-38.04c-16.06 34.748-32.34 90.5-39.23 120.54h29.28c1.23-5.98 2.81-13.14 4.68-21.03l.19-.82h46.35l.19.81c1.86 7.89 3.45 15.05 4.68 21.02h31.16c-6.9-30.02-23.2-85.78-39.25-120.53"/></g></svg>