<svg xmlns="http://www.w3.org/2000/svg" height="168.11" width="600" viewBox="0 0 158.75 44.480413"><g transform="translate(15.259-72.64)" fill="#fff"><path d="m18.269 77.43h-.917l.343-2.804h.925c.983.009 1.512.489 1.517 1.308-.005.755-.524 1.487-1.868 1.496m2.117 1.452c1.386-.37 2.033-1.586 2.027-2.886-.002-1.368-.83-3.354-3.316-3.357h-3.364l-1.355 11.06h2.209l.533-4.409h.36c.97.011 1.129.177 1.961 2.153l.936 2.256h2.433l-1.527-3.584c-.238-.547-.455-.961-.897-1.234m34.928-6.243v.073l-.815 6.596c-.227 1.787-1.268 2.346-2.32 2.353-.755-.009-2.085-.303-2.093-2.181 0-.181.014-.374.042-.58l.783-6.261h-2.208l-.798 6.271c-.036.298-.057.591-.057.876.006 2.34 1.363 4.055 4.331 4.057h.038c1.829 0 4.03-.762 4.46-4.322l.855-6.882zm-11.62 11.06h2.212l1.37-11.06h-2.208zm-3.526-11.06l-.02.051-3.129 6.626-1.508-6.677h-2.367l-2.789 9.745.072-.579.009-.094h-4.973l.33-2.69h3.471l.245-1.991h-3.472l.304-2.404h3.948l.249-1.987h-6.16l-1.37 11.06h9.196l2.108-7.366 1.64 7.366h1.091l3.459-7.164.287 7.164h2.137l-.459-11.06zm-29.799 5.078h-.761l.385-3.187.418.003c1.277.008 1.777.655 1.785 1.527-.008.925-.512 1.648-1.827 1.657m.859-5.078h-3.21l-1.357 11.06h2.21l.506-4.105h1.542c1.665-.002 3.55-.851 3.556-3.631-.006-2.216-1.497-3.322-3.246-3.325m58.04 0h-2.297l-3.154 6.677-1.506-6.677h-2.364l-3.169 11.06h2.227l2.106-7.366 1.642 7.366h1.091l3.457-7.16.285 7.16h2.138z"/><path d="m50.19 108.21c-1.568 1.63-3.735 2.57-6.098 2.57h-.003c-2.367 0-4.533-.94-6.104-2.57-1.568-1.62-2.542-3.93-2.54-6.66-.002-2.719.972-5.03 2.54-6.658 1.571-1.627 3.737-2.568 6.104-2.568 2.366 0 4.531.941 6.101 2.568 1.57 1.629 2.542 3.939 2.54 6.658.002 2.73-.97 5.04-2.54 6.66m-6.101-22.22c-9.299.004-15.889 6.998-15.895 15.562.006 8.57 6.596 15.56 15.895 15.57 9.298-.001 15.89-7 15.894-15.57-.004-8.564-6.596-15.558-15.894-15.562"/><path d="m-15.259 115.48v-5.78h.319c1.713.52 5.42 1.24 8.09 1.24h1.555c2.47 0 4.343-.76 4.343-3.27 0-1.87-1.632-2.63-3.427-3.11l-4.662-1.23c-3.427-.88-6.216-3.27-6.216-8.408 0-6.06 4.98-8.568 11.04-8.568h1.555c1.872 0 5.618.478 7.332 1.115v5.74h-.319c-1.555-.44-5.301-.918-7.01-.918h-1.397c-2.191 0-4.063.438-4.063 2.631 0 1.714 1.274 2.389 2.829 2.789l4.661 1.274c4.503 1.195 6.854 3.865 6.854 8.685 0 6.7-4.822 9.21-11.516 9.21h-1.555c-2.35 0-6.256-.64-8.407-1.4"/><path d="m14.581 92.57h-8.089v-5.898h23.03v5.898h-8.089v23.99h-6.854z"/><path d="m71.946 101.93c3.746 0 5.301-1.23 5.301-4.976s-1.555-4.384-5.301-4.384h-2.79v9.36zm-9.644-15.257h10.919c6.813 0 11.197 2.191 11.197 9.962 0 4.785-2.351 7.175-4.821 8.725 3.108 2.47 6.416 8.97 6.694 10.88v.32h-7.491c-.479-1.71-2.95-7.33-5.46-8.89h-4.184v8.89h-6.854z"/><path d="m88.69 86.67h6.855v29.888h-6.855z"/><path d="m99.42 108.47v-21.797h19.325v5.897h-12.47v5.938h11.2v5.902h-11.2v2.82c0 2.47.64 3.43 3.11 3.43h9.96v5.9h-12.43c-4.98 0-7.495-3.11-7.495-8.09"/><path d="m122.01 115.48v-5.78h.32c1.71.52 5.42 1.24 8.09 1.24h1.55c2.48 0 4.35-.76 4.35-3.27 0-1.87-1.64-2.63-3.43-3.11l-4.66-1.23c-3.43-.88-6.22-3.27-6.22-8.408 0-6.06 4.98-8.568 11.04-8.568h1.55c1.88 0 5.62.478 7.34 1.115v5.74h-.32c-1.56-.44-5.3-.918-7.02-.918h-1.39c-2.19 0-4.07.438-4.07 2.631 0 1.714 1.28 2.389 2.83 2.789l4.67 1.274c4.5 1.195 6.85 3.865 6.85 8.685 0 6.7-4.82 9.21-11.52 9.21h-1.55c-2.35 0-6.26-.64-8.41-1.4"/></g></svg>