<svg xmlns="http://www.w3.org/2000/svg" height="106.74" viewBox="0 0 600 106.73735"><g stroke-width="5.66" fill="#fff"><path d="m100.33 11.275h-2.151l.804-6.594h2.177c2.32.023 3.56 1.149 3.56 3.074 0 1.777-1.23 3.51-4.38 3.521m4.98 3.413c3.25-.871 4.77-3.735 4.75-6.781 0-3.226-1.94-7.891-7.78-7.896h-7.914l-3.187 26h5.19l1.246-10.359h.849c2.276.017 2.656.414 4.616 5.05l2.19 5.298h5.72l-3.58-8.422c-.57-1.291-1.08-2.265-2.11-2.904m82.11-14.678l-.02.17-1.92 15.51c-.53 4.2-2.98 5.513-5.45 5.53-1.77-.028-4.9-.713-4.92-5.128 0-.431.03-.884.1-1.37l1.84-14.717h-5.19l-1.87 14.739c-.08.702-.13 1.393-.13 2.061.001 5.502 3.2 9.537 10.19 9.543h.07c4.31 0 9.49-1.794 10.49-10.166l2.01-16.177h-5.19zm-27.31 26h5.2l3.22-26h-5.19zm-8.29-26l-.06.113-7.35 15.583-3.54-15.697h-5.56l-6.56 22.908.17-1.359.02-.226h-11.69l.77-6.328h8.17l.57-4.676h-8.16l.71-5.66h9.28l.59-4.664h-14.48l-3.22 26h21.62l4.95-17.321 3.85 17.321h2.58l8.12-16.846.67 16.846h5.02l-1.07-26h-5.41zm-70.06 11.944h-1.788l.905-7.495h.985c3 .023 4.178 1.545 4.189 3.594-.011 2.173-1.189 3.871-4.291 3.894m2.02-11.932h-7.545l-3.187 26h5.197l1.188-9.645h3.623c3.917-.012 8.349-2.01 8.36-8.548-.017-5.207-3.526-7.811-7.641-7.811m136.46 0h-5.4l-7.42 15.696-3.53-15.696h-5.56l-7.46 26h5.24l4.95-17.321 3.86 17.321h2.56l8.13-16.834.68 16.834h5.02l-1.08-26z"/><path d="m90.75 104.94h-17.547v-71.32h17.547z"/><path d="m118.85 70.5v34.435h-17.55v-73.21l43.05 36.24v-34.35h17.55v73.12l-43.04-36.24z"/><path d="m223.13 104.94h-32.92c-12.19 0-18.25-8.03-18.25-19.729v-51.594h49.78v15.317h-32.22l.001 12.26h29.24v15.334h-29.26l.001 5.808c-.04 5.434 1.57 7.188 6.45 7.188h27.16z"/><path d="m266.6 90.74l17.58-18v32.2h17.47v-73.21l-35.05 35.36-35.06-35.36v73.21h17.47v-32.2l17.58 18z"/><path d="m332.16 76.42c2.61-9.34 5.62-19.16 8.8-28.12 3.19 8.96 6.21 18.781 8.81 28.11h-17.61zm24.6 28.525h19.4c-3.94-17.408-13.65-50.77-23.2-71.33h-22.9c-9.57 20.564-19.26 53.921-23.2 71.32h18.31c.73-3.56 1.68-7.883 2.82-12.7h25.95c1.14 4.811 2.1 9.14 2.82 12.71"/><path d="m0 69.21c0 20.463 15.792 37.21 37.981 37.21 12.385 0 22.444-5.31 29.412-12.865l-10.625-12.34c-4.274 4.811-10.755 9.08-18.792 9.08-10.789 0-19.699-8.57-19.699-21.07 0-12.51 8.91-21.08 19.699-21.08 8.04 0 14.518 4.257 18.792 9.07l10.619-12.339c-6.962-7.546-17.03-12.861-29.406-12.861-22.19 0-37.981 16.744-37.981 37.21"/><path d="m421 54.41c0-5.677-2.8-9.198-8.38-9.198-5.69 0-8.49 3.249-8.49 9.198h-15.49c0-14.434 10.19-22.54 24.62-22.54 14.01 0 23.07 8.321 23.25 22.13v.114c-.15 10.245-4.81 14.943-13.61 20.988l-11.88 7.342c-3.26 2.162-5.69 4.596-5.69 8.473v.64h31.19v13.428h-47.93v-10.547c0-9.198 3.15-14.519 12.62-21.19l12.76-9c2.43-1.63 7.03-4.958 7.03-9.832"/><path d="m457.35 33.583l-9.1 71.34h142.65l9.1-71.34zm15.7 3.843h13.78l-3.08 24.34h26.15l3.08-24.34h13.77l-8.04 63.48h-13.78l3.25-25.07h-26.22l-3.17 25.07h-13.77zm59.89 0h19.3c5.64 0 10.42.978 14.21 2.909 3.77 1.924 6.83 4.426 9.11 7.449 2.25 3 3.88 6.398 4.82 10.05.94 3.605 1.42 7.148 1.42 10.527 0 4.653-.69 9.02-2.04 12.984v.006c-1.36 3.974-3.28 7.444-5.7 10.33-2.44 2.887-5.34 5.175-8.64 6.793-3.32 1.627-6.93 2.447-10.75 2.447l-29.69-.001zm12.23 12.284l-4.87 38.943h9.91c3.05 0 5.71-.595 7.89-1.744s3.99-2.688 5.38-4.584c1.42-1.896 2.47-4.104 3.13-6.566.67-2.491 1.01-5.04 1.01-7.575 0-2.575-.38-5.02-1.16-7.3-.75-2.219-1.89-4.178-3.36-5.831v.004c-1.46-1.624-3.32-2.942-5.51-3.904s-4.75-1.443-7.63-1.443z"/></g></svg>