<svg xmlns="http://www.w3.org/2000/svg" height="460.64" width="600" viewBox="0 0 158.75 121.87848"><defs><linearGradient id="0" gradientUnits="userSpaceOnUse" gradientTransform="matrix(-1220.3-3755.7-21354 6938.4 13940 177.17)" x1=".709" x2="1"><stop stop-color="#f8af22"/><stop stop-color="#d97a22" offset="1"/></linearGradient><linearGradient id="1" gradientUnits="userSpaceOnUse" gradientTransform="matrix(-1139.7-3131.2-18850 6861 12242-408.61)" x1=".973" x2="1"><stop stop-color="#f08722"/><stop stop-color="#f08722" offset="1"/></linearGradient><linearGradient id="2" gradientUnits="userSpaceOnUse" x2=".769" gradientTransform="matrix(-1139.7-3131.2-18850 6861 12242-408.61)" x1="0"><stop stop-color="#fff"/><stop stop-color="#fff" offset="1"/></linearGradient></defs><path d="m33.25 0c.819 0 1.589.124 2.318.372.733.248 1.367.623 1.908 1.134.541.507.974 1.139 1.293 1.894s.481 1.641.481 2.656c0 1.27-.196 2.333-.586 3.189-.391.853-.902 1.537-1.533 2.044-.631.504-1.338.864-2.123 1.071-.781.21-1.563.316-2.344.316h-3.066l-.962 7.664h-3.866l2.533-20.34zm-3.25 9.482h1.623c1.281 0 2.205-.315 2.773-.954.571-.635.856-1.401.856-2.296 0-.856-.281-1.57-.841-2.149-.56-.574-1.465-.864-2.705-.864h-.936z"/><path d="m48.14 0c1.157 0 2.126.199 2.908.597.778.394 1.413.902 1.89 1.518.481.616.822 1.281 1.029 1.987.203.703.304 1.375.304 2.01 0 .616-.078 1.214-.24 1.788-.158.579-.406 1.109-.744 1.582-.338.477-.759.887-1.266 1.221-.507.342-1.108.579-1.803.718v.06c.499.24.883.552 1.149.939.267.387.523.872.77 1.447l2.803 6.473h-4.268l-1.732-4.118c-.39-.913-.725-1.642-.999-2.19-.278-.549-.545-.958-.815-1.236-.263-.282-.556-.466-.864-.552-.312-.091-.707-.136-1.188-.136h-.826l-1.015 8.232h-3.862l2.533-20.34zm-3.494 8.949h1.92c.657 0 1.217-.087 1.683-.256.462-.169.842-.391 1.146-.672.3-.278.522-.59.665-.94.143-.345.214-.71.214-1.085 0-.816-.267-1.454-.8-1.913-.534-.454-1.281-.683-2.239-.683h-1.894z"/><path d="m69.787 3.4h-7.491l-.612 4.802h6.586l-.429 3.4h-6.586l-.665 5.338h9.438l-.425 3.4h-13.307l2.563-20.34h11.357z"/><path d="m94.59 20.34h-3.731l-.56-13.75h-.052l-6.748 13.75h-1.837l-3.201-14.13h-.052l-4.107 14.13h-3.892l5.917-20.34h4.238l2.934 12.796 6.132-12.796h4.106z"/><path d="m99.93 20.34h-3.866l2.562-20.34h3.868z"/><path d="m119.98 12.676c-.21 1.65-.6 2.991-1.17 4.02-.57 1.037-1.25 1.841-2.03 2.419-.78.575-1.62.97-2.53 1.176-.91.211-1.79.312-2.64.312-1.56 0-2.89-.225-3.97-.684-1.09-.454-1.95-1.093-2.59-1.908s-1.07-1.777-1.29-2.878c-.22-1.105-.25-2.292-.1-3.565l1.5-11.572h3.87l-1.47 11.512c-.15 1.153-.09 2.077.16 2.776.25.691.59 1.232 1.03 1.608.45.379.94.631 1.47.763.54.127 1 .191 1.39.191.51 0 1.02-.075 1.52-.225.5-.147.96-.402 1.37-.759.42-.357.78-.823 1.07-1.401.29-.575.49-1.293.6-2.149l1.55-12.316h3.86z"/><path d="m144.11 20.34h-3.73l-.56-13.75h-.06l-6.74 13.75h-1.84l-3.2-14.13h-.05l-4.11 14.13h-3.89l5.92-20.34h4.24l2.93 12.796 6.13-12.796h4.1z"/><path stroke-width="3.757" fill="#fab01c" d="m82.34 31.908c-4.682.383-9.118 1.435-13.24 3.148-5.293 2.191-10.192 5.519-14.566 9.896-4.376 4.366-7.701 9.269-9.895 14.57-.395.943-.748 1.897-1.071 2.87v-29.402h-29.62v51.35c-.007 1.086-.188 1.999-.56 2.878l-.026.064-.03.056c-.406.892-.947 1.612-1.758 2.345l-.019.018-.019.015c-.849.752-1.698 1.286-2.671 1.666l-.034.001-.026.001c-1 .37-2.01.55-3.201.55h-5.602v28.682h5.549c5.174 0 10.06-.94 14.528-2.78s8.604-4.64 12.308-8.31c3.697-3.67 6.518-7.8 8.374-12.262 1.041-2.49 1.796-5.11 2.258-7.847.451 1.597.988 3.157 1.623 4.677 2.191 5.29 5.516 10.192 9.896 14.572 4.362 4.37 9.265 7.69 14.57 9.89 5.282 2.2 11.09 3.31 17.248 3.31h.067c6.162 0 11.971-1.12 17.259-3.31 5.31-2.2 10.21-5.52 14.57-9.9 4.37-4.37 7.71-9.271 9.9-14.572.33-.8.64-1.62.92-2.45 3.23 24.552 29.43 28.982 29.43 28.982v-59.891c-.37.432-.75.86-1.17 1.285-1.92 1.938-4.03 3.216-6.36 4.193-2.33.961-4.81 1.487-7.6 1.487-2.71 0-5.05-.443-7.37-1.412-2.31-.97-4.2-1.868-6.12-3.896-.78-.819-1.37-1.909-1.59-2.559v.045c-.05-.124-.09-.244-.14-.36-2.19-5.298-5.52-10.2-9.9-14.574-4.37-4.373-9.27-7.705-14.57-9.895-4.121-1.71-8.556-2.762-13.235-3.145zm61.02.214c-2.13.008-4.05.372-5.85 1.112-1.83.755-3.46 1.852-4.99 3.363-1.55 1.521-2.66 3.144-3.42 4.959-.76 1.837-1.13 3.783-1.13 5.962.001 2.142.38 4.058 1.12 5.861.77 1.833 1.89 3.46 3.42 4.997 1.55 1.548 3.18 2.663 4.99 3.422 1.82.759 3.74 1.127 5.87 1.131 2.19-.004 4.13-.372 5.96-1.127 1.83-.763 3.45-1.875 4.96-3.396 1.52-1.556 2.62-3.182 3.37-4.989.63-1.556.99-3.171 1.09-4.922v-1.954c-.1-1.799-.45-3.433-1.08-4.978-.77-1.844-1.86-3.456-3.36-4.963-1.51-1.506-3.13-2.603-4.95-3.354-1.85-.752-3.79-1.116-5.98-1.124h-.001zm-56.98 29.29h.019c2.183.007 4.129.368 5.981 1.119 1.822.755 3.438 1.849 4.952 3.355 1.495 1.507 2.588 3.122 3.358 4.963.74 1.83 1.1 3.776 1.1 5.974 0 2.126-.36 4.04-1.11 5.879-.756 1.811-1.853 3.434-3.375 4.989-1.51 1.522-3.129 2.634-4.955 3.401-1.826.75-3.776 1.12-5.966 1.12-2.127 0-4.04-.37-5.865-1.12-1.811-.763-3.441-1.879-4.989-3.431-1.532-1.532-2.648-3.163-3.418-4.993-.752-1.807-1.116-3.719-1.124-5.86.004-2.179.372-4.129 1.134-5.963.756-1.822 1.868-3.437 3.408-4.959 1.541-1.51 3.167-2.611 4.993-3.362 1.811-.744 3.723-1.105 5.857-1.112"/><path d="m128.36 51.06c.17.797.42 1.567.73 2.322.77 1.833 1.89 3.46 3.42 4.997 1.55 1.548 3.18 2.663 4.99 3.422 1.82.759 3.74 1.127 5.87 1.131 2.19-.004 4.13-.372 5.96-1.127 1.83-.763 3.45-1.875 4.96-3.396 1.52-1.556 2.62-3.182 3.37-4.989.63-1.556.99-3.168 1.09-4.922v-1.954c-.1-1.799-.45-3.43-1.08-4.978-.05-.127-.11-.248-.16-.368-6.65 2.202-17.89 5.963-29.15 9.862m-29.661 10.862c-1.337.612-2.675 1.217-4.02 1.814.928.594 1.807 1.308 2.653 2.149 1.495 1.507 2.588 3.122 3.358 4.963.74 1.83 1.1 3.776 1.1 5.974 0 2.126-.36 4.04-1.11 5.879-.756 1.811-1.853 3.434-3.375 4.99-1.51 1.521-3.129 2.633-4.955 3.4-1.826.75-3.776 1.12-5.966 1.12-2.127 0-4.04-.37-5.865-1.12-1.811-.763-3.441-1.879-4.989-3.431-1.533-1.532-2.648-3.163-3.419-4.993-.751-1.807-1.115-3.719-1.123-5.86.004-1.27.128-2.461.383-3.596-21.279 7.924-41.03 13.484-53.23 16.388-2.832.905-6.04 1.482-9.392 1.822-.984.36-1.984.53-3.152.53h-5.602v28.682h5.549c5.174 0 10.06-.94 14.528-2.78s8.604-4.64 12.308-8.31c3.697-3.67 6.518-7.8 8.374-12.262 1.041-2.49 1.796-5.11 2.258-7.847.451 1.597.988 3.157 1.623 4.677 2.191 5.29 5.516 10.192 9.896 14.572 4.362 4.37 9.265 7.69 14.57 9.89 5.282 2.2 11.09 3.31 17.248 3.31h.067c6.162 0 11.97-1.12 17.259-3.31 5.31-2.2 10.21-5.52 14.57-9.9 4.37-4.37 7.71-9.272 9.9-14.572.33-.8.64-1.62.92-2.45 3.23 24.552 29.43 28.982 29.43 28.982v-59.891c-.37.432-.75.86-1.17 1.285-1.92 1.938-4.03 3.216-6.36 4.193-2.33.961-4.81 1.487-7.6 1.487-2.71 0-5.05-.443-7.37-1.412-2.31-.97-4.2-1.868-6.12-3.896-.78-.819-1.37-1.909-1.59-2.559v.045c-.05-.124-.09-.244-.14-.36-1.02-2.454-2.28-4.817-3.77-7.086-10.1 3.528-19.77 7.03-25.681 9.483" fill="url(#2)"/><path d="m157.51 41.2c-6.65 2.202-17.89 5.963-29.15 9.862.17.797.42 1.567.73 2.322.77 1.833 1.89 3.46 3.42 4.997 1.55 1.548 3.18 2.663 4.99 3.422 1.82.759 3.74 1.127 5.87 1.131 2.19-.004 4.13-.372 5.96-1.127 1.83-.763 3.45-1.875 4.96-3.396 1.52-1.556 2.62-3.182 3.37-4.989.63-1.556.99-3.168 1.09-4.922v-1.954c-.1-1.799-.45-3.43-1.08-4.978-.05-.127-.11-.248-.16-.368m-33.13 11.241c-10.1 3.528-19.77 7.03-25.681 9.483-1.337.612-2.675 1.217-4.02 1.814.928.594 1.807 1.308 2.653 2.149 1.495 1.507 2.588 3.122 3.358 4.963.74 1.83 1.1 3.776 1.1 5.974 0 2.126-.36 4.04-1.11 5.879-.756 1.811-1.853 3.434-3.375 4.989-1.51 1.522-3.129 2.634-4.955 3.401-1.826.75-3.776 1.12-5.966 1.12-2.127 0-4.04-.37-5.865-1.12-1.811-.763-3.441-1.879-4.989-3.431-1.532-1.532-2.648-3.163-3.418-4.993-.752-1.807-1.116-3.719-1.124-5.86.004-1.27.128-2.461.384-3.596-21.28 7.924-41.03 13.484-53.23 16.388-2.832.905-6.04 1.483-9.392 1.823-.984.36-1.984.529-3.152.529h-5.602v28.682h5.549c5.174 0 10.06-.94 14.528-2.78s8.604-4.64 12.308-8.31c3.697-3.67 6.518-7.8 8.374-12.262 1.041-2.49 1.796-5.11 2.258-7.847.451 1.597.988 3.157 1.623 4.677 2.191 5.29 5.516 10.192 9.896 14.572 4.362 4.37 9.265 7.69 14.571 9.89 5.281 2.2 11.09 3.31 17.247 3.31h.067c6.162 0 11.971-1.12 17.259-3.31 5.31-2.2 10.21-5.52 14.57-9.9 4.37-4.37 7.71-9.271 9.9-14.572.33-.8.64-1.62.92-2.45 3.23 24.552 29.43 28.982 29.43 28.982v-59.891c-.37.432-.75.86-1.17 1.285-1.92 1.938-4.03 3.216-6.36 4.193-2.33.961-4.81 1.487-7.6 1.487-2.71 0-5.05-.443-7.37-1.412-2.31-.97-4.2-1.868-6.12-3.896-.78-.819-1.37-1.909-1.59-2.559v.045c-.05-.124-.09-.244-.14-.36-1.02-2.454-2.28-4.817-3.77-7.086" fill="url(#1)"/><path d="m157.79 41.871c-9.54 3.382-17.46 6.117-28.97 10.787.08.24.18.484.27.721.77 1.833 1.89 3.46 3.42 4.997 1.55 1.548 3.18 2.663 4.99 3.422 1.82.759 3.74 1.127 5.87 1.131 2.19-.004 4.13-.372 5.96-1.127 1.83-.763 3.45-1.875 4.96-3.396 1.52-1.556 2.62-3.182 3.37-4.989.63-1.556.99-3.168 1.09-4.922v-1.95c-.09-1.679-.41-3.22-.96-4.674m-32.39 12.192c-7.7 3.227-17.56 8.03-27.411 12.518 1.161 1.304 2.051 2.705 2.701 4.264.74 1.83 1.1 3.776 1.1 5.974 0 2.126-.36 4.04-1.11 5.879-.756 1.811-1.853 3.434-3.375 4.989-1.51 1.522-3.129 2.634-4.955 3.401-1.826.75-3.776 1.12-5.966 1.12-2.127 0-4.04-.37-5.865-1.12-1.811-.763-3.441-1.879-4.989-3.431-1.532-1.532-2.648-3.163-3.418-4.993-.714-1.716-1.079-3.527-1.12-5.534-17.857 5.486-55.683 16.14-70.993 14.829v28.671h5.55c5.175 0 10.06-.94 14.528-2.78 4.467-1.84 8.605-4.64 12.309-8.31 3.697-3.67 6.518-7.8 8.374-12.262 1.041-2.49 1.796-5.11 2.258-7.847.451 1.597.988 3.157 1.623 4.677 2.191 5.29 5.516 10.192 9.896 14.572 4.362 4.37 9.265 7.69 14.57 9.89 5.282 2.2 11.09 3.31 17.248 3.31h.067c6.162 0 11.97-1.12 17.259-3.31 5.31-2.2 10.21-5.52 14.57-9.9 4.37-4.37 7.71-9.271 9.9-14.572.33-.8.64-1.62.92-2.45 3.23 24.552 29.43 28.982 29.43 28.982v-59.891c-.37.432-.75.86-1.17 1.285-1.92 1.938-4.03 3.216-6.36 4.193-2.33.961-4.81 1.487-7.6 1.487-2.71 0-5.05-.443-7.37-1.412-2.31-.97-4.2-1.868-6.12-3.896-.78-.819-1.37-1.909-1.6-2.559 0 0 .001.011.001.045-.05-.124-.1-.244-.14-.36-.78-1.871-1.7-3.693-2.75-5.459" fill="url(#0)"/></svg>