<svg xmlns="http://www.w3.org/2000/svg" height="136.87" viewBox="0 0 600 136.86866"><g stroke-width="7.263"><path d="m573.51 105.03c1.77-5.03 2.67-10.589 2.67-16.5 0-4.285-.63-8.788-1.85-13.378-1.25-4.633-3.37-8.933-6.31-12.753-2.98-3.849-6.99-7.05-11.94-9.47-4.93-2.455-11.18-3.704-18.57-3.704h-25.26l-10.42 80.68h38.85c5.01 0 9.73-1.04 14.07-3.11 4.32-2.05 8.12-4.94 11.31-8.61 3.17-3.68 5.66-8.09 7.45-13.14m-79.85 24.84l10.5-80.65h-18.01l-4.04 30.938h-34.22l4.04-30.938h-18.03l-10.51 80.65h18.01l4.14-31.829h34.32l-4.25 31.839h18.04zm106.34-85.55l-11.91 90.66h-186.65l11.91-90.65h186.65zm-48.27 27.307c1.91 2.077 3.41 4.575 4.39 7.393 1.02 2.876 1.52 6.01 1.52 9.274 0 3.218-.43 6.464-1.33 9.631-.87 3.125-2.24 5.925-4.09 8.355-1.82 2.39-4.18 4.35-7.03 5.81-2.85 1.45-6.34 2.2-10.33 2.2h-12.97l6.37-49.46h6.27c3.77 0 7.12.618 9.98 1.83 2.86 1.235 5.29 2.905 7.21 4.968"/><path d="m108.2 14.583h-2.8l1.05-8.527h2.8c2.99.022 4.6 1.482 4.61 3.973 0 2.295-1.6 4.525-5.66 4.554m6.43 4.415c4.21-1.125 6.17-4.822 6.16-8.773 0-4.168-2.52-10.204-10.08-10.218h-10.24l-4.118 33.647h6.718l1.62-13.414h1.09c2.95.036 3.43.545 5.97 6.551l2.85 6.863h7.4l-4.65-10.894c-.72-1.67-1.37-2.934-2.73-3.762m106.23-18.991l-.03.218-2.49 20.07c-.69 5.447-3.85 7.139-7.04 7.161-2.3-.029-6.35-.922-6.37-6.638 0-.552.04-1.133.12-1.757l2.38-19.05h-6.71l-2.42 19.07c-.11.915-.18 1.802-.18 2.673.03 7.117 4.14 12.332 13.18 12.346h.11c5.57 0 12.26-2.324 13.57-13.145l2.59-20.938h-6.71zm-35.34 33.647h6.73l4.16-33.647h-6.71zm-10.72-33.647l-.08.145-9.51 20.17-4.57-20.313h-7.21l-8.48 29.631.22-1.743.02-.291h-15.12l1.01-8.185h10.56l.74-6.06h-10.56l.92-7.306h12l.76-6.05h-18.74l-4.16 33.647h27.96l6.42-22.412 4.99 22.412h3.31l10.53-21.788.88 21.788h6.5l-1.4-33.647zm-90.64 15.447h-2.31l1.162-9.695h1.279c3.885.029 5.403 1.997 5.425 4.648-.022 2.81-1.547 5.01-5.556 5.04m2.614-15.447h-9.768l-4.118 33.647h6.718l1.54-12.492h4.684c5.069 0 10.8-2.585 10.821-11.04-.021-6.739-4.561-10.1-9.877-10.116m176.54 0h-6.98l-9.59 20.313-4.58-20.313h-7.2l-9.64 33.647h6.78l6.4-22.412 5 22.412h3.31l10.53-21.788.86 21.788h6.5l-1.39-33.647z"/><path d="m211.37 109.79c-4.77 4.96-11.36 7.82-18.55 7.82-7.2 0-13.8-2.86-18.57-7.82-4.77-4.93-7.73-11.979-7.73-20.258s2.97-15.31 7.74-20.263c4.78-4.938 11.36-7.814 18.56-7.814s13.8 2.876 18.56 7.822c4.77 4.953 7.73 11.983 7.73 20.262s-2.96 15.301-7.73 20.251m-18.55-67.6c-28.28.015-48.32 21.28-48.34 47.35.02 26.05 20.06 47.31 48.34 47.33 28.29-.02 48.34-21.28 48.36-47.34-.02-26.06-20.07-47.32-48.35-47.35"/><path d="m.007 131.73v-17.53h.966c5.2 1.57 16.443 3.75 24.547 3.75h4.699c7.495 0 13.175-2.3 13.175-9.91 0-5.68-4.954-7.98-10.386-9.43l-14.15-3.747c-10.4-2.659-18.861-9.914-18.861-25.492 0-18.374 15.11-26 33.48-26h4.721c5.665 0 17.04 1.453 22.22 3.392v17.394h-.959c-4.706-1.322-16.07-2.76-21.264-2.76h-4.234c-6.653 0-12.332 1.322-12.332 7.967 0 5.2 3.871 7.248 8.57 8.461l14.162 3.863c13.653 3.632 20.771 11.729 20.771 26.352 0 20.3-14.62 27.91-34.933 27.91h-4.699c-7.132 0-18.977-1.93-25.506-4.22"/><path d="m101.66 94.38c11.36 0 16.07-3.747 16.07-17.05 0-12.201-4.72-15.11-16.07-15.11h-8.46v32.15zm-29.25-50.04h33.12c20.66 0 33.95 9.427 33.95 32.994 0 25.502-16.06 34.932-35.89 34.932h-10.383v22.73h-20.792v-90.67z"/><path d="m277.41 90.64c11.35 0 16.06-3.748 16.06-15.11 0-11.366-4.72-13.291-16.07-13.291h-8.48v28.397h8.47zm-29.26-46.29h33.12c20.68 0 33.97 6.646 33.97 30.21 0 14.503-7.13 21.758-14.62 26.473 9.42 7.49 19.45 27.19 20.3 32.99v.97h-22.74c-1.43-5.19-8.93-22.24-16.55-26.95h-12.68v26.95h-20.79v-90.64z"/><path d="m343.65 62.23h-24.55v-17.888h69.87v17.888h-24.55v72.76h-20.77z"/></g></svg>