<svg xmlns="http://www.w3.org/2000/svg" height="127.3" width="600" viewBox="0 0 158.75 33.68256"><g transform="translate(44.12-108.32)" fill="#fff"><path d="m21.696 108.32h-1.605l-2.205 4.92-1.053-4.92h-1.654l-2.215 8.15h1.558l1.472-5.43 1.147 5.43h.763l2.418-5.28.199 5.28h1.494z"/><path d="m-21.13 108.32l-.948 8.15h1.545l.353-3.03h1.077c1.166 0 2.483-.62 2.486-2.67-.003-1.64-1.046-2.45-2.269-2.45zm1.381 1.39h.294c.892.001 1.241.48 1.246 1.13-.005.68-.357 1.21-1.277 1.22h-.532z"/><path d="m1.351 108.32l-.016.03-2.187 4.89-1.054-4.92h-1.655l-1.95 7.18.051-.43.007-.07h-3.477l.231-1.98h2.426l.172-1.47h-2.427l.211-1.77h2.76l.175-1.46h-4.306l-.958 8.15h6.429l1.474-5.43 1.147 5.43h.763l2.418-5.28.201 5.28h1.494l-.32-8.15z"/><path d="m3.815 116.47h1.546l.957-8.15h-1.543z"/><path d="m11.94 108.32l-.008.05-.571 4.86c-.157 1.32-.886 1.73-1.621 1.74-.528-.001-1.458-.23-1.462-1.61 0-.14.008-.28.027-.43l.547-4.61h-1.542l-.558 4.62c-.026.22-.041.43-.041.64.004 1.73.953 2.99 3.03 2.99h.026c1.277 0 2.82-.56 3.119-3.18l.597-5.07z"/><path d="m-15.732 108.32l-.949 8.15h1.547l.371-3.25h.252c.677.001.789.13 1.37 1.59l.655 1.66h1.701l-1.068-2.64c-.167-.41-.318-.71-.626-.91.968-.28 1.42-1.17 1.417-2.13-.002-1.01-.58-2.47-2.318-2.47zm1.372 1.46h.646c.686.001 1.056.36 1.06.96-.004.56-.366 1.1-1.307 1.11h-.641z"/><path d="m-32.971 142h-.019c-3.066 0-5.891-1.22-7.953-3.43-2.049-2.18-3.176-5.14-3.174-8.34v-.06c-.002-3.2 1.121-6.17 3.16-8.36 2.085-2.24 4.975-3.48 8.139-3.48 1.936 0 3.584.32 5.04.98 1.251.57 2.394 1.4 3.499 2.55l.344.36-3.561 4.32-.39-.37c-1.731-1.64-3.164-2.31-4.945-2.32-1.545 0-2.905.63-3.935 1.81-1.01 1.17-1.561 2.75-1.561 4.44v.07c0 1.71.548 3.3 1.541 4.47 1.029 1.2 2.394 1.84 3.948 1.84 1.065 0 1.919-.19 2.774-.63.706-.37 1.422-.91 2.327-1.78l.364-.35 3.594 3.83-.337.38c-1.221 1.38-2.398 2.32-3.704 2.97-1.485.74-3.17 1.1-5.152 1.1"/><path d="m-16.809 141.18h-5.22v-22.33h5.22z"/><path d="m4.44 141.68h-.084l-12.154-10.63-.563-.44v10.57h-5.221v-22.83h.054l12.179 11.12.569.48v-11.1h5.22z"/><path d="m22.56 141.18h-9.79c-1.746 0-3.144-.58-4.066-1.67-.904-1.07-1.362-2.58-1.362-4.49v-16.17h14.804v4.8h-9.583v3.85h8.7v4.8h-8.7v1.82c-.005.88.125 1.48.389 1.78.252.32.728.48 1.53.48h8.08z"/><path d="m55.05 118.85l-.066.13c-.426.86-1.156 2.75-2 5.19-.873 2.52-1.72 5.21-2.324 7.38l-.303 1.08c-.698 2.47-1.299 4.61-2.077 8.02l-.125.53h5.293l.041-.19c.131-.64.289-1.16.456-1.71.162-.54.33-1.09.509-1.85l.067-.28h6.81l.063.29c.175.78.339 1.36.498 1.91.151.53.294 1.03.421 1.64l.039.19h5.727c-.773-3.39-1.49-6.05-2.183-8.52l-.312-1.11c-.612-2.19-1.46-4.88-2.328-7.38-.868-2.49-1.587-4.33-2.028-5.19l-.067-.13zm2.971 4.86l.333 1.07c.469 1.5 1.33 4.56 1.958 7.07l.115.47h-4.913l.125-.47c.647-2.45 1.538-5.47 2.046-7.08z"/><path d="m41.16 141.27v-10.3l-5.167 5.79-5.229-5.79v10.3h-5.149v-22.87l10.378 10.8 10.378-10.8v22.87z"/><path d="m72.27 118.85l-2.701 22.33h42.36l2.7-22.33zm4.665 1.21h4.09l-.916 7.62h7.764l.916-7.62h4.09l-2.387 19.87h-4.093l.964-7.85h-7.785l-.94 7.85h-4.091zm17.78 0h5.731c1.68 0 3.1.3 4.22.91 1.12.6 2.03 1.38 2.7 2.33.67.94 1.16 2 1.44 3.14.28 1.13.42 2.24.42 3.3 0 1.45-.21 2.82-.61 4.06-.4 1.25-.97 2.33-1.69 3.24-.72.9-1.59 1.62-2.57 2.12-.98.51-2.05.77-3.19.77h-8.815zm3.632 3.84l-1.445 12.19h2.941c.913 0 1.703-.19 2.343-.55.65-.36 1.19-.84 1.6-1.43.42-.6.73-1.29.93-2.06.2-.78.3-1.57.3-2.37s-.12-1.57-.35-2.28c-.22-.7-.56-1.31-.99-1.83-.44-.51-.99-.92-1.64-1.22s-1.41-.45-2.265-.45z"/></g></svg>