<svg xmlns="http://www.w3.org/2000/svg" height="170.24" width="600" viewBox="0 0 158.75 45.04321"><g transform="translate(-4.702-146.41)" fill="#fff"><path d="m97.65 146.41h-2.28l-3.128 6.62-1.495-6.62h-2.346l-3.144 10.97h2.211l2.089-7.31 1.631 7.31h1.08l3.432-7.1.283 7.1h2.119zm-57.59 0h-3.184l-1.344 10.97h2.191l.502-4.07h1.529c1.654-.001 3.524-.85 3.528-3.61-.004-2.19-1.486-3.29-3.222-3.29m-.849 5.04h-.755l.382-3.17.415.001c1.266 0 1.761.65 1.769 1.51-.008.92-.505 1.64-1.811 1.65m29.565-5.04l-.022.05-3.103 6.57-1.498-6.62h-2.347l-2.767 9.66.071-.57.009-.09h-4.934l.329-2.67h3.443l.244-1.98h-3.446l.301-2.38h3.917l.246-1.97h-6.109l-1.36 10.97h9.124l2.09-7.31 1.629 7.31h1.082l3.431-7.11.284 7.11h2.12l-.454-10.97zm3.497 10.97h2.194l1.36-10.97h-2.193zm11.53-10.97l-.001.07-.81 6.54c-.224 1.78-1.257 2.33-2.301 2.34-.748-.001-2.071-.3-2.076-2.17 0-.18.013-.37.04-.57l.776-6.21h-2.188l-.792 6.22c-.036.3-.056.59-.056.87.004 2.32 1.35 4.02 4.296 4.02h.038c1.812 0 3.999-.75 4.427-4.28l.844-6.83zm-34.654 6.19c1.374-.37 2.02-1.57 2.01-2.86-.003-1.36-.824-3.33-3.289-3.33h-3.337l-1.347 10.97h2.193l.53-4.37h.356c.962.001 1.118.17 1.946 2.13l.927 2.24h2.415l-1.517-3.55c-.234-.55-.449-.96-.888-1.23m-2.102-1.44h-.909l.343-2.78h.917c.973.001 1.498.48 1.502 1.3-.004.74-.519 1.47-1.853 1.48"/><path d="m43 190.69h-7.408v-30.1h7.408z"/><path d="m54.86 176.16v14.53h-7.407v-30.9l18.16 15.29v-14.49h7.41v30.86z"/><path d="m98.87 190.69h-13.893c-5.147 0-7.705-3.39-7.704-8.33v-21.77h21.01v6.47h-13.599v5.17h12.346v6.47h-12.346v2.45c-.015 2.3.668 3.03 2.721 3.04h11.467z"/><path d="m117.22 184.7l7.42-7.6v13.59h7.37v-30.9l-14.79 14.93-14.8-14.93v30.9h7.38v-13.59z"/><path d="m155.27 190.69h8.18c-1.66-7.35-5.75-21.42-9.79-30.1h-9.67c-4.03 8.68-8.12 22.75-9.78 30.1h7.72c.31-1.51.71-3.33 1.19-5.36h10.96c.48 2.03.88 3.85 1.19 5.36m-10.38-12.04c1.09-3.94 2.37-8.08 3.71-11.87 1.35 3.79 2.62 7.93 3.72 11.87z"/><path d="m4.702 175.61c0 8.64 6.669 15.7 16.03 15.7 5.225 0 9.47-2.24 12.409-5.43l-4.483-5.2c-1.803 2.03-4.536 3.83-7.926 3.83-4.557 0-8.314-3.62-8.314-8.9s3.757-8.9 8.314-8.9c3.39 0 6.125 1.8 7.926 3.83l4.483-5.2c-2.939-3.19-7.184-5.43-12.409-5.43-9.363 0-16.03 7.06-16.03 15.7"/></g></svg>