<svg xmlns="http://www.w3.org/2000/svg" height="154.98" viewBox="0 0 600.00006 154.97612"><g fill="#fff"><path d="m140.43 16.504h-3.15l1.18-9.646h3.18c3.38.016 5.19 1.674 5.22 4.493-.03 2.597-1.81 5.12-6.43 5.153m7.28 5c4.76-1.269 6.99-5.473 6.97-9.933-.001-4.716-2.85-11.566-11.4-11.574h-11.57l-4.66 38.1h7.6l1.83-15.193h1.24c3.33.041 3.87.618 6.74 7.419l3.21 7.774h8.38l-5.26-12.349c-.82-1.88-1.57-3.306-3.08-4.246m120.11-21.507l-.05.256-2.8 22.72c-.77 6.15-4.36 8.08-7.97 8.095-2.6-.025-7.18-1.039-7.2-7.502 0-.634.04-1.294.14-2l2.69-21.565h-7.58l-2.75 21.59c-.12 1.039-.2 2.044-.2 3.034.02 8.05 4.69 13.956 14.9 13.973h.12c6.29 0 13.87-2.63 15.35-14.888l2.93-23.709zm-39.97 38.1h7.61l4.71-38.1h-7.6zm-12.12-38.1l-.07.173-10.76 22.827-5.19-23h-8.14l-9.59 33.568.25-1.995.03-.321h-17.09l1.13-9.266h11.93l.85-6.859h-11.94l1.04-8.269h13.57l.87-6.859h-21.19l-4.71 38.1h31.63l7.24-25.382 5.64 25.382h3.75l11.9-24.682.98 24.682h7.35l-1.57-38.1zm-102.47 17.493h-2.61l1.32-10.973 1.44.009c4.39.016 6.11 2.251 6.13 5.259-.02 3.19-1.75 5.672-6.28 5.705m2.95-17.493h-11.03l-4.67 38.1h7.6l1.74-14.14h5.3c5.73-.016 12.21-2.926 12.23-12.514-.02-7.625-5.16-11.442-11.17-11.45m199.59 0h-7.89l-10.85 23-5.18-23h-8.13l-10.9 38.1h7.66l7.25-25.382 5.64 25.382h3.76l11.88-24.665.98 24.665h7.35z"/><path d="m322.33 69.6c11.66 0 21.09 5.969 27.45 12.828l14.34-16.677c-10.02-10.594-24.27-17.972-41.79-17.972-31.98.025-54.64 24.1-54.66 53.605.02 29.52 22.68 53.58 54.66 53.6 17.52 0 31.77-7.37 41.79-17.95l-14.34-16.68c-6.36 6.86-15.79 12.83-27.45 12.83-8.14.001-15.58-3.25-20.98-8.85s-8.74-13.57-8.74-22.95c0-9.369 3.34-17.332 8.74-22.93 5.4-5.606 12.84-8.854 20.98-8.854"/><path d="m476.52 124.33c-5.39 5.6-12.83 8.85-20.97 8.85-8.141.0001-15.581-3.24-20.981-8.85-5.4-5.6-8.75-13.57-8.74-22.95-.0001-9.371 3.34-17.334 8.74-22.932 5.4-5.605 12.84-8.853 20.98-8.853 8.15 0 15.58 3.248 20.98 8.853 5.4 5.598 8.74 13.561 8.74 22.932 0 9.38-3.34 17.35-8.74 22.95m-20.98-76.56c-31.98.008-54.64 24.1-54.66 53.606.02 29.51 22.68 53.58 54.66 53.59 31.98-.0001 54.64-24.08 54.66-53.59-.02-29.502-22.68-53.598-54.66-53.606"/><path d="m54.664 69.6c11.648 0 21.09 5.969 27.443 12.828l14.353-16.677c-10.03-10.594-24.278-17.972-41.796-17.972-31.977.025-54.639 24.1-54.664 53.605.025 29.52 22.687 53.58 54.664 53.6 17.518 0 31.771-7.38 41.796-17.95l-14.353-16.68c-6.355 6.86-15.795 12.83-27.443 12.83-8.136.001-15.589-3.25-20.988-8.85-5.392-5.6-8.731-13.57-8.731-22.95 0-9.369 3.339-17.332 8.731-22.93 5.399-5.606 12.852-8.854 20.988-8.854"/><path d="m370.53 152.81h23.87v-102.67h-23.87z"/><path d="m224.2 129.53c-1.74-1.89-2.31-4.71-2.32-8.68 0-.08 0-.16.001-.24v-70.46h-23.88v74.71c.001.001.001.02 0 .04.001 8.38 2.19 15.36 6.44 20.21 4.26 4.85 10.64 7.69 19.37 7.7h47.23v-20.74h-38.82c-3.62-.001-6.29-.64-8.03-2.54"/><path d="m131.76 112.85l.32-1.15c3.81-13.692 8.23-28.11 12.9-41.26l.86-2.399.85 2.399c4.66 13.149 9.09 27.567 12.89 41.26l.32 1.15zm31.04-62.705h-32.35c-13.66 29.62-27.5 77.11-33.36 102.66h24.899c1.04-5.08 2.39-11.16 3.98-17.88l.16-.7h39.4l.17.7c1.59 6.72 2.93 12.8 3.98 17.88h26.49c-5.86-25.54-19.72-73.04-33.37-102.66"/><path d="m569.14 136.28h-42.08v-15.47c10.66-21.469 17.08-50.35 19.27-70.59h24.64c-3.14 23.536-10.65 46.52-21.31 65.67h19.48v-18.61h21.71v18.61h9.15v20.39h-9.15v16.53h-21.71z"/></g></svg>