<?xml version="1.0" encoding="UTF-8" standalone="no"?>
<svg xmlns:rdf="http://www.w3.org/1999/02/22-rdf-syntax-ns#" xmlns="http://www.w3.org/2000/svg" xmlns:cc="http://creativecommons.org/ns#" xmlns:dc="http://purl.org/dc/elements/1.1/" height="249.12" width="600" version="1.1" viewBox="0 0 158.75 65.912991">
  <defs>
    <linearGradient id="a" gradientUnits="userSpaceOnUse" gradientTransform="matrix(0 23.921 23.921 0 227.6 215.18)" x1="0" x2="1" y1="0" y2="0">
      <stop stop-color="#f9e925" offset="0"/>
      <stop stop-color="#f3990b" offset="1"/>
    </linearGradient>
    <linearGradient id="b" gradientUnits="userSpaceOnUse" gradientTransform="matrix(0 23.92 23.92 0 160.98 215.18)" x1="0" x2="1" y1="0" y2="0">
      <stop stop-color="#f9e925" offset="0"/>
      <stop stop-color="#f3990b" offset="1"/>
    </linearGradient>
    <linearGradient id="c" gradientUnits="userSpaceOnUse" gradientTransform="matrix(0 23.92 23.92 0 216.11 215.18)" x1="0" x2="1" y1="0" y2="0">
      <stop stop-color="#f9e925" offset="0"/>
      <stop stop-color="#f3990b" offset="1"/>
    </linearGradient>
    <linearGradient id="d" gradientUnits="userSpaceOnUse" gradientTransform="matrix(0 23.92 23.92 0 203.93 215.18)" x1="0" x2="1" y1="0" y2="0">
      <stop stop-color="#f9e925" offset="0"/>
      <stop stop-color="#f3990b" offset="1"/>
    </linearGradient>
    <linearGradient id="e" gradientUnits="userSpaceOnUse" gradientTransform="matrix(0 23.92 23.92 0 192.12 215.18)" x1="0" x2="1" y1="0" y2="0">
      <stop stop-color="#f9e925" offset="0"/>
      <stop stop-color="#f3990b" offset="1"/>
    </linearGradient>
    <linearGradient id="f" gradientUnits="userSpaceOnUse" gradientTransform="matrix(0 23.92 23.92 0 178.4 215.18)" x1="0" x2="1" y1="0" y2="0">
      <stop stop-color="#f9e925" offset="0"/>
      <stop stop-color="#f3990b" offset="1"/>
    </linearGradient>
  </defs>
  <g transform="translate(-79.401 -177.16)">
    <g fill="#fff">
      <path d="m121.75 181.91h-0.91l0.34-2.78h0.92c0.97 0.01 1.49 0.48 1.5 1.3-0.01 0.75-0.52 1.47-1.85 1.48m2.1 1.44c1.38-0.37 2.01-1.57 2.01-2.86 0-1.36-0.82-3.33-3.29-3.33h-3.34l-1.34 10.97h2.19l0.53-4.37h0.36c0.96 0.01 1.12 0.17 1.94 2.13l0.93 2.24h2.41l-1.51-3.56c-0.24-0.54-0.45-0.95-0.89-1.22m34.65-6.19-0.01 0.07-0.81 6.54c-0.22 1.78-1.26 2.33-2.3 2.34-0.75-0.01-2.07-0.3-2.08-2.17 0-0.18 0.02-0.37 0.05-0.57l0.77-6.21h-2.19l-0.79 6.22c-0.04 0.3-0.05 0.59-0.05 0.87 0 2.32 1.35 4.02 4.29 4.02h0.04c1.81 0 4-0.75 4.43-4.29l0.84-6.82zm-11.53 10.97h2.2l1.36-10.97h-2.2zm-3.5-10.97-0.02 0.05-3.1 6.57-1.5-6.62h-2.34l-2.77 9.67 0.07-0.58 0.01-0.09h-4.94l0.33-2.67h3.44l0.25-1.98h-3.44l0.3-2.38h3.92l0.24-1.97h-6.11l-1.36 10.97h9.12l2.1-7.31 1.62 7.31h1.09l3.43-7.11 0.28 7.11h2.12l-0.45-10.97zm-29.56 5.03h-0.75l0.38-3.16 0.41 0.01c1.27 0 1.76 0.64 1.77 1.51-0.01 0.92-0.5 1.64-1.81 1.64m0.85-5.03h-3.18l-1.35 10.97h2.2l0.49-4.07h1.54c1.65 0 3.52-0.85 3.52-3.61 0-2.19-1.48-3.29-3.22-3.29m57.59 0h-2.28l-3.13 6.62-1.49-6.62h-2.35l-3.15 10.97h2.22l2.08-7.31 1.63 7.31h1.09l3.43-7.1 0.28 7.1h2.12z"/>
      <path d="m117.7 221.44h-7.4v-30.1h7.4z"/>
      <path d="m129.56 206.91v14.53h-7.41v-30.89l18.17 15.29v-14.49h7.41v30.86z"/>
      <path d="m173.57 221.44h-13.89c-5.15 0-7.71-3.39-7.7-8.32v-21.78h21v6.47h-13.6v5.17h12.35v6.47h-12.35v2.45c-0.01 2.3 0.67 3.04 2.72 3.04h11.47z"/>
      <path d="m191.92 215.45 7.41-7.6v13.59h7.38v-30.89l-14.79 14.92-14.8-14.92v30.89h7.38v-13.59z"/>
      <path d="m219.58 209.4c1.1-3.94 2.37-8.09 3.72-11.87 1.34 3.78 2.62 7.93 3.71 11.87zm10.38 12.04h8.19c-1.66-7.35-5.76-21.42-9.79-30.1h-9.66c-4.04 8.68-8.13 22.75-9.79 30.1h7.72c0.31-1.51 0.71-3.33 1.19-5.36h10.96c0.47 2.03 0.88 3.85 1.18 5.36"/>
      <path d="m79.401 206.36c0 8.64 6.67 15.71 16.033 15.71 5.226 0 9.466-2.25 12.406-5.44l-4.48-5.2c-1.8 2.03-4.535 3.83-7.926 3.83-4.556 0-8.317-3.62-8.317-8.9s3.761-8.89 8.317-8.89c3.391 0 6.126 1.79 7.926 3.82l4.48-5.2c-2.94-3.19-7.18-5.43-12.406-5.43-9.363 0-16.033 7.07-16.033 15.7"/>
    </g>
    <path fill="url(#f)" d="m178.99 228.94-0.96 0.51 0.34-1.53h-4.38l-2.34 10.93h4.38l1.36-6.39 0.98-0.65c0.46-0.27 1.18-0.77 1.64-0.77 0.32 0 0.48 0.24 0.48 0.55 0 0.09-0.02 0.37-0.08 0.62l-1.42 6.64h4.38l1.64-7.41c0.08-0.4 0.16-0.95 0.16-1.27 0-1.56-1.02-2.41-2.58-2.41-1.4 0-2.46 0.51-3.6 1.18"/>
    <path fill="url(#e)" d="m186.41 232.46-0.38 1.8c-0.08 0.38-0.16 0.84-0.16 1.24 0 2.74 2.18 3.52 4.92 3.52 1.88 0 3.36-0.17 4.76-0.56l0.7-3.13h-0.16c-1.16 0.33-2.64 0.49-4.28 0.49-0.78 0-1.5-0.24-1.5-1.02 0-0.14 0.04-0.3 0.06-0.48h3.3c2.74 0 4.69-1.01 4.69-3.74 0-2.15-2.37-2.82-4.83-2.82-3.76 0-6.39 1.24-7.12 4.7m4.3 0.13c0.22-1.13 1.02-1.64 2.02-1.64 0.64 0 1.34 0.17 1.34 0.8s-0.48 0.93-1.1 0.93h-2.29z"/>
    <path fill="url(#d)" d="m208.07 227.76c-1.02 0-2.06 0.4-3 1.34h-0.1l0.26-1.18h-4.39l-2.33 10.93h4.37l1.51-7.06c0.94-0.51 1.96-0.6 2.78-0.6h1.42l0.78-3.43z"/>
    <path fill="url(#c)" d="m216.24 227.92c-3.2 0-5.74 1.18-6.49 4.46l-0.37 1.71c-0.08 0.31-0.16 0.78-0.16 1.17 0 1.96 1.24 2.98 3.2 2.98 1.4 0 2.62-0.44 3.66-1.1l0.6-0.36-0.12 0.51c-0.4 1.85-1.72 2.27-3.98 2.27l-0.62 3.06h2.18c3.52 0 6.1-2.12 6.8-5.33l2.03-9.37zm-2.5 6.34c0-0.24 0.1-0.66 0.16-0.87l0.16-0.55c0.36-1.29 0.94-1.8 2.42-1.8h1.42l-0.64 3.04c0-0.02-0.7 0.32-0.7 0.32-0.5 0.24-1.18 0.56-1.96 0.56-0.46 0-0.86-0.16-0.86-0.7"/>
    <path fill="url(#b)" d="m159.68 221.44c-5.15 0-8.1 1.96-8.69 4.8l-2.57 12.56h21l0.77-3.73h-13.6l0.61-2.98h12.35l0.76-3.73h-12.35l0.3-1.42c0.25-1.32 1.03-1.75 3.08-1.75h11.47l0.76-3.75z"/>
    <path fill="url(#a)" d="m232.01 227.92s-0.56 4.55-2.97 8.65c-0.51-0.97-0.8-2.9-0.8-3.71 0-0.92 0.19-1.77 0.39-2.78l0.49-2.16h-4.48l-0.55 2.63c-0.14 0.7-0.24 1.68-0.24 2.39 0 1.73 0.86 5.16 2.32 7.2-1.86 1.66-4.28 2.81-7.42 2.81 0 0 12.68 2.23 17.08-12.15 0.29-1.26 0.63-2.88 0.63-2.88z"/>
  </g>
</svg>
