<svg xmlns="http://www.w3.org/2000/svg" viewBox="0 0 640.00038 622.593" height="622.59"><g transform="matrix(55.7929 0 0-55.7929-12280.19 41464.67)"><path d="m231.57 732.03h-11.471v11.159h11.471v-11.159" fill="#bf1c2d"/><g fill="#fff"><path d="m0 0c-.146.402-.298.816-.443 1.221l-.205-1.396c-.003-.021-.003-.043-.003-.058 0-.04-.035-.084-.079-.084h-.011c-.036 0-.055.03-.055.065 0 .013 0 .032.007.045.003.017.005.036.008.049.075.491.159 1.023.232 1.515.022.08.075.155.15.155.033 0 .059-.005.065-.032v.003c.139-.387.275-.771.415-1.152l.408 1.152c.009.02.028.032.062.032.074 0 .133-.078.151-.158l.195-1.515c.005-.017.007-.041.013-.051.005-.011.008-.024.008-.035 0-.038-.018-.073-.058-.073h-.061c-.048 0-.066.054-.071.097-.003.006-.005.013-.008.024-.002.006-.002.014-.005.016l-.175 1.388-.394-1.116c-.02-.06-.07-.129-.109-.129-.014 0-.026.011-.037.037" transform="translate(223.22 738.03)"/><path d="m0 0c0 .316-.199.556-.463.556h-.011c-.306 0-.472-.335-.486-.725.319.037.639.085.96.125v.044m-.9-.629c.079-.223.274-.368.488-.368.199 0 .379.114.495.316v-.003c.007.019.021.025.032.025.026 0 .047-.022.047-.05v-.09c0-.053-.015-.113-.058-.157-.127-.133-.329-.214-.541-.214-.449 0-.767.39-.767.961 0 .537.318.937.748.937.412 0 .679-.32.679-.827v-.055c0-.022-.018-.044-.042-.048-.362-.04-.777-.092-1.141-.13.017-.176.06-.297.06-.297" transform="translate(225.38 738.83)"/><path d="m0 0c0 0-.05-.123-.118-.123h-.096c-.05 0-.076.038-.076.081 0 .039.034.099.131.196.183.281.367.55.556.831-.176.259-.355.519-.527.78-.025.043-.068.067-.068.119 0 .043.025.085.076.085h.117c.059 0 .08-.042.105-.094v.005c.151-.251.318-.498.489-.75.143.22.297.443.44.661.033.067.037.178.134.178h.088c.05 0 .076-.042.076-.085 0-.052-.085-.132-.135-.209l-.473-.711c.189-.29.389-.581.577-.869l.025-.038c.006-.009.013-.014.018-.023l-.005.005c.017-.018.025-.042.025-.064 0-.051-.032-.098-.088-.098h-.108c-.083 0-.134.157-.159.191-.163.248-.318.492-.482.738-.171-.26-.376-.528-.522-.806" transform="translate(225.53 737.89)"/><path d="m0 0c0-.006.002-.014.002-.021 0-.039-.015-.084-.057-.084h-.04c-.057 0-.06.063-.06.11.003.008.003.013.003.018v1.03c0 .026-.008.053-.008.079 0 .052.031.079.097.079.037 0 .063-.011.063-.045v-1.166m-.08 1.668c.067 0 .116-.053.116-.116 0-.061-.049-.117-.116-.117-.065 0-.114.056-.114.117 0 .063.049.116.114.116" transform="translate(227.14 737.85)"/><path d="m0 0c.007.011.014.017.024.017.018 0 .033-.017.033-.036v-.056c0-.046-.025-.087-.06-.112-.077-.053-.175-.088-.276-.088-.302 0-.523.273-.523.645 0 .378.227.661.53.661.075 0 .115-.001.187-.04l.015-.011c.05-.022.105-.051.105-.11v-.031c0-.033-.025-.054-.053-.054-.015 0-.029.009-.041.021-.061.058-.144.106-.228.106-.204 0-.358-.229-.358-.542 0-.306.157-.526.376-.526.114 0 .215.061.269.156" transform="translate(228.05 738.65)"/><path d="m0 0c0 .396-.223.708-.506.708-.283 0-.502-.315-.502-.712 0-.395.225-.719.502-.719.283 0 .506.324.506.723m.206 0c0-.498-.306-.881-.712-.881-.403 0-.712.383-.712.884 0 .487.309.863.712.863.406 0 .712-.376.712-.866" transform="translate(229.15 738.59)"/><path d="m0 0c-.008 0-.02.002-.024.005 0 0-.055.054-.058.098-.002.018.004.034.025.044l.746.309c.004 0 .004 0 .008 0 .008 0 .017-.004.025-.0001 0 0 .072-.086.078-.147.003-.025-.007-.05-.035-.061l-.765-.239" transform="translate(224.52 739.64)"/><path d="m0 0v-1.056c0-.012 0-.024.002-.033 0-.004 0-.007 0-.011 0-.026-.015-.048-.044-.048h-.041c-.032 0-.046.031-.046.059v.006c.002.013.002.027.002.044v1.039h-.27c-.025 0-.042-.003-.051-.001-.006-.003-.011-.005-.016-.005-.018 0-.034.012-.034.028 0 .046.036.085.084.085h.707c.045 0 .083-.039.083-.085 0-.015-.018-.023-.037-.023-.008 0-.014 0-.022.005-.006.003-.019.005-.047.005h-.27" transform="translate(222.92 737.35)"/><path d="m0 0c.056.039.101.121.101.202 0 .076-.039.154-.093.196-.058.041-.127.055-.248.055h-.194c-.005 0-.009-.003-.009-.0001v-.472c0-.009.004-.011.009-.011h.198c.136 0 .19.011.236.04m.312-.673c.006-.002.007-.006.007-.012 0-.003 0-.006-.006-.009 0 0-.027-.019-.07-.019h-.011c-.05.005-.1.027-.128.07l-.277.417c-.035.054-.097.088-.162.088h-.099c-.005 0-.009-.004-.009-.0001v-.454c0-.007.002-.017.002-.023v-.011c0-.028-.014-.059-.047-.059h-.038c-.029 0-.048.026-.048.054v.005c.002.011.002.021.002.034v1.081c0 .036.018.072.058.072h.272c.155 0 .249-.02.319-.065.097-.056.158-.167.158-.284 0-.11-.056-.219-.14-.276-.051-.033-.095-.045-.186-.055-.004 0-.004 0-.004-.004.102-.146.211-.303.312-.451.03-.043.041-.059.053-.066.006-.006.016-.012.042-.023" transform="translate(224.21 736.89)"/><path d="m0 0l-.205-.535c-.002-.004-.005-.008-.007-.008h.428c0 0-.003.004-.005.0001l-.211.533m-.004.155c.053 0 .099-.034.119-.08l.407-1.054.013-.039c.003-.007.005-.012.006-.015.005-.009.006-.015.006-.023 0-.018-.012-.035-.034-.035h-.079c-.032 0-.032.031-.032.056 0 .004-.009.025-.015.048-.043.109-.091.232-.13.341 0 .004-.005.007-.0001.007h-.482c-.003 0-.006-.005-.009-.009l-.127-.339c-.005-.013-.011-.034-.011-.038 0-.031-.008-.066-.043-.066h-.045c-.021 0-.035.018-.035.039 0 .006.002.014.003.019.011.015.018.031.029.068l.393 1.018c.006.012.009.027.009.041 0 .029.017.061.049.061h.018z" transform="translate(225.32 737.29)"/><path d="m0 0c.027-.002.03-.024.03-.048 0-.005.002-.0001.004-.014 0-.004.005-.014.006-.021.112-.327.225-.647.337-.977.1.329.202.65.302.977 0 .0001.006.021.008.03.007.025.018.057.052.057h.026c.023 0 .032-.02.032-.042 0-.023-.016-.045-.017-.051-.042-.138-.311-.99-.353-1.127-.011-.025-.03-.038-.055-.038h-.026c-.026 0-.047.019-.055.038-.124.365-.26.759-.385 1.123-.004.017-.006.02-.008.023 0 .004 0 .006-.003.009-.005.008-.006.016-.006.023 0 .021.013.042.036.042l.074-.004" transform="translate(226.2 737.44)"/><path d="m0 0c-.005 0-.008-.003-.008-.009v-.486c0-.006.003-.012.008-.012h.489c.022 0 .038.002.052.008.014.005.026.008.04.008.025 0 .048-.0001.05-.036 0-.007 0-.015 0-.022 0-.028-.008-.052-.033-.052h-.681c-.039 0-.054.039-.054.072v1.103.007c0 .033.019.066.054.066h.651c.027 0 .035-.021.035-.05 0-.007 0-.015-.003-.023-.003-.023-.027-.033-.052-.033-.013 0-.027.003-.038.007h.003c-.0001 0-.021.003-.033.003h-.481c-.005 0-.008-.005-.008-.0001v-.433c0-.006.003-.011.008-.011h.437c.003 0 .005 0 .013 0h.0001c.031 0 .062-.007.062-.043v-.011c0-.032-.033-.044-.064-.044h-.016-.442" transform="translate(227.56 736.79)"/><path d="m0 0c-.043.075-.054.133-.054.294v.717c0 .012 0 .023-.002.033v.012c0 .028.018.05.046.05h.039c.031 0 .05-.022.05-.05 0-.004-.002-.007-.002-.012-.002-.0001-.002-.021-.002-.033v-.718c0-.113.007-.179.024-.229.02-.055.085-.099.156-.109h.016c.09 0 .186.06.249.133.006.0001.016.017.027.017.02 0 .039-.019.039-.043v-.053c0-.035-.043-.048-.068-.067-.005-.004-.0001-.006-.019-.011-.057-.041-.167-.076-.25-.076-.014 0-.027 0-.041.003-.089.019-.164.062-.208.142" transform="translate(228.7 736.33)"/><path d="m0 0l.059-.013c-.028-.113-.092-.171-.191-.171-.066 0-.118.027-.155.08-.037.052-.055.118-.055.194 0 .08.02.143.058.191.039.049.091.072.157.072.097 0 .158-.054.186-.166l-.06-.011c-.023.082-.066.123-.127.123-.046 0-.082-.02-.107-.057-.024-.039-.038-.093-.038-.16 0-.065.014-.115.039-.153.026-.039.06-.057.103-.057.066 0 .11.043.131.128" transform="translate(222.79 735.57)"/><path d="m0 0h-.064v.247h-.239v-.247h-.065v.518h.065v-.214h.239v.214h.064v-.518" transform="translate(223.91 735.4)"/><path d="m0 0l-.08.249-.08-.249h.16m.131-.2h-.066l-.051.151h-.191l-.047-.151h-.054l.167.517h.074l.168-.517z" transform="translate(224.88 735.6)"/><path d="m0 0h-.063l-.268.45v-.032c0-.014 0-.024 0-.033v-.385h-.052v.518h.081l.25-.421v.036c0 .013 0 .026 0 .037v.348h.052v-.518" transform="translate(226.08 735.4)"/><path d="m0 0h-.063l-.267.45.002-.032c0-.014 0-.024 0-.033v-.385h-.052v.518h.081l.25-.421-.002.036v.037.348h.051v-.518" transform="translate(227.21 735.4)"/><path d="m0 0v-.058h-.333v.518h.326v-.057h-.263v-.164h.209v-.052h-.209v-.187h.27" transform="translate(228.29 735.46)"/><path d="m0 0v-.058h-.305v.518h.066v-.46h.239" transform="translate(229.3 735.46)"/><path d="m0 0h.086c.023 0 .039.006.051.017.011.011.016.025.016.043 0 .015-.005.029-.017.039-.012.008-.027.012-.044.012h-.092v-.111m.211-.183h-.055l-.064.143h-.092v-.143h-.05v.336h.142c.038 0 .067-.001.085-.03.019-.019.03-.041.03-.065 0-.017-.006-.035-.016-.051-.011-.017-.027-.028-.05-.035l.07-.155zm.112.169c0 .068-.024.125-.074.175-.047.048-.106.071-.175.071-.068 0-.126-.023-.175-.071-.047-.05-.071-.107-.071-.175 0-.069.023-.127.071-.174.049-.05.107-.074.175-.074.069 0 .128.024.175.074.049.047.074.105.074.174m.041 0c0-.079-.03-.148-.085-.204-.058-.056-.126-.085-.205-.085-.078 0-.147.029-.203.085-.057.056-.085.125-.085.204 0 .078.028.147.085.203.056.057.125.085.203.085.079 0 .147-.028.205-.085.055-.056.085-.125.085-.203" transform="translate(230.97 732.51)"/></g></g></svg>