<svg xmlns="http://www.w3.org/2000/svg" viewBox="0 0 600 82.09"><g transform="scale(.70164)"><g fill="#f03120"><path d="m280.25 45.764c.337-2.378.515-4.578.515-6.6v-6.362c0-5.767-.555-10.504-1.665-14.25-1.09-3.726-2.616-6.679-4.578-8.899-1.942-2.2-4.321-3.766-7.115-4.697-2.794-.931-5.807-1.407-9.02-1.407-5.767 0-10.524 1.149-14.25 3.449-3.726 2.279-6.699 5.371-8.899 9.275-2.2 3.904-3.865 8.383-4.955 13.477-1.11 5.093-1.823 10.425-2.16 16.01zm-52.38 3.567c0 1.685-.04 3.429-.119 5.212-.099 1.784-.139 4.02-.139 6.738 0 5.589.337 11.436 1.01 17.54.694 6.104 2.18 11.614 4.459 16.529 2.279 4.915 5.668 8.978 10.167 12.209 4.499 3.23 10.464 4.816 17.936 4.816 7.452 0 13.596-1.09 18.432-3.29 4.836-2.2 8.641-4.875 11.436-8.01 2.794-3.131 4.875-6.322 6.243-9.553 1.348-3.211 2.358-5.827 3.052-7.868l3.805.753c-.515 1.883-1.486 4.539-2.913 8.01-1.447 3.488-3.726 6.956-6.877 10.445-3.151 3.468-7.373 6.52-12.724 9.137-5.331 2.636-12.228 3.944-20.711 3.944-8.483 0-16.311-1.348-23.525-4.063-7.214-2.715-13.437-6.62-18.689-11.693-5.252-5.093-9.315-11.158-12.209-18.19-2.874-7.04-4.321-14.864-4.321-23.505 0-7.472 1.486-14.706 4.459-21.741 2.973-7.04 7.02-13.259 12.189-18.689 5.173-5.43 11.237-9.791 18.19-13.1 6.937-3.31 14.408-4.955 22.376-4.955 4.737 0 9.83.832 15.261 2.537 5.43 1.685 10.464 4.459 15.12 8.265 4.657 3.825 8.562 8.859 11.693 15.12 3.151 6.283 4.717 14.09 4.717 23.406z"/><path d="m319.04 3.296h80.6l-63.32 105.54h35.853c4.915 0 8.938-.971 12.09-2.933 3.131-1.942 5.668-4.4 7.63-7.373 1.942-2.953 3.468-6.144 4.578-9.533 1.09-3.389 2.16-6.62 3.171-9.652h2.041l-3.31 33.04h-88.49l63.3-105.52h-21.86c-4.241 0-7.928.119-11.06.377-3.131.258-5.966 1.149-8.502 2.676-2.557 1.526-4.935 3.984-7.135 7.373-2.2 3.389-4.578 8.225-7.115 14.488h-2.041z"/><path d="m415.29 3.296h80.6l-63.3 105.54h35.853c4.895 0 8.938-.971 12.07-2.933 3.131-1.942 5.668-4.4 7.63-7.373 1.942-2.953 3.468-6.144 4.578-9.533 1.09-3.389 2.16-6.62 3.171-9.652h2.041l-3.31 33.04h-88.49l63.32-105.52h-21.88c-4.241 0-7.908.119-11.06.377-3.131.258-5.966 1.149-8.522 2.676-2.537 1.526-4.915 3.984-7.115 7.373-2.2 3.389-4.578 8.225-7.115 14.488h-2.041z"/><path d="m526.93 57.971c0 12.03.931 21.623 2.794 28.738 1.863 7.115 4.321 12.585 7.373 16.41 3.052 3.805 6.62 6.302 10.682 7.492 4.063 1.189 8.383 1.764 12.962 1.764 4.578 0 8.899-.575 12.981-1.764 4.063-1.189 7.63-3.686 10.682-7.492 3.052-3.825 5.49-9.295 7.373-16.41 1.843-7.115 2.794-16.707 2.794-28.738 0-10.167-.674-18.689-2.041-25.547-1.348-6.877-3.429-12.466-6.223-16.787-2.794-4.321-6.322-7.412-10.564-9.275-4.241-1.883-9.236-2.814-15-2.814-5.767 0-10.762.931-15 2.814-4.241 1.863-7.749 4.955-10.544 9.275-2.794 4.321-4.875 9.91-6.223 16.787-1.368 6.857-2.041 15.38-2.041 25.547m-25.428 0c0-8.304 1.823-16.01 5.47-23.13 3.647-7.135 8.304-13.279 13.992-18.451 5.668-5.153 12.01-9.176 19.07-12.07 7.04-2.874 13.933-4.321 20.711-4.321 6.778 0 13.695 1.447 20.731 4.321 7.04 2.894 13.398 6.917 19.07 12.07 5.688 5.173 10.346 11.317 13.992 18.451 3.647 7.115 5.47 14.825 5.47 23.13 0 7.967-1.704 15.479-5.093 22.514-3.389 7.02-7.848 13.18-13.338 18.432-5.529 5.252-11.832 9.394-18.947 12.466-7.115 3.03-14.408 4.558-21.88 4.558-7.452 0-14.745-1.526-21.86-4.558-7.115-3.072-13.437-7.214-18.947-12.466-5.51-5.252-9.949-11.416-13.338-18.432-3.409-7.04-5.093-14.547-5.093-22.514"/><path d="m41.461 52.38c0-8.819 1.229-16.271 3.686-22.376 2.458-6.104 5.51-11.06 9.156-14.864 3.647-3.825 7.591-6.62 11.832-8.403 4.221-1.784 8.126-2.656 11.693-2.656 5.074 0 9.137 1.764 12.189 5.331 3.052 3.548 4.598 9.06 4.598 16.529v84.29c-21.959 6.322-39.975 3.112-53.15-2.358zm75.01-8.383c0-6.778 1.05-12.724 3.171-17.797 2.121-5.093 4.875-9.255 8.265-12.466 3.389-3.231 7.214-5.629 11.455-7.254 4.221-1.605 8.463-2.398 12.704-2.398 5.43 0 9.711 1.605 12.843 4.816 3.131 3.23 4.697 7.71 4.697 13.477v66.2c-16.11-.277-34.17 3.25-53.13 12.704zm-96.88 50.558c10.425 10.266 44.771 37.537 95.15 11.515 27.905-14.389 55.26-12.763 76.74-6.758v-60.924c0-25.25-12.387-37.874-37.14-37.874-5.252 0-9.949.674-14.11 2.02-4.142 1.368-7.749 3.191-10.801 5.47-3.03 2.299-5.589 4.875-7.63 7.749-2.02 2.894-3.647 5.847-4.836 8.919h-.495c-2.041-8.661-6.322-14.844-12.843-18.57-6.52-3.726-14.03-5.589-22.514-5.589-9.493 0-17.579 2.358-24.278 7.115-6.699 4.757-11.812 12.209-15.38 22.376h-.515v-26.696h-40.946v3.548h19.601z"/></g><g transform="matrix(1.25404 0 0 1.25404 106.6-191.37)" fill="#4a3a3e"><path d="m0 0v-1.582h1.348v1.582h.679v-3.328h-.679v1.647h-1.348v-1.647h-.675v3.328h.675" transform="matrix(25.95826 0 0-25.95826 446.71 155.58)"/><path d="m0 0c.202 0 .375.024.518.072.143.049.264.114.361.197.098.082.176.176.233.283.058.105.102.217.131.334.03.117.05.233.059.35.009.117.014.227.014.33 0 .252-.016.48-.047.684-.031.205-.093.379-.184.524-.092.145-.221.256-.387.334-.167.078-.385.117-.656.117-.062 0-.118 0-.168-.002-.05-.002-.09-.006-.122-.012v-3.197c.091-.009.173-.014.248-.014m-.924 3.277c.159 0 .317.002.476.006.159.005.317.007.476.007.14 0 .288-.009.443-.028.156-.018.31-.052.462-.1.152-.048.297-.113.434-.194.137-.081.258-.184.364-.308.106-.125.19-.273.252-.445.062-.171.093-.372.093-.603 0-.227-.031-.427-.093-.598-.062-.171-.146-.319-.25-.444-.104-.125-.223-.228-.357-.308-.134-.082-.273-.146-.417-.194-.145-.049-.288-.082-.43-.101-.141-.019-.272-.028-.394-.028-.177 0-.354.002-.53.005-.175.003-.352.004-.529.004v3.329" transform="matrix(25.95826 0 0-25.95826 543.01 240.63)"/></g></g></svg>