<svg xmlns="http://www.w3.org/2000/svg" viewBox="0 0 600 244.8"><defs><clipPath id="0"><path d="m326.24 129.68h25.636v10.16h-25.636v-10.16"/></clipPath><clipPath id="1"><path d="m327.09 130.06h23.11v9.431h-23.11v-9.431"/></clipPath></defs><g transform="translate(-50-409.96)"><g clip-path="url(#1)" transform="matrix(25.95826 0 0-25.95826-8440.61 4031.01)"><path d="m0 0c0 .114.04.212.121.292.08.081.178.121.292.121.114 0 .211-.04.292-.121.08-.08.121-.178.121-.292 0-.114-.041-.212-.121-.292-.081-.081-.178-.121-.292-.121-.114 0-.212.04-.292.121-.081.08-.121.178-.121.292" fill="#fff" transform="translate(335.39 134.34)"/><path d="m0 0c.013.088.02.171.02.246v.238c0 .214-.021.391-.062.531-.041.138-.099.249-.171.331-.073.082-.161.141-.265.175-.105.035-.217.053-.337.053-.215 0-.392-.043-.531-.128-.139-.086-.25-.201-.332-.346-.082-.146-.144-.313-.184-.503-.042-.189-.068-.388-.081-.597h1.943m-1.952-.133c0-.063-.002-.128-.005-.194-.004-.066-.005-.15-.005-.251 0-.209.013-.427.038-.654.025-.228.081-.433.166-.617.085-.183.211-.335.379-.455.167-.12.39-.179.668-.179.279 0 .508.04.687.122.181.083.323.182.427.299.104.117.182.235.233.356.05.12.088.218.114.293l.141-.028c-.018-.07-.055-.169-.109-.299-.053-.129-.138-.259-.256-.388-.117-.13-.274-.244-.474-.342-.199-.097-.456-.146-.772-.146-.316 0-.608.05-.877.151-.269.101-.501.247-.697.436-.196.19-.347.416-.455.678-.107.262-.161.555-.161.877 0 .278.055.548.166.81.11.263.262.495.455.697.192.202.418.365.678.488.259.124.537.185.834.185.177 0 .366-.031.569-.094.202-.064.39-.166.564-.308.174-.143.319-.331.436-.564.117-.235.175-.525.175-.873h-2.919" fill="#ef3424" transform="translate(337.53 137.79)"/></g><g clip-path="url(#0)" transform="matrix(25.95826 0 0-25.95826-8440.61 4031.01)"><path d="m0 0h3l-2.361-3.934h1.337c.183 0 .333.036.45.109.117.072.212.164.285.274.072.111.129.229.171.356.041.126.08.247.118.36h.076l-.123-1.232h-3.3l2.361 3.934h-.815c-.158 0-.296-.004-.413-.014-.117-.009-.223-.043-.317-.1-.095-.057-.184-.148-.265-.274-.083-.127-.171-.307-.266-.541h-.076l.133 1.062" fill="#ef3424" transform="translate(338.98 139.37)"/></g><g clip-path="url(#1)" transform="matrix(25.95826 0 0-25.95826-8440.61 4031.01)" fill="#ef3424"><path d="m0 0h3l-2.36-3.934h1.336c.183 0 .334.036.451.109.117.072.211.164.284.274.073.111.13.229.171.356.041.126.08.247.118.36h.076l-.123-1.232h-3.299l2.36 3.934h-.815c-.158 0-.296-.004-.412-.014-.117-.009-.223-.043-.318-.1-.095-.057-.184-.148-.265-.274-.083-.127-.171-.307-.266-.541h-.076l.133 1.062" transform="translate(342.57 139.37)"/><path d="m0 0c0-.449.035-.806.104-1.071.07-.266.162-.469.275-.612.114-.142.247-.235.398-.279.152-.044.313-.066.484-.066.17 0 .332.022.484.066.151.044.284.137.398.279.114.143.205.346.275.612.069.265.104.622.104 1.071 0 .379-.025.697-.076.953-.051.256-.128.464-.232.625-.105.162-.236.277-.394.347-.158.069-.344.104-.559.104-.215 0-.401-.035-.559-.104-.159-.07-.289-.185-.394-.347-.104-.161-.181-.369-.232-.625-.051-.256-.076-.574-.076-.953m-.948 0c0 .31.068.597.204.863.136.265.31.494.521.687.212.193.449.343.711.45.263.108.52.162.773.162.253 0 .51-.054.773-.162.262-.107.499-.257.711-.45.211-.193.385-.422.521-.687.136-.266.204-.553.204-.863 0-.297-.064-.577-.19-.839-.126-.262-.292-.491-.498-.687-.205-.196-.44-.351-.706-.465-.265-.113-.537-.17-.815-.17-.278 0-.55.057-.815.17-.266.114-.501.269-.706.465-.206.196-.372.425-.498.687-.127.262-.19.542-.19.839" transform="translate(346.73 137.33)"/><path d="m0 0c0 .329.046.607.138.834.091.228.205.413.341.555.136.142.283.246.441.313.158.066.303.099.436.099.189 0 .341-.066.455-.199.114-.133.171-.338.171-.616v-3.143c-.819-.235-1.49-.116-1.982.088v2.069m2.797.313c0 .253.039.474.118.663.079.19.182.345.308.465.126.12.269.21.427.27.158.06.316.09.474.09.202 0 .362-.06.478-.18.117-.12.176-.288.176-.502v-2.468c-.601.011-1.274-.121-1.981-.474v2.136m-3.612-1.885c.389-.383 1.669-1.399 3.548-.43 1.04.537 2.06.477 2.86.253v2.27c0 .942-.461 1.413-1.384 1.413-.196 0-.371-.025-.526-.076-.155-.051-.289-.119-.403-.204-.113-.085-.208-.181-.284-.289-.076-.107-.136-.218-.18-.332h-.019c-.076.323-.236.553-.479.693-.244.138-.523.208-.839.208-.354 0-.656-.088-.905-.265-.25-.177-.441-.456-.574-.835h-.019v.996h-1.526v-.133h.73v-3.269" transform="translate(328.63 137.54)"/></g><g clip-path="url(#0)" transform="matrix(25.95826 0 0-25.95826-8440.61 4031.01)"><g fill="#ef3424"><path d="m0 0v-1.582h1.348v1.582h.679v-3.328h-.679v1.647h-1.348v-1.647h-.675v3.328h.675" transform="translate(344.3 133.5)"/><path d="m0 0c.202 0 .375.024.518.072.143.049.264.114.361.197.098.082.176.176.233.283.058.105.102.217.131.334.03.117.05.233.059.35.009.117.014.227.014.33 0 .252-.016.48-.047.684-.031.205-.093.379-.184.524-.092.145-.221.256-.387.334-.167.078-.385.117-.656.117-.062 0-.118 0-.168-.002-.05-.002-.09-.006-.122-.012v-3.197c.091-.009.173-.014.248-.014m-.924 3.277c.159 0 .317.002.476.006.159.005.317.007.476.007.14 0 .288-.009.443-.028.156-.018.31-.052.462-.1.152-.048.297-.113.434-.194.137-.081.258-.184.364-.308.106-.125.19-.273.252-.445.062-.171.093-.372.093-.603 0-.227-.031-.427-.093-.598-.062-.171-.146-.319-.25-.444-.104-.125-.223-.228-.357-.308-.134-.082-.273-.146-.417-.194-.145-.049-.288-.082-.43-.101-.141-.019-.272-.028-.394-.028-.177 0-.354.002-.53.005-.175.003-.352.004-.529.004v3.329" transform="translate(348.01 130.23)"/></g><g fill="#fff"><path d="m0 0h.596v3.108h-.522v.109h1.187v-3.217h.522v-.108h-1.783v.108" transform="translate(334.88 130.28)"/><path d="m0 0c.0001.072.015.139.015.202v.193c0 .176-.016.321-.05.434-.033.114-.08.204-.139.272-.059.067-.132.115-.217.143-.085.028-.177.043-.274.043-.176 0-.32-.035-.434-.105-.113-.07-.204-.164-.271-.283-.067-.119-.117-.256-.15-.411-.034-.155-.056-.318-.066-.488h1.586m-1.594-.108c0-.052 0-.105-.004-.159-.002-.055-.004-.123-.004-.206 0-.17.011-.349.031-.535.021-.186.066-.354.136-.503.069-.15.172-.274.309-.372.137-.099.319-.148.546-.148.227 0 .414.034.561.101.147.067.263.148.348.244.085.096.148.193.189.291.042.098.072.178.093.24l.116-.023c-.015-.057-.045-.138-.089-.244-.044-.106-.113-.212-.209-.318-.095-.106-.224-.199-.386-.279-.163-.08-.373-.12-.631-.12-.258 0-.497.041-.716.124-.219.082-.409.201-.568.356-.16.155-.284.34-.372.554-.088.215-.131.454-.131.717 0 .228.045.449.135.663.09.214.214.404.371.57.158.165.342.298.554.399.211.101.438.151.681.151.144 0 .299-.026.464-.077.165-.052.318-.136.46-.252.142-.117.261-.27.356-.461.095-.192.143-.429.143-.713h-2.383" transform="translate(342.2 132.2)"/><path d="m0 0v-.109h.45l-1.037-2.433-.998 2.433h.524v.109h-1.577v-.109h.378l1.308-3.224h.205l1.358 3.224h.27v.109h-.881" transform="translate(339.19 133.5)"/><path d="m0 0c-.208.067-.44.099-.665.112v-4.816h-.522v-.108h1.857v.108h-.67v4.704" transform="translate(334.22 134.98)"/></g></g></g></svg>