<svg xmlns="http://www.w3.org/2000/svg" viewBox="0 0 600 248.18"><defs><clipPath id="0"><path d="m3325.3 2580h112.07v46.36h-112.07v-46.36"/></clipPath></defs><g transform="translate(-207.2-537.8)"><g fill="#9bd175"><path d="m498.18 766.46c-4.818 0-7.763-4.39-7.763-8.566v-48.987l1.124-1.071h3.694l1.124 1.071v48.4l1.981 3.48 1.017 1.874v2.837l-1.178.964"/><path d="m513.76 751.04l-2.945-2.677-3.052 2.998v7.01l3.266 2.945 2.73-2.945v-7.335m4.765 15.472h-3.694l-1.071-.857-4.122.857c-4.818 0-7.817-2.409-7.817-7.977v-7.281c0-6.157 3.908-8.08 8.298-8.08l3.641.642v-10.44l-3.052-3.052-2.945 2.677v4.122l-1.178 1.071h-3.641l-1.124-1.071v-4.39c0-4.872 3.748-7.656 8.887-7.656 5.729 0 8.887 2.677 8.887 8.887v31.427l-1.071 1.124"/><path d="m551.4 730.65l-2.356 1.499-1.82-.321-1.767-1.553-2.784 3.052v32.07l-1.071 1.124h-3.694l-1.178-1.124v-39.19l1.178-1.178h3.694l1.071.803 3.748-.803 5.568 3.426-.589 2.195"/><path d="m564.62 751.04l-2.837-2.677-3.105 2.998v7.01l3.266 2.945 2.677-2.945v-7.335m4.818 15.472h-3.641l-1.178-.857-4.02.857c-4.872 0-7.817-2.409-7.817-7.977v-7.281c0-6.157 3.855-8.08 8.298-8.08l3.534.642v-10.44l-2.945-3.052-2.998 2.677v4.122l-1.124 1.071h-3.641l-1.124-1.071v-4.39c0-4.872 3.748-7.656 8.887-7.656 5.729 0 8.887 2.677 8.887 8.887v31.427l-1.124 1.124"/><path d="m587.37 733.7l-2.891-3.426-3.052 3.426v24.2l2.998 3.373 2.945-3.373v-24.2m5.03 32.765h-4.176l-.857-1.017-2.945 1.017c-5.675 0-8.941-3.426-8.941-8.566v-24.2c0-5.729 4.337-8.62 8.941-8.62l2.945.803v-16.972l1.124-1.071h3.641l1.124 1.071v56.48l-.857 1.071"/><path d="m602.95 766.46h-3.641l-1.178-1.124v-39.14l1.178-1.124h3.641l1.178 1.124v39.14l-1.178 1.124m0-52.949h-3.641l-1.178-1.124v-3.48l1.178-1.071h3.641l1.178 1.071v3.48l-1.178 1.124"/><path d="m620.89 733.7l-2.891-3.426-3.105 3.426v24.2l2.998 3.373 2.998-3.373v-24.2m-2.998 32.765c-5.621 0-8.887-3.052-8.887-8.566v-24.2c0-5.514 3.212-8.62 8.994-8.62 5.836 0 8.834 3.105 8.834 8.62v24.2c0 5.354-3.373 8.566-8.941 8.566"/><path d="m655.8 733.54l-2.677-3.266-3.266 3.587v23.931l2.998 3.48 2.945-4.069v-23.664m-2.195 32.927l-3.748-.75v18.685l-1.178 1.071h-3.641l-1.124-1.071v-58.2l1.124-1.178h3.641l1.178 1.178 3.855-1.178c5.247 0 8.03 3.748 8.03 8.566v24.36c0 5.03-2.998 8.513-8.138 8.513"/><path d="m678.5 733.7l-2.837-3.426-3.105 3.426v24.2l2.998 3.373 2.945-3.373v-24.2m-2.945 32.765c-5.568 0-8.887-3.052-8.887-8.566v-24.2c0-5.514 3.105-8.62 8.994-8.62 5.782 0 8.78 3.105 8.78 8.62v24.2c0 5.354-3.373 8.566-8.887 8.566"/><path d="m701.2 733.54l-2.677-3.266-3.266 3.587v23.931l2.998 3.48 2.945-4.069v-23.664m-2.195 32.927l-3.748-.75v18.685l-1.124 1.071h-3.694l-1.124-1.071v-58.2l1.124-1.178h3.694l1.124 1.178 3.855-1.178c5.247 0 8.03 3.748 8.03 8.566v24.36c0 5.03-2.998 8.513-8.138 8.513"/><path d="m738.94 730.65l-2.409 1.499-1.767-.321-1.767-1.553-2.784 3.052v32.07l-1.178 1.124h-3.641l-1.124-1.124v-39.19l1.124-1.178h3.641l1.178.803 3.748-.803 5.514 3.426-.535 2.195"/><path d="m751.74 733.7l-2.837-3.426-3.105 3.426v24.2l2.998 3.373 2.945-3.373v-24.2m-2.945 32.765c-5.621 0-8.887-3.052-8.887-8.566v-24.2c0-5.514 3.159-8.62 8.994-8.62 5.782 0 8.78 3.105 8.78 8.62v24.2c0 5.354-3.319 8.566-8.887 8.566"/><path d="m771.6 766.46c-5.193 0-9.05-2.945-9.05-8.566v-24.2c0-5.3 4.122-8.62 9.05-8.62 5.621 0 8.834 3.801 8.834 8.62v4.979l-1.178 1.124h-3.694l-1.071-1.124v-4.979l-2.891-3.426-3.052 3.426v24.2l3.052 3.373 2.891-3.373v-4.497l1.071-1.124h3.694l1.178 1.124v4.497c0 5.03-3.587 8.566-8.834 8.566"/><path d="m798.37 742.16l7.656 23.02-.803 1.285h-4.283l-1.338-1.017-5.14-16.17-3.212 5.675v10.44l-1.178 1.071h-3.641l-1.178-1.071v-56.43l1.178-1.124h3.641l1.178 1.124v33.408l8.298-16.383 1.124-.91h5.354l.642 1.124"/></g><g fill="#5ab734"><path d="m490.36 690.28h26.978v-62.63h-26.978v62.63"/><path d="m660.03 676.41l-8.191 9.69c-3.748 2.784-8.62 4.122-14.402 4.122-6.05 0-10.493-.803-13.277-2.409-2.998-1.713-5.782-4.818-9.262-9.101l-48.29-56.857-4.02-1.767-2.409 1.071-1.499 3.105v65.959h-26.608v-76.72l1.178-5.407 4.337-7.01 7.763-6.157c3.212-1.713 7.281-2.516 11.832-2.516 5.836 0 10.333.91 13.759 2.945l7.924 6.317 45.989 52.2 3.748 3.694 3.48.589 2.945-2.141.535-2.998v-60.61h26.983v74.31l-2.516 9.69"/><g clip-path="url(#0)" transform="matrix(5.3538 0 0-5.3538-17595.83 14598.59)"><path d="m3378.2 2611.9h5.125v4.25h-5.125v-4.25"/><path d="m3374.9 2611c2 6.06 3.37 9.69 1.96 11.86-1.42 2.17-5.28 2.39-11.63 3-6.35.63-23.32 1.48-33.96-5.44-10.63-6.92-4.79-20.05-.08-27.29 4.71-7.23 14.35-17.89 24.98-10.98 10.64 6.93 16.73 22.79 18.73 28.85"/></g></g><path d="m429.92 606.6l-6.585-7.71-8.406-4.658-7.656-1.767c-6.264 0-11.511 1.66-15.74 4.818-4.176 3.159-8.78 8.459-13.17 16.436l-27.411 49.42-27.465-49.42c-4.39-7.977-9.05-13.277-13.17-16.436-4.229-3.159-9.423-4.818-15.74-4.818l-7.656 1.767-8.406 4.658-6.532 7.71-2.677 9.851v73.882h27.14v-59.32l3.855-3.801 4.02 2.249 34.26 60.873h24.681l34.26-60.873 4.02-2.249 3.801 3.801v59.32h27.14v-73.882l-2.57-9.851" fill="#fff"/><path d="m677.27 592.41v22.539h51.771v75.22h26.608v-75.06h51.56v-22.7" fill="#5ab734"/></g></svg>