<?xml version="1.0" encoding="UTF-8" standalone="no"?>
<svg id="svg2" xmlns:rdf="http://www.w3.org/1999/02/22-rdf-syntax-ns#" xmlns="http://www.w3.org/2000/svg" height="217.91" viewBox="0 0 217.84065 217.90527" width="217.84" version="1.1" xmlns:cc="http://creativecommons.org/ns#" xmlns:dc="http://purl.org/dc/elements/1.1/">
 <path id="path4152" fill="#f29975" d="m90.335 216.38c-44.845-7.54-81.572-44.61-88.891-89.74-11.918-73.481 51.715-137.11 125.2-125.2 66.68 10.818 107.63 80.34 84.86 144.06-17.798 49.798-68.862 79.669-121.17 70.88z"/>
 <g fill="#fff">
  <path id="path4150" d="m48.003 127.69c4.364-16.29 9.5643-27.162 12.704-26.557 2.3146 0.44574 3.0237 3.8331 3.1385 14.992 0.1058 10.28 1.1627 14.815 3.4525 14.815 2.586 0 3.7886-2.8296 4.3311-10.19 0.63361-8.5965-0.93809-18.289-3.5367-21.81-2.8085-3.8057-7.1659-3.8005-11.51 0.0139-1.9581 1.7193-4.556 4.737-5.7729 6.7061l-2.2127 3.5802-1.3185-4.5217c-1.5848-5.4353-3.3802-7.11-7.4968-6.9929-3.6154 0.10279-7.7724 3.6509-11.844 10.109l-2.7702 4.3943-0.73678-3.3943c-0.88251-4.0657-2.2189-5.1074-4.7882-3.7323-1.706 0.91303-1.8346 1.735-1.2009 7.6802 0.8708 8.1705 1.9388 10.379 4.8213 9.9684 1.6228-0.23103 3.251-2.4618 6.3505-8.7011 8.246-16.599 10.59-16.043 11.341 2.6902 0.28017 6.9851 0.86923 13.263 1.309 13.95 1.7914 2.8005 4.5758 1.3452 5.7398-3z"/>
  <path id="path4146" d="m119.98 124.01c-1.4786-2.7627-1.2795-14.545 0.30992-18.348 3.0263-7.2398 7.2496-6.9644 10.162 0.66265 1.6047 4.2018 1.593 4.6028-0.25477 8.7614-2.0454 4.6034-6.8303 10.858-8.3065 10.858-0.48176 0-1.3418-0.87042-1.9111-1.9343zm8.2416 0.6061c1.8643-2.2945 3.8483-5.0098 4.409-6.0341 0.90452-1.6523 1.0901-1.5088 1.6466 1.2736 1.3493 6.7465 7.0346 4.618 6.0847-2.2781-2.1732-15.778-6.9061-22.633-15.627-22.633-5.4166 0-9.3407 2.6792-11.503 7.8537-1.7915 4.2876-1.822 16.364-0.055 21.737 2.4846 7.5555 8.9427 7.5902 15.044 0.081z"/>
  <path id="path4144" d="m104.97 126.38c1.3096-3.4445 1.0961-16.873-0.35523-22.341-0.70232-2.6461-2.2057-5.1743-3.7634-6.3287-2.401-1.7794-2.8612-1.8106-6.189-0.42021-2.4311 1.0158-4.8173 3.3429-7.3699 7.1874-2.0761 3.1269-3.8642 5.2988-3.9736 4.8265-0.10932-0.47229-0.47904-2.1254-0.82158-3.6736-0.48578-2.1955-1.1101-2.7456-2.8375-2.5-1.9862 0.28243-2.21 0.88228-2.1695 5.8149 0.069 8.3973 1.0217 11 4.0264 11 2.1536 0 3.0003-1.0121 5.6469-6.75 3.812-8.2646 6.4936-12.25 8.2426-12.25 1.9535 0 2.3776 1.8359 3.0501 13.204 0.335 5.6626 0.81559 11.308 1.068 12.546 0.64665 3.1706 4.1984 2.965 5.4455-0.3151z"/>
  <path id="path4142" d="m172.11 125.93c5.2756-18.562 9.1382-26.99 12.37-26.99 0.80517 0 1.5145 0.1125 1.5764 0.25 0.0618 0.1375 0.62432 6.325 1.25 13.75 1.1231 13.328 1.1686 13.5 3.574 13.5 3.333 0 4.4427-4.5831 3.7528-15.5-0.64049-10.136-1.7094-13.312-5.2646-15.641-2.5515-1.6718-2.8188-1.6634-6.2946 0.19828-1.9965 1.0693-5.0572 4.0794-6.8015 6.6892l-3.1715 4.7449-0.64762-2.9486c-2.3838-10.853-11.616-10.543-18.152 0.61034-2.6066 4.4479-4.3024 4.5184-4.3423 0.1805-0.0192-2.0853-1.9694-2.8439-4.2696-1.6607-1.4879 0.76533-1.6557 1.7699-1.1051 6.6149 0.94172 8.2866 1.9196 10.414 4.6111 10.032 1.7063-0.24235 3.3333-2.4558 6.7484-9.181 7.3441-14.463 10-13.437 10 3.8617 0 5.1534 0.45131 10.557 1.0029 12.008 1.2472 3.2804 4.1673 2.9878 5.1635-0.51738z"/>
 </g>
 <path id="path4138" fill="#f2eca4" d="m91.531 91.775c2.4274-1.7432 4.4135-3.5524 4.4135-4.0203 0-1.21-7.7092 2.8735-8.3316 4.4131-0.34946 0.86446-0.78289 0.93826-1.3422 0.22856-1.7878-2.2683-10.326-7.234-10.326-6.0055 0 0.48791 10.106 8.5537 10.717 8.5537 0.25074 0 2.442-1.4263 4.8694-3.1695z"/>
</svg>
