<svg xmlns="http://www.w3.org/2000/svg" viewBox="0 0 600 659.1"><g transform="translate(343.55 1066.02)"><path d="m-6.453-581.53c0 3.349 2.711 6.06 6.072 6.06 1.605 0 3.057-.608 4.151-1.635l141.61-141.61c1.015-1.076 1.635-2.541 1.635-4.151 0-3.349-2.723-6.07-6.072-6.07h.036-132.81c-8.05 0-14.624 6.577-14.624 14.618v130.75 2.03z" fill="#7abf2b"/><path d="m155.61-714.27c0-3.355-2.723-6.07-6.084-6.07-1.599 0-3 .626-4.084 1.635l-141.67 141.61c-1.021 1.088-1.653 2.553-1.653 4.151 0 3.355 2.735 6.078 6.084 6.078h132.76c8.06 0 14.642-6.576 14.642-14.636v-132.78z" fill="#00a8e0"/><path d="m-6.453-412.94v-.03c0 3.349 2.711 6.06 6.072 6.06 1.605 0 3.057-.614 4.151-1.641l.122-.109 141.38-141.37.103-.128c1.015-1.07 1.635-2.534 1.635-4.151 0-3.349-2.723-6.06-6.072-6.06h.036-132.81c-8.05 0-14.624 6.57-14.624 14.612v132.81.012z" fill="#ff0376"/><path d="m-6.453-918.62c0 3.349 2.711 6.06 6.072 6.06 1.605 0 3.057-.608 4.151-1.635l141.61-141.6c1.015-1.076 1.635-2.541 1.635-4.151 0-3.349-2.723-6.07-6.072-6.07h-132.77c-8.05 0-14.624 6.576-14.624 14.618v132.78z" fill="#ff7c7c"/><path d="m155.61-1051.4c0-3.355-2.723-6.07-6.084-6.07-1.599 0-3.069.626-4.151 1.635l-141.6 141.72c-1.021 1.088-1.653 2.553-1.653 4.151 0 3.355 2.735 6.078 6.084 6.078h132.76c8.06 0 14.642-6.576 14.642-14.636v-132.78z" fill="#ba195d"/><path d="m-343.55-581.56c0 3.349 2.711 6.07 6.072 6.07 1.605 0 3.057-.614 4.151-1.641l141.61-141.61c1.015-1.076 1.635-2.541 1.635-4.151 0-3.349-2.723-6.07-6.072-6.07h-132.77c-8.05 0-14.624 6.577-14.624 14.618v132.78z" fill="#ff3226"/><path d="m-181.48-714.31c0-3.355-2.723-6.07-6.084-6.07-1.599 0-3.069.626-4.151 1.635l-141.6 141.61c-1.021 1.088-1.653 2.553-1.653 4.151 0 3.355 2.735 6.078 6.084 6.078h132.76c8.06 0 14.642-6.576 14.642-14.636v-132.78z" fill="#ff91ae"/><path d="m-175-581.53c0 3.349 2.705 6.07 6.072 6.07 1.599 0 3.057-.614 4.151-1.641l141.61-141.61c1.015-1.076 1.635-2.541 1.635-4.151 0-3.349-2.723-6.07-6.072-6.07h-132.77c-8.05 0-14.624 6.577-14.624 14.618v132.78z" fill="#0082b7"/><path d="m-12.932-714.27c0-3.355-2.723-6.07-6.084-6.07-1.599 0-3.069.626-4.151 1.635l-141.6 141.61c-1.021 1.088-1.653 2.553-1.653 4.151 0 3.355 2.735 6.078 6.084 6.078h132.76c8.06 0 14.642-6.576 14.642-14.636v-132.78z" fill="#7accb3"/><path d="m-13.05-1051.4c0-3.355-2.723-6.07-6.084-6.07-1.599 0-3.069.626-4.151 1.635l-141.6 141.61c-1.021 1.088-1.653 2.553-1.653 4.151 0 3.355 2.735 6.078 6.084 6.078h132.76c8.06 0 14.642-6.576 14.642-14.636v-132.78z" fill="#959583"/><path d="m-6.453-750.07c0 3.349 2.711 6.07 6.072 6.07 1.605 0 3.057-.614 4.151-1.641l141.61-141.61c1.015-1.076 1.635-2.541 1.635-4.151 0-3.349-2.723-6.07-6.072-6.07h-132.77c-8.05 0-14.624 6.577-14.624 14.618v132.78z" fill="#261f5d"/><path d="m155.61-882.82c0-3.355-2.723-6.07-6.084-6.07-1.599 0-3.069.626-4.151 1.635l-141.6 141.63c-1.021 1.088-1.653 2.547-1.653 4.151 0 3.355 2.735 6.078 6.084 6.078h132.76c8.06 0 14.642-6.576 14.642-14.636v-132.78z" fill="#ffd700"/><path d="m-181.71-882.82c0-3.355-2.723-6.07-6.084-6.07-1.599 0-3.069.626-4.151 1.635l-141.6 141.61c-1.021 1.088-1.653 2.547-1.653 4.151 0 3.355 2.735 6.078 6.084 6.078h132.76c8.06 0 14.642-6.576 14.642-14.636v-132.78z" fill="#ff9000"/><path d="m-175-750.07c0 3.349 2.705 6.07 6.072 6.07 1.599 0 3.057-.614 4.151-1.641l141.61-141.61c1.015-1.076 1.635-2.541 1.635-4.151 0-3.349-2.723-6.07-6.072-6.07h-132.77c-8.05 0-14.624 6.577-14.624 14.618v132.78z" fill="#00b12e"/><path d="m-12.932-882.82c0-3.355-2.723-6.07-6.084-6.07-1.599 0-3.069.626-4.151 1.635l-141.6 141.61c-1.021 1.088-1.653 2.547-1.653 4.151 0 3.355 2.735 6.078 6.084 6.078h132.76c8.06 0 14.642-6.576 14.642-14.636v-132.78z" fill="#69b8e4"/><path d="m-93.96-606.22c-24.318 0-39.35-17.359-39.35-41.665 0-24.3 15.04-41.671 39.35-41.671 24.3 0 39.34 17.371 39.34 41.671 0 24.306-15.04 41.665-39.34 41.665m0-69.44c-15.05 0-23.16 11.579-23.16 27.771 0 16.21 8.108 27.795 23.16 27.795 15.03 0 23.15-11.585 23.15-27.795 0-16.192-8.12-27.771-23.15-27.771" fill="#dce3e1"/><path d="m256.45-609.52v-9.883c-.115-.948-.827-1.696-1.763-1.854h-36.645c-1.149-.024-2.085-.954-2.115-2.115v-16.63c.036-1.149.979-2.085 2.139-2.097h34.06c1.118-.079 1.994-1.015 1.994-2.146v-9.78c-.091-1.088-1.01-1.951-2.139-1.951v-.018h-33.885v-.024c-1.197 0-2.17-.966-2.17-2.152v-14.186c0-1.173.93-2.103 2.079-2.158h36.42c1.124-.079 2.01-.997 2.01-2.139h.012v-9.859c-.128-1.052-1.033-1.878-2.127-1.878v-.018h-52.47c-1.155.03-2.097.948-2.127 2.109v76.82c.03 1.173.985 2.103 2.152 2.103h52.42c1.179 0 2.146-.96 2.152-2.146" fill="#959583"/><g fill="#dce3e1"><path d="m105.39-620.71l-14.599-19.1s-.389-.45-.389-.669c0-.304.219-.432.553-.553l.122-.012c9.117-2.407 17.04-10.448 17.04-23.02 0-16.186-11.554-24.27-27.728-24.27l-11.159-.067h-26.14c-1.137.049-2.06.985-2.06 2.127v76.74h.018c0 1.191.954 2.152 2.158 2.164h11.883c1.149-.012 2.085-.924 2.139-2.061v-28.2c0-1.191.972-2.158 2.17-2.158 0 0 9.512-.018 10.582-.018 1.392 0 2.316 1.155 2.316 1.155l23.11 30.04s.267.432 1.039.845c.553.298 1.27.316 1.27.316h5.938l-.006-.006c1.155-.006 2.085-.906 2.146-2.042h.006v-10.272s.018.146 0-.164c-.018-.395-.419-.772-.419-.772m-24.993-32.973h-20.981c-1.197 0-2.17-.972-2.17-2.158h-.012v-16.544h.012c0-1.1.821-1.987 1.878-2.133h21.273c6.947 0 11.567 2.322 11.567 10.424 0 8.108-4.619 10.412-11.567 10.412"/><path d="m-219.12-686.25c0-1.161-.906-2.103-2.054-2.152h-15.706v.012c-.766 0-1.428.389-1.817.997l-2.559 3.847h.006l-19.438 29.27h-.012c-.377.59-1.045.985-1.817.985-.748 0-1.404-.377-1.787-.948l-19.486-29.3h.006l-2.626-3.951c-.377-.529-.979-.881-1.678-.906h-.073-15.706c-1.137.049-2.042.985-2.054 2.133v76.73h.018c0 1.197.96 2.17 2.158 2.17h11.877c1.191 0 2.158-.972 2.158-2.17h.006v-45.67l-.03-6.078c0-.802.65-1.441 1.44-1.441.462 0 .863.231 1.124.571h.012v-.012h.006l-.006.012 1.234 1.823c.012.03.024.043.049.055l15.845 23.717.024.018.061.103.006-.012c.383.626 1.064 1.045 1.854 1.045h11.184c.742 0 1.374-.383 1.769-.942l1.586-2.376 14.314-21.407.012-.012 1.343-2.01v-.012.012h.024c.267-.34.662-.571 1.118-.571.796 0 1.447.638 1.447 1.441l-.012 2.194v.049.043 49.46c0 1.197.966 2.17 2.164 2.17h11.858c1.191 0 2.158-.972 2.158-2.17h.006v-76.71h-.006"/></g></g></svg>