<svg xmlns="http://www.w3.org/2000/svg" viewBox="0 0 600 685.18"><g transform="translate(218.35 1004.62)"><path d="m132.08-500.96c0 3.484 2.815 6.305 6.312 6.305 1.666 0 3.181-.637 4.317-1.704l147.21-147.21c1.054-1.117 1.692-2.638 1.692-4.317 0-3.484-2.828-6.305-6.305-6.305h.032-138.05c-8.369 0-15.205 6.835-15.205 15.198v135.93 2.108z" fill="#7abf2b"/><path d="m300.56-638.96c0-3.484-2.828-6.305-6.324-6.305-1.666 0-3.124.65-4.248 1.704l-147.27 147.21c-1.06 1.13-1.717 2.651-1.717 4.317 0 3.484 2.84 6.318 6.324 6.318h138.02c8.375 0 15.217-6.842 15.217-15.217v-138.03z" fill="#00a8e0"/><path d="m132.08-325.71v-.038c0 3.484 2.815 6.305 6.312 6.305 1.666 0 3.181-.637 4.317-1.704l.12-.114 146.98-146.96.114-.133c1.054-1.111 1.692-2.638 1.692-4.317 0-3.478-2.828-6.299-6.305-6.299h.032-138.05c-8.369 0-15.205 6.835-15.205 15.192v138.06.013z" fill="#ff0376"/><path d="m132.08-851.39c0 3.484 2.815 6.305 6.312 6.305 1.666 0 3.181-.637 4.317-1.704l147.21-147.22c1.054-1.117 1.692-2.638 1.692-4.317 0-3.484-2.828-6.299-6.305-6.299h-138.02c-8.369 0-15.205 6.829-15.205 15.192v138.03z" fill="#ff7c7c"/><path d="m300.56-989.39c0-3.484-2.828-6.305-6.324-6.305-1.666 0-3.194.65-4.317 1.704l-147.2 147.22c-1.06 1.13-1.717 2.651-1.717 4.317 0 3.484 2.84 6.318 6.324 6.318h138.02c8.375 0 15.217-6.842 15.217-15.217v-138.03z" fill="#ba195d"/><path d="m-218.35-501c0 3.484 2.815 6.305 6.312 6.305 1.666 0 3.181-.637 4.317-1.704l147.21-147.21c1.054-1.117 1.691-2.638 1.691-4.317 0-3.478-2.828-6.299-6.305-6.299h-138.02c-8.369 0-15.205 6.835-15.205 15.192v138.03z" fill="#ff3226"/><path d="m-49.872-638.99c0-3.484-2.828-6.305-6.324-6.305-1.666 0-3.194.65-4.317 1.704l-147.21 147.22c-1.06 1.13-1.717 2.651-1.717 4.317 0 3.484 2.84 6.318 6.324 6.318h138.02c8.376 0 15.217-6.835 15.217-15.217v-138.03z" fill="#ff91ae"/><path d="m-43.13-500.96c0 3.484 2.815 6.305 6.312 6.305 1.666 0 3.181-.637 4.317-1.704l147.22-147.22c1.054-1.117 1.692-2.638 1.692-4.317 0-3.478-2.828-6.299-6.305-6.299h-138.02c-8.369 0-15.205 6.835-15.205 15.192v138.03z" fill="#0082b7"/><path d="m125.34-638.96c0-3.484-2.828-6.305-6.324-6.305-1.666 0-3.194.65-4.317 1.704l-147.2 147.21c-1.06 1.13-1.717 2.651-1.717 4.317 0 3.484 2.84 6.318 6.324 6.318h138.02c8.369 0 15.217-6.835 15.217-15.217v-138.03z" fill="#7accb3"/><path d="m125.23-989.39c0-3.484-2.828-6.305-6.324-6.305-1.666 0-3.194.65-4.317 1.704l-147.21 147.22c-1.06 1.13-1.717 2.651-1.717 4.317 0 3.484 2.84 6.318 6.324 6.318h138.02c8.376 0 15.217-6.842 15.217-15.217v-138.03z" fill="#959583"/><path d="m132.08-676.18c0 3.484 2.815 6.305 6.312 6.305 1.666 0 3.181-.637 4.317-1.704l147.21-147.21c1.054-1.117 1.692-2.638 1.692-4.317 0-3.478-2.828-6.299-6.305-6.299h-138.02c-8.369 0-15.205 6.835-15.205 15.192v138.03z" fill="#261f5d"/><path d="m300.56-814.17c0-3.484-2.828-6.305-6.324-6.305-1.666 0-3.194.65-4.317 1.704l-147.2 147.21c-1.06 1.13-1.717 2.651-1.717 4.317 0 3.484 2.84 6.318 6.324 6.318h138.02c8.375 0 15.217-6.835 15.217-15.217v-138.03z" fill="#ffd700"/><path d="m-50.11-814.17c0-3.484-2.828-6.305-6.324-6.305-1.666 0-3.194.65-4.317 1.704l-147.2 147.21c-1.06 1.13-1.717 2.651-1.717 4.317 0 3.484 2.84 6.318 6.324 6.318h138.02c8.376 0 15.217-6.835 15.217-15.217v-138.03z" fill="#ff9000"/><path d="m-43.13-676.18c0 3.484 2.815 6.305 6.312 6.305 1.666 0 3.181-.637 4.317-1.704l147.22-147.22c1.054-1.117 1.692-2.638 1.692-4.317 0-3.478-2.828-6.299-6.305-6.299h-138.02c-8.369 0-15.205 6.835-15.205 15.192v138.03z" fill="#00b12e"/><path d="m125.34-814.17c0-3.484-2.828-6.305-6.324-6.305-1.666 0-3.194.65-4.317 1.704l-147.2 147.21c-1.06 1.13-1.717 2.651-1.717 4.317 0 3.484 2.84 6.318 6.324 6.318h138.02c8.369 0 15.217-6.835 15.217-15.217v-138.03z" fill="#69b8e4"/><path d="m246.11-576.62l-.606-.606c-.265-.17-.574-.278-.903-.297l-19.212-.006c-1.016-.051-1.824-.884-1.837-1.912l-.025-19.04h-.013c0-.385-.114-.745-.309-1.048l-.562-.555c-.271-.183-.593-.29-.94-.309h-10.799c-.322.019-.625.12-.884.278l-.619.619c-.17.271-.284.587-.297.928l-.019 19.09c-.013 1.029-.833 1.894-1.849 1.944l-19.08.006v.013c-.385 0-.745.114-1.048.309l-.562.562c-.196.297-.309.644-.316 1.029v10.622c.006.372.12.72.309 1.01l.555.549c.278.189.612.309.972.328l14.04-.013h5.169c1.016.057 1.824.884 1.837 1.912l-.006 19.05h.019c0 .41.133.795.353 1.111l.461.461c.309.215.688.353 1.105.353h10.578c.385 0 .738-.12 1.035-.316l.549-.549c.189-.278.309-.612.328-.972v-19.19c.05-1.016.884-1.824 1.906-1.837l19.04-.013v-.019c.429 0 .814-.139 1.136-.372l.423-.423c.227-.316.366-.701.372-1.124v-10.578c-.006-.372-.114-.713-.297-1" fill="#dce3e1"/><path d="m381.63-606.38v-3.863c-.013-1.117-.839-2.026-1.906-2.196h-13.721s-1.231.025-2.405 1.206c-.928.928-16.852 16.846-16.852 16.846v2.493h.013v8.489c.013 1.25 1.01 2.247 2.253 2.247v.013h4.955s8.786-8.779 9.631-9.625c.846-.852 1.199 0 1.199 0v41.22l.013.006v19.12h.013c0 1.168.884 2.108 2.02 2.228h12.8c1.092-.12 1.95-1.01 2.01-2.114v-19.332-56.735h-.019" fill="#959583"/></g></svg>