<svg xmlns="http://www.w3.org/2000/svg" viewBox="0 0 600 600.19"><g transform="translate(-310.78 874.66)"><path d="m617.75-433.47c0 3.052 2.466 5.523 5.529 5.523 1.46 0 2.787-.558 3.782-1.493l128.95-128.95c.923-.979 1.482-2.311 1.482-3.782 0-3.052-2.477-5.523-5.523-5.523h.028-120.93c-7.331 0-13.319 5.988-13.319 13.313v119.07 1.847z" fill="#7abf2b"/><path d="m765.33-554.35c0-3.052-2.477-5.523-5.54-5.523-1.46 0-2.737.569-3.721 1.493l-129.01 128.95c-.929.99-1.504 2.322-1.504 3.782 0 3.052 2.488 5.534 5.54 5.534h120.9c7.337 0 13.33-5.993 13.33-13.33v-120.91z" fill="#00a8e0"/><path d="m617.75-279.96v-.033c0 3.052 2.466 5.523 5.529 5.523 1.46 0 2.787-.558 3.782-1.493l.105-.099 128.75-128.74.1-.116c.923-.973 1.482-2.311 1.482-3.782 0-3.046-2.477-5.518-5.523-5.518h.028-120.93c-7.331 0-13.319 5.988-13.319 13.308v120.93.011z" fill="#ff0376"/><path d="m617.75-740.44c0 3.052 2.466 5.523 5.529 5.523 1.46 0 2.787-.558 3.782-1.493l128.95-128.95c.923-.979 1.482-2.311 1.482-3.782 0-3.052-2.477-5.518-5.523-5.518h-120.9c-7.331 0-13.319 5.982-13.319 13.308v120.91" fill="#ff7c7c"/><path d="m765.33-861.31c0-3.052-2.477-5.523-5.54-5.523-1.46 0-2.798.569-3.782 1.493l-128.95 128.95c-.929.99-1.504 2.322-1.504 3.782 0 3.052 2.488 5.534 5.54 5.534h120.9c7.337 0 13.33-5.993 13.33-13.33v-120.91z" fill="#ba195d"/><path d="m310.78-433.5c0 3.052 2.466 5.523 5.529 5.523 1.46 0 2.786-.558 3.782-1.493l128.95-128.95c.923-.979 1.482-2.311 1.482-3.782 0-3.046-2.477-5.518-5.523-5.518h-120.9c-7.331 0-13.319 5.988-13.319 13.308v120.91" fill="#ff3226"/><path d="m458.36-554.38c0-3.052-2.477-5.523-5.54-5.523-1.46 0-2.798.569-3.782 1.493l-128.95 128.95c-.929.99-1.504 2.322-1.504 3.782 0 3.052 2.488 5.534 5.54 5.534h120.9c7.337 0 13.33-5.988 13.33-13.33v-120.91z" fill="#ff91ae"/><path d="m464.27-433.47c0 3.052 2.466 5.523 5.529 5.523 1.46 0 2.786-.558 3.782-1.493l128.95-128.95c.923-.979 1.482-2.311 1.482-3.782 0-3.046-2.477-5.518-5.523-5.518h-120.9c-7.331 0-13.319 5.988-13.319 13.308v120.91" fill="#0082b7"/><path d="m611.85-554.35c0-3.052-2.477-5.523-5.54-5.523-1.46 0-2.798.569-3.782 1.493l-128.95 128.95c-.929.99-1.504 2.322-1.504 3.782 0 3.052 2.488 5.534 5.54 5.534h120.9c7.331 0 13.33-5.988 13.33-13.33v-120.91z" fill="#7accb3"/><path d="m611.74-861.31c0-3.052-2.477-5.523-5.54-5.523-1.46 0-2.798.569-3.782 1.493l-128.94 128.95c-.929.99-1.504 2.322-1.504 3.782 0 3.052 2.488 5.534 5.54 5.534h120.9c7.337 0 13.33-5.993 13.33-13.33v-120.91z" fill="#959583"/><path d="m617.75-586.95c0 3.052 2.466 5.523 5.529 5.523 1.46 0 2.787-.558 3.782-1.493l128.95-128.96c.923-.979 1.482-2.311 1.482-3.782 0-3.046-2.477-5.518-5.523-5.518h-120.9c-7.331 0-13.319 5.988-13.319 13.308v120.91z" fill="#261f5d"/><path d="m765.33-707.83c0-3.052-2.477-5.523-5.54-5.523-1.46 0-2.798.569-3.782 1.493l-128.95 128.95c-.929.99-1.504 2.322-1.504 3.782 0 3.052 2.488 5.534 5.54 5.534h120.9c7.337 0 13.33-5.988 13.33-13.33v-120.91z" fill="#ffd700"/><path d="m458.16-707.83c0-3.052-2.477-5.523-5.54-5.523-1.46 0-2.798.569-3.782 1.493l-128.95 128.95c-.929.99-1.504 2.322-1.504 3.782 0 3.052 2.488 5.534 5.54 5.534h120.9c7.337 0 13.33-5.988 13.33-13.33v-120.91z" fill="#ff9000"/><path d="m464.27-586.95c0 3.052 2.466 5.523 5.529 5.523 1.46 0 2.786-.558 3.782-1.493l128.95-128.96c.923-.979 1.482-2.311 1.482-3.782 0-3.046-2.477-5.518-5.523-5.518h-120.9c-7.331 0-13.319 5.988-13.319 13.308v120.91z" fill="#00b12e"/><path d="m611.85-707.83c0-3.052-2.477-5.523-5.54-5.523-1.46 0-2.798.569-3.782 1.493l-128.95 128.95c-.929.99-1.504 2.322-1.504 3.782 0 3.052 2.488 5.534 5.54 5.534h120.9c7.331 0 13.33-5.988 13.33-13.33v-120.91z" fill="#69b8e4"/><path d="m874.93-530.91h-10.416-10.294v.006h-1.548c-1.095.017-1.968.885-1.968 1.974h-.011v3.544l-.017.006v20.843l-.011.017v1.161c-.006 1.095-.879 1.968-1.968 1.968l-.006.011h-3.538v-.006h-19.411v.006h-3.538v-.011c-1.089 0-1.963-.874-1.968-1.968v-.31h-.006v-25.404c-.055-.956-.785-1.719-1.731-1.836h-11.284c-.984.122-1.741.934-1.741 1.952h-.006v69.894h.006c0 1.089.874 1.963 1.968 1.974h1.548 7.735 1.554c1.05-.011 1.891-.829 1.952-1.863v-27.01l.006-.006v-.785l.011-.006c0-1.084.874-1.963 1.963-1.968l1.554-.006v.011h23.386l.006-.011 1.548.006c1.095.006 1.963.885 1.963 1.968l.017.006v3.538h-.006v20.605l.017.011v3.538h.011c0 1.089.874 1.963 1.968 1.974h1.548 10.294 10.416c26.361 0 35.854-13.711 35.854-36.915 0-23.19-9.493-36.904-35.854-36.904m1.062 61.17h-4.898-2.936-.603l-.006-.017c-1.084 0-1.963-.874-1.968-1.963v-.365l-.006-.006v-43.848-.006-.348h.011c0-1.089.874-1.963 1.968-1.974h1.548l.006.017h6.883c14.762 0 20.03 7.381 20.03 24.24 0 16.879-5.269 24.265-20.03 24.265" fill="#959583"/></g></svg>