<?xml version="1.0" encoding="UTF-8" standalone="no"?>
<!-- Created with Inkscape (http://www.inkscape.org/) -->
<svg xmlns:rdf="http://www.w3.org/1999/02/22-rdf-syntax-ns#" xmlns="http://www.w3.org/2000/svg" height="600.19" width="600" version="1.1" xmlns:cc="http://creativecommons.org/ns#" xmlns:dc="http://purl.org/dc/elements/1.1/">
 <defs></defs>
 <metadata>
  <rdf:RDF>
   <cc:Work rdf:about="">
    <dc:format>image/svg+xml</dc:format>
    <dc:type rdf:resource="http://purl.org/dc/dcmitype/StillImage"/>
    <dc:title/>
   </cc:Work>
  </rdf:RDF>
 </metadata>
 <g fill-rule="nonzero" transform="translate(-310.78307,874.65606)">
  <path d="m617.75-433.47c0,3.0518,2.4658,5.5232,5.5287,5.5232,1.4596,0,2.7865-0.5584,3.7816-1.4928l128.95-128.95c0.9233-0.97858,1.4817-2.311,1.4817-3.7816,0-3.0518-2.4769-5.5232-5.5232-5.5232h0.0276-120.93c-7.331,0-13.319,5.9876-13.319,13.313v119.07,1.8466z" fill="#7abf2b"/>
  <path d="m765.33-554.35c0-3.0518-2.4769-5.5232-5.5398-5.5232-1.4596,0-2.7367,0.56946-3.7208,1.4928l-129.01,128.95c-0.92882,0.98965-1.5038,2.3221-1.5038,3.7816,0,3.0518,2.4879,5.5342,5.5398,5.5342h120.9c7.3366,0,13.33-5.9931,13.33-13.33v-120.91z" fill="#00a8e0"/>
  <path d="m617.75-279.96,0-0.0332c0,3.0518,2.4658,5.5232,5.5287,5.5232,1.4596,0,2.7865-0.5584,3.7816-1.4928l0.10505-0.0995,128.75-128.74,0.0995-0.11611c0.9233-0.97305,1.4817-2.311,1.4817-3.7816,0-3.0463-2.4769-5.5176-5.5232-5.5176h0.0276-120.93c-7.331,0-13.319,5.9876-13.319,13.308v120.93,0.0111z" fill="#ff0376"/>
  <path d="m617.75-740.44c0,3.0518,2.4658,5.5232,5.5287,5.5232,1.4596,0,2.7865-0.5584,3.7816-1.4928l128.95-128.95c0.9233-0.97858,1.4817-2.311,1.4817-3.7816,0-3.0518-2.4769-5.5176-5.5232-5.5176h-120.9c-7.331,0-13.319,5.9821-13.319,13.308v120.91z" fill="#ff7c7c"/>
  <path d="m765.33-861.31c0-3.0518-2.4769-5.5232-5.5398-5.5232-1.4596,0-2.7975,0.56946-3.7816,1.4928l-128.95,128.95c-0.92882,0.98964-1.5038,2.3221-1.5038,3.7816,0,3.0518,2.4879,5.5342,5.5398,5.5342h120.9c7.3366,0,13.33-5.9931,13.33-13.33v-120.91z" fill="#ba195d"/>
  <path d="m310.78-433.5c0,3.0518,2.4658,5.5232,5.5287,5.5232,1.4596,0,2.7865-0.5584,3.7816-1.4928l128.95-128.95c0.92329-0.97858,1.4817-2.311,1.4817-3.7816,0-3.0463-2.4769-5.5176-5.5232-5.5176h-120.9c-7.331,0-13.319,5.9876-13.319,13.308v120.91z" fill="#ff3226"/>
  <path d="m458.36-554.38c0-3.0518-2.4769-5.5232-5.5398-5.5232-1.4596,0-2.7975,0.56946-3.7816,1.4928l-128.95,128.95c-0.92882,0.98965-1.5038,2.3221-1.5038,3.7816,0,3.0518,2.4879,5.5342,5.5398,5.5342h120.9c7.3366,0,13.33-5.9876,13.33-13.33v-120.91z" fill="#ff91ae"/>
  <path d="m464.27-433.47c0,3.0518,2.4658,5.5232,5.5287,5.5232,1.4596,0,2.7865-0.5584,3.7816-1.4928l128.95-128.95c0.92329-0.97858,1.4817-2.311,1.4817-3.7816,0-3.0463-2.4769-5.5176-5.5232-5.5176h-120.9c-7.331,0-13.319,5.9876-13.319,13.308v120.91z" fill="#0082b7"/>
  <path d="m611.85-554.35c0-3.0518-2.4769-5.5232-5.5398-5.5232-1.4596,0-2.7975,0.56946-3.7816,1.4928l-128.95,128.95c-0.92882,0.98965-1.5038,2.3221-1.5038,3.7816,0,3.0518,2.4879,5.5342,5.5398,5.5342h120.9c7.3311,0,13.33-5.9876,13.33-13.33v-120.91z" fill="#7accb3"/>
  <path d="m611.74-861.31c0-3.0518-2.4769-5.5232-5.5398-5.5232-1.4596,0-2.7975,0.56946-3.7816,1.4928l-128.94,128.95c-0.92882,0.98964-1.5038,2.3221-1.5038,3.7816,0,3.0518,2.4879,5.5342,5.5398,5.5342h120.9c7.3366,0,13.33-5.9931,13.33-13.33v-120.91z" fill="#959583"/>
  <path d="m617.75-586.95c0,3.0518,2.4658,5.5232,5.5287,5.5232,1.4596,0,2.7865-0.5584,3.7816-1.4928l128.95-128.96c0.9233-0.97858,1.4817-2.311,1.4817-3.7816,0-3.0463-2.4769-5.5176-5.5232-5.5176h-120.9c-7.331,0-13.319,5.9876-13.319,13.308v120.91z" fill="#261f5d"/>
  <path d="m765.33-707.83c0-3.0518-2.4769-5.5232-5.5398-5.5232-1.4596,0-2.7975,0.56946-3.7816,1.4928l-128.95,128.95c-0.92882,0.98964-1.5038,2.3221-1.5038,3.7816,0,3.0518,2.4879,5.5342,5.5398,5.5342h120.9c7.3366,0,13.33-5.9876,13.33-13.33v-120.91z" fill="#ffd700"/>
  <path d="m458.16-707.83c0-3.0518-2.4769-5.5232-5.5398-5.5232-1.4596,0-2.7975,0.56946-3.7816,1.4928l-128.95,128.95c-0.92882,0.98964-1.5038,2.3221-1.5038,3.7816,0,3.0518,2.4879,5.5342,5.5398,5.5342h120.9c7.3366,0,13.33-5.9876,13.33-13.33v-120.91z" fill="#ff9000"/>
  <path d="m464.27-586.95c0,3.0518,2.4658,5.5232,5.5287,5.5232,1.4596,0,2.7865-0.5584,3.7816-1.4928l128.95-128.96c0.92329-0.97858,1.4817-2.311,1.4817-3.7816,0-3.0463-2.4769-5.5176-5.5232-5.5176h-120.9c-7.331,0-13.319,5.9876-13.319,13.308v120.91z" fill="#00b12e"/>
  <path d="m611.85-707.83c0-3.0518-2.4769-5.5232-5.5398-5.5232-1.4596,0-2.7975,0.56946-3.7816,1.4928l-128.95,128.95c-0.92882,0.98964-1.5038,2.3221-1.5038,3.7816,0,3.0518,2.4879,5.5342,5.5398,5.5342h120.9c7.3311,0,13.33-5.9876,13.33-13.33v-120.91z" fill="#69b8e4"/>
  <path d="m874.93-530.91-10.416,0-10.294,0,0,0.006-1.548,0c-1.0947,0.0166-1.9682,0.88459-1.9682,1.9737h-0.0111v3.5439l-0.0166,0.006v20.843l-0.011,0.0166v1.161c-0.006,1.0947-0.87907,1.9682-1.9682,1.9682l-0.006,0.0111h-3.5384v-0.006h-19.411v0.006h-3.5384v-0.0111c-1.0892,0-1.9627-0.87354-1.9682-1.9682v-0.30961h-0.006v-25.404c-0.0553-0.95647-0.78508-1.7194-1.7305-1.8355h-11.284c-0.98411,0.12163-1.7415,0.93435-1.7415,1.9516h-0.006v69.894h0.006c0,1.0892,0.87353,1.9627,1.9682,1.9737h1.548,7.7346,1.5536c1.0504-0.0111,1.8908-0.8293,1.9516-1.8632v-27.013l0.006-0.006v-0.78508l0.0111-0.006c0-1.0836,0.87354-1.9627,1.9627-1.9682l1.5536-0.006v0.0111h23.386l0.006-0.0111,1.548,0.006c1.0947,0.006,1.9627,0.88459,1.9627,1.9682l0.0166,0.006v3.5384h-0.006v20.605l0.0166,0.0111v3.5384h0.0111c0,1.0892,0.87353,1.9627,1.9682,1.9737h1.548,10.294,10.416c26.361,0,35.854-13.711,35.854-36.915,0-23.193-9.4928-36.904-35.854-36.904m1.0615,61.17-4.8984,0-2.9357,0-0.60263,0-0.006-0.0166c-1.0836,0-1.9627-0.87353-1.9682-1.9627v-0.36489l-0.006-0.006v-43.848-0.006-0.34831h0.011c0-1.0892,0.87354-1.9627,1.9682-1.9737h1.548l0.006,0.0166h6.8832c14.762,0,20.03,7.3808,20.03,24.243,0,16.879-5.2688,24.265-20.03,24.265" fill="#959583"/>
 </g>
</svg>
