<svg xmlns="http://www.w3.org/2000/svg" viewBox="0 0 600 196.09"><g transform="matrix(.99999 0 0 .99999-189.66-310.86)"><path d="m763.05 314.39h-511.08l-.209 1.719c.093.023 8.872 2.16 11.914 7.757 1.231 2.276 1.347 4.854.325 7.687-4.389 12.356-17.976 49.49-30.355 83.33l-1.115 3.02 2.485-2.044c3.971-3.298 9.87-5.249 15.77-5.249h481.84c10.149 0 17.813 3.762 20.02 9.824l.836 2.276 31.423-89.28-.023.07c.186-.418 3.832-9.731-2.833-14.771-6.41-4.854-18.464-4.389-18.998-4.343" fill="#fff"/><g fill="#2d7bc8"><path d="m647.17 352.91c.023.07 4.157-10.892 4.087-10.892.999-2.671 1.951-3.902 4.343-4.877 2.392-.999 7.548-.418 9.662.372 6.712 2.508 7.618 8.384 4.993 12.541-2.16 3.484-5.574 5.829-9.29 7.362-.952.325-8.06 3.321-12.541 1.138-1.626-1.068-2.137-3.228-1.254-5.644m-35.603 34.791c-2.857 7.362-12.356 11.543-12.332 11.589h18.58c5.667 0 9.267-.163 13.03-4.227 1.231-1.347 1.997-3.135 2.787-5.295.023-.07 5.133-14.14 5.109-14.167 2.23-6.457 2.415-5.388 6.851-5.388 4.389 0 5.969.046 6.201 2.531.209 1.556 3.228 22.09 3.228 22.09s.116 1.254 1.719 2.717c1.835 1.649 4.389 1.649 4.389 1.649h10.265s2.044.023 2.81-1.579c.766-1.603.302-2.787.302-2.787s-3.553-18.09-4.343-21.23c-.79-3.112.557-4.413 3.042-5.62 3.553-1.695 7.92-4.784 10.289-7.362 4.436-4.808 11.03-14.03 8.175-23.991-1.812-6.317-10.01-8.988-15.677-9.963-6.758-1.161-20.879-.674-20.879-.674h-29.913s6.944 3.995 4.715 10.637c-2.206 6.666-15.491 43.732-18.347 51.07"/><path d="m705.15 393.08c-6.154 0-12.286-1.695-15.305-1.695-3.53-.023-6.619 3.6-2.648 6.457 4.04 2.903 13.145 3.716 17.906 3.855 19.88.627 37.879-4.459 45.08-19.648 1.092-2.299 1.881-4.761 2.183-7.385.232-2.09.186-4.227-.557-6.712-1.138-3.739-3.716-6.02-6.875-7.687-3.879-2.02-13.168-4.366-17.256-6.085-1.742-.72-6.782-2.88-7.339-6.689-.372-2.462.372-4.622 1.579-6.387 4.761-6.782 15.05-9.685 23.41-8.756 7.385.836 10.03.093 10.637-3.368.813-4.622-13.47-5.481-20.531-5.481-7.083 0-13.819 1.997-15.328 2.485-7.525 2.346-12.82 7.04-16.838 13.61-1.951 3.228-3.368 6.898-3.623 10.916-.186 2.996.302 6.875 2.624 9.917 3.275 4.297 16.699 8.431 21.251 10.498 1.742.79 5.736 1.997 6.735 5.504 2.137 10.799-14.841 16.652-25.11 16.652"/><path d="m418.67 389.95c12.936-4.02 22.969-20.763 26.314-33.931 3.042-11.984-.093-26.22-15.607-21.413-11.659 3.623-23.48 19.462-26.639 33.21-3.623 15.653 4.04 25.826 15.932 22.13m-9.754 11.636c-22.9 0-35.418-16.513-27.637-37.438 4.204-11.264 11.45-21.11 20.507-27.962 10.614-8.06 22.876-12.681 36.788-12.681 22.23 0 34.883 16.699 26.662 38.832-8.663 23.341-32.747 39.25-56.32 39.25"/><path d="m374.12 325.87h-6.991c-7.339 0-12.634 1.626-15.375 6.642-.023.023-20.879 28.52-20.949 28.59-5.04 7.571-11.984 13.261-12.774 2.508.023 0-3.577-24.15-3.6-24.18-1.858-10.73-6.04-13.563-10.428-13.563h-23.04s5.945 8.291 2.485 18.12c-1.742 4.947-12.936 34.396-15.1 39.97-4.413 11.38-10.219 15.282-10.219 15.282h14.539c3.437 0 5.899-3.298 9.151-12.17 1.51-4.064 10.567-28.543 10.799-29.17.093-.302.418-1.695 1.603-1.695.999 0 .929 1.44.952 1.742.766 7.107 2.833 30.726 2.973 32.422.418 5.783 3.414 8.825 7.084 8.825.023.023 7.943.023 7.92 0 3.182 0 5.597-.766 8.129-4.366 2.531-3.623 26.36-36.765 26.36-36.765.766-1.37 2.113-2.16 2.926-1.904.999.348 1.092 1.301.697 2.369-2.903 7.92-11.31 30.494-11.961 32.26-1.928 5.133-.975 8.407 3.948 8.407 3.461 0 7.362.023 10.521.023 5.597 0 7.734-5.853 8.779-8.431.883-2.16 14.19-38.599 19.718-53.58 2.601-7.316-.65-11.334-8.152-11.334"/><path d="m473.54 390.61c-.72 2.09-1.254 8.407 4.761 8.407h10.08c5.574 0 6.573-3.298 8.407-8.407 0 0 9.894-26.592 14.724-39.25 4.18-11.01 13.377-15.746 19.95-16.629 9.708-.79 10.1-1.347 11.752-5.435 2.299-5.69 2.09-5.806-9.243-5.806h-49.608c-12.239-.046-12.75-.116-15.305 5.736-1.765 4.064.697 5.504 7.409 5.504 12.681 0 13.586 11.264 11.682 16.559-1.904 5.295-14.608 39.32-14.608 39.32"/><path d="m562.98 389.95c12.936-4.02 22.969-20.763 26.314-33.931 3.042-11.984-.093-26.22-15.63-21.413-11.636 3.623-23.457 19.462-26.615 33.21-3.623 15.653 4.04 25.826 15.932 22.13m-9.754 11.636c-22.9 0-35.394-16.513-27.637-37.438 4.204-11.264 11.45-21.11 20.507-27.962 10.614-8.06 22.876-12.681 36.811-12.681 22.2 0 34.86 16.699 26.639 38.832-8.663 23.341-32.747 39.25-56.32 39.25"/><path d="m784.07 333.16l-30.61 86.976c-2.23-6.154-9.963-10.405-20.833-10.405h-481.84c-6.108 0-12.146 1.997-16.327 5.458 12.727-34.837 26.01-71.14 30.355-83.35 4.459-12.472-12.843-16.582-12.843-16.582h511.15s12.193-.534 18.417 4.157c6.178 4.715 2.532 13.749 2.532 13.749m.255-17.279c-7.06-5.342-21.11-5.02-21.11-5.02h-510.99c-2.206 0-4.18 1.649-4.575 3.832-.418 2.183.859 4.25 2.95 4.808 6.06 1.626 12.286 5.899 10.1 11.08 0 0-9.15 24.827-9.15 24.827-17.372 47.611-46.47 127.29-48.679 133.66-1.695 4.947-8.01 8.5-10.289 9.429-1.974.836-3.182 2.88-2.88 4.924.302 2.044 1.997 3.53 4.088 3.53 0 0 513.29-.023 513.45-.023 1.486.07 10.428.279 17.07-4.064 6.921-4.482 10.335-15.862 10.846-17.744.07-.209 52.39-148.89 53.04-150.68 1.997-4.831 2.926-13.401-3.879-18.557m-60.03 186.95s-.023.023-.023.023c.023-.023.023-.023.023-.023"/></g><g fill="#fff"><path d="m506.51 425.73c-.325-3.693-.372-6.247 5.249-6.247h8.105c4.25 0 6.875.232 7.711 8.338.023.023 3.437 30.471 3.414 30.471.766 10.405 7.478 4.9 12.356-2.415.046-.07 16.14-22.621 22.969-32.21 1.858-2.601 3.553-4.227 6.317-4.227s3.716.023 5.783.023 2.694 1.881.511 5.02c-10.776 15.421-42.757 61.08-44.8 63.984-2.439 3.484-4.761 4.25-7.85 4.25h-7.664c-3.53 0-6.433-2.95-6.851-8.547-.139-1.626-2.137-24.502-2.88-31.353 0-.209-1.533-17.488-2.369-27.08"/><path d="m433.11 484.39c-.697 2.02-1.231 8.129 4.599 8.129h9.754c5.388 0 6.34-3.182 8.129-8.129 0 0 9.569-25.71 14.237-37.949 4.04-10.66 12.936-15.259 19.3-16.07 9.406-.79 9.778-1.324 11.38-5.295 2.206-5.504 2.02-5.597-8.965-5.597h-47.959c-11.845-.046-12.356-.116-14.817 5.551-1.695 3.925.674 5.342 7.176 5.342 12.263 0 13.12 10.869 11.287 16-1.835 5.109-14.12 38.02-14.12 38.02"/></g></g></svg>