<svg xmlns="http://www.w3.org/2000/svg" height="78.01" width="600" viewBox="0 0 158.75 20.64068"><defs><linearGradient id="0" gradientUnits="userSpaceOnUse" x2="0" y1="104.06" y2="127.96"><stop stop-color="#08507a"/><stop stop-color="#08507a" offset=".336"/><stop stop-color="#13a1c2" offset=".749"/><stop stop-color="#66ccda" offset="1"/></linearGradient></defs><g transform="translate(-24-104.01)"><g><path d="m100.6 124.65l11-20.64h40.97l-11.15 20.64z" fill-rule="evenodd" fill="#fff"/><g fill="#d7014b"><path d="m140.6 114.03h-.27l-.15.69h-.1l.15-.69h-.27l.02-.09h.64z"/><path d="m140.7 113.94h.15l.1.67.39-.67h.14l-.16.78h-.1l.16-.68-.4.68h-.1l-.11-.68-.13.68h-.1z"/></g></g><g fill-rule="evenodd"><path d="m115.53 107.92c.4-.75 1.34-1.36 2.1-1.36h5.29l-3.55 6.66h-6.65z"/><path d="m126.34 109.89c.28-.53.95-.95 1.48-.95h3.62l-1.75 3.32c-.28.53-.95.96-1.48.96h-3.62z"/><path d="m132.4 107.08c.15-.28.51-.5.79-.5h1.89l-1.01 1.88c-.15.28-.51.5-.79.5h-1.89z"/><path d="m119.37 113.22h5.23l-2.79 5.17h-5.23z"/><path d="m121.81 118.39h3.66l-1.67 3.09c-.21.39-.7.71-1.09.71h-2.95z"/></g><g><path d="m137.41 116.52l-.4.75c-.11.21-.37.37-.58.37h-.5l1.08-2.01.33-.61c.46-.89 1.02-1.08 1.68-1.08.74 0 .84.49.52 1.09l-.03.04-.28.53-.02.03c-.27.5-.97.91-1.58.91-.08 0-.15-.001-.22-.02m.84-1.56l-.04.08-.38.7h.15c.17 0 .37-.14.46-.3l.26-.48c.06-.12.001-.22-.11-.22s-.28.1-.34.22m-7.7-.11l-1.05 1.97-.001.001c-.27.49-.96.89-1.56.89-.59 0-.86-.4-.6-.89l1.07-1.99c.27-.5.96-.89 1.56-.89s.86.4.6.89zm-2.26 1.85c-.07.13-.02.23.11.23.12 0 .28-.1.34-.23l.93-1.73c.07-.13.02-.23-.1-.23-.13 0-.28.1-.35.23zm6.34-1.85l-1.06 1.97v.001c-.27.49-.97.89-1.56.89-.6 0-.87-.4-.6-.89l1.07-1.99c.26-.5.96-.89 1.56-.89.59 0 .86.4.59.89zm-2.3 1.85c-.07.13-.02.23.11.23.12 0 .27-.1.34-.23l.93-1.73c.07-.13.02-.23-.1-.23-.13 0-.28.1-.35.23zm4.79-1.85l-.32.58h-.85l.25-.47c.07-.12.02-.22-.1-.22-.13 0-.28.1-.35.22l-.85 1.6-.08.14c-.07.13-.02.23.11.23.12 0 .27-.08.41-.35l.11-.22h-.21l.34-.64h1.07l-.59 1.1-.001.001c-.26.49-.96.89-1.55.89-.6 0-.87-.4-.6-.89l.14-.27.93-1.73c.26-.49.96-.89 1.56-.89.59 0 .86.4.59.89zm-10.46.15l-.02.04-.41.77-.78 1.46c-.07.12-.19.23-.31.3-.09.04-.18.07-.27.07h-.51l.98-1.83.44-.81c0-.001.001-.02.001-.03.05-.11-.001-.19-.12-.19-.12 0-.28.1-.35.22l-.43.81-.78 1.46c-.11.2-.37.37-.58.37h-.5l1.41-2.64c.3-.61.66-1.04 1.68-1.04h1.34c.51 0 .93.3.53 1.04l-1.21 2.27c-.11.2-.37.37-.58.37h-.5l.98-1.83.43-.81c.07-.12.02-.22-.1-.22-.13 0-.28.1-.35.22m5.08-.14l-1.01 1.88c-.06.12.02.21.14.22.09.001.19 0 .31-.05l-.41.75c-.13.04-.21.06-.35.06-.59 0-.87-.4-.61-.89l1.69-3.15c.11-.2.37-.37.57-.37h.5l-.4.74h.51l-.44.81z" fill="#d7014b"/><path d="m111.6 104.01l-.25.48h40.96l-10.63 19.69h-40.83l-.25.47h67.15c2.13 0 4.78-1.71 5.92-3.82l9.08-16.82z" fill-rule="evenodd" fill="#918f90"/><g fill="#fff"><path d="m159.04 113.83v-3.58h2.02v8.76h-2.02v-3.69h-3.11v3.69h-2.01v-8.76h2.01v3.58z"/><path d="m164.98 117.55h.85c.9 0 1.55-.27 1.9-.78s.46-1.1.46-2.18c0-1.25-.19-1.84-.62-2.3-.4-.42-.99-.58-1.97-.58h-.62zm-2.01 1.46v-8.76h2.72c1.68 0 2.79.26 3.52.99.71.69 1.07 1.78 1.07 3.35 0 1.59-.35 2.69-1.07 3.44-.66.66-1.68.98-3.25.98z"/></g></g><path fill="url(#0)" d="m26.313 104.01c-1.277 0-2.313 1.04-2.313 2.32v15.96c0 1.28 1.036 2.31 2.313 2.31 1.567.11 75.11 0 75.11 0l10.89-20.59z"/><path fill="#fff" d="m67.847 110.26h-1.69c-.14 0-.21.06-.21.2l.0001 9.49c0 .13.06.19.2.19h1.69c.15 0 .21-.06.21-.19v-9.49c0-.14-.06-.2-.21-.2m4.72 5.45c.45.17.83.31 1.28.47.97.34 1.39.61 1.39 1.21 0 .76-.65 1.17-2.11 1.17h-.05c-.82 0-1.77-.17-2.6-.43-.17-.06-.26.0001-.26.18v1.26c0 .16.03.26.2.32.79.27 1.89.43 2.78.43h.06c2.6 0 4-1.15 4-3.02v-.03c0-.72-.24-1.37-.68-1.8-.43-.43-1.08-.76-2.1-1.13-.54-.21-.96-.36-1.33-.5-.85-.3-1.08-.59-1.08-1.03 0-.71.7-.99 1.83-.99h.09c.65 0 1.44.09 2.39.27.18.03.28-.0001.28-.19v-1.3c0-.17-.05-.22-.22-.26-.62-.13-1.75-.27-2.39-.27h-.15c-1.32 0-2.3.25-2.96.82-.53.46-.88 1.16-.88 2v.06c0 .77.27 1.4.73 1.82.43.4 1.01.65 1.78.94m-32.87-5.64h-.509c-1.469 0-2.444.4-2.916.97-.474-.57-1.51-.97-2.978-.97h-.527c-1.654 0-3.01.58-3.558 1.76-.234.51-.312 1.19-.312 1.93v6.15c0 .14.079.23.218.23h1.668c.137 0 .216-.09.216-.23l.003-5.12c0-.74.018-1.27.055-1.6.097-.86.734-1.28 1.951-1.28h.14c1.217 0 1.885.42 1.981 1.28.038.33.054.86.054 1.6v5.12c0 .14.082.23.222.23h1.671c.136 0 .212-.11.212-.24l.003-5.11c0-.74.019-1.27.055-1.6.096-.86.765-1.28 1.98-1.28h.14c1.218 0 1.855.42 1.95 1.28.038.33.056.86.056 1.6v5.12c0 .14.08.23.217.23h1.672c.138 0 .215-.11.215-.24v-6.14c0-.74-.077-1.42-.313-1.93-.543-1.18-1.901-1.76-3.557-1.76m43.28 10.07c.14 0 .22-.08.22-.21v-1.41c0-.12-.08-.2-.22-.2h-.23c-.67 0-1.08-.16-1.33-.43-.34-.35-.41-.92-.41-1.6v-4.28h1.86c.14 0 .21-.05.21-.19v-1.37c0-.13-.07-.19-.21-.19h-1.86v-1.77c0-.14-.07-.19-.21-.19h-1.69c-.14 0-.21.05-.21.19v7.92c0 1.37.28 2.25.88 2.86.57.56 1.46.87 2.75.87zm-24.01 0h1.832c.158 0 .228-.05.294-.18 1.186-2.23 3-6.04 3.122-9.5.006-.14-.052-.2-.23-.2h-1.706c-.199 0-.256.07-.265.24-.079 1.26-.346 2.73-.734 4.03-.402 1.36-.911 2.64-1.401 3.6-.489-.96-.999-2.24-1.399-3.6-.392-1.31-.661-2.79-.736-4.05-.014-.18-.111-.22-.284-.22h-1.717c-.183 0-.233.09-.221.27.242 3.39 1.296 6.02 3.125 9.44.064.12.16.17.32.17m40.554-10.07h-1.13c-1.63 0-2.9.57-3.44 1.75-.24.51-.31 1.19-.31 1.92v6.21c0 .13.06.19.21.19h1.69c.14 0 .2-.06.2-.19v-5.19c0-.74.02-1.27.05-1.6.1-.86.62-1.26 1.84-1.26h.9c.14 0 .21-.08.21-.22v-1.39c0-.15-.07-.22-.22-.22m-47.35 6.57c-.164 1.6-.97 1.85-2.269 1.85h-.055c-1.297 0-2.106-.25-2.269-1.85-.048-.49-.089-.89-.089-1.44 0-.56.041-.96.089-1.45.163-1.6.972-1.85 2.269-1.85h.055c1.299 0 2.105.25 2.269 1.85.05.49.09.89.09 1.45 0 .55-.04.95-.09 1.44m1.9 1.28c.203-.67.317-1.44.317-2.72s-.114-2.06-.317-2.73c-.515-1.71-1.868-2.4-4.064-2.4h-.263c-2.196 0-3.551.69-4.066 2.4-.201.67-.315 1.45-.315 2.73s.114 2.05.315 2.72c.515 1.71 1.87 2.4 4.066 2.4h.263c2.196 0 3.549-.69 4.064-2.4m36.658-1.33c0 .74-.03 1.18-.29 1.49-.29.33-.8.48-1.48.48h-.33c-1.27 0-2-.51-2-1.48 0-.45.17-.84.451-1.08.32-.27.79-.41 1.59-.41h.18c.61 0 1.3.06 1.88.22zm.18-6.11c-.57-.24-1.42-.41-2.53-.41h-.14c-.67 0-1.591.09-2.481.25-.15.02-.2.1-.2.27v1.27c0 .15.08.21.26.18.77-.11 1.571-.2 2.191-.2h.09c.87 0 1.57.09 2 .37.42.29.63.71.63 1.63v.27c-.64-.13-1.41-.22-2.12-.22h-.18c-1.18 0-2.291.28-2.991.94-.55.5-.9 1.26-.9 2.24v.08c0 1.96 1.35 3.17 4.101 3.17h.48c1.08 0 2.11-.32 2.73-.84.71-.58.98-1.45.98-2.84v-2.83c0-1.93-.75-2.83-1.92-3.33"/></g></svg>