<svg xmlns="http://www.w3.org/2000/svg" height="65.67" width="600" viewBox="0 0 158.75 17.3749"><g transform="translate(17.11-190.16)"><path d="m6.071 194.6c-.905 0-1.646.74-1.646 1.65v9.64c0 .91.741 1.65 1.646 1.65h18.01c.904 0 1.642-.74 1.642-1.65v-9.64c0-.91-.738-1.65-1.642-1.65zm-.531 1.78h1.215c.073 0 .137.06.137.13v.86c0 .08-.063.14-.137.14h-1.215c-.077 0-.14-.06-.14-.14v-.86c0-.07.063-.13.14-.13m17.787 0h1.215c.073 0 .137.06.137.13v.86c0 .08-.064.14-.137.14h-1.215c-.077 0-.141-.06-.141-.14v-.86c0-.07.064-.13.141-.13m-13.34.92h10.178c.488 0 .885.4.885.88v5.78c0 .48-.397.88-.885.88h-10.178c-.488 0-.885-.4-.885-.88v-5.78c0-.48.398-.88.885-.88m-4.447 1.22h1.215c.073 0 .137.06.137.14v.85c0 .08-.063.14-.137.14h-1.215c-.077 0-.14-.06-.14-.14v-.85c0-.08.063-.14.14-.14m17.787 0h1.215c.073 0 .137.06.137.14v.85c0 .08-.064.14-.137.14h-1.215c-.077 0-.141-.06-.141-.14v-.85c0-.08.064-.14.141-.14m-17.787 2.14h1.215c.073 0 .137.06.137.14v.85c0 .08-.063.14-.137.14h-1.215c-.077 0-.14-.06-.14-.14v-.85c0-.08.063-.14.14-.14m17.787 0h1.215c.073 0 .137.06.137.14v.85c0 .08-.064.14-.137.14h-1.215c-.077 0-.141-.06-.141-.14v-.85c0-.08.064-.14.141-.14m-17.787 2.14h1.215c.073 0 .137.06.137.14v.86c0 .07-.063.13-.137.13h-1.215c-.077 0-.14-.06-.14-.13v-.86c0-.08.063-.14.14-.14m17.787 0h1.215c.073 0 .137.06.137.14v.86c0 .07-.064.13-.137.13h-1.215c-.077 0-.141-.06-.141-.13v-.86c0-.08.064-.14.141-.14m-17.787 2.14h1.215c.073 0 .137.07.137.14v.86c0 .07-.063.13-.137.13h-1.215c-.077 0-.14-.06-.14-.13v-.86c0-.07.063-.14.14-.14m17.787 0h1.215c.073 0 .137.07.137.14v.86c0 .07-.064.13-.137.13h-1.215c-.077 0-.141-.06-.141-.13v-.86c0-.07.064-.14.141-.14"/><path d="m86.9 191.57l-2.577.04c-.955.02-1.559.08-1.95.25-.4.19-.864.67-1.582 1.48l-6.073 6.89c-.457.54-.744.96-.858 1.35-.103.38-.133 1.09-.136 2.27v.33h9.427v.7c.027 1.09.06 1.74.531 2.13.467.28 1.309.31 2.881.33h.337v-3.16h.571c1.152-.02 1.77-.02 2.187-.35.357-.41.361-1 .387-2.07v-.34h-3.145zm-3.749 3.79v6.06h-5.401z" fill="#9db23a"/><g><path d="m120.29 194.43c-2.44 0-4.31.53-5.59 1.62-1.29 1.11-1.91 2.77-1.91 4.88 0 2.09.62 3.74 1.89 4.83s3.13 1.6 5.54 1.61h5.71v-.34c-.03-1.06-.03-1.64-.41-2.04-.43-.3-1.07-.31-2.27-.33h-3.14c-1.23 0-2.14-.27-2.74-.75-.52-.43-.81-.94-.88-1.61h7.11c1.57-.02 2.41-.04 2.88-.31.47-.37.51-1 .54-2.03 0-1.61-.57-2.96-1.69-3.94-1.22-1.07-2.92-1.59-5.04-1.59m-.28 2.63c2.24.05 3.16.79 3.25 2.56h-6.79c.001-1.38.25-2.18.38-2.23.12-.15 1.28-.35 3.16-.33"/><path d="m107.23 194.43c-2.1 0-3.62.49-4.44 1.56-.8-1.05-2.16-1.56-3.941-1.56-1.833 0-3.229.37-4.113 1.17-.047-.32-.144-.57-.374-.76-.401-.24-1.01-.24-2.184-.26h-.337v10.27c.027 1.11.05 1.76.508 2.16.46.28 1.272.31 2.797.33h.341v-7.59c-.027-1.4.177-2.26.25-2.26 0-.08.828-.28 2.17-.26.998.001 1.589.26 1.893.66.26.34.42.95.42 1.86v5.1c.03 1.11.06 1.77.53 2.16.47.28 1.29.31 2.81.33h.34v-7.59c-.03-1.4.18-2.26.25-2.26.001-.08.82-.28 2.14-.26.99.001 1.59.26 1.89.66.26.34.42.95.42 1.86v5.1c.03 1.11.06 1.77.53 2.16.47.28 1.29.31 2.81.33h.34v-7.44c0-1.65-.29-2.93-.94-3.82-.83-1.12-2.24-1.65-4.11-1.65"/><path d="m140.52 196.12c-.96-1.16-2.6-1.69-4.83-1.69-2.27.001-3.94.41-4.95 1.32-.04-.37-.13-.64-.37-.86-.41-.26-1.02-.26-2.19-.28h-.34v10.27c.03 1.09.05 1.73.51 2.13.46.28 1.27.31 2.79.33h.35v-7.06c-.03-1.67.22-2.68.35-2.74.09-.14 1.2-.36 3.01-.34 1.38 0 2.23.31 2.63.8.31.35.53 1.12.52 2.28v4.6c.03 1.09.05 1.73.51 2.13.46.28 1.27.31 2.8.33h.33v-6.85c0-1.95-.34-3.4-1.12-4.37"/><path d="m70.06 200.38c-.531-.2-1.98-.52-4.457-1.02-.775-.14-1.342-.32-1.683-.51-.35-.2-.417-.35-.417-.45 0-.38.033-.66.09-.83.053-.18.114-.22.124-.22 0-.02 1.018-.1 2.66-.09h3c1.131-.02 1.722-.02 2.136-.34.344-.4.337-.96.367-2v-.34h-5.435c-2.116 0-3.729.29-4.857.91s-1.746 1.65-1.736 2.91c0 .04 0 .08.003.12.017 1.39 1.01 2.41 2.674 2.97.111.04.411.09 1.172.26.731.17 1.823.4 3.265.72 1.553.31 2.113.8 2.073 1.2 0 .34-.03.6-.076.75-.024.07-.051.12-.061.13l.004.001c-.11.04-1.189.1-2.951.1h-3.282c-1.175.02-1.796.02-2.217.33-.367.41-.364.98-.39 2.04v.34h5.959c2.133-.001 3.802-.37 5-1.15 1.042-.66 1.626-1.6 1.619-2.7.001-1.43-.941-2.53-2.59-3.14"/><path d="m53.08 194.43c-2.43 0-4.306.53-5.588 1.62-1.285 1.11-1.91 2.77-1.91 4.88 0 2.09.622 3.74 1.893 4.83 1.269 1.09 3.129 1.6 5.536 1.61h5.715v-.34c-.03-1.06-.03-1.64-.417-2.04-.421-.3-1.062-.31-2.26-.33h-3.142c-1.235 0-2.137-.27-2.741-.75-.524-.43-.811-.94-.885-1.61h7.118c1.569-.02 2.407-.04 2.871-.31.481-.37.511-1 .537-2.03.004-1.61-.564-2.96-1.686-3.94-1.218-1.07-2.917-1.59-5.04-1.59m-.28 2.63c2.247.05 3.161.79 3.252 2.56h-6.79c.013-1.38.247-2.18.384-2.23.12-.15 1.281-.35 3.154-.33"/><path d="m44.886 190.61c-.444-.32-1.045-.45-1.793-.45-.771 0-1.385.13-1.843.45-.46.31-.704.83-.694 1.42-.001.59.234 1.1.698 1.41.454.31 1.068.43 1.839.43.748 0 1.346-.12 1.793-.43s.681-.83.674-1.41c.007-.58-.223-1.1-.674-1.42"/><path d="m41.861 194.58h-4.156l-4.14 9.44-3.01-7.08c-.491-1.11-.861-1.77-1.379-2.06-.504-.24-1.465-.29-3.121-.3h-.538l6.12 12.76h.213c1.703-.001 2.698-.07 3.219-.3.53-.28.961-.93 1.519-2.01l4.734-9.38v9.2c.03 1.11.053 1.76.507 2.16.464.28 1.275.31 2.801.33h.337v-10.36c-.027-1.07-.047-1.7-.511-2.09-.437-.26-1.202-.29-2.594-.31"/><path d="m-1.719 194.43c-2.096 0-3.622.49-4.437 1.56-.795-1.05-2.157-1.56-3.942-1.56-1.833 0-3.229.37-4.113 1.17-.047-.32-.144-.57-.374-.76-.401-.24-1.01-.24-2.18-.26h-.341v10.27c.03 1.11.05 1.76.508 2.16.464.28 1.275.31 2.801.33h.337v-7.59c-.027-1.4.177-2.26.25-2.26.004-.08.832-.28 2.17-.26.998.001 1.593.26 1.893.66.257.34.424.95.421 1.86v5.1c.03 1.11.057 1.77.531 2.16.464.28 1.289.31 2.811.33h.337v-7.59c-.023-1.4.18-2.26.254-2.26.003-.08.818-.28 2.133-.26.998.001 1.592.26 1.893.66.257.34.424.95.421 1.86v5.1c.03 1.11.057 1.77.531 2.16.464.28 1.285.31 2.811.33h.337v-7.44c0-1.65-.291-2.93-.935-3.82-.835-1.12-2.247-1.65-4.116-1.65"/></g></g></svg>