<svg xmlns="http://www.w3.org/2000/svg" height="78.73" width="600" viewBox="0 0 158.75 20.83141"><defs><linearGradient id="0" gradientUnits="userSpaceOnUse" x2="0" y1="-132.92" y2="-108.8"><stop stop-color="#08507a"/><stop stop-color="#08507a" offset=".336"/><stop stop-color="#13a1c2" offset=".749"/><stop stop-color="#66ccda" offset="1"/></linearGradient></defs><g transform="translate(514.05 132.97)"><path d="m-355.31-132.97h-21.8l-14.75 20.83h36.56v-20.83z" fill="#868484"/><g fill="#fff"><path d="m-370.87-123.07v-3.6h2.03v8.84h-2.03v-3.72h-3.14v3.72h-2.03v-8.84h2.03v3.6z"/><path d="m-364.88-119.3h.86c.91 0 1.56-.28 1.91-.79.35-.52.47-1.11.47-2.2 0-1.27-.19-1.86-.62-2.33-.41-.42-1.01-.58-2-.58h-.62zm-2.03 1.47v-8.84h2.74c1.7 0 2.82.26 3.56.99.72.7 1.08 1.8 1.08 3.39 0 1.6-.35 2.71-1.08 3.46-.66.68-1.69 1-3.28 1z"/></g><path d="m-391.86-112.14h-43.39l14.75-20.83h43.39z"/><path d="m-404.78-129.56c-1.84 1.83-4.17 3.62-7.28 3.62l-1.85 2.62h3.69l-2.69 3.79h-3.69l-2.82 3.99h-5.2l9.93-14.02h9.91" fill="#fff"/><g fill="#ef2e27"><path d="m-404.56-116.56l6.81.44-.03.04-8.86.53 2.87-4.07 8.14.49-.02.04-7.45.48-.03.04 6.8.45-.03.03-7.46.48-.02.04 6.8.45-.03.04-7.46.48z"/><path d="m-388.61-129.06l-11.32.51-.03.03 10.66.42-.02.04-11.32.5-.02.04 10.66.42-.02.03-11.33.51-.02.04 10.66.42-.02.03-11.32.51-.02.03 10.66.42-.02.04-11.33.51-.02.03 10.66.42-.02.03-11.32.51-.02.03 10.65.43-.02.03-11.32.5-.02.04 10.66.42-.02.03-11.32.51-.03.04 10.66.42-.02.04-11.31.49-.03.04 10.66.42-.03.04-12.75.57 7.11-10.04 12.02.47z"/></g><path d="m-511.71-132.97c-1.29 0-2.34 1.05-2.34 2.34v16.11c0 1.29 1.05 2.33 2.34 2.33l76.46.05 14.75-20.83h-91.21" fill="url(#0)"/><path d="m-469.79-126.66h-1.71c-.14 0-.21.06-.21.2v9.57c0 .14.07.19.21.19h1.71c.14 0 .21-.05.21-.19v-9.57c0-.14-.07-.2-.21-.2m4.76 5.5c.46.17.84.31 1.29.47.98.35 1.4.62 1.4 1.22 0 .77-.65 1.18-2.13 1.18h-.05c-.83 0-1.78-.16-2.62-.43-.17-.06-.26.0001-.26.18v1.28c0 .16.02.25.2.32.8.27 1.9.43 2.8.43h.07c2.61 0 4.03-1.17 4.03-3.05v-.03c0-.72-.23-1.38-.68-1.82-.44-.43-1.1-.76-2.12-1.14-.55-.2-.97-.36-1.35-.5-.85-.31-1.09-.6-1.09-1.04 0-.72.71-1 1.85-1h.09c.66 0 1.45.09 2.42.27.18.03.28-.0001.28-.19v-1.31c0-.17-.05-.22-.23-.26-.62-.13-1.77-.27-2.4-.27h-.16c-1.33 0-2.32.25-2.98.82-.54.47-.9 1.18-.9 2.02v.06c0 .78.27 1.41.74 1.84.43.41 1.02.66 1.8.95m-33.17-5.69h-.52c-1.48 0-2.47.39-2.94.98-.481-.59-1.531-.98-3.01-.98h-.53c-1.67 0-3.04.58-3.59 1.77-.24.51-.31 1.2-.31 1.94v6.22c0 .13.08.22.22.22h1.68c.14 0 .22-.09.22-.22v-5.17c0-.75.02-1.28.06-1.62.09-.87.74-1.29 1.96-1.29h.15c1.22 0 1.9.42 1.99 1.29.04.34.06.87.06 1.62v5.17c0 .14.08.22.22.22h1.69c.14 0 .21-.1.21-.24v-5.15c0-.75.02-1.28.05-1.62.1-.87.78-1.29 2-1.29h.14c1.23 0 1.87.42 1.97 1.29.04.34.06.87.06 1.62v5.17c0 .14.08.22.22.22h1.68c.14 0 .22-.1.22-.24v-6.2c0-.74-.08-1.43-.32-1.94-.54-1.19-1.91-1.77-3.58-1.77m43.67 10.15c.15 0 .23-.07.23-.2v-1.42c0-.13-.08-.21-.23-.21h-.23c-.67 0-1.09-.16-1.34-.43-.34-.36-.41-.93-.41-1.62v-4.31h1.88c.14 0 .21-.06.21-.2v-1.38c0-.14-.07-.19-.21-.19h-1.88v-1.79c0-.14-.07-.19-.21-.19h-1.71c-.14 0-.21.05-.21.19v7.99c0 1.39.28 2.28.89 2.89.57.56 1.47.87 2.77.87zm-24.23 0h1.85c.16 0 .23-.05.3-.17 1.19-2.25 3.02-6.1 3.15-9.59 0-.14-.06-.2-.24-.2h-1.72c-.2 0-.26.06-.26.24-.08 1.27-.35 2.75-.75 4.07-.4 1.37-.92 2.67-1.41 3.63-.49-.96-1.01-2.26-1.41-3.63-.4-1.33-.67-2.82-.74-4.09-.02-.18-.12-.22-.29-.22h-1.73c-.19 0-.24.09-.23.27.25 3.42 1.31 6.08 3.16 9.53.06.12.16.16.32.16m40.93-10.15h-1.14c-1.64 0-2.93.57-3.48 1.76-.23.51-.31 1.2-.31 1.94v6.26c0 .14.07.19.21.19h1.71c.14 0 .2-.05.2-.19v-5.24c0-.74.02-1.27.06-1.61.09-.86.62-1.27 1.85-1.27h.91c.14 0 .21-.08.21-.22v-1.4c0-.15-.07-.22-.22-.22m-47.79 6.62c-.16 1.62-.98 1.87-2.29 1.87h-.05c-1.31 0-2.13-.25-2.29-1.87-.05-.49-.09-.89-.09-1.45s.04-.97.09-1.46c.16-1.61.98-1.86 2.29-1.86h.05c1.31 0 2.13.25 2.29 1.86.05.49.09.9.09 1.46s-.04.96-.09 1.45m1.92 1.3c.2-.68.32-1.46.32-2.75s-.12-2.07-.32-2.75c-.52-1.73-1.88-2.42-4.1-2.42h-.27c-2.21 0-3.58.69-4.1 2.42-.2.68-.32 1.46-.32 2.75s.12 2.07.32 2.75c.52 1.73 1.89 2.42 4.1 2.42h.27c2.22 0 3.58-.69 4.1-2.42m37-1.34c0 .74-.03 1.19-.3 1.5-.29.33-.8.48-1.49.48h-.33c-1.28 0-2.02-.51-2.02-1.49 0-.45.18-.85.45-1.09.32-.28.8-.41 1.61-.41h.18c.61 0 1.32.06 1.9.21zm.17-6.17c-.56-.25-1.43-.41-2.55-.41h-.13c-.68 0-1.61.08-2.5.24-.16.03-.21.11-.21.28v1.28c0 .16.08.21.26.19.78-.12 1.59-.2 2.21-.2h.09c.88 0 1.59.08 2.02.36.43.29.64.72.64 1.65v.27c-.65-.13-1.43-.22-2.14-.22h-.19c-1.19 0-2.3.28-3.01.95-.55.51-.91 1.28-.91 2.26v.08c0 1.98 1.36 3.2 4.13 3.2h.5c1.09 0 2.12-.33 2.75-.84.71-.6.99-1.47.99-2.87v-2.86c0-1.95-.76-2.85-1.95-3.36" fill="#fff"/></g></svg>