<svg xmlns="http://www.w3.org/2000/svg" height="96.33" width="600" viewBox="0 0 158.75 25.486541"><defs><linearGradient id="0" gradientUnits="userSpaceOnUse" x2="0" y1="11.951" y2="41.462"><stop stop-color="#08507a"/><stop stop-color="#08507a" offset=".336"/><stop stop-color="#13a1c2" offset=".749"/><stop stop-color="#66ccda" offset="1"/></linearGradient></defs><g transform="translate(-51.05-11.889)"><g><path d="m159.22 11.891l-13.59 25.484h.2l.27-.585h44.93c2.51 0 5.63-2.023 6.98-4.501l10.69-19.813h-49.59l.31-.586h50.39z" fill-rule="evenodd" fill="#fff"/><g fill="#d7014b"><path d="m195.02 24.26h-.32l-.18.855h-.13l.18-.855h-.33l.03-.109h.78z"/><path d="m195.15 24.15h.18l.13.825.48-.825h.18l-.2.958h-.13l.2-.84-.49.84h-.13l-.12-.84h-.001l-.17.84h-.12z"/></g></g><g fill-rule="evenodd"><path d="m164.07 16.714c.5-.925 1.66-1.676 2.6-1.676h6.52l-4.37 8.215h-8.22z"/><path d="m177.42 19.15c.35-.653 1.17-1.182 1.83-1.182h4.47l-2.16 4.098c-.35.656-1.17 1.185-1.83 1.185h-4.47z"/><path d="m184.91 15.682c.18-.348.62-.626.97-.626h2.33l-1.25 2.319c-.18.346-.62.625-.97.625h-2.34z"/><path d="m168.82 23.25h6.45l-3.45 6.39h-6.45z"/><path d="m171.82 29.642h4.53l-2.06 3.822c-.26.478-.86.868-1.35.868h-3.65z"/></g><path d="m191.09 27.333l-.5.931c-.13.252-.45.458-.7.458h-.62l1.33-2.482.4-.753c.57-1.104 1.26-1.344 2.08-1.344.92 0 1.03.604.64 1.349l-.03.053-.35.649-.03.043c-.33.619-1.2 1.118-1.95 1.118-.1 0-.19-.007-.27-.022m1.04-1.921l-.06.09-.46.864h.19c.2 0 .45-.165.56-.367l.32-.587c.08-.154.02-.275-.13-.275s-.34.121-.42.275m-9.51-.135l-1.3 2.422-.001.014c-.33.612-1.19 1.105-1.92 1.105-.74 0-1.07-.492-.74-1.101l1.32-2.459c.33-.611 1.19-1.103 1.92-1.103.74 0 1.07.494.74 1.103zm-2.79 2.283c-.08.15-.02.274.13.274s.35-.124.43-.274l1.15-2.143c.08-.154.02-.277-.13-.277-.16 0-.35.123-.43.277zm7.82-2.283l-1.3 2.422-.001.014c-.32.612-1.19 1.105-1.92 1.105-.74 0-1.07-.492-.74-1.101l1.32-2.459c.33-.611 1.19-1.103 1.92-1.103.74 0 1.07.494.74 1.103zm-2.83 2.283c-.08.15-.03.274.13.274.15 0 .34-.124.42-.274l1.15-2.143c.09-.154.03-.277-.12-.277-.16 0-.35.123-.43.277zm5.91-2.293l-.39.726h-1.05l.31-.587c.08-.151.02-.275-.13-.275s-.34.124-.42.275l-1.06 1.978-.1.176c-.08.15-.02.274.13.274.16 0 .35-.098.51-.431l.14-.267h-.26l.42-.792h1.32l-.72 1.355-.001.014c-.33.612-1.19 1.105-1.93 1.105-.73 0-1.06-.492-.74-1.101l.18-.333 1.15-2.136c.32-.612 1.18-1.105 1.92-1.105.73 0 1.07.496.74 1.105zm-12.92.193l-.02.042-.51.959-.96 1.795c-.08.152-.23.284-.39.37-.1.056-.22.093-.33.093h-.62l1.21-2.258.54-1c0-.012.001-.026.02-.039.05-.134-.001-.239-.15-.239-.16 0-.35.124-.43.278l-.54 1-.96 1.795c-.14.256-.46.463-.71.463h-.63l1.75-3.259c.37-.761.81-1.283 2.07-1.283h1.65c.63 0 1.15.364.66 1.283l-1.49 2.796c-.14.256-.46.463-.72.463h-.62l1.21-2.258.53-1c.09-.15.03-.278-.13-.278-.15 0-.34.128-.43.278m6.27-.171l-1.24 2.315c-.08.151.02.26.18.274.11.001.23-.002.38-.062l-.5.931c-.17.047-.27.071-.44.071-.73 0-1.08-.491-.75-1.099l2.09-3.889c.13-.254.45-.459.7-.459h.61l-.49.914h.63l-.54 1z" fill="#d7014b"/><path d="m159.42 11.891l-.31.586h49.59l-10.69 19.813c-1.35 2.478-4.47 4.501-6.98 4.501h-44.93l-.27.585s45.46 0 45.46 0c2.62 0 5.89-2.12 7.31-4.718l11.21-20.767z" fill-rule="evenodd" fill="#918f90"/><g stroke-width="1.235"><path fill="url(#0)" d="m53.911 11.889c-1.577 0-2.856 1.285-2.856 2.865v19.708c0 1.581 1.279 2.853 2.856 2.853 1.935.136 92.74 0 92.74 0l13.45-25.425z"/><path fill="#fff" d="m105.2 19.607h-2.09c-.17 0-.26.074-.26.247l.001 11.718c0 .16.08.234.25.234h2.09c.18 0 .26-.074.26-.234v-11.718c0-.173-.08-.247-.26-.247m5.82 6.729c.56.21 1.03.383 1.59.581 1.19.419 1.71.753 1.71 1.494 0 .938-.8 1.444-2.6 1.444h-.07c-1.01 0-2.18-.21-3.21-.531-.21-.074-.32.013-.32.223v1.555c0 .198.04.322.25.396.98.333 2.33.531 3.43.531h.08c3.21 0 4.94-1.42 4.94-3.729v-.038c0-.889-.3-1.691-.84-2.222-.53-.531-1.34-.939-2.6-1.395-.66-.26-1.18-.445-1.64-.617-1.05-.371-1.33-.729-1.33-1.272 0-.877.86-1.223 2.26-1.223h.11c.8 0 1.78.111 2.95.334.22.037.34-.013.34-.235v-1.605c0-.21-.06-.272-.27-.321-.76-.161-2.16-.334-2.95-.334h-.18c-1.63 0-2.84.309-3.66 1.013-.65.568-1.08 1.432-1.08 2.47v.074c0 .95.33 1.728.9 2.247.53.493 1.24.802 2.19 1.16m-40.582-6.964h-.629c-1.814 0-3.02.494-3.602 1.198h-.012c-.584-.704-1.863-1.198-3.675-1.198h-.65c-2.043 0-3.72.717-4.394 2.174-.289.629-.385 1.469-.385 2.383v7.593c0 .173.097.284.269.284h2.06c.169 0 .266-.111.266-.284l.004-6.322c0-.913.022-1.568.068-1.975.12-1.062.906-1.581 2.409-1.581h.173c1.502 0 2.326.519 2.445 1.581.047.407.067 1.062.067 1.975v6.322c0 .173.101.284.274.284h2.064c.168 0 .262-.136.262-.296l.004-6.31c0-.913.023-1.568.068-1.975.118-1.062.944-1.581 2.445-1.581h.172c1.504 0 2.291.519 2.408 1.581.047.407.069 1.062.069 1.975v6.322c0 .173.099.284.268.284h2.065c.17 0 .265-.136.265-.296v-7.581c0-.914-.095-1.754-.386-2.383-.671-1.457-2.347-2.174-4.392-2.174m53.44 12.435c.17 0 .27-.099.27-.26v-1.741c0-.148-.1-.247-.27-.247h-.29c-.82 0-1.33-.197-1.64-.531-.42-.432-.5-1.136-.5-1.975v-5.285h2.29c.18 0 .26-.062.26-.235v-1.691c0-.161-.08-.235-.26-.235h-2.29v-2.185c0-.173-.09-.235-.26-.235h-2.09c-.17 0-.26.062-.26.235v9.779c0 1.691.35 2.778 1.09 3.531.7.692 1.8 1.075 3.39 1.075zm-29.652 0h2.262c.195 0 .282-.062.363-.223 1.465-2.753 3.707-7.457 3.857-11.73.001-.173-.07-.247-.29-.247h-2.102c-.246 0-.316.087-.328.297-.097 1.555-.427 3.371-.906 4.975-.496 1.68-1.125 3.26-1.73 4.446-.604-1.186-1.233-2.766-1.727-4.446-.484-1.617-.816-3.444-.909-5-.017-.222-.137-.272-.351-.272h-2.12c-.226 0-.288.111-.273.334.299 4.186 1.601 7.433 3.859 11.656.079.148.198.21.395.21m50.07-12.435h-1.39c-2.02 0-3.58.704-4.25 2.161-.3.63-.38 1.47-.38 2.371v7.668c0 .16.07.234.26.234h2.08c.18 0 .25-.074.25-.234v-6.409c0-.914.02-1.568.06-1.975.13-1.062.77-1.556 2.27-1.556h1.12c.17 0 .25-.099.25-.272v-1.716c0-.185-.08-.272-.27-.272m-58.46 8.113c-.202 1.975-1.198 2.284-2.802 2.284h-.068c-1.601 0-2.6-.309-2.801-2.284-.06-.605-.11-1.099-.11-1.778 0-.692.05-1.186.11-1.791.201-1.975 1.2-2.284 2.801-2.284h.068c1.604 0 2.6.309 2.802 2.284.062.605.111 1.099.111 1.791 0 .679-.049 1.173-.111 1.778m2.346 1.58c.251-.827.392-1.778.392-3.358 0-1.581-.141-2.544-.392-3.371-.636-2.112-2.306-2.964-5.02-2.964h-.325c-2.711 0-4.384.852-5.02 2.964-.248.827-.389 1.79-.389 3.371 0 1.58.141 2.531.389 3.358.636 2.112 2.309 2.964 5.02 2.964h.325c2.712 0 4.382-.852 5.02-2.964m45.27-1.642c0 .914-.04 1.457-.36 1.84-.36.407-.99.592-1.83.592h-.4c-1.57 0-2.47-.629-2.47-1.827 0-.556.21-1.037.55-1.334.4-.333.98-.506 1.97-.506h.22c.75 0 1.6.074 2.32.272zm.22-7.544c-.7-.297-1.75-.507-3.12-.507h-.18c-.82 0-1.96.112-3.06.309-.18.025-.25.124-.25.333v1.569c0 .185.1.259.33.222.95-.136 1.94-.247 2.7-.247h.11c1.08 0 1.94.111 2.47.457.52.358.78.877.78 2.01v.333c-.79-.161-1.74-.272-2.62-.272h-.22c-1.46 0-2.83.346-3.69 1.161-.68.617-1.12 1.555-1.12 2.766v.098c0 2.42 1.67 3.915 5.07 3.915h.59c1.33 0 2.61-.396 3.37-1.038.88-.716 1.21-1.79 1.21-3.506v-3.494c0-2.384-.92-3.495-2.37-4.112"/></g></g></svg>