<?xml version="1.0" encoding="UTF-8" standalone="no"?>
<svg xmlns:rdf="http://www.w3.org/1999/02/22-rdf-syntax-ns#" xmlns="http://www.w3.org/2000/svg" xmlns:cc="http://creativecommons.org/ns#" xmlns:dc="http://purl.org/dc/elements/1.1/" height="78.012" width="600" version="1.1" viewBox="0 0 158.75 20.64068">
  <defs>
    <linearGradient id="a" gradientUnits="userSpaceOnUse" gradientTransform="matrix(-.0000010645 23.9 -23.9 -.0000010645 80.357 104.06)" x1="0" x2="1" y1="0" y2="0">
      <stop stop-color="#08507a" offset="0"/>
      <stop stop-color="#08507a" offset=".33605"/>
      <stop stop-color="#13a1c2" offset=".74876"/>
      <stop stop-color="#66ccda" offset="1"/>
    </linearGradient>
  </defs>
  <g transform="translate(-24 -104.01)">
    <g>
      <path d="m100.6 124.65 11-20.64h40.97l-11.15 20.64z" fill-rule="evenodd" fill="#fff"/>
      <path d="m140.6 114.03h-0.27l-0.15 0.69h-0.1l0.15-0.69h-0.27l0.02-0.09h0.64z" fill="#d7014b"/>
      <path d="m140.7 113.94h0.15l0.1 0.67 0.39-0.67h0.14l-0.16 0.78h-0.1l0.16-0.68-0.4 0.68h-0.1l-0.11-0.68-0.13 0.68h-0.1z" fill="#d7014b"/>
    </g>
    <g fill-rule="evenodd">
      <path d="m115.53 107.92c0.4-0.75 1.34-1.36 2.1-1.36h5.29l-3.55 6.66h-6.65z"/>
      <path d="m126.34 109.89c0.28-0.53 0.95-0.95 1.48-0.95h3.62l-1.75 3.32c-0.28 0.53-0.95 0.96-1.48 0.96h-3.62z"/>
      <path d="m132.4 107.08c0.15-0.28 0.51-0.5 0.79-0.5h1.89l-1.01 1.88c-0.15 0.28-0.51 0.5-0.79 0.5h-1.89z"/>
      <path d="m119.37 113.22h5.23l-2.79 5.17h-5.23z"/>
      <path d="m121.81 118.39h3.66l-1.67 3.09c-0.21 0.39-0.7 0.71-1.09 0.71h-2.95z"/>
    </g>
    <g>
      <path d="m137.41 116.52-0.4 0.75c-0.11 0.21-0.37 0.37-0.58 0.37h-0.5l1.08-2.01 0.33-0.61c0.46-0.89 1.02-1.08 1.68-1.08 0.74 0 0.84 0.49 0.52 1.09l-0.03 0.04-0.28 0.53-0.02 0.03c-0.27 0.5-0.97 0.91-1.58 0.91-0.08 0-0.15-0.01-0.22-0.02m0.84-1.56-0.04 0.08-0.38 0.7h0.15c0.17 0 0.37-0.14 0.46-0.3l0.26-0.48c0.06-0.12 0.01-0.22-0.11-0.22s-0.28 0.1-0.34 0.22m-7.7-0.11-1.05 1.97-0.01 0.01c-0.27 0.49-0.96 0.89-1.56 0.89-0.59 0-0.86-0.4-0.6-0.89l1.07-1.99c0.27-0.5 0.96-0.89 1.56-0.89s0.86 0.4 0.6 0.89zm-2.26 1.85c-0.07 0.13-0.02 0.23 0.11 0.23 0.12 0 0.28-0.1 0.34-0.23l0.93-1.73c0.07-0.13 0.02-0.23-0.1-0.23-0.13 0-0.28 0.1-0.35 0.23zm6.34-1.85-1.06 1.97v0.01c-0.27 0.49-0.97 0.89-1.56 0.89-0.6 0-0.87-0.4-0.6-0.89l1.07-1.99c0.26-0.5 0.96-0.89 1.56-0.89 0.59 0 0.86 0.4 0.59 0.89zm-2.3 1.85c-0.07 0.13-0.02 0.23 0.11 0.23 0.12 0 0.27-0.1 0.34-0.23l0.93-1.73c0.07-0.13 0.02-0.23-0.1-0.23-0.13 0-0.28 0.1-0.35 0.23zm4.79-1.85-0.32 0.58h-0.85l0.25-0.47c0.07-0.12 0.02-0.22-0.1-0.22-0.13 0-0.28 0.1-0.35 0.22l-0.85 1.6-0.08 0.14c-0.07 0.13-0.02 0.23 0.11 0.23 0.12 0 0.27-0.08 0.41-0.35l0.11-0.22h-0.21l0.34-0.64h1.07l-0.59 1.1-0.01 0.01c-0.26 0.49-0.96 0.89-1.55 0.89-0.6 0-0.87-0.4-0.6-0.89l0.14-0.27 0.93-1.73c0.26-0.49 0.96-0.89 1.56-0.89 0.59 0 0.86 0.4 0.59 0.89zm-10.46 0.15-0.02 0.04-0.41 0.77-0.78 1.46c-0.07 0.12-0.19 0.23-0.31 0.3-0.09 0.04-0.18 0.07-0.27 0.07h-0.51l0.98-1.83 0.44-0.81c0-0.01 0.01-0.02 0.01-0.03 0.05-0.11-0.01-0.19-0.12-0.19-0.12 0-0.28 0.1-0.35 0.22l-0.43 0.81-0.78 1.46c-0.11 0.2-0.37 0.37-0.58 0.37h-0.5l1.41-2.64c0.3-0.61 0.66-1.04 1.68-1.04h1.34c0.51 0 0.93 0.3 0.53 1.04l-1.21 2.27c-0.11 0.2-0.37 0.37-0.58 0.37h-0.5l0.98-1.83 0.43-0.81c0.07-0.12 0.02-0.22-0.1-0.22-0.13 0-0.28 0.1-0.35 0.22m5.08-0.14-1.01 1.88c-0.06 0.12 0.02 0.21 0.14 0.22 0.09 0.01 0.19 0 0.31-0.05l-0.41 0.75c-0.13 0.04-0.21 0.06-0.35 0.06-0.59 0-0.87-0.4-0.61-0.89l1.69-3.15c0.11-0.2 0.37-0.37 0.57-0.37h0.5l-0.4 0.74h0.51l-0.44 0.81z" fill="#d7014b"/>
      <path d="m111.6 104.01-0.25 0.48h40.96l-10.63 19.69h-40.83l-0.25 0.47h67.15c2.13 0 4.78-1.71 5.92-3.82l9.08-16.82z" fill-rule="evenodd" fill="#918f90"/>
      <path d="m159.04 113.83v-3.58h2.02v8.76h-2.02v-3.69h-3.11v3.69h-2.01v-8.76h2.01v3.58z" fill="#fff"/>
      <path d="m164.98 117.55h0.85c0.9 0 1.55-0.27 1.9-0.78s0.46-1.1 0.46-2.18c0-1.25-0.19-1.84-0.62-2.3-0.4-0.42-0.99-0.58-1.97-0.58h-0.62zm-2.01 1.46v-8.76h2.72c1.68 0 2.79 0.26 3.52 0.99 0.71 0.69 1.07 1.78 1.07 3.35 0 1.59-0.35 2.69-1.07 3.44-0.66 0.66-1.68 0.98-3.25 0.98z" fill="#fff"/>
    </g>
    <path fill="url(#a)" d="m26.313 104.01c-1.277 0-2.313 1.04-2.313 2.32v15.96c0 1.28 1.036 2.31 2.313 2.31 1.567 0.11 75.107 0 75.107 0l10.89-20.59z"/>
    <path fill="#fff" d="m67.847 110.26h-1.69c-0.14 0-0.21 0.06-0.21 0.2l0.01 9.49c0 0.13 0.06 0.19 0.2 0.19h1.69c0.15 0 0.21-0.06 0.21-0.19v-9.49c0-0.14-0.06-0.2-0.21-0.2m4.72 5.45c0.45 0.17 0.83 0.31 1.28 0.47 0.97 0.34 1.39 0.61 1.39 1.21 0 0.76-0.65 1.17-2.11 1.17h-0.05c-0.82 0-1.77-0.17-2.6-0.43-0.17-0.06-0.26 0.01-0.26 0.18v1.26c0 0.16 0.03 0.26 0.2 0.32 0.79 0.27 1.89 0.43 2.78 0.43h0.06c2.6 0 4-1.15 4-3.02v-0.03c0-0.72-0.24-1.37-0.68-1.8-0.43-0.43-1.08-0.76-2.1-1.13-0.54-0.21-0.96-0.36-1.33-0.5-0.85-0.3-1.08-0.59-1.08-1.03 0-0.71 0.7-0.99 1.83-0.99h0.09c0.65 0 1.44 0.09 2.39 0.27 0.18 0.03 0.28-0.01 0.28-0.19v-1.3c0-0.17-0.05-0.22-0.22-0.26-0.62-0.13-1.75-0.27-2.39-0.27h-0.15c-1.32 0-2.3 0.25-2.96 0.82-0.53 0.46-0.88 1.16-0.88 2v0.06c0 0.77 0.27 1.4 0.73 1.82 0.43 0.4 1.01 0.65 1.78 0.94m-32.87-5.64h-0.509c-1.469 0-2.444 0.4-2.916 0.97h-0.01c-0.473-0.57-1.509-0.97-2.977-0.97h-0.527c-1.654 0-3.012 0.58-3.558 1.76-0.234 0.51-0.312 1.19-0.312 1.93v6.15c0 0.14 0.079 0.23 0.218 0.23h1.668c0.137 0 0.216-0.09 0.216-0.23l0.003-5.12c0-0.74 0.018-1.27 0.055-1.6 0.097-0.86 0.734-1.28 1.951-1.28h0.14c1.217 0 1.885 0.42 1.981 1.28 0.038 0.33 0.054 0.86 0.054 1.6v5.12c0 0.14 0.082 0.23 0.222 0.23h1.671c0.136 0 0.212-0.11 0.212-0.24l0.003-5.11c0-0.74 0.019-1.27 0.055-1.6 0.096-0.86 0.765-1.28 1.98-1.28h0.14c1.218 0 1.855 0.42 1.95 1.28 0.038 0.33 0.056 0.86 0.056 1.6v5.12c0 0.14 0.08 0.23 0.217 0.23h1.672c0.138 0 0.215-0.11 0.215-0.24v-6.14c0-0.74-0.077-1.42-0.313-1.93-0.543-1.18-1.901-1.76-3.557-1.76m43.28 10.07c0.14 0 0.22-0.08 0.22-0.21v-1.41c0-0.12-0.08-0.2-0.22-0.2h-0.23c-0.67 0-1.08-0.16-1.33-0.43-0.34-0.35-0.41-0.92-0.41-1.6v-4.28h1.86c0.14 0 0.21-0.05 0.21-0.19v-1.37c0-0.13-0.07-0.19-0.21-0.19h-1.86v-1.77c0-0.14-0.07-0.19-0.21-0.19h-1.69c-0.14 0-0.21 0.05-0.21 0.19v7.92c0 1.37 0.28 2.25 0.88 2.86 0.57 0.56 1.46 0.87 2.75 0.87zm-24.013 0h1.832c0.158 0 0.228-0.05 0.294-0.18 1.186-2.23 3-6.04 3.122-9.5 0.006-0.14-0.052-0.2-0.23-0.2h-1.706c-0.199 0-0.256 0.07-0.265 0.24-0.079 1.26-0.346 2.73-0.734 4.03-0.402 1.36-0.911 2.64-1.401 3.6-0.489-0.96-0.999-2.24-1.399-3.6-0.392-1.31-0.661-2.79-0.736-4.05-0.014-0.18-0.111-0.22-0.284-0.22h-1.717c-0.183 0-0.233 0.09-0.221 0.27 0.242 3.39 1.296 6.02 3.125 9.44 0.064 0.12 0.16 0.17 0.32 0.17m40.554-10.07h-1.13c-1.63 0-2.9 0.57-3.44 1.75-0.24 0.51-0.31 1.19-0.31 1.92v6.21c0 0.13 0.06 0.19 0.21 0.19h1.69c0.14 0 0.2-0.06 0.2-0.19v-5.19c0-0.74 0.02-1.27 0.05-1.6 0.1-0.86 0.62-1.26 1.84-1.26h0.9c0.14 0 0.21-0.08 0.21-0.22v-1.39c0-0.15-0.07-0.22-0.22-0.22m-47.348 6.57c-0.164 1.6-0.97 1.85-2.269 1.85h-0.055c-1.297 0-2.106-0.25-2.269-1.85-0.048-0.49-0.089-0.89-0.089-1.44 0-0.56 0.041-0.96 0.089-1.45 0.163-1.6 0.972-1.85 2.269-1.85h0.055c1.299 0 2.105 0.25 2.269 1.85 0.05 0.49 0.09 0.89 0.09 1.45 0 0.55-0.04 0.95-0.09 1.44m1.9 1.28c0.203-0.67 0.317-1.44 0.317-2.72s-0.114-2.06-0.317-2.73c-0.515-1.71-1.868-2.4-4.064-2.4h-0.263c-2.196 0-3.551 0.69-4.066 2.4-0.201 0.67-0.315 1.45-0.315 2.73s0.114 2.05 0.315 2.72c0.515 1.71 1.87 2.4 4.066 2.4h0.263c2.196 0 3.549-0.69 4.064-2.4m36.658-1.33c0 0.74-0.03 1.18-0.29 1.49-0.29 0.33-0.8 0.48-1.48 0.48h-0.33c-1.27 0-2.001-0.51-2.001-1.48 0-0.45 0.17-0.84 0.451-1.08 0.32-0.27 0.79-0.41 1.59-0.41h0.18c0.61 0 1.3 0.06 1.88 0.22zm0.18-6.11c-0.57-0.24-1.42-0.41-2.53-0.41h-0.14c-0.67 0-1.591 0.09-2.481 0.25-0.15 0.02-0.2 0.1-0.2 0.27v1.27c0 0.15 0.08 0.21 0.26 0.18 0.77-0.11 1.571-0.2 2.191-0.2h0.09c0.87 0 1.57 0.09 2 0.37 0.42 0.29 0.63 0.71 0.63 1.63v0.27c-0.64-0.13-1.41-0.22-2.12-0.22h-0.18c-1.18 0-2.291 0.28-2.991 0.94-0.55 0.5-0.9 1.26-0.9 2.24v0.08c0 1.96 1.35 3.17 4.101 3.17h0.48c1.08 0 2.11-0.32 2.73-0.84 0.71-0.58 0.98-1.45 0.98-2.84v-2.83c0-1.93-0.75-2.83-1.92-3.33"/>
  </g>
</svg>
