<?xml version="1.0" encoding="UTF-8" standalone="no"?>
<svg xmlns:rdf="http://www.w3.org/1999/02/22-rdf-syntax-ns#" xmlns="http://www.w3.org/2000/svg" xmlns:cc="http://creativecommons.org/ns#" xmlns:dc="http://purl.org/dc/elements/1.1/" height="96.327" width="600" version="1.1" viewBox="0 0 158.75 25.486541">
  <defs>
    <linearGradient id="a" gradientUnits="userSpaceOnUse" gradientTransform="matrix(-.0000013144 29.511 -29.511 -.0000013144 120.64 11.951)" x1="0" x2="1" y1="0" y2="0">
      <stop stop-color="#08507a" offset="0"/>
      <stop stop-color="#08507a" offset=".33605"/>
      <stop stop-color="#13a1c2" offset=".74876"/>
      <stop stop-color="#66ccda" offset="1"/>
    </linearGradient>
  </defs>
  <g transform="translate(-51.055 -11.889)">
    <g>
      <path d="m159.22 11.891-13.59 25.484h0.2l0.27-0.585 44.93 0.001c2.51 0 5.63-2.023 6.98-4.501l10.69-19.813h-49.59l0.31-0.586h50.39z" fill-rule="evenodd" fill="#fff"/>
      <path d="m195.02 24.258h-0.32l-0.18 0.855h-0.13l0.18-0.855h-0.33l0.03-0.109h0.78z" fill="#d7014b"/>
      <path d="m195.15 24.152h0.18l0.13 0.825 0.48-0.825h0.18l-0.2 0.958h-0.13l0.2-0.84-0.49 0.84h-0.13l-0.12-0.84h-0.01l-0.17 0.84h-0.12z" fill="#d7014b"/>
    </g>
    <g fill-rule="evenodd">
      <path d="m164.07 16.714c0.5-0.925 1.66-1.676 2.6-1.676h6.52l-4.37 8.215h-8.22z"/>
      <path d="m177.42 19.152c0.35-0.653 1.17-1.182 1.83-1.182h4.47l-2.16 4.098c-0.35 0.656-1.17 1.185-1.83 1.185h-4.47z"/>
      <path d="m184.91 15.682c0.18-0.348 0.62-0.626 0.97-0.626h2.33l-1.25 2.319c-0.18 0.346-0.62 0.625-0.97 0.625h-2.34z"/>
      <path d="m168.82 23.253h6.45l-3.45 6.39h-6.45z"/>
      <path d="m171.82 29.642h4.53l-2.06 3.822c-0.26 0.478-0.86 0.868-1.35 0.868h-3.65z"/>
    </g>
    <path d="m191.09 27.333-0.5 0.931c-0.13 0.252-0.45 0.458-0.7 0.458h-0.62l1.33-2.482 0.4-0.753c0.57-1.104 1.26-1.344 2.08-1.344 0.92 0 1.03 0.604 0.64 1.349l-0.03 0.053-0.35 0.649-0.03 0.043c-0.33 0.619-1.2 1.118-1.95 1.118-0.1 0-0.19-0.007-0.27-0.022m1.04-1.921-0.06 0.09-0.46 0.864h0.19c0.2 0 0.45-0.165 0.56-0.367l0.32-0.587c0.08-0.154 0.02-0.275-0.13-0.275s-0.34 0.121-0.42 0.275m-9.51-0.135-1.3 2.422-0.01 0.014c-0.33 0.612-1.19 1.105-1.92 1.105-0.74 0-1.07-0.492-0.74-1.101l1.32-2.459c0.33-0.611 1.19-1.103 1.92-1.103 0.74 0 1.07 0.494 0.74 1.103zm-2.79 2.283c-0.08 0.15-0.02 0.274 0.13 0.274s0.35-0.124 0.43-0.274l1.15-2.143c0.08-0.154 0.02-0.277-0.13-0.277-0.16 0-0.35 0.123-0.43 0.277zm7.82-2.283-1.3 2.422-0.01 0.014c-0.32 0.612-1.19 1.105-1.92 1.105-0.74 0-1.07-0.492-0.74-1.101l1.32-2.459c0.33-0.611 1.19-1.103 1.92-1.103 0.74 0 1.07 0.494 0.74 1.103zm-2.83 2.283c-0.08 0.15-0.03 0.274 0.13 0.274 0.15 0 0.34-0.124 0.42-0.274l1.15-2.143c0.09-0.154 0.03-0.277-0.12-0.277-0.16 0-0.35 0.123-0.43 0.277zm5.91-2.293-0.39 0.726h-1.05l0.31-0.587c0.08-0.151 0.02-0.275-0.13-0.275s-0.34 0.124-0.42 0.275l-1.06 1.978-0.1 0.176c-0.08 0.15-0.02 0.274 0.13 0.274 0.16 0 0.35-0.098 0.51-0.431l0.14-0.267h-0.26l0.42-0.792h1.32l-0.72 1.355-0.01 0.014c-0.33 0.612-1.19 1.105-1.93 1.105-0.73 0-1.06-0.492-0.74-1.101l0.18-0.333 1.15-2.136c0.32-0.612 1.18-1.105 1.92-1.105 0.73 0 1.07 0.496 0.74 1.105zm-12.92 0.193-0.02 0.042-0.51 0.959-0.96 1.795c-0.08 0.152-0.23 0.284-0.39 0.37-0.1 0.056-0.22 0.093-0.33 0.093h-0.62l1.21-2.258 0.54-1.001c0-0.012 0.01-0.026 0.02-0.039 0.05-0.134-0.01-0.239-0.15-0.239-0.16 0-0.35 0.124-0.43 0.278l-0.54 1.001-0.96 1.795c-0.14 0.256-0.46 0.463-0.71 0.463h-0.63l1.75-3.259c0.37-0.761 0.81-1.283 2.07-1.283h1.65c0.63 0 1.15 0.364 0.66 1.283l-1.49 2.796c-0.14 0.256-0.46 0.463-0.72 0.463h-0.62l1.21-2.258 0.53-1.001c0.09-0.15 0.03-0.278-0.13-0.278-0.15 0-0.34 0.128-0.43 0.278m6.27-0.171-1.24 2.315c-0.08 0.151 0.02 0.26 0.18 0.274 0.11 0.01 0.23-0.002 0.38-0.062l-0.5 0.931c-0.17 0.047-0.27 0.071-0.44 0.071-0.73 0-1.08-0.491-0.75-1.099l2.09-3.889c0.13-0.254 0.45-0.459 0.7-0.459h0.61l-0.49 0.914h0.63l-0.54 1.004z" fill="#d7014b"/>
    <path d="m159.42 11.891-0.31 0.586h49.59l-10.69 19.813c-1.35 2.478-4.47 4.501-6.98 4.501l-44.93-0.001-0.27 0.585s45.46 0.001 45.46 0.001c2.62 0 5.89-2.12 7.31-4.718l11.21-20.767z" fill-rule="evenodd" fill="#918f90"/>
    <path stroke-width="1.2348" fill="url(#a)" d="m53.911 11.889c-1.577 0-2.856 1.285-2.856 2.865v19.708c0 1.581 1.279 2.853 2.856 2.853 1.935 0.136 92.739 0 92.739 0l13.45-25.425z"/>
    <path stroke-width="1.2348" fill="#fff" d="m105.2 19.607h-2.09c-0.17 0-0.26 0.074-0.26 0.247l0.01 11.718c0 0.16 0.08 0.234 0.25 0.234h2.09c0.18 0 0.26-0.074 0.26-0.234v-11.718c0-0.173-0.08-0.247-0.26-0.247m5.82 6.729c0.56 0.21 1.03 0.383 1.59 0.581 1.19 0.419 1.71 0.753 1.71 1.494 0 0.938-0.8 1.444-2.6 1.444h-0.07c-1.01 0-2.18-0.21-3.21-0.531-0.21-0.074-0.32 0.013-0.32 0.223v1.555c0 0.198 0.04 0.322 0.25 0.396 0.98 0.333 2.33 0.531 3.43 0.531h0.08c3.21 0 4.94-1.42 4.94-3.729v-0.038c0-0.889-0.3-1.691-0.84-2.222-0.53-0.531-1.34-0.939-2.6-1.395-0.66-0.26-1.18-0.445-1.64-0.617-1.05-0.371-1.33-0.729-1.33-1.272 0-0.877 0.86-1.223 2.26-1.223h0.11c0.8 0 1.78 0.111 2.95 0.334 0.22 0.037 0.34-0.013 0.34-0.235v-1.605c0-0.21-0.06-0.272-0.27-0.321-0.76-0.161-2.16-0.334-2.95-0.334h-0.18c-1.63 0-2.84 0.309-3.66 1.013-0.65 0.568-1.08 1.432-1.08 2.47v0.074c0 0.95 0.33 1.728 0.9 2.247 0.53 0.493 1.24 0.802 2.19 1.16m-40.582-6.964h-0.629c-1.814 0-3.017 0.494-3.602 1.198h-0.012c-0.584-0.704-1.863-1.198-3.675-1.198h-0.65c-2.043 0-3.72 0.717-4.394 2.174-0.289 0.629-0.385 1.469-0.385 2.383v7.593c0 0.173 0.097 0.284 0.269 0.284h2.06c0.169 0 0.266-0.111 0.266-0.284l0.004-6.322c0-0.913 0.022-1.568 0.068-1.975 0.12-1.062 0.906-1.581 2.409-1.581h0.173c1.502 0 2.326 0.519 2.445 1.581 0.047 0.407 0.067 1.062 0.067 1.975v6.322c0 0.173 0.101 0.284 0.274 0.284h2.064c0.168 0 0.262-0.136 0.262-0.296l0.004-6.31c0-0.913 0.023-1.568 0.068-1.975 0.118-1.062 0.944-1.581 2.445-1.581h0.172c1.504 0 2.291 0.519 2.408 1.581 0.047 0.407 0.069 1.062 0.069 1.975v6.322c0 0.173 0.099 0.284 0.268 0.284h2.065c0.17 0 0.265-0.136 0.265-0.296v-7.581c0-0.914-0.095-1.754-0.386-2.383-0.671-1.457-2.347-2.174-4.392-2.174m53.442 12.435c0.17 0 0.27-0.099 0.27-0.26v-1.741c0-0.148-0.1-0.247-0.27-0.247h-0.29c-0.82 0-1.33-0.197-1.64-0.531-0.42-0.432-0.5-1.136-0.5-1.975v-5.285h2.29c0.18 0 0.26-0.062 0.26-0.235v-1.691c0-0.161-0.08-0.235-0.26-0.235h-2.29v-2.185c0-0.173-0.09-0.235-0.26-0.235h-2.09c-0.17 0-0.26 0.062-0.26 0.235v9.779c0 1.691 0.35 2.778 1.09 3.531 0.7 0.692 1.8 1.075 3.39 1.075zm-29.652 0h2.262c0.195 0 0.282-0.062 0.363-0.223 1.465-2.753 3.707-7.457 3.857-11.73 0.01-0.173-0.07-0.247-0.29-0.247h-2.102c-0.246 0-0.316 0.087-0.328 0.297-0.097 1.555-0.427 3.371-0.906 4.975-0.496 1.68-1.125 3.26-1.73 4.446-0.604-1.186-1.233-2.766-1.727-4.446-0.484-1.617-0.816-3.444-0.909-5-0.017-0.222-0.137-0.272-0.351-0.272h-2.12c-0.226 0-0.288 0.111-0.273 0.334 0.299 4.186 1.601 7.433 3.859 11.656 0.079 0.148 0.198 0.21 0.395 0.21m50.072-12.435h-1.39c-2.02 0-3.58 0.704-4.25 2.161-0.3 0.63-0.38 1.47-0.38 2.371v7.668c0 0.16 0.07 0.234 0.26 0.234h2.08c0.18 0 0.25-0.074 0.25-0.234v-6.409c0-0.914 0.02-1.568 0.06-1.975 0.13-1.062 0.77-1.556 2.27-1.556h1.12c0.17 0 0.25-0.099 0.25-0.272v-1.716c0-0.185-0.08-0.272-0.27-0.272m-58.461 8.113c-0.202 1.975-1.198 2.284-2.802 2.284h-0.068c-1.601 0-2.6-0.309-2.801-2.284-0.06-0.605-0.11-1.099-0.11-1.778 0-0.692 0.05-1.186 0.11-1.791 0.201-1.975 1.2-2.284 2.801-2.284h0.068c1.604 0 2.6 0.309 2.802 2.284 0.062 0.605 0.111 1.099 0.111 1.791 0 0.679-0.049 1.173-0.111 1.778m2.346 1.58c0.251-0.827 0.392-1.778 0.392-3.358 0-1.581-0.141-2.544-0.392-3.371-0.636-2.112-2.306-2.964-5.018-2.964h-0.325c-2.711 0-4.384 0.852-5.02 2.964-0.248 0.827-0.389 1.79-0.389 3.371 0 1.58 0.141 2.531 0.389 3.358 0.636 2.112 2.309 2.964 5.02 2.964h0.325c2.712 0 4.382-0.852 5.018-2.964m45.265-1.642c0 0.914-0.04 1.457-0.36 1.84-0.36 0.407-0.99 0.592-1.83 0.592h-0.4c-1.57 0-2.47-0.629-2.47-1.827 0-0.556 0.21-1.037 0.55-1.334 0.4-0.333 0.98-0.506 1.97-0.506h0.22c0.75 0 1.6 0.074 2.32 0.272zm0.22-7.544c-0.7-0.297-1.75-0.507-3.12-0.507h-0.18c-0.82 0-1.96 0.112-3.06 0.309-0.18 0.025-0.25 0.124-0.25 0.333v1.569c0 0.185 0.1 0.259 0.33 0.222 0.95-0.136 1.94-0.247 2.7-0.247h0.11c1.08 0 1.94 0.111 2.47 0.457 0.52 0.358 0.78 0.877 0.78 2.013v0.333c-0.79-0.161-1.74-0.272-2.62-0.272h-0.22c-1.46 0-2.83 0.346-3.69 1.161-0.68 0.617-1.12 1.555-1.12 2.766v0.098c0 2.42 1.67 3.915 5.07 3.915h0.59c1.33 0 2.61-0.396 3.37-1.038 0.88-0.716 1.21-1.79 1.21-3.506v-3.494c0-2.384-0.92-3.495-2.37-4.112"/>
  </g>
</svg>
