<svg xmlns="http://www.w3.org/2000/svg" height="91.28" width="600" viewBox="0 0 158.75 24.149881"><defs><linearGradient id="0" gradientUnits="userSpaceOnUse" x2="0" y1="-134.57" y2="-106.61"><stop stop-color="#08507a"/><stop stop-color="#08507a" offset=".336"/><stop stop-color="#13a1c2" offset=".749"/><stop stop-color="#66ccda" offset="1"/></linearGradient></defs><g transform="translate(524.95 134.63)"><path d="m-383.31-110.48h-50.3l17.11-24.15h50.3z"/><path d="m-398.28-130.68c-2.14 2.13-4.83 4.2-8.44 4.2l-2.15 3.04 4.28-.001-3.12 4.41h-4.27l-3.27 4.61h-6.03l11.51-16.25h11.49" fill="#fff"/><g fill="#ef2e27"><path d="m-398.02-115.61l7.89.52-.03.04-10.28.62 3.33-4.73 9.44.58-.03.04-8.63.56-.04.04 7.88.52-.03.04-8.64.56-.03.05 7.88.51-.03.05-8.65.56z"/><path d="m-379.54-130.09l-13.12.59-.03.03 12.36.49-.03.04-13.12.59-.03.04 12.37.48-.03.04-13.13.6-.03.04 12.37.48-.03.04-13.13.59-.02.04 12.36.49-.03.03-13.12.6-.03.03 12.36.49-.03.04-13.12.59-.03.04 12.36.49-.03.03-13.13.59v.04l12.36.49-.03.04-13.13.58-.02.05 12.35.49-.02.04-13.12.58-.03.04 12.36.49-.03.04-14.79.66 8.24-11.64 13.94.55z"/></g><path d="m-522.25-134.63c-1.49 0-2.7 1.21-2.7 2.71v18.68c0 1.49 1.21 2.71 2.7 2.71l88.64.05 17.11-24.15h-105.75" fill="url(#0)"/><path d="m-473.65-127.31h-1.98c-.16 0-.24.06-.24.22v11.1c0 .16.08.23.25.23h1.97c.17 0 .25-.07.25-.23v-11.1c0-.16-.08-.22-.25-.22m5.52 6.37c.53.19.97.36 1.5.55 1.13.4 1.62.72 1.62 1.41 0 .89-.76 1.37-2.46 1.37h-.06c-.97 0-2.07-.19-3.04-.5-.2-.06-.31.0001-.31.21v1.48c0 .18.03.3.24.37.92.32 2.2.5 3.24.5h.08c3.03 0 4.68-1.35 4.68-3.53v-.03c0-.85-.28-1.61-.79-2.11s-1.28-.89-2.46-1.33c-.64-.23-1.13-.41-1.56-.57-.99-.37-1.27-.7-1.27-1.21 0-.84.82-1.17 2.15-1.17l.1.0001c.76 0 1.68.1 2.8.31.21.04.33-.0001.33-.22v-1.52c0-.2-.06-.25-.26-.3-.73-.15-2.05-.32-2.79-.32h-.18c-1.55 0-2.7.29-3.46.96-.63.54-1.04 1.36-1.04 2.34v.07c0 .9.31 1.64.85 2.13.51.47 1.18.76 2.09 1.1m-38.46-6.6h-.59c-1.72 0-2.86.46-3.42 1.14-.551-.68-1.761-1.14-3.481-1.14h-.62c-1.93 0-3.52.68-4.16 2.06-.27.59-.37 1.39-.37 2.25v7.2c0 .16.1.27.26.27h1.95c.16 0 .25-.11.25-.27v-5.99c0-.86.02-1.49.06-1.87.11-1.01.86-1.5 2.28-1.5h.17c1.42 0 2.2.49 2.31 1.5.05.38.07 1.01.07 1.87v6c0 .15.09.26.26.26h1.95c.16 0 .25-.12.25-.28v-5.98c0-.86.02-1.49.06-1.87.11-1.01.9-1.5 2.32-1.5h.16c1.43 0 2.17.49 2.28 1.5.05.38.07 1.01.07 1.87v6c0 .16.09.26.25.26h1.96c.16 0 .25-.12.25-.28v-7.19c0-.86-.09-1.66-.37-2.25-.63-1.38-2.22-2.06-4.16-2.06m50.64 11.78c.16 0 .26-.09.26-.24v-1.65c0-.15-.1-.24-.26-.24h-.27c-.78 0-1.27-.19-1.56-.5-.39-.41-.47-1.08-.47-1.87v-5.01h2.17c.17 0 .25-.06.25-.22v-1.6c0-.16-.08-.22-.25-.22h-2.17v-2.08c0-.16-.08-.22-.25-.22h-1.98c-.16 0-.24.06-.24.22v9.27c0 1.61.32 2.63 1.03 3.34.67.66 1.7 1.02 3.21 1.02zm-28.1 0h2.15c.18 0 .26-.06.34-.2 1.39-2.61 3.51-7.08 3.65-11.12.0001-.17-.06-.23-.26-.23h-2c-.23 0-.3.07-.31.28-.09 1.47-.41 3.18-.86 4.71-.47 1.58-1.07 3.09-1.64 4.21-.57-1.12-1.17-2.63-1.64-4.21-.45-1.54-.77-3.26-.86-4.74-.0001-.21-.13-.25-.33-.25h-2.01c-.21 0-.27.09-.26.31.29 3.97 1.52 7.05 3.66 11.05.07.14.19.19.37.19m47.45-11.78h-1.32c-1.9 0-3.39.66-4.03 2.04-.27.6-.36 1.4-.36 2.26v7.25c0 .16.08.23.24.23h1.98c.17 0 .24-.07.24-.23v-6.07c0-.85.02-1.48.06-1.87.12-1 .73-1.47 2.15-1.47h1.05c.17 0 .25-.09.25-.26v-1.62c0-.17-.09-.26-.26-.26m-55.39 7.68c-.2 1.88-1.14 2.17-2.66 2.17h-.06c-1.52 0-2.47-.29-2.66-2.17-.05-.56-.1-1.03-.1-1.68s.05-1.12.1-1.69c.19-1.87 1.14-2.16 2.66-2.16h.06c1.52 0 2.46.29 2.66 2.16.05.57.1 1.04.1 1.69s-.05 1.12-.1 1.68m2.22 1.5c.23-.78.37-1.68.37-3.18s-.14-2.4-.37-3.19c-.6-2-2.19-2.81-4.76-2.81h-.3c-2.57 0-4.16.81-4.76 2.81-.24.79-.37 1.69-.37 3.19s.13 2.4.37 3.18c.6 2.01 2.19 2.81 4.76 2.81h.3c2.57 0 4.16-.8 4.76-2.81m42.89-1.55c0 .87-.03 1.38-.35 1.74-.33.38-.92.56-1.72.56h-.39c-1.48 0-2.34-.59-2.34-1.73 0-.52.21-.98.52-1.26.38-.32.93-.48 1.87-.48h.21c.71 0 1.53.07 2.2.25zm.2-7.15c-.65-.29-1.66-.48-2.95-.48h-.16c-.79 0-1.87.1-2.9.29-.18.03-.25.12-.25.32v1.48c0 .18.1.25.31.22.91-.14 1.85-.23 2.56-.23h.11c1.02 0 1.84.09 2.34.42.49.34.74.83.74 1.91v.32c-.75-.16-1.65-.27-2.48-.27h-.22c-1.38 0-2.67.34-3.49 1.1-.64.6-1.06 1.49-1.06 2.63v.1c0 2.29 1.59 3.7 4.8 3.7h.57c1.26 0 2.46-.38 3.19-.98.83-.68 1.15-1.7 1.15-3.32v-3.31c0-2.26-.88-3.31-2.26-3.9" fill="#fff"/></g></svg>