<svg xmlns="http://www.w3.org/2000/svg" viewBox="0 0 600 353.12"><g fill="#fff" transform="translate(.008.011)"><path d="m403.15 353.1c-1.02-8.826-2.296-21.529-2.296-32.701 0-6.938.918-34.844.918-57.34 0-18.978-4.081-52.7-4.081-71.01 0-11.02.816-25.968-.408-31.22 8.775-5.714 16.478-9.336 40.661-24.03 7.856-4.744 22.855-12.754 22.855-22.396 0-4.285-1.173-7.091-7.244-12.09-4.285-3.418-8.826-4.387-13.978-4.387-12.346 0-17.957 12.346-28.26 18.672-15.814 9.642-24.18 14.437-27.396 16.223-1.326-.612-6.683-3.775-15.304-3.775-9.03 0-19.539 4.03-19.539 15.763 0 5.357 1.683 11.173-5.459 14.947-4.03 2.551-23.672 13.774-44.588 26.376-17.6 10.662-25.815 9.795-33.26 14.284-6.836 4.132-8.673 9.285-8.673 13.774 0 3.979 2.551 8.979 3.418 10.1 4.745 6.071 8.979 9.336 16.427 9.336 12.652 0 23.11-11.02 42.649-24.896 12.142-8.673 23.315-17.651 29.844-17.651 5.816 0 9.897 4.387 9.897 22.498 0 60.56-3.724 70.15-3.724 112.18 0 7.55.306 21.529.561 27.345h-32.13v-99.23l-61.832 52.14-61.832-52.14v99.23h-200.4v-353.11h195.08l67.13 70.66 67.14-70.66h196.05v150.95c-6.224 9.591-25.15 42.04-37.905 75.2-4.183 10.815-6.122 18.621-11.581 18.621-6.071 0-6.581-5.969-7.142-11.275-1.224-11.632-3.826-33.31-5-41.27-2.347-15.457-5.408-31.783-22.651-31.783-12.805 0-26.17 6.989-26.17 26.07 0 10.815 5.459 29.641 14.845 54.38 3.673 9.744 23.315 61.22 26.17 68.67 5.153 13.672 12.397 17.396 23.57 17.396 14.386 0 19.335-5.255 25.25-25.406 5-17.14 13.52-45.15 20.61-62.65v114.18h-122.28zm168.2-195.95v195.95h-32.24v-143.35c6.887-14.947 23.519-41.12 32.24-52.597m-32.24-26.12v-131.01l32.24 19.386v71.73c-7.908 8.265-24.488 28.417-32.24 39.895m-259.11-98.87l-17.76 18.673-48.11-50.61 61.02 26.835 4.847 5.102zm2.143 274.93h22.243l6.02-5v-18.774l-28.26 23.774zm-68.06 46.02h26.529v-47.44l-26.529-22.345v69.79"/><path d="m575.13 340.43h10.254v1.939h-4.03v10.713h-2.194v-10.713h-4.03v-1.939"/><path d="m586.83 340.43h3.112l3.52 9.897 3.418-9.897h3.112v12.652h-2.143v-9.744l-3.52 9.744h-1.837l-3.52-9.744h-.051v9.744h-2.092v-12.652"/></g></svg>