<svg xmlns="http://www.w3.org/2000/svg" height="140.52" width="600" viewBox="0 0 158.75 37.17975"><g transform="translate(343.58-148.01)"><g fill="#858588"><path d="m-324.97 183.14c-9.13 0-16.56-7.42-16.56-16.55 0-9.12 7.43-16.54 16.56-16.54s16.56 7.42 16.56 16.54c0 9.13-7.43 16.55-16.56 16.55m0-35.13c-10.26 0-18.61 8.33-18.61 18.58 0 10.26 8.35 18.59 18.61 18.59s18.61-8.33 18.61-18.59c0-10.25-8.35-18.58-18.61-18.58"/><path d="m-313.01 162.77l-2.1 5.34-1.67-5.13h-2.72l3.15 7.87h2.31s2.2-4.4 2.27-4.57c.55-1.2-.08-2.83-1.24-3.51"/><path d="m-320.89 169.17c-.73 0-.95-.65-.95-1.19v-3.1h1.89v-1.9h-1.89v-2.38h-.16c-1.15 0-2.29.89-2.29 2.38v4.87c0 .5.06.93.16 1.34.34 1.36 1.64 1.94 2.87 1.94.8 0 1.54-.23 2.23-.7l-.71-1.68c-.16.11-.52.42-1.15.42"/><path d="m-328.16 162.8c-1.08 0-2.02.38-2.67 1.09-.42-.58-1.09-1.09-2.29-1.09-.88 0-1.97.57-2.36 1.23l-.11-1.23h-.16c-1.09.03-2.16.88-2.16 2.08v5.97h2.45v-4.23c0-.5.14-.92.43-1.24s.66-.49 1.13-.49c.42 0 .73.13.94.39s.31.62.31 1.09v4.48h2.36v-4.23c0-.5.15-.92.43-1.24s.66-.49 1.14-.49c.41 0 .73.13.94.39s.31.62.31 1.09v4.48h2.45v-4.87c0-.98-.27-1.76-.81-2.33s-1.31-.85-2.33-.85"/></g><path d="m-184.83 182.13v-7.53h-15.03v-23.5h-8.6v29.63l-12.52-29.63h-8.48l-13.11 31.03h9.04l2.22-5.54h11.96l2.26 5.54zm-37-12.23h-6.96l3.5-8.82zm-22.18-11.26h9.31v-7.54h-24.04c5.29 3.37 8.63 9.16 8.63 15.79v.1c0 5.96-2.9 11.98-7.55 15.14h13.65zm-16.44 8.46v-.11c0-5.27-3.81-9.87-9.4-9.87-5.53 0-9.24 4.5-9.24 9.77v.1c0 5.28 3.81 9.87 9.35 9.87 5.58 0 9.29-4.49 9.29-9.76m-20.28-16h-23.35v7.54h9.3v23.49h12.78v-.05c-4.62-3.44-7.47-8.85-7.47-14.98v-.11c0-6.64 3.39-12.49 8.75-15.89" fill="#0f2b53"/></g></svg>