<svg xmlns="http://www.w3.org/2000/svg" height="135.91" width="600" viewBox="0 0 158.75 35.960532"><g transform="translate(372.11-207.23)"><path d="m-232.01 220.18h2.54v-3.48h3.25v3.48h2.54v-9.16h-2.54v3.43h-3.25v-3.43h-2.54zm9.95 0h3.48c3.3 0 5.22-1.96 5.22-4.61v-.02c0-2.64-1.9-4.53-5.16-4.53h-3.54zm2.54-2.25v-4.66h1.03c1.52 0 2.52.85 2.52 2.32v.02c0 1.48-1 2.32-2.52 2.32z" fill="#858588"/><path d="m-282.36 228.98l2.61-6.93 2.61 6.93zm37.09-3.99l9.25-13.94h-10.64l-4.16 6.8-4.11-6.8h-10.84l9.25 14.02-7.66 11.5-10.76-25.73h-9.45l-10.76 25.72v-25.51h-9.94l-6.12 10.02-6.11-10.02h-9.94v28.52h9.33v-14.14l6.56 10.15h.16l6.57-10.15v14.14h18.42l1.46-3.83h9.98l1.51 3.83h17.73l4.56-7.41 4.52 7.41h10.84z" fill="#fff"/><g fill="#858588"><path d="m-354.1 207.23c-9.94 0-18.01 8.07-18.01 17.98s8.07 17.98 18.01 17.98c9.92 0 17.99-8.07 17.99-17.98s-8.07-17.98-17.99-17.98m0 33.98c-8.84 0-16.03-7.17-16.03-16 0-8.82 7.19-16 16.03-16 8.83 0 16.01 7.18 16.01 16 0 8.83-7.18 16-16.01 16"/><path d="m-342.54 221.51l-2.03 5.16-1.62-4.96h-2.63l3.05 7.61h2.23s2.13-4.25 2.2-4.41c.53-1.17-.08-2.74-1.2-3.4"/><path d="m-350.16 227.7c-.71 0-.92-.63-.92-1.15v-3h1.82v-1.83h-1.82v-2.31h-.16c-1.1 0-2.21.86-2.21 2.3v4.71c0 .49.05.9.15 1.29.33 1.32 1.59 1.89 2.78 1.89.77 0 1.49-.23 2.16-.68l-.69-1.62c-.15.1-.5.4-1.11.4"/><path d="m-357.2 221.54c-1.04 0-1.95.37-2.58 1.05-.4-.56-1.05-1.05-2.21-1.05-.85 0-1.91.55-2.28 1.19l-.11-1.19h-.15c-1.06.03-2.09.85-2.09 2.01v5.77h2.36v-4.09c0-.48.14-.88.42-1.19.28-.32.65-.48 1.09-.48.41 0 .71.13.91.38s.31.6.31 1.05v4.33h2.28v-4.09c0-.48.14-.88.41-1.19.27-.32.64-.48 1.1-.48.41 0 .71.13.91.38s.31.6.31 1.05v4.33h2.36v-4.7c0-.95-.26-1.7-.78-2.26-.52-.55-1.27-.82-2.26-.82"/></g></g></svg>