<svg xmlns="http://www.w3.org/2000/svg" height="145.88" width="600" viewBox="0 0 158.75 38.596588"><g transform="translate(268.36-238.37)"><g fill="#8cd024"><path d="m-229.86 276.69v-4.95c.31.04.67.04.98.04 1.45 0 2.2-.62 2.2-2.47v-19.98h7.46v20.3c0 5.38-2.75 7.33-7.58 7.33-1.17 0-2.15-.15-3.06-.27"/><path d="m-216.64 263.22v-13.89h7.46v11.5c0 2.32 1.22 3.58 3.02 3.58 1.77 0 3.11-1.26 3.11-3.58v-11.5h7.45v21.24h-7.45v-2.91c-1.38 1.77-3.34 3.38-6.36 3.38-4.52 0-7.23-2.99-7.23-7.82"/><path d="m-192.74 249.33h7.46v2.99c1.37-1.77 3.33-3.46 6.36-3.46 4.51 0 7.21 2.99 7.21 7.81v13.9h-7.45v-11.5c0-2.32-1.22-3.58-2.99-3.58-1.8 0-3.13 1.26-3.13 3.58v11.5h-7.46z"/><path d="m-165.12 238.84l4.38 7.46h-8.76z"/><path d="m-168.85 249.33h7.46v21.24h-7.46z"/><path d="m-136.04 259.97v-.08c0-6.04-4.9-11.03-11.69-11.03-6.83 0-11.78 5.06-11.78 11.11v.08c0 6.04 4.91 11.03 11.7 11.03 6.83 0 11.77-5.07 11.77-11.11m-7.26.08c0 2.55-1.73 4.71-4.43 4.71-2.63 0-4.51-2.2-4.51-4.79v-.08c0-2.55 1.72-4.71 4.43-4.71 2.63 0 4.51 2.2 4.51 4.79z"/><path d="m-134.15 249.33h7.46v4.28c1.22-2.9 3.18-4.79 6.72-4.63v7.85h-.63c-3.89 0-6.09 2.24-6.09 7.14v6.6h-7.46z"/><path d="m-117.38 249.33h7.45v21.24h-7.45z"/><path d="m-109.61 242.41c0-2.23-1.82-4.04-4.04-4.04-2.24 0-4.05 1.81-4.05 4.04s1.81 4.04 4.05 4.04c2.22 0 4.04-1.81 4.04-4.04"/><path d="m-226.84 239.32h7.77v6.98h-7.77z"/></g><g fill="#858588"><path d="m-251.32 241.05c-9.4 0-17.04 7.63-17.04 17.02 0 9.38 7.64 17.02 17.04 17.02 9.39 0 17.03-7.64 17.03-17.02 0-9.39-7.64-17.02-17.03-17.02m0 32.16c-8.36 0-15.17-6.79-15.17-15.14s6.81-15.14 15.17-15.14c8.35 0 15.16 6.79 15.16 15.14s-6.81 15.14-15.16 15.14"/><path d="m-240.38 254.56l-1.92 4.89-1.53-4.69h-2.49l2.88 7.2h2.11s2.03-4.03 2.09-4.18c.5-1.1-.07-2.59-1.14-3.22"/><path d="m-247.59 260.42c-.67 0-.87-.59-.87-1.09v-2.83h1.73v-1.74h-1.73v-2.18h-.15c-1.05 0-2.09.81-2.09 2.18v4.45c0 .47.05.86.14 1.23.32 1.25 1.51 1.78 2.63 1.78.73 0 1.41-.21 2.04-.64l-.65-1.53c-.14.09-.47.37-1.05.37"/><path d="m-254.25 254.59c-.99 0-1.85.35-2.44 1-.38-.53-.99-1-2.09-1-.81 0-1.81.53-2.17 1.13l-.09-1.12h-.15c-1 .03-1.98.8-1.98 1.89v5.47h2.24v-3.87c0-.46.13-.84.39-1.14.27-.29.61-.44 1.04-.44.38 0 .67.12.86.36.19.23.29.56.29.99v4.1h2.16v-3.87c0-.46.13-.84.39-1.14.26-.29.6-.44 1.04-.44.38 0 .67.12.86.36.19.23.29.56.29.99v4.1h2.24v-4.45c0-.9-.25-1.61-.74-2.14-.49-.52-1.21-.78-2.14-.78"/></g></g></svg>