<?xml version="1.0" encoding="UTF-8" standalone="no"?>
<svg xmlns:rdf="http://www.w3.org/1999/02/22-rdf-syntax-ns#" xmlns="http://www.w3.org/2000/svg" height="112.21" width="600" version="1.1" xmlns:cc="http://creativecommons.org/ns#" xmlns:dc="http://purl.org/dc/elements/1.1/" viewBox="0 0 158.75 29.689722">
 <g transform="translate(326.83 -332.57)">
  <g fill="#858588">
   <path d="m-311.97 332.57c-8.19 0-14.86 6.66-14.86 14.85s6.67 14.84 14.86 14.84c8.2 0 14.87-6.65 14.87-14.84s-6.67-14.85-14.87-14.85m0 28.06c-7.29 0-13.22-5.92-13.22-13.21s5.93-13.21 13.22-13.21c7.3 0 13.23 5.92 13.23 13.21s-5.93 13.21-13.23 13.21"/>
   <path d="m-302.42 344.37-1.67 4.26-1.34-4.1h-2.17l2.52 6.28h1.84s1.76-3.51 1.82-3.64c0.43-0.96-0.07-2.26-1-2.8"/>
   <path d="m-308.71 349.48c-0.58 0-0.76-0.52-0.76-0.96v-2.47h1.51v-1.51h-1.51v-1.91h-0.13c-0.91 0-1.82 0.71-1.82 1.9v3.89c0 0.4 0.04 0.75 0.12 1.07 0.28 1.08 1.31 1.55 2.29 1.55 0.64 0 1.24-0.18 1.79-0.56l-0.57-1.33c-0.13 0.08-0.41 0.33-0.92 0.33"/>
   <path d="m-314.52 344.39c-0.86 0-1.61 0.3-2.13 0.87-0.33-0.46-0.86-0.87-1.83-0.87-0.7 0-1.57 0.45-1.88 0.98l-0.09-0.98h-0.13c-0.87 0.02-1.72 0.7-1.72 1.66v4.76h1.95v-3.37c0-0.4 0.12-0.73 0.35-0.99s0.53-0.39 0.9-0.39c0.33 0 0.58 0.1 0.75 0.31 0.17 0.2 0.25 0.49 0.25 0.87v3.57h1.89v-3.37c0-0.4 0.11-0.73 0.34-0.99 0.22-0.26 0.52-0.39 0.9-0.39 0.34 0 0.59 0.1 0.76 0.31 0.16 0.2 0.25 0.49 0.25 0.87v3.57h1.95v-3.88c0-0.78-0.21-1.4-0.64-1.86-0.43-0.45-1.05-0.68-1.87-0.68"/>
  </g>
  <g fill="#0e87d2">
   <path d="m-208.39 335.47v3.88h7.78v19.97h4.22v-19.97h7.77v-3.88z"/>
   <path d="m-209.6 343.07v-0.07c0-2.08-0.71-3.85-1.97-5.15-1.54-1.49-3.89-2.38-6.89-2.38h-9.56c1.24 1.1 2.31 2.38 3.17 3.82h6.06c3.09 0 4.93 1.39 4.93 3.95v0.07c0 2.41-1.91 3.98-4.9 3.98h-3.88c0.04 0.92-0.21 3.19-0.41 3.72h3.4l5.86 8.31h4.94l-6.43-9.03c3.33-0.95 5.68-3.3 5.68-7.22"/>
   <path d="m-238.91 335.19c-6.74 0-12.2 5.47-12.2 12.21s5.46 12.2 12.2 12.2c6.75 0 12.21-5.46 12.21-12.2s-5.46-12.21-12.21-12.21"/>
   <path d="m-280.89 345.49c-4.57-1.09-5.66-1.91-5.66-3.75v-0.07c0-1.57 1.43-2.83 3.88-2.83 2.18 0 4.33 0.86 6.48 2.46l2.25-3.17c-2.42-1.95-5.18-3-8.66-3-4.73 0-8.14 2.83-8.14 6.92v0.06c0 4.4 2.86 5.9 7.93 7.13 4.44 1.01 5.39 1.94 5.39 3.64v0.07c0 1.8-1.63 3-4.22 3-2.97 0-5.25-1.13-7.53-3.1l-2.53 2.99c2.87 2.56 6.31 3.82 9.95 3.82 5.01 0 8.52-2.66 8.52-7.12v-0.07c0-3.95-2.62-5.76-7.66-6.98"/>
   <path d="m-261.8 335.47h-9.41v23.85h4.19v-7.67h4.73c5.25 0 9.55-2.79 9.55-8.14v-0.07c0-4.8-3.51-7.97-9.06-7.97m4.8 8.14c0 2.49-1.97 4.26-5.15 4.26h-4.87v-8.59h4.87c3.14 0 5.15 1.47 5.15 4.26z"/>
   <path d="m-184.33 359.31h16.25v-1.7h-13.47l7.28-6.59c1.05-0.96 1.94-1.82 2.69-2.61 0.74-0.78 1.36-1.52 1.85-2.24 0.49-0.71 0.84-1.42 1.07-2.12s0.34-1.47 0.34-2.28v-0.07c0-0.93-0.18-1.79-0.54-2.58-0.37-0.8-0.86-1.49-1.48-2.07-0.63-0.6-1.37-1.05-2.23-1.39-0.86-0.32-1.8-0.49-2.82-0.49-1.05 0-1.97 0.12-2.79 0.37-0.81 0.24-1.56 0.59-2.23 1.03-0.66 0.45-1.28 0.99-1.83 1.62-0.56 0.61-1.09 1.32-1.62 2.12l1.33 0.88c1-1.43 2.02-2.52 3.09-3.28s2.36-1.14 3.88-1.14c0.73 0 1.41 0.12 2.05 0.35 0.65 0.25 1.22 0.58 1.71 1.02 0.48 0.45 0.88 0.98 1.17 1.62 0.29 0.63 0.44 1.33 0.44 2.1 0 0.64-0.09 1.25-0.27 1.84s-0.48 1.2-0.9 1.83-0.97 1.31-1.63 2.04c-0.67 0.72-1.5 1.52-2.47 2.41l-8.87 8.01z"/>
  </g>
 </g>
</svg>
