<?xml version="1.0" encoding="UTF-8" standalone="no"?>
<svg xmlns:rdf="http://www.w3.org/1999/02/22-rdf-syntax-ns#" xmlns="http://www.w3.org/2000/svg" height="105.59" width="600" version="1.1" xmlns:cc="http://creativecommons.org/ns#" xmlns:dc="http://purl.org/dc/elements/1.1/" viewBox="0 0 158.75 27.936292">
 <g transform="translate(258.12 -342.85)">
  <g fill="#858588">
   <path d="m-244.13 369.25c-6.87 0-12.45-5.57-12.45-12.43 0-6.85 5.58-12.43 12.45-12.43 6.86 0 12.44 5.58 12.44 12.43 0 6.86-5.58 12.43-12.44 12.43m0-26.4c-7.72 0-13.99 6.27-13.99 13.97s6.27 13.97 13.99 13.97c7.71 0 13.98-6.27 13.98-13.97s-6.27-13.97-13.98-13.97"/>
   <path d="m-235.15 353.95-1.58 4.01-1.25-3.85h-2.05l2.37 5.91h1.73s1.66-3.31 1.72-3.43c0.41-0.91-0.07-2.13-0.94-2.64"/>
   <path d="m-241.07 358.76c-0.55 0-0.71-0.49-0.71-0.9v-2.33h1.41v-1.42h-1.41v-1.79h-0.13c-0.85 0-1.71 0.67-1.71 1.79v3.65c0 0.38 0.04 0.71 0.11 1.01 0.26 1.02 1.24 1.46 2.16 1.46 0.6 0 1.16-0.18 1.68-0.53l-0.54-1.26c-0.12 0.09-0.38 0.32-0.86 0.32"/>
   <path d="m-246.54 353.97c-0.8 0-1.51 0.29-2 0.82-0.31-0.44-0.81-0.82-1.72-0.82-0.66 0-1.48 0.43-1.77 0.93l-0.08-0.93h-0.13c-0.81 0.02-1.62 0.66-1.62 1.56v4.49h1.84v-3.18c0-0.38 0.11-0.69 0.32-0.93 0.22-0.24 0.5-0.37 0.85-0.37 0.32 0 0.55 0.1 0.71 0.29 0.16 0.2 0.24 0.47 0.24 0.82v3.37h1.77v-3.18c0-0.38 0.11-0.69 0.32-0.93s0.5-0.37 0.85-0.37c0.32 0 0.55 0.1 0.71 0.29 0.16 0.2 0.24 0.47 0.24 0.82v3.37h1.84v-3.66c0-0.74-0.21-1.32-0.61-1.75s-0.99-0.64-1.76-0.64"/>
  </g>
  <g fill="#dd1731">
   <path d="m-227.4 358.61v-13.44h3.91v13.27c0 4.33 2.14 6.66 5.63 6.66 3.47 0 5.6-2.2 5.6-6.49v-13.44h3.91v13.23c0 6.97-3.75 10.47-9.57 10.47-5.79 0-9.48-3.5-9.48-10.26"/>
   <path d="m-205.66 358.61v-13.44h3.91v13.27c0 4.33 2.13 6.66 5.63 6.66 3.47 0 5.6-2.2 5.6-6.49v-13.44h3.91v13.23c0 6.97-3.75 10.47-9.57 10.47-5.79 0-9.48-3.5-9.48-10.26"/>
   <path d="m-184.2 345.17v3.8h7.05v19.53h3.95v-19.53h7.06v-3.8z"/>
   <path d="m-163.76 368.5h3.91v-23.33h-3.91z"/>
   <path d="m-156.8 365.1 2.35-2.93c2.13 1.93 4.26 3.03 7.03 3.03 2.42 0 3.95-1.16 3.95-2.93v-0.07c0-1.66-0.9-2.56-5.03-3.56-4.74-1.2-7.41-2.67-7.41-6.97v-0.07c0-4 3.18-6.76 7.6-6.76 3.24 0 5.82 1.03 8.08 2.93l-2.1 3.1c-2-1.57-4.01-2.4-6.04-2.4-2.29 0-3.63 1.23-3.63 2.77v0.06c0 1.8 1.02 2.6 5.28 3.67 4.71 1.2 7.16 2.97 7.16 6.83v0.07c0 4.36-3.28 6.97-7.95 6.97-3.4 0-6.62-1.24-9.29-3.74"/>
   <path d="m-117.43 345.17v3.8h7.06v19.53h3.94v-19.53h7.061v-3.8z"/>
   <path d="m-119.78 345.17h-17.5v3.67h13.83c2.03 0 3.67-1.65 3.67-3.67"/>
   <path d="m-119.78 354.8h-17.5v3.67h13.83c2.18 0 3.67-1.67 3.67-3.67"/>
   <path d="m-119.78 364.84h-17.5v3.67h13.83c2.21 0 3.67-1.6 3.67-3.67"/>
  </g>
 </g>
</svg>
