<svg xmlns="http://www.w3.org/2000/svg" height="126.68" width="600" viewBox="0 0 158.75 33.51634"><g transform="translate(337.53-246.9)"><g fill="#858588"><path d="m-320.75 246.9c-9.25 0-16.78 7.52-16.78 16.76s7.53 16.76 16.78 16.76 16.78-7.52 16.78-16.76-7.53-16.76-16.78-16.76m0 31.68c-8.24 0-14.93-6.69-14.93-14.92 0-8.22 6.69-14.91 14.93-14.91 8.23 0 14.93 6.69 14.93 14.91 0 8.23-6.7 14.92-14.93 14.92"/><path d="m-309.97 260.21l-1.9 4.82-1.5-4.63h-2.45l2.84 7.1h2.07s1.99-3.97 2.06-4.12c.49-1.09-.08-2.55-1.12-3.17"/><path d="m-317.07 265.98c-.66 0-.86-.58-.86-1.07v-2.8h1.7v-1.71h-1.7v-2.14h-.15c-1.03 0-2.06.8-2.06 2.14v4.39c0 .46.05.85.14 1.21.31 1.22 1.48 1.75 2.59 1.75.72 0 1.39-.21 2.01-.63l-.64-1.51c-.14.1-.46.37-1.03.37"/><path d="m-323.63 260.24c-.98 0-1.83.34-2.41.98-.38-.52-.98-.98-2.06-.98-.8 0-1.78.51-2.13 1.11l-.09-1.11h-.15c-.98.03-1.95.8-1.95 1.87v5.38h2.2v-3.8c0-.46.13-.83.4-1.12.26-.29.6-.44 1.02-.44.37 0 .65.12.84.35s.29.56.29.98v4.03h2.13v-3.8c0-.46.12-.83.38-1.12.25-.29.59-.44 1.02-.44.38 0 .66.12.85.35s.29.56.29.98v4.03h2.2v-4.38c0-.89-.25-1.58-.73-2.1-.48-.51-1.18-.77-2.1-.77"/></g><g fill="#379fa6"><path d="m-276.18 261.43h-12.62v-4.53h13.95v-6.48h-21.34v26.68h7.39v-9.53h12.62z"/><path d="m-267.49 266.58l3.02-7.59 2.97 7.59zm66.14-16.16h-31.64l-9.19 10.82v-10.82h-7.39v26.5l-11.21-26.5h-7.28l-11.28 26.68h7.77l1.91-4.77h10.29l1.95 4.77h15.24v-6.9l2.71-3.01 6.71 9.91h8.88l-10.44-15.21 9.57-10.87v5.88h8v20.2h7.4v-20.2h8z"/><path d="m-196.77 266.58l3.01-7.59 2.97 7.59zm6.71-16.16h-7.29l-11.28 26.68h7.77l1.91-4.77h10.29l1.94 4.77h7.94z"/></g></g></svg>