<?xml version="1.0" encoding="UTF-8" standalone="no"?>
<svg xmlns:rdf="http://www.w3.org/1999/02/22-rdf-syntax-ns#" xmlns="http://www.w3.org/2000/svg" height="130.35" width="600" version="1.1" xmlns:cc="http://creativecommons.org/ns#" xmlns:dc="http://purl.org/dc/elements/1.1/" viewBox="0 0 158.75 34.488898">
 <g transform="translate(273.65 -267.35)">
  <g fill="#858588">
   <path d="m-256.39 267.35c-9.52 0-17.26 7.74-17.26 17.24 0 9.51 7.74 17.25 17.26 17.25s17.26-7.74 17.26-17.25c0-9.5-7.74-17.24-17.26-17.24m0 32.6c-8.47 0-15.37-6.89-15.37-15.36 0-8.46 6.9-15.34 15.37-15.34s15.37 6.88 15.37 15.34c0 8.47-6.9 15.36-15.37 15.36"/>
   <path d="m-245.3 281.05-1.95 4.95-1.54-4.76h-2.53l2.92 7.3h2.14s2.05-4.08 2.12-4.23c0.5-1.12-0.08-2.63-1.16-3.26"/>
   <path d="m-252.61 286.98c-0.68 0-0.88-0.6-0.88-1.1v-2.87h1.75v-1.77h-1.75v-2.21h-0.15c-1.06 0-2.12 0.83-2.12 2.21v4.51c0 0.48 0.05 0.87 0.14 1.25 0.33 1.26 1.53 1.81 2.67 1.81 0.74 0 1.43-0.22 2.07-0.66l-0.66-1.55c-0.15 0.1-0.48 0.38-1.07 0.38"/>
   <path d="m-259.36 281.07c-0.99 0-1.87 0.36-2.47 1.02-0.39-0.54-1.01-1.02-2.12-1.02-0.82 0-1.83 0.53-2.19 1.15l-0.1-1.14h-0.15c-1.01 0.03-2.01 0.81-2.01 1.92v5.54h2.27v-3.92c0-0.47 0.14-0.85 0.41-1.15 0.26-0.3 0.61-0.45 1.04-0.45 0.39 0 0.68 0.12 0.88 0.35 0.19 0.25 0.29 0.59 0.29 1.02v4.15h2.19v-3.92c0-0.47 0.13-0.85 0.39-1.15s0.61-0.45 1.06-0.45c0.38 0 0.68 0.12 0.87 0.35 0.19 0.25 0.29 0.59 0.29 1.02v4.15h2.27v-4.51c0-0.91-0.25-1.63-0.75-2.16s-1.22-0.8-2.17-0.8"/>
  </g>
  <g fill="#cf1a38">
   <path d="m-232.72 270.77h7.6v20.79h13.3v6.66h-20.9z"/>
   <path d="m-210.33 270.77h22.08v6.47h-14.55v4.16h12.42v6h-12.42v4.36h14.74v6.46h-22.27z"/>
   <path d="m-186.51 270.77h21.96v6.67h-14.36v4.67h12.23v6.31h-12.23v9.8h-7.6z"/>
   <path d="m-162.83 270.77h21.97v6.67h-14.36v4.67h12.22v6.31h-12.22v9.8h-7.61z"/>
   <path d="m-124.91 293.68 1.85 4.74h8.16l-11.69-27.65h-7.33l-11.69 27.65h8l1.87-4.74zm-2.93-7.76 1.51 4.61-3.93-2.85-3.92 2.85 1.5-4.61-3.93-2.84h4.86l1.49-4.62 1.5 4.62h4.85z"/>
  </g>
 </g>
</svg>
