<svg xmlns="http://www.w3.org/2000/svg" height="158.08" width="600" viewBox="0 0 158.75 41.824653"><g transform="translate(383.24-204.3)"><path d="m-278.85 229.59l3.03-8.05 3.04 8.05zm43.13-4.64l10.76-16.21h-12.37l-4.84 7.92-4.78-7.92h-12.61l10.76 16.3-8.9 13.38-12.52-29.92h-11l-12.51 29.91v-29.67h-11.56l-7.11 11.66-7.11-11.66h-11.57v33.18h10.86v-16.45l7.63 11.8h.19l7.63-11.8v16.45h21.42l1.71-4.46h11.61l1.75 4.46h20.62l5.3-8.63 5.26 8.63h12.61z"/><g fill="#858588"><path d="m-362.3 204.3c-11.55 0-20.94 9.38-20.94 20.91s9.39 20.91 20.94 20.91c11.54 0 20.94-9.38 20.94-20.91s-9.4-20.91-20.94-20.91m0 39.52c-10.28 0-18.63-8.35-18.63-18.61s8.35-18.61 18.63-18.61c10.27 0 18.63 8.35 18.63 18.61s-8.36 18.61-18.63 18.61"/><path d="m-348.85 220.91l-2.36 6-1.88-5.77h-3.06l3.54 8.85h2.6s2.48-4.94 2.56-5.13c.62-1.36-.1-3.19-1.4-3.95"/><path d="m-357.71 228.11c-.83 0-1.07-.73-1.07-1.34v-3.49h2.12v-2.13h-2.12v-2.69h-.19c-1.28 0-2.56 1-2.56 2.68v5.47c0 .58.05 1.06.17 1.51.39 1.53 1.85 2.19 3.23 2.19.9 0 1.74-.26 2.51-.79l-.8-1.88c-.18.12-.58.47-1.29.47"/><path d="m-365.9 220.94c-1.21 0-2.26.43-2.99 1.22-.48-.65-1.22-1.22-2.58-1.22-.99 0-2.22.64-2.65 1.39l-.13-1.39h-.18c-1.22.04-2.43.99-2.43 2.33v6.72h2.75v-4.75c0-.57.16-1.03.49-1.4.32-.36.75-.55 1.27-.55.47 0 .82.15 1.06.44.23.29.35.7.35 1.23v5.03h2.66v-4.75c0-.57.16-1.03.48-1.4.31-.36.74-.55 1.27-.55.48 0 .83.15 1.06.44.24.29.36.7.36 1.23v5.03h2.75v-5.47c0-1.1-.31-1.98-.91-2.62-.61-.64-1.48-.96-2.63-.96"/></g></g></svg>