<svg xmlns="http://www.w3.org/2000/svg" height="91.78" width="600" viewBox="0 0 158.75 24.283581"><g transform="translate(210.12-396.42)"><g fill="#75c92b"><path d="m-159.56 410.69l2.27-5.24 2.25 5.24zm-.38-12.36l-6.9 16.33-5.15-7.51 7.63-8.68h-6.63l-6.94 8.19v-8.19h-5.59v20.17h5.59v-5.22l2.05-2.27 5.07 7.49h8.17l1.44-3.6h7.77l1.47 3.6h6l-8.59-20.31z"/><path d="m-57.07 408.62c0 2.9-2.048 5.38-5.129 5.38-3.052 0-5.157-2.53-5.157-5.44v-.06c0-2.91 2.047-5.39 5.1-5.39 3.083 0 5.186 2.54 5.186 5.45zm-5.129-10.55c-4.892 0-8.821 2.9-10.278 6.96v-6.56h-5.906l-4.812 7.81-4.81-7.81h-6.255c2.321 2.72 3.724 6.24 3.724 10.09s-1.403 7.36-3.724 10.08h5.821v-11.52s3.327 5.09 4.536 6.92c.149.2.386.33.654.33.267 0 .501-.13.651-.32 1.265-1.91 4.561-6.99 4.561-6.99v11.58h5.56v-6.48c1.447 4.03 5.336 6.88 10.221 6.88 6.222 0 10.889-4.69 10.889-10.48v-.06c0-5.79-4.608-10.43-10.832-10.43"/><path d="m-126.83 402.77c1.78 0 3.8.69 5.64 1.98l.07-.1c.42-1.59 1.08-3.07 1.94-4.43-2.04-1.37-4.48-2.09-7.51-2.09-3.91 0-6.59 1.77-7.48 4.42v-4.08h-16.06v4.9h5.24v15.27h5.58v-15.27h5.03c-.08.39-.11.79-.11 1.21v.06c0 4.15 3.31 5.36 7.6 6.34 2.74.63 3.4 1.09 3.4 1.93v.05c0 .87-.81 1.39-2.3 1.39-2.34 0-4.56-.84-6.54-2.42l-3.12 3.71c2.48 2.22 5.88 3.35 9.45 3.35 2.89 0 5.21-.86 6.63-2.4-1.42-2.34-2.24-5.09-2.24-8.03 0-.45.02-.89.06-1.33-1.07-.47-2.36-.83-3.81-1.15-2.8-.63-3.49-1.04-3.49-1.96v-.06c0-.72.66-1.29 2.02-1.29"/><path d="m-100.7 407.64c-2.21-1.92-5.04-3.9-7.6-4.95-.72-.29-1.31.11-1.43.98-.45 3.21-.42 6.47 0 9.72.11.87.73 1.31 1.43.98 2.47-1.18 5.28-2.98 7.6-4.95.66-.56.62-1.24 0-1.78"/></g><g fill="#858588"><path d="m-197.96 419.36c-5.96 0-10.82-4.84-10.82-10.8s4.86-10.81 10.82-10.81c5.97 0 10.82 4.85 10.82 10.81s-4.85 10.8-10.82 10.8m0-22.94c-6.7 0-12.16 5.44-12.16 12.14 0 6.69 5.46 12.14 12.16 12.14s12.16-5.45 12.16-12.14c0-6.7-5.46-12.14-12.16-12.14"/><path d="m-190.15 406.06l-1.37 3.49-1.09-3.35h-1.78l2.06 5.13h1.51s1.43-2.87 1.48-2.98c.36-.78-.05-1.85-.81-2.29"/><path d="m-195.3 410.24c-.47 0-.62-.43-.62-.78v-2.02h1.24v-1.24h-1.24v-1.56h-.1c-.75 0-1.49.58-1.49 1.56v3.17c0 .34.03.62.1.88.22.89 1.07 1.27 1.87 1.27.52 0 1.01-.15 1.46-.46l-.47-1.09c-.1.07-.33.27-.75.27"/><path d="m-200.05 406.08c-.7 0-1.32.25-1.74.71-.27-.38-.71-.71-1.49-.71-.58 0-1.29.37-1.55.8l-.07-.8h-.1c-.71.02-1.41.57-1.41 1.35v3.9h1.59v-2.76c0-.32.1-.59.29-.81.19-.21.43-.31.74-.31.27 0 .47.08.61.25s.21.4.21.71v2.92h1.54v-2.76c0-.32.09-.59.27-.81.19-.21.44-.31.75-.31.27 0 .48.08.61.25.14.17.21.4.21.71v2.92h1.6v-3.17c0-.64-.18-1.15-.53-1.52-.35-.38-.86-.56-1.53-.56"/></g></g></svg>