<?xml version="1.0" encoding="UTF-8" standalone="no"?>
<svg xmlns:rdf="http://www.w3.org/1999/02/22-rdf-syntax-ns#" xmlns="http://www.w3.org/2000/svg" height="105.2" width="600" version="1.1" xmlns:cc="http://creativecommons.org/ns#" xmlns:dc="http://purl.org/dc/elements/1.1/" viewBox="0 0 158.75 27.833492">
 <g transform="translate(321.92 -366.87)">
  <path d="m-183.87 391.82h1.65v-22.27h-1.29l-5.07 1.86 0.45 1.3 4.26-1.46z" fill="#0e87d2"/>
  <g fill="#858588">
   <path d="m-307.98 366.87c-7.68 0-13.94 6.24-13.94 13.91 0 7.68 6.26 13.92 13.94 13.92s13.93-6.24 13.93-13.92c0-7.67-6.25-13.91-13.93-13.91m0 26.3c-6.84 0-12.4-5.55-12.4-12.39 0-6.82 5.56-12.38 12.4-12.38s12.4 5.56 12.4 12.38c0 6.84-5.56 12.39-12.4 12.39"/>
   <path d="m-299.03 377.92-1.57 4-1.25-3.84h-2.04l2.36 5.89h1.73s1.65-3.29 1.7-3.42c0.41-0.9-0.06-2.12-0.93-2.63"/>
   <path d="m-304.93 382.71c-0.55 0-0.71-0.48-0.71-0.89v-2.32h1.41v-1.42h-1.41v-1.78h-0.12c-0.86 0-1.71 0.66-1.71 1.78v3.64c0 0.38 0.04 0.7 0.11 1 0.26 1.02 1.24 1.46 2.15 1.46 0.6 0 1.16-0.17 1.68-0.52l-0.54-1.26c-0.12 0.08-0.38 0.31-0.86 0.31"/>
   <path d="m-310.37 377.94c-0.81 0-1.52 0.29-2 0.82-0.31-0.43-0.81-0.82-1.71-0.82-0.67 0-1.48 0.43-1.77 0.93l-0.08-0.92h-0.12c-0.82 0.02-1.62 0.65-1.62 1.55v4.47h1.83v-3.17c0-0.37 0.11-0.68 0.33-0.92 0.21-0.25 0.49-0.37 0.84-0.37 0.31 0 0.55 0.1 0.7 0.29 0.16 0.19 0.24 0.46 0.24 0.82v3.35h1.77v-3.17c0-0.37 0.1-0.68 0.32-0.92 0.21-0.25 0.49-0.37 0.85-0.37 0.31 0 0.55 0.1 0.7 0.29 0.16 0.19 0.24 0.46 0.24 0.82v3.35h1.83v-3.64c0-0.74-0.2-1.32-0.61-1.75-0.4-0.42-0.98-0.64-1.74-0.64"/>
  </g>
  <g fill="#0e87d2">
   <path d="m-210.88 369.58v3.64h7.29v18.72h3.96v-18.72h7.28v-3.64z"/>
   <path d="m-212.01 376.7v-0.06c0-1.95-0.67-3.61-1.86-4.82-1.43-1.41-3.64-2.23-6.45-2.23h-8.96c1.16 1.02 2.16 2.23 2.96 3.57h5.69c2.9 0 4.62 1.31 4.62 3.71v0.06c0 2.27-1.79 3.73-4.59 3.73h-3.64c0.04 0.87-0.2 3-0.38 3.49h3.19l5.49 7.79h4.63l-6.03-8.46c3.12-0.9 5.33-3.1 5.33-6.78"/>
   <path d="m-239.49 369.32c-6.32 0-11.44 5.13-11.44 11.44 0 6.33 5.12 11.45 11.44 11.45s11.44-5.12 11.44-11.45c0-6.31-5.12-11.44-11.44-11.44"/>
   <path d="m-278.85 378.97c-4.28-1.02-5.3-1.79-5.3-3.51v-0.06c0-1.47 1.34-2.65 3.64-2.65 2.04 0 4.05 0.79 6.07 2.29l2.1-2.97c-2.26-1.82-4.85-2.81-8.11-2.81-4.44 0-7.63 2.66-7.63 6.49v0.06c0 4.12 2.68 5.53 7.44 6.68 4.15 0.95 5.04 1.82 5.04 3.41v0.07c0 1.69-1.53 2.81-3.96 2.81-2.77 0-4.91-1.05-7.05-2.91l-2.37 2.81c2.69 2.4 5.91 3.58 9.33 3.58 4.69 0 7.98-2.49 7.98-6.67v-0.07c0-3.71-2.46-5.4-7.18-6.55"/>
   <path d="m-260.95 369.58h-8.82v22.36h3.93v-7.19h4.43c4.92 0 8.95-2.61 8.95-7.63v-0.06c0-4.51-3.29-7.48-8.49-7.48m4.5 7.64c0 2.33-1.85 3.99-4.83 3.99h-4.56v-8.05h4.56c2.94 0 4.83 1.37 4.83 3.99z"/>
  </g>
  <path d="m-177.63 376.68h1.97v-2.7h2.53v2.7h1.96v-7.1h-1.96v2.66h-2.53v-2.66h-1.97zm7.72 0h2.7c2.55 0 4.04-1.52 4.04-3.57v-0.02c0-2.05-1.47-3.51-4-3.51h-2.74zm1.97-1.74v-3.61h0.8c1.17 0 1.96 0.66 1.96 1.79v0.02c0 1.15-0.79 1.8-1.96 1.8z" fill="#858588"/>
 </g>
</svg>
