<svg xmlns="http://www.w3.org/2000/svg" viewBox="0 0 600 540.86"><g fill="#fff"><path d="m403.16 353.11c-1.02-8.826-2.296-21.53-2.296-32.702 0-6.938.918-34.845.918-57.35 0-18.979-4.081-52.702-4.081-71.02 0-11.02.816-25.968-.408-31.22 8.775-5.714 16.479-9.336 40.661-24.03 7.857-4.745 22.856-12.755 22.856-22.398 0-4.285-1.173-7.091-7.245-12.09-4.286-3.418-8.826-4.388-13.979-4.388-12.347 0-17.959 12.347-28.26 18.673-15.816 9.642-24.18 14.438-27.396 16.224-1.326-.612-6.683-3.775-15.305-3.775-9.03 0-19.54 4.03-19.54 15.765 0 5.357 1.684 11.173-5.459 14.948-4.03 2.551-23.672 13.775-44.59 26.376-17.602 10.663-25.815 9.796-33.26 14.285-6.836 4.132-8.673 9.285-8.673 13.775 0 3.979 2.551 8.979 3.418 10.1 4.745 6.071 8.979 9.336 16.428 9.336 12.653 0 23.11-11.02 42.651-24.896 12.143-8.673 23.315-17.653 29.845-17.653 5.816 0 9.897 4.387 9.897 22.5 0 60.56-3.724 70.15-3.724 112.19 0 7.551.306 21.53.561 27.345h-32.09v-99.23l-61.834 52.14-61.834-52.14v99.23h-200.43v-353.1h195.1l67.14 70.66 67.14-70.66h196.07v150.96c-6.224 9.591-25.15 42.04-37.906 75.2-4.183 10.816-6.122 18.622-11.582 18.622-6.071 0-6.53-5.918-7.143-11.275-1.224-11.633-3.826-33.31-5.05-41.27-2.296-15.458-5.357-31.783-22.602-31.783-12.806 0-26.17 6.989-26.17 26.07 0 10.816 5.459 29.641 14.846 54.38 3.673 9.744 23.315 61.22 26.17 68.67 5.153 13.673 12.398 17.397 23.57 17.397 14.387 0 19.336-5.255 25.25-25.406 5-17.14 13.52-45.15 20.612-62.65v114.16h-122.31zm168.21-195.97v195.97h-32.24v-143.36c6.887-14.948 23.519-41.07 32.24-52.6m-32.24-26.12v-131.02l32.24 19.387v71.73c-7.959 8.265-24.489 28.417-32.24 39.896m-259.12-98.87l-17.75 18.673-48.11-50.56 61.02 26.784 4.847 5.102zm2.143 274.98h22.245l6.02-5.05v-18.775l-28.26 23.826zm-68.06 45.967h26.529v-47.45l-26.529-22.347v69.793"/><path d="m575.15 340.46h10.255v1.939h-4.03v10.714h-2.194v-10.714h-4.03v-1.939"/><path d="m586.84 340.46h3.112l3.52 9.897h.051l3.367-9.897h3.112v12.653h-2.092v-9.744h-.051l-3.52 9.744h-1.837l-3.52-9.744v9.744h-2.143v-12.653"/></g><path d="m571.38 524.55c0 8.952-7.352 16.304-16.304 16.304h-538.69c-9 0-16.354-7.352-16.354-16.304v-130.58c0-8.952 7.352-16.304 16.354-16.304h538.69c8.952 0 16.304 7.352 16.304 16.304v130.58" fill="#ef3436"/><g fill="#1f141b"><path d="m70.65 475.57l-3.351-8.152-8.202-3.351h-8.202l-2.351.9-1 2.301v17.705l1 2.301 2.351.95h8.202l8.202-3.351 3.351-8.152v-1.15m-1.85-34.26l-.85-4.151-2.301-3.451-3.451-2.351-4.151-.85h-7.152l-2.351.9-1 2.301v16.1l1 2.351 2.351 1h7.152l4.151-.85 3.451-2.301 2.301-3.401.85-4.251v-1.05m13.904 34.709l-1.8 9.05-5 7.252-7.352 4.951-9 1.851h-18.905l-3.651-1.5-1.5-3.651v-69.22l1.5-3.651 3.651-1.5h17.905l8.702 1.7 7.102 4.801 4.751 7.102 1.751 8.702c0 5.251-1.55 9.803-4.701 13.654l-.9 2.301 1.05 2.301 4.751 7.05 1.65 8.802"/><path d="m116.14 462.01l6.502-1.95 4.101-5.201.75-2.701.3-5.201v-1.4l-.3-5.201-.75-2.701-4.101-5.201-6.502-1.95h-8.202l-2.351.95-1 2.301v24.907l1 2.301 2.351 1.05h8.202m11.453 8.05l-.95 1.25.45 1.15 9.653 18.255.85 2.901-1.75 3.951-3.901 1.55-5.401-3.301-11.303-21.306-1.3-1.2-1.701-.4h-4.301l-2.351 1.05-1 2.401v17.605l-1.5 3.651-3.601 1.5h-1.85l-3.651-1.5-1.45-3.651v-69.22l1.5-3.651 3.651-1.5h18.455l7.602 1.2 6.552 3.451 5.101 5.301 3.351 6.602.85 3.801.25 6.302-.25 6.352-.85 3.751-4.301 7.952-6.852 5.752"/><path d="m172.14 429.47l-1.5-1.5-1.5 1.5-7.802 38.96-.25 1.75.5 1.2 1.6.5h14.904l1.65-.5.45-1.2-.25-1.75-7.802-38.96m11.253 56.22l-1.15-2.401-2.401-1.05h-18.405l-2.401 1.05-1.15 2.401-1.851 9.302-1.851 3.551-3.551 1.3h-.35l-3.701-1.1-1.7-3.751.1-1.05.15-1 13.454-66.57 3-5.801 5.952-2.451h6.202l6 2.451 2.951 5.801 13.454 66.57.2 1 .05 1.05-1.65 3.751-3.751 1.1h-.35l-3.551-1.3-1.851-3.551-1.851-9.302"/><path d="m223.33 460.16l-2.101-5.852-1.45-1.95-1.05 1.7.1 2.151.15 4.651v33.11l-1.5 3.651-3.701 1.5h-1.7l-3.701-1.5-1.5-3.651v-69.22l1.5-3.651 3.701-1.5h1.05l3.901.9 2.851 3.451 14.804 34.609 2.151 5.851 1.45 1.95 1-1.7-.1-2.151-.1-4.651v-33.11l1.5-3.651 3.651-1.5h1.75l3.651 1.5 1.5 3.651v69.22l-1.5 3.651-3.651 1.5h-1.05l-3.901-.9-2.851-3.451-14.854-34.609"/><path d="m290.03 488.21l6.502-1.95 4.101-5.201.4-1.15.35-1.8.25-2.951.05-4.401v-22.756l-.05-4.451-.25-2.951-.35-1.75-.4-1.2-4.101-5.201-6.502-1.95h-8.202l-2.351.95-1 2.301v51.26l1 2.251 2.351.95h8.202m-18.455 10.903l-3.651-1.5-1.5-3.651v-69.22l1.5-3.651 3.651-1.5h18.455l7.602 1.2 6.552 3.451 5.101 5.301 3.351 6.602.45 1.8.4 2.351.2 3.351.05 5v21.406l-.05 5-.2 3.401-.4 2.351-.45 1.75-3.351 6.652-5.101 5.251-6.552 3.451-7.602 1.2h-18.455"/><path d="m362.48 460.16l-2.101-5.852-1.45-1.95-1.05 1.7.1 2.151.15 4.651v33.11l-1.5 3.651-3.701 1.5h-1.7l-3.701-1.5-1.5-3.651v-69.22l1.5-3.651 3.701-1.5h1l3.951.9 2.851 3.451 14.804 34.609 2.151 5.851 1.45 1.95 1-1.7-.1-2.151-.1-4.651v-33.11l1.5-3.651 3.651-1.5h1.75l3.651 1.5 1.5 3.651v69.22l-1.5 3.651-3.651 1.5h-1.05l-3.901-.9-2.851-3.451-14.854-34.609"/><path d="m420.96 463.72l-2.351.95-1 2.251v18.06l1 2.301 2.351.95h22.506l3.651 1.45 1.45 3.701v.6l-1.45 3.651-3.651 1.5h-32.809l-3.601-1.5-1.5-3.651v-69.22l1.5-3.651 3.601-1.5h32.809l3.651 1.5 1.45 3.651v.6l-1.45 3.701-3.651 1.45h-22.506l-2.351.9-1 2.301v16.354l1 2.351 2.351.95h12.853l3.701 1.5 1.5 3.701-1.5 3.651-3.701 1.5h-12.853"/><path d="m496.75 419.6l3.601 1.55 1.7 3.601 10.453 64.47 1.5 1.5 1.5-1.5 10.553-65.47 1.801-3.601 3.601-1.25h.35l3.751 1.1 1.65 3.751-.05 1-.2 1.05-10.653 66.57-2.951 5.801-6.05 2.451h-5.752l-6-2.451-2.951-5.801-4.151-27.16-.55-4.751-.45-5.201-.35-4.401-.1-2.651-.8-.8-.8.8-.15 2.651-.35 4.401-.45 5.201-.55 4.751-4.151 27.16-2.951 5.801-6 2.451h-5.752l-6.05-2.451-2.951-5.801-10.653-66.57-.2-1.05-.05-1 1.65-3.751 3.751-1.1h.35l3.601 1.25 1.8 3.601 10.603 65.47 1.45 1.5 1.5-1.5 10.453-64.47 1.7-3.601 3.601-1.55h1.15"/></g></svg>