<svg xmlns="http://www.w3.org/2000/svg" height="557.21" width="600" viewBox="0 0 158.75 147.42917"><g stroke-width=".265" fill="#fff" transform="matrix(.99999 0 0 .99999 247.95 5.09)"><path d="m-141.28 88.34c-.27-2.336-.61-5.696-.61-8.654 0-1.837.24-9.218.24-15.172 0-5.02-1.08-13.943-1.08-18.79 0-2.916.22-6.872-.11-8.261 2.33-1.513 4.36-2.471 10.76-6.358 2.08-1.256 6.05-3.376 6.05-5.926 0-1.133-.31-1.876-1.92-3.199-1.13-.905-2.33-1.161-3.69-1.161-3.27 0-4.76 3.267-7.48 4.939-4.19 2.553-6.4 3.821-7.25 4.294-.35-.161-1.77-1-4.05-1-2.39 0-5.17 1.067-5.17 4.173 0 1.415.45 2.955-1.45 3.955-1.06.675-6.26 3.644-11.79 6.977-4.66 2.821-6.83 2.593-8.8 3.781-1.81 1.093-2.3 2.456-2.3 3.644 0 1.053.68 2.376.91 2.672 1.25 1.606 2.37 2.471 4.34 2.471 3.35 0 6.12-2.916 11.29-6.588 3.21-2.294 6.17-4.67 7.89-4.67 1.54 0 2.62 1.162 2.62 5.953 0 16.02-.98 18.561-.98 29.684 0 1.997.08 5.696.14 7.233h-8.49v-26.25l-16.36 13.795-16.35-13.795v26.25h-53.03v-93.42h51.62l17.76 18.696 17.77-18.696h51.87v39.942c-1.65 2.537-6.65 11.123-10.03 19.896-1.11 2.86-1.62 4.927-3.06 4.927-1.61 0-1.73-1.567-1.89-2.985-.33-3.077-1.01-8.813-1.34-10.919-.61-4.091-1.42-8.409-5.98-8.409-3.39 0-6.92 1.85-6.92 6.898 0 2.86 1.44 7.842 3.92 14.388.98 2.58 6.17 16.198 6.93 18.17 1.36 3.62 3.28 4.604 6.23 4.604 3.81 0 5.12-1.392 6.69-6.723 1.32-4.535 3.57-11.946 5.45-16.576v30.21h-32.36zm44.503-51.85v51.85h-8.533v-37.931c1.82-3.955 6.223-10.866 8.533-13.917m-8.533-6.911v-34.665l8.533 5.129v18.979c-2.106 2.187-6.483 7.52-8.533 10.555m-68.56-26.16l-4.7 4.941-12.72-13.377 16.14 7.086 1.28 1.35zm.57 72.75h5.88l1.6-1.336v-4.966zm-18.01 12.163h7.02v-12.554l-7.02-5.911z"/><path d="m-95.78 84.99h2.712v.511h-1.067v2.836h-.579v-2.836h-1.066z"/><path d="m-92.68 84.99h.823l.931 2.617h.013l.892-2.617h.823v3.347h-.553v-2.58h-.014l-.931 2.58h-.487l-.931-2.58v2.58h-.566z"/></g><g stroke-width="1"><path d="m150.71 147.43h-150.71v-50.39h150.71z"/><g fill="#fff"><path d="m13.793 108.78h7.31l-3.11 19.38c-.06.32-.1.55-.12.69-.03.13-.09.33-.16.6.29-.06.5-.08.64-.08h7.43l-1.01 6.34h-15.26z"/><path d="m31.533 108.78h7.31l-4.32 26.93h-7.27z"/><path d="m69.54 108.78h15.619l-.97 6.18h-8.229l-.53 2.95-.11.69c-.04.13-.09.34-.17.64.29-.05.51-.08.65-.08h7.71l-1.05 6.01h-8.15l-.53 3.15-.12.69c-.03.13-.08.33-.16.6.29-.05.51-.08.64-.08h7.63l-.97 6.18h-15.54z"/><path d="m94.9 108.78h7.308l-1.42 8.88c-.05.32-.11.56-.16.69l-.16.61c.3-.06.51-.09.64-.09h7.29l1.61-10.09h7.27l-4.28 26.93h-7.27l1.46-9.33c.05-.32.1-.55.12-.69l.2-.6c-.3.06-.52.08-.68.08h-7.248l-1.7 10.54h-7.26z"/><path d="m124.82 128.32l-.12.69c-.03.13-.08.33-.16.6.24-.05.41-.08.52-.08h1.58c1.37 0 2.49-.13 3.37-.4.87-.27 1.62-.72 2.24-1.33.78-.78 1.39-1.81 1.83-3.07.45-1.26.67-2.67.67-4.2 0-1.86-.49-3.27-1.47-4.24-.99-.96-2.41-1.45-4.26-1.45h-2.02zm-4.24-19.53h9.45c2.1 0 3.9.29 5.4.89 1.51.59 2.75 1.42 3.72 2.5.97 1.07 1.68 2.36 2.14 3.85.46 1.5.68 3.14.68 4.95 0 1.47-.18 2.91-.56 4.29-.38 1.39-.91 2.67-1.59 3.84-.69 1.17-1.53 2.21-2.51 3.11s-2.06 1.63-3.25 2.19c-.97.46-1.99.79-3.07.99-1.07.2-2.28.31-3.63.31h-11.06z"/><path d="m59.35 108.78l-5.25 11.91c-.12.28-.23.53-.34.78-.04.1-.09.2-.13.29-.21.52-.41 1.01-.58 1.47-.18.47-.35.95-.53 1.45-.17.51-.37 1.11-.6 1.81l-.1-.02c0 .001 0 .02-.001.03v-.03l-.08-.001c-.1-.76-.18-1.39-.24-1.91-.07-.51-.14-1.01-.23-1.5-.09-.5-.18-1.01-.28-1.55-.04-.22-.09-.47-.15-.73-.03-.17-.07-.34-.11-.52l-2.38-11.47h-7.75l7.19 26.93h5.6l14.2-26.93z"/></g></g></svg>