<?xml version="1.0" encoding="UTF-8" standalone="no"?>
<svg xmlns:rdf="http://www.w3.org/1999/02/22-rdf-syntax-ns#" xmlns="http://www.w3.org/2000/svg" height="557.77" width="600" version="1.1" xmlns:cc="http://creativecommons.org/ns#" xmlns:dc="http://purl.org/dc/elements/1.1/" viewBox="0 0 158.75 147.57656">
 <g transform="translate(-171.58 -60.059)">
  <g stroke-width=".26458" fill="#040000">
   <path d="m278.25 153.49c-0.27-2.34-0.61-5.7-0.61-8.66 0-1.83 0.25-9.22 0.25-15.17 0-5.02-1.08-13.94-1.08-18.79 0-2.92 0.21-6.87-0.11-8.26 2.32-1.51 4.36-2.47 10.76-6.359 2.08-1.256 6.04-3.376 6.04-5.926 0-1.133-0.31-1.876-1.91-3.199-1.14-0.905-2.34-1.161-3.7-1.161-3.27 0-4.75 3.267-7.48 4.939-4.18 2.553-6.4 3.821-7.25 4.294-0.35-0.161-1.77-1-4.05-1-2.39 0-5.17 1.067-5.17 4.173 0 1.415 0.45 2.959-1.44 3.959-1.07 0.67-6.27 3.64-11.8 6.97-4.66 2.82-6.83 2.6-8.8 3.78-1.81 1.1-2.29 2.46-2.29 3.65 0 1.05 0.67 2.37 0.9 2.67 1.25 1.61 2.37 2.47 4.34 2.47 3.35 0 6.12-2.91 11.29-6.59 3.21-2.29 6.17-4.67 7.9-4.67 1.54 0 2.62 1.16 2.62 5.96 0 16.02-0.99 18.56-0.99 29.68 0 2 0.08 5.7 0.15 7.23h-8.49v-26.25l-16.36 13.79-16.36-13.79v26.25h-53.03v-93.421h51.62l17.77 18.696 17.76-18.696h51.87v39.941c-1.64 2.54-6.65 11.12-10.02 19.9-1.11 2.86-1.63 4.92-3.07 4.92-1.61 0-1.73-1.56-1.89-2.98-0.32-3.08-1.01-8.81-1.34-10.92-0.6-4.09-1.41-8.41-5.98-8.41-3.38 0-6.92 1.85-6.92 6.9 0 2.86 1.45 7.84 3.93 14.39 0.97 2.58 6.17 16.2 6.92 18.17 1.37 3.62 3.28 4.6 6.24 4.6 3.8 0 5.11-1.39 6.68-6.72 1.32-4.54 3.58-11.95 5.45-16.58v30.21h-32.35zm44.51-51.85v51.85h-8.54v-37.93c1.83-3.96 6.23-10.87 8.54-13.92m-8.54-6.913v-34.665l8.54 5.129v18.979c-2.11 2.187-6.48 7.52-8.54 10.555m-68.56-26.16-4.69 4.941-12.73-13.378 16.14 7.087 1.29 1.35zm0.57 72.755h5.89l1.59-1.34v-4.96l-7.48 6.3zm-18.01 12.16h7.02v-12.55l-7.02-5.91v18.46z"/>
   <path d="m323.76 150.14h2.71v0.51h-1.07v2.84h-0.58v-2.84h-1.06v-0.51z"/>
   <path d="m326.85 150.14h0.82l0.93 2.62h0.02l0.89-2.62h0.82v3.35h-0.55v-2.58h-0.02l-0.93 2.58h-0.48l-0.93-2.58v2.58h-0.57v-3.35z"/>
  </g>
  <path d="m322.75 207.64h-151.16v-50.53h151.16v50.53z" fill="#f04b45"/>
  <g>
   <path d="m204.08 179.47c-0.06 0.33-0.1 0.55-0.13 0.7-0.01 0.12-0.07 0.32-0.15 0.59 0.27-0.04 0.46-0.07 0.61-0.07h0.65 1.13c0.62 0 1.12-0.04 1.5-0.1 0.37-0.07 0.69-0.18 0.96-0.35 0.38-0.24 0.68-0.6 0.89-1.07 0.22-0.48 0.33-1 0.33-1.57 0-1.79-1.09-2.7-3.28-2.7h-1.75l-0.76 4.57zm-5.63-10.56h8.35c1.53 0 2.94 0.14 4.22 0.41 1.28 0.3 2.39 0.71 3.31 1.25 0.99 0.59 1.8 1.46 2.4 2.6 0.61 1.15 0.91 2.38 0.91 3.67 0 1.61-0.24 3.07-0.72 4.37-0.5 1.29-1.16 2.35-2.03 3.16-0.79 0.72-1.69 1.26-2.73 1.6-1.05 0.34-2.31 0.51-3.79 0.51h-5.42l-1.5 9.38h-7.29l4.29-26.95z"/>
   <path d="m228.44 168.91-2.5 15.78c-0.06 0.29-0.1 0.61-0.1 0.93-0.01 0.33-0.03 0.64-0.03 0.94 0 2.23 1.19 3.35 3.57 3.35 0.78 0 1.46-0.1 2.04-0.33 0.58-0.21 1.07-0.55 1.5-1.01 0.42-0.49 0.76-1.11 1.03-1.87 0.27-0.77 0.5-1.72 0.69-2.82l2.42-14.97h7.29l-2.67 16.75c-0.48 2.89-1.42 5.24-2.79 7.05-1.05 1.38-2.33 2.37-3.85 2.95-1.51 0.59-3.5 0.89-5.94 0.89-1.87 0-3.54-0.26-5.03-0.77-1.48-0.51-2.7-1.24-3.64-2.18-1.4-1.42-2.11-3.49-2.11-6.19 0-0.6 0.03-1.21 0.09-1.84 0.06-0.64 0.13-1.26 0.24-1.89l2.42-14.77h7.37z"/>
   <path d="m248.36 168.91h7.33l-3.12 19.39c-0.05 0.32-0.09 0.55-0.12 0.69-0.03 0.13-0.08 0.33-0.17 0.59 0.3-0.04 0.53-0.07 0.68-0.07h0.67 6.71l-1.01 6.36h-15.26l4.29-26.96z"/>
   <path d="m264.64 186.51c0.97 1.25 1.96 2.16 3 2.74 1.02 0.58 2.13 0.87 3.35 0.87 0.84 0 1.5-0.22 1.98-0.68 0.48-0.43 0.74-1.01 0.74-1.71 0-0.54-0.24-1.05-0.7-1.5-0.45-0.45-1.26-0.99-2.39-1.58-1.37-0.7-2.45-1.33-3.24-1.91-0.78-0.58-1.36-1.19-1.73-1.82-0.32-0.51-0.58-1.07-0.77-1.69-0.19-0.63-0.29-1.24-0.29-1.82 0-2.54 0.75-4.61 2.27-6.24 0.83-0.92 1.91-1.65 3.2-2.22 1.3-0.57 2.57-0.85 3.85-0.85 1.78 0 3.37 0.27 4.77 0.81 1.41 0.52 2.76 1.38 4.04 2.56l-3.27 5.29c-0.94-0.95-1.78-1.6-2.49-1.95-0.72-0.34-1.54-0.52-2.49-0.52-0.71 0-1.26 0.19-1.68 0.56-0.41 0.38-0.62 0.88-0.62 1.5 0 0.95 0.79 1.81 2.39 2.61 0.83 0.45 1.54 0.83 2.12 1.13s0.99 0.51 1.23 0.65c1.05 0.62 1.88 1.49 2.51 2.59 0.62 1.12 0.93 2.32 0.93 3.61 0 1.49-0.18 2.76-0.54 3.79-0.36 1.05-0.99 2-1.85 2.86-0.88 0.92-2.04 1.66-3.44 2.21s-2.83 0.84-4.29 0.84c-0.78 0-1.48-0.03-2.12-0.09s-1.23-0.14-1.79-0.28c-0.55-0.13-1.09-0.31-1.61-0.54-0.52-0.24-1.07-0.52-1.64-0.88-0.71-0.39-1.27-0.79-1.73-1.19-0.44-0.39-0.93-0.9-1.47-1.51l3.77-5.64z"/>
   <path d="m286.98 168.91h15.63l-0.98 6.2h-8.21l-0.52 2.94c-0.06 0.3-0.1 0.52-0.13 0.68-0.03 0.14-0.08 0.37-0.15 0.66 0.29-0.05 0.5-0.08 0.63-0.08h0.7 7l-1.06 5.99h-8.12l-0.54 3.15c-0.04 0.3-0.09 0.53-0.12 0.67-0.02 0.15-0.08 0.37-0.16 0.63 0.29-0.05 0.52-0.08 0.67-0.08h0.67 6.92l-0.98 6.2h-15.54l4.29-26.96z"/>
  </g>
 </g>
</svg>
