<svg xmlns="http://www.w3.org/2000/svg" height="557.77" width="600" viewBox="0 0 158.75 147.57656"><g transform="translate(-171.58-60.06)"><g stroke-width=".265" fill="#fff"><path d="m278.25 153.49c-.27-2.34-.61-5.7-.61-8.66 0-1.83.25-9.22.25-15.17 0-5.02-1.08-13.94-1.08-18.79 0-2.92.21-6.87-.11-8.26 2.32-1.51 4.36-2.47 10.76-6.359 2.08-1.256 6.04-3.376 6.04-5.926 0-1.133-.31-1.876-1.91-3.199-1.14-.905-2.34-1.161-3.7-1.161-3.27 0-4.75 3.267-7.48 4.939-4.18 2.553-6.4 3.821-7.25 4.294-.35-.161-1.77-1-4.05-1-2.39 0-5.17 1.067-5.17 4.173 0 1.415.45 2.959-1.44 3.959-1.07.67-6.27 3.64-11.8 6.97-4.66 2.82-6.83 2.6-8.8 3.78-1.81 1.1-2.29 2.46-2.29 3.65 0 1.05.67 2.37.9 2.67 1.25 1.61 2.37 2.47 4.34 2.47 3.35 0 6.12-2.91 11.29-6.59 3.21-2.29 6.17-4.67 7.9-4.67 1.54 0 2.62 1.16 2.62 5.96 0 16.02-.99 18.56-.99 29.68 0 2 .08 5.7.15 7.23h-8.49v-26.25l-16.36 13.79-16.36-13.79v26.25h-53.03v-93.42h51.62l17.77 18.696 17.76-18.696h51.87v39.941c-1.64 2.54-6.65 11.12-10.02 19.9-1.11 2.86-1.63 4.92-3.07 4.92-1.61 0-1.73-1.56-1.89-2.98-.32-3.08-1.01-8.81-1.34-10.92-.6-4.09-1.41-8.41-5.98-8.41-3.38 0-6.92 1.85-6.92 6.9 0 2.86 1.45 7.84 3.93 14.39.97 2.58 6.17 16.2 6.92 18.17 1.37 3.62 3.28 4.6 6.24 4.6 3.8 0 5.11-1.39 6.68-6.72 1.32-4.54 3.58-11.95 5.45-16.58v30.21h-32.35zm44.51-51.85v51.85h-8.54v-37.93c1.83-3.96 6.23-10.87 8.54-13.92m-8.54-6.913v-34.665l8.54 5.129v18.979c-2.11 2.187-6.48 7.52-8.54 10.555m-68.56-26.16l-4.69 4.941-12.73-13.378 16.14 7.087 1.29 1.35zm.57 72.75h5.89l1.59-1.34v-4.96l-7.48 6.3m-18.01 12.16h7.02v-12.55l-7.02-5.91v18.46"/><path d="m323.76 150.14h2.71v.51h-1.07v2.84h-.58v-2.84h-1.06v-.51"/><path d="m326.85 150.14h.82l.93 2.62h.02l.89-2.62h.82v3.35h-.55v-2.58h-.02l-.93 2.58h-.48l-.93-2.58v2.58h-.57v-3.35"/></g><path d="m322.75 207.64h-151.16v-50.53h151.16v50.53" fill="#f04b45"/><g><path d="m204.08 179.47c-.06.33-.1.55-.13.7-.001.12-.07.32-.15.59.27-.04.46-.07.61-.07h.65 1.13c.62 0 1.12-.04 1.5-.1.37-.07.69-.18.96-.35.38-.24.68-.6.89-1.07.22-.48.33-1 .33-1.57 0-1.79-1.09-2.7-3.28-2.7h-1.75l-.76 4.57m-5.63-10.56h8.35c1.53 0 2.94.14 4.22.41 1.28.3 2.39.71 3.31 1.25.99.59 1.8 1.46 2.4 2.6.61 1.15.91 2.38.91 3.67 0 1.61-.24 3.07-.72 4.37-.5 1.29-1.16 2.35-2.03 3.16-.79.72-1.69 1.26-2.73 1.6-1.05.34-2.31.51-3.79.51h-5.42l-1.5 9.38h-7.29l4.29-26.95"/><path d="m228.44 168.91l-2.5 15.78c-.06.29-.1.61-.1.93-.001.33-.03.64-.03.94 0 2.23 1.19 3.35 3.57 3.35.78 0 1.46-.1 2.04-.33.58-.21 1.07-.55 1.5-1.01.42-.49.76-1.11 1.03-1.87.27-.77.5-1.72.69-2.82l2.42-14.97h7.29l-2.67 16.75c-.48 2.89-1.42 5.24-2.79 7.05-1.05 1.38-2.33 2.37-3.85 2.95-1.51.59-3.5.89-5.94.89-1.87 0-3.54-.26-5.03-.77-1.48-.51-2.7-1.24-3.64-2.18-1.4-1.42-2.11-3.49-2.11-6.19 0-.6.03-1.21.09-1.84.06-.64.13-1.26.24-1.89l2.42-14.77h7.37"/><path d="m248.36 168.91h7.33l-3.12 19.39c-.05.32-.09.55-.12.69-.03.13-.08.33-.17.59.3-.04.53-.07.68-.07h.67 6.71l-1.01 6.36h-15.26l4.29-26.96"/><path d="m264.64 186.51c.97 1.25 1.96 2.16 3 2.74 1.02.58 2.13.87 3.35.87.84 0 1.5-.22 1.98-.68.48-.43.74-1.01.74-1.71 0-.54-.24-1.05-.7-1.5-.45-.45-1.26-.99-2.39-1.58-1.37-.7-2.45-1.33-3.24-1.91-.78-.58-1.36-1.19-1.73-1.82-.32-.51-.58-1.07-.77-1.69-.19-.63-.29-1.24-.29-1.82 0-2.54.75-4.61 2.27-6.24.83-.92 1.91-1.65 3.2-2.22 1.3-.57 2.57-.85 3.85-.85 1.78 0 3.37.27 4.77.81 1.41.52 2.76 1.38 4.04 2.56l-3.27 5.29c-.94-.95-1.78-1.6-2.49-1.95-.72-.34-1.54-.52-2.49-.52-.71 0-1.26.19-1.68.56-.41.38-.62.88-.62 1.5 0 .95.79 1.81 2.39 2.61.83.45 1.54.83 2.12 1.13s.99.51 1.23.65c1.05.62 1.88 1.49 2.51 2.59.62 1.12.93 2.32.93 3.61 0 1.49-.18 2.76-.54 3.79-.36 1.05-.99 2-1.85 2.86-.88.92-2.04 1.66-3.44 2.21s-2.83.84-4.29.84c-.78 0-1.48-.03-2.12-.09s-1.23-.14-1.79-.28c-.55-.13-1.09-.31-1.61-.54-.52-.24-1.07-.52-1.64-.88-.71-.39-1.27-.79-1.73-1.19-.44-.39-.93-.9-1.47-1.51l3.77-5.64"/><path d="m286.98 168.91h15.63l-.98 6.2h-8.21l-.52 2.94c-.06.3-.1.52-.13.68-.03.14-.08.37-.15.66.29-.05.5-.08.63-.08h.7 7l-1.06 5.99h-8.12l-.54 3.15c-.04.3-.09.53-.12.67-.02.15-.08.37-.16.63.29-.05.52-.08.67-.08h.67 6.92l-.98 6.2h-15.54l4.29-26.96"/></g></g></svg>