<svg xmlns="http://www.w3.org/2000/svg" height="140.92" width="600" viewBox="0 0 158.75 37.28516"><g transform="translate(-95.11 208.95)"><path d="m98.1-171.66h155.76v-37.29h-155.76l-.004 37.29z" fill="#262c29"/><g fill="#fff"><path d="m0 0l-5.798 44.711-18.728-44.711h-8.07l-17.803 44.711-6.625-44.711h-20.08l13.144 77.63h19.977l15.734-41.4 16.664 41.4h19.972l11.803-77.63h-20.18" transform="matrix(.19982 0 0-.19982 117.59-188.85)"/><path d="m0 0c0-5.381-.411-9.624-1.347-12.838-1.138-4.03-3.208-7.659-6.208-11.07-6.52-7.353-15.526-10.977-26.809-10.977-5.485 0-10.659.936-15.318 2.694-10.763 4.138-16.56 11.901-17.699 24.427-.208 2.277-.312 4.861-.312 7.763v44.815h20.19v-42.02c0-4.861.104-7.867.416-9.11.306-1.549.826-3.208 1.757-4.757 2.278-4.04 6.01-6.01 11.283-6.01 5.486 0 9.416 2.07 11.798 6.312 1.347 2.486 2.069 7.04 2.069 13.561v42.02h20.18v-44.815" transform="matrix(.19982 0 0-.19982 136.83-195.41)"/><path d="m0 0v77.63h20.18v-60.55h24.22v-17.08h-44.4" transform="matrix(.19982 0 0-.19982 139.8-188.85)"/><path d="m0 0v-60.55h-20.18v60.55h-16.352v17.07h53.31v-17.07h-16.769" transform="matrix(.19982 0 0-.19982 155.49-200.95)"/><path d="m160.62-188.85h4.03v-15.51h-4.03v15.51"/></g><g fill="#9acb21"><path d="m0 0c8.07.033 13.402 3.794 13.429 9.378-.027 4.774-3.668 7.396-10.752 7.423h-3.378l-2.37-16.801h3.071m13.292-43.55l-17.896 29.694-3.581-29.694h-20.245l9.521 77.56h25.38c18.296-.016 27.466-7.862 27.488-23.727.027-8.14-2.086-13.905-6.887-18.389-2.436-2.316-4.5-3.471-9.28-5.442l18.69-29.447-.306-.186v.372-.372l.306.186.351-.553h-23.541" transform="matrix(.19982 0 0-.19982 218.38-197.56)"/><path d="m0 0v.372-.372m-20.338-.367v59.941h-16.21v17.623h53.5v-17.623h-16.605v-59.941h-20.688" transform="matrix(.19982 0 0-.19982 234.08-188.93)"/><path d="m0 0l.219.274-.219-.274m-35.41-55.55c-3.991 1.626-5.573 2.579-9.104 5.146l-.263.186 8.623 16.676.328-.301c5.946-5.289 11.322-7.692 16.917-7.692 5.677.011 8.973 2.836 8.973 7.205 0 1.445-.531 2.89-1.473 3.859-1.933 1.993-3.641 2.754-9.914 4.593-6.165 1.867-8.623 2.776-11.431 4.347-6.01 3.115-8.951 9.05-8.951 17.442.022 15.652 10.445 26.26 25.779 26.289 7.944 0 16.342-2.19 23.886-6.296l.312-.169-7.965-15.904-.198-.4-.328.29c-4.172 3.553-8.141 5.135-12.394 5.152-4.698-.017-8.03-2.754-8.03-6.301 0-1.342.548-2.562 1.692-3.51 1.226-1.199 2.956-2.102 4.867-2.715 1.029-.394 3.312-1.018 6.624-2.047 6.893-2.157 10.489-4.134 13.714-7.78 3.443-3.755 4.894-7.987 4.85-13.965 0-4.796-1.188-10.72-2.83-14.11-4.259-8.448-14.436-13.725-26.568-13.725h-.088c-5.901 0-10.927 1.155-17.03 3.728" transform="matrix(.19982 0 0-.19982 175.35-200.29)"/><path d="m0 0l.219.274-.219-.274m-35.409-55.55c-3.992 1.626-5.574 2.579-9.105 5.146l-.262.186 8.622 16.676.328-.301c5.946-5.289 11.322-7.692 16.917-7.692 5.677.011 8.973 2.836 8.973 7.205 0 1.445-.531 2.89-1.473 3.859-1.933 1.993-3.641 2.754-9.914 4.593-6.165 1.867-8.623 2.776-11.431 4.347-6.01 3.115-8.951 9.05-8.951 17.442.022 15.652 10.445 26.26 25.779 26.289 7.944 0 16.342-2.19 23.886-6.296l.312-.169-7.965-15.904-.198-.4-.328.29c-4.172 3.553-8.141 5.135-12.394 5.152-4.698-.017-8.03-2.754-8.03-6.301 0-1.342.548-2.562 1.692-3.51 1.226-1.199 2.956-2.102 4.867-2.715 1.029-.394 3.312-1.018 6.624-2.047 6.893-2.157 10.489-4.134 13.714-7.78 3.443-3.755 4.894-7.987 4.85-13.965 0-4.796-1.188-10.72-2.83-14.11-4.259-8.448-14.436-13.725-26.568-13.725h-.088c-5.901 0-10.927 1.155-17.02 3.728" transform="matrix(.19982 0 0-.19982 247.3-200.29)"/><path d="m0 0h-6.34v19.17h6.449c7.06 0 10.577-3.164 10.577-9.618 0-6.559-3.295-9.548-10.686-9.548m23.957 29.05c-4.916 4.801-10.09 6.586-18.871 6.58h-31.25v-77.57h20.16v25.517h11.803c16.473.022 25.512 9.328 25.534 26.17 0 8.06-2.409 14.546-7.369 19.303" transform="matrix(.19982 0 0-.19982 185.47-197.23)"/><path d="m0 0c-4.084-4.09-6.121-8.759-6.121-14.431 0-5.852 1.949-10.851 6.01-14.907 4.1-4.057 8.929-6.126 14.83-6.126 5.858 0 10.643 2.053 14.699 6.126 4.079 4.073 6.121 8.945 6.165 14.715-.044 5.864-2.086 10.643-6.165 14.716-4.056 4.068-8.929 6.02-14.699 6.03-5.683-.011-10.533-2.064-14.721-6.126m14.721-56.782c-12.263 0-22.752 4.02-31.15 11.923-8.338 7.977-12.575 17.837-12.575 29.53 0 8.902 2.326 16.944 6.952 23.99 4.654 7.07 11.125 12.361 19.2 15.608 5.266 2.113 10.993 3.158 17.16 3.158 12.657 0 23.256-3.99 31.566-11.896 8.294-7.883 12.554-18.1 12.554-30.15 0-12.268-4.26-22.467-12.794-30.356-8.382-7.878-18.756-11.803-30.888-11.803h-.022" transform="matrix(.19982 0 0-.19982 199.31-199.52)"/></g><g fill="#fff"><path d="m0 0h-12.564c-.104 0-.104.049-.104.049s-.11.044-.11.159v12.258c0 .208-.098.312-.098.312s-.038.055-.252.055h-10.347c-.323 0-.416-.055-.416-.055s-.055-.104-.055-.258v-12.427c0-.093-.098-.148-.098-.148s0-.054-.115-.054h-13.939c-.098 0-.153-.061-.153-.061s-.104-.148-.104-.246v-10.407c0-.307.104-.411.104-.411s.055-.049.312-.049h13.643c.137 0 .202-.11.202-.11s.148-.098.148-.251v-14.179c0-.269.055-.318.055-.318s.093-.109.268-.109h10.544c.165 0 .203.109.203.109s.098.049.098.268v14.179c0 .252.159.301.159.301s.11.11.323.11h13.314c.148 0 .203.104.203.104s.148.153.148.257v10.506c0 .307-.148.361-.148.361s-.11.055-.471.055h-.75" transform="matrix(.19982 0 0-.19982 192.12-182.59)"/><path d="m0 0v-6.367h10.845v-8.404h-10.845v-15.04h-9.947v38.23h21.865v-8.414h-11.918" transform="matrix(.19982 0 0-.19982 155.19-183.12)"/><path d="m0 0c-6.465 0-11.36-4.993-11.36-11.568 0-6.361 4.533-11.01 10.719-11.01 6.346 0 11.09 4.856 11.09 11.431 0 6.466-4.429 11.152-10.451 11.152m-.558-31.742c-12.07 0-20.683 8.256-20.683 19.922 0 12.02 9.12 20.99 21.444 20.99 11.983 0 20.13-7.949 20.13-19.616 0-12.432-8.705-21.296-20.891-21.296" transform="matrix(.19982 0 0-.19982 162.82-183.25)"/><path d="m0 0c-6.476 0-11.365-4.993-11.365-11.568 0-6.361 4.527-11.01 10.697-11.01 6.373 0 11.11 4.856 11.11 11.431 0 6.466-4.423 11.152-10.44 11.152m-.569-31.742c-12.07 0-20.689 8.256-20.689 19.922 0 12.02 9.137 20.99 21.455 20.99 11.978 0 20.12-7.949 20.12-19.616 0-12.432-8.705-21.296-20.891-21.296" transform="matrix(.19982 0 0-.19982 172.06-183.25)"/><path d="m0 0v-29.814h-9.925v29.814h-8.06v8.414h26.24v-8.414h-8.256" transform="matrix(.19982 0 0-.19982 180.1-183.12)"/><path d="m0 0h-12.575c-.099 0-.099.055-.099.055s-.12.043-.12.147v12.274c0 .203-.093.313-.093.313s-.049.043-.263.043h-10.347c-.317 0-.41-.043-.41-.043s-.061-.11-.061-.263v-12.428c0-.098-.093-.158-.093-.158s0-.044-.109-.044h-13.955c-.093 0-.159-.06-.159-.06s-.093-.159-.093-.258v-10.401c0-.307.093-.416.093-.416s.066-.044.329-.044h13.631c.154 0 .208-.11.208-.11s.148-.104.148-.263v-14.195c0-.257.061-.306.061-.306s.093-.105.251-.105h10.561c.159 0 .208.105.208.105s.093.049.093.251v14.196c0 .268.159.317.159.317s.115.11.328.11h13.314c.154 0 .197.093.197.093s.17.159.17.268v10.5c0 .318-.17.362-.17.362s-.093.06-.459.06h-.745" transform="matrix(.19982 0 0-.19982 249.25-182.5)"/><path d="m0 0v-18.356h-9.553v18.356l-13.287 19.873h11.431l6.964-10.397 6.657 10.397h11.562l-13.774-19.873" transform="matrix(.19982 0 0-.19982 237.06-180.91)"/><path d="m0 0c0 1.527-.586 2.65-1.812 3.301-.838.46-2.496.717-5 .717h-1.971v-8.108h2.119c4.456 0 6.668 1.385 6.668 4.09m-2.546 15.15c0 2.486-1.511 3.706-4.522 3.706h-1.719v-7.44h1.719c3.01 0 4.522 1.221 4.522 3.734m12.214-16.07c0-3.624-1.33-6.438-3.931-8.365-2.255-1.686-5.201-2.491-8.775-2.491h-15.302v38.22h14.229c6.908 0 10.352-3.318 10.352-9.991 0-2.13-.454-3.909-1.391-5.344-.635-.974-1.516-1.839-2.688-2.502 2.355-.449 4.079-1.286 5.092-2.387 1.626-1.746 2.414-4.144 2.414-7.144" transform="matrix(.19982 0 0-.19982 230.97-179.6)"/><path d="m0 0c0-3.323-.241-6.148-.816-8.398-1.073-4.5-3.378-8.04-6.848-10.599-3.334-2.458-7.331-3.684-11.973-3.684-6.04 0-10.966 1.889-14.793 5.628-3.799 3.744-5.688 8.655-5.688 14.743 0 6.153 1.889 11.1 5.738 14.901 3.826 3.767 8.89 5.661 15.14 5.661 5.168 0 9.318-1.423 12.543-4.341 1.182-1.068 2.293-2.508 3.383-4.199.356-.608.81-1.369 1.281-2.234l-9.482-3.952c-.766 1.686-1.582 2.967-2.502 3.897-1.478 1.473-3.378 2.24-5.622 2.24-2.267 0-4.205-.658-5.885-2.048-1.55-1.27-2.661-3.01-3.395-5.162-.503-1.489-.766-3.121-.766-4.851 0-3.547.98-6.465 2.874-8.715 1.949-2.256 4.456-3.384 7.478-3.384 3.219 0 5.409 1.188 6.696 3.493.46.816.832 1.883 1.089 3.274h-8.206v7.73h19.752" transform="matrix(.19982 0 0-.19982 226.36-181.51)"/><path d="m0 0c0-2.666-.203-4.768-.641-6.367-.542-1.998-1.527-3.805-2.967-5.502-3.115-3.64-7.401-5.436-12.805-5.436-2.617 0-5.08.438-7.303 1.325-5.151 2.064-7.905 5.912-8.453 12.137-.104 1.122-.147 2.409-.147 3.843v22.243h9.635v-20.852c0-2.415.044-3.904.191-4.522.143-.756.395-1.594.843-2.365 1.084-1.993 2.858-2.979 5.382-2.979 2.622 0 4.5 1.03 5.633 3.137.652 1.238.997 3.493.997 6.729v20.852h9.635v-22.243" transform="matrix(.19982 0 0-.19982 217.4-180.54)"/><path d="m0 0c0 1.577-.597 2.852-1.823 3.712-.936.662-2.245 1.034-4.057 1.034h-1.763v-9.492h1.763c3.92 0 5.88 1.587 5.88 4.746m1.467-25.84l-9.11 14.672v-14.672h-9.564v38.21h14.858c3.964 0 7.01-1.117 9.07-3.411 2.053-2.288 3.082-5.086 3.082-8.404 0-1.894-.389-3.618-1.122-5.304-.843-1.884-1.96-3.214-3.395-4.074-.925-.552-2.047-1.018-3.487-1.374l11.535-15.646h-11.869" transform="matrix(.19982 0 0-.19982 208.03-182.41)"/><path d="m0 0v-13.758c0-.514-.104-.722-.515-.722h-10.494c-.351 0-.559.251-.559.618v13.769c0 .558-.197.755-.662.755h-13.599c-.416 0-.619.269-.619.723v10.44c0 .405.154.608.559.608h13.714c.41 0 .607.197.607.662v11.814c0 .312.208.526.509.526h10.44c.411 0 .619-.164.619-.526v-11.814c0-.558.104-.662.558-.662h13.725c.411 0 .559-.203.559-.668v-10.484c0-.35-.198-.619-.559-.619h-13.56c-.57 0-.723-.104-.723-.662" transform="matrix(.19982 0 0-.19982 137.92-180.07)"/></g><path d="m0 0c-20.584-17.349-70.36-44.15-160.43-10.719l-.02-21.521c86.82-29.12 140.65 10.823 161.46 31.775l-1.01.465" fill="#9acb21" transform="matrix(.19982 0 0-.19982 127.17-183.48)"/><g fill="#fff"><path d="m0 0c0-3.307-.257-6.115-.816-8.354-1.073-4.484-3.356-8-6.827-10.555-3.306-2.447-7.292-3.668-11.929-3.668-6.01 0-10.905 1.883-14.726 5.6-3.772 3.717-5.661 8.623-5.661 14.683 0 6.115 1.889 11.06 5.705 14.831 3.821 3.772 8.868 5.66 15.1 5.66 5.135 0 9.257-1.434 12.476-4.33 1.178-1.073 2.294-2.507 3.356-4.183.362-.607.827-1.363 1.281-2.239l-9.427-3.925c-.766 1.686-1.587 2.951-2.491 3.871-1.478 1.478-3.367 2.244-5.617 2.244-2.239 0-4.182-.662-5.863-2.036-1.522-1.271-2.655-3.01-3.367-5.152-.509-1.478-.766-3.109-.766-4.845 0-3.52.98-6.422 2.852-8.655 1.949-2.25 4.44-3.367 7.446-3.367 3.219 0 5.408 1.16 6.689 3.471.455.805.816 1.872 1.057 3.263h-8.141v7.686h19.665" transform="matrix(.19982 0 0-.19982 108.77-181.21)"/><path d="m0 0v-6.372h10.867v-8.415h-10.867v-15.03h-9.936v38.23h21.876v-8.414h-11.94" transform="matrix(.19982 0 0-.19982 127.57-182.93)"/><path d="m0 0c-2.086 2.086-4.637 3.099-7.599 3.099-2.896 0-5.452-1.063-7.593-3.159-2.086-2.086-3.159-4.533-3.159-7.435 0-3.01 1.029-5.606 3.11-7.697 2.086-2.102 4.637-3.159 7.642-3.159 3.02 0 5.513 1.057 7.599 3.159 2.097 2.091 3.164 4.637 3.164 7.593 0 3.01-1.067 5.502-3.164 7.599m7.396-22.276c-4.078-3.832-9.09-5.71-14.995-5.71-5.962 0-11.01 1.933-15.08 5.754-4.03 3.881-6.07 8.611-6.07 14.272 0 4.336 1.116 8.217 3.355 11.628 2.245 3.416 5.36 5.956 9.285 7.538 2.54 1.024 5.3 1.539 8.305 1.539 6.165 0 11.267-1.944 15.296-5.771 4.02-3.821 6.06-8.715 6.06-14.573 0-5.972-2.042-10.856-6.164-14.677" transform="matrix(.19982 0 0-.19982 115.84-182.22)"/><path d="m0 0v38.23h9.936v-29.815h11.929v-8.414h-21.865" transform="matrix(.19982 0 0-.19982 120.01-176.97)"/></g></g></svg>