<svg xmlns="http://www.w3.org/2000/svg" viewBox="0 0 491.27 98.83"><g transform="matrix(2.80513 0 0 2.80513-197-2006.31)"><g fill="#ccc"><path d="m98.12 746.17h-5.081v-8.327c0-1.451-.129-2.443-.387-2.975-.382-.786-.955-1.179-1.72-1.179-.847 0-1.498.429-1.952 1.288-.32.605-.48 1.56-.48 2.866v8.327h-5.081v-8.327c0-1.451-.103-2.395-.31-2.83-.413-.871-1.048-1.306-1.905-1.306-.795 0-1.415.375-1.859 1.125-.165.266-.284.632-.356 1.098-.072.466-.108 1.104-.108 1.914v8.327h-5.081v-16.835h5.081v2.068c.599-.677 1.146-1.173 1.642-1.488.899-.568 1.9-.853 3.01-.853 1.415 0 2.592.429 3.532 1.288.475.435.929 1.052 1.363 1.85.392-.75.831-1.342 1.317-1.778 1.022-.919 2.189-1.379 3.501-1.379 1.074 0 2.029.302 2.866.907.898.665 1.487 1.566 1.766 2.703.165.689.248 1.548.248 2.576z"/><path d="m115.68 740.02c0 3.132-1.265 5.213-3.795 6.241-1.053.423-2.339.635-3.857.635-2.985 0-5.128-.859-6.429-2.576-.826-1.088-1.239-2.522-1.239-4.3v-10.685h5.081v9.542c0 1.052.217 1.826.651 2.322.465.532 1.11.798 1.936.798.816 0 1.456-.266 1.921-.798.434-.496.651-1.27.651-2.322v-9.542h5.081z"/><path d="m129.5 740.43c0 1.79-.547 3.253-1.642 4.39-1.229 1.282-2.959 1.923-5.19 1.923-1.973 0-3.888-.647-5.747-1.941l1.843-4.209c1.456 1.125 2.809 1.687 4.059 1.687 1.064 0 1.596-.429 1.596-1.288 0-.447-.186-.792-.558-1.034-.238-.157-.775-.345-1.611-.562-.94-.242-1.554-.429-1.844-.562-1.033-.472-1.73-1.209-2.091-2.213-.196-.544-.294-1.197-.294-1.959 0-1.476.429-2.764 1.286-3.864 1.105-1.415 2.809-2.123 5.112-2.123 1.601 0 3.155.363 4.663 1.088l-1.72 3.846c-.95-.568-1.859-.853-2.727-.853-1.022 0-1.534.411-1.534 1.234 0 .375.207.677.62.907.186.109.733.272 1.642.49 1.332.327 2.313.847 2.943 1.56.795.895 1.193 2.056 1.193 3.483"/><path d="m136.88 722.86c0 .943-.276 1.739-.829 2.386-.553.647-1.232.971-2.037.971-.795 0-1.469-.327-2.02-.98-.553-.653-.829-1.445-.829-2.377 0-.931.276-1.72.829-2.367.553-.647 1.226-.971 2.02-.971.795 0 1.472.324 2.029.971.558.647.837 1.436.837 2.367m-.325 23.312h-5.081v-16.835h5.081z"/><path d="m167.5 745.81c-1.053.617-2.159.925-3.315.925-2.623 0-4.704-1.04-6.243-3.12-1.239-1.681-1.859-3.628-1.859-5.842 0-2.225.62-4.173 1.859-5.842 1.539-2.08 3.62-3.12 6.243-3.12 1.177 0 2.282.314 3.315.943v5.062c-.899-.738-1.776-1.107-2.634-1.107-1.012 0-1.849.381-2.51 1.143-.661.762-.991 1.736-.991 2.921 0 1.185.33 2.159.991 2.921.661.762 1.498 1.143 2.51 1.143.847 0 1.725-.363 2.634-1.088z"/><path d="m185.52 746.04h-5.081v-8.527c0-1.5-.145-2.491-.434-2.975-.423-.714-1.059-1.07-1.905-1.07-.785 0-1.436.308-1.952.925-.475.568-.713 1.445-.713 2.631v9.02h-5.081v-27.25h5.081v12.536c.589-.798 1.131-1.361 1.627-1.687.816-.544 1.823-.816 3.02-.816 1.528 0 2.788.496 3.78 1.488 1.105 1.113 1.658 2.782 1.658 5.01z"/><path d="m204.03 737.56c0 2.334-.656 4.336-1.967 6-1.59 2.032-3.816 3.048-6.677 3.048-2.871 0-5.102-1.016-6.692-3.048-1.312-1.669-1.967-3.719-1.967-6.15 0-2.189.661-4.13 1.983-5.823 1.601-2.044 3.878-3.066 6.832-3.066 2.716 0 4.885 1.022 6.506 3.066 1.322 1.669 1.983 3.659 1.983 5.969m-5.283 0c0-1.088-.328-2.01-.984-2.767-.656-.756-1.448-1.134-2.378-1.134-1.053 0-1.911.46-2.572 1.379-.537.738-.806 1.578-.806 2.522 0 .955.269 1.802.806 2.54.661.919 1.518 1.379 2.572 1.379.94 0 1.735-.378 2.386-1.134.651-.756.976-1.684.976-2.785"/><path d="m211.26 722.6c0 .943-.276 1.739-.829 2.386-.553.647-1.232.971-2.037.971-.795 0-1.469-.327-2.02-.98-.553-.653-.829-1.445-.829-2.377 0-.931.276-1.72.829-2.367.553-.647 1.226-.971 2.02-.971.795 0 1.472.324 2.029.971.558.647.837 1.436.837 2.367m-.325 23.312h-5.081v-16.835h5.081z"/><path d="m224.45 745.62c-1.053.617-2.158.925-3.315.925-2.623 0-4.704-1.04-6.243-3.12-1.239-1.681-1.859-3.628-1.859-5.842 0-2.225.62-4.173 1.859-5.842 1.539-2.08 3.62-3.12 6.243-3.12 1.177 0 2.282.314 3.315.943v5.062c-.899-.738-1.776-1.107-2.634-1.107-1.012 0-1.849.381-2.51 1.143-.661.762-.991 1.736-.991 2.921 0 1.185.33 2.159.991 2.921.661.762 1.498 1.143 2.51 1.143.847 0 1.725-.363 2.634-1.088z"/><path d="m241.8 738.71h-10.689c0 2.528 1.043 3.792 3.129 3.792 1.064 0 1.88-.532 2.448-1.596h4.911c-.392 1.524-.971 2.703-1.735 3.538-1.384 1.512-3.238 2.268-5.561 2.268-2.954 0-5.174-1.052-6.661-3.157-1.115-1.572-1.673-3.489-1.673-5.751 0-2.685.697-4.868 2.091-6.549 1.394-1.681 3.362-2.522 5.902-2.522 3.129 0 5.365 1.33 6.708 3.991.754 1.5 1.131 3.241 1.131 5.225zm-4.74-3.411c-.361-1.863-1.327-2.794-2.897-2.794-.868 0-1.57.296-2.107.889-.423.472-.692 1.107-.806 1.905z"/><path d="m150.03 745.53c-1.053.606-2.157.909-3.312.909-2.621 0-4.7-1.022-6.238-3.066-1.238-1.652-1.857-3.565-1.857-5.74 0-2.187.619-4.1 1.857-5.74 1.537-2.044 3.617-3.066 6.238-3.066 1.176 0 2.28.309 3.312.927v4.974c-.898-.725-1.775-1.087-2.631-1.087-1.01 0-1.847.374-2.507 1.123-.66.749-.991 1.705-.991 2.87 0 1.165.33 2.121.991 2.87.66.749 1.496 1.123 2.507 1.123.846 0 1.723-.357 2.631-1.07z"/></g><path transform="matrix(1.34715 0 0 1.55161-206.19-386.03)" d="m264.2 724.19c0 .962-.779 1.741-1.741 1.741-.962 0-1.741-.78-1.741-1.741 0-.962.78-1.741 1.741-1.741.962 0 1.741.78 1.741 1.741" fill="#ff4040"/></g></svg>