<svg xmlns="http://www.w3.org/2000/svg" viewBox="0 0 600 803.95"><g transform="matrix(1.03764 0 0 1.03764-76.929-460.5)" fill="#f08231"><path d="m141.13 1160.7c0 18.565-7.02 28.926-14.463 28.926h-14.95v-80.936h14.95c7.02 0 14.463 12.516 14.463 28.856v23.15m-6.258-80.936h-50.62c-5.563 0-10.08 4.52-10.08 10.08v118.55c0 5.563 4.52 10.152 10.08 10.152h56.39c28.926 0 34.697-43.39 34.697-57.851v-23.15c0-28.856-11.542-57.782-40.468-57.782"/><path d="m257.74 1108.7c3.963 0 7.231-3.268 7.231-7.231v-14.463c0-3.963-3.268-7.231-7.231-7.231h-36.16-27.466c-5.563 0-10.08 4.589-10.08 10.152v118.48c0 5.563 4.52 10.152 10.08 10.152h27.466 36.16c3.963 0 7.231-3.268 7.231-7.231v-14.463c0-3.963-3.268-7.231-7.231-7.231h-36.16v-26.01h21.694c3.963 0 7.231-3.268 7.231-7.231v-14.463c0-3.963-3.268-7.232-7.231-7.232h-21.694v-26.01h36.16z"/><path d="m350.25 1108.7c3.963 0 7.231-3.268 7.231-7.231v-14.463c0-3.963-3.268-7.231-7.231-7.231h-36.16-27.466c-5.563 0-10.08 4.589-10.08 10.152v118.48c0 5.563 4.52 10.152 10.08 10.152h27.466 36.16c3.963 0 7.231-3.268 7.231-7.231v-14.463c0-3.963-3.268-7.231-7.231-7.231h-36.16v-26.01h21.694c3.963 0 7.231-3.268 7.231-7.231v-14.463c0-3.963-3.268-7.232-7.231-7.232h-21.694v-26.01h36.16z"/><path d="m434.08 1079.8h-14.463c-5.563 0-10.08 4.52-10.08 10.152v93.94c0 1.599-1.947 2.851-4.381 2.851-2.364 0-4.311-1.252-4.311-2.851v-7.232c0-5.563-4.589-10.152-10.152-10.152h-14.463c-5.563 0-10.08 4.589-10.08 10.152v31.777c0 5.563 4.52 10.152 10.08 10.152h24.615 8.692 24.545c5.563 0 10.152-4.589 10.152-10.152v-118.48c0-5.632-4.589-10.152-10.152-10.152"/><path d="m501.9 1154.9l5.98-33.654 7.788 33.654h-13.768m66.891 53.888l-33.584-119.32c-1.46-5.354-7.301-9.735-12.864-9.735h-27.466c-5.563 0-11.195 4.38-12.516 9.804l-29.83 119.11c-1.321 5.424 2.086 9.874 7.649 9.874h20.234c5.632 0 10.986-4.52 11.96-9.943l4.381-24.754h25.658l5.771 24.754c1.182 5.493 6.675 9.943 12.238 9.943h20.999c5.563 0 8.831-4.381 7.37-9.735"/><path d="m647.62 1079.8h-28.648c-3.963 0-8.413 2.99-9.943 6.675l-10.291 25.519-10.36-25.519c-1.46-3.685-5.91-6.675-9.943-6.675h-28.648c-3.963 0-5.771 2.92-4.102 6.536l34.488 71.55v50.55c0 5.563 4.52 10.152 10.08 10.152h17.383c5.563 0 10.08-4.589 10.08-10.152v-50.55l34-71.55c1.738-3.616-.139-6.536-4.102-6.536"/><path d="m463.04 611.23h31.568c15.297 0 23.02 20.443 23.02 20.443l24.754 112.57s6.814 17.94 16.201 17.94c9.387 0 15.297-17.94 15.297-17.94s14.532-66.47 22.18-101.45c7.718-34.975 23.01-30.734 23.01-30.734h33.31v-70.02c0-54.03-44.22-98.25-98.32-98.25h-381.6c-54.1 0-98.32 44.22-98.32 98.25v81.14c17.94-17.11 40.12-8.553 40.12-8.553s17.87 9.387 28.09 9.387c10.291 0 23.502-5.563 23.502-5.563s29.412-9.804 43.04-9.804c13.628 0 30.32 8.97 30.32 8.97s20.86 15.784 38.799 15.784c17.87 0 34.488-14.95 34.488-14.95s15.367-11.06 62.719-10.639c58.825.556 55.42 55.42 55.42 55.42v173.97s-3.407 17.94-28.16 17.94-28.995-17.11-28.995-17.11v-130.44s2.573-51.18-45.2-51.18-49.44 49.44-49.44 49.44v131.35s-7.718 18.774-30.734 18.774c-23.02 0-28.995-18.774-28.995-18.774v-133.85s.904-47.769-46.03-48.673c-46.935-.834-49.44 46.1-49.44 46.1v142.4s-2.573 12.794-25.588 12.794-23.919-7.649-23.919-7.649v75.3c0 54.1 44.22 98.32 98.32 98.32h381.6c54.1 0 98.32-44.22 98.32-98.32v-230.57s-57.16 169.73-71.62 209.78c-14.532 40.12-51.18 41.789-51.18 41.789h-46.1c-11.06 0-23.01-11.89-23.01-23.85s7.162-19.12 35.392-28.16c30.734-9.804 21.764-37.478 21.764-37.478s-57.16-173.14-65.64-206.37c-8.553-33.31 11.06-37.548 11.06-37.548"/></g></svg>