<?xml version="1.0" encoding="UTF-8" standalone="no"?>
<svg xmlns:rdf="http://www.w3.org/1999/02/22-rdf-syntax-ns#" xmlns="http://www.w3.org/2000/svg" height="36.708mm" width="169.33mm" version="1.1" xmlns:cc="http://creativecommons.org/ns#" xmlns:dc="http://purl.org/dc/elements/1.1/" viewBox="0 0 599.99993 130.06945">
 <g transform="translate(-1167.6 746.91)" fill="#026198">
  <path d="m1281.4-643.58 5.7-46.5c1.5-12.16-0.1-21.25-4.6-27.28-4.5-6.02-11.8-9.04-22-9.04-5.3 0-10.4 1.34-15.3 4.03-4.8 2.68-8.8 6.25-12 10.71-2-4.76-4.8-8.41-8.6-10.94s-8.7-3.8-14.8-3.8c-5.4 0-10.2 0.94-14.6 2.81-4.3 1.88-8.1 4.41-11.2 7.6-3.2 3.19-5.8 6.91-7.8 11.17-2 4.25-3.3 8.71-3.8 13.37l-4.7 37.68c-0.4 3.45 0.2 6.01 1.7 7.68s3.7 2.51 6.7 2.51h4.4l5.6-46.15c1-8.32 3.3-14.36 6.8-18.12 3.5-3.75 8.3-5.63 14.4-5.63 5.9 0 10.1 2.1 12.7 6.32 2.6 4.21 3.5 10.02 2.6 17.43l-4.4 35.94c-0.4 3.25 0 5.76 1.2 7.54s3.5 2.67 6.8 2.67h4.7l5.7-46.6c1-8.23 3.3-14.17 6.7-17.82 3.4-3.66 8.5-5.48 15.2-5.48 5.6 0 9.6 1.82 12.2 5.48 2.6 3.65 3.4 9.75 2.3 18.27l-4.4 35.94c-0.4 3.25 0.2 5.76 1.7 7.54s3.6 2.67 6.2 2.67h4.9z"/>
  <path d="m1368.2-714.62c0.6-1.87 1-3.22 1.1-4.03 0.3-2.43-0.1-4.07-1.2-4.94-1.1-0.86-2.6-1.29-4.4-1.29h-5.5c-1.3 4.46-3.1 9.57-5.5 15.35-2.3 5.77-5 11.6-7.9 17.47-2.9 5.88-5.9 11.53-9 16.95s-5.9 10-8.5 13.74c-2-4.14-3.9-8.6-5.6-13.36s-3.2-9.58-4.4-14.44c-1.3-4.86-2.4-9.65-3.3-14.36s-1.5-9.09-1.9-13.15c-0.3-1.92-0.9-3.77-1.9-5.54-0.9-1.77-2.8-2.66-5.6-2.66h-7.9c0.4 6.69 1.2 13.5 2.6 20.44s3.1 13.75 5.1 20.43c2 6.69 4.2 13.1 6.6 19.23s4.9 11.62 7.6 16.49c-2.9 4.46-5.4 7.97-7.5 10.56-2.1 2.58-4 4.5-5.6 5.77-1.7 1.27-3.3 2.08-4.7 2.43-1.4 0.36-2.9 0.53-4.5 0.53h-6.6l-0.6 5.17c-0.2 1.72 0.6 3.32 2.3 4.79 1.8 1.47 4.2 2.2 7.3 2.2 2.9 0 5.6-0.58 8.3-1.75 2.7-1.16 5.4-3.06 8.2-5.7 2.8-2.63 5.8-6.15 9-10.56 3.2-4.4 6.8-9.9 10.8-16.49 1.4-2.22 3.4-5.41 6-9.57 2.6-4.15 5.4-8.86 8.4-14.13 3-5.26 6.1-10.91 9.2-16.94 3-6.03 5.7-12.08 8-18.16 0.4-1.12 0.9-2.61 1.6-4.48"/>
  <path d="m1437.4-656.2h-57.1c1.8-2.93 4.1-6.13 7-9.57 2.8-3.44 5.9-7.04 9.3-10.79l33.6-37.07c10.1-11.15 15.5-19.66 16.2-25.54 0.3-2.32-0.2-4.2-1.6-5.62-1.3-1.41-2.7-2.12-4.1-2.12h-53.5c-4.8 0-8 0.86-9.8 2.58s-2.9 4.1-3.3 7.14l-0.3 2.89h55.8c-0.7 2.03-2 4.51-4.1 7.44-2 2.95-4.5 6.04-7.4 9.28l-33.9 37.22c-3.5 3.86-6.5 7.2-8.8 10.03-2.4 2.84-4.4 5.4-6 7.68s-2.8 4.33-3.6 6.15c-0.7 1.82-1.2 3.6-1.5 5.32-0.2 2.12 0.3 3.92 1.7 5.39s3.5 2.21 6.2 2.21h54.9c2.6 0 4.8-0.71 6.6-2.13s2.8-3.19 3.1-5.32l0.6-5.17z"/>
  <path d="m1491.2-726.4c-5.4 0-10.5 1.04-15.4 3.11-5 2.08-9.3 5.05-13.2 8.89-3.9 3.86-7.1 8.46-9.7 13.83s-4.3 11.35-5.1 17.93c-0.7 5.88-0.4 11.3 0.8 16.26 1.3 4.97 3.4 9.24 6.4 12.84 2.9 3.6 6.6 6.41 11 8.43 4.4 2.03 9.4 3.05 15 3.05 9.2 0 16.2-1.45 21.1-4.33 4.9-2.89 7.6-6.46 8.1-10.72l0.7-6.08h-0.7c-2.6 2.23-6 4.18-10.1 5.85-4.1 1.68-9.3 2.51-15.6 2.51-7.6 0-13.4-2.15-17.3-6.46-4-4.3-5.9-9.85-5.8-16.64h20c7 0 12.8-0.37 17.3-1.13 4.6-0.77 8.3-1.96 11-3.58 2.8-1.62 4.9-3.72 6.1-6.3 1.3-2.59 2.2-5.65 2.6-9.2 0.5-4.05 0.1-7.8-1.2-11.24s-3.2-6.43-5.7-8.97c-2.6-2.53-5.6-4.5-9.1-5.92s-7.3-2.13-11.2-2.13zm-3.1 12.46c3.2 0 5.9 0.46 8.2 1.37 2.2 0.91 4 2.12 5.4 3.64s2.4 3.27 2.9 5.25c0.5 1.97 0.6 4.08 0.3 6.31-0.1 1.51-0.6 2.78-1.3 3.79-0.6 1.02-1.8 1.83-3.5 2.43-1.7 0.61-4.1 1.07-7.2 1.37-3.1 0.31-7 0.51-11.9 0.61l-18.4 0.3 0.5-3.34c0.5-2.63 1.4-5.24 2.8-7.83 1.4-2.58 3.3-4.91 5.4-6.98 2.2-2.08 4.7-3.75 7.6-5.02 2.8-1.27 5.9-1.9 9.2-1.9z"/>
  <path d="m1588.8-643.58 5.7-46.81c1.5-12.25-0.3-21.32-5.3-27.19-5.1-5.88-12.7-8.82-22.9-8.82-5.2 0-10 0.81-14.5 2.43-4.4 1.62-8.4 3.98-11.8 7.07s-6.2 6.89-8.4 11.4c-2.1 4.5-3.6 9.59-4.3 15.26l-4.5 37.23c-0.4 3.25 0 5.63 1.4 7.15s3.4 2.28 5.9 2.28h5.2l5.7-46.45c1-8.33 3.4-14.32 7.2-17.97 3.8-3.66 8.7-5.48 14.8-5.48 7.3 0 12.3 1.78 15.1 5.33 2.9 3.55 3.7 9.59 2.7 18.12l-4.6 37.46c-0.8 5.99 1.8 8.99 7.5 8.99h5.1z"/>
  <path d="m1622.1-661.84c-1.9-2.01-4.3-3.02-7.3-3.02-3.1 0-5.8 1.01-8.2 3.02-2.3 2.01-3.7 4.58-4.1 7.7-0.4 3.11 0.4 5.65 2.3 7.61s4.3 2.95 7.4 2.95c3 0 5.7-0.99 8-2.95s3.7-4.5 4-7.61c0.4-3.12-0.3-5.69-2.1-7.7"/>
  <path d="m1662.8-741.44h-1.7c-1 0-2.5 0.61-4.5 1.82-2 1.22-3.5 2.54-4.7 3.95-2.8 3.45-4.5 7.65-5.1 12.61l-6.5 52.88c-1.1 9.43 0.1 16.47 3.6 21.12 3.5 4.67 9.9 7 19 7 4.7 0 8.5-0.88 11.2-2.63 2.8-1.76 4.4-4.34 4.8-7.74l0.6-4.83h-0.8c-1.5 0.91-3.4 1.52-5.8 1.82-2.3 0.31-4.7 0.46-7.2 0.46-4.5 0-7.7-1.3-9.6-3.89s-2.5-6.78-1.8-12.57l5-40.37h17.2c3.6 0 6.4-0.76 8.3-2.28s3-3.55 3.3-6.08l0.6-4.56h-28l2.1-16.71z"/>
  <path d="m1766.2-712.5c0.6-1.97 1.1-3.92 1.3-5.85 0.2-1.92 0-3.49-0.9-4.71-0.8-1.21-2.2-1.82-4.2-1.82h-4.9c-1.1 3.85-2.7 8.64-4.9 14.36-2.3 5.72-4.8 11.75-7.7 18.08-2.9 6.34-6.1 12.57-9.5 18.69-3.5 6.13-7 11.48-10.6 16.03-5.2-9.82-8.8-19.83-11-30.01-2.1-10.18-3.5-19.93-4.2-29.25-0.2-2.02-0.7-3.84-1.8-5.47-1-1.62-2.9-2.43-5.6-2.43h-6.8c0.3 13.68 2.2 27.35 5.7 41.03 3.4 13.67 8.3 26.28 14.7 37.84 0.9 1.51 1.9 2.55 2.9 3.11 1.1 0.56 2.3 0.84 3.6 0.84h3.8c3.6-3.65 7.3-8.26 11.1-13.83s7.5-11.42 11-17.55 6.6-12.24 9.5-18.31c2.9-6.08 5.2-11.45 6.9-16.11 0.4-1.11 0.9-2.66 1.6-4.64"/>
 </g>
</svg>
