<?xml version="1.0" encoding="UTF-8" standalone="no"?>
<svg xmlns:rdf="http://www.w3.org/1999/02/22-rdf-syntax-ns#" xmlns="http://www.w3.org/2000/svg" height="25.783mm" width="169.33mm" version="1.1" xmlns:cc="http://creativecommons.org/ns#" xmlns:dc="http://purl.org/dc/elements/1.1/" viewBox="0 0 599.99998 91.35544">
 <g transform="translate(-1256.9 727.55)" fill="#026198">
  <g>
   <path style="color-rendering:auto;text-decoration-color:#000000;color:#000000;isolation:auto;mix-blend-mode:normal;shape-rendering:auto;solid-color:#000000;block-progression:tb;text-decoration-line:none;text-decoration-style:solid;image-rendering:auto;white-space:normal;text-indent:0;text-transform:none" d="m1715.5-721.24-9.2 70.99h25.9 3.3l3.2-24.61h12.6l-3.2 25.12h29.2l9.3-71.5h-29.2l-2.8 21.56h-12.7l2.8-21.56h-29.2zm6.6 7.49h14.1l-2.8 21.55h27.7l2.9-21.55h14.1l-7.3 56.53h-14.2l3.2-25.13h-27.7l-3.2 24.62h-14.1l7.3-56.02z"/>
   <path style="color-rendering:auto;text-decoration-color:#000000;color:#000000;isolation:auto;mix-blend-mode:normal;shape-rendering:auto;solid-color:#000000;block-progression:tb;text-decoration-line:none;text-decoration-style:solid;image-rendering:auto;white-space:normal;text-indent:0;text-transform:none" d="m1809.5-705.15-5.1 38.82h10.1c5.9 0 10.9-1.19 14.3-4.44 3.4-3.24 5-8.13 5.8-14.42 0.8-6.17 0.5-11.19-2.3-14.92-2.9-3.72-7.7-5.04-13.4-5.04h-6.1-3.3zm6.6 7.48h2.8c4.5 0 6.6 1.07 7.4 2.11 0.8 1.05 1.6 4.14 0.9 9.4-0.7 5.43-2.2 8.67-3.6 9.97s-4.2 2.37-9.1 2.37h-1.6l3.2-23.85z"/>
   <path style="color-rendering:auto;text-decoration-color:#000000;color:#000000;isolation:auto;mix-blend-mode:normal;shape-rendering:auto;solid-color:#000000;block-progression:tb;text-decoration-line:none;text-decoration-style:solid;image-rendering:auto;white-space:normal;text-indent:0;text-transform:none" d="m1789.9-721.24-9.2 70.99h26.4c7.4 0 12.7-0.19 16.4-0.63 3.6-0.43 6.8-1.15 9.5-2.27 6.6-2.61 12-6.73 16-12.2 3.9-5.48 6.4-12.16 7.4-19.84 0.9-7.26 0.5-13.64-1.5-19.08-2-5.42-5.7-9.83-10.7-12.81v-0.02-0.01c-2.7-1.56-5.9-2.61-9.4-3.23-3.6-0.64-8.6-0.9-15.4-0.9h-29.5zm6.6 7.49h22.9c6.6 0 11.4 0.3 14.1 0.78 2.8 0.5 5.1 1.31 6.9 2.33 3.7 2.19 6 5.04 7.5 8.97 1.5 3.94 1.9 9.09 1.1 15.51-0.9 6.69-3 12.09-6.1 16.41-3.1 4.33-7.3 7.5-12.7 9.65v0.01c-1.9 0.78-4.4 1.41-7.6 1.78-3 0.37-8.3 0.58-15.5 0.58h-17.9l7.3-56.02z"/>
  </g>
  <path d="m1336.8-654.98 4-32.66c1-8.54 0-14.92-3.2-19.16-3.2-4.23-8.3-6.35-15.4-6.35-3.8 0-7.4 0.95-10.8 2.83-3.4 1.89-6.2 4.4-8.4 7.52-1.4-3.34-3.4-5.9-6.1-7.68s-6.1-2.67-10.4-2.67c-3.8 0-7.2 0.66-10.2 1.98-3.1 1.31-5.7 3.09-7.9 5.33-2.3 2.25-4.1 4.86-5.5 7.85s-2.3 6.12-2.7 9.39l-3.2 26.47c-0.3 2.42 0.1 4.21 1.1 5.39 1.1 1.17 2.7 1.76 4.7 1.76h3.1l4-32.41c0.7-5.85 2.3-10.09 4.8-12.73 2.4-2.64 5.8-3.96 10.1-3.96 4.1 0 7.1 1.48 8.9 4.44 1.9 2.96 2.5 7.04 1.8 12.25l-3.1 25.24c-0.3 2.28 0 4.05 0.9 5.3 0.8 1.24 2.4 1.87 4.7 1.87h3.4l4-32.73c0.7-5.78 2.2-9.95 4.7-12.52 2.4-2.56 5.9-3.85 10.6-3.85 3.9 0 6.8 1.29 8.6 3.85 1.8 2.57 2.4 6.85 1.6 12.84l-3 25.24c-0.3 2.28 0.1 4.05 1.1 5.3 1.1 1.24 2.5 1.87 4.4 1.87h3.4z"/>
  <path d="m1397.8-704.87c0.4-1.32 0.7-2.27 0.7-2.83 0.3-1.71 0-2.87-0.8-3.47-0.8-0.61-1.8-0.91-3.1-0.91h-3.8c-0.9 3.13-2.2 6.72-3.9 10.78-1.6 4.05-3.5 8.15-5.5 12.27-2.1 4.13-4.2 8.1-6.4 11.9-2.1 3.81-4.1 7.03-5.9 9.66-1.5-2.91-2.8-6.05-4-9.39-1.1-3.34-2.2-6.72-3.1-10.14-0.9-3.41-1.6-6.78-2.3-10.09-0.6-3.3-1.1-6.38-1.3-9.23-0.2-1.35-0.7-2.65-1.3-3.89-0.7-1.25-2-1.87-4-1.87h-5.6c0.3 4.7 0.9 9.48 1.9 14.36 1 4.87 2.2 9.65 3.6 14.35 1.4 4.69 2.9 9.2 4.6 13.5 1.7 4.31 3.5 8.16 5.3 11.58-2 3.13-3.8 5.6-5.2 7.42-1.5 1.81-2.8 3.16-4 4.05s-2.2 1.46-3.2 1.71-2.1 0.37-3.2 0.37h-4.6l-0.5 3.63c-0.1 1.21 0.4 2.33 1.7 3.36 1.2 1.04 2.9 1.55 5.1 1.55 2 0 3.9-0.41 5.8-1.23s3.8-2.15 5.8-4c1.9-1.85 4-4.32 6.3-7.42 2.2-3.09 4.7-6.95 7.6-11.58 1-1.56 2.4-3.8 4.2-6.72s3.8-6.22 5.9-9.92 4.3-7.67 6.4-11.9c2.2-4.24 4-8.49 5.6-12.76 0.3-0.78 0.7-1.83 1.2-3.14"/>
  <path d="m1446.4-663.84h-40.1c1.2-2.06 2.9-4.31 4.9-6.72 2-2.42 4.2-4.95 6.6-7.58l23.5-26.04c7.1-7.83 10.9-13.81 11.4-17.93 0.2-1.64-0.2-2.95-1.1-3.95s-1.9-1.49-2.9-1.49h-37.6c-3.3 0-5.6 0.6-6.9 1.81-1.2 1.21-2 2.88-2.2 5.01l-0.3 2.03h39.2c-0.5 1.43-1.4 3.17-2.9 5.23-1.4 2.07-3.1 4.24-5.2 6.51l-23.8 26.15c-2.5 2.71-4.5 5.05-6.2 7.05-1.7 1.99-3.1 3.78-4.2 5.38-1.1 1.61-1.9 3.05-2.5 4.33-0.5 1.28-0.9 2.52-1 3.73-0.2 1.49 0.2 2.76 1.2 3.79 0.9 1.03 2.4 1.55 4.3 1.55h38.5c1.9 0 3.4-0.5 4.7-1.5 1.3-0.99 2-2.24 2.2-3.73l0.4-3.63z"/>
  <path d="m1484.2-713.15c-3.8 0-7.4 0.73-10.9 2.19-3.4 1.46-6.5 3.54-9.2 6.24-2.7 2.71-5 5.95-6.8 9.72s-3 7.97-3.6 12.59c-0.5 4.13-0.3 7.93 0.6 11.42s2.4 6.49 4.4 9.02c2.1 2.52 4.7 4.5 7.8 5.92s6.6 2.14 10.5 2.14c6.5 0 11.4-1.02 14.8-3.05s5.3-4.53 5.7-7.52l0.5-4.27h-0.5c-1.8 1.57-4.2 2.94-7.1 4.11s-6.5 1.76-10.9 1.76c-5.3 0-9.4-1.51-12.2-4.54-2.8-3.02-4.2-6.91-4.1-11.68h14.1c4.9 0 9-0.27 12.2-0.8 3.2-0.54 5.7-1.37 7.7-2.51s3.4-2.61 4.3-4.43 1.5-3.96 1.8-6.46c0.3-2.84 0.1-5.47-0.9-7.9-0.9-2.41-2.2-4.51-4-6.29s-3.9-3.17-6.4-4.16c-2.4-1-5.1-1.5-7.8-1.5zm-2.2 8.75c2.2 0 4.1 0.32 5.7 0.97 1.6 0.63 2.9 1.49 3.9 2.55 0.9 1.07 1.6 2.3 2 3.69 0.3 1.38 0.4 2.86 0.2 4.43-0.1 1.06-0.4 1.96-0.9 2.66-0.5 0.72-1.3 1.29-2.5 1.71-1.2 0.43-2.9 0.75-5 0.96-2.2 0.22-5 0.36-8.4 0.43l-12.9 0.21 0.4-2.34c0.3-1.85 0.9-3.69 1.9-5.5s2.3-3.45 3.8-4.91c1.6-1.46 3.3-2.63 5.3-3.52s4.2-1.34 6.5-1.34z"/>
  <path d="m1552.7-654.98 4-32.87c1.1-8.61-0.2-14.98-3.7-19.11-3.6-4.12-8.9-6.19-16.1-6.19-3.6 0-7 0.57-10.1 1.71-3.2 1.14-5.9 2.79-8.3 4.96s-4.4 4.84-5.9 8.01c-1.6 3.16-2.6 6.74-3.1 10.72l-3.2 26.15c-0.2 2.28 0.1 3.95 1.1 5.02 0.9 1.07 2.3 1.6 4.1 1.6h3.6l4-32.63c0.7-5.84 2.4-10.05 5.1-12.62 2.7-2.56 6.1-3.85 10.4-3.85 5.1 0 8.7 1.25 10.6 3.75 2 2.49 2.6 6.74 1.9 12.72l-3.2 26.32c-0.6 4.2 1.2 6.31 5.3 6.31h3.5z"/>
  <path d="m1576.1-667.8c-1.3-1.42-3-2.12-5.1-2.12-2.2 0-4.1 0.7-5.7 2.12-1.7 1.41-2.7 3.21-2.9 5.4-0.3 2.19 0.2 3.97 1.5 5.35 1.4 1.38 3.1 2.07 5.2 2.07 2.2 0 4-0.69 5.7-2.07 1.6-1.38 2.5-3.16 2.8-5.35s-0.2-3.99-1.5-5.4"/>
  <path d="m1604.7-723.71h-1.2c-0.7 0-1.8 0.42-3.1 1.28-1.4 0.85-2.5 1.78-3.4 2.77-1.9 2.42-3.1 5.37-3.5 8.86l-4.6 37.14c-0.8 6.62 0 11.56 2.5 14.83 2.5 3.28 6.9 4.92 13.3 4.92 3.4 0 6-0.62 8-1.85 1.9-1.23 3-3.04 3.3-5.43l0.4-3.4h-0.5c-1.1 0.64-2.4 1.07-4.1 1.28-1.6 0.22-3.3 0.32-5.1 0.32-3.1 0-5.4-0.91-6.7-2.73-1.3-1.81-1.8-4.76-1.3-8.83l3.5-28.35h12.1c2.5 0 4.5-0.53 5.8-1.6 1.4-1.07 2.2-2.49 2.4-4.27l0.4-3.2h-19.7l1.5-11.74z"/>
  <path d="m1677.3-703.38c0.5-1.39 0.8-2.76 0.9-4.11 0.2-1.35 0-2.46-0.6-3.31-0.5-0.85-1.5-1.28-3-1.28h-3.4c-0.7 2.71-1.9 6.07-3.4 10.09-1.6 4.01-3.4 8.25-5.5 12.7-2 4.44-4.2 8.82-6.6 13.12-2.4 4.31-4.9 8.06-7.4 11.26-3.7-6.9-6.3-13.93-7.8-21.08s-2.5-13.99-2.9-20.54c-0.1-1.42-0.6-2.7-1.3-3.84s-2-1.71-3.9-1.71h-4.8c0.2 9.6 1.6 19.21 4 28.82 2.4 9.6 5.8 18.46 10.3 26.57 0.7 1.07 1.4 1.8 2.1 2.19s1.6 0.59 2.5 0.59h2.6c2.6-2.57 5.2-5.8 7.9-9.72 2.6-3.91 5.2-8.02 7.7-12.32 2.4-4.31 4.6-8.6 6.7-12.86 2-4.27 3.6-8.04 4.8-11.32 0.3-0.78 0.7-1.86 1.1-3.25"/>
 </g>
</svg>
