<svg xmlns="http://www.w3.org/2000/svg" viewBox="0 0 600 142.35" xmlns:xlink="http://www.w3.org/1999/xlink"><g transform="translate(-978.78-945.01)"><path fill="#ffd300" d="m1063.4 959.76h-70.39v113.26h70.39v-113.26m-84.65-14.28h98.97v141.82h-98.97v-141.82"/><g fill="#fff"><path d="m1321.3 1048.7c0 .06.012.127.012.195.012-.017.025-.025.034-.034-.025-.06-.034-.11-.042-.161"/><path d="m1325.8 1033.3c0 .06 0 .127.012.195.012-.017.017-.025.025-.033-.017-.05-.025-.11-.034-.161"/><path d="m1141.6 997.68h-6.243c-8.214-11.911-16.428-23.746-24.516-37.14h-.127v37.14h-6.92v-51.789h6.311c8.206 11.835 16.361 23.602 24.448 36.917h.127v-36.917h6.92v51.789"/><path d="m1171 977.19c-1.836-6.801-3.671-13.1-5.693-21.08h-.127c-1.776 7.986-3.798 14.28-5.82 21.08h11.64m-1.167-31.29l16.12 51.789h-9.686l-3.985-14.14h-15.202l-4.407 14.14h-7.478l17.469-51.789h7.165"/><path d="m1195 997.68v-44.835h-13.239v-6.954h35.12v6.954h-13.239v44.835h-8.637"/><path d="m1273.3 974.01v21.377c-4.602 1.853-9.441 3.181-14.339 3.181-14.838 0-24.21-11.835-24.21-27.07 0-14.14 9.314-26.487 24.456-26.487 4.712 0 9.432 1.777 12.249 3.993l-2.758 6.142c-2.326-1.48-5.938-2.741-9.255-2.741-9.187 0-15.498 7.47-15.498 19.237 0 12.283 7.233 19.533 14.643 19.533 2.326 0 4.23-.296 6.07-1.26v-15.904h8.646z"/><path d="m1305.4 952.85h-14.406v14.203h14.1v6.954h-14.1v16.724h17.05v6.954h-25.683v-51.789h23.04v6.954"/><path d="m1345.3 971.05c0-9.542-3.612-18.645-12.199-18.645-8.578 0-12.19 9.102-12.19 18.645 0 9.914 3.181 20.12 12.19 20.12 9.02 0 12.199-10.211 12.199-20.12m-33.584 0c0-14.5 9.07-26.04 21.386-26.04 12.317 0 21.394 11.539 21.394 26.04 0 15.464-8.223 27.519-21.394 27.519-13.18 0-21.386-12.05-21.386-27.519"/><path d="m1136.8 1067.4l-1.667-5.761c-1.15-.592-.533-1.861-1.15-2.741-.118-2.927-3.037-6.835-2.936-9.568v-.296c-1.675-3.122-1.049-6.734-2.614-9.864-2.927-6.252-6.691-28.14-8.679-30.386-.829-.381-1.666-.685-2.605-.685h-.423c-1.886.888-3.544 2.352-4.077 4.213.626.871-.101 2.233.736 3.122.516 2.639 4.391 17.68 5.643 19.14 0 1.37.313 2.546.524 3.917 1.244 1.455.837 3.604 1.979 5.067-.203 3.519 2.098 6.556 2.098 9.965 0 2.741-2.716 1.565-3.24 3.519 0 .491-.11.981-.11 1.464 0 .491.212.787.736.981.101 0 .211.195.211.288 0 .296-.524.491-.736.592l-.101.389c0 1.463 2.089 1.074 2.089 2.538 0 3.815 2.402 1.861 2.817 4.103 3.451 2.935 3.037 6.835 4.602 10.456.423.973 3.764 5.761 4.5 5.761 1.667 0 2.605-3.418 4.594-3.807.313-.787.524-1.667.524-2.546 0-2.732-2.098-5.566-2.098-7.808 0-.685.211-1.667-.618-2.056"/><path d="m1106.9 1055.5c-1.362-1.269-1.988-3.122-1.988-4.881 0-4.111 7.859-16.504 7.859-19.829 0-2.047-1.15-4.01-1.464-6.06-.939-1.658-.727-3.604-1.878-5.076-.313-.102-.415-.102-.736-.102-.313 0-.626.195-.838.491.11 1.861-1.878 2.834-2.191 4.585-1.041 4.501-11.2 29.11-11.2 32.24-1.675 2.242-1.057 5.279-2.622 7.614-.415 1.963-.516 4.204-1.768 5.964-.524 2.25-1.472 4.297-1.565 6.641-1.472 1.565-.533 3.917-.947 5.769.22 1.176 1.675.871 2.512 1.556 1.768-.101 3.13-1.556 4.078-2.834 1.557-.482 1.667-2.242 1.768-3.511 1.159-.787 1.886-8.299 6.378-10.363.838-1.261 2.301-1.76 3.765-1.76.423-.389 8.755-.051 8.755-.829 0-2.648-.347-5.592-.347-8.231 0-.584-6.734-1.489-7.571-1.387"/><path d="m1136.8 1067.4l-1.667-5.761c-1.15-.592-.533-1.861-1.15-2.741-.118-2.927-3.037-6.835-2.936-9.568v-.296c-1.675-3.122-1.049-6.734-2.614-9.864-2.927-6.252-6.691-28.14-8.679-30.386-.829-.381-1.666-.685-2.605-.685h-.423c-1.886.888-3.544 2.352-4.077 4.213.626.871-.101 2.233.736 3.122.516 2.639 4.391 17.68 5.643 19.14 0 1.37.313 2.546.524 3.917 1.244 1.455.837 3.604 1.979 5.067-.203 3.519 2.098 6.556 2.098 9.965 0 2.741-2.716 1.565-3.24 3.519 0 .491-.11.981-.11 1.464 0 .491.212.787.736.981.101 0 .211.195.211.288 0 .296-.524.491-.736.592l-.101.389c0 1.463 2.089 1.074 2.089 2.538 0 3.815 2.402 1.861 2.817 4.103 3.451 2.935 3.037 6.835 4.602 10.456.423.973 3.764 5.761 4.5 5.761 1.667 0 4.12-2.208 6.108-2.597.305-.787-.99-2.876-.99-3.756 0-2.732-2.098-5.566-2.098-7.808 0-.685.211-1.667-.618-2.056"/><path d="m1109.6 1053.2c-1.37-1.269-4.687-.431-4.687-2.191 0-4.103 7.859-16.504 7.859-19.829 0-2.047-1.15-4-1.464-6.06-.939-1.658-.727-3.612-1.878-5.076-.313-.102-.415-.102-.736-.102-.313 0-.626.194-.838.491.11 1.861-1.878 2.834-2.191 4.593-1.523 6.539-11.2 31.16-11.2 32.23-1.675 2.25-1.057 5.27-2.622 7.622-.415 1.954-.516 4.196-1.768 5.955-.524 2.25-1.472 4.297-1.565 6.649-1.472 1.556-.533 3.9-.947 5.761.22 1.176 1.675.88 2.513 1.565 1.768-.11 3.13-1.565 4.077-2.834 1.557-.491 1.667-2.25 1.768-3.519 1.159-.787 1.886-8.299 6.378-10.354.838-1.269 5-4.458 6.455-4.458.423-.381 8.764-.051 8.764-.829 0-2.639-.347-5.592-.347-8.231 0-.592-6.742-1.489-7.571-1.387"/><path d="m1162.8 1078.7c.634-.508.804-1.48 1.015-2.199.431-1.438 1.548-1.125 2.893-1.167 2.301-.076 4.594.279 6.895.118 3.451-.245 5.549-2.01 8.366-3.815 1.98-1.261 4.052-1.057 5.651-2.936.144-.161 2.707-2.758 2.182-3.282-.152-.144 2.01-5.702 2.259-7.123 1.277-7.351 1.887-13.688 1.277-21.21-.245-3.045-.626-5.592-2.191-8.214-.787-1.32-1.201-2.639-2.14-3.908-.017-.034-.871-1.548-.973-1.59-1.573-.719-1.337-1.058-2.216-2.216-.99-1.311-4.771-3.045-6.15-3.122-2.876-.144-5.702-.398-8.57-.364-1.624.034-3.037.034-4.653.245-2.724.364-1.328-3.654-1.117-5.507.152-1.345.186-3.231.567-4.534.482 0 1.286.228 1.599-.237.118-.186 1.557.313 1.819.338 2.682.245 5.465.651 8.172.499 1.455-.085 2.91.871 4.501 1.43 2.453.871 4.957 1.658 6.928 2.842 1.218.719 1.311 2.047 3.096 1.768.905 1.963 3.054 2.868 4.424 4.424 1.675 1.904 2.318 4.915 3.993 6.649.634.66.186 2.25.44 3.088.567 1.903 1.709 3.46 1.92 5.473.203 1.946.195 3.908.415 5.854.118.981-.127 3.824.558 4.509.203.203-.237 4.577-.237 5.372.012 1.438-.144 2.851-.322 4.28-.085.677-.643 2.936-.567 3.291.169.838-.93 3.688-1.328 5.304-.178.719-1.328 2.504-1.328 2.656.033.287.178.44.448.448-.584 1.616-2.538 3.376-2.885 5.11-.262 1.328-2.817 2.639-2.876 3.739-.06 1.184-2.572 1.573-3.096 2.216-.592.719-1.184 1.776-2.064 1.996-1.151.288-2.749.457-2.817 1.988-.998-1.083-4.847.355-4.856 1.768-1.108-.254-3.714.364-4.433 1.32-.922-.457-4.399-.457-5.279.237-.195.152-1.565.203-1.793.212-.897.042-3.976.068-4.576-.558-.423-.44-3.401-4.83-2.952-5.194" fill-rule="evenodd"/></g><path d="m1158.9 1041.7c0-3.976-.406-7.952-.406-11.826 0-.998.101-7.06.406-7.453-.592-3.079.592-6.361-.102-9.449.102-.296.296-.694.296-1.091 0-1.294-1.193-2.284-1.396-3.578l-.592-.288h-.203c-1.387-.203-1.489 1.184-2.276 1.184-.398 0-.804-.101-1.1-.296-1.887 1.988-3.629 4.771-3.629 7.453 0 8.341.398 16.699.398 25.05 0 3.181-.694 6.463-.304 9.542-.296.888.203 1.582.203 2.386 0 .287-.102.592-.203.888.601 6.861.203 20.18.101 27.13-.101 1.294 3.638 2.681 4.627 3.189 1.59-.508 1.988.093 3.375.195.499-.296.804-.795 1.091-1.294.11-1.387.11-2.783.11-4.171 0-10.134-.804-20.37-.804-30.513 0-2.284.406-4.771.406-7.06" fill="#fff" id="0"/><use xlink:href="#0"/><g fill="#fff"><path d="m1256.9 1006.7c-1.573.804-3.494 1.802-3.612 3.494-2.174 2.995-2.174 6.59-3.02 9.881-.846.601-1.083 1.497-1.083 2.403-2.529 2.8-1.447 6.683-3.502 9.678-.237 2.098-1.447 3.891-1.565 5.998-2.775 3.189-1.556 10.481-4.94 13.383-.727.093-1.76 1.65-2.369 1.65-1.311 0-2.335-1.861-3.181-2.648-2.047 0-2.656-4.695-3.849-5.693-.127-1.7-1.937-2.8-2.174-4.5-.609-3.088-2.166-5.989-3.139-8.984-1.683-1.996-1.32-4.593-2.166-6.895-1.083-1.091-.728-2.69-1.692-3.79.364-1.497-.592-2.792-.592-4.187v-.406c-.254-.203-.727-.601-.727-.897l.11-.398c-.601-.296-.719-.795-.719-1.294 0-.601.118-1.303-.482-1.7.118-1.903-2.411-4.695-4.822-4.695-2.648 0-4.458 2.792-4.458 4.788 0 3.595 3.494 11.488 4.585 15.481.474.305.719.804.719 1.193 0 .702-.118 1.404.482 1.895-.118 2.402 5.177 17.18 6.268 20.675-.245 1.01.846 1.7.846 2.69 0 .203-.127.507-.245.711 1.692 1.396.609 3.587 1.937 5.186 0 1.201 1.201 2.199 1.083 3.392 1.201.998.228 2.597 1.32 3.595.727 3.604 2.292 6.996 3.01 10.591 1.201.795 1.573 7.089 3.739 7.089.482 0 .964-.406.964-.897 0-.101 0-.203-.118-.304.118-.195.482-.601.727-.601.854 0 .118 1.802 1.565 1.802.964 0 1.929-.804 2.529-1.396-.118-2.199 2.411-3.604 2.411-5.693.846-1.303.601-2.902 1.573-4.094 0-.195.11-.499.11-.795 0-.609-.237-1.201.728-1.413 1.582-1.887 1.201-4.289 2.529-6.285.364-2.09 4.94-18.67 6.03-19.668-.118-1.895 1.447-3.392 1.328-5.194v-.296c1.692-2.394 1.573-5.693 2.893-8.29 1.328-2.495 6.03-17.17 6.03-19.964 0-4.89-3.858-3.299-5.067-4.593"/><path d="m1297.8 1074.3c-1.379.694-1.421-.195-2.8-.195-.787 0-2.859.389-3.747.592l-.795-.398c-.499 0-.99.499-1.48.499-.287 0 10.278-.101 10.09-.203-1.886.491-2.411-.491-4.187.102-1.277-.592-2.766-.203-4.145-.398-.694.296-1.387.398-2.081.398-1.675 0-3.257-.795-4.932-.795-.499 0-1.083.101-1.582.304-.787-.499-1.878-.702-2.267-1.683-1.776-.398-.897-2.369-1.878-3.359-.101-.99-.398-1.979-.398-2.961 0-.491.101-.981.398-1.48-.203-1.193.398-2.377-.101-3.46 0-.296.203-.694.203-.981 0-1.184-.694-2.369 0-3.553-.304-1.091.389-2.969.685-4.052.888-2.969 7.994-2.868 10.473-2.868 4.238 0 6.226.787 9.974-.398 1.489-.398 2.876-2.267 2.969-3.849-2.072-2.47-.195-2.961-4.644-5.135-1.777-.195-3.553-.195-5.33-.195-3.756 0-7.02.888-9.982 0-1.184-.296-4.145-2.766-4.839-3.756-1.184-1.776-.888-6.81-1.48-9.28-.101-.592-.195-1.184-.195-1.776 0-1.971.685-3.951 1.184-5.829 2.961-2.758 7.106-2.961 10.862-2.758.288-.101.787-.304.981-.304 6.02 0 .22.398 6.243-.195.888.592 1.776-.195 2.766-.195.296 0 .398 0 .592.101 1.083-.795 3.553-.499 3.553-2.276 0-1.683-.787-1.184-1.675-1.87 0-.212.093-.398.398-.398.296 0 .787.093 1.074-.203-.871-4.247-1.87-1.379-2.758-2.961-1.675 0-3.257-.491-4.94-.491-.491 0-.981 0-1.387.093-2.36-.694 4.04-.389 1.37-.389-5.236 0-10.473.389-15.701.389-6.328 0-7.309-.491-8.882 6.03.685 6.412.685 16.877.685 23.602 0 13.518-.947 28.399-.947 41.917 0 2.572 2.132 3.697 5.296 3.697.491 0 .88 0 1.286-.195 4.737 1.48 13.324 1.083 18.459 1.083 1.582 0 2.504.102 4.086-.195.592.195-9.695.195-9.09.195 2.166 0 4.441-.592 6.607-.592.99 0 .634.592 1.616 0 .888.694 1.988-.195 2.961.102.795-.491 2.673-.897 2.673-2.174v-.296c.888-.195 1.286-.99 1.286-1.979 0-1.083-.398-2.073-.702-3.155-1.573-1.48-3.748-1.776-5.82-1.878"/><path d="m1370.2 1067.9c0-6.776-.372-13.544-.372-20.32 0-2.69-.626-5.972-.127-8.57-.118-.195-.245-.491-.245-.787 0-.804.507-1.497.127-2.293 0-5.778-.634-11.649-.634-17.325 0-1.895.753-3.688.753-5.482 0-1.59-.753-2.986-2.386-3.883-.127-.398-.372-.897-.871-.897-1.886.804-3.147-.296-4.906.304-1.125.897-2.758 1.887-2.758 3.282 0 4.78-.254 10.854.626 15.54.262.288.262.491.262.888 0 5.879.118 11.945.118 17.824 0 .694-.254 1.294-.888 1.692l-1.133-.194c-1.878.406-3.384-.102-5.262-.102l-.88.102c-2.01-.406-2.14-2.191-3.646-2.893-1.134-1.489-2.639-2.885-4.02-4.281.127-1.793-5.02-8.561-6.658-9.957-1.379-3.282-5.152-5.676-6.159-9.05-.626-.508-5.27-6.582-5.27-6.776-1.768-1.201-2.14-4.881-4.78-4.881-1.125 0-.626 1.692-2.132 1.692-.254 0-.491-.304-.491-.398 0-.398.618-.601.618-.998 0-.296-1.133-1.692-1.633-1.692-1.895 0-3.401 3.384-3.401 4.577 0 .804.508 1.497.508 2.191 0 .11 0 .203-.127.305.626.998.127 2.191.761 3.181-.381 1.1-.499 2.293-.499 3.494v10.955c0 2.081.364 4.179.364 6.268 0 2.885-.364 5.871-.364 8.866 0 7.859.618 15.735.618 23.594 0 2.292-1.134 10.659 1.514 11.556 1.125.998 2.758 1.497 4.39 1.497 3.139 0 3.265-2.301 5.02-3.79.135-1.396.254-2.792.254-4.187 0-6.269-1.01-12.546-1.01-18.712 0-.711.626-1.193.626-1.895 0-.304-.245-.601-.626-.795.753-3.189-.127-6.379 2-9.263.508-2.293 3.646-1.59 5.406-2.69 2.259.499 3.147 2.589 4.653 3.883.753 2.301 3.891 3.688 4.264 6.074 3.646 2.69 5.152 7.081 8.04 10.06.508 2.986 10.431 15.642 12.816 18.13.499 1.497 2 2.182 3.519 2.783 1.624-.093 2.639-1.193 4.01-1.793.516-.592.761-1.294.761-1.988 0-1.793-.998-3.587 0-5.38-.372-2.487-.761-4.974-.761-7.461"/><path d="m1426.2 1011.9l.415-.499v-.508c0-1.903-2.639-2.199-3.866-3-3.756.101-10.27.499-14.03.499-.812 0-1.624-.101-2.343-.203-.897.305-1.717.305-2.631.305-1.92 0-3.959-.305-5.888.296-.702-.195-1.616-.499-2.326 0-3.045-.093-6.091.296-9.136-.093-.702.296-1.616.296-2.436.296-1.717 0-3.443-.296-5.27-.101-2.639 1.506-4.873 2.208-4.873 5.922 0 2.301 1.421 2.699 3.045 3.798h1.929c6.903.211 8.662-1.1 15.15 2.411 1.125 1.607.304 3.511.711 5.313-.406 1.303.101 2.808-1.015 3.917 0 4.5.812 9.02.812 13.628 0 1.1-.304 1.709.406 2.707-.406 2.504-.508 7.918 0 10.524-.609 2.411 0 5.02-.406 7.521.618 2 0 4.111 0 6.218 0 3.714.304 9.83 1.117 13.239.905.398 1.218 1.506 2.123 1.793 4.771-.195 7-.897 7-6.108 0-4.02.262-8.121.262-12.13 0-7.123-.296-14.33-.296-21.453l.102-7.216c.719-.905-.304-1.81-.304-2.716l.101-.398.101-5.515c-.304-.296-.609-.804-.609-1.201 0-1.1.711-2.208-.203-3.206 1.633-4.111-.474-7.715 5.516-7.715 1.726 0 7.605.296 9.322.296.719 0 1.328 0 1.929-.101 1.523.499 2.436-1.1 3.858-1.01h.304c1.015-.998 2.639-1.903 2.639-3.502 0-.203 0-.499-.093-.804.093-.702-.914-.601-1.125-1.201"/><path d="m1479.3 1024c0-.203.118-.398.474-.499-.355-2.47-.592-4.94-.592-7.419 0-2.072 1.167-7.41-2.893-7.41-1.159 0-2.199.592-3.358.694-3.832 1.878-2.902 9.889-2.902 13.248 0 5.143-.228 10.287-.228 15.43 0 4.839.347 9.585-.228 14.339.228.795-.237 1.379-.237 2.174 0 .296.118.491.347.787-.347 2.572.584 7.817-.465 9.889.584 5.642-5.101 8.806-7.884 13.358 0 .888-1.15 1.091-1.616 1.675-.118.102-.355.203-.465.203-.93 0-.93-1.091-1.853-1.091 0-.99 1.269-1.286 2.081-1.675l-.347-.694c-1.514.296-2.09.093-3.595-.102-1.506.888-2.902-.101-4.399.491-3.02-.685-5.228-2.859-8.121-4.052-1.387-1.286-1.743-2.969-2.09-4.644-1.159-1.193-1.041-2.876-1.734-4.255-.118-2.174-.584-4.45-.584-6.725 0-1.083.118-2.276.465-3.359l1.15-.296c-.228-.694-.457-1.387-.338-2.183v-.491c-.465-.694-.694-1.387-.694-2.174 0-1.286.457-2.572.457-3.959 0-.981-.575-1.878-.575-2.868 0-.99.347-2.081.347-3.063 0-.398 0-.888-.347-1.286.347-.694.118-10.287-.118-10.879 1.041-1.387-.347-3.071.465-4.644-.465-2.183.465-4.255.465-6.438 0-.787-.237-1.675-.575-2.369.228-.296.575-.795.575-1.184 0-.99-1.049-1.785-1.506-2.665-1.159.093-2.09-.99-3.248-.99-4.754 0-4.517 6.319-4.517 8.891l-.127 11.573c0 .195 0 .491-.22.685 1.032 5.245-.702 10.591.575 15.828-.355 1.184-.575 2.47-.575 3.663 0 3.858-.127 7.614-.127 11.37 0 5.04.931 10.287 3.02 15.03 2.436 1.785 3.367 4.839 6.488 6.03 1.159 1.98 4.526 1.582 5.338 3.663 1.734.101 3.359.685 5.101.981 1.387 1.193 3.595.601 5.33.795 3.01-.888 6.844-.398 9.05-2.673 4.983-1.48 14.03-10.278 14.03-14.829l-.118-.398c2.208-3.358 1.624-10.185 1.624-14.14 0-2.166 0-4.348-.355-6.624.127-.491.355-1.091.355-1.582 0-.398-.11-.787-.355-1.083.355-.601.465-.99.245-1.582.11-.694.22-1.294.22-1.98 0-6.03-.812-12.368-.812-18.492"/><path d="m1502.4 1063.6c.457-2.597-.085-4.991-.085-7.487 0-2.504 0-5.296.178-7.698 0-1.193-.457-2.394-.457-3.494 0-1.996.457-3.993.093-5.998.186-1.1.271-2.293.271-3.494 0-2.495-.271-4.991-.271-7.495 0-2.09.448-4.28.448-6.285 0-.804-.541-1.7-.541-2.597 0-.305 0-.601.186-.905-.457-2.09.178-4.188.178-6.294 0-.592 0-1.193-.178-1.793l-2.555-.203c-.541-.499-.541-1.599-1.269-1.692-2.183 1.599-4.188-2.698-5.82 4.788-.093.601-.728 1.01-.728 1.599 0 1.108.728 2.504.728 3.9 0 1.996-.457 8.984.085 10.388-.541 2.394-.355 5.693-.355 8.197 0 .491.271 1.091 0 1.497-.093 1.895-.279 3.79-.279 5.693 0 .998.093 1.996.186 2.995l-.279.702c0 .491.186.897.186 1.294 0 .195-.093.398-.186.601.457 7.588-.085 15.185-.178 22.773.178.195.364.795.364 1.1 0 .296-.093.499-.271.694-.093.804-.186 1.599-.186 2.301 0 1.996.457 4.094.457 6.091 0 2.504 2.732 4.399 5.01 4.297h.355c.821-.398 1.641-.702 2.462-.795.448-1.108 1.903-1.497 1.903-2.902 0-3.798.55-7.69.55-11.488 0-2.597-.178-5.194.279-7.791l-.279-.499"/><path d="m1525.6 1060.9c-.981-1.692-1.244-5.236-1.895-7.436-.245-.304-.415-.702-.415-1.201 0-.897.415-1.599.415-2.496v-.203l2.182-2.394c0-1.895 2.699-2.402 3.612-3.206 2.377-2.09 2.487-9.128 2.902-12.326-.499-1.599.076-3.299.076-4.898 0-.694-.076-1.303-.33-1.895-.905-.897-.905-2.301-.905-3.595-1.726-3.9-3.866-7.893-7.081-10.09-.567-.998-4.03-2.495-5.01-2.495-.744 0-2.859.203-3.595-.102-1.396.601-7.944-.897-7.944 2.098 0 .406.085.804.085 1.193-.169.211-.254.406-.254.702 0 .711.584 1.201.499 1.903l.085.601c0 .897-.33 1.793-.33 2.69 0 .499 3.333.998 3.748 1.303 6.581-.998 11.649 3.46 11.742 12.351-.744.998-.524 2.8-.609 4.01-.99 1.396-1.827 6.751-1.827 6.751s-1.337 3.206-2.648 3.206c-.245 0-4.407.296-4.568.203-.338.195-.744.389-1.074.389-.981 0-1.709.161-2.876.11-4.306-.195-3.595 1.591-3.595 2.487 0 1.607.33 3.105.33 4.602 0 .491-.076.897-.152 1.396.575 2.293 5.71 1.201 6.954 2.504 2.8 2.995 2.572 2.01 4.221 5.397 2.14 4.399 9.441 24.406 12.156 24.406 4.898 0 6.099-.33 6.099-4.61 0-1.599-5.177-9.331-5.744-11.124-1.167-3.705-2.199-7.131-4.255-10.228"/><path d="m1578.2 1077.2c-1.396-1.48-1.963-1.785-3.79-1.878-1.218.685.262-.203-.964-.203-.694 0 .178.398-.601.601l1.996-.398c-.431 0-.871.499-1.311.499-.262 0-.431-.102-.609-.203-1.65.491-3.308-.499-4.873.101-1.133-.601-2.428-.203-3.655-.398-.601.296-1.218.398-1.827.398-1.48 0-2.868-.795-4.348-.795-.431 0-.956.101-1.387.296-.702-.491-1.658-.694-2.01-1.675-1.557-.398-.778-2.369-1.65-3.358-.085-.99-.347-1.971-.347-2.952 0-.499.093-.99.347-1.489-.169-1.184.355-2.369-.085-3.451 0-.296.178-.694.178-.99 0-1.184-.609-2.369 0-3.553-.262-1.091.347-2.961.609-4.04.778-2.969 7.05-2.868 9.229-2.868 3.739 0 7.216.787 10.524-.398 1.311-.398 2.521-2.267 2.614-3.849-1.827-2.462-.169-2.961-4.094-5.127-1.565-.203-3.13-.203-4.695-.203-3.308 0-7.927.888-10.532 0-1.041-.296-3.654-2.758-4.264-3.748-1.049-1.776-.787-6.81-1.303-9.28-.093-.592-.178-1.184-.178-1.776 0-1.979.609-3.951 1.04-5.82 2.606-2.766 6.268-2.969 9.576-2.766.254-.102.694-.305.871-.305 5.304 0 2.792.406 8.096-.195.778.601 1.573-.195 2.445-.195.262 0 .347 0 .516.102.956-.795 3.138-.499 3.138-2.276 0-1.675-.702-1.184-1.48-1.87 0-.203.085-.398.347-.398.271 0 .694.102.964-.195-.795-4.247-1.658-1.387-2.445-2.969-1.472 0-2.876-.491-4.348-.491-.44 0 4.517 0 4.162.101-2.09-.694-4.441-.398-6.784-.398-4.611 0-9.221.398-13.84.398-5.566 0-9.128-.499-10.524 6.02.609 6.412.609 16.877.609 23.594 0 13.518.347 27.05.347 40.572 0 2.563 3.392 5.03 6.184 5.03.431 0 .778 0 1.125-.203 4.179 1.48 11.742 1.091 16.268 1.091 1.387 0 3.401.085 4.788-.203.524.203.956.203 1.48.203 1.912 0-1.472-.592.431-.592.871 0-.947.592-.077 0 .778.677.389-.203 1.261.093.694-.491 2.352-.888 2.352-2.174v-.296c.787-.195 1.133-.981 1.133-1.971 0-1.083-.347-2.073-.609-3.155"/></g></g></svg>