<svg xmlns="http://www.w3.org/2000/svg" viewBox="0 0 359 115"><g transform="translate(-175.07-916.35)"><path d="m0 0h-2.129v5.967h-.02c-.544-2.228-1.109-4.104-1.674-5.967h-1.342c-.575 1.863-1.15 3.739-1.705 5.967h-.02v-5.967h-1.674v8.524h2.885c.484-1.631.968-3.251 1.442-5.248h.02c.454 1.997.928 3.617 1.393 5.248h2.824v-8.524" transform="matrix(8.44128 0 0-8.44128 346.39 1030.11)"/><path d="m0 0v-4.456c0-1.535.192-2.436 1.089-2.436.707 0 1.11.853 1.11 2.472v4.42h1.836v-5.151c0-2.544-1.433-3.518-3.046-3.518-1.807 0-3.118.913-3.118 3.457v5.212h2.129" transform="matrix(8.44128 0 0-8.44128 372.19 958.16)"/><path d="m0 0c-.282.207-.645.317-1.039.317-.413 0-.625-.243-.625-.524 0-.475.595-.865 1.281-1.632.908-1.023 1.13-1.668 1.13-2.557 0-.755-.514-2.508-2.633-2.508-.827 0-1.655.231-2.22.779l.646 1.413c.303-.28.706-.598 1.211-.598.423 0 .888.257.888.89 0 .682-.687 1.181-1.241 1.766-.737.779-1.171 1.23-1.171 2.276 0 1.364 1.141 2.29 2.472 2.29.898 0 1.604-.389 1.846-.572l-.545-1.34" transform="matrix(8.44128 0 0-8.44128 446.61 973.06)"/><path d="m459.13 958.16h17.971v71.954h-17.971v-71.954"/><path d="m0 0c-.393-.183-1.059-.378-1.704-.378-2.351 0-4.277 1.705-4.277 4.494 0 2.581 1.755 4.322 4.155 4.322.464 0 1.302-.158 1.806-.426l-.525-1.51c-.343.122-.968.159-1.17.159-1.018 0-2.048-.792-2.048-2.643 0-1.814 1.039-2.618 2.149-2.618.454 0 .877.097 1.201.195l.413-1.595" transform="matrix(8.44128 0 0-8.44128 534.07 1028.15)"/><path d="m0 0h-.494c-.648.94-1.297 1.875-1.935 2.932h-.011v-2.932h-.546v4.089h.498c.649-.935 1.293-1.864 1.932-2.915h.009v2.915h.547v-4.089" transform="matrix(8.44128 0 0-8.44128 299.72 950.87)"/><path d="m0 0c-.145.538-.29 1.034-.45 1.665h-.001c-.14-.631-.3-1.127-.459-1.665h.919m-.091 2.471l1.272-4.089h-.764l-.315 1.116h-1.2l-.349-1.116h-.59l1.379 4.089h.567" transform="matrix(8.44128 0 0-8.44128 319.32 937.21)"/><path d="m0 0v3.539h-1.045v.55h2.773v-.55h-1.046v-3.539h-.682" transform="matrix(8.44128 0 0-8.44128 335.3 950.87)"/><path d="m0 0v-1.616c-.348-.14-.713-.24-1.084-.24-1.121 0-1.829.895-1.829 2.046 0 1.069.703 2 1.847 2 .357 0 .714-.135.927-.302l-.209-.464c-.176.112-.449.207-.699.207-.695 0-1.173-.565-1.173-1.454 0-.928.548-1.476 1.108-1.476.177 0 .319.023.459.095v1.202h.653" transform="matrix(8.44128 0 0-8.44128 386.33 935.76)"/><path d="m0 0h-1.089v-1.074h1.065v-.526h-1.065v-1.263h1.288v-.525h-1.94v3.913h1.741v-.525" transform="matrix(8.44128 0 0-8.44128 406.82 922.26)"/><path d="m0 0c0 .721-.273 1.41-.922 1.41-.648 0-.921-.689-.921-1.41 0-.748.241-1.521.921-1.521.682 0 .922.773.922 1.521m-2.538 0c0 1.097.686 1.969 1.616 1.969.931 0 1.617-.872 1.617-1.969 0-1.168-.62-2.079-1.617-2.079-.995 0-1.616.911-1.616 2.079" transform="matrix(8.44128 0 0-8.44128 432.26 933.88)"/><path d="m242.71 928.46h-56.25v90.49h56.25v-90.49m-67.65-11.413h79.09v113.33h-79.09v-113.33" fill="#fad31a"/></g></svg>