<svg xmlns="http://www.w3.org/2000/svg" viewBox="0 0 600 216.3"><g transform="translate(43.986 15.857)"><g fill="#fff"><path d="m173.31 62.992c5.05 30.2 10.139 60.18 15.06 96.12h.34c8.159-35.18 16.421-64.798 24.669-94.15h27.89c8.573 29.354 17.352 58.974 25.762 94.15h.296c4.671-35.931 9.282-65.92 14.06-96.12l29.443 3.843-26.575 132.61h-37.424c-7.316-24.964-14.825-49.943-21.978-80.7h-.31c-6.533 30.758-13.229 55.737-19.909 80.7h-37.578l-27.892-132.62 34.14-3.843z"/><path d="m317.68 64.949h33.596v134.5h-33.596v-134.5"/><path d="m366.37 64.949h33.654v109.35h40.764v25.16h-74.42v-134.5z"/><path d="m484.54 174.29h8.573c19.274 0 28.319-18.653 28.319-45.76 0-24.373-12.534-38.428-27.18-38.428h-9.711v84.19m9.711-109.35c44.578 0 61.767 30.921 61.767 63.41 0 49.2-29.649 71.09-63.05 71.09h-50.599v-134.49h43.31z"/><path d="m197.7 49.622h-7.863c-10.36-15.05-20.78-30.03-31-46.943h-.192v46.943h-8.72v-65.48h7.967c10.391 14.987 20.722 29.857 30.905 46.706h.177v-46.706h8.72v65.48z"/><path d="m234.89 23.724c-2.291-8.602-4.597-16.554-7.183-26.649h-.118c-2.247 10.1-4.863 18.05-7.39 26.649h14.692m-1.464-39.581l20.412 65.48h-12.252l-5.05-17.84h-19.214l-5.572 17.84h-9.459l22.08-65.48h9.06z"/><path d="m265.27 49.622v-56.712h-16.746v-8.765h44.37v8.765h-16.717v56.712h-10.908"/><path d="m362.03 20.971v25.91c-5.587 2.217-11.41 3.813-17.397 3.813-17.958 0-29.26-14.308-29.26-32.753 0-17.1 11.292-32.03 29.591-32.03 5.676 0 11.44 2.128 14.795 4.818l-3.311 7.405c-2.793-1.774-7.183-3.296-11.174-3.296-11.159 0-18.801 9.05-18.801 23.293 0 14.854 8.78 23.619 17.781 23.619 2.793 0 5.099-.34 7.316-1.508v-19.274h10.465z"/><path d="m400.88-4.598h-17.411v17.18h17.03v8.395h-17.03v20.249h20.619v8.41h-31.1v-62.684h27.89v8.454"/><path d="m449.18 17.397c0-11.558-4.375-22.555-14.78-22.555-10.361 0-14.721 10.997-14.721 22.555 0 12 3.828 24.358 14.721 24.358 10.923 0 14.78-12.357 14.78-24.358m-40.661 0c0-17.544 10.952-31.497 25.881-31.497 14.898 0 25.881 13.953 25.881 31.497 0 18.711-9.932 33.3-25.881 33.3-15.948 0-25.881-14.588-25.881-33.3"/></g><path d="m84.3 7.132h-106.73v171.66h106.73v-171.66m-128.29-21.623h149.99v214.93h-149.99v-214.93" fill="#fdda2a"/></g></svg>