<svg xmlns="http://www.w3.org/2000/svg" viewBox="0 0 600 183.95"><g fill="#fff"><path d="m184.8 67.06c4.299 25.681 8.623 51.19 12.809 81.74h.289c6.939-29.917 13.965-55.11 20.98-80.07h23.719c7.291 24.964 14.757 50.15 21.91 80.07h.251c3.972-30.558 7.894-56.06 11.954-81.74l25.04 3.268-22.601 112.78h-31.827c-6.222-21.23-12.608-42.474-18.692-68.63h-.264c-5.556 26.16-11.25 47.4-16.932 68.63h-31.946l-23.722-112.78 29.04-3.268z"/><path d="m307.58 68.72h28.572v114.39h-28.572v-114.39"/><path d="m348.99 68.72h28.621v92.99h34.668v21.394h-63.29v-114.39z"/><path d="m449.48 161.71h7.291c16.392 0 24.08-15.863 24.08-38.917 0-20.728-10.659-32.681-23.12-32.681h-8.259v71.6m8.258-92.99c37.911 0 52.53 26.296 52.53 53.925 0 41.846-25.21 60.46-53.623 60.46h-50.32v-114.38h36.83z"/><path d="m205.54 55.686h-6.687c-8.8-12.796-17.66-25.542-26.35-39.922h-.163v39.923h-7.416v-55.686h6.775c8.82 12.746 17.61 25.392 26.27 39.721h.151v-39.721h7.416v55.685z"/><path d="m237.17 33.662c-1.948-7.316-3.909-14.08-6.109-22.664h-.101c-1.911 8.585-4.136 15.348-6.285 22.664h12.495m-1.24-33.662l17.36 55.685h-10.42l-4.299-15.172h-16.341l-4.739 15.172h-8.04l18.78-55.685h7.705z"/><path d="m263 55.686v-48.23h-14.242v-7.454h37.735v7.454h-14.217v48.23h-9.277"/><path d="m345.3 31.32v22.04c-4.751 1.886-9.704 3.243-14.795 3.243-15.272 0-24.888-12.168-24.888-27.855 0-14.544 9.603-27.24 25.17-27.24 4.827 0 9.729 1.81 12.583 4.098l-2.816 6.298c-2.376-1.508-6.109-2.803-9.503-2.803-9.49 0-15.989 7.693-15.989 19.81 0 12.632 7.467 20.09 15.12 20.09 2.376 0 4.337-.289 6.222-1.282v-16.391h8.9z"/><path d="m378.34 9.575h-14.807v14.607h14.48v7.14h-14.48v17.221h17.536v7.152h-26.447v-53.31h23.719v7.19"/><path d="m419.42 28.28c0-9.83-3.721-19.18-12.57-19.18-8.812 0-12.52 9.352-12.52 19.18 0 10.207 3.256 20.716 12.52 20.716 9.289 0 12.57-10.509 12.57-20.716m-34.58 0c0-14.921 9.314-26.787 22.01-26.787 12.67 0 22.01 11.866 22.01 26.787 0 15.913-8.447 28.32-22.01 28.32s-22.01-12.406-22.01-28.32"/></g><path fill="#fdda2a" d="m109.1 19.551h-90.77v145.99h90.77v-145.99m-109.1-18.391h127.56v182.79h-127.56v-182.79"/><path fill="#fff" d="m519.44 131.97c-2.15 25.73-13.55 41.95-28.03 51.15h108.59v-51.15h-78.5-2.06m48.12 7.94h6.32v36.21h-6.32v-29.09l-7.12 6.44v-7.13l7.12-6.43m-28.28 10.9h5.94v8.13h7.81v6.18h-7.81v8.16h-5.94v-8.16h-7.84v-6.18h7.84v-8.13"/></svg>