<svg xmlns="http://www.w3.org/2000/svg" viewBox="0 0 600 184.58"><path d="m571.67 148.7h-1.816v18.819h2.447c4.503 0 7.19-2.888 7.19-10.1 0-5.953-2.535-8.716-7.82-8.716"/><path d="m185.44 67.29c4.314 25.769 8.653 51.36 12.853 82.02h.29c6.963-30.02 14.01-55.3 21.05-80.35h23.801c7.316 25.05 14.808 50.33 21.985 80.35h.252c3.986-30.663 7.921-56.25 11.995-82.02l25.13 3.279-22.679 113.17h-31.937c-6.244-21.304-12.651-42.62-18.756-68.868h-.265c-5.575 26.25-11.289 47.565-16.99 68.868h-32.06l-23.804-113.17 29.14-3.279z"/><path d="m308.64 68.958h28.67v114.78h-28.67v-114.78"/><path d="m350.19 68.958h28.72v93.31h34.787v21.468h-63.51v-114.78z"/><path d="m451.03 162.27h7.316c16.448 0 24.17-15.918 24.17-39.05 0-20.799-10.696-32.794-23.2-32.794h-8.287v71.845m8.287-93.31c38.04 0 52.711 26.387 52.711 54.11 0 41.99-25.302 60.67-53.808 60.67h-43.18v-114.78h36.957z"/><path d="m206.25 55.878h-6.71c-8.84-12.84-17.73-25.63-26.45-40.06h-.164v40.06h-7.442v-55.877h6.799c8.86 12.79 17.68 25.479 26.37 39.858h.151v-39.858h7.442v55.877z"/><path d="m237.99 33.778c-1.955-7.341-3.923-14.13-6.13-22.742h-.101c-1.917 8.615-4.15 15.401-6.307 22.742h12.538m-1.25-33.778l17.42 55.877h-10.456l-4.314-15.224h-16.397l-4.755 15.224h-8.07l18.85-55.877h7.732z"/><path d="m263.91 55.878v-48.4h-14.291v-7.48h37.865v7.48h-14.266v48.4h-9.309"/><path d="m346.49 31.428v22.11c-4.768 1.892-9.737 3.254-14.846 3.254-15.325 0-24.974-12.21-24.974-27.951 0-14.594 9.637-27.333 25.25-27.333 4.844 0 9.763 1.816 12.626 4.112l-2.825 6.319c-2.384-1.514-6.13-2.813-9.536-2.813-9.523 0-16.04 7.719-16.04 19.878 0 12.676 7.492 20.16 15.174 20.16 2.384 0 4.352-.29 6.244-1.287v-16.447h8.93"/><path d="m379.64 9.608h-14.858v14.657h14.53v7.164h-14.53v17.28h17.596v7.177h-26.538v-53.49h23.801v7.215"/><path d="m420.86 28.378c0-9.864-3.733-19.248-12.613-19.248-8.842 0-12.563 9.384-12.563 19.248 0 10.242 3.267 20.787 12.563 20.787 9.321 0 12.613-10.545 12.613-20.787m-34.699 0c0-14.972 9.346-26.879 22.09-26.879 12.714 0 22.09 11.907 22.09 26.879 0 15.968-8.476 28.418-22.09 28.418s-22.09-12.449-22.09-28.418"/><path d="m109.48 19.618h-91.08v146.49h91.08v-146.49m-109.48-18.455h128v183.42h-128v-183.42" fill="#fdda2a"/><path d="m572.77 173.5h-9.838v-30.789h7.77c11.705 0 15.842 6.647 15.842 15.401 0 8.665-4.566 15.388-13.774 15.388m-16.738 0h-6.925v-13.13h-8.943v13.13h-6.912v-30.789h6.912v11.667h8.943v-11.667h6.925v30.789zm-34.813-41.07c-2.157 25.819-13.597 42.1-28.13 51.34h108.98v-51.34h-78.78z"/></svg>