<?xml version="1.0" encoding="UTF-8" standalone="no"?>
<!-- Created with Inkscape (http://www.inkscape.org/) -->
<svg xmlns:rdf="http://www.w3.org/1999/02/22-rdf-syntax-ns#" xmlns="http://www.w3.org/2000/svg" height="211.49" width="600" version="1.1" xmlns:cc="http://creativecommons.org/ns#" xmlns:dc="http://purl.org/dc/elements/1.1/">
 <metadata>
  <rdf:RDF>
   <cc:Work rdf:about="">
    <dc:format>image/svg+xml</dc:format>
    <dc:type rdf:resource="http://purl.org/dc/dcmitype/StillImage"/>
    <dc:title/>
   </cc:Work>
  </rdf:RDF>
 </metadata>
 <g transform="matrix(1.0000101,0,0,1.0000101,-2.5000252e-4,0.00260003)">
  <path fill-rule="nonzero" fill="#ffd62b" d="m0.00025,210.46,146.43,0,0-209.82-146.43,0,0,209.82zm21.099-188.7,104.16,0,0,167.57-104.16,0,0-167.57z"/>
  <path fill-rule="evenodd" fill="#000" d="m558.91,168.59,2.4412,0c7.1515,0,10.582,3.7317,10.582,11.776,0,9.754-3.6456,13.636-9.7002,13.636h-3.32v-25.42zm-67.17-16.69,104.76,0,0,58.814-104.76,0,0-58.814zm27.057,24.369,0-15.776-9.3453,0,0,41.618,9.3453,0,0-17.755,12.077,0,0,17.755,9.3453,0,0-41.618-9.3453,0,0,15.776-12.077,0zm41.253-15.776-10.474,0,0,41.618,13.281,0c12.442,0,18.626-9.0872,18.626-20.82,0-11.829-5.6029-20.798-21.433-20.798"/>
  <path fill-rule="nonzero" fill="#000" d="m347.86,193.79c-9.3023-14.97-18.712-28.176-28.186-41.489h-7.2375v58.19h7.9795l0.0968-41.726c9.3883,15.045,18.777,28.337,28.262,41.726h7.2267v-58.19h-7.9688l-0.17207,41.489z"/>
  <path fill-rule="nonzero" fill="#000" d="m400.82,193.79c-9.313-14.97-18.701-28.176-28.186-41.489h-7.2267v58.19h7.9688l0.0968-41.726c9.3883,15.045,18.787,28.337,28.262,41.726h7.2267v-58.19h-7.9795l-0.16131,41.489z"/>
  <path fill-rule="nonzero" fill="#000" d="m461.83,152.31-9.8938,0,0,58.18,29.595,0,0-7.7967-19.701,0,0-50.383z"/>
  <path fill-rule="nonzero" fill="#000" d="m426.75,183.9,16.292,0,0-7.8182-16.292,0,0-15.959,16.626,0,0-7.8075-26.606,0,0,58.18,29.595,0,0-7.8075-19.615,0,0-18.787z"/>
  <path fill-rule="nonzero" fill="#000" d="m201.3,159.62c3.8177,0,7.8182,1.7422,10.216,3.237l3.1617-7.0654c-3.409-2.3229-8.2269-4.4844-13.378-4.4844-17.368,0-28.1,13.884-28.1,29.767,0,17.11,10.808,30.413,27.939,30.413,4.8071,0,10.13-1.9142,13.131-3.9898l-2.753-7.2267c-2.5702,1.6669-6.1513,2.9144-9.969,2.9144-9.6464,0-17.787-8.1516-17.787-21.949,0-13.217,7.3988-21.616,17.54-21.616"/>
  <path fill-rule="nonzero" fill="#000" d="m248.35,174.67-20.702,0,0-22.358-9.8938,0,0,58.18,9.8938,0,0-28.004,20.702,0,0,28.004,9.9798,0,0-58.007-9.9798,0,0,22.186z"/>
  <path fill-rule="nonzero" fill="#000" d="m352.67,8.3314c9.9153,0,14.088,10.259,14.088,21.003,0,11.163-3.6564,22.67-14.088,22.67-10.41,0-14.077-11.507-14.077-22.67,0-10.743,4.1618-21.003,14.077-21.003m0,52.007c15.26,0,24.777-13.582,24.777-31.004,0-16.346-10.517-29.337-24.777-29.337-14.249,0-24.756,12.991-24.756,29.337,0,17.422,9.5066,31.004,24.756,31.004"/>
  <path fill-rule="nonzero" fill="#000" d="m253.75,84.311,0-7.829-26.681,0,0,58.341,29.67,0,0-7.8397-19.669,0,0-18.83,16.346,0,0-7.8397-16.346,0,0-16.002,16.68,0z"/>
  <path fill-rule="nonzero" fill="#000" d="m283.33,59.341,10.001,0,0-50.512,15.335,0,0-7.829-40.672,0,0,7.829,15.335,0,0,50.512z"/>
  <path fill-rule="nonzero" fill="#000" d="m522.31,98.901-20.766,0,0-22.422-9.9045,0,0,58.341,9.9045,0,0-28.079,20.766,0,0,28.079,10.001,0,0-58.169-10.001,0,0,22.25z"/>
  <path fill-rule="nonzero" fill="#000" d="m188.55,17.511c9.4313,15.077,18.841,28.423,28.337,41.833h7.259v-58.341h-8.001l-0.16131,41.586c-9.3453-14.991-18.766-28.251-28.262-41.586h-7.2482v58.341h8.0118l0.0645-41.833z"/>
  <path fill-rule="nonzero" fill="#000" d="m250.07,12.491c2.3444,9.0119,4.4199,16.099,6.5815,23.756h-13.507c2.3336-7.6569,4.6673-14.744,6.9256-23.756m-9.4958,30.929,17.583,0,4.592,15.916,11.152,0-18.583-58.341-8.3344,0-20.175,58.341,8.6678,0,5.0974-15.916z"/>
  <path fill-rule="nonzero" fill="#000" d="m418.37,111.73c2.3229-7.6677,4.6673-14.755,6.9149-23.745,2.3336,8.9904,4.4199,16.077,6.5815,23.745h-13.496zm3.8392-35.252-20.175,58.341,8.6678,0,5.0759-15.916,17.594,0,4.5812,15.916,11.173,0-18.594-58.341-8.3236,0z"/>
  <path fill-rule="nonzero" fill="#000" d="m391.6,17.511c9.4206,15.077,18.841,28.423,28.337,41.833h7.259v-58.341h-7.9903l-0.17206,41.586c-9.3345-14.991-18.766-28.251-28.272-41.586h-7.2482v58.341h8.0118l0.0753-41.833z"/>
  <path fill-rule="nonzero" fill="#000" d="m509.54,51.511-19.755,0,0-50.512-9.9153,0,0,58.341,29.67,0,0-7.829z"/>
  <path fill-rule="nonzero" fill="#000" d="m586.82,127.49c-9.6679,0-17.841-8.1731-17.841-22.014,0-13.249,7.4203-21.659,17.594-21.659,3.8177,0,7.829,1.7422,10.238,3.2477l3.1832-7.0977c-3.4306-2.3229-8.2484-4.4952-13.421-4.4952-17.432,0-28.186,13.927-28.186,29.832,0,17.174,10.851,30.509,28.025,30.509,4.8286,0,10.152-1.9035,13.163-3.9898l-2.7638-7.259c-2.5702,1.6669-6.1621,2.9251-9.9905,2.9251"/>
  <path fill-rule="nonzero" fill="#000" d="m376.52,84.311,4.4307,0c5.9147,0,9.2378,3.4198,9.2378,9.4206,0,7.829-4.7533,11.335-9.4958,11.571-1.0001,0.086-3.3338,0.18282-4.1726,0.26885v-21.261zm-9.9905,50.512,9.9905,0,0-22.003,4.506,0,9.4098,22.003,11.421,0-11.743-24.175c6.4202-3.409,10.087-10.335,10.087-17.325,0-11.346-6.9256-16.841-18.099-16.841h-15.572v58.341z"/>
  <path fill-rule="nonzero" fill="#000" d="m541.89,134.82,9.9153,0,0-58.341-9.9153,0,0,58.341z"/>
  <path fill-rule="nonzero" fill="#000" d="m453.11,12.491c2.3336,9.0119,4.4199,16.099,6.5922,23.756h-13.507c2.3336-7.6569,4.6673-14.744,6.9149-23.756m-9.4958,30.929,17.583,0,4.5812,15.916,11.163,0-18.583-58.341-8.3237,0-20.185,58.341,8.6785,0,5.0867-15.916z"/>
  <path fill-rule="nonzero" fill="#000" d="m347.34,126.07c-2.0755,1.0862-4.3231,1.4303-7.0009,1.4303-8.571,0-16.916-8.1731-16.916-22.014,0-13.249,7.259-21.669,17.916-21.669,3.85,0,8.0118,1.4195,10.69,3.0864l3.237-6.9256c-3.3445-2.495-8.7538-4.4952-14.174-4.4952-17.508,0-28.326,13.927-28.326,29.832,0,17.174,10.819,30.499,27.993,30.499,5.6782,0,11.27-1.4841,16.594-3.5704v-24.089h-10.012v17.916z"/>
  <path fill-rule="nonzero" fill="#000" d="m321.83,1.0014-9.926,0,0,58.341,9.926,0,0-58.341z"/>
  <path fill-rule="nonzero" fill="#000" d="m466.46,105.31c-0.98937,0.0753-3.3983,0.16131-4.1726,0.23659v-21.229h4.5167c5.8395,0,9.1625,3.409,9.1625,9.4206,0,7.829-4.7533,11.324-9.5066,11.571m1.4195-28.832-15.583,0,0,58.341,9.9905,0,0-22.003,4.5167,0c11.916,0,19.175-9.6679,19.175-19.497,0-11.335-6.9364-16.841-18.099-16.841"/>
  <path fill-rule="nonzero" fill="#000" d="m284.59,127.49c-10.421,0-14.088-11.507-14.088-22.68,0-10.733,4.1726-20.992,14.088-20.992,9.9153,0,14.088,10.259,14.088,20.992,0,11.173-3.6779,22.68-14.088,22.68m0-52.017c-14.249,0-24.745,13.002-24.745,29.337,0,17.422,9.4958,31.004,24.745,31.004s24.745-13.582,24.745-31.004c0-16.335-10.496-29.337-24.745-29.337"/>
  <path fill-rule="nonzero" fill="#000" d="m201.39,135.82c5.6782,0,11.26-1.4948,16.594-3.5811v-24.078h-10.001v17.916c-2.0863,1.0754-4.3339,1.4195-7.0009,1.4195-8.5818,0-16.927-8.1731-16.927-22.003,0-13.249,7.259-21.669,17.927-21.669,3.8392,0,8.001,1.4088,10.668,3.0864l3.2477-6.9364c-3.34-2.501-8.76-4.491-14.17-4.491-17.508,0-28.337,13.916-28.337,29.821,0,17.174,10.829,30.509,27.993,30.509"/>
  <path fill-rule="nonzero" fill="#000" d="m278.21,187.47c2.3229-7.6462,4.635-14.712,6.8934-23.691,2.3229,8.9796,4.4092,16.045,6.5707,23.691h-13.464zm3.8069-35.166-20.11,58.19,8.6463,0,5.0652-15.873,17.54,0,4.5812,15.873,11.13,0-18.54-58.19-8.3129,0z"/>
 </g>
</svg>
