<?xml version="1.0" encoding="UTF-8" standalone="no"?>
<!-- Created with Inkscape (http://www.inkscape.org/) -->
<svg xmlns:rdf="http://www.w3.org/1999/02/22-rdf-syntax-ns#" xmlns="http://www.w3.org/2000/svg" height="211.49" width="600" version="1.1" xmlns:cc="http://creativecommons.org/ns#" xmlns:dc="http://purl.org/dc/elements/1.1/">
 <metadata>
  <rdf:RDF>
   <cc:Work rdf:about="">
    <dc:format>image/svg+xml</dc:format>
    <dc:type rdf:resource="http://purl.org/dc/dcmitype/StillImage"/>
    <dc:title/>
   </cc:Work>
  </rdf:RDF>
 </metadata>
 <path fill-rule="nonzero" fill="#ffd62b" d="m0,210.46,146.43,0,0-209.82l-146.43,0.00261v209.82zm21.099-188.7,104.16,0,0,167.57-104.16,0,0-167.57z"/>
 <path fill-rule="nonzero" fill="#000" d="m347.86,193.79c-9.3024-14.97-18.712-28.176-28.186-41.489h-7.2376v58.191h7.9796l0.0968-41.726c9.3884,15.045,18.777,28.337,28.262,41.726h7.2268v-58.191h-7.9689l-0.17208,41.489z"/>
 <path fill-rule="nonzero" fill="#000" d="m400.82,193.79c-9.3131-14.97-18.701-28.176-28.186-41.489h-7.2268v58.191h7.9689l0.0968-41.726c9.3884,15.045,18.787,28.337,28.262,41.726h7.2268v-58.191h-7.9796l-0.16131,41.489z"/>
 <path fill-rule="nonzero" fill="#000" d="m461.83,152.31-9.8939,0,0,58.181,29.595,0,0-7.7968-19.701,0,0-50.384z"/>
 <path fill-rule="nonzero" fill="#000" d="m426.75,183.9,16.292,0,0-7.8183-16.292,0,0-15.959,16.626,0,0-7.8076-26.606,0,0,58.181,29.595,0,0-7.8076-19.615,0,0-18.787z"/>
 <path fill-rule="nonzero" fill="#000" d="m201.3,159.62c3.8177,0,7.8183,1.7422,10.216,3.237l3.1617-7.0655c-3.409-2.3229-8.227-4.4844-13.378-4.4844-17.368,0-28.1,13.884-28.1,29.767,0,17.11,10.808,30.413,27.939,30.413,4.8072,0,10.13-1.9142,13.131-3.9898l-2.753-7.2268c-2.5702,1.6669-6.1514,2.9144-9.9691,2.9144-9.6465,0-17.787-8.1517-17.787-21.949,0-13.217,7.3989-21.616,17.54-21.616"/>
 <path fill-rule="nonzero" fill="#000" d="m248.35,174.67-20.702,0,0-22.358-9.8939,0,0,58.181,9.8939,0,0-28.004,20.702,0,0,28.004,9.9799,0,0-58.008-9.9799,0,0,22.186z"/>
 <path fill-rule="nonzero" fill="#000" d="m352.67,8.3341c9.9154,0,14.088,10.259,14.088,21.003,0,11.163-3.6564,22.67-14.088,22.67-10.41,0-14.077-11.507-14.077-22.67,0-10.743,4.1618-21.003,14.077-21.003m0,52.008c15.26,0,24.777-13.582,24.777-31.004,0-16.347-10.52-29.338-24.78-29.338-14.249,0-24.756,12.991-24.756,29.337,0,17.422,9.5067,31.004,24.756,31.004"/>
 <path fill-rule="nonzero" fill="#000" d="m253.75,84.314,0-7.8291-26.681,0,0,58.342,29.67,0,0-7.8398-19.669,0,0-18.83,16.346,0,0-7.8398-16.346,0,0-16.002,16.68,0z"/>
 <path fill-rule="nonzero" fill="#000" d="m283.33,59.344,10.001,0,0-50.513,15.335,0,0-7.8291-40.672,0,0,7.8291,15.335,0,0,50.513z"/>
 <path fill-rule="nonzero" fill="#000" d="m522.32,98.905-20.766,0,0-22.422-9.9046,0,0,58.342,9.9046,0,0-28.079,20.766,0,0,28.079,10.001,0,0-58.17-10.001,0,0,22.25z"/>
 <path fill-rule="nonzero" fill="#000" d="m188.55,17.514c9.4314,15.077,18.841,28.423,28.337,41.833h7.2591v-58.341h-8.0011l-0.16,41.586c-9.35-14.991-18.77-28.251-28.27-41.586h-7.2483v58.342h8.0119l0.0645-41.833z"/>
 <path fill-rule="nonzero" fill="#000" d="m250.07,12.494c2.3444,9.012,4.4199,16.099,6.5816,23.756h-13.507c2.3336-7.657,4.6673-14.744,6.9257-23.756m-9.4959,30.929,17.583,0,4.592,15.916,11.152,0-18.583-58.342-8.3345,0-20.175,58.342,8.6679,0,5.0974-15.916z"/>
 <path fill-rule="nonzero" fill="#000" d="m418.37,111.73c2.3229-7.6678,4.6673-14.755,6.915-23.745,2.3336,8.9905,4.4199,16.077,6.5816,23.745h-13.496zm3.8392-35.252-20.175,58.342,8.6679,0,5.076-15.916,17.594,0,4.5812,15.916,11.173,0-18.594-58.342-8.3237,0z"/>
 <path fill-rule="nonzero" fill="#000" d="m391.6,17.514c9.4207,15.077,18.841,28.423,28.337,41.833h7.2591v-58.341h-7.9904l-0.17,41.586c-9.34-14.991-18.77-28.251-28.27-41.586h-7.2483v58.342h8.0119l0.0753-41.833z"/>
 <path fill-rule="nonzero" fill="#000" d="m509.54,51.514-19.755,0,0-50.513-9.9154,0,0,58.342,29.67,0,0-7.8291z"/>
 <path fill-rule="nonzero" fill="#000" d="m586.83,127.49c-9.668,0-17.841-8.1732-17.841-22.014,0-13.249,7.4204-21.659,17.594-21.659,3.8177,0,7.8291,1.7422,10.238,3.2477l3.1832-7.0978c-3.4306-2.3229-8.2485-4.4952-13.421-4.4952-17.432,0-28.186,13.927-28.186,29.832,0,17.174,10.851,30.509,28.025,30.509,4.8286,0,10.152-1.9035,13.163-3.9898l-2.7638-7.2591c-2.5702,1.6669-6.1622,2.9251-9.9906,2.9251"/>
 <path fill-rule="nonzero" fill="#000" d="m376.52,84.314,4.4308,0c5.9148,0,9.2379,3.4198,9.2379,9.4207,0,7.8291-4.7534,11.335-9.4959,11.571-1.0001,0.086-3.3338,0.18283-4.1726,0.26886v-21.266zm-9.9906,50.513,9.9906,0,0-22.003,4.506,0,9.4099,22.003,11.421,0-11.743-24.175c6.4203-3.409,10.087-10.335,10.087-17.325,0-11.346-6.9257-16.841-18.099-16.841h-15.572v58.342z"/>
 <path fill-rule="nonzero" fill="#000" d="m541.9,134.82,9.9154,0,0-58.342-9.9154,0,0,58.342z"/>
 <path fill-rule="nonzero" fill="#000" d="m453.11,12.494c2.3336,9.012,4.4199,16.099,6.5923,23.756h-13.507c2.3336-7.657,4.6673-14.744,6.915-23.756m-9.4959,30.929,17.583,0,4.5812,15.916,11.163,0-18.583-58.342-8.3238,0-20.185,58.342,8.6786,0,5.0868-15.916z"/>
 <path fill-rule="nonzero" fill="#000" d="m347.34,126.07c-2.0755,1.0862-4.3232,1.4303-7.001,1.4303-8.5711,0-16.916-8.1732-16.916-22.014,0-13.249,7.2591-21.669,17.916-21.669,3.85,0,8.0119,1.4195,10.69,3.0864l3.237-6.9257c-3.3445-2.495-8.7539-4.4952-14.174-4.4952-17.508,0-28.326,13.927-28.326,29.832,0,17.174,10.819,30.499,27.993,30.499,5.6783,0,11.27-1.4841,16.594-3.5704v-24.089h-10.012v17.916z"/>
 <path fill-rule="nonzero" fill="#000" d="m321.83,1.004-9.9261,0,0,58.342,9.9261,0,0-58.342z"/>
 <path fill-rule="nonzero" fill="#000" d="m466.46,105.31c-0.98938,0.0753-3.3983,0.16132-4.1726,0.2366v-21.229h4.5167c5.8396,0,9.1626,3.409,9.1626,9.4207,0,7.8291-4.7534,11.324-9.5067,11.571m1.4195-28.832-15.583,0,0,58.342,9.9906,0,0-22.003,4.5167,0c11.916,0,19.175-9.668,19.175-19.497,0-11.335-6.9365-16.841-18.099-16.841"/>
 <path fill-rule="nonzero" fill="#000" d="m284.59,127.49c-10.421,0-14.088-11.507-14.088-22.68,0-10.733,4.1726-20.992,14.088-20.992s14.088,10.259,14.088,20.992c0,11.173-3.6779,22.68-14.088,22.68m0-52.018c-14.249,0-24.745,13.002-24.745,29.337,0,17.422,9.4959,31.004,24.745,31.004s24.745-13.582,24.745-31.004c0-16.335-10.496-29.337-24.745-29.337"/>
 <path fill-rule="nonzero" fill="#000" d="m201.39,135.82c5.6783,0,11.26-1.4948,16.594-3.5811v-24.078h-10.001v17.916c-2.0863,1.0754-4.3339,1.4195-7.001,1.4195-8.5819,0-16.927-8.1732-16.927-22.003,0-13.249,7.2591-21.669,17.927-21.669,3.8392,0,8.0011,1.4088,10.668,3.0864l3.2477-6.9365c-3.3338-2.4949-8.7539-4.4844-14.163-4.4844-17.508,0-28.337,13.916-28.337,29.821,0,17.174,10.829,30.509,27.993,30.509"/>
 <path fill-rule="nonzero" fill="#000" d="m278.21,187.47c2.3229-7.6463,4.635-14.712,6.8935-23.691,2.3229,8.9797,4.4092,16.045,6.5708,23.691h-13.464zm3.8069-35.166-20.11,58.191,8.6464,0,5.0652-15.873,17.54,0,4.5812,15.873,11.13,0-18.54-58.191-8.313,0z"/>
</svg>
