<svg xmlns="http://www.w3.org/2000/svg" viewBox="0 0 600 211.49"><path fill="#ffd62b" d="m0 210.46h146.43v-209.82l-146.43.003v209.82zm21.1-188.7h104.16v167.57h-104.16v-167.57"/><g fill="#fff"><path d="m347.86 193.79c-9.302-14.97-18.712-28.18-28.19-41.489h-7.238v58.19h7.98l.097-41.726c9.388 15.04 18.777 28.337 28.26 41.726h7.227v-58.19h-7.969l-.172 41.489"/><path d="m400.82 193.79c-9.313-14.97-18.701-28.18-28.19-41.489h-7.227v58.19h7.969l.097-41.726c9.388 15.04 18.787 28.337 28.26 41.726h7.227v-58.19h-7.98l-.161 41.489"/><path d="m461.83 152.31h-9.894v58.18h29.595v-7.797h-19.701v-50.38"/><path d="m426.75 183.9h16.292v-7.818h-16.292v-15.959h16.626v-7.808h-26.606v58.18h29.595v-7.808h-19.615v-18.787"/><path d="m201.3 159.62c3.818 0 7.818 1.742 10.216 3.237l3.162-7.07c-3.409-2.323-8.227-4.484-13.378-4.484-17.368 0-28.1 13.884-28.1 29.767 0 17.11 10.808 30.413 27.939 30.413 4.807 0 10.13-1.914 13.13-3.99l-2.753-7.227c-2.57 1.667-6.151 2.914-9.969 2.914-9.647 0-17.787-8.152-17.787-21.949 0-13.217 7.399-21.616 17.54-21.616"/><path d="m248.35 174.67h-20.702v-22.358h-9.894v58.18h9.894v-28h20.702v28h9.98v-58.01h-9.98v22.19z"/><path d="m352.67 8.334c9.915 0 14.09 10.259 14.09 21 0 11.163-3.656 22.67-14.09 22.67-10.41 0-14.08-11.507-14.08-22.67 0-10.743 4.162-21 14.08-21m0 52.01c15.26 0 24.777-13.582 24.777-31 0-16.347-10.52-29.338-24.78-29.338-14.249 0-24.756 12.991-24.756 29.337 0 17.422 9.507 31 24.756 31"/><path d="m253.75 84.31v-7.829h-26.681v58.34h29.67v-7.84h-19.669v-18.83h16.346v-7.84h-16.346v-16h16.68z"/><path d="m283.33 59.34h10v-50.51h15.335v-7.829h-40.672v7.829h15.335v50.51z"/><path d="m522.32 98.91h-20.766v-22.422h-9.905v58.34h9.905v-28.08h20.766v28.08h10v-58.17h-10v22.25"/><path d="m188.55 17.514c9.431 15.08 18.841 28.423 28.337 41.833h7.259v-58.34h-8l-.16 41.586c-9.35-14.991-18.77-28.25-28.27-41.586h-7.248v58.34h8.01l.065-41.833z"/><path d="m250.07 12.494c2.344 9.01 4.42 16.1 6.582 23.756h-13.507c2.334-7.657 4.667-14.744 6.926-23.756m-9.496 30.929h17.583l4.592 15.916h11.152l-18.583-58.34h-8.334l-20.18 58.34h8.668l5.097-15.916z"/><path d="m418.37 111.73c2.323-7.668 4.667-14.755 6.915-23.745 2.334 8.99 4.42 16.08 6.582 23.745h-13.496m3.839-35.25l-20.18 58.34h8.668l5.076-15.916h17.594l4.581 15.916h11.173l-18.594-58.34h-8.324"/><path d="m391.6 17.514c9.421 15.08 18.841 28.423 28.337 41.833h7.259v-58.34h-7.99l-.17 41.586c-9.34-14.991-18.77-28.25-28.27-41.586h-7.248v58.34h8.01l.075-41.833z"/><path d="m509.54 51.51h-19.755v-50.51h-9.915v58.34h29.67v-7.829"/><path d="m586.83 127.49c-9.668 0-17.841-8.173-17.841-22.01 0-13.249 7.42-21.659 17.594-21.659 3.818 0 7.829 1.742 10.238 3.248l3.183-7.098c-3.431-2.323-8.249-4.495-13.421-4.495-17.432 0-28.19 13.927-28.19 29.832 0 17.17 10.851 30.509 28.02 30.509 4.829 0 10.152-1.904 13.163-3.99l-2.764-7.259c-2.57 1.667-6.162 2.925-9.991 2.925"/><path d="m376.52 84.31h4.431c5.915 0 9.238 3.42 9.238 9.421 0 7.829-4.753 11.335-9.496 11.571-1 .086-3.334.183-4.173.269v-21.266zm-9.991 50.51h9.991v-22h4.506l9.41 22h11.421l-11.743-24.17c6.42-3.409 10.09-10.335 10.09-17.325 0-11.346-6.926-16.841-18.1-16.841h-15.572v58.34"/><path d="m541.9 134.82h9.915v-58.34h-9.915v58.34"/><path d="m453.11 12.494c2.334 9.01 4.42 16.1 6.592 23.756h-13.507c2.334-7.657 4.667-14.744 6.915-23.756m-9.496 30.929h17.583l4.581 15.916h11.163l-18.583-58.34h-8.324l-20.19 58.34h8.679l5.087-15.916z"/><path d="m347.34 126.07c-2.075 1.086-4.323 1.43-7 1.43-8.571 0-16.916-8.173-16.916-22.01 0-13.249 7.259-21.669 17.916-21.669 3.85 0 8.01 1.419 10.69 3.086l3.237-6.926c-3.344-2.495-8.754-4.495-14.174-4.495-17.508 0-28.326 13.927-28.326 29.832 0 17.17 10.819 30.499 27.993 30.499 5.678 0 11.27-1.484 16.594-3.57v-24.09h-10.01v17.916z"/><path d="m321.83 1h-9.926v58.34h9.926v-58.34"/><path d="m466.46 105.31c-.989.075-3.398.161-4.173.237v-21.23h4.517c5.84 0 9.163 3.409 9.163 9.421 0 7.829-4.753 11.324-9.507 11.571m1.42-28.832h-15.583v58.34h9.991v-22h4.517c11.916 0 19.18-9.668 19.18-19.497 0-11.335-6.937-16.841-18.1-16.841"/><path d="m284.59 127.49c-10.421 0-14.09-11.507-14.09-22.68 0-10.733 4.173-20.992 14.09-20.992s14.09 10.259 14.09 20.992c0 11.173-3.678 22.68-14.09 22.68m0-52.02c-14.249 0-24.745 13-24.745 29.337 0 17.422 9.496 31 24.745 31s24.745-13.582 24.745-31c0-16.335-10.496-29.337-24.745-29.337"/><path d="m201.39 135.82c5.678 0 11.26-1.495 16.594-3.581v-24.08h-10v17.916c-2.086 1.075-4.334 1.419-7 1.419-8.582 0-16.927-8.173-16.927-22 0-13.249 7.259-21.669 17.927-21.669 3.839 0 8 1.409 10.668 3.086l3.248-6.936c-3.334-2.495-8.754-4.484-14.163-4.484-17.508 0-28.337 13.916-28.337 29.821 0 17.17 10.829 30.509 27.993 30.509"/><path d="m278.21 187.47c2.323-7.646 4.635-14.712 6.894-23.691 2.323 8.98 4.409 16.05 6.571 23.691h-13.464m3.807-35.17l-20.11 58.19h8.646l5.065-15.873h17.54l4.581 15.873h11.13l-18.54-58.19h-8.313"/></g></svg>