<svg xmlns="http://www.w3.org/2000/svg" viewBox="0 0 423 311"><g transform="matrix(9.17323 0 0-9.17323-2965.34 4666.97)"><g fill="#003169"><path d="m0 0h-3.176l-2.377 5.114h-1.599v-5.114h-2.956v13.324h4.655c2.916 0 4.834-.959 4.834-4.155 0-1.618-.639-2.917-2.198-3.516l2.817-5.653m-3.456 9.329c0 1.298-.699 1.638-1.878 1.638h-1.878v-3.436h1.878c1.119 0 1.878.639 1.878 1.798" fill-rule="evenodd" transform="translate(356.28 482.91)"/><path d="m335.11 508.76h-1.578v-12.526h1.578v12.526"/><path d="m0 0c0-3.376-1.758-4.674-4.995-4.674h-4.714v13.324h4.714c3.117 0 4.995-1.378 4.995-4.635v-4.01m-2.877.28v3.436c0 1.618-.739 2.417-2.377 2.417h-1.419v-8.291h1.419c1.638 0 2.377.82 2.377 2.438" fill-rule="evenodd" transform="translate(344.82 487.58)"/><path d="m0 0v13.324h-2.817v-8.29l-4.495 8.29h-2.957v-13.324h2.817v7.77l4.315-7.77h3.137" transform="translate(333.53 482.91)"/><path d="m335.11 482.91h-1.578v-5.694h1.578v5.694"/><path d="m0 0h-.561l-.69-3.194c-.072-.33-.094-.518-.116-.827-.071.424-.093.59-.151.827l-.755 3.194h-.597l-.762-3.194c-.065-.273-.108-.518-.144-.827-.029.295-.065.597-.115.827l-.684 3.194h-.589l1.078-4.798h.576l.784 3.237c.072.302.108.525.137.885.028-.36.057-.575.129-.885l.777-3.237h.583l1.1 4.798" transform="translate(343.45 479.75)"/><path d="m0 0h-1.727c.065.77.396 1.115.907 1.115.475 0 .813-.403.82-1.115m.568-1.402l-.468.251c-.172-.424-.431-.712-.899-.712-.625 0-.92.432-.928 1.41h2.295v.316c0 .871-.381 1.712-1.374 1.712-.884 0-1.503-.618-1.503-1.913 0-1.266.489-1.985 1.503-1.985.77 0 1.151.41 1.374.921" fill-rule="evenodd" transform="translate(346.07 477.18)"/><path d="m348.08 479.92h-.554v-4.97h.554v4.97"/><path d="m349.81 479.92h-.554v-4.97h.554v4.97"/><path d="m0 0h-1.727c.065.77.396 1.115.907 1.115.475 0 .812-.403.82-1.115m.568-1.402l-.468.251c-.172-.424-.432-.712-.899-.712-.625 0-.92.432-.928 1.41h2.295v.316c0 .871-.381 1.712-1.374 1.712-.885 0-1.503-.618-1.503-1.913 0-1.266.489-1.985 1.503-1.985.77 0 1.151.41 1.374.921" fill-rule="evenodd" transform="translate(353.01 477.18)"/><path d="m0 0v4.798h-.568v-3.51c0-.374.014-.482.036-.619-.044.166-.087.266-.274.641l-1.755 3.488h-.762v-4.798h.576v3.402c0 .411 0 .497-.037.72.051-.209.159-.403.317-.712l1.733-3.41h.734" transform="translate(359.6 474.95)"/><path d="m0 0c0 1.043.288 1.503.928 1.503.64 0 .921-.46.921-1.489 0-1.043-.281-1.489-.921-1.489-.633 0-.928.468-.928 1.475m.956 1.963c-1.164 0-1.531-.935-1.531-1.949 0-1.23.503-1.949 1.481-1.949 1.187 0 1.518.921 1.518 1.949 0 1.273-.496 1.949-1.468 1.949" fill-rule="evenodd" transform="translate(361.04 476.79)"/><path d="m0 0v.59c-.051 0-.115-.007-.187-.014-.604-.058-.834-.382-1.108-.842v.77h-.539v-3.712h.554v2.237c.287.583.619.878.964.943.108.021.215.021.316.028" transform="translate(366.11 478.16)"/><path d="m0 0c-.273-.323-.525-.503-.841-.503-.575 0-.892.475-.892 1.438 0 .965.309 1.489.877 1.489.367 0 .597-.179.856-.409v-2.02m.554-.899v4.971h-.554v-1.626c-.265.259-.676.424-1.028.424-.835 0-1.295-.69-1.295-1.927 0-1.23.482-1.906 1.316-1.906.468 0 .755.237 1.014.496l.015-.432h.532" fill-rule="evenodd" transform="translate(368.82 475.85)"/></g><path d="m0 0h-1.948v1.891l.232.045c.902.177 1.399.412 1.739.673.171.132.31.277.443.438.141.17.271.35.418.539l.087.11h1.814v-10.9h1.963v-2.389h-6.72v2.389h1.972v7.204" fill="#279dd0" transform="translate(360.83 492.5)"/></g></svg>