<svg xmlns="http://www.w3.org/2000/svg" viewBox="0 0 602.36 433.7"><g transform="translate(-107.39 98.77)"><path d="m254.75-81.05v158.15h19.925v-158.15h-19.925m19.925 158.15v168.24h59.53c40.853 0 63.04-16.4 63.04-59.02v-50.692c0-41.11-23.7-58.52-63.04-58.52h-59.53m0 168.24h-19.925v71.872h19.925v-71.872m-19.925 0v-168.24h-35.56v104.67l-56.765-104.67h-37.32v168.24h35.56v-98.12l54.48 98.12h39.6m159.65-168.24v168.24h37.32v-64.57h20.18l30.01 64.57h40.1l-35.56-71.4c19.682-7.57 27.73-23.967 27.73-44.39 0-40.35-24.21-52.45-61.03-52.45h-58.747m36.563 29.763h23.715c14.871 0 23.69 4.281 23.69 20.678 0 14.627-9.563 22.711-23.69 22.711h-23.715v-43.39m-137.97 2.01h17.918c20.683 0 30.01 10.09 30.01 30.516v43.39c0 20.426-9.331 30.767-30.01 30.767h-17.918v-104.67" fill="#036" fill-rule="evenodd"/><path d="m581.1 214.48l1.026-.975c65.15-61.985 73.74-72.4 73.74-87.59 0-11.445-5.953-18.848-18.18-18.848-13.228 0-19.734 7.763-19.734 17.963v9.123h-36.18v-10.919c0-25.7 20.67-48.31 53.683-48.31 32.834 0 56.58 17.09 56.58 50.32 0 20-11.65 37.35-25.61 52.53-11.586 12.587-25.21 24.1-36.17 34.874l-.629.616h59.945v32.14h-108.47v-30.922" fill="#c00"/></g></svg>