<svg xmlns="http://www.w3.org/2000/svg" viewBox="0 0 600 359.01"><defs><clipPath><path d="m64.17 12.938h60.56v16.313h-60.56v-16.313"/></clipPath><clipPath><path d="m0 0h595.28v841.89h-595.28v-841.89"/></clipPath><clipPath><path d="m302.79 15.623h72.8v16.1h-72.8v-16.1"/></clipPath><clipPath><path d="m21.968 49.3h53.61v13.06h-53.61v-13.06"/></clipPath><clipPath><path d="m106.09 50.28h63.818v11.206h-63.818v-11.206"/></clipPath><clipPath><path d="m312.52 46.551h43.529v17.772h-43.529v-17.772"/></clipPath><clipPath><path d="m201.26 49.639h78.85v13.976h-78.85v-13.976"/></clipPath><clipPath><path d="m442.2 12.323h83.79v26.347h-83.79v-26.347"/></clipPath><clipPath><path d="m398.74 42.38h33.984v23.766h-33.984v-23.766"/></clipPath><clipPath><path d="m181.42 13.621h64.64v16.687h-64.64v-16.687"/></clipPath><clipPath><path d="m317.48 107.01h251.45v-79.69h-251.45v79.69"/></clipPath><clipPath><path d="m471.97 44.595h102.32v17.767h-102.32v-17.767"/></clipPath><clipPath><path d="m.03 419.53h595.25v-419.5h-595.25v419.5"/></clipPath><clipPath><path d="m127.28 47.37h-99.92v-28.943h99.92v28.943"/></clipPath><clipPath><path d="m61.758 30.33l35.934-.099c0 0 1.497.006 3.061-.088 1.817-.109 3.047-.279 4.216-.507 1.327-.258 2.294-.492 3.709-1.162 1.053-.499 2.143-1.565 2.143-1.565 0 0 1.523-.542 1.848-.739.361-.218 1.806-.925 1.794-1.508-.009-.497-.491-.912-1.455-1.381-1.358-.659-2.535-1.105-3.808-1.454-1.855-.509-3.477-.635-4.63-.675-.483-.017-1.117-.05-1.117-.05l-13.24-.042-.051-1.235-.06-.092-.358-.273-.082-.05c0 0-1.837-.27-3.312-.276-1.114-.005-2.269.105-2.269.105 0 0-.918-.121-1.722-.016-.928.121-1.234.256-1.234.256l-.038.076.342.368-.003.437-.614-.003.006-.165-.807.301-.861.124-7.836.117-1.595.253-.772.038c0 0-3.038.083-4.266.146-1.228.064-3.308.275-4.564.45-2.347.327-6.608 1.153-11.11 2.357-3.058.818-8.322 2.942-8.761 3.307-.076.064-.164.533-.164.533l-.469.659-.088.608-.139.051-2.773.823c0 0 1 .178 1.367.216.368.038.988.063 1.114.05.127-.012 2.203-.329 2.203-.329l-4.329 16.886 2.569-.007c0 0 .418 0 .684-.042.239-.037.324-.113.405-.167.171-.114 8.766-10.452 8.766-10.452 0 0 1.24-1.622 2.291-2.375.272-.196 1.082-.815 2.309-1.232 1.114-.378 2.526-.71 3.781-1.05 1.921-.52 3.524-.974 3.524-.974l.177-.121.282-.032"/></clipPath><clipPath><path d="m170.03 256.9l49.23 12.13c0 0 2.048.519 4.221.925 2.524.47 4.266.657 5.944.745 1.905.099 3.309.109 5.476-.326 1.611-.324 3.467-1.411 3.467-1.411 0 0 2.271-.221 2.783-.38.568-.176 2.787-.65 2.971-1.452.157-.684-.361-1.417-1.521-2.388-1.633-1.366-3.094-2.378-4.717-3.291-2.366-1.33-4.544-2.055-6.108-2.504-.656-.188-1.513-.451-1.513-.451l-18.11-4.576.351-1.709-.051-.146-.396-.495-.096-.098c0 0-2.422-.995-4.44-1.507-1.523-.387-3.142-.632-3.142-.632 0 0-1.215-.478-2.352-.609-1.311-.152-1.777-.07-1.777-.07l-.078.091.342.62-.153.597-.84-.214.065-.223-1.207.136-1.221-.124-10.769-2.515-2.27-.197-1.07-.212c0 0-4.188-.924-5.891-1.257-1.703-.332-4.622-.752-6.401-.941-3.325-.354-9.442-.677-16.01-.565-4.466.076-12.397 1.186-13.12 1.537-.125.061-.407.673-.407.673l-.866.742-.329.803-.208.022-4.077.181c0 0 1.309.584 1.799.762.489.177 1.33.423 1.508.449.177.026 3.128.301 3.128.301l-11.692 21.641 3.52.868c0 0 .573.142.95.175.341.031.483-.043.612-.089.273-.098 15.57-11.318 15.57-11.318 0 0 2.252-1.797 3.947-2.471.44-.174 1.76-.746 3.582-.897 1.654-.137 3.701-.11 5.536-.147 2.807-.057 5.156-.132 5.156-.132l.284-.104.396.052"/></clipPath><clipPath><path d="m117.12 268.49l9.88-39.626 136.8 34.11-9.88 39.627-136.8-34.11"/></clipPath><clipPath><path d="m117.12 268.49l9.88-39.626 136.8 34.11-9.88 39.627"/></clipPath></defs><g transform="matrix(1.74809 0 0 1.74809-10.434-5.463)"><path d="m237.97 84.67v86.76h10.448v-40.947h39.38v40.947h24.537c24.826 0 36.849-11.909 36.868-44.3.011-18.764-3.689-42.45-38.876-42.45h-22.529v36.617h-39.38v-36.617h-10.448m60.65 8.817h8.88c21.923 0 30.627 9.126 30.592 35.02-.035 25.89-8.884 34.33-30.592 34.33h-8.88v-69.34" fill="#999"/><path d="m72.813 3.125v81.56h10.281v-81.56h-10.281m10.281 81.56v86.75h30.688c21.08 0 32.531-8.456 32.531-30.438v-26.16c0-21.19-12.241-30.16-32.531-30.16h-30.688m0 86.75h-10.281v37.06h10.281v-37.06m-10.281 0v-86.75h-18.344v53.969l-29.25-53.969h-19.25v86.75h18.344v-50.594l28.06 50.594h20.438m82.34-86.75v86.75h19.25v-33.31h10.406l15.469 33.31h20.688l-18.344-36.813c10.149-3.905 14.313-12.368 14.313-22.906 0-20.812-12.504-27.03-31.5-27.03h-30.28m18.844 15.344h12.219c7.67 0 12.25 2.207 12.25 10.656 0 7.545-4.97 11.719-12.25 11.719h-12.219v-22.375m-71.12 1.031h9.219c10.671 0 15.469 5.211 15.469 15.75v22.375c0 10.539-4.798 15.844-15.469 15.844h-9.219v-53.969" fill="#14295e" fill-rule="evenodd"/></g></svg>