<svg xmlns="http://www.w3.org/2000/svg" height="145.2" width="600" viewBox="0 0 158.75 38.418037"><g transform="translate(33.524-28.661)" fill="#f9e100"><path d="m-33.524 47.869v18.455h9.604v-18.455c0-5.294 4.309-9.604 9.605-9.604 5.291 0 9.601 4.31 9.601 9.604v18.455h9.601v-18.455c0-10.588-8.614-19.21-19.2-19.21-10.589 0-19.21 8.619-19.21 19.21"/><path d="m47.801 47.869c0 10.594 8.614 19.21 19.2 19.21 10.592 0 19.21-8.615 19.21-19.21 0-10.588-8.615-19.21-19.21-19.21-10.59 0-19.2 8.619-19.2 19.21m9.601 0c0-5.294 4.307-9.604 9.603-9.604s9.601 4.31 9.601 9.604c0 5.296-4.305 9.605-9.601 9.605s-9.603-4.309-9.603-9.605"/><path d="m120.42 38.991h4.81v-9.606h-4.81c-5.42 0-10.3 2.366-13.68 6.098-3.39-3.732-8.26-6.098-13.688-6.098h-4.802v9.606h4.802c4.897 0 8.888 3.984 8.888 8.878 0 4.901-3.991 8.885-8.888 8.885h-4.802v9.606h4.802c5.428 0 10.298-2.368 13.688-6.106 3.38 3.738 8.26 6.106 13.68 6.106h4.81v-9.606h-4.81c-4.9 0-8.88-3.984-8.88-8.885 0-4.894 3.98-8.878 8.88-8.878"/><path d="m45.12 51.905c.278-1.31.431-2.663.431-4.04 0-5.126-1.997-9.95-5.629-13.578-3.622-3.629-8.447-5.629-13.577-5.629-5.131 0-9.953 2-13.585 5.629-3.623 3.628-5.622 8.452-5.622 13.578 0 5.133 1.999 9.958 5.622 13.585 3.632 3.627 8.454 5.626 13.585 5.626h16.03v-9.605h-16.03c-2.569 0-4.978-.999-6.793-2.813-.814-.81-1.448-1.743-1.918-2.756h17.418zm-18.775-13.638c2.564 0 4.975.999 6.787 2.809.836.833 1.482 1.793 1.952 2.827h-17.478c.466-1.034 1.12-1.994 1.946-2.827 1.815-1.81 4.224-2.809 6.793-2.809"/></g></svg>