<svg xmlns="http://www.w3.org/2000/svg" viewBox="0 0 600 367.12"><g fill="#fff"><path d="m373.39 367.11c-.726-6.22-1.633-15.173-1.633-23.05 0-4.89.653-24.556.653-40.41 0-13.375-2.903-37.14-2.903-50.05 0-7.766.581-18.301-.29-22 6.242-4.03 11.721-6.579 28.922-16.934 5.588-3.344 16.257-8.988 16.257-15.784 0-3.02-.835-4.998-5.153-8.521-3.048-2.409-6.278-3.092-9.943-3.092-8.782 0-12.773 8.701-20.1 13.159-11.249 6.795-17.201 10.174-19.487 11.433-.943-.431-4.754-2.661-10.886-2.661-6.423 0-13.898 2.84-13.898 11.11 0 3.775 1.197 7.874-3.883 10.534-2.867 1.798-16.838 9.707-31.716 18.588-12.519 7.514-18.362 6.903-23.66 10.07-4.863 2.912-6.169 6.544-6.169 9.707 0 2.804 1.814 6.328 2.431 7.119 3.375 4.279 6.387 6.579 11.685 6.579 8.999 0 16.438-7.766 30.336-17.545 8.637-6.112 16.584-12.44 21.23-12.44 4.137 0 7.04 3.092 7.04 15.855 0 42.677-2.649 49.44-2.649 79.06 0 5.321.218 15.173.399 19.271h-22.856v-69.933l-43.981 36.744-43.981-36.744v69.93h-142.56v-248.88h138.76l47.753 49.795 47.757-49.795h139.45v106.38c-4.427 6.759-17.89 29.625-26.962 52.996-2.976 7.622-4.355 13.12-8.238 13.12-4.318 0-4.681-4.207-5.08-7.946-.871-8.198-2.722-23.478-3.556-29.09-1.669-10.893-3.846-22.399-16.11-22.399-9.108 0-18.616 4.926-18.616 18.373 0 7.622 3.883 20.889 10.559 38.33 2.613 6.867 16.584 43.14 18.616 48.39 3.665 9.635 8.818 12.26 16.765 12.26 10.233 0 13.753-3.703 17.963-17.905 3.556-12.08 9.617-31.819 14.66-44.15v80.47h-86.978zm119.64-138.1v138.1h-22.934v-101.03c4.899-10.534 16.729-28.979 22.934-37.07m-22.934-18.409v-92.33l22.934 13.662v50.55c-5.625 5.825-17.418 20.03-22.934 28.12m-184.31-69.68l-12.633 13.16-34.22-35.667 43.4 18.912 3.447 3.595zm1.524 193.76h15.822l4.282-3.524v-13.231l-20.1 16.755m-48.41 32.43h18.87v-33.437l-18.87-15.748v49.18z"/><path d="m495.72 358.18h7.294v1.366h-2.867v7.55h-1.56v-7.55h-2.867v-1.366"/><path d="m504.04 358.18h2.214l2.504 6.975 2.431-6.975h2.214v8.916h-1.524v-6.867l-2.504 6.867h-1.306l-2.504-6.867h-.036v6.867h-1.488v-8.916"/></g><g fill="#f47116"><path d="m599.79 74.61l-3.514 3.972-3.575-3.972h-.214v7.456h1.344v-4.614l2.292 2.75h.244l2.322-2.75v4.614h1.314v-7.456h-.214m-14.666.153v1.1h2.231v6.203h1.314v-6.203h2.231v-1.1h-5.775"/><path d="m28.751 27.881c-7.914 0-15.15 3.239-20.319 8.433-5.193 5.163-8.432 12.404-8.432 20.318v26.28h21.816v-25.818c.031-3.147.764-5.836 2.047-7.914 1.283-2.078 2.933-3.269 4.889-3.3 1.956.031 3.606 1.222 4.889 3.3s2.02 4.767 2.047 7.914v25.819h21.815v-26.28c0-7.914-3.239-15.16-8.433-20.319-5.164-5.194-12.405-8.433-20.319-8.433"/><path d="m551.21 27.881c-7.914 0-15.15 3.239-20.319 8.433-5.194 5.164-8.433 12.405-8.433 20.319v26.28h21.847l-.034-11.52v-14.299c.031-3.147.764-5.836 2.047-7.914 1.283-2.078 2.933-3.269 4.889-3.3 1.956.031 3.606 1.222 4.889 3.3s2.02 4.767 2.047 7.914v25.819h21.816v-26.28c0-7.914-3.239-15.16-8.433-20.319-5.164-5.194-12.405-8.433-20.319-8.433"/><path d="m80.991 20.815c2.2-2.2 3.544-5.225 3.544-8.586s-1.344-6.386-3.544-8.586c-2.2-2.169-5.225-3.544-8.586-3.544-3.331 0-6.386 1.375-8.556 3.544-2.2 2.2-3.575 5.225-3.575 8.586 0 3.361 1.375 6.386 3.575 8.586l2.658 2.689c4.492 4.461 4.797 5.653.55 9.9 0 0-2.444 2.444-2.444 2.444-1.986 1.986-3.239 4.736-3.239 7.791v39.26h22.06v-39.26c0-3.056-1.222-5.806-3.208-7.791l-2.444-2.444c-4.247-4.247-3.942-5.439.519-9.9l2.689-2.689"/><path d="m120.08 65.805c-1.283 2.383-2.933 3.789-4.889 3.789-1.956 0-3.606-1.406-4.889-3.789-1.283-2.414-2.047-5.5-2.047-9.136s.764-6.753 2.047-9.136c1.283-2.383 2.933-3.789 4.889-3.789 1.956 0 3.606 1.406 4.889 3.789.947 1.772 1.589 3.942 1.864 6.417h21.847c-.642-6.844-3.697-13.05-8.28-17.63-5.164-5.164-12.405-8.403-20.319-8.403-7.914 0-15.16 3.239-20.35 8.403-5.164 5.194-8.403 12.436-8.403 20.35 0 7.914 3.239 15.15 8.403 20.319 4 4 10.939 8.433 20.35 8.433 7.089 0 13.627-2.597 18.638-6.875 3.636-3.086 9.04-9.319 9.961-19.19h-21.847c-.275 2.505-.917 4.675-1.864 6.447"/><path d="m227.56 27.869c-7.914 0-15.16 3.239-20.319 8.433-5.194 5.164-8.433 12.405-8.433 20.319 0 7.914 3.239 15.16 8.433 20.319 5.04 5.04 12.161 8.433 20.441 8.433 8.555 0 15.613-3.819 20.38-8.586 6.02-6.906 6.294-14.269 6.294-14.269h-19.463s-2.689 6.783-7.333 6.783c-1.956 0-3.606-1.406-4.889-3.789-.886-1.65-1.497-3.605-1.803-5.867h33.886s2.292-13.841-6.967-23.19c-5.378-5.439-12.253-8.586-20.227-8.586m-6.339 23.62c.397-1.681.917-3.147 1.436-4.247.978-2.108 2.933-3.789 4.889-3.789 1.956 0 3.575 1.375 4.95 3.85.581 1.069 1.1 2.933 1.344 4.156l-12.62.031z"/><path d="m431.85 27.869c-7.914 0-15.15 3.239-20.319 8.433-5.194 5.164-8.433 12.405-8.433 20.319 0 7.914 3.239 15.16 8.433 20.319 5.04 5.04 12.161 8.433 20.441 8.433 8.555 0 15.613-3.819 20.38-8.586 6.02-6.906 6.294-14.269 6.294-14.269h-19.463s-2.689 6.783-7.333 6.783c-1.955 0-3.606-1.406-4.889-3.789-.886-1.65-1.497-3.605-1.803-5.867h33.886s2.322-13.841-6.967-23.19c-5.378-5.439-12.253-8.586-20.227-8.586m-6.325 23.62c.397-1.681.917-3.147 1.436-4.247.978-2.108 2.933-3.789 4.889-3.789 1.955 0 3.575 1.375 4.95 3.85.581 1.069 1.1 2.933 1.344 4.156l-12.62.031z"/><path d="m268.75 0c-6.05 0-10.908 4.889-10.908 10.908l.031 71.989h21.816l-.034-71.989c0-6.02-4.889-10.908-10.906-10.908"/><path d="m311.45 27.881c-15.889 0-28.753 12.864-28.753 28.753s12.864 28.753 28.753 28.753 28.753-12.864 28.753-28.753-12.864-28.753-28.753-28.753m0 41.707c-3.819 0-6.936-5.806-6.936-12.956 0-7.15 3.117-12.956 6.936-12.956s6.936 5.806 6.936 12.956c0 7.15-3.117 12.956-6.936 12.956"/><path d="m491.01 27.881c-15.889 0-28.753 12.864-28.753 28.753s12.864 28.753 28.753 28.753 28.753-12.864 28.753-28.753-12.864-28.753-28.753-28.753m0 41.707c-3.819 0-6.936-5.806-6.936-12.956 0-7.15 3.117-12.956 6.936-12.956 3.819 0 6.936 5.806 6.936 12.956 0 7.15-3.117 12.956-6.936 12.956"/><path d="m400.33 56.638l.061.031-.031-45.771c-.03-6.02-4.92-10.909-10.94-10.878-6.02 0-10.908 4.858-10.908 10.908v17.845c-2.231-.55-4.553-.856-6.936-.856-7.914 0-15.15 3.239-20.319 8.433-5.194 5.164-8.433 12.405-8.433 20.319 0 7.883 3.239 15.16 8.433 20.319 3.3 3.331 10.419 8.433 20.319 8.433 9.93 0 17.02-5.103 20.319-8.433 5.194-5.164 8.433-12.436 8.433-20.319v-.031zm-28.753 12.956c-3.819 0-6.906-5.806-6.906-12.956 0-7.15 3.086-12.956 6.906-12.956 3.819 0 6.936 5.806 6.936 12.956 0 7.15-3.117 12.956-6.936 12.956"/><path d="m201.96 79.08c0-.733-.214-1.406-.581-1.986l-11.947-18.09 8.28-15c3.055-5.194 1.344-11.887-3.85-14.972-5.194-3.055-11.887-1.314-14.941 3.881l-9.9 17.661v-11.796c0-6.02-4.889-10.908-10.908-10.908-6.02 0-10.908 4.889-10.908 10.908v44.12h21.816v-17.264l11.519 17.264 17.63-.031c2.078 0 3.789-1.681 3.789-3.789"/></g></svg>