<svg xmlns="http://www.w3.org/2000/svg" height="159.39" width="600" viewBox="0 0 158.75 42.172383"><g transform="translate(146-32.533)"><g fill="#49c3cb"><path d="m-23.713 63.66c0 6.574-3.198 10.825-10.891 10.825h-.297c-2.687 0-5.501-.714-7.259-1.845-3.05-1.964-5.04-5.195-3.03-8.608 1.865-3.161 8.385-3.743 9.351 1.762.338 1.927 1.362 1.675 1.362-.103v-13.1c.004-3.912 2.418-6.322 5.394-6.322 2.975.004 5.389 2.414 5.389 5.389zm-5.373-19.08c2.946 0 5.336-2.39 5.336-5.336 0-2.947-2.39-5.336-5.336-5.336-2.947 0-5.336 2.389-5.336 5.336 0 2.946 2.389 5.336 5.336 5.336"/><path d="m9.593 49.913c.573 0 .813-.281.813-.743 0-.45-.24-.755-.813-.755h-.405v1.498zm1.432 1.304h-.677l-.545-.825c-.054.012-.128.012-.198.012h-.417v.813h-.619v-3.322h1.024c.965 0 1.432.586 1.432 1.263 0 .445-.227.866-.661 1.077zm1.163-1.642c0-1.527-1.081-2.522-2.538-2.522-1.432 0-2.468.995-2.468 2.522 0 1.514 1.036 2.513 2.468 2.513 1.457 0 2.538-.999 2.538-2.513m-5.583 0c0-1.75 1.374-3.01 3.046-3.01 1.697 0 3.096 1.263 3.096 3.01 0 1.725-1.399 3-3.096 3-1.671 0-3.046-1.279-3.046-3"/><path d="m-10.272 73.47v-14.51c0-1.048.656-2.815 1.869-3.289 1.238-.475 2.369.074 3.726.582 4.473 1.704 7.957-.549 8.493-3.475.545-2.926-1.387-5.736-4.313-6.277-3.595-.673-6.124.458-9.06 2.724 0 0-.004 0-.008.004-.206.161-.759.639-.957.805-.689-2.184-2.728-3.764-5.134-3.764-2.975 0-5.39 2.414-5.39 5.389v21.811z"/><path d="m-1.073 73.76c2.947 0 5.336-2.39 5.336-5.336 0-2.947-2.389-5.332-5.336-5.332s-5.336 2.385-5.336 5.332c0 2.946 2.389 5.336 5.336 5.336"/></g><g fill="#f58113"><path d="m-131.79 46.27c-3.91-.004-7.5 1.597-10.05 4.16-2.56 2.558-4.16 6.145-4.16 10.05v12.979h10.79v-12.761c0-1.551.37-2.884 1-3.912.64-1.015 1.46-1.618 2.42-1.622.96.004 1.78.607 2.42 1.622.62 1.028 1 2.361 1 3.912v12.761h10.79v-12.979c0-3.908-1.6-7.495-4.16-10.05-2.56-2.563-6.14-4.164-10.05-4.16"/><path d="m-105.97 42.771c1.09-1.085 1.76-2.583 1.76-4.242 0-1.655-.67-3.153-1.76-4.238-1.09-1.086-2.58-1.758-4.24-1.758s-3.16.672-4.24 1.758c-1.09 1.085-1.76 2.583-1.76 4.238 0 1.659.67 3.157 1.76 4.242l1.32 1.325c2.22 2.212 2.37 2.798.27 4.899l-1.21 1.205c-.98.986-1.59 2.352-1.59 3.858v19.397h10.9v-19.397c0-1.506-.61-2.872-1.59-3.858l-1.21-1.205c-2.1-2.101-1.95-2.687.27-4.899z"/><path d="m-86.64 65.01c-.64 1.172-1.461 1.87-2.422 1.87-.962 0-1.783-.698-2.419-1.87-.627-1.188-.998-2.724-1-4.519.004-1.795.375-3.33 1-4.519.636-1.176 1.457-1.869 2.419-1.873.961.004 1.782.697 2.422 1.873.462.879.788 1.952.925 3.182h10.8c-.318-3.384-1.829-6.45-4.098-8.712-2.555-2.567-6.141-4.164-10.05-4.164-3.904 0-7.495 1.597-10.05 4.164-2.566 2.555-4.166 6.141-4.156 10.05-.001 3.908 1.59 7.495 4.156 10.05 1.968 1.969 5.394 4.164 10.05 4.164 3.495 0 6.735-1.283 9.207-3.392 1.807-1.531 4.477-4.606 4.936-9.484h-10.8c-.137 1.226-.463 2.303-.925 3.182"/><path d="m-46.37 71.57c0-.363-.107-.697-.285-.982l-5.91-8.935 4.09-7.428c1.515-2.563.66-5.873-1.902-7.387-2.567-1.511-5.877-.656-7.387 1.91l-4.887 8.729v-5.819c0-2.98-2.414-5.394-5.393-5.394-2.98 0-5.398 2.414-5.398 5.394v21.798h10.791v-8.534l5.691 8.53h8.712c1.036-.004 1.878-.846 1.878-1.882"/></g></g></svg>