<svg xmlns="http://www.w3.org/2000/svg" height="85.48" width="600" viewBox="0 0 158.75 22.617669"><g transform="translate(89.98 76.41)" fill="#f58113"><path d="m68.71-56.44l-.935 1.053-.94-1.053h-.056v1.973h.352v-1.22l.614.722h.064l.608-.722v1.22h.352v-1.973zm-3.878.034v.3h.586v1.639h.354v-1.639h.591v-.3z"/><path d="m-82.37-69.03c-2.09-.003-4.01.855-5.378 2.229-1.371 1.369-2.229 3.287-2.229 5.383v6.952h5.776v-6.834c.003-.832.2-1.546.537-2.096.341-.544.78-.865 1.294-.868.516.003.955.324 1.297.868.336.55.534 1.264.537 2.096v6.834h5.773v-6.952c.003-2.096-.855-4.01-2.227-5.383-1.368-1.374-3.287-2.232-5.38-2.229"/><path d="m55.86-69.03c-2.09-.003-4.01.855-5.38 2.229-1.371 1.369-2.226 3.287-2.226 5.383v6.952h5.773v-6.834c.002-.832.203-1.546.539-2.096.339-.544.781-.865 1.294-.868.514.003.956.324 1.295.868.336.55.534 1.264.536 2.096v6.834h5.776v-6.952c0-2.096-.858-4.01-2.229-5.383-1.366-1.374-3.287-2.232-5.378-2.229"/><path d="m-68.55-70.9c.581-.581.94-1.384.94-2.27 0-.889-.359-1.693-.94-2.273-.58-.581-1.384-.94-2.27-.94s-1.687.359-2.27.94c-.581.58-.94 1.384-.94 2.273 0 .886.359 1.689.94 2.27l.709.711c1.184 1.184 1.268 1.497.144 2.622l-.645.647c-.529.53-.855 1.259-.855 2.065v10.391h5.835v-10.391c0-.806-.327-1.535-.853-2.065l-.645-.647c-1.125-1.125-1.042-1.438.139-2.624z"/><path d="m-58.2-58.988c-.341.629-.78 1-1.294 1-.516 0-.955-.373-1.297-1-.334-.634-.534-1.458-.537-2.422.003-.96.203-1.784.537-2.419.342-.629.781-.999 1.297-1 .514.005.953.375 1.294 1 .249.473.422 1.045.496 1.706h5.781c-.17-1.814-.979-3.457-2.193-4.667-1.369-1.374-3.288-2.232-5.378-2.232-2.093 0-4.01.858-5.38 2.232-1.372 1.366-2.229 3.29-2.227 5.38-.002 2.093.855 4.01 2.227 5.386 1.053 1.05 2.889 2.229 5.38 2.229 1.872 0 3.603-.688 4.928-1.818.966-.819 2.399-2.466 2.643-5.08h-5.781c-.074.657-.247 1.233-.496 1.705"/><path d="m-31.447-62.78c.103-.444.244-.837.38-1.127.257-.552.778-1 1.295-1 .521 0 .945.368 1.307 1.022.154.283.298.773.362 1.097zm1.675-6.253c-2.091-.003-4.01.855-5.378 2.229-1.372 1.366-2.229 3.29-2.229 5.383s.857 4.01 2.229 5.383c1.333 1.333 3.218 2.229 5.413 2.229 2.258 0 4.128-1.01 5.391-2.275 1.587-1.826 1.664-3.776 1.664-3.776h-5.146s-.714 1.798-1.944 1.798c-.517-.003-.953-.375-1.295-1-.231-.436-.395-.96-.477-1.556h8.965s.611-3.662-1.839-6.138c-1.425-1.44-3.241-2.278-5.354-2.275"/><path d="m22.608-62.78c.102-.444.244-.837.38-1.127.257-.552.781-1 1.294-1 .521 0 .945.368 1.305 1.022.156.283.3.773.364 1.097zm1.674-6.253c-2.09-.003-4.01.855-5.38 2.229-1.372 1.366-2.227 3.29-2.227 5.383s.855 4.01 2.227 5.383c1.335 1.333 3.22 2.229 5.416 2.229 2.258 0 4.127-1.01 5.388-2.275 1.59-1.826 1.664-3.776 1.664-3.776h-5.144s-.714 1.798-1.944 1.798c-.513-.003-.955-.375-1.294-1-.231-.436-.396-.96-.475-1.556h8.96s.614-3.662-1.834-6.138c-1.428-1.44-3.243-2.278-5.357-2.275"/><path d="m-18.871-76.41c-1.595 0-2.887 1.294-2.887 2.891l.008 19.05h5.773l-.007-19.06c0-1.595-1.295-2.886-2.887-2.886"/><path d="m-7.571-57.988c-1.01 0-1.831-1.536-1.831-3.428 0-1.893.822-3.429 1.831-3.429 1.014 0 1.834 1.536 1.834 3.429 0 1.892-.819 3.428-1.834 3.428m0-11.04c-4.202 0-7.607 3.407-7.607 7.612 0 4.204 3.405 7.612 7.607 7.612 4.204 0 7.607-3.408 7.607-7.612 0-4.205-3.403-7.612-7.607-7.612"/><path d="m39.932-57.988c-1.01 0-1.833-1.536-1.833-3.428 0-1.893.822-3.429 1.833-3.429 1.012 0 1.834 1.536 1.834 3.429 0 1.892-.822 3.428-1.834 3.428m0-11.04c-4.198 0-7.606 3.407-7.606 7.612 0 4.204 3.408 7.612 7.606 7.612 4.202 0 7.607-3.408 7.607-7.612 0-4.205-3.405-7.612-7.607-7.612"/><path d="m8.335-57.988c-1.012 0-1.834-1.536-1.834-3.428 0-1.893.822-3.429 1.834-3.429 1.012 0 1.834 1.536 1.834 3.429 0 1.892-.822 3.428-1.834 3.428m7.607-3.428l.011.007-.006-12.11c-.002-1.595-1.296-2.889-2.891-2.889-1.592.003-2.884 1.297-2.884 2.892v4.725c-.588-.146-1.205-.226-1.836-.226-2.091 0-4.01.858-5.38 2.229-1.369 1.369-2.227 3.29-2.227 5.383 0 2.091.858 4.01 2.227 5.383.878.881 2.758 2.232 5.38 2.232 2.624 0 4.505-1.351 5.38-2.232 1.371-1.369 2.226-3.29 2.226-5.383z"/><path d="m-36.54-55.47c0-.192-.057-.372-.152-.526l-3.164-4.787 2.191-3.976c.809-1.374.352-3.146-1.022-3.957-1.372-.809-3.144-.352-3.953 1.022l-2.617 4.676v-3.117c0-1.595-1.291-2.889-2.886-2.889-1.592 0-2.887 1.294-2.887 2.889v11.674h5.773v-4.571l3.049 4.571h4.661c.555-.002 1.01-.454 1.01-1.01"/></g></svg>