<svg xmlns="http://www.w3.org/2000/svg" viewBox="0 0 600 351.85"><g fill="#fff"><path d="m308.43 195.42c-.589.212-1.179.343-1.762.343-1.81.007-2.714-.727-2.714-2.625l.014-3.29-3.276.007-.014 4.072c0 1.282-.966 1.81-2.2 1.81-1.241 0-2.187-.5-2.166-1.823l.062-9.706c0-.775-1.296-.5-1.296-1.59-.007-.761.473-1.158 1.172-1.392.583-.212 1.172-.336 1.762-.336 1.782 0 2.728.733 2.735 2.618l-.021 3.064 3.276-.007.014-3.839c0-1.282.925-1.803 2.159-1.81 1.241 0 2.207.5 2.193 1.803l-.089 9.72c0 .781 1.323.507 1.323 1.597 0 .761-.507 1.158-1.172 1.385m-14.984-12.215l-3.66 10.08c-.459 1.302-1.446 2.584-3.167 2.591-1.638 0-2.776-1.131-3.174-2.577l-2.557-9.05c-.212-.802-1.405-.356-1.412-1.762 0-.61.487-1.01 1.11-1.261.651-.233 1.2-.343 1.659-.343 1.323 0 2.543.439 2.838 1.803l1.988 8.63h.13l2.714-8.719c.336-1.097.754-1.577 2.098-1.583.816 0 2.104.377 1.433 2.187m34.03 32c-.007-3.653-2.968-6.621-6.628-6.608h-1.782c-3.681-.178-6.642-2.961-6.642-6.628h.014l-.096-51.758c-.014-3.667-2.982-6.635-6.649-6.628l-12.215.02c-1.926 0-4.257 1.131-5.463 2.433-5.744 5.065-9.925 7.677-17.575 8.733-3.667.007-7.087 2.975-7.07 6.649l.007 7.574c.007 6.635 2.989 6.628 6.649 6.621l4-.007c1.837 0 2.989 1.481 2.995 3.311l.034 23.504c0 3.66-2.968 6.244-6.628 6.244l-3.708.007c-3.66.007-6.628 2.975-6.621 6.635l.021 12.427c.007 3.667 2.982 6.628 6.642 6.615l54.11-.075c3.681-.007 6.635-2.975 6.628-6.642l-.021-12.427"/><path d="m102.57 342.41c-4.874-5.724-7.19-12.16-7.204-21.15-.034-17.16 14.778-33.834 34.36-33.861 7.547 0 15.203.459 21.646 4.702 5.25 3.407 5.744 7.423 5.141 11.31-.973 6.8-2.79 8.883-10.693 9.5-4.257.37-9.733-1.076-10.953-5.833-.494-1.693-1.344-2.79-2.564-2.79-1.446.014-3.16.617-4.366 1.96-3.393 3.9-4.12 11.31-4.12 15.566.021 3.66.74 6.573 2.084 8.644 2.317 3.27 5.723 3.989 8.644 3.989 3.407-.014 6.573-1.104 10.46-3.544 3.996-2.564 8.02-1.22 10.46 2.173 2.193 3.043 1.59 6.573-1.083 9.487-3.283 3.66-11.536 9.26-25.41 9.288h-.103c-12.578 0-20.337-2.79-26.294-9.439"/><path d="m164.58 337.57l-.089-62.25c-.021-8.15 6.06-11.08 13.716-11.1 7.54-.014 13.743 2.906 13.764 11.05l.089 54.836c0 5.23 7.547 1.693 7.547 9.473.014 4.133-2.776 6.573-7.766 8.534-4.01 1.59-7.417 2.31-13 2.324-7.177.021-14.244-4.839-14.257-12.866"/><path d="m236.19 323.11l-5.71 1.96c-1.59.48-2.687 1.947-2.673 3.16v.85c0 2.317 2.07 3.516 3.893 3.516 4.75 0 6.923-2.803 6.923-5.84v-2.55c-.014-.658-.603-1.254-1.542-1.254-.274 0-.569.048-.891.158m-32.463 9.164c-.021-10.337 6.676-13.867 16.15-16.43l18.363-4.771-.014-3.05c0-2.797-1.714-4.613-4.51-4.613-3.036.014-3.64.74-4.613 3.427-1.816 5.353-6.183 5.97-11.289 5.97-6.45 0-9.987-2.426-10-9.356 0-5.353.48-8.993 10.816-12.79 5.34-1.83 12.516-3.05 16.896-3.05 20.06-.034 28.713 8.582 28.727 24.642l.027 15.669c0 2.81.617 3.66 3.784 4.62 1.816.487 3.64 2.433 3.66 5.724 0 3.887-2.18 6.32-7.04 8.76-3.413 1.823-7.896 3.057-12.283 3.057-6.203.014-10.337-3.503-11.803-8.362l-.247-.617c-4.366 7.07-12.756 9.377-17.14 9.391-13.86.021-19.46-7.636-19.487-18.219"/><path d="m277.69 342.76c-2.687-3.29-2.934-7.903-.391-10.707 3.413-3.537 8.273-3.907 11.913-.747 2.687 2.303 5.614 3.523 9.01 3.523 2.557-.021 4.38-.747 5.107-1.837.596-.973.117-2.317-1.721-3.784-2.063-1.57-6.073-2.653-11.673-5.689-5.6-3.02-12.53-7.883-12.544-17.13-.034-11.666 12.852-19.11 27.569-19.13 13.729-.014 20.07 4.476 23.36 8.596 2.687 3.283 2.687 6.45.74 9.61-2.07 3.167-7.156 4.387-11.433 1.59-2.543-1.7-5.957-2.653-8.513-2.653-1.947-.123-3.4.494-3.893 1.59-.596 1.816.617 3.16 4.634 5.086 3.777 1.947 7.787 3.276 11.57 5.34 5.23 3.02 9.733 7.656 9.747 15.676.021 7.903-7.869 19.576-27.939 19.611h-.137c-14.381 0-22.02-4.839-25.41-8.945"/><path d="m338.37 342.66c-2.68-3.283-2.927-7.896-.384-10.707 3.393-3.537 8.267-3.9 11.927-.74 2.666 2.296 5.586 3.516 8.993 3.503 2.564 0 4.387-.727 5.107-1.837.603-.973.123-2.296-1.714-3.763-2.063-1.577-6.073-2.653-11.68-5.696-5.6-3.02-12.537-7.883-12.557-17.12-.014-11.68 12.873-19.12 27.589-19.13 13.729-.034 20.07 4.469 23.36 8.596 2.666 3.263 2.68 6.443.74 9.61-2.07 3.16-7.163 4.38-11.433 1.583-2.55-1.693-5.957-2.666-8.52-2.653-1.94-.117-3.393.494-3.887 1.59-.603 1.823.617 3.153 4.627 5.093 3.784 1.947 7.793 3.27 11.57 5.34 5.23 3.02 9.74 7.636 9.754 15.676.014 7.896-7.883 19.576-27.939 19.611h-.137c-14.388 0-22.02-4.846-25.416-8.952"/><path d="m398.2 273.37c0-7.896 10.446-10.35 16.65-10.35 6.327-.014 13.14 1.926 13.14 9.459.021 8.143-8.979 9.87-15.299 9.87h-.13c-6.07 0-14.34-1.117-14.36-8.979m.589 60.2l-.048-34.423c-.014-8.267 6.416-11.06 13.716-11.08 7.177-.014 13.75 2.769 13.764 11.04l-.075 31.38c.014 4.86 8.03 3.146 8.05 9.596 0 4.503-2.564 6.807-6.683 8.164-3.537 1.097-7.177 1.714-10.953 1.714-11.296.014-17.76-4.599-17.774-16.389"/><path d="m442.1 341.89c-4.873-5.703-7.19-12.139-7.204-21.15-.034-17.14 14.778-33.813 34.36-33.847 7.547-.014 15.196.466 21.646 4.709 5.25 3.393 5.73 7.403 5.127 11.31-.96 6.8-2.783 8.87-10.679 9.487-4.257.37-9.733-1.083-10.953-5.819-.494-1.693-1.344-2.79-2.564-2.79-1.446 0-3.16.617-4.366 1.96-3.407 3.887-4.12 11.31-4.12 15.566.021 3.64.74 6.553 2.084 8.623 2.317 3.283 5.724 4.01 8.644 4.01 3.407-.014 6.573-1.11 10.46-3.544 3.996-2.564 8.02-1.241 10.46 2.173 2.187 3.043 1.59 6.56-1.083 9.487-3.283 3.66-11.536 9.26-25.41 9.274h-.206c-12.516 0-20.255-2.797-26.19-9.445"/><path d="m502.08 281.47l.048-2.577h-.075l-.823 1.741c-.137.329-.35.5-.692.5-.322 0-.535-.171-.692-.48l-.775-1.789-.075.014-.034 2.989c0 .548-.226.809-.802.809-.535 0-.768-.26-.768-.788l.048-4.428-.11-.233c-.219-.11-.398-.247-.398-.48 0-.727.966-.816 1.494-.816.596 0 1.014.247 1.309.802l1.097 2.098h.048l1.076-2.221c.247-.507.555-.679 1.097-.679.589 0 1 .233.987.85l-.014 4.353c-.014.336.603.226.603.72 0 .624-.823.823-1.302.823-.843 0-1.248-.343-1.248-1.206m-9.822.384l-.021-4.318-.459-.11-.356.034c-.171.014-.336.014-.507.014-.404 0-.665-.343-.665-.74 0-.446.308-.727.74-.727h4.675c.418 0 .727.219.727.665 0 .398-.295.802-.727.802-.171 0-.336 0-.514-.027l-.336-.021c-.199 0-.48-.041-.466.158v4.257c0 .617-.473.836-1.049.836h-.048c-.548 0-.994-.24-.994-.823"/><path d="m235.08 193.11c0 32.833 26.609 59.45 59.44 59.45s59.46-26.616 59.46-59.45-26.63-59.44-59.46-59.44c-32.833 0-59.44 26.609-59.44 59.44m-23.655 0c0-45.897 37.2-83.11 83.1-83.11 45.897 0 83.12 37.21 83.12 83.11 0 45.904-37.22 83.12-83.12 83.12-45.898 0-83.1-37.21-83.1-83.12"/></g><g fill="#f47116"><path d="m599.79 74.61l-3.514 3.972-3.575-3.972h-.214v7.456h1.344v-4.614l2.292 2.75h.244l2.322-2.75v4.614h1.314v-7.456h-.214m-14.666.153v1.1h2.231v6.203h1.314v-6.203h2.231v-1.1h-5.775"/><path d="m28.751 27.881c-7.914 0-15.15 3.239-20.319 8.433-5.193 5.163-8.432 12.404-8.432 20.318v26.28h21.816v-25.818c.031-3.147.764-5.836 2.047-7.914 1.283-2.078 2.933-3.269 4.889-3.3 1.956.031 3.606 1.222 4.889 3.3s2.02 4.767 2.047 7.914v25.819h21.815v-26.28c0-7.914-3.239-15.16-8.433-20.319-5.164-5.194-12.405-8.433-20.319-8.433"/><path d="m551.21 27.881c-7.914 0-15.15 3.239-20.319 8.433-5.194 5.164-8.433 12.405-8.433 20.319v26.28h21.847l-.034-11.52v-14.299c.031-3.147.764-5.836 2.047-7.914 1.283-2.078 2.933-3.269 4.889-3.3 1.956.031 3.606 1.222 4.889 3.3s2.02 4.767 2.047 7.914v25.819h21.794v-26.28c0-7.914-3.239-15.16-8.433-20.319-5.164-5.194-12.405-8.433-20.319-8.433"/><path d="m80.991 20.815c2.2-2.2 3.544-5.225 3.544-8.586s-1.344-6.386-3.544-8.586c-2.2-2.169-5.225-3.544-8.586-3.544-3.331 0-6.386 1.375-8.556 3.544-2.2 2.2-3.575 5.225-3.575 8.586 0 3.361 1.375 6.386 3.575 8.586l2.658 2.689c4.492 4.461 4.797 5.653.55 9.9 0 0-2.444 2.444-2.444 2.444-1.986 1.986-3.239 4.736-3.239 7.791v39.26h22.06v-39.26c0-3.056-1.222-5.806-3.208-7.791l-2.445-2.444c-4.247-4.247-3.942-5.439.519-9.9l2.689-2.689"/><path d="m120.08 65.805c-1.283 2.383-2.933 3.789-4.889 3.789-1.956 0-3.606-1.406-4.889-3.789-1.283-2.414-2.047-5.5-2.047-9.136s.764-6.753 2.047-9.136c1.283-2.383 2.933-3.789 4.889-3.789 1.956 0 3.606 1.406 4.889 3.789.947 1.772 1.589 3.942 1.864 6.417h21.847c-.642-6.844-3.697-13.05-8.28-17.63-5.164-5.164-12.405-8.403-20.319-8.403-7.914 0-15.16 3.239-20.35 8.403-5.164 5.194-8.403 12.436-8.403 20.35 0 7.914 3.239 15.15 8.403 20.319 4 4 10.939 8.433 20.35 8.433 7.089 0 13.627-2.597 18.638-6.875 3.636-3.086 9.04-9.319 9.961-19.19h-21.847c-.275 2.505-.917 4.675-1.864 6.447"/><path d="m227.56 27.869c-7.914 0-15.16 3.239-20.319 8.433-5.194 5.164-8.433 12.405-8.433 20.319 0 7.914 3.239 15.16 8.433 20.319 5.04 5.04 12.161 8.433 20.441 8.433 8.555 0 15.613-3.819 20.38-8.586 6.02-6.906 6.294-14.269 6.294-14.269h-19.463s-2.689 6.783-7.333 6.783c-1.956 0-3.606-1.406-4.889-3.789-.886-1.65-1.497-3.605-1.803-5.867h33.886s2.292-13.841-6.967-23.19c-5.378-5.439-12.253-8.586-20.227-8.586m-6.339 23.62c.397-1.681.917-3.147 1.436-4.247.978-2.108 2.933-3.789 4.889-3.789 1.956 0 3.575 1.375 4.95 3.85.581 1.069 1.1 2.933 1.344 4.156l-12.62.031z"/><path d="m431.85 27.869c-7.914 0-15.15 3.239-20.319 8.433-5.194 5.164-8.433 12.405-8.433 20.319 0 7.914 3.239 15.16 8.433 20.319 5.04 5.04 12.161 8.433 20.441 8.433 8.555 0 15.613-3.819 20.38-8.586 6.02-6.906 6.294-14.269 6.294-14.269h-19.463s-2.689 6.783-7.333 6.783c-1.955 0-3.606-1.406-4.889-3.789-.886-1.65-1.497-3.605-1.803-5.867h33.886s2.322-13.841-6.967-23.19c-5.378-5.439-12.253-8.586-20.227-8.586m-6.325 23.62c.397-1.681.917-3.147 1.436-4.247.978-2.108 2.933-3.789 4.889-3.789 1.955 0 3.575 1.375 4.95 3.85.581 1.069 1.1 2.933 1.344 4.156l-12.62.031z"/><path d="m268.75 0c-6.05 0-10.908 4.889-10.908 10.908l.031 71.989h21.816l-.034-71.989c0-6.02-4.89-10.908-10.91-10.908"/><path d="m311.45 27.881c-15.889 0-28.753 12.864-28.753 28.753s12.864 28.753 28.753 28.753 28.753-12.864 28.753-28.753-12.864-28.753-28.753-28.753m0 41.707c-3.819 0-6.936-5.806-6.936-12.956 0-7.15 3.117-12.956 6.936-12.956s6.936 5.806 6.936 12.956c0 7.15-3.117 12.956-6.936 12.956"/><path d="m491 27.875c-15.89 0-28.75 12.861-28.75 28.75s12.86 28.75 28.75 28.75 28.75-12.861 28.75-28.75-12.86-28.75-28.75-28.75m0 15.813c3.82 0 6.94 5.787 6.94 12.937s-3.12 12.969-6.94 12.969-6.94-5.819-6.94-12.969 3.12-12.937 6.94-12.937"/><path d="m389.44.031c-6.02 0-10.91 4.856-10.91 10.907v17.843c-2.23-.55-4.55-.875-6.94-.875-7.91 0-15.18 3.243-20.34 8.438-5.19 5.164-8.44 12.398-8.44 20.312 0 7.883 3.25 15.18 8.44 20.344 3.3 3.331 10.44 8.406 20.34 8.406 9.93 0 17.02-5.075 20.32-8.406 5.19-5.164 8.43-12.46 8.43-20.344v-.031l.07.031-.03-45.75c-.04-6.02-4.92-10.905-10.94-10.875m-17.85 43.657c3.82 0 6.94 5.787 6.94 12.937s-3.12 12.969-6.94 12.969-6.9-5.819-6.9-12.969 3.08-12.937 6.9-12.937"/><path d="m201.96 79.08c0-.733-.214-1.406-.581-1.986l-11.95-18.09 8.28-15c3.055-5.194 1.344-11.887-3.85-14.972-5.194-3.055-11.887-1.314-14.941 3.881l-9.9 17.661v-11.796c0-6.02-4.889-10.908-10.908-10.908-6.02 0-10.908 4.889-10.908 10.908v44.12h21.816v-17.264l11.519 17.264 17.63-.031c2.078 0 3.789-1.681 3.789-3.789"/></g></svg>