<svg xmlns="http://www.w3.org/2000/svg" enable-background="new 0 0 467 97" height="125.92" viewBox="0 0 600 125.92347"><g fill="#f57c14"><path d="m42.44 40.997c-11.673-.012-22.374 4.78-30.01 12.431-7.65 7.626-12.43 18.339-12.43 30.01v38.768h32.22v-16.97-21.14c.011-4.648 1.117-8.611 2.99-11.686 1.898-3.038 4.36-4.828 7.23-4.84 2.87.012 5.332 1.802 7.23 4.84 1.874 3.075 2.978 7.04 2.99 11.686v38.11h32.22v-38.768c0-11.674-4.78-22.387-12.43-30.01-7.639-7.652-18.34-12.444-30.01-12.432"/><path d="m119.55 30.565c3.243-3.243 5.248-7.722 5.248-12.671 0-4.948-2.01-9.416-5.248-12.659-3.24-3.241-7.72-5.235-12.67-5.235-4.93 0-9.412 1.994-12.654 5.236-3.243 3.243-5.248 7.71-5.248 12.659 0 4.948 2.01 9.428 5.248 12.671l3.951 3.963c6.606 6.593 7.07 8.347.793 14.628l-3.591 3.591c-2.954 2.954-4.768 7.03-4.768 11.518v57.936h32.559v-57.936c0-4.492-1.826-8.563-4.768-11.518l-3.591-3.591c-6.281-6.281-5.813-8.03.793-14.64l3.951-3.951z"/><path d="m177.27 96.98c-1.91 3.507-4.36 5.585-7.23 5.585s-5.32-2.078-7.23-5.585c-1.874-3.543-2.978-8.131-2.99-13.499.011-5.356 1.117-9.944 2.99-13.499 1.91-3.495 4.36-5.573 7.23-5.585 2.87.012 5.32 2.09 7.23 5.585 1.393 2.642 2.354 5.837 2.762 9.512h32.26c-.949-10.1-5.465-19.264-12.238-26.03-7.638-7.65-18.351-12.43-30.01-12.43s-22.375 4.78-30.01 12.43c-7.65 7.638-12.442 18.351-12.43 30.01-.011 11.674 4.78 22.387 12.43 30.01 5.885 5.873 16.12 12.442 30.01 12.43 10.449.012 20.12-3.831 27.503-10.124 5.393-4.576 13.379-13.751 14.748-28.332h-32.26c-.408 3.675-1.369 6.882-2.762 9.512"/><path d="m297.52 116.57c0-1.081-.324-2.078-.853-2.93l-17.64-26.684 12.21-22.18c4.516-7.662 1.97-17.535-5.693-22.05-7.662-4.516-17.535-1.97-22.06 5.693l-14.58 26.07v-17.378c0-8.899-7.218-16.12-16.12-16.12-8.887 0-16.1 7.218-16.1 16.12v65.09h32.22v-25.485l16.994 25.473 26.01-.012c3.099 0 5.609-2.51 5.609-5.609"/></g><g fill="#4ac3cb"><path d="m365.2 92.93c0 19.636-9.56 32.32-32.523 32.32h-.889c-8.02 0-16.43-2.126-21.678-5.501-9.116-5.873-15.06-15.517-9.06-25.701 5.561-9.452 25.04-11.193 27.923 5.248 1.01 5.753 4.059 5.01 4.059-.3l.011-39.12c0-11.686 7.218-18.88 16.11-18.88 8.887.012 16.09 7.206 16.09 16.09l-.048 35.838zm-16.05-56.988c8.803 0 15.925-7.134 15.925-15.937 0-8.803-7.122-15.925-15.925-15.925-8.803 0-15.937 7.122-15.937 15.925 0 8.803 7.134 15.937 15.937 15.937"/><path d="m405.34 122.23v-43.33c0-3.135 1.958-8.407 5.585-9.812 3.699-1.429 7.07.216 11.133 1.729 13.355 5.092 23.756-1.645 25.365-10.377 1.621-8.731-4.155-17.13-12.887-18.748-10.725-2.01-18.291 1.369-27.06 8.131-.011 0-.011.012-.024.012-.625.48-2.282 1.922-2.858 2.402-2.066-6.509-8.155-11.229-15.337-11.229-8.887 0-16.09 7.206-16.09 16.08v65.14h32.18z"/><path d="m432.81 123.1c8.803 0 15.925-7.134 15.925-15.937 0-8.803-7.122-15.925-15.925-15.925-8.791 0-15.937 7.122-15.937 15.925 0 8.803 7.146 15.937 15.937 15.937"/></g><g fill="#fff" transform="matrix(1.69628 0 0 1.69628-316.76-22.08)"><path d="m493.34 77.26v-14.264h-13.307v14.264h-8.234v-34.1h8.234v12.909h13.307v-12.909h8.234v34.1h-8.234"/><path d="m531.88 60.11c0-1.939-.319-3.533-.93-4.781-.637-1.275-1.461-2.284-2.523-3.054-1.036-.744-2.231-1.275-3.559-1.594-1.328-.345-2.709-.505-4.117-.505h-4.09v19.947h3.904c1.461 0 2.895-.159 4.25-.505 1.381-.345 2.576-.877 3.612-1.647 1.063-.797 1.886-1.806 2.523-3.081.611-1.301.93-2.895.93-4.781m8.579 0c0 3-.558 5.551-1.673 7.729-1.116 2.178-2.576 3.957-4.383 5.339-1.806 1.408-3.851 2.444-6.136 3.108-2.284.637-4.595.983-6.932.983h-12.722v-34.1h12.325c2.417 0 4.781.266 7.145.823 2.337.558 4.436 1.514 6.242 2.816 1.833 1.275 3.32 3.03 4.436 5.206 1.142 2.205 1.7 4.887 1.7 8.101"/><g color="#000"><path d="m471.27 33.569v7.088h67.771v-7.088h-67.771"/><path d="m471.27 80.14v7.088h67.771v-7.088h-67.771"/></g></g></svg>