<svg xmlns="http://www.w3.org/2000/svg" height="79.11" width="600" viewBox="0 0 158.75 20.930652"><g transform="translate(99.81 116.42)" fill="#f58113"><path d="m-92.77-109.59c-1.935 0-3.711.79-4.976 2.07-1.27 1.26-2.064 3.04-2.064 4.98v6.431h5.348l-.003-2.815v-3.506c.003-.77.188-1.43.497-1.94.316-.51.723-.81 1.198-.81.478 0 .885.3 1.199.81s.497 1.17.497 1.94v6.321h5.345v-6.431c.002-1.94-.792-3.72-2.062-4.98-1.265-1.28-3.041-2.07-4.979-2.07"/><path d="m35.16-109.59c-1.935 0-3.714.79-4.979 2.07-1.269 1.26-2.061 3.04-2.061 4.98v6.431h5.345v-6.321c0-.77.185-1.43.497-1.94.314-.51.723-.81 1.198-.81.476 0 .885.3 1.198.81.312.51.495 1.17.497 1.94v6.321h5.345v-6.431c0-1.94-.794-3.72-2.063-4.98-1.265-1.28-3.041-2.07-4.977-2.07"/><path d="m-79.977-111.32c.537-.54.87-1.28.87-2.1s-.333-1.57-.87-2.1c-.537-.54-1.282-.87-2.102-.87s-1.562.33-2.099.87c-.538.53-.871 1.28-.871 2.1s.333 1.56.871 2.1l.656.66c1.094 1.09 1.172 1.38.131 2.43l-.597.59c-.488.49-.789 1.17-.789 1.91v9.622h5.399v-9.622c0-.74-.302-1.42-.789-1.91l-.597-.59c-1.041-1.05-.963-1.34.131-2.43z"/><path d="m-70.4-100.3c-.316.587-.723.932-1.199.932-.478 0-.884-.345-1.198-.932-.311-.58-.497-1.35-.497-2.24s.186-1.65.497-2.24c.314-.58.72-.92 1.198-.92.476 0 .883.34 1.199.92.23.44.39.97.459 1.58h5.349c-.157-1.67-.905-3.2-2.028-4.32-1.267-1.27-3.043-2.06-4.979-2.06-1.935 0-3.714.79-4.978 2.06-1.27 1.27-2.064 3.05-2.062 4.98-.002 1.94.792 3.719 2.062 4.986.974.975 2.672 2.064 4.978 2.064 1.734 0 3.336-.637 4.561-1.681.896-.759 2.221-2.285 2.446-4.699h-5.349c-.069.6-.229 1.14-.459 1.57"/><path d="m-45.64-103.8c.096-.42.226-.78.352-1.05.238-.51.721-.92 1.199-.93.482.001.875.35 1.21.95.143.26.273.72.335 1.02zm1.551-5.79c-1.936 0-3.712.79-4.977 2.06-1.272 1.27-2.066 3.05-2.064 4.98-.002 1.94.792 3.717 2.064 4.984 1.232 1.234 2.977 2.064 5.01 2.064 2.09 0 3.82-.934 4.99-2.107 1.47-1.69 1.539-3.491 1.539-3.491h-4.763s-.661 1.663-1.797 1.663c-.478-.002-.885-.347-1.199-.933-.214-.4-.366-.89-.442-1.44h8.298s.566-3.39-1.702-5.68c-1.32-1.33-2.999-2.1-4.955-2.1"/><path d="m4.389-103.8c.095-.42.226-.78.352-1.05.238-.51.723-.92 1.198-.93.483.001.873.35 1.208.95.145.26.276.72.338 1.02zm1.55-5.79c-1.933 0-3.712.79-4.979 2.06-1.27 1.27-2.064 3.05-2.064 4.98 0 1.94.794 3.717 2.064 4.984 1.234 1.234 2.979 2.064 5.01 2.064 2.09 0 3.821-.934 4.989-2.107 1.472-1.69 1.54-3.491 1.54-3.491h-4.762s-.659 1.663-1.798 1.663c-.476-.002-.885-.347-1.198-.933-.214-.4-.364-.89-.44-1.44h8.294s.568-3.39-1.698-5.68c-1.322-1.33-3-2.1-4.957-2.1"/><path d="m-34-116.42c-1.477 0-2.673 1.2-2.673 2.67l.007 17.642 5.345-.002-.007-17.64c0-1.47-1.198-2.67-2.672-2.67"/><path d="m-23.542-99.37c-.935 0-1.695-1.42-1.695-3.17 0-1.76.76-3.18 1.695-3.18.937 0 1.695 1.42 1.695 3.18 0 1.75-.758 3.17-1.695 3.17m0-10.22c-3.89 0-7.04 3.16-7.04 7.05 0 3.888 3.15 7.04 7.04 7.04s7.04-3.153 7.04-7.04c0-3.89-3.15-7.05-7.04-7.05"/><path d="m20.424-99.37c-.937 0-1.696-1.42-1.696-3.17 0-1.76.759-3.18 1.696-3.18.936 0 1.695 1.42 1.695 3.18 0 1.75-.759 3.17-1.695 3.17m0-10.22c-3.888 0-7.04 3.16-7.04 7.05 0 3.888 3.153 7.04 7.04 7.04 3.889 0 7.04-3.153 7.04-7.04 0-3.89-3.151-7.05-7.04-7.05"/><path d="m-8.82-99.37c-.937 0-1.695-1.42-1.695-3.17 0-1.76.758-3.18 1.695-3.18s1.698 1.42 1.698 3.18c0 1.75-.761 3.17-1.698 3.17m7.04-3.17l-.004-11.21c-.002-1.47-1.201-2.67-2.675-2.67-1.477 0-2.67 1.2-2.67 2.67v4.38c-.547-.14-1.115-.21-1.7-.21-1.935 0-3.711.79-4.979 2.06-1.267 1.27-2.061 3.05-2.061 4.98 0 1.94.794 3.719 2.061 4.984v.003c.811.813 2.554 2.063 4.979 2.063 2.43 0 4.168-1.25 4.979-2.063 1.27-1.268 2.062-3.047 2.062-4.987z"/><path d="m-50.35-97.04c0-.178-.052-.345-.14-.487l-2.929-4.43 2.028-3.68c.749-1.27.326-2.91-.944-3.66-1.272-.75-2.91-.33-3.659.94l-2.423 4.33v-2.89c0-1.47-1.196-2.67-2.67-2.67s-2.673 1.2-2.673 2.67v10.811h5.343v-4.231l2.822 4.231 4.313-.002c.514 0 .932-.418.932-.932"/><path d="m47.27-97.53v-2.725h-2.687v-2.54h2.687v-2.72h2.549v2.72h2.672v2.54h-2.672v2.725z"/><path d="m54.601-96.11v-9.812h-1.793v-3.75h6.132v13.562z"/></g></svg>