<svg xmlns="http://www.w3.org/2000/svg" viewBox="0 0 625 107"><g transform="translate(-214.47-340.04)"><g fill="#f57c14"><path d="m363.62 421.65c-1.613 2.948-3.654 4.687-6.098 4.712-2.394-.025-4.46-1.764-6.073-4.712-1.587-2.999-2.495-6.854-2.495-11.364 0-4.511.907-8.366 2.495-11.339 1.613-2.948 3.679-4.687 6.073-4.712 2.444.025 4.485 1.764 6.098 4.712 1.184 2.217 1.991 4.914 2.343 7.988h27.11c-.781-8.492-4.586-16.203-10.281-21.897-6.426-6.426-15.447-10.457-25.27-10.457-9.802 0-18.823 4.03-25.22 10.457-6.451 6.426-10.483 15.447-10.457 25.25-.025 9.827 4.01 18.823 10.457 25.25 0 .025 0 .05 0 .05 6.4 6.451 15.421 10.483 25.22 10.457 9.827.025 18.848-4.01 25.27-10.457 0 0-.025-.025 0-.05 5.695-5.67 9.5-13.38 10.281-21.897h-27.11c-.353 3.099-1.159 5.796-2.343 8.01"/><path d="m250.18 374.54c-9.802 0-18.848 4.01-25.25 10.457-6.451 6.4-10.457 15.447-10.457 25.25v32.808h27.11v-14.464-17.79c0-3.906.932-7.232 2.52-9.827 1.588-2.57 3.654-4.057 6.073-4.057 2.419 0 4.485 1.487 6.073 4.057 1.587 2.595 2.52 5.922 2.52 9.827v32.25h27.11v-32.808c0-9.802-4.01-18.848-10.457-25.25-6.4-6.451-15.447-10.457-25.25-10.457"/><path d="m459.5 394.55c3.805-6.451 1.663-14.741-4.788-18.546-6.451-3.83-14.766-1.688-18.571 4.788l-12.272 21.923v-14.615c0-7.484-6.05-13.557-13.557-13.557-7.484 0-13.557 6.073-13.557 13.557v54.958h27.11v-21.62l14.363 22.07h22.376c3.981 0 5.821-3.981 2.57-8.87l-13.96-21.419z"/><path d="m315.06 365.77c2.747-2.721 4.41-6.501 4.41-10.659 0-4.158-1.663-7.937-4.41-10.659-2.721-2.721-6.501-4.41-10.659-4.41-4.158 0-7.937 1.688-10.634 4.435-2.747 2.696-4.435 6.476-4.435 10.634 0 4.158 1.688 7.937 4.435 10.659l3.301 3.326c5.569 5.569 5.972 7.03.68 12.322l-3.02 3.02c-2.495 2.469-4.01 5.896-4.01 9.676v48.935h27.391v-48.935c0-3.78-1.537-7.207-4.01-9.676l-3.02-3.02c-5.292-5.266-4.914-6.753.655-12.322z"/></g><g fill="#449de8"><path d="m521.81 374.53h-42.51c-7.484 0-13.557 6.073-13.532 13.557 0 7.509 6.073 13.557 13.557 13.557h7.66l.025 41.35 27.11-.025-.025-41.33h7.686c7.484 0 13.557-6.05 13.557-13.557.025-7.484-6.05-13.557-13.532-13.557"/><path d="m798.2 405.11c-10.205-4.536-15.573-6.224-15.749-9.903-.151-3.276 3.402-3.906 4.636-3.906 7.207 0 7.736 7.282 7.736 8.971h21.948c0-12.473-11.238-25.324-30.465-25.324-16.505 0-27.693 11.238-27.693 21.923 0 4.01 1.839 12.07 19.68 20.01 10.205 4.536 15.598 6.224 15.749 9.928.176 3.276-3.377 4.208-4.636 4.208-7.182 0-7.736-7.635-7.736-9.298h-21.948c0 12.473 11.238 25.324 30.465 25.324 16.505 0 27.693-11.264 27.693-21.923 0-4.03-1.839-12.1-19.68-20.01"/><path d="m743.68 385.1c-6.426-6.451-15.472-10.483-25.299-10.457-9.827-.025-18.848 4.01-25.299 10.457-6.426 6.426-10.457 15.447-10.457 25.299v32.657h27.16v-14.287-17.815c0-3.906.932-7.257 2.495-9.853 1.613-2.57 3.704-4.057 6.098-4.082 2.444.025 4.485 1.512 6.098 4.082 1.587 2.595 2.52 5.947 2.52 9.853v32.1h27.14v-32.657c.025-9.853-4.01-18.874-10.457-25.299"/><path d="m649.59 421.79c-1.613 2.948-3.654 4.712-6.098 4.712-2.394 0-4.485-1.764-6.073-4.712-1.587-2.999-2.52-6.854-2.52-11.364 0-4.536.932-8.391 2.52-11.39 1.587-2.948 3.679-4.712 6.073-4.712 2.444 0 4.485 1.764 6.098 4.712 1.587 2.999 2.495 6.854 2.52 11.39-.025 4.511-.932 8.366-2.52 11.364m19.2-36.664c-6.426-6.476-15.472-10.483-25.299-10.483-9.827 0-18.848 4.01-25.299 10.483-6.426 6.426-10.457 15.447-10.457 25.299 0 9.827 4.03 18.848 10.457 25.27h.025-.025c.605.605 2.041 1.865 2.117 1.915 6.199 5.317 14.388 8.593 23.18 8.567 8.819.025 16.984-3.225 23.21-8.517.076-.101 1.487-1.386 2.091-1.965 6.451-6.426 10.483-15.447 10.483-25.27 0-9.853-4.03-18.874-10.483-25.299"/><path d="m575.96 421.79c-1.613 2.948-3.654 4.712-6.098 4.712-2.394 0-4.485-1.764-6.098-4.712-1.562-2.999-2.495-6.854-2.495-11.364 0-4.536.932-8.391 2.495-11.39 1.613-2.948 3.704-4.712 6.098-4.712 2.444 0 4.485 1.764 6.098 4.712 1.587 2.999 2.52 6.854 2.52 11.39 0 4.511-.932 8.366-2.52 11.364m19.2-36.664c-6.426-6.476-15.472-10.483-25.299-10.483-9.827 0-18.848 4.01-25.299 10.483-6.426 6.426-10.457 15.447-10.457 25.299 0 9.827 4.03 18.848 10.457 25.27h.025-.025c.605.605 2.041 1.865 2.117 1.915 6.199 5.317 14.388 8.593 23.18 8.567 8.819.025 16.984-3.225 23.21-8.517.076-.101 1.512-1.386 2.091-1.965 6.451-6.426 10.483-15.447 10.483-25.27 0-9.853-4.03-18.874-10.483-25.299"/><path d="m830.12 376.8h.277l4.41 4.939 4.385-4.939h.277v9.273h-1.663v-5.745l-2.847 3.402h-.302l-2.873-3.402v5.745h-1.663zm-6.375 1.562h-2.772v-1.411h7.182v1.411h-2.747v7.711h-1.663z"/></g></g></svg>