<svg xmlns="http://www.w3.org/2000/svg" height="355.79" width="600" viewBox="0 0 158.75 94.135202"><g fill="#f58113"><path d="m158.69 19.976l-.93 1.053-.94-1.053h-.06v1.973h.35v-1.22l.62.722h.06l.61-.722v1.22h.35v-1.973zm-3.88.034v.3h.59v1.639h.35v-1.639h.59v-.3z"/><path d="m7.607 7.384c-2.09-.003-4.01.855-5.378 2.229-1.371 1.369-2.229 3.287-2.229 5.383v6.952h5.776v-6.834c.003-.832.2-1.546.537-2.096.341-.544.78-.865 1.294-.868.516.003.955.324 1.297.868.336.55.534 1.264.537 2.096v6.834h5.773v-6.952c.003-2.096-.855-4.01-2.227-5.383-1.368-1.374-3.287-2.232-5.38-2.229"/><path d="m145.84 7.384c-2.09-.003-4.01.855-5.38 2.229-1.37 1.369-2.23 3.287-2.23 5.383v6.952h5.77v-6.834c.001-.832.21-1.546.54-2.096.34-.544.78-.865 1.3-.868.51.003.95.324 1.29.868.34.55.54 1.264.54 2.096v6.834h5.77v-6.952c0-2.096-.85-4.01-2.22-5.383-1.37-1.374-3.29-2.232-5.38-2.229"/><path d="m21.429 5.512c.581-.581.94-1.384.94-2.27 0-.889-.359-1.693-.94-2.273-.58-.581-1.384-.94-2.27-.94s-1.687.359-2.27.94c-.581.58-.94 1.384-.94 2.273 0 .886.359 1.689.94 2.27l.709.711c1.184 1.184 1.268 1.497.144 2.622l-.645.647c-.529.53-.855 1.259-.855 2.065v10.391h5.835v-10.391c0-.806-.327-1.535-.853-2.065l-.645-.647c-1.125-1.125-1.042-1.438.139-2.624z"/><path d="m31.773 17.424c-.341.629-.78 1-1.294 1-.516 0-.955-.373-1.297-1-.334-.634-.534-1.458-.537-2.422.003-.96.203-1.784.537-2.419.342-.629.781-.999 1.297-1 .514.005.953.375 1.294 1 .249.473.422 1.045.496 1.706h5.781c-.17-1.814-.979-3.457-2.193-4.667-1.369-1.374-3.288-2.232-5.378-2.232-2.093 0-4.01.858-5.38 2.232-1.372 1.366-2.229 3.29-2.227 5.38-.002 2.093.855 4.01 2.227 5.386 1.053 1.05 2.889 2.229 5.38 2.229 1.872 0 3.603-.688 4.928-1.818.966-.819 2.399-2.466 2.643-5.08h-5.781c-.074.657-.247 1.233-.496 1.705"/><path d="m58.53 13.632c.103-.444.244-.837.38-1.127.257-.552.778-1 1.295-1 .521 0 .945.368 1.307 1.022.154.283.298.773.362 1.097zm1.675-6.253c-2.091-.003-4.01.855-5.378 2.229-1.372 1.366-2.229 3.29-2.229 5.383s.857 4.01 2.229 5.383c1.333 1.333 3.218 2.229 5.413 2.229 2.258 0 4.128-1.01 5.391-2.275 1.587-1.826 1.664-3.776 1.664-3.776h-5.146s-.714 1.798-1.944 1.798c-.517-.003-.953-.375-1.295-1-.231-.436-.395-.96-.477-1.556h8.965s.611-3.662-1.839-6.138c-1.425-1.44-3.241-2.278-5.354-2.275"/><path d="m112.59 13.632c.1-.444.24-.837.38-1.127.25-.552.78-1 1.29-1 .52 0 .94.368 1.3 1.022.16.283.3.773.37 1.097zm1.67-6.253c-2.09-.003-4.01.855-5.38 2.229-1.37 1.366-2.23 3.29-2.23 5.383s.86 4.01 2.23 5.383c1.33 1.333 3.22 2.229 5.42 2.229 2.25 0 4.12-1.01 5.38-2.275 1.59-1.826 1.67-3.776 1.67-3.776h-5.15s-.71 1.798-1.94 1.798c-.51-.003-.96-.375-1.29-1-.24-.436-.4-.96-.48-1.556h8.96s.61-3.662-1.83-6.138c-1.43-1.44-3.25-2.278-5.36-2.275"/><path d="m71.11.002c-1.595 0-2.887 1.294-2.887 2.891l.008 19.05h5.773l-.007-19.06c0-1.595-1.295-2.886-2.887-2.886"/><path d="m82.41 18.424c-1.01 0-1.831-1.536-1.831-3.428 0-1.893.821-3.429 1.831-3.429 1.014 0 1.833 1.536 1.833 3.429 0 1.892-.819 3.428-1.833 3.428m0-11.04c-4.202 0-7.607 3.407-7.607 7.612 0 4.204 3.405 7.612 7.607 7.612 4.204 0 7.607-3.408 7.607-7.612 0-4.205-3.403-7.612-7.607-7.612"/><path d="m129.91 18.424c-1.01 0-1.83-1.536-1.83-3.428 0-1.893.82-3.429 1.83-3.429s1.83 1.536 1.83 3.429c0 1.892-.82 3.428-1.83 3.428m0-11.04c-4.2 0-7.61 3.407-7.61 7.612 0 4.204 3.41 7.612 7.61 7.612s7.61-3.408 7.61-7.612c0-4.205-3.41-7.612-7.61-7.612"/><path d="m98.31 18.424c-1.012 0-1.834-1.536-1.834-3.428 0-1.893.822-3.429 1.834-3.429 1.01 0 1.837 1.536 1.837 3.429 0 1.892-.826 3.428-1.837 3.428m7.607-3.428l.001.007-.001-12.11c0-1.595-1.29-2.889-2.89-2.889-1.59.003-2.88 1.297-2.88 2.892v4.725c-.589-.146-1.206-.226-1.837-.226-2.091 0-4.01.858-5.381 2.229-1.369 1.369-2.226 3.29-2.226 5.383 0 2.091.857 4.01 2.226 5.383.879.881 2.758 2.232 5.381 2.232 2.627 0 4.507-1.351 5.377-2.232 1.37-1.369 2.23-3.29 2.23-5.383z"/><path d="m53.44 20.938c0-.192-.057-.372-.152-.526l-3.164-4.787 2.191-3.976c.809-1.374.352-3.146-1.022-3.957-1.372-.809-3.144-.352-3.953 1.022l-2.617 4.676v-3.117c0-1.595-1.291-2.889-2.886-2.889-1.592 0-2.887 1.294-2.887 2.889v11.674h5.773v-4.571l3.049 4.571h4.661c.555-.002 1.01-.454 1.01-1.01"/></g><g stroke-width=".265" fill="#fff"><path d="m151.82 45.518v.661l.96-.005v2.712h.74v-2.712h.96v-.656z"/><path d="m157.63 45.518l-.77 2.196h-.001l-.78-2.196h-1.12v3.363h.74v-2.577h.001l.85 2.577h.57l.88-2.577h.001v2.577h.74v-3.363z"/><path d="m21.16 32.429c-1.651 0-13.06-.127-17.458 8.109-1.527 2.808-1.589 5.488-1.589 6.673-.058 4.802 2.383 7.734 3.727 8.922 2.072 1.871 5.251 3.365 11.168 4.551 3.849.812 6.595 1.188 8.119 1.746 1.278.439 1.77.998 2.075 1.625.063.187.307.561.307 1.058 0 2.18-2.689 3.371-6.534 3.371-2.991 0-7.506-.937-9.949-3.12-.609-.497-1.161-1.182-2.076-2.683l-8.955 8.647c.901 1.035 1.83 1.924 3.099 2.892 5.124 3.932 11.11 4.993 17.395 4.993 1.831 0 9.1.124 14.65-4.056 1.625-1.231 4.633-4.03 5.456-8.935v27.913l12.332-12.692v-6.292c.381.709.995 1.363 1.418 1.672.657.45 1.273.871 1.961 1.125l18.531-19.302c-.875-7.609-4.947-13.93-13.612-13.93-3.599 0-5.977 1.185-7.142 2.119-.365.249-.608.5-1.217 1.252v-2.498h-12.271v15.426c-1.162-6.689-6.721-8.719-9.118-9.496-4.273-1.44-8.303-2-9.831-2.249-1.157-.188-3.723-.686-4.818-1.374-.616-.436-1.103-1.182-1.103-1.995 0-1.497 1.467-2.182 1.712-2.309 1.279-.561 2.93-.561 3.232-.561 3.236 0 7.572.688 10.07 3.058.368.31.674.686 1.222 1.434l8.094-7.821c-.905-.931-1.643-1.688-2.786-2.534-6.162-4.617-13.914-4.739-16.11-4.739m36.773 21.95c.611 0 2.256.241 3.352 1.68 1.225 1.614 1.349 4.074 1.349 5.987 0 2.284-.307 5.276-2.566 6.657-1.037.598-1.889.657-2.44.657-.428 0-1.222 0-2.198-.538-2.445-1.317-2.625-4.492-2.625-6.889 0-2.464.124-5.575 2.685-6.956.977-.54 1.958-.598 2.443-.598"/><path d="m87.46 45.33l-12.579 13.163v19.407h12.579z"/><path d="m81.16 45.24c3.469 0 6.282-2.876 6.282-6.424 0-3.546-2.813-6.416-6.282-6.416-3.468 0-6.284 2.87-6.284 6.416 0 3.548 2.816 6.424 6.284 6.424"/><path d="m102.77 68.857l3.3-3.244 6.84 12.29h14.34l-3.69-6.072-.49-.797-8.39-13.777 12.02-11.67h-15.32l-8.61 9.236v-25.326l-12.571 13.08v35.32h12.571z"/><path d="m137.33 44.772c-1.7 0-7.74.296-12.08 4.548-1.75 1.738-4.62 5.688-4.62 12.09 0 3.276.79 6.422 2.31 9.1l.46.765c1.61 2.497 3.9 4.529 6.84 5.765 2.28.96 4.68 1.318 7.2 1.318s4.93-.358 7.21-1.318c4.53-1.902 7.53-5.678 8.85-10.176h-10.88c-.58 1.223-1.84 2.826-4.55 2.776l-.04-.022c-3.22.056-4.72-2.217-5.13-3.413-.3-.957-.3-2.397-.3-2.397h21.48c0-2.815-.06-5.448-.88-8.144-.64-2.095-1.76-4.13-3.22-5.749-4.39-4.85-10.6-5.146-12.65-5.146m.23 7.842c.94 0 3.16.357 3.98 2.934.24.778.24 1.376.3 1.736h-9.12c.11-.659.41-3.175 2.63-4.191.36-.18 1.27-.421 2.21-.479"/></g></svg>