<svg xmlns="http://www.w3.org/2000/svg" viewBox="0 0 600 406.54"><g transform="translate(793.89 204.11)"><g fill="#f47116"><path d="m-194.1-129.5l-3.514 3.972-3.575-3.972h-.214v7.455h1.344v-4.614l2.292 2.75h.244l2.322-2.75v4.614h1.314v-7.455h-.214m-14.666.153v1.1h2.231v6.203h1.314v-6.203h2.231v-1.1h-5.775"/><path d="m-765.13-176.24c-7.914 0-15.15 3.239-20.319 8.433-5.194 5.164-8.433 12.405-8.433 20.319v26.28h21.816v-11.519-14.3c.031-3.147.764-5.836 2.047-7.914 1.283-2.078 2.933-3.269 4.889-3.3 1.956.031 3.605 1.222 4.889 3.3 1.283 2.078 2.02 4.767 2.047 7.914v25.819h21.816v-26.28c0-7.914-3.239-15.16-8.433-20.319-5.164-5.194-12.405-8.433-20.319-8.433"/><path d="m-242.69-176.24c-7.914 0-15.15 3.239-20.319 8.433-5.194 5.164-8.433 12.405-8.433 20.319v26.28h21.847l-.031-11.519v-14.3c.031-3.147.764-5.836 2.047-7.914 1.283-2.078 2.933-3.269 4.889-3.3 1.956.031 3.606 1.222 4.889 3.3s2.02 4.767 2.047 7.914v25.819h21.816v-26.28c0-7.914-3.239-15.16-8.433-20.319-5.164-5.194-12.405-8.433-20.319-8.433"/><path d="m-712.89-183.3c2.2-2.2 3.544-5.225 3.544-8.586s-1.344-6.386-3.544-8.586c-2.2-2.169-5.225-3.544-8.586-3.544-3.33 0-6.386 1.375-8.555 3.544-2.2 2.2-3.575 5.225-3.575 8.586s1.375 6.386 3.575 8.586l2.658 2.689c4.492 4.461 4.797 5.653.55 9.9 0 0-2.444 2.444-2.444 2.444-1.986 1.986-3.239 4.736-3.239 7.792v39.26h22.06v-39.26c0-3.055-1.222-5.805-3.208-7.792l-2.444-2.444c-4.247-4.247-3.942-5.439.519-9.9l2.689-2.689"/><path d="m-673.8-138.31c-1.283 2.383-2.933 3.789-4.889 3.789-1.956 0-3.606-1.405-4.889-3.789-1.283-2.414-2.047-5.5-2.047-9.136 0-3.636.764-6.753 2.047-9.136 1.283-2.383 2.933-3.789 4.889-3.789 1.956 0 3.606 1.405 4.889 3.789.947 1.772 1.589 3.942 1.864 6.417h21.847c-.642-6.844-3.697-13.05-8.28-17.63-5.164-5.164-12.405-8.403-20.319-8.403-7.914 0-15.15 3.239-20.349 8.403-5.164 5.194-8.403 12.436-8.403 20.349 0 7.914 3.239 15.16 8.403 20.319 4 4 10.939 8.433 20.349 8.433 7.089 0 13.627-2.597 18.638-6.875 3.636-3.086 9.04-9.319 9.961-19.19h-21.847c-.275 2.506-.917 4.675-1.864 6.447"/><path d="m-566.34-176.25c-7.914 0-15.15 3.239-20.319 8.433-5.194 5.164-8.433 12.405-8.433 20.319 0 7.914 3.239 15.16 8.433 20.319 5.04 5.04 12.161 8.433 20.441 8.433 8.555 0 15.613-3.819 20.38-8.586 6.02-6.905 6.294-14.269 6.294-14.269h-19.463s-2.689 6.783-7.333 6.783c-1.956 0-3.605-1.405-4.889-3.789-.886-1.65-1.497-3.606-1.803-5.867h33.885s2.292-13.841-6.966-23.19c-5.378-5.439-12.252-8.586-20.227-8.586m-6.325 23.619c.397-1.68.917-3.147 1.436-4.247.978-2.108 2.933-3.789 4.889-3.789s3.575 1.375 4.95 3.85c.581 1.069 1.1 2.933 1.344 4.155l-12.619.031z"/><path d="m-362.03-176.25c-7.914 0-15.15 3.239-20.319 8.433-5.194 5.164-8.433 12.405-8.433 20.319 0 7.914 3.239 15.16 8.433 20.319 5.04 5.04 12.161 8.433 20.441 8.433 8.555 0 15.613-3.819 20.38-8.586 6.02-6.905 6.294-14.269 6.294-14.269h-19.463s-2.689 6.783-7.333 6.783c-1.955 0-3.606-1.405-4.889-3.789-.886-1.65-1.497-3.606-1.803-5.867h33.885s2.322-13.841-6.966-23.19c-5.378-5.439-12.252-8.586-20.227-8.586m-6.325 23.619c.397-1.68.917-3.147 1.436-4.247.978-2.108 2.933-3.789 4.889-3.789 1.955 0 3.575 1.375 4.95 3.85.581 1.069 1.1 2.933 1.344 4.155l-12.619.031z"/><path d="m-525.13-204.11c-6.05 0-10.908 4.889-10.908 10.908l.031 71.987h21.816l-.031-71.987c0-6.02-4.889-10.908-10.908-10.908"/><path d="m-482.42-176.24c-15.888 0-28.752 12.864-28.752 28.752s12.864 28.752 28.752 28.752 28.752-12.864 28.752-28.752-12.864-28.752-28.752-28.752m0 41.707c-3.819 0-6.936-5.805-6.936-12.955 0-7.15 3.117-12.955 6.936-12.955s6.936 5.805 6.936 12.955c0 7.15-3.117 12.955-6.936 12.955"/><path d="m-302.88-176.24c-15.888 0-28.752 12.864-28.752 28.752s12.864 28.752 28.752 28.752 28.752-12.864 28.752-28.752-12.864-28.752-28.752-28.752m0 41.707c-3.819 0-6.936-5.805-6.936-12.955 0-7.15 3.117-12.955 6.936-12.955s6.936 5.805 6.936 12.955c0 7.15-3.117 12.955-6.936 12.955"/><path d="m-393.56-147.48l.061.031-.031-45.771c-.031-6.02-4.919-10.908-10.939-10.877-6.02 0-10.908 4.858-10.908 10.908v17.844c-2.231-.55-4.553-.856-6.936-.856-7.914 0-15.15 3.239-20.319 8.433-5.194 5.164-8.433 12.405-8.433 20.319 0 7.883 3.239 15.16 8.433 20.319 3.3 3.331 10.419 8.433 20.319 8.433 9.93 0 17.02-5.103 20.319-8.433 5.194-5.164 8.433-12.436 8.433-20.319v-.031m-28.752 12.954c-3.819 0-6.905-5.805-6.905-12.955 0-7.15 3.086-12.955 6.905-12.955 3.819 0 6.936 5.805 6.936 12.955 0 7.15-3.117 12.955-6.936 12.955"/><path d="m-591.92-125.03c0-.733-.214-1.406-.581-1.986l-11.947-18.09 8.28-15c3.056-5.194 1.344-11.886-3.85-14.972-5.194-3.055-11.886-1.314-14.941 3.88l-9.9 17.661v-11.794c0-6.02-4.889-10.908-10.908-10.908-6.02 0-10.908 4.889-10.908 10.908v44.12h21.816v-17.263l11.519 17.263 17.63-.031c2.078 0 3.789-1.68 3.789-3.789"/></g><g fill="#fff"><path d="m-385.64 159.21c0 .092.092.153.153.153h.306c.092 0 .153-.061.153-.153v-5.01h1.436c.092 0 .153-.092.153-.183v-.214c0-.092-.061-.153-.153-.153h-3.483c-.092 0-.153.061-.153.153v.214c0 .092.061.183.153.183h1.436v5.01"/><path d="m-502.46 131.63c25.574 0 48.979-13.994 61.08-36.543l-25.37-13.599c-7.089 13.169-20.777 21.358-35.718 21.358-22.336 0-40.516-18.15-40.516-40.485s18.18-40.516 40.516-40.516c14.636 0 28.23 7.944 35.38 20.777l25.12-14.02c-12.252-21.938-35.443-35.505-60.5-35.505-38.22 0-69.3 31.04-69.3 69.27 0 38.19 31.07 69.27 69.3 69.27m.214 70.795c77.24 0 140.09-62.82 140.09-140.06 0-77.24-62.851-140.09-140.09-140.09-50.843 0-97.77 27.621-122.49 72.11l25.15 13.964c19.647-35.32 56.954-57.29 97.35-57.29 61.38 0 111.31 49.926 111.31 111.31 0 61.35-49.926 111.28-111.31 111.28-40.882 0-78.43-22.366-97.96-58.36l-25.299 13.689c24.566 45.31 71.77 73.45 123.26 73.45"/><path d="m-383.06 159.16c-.031.122.031.183.153.183h.336c.061 0 .122-.031.122-.092l.733-4.217h.031l1.497 4.308c.031.061.092.092.153.092h.153c.061 0 .122-.031.153-.092l1.497-4.308h.031l.733 4.217c0 .061.061.092.122.092h.336c.122 0 .183-.061.153-.183l-1.069-5.5c0-.061-.061-.122-.153-.122h-.122c-.031 0-.122.061-.122.092l-1.589 4.522h-.061l-1.619-4.522c0-.031-.061-.092-.122-.092h-.153c-.061 0-.122.061-.122.122l-1.069 5.5"/></g></g></svg>