<svg xmlns="http://www.w3.org/2000/svg" viewBox="0 0 600 74.25"><g fill="#f47116"><path d="m521.38 64.86l-3.054 3.453-3.108-3.453h-.186v6.481h1.169v-4.01l1.992 2.391h.212l2.02-2.391v4.01h1.142v-6.481h-.186m-12.749.133v.956h1.939v5.392h1.142v-5.392h1.939v-.956h-5.02"/><path d="m24.993 24.24c-6.879 0-13.174 2.816-17.663 7.331-4.514 4.488-7.33 10.783-7.33 17.662v22.842h18.964v-22.443c.027-2.736.664-5.073 1.78-6.879 1.116-1.806 2.55-2.842 4.25-2.869 1.7.027 3.134 1.063 4.25 2.869s1.753 4.144 1.78 6.879v22.444h18.963v-22.842c0-6.879-2.816-13.174-7.331-17.663-4.489-4.515-10.783-7.331-17.663-7.331"/><path d="m479.15 24.24c-6.879 0-13.174 2.816-17.663 7.331-4.515 4.489-7.331 10.783-7.331 17.663v22.842h18.991l-.03-10.01v-12.43c.027-2.736.664-5.073 1.78-6.879 1.116-1.806 2.55-2.842 4.25-2.869 1.7.027 3.134 1.063 4.25 2.869s1.753 4.144 1.78 6.879v22.444h18.964v-22.842c0-6.879-2.815-13.174-7.331-17.663-4.489-4.515-10.783-7.331-17.663-7.331"/><path d="m70.4 18.09c1.912-1.912 3.081-4.542 3.081-7.464s-1.169-5.551-3.081-7.463c-1.912-1.886-4.542-3.081-7.464-3.081-2.895 0-5.551 1.195-7.437 3.081-1.912 1.912-3.108 4.542-3.108 7.463 0 2.922 1.195 5.551 3.108 7.464l2.311 2.337c3.904 3.878 4.17 4.914.478 8.606 0 0-2.125 2.125-2.125 2.125-1.726 1.726-2.816 4.117-2.816 6.773v34.13h19.18v-34.13c0-2.656-1.063-5.05-2.789-6.773l-2.125-2.125c-3.692-3.692-3.426-4.728.452-8.606l2.337-2.337"/><path d="m104.38 57.2c-1.116 2.072-2.55 3.294-4.25 3.294-1.7 0-3.134-1.222-4.25-3.294-1.116-2.098-1.78-4.781-1.78-7.942s.664-5.87 1.78-7.942 2.55-3.294 4.25-3.294c1.7 0 3.134 1.222 4.25 3.294.823 1.541 1.381 3.426 1.62 5.578h18.991c-.558-5.95-3.214-11.341-7.198-15.325-4.489-4.489-10.783-7.304-17.663-7.304-6.879 0-13.174 2.816-17.69 7.304-4.489 4.515-7.304 10.81-7.304 17.69 0 6.879 2.816 13.174 7.304 17.663 3.479 3.479 9.509 7.331 17.69 7.331 6.162 0 11.846-2.258 16.202-5.976 3.161-2.683 7.862-8.101 8.659-16.68h-18.991c-.239 2.178-.797 4.064-1.62 5.604"/><path d="m197.81 24.23c-6.879 0-13.174 2.816-17.663 7.331-4.515 4.489-7.331 10.783-7.331 17.663 0 6.879 2.815 13.174 7.331 17.663 4.382 4.382 10.571 7.331 17.769 7.331 7.437 0 13.572-3.32 17.716-7.463 5.232-6 5.471-12.404 5.471-12.404h-16.919s-2.337 5.897-6.375 5.897c-1.7 0-3.134-1.222-4.25-3.294-.77-1.434-1.302-3.134-1.567-5.1h29.456s1.992-12.03-6.06-20.16c-4.675-4.728-10.651-7.464-17.583-7.464m-5.51 20.532c.345-1.461.797-2.736 1.248-3.692.85-1.833 2.55-3.294 4.25-3.294 1.7 0 3.108 1.195 4.303 3.347.505.93.956 2.55 1.169 3.612l-10.97.027z"/><path d="m375.4 24.23c-6.879 0-13.174 2.816-17.663 7.331-4.515 4.489-7.331 10.783-7.331 17.663 0 6.879 2.815 13.174 7.331 17.663 4.382 4.382 10.571 7.331 17.769 7.331 7.437 0 13.572-3.32 17.716-7.463 5.232-6 5.471-12.404 5.471-12.404h-16.919s-2.337 5.897-6.375 5.897c-1.7 0-3.134-1.222-4.25-3.294-.77-1.434-1.301-3.134-1.567-5.1h29.456s2.02-12.03-6.06-20.16c-4.675-4.728-10.651-7.464-17.583-7.464m-5.498 20.532c.345-1.461.797-2.736 1.248-3.692.85-1.833 2.55-3.294 4.25-3.294 1.7 0 3.108 1.195 4.303 3.347.505.93.956 2.55 1.169 3.612l-10.97.027z"/><path d="m233.62 0c-5.259 0-9.482 4.25-9.482 9.482l.027 62.58h18.964l-.03-62.58c0-5.232-4.25-9.482-9.48-9.482"/><path d="m270.74 24.24c-13.812 0-24.994 11.182-24.994 24.994s11.182 24.994 24.994 24.994 24.994-11.182 24.994-24.994-11.182-24.994-24.994-24.994m0 36.26c-3.32 0-6.03-5.05-6.03-11.262 0-6.215 2.709-11.262 6.03-11.262s6.03 5.05 6.03 11.262c0 6.215-2.709 11.262-6.03 11.262"/><path d="m426.82 24.24c-13.812 0-24.994 11.182-24.994 24.994s11.182 24.994 24.994 24.994 24.994-11.182 24.994-24.994-11.182-24.994-24.994-24.994m0 36.26c-3.32 0-6.03-5.05-6.03-11.262 0-6.215 2.709-11.262 6.03-11.262 3.32 0 6.03 5.05 6.03 11.262 0 6.215-2.709 11.262-6.03 11.262"/><path d="m348 49.23l.053.027-.027-39.788c-.027-5.232-4.276-9.482-9.509-9.456-5.233 0-9.482 4.223-9.482 9.482v15.512c-1.939-.478-3.957-.744-6.03-.744-6.879 0-13.174 2.816-17.663 7.331-4.515 4.489-7.331 10.783-7.331 17.663 0 6.853 2.815 13.174 7.331 17.663 2.869 2.895 9.06 7.331 17.663 7.331 8.632 0 14.794-4.436 17.663-7.331 4.515-4.489 7.331-10.81 7.331-17.663v-.027m-24.994 11.261c-3.32 0-6-5.05-6-11.262 0-6.215 2.683-11.262 6-11.262 3.32 0 6.03 5.05 6.03 11.262 0 6.215-2.709 11.262-6.03 11.262"/><path d="m175.56 68.74c0-.637-.186-1.222-.505-1.726l-10.385-15.724 7.198-13.04c2.656-4.515 1.169-10.333-3.347-13.02-4.515-2.656-10.333-1.142-12.988 3.373l-8.606 15.352v-10.253c0-5.233-4.25-9.482-9.482-9.482s-9.482 4.25-9.482 9.482v38.35h18.964v-15.01l10.01 15.01 15.325-.027c1.806 0 3.294-1.461 3.294-3.294"/></g><g fill="#fff"><path d="m552.88 62.24v-14.264h-13.307v14.264h-8.234v-34.1h8.234v12.909h13.307v-12.909h8.234v34.1h-8.234"/><path d="m591.42 45.09c0-1.939-.319-3.533-.93-4.781-.637-1.275-1.461-2.284-2.523-3.054-1.036-.744-2.231-1.275-3.559-1.594-1.328-.345-2.709-.505-4.117-.505h-4.09v19.947h3.904c1.461 0 2.895-.159 4.25-.505 1.381-.345 2.576-.877 3.612-1.647 1.063-.797 1.886-1.806 2.523-3.081.611-1.301.93-2.895.93-4.781m8.579 0c0 3-.558 5.551-1.673 7.729-1.116 2.178-2.576 3.958-4.383 5.339-1.806 1.408-3.851 2.444-6.136 3.108-2.284.637-4.595.983-6.932.983h-12.717v-34.1h12.325c2.417 0 4.781.266 7.145.823 2.337.558 4.436 1.514 6.242 2.816 1.833 1.275 3.32 3.03 4.436 5.206 1.142 2.205 1.7 4.887 1.7 8.101"/><g color="#000"><path d="m530.82 18.546v7.088h67.771v-7.088h-67.771"/><path d="m530.82 65.12v7.088h67.771v-7.088h-67.771"/></g></g></svg>