<svg xmlns="http://www.w3.org/2000/svg" enable-background="new 0 0 467 97" height="122.84" viewBox="0 0 600 122.84117"><g fill="#f57c14"><path d="m477 20.09c4.734-4.247 10.873-6.127 16.72-8.2 14.352-2.43 30.11-2.263 43.1 5.079 10.886 6.217 17.14 18.996 15.966 31.392-.577 10.09-6.907 19.07-15.04 24.74-10.362 7.278-21.376 13.56-31.941 20.506l-.358.794c12.766.754 25.599-.025 38.4.37 4.797.078 9.568 3.634 10.247 8.546.845 4.721.82 10.452-2.788 14.09-2.597 2.661-6.511 3.401-10.1 3.338-20.902-.013-41.804-.013-62.707.012-6.408.537-12.958-4.529-13.444-11.08-.193-4.13-.296-8.749 2.263-12.242 6.256-8.775 15.517-14.634 24.01-20.978 8.03-6.05 16.898-11.03 24.445-17.679 5.168-4.298 6.513-12.139 3.532-18.06-3.505-5.962-11.756-7.42-17.795-4.989-8.225 3.824-6.243 16.04-14.66 19.649-6.897 2.328-16.823.614-19.612-7.01-3.762-10.284 1.418-21.86 9.76-28.27"/><path d="m41.41 39.995c-11.389-.012-21.828 4.662-29.28 12.13-7.462 7.438-12.13 17.888-12.13 29.28v37.821h31.434v-37.18c.012-4.533 1.089-8.4 2.918-11.402 1.849-2.962 4.252-4.706 7.05-4.719 2.801.013 5.201 1.758 7.05 4.719 1.828 3 2.905 6.869 2.917 11.402v37.18h31.433v-37.82c0-11.39-4.663-21.841-12.13-29.28-7.451-7.465-17.889-12.139-29.28-12.13"/><path d="m116.63 29.819c3.164-3.163 5.118-7.533 5.118-12.361 0-4.826-1.956-9.184-5.118-12.349-3.17-3.164-7.54-5.109-12.36-5.109-4.817 0-9.189 1.945-12.353 5.109-3.163 3.164-5.118 7.521-5.118 12.349 0 4.828 1.956 9.198 5.118 12.361l3.855 3.866c6.444 6.432 6.902 8.142.774 14.27l-3.502 3.502c-2.884 2.885-4.652 6.855-4.652 11.233v56.52h31.762v-56.52c0-4.379-1.783-8.349-4.652-11.233l-3.502-3.502c-6.127-6.128-5.671-7.838.772-14.281l3.856-3.856z"/><path d="m172.93 94.61c-1.862 3.423-4.252 5.448-7.05 5.448s-5.19-2.026-7.05-5.448c-1.829-3.456-2.905-7.932-2.917-13.17.012-5.226 1.088-9.701 2.917-13.168 1.863-3.411 4.253-5.436 7.05-5.448 2.801.012 5.191 2.037 7.05 5.448 1.36 2.575 2.298 5.694 2.696 9.28h31.47c-.926-9.855-5.332-18.794-11.94-25.39-7.453-7.463-17.903-12.13-29.28-12.13s-21.826 4.663-29.28 12.13c-7.462 7.451-12.138 17.902-12.13 29.28-.012 11.388 4.664 21.839 12.13 29.28 5.74 5.728 15.723 12.139 29.28 12.13 10.193.014 19.625-3.737 26.831-9.876 5.261-4.467 13.05-13.417 14.388-27.641h-31.47c-.399 3.589-1.336 6.716-2.696 9.283"/><path d="m290.24 113.72c0-1.052-.318-2.026-.833-2.856l-17.211-26.03 11.916-21.637c4.405-7.478 1.921-17.11-5.555-21.512-7.473-4.405-17.1-1.923-21.521 5.553l-14.22 25.436v-16.955c0-8.681-7.04-15.722-15.726-15.722-8.67 0-15.711 7.04-15.711 15.722v63.5h31.437v-24.859l16.576 24.851 25.377-.013c3.03 0 5.473-2.447 5.473-5.472"/></g><g fill="#4ac3cb"><path d="m356.26 90.66c0 19.16-9.327 31.524-31.727 31.524h-.865c-7.829 0-16.03-2.072-21.15-5.365-8.891-5.728-14.692-15.14-8.834-25.07 5.426-9.22 24.429-10.92 27.24 5.122.985 5.611 3.959 4.883 3.959-.297l.012-38.16c0-11.4 7.04-18.418 15.71-18.418 8.67.012 15.702 7.03 15.702 15.699l-.048 34.962m-15.66-55.59c8.59 0 15.535-6.96 15.535-15.547 0-8.588-6.946-15.535-15.535-15.535-8.584 0-15.545 6.947-15.545 15.535 0 8.588 6.96 15.547 15.545 15.547"/><path d="m395.41 119.23v-42.27c0-3.056 1.908-8.199 5.446-9.57 3.61-1.393 6.903.209 10.864 1.688 13.03 4.964 23.18-1.606 24.744-10.124 1.577-8.52-4.054-16.708-12.572-18.289-10.461-1.957-17.841 1.335-26.395 7.931-.013 0-.013.013-.025.013-.609.467-2.226 1.874-2.786 2.343-2.02-6.352-7.956-10.955-14.961-10.955-8.67 0-15.699 7.03-15.699 15.689v63.55h31.385z"/><path d="m422.21 120.09c8.591 0 15.538-6.962 15.538-15.55 0-8.586-6.947-15.533-15.538-15.533-8.574 0-15.545 6.947-15.545 15.533 0 8.587 6.969 15.55 15.545 15.55"/></g><path fill="#f57c14" d="m574.72 92.06c7.984-4.912 19.239-.807 22.72 7.766v12.241c-1.997 3.172-4.248 6.486-7.867 7.932-7.01 3.736-16.643.897-20.609-5.962-4.579-7.228-1.971-18.02 5.756-21.977m25.28 14.03c0 8.743-7.735 15.83-17.276 15.83-9.541 0-17.276-7.087-17.276-15.83 0-8.743 7.735-15.83 17.276-15.83 9.541 0 17.276 7.087 17.276 15.83"/></svg>