<svg xmlns="http://www.w3.org/2000/svg" viewBox="0 0 600 74.25"><g transform="matrix(1.0036 0 0 1.0036-.003.004)"><g fill="#f47116"><path d="m519.54 64.63l-3.044 3.441-3.097-3.441h-.185v6.458h1.164v-3.996l1.985 2.382h.212l2.01-2.382v3.996h1.138v-6.458h-.185m-12.704.132v.953h1.932v5.373h1.138v-5.373h1.932v-.953h-5"/><path d="m24.908 24.15c-6.855 0-13.13 2.805-17.6 7.305-4.499 4.473-7.305 10.745-7.305 17.6v22.761h18.897v-22.364c.026-2.726.662-5.05 1.773-6.855 1.112-1.8 2.541-2.832 4.235-2.858 1.694.026 3.123 1.059 4.235 2.858s1.747 4.129 1.773 6.855v22.364h18.897v-22.761c0-6.855-2.806-13.13-7.305-17.6-4.473-4.499-10.745-7.305-17.6-7.305"/><path d="m477.46 24.15c-6.855 0-13.13 2.805-17.6 7.305-4.499 4.473-7.305 10.745-7.305 17.6v22.761h18.924l-.026-9.978v-12.386c.026-2.726.662-5.05 1.773-6.855 1.112-1.8 2.541-2.832 4.235-2.858 1.694.026 3.123 1.059 4.235 2.858s1.747 4.129 1.773 6.855v22.364h18.897v-22.761c0-6.855-2.805-13.13-7.305-17.6-4.473-4.499-10.745-7.305-17.6-7.305"/><path d="m70.16 18.03c1.906-1.906 3.07-4.526 3.07-7.437 0-2.911-1.165-5.532-3.07-7.437-1.906-1.879-4.526-3.07-7.437-3.07-2.885 0-5.532 1.191-7.411 3.07-1.906 1.906-3.097 4.526-3.097 7.437s1.191 5.532 3.097 7.437l2.303 2.329c3.891 3.864 4.155 4.896.476 8.575 0 0-2.117 2.117-2.117 2.117-1.72 1.72-2.806 4.102-2.806 6.749v34.01h19.11v-34.01c0-2.647-1.059-5.03-2.779-6.749l-2.117-2.117c-3.679-3.679-3.414-4.711.45-8.575l2.329-2.329"/><path d="m104.02 56.996c-1.112 2.064-2.541 3.282-4.235 3.282s-3.123-1.218-4.235-3.282c-1.112-2.091-1.773-4.764-1.773-7.913s.662-5.849 1.773-7.913 2.541-3.282 4.235-3.282 3.123 1.218 4.235 3.282c.82 1.535 1.376 3.414 1.615 5.558h18.924c-.556-5.928-3.203-11.301-7.172-15.271-4.473-4.473-10.745-7.278-17.6-7.278-6.855 0-13.13 2.805-17.627 7.278-4.473 4.499-7.278 10.772-7.278 17.627 0 6.855 2.805 13.13 7.278 17.6 3.467 3.467 9.475 7.305 17.627 7.305 6.14 0 11.804-2.25 16.14-5.955 3.15-2.673 7.834-8.07 8.628-16.621h-18.924c-.238 2.17-.794 4.049-1.615 5.584"/><path d="m197.11 24.14c-6.855 0-13.13 2.805-17.6 7.305-4.499 4.473-7.305 10.745-7.305 17.6 0 6.855 2.805 13.13 7.305 17.6 4.367 4.367 10.534 7.305 17.706 7.305 7.411 0 13.524-3.308 17.653-7.437 5.214-5.981 5.452-12.36 5.452-12.36h-16.859s-2.329 5.876-6.352 5.876c-1.694 0-3.123-1.218-4.235-3.282-.768-1.429-1.297-3.123-1.561-5.082h29.352s1.985-11.989-6.03-20.09c-4.658-4.711-10.613-7.437-17.521-7.437m-5.479 20.459c.344-1.456.794-2.726 1.244-3.679.847-1.826 2.541-3.282 4.235-3.282s3.097 1.191 4.288 3.335c.503.926.953 2.541 1.165 3.599l-10.931.026z"/><path d="m374.07 24.14c-6.855 0-13.13 2.805-17.6 7.305-4.499 4.473-7.305 10.745-7.305 17.6 0 6.855 2.805 13.13 7.305 17.6 4.367 4.367 10.534 7.305 17.706 7.305 7.411 0 13.524-3.308 17.653-7.437 5.214-5.981 5.452-12.36 5.452-12.36h-16.859s-2.329 5.876-6.352 5.876c-1.694 0-3.123-1.218-4.235-3.282-.768-1.429-1.297-3.123-1.562-5.082h29.352s2.01-11.989-6.03-20.09c-4.658-4.711-10.613-7.437-17.521-7.437m-5.479 20.459c.344-1.456.794-2.726 1.244-3.679.847-1.826 2.541-3.282 4.235-3.282s3.097 1.191 4.288 3.335c.503.926.953 2.541 1.164 3.599l-10.931.026z"/><path d="m232.8-.004c-5.24 0-9.449 4.235-9.449 9.449l.026 62.36h18.897l-.026-62.36c0-5.214-4.235-9.449-9.449-9.449"/><path d="m269.79 24.15c-13.763 0-24.905 11.142-24.905 24.905s11.142 24.905 24.905 24.905 24.905-11.142 24.905-24.905-11.142-24.905-24.905-24.905m0 36.13c-3.308 0-6.01-5.03-6.01-11.222 0-6.193 2.7-11.222 6.01-11.222s6.01 5.03 6.01 11.222c0 6.193-2.7 11.222-6.01 11.222"/><path d="m425.31 24.15c-13.763 0-24.905 11.142-24.905 24.905s11.142 24.905 24.905 24.905 24.905-11.142 24.905-24.905-11.142-24.905-24.905-24.905m0 36.13c-3.308 0-6.01-5.03-6.01-11.222 0-6.193 2.7-11.222 6.01-11.222 3.308 0 6.01 5.03 6.01 11.222 0 6.193-2.7 11.222-6.01 11.222"/><path d="m346.77 49.06l.053.026-.026-39.647c-.026-5.214-4.261-9.449-9.475-9.422-5.214 0-9.449 4.208-9.449 9.449v15.457c-1.932-.476-3.943-.741-6.01-.741-6.855 0-13.13 2.805-17.6 7.305-4.499 4.473-7.305 10.745-7.305 17.6 0 6.828 2.805 13.13 7.305 17.6 2.858 2.885 9.03 7.305 17.6 7.305 8.602 0 14.742-4.42 17.6-7.305 4.499-4.473 7.305-10.772 7.305-17.6v-.026m-24.905 11.222c-3.308 0-5.981-5.03-5.981-11.222 0-6.193 2.673-11.222 5.981-11.222 3.308 0 6.01 5.03 6.01 11.222 0 6.193-2.7 11.222-6.01 11.222"/><path d="m174.94 68.5c0-.635-.185-1.218-.503-1.72l-10.348-15.668 7.173-12.995c2.647-4.499 1.165-10.296-3.335-12.969-4.499-2.647-10.296-1.138-12.942 3.361l-8.575 15.298v-10.216c0-5.214-4.235-9.449-9.449-9.449s-9.449 4.235-9.449 9.449v38.22h18.897v-14.954l9.978 14.954 15.271-.026c1.8 0 3.282-1.456 3.282-3.282"/></g><g fill="#171615"><path d="m550.93 62.02v-14.213h-13.26v14.213h-8.205v-33.983h8.205v12.863h13.26v-12.863h8.205v33.983h-8.205"/><path d="m589.33 44.926c0-1.932-.318-3.52-.926-4.764-.635-1.27-1.456-2.276-2.514-3.044-1.032-.741-2.223-1.27-3.547-1.588-1.323-.344-2.7-.503-4.102-.503h-4.076v19.876h3.891c1.456 0 2.885-.159 4.235-.503 1.376-.344 2.567-.873 3.6-1.641 1.059-.794 1.879-1.8 2.514-3.07.609-1.297.926-2.885.926-4.764m8.549 0c0 2.991-.556 5.532-1.667 7.702s-2.567 3.944-4.367 5.32c-1.8 1.403-3.838 2.435-6.114 3.097-2.276.635-4.579.979-6.908.979h-12.678v-33.983h12.281c2.409 0 4.764.265 7.12.82 2.329.556 4.42 1.509 6.22 2.805 1.826 1.27 3.308 3.02 4.42 5.188 1.138 2.197 1.694 4.87 1.694 8.07"/><g color="#000"><path d="m528.94 18.476v7.06h67.53v-7.06h-67.53"/><path d="m528.94 64.886v7.06h67.53v-7.06h-67.53"/></g></g></g></svg>