<svg xmlns="http://www.w3.org/2000/svg" viewBox="0 0 600 180.88"><defs><radialGradient id="0" gradientUnits="userSpaceOnUse" cy="0" cx="0" gradientTransform="matrix(87.8399-.8345.8345 87.8399 579.99 400.51)" r="1"><stop stop-color="#ee5928"/><stop stop-color="#d91d28" offset="1"/></radialGradient><radialGradient id="1" gradientUnits="userSpaceOnUse" cy="0" cx="0" gradientTransform="matrix(197.7293-2.20362 1.50778 193.3413 341.09 431.18)" r="1"><stop stop-color="#fbc51b"/><stop stop-color="#f38618" offset="1"/></radialGradient></defs><g transform="translate(-68.04-312.9)"><path d="m68.04 414.64l6.866 79.15 488.88-43.15 8.417-9.02s11.731 7.232 20.316 6.46c10.298-.913 21.618-1.921 21.618-1.921l-10.958-77.53" fill="url(#1)"/><path d="m555.69 368.57l-64.19-2.581 43.01 47.728-22.289 60.27 58.687-26.16 50.42 39.825-6.748-63.904 53.46-35.65-62.857-13.33-17.388-61.854" fill="url(#0)"/><g fill="#5f2817"><path d="m106.13 431.69l16.273 11.927c1.524 1.111 2.601 1.64 3.228 1.586 1.053-.091 1.482-1.261 1.287-3.509-.222-2.55-.525-4.279-.909-5.182-.385-.906-1.084-1.548-2.096-1.929-.822-.317-1.415-.678-1.777-1.086-.361-.407-.572-.954-.633-1.642-.148-1.702.921-2.896 3.208-3.585.934-.285 2.585-.529 4.954-.735 3.057-.265 5.189-.268 6.394-.005 1.912.405 2.937 1.398 3.074 2.977.114 1.315-.559 2.374-2.02 3.173-.583.316-.979.587-1.183.807-.206.222-.372.543-.499.961-.43 1.383-.493 3.94-.191 7.666l.86 9.898c.133 1.519.323 3.594.572 6.224.329 3.563.341 6.152.033 7.769-.377 2.01-1.283 3.079-2.721 3.204-.628.055-1.179-.03-1.658-.254-.479-.223-1.286-.765-2.421-1.625l-19.39-14.58c-1.353-1.024-2.446-1.502-3.275-1.429-1.235.107-1.704 1.871-1.407 5.293.244 2.815.568 4.724.971 5.729.404 1.01 1.113 1.709 2.126 2.111 1.414.55 2.169 1.361 2.261 2.435.245 2.813-2.66 4.485-8.713 5.01-2.733.238-4.885.06-6.456-.526-1.57-.588-2.413-1.54-2.526-2.855-.06-.689.037-1.216.29-1.586.253-.369.85-.889 1.792-1.562.902-.651 1.392-1.703 1.469-3.159.117-2.64-.036-6.411-.462-11.31-.454-5.224-1.089-9-1.903-11.339-.3-.851-.638-1.475-1.019-1.87-.381-.396-.983-.751-1.805-1.068-.95-.366-1.621-.746-2.01-1.14-.392-.395-.614-.895-.666-1.504-.168-1.943 1.395-3.312 4.691-4.108 1.12-.261 3.096-.513 5.931-.761 1.62-.14 2.81-.115 3.572.073.76.189 1.685.684 2.775 1.487"/><path d="m161.37 433.34c-1.7.148-2.981 1.024-3.841 2.628-.671 1.202-.939 2.582-.803 4.14.199 2.288.895 4.894 2.087 7.819 1.193 2.926 2.598 5.491 4.217 7.696.714.937 1.556 1.66 2.529 2.166.972.507 1.933.719 2.886.637 1.538-.134 2.728-.819 3.57-2.054.841-1.235 1.18-2.795 1.016-4.678-.213-2.45-.837-5.059-1.873-7.823-1.036-2.766-2.269-5.097-3.698-6.991-.876-1.168-1.851-2.063-2.925-2.684-1.074-.62-2.128-.906-3.165-.857m2.128-8.966c5.203-.451 9.877.642 14.02 3.28 2.81 1.817 5.176 4.282 7.099 7.399 1.881 3.101 2.962 6.271 3.244 9.511.415 4.777-.794 9.184-3.625 13.224-2.394 3.432-5.688 6.03-9.878 7.805-2.578 1.08-5.204 1.737-7.876 1.969-3.503.305-6.917-.133-10.242-1.312-4.02-1.426-7.278-3.824-9.774-7.2-2.424-3.256-3.817-6.957-4.178-11.11-.418-4.817.578-9.188 2.992-13.11 2.145-3.493 5.205-6.183 9.181-8.08 2.662-1.291 5.673-2.083 9.03-2.375"/><path d="m208.09 434.73l1.211 13.939c.272 3.137.721 5.14 1.347 6 .761 1.016 2.215 1.431 4.361 1.244 2.309-.201 4.086-.865 5.335-1.992 1.249-1.128 2.041-2.79 2.382-4.982.189-1.341.821-2.058 1.893-2.152 1.073-.094 1.99.312 2.752 1.214.762.902 1.21 2.123 1.343 3.662.218 2.509-.48 5.272-2.095 8.289-.508.962-.97 1.629-1.387 2-.416.373-.938.586-1.565.641l-6.814-.235-21.23 1.844c-1.397.123-2.393.046-2.988-.229-.871-.393-1.347-1.056-1.427-1.988-.049-.567.051-.998.3-1.296.25-.295.879-.742 1.887-1.341 1.107-.647 1.779-1.479 2.02-2.5.191-.853.113-3.283-.235-7.292-.162-1.862-.446-4.541-.851-8.04-.393-3.349-.674-5.876-.842-7.575-.14-1.62-.363-2.716-.669-3.293-.305-.575-.874-.958-1.706-1.151-1.377-.35-2.26-.65-2.649-.904-.692-.448-1.066-.996-1.122-1.645-.128-1.478.999-2.709 3.382-3.691 2.027-.849 4.791-1.425 8.294-1.73 3.928-.341 6.881-.393 8.859-.157 2.558.327 3.908 1.313 4.051 2.952.058.669-.066 1.178-.372 1.532-.306.354-1.084.859-2.332 1.518-.739.413-1.174 1.042-1.305 1.889-.13.847-.073 2.668.169 5.461"/><path d="m248.69 431.2l1.211 13.938c.272 3.139.722 5.14 1.348 6 .761 1.014 2.215 1.429 4.361 1.242 2.309-.201 4.086-.865 5.334-1.994 1.249-1.127 2.042-2.788 2.383-4.98.189-1.342.819-2.059 1.893-2.152 1.072-.094 1.989.311 2.752 1.214.761.902 1.209 2.124 1.342 3.662.218 2.511-.48 5.274-2.094 8.289-.509.962-.971 1.629-1.387 2-.417.373-.939.587-1.567.641l-6.812-.235-21.23 1.844c-1.397.123-2.393.044-2.988-.23-.87-.393-1.346-1.055-1.427-1.988-.049-.567.051-.998.3-1.297.25-.297.879-.742 1.888-1.341 1.106-.647 1.779-1.479 2.02-2.501.19-.852.112-3.283-.236-7.291-.162-1.862-.446-4.54-.851-8.04-.393-3.351-.673-5.876-.841-7.575-.14-1.619-.364-2.718-.668-3.291-.305-.577-.874-.96-1.707-1.153-1.376-.352-2.259-.651-2.648-.904-.692-.448-1.066-.996-1.122-1.645-.129-1.478.999-2.709 3.381-3.691 2.027-.85 4.792-1.425 8.294-1.73 3.928-.34 6.881-.394 8.859-.159 2.558.33 3.909 1.314 4.051 2.953.059.669-.066 1.178-.372 1.533-.305.351-1.083.857-2.331 1.517-.74.411-1.174 1.04-1.305 1.889-.13.849-.074 2.668.169 5.461"/><path d="m273.99 415c3.968-.346 7.01-.396 9.135-.153.967.101 1.763.392 2.387.88.623.486.965 1.073 1.025 1.762.045.526-.131 1.082-.529 1.667-.576.886-.847 1.511-.816 1.876.063.729.741 1.844 2.034 3.342.838.967 1.592 1.422 2.26 1.364.425-.037.826-.231 1.204-.58.377-.348.855-.954 1.432-1.822.704-1.061 1.029-1.885.978-2.473-.03-.364-.101-.633-.208-.808-.108-.172-.474-.581-1.1-1.22-.446-.429-.702-1.04-.771-1.829-.199-2.288 2.799-3.7 8.994-4.238 3.502-.305 5.794-.34 6.875-.108.686.144 1.271.481 1.755 1.01.485.53.755 1.118.811 1.767.073.829-.126 1.479-.595 1.949-.47.468-1.322.869-2.557 1.2-1.134.323-2.099.852-2.891 1.582-.794.733-2.219 2.413-4.275 5.04-2.494 3.215-4.02 5.556-4.576 7.02-.557 1.467-.713 3.596-.47 6.391.204 2.348.485 4.516.841 6.504.208 1.227.474 2.066.8 2.516.324.451.952.871 1.884 1.26 1.544.64 2.367 1.538 2.467 2.692.239 2.753-3.71 4.484-11.85 5.191-3.34.289-6.526.241-9.559-.148-2.557-.33-3.906-1.303-4.047-2.924-.109-1.256.582-2.222 2.073-2.902 1.12-.504 1.792-1.085 2.02-1.736.526-1.453.564-4.781.112-9.985-.141-1.619-.413-2.865-.814-3.738-.403-.873-1.212-1.981-2.431-3.324-2.547-2.778-5.138-5.255-7.775-7.432-1.142-.94-2.215-1.552-3.218-1.831-1.421-.387-2.284-.69-2.588-.909-.609-.435-.949-1.059-1.019-1.869-.118-1.357.819-2.421 2.812-3.197 1.993-.775 5.388-1.371 10.187-1.786"/><path d="m340.85 420.69l-1.065-2.048c-.654-1.189-1.404-1.948-2.249-2.285-1.524-.641-2.337-1.55-2.439-2.724-.226-2.592 3.549-4.224 11.324-4.899 3.887-.338 6.87-.281 8.949.171.708.163 1.29.469 1.747.92.457.451.711.968.762 1.554.044.507-.019.901-.188 1.18-.17.28-.656.842-1.46 1.687-.47.469-.683.936-.643 1.403.062.709.548 1.85 1.46 3.422l2.053 3.554c.935 1.613 1.589 2.632 1.963 3.058.374.428.773.622 1.198.585.466-.041.844-.337 1.131-.893.288-.555.628-1.625 1.022-3.212l1.088-4.375c.299-1.252.423-2.18.37-2.786-.071-.81-.542-1.311-1.415-1.5-1.749-.399-2.683-1.298-2.805-2.695-.104-1.214.477-2.142 1.747-2.783 1.27-.64 3.414-1.091 6.43-1.353 1.964-.171 3.512-.08 4.643.269 1.571.477 2.415 1.382 2.531 2.718.051.588-.043 1.105-.279 1.553-.235.449-.739 1.064-1.507 1.845-.506.513-.884 1.046-1.131 1.598-.248.552-.603 1.673-1.069 3.366l-4.088 14.583c-2.081 6.81-3.34 10.867-3.777 12.169-.438 1.303-.907 2.477-1.408 3.518-.383.769-.834 1.322-1.355 1.664-.52.341-1.237.55-2.148.629-1.215.107-2.215-.071-2.999-.534-.785-.461-1.483-1.28-2.095-2.45l-7.252-13.749c-.393-.763-.679-1.238-.858-1.426-.181-.189-.412-.271-.695-.246-.425.038-.768.323-1.028.854-.259.533-.723 1.889-1.391 4.068l-3.238 10.625c-.608 1.93-1.235 3.223-1.882 3.88-.646.657-1.678 1.049-3.096 1.173-1.275.111-2.309-.107-3.1-.65-.792-.543-1.558-1.557-2.299-3.043l-13.63-27.58c-.57-1.132-.948-1.799-1.137-1.997-.191-.198-.763-.499-1.716-.907-1.078-.437-1.672-1.282-1.782-2.537-.247-2.856 3.171-4.588 10.257-5.205 3.624-.314 6.267-.29 7.931.075 1.603.372 2.469 1.306 2.599 2.804.041.465.03.81-.033 1.03-.063.218-.316.713-.758 1.486-.21.407-.29.893-.241 1.46.088 1.012.949 3.058 2.584 6.14l1.498 2.808c.632 1.168 1.045 1.871 1.239 2.109.193.239.453.343.777.314.79-.068 1.502-1.26 2.137-3.58l.945-3.57c.079-.253.114-.448.102-.589-.013-.163-.084-.37-.208-.627"/><path d="m395.53 413c-1.7.147-2.981 1.025-3.841 2.628-.671 1.201-.938 2.582-.803 4.14.199 2.287.895 4.896 2.087 7.819 1.192 2.925 2.599 5.49 4.218 7.696.714.937 1.556 1.66 2.529 2.168.971.506 1.933.718 2.885.636 1.539-.134 2.729-.819 3.57-2.054.841-1.235 1.18-2.795 1.017-4.676-.213-2.45-.836-5.059-1.873-7.825-1.036-2.766-2.268-5.097-3.697-6.991-.878-1.168-1.854-2.063-2.927-2.684-1.073-.619-2.129-.906-3.165-.857m2.129-8.966c5.202-.452 9.877.642 14.02 3.28 2.809 1.817 5.176 4.283 7.099 7.399 1.881 3.1 2.962 6.271 3.243 9.511.415 4.777-.793 9.185-3.624 13.226-2.394 3.431-5.688 6.03-9.878 7.803-2.579 1.081-5.203 1.738-7.875 1.969-3.502.306-6.917-.132-10.242-1.312-4.02-1.426-7.277-3.825-9.774-7.199-2.424-3.256-3.817-6.959-4.178-11.11-.419-4.817.579-9.188 2.991-13.11 2.146-3.491 5.205-6.184 9.181-8.08 2.661-1.292 5.673-2.085 9.03-2.376"/><path d="m445.18 408.69c-1.701.148-2.981 1.024-3.84 2.629-.672 1.202-.939 2.581-.804 4.141.199 2.287.895 4.892 2.087 7.818 1.191 2.926 2.599 5.492 4.218 7.696.715.939 1.555 1.661 2.529 2.166.971.509 1.933.719 2.885.637 1.54-.134 2.729-.817 3.571-2.053.841-1.236 1.18-2.796 1.016-4.678-.212-2.45-.836-5.057-1.872-7.825-1.037-2.766-2.269-5.095-3.698-6.991-.877-1.167-1.852-2.062-2.925-2.683-1.074-.62-2.129-.906-3.165-.858m2.128-8.965c5.203-.453 9.878.642 14.02 3.279 2.809 1.817 5.176 4.283 7.099 7.4 1.88 3.1 2.961 6.269 3.242 9.51.415 4.776-.793 9.185-3.623 13.224-2.395 3.432-5.688 6.03-9.879 7.805-2.579 1.081-5.203 1.738-7.875 1.969-3.503.306-6.917-.132-10.242-1.312-4.02-1.424-7.277-3.825-9.773-7.197-2.425-3.257-3.818-6.961-4.179-11.11-.419-4.817.579-9.188 2.991-13.11 2.146-3.492 5.205-6.185 9.181-8.08 2.661-1.291 5.674-2.084 9.03-2.375"/><path d="m491.07 405.38l2.042 23.505c.111 1.277.462 2.158 1.056 2.646.593.488 1.527.678 2.803.568 5.911-.515 8.476-5.264 7.696-14.254-.431-4.959-1.454-8.747-3.068-11.361-1.781-2.884-4.483-4.169-8.106-3.855-.972.085-1.639.337-2 .756-.361.418-.502 1.084-.423 1.995m-3.519 33.473l-2.186.19c-1.275.111-2.698.295-4.266.555-.985.167-1.67.268-2.054.3-1.357.119-2.488-.101-3.392-.653-.905-.555-1.401-1.338-1.489-2.351-.061-.707.079-1.275.418-1.703.34-.428.925-.8 1.754-1.117.792-.272 1.31-.648 1.554-1.129.244-.479.389-1.384.438-2.716.03-1.531-.08-4.5-.331-8.906-.249-4.404-.562-8.771-.938-13.1-.148-1.701-.378-2.823-.691-3.368-.311-.543-.969-.945-1.97-1.205-1.443-.406-2.219-1.245-2.33-2.52-.086-.992.327-1.808 1.24-2.449.914-.639 2.23-1.035 3.951-1.184.567-.05 1.235-.097 2.01-.145 1.707-.087 2.944-.164 3.713-.23 2.895-.253 6.157-.628 9.785-1.126.766-.108 1.725-.212 2.879-.311 4.635-.403 8.347-.195 11.13.623 4.147 1.231 7.394 3.622 9.741 7.17 2.087 3.124 3.327 6.954 3.72 11.488.2 2.288.064 4.61-.405 6.966-.468 2.357-1.196 4.423-2.184 6.202-2.053 3.605-5.084 6.275-9.09 8.01-2.36 1.023-4.916 1.652-7.668 1.892l-3.686.195-3.166.184c-2.457.133-4.616.278-6.48.441"/><path d="m571.66 406.93c-3.196.272-3.528-4.066-5.402-3.906-1.432.12-1.121 2.092-1.089 2.385l.953 11.279c.373 4.371 3.574 1.991 3.794 4.564.095 1.138-.465 2.813-7.337 3.4-1.87.156-8.736.813-8.976-2.01-.164-1.948 2.18-1.369 2.794-2.828.3-.801.263-3.02.22-3.94l-.393-8.145c-.184-3.871-.954-3.769-1.465-3.725-1.651.141-2.097 4.545-5.073 4.798-1.431.122-2.385-1.132-2.503-2.452-.26-3.122 2.037-7.426 4.134-7.605.251-.024.666.054 1.38.144.707.05 1.71.112 3.182-.013l9.03-.768c1.579-.132 2.307-.339 2.848-.498.5-.193.782-.329 1.483-.385 1.43-.121 4.646 2.455 4.984 6.422.156 1.837-.696 3.132-2.567 3.289"/><path d="m604.96 397.8c-1.566.32-1.72.221-2.878 3.171l-6.84 17.453c-.643 1.572-1.237 3.327-3.222 3.493-2.131.18-2.782-.987-3.739-2.643l-8.684-15.546c-1.306-2.292-1.674-2.707-3.121-2.804-.747-.049-1.159-.567-1.226-1.34-.239-2.829 5.586-3.471 7.463-3.632 7.714-.654 7.573 1.207 7.623 1.759.117 1.397-1.636 1.621-1.555 2.613.065.774 1.743 3.514 2.789 5.351.383.597.906 1.994 1.718 1.964 1.22-.03 1.669-2.14 2.044-2.951.365-.919 1.776-4.367 1.703-5.249-.116-1.321-1.955-.796-2.083-2.267-.194-2.277 4.444-2.633 5.909-2.759 4.628-.39 5.475.388 5.58 1.673.081.993-.607 1.531-1.481 1.716"/></g></g></svg>