<?xml version="1.0" encoding="UTF-8" standalone="no"?>
<!-- Created with Inkscape (http://www.inkscape.org/) -->
<svg xmlns:rdf="http://www.w3.org/1999/02/22-rdf-syntax-ns#" xmlns="http://www.w3.org/2000/svg" height="271.34" width="600" version="1.1" xmlns:cc="http://creativecommons.org/ns#" xmlns:dc="http://purl.org/dc/elements/1.1/">
 <defs></defs>
 <metadata>
  <rdf:RDF>
   <cc:Work rdf:about="">
    <dc:format>image/svg+xml</dc:format>
    <dc:type rdf:resource="http://purl.org/dc/dcmitype/StillImage"/>
    <dc:title/>
   </cc:Work>
  </rdf:RDF>
 </metadata>
 <g transform="translate(-180.57477,-470.19959)">
  <g fill-rule="nonzero" transform="matrix(7.4406958,0,0,7.4406958,-3095.2362,-3902.2173)">
   <path d="m510.19,593.19c-1.4475,0.0113-2.4538-1.2212-2.2488-2.7538,0.20625-1.5338,1.5462-2.7862,2.9925-2.7988,1.4475-0.0125,2.4538,1.2212,2.2488,2.755-0.205,1.5325-1.5462,2.785-2.9925,2.7975" fill="#f48412"/>
   <path d="m440.4,610.6,3.855-0.0325,1.4088-10.509,4.5075,12.124,4.4812-24.241-4.0575,1.2625-1.355,10.112-3.055-8.4525-2.9038,1.015-2.8812,18.721z" fill="#f48412"/>
   <path d="m457.34,607.85c0.86125-0.008,0.93125-0.7975,0.935-0.84l1.535-11.461c0.005-0.045,0.085-0.91125-0.70125-0.905-0.78625,0.007-0.9725,0.87375-0.9825,0.92l-1.535,11.46c-0.006,0.0412-0.1125,0.83375,0.74875,0.82625m2.1725-16.22c4.1175-0.0337,4.01,3.6925,4.0038,3.8888l-1.535,11.46c-0.04,0.1875-0.79875,3.7312-5.0288,3.765-4.23,0.0362-4.0762-3.5025-4.0675-3.6888l1.535-11.461c0.0488-0.19625,0.975-3.93,5.0925-3.9638" fill="#f48412"/>
   <path d="m470.97,600.13c2.74,2.71,1.64,5.8812,1.5825,6.0475-1.5025,5.0838-5.5562,4.9862-6.0588,4.9975-3.4975-0.0575-4.0038-4.1225-4.0475-4.3588l2.8525-2.8762c-0.007,3.4075,0.62875,3.5238,0.92375,3.7512,2.3238,0.94625,2.655-1.4512,2.6725-1.5625,0.565-2.2625-2.51-4.2662-3.7962-5.7125-1.82-2.0438-1.0375-4.6088-0.95375-5.0475,0.9625-4.175,4.9525-3.87,5.175-3.86,3.9362-0.0738,3.655,3.3538,3.64,3.535l-2.2225,2.355c-0.28375-0.67-0.305-1.5738-0.30625-1.6212-0.14625-1.7025-1.2738-1.3762-1.4188-1.415-1.2612,0.20875-1.2762,1.9912-0.735,2.9775,0.54125,0.985,2.585,2.7,2.6925,2.79" fill="#f48412"/>
   <path d="m482.6,591.75-0.3775,2.815-2.6938,0.0225-2.105,15.705-3.63,0.03,2.435-15.668-2.8825,0.025,0.3825-2.8562,8.8712-0.0738z" fill="#f48412"/>
   <path d="m483.24,602.92,1.1238-0.01,0.1075-4.9912-1.2312,5.0012m3.5562-11.2,1.1138,18.49-3.6688,0.03,0.14625-4.4375-1.9462,0.0163-1.2312,4.4462-3.1825,0.0275,6.0362-18.55,2.7325-0.0225z" fill="#f48412"/>
   <path d="m492.29,607.32,3.2612,0.21125-0.35,2.6175-6.6625,0.055,2.4438-18.52,3.705-0.03-2.3975,15.666z" fill="#f48412"/>
   <path d="m506.44,594.37-2.81,3.1138c-0.1825-0.31625-0.12375-1.0288-0.11-1.7025,0.0163-0.67375,0.37375-1.6675-0.71625-1.895-1.0925-0.23-1.365,0.7525-1.38,0.80375l-1.5188,11.341c-0.0213,1.2675,0.82875,1.035,0.8725,1.0225,0.94875-0.2325,1.24-0.88875,1.3138-1.4362l0.4725-3.53-1.535,0.0125,0.22375-1.665,5.2188-0.995-2.3738,12.974-1.2012-3.595c-1.2612,1.3188-3.1762,1.2962-3.2775,1.295-3.5662,0.38625-3.365-3.2275-3.355-3.4175l1.6412-12.255c1.205-3.6938,4.64-3.6088,4.82-3.605,3.6625-0.2675,3.7125,3.345,3.715,3.5338" fill="#f48412"/>
   <path d="m509.62,610.03-3.6688,0.03,2.4412-15.708,2.845-0.0225-1.6175,15.7z" fill="#f48412"/>
   <path d="m518.94,609.95-8.1975,0.0675,2.3962-17.885,7.7575-0.69875-0.265,2.8162-4.0262,0.19125-0.58375,4.3625,2.685,0.0562-0.36125,2.6975-2.7125,0.14125-0.7475,5.5912,4.3412-0.0362-0.28625,2.6962z" fill="#f48412"/>
   <path d="m440.54,621.79-0.2875-7.4612,1.6162,0,0,3.3225c0,0.90625-0.0225,1.7475-0.0437,2.4238h0.0212c0.26625-0.73125,0.53125-1.495,0.875-2.4025l1.34-3.3438h1.7488l-0.0225,3.3325c-0.0113,0.89625-0.0337,1.6388-0.0775,2.3688h0.0225c0.25375-0.775,0.53125-1.5725,0.83-2.3788l1.2838-3.3225h1.6825l-3.2875,7.4612h-1.7375l-0.045-3.055c-0.01-0.88625,0.0113-1.6388,0.055-2.48h-0.0213c-0.26625,0.7975-0.53125,1.605-0.8975,2.5125l-1.2838,3.0225h-1.7712z" fill="#f9a72b"/>
   <path d="m449.49,621.79,1.4938-7.86,1.5938,0-0.6075,3.1438,0.0213,0c0.45375-0.4975,1.0188-0.81875,1.7275-0.81875,0.84125,0,1.3612,0.5325,1.3612,1.4612,0,0.255-0.0437,0.67625-0.1,0.97375l-0.58625,3.1h-1.5938l0.565-2.9662c0.0437-0.21,0.0662-0.4425,0.0662-0.66375,0-0.36625-0.145-0.62-0.54375-0.62-0.56375,0-1.1288,0.68625-1.3275,1.77l-0.47625,2.48h-1.5938z" fill="#f9a72b"/>
   <path d="m460.28,617.51c-0.1225-0.0225-0.255-0.0438-0.42125-0.0438-1.0288,0-1.7812,1.2612-1.7812,2.2688,0,0.53125,0.21,0.89625,0.6525,0.89625,0.47625,0,1.085-0.5425,1.3288-1.87l0.22125-1.2512zm-0.4325,4.2838c0.0113-0.31,0.045-0.68625,0.0675-1.0738h-0.0225c-0.50875,0.89625-1.2062,1.1962-1.8375,1.1962-0.97375,0-1.6388-0.75375-1.6388-1.8825,0-1.8262,1.2175-3.775,3.8738-3.775,0.65375,0,1.34,0.12125,1.7825,0.26625l-0.54125,2.8338c-0.1325,0.69625-0.24375,1.76-0.22125,2.435h-1.4625z" fill="#f9a72b"/>
   <path d="m466.02,614.91-0.27625,1.4612,1.1612,0-0.2425,1.2175-1.1512,0-0.365,1.8275c-0.045,0.22125-0.0888,0.49625-0.0888,0.685,0,0.26625,0.11125,0.455,0.465,0.455,0.1325,0,0.29875,0,0.43125-0.0225l-0.17625,1.25c-0.21125,0.0788-0.60875,0.1225-0.94125,0.1225-0.96375,0-1.4175-0.4875-1.4175-1.1738,0-0.2875,0.0337-0.58625,0.12125-0.99625l0.41-2.1475h-0.68625l0.22125-1.2175h0.6975l0.19875-1.0188,1.6388-0.4425z" fill="#f9a72b"/>
   <path d="m473.96,617.51c-0.12125-0.0225-0.255-0.0438-0.42-0.0438-1.03,0-1.7825,1.2612-1.7825,2.2688,0,0.53125,0.21,0.89625,0.6525,0.89625,0.47625,0,1.085-0.5425,1.3288-1.87l0.22125-1.2512zm-0.43125,4.2838c0.0113-0.31,0.0438-0.68625,0.0663-1.0738h-0.0225c-0.50875,0.89625-1.2062,1.1962-1.8375,1.1962-0.97375,0-1.6388-0.75375-1.6388-1.8825,0-1.8262,1.2188-3.775,3.875-3.775,0.6525,0,1.34,0.12125,1.7825,0.26625l-0.5425,2.8338c-0.13375,0.69625-0.24375,1.76-0.22125,2.435h-1.4612z" fill="#f9a72b"/>
   <path d="m479.41,621.79,0.79625-4.195-0.6975,0,0.2225-1.2188,0.7075,0,0.045-0.27625c0.12125-0.6525,0.37625-1.3288,0.91875-1.7825,0.4425-0.365,1.0175-0.50875,1.55-0.50875,0.37625,0,0.66375,0.055,0.84125,0.1325l-0.27625,1.2625c-0.145-0.055-0.31125-0.0888-0.51-0.0888-0.52,0-0.84125,0.45375-0.94125,0.99625l-0.0437,0.265h1.0625l-0.2325,1.2188h-1.0512l-0.7975,4.195h-1.5938z" fill="#f9a72b"/>
   <path d="m487.14,617.87c0-0.26625-0.22125-0.45375-0.58625-0.45375-0.7425,0-1.1625,0.62-1.2738,1.1188,1.24,0.01,1.86-0.15625,1.86-0.655v-0.01zm0.82,3.6088c-0.6325,0.32-1.4175,0.43125-2.015,0.43125-1.55,0-2.3475-0.875-2.3475-2.2912,0-1.65,1.1962-3.365,3.155-3.365,1.0962,0,1.8825,0.62,1.8825,1.6262,0,1.3738-1.34,1.8712-3.51,1.8162,0,0.155,0.0563,0.39875,0.16625,0.55375,0.21125,0.27625,0.57625,0.42125,1.0412,0.42125,0.58625,0,1.0838-0.13375,1.5162-0.34375l0.11125,1.1512z" fill="#f9a72b"/>
   <path d="m493.24,617.87c0-0.26625-0.22125-0.45375-0.58625-0.45375-0.7425,0-1.1625,0.62-1.2738,1.1188,1.2412,0.01,1.86-0.15625,1.86-0.655v-0.01zm0.81875,3.6088c-0.63125,0.32-1.4162,0.43125-2.0138,0.43125-1.5512,0-2.3475-0.875-2.3475-2.2912,0-1.65,1.1962-3.365,3.155-3.365,1.0962,0,1.8812,0.62,1.8812,1.6262,0,1.3738-1.3388,1.8712-3.5088,1.8162,0,0.155,0.0562,0.39875,0.16625,0.55375,0.21,0.27625,0.575,0.42125,1.04,0.42125,0.5875,0,1.085-0.13375,1.5175-0.34375l0.11,1.1512z" fill="#f9a72b"/>
   <path d="m495.63,621.79,1.505-7.86,1.5938,0-1.505,7.86-1.5938,0z" fill="#f9a72b"/>
   <path d="m501.13,615.67c-0.465,0-0.80875-0.33125-0.80875-0.83,0-0.57625,0.455-0.96375,0.975-0.96375,0.49875,0,0.8525,0.32125,0.8525,0.83125,0,0.60875-0.465,0.9625-1.0075,0.9625h-0.0113zm-2.015,6.1212,1.03-5.4138,1.5838,0-1.0188,5.4138-1.595,0z" fill="#f9a72b"/>
   <path d="m502.6,621.79,0.68625-3.6525c0.1325-0.68625,0.22125-1.2738,0.2875-1.7612h1.4062l-0.1,0.8975h0.0225c0.50875-0.6975,1.1838-1.0188,1.8938-1.0188,0.885,0,1.3938,0.5425,1.3938,1.4838,0,0.24375-0.045,0.6425-0.0888,0.9075l-0.5975,3.1438h-1.5938l0.565-3c0.0325-0.18875,0.055-0.3975,0.055-0.5975,0-0.3875-0.13375-0.6525-0.5425-0.6525-0.52125,0-1.1188,0.6525-1.35,1.8475l-0.44375,2.4025h-1.5938z" fill="#f9a72b"/>
   <path d="m513.46,617.57c-0.12125-0.055-0.35375-0.1-0.575-0.1-0.96375,0-1.65,1.0738-1.65,2.0925,0,0.55375,0.24375,0.9525,0.73125,0.9525,0.52,0,1.04-0.5875,1.2175-1.495l0.27625-1.45zm-3.7188,4.97c0.29875,0.1775,0.9525,0.3,1.4162,0.3,0.7975,0,1.3838-0.35375,1.6175-1.44l0.0875-0.46375h-0.0225c-0.42,0.5525-0.9075,0.8075-1.5488,0.8075-1.0738,0-1.7275-0.875-1.7388-1.9375-0.0112-1.7825,1.2738-3.5538,3.6312-3.5538,0.76375,0,1.4275,0.145,2.0038,0.37625l-0.81875,4.4612c-0.18875,0.9975-0.49875,1.8825-1.1412,2.4025-0.58625,0.465-1.3725,0.60875-2.0912,0.60875-0.73125,0-1.395-0.1325-1.7725-0.3425l0.3775-1.2188z" fill="#f9a72b"/>
   <path d="m516.75,619.11,0.77-5.3638,1.8362,0-1.28,5.3638-1.3262,0zm0.24875,2.7475c-0.5675,0-0.9475-0.415-0.9475-0.97125,0-0.6275,0.47375-1.1838,1.1488-1.1838,0.56875,0,0.97125,0.415,0.97125,0.995,0,0.675-0.485,1.16-1.16,1.16h-0.0125z" fill="#f9a72b"/>
  </g>
 </g>
</svg>
