<svg xmlns="http://www.w3.org/2000/svg" viewBox="0 0 600 271.34"><g transform="matrix(7.4407 0 0 7.4407-3275.81-4372.42)"><g fill="#f48412"><path d="m510.19 593.19c-1.447.011-2.454-1.221-2.249-2.754.206-1.534 1.546-2.786 2.993-2.799 1.448-.013 2.454 1.221 2.249 2.755-.205 1.533-1.546 2.785-2.993 2.798"/><path d="m440.4 610.6l3.855-.033 1.409-10.509 4.507 12.12 4.481-24.24-4.058 1.263-1.355 10.112-3.055-8.452-2.904 1.015-2.881 18.721"/><path d="m457.34 607.85c.861-.008.931-.798.935-.84l1.535-11.461c.005-.045.085-.911-.701-.905-.786.007-.973.874-.983.92l-1.535 11.46c-.006.041-.113.834.749.826m2.173-16.22c4.118-.034 4.01 3.692 4 3.889l-1.535 11.46c-.04.188-.799 3.731-5.03 3.765-4.23.036-4.076-3.503-4.067-3.689l1.535-11.461c.049-.196.975-3.93 5.092-3.964"/><path d="m470.97 600.13c2.74 2.71 1.64 5.881 1.582 6.05-1.502 5.084-5.556 4.986-6.06 4.997-3.498-.058-4-4.122-4.048-4.359l2.853-2.876c-.007 3.408.629 3.524.924 3.751 2.324.946 2.655-1.451 2.673-1.563.565-2.263-2.51-4.266-3.796-5.712-1.82-2.044-1.038-4.609-.954-5.05.962-4.175 4.952-3.87 5.175-3.86 3.936-.074 3.655 3.354 3.64 3.535l-2.223 2.355c-.284-.67-.305-1.574-.306-1.621-.146-1.702-1.274-1.376-1.419-1.415-1.261.209-1.276 1.991-.735 2.977.541.985 2.585 2.7 2.692 2.79"/><path d="m482.6 591.75l-.377 2.815-2.694.023-2.105 15.705-3.63.03 2.435-15.668-2.882.025.382-2.856 8.871-.074"/><path d="m483.24 602.92h1.124l.108-4.991-1.231 5m3.556-11.2l1.114 18.49-3.669.03.146-4.438-1.946.016-1.231 4.446-3.183.028 6.04-18.55 2.733-.023z"/><path d="m492.29 607.32l3.261.211-.35 2.617-6.663.055 2.444-18.52 3.705-.03-2.397 15.666"/><path d="m506.44 594.37l-2.81 3.114c-.183-.316-.124-1.029-.11-1.702.016-.674.374-1.668-.716-1.895-1.092-.23-1.365.753-1.38.804l-1.519 11.341c-.021 1.268.829 1.035.873 1.023.949-.232 1.24-.889 1.314-1.436l.473-3.53-1.535.013.224-1.665 5.219-.995-2.374 12.974-1.201-3.595c-1.261 1.319-3.176 1.296-3.277 1.295-3.566.386-3.365-3.227-3.355-3.418l1.641-12.255c1.205-3.694 4.64-3.609 4.82-3.605 3.663-.268 3.712 3.345 3.715 3.534"/><path d="m509.62 610.03l-3.669.03 2.441-15.708 2.845-.023-1.618 15.7"/><path d="m518.94 609.95l-8.197.067 2.396-17.885 7.758-.699-.265 2.816-4.03.191-.584 4.362 2.685.056-.361 2.697-2.712.141-.747 5.591 4.341-.036-.286 2.696"/></g><g fill="#f9a72b"><path d="m440.54 621.79l-.288-7.461h1.616v3.322c0 .906-.022 1.747-.044 2.424h.021c.266-.731.531-1.495.875-2.403l1.34-3.344h1.749l-.022 3.332c-.011.896-.034 1.639-.077 2.369h.022c.254-.775.531-1.572.83-2.379l1.284-3.322h1.683l-3.288 7.461h-1.738l-.045-3.055c-.001-.886.011-1.639.055-2.48h-.021c-.266.798-.531 1.605-.897 2.513l-1.284 3.02h-1.771"/><path d="m449.49 621.79l1.494-7.86h1.594l-.608 3.144h.021c.454-.497 1.019-.819 1.728-.819.841 0 1.361.533 1.361 1.461 0 .255-.044.676-.1.974l-.586 3.1h-1.594l.565-2.966c.044-.21.066-.442.066-.664 0-.366-.145-.62-.544-.62-.564 0-1.129.686-1.327 1.77l-.476 2.48h-1.594"/><path d="m460.28 617.51c-.123-.023-.255-.044-.421-.044-1.029 0-1.781 1.261-1.781 2.269 0 .531.21.896.652.896.476 0 1.085-.543 1.329-1.87l.221-1.251m-.433 4.284c.011-.31.045-.686.067-1.074h-.022c-.509.896-1.206 1.196-1.837 1.196-.974 0-1.639-.754-1.639-1.883 0-1.826 1.217-3.775 3.874-3.775.654 0 1.34.121 1.783.266l-.541 2.834c-.132.696-.244 1.76-.221 2.435h-1.462"/><path d="m466.02 614.91l-.276 1.461h1.161l-.243 1.217h-1.151l-.365 1.827c-.045.221-.089.496-.089.685 0 .266.111.455.465.455.132 0 .299 0 .431-.023l-.176 1.25c-.211.079-.609.122-.941.122-.964 0-1.418-.487-1.418-1.174 0-.288.034-.586.121-.996l.41-2.148h-.686l.221-1.217h.697l.199-1.019 1.639-.442"/><path d="m473.96 617.51c-.121-.023-.255-.044-.42-.044-1.03 0-1.783 1.261-1.783 2.269 0 .531.21.896.652.896.476 0 1.085-.543 1.329-1.87l.221-1.251m-.431 4.284c.011-.31.044-.686.066-1.074h-.022c-.509.896-1.206 1.196-1.837 1.196-.974 0-1.639-.754-1.639-1.883 0-1.826 1.219-3.775 3.875-3.775.652 0 1.34.121 1.783.266l-.543 2.834c-.134.696-.244 1.76-.221 2.435h-1.461"/><path d="m479.41 621.79l.796-4.195h-.697l.223-1.219h.707l.045-.276c.121-.653.376-1.329.919-1.783.442-.365 1.017-.509 1.55-.509.376 0 .664.055.841.133l-.276 1.263c-.145-.055-.311-.089-.51-.089-.52 0-.841.454-.941.996l-.044.265h1.063l-.233 1.219h-1.051l-.798 4.195h-1.594"/><path d="m487.14 617.87c0-.266-.221-.454-.586-.454-.743 0-1.163.62-1.274 1.119 1.24.0001 1.86-.156 1.86-.655m.82 3.608c-.632.32-1.418.431-2.01.431-1.55 0-2.348-.875-2.348-2.291 0-1.65 1.196-3.365 3.155-3.365 1.096 0 1.882.62 1.882 1.626 0 1.374-1.34 1.871-3.51 1.816 0 .155.056.399.166.554.211.276.576.421 1.041.421.586 0 1.084-.134 1.516-.344l.111 1.151"/><path d="m493.24 617.87c0-.266-.221-.454-.586-.454-.743 0-1.163.62-1.274 1.119 1.241.0001 1.86-.156 1.86-.655m.819 3.608c-.631.32-1.416.431-2.01.431-1.551 0-2.348-.875-2.348-2.291 0-1.65 1.196-3.365 3.155-3.365 1.096 0 1.881.62 1.881 1.626 0 1.374-1.339 1.871-3.509 1.816 0 .155.056.399.166.554.21.276.575.421 1.04.421.587 0 1.085-.134 1.517-.344l.11 1.151"/><path d="m495.63 621.79l1.505-7.86h1.594l-1.505 7.86h-1.594"/><path d="m501.13 615.67c-.465 0-.809-.331-.809-.83 0-.576.455-.964.975-.964.499 0 .853.321.853.831 0 .609-.465.962-1.01.962h-.011m-2.01 6.121l1.03-5.414h1.584l-1.019 5.414h-1.595"/><path d="m502.6 621.79l.686-3.653c.132-.686.221-1.274.288-1.761h1.406l-.1.898h.022c.509-.697 1.184-1.019 1.894-1.019.885 0 1.394.543 1.394 1.484 0 .244-.045.643-.089.908l-.598 3.144h-1.594l.565-3c.033-.189.055-.398.055-.597 0-.388-.134-.653-.543-.653-.521 0-1.119.653-1.35 1.847l-.444 2.403h-1.594"/><path d="m513.46 617.57c-.121-.055-.354-.1-.575-.1-.964 0-1.65 1.074-1.65 2.092 0 .554.244.952.731.952.52 0 1.04-.587 1.218-1.495l.276-1.45m-3.719 4.97c.299.178.952.3 1.416.3.798 0 1.384-.354 1.617-1.44l.087-.464h-.023c-.42.553-.908.808-1.549.808-1.074 0-1.728-.875-1.739-1.938-.011-1.783 1.274-3.554 3.631-3.554.764 0 1.428.145 2 .376l-.819 4.461c-.189.997-.499 1.883-1.141 2.403-.586.465-1.373.609-2.091.609-.731 0-1.395-.133-1.772-.342l.377-1.219"/><path d="m516.75 619.11l.77-5.364h1.836l-1.28 5.364h-1.326m.249 2.747c-.567 0-.947-.415-.947-.971 0-.628.474-1.184 1.149-1.184.569 0 .971.415.971.995 0 .675-.485 1.16-1.16 1.16h-.013"/></g></g></svg>