<?xml version="1.0" encoding="UTF-8" standalone="no"?>
<svg xmlns="http://www.w3.org/2000/svg" height="187.52" width="600" version="1.1" viewBox="0 0 158.75 49.614681">
 <g transform="translate(218.91 -136.41)">
  <g fill="#39538c">
   <path d="m-211.74 176.35c0.46 2.09 1.79 3.17 4.33 3.17 2.16 0 3.55-0.84 3.55-2.29 0-5-14.42-1.63-14.42-12.25 0-5.13 4.7-8.96 10.66-8.96 6.09 0 10.16 3.29 10.88 8.21l-7.17 1.45c-0.46-2.17-1.71-3.17-3.95-3.17-1.93 0-3.09 0.84-3.09 2.26 0 4.58 14.42 1.25 14.42 12.25 0 5.12-4.84 9-11.09 9-6.29 0-10.66-3.41-11.29-8.25z"/>
   <path d="m-179.08 170.39c2.42 0 3.96-1.62 3.96-3.83 0-2.26-1.54-3.87-3.96-3.87h-5.79v7.7zm-12.87-13.95h12.87c6.92 0 11.29 4.33 11.29 10.21 0 5.86-4.37 10-11.29 10h-5.79v8.95h-7.08z"/>
   <path d="m-149.66 179.52c4.58 0 8.08-3.71 8.08-8.5s-3.5-8.5-8.08-8.5-8.09 3.71-8.09 8.5 3.51 8.5 8.09 8.5m0-23.5c8.7 0 15.42 6.54 15.42 15 0 8.45-6.72 14.99-15.42 14.99-8.71 0-15.42-6.54-15.42-14.99 0-8.46 6.71-15 15.42-15"/>
   <path d="m-117.16 169.56c2.12 0 3.49-1.46 3.49-3.42 0-2-1.37-3.46-3.49-3.46h-5.84v6.88zm-2.96 6.46h-2.88v9.59h-7.08v-29.17h12.92c6.62 0 10.83 4.16 10.83 9.79 0 4.08-2.25 7.37-5.95 8.91l6.78 10.47h-8.41z"/>
   <path d="m-96.079 162.68h-8.541v-6.25h24.17v6.25h-8.54v22.92h-7.089z"/>
  </g>
  <path d="m-64.842 179.31v-23.33l-12.705 4.05v6.25l5.616-1.24v14.27h-5.616v6.25h17.387v-6.25z" fill="#ee2433"/>
  <path d="m-207.2 136.43h-10.77v15.04h4.72v-11.31h4.59c0.49 0 0.65 0.24 0.65 0.8v10.51h4.73v-10.93c0-2.45-1.04-4.11-3.92-4.11m32.3 10.12-3.85-10.12h-5.04l6.14 15.04h5.2l6.21-15.04h-4.89zm-13.87-10.14h-7.51c-2.88 0-3.92 1.66-3.92 4.11v6.84c0 2.44 1.04 4.11 3.92 4.11h7.51c2.87 0 3.92-1.67 3.92-4.11v-6.84c0-2.45-1.05-4.11-3.92-4.11m-0.8 7.33v3.2c0 0.55-0.17 0.8-0.66 0.8h-4.58c-0.51 0-0.66-0.25-0.66-0.8v-2.8h0.01v-3.2c0-0.56 0.15-0.81 0.65-0.81h4.58c0.49 0 0.66 0.25 0.66 0.81zm34.28-7.31h-9.03l-0.72 3.97c0.85-0.36 1.81-0.41 4.35-0.41h3.9c0.53 0 0.68 0.24 0.68 0.8v1.27h-6.12c-2.9 0-3.95 1.67-3.95 4.05v1.25c0 2.44 1.08 4.11 3.95 4.11h10.88v-10.96c0-2.41-1.05-4.08-3.94-4.08m-0.82 11.51h-4.8c-0.53 0-0.71-0.28-0.71-0.86v-0.87c0-0.52 0.18-0.83 0.74-0.83h4.77z" fill="#39538c"/>
 </g>
</svg>
