<?xml version="1.0" encoding="UTF-8" standalone="no"?>
<svg xmlns="http://www.w3.org/2000/svg" height="154.93" width="600" version="1.1" viewBox="0 0 158.75 40.991241">
 <g transform="translate(205.11 -140.72)">
  <g fill="#39538c">
   <path d="m-199.19 173.72c0.38 1.73 1.48 2.62 3.57 2.62 1.79 0 2.94-0.69 2.94-1.89 0-4.13-11.92-1.35-11.92-10.13 0-4.23 3.89-7.4 8.81-7.4 5.03 0 8.4 2.72 8.99 6.79l-5.92 1.19c-0.38-1.78-1.42-2.61-3.27-2.61-1.59 0-2.55 0.69-2.55 1.86 0 3.79 11.91 1.04 11.91 10.13 0 4.23-3.99 7.43-9.16 7.43-5.19 0-8.81-2.82-9.32-6.82z"/>
   <path d="m-172.2 168.8c1.99 0 3.26-1.35 3.26-3.17 0-1.86-1.27-3.2-3.26-3.2h-4.79v6.37zm-10.64-11.53h10.64c5.71 0 9.32 3.57 9.32 8.43 0 4.85-3.61 8.27-9.32 8.27h-4.79v7.4h-5.85z"/>
   <path d="m-147.9 176.34c3.79 0 6.67-3.06 6.67-7.02s-2.88-7.03-6.67-7.03-6.68 3.07-6.68 7.03 2.89 7.02 6.68 7.02m0-19.42c7.19 0 12.74 5.41 12.74 12.4 0 6.98-5.55 12.38-12.74 12.38s-12.74-5.4-12.74-12.38c0-6.99 5.55-12.4 12.74-12.4"/>
   <path d="m-121.05 168.11c1.75 0 2.89-1.21 2.89-2.82 0-1.66-1.14-2.87-2.89-2.87h-4.82v5.69zm-2.44 5.34h-2.38v7.92h-5.85v-24.1h10.67c5.47 0 8.95 3.44 8.95 8.09 0 3.37-1.86 6.09-4.92 7.36l5.6 8.65h-6.94z"/>
   <path d="m-103.63 162.43h-7.06v-5.17h19.97v5.17h-7.055v18.93h-5.855z"/>
  </g>
  <path d="m-77.824 176.17v-19.28l-10.497 3.35v5.16l4.64-1.02v11.79h-4.64v5.16h14.365v-5.16z" fill="#ee2433"/>
  <path d="m-195.44 140.74h-8.9v12.42h3.91v-9.34h3.78c0.41 0 0.54 0.2 0.54 0.66v8.68h3.91v-9.02c0-2.03-0.86-3.4-3.24-3.4m26.69 8.36-3.18-8.36h-4.17l5.08 12.42h4.29l5.13-12.42h-4.04zm-11.46-8.38h-6.2c-2.38 0-3.25 1.37-3.25 3.4v5.64c0 2.02 0.87 3.4 3.25 3.4h6.2c2.37 0 3.24-1.38 3.24-3.4v-5.64c0-2.03-0.87-3.4-3.24-3.4m-0.67 6.06v2.64c0 0.45-0.13 0.66-0.54 0.66h-3.79c-0.41 0-0.54-0.21-0.54-0.66v-2.32h0.01v-2.64c0-0.46 0.12-0.66 0.53-0.66h3.79c0.41 0 0.54 0.2 0.54 0.66zm28.33-6.04h-7.46l-0.6 3.28c0.7-0.3 1.5-0.34 3.6-0.34h3.22c0.44 0 0.56 0.2 0.56 0.66v1.05h-5.05c-2.4 0-3.27 1.38-3.27 3.35v1.02c0 2.02 0.9 3.4 3.27 3.4h8.99v-9.05c0-1.99-0.88-3.37-3.26-3.37m-0.68 9.51h-3.96c-0.44 0-0.59-0.23-0.59-0.71v-0.72c0-0.44 0.15-0.69 0.61-0.69h3.94z" fill="#39538c"/>
  <path d="m-71.927 157.27h3.014v4.88h5.331v-4.88h3.014v12.43h-3.014v-4.89h-5.331v4.89h-3.014z" fill="#ee2433"/>
  <path d="m-53.002 167.03c2.116 0 3.514-1.49 3.514-3.55 0-2.08-1.398-3.55-3.514-3.55h-1.88v7.1zm-4.903-9.76h5.166c3.696 0 6.375 2.7 6.375 6.21s-2.679 6.21-6.375 6.21h-5.166z" fill="#ee2433"/>
 </g>
</svg>
