<?xml version="1.0" encoding="UTF-8" standalone="no"?>
<svg xmlns="http://www.w3.org/2000/svg" height="150.33" width="600" version="1.1" viewBox="0 0 158.75 39.774503">
 <g transform="translate(75.987 4.6985)">
  <g fill="#39538c">
   <path d="m-70.24 27.32c0.367 1.673 1.437 2.544 3.477 2.544 1.741 0 2.842-0.672 2.842-1.841 0-4.012-11.569-1.306-11.569-9.828 0-4.111 3.782-7.19 8.559-7.19 4.883 0 8.154 2.644 8.726 6.587l-5.753 1.169c-0.367-1.735-1.368-2.537-3.172-2.537-1.536 0-2.476 0.665-2.476 1.803 0 3.676 11.569 1.002 11.569 9.828 0 4.111-3.881 7.221-8.894 7.221-5.044 0-8.559-2.743-9.056-6.618z"/>
   <path d="m-44.032 22.54c1.94 0 3.178-1.306 3.178-3.073 0-1.81-1.238-3.11-3.178-3.11h-4.646v6.183zm-10.331-11.202h10.331c5.548 0 9.062 3.477 9.062 8.192 0 4.714-3.514 8.023-9.062 8.023h-4.646v7.19h-5.685z"/>
   <path d="m-20.432 29.861c3.676 0 6.487-2.973 6.487-6.817 0-3.85-2.811-6.823-6.487-6.823s-6.488 2.973-6.488 6.823c0 3.844 2.812 6.817 6.488 6.817m0-18.853c6.985 0 12.371 5.25 12.371 12.036-0.0001 6.786-5.386 12.029-12.371 12.029s-12.372-5.243-12.372-12.029 5.387-12.036 12.372-12.036"/>
   <path d="m5.6412 21.871c1.7042 0 2.8051-1.169 2.8051-2.743 0-1.604-1.1009-2.774-2.8051-2.774h-4.6773v5.517zm-2.376 5.181h-2.3013v7.688h-5.6849v-23.399h10.362c5.312 0 8.689 3.34 8.689 7.856 0 3.278-1.803 5.915-4.7766 7.153l5.4486 8.39h-6.7547z"/>
   <path d="m22.555 16.356h-6.855v-5.014h19.394v5.014h-6.854v18.385h-5.685z"/>
  </g>
  <path d="m37.097 29.728 9.727-8.092c0.871-0.734 1.605-1.705 1.605-3.042 0-1.269-0.833-2.37-2.811-2.37-1.636 0-2.805 0.971-2.805 3.073l-5.884-0.666c0.336-5.019 3.645-7.625 8.689-7.625 5.119 0 8.695 2.774 8.695 7.42 0 3.042-1.773 5.554-3.912 7.221l-5.082 4.081h9.162v5.013h-17.384z" fill="#4fc5d5"/>
  <path d="m-66.513-4.6736h-8.639v12.06h3.787v-9.0683h3.683c0.398-0.0062 0.516 0.1928 0.516 0.6406v8.4279h3.806v-8.7637c0-1.9593-0.846-3.2965-3.153-3.2965m25.918 8.1168-3.091-8.1168h-4.049l4.932 12.06h4.167l4.982-12.06h-3.918zm-11.127-8.1417h-6.027c-2.308 0-3.148 1.3373-3.148 3.3027v5.4859c0 1.9592 0.84 3.2965 3.148 3.2965h6.027c2.301 0 3.147-1.3373 3.147-3.2965v-5.4859c0-1.9654-0.846-3.3027-3.147-3.3027m-0.653 5.8839v2.5688c0 0.4416-0.125 0.6469-0.523 0.6469h-3.676c-0.404 0-0.528-0.2053-0.528-0.6469v-2.2453h0.006v-2.5688c0-0.4478 0.124-0.6407 0.522-0.6407h3.676c0.398 0 0.523 0.1929 0.523 0.6407zm27.504-5.8528h-7.234l-0.585 3.1721c0.678-0.2861 1.462-0.3234 3.496-0.3234h3.128c0.423 0 0.548 0.1928 0.548 0.6468v1.0139h-4.914c-2.332-0.00004-3.172 1.3434-3.172 3.2529v0.9952c0 1.953 0.871 3.2965 3.172 3.2965h8.726v-8.7886c0-1.9344-0.839-3.2654-3.165-3.2654m-0.647 9.224h-3.857c-0.422 0-0.572-0.2177-0.572-0.6904v-0.6904c0-0.423 0.15-0.6718 0.597-0.6718h3.832z" fill="#39538c"/>
  <path d="m57.958 11.006h2.925v4.735h5.172v-4.735h2.925v12.061h-2.925v-4.745h-5.172v4.745h-2.925z" stroke-width=".97035" fill="#4fc5d5"/>
  <path d="m76.322 20.476c2.053 0 3.41-1.445 3.41-3.444 0-2.019-1.357-3.445-3.41-3.445h-1.825v6.889zm-4.758-9.47h5.013c3.586 0 6.186 2.62 6.186 6.026s-2.6 6.026-6.186 6.026h-5.013z" stroke-width=".97035" fill="#4fc5d5"/>
 </g>
</svg>
