<svg xmlns="http://www.w3.org/2000/svg" xmlns:xlink="http://www.w3.org/1999/xlink" viewBox="0 0 600 178.66"><defs><radialGradient id="3" gradientUnits="userSpaceOnUse" cy="399.29" cx="204.22" r="114.16"><stop stop-color="#f47a54"/><stop stop-color="#f47a54" offset=".004"/><stop stop-color="#f47953" offset=".008"/><stop stop-color="#f47853" offset=".012"/><stop stop-color="#f47853" offset=".016"/><stop stop-color="#f47853" offset=".02"/><stop stop-color="#f47752" offset=".024"/><stop stop-color="#f27550" offset=".027"/><stop stop-color="#f27550" offset=".031"/><stop stop-color="#f27550" offset=".035"/><stop stop-color="#f27450" offset=".039"/><stop stop-color="#f2744f" offset=".043"/><stop stop-color="#f2734f" offset=".047"/><stop stop-color="#f2724e" offset=".051"/><stop stop-color="#f2714d" offset=".055"/><stop stop-color="#f2714d" offset=".059"/><stop stop-color="#f1714d" offset=".063"/><stop stop-color="#f1704c" offset=".067"/><stop stop-color="#f1704c" offset=".071"/><stop stop-color="#f06e4b" offset=".075"/><stop stop-color="#f06e4a" offset=".078"/><stop stop-color="#f06e4a" offset=".082"/><stop stop-color="#f06d4a" offset=".086"/><stop stop-color="#f06c49" offset=".09"/><stop stop-color="#f06b49" offset=".094"/><stop stop-color="#f06b48" offset=".098"/><stop stop-color="#ef6a47" offset=".102"/><stop stop-color="#ef6a47" offset=".106"/><stop stop-color="#ef6a47" offset=".11"/><stop stop-color="#ef6946" offset=".114"/><stop stop-color="#ef6846" offset=".118"/><stop stop-color="#ef6846" offset=".122"/><stop stop-color="#ee6745" offset=".125"/><stop stop-color="#e64" offset=".129"/><stop stop-color="#ee6544" offset=".133"/><stop stop-color="#ee6543" offset=".137"/><stop stop-color="#ee6443" offset=".141"/><stop stop-color="#ee6342" offset=".145"/><stop stop-color="#ee6342" offset=".149"/><stop stop-color="#ed6241" offset=".153"/><stop stop-color="#ed6241" offset=".157"/><stop stop-color="#ed6241" offset=".161"/><stop stop-color="#ed6140" offset=".165"/><stop stop-color="#ed6040" offset=".169"/><stop stop-color="#ec5e3f" offset=".173"/><stop stop-color="#ec5e3e" offset=".176"/><stop stop-color="#ec5e3e" offset=".18"/><stop stop-color="#ec5d3d" offset=".184"/><stop stop-color="#ec5d3d" offset=".188"/><stop stop-color="#ec5c3d" offset=".192"/><stop stop-color="#ec5b3d" offset=".196"/><stop stop-color="#ec5b3c" offset=".2"/><stop stop-color="#ec5a3b" offset=".204"/><stop stop-color="#ec593b" offset=".208"/><stop stop-color="#ec583b" offset=".212"/><stop stop-color="#ec583b" offset=".216"/><stop stop-color="#ec583a" offset=".22"/><stop stop-color="#eb5639" offset=".224"/><stop stop-color="#eb5639" offset=".227"/><stop stop-color="#ea5538" offset=".231"/><stop stop-color="#ea5438" offset=".235"/><stop stop-color="#ea5438" offset=".239"/><stop stop-color="#ea5438" offset=".243"/><stop stop-color="#ea5337" offset=".247"/><stop stop-color="#ea5236" offset=".251"/><stop stop-color="#ea5236" offset=".255"/><stop stop-color="#ea5136" offset=".259"/><stop stop-color="#ea5036" offset=".263"/><stop stop-color="#ea5035" offset=".267"/><stop stop-color="#e94e34" offset=".271"/><stop stop-color="#e94e34" offset=".275"/><stop stop-color="#e94e34" offset=".278"/><stop stop-color="#e94d34" offset=".282"/><stop stop-color="#e94c33" offset=".286"/><stop stop-color="#e94b33" offset=".29"/><stop stop-color="#e94b32" offset=".294"/><stop stop-color="#e94a32" offset=".298"/><stop stop-color="#e94932" offset=".302"/><stop stop-color="#e94931" offset=".306"/><stop stop-color="#e84731" offset=".31"/><stop stop-color="#e84630" offset=".314"/><stop stop-color="#e84630" offset=".318"/><stop stop-color="#e74530" offset=".322"/><stop stop-color="#e7442f" offset=".325"/><stop stop-color="#e7432f" offset=".329"/><stop stop-color="#e7432e" offset=".333"/><stop stop-color="#e7422e" offset=".337"/><stop stop-color="#e7412e" offset=".341"/><stop stop-color="#e7412d" offset=".345"/><stop stop-color="#e7402d" offset=".349"/><stop stop-color="#e73f2d" offset=".353"/><stop stop-color="#e73f2d" offset=".357"/><stop stop-color="#e73e2c" offset=".361"/><stop stop-color="#e73d2c" offset=".365"/><stop stop-color="#e63c2c" offset=".369"/><stop stop-color="#e63c2b" offset=".373"/><stop stop-color="#e63b2b" offset=".376"/><stop stop-color="#e6392b" offset=".38"/><stop stop-color="#e6392b" offset=".384"/><stop stop-color="#e6382a" offset=".388"/><stop stop-color="#e6372a" offset=".392"/><stop stop-color="#e6372a" offset=".396"/><stop stop-color="#e63629" offset=".4"/><stop stop-color="#e63529" offset=".404"/><stop stop-color="#e63328" offset=".408"/><stop stop-color="#e63328" offset=".412"/><stop stop-color="#e63228" offset=".416"/><stop stop-color="#e53027" offset=".42"/><stop stop-color="#e53027" offset=".424"/><stop stop-color="#e52f27" offset=".427"/><stop stop-color="#e52e27" offset=".431"/><stop stop-color="#e52e27" offset=".435"/><stop stop-color="#e42c27" offset=".439"/><stop stop-color="#e42b26" offset=".443"/><stop stop-color="#e42926" offset=".447"/><stop stop-color="#e42926" offset=".451"/><stop stop-color="#e42825" offset=".455"/><stop stop-color="#e42625" offset=".459"/><stop stop-color="#e42625" offset=".463"/><stop stop-color="#e32524" offset=".467"/><stop stop-color="#e32324" offset=".471"/><stop stop-color="#e32324" offset=".475"/><stop stop-color="#e32224" offset=".478"/><stop stop-color="#e32024" offset=".482"/><stop stop-color="#e31e24" offset=".486"/><stop stop-color="#e31e23" offset=".49"/><stop stop-color="#e31d23" offset=".494"/><stop stop-color="#e31b23" offset=".498"/><stop stop-color="#e31b23" offset=".502"/><stop stop-color="#e31b23" offset=".506"/><stop stop-color="#e31b23" offset=".51"/><stop stop-color="#e31b23" offset=".514"/><stop stop-color="#e31b23" offset=".518"/><stop stop-color="#e31b23" offset=".522"/><stop stop-color="#e21b23" offset=".525"/><stop stop-color="#e21b23" offset=".529"/><stop stop-color="#e21b23" offset=".533"/><stop stop-color="#e21b23" offset=".537"/><stop stop-color="#e21b23" offset=".541"/><stop stop-color="#e21b23" offset=".545"/><stop stop-color="#e11a23" offset=".549"/><stop stop-color="#e11a23" offset=".553"/><stop stop-color="#e11a23" offset=".557"/><stop stop-color="#e11a23" offset=".561"/><stop stop-color="#e11a23" offset=".565"/><stop stop-color="#df1b23" offset=".569"/><stop stop-color="#df1b23" offset=".573"/><stop stop-color="#df1a23" offset=".576"/><stop stop-color="#df1a23" offset=".58"/><stop stop-color="#df1a23" offset=".584"/><stop stop-color="#de1a22" offset=".588"/><stop stop-color="#de1a22" offset=".592"/><stop stop-color="#de1a22" offset=".596"/><stop stop-color="#dd1a22" offset=".6"/><stop stop-color="#dd1a22" offset=".604"/><stop stop-color="#dc1a22" offset=".608"/><stop stop-color="#dc1a22" offset=".612"/><stop stop-color="#dc1a22" offset=".616"/><stop stop-color="#db1a22" offset=".62"/><stop stop-color="#da1a22" offset=".624"/><stop stop-color="#da1a22" offset=".627"/><stop stop-color="#d91a22" offset=".631"/><stop stop-color="#d91a22" offset=".635"/><stop stop-color="#d91a22" offset=".639"/><stop stop-color="#d81a22" offset=".643"/><stop stop-color="#d81a22" offset=".647"/><stop stop-color="#d71a22" offset=".651"/><stop stop-color="#d51a22" offset=".655"/><stop stop-color="#d51a22" offset=".659"/><stop stop-color="#d51a21" offset=".663"/><stop stop-color="#d41a21" offset=".667"/><stop stop-color="#d41a21" offset=".671"/><stop stop-color="#d31921" offset=".675"/><stop stop-color="#d21921" offset=".678"/><stop stop-color="#d11921" offset=".682"/><stop stop-color="#d11921" offset=".686"/><stop stop-color="#d01921" offset=".69"/><stop stop-color="#cf1921" offset=".694"/><stop stop-color="#cf1920" offset=".698"/><stop stop-color="#ce1920" offset=".702"/><stop stop-color="#cd1920" offset=".706"/><stop stop-color="#cc1920" offset=".71"/><stop stop-color="#cc1920" offset=".714"/><stop stop-color="#cb1920" offset=".718"/><stop stop-color="#ca1820" offset=".722"/><stop stop-color="#c9181f" offset=".725"/><stop stop-color="#c8181f" offset=".729"/><stop stop-color="#c7181f" offset=".733"/><stop stop-color="#c7181f" offset=".737"/><stop stop-color="#c6181f" offset=".741"/><stop stop-color="#c5181f" offset=".745"/><stop stop-color="#c4181e" offset=".749"/><stop stop-color="#c3171e" offset=".753"/><stop stop-color="#c2171e" offset=".757"/><stop stop-color="#c2171e" offset=".761"/><stop stop-color="#c1171e" offset=".765"/><stop stop-color="#c0171d" offset=".769"/><stop stop-color="#bf171d" offset=".773"/><stop stop-color="#be171d" offset=".776"/><stop stop-color="#bd161d" offset=".78"/><stop stop-color="#bb161d" offset=".784"/><stop stop-color="#bb161c" offset=".788"/><stop stop-color="#ba161c" offset=".792"/><stop stop-color="#b9161c" offset=".796"/><stop stop-color="#b8151c" offset=".8"/><stop stop-color="#b6151b" offset=".804"/><stop stop-color="#b6151b" offset=".808"/><stop stop-color="#b5151b" offset=".812"/><stop stop-color="#b4151b" offset=".816"/><stop stop-color="#b2151a" offset=".82"/><stop stop-color="#b1141a" offset=".824"/><stop stop-color="#b1141a" offset=".827"/><stop stop-color="#af1419" offset=".831"/><stop stop-color="#ae1419" offset=".835"/><stop stop-color="#ad1319" offset=".839"/><stop stop-color="#ac1318" offset=".843"/><stop stop-color="#ab1318" offset=".847"/><stop stop-color="#a91217" offset=".851"/><stop stop-color="#a81217" offset=".855"/><stop stop-color="#a81217" offset=".859"/><stop stop-color="#a61116" offset=".863"/><stop stop-color="#a51116" offset=".867"/><stop stop-color="#a31115" offset=".871"/><stop stop-color="#a21015" offset=".875"/><stop stop-color="#a11015" offset=".878"/><stop stop-color="#a01014" offset=".882"/><stop stop-color="#9f0f14" offset=".886"/><stop stop-color="#9d0f13" offset=".89"/><stop stop-color="#9c0f13" offset=".894"/><stop stop-color="#9b0e12" offset=".898"/><stop stop-color="#990e12" offset=".902"/><stop stop-color="#980e12" offset=".906"/><stop stop-color="#970d11" offset=".91"/><stop stop-color="#950d11" offset=".914"/><stop stop-color="#940c10" offset=".918"/><stop stop-color="#930b0f" offset=".922"/><stop stop-color="#910b0f" offset=".925"/><stop stop-color="#900a0f" offset=".929"/><stop stop-color="#8f0a0e" offset=".933"/><stop stop-color="#8e090e" offset=".937"/><stop stop-color="#8c090d" offset=".941"/><stop stop-color="#8b080c" offset=".945"/><stop stop-color="#89080b" offset=".949"/><stop stop-color="#88070a" offset=".953"/><stop stop-color="#87070a" offset=".957"/><stop stop-color="#850609" offset=".961"/><stop stop-color="#840508" offset=".965"/><stop stop-color="#830507" offset=".969"/><stop stop-color="#810407" offset=".973"/><stop stop-color="#800406" offset=".976"/><stop stop-color="#7e0305" offset=".98"/><stop stop-color="#7d0304" offset=".984"/><stop stop-color="#7c0203" offset=".988"/><stop stop-color="#7a0203" offset=".992"/><stop stop-color="#790102" offset=".996"/><stop stop-color="#770002" offset="1"/></radialGradient><radialGradient id="2" gradientUnits="userSpaceOnUse" cy="420.32" cx="267.31" r="126.18"><stop stop-color="#18b1e7"/><stop stop-color="#12b0e6" offset=".004"/><stop stop-color="#0dafe6" offset=".008"/><stop stop-color="#0dafe6" offset=".012"/><stop stop-color="#08afe6" offset=".016"/><stop stop-color="#0baee5" offset=".02"/><stop stop-color="#05ade5" offset=".024"/><stop stop-color="#05ade5" offset=".027"/><stop stop-color="#00ade4" offset=".031"/><stop stop-color="#00ace4" offset=".035"/><stop stop-color="#00ace4" offset=".039"/><stop stop-color="#00abe3" offset=".043"/><stop stop-color="#00aae3" offset=".047"/><stop stop-color="#00aae3" offset=".051"/><stop stop-color="#00aae2" offset=".055"/><stop stop-color="#00a9e2" offset=".059"/><stop stop-color="#00a8e1" offset=".063"/><stop stop-color="#00a8e1" offset=".067"/><stop stop-color="#00a8e1" offset=".071"/><stop stop-color="#00a7e1" offset=".075"/><stop stop-color="#00a7e1" offset=".078"/><stop stop-color="#00a6e0" offset=".082"/><stop stop-color="#00a5e0" offset=".086"/><stop stop-color="#00a5e0" offset=".09"/><stop stop-color="#00a5df" offset=".094"/><stop stop-color="#00a5df" offset=".098"/><stop stop-color="#00a4df" offset=".102"/><stop stop-color="#00a3de" offset=".106"/><stop stop-color="#00a3de" offset=".11"/><stop stop-color="#00a3de" offset=".114"/><stop stop-color="#00a2dd" offset=".118"/><stop stop-color="#00a1dd" offset=".122"/><stop stop-color="#00a1dd" offset=".125"/><stop stop-color="#00a1dd" offset=".129"/><stop stop-color="#00a0dc" offset=".133"/><stop stop-color="#00a0dc" offset=".137"/><stop stop-color="#009fdc" offset=".141"/><stop stop-color="#009edb" offset=".145"/><stop stop-color="#009edb" offset=".149"/><stop stop-color="#009edb" offset=".153"/><stop stop-color="#009dda" offset=".157"/><stop stop-color="#009dda" offset=".161"/><stop stop-color="#009cda" offset=".165"/><stop stop-color="#009cda" offset=".169"/><stop stop-color="#009cd9" offset=".173"/><stop stop-color="#009bd9" offset=".176"/><stop stop-color="#009ad9" offset=".18"/><stop stop-color="#009ad9" offset=".184"/><stop stop-color="#009ad8" offset=".188"/><stop stop-color="#0099d8" offset=".192"/><stop stop-color="#0098d7" offset=".196"/><stop stop-color="#0098d7" offset=".2"/><stop stop-color="#0098d7" offset=".204"/><stop stop-color="#0098d7" offset=".208"/><stop stop-color="#0097d6" offset=".212"/><stop stop-color="#0096d6" offset=".216"/><stop stop-color="#0096d5" offset=".22"/><stop stop-color="#0096d5" offset=".224"/><stop stop-color="#0095d5" offset=".227"/><stop stop-color="#0095d5" offset=".231"/><stop stop-color="#0094d5" offset=".235"/><stop stop-color="#0094d4" offset=".239"/><stop stop-color="#0093d4" offset=".243"/><stop stop-color="#0093d4" offset=".247"/><stop stop-color="#0092d3" offset=".251"/><stop stop-color="#0092d3" offset=".255"/><stop stop-color="#0091d2" offset=".259"/><stop stop-color="#0091d2" offset=".263"/><stop stop-color="#0090d2" offset=".267"/><stop stop-color="#0090d2" offset=".271"/><stop stop-color="#0090d1" offset=".275"/><stop stop-color="#008fd1" offset=".278"/><stop stop-color="#008fd1" offset=".282"/><stop stop-color="#008fd1" offset=".286"/><stop stop-color="#008ed0" offset=".29"/><stop stop-color="#008ed0" offset=".294"/><stop stop-color="#008dd0" offset=".298"/><stop stop-color="#008dcf" offset=".302"/><stop stop-color="#008ccf" offset=".306"/><stop stop-color="#008ccf" offset=".31"/><stop stop-color="#008bce" offset=".314"/><stop stop-color="#008bce" offset=".318"/><stop stop-color="#008ace" offset=".322"/><stop stop-color="#008ace" offset=".325"/><stop stop-color="#008acd" offset=".329"/><stop stop-color="#008acd" offset=".333"/><stop stop-color="#0089cd" offset=".337"/><stop stop-color="#08c" offset=".341"/><stop stop-color="#08c" offset=".345"/><stop stop-color="#08c" offset=".349"/><stop stop-color="#08c" offset=".353"/><stop stop-color="#0087cc" offset=".357"/><stop stop-color="#0087cb" offset=".361"/><stop stop-color="#0086cb" offset=".365"/><stop stop-color="#0086cb" offset=".369"/><stop stop-color="#0085ca" offset=".373"/><stop stop-color="#0085ca" offset=".376"/><stop stop-color="#0084c9" offset=".38"/><stop stop-color="#0084c9" offset=".384"/><stop stop-color="#0084c9" offset=".388"/><stop stop-color="#0084c9" offset=".392"/><stop stop-color="#0083c9" offset=".396"/><stop stop-color="#0082c8" offset=".4"/><stop stop-color="#0082c8" offset=".404"/><stop stop-color="#0082c8" offset=".408"/><stop stop-color="#0081c7" offset=".412"/><stop stop-color="#0081c7" offset=".416"/><stop stop-color="#0080c7" offset=".42"/><stop stop-color="#0080c7" offset=".424"/><stop stop-color="#007fc6" offset=".427"/><stop stop-color="#007fc6" offset=".431"/><stop stop-color="#007fc6" offset=".435"/><stop stop-color="#007ec5" offset=".439"/><stop stop-color="#007ec5" offset=".443"/><stop stop-color="#007ec5" offset=".447"/><stop stop-color="#007dc5" offset=".451"/><stop stop-color="#007dc5" offset=".455"/><stop stop-color="#007cc4" offset=".459"/><stop stop-color="#007cc4" offset=".463"/><stop stop-color="#007bc3" offset=".467"/><stop stop-color="#007bc3" offset=".471"/><stop stop-color="#007bc3" offset=".475"/><stop stop-color="#007bc3" offset=".478"/><stop stop-color="#007ac3" offset=".482"/><stop stop-color="#007ac2" offset=".486"/><stop stop-color="#0079c2" offset=".49"/><stop stop-color="#0079c2" offset=".494"/><stop stop-color="#0079c1" offset=".498"/><stop stop-color="#0079c1" offset=".502"/><stop stop-color="#0079c1" offset=".506"/><stop stop-color="#0079c1" offset=".51"/><stop stop-color="#0079c1" offset=".514"/><stop stop-color="#0079c1" offset=".518"/><stop stop-color="#0079c1" offset=".522"/><stop stop-color="#0079c1" offset=".525"/><stop stop-color="#0078c0" offset=".529"/><stop stop-color="#0078c0" offset=".533"/><stop stop-color="#0077c0" offset=".537"/><stop stop-color="#0077c0" offset=".541"/><stop stop-color="#0077c0" offset=".545"/><stop stop-color="#0077c0" offset=".549"/><stop stop-color="#0077bf" offset=".553"/><stop stop-color="#0077bf" offset=".557"/><stop stop-color="#0077bf" offset=".561"/><stop stop-color="#0077bf" offset=".565"/><stop stop-color="#0076be" offset=".569"/><stop stop-color="#0076be" offset=".573"/><stop stop-color="#0075bd" offset=".576"/><stop stop-color="#0075bd" offset=".58"/><stop stop-color="#0075bd" offset=".584"/><stop stop-color="#0075bd" offset=".588"/><stop stop-color="#0075bc" offset=".592"/><stop stop-color="#0075bc" offset=".596"/><stop stop-color="#0074bb" offset=".6"/><stop stop-color="#0074bb" offset=".604"/><stop stop-color="#0073ba" offset=".608"/><stop stop-color="#0073ba" offset=".612"/><stop stop-color="#0073b9" offset=".616"/><stop stop-color="#0073b9" offset=".62"/><stop stop-color="#0072b9" offset=".624"/><stop stop-color="#0072b9" offset=".627"/><stop stop-color="#0071b8" offset=".631"/><stop stop-color="#0071b8" offset=".635"/><stop stop-color="#0071b7" offset=".639"/><stop stop-color="#0071b7" offset=".643"/><stop stop-color="#0070b6" offset=".647"/><stop stop-color="#0070b6" offset=".651"/><stop stop-color="#0070b6" offset=".655"/><stop stop-color="#0070b5" offset=".659"/><stop stop-color="#006fb4" offset=".663"/><stop stop-color="#006fb4" offset=".667"/><stop stop-color="#006eb4" offset=".671"/><stop stop-color="#006eb3" offset=".675"/><stop stop-color="#006eb3" offset=".678"/><stop stop-color="#006db2" offset=".682"/><stop stop-color="#006db2" offset=".686"/><stop stop-color="#006cb1" offset=".69"/><stop stop-color="#006cb1" offset=".694"/><stop stop-color="#006bb0" offset=".698"/><stop stop-color="#006bb0" offset=".702"/><stop stop-color="#006baf" offset=".706"/><stop stop-color="#006aae" offset=".71"/><stop stop-color="#0069ad" offset=".714"/><stop stop-color="#0069ad" offset=".718"/><stop stop-color="#0069ad" offset=".722"/><stop stop-color="#0068ac" offset=".725"/><stop stop-color="#0068ab" offset=".729"/><stop stop-color="#0067ab" offset=".733"/><stop stop-color="#0067aa" offset=".737"/><stop stop-color="#0067aa" offset=".741"/><stop stop-color="#0066a9" offset=".745"/><stop stop-color="#0065a8" offset=".749"/><stop stop-color="#0065a7" offset=".753"/><stop stop-color="#0064a7" offset=".757"/><stop stop-color="#0063a6" offset=".761"/><stop stop-color="#0063a5" offset=".765"/><stop stop-color="#0062a4" offset=".769"/><stop stop-color="#0062a4" offset=".773"/><stop stop-color="#0061a2" offset=".776"/><stop stop-color="#0060a2" offset=".78"/><stop stop-color="#0060a1" offset=".784"/><stop stop-color="#005fa0" offset=".788"/><stop stop-color="#005fa0" offset=".792"/><stop stop-color="#005e9f" offset=".796"/><stop stop-color="#005d9e" offset=".8"/><stop stop-color="#005d9d" offset=".804"/><stop stop-color="#005c9c" offset=".808"/><stop stop-color="#005c9c" offset=".812"/><stop stop-color="#005b9b" offset=".816"/><stop stop-color="#005a99" offset=".82"/><stop stop-color="#005999" offset=".824"/><stop stop-color="#005998" offset=".827"/><stop stop-color="#005897" offset=".831"/><stop stop-color="#005796" offset=".835"/><stop stop-color="#005695" offset=".839"/><stop stop-color="#005695" offset=".843"/><stop stop-color="#005594" offset=".847"/><stop stop-color="#005593" offset=".851"/><stop stop-color="#005492" offset=".855"/><stop stop-color="#005391" offset=".859"/><stop stop-color="#005290" offset=".863"/><stop stop-color="#00518f" offset=".867"/><stop stop-color="#00518e" offset=".871"/><stop stop-color="#00508d" offset=".875"/><stop stop-color="#004f8c" offset=".878"/><stop stop-color="#004e8b" offset=".882"/><stop stop-color="#004d8a" offset=".886"/><stop stop-color="#004d89" offset=".89"/><stop stop-color="#004c88" offset=".894"/><stop stop-color="#004b86" offset=".898"/><stop stop-color="#004a85" offset=".902"/><stop stop-color="#004984" offset=".906"/><stop stop-color="#004883" offset=".91"/><stop stop-color="#004882" offset=".914"/><stop stop-color="#004681" offset=".918"/><stop stop-color="#004680" offset=".922"/><stop stop-color="#00457f" offset=".925"/><stop stop-color="#00447e" offset=".929"/><stop stop-color="#00437d" offset=".933"/><stop stop-color="#00437c" offset=".937"/><stop stop-color="#00417a" offset=".941"/><stop stop-color="#00417a" offset=".945"/><stop stop-color="#004078" offset=".949"/><stop stop-color="#003f77" offset=".953"/><stop stop-color="#003e76" offset=".957"/><stop stop-color="#003d74" offset=".961"/><stop stop-color="#003b73" offset=".965"/><stop stop-color="#003b72" offset=".969"/><stop stop-color="#003a71" offset=".973"/><stop stop-color="#003970" offset=".976"/><stop stop-color="#00386f" offset=".98"/><stop stop-color="#00376d" offset=".984"/><stop stop-color="#00366c" offset=".988"/><stop stop-color="#00346b" offset=".992"/><stop stop-color="#00336a" offset=".996"/><stop stop-color="#003369" offset="1"/></radialGradient><radialGradient id="0" gradientUnits="userSpaceOnUse" cy="84.1" cx="125.63" r="126.18" xlink:href="#2"/><radialGradient id="1" xlink:href="#3" gradientUnits="userSpaceOnUse" cy="63.07" cx="62.55" r="114.16"/></defs><g fill="url(#0)"><path d="m88.56.471s58.967 67.5 60.45 68.06c1.508.564 10.04 5.254 13.802 5.711 3.549.411 3.899-1.246 3.808-3.332-.076-1.706-3.206-9.359-2.856-8.567 0 0-4.836-17.899-10.471-17.61-5.63.274-26.34-14.792-29.98-17.61s-34.742-26.654-34.742-26.654z"/><path d="m37.637 13.801l86.15 98.52s19.03 12.458 29.508 13.326c2.68.228 4.824-1.112 5.235-3.808.731-4.858-5.711-29.03-5.711-29.03s-11.301-.803-43.787-24.273c-32.472-23.47-71.39-54.734-71.39-54.734z"/><path d="m4.797 55.21s69.66 81.57 75.2 86.62c5.559 5.056 25.522 18.02 35.696 19.04 1.934.183 3.156.152 4.284-1.904 1.584-2.879-5.711-24.273-5.711-24.273s-5.403-3.446-24.273-15.706c-25.384-16.47-85.19-63.779-85.19-63.779z"/><path d="m3.837 107.56s12.946 20.705 38.08 44.739c4.295 4.112 14.12 10.1 19.04 11.899 4.462 1.66 5.795 2.768 6.663 1.427.533-.822 2.38-9.04 2.38-9.04s-16.848-11.1-27.13-18.562c-9.02-6.564-39.03-30.46-39.03-30.46"/></g><g fill="url(#1)"><path d="m111.88 5.231s14.617 14.15 29.984 30.936c18.505 20.21 24.273 32.84 24.273 32.84s-2.528-21.12-17.13-38.08c-13.95-16.17-26.04-22.11-37.12-25.701z"/><path d="m83.33 0c-2.498 0-6.332.327-10.947.952-7.387.975-13.327 2.856-13.327 2.856s25.986 25.644 46.17 47.12c17.926 19.07 32.11 35.749 48.546 59.49 4.721 6.823 4.759 12.374 4.759 12.374 5.117-9.245 8.369-24.05 8.567-28.557.18-4.504-9.24-17.454-23.33-34.74-14.09-17.256-55.21-59.02-55.21-59.02s-1.458-.475-5.235-.475z"/></g><g fill="url(#1)"><path d="m37.637 13.801s-4.733 3.21-10.947 9.04c-6.214 5.818-10.471 11.423-10.471 11.423s40.459 41.16 58.06 59.969c20.606 21.977 44.03 53.19 45.22 59.969.822 4.706-.475 5.711-.475 5.711s5.746-1.755 13.802-8.091c11.255-8.879 12.751-8.08 9.995-15.706-2.21-6.13-16.67-29.81-46.631-61.39-35.05-36.948-58.54-60.921-58.54-60.921z"/><path d="m4.797 55.21s-2.543 8.609-3.808 15.706c-1.279 7.113-.952 13.326-.952 13.326s19.559 19.2 34.744 35.696c15.428 16.738 33.56 38.548 33.32 43.787-.107 2.026-1.427 2.38-1.427 2.38s13.02 2.559 18.562 1.904c9.595-1.142 10.143-.076 11.423-2.856 1.706-3.731-8.944-21.406-34.744-50.45-25.998-29.24-57.11-59.49-57.11-59.49z"/><path d="m3.837 107.56s2.49 14.808 19.99 34.744c8.438 9.61 20.04 15.729 21.893 14.754 1.858-.98-15.718-18.14-22.845-26.17-7.128-8.01-19.04-23.32-19.04-23.32z"/></g><g fill="#0079c1"><path d="m240.24 10.551h-30.08v41.982h13.206v-31.581h12.796c1.387-.016 1.828.693 1.828 2.238v29.344h13.222v-30.51c0-6.824-2.931-11.473-10.968-11.473"/><path d="m330.44 38.807l-10.748-28.26h-14.1l17.18 41.982h14.499l17.351-41.982h-13.663l-10.511 28.26z"/><path d="m270.75 10.5c-8.02 0-10.969 4.645-10.969 11.469v19.09c0 6.824 2.948 11.469 10.969 11.469h20.969c8.02 0 10.938-4.645 10.938-11.469v-19.09c0-6.824-2.916-11.469-10.938-11.469h-20.969m4.094 10.375h12.781c1.387 0 1.844.706 1.844 2.25v7.844 8.906c0 1.56-.457 2.25-1.844 2.25h-12.781c-1.402 0-1.844-.69-1.844-2.25v-7.813h.031v-8.938c0-1.544.426-2.25 1.813-2.25"/><path d="m360 10.562l-2.031 11.06c2.364-1.01 5.081-1.125 12.156-1.125h10.875c1.481 0 1.906.659 1.906 2.219v3.563h-17.09c-8.116 0-11.03 4.662-11.03 11.313v3.469c0 6.808 3.01 11.469 11.03 11.469h30.406v-30.594c0-6.729-2.932-11.375-11.03-11.375h-25.19zm9.594 24.969h13.313v7.156h-13.406c-1.466 0-2-.767-2-2.406v-2.406c0-1.45.534-2.344 2.094-2.344"/></g><g fill="#004b8d"><path d="m516.13 83.38c-4.334 0-7.533.93-9.582 2.774-2.049 1.844-3.325 4.16-3.829 6.95l-9.739 53.802h-25.986l10.921-60.751c2.285-9.818 7.218-15.254 12.907-18.407 5.673-3.136 12.718-4.728 21.13-4.728h25.782l-4.02 20.361h-17.587z"/><path d="m569.38 126.46h19.13l-3.703 20.439h-21.543c-11.441 0-19.21-2.317-23.292-6.934-4.066-4.633-5.437-10.637-4.097-17.981l14.09-76.58 26.287-3.357-3.798 20.976h27.54l-3.782 20.282h-27.546l-6.319 35.536c-.756 4.649 1.56 7.612 7.03 7.612"/><path d="m418.22 63.03c-8.415 0-15.451 1.567-21.12 4.719-5.689 3.152-10.621 8.588-12.906 18.406l-6.469 35.844c-1.339 7.344.028 13.336 4.094 17.969 4.082 4.617 11.824 6.938 23.281 6.938h18.719c8.415 0 15.466-1.567 21.12-4.719 5.689-3.152 10.621-8.572 12.906-18.406l6.469-35.844c1.324-7.344-.059-13.336-4.125-17.969-4.082-4.633-11.824-6.938-23.281-6.938h-18.688m12.625 20.313c5.468 0 7.788 2.96 7.03 7.625l.031.031-4.813 25.719c-.504 2.789-1.764 5.109-3.813 6.969-2.049 1.844-5.26 2.75-9.594 2.75l-8.469.031c-5.468 0-7.772-2.976-7.03-7.625l4.781-25.75c.504-2.805 1.764-5.125 3.813-6.969 2.049-1.844 5.26-2.75 9.594-2.75l8.469-.031"/><path d="m324.59 63.03c-8.415 0-15.451 1.567-21.12 4.719-5.689 3.152-10.621 8.588-12.906 18.406l-16.844 92.5h26l6.531-36.09.125-.031c2.789 2.553 7.464 4.375 15.469 4.375h8.344c8.415 0 15.466-1.567 21.12-4.719 5.689-3.152 10.621-8.572 12.906-18.406l6.469-35.844c1.324-7.344-.028-13.336-4.094-17.969-4.082-4.633-11.824-6.938-23.281-6.938h-18.719m4.187 20.344h8.469c5.468 0 7.788 2.96 7.03 7.625l-4.813 25.719c-.504 2.789-1.764 5.109-3.813 6.969-2.049 1.844-5.26 2.75-9.594 2.75l-8.469.031c-5.468 0-7.772-2.976-7.03-7.625l4.813-25.719c.504-2.805 1.764-5.125 3.813-6.969 2.049-1.844 5.26-2.781 9.594-2.781"/><path d="m201.04 129.08h38.31c9.314 0 10.953-9.629 3.64-12.402-7.817-2.947-13.317-4.964-22.536-8.478-10.763-4.082-15.87-14.782-13.03-25.357 2.742-10.212 13.631-19.81 28.35-19.81h46.868l-3.656 17.335h-35.615c-8.08 0-9.534 7.88-3.546 10.01 6.824 2.443 13.6 4.901 23.765 8.62 10.133 3.688 14.373 16.484 11.93 26.507-2.679 11.02-12.875 21.401-27.342 21.401h-50.19l3.057-17.823"/></g></svg>