<?xml version="1.0" encoding="UTF-8" standalone="no"?>
<svg xmlns="http://www.w3.org/2000/svg" height="182.92" width="600" version="1.1" viewBox="0 0 158.75 48.396502">
 <g transform="translate(90.128 9.0095)">
  <g fill="#39538c">
   <path d="m-83.135 29.95c0.446 2.035 1.748 3.095 4.23 3.095 2.12 0 3.459-0.817 3.459-2.24 0-4.882-14.077-1.59-14.077-11.958 0-5.002 4.602-8.749 10.414-8.749 5.941 0 9.922 3.217 10.618 8.015l-7 1.423c-0.447-2.112-1.665-3.088-3.86-3.088-1.869 0-3.012 0.81-3.012 2.195 0 4.473 14.077 1.218 14.077 11.957 0 5.003-4.723 8.787-10.823 8.787-6.138 0-10.414-3.338-11.019-8.052z"/>
   <path d="m-51.246 24.133c2.361 0 3.867-1.589 3.867-3.738 0-2.202-1.506-3.784-3.867-3.784h-5.654v7.522zm-12.571-13.63h12.571c6.751 0 11.027 4.231 11.027 9.968 0 5.736-4.276 9.762-11.027 9.762h-5.654v8.749h-6.917z"/>
   <path d="m-22.531 33.041c4.473 0 7.894-3.617 7.894-8.295 0-4.684-3.421-8.302-7.894-8.302-4.472 0-7.893 3.618-7.893 8.302 0 4.678 3.421 8.295 7.893 8.295m0-22.939c8.499 0 15.054 6.388 15.054 14.644-0.0005 8.257-6.555 14.637-15.054 14.637-8.498 0-15.052-6.38-15.052-14.637 0-8.256 6.554-14.644 15.052-14.644"/>
   <path d="m9.195 23.32c2.074 0 3.413-1.423 3.413-3.338 0-1.952-1.339-3.375-3.413-3.375h-5.6912v6.713zm-2.891 6.304h-2.8002v9.354h-6.9173v-28.471h12.608c6.4635 0 10.574 4.064 10.574 9.559 0 3.988-2.195 7.197-5.813 8.703l6.63 10.209h-8.219z"/>
   <path d="m29.775 16.609h-8.34v-6.1h23.597v6.1h-8.34v22.371h-6.917z"/>
  </g>
  <path d="m47.469 32.879 11.837-9.846c1.059-0.893 1.952-2.074 1.952-3.701 0-1.544-1.014-2.883-3.421-2.883-1.99 0-3.413 1.18-3.413 3.738l-7.159-0.809c0.408-6.108 4.435-9.279 10.572-9.279 6.229 0 10.581 3.376 10.581 9.029 0 3.701-2.157 6.758-4.761 8.787l-6.183 4.964h11.148v6.1h-21.153z" fill="#4fc5d5"/>
  <path d="m-78.6-8.9792h-10.512v14.674h4.609v-11.034h4.48c0.484-0.0073 0.628 0.2348 0.628 0.7797v10.255h4.632v-10.664c0-2.3836-1.03-4.0107-3.837-4.0107m31.536 9.8763-3.761-9.8763h-4.927l6.001 14.674h5.071l6.062-14.674h-4.768zm-13.539-9.9066h-7.334c-2.808 0-3.829 1.6271-3.829 4.0187v6.675c0 2.384 1.021 4.0111 3.829 4.0111h7.334c2.8 0 3.829-1.6271 3.829-4.0111v-6.675c0-2.3916-1.029-4.0187-3.829-4.0187m-0.795 7.1594v3.1256c0 0.5374-0.151 0.7871-0.636 0.7871h-4.472c-0.492 0-0.644-0.2497-0.644-0.7871v-2.732h0.008v-3.1257c0-0.5449 0.151-0.7795 0.636-0.7795h4.472c0.485 0 0.636 0.2346 0.636 0.7795zm33.466-7.1216h-8.802l-0.711 3.8598c0.825-0.3482 1.779-0.3936 4.253-0.3936h3.807c0.515 0 0.666 0.2346 0.666 0.7871v1.2336h-5.979c-2.838 0-3.859 1.6347-3.859 3.9581v1.2109c0 2.3764 1.059 4.0111 3.859 4.0111h10.618v-10.694c0-2.3534-1.021-3.973-3.852-3.973m-0.787 11.224h-4.692c-0.515 0-0.696-0.2649-0.696-0.84v-0.84009c0-0.51464 0.181-0.81735 0.726-0.81735h4.662z" fill="#39538c"/>
 </g>
</svg>
