<svg xmlns="http://www.w3.org/2000/svg" xmlns:xlink="http://www.w3.org/1999/xlink" viewBox="0 0 600 136"><defs><radialGradient id="3" gradientUnits="userSpaceOnUse" cy="405.56" cx="260.9" r="86.91"><stop stop-color="#f47a54"/><stop stop-color="#f47a54" offset=".004"/><stop stop-color="#f47953" offset=".008"/><stop stop-color="#f47853" offset=".012"/><stop stop-color="#f47853" offset=".016"/><stop stop-color="#f47853" offset=".02"/><stop stop-color="#f47752" offset=".024"/><stop stop-color="#f27550" offset=".027"/><stop stop-color="#f27550" offset=".031"/><stop stop-color="#f27550" offset=".035"/><stop stop-color="#f27450" offset=".039"/><stop stop-color="#f2744f" offset=".043"/><stop stop-color="#f2734f" offset=".047"/><stop stop-color="#f2724e" offset=".051"/><stop stop-color="#f2714d" offset=".055"/><stop stop-color="#f2714d" offset=".059"/><stop stop-color="#f1714d" offset=".063"/><stop stop-color="#f1704c" offset=".067"/><stop stop-color="#f1704c" offset=".071"/><stop stop-color="#f06e4b" offset=".075"/><stop stop-color="#f06e4a" offset=".078"/><stop stop-color="#f06e4a" offset=".082"/><stop stop-color="#f06d4a" offset=".086"/><stop stop-color="#f06c49" offset=".09"/><stop stop-color="#f06b49" offset=".094"/><stop stop-color="#f06b48" offset=".098"/><stop stop-color="#ef6a47" offset=".102"/><stop stop-color="#ef6a47" offset=".106"/><stop stop-color="#ef6a47" offset=".11"/><stop stop-color="#ef6946" offset=".114"/><stop stop-color="#ef6846" offset=".118"/><stop stop-color="#ef6846" offset=".122"/><stop stop-color="#ee6745" offset=".125"/><stop stop-color="#e64" offset=".129"/><stop stop-color="#ee6544" offset=".133"/><stop stop-color="#ee6543" offset=".137"/><stop stop-color="#ee6443" offset=".141"/><stop stop-color="#ee6342" offset=".145"/><stop stop-color="#ee6342" offset=".149"/><stop stop-color="#ed6241" offset=".153"/><stop stop-color="#ed6241" offset=".157"/><stop stop-color="#ed6241" offset=".161"/><stop stop-color="#ed6140" offset=".165"/><stop stop-color="#ed6040" offset=".169"/><stop stop-color="#ec5e3f" offset=".173"/><stop stop-color="#ec5e3e" offset=".176"/><stop stop-color="#ec5e3e" offset=".18"/><stop stop-color="#ec5d3d" offset=".184"/><stop stop-color="#ec5d3d" offset=".188"/><stop stop-color="#ec5c3d" offset=".192"/><stop stop-color="#ec5b3d" offset=".196"/><stop stop-color="#ec5b3c" offset=".2"/><stop stop-color="#ec5a3b" offset=".204"/><stop stop-color="#ec593b" offset=".208"/><stop stop-color="#ec583b" offset=".212"/><stop stop-color="#ec583b" offset=".216"/><stop stop-color="#ec583a" offset=".22"/><stop stop-color="#eb5639" offset=".224"/><stop stop-color="#eb5639" offset=".227"/><stop stop-color="#ea5538" offset=".231"/><stop stop-color="#ea5438" offset=".235"/><stop stop-color="#ea5438" offset=".239"/><stop stop-color="#ea5438" offset=".243"/><stop stop-color="#ea5337" offset=".247"/><stop stop-color="#ea5236" offset=".251"/><stop stop-color="#ea5236" offset=".255"/><stop stop-color="#ea5136" offset=".259"/><stop stop-color="#ea5036" offset=".263"/><stop stop-color="#ea5035" offset=".267"/><stop stop-color="#e94e34" offset=".271"/><stop stop-color="#e94e34" offset=".275"/><stop stop-color="#e94e34" offset=".278"/><stop stop-color="#e94d34" offset=".282"/><stop stop-color="#e94c33" offset=".286"/><stop stop-color="#e94b33" offset=".29"/><stop stop-color="#e94b32" offset=".294"/><stop stop-color="#e94a32" offset=".298"/><stop stop-color="#e94932" offset=".302"/><stop stop-color="#e94931" offset=".306"/><stop stop-color="#e84731" offset=".31"/><stop stop-color="#e84630" offset=".314"/><stop stop-color="#e84630" offset=".318"/><stop stop-color="#e74530" offset=".322"/><stop stop-color="#e7442f" offset=".325"/><stop stop-color="#e7432f" offset=".329"/><stop stop-color="#e7432e" offset=".333"/><stop stop-color="#e7422e" offset=".337"/><stop stop-color="#e7412e" offset=".341"/><stop stop-color="#e7412d" offset=".345"/><stop stop-color="#e7402d" offset=".349"/><stop stop-color="#e73f2d" offset=".353"/><stop stop-color="#e73f2d" offset=".357"/><stop stop-color="#e73e2c" offset=".361"/><stop stop-color="#e73d2c" offset=".365"/><stop stop-color="#e63c2c" offset=".369"/><stop stop-color="#e63c2b" offset=".373"/><stop stop-color="#e63b2b" offset=".376"/><stop stop-color="#e6392b" offset=".38"/><stop stop-color="#e6392b" offset=".384"/><stop stop-color="#e6382a" offset=".388"/><stop stop-color="#e6372a" offset=".392"/><stop stop-color="#e6372a" offset=".396"/><stop stop-color="#e63629" offset=".4"/><stop stop-color="#e63529" offset=".404"/><stop stop-color="#e63328" offset=".408"/><stop stop-color="#e63328" offset=".412"/><stop stop-color="#e63228" offset=".416"/><stop stop-color="#e53027" offset=".42"/><stop stop-color="#e53027" offset=".424"/><stop stop-color="#e52f27" offset=".427"/><stop stop-color="#e52e27" offset=".431"/><stop stop-color="#e52e27" offset=".435"/><stop stop-color="#e42c27" offset=".439"/><stop stop-color="#e42b26" offset=".443"/><stop stop-color="#e42926" offset=".447"/><stop stop-color="#e42926" offset=".451"/><stop stop-color="#e42825" offset=".455"/><stop stop-color="#e42625" offset=".459"/><stop stop-color="#e42625" offset=".463"/><stop stop-color="#e32524" offset=".467"/><stop stop-color="#e32324" offset=".471"/><stop stop-color="#e32324" offset=".475"/><stop stop-color="#e32224" offset=".478"/><stop stop-color="#e32024" offset=".482"/><stop stop-color="#e31e24" offset=".486"/><stop stop-color="#e31e23" offset=".49"/><stop stop-color="#e31d23" offset=".494"/><stop stop-color="#e31b23" offset=".498"/><stop stop-color="#e31b23" offset=".502"/><stop stop-color="#e31b23" offset=".506"/><stop stop-color="#e31b23" offset=".51"/><stop stop-color="#e31b23" offset=".514"/><stop stop-color="#e31b23" offset=".518"/><stop stop-color="#e31b23" offset=".522"/><stop stop-color="#e21b23" offset=".525"/><stop stop-color="#e21b23" offset=".529"/><stop stop-color="#e21b23" offset=".533"/><stop stop-color="#e21b23" offset=".537"/><stop stop-color="#e21b23" offset=".541"/><stop stop-color="#e21b23" offset=".545"/><stop stop-color="#e11a23" offset=".549"/><stop stop-color="#e11a23" offset=".553"/><stop stop-color="#e11a23" offset=".557"/><stop stop-color="#e11a23" offset=".561"/><stop stop-color="#e11a23" offset=".565"/><stop stop-color="#df1b23" offset=".569"/><stop stop-color="#df1b23" offset=".573"/><stop stop-color="#df1a23" offset=".576"/><stop stop-color="#df1a23" offset=".58"/><stop stop-color="#df1a23" offset=".584"/><stop stop-color="#de1a22" offset=".588"/><stop stop-color="#de1a22" offset=".592"/><stop stop-color="#de1a22" offset=".596"/><stop stop-color="#dd1a22" offset=".6"/><stop stop-color="#dd1a22" offset=".604"/><stop stop-color="#dc1a22" offset=".608"/><stop stop-color="#dc1a22" offset=".612"/><stop stop-color="#dc1a22" offset=".616"/><stop stop-color="#db1a22" offset=".62"/><stop stop-color="#da1a22" offset=".624"/><stop stop-color="#da1a22" offset=".627"/><stop stop-color="#d91a22" offset=".631"/><stop stop-color="#d91a22" offset=".635"/><stop stop-color="#d91a22" offset=".639"/><stop stop-color="#d81a22" offset=".643"/><stop stop-color="#d81a22" offset=".647"/><stop stop-color="#d71a22" offset=".651"/><stop stop-color="#d51a22" offset=".655"/><stop stop-color="#d51a22" offset=".659"/><stop stop-color="#d51a21" offset=".663"/><stop stop-color="#d41a21" offset=".667"/><stop stop-color="#d41a21" offset=".671"/><stop stop-color="#d31921" offset=".675"/><stop stop-color="#d21921" offset=".678"/><stop stop-color="#d11921" offset=".682"/><stop stop-color="#d11921" offset=".686"/><stop stop-color="#d01921" offset=".69"/><stop stop-color="#cf1921" offset=".694"/><stop stop-color="#cf1920" offset=".698"/><stop stop-color="#ce1920" offset=".702"/><stop stop-color="#cd1920" offset=".706"/><stop stop-color="#cc1920" offset=".71"/><stop stop-color="#cc1920" offset=".714"/><stop stop-color="#cb1920" offset=".718"/><stop stop-color="#ca1820" offset=".722"/><stop stop-color="#c9181f" offset=".725"/><stop stop-color="#c8181f" offset=".729"/><stop stop-color="#c7181f" offset=".733"/><stop stop-color="#c7181f" offset=".737"/><stop stop-color="#c6181f" offset=".741"/><stop stop-color="#c5181f" offset=".745"/><stop stop-color="#c4181e" offset=".749"/><stop stop-color="#c3171e" offset=".753"/><stop stop-color="#c2171e" offset=".757"/><stop stop-color="#c2171e" offset=".761"/><stop stop-color="#c1171e" offset=".765"/><stop stop-color="#c0171d" offset=".769"/><stop stop-color="#bf171d" offset=".773"/><stop stop-color="#be171d" offset=".776"/><stop stop-color="#bd161d" offset=".78"/><stop stop-color="#bb161d" offset=".784"/><stop stop-color="#bb161c" offset=".788"/><stop stop-color="#ba161c" offset=".792"/><stop stop-color="#b9161c" offset=".796"/><stop stop-color="#b8151c" offset=".8"/><stop stop-color="#b6151b" offset=".804"/><stop stop-color="#b6151b" offset=".808"/><stop stop-color="#b5151b" offset=".812"/><stop stop-color="#b4151b" offset=".816"/><stop stop-color="#b2151a" offset=".82"/><stop stop-color="#b1141a" offset=".824"/><stop stop-color="#b1141a" offset=".827"/><stop stop-color="#af1419" offset=".831"/><stop stop-color="#ae1419" offset=".835"/><stop stop-color="#ad1319" offset=".839"/><stop stop-color="#ac1318" offset=".843"/><stop stop-color="#ab1318" offset=".847"/><stop stop-color="#a91217" offset=".851"/><stop stop-color="#a81217" offset=".855"/><stop stop-color="#a81217" offset=".859"/><stop stop-color="#a61116" offset=".863"/><stop stop-color="#a51116" offset=".867"/><stop stop-color="#a31115" offset=".871"/><stop stop-color="#a21015" offset=".875"/><stop stop-color="#a11015" offset=".878"/><stop stop-color="#a01014" offset=".882"/><stop stop-color="#9f0f14" offset=".886"/><stop stop-color="#9d0f13" offset=".89"/><stop stop-color="#9c0f13" offset=".894"/><stop stop-color="#9b0e12" offset=".898"/><stop stop-color="#990e12" offset=".902"/><stop stop-color="#980e12" offset=".906"/><stop stop-color="#970d11" offset=".91"/><stop stop-color="#950d11" offset=".914"/><stop stop-color="#940c10" offset=".918"/><stop stop-color="#930b0f" offset=".922"/><stop stop-color="#910b0f" offset=".925"/><stop stop-color="#900a0f" offset=".929"/><stop stop-color="#8f0a0e" offset=".933"/><stop stop-color="#8e090e" offset=".937"/><stop stop-color="#8c090d" offset=".941"/><stop stop-color="#8b080c" offset=".945"/><stop stop-color="#89080b" offset=".949"/><stop stop-color="#88070a" offset=".953"/><stop stop-color="#87070a" offset=".957"/><stop stop-color="#850609" offset=".961"/><stop stop-color="#840508" offset=".965"/><stop stop-color="#830507" offset=".969"/><stop stop-color="#810407" offset=".973"/><stop stop-color="#800406" offset=".976"/><stop stop-color="#7e0305" offset=".98"/><stop stop-color="#7d0304" offset=".984"/><stop stop-color="#7c0203" offset=".988"/><stop stop-color="#7a0203" offset=".992"/><stop stop-color="#790102" offset=".996"/><stop stop-color="#770002" offset="1"/></radialGradient><radialGradient id="2" gradientUnits="userSpaceOnUse" cy="421.57" cx="308.93" r="96.06"><stop stop-color="#18b1e7"/><stop stop-color="#12b0e6" offset=".004"/><stop stop-color="#0dafe6" offset=".008"/><stop stop-color="#0dafe6" offset=".012"/><stop stop-color="#08afe6" offset=".016"/><stop stop-color="#0baee5" offset=".02"/><stop stop-color="#05ade5" offset=".024"/><stop stop-color="#05ade5" offset=".027"/><stop stop-color="#00ade4" offset=".031"/><stop stop-color="#00ace4" offset=".035"/><stop stop-color="#00ace4" offset=".039"/><stop stop-color="#00abe3" offset=".043"/><stop stop-color="#00aae3" offset=".047"/><stop stop-color="#00aae3" offset=".051"/><stop stop-color="#00aae2" offset=".055"/><stop stop-color="#00a9e2" offset=".059"/><stop stop-color="#00a8e1" offset=".063"/><stop stop-color="#00a8e1" offset=".067"/><stop stop-color="#00a8e1" offset=".071"/><stop stop-color="#00a7e1" offset=".075"/><stop stop-color="#00a7e1" offset=".078"/><stop stop-color="#00a6e0" offset=".082"/><stop stop-color="#00a5e0" offset=".086"/><stop stop-color="#00a5e0" offset=".09"/><stop stop-color="#00a5df" offset=".094"/><stop stop-color="#00a5df" offset=".098"/><stop stop-color="#00a4df" offset=".102"/><stop stop-color="#00a3de" offset=".106"/><stop stop-color="#00a3de" offset=".11"/><stop stop-color="#00a3de" offset=".114"/><stop stop-color="#00a2dd" offset=".118"/><stop stop-color="#00a1dd" offset=".122"/><stop stop-color="#00a1dd" offset=".125"/><stop stop-color="#00a1dd" offset=".129"/><stop stop-color="#00a0dc" offset=".133"/><stop stop-color="#00a0dc" offset=".137"/><stop stop-color="#009fdc" offset=".141"/><stop stop-color="#009edb" offset=".145"/><stop stop-color="#009edb" offset=".149"/><stop stop-color="#009edb" offset=".153"/><stop stop-color="#009dda" offset=".157"/><stop stop-color="#009dda" offset=".161"/><stop stop-color="#009cda" offset=".165"/><stop stop-color="#009cda" offset=".169"/><stop stop-color="#009cd9" offset=".173"/><stop stop-color="#009bd9" offset=".176"/><stop stop-color="#009ad9" offset=".18"/><stop stop-color="#009ad9" offset=".184"/><stop stop-color="#009ad8" offset=".188"/><stop stop-color="#0099d8" offset=".192"/><stop stop-color="#0098d7" offset=".196"/><stop stop-color="#0098d7" offset=".2"/><stop stop-color="#0098d7" offset=".204"/><stop stop-color="#0098d7" offset=".208"/><stop stop-color="#0097d6" offset=".212"/><stop stop-color="#0096d6" offset=".216"/><stop stop-color="#0096d5" offset=".22"/><stop stop-color="#0096d5" offset=".224"/><stop stop-color="#0095d5" offset=".227"/><stop stop-color="#0095d5" offset=".231"/><stop stop-color="#0094d5" offset=".235"/><stop stop-color="#0094d4" offset=".239"/><stop stop-color="#0093d4" offset=".243"/><stop stop-color="#0093d4" offset=".247"/><stop stop-color="#0092d3" offset=".251"/><stop stop-color="#0092d3" offset=".255"/><stop stop-color="#0091d2" offset=".259"/><stop stop-color="#0091d2" offset=".263"/><stop stop-color="#0090d2" offset=".267"/><stop stop-color="#0090d2" offset=".271"/><stop stop-color="#0090d1" offset=".275"/><stop stop-color="#008fd1" offset=".278"/><stop stop-color="#008fd1" offset=".282"/><stop stop-color="#008fd1" offset=".286"/><stop stop-color="#008ed0" offset=".29"/><stop stop-color="#008ed0" offset=".294"/><stop stop-color="#008dd0" offset=".298"/><stop stop-color="#008dcf" offset=".302"/><stop stop-color="#008ccf" offset=".306"/><stop stop-color="#008ccf" offset=".31"/><stop stop-color="#008bce" offset=".314"/><stop stop-color="#008bce" offset=".318"/><stop stop-color="#008ace" offset=".322"/><stop stop-color="#008ace" offset=".325"/><stop stop-color="#008acd" offset=".329"/><stop stop-color="#008acd" offset=".333"/><stop stop-color="#0089cd" offset=".337"/><stop stop-color="#08c" offset=".341"/><stop stop-color="#08c" offset=".345"/><stop stop-color="#08c" offset=".349"/><stop stop-color="#08c" offset=".353"/><stop stop-color="#0087cc" offset=".357"/><stop stop-color="#0087cb" offset=".361"/><stop stop-color="#0086cb" offset=".365"/><stop stop-color="#0086cb" offset=".369"/><stop stop-color="#0085ca" offset=".373"/><stop stop-color="#0085ca" offset=".376"/><stop stop-color="#0084c9" offset=".38"/><stop stop-color="#0084c9" offset=".384"/><stop stop-color="#0084c9" offset=".388"/><stop stop-color="#0084c9" offset=".392"/><stop stop-color="#0083c9" offset=".396"/><stop stop-color="#0082c8" offset=".4"/><stop stop-color="#0082c8" offset=".404"/><stop stop-color="#0082c8" offset=".408"/><stop stop-color="#0081c7" offset=".412"/><stop stop-color="#0081c7" offset=".416"/><stop stop-color="#0080c7" offset=".42"/><stop stop-color="#0080c7" offset=".424"/><stop stop-color="#007fc6" offset=".427"/><stop stop-color="#007fc6" offset=".431"/><stop stop-color="#007fc6" offset=".435"/><stop stop-color="#007ec5" offset=".439"/><stop stop-color="#007ec5" offset=".443"/><stop stop-color="#007ec5" offset=".447"/><stop stop-color="#007dc5" offset=".451"/><stop stop-color="#007dc5" offset=".455"/><stop stop-color="#007cc4" offset=".459"/><stop stop-color="#007cc4" offset=".463"/><stop stop-color="#007bc3" offset=".467"/><stop stop-color="#007bc3" offset=".471"/><stop stop-color="#007bc3" offset=".475"/><stop stop-color="#007bc3" offset=".478"/><stop stop-color="#007ac3" offset=".482"/><stop stop-color="#007ac2" offset=".486"/><stop stop-color="#0079c2" offset=".49"/><stop stop-color="#0079c2" offset=".494"/><stop stop-color="#0079c1" offset=".498"/><stop stop-color="#0079c1" offset=".502"/><stop stop-color="#0079c1" offset=".506"/><stop stop-color="#0079c1" offset=".51"/><stop stop-color="#0079c1" offset=".514"/><stop stop-color="#0079c1" offset=".518"/><stop stop-color="#0079c1" offset=".522"/><stop stop-color="#0079c1" offset=".525"/><stop stop-color="#0078c0" offset=".529"/><stop stop-color="#0078c0" offset=".533"/><stop stop-color="#0077c0" offset=".537"/><stop stop-color="#0077c0" offset=".541"/><stop stop-color="#0077c0" offset=".545"/><stop stop-color="#0077c0" offset=".549"/><stop stop-color="#0077bf" offset=".553"/><stop stop-color="#0077bf" offset=".557"/><stop stop-color="#0077bf" offset=".561"/><stop stop-color="#0077bf" offset=".565"/><stop stop-color="#0076be" offset=".569"/><stop stop-color="#0076be" offset=".573"/><stop stop-color="#0075bd" offset=".576"/><stop stop-color="#0075bd" offset=".58"/><stop stop-color="#0075bd" offset=".584"/><stop stop-color="#0075bd" offset=".588"/><stop stop-color="#0075bc" offset=".592"/><stop stop-color="#0075bc" offset=".596"/><stop stop-color="#0074bb" offset=".6"/><stop stop-color="#0074bb" offset=".604"/><stop stop-color="#0073ba" offset=".608"/><stop stop-color="#0073ba" offset=".612"/><stop stop-color="#0073b9" offset=".616"/><stop stop-color="#0073b9" offset=".62"/><stop stop-color="#0072b9" offset=".624"/><stop stop-color="#0072b9" offset=".627"/><stop stop-color="#0071b8" offset=".631"/><stop stop-color="#0071b8" offset=".635"/><stop stop-color="#0071b7" offset=".639"/><stop stop-color="#0071b7" offset=".643"/><stop stop-color="#0070b6" offset=".647"/><stop stop-color="#0070b6" offset=".651"/><stop stop-color="#0070b6" offset=".655"/><stop stop-color="#0070b5" offset=".659"/><stop stop-color="#006fb4" offset=".663"/><stop stop-color="#006fb4" offset=".667"/><stop stop-color="#006eb4" offset=".671"/><stop stop-color="#006eb3" offset=".675"/><stop stop-color="#006eb3" offset=".678"/><stop stop-color="#006db2" offset=".682"/><stop stop-color="#006db2" offset=".686"/><stop stop-color="#006cb1" offset=".69"/><stop stop-color="#006cb1" offset=".694"/><stop stop-color="#006bb0" offset=".698"/><stop stop-color="#006bb0" offset=".702"/><stop stop-color="#006baf" offset=".706"/><stop stop-color="#006aae" offset=".71"/><stop stop-color="#0069ad" offset=".714"/><stop stop-color="#0069ad" offset=".718"/><stop stop-color="#0069ad" offset=".722"/><stop stop-color="#0068ac" offset=".725"/><stop stop-color="#0068ab" offset=".729"/><stop stop-color="#0067ab" offset=".733"/><stop stop-color="#0067aa" offset=".737"/><stop stop-color="#0067aa" offset=".741"/><stop stop-color="#0066a9" offset=".745"/><stop stop-color="#0065a8" offset=".749"/><stop stop-color="#0065a7" offset=".753"/><stop stop-color="#0064a7" offset=".757"/><stop stop-color="#0063a6" offset=".761"/><stop stop-color="#0063a5" offset=".765"/><stop stop-color="#0062a4" offset=".769"/><stop stop-color="#0062a4" offset=".773"/><stop stop-color="#0061a2" offset=".776"/><stop stop-color="#0060a2" offset=".78"/><stop stop-color="#0060a1" offset=".784"/><stop stop-color="#005fa0" offset=".788"/><stop stop-color="#005fa0" offset=".792"/><stop stop-color="#005e9f" offset=".796"/><stop stop-color="#005d9e" offset=".8"/><stop stop-color="#005d9d" offset=".804"/><stop stop-color="#005c9c" offset=".808"/><stop stop-color="#005c9c" offset=".812"/><stop stop-color="#005b9b" offset=".816"/><stop stop-color="#005a99" offset=".82"/><stop stop-color="#005999" offset=".824"/><stop stop-color="#005998" offset=".827"/><stop stop-color="#005897" offset=".831"/><stop stop-color="#005796" offset=".835"/><stop stop-color="#005695" offset=".839"/><stop stop-color="#005695" offset=".843"/><stop stop-color="#005594" offset=".847"/><stop stop-color="#005593" offset=".851"/><stop stop-color="#005492" offset=".855"/><stop stop-color="#005391" offset=".859"/><stop stop-color="#005290" offset=".863"/><stop stop-color="#00518f" offset=".867"/><stop stop-color="#00518e" offset=".871"/><stop stop-color="#00508d" offset=".875"/><stop stop-color="#004f8c" offset=".878"/><stop stop-color="#004e8b" offset=".882"/><stop stop-color="#004d8a" offset=".886"/><stop stop-color="#004d89" offset=".89"/><stop stop-color="#004c88" offset=".894"/><stop stop-color="#004b86" offset=".898"/><stop stop-color="#004a85" offset=".902"/><stop stop-color="#004984" offset=".906"/><stop stop-color="#004883" offset=".91"/><stop stop-color="#004882" offset=".914"/><stop stop-color="#004681" offset=".918"/><stop stop-color="#004680" offset=".922"/><stop stop-color="#00457f" offset=".925"/><stop stop-color="#00447e" offset=".929"/><stop stop-color="#00437d" offset=".933"/><stop stop-color="#00437c" offset=".937"/><stop stop-color="#00417a" offset=".941"/><stop stop-color="#00417a" offset=".945"/><stop stop-color="#004078" offset=".949"/><stop stop-color="#003f77" offset=".953"/><stop stop-color="#003e76" offset=".957"/><stop stop-color="#003d74" offset=".961"/><stop stop-color="#003b73" offset=".965"/><stop stop-color="#003b72" offset=".969"/><stop stop-color="#003a71" offset=".973"/><stop stop-color="#003970" offset=".976"/><stop stop-color="#00386f" offset=".98"/><stop stop-color="#00376d" offset=".984"/><stop stop-color="#00366c" offset=".988"/><stop stop-color="#00346b" offset=".992"/><stop stop-color="#00336a" offset=".996"/><stop stop-color="#003369" offset="1"/></radialGradient><radialGradient id="0" gradientUnits="userSpaceOnUse" cy="64.03" cx="95.65" r="96.06" xlink:href="#2"/><radialGradient id="1" xlink:href="#3" gradientUnits="userSpaceOnUse" cy="48.02" cx="47.624" r="86.91"/></defs><g fill="url(#0)"><path d="m67.42.36s44.892 51.38 46.02 51.814c1.148.429 7.644 4 10.508 4.348 2.702.313 2.968-.948 2.899-2.536-.058-1.299-2.441-7.125-2.174-6.522 0 0-3.681-13.627-7.971-13.406-4.3.208-20.07-11.261-22.838-13.406s-26.45-20.291-26.45-20.291z"/><path d="m28.652 10.51l65.58 75s14.488 9.484 22.465 10.145c2.041.174 3.673-.846 3.986-2.899.557-3.699-4.348-22.1-4.348-22.1s-8.603-.611-33.33-18.479c-24.724-17.867-54.35-41.668-54.35-41.668z"/><path d="m3.652 42.03s53.03 62.09 57.25 65.945c4.232 3.849 19.43 13.717 27.18 14.493 1.472.139 2.403.116 3.261-1.449 1.206-2.191-4.348-18.479-4.348-18.479s-4.113-2.623-18.479-11.957c-19.328-12.535-64.858-48.554-64.858-48.554z"/><path d="m2.932 81.89s9.855 15.763 28.987 34.06c3.27 3.131 10.748 7.69 14.493 9.06 3.397 1.264 4.412 2.107 5.073 1.086.406-.626 1.812-6.884 1.812-6.884s-12.827-8.45-20.653-14.13c-6.865-5.01-29.712-23.2-29.712-23.2z"/></g><g fill="url(#1)"><path d="m85.18 3.99s11.128 10.774 22.827 23.552c14.09 15.386 18.479 25 18.479 25s-1.925-16.08-13.04-28.987c-10.63-12.314-19.828-16.83-28.27-19.566z"/><path d="m63.44 0c-1.902 0-4.821.249-8.334.725-5.623.742-10.145 2.174-10.145 2.174s19.783 19.523 35.15 35.871c13.647 14.517 24.447 27.22 36.958 45.29 3.594 5.194 3.623 9.421 3.623 9.421 3.896-7.04 6.371-18.308 6.522-21.74.139-3.432-7.03-13.29-17.754-26.45-10.727-13.14-42.03-44.93-42.03-44.93s-1.11-.362-3.986-.362z"/></g><g fill="url(#1)"><path d="m28.652 10.51s-3.603 2.444-8.334 6.884c-4.731 4.429-7.971 8.696-7.971 8.696s30.801 31.34 44.2 45.654c15.688 16.731 33.517 40.494 34.422 45.654.626 3.583-.362 4.348-.362 4.348s4.374-1.336 10.508-6.16c8.568-6.76 9.708-6.148 7.609-11.957-1.69-4.674-12.703-22.706-35.51-46.742-26.679-28.13-44.567-46.38-44.567-46.38"/><path d="m3.652 42.03s-1.936 6.554-2.899 11.957c-.974 5.415-.725 10.145-.725 10.145s14.89 14.618 26.45 27.17c11.745 12.743 25.549 29.346 25.363 33.33-.081 1.542-1.086 1.812-1.086 1.812s9.91 1.948 14.13 1.449c7.305-.87 7.722-.058 8.696-2.174 1.297-2.84-6.81-16.3-26.451-38.41-19.792-22.261-43.48-45.29-43.48-45.29z"/><path d="m2.932 81.89s1.896 11.273 15.218 26.45c6.423 7.316 15.253 11.974 16.667 11.232 1.414-.75-11.966-13.82-17.392-19.927-5.426-6.098-14.493-17.753-14.493-17.753z"/></g><g fill="#0079c1"><path d="m182.9 8.04h-22.903v31.961h10.05v-24.04h9.742c1.056-.012 1.392.528 1.392 1.704v22.339h10.07v-23.23c0-5.195-2.232-8.734-8.35-8.734"/><path d="m251.57 29.552l-8.182-21.511h-10.737l13.08 31.961h11.04l13.209-31.961h-10.402l-8 21.511"/><path d="m206.13 8c-6.107 0-8.344 3.524-8.344 8.719v14.562c0 5.195 2.237 8.719 8.344 8.719h15.969c6.107 0 8.312-3.524 8.312-8.719v-14.562c0-5.195-2.206-8.719-8.312-8.719h-15.969m3.125 7.906h9.719c1.056 0 1.406.543 1.406 1.719v5.938 6.813c0 1.188-.35 1.719-1.406 1.719h-9.719c-1.068 0-1.406-.531-1.406-1.719v-5.969-6.781c0-1.176.35-1.719 1.406-1.719"/><path d="m274.06 8.06l-1.531 8.406c1.8-.768 3.863-.844 9.25-.844h8.281c1.128 0 1.438.5 1.438 1.688v2.688h-13c-6.179 0-8.406 3.562-8.406 8.625v2.656c0 5.183 2.299 8.719 8.406 8.719h23.12v-23.281c0-5.123-2.208-8.656-8.375-8.656h-19.19m7.312 19h10.125v5.438h-10.187c-1.116 0-1.531-.596-1.531-1.844v-1.813c0-1.104.406-1.781 1.594-1.781"/></g><g fill="#004b8d"><path d="m392.93 63.48c-3.299 0-5.735.708-7.294 2.112-1.56 1.404-2.531 3.167-2.915 5.291l-7.414 40.959h-19.783l8.314-46.25c1.74-7.474 5.495-11.613 9.826-14.01 4.319-2.387 9.682-3.599 16.09-3.599h19.628l-3.059 15.5h-13.389z"/><path d="m433.47 96.28h14.565l-2.819 15.56h-16.4c-8.71 0-14.624-1.764-17.732-5.279-3.095-3.527-4.139-8.098-3.119-13.689l10.725-58.3 20.01-2.555-2.891 15.969h20.971l-2.879 15.441h-20.971l-4.811 27.05c-.576 3.539 1.188 5.795 5.351 5.795"/><path d="m318.37 48c-6.406 0-11.742 1.194-16.06 3.594-4.331 2.399-8.104 6.526-9.844 14l-4.906 27.28c-1.02 5.591.03 10.16 3.125 13.687 3.107 3.515 8.997 5.281 17.719 5.281h14.25c6.406 0 11.754-1.194 16.06-3.594 4.331-2.399 8.104-6.545 9.844-14.03l4.906-27.25c1.01-5.591-.03-10.16-3.125-13.687-3.107-3.527-8.997-5.281-17.719-5.281h-14.25m3.188 15.469h6.438c4.163 0 5.951 2.23 5.375 5.781v.031l-3.656 19.594c-.384 2.124-1.347 3.865-2.906 5.281-1.56 1.404-4.01 2.125-7.313 2.125h-6.438c-4.163 0-5.939-2.242-5.375-5.781l3.656-19.625c.384-2.135 1.347-3.877 2.906-5.281 1.56-1.404 4.01-2.125 7.313-2.125"/><path d="m247.13 48c-6.406 0-11.774 1.194-16.09 3.594-4.331 2.399-8.07 6.526-9.812 14l-12.844 70.41h19.781l5-27.469h.094c2.124 1.944 5.687 3.313 11.781 3.313h6.344c6.407 0 11.786-1.194 16.09-3.594 4.331-2.399 8.07-6.545 9.812-14.03l4.938-27.25c1.01-5.591-.03-10.16-3.125-13.687-3.107-3.527-9.03-5.281-17.75-5.281h-14.219zm3.188 15.469h6.438c4.163 0 5.92 2.261 5.344 5.812l-3.656 19.594c-.384 2.124-1.347 3.865-2.906 5.281-1.56 1.404-4.01 2.125-7.312 2.125h-6.438c-4.163 0-5.908-2.242-5.344-5.781l3.656-19.594c.384-2.136 1.347-3.909 2.906-5.313 1.56-1.404 4.01-2.125 7.312-2.125"/><path d="m153.05 98.27h29.16c7.09 0 8.338-7.33 2.771-9.442-5.951-2.243-10.138-3.779-17.16-6.455-8.194-3.107-12.08-11.254-9.922-19.304 2.088-7.774 10.378-15.08 21.583-15.08h35.68l-2.783 13.197h-27.11c-6.155 0-7.258 5.999-2.699 7.618 5.195 1.86 10.354 3.731 18.09 6.563 7.714 2.807 10.942 12.549 9.08 20.18-2.04 8.386-9.802 16.293-20.815 16.293h-38.21l2.327-13.569z"/></g><g fill="#939598"><path d="m498.5 79.74h20.444l-6.131 21.26h16.796l16.628-57.647h-16.808l-6.131 21.248h-20.432l6.131-21.248h-16.808l-16.616 57.647h16.808l6.119-21.26"/><path d="m552.19 43.34l-16.594 57.656h26.937c15.981 0 33.523-9.623 37.06-33.12.276-1.74.406-3.354.406-4.938.084-6.611-2.679-12.11-7.25-15.281-4.523-3.167-10.259-4.301-16.437-4.313h-24.12m12.47 15.12h8.375c3.887-.012 6.548.766 7.844 1.75 1.26.984 1.928 2.058 2 4.937 0 .744-.075 1.591-.219 2.563-2.507 13.773-9.402 17.738-19.719 18.06h-6.156l7.875-27.312"/><path d="m470.42 119.2h114.58l4.02-12.993h-114.57l-4.03 12.993"/></g></svg>