<svg xmlns="http://www.w3.org/2000/svg" height="417.48" enable-background="new 0 0 1600 900" viewBox="0 0 600 417.48126"><g stroke-width=".763"><path d="m404.71 235.53l-169.18 169.17c-17.03 17.04-36.57 17.04-53.59 0l-169.16-169.15c-17.04-17.04-17.04-36.56 0-53.61l169.16-169.15c17.04-17.05 36.57-17.05 53.59-.003l169.17 169.15c17.04 17.02 17.04 36.56.0001 53.58" fill="#e5e5e5"/><path d="m126.29 201.15c4.74 4.76 4.05 10.09.38 13.76-3.65 3.65-8.95 4.28-13.68-.48l-27.03-27.03c-5.116-5.14-9.949-4.98-15.691.78l-10.802 10.81c-5.753 5.74-5.913 10.57-.795 15.68l27.03 27.05c4.755 4.73 4.125 10.02.484 13.69-3.662 3.64-8.991 4.35-13.761-.4l-27.26-27.29c-12.748-12.75-12.974-28.06 1.322-42.36l10.186-10.17c14.312-14.3 29.586-14.06 42.34-1.31zm115.39-144.29c12.73 12.749 12.96 28.05-1.35 42.35l-10.17 10.191c-14.28 14.29-29.6 14.07-42.33 1.29l-12.85-12.797c-12.72-12.752-12.96-28.04 1.35-42.34l10.18-10.186c14.29-14.299 29.61-14.07 42.33-1.319zm-13.52 13.06l-12.35-12.373c-5.14-5.12-9.95-4.971-15.7.794l-10.81 10.802c-5.73 5.738-5.9 10.568-.76 15.683l12.34 12.358c5.14 5.141 9.94 4.981 15.7-.778l10.8-10.806c5.73-5.735 5.9-10.577.78-15.68m-50.82 51.27c12.74 12.76 12.99 28.06-1.34 42.34l-10.87 10.89c-3.73 3.72-6.9 5.68-9.48 6.23l9.47 9.45c4.75 4.76 4.14 10.02.48 13.68-3.66 3.65-9.01 4.35-13.77-.39l-41.18-41.16c-12.737-12.76-12.959-28.06 1.34-42.33l10.18-10.19c14.28-14.304 29.59-14.07 42.32-1.32zm-13.53 13.07l-12.35-12.36c-5.14-5.13-9.95-4.99-15.72.77l-10.8 10.81c-5.74 5.73-5.89 10.56-.75 15.67l12.35 12.37c5.14 5.14 9.92 4.98 15.69-.77l10.79-10.81c5.75-5.73 5.92-10.56.79-15.68" fill="#2f6492"/></g><g transform="matrix(.76311 0 0 .76311-301.77-128.67)"><path fill="#2f6492" d="m1012.2 661.68h50.8 9.1l4.1-8.11 102.2-205.12 3.3-6.53-3.3-6.55-102.2-205.16-4.1-8.11h-9.1-50.8 5.1-212.94-9.07l-4.05 8.11-102.3 205.14-3.26 6.54 3.26 6.54 102.3 205.14 4.05 8.11h9.07 211.94"/><path fill="#8eb442" d="m1012.4 647.14h50.8l102.3-205.06h.1l-.1-.08.1-.08h-.1l-102.3-205.06h-50.8l-10.3 20.59-10.27-20.59h-115.93l-10.27 20.59-10.27-20.59h-50.84l-102.26 205.06h-.07l.04.08-.04.08h.07l102.26 205.06h50.84"/></g><path stroke-width=".763" fill="#fff" d="m352.06 180.58h-10.57c.24-.47 49.99-100.23 50.08-100.41h10.56c-.23.473-49.98 100.23-50.07 100.41m14.48-128.67l-78.25 156.94h88.79l78.26-156.94zm104.15 0l-78.26 156.94h39.12l78.25-156.94zm-158.61 0l-78.26 156.94h39.11l78.26-156.94z"/></svg>