<?xml version="1.0" encoding="UTF-8" standalone="no"?>
<!-- Created with Inkscape (http://www.inkscape.org/) -->
<svg xmlns:rdf="http://www.w3.org/1999/02/22-rdf-syntax-ns#" xmlns="http://www.w3.org/2000/svg" height="184.75" width="600" version="1.1" xmlns:cc="http://creativecommons.org/ns#" xmlns:dc="http://purl.org/dc/elements/1.1/">
 <metadata>
  <rdf:RDF>
   <cc:Work rdf:about="">
    <dc:format>image/svg+xml</dc:format>
    <dc:type rdf:resource="http://purl.org/dc/dcmitype/StillImage"/>
    <dc:title/>
   </cc:Work>
  </rdf:RDF>
 </metadata>
 <g transform="translate(-224.27092,812.04713)">
  <g fill-rule="nonzero" transform="translate(4.2851818e-6,-5.8822967e-6)">
   <path d="m331.23-786.89-5.6836-5.6694c-5.627-5.6411-12.406-5.7401-18.733,0.58674l-4.503,4.503c-6.3268,6.3268-6.2208,13.099-0.5938,18.74l5.6835,5.6623c5.6341,5.6553,12.413,5.7542,18.733-0.5726l4.503-4.5101c6.3339-6.3268,6.2279-13.099,0.5938-18.74m-28.467,28.467-5.6906-5.6623c-5.6341-5.6411-12.406-5.7472-18.726,0.58674l-4.5101,4.5101c-6.3268,6.3198-6.2279,13.085-0.5938,18.726l18.231,18.224c2.1066,2.0924,4.4747,1.7885,6.0936,0.16965,1.6118-1.6188,1.8874-3.9446-0.21207-6.0511l-4.192-4.1849c1.1381-0.24035,2.5449-1.1098,4.192-2.757l4.814-4.8211c6.3339-6.3198,6.2208-13.092,0.5938-18.74m-22.6,35.388-12.067-12.067c-5.6411-5.6411-12.406-5.7472-18.74,0.57967l-4.503,4.503c-6.3268,6.3268-6.2279,13.099-0.58674,18.74l12.067,12.081c2.1066,2.0995,4.4677,1.7814,6.0865,0.17673,1.6118-1.6259,1.8945-3.9728-0.21208-6.0582l-11.961-11.975c-2.2692-2.2621-2.1985-4.397,0.34638-6.9418l4.7858-4.7787c2.5378-2.5449,4.6727-2.6226,6.9418-0.34639l11.961,11.961c2.0924,2.1066,4.4394,1.8238,6.0511,0.21207,1.6259-1.6188,1.9369-3.987-0.16966-6.0865m123.22,15.213-74.876,74.869c-7.5356,7.5427-16.181,7.5427-23.717,0l-74.862-74.862c-7.5427-7.5356-7.5427-16.181,0-23.717l74.869-74.862c7.5356-7.5427,16.174-7.5427,23.71,0l74.869,74.862c7.5427,7.5286,7.5427,16.174,0.007,23.71m-83.606-78.757c-2.2692-2.2692-4.404-2.2056-6.9418,0.34639l-4.7858,4.7787c-2.5378,2.5378-2.6156,4.6797-0.33932,6.9418l5.4644,5.4715c2.2692,2.2762,4.397,2.2056,6.9489-0.34638l4.7787-4.7858c2.5378-2.5307,2.6085-4.6727,0.33931-6.9348l-5.4644-5.4715zm-23.003,33.946c2.2692,2.2621,2.1914,4.404-0.34638,6.9348l-4.7787,4.7858c-2.5519,2.5449-4.6727,2.6156-6.9489,0.33931l-5.4644-5.4715c-2.2692-2.2621-2.2056-4.397,0.33932-6.9348l4.7716-4.7858c2.559-2.5449,4.6868-2.6085,6.956-0.34638l5.4715,5.4785z" fill="#e6e6e6"/>
   <path d="m152.91-27.344c-3.1873,0.06009-6.4651,1.6456-9.625,4.8125l-4.5,4.5c-6.3268,6.3198-6.2278,13.071-0.59375,18.719l18.219,18.219c2.1066,2.0924,4.4749,1.8063,6.0938,0.1875,1.6188-1.6188,1.912-3.9559-0.1875-6.0625l-4.1875-4.1875c1.1381-0.24035,2.5333-1.1029,4.1875-2.75l4.8125-4.8125c6.3339-6.3198,6.2278-13.109,0.59375-18.75l-5.6875-5.6562c-2.817-2.8206-5.9377-4.2788-9.125-4.2188zm-0.0312,8.5625c1.1355-0.05125,2.2404,0.49041,3.375,1.625l5.4688,5.4688c2.2692,2.2621,2.2011,4.3997-0.34375,6.9375l-4.7812,4.7812c-2.5519,2.5449-4.6683,2.6129-6.9375,0.34375l-5.4688-5.4688c-2.2692-2.255-2.2011-4.3997,0.34375-6.9375l4.75-4.7812c1.2795-1.276,2.4583-1.9175,3.5938-1.9688z" transform="translate(135.05056,-740.95111)" fill="#4c420d"/>
   <path d="m181.38-55.812c-3.189,0.06097-6.4616,1.6178-9.625,4.7812l-4.5,4.5312c-6.3339,6.3198-6.2207,13.078-0.59375,18.719l5.6875,5.6875c5.6341,5.6482,12.43,5.726,18.75-0.59375l4.5-4.5c6.3339-6.3268,6.2278-13.102,0.59375-18.75l-5.7-5.656c-2.8135-2.8206-5.936-4.2797-9.125-4.2188zm-0.0312,8.5625c1.1355-0.05125,2.2369,0.49041,3.375,1.625l5.4688,5.4688c2.2692,2.2621,2.1941,4.3997-0.34375,6.9375l-4.7812,4.7812c-2.5519,2.5519-4.6612,2.62-6.9375,0.34375l-5.47-5.469c-2.29-2.263-2.2-4.393,0.34-6.938l4.7812-4.7812c1.2689-1.276,2.427-1.9175,3.5625-1.9688z" transform="translate(135.05056,-740.95111)" fill="#4c420d"/>
   <path fill="#4c420d" d="m280.17-723.03c2.0995,2.1066,1.7885,4.4677,0.16965,6.0865s-3.9587,1.9016-6.0582-0.21208l-11.961-11.954c-2.2621-2.2762-4.404-2.2056-6.9418,0.34638l-4.7858,4.7787c-2.5449,2.5378-2.6156,4.6727-0.34638,6.9348l11.961,11.975c2.1066,2.0924,1.8238,4.4323,0.21207,6.0582-1.6188,1.6118-3.9728,1.9228-6.0865-0.17673l-12.067-12.081c-5.6411-5.6411-5.7401-12.413,0.58673-18.74l4.5101-4.4959c6.3268-6.3339,13.092-6.2279,18.733-0.58674l12.074,12.067z"/>
   <path d="m762.72-684.25s-4.2556,6.8005-5.6553,7.366c-1.428,0.57966,1.131,2.0006,2.255,5.3937,1.1452,3.4002,3.1104,10.491,3.6759,12.47,0.58674,1.9793,4.5454-5.3796,6.5318-5.3796,1.9793,0,5.0897-0.57259,5.0897-1.6966,0-1.1381-1.6895-10.773-1.124-12.767,0.57966-1.9723-4.2485-2.5519-6.8005-4.2485-2.5519-1.6966-3.9728-1.1381-3.9728-1.1381m51.958,41.142c-11.169,1.0674-12.328,0.54432-12.859,1.2724-0.53726,0.75639-7.1327,3.4709-8.391,2.4247l-15.107,2.2409c-1.0674,0.0848-8.0941-0.19086-8.7162,0.55139-0.65036,0.74933-2.8913,3.3932-4.8989,3.1811-2.0218-0.21207-5.2028-1.6966-6.0653-2.0076-0.84122-0.33225-2.1207-0.53725-2.863-0.21207-0.74226,0.31104-7.8467,1.9511-9.2181,3.0044-3.6901,2.8276-14.174,1.4209-16.704,0.84122-1.1735-0.24742-7.1398,4.0223-8.1082,4.1142-0.93312,0.1131-7.3731-2.4106-8.2214-4.5242-0.84829-2.1278-5.2382-41.962-5.2382-41.962l0.73518-4.4323c-0.205-0.12017-0.35345-0.21914-0.35345-0.21914s-2.962-1.6895-3.3366-1.9723c-0.38173-0.25448-1.3431-0.8907-1.9581-1.0957-0.65035-0.21915-1.7107,0.52311-2.3399,0.84122-0.65035,0.32518-0.76346,1.2724-1.1805,1.9299-0.41708,0.62208-2.2268,1.4704-5.217,1.3714-2.9761-0.1131-9.9745,0.099-11.381,0.31104-1.3502,0.21207-12.526-0.21207-13.481-0.42414-0.9614-0.21208-3.6194-0.30398-5.9592-0.41708-2.3399-0.11311-9.5645,1.9157-13.184,2.2268-3.6052,0.31811-12.222,0.31811-12.025-3.2942,0.21207-3.6194,13.191-9.2464,14.456-10.321,1.2866-1.0604-9.6634-3.7113-14.131-4.6656-4.4606-0.9614-6.3904-5.4291-7.4367-7.4508-1.0674-2.0147-0.74932-0.9614-1.3855-2.8771-0.62914-1.9086,1.9087-8.7162,3.1882-9.9886,1.2866-1.2654,8.7162-4.8847,13.191-5.0968,4.4606-0.205,11.685,2.5519,12.533,3.6194,0.86949,1.0533-0.19794,8.9212-0.42415,9.5574-0.19793,0.64328-1.2654,1.9086-3.3932,1.9086-0.24035,0-0.4807,0.0212-0.72812,0.0424-1.8945,0.14846-3.7395,0.82002-3.7395,0.82002l7.6629-0.42415,2.5449-0.43828-0.43122-6.3763,1.2724-3.4002,2.969-2.1278,5.1251,1.3785s4.8777,0.0565,5.4644,0.0565c0.5938,0,14.477,1.5976,14.831,1.7107,0.37466,0.099,1.3855-0.1131,1.6966-0.21914,0.33225-0.099,4.1637-1.7956,8.2991-2.4459,4.1425-0.62208,4.9484-0.53018,6.758,0.43121,1.4704,0.7776,5.1392,3.7325,7.5498,5.8815,1.0886-1.3078,4.5949-5.3654,6.2137-5.726,1.9087-0.41707,6.0229-0.7776,6.0229-0.7776s4.8353,1.1028,6.1006,2.2762c1.838,1.6966,0.83415,9.3383,1.2724,11.042,0.43122,1.7107,4.5384-6.5106,8.087-7.4296,1.5764-0.40294,11.049-2.1349,13.375,0.41001,2.3469,2.559,4.0647,4.0506,5.1251,2.7711,1.0462-1.2654,4.0294-4.6727,5.733-3.5982,1.7107,1.0533,3.6123,5.3089,3.8173,7.6346,0.23328,2.3399,0.23328,6.6096,1.9369,7.0267,1.6895,0.41708,7.2105,0.84829,7.4155-1.0745,0.21914-1.9087-1.2583-13.587,0.21914-14.873,1.5057-1.2866,4.2627-2.559,5.7613-1.2866,1.4845,1.2866,3.3932,2.9902,3.3932,1.4986,0-1.4986,0-4.3616,3.7113-5.8391,3.7183-1.4916,8.292-1.3997,9.2605-0.75639,0.94019,0.62208,6.1572,5.217,5.316,6.5954-0.86242,1.3855-2.3328,3.4073-3.4214,3.1952-1.0533-0.23328-0.95433,0.64329-0.41001,1.2654,0.53018,0.64328,7.8608,8.4051,6.7934,11.275-1.0533,2.863-7.6488,8.1789-9.3383,7.9669-1.7036-0.205-6.2915-1.7036-6.1784,0.21207,0.12017,1.9157,4.1354,8.8434,7.7689,8.3132,3.6052-0.54432,18.931-1.2866,20.734,3.0538,1.8168,4.3687,2.6509,32.447-8.5112,33.5" fill="#4c420d"/>
   <path d="m647.33-802.75c8.8081,0.0212,14.442-0.0141,18.358-0.0141,17.871,0,31.033,8.3698,46.288,26.219,15.262,17.857,14.994,37.53,14.994,37.53v22.826s-4.8706,2.5378-5.7189,3.3861c-0.84122,0.83415-0.69277,3.6476-0.41,5.9027,0.26155,2.248,0.55845,7.2317,0,8.6384-0.5726,1.4138-1.2088,11.834-0.43122,13.325,5.5987,10.703-4.7999,11.049-4.7999,11.049l-0.85536,0.55846s-1.1169,1.6895-1.6824,3.6618c-0.5726,1.9794,0.84122,8.4688,0.84122,8.4688l0.28983,27.902c0.55139,1.1452,0,1.4209,0,1.4209-8.3062,0-27.93,0.22621-35.614,0.22621-9.31,0-8.7869-6.4682-8.7869-6.4682v-39.728s2.9832,0.0424,5.5634,0.14845c2.5873,0.099,10.773,2.9266,10.773,2.9266l5.6341-0.57966,12.632-6.0441s6.8146,4.3616,9.3665,4.3616c2.5449,0,7.6205-2.255,3.372-8.4688-4.2202-6.1996-2.7711-5.9098-1.0745-7.5993,1.6966-1.7036,4.298-10.964-0.50897-15.488-4.7787-4.5172-7.1468-5.9522-8.5748-6.8005-1.3855-0.84123,0-1.124-5.0544-0.84123-5.0756,0.28984-11.282,2.9973-11.282,2.9973s-9.1686-1.6966-11.41-1.6966c-2.2621,0-9.4372-0.13432-9.4372-0.13432l0.10604-27.817h-3.167s-0.0353,17.249-0.0353,27.251c0,0-0.43829,0.83415-1.8521,1.4068-1.4209,0.57259-3.6688,1.6966-3.1033,3.3861,0.56552,1.6824,1.3573,4.6797,0.54432,8.1294-0.43829,1.7885-3.0892,0.93312-3.0892,0.93312h-7.3024s-2.2621-1.7178-1.1311-2.5802c1.1311-0.84122,3.0751-0.56553,5.0685-1.124,1.9793-0.55845,2.248-2.8206,2.248-5.0756,0-3.6123,0.31104-4.8635-3.379-7.0691-1.4138-0.83415-7.055-0.55845-9.0202,0-1.9864,0.56553-7.366,1.9864-9.8896,3.1033-2.5449,1.1311-3.6901,4.7928-4.5313,6.7793-0.84122,1.9723,0.28983,5.9663,0.28983,5.9663h-10.886c-6.4612,0-8.9424-6.7086-8.9424-6.7086v-34.476h-2.248v46.903c3.1811,0.7988,16.075,4.3263,16.075,18.104v40.372c0,4.1213-2.3187,6.4611-4.1354,7.4932-1.8238,1.0321-6.7368,1.5481-11.127,0.5019-4.4111-1.0321-9.5786-3.3437-9.5786-3.3437s-39.877-31.571-44.252-35.975c-4.397-4.404-4.6585-16.563-4.6585-16.563v-57.373c-0.22621,0.0636-1.4068,0.19794-6.7156,0.19794-7.7689,0-8.0234,9.0555-8.0234,9.0555v38.293c0,9.0484-7.5074,9.0484-7.5074,9.0484h-16.817c-6.9843,0-5.3866,9.5857-5.3866,9.5857v40.089c0,9.3312-11.169,9.0696-11.169,9.0696h-38.83c-9.31,0-10.095-9.3312-10.095-9.3312v-17.326c-27.159,27.188-48.89,26.149-48.89,26.149h-34.942c-10.088,0-9.0414-9.0696-9.0414-9.0696v-47.483c0-7.7619,8.0093-8.0022,8.0093-8.0022h39.332c4.397-2.87-0.51604-4.9272-0.51604-4.9272h-22.246c-7.776,0-9.0555-8.5394-9.0555-8.5394v-34.292s0.24741-8.2638,17.072-8.2638c16.824,0,15.001-4.9201,15.001-4.9201h-37.509c-9.5715,0-11.388-8.5394-11.388-8.5394v-42.704s1.5411-7.2388,7.7548-7.2388h34.674s19.68,0.0636,24.077,3.4214c3.2801,2.5095,19.532,12.201,29.754,18.33v-3.9021c0-6.7298,8.5465-9.3878,8.5465-9.3878h164.77s7.0903-0.36052,11.07,3.6052c3.4073,3.4214,5.4432,2.9407,8.497-0.55845,1.9793-2.2692,5.1039-2.2692,5.1039-2.2692" fill="#4c420d"/>
   <path d="m821.56-675.94c-0.60087-0.69984-3.6335-0.76346-7.1044-0.67863-3.4709,0.0919-8.0729,0.91898-10.632,2.4247-2.5661,1.4845-2.1773,5.0403-2.1773,5.0403s-0.0778,19.249,0.3888,20.818c0.47363,1.5552,2.0854,2.658,3.4214,3.3366,1.3148,0.67863,5.627,0,8.2072-0.92605,2.5802-0.91898,5.832-3.577,7.0408-7.3165,1.1947-3.7325,1.4421-16.881,1.5552-17.871,0.13431-1.0109-0.11311-4.1284-0.69984-4.8282m-120-5.7048c-1.7955,0.58673-1.1947,1.9086-1.8026,2.5449-0.63622,0.64329-5.726,1.0816-8.6808,0.65742-2.9761-0.42414-15.708,0.73519-15.708,0.73519v11.431s0.95433,2.8347,4.0294,2.8347h22.663s3.0892-0.47362,3.0892-6.136c0-1.5199,0.0778-3.7325,0.2969-10.25,0,0-0.48777-2.9549-3.888-1.8168m62.682,35.755c-0.47363-1.4492-8.1719-26.325-8.292-26.756-0.12724-0.45242-0.22621-0.57259-0.91191-0.43828-0.67863,0.12724-6.7227,0.84122-6.7227,0.84122s-0.77053,0.26156-1.23,0.26863c-0.45242,0.0141-0.31811,0.98967-0.31811,0.98967l-1.2936,33.882s0.36052,0.55846,0.69984,0.66449c0.34638,0.10604,5.4644-0.14138,5.931-0.0424,0.44535,0.10603,0.31811-0.7776,0.88363-0.79174,0.55846-0.0353,0.23328-0.58673,0.23328-0.58673s0.70691-11.586,0.68571-12.046c0-0.43828,2.3823-0.49483,2.7075-0.61501,0.35345-0.12724,0.5938,0.31104,0.84122,0.64329,0.23328,0.33225,2.6721,11.056,2.7994,11.615,0.13431,0.55139,0.60087,1.7814,1.0674,1.7673,0.45242-0.0141,3.6406-0.19086,3.9658-0.32518,0.33932-0.099,0.6645-0.69277,1.124-1.1452,0.41708-0.45949,0.27569-1.5764,0.16259-1.9157-0.12018-0.32518-1.8097-4.5525-2.3328-6.0087m-52.728-50.608c2.4459-0.72812,2.6721-7.8891,1.4986-9.5574-1.6754-2.3681-5.0968-3.5345-7.7406-4.3475-5.6553-1.6895-14.138-0.54432-14.796,6.4611-0.16259,4.404-0.30397,8.7939-0.38173,13.184-0.0919,4.4464-1.1593,9.9179,4.5949,9.2322,4.397-0.52311,1.8733-1.9652,2.3045-4.6868,0.25449-1.6188,0.0636-6.1218,1.6966-6.9701,3.987-2.0712,6.9136,5.0897,8.1507,7.465,0.90484,1.7178,1.7107,5.4008,3.8668,5.1675,1.8026-0.19087,5.7754,1.9016,4.6161-2.248-0.76346-2.764-12.47-11.212-3.8102-13.7m23.717,47.603c-0.35345-0.78467,0.54432-1.0179,0.54432-1.0179s4.7504-0.80588,5.1534-7.5639c0.50898-8.695-4.0718-16.308-10.208-16.139-6.1289,0.14845-9.7836,4.8565-10.109,5.0827-0.33932,0.23328-0.65036,1.2724-0.99674,1.4916-0.32518,0.21914,0.0212,1.0038,0.0212,1.0038s0.0283,0.5726,0.36052,0.8907c0.36759,0.33225,0.27569,1.4633,0.41708,2.2338,0.12017,0.78466,0.18379,29.676,0.0848,30.242-0.0919,0.55845,0.49483,0.7776,1.1523,0.54432,0.67156-0.26863,5.4998-2.7357,5.4998-2.7357s0.099-5.5068,0.19086-6.1996c0.0919-0.66449,0.89071-1.131,1.3502-0.6857,0.47362,0.43121,7.7477,8.5465,8.0729,8.8858,0.36053,0.32518,1.2866,0.42415,2.0712,0.0424,0.78467-0.33932,4.503-1.9935,4.7222-2.3399,0.21915-0.35346-2.8559-4.3121-4.3828-6.0794-1.5128-1.7673-3.584-6.8924-3.9446-7.6558m49.257-28.799c-0.38173-1.7885-1.0745-1.8945-1.64-2.1066-0.57966-0.19794-1.0321-0.41708-1.3573-0.0707-0.36052,0.33225-2.8347,0.9826-3.4144,1.1098-0.55139,0.12018-0.87657,0.58674-0.86243,1.3573,0.0353,0.78467,0.22621,16.224,0.22621,16.224s-10.42-1.633-11.41,8.391c-0.99674,10.017,8.0305,15.531,14.845,10.194,0,0,0.92605,1.428,1.2866,1.8662,0.36053,0.44535,0.80588,0.65742,1.6259,0.41,0.7776-0.24741,3.3508-1.5552,4.0435-1.9086,0.65743-0.33931,2.6792-1.1876,2.6792-1.5269-0.0141-0.35346-0.96846-7.062-1.1098-7.8326-0.14845-0.79174-4.5313-24.332-4.913-26.106m21.865-23.971c-1.9157-2.1066-7.981-7.1963-8.1082-10.137-0.14845-3.577,4.8494,0.94725,5.1675,1.2088,0.97553,0.75639,2.453-1.7814,1.8097-2.6438-3.8809-5.4008-5.521-4.6656-11.501-3.3154-4.6585,1.0604-3.4144,8.5324-0.65036,10.731,0.91898,0.55139,12.166,8.702,8.7727,10.533-2.863,1.5552-4.9272-0.96139-6.751-2.7004-1.1028-1.0886-3.7325-0.0283-3.5133,1.6683,1.7178,12.357,23.597,4.3758,14.774-5.3442m-12.901,27.145c-2.0288,0.0424-1.6824,2.0359-1.6824,2.0359s1.5764,27.774,1.6047,28.778c0.0212,0.99674,2.3399,1.2159,2.9266,1.2088,0.56552-0.0283,1.428-0.32518,1.9723-1.6259,0.52311-1.3078,0.88364-27.117,0.84122-29.118-0.0495-2.0006-3.6335-1.3502-5.6623-1.2795m-0.43121-12.392c0.32518-1.0462-4.7434-3.6264-5.1463-5.8886-0.34638-2.0995-0.77053-3.9658-0.86242-6.1572-0.17673-3.6689,1.1523-10.151-2.6509-12.01-5.4008-2.6792-2.8206,12.442-3.0821,14.407-0.33932,2.7569-4.8706,2.9832-7.3094,2.9549-3.3437-0.0283-4.2909-0.0636-4.8706-3.4992-0.24035-1.5057-1.0533-13.283-4.6939-10.632-3.2235,1.4845-1.3078,11.982-0.40294,15.015,1.9228,6.4187,10.342,8.5677,16.146,5.8956,2.4459-1.1452,3.4497-2.05,6.1077-0.0566,1.6754,1.2583,5.6765,3.2094,6.7651-0.0283m-349.89-36.667c0.72812-1.5693,3.0538,0.8695,6.1148,5.938,3.068,5.0615,2.0147,10.052,2.0147,10.052-0.84122-7.4013-9.2181-13.7-8.1294-15.99m10.25-54.347c-0.53018-1.3643-2.2268-2.3257-3.075-2.6297-0.84123-0.33224-5.5987-6.7792-6.447-6.9842-0.84829-0.21207-12.385-8.4546-18.507-10.893-6.136-2.4388-36.385-2.4388-42.195-2.4388-5.8249,0-5.8249,2.3328-6.553,4.1354-0.74225,1.7814,1.5693,23.052,1.6966,25.166,0.0919,2.1066,1.5764,2.8559,1.5764,2.8559h16.598c17.779,0,19.044,2.2197,19.044,2.2197,5.0615,2.5449,4.6727,7.2882,5.6129,9.621,0.94726,2.3187,1.6824-2.0147-0.85536-7.9244-2.5519-5.931-12.166-5.5987-13.438-6.143-1.2583-0.51604-1.0533-0.41707,7.9315-0.41707,8.999,0,10.893,8.9777,10.893,13.113,0,4.1213-4.0223,8.3415-4.7646,8.8788-0.70691,0.53725-0.70691-1.3714-0.83415-1.6966-0.099-0.31811-0.63622,0.74226-0.74933,1.0604-0.099,0.31104-0.42414,0.21915-1.9935,0.41001-1.5835,0.22621-3.4921,2.3328-4.4535,2.4388-0.94726,0.12017-11.53,0.54432-11.834,0.54432-0.32518,0-1.0604,0-2.658,0.31811-1.5835,0.31103-5.9027,4.5384-6.1218,4.8565-0.22621,0.31811-1.2795,2.6509-3.4851,3.273-2.2197,0.64329-2.1278,1.3785-2.1278,1.3785s2.4459,0.205,2.9761,0.53018c0.53018,0.31104,1.2724,1.0604,1.2724,1.0604l-2.3399,0.94726s0.11311,0.32518,0.53018,0.74225c0.41001,0.42415,1.3785,1.9016,1.3785,2.6438,0,0.74225-0.1131,0.84122-0.1131,0.84122s-0.11311,0.86243-0.31104,2.1207c-0.21914,1.2654-0.85536,6.5389-0.95433,8.5607-0.1131,2.0147,0.95433,2.87,0.95433,2.87l0.50897,0.83415,0.43122,0.52311v2.1349c0,2.0924,4.6585,5.0544,4.6585,5.0544s1.4774-0.099,2.6438-0.3181c1.1664-0.21208,4.2202-0.94019,10.462-1.0533,6.242-0.10603,8.2567,0.63622,11.841,4.6515,3.6052,4.0223,2.453,11.318-0.21207,15.651-2.6438,4.3546-12.039,4.1213-15.001,4.1213s-21.801-1.1593-24.021-1.1593c-2.2197,0-4.1213,4.2273-4.1213,4.2273v24.65c0,0.84829,4.2415,4.8635,4.2415,4.8635h2.3257c1.6966,0,0.94725-0.21207,1.5835-0.32518,0.62915-0.099,33.211-1.5835,33.211-1.5835,35.946-7.5003,35.734-39.446,35.734-39.446s0.51604-7.3872,0-15.538c-0.53018-8.1436-8.0376-16.923-8.0376-16.923s6.341-8.5536,7.7194-13c1.3855-4.4465,2.863-16.075,1.6966-16.075s-0.64329,7.8113-2.6438,13.742c-2.0006,5.9168-5.4008,11.007-9.317,13.749-3.9092,2.7499-0.41001-2.0147-0.41001-2.0147,10.575-11.735,8.2426-24.636,8.6738-25.59,0.41707-0.95433,1.4774-3.8102,1.4774-3.8102s0.72811-0.32518,1.1805-0.41707c0.39587-0.099,0.31104-0.099,2.2056-2.1066,1.9086-2.0218,0.41707-8.6808,0-9.8331-0.42415-1.1664-2.962-5.0897-3.4851-6.4682m270.99,96.444s0.48776,0.82001,1.0604,1.2512c0.54432,0.43122,0.93312,0.28277,1.5198,0.33225,0.57967,0.0283,0.73519,0.24742,1.7461-0.099,0.97553-0.3181,0.60087-0.33931,1.2017-0.87656,0.64329-0.55139,0.46656-0.9614,0.73519-2.0995,0.28983-1.1735,0.5019-1.3502,0.9826-2.5025,0.46656-1.1381-0.13431-3.5558-0.16966-5.7048-0.0212-2.1702,0.94019-15.085,0.79881-15.891-0.13432-0.7988,0.10603-1.1664,0.14138-1.944,0.0636-0.79881-0.30397-0.99675-1.025-1.6542-0.72811-0.65036-0.72811-0.65036-1.4633-1.0886-0.74225-0.44535-1.131-0.28983-1.9369,0.0566-0.80587,0.31811-0.82708,0.72812-1.8238,1.23-0.99674,0.52312-0.92605,2.0995-0.92605,2.0995l0.19793,2.5802s0.22621,1.9864-0.57966,5.0685c-0.81295,3.0821-0.25449,17.044-0.29691,17.623-0.0353,0.58673-0.16258,1.6188-0.16258,1.6188m26.566,2.4176c2.6156-0.57259,6.0724-2.8912,7.0903-5.4503,1.0109-2.5378,0.84123-5.3584,1.9652-7.6982,3.1952-6.7863-3.4921-14.831-10.215-15.778-6.4258-0.8907-13.085,3.7325-13.643,10.646-1.3148,4.7434,0.40294,10.731,2.9973,14.739,2.6933,4.1496,7.2953,4.4959,11.805,3.5416m-45.871-79.81c0.71398,27.372,0.81295,33.465,0.0707,42.535l1.6966,0.79174c0.34639-11.834,0.3888-22.063,0.21914-28.686-0.49483-17.715-1.8945-27.322-12.3-37.473-10.392-10.151-18.175-12.039-32.376-12.039,0,0,36.554-3.0185,42.69,31.472m-54.962,29.619c-0.94019-5.9098-0.94019-21.016-0.23328-23.165,0.70691-2.1207,3.0609-11.084,12.76-10.377,9.6846,0.70691,12.746,6.8499,12.746,9.4514v41.807s13.233,1.7602,15.114,1.8168c1.8874,0.0566,3.6476-1.6966,7.6841-2.4247,4.0011-0.72812,4.7434-0.72812,4.7434-0.72812,0.007-17.595-0.12724-37.494-0.84829-41.566-1.1735-6.6025-4.7151-24.106-32.808-31.655l-7.3306-0.94726c-0.24742-0.94019,0-1.6542-1.435-1.6542-1.4138,0-14.64,1.8874-16.061,3.5487,0,0,2.3611-3.167,0.23328-2.453-2.1207,0.69984-3.068,1.9793-4.2485,2.453-1.1947,0.47363-0.24035-2.3682-1.6542-1.4209-1.428,0.94726-2.6014,2.8347-4.0152,2.3682-1.4068-0.47363-8.7445-9.925-28.347-9.925-19.624,0-25.286,1.8874-29.782,1.8874-4.4677,0-7.0832-0.70691-8.5041,0.47362-1.4068,1.1735-6.6025,6.143-6.6025,6.143s-0.4807,2.8418,0.70691,4.0152c1.1805,1.1947,2.1136,1.8874,1.8874,4.2414-0.23328,2.3752-2.1278,17.404-1.428,24.728,0.72105,7.3306,2.6156,22.437,2.6156,27.4,0,4.9554-0.9614,26.46,0.22621,34.024,1.1876,7.5639,1.6471,20.317,13.7,27.159,12.06,6.8641,27.902,8.7445,30.008,7.7972,2.1278-0.93312,3.789-2.1207,3.789-3.5416v-22.918s-0.95433-5.6694-4.4959-5.6694c-3.5487,0-11.113,0.70691-11.113-4.0223v-67.086s12.06-1.3997,16.075,2.6085c4.0223,4.0011,4.9554,6.1218,4.9554,11.579,0,5.422-0.71398,16.761-0.24742,18.175,0.48777,1.428,1.1947,4.4818,7.8113,4.7222,6.6237,0.24035,19.61-0.24035,19.61-0.24035s5.4361-0.69984,4.4889-6.6025m34.462,46.444c-1.8804-1.3148-8.2638,0.48776-10.78,0.30397-1.4845-0.12018-1.6683-6.2844-0.5726-7.2246,1.2159-1.0321,6.3763-0.62915,7.9739-0.67156,1.7249-0.0353,8.1648-3.0468,3.9092-4.6373-3.577-1.3502-8.6172,3.1811-12.187,0.84829-0.98967-0.65036-0.75639-4.2273-0.26156-5.1392,2.1702-3.9516,10.399,0.12725,13.806-1.5976,1.9157-0.96846,4.3828-5.4361,1.1805-5.6553-2.0218-0.16259-4.0364-0.24742-6.0723-0.36759-2.0076-0.12018-15.227-2.2692-13.502,1.838-0.25449,3.5345-2.6085,24.749,1.2442,25.633,3.888,0.91191,7.875,0.67156,11.848,0.7988,1.9087,0.0566,6.7793-1.7602,3.4144-4.1283m-38.336-14.428c-2.1631-0.56552-0.98967-8.0941,1.4845-7.9032,1.9652,0.15552,8.1789,2.0854,7.161-2.4035-1.1805-5.217-18.316-1.1311-18.698,4.1283-2.7145,12.71,7.7901,8.2779,15.594,12.929,14.209,8.49-9.5715,9.7341-11.07,15.015,6.2208,0.36759,21.059,1.124,22.741-7.3731,2.7004-13.41-7.9032-11.947-17.213-14.393m-93.227-94.146c-3.3013,0.23328-61.176-0.94725-68.28-1.4209-7.0832-0.47363-11.332,0.71398-12.746,3.5487-1.4492,2.8276-2.1278,24.565-2.1278,26.693,0,2.1207-0.24035,13.233,0.93312,10.632,1.1947-2.6085,0.89777-19.949,0.89777-24.438,0-4.4818,0.0566-13.608,4.7646-14.315,4.7363-0.69984,38.293,1.8945,38.293,1.8945s-19.136,0.69984-22.437,0.69984h-16.082s-0.69277,34.971-1.1876,35.671c-0.45242,0.72811-1.64,1.6542-1.64,3.3295,0,1.6542,2.6014,8.0234,1.4068,8.0234-1.1735,0-2.1278,0.23328-1.8804,1.1805,0.21915,0.94725,1.1876,2.1278,0.21915,2.354-0.93312,0.24035-1.1593,0.94726-0.46656,2.6156,0.72104,1.6471,3.5487,7.7831,2.8559,8.7303-0.72812,0.94725-8.5112,6.8499-8.5112,14.654,0,7.7901-0.94726,13.219-0.24742,13.933,0.72105,0.71398,2.6156,1.1876,2.3823,2.8488-0.24742,1.6542-1.9016,9.4443-1.6612,13.926,0.23328,4.4889,1.8945,12.053,1.8945,13,0,0.93312,0.22621,8.9777,0.22621,8.9777s2.1278,3.5345,4.7151,3.7749c2.6085,0.22621,23.872,0.94726,25.286-0.47363,1.4068-1.4209,3.068-3.3013,3.068-6.6167,0-3.3083-1.4068-38.505-0.70691-39.686,0.70691-1.1805,1.6683-6.857,10.639-6.857,8.9636,0,19.129,2.1278,20.069-4.2485,0.94019-6.3834,0.25448-24.099,0.25448-24.099s-3.3225-4.2556-4.0223-4.4889c-0.7069-0.24035-1.428,0.70691-1.428,0.70691h-17.227s-6.3834-0.94726-7.0832-7.0762c-0.72104-6.1501,0-12.533,0-12.533s51.011-0.45242,52.184-0.94018c1.1876-0.45949,2.3681-1.1805,2.3681-4.4959v-22.437s-1.4068-3.2942-4.7222-3.068" fill="#97d5ea"/>
  </g>
 </g>
</svg>
