<svg xmlns="http://www.w3.org/2000/svg" viewBox="0 0 600 286.53"><g fill="#00c725" transform="matrix(1.60598 0 0 1.60598-1558.25-589.69)"><path d="m1221.7 367.74h18.223l-1.442 20.637h19.913l1.442-20.637h18.303l-4.12 58.973h-18.303l1.667-23.855h-19.913l-1.667 23.855h-18.223z"/><path d="m1291.5 367.74h27.07c5.337 0 9.597.724 12.781 2.172 3.184 1.448 5.754 3.527 7.71 6.235 1.956 2.709 3.292 5.86 4.01 9.453.714 3.594.931 7.402.65 11.425-.44 6.302-1.499 11.19-3.176 14.663-1.678 3.473-3.872 6.383-6.584 8.729-2.712 2.347-5.556 3.909-8.534 4.687-4.071 1.073-7.729 1.609-10.974 1.609h-27.07zm17.29 13.355l-2.251 32.22h4.465c3.808 0 6.546-.422 8.215-1.267 1.668-.845 3.03-2.32 4.091-4.425 1.059-2.105 1.753-5.518 2.083-10.238.436-6.249-.284-10.526-2.161-12.833-1.877-2.306-5.176-3.459-9.896-3.46z"/></g><g transform="matrix(.7128 0 0 .7128 6.448 120.14)"><path fill="#e6e6e6" d="m223.66-113.8l-12.367-12.332c-12.25-12.285-26.999-12.495-40.756 1.273l-9.798 9.809c-13.768 13.756-13.535 28.482-1.285 40.755l12.355 12.332c12.262 12.308 27.01 12.519 40.767-1.249l9.786-9.809c13.78-13.768 13.558-28.505 1.296-40.779m-61.939 61.939l-12.378-12.32c-12.262-12.273-26.987-12.507-40.744 1.273l-9.809 9.809c-13.768 13.745-13.546 28.47-1.285 40.755l39.658 39.634c4.578 4.554 9.728 3.889 13.254.374 3.515-3.515 4.111-8.583-.455-13.173l-9.132-9.1c2.487-.526 5.535-2.417 9.132-6l10.47-10.482c13.791-13.756 13.546-28.47 1.296-40.767m-49.17 76.991l-26.26-26.25c-12.274-12.273-26.988-12.506-40.768 1.261l-9.809 9.786c-13.756 13.768-13.546 28.505-1.261 40.778l26.24 26.287c4.601 4.566 9.728 3.877 13.254.385 3.515-3.538 4.122-8.642-.467-13.184l-26.02-26.05c-4.94-4.916-4.788-9.564.759-15.1l10.393-10.393c5.536-5.547 10.183-5.711 15.11-.76l26.03 26.02c4.554 4.589 9.657 3.982 13.173.467 3.527-3.527 4.204-8.665-.374-13.243m268.08 33.11l-162.9 162.88c-16.396 16.407-35.21 16.407-51.592 0l-162.89-162.88c-16.407-16.396-16.407-35.2 0-51.604l162.88-162.87c16.407-16.407 35.2-16.407 51.592 0l162.9 162.87c16.407 16.396 16.407 35.2.012 51.604m-181.89-171.37c-4.951-4.928-9.588-4.788-15.12.759l-10.393 10.405c-5.535 5.524-5.687 10.171-.736 15.1l11.876 11.9c4.94 4.951 9.564 4.8 15.12-.747l10.393-10.405c5.524-5.512 5.675-10.183.747-15.1l-11.888-11.911zm-50.05 73.862c4.928 4.928 4.776 9.576-.759 15.1l-10.393 10.405c-5.559 5.535-10.171 5.687-15.11.736l-11.9-11.9c-4.94-4.916-4.8-9.564.736-15.1l10.393-10.405c5.559-5.535 10.183-5.675 15.13-.747l11.9 11.911"/><g fill="#00c725"><g transform="translate(31.11 11.07)"><path d="m98.41-84.37c-6.935.131-14.06 3.516-20.938 10.406l-9.781 9.781c-13.768 13.756-13.574 28.496-1.313 40.781l39.656 39.625c4.578 4.554 9.735 3.89 13.25.375 3.527-3.515 4.129-8.567-.438-13.156l-9.125-9.09c2.476-.526 5.528-2.446 9.125-6.03l10.469-10.469c13.78-13.756 13.543-28.496 1.281-40.781l-12.375-12.312c-6.125-6.142-12.877-9.256-19.812-9.125m-.063 18.562c2.471-.109 4.874 1.099 7.344 3.563l11.906 11.906c4.928 4.928 4.754 9.582-.781 15.09l-10.375 10.406c-5.559 5.535-10.174 5.69-15.12.75l-11.909-11.906c-4.928-4.916-4.774-9.57.75-15.09l10.375-10.406c2.779-2.773 5.341-4.203 7.813-4.313z"/><path d="m160.38-146.34c-6.938.131-14.06 3.528-20.938 10.406l-9.813 9.813c-13.768 13.756-13.531 28.477-1.281 40.75l12.344 12.344c12.25 12.297 27.03 12.518 40.781-1.25l9.781-9.813c13.78-13.768 13.543-28.508 1.281-40.781l-12.344-12.312c-6.125-6.143-12.874-9.288-19.812-9.156m-.093 18.593c2.468-.114 4.868 1.099 7.344 3.563l11.906 11.906c4.94 4.916 4.762 9.57-.75 15.09l-10.406 10.406c-5.547 5.547-10.154 5.701-15.09.75l-11.91-11.908c-4.951-4.928-4.774-9.57.75-15.09l10.406-10.406c2.762-2.779 5.282-4.199 7.75-4.313z"/></g><path d="m112.56 25.12c4.566 4.589 3.9 9.728.362 13.254-3.515 3.515-8.606 4.122-13.173-.467l-26.02-26.02c-4.928-4.951-9.587-4.787-15.11.76l-10.405 10.393c-5.535 5.535-5.687 10.171-.759 15.1l26.02 26.05c4.589 4.543 3.982 9.646.479 13.184-3.527 3.492-8.665 4.181-13.254-.397l-26.25-26.27c-12.273-12.273-12.495-27.01 1.273-40.778l9.809-9.786c13.78-13.768 28.494-13.547 40.756-1.261l26.28 26.24z"/><path d="m201.28 6.638c-16.396 16.396-16.396 35.2 0 51.592l162.89 162.89c16.407 16.407 35.21 16.407 51.616 0l162.87-162.89c16.396-16.396 16.384-35.21 0-51.592l-162.88-162.87c-16.407-16.419-35.21-16.419-51.604 0l-162.9 162.87z"/></g><path fill="#fff" d="m483.17-43.39c0-13.11-8.688-23.718-25.644-23.718h-135.75c-16.524 0-25 10.37-25 23.09s8.478 23.09 24.99 23.09h105.28c3.608 0 5.71 1.904 5.722 6.143l-.012 18.01c0 4.227-2.102 6.131-5.71 6.143l-105.3-.012c-16.524 0-24.99 10.393-24.979 23.1-.012 12.717 8.466 23.09 24.99 23.09h105.26c3.597 0 5.722 1.904 5.722 6.142v17.995c0 4.239-2.125 6.142-5.722 6.142h-105.26c-16.536 0-25 10.382-25 23.09 0 12.717 8.478 23.09 24.99 23.09h135.78c16.944 0 25.633-10.58 25.621-23.729l.012-151.65z"/></g></svg>