<svg xmlns="http://www.w3.org/2000/svg" viewBox="0 0 600 401.98"><g transform="translate(-366.08 1162.53)"><path d="m585.76-1095.2c4.932 4.91 4.763 9.571-.747 15.1l-10.396 10.396c-5.555 5.543-10.181 5.702-15.11.747l-11.89-11.89c-4.955-4.932-4.785-9.582.735-15.1l10.396-10.396c5.543-5.555 10.17-5.702 15.12-.769l11.89 11.912m-73.849 50.04c-4.944-4.921-9.571-4.797-15.12.758l-10.396 10.396c-5.532 5.521-5.668 10.181-.735 15.1l11.901 11.901c4.944 4.944 9.548 4.797 15.1-.747l10.396-10.396c5.532-5.521 5.69-10.17.758-15.1l-11.901-11.912m243.84 109.45l-162.89 162.89c-16.403 16.403-35.22 16.403-51.597 0l-162.88-162.88c-16.403-16.403-16.403-35.21 0-51.609l162.88-162.87c16.403-16.415 35.21-16.415 51.597 0l162.88 162.87c16.415 16.392 16.415 35.21.011 51.597m-268.08-33.11l-26.27-26.25c-12.274-12.274-26.981-12.501-40.76 1.267l-9.808 9.785c-13.768 13.768-13.541 28.508-1.267 40.782l26.25 26.28c4.593 4.57 9.729 3.892 13.247.385 3.507-3.53 4.118-8.632-.464-13.179l-26.03-26.05c-4.932-4.921-4.774-9.571.769-15.1l10.396-10.385c5.532-5.555 10.181-5.713 15.11-.758l26.02 26.02c4.559 4.582 9.661 3.971 13.168.464 3.541-3.53 4.208-8.677-.362-13.259m49.16-76.983l-12.376-12.32c-12.263-12.286-26.992-12.501-40.748 1.267l-9.808 9.808c-13.768 13.756-13.553 28.474-1.29 40.76l39.651 39.64c4.593 4.559 9.74 3.892 13.259.373 3.518-3.518 4.118-8.586-.453-13.168l-9.129-9.107c2.489-.52 5.532-2.421 9.129-5.996l10.476-10.487c13.779-13.756 13.541-28.485 1.29-40.771m61.937-61.937l-12.365-12.331c-12.252-12.286-27-12.501-40.76 1.267l-9.797 9.808c-13.768 13.768-13.541 28.486-1.29 40.76l12.365 12.331c12.252 12.308 27 12.523 40.76-1.244l9.785-9.82c13.779-13.756 13.564-28.497 1.301-40.771" fill="#e6e6e5"/><g fill="#d9151b"><path d="m487.68-968.86c4.57 4.582 3.903 9.718.362 13.247-3.507 3.507-8.609 4.129-13.168-.464l-26.02-26.02c-4.932-4.944-9.582-4.785-15.11.758l-10.396 10.396c-5.543 5.532-5.702 10.17-.769 15.1l26.03 26.04c4.582 4.559 3.971 9.65.464 13.191-3.53 3.496-8.654 4.186-13.247-.385l-26.26-26.291c-12.274-12.263-12.489-27 1.278-40.771l9.808-9.785c13.779-13.779 28.485-13.541 40.76-1.267l26.27 26.25"/><g transform="translate(440.41-1139.91)"><path d="m126.19 10.656c-6.939.133-14.06 3.522-20.938 10.406l-9.812 9.813c-13.779 13.756-13.533 28.476-1.282 40.75l12.375 12.344c12.252 12.297 26.994 12.506 40.75-1.25l9.781-9.813c13.78-13.767 13.58-28.507 1.32-40.781l-12.38-12.344c-6.126-6.137-12.874-9.258-19.812-9.125zm-.07 18.594c2.469-.113 4.866 1.071 7.344 3.531l11.875 11.938c4.932 4.91 4.769 9.564-1.781 16.12l-10.4 10.406c-4.514 4.502-9.15 4.674-14.09-.281l-11.88-11.907c-4.955-4.921-4.771-9.562.75-15.09l10.4-10.406c2.772-2.777 5.312-4.199 7.781-4.313z"/><path d="m64.22 72.62c-6.936.132-14.06 3.517-20.938 10.406l-9.781 9.813c-13.768 13.745-13.544 28.464-1.281 40.75l39.625 39.625c4.582 4.548 9.763 3.882 13.281.375 3.518-3.518 4.102-8.595-.469-13.188l-9.125-9.09c2.478-.52 5.528-2.414 9.125-6l10.469-10.48c13.79-13.756 13.564-28.496 1.313-40.781l-12.407-12.309c-6.126-6.137-12.876-9.257-19.812-9.125zm-.063 18.562c2.469-.108 4.872 1.097 7.344 3.563l11.906 11.906c4.932 4.921 4.751 9.584-.781 15.09l-10.375 10.41c-5.555 5.543-10.181 5.694-15.12.75l-11.875-11.91c-4.944-4.921-4.813-9.573.719-15.09l10.406-10.41c2.777-2.777 5.312-4.204 7.781-4.313z"/></g><path d="m576.4-987.35c-16.392 16.392-16.392 35.21 0 51.597l162.89 162.89c16.403 16.403 35.19 16.403 51.609 0l162.89-162.89c16.392-16.392 16.37-35.21 0-51.597l-162.89-162.85c-16.415-16.415-35.21-16.415-51.597 0l-162.9 162.87z"/></g><g fill="#fff"><path d="m673.25-1002.9c0-2.896 1.211-4.106 4.106-4.106h2.987c2.885 0 4.106 1.21 4.106 4.106v15.02c1.867-.554 4.57-1.029 7.93-1.029 14.933 0 24.07 9.423 24.07 24.73 0 15.02-8.767 24.356-25.567 24.356-4.389 0-10.736-.645-13.813-1.674-2.33-.747-3.824-1.957-3.824-5.05v-56.36m11.201 52.627c1.674.566 4.288.939 6.629.939 9.797 0 13.994-5.973 13.994-14.933 0-8.96-4.197-14.933-13.994-14.933-2.342 0-4.955.373-6.629.939v27.988"/><path d="m767.22-947.51c.283.747.464 1.403.464 2.048 0 1.595-1.018 2.806-2.794 3.462-4.48 1.674-9.423 2.138-14.186 2.138-16.245 0-24.549-8.677-24.549-24.537 0-17.263 10.181-24.549 22.12-24.549 13.168 0 21.562 8.122 21.562 23.892 0 2.704-1.584 3.733-3.36 3.733h-28.927c.181 6.81 4.288 11.856 14.559 11.856 3.45 0 6.618-.747 9.231-1.595.848-.271 1.493-.464 2.149-.464 1.493 0 2.432.939 3.269 2.896l.464 1.12zm-8.496-21.653c-.464-7.184-4.197-11.471-10.634-11.471s-9.989 4.288-10.543 11.471h21.18"/><path d="m779.17-948.91c.837-1.957 1.776-2.896 3.258-2.896.656 0 1.312.192 2.149.475 3.462 1.211 7.376 2.138 11.482 2.138 6.527 0 9.514-1.674 9.514-4.944 0-3.631-3.541-4.389-8.575-5.509-10.09-2.24-18.202-4.288-18.202-14.458 0-9.242 7-14.842 20.25-14.842 4.106 0 8.767.566 12.976 2.149 1.765.656 2.704 1.867 2.704 3.36 0 .656-.192 1.301-.475 2.048l-.464 1.12c-.837 1.968-1.765 2.896-3.269 2.896-.645 0-1.301-.181-2.138-.464-3.179-1.12-6.72-1.776-9.616-1.776-5.69 0-8.869 1.686-8.869 4.853 0 3.269 2.625 3.914 8.496 5.317 10.08 2.33 18.293 4.389 18.293 14.65 0 9.242-6.72 14.933-20.714 14.933-5.136 0-10.645-.554-15.12-2.33-1.765-.656-2.704-1.867-2.704-3.36 0-.656.192-1.312.464-2.059l.566-1.301"/><path d="m828.81-978.49h-3.45c-2.896 0-4.106-1.211-4.106-4.106v-1.301c0-2.896 1.211-4.106 4.106-4.106h3.45v-7.659c0-2.885 1.211-4.106 4.106-4.106h2.987c2.896 0 4.106 1.222 4.106 4.106v7.659h11.573c2.885 0 4.106 1.211 4.106 4.106v1.301c0 2.896-1.222 4.106-4.106 4.106h-11.573v19.22c0 7.84 3.168 9.808 8.586 9.808.837 0 1.765-.102 2.511-.192.566-.091 1.403-.192 1.776-.192 1.493 0 2.33.656 2.704 2.432l.385 1.776c.091.464.272 1.391.272 1.867 0 1.765-1.029 2.885-3.077 3.269-2.059.373-4.106.645-6.256.645-11.663 0-18.1-5.408-18.1-18.293v-20.34"/></g></g></svg>