<svg xmlns="http://www.w3.org/2000/svg" viewBox="0 0 600 401.97"><g transform="translate(-329.5 1230.2)"><path d="m549.18-1162.9c4.932 4.91 4.763 9.571-.747 15.1l-10.396 10.396c-5.555 5.543-10.181 5.702-15.11.747l-11.89-11.89c-4.955-4.932-4.785-9.582.735-15.1l10.396-10.396c5.543-5.555 10.17-5.702 15.12-.769l11.89 11.912m-73.849 50.04c-4.944-4.921-9.571-4.797-15.12.758l-10.396 10.396c-5.532 5.521-5.668 10.181-.735 15.1l11.901 11.901c4.944 4.944 9.548 4.797 15.1-.747l10.396-10.396c5.532-5.521 5.69-10.17.758-15.1l-11.901-11.912m243.85 109.42l-162.89 162.89c-16.403 16.403-35.22 16.403-51.597 0l-162.88-162.88c-16.403-16.403-16.403-35.21 0-51.609l162.88-162.87c16.403-16.415 35.21-16.415 51.597 0l162.88 162.87c16.415 16.392 16.415 35.21.011 51.597m-268.08-33.11l-26.27-26.25c-12.274-12.274-26.981-12.5-40.76 1.267l-9.808 9.785c-13.768 13.768-13.541 28.508-1.267 40.782l26.25 26.28c4.593 4.57 9.729 3.892 13.247.385 3.507-3.53 4.118-8.632-.464-13.179l-26.03-26.05c-4.932-4.921-4.774-9.571.769-15.1l10.396-10.385c5.532-5.554 10.181-5.713 15.11-.758l26.02 26.02c4.559 4.582 9.661 3.971 13.168.464 3.541-3.53 4.208-8.677-.362-13.258m49.17-76.983l-12.376-12.32c-12.263-12.286-26.992-12.501-40.748 1.267l-9.808 9.808c-13.768 13.756-13.553 28.474-1.29 40.76l39.651 39.64c4.593 4.559 9.74 3.892 13.259.373 3.518-3.518 4.118-8.586-.453-13.168l-9.129-9.107c2.489-.52 5.532-2.421 9.129-5.996l10.476-10.487c13.779-13.756 13.541-28.485 1.29-40.771m61.937-61.937l-12.365-12.331c-12.252-12.286-27-12.501-40.76 1.267l-9.797 9.808c-13.768 13.768-13.541 28.486-1.29 40.76l12.365 12.331c12.252 12.308 27 12.523 40.76-1.244l9.785-9.82c13.779-13.756 13.564-28.497 1.301-40.771" fill="#e6e6e5"/><g fill="#009cdd"><path d="m451.1-1036.5c4.57 4.582 3.903 9.718.362 13.247-3.507 3.507-8.609 4.129-13.168-.464l-26.02-26.02c-4.932-4.944-9.582-4.785-15.11.758l-10.396 10.396c-5.543 5.532-5.702 10.17-.769 15.1l26.03 26.04c4.582 4.559 3.971 9.65.464 13.191-3.53 3.496-8.654 4.186-13.247-.396l-26.26-26.28c-12.274-12.263-12.489-27 1.278-40.771l9.808-9.785c13.779-13.779 28.485-13.541 40.76-1.267l26.27 26.25"/><g transform="translate(366.08-1162.53)"><path d="m163.94-34.375c-6.939.133-14.06 3.522-20.938 10.406l-9.813 9.781c-13.779 13.756-13.533 28.507-1.281 40.781l12.375 12.312c12.252 12.297 26.994 12.506 40.75-1.25l9.781-9.813c13.779-13.768 13.576-28.476 1.313-40.75l-12.37-12.342c-6.126-6.137-12.874-9.258-19.812-9.125zm-.063 18.562c2.469-.113 4.866 1.102 7.344 3.563l11.875 11.906c4.932 4.91 4.759 9.573-.75 15.09l-10.375 10.406c-5.555 5.543-10.181 5.705-15.12.75l-11.89-11.906c-4.96-4.921-4.8-9.562.72-15.09l10.4-10.406c2.772-2.777 5.312-4.199 7.781-4.313z"/><path d="m102 27.562c-6.936.132-14.06 3.517-20.938 10.407l-9.813 9.813c-13.768 13.745-13.544 28.464-1.281 40.75l39.651 39.658c4.582 4.548 9.732 3.851 13.25.344 3.518-3.518 4.102-8.563-.469-13.156l-9.125-9.09c2.478-.52 5.528-2.445 9.125-6.03l10.48-10.469c13.79-13.756 13.564-28.464 1.313-40.75l-12.38-12.343c-6.12-6.138-12.87-9.257-19.81-9.126zm-.094 18.562c2.469-.109 4.872 1.096 7.344 3.563l11.906 11.906c4.932 4.932 4.782 9.584-.75 15.09l-10.41 10.408c-5.555 5.543-10.15 5.694-15.09.75l-11.906-11.906c-4.944-4.922-4.813-9.574.719-15.09l10.406-10.406c2.777-2.777 5.312-4.204 7.781-4.313z"/></g><path d="m539.83-1055c-16.392 16.392-16.392 35.19 0 51.597l162.89 162.89c16.403 16.403 35.19 16.403 51.609 0l162.89-162.89c16.392-16.404 16.37-35.2 0-51.597l-162.89-162.87c-16.415-16.415-35.21-16.415-51.597 0l-162.9 162.87z"/></g><g fill="#fff"><path d="m650.98-1065h-14.842c-3.439 0-5.125 1.674-5.125 5.125v58.05c0 3.45 1.686 5.125 5.125 5.125h14.842c22.761 0 35.827-12.444 35.827-34.15 0-21.698-13.07-34.14-35.827-34.14m.939 56.36h-7.297v-44.44h7.297c13.349 0 20.996 8.1 20.996 22.22 0 14.13-7.647 22.22-20.996 22.22"/><path d="m728.89-1065.9c-19.684 0-30.974 12.783-30.974 35.08 0 22.297 11.29 35.08 30.974 35.08s30.974-12.783 30.974-35.08c0-22.297-11.29-35.08-30.974-35.08m0 58.14c-10.86 0-17.08-8.405-17.08-23.06 0-14.661 6.222-23.06 17.08-23.06s17.08 8.394 17.08 23.06c0 14.65-6.222 23.05-17.08 23.05"/><path d="m821.6-1008.3c-.803-1.425-1.708-3.043-4.061-3.043-.882 0-1.878.271-2.862.758-2.41 1.165-5.396 2.602-10.758 2.602-12.455 0-18.768-7.693-18.768-22.874 0-15.17 6.313-22.863 18.768-22.863 5.351 0 8.349 1.437 10.747 2.591.996.498 1.991.769 2.873.769 2.353 0 3.258-1.618 4.073-3.054l1.041-1.9c.441-.882.667-1.787.667-2.692 0-1.754-.928-3.156-2.828-4.322-3.609-2.183-10.261-3.597-16.946-3.597-20.521 0-32.27 12.783-32.27 35.07 0 22.297 11.754 35.08 32.27 35.08 6.686 0 13.338-1.403 16.958-3.597 1.889-1.154 2.817-2.568 2.817-4.321 0-.905-.226-1.81-.69-2.726l-1.029-1.878"/></g></g></svg>