<svg xmlns="http://www.w3.org/2000/svg" viewBox="0 0 600 227.52"><g transform="matrix(.99998 0 0 .99998-45.47-302.61)"><path d="m433.51 465.95l40.22-56.21-40.22-56.05v112.26m-23.702 31.809h-18.541l-53.928-56.3v56.3h-52.26v-19.538c-11.986 15.263-31.983 23.02-59.49 23.02-45.964 0-71.28-21.739-71.28-61.26v-23.607h-36.07v81.38h-72.77v-170.73l282.26.032 53.52 55.875v-55.891l123.44-.016 14.614 20.09 14.614-20.09h27.17l17.796-24.415h66.61l-81.79 112.42 60.23 82.73h-91.18l-14.63-20.11-14.63 20.11h-26.774l-23.56 32.363-66.863.016 23.528-32.379z" fill="#6c3a96"/><g fill="#fff"><path d="m254.04 337.24h-.063l.063.285v104.32c0 12.698-6.159 24.351-19.918 28.06 21.17 0 31.476-11.162 31.476-28.06v-94.37h9.611v92.5c0 35.32-27.803 39.41-49.621 39.41s-49.621-4.085-49.621-39.41v-102.74l-120.4-.016v150.32h11.527v-139.84h97.33v92.28c0 42.21 32.695 51.06 61.16 51.06 28.452 0 61.15-8.851 61.15-51.06v-102.74h-.016-32.68z"/><path d="m76.08 487.55h11.511v-100.87h68.41v-10.466h-68.42v-9.01h68.42v-10.482h-79.926v130.83z"/><path d="m96.56 487.55h11.527v-81.38h39.03v-10.466h-50.555v91.85"/><path d="m216.4 469.98c-13.759-3.689-19.934-15.342-19.934-28.06v-94.22h9.04v93.84c0 10.592 5.288 21.264 19.871 21.264 14.582 0 19.855-10.672 19.855-21.264v-104.31h-11.542v104.31c0 6.397-1.963 9.642-8.312 9.642-6.333 0-8.328-3.246-8.328-9.642l-.016-104.31-32.11.032v104.66c0 16.91 10.307 28.06 31.476 28.06"/><path d="m423.6 471.03l-128.42-134.01v150.53h11.558v-121.85l8.962 9.357v112.49h11.527v-100.48l96.38 100.48v-16.514z"/><path d="m423.4 441.59v-104.32h-11.542v92.29l-8.946-9.357v-82.934h-11.558v70.917l-67.908-70.917-16.02-.032 115.98 121.09v-16.736z"/><path d="m334.88 407.7v16.498l60.688 63.33h15.881l-76.57-79.83"/></g><g fill="#6ec7b2"><path d="m483.2 487.55h15.168l19.744-27.12 19.744 27.12h15.168l-27.36-37.509 5.162-7.109 32.505 44.618h15.12l-47.626-65.31-47.626 65.31"/><path d="m625.52 312.81h-14.82c-.127.127-74.62 102.27-74.62 102.27l52.709 72.45h15.15l-52.788-72.5 74.37-102.22"/><path d="m554.2 337.23h-15.168l-19.744 27.14-19.76-27.14h-15.15l27.36 37.509-5.177 7.125-32.49-44.634h-15.14l47.626 65.3 47.642-65.3"/><path d="m448.62 337.23h-15.168l52.804 72.52-80.04 110.21h14.836c.12-.13 80.28-110.26 80.28-110.26l-52.71-72.47z"/><path d="m584.02 312.81c-.111.127-151.1 207.19-151.1 207.19l15.07-.048 150.87-207.14h-14.851z"/></g></g></svg>