<svg xmlns="http://www.w3.org/2000/svg" viewBox="0 0 600 401.98"><g transform="translate(-280.42 1246.73)"><path d="m500.1-1179.4c4.932 4.91 4.763 9.571-.747 15.1l-10.396 10.396c-5.555 5.543-10.181 5.702-15.11.747l-11.89-11.89c-4.955-4.932-4.785-9.582.735-15.1l10.396-10.396c5.543-5.555 10.17-5.702 15.12-.769l11.89 11.912m-73.849 50.04c-4.944-4.921-9.571-4.797-15.12.758l-10.396 10.396c-5.532 5.521-5.668 10.181-.735 15.1l11.901 11.901c4.944 4.944 9.548 4.797 15.1-.747l10.396-10.396c5.532-5.521 5.69-10.17.758-15.1l-11.901-11.912m243.85 109.42l-162.89 162.89c-16.403 16.403-35.22 16.403-51.597 0l-162.88-162.88c-16.403-16.403-16.403-35.21 0-51.609l162.88-162.87c16.403-16.415 35.2-16.415 51.597 0l162.88 162.87c16.415 16.392 16.415 35.2.011 51.597m-268.08-33.11l-26.27-26.25c-12.274-12.274-26.981-12.5-40.76 1.267l-9.808 9.785c-13.768 13.768-13.541 28.508-1.267 40.782l26.25 26.28c4.593 4.57 9.729 3.892 13.247.385 3.507-3.53 4.118-8.632-.464-13.179l-26.03-26.05c-4.932-4.921-4.774-9.571.769-15.1l10.396-10.385c5.532-5.554 10.181-5.713 15.11-.758l26.02 26.02c4.559 4.582 9.661 3.971 13.168.464 3.541-3.53 4.208-8.677-.362-13.258m49.17-76.983l-12.376-12.32c-12.263-12.286-26.992-12.501-40.748 1.267l-9.808 9.808c-13.768 13.756-13.553 28.474-1.29 40.76l39.651 39.64c4.593 4.559 9.74 3.892 13.259.373 3.518-3.518 4.118-8.586-.453-13.168l-9.129-9.107c2.489-.52 5.532-2.421 9.129-5.996l10.476-10.487c13.779-13.756 13.541-28.485 1.29-40.771m61.937-61.937l-12.365-12.331c-12.252-12.286-27-12.501-40.76 1.267l-9.797 9.808c-13.768 13.768-13.541 28.486-1.29 40.76l12.365 12.331c12.252 12.308 27 12.523 40.76-1.244l9.786-9.82c13.779-13.756 13.564-28.497 1.301-40.771" fill="#e6e6e5"/><g fill="#00c624"><path d="m402.02-1053.1c4.57 4.582 3.903 9.718.362 13.247-3.507 3.507-8.609 4.129-13.168-.464l-26.02-26.02c-4.932-4.944-9.582-4.785-15.11.758l-10.396 10.396c-5.543 5.532-5.702 10.17-.769 15.1l26.03 26.04c4.582 4.559 3.971 9.65.464 13.191-3.53 3.496-8.654 4.186-13.247-.396l-26.26-26.28c-12.274-12.263-12.489-27 1.278-40.771l9.808-9.785c13.779-13.779 28.485-13.541 40.76-1.267l26.27 26.25"/><g transform="translate(329.5-1230.2)"><path d="m151.44 16.75c-6.939.133-14.06 3.522-20.938 10.406l-9.813 9.813c-13.779 13.756-13.533 28.476-1.281 40.75l12.375 12.344c12.252 12.297 26.994 12.506 40.75-1.25l9.78-9.812c13.78-13.768 13.58-28.507 1.31-40.781l-12.37-12.344c-6.126-6.137-12.874-9.258-19.812-9.125zm-.063 18.594c2.469-.113 4.866 1.071 7.344 3.531l11.875 11.938c4.932 4.91 4.769 9.564-1.781 16.12l-10.406 10.406c-4.514 4.502-9.119 4.674-14.06-.281l-11.91-11.907c-4.955-4.921-4.771-9.562.75-15.09l10.406-10.406c2.772-2.777 5.312-4.199 7.781-4.313z"/><path d="m89.5 78.72c-6.936.131-14.06 3.517-20.938 10.406l-9.812 9.813c-13.768 13.745-13.544 28.464-1.281 40.75l39.656 39.625c4.582 4.548 9.732 3.882 13.25.375 3.518-3.518 4.102-8.563-.469-13.156l-9.125-9.125c2.478-.52 5.528-2.414 9.125-6l10.48-10.48c13.79-13.756 13.564-28.496 1.313-40.781l-12.41-12.316c-6.12-6.137-12.844-9.257-19.78-9.125zm-.094 18.562c2.469-.109 4.872 1.096 7.344 3.563l11.91 11.91c4.932 4.932 4.782 9.584-.75 15.09l-10.41 10.41c-5.555 5.543-10.15 5.694-15.09.75l-11.906-11.91c-4.944-4.92-4.813-9.57.719-15.09l10.406-10.41c2.777-2.777 5.312-4.204 7.781-4.313z"/></g><path d="m490.75-1071.5c-16.392 16.392-16.392 35.2 0 51.597l162.89 162.89c16.403 16.403 35.19 16.403 51.609 0l162.89-162.99c16.392-16.392 16.37-35.21 0-51.597l-162.89-162.87c-16.415-16.415-35.21-16.415-51.597 0l-162.9 162.87z"/></g><g fill="#fff"><path d="m542.48-1087.1c0-2.896 1.211-4.107 4.106-4.107h2.987c2.896 0 4.106 1.21 4.106 4.107v15.02c1.776-.464 5.509-1.03 8.96-1.03 14.458 0 21.653 5.883 21.653 21.279v22.772c0 2.896-1.222 4.107-4.106 4.107h-2.987c-2.896 0-4.106-1.21-4.106-4.107v-19.322c0-9.706-1.029-15.02-11.663-15.02-2.523 0-5.883.373-7.749.939v33.406c0 2.896-1.211 4.107-4.106 4.107h-2.987c-2.896 0-4.106-1.21-4.106-4.107v-58.05z"/><path d="m596.23-1068.1c0-2.896 1.211-4.107 4.106-4.107h2.987c2.896 0 4.106 1.21 4.106 4.107v19.413c0 9.514.928 15.02 11.29 15.02 2.704 0 5.792-.373 7.749-.837v-33.599c0-2.896 1.211-4.107 4.106-4.107h2.987c2.885 0 4.106 1.21 4.106 4.107v37.513c0 2.987-1.029 4.02-4.02 4.853-4.106 1.12-11.01 1.686-15.589 1.686-14.74 0-21.834-5.792-21.834-21.19v-22.863"/><path d="m650.17-1066.5c0-2.704.928-4.107 4.02-4.944 3.631-1.029 10.724-1.686 14.831-1.686 5.419 0 10.928 1.12 14.186 3.088 4.299-2.059 9.152-3.088 15.216-3.088 14.367 0 21.37 5.69 21.37 21.279v22.772c0 2.896-1.211 4.107-4.106 4.107h-2.987c-2.896 0-4.106-1.21-4.106-4.107v-19.322c0-9.604-.939-15.02-11.01-15.02-2.613 0-5.6.373-8.122 1.312 1.029 2.704 1.584 6.06 1.584 10.261v22.772c0 2.896-1.211 4.107-4.106 4.107h-2.987c-2.885 0-4.106-1.21-4.106-4.107v-19.322c0-9.514-.928-15.02-10.917-15.02-2.613 0-5.781.373-7.557.837v33.508c0 2.896-1.211 4.107-4.106 4.107h-2.987c-2.896 0-4.106-1.21-4.106-4.107v-37.422"/><path d="m730.05-1048.6c0-15.962 9.242-24.537 23.429-24.537 14.175 0 23.417 8.575 23.417 24.537 0 16.05-9.242 24.537-23.417 24.537-14.186 0-23.429-8.485-23.429-24.537m35.465 0c0-9.514-4.299-14.933-12.04-14.933-7.749 0-12.05 5.419-12.05 14.933 0 9.616 4.299 14.933 12.05 14.933 7.738 0 12.04-5.317 12.04-14.933"/><path d="m787.44-1066c0-2.806 1.211-4.389 3.914-5.136 4.955-1.403 10.181-2.048 14.752-2.048 2.149 0 4.48.091 6.72.373 2.33.272 3.541 1.584 3.541 3.541 0 .373-.091 1.312-.181 1.776l-.192.928c-.554 2.613-1.301 3.733-3.541 3.733-1.312 0-3.643-.373-6.256-.373-2.24 0-5.509.283-7.557.939v33.12c0 2.896-1.211 4.107-4.106 4.107h-2.987c-2.896 0-4.106-1.21-4.106-4.107v-36.857"/><path d="m670.82-986.16h-33.09c-2.772 0-4.174 1.403-4.174 4.174v1.584c0 2.772 1.403 4.174 4.174 4.174h10.464v38.893c0 2.772 1.403 4.174 4.174 4.174h2.591c2.772 0 4.174-1.403 4.174-4.174v-38.893h9.1c2.885 0 4.717-1.256 5.758-3.948.475-1.188.577-2.104.577-2.67 0-2.104-1.357-3.315-3.745-3.315"/><path d="m721.65-986.16h-3.088c-2.545 0-4.084 1.188-4.842 3.722l-10.691 33.78c-.147.441-.317.939-.475 1.459-.158-.52-.317-1.01-.464-1.425l-10.691-33.791c-.769-2.557-2.308-3.745-4.853-3.745h-3.371c-2.274 0-3.677 1.267-3.677 3.315 0 .588.181 1.425.486 2.274l15.295 43.724c.916 2.591 2.342 3.688 4.763 3.688h4.74c2.421 0 3.846-1.097 4.763-3.699l15.284-43.701c.317-.86.498-1.697.498-2.285 0-2.048-1.414-3.315-3.677-3.315"/></g></g></svg>