<svg xmlns="http://www.w3.org/2000/svg" viewBox="0 0 600 401.98"><g transform="translate(-346.57 1304.59)"><path d="m566.24-1237.3c4.932 4.91 4.763 9.571-.747 15.1l-10.396 10.396c-5.555 5.543-10.181 5.702-15.11.747l-11.89-11.89c-4.955-4.932-4.785-9.582.735-15.1l10.396-10.396c5.543-5.555 10.17-5.702 15.12-.769l11.89 11.912m-73.849 50.04c-4.944-4.921-9.571-4.797-15.12.758l-10.396 10.396c-5.532 5.521-5.668 10.181-.735 15.1l11.901 11.901c4.944 4.944 9.548 4.797 15.1-.747l10.396-10.396c5.532-5.521 5.69-10.17.758-15.1l-11.901-11.912m243.85 109.42l-162.89 162.89c-16.403 16.403-35.22 16.403-51.597 0l-162.88-162.88c-16.403-16.403-16.403-35.2 0-51.609l162.88-162.87c16.403-16.415 35.21-16.415 51.597 0l162.88 162.87c16.415 16.392 16.415 35.2.011 51.597m-268.08-33.11l-26.27-26.25c-12.274-12.274-26.981-12.5-40.76 1.267l-9.808 9.785c-13.768 13.768-13.541 28.508-1.267 40.782l26.25 26.28c4.593 4.57 9.729 3.892 13.247.385 3.507-3.53 4.118-8.632-.464-13.179l-26.03-26.05c-4.932-4.921-4.774-9.571.769-15.1l10.396-10.385c5.532-5.554 10.181-5.713 15.11-.758l26.02 26.02c4.559 4.582 9.661 3.971 13.168.464 3.541-3.53 4.208-8.677-.362-13.258m49.16-76.983l-12.376-12.32c-12.263-12.286-26.992-12.501-40.748 1.267l-9.808 9.808c-13.768 13.756-13.553 28.474-1.29 40.76l39.651 39.64c4.593 4.559 9.74 3.892 13.259.373 3.518-3.518 4.118-8.586-.453-13.168l-9.129-9.107c2.489-.52 5.532-2.421 9.129-5.996l10.476-10.487c13.779-13.756 13.541-28.485 1.29-40.771m61.937-61.937l-12.365-12.331c-12.252-12.286-27-12.501-40.76 1.267l-9.797 9.808c-13.768 13.768-13.541 28.486-1.29 40.76l12.365 12.331c12.252 12.308 27 12.523 40.76-1.244l9.785-9.82c13.779-13.756 13.564-28.497 1.301-40.771" fill="#e6e6e5"/><g fill="#d9151b"><path d="m468.16-1110.9c4.57 4.582 3.903 9.718.362 13.247-3.507 3.507-8.609 4.129-13.168-.464l-26.02-26.02c-4.932-4.944-9.582-4.785-15.11.758l-10.396 10.396c-5.543 5.532-5.702 10.17-.769 15.1l26.03 26.04c4.582 4.559 3.971 9.65.464 13.191-3.53 3.496-8.654 4.186-13.247-.385l-26.26-26.291c-12.274-12.263-12.489-27 1.278-40.771l9.808-9.785c13.779-13.779 28.485-13.541 40.76-1.267l26.27 26.25"/><g transform="translate(280.42-1246.73)"><path d="m266.66-24.594c-6.939.133-14.06 3.522-20.938 10.406l-9.813 9.813c-13.77 13.757-13.54 28.508-1.29 40.782l12.38 12.313c12.252 12.297 26.994 12.506 40.75-1.25l9.781-9.813c13.779-13.768 13.576-28.507 1.313-40.781l-12.375-12.344c-6.126-6.137-12.874-9.258-19.812-9.125zm-.07 18.594c2.469-.113 4.866 1.071 7.344 3.531l11.875 11.938c4.932 4.91 4.769 9.564-1.781 16.12l-10.4 10.406c-4.514 4.502-9.119 4.674-14.06-.281l-11.9-11.907c-4.955-4.921-4.771-9.562.75-15.09l10.4-10.406c2.772-2.777 5.312-4.199 7.781-4.313z"/><path d="m204.72 37.37c-6.936.132-14.06 3.517-20.938 10.406l-9.813 9.813c-13.768 13.745-13.544 28.464-1.281 40.75l39.656 39.625c4.582 4.548 9.732 3.882 13.25.375 3.518-3.518 4.102-8.563-.469-13.156l-9.13-9.09c2.477-.52 5.528-2.445 9.125-6.03l10.469-10.469c13.79-13.756 13.564-28.496 1.313-40.781l-12.4-12.31c-6.126-6.137-12.845-9.257-19.781-9.125zm-.094 18.562c2.469-.109 4.872 1.096 7.344 3.563l11.906 11.906c4.932 4.921 4.782 9.584-.75 15.09l-10.406 10.406c-5.555 5.543-10.15 5.694-15.09.75l-11.91-11.906c-4.944-4.921-4.813-9.573.719-15.09l10.4-10.406c2.777-2.777 5.312-4.204 7.781-4.313z"/></g><path d="m556.89-1129.4c-16.392 16.392-16.392 35.2 0 51.597l162.89 162.88c16.403 16.403 35.19 16.403 51.609 0l162.89-162.89c16.392-16.392 16.37-35.2 0-51.597l-162.89-162.87c-16.415-16.415-35.21-16.415-51.597 0l-162.9 162.87z"/></g><g fill="#fff"><path d="m590.98-1124.3c0-3.077 1.493-4.287 3.824-5.03 3.077-1.029 9.423-1.686 13.813-1.686 16.799 0 25.567 9.333 25.567 24.356 0 15.306-9.141 24.73-24.07 24.73-3.36 0-6.06-.464-7.93-1.03v12.783c0 2.896-1.211 4.107-4.106 4.107h-2.987c-2.896 0-4.106-1.21-4.106-4.107v-54.12m11.199 31.823c1.674.554 4.288.928 6.629.928 9.797 0 13.994-5.962 13.994-14.922 0-8.96-4.197-14.933-13.994-14.933-2.342 0-4.955.373-6.629.928v27.999"/><path d="m642.09-1106.5c0-15.962 9.242-24.537 23.417-24.537 14.186 0 23.429 8.575 23.429 24.537 0 16.05-9.242 24.537-23.429 24.537-14.175 0-23.417-8.485-23.417-24.537m35.465 0c0-9.514-4.299-14.933-12.05-14.933-7.738 0-12.04 5.419-12.04 14.933 0 9.616 4.299 14.933 12.04 14.933 7.749 0 12.05-5.317 12.05-14.933"/><path d="m697.94-1145c0-2.896 1.211-4.107 4.106-4.107h2.987c2.896 0 4.106 1.21 4.106 4.107v58.05c0 2.896-1.211 4.107-4.106 4.107h-2.987c-2.896 0-4.106-1.21-4.106-4.107v-58.05"/><path d="m728.28-1150c4.106 0 6.901 2.704 6.901 6.72 0 4.02-2.794 6.72-6.901 6.72-4.106 0-6.901-2.704-6.901-6.72 0-4.02 2.794-6.72 6.901-6.72m-5.6 24.07c0-2.885 1.211-4.107 4.106-4.107h2.987c2.896 0 4.106 1.222 4.106 4.107v39.01c0 2.896-1.211 4.107-4.106 4.107h-2.987c-2.896 0-4.106-1.21-4.106-4.107v-39.01z"/><path d="m749.58-1120.6h-3.45c-2.896 0-4.106-1.21-4.106-4.107v-1.301c0-2.896 1.211-4.107 4.106-4.107h3.45v-7.659c0-2.885 1.211-4.107 4.106-4.107h2.987c2.896 0 4.106 1.222 4.106 4.107v7.659h11.573c2.896 0 4.106 1.21 4.106 4.107v1.301c0 2.896-1.211 4.107-4.106 4.107h-11.573v19.22c0 7.84 3.168 9.808 8.586 9.808.837 0 1.776-.102 2.523-.192.554-.09 1.391-.192 1.765-.192 1.493 0 2.33.656 2.715 2.432l.362 1.776c.102.464.283 1.391.283 1.867 0 1.765-1.029 2.885-3.077 3.258-2.048.373-4.106.656-6.256.656-11.663 0-18.1-5.408-18.1-18.293v-20.34"/><path d="m791.96-1150c4.106 0 6.901 2.704 6.901 6.72 0 4.02-2.794 6.72-6.901 6.72-4.106 0-6.901-2.704-6.901-6.72 0-4.02 2.794-6.72 6.901-6.72m-5.6 24.07c0-2.885 1.211-4.107 4.106-4.107h2.987c2.896 0 4.106 1.222 4.106 4.107v39.01c0 2.896-1.211 4.107-4.106 4.107h-2.987c-2.896 0-4.106-1.21-4.106-4.107v-39.01z"/><path d="m848.48-1089.6c.283.747.464 1.403.464 2.048 0 1.584-1.029 2.806-2.794 3.45-4.48 1.686-9.435 2.149-14.186 2.149-16.245 0-24.549-8.677-24.549-24.537 0-17.263 10.181-24.549 22.12-24.549 13.157 0 21.562 8.122 21.562 23.892 0 2.704-1.584 3.733-3.36 3.733h-28.927c.181 6.81 4.288 11.856 14.559 11.856 3.45 0 6.618-.747 9.231-1.595.837-.272 1.493-.464 2.149-.464 1.493 0 2.432.939 3.269 2.896l.464 1.12zm-8.496-21.653c-.464-7.184-4.197-11.471-10.634-11.471s-9.989 4.288-10.543 11.471h21.18"/><path d="m860.86-1145c0-2.896 1.211-4.107 4.106-4.107h2.987c2.896 0 4.106 1.21 4.106 4.107v34.99l15.02-16.98c1.957-2.24 3.824-3.077 6.72-3.077h4.197c1.686 0 2.523.837 2.523 1.957 0 .747-.464 1.686-1.686 2.987l-15.951 17.636 16.324 19.786c1.029 1.301 1.312 2.149 1.312 2.896 0 1.12-.837 1.957-2.24 1.957h-5.69c-2.24 0-4.02-.837-5.883-3.269l-14.65-18.564v17.727c0 2.896-1.211 4.107-4.106 4.107h-2.987c-2.896 0-4.106-1.21-4.106-4.107v-58.05"/></g></g></svg>