<svg xmlns="http://www.w3.org/2000/svg" viewBox="0 0 600 401.98"><g transform="translate(-135.05 740.95)"><path d="m367.75-686.2l-12.367-12.332c-12.25-12.285-26.999-12.495-40.756 1.273l-9.798 9.809c-13.768 13.756-13.535 28.482-1.285 40.755l12.355 12.332c12.262 12.308 27.01 12.519 40.767-1.25l9.786-9.809c13.78-13.768 13.558-28.505 1.296-40.779m-61.939 61.939l-12.378-12.32c-12.262-12.273-26.987-12.507-40.744 1.273l-9.809 9.809c-13.768 13.745-13.546 28.47-1.285 40.756l39.658 39.634c4.578 4.554 9.728 3.889 13.254.374 3.515-3.515 4.111-8.583-.455-13.173l-9.12-9.1c2.476-.525 5.535-2.417 9.12-6l10.463-10.487c13.791-13.756 13.546-28.47 1.296-40.767m-49.16 76.992l-26.26-26.25c-12.273-12.273-26.987-12.507-40.767 1.261l-9.809 9.786c-13.756 13.768-13.546 28.505-1.261 40.779l26.24 26.287c4.601 4.566 9.728 3.877 13.254.385 3.515-3.538 4.122-8.642-.467-13.184l-26.02-26.05c-4.94-4.916-4.788-9.564.759-15.1l10.393-10.393c5.535-5.547 10.183-5.71 15.11-.759l26.03 26.02c4.554 4.589 9.657 3.982 13.173.467 3.527-3.527 4.204-8.665-.374-13.243m268.09 33.11l-162.91 162.88c-16.396 16.407-35.21 16.407-51.592 0l-162.88-162.89c-16.407-16.396-16.407-35.2 0-51.604l162.88-162.87c16.407-16.407 35.2-16.407 51.592 0l162.89 162.87c16.407 16.396 16.407 35.2.012 51.604m-181.89-171.37c-4.951-4.928-9.587-4.788-15.12.759l-10.393 10.405c-5.535 5.524-5.687 10.171-.736 15.1l11.876 11.9c4.94 4.951 9.564 4.8 15.12-.747l10.393-10.405c5.524-5.512 5.675-10.183.747-15.1l-11.888-11.911zm-50.05 73.862c4.928 4.928 4.776 9.576-.759 15.1l-10.405 10.405c-5.547 5.535-10.16 5.687-15.1.736l-11.9-11.9c-4.94-4.916-4.8-9.564.736-15.1l10.393-10.405c5.559-5.535 10.183-5.675 15.13-.747l11.9 11.911" fill="#e6e6e6"/><g fill="#d9151b"><g transform="translate(63-489.88)"><path d="m210.62-155.84c-6.935.131-14.06 3.516-20.938 10.406l-9.813 9.813c-13.768 13.756-13.543 28.465-1.281 40.75l39.66 39.651c4.578 4.554 9.735 3.89 13.25.375 3.527-3.515 4.097-8.598-.469-13.188l-9.09-9.09c2.476-.525 5.528-2.415 9.125-6l10.469-10.5c13.78-13.756 13.543-28.465 1.281-40.75l-12.375-12.344c-6.125-6.143-12.877-9.256-19.812-9.125zm-.063 18.594c2.471-.109 4.843 1.067 7.313 3.531l11.906 11.938c4.928 4.928 4.785 9.582-.75 15.09l-10.41 10.409c-5.559 5.535-10.142 5.69-15.09.75l-11.906-11.938c-4.928-4.916-4.805-9.57.719-15.09l10.41-10.41c2.779-2.774 5.341-4.172 7.813-4.281z"/><path d="m272.56-217.78c-6.938.131-14.06 3.497-20.938 10.375l-9.781 9.844c-13.768 13.756-13.563 28.477-1.313 40.75l12.375 12.312c12.25 12.297 26.994 12.518 40.75-1.25l9.813-9.781c13.78-13.768 13.543-28.508 1.281-40.781l-12.375-12.344c-6.125-6.143-12.874-9.256-19.812-9.125m-.063 18.562c2.468-.114 4.868 1.099 7.344 3.563l11.875 11.906c4.94 4.916 4.793 9.57-.719 15.09l-10.41 10.41c-5.547 5.547-10.185 5.701-15.12.75l-11.875-11.906c-4.951-4.928-4.805-9.57.719-15.09l10.406-10.375c2.762-2.779 5.313-4.23 7.781-4.344z"/></g><path d="m256.66-547.28c4.566 4.589 3.9 9.728.362 13.254-3.515 3.515-8.607 4.122-13.173-.467l-26.02-26.02c-4.928-4.951-9.588-4.788-15.11.759l-10.405 10.393c-5.535 5.535-5.687 10.171-.759 15.1l26.02 26.05c4.589 4.543 3.982 9.646.479 13.184-3.527 3.492-8.665 4.181-13.254-.397l-26.25-26.27c-12.273-12.273-12.495-27.01 1.273-40.779l9.809-9.786c13.78-13.768 28.494-13.546 40.755-1.261l26.27 26.24z"/><path d="m345.38-565.77c-16.396 16.396-16.396 35.2 0 51.592l162.88 162.89c16.407 16.407 35.21 16.407 51.616 0l162.88-162.89c16.396-16.396 16.384-35.21 0-51.592l-162.88-162.87c-16.407-16.419-35.21-16.419-51.604 0l-162.89 162.87z"/></g><g fill="#fff"><path d="m581.18-474.3c11.83 0 17.879-7.38 17.879-16.536v-52.45c0-9.155-6.04-16.547-17.879-16.547h-94.68c-11.526 0-17.435 7.229-17.423 16.1-.012 8.852 5.897 16.1 17.423 16.12h73.42c2.511 0 3.994 1.32 3.994 4.262v12.554c0 2.954-1.483 4.274-4.01 4.274h-72.963c-11.83 0-17.879 7.404-17.879 16.559v52.44c.012 9.167 6.06 16.536 17.879 16.536l94.68.012c11.514 0 17.435-7.252 17.435-16.12 0-8.852-5.921-16.09-17.435-16.09h-73.42c-2.511 0-3.97-1.32-3.97-4.286v-12.554c0-2.943 1.46-4.286 3.97-4.286h72.975"/><path d="m434.01-619.13c0-2.768 1.203-4.344 3.877-5.08 4.905-1.39 10.08-2.032 14.609-2.032 2.114 0 4.426.093 6.645.362 2.312.28 3.515 1.577 3.515 3.515 0 .374-.093 1.296-.187 1.752l-.187.934c-.549 2.581-1.296 3.69-3.503 3.69-1.296 0-3.608-.374-6.201-.374-2.219 0-5.454.28-7.486.934v32.803c0 2.861-1.191 4.064-4.064 4.064h-2.954c-2.861 0-4.064-1.203-4.064-4.064v-36.505"/><path d="m497.03-598.71c-2.125-.642-4.986-1.016-7.953-1.016-7.299 0-10.802 2.219-10.802 7.02 0 4.718 3.422 6.843 10.989 6.843 2.686 0 5.64-.28 7.766-.923v-11.923m-25.317-20.05c-.28-.736-.374-1.39-.374-1.938 0-1.752 1.296-2.686 2.592-3.235 3.141-1.39 9.424-2.312 14.597-2.312 12.939 0 19.502 5.64 19.502 19.222v23c0 3.328-1.67 4.251-3.982 4.811-3.141.736-10.989 1.565-16.255 1.565-12.846 0-20.705-4.893-20.705-15.16 0-10.347 8.03-15.05 19.957-15.05 4.718 0 8.139.736 9.985 1.191v-1.378c0-5.734-2.861-9.05-10.347-9.05-3.702 0-6.563.829-9.237 1.658-.841.28-1.577.467-2.219.467-1.483 0-2.312-.841-3.153-2.873l-.362-.923"/><path d="m549.44-615.71c-1.658-.549-4.251-.923-6.563-.923-9.704 0-13.862 5.909-13.862 14.784 0 8.863 4.157 14.784 13.862 14.784 2.312 0 4.905-.374 6.563-.923v-27.723m0-24.395c0-2.861 1.203-4.064 4.064-4.064h2.955c2.861 0 4.064 1.203 4.064 4.064v55.808c0 3.048-1.471 4.251-3.784 4.998-3.048 1.016-9.331 1.658-13.675 1.658-16.629 0-25.317-9.237-25.317-24.12 0-15.16 9.06-24.488 23.834-24.488 3.328 0 6.01.455 7.859 1.016v-14.878"/><path d="m572.45-621.25c0-2.861 1.203-4.064 4.064-4.064h2.955c2.873 0 4.064 1.203 4.064 4.064v38.63c0 2.861-1.191 4.064-4.064 4.064h-2.955c-2.861 0-4.064-1.203-4.064-4.064v-38.63m5.547-23.834c4.064 0 6.832 2.674 6.832 6.645 0 3.982-2.768 6.656-6.832 6.656s-6.843-2.674-6.843-6.656c0-3.97 2.779-6.645 6.843-6.645"/><path d="m630.11-601.94c0-9.424-4.251-14.784-11.923-14.784-7.661 0-11.911 5.36-11.911 14.784 0 9.517 4.251 14.784 11.911 14.784 7.672 0 11.923-5.267 11.923-14.784m-35.12 0c0-15.8 9.144-24.301 23.19-24.301s23.19 8.501 23.19 24.301c0 15.893-9.144 24.301-23.19 24.301s-23.19-8.408-23.19-24.301"/></g></g></svg>