<svg xmlns="http://www.w3.org/2000/svg" height="234.13" width="599.99" viewBox="0 0 599.99998 234.13414"><g transform="translate(-70.71-301)"><path d="m670.71 418.09c0 64.63-52.42 117.05-117.05 117.05-64.67 0-117.09-52.42-117.09-117.05 0-64.67 52.42-117.09 117.09-117.09 64.63 0 117.05 52.42 117.05 117.09" fill="#33bdf2"/><g fill="#8f8b8d"><path d="m70.71 477.87h41.903v-119.58h-41.903v119.58"/><path d="m190.25 477.87h41.9v-119.58h-41.9v119.58"/><path d="m284.77 477.87h41.89v-119.58h-41.89v119.58"/><path d="m258.45 355.83c-13.05 0-23.61 10.67-23.61 23.8 0 13.17 10.56 23.85 23.61 23.85 13.09 0 23.69-10.68 23.69-23.85 0-13.13-10.6-23.8-23.69-23.8"/><path d="m379.09 423.66c-2.5-4.24-2.62-6.86-.24-10.95l33.25-54.44h-46.11s-27.65 45.27-31.46 51.58c-3.77 6.27-3.61 10.16.16 16.63s31.3 51.42 31.3 51.42h46.11l-33.01-54.24"/><path d="m187.64 477.82l-22.42-100.31c-2.14-10.99-11.74-19.24-23.21-19.24h-26.94l27.06 119.63h45.55l-.04-.08"/></g><path d="m516.92 358.29v31.38h17.38v.04h.08v88.16h41.98v-119.58h-20.99-38.45" fill="#fff"/></g></svg>