<svg xmlns="http://www.w3.org/2000/svg" height="234.12" width="599.99" viewBox="0 0 599.99998 234.11767"><g transform="translate(398.59-226.65)"><path d="m201.41 343.71c0 64.64-52.41 117.06-117.06 117.06-64.64 0-117.05-52.42-117.05-117.06-.004-64.68 52.41-117.06 117.06-117.06 64.64 0 117.05 52.38 117.05 117.06" fill="#df0f4e"/><g fill="#8f8b8d"><path d="m-398.59 403.51h41.91v-119.6h-41.91v119.6"/><path d="m-279.03 403.51h41.91v-119.6h-41.91v119.6"/><path d="m-184.51 403.51h41.91v-119.6h-41.91v119.6"/><path d="m-210.84 281.45c-13.05 0-23.61 10.64-23.61 23.81s10.56 23.85 23.61 23.85c13.1 0 23.69-10.68 23.69-23.85s-10.59-23.81-23.69-23.81"/><path d="m-90.2 349.28c-2.5-4.24-2.619-6.86-.238-10.95l33.25-54.44h-46.11s-27.66 45.27-31.47 51.58c-3.77 6.27-3.61 10.2.16 16.63 3.77 6.47 31.31 51.43 31.31 51.43h46.11l-33.01-54.25"/><path d="m-281.66 403.44l-22.42-100.32c-2.14-10.99-11.7-19.2-23.21-19.2h-26.94l27.06 119.6h45.55l-.04-.08"/></g><path d="m86.49 371.85l23.21-20.64c11.35-9.64 15.6-18.88 15.6-31.26 0-21.59-16.23-36.07-37.818-36.07l-44.05.03v31.27h41.983c5.595 0 8.214 3.89 8.214 8.02l-3.611 6.9-25.476 21.79-.039.08c-12.857 10.91-21.07 27.22-21.07 45.43l.04-.04-.04 6.15h82.37v-31.66h-39.32" fill="#fff"/></g></svg>