<svg xmlns="http://www.w3.org/2000/svg" height="234.16" width="599.99" viewBox="0 0 599.99998 234.15522"><g transform="translate(218.79 389.84)"><path d="m381.21-272.76c0 64.66-52.41 117.07-117.08 117.07-64.62 0-117.03-52.41-117.03-117.07 0-64.67 52.41-117.08 117.03-117.08 64.67 0 117.08 52.41 117.08 117.08" fill="#85ce26"/><g fill="#8f8b8d"><path d="m-218.79-212.97h41.94v-119.62h-41.94v119.62"/><path d="m-99.21-212.97h41.936v-119.62h-41.936v119.62"/><path d="m-4.747-212.97h41.935v-119.62h-41.935v119.62"/><path d="m-31.02-335.03c-13.05 0-23.646 10.68-23.646 23.85 0 13.13 10.593 23.8 23.646 23.8s23.646-10.67 23.646-23.8c0-13.17-10.593-23.85-23.646-23.85"/><path d="m89.59-267.19c-2.499-4.25-2.618-6.87-.238-10.95l33.24-54.44h-46.1s-27.692 45.27-31.461 51.58c-3.769 6.27-3.611 10.2.158 16.62 3.769 6.47 31.3 51.42 31.3 51.42h46.1l-33.01-54.23"/><path d="m-101.84-213.04l-22.46-100.34c-2.1-10.95-11.7-19.2-23.17-19.2h-26.94l27.06 119.62h45.54l-.03-.08"/></g><path d="m286.64-297.61l24.32-35.11h-93.67v31.34h40.95l-21.71 31.31h32.46c7.14 0 12.97 5.83 12.97 12.97s-5.83 12.97-12.97 12.97h-51.7v31.3h51.7c24.4 0 44.23-19.83 44.23-44.23 0-18.13-10.95-33.72-26.58-40.55" fill="#fff"/></g></svg>