<svg xmlns="http://www.w3.org/2000/svg" viewBox="0 0 600 429.25"><defs><clipPath><path d="m127.28 47.37h-99.92v-28.943h99.92v28.943"/></clipPath><clipPath><path d="m317.48 107.01h251.45v-79.69h-251.45v79.69"/></clipPath><clipPath><path d="m181.42 13.621h64.64v16.687h-64.64v-16.687"/></clipPath><clipPath><path d="m170.03 256.9l49.23 12.13c0 0 2.048.519 4.221.925 2.524.47 4.266.657 5.944.745 1.905.099 3.309.109 5.476-.326 1.611-.324 3.467-1.411 3.467-1.411 0 0 2.271-.221 2.783-.38.568-.176 2.787-.65 2.971-1.452.157-.684-.361-1.417-1.521-2.388-1.633-1.366-3.094-2.378-4.717-3.291-2.366-1.33-4.544-2.055-6.108-2.504-.656-.188-1.513-.451-1.513-.451l-18.11-4.576.351-1.709-.051-.146-.396-.495-.096-.098c0 0-2.422-.995-4.44-1.507-1.523-.387-3.142-.632-3.142-.632 0 0-1.215-.478-2.352-.609-1.311-.152-1.777-.07-1.777-.07l-.078.091.342.62-.153.597-.84-.214.065-.223-1.207.136-1.221-.124-10.769-2.515-2.27-.197-1.07-.212c0 0-4.188-.924-5.891-1.257-1.703-.332-4.622-.752-6.401-.941-3.325-.354-9.442-.677-16.01-.565-4.466.076-12.397 1.186-13.12 1.537-.125.061-.407.673-.407.673l-.866.742-.329.803-.208.022-4.077.181c0 0 1.309.584 1.799.762.489.177 1.33.423 1.508.449.177.026 3.128.301 3.128.301l-11.692 21.641 3.52.868c0 0 .573.142.95.175.341.031.483-.043.612-.089.273-.098 15.57-11.318 15.57-11.318 0 0 2.252-1.797 3.947-2.471.44-.174 1.76-.746 3.582-.897 1.654-.137 3.701-.11 5.536-.147 2.807-.057 5.156-.132 5.156-.132l.284-.104.396.052"/></clipPath><clipPath><path d="m117.12 268.49l9.88-39.626 136.8 34.11-9.88 39.627-136.8-34.11"/></clipPath><clipPath><path d="m117.12 268.49l9.88-39.626 136.8 34.11-9.88 39.627"/></clipPath><clipPath><path d="m61.758 30.33l35.934-.099c0 0 1.497.006 3.061-.088 1.817-.109 3.047-.279 4.216-.507 1.327-.258 2.294-.492 3.709-1.162 1.053-.499 2.143-1.565 2.143-1.565 0 0 1.523-.542 1.848-.739.361-.218 1.806-.925 1.794-1.508-.009-.497-.491-.912-1.455-1.381-1.358-.659-2.535-1.105-3.808-1.454-1.855-.509-3.477-.635-4.63-.675-.483-.017-1.117-.05-1.117-.05l-13.24-.042-.051-1.235-.06-.092-.358-.273-.082-.05c0 0-1.837-.27-3.312-.276-1.114-.005-2.269.105-2.269.105 0 0-.918-.121-1.722-.016-.928.121-1.234.256-1.234.256l-.038.076.342.368-.003.437-.614-.003.006-.165-.807.301-.861.124-7.836.117-1.595.253-.772.038c0 0-3.038.083-4.266.146-1.228.064-3.308.275-4.564.45-2.347.327-6.608 1.153-11.11 2.357-3.058.818-8.322 2.942-8.761 3.307-.076.064-.164.533-.164.533l-.469.659-.088.608-.139.051-2.773.823c0 0 1 .178 1.367.216.368.038.988.063 1.114.05.127-.012 2.203-.329 2.203-.329l-4.329 16.886 2.569-.007c0 0 .418 0 .684-.042.239-.037.324-.113.405-.167.171-.114 8.766-10.452 8.766-10.452 0 0 1.24-1.622 2.291-2.375.272-.196 1.082-.815 2.309-1.232 1.114-.378 2.526-.71 3.781-1.05 1.921-.52 3.524-.974 3.524-.974l.177-.121.282-.032"/></clipPath><clipPath><path d="m.03 419.53h595.25v-419.5h-595.25v419.5"/></clipPath><clipPath><path d="m471.97 44.595h102.32v17.767h-102.32v-17.767"/></clipPath><clipPath><path d="m398.74 42.38h33.984v23.766h-33.984v-23.766"/></clipPath><clipPath><path d="m21.968 49.3h53.61v13.06h-53.61v-13.06"/></clipPath><clipPath><path d="m442.2 12.323h83.79v26.347h-83.79v-26.347"/></clipPath><clipPath><path d="m0 251.86v-251.86h352.04v251.86"/></clipPath><clipPath><path d="m312.52 46.551h43.529v17.772h-43.529v-17.772"/></clipPath><clipPath><path d="m302.79 15.623h72.8v16.1h-72.8v-16.1"/></clipPath><clipPath><path d="m201.26 49.639h78.85v13.976h-78.85v-13.976"/></clipPath><clipPath><path d="m64.17 12.938h60.56v16.313h-60.56v-16.313"/></clipPath><clipPath><path d="m106.09 50.28h63.818v11.206h-63.818v-11.206"/></clipPath><clipPath><path d="m0 0h595.28v841.89h-595.28v-841.89"/></clipPath></defs><g transform="matrix(1.36349 0 0 1.36349-833.2-280.05)"><path d="m1041.01 256.84l-134.07-51.06c-5.229-1.99-11.164 3.955-11.164 10.374v221.46c13.661 3.481 23.784 15.858 23.784 30.611 0 14.78-10.122 27.16-23.784 30.652v10.746c0 5.874 3.278 12.716 10.923 9.84l135.12-67.29c3.619-1.918 9.309-3.676 9.309-9.561v-175.94c0-5.873-4.138-7.39-10.11-9.841" fill="#3e7e01"/><path d="m856.34 468.23c0-14.754 10.133-27.16 23.82-30.624v-221.18c0-5.882-4.444-12.05-10.643-10.64l-248.33 60.691c-6.25 1.601-10.111 4.756-10.111 10.63v153.44c0 5.874 3.908 8.641 10.111 10.63l248.33 78.82c6.551 1.431 10.251-4.283 10.643-10.364v-10.746c-13.688-3.471-23.82-15.86-23.82-30.652" fill="#6ab522"/><g fill="#fff"><path d="m628.42 426.13l19.629 4.418.053-81.84 21.536 86.72 19.414 4.186.009-166.97-19.994 3.666v80.952l-22.07-76.71-18.575 3.251v142.32m72.812 16.189l20.724 4.56v-63.26l4.503.512c0 0 .179.012.352.022l16.06 67.32 23.954 5.433-20.798-82.02c7.669-9.183 13.601-25.12 13.445-50.47l-.029-2.501c-.275-43.729-15.783-59.28-36.906-55.4l-21.306 3.91v171.91m20.724-86.73l.18-61.54.513-.05c8.93-1.069 16.08 6.127 16.258 29.581l.011 2.124c.17 21.865-6.32 30.03-15.239 29.884h-1.722m59.14 104.45l21.22 4.705 9.455-125.96 9.316 130.13 22.23 4.926 18.14-233.12-22.18 4.184-7.538 140.86-10.653-137.37-18.771 3.47-9.886 131.39-9.185-127.89-21.14 3.881 18.991 200.79"/><path d="m933.93 467.19l21.935-8.296.036-176.68 14.511 2.765.133-25.566-52.607-15.651v31.28l15.992 2.947v189.2m63.4-23.706l20.407-7.741 22.554-155.16-19.509-5.897-12.17 110.51-10.157-117.28-21.717-6.625 20.592 182.2"/></g><path d="m904.83 468.25c0 9.321-7.564 16.88-16.88 16.88-9.342 0-16.901-7.559-16.901-16.88 0-9.34 7.559-16.886 16.901-16.886 9.316 0 16.88 7.546 16.88 16.886"/></g></svg>