<svg xmlns="http://www.w3.org/2000/svg" viewBox="0 0 600.00001 600"><defs><linearGradient id="4" y2="334.86" gradientUnits="userSpaceOnUse" x2="2118" gradientTransform="matrix(.58572 0 0 .58608-885.46 4.388)" y1="367.86" x1="1931"><stop stop-color="#2f4143"/><stop stop-color="#132531" offset="1"/></linearGradient><linearGradient id="6" y2="37.33" gradientUnits="userSpaceOnUse" x2="2331.2" gradientTransform="matrix(.58572 0 0 .58608-885.46 4.388)" y1="366.83" x1="2414.8"><stop stop-color="#2e3a3d"/><stop stop-color="#394346" offset=".102"/><stop stop-color="#666f74" offset=".205"/><stop stop-color="#7a8187" offset=".3"/><stop stop-color="#80878d" offset=".4"/><stop stop-color="#868d93" offset=".5"/><stop stop-color="#91989e" offset=".6"/><stop stop-color="#91989e" offset=".7"/><stop stop-color="#9aa1a7" offset=".8"/><stop stop-color="#99a0a6" offset=".9"/><stop stop-color="#889390" offset="1"/></linearGradient><linearGradient id="8" y2="380.36" gradientUnits="userSpaceOnUse" x2="2273" gradientTransform="matrix(.58572 0 0 .58608-885.46 4.388)" y1="398.86" x1="2160"><stop stop-color="#152326"/><stop stop-color="#122023" offset="1"/></linearGradient><linearGradient id="7" y2="401.07" gradientUnits="userSpaceOnUse" x2="1846.5" gradientTransform="matrix(.58572 0 0 .58608-885.46 4.388)" y1="579.47" x1="1577"><stop stop-color="#fde875"/><stop stop-color="#ffdd2e" offset=".5"/><stop stop-color="#ffdc10" offset="1"/></linearGradient><linearGradient id="5" y2="944.88" gradientUnits="userSpaceOnUse" x2="2322.1" gradientTransform="matrix(.58572 0 0 .58608-885.46 4.388)" y1="17.16" x1="2182.1"><stop stop-color="#1a1b1d"/><stop stop-color="#3a4348" offset=".102"/><stop stop-color="#4d545a" offset=".205"/><stop stop-color="#454d50" offset=".3"/><stop stop-color="#313c40" offset=".4"/><stop stop-color="#1f2d30" offset=".5"/><stop stop-color="#101e21" offset=".6"/><stop stop-color="#0c1a1d" offset=".7"/><stop stop-color="#0c1a1d" offset=".8"/><stop stop-color="#0c1a1d" offset=".9"/><stop stop-color="#0c1a1d" offset="1"/></linearGradient><linearGradient id="0" y2="521.86" gradientUnits="userSpaceOnUse" x2="1929.5" gradientTransform="matrix(.58572 0 0 .58608-885.46 4.388)" y1="570.86" x1="1651"><stop stop-color="#2d3a42"/><stop stop-color="#172f33" offset="1"/></linearGradient><linearGradient id="1" y2="520.36" gradientUnits="userSpaceOnUse" x2="1929.5" gradientTransform="matrix(.58572 0 0 .58608-885.46 4.388)" y1="569.36" x1="1650.5"><stop stop-color="#5c636d"/><stop stop-color="#384653" offset="1"/></linearGradient><linearGradient id="2" y2="492.36" gradientUnits="userSpaceOnUse" x2="2089.5" gradientTransform="matrix(.58572 0 0 .58608-885.46 4.388)" y1="506.36" x1="2017.5"><stop stop-color="#1e2c2f"/><stop stop-color="#1d2421" offset="1"/></linearGradient><linearGradient id="3" y2="514.36" gradientUnits="userSpaceOnUse" x2="2298.5" gradientTransform="matrix(.58572 0 0 .58608-885.46 4.388)" y1="527.86" x1="2227"><stop stop-color="#0c1e20"/><stop stop-color="#0e191e" offset="1"/></linearGradient><radialGradient id="9" gradientUnits="userSpaceOnUse" cy="532.93" cx="1632.3" gradientTransform="matrix(1.0082-.15803.17002 1.086-1669.1-6.713)" r="432.61"><stop stop-color="#7e5c09" stop-opacity="0"/><stop stop-color="#fcb913" stop-opacity=".402" offset=".678"/><stop stop-color="#faac18" stop-opacity=".58" offset=".743"/><stop stop-color="#bf7c26" stop-opacity=".741" offset=".853"/><stop stop-color="#bb7628" offset=".924"/><stop stop-color="#915124" offset="1"/></radialGradient></defs><path d="m295.29 600l-.09-600c191.62 0 304.8 151.09 304.8 299.98 0 158.33-123.02 300.02-304.71 300.02" fill="url(#5)"/><path d="m295.29 600l-.09-600c156.18 0 225.14 174.24 225.14 299.98 0 118.47-64.45 300.02-225.05 300.02" fill="#ffd11c"/><path d="m529.45 181.35c0 31.99-12.17 39.49-12.17 39.49-10.9-56.57-44.16-143.69-118.67-194.57 33.3 10.33 130.84 63.96 130.84 155.08" fill="url(#6)"/><g color="#000"><path d="m505.38 263.93l-98.13 114.44-295 36.02-107.71-62.34c.003 0-5.252-27.82-4.458-52.66 0-161.68 131.98-299.39 295.12-299.39 130.33 0 203.69 152.32 210.18 263.93z" fill="url(#7)"/><path d="m4.543 352.05c19.1 120.1 131.87 247.95 290.75 247.95 110.8 0 211.48-121.76 211.48-300.73l-1.39-35.34z" fill="#fd0"/><path d="m4.543 352.05s-5.255-27.82-4.461-52.66c0-161.68 131.98-299.39 295.12-299.39 130.33 0 203.69 152.32 210.18 263.93l1.39 35.34c0 178.97-100.68 300.73-211.48 300.73-158.88 0-271.65-127.85-290.75-247.95" fill="url(#9)"/><path d="m391.74 195.25c-10.12 0-20.03 2.07-20.03 2.07l7.49 41.52s6.26-1.69 12.65-1.69c7.64 0 14.79 2.46 16.36 11.95l5.44 30.98 27.29 27.32 14.09-34.6-5.62-32.18c-3.94-22.05-24.07-45.37-57.67-45.37" fill="url(#8)"/><path d="m357.09 200.29-111.69 19.32 7.32 41.81 36.17-6.46 7.96 45.67 26.69 28.2 14.59-35.47-8.09-45.84 34.33-5.97z" fill="url(#4)"/><path d="m229.31 222.63l-42.94 7.58 15.45 87.13 28.11 25.87 14.83-33.42zm-108.41 19.69c-8.37-.09-16.86 2.07-24.585 5.8-17.868 10.12-25.362 28.35-22.06 46.95l7.56 43.38 24.851 16.69 18.07-24.23-7.23-40.97c-1.46-7.02 2.51-6.53 4.06-3.12l21.6 40.85 30.35 21.84 13.25-29.52-29.47-55.29c-8.91-15.82-22.46-22.23-36.4-22.38" fill="url(#1)"/><path d="m455.03 272.8-41.38 7.28 13.23 75.52 41.28-7.55z" fill="url(#3)"/><path d="m338.13 293.36-41.28 7.27 13.18 75.64 41.42-7.27z" fill="url(#2)"/><path d="m244.76 309.79-42.94 7.55 5.12 28.88c1.71 7.21-1.78 8.64-3.91 4.27l-16.26-30.5-43.6 7.68 24.57 46.46c16.23 28.61 48.64 21.68 60.53 15.2 15.79-9.29 26.7-24.84 22.02-48.29zm-120.02 21.12-42.921 7.54 13.215 75.83 43.016-7.93z" fill="url(#0)"/></g></svg>