<svg xmlns="http://www.w3.org/2000/svg" height="706.41" width="600" viewBox="0 0 158.75 186.90513"><g transform="translate(115.72 70.2)" fill="#e47616"><path d="m-115.72 116.71v-113.91h23.278v12.432q3.164-6.328 9.04-10.17 5.876-4.068 12.43-4.52.452-.226.904-.226.678 0 1.356 0 8.588 0 15.368 7.01 7.01 6.78 7.01 22.374v87.01h-23.05v-83.62q0-6.328-3.616-9.718-3.39-3.39-7.684-3.39-4.294-.226-8.136 3.164-3.616 3.39-3.616 10.17v83.4z"/><path d="m-24.705 116.71v-94.25h-10.622v-19.662h10.622v-30.29h23.05v30.29h10.849v19.662h-10.848v94.25z"/><path d="m19.751 116.71v-186.91h23.278v186.91z"/></g></svg>