<svg xmlns="http://www.w3.org/2000/svg" height="345.24" width="599.99" viewBox="0 0 600.01177 345.23716" enable-background="new"><path d="m597.94 343.17h-595.87l.003-341.1h595.87v341.1z" fill="#1f6431"/><path d="m597.94 343.17h-595.87l.003-341.1h595.87v341.1z" stroke="#231f20" stroke-width="4.145" fill="none"/><path d="m23.03 149.4s33.23-84.85 64.22-96.65c0 0 26.845-12.77 32.765 14.511 0 0 2.74 6.55-11.37 61.48l-61.976 199.25 108.49-.73s16.21-67.16 28.01-99.62c11.8-32.47 38.38-107.02 70.84-147.61 0 0 22.16-30.99 40.61-25.8 0 0 16.22 2.94 11.07 27.27 0 0-25.11 80.47-36.91 115.14 0 0-18.38 48.28-16.98 75.29 0 0 3.71 47.2 53.89 54.59 0 0 33.56 8.59 67.5-25.37 0 0 30.35-30.36 46.86-70.57 0 0 18.46-45.01 21.4-66.4 0 0-28.75 62.72-52.39 94.45 0 0-22.13 29.51-36.17 35.43 0 0-14.74 4.45-5.88-27.31 8.86-31.73 44.26-132.83 44.26-132.83s19.92-55.36-10.33-90.76c0 0-33.2-43.561-99.62-7.39 0 0-34.03 16.68-55.33 62.722 0 0-18.72 35.37-26.57 54.618 0 0 9.22-51.48 5.78-76.52 0 0-5.52-46.23-42.69-53.35 0 0-25.81-8.13-51.65 1.471 0 0-34.675 11.8-59.776 53.12 0 0-20.661 29.519-28.05 71.57" fill="#fff"/><path d="m23.03 149.4s33.23-84.85 64.22-96.65c0 0 26.845-12.77 32.765 14.511 0 0 2.74 6.55-11.37 61.48l-61.976 199.25 108.49-.73s16.21-67.16 28.01-99.62c11.8-32.47 38.38-107.02 70.84-147.61 0 0 22.16-30.99 40.61-25.8 0 0 16.22 2.94 11.07 27.27 0 0-25.11 80.47-36.91 115.14 0 0-18.38 48.28-16.98 75.29 0 0 3.71 47.2 53.89 54.59 0 0 33.56 8.59 67.5-25.37 0 0 30.35-30.36 46.86-70.57 0 0 18.46-45.01 21.4-66.4 0 0-28.75 62.72-52.39 94.45 0 0-22.13 29.51-36.17 35.43 0 0-14.74 4.45-5.88-27.31 8.86-31.73 44.26-132.83 44.26-132.83s19.92-55.36-10.33-90.76c0 0-33.2-43.561-99.62-7.39 0 0-34.03 16.68-55.33 62.722 0 0-18.72 35.37-26.57 54.618 0 0 9.22-51.48 5.78-76.52 0 0-5.52-46.23-42.69-53.35 0 0-25.81-8.13-51.65 1.471 0 0-34.675 11.8-59.776 53.12 0 0-20.661 29.519-28.05 71.57z" stroke="#231f20" stroke-width="3.109" fill="none"/><path d="m435.57 238.7v-15.49l29.52-16.98.74 31.74h16.25v25.84h-16.25v32.46s-1.47 15.51 16.25 6.65l2.94 22.87s-25.84 4.44-34.7 1.47c-8.84-2.94-14.75-8.86-15.49-22.87v-41.32h-11.07v-24.37h11.81" fill="#fff"/><path d="m435.57 238.7v-15.49l29.52-16.98.74 31.74h16.25v25.84h-16.25v32.46s-1.47 15.51 16.25 6.65l2.94 22.87s-25.84 4.44-34.7 1.47c-8.84-2.94-14.75-8.86-15.49-22.87v-41.32h-11.07v-24.37h11.81z" stroke="#231f20" stroke-width="3.109" fill="none"/><path d="m490.17 238.7l35.43 88.56h28.05l36.17-89.29h-32.46l-17.75 57.56-16.21-56.83h-33.23" fill="#fff"/><path d="m490.17 238.7l35.43 88.56h28.05l36.17-89.29h-32.46l-17.75 57.56-16.21-56.83h-33.23z" stroke="#231f20" stroke-width="3.109" fill="none"/></svg>