<svg xmlns="http://www.w3.org/2000/svg" viewBox="0 0 761 89"><defs><linearGradient id="3" gradientUnits="userSpaceOnUse" x2="0"><stop stop-color="#00335f"/><stop stop-color="#00335f" offset=".052"/><stop stop-color="#295377" offset=".098"/><stop stop-color="#64829b" offset=".173"/><stop stop-color="#96a9b9" offset=".245"/><stop stop-color="#bdc8d0" offset=".312"/><stop stop-color="#d9dee0" offset=".374"/><stop stop-color="#eaebea" offset=".428"/><stop stop-color="#f0f0ee" offset=".468"/><stop stop-color="#ebeae8" offset=".583"/><stop stop-color="#dbdad8" offset=".73"/><stop stop-color="#cccbc9" offset=".832"/><stop stop-color="#cccbc9" offset="1"/></linearGradient><linearGradient id="4" gradientUnits="userSpaceOnUse" x2="0"><stop stop-color="#e8e9e8"/><stop stop-color="#e8e9e8" offset=".104"/><stop stop-color="#9ca09e" offset=".342"/><stop stop-color="#8d918f" offset=".387"/><stop stop-color="#6a6f6d" offset=".473"/><stop stop-color="#3c4442" offset=".599"/><stop stop-color="#1b2423" offset=".711"/><stop stop-color="#071110" offset=".804"/><stop stop-color="#000a09" offset=".867"/><stop stop-color="#000a09" offset="1"/></linearGradient><linearGradient id="2" gradientUnits="userSpaceOnUse" x2="0"><stop stop-color="#6d7673"/><stop stop-color="#6d7673" offset=".185"/><stop stop-color="#a6aba9" offset=".311"/><stop stop-color="#f0f0ee" offset=".48"/><stop stop-color="#ebeae8" offset=".591"/><stop stop-color="#dbdad8" offset=".733"/><stop stop-color="#cccbc9" offset=".832"/><stop stop-color="#cccbc9" offset="1"/></linearGradient><linearGradient id="0" gradientUnits="userSpaceOnUse" x2="0"><stop stop-color="#6d7673"/><stop stop-color="#6d7673" offset=".052"/><stop stop-color="#979d9b" offset=".142"/><stop stop-color="#bec1bf" offset=".24"/><stop stop-color="#d9dbd9" offset=".33"/><stop stop-color="#eaeae8" offset=".409"/><stop stop-color="#f0f0ee" offset=".468"/><stop stop-color="#ebeae8" offset=".583"/><stop stop-color="#dbdad8" offset=".73"/><stop stop-color="#cccbc9" offset=".832"/><stop stop-color="#cccbc9" offset="1"/></linearGradient><linearGradient id="1" gradientUnits="userSpaceOnUse" x2="0"><stop stop-color="#fff"/><stop stop-color="#fff" offset=".104"/><stop stop-color="#f4f6f7" offset=".132"/><stop stop-color="#929db1" offset=".407"/><stop stop-color="#495d7d" offset=".629"/><stop stop-color="#1c345d" offset=".787"/><stop stop-color="#0b2551" offset=".867"/><stop stop-color="#0b2551" offset="1"/></linearGradient></defs><g transform="translate(-51.11-504.76)"><path d="m150.46 591.22c-.694 1.387-1.978 1.682-2.954 1.682h-33.789c-1.49 0-2.247-.578-2.247-1.734 0-.103 12.83-48.39 12.83-48.622 0-1.04-.745-1.554-2.235-1.554h-10.89c-1.849 0-2.941.693-3.275 2.081l-12.432 47.595c-.462 1.49-1.554 2.235-3.3 2.235h-34.489c-1.503 0-2.247-.578-2.247-1.734v-.514s16.361-58.05 16.361-58.38c0-.578.578-.86 1.747-.86h74.47c4.495 0 7.487 1.156 10.428 3.455 2.941 2.312 4.405 5.24 4.405 8.81 0 1.04-.167 2.068-.527 3.108.013 0-9.876 37.449-11.867 44.44"/><path d="m257.65 591.96c-.411.86-.835 1-1.837 1l-73.935-.064c-4.482 0-8.206-1.13-11.135-3.365-2.941-2.247-4.405-5.163-4.405-8.733 0-1.143.167-2.247.514-3.275 0 0 11.777-44.923 11.777-45.26 0-.578.527-.86 1.554-.86h35.535c1.503 0 2.247.578 2.247 1.721 0 .116-.051.295-.167.527l-12.855 46.85c0 .116-.27.989-.27 1.22 0 1.027.745 1.554 2.235 1.554h10.659c1.837 0 2.928-.693 3.275-2.093l13.11-47.543c.462-1.49 1.554-2.235 3.288-2.235l33.57-.026c1.49 0 2.247.578 2.247 1.721v.527c.026 0-15.01 57.47-15.411 58.33"/><path d="m335.76 576.9l32.25-43.39c.912-1.387 2.299-2.081 4.148-2.081h16.12c1.027 0 1.541.347 1.541 1.04 0 .231-14.165 19.688-42.496 58.38-1.04 1.374-2.414 2.068-4.135 2.068h-42.663c-1.849 0-2.941-.693-3.275-2.068 0 0-15.681-56.854-15.899-58.59-.064-.449.514-.681 1.554-.681l39.04-.154c1.837 0 2.877.693 3.108 2.081l8.81 43.39c.103.578.347.848.693.848.462 0 .86-.27 1.207-.848"/><path d="m507.94 515.01l36.11-5.638h.706c1.04 0 1.862.706 1.862 1.515v.514s-20.05 74.44-20.343 75.67c-1.336 5.291-1.913 5.535-3.93 5.587l-33.737.077c-1.503 0-2.247-.527-2.247-1.567v-.514s19.534-73.49 19.534-73.948c-.013-.565.886-1.567 2.042-1.695"/><path d="m586.89 557.97c-1.952 7.41-6.216 23.553-6.216 23.784 0 1.04.758 1.554 2.26 1.554h10.505c1.875 0 2.941-.681 3.301-2.055 2.02-7.577 6.216-23.553 6.216-23.772 0-1.169-.693-1.759-2.068-1.759h-10.698c-1.849.013-2.902.771-3.301 2.247m-40.5 31.61c-2.928-2.247-5.073-7.01-3.879-12.01l3.545-15.411c1.143-4.148 3.827-8.399 8.309-11.443 4.482-3.057 9.426-4.598 14.846-4.598h32.774c2.864 0 3.943.424 5.086-2.376.308-.783 1.426-3.082-1.477-3.082h-42.727c-1.837 0-8.258-7.693-8.258-7.693-.244-.218-.347-.462-.347-.693 0-.578.527-.86 1.554-.86l74.37.038c4.482 0 8.206 1.143 11.147 3.455 2.928 2.299 4.405 5.24 4.405 8.81 0 1.027-.18 2.068-.527 3.108 0 0-10.184 38.425-11.918 43.934-.758 1.785-2.517 2.068-2.992 2.068l-72.78.128c-4.482.013-8.194-1.117-11.135-3.378"/><path d="m749.99 567.28c-1.31 3.84-3.301 3.545-4.135 3.532h-33.481c-1.477 0-2.247-.591-2.247-1.734 0-2.299 6.486-24.76 7.089-26.841.295-.989-.758-1.554-2.235-1.554h-10.749c-1.862 0-2.941.693-3.288 2.081l-12.676 47.903c-.437 1.503-1.554 2.247-3.275 2.247h-33.917c-1.503 0-2.247-.578-2.247-1.734v-.514s15.06-57.62 15.257-58.38c.141-.552.578-.86 1.734-.86l73.832-.334c4.508 0 8.219 1.156 11.147 3.455 2.941 2.312 5.111 5.253 5.111 8.81 0 1.027-3.609 15.321-5.92 23.926"/><path d="m757.57 590.65s15.681-58.04 15.681-58.38c0-.578.514-.86 1.554-.86h35.24c1.361 0 2.068.578 2.068 1.721v.527s-13.6 49.726-15.206 56.47c-.912 2.928-3.121 2.774-4.097 2.774h-33.17c-1.374 0-2.068-.578-2.068-1.734v-.514"/><path d="m437.33 585.53c1.759 0 2.8-.719 3.108-2.145l10.698-43.999c0-.128 0-.308.026-.552 0-1.079-.719-1.631-2.132-1.631h-13.11c-1.644 0-2.684.732-3.121 2.183l-10.505 43.96v.552c0 1.079.719 1.631 2.132 1.631h12.907m45.09-52.911c2.774 2.427 4.187 5.522 4.187 9.285 0 1.092-.193 2.183-.501 3.275l-7.718 32.389c-1.104 4.495-3.776 8.309-8.05 11.468-4.264 3.146-8.964 4.726-14.1 4.726h-54.632c-4.277 0-7.808-1.182-10.595-3.557-2.787-2.35-4.187-5.42-4.187-9.182 0-1.207.167-2.363.501-3.455l7.705-32.389c.989-4.366 3.647-8.168 7.962-11.379 4.315-3.211 8.99-4.829 14.02-4.829h54.825c4.251.013 7.783 1.22 10.582 3.647"/><path fill="url(#3)" d="m70.19 527.82c-1.143 0-1.721.295-1.721.86 0 .334-16.451 58.63-16.451 58.63v.514c0 1.156.758 1.734 2.273 1.734h34.611c1.747 0 2.838-.745 3.288-2.234l12.505-47.79c.347-1.4 1.438-2.106 3.288-2.106h10.929c1.503 0 2.261.526 2.261 1.58 0 .231-12.907 48.712-12.907 48.815 0 1.156.77 1.734 2.273 1.734h33.918c.976 0 2.273-.295 2.979-1.682 2-7.04 11.931-44.615 11.905-44.615.347-1.04.527-2.081.527-3.121 0-3.583-1.477-6.537-4.418-8.848-2.954-2.312-5.946-3.467-10.467-3.467h-74.8z"/><path fill="url(#4)" d="m70.22 526.87c-.655.013-1.194.064-1.721.321-.488.205-.925.796-.951 1.387-.308 1.246-4.328 15.552-8.271 29.615-4.097 14.499-8.116 28.819-8.129 28.845l-.039.128v.128.526c-.013.771.283 1.567.912 2.042.629.462 1.426.616 2.286.616h34.611.141c1.913 0 3.519-1.091 4.02-2.902l12.522-47.826c.283-.95.719-1.323 2.376-1.387h10.929c.655-.013 1.028.128 1.156.218.116.09.141.103.167.321-.321 1.233-3.429 13.01-6.485 24.594-1.605 6.02-3.198 12.03-4.392 16.541-.604 2.247-1.105 4.123-1.425 5.446-.167.668-.321 1.182-.411 1.541-.051.18-.09.321-.116.411 0 .051-.013.09-.026.116 0 .013 0 .026-.013.038v.039c0 .038-.013-.013-.026.192-.013.771.283 1.567.925 2.042.629.462 1.4.616 2.273.616h33.918c1.143.026 2.915-.385 3.814-2.209l.038-.077.026-.09c2.029-7.04 11.956-44.615 11.956-44.615.347-1.079.552-2.222.552-3.365.013-3.853-1.644-7.14-4.79-9.581-3.056-2.427-6.37-3.686-11.03-3.673h-74.8m-.166 1.886c.045 0 .091 0 .14 0h74.8c4.354.013 7.05 1.066 9.889 3.275 2.748 2.183 4.03 4.777 4.058 8.104 0 .925-.154 1.875-.475 2.826-.026.077-2.479 9.452-5.214 19.726-2.71 10.171-5.677 21.242-6.691 24.825-.488.912-1.297 1.092-2.106 1.117h-33.918c-.655 0-1-.141-1.117-.244-.116-.103-.18-.167-.205-.475.295-1.169 3.404-12.83 6.447-24.349 1.605-6.06 3.198-12.12 4.405-16.67.616-2.273 1.117-4.174 1.451-5.51.18-.681.308-1.207.411-1.567.051-.193.077-.334.103-.424.013-.064.026-.103.038-.141 0-.077 0 .038.026-.244.026-.745-.321-1.528-.951-1.952-.629-.424-1.374-.552-2.235-.552h-10.929c-2.042-.077-3.788.95-4.2 2.812l-12.483 47.762c-.411 1.092-.925 1.49-2.402 1.554h-34.611c-.655 0-1-.141-1.13-.244-.128-.103-.193-.18-.205-.552v-.398c.424-1.464 4.302-15.244 8.181-29.06 2.055-7.307 4.123-14.615 5.664-20.14.771-2.761 1.425-5.06 1.862-6.691.231-.809.398-1.451.526-1.9.064-.218.116-.398.141-.527.013-.064.026-.115.038-.154.013-.064.013-.026.026-.116.124-.034.355-.087.669-.091z"/><path fill="url(#0)" d="m268.28 527.78l-33.686.026c-1.759 0-2.851.745-3.314 2.247l-13.164 47.736c-.36 1.4-1.451 2.093-3.3 2.093h-10.698c-1.503 0-2.26-.514-2.26-1.554 0-.231.27-1.105.27-1.22l12.907-47.04c.116-.244.18-.411.18-.526 0-1.156-.758-1.734-2.26-1.734h-35.677c-1.027 0-1.541.295-1.541.86 0 .347-11.854 45.44-11.854 45.44-.334 1.053-.514 2.157-.514 3.3 0 3.583 1.49 6.511 4.431 8.771 2.941 2.247 6.665 3.365 11.186 3.365l74.22.077c1.015 0 1.451-.129 1.849-.989.411-.899 15.501-58.6 15.501-58.6v-.514c0-1.156-.77-1.734-2.273-1.734"/><path fill="url(#4)" d="m268.27 526.84l-33.686.026c-1.991-.064-3.686 1.053-4.2 2.903l-13.189 47.774c-.295.963-.732 1.335-2.389 1.4h-10.698c-.655.013-1.028-.128-1.169-.218-.103-.103-.141-.102-.154-.385.013-.09.077-.334.128-.54.051-.218.103-.27.129-.514l12.881-46.914c.116-.244.205-.462.231-.835.013-.771-.282-1.567-.937-2.042-.616-.475-1.4-.63-2.26-.63h-35.677c-.604.013-1.13.064-1.618.334-.488.244-.86.822-.873 1.374-.231.989-3.108 12.11-5.946 22.975-2.851 10.878-5.664 21.614-5.831 22.282-.385 1.143-.565 2.337-.565 3.57-.026 3.853 1.644 7.128 4.79 9.504 3.121 2.402 7.089 3.583 11.751 3.57l74.2.064c.539 0 1.04-.013 1.567-.283.527-.257.886-.745 1.117-1.258.116-.27.141-.424.295-.95 2.02-7.08 15.257-57.779 15.257-57.779l.052-.116v-.129-.514c0-.771-.295-1.567-.937-2.042-.629-.475-1.413-.629-2.273-.629zm.039 1.888c.655 0 .989.141 1.13.244.116.103.18.167.205.552v.398c-.372 1.4-3.943 15.05-7.564 28.845-1.914 7.269-3.84 14.564-5.317 20.09-.732 2.774-1.362 5.098-1.798 6.742-.244.835-.411 1.503-.539 1.965-.09.231-.141.411-.167.539-.026.064-.038.103-.051.141-.154.321-.219.346-.257.372-.038.026-.27.064-.732.064l-74.22-.052c-4.367 0-7.847-1.079-10.621-3.198-2.736-2.119-4.03-4.687-4.058-8.01 0-1.053.167-2.055.488-2.993v-.026l.013-.038s2.967-11.276 5.92-22.603c1.477-5.651 2.954-11.314 4.058-15.591.539-2.145 1.014-3.929 1.336-5.201.154-.629.283-1.143.373-1.49.038-.18.077-.308.103-.411.013-.154.025-.077.064-.244.116-.038.334-.077.642-.064h35.676c.642 0 .989.141 1.117.244.116.09.193.154.205.488-.013.051-.052.09-.077.167l-.038.09-12.971 47.25v.052c-.051.244-.244.771-.27 1.297-.026.732.308 1.515.95 1.939.629.424 1.374.552 2.235.565h10.698c2.029.051 3.801-.963 4.187-2.826l13.176-47.71c.424-1.105.938-1.49 2.415-1.554l33.686-.026z"/><path fill="url(#0)" d="m319.91 527.82l-39.2.154c-1.04 0-1.618.231-1.567.681.218 1.747 15.963 58.832 15.963 58.832.347 1.387 1.439 2.068 3.301 2.068h42.843c1.734 0 3.108-.681 4.148-2.068 28.446-38.849 42.663-58.39 42.663-58.63 0-.693-.527-1.04-1.567-1.04h-16.181c-1.837 0-3.236.693-4.161 2.08l-32.376 43.575c-.347.565-.758.847-1.207.86-.36 0-.591-.282-.706-.86l-8.83-43.58c-.231-1.387-1.272-2.08-3.121-2.08z"/><path fill="url(#4)" d="m320.09 526.86c-.063 0-.126.002-.189.005l-39.2.154c-.565 0-1.04.038-1.503.218-.424.128-1.014.629-1 1.336 0 .09.013.154.013.205.09.629 1.091 4.379 2.607 10.03 4.533 16.798 13.382 48.892 13.382 48.892.385 1.785 2.042 2.787 4.01 2.787.077 0 .141-.013.218-.013h42.843c1.965.026 3.724-.848 4.906-2.453 14.23-19.431 24.902-34.02 32-43.793 3.545-4.893 6.216-8.566 8-11.04.886-1.233 1.554-2.17 2-2.812.231-.321.385-.565.501-.745.077-.077.115-.154.154-.218.026-.026.039-.051.064-.103.026-.09.077.013.128-.462 0-.578-.295-1.246-.809-1.567-.514-.334-1.066-.398-1.695-.411h-16.195c-2.08-.026-3.878.848-4.944 2.492l-32.363 43.523-.052.09c-.077.128-.141.193-.193.257l-8.836-43.537c-.249-1.792-1.908-2.848-3.856-2.83m-.164 1.893c1.657.077 1.978.411 2.183 1.297l8.848 43.601c.09.372.18.719.437 1.053.257.334.745.578 1.181.565.86.013 1.58-.578 1.978-1.284l32.363-43.523c.809-1.169 1.785-1.683 3.416-1.708h16.195c.205 0 .372.025.475.038-.398.591-1.297 1.862-2.607 3.673-5.497 7.616-18.737 25.775-39.748 54.45-.899 1.182-1.914 1.682-3.391 1.708h-42.843c-1.657-.077-2.119-.449-2.402-1.374-.013-.064-3.93-14.294-7.885-28.78-1.991-7.243-3.981-14.551-5.484-20.14-1.259-4.662-2.209-8.232-2.478-9.401.141-.026.321-.039.552-.039l39.21-.141z"/><path fill="url(#0)" d="m541.66 505.7l-36.24 5.651c-1.143.103-2.08 1.117-2.093 1.695 0 .462-19.598 74.26-19.598 74.26v.514c0 1.053.745 1.58 2.247 1.58l33.879-.09c2.02-.051 2.607-.283 3.942-5.599.321-1.246 20.433-75.977 20.433-75.977v-.526c0-.809-.822-1.503-1.862-1.503h-.706"/><path fill="url(#1)" d="m541.61 504.76l-36.31 5.663c-.809.077-1.477.45-1.99.899-.449.449-.822.886-.899 1.58v.013c-.218 1.053-5.111 19.495-9.902 37.616-4.867 18.378-9.671 36.499-9.683 36.537l-.038.116v.116.514c-.013.745.334 1.529.963 1.952.629.411 1.374.552 2.247.552l33.879-.077c.989 0 2.17-.141 2.954-1.181.745-1 1.181-2.44 1.888-5.137.141-.578 5.24-19.598 10.313-38.425 5.073-18.853 10.11-37.488 10.12-37.526l.013-.116v-.128-.526c-.026-1.477-1.362-2.44-2.787-2.44h-.706-.064m.128 1.849h.629c.295 0 .565.115.732.244.141.128.193.257.18.334v.398c-.873 3.339-20.09 74.63-20.394 75.874-.642 2.62-1.156 3.955-1.541 4.431-.334.411-.462.411-1.49.462l-33.879.077c-.642.013-1.014-.128-1.143-.218-.116-.103-.141-.103-.167-.411h-.013v-.398c.437-1.618 5.099-19.2 9.773-36.832 2.453-9.26 4.893-18.519 6.742-25.505.899-3.493 1.682-6.408 2.221-8.476.257-1.027.476-1.85.617-2.414.077-.283.128-.514.154-.668.026-.077.039-.141.051-.205.013-.077.026-.013.051-.231v-.013c.051-.167.681-.783 1.233-.796l-.077-.925.142.925 36.18-5.651"/><path fill="url(#0)" d="m552.54 527.8c-1.04 0-1.567.295-1.567.86 0 .231.103.475.334.694 0 0 6.434 7.731 8.309 7.731h42.894c2.915 0 1.785 2.312 1.477 3.095-1.13 2.813-2.209 2.401-5.111 2.401h-32.903c-5.432 0-10.402 1.528-14.91 4.585-4.495 3.069-7.192 7.346-8.36 11.507l-3.545 15.462c-1.182 5.02.963 9.812 3.904 12.06 2.954 2.273 6.678 3.378 11.186 3.378l73.07-.103c.475 0 2.248-.296 2.993-2.081 1.747-5.535 11.982-44.11 11.982-44.11.347-1.04.514-2.081.514-3.134 0-3.583-1.477-6.524-4.418-8.836-2.941-2.324-6.665-3.48-11.186-3.48l-74.67-.026m34.409 24.426c.029 0 .057 0 .086 0h10.736c1.4 0 2.093.591 2.093 1.759 0 .231-4.225 16.246-6.241 23.874-.36 1.374-1.438 2.055-3.3 2.055h-10.544c-1.515 0-2.286-.514-2.286-1.567 0-.218 4.277-16.439 6.241-23.874.392-1.479 1.418-2.236 3.215-2.247"/><path fill="url(#4)" d="m552.53 526.87c-.616.013-1.13.064-1.631.334-.501.244-.899.899-.861 1.464 0 .539.257 1.014.591 1.336.257.295 1.747 2.081 3.48 3.866.938.989 1.926 1.965 2.851 2.736.938.745 1.631 1.348 2.671 1.426h42.894c.655 0 .912.141.95.18.038.051.052.052.077.257 0 .334-.231.976-.411 1.361-.424 1.015-.771 1.413-1.04 1.58-.27.18-.693.257-1.502.257-.449 0-1.015-.013-1.721-.013h-32.89c-5.612-.013-10.788 1.593-15.437 4.752-4.713 3.198-7.525 7.667-8.733 12.02l-3.57 15.527c-.231 1.015-.36 2.042-.36 3.043.013 4.212 1.965 7.924 4.611 9.966 3.134 2.389 7.08 3.583 11.699 3.57h.026l73.07-.128c.719 0 2.864-.36 3.879-2.646l.013-.052.013-.038c1.759-5.587 11.982-44.14 11.982-44.14.36-1.079.552-2.222.552-3.378.013-3.84-1.644-7.127-4.79-9.58-3.121-2.466-7.089-3.673-11.751-3.66l-74.67-.039zm.026 1.875l74.67.026c4.341.013 7.834 1.104 10.595 3.275 2.748 2.183 4.058 4.79 4.071 8.104 0 .938-.167 1.875-.475 2.826-.013.09-2.568 9.709-5.342 20.05-2.761 10.274-5.754 21.28-6.627 24.05-.514 1.246-1.875 1.464-2.119 1.464l-73.07.116c-4.345-.013-7.846-1.075-10.605-3.186v-.012c-2.119-1.618-3.866-4.855-3.866-8.463 0-.848.077-1.734.295-2.632l3.557-15.475c1.092-3.917 3.66-8 7.975-10.929 4.354-2.967 9.118-4.431 14.384-4.431h32.89c.642 0 1.22.013 1.721.013.86 0 1.708-.052 2.504-.54.783-.501 1.31-1.31 1.785-2.466.128-.347.526-1.13.526-2.068.038-.539-.167-1.22-.719-1.669-.552-.462-1.284-.642-2.17-.642h-42.881c-.141 0-.925-.475-1.721-1.194-2.402-2.081-5.689-5.972-5.869-6.19.116-.013.27-.026.488-.026zm34.3 22.535c-2 0-3.594 1.141-4.02 2.957-.989 3.712-2.53 9.619-3.866 14.628-.655 2.53-1.246 4.79-1.683 6.46-.218.848-.385 1.528-.501 2-.064.244-.115.436-.141.59-.013.064-.038.116-.051.167 0 .09-.013.013-.026.257-.026.745.308 1.541.951 1.952.642.424 1.387.552 2.26.552h10.544c.064.013.103.013.193.013 1.952 0 3.596-1 4.02-2.761 1.015-3.814 2.568-9.735 3.879-14.718.655-2.491 1.259-4.752 1.683-6.409.205-.835.372-1.502.501-1.99.064-.231.115-.437.154-.565.026-.205.039-.103.064-.437.013-.771-.244-1.541-.861-2.042-.591-.488-1.348-.655-2.17-.655h-10.736c-.065-.002-.13-.004-.195-.004m.182 1.892h10.736c.578 0 .86.116.963.218.09.09.167.167.18.526-.27 1.271-4.264 16.439-6.177 23.708-.321.925-.758 1.297-2.414 1.374h-10.544c-.681 0-1.053-.141-1.182-.231-.116-.103-.154-.116-.167-.334.308-1.348 4.341-16.618 6.216-23.707.36-1.117.771-1.477 2.389-1.554"/><path fill="url(#0)" d="m737.14 527.48l-74.15.334c-1.169 0-1.592.308-1.734.86-.18.745-15.321 58.63-15.321 58.63v.514c0 1.156.758 1.734 2.247 1.734h34.06c1.734 0 2.826-.745 3.301-2.247l12.714-48.11c.347-1.374 1.438-2.068 3.288-2.068h10.801c1.503 0 2.556.552 2.26 1.554-.629 2.081-7.115 24.632-7.115 26.944 0 1.156.758 1.734 2.273 1.734h33.596c.822.013 2.851.308 4.161-3.545 2.299-8.643 5.933-22.975 5.92-24.02 0-3.583-2.183-6.537-5.137-8.849-2.941-2.312-6.665-3.467-11.16-3.467"/><path fill="url(#4)" d="m737.15 526.53l-74.15.334c-.668 0-1.207.077-1.695.334-.501.257-.847.783-.95 1.233-.09.372-3.93 15.03-7.731 29.589-3.814 14.563-7.603 29.04-7.603 29.04l-.026.116v.116.514c-.026.783.295 1.58.925 2.055.629.462 1.413.616 2.26.616h34.06c.051 0 .103.013.154.013 1.926 0 3.544-1.105 4.03-2.915l12.74-48.15c.283-.938.732-1.323 2.376-1.387h10.801c.552 0 1.014.116 1.233.218.09.051.129.09.141.103 0 .013 0 .025-.013.051-.308 1.04-2.081 7.205-3.789 13.395-.86 3.095-1.682 6.203-2.311 8.682-.629 2.517-1.028 4.264-1.053 5.124 0 .771.283 1.567.938 2.042.604.462 1.4.629 2.273.629h33.596c.064 0 .231.013.449.013.565 0 1.477-.103 2.35-.732.873-.629 1.657-1.708 2.261-3.467v-.026l.013-.026c1.156-4.328 2.633-10.07 3.84-14.872.591-2.402 1.13-4.572 1.503-6.203.372-1.682.604-2.633.616-3.185 0-3.994-2.44-7.192-5.484-9.581-3.134-2.466-7.115-3.673-11.751-3.673m0 1.875c4.341 0 7.821 1.105 10.582 3.275 2.838 2.222 4.778 4.931 4.765 8.104v.026c-.167 1.58-3.635 15.398-5.895 23.707-.501 1.503-1.092 2.183-1.554 2.53-.449.321-.861.36-1.246.36h-.449-33.596c-.655 0-1-.141-1.143-.244-.116-.103-.18-.167-.193-.552-.026-.295.385-2.248.989-4.662 1.849-7.385 5.625-20.471 6.087-22.01.051-.193.077-.398.077-.591.013-.822-.565-1.477-1.169-1.759-.604-.295-1.297-.411-2.068-.411h-10.801c-2.042-.077-3.788.937-4.199 2.774l-12.714 48.11c-.411 1.092-.925 1.49-2.389 1.554h-34.06c-.642 0-.976-.141-1.117-.244-.116-.103-.18-.167-.193-.565h.013v-.385c.719-2.838 15.09-57.779 15.283-58.52l.026-.038s-.013-.013.09-.038c.103-.038.347-.077.719-.077l74.15-.334"/><path fill="url(#0)" d="m772.42 527.8c-1.027 0-1.554.295-1.554.86 0 .36-15.758 58.63-15.758 58.63h.013v.514c0 1.156.719 1.734 2.081 1.734h33.3c.989 0 3.198.167 4.122-2.774 1.618-6.781 15.27-56.7 15.27-56.7v-.526c0-1.156-.719-1.734-2.093-1.734h-35.38"/><path fill="url(#4)" d="m772.4 526.87c-.616.013-1.13.064-1.618.334-.488.231-.861.822-.886 1.374-.283 1.207-4.122 15.552-7.911 29.628-3.891 14.512-7.757 28.819-7.77 28.845l-.038.128v.116.526c0 .758.257 1.528.86 2.02.578.488 1.336.642 2.145.642h33.3.308c.09.013.18.013.257.013 1.233 0 3.583-.54 4.444-3.429v-.038l.013-.026c.796-3.365 4.623-17.556 8.232-30.886 3.609-13.318 7.01-25.775 7.02-25.801l.039-.116v-.141-.514c0-.758-.244-1.528-.848-2.02-.604-.488-1.361-.655-2.17-.655h-35.38m-.102 1.872c.036 0 .075 0 .115.003h35.38c.578 0 .861.128.963.218.09.09.18.18.193.578v.398c-.758 2.736-13.613 49.765-15.244 56.57-.758 2.145-1.862 2.029-2.915 2.106h-.308-33.3c-.565 0-.848-.141-.937-.218-.103-.09-.193-.18-.193-.578v-.398c.372-1.413 4.097-15.219 7.821-29.06 1.965-7.307 3.943-14.615 5.432-20.14.719-2.761 1.336-5.06 1.773-6.691.231-.809.372-1.464.501-1.901.051-.231.09-.398.129-.539.013-.064.026-.103.038-.154 0-.064.013-.013.026-.129.112-.034.274-.067.528-.067"/><path fill="url(#2)" d="m413.17 525.38c-5.06 0-9.76 1.605-14.09 4.829-4.341 3.236-6.999 7.04-8 11.43l-7.744 32.518c-.321 1.104-.488 2.26-.488 3.467 0 3.789 1.387 6.858 4.2 9.234 2.8 2.376 6.331 3.558 10.621 3.558h54.863c5.15 0 9.876-1.567 14.165-4.739 4.289-3.159 6.961-6.999 8.08-11.519l7.744-32.518c.321-1.105.501-2.196.501-3.288 0-3.776-1.4-6.884-4.2-9.324s-6.331-3.66-10.634-3.647h-55.02zm18.955 8.245h13.164c1.425 0 2.145.552 2.145 1.644-.013.244-.026.411-.026.539l-10.736 44.18c-.321 1.438-1.361 2.158-3.121 2.158h-12.971c-1.425 0-2.132-.552-2.132-1.644v-.54l10.544-44.15c.437-1.451 1.49-2.183 3.133-2.183"/><path fill="url(#4)" d="m413.58 524.55c-5.355 0-10.403 1.708-14.975 5.05-4.585 3.365-7.423 7.384-8.476 11.969l-7.731 32c-.347 1.117-.539 2.376-.539 3.673 0 4.058 1.567 7.423 4.636 9.992 3.057 2.543 6.961 3.84 11.584 3.84h54.876c5.458 0 10.518-1.669 15.05-4.957 4.521-3.288 7.385-7.32 8.553-12.02 0-.013 7.731-32.03 7.731-32.03.36-1.117.54-2.324.54-3.493.013-.013-1.541-7.449-4.61-10.07-3.069-2.62-6.961-3.955-11.61-3.955h-55.03m.719 1.836h55.03c3.955 0 7.089 1.066 9.645 3.249 2.543 2.17 3.776 4.88 3.776 8.283-.013.976-.167 1.939-.462 2.915-.026.064-8.45 33.506-8.45 33.506-1.015 4.122-3.583 7.719-7.603 10.634-4.01 2.928-8.463 4.405-13.254 4.405h-54.876c-3.943 0-7.526-1.438-10.08-3.557-2.53-2.119-3.763-4.79-3.763-8.181 0-1.079.154-2.132.449-3.108.013-.051 8.463-33.506 8.463-33.506.912-4.02 3.442-7.564 7.513-10.544 4.03-2.98 8.913-4.097 13.613-4.097zm18.236 6.293c-2.286 0-3.891 1.092-4.495 3.069-.013.064-10.582 43.652-10.582 43.652v.668c0 1.387.924 2.864 3.531 2.864h12.984c2.427 0 4.02-1.105 4.508-3.108l10.762-43.601.026-.616c-.013-1.451-.95-2.928-3.557-2.928h-13.177m-.013 2.479h13.176c.462 0 .655.077.694.103l.039.269c.013.013.013.231 0 .373-.051.218-10.711 43.39-10.711 43.39-.167.732-.514 1.143-1.747 1.143h-12.984c-.449 0-.655-.077-.68-.103 0-.026-.052-.269-.052-.269v-.398c.064-.27 10.505-43.34 10.505-43.34.257-.822.758-1.168 1.759-1.168"/></g></svg>