<svg xmlns="http://www.w3.org/2000/svg" height="86.06" width="600" viewBox="0 0 158.75 22.769071"><g transform="translate(1.512-276.36)" fill="#ec1e27"><path d="m7.721 276.36l-1.888 3.47h4.02l2.049-3.47zm.216 3.89c-5.608 0-9.448 4.18-9.448 9.47 0 5.34 3.632 9.41 9.576 9.41 5.848 0 9.528-4.17 9.528-9.49 0-5.31-3.712-9.39-9.657-9.39m.08 4.1c3.128 0 4.969 2.37 4.969 5.34s-1.736 5.34-4.944 5.34c-3.02 0-4.944-2.34-4.944-5.34 0-2.97 1.712-5.34 4.92-5.34"/><path d="m30.801 279.83l2.608-3.47h-3.792l-1.024 1.16-1.032-1.16h-3.784l2.6 3.47z"/><path d="m32.457 293.66c-.784.69-1.944 1.37-3.472 1.37-3.048 0-5.08-2.34-5.08-5.34 0-2.97 1.816-5.34 5.056-5.34 1.632 0 2.84.76 3.496 1.37l2.608-3.31c-1.448-1.26-3.392-2.16-6.16-2.16-5.816 0-9.6 4.21-9.6 9.47 0 5.31 3.632 9.41 9.68 9.41 2.552 0 4.496-.89 6.06-2.36z"/><path d="m41.35 280.6h-4.392v18.19h4.392v-7.44l4.896 7.44h5.128l-6.368-9.5 6.392-8.69h-5.08l-4.968 7.12z"/><path d="m60.11 280.25c-5.608 0-9.448 4.18-9.448 9.47 0 5.34 3.632 9.41 9.585 9.41 5.84 0 9.52-4.17 9.52-9.49 0-5.31-3.712-9.39-9.657-9.39m.08 4.1c3.129 0 4.969 2.37 4.969 5.34s-1.736 5.34-4.944 5.34c-3.02 0-4.945-2.34-4.945-5.34 0-2.97 1.712-5.34 4.92-5.34"/><path d="m85.32 298.79v-4.1h-4.32v-3.13h4.112v-4.05h-4.112v-2.81h4.24v-4.1h-8.632v18.19z"/><path d="m86.56 298.79h4.921c.528-.81 1.712-2.76 3.584-5.55l3.6 5.55h5.08l-5.92-9.26 5.71-8.93h-5.158l-3.08 4.99-3.184-4.99h-5.337l5.761 8.8z"/><path d="m105.24 280.6v18.19h4.36v-7.26h1.92c3.51 0 5.72-2.16 5.72-5.52 0-3.45-1.92-5.41-5.74-5.41zm4.36 3.78h1.53c.98 0 1.59.65 1.59 1.66 0 1.02-.59 1.7-1.59 1.7h-1.53z"/><path d="m119.13 280.6v18.19h4.37v-7.46h1.18l3.58 7.46h4.71l-4.16-8.31c1.48-.89 2.32-2.45 2.32-4.47 0-3.45-1.92-5.41-5.73-5.41zm4.37 3.78h1.53c.97 0 1.57.65 1.57 1.66 0 1.02-.57 1.7-1.57 1.7h-1.53z"/><path d="m142.97 298.79v-4.1h-4.32v-3.13h4.12v-4.05h-4.12v-2.81h4.24v-4.1h-8.63v18.19z"/><path d="m149.53 285.38c0-.76.49-1.37 1.49-1.37 1.03 0 1.61.79 1.59 1.92h4.04c.19-3.23-1.36-5.68-5.65-5.68-3.55 0-5.87 2.21-5.87 5.39 0 2.21.97 4 2.81 4.95 1.01.5 1.93.84 2.85 1.21 1.18.44 1.92.94 1.92 1.96 0 1.06-.74 1.61-1.74 1.61-1.44 0-1.89-1.13-1.84-2.29h-4.16c-.16 2.66.79 6.05 6 6.05 3.66 0 6.27-2.15 6.27-5.84 0-2.7-1.4-4.28-3.77-5.26l-2.29-.89c-1.23-.47-1.65-1-1.65-1.76"/></g></svg>