<svg xmlns="http://www.w3.org/2000/svg" viewBox="0 0 600 191.81"><g transform="translate(0-860.55)" fill="#ec1e27"><path d="m112.96 860.55l-17.251 29.24h-33.898l15.938-29.24h35.21"/><path d="m79.5 893.33c-47.17 0-79.5 35.23-79.5 79.75 0 44.958 30.587 79.28 80.62 79.28 49.18 0 80.19-35.23 80.19-79.969 0-44.746-31.24-79.06-81.31-79.06m.687 34.562c26.374 0 41.844 19.918 41.844 44.938 0 25.04-14.585 44.969-41.594 44.969-25.463 0-41.656-19.728-41.656-44.969 0-25.02 14.408-44.938 41.41-44.938"/><path d="m234.76 889.79l-21.908-29.24h31.888l8.647 9.737 8.636-9.737h31.877l-21.907 29.24h-37.23"/><path d="m307.63 1032.4c-13.06 12.382-29.443 19.928-50.948 19.928-50.927 0-81.49-34.533-81.49-79.28 0-44.29 31.909-79.74 80.84-79.74 23.262 0 39.645 7.535 51.827 18.14l-21.918 27.919c-5.556-5.091-15.716-11.504-29.453-11.504-27.23 0-42.524 19.918-42.524 44.947 0 25.23 17.05 44.979 42.725 44.979 12.859 0 22.606-5.779 29.25-11.525l21.696 26.13z"/><path d="m360.8 956.23l41.857-60.02h42.736l-53.816 73.31 53.605 79.968h-43.19l-41.19-62.685v62.685h-36.989v-153.28h36.989v60.02"/><path d="m518.72 893.33c-47.19 0-79.53 35.23-79.53 79.75 0 44.969 30.566 79.28 80.63 79.28 49.17 0 80.19-35.2 80.19-79.938 0-44.757-31.24-79.09-81.28-79.09m.655 34.563c26.374 0 41.844 19.919 41.844 44.938 0 25.03-14.616 44.969-41.656 44.969-25.464 0-41.625-19.728-41.625-44.969 0-25.02 14.408-44.938 41.44-44.938z"/></g></svg>