<svg xmlns="http://www.w3.org/2000/svg" viewBox="0 0 600 314.99"><g transform="translate(292.17 359.2)"><path d="m212.58-296.97h13.925l-4.03 19.485h18.551l4.084-19.485h13.876l-11.12 53.49h-13.925l4.576-22.04h-18.6l-4.576 22.04h-13.925l11.17-53.49z"/><path d="m263.96-296.97l-11.344 53.44h23.938c21.16 0 31.28-14.212 31.28-30.844 0-16.435-10.133-22.594-23.812-22.594h-20.06m11.343 11.969h8.03c6.446 0 10.562 3.09 10.562 11.75 0 6.987-3.538 17.75-15.594 17.75h-9.188l6.188-29.5"/><g fill="#f25822"><path d="m5.465-297.09c-.948-6.306-5.5-18.918-27.595-18.918-24.987 0-33 24.276-33 47.603 0 23.28 8.01 47.556 33 47.556 17.969 0 25.04-7.159 28.16-23.422h52.44c0 34.991-28.401 66.66-79.13 66.66-56.09 0-87.85-39.59-87.85-90.8 0-54.62 34.47-90.8 87.85-90.8 47.603.237 73.44 18.634 78.09 62.11h-51.969z"/><path d="m-204.31-220.83c13.608 0 34.47-9.01 34.47-47.603s-20.862-47.556-34.47-47.556-34.47 8.961-34.47 47.556 20.862 47.603 34.47 47.603m0-138.35c52.677 0 87.91 37.836 87.91 90.75 0 52.961-35.23 90.8-87.91 90.8-52.677 0-87.85-37.836-87.85-90.8 0-52.914 35.18-90.75 87.85-90.75"/><path d="m117.11-244.26c0 4.362.711 12.517 1.944 15.647 3.888 10.431 15.504 12.612 25.461 12.612 8.772 0 22.09-2.892 22.09-15.741 0-9.01-7.491-11.427-37.36-19.913-27.452-7.776-58.745-15.314-58.745-50.26 0-40.06 34.19-57.27 69.888-57.27 37.646 0 70.883 19.866 72.35 62.11h-50.5c.996-6.543-1.944-16.5-6.306-19.392-4.362-3.177-10.431-4.362-15.789-4.362-7.254 0-19.16 1.944-19.16 11.616.948 12.375 25.746 15.08 50.26 21.858 24.513 6.827 48.789 18.207 48.789 50.02 0 45.14-41.534 59.694-80.13 59.694-19.629 0-75.72-11.284-76.24-66.62h53.45z"/></g><path d="m-130.81-148.96c8.092-8.909 20.387-12.1 32.03-12.68 9.904.624 20.372 2.524 28.14 9.206 7.855 6.415 11.656 16.586 12.443 26.475-8.657.03-17.313.015-25.97.015-.445-5.806-3.222-12.03-8.968-14.254-4.885-1.129-10.795-1.203-14.7 2.435-2.584 2.108-3.801 5.301-5.316 8.181-2.821 8.419-2.138 17.447-1.648 26.16 1.173 7.291 3.994 16.05 11.715 18.679 4.796.787 10.631.95 14.165-3.01 3.757-3.222 5-8.181 5.078-12.948 8.879-.015 17.759.015 26.638-.015-1.025 12.01-6.266 24.307-17.05 30.632-16.823 9.681-40.33 8.671-54.924-4.737-10.676-10.1-13.764-25.302-14.269-39.39.728-12.413 3.4-25.673 12.636-34.745"/><path d="m-52.816-158.61h25.24v19.303h-25.24v-19.303"/><path d="m-18.665-154.16h25.24v20.788c11.864.089 23.743-.148 35.592.089.327.371.98 1.114 1.307 1.485 2.108 15.07 7.216 29.741 7.959 44.976 2.361-3.623 2.094-8.03 2.717-12.13 2.465-11.478 5.316-22.881 7.484-34.419h26.22c-5.583 19.229-11.522 38.34-17.15 57.55-2.688 8.671-5.108 17.922-11.493 24.723-4.87 4.841-11.864 6.103-18.427 6.801-6.994.505-13.854-1.44-20.847-1.218v-19.555c5.227-.371 10.468.238 15.695-.342.342-1.099 1.01-3.267 1.351-4.351-4.648-15.977-10.424-31.597-15.858-47.31-4.855.044-9.696.03-14.551.03.401 10.735-.846 21.59.698 32.24 3.222.386 6.459.475 9.696.327v17.907c-8.419.015-16.927 3.207-25.12-.178-7.602-2.168-9.993-10.617-10.424-17.625-.238-10.884-.015-21.783-.089-32.666h-8.909v50.48h-25.24v-66.818h34.15v-20.788"/></g></svg>