<svg xmlns="http://www.w3.org/2000/svg" viewBox="0 0 600 368.98"><g transform="translate(336.06 386.19)"><g fill="#f25822"><path d="m12.582-313.43c-1.111-7.387-6.443-22.16-32.32-22.16-29.27 0-38.655 28.436-38.655 55.762 0 27.27 9.386 55.707 38.655 55.707 21.05 0 29.325-8.387 32.99-27.436h61.43c0 40.988-33.27 78.09-92.7 78.09-65.7 0-102.91-46.37-102.91-106.36 0-63.982 40.38-106.36 102.91-106.36 55.762.278 86.03 21.827 91.47 72.76h-60.873z"/><path d="m-233.15-224.1c15.94 0 40.38-10.552 40.38-55.762 0-45.21-24.437-55.707-40.38-55.707s-40.38 10.497-40.38 55.707c0 45.21 24.437 55.762 40.38 55.762m0-162.06c61.705 0 102.97 44.32 102.97 106.3 0 62.04-41.27 106.36-102.97 106.36-61.705 0-102.91-44.32-102.91-106.36 0-61.983 41.21-106.3 102.91-106.3"/><path d="m143.36-251.55c0 5.11.833 14.662 2.277 18.328 4.554 12.219 18.16 14.773 29.824 14.773 10.275 0 25.881-3.388 25.881-18.439 0-10.552-8.775-13.385-43.765-23.326-32.16-9.108-68.814-17.939-68.814-58.872 0-46.931 40.04-67.09 81.87-67.09 44.1 0 83.03 23.271 84.75 72.76h-59.15c1.166-7.664-2.277-19.328-7.387-22.715-5.11-3.721-12.219-5.11-18.495-5.11-8.498 0-22.438 2.277-22.438 13.607 1.111 14.496 30.16 17.661 58.872 25.604 28.714 7.998 57.15 21.327 57.15 58.59 0 52.873-48.652 69.925-93.86 69.925-22.993 0-88.7-13.218-89.31-78.03h62.59z"/></g><path d="m-147.05-139.92c9.479-10.436 23.881-14.175 37.517-14.854 11.601.731 23.863 2.957 32.96 10.784 9.201 7.514 13.654 19.428 14.575 31.01-10.14.035-20.28.017-30.421.017-.522-6.801-3.774-14.09-10.505-16.697-5.722-1.322-12.645-1.409-17.219 2.853-3.03 2.47-4.453 6.209-6.227 9.584-3.305 9.862-2.505 20.437-1.931 30.647 1.374 8.54 4.679 18.802 13.723 21.881 5.618.922 12.454 1.113 16.593-3.531 4.4-3.774 5.862-9.584 5.948-15.167 10.401-.017 20.802.017 31.2-.017-1.2 14.07-7.34 28.473-19.967 35.882-19.706 11.34-47.24 10.158-64.34-5.548-12.506-11.827-16.12-29.638-16.715-46.14.852-14.541 3.983-30.07 14.802-40.7"/><path d="m-55.688-151.23h29.568v22.611h-29.568v-22.611"/><path d="m-15.684-146.01h29.568v24.35c13.897.104 27.812-.174 41.691.104.383.435 1.148 1.305 1.531 1.739 2.47 17.654 8.453 34.839 9.323 52.684 2.766-4.244 2.452-9.41 3.183-14.21 2.887-13.445 6.227-26.803 8.766-40.32h30.716c-6.54 22.524-13.497 44.909-20.09 67.42-3.148 10.158-5.983 20.994-13.462 28.96-5.705 5.67-13.897 7.149-21.585 7.966-8.192.591-16.228-1.687-24.42-1.426v-22.907c6.122-.435 12.262.278 18.385-.4.4-1.287 1.183-3.827 1.583-5.096-5.444-18.715-12.21-37.01-18.576-55.42-5.688.052-11.358.035-17.05.035.47 12.575-.991 25.29.817 37.761 3.774.452 7.566.557 11.358.383v20.976c-9.862.017-19.828 3.757-29.429-.209-8.905-2.539-11.706-12.436-12.21-20.646-.278-12.749-.017-25.516-.104-38.27h-10.436v59.14h-29.568v-78.27h40v-24.35z"/></g></svg>