<svg xmlns="http://www.w3.org/2000/svg" viewBox="0 0 600 317.41"><g transform="translate(229.76 110.26)"><g fill="#fff"><path d="m-45.04 171.6c-9.497 22.66-27.603 35.545-62.43 35.545-35.1 0-52.707-13.607-46.49-42.876 6.109-28.658 30.658-42.821 64.7-42.821 29.547 0 48.763 8.886 46.15 34.05h-31.879c.389-8.609-4.999-13.607-18.16-13.607-14.496 0-24.993 8.05-28.05 22.382-3.055 14.329 3.721 22.382 18.661 22.382 11.719 0 20.549-4.943 24.715-15.05h32.768z"/><path d="m293.42 171.6c-9.497 22.66-27.603 35.545-62.43 35.545-35.1 0-52.707-13.607-46.43-42.876 6.05-28.658 30.602-42.821 64.7-42.821 29.547 0 48.708 8.886 46.15 34.05h-31.935c.389-8.609-4.998-13.607-18.16-13.607-14.496 0-24.937 8.05-27.992 22.382-3.055 14.329 3.721 22.382 18.606 22.382 11.719 0 20.494-4.943 24.715-15.05h32.768"/><path d="m-23.13 96.84l-22.771 107.08h30.991l22.771-107.08h-30.991"/><path d="m35.15 122.61c-8.05 0-15.218 1.611-21.271 4.11l-4.277 20.383c2.222-.666 4.61-1.111 7.109-1.111 10.386 0 15.05 4.999 12.885 15.11l-9.108 42.821h30.991l11.11-52.21c4.221-19.772-7.998-29.1-27.436-29.1"/><path d="m136.71 121.63l-4.443 20.883c10.386 1.777 15.44 8.942 12.718 21.771-2.721 12.774-10.775 19.939-21.827 21.771l-4.388 20.772c32.435-1.555 53.37-15.995 58.983-42.543 5.665-26.603-9.05-41.21-41.04-42.654"/><path d="m99.33 164.3c2.61-12.219 10.11-19.328 20.438-21.549l4.443-20.938c-31.657 1.944-52.1 16.328-57.65 42.487-5.554 26.21 8.609 40.821 39.71 42.598l4.443-21.05c-9.497-2.166-13.996-9.275-11.386-21.549"/></g><g fill="#f25822"><path d="m118.89-37.505c-1.111-7.387-6.442-22.16-32.32-22.16-29.27 0-38.655 28.436-38.655 55.761 0 27.27 9.386 55.706 38.655 55.706 21.05 0 29.325-8.386 32.99-27.436h61.43c0 40.988-33.27 78.09-92.69 78.09-65.7 0-102.91-46.37-102.91-106.36 0-63.981 40.38-106.36 102.91-106.36 55.761.278 86.03 21.827 91.47 72.76h-60.871z"/><path d="m-126.84 51.824c15.94 0 40.38-10.552 40.38-55.761s-24.437-55.706-40.38-55.706-40.38 10.497-40.38 55.706 24.437 55.761 40.38 55.761m0-162.06c61.704 0 102.97 44.32 102.97 106.3 0 62.04-41.27 106.36-102.97 106.36s-102.91-44.32-102.91-106.36c0-61.982 41.21-106.3 102.91-106.3"/><path d="m249.67 24.377c0 5.11.833 14.662 2.277 18.328 4.554 12.219 18.16 14.773 29.824 14.773 10.275 0 25.881-3.388 25.881-18.439 0-10.552-8.775-13.385-43.765-23.326-32.16-9.108-68.813-17.939-68.813-58.871 0-46.931 40.04-67.09 81.87-67.09 44.1 0 83.03 23.271 84.75 72.76h-59.15c1.166-7.664-2.277-19.328-7.387-22.715-5.11-3.721-12.219-5.11-18.495-5.11-8.498 0-22.438 2.277-22.438 13.607 1.111 14.496 30.16 17.661 58.871 25.604 28.714 7.998 57.15 21.327 57.15 58.59 0 52.873-48.652 69.924-93.86 69.924-22.993 0-88.7-13.218-89.31-78.03h62.59z"/></g></g></svg>