<svg xmlns="http://www.w3.org/2000/svg" viewBox="0 0 600 270.97"><g transform="translate(292.17 359.2)"><path d="m212.58-296.97h13.925l-4.03 19.485h18.551l4.084-19.485h13.876l-11.12 53.49h-13.925l4.576-22.04h-18.6l-4.576 22.04h-13.925l11.17-53.49z"/><path d="m263.96-296.97l-11.344 53.44h23.938c21.16 0 31.28-14.212 31.28-30.844 0-16.435-10.133-22.594-23.812-22.594h-20.06m11.343 11.969h8.03c6.446 0 10.562 3.09 10.562 11.75 0 6.987-3.538 17.75-15.594 17.75h-9.188l6.188-29.5"/><path d="m-134.48-118.57c-8.108 19.345-23.565 30.345-53.29 30.345-29.966 0-44.996-11.616-39.685-36.603 5.215-24.465 26.17-36.556 55.24-36.556 25.22 0 41.629 7.586 39.4 29.06h-27.22c.332-7.349-4.267-11.616-15.504-11.616-12.375 0-21.336 6.875-23.944 19.11-2.608 12.233 3.177 19.11 15.931 19.11 10 0 17.543-4.22 21.1-12.849h27.974z"/><path d="m154.46-118.57c-8.108 19.345-23.565 30.345-53.29 30.345-29.966 0-44.996-11.616-39.638-36.603 5.168-24.465 26.12-36.556 55.24-36.556 25.22 0 41.582 7.586 39.4 29.06h-27.26c.332-7.349-4.267-11.616-15.504-11.616-12.375 0-21.289 6.875-23.897 19.11-2.608 12.233 3.177 19.11 15.884 19.11 10 0 17.496-4.22 21.1-12.849h27.974z"/><path d="m-115.78-182.39l-19.44 91.41h26.457l19.44-91.41h-26.457"/><path d="m-66.02-160.4c-6.875 0-12.992 1.375-18.16 3.509l-3.651 17.401c1.897-.569 3.935-.948 6.069-.948 8.867 0 12.849 4.267 11 12.897l-7.776 36.556h26.457l9.483-44.569c3.603-16.879-6.828-24.844-23.422-24.844"/><path d="m20.678-161.23l-3.793 17.828c8.867 1.517 13.181 7.634 10.857 18.586-2.323 10.905-9.199 17.02-18.634 18.586l-3.745 17.72c27.69-1.328 45.565-13.65 50.35-36.32 4.836-22.711-7.728-35.18-35.04-36.414"/><path d="m-11.232-124.81c2.228-10.431 8.629-16.5 17.448-18.396l3.793-17.875c-27.02 1.66-44.47 13.939-49.22 36.27-4.741 22.379 7.349 34.849 33.9 36.37l3.793-17.969c-8.108-1.849-11.948-7.918-9.72-18.396"/><g fill="#f25822"><path d="m5.465-297.09c-.948-6.306-5.5-18.918-27.595-18.918-24.987 0-33 24.276-33 47.603 0 23.28 8.01 47.556 33 47.556 17.969 0 25.04-7.159 28.16-23.422h52.44c0 34.991-28.401 66.66-79.13 66.66-56.09 0-87.85-39.59-87.85-90.8 0-54.62 34.47-90.8 87.85-90.8 47.603.237 73.44 18.634 78.09 62.11h-51.969z"/><path d="m-204.31-220.83c13.608 0 34.47-9.01 34.47-47.603s-20.862-47.556-34.47-47.556-34.47 8.961-34.47 47.556 20.862 47.603 34.47 47.603m0-138.35c52.677 0 87.91 37.836 87.91 90.75 0 52.961-35.23 90.8-87.91 90.8-52.677 0-87.85-37.836-87.85-90.8 0-52.914 35.18-90.75 87.85-90.75"/><path d="m117.11-244.26c0 4.362.711 12.517 1.944 15.647 3.888 10.431 15.504 12.612 25.461 12.612 8.772 0 22.09-2.892 22.09-15.741 0-9.01-7.491-11.427-37.36-19.913-27.452-7.776-58.745-15.314-58.745-50.26 0-40.06 34.19-57.27 69.888-57.27 37.646 0 70.883 19.866 72.35 62.11h-50.5c.996-6.543-1.944-16.5-6.306-19.392-4.362-3.177-10.431-4.362-15.789-4.362-7.254 0-19.16 1.944-19.16 11.616.948 12.375 25.746 15.08 50.26 21.858 24.513 6.827 48.789 18.207 48.789 50.02 0 45.14-41.534 59.694-80.13 59.694-19.629 0-75.72-11.284-76.24-66.62h53.45z"/></g></g></svg>