<svg xmlns="http://www.w3.org/2000/svg" viewBox="0 0 600 367.9"><g transform="translate(424.13 109.14)"><path d="m-259.53 198.46v-54.717c0-5.902 2.34-7.125 4.733-7.125 2.499 0 4.786 1.223 4.786 7.125v54.717c0 5.902-2.286 7.125-4.786 7.125-2.446 0-4.733-1.223-4.733-7.125m-18.239 41.849c0 11.379 8.827 18.452 22.972 18.452 14.198 0 23.03-7.07 23.03-18.452v-117.84h-18.239v7.125l-.479-.532c-3.882-4.467-8.508-7.923-13.453-7.923-9.09 0-13.772 5.477-13.826 14.57v70.776c.053 9.09 4.733 14.57 13.826 14.57 6.381 0 9.944-2.446 12.656-7.445l.053-.16h.16.691v25.1c0 5.902-2.34 7.07-4.786 7.07-2.446 0-4.733-1.17-4.733-7.07v-11.858h-17.867v13.613z"/><path d="m-201.27 167.85v-27.811c0-2.606.425-4.04 1.329-4.839.851-.851 2.074-.904 3.403-.904 1.383 0 2.606.053 3.456.904.904.798 1.329 2.233 1.329 4.839v27.811h-9.518m-18.239-28.24v77.05c0 11.326 8.827 18.452 22.972 18.505 14.198-.053 22.972-7.179 23.03-18.505v-26.322h-18.239v25.896c0 2.552-.425 4.04-1.329 4.839-.851.851-2.074.904-3.456.904-1.329 0-2.552-.053-3.403-.904-.904-.798-1.329-2.286-1.329-4.839v-35.84h27.757v-40.785c-.053-11.379-8.827-18.452-23.03-18.505-14.15.053-22.972 7.125-22.972 18.505"/><path d="m-143.04 215.68v-28.13c0-6.06 3.882-8.508 9.146-11.592l.372-.266v39.19c0 2.712-2.074 4.36-4.733 4.786h-.425-.053c-2.393 0-3.935-1.648-4.307-3.988m28.02 18.345v-.266.266zm-19.04-91.62c0 1.276-.053 2.446-.053 3.297-.106 28.821-27.332 16.963-27.17 39.3v37.542c.053 8.295 4.36 12.549 12.443 12.602 7.763 0 10.529-2.446 14.464-8.88l.053-.106h.16.638v.266c0 2.499 0 5.105 1.117 7.338h17.12v-94.12c0-11.379-8.827-18.505-22.972-18.505-14.198 0-22.972 7.125-23.03 18.505v22.23h18.452v-14.41c0-1.064-.106-2.446-.106-3.882.053-4.148.532-9.252 4.839-9.306 3.669.053 4.04 4.626 4.04 8.136"/><path d="m-75.25 143.72v90.03h18.19v-92.74c-.053-11.805-.053-19.834-14.15-19.887-4.998 0-9.997 2.499-12.656 7.657l-.106.16h-.16-.638v-6.434h-18.239v111.24h18.239v-90.03c0-3.084.213-7.07 5.158-7.07 4.148 0 4.36 3.988 4.36 7.07"/><path d="m-47.51 136.82h5.477v82.37c0 4.254 2.499 14.57 13.825 14.57h10.475v-14.304h-1.702c-2.074 0-4.36-.851-4.36-9.252v-73.38h6.06v-14.304h-5.796-.266v-20.15h-18.239v20.15h-5.477v14.304"/><path d="m-8.2 216.64c0 11.379 8.827 18.452 22.972 18.505 14.198-.053 23.02-7.125 23.02-18.505v-22.706c.053-16.378-27.651-31.745-27.757-43.39v-9.146c0-5.902 2.287-7.125 4.733-7.125 2.446 0 4.786 1.223 4.786 7.125v21h18.239v-22.759c0-11.379-8.827-18.505-23.02-18.505-14.14 0-22.972 7.125-22.972 18.505v15.05c-.106 17.495 27.651 30.416 27.757 48.655v11.539c0 5.902-2.34 7.125-4.786 7.125-2.446 0-4.733-1.223-4.733-7.125v-24.14h-18.239v25.896"/><g fill="#f25822"><path d="m-75.46-36.37c-1.117-7.391-6.434-22.17-32.28-22.17-29.3 0-38.711 28.449-38.711 55.781 0 27.28 9.412 55.727 38.711 55.727 21 0 29.25-8.402 32.968-27.438h61.42c0 40.945-33.29 78.06-92.68 78.06-65.724 0-102.95-46.37-102.95-106.35 0-63.97 40.36-106.35 102.95-106.35 55.727.266 86.04 21.855 91.46 72.74h-60.885"/><path d="m-321.18 52.949c15.899 0 40.36-10.529 40.36-55.727 0-45.2-24.46-55.727-40.36-55.727-15.899 0-40.41 10.529-40.41 55.727 0 45.2 24.514 55.727 40.41 55.727m0-162.08c61.683 0 102.95 44.35 102.95 106.35s-41.26 106.35-102.95 106.35c-61.683 0-102.95-44.35-102.95-106.35s41.26-106.35 102.95-106.35"/><path d="m55.32 25.5c0 5.105.851 14.623 2.233 18.345 4.573 12.23 18.239 14.783 29.884 14.783 10.263 0 25.896-3.403 25.896-18.505 0-10.529-8.827-13.347-43.816-23.291-32.12-9.09-68.812-17.919-68.812-58.864 0-46.9 40.09-67.11 81.89-67.11 44.08 0 83.06 23.291 84.76 72.74h-59.18c1.17-7.657-2.233-19.303-7.338-22.706-5.158-3.669-12.23-5.105-18.505-5.105-8.561 0-22.493 2.287-22.493 13.666 1.17 14.464 30.15 17.601 58.865 25.577 28.714 7.976 57.16 21.323 57.16 58.6 0 52.856-48.602 69.925-93.85 69.925-22.972 0-88.7-13.241-89.28-78.06h62.59z"/></g></g></svg>