<?xml version="1.0" encoding="UTF-8" standalone="no"?>
<!-- Created with Inkscape (http://www.inkscape.org/) -->
<svg xmlns:rdf="http://www.w3.org/1999/02/22-rdf-syntax-ns#" xmlns="http://www.w3.org/2000/svg" height="291.9" width="600" version="1.1" xmlns:cc="http://creativecommons.org/ns#" xmlns:dc="http://purl.org/dc/elements/1.1/">
 <defs></defs>
 <metadata>
  <rdf:RDF>
   <cc:Work rdf:about="">
    <dc:format>image/svg+xml</dc:format>
    <dc:type rdf:resource="http://purl.org/dc/dcmitype/StillImage"/>
    <dc:title/>
   </cc:Work>
  </rdf:RDF>
 </metadata>
 <g fill-rule="nonzero" transform="translate(292.1676,359.20137)">
  <path fill="#000" d="m212.58-296.97,13.925,0-4.0349,19.485,18.551,0,4.0841-19.485,13.876,0-11.12,53.487-13.925,0,4.5761-22.044-18.6,0-4.5761,22.044-13.925,0,11.17-53.487z"/>
  <path fill="#000" d="m263.96-296.97-11.344,53.438,23.938,0c21.158,0,31.281-14.212,31.281-30.844,0-16.435-10.133-22.594-23.812-22.594h-20.062zm11.344,11.969,8.0312,0c6.446,0,10.562,3.0898,10.562,11.75,0,6.9872-3.5383,17.75-15.594,17.75h-9.1875l6.1875-29.5z"/>
  <path fill="#000" d="m-179.84-150.66c0-7.8388,4.4528-12.617,11.689-12.617,7.2358,0,11.689,4.7775,11.689,12.617v50.651c0,7.8388-4.4528,12.617-11.689,12.617-7.2358,0-11.689-4.7775-11.689-12.617v-17.069h-22.867v17.069c0,7.8388-4.4992,12.617-11.735,12.617-7.1894,0-11.689-4.7775-11.689-12.617v-50.651c0-7.8388,4.4992-12.617,11.689-12.617,7.2358,0,11.735,4.7775,11.735,12.617v13.822h22.867v-13.822z"/>
  <path fill="#000" d="m-109.97-119.9-0.18553,0-7.9316,26.763,16.048,0-7.9316-26.763zm-12.43,41.421-1.6234,5.3805c-1.206,4.1745-5.7979,5.7979-9.4622,5.7979-5.2877,0-10.668-3.989-10.668-9.4622,0-3.3396,1.9481-8.7664,3.6643-13.637l15.539-43.323c2.2728-6.1226,5.2877-9.4622,11.225-9.4622h7.3286c5.8907,0,8.9517,3.3396,11.178,9.4622l15.539,43.323c1.7162,4.8702,3.6643,10.297,3.6643,13.637,0,5.4733-5.3805,9.4622-10.668,9.4622-3.6643,0-8.2098-1.6234-9.4622-5.7979l-1.6234-5.3805h-24.63z"/>
  <path fill="#000" d="m-29.404-129.1c3.8498,0,7.9315-2.4119,7.9315-7.4214,0-4.8702-3.3396-7.746-9.0447-7.746h-11.828v15.167h12.941zm-35.715-18.924c0-9.7405,4.2673-13.915,13.312-13.915h21.197c17.904,0,31.911,5.4733,31.911,25.325,0,19.713-14.008,25.232-31.911,25.232h-11.735v11.782c0,7.8388-4.0353,12.245-11.364,12.245-7.3286,0-11.41-4.4064-11.41-12.245v-48.424z"/>
  <path fill="#000" d="m51.935-109.02c3.8498,0,7.9315-2.4583,7.9315-7.4214,0-4.8702-3.3396-7.746-9.0447-7.746h-11.828v15.167h12.942zm-35.715-18.924c0-9.7866,4.2673-13.961,13.358-13.961h21.15c17.904,0,31.911,5.5196,31.911,25.371,0,19.713-14.008,25.186-31.911,25.186h-11.734v11.828c0,7.8388-4.0353,12.199-11.364,12.199-7.3286,0-11.41-4.3601-11.41-12.199v-48.424z"/>
  <path fill="#000" d="m131.9-156.16c2.3192-4.7775,6.2154-7.1431,10.9-7.1431,6.4009,0,11.178,5.3341,11.178,11.132,0,2.4119-1.0204,4.6384-2.9686,8.0243l-16.883,29.175v14.982c0,7.8388-4.4528,12.617-11.689,12.617-7.2358,0-11.689-4.7775-11.689-12.617v-14.982l-16.883-29.175c-1.9481-3.386-2.9686-5.6124-2.9686-8.0243,0-5.7979,4.7775-11.132,11.178-11.132,4.6847,0,8.5346,2.3655,10.9,7.1431l9.4622,19.62,9.4622-19.62z"/>
  <path fill="#f25822" d="m5.4603-297.09c-0.97405-6.3082-5.4733-18.924-27.598-18.924-25.001,0-32.979,24.305-32.979,47.589,0,23.331,7.978,47.589,32.979,47.589,17.996,0,25.001-7.1431,28.154-23.423h52.46c0,34.973-28.387,66.653-79.13,66.653-56.077,0-87.895-39.566-87.895-90.823,0-54.594,34.463-90.772,87.895-90.772,47.589,0.23192,73.471,18.646,78.063,62.108h-51.949z"/>
  <path fill="#f25822" d="m-204.32-220.83c13.591,0,34.463-8.9986,34.463-47.589,0-38.591-20.872-47.589-34.463-47.589s-34.463,8.9986-34.463,47.589c0,38.591,20.872,47.589,34.463,47.589m0-138.36c52.692,0,87.895,37.849,87.895,90.772,0,52.924-35.205,90.823-87.895,90.823-52.692,0-87.852-37.896-87.852-90.823,0-52.924,35.159-90.772,87.852-90.772"/>
  <path fill="#f25822" d="m117.12-244.25c0,4.3601,0.74214,12.523,1.9018,15.678,3.8962,10.436,15.585,12.617,25.511,12.617,8.7664,0,22.125-2.9222,22.125-15.77,0-8.9986-7.5605-11.41-37.385-19.945-27.459-7.746-58.768-15.26-58.768-50.233,0-40.075,34.231-57.284,69.9-57.284,37.664,0,70.92,19.852,72.358,62.108h-50.511c0.97405-6.54-1.9481-16.466-6.3082-19.388-4.3601-3.1541-10.436-4.3601-15.77-4.3601-7.2822,0-19.157,1.9481-19.157,11.642,0.97405,12.384,25.697,15.028,50.233,21.847,24.536,6.8184,48.796,18.229,48.796,50.002,0,45.178-41.514,59.742-80.104,59.742-19.666,0-75.744-11.317-76.254-66.653h53.434z"/>
 </g>
</svg>
