<?xml version="1.0" encoding="UTF-8" standalone="no"?>
<!-- Created with Inkscape (http://www.inkscape.org/) -->
<svg xmlns:rdf="http://www.w3.org/1999/02/22-rdf-syntax-ns#" xmlns="http://www.w3.org/2000/svg" height="270.7" width="600" version="1.1" xmlns:cc="http://creativecommons.org/ns#" xmlns:dc="http://purl.org/dc/elements/1.1/">
 <defs></defs>
 <metadata>
  <rdf:RDF>
   <cc:Work rdf:about="">
    <dc:format>image/svg+xml</dc:format>
    <dc:type rdf:resource="http://purl.org/dc/dcmitype/StillImage"/>
    <dc:title/>
   </cc:Work>
  </rdf:RDF>
 </metadata>
 <g fill-rule="nonzero" transform="translate(292.1676,359.20137)">
  <path fill="#000" d="m212.58-296.97,13.925,0-4.0349,19.485,18.551,0,4.0841-19.485,13.876,0-11.12,53.487-13.925,0,4.5761-22.044-18.6,0-4.5761,22.044-13.925,0,11.17-53.487z"/>
  <path fill="#000" d="m263.96-296.97-11.344,53.438,23.938,0c21.158,0,31.281-14.212,31.281-30.844,0-16.435-10.133-22.594-23.812-22.594h-20.062zm11.344,11.969,8.0312,0c6.446,0,10.562,3.0898,10.562,11.75,0,6.9872-3.5383,17.75-15.594,17.75h-9.1875l6.1875-29.5z"/>
  <path fill="#000" d="m-55.02-126.63c0-12.422-6.3059-25.413-20.529-25.413-14.224,0-20.529,12.991-20.529,25.413,0,12.564,6.3059,25.556,20.529,25.556,14.224,0,20.529-12.991,20.529-25.556m-56.99,0c0-21.905,13.418-37.978,36.461-37.978s36.461,16.073,36.461,37.978c0,22.237-13.418,38.119-36.461,38.119s-36.461-15.884-36.461-38.119"/>
  <path fill="#000" d="m-32.969-162.68,17.306,0,18.301,55.473,0.28448,0,17.59-55.473,16.5,0-25.84,72.21-17.874,0l-26.266-72.21z"/>
  <path fill="#000" d="m100.27-126.63c0-12.422-6.2585-25.413-20.529-25.413-14.271,0-20.529,12.991-20.529,25.413,0,12.564,6.2585,25.556,20.529,25.556,14.271,0,20.529-12.991,20.529-25.556m-56.99,0c0-21.905,13.418-37.978,36.461-37.978s36.461,16.073,36.461,37.978c0,22.237-13.418,38.119-36.461,38.119s-36.461-15.884-36.461-38.119"/>
  <path fill="#000" d="m-188.36-136.31c0-19.818,11.711-29.443,31.293-29.443,19.723,0,31.198,9.5296,31.198,29.443v45.564h-16.12v-45.564c0-8.0127-2.0388-15.884-15.077-15.884-11.473,0-15.172,5.0258-15.172,15.884v45.564h-16.12v-45.564z"/>
  <path fill="#f25822" d="m5.4599-297.09c-0.94827-6.3059-5.4998-18.918-27.594-18.918-24.986,0-32.999,24.275-32.999,47.602,0,23.28,8.0127,47.555,32.999,47.555,17.969,0,25.034-7.1593,28.163-23.422h52.438c0,34.991-28.4,66.662-79.132,66.662-56.089,0-87.852-39.589-87.852-90.798,0-54.619,34.469-90.798,87.852-90.798,47.602,0.23706,73.442,18.633,78.089,62.11h-51.962z"/>
  <path fill="#f25822" d="m-204.32-220.83c13.608,0,34.469-9.008,34.469-47.602s-20.861-47.555-34.469-47.555-34.469,8.9611-34.469,47.555,20.861,47.602,34.469,47.602m0-138.35c52.676,0,87.904,37.835,87.904,90.746,0,52.96-35.228,90.798-87.904,90.798s-87.852-37.835-87.852-90.798c0-52.913,35.18-90.746,87.852-90.746"/>
  <path fill="#f25822" d="m117.1-244.25c0,4.362,0.71119,12.517,1.9439,15.646,3.8878,10.431,15.504,12.611,25.46,12.611,8.7716,0,22.094-2.8922,22.094-15.741,0-9.008-7.4912-11.427-37.361-19.913-27.446-7.7762-58.735-15.314-58.735-50.258,0-40.064,34.185-57.274,69.887-57.274,37.646,0,70.882,19.866,72.352,62.11h-50.494c0.99565-6.543-1.9439-16.5-6.3059-19.391-4.362-3.1766-10.431-4.362-15.789-4.362-7.2542,0-19.155,1.9439-19.155,11.616,0.94827,12.375,25.745,15.077,50.257,21.858,24.513,6.8274,48.788,18.206,48.788,50.021,0,45.137-41.533,59.693-80.127,59.693-19.629,0-75.718-11.284-76.24-66.614h53.434z"/>
 </g>
</svg>
