<svg xmlns="http://www.w3.org/2000/svg" viewBox="0 0 600 317.08"><g transform="translate(326.93 106.1)"><g fill="#fff"><path d="m-49.14 166.33c0-14.551-7.387-29.769-24.05-29.769-16.662 0-24.05 15.218-24.05 29.769 0 14.718 7.387 29.936 24.05 29.936 16.662 0 24.05-15.218 24.05-29.936m-66.758 0c0-25.659 15.718-44.487 42.71-44.487s42.71 18.828 42.71 44.487c0 26.05-15.718 44.653-42.71 44.653s-42.71-18.606-42.71-44.653"/><path d="m-23.305 124.1h20.272l21.438 64.981h.333l20.605-64.981h19.328l-30.27 84.59h-20.938l-30.769-84.59"/><path d="m132.77 166.33c0-14.551-7.331-29.769-24.05-29.769s-24.05 15.218-24.05 29.769c0 14.718 7.331 29.936 24.05 29.936s24.05-15.218 24.05-29.936m-66.758 0c0-25.659 15.718-44.487 42.71-44.487s42.71 18.828 42.71 44.487c0 26.05-15.718 44.653-42.71 44.653s-42.71-18.606-42.71-44.653"/><path d="m-205.33 154.99c0-23.22 13.718-34.49 36.656-34.49 23.1 0 36.545 11.163 36.545 34.49v53.37h-18.883v-53.37c0-9.386-2.388-18.606-17.661-18.606-13.44 0-17.773 5.887-17.773 18.606v53.37h-18.883v-53.37"/></g><g fill="#f25822"><path d="m21.71-33.35c-1.111-7.387-6.442-22.16-32.32-22.16-29.27 0-38.655 28.436-38.655 55.761 0 27.27 9.386 55.706 38.655 55.706 21.05 0 29.325-8.386 32.99-27.436h61.43c0 40.988-33.27 78.09-92.69 78.09-65.7 0-102.91-46.37-102.91-106.36 0-63.981 40.38-106.36 102.91-106.36 55.761.278 86.03 21.827 91.47 72.76h-60.871z"/><path d="m-224.02 55.975c15.94 0 40.38-10.552 40.38-55.761s-24.437-55.706-40.38-55.706-40.38 10.497-40.38 55.706 24.437 55.761 40.38 55.761m0-162.06c61.704 0 102.97 44.32 102.97 106.3 0 62.04-41.27 106.36-102.97 106.36s-102.91-44.32-102.91-106.36c0-61.982 41.21-106.3 102.91-106.3"/><path d="m152.49 28.539c0 5.11.833 14.662 2.277 18.328 4.554 12.219 18.16 14.773 29.824 14.773 10.275 0 25.881-3.388 25.881-18.439 0-10.552-8.775-13.385-43.765-23.326-32.15-9.109-68.802-17.939-68.802-58.872 0-46.931 40.04-67.09 81.86-67.09 44.1 0 83.03 23.271 84.75 72.76h-59.15c1.166-7.664-2.277-19.328-7.387-22.715-5.11-3.721-12.219-5.11-18.495-5.11-8.498 0-22.438 2.277-22.438 13.607 1.111 14.496 30.16 17.661 58.871 25.604 28.714 7.998 57.15 21.327 57.15 58.59 0 52.873-48.652 69.924-93.86 69.924-22.993 0-88.7-13.218-89.31-78.03h62.59z"/></g></g></svg>