<svg xmlns="http://www.w3.org/2000/svg" enable-background="new 0 0 155 45" height="155.62" viewBox="0 0 600 155.62296"><g fill="#fff"><path d="m316.68 10.804c-17.97 0-35.59 7.186-48.53 19.766-13.12 12.756-20.12 29.29-20.12 47.624 0 20.664 8.81 38.986 24.98 51.926 12.41 9.88 28.04 15.46 43.67 15.46 17.97 0 35.58-7.02 48.7-19.78 12.93-12.58 19.94-29.28 19.94-47.606 0-18.15-6.83-34.868-19.95-47.624-12.94-12.576-30.72-19.766-48.69-19.766m0 29.648c19.58 0 33.6 16.898 33.6 37.742 0 21.02-13.66 37.726-33.6 37.736-20.49 0-33.6-16.532-33.6-37.736 0-21.02 13.83-37.742 33.6-37.742"/><path d="m394.97 13.68h35.87l-.04 95.81 43.43.07v32.6h-79.26v-128.48"/><path d="m471.38 13.48h62.52v20.848h-20.45v107.83h-21.02v-107.83l-21.05-.002v-20.848z"/><path d="m562.7 88.93l6.32-30.887 10.57-44.568h20.41l-28.37 128.57h-17.79l8.86-53.12z"/><path d="m556.44 58.11l6.25 30.819 9.05 53.12h-17.9l-28.42-128.57 20.42-.004 10.6 44.636"/></g><path fill="#e4262d" d="M 0,0 H126.57 V155.62 H0 z"/><path fill="#144f9b" d="m119.64 0h119.74v155.62h-119.74z"/></svg>