<svg xmlns="http://www.w3.org/2000/svg" height="616.14" width="600" viewBox="0 0 158.75 163.02066"><defs><radialGradient id="0" gradientUnits="userSpaceOnUse" cy="0" cx="0" gradientTransform="matrix(41.816 0 0 41.817 98.96 76.83)" r="1"><stop stop-color="#5e72b3"/><stop stop-color="#00489c" offset=".883"/><stop stop-color="#00479b" offset="1"/></radialGradient><radialGradient id="1" gradientUnits="userSpaceOnUse" cy="41.32" cx="74.35" r="24.07"><stop stop-color="#f09173"/><stop stop-color="#e73022" offset="1"/></radialGradient></defs><g transform="translate(-8.479 6.838)"><g fill="#00479a"><path d="m24.2 142.79c0 2.53-.697 4.57-2.079 6.1-1.417 1.59-3.348 2.38-5.781 2.38-2.456 0-4.387-.79-5.803-2.38-1.371-1.53-2.057-3.57-2.057-6.1 0-2.46.685-4.47 2.057-6.03 1.428-1.6 3.364-2.4 5.803-2.4 2.422 0 4.347.8 5.781 2.4 1.382 1.56 2.079 3.57 2.079 6.03m-2.491 0c0-1.78-.451-3.25-1.348-4.43-.977-1.29-2.319-1.94-4.02-1.94-1.725 0-3.073.65-4.04 1.94-.903 1.18-1.348 2.65-1.348 4.43 0 1.79.423 3.27 1.279 4.44.96 1.31 2.331 1.96 4.113 1.96 1.765 0 3.13-.65 4.09-1.96.851-1.17 1.279-2.65 1.279-4.44"/><path d="m44.46 150.97h-2.217v-7.13c0-2.2-.708-3.31-2.124-3.31-1.051 0-1.851.46-2.399 1.37-.492.81-.732 1.83-.732 3.06v6.01h-2.193v-7.13c0-2.2-.708-3.31-2.125-3.31-1.051 0-1.862.46-2.422 1.37-.491.81-.731 1.83-.731 3.06v6.01h-2.193v-11.92h2.056v1.71h.046c.822-1.34 2.085-2.01 3.793-2.01 1.656 0 2.793.78 3.404 2.33.365-.78.942-1.38 1.736-1.81.652-.34 1.303-.52 1.942-.52 2.771 0 4.159 1.52 4.159 4.57z"/><path d="m54.881 140.87c-.337-.13-.742-.2-1.211-.2-.994 0-1.782.44-2.376 1.32-.594.87-.891 2.05-.891 3.55v5.43h-2.193v-11.92h2.056v1.82h.046c.302-.62.736-1.13 1.302-1.53.577-.39 1.188-.59 1.828-.59.411 0 .891.06 1.439.16z"/><path d="m68.69 145.01c0 1.74-.565 3.2-1.691 4.39-1.159 1.25-2.616 1.87-4.364 1.87-1.782 0-3.255-.62-4.409-1.87-1.131-1.19-1.691-2.65-1.691-4.39 0-1.83.56-3.32 1.691-4.5 1.125-1.17 2.593-1.76 4.409-1.76 1.794 0 3.251.59 4.364 1.76 1.126 1.18 1.691 2.67 1.691 4.5m-2.353 0c0-1.2-.331-2.23-.983-3.08-.702-.93-1.61-1.4-2.719-1.4-1.142 0-2.067.47-2.764 1.4-.657.85-.983 1.88-.983 3.08 0 1.19.297 2.19.892 3.02.685.96 1.633 1.44 2.855 1.44 1.189 0 2.125-.48 2.811-1.44.594-.83.891-1.83.891-3.02"/><path d="m83.03 144.78c0 1.82-.405 3.3-1.211 4.46-.931 1.36-2.233 2.03-3.907 2.03-1.873 0-3.21-.65-3.998-1.94h-.046v6.56h-2.193v-16.84h2.102v1.66h.046c.868-1.3 2.222-1.96 4.067-1.96 1.645 0 2.93.61 3.861 1.83.851 1.09 1.279 2.5 1.279 4.2m-2.353.18c0-1.21-.246-2.22-.731-3.03-.583-.93-1.428-1.4-2.536-1.4-1.131 0-2.01.48-2.651 1.42-.594.84-.891 1.87-.891 3.08 0 1.14.28 2.14.846 2.97.639.98 1.53 1.47 2.673 1.47 1.079 0 1.925-.52 2.536-1.56.503-.85.754-1.83.754-2.95"/><path d="m92.56 150.97v-16.33h9.09v2.58h-5.805v4.02h5.505v2.56h-5.505v7.17z"/><path d="m104.08 150.97v-12.06h2.79v2.74h.04c.08-.65.42-1.29 1.01-1.92.67-.73 1.43-1.09 2.28-1.09.43 0 .75.03.96.09v3.15c-.29-.17-.75-.25-1.39-.25-1.11 0-1.86.6-2.24 1.8-.22.69-.32 1.73-.32 3.11v4.43z"/><path d="m115.24 138.91l2.9 8.8h.05l2.9-8.8h3.18l-4.5 11.97c-.72 1.9-1.28 3.12-1.67 3.66-.8 1.09-1.91 1.64-3.34 1.64-.73 0-1.48-.11-2.24-.34l.21-2.31c.41.14.95.21 1.62.21.62 0 1.12-.2 1.49-.6.36-.38.54-.9.54-1.55l-4.59-12.68z"/><path d="m133.54 139.09l-.2 2.36c-1.01-.35-1.95-.53-2.81-.53-1.24 0-1.85.45-1.85 1.35 0 .49.46.88 1.41 1.19 1.4.45 2.28.81 2.63 1.05.94.63 1.42 1.56 1.42 2.81 0 1.31-.53 2.32-1.58 3.01-.9.63-2.06.94-3.47.94-1.09 0-2.28-.18-3.57-.53l.19-2.58c1.06.54 2.1.8 3.1.8.51 0 .94-.09 1.33-.29.48-.26.73-.66.73-1.19 0-.63-.48-1.09-1.42-1.4-1.55-.53-2.43-.85-2.63-.98-.94-.56-1.41-1.47-1.41-2.72 0-1.21.48-2.17 1.44-2.85.85-.6 1.95-.89 3.29-.89.89 0 2.03.15 3.4.45"/><path d="m136.67 150.97v-17.54h3.13v17.54z"/><path d="m143.77 142.25l-.12-2.7c1.33-.61 2.73-.91 4.2-.91 1.83 0 3.15.4 3.96 1.21.82.79 1.23 2.08 1.23 3.86v1.55c0 .81.001 1.82.05 3.02.03.84.07 1.73.13 2.69h-2.76c-.02-.15-.06-.75-.14-1.8h-.04c-.36.64-.89 1.15-1.6 1.53-.68.38-1.38.57-2.13.57-1.13 0-2.09-.32-2.9-.96-.87-.67-1.3-1.55-1.3-2.65 0-1.61.68-2.75 2.05-3.43.96-.47 2.31-.71 4.05-.71h1.74c0-.94-.23-1.62-.67-2.03-.41-.38-1.09-.57-2.05-.57-1.33 0-2.56.45-3.7 1.33m1.57 5.23c0 .99.66 1.48 1.99 1.48 1.24 0 2.11-.57 2.58-1.73.18-.49.28-1.1.28-1.83h-1.35c-2.33 0-3.5.7-3.5 2.08m1.21-13.62h2.38l2.44 3.43h-2.08l-1.57-2.01-1.65 2.01h-2.1z"/><path d="m156.17 150.97v-12.06h2.97v1.64h.05c.91-1.28 2.22-1.91 3.95-1.91 1.37 0 2.41.45 3.13 1.34.64.83.96 1.96.96 3.38v7.61h-3.13v-6.44c0-1.05-.09-1.81-.25-2.28-.31-.78-.9-1.17-1.78-1.17-1.01 0-1.76.47-2.24 1.42-.36.7-.53 1.56-.53 2.58v5.89z"/></g><path d="m140.1 93.99c-2.24 3.324-4.82 6.45-7.66 9.29s-5.96 5.42-9.29 7.66c-3.35 2.27-6.94 4.22-10.66 5.79-7.74 3.28-15.968 4.94-24.441 4.94s-16.695-1.66-24.436-4.94c-3.722-1.57-7.31-3.52-10.667-5.79-3.322-2.24-6.449-4.82-9.287-7.66-2.841-2.84-5.418-5.966-7.664-9.29-2.266-3.354-4.214-6.944-5.789-10.666-3.274-7.742-4.935-15.963-4.935-24.436 0-8.474 1.661-16.696 4.935-24.439 1.575-3.72 3.523-7.31 5.789-10.666 2.246-3.322 4.823-6.447 7.664-9.287 2.838-2.839 5.965-5.417 9.287-7.663 3.357-2.266 6.945-4.214 10.667-5.788 7.741-3.276 15.963-4.937 24.436-4.937s16.701 1.661 24.441 4.937c3.72 1.573 7.31 3.521 10.66 5.788 3.33 2.246 6.45 4.824 9.29 7.663 2.84 2.84 5.42 5.965 7.66 9.287 2.27 3.356 4.22 6.946 5.79 10.666 3.28 7.743 4.94 15.965 4.94 24.439 0 8.473-1.66 16.694-4.94 24.436-1.57 3.722-3.52 7.312-5.79 10.666m-52.05-100.83c-36.3 0-65.724 29.427-65.724 65.726 0 36.3 29.425 65.722 65.724 65.722 36.3 0 65.73-29.427 65.73-65.722 0-36.3-29.43-65.726-65.73-65.726" fill="#00479b"/><path fill="url(#0)" d="m30.02 58.887c0 32.05 25.98 58.03 58.03 58.03 32.05 0 58.03-25.987 58.03-58.03 0-32.05-25.98-58.03-58.03-58.03-32.05 0-58.03 25.982-58.03 58.03m15.498-7.634c0-26.01 21.09-47.1 47.1-47.1 26.01 0 47.1 21.09 47.1 47.1 0 26.02-21.09 47.1-47.1 47.1-26.01 0-47.1-21.09-47.1-47.1"/><g fill="#fff"><path d="m88.05 116.92c-32.05 0-58.03-25.985-58.03-58.03 0-32.05 25.982-58.03 58.03-58.03 32.05 0 58.03 25.982 58.03 58.03 0 32.05-25.98 58.03-58.03 58.03m57.84-82.47c-1.57-3.721-3.52-7.309-5.79-10.665-2.24-3.324-4.82-6.449-7.66-9.289s-5.96-5.418-9.29-7.662c-3.35-2.268-6.94-4.214-10.66-5.789-7.75-3.276-15.968-4.937-24.44-4.937-8.474 0-16.695 1.661-24.437 4.937-3.723 1.575-7.31 3.521-10.668 5.789-3.322 2.245-6.447 4.822-9.286 7.662-2.84 2.84-5.419 5.965-7.664 9.289-2.268 3.356-4.216 6.944-5.789 10.665-3.274 7.743-4.935 15.964-4.935 24.438s1.661 16.695 4.935 24.438c1.573 3.72 3.521 7.31 5.789 10.664 2.245 3.324 4.824 6.45 7.664 9.29 2.839 2.84 5.964 5.42 9.286 7.66 3.358 2.27 6.945 4.22 10.668 5.79 7.742 3.28 15.965 4.94 24.437 4.94s16.69-1.66 24.44-4.94c3.72-1.57 7.31-3.52 10.66-5.79 3.33-2.24 6.45-4.82 9.29-7.66s5.42-5.966 7.66-9.29c2.27-3.354 4.22-6.944 5.79-10.664 3.28-7.743 4.94-15.964 4.94-24.438s-1.66-16.695-4.94-24.438"/><path d="m112.97 78.32c-7.5 5.903-21.623 13.12-36.13 5.05-15.02-8.366-20.466-21.11-17.457-36.13 2.02-7.987 6.01-13.501 12.01-16.01 5.02-2.512 9.994-2.02 15.03.994 4.972 2.999 6.496 9.01 4.526 18.564-.547 1.475-.547 2.458.446 2.995.54.494 2.02 0 3.052-1.028 7.48-6.497 13.49-7.984 18.02-5.518 5.02 3 7.98 7.04 8.52 12.551.49 6.999-2.02 13.01-8.02 18.524m-20.352-74.17c-26.01 0-47.1 21.09-47.1 47.1 0 26.01 21.09 47.1 47.1 47.1 26.01 0 47.1-21.09 47.1-47.1 0-26.01-21.09-47.1-47.1-47.1"/><path d="m112.47 47.25c-4.53-2.466-10.54-.979-18.02 5.518-1.034 1.028-2.512 1.523-3.052 1.028-.993-.537-.993-1.52-.446-2.995 1.97-9.555.446-15.565-4.527-18.565-5.03-3.01-10-3.505-15.03-.993-6 2.508-9.996 8.02-12.01 16.01-3.01 15.02 2.436 27.763 17.456 36.13 14.504 8.07 28.627.847 36.13-5.06 6-5.513 8.51-11.525 8.02-18.524-.54-5.51-3.5-9.55-8.52-12.551"/></g><path fill="url(#1)" d="m71.4 31.24c-6 2.505-9.996 8.02-12.01 16.01-3.01 15.02 2.437 27.763 17.458 36.13 14.503 8.07 28.627.847 36.13-5.06 6-5.513 8.51-11.526 8.02-18.524-.53-5.51-3.5-9.549-8.52-12.551-4.53-2.467-10.54-.981-18.02 5.517-1.034 1.028-2.512 1.524-3.051 1.028-.993-.536-.993-1.519-.446-2.995 1.969-9.554.446-15.564-4.526-18.563-2.854-1.707-5.687-2.606-8.522-2.606-2.164 0-4.331.525-6.506 1.613"/></g></svg>