<svg xmlns="http://www.w3.org/2000/svg" height="188.61" width="600" viewBox="0 0 480 150.88822"><path fill="#e2001a" d="m150.89 142.04c0 4.881-3.963 8.844-8.844 8.844h-133.2c-4.887.001-8.85-3.95-8.85-8.84v-133.2c0-4.881 3.963-8.844 8.844-8.844h133.2c4.881 0 8.844 3.963 8.844 8.844v133.2z"/><g fill="#fff"><path d="m248.47 22.875c-5.18 0-9.63.855-13.41 2.563-3.78 1.707-6.88 4.105-9.34 7.156-2.44 3.078-4.27 6.67-5.47 10.812-1.2 4.115-1.78 8.596-1.78 13.438 0 4.702.57 9.02 1.72 12.937 1.12 3.891 2.83 7.201 5.12 10 2.33 2.771 5.29 4.93 8.78 6.469 3.53 1.539 7.69 2.312 12.53 2.312 4.79 0 9.03-.779 12.69-2.374 3.67-1.568 6.73-3.815 9.22-6.782s4.37-6.552 5.66-10.75c1.28-4.198 1.97-8.922 1.97-14.156 0-4.394-.53-8.481-1.6-12.344-1.09-3.834-2.76-7.176-5.03-10.03-2.24-2.883-5.09-5.13-8.56-6.781-3.5-1.652-7.66-2.469-12.5-2.469m-.59 9.375c2.91 0 5.43.568 7.56 1.688 2.12 1.147 3.88 2.706 5.31 4.75 1.4 2.043 2.48 4.485 3.16 7.312.67 2.827 1 6 1 9.5 0 3.415-.34 6.558-1.07 9.469-.7 2.883-1.79 5.397-3.28 7.469-1.48 2.099-3.32 3.758-5.56 4.906-2.21 1.175-4.86 1.75-7.91 1.75-5.54 0-9.82-2.032-12.84-6.06-3.05-4.03-4.56-9.701-4.56-17.06 0-3.303.36-6.395 1.06-9.25.7-2.883 1.83-5.376 3.34-7.531 1.54-2.156 3.42-3.891 5.69-5.094 2.3-1.232 4.99-1.844 8.1-1.844" transform="scale(.8)"/><path d="m228.26 69.932l4.254-50.692h11.845l12.539 41.09 12.382-41.09h11.777l4.254 50.692h-8.911l-2.553-40.863-12.382 40.863h-9.74l-12.404-40.863-2.62 40.863h-8.441"/><g transform="scale(.8)"><path d="m370.38 24.03v63.38h10.65v-24.281h5.88c.89 0 1.71-.038 2.47-.094.72-.056 1.34-.131 1.87-.187l11.34 24.562h12.5l-13.84-27.19c4.09-1.819 7.1-4.313 9.03-7.531 1.9-3.219 2.88-6.794 2.88-10.657 0-5.485-1.72-9.85-5.22-13.12-3.47-3.246-8.43-4.875-14.82-4.875h-22.74m10.65 9.188h10.22c3.08 0 5.61.845 7.63 2.469 2.04 1.651 3.06 4.01 3.06 7.03 0 1.875-.33 3.507-1 4.906-.67 1.371-1.65 2.545-2.88 3.469-1.23.923-2.62 1.649-4.22 2.125-1.62.476-3.3.719-5.12.719h-7.69v-20.719"/><path d="m450.69 22.875c-5.18 0-9.63.855-13.41 2.563-3.78 1.707-6.88 4.105-9.34 7.156-2.44 3.078-4.24 6.67-5.44 10.812-1.2 4.115-1.81 8.596-1.81 13.438 0 4.702.57 9.02 1.72 12.937 1.12 3.891 2.86 7.201 5.15 10 2.33 2.771 5.25 4.93 8.75 6.469 3.53 1.539 7.69 2.312 12.53 2.312 4.79 0 9.02-.779 12.69-2.374 3.67-1.568 6.76-3.815 9.25-6.782s4.34-6.552 5.63-10.75c1.28-4.198 1.97-8.922 1.97-14.156 0-4.394-.57-8.481-1.63-12.344-1.06-3.834-2.7-7.176-4.97-10.03-2.24-2.883-5.12-5.13-8.59-6.781-3.5-1.652-7.66-2.469-12.5-2.469m-.57 9.375c2.92 0 5.41.568 7.54 1.688 2.12 1.147 3.91 2.706 5.34 4.75 1.4 2.043 2.45 4.485 3.12 7.312.68 2.827 1 6 1 9.5 0 3.415-.33 6.558-1.06 9.469-.7 2.883-1.8 5.397-3.28 7.469-1.48 2.099-3.32 3.758-5.56 4.906-2.21 1.175-4.83 1.75-7.88 1.75-5.54 0-9.85-2.032-12.87-6.06-3.05-4.03-4.56-9.701-4.56-17.06 0-3.303.36-6.395 1.06-9.25.7-2.883 1.83-5.376 3.34-7.531 1.51-2.156 3.43-3.891 5.72-5.094 2.3-1.232 4.99-1.844 8.09-1.844"/></g><path d="m391.67 19.23h30.03v7.501h-21.517v13.636h20.13v7.344h-20.13v14.643h21.517v7.568h-30.03v-50.692"/><g transform="scale(.8)"><path d="m540.09 24.03v63.41h10.66v-22.09h8.5c3.89 0 7.28-.53 10.22-1.594s5.38-2.538 7.31-4.469 3.37-4.247 4.34-6.906c.96-2.631 1.44-5.525 1.44-8.687 0-2.967-.37-5.659-1.18-8.094-.82-2.407-2.08-4.48-3.79-6.188-1.7-1.707-3.86-3.02-6.4-3.968-2.55-.924-5.56-1.407-9.03-1.407h-22.07m10.66 9.219h10c3.27 0 5.88.906 7.78 2.781s2.81 4.633 2.81 8.188c0 3.946-1.13 6.95-3.37 8.937-2.24 2.02-5.26 3-9.13 3h-8.09v-22.906"/><path d="m223.03 102.38v63.37h19.91c6.88 0 12.34-1.63 16.34-4.84 4-3.25 6-8.04 6-14.5 0-1.74-.21-3.44-.69-5.07-.5-1.59-1.23-3.06-2.18-4.37-.98-1.32-2.21-2.45-3.69-3.31-1.48-.87-3.24-1.45-5.31-1.78v-.29c3.1-1.09 5.48-2.76 7.25-5.03 1.73-2.24 2.62-5.36 2.62-9.31 0-2.52-.44-4.69-1.31-6.56-.87-1.88-2.13-3.43-3.75-4.66-1.62-1.2-3.51-2.13-5.69-2.75-2.18-.61-4.66-.9-7.37-.9h-22.13m10.63 8.9h9.5c2.71 0 4.83.7 6.37 2.13 1.54 1.42 2.31 3.39 2.31 5.97 0 3.05-1.01 5.34-3 6.93-2.01 1.57-4.38 2.38-7.15 2.38h-8.03v-17.41m0 26.1h10.15c3.11 0 5.56.8 7.38 2.34 1.79 1.57 2.72 3.7 2.72 6.47 0 3.66-1.01 6.34-2.97 7.97-1.96 1.59-4.64 2.4-8 2.4h-9.28v-19.18"/><path d="m277.31 102.38v63.37h10.63v-24.31h5.87c.9 0 1.72-.001 2.47-.06.73-.06 1.34-.17 1.88-.22l11.37 24.59h12.47l-13.81-27.19c4.08-1.82 7.07-4.34 9-7.56s2.87-6.76 2.87-10.62c0-5.49-1.72-9.86-5.22-13.13-3.47-3.25-8.43-4.87-14.81-4.87h-22.72m10.63 9.18h10.22c3.07 0 5.64.85 7.65 2.47 2.05 1.65 3.03 3.98 3.03 7 0 1.88-.32 3.51-1 4.91-.67 1.37-1.61 2.54-2.84 3.47-1.23.92-2.65 1.65-4.25 2.12-1.62.48-3.31.75-5.13.75h-7.68v-20.72"/><path d="m344.53 102.38l-21.44 63.37h11.79l4.56-15.19h22.31l4.66 15.19h12l-21.57-63.37h-12.31m5.91 11.4l8.62 27.88h-17.03l8.41-27.88"/><path d="m385.09 102.38v63.37h19.94c6.89 0 12.34-1.63 16.35-4.84 4-3.25 6-8.04 6-14.5 0-1.74-.25-3.44-.72-5.07-.51-1.59-1.24-3.06-2.19-4.37-.98-1.32-2.21-2.45-3.69-3.31-1.48-.87-3.24-1.45-5.31-1.78v-.29c3.11-1.09 5.52-2.76 7.28-5.03 1.74-2.24 2.59-5.36 2.59-9.31 0-2.52-.44-4.69-1.31-6.56-.87-1.88-2.09-3.43-3.72-4.66-1.62-1.2-3.51-2.13-5.72-2.75-2.18-.61-4.63-.9-7.34-.9h-22.16m10.63 8.9h9.5c2.71 0 4.83.7 6.37 2.13 1.54 1.42 2.35 3.39 2.35 5.97 0 3.05-1.02 5.34-3 6.93-2.02 1.57-4.39 2.38-7.16 2.38h-8.06v-17.41m0 26.1h10.19c3.1 0 5.52.8 7.34 2.34 1.79 1.57 2.72 3.7 2.72 6.47 0 3.66-1.01 6.34-2.97 7.97-1.96 1.59-4.61 2.4-7.97 2.4h-9.31v-19.18"/><path d="m451.75 102.38l-21.47 63.37h11.78l4.56-15.19h22.35l4.65 15.19h12l-21.59-63.37h-12.28m5.91 11.4l8.62 27.88h-17.03l8.41-27.88"/></g><path d="m403.75 81.893l23.376 38.467v-38.467h8.06v50.692h-10.143l-23.15-38.06v38.06h-8.06v-50.692h9.919"/><path d="m465.13 132.6h-8.508v-43.12h-14.867v-7.568h38.24v7.568h-14.867v43.12"/></g><path fill="#ffd300" d="m75.36 141.18c-36.25 0-65.739-29.488-65.739-65.716 0-36.25 29.488-65.739 65.739-65.739 36.25 0 65.739 29.488 65.739 65.739 0 36.23-29.488 65.716-65.739 65.716"/><path fill="#fff" d="m75.36 14.88c-33.407 0-60.57 27.18-60.57 60.57 0 33.407 27.16 60.57 60.57 60.57 33.407 0 60.57-27.16 60.57-60.57 0-33.384-27.16-60.57-60.57-60.57m0-10.322c39.16 0 70.889 31.75 70.889 70.889 0 39.16-31.727 70.889-70.889 70.889-39.16 0-70.889-31.727-70.889-70.889 0-39.14 31.727-70.889 70.889-70.889"/><path d="m66.03 46.03v96.56h31.563c11.506 0 20.356-2.49 26.596-7.5s9.37-12.54 9.37-22.56c0-2.46-.36-4.9-1.03-7.31-.7-2.41-1.76-4.57-3.15-6.532-1.43-1.988-3.31-3.626-5.63-4.969-2.3-1.316-5.07-2.243-8.31-2.719v-.438c4.7-1.679 8.4-4.207 11.06-7.593 2.66-3.415 3.97-8.06 3.97-13.938 0-3.946-.69-7.367-2-10.25-1.34-2.911-3.19-5.281-5.66-7.156-2.46-1.875-5.36-3.264-8.72-4.187-3.33-.924-7.07-1.407-11.18-1.407h-36.879m19.313 15.781h12.687c3.639 0 6.449 1.017 8.469 3.03s3.03 4.713 3.03 8.156c0 3.722-1.3 6.726-3.84 8.938-2.55 2.211-5.65 3.312-9.284 3.312h-11.06v-23.438m0 38.748h13.875c4.421 0 7.771 1.14 10.09 3.35 2.33 2.24 3.47 5.06 3.47 8.53 0 4.73-1.3 8.26-3.84 10.53-2.55 2.27-6.05 3.41-10.471 3.41h-13.12v-25.82" transform="scale(.8)"/></svg>