<svg xmlns="http://www.w3.org/2000/svg" viewBox="0 0 600 279.26"><g transform="matrix(.39127 0 0 .39127 378.47 148.19)" fill="#0090c9"><g transform="matrix(1.19957 0 0 1.19957-1057.35-382.13)"><path d="m372.57 533.41c-128.71 0-233.05-104.34-233.05-233.05s104.34-233.05 233.05-233.05 233.05 104.34 233.05 233.05-104.34 233.05-233.05 233.05m0-530.6c-164.3 0-297.5 133.19-297.5 297.5 0 164.3 133.2 297.49 297.5 297.49s297.5-133.19 297.5-297.49c0-164.31-133.2-297.5-297.5-297.5"/><path d="m453.11 379.74h-109.83l121.16-145.02c10.857-13.425 14.756-27.724 11.588-42.46-4.254-20.267-18.205-31.882-38.29-31.882h-136.9c-15.562 0-26.426 12.455-26.426 30.3 0 18.09 10.372 29.779 26.426 29.779h102.09l-124.01 148.6-.15.184c-7.06 9.341-11.12 20.622-11.12 30.947 0 23.64 16.778 40.15 40.8 40.15h144.65c15.323 0 24.467-11.328 24.467-30.3 0-19.256-8.918-30.3-24.467-30.3"/></g><g transform="matrix(1.22988 0 0 1.22988-260.68-1018.88)"><path d="m114.36 684.6c18.41 0 29.02 11.212 29.02 36.444 0 25.621-10.611 36.635-29.02 36.635-18.423 0-29.03-11.01-29.03-36.635 0-25.23 10.611-36.444 29.03-36.444m0 84.69c26.02 0 42.04-15.419 42.04-48.25 0-32.838-16.02-48.05-42.04-48.05-25.832 0-42.05 15.214-42.05 48.05 0 32.831 16.218 48.25 42.05 48.25"/><path d="m251.29 761.88v-53.45c0-14.818 7.812-24.02 25.03-24.02 19.413 0 25.03 10.81 25.03 26.624v50.852c0 3.605 2.793 6.412 6.405 6.412 3.599 0 6.405-2.807 6.405-6.412v-53.45c0-17.02-7.01-35.44-37.837-35.44-15.426 0-24.23 6.207-29.24 14.02-4.8-8.01-15.412-14.02-31.828-14.02-13.02 0-22.623 6.617-26.03 14.02v-6.405c0-3.605-2.806-6.412-6.398-6.412-3.612 0-6.412 2.807-6.412 6.412v81.28c0 3.605 2.8 6.412 6.412 6.412 3.592 0 6.398-2.807 6.398-6.412v-49.45c0-16.825 6.02-28.03 24.624-28.03 19.625 0 24.637 10.81 24.637 26.624v50.852c0 3.605 2.793 6.412 6.392 6.412 3.612 0 6.412-2.807 6.412-6.412"/><path d="m378.83 673.38c-13.828 0-23.825 6.815-27.833 16.03v-8.816c0-3.605-2.807-6.405-6.405-6.405-3.605 0-6.412 2.8-6.412 6.405v81.28c0 3.612 2.807 6.419 6.412 6.419 3.599 0 6.405-2.807 6.405-6.419v-44.843c0-18.416 9.41-31.23 27.833-31.23 3.394 0 6.2-2.8 6.2-6.2 0-3.407-2.807-6.214-6.2-6.214"/><path d="m435.08 757.67c-18.416 0-29.04-11.01-29.04-36.635 0-25.23 10.618-36.444 29.04-36.444 18.423 0 29.03 11.212 29.03 36.444 0 25.621-10.605 36.635-29.03 36.635m0-84.69c-25.832 0-42.04 15.214-42.04 48.05 0 32.831 16.204 48.25 42.04 48.25 26.02 0 42.05-15.419 42.05-48.25 0-32.838-16.03-48.05-42.05-48.05"/><path d="m504.15 713.63c1.195-17.816 10.803-29.03 28.22-29.03 20.629 0 25.634 14.613 25.634 29.03h-53.856m28.22-40.643c-26.02 0-41.24 17.221-41.24 48.06 0 33.63 16.621 48.24 43.25 48.24 17.809 0 28.23-8.201 31.23-11.206 1.209-1.209 2.199-2.404 2.199-4.609 0-3.196-2.595-5.811-5.791-5.811-1.605 0-2.41.403-3.612 1.209-5.606 4.199-12.414 8.604-24.02 8.604-18.826 0-30.23-12.81-30.23-32.633h58.46c8 0 8-7.01 8-12.81 0-13.616-6.207-39.04-38.24-39.04"/><path d="m630.07 684.6c18.41 0 29.23 11.417 29.23 36.444 0 25.02-10.407 36.635-28.83 36.635-15.617 0-27.628-10.81-27.628-36.635 0-26.03 12.414-36.444 27.23-36.444m-33.24 122.33c3.414 0 6.419-3 6.419-6.398v-45.25c4.199 6.808 13.807 14.01 27.22 14.01 26.03 0 41.852-15.419 41.852-48.25 0-32.838-15.822-48.05-41.852-48.05-13.411 0-23.415 7.211-27.22 14.01v-6.405c0-3.605-3-6.412-6.419-6.412-3.394 0-6.398 2.807-6.398 6.412v119.94c0 3.394 3 6.398 6.398 6.398"/><path d="m140 927.82h-40.875l46.666-64.1c.895-1.181 1.96-3.121 1.96-5.64 0-4.903-3.844-8.747-8.747-8.747h-54.86c-4.896 0-8.734 3.844-8.734 8.747 0 4.896 3.838 8.74 8.734 8.74h37.659l-47.2 64.43c-1.345 1.687-2 3.551-2 5.702 0 4.91 3.838 8.754 8.734 8.754h58.664c4.937 0 8.945-4.02 8.945-8.945 0-4.923-4.01-8.938-8.945-8.938"/><path d="m199.86 863.61c14.593 0 22.08 7.716 22.828 23.565h-48.04c1.946-15.228 10.823-23.565 25.22-23.565m40.978 24.699c0-6.979-1.98-41.77-40.978-41.77-27.949 0-43.976 18.505-43.976 50.777 0 42.14 25.01 50.982 45.983 50.982 20.14 0 31.16-10.01 33.16-12.02 1.052-1.045 2.998-2.998 2.998-6.521 0-4.718-3.824-8.543-8.529-8.543-2.431 0-3.762.751-5.244 1.741-5.449 4.083-11.656 8.06-22.384 8.06-16.11 0-26.426-10.332-27.416-27.17h55.639c10.748 0 10.748-10.11 10.748-15.542"/><path d="m293.15 863.61c14.593 0 22.08 7.716 22.828 23.565h-48.05c1.953-15.228 10.83-23.565 25.22-23.565m40.964 24.699c0-6.979-1.967-41.77-40.964-41.77-27.949 0-43.982 18.505-43.982 50.777 0 42.14 25.01 50.982 45.976 50.982 20.17 0 31.17-10.01 33.17-12.02 1.052-1.045 2.998-3 2.998-6.521 0-4.718-3.824-8.543-8.536-8.543-2.431 0-3.756.751-5.238 1.741-5.442 4.083-11.656 8.06-22.397 8.06-16.1 0-26.413-10.332-27.416-27.17h55.652c10.734 0 10.734-10.11 10.734-15.542"/><path d="m372.03 929.82c-2.096 0-5.272 0-5.272-8.679v-114.32c0-5.04-4.104-9.136-9.15-9.136-4.951 0-9.13 4.179-9.13 9.136v114.32c0 16.866 8.358 26.16 23.552 26.16 4.814 0 8.74-3.92 8.74-8.74 0-4.814-3.926-8.74-8.74-8.74"/><path d="m423.88 902.65h25.491v5.674c0 15.815-12.401 22.896-24.692 22.896-13.336 0-20.09-4.807-20.09-14.292 0-12.428 12.09-14.278 19.291-14.278m4.602-56.12c-21.462 0-31.486 10.693-35.59 17.14-.635 1.086-1.379 2.609-1.379 4.807 0 4.712 3.831 8.543 8.536 8.543 2.738 0 4.841-1.065 7.265-3.728 5.989-6.767 11.718-9.287 21.17-9.287 13.09 0 20.888 7.218 20.888 19.291v2.67h-25.491c-23.306 0-37.775 11.861-37.775 30.96 0 19.646 13.971 31.37 37.37 31.37 10.441 0 19.728-3.414 25.928-9.232.362 4.602 4.22 8.228 8.904 8.228 4.93 0 8.945-4.01 8.945-8.938v-55.06c0-22.677-14.859-36.765-38.772-36.765"/><path d="m527.99 846.54c-9.526 0-18.212 3.298-24.02 8.788-.717-4.37-4.418-7.593-9.02-7.593-5.121 0-9.13 4.02-9.13 9.143v81.29c0 5.121 4.01 9.136 9.13 9.136 5.128 0 9.143-4.02 9.143-9.136v-49.45c0-17.03 7.819-25.3 23.9-25.3 17.672 0 21.298 9.56 21.298 23.9v50.852c0 5.121 4.02 9.136 9.136 9.136 5.121 0 9.13-4.02 9.13-9.136v-53.46c0-25.327-13.309-38.16-39.564-38.16"/><path d="m624.92 930.49c-17.59 0-26.501-11.335-26.501-33.705 0-22.807 8.543-33.904 26.1-33.904 16.05 0 24.904 12.04 24.904 33.904 0 21.421-8.932 33.705-24.501 33.705m33.24-133.01c-4.964 0-9.143 4.186-9.143 9.143v48.48c-5.476-5.03-13.828-9.294-24.501-9.294-28.748 0-44.576 18.11-44.576 50.982 0 32.75 15.828 50.784 44.576 50.784 10.468 0 19.02-4.03 24.576-9.157.587 4.486 4.425 7.962 9.07 7.962 5.03 0 9.13-4.104 9.13-9.136v-130.62c0-4.957-4.179-9.143-9.13-9.143"/></g></g></svg>