<svg xmlns="http://www.w3.org/2000/svg" height="597.79" width="600" viewBox="0 0 158.75 158.16939"><g transform="matrix(2.10531 0 0 2.10531-252.5-137.56)"><path fill="#e30613" d="m123.94 65.34l-.28.242c-2.93 2.855-4.16 7.316-3.59 11.293 1.03 7.273 7.16 9.772 12.78 13.153 4.01 2.415 8.68 9.02 3.08 15.311-1.83 2.2-5.69 4.05-6.96 4.77-1.25.71-1.45 2.08.03 3.16s5.6 1.36 6.24 1.36c.65 0 2.14.1 3.26-1.15.9-.98 1.45-1.83 2.19-3.14.2-.35 3.62-5.54 8.16-7.94 3.35-1.62 7.69-3.479 9.91.24l.26.44.35-.37c2.71-2.824 4.49-7.738 0-9.798 0 0-.98-.426-2.16-.668.53-.326 1.41-.724 2.57-.809 1.74-.199 17.32-.909 9.82-17.698 0 0-3.03 8.096-8.14 9.474-3.04.952-6.61-.142-8.32-.156-1.58-.029-3.33.809-4.95 2.641-.67-1.207-1.29-2.4-2.01-3.352-2.43-3.238-5.9-3.039-9.39-4.261-4.69-1.648-11.51-7.6-12.85-12.742m-.35 4.432c1.86 3.679 5.55 6.989 9.02 8.906 3.79 2.06 8.44 2.358 11.29 5.341 2.89 2.969 3.88 6.847 8.3 8.779 2.71 1.15 5.85.895 7.48 3.182.27.369.37.767.37 1.207.02.71-.3 1.52-.64 2.116-.11.213-.22.398-.32.555-.88-1.066-2.53-1.25-3.87-1.264-.65 0-1.25.056-1.69.113-3.39.398-6.39 2.542-8.9 4.532-.8.64-3 3.01-4.34 4.93-.71 1.18-2.77 4.03-4.6 4.37l-.0001.02-.03.0001c-.3.1-.78.16-1.34.16-.98 0-2.17-.19-3.09-.47-.46-.16-.84-.33-1.1-.5-.25-.18-.31-.33-.29-.37-.03-.03.1-.31.75-.62 3.08-1.52 7.27-4.12 8.76-6.47 1.14-1.79 1.71-3.75 1.71-5.678 0-2.386-.87-4.73-2.65-6.633-1.09-1.193-2.69-2.201-4.43-3.082-4.5-2.358-10.05-5.241-11.35-10.312-.22-.924-.34-1.862-.34-2.828 0-2.031.5-4.133 1.31-5.994m45.81 8.949c.28 1.037.41 1.974.41 2.798 0 2.841-1.39 4.546-1.99 5.213-1.82 2.046-5.65 2.572-9.2 2.856-2.93.241-4.38 1.349-5.1 1.946-.47-.156-.77-.299-.77-.299-1.36-.682-2.37-1.889-3.24-3.252.74-.952 1.96-2.26 4.69-2.274.23 0 .47 0 .71.029 1.27.1 2.49.213 3.67.213 1.6 0 3.16-.213 4.61-.965.75-.384 4.35-2.302 6.21-6.265"/><g transform="translate(112.86-16.466)"><g fill="#eb5d40" transform="translate(-68.759-70.04)"><path d="m87.88 202.91c-.687 0-1.295.11-1.847.33-.545.21-1.01.52-1.405.91-.386.4-.686.88-.899 1.44-.213.57-.316 1.19-.316 1.89 0 .69.103 1.31.316 1.87s.513 1.03.899 1.42c.395.41.86.71 1.405.92.552.21 1.16.32 1.847.32.679 0 1.294-.11 1.846-.32.553-.21 1.018-.51 1.413-.92.387-.39.694-.86.908-1.42.205-.56.315-1.18.315-1.87 0-.7-.11-1.32-.315-1.89-.214-.56-.521-1.04-.908-1.44-.395-.39-.86-.7-1.413-.91-.552-.22-1.167-.33-1.846-.33m0 1.79c.402 0 .733.08 1.01.24.276.16.489.37.655.63.158.26.268.55.339.89.063.33.103.67.103 1.02 0 .34-.04.68-.103 1.01-.071.33-.181.62-.339.88-.166.27-.379.47-.655.63-.277.16-.608.24-1.01.24-.403 0-.742-.08-1.01-.24-.261-.16-.482-.36-.64-.63-.165-.26-.276-.55-.347-.88-.063-.33-.095-.67-.095-1.01 0-.35.032-.69.095-1.02.071-.34.182-.63.347-.89.158-.26.379-.47.64-.63.268-.16.607-.24 1.01-.24"/><path d="m105.75 203.61c-.28-.25-.62-.42-1.01-.54-.39-.11-.81-.16-1.27-.16-.6 0-1.13.15-1.56.43-.44.29-.79.63-1.05 1-.23-.53-.58-.91-1.025-1.12-.45-.2-.955-.31-1.5-.31-.568 0-1.073.12-1.515.37-.442.24-.813.59-1.129 1.03h-.031v-1.17h-2.241v8.65h2.375v-5.02c0-.42.063-.76.182-1.02.126-.27.268-.47.442-.61.173-.14.355-.23.536-.28.19-.05.332-.08.442-.08.387 0 .671.07.868.19.19.13.332.3.418.52.079.2.127.44.142.68.008.26.016.52.016.77v4.85h2.38v-4.82c0-.27.001-.53.05-.8.04-.26.12-.49.24-.69.12-.21.27-.38.48-.51.2-.12.48-.19.81-.19.34 0 .6.06.8.17s.34.26.44.45.16.41.18.67c.03.25.04.53.04.82v4.9h2.38v-5.79c0-.55-.08-1.03-.24-1.43-.16-.39-.38-.72-.65-.96"/><path d="m112.22 203.04c-.27.09-.53.21-.78.38-.24.16-.46.35-.65.58s-.34.48-.45.74h-.03v-1.6h-2.27v8.65h2.38v-3.9c0-.39.04-.75.12-1.09.07-.33.21-.63.39-.87.18-.25.43-.45.73-.59.3-.15.67-.22 1.1-.22.15 0 .3 0 .45.02.16.02.29.04.4.06v-2.21c-.19-.05-.36-.08-.51-.08-.31 0-.6.04-.88.13"/><path d="m118.38 202.91c-.68 0-1.29.11-1.84.33-.55.21-1.02.52-1.4.91-.4.4-.7.88-.91 1.44-.21.57-.32 1.19-.32 1.89 0 .69.11 1.31.32 1.87s.51 1.03.91 1.42c.38.41.85.71 1.4.92s1.16.32 1.84.32 1.29-.11 1.85-.32c.55-.21 1.02-.51 1.41-.92.39-.39.69-.86.91-1.42.21-.56.31-1.18.31-1.87 0-.7-.1-1.32-.31-1.89-.22-.56-.52-1.04-.91-1.44-.39-.39-.86-.7-1.41-.91-.56-.22-1.17-.33-1.85-.33m0 1.79c.4 0 .74.08 1.01.24.28.16.49.37.66.63.15.26.27.55.33.89.08.33.11.67.11 1.02 0 .34-.03.68-.11 1.01-.06.33-.18.62-.33.88-.17.27-.38.47-.66.63-.27.16-.61.24-1.01.24s-.73-.08-1-.24-.48-.36-.65-.63c-.16-.26-.28-.55-.34-.88-.07-.33-.1-.67-.1-1.01 0-.35.03-.69.1-1.02.06-.34.18-.63.34-.89.17-.26.38-.47.65-.63s.6-.24 1-.24"/><path d="m127.98 202.91c-.67 0-1.26.11-1.8.35-.55.23-1.01.55-1.4.96s-.69.89-.9 1.45-.32 1.16-.32 1.81c0 .67.1 1.27.31 1.83s.5 1.04.88 1.44.84.71 1.39.93c.54.21 1.16.33 1.84.33.98 0 1.81-.23 2.51-.68.68-.44 1.2-1.18 1.54-2.22h-2.1c-.08.27-.29.53-.64.76-.34.24-.75.37-1.23.37-.67 0-1.18-.18-1.54-.52-.36-.35-.56-.91-.59-1.68h6.24c.04-.67 0-1.31-.16-1.92-.16-.62-.41-1.16-.77-1.64-.34-.48-.79-.86-1.35-1.15-.54-.28-1.18-.42-1.91-.42m-.07 1.79c.58 0 1.01.16 1.3.46.28.32.48.78.59 1.38h-3.87c.02-.17.05-.36.11-.57.07-.22.17-.41.32-.6s.35-.35.61-.48c.24-.13.56-.19.94-.19"/><path d="m138.1 202.91c-.53 0-1.02.11-1.47.32-.45.2-.81.54-1.1 1.02h-.03v-1.11h-2.26v11.67h2.37v-4.09h.04c.28.43.65.74 1.11.96.45.21.94.33 1.48.33.63 0 1.19-.12 1.66-.37.47-.24.87-.57 1.19-.98.32-.42.55-.9.71-1.43s.24-1.09.24-1.68c0-.6-.08-1.2-.24-1.76s-.39-1.05-.72-1.48c-.32-.43-.73-.76-1.22-1.02s-1.07-.38-1.76-.38m-.51 1.79c.38 0 .69.08.95.24.27.16.48.37.65.63s.28.56.36.9c.07.33.11.67.11 1.02s-.04.69-.1 1.02c-.07.34-.18.63-.35.88-.15.25-.37.45-.63.61s-.59.24-.98.24c-.37 0-.7-.08-.97-.24-.26-.16-.48-.36-.64-.61s-.28-.54-.35-.88c-.08-.33-.11-.67-.11-1.02s.03-.7.1-1.03c.06-.34.18-.63.34-.89.17-.26.37-.47.64-.63.26-.16.58-.24.98-.24"/></g><g fill="#e30613" transform="translate(-129.94-55.08)"><path d="m148.91 199.85c-.97 0-1.7.24-2.17.73-.48.5-.72 1.12-.72 1.89v.68h-1.43v1.58h1.43v7.06h2.37v-7.06h1.64v-1.58h-1.64v-.53c0-.35.07-.6.21-.76.14-.15.37-.22.7-.22.29 0 .59.001.86.05v-1.77c-.19-.02-.4-.03-.61-.05-.22-.02-.43-.02-.64-.02"/><path d="m150.79 211.79h2.37v-11.94h-2.37v11.94"/><path d="m158.65 202.91c-.65 0-1.25.12-1.79.35-.55.23-1.01.56-1.4.96-.39.41-.7.89-.91 1.45-.2.55-.31 1.16-.31 1.81 0 .66.1 1.28.3 1.84.22.55.51 1.03.89 1.43s.83.71 1.39.93c.54.22 1.16.33 1.83.33.98 0 1.82-.22 2.51-.67s1.2-1.19 1.54-2.23h-2.09c-.08.27-.29.52-.64.77-.34.23-.76.35-1.23.35-.67 0-1.18-.17-1.55-.51-.35-.35-.55-.91-.58-1.67h6.24c.05-.68-.001-1.31-.16-1.93-.16-.62-.41-1.16-.77-1.64-.35-.48-.8-.86-1.34-1.15-.55-.28-1.19-.42-1.93-.42m-.07 1.79c.59 0 1.02.15 1.31.47.28.31.48.77.59 1.37h-3.87c.02-.17.05-.36.11-.57s.17-.41.32-.6.35-.35.6-.48.56-.19.94-.19"/><path d="m168.92 203.15l-1.82 5.9h-.03l-1.83-5.9h-2.49l2.96 8.64h2.64l2.93-8.64h-2.36"/><path d="m175.72 202.91c-.67 0-1.29.11-1.83.32-.56.22-1.02.53-1.41.92-.39.4-.69.88-.91 1.44-.21.57-.31 1.19-.31 1.89 0 .68.1 1.31.31 1.87.22.56.52 1.03.91 1.43s.85.7 1.41.91c.54.22 1.16.32 1.83.32.68 0 1.3-.1 1.85-.32.55-.21 1.03-.51 1.41-.91.4-.4.7-.87.91-1.43s.32-1.19.32-1.87c0-.7-.11-1.32-.32-1.89-.21-.56-.51-1.04-.91-1.44-.38-.39-.86-.7-1.41-.92-.55-.21-1.17-.32-1.85-.32m0 1.79c.41 0 .74.08 1.01.24.28.16.49.37.66.63.16.26.28.55.34.88.07.34.1.68.1 1.03 0 .34-.03.68-.1 1.01-.06.33-.18.62-.34.88-.17.26-.38.47-.66.63-.27.15-.6.23-1.01.23-.4 0-.74-.08-1-.23-.27-.16-.48-.37-.64-.63s-.28-.55-.34-.88c-.08-.33-.11-.67-.11-1.01 0-.35.03-.69.11-1.03.06-.33.18-.62.34-.88s.37-.47.64-.63c.26-.16.6-.24 1-.24"/><path d="m181.35 211.79h2.38v-11.94h-2.38v11.94"/><path d="m189.18 202.91c-.48 0-.96.05-1.43.14s-.9.25-1.28.47c-.38.23-.69.52-.94.9-.24.36-.38.82-.41 1.38h2.37c.05-.47.2-.8.47-1.01.26-.19.64-.3 1.1-.3.21 0 .41.02.6.05.18.03.34.08.48.17.14.08.26.19.33.34.09.15.13.36.13.62.02.24-.06.43-.21.56-.16.13-.37.22-.64.29s-.58.12-.92.15-.7.08-1.05.14c-.36.05-.72.12-1.07.22-.35.09-.66.23-.93.43-.28.19-.5.44-.67.76-.18.32-.26.72-.26 1.21 0 .45.08.83.23 1.16.15.32.35.59.62.8s.58.36.94.47c.35.1.74.15 1.15.15.54 0 1.06-.08 1.57-.24s.96-.43 1.34-.81c.001.14.03.28.07.42.02.14.06.28.1.41h2.41c-.12-.18-.19-.45-.23-.8-.05-.36-.07-.73-.07-1.12v-4.5c0-.53-.12-.95-.35-1.27-.24-.32-.54-.56-.91-.74-.36-.18-.77-.3-1.21-.36-.45-.06-.9-.09-1.33-.09m1.42 4.65v.89c0 .12-.02.31-.04.53-.02.23-.1.44-.23.66-.12.22-.31.4-.57.56-.25.16-.61.24-1.08.24-.19 0-.38-.02-.55-.06-.18-.03-.34-.08-.47-.17-.14-.08-.24-.2-.32-.34-.08-.15-.12-.32-.12-.54s.04-.41.12-.55.18-.26.31-.36c.12-.1.28-.17.45-.22.17-.06.35-.11.53-.14.19-.03.38-.06.57-.09.19-.02.37-.04.54-.07.17-.04.33-.08.49-.13.15-.06.28-.12.37-.21"/><path d="m201.92 203.89c-.22-.31-.55-.55-.96-.72-.4-.17-.92-.26-1.56-.26-.5 0-.99.11-1.47.34s-.87.6-1.17 1.09h-.05v-1.19h-2.26v8.64h2.38v-4.53c0-.89.14-1.52.43-1.91.29-.37.76-.57 1.41-.57.56 0 .96.18 1.18.53.23.34.34.88.34 1.6v4.88h2.37v-5.31c0-.54-.04-1.03-.14-1.47-.09-.44-.26-.82-.5-1.12"/><path d="m210.05 199.85v4.34h-.04c-.27-.41-.64-.74-1.09-.96-.47-.21-.96-.32-1.47-.32-.63 0-1.19.12-1.67.38-.49.24-.88.57-1.2.99-.32.41-.56.89-.72 1.43s-.24 1.1-.24 1.68c0 .6.08 1.18.24 1.74s.4 1.05.72 1.48.72.77 1.21 1.02 1.06.38 1.71.38c.57 0 1.08-.11 1.53-.31.46-.21.82-.54 1.09-1.02h.04v1.11h2.26v-11.94h-2.37m-1.96 4.85c.38 0 .71.08.97.23.25.16.46.36.62.61.17.26.28.54.35.87.06.33.09.67.09 1.03s-.03.7-.09 1.04c-.07.33-.18.63-.34.89s-.36.47-.62.63c-.27.15-.6.23-.98.23-.37 0-.69-.08-.95-.24s-.48-.37-.65-.63c-.18-.26-.3-.56-.37-.9-.08-.34-.13-.67-.13-1.01 0-.35.04-.69.11-1.02.08-.33.19-.63.35-.88.16-.26.38-.46.65-.62.26-.15.59-.23.99-.23"/></g></g></g></svg>