<svg xmlns="http://www.w3.org/2000/svg" viewBox="0 0 600 152.08"><defs><clipPath id="0"><path d="m232.88 137.57h23.16v5.87h-23.16v-5.87"/></clipPath></defs><g transform="translate(-50-456.32)"><g clip-path="url(#0)" transform="matrix(25.90909 0 0-25.90909-5983.61 4172.69)"><path d="m0 0c0-1.614-1.345-2.935-2.99-2.935h-17.18c-1.644 0-2.99 1.321-2.99 2.935 0 1.614 1.346 2.935 2.99 2.935h17.18c1.645 0 2.99-1.321 2.99-2.935" fill="#151118" transform="translate(256.03 140.5)"/><g fill="#fff"><path d="m0 0h-.054l-1.423 2.835c-.081.157-.218.241-.397.241h-.76c-.121 0-.229-.045-.313-.129-.084-.084-.128-.193-.128-.313v-3.518h.884v3.075h.047l1.42-2.828c.081-.162.218-.247.397-.247h.769c.121 0 .23.044.314.129.084.084.128.192.128.313v3.518h-.884v-3.076" transform="translate(241.3 139.42)"/><path d="m0 0h-3.518v-.884h3.076v-.053l-2.837-1.415c-.156-.081-.239-.219-.239-.397v-.769c0-.121.045-.229.129-.313.084-.084.192-.129.313-.129h3.518v.885h-3.076v.056l2.831 1.42c.158.075.245.214.245.391v.767c0 .12-.044.229-.129.313-.084.084-.192.128-.313.128" transform="translate(246.13 142.5)"/><path d="m0 0c-.083-.084-.128-.193-.128-.314v-3.075c0-.121.045-.23.128-.314.084-.084.193-.128.314-.128h3.259v.884h-2.817v.653h2.817v.885h-2.817v.653h2.817v.884h-3.259c-.121 0-.229-.044-.314-.128" transform="translate(247.1 142.37)"/><path d="m0 0c-.67 0-1.216.546-1.216 1.216 0 .67.546 1.216 1.216 1.216.67 0 1.216-.546 1.216-1.216 0-.67-.546-1.216-1.216-1.216m0 3.269c-1.132 0-2.053-.921-2.053-2.053 0-1.132.921-2.053 2.053-2.053 1.133 0 2.053.921 2.053 2.053 0 1.132-.92 2.053-2.053 2.053" transform="translate(253.08 139.29)"/><path d="m0 0c-.67 0-1.216.545-1.216 1.216 0 .67.546 1.216 1.216 1.216.671 0 1.216-.546 1.216-1.216 0-.671-.545-1.216-1.216-1.216m0 3.269c-1.132 0-2.053-.921-2.053-2.053 0-1.132.921-2.053 2.053-2.053 1.132 0 2.053.921 2.053 2.053 0 1.132-.921 2.053-2.053 2.053" transform="translate(235.81 139.3)"/></g><path d="m0 0c0-.277-.225-.503-.503-.503-.278 0-.503.226-.503.503 0 .278.225.503.503.503.278 0 .503-.225.503-.503" fill="#a6ce1d" transform="translate(236.32 140.52)"/></g></g></svg>