<svg xmlns="http://www.w3.org/2000/svg" enable-background="new 0 0 609.648 670.332" height="648.08" viewBox="0 0 599.99999 648.07797"><g fill="#fff" transform="translate(-4.824-5.21)"><g stroke-width=".984"><path d="m304.83 45.512h.02c68.5 0 123.9 53.797 126.13 122.49v.14h39.01c-1.27-90.19-74.67-162.93-165.16-162.93-90.51-.003-163.9 72.73-165.17 162.93h38.99c2.24-68.816 57.67-122.62 126.18-122.63"/><path d="m304.82 340.55c90.51.001 163.9-72.73 165.16-162.92h-38.98c-2.24 68.81-57.67 122.61-126.18 122.62h-.02c-68.49 0-123.9-53.79-126.13-122.48v-.14h-39.01c1.27 90.19 74.67 162.93 165.16 162.92"/><path d="m304.85 53.772c-63.991.0001-115.76 50.23-117.92 114.37h44.97c1.29-39.29 33.33-70.806 72.94-70.811 39.6-.004 71.64 31.511 72.92 70.811h44.98c-2.09-64.08-53.87-114.37-117.88-114.37"/><path d="m304.8 291.99c63.991 0 115.76-50.23 117.92-114.36h-44.97c-1.29 39.29-33.33 70.8-72.94 70.81-39.6 0-71.64-31.52-72.92-70.81h-44.98c2.09 64.07 53.87 114.36 117.88 114.36"/><path d="m76.15 602.89h23.362c7.555 0 12.775 1.98 16.09 5.3 2.89 2.89 4.37 6.63 4.37 11.5v.14c0 7.63-4.02 12.64-10.16 15.25l11.79 17.22h-15.74l-9.953-14.96h-6.07v14.96h-13.694zm22.798 23.72c4.589 0 7.339-2.26 7.339-5.86v-.14c0-3.95-2.89-5.93-7.409-5.93h-9.03v11.93z"/><path d="m125.28 627.74v-.14c0-14.19 11.43-25.69 26.68-25.69 15.24 0 26.53 11.36 26.53 25.55v.14c0 14.18-11.43 25.69-26.68 25.69-15.24 0-26.53-11.36-26.53-25.55m39.17 0v-.14c0-7.2-5.08-13.34-12.64-13.34-7.55 0-12.56 6.07-12.56 13.19v.15c0 7.12 5.15 13.34 12.71 13.34 7.48 0 12.49-6.07 12.49-13.2"/><path d="m195.57 614.89h-14.75v-12h43.27v12h-14.82v37.41h-13.7z"/><path d="m242.15 614.89h-14.75v-12h43.27v12h-14.82v37.41h-13.7z"/><path d="m276.67 602.89h39.73v11.58h-26.18v7.55h23.71v10.8h-23.71v7.84h26.54v11.64h-40.09z"/><path d="m323.81 602.89h23.36c7.56 0 12.78 1.98 16.1 5.3 2.89 2.89 4.37 6.63 4.37 11.5v.14c0 7.63-4.02 12.64-10.16 15.25l11.79 17.22h-15.74l-9.95-14.96h-6.07v14.96h-13.7zm22.8 23.72c4.59 0 7.34-2.26 7.34-5.86v-.14c0-3.95-2.89-5.93-7.41-5.93h-9.04v11.93z"/><path d="m374.56 602.89h19.13c17.57 0 27.81 10.17 27.81 24.43v.14c0 14.25-10.38 24.84-28.1 24.84h-18.84zm13.69 12.07v25.2h5.58c8.26 0 13.69-4.52 13.69-12.49v-.14c0-7.91-5.43-12.57-13.69-12.57z"/><path d="m442.24 602.54h13.2l21.03 49.76h-14.68l-3.53-8.89h-19.12l-3.53 8.89h-14.33zm12 30.21-5.5-13.97-5.58 13.97z"/><path d="m481.27 602.89h14.47l11.79 19.13 11.79-19.13h14.47v49.41h-13.63v-28.37l-12.63 19.34h-.28l-12.57-19.27v28.3h-13.41z"/><path d="m79.29 449.55c-20.06 0-36.37 16.32-36.37 36.37 0 20.06 16.317 36.37 36.37 36.37 20.05 0 36.37-16.31 36.37-36.37 0-20.05-16.311-36.37-36.37-36.37m0 68.57c-17.758 0-32.21-14.45-32.21-32.2 0-17.76 14.449-32.2 32.21-32.2 17.757 0 32.21 14.44 32.21 32.2 0 17.75-14.449 32.2-32.21 32.2"/><path d="m79.29 411.45c-41.06 0-74.47 33.41-74.47 74.47s33.407 74.46 74.47 74.46c41.07 0 74.47-33.4 74.47-74.46s-33.4-74.47-74.47-74.47m0 144.77c-38.767 0-70.3-31.53-70.3-70.3 0-38.76 31.537-70.3 70.3-70.3 38.766 0 70.31 31.54 70.31 70.3 0 38.77-31.54 70.3-70.31 70.3"/><path d="m254.16 410.89h-74.97v149.61h4.17v-145.44h70.8c27.82 0 50.46 22.64 50.46 50.46 0 27.83-22.64 50.47-50.46 50.47h-25.14v4.17h25.14c30.12 0 54.63-24.51 54.63-54.64 0-30.12-24.51-54.63-54.63-54.63"/><path d="m270.69 465.52c0-9.12-7.41-16.54-16.53-16.54h-36.87v111.52h4.16v-107.35h32.71c6.82 0 12.37 5.55 12.37 12.37s-5.55 12.37-12.37 12.37h-25.14v4.17h25.14c9.12 0 16.53-7.42 16.53-16.54"/></g><g transform="matrix(.98417 0 0 .98417 4.824 5.21)"><path d="m446.55 452.35h-81.69v18.86h52.83v34.48h-52.83v18.86h82.73v-4.24h-78.5v-10.39h53.37v-42.94h-53.37v-10.39h77.46"/><path d="m446.55 413.64h-120.4v149.62h121.44v-4.24h-117.21v-141.14h116.17z"/><path d="m507.16 561.94h4.24v-74.42l60.96 74.42h5.48l-70.68-86.28z"/><path d="m570.94 414.94h-4.24v72.32l-59.24-72.32h-5.47l68.95 84.17z"/></g><g stroke-width=".984"><path d="m600.66 413.59h4.167v144.66h-4.167z"/><path d="m465.86 413.59h4.166v144.66h-4.166z"/></g></g></svg>