<svg xmlns="http://www.w3.org/2000/svg" width="627.41" height="133.87" viewBox="0 0 627.406 133.875"><path fill="#e2001a" d="m0 0h313.7v133.87h-313.7z"/><path d="m227.89 104.19h18.344v-25.12h34.703v-17.554h-34.703v-14.313h42.547v-17.578h-60.891v74.56m-142.03-37.25c0 11.75-10.141 21.14-20.984 21.14-10.969 0-20.992-9.391-20.992-21.14 0-11.766 10.02-21.14 20.992-21.14 10.844 0 20.984 9.375 20.984 21.14m18.954 0c0-21.859-17.75-38.727-39.938-38.727-22.19 0-39.953 16.867-39.953 38.727 0 21.86 17.766 38.719 39.953 38.719 22.19 0 39.938-16.86 39.938-38.719m26.453 37.3h18.375v-21.734h13.719l14.422 21.734h22.906l-18.484-26.13c8.71-3.804 14.796-11.992 14.796-22.1 0-14.836-10.969-26.375-27.672-26.375h-38.06v74.61zm36.984-39.32h-18.609v-17.695h18.609c7.984 0 10.375 3.914 10.375 8.781 0 5-2.391 8.914-10.375 8.914" fill="#fff"/><path fill="#007787" d="m313.7 0h313.7v133.87h-313.7z"/><path d="m577.7 105.48c14.813 0 26.469-8.188 26.469-22.297v-.281c0-13.375-12.375-17.844-23.891-21.297-9.906-3.02-19.12-5.758-19.12-12.805v-.273c0-6.203 5.617-10.797 14.406-10.797 7.188 0 15.08 2.734 21.984 7.203l5.05-8.352c-7.625-5.04-17.703-8.203-26.75-8.203-14.688 0-25.328 8.492-25.328 21.289v.289c0 13.664 12.953 17.695 24.594 21 9.781 2.727 18.563 5.602 18.563 13.09v.289c0 7.195-6.484 11.797-15.391 11.797-8.781 0-17.688-3.445-25.742-9.492l-5.617 7.906c8.344 6.767 20.13 10.938 30.781 10.938m-113.2-1.437h11.08v-42.578c0-13.953 9.5-23.305 22.297-23.305 13.08 0 20.578 8.633 20.578 22.445v43.44h11.06v-46.17c0-17.688-10.5-29.781-28.469-29.781-12.797 0-20.578 6.484-25.469 14.531v-12.937h-11.08v74.36zm-36.812 0h11.09v-74.36h-11.09v74.36m-79.55-41.563c1.594-14.391 11.375-25.03 24.17-25.03 14.656 0 22.438 11.5 23.734 25.03h-47.906m0 8.907h58.984c.141-1.719.141-2.867.141-3.875 0-21.875-12.656-39.42-34.672-39.42-20.547 0-35.656 17.258-35.656 38.844 0 23.16 16.68 38.828 37.11 38.828 14.1 0 23.14-5.609 30.641-13.953l-6.906-6.18c-6.04 6.32-13.234 10.5-23.445 10.5-13.11 0-24.603-9.06-26.2-24.742" fill="#fff"/></svg>