<svg xmlns="http://www.w3.org/2000/svg" viewBox="0 0 600 131.73" xmlns:xlink="http://www.w3.org/1999/xlink"><defs><linearGradient id="0" gradientUnits="userSpaceOnUse" x2="116.96" x1="229.65"><stop stop-color="#fff"/><stop offset="1"/></linearGradient></defs><g transform="translate(119.51 292.38)"><path fill="#fff" d="m188.04-292.21h131.56v131.56h-131.56v-131.56"/><path fill="#ec1b24" d="m-119.51-292.21h307.29v131.56h-307.29v-131.56"/><path fill="#fff" d="m-16.825-226.43c0-21.482-17.409-38.06-39.14-38.06-21.733 0-39.14 16.579-39.14 38.06 0 21.476 17.409 38.05 39.14 38.05 21.727 0 39.14-16.573 39.14-38.05m-18.576 0c0 11.553-9.929 20.775-20.561 20.775-10.753 0-20.566-9.221-20.566-20.775 0-11.56 9.814-20.78 20.566-20.78 10.632 0 20.561 9.22 20.561 20.78" id="1"/><path fill="#fff" d="m9.09-189.78h17.996v-21.361h13.434l14.14 21.361h22.429l-18.11-25.678c8.524-3.737 14.485-11.791 14.485-21.714 0-14.594-10.748-25.916-27.11-25.916h-37.27v73.31m36.22-38.63h-18.222v-17.397h18.222c7.829 0 10.167 3.853 10.167 8.64 0 4.904-2.339 8.757-10.167 8.757" id="2"/><path fill="#fff" d="m103.72-189.82h17.977v-24.682h33.976v-17.264h-33.976v-14.06h41.683v-17.263h-59.66v73.26" id="3"/><path fill="#fff" d="m280.89-241.45c0-13.263-10.869-24.615-28.09-24.615-13.01 0-23.08 5.01-31.08 18.04l15.998 7.645c3.481-6.211 8.367-9.319 14.351-9.319 5.984 0 10.441 3.945 10.441 8.01 0 2.748-1.222 5.38-4.946 8.244l-34.13 27.01v16.848h57.22v-17.09h-30.349l17.831-13.501c7.633-5.734 12.762-12.788 12.762-21.275"/><path fill="url(#0)" d="m187.8-292.21h46.25v131.56h-46.25v-131.56"/><path fill="#e2001a" d="m-119.51-292.21h307.29v131.56h-307.29v-131.56"/><use xlink:href="#1"/><use xlink:href="#2"/><use xlink:href="#3"/><g fill="#e2001a"><path d="m280.89-241.45c0-13.263-10.869-24.615-28.09-24.615-13.01 0-23.08 5.01-31.08 18.04l15.998 7.645c3.481-6.211 8.367-9.319 14.351-9.319 5.984 0 10.441 3.945 10.441 8.01 0 2.748-1.222 5.38-4.946 8.244l-34.13 27.01v16.848h57.22v-17.09h-30.349l17.831-13.501c7.633-5.734 12.762-12.788 12.762-21.275"/><path d="m389.88-189.33v-74.21h-18.199v27.534h-30.25v-27.534h-18.2v74.21h18.2v-29.19h30.25v29.19h18.199m90.61-37.1c0-19.616-15.13-37.1-39.586-37.1h-33.915v74.21h33.915c23.987 0 39.586-17.488 39.586-37.1m-18.2 0c0 10.752-8.04 19.616-21.387 19.616h-15.835v-39.23h15.835c13.351 0 21.387 8.864 21.387 19.616"/><path d="m458.69-284.85v17.684c2.695 1 5.184 2.245 7.534 3.652v-28.871h-132.46v21.634h7.534v-14.1"/><path d="m333.76-160.99h132.47v-28.811c-2.356 1.426-4.847 2.696-7.535 3.714v17.562h-117.41v-13.828h-7.535"/></g></g></svg>