<svg xmlns="http://www.w3.org/2000/svg" viewBox="0 0 600 179.77" xmlns:xlink="http://www.w3.org/1999/xlink"><defs><linearGradient id="0" gradientUnits="userSpaceOnUse" x2="38.23" x1="192.21"><stop stop-color="#fff"/><stop offset="1"/></linearGradient></defs><g transform="translate(284.88 304.11)"><path d="m135.36-304.11h179.77v179.77h-179.77v-179.77" fill="#fff"/><path d="m-284.88-304.11h419.89v179.77h-419.89v-179.77" fill="#ec1b24"/><path d="m-144.57-214.22c0-29.353-23.788-52.01-53.48-52.01-29.695 0-53.48 22.654-53.48 52.01 0 29.345 23.788 51.99 53.48 51.99 29.687 0 53.48-22.645 53.48-51.99m-25.382 0c0 15.787-13.567 28.386-28.09 28.386-14.693 0-28.1-12.6-28.1-28.386 0-15.795 13.409-28.393 28.1-28.393 14.527 0 28.09 12.598 28.09 28.393" fill="#fff" id="1"/><path d="m-109.17-164.14h24.59v-29.19h18.356l19.316 29.19h30.647l-24.74-35.09c11.647-5.106 19.792-16.11 19.792-29.671 0-19.942-14.686-35.411-37.04-35.411h-50.922v100.17zm49.49-52.791h-24.898v-23.772h24.898c10.697 0 13.892 5.265 13.892 11.806 0 6.701-3.196 11.965-13.892 11.965" fill="#fff" id="2"/><path d="m20.14-164.2h24.563v-33.725h46.43v-23.589h-46.42v-19.21h56.956v-23.587h-81.52v100.11z" fill="#fff" id="3"/><path d="m262.22-234.75c0-18.12-14.852-33.634-38.38-33.634-17.774 0-31.541 6.85-42.47 24.656l21.859 10.446c4.757-8.486 11.433-12.733 19.609-12.733 8.177 0 14.267 5.39 14.267 10.938 0 3.755-1.669 7.352-6.758 11.264l-46.642 36.913v23.02h78.18v-23.353h-41.469l24.364-18.448c10.429-7.835 17.438-17.473 17.438-29.07" fill="#fff"/><path d="m135.03-304.11h63.2v179.77h-63.2v-179.77" fill="url(#0)"/><path d="m-284.88-304.11h419.89v179.77h-419.89v-179.77" fill="#e2001a"/><use xlink:href="#1"/><use xlink:href="#2"/><use xlink:href="#3"/><path d="m262.22-234.75c0-18.12-14.852-33.634-38.38-33.634-17.774 0-31.541 6.85-42.47 24.656l21.859 10.446c4.757-8.486 11.433-12.733 19.609-12.733 8.177 0 14.267 5.39 14.267 10.938 0 3.755-1.669 7.352-6.758 11.264l-46.642 36.913v23.02h78.18v-23.353h-41.469l24.364-18.448c10.429-7.835 17.438-17.473 17.438-29.07" fill="#e2001a"/></g></svg>