<svg xmlns="http://www.w3.org/2000/svg" viewBox="0 0 1025.41 396.08" xmlns:xlink="http://www.w3.org/1999/xlink"><path d="m0 .008h708.66v303.4h-708.66v-303.4" fill="#e2001a"/><path d="m236.81 151.72c0-49.541-40.15-87.77-90.25-87.77-50.12 0-90.27 38.23-90.27 87.77 0 49.53 40.15 87.75 90.27 87.75 50.1 0 90.25-38.22 90.25-87.75m-42.838 0c0 26.644-22.898 47.908-47.41 47.908-24.799 0-47.43-21.264-47.43-47.908 0-26.658 22.63-47.922 47.43-47.922 24.517 0 47.41 21.264 47.41 47.922" fill="#fff" id="0"/><path d="m296.56 236.24h41.5v-49.26h30.981l32.601 49.26h51.724l-41.754-59.22c19.659-8.618 33.403-27.19 33.403-50.08 0-33.657-24.785-59.765-62.51-59.765h-85.944v169.06m83.52-89.1h-42.02v-40.12h42.02c18.05 0 23.447 8.886 23.447 19.926 0 11.308-5.394 20.19-23.447 20.19" fill="#fff" id="1"/><path d="m514.79 236.14h41.458v-56.921h78.35v-39.811h-78.35v-32.417h96.13v-39.811h-137.58v168.96" fill="#fff" id="2"/><use xlink:href="#0"/><use xlink:href="#1"/><use xlink:href="#2"/><path d="m816.77 303.3c-.557-.294-9.566-4.272-20.02-8.839-10.454-4.567-19.729-8.635-20.611-9.04-.882-.405-1.669-.736-1.75-.736-.081 0-.945-.369-1.921-.819-.976-.451-2.763-1.275-3.971-1.833-1.208-.558-2.267-1.014-2.353-1.014-.39 0-8.475-3.776-8.915-4.164-.469-.413-.493-6.721-.493-125 0-107.1.056-124.62.4-124.97.22-.22 2.535-1.324 5.146-2.455 2.611-1.13 4.873-2.149 5.03-2.265.155-.115.599-.306.987-.423.388-.117 1.466-.563 2.397-.991.931-.428 2.687-1.235 3.902-1.795 1.216-.56 2.27-1.018 2.342-1.018.136 0 1.953-.792 3.907-1.702 4.979-2.32 36.779-16.13 37.22-16.16.563-.042.564.153.635 151.87.067 144.55.047 151.91-.423 151.9-.272-.007-.949-.253-1.506-.548" fill="#e6e6e6"/><path d="m920.9 303.62c-.153-.141-2.245-1.115-4.649-2.164-2.404-1.049-5.03-2.207-5.833-2.574-.804-.367-1.528-.667-1.609-.667-.081 0-.945-.37-1.921-.823-3.965-1.838-6.203-2.843-6.329-2.843-.073 0-.792-.309-1.596-.687-.805-.378-9.885-4.366-20.18-8.861-10.294-4.496-18.828-8.285-18.964-8.422-.392-.392-.322-249.05.07-249.52.175-.211.435-.383.578-.383.143 0 1.209-.444 2.368-.987 1.159-.543 2.177-.987 2.26-.987.084 0 .811-.309 1.615-.687.805-.378 9.584-4.234 19.509-8.569 17.829-7.787 19.805-8.658 23.12-10.189.931-.43 2-.879 2.384-.997.381-.119 1.967-.81 3.525-1.536 5.479-2.553 6.655-2.983 6.939-2.534.153.241 1.421 61.6.189 151.97l-.066 151.56-.567.081c-.312.045-.693-.034-.846-.175" fill="#d2d2d2"/><path d="m1023.9 303.62c-.153-.143-2.119-1.055-4.367-2.027-2.249-.972-4.87-2.128-5.826-2.57-.956-.442-1.806-.803-1.891-.803-.084 0-.952-.369-1.928-.82-.976-.451-2.981-1.349-4.454-1.995-3.857-1.691-6.933-3.062-8.953-3.989-.97-.445-1.844-.809-1.943-.809-.099 0-.701-.254-1.339-.564-.637-.31-7.68-3.412-15.651-6.893-7.971-3.481-14.601-6.438-14.734-6.571-.134-.134-.242-55.888-.242-124.71 0-99.39.071-124.53.353-124.79.194-.178 8.701-3.965 18.904-8.414 10.203-4.449 19.402-8.474 20.443-8.944 1.041-.47 2.43-1.098 3.088-1.396.658-.297 1.253-.541 1.323-.541.07 0 1.245-.519 2.611-1.153 1.366-.634 3.245-1.472 4.176-1.862.931-.39 2.263-.967 2.961-1.283 5.09-2.304 8.317-3.603 8.642-3.479.32.123.37 24.56.311 151.93l-.071 151.78-.567.081c-.312.045-.693-.036-.846-.179" fill="#bebebe"/><g transform="matrix(.96326 0 0 1.03814 0-.59)" fill="#fff"><path d="m72.903 381l-27.14-36.704 25.957-27.05h-16.94l-25.866 27.87v-27.87h-14.03v63.754h14.03v-19.49l7.377-7.65 19.764 27.14z"/><path d="m124.31 381v-48.817h-13.844v27.23c-.03 3.283-.812 5.757-2.345 7.423-1.533 1.666-3.636 2.501-6.307 2.505-2.66-.004-4.717-.839-6.17-2.505-1.453-1.666-2.19-4.14-2.209-7.423v-27.23h-13.844v31.604c.036 5.656 1.489 10.08 4.36 13.263 2.871 3.186 6.943 4.806 12.216 4.861 3.465-.07 6.326-.863 8.584-2.379 2.258-1.516 4.163-3.334 5.715-5.453v6.922z"/><path d="m151.19 381v-66.49h-13.844v66.49z"/><path d="m191.69 379v-11.11c-1 .55-2.072.975-3.21 1.275-1.138.3-2.345.452-3.62.455-1.541.002-2.672-.389-3.393-1.173-.721-.784-1.078-1.971-1.07-3.563v-20.857h11.476v-11.84h-11.476v-12.478h-13.844v12.478h-5.829v11.84h5.829v23.13c.063 5.552 1.372 9.407 3.928 11.567 2.556 2.159 5.983 3.191 10.28 3.097 2.305-.009 4.343-.264 6.114-.763 1.77-.499 3.375-1.186 4.816-2.061"/><path d="m246.34 381v-48.817h-13.844v27.23c-.03 3.283-.812 5.757-2.345 7.423-1.533 1.666-3.636 2.501-6.307 2.505-2.66-.004-4.717-.839-6.17-2.505-1.453-1.666-2.19-4.14-2.209-7.423v-27.23h-13.844v31.604c.036 5.656 1.489 10.08 4.36 13.263 2.871 3.186 6.943 4.806 12.216 4.861 3.465-.07 6.326-.863 8.584-2.379 2.258-1.516 4.163-3.334 5.715-5.453v6.922z"/><path d="m288.15 345.76v-14.481c-4.059-.133-7.326.77-9.802 2.71-2.476 1.939-4.4 4.618-5.772 8.04v-9.836h-13.844v48.817h13.844v-18.03c.044-5.818 1.368-10.144 3.973-12.978 2.605-2.835 6.229-4.246 10.872-4.235z"/><path d="m365.37 381v-46.45h-4.463v26.868c-.103 4.914-1.651 8.884-4.645 11.908-2.994 3.02-6.819 4.58-11.476 4.668-4.719-.063-8.351-1.508-10.895-4.338-2.544-2.829-3.831-6.666-3.859-11.51v-27.596h-4.463v28.416c.04 5.658 1.668 10.235 4.884 13.73 3.216 3.495 7.781 5.294 13.696 5.396 4.21-.065 7.675-1.01 10.394-2.823 2.719-1.818 4.84-4.125 6.364-6.922v8.652z"/><path d="m422.13 381v-28.416c-.04-5.658-1.668-10.235-4.884-13.73-3.216-3.495-7.781-5.294-13.696-5.396-4.21.065-7.675 1.01-10.394 2.823-2.719 1.818-4.84 4.125-6.364 6.922v-8.652h-4.463v46.45h4.463v-26.868c.102-4.914 1.651-8.884 4.645-11.908 2.994-3.02 6.819-4.58 11.476-4.668 4.719.063 8.351 1.509 10.895 4.338 2.544 2.829 3.831 6.666 3.859 11.51v27.596z"/><path d="m481.36 381v-66.49h-4.463v30.06c-1.89-3.01-4.394-5.594-7.514-7.742-3.119-2.148-6.99-3.271-11.612-3.37-5.842.068-11.01 2.231-15.494 6.489-4.487 4.258-6.852 10.201-7.093 17.828v.182c.241 7.62 2.605 13.533 7.093 17.737 4.487 4.205 9.652 6.337 15.494 6.398 4.571-.097 8.408-1.247 11.51-3.45 3.102-2.203 5.641-4.878 7.616-8.03v10.383zm-4.19-23.13c-.186 6.01-2.137 10.815-5.852 14.413-3.715 3.598-8.08 5.442-13.09 5.533-5.02-.072-9.277-1.886-12.762-5.442-3.486-3.556-5.303-8.421-5.453-14.595v-.182c.127-6.286 1.899-11.155 5.317-14.606 3.417-3.451 7.717-5.201 12.899-5.248 5.01.085 9.377 1.918 13.09 5.499 3.715 3.58 5.666 8.396 5.852 14.447z"/><path d="m539.55 381v-63.754h-14.03v63.754z"/><path d="m598.75 381v-31.604c-.036-5.656-1.49-10.08-4.36-13.263-2.871-3.186-6.943-4.806-12.216-4.861-3.465.07-6.326.863-8.584 2.379-2.258 1.516-4.163 3.334-5.715 5.453v-6.922h-13.844v48.817h13.844v-27.23c.03-3.283.812-5.757 2.345-7.423 1.533-1.666 3.635-2.501 6.307-2.505 2.66.004 4.717.839 6.17 2.505 1.453 1.666 2.19 4.14 2.209 7.423v27.23z"/><path d="m638.1 326.72v-11.476c-1.252-.415-2.664-.746-4.235-.99-1.571-.245-3.438-.37-5.601-.376-4.894-.019-8.631 1.249-11.214 3.802-2.582 2.554-3.884 6.508-3.905 11.863v3.097h-5.738v11.385h5.738v36.977h13.844v-36.977h11.02v-11.294h-11.202v-1.913c.009-1.814.446-3.15 1.309-4.01.863-.858 2.097-1.283 3.7-1.275 1.173.004 2.266.11 3.279.319 1.013.209 2.02.497 3.01.865"/><path d="m696.1 356.68v-.182c-.152-7.187-2.649-13.145-7.491-17.874-4.842-4.728-11.12-7.18-18.83-7.354-7.759.182-14.08 2.664-18.955 7.446-4.878 4.782-7.394 10.77-7.548 17.965v.182c.152 7.188 2.649 13.145 7.491 17.874 4.842 4.728 11.12 7.18 18.83 7.354 7.759-.182 14.08-2.664 18.955-7.446 4.878-4.782 7.394-10.77 7.548-17.965m-13.662.182c-.032 3.702-1.152 6.818-3.358 9.347-2.207 2.529-5.307 3.846-9.301 3.95-3.882-.112-6.979-1.459-9.29-4.04-2.311-2.582-3.495-5.728-3.552-9.438v-.182c.032-3.702 1.152-6.817 3.358-9.347 2.207-2.529 5.307-3.846 9.301-3.95 3.882.112 6.979 1.459 9.29 4.04 2.311 2.582 3.495 5.728 3.552 9.438z"/><path d="m735.54 345.76v-14.481c-4.059-.133-7.326.77-9.802 2.71-2.476 1.939-4.4 4.618-5.772 8.04v-9.836h-13.844v48.817h13.844v-18.03c.044-5.818 1.368-10.144 3.973-12.978 2.605-2.835 6.229-4.246 10.872-4.235z"/><path d="m818.69 381v-31.786c-.044-5.888-1.505-10.347-4.383-13.377-2.878-3.03-6.912-4.552-12.1-4.565-3.309.001-6.277.674-8.903 1.992-2.626 1.319-5 3.235-7.127 5.749-1.29-2.474-3.104-4.379-5.442-5.715-2.338-1.336-5.108-2.01-8.311-2.026-3.469.07-6.345.863-8.63 2.379-2.285 1.516-4.205 3.334-5.761 5.453v-6.922h-13.844v48.817h13.844v-27.23c.025-3.283.772-5.757 2.243-7.423 1.47-1.666 3.516-2.501 6.136-2.505 2.609.004 4.609.839 6 2.505 1.391 1.666 2.093 4.14 2.106 7.423v27.23h13.844v-27.23c.025-3.283.772-5.757 2.243-7.423 1.47-1.666 3.516-2.501 6.136-2.505 2.609.004 4.609.839 6 2.505 1.391 1.666 2.093 4.14 2.106 7.423v27.23z"/><path d="m872.63 381v-28.325c.038-6.654-1.7-11.812-5.214-15.472-3.514-3.66-9.03-5.516-16.553-5.567-4.08.015-7.601.372-10.565 1.07-2.964.698-5.757 1.647-8.379 2.846l3.461 10.565c2.184-.827 4.328-1.472 6.432-1.935 2.104-.463 4.453-.698 7.05-.706 3.465.013 6.076.784 7.833 2.311 1.757 1.527 2.637 3.732 2.641 6.614v.82c-1.704-.601-3.51-1.083-5.419-1.446-1.909-.362-4.08-.548-6.512-.558-5.88-.017-10.605 1.247-14.174 3.791-3.569 2.544-5.402 6.472-5.499 11.783v.182c.123 4.846 1.767 8.542 4.93 11.09 3.163 2.546 7.106 3.829 11.829 3.848 3.353-.025 6.233-.59 8.641-1.696 2.408-1.106 4.446-2.605 6.114-4.497v5.282zm-13.12-17.214c-.048 2.548-1.046 4.601-2.994 6.159-1.949 1.558-4.563 2.359-7.844 2.402-2.267-.013-4.085-.533-5.453-1.56-1.368-1.027-2.07-2.48-2.106-4.36v-.182c.029-2.193.882-3.863 2.562-5.01 1.679-1.146 4.01-1.723 7-1.73 1.694.008 3.292.175 4.793.501 1.501.326 2.848.767 4.04 1.321z"/><path d="m911.96 379v-11.11c-1 .55-2.072.975-3.21 1.275-1.139.3-2.345.452-3.62.455-1.541.002-2.672-.389-3.393-1.173-.721-.784-1.078-1.971-1.07-3.563v-20.857h11.476v-11.84h-11.476v-12.478h-13.844v12.478h-5.829v11.84h5.829v23.13c.063 5.552 1.372 9.407 3.928 11.567 2.556 2.159 5.983 3.191 10.28 3.097 2.305-.009 4.343-.264 6.114-.763 1.77-.499 3.375-1.186 4.816-2.061"/><path d="m937.1 326.81v-12.295h-14.572v12.295zm-.364 54.19v-48.817h-13.844v48.817z"/><path d="m1000.28 356.68v-.182c-.152-7.187-2.649-13.145-7.491-17.874-4.842-4.728-11.12-7.18-18.83-7.354-7.759.182-14.08 2.664-18.955 7.446-4.878 4.782-7.394 10.77-7.548 17.965v.182c.152 7.188 2.649 13.145 7.491 17.874 4.842 4.728 11.12 7.18 18.83 7.354 7.759-.182 14.08-2.664 18.955-7.446 4.878-4.782 7.394-10.77 7.548-17.965m-13.661.182c-.032 3.702-1.152 6.818-3.358 9.347-2.207 2.529-5.307 3.846-9.301 3.95-3.882-.112-6.979-1.459-9.29-4.04-2.311-2.582-3.495-5.728-3.552-9.438v-.182c.032-3.702 1.152-6.817 3.358-9.347 2.207-2.529 5.307-3.846 9.301-3.95 3.882.112 6.979 1.459 9.29 4.04 2.311 2.582 3.495 5.728 3.552 9.438z"/><path d="m1055.03 381v-31.604c-.036-5.656-1.49-10.08-4.36-13.263-2.871-3.186-6.943-4.806-12.216-4.861-3.465.07-6.326.863-8.584 2.379-2.258 1.516-4.163 3.334-5.715 5.453v-6.922h-13.844v48.817h13.844v-27.23c.03-3.283.812-5.757 2.345-7.423 1.533-1.666 3.636-2.501 6.307-2.505 2.66.004 4.717.839 6.17 2.505 1.453 1.666 2.19 4.14 2.209 7.423v27.23z"/></g></svg>