<svg xmlns="http://www.w3.org/2000/svg" viewBox="0 0 1053.91 165.43"><defs><linearGradient x1="-1030.09" y1="1025.26" x2="-915.95" y2="912.12" id="0" gradientUnits="userSpaceOnUse"><stop stop-color="#fba10d"/><stop offset="1" stop-color="#ffce08"/></linearGradient></defs><g transform="translate(-.783-886.18)"><path transform="scale(-1 1)" fill="url(#0)" d="m-1054.3 886.87h163.89v164.04h-163.89z"/><path d="m382.24 886.87h508.17v164.04h-508.17z"/><path d="m.783 1051.02h383.32v-164.17h-383.32v164.17" fill="#e2001a"/><g fill="#fff"><g fill-rule="evenodd"><path d="m128.82 968.88c0-26.707-21.657-47.35-48.813-47.35-27.04 0-48.813 20.647-48.813 47.35 0 26.819 21.77 47.47 48.813 47.47 27.16 0 48.813-20.647 48.813-47.47m-23.12 0c0 14.476-12.344 26.03-25.697 26.03-13.353 0-25.585-11.558-25.585-26.03 0-14.363 12.231-25.921 25.585-25.921 13.353 0 25.697 11.558 25.697 25.921"/><path d="m161.14 1014.66h22.555v-26.707h16.72l17.618 26.707h27.941l-22.555-32.09c10.66-4.601 18.07-14.7 18.07-27.04 0-18.18-13.353-32.32-33.776-32.32h-46.569v91.45m45.22-48.25h-22.667v-21.657h22.667c9.763 0 12.68 4.825 12.68 10.773 0 6.172-2.918 10.885-12.68 10.885"/></g><path d="m279.19 1014.55h22.443v-30.747h42.42v-21.545h-42.42v-17.505h52.07v-21.545h-74.51v91.34"/><g transform="matrix(1.04151-.01019.00869.96006 0 0)"><path d="m461.51 986.4c-4.851-3.555-9.786-5.332-14.804-5.332-10.08 0-15.12 3.806-15.12 11.417 0 3.22 2.676 7.07 8.03 11.542l9.472 8.03c2.927 2.509 4.956 4.339 6.085 5.489 1.129 1.15 2.321 2.75 3.576 4.799 1.255 2.049 2.195 4.119 2.823 6.21.627 2.091.941 4.224.941 6.399 0 8.406-3.147 14.972-9.441 19.697-6.294 4.726-14.459 7.089-24.496 7.089-8.239 0-16.02-1.777-23.336-5.332l5.269-16.12c5.604 4.224 12.11 6.336 19.509 6.336 4.475 0 8.186-.951 11.135-2.854 2.948-1.903 4.422-4.611 4.422-8.123 0-3.471-2.677-7.297-8.03-11.48l-9.849-7.841c-3.01-2.426-5.05-4.182-6.116-5.269-1.066-1.087-2.185-2.603-3.356-4.548-1.171-1.945-2.049-3.942-2.635-5.991-.585-2.049-.878-4.161-.878-6.336 0-8.448 2.802-15.14 8.406-20.07 5.604-4.935 12.943-7.402 22.02-7.402 3.01 0 6.858.345 11.542 1.035 4.684.69 7.967 1.474 9.849 2.352z"/><path d="m493 1026.42l-6.21 33.749h-16.686l17.313-91.77c8.74-.92 15.411-1.38 20.01-1.38 24.297 0 36.446 9.138 36.446 27.413 0 10.288-3.691 18.369-11.07 24.25-7.381 5.876-16.948 8.814-28.699 8.814-3.764 0-7.465-.355-11.1-1.066m8.03-44.22l-5.457 30.3c2.133.586 4.851.878 8.155.878 7.109 0 12.755-1.526 16.937-4.579 4.182-3.053 6.273-7.444 6.273-13.173 0-9.66-5.478-14.491-16.435-14.491-2.927 0-6.085.356-9.472 1.066"/><path d="m548.26 1025.98c0-16.351 4.464-30.33 13.393-41.935 8.929-11.605 20.544-17.407 34.846-17.408 10.999 0 19.467 2.917 25.406 8.751 5.938 5.834 8.908 14.271 8.908 25.312 0 18.11-4.558 32.808-13.675 44.1-9.117 11.291-21.6 16.937-37.45 16.937-9.702 0-17.366-3.272-22.991-9.817-5.625-6.545-8.437-15.191-8.437-25.939m16.937-1.694c0 7.07 1.401 12.692 4.203 16.874 2.802 4.182 6.9 6.273 12.295 6.273 9.953 0 17.815-4.475 23.586-13.424 5.771-8.949 8.657-19.634 8.657-32.05 0-14.05-6.189-21.08-18.568-21.08-8.699 0-15.902 4.6-21.61 13.801-5.708 9.2-8.563 19.07-8.563 29.609"/><path d="m685.39 1019.46l20.513 40.712h-18.38l-17.564-38.01c-2.844-.042-6.336-.209-10.476-.502l-7.088 38.516h-16.812l16.812-91.9c12.211-.627 20.22-.941 24.03-.941 9.911 0 17.742 1.913 23.492 5.74 5.75 3.827 8.625 9.357 8.625 16.592 0 7.36-2.102 13.748-6.304 19.16-4.203 5.416-9.817 8.96-16.843 10.633m-18.756-37.07l-4.705 25.719c2.467.251 4.663.376 6.587.376 15.808 0 23.712-5.02 23.712-15.06 0-4.224-1.516-7.224-4.548-9-3.03-1.777-8.06-2.666-15.09-2.666-.586 0-2.572.209-5.959.627"/><path d="m799.68 982.57h-28.981l-14.177 77.6h-16.498l14.177-77.6h-29.23l2.635-14.302h74.77z"/></g><path d="m967.9 991.43v36.12h-20.453v-36.12h-35.411v-20.453h35.411v-34.903h20.453v34.903h35.513v20.453z" transform="matrix(1.0038-.01057.00837.99608 0 0)"/></g></g></svg>