<svg xmlns="http://www.w3.org/2000/svg" viewBox="0 0 252.56885 203.79033" width="252.57"><g transform="translate(208.87-170.12)"><g fill="#02b3f0"><path d="m-159.25 350.72v-23.19l-4.688-.732c-18.76-2.931-31.411-12.02-38.862-27.912l-3.326-7.094v-43.75-43.75l3.663-7.473c6.553-13.367 18.365-22.585 32.95-25.713 3.796-.814 36.786-1.145 91.54-.919l85.6.354 7.127 2.88c9.414 3.804 18.325 12.01 23.595 21.73l4.278 7.891v45 45l-3.51 7.147c-6.682 13.607-19.292 23.1-34.473 25.961-3.917.737-30.12 1.267-62.66 1.267h-55.93l-22.649 23.25-22.649 23.25v-23.19z"/><rect height="159.06" width="252.57" y="170.42" x="-208.87" rx="42.669"/></g><path fill="#fff" d="m-124.63 207.67c-13.831.048-27.614 7.299-34.719 21.734-4.238 8.611-4.289 24.699-.105 33.2 4.749 9.648 14.16 17.575 25.21 21.232 5.872 1.944 20.432.296 27.06-3.064 18.872-9.563 26.914-33.19 17.566-51.607-7.302-14.386-21.18-21.542-35.01-21.494zm44.13 2.254v36.25 36.25h11.875 11.875v-36.25-36.25h-11.875-11.875m75.22 0l-12.297.006-12.295.006-12.84 16.836-12.84 16.834 12.84 19.377 12.84 19.377 12.332.033 12.33.033-2.236-3.438v-.002c-1.23-1.891-6.999-10.595-12.818-19.344l-10.582-15.908 9.238-12.188c5.081-6.703 10.831-14.312 12.781-16.906l3.547-4.717m-118.54 19.19c7.653.232 14.941 5.471 16.512 13.846 1.239 6.604-3.034 14.947-9.287 18.14-5.826 2.972-9.223 3.159-14.635.803-11.421-4.973-13.694-20.726-4.148-28.758 3.441-2.895 7.55-4.149 11.559-4.03"/></g></svg>