<svg xmlns="http://www.w3.org/2000/svg" height="695.11" viewBox="0 0 599.99998 695.1059"><g transform="matrix(27.1081 0 0 27.1081-1172.07-3761.3)"><path d="m48.32 162.44c-.278.014-.95-.021-1.227-.043-.238-.021-.471-.059-.695-.143-.76-.233-1.116-.868-1.271-1.447-.556-3.169-.604-3.485-.604-3.485-1.58-.462-1.556-2.624-.714-2.803-.744-.429-1.012-3.564 1.876-4.758.341-.806.641-1.151 1.302-1.829-.233-.373-2.542-2.914-2.542-2.914l1.674-2.357c0 0 3.472-.557 4.898-.805-.202-.343-.434-.744-.682-1.303l1.55-1.612 4.957-.186-.036 1.449c-.05 1.165-.107 2.161-.167 3.326l.299-.124c1.085-.062 1.767-.125 2.821-.156-.042.796-.168 1.953-.225 2.747 1.568.839 2.781 2.13 3.71 3.631.593-.953 1.725-.064 1.727.808-.017.402-.039.805-.063 1.207.88.333.284 1.672.041 1.818.599.175.237 1.153.175 1.576-.129.815-.158 1.074-.321 1.883.055.363.03 1.445.044 1.693.015.569-.146.934-.598 1.065-.244.068-.617.14-.861.205-1.949 2.808-5.124 4.519-8.565 4.514-2.471-.004-4.52-.466-6.503-1.957" fill="#d30019"/><path d="m48.1 148.51c-.43-.509-2.735-3.076-3.1-3.534.21-.283 1.08-1.588 1.302-1.86 1.116-.186 4.389-.643 5.27-.806l-.744-1.674c.202-.183.407-.364.612-.543.202-.204.382-.433.572-.649l2.247-.091 2.247-.09-.069 1.107c-.023.557-.047 1.115-.072 1.673-.033.733-.068 1.401-.103 2.134l.704-.379c.414-.014 2.075-.125 2.48-.124-.023.359-.242 2.081-.272 2.459.912.494 1.736 1.123 2.452 1.873.7.755 1.274 1.609 1.706 2.544l.043-.027.043-.026.011-.148v-.147c.002-.171.058-.339.185-.459.129-.113.295-.143.46-.105.206.054.364.189.457.38.072.156.103.328.091.5-.019.233-.039.466-.061.699-.022.235-.045.47-.069.705.261-.206.419.129.481.282.196.231-.114 1.169-.394 1.257-.097.064.523.029.32.814-.062.332-.402 2.391-.473 2.719.013.292.058 1.403.029 1.926.014.278-.283.485-.47.545-.406.114-.814.224-1.223.329-.427.111-.855.216-1.284.318-.359.573-.796 1.088-1.294 1.544-.641.574-1.364 1.04-2.132 1.425-.252.123-.544.255-.831.237-.178-.019-.123-.143-.015-.227.271-.211.443-.516.567-.832.081-.214.164-.45.173-.681.006-.163-.063-.314-.181-.424-.133-.116-.303-.169-.477-.167l-.086.008-.085.007c-1.084.188-2.172.353-3.264.495-1.047.136-2.098.25-3.15.339-.608.052-1.217.095-1.826.129-.566.031-1.132.054-1.699.067-.439.004-.841-.168-1.168-.457-.367-.341-.507-.772-.633-1.253-.069-.308-.49-2.65-.451-2.849-.043-.349.069-.365.102-.436-.054-.016-.698.13-1.17-.653-.477-.792-.418-1.891.636-1.596-.992-.264-.992-1.969-.521-2.931.511-1.042 1.358-1.921 3.28-1.983.05 0 .132.019.186.031.147-.535.093-.527.651-1.395"/><g fill="#fff"><path d="m51.664 161.1c-.256-1.325-.495-2.656-.69-3.991-.054-.386-.1-.772-.142-1.158.172-.025.343-.049.515-.074.614.81 1.237 1.612 1.868 2.408.401-.945.802-1.891 1.201-2.837.182-.024.364-.05.545-.075.243 1.763.489 3.525.74 5.287-.365.051-.731.1-1.097.146-.125-.763-.246-1.527-.366-2.291-.208.503-.417 1-.627 1.508-.071.009-.141.018-.212.027-.362-.44-.72-.883-1.075-1.329.126.767.258 1.532.396 2.297-.352.031-.704.058-1.056.082"/><path d="m55.52 155.3c.249 1.763.497 3.525.746 5.288 1.01-.139 2.01-.295 3.01-.469-.032-.275-.066-.549-.099-.823-.634.113-1.268.22-1.903.32-.053-.461-.107-.922-.162-1.382.552-.081 1.104-.165 1.655-.252-.033-.294-.067-.588-.102-.882-.561.089-1.123.175-1.685.258-.065-.444-.13-.888-.197-1.332.612-.076 1.223-.155 1.834-.236-.047-.295-.094-.589-.142-.883-.984.136-1.967.267-2.952.393"/><path d="m61.65 154.56c.473.907.936 1.82 1.385 2.739.05.658.092 1.317.124 1.976.255-.062.508-.125.762-.19-.024-.675-.058-1.349-.103-2.02.187-.9.356-1.803.506-2.709-.269.013-.538.027-.808.039-.063.522-.131 1.042-.204 1.562-.225-.493-.455-.984-.688-1.473-.324.027-.649.053-.974.078"/><path d="m48.849 157.33c.151.985.318 1.967.504 2.946.036.139.124.242.272.257.076-.004.153-.008.229-.012.168-.036.227-.165.197-.327-.183-.974-.351-1.95-.504-2.929-.031-.169-.183-.256-.346-.244-.04.005-.08.001-.119.015-.143.033-.241.145-.233.294m-.892.207c.139.895.292 1.788.463 2.678.125.591.607 1.092 1.233 1.099.165-.005.33-.001.496-.016.643-.046.976-.616.9-1.222-.182-1.01-.35-2.023-.506-3.039-.131-.606-.673-.931-1.272-.88-.142.02-.284.039-.426.059-.628.099-.964.725-.888 1.321" fill-rule="evenodd"/><path d="m45.631 157.73c.093.887.259 1.764.457 2.633.131.481.492.985 1.033 1.015.143-.002.287-.004.43-.007.434-.045.687-.458.62-.871-.046-.274-.107-.548-.206-.808-.019-.069-.074-.112-.145-.11-.166.012-.331.022-.496.033-.101.021-.124.134-.107.222.046.204.092.408.14.611.013.115-.039.199-.153.226-.06-.002-.12-.003-.18-.005-.123-.013-.204-.124-.231-.237-.186-.899-.349-1.802-.494-2.709-.014-.131.072-.265.21-.272.041 0 .082 0 .123 0 .105.006.177.07.203.171.035.226.072.451.11.676.011.069.054.152.134.147.18-.018.36-.037.54-.056.089-.039.124-.119.117-.213-.034-.234-.067-.469-.099-.703-.097-.419-.389-.825-.86-.811-.114.007-.228.013-.342.02-.532.043-.854.542-.804 1.049"/><path d="m60.09 155.58c.152 1.155.291 2.313.413 3.472.155-.026.31-.053.465-.081.195-.041.259-.197.25-.383-.104-.933-.22-1.864-.347-2.794-.03-.162-.156-.285-.326-.275-.152.02-.304.04-.455.061m-1.17-.732c.242 1.741.461 3.486.65 5.233.494-.103.987-.21 1.479-.323.625-.127 1.132-.607 1.107-1.276-.092-.951-.2-1.901-.321-2.849-.152-.578-.617-1.021-1.241-.961-.559.06-1.116.119-1.674.176" fill-rule="evenodd"/><path d="m46.678 155.27c-.138.356-.316.698-.577.979-.265.262-.589.451-.967.473-.327-.004-.616-.146-.823-.398-.165-.228-.249-.497-.287-.773-.011-.103-.011-.207.021-.307.024-.063.061-.121.119-.157.123-.061.246.008.313.116.073.149.058.316.008.47-.035.159-.038.327.031.479.093.157.257.216.432.214.1-.006.198-.024.291-.06.162-.073.288-.197.389-.341.12-.183.203-.387.272-.594.165-.533.257-1.084.363-1.631.156-.806.278-1.752.971-2.289l.128-.085-.05.145c-.221.601-.291 1.237-.301 1.874.699-.245.942-.977.98-1.656.0001-.29-.048-.587-.236-.816-.346-.334-.825-.302-1.266-.229-.428.081-.808.296-1.119.598-.505.554-.743 1.267-.842 1.999-.021.227 0 .463.111.667.093.142.236.235.409.226.193-.023.409-.089.439-.31-.049-.174-.093-.378.013-.541.077-.091.195-.108.298-.05.093.065.144.177.142.29-.004.195-.053.39-.157.556-.169.23-.419.359-.691.429-.164.013-.322-.043-.46-.129-.142-.099-.25-.235-.331-.387-.12-.246-.174-.514-.198-.785-.019-.38.086-.746.236-1.092.14-.309.312-.603.536-.86.412-.442.904-.811 1.498-.961.422-.087.856-.122 1.28-.033.318.085.601.253.826.494.221.264.323.592.304.935-.023.244-.076.484-.163.714-.091.224-.214.434-.367.623-.332.376-.774.596-1.246.746-.054.497-.161.986-.329 1.457"/></g></g><g fill="#fff" fill-rule="evenodd"><path d="m343.25 187.56c-1.571-.018-2.67 1.452-2.844 3-.182 3.688-.133 7.546-1.688 10.969-.678.562-1.673.436-2.5.469-.645.281-1.417.833-1.5 1.594-.116.893.386 1.78 1.031 2.375.496.43 1.077.734 1.656 1.031-.876 6.416-1.014 13.189-3.875 19.12-.81 1.273-1.421 2.666-2.281 3.906-.777.695-2.513 3.2-3.688 2.688-.728-1.984.522-4.332.969-6.25 1.042-4.63 1.77-9.302 2.25-14.03.265-2.563.547-5.247-.875-7.563-1.29-1.703-3.371-2.25-5.438-1.969-1.703.38-2.938 1.65-4.063 2.906-.992 1.091-2.188 1.665-3.594.938-.298-1.488-1.365-2.778-2.969-2.844-1.852-.083-3.355 1.205-4 2.875-2.447 8.367-4.506 16.895-8.375 24.75-.81 1.621-1.435 3.884-3.469 4.281-1.885.066-2.101-1.903-1.969-3.375.893-5.738 2.753-11.236 4.125-16.875l1.156-4.844c.198-1.108.051-2.245-.594-3.188-.728-.893-1.901-1.739-3.125-1.656-2.249.132-4.072 1.775-4.75 3.875-1.769 7.177-2.84 14.597-6.03 21.344-1.141 2.282-2.141 4.973-4.688 6.03-1.902.496-2.476-1.288-2.344-2.875.513-4.448 1.886-8.712 2.813-13.09.579-2.976 1.157-5.976 1.719-8.969.066-1.621-.302-3.258-1.344-4.531-.744-.761-1.723-1.143-2.781-1.094-2.877.463-4.197 3.293-5.438 5.625-.794 1.455-1.78 2.857-3.219 3.75-.843.496-1.804.91-2.813.844-2.02-.099-2.964-2.931-3.625-4.469-2.067-3.406-5.895-4.895-9.781-4.531-5.126 1.058-9.452 3.893-12.875 7.813-3.77 4.663-6.229 10.06-8.03 15.75-.943 3.059-1.929 6.145-2.938 9.188-.496.843-1.23 2.205-2.156 3.313-1.075 1.29-2.42 2.196-3.875 1.469.099-.496.228-.973.344-1.469.612-2.679 1.289-5.354 2-8 1.108-4.068 2.21-8.134 3.219-12.219.86-3.803 1.013-7.543-2.625-9.875-2.993-1.554-5.979-.438-8.625 1.281-1.422 1.091-2.087 2.936-3.906 3.531-2.05.364-3.576-1.041-4.75-2.563-2.662-2.828-6.823-1.155-9.469.813-1.323 1.257-1.771 3.471-3.938 3.438-2.58-.529-3.402-3.693-6.03-4.156-3.125.05-5.98 2.597-7.188 5.375l-2.031 5.906c-1.869 5.49-3.659 10.995-5.594 16.469-.463 1.29-.927 2.585-1.406 3.875-1.075 2.547-3.413 3.986-5.844 5.094-.48.165-.996-.028-1.344-.375-.612-.794-.412-1.918-.313-2.844.232-1.968.767-3.865 1.313-5.75.083-.298.182-.592.281-.906 1.786-6.04 7.252-14.751 3.813-20.969-3.076-3.274-8-1.707-11.688-.5-6.201 2.265-11.283 6.333-15.5 11.344-.794.876-2.164 2.092-3.438 1.844-.909-.976-.051-2.552.313-3.594.711-2.133 1.401-4.808-.781-6.313-3.324-1.455-6.08 2.367-8.03 4.5-.827.893-1.602 1.837-2.594 2.531-.265-2.02-1.163-4.096-3.313-4.625-2.91-.265-4.791 2.154-6.03 4.469-.711 1.455-1.291 2.975-1.688 4.563-.728 2.298-1.425 4.961-2.219 7.656-1.885 6.383-4.483 12.957-10.469 15.438-.149.066-.289.107-.438.156-.099-.05-.167-.09-.25-.156-1.042-.876-.919-2.495-.688-3.719.678-2.943 1.364-5.886 2.125-8.813.215-.794.57-1.782 1-2.906 1.786-4.795 4.515-11.874.563-14.438-2.943-.843-6.04.846-8.688 1.938-4.928 2.117-9.298 5.223-12.688 9.406-.777 1.025-1.552 2.052-2.313 3.094-2.927 4.051-5.584 8.252-7.188 13.03-.232.794-.399 1.596-.531 2.406-.43 2.596-.299 5.205.313 7.719h-.031c.397 1.571.988 3.106 1.781 4.594 1.108 1.753 3.03 2.822 5.094 2.938 3.522.198 6.766-.831 8.75-3.906.595-1.058 1.063-2.513 2.188-3.125 2.265.579 2.211 4.733 5.188 4.75 2.365.017 4.644-1.633 6.281-3.188l2.656-2.063h.031l1.125-.875c0 .281-.002.577.031.875h-.031c.182 1.869 1.258 3.752 3.375 3.719 2.183-.033 3.6-1.817 4.344-3.719h.031c.182-.48.307-.943.406-1.406.794-2.1 1.567-4.212 2.344-6.313 1.918-5.192 3.863-10.361 6.06-15.438.364-.86.745-1.703 1.125-2.563.827-.281 1.328-1.098 2.188-1.313.546 1.72 1.37 3.131 2.594 3.875 1.025.612 2.319.748 3.906.219-1.902 4.845-3.423 9.977-3.125 15.219.033.43.075.883.125 1.313.38 1.984 1.209 3.82 2.813 5.094.744.513 1.578.982 2.438 1.313.893.331 1.822.518 2.781.469.992-.132 1.978-.27 2.938-.469 1.72-.331 3.368-.82 4.906-1.813 2.216-1.554 4.21-3.409 5.781-5.625.645 2.91 3.174 5.296 6.25 5.313 4.355.017 6.664-4.979 10.813-5.594h.031c.072-.003.161 0 .219 0 1.141 1.769 3.185 2.52 5.219 2.438 1.637-.248 2.846-1.181 3.656-2.438.645-.992 1.01-2.184 1.188-3.375 1.339-4.03 2.675-8.04 4.03-12.06h.031c1.439-4.25 2.925-8.473 4.563-12.656.579-1.141 1.666-1.908 2.625-2.719.86-.347 2.138-1.081 3.03-.469.38.413.287 1.052.188 1.531-1.124 4.779-2.208 9.583-3.531 14.313-.446 1.637-.908 3.286-1.438 4.906-.661 2-1.588 3.99-1.406 6.156.331 1.869 1.396 3.499 3 4.375.546.298 1.151.526 1.813.625.744-.116 1.418-.344 2.063-.625 2.348-1.042 4.113-3.119 5.188-5.5 1.191-3.274 2.256-6.597 3.281-9.938 1.554-5.077 2.962-10.219 4.5-15.313.314-.926 1.033-1.598 1.844-2.094 1.687-.86 3.02.312 3.219 2.031-.794 3.688-1.368 7.393-2.344 11.03-.397 1.455-.792 2.905-1.156 4.344-.546 2.199-1.018 4.407-1.25 6.656-.116 2.199.446 4.394 2.281 5.75 2.811 1.654 6.266 1.251 9.09-.188 2.927-1.753 5.246-4.693 8.719-5.438 2.431-.033 3.598 2.442 5.5 3.5 4.266 1.637 8.535.584 12.438-1.5 3.902-2.298 6.974-5.309 9.438-8.781 3.555-5.04 5.795-11.03 7.25-17.219.397-1.554 1.302-3.535 3.188-3.469 2.695.992.355 6.35-.125 8.219-.909 3.671-3.062 8.484-2.219 12.469.265 1.207.809 2.335 1.719 3.344 1.538 1.29 3.148 2.691 5.281 2.625 3.34-.446 6.156-2.211 8.438-4.625.364-.397.728-.881 1.125-1.344.48-.579 1.041-1.072 1.719-1.188.546.364 1.052.774 1.531 1.188 1.472 1.273 2.883 2.614 5 2.531 1.521-.331 2.473-1.506 3.531-2.531.695-.645 1.432-1.237 2.375-1.469 1.323-.033 2.379.741 3.438 1.469.976.661 1.951 1.268 3.125 1.219.909-.05 1.579-.541 2.125-1.219.843-1.091 1.326-2.659 1.656-3.75 2.431-8.4 3.974-17.197 8.125-24.969.86-1.257 3.936-5.01 5.375-2.594 1.01 4.217-1.276 8.528-2.219 12.563-.909 3.902-3.125 7.963-2.281 12.03.661 2.431 2.297 4.906 5.125 4.625 3.522-.777 6.419-2.95 9.313-5 .827 1.488 1.806 2.922 3.063 4.063 1.819 1.604 3.722 2.684 6.219 2.469 2.679-.446 4.628-2.393 6-4.625 1.158-2.117 1.837-4.406 2.531-6.688.728-2.646-1.172-5.05-2.594-1.875-1.025 2.646-2.289 6.998-5.844 6.75-1.042-.165-1.586-1.102-1.719-2.094-.132-1.141-.081-2.28-.031-3.438 1.439-8.218 2.407-16.521 4.375-24.656.843-.05 1.721-.094 2.531-.375.992-.413 1.351-1.319 1.219-2.344-.149-1.01-.76-1.884-1.719-2.281-.496-.248-.805-.752-.938-1.281-.38-2.464.382-4.865.531-7.313.017-2-.361-4.745-2.594-5.406-.242-.068-.463-.091-.688-.094m-88.44 27.781c.434-.037.877.012 1.344.188 4.812 3.919 1.246 11.773-.375 16.469-.909 2.547-2.601 8.503-5.313 11.844-1.521 1.885-3.361 2.939-5.594 2.063-.248-.678-.43-1.368-.563-2.063-1.042-5.258.876-10.789 2.563-15.75 1.079-2.952 3.742-12.393 7.938-12.75m-93.75 15.188c1.538 3.803-1.881 8.575-3.188 12.03-.149.397-.303.818-.469 1.281-1.703 5.03-4.242 13.411-10.625 11.344-1.339-3.853.701-7.789 2.719-11.344h.031c.628-1.124 1.252-2.225 1.781-3.25 2.1-4.03 4.695-8.708 9.375-10.03l.375-.031m-59.56 9.03c.761 1.24.728 2.743.281 4.281-.86 3.01-3.243 6.24-4.219 8.406-.678 1.604-1.525 4.501-2.781 7.03-1.604 3.241-3.82 5.894-7.094 4.406-.331-1.488-.371-2.968-.156-4.406.546-3.605 2.453-7.03 4.156-10.188 1.025-1.753 2.159-3.629 3.531-5.25 1.637-1.935 3.63-3.555 6.094-4.25l.188-.031" transform="matrix(1.63934 0 0 1.63934 0 .024)"/><g transform="matrix(27.1081 0 0 27.1081-1172.07-3761.3)"><path d="m58.31 150.37l-.033.288c-.383.03-.772.064-1.163.103l.006-.296 1.19-.095m.14-1.148l-.07.617-1.246.111.015-.623 1.301-.105m.141-1.23l-.071.616-1.357.121.015-.623 1.413-.114m.14-1.23l-.07.615-1.469.131.014-.623 1.525-.123m.14-1.23l-.07.614-1.581.14.015-.622 1.636-.132m-1.606-1.151l1.754-.143-.077.676-1.693.151.016-.684"/><path d="m54.856 151l-.087-.496.549-.029.062.457c-.174.022-.35.044-.524.068m1.264-.568c.018.156.036.292.051.407-.168.018-.336.038-.503.058l-.06-.438.512-.027zm-.856-.381l-.564.033-.101-.556.587-.031.078.554m.756-.598c.016.187.042.407.059.567l-.522.031-.079-.569.542-.029m-.894-.409l-.605.035-.109-.631.632-.034.082.63m.812-.678c.014.22.028.429.043.628l-.563.033-.081-.629.601-.032m-.953-.404l-.651.039-.119-.697.683-.037.087.695m.896-.749c.009.24.019.472.03.694l-.633.037-.085-.694.688-.037m-1.051-.506l-.71.042c-.037-.208-.081-.448-.13-.713l.755-.04.085.711m1.024-.771c.002.243.006.48.011.71l-.739.044c-.028-.239-.055-.475-.081-.71l.809-.044m-1.175-.501l-.795.047-.135-.712.851-.046c.025.234.052.47.079.711m1.185-.78c-.006.242-.009.479-.001.711l-.87.051c-.025-.239-.049-.476-.072-.711l.952-.051zm-1.343-.673l-.914.054-.149-.767.987-.053c.024.252.05.508.076.766m1.392-.843l-.026.764-1.043.062c-.023-.259-.044-.514-.063-.766l1.132-.06zm-1.537-.662l-1.061.062-.166-.846 1.157-.062c.022.275.046.558.07.846m1.585-.935l-.025.843-1.208.071c-.018-.286-.033-.568-.046-.845l1.279-.069zm-1.316-1.594l1.346-.055c0 0 .008.083-.008.825l-1.328.078c-.008-.288-.011-.57-.001-.848m-1.827.075l1.378-.056c.015.277.032.562.051.853l-1.256.074-.173-.871z"/><path d="m48.27 143.22c1.73 2.474 3.253 5.313 4.2 8.152l-.256.047c-1.029-2.902-2.733-5.786-4.543-8.11l.599-.089m1.105-.163c1.544 2.642 2.922 5.449 3.672 8.215l-.27.046c-.941-2.831-2.449-5.688-4.11-8.156l.708-.105m1.09-.161c1.382 2.73 2.532 5.49 3.162 8.282l-.283.045c-.818-2.887-2.14-5.743-3.613-8.218l.734-.109m1.102-.163c1.204 3.01 2.278 6.942 2.649 8.355l-.253.038c-.72-2.87-1.83-5.759-3.176-8.278l.78-.115m-4.276.631c1.855 2.353 3.64 5.18 4.633 8.11l-.356.07c-.28-.827-.886-2.401-1.891-3.982-1.208-1.901-2.675-3.752-2.964-4.113l.578-.085"/></g></g></svg>