<svg xmlns="http://www.w3.org/2000/svg" viewBox="0 0 600 229.99"><g transform="translate(-99.36 586.9)"><g fill="#e6e6e6"><path d="m119.89-586.9c-11.296 0-20.522 9.175-20.522 20.419v189.14c0 11.238 9.226 20.419 20.522 20.419h369.66c11.29 0 20.522-9.181 20.522-20.419v-189.14c0-11.244-9.232-20.419-20.522-20.419h-369.66"/><path d="m548.57-546.27v75.68h15.301v-32.825h34.32v32.825h15.301v-75.68h-15.301v27.501h-34.32v-27.501h-15.301"/><path d="m630.99-546.27v75.69h30.531c20.965 0 37.844-16.879 37.844-37.844s-16.879-37.844-37.844-37.844h-30.531m15.281 15.344h15.781c12.179 0 22 9.79 22 21.969v1.094c0 12.179-9.821 21.969-22 21.969h-15.781v-34.25-10.781"/></g><path fill="#faba00" d="m178.57-423.89v66.986h14.489v-66.986c.017-5.859 4.886-10.722 10.728-10.734h306.27v-14.489h-306.27c-13.91.029-25.19 11.302-25.22 25.22"/><path d="m179.25-547.36v76.65h13.765v-22.313c0-5.929.168-9.638.58-11.302.777-3.217 2.191-5.813 4.202-7.679 2.02-1.866 4.434-2.753 7.245-2.753 2.168 0 4.04.475 5.506 1.594 1.478 1.113 2.434 2.799 3.043 5.071.609 2.272.869 6.642.869 13.04v24.342h13.765v-36.658c0-6.369-1.71-11.197-4.926-14.489-3.761-3.785-8.282-5.651-13.765-5.651-2.811 0-5.662.568-8.404 1.739-2.741 1.165-5.413 3.03-8.114 5.361v-26.95zm-31.3 19.85c-3.321 0-6.503.632-9.418 1.884-2.909 1.269-5.61 3.136-8.114 5.651v-6.085h-13.765v75.49h13.765v-26.08c2.707 2.579 5.512 4.521 8.259 5.651 2.747 1.148 5.656 1.594 8.838 1.594 7.146 0 13.33-2.718 18.546-8.259 5.21-5.541 7.824-12.49 7.824-20.719 0-8.531-2.492-15.411-7.534-20.864-5.05-5.454-11.186-8.259-18.401-8.259m114.17 0c-7.216 0-13.568 2.515-19.13 7.534-6.329 5.749-9.418 12.953-9.418 21.589 0 8.07 2.805 14.935 8.404 20.575 5.604 5.645 12.362 8.404 20.285 8.404 5.396 0 10.305-1.194 14.779-3.767 4.468-2.544 7.981-6.172 10.577-10.722 2.591-4.532 3.912-9.418 3.912-14.634 0-5.187-1.339-10.02-3.912-14.489-2.579-4.474-6.138-7.975-10.722-10.577-4.584-2.608-9.574-3.912-14.779-3.912m63.32 0c-8.195 0-14.993 2.828-20.43 8.404-5.442 5.564-8.114 12.577-8.114 21.01 0 8.236 2.66 15.1 8.114 20.575 5.454 5.477 12.484 8.114 21.15 8.114 5.593 0 10.426-.922 14.489-2.898 4.069-1.971 7.511-5.01 10.432-9.128l-11.591-5.506c-3.727 3.628-8.154 5.361-13.33 5.361-4.341 0-7.923-1.142-10.722-3.477-2.793-2.307-4.579-5.494-5.216-9.418h44.627v-2.608c0-9.146-2.654-16.46-8.114-22.02-5.448-5.575-12.594-8.404-21.299-8.404m65.49 0c-2.678 0-5.268.556-7.824 1.594-2.544 1.037-5.407 2.852-8.549 5.506v-5.651h-13.91v55.35h13.91v-22.313c0-5.755.174-9.429.58-11.157.771-3.309 2.197-5.946 4.202-7.824 2.01-1.884 4.434-2.753 7.245-2.753 2.162 0 4.03.614 5.506 1.739 1.466 1.142 2.452 2.764 3.043 4.926.597 2.173.869 6.456.869 13.04v24.342h13.765v-36.658c0-6.364-1.571-11.09-4.781-14.344-3.825-3.819-8.583-5.796-14.05-5.796m29.702 1.449v55.35h13.91v-55.35zm21.879.29l18.981 26.23-20.864 28.978h15.793l13.04-18.11 13.185 18.11h16.08l-21.15-29.27 18.691-25.936h-15.793l-10.867 15.07-11.01-15.07zm-116.35 9.997c3.57 0 6.723.956 9.418 2.898 2.701 1.93 4.451 4.463 5.361 7.534h-30.14c1.559-3.419 3.385-5.755 5.216-7.1 2.921-2.168 6.282-3.333 10.142-3.332m-181.11 1.014c4.347 0 7.871 1.611 10.722 4.637 2.834 3.037 4.347 6.845 4.347 11.591 0 4.77-1.455 8.803-4.347 11.881-2.892 3.077-6.48 4.636-10.722 4.637-4.364 0-7.986-1.594-10.867-4.637-2.875-3.03-4.347-6.961-4.347-11.881 0-4.81 1.472-8.752 4.347-11.736 2.88-2.973 6.503-4.492 10.867-4.492m117.36.29c4.399 0 8.03 1.536 10.867 4.492 2.834 2.956 4.202 6.845 4.202 11.591 0 4.747-1.46 8.583-4.347 11.591-2.875 3.02-6.375 4.492-10.722 4.492-4.341 0-8.04-1.507-10.867-4.492-2.84-2.973-4.202-6.775-4.202-11.591 0-4.677 1.484-8.595 4.347-11.591 2.875-2.996 6.404-4.492 10.722-4.492"/></g></svg>