<svg xmlns="http://www.w3.org/2000/svg" viewBox="0 0 600 336"><g transform="translate(-4.713 639.9)"><path fill="#e6e6e6" d="m34.695-639.9c-16.502 0-29.981 13.404-29.981 29.83v276.32c0 16.418 13.479 29.83 29.981 29.83h540.04c16.494 0 29.981-13.413 29.981-29.83v-276.32c0-16.426-13.487-29.83-29.981-29.83h-540.04"/><path fill="#faba00" d="m120.43-401.77v97.86h21.17v-97.86c.025-8.56 7.138-15.664 15.672-15.681h447.43v-21.17h-447.43c-20.321.042-36.798 16.511-36.84 36.848"/><path d="m121.42-582.14v111.98h20.11v-32.598c0-8.662.246-14.08.847-16.511 1.135-4.699 3.2-8.493 6.139-11.219 2.946-2.726 6.477-4.02 10.584-4.02 3.167 0 5.901.694 8.04 2.328 2.159 1.626 3.556 4.09 4.445 7.409.889 3.319 1.27 9.703 1.27 19.05v35.561h20.11v-53.55c0-9.305-2.498-16.358-7.197-21.17-5.495-5.529-12.1-8.255-20.11-8.255-4.107 0-8.272.83-12.277 2.54-4 1.702-7.908 4.42-11.854 7.832v-39.37zm-45.722 28.999c-4.852 0-9.5.923-13.759 2.752-4.25 1.854-8.196 4.581-11.854 8.255v-8.89h-20.11v110.28h20.11v-38.1c3.954 3.768 8.05 6.604 12.06 8.255 4.01 1.676 8.264 2.329 12.912 2.328 10.44 0 19.474-3.971 27.09-12.06 7.612-8.094 11.43-18.246 11.43-30.27 0-12.463-3.641-22.514-11.01-30.481-7.375-7.967-16.341-12.07-26.883-12.07zm166.8 0c-10.541 0-19.821 3.675-27.941 11.01-9.246 8.399-13.759 18.924-13.759 31.54 0 11.794 4.098 21.82 12.277 30.06 8.188 8.247 18.06 12.277 29.634 12.277 7.883 0 15.05-1.744 21.591-5.504 6.528-3.717 11.659-9.02 15.452-15.664 3.785-6.621 5.715-13.759 5.715-21.379 0-7.578-1.956-14.64-5.715-21.17-3.768-6.537-8.967-11.651-15.664-15.452-6.697-3.81-13.987-5.715-21.591-5.715zm92.5 0c-11.972 0-21.904 4.132-29.846 12.277-7.95 8.128-11.854 18.373-11.854 30.693 0 12.03 3.886 22.06 11.854 30.06 7.967 8 18.238 11.854 30.905 11.854 8.171 0 15.232-1.346 21.17-4.233 5.944-2.879 10.973-7.315 15.241-13.336l-16.934-8.04c-5.444 5.3-11.913 7.832-19.474 7.832-6.342 0-11.574-1.668-15.664-5.08-4.081-3.37-6.689-8.03-7.62-13.759h65.2v-3.81c0-13.361-3.878-24.05-11.854-32.17-7.959-8.145-18.399-12.277-31.12-12.277m95.68 0c-3.912 0-7.697.813-11.43 2.328-3.717 1.516-7.9 4.166-12.489 8.04v-8.255h-20.321v80.86h20.321v-32.598c0-8.408.254-13.776.847-16.299 1.126-4.835 3.209-8.687 6.139-11.43 2.93-2.752 6.477-4.02 10.584-4.02 3.158 0 5.893.897 8.04 2.54 2.142 1.668 3.582 4.04 4.445 7.197.872 3.175 1.27 9.432 1.27 19.05v35.561h20.11v-53.55c0-9.297-2.295-16.206-6.985-20.956-5.588-5.58-12.539-8.467-20.532-8.467m43.39 2.117v80.86h20.321v-80.86zm31.963.423l27.729 38.31-30.481 42.33h23.07l19.05-26.459 19.262 26.46h23.496l-30.904-42.758 27.306-37.89h-23.07l-15.876 22.01-16.09-22.01zm-169.97 14.606c5.216 0 9.822 1.397 13.759 4.234 3.946 2.819 6.503 6.52 7.832 11.01h-44.03c2.278-4.995 4.945-8.408 7.62-10.372 4.267-3.167 9.178-4.869 14.817-4.869m-264.59 1.482c6.35 0 11.498 2.354 15.664 6.774 4.14 4.437 6.35 10 6.35 16.934 0 6.968-2.125 12.861-6.35 17.357-4.225 4.496-9.466 6.773-15.664 6.774-6.376 0-11.667-2.329-15.876-6.774-4.2-4.428-6.35-10.169-6.35-17.357 0-7.03 2.151-12.785 6.35-17.15 4.208-4.344 9.5-6.562 15.876-6.562m171.46.424c6.427 0 11.735 2.244 15.876 6.562 4.14 4.318 6.139 10 6.139 16.934s-2.134 12.54-6.35 16.934c-4.2 4.411-9.314 6.562-15.664 6.562-6.342 0-11.744-2.202-15.876-6.562-4.149-4.344-6.139-9.898-6.139-16.934 0-6.833 2.167-12.557 6.35-16.934 4.2-4.377 9.356-6.562 15.664-6.562"/></g></svg>