<svg xmlns="http://www.w3.org/2000/svg" viewBox="0 0 158.75 60.720615" width="600" height="229.5"><g fill="#ec0177"><path d="m128.28 36.745c0 8.147 6.84 14.789 15.24 14.789 8.4 0 15.23-6.642 15.23-14.789 0-8.164-6.83-14.794-15.23-14.794-8.4 0-15.24 6.63-15.24 14.794m1.8-.006c0-7.206 6.02-13.05 13.43-13.05 7.45 0 13.48 5.849 13.48 13.05 0 7.217-6.03 13.07-13.48 13.07-7.41 0-13.43-5.856-13.43-13.07"/><path d="m136.5 44.612l5.332-7.586-4.934-7.01h3.092l2.24 3.422q.632.976 1.017 1.635.605-.907 1.113-1.608l2.46-3.449h2.955l-5.04 6.871 5.428 7.723h-3.037l-2.996-4.535-.797-1.223-3.834 5.758h-2.996" stroke-width=".587" transform="scale(1.0006.99939)"/><path d="m47.38 0h-6.703v6.884h7.482v-6.884h-.779"/><path d="m47.39 11.01h-6.704v37.565h7.482v-37.565h-.778"/><path d="m61.37 15.191v-4.172h-7.141v37.559h7.482v-21.12c0-1.53.216-2.97.626-4.249.41-1.259 1.029-2.365 1.843-3.311.8-.917 1.808-1.648 3.02-2.169 1.224-.508 2.719-.765 4.409-.765 2.089 0 3.659.563 4.829 1.724 1.16 1.162 1.71 2.706 1.71 4.743v25.15h7.48v-24.45c0-2-.21-3.853-.61-5.515-.41-1.711-1.15-3.213-2.21-4.465-1.05-1.237-2.46-2.225-4.13-2.927-1.67-.689-3.77-1.037-6.228-1.037-4.77 0-8.477 1.697-11.08 5.01"/><path d="m98.47.373h-6.7v48.2h7.48v-14.08c.4-.382 3.66-3.387 4.65-4.304.93 1.404 12.05 18.386 12.05 18.386h9.4c0 0-15.06-22.516-15.76-23.58.9-.849 15.26-13.999 15.26-13.999h-10.25c0 0-13.13 12.566-15.35 14.701v-25.327h-.78"/><path d="m18.324 10.185c-2.601 0-5.02.48-7.198 1.426-1.474.639-2.677 1.565-3.644 2.719v-3.31h-7.482v49.7h7.482v-15.598c.397.424.828.828 1.301 1.182 1 .772 2.079 1.37 3.199 1.808 1.112.439 2.253.758 3.394.96 1.126.195 2.162.285 3.08.285 2.844 0 5.369-.528 7.532-1.537 2.148-1.029 3.977-2.448 5.417-4.235 1.418-1.759 2.497-3.852 3.192-6.203.695-2.35 1.043-4.861 1.043-7.468 0-2.621-.355-5.132-1.078-7.476-.709-2.357-1.801-4.464-3.22-6.279-1.446-1.822-3.254-3.289-5.417-4.346-2.156-1.078-4.715-1.628-7.601-1.628m-.855 6.781c1.759 0 3.31.34 4.603 1.029 1.301.681 2.379 1.606 3.213 2.753.835 1.183 1.474 2.532 1.892 4.04.41 1.523.633 3.109.633 4.708 0 1.696-.181 3.379-.536 4.985-.355 1.579-.932 2.991-1.71 4.201-.765 1.196-1.774 2.155-3.02 2.892-1.238.71-2.831 1.071-4.715 1.071-1.906 0-3.533-.347-4.855-1.05-1.321-.709-2.413-1.648-3.24-2.816-.842-1.155-1.461-2.538-1.857-4.075-.397-1.579-.598-3.241-.598-4.937 0-1.606.187-3.206.563-4.757.375-1.529.981-2.913 1.795-4.096.82-1.175 1.87-2.141 3.149-2.872 1.266-.716 2.838-1.077 4.688-1.077"/></g></svg>