<svg xmlns="http://www.w3.org/2000/svg" viewBox="0 0 600 262.92"><defs><clipPath id="0"><path d="m454.68 764.18h129.83v60.705h-129.83v-60.705"/></clipPath></defs><g transform="translate(-217.86-567.37)"><g clip-path="url(#0)" transform="matrix(5.3441 0 0-5.3441-2256.48 4941.31)"><path d="m0 0c0-5.759-4.669-10.428-10.428-10.428-5.76 0-10.429 4.669-10.429 10.428 0 5.759 4.669 10.428 10.429 10.428 5.759 0 10.428-4.669 10.428-10.428" fill="#8f1543" transform="translate(529.88 779.69)"/><path d="m0 0h-38.442v-3.7h36.995c.362 1.291.849 2.528 1.447 3.7" transform="translate(501.44 788.87)"/><path d="m0 0c.598-1.172 1.085-2.409 1.447-3.7h36.36v3.7h-37.809" transform="translate(537.47 788.87)"/><path d="m0 0c.051-.584.082-1.174.082-1.771 0-.651-.034-1.294-.094-1.928h35.7v3.699h-35.688" transform="translate(539.59 781.46)"/><path d="m0 0c0 .597.031 1.187.082 1.771h-36.32v-3.699h36.33c-.06.634-.094 1.277-.094 1.928" transform="translate(499.24 779.69)"/><path d="m0 0h-37.04v-3.699h38.523c-.61 1.171-1.109 2.408-1.483 3.699" transform="translate(500.04 774.06)"/><path d="m0 0c-.374-1.291-.873-2.528-1.483-3.699h37.89v3.699h-36.407" transform="translate(538.87 774.06)"/><path d="m0 0h1.4c1.102 0 1.876.191 2.321.574.446.383.669.873.669 1.47 0 .58-.194 1.072-.58 1.476-.387.403-1.115.605-2.183.605h-1.627v-4.125m-5.74 7.885h9.499c2.069 0 3.619-.492 4.649-1.476 1.03-.984 1.546-2.385 1.546-4.201 0-1.868-.562-3.327-1.685-4.378-1.122-1.051-2.836-1.577-5.14-1.577h-3.129v-6.862h-5.74v18.494" transform="translate(468.75 810.58)"/><path d="m0 0h5.715v-13.94h8.919v-4.554h-14.634v18.494" transform="translate(481.69 818.46)"/><path d="m0 0l-2.042 6.648-2.02-6.648h4.061m1.185-3.999h-6.488l-.901-3.053h-5.835l6.951 18.494h6.233l6.95-18.494h-5.984l-.926 3.053" transform="translate(509.11 807.02)"/><path d="m0 0h5.337l6.963-10.232v10.232h5.387v-18.494h-5.387l-6.926 10.154v-10.154h-5.374v18.494" transform="translate(519.06 818.46)"/><path d="m0 0h15.315v-3.948h-9.587v-2.94h8.893v-3.772h-8.893v-3.646h9.865v-4.188h-15.593v18.494" transform="translate(540.53 818.46)"/><path d="m0 0h17.371v-4.567h-5.828v-13.927h-5.715v13.927h-5.828v4.567" transform="translate(557.9 818.46)"/></g></g></svg>