<svg xmlns="http://www.w3.org/2000/svg" height="268.08" width="600" viewBox="0 0 158.75 70.929705"><g transform="translate(60.971-243.89)"><path d="m-60.971 295.14h133.7l.005-31.6h-133.7l-.005 31.6" fill="#504748"/><path d="m-29.798 279.36c0-19.59 15.878-35.47 35.465-35.47s35.465 15.88 35.465 35.47c0 19.58-15.878 35.46-35.465 35.46s-35.465-15.88-35.465-35.46" fill="#e85412"/><path d="m-60.968 263.55v31.62h46.555v-15.84l15.785-15.78" fill="#504748"/><g fill="#fff"><path d="m60.1 275.41c-.127 0-.225-.09-.225-.22v-5.62c0-.12-.101-.22-.225-.22h-4.953c-.124 0-.225.1-.225.22v5.62c0 .13-.106.22-.228.22h-6.472c-.127 0-.225.11-.225.23v5c0 .12.098.23.225.23h6.472c.122 0 .228.1.228.22v6.6c0 .12.101.22.225.22h4.953c.124 0 .225-.1.225-.22v-6.6c0-.12.098-.22.225-.22h6.02c.127 0 .225-.11.225-.23v-5c0-.12-.098-.23-.225-.23"/><path d="m-48.02 273.23h-1.61v4.63h1.586c1.755 0 2.646-.77 2.646-2.3 0-1.56-.867-2.33-2.622-2.33m1.41 8.51h-3.02v6.16h-4.822v-18.55h7.667c1.981 0 3.513.51 4.626 1.55 1.215 1.14 1.806 2.68 1.806 4.61 0 4.15-2.076 6.23-6.257 6.23"/><path d="m-38.722 287.9h4.454v-18.56h-4.454v18.56"/><path d="m-23.21 279.56c-.57-.56-1.238-.84-2.031-.84-.79 0-1.458.28-2.025.84-.57.57-.843 1.24-.843 2.01 0 1.61 1.262 2.89 2.868 2.89.793 0 1.461-.27 2.031-.84s.84-1.24.84-2.03-.27-1.46-.84-2.03m.716 8.34v-1.39c-.223.28-.371.45-.469.52-.865.87-2 1.29-3.415 1.29-1.856 0-3.388-.67-4.6-2.03-1.188-1.31-1.781-2.87-1.781-4.72 0-2.68 1.458-5.12 3.86-6.19.766-.32 1.582-.49 2.473-.49 1.185 0 2.177.25 2.967.76.273.18.594.47.965.87v-1.24h4.454v12.62"/><path d="m-7.549 287.9v-7.17c0-.87-.324-1.46-.992-1.84-.321-.17-.692-.27-1.063-.27-1.559 0-2.349.87-2.349 2.58v6.7h-4.454v-12.52h4.454v1.59c1.087-1.24 2.447-1.86 4.056-1.86 1.508 0 2.723.45 3.635 1.36.769.77 1.164 1.93 1.164 3.46v7.97"/><path d="m7.756 279.89c-.347-1.34-1.212-2.01-2.598-2.01-1.408 0-2.251.67-2.521 2.01h5.12m-5.244 2.57c.024 1.88.941 2.82 2.723 2.82.939 0 1.657-.4 2.174-1.19h4.306c-.273.94-.668 1.68-1.137 2.23-1.212 1.38-3.02 2.07-5.369 2.07-2.177 0-3.932-.59-5.244-1.8-1.312-1.21-1.956-2.85-1.956-4.85 0-2.05.62-3.69 1.882-4.9 1.259-1.21 2.993-1.8 5.146-1.8 2.153 0 3.81.61 5.02 1.85 1.212 1.24 1.832 2.95 1.832 5.1v.47"/><path d="m18.726 279.07v8.83h-4.451v-8.83h-1.461v-3.69h1.461v-3.76h4.451v3.76h2.551v3.69"/><path d="m31.945 279.89c-.344-1.34-1.209-2.01-2.595-2.01-1.411 0-2.251.67-2.524 2.01h5.119m-5.244 2.57c.027 1.88.941 2.82 2.723 2.82.938 0 1.657-.4 2.177-1.19h4.305c-.273.94-.668 1.68-1.14 2.23-1.211 1.38-3.02 2.07-5.366 2.07-2.179 0-3.934-.59-5.247-1.8-1.309-1.21-1.954-2.85-1.954-4.85 0-2.05.621-3.69 1.88-4.9 1.262-1.21 2.993-1.8 5.146-1.8s3.81.61 5.02 1.85c1.215 1.24 1.832 2.95 1.832 5.1v.47"/></g><g fill="#504748"><path d="m78.8 267.86v-4.36h-2.935v11.29h2.935v-4.66h2.863v-2.27"/><path d="m83.03 267.18v7.61h2.935v-11.29h-2.935"/><path d="m96.11 265.2c-1.097-1.13-2.391-1.7-3.881-1.7h-4.322v2.48h3.2.398c1.927 0 3.205 1.23 3.205 3.16s-1.278 3.16-3.205 3.16h-.663v-4.95h-2.935v7.44h4.322c1.503 0 2.797-.56 3.897-1.68 1.098-1.12 1.654-2.45 1.654-3.97 0-1.51-.556-2.81-1.67-3.94"/></g></g></svg>