<svg xmlns="http://www.w3.org/2000/svg" height="706.93" enable-background="new 0 0 200 200" viewBox="0 0 600.00001 706.93238"><defs><clipPath id="0"><path d="m-8.182-6.867h15.525v16.558h-15.525v-16.558"/></clipPath></defs><g transform="translate(-642 73.49)"><g fill="#fff"><path d="m641.99-73.49v2.7 606.42 2.7h2.7 568.55 2.7v-2.7-606.42-2.7h-2.7-568.55-2.7" color="#000"/><path d="m645.28 564.75v66.949h19.724v-20.844h9.955c17.311 0 25.01-9.111 25.01-23.519 0-13.791-8.355-22.586-25.666-22.586h-29.03m19.725 15.617h5.6c4.173 0 10.577.789 10.577 7.03 0 5.77-3.391 7.84-7.964 7.84h-8.213v-14.871"/><path d="m705.59 631.69v-66.922h19.743v51.32h27.11v15.605h-46.853"/><path d="m775.88 564.75l-21.59 66.949h19.319l2.271-8.804h19.662l2.333 8.804h19.662l-21.559-66.949h-20.1zm9.893 20.16l6.346 23.986h-12.475l6.129-23.986"/><path d="m853.1 631.69h-19.743v-24.388l-22.428-42.534h22.1l10.379 22.646 10.379-22.646h21.739l-22.428 42.17v24.751"/><path d="m880.13 564.75v66.949h29.368c15.642 0 25.946-5.202 25.946-20.19 0-7.222-3.516-13.486-10.05-15.337 3.847-2.686 7.84-7.731 7.84-14.591 0-13.319-10.791-16.831-24.328-16.831h-28.777m19.755 15.617h6.938c4.173 0 7.995.063 7.995 5.289 0 3.883-2.831 5.818-6.751 5.818h-8.182v-11.11m0 23.333h6.284c6.242 0 10.826.374 10.826 6.253 0 5.01-3.661 6.129-8.524 6.129h-8.586v-12.382"/><path d="m972.31 562.98c-18.726 0-31.546 13.639-31.546 34.688 0 22.791 12.674 35.777 31.546 35.777 17.819 0 31.608-12.804 31.608-35.559 0-17.747-10.09-34.905-31.608-34.905zm-.156 16.364c8.674-.29 12.07 9.396 12.07 18.542 0 11.03-3.387 19.2-11.915 19.2-9.436 0-11.76-10.666-11.76-19.2 0-8.529 2.64-18.542 11.604-18.542"/><path d="m1048 631.69h-19.743v-24.388l-22.428-42.534h22.1l10.38 22.646 10.343-22.646h21.775l-22.428 42.17v24.751z"/><path d="m1100.7 564.75h55.24v17.565h-17.747v49.36h-19.743v-49.36h-17.747v-17.565"/><path d="m1158.6 564.75h19.888l10.561 44.53 10.96-44.53h19.924l-20.94 66.922h-19.815l-20.577-66.922"/><path d="m1224.2 612.44v13.844h2.458v-5.444h1.929c1.27 0 2.198.202 2.707.529.871.472 1.338 1.514 1.338 3.111v1.12l.031.436c0 .073-.0001.119.031.156 0 .073 0 .093.031.093h2.302l-.094-.124c-.036-.109-.052-.353-.124-.716v-1.027-1.027c0-.653-.27-1.421-.778-2.147-.508-.726-1.276-1.187-2.364-1.369.835-.109 1.551-.363 2.02-.653.907-.581 1.338-1.535 1.338-2.769 0-1.742-.695-2.904-2.147-3.484-.798-.363-2.059-.529-3.764-.529h-4.915m2.459 1.742h2.084c1.379 0 2.37.13 2.987.529.617.327.933.975.933 1.991 0 1.052-.519 1.784-1.462 2.147-.508.218-1.25.342-2.302.342h-2.24v-5.01"/><path d="m1229.4 606.84c-3.448 0-6.43 1.234-8.897 3.702-2.468 2.432-3.702 5.413-3.702 8.898s1.239 6.461 3.671 8.929c2.468 2.468 5.445 3.702 8.928 3.702 3.52 0 6.492-1.234 8.96-3.702 2.432-2.468 3.671-5.445 3.671-8.929s-1.239-6.466-3.671-8.898c-2.468-2.468-5.439-3.702-8.96-3.702m0 1.711c3.01 0 5.579 1.094 7.684 3.236 2.105 2.105 3.142 4.677 3.142 7.653 0 3.01-1.037 5.574-3.142 7.715-2.105 2.105-4.672 3.204-7.684 3.204s-5.61-1.099-7.715-3.204c-2.105-2.141-3.111-4.703-3.111-7.715 0-2.976 1.01-5.548 3.111-7.653 2.141-2.141 4.703-3.236 7.715-3.236"/></g><g clip-path="url(#0)" transform="matrix(36.2916 0 0-36.2916 944.31 283.75)"><path d="m0 0c-.422-.141-.669-.563-.669-1.021.035-.388.247-.775.634-.95.387-.176.845-.071 1.162.211.282.281.388.739.282 1.126-.212.599-.881.811-1.409.634m7.395 1.197c.739-1.126 1.584-2.254 1.655-3.696.14-1.656 0-3.486-.846-4.895-1.373-.775-2.852-1.339-4.366-1.797-.176.353.071.811.036 1.268-1.022-.14-1.937-.88-2.888-1.337-.458.352-.422.986-.352 1.548l.282.775c-1.62.458-3.795 1.534-4.261 2.958-.351 1.217.247 2.782 1.303 3.768 1.514 1.585 3.486 2.042 5.599 2.218-1.867.845-3.874 1.408-5.493 2.887-2.254 2.254-4.049 4.754-3.979 7.958 4.718-1.971 8.732-6.479 11.408-10.81.106 1.867.036 3.803.705 5.458.704 2.359 2.676 4.437 4.753 5.951-.07-4.472-.035-9.155-3.556-12.254"/></g></g></svg>