<svg xmlns="http://www.w3.org/2000/svg" height="134.71" viewBox="0 0 142.23859 134.70728" width="142.24"><g transform="translate(197.09-2.441)"><g fill="#fff"><rect height="44.619" width="99.53" y="61.78" x="-180.76" rx="22.309"/><rect height="37.18" width="98.96" y="87.52" x="-177.9" rx="18.591" ry="18.59"/><rect height="42.903" width="66.36" y="85.23" x="-140.15" rx="18.591"/></g><path d="m-151.73 136.78c-.688-.256-4.52-1.139-8.516-1.961-9.03-1.858-14.4-6.333-20.1-16.742-8.334-15.218-14.163-38.36-16.408-65.16-1.771-21.13 3.624-45.615 10.909-49.51 1.452-.777 6.166-1.151 10.842-.86 19.2 1.194 52.935 23.517 83.954 55.55 12.144 12.542 23.694 25.743 23.694 27.08 0 .407 1.673 3.219 3.718 6.248 4.857 7.197 8.782 16.46 8.782 20.725 0 8.548-16.701 17.436-41.653 22.17-9.165 1.738-52.04 3.653-55.22 2.466zm69.41-17.06c.668-1.249 1.215-10.351 1.215-20.228 0-18.544-.604-20.957-5.25-20.957-1.954 0-2.25 1.16-2.25 8.826v8.826l-4.688-.388-4.688-.388-.387-6.837c-.424-7.48-1.798-10.04-5.391-10.04-2.081 0-2.347 1.031-2.347 9.1 0 11.942 1.566 14.2 10.634 15.333l6.866.858v9.02c0 4.962.336 9.359.747 9.77 1.178 1.178 4.205-.405 5.537-2.895m-80.3-7.848l.365-9.587h4.385c6.938 0 11.51-3.02 12.491-8.249 1.187-6.329-1.231-13.509-5.153-15.295-5.209-2.373-13.953-1.831-16.828 1.044-2.277 2.277-2.5 4.167-2.5 21.19 0 16.48.258 18.838 2.188 19.96 3.845 2.235 4.679.738 5.05-9.06m.26-22.09v-5.151l4.688.388c4.45.368 4.688.61 4.688 4.763s-.238 4.395-4.688 4.763l-4.688.388v-5.151m25 31.32c0-.647-.563-1.524-1.25-1.949-1.661-1.027-1.609-5.625.064-5.625.723 0 2.136 1.969 3.142 4.375s2.412 4.375 3.125 4.375c1.267 0 4.919-7.396 4.919-9.96 0-2.319-2.311-1.354-3.16 1.319l-.828 2.609-1.842-2.63c-1.013-1.446-2.321-2.334-2.905-1.972-.585.362-1.948-.227-3.03-1.309s-2.533-1.616-3.226-1.188c-1.641 1.014-1.62 7.622.034 10.713 1.319 2.465 4.956 3.376 4.956 1.242m23.19-.182c.605-.979 1.22-.979 2.199 0 1.992 1.992 3.353 1.66 3.399-.829.038-2.083.119-2.083 1.7 0 1.786 2.353 4.51 2.949 4.51.987 0-.66-.791-1.926-1.758-2.813-1.506-1.38-1.461-1.953.313-3.986 1.981-2.272 1.922-2.339-1.367-1.539-3.061.745-3.438.492-3.438-2.313 0-3.745-2.455-4.215-3.388-.649-.36 1.375-1.395 2.5-2.3 2.5s-1.824 1.424-2.042 3.164c-.546 4.367-2.762 4.342-3.52-.039-.344-1.984-1.188-3.359-1.875-3.054-1.182.524-1.18 4.948.005 8.367.665 1.919 6.406 2.074 7.562.204m-20.969-37.4c.307-15.926.09-18.289-1.801-19.672-5.03-3.678-5.422-2.454-5.422 16.928 0 18.905.731 22.02 4.974 21.21 1.577-.303 1.96-3.445 2.25-18.464m26.526 8.756c0-11.973-1.98-15-9.815-15-10.515 0-17.57 9.324-13.517 17.865 2.579 5.435 5.905 6.946 15.519 7.05l7.813.085v-10m-14.77 2.432c-4.269-1.713-3.347-7.575 1.456-9.255 2.956-1.034 3.856-.838 5.313 1.153 1.965 2.688 2.372 8.17.606 8.17-.631 0-1.897.246-2.813.547s-2.968.024-4.561-.616" fill="#0082c8"/></g></svg>