<?xml version="1.0" encoding="UTF-8" standalone="no"?>
<!-- Created with Inkscape (http://www.inkscape.org/) -->
<svg xmlns:rdf="http://www.w3.org/1999/02/22-rdf-syntax-ns#" xmlns="http://www.w3.org/2000/svg" height="224.49" width="600" version="1.1" xmlns:cc="http://creativecommons.org/ns#" xmlns:dc="http://purl.org/dc/elements/1.1/">
 <defs></defs>
 <metadata>
  <rdf:RDF>
   <cc:Work rdf:about="">
    <dc:format>image/svg+xml</dc:format>
    <dc:type rdf:resource="http://purl.org/dc/dcmitype/StillImage"/>
    <dc:title/>
   </cc:Work>
  </rdf:RDF>
 </metadata>
 <g transform="translate(-303.72375,-424.44017)">
  <path fill-rule="nonzero" fill="#231f20" d="m458.49,424.44,0,130.5,110.11,0,0-40.789-61.164,0,0-89.713"/>
  <path fill-rule="nonzero" fill="#231f20" d="m580.84,444.83,0,69.318c0,4.0866-4.0673,40.789,36.934,41.02,11.007,0.0578,52.798-0.23131,69.106-0.23131,40.789,0,40.789-36.702,40.789-40.789v-69.318c0-16.327,0-20.395-24.481-20.395-24.462,0-24.462,4.0673-24.462,20.395v53.01c0,8.154-4.0866,16.308-12.241,16.308h-24.462c-8.1732,0-12.241-8.154-12.241-16.308v-53.01c0-16.327,0.23131-20.395-24.481-20.395-24.693,0-24.462,4.0673-24.462,20.395"/>
  <path fill-rule="nonzero" fill="#231f20" d="m740.39,465.21c-1.0988,11.72,0,44.876,0,44.876s-3.1035,38.071,32.616,44.856c35.758,6.766,130.52,0,130.52,0v-73.405l-57.29-0.11566v25.349h9.06s2.6987,11.759-14.477,12.665c-17.195,0.906-45.762,3.4698-49.271-7.9419-2.9878-9.7732-1.0988-35.796-1.0988-35.796s3.4312-14.573,23.344-14.573h32.635v4.0866h57.097v-20.395s-3.6625-20.375-32.635-20.375h-93.799c-8.154,0-33.387,5.1854-36.702,40.77"/>
  <path d="M0,0v130.5h51.781v-40.781h62.189c24.23,0,32.65-16.317,32.65-32.625v-24.469c0-16.327-8.17-32.625-32.65-32.625h-113.97zm60.969,32.625h36.719c11.702,0,12.002,6.598,12.002,13.094,0,6.342-0.3,11.375-12.002,11.375h-36.719c-11.172,0-11.866-4.578-11.907-10.5v-0.344-0.031-0.5-0.5-0.031-0.344c0.04-6.184,0.723-12.219,11.907-12.219z" fill-rule="nonzero" transform="translate(303.72375,424.44017)" fill="#231f20"/>
  <g transform="matrix(19.276489,0,0,-19.276489,552.91086,561.90128)">
   <path fill-rule="nonzero" fill="#231f20" d="m0,0,1.72,0s3.446-4.073,8.282,0.577l0.406-0.385s-4.456-6.331-10.408-0.192"/>
  </g>
  <path d="M473.59,146.62c-7.59,0-13.24,1.68-16.9,5.04-3.67,3.33-5.47,8.79-5.47,16.4,0,4.42,0.67,8.06,2.06,10.91,1.39,2.87,3.92,5.17,7.56,6.81v0.19c-2.62,0.56-4.75,1.71-6.37,3.47-1.64,1.77-2.49,3.97-2.63,6.59-0.13,1.31-0.3,4.23-0.43,8.72-0.22,3.99-0.39,7.25-0.57,9.81-0.17,2.57-0.38,4.57-0.65,6.03-0.48,1.16-1.08,2.04-1.75,2.66v1.06h19.87c0.62-1.73,0.96-3.21,1.03-4.47,0.06-2,0.1-4.5,0.1-7.46,0-3.17,0.02-5.46,0.06-6.85,0.04-1.37,0.12-2.62,0.25-3.72,0.29-2.54,0.87-4.5,1.81-5.87,0.95-1.39,2.42-2.17,4.41-2.28h6v30.65h18.25v-77.69h-26.63zm6.57,14c0.57-0.01,1.18,0,1.81,0v19.04h-6.22c-2.41,0-4.08-0.9-5.06-2.69-0.97-1.79-1.47-4.09-1.47-6.94,0-4.01,0.88-6.56,2.59-7.72,1.52-0.99,4.3-1.56,8.35-1.69z" fill-rule="nonzero" transform="translate(303.72375,424.44017)" fill="#231f20"/>
  <path fill-rule="nonzero" fill="#231f20" d="m809.87,571.27,47.247,0,0,15.518-14.708,0,0,62.147-18.236,0,0-62.147-14.303,0"/>
  <path fill-rule="nonzero" fill="#231f20" d="m863.22,648.93,0-77.665,18.236,0,0,62.128,22.264,0,0,15.537"/>
 </g>
</svg>
