<svg xmlns="http://www.w3.org/2000/svg" viewBox="0 0 600 224.49"><g transform="translate(-303.72-424.44)" fill="#231f20"><path d="m458.49 424.44v130.5h110.11v-40.789h-61.16v-89.71"/><path d="m580.84 444.83v69.32c0 4.087-4.067 40.789 36.934 41.02 11.01.058 52.798-.231 69.11-.231 40.789 0 40.789-36.702 40.789-40.789v-69.32c0-16.327 0-20.395-24.481-20.395-24.462 0-24.462 4.067-24.462 20.395v53.01c0 8.154-4.087 16.308-12.241 16.308h-24.462c-8.173 0-12.241-8.154-12.241-16.308v-53.01c0-16.327.231-20.395-24.481-20.395-24.693 0-24.462 4.067-24.462 20.395"/><path d="m740.39 465.21c-1.099 11.72 0 44.876 0 44.876s-3.104 38.07 32.616 44.856c35.758 6.766 130.52 0 130.52 0v-73.4l-57.29-.116v25.349h9.06s2.699 11.759-14.477 12.665c-17.195.906-45.762 3.47-49.27-7.942-2.988-9.773-1.099-35.796-1.099-35.796s3.431-14.573 23.344-14.573h32.635v4.087h57.1v-20.395s-3.663-20.375-32.635-20.375h-93.8c-8.154 0-33.387 5.185-36.702 40.77"/><path d="m0 0v130.5h51.781v-40.781h62.19c24.23 0 32.65-16.317 32.65-32.625v-24.469c0-16.327-8.17-32.625-32.65-32.625h-113.97m60.969 32.625h36.719c11.702 0 12 6.598 12 13.09 0 6.342-.3 11.375-12 11.375h-36.719c-11.172 0-11.866-4.578-11.907-10.5v-.344-.031-.5-.5-.031-.344c.04-6.184.723-12.219 11.907-12.219" transform="translate(303.72 424.44)"/><path d="m0 0h1.72s3.446-4.073 8.282.577l.406-.385s-4.456-6.331-10.408-.192" transform="matrix(19.27649 0 0-19.27649 552.91 561.9)"/><path d="m473.59 146.62c-7.59 0-13.24 1.68-16.9 5.04-3.67 3.33-5.47 8.79-5.47 16.4 0 4.42.67 8.06 2.06 10.91 1.39 2.87 3.92 5.17 7.56 6.81v.19c-2.62.56-4.75 1.71-6.37 3.47-1.64 1.77-2.49 3.97-2.63 6.59-.13 1.31-.3 4.23-.43 8.72-.22 3.99-.39 7.25-.57 9.81-.17 2.57-.38 4.57-.65 6.03-.48 1.16-1.08 2.04-1.75 2.66v1.06h19.87c.62-1.73.96-3.21 1.03-4.47.06-2 .1-4.5.1-7.46 0-3.17.02-5.46.06-6.85.04-1.37.12-2.62.25-3.72.29-2.54.87-4.5 1.81-5.87.95-1.39 2.42-2.17 4.41-2.28h6v30.65h18.25v-77.69h-26.63m6.57 14c.57-.001 1.18 0 1.81 0v19.04h-6.22c-2.41 0-4.08-.9-5.06-2.69-.97-1.79-1.47-4.09-1.47-6.94 0-4.01.88-6.56 2.59-7.72 1.52-.99 4.3-1.56 8.35-1.69" transform="translate(303.72 424.44)"/><path d="m809.87 571.27h47.25v15.518h-14.708v62.15h-18.236v-62.15h-14.303"/><path d="m863.22 648.93v-77.66h18.236v62.13h22.264v15.537"/></g></svg>