<svg xmlns="http://www.w3.org/2000/svg" viewBox="0 0 600 198.48"><defs><clipPath id="0"><path d="m172.61 253.46c-.348-.295-.539-.613-.539-.895 0-.315.221-.91 1.057-.91.312 0 .521.113.663.262v-.798h-.739v-.328h1.804v.328h-.738v.833c.141-.166.359-.297.694-.297.836 0 1.058.595 1.058.91 0 .282-.192.6-.539.895l-1.36 1.155-1.361-1.155"/></clipPath></defs><g transform="translate(42.31-321.19)"><g clip-path="url(#0)" transform="matrix(39.53663 0 0-39.53663-6395.69 10387.88)"><path d="M0,0,0-1.084,4.842-0.124,3.19,1.626,0,0z" fill="#aaca26" transform="translate(171.88 253.18)"/><path d="M0,0,2.747,1.465,1.816,2.433,0,0z" fill="#c8d528" transform="translate(172.04 253.01)"/><path d="M0,0,3.944,1.136,4.91-2.248,0.403-2.924,0,0z" fill="#87bf35" transform="translate(171.77 252.99)"/><path d="M0,0,1.504,2.661,3.045-1.119-1.517-1.389,0,0z" fill="#51b33f" transform="translate(173.79 251.92)"/></g><g fill="#fff" transform="matrix(1.13503 0 0 1.13503-34.796-56.77)"><path d="m84.16 418.73c-7 8.151-17.1 12.435-29.19 12.435h-46.12v-80.987h46.12c26.787 0 38.978 21 38.978 40.511 0 10.729-3.483 20.691-9.788 28.04m-29.19-83.983h-61.59v172.88h15.466v-61.24h46.12c16.685 0 30.758-6.096 40.685-17.66 8.743-10.1 13.515-23.686 13.515-38.14 0-27.762-18.601-55.837-54.2-55.837"/><path d="m266.33 435.36c15.292-12.784 24.21-30.1 24.418-47.37.383-13.689-4.563-26.508-13.933-36.16-11.04-11.321-26.856-17.312-45.806-17.312-39.05 0-59.5 29.02-59.5 57.684v5.852h15.01v-5.852c0-20.447 13.898-42.46 44.48-42.46 14.421 0 26.299 4.389 34.38 12.714 6.688 6.897 10.206 16.09 9.927 25.881-.488 16.824-12.331 29.469-19.332 35.495l-80.74 68.55h-27.17v-142.43h34.28v-14.978h-83.77v14.978h34.28v142.43h-34.28v15.222h190.82v-15.222h-90.81l67.75-57.02z"/><path d="m358.41 450.97h-69.42l69.42-87.71v87.71m15.222 0v-116.45h-12.435l-94.61 120.28v11.39h91.82v41.66h15.222v-41.66h14.943v-15.222h-14.943z"/></g></g></svg>