<svg xmlns="http://www.w3.org/2000/svg" viewBox="0 0 600 805.35"><g transform="translate(216.58 572.43)"><path fill="#ff2c23" d="m83.981-443.76c-94.33 0-170.79 76.46-170.79 170.78 0 94.33 76.46 170.79 170.79 170.79 94.31 0 170.78-76.46 170.78-170.79 0-94.31-76.46-170.78-170.78-170.78m0 42.42c34.28 0 66.51 13.347 90.75 37.589 24.24 24.25 37.601 56.48 37.601 90.77 0 34.29-13.36 66.53-37.601 90.77-24.24 24.24-56.48 37.601-90.75 37.601-34.29 0-66.53-13.36-90.77-37.601-24.24-24.24-37.601-56.48-37.601-90.77 0-34.29 13.36-66.51 37.601-90.77 24.24-24.24 56.48-37.589 90.77-37.589"/><path fill="#fff000" d="m83.981-486.2c-28.774 0-56.701 5.653-83.01 16.784-25.387 10.733-48.19 26.1-67.757 45.67-19.56 19.56-34.937 42.36-45.67 67.757-11.131 26.309-16.771 54.24-16.771 82.997s5.64 56.689 16.771 83.01c10.733 25.387 26.11 48.19 45.67 67.757 19.573 19.56 42.37 34.925 67.757 45.67 26.309 11.131 54.24 16.771 83.01 16.771 28.761 0 56.689-5.64 82.997-16.771 25.387-10.745 48.2-26.11 67.757-45.67 19.56-19.573 34.937-42.37 45.67-67.757 11.131-26.321 16.771-54.25 16.771-83.01 0-28.761-5.64-56.689-16.771-82.997-10.733-25.4-26.11-48.2-45.67-67.757-19.56-19.573-42.37-34.937-67.757-45.67-26.309-11.131-54.24-16.784-82.997-16.784m0 42.43c94.31 0 170.78 76.46 170.78 170.78 0 94.33-76.46 170.79-170.78 170.79-94.33 0-170.79-76.46-170.79-170.79 0-94.31 76.46-170.78 170.79-170.78"/><path fill="#25cce0" d="m83.981-528.83c-34.588 0-68.17 6.773-99.79 20.16-30.529 12.911-57.934 31.388-81.47 54.908-23.52 23.532-41.997 50.936-54.908 81.47-13.385 31.625-20.17 65.2-20.17 99.79 0 34.576 6.786 68.16 20.17 99.78 12.911 30.529 31.388 57.946 54.908 81.47 23.532 23.532 50.936 41.997 81.47 54.908 31.625 13.385 65.2 20.17 99.79 20.17 34.576 0 68.16-6.786 99.78-20.17 30.529-12.911 57.934-31.376 81.47-54.908 23.52-23.52 41.997-50.936 54.908-81.47 13.385-31.625 20.17-65.2 20.17-99.78 0-34.588-6.786-68.17-20.17-99.79-12.911-30.529-31.388-57.934-54.908-81.47-23.532-23.52-50.936-41.997-81.47-54.908-31.625-13.385-65.2-20.16-99.78-20.16m0 43.12c117.75 0 213.2 95.45 213.2 213.21 0 117.75-95.45 213.21-213.2 213.21-117.76 0-213.21-95.46-213.21-213.21 0-117.76 95.45-213.21 213.21-213.21"/><g fill="#f60"><path d="m83.981-572.43c-40.41 0-79.64 7.919-116.58 23.544-35.659 15.09-67.68 36.668-95.17 64.16-27.479 27.491-49.07 59.5-64.15 95.17-15.626 36.942-23.557 76.16-23.557 116.56 0 40.41 7.931 79.62 23.557 116.58 15.08 35.659 36.668 67.68 64.15 95.16 27.491 27.491 59.52 49.08 95.17 64.16 36.942 15.626 76.16 23.557 116.58 23.557 40.4 0 79.62-7.931 116.56-23.557 35.659-15.08 67.68-36.668 95.17-64.16 27.479-27.479 49.07-59.5 64.16-95.16 15.626-36.954 23.544-76.16 23.544-116.58 0-40.4-7.919-79.62-23.544-116.56-15.09-35.672-36.68-67.68-64.16-95.17-27.491-27.491-59.51-49.07-95.17-64.16-36.942-15.626-76.16-23.544-116.56-23.544m0 43.12c141.57 0 256.32 114.76 256.32 256.32 0 141.57-114.76 256.32-256.32 256.32-141.57 0-256.32-114.76-256.32-256.32 0-141.57 114.76-256.32 256.32-256.32"/><path d="m-172.34 69.1h-43.12v-341.61h43.12v341.61"/></g><path fill="#25cce0" d="m-129.23 44.18h-43.12v-316.7h43.12v316.7"/><path fill="#fff000" d="m-86.11 20.228h-43.12v-292.74h43.12v292.74"/><g fill="#ff2c23"><path d="m-45.07-2.495h-41.735v-270.01h41.735v270.01"/><path d="m290.27 171.36l.062-45.26c0-4.42 3.374-8.02 7.495-8.02 4.134 0 7.495 3.598 7.495 8.03l.05 39.805c0 1.37.51 2.714 1.295 3.71 10.284 13.571 16.273 20.78 24.864 30.965 1.071 1.307 2.59 2.042 4.395 2.042.237 0 .697-.05.934-.087 17.17-2.129 30.48-16.858 30.48-34.663l-.012-42.44c0-4.408 3.349-7.993 7.471-7.993 4.134 0 7.508 3.586 7.508 7.993l.137 42.482c0 27.828-22.24 48.969-52.11 49.965-1.768 0-3.685-.635-4.756-1.893-11.405-13.09-17.294-20.307-26.04-31.04l-7.969-9.774c-.809-.984-1.307-2.415-1.307-3.822"/><path d="m-166.51 118.51c-28.19 0-50.06 26.953-50.06 50.12v56.28c0 4.42 3.479 8 7.75 8s7.719-3.586 7.719-8.03l-.094-20.25c9.288 8.94 21.688 13.969 34.687 13.969 27.616 0 50.06-22.427 50.06-50.03 0-27.603-22.446-50.06-50.06-50.06zm0 15.09c19.274 0 34.937 15.694 34.937 34.968 0 19.261-15.663 34.906-34.937 34.906s-34.937-15.644-34.937-34.906c0-15.738 16.12-34.968 34.937-34.968"/><path d="m-57.36 118.04c-27.591 0-50.03 22.44-50.03 50.03 0 27.603 22.44 50.06 50.03 50.06s50.06-22.458 50.06-50.06c0-27.591-22.471-50.03-50.06-50.03m0 15.09c19.274 0 34.937 15.676 34.937 34.937s-15.663 34.937-34.937 34.937c-19.261 0-34.937-15.676-34.937-34.937s15.676-34.937 34.937-34.937"/><path d="m53.12 217.5c-27.579 0-50.04-22.411-50.04-49.953l.112-57.54c0-4.408 3.362-8.01 7.483-8.01s7.483 3.598 7.483 8.02l.025 57.635c0 19.19 15.676 34.788 34.937 34.788 4.121 0 7.483 3.337 7.483 7.433 0 4.208-3.362 7.62-7.483 7.62"/><path d="m104.95 118.04c-27.603 0-50.03 22.44-50.03 50.03 0 27.603 22.427 50.06 50.03 50.06 27.616 0 50.06-22.458 50.06-50.06 0-27.591-22.446-50.03-50.06-50.03m0 15.09c19.274 0 34.968 15.676 34.968 34.937s-15.694 34.937-34.968 34.937-34.937-15.676-34.937-34.937 15.663-34.937 34.937-34.937"/><path d="m239.17 127.58l34.27-.1c4.433 0 8.03 3.362 8.04 7.483 0 4.146-3.611 7.52-8.03 7.533l-34.28-.037.025 25.412c0 19.19 15.663 34.8 34.925 34.8 4.134 0 7.483 3.337 7.483 7.446 0 4.196-3.349 7.607-7.483 7.607-27.579 0-50.03-22.411-50.03-49.965l.1-57.52c0-4.408 3.349-8.01 7.47-8.01 4.146 0 7.508 3.598 7.508 8.01v17.344z"/></g></g></svg>