<svg xmlns="http://www.w3.org/2000/svg" viewBox="0 0 230 236"><g transform="translate(9.953-270.52)"><g transform="matrix(1 0 0-1-45.945 830)"><path d="m0 0v-47.38c0-9.299 7.558-16.842 16.883-16.842h196.22c9.322 0 16.876 7.543 16.876 16.842v39.26h-213.1c-6.824 0-12.91 3.184-16.883 8.127" fill="#c7c9ca" transform="translate(36 387.91)"/><path d="m0 0h-196.22c-9.326 0-16.883-7.544-16.883-16.842v-138.96c0-9.302 7.557-16.847 16.883-16.847l213.1.001v155.8c0 9.298-7.553 16.842-16.875 16.842" fill="#b10034" transform="translate(249.11 559.28)"/><g fill="#fff"><path d="m0 0c0-1.928-.684-3.483-2.039-4.667-1.359-1.179-3.02-1.771-4.973-1.771h-11.915v4.41h11.915c1.65 0 2.48.678 2.48 2.028v2.834c0 1.451-.83 2.183-2.48 2.183h-16.12v-19.733h-4.533v24.02h20.629c1.959 0 3.621-.611 4.991-1.817 1.359-1.211 2.05-2.761 2.05-4.658v-2.834" transform="translate(90.24 354.58)"/><path d="m0 0c0-1.91-.692-3.468-2.073-4.677-1.381-1.219-3.034-1.819-4.969-1.819h-13.407c-1.936 0-3.594.6-4.973 1.819-1.382 1.209-2.069 2.767-2.069 4.677v11.09c0 1.791.718 3.315 2.149 4.582 1.433 1.275 3.067 1.911 4.893 1.911h13.407c1.825 0 3.448-.636 4.888-1.911 1.429-1.267 2.154-2.791 2.154-4.582v-11.09m-4.531-.045v11.137c0 .575-.266 1.094-.794 1.529-.525.451-1.092.675-1.699.675h-13.45c-.609 0-1.177-.224-1.699-.675-.522-.435-.79-.954-.79-1.529v-11.137c0-1.445.83-2.161 2.489-2.161h13.45c1.659 0 2.493.716 2.493 2.161" transform="translate(123.96 346.36)"/><path d="m0 0h-13.366c-1.933 0-3.58.6-4.955 1.819-1.371 1.21-2.058 2.767-2.058 4.677v17.585h4.527v-17.63c0-1.445.826-2.161 2.486-2.161h13.366v-4.29" transform="translate(151.31 339.86)"/><path d="m0 0h-20.09c-.606 0-1.17-.224-1.696-.662-.517-.445-.782-.966-.782-1.541v-1.199c0-1.442.832-2.159 2.478-2.159l13.441-.042c1.931 0 3.573-.582 4.926-1.738 1.41-1.248 2.114-2.814 2.114-4.72v-1.245c0-1.817-.722-3.357-2.149-4.61-1.438-1.251-3.063-1.876-4.882-1.876h-20.08v4.291h20.09c.608 0 1.174.212 1.7.639.522.426.787.947.787 1.553v1.25c0 1.441-.832 2.158-2.491 2.158l-13.43.037c-1.934 0-3.586.606-4.965 1.8-1.383 1.208-2.07 2.753-2.07 4.662v1.199c0 1.789.714 3.321 2.147 4.586 1.43 1.271 3.055 1.908 4.88 1.908h20.07v-4.291" transform="translate(184.19 359.66)"/><path d="m0 0h-4.843l-2.216 8.409h-11l1.038 4.407h8.8c-.19.734-.798 3.338-1.199 4.795-.402 1.452-1.225 2.183-2.466 2.183h-5.556c-1.264 0-2.092-.731-2.485-2.195l-4.512-17.599h-4.853l4.518 17.586c1.134 4.335 3.485 6.498 7.04 6.498h6.131c3.592 0 5.937-2.163 7.04-6.498l4.557-17.586" transform="translate(218.67 339.8)"/></g></g><g fill="#fff"><path d="m0 0h-10.06v-19.792h-4.537v19.792h-9.907v4.291h24.5v-4.291" transform="matrix(1 0 0-1 197.82 470.34)"/><g transform="matrix(1 0 0-1-45.945 830)"><path d="m0 0v-.011l.264-.098c.076-.028 2.519-.989 5.904-1.32l.926-.058c.156-.002.294-.006.439-.006l.056.004c2.554-.002 5.16.73 7.649 2.217l.034.02c.779.462 1.538.999 2.283 1.601 1.806 1.297 3.035 3.048 3.326 3.469l.239.347-.035.022c.012.023.024.048.036.072.115.271.237.636.237 1.075v.005c0 1.01-.568 1.953-1.505 2.384-.333.155-.69.23-1.038.23-.554 0-1.092-.182-1.528-.524l-.272-.241-.033-.028-.039-.035-.044-.066-.004-.005c-.017-.024-.096-.119-.147-.194-.238-.297-.525-.635-.807-.948-.294-.321-.6-.621-.897-.883-.791-.681-1.569-1.244-2.346-1.707-1.987-1.185-3.883-1.699-5.727-1.699-1.63 0-3.232.406-4.823 1.173-.299.151-.661.254-1.054.258-.015 0-.031.004-.047.002-.005 0-.032.002-.073-.005-1.379-.046-2.489-1.21-2.489-2.65 0-1.077.629-1.99 1.515-2.401" transform="translate(211.9 487.92)"/><path d="m0 0c-2.261-3.903-4.01-8.322-4.01-13.219 0-.319.0001-.632.021-.94l.029-.594.006-.121c.002-.12.11-1.705 1.712-2.868.842-.586 2.087-.866 3.378-.883h.012c.796.016 1.506.332 2.03.635.262.151.48.301.632.416.077.056.139.105.179.138.015.009.026.017.035.025l.027.022c6.652 5.02 8.842 13.284 8.857 21.391-.002 1.554-.111 3.088-.333 4.588.934 1.19 5.767 6.729 6.845 7.722 1.544 1.403 1.939 2.231 1.93 3.102l-.003.011.003.019v.03c0 .593-.179 1.193-.54 1.705-.548.77-1.401 1.184-2.262 1.184-.575 0-1.165-.183-1.665-.565-2.037-1.553-3.535-3.409-4.89-5.04-.504-.61-.989-1.191-1.466-1.728-1.074 1.461-2.409 2.588-3.856 3.371-2.497 1.353-5.234 1.795-7.759 1.795-1.438 0-2.826-.149-4.098-.381-10.415-1.962-20.392-9.177-28.533-18.418-8.132-9.28-14.449-20.668-17.15-31.54-1.035-4.183-1.555-8.268-1.561-12.151 0-.0001 0-.023 0-.041v-.002c0-.015 0-.023 0-.025 0-7.713 2.074-14.72 6.451-19.857 4.355-5.138 10.945-8.14 19.09-8.146h.036.064c1.679 0 3.426.122 5.238.371 5.338.734 11.147 3.163 16.683 6.697 5.535 3.544 10.791 8.206 14.831 13.591.337.451.524.978.57 1.511v.016.238.013c0 .867-.387 1.714-1.087 2.273l-.246-.325.244.327c-.507.403-1.111.604-1.71.604-.833 0-1.675-.385-2.224-1.132-3.547-4.731-8.338-9.01-13.34-12.204-4.996-3.204-10.237-5.315-14.465-5.88-1.587-.217-3.087-.317-4.504-.317-6.93.029-11.693 2.366-14.98 6.18-3.257 3.813-5.05 9.371-5.05 16.07 0 3.36.455 6.989 1.388 10.762 2.385 9.71 8.299 20.484 15.869 29.09 7.558 8.634 16.791 15.05 25.367 16.605.97.182 2.044.294 3.109.294h.022.018c1.861 0 3.722-.365 5.088-1.124 1.327-.758 2.236-1.682 2.889-3.432 0-.066 0-.133 0-.199-2.304-2.877-4.85-6.087-6.928-9.665m7.628 1.982c-.414-5.763-2.667-11.504-6.427-14.847.077 3.418 1.344 6.797 3.273 10.112.931 1.61 2.01 3.192 3.154 4.735" transform="translate(116.18 502.19)"/><path d="m0 0l.025.026-.339.289c-.518.442-1.152.663-1.784.663-.801 0-1.61-.357-2.167-1.053-2.846-3.563-5.823-6.864-9.04-9.437-3.213-2.579-6.632-4.428-10.487-5.242-1.063-.221-2.028-.339-2.886-.359h-.293-.046c-2.909.05-4.433.921-5.626 2.338-1.101 1.349-1.802 3.498-1.847 6.19l.025.048-.027.331c.002.991.101 2.119.305 3.284.41 2.476 1.496 5.628 3.069 8.866 1.188 2.819 3.03 5.345 3.03 5.345.498.765 1.01 1.519 1.553 2.248 3.974 5.461 9.12 9.636 13.549 10.261.298.046.565.067.808.067 1.103-.029 1.591-.301 2.066-.789.414-.466.782-1.24.795-2.664 0-1.148-.287-2.684-1.036-4.485-.776-1.925-2.569-4.271-4.676-5.947-1.98-1.61-4.265-2.61-6.03-2.698-.083-.004-.173-.017-.255-.017-.005 0-.011 0-.018 0 0 .002 0 .002 0 .002h-.016-.009c-.015 0-.033-.002-.058-.006-.022 0-.048-.002-.078-.005-1.341.071-2.323.39-3.443 1.609-.008.008-.033 0-.057-.008-1.189.841-2.858.614-3.817-.565-.863-1.062-.857-2.542-.064-3.55.124-.156.261-.302.42-.433.018-.013.036-.021.053-.034 1.975-1.839 4.397-2.768 6.797-2.794h.007.072.104c.152 0 .3.022.45.027 3.478.152 6.694 1.77 9.377 3.907 2.807 2.266 5.112 5.162 6.4 8.245.98 2.387 1.477 4.651 1.479 6.752v.024c.002 2.526-.754 4.876-2.311 6.597-1.553 1.727-3.783 2.611-6.114 2.611-.014.002-.026.002-.038.002-.028 0-.059 0-.099-.005h-.041c-.478 0-.993-.047-1.511-.128-6.864-1.139-12.675-6.417-17.18-12.477-4.499-6.126-7.703-13.186-8.709-18.949-.255-1.483-.391-2.954-.391-4.393 0-3.763.914-7.387 3.144-10.167 2.217-2.788 5.694-4.413 9.829-4.42h.059.08c1.362 0 2.801.158 4.32.476 4.876 1.025 9.103 3.366 12.81 6.341 3.712 2.984 6.931 6.597 9.918 10.321.432.543.639 1.2.638 1.841v.005c0 .685-.241 1.371-.704 1.909" transform="translate(236.49 453.82)"/><path d="m0 0c1.03.063 1.97.717 2.401 1.743.794 1.926 1.201 3.797 1.202 5.583 0 .25-.0001.491-.022.72 0 .033-.004.052-.007.096-.221 3.493-2.174 6.336-4.782 7.981-2.278 1.456-5.02 2.14-7.87 2.14-.397 0-.796-.012-1.197-.04-1.28-.086-2.58-.313-3.87-.68-6.551-1.921-12.975-7.381-17.919-13.97-4.623-6.26-7.994-13.601-8-20.596 0-.408.012-.819.041-1.229.075-1.305.291-2.588.66-3.833.911-3.085 2.474-5.54 4.624-7.129 1.896-1.404 4.13-2.032 6.381-2.037h.039.002c.281 0 .565.011.849.029h.026c3.747.277 7.545 2.01 11.132 4.702.315-1.493.816-2.997 1.619-4.386.71-1.21 1.692-2.345 3.01-3.14 1.167-.707 2.553-1.083 4.03-1.083.191 0 .387.006.585.017l.033.004c.145.0001.293.024.438.039l.72.079.162.018.182.019.043.066c.701.192 2.776.865 2.893 3.106.006.049.009.142.009.243 0 .055 0 .117-.005.188 0 .002.002.007 0 .02v.007l-.004.053c-.147 1.435-1.254 2.514-2.593 2.614v.024l-.304-.019c-.031 0-.064-.003-.1-.005l-.021-.002c-.014 0-.033-.002-.05-.006l-.331-.03v-.015c-.359-.053-.797-.153-1.261-.338-.127-.059-.608-.247-.989-.245-.234.004-.385.057-.489.151-.591.538-1.203 1.136-1.622 2.223-.34.82-.818 3.897-.827 5.04l.008.017-.008.097c0 .042.002.082.004.113 1.878 3.182 5.188 8.808 6.871 12.275 1.499 3.11 2.265 6.458 2.584 9.85.139-.095.287-.18.447-.25.351-.151.717-.23 1.084-.23.068 0 .133 0 .195.005m-11.298-14.316c.314 2.199 3.288 11.779 3.288 11.779.201.579 1.283 3.382 1.508 2.893.97-3.197-3.715-12.979-4.796-14.672m8.995 19.64c-.201.294-.421.52-.622.69-.189.157-.363.267-.498.34-.136.06-.157.087-.264.112-.603.2-1.234.312-1.865.312-.095 0-.195 0-.304-.009h.016c-.059 0-.106-.003-.162-.013-1.318-.102-2.458-.744-3.264-1.522-1.188-1.149-1.824-2.52-2.301-3.685-.476-1.194-.809-2.332-1.037-2.943-1.677-4.632-2.593-8.708-3.906-17.78-3.914-3.86-8.237-6.096-11.229-6.276-.022 0-.05-.002-.096-.008-.161-.007-.327-.013-.492-.013-1.29.006-2.27.322-3.142.958-.965.717-1.873 1.927-2.532 4.124-.229.779-.375 1.611-.432 2.51-.003.061-.007.087-.007.093-.019.27-.028.552-.031.838v.015c-.006 4.969 2.72 11.498 6.852 16.979 4.335 5.887 10.276 10.634 14.969 11.926.894.256 1.787.415 2.647.48h.014l.046-.004.135.02c.199.011.465.021.728.021 1.959.002 3.726-.496 4.907-1.269 1.39-.961 2-1.893 2.16-3.558.004-.093.0001-.212.0001-.337 0-.571-.087-1.235-.3-2" transform="translate(169.16 463.49)"/><path d="m0 0l-.388.281c-1.594 1.158-3.065 2.516-4.423 4.048-.091.091-.558.652-.907 1.078 1.496 1.511 4.488 5.15 5.469 6.582.216.324.428.649.646.982 6.139 9.583 11.566 23.546 12.874 34.01.184 1.56.36 3.253.36 4.993 0 .968-.025 1.985-.198 3.01-1.212 7.444-5.242 8.267-6.109 8.241-.018 0-.038 0-.072-.002-.041 0-.077-.002-.104-.005-2.597-.082-4.148-2.82-5.098-4.224-2.31-3.662-2.937-7.948-3.855-10.719-3.692-11.657-7.497-25.11-10.04-38.16-.691.332-1.127.554-1.434.693-1.452.66-3.21 1.328-5.265 1.335-.008 0-.021.002-.037.002-1.634.002-2.764-.82-3.183-1.107-.531-.364-1.022-.886-1.531-1.514-.285-.369-.44-.798-.54-1.139-.05-.171-.085-.323-.108-.433-.0001-.04-.016-.076-.022-.105l-.002-.005c0 0-.04-.496-.04-.662-.002-.03-.004-.056-.002-.065-.002-1.072.193-2.103.617-3.041.498-1.105 1.284-1.978 2.167-2.58 1.626-1.083 3.418-1.363 5.063-1.363.34 0 .674.015 1 .032.289.018.568.047.841.083-1.881-11.981-5.258-24.336-5.263-37.34 0-2.455.125-4.935.399-7.439.169-1.474 1.377-2.56 2.788-2.56.089 0 .197.005.316.018 1.433.174 2.485 1.424 2.485 2.873 0 .096-.004.216-.022.35-.252 2.23-.364 4.477-.364 6.732 0 .023 0 .047-.002.071.002 12.201 3.363 24.5 5.317 37.17 1.539-1.697 3.217-3.232 5.05-4.562.489-.358 1.058-.528 1.614-.528.877 0 1.744.429 2.291 1.218.296.437.461.93.499 1.423l.013.019v.228.014c0 .751-.29 1.493-.827 2.041l.028.028m-15.1 5.246l-.003.0001-.395-.118c-.015-.006-.031-.008-.044-.013l-.187-.047c-.153-.032-.305-.056-.458-.074-.015-.002-.035-.003-.056-.006-1.129-.147-2.201.298-2.52.678-.134.144-.264.306-.378.499-.02.035-.042.071-.06.106-.042.078-.077.168-.11.26-.108.31-.137.601-.144.77.022 1.034 2.509-.364 4-1.366.259-.17.525-.353.794-.544-.148-.058-.295-.11-.443-.155m18.389 40.484h.005l.211.683c.006.019.012.042.019.062l.112.36.114.374-.007.003c.92 3.187 1.646 6.595 2.969 8.572.145.241.293.432.411.555.024.026.048.048.066.067.222-.3.58-1.385.696-2.297.095-.644.136-1.361.136-2.113 0-1.352-.138-2.825-.316-4.288-1.074-9.12-6.068-22.249-11.06-31.29-.588-1.066-2.29-3.283-2.377-3.411 2.342 10.575 6.01 23.17 9.02 32.719" transform="translate(192.97 449.78)"/></g></g></g></svg>