<svg xmlns="http://www.w3.org/2000/svg" height="544.16" width="600" viewBox="0 0 158.75 143.9768"><g transform="translate(-333.81-122.77)"><path d="m448.54 235.24c-2.3 0-4.32-1.09-5.64-2.78h-98.76c-4.16 0-7.89-1.94-10.33-4.96v28.96c0 5.68 4.63 10.29 10.33 10.29h119.92c5.68 0 10.3-4.61 10.3-10.29v-21.24l-25.82.02" fill="#f68300"/><path d="m441.37 228.09v-.02l.07-25.06c0-3.93 3.15-7.11 7.09-7.16.04 0 .1.001.15.001h25.68v-62.8c0-5.66-4.62-10.29-10.29-10.29h-119.93c-5.7 0-10.33 4.63-10.33 10.29v84.93c0 5.69 4.63 10.3 10.33 10.3h97.24c0-.08-.001-.13-.001-.2" fill="#748492"/><g fill="#fff"><path d="m366.97 247.87c0 1.18-.41 2.13-1.24 2.87-.84.71-1.86 1.07-3.05 1.07h-7.28v-2.69h7.28c1.01 0 1.51-.41 1.51-1.25v-1.73c0-.88-.5-1.33-1.51-1.33h-9.86v12.07h-2.77v-14.69h12.63c1.19 0 2.19.37 3.03 1.1.85.73 1.26 1.69 1.26 2.85v1.73"/><path d="m384.81 252.93v-6.8c0-.36-.16-.69-.5-.96-.31-.26-.64-.39-1.02-.39h-8.23c-.36 0-.72.13-1.04.39-.31.27-.46.6-.46.96v6.8c0 .86.49 1.32 1.5 1.32h8.23c1.02 0 1.52-.46 1.52-1.32m2.76-.03c0 1.16-.41 2.12-1.25 2.86-.86.73-1.87 1.11-3.05 1.11h-8.18c-1.2 0-2.2-.38-3.05-1.11-.84-.74-1.27-1.7-1.27-2.86v-6.77c0-1.09.45-2.03 1.31-2.82.89-.76 1.9-1.16 3.01-1.16h8.18c1.11 0 2.12.4 3 1.16.87.79 1.3 1.73 1.3 2.82v6.77z"/><path d="m404.29 256.87h-8.18c-1.18 0-2.19-.38-3.01-1.11-.85-.73-1.26-1.69-1.26-2.86v-10.75h2.76v10.78c0 .87.5 1.32 1.51 1.32h8.18v2.62"/><path d="m424.37 244.78h-12.27c-.36 0-.71.13-1.04.39-.3.27-.46.6-.46.96v.71c0 .91.5 1.33 1.5 1.33l8.21.04c1.19 0 2.19.33 3.01 1.05.87.76 1.3 1.71 1.3 2.88v.76c0 1.12-.43 2.06-1.31 2.82-.88.77-1.88 1.15-3 1.15h-12.26v-2.62h12.29c.37 0 .71-.14 1.03-.4.31-.26.48-.57.48-.95v-.76c0-.89-.5-1.31-1.51-1.31l-8.22-.02c-1.15 0-2.18-.38-3.02-1.11-.85-.74-1.28-1.67-1.28-2.86v-.71c0-1.09.44-2.03 1.3-2.82.91-.76 1.89-1.16 3-1.16h12.25v2.63"/><path d="m445.45 256.91h-2.96l-1.34-5.16h-6.74l.64-2.67h5.38c-.1-.46-.49-2.06-.73-2.94s-.76-1.33-1.51-1.33h-3.38c-.79 0-1.3.45-1.53 1.33l-2.76 10.77h-2.96l2.76-10.74c.68-2.66 2.12-3.98 4.31-3.98h3.72c2.2 0 3.65 1.32 4.33 3.98l2.77 10.74"/><path d="m460.79 244.78h-6.15v12.09h-2.77v-12.09h-6.05v-2.63h14.97v2.63"/></g><path d="m492.5 228.14c-.02 2.64-2.18 4.75-4.8 4.75h-39.16c-2.65 0-4.79-2.19-4.77-4.82l.05-25.05c0-2.64 2.18-4.75 4.79-4.75h39.16c2.64.001 4.79 2.2 4.79 4.84l-.06 25.03" fill-rule="evenodd" fill="#720f11"/><g fill="#fff"><path d="m467.31 225.57h-5.1v-8.23h-5.46v8.23h-5.09v-20.79h5.09v8h5.46v-8h5.1v20.79"/><path d="m481.89 215.18c0-2.58-.18-4.12-.53-4.69-.55-.79-1.37-1.16-2.48-1.16h-2.24v11.7h2.24c1.11 0 1.93-.38 2.48-1.17.24-.45.46-1.2.53-2.28v-2.4m4.94 4.5c-.31 1.9-1.19 3.37-2.62 4.41-1.34 1.01-3.02 1.48-4.97 1.48h-7.71v-20.79h7.71c1.95 0 3.63.48 4.97 1.49 1.43 1.03 2.31 2.51 2.62 4.42.12.65.19 2.17.19 4.49 0 2.33-.07 3.82-.19 4.5"/><path d="m468.19 136.07v33.23l-15.64 15.65v-29.15l-29.11 29.22-11.16-11.16 29.4-29.27h-29.16l15.25-15.24h33.71c3.71 0 6.71 3.01 6.71 6.72" fill-rule="evenodd"/><g><path d="m363.62 221.01-8.99-13.93v13.93h-4.43v-22.69h3.95l8.99 13.89v-13.89h4.43v22.69h-3.95"/><path d="m372.06 221.01v-22.69h14.94v3.95h-10.51v5.32h8.95v3.95h-8.95v5.51h10.51v3.96h-14.94"/><path d="m411.5 221.01h-3.7l-4.17-13.77-4.17 13.77h-3.7l-6.05-22.69h4.62l3.5 14.31 4.14-14.31h3.32l4.14 14.31 3.54-14.31h4.61l-6.08 22.69"/><path d="m426.68 221.2c-3.44 0-6.05-.74-8.28-3l2.86-2.86c1.44 1.43 3.38 1.91 5.49 1.91 2.61 0 4.01-.99 4.01-2.81 0-.8-.23-1.46-.7-1.91-.45-.42-.96-.64-2.01-.8l-2.74-.38c-1.95-.29-3.37-.89-4.39-1.88-1.09-1.08-1.63-2.55-1.63-4.46 0-4.05 2.99-6.88 7.9-6.88 3.12 0 5.38.76 7.33 2.64l-2.81 2.77c-1.43-1.37-3.15-1.56-4.65-1.56-2.36 0-3.5 1.31-3.5 2.87 0 .57.19 1.18.67 1.62.44.42 1.18.77 2.1.9l2.68.38c2.07.29 3.38.86 4.33 1.75 1.21 1.15 1.75 2.8 1.75 4.82 0 4.39-3.66 6.88-8.41 6.88"/></g></g></g></svg>