<svg xmlns="http://www.w3.org/2000/svg" height="91.97" width="600" viewBox="0 0 158.75 24.33348"><g fill-rule="evenodd" transform="translate(28.726-154.08)"><g fill="#e30c19"><path d="m92.13 162.38c-.242-.001-.504.02-.799.09-.599.12-1.142.35-1.546.77l-2.97 2.59-1.228-1.88c-.292-.48-.716-.84-1.245-1.07-.521-.23-1.067-.29-1.541-.23-.529.05-.821.29-.949.64-.17.36-.109.71.128 1.25l2.304 3.5-5.62 4.89c-.419.48-.593.85-.532 1.19.055.3.237.59.7.77.425.11.951.19 1.549.05.59-.11 1.061-.34 1.471-.82l4.092-3.57 3.95 6c.295.53.723.89 1.255 1.07.537.23 1.066.29 1.546.23.46-.05.769-.29.934-.54.243-.35.115-.82-.165-1.3l-4.999-7.65 4.525-3.95c.474-.41.7-.7.59-1.12-.07-.35-.295-.59-.772-.76-.214-.09-.436-.14-.678-.15"/><path d="m103.46 165.19c.47-.29.77-.65.94-1.07.17-.41.17-.7 0-1.01-.17-.29-.58-.41-1.12-.41h-3.553l.483-1.18c.22-.48.17-.83-.06-1.12-.244-.19-.599-.29-1.012-.29-.527 0-1.01.1-1.475.36-.419.28-.769.63-.942 1.05l-.48 1.18-1.069 2.9h6.858c.54 0 .95-.12 1.43-.41"/><path d="m102.03 171.93c-.16-.3-.53-.4-1.12-.4h-3.131c-.477 0-.827-.19-1.058-.48-.249-.3-.249-.6-.066-1l1.069-2.56.298-.59h-3.556l-.243.59-1.066 2.56c-.286.58-.347 1.18-.286 1.7 0 .54.17 1.01.529 1.43.292.41.702.7 1.251.94.59.18 1.18.3 1.885.3h3.145c.529 0 1.049-.12 1.459-.36.47-.28.77-.65.95-1.06s.12-.78-.06-1.07"/><path d="m117.9 170.98c-.13.18-.13.36 0 .55.05.1.23.22.41.22h4.97c.11 0 .29-.07.52-.18.24-.04.42-.16.66-.3.18-.17.35-.34.53-.52.19-.12.3-.3.36-.48l1.24-3.07c.06-.18.12-.36.12-.54 0-.23-.06-.35-.18-.53-.06-.11-.17-.23-.36-.35-.12-.06-.29-.13-.53-.13h-6.87c-.46 0-.76-.11-.93-.41-.19-.3-.19-.64 0-1.12.17-.41.47-.7.83-1.01.41-.35.82-.46 1.28-.46h6.93c.59 0 1.13.11 1.6.34.47.25.83.59 1.13.96.23.41.35.89.41 1.47 0 .53-.11 1.12-.35 1.78l-1.25 3.07c-.29.53-.65 1.14-1.12 1.71-.47.54-.94 1.09-1.54 1.5-.58.4-1.24.7-1.89.94-.59.24-1.25.36-1.9.36h-4.91c-.54 0-.88-.12-1.29-.29-.35-.26-.66-.43-.9-.78-.23-.37-.3-.78-.35-1.25 0-.48.12-.93.29-1.48.24-.47.54-1.23.96-1.71.41-.48.75-.88 1.24-1.25.64-.35.94-.47 1.54-.64.53-.18 1.18-.18 1.65-.18h3.32c.41 0 .7.12.88.41.12.18.24.41.06.83-.17.41-.47.76-.89 1.06-.35.3-.82.47-1.24.47h-3.37c-.19 0-.41.08-.65.25-.18.12-.36.53-.41.76"/><path d="m114.28 165.42c.53 0 1.01-.18 1.49-.41.46-.29.71-.65.88-1.13.18-.34.12-.71-.05-1-.19-.29-.53-.48-1.13-.48h-2.49c-.65 0-1.35.13-2.13.36-.77.23-1.42.59-2.07.95-.72.41-1.3.89-1.78 1.42-.53.52-.88 1.12-1.12 1.77l-2.42 6.1c-.18.41-.18.78.06 1.06.23.24.65.43 1.18.43.46 0 .94-.19 1.35-.37.49-.3.77-.64 1.02-1.12l2.42-6.16c0-.18.11-.34.3-.53.17-.18.42-.29.65-.48.17-.11.47-.23.71-.29s.48-.12.7-.12"/><path d="m62.808 170.22c-.228.58-.35 1.19-.35 1.76 0 .54.174 1.09.411 1.5.234.4.59.7 1.064.94.479.24.942.36 1.604.36h8.863c.479 0 .841-.18 1.248-.48.417-.24.662-.59.824-1.01.182-.46.182-.83.067-1.11-.18-.31-.541-.43-.951-.43h-8.814c-.179 0-.358-.07-.532-.18-.118-.04-.24-.16-.355-.3-.058-.17-.122-.34-.122-.52-.06-.12 0-.3.064-.48l1.165-2.88h-3.03"/><path d="m79.44 163.71c-.176-.29-.468-.6-.893-.77-.295-.24-.772-.29-1.298-.29h-6.802c-.653 0-1.298.11-1.957.34-.589.25-1.243.59-1.824.96-.598.41-1.124.89-1.601 1.47-.335.38-.581.78-.78 1.22h3.165c.164-.22.344-.33.566-.51.122-.11.362-.23.532-.35.24-.06.477-.13.659-.13h6.796c.243 0 .361.07.474.25.067.12.067.3 0 .53-.113.23-.292.66-.474.77-.234.12-.41.23-.644.23h-5.267c-.419 0-.83.12-1.24.43-.474.29-.772.71-.836 1.12-.167.41-.115.64 0 .82.122.31.425.47.894.47h5.2c.532 0 1.136-.05 1.717-.22.537-.25.832-.3 1.486-.66.462-.35.881-.78 1.234-1.24.425-.48.717-1.18.957-1.72.234-.53.286-1.01.286-1.49 0-.47-.119-.88-.35-1.23"/></g><g fill="#999899"><path d="m8.239 154.1c-.236 0-1.119.41-1.132 1.3v3.78h1.844v-2.07h.712.698v2.07h1.844v-5.08h-2.542-1.424m1.186.88h.238.698v1.25h-.698-.712v-.71c0-.3.171-.54.474-.54"/><path d="m-9.348 154.08c-.883 0-1.236.83-1.236 1.31v2.49c0 .59.407 1.24 1.236 1.24h1.305 1.423c.527 0 1.065-.53 1.065-1.24v-2.49c0-.77-.592-1.31-1.132-1.31h-1.356-1.305m.949.83h.356.303c.238 0 .409.36.409.53v2.44c0 .29-.185.48-.423.48h-.289-.356c-.185 0-.356-.24-.356-.48v-2.44c0-.29.185-.53.356-.53"/><path d="m-16.803 154.08v5.04h1.831c.067-.59.067-1.19.067-1.78h.67 1.213c.829 0 1.303-.71 1.303-1.24v-.9c0-.35-.342-1.12-1.356-1.12h-1.16-2.568m1.898.83h.67.212c.303 0 .474.18.474.41v.78c0 .17-.118.41-.474.41h-.212-.67v-1.6"/><path d="m18.11 154.99h-1.185v4.21h-1.884c.014-1.37.014-2.85.014-4.21-.54 0-1.067-.001-1.661-.001v-.88h5.139c-.12.3-.238.59-.423.89"/><path d="m3.38 158.35c.236 0 .421-.23.421-.4 0-.19-.185-.36-.356-.43-.474-.23-1.185-.47-1.594-.71-.539-.35-.843-.64-.83-1.47 0-.83.83-1.24 1.423-1.24h3.187c-.236.41-.527.83-.527.83h-1.659c-.303 0-.541.22-.541.46 0 .23.238.42.712.59.541.19 1.067.48 1.37.66.527.36.645.83.645 1.24 0 .47-.354 1.3-1.014 1.3h-3.609c.356-.4.659-.83.659-.83"/><path d="m-.35 159.18h-2.898c-.594 0-1.014-.71-1-1.18v-3.92h1.777c-.012 1.31-.012 3.44-.012 3.75 0 .34.303.52.421.52h2.306c-.303.43-.594.83-.594.83"/></g><path d="m-24.06 163.92c0 1-.818 1.82-1.818 1.82-1.015 0-1.819-.82-1.819-1.82 0-1.02.818-1.84 1.819-1.84 1.014.02 1.818.84 1.818 1.84" fill="#e42822"/><g fill="#1073b6"><path d="m-1.297 167.16l-2.544 6.45-1.251 3.2c-.039.08-.067.17-.092.25-.053.24-.053.45 0 .62.039.12.106.22.197.32.263.27.647.42 1.146.42h.027c.527 0 1.028-.15 1.514-.42.488-.28.832-.68 1.042-1.19l2.174-5.54 1.62-4.11h-1.62-2.213"/><path d="m-19.701 172.02c-.528 0-1.055.16-1.554.48-.502.31-.83.7-1 1.13-.185.45-.146.83.104 1.15.264.32.645.47 1.174.47h9.867c.658 0 1.317-.1 1.987-.31.672-.23 1.292-.52 1.872-.87.58-.37 1.093-.79 1.541-1.28.21-.24.395-.48.527-.69.014-.02.039-.05.053-.06h-.053l-14.517-.02"/><path d="m-12.997 162.34c-.658 0-1.329.1-2 .31-.658.21-1.292.5-1.858.87-.58.36-1.093.79-1.541 1.28s-.777 1.01-1 1.57c-.159.4-.212.78-.224 1.16 0 0-8.314-.001-8.787-.001-.342 0-.317.27-.317.27s-.012.29.317.29h8.827c.078.42.224.81.487 1.12.289.37.671.69 1.186.87.355.15.605.16 1.238.17h11.487.698c.028-.19.028-.39 0-.58-.065-.5-.238-.92-.527-1.29-.053-.06-.106-.12-.171-.18-.263-.28-.606-.5-1.014-.69-.501-.21-1.079-.31-1.74-.31h-6.981c-.264 0-.462-.08-.58-.24-.132-.16-.146-.36-.053-.58.092-.24.263-.42.501-.58.25-.16.501-.24.777-.24h9.09.079c.423 0 .857-.1 1.264-.31.092-.04.185-.1.277-.15.501-.32.829-.7 1-1.15.185-.43.146-.81-.104-1.13-.25-.32-.647-.47-1.173-.47h-1.343-7.813"/><path d="m2.548 162.28c-.264 0-.527.04-.79.14-.263.07-.513.19-.751.34-.026.02-.065.05-.091.06-.199.14-.369.29-.529.46-.183.19-.315.4-.395.61l-.698 1.62h1.622l7.85-.001c.527.001.91.17 1.174.49.25.31.289.69.104 1.13l-1.278 3.24c-.185.48-.513.86-1 1.16-.474.32-.989.47-1.555.47h-1.026c-.554 0-1.081.14-1.555.44-.488.31-.818.69-1 1.16-.171.44-.146.81.065 1.12.21.33.619.49 1.225.49h1.028c.804 0 1.594-.13 2.398-.38.79-.25 1.542-.6 2.226-1.04.698-.44 1.304-.95 1.844-1.53.527-.58.922-1.22 1.186-1.89l1.277-3.23c.264-.66.356-1.27.278-1.87-.067-.58-.289-1.09-.633-1.54-.356-.44-.83-.79-1.422-1.05-.593-.25-1.291-.39-2.068-.39h-7.484"/><path d="m23.469 162.3c-.792 0-1.594.13-2.398.38-.79.25-1.528.6-2.228 1.04-.684.43-1.303.95-1.844 1.54-.526.6-.922 1.21-1.171 1.87l-1.278 3.23c-.264.67-.356 1.31-.289 1.89.079.59.289 1.11.631 1.54s.818.78 1.409 1.03c.58.26 1.278.39 2.082.39h5.151.093c.79 0 1.566-.13 2.37-.38.791-.25 1.542-.61 2.24-1.04.711-.45 1.331-.96 1.858-1.55.54-.59.935-1.21 1.199-1.86l1.067-2.73.197-.5c.263-.66.355-1.28.277-1.88-.053-.48-.21-.93-.474-1.33-.053-.06-.106-.14-.159-.21-.356-.45-.83-.79-1.422-1.05-.593-.25-1.277-.38-2.068-.38h-5.178-.065m-1.266 3.21h1.331 3.912c.238 0 .462.05.659.13.199.1.356.22.474.37.12.16.198.33.224.53.027.2 0 .4-.079.59l-1.278 3.25c-.078.19-.21.39-.381.59-.185.2-.395.37-.645.53-.238.15-.501.27-.765.37-.263.09-.513.13-.764.13h-1.357l-3.886-.001c-.539 0-.936-.16-1.186-.48-.236-.32-.263-.7-.092-1.15l1.278-3.23c.171-.44.501-.83 1-1.14.486-.32 1-.48 1.553-.48"/><path d="m50.24 159.09c-.434 0-.829.08-1.213.27-.118.05-.236.11-.355.18-.474.3-.803.69-.987 1.16l-.633 1.61h-4.86c-.765 0-1.53.12-2.332.38-.792.25-1.541.59-2.241 1.03-.698.45-1.317.95-1.87 1.52-.54.56-.935 1.18-1.199 1.83l-2.186 5.56-.383.98c-.183.47-.157.85.08 1.16.079.1.183.18.303.25.224.13.527.19.895.19.515 0 1.014-.14 1.515-.42.488-.27.844-.67 1.04-1.18l2.584-6.56c.078-.19.21-.39.395-.56.185-.19.395-.34.631-.49.238-.14.487-.26.764-.34.264-.1.502-.13.738-.13h8.101 4.427c.567 0 1.08-.15 1.567-.45.476-.31.805-.69.989-1.16.171-.42.146-.81-.053-1.12-.21-.32-.619-.49-1.225-.49h-3.847l.633-1.61c.197-.51.157-.91-.106-1.19-.275-.29-.672-.42-1.172-.42"/><path d="m63.66 166.7l-14.636.001h-6.731c-.356 0-.368.34-.368.34s-.041.37.382.37c.42 0 2.726.02 2.726.02l-1.171 2.95c-.264.67-.356 1.29-.291 1.88.078.59.291 1.1.633 1.53.356.44.816.79 1.423 1.04.592.26 1.29.39 2.08.39h1.317 4.453c.619 0 1.146-.16 1.608-.48.46-.33.777-.7.948-1.13.171-.44.159-.82-.053-1.13-.211-.32-.618-.48-1.237-.48h-5.719-.039c-.527 0-.922-.16-1.172-.47-.249-.33-.291-.7-.118-1.15l1.172-2.95h.157l14.636-.02c.382 0 .356-.37.356-.37s.026-.35-.356-.35"/></g></g></svg>