<svg xmlns="http://www.w3.org/2000/svg" viewBox="0 0 600 615.62"><g transform="translate(181.96-100.7)"><path d="m374.12 100.7h-510.63c-24.25 0-43.925 19.623-43.925 43.83v361.61c0 24.21 19.67 43.83 43.925 43.83l554.56-.013v-405.43c0-24.21-19.67-43.83-43.925-43.83" fill="#002561"/><path d="m372.6 716.31c24.25 0 43.925-19.638 43.925-43.83v-102.16h-554.54c-17.767 0-33.598-8.28-43.941-21.16v123.32c0 24.19 19.67 43.83 43.941 43.83" fill="#c4161c"/><g fill="#fff"><path d="m-40.807 635.92c0 5.01-1.777 9.07-5.314 12.151-3.522 3.062-7.852 4.6-12.944 4.6h-30.996v-11.469h30.996c4.299 0 6.456-1.761 6.456-5.282v-7.376c0-3.775-2.157-5.679-6.456-5.679h-41.958v51.35h-11.786v-62.52h53.68c5.092 0 9.423 1.586 12.992 4.727 3.538 3.141 5.33 7.186 5.33 12.12v7.376"/><path d="m35.15 657.42v-28.982c0-1.491-.698-2.84-2.062-3.982-1.38-1.174-2.84-1.745-4.442-1.745h-34.978c-1.586 0-3.077.571-4.426 1.745-1.364 1.142-2.062 2.49-2.062 3.982v28.982c0 3.76 2.157 5.631 6.488 5.631h34.978c4.331 0 6.504-1.872 6.504-5.631m11.786-.114c0 4.965-1.808 9.03-5.393 12.167-3.601 3.173-7.9 4.743-12.928 4.743h-34.899c-5.04 0-9.343-1.57-12.944-4.743-3.585-3.141-5.362-7.202-5.362-12.167v-28.871c0-4.648 1.856-8.63 5.584-11.929 3.728-3.315 7.979-4.965 12.722-4.965h34.899c4.743 0 8.978 1.65 12.706 4.965 3.728 3.299 5.615 7.281 5.615 11.929v28.871z"/><path d="m118.09 674.21h-34.772c-5.03 0-9.328-1.555-12.897-4.743-3.569-3.141-5.362-7.186-5.362-12.167v-45.765h11.802v45.876c0 3.76 2.141 5.631 6.456 5.631h34.772v11.168"/><path d="m203.67 622.71h-52.27c-1.586 0-3.062.586-4.426 1.713-1.348 1.174-2.03 2.522-2.03 4.01v3.125c0 3.76 2.173 5.615 6.456 5.615l34.962.114c5.03 0 9.312 1.523 12.833 4.537 3.664 3.22 5.489 7.313 5.489 12.278v3.236c0 4.727-1.872 8.725-5.6 11.992-3.728 3.268-7.963 4.886-12.69 4.886h-52.24v-11.168h52.27c1.586 0 3.062-.555 4.426-1.666 1.364-1.11 2.03-2.459 2.03-4.045v-3.236c0-3.76-2.142-5.631-6.456-5.631l-34.962-.089c-5.03 0-9.327-1.57-12.928-4.68-3.585-3.141-5.378-7.154-5.378-12.135v-3.125c0-4.648 1.856-8.63 5.6-11.929 3.712-3.299 7.947-4.965 12.69-4.965h52.22v11.168z"/><path d="m293.41 674.38h-12.611l-5.758-21.891h-28.633l2.697-11.469h22.906c-.508-1.904-2.078-8.693-3.125-12.468-1.047-3.775-3.188-5.695-6.409-5.695h-14.467c-3.299 0-5.441 1.919-6.456 5.711l-11.755 45.812h-12.627l11.77-45.765c2.935-11.294 9.06-16.91 18.322-16.91h15.958c9.343 0 15.435 5.615 18.322 16.91l11.866 45.765"/><path d="m358.71 622.71h-26.17v51.51h-11.786v-51.51h-25.793v-11.168h63.754v11.168z"/><path d="m-58.924 182.56h-6.52v28.823h-17.449v-75.08h22.21c9.661 0 16.561.635 21.21 3.284 7.281 4.108 11.786 11.406 11.786 19.321 0 13.944-11.532 23.652-31.23 23.652m-1.999-33.06h-4.521v20.384h4.632c9.914 0 15.07-3.791 15.07-10.232 0-6.869-5.03-10.152-15.181-10.152"/><path d="m25.505 211.39v-75.08h17.322v61.882h27.967v13.198h-45.29"/><path d="m182.33 211.39l-7.03-15.736h-33.12l-6.9 15.736h-18.07l34.629-75.08h15.05l34.12 75.08h-18.687m-23.334-53.855l-10.787 24.18h21.32l-10.533-24.18"/><path d="m276.04 184.35v27.03h-17.433v-27.03l-25.603-48.05h19.19l15.435 32.31 15.308-32.31h19.07l-25.968 48.05"/><path d="m52.796 260.05c-12.31-7.329-23.43-2.744-23.604 13.626-.175 16.355-.114 186.99-.114 205.95 0 18.94 9.676 22.446 24.24 13.912 14.578-8.534 163.63-94.35 178.21-102.62 14.197-8.201 13.595-19.1-.051-26.999-13.67-7.9-162.49-94.32-178.69-103.87"/></g></g></svg>