<?xml version="1.0" encoding="UTF-8" standalone="no"?>
<svg xmlns:rdf="http://www.w3.org/1999/02/22-rdf-syntax-ns#" xmlns="http://www.w3.org/2000/svg" height="157.43" width="600" version="1.1" xmlns:cc="http://creativecommons.org/ns#" xmlns:dc="http://purl.org/dc/elements/1.1/" viewBox="0 0 158.75 41.652122">
 <g fill-rule="evenodd" transform="translate(61.73 -145.42)">
  <g fill="#999899">
   <path d="m1.5448 145.44c-0.4038 0-1.9149 0.71-1.9384 2.24l-0.00002 6.48h3.1569v-3.55h1.218 1.1948v3.55h3.1564v-8.72h-4.3512-2.4365zm2.0293 1.52h0.4072 1.1948v2.14h-1.1948-1.218v-1.22c0-0.52 0.2925-0.92 0.8108-0.92z"/>
   <path d="m-28.559 145.42c-1.511 0-2.117 1.43-2.117 2.24v4.26c0 1.02 0.697 2.12 2.117 2.12h2.234 2.437c0.901 0 1.823-0.9 1.823-2.12v-4.26c0-1.31-1.013-2.24-1.938-2.24h-2.322-2.234zm1.625 1.43h0.609 0.518c0.408 0 0.7 0.61 0.7 0.9v4.17c0 0.5-0.316 0.82-0.723 0.82h-0.495-0.609c-0.316 0-0.609-0.41-0.609-0.82v-4.17c0-0.5 0.316-0.9 0.609-0.9z"/>
   <path d="m-41.32 145.42v8.62h3.133c0.115-1.01 0.114-2.03 0.114-3.04h1.148 2.076c1.42 0 2.231-1.22 2.231-2.12v-1.54c0-0.61-0.585-1.92-2.322-1.92h-1.985-4.395zm3.247 1.43h1.148 0.364c0.518 0 0.81 0.29 0.81 0.7v1.33c0 0.29-0.201 0.7-0.81 0.7h-0.364-1.148v-2.73z"/>
   <path d="m18.434 146.98h-2.029v7.2h-3.224c0.024-2.35 0.024-4.87 0.024-7.2-0.925 0-1.827-0.02-2.844-0.02v-1.51h8.797c-0.205 0.52-0.407 1.01-0.724 1.53"/>
   <path d="m-6.7737 152.74c0.4039 0 0.7202-0.41 0.7202-0.7 0-0.32-0.3163-0.61-0.6091-0.73-0.811-0.4-2.0292-0.81-2.7292-1.22-0.9222-0.6-1.4432-1.1-1.4202-2.52 0-1.42 1.4202-2.12 2.4365-2.12h5.4549c-0.4038 0.7-0.9019 1.42-0.9019 1.42h-2.8401c-0.5182 0-0.9254 0.38-0.9254 0.79 0 0.4 0.4072 0.72 1.2182 1.01 0.9253 0.32 1.8272 0.82 2.3454 1.13 0.9019 0.61 1.1038 1.42 1.1038 2.12 0 0.82-0.6057 2.24-1.7364 2.24h-6.178c0.609-0.7 1.1269-1.42 1.1269-1.42"/>
   <path d="m-13.157 154.16h-4.96c-1.017 0-1.737-1.22-1.713-2.04v-6.7h3.042c-0.02 2.24-0.02 5.89-0.02 6.41 0 0.59 0.518 0.91 0.72 0.91h3.947c-0.518 0.72-1.016 1.42-1.016 1.42"/>
  </g>
  <path d="m-53.744 162.26c0 1.71-1.4 3.11-3.113 3.11-1.736 0-3.112-1.4-3.112-3.11 0-1.74 1.4-3.14 3.112-3.14 1.737 0.02 3.113 1.42 3.113 3.14" fill="#e42822"/>
  <g fill="#1073b6">
   <path d="m-14.779 167.81-4.355 11.03-2.14 5.48c-0.067 0.14-0.114 0.3-0.158 0.43-0.091 0.41-0.091 0.77 0 1.06 0.067 0.21 0.181 0.39 0.336 0.55 0.451 0.47 1.108 0.72 1.962 0.72h0.047c0.902 0 1.76-0.25 2.592-0.72 0.834-0.48 1.423-1.16 1.783-2.04l3.722-9.47 2.7726-7.04h-2.7726-3.789z"/>
   <path d="m-46.28 176.13c-0.905 0-1.807 0.27-2.662 0.82-0.858 0.54-1.42 1.19-1.713 1.94-0.316 0.76-0.249 1.42 0.179 1.96 0.451 0.54 1.104 0.81 2.009 0.81h16.889c1.128 0 2.255-0.18 3.402-0.54 1.151-0.38 2.211-0.88 3.204-1.49 0.993-0.63 1.871-1.35 2.638-2.19 0.36-0.4 0.676-0.81 0.902-1.17 0.023-0.04 0.067-0.09 0.091-0.11h-0.091l-24.848-0.03z"/>
   <path d="m-34.805 159.55c-1.127 0-2.275 0.18-3.426 0.54-1.127 0.36-2.211 0.86-3.18 1.49-0.993 0.61-1.871 1.35-2.638 2.19-0.767 0.83-1.329 1.74-1.713 2.68-0.273 0.68-0.363 1.34-0.383 1.99 0 0-14.231-0.02-15.042-0.02-0.586 0-0.542 0.47-0.542 0.47s-0.02 0.5 0.542 0.5h15.109c0.134 0.72 0.383 1.38 0.834 1.92 0.495 0.63 1.148 1.17 2.03 1.49 0.609 0.24 1.036 0.27 2.119 0.29h19.663 1.195c0.047-0.34 0.047-0.68 0-1-0.111-0.85-0.407-1.57-0.902-2.21-0.091-0.11-0.182-0.2-0.293-0.31-0.451-0.48-1.037-0.86-1.736-1.18-0.859-0.36-1.848-0.54-2.979-0.54h-11.949c-0.451 0-0.791-0.13-0.993-0.4-0.225-0.27-0.249-0.61-0.09-1 0.158-0.4 0.45-0.72 0.857-0.99 0.428-0.27 0.858-0.4 1.33-0.4h15.56 0.135c0.723 0 1.467-0.18 2.163-0.55 0.159-0.06 0.317-0.15 0.475-0.25 0.858-0.54 1.42-1.19 1.712-1.96 0.317-0.74 0.249-1.4-0.178-1.94s-1.107-0.81-2.009-0.81h-2.298-13.373z"/>
   <path d="m-8.1973 159.46c-0.4509 0-0.9014 0.07-1.3524 0.23-0.4513 0.13-0.8783 0.33-1.2853 0.58-0.044 0.04-0.112 0.09-0.155 0.12-0.34 0.22-0.633 0.49-0.905 0.78-0.313 0.32-0.539 0.68-0.677 1.04l-1.194 2.78h2.776l13.436-0.03c0.9024 0.03 1.5588 0.3 2.0097 0.84 0.4274 0.54 0.4946 1.19 0.1783 1.94l-2.1875 5.55c-0.3163 0.81-0.878 1.47-1.7125 1.99-0.81103 0.54-1.6927 0.79-2.6619 0.79h-1.7565c-0.9489 0-1.8508 0.24-2.6618 0.76-0.8346 0.52-1.4002 1.18-1.7131 1.99-0.2928 0.74-0.249 1.38 0.1111 1.92 0.3601 0.56 1.0601 0.83 2.0965 0.83h1.7601c1.3763 0 2.7289-0.22 4.1052-0.65 1.3528-0.43 2.6385-1.02 3.8096-1.79 1.1946-0.74 2.231-1.62 3.1564-2.61 0.9018-0.99 1.5779-2.08 2.0288-3.23l2.1876-5.53c0.451-1.13 0.609-2.18 0.474-3.2-0.114-0.99-0.494-1.87-1.083-2.64-0.609-0.75-1.4204-1.36-2.4333-1.81-1.0163-0.42-2.2107-0.65-3.5399-0.65h-12.811z"/>
   <path d="m27.615 159.48c-1.357 0-2.73 0.23-4.106 0.66-1.353 0.42-2.615 1.03-3.813 1.78-1.171 0.74-2.231 1.62-3.156 2.64-0.902 1.02-1.578 2.07-2.006 3.2l-2.187 5.53c-0.451 1.15-0.609 2.24-0.495 3.23 0.135 1.01 0.495 1.89 1.08 2.64 0.586 0.74 1.4 1.33 2.413 1.76 0.993 0.45 2.187 0.67 3.564 0.67h8.817 0.158c1.353 0 2.682-0.22 4.058-0.65 1.353-0.43 2.638-1.04 3.833-1.78 1.218-0.77 2.278-1.65 3.18-2.66 0.925-1 1.602-2.06 2.053-3.19l1.827-4.67 0.336-0.85c0.451-1.13 0.609-2.19 0.475-3.21-0.091-0.84-0.36-1.6-0.811-2.28-0.091-0.11-0.182-0.25-0.273-0.36-0.609-0.77-1.42-1.35-2.433-1.8-1.016-0.43-2.187-0.66-3.54-0.66h-8.863-0.111zm-2.168 5.51h2.279 6.696c0.407 0 0.791 0.09 1.127 0.22 0.34 0.16 0.609 0.37 0.811 0.64 0.206 0.27 0.34 0.56 0.384 0.9 0.047 0.34 0 0.67-0.135 1.01l-2.187 5.55c-0.135 0.34-0.36 0.68-0.653 1.02-0.316 0.34-0.676 0.63-1.104 0.9-0.407 0.27-0.858 0.48-1.309 0.63-0.451 0.16-0.878 0.23-1.309 0.23h-2.321l-6.653-0.02c-0.922 0-1.602-0.27-2.03-0.82-0.403-0.54-0.45-1.19-0.158-1.96l2.188-5.53c0.293-0.77 0.858-1.42 1.716-1.96 0.831-0.54 1.713-0.81 2.658-0.81z"/>
   <path d="m73.433 154c-0.743 0-1.42 0.13-2.076 0.45-0.202 0.09-0.403 0.2-0.609 0.32-0.811 0.51-1.373 1.17-1.689 1.98l-1.084 2.75h-8.318c-1.309 0-2.618 0.21-3.991 0.66-1.356 0.43-2.638 1.01-3.836 1.76-1.195 0.77-2.255 1.62-3.201 2.59-0.925 0.97-1.601 2.04-2.052 3.14l-3.742 9.52-0.656 1.67c-0.313 0.81-0.27 1.47 0.137 1.99 0.135 0.18 0.314 0.31 0.519 0.43 0.383 0.22 0.902 0.33 1.531 0.33 0.882 0 1.736-0.25 2.594-0.72 0.835-0.47 1.444-1.15 1.78-2.03l4.422-11.21c0.135-0.34 0.36-0.68 0.677-0.97 0.316-0.32 0.676-0.59 1.08-0.84 0.407-0.24 0.834-0.45 1.309-0.59 0.451-0.15 0.858-0.22 1.262-0.22h13.867 7.578c0.97 0 1.848-0.25 2.683-0.77 0.814-0.52 1.376-1.17 1.692-1.98 0.293-0.73 0.249-1.38-0.091-1.92-0.36-0.54-1.06-0.84-2.096-0.84h-6.586l1.084-2.75c0.336-0.88 0.269-1.55-0.182-2.03-0.471-0.5-1.151-0.72-2.006-0.72z"/>
   <path d="m96.41 167.02-25.053 0.02h-11.522c-0.609 0-0.629 0.59-0.629 0.59s-0.071 0.63 0.653 0.63c0.72 0 4.667 0.02 4.667 0.02l-2.006 5.06c-0.45 1.15-0.609 2.21-0.498 3.22 0.135 1 0.498 1.88 1.084 2.62 0.609 0.75 1.397 1.35 2.436 1.78 1.013 0.43 2.208 0.66 3.56 0.66h2.255 7.622c1.06 0 1.962-0.28 2.753-0.82 0.787-0.56 1.329-1.19 1.622-1.94 0.293-0.74 0.272-1.39-0.091-1.94-0.36-0.54-1.057-0.81-2.117-0.81h-9.789-0.067c-0.902 0-1.578-0.27-2.006-0.81-0.427-0.56-0.498-1.2-0.202-1.96l2.006-5.06h0.269l25.053-0.02c0.653 0 0.61-0.63 0.61-0.63s0.043-0.61-0.61-0.61z"/>
  </g>
 </g>
</svg>
