<svg xmlns="http://www.w3.org/2000/svg" height="107.06" width="600" viewBox="0 0 158.75 28.32721"><g transform="translate(-57.44-154.32)" fill="#7cc091"><path d="m160.87 163.29c-.22-.14-.46-.21-.73-.21h-8.66v2.49h8.66c.39 0 .7-.11.92-.33s.33-.52.33-.91c0-.49-.18-.84-.52-1.04"/><path d="m76.44 163.29c-.221-.14-.463-.21-.729-.21h-8.66v2.49h8.66c.39 0 .696-.11.917-.33.219-.22.329-.52.329-.91 0-.49-.171-.84-.517-1.04"/><path d="m92.75 163.08c-1.349 0-2.51.49-3.482 1.46-.975.97-1.46 2.14-1.46 3.5 0 1.39.478 2.55 1.435 3.51.972.97 2.142 1.46 3.507 1.46 1.364 0 2.534-.49 3.507-1.46.972-.97 1.459-2.14 1.459-3.51 0-1.36-.487-2.53-1.459-3.5-.973-.97-2.143-1.46-3.507-1.46"/><path d="m169.76 154.32h-.93-103.01c-2.143 0-4.29.82-5.926 2.45-1.637 1.64-2.455 3.79-2.455 5.93v19.94h111.39.93 26.07c5.21 0 10.42-1.98 14.4-5.96 3.97-3.97 5.96-9.18 5.96-14.39v-7.97h-46.43zm-89.46 14.31c-.784.79-1.771 1.33-2.964 1.63-.691.17-1.233.26-1.623.26h-8.66v7.43h-4.964v-13.84c0-1.53.582-3.06 1.748-4.22 1.165-1.17 2.695-1.75 4.223-1.75h7.653c.485 0 1.02.08 1.6.23 1.206.3 2.196.83 2.965 1.6 1.082 1.09 1.625 2.54 1.625 4.36 0 1.8-.535 3.24-1.603 4.3m19.438 6.43c-1.932 1.93-4.261 2.89-6.989 2.89-2.729 0-5.068-.96-7.01-2.89-1.93-1.95-2.896-4.29-2.896-7.02 0-2.72.966-5.05 2.896-6.98 1.944-1.95 4.283-2.92 7.01-2.92 2.728 0 5.057.97 6.989 2.92 1.941 1.93 2.921 4.26 2.921 6.98 0 2.73-.98 5.07-2.921 7.02m24.14 2.89h-4.59l-5.32-5.32-5.31 5.32h-4.59v-19.81h4.96v12.44l4.94-4.96 4.97 4.96v-12.44h4.94v19.81zm21.23-14.87h-14.85v2.49h5.55v4.95h-5.55v2.49h14.85v4.94h-19.82v-19.81h19.82v4.94m20.65 9.2c.38 1.21.57 2.28.57 3.2v2.47h-4.94v-2.47c0-1.6-.5-2.82-1.51-3.67-.97-.86-2.12-1.29-3.46-1.29h-4.94v7.43h-4.96v-19.2-.61h.61 13.01c.49 0 1.02.08 1.6.23 1.21.3 2.2.83 2.97 1.6 1.08 1.09 1.62 2.54 1.62 4.36 0 1.16-.21 2.16-.63 3.01-.37.69-.86 1.28-1.49 1.76.68.93 1.19 1.99 1.55 3.18m25.67-8.72h-6.87v13.73h-4.57v-13.73h-6.87v-4.57h18.31v4.57zm19.6-.57c0 3.94-1.4 7.31-4.19 10.11-2.8 2.8-6.17 4.19-10.11 4.19h-4v-18.3h4.59v13.72c2.52 0 4.67-.96 6.45-2.89 1.8-1.93 2.7-4.21 2.7-6.83v-4h4.56v4"/></g></svg>