<?xml version="1.0" encoding="UTF-8" standalone="no"?>
<svg xmlns="http://www.w3.org/2000/svg" height="188.37" width="600" version="1.1" viewBox="0 0 158.75 49.838263">
 <g transform="translate(51.872 -148.73)" fill="#d91e25">
  <path d="m-47.974 169.88-3.898 17.22h17.134v-2.36h-11.427l0.734-4.62c0.265-1.66 1.407-3.14 3.912-3.14 2.619 0 3.58 1.19 3.474 3.14l-0.106 2.01h3.413v-5.63h-8.468l0.28-2.11h1.491l0.007-0.02c-1.044-0.31-1.385-1.07-1.271-1.92 0.023-0.16 0.06-0.42 0.06-0.42h2.384l-0.045 0.55c-0.068 0.7 0.06 1.75 1.672 1.75h3.89v-2.66h-7.734l0.25-1.81h7.484v-0.72h-7.484v-2.33h1.067v-0.03c-0.78-0.46-1.294-1.27-1.294-2.21 0-0.96 0.317-1.71 1.263-2.13-0.824-0.6-1.263-1.36-1.263-2.39 0-2.45 1.884-2.6 3.367-2.6h4.344v-1.2c-0.393 0.5-0.991 0.8-1.816 0.8-2.543 0-2.346-2.72-2.709-4.46-0.091-0.43-0.235-0.67-0.719-0.67-0.583 0-0.81 0.69-0.81 1.21 0 0.7 0.318 1.14 0.976 1.26v2.35c-1.021-0.04-1.687-0.51-2.089-1.19-0.393-0.68-0.544-1.58-0.544-2.45 0-1.6 0.317-3.16 1.907-3.51h-7.432zm5.063 0-0.265 1.8h-2.013l0.325-1.8zm5.26-16.38c0.136 0.56 0.378 1.04 0.991 1.04 0.628 0 0.886-0.49 0.886-1.05 0-1.21-0.689-1.6-2.301-1.55 0.227 0.36 0.272 1.01 0.424 1.56m-3.913 25.71c-1.029 0-1.506 0.54-1.597 1.27l-0.212 1.65h2.922l0.143-1.65c0.061-0.74-0.265-1.27-1.256-1.27m1.218-18.31c0 1.09 0.848 1.19 2.104 1.19h3.504v-2.24h-4.268c-0.84 0-1.34 0.4-1.34 1.05m0 4.55c0 0.9 0.53 1.28 2.127 1.28h3.481v-2.23h-4.117c-0.915 0-1.491 0.26-1.491 0.95"/>
  <path d="m8.9327 149.59-10.406 18.39-10.27-18.11-0.151-0.28h-8.257v37.53h7.106v-25.12l8.8624 15.58h5.1084l9.1652-15.58v25.12h7.166v-37.53z"/>
  <path d="m106.88 149.61h-5.15l-13.635 13.64-13.638-13.64h-5.131v4.85l13.781 13.78-13.781 13.78v5.08h4.995l13.819-13.83 13.83 13.83h4.91v-5.07l-13.745-13.74 13.745-13.75z"/>
  <path d="m33.791 180.01 9.898-17.08 9.892 17.08zm9.898-31.28-22.272 38.38h44.538z"/>
  <path d="m40.131 198.57h7.106v-7.11h-7.106z"/>
 </g>
</svg>
