<svg xmlns="http://www.w3.org/2000/svg" viewBox="0 0 600 370.98"><g transform="translate(0-681.38)"><g fill="#4e91d4"><path d="m168.97 783.93h-41.41c-8.14 0-12.97 3.9-12.97 10.195 0 10.483 8.167 11.543 20.403 11.543h33.975v-21.738z"/><path d="m150.35 732.35c6.099 0 8.612-4.764 8.612-10.195 0-11.661-6.701-15.535-22.327-14.972 2.146 3.455 2.591 9.75 4.083 15.08 1.322 5.484 3.638 10.09 9.632 10.09"/><path d="m87.21 984.25l-2.02 15.98h28.31l1.4-15.98c.589-7.211-2.513-12.315-12.185-12.315-9.947 0-14.619 5.183-15.509 12.315"/><path d="m114.59 838.19c0 8.782 5.13 12.538 20.6 12.538h33.779v-21.699h-39.93c-8.913 0-14.449 2.617-14.449 9.161"/><path d="m70.67 881.34h19l-2.565 17.446h-19.553l3.115-17.446m-70.67 167.26h168.99l-.013-23.13h-110.93l7.146-44.759c2.578-16.06 13.676-30.507 37.941-30.507 25.455 0 34.774 11.609 33.766 30.507l-1.047 19.514h33.12v-54.719h-82.22l2.722-20.443h14.527l.026-.262c-10.137-3-13.448-10.35-12.322-18.69.183-1.479.55-3.979.55-3.979h23.23l-.51 5.287c-.615 6.806.654 16.922 16.242 16.922h37.744v-25.678h-75.04l2.395-17.642h72.65v-7.01h-72.62v-22.628h10.339v-.314c-7.552-4.424-12.525-12.342-12.525-21.424 0-9.331 3.089-16.608 12.224-20.626-7.996-5.903-12.224-13.232-12.224-23.296 0-23.715 18.231-25.25 32.653-25.25h42.16v-11.569c-3.743 4.803-9.593 7.774-17.616 7.774-24.657 0-22.746-26.437-26.27-43.38-.89-4.175-2.343-6.491-7.01-6.491-5.68 0-7.866 6.766-7.866 11.805 0 6.779 3.049 11.02 9.502 12.211v22.851c-9.96-.445-16.386-5.04-20.325-11.674-3.808-6.583-5.222-15.221-5.222-23.662 0-15.574 3.089-30.769 18.519-34.11h-72.2v196.97l-40.45 157.53-.026 9.8z"/></g><g fill="#fff"><path d="m240.96 828.27v-.667c0-4.712 1.78-8.939 5.104-12.734l98.47-106.52h-88.86c-6.491 0-12.09-5.314-12.09-12.04 0-6.635 5.601-12.263 12.09-12.263h113.67c6.714 0 12.315 5.628 12.315 12.04v.694c0 4.672-1.479 9.07-4.908 12.721l-98.67 106.48h91.23c6.622 0 12.25 5.562 12.25 12.289 0 6.688-5.628 12.07-12.25 12.07h-116.11c-6.452 0-12.237-5.628-12.237-12.07"/><path d="m571.22 762.64v-.471c0-30.337-22.13-55.54-53.16-55.54-31.02 0-52.717 24.735-52.717 55.12v.419c0 30.376 22.16 55.36 53.17 55.36 31.04 0 52.704-24.539 52.704-54.889m-134.63 0v-.471c0-43.961 33.949-80.79 81.928-80.79 47.992 0 81.48 36.41 81.48 80.37v.419c0 43.974-33.949 80.84-81.941 80.84-47.979 0-81.47-36.423-81.47-80.37"/><path d="m361.87 971.97v-.419c0-30.32-22.13-55.6-53.15-55.6-31 0-52.651 24.762-52.651 55.15v.445c0 30.337 22.09 55.37 53.07 55.37 31.08 0 52.73-24.592 52.73-54.955m-134.62 0v-.419c0-43.987 33.936-80.83 81.89-80.83 48.02 0 81.48 36.4 81.48 80.38v.445c0 43.948-33.923 80.82-81.902 80.82s-81.47-36.436-81.47-80.4"/><path d="m444.24 906.22c0-7.604 6.05-13.834 13.886-13.834h2.892c6.02 0 10.01 3.102 12.734 7.368l44.563 69.979 44.786-70.17c2.932-4.712 6.936-7.172 12.512-7.172h2.879c7.826 0 13.834 6.23 13.834 13.834v130.81c0 7.604-6.01 13.624-13.834 13.624-7.342 0-13.598-6.23-13.598-13.624v-93.72l-35.402 53.2c-2.932 4.45-6.491 7.185-11.648 7.185-4.908 0-8.468-2.735-11.373-7.185l-35.23-52.782v93.5c0 7.617-6.03 13.428-13.598 13.428-7.578 0-13.402-5.811-13.402-13.428v-131.01z"/></g></g></svg>