<?xml version="1.0" encoding="UTF-8" standalone="no"?>
<svg xmlns="http://www.w3.org/2000/svg" height="165.51" width="600" version="1.1" viewBox="0 0 158.75 43.790611">
 <g fill="#d91e25">
  <g stroke-width=".87865">
   <path d="m22.688 18.583-3.425 15.13h15.055v-2.074h-10.04l0.644-4.059c0.233-1.458 1.237-2.759 3.438-2.759 2.301 0 3.145 1.046 3.052 2.759l-0.093 1.766h2.999v-4.947h-7.441l0.246-1.854h1.311l0.006-0.017c-0.918-0.273-1.217-0.94-1.117-1.687 0.02-0.141 0.053-0.369 0.053-0.369h2.094l-0.039 0.483c-0.06 0.615 0.053 1.538 1.469 1.538h3.418v-2.337h-6.796l0.22-1.591h6.576v-0.632h-6.576v-2.048h0.938v-0.026c-0.686-0.404-1.137-1.116-1.137-1.942 0-0.843 0.278-1.502 1.109-1.871-0.724-0.528-1.109-1.195-1.109-2.1004 0-2.1527 1.655-2.2845 2.958-2.2845h3.817v-1.0543c-0.345 0.4393-0.871 0.7029-1.596 0.7029-2.234 0-2.061-2.3899-2.38-3.9188-0.08-0.3778-0.207-0.5887-0.632-0.5887-0.512 0-0.712 0.6063-0.712 1.0632 0 0.615 0.28 1.0017 0.858 1.1071v2.0648c-0.897-0.0351-1.482-0.4481-1.835-1.0456-0.346-0.5975-0.478-1.3882-0.478-2.1527 0-1.4058 0.278-2.7765 1.675-3.084h-6.53zm4.449 0-0.233 1.581h-1.769l0.286-1.581zm4.621-14.392c0.12 0.492 0.332 0.9138 0.871 0.9138 0.552 0 0.779-0.4305 0.779-0.9226 0-1.0632-0.606-1.4058-2.022-1.3619 0.199 0.3163 0.239 0.8874 0.372 1.3707m-3.438 22.59c-0.904 0-1.323 0.474-1.403 1.115l-0.186 1.45h2.567l0.126-1.45c0.053-0.65-0.233-1.115-1.104-1.115m1.07-16.089c0 0.958 0.745 1.046 1.849 1.046h3.079v-1.9681h-3.75c-0.738 0-1.178 0.3511-1.178 0.9221m0 3.998c0 0.791 0.466 1.125 1.869 1.125h3.059v-1.959h-3.618c-0.804 0-1.31 0.228-1.31 0.834"/>
   <path d="m72.689 0.75499-9.143 16.158-9.024-15.912-0.133-0.24601h-7.255v32.976h6.244v-22.072l7.787 13.689h4.488l8.053-13.689v22.072h6.297v-32.976z"/>
   <path d="m158.75 0.77256h-4.53l-11.98 11.984-11.98-11.984h-4.51v4.261l12.11 12.108-12.11 12.107v4.464h4.39l12.14-12.152 12.16 12.152h4.31v-4.455l-12.08-12.072 12.08-12.082z"/>
   <path d="m94.531 27.483 8.699-15.007 8.69 15.007zm8.699-27.484-19.572 33.723h39.132z"/>
   <path d="m100.1 43.791h6.24v-6.247h-6.24z"/>
  </g>
  <path d="m0 10.473v-9.5531h1.9288v3.7598h3.7793v-3.7598h1.9288v9.5531h-1.9288v-4.1773h-3.7793v4.1773z"/>
  <path d="m9.6308 0.91986h3.5252q1.193 0 1.818 0.18244 0.841 0.2476 1.44 0.8797 0.6 0.6321 0.912 1.5508 0.313 0.9123 0.313 2.2546 0 1.1794-0.293 2.0331-0.358 1.0425-1.023 1.6876-0.502 0.4887-1.355 0.7629-0.639 0.202-1.708 0.202h-3.6292zm1.9292 1.616v6.3271h1.44q0.808 0 1.166-0.0912 0.469-0.1173 0.775-0.3975 0.313-0.2802 0.509-0.9188 0.195-0.6451 0.195-1.7528t-0.195-1.7007q-0.196-0.593-0.548-0.9253-0.351-0.3323-0.892-0.4496-0.404-0.0912-1.584-0.0912z"/>
 </g>
</svg>
