<svg xmlns="http://www.w3.org/2000/svg" viewBox="0 0 600 216.48"><defs><linearGradient id="3" gradientUnits="userSpaceOnUse" x2="0" y1="111.05" y2="-345.48"><stop stop-color="#c0401a"/><stop stop-color="#dd4b1f" offset="1"/></linearGradient><linearGradient id="2" gradientUnits="userSpaceOnUse" x2="0" y1="111.05" y2="-345.48"><stop stop-color="#c0421a"/><stop stop-color="#dd4d1e" offset="1"/></linearGradient><linearGradient id="0" gradientUnits="userSpaceOnUse" x2="0" y1="111.05" y2="-345.48"><stop stop-color="#dedede"/><stop stop-color="#fff" offset="1"/></linearGradient><linearGradient id="1" gradientUnits="userSpaceOnUse" x2="0" y1="111.05" y2="-345.48"><stop stop-color="#b92b1d"/><stop stop-color="#d43222" offset="1"/></linearGradient></defs><g transform="translate(535.59 236.67)"><path fill="url(#0)" d="m-447.45-26.407h394.53v-65.08c-3.883-17.893-21.412-21.435-39.4-21.435-9.832 0-19.8 1.68-27.407 6.085-7.675 4.519-12.988 11.966-13.465 23.433h26.408c1.34-7.448 6.312-10.967 14.1-10.967 5.858 0 13.647 2.543 13.647 9.128 0 5.382-2.657 7.06-7.493 8.08-19.596 4.087-50.14 1.862-50.14 30.404 0 9.264 3.429 15.985 8.969 20.345h-13.42l.045-48.706c-.045-16.712-1.794-37.807-29.2-37.807-11.671 0-20.14 4.905-26.953 14.169-4.632-10.627-13.03-14.169-23.842-14.169-10.49 0-19.596 5.722-24.796 14.51h-.318v-11.966h-26.2v83.969h-8.08v-84.02l-20.413-2.725v86.74h-29.723v-43.665c0-15.827 9.01-18.915 16.576-18.915 1.045 0 2.066.068 3.043.159l6.131.545v-26.839l-4.632-.613c-1.204-.159-2.361-.25-3.542-.25-8.152 0-15.01 4.201-18.01 14.464l-.318-.045v-16.735l-23.638-3.202v95.09h-63.24v-38.33l22.57 1.203c1.067.068 2.112.068 3.134.068 20 0 32.15-11.1 32.15-39.05 0-28.11-16.712-40.917-35.29-43.892l-51.794-8.265v128.27zm47.797-62.53l-18.574-1.567v-32.811l18.574 2.362c8.152 1.044 14.192 6.403 14.192 17.916 0 10.263-4.995 14.192-12.239 14.192-.636 0-1.294-.023-1.953-.091m206.4 23.23c0-14.15 1.203-23.569 13.306-23.569 7.311 0 11.807 5.563 11.807 14.986v47.888h-25.11v-39.3zm-52.11.204c0-17.893 4.337-23.774 14.464-23.774 7.652 0 10.649 6.403 10.649 16.689v46.19h-25.11v-39.1zm136.92 17.575c0-6.948 5.291-9.628 11.603-11.149 6.153-1.726 13.488-2.225 17.461-4.723.658 18.05-3.837 25.795-17.257 25.795-6.312 0-11.807-2.861-11.807-9.923m-192.51-73.16l20.21 2.975v-21.98l-20.21-3.565v22.57zm-151.79 94.69h5.291-5.291"/><path fill="url(#1)" d="m-462.86-221.75l.114.023v195.32h10.01 5.291v-128.27l51.794 8.265c18.574 2.975 35.29 15.781 35.29 43.892 0 27.952-12.148 39.05-32.15 39.05-1.022 0-2.066 0-3.134-.068l-22.57-1.204v38.33h63.24v-95.09l23.638 3.202v16.735l.318.045c2.997-10.263 9.855-14.464 18.01-14.464 1.181 0 2.339.091 3.542.25l4.632.613v26.839l-6.131-.545c-.976-.091-1.998-.159-3.043-.159-7.561 0-16.576 3.088-16.576 18.915v43.665h29.723v-86.74l20.413 2.725v84.02h8.08v-83.969h26.2v11.966h.318c5.2-8.787 14.305-14.51 24.796-14.51 10.808 0 19.21 3.542 23.842 14.169 6.812-9.264 15.282-14.169 26.953-14.169 27.407 0 29.16 21.09 29.2 37.807l-.045 48.706h13.42c-5.54-4.36-8.969-11.08-8.969-20.345 0-28.542 30.54-26.317 50.14-30.404 4.837-1.022 7.493-2.702 7.493-8.08 0-6.585-7.788-9.128-13.647-9.128-7.788 0-12.761 3.519-14.1 10.967h-26.408c.477-11.467 5.79-18.915 13.465-23.433 7.607-4.405 17.575-6.085 27.407-6.085 17.984 0 35.513 3.542 39.4 21.435v-83.49h-227.79l-182.15-46.798v.023zm161.92 100.66v-22.57l20.21 3.565v21.98l-20.21-2.975m-117.28 30.586l18.574 1.567c.658.068 1.317.091 1.953.091 7.243 0 12.239-3.928 12.239-14.192 0-11.512-6.04-16.871-14.192-17.916l-18.574-2.362v32.811m224.98 24.797v39.3h25.11v-47.888c0-9.423-4.496-14.986-11.807-14.986-12.1 0-13.306 9.423-13.306 23.569m-52.11.204v39.1h25.11v-46.19c0-10.286-2.997-16.689-10.649-16.689-10.127 0-14.464 5.881-14.464 23.774m148.52 6.426c-6.312 1.521-11.603 4.201-11.603 11.149 0 7.06 5.495 9.923 11.807 9.923 13.42 0 17.916-7.743 17.257-25.795-3.974 2.498-11.308 2.997-17.461 4.723m-366.03 32.675h.114-.114z"/><g fill="url(#3)"><path d="m-535.59-160.74h9.809v-12.852h-9.809v12.852"/><path d="m-535.59-181.2h53.906v-12.807h-53.906v12.807"/><path d="m-505.1-153.56c-7.493 0-16.939 1.34-16.939 13.828 0 5.268 2.203 9.151 6.358 12.239-4.746 2.089-6.358 6.494-6.358 11.376 0 4.791 2.611 8.924 6.517 11.285v.136h-5.336v12.443h39.17v-12.807h-19.1c-7.993 0-10.649-1.953-10.649-6.585 0-3.474 2.838-4.814 7.471-4.814h22.275v-12.852h-19.16c-6.358 0-10.581-.545-10.581-6.06 0-3.292 2.498-5.336 6.721-5.336h23.02v-12.852h-23.411z"/><path d="m-520.86-160.74h39.17v-12.852h-39.17v12.852"/><path d="m-520.86-223.55l26.862 5.472v.136l-26.862 7.97v13.601l27.23-10.127c2.134-.772 13.03-5.04 15.14-5.04 2.679 0 4.337 2.18 4.337 5.132v180h11.285.114v-195.32l-.114-.023-57.993-14.918v13.12z"/><path d="m-535.37-47.5l-.227 6.199c0 10.967 3.451 14.896 14.737 14.896v6.222h8.265v-6.222h30.904v-12.852h-30.904v-7.675h-8.265v7.675h-1.748c-3.565 0-3.928-1.794-3.928-4.723l.182-3.52h-9.01"/><path d="m-491.72-85.67h-17.12c-11.149 0-13.193 8.969-13.193 18.279 0 4.473.772 8.969 2.747 12.489 2.044 3.451 5.359 5.881 10.513 6.06v-11.966c-3.361-.613-4.927-2.884-4.927-6.426 0-2.657 1.113-6.199 4.087-6.199 2.407 0 3.134 1.181 3.61 3.406 1.794 8.901.84 22.797 13.579 22.797 8.08 0 11.853-5.881 11.853-13.397 0-4.655-1.34-9.582-4.814-12.875l3.701-.795v-12.875c-3.065 1.499-6.721 1.499-10.04 1.499m-6.222 20.322c-.704-2.816-.954-6.108-2.089-7.925.5-.023 1.022-.023 1.476-.023 7.02 0 10.06 2.134 10.06 7.879 0 2.838-1.272 5.336-4.428 5.336-3.111 0-4.314-2.407-5.02-5.268"/></g><g fill="url(#2)"><path d="m-10-174.93v19.982h-18.778v-19.982h-14.282v54.814h14.282v-22.548h18.778v22.548h14.282v-54.814h-14.282"/><path d="m13.952-174.93v54.814h23.569c16.644 0 26.885-9.673 26.885-27.634 0-16.985-10.08-27.18-26.885-27.18h-23.569m14.282 12.284h6.767c9.741 0 15.12 4.837 15.12 14.805 0 10.99-4.314 15.213-15.12 15.441h-6.767v-30.25z"/></g></g></svg>