<svg xmlns="http://www.w3.org/2000/svg" viewBox="0 0 600 269.11"><defs><linearGradient id="0" gradientUnits="userSpaceOnUse" x2="0" y1="169.26" y2="-398.23"><stop stop-color="#c0401a"/><stop stop-color="#dd4b1f" offset="1"/></linearGradient><linearGradient id="1" gradientUnits="userSpaceOnUse" x2="0" y1="169.26" y2="-398.23"><stop stop-color="#b92b1d"/><stop stop-color="#d43222" offset="1"/></linearGradient><linearGradient id="2" gradientUnits="userSpaceOnUse" x2="0" y1="169.26" y2="-398.23"><stop stop-color="#dedede"/><stop stop-color="#fff" offset="1"/></linearGradient></defs><g transform="translate(594.26 262.98)"><path fill="url(#2)" d="m-484.68-1.608h490.43v-80.896c-4.833-22.246-26.623-26.646-48.978-26.646-12.222 0-24.613 2.089-34.07 7.565-9.54 5.617-16.14 14.875-16.738 29.13h32.827c1.665-9.258 7.847-13.633 17.528-13.633 7.282 0 16.964 3.161 16.964 11.347 0 6.69-3.302 8.778-9.315 10.05-24.359 5.081-62.32 2.315-62.32 37.795 0 11.516 4.262 19.871 11.149 25.29h-16.682l.056-60.55c-.056-20.774-2.23-46.996-36.3-46.996-14.508 0-25.04 6.097-33.504 17.613-5.758-13.21-16.202-17.613-29.637-17.613-13.04 0-24.359 7.113-30.823 18.04h-.395v-14.875h-32.573v104.38h-10.05v-104.44l-25.375-3.387v107.82h-36.948v-54.28c0-19.674 11.206-23.512 20.605-23.512 1.298 0 2.569.085 3.782.198l7.621.677v-33.36l-5.758-.762c-1.496-.198-2.935-.31-4.403-.31-10.133 0-18.657 5.222-22.383 17.98l-.395-.056v-20.803l-29.383-3.98v118.21h-78.61v-47.645l28.06 1.496c1.327.085 2.625.085 3.895.085 24.867 0 39.968-13.803 39.968-48.549 0-34.944-20.774-50.863-43.863-54.56l-64.38-10.274v159.45zm59.42-77.73l-23.09-1.948v-40.787l23.09 2.936c10.133 1.298 17.641 7.96 17.641 22.27 0 12.758-6.21 17.641-15.214 17.641-.79 0-1.609-.028-2.427-.113m256.57 28.875c0-17.585 1.496-29.3 16.54-29.3 9.09 0 14.678 6.915 14.678 18.629v59.53h-31.22v-48.859zm-64.779.254c0-22.24 5.391-29.553 17.98-29.553 9.512 0 13.238 7.96 13.238 20.746v57.41h-31.22v-48.605m170.2 21.847c0-8.637 6.577-11.968 14.423-13.859 7.649-2.145 16.766-2.766 21.706-5.871.819 22.44-4.77 32.06-21.452 32.06-7.847 0-14.678-3.556-14.678-12.335m-239.3-90.94l25.12 3.698v-27.323l-25.12-4.431v28.06zm-188.69 117.7h6.577-6.577"/><path fill="url(#1)" d="m-503.85-244.44l.141.028v242.8h12.448 6.577v-159.45l64.38 10.274c23.09 3.698 43.863 19.617 43.863 54.56 0 34.746-15.1 48.549-39.968 48.549-1.27 0-2.569 0-3.895-.085l-28.06-1.496v47.645h78.61v-118.21l29.383 3.98v20.803l.395.056c3.726-12.758 12.25-17.98 22.383-17.98 1.468 0 2.907.113 4.403.31l5.758.762v33.36l-7.621-.677c-1.214-.113-2.484-.198-3.782-.198-9.399 0-20.605 3.839-20.605 23.512v54.28h36.948v-107.82l25.375 3.387v104.44h10.05v-104.38h32.573v14.875h.395c6.464-10.923 17.782-18.04 30.823-18.04 13.436 0 23.879 4.403 29.637 17.613 8.468-11.516 18.996-17.613 33.504-17.613 34.07 0 36.24 26.22 36.3 46.996l-.056 60.55h16.682c-6.887-5.419-11.149-13.774-11.149-25.29 0-35.48 37.964-32.714 62.32-37.795 6.01-1.27 9.315-3.359 9.315-10.05 0-8.186-9.681-11.347-16.964-11.347-9.681 0-15.863 4.375-17.528 13.633h-32.827c.593-14.254 7.198-23.512 16.738-29.13 9.456-5.476 21.847-7.565 34.07-7.565 22.355 0 44.15 4.403 48.972 26.645v-103.79h-283.16l-226.43-58.17v.028zm201.28 125.13v-28.06l25.12 4.431v27.323l-25.12-3.698m-145.79 38.02l23.09 1.948c.819.085 1.637.113 2.427.113 9 0 15.214-4.883 15.214-17.641 0-14.311-7.508-20.972-17.641-22.27l-23.09-2.936v40.787zm279.66 30.823v48.859h31.22v-59.53c0-11.714-5.589-18.629-14.678-18.629-15.04 0-16.54 11.714-16.54 29.3m-64.779.254v48.605h31.22v-57.41c0-12.786-3.726-20.746-13.238-20.746-12.589 0-17.98 7.311-17.98 29.553m184.63 7.988c-7.847 1.891-14.423 5.222-14.423 13.859 0 8.778 6.831 12.335 14.678 12.335 16.682 0 22.27-9.625 21.452-32.06-4.94 3.105-14.06 3.726-21.706 5.871m-455 40.617h.141-.141z"/><g fill="url(#0)"><path d="m-594.26-168.59h12.194v-15.976h-12.194v15.976"/><path d="m-594.26-194.02h67.01v-15.919h-67.01v15.919"/><path d="m-556.35-159.67c-9.315 0-21.06 1.665-21.06 17.19 0 6.548 2.738 11.375 7.903 15.214-5.899 2.597-7.903 8.07-7.903 14.14 0 5.956 3.246 11.09 8.101 14.03v.169h-6.633v15.468h48.69v-15.919h-23.738c-9.936 0-13.238-2.427-13.238-8.186 0-4.319 3.528-5.984 9.286-5.984h27.69v-15.976h-23.823c-7.903 0-13.153-.677-13.153-7.536 0-4.093 3.105-6.633 8.355-6.633h28.621v-15.976h-29.1"/><path d="m-575.94-168.59h48.69v-15.976h-48.69v15.976"/><path d="m-575.94-246.67l33.391 6.803v.169l-33.391 9.907v16.907l33.843-12.589c2.653-.96 16.202-6.266 18.827-6.266 3.331 0 5.391 2.71 5.391 6.379v223.75h14.03.141v-242.8l-.141-.028-72.09-18.544v16.315z"/><path d="m-593.97-27.83l-.282 7.706c0 13.633 4.29 18.516 18.319 18.516v7.734h10.274v-7.734h38.42v-15.976h-38.42v-9.54h-10.274v9.54h-2.173c-4.432 0-4.883-2.23-4.883-5.871l.226-4.375h-11.206"/><path d="m-539.72-75.28h-21.282c-13.859 0-16.399 11.149-16.399 22.722 0 5.56.96 11.149 3.415 15.524 2.54 4.29 6.661 7.311 13.07 7.536v-14.875c-4.177-.762-6.125-3.585-6.125-7.988 0-3.302 1.383-7.706 5.081-7.706 2.992 0 3.895 1.468 4.488 4.234 2.23 11.06 1.044 28.339 16.879 28.339 10.05 0 14.734-7.31 14.734-16.653 0-5.786-1.665-11.911-5.984-16l4.601-.988v-16c-3.811 1.863-8.355 1.863-12.476 1.863m-7.734 25.26c-.875-3.5-1.186-7.593-2.597-9.851.621-.028 1.27-.028 1.835-.028 8.722 0 12.504 2.653 12.504 9.794 0 3.528-1.581 6.633-5.504 6.633-3.867 0-5.363-2.992-6.238-6.548"/></g></g></svg>