<svg xmlns="http://www.w3.org/2000/svg" height="468.61" width="600" viewBox="0 0 158.75 123.9865" xmlns:xlink="http://www.w3.org/1999/xlink"><defs><linearGradient id="6" gradientUnits="userSpaceOnUse" x2="0" y1="317.86" y2="360.69" xlink:href="#5"/><linearGradient id="5" gradientUnits="userSpaceOnUse" x2="0" y1="293.48" y2="317.54"><stop stop-color="#fff"/><stop stop-color="#eb7e81" offset="1"/></linearGradient><linearGradient id="3" gradientUnits="userSpaceOnUse" x2="0" y1="331.09" y2="373.97" xlink:href="#5"/><linearGradient id="4" gradientUnits="userSpaceOnUse" x2="0" y1="331.09" y2="361.35" xlink:href="#5"/><linearGradient id="1" gradientUnits="userSpaceOnUse" x1="122.09" x2="125.77" y1="308.28" y2="287.4"><stop stop-color="#e77378"/><stop stop-color="#a71f23" offset="1"/></linearGradient><linearGradient id="0" gradientUnits="userSpaceOnUse" x1="44.45" x2="53.1" y1="337.98" y2="288.93"><stop stop-color="#e77378"/><stop stop-color="#be1d23" offset="1"/></linearGradient><linearGradient id="2" gradientUnits="userSpaceOnUse" x2="0" y1="331.79" y2="361.36" xlink:href="#5"/><radialGradient id="7" gradientUnits="userSpaceOnUse" cy="346.52" cx="66.15" r="71.22"><stop stop-color="#e61e28"/><stop stop-color="#a71f23" offset="1"/></radialGradient></defs><g transform="translate(13.229-284.52)"><path fill="url(#7)" d="m-9.314 324.89c-11.947 32.08 4.369 67.77 36.43 79.7 32.08 11.95 67.767-4.37 79.74-36.46 4.89-13.16 5.02-26.97 1.24-39.51l.08.13c-.0001-.02-.09-.15-.17-.42-.12-.4-.26-.82-.4-1.22-.3-1.17-.5-2.61.19-3.26.9-.89 2.87.0001 4.07.72.32.18.62.38.93.57.09.06.15.11.15.11h-.03c1.05.57 2.15 1.09 3.31 1.53 11.23 4.2 23.74-1.52 27.92-12.74 4.18-11.26-1.53-23.76-12.76-27.93-11.24-4.19-23.74 1.54-27.93 12.75-1.03 2.75-1.43 5.56-1.36 8.32l-.06-.13s.65 2.8-1.01 3.33c-1.721.57-4.64-3.57-4.64-3.57l.107.18c-6.708-8.08-15.543-14.6-26.1-18.55-7.123-2.65-14.421-3.91-21.603-3.91-25.17 0-48.831 15.42-58.11 40.37"/><path fill="url(#0)" d="m8.297 313.45c0 13.41 18.12 24.25 40.49 24.25 22.327 0 40.47-10.84 40.47-24.25 0-13.39-18.14-24.26-40.47-24.26-22.367 0-40.49 10.87-40.49 24.26"/><path fill="url(#1)" d="m108.03 297.84c0 5.74 7.13 10.39 15.91 10.39 8.77 0 15.89-4.65 15.89-10.39 0-5.71-7.12-10.39-15.89-10.39-8.78 0-15.91 4.68-15.91 10.39"/><path fill="url(#3)" d="m12.782 336.84h-.116v-5.05h-4.63v42.18h4.63v-17.47h.116c2.039 3.26 4.929 4.85 8.689 4.85 4.089 0 7.269-1.45 9.637-4.35 2.329-2.91 3.518-6.79 3.518-11.63 0-4.34-1.034-7.82-3.122-10.39-2.088-2.6-5.02-3.89-8.718-3.89-4.408 0-7.733 1.93-10 5.75m2.194 18.14c-1.537-1.68-2.31-3.7-2.31-6.1v-4.03c0-2.86.821-5.17 2.455-7.06 1.633-1.85 3.798-2.81 6.505-2.81 2.542 0 4.552.91 6.05 2.72 1.469 1.84 2.213 4.4 2.213 7.58 0 3.83-.793 6.82-2.387 8.96-1.586 2.15-3.809 3.24-6.592 3.24-2.398 0-4.379-.85-5.935-2.5"/><path fill="url(#2)" d="m56.47 331.79v16.66c0 2.69-.764 4.85-2.214 6.53-1.469 1.65-3.296 2.5-5.577 2.5-4.668 0-6.998-3.08-6.998-9.18v-16.51h-4.61v17.25c0 8.21 3.47 12.31 10.352 12.31 4.03 0 6.998-1.74 8.941-5.24h.106v4.58h4.63v-28.9z"/><path fill="url(#6)" d="m66.08 360.69h4.658v-42.84h-4.658z"/><path fill="url(#4)" d="m81.02 331.62c-1.315.36-2.504.89-3.518 1.62-1.044.69-1.876 1.57-2.485 2.61-.638 1.04-.947 2.27-.947 3.6 0 1.09.174 2.08.503 2.9.309.82.812 1.58 1.469 2.21.648.66 1.46 1.26 2.426 1.78.957.5 2.088 1.02 3.373 1.51.928.39 1.779.72 2.591 1.03.783.35 1.498.7 2.088 1.12.589.41 1.044.89 1.411 1.43.338.55.531 1.19.531 1.96 0 2.72-2.039 4.09-6.118 4.09-3.035 0-5.79-.94-8.312-2.82v4.97c2.174 1.15 4.736 1.72 7.703 1.72 1.547 0 2.968-.17 4.33-.52 1.373-.31 2.6-.82 3.664-1.55 1.053-.69 1.875-1.57 2.513-2.63.628-1.04.966-2.26.966-3.7 0-1.18-.183-2.21-.58-3.02-.406-.86-.947-1.63-1.672-2.24-.705-.66-1.575-1.26-2.571-1.79-1.053-.49-2.175-.99-3.47-1.47-.957-.39-1.807-.75-2.571-1.06-.744-.33-1.392-.65-1.914-1.08-.541-.39-.947-.85-1.208-1.36-.261-.5-.396-1.11-.396-1.87 0-.6.135-1.17.396-1.68.261-.46.667-.92 1.16-1.26.512-.39 1.102-.63 1.798-.85.705-.21 1.469-.29 2.358-.29 2.765 0 5.21.7 7.356 2.09v-4.69c-2-.87-4.253-1.29-6.737-1.29-1.411 0-2.794.18-4.137.53"/><path fill="url(#5)" d="m116.75 294.75c-1.37.93-2.06 2.72-2.06 5.25v2.02h3.62v-1.87c0-1.42.27-2.33.78-2.72.36-.25 1.32-.55 3.79-.55 4.09 0 5.08.41 5.26.55.36.24.57.59.65 1.02.1.28.15.83.15 1.94 0 2.06-.23 2.58-.31 2.72-.22.35-.87.85-2.72 1.33l-5.14 1.45c-2.42.65-3.95 1.39-4.78 2.39-.86 1.06-1.3 2.66-1.3 4.91v4.35h17.75v-3.38h-14.13v-2c0-.85.21-1.45.61-1.83.24-.22.85-.57 2.26-.97l6.34-1.77c1.99-.52 3.35-1.34 4.04-2.43.59-.95.88-2.41.88-4.55 0-1.88-.17-3.18-.51-4.03-.47-1.04-1.37-1.87-2.71-2.48-.9-.39-2.94-.61-6.2-.61-3.02 0-5.07.42-6.27 1.26"/></g></svg>