<svg xmlns="http://www.w3.org/2000/svg" viewBox="0 0 446.39999 450"><rect height="383.26" width="383.26" y="36.23" x="34.32" fill="#fff" rx="18.591"/><path fill="#e2000b" d="m0 225v-225h223.2 223.2v225 225h-223.2-223.2v-225m351.26 158.78c6.723-1.742 12.918-4.799 19.994-9.865 6.077-4.351 18.978-17.24 16.2-16.186-9.901 3.759-16.999 4.541-25.744 2.837-9.231-1.799-16.503-5.255-29.872-14.198l-11.243-7.52 9.579-9.908c14.9-15.411 23.632-27.899 32.497-46.48 9.837-20.614 13.534-36.549 14.175-61.09.507-19.405-.642-30.67-4.817-47.22-10.89-43.13-40.62-79.83-79.15-97.72-20.6-9.562-37.46-13.352-62.6-14.07-40.51-1.161-69.01 6.25-97.54 25.368-43.509 29.16-70.27 78.23-72.15 132.32-.608 17.45.647 28.628 5.193 46.26 17.586 68.22 76.912 112.61 150.66 112.73 19.636.032 34.453-3.076 54.9-11.517 5.445-2.248 10.953-4.521 12.241-5.05 2.14-.882 3.139-.37 11.638 5.969 9.839 7.338 20.869 13.322 28.322 15.365 6.294 1.725 21.01 1.714 27.705-.022zm-138.41-31.03c-44.01-5.825-83.57-48.09-98.09-104.8-1.889-7.376-4.758-24.652-5.455-32.85-.773-9.09.968-29.52 3.649-42.803 5.157-25.553 14.631-45.1 29.15-60.15 12.685-13.147 27.24-21.01 46.07-24.882 12.425-2.557 34.21-2.13 45.24.888 26.812 7.333 51.28 26.326 69.61 54.04 16.961 25.641 27.485 57.46 29.818 90.15 2.268 31.774-4.824 59.676-20.551 80.85-2.39 3.217-5.566 7.01-7.06 8.438l-2.714 2.588-5.6-3.74c-8.193-5.471-18.02-9.875-27.77-12.451-7.02-1.855-10.818-2.286-20.745-2.356-12.651-.089-17.347.608-30.797 4.57-8.197 2.415-9.421 3.85-3.283 3.85 4.933 0 16 3.847 23.19 8.06 5.925 3.472 20.633 15.3 25.725 20.687 2.217 2.346 2.455 2.981 1.365 3.655-1.766 1.091-14.184 4.412-20.1 5.375-7.907 1.287-24.961 1.756-31.648.871z"/></svg>