<svg xmlns="http://www.w3.org/2000/svg" height="142.89" width="600" viewBox="0 0 158.75 37.805461"><defs><linearGradient id="0" gradientUnits="userSpaceOnUse" x1="306.11" x2="540.31" y1="91.04" y2="176.29"><stop stop-color="#f8b81d"/><stop stop-color="#f8b81d" offset="0"/><stop stop-color="#f89a22" offset="1"/></linearGradient></defs><g transform="translate(-343.2-200.99)" fill="url(#0)"><path d="m448.76 212.44c0 6.66 5.27 9.34 9.12 11.3 2.38 1.21 4.44 2.26 4.44 3.71 0 1.61-.89 2.51-2.51 2.51-1.86 0-4.95-2.65-5.99-3.68-.29-.29-.75-.68-1.36-.68-.45 0-.85.21-1.22.63l-3.74 4.39c-1.15 1.29-.27 2.31.05 2.61.54.56 5.47 5.56 12.26 5.56 7.46 0 13.1-5.03 13.1-11.69 0-6.9-5.36-9.67-9.27-11.69-2.25-1.16-4.19-2.16-4.19-3.42 0-1.25.89-1.78 1.69-1.86 1.73-.18 3.03.54 3.67.95.65.4 1.17.78 1.17.78.35.19.61.33 1.06.33.52 0 .97-.26 1.3-.73l2.94-4.32c.55-.77.99-1.77-.34-2.8-2.17-1.65-5.03-3.35-9.88-3.35-7.24 0-12.3 4.71-12.3 11.45"/><path d="m361.82 200.99c-4.76 0-9.53 1.82-13.16 5.46-7.28 7.27-7.28 19.06 0 26.33 3.36 3.36 7.68 5.16 12.07 5.42 0 0 11.11.37 19.94.26.13-10.57-.26-19.93-.26-19.93-.26-4.4-2.06-8.72-5.42-12.08-3.64-3.64-8.4-5.46-13.17-5.46m0 10.56c2.06 0 4.13.79 5.7 2.36 3.15 3.15 3.15 8.25 0 11.4-1.57 1.58-3.64 2.36-5.7 2.36s-4.13-.78-5.7-2.36c-3.14-3.15-3.14-8.25 0-11.4 1.58-1.57 3.64-2.36 5.7-2.36"/><path d="m476.75 201.4c-1.03 0-1.7.67-1.7 1.71v5.67c0 1.03.67 1.7 1.7 1.7h6.58v26.28c0 1.04.67 1.7 1.71 1.7h6.93c1.03 0 1.7-.66 1.7-1.7v-26.28h6.59c.98 0 1.64-.61 1.69-1.57v-5.94c-.05-.95-.71-1.57-1.69-1.57z"/><path d="m405.65 201.4c-1.01 0-1.67.67-1.67 1.7v20.78c0 3.74-1.42 5.72-4.11 5.72-.95 0-3.86 0-3.86-5.72v-20.78c0-1.03-.65-1.7-1.67-1.7h-6.81c-1.02 0-1.67.67-1.67 1.7v20.78c0 9.89 4.71 14.92 14.01 14.92 9.34 0 14.27-5.16 14.27-14.92v-20.78c0-1.03-.65-1.7-1.67-1.7z"/><path d="m421.63 201.41c-1.04 0-1.7.68-1.7 1.7v33.66c0 1.03.66 1.7 1.7 1.7h20.34c1.03 0 1.69-.67 1.69-1.7v-5.68c0-1.03-.66-1.69-1.69-1.69h-11.71v-4.95h10.3c1.04 0 1.7-.66 1.7-1.7v-5.67c0-1.04-.66-1.7-1.7-1.7h-10.3v-4.89h11.71c1.03 0 1.69-.67 1.69-1.7v-5.68c0-1.02-.66-1.7-1.69-1.7z"/></g></svg>