<svg xmlns="http://www.w3.org/2000/svg" height="109.77" width="600" viewBox="0 0 158.75 29.044549"><defs><linearGradient id="0" gradientUnits="userSpaceOnUse" x1="222.18" x2="426.45" y1="39.686" y2="114.03"><stop stop-color="#f8b81d"/><stop stop-color="#f89a22" offset="1"/></linearGradient></defs><g transform="translate(-244.27-134.31)" fill="url(#0)"><path d="m325.37 143.11c0 5.11 4.04 7.17 7 8.68 1.83.93 3.41 1.73 3.41 2.85 0 1.24-.68 1.93-1.93 1.93-1.42 0-3.8-2.05-4.6-2.83-.23-.22-.58-.52-1.04-.52-.34 0-.65.16-.94.49l-2.87 3.37c-.89.99-.21 1.77.03 1.99.41.44 4.2 4.29 9.42 4.29 5.73 0 10.06-3.87 10.06-8.99 0-5.3-4.11-7.43-7.11-8.98-1.73-.89-3.23-1.66-3.23-2.63 0-.96.69-1.36 1.3-1.43 1.33-.13 2.33.42 2.83.73.49.31.89.6.89.6.27.15.47.26.82.25.4.001.75-.19 1-.55l2.26-3.33c.41-.59.76-1.36-.27-2.15-1.66-1.27-3.86-2.57-7.59-2.57-5.56 0-9.44 3.62-9.44 8.8"/><path d="m258.57 134.31c-3.66 0-7.32 1.4-10.11 4.19-2.79 2.8-4.19 6.45-4.19 10.12 0 3.66 1.4 7.32 4.19 10.11 2.58 2.58 5.9 3.97 9.28 4.17 0 0 8.52.28 15.31.2.1-8.12-.2-15.32-.2-15.32-.2-3.37-1.58-6.7-4.16-9.28-2.8-2.79-6.46-4.19-10.12-4.19m0 8.11c1.59 0 3.17.61 4.38 1.82 2.42 2.42 2.42 6.34 0 8.76-1.21 1.2-2.79 1.81-4.38 1.81s-3.17-.61-4.38-1.81c-2.41-2.42-2.41-6.34 0-8.76 1.21-1.21 2.8-1.82 4.38-1.82"/><path d="m346.86 134.63c-.78 0-1.3.51-1.3 1.31v4.36c0 .79.52 1.3 1.3 1.3h5.07v20.2c0 .78.51 1.3 1.3 1.3h5.33c.79 0 1.3-.52 1.3-1.3v-20.2h5.06c.8 0 1.31-.51 1.31-1.3v-4.36c0-.8-.51-1.31-1.31-1.31z"/><path d="m292.25 134.63c-.78 0-1.29.51-1.29 1.3v15.97c0 2.87-1.09 4.39-3.15 4.39-.73 0-2.97 0-2.97-4.39v-15.97c0-.79-.5-1.3-1.28-1.3h-5.24c-.78 0-1.28.51-1.28 1.3v15.97c0 7.6 3.62 11.46 10.77 11.46 7.17 0 10.96-3.97 10.96-11.46v-15.97c0-.79-.51-1.3-1.29-1.3z"/><path d="m304.52 134.64c-.8 0-1.31.51-1.31 1.3v25.86c0 .79.51 1.3 1.3 1.3h15.64c.79 0 1.3-.51 1.3-1.3v-4.36c0-.79-.51-1.3-1.3-1.3h-9v-3.8h7.91c.8 0 1.31-.51 1.31-1.31v-4.36c0-.79-.51-1.31-1.31-1.3l-7.91-.001v-3.75h9c.79 0 1.3-.51 1.3-1.31v-4.36c0-.79-.51-1.3-1.3-1.3z"/><path d="m396.63 134.68c-.39 0-.72.28-.79.66-.42 2.5-3.16 4.35-6.54 4.38-.43.001-.79.36-.79.8v4.34c0 .44.36.8.8.8h5.61v16.65c0 .44.36.8.8.8h6.49c.45 0 .81-.36.81-.8v-26.84c0-.44-.36-.79-.81-.79z"/><path d="m373.96 140.26c-.44 0-.8.36-.8.79v7.27h-7.06c-.44 0-.79.36-.79.8v5.13c0 .44.35.8.79.8h7.06v7.26c0 .44.36.8.8.8h5.29c.45 0 .8-.36.8-.8v-7.26h7.02c.44 0 .8-.36.8-.8v-5.13c0-.44-.36-.8-.8-.8h-7.02v-7.27c0-.43-.35-.79-.8-.79z"/></g></svg>