<svg xmlns="http://www.w3.org/2000/svg" height="653.29" width="600" viewBox="0 0 158.75 172.84952"><defs><linearGradient id="0" gradientUnits="userSpaceOnUse" x2="0"><stop stop-color="#d04657"/><stop stop-color="#91343e" offset="1"/><stop stop-color="#91343e" offset="1"/></linearGradient></defs><g transform="translate(-18.899-45.777)"><g fill="#e44b5f"><path d="m127.66 130.7l-1.39-1.08-.97-.75-.82.94c-1.41 1.65-3.09 2.45-5.17 2.45-1.91 0-3.43-.57-4.65-1.77-1.24-1.2-1.83-2.66-1.83-4.44 0-1.15.28-2.22.83-3.17.53-.93 1.28-1.66 2.29-2.24 1.01-.55 2.06-.83 3.24-.83 1.08 0 2.08.22 2.97.64.89.43 1.65 1.06 2.28 1.89l.8 1.04 1.03-.81 1.39-1.06 1-.77-.73-1.02c-.95-1.31-2.2-2.38-3.71-3.14-1.54-.75-3.18-1.11-5.06-1.11-3.04 0-5.62 1.01-7.67 3-2.07 2.02-3.11 4.52-3.11 7.43 0 2.78.87 5.18 2.56 7.12 2 2.34 4.78 3.52 8.25 3.52 1.83 0 3.46-.35 4.95-1.06 1.5-.68 2.77-1.67 3.76-2.96l.8-1.02z"/><path d="m76.64 119.85c3.38 0 6.135 2.76 6.135 6.16s-2.755 6.16-6.135 6.16c-3.379 0-6.128-2.76-6.128-6.16s2.749-6.16 6.128-6.16m7.896 13.07c1.676-1.9 2.613-4.36 2.613-6.91 0-5.8-4.704-10.53-10.509-10.53-5.802 0-10.517 4.73-10.517 10.53 0 5.83 4.715 10.54 10.517 10.54 1.561 0 3.086-.36 4.491-1.03l1.515 1.91h5.474z"/><path d="m103.08 115.91-5.145 12.71-5.237-12.71h-4.724l8.802 21.08h2.222l8.812-21.08z"/><path d="m158.04 177.35l-46.24-7.53c-4.29 1.31-8.83 2.03-13.542 2.03-25.544 0-46.3-20.83-46.3-46.46 0-25.66 20.753-46.522 46.3-46.522 25.572 0 46.34 20.862 46.34 46.522 0 10.15-3.26 19.54-8.78 27.18l29.14 15.56c8.17-12.65 12.69-27.42 12.69-42.74 0-43.867-35.61-79.61-79.39-79.61-43.766 0-79.36 35.746-79.36 79.61 0 43.86 35.593 79.55 79.36 79.55 11.762 0 23.832-2.94 34.462-8.07l25.21-19.4.11-.12"/></g><path fill="url(#0)" d="m116.16 202.76c5.67-1.36 11.23-3.33 16.42-5.83l-20.79-27.1z"/><path d="m148.68 218.63l26.59-20.27-16.49-20.9-47-7.65z" fill="#f47186"/></g></svg>