<?xml version="1.0" encoding="UTF-8" standalone="no"?>
<!-- Created with Inkscape (http://www.inkscape.org/) -->

<svg
   xmlns:dc="http://purl.org/dc/elements/1.1/"
   xmlns:cc="http://creativecommons.org/ns#"
   xmlns:rdf="http://www.w3.org/1999/02/22-rdf-syntax-ns#"
   xmlns:svg="http://www.w3.org/2000/svg"
   xmlns="http://www.w3.org/2000/svg"
   xmlns:xlink="http://www.w3.org/1999/xlink"
   xmlns:sodipodi="http://sodipodi.sourceforge.net/DTD/sodipodi-0.dtd"
   xmlns:inkscape="http://www.inkscape.org/namespaces/inkscape"
   id="svg2"
   version="1.1"
   inkscape:version="0.48.0 r9654"
   width="615.01556"
   height="668.70886"
   xml:space="preserve"
   sodipodi:docname="QVC Logo.svg"><metadata
     id="metadata8"><rdf:RDF><cc:Work
         rdf:about=""><dc:format>image/svg+xml</dc:format><dc:type
           rdf:resource="http://purl.org/dc/dcmitype/StillImage" /><dc:title /></cc:Work></rdf:RDF></metadata><defs
     id="defs6"><linearGradient
       id="linearGradient3836"><stop
         style="stop-color:#39daba;stop-opacity:1;"
         offset="0"
         id="stop3838" /><stop
         style="stop-color:#00635e;stop-opacity:1;"
         offset="1"
         id="stop3840" /></linearGradient><clipPath
       clipPathUnits="userSpaceOnUse"
       id="clipPath18"><path
         d="M 0,2571.37 0,0 l 2361.77,0 0,2571.37 -2361.77,0 z"
         id="path20"
         inkscape:connector-curvature="0" /></clipPath><clipPath
       clipPathUnits="userSpaceOnUse"
       id="clipPath34"><path
         d="m 1447.11,236.051 -65.25,489.777 309.51,-403.199 c -77.4,-36.988 -159.84,-66.328 -244.26,-86.578"
         id="path36"
         inkscape:connector-curvature="0" /></clipPath><clipPath
       clipPathUnits="userSpaceOnUse"
       id="clipPath42"><path
         d="m 1447.11,236.051 -65.25,489.777 309.51,-403.199 c -77.4,-36.988 -159.84,-66.328 -244.26,-86.578"
         id="path44"
         inkscape:connector-curvature="0" /></clipPath><clipPath
       clipPathUnits="userSpaceOnUse"
       id="clipPath52"><path
         d="M 207.117,45.1797 145.203,282.535 -59.7539,229.074 2.16016,-8.28125 207.117,45.1797 z M 214.828,15.6055 207.117,45.1797 2.16016,-8.28125 9.87109,-37.8555 214.828,15.6055 z m -69.625,266.9295 -0.082,0.317 -204.9569,-53.461 0.082,-0.317 204.9569,53.461 z"
         id="path54"
         inkscape:connector-curvature="0" /></clipPath><clipPath
       clipPathUnits="userSpaceOnUse"
       id="clipPath64"><path
         d="M 0,2571.37 0,0 l 2361.77,0 0,2571.37 -2361.77,0 z"
         id="path66"
         inkscape:connector-curvature="0" /></clipPath><linearGradient
       inkscape:collect="always"
       xlink:href="#linearGradient3836"
       id="linearGradient3842"
       x1="577.36285"
       y1="208.96443"
       x2="546.65686"
       y2="288.11771"
       gradientUnits="userSpaceOnUse"
       gradientTransform="translate(-204.7351,-10.964971)" /></defs><sodipodi:namedview
     pagecolor="#ffffff"
     bordercolor="#666666"
     borderopacity="1"
     objecttolerance="10"
     gridtolerance="10"
     guidetolerance="10"
     inkscape:pageopacity="0"
     inkscape:pageshadow="2"
     inkscape:window-width="1280"
     inkscape:window-height="1005"
     id="namedview4"
     showgrid="false"
     fit-margin-top="5"
     fit-margin-left="5"
     fit-margin-right="5"
     fit-margin-bottom="5"
     inkscape:zoom="0.82901805"
     inkscape:cx="307.50778"
     inkscape:cy="334.35443"
     inkscape:window-x="-4"
     inkscape:window-y="-4"
     inkscape:window-maximized="1"
     inkscape:current-layer="g10"
     showguides="true"
     inkscape:guide-bbox="true"
     inkscape:snap-global="false" /><g
     id="g10"
     inkscape:groupmode="layer"
     inkscape:label="VC"
     transform="matrix(1.25,0,0,-1.25,-64.083011,834.38456)"><path
       inkscape:connector-curvature="0"
       id="path22"
       style="fill:#2b758c;fill-opacity:1;fill-rule:nonzero;stroke:none"
       d="m 386.88821,404.60954 -4.24013,3.28308 -2.97158,2.28094 -2.47358,-2.85271 c -4.30776,-5.04963 -9.45371,-7.48222 -15.79034,-7.48222 -5.7997,0 -10.42921,1.76245 -14.18159,5.40212 -3.75034,3.67655 -5.55173,8.12162 -5.55173,13.53809 0,3.51876 0.82794,6.77315 2.52482,9.68529 1.61694,2.81173 3.88764,5.05988 6.95759,6.81003 3.09043,1.67433 6.31613,2.53712 9.90252,2.53712 3.30152,0 6.34073,-0.67834 9.05408,-1.9592 2.71541,-1.31364 5.03529,-3.22159 6.9412,-5.75051 l 2.46128,-3.17446 3.12733,2.46128 4.24013,3.2298 3.02896,2.34857 -2.22151,3.12323 c -2.88755,4.00036 -6.70756,7.25884 -11.31863,9.57257 -4.6787,2.26045 -9.68324,3.35686 -15.39277,3.35686 -9.28976,0 -17.16751,-3.0433 -23.41397,-9.11147 -6.30179,-6.17268 -9.45986,-13.78811 -9.45986,-22.6803 0,-8.45362 2.63138,-15.7719 7.81217,-21.69866 6.07841,-7.12563 14.56278,-10.72022 25.14159,-10.72022 5.57836,0 10.52348,1.05952 15.09971,3.21341 4.55368,2.07805 8.42288,5.10906 11.45184,9.02129 l 2.44694,3.13348 -3.17447,2.43259" /><path
       inkscape:connector-curvature="0"
       id="path24"
       style="fill:#2b758c;fill-opacity:1;fill-rule:nonzero;stroke:none"
       d="m 311.93071,449.68939 c -5.22383,-12.91167 -13.90747,-41.02689 -15.67148,-41.02689 -1.76401,0 -10.76639,27.75334 -15.96864,41.02689 l -14.40498,0 c 0,0 15.91867,-39.38309 24.34263,-60.15086 0.5839,-1.43951 2.18825,-5.42862 6.0798,-5.41933 3.89155,0.009 5.32232,3.78504 5.88039,5.19145 7.95373,20.04439 24.16774,60.37874 24.16774,60.37874 l -14.42546,0"
       sodipodi:nodetypes="czccszscc" /><path
       inkscape:connector-curvature="0"
       id="path26"
       style="fill:#2b758c;fill-opacity:1;fill-rule:nonzero;stroke:none"
       d="m 231.33151,437.67192 c 10.30686,0 18.70043,-8.41059 18.70043,-18.77422 0,-10.36568 -8.39357,-18.76807 -18.70043,-18.76807 -10.31076,0 -18.68036,8.40239 -18.68036,18.76807 0,10.36363 8.3696,18.77422 18.68036,18.77422 m 24.06813,-39.84167 c 5.11049,5.81814 7.97345,13.29627 7.97345,21.06745 0,17.69011 -14.34984,32.12377 -32.04158,32.12377 -17.68375,0 -32.06291,-14.43366 -32.06291,-32.12377 0,-17.75363 14.37916,-32.13811 32.06291,-32.13811 4.75513,0 9.40637,1.1087 13.69958,3.16831 l 4.60307,-5.83248 16.70026,0 -10.93478,13.73483" /><path
       inkscape:connector-curvature="0"
       id="path28"
       style="fill:#40abba;fill-opacity:1;fill-rule:nonzero;stroke:none"
       d="m 479.50304,262.40034 -140.96955,22.94487 c -13.05854,-3.98437 -26.91019,-6.17944 -41.27827,-6.17944 -77.87171,0 -141.15379,63.50382 -141.15379,141.63374 0,78.22215 63.28208,141.83643 141.15379,141.83643 77.94548,0 141.30154,-63.61428 141.30154,-141.83643 0,-30.94948 -9.95991,-59.55654 -26.81797,-82.88813 l 88.86449,-47.42042 c 24.89976,38.54811 38.67763,83.62611 38.67763,130.30855 0,133.7394 -108.54452,242.70814 -242.02569,242.70814 -133.4447,0 -241.988811,-108.96874 -241.988811,-242.70814 0,-133.75804 108.544111,-242.50565 241.988811,-242.50565 35.83721,0 72.63353,8.96432 105.09544,24.56838 l 76.83882,59.15056 0.31356,0.38754" /><path
       inkscape:connector-curvature="0"
       id="path68"
       style="fill:#74d1d3;fill-opacity:1;fill-rule:nonzero;stroke:none"
       d="m 338.45766,285.3819 112.50185,-148.84136 81.07075,61.77232 -50.26063,63.71593 -143.31197,23.35311" /><path
       style="fill:url(#linearGradient3842);fill-opacity:1;fill-rule:nonzero;stroke:none"
       d="m 338.81598,285.40265 12.92721,-100.46251 c 17.10497,4.06821 33.80744,9.94076 49.525,17.375 z"
       id="path3059"
       inkscape:connector-curvature="0"
       sodipodi:nodetypes="cccc" /></g></svg>