<svg xmlns="http://www.w3.org/2000/svg" viewBox="0 0 615.02 668.71"><defs><clipPath><path d="m207.12 45.18l-61.914 237.36-204.96-53.46 61.914-237.36 204.96 53.46m7.711-29.574l-7.711 29.574-204.96-53.46 7.711-29.574 204.96 53.46m-69.62 266.93l-.082.317-204.96-53.46.082-.317 204.96 53.46"/></clipPath><clipPath><path d="m0 2571.37v-2571.37h2361.77v2571.37h-2361.77"/></clipPath><clipPath><path d="m1447.11 236.05l-65.25 489.78 309.51-403.2c-77.4-36.988-159.84-66.33-244.26-86.58"/></clipPath><linearGradient id="0" x1="372.63" y1="198" x2="341.92" y2="277.15" gradientUnits="userSpaceOnUse"><stop stop-color="#39daba"/><stop offset="1" stop-color="#00635e"/></linearGradient></defs><g transform="matrix(1.25 0 0-1.25-64.08 834.38)"><g fill="#2b758c"><path d="m386.89 404.61l-4.24 3.283-2.972 2.281-2.474-2.853c-4.308-5.05-9.454-7.482-15.79-7.482-5.8 0-10.429 1.762-14.182 5.402-3.75 3.677-5.552 8.122-5.552 13.538 0 3.519.828 6.773 2.525 9.685 1.617 2.812 3.888 5.06 6.958 6.81 3.09 1.674 6.316 2.537 9.903 2.537 3.302 0 6.341-.678 9.05-1.959 2.715-1.314 5.04-3.222 6.941-5.751l2.461-3.174 3.127 2.461 4.24 3.23 3.03 2.349-2.222 3.123c-2.888 4-6.708 7.259-11.319 9.573-4.679 2.26-9.683 3.357-15.393 3.357-9.29 0-17.17-3.043-23.414-9.111-6.302-6.173-9.46-13.788-9.46-22.68 0-8.454 2.631-15.772 7.812-21.699 6.078-7.126 14.563-10.72 25.14-10.72 5.578 0 10.523 1.06 15.1 3.213 4.554 2.078 8.423 5.109 11.452 9.02l2.447 3.133-3.174 2.433"/><path d="m311.93 449.69c-5.224-12.912-13.907-41.03-15.671-41.03-1.764 0-10.766 27.753-15.969 41.03h-14.405c0 0 15.919-39.38 24.343-60.15.584-1.44 2.188-5.429 6.08-5.419 3.892.009 5.322 3.785 5.88 5.191 7.954 20.04 24.17 60.38 24.17 60.38h-14.425"/><path d="m231.33 437.67c10.307 0 18.7-8.411 18.7-18.774 0-10.366-8.394-18.768-18.7-18.768-10.311 0-18.68 8.402-18.68 18.768 0 10.364 8.37 18.774 18.68 18.774m24.07-39.842c5.11 5.818 7.973 13.296 7.973 21.07 0 17.69-14.35 32.12-32.04 32.12-17.684 0-32.06-14.434-32.06-32.12 0-17.754 14.379-32.14 32.06-32.14 4.755 0 9.406 1.109 13.7 3.168l4.603-5.832h16.7l-10.935 13.735"/></g><path d="m479.5 262.4l-140.97 22.945c-13.06-3.984-26.91-6.179-41.28-6.179-77.872 0-141.15 63.5-141.15 141.63 0 78.22 63.28 141.84 141.15 141.84 77.945 0 141.3-63.61 141.3-141.84 0-30.949-9.96-59.56-26.818-82.89l88.86-47.42c24.9 38.548 38.678 83.63 38.678 130.31 0 133.74-108.54 242.71-242.03 242.71-133.44 0-241.99-108.97-241.99-242.71 0-133.76 108.54-242.51 241.99-242.51 35.837 0 72.63 8.964 105.1 24.568l76.839 59.15.314.388" fill="#40abba"/><path d="m338.46 285.38l112.5-148.84 81.07 61.772-50.26 63.716-143.31 23.353" fill="#74d1d3"/><path d="m338.82 285.4l12.927-100.46c17.1 4.068 33.807 9.941 49.52 17.375z" fill="url(#0)"/></g></svg>