<svg xmlns="http://www.w3.org/2000/svg" viewBox="0 0 200 76.56"><defs><clipPath id="0"><path d="m0 0h311.81v566.93h-311.81v-566.93"/></clipPath><clipPath><path d="m238.73 474.36c.027.006.054.013.079.02l.072.018c.034.001.07.018.105.027.277.076.555.154.831.237-.362-.107-.724-.206-1.087-.302m-.858-.216v-.003c.065.017.131.034.196.051.018.004.037.009.055.014-.085-.021-.168-.042-.251-.062"/></clipPath><linearGradient id="1" y2="478.04" gradientUnits="userSpaceOnUse" y1="479.81" x1="275.97" x2="276.07"><stop stop-color="#c658ae"/><stop stop-color="#823173" offset="1"/></linearGradient></defs><g transform="matrix(.31065 0 0-.31065-59.25 221.57)"><g transform="matrix(2.8744 0 0 2.8744-353.24-871.47)"><g><g clip-path="url(#0)" fill="#c658ae"><path d="m0 0c-12.583 0-22.783 10.2-22.783 22.782s10.2 22.783 22.783 22.783c12.585 0 22.79-10.201 22.79-22.783 0-4.996-1.612-9.615-4.339-13.371l14.245-7.596c3.851 6.04 6.091 13.21 6.091 20.907 0 21.516-17.443 38.959-38.97 38.959-21.515 0-38.959-17.443-38.959-38.959 0-21.518 17.444-38.962 38.959-38.962 6.03 0 11.736 1.373 16.835 3.82l-10.1 13.378c-2.073-.621-4.271-.958-6.549-.958" transform="translate(228.95 489.07)"/></g><path d="m0 0l7.937-10.517 12.979 10.15-8.04 10.06-22.987 3.683 10.11-13.378" transform="translate(245.6 476.66)" fill="#d17abe"/><g fill="#c658ae"><path d="m0 0h2.34l2.519-6.975 2.52 6.975h2.285l-3.896-9.976h-1.873l-3.895 9.976" transform="translate(224.2 516.48)"/><g clip-path="url(#0)"><path d="m0 0c-.019-.065-1.299-1.757-3.141-1.743-.422.002-.811.081-1.169.247-.359.165-.668.39-.929.672-.263.283-.464.613-.606.991-.143.377-.214.778-.214 1.202v.028c0 .425.071.823.214 1.197.142.372.339.7.592.982.252.283.557.504.914.665.358.16.749.252 1.17.241 1.634-.043 2.584-.917 3.2-1.731l1.308 1.156c-.22.402-.489.769-.812 1.091-.455.457-.993.821-1.618 1.089-.624.269-1.307.404-2.05.404s-1.43-.135-2.057-.404c-.629-.268-1.17-.637-1.624-1.103-.454-.467-.81-1.01-1.067-1.627-.256-.618-.385-1.281-.385-1.988v-.028c0-.708.126-1.37.378-1.988.253-.618.606-1.156 1.06-1.613.453-.458.992-.821 1.616-1.09.625-.268 1.308-.403 2.051-.403.744 0 1.429.135 2.058.403.628.269 1.17.638 1.624 1.104.332.341.611.722.839 1.143l-1.352 1.103" transform="translate(242.37 510.16)"/><path d="m0 0l-1.647 2.083c.353.411.641.873.857 1.39.256.617.385 1.281.385 1.988v.028c0 .708-.127 1.37-.379 1.988s-.605 1.156-1.06 1.613c-.454.457-.992.821-1.616 1.089-.625.269-1.309.404-2.051.404-.743 0-1.429-.135-2.058-.404-.628-.268-1.169-.637-1.623-1.103-.455-.466-.811-1.01-1.067-1.627-.257-.618-.386-1.281-.386-1.988v-.028c0-.708.126-1.37.379-1.988s.605-1.156 1.059-1.613c.455-.458.993-.821 1.617-1.09.625-.268 1.308-.403 2.051-.403s1.429.135 2.058.403c.075.033.148.072.223.109l.735-.851h2.523m-5.511 2.349c-.422 0-.812.081-1.17.247-.358.165-.668.39-.928.672-.262.283-.464.613-.607.991-.142.377-.213.778-.213 1.202v.028c0 .425.071.823.213 1.196.143.373.339.701.592.983.252.283.558.504.915.665.359.16.748.241 1.17.241.431 0 .824-.084 1.177-.247.353-.166.66-.39.922-.672.261-.284.463-.614.605-.992.143-.376.214-.778.214-1.202v-.028c0-.424-.071-.824-.214-1.196-.142-.373-.339-.701-.591-.983-.252-.283-.555-.505-.909-.664-.352-.161-.745-.241-1.176-.241" transform="translate(224.1 506.07)"/></g></g></g><path fill="url(#1)" d="m237.7 473.89c2.777.64 5.44 1.569 7.957 2.75.009.005.019.011.028.016l-10.2 13.233 2.215-15.999"/></g><g fill="#c658ae" transform="matrix(7.6076 0 0-7.6076-2643.2-1382)"><path d="m414.5-259.01c.002-.471-.113-.882-.348-1.235-.235-.352-.728-.708-1.336-.829.417-.213.722-.477.915-.79.192-.314.287-.694.285-1.142-.017-.686-.244-1.207-.682-1.563-.438-.356-.987-.535-1.646-.537h-3.948v.002 8.397h.003 4.286c.665-.013 1.237-.23 1.717-.652.48-.422.732-.973.754-1.651m-1.397-3.876c-.007.434-.143.787-.406 1.058-.264.271-.612.41-1.046.418h-3v-2.868h3c.423.005.768.13 1.036.377.268.246.407.585.416 1.015m.472 3.816c-.001.452-.159.819-.447 1.101-.288.281-.659.426-1.113.435h-3.364v-3.084h3.132c.464.006 1.07.147 1.354.423.284.276.43.651.438 1.125"/><path d="m422.33-256.91v-.648h-5.03v-3.01h4.63.002v-.84h-4.632v-2.844h5.01v-.852h-5.926-.002v8.401h5.94z"/><path d="m431.62-256.95l-3.276-7.92-.097-.24h-.874l-.097.24-3.276 7.908-.108.252h.926l.082-.192.792-1.932h4.176l.78 1.944.077.18h.995zm-2.088-2.676h-3.504l1.752-4.356z"/><path d="m439.96-259.66v-5.448h-.924v5.448c-.019.719-.263 1.276-.733 1.67-.47.394-1.054.593-1.75.598-.702-.005-1.289-.202-1.761-.594-.471-.391-.716-.949-.735-1.674v-5.448h-.912v5.448c.022 1.015.35 1.781.984 2.296.634.516 1.442.774 2.424.775.961-.004 1.763-.269 2.406-.793.643-.525.977-1.284 1-2.279"/><path d="m448.24-264.46v-.648h-6.6v.852h2.844v7.548h.914-.002v-7.548h2.844z"/><path d="m456.93-265.11h-1.013l-.092.144-2.58 4.01-2.592-4.01-.092-.144h-1.104l.152.228 3.12 4.74v3.432h.924v-3.408l3.132-4.764z"/></g></g></svg>