<?xml version="1.0" encoding="UTF-8" standalone="no"?>
<!-- Created with Inkscape (http://www.inkscape.org/) -->

<svg
   xmlns:dc="http://purl.org/dc/elements/1.1/"
   xmlns:cc="http://creativecommons.org/ns#"
   xmlns:rdf="http://www.w3.org/1999/02/22-rdf-syntax-ns#"
   xmlns:svg="http://www.w3.org/2000/svg"
   xmlns="http://www.w3.org/2000/svg"
   xmlns:xlink="http://www.w3.org/1999/xlink"
   version="1.1"
   width="605.01813"
   height="658.70886"
   id="svg2"
   xml:space="preserve"><metadata
     id="metadata8"><rdf:RDF><cc:Work
         rdf:about=""><dc:format>image/svg+xml</dc:format><dc:type
           rdf:resource="http://purl.org/dc/dcmitype/StillImage" /><dc:title></dc:title></cc:Work></rdf:RDF></metadata><defs
     id="defs6"><linearGradient
       id="linearGradient3836"><stop
         id="stop3838"
         style="stop-color:#40abba;stop-opacity:1"
         offset="0" /><stop
         id="stop3840"
         style="stop-color:#21575f;stop-opacity:1"
         offset="1" /></linearGradient><clipPath
       id="clipPath18"><path
         d="M 0,2571.37 0,0 l 2361.77,0 0,2571.37 -2361.77,0 z"
         id="path20" /></clipPath><clipPath
       id="clipPath34"><path
         d="m 1447.11,236.051 -65.25,489.777 309.51,-403.199 c -77.4,-36.988 -159.84,-66.328 -244.26,-86.578"
         id="path36" /></clipPath><clipPath
       id="clipPath42"><path
         d="m 1447.11,236.051 -65.25,489.777 309.51,-403.199 c -77.4,-36.988 -159.84,-66.328 -244.26,-86.578"
         id="path44" /></clipPath><clipPath
       id="clipPath52"><path
         d="M 207.117,45.1797 145.203,282.535 -59.7539,229.074 2.16016,-8.28125 207.117,45.1797 z M 214.828,15.6055 207.117,45.1797 2.16016,-8.28125 9.87109,-37.8555 214.828,15.6055 z m -69.625,266.9295 -0.082,0.317 -204.9569,-53.461 0.082,-0.317 204.9569,53.461 z"
         id="path54" /></clipPath><clipPath
       id="clipPath64"><path
         d="M 0,2571.37 0,0 l 2361.77,0 0,2571.37 -2361.77,0 z"
         id="path66" /></clipPath><linearGradient
       x1="577.36285"
       y1="208.96443"
       x2="546.65686"
       y2="288.11771"
       id="linearGradient3842"
       xlink:href="#linearGradient3836"
       gradientUnits="userSpaceOnUse"
       gradientTransform="translate(-204.7351,-10.964971)" /></defs><g
     transform="matrix(1.25,0,0,-1.25,-69.083011,829.38456)"
     id="g10"><path
       d="m 315.62567,408.60998 -3.47584,2.6913 -2.43594,1.86979 -2.02769,-2.33851 c -3.53129,-4.1394 -7.74967,-6.13352 -12.9441,-6.13352 -4.75427,0 -8.54931,1.44477 -11.6253,4.42838 -3.07433,3.01383 -4.55102,6.65767 -4.55102,11.0978 0,2.88449 0.67871,5.55226 2.06972,7.93948 1.32548,2.3049 3.18688,4.14781 5.70345,5.5825 2.53338,1.37253 5.17763,2.07979 8.11756,2.07979 2.70641,0 5.19781,-0.55606 7.42206,-1.60604 2.22594,-1.07686 4.12767,-2.64088 5.69003,-4.71396 l 2.01762,-2.60225 2.56361,2.01761 3.47584,2.64763 2.48298,1.92523 -1.82107,2.56027 c -2.36706,3.27928 -5.49851,5.95039 -9.27843,7.84706 -3.83532,1.853 -7.93778,2.75178 -12.61817,2.75178 -7.61523,0 -14.07299,-2.49473 -19.19351,-7.46909 -5.16587,-5.06004 -7.75468,-11.30276 -7.75468,-18.59211 0,-6.92982 2.15706,-12.92895 6.404,-17.7874 4.98275,-5.84121 11.93778,-8.78785 20.60972,-8.78785 4.57284,0 8.62659,0.86853 12.37795,2.63417 3.73285,1.70348 6.90461,4.18814 9.3876,7.39518 l 2.00587,2.56865 -2.60226,1.99411"
       id="path22"
       style="fill:#2b758c;fill-opacity:1;fill-rule:nonzero;stroke:none" /><path
       d="m 259.40504,445.59901 c -4.14483,-10.24472 -11.03483,-32.55264 -12.43448,-32.55264 -1.39965,0 -8.54255,22.02078 -12.67027,32.55264 l -11.42958,0 c 0,0 12.63062,-31.24838 19.31458,-47.7265 0.4633,-1.14216 1.73626,-4.30731 4.82399,-4.29993 3.08775,0.007 4.22298,3.00322 4.66578,4.11913 6.31086,15.90415 19.17582,47.9073 19.17582,47.9073 l -11.44584,0"
       id="path24"
       style="fill:#2b758c;fill-opacity:1;fill-rule:nonzero;stroke:none" /><path
       d="m 198.65389,436.0638 c 8.17794,0 14.83779,-6.67337 14.83779,-14.89634 0,-8.22463 -6.65985,-14.89146 -14.83779,-14.89146 -8.18104,0 -14.82187,6.66683 -14.82187,14.89146 0,8.22297 6.64083,14.89634 14.82187,14.89634 m 19.09677,-31.61224 c 4.05489,4.61638 6.32651,10.54988 6.32651,16.7159 0,14.03615 -11.38584,25.48849 -25.42328,25.48849 -14.03111,0 -25.44021,-11.45234 -25.44021,-25.48849 0,-14.08656 11.4091,-25.49988 25.44021,-25.49988 3.77293,0 7.46345,0.8797 10.86987,2.51389 l 3.6523,-4.62776 13.25077,0 -8.67617,10.89785"
       id="path26"
       style="fill:#2b758c;fill-opacity:1;fill-rule:nonzero;stroke:none" /><path
       d="m 479.50304,262.40034 -140.96955,22.94487 c -13.05854,-3.98437 -26.91019,-6.17944 -41.27827,-6.17944 -77.87171,0 -141.15379,63.50382 -141.15379,141.63374 0,78.22215 63.28208,141.83643 141.15379,141.83643 77.94548,0 141.30154,-63.61428 141.30154,-141.83643 0,-30.94948 -9.95991,-59.55654 -26.81797,-82.88813 l 88.86449,-47.42042 c 24.89976,38.54811 38.67763,83.62611 38.67763,130.30855 0,133.7394 -108.54452,242.70814 -242.02569,242.70814 -133.4447,0 -241.988811,-108.96874 -241.988811,-242.70814 0,-133.75804 108.544111,-242.50565 241.988811,-242.50565 35.83721,0 72.63353,8.96432 105.09544,24.56838 l 76.83882,59.15056 0.31356,0.38754"
       id="path28"
       style="fill:#40abba;fill-opacity:1;fill-rule:nonzero;stroke:none" /><path
       d="m 338.45766,285.3819 112.50185,-148.84136 81.07075,61.77232 -50.26063,63.71593 -143.31197,23.35311"
       id="path68"
       style="fill:#74d1d3;fill-opacity:1;fill-rule:nonzero;stroke:none" /><path
       d="m 338.81598,285.40265 12.92721,-100.46251 c 17.10497,4.06821 33.80744,9.94076 49.525,17.375 z"
       id="path3059"
       style="fill:url(#linearGradient3842);fill-opacity:1;fill-rule:nonzero;stroke:none" /><path
       d="m 365.8053,395.58047 -9.68095,0 0,20.51004 -21.27418,0 0,-20.51004 -9.68094,0 0,49.90372 9.68094,0 0,-21.39909 21.27418,0 0,21.39909 9.68095,0 0,-49.90372"
       id="path3018"
       style="font-size:62.45772171px;font-style:normal;font-variant:normal;font-weight:bold;font-stretch:normal;line-height:125%;letter-spacing:0px;word-spacing:0px;fill:#aad400;fill-opacity:1;stroke:none;font-family:Keep Calm;-inkscape-font-specification:Keep Calm Bold" /><path
       d="m 418.0058,420.56356 c -5e-5,-3.45601 -0.58299,-6.70381 -1.74882,-9.7434 -1.16592,-2.99798 -2.78982,-5.64202 -4.8717,-7.93213 -2.08197,-2.24848 -4.58027,-4.03894 -7.49493,-5.37137 -2.87309,-1.29079 -6.01679,-1.93619 -9.43112,-1.93619 l -20.86087,0 0,49.96618 20.86087,0 c 3.41433,-5e-5 6.55803,-0.66626 9.43112,-1.99864 2.91466,-1.33248 5.41296,-3.12294 7.49493,-5.37137 2.08188,-2.24852 3.70578,-4.89256 4.8717,-7.93213 1.16583,-3.03964 1.74877,-6.26662 1.74882,-9.68095 m -9.80587,0.24983 c -4e-5,2.12354 -0.43724,4.20546 -1.31161,6.24578 -0.83281,2.08189 -1.99868,3.91398 -3.49763,5.49628 -1.45738,1.62386 -3.18538,2.91465 -5.18399,3.87237 -1.99868,0.99929 -4.16388,1.49895 -6.4956,1.49899 l -8.4318,0 0,-34.10192 8.4318,0 c 2.29009,0 4.43447,0.45802 6.43314,1.37407 2.04025,0.91604 3.78907,2.14437 5.24645,3.68501 1.49895,1.58225 2.66482,3.39352 3.49763,5.43382 0.87437,2.0819 1.31157,4.2471 1.31161,6.4956"
       id="path3020"
       style="font-size:62.45772171px;font-style:normal;font-variant:normal;font-weight:bold;font-stretch:normal;line-height:125%;letter-spacing:0px;word-spacing:0px;fill:#aad400;fill-opacity:1;stroke:none;font-family:Keep Calm;-inkscape-font-specification:Keep Calm Bold" /></g></svg>