<svg xmlns="http://www.w3.org/2000/svg" viewBox="0 0 605.02 658.71"><defs><clipPath><path d="m207.12 45.18l-61.914 237.36-204.96-53.46 61.914-237.36 204.96 53.46m7.711-29.574l-7.711 29.574-204.96-53.46 7.711-29.574 204.96 53.46m-69.62 266.93l-.082.317-204.96-53.46.082-.317 204.96 53.46"/></clipPath><clipPath><path d="m0 2571.37v-2571.37h2361.77v2571.37h-2361.77"/></clipPath><clipPath><path d="m1447.11 236.05l-65.25 489.78 309.51-403.2c-77.4-36.988-159.84-66.33-244.26-86.58"/></clipPath><linearGradient x1="372.63" y1="198" x2="341.92" y2="277.15" id="0" gradientUnits="userSpaceOnUse"><stop stop-color="#40abba"/><stop offset="1" stop-color="#21575f"/></linearGradient></defs><g transform="matrix(1.25 0 0-1.25-69.08 829.38)"><g fill="#2b758c"><path d="m315.63 408.61l-3.476 2.691-2.436 1.87-2.028-2.339c-3.531-4.139-7.75-6.134-12.944-6.134-4.754 0-8.549 1.445-11.625 4.428-3.074 3.01-4.551 6.658-4.551 11.1 0 2.884.679 5.552 2.07 7.939 1.325 2.305 3.187 4.148 5.703 5.582 2.533 1.373 5.178 2.08 8.118 2.08 2.706 0 5.198-.556 7.422-1.606 2.226-1.077 4.128-2.641 5.69-4.714l2.02-2.602 2.564 2.02 3.476 2.648 2.483 1.925-1.821 2.56c-2.367 3.279-5.499 5.95-9.278 7.847-3.835 1.853-7.938 2.752-12.618 2.752-7.615 0-14.07-2.495-19.19-7.469-5.166-5.06-7.755-11.303-7.755-18.592 0-6.93 2.157-12.929 6.404-17.787 4.983-5.841 11.938-8.788 20.61-8.788 4.573 0 8.627.869 12.378 2.634 3.733 1.703 6.905 4.188 9.388 7.395l2.01 2.569-2.602 1.994"/><path d="m259.41 445.6c-4.145-10.245-11.03-32.553-12.434-32.553-1.4 0-8.543 22.02-12.67 32.553h-11.43c0 0 12.631-31.25 19.315-47.726.463-1.142 1.736-4.307 4.824-4.3 3.088.007 4.223 3 4.666 4.119 6.311 15.904 19.18 47.907 19.18 47.907h-11.446"/><path d="m198.65 436.06c8.178 0 14.838-6.673 14.838-14.896 0-8.225-6.66-14.891-14.838-14.891-8.181 0-14.822 6.667-14.822 14.891 0 8.223 6.641 14.896 14.822 14.896m19.1-31.612c4.055 4.616 6.327 10.55 6.327 16.716 0 14.04-11.386 25.488-25.423 25.488-14.03 0-25.44-11.452-25.44-25.488 0-14.09 11.409-25.5 25.44-25.5 3.773 0 7.463.88 10.87 2.514l3.652-4.628h13.251l-8.676 10.898"/></g><path d="m479.5 262.4l-140.97 22.945c-13.06-3.984-26.91-6.179-41.28-6.179-77.872 0-141.15 63.5-141.15 141.63 0 78.22 63.28 141.84 141.15 141.84 77.945 0 141.3-63.61 141.3-141.84 0-30.949-9.96-59.56-26.818-82.89l88.86-47.42c24.9 38.548 38.678 83.63 38.678 130.31 0 133.74-108.54 242.71-242.03 242.71-133.44 0-241.99-108.97-241.99-242.71 0-133.76 108.54-242.51 241.99-242.51 35.837 0 72.63 8.964 105.1 24.568l76.839 59.15.314.388" fill="#40abba"/><path d="m338.46 285.38l112.5-148.84 81.07 61.772-50.26 63.716-143.31 23.353" fill="#74d1d3"/><path d="m338.82 285.4l12.927-100.46c17.1 4.068 33.807 9.941 49.52 17.375z" fill="url(#0)"/><g fill="#aad400"><path d="m365.81 395.58h-9.681v20.51h-21.274v-20.51h-9.681v49.904h9.681v-21.399h21.274v21.399h9.681v-49.904"/><path d="m418.01 420.56c0-3.456-.583-6.704-1.749-9.743-1.166-2.998-2.79-5.642-4.872-7.932-2.082-2.248-4.58-4.04-7.495-5.371-2.873-1.291-6.02-1.936-9.431-1.936h-20.861v49.966h20.861c3.414 0 6.558-.666 9.431-1.999 2.915-1.332 5.413-3.123 7.495-5.371 2.082-2.249 3.706-4.893 4.872-7.932 1.166-3.04 1.749-6.267 1.749-9.681m-9.806.25c0 2.124-.437 4.205-1.312 6.246-.833 2.082-1.999 3.914-3.498 5.496-1.457 1.624-3.185 2.915-5.184 3.872-1.999.999-4.164 1.499-6.496 1.499h-8.432v-34.1h8.432c2.29 0 4.434.458 6.433 1.374 2.04.916 3.789 2.144 5.246 3.685 1.499 1.582 2.665 3.394 3.498 5.434.874 2.082 1.312 4.247 1.312 6.496"/></g></g></svg>