<svg xmlns="http://www.w3.org/2000/svg" viewBox="0 0 602.36 602.36"><path d="m17.717 584.65h475.49v-475.49h-475.49v475.49"/><path d="m109.19 462.07l-21.12 1.712.571 41.667c0 0 25.15 1.336 31.11 1.712 5.936.365 12.09.525 13.984 7.706 2.055 7.785-6.884 13.413-9.989 13.414 9.384 0 7.226 0 14.27 0 5.731-1.05 12.238-7.991 11.416-18.265-1.084-13.585-11.45-16.838-22.546-16.838l3.507-22.19-21.2-8.916m-49.659 39.38c-3.802 4.601-7.603 11.815-5.422 19.692 6.518 22.01 41.473 31.667 56.22 32.25l-1.712-25.685c0 0-23.859 2.991-35.96-9.703-5.126-5.354-4.144-10.811-.285-15.697-4.521-.194-9.806-.731-12.843-.856" fill="#fff"/><path d="m109.16 493.2h475.49v-475.49h-475.49v475.49" fill="#223f9a"/><path d="m416.87 199.31v30.06h31.12v-30.06h-31.12m-46.34 2.125v49.12c-6.777-9.949-14.834-13.563-26.906-13.563-31.34 0-39.38 31.57-39.37 57.19 0 24.995 8.479 54.625 38.75 54.625 13.772 0 22.635-7.413 28.563-18.844h.438v16.719h29.656v-145.25h-31.12m-186.75 35.5c-12.698-.255-18.731 11.239-21.813 22.313h-.438v-20.12h-29v107.56h31.12v-41.06c0-19.06 2.977-38.33 26.688-37.06v-31.12l-5.313-.438c-.424-.033-.84-.054-1.25-.063m64.781.063c-22.663 0-48.07 7.636-51.25 33.688l29.438 2.75c0-10.581 8.676-15.687 18.625-15.688 4.663 0 9.963 1.488 12.719 5.094 3.181 4.02 2.75 9.534 2.75 14.188v2.531c-13.13 1.265-30.28 2.128-42.563 6.781-14.187 5.295-24.12 16.08-24.12 31.969 0 20.322 14.818 30.5 33.875 30.5 16.09 0 25.39-6.139 34.28-18.844-.217 5.503.226 11.216 1.5 16.719h30.906c-1.69-5.295-2.125-10.591-2.125-16.09v-50.19c0-12.913 1.078-24.765-9.938-33.656-8.675-7.202-23.09-9.75-34.09-9.75m262.12 0c-32.82 0-51.03 24.35-51.03 55.688 0 31.13 17.995 56.12 51.03 56.12 31.753 0 51.875-24.367 51.875-55.06 0-31.762-18.206-56.75-51.875-56.75m-93.81 2.125v107.56h31.12v-107.56h-31.12m94.03 18.438c7.202 0 12.273 2.724 14.813 9.719 2.964 8.04 3.375 18.221 3.375 26.688 0 12.913-.831 34.09-18.406 34.09-17.793 0-17.563-26.25-17.563-38.531 0-12.28 1.055-31.969 17.781-31.969m-155.44 1.25c14.187 0 15.06 17.783 15.06 28.16v14.844c0 5.295-.242 11-2.781 15.875-2.539 4.87-7.811 8.687-13.531 8.688-15.452 0-17.16-19.696-17.16-31.344 0-12.913.623-36.22 18.406-36.22m-94.62 36.438v4.219c0 7.627.196 13.973-4.25 20.75-3.596 5.503-9.304 8.906-15.656 8.906-8.684 0-13.781-5.721-13.781-14.188 0-15.669 21.832-18.423 33.688-19.688m-91.75 62.19c-8.75 0-18.13 3.418-23.16 10.875-4.04 6.145-3.719 14.717-3.719 21.844h-9.563v18.469h9.563v61.688h23.813v-61.688h14.563v-18.469h-14.563v-1.781c0-6.966-.014-11.969 7.594-11.969 3.728 0 5.504-.022 9.06.469v-18.281c-5.02-.972-11.649-1.156-13.594-1.156m56.75 28.969c-9.08.36-13.507 8.837-15.781 17.03h-.313v-15.375h-22.19v82.25h23.781v-31.406c0-14.574 2.305-29.32 20.438-28.344v-23.813l-4.063-.313c-.648-.051-1.269-.055-1.875-.031m50.47.031c-17.33 0-36.793 5.834-39.22 25.75l22.531 2.094c0-8.099 6.642-11.969 14.25-11.969 3.568 0 7.614 1.119 9.719 3.875 2.426 3.077 2.094 7.285 2.094 10.844v1.969c-10.04.972-23.15 1.598-32.531 5.156-10.855 4.049-18.469 12.321-18.469 24.469 0 15.546 11.332 23.313 25.906 23.313 12.299 0 19.413-4.684 26.22-14.406-.16 4.21.184 8.571 1.156 12.781h23.625c-1.293-4.049-1.625-8.07-1.625-12.281v-38.41c0-9.883.826-18.944-7.594-25.75-6.645-5.503-17.643-7.437-26.06-7.438m92.28 0c-11.978 0-18.773 5.04-23.625 15.563h-.344v-13.938h-22.5v82.25h23.813v-44.19c0-5.182.324-9.893 2.75-14.594 1.944-3.728 5.821-6.156 10.03-6.156 11.988 0 10.844 12.33 10.844 20.75v44.19h23.813v-50.844c0-7.457 0-17.815-4.531-23.969-4.861-6.645-12.472-9.06-20.25-9.06m73.69 0c-25.91 0-41.12 18.304-41.12 43.563 0 24.287 14.718 41.938 39.656 41.938 20.08 0 35.462-12.12 37.41-32.531l-22.656-1.313c-.812 7.608-5.02 14.25-13.438 14.25-13.602 0-13.781-14.238-13.781-24.281 0-10.525 1.63-23.5 14.75-23.5 8.58 0 12.469 7.293 12.469 14.75l22.656-1.313c-1.624-19.265-16.823-31.562-35.938-31.563m80.969 0c-25.589 0-40 19.588-40 43.875 0 24.456 16.04 41.625 40.656 41.625 27.855 0 37.41-24.294 37.41-28.344l-22.03-1.625c0 7.617-7.297 12.969-14.594 12.969-10.364 0-15.844-7.943-15.844-17.656l.156-4.03h52.781c.16-11.176-1.601-22.858-8.406-32.25-6.806-9.392-18.628-14.562-30.12-14.563m.969 15.563c10.364 0 13.269 8.255 13.75 17.16h-29.12c.812-9.392 4.85-17.16 15.375-17.16m-238.53 28.969v3.25c0 5.824.179 10.662-3.219 15.844-2.756 4.21-7.139 6.813-12 6.813-6.636 0-10.531-4.359-10.531-10.844 0-11.978 16.679-14.09 25.75-15.06" fill="#fff"/></svg>