<svg xmlns="http://www.w3.org/2000/svg" width="141.06" height="141.06" viewBox="0 0 141.057 141.058" enable-background="new 0 0 141.057 141.058"><path fill="#e2001a" d="m0 0h141.06v141.06h-141.06z"/><g fill="#fff"><path d="m23.922 66.71h-.311v-15.06h-5.985v71.784h5.985v-40.974c0-13.11 6.492-25.77 19.612-26.575v-5.36c-10.09.541-16.426 7.131-19.301 16.186"/><path d="m88.62 51.663h34.791v71.77h-34.791v-71.77m34.791-10.561h-34.791v-23.477h34.791v23.477"/><path d="m62.57 44.05c0-9.532 1.377-16.708 12.563-16.708.881 0 1.809.042 2.701.129v-10.364c-1.443-.154-2.967-.262-4.633-.262-19.19 0-23.61 11.183-23.61 28.3v6.496 10.494 61.3h12.979v-61.3h15.264v-10.494h-15.264v-7.591"/></g></svg>