<svg xmlns="http://www.w3.org/2000/svg" viewBox="0 0 600 361.4"><g transform="translate(124.3-419.49)"><path d="m0 0l-.106-.025c-.033-.011-.133-.051-.133-.051-1.903-.576-4.194-3.437-5.137-4.868l-.321-.484c-.645-.977-1.173-1.916-1.767-3.02-.261-.489-1.159-1.086-1.753-1.481-.907-.604-1.935-1.288-1.932-2.408l.062-.476c.16-.62.545-1.046 1.123-1.295-.835-1.55-1.53-2.378-1.854-2.711-.604.823-1.313 1.266-2.025 1.219-.53-.064-1.529-.519-1.606-1.795-.018-.289.211-2.075.257-2.43.275-1.631-.231-4.223-.236-4.249l-.051-.256.259-.026c.031-.003 3.066-.258 4.413 2.87.189-.006.62-.02.62-.02.415-.037 2.37-.031 3.171.024.032-.455.648-9.137.648-9.137l9.677.571c-.0001.005.2.012.2.012.002 0 4.595.271 5.557.328.21-.629.813-1.543 1.98-1.474 0 0 3.294.242 3.294.242.72.063 1.184.693 1.277 1.638.201.003.469.008.469.008l4.091.24c.002 0 .82.049.82.049l2.875.151s4.476.265 4.476.265-.451 7.22-.481 7.697c.483-.008 9.02-.155 9.02-.155l-.007 4.13s-.645 0-.902-.002c0 .393-.006 3.113-.006 3.506.261 0 .916 0 .916 0l-.008 4.801-7.141-.013c-.903-.014-1.15-.026-1.509-.117-.255-.069-.511-.219-.759-.384-.628.4-1.404.495-2.443.493-7.506-.009-9.65-.013-10.271-.016 0 .181 0 .383 0 .383 0 .105 0 .218-.007.338-.025.399-.129.866-.579 1.292-.413.389-.889.494-1.274.522 0 .191 0 .659 0 .659s-4.09-.007-4.344-.007c-.139.234-.481.783-.822 1.114-.286.277-.616.418-.967.493.193.306.386.731.385 1.231l-.018.251c-.127.734-.703 1.187-.727 1.206-.791.547-1.516.543-2.08.464-1.152.862-2.602 1.105-4.319.706" fill="#fff" transform="matrix(11.34559 0 0-11.34559 54.53 424.33)"/><path d="m0 0c.012-.053.014-.107.008-.161.017-.005.033-.0001.051-.015.029.046.052.082.052.083l.019.028-.13.065m-.398-.011c-.023-.031-.045-.062-.064-.091.002 0 .004 0 .006 0 .013.02.034.053.058.09m.101.159c-.018-.029-.063-.098-.101-.159.038.053.077.107.103.158h-.002zm-17.42-8.673c-.002.034-.003.068-.003.101-.002.993.963 1.635 1.826 2.21.652.433 1.542 1.026 1.831 1.566.592 1.105 1.116 2.037 1.756 3l.321.485c.851 1.292 3.157 4.211 5.03 4.778l.1.04.104.025c.4.093.783.151 1.149.173 1.196.074 2.215-.227 3.061-.893.109.017.235.035.373.043.444.027 1.017-.034 1.617-.449 0 0 .526-.408.639-1.059.006-.037.0001-.073.012-.108.002-.034.002-.069.002-.104 0-.636-.354-1.152-.548-1.389.151 0 .309-.017.469-.064.02-.005.04-.012.061-.019.224-.075.452-.207.672-.421.409-.396.851-1.181.851-1.181l4.244.007v-.645c.337-.004.894-.043 1.349-.471.39-.369.483-.773.505-1.137.006-.112.006-.219.007-.321v-.147h.012-.012c0-.125 0-.31 0-.474.0001 0 .181.002.473.003 2.049.005 10.03.015 10.03.015 1.097 0 1.856-.097 2.435-.522.27.203.556.347.825.419.183.047.337.071.579.086.205.012.472.018.872.025l6.905.012.006-4.327s-.519 0-.916 0c.002-1.398.006-3.273.007-3.98.398 0 .902.002.902.002l.006-3.652s-5.236.102-9.03.156c0-.005 0-.011 0-.018v-.004c0-.003 0-.006 0-.0001v-.003-.005c0-.004 0-.008 0-.012v-.005c.005-.079.014-.222.026-.416v-.002c.105-1.695.453-7.242.453-7.242s-4.237-.25-4.238-.25c-.319-.019-2.338-.119-2.875-.151 0 0-.819-.049-.82-.05-.557-.031-2.711-.158-3.272-.191l-.819-.048c-.218-.013-.44-.018-.659-.012-.026-.948-.44-1.577-1.091-1.634 0 0-3.29-.242-3.291-.242-1.434-.084-1.793 1.484-1.793 1.484s-5.74-.338-5.741-.338c-.066-.003-.134-.005-.203-.007v-.005l-5.096-.3-4.347-.257-.648 9.143c-.066-.009-.164-.018-.287-.025-.815-.05-2.698-.055-3.083-.02-.239.02-.553.027-.784.026-.959-2.421-2.922-2.823-3.802-2.877-.275-.016-.444 0-.444 0s.408 2.058.308 3.699c-.013.218-.035.429-.069.627 0 0-.218 1.684-.251 2.24-.004.066-.006.116-.004.145.085 1.416 1.385 1.573 1.385 1.573 0 0 .003 0 .005 0 .763.046 1.37-.542 1.703-.955.061-.076.113-.146.155-.205.073-.103.116-.173.124-.183.033.031.134.124.288.293.016.018.033.036.05.055.359.403.963 1.168 1.649 2.41 0 .002.002.005.004.007.073.134.148.273.223.418-.647.192-1.067.602-1.231 1.241-.028.11-.045.215-.052.317m12.08 12.856c-.391-.024-.803-.085-1.227-.184l-.107-.026-.035-.008-.033-.013-.08-.033c-1.983-.616-4.31-3.513-5.266-4.964l-.32-.484c-.653-.988-1.183-1.931-1.778-3.043-.234-.437-1.137-1.037-1.676-1.395-.909-.606-2.041-1.358-2.038-2.606 0-.177.023-.353.071-.536.155-.603.506-1.064 1.026-1.356-.617-1.11-1.161-1.819-1.503-2.213-.616.744-1.334 1.123-2.059 1.08h-.005-.014-.014c-.585-.071-1.715-.583-1.801-2.02-.018-.294.175-1.829.259-2.476v-.008h.002c.265-1.578-.232-4.128-.237-4.154l-.101-.511.517-.053c.022 0 .217-.02.521-.002.876.054 2.974.445 4.084 2.873.147-.003.302-.0001.433-.021.39-.035 2.065-.033 2.971.009l.614-8.669.033-.467.468.028 4.347.257 5.096.3.161.0001c.012 0 .024 0 .036 0h.003.003c.013 0 4.118.243 5.378.317.282-.68.953-1.534 2.156-1.464.005 0 .005 0 3.297.243h.004.004c.773.069 1.324.693 1.479 1.634.086.003.171.007.257.012l.819.048c.577.034 2.714.16 3.271.191l.822.05c.312.019 1.149.062 1.822.096.492.025.918.047 1.051.055.014 0 4.239.25 4.239.25l.475.028-.03.475c-.004.064-.344 5.482-.451 7.206 3.697-.055 8.469-.148 8.519-.149l.484-.009v.484l-.006 3.652v.474h-.474s-.19 0-.428-.002c-.002.763-.004 1.973-.005 3.03.244 0 .443 0 .443 0h.473v.474l-.007 4.327v.474h-.475l-6.904-.013h-.003-.004c-.416-.006-.682-.012-.892-.025-.263-.016-.449-.044-.667-.099h-.004l-.005-.002c-.235-.063-.476-.169-.709-.31-.65.354-1.45.431-2.427.429-3.949-.004-8.537-.0001-10.03-.015v.145c0 .47 0 1.178-.659 1.802-.387.365-.822.51-1.201.566v.207.474h-.474l-3.973-.007c-.175.284-.485.752-.791 1.048-.233.226-.487.392-.76.498.141.294.251.653.25 1.055 0 .088-.002.182-.021.29-.141.811-.746 1.301-.815 1.354l-.011.008-.0001.007c-.573.397-1.218.576-1.916.533-.077-.005-.149-.012-.216-.019-.907.652-1.988.945-3.218.869" fill="#8e9da5" transform="matrix(11.34559 0 0-11.34559 131.76 468.76)"/><path d="m0 0l27.19.151 19.267.034v-.943l-13.89.194-32.568.564" fill="#9ab6e3" transform="matrix(11.34559 0 0-11.34559-70.71 636.36)"/><g fill="#176fc1"><path d="m116.24 597.34c.011 6.04.272 7.08 1.691 8.6 1.543 1.543 2.439 1.668 8.736 1.657h4.618l.023 18.595-15.271.034c-10.903-.102-11.675-.238-13.728-.749-7.193-2.042-8.997-8.203-9.03-30.01l-.057-27.332c0-4.879.624-13.615 1.259-16.451 1.146-5.9 3.699-8.974 8.453-10.268 2.054-.522 3.597-.647 12.968-.794l14.613-.034.034 18.618-3.971.011c-6.297.011-7.204.125-8.713 1.679-1.543 1.543-1.679 2.439-1.679 8.6l.057 27.842z"/><path d="m293.44 121.03l-10.28.03c-10.27.001-16.16 2.99-19.22 9.41-2.68 5.77-3.46 11.15-3.44 25.41l.03 16.03c.04 14.25.82 19.66 3.53 25.43 3.09 6.4 9 9.34 19.25 9.32h10.28c10.27-.04 16.16-3 19.22-9.41 2.69-5.79 3.45-11.2 3.44-25.44l-.03-16.03c-.02-14.24-.82-19.63-3.53-25.4-3.1-6.54-8.98-9.37-19.25-9.35m-5.13 17.72c2.96 0 4.9 2.71 4.91 6.81l.06 36.82c0 4.23-1.91 6.81-4.87 6.81-2.95.001-4.87-2.55-4.88-6.78l-.06-36.85c-.001-4.1 1.9-6.8 4.84-6.81" transform="translate(-124.3 419.49)"/><path d="m220.34 540.44c1.429 5.117 1.815 6.921 2.201 11.289 2.303-8.861 5.639-11.3 15.646-11.334 8.986-.011 11.936 1.259 14.511 6.399 1.804 3.324 1.804 3.324 1.827 21.432l.102 57.738-22.975.057-.102-59.17c-.011-4.618-1.418-6.807-4.618-6.796-3.211.011-4.629 2.201-4.618 7.07l.102 58.906-22.975.034-.113-66.09c-.023-8.214-.397-12.185-2.212-19.492l23.22-.045"/><path d="m302.38 558.91l-10.381.023.113 66.973-22.975.045-.125-66.973-10.393.011-.034-18.607 43.771-.079.023 18.607"/><path d="m454.75 120.75c-11.15.02-16.42.92-19.13 3.25-2.68 2.29-3.96 6.82-3.93 14.25l.12 68.13 22.97-.04-.03-18.09h9.63l.03 18.09 22.97-.03-.13-68.15c-.001-7.46-1.29-11.95-4-14.25-2.7-2.31-7.96-3.18-19.13-3.16h-9.37m4.81 17.97c3.2-.001 4.72 2.43 4.72 7.94l.06 22.59h-9.62l-.03-22.56c-.001-5.52 1.53-7.97 4.87-7.97" transform="translate(-124.3 419.49)"/><path d="m393.82 596.86c.011 6.04.284 7.07 1.702 8.6 1.543 1.532 2.439 1.657 8.725 1.657l4.629-.011.023 18.607-15.271.023c-10.903-.102-11.675-.227-13.74-.737-7.182-2.054-8.997-8.203-9.03-30.01l-.045-27.343c-.011-4.867.613-13.615 1.259-16.44 1.146-5.911 3.699-8.986 8.441-10.279 2.065-.511 3.597-.647 12.968-.794l14.636-.023.034 18.607-3.982.011c-6.297.011-7.204.136-8.725 1.679-1.543 1.543-1.668 2.439-1.668 8.6l.045 27.853"/><path d="m456.4 558.64l-10.404.011.125 66.984-22.975.045-.113-66.984-10.393.023-.034-18.618 43.76-.079.034 18.618"/></g><g fill="#9ab6e3"><path d="m127.19 511.58l.011 3.097c1.407-2.394 2.678-3.245 4.833-3.245.477 0 .76.045 1.327.284l-.556 8.123c-2.224-1.067-3.2-1.441-5.605-2.201l.034 18-7.465.023-.034-24.07 7.454-.011"/><path d="m145.73 519.74c0-1.838-.522-2.734-1.645-2.734-1.18 0-1.69.851-1.69 2.734l.011 7.431c.011 1.872.511 2.723 1.69 2.712 1.135.011 1.656-.84 1.656-2.712l-.023-7.431m7.5 15.872l-7.465.011v-2.632c-1.271 2.394-1.781 2.734-4.141 2.734h-1.498c-2.689.011-3.585-.272-4.289-1.259-.567-.851-.896-2.723-.908-4.981l-.011-12.832c0-2.303.227-3.347.976-4.084.76-.76 1.827-1.146 3.211-1.146h1.588c2.394 0 3.188.374 4.459 1.963l.567.715v-2.541l7.477-.023.034 24.07"/><path d="m166.6 519.69c0-1.872-.522-2.723-1.645-2.723-1.18 0-1.702.851-1.69 2.734l.011 7.431c0 1.872.522 2.723 1.69 2.712 1.135 0 1.645-.84 1.645-2.723l-.011-7.431m7.499 15.884h-7.477v-2.632c-1.214 2.36-1.77 2.746-4.13 2.746h-1.498c-2.689.011-3.585-.272-4.289-1.259-.556-.851-.908-2.78-.908-4.992l-.011-12.877c-.011-2.303.227-3.29.976-4.084.794-.749 1.736-1.089 3.199-1.089h1.6c2.485-.011 3.188.272 4.459 1.917l.567.692-.023-9.769 7.488-.011.045 31.359"/><path d="m184.26 511.49l.045 24.05-7.477.023-.045-24.06 7.477-.011m-.011-7.284v5.117l-7.465.011-.011-5.117 7.477-.011"/><path d="m194.35 527.36c0 1.793.522 2.575 1.747 2.575 1.214 0 1.781-.806 1.781-2.575l-.023-7.579c0-1.793-.511-2.575-1.781-2.587-1.225 0-1.736.817-1.736 2.587m3.835-8.316c3.574-.011 5.162.306 6.115 1.203.942.896 1.044 1.361 1.044 5.514l.023 10.665c0 4.084-.091 4.561-1.032 5.446-.942.885-2.53 1.225-6.104 1.237h-4.141c-3.619.011-5.219-.318-6.149-1.214-.953-.874-1.055-1.339-1.055-5.446l-.011-10.665c-.011-4.141.079-4.618 1.021-5.503.93-.896 2.53-1.225 6.161-1.225l4.13-.011z"/></g><path d="m0 0c.251-.337.991.304 1.763-.228.173-.119.02-.486-.187-.728-.133-.288-.909-1.04-1.04-1.211-.087-.005-.125-.39-.148-.45.379-.177.652-.511 1.01-.727.579-.21 1.119.478 1.483.111.448-.452.247-.807.062-1.076-.18-.261-2.074-.495-2.748-1.388-.267-.357-.476-.716-.628-1.156-.044-.099-.382-1.571-.382-1.571-.126-.482 1.096-1.995.863-2.695.017-.219-.362-.223-.362-.223-.26.057-.536.149-.772.255-.131.101-.362.14-.532.059-.16-.429-.351-.69-.557-1.084-.452-.605-.903-1.219-1.357-1.824-.795-.838-1.504-1.712-2.367-2.198-1.054-.771-2.346-1.118-3.645-1.395-.997-.111-2.055-.248-3.061-.174l-.03-.019c-1.156-.172-2.871.62-3.284-.844-.07-.058-.292-.718-.325-.797-.166-.499-.697-.803-1.194-.824-.006.053.211.978.217 1.283.02-.011-.02 1.166-.166 1.695-.21.585-.21 1.3-.207 2.025-.033.114.051.222.129.237.478.031.572-.567.856-.841.234-.341.534-.696 1.064-.628.654.047 1.234.862 1.529 1.108.44.555.851 1.121 1.213 1.71.208.396.443.779.611 1.186.061.027.066.13.099.189.216.405.385.986.229 1.486-.173.389-1.257-.077-1.417.545-.172.671 2.642 1.653 3.485 3.226.543 1.013 1.061 1.942 1.688 2.893.944 1.411 1.833 2.917 3.291 3.938.411.402 1.451.829 1.451.829 2.413.563 3.197-.591 3.366-.694" fill="#231f20" transform="matrix(11.34559 0 0-11.34559 98.13 449.66)"/><g fill="#176fc1"><path d="m0 0c-.297-.093-.469-.378-.731-.566-.535-.701-1.28-1.165-2.062-1.412-.929-.279-2.01-.394-2.618-1.274-.29-.667.156-1.214.299-1.765.05-.176.139-.325.155-.55.115-.028.009-.185.102-.252.167-.817.265-1.388.32-2.381.059-1.102-.531-2.413-.572-2.472-.719-1.353-1.879-2.485-3.01-3.485-.928-.769-2.033-1.241-3.081-1.745-1.108-.513-2.257-.89-3.512-1.097-.61.028-.943-.532-1.155-1.03 0 0-.195-1.235-.901-1.515.061.058.23 1.506.132 2.024-.154.703-.383 1.643-.358 2.448.26-.047.349-.528.554-.696.295-.446.74-.821 1.361-.677.523.141 1.491 1.131 1.554 1.208.123.279.42.383.534.672h.02c.636.807 1.184 1.712 1.614 2.644.051.212.138.348.15.582l.029-.002c.137.533.064.947-.326 1.287-.352.306-1.302-.099-1.173.227.093.236.427.403.6.546.831.795 1.869.86 2.523 1.952.317.266.94 1.513 1.124 1.839.693 1.089 1.338 2.212 2.078 3.278.102.085.416.474.47.583.882.986 2.099 2.493 3.917 2.448.824-.02 1.795-.08 1.967-.818" transform="matrix(11.34559 0 0-11.34559 94.55 452.79)"/><path d="m0 0c-.168-.368-.453-.604-.704-.936-.389-.343-.794-.807-1.29-.99-.911-.3-1.851-.619-2.649-1.14-.051.125-.333-.051-.333-.051-.062.116-.218.116-.343.124-.048.177-.126.334-.155.52 1.025.446 2.322.353 3.075 1.306.513.305.796 1.012 1.423 1.106.198.059.87.33.976.061" transform="matrix(11.34559 0 0-11.34559 110.77 454.62)"/></g><path d="m0 0c.035-.074.142-.07.209-.105.122-.079.262-.169.331-.316l-1.076.066.003.021c-.094.057-.242.026-.347.072.017.102-.106.018-.132.08-.042.116.094.087.106.147.241.128.607.095.906.035" fill="#fff" transform="matrix(11.34559 0 0-11.34559 97.58 487.14)"/><path d="m0 0l-.005-.092c-.208-.078-.117.161-.221.208l.008.143c.187.06.105-.201.218-.259" fill="#176fc1" transform="matrix(11.34559 0 0-11.34559 47.868 486.8)"/><path d="m0 0c.217-.573-.729-.688-.933-.85-.861-.283-1.816-.508-2.275-1.397-.14-.257-.32-.532-.416-.832-.078-.046-.412-1.684-.646-2.545-.544-2-1.518-3.127-2.059-3.777-1.121-1.451-2.512-2.853-4.187-3.442-1.626-.735-3.528-.871-5.527-.826-.004-.061.011.029-.018.031-.001-.019-.03-.028-.032-.049h-.018c.035.121.198.081.308.155.676.253 2.144.957 2.221.962 1.419.697 2.751 1.582 3.89 2.818.368.303.623.706.926 1.065.035.13.157.225.233.353.285.41.531.823.704 1.323.062.057.773 1.102.107 4.818.074.098.153.494.2.634.195.549.657.979 1.14 1.275.345.082.569.281.968.276.617.084 1.899-.262 1.899-.262.616-.12 1.319-.053 1.895-.027.397.159.802.276 1.192.466.163-.041.412.065.428-.17" fill="#fff" transform="matrix(11.34559 0 0-11.34559 130.46 490.84)"/><path d="m0 0c-.202.053-.297-.074-.489-.051.067.159.217.231.383.251l.106-.2" fill="#176fc1" transform="matrix(11.34559 0 0-11.34559 44.09 487.6)"/><g fill="#fff"><path d="m0 0c.084-.24-.188-.386-.313-.563l-.1-.044c.073.098.191.295.125.503l-.055.228c.127.012.198-.125.343-.124" transform="matrix(11.34559 0 0-11.34559 49.48 491.64)"/><path d="m0 0c-.121-.088-.216.067-.303.127l.003.054c.143.019.228-.082.3-.181" transform="matrix(11.34559 0 0-11.34559 42.681 492.8)"/></g><path d="m0 0c-.187.124-.225.493-.308.754l.253-.016c.013-.104-.052-.242.03-.319.179.234.349.499.619.646-.193-.325-.529-.6-.594-1.065" fill="#176fc1" transform="matrix(11.34559 0 0-11.34559 40.465 510.76)"/><path d="m0 0c.174-.532.31-1.051.306-1.662-.064-.099-.13-.237-.248-.261l-.096.006c-.095.067-.258.098-.34.195-.243.159-.511.247-.767.365-.064.075-.218.085-.304.121-.489.112-.941.028-1.399-.014-.085.066-.181.083-.263.191-.244.818 1.919 1.451 2.987 1.261l.124-.202" fill="#231f20" transform="matrix(11.34559 0 0-11.34559 37.42 531.65)"/><g fill="#fff"><path d="m0 0c.025-.257.113-.415.128-.671.047-.167.072-.423-.052-.559-.364.094-.591.364-.956.448l.002.031c-.384.086-.717.219-1.138.163-.27.038-.619-.224-.863.035.023.546 1.611 1.161 2.647.993.168-.113.143-.281.232-.44" transform="matrix(11.34559 0 0-11.34559 36.613 536.35)"/><path d="m0 0s-1.124.234-1.164.543c.062.078.413 1.137.459 1.44.304-.304 1-1.746.705-1.983" transform="matrix(11.34559 0 0-11.34559 95.61 575.38)"/></g><g fill="#6c99d7"><path d="m21.2 701.68l.783 13.172-6.206.374 2.439 40.47-17.313 1.021-2.405-40.458-4.697.295-.783-13.184 4.686-.272-.363-5.877c-.59-9.905 2.031-13.229 11.06-13.785l11.652-.681.794 13.161-2.507.136c-2.712.182-3.631 1.327-3.46 4.05l.125 1.951 6.195-.374"/><g transform="translate(-124.3 419.49)"><path d="m179.41 278.12c-.68.02-1.41.05-2.16.1l-13.59.81c-6.53.41-9.87 1.33-11.5 3.19-1.64 1.85-2.32 4.95-2.1 8.87l1.78 29.47.19 3.28c.59 9.78 2.89 11.61 13.97 10.94l29.06-1.75-.78-13.15-18.94 1.12c-4.78.29-6.16-.62-6.37-4.41l-.19-2.93 25.03-1.5-1.37-22.85c-.4-6.41-.78-7.71-3.16-9.31-2-1.41-5.12-1.99-9.87-1.88m-8 13.66c2.39-.15 3.93 1.92 4.15 5.84l.32 5.04-7.72.46-.32-5.03c-.23-3.92 1.06-6.15 3.57-6.31"/><path d="m226.5 275.28c-.68.02-1.38.05-2.12.1l-13.63.84c-6.52.38-9.87 1.34-11.5 3.19-1.63 1.83-2.32 4.91-2.09 8.84l1.78 29.47.18 3.28c.59 9.79 2.91 11.63 14 10.97l29.07-1.78-.81-13.13-18.94 1.13c-4.78.29-6.15-.61-6.38-4.41l-.15-2.94 25-1.53-1.38-22.84c-.38-6.41-.76-7.68-3.15-9.28-1.99-1.42-5.12-2.02-9.88-1.91m-7.97 13.66c2.38-.15 3.91 1.96 4.16 5.87l.28 5-7.72.47-.28-5c-.24-3.92 1.07-6.18 3.56-6.34"/></g><path d="m135.92 675.8l4.357 72.54-17.302 1.032-4.345-72.55 17.291-1.021"/><g transform="translate(-124.3 419.49)"><path d="m324.19 269.47c-1.45.03-3.19.09-5.31.22l-10.22.62c-8.39.51-12.02 1.5-14.07 3.69-2.06 2.2-2.19 3.3-1.62 12.88l1.47 24.9.12 3.6c.34 5.65 1.61 8.53 4.22 10 2.22 1.07 3.54 1.22 11.06.78l11-.69.25 4.37c.21 3.48-1.34 5-5.03 5.22-4.14.24-5.74-.87-5.97-4.56l-14.47.88.32 5.09c.42 7.31 2.7 8.81 12.59 8.22l16.66-1c2.06-.12 7.78-1.13 8.75-1.41 3.63-1.53 4.95-4.79 4.59-10.78l-.12-2.72-2.69-44.47c-.84-10.44-1.26-11.62-3.75-13.31-1.73-1.2-3.45-1.61-7.78-1.53m-10.03 13.84c2.91-.18 4.25 1.61 4.5 5.75l1.03 17.5c.24 4.13-.95 6.04-3.78 6.22-2.83.17-4.13-1.59-4.38-5.72l-1.06-17.53c-.24-4.13.85-6.05 3.69-6.22"/><path d="m371.84 266.69c-1.55-.001-3.33.03-5.4.15l-9.6.6c-8.36.51-12.01 1.48-14.06 3.68-2.04 2.18-2.23 3.28-1.66 12.85l1.5 24.69c.57 9.46.87 10.57 3.16 12.5 2.3 1.95 6.05 2.46 14.41 1.96l9.59-.59c8.27-.49 11.92-1.45 13.97-3.65 2.05-2.19 2.19-3.34 1.63-12.79l-1.47-24.68c-.57-9.58-.86-10.65-3.16-12.57-1.72-1.45-4.25-2.12-8.91-2.15m-9.5 13.72c2.93-.17 4.22 1.62 4.47 5.75l1.07 17.5c.24 4.13-.94 6.06-3.76 6.25-2.83.17-4.16-1.61-4.4-5.75l-1.06-17.5c-.24-4.14.85-6.08 3.68-6.25"/><path d="m419.69 263.78c-1.55-.001-3.31.06-5.38.19l-9.56.56c-8.37.51-12.04 1.51-14.09 3.72-2.05 2.19-2.24 3.3-1.66 12.87l1.5 24.69c.58 9.45.86 10.53 3.16 12.47 2.29 1.94 6.05 2.45 14.43 1.94l9.57-.56c8.27-.49 11.91-1.46 13.96-3.66 2.06-2.19 2.19-3.29 1.63-12.75l-1.5-24.69c-.57-9.58-.83-10.68-3.13-12.62-1.72-1.44-4.28-2.13-8.93-2.16m-9.5 13.75c2.92-.18 4.26 1.61 4.5 5.75l1.06 17.53c.25 4.13-.98 6.04-3.78 6.22-2.84.16-4.15-1.62-4.38-5.75l-1.06-17.53c-.25-4.13.81-6.05 3.66-6.22"/><path d="m477.25 243.25l-17.28 1.06 1.34 22.63-1.4-1.56c-3.18-3.66-4.83-4.2-10.6-3.85l-3.72.22c-3.37.2-5.49 1.08-7.25 2.94-1.63 1.96-2 4.28-1.68 9.62l1.78 29.81c.32 5.11 1.33 9.53 2.75 11.41 1.77 2.17 3.89 2.72 10.09 2.35l3.47-.22c5.46-.32 6.71-1.28 9.22-6.91l.37 6.13 17.28-1.07-4.37-72.56m-19.34 30.75c2.62-.16 3.94 1.75 4.21 6.09l1.04 17.19c.23 4.37-.81 6.4-3.44 6.56-2.72.16-4.02-1.73-4.28-6.09l-1.06-17.19c-.25-4.35.8-6.4 3.53-6.56"/></g></g></g></svg>