<svg xmlns="http://www.w3.org/2000/svg" height="195.56" width="600" viewBox="0 0 158.75 51.741374"><g transform="translate(109.44-350.38)"><g fill="#fff"><path d="m0 0h-.005c-5.346 0-7.738 3.697-7.738 7.358 0 .721.566 1.286 1.285 1.286h3.197c.72 0 1.285-.565 1.285-1.286 0-.374.351-1.881 1.969-1.881h-.019.019c1.181 0 2.14.796 2.14 1.779s-.797 1.779-1.78 1.779h-1.318c-.722 0-1.287.565-1.287 1.286v2.906c0 .721.565 1.286 1.287 1.286h.958c1.636 0 1.881 1.015 1.881 1.62 0 .714-.654 1.706-1.881 1.706-1.092 0-1.852-1.083-1.852-2.056 0-.722-.565-1.287-1.286-1.287h-3.166c-.723 0-1.287.565-1.287 1.287 0 4.366 3.193 7.533 7.591 7.533 4.361 0 7.648-3.09 7.648-7.183 0-2.079-.963-3.48-1.841-4.324 1.321-1.204 2.104-2.959 2.104-4.742 0-1.933-.716-3.69-2.01-4.947-1.413-1.372-3.451-2.105-5.894-2.12" transform="matrix(2.2191 0 0-2.2191-32.407 402.12)"/><path d="m0 0c-1.419 0-2.628.962-2.569 2.204.059 1.216.927 2.205 2.569 2.205 1.64 0 2.508-.989 2.568-2.205.06-1.242-1.151-2.204-2.568-2.204m-.028 13.19h.056c1.496 0 2.294-1.229 2.294-2.116 0-1.859-1.778-2-2.322-2-.545 0-2.321.143-2.321 2 0 .887.797 2.116 2.293 2.116m5.865-6.439c.877.844 1.84 2.244 1.84 4.323 0 4.093-3.288 7.183-7.649 7.183h-.056c-4.361 0-7.65-3.09-7.65-7.183 0-2.079.965-3.479 1.841-4.323-1.321-1.205-2.103-2.96-2.103-4.744 0-1.935.715-3.699 2.01-4.958 1.421-1.379 3.47-2.108 5.926-2.108s4.505.729 5.926 2.108c1.298 1.259 2.01 3.02 2.01 4.958 0 1.784-.783 3.539-2.103 4.744" transform="matrix(2.2191 0 0-2.2191 4.358 390.89)"/><path d="m0 0c-5.325 0-8.2 3.775-8.2 7.329 0 .724.577 1.315 1.286 1.315h3.196c.733 0 1.287-.553 1.287-1.286 0-.846 1.121-1.881 2.431-1.881 1.565 0 2.462 1.098 2.462 3.02 0 1.697-.988 2.838-2.462 2.838-.659 0-1.851-.172-2.441-1.324-.218-.436-.662-.709-1.161-.709h-3.166c-.722 0-1.287.564-1.287 1.286l.008.12 1.303 11.137c.045.67.597 1.186 1.283 1.186h11.1c.722 0 1.287-.565 1.287-1.287v-2.935c0-.715-.577-1.257-1.344-1.257h-7.127l-.125-1.102c.668.235 1.355.362 1.964.362 4.761 0 8.09-3.42 8.09-8.315 0-5.08-3.366-8.492-8.376-8.492" transform="matrix(2.2191 0 0-2.2191-69.786 402.12)"/></g><path d="m0 0c0-3-2.432-5.433-5.434-5.433-3 0-5.433 2.432-5.433 5.433 0 3 2.433 5.435 5.433 5.435 3 0 5.434-2.433 5.434-5.435" transform="matrix(2.2191 0 0-2.2191 49.31 389.91)" fill="#6d1d82"/><path d="m0 0c0-3-2.432-5.434-5.434-5.434-3 0-5.433 2.432-5.433 5.434 0 3 2.433 5.434 5.433 5.434 3 0 5.434-2.433 5.434-5.434" transform="matrix(2.2191 0 0-2.2191 49.31 362.59)" fill="#86b817"/><g fill="#fff"><path d="m0 0h3.257c.035 0 .057-.024.057-.059v-1.276c0-.024-.022-.047-.057-.047h-5.708c-.034 0-.057.023-.057.047v1.104c0 .068.023.092.069.115l.345.116c.046.021.057.067.023.102-.345.346-.551.736-.551 1.278v.632c0 .035.023.057.056.057h1.208c.034 0 .057-.022.057-.057v-.747c0-.898.611-1.265 1.301-1.265" transform="matrix(2.2191 0 0-2.2191-98.82 398.9)"/><path d="m0 0c-.081 0-.093 0-.093-.092v-1.278c.046-1.023.414-1.196.715-1.196.24 0 .585.207.585.898 0 1.185-.667 1.646-1.207 1.668m2.473-1.668c0-1.565-.806-2.278-1.853-2.278-.989 0-1.864.838-1.864 2.52v1.081c0 .23-.137.345-.253.345-.241 0-.815-.081-.816-1.209 0-.874.369-1.126.759-1.162.034 0 .057-.022.058-.056v-1.255c0-.034-.022-.056-.057-.056-1.357 0-2.025 1.172-2.025 2.529 0 1.589.747 2.59 2.187 2.59h3.693c.046 0 .057-.036.057-.058v-1.127c0-.035-.022-.069-.057-.081l-.368-.115c-.046-.022-.046-.081 0-.128.228-.229.54-.872.54-1.54" transform="matrix(2.2191 0 0-2.2191-96.69 385.32)"/><path d="m0 0c0 .92-.725 1.367-1.759 1.367-1.152 0-1.761-.447-1.761-1.367 0-.979.725-1.485 1.761-1.485 1.034 0 1.759.506 1.759 1.485m1.266-.231c0-1.621-1.231-2.635-3.02-2.636-1.796 0-3.03 1.117-3.03 2.636 0 .736.322 1.267.552 1.496.047.045.024.102-.034.102h-2.623c-.033 0-.058.025-.058.059v1.265c0 .035.025.057.058.057h7.985c.036 0 .057-.022.057-.045v-1.105c0-.069-.011-.092-.057-.115l-.368-.116c-.045-.022-.045-.08 0-.126.276-.275.54-.886.54-1.472" transform="matrix(2.2191 0 0-2.2191-94.02 374.9)"/><path d="m0 0c0-.032-.022-.057-.056-.057h-5.709c-.034 0-.057.025-.057.057v1.267c0 .034.023.057.057.057h5.708c.035 0 .057-.023.057-.057zm-6.467-.057c0-.034-.022-.055-.057-.057l-1.519.002c-.033 0-.058.021-.058.055v1.381c0 .035.025.057.058.057h1.519c.035 0 .057-.022.057-.057z" transform="matrix(2.2191 0 0-2.2191-91.46 367.21)"/><path d="m0 0c0-.966.679-1.472 1.761-1.473 1.082 0 1.759.507 1.759 1.473 0 .979-.677 1.485-1.759 1.485s-1.761-.506-1.761-1.485m4.786 0c0-1.795-1.231-2.853-3.02-2.853-1.807 0-3.03 1.058-3.03 2.853 0 1.796 1.232 2.867 3.03 2.866 1.794 0 3.02-1.07 3.02-2.866" transform="matrix(2.2191 0 0-2.2191-101.83 356.74)"/></g></g></svg>