<svg xmlns="http://www.w3.org/2000/svg" height="593.84" width="600" viewBox="0 0 158.75 157.11908"><g transform="translate(-18.14-153.43)"><g fill="#1b171b"><path d="m303.11-.004c-163.84 0-296.95 133.15-296.95 296.91.002 163.78 133.11 296.92 296.95 296.92 163.76 0 296.89-133.14 296.89-296.92 0-163.76-133.13-296.91-296.89-296.91m0 29.904c147.59 0 266.99 119.41 266.99 267.01 0 147.62-119.4 267.03-266.99 267.03-147.68 0-267.04-119.41-267.04-267.03-.004-147.6 119.36-267.01 267.04-267.01" transform="matrix(.26458 0 0 .26458 18.14 153.43)" mix-blend-mode="normal" solid-color="#000000" white-space="normal" shape-padding="0" color="#000" image-rendering="auto" color-rendering="auto" isolation="auto" shape-rendering="auto"/><path d="m69.04 220.15c-1.937-.07-3.047-.13-4.971-.001l.013-25.97 4.352.02c3.729 0 4.97 4.69 4.966 10.88l-.009 3.42s.31 11.8-4.351 11.66m1.889-35.92l-15.851-.001c-1.784 0-3.127 1.47-3.127 3.1l-.026 39.19c0 1.77 2.081 2.8 3.106 2.8l18.504.02c9.526 0 11.242-14.67 11.517-17.09l.009-9.64c-.195-8.04-2.776-18.36-14.13-18.37"/><path d="m91.51 184.24l20.528.02c2.94.16 2.64 2.09 2.63 5.6 0 2.68-.22 4.02-2.34 4.04-2.27.04-5 .12-12.12-.001l-.001 7.15c2.9.1 4.56 0 7.46.001 1.87 0 2.49 1.06 2.49 2.5l-.001 4.97c0 1.37-1.42 2.18-2.79 2.18l-7.15-.001-.001 9.17c3.1.06 4.19 0 11.97.001 1.71 0 2.95.47 2.63 3.89 0 2.92.72 5.6-2.49 5.6l-20.826-.03c-1.674 0-3.432-1.68-3.42-3.11l.039-36.39c-.259-3.93.86-5.59 3.419-5.59"/><path d="m121.73 184.27l20.54.001c2.94.17 2.63 2.08 2.63 5.61 0 2.68-.22 4-2.33 4.04-2.28.02-5.01.12-12.13-.001v7.14c2.88.1 4.55.001 7.46.001 1.86 0 2.49 1.07 2.49 2.49v4.98c0 1.38-1.45 2.18-2.81 2.18l-7.15-.001-.001 9.17c3.11.06 4.2.001 11.96.02 1.73 0 2.96.46 2.63 3.88 0 2.92.74 5.59-2.47 5.59l-20.83-.001c-1.68 0-3.43-1.68-3.43-3.11l.04-36.39c-.25-3.94.87-5.59 3.41-5.59"/><path d="m68.5 235.43l6.81.0001c2.627 0 2.627 3.08 2.474 5.57l-.033 35.63c0 .88-.873 3.42-2.789 3.42h-20.16c-1.017-.0001-2.772-1.19-2.772-3.11v-10.54c.005-1.67 1.627-3.41 3.738-3.41h3.712c1.546 0 3.398.87 3.398 2.78v3.12c0 .7.093 1.53 1.546 1.53 1.212 0 1.556-.52 1.556-1.53l.029-25.73c.004-2.98-.597-7.74 2.487-7.74"/><path d="m96.73 259.14c.937-3.7 1.403-8.05 2.191-10.22.559 2.34 2.143 10.23 2.143 10.23zm15.494-2.91c-4.65-15.88-4.9-20.77-8.34-20.77l-10.544-.0001c-3.334 0-3.254 3.24-4.33 6.8l-9.02 35.65c.148 1.17-.132.83.915 2.16h9.288c2.233 0 2.335-2.02 3.572-6.35.466-2.32 1.246-4.8 1.246-4.8h8.36s.54 3.55 1.24 6.34 1.11 4.83 2.96 4.83h9.29c1.05 0 1.55-.66 1.55-1.87 0-2.29-.51-2.82-6.19-22"/><path d="m112.62 235.46l9.6.001c2.21 0 2.47 3.09 3.41 4.64 0 0 2 5.44 2.62 6.2.03-.23 1.22-3.33 2.32-6.04.95-2.31 1.54-4.8 3.11-4.8l10.24.001c1.29 0 1.33.47 1.55 1.55l-11.5 23.85v16.44c0 1.02-1.18 2.78-3.11 2.78h-5.89c-1.39 0-3.1-1.84-3.1-3.72l.02-15.5-11.29-23.72c.15-1.55.9-1.7 2.02-1.7"/><path d="m140.27 276.34v-1.31h.88c.45 0 .92.09.92.62 0 .65-.48.69-1.03.69zm0 .55h.74l1.12 1.84h.72l-1.21-1.87c.63-.08 1.1-.41 1.1-1.18 0-.82-.49-1.2-1.5-1.2h-1.62v4.25h.65zm.79 3.37c1.99 0 3.69-1.53 3.69-3.67 0-2.11-1.7-3.66-3.69-3.66-2.03 0-3.74 1.55-3.74 3.66 0 2.14 1.71 3.67 3.74 3.67m-3-3.67c0-1.73 1.32-3.03 3-3.03 1.65 0 2.96 1.3 2.96 3.03 0 1.78-1.31 3.07-2.96 3.07-1.68 0-3-1.29-3-3.07"/></g><path d="m81.75 179.6l-63.6-6.34 1.513-19.06 68.13 11.69z" fill="#e00a1d"/><g fill="#fff"><path d="m31.21 165.62l1.491.17c.492.06.848.03 1.119-.12.246-.14.428-.35.521-.63.102-.29.097-.52-.042-.7-.136-.18-.441-.3-.92-.36l-1.546-.19zm-4.916 5.02l3.289-9.5 4.694.57c.653.06 1.191.16 1.615.28.415.12.754.27.987.47.246.17.42.4.538.65.127.25.178.52.204.77.008.29-.055.61-.187 1-.157.47-.368.86-.644 1.17-.263.3-.555.52-.924.71-.241.14-.525.22-.864.26.538.3.869.62.983.92.136.31.093.79-.119 1.47l-.474 1.51c-.068.21-.089.35-.068.38.021.06.093.11.212.13l-.106.29-3.199-.37c0-.27.119-.71.305-1.33l.225-.7c.11-.33.144-.58.11-.77s-.136-.34-.31-.47c-.173-.1-.445-.19-.856-.23l-1.224-.15-1.148 3.32z"/><path d="m44.48 165.77l-2.178 3.34 2.01.24zm-7.301 6.07l6.724-9.1 3.191.37.161 9.91-3.144-.37.063-1.29-3.139-.37-.776 1.2z"/><path d="m52.978 171.18l.809.09c.611.06 1.06.03 1.445-.08.352-.13.67-.36.971-.72.292-.35.546-.79.733-1.34.135-.33.186-.66.224-.97.026-.3.017-.56-.067-.79-.077-.17-.191-.33-.365-.44-.25-.16-.661-.26-1.25-.34l-.83-.11zm-3.924 1.93l3.297-9.29 4.428.51c1 .11 1.805.37 2.432.76.615.38 1.01.95 1.161 1.73.165.75.072 1.65-.292 2.69-.246.68-.555 1.29-.937 1.82-.385.53-.767.95-1.165 1.28-.402.29-.796.54-1.199.71-.381.17-.86.29-1.424.36-.555.05-1.195.03-1.945-.04z"/><path d="m60.774 174.31l3.292-9.51 3.149.38-3.293 9.5z"/><path d="m71.874 173.8c.368.06.758.001 1.152-.14.356-.15.703-.41 1.055-.81.335-.39.602-.89.826-1.5.149-.42.255-.81.272-1.16.033-.36.012-.65-.077-.88-.063-.22-.224-.41-.44-.6-.2-.16-.454-.26-.801-.31-.356-.04-.729.001-1.136.16-.381.16-.746.44-1.093.81-.322.4-.597.9-.831 1.49-.317.91-.355 1.64-.089 2.2.191.42.585.67 1.162.74m-.806 2.38c-1.627-.18-2.758-.79-3.419-1.84-.631-1.04-.678-2.33-.127-3.87.25-.74.606-1.38 1.029-1.94.45-.56.903-1.02 1.437-1.37.508-.35 1.021-.61 1.53-.78.474-.17.978-.28 1.512-.34.526-.06 1.051-.06 1.594 0 .995.11 1.838.42 2.546.94.708.49 1.153 1.15 1.326 1.96.178.82.089 1.71-.254 2.7-.352.97-.843 1.8-1.521 2.53-.67.71-1.496 1.27-2.466 1.66-.966.38-2.03.5-3.187.35"/></g></g></svg>