<svg xmlns="http://www.w3.org/2000/svg" height="351.61" width="600" viewBox="0 0 158.75 93.030005" xmlns:xlink="http://www.w3.org/1999/xlink"><defs><path id="2" d="m61.747 44.36c-1.199 0-2.216-.384-3.03-1.158-.818-.768-1.226-1.761-1.226-2.966 0-.282.034-.583.089-.894h15.183c1.226 0 2.24.395 3.03 1.182.797.789 1.179 1.803 1.179 3.036 0 .403-.011.685-.037.863l-.431 2.485c-.225 1.416-.938 2.59-2.127 3.515-1.192.938-2.499 1.393-3.936 1.393h-7.618c-.69 0-1.325.285-1.908.826-.593.546-.94 1.16-1.058 1.847-.682 1.777-1.375 2.953-2.067 3.536-1.14.967-2.404 1.472-3.782 1.498l1.338-7.668c.228-1.367.907-2.517 2.039-3.439 1.134-.917 2.399-1.372 3.805-1.372h8.778c.92 0 1.445-.45 1.592-1.341.143-.896-.23-1.343-1.119-1.343z"/><use id="3" xlink:href="#0"/><path id="4" d="m82.81 23.23c.04-.225-.007-.413-.125-.599-.118-.169-.293-.258-.523-.258l-2.435.013-.424 2.401c-.039.217.008.424.123.591.128.186.298.277.531.272l1.654-.005c.227-.006.431-.092.601-.272.172-.162.282-.374.334-.601zm-5.537 4.045l1.126-6.496 4.887-.021c.384-.006.721.122.975.376.245.248.379.575.379.97 0 .133 0 .219-.008.279l-.572 3.241c-.084.452-.306.833-.654 1.15-.363.318-.773.478-1.231.478z"/><use id="5" xlink:href="#1"/><radialGradient id="6" gradientUnits="userSpaceOnUse" cy="41.536" cx="88.56" r="47.32"><stop stop-color="#fff"/><stop stop-color="#fff" offset=".053"/><stop stop-color="#e0091d" offset=".491"/><stop stop-color="#5a1917" offset="1"/></radialGradient></defs><g color-rendering="auto" shape-rendering="auto" image-rendering="auto" color="#000"><g fill="#ff0"><path d="m145.56 35.561l-.03-.027-.04-.038z" mix-blend-mode="normal" solid-color="#000000" white-space="normal" shape-padding="0" isolation="auto"/><path d="m121.82 64.69c-.03 0 .33.309.33.378 0 .107-.26.382-.33.382-.08 0-.33-.272-.33-.382 0-.099.25-.378.33-.378" mix-blend-mode="normal" solid-color="#000000" white-space="normal" shape-padding="0" isolation="auto"/></g><path d="m78.4 0c-21.05 0-38.789 14.03-44.516 33.24-.294.101-.582.213-.867.334-1.01-.561-2.106-.95-3.273-.952h-15.1c-3.01 0-5.921 1.129-8.168 2.954-2.307 1.87-4 4.606-4.521 7.629l-.012-.002-1.762 10.1h-.002c-.004.026-.007.052-.011.078-.101.62-.17 1.292-.17 2 0 2.845 1.122 5.849 3.319 7.961 2.134 2.052 5.04 3.066 7.793 3.067l15.04.048h.004c.567 0 1.118-.146 1.666-.285.465.101.93.206 1.407.208h.009c2.259 0 4.398-.812 6.337-1.962 7.03 16.777 23.511 28.612 42.821 28.612 18.1 0 33.789-10.352 41.479-25.46.56.436 1.22.744 1.94.744 1.46 0 2.82-1.119 3.15-2.621 1.23.421 2.51.687 3.76.687 1.72 0 3.22-.812 4.47-1.941 1.85 1.18 3.94 1.941 6.02 1.941h12.59c3.24 0 6.06-2.295 6.72-5.47.19-.943.22-1.75.22-2.284 0-2.75-1.02-5.743-3.21-7.888l-.0001-.008c-2-1.954-4.7-2.865-7.27-2.985l.39-2.117c.02-.114.04-.224.06-.337v-.004c.09-.724.11-1.353.11-1.85 0-2.825-1.11-5.777-3.24-7.861l-.02-.015c-2.11-2.05-5.02-3.085-7.77-3.085-1.74.002-3.25.83-4.5 1.976-1.85-1.194-3.94-1.976-6.06-1.976h-4.57c-5.97-18.812-23.495-32.476-44.26-32.476" fill="#fff" mix-blend-mode="normal" solid-color="#000000" white-space="normal" shape-padding="0" isolation="auto"/></g><path d="m123.11 46.52c0 24.686-20.02 44.699-44.711 44.699s-44.704-20.01-44.704-44.699c0-24.694 20.01-44.709 44.704-44.709 24.691 0 44.711 20.02 44.711 44.709"/><path d="m38.779 46.519c0 21.916 17.771 39.686 39.689 39.686 21.922 0 39.692-17.77 39.692-39.686 0-21.921-17.77-39.689-39.692-39.689-21.918 0-39.689 17.768-39.689 39.689" fill="url(#6)"/><path d="m23.802 44.48h-7.626c-.682 0-1.306.246-1.889.729-.567.481-.912 1.061-1.027 1.749l-.899 5.153c-.12.698.008 1.275.381 1.756.377.492.907.729 1.589.729h7.71c1.199 0 2.216.382 3.01 1.14.805.763 1.202 1.751 1.202 2.948 0 .295-.026.596-.078.912l-15.06-.047c-1.234 0-2.253-.387-3.047-1.153-.808-.776-1.21-1.779-1.21-3.02 0-.282.026-.578.078-.899l1.764-10.1c.233-1.38.928-2.537 2.093-3.481 1.163-.946 2.444-1.421 3.85-1.421h15.1c-.225 1.385-.925 2.576-2.086 3.562-1.16.982-2.446 1.468-3.852 1.442"/><path stroke-linejoin="round" d="m23.802 44.48h-7.626c-.682 0-1.306.246-1.889.729-.567.481-.912 1.061-1.027 1.749l-.899 5.153c-.12.698.008 1.275.381 1.756.377.492.907.729 1.589.729h7.71c1.199 0 2.216.382 3.01 1.14.805.763 1.202 1.751 1.202 2.948 0 .295-.026.596-.078.912l-15.06-.047c-1.234 0-2.253-.387-3.047-1.153-.808-.776-1.21-1.779-1.21-3.02 0-.282.026-.578.078-.899l1.764-10.1c.233-1.38.928-2.537 2.093-3.481 1.163-.946 2.444-1.421 3.85-1.421h15.1c-.225 1.385-.925 2.576-2.086 3.562-1.16.982-2.446 1.468-3.852 1.442z" stroke="#000" stroke-linecap="round" stroke-width="10.1" fill="none"/><path d="m46.798 45.702c.055-.379-.029-.698-.246-.954-.214-.262-.507-.39-.88-.39h-7.443c-.889 0-1.422.447-1.589 1.344-.06.373.026.687.232.946.217.256.518.394.878.394h7.443c.891 0 1.417-.449 1.605-1.34m5.37-1.286l-2.673 15.1c-1.228 0-2.263-.384-3.094-1.16-.829-.777-1.25-1.78-1.25-3.01 0-.282.034-.588.092-.896.112-.672-.026-1.244-.426-1.73-.405-.489-.951-.727-1.644-.727h-5.153c-.698 0-1.331.23-1.898.703-.575.479-.912 1.054-1.027 1.754-.266 1.432-.943 2.632-2.043 3.612-1.106.975-2.381 1.458-3.811 1.458l2.669-15.1c.253-1.383.959-2.567 2.101-3.575 1.152-1.01 2.428-1.506 3.828-1.506h10.156c1.236 0 2.239.398 3.03 1.187.792.786 1.184 1.8 1.184 3.037 0 .394-.014.684-.04.857"/><path stroke-linejoin="round" d="m46.798 45.702c.055-.379-.029-.698-.246-.954-.214-.262-.507-.39-.88-.39h-7.443c-.889 0-1.422.447-1.589 1.344-.06.373.026.687.232.946.217.256.518.394.878.394h7.443c.891 0 1.417-.449 1.605-1.34zm5.37-1.286l-2.673 15.11c-1.228 0-2.263-.384-3.094-1.16-.829-.777-1.25-1.78-1.25-3.01 0-.282.034-.588.092-.896.112-.672-.026-1.244-.426-1.73-.405-.489-.951-.727-1.644-.727h-5.153c-.698 0-1.331.23-1.898.703-.575.479-.912 1.054-1.027 1.754-.266 1.432-.943 2.632-2.043 3.612-1.106.975-2.381 1.458-3.811 1.458l2.669-15.1c.253-1.383.959-2.567 2.101-3.575 1.152-1.01 2.428-1.506 3.828-1.506h10.156c1.236 0 2.239.398 3.03 1.187.792.786 1.184 1.8 1.184 3.037 0 .394-.014.684-.04.857z" stroke="#000" stroke-linecap="round" stroke-width="10.1" fill="none"/><use xlink:href="#2"/><use stroke-linejoin="round" stroke="#000" stroke-linecap="round" stroke-width="10.1" fill="none" xlink:href="#2"/><path d="m80.81 44.42c.258-1.44.94-2.645 2.041-3.622 1.1-.972 2.378-1.466 3.815-1.466l-2.665 15.15c-.267 1.406-.954 2.598-2.068 3.573-1.118.974-2.375 1.466-3.779 1.466z" id="0"/><use stroke-linejoin="round" stroke="#000" stroke-linecap="round" stroke-width="10.1" fill="none" xlink:href="#3"/><path d="m93.32 44.42c-1.236 0-2.234-.366-3.02-1.121-.771-.737-1.158-1.733-1.158-2.966 0-.285.027-.586.081-.907h20.261c-.26 1.382-.97 2.558-2.17 3.531-1.18.977-2.48 1.463-3.88 1.463-.69 0-1.32.28-1.89.821-.57.535-.93 1.157-1.03 1.845l-2.243 12.505h-5.13l2.2-12.505c.107-.688-.031-1.31-.415-1.845-.384-.539-.925-.821-1.61-.821"/><path stroke-linejoin="round" d="m93.32 44.42c-1.236 0-2.234-.366-3.02-1.121-.771-.737-1.158-1.733-1.158-2.966 0-.285.027-.586.081-.907h20.261c-.26 1.382-.97 2.558-2.17 3.531-1.18.977-2.48 1.463-3.88 1.463-.69 0-1.32.28-1.89.821-.57.535-.93 1.157-1.03 1.845l-2.243 12.505h-5.13l2.2-12.505c.107-.688-.031-1.31-.415-1.845-.384-.539-.925-.821-1.61-.821z" stroke="#000" stroke-linecap="round" stroke-width="10.1" fill="none"/><path d="m126.02 45.702c.06-.379-.02-.698-.23-.954-.21-.262-.52-.39-.89-.39h-7.44c-.88 0-1.42.447-1.59 1.344-.05.373.03.687.24.946.21.256.51.394.88.394h7.44c.89 0 1.42-.449 1.59-1.34m5.38-1.286l-2.67 15.1c-1.23 0-2.27-.384-3.09-1.16-.84-.777-1.25-1.78-1.25-3.01 0-.282.02-.588.09-.896.11-.672-.03-1.244-.43-1.73-.41-.489-.95-.727-1.65-.727h-5.15c-.69 0-1.32.23-1.89.703-.57.479-.92 1.054-1.04 1.754-.26 1.432-.94 2.632-2.04 3.612-1.11.975-2.37 1.458-3.8 1.458l2.66-15.1c.26-1.383.96-2.567 2.11-3.575 1.14-1.01 2.42-1.506 3.82-1.506h10.16c1.23 0 2.24.398 3.03 1.187.8.786 1.19 1.8 1.19 3.037 0 .394-.02.684-.05.857"/><path stroke-linejoin="round" d="m126.02 45.702c.06-.379-.02-.698-.23-.954-.21-.262-.52-.39-.89-.39h-7.44c-.88 0-1.42.447-1.59 1.344-.05.373.03.687.24.946.21.256.51.394.88.394h7.44c.89 0 1.42-.449 1.59-1.34zm5.38-1.286l-2.67 15.11c-1.23 0-2.27-.384-3.09-1.16-.84-.777-1.25-1.78-1.25-3.01 0-.282.02-.588.09-.896.11-.672-.03-1.244-.43-1.73-.41-.489-.95-.727-1.65-.727h-5.15c-.69 0-1.32.23-1.89.703-.57.479-.92 1.054-1.04 1.754-.26 1.432-.94 2.632-2.04 3.612-1.11.975-2.37 1.458-3.8 1.458l2.66-15.1c.26-1.383.96-2.567 2.11-3.575 1.14-1.01 2.42-1.506 3.82-1.506h10.16c1.23 0 2.24.398 3.03 1.187.8.786 1.19 1.8 1.19 3.037 0 .394-.02.684-.05.857z" stroke="#000" stroke-linecap="round" stroke-width="10.1" fill="none"/><path d="m151.81 59.52h-12.6c-1.21 0-2.2-.374-2.99-1.145-.79-.755-1.18-1.738-1.18-2.94 0-.316.02-.635.08-.951l2.67-15.15c1.21 0 2.2.381 2.99 1.147.78.763 1.18 1.746 1.18 2.953 0 .317-.001.635-.05.952l-1.37 7.429c-.11.701.03 1.315.41 1.861.39.549.92.828 1.61.828h5.17c1.23 0 2.23.374 3.01 1.132.77.761 1.15 1.756 1.15 2.987 0 .282-.001.58-.08.897"/><path stroke-linejoin="round" d="m151.81 59.52h-12.6c-1.21 0-2.2-.374-2.99-1.145-.79-.755-1.18-1.738-1.18-2.94 0-.316.02-.635.08-.951l2.67-15.15c1.21 0 2.2.381 2.99 1.147.78.763 1.18 1.746 1.18 2.953 0 .317-.001.635-.05.952l-1.37 7.429c-.11.701.03 1.315.41 1.861.39.549.92.828 1.61.828h5.17c1.23 0 2.23.374 3.01 1.132.77.761 1.15 1.756 1.15 2.987 0 .282-.001.58-.08.897z" stroke="#000" stroke-linecap="round" stroke-width="10.1" fill="none"/><path d="m23.802 44.48h-7.626c-.682 0-1.306.246-1.889.729-.567.481-.912 1.061-1.027 1.749l-.899 5.153c-.12.698.008 1.275.381 1.756.377.492.907.729 1.589.729h7.71c1.199 0 2.216.382 3.01 1.14.805.763 1.202 1.751 1.202 2.948 0 .295-.026.596-.078.912l-15.06-.047c-1.234 0-2.253-.387-3.047-1.153-.808-.776-1.21-1.779-1.21-3.02 0-.282.026-.578.078-.899l1.764-10.1c.233-1.38.928-2.537 2.093-3.481 1.163-.946 2.444-1.421 3.85-1.421h15.1c-.225 1.385-.925 2.576-2.086 3.562-1.16.982-2.446 1.468-3.852 1.442" fill="#fff"/><path stroke-linejoin="round" d="m23.802 44.48h-7.626c-.682 0-1.306.246-1.889.729-.567.481-.912 1.061-1.027 1.749l-.899 5.153c-.12.698.008 1.275.381 1.756.377.492.907.729 1.589.729h7.71c1.199 0 2.216.382 3.01 1.14.805.763 1.202 1.751 1.202 2.948 0 .295-.026.596-.078.912l-15.06-.047c-1.234 0-2.253-.387-3.047-1.153-.808-.776-1.21-1.779-1.21-3.02 0-.282.026-.578.078-.899l1.764-10.1c.233-1.38.928-2.537 2.093-3.481 1.163-.946 2.444-1.421 3.85-1.421h15.1c-.225 1.385-.925 2.576-2.086 3.562-1.16.982-2.446 1.468-3.852 1.442z" stroke="#fff" stroke-linecap="round" stroke-width=".45" fill="none"/><path d="m46.798 45.702c.055-.379-.029-.698-.246-.954-.214-.262-.507-.39-.88-.39h-7.443c-.889 0-1.422.447-1.589 1.344-.06.373.026.687.232.946.217.256.518.394.878.394h7.443c.891 0 1.417-.449 1.605-1.34m5.37-1.286l-2.673 15.1c-1.228 0-2.263-.384-3.094-1.16-.829-.777-1.25-1.78-1.25-3.01 0-.282.034-.588.092-.896.112-.672-.026-1.244-.426-1.73-.405-.489-.951-.727-1.644-.727h-5.153c-.698 0-1.331.23-1.898.703-.575.479-.912 1.054-1.027 1.754-.266 1.432-.943 2.632-2.043 3.612-1.106.975-2.381 1.458-3.811 1.458l2.669-15.1c.253-1.383.959-2.567 2.101-3.575 1.152-1.01 2.428-1.506 3.828-1.506h10.156c1.236 0 2.239.398 3.03 1.187.792.786 1.184 1.8 1.184 3.037 0 .394-.014.684-.04.857" fill="#fff"/><path stroke-linejoin="round" d="m46.798 45.702c.055-.379-.029-.698-.246-.954-.214-.262-.507-.39-.88-.39h-7.443c-.889 0-1.422.447-1.589 1.344-.06.373.026.687.232.946.217.256.518.394.878.394h7.443c.891 0 1.417-.449 1.605-1.34zm5.37-1.286l-2.673 15.11c-1.228 0-2.263-.384-3.094-1.16-.829-.777-1.25-1.78-1.25-3.01 0-.282.034-.588.092-.896.112-.672-.026-1.244-.426-1.73-.405-.489-.951-.727-1.644-.727h-5.153c-.698 0-1.331.23-1.898.703-.575.479-.912 1.054-1.027 1.754-.266 1.432-.943 2.632-2.043 3.612-1.106.975-2.381 1.458-3.811 1.458l2.669-15.1c.253-1.383.959-2.567 2.101-3.575 1.152-1.01 2.428-1.506 3.828-1.506h10.156c1.236 0 2.239.398 3.03 1.187.792.786 1.184 1.8 1.184 3.037 0 .394-.014.684-.04.857z" stroke="#fff" stroke-linecap="round" stroke-width=".45" fill="none"/><use fill="#fff" xlink:href="#2"/><use stroke-linejoin="round" stroke="#fff" stroke-linecap="round" stroke-width=".45" fill="none" xlink:href="#2"/><use fill="#fff" xlink:href="#3"/><use stroke-linejoin="round" stroke="#fff" stroke-linecap="round" stroke-width=".45" fill="none" xlink:href="#3"/><path d="m93.32 44.42c-1.236 0-2.234-.366-3.02-1.121-.771-.737-1.158-1.733-1.158-2.966 0-.285.027-.586.081-.907h20.261c-.26 1.382-.97 2.558-2.17 3.531-1.18.977-2.48 1.463-3.88 1.463-.69 0-1.32.28-1.89.821-.57.535-.93 1.157-1.03 1.845l-2.243 12.505h-5.13l2.2-12.505c.107-.688-.031-1.31-.415-1.845-.384-.539-.925-.821-1.61-.821" fill="#fff"/><path stroke-linejoin="round" d="m93.32 44.42c-1.236 0-2.234-.366-3.02-1.121-.771-.737-1.158-1.733-1.158-2.966 0-.285.027-.586.081-.907h20.261c-.26 1.382-.97 2.558-2.17 3.531-1.18.977-2.48 1.463-3.88 1.463-.69 0-1.32.28-1.89.821-.57.535-.93 1.157-1.03 1.845l-2.243 12.505h-5.13l2.2-12.505c.107-.688-.031-1.31-.415-1.845-.384-.539-.925-.821-1.61-.821z" stroke="#fff" stroke-linecap="round" stroke-width=".45" fill="none"/><path d="m126.02 45.702c.06-.379-.02-.698-.23-.954-.21-.262-.52-.39-.89-.39h-7.44c-.88 0-1.42.447-1.59 1.344-.05.373.03.687.24.946.21.256.51.394.88.394h7.44c.89 0 1.42-.449 1.59-1.34m5.38-1.286l-2.67 15.1c-1.23 0-2.27-.384-3.09-1.16-.84-.777-1.25-1.78-1.25-3.01 0-.282.02-.588.09-.896.11-.672-.03-1.244-.43-1.73-.41-.489-.95-.727-1.65-.727h-5.15c-.69 0-1.32.23-1.89.703-.57.479-.92 1.054-1.04 1.754-.26 1.432-.94 2.632-2.04 3.612-1.11.975-2.37 1.458-3.8 1.458l2.66-15.1c.26-1.383.96-2.567 2.11-3.575 1.14-1.01 2.42-1.506 3.82-1.506h10.16c1.23 0 2.24.398 3.03 1.187.8.786 1.19 1.8 1.19 3.037 0 .394-.02.684-.05.857" fill="#fff"/><path stroke-linejoin="round" d="m126.02 45.702c.06-.379-.02-.698-.23-.954-.21-.262-.52-.39-.89-.39h-7.44c-.88 0-1.42.447-1.59 1.344-.05.373.03.687.24.946.21.256.51.394.88.394h7.44c.89 0 1.42-.449 1.59-1.34zm5.38-1.286l-2.67 15.11c-1.23 0-2.27-.384-3.09-1.16-.84-.777-1.25-1.78-1.25-3.01 0-.282.02-.588.09-.896.11-.672-.03-1.244-.43-1.73-.41-.489-.95-.727-1.65-.727h-5.15c-.69 0-1.32.23-1.89.703-.57.479-.92 1.054-1.04 1.754-.26 1.432-.94 2.632-2.04 3.612-1.11.975-2.37 1.458-3.8 1.458l2.66-15.1c.26-1.383.96-2.567 2.11-3.575 1.14-1.01 2.42-1.506 3.82-1.506h10.16c1.23 0 2.24.398 3.03 1.187.8.786 1.19 1.8 1.19 3.037 0 .394-.02.684-.05.857z" stroke="#fff" stroke-linecap="round" stroke-width=".45" fill="none"/><path d="m151.81 59.52h-12.6c-1.21 0-2.2-.374-2.99-1.145-.79-.755-1.18-1.738-1.18-2.94 0-.316.02-.635.08-.951l2.67-15.15c1.21 0 2.2.381 2.99 1.147.78.763 1.18 1.746 1.18 2.953 0 .317-.001.635-.05.952l-1.37 7.429c-.11.701.03 1.315.41 1.861.39.549.92.828 1.61.828h5.17c1.23 0 2.23.374 3.01 1.132.77.761 1.15 1.756 1.15 2.987 0 .282-.001.58-.08.897" fill="#fff"/><path stroke-linejoin="round" d="m151.81 59.52h-12.6c-1.21 0-2.2-.374-2.99-1.145-.79-.755-1.18-1.738-1.18-2.94 0-.316.02-.635.08-.951l2.67-15.15c1.21 0 2.2.381 2.99 1.147.78.763 1.18 1.746 1.18 2.953 0 .317-.001.635-.05.952l-1.37 7.429c-.11.701.03 1.315.41 1.861.39.549.92.828 1.61.828h5.17c1.23 0 2.23.374 3.01 1.132.77.761 1.15 1.756 1.15 2.987 0 .282-.001.58-.08.897z" stroke="#fff" stroke-linecap="round" stroke-width=".45" fill="none"/><path d="m27.993 52.23h-11.781v-5.104h11.781z"/><path d="m25.632 64.65s4.254-.016 4.774-.144c.518-.123-.345-.413-.345-.413l-2.32-.143-1.78-.058-.308.481z"/><path d="m49.19 64.57c.687.078 3.729.112 5.117-.013 1.393-.118-.013-.442-.013-.442l-2.491-.564-1.539.256-1.215.408s-.084.321.141.355"/><path d="m86.13 34.3c1.21-.065 5.807.079 6.921.089.629.003-2.987.525-2.987.525s-.946.194-1.022.194c-.092 0-2.29.35-2.29.35l-1.497-.139-1.132-.407s.798-.544 2.01-.612"/><path d="m121.83 64.993c.21 0 .39-.023.39-.256 0-.188-.2-.206-.36-.206h-.34v.462zm-.31.902h-.28v-1.586h.64c.4 0 .6.128.6.462 0 .277-.18.397-.42.429l.46.695h-.31l-.43-.677h-.26zm.3-2.01c-.66 0-1.16.491-1.16 1.184 0 .658.44 1.186 1.16 1.186.65 0 1.15-.483 1.15-1.186 0-.693-.5-1.184-1.15-1.184m0 2.616c-.87 0-1.48-.609-1.48-1.432 0-.857.68-1.43 1.48-1.43.79 0 1.48.573 1.48 1.43 0 .862-.69 1.432-1.48 1.432"/><path d="m74.33 22.828c.021-.123-.008-.217-.073-.303-.071-.081-.17-.123-.293-.123l-2.388.013c-.293.003-.46.149-.512.429-.014.122.015.224.086.311.065.078.159.117.274.117l2.397-.001c.284 0 .454-.141.509-.434m1.722-.41l-.831 4.86c-.397 0-.734-.122-.995-.376-.269-.251-.413-.567-.413-.969 0-.092.001-.186.031-.288.039-.222-.008-.402-.146-.557-.12-.154-.303-.232-.525-.232l-1.65.002c-.227 0-.426.079-.616.233-.186.152-.29.34-.332.57-.076.46-.288.846-.651 1.171-.35.31-.758.473-1.218.473l.837-4.861c.078-.447.308-.826.671-1.155.369-.322.776-.481 1.234-.487l3.264-.013c.394-.005.718.123.972.372.253.253.379.58.381.98 0 .122-.002.216-.013.277"/><path stroke-linejoin="round" d="m74.33 22.828c.021-.123-.008-.217-.073-.303-.071-.081-.17-.123-.293-.123l-2.388.013c-.293.003-.46.149-.512.429-.014.122.015.224.086.311.065.078.159.117.274.117l2.397-.001c.284 0 .454-.141.509-.434zm1.722-.41l-.831 4.86c-.397 0-.734-.122-.995-.376-.269-.251-.413-.567-.413-.969 0-.092.001-.186.031-.288.039-.222-.008-.402-.146-.557-.12-.154-.303-.232-.525-.232l-1.65.002c-.227 0-.426.079-.616.233-.186.152-.29.34-.332.57-.076.46-.288.846-.651 1.171-.35.31-.758.473-1.218.473l.837-4.861c.078-.447.308-.826.671-1.155.369-.322.776-.481 1.234-.487l3.264-.013c.394-.005.718.123.972.372.253.253.379.58.381.98 0 .122-.002.216-.013.277z" stroke="#000" stroke-linecap="round" stroke-width="3.917" fill="none"/><use xlink:href="#4"/><use stroke-linejoin="round" stroke="#000" stroke-linecap="round" stroke-width="3.917" fill="none" xlink:href="#4"/><path d="m86.65 22.369c.081-.468.298-.852.656-1.163.356-.308.761-.47 1.223-.478l-.841 4.869c-.076.46-.293.852-.654 1.163-.355.308-.765.47-1.217.473z" id="1"/><use stroke-linejoin="round" stroke="#000" stroke-linecap="round" stroke-width="3.917" fill="none" xlink:href="#5"/><path d="m91.51 23.19l-.28 1.539c-.034.225.003.426.125.606.118.173.293.262.534.262l1.651-.008c.23 0 .434-.087.609-.267.167-.167.272-.374.322-.614l.269-1.529c.039-.227-.005-.421-.128-.593-.118-.178-.293-.272-.526-.272l-1.646.008c-.225 0-.431.094-.601.267-.18.169-.282.371-.329.601m-2.02 2.396l.551-3.235c.081-.442.311-.821.674-1.148.371-.321.782-.488 1.231-.491l3.262-.013c.397 0 .729.128.982.374.248.258.374.583.374.985.008.12-.003.214-.013.264l-.565 3.243c-.075.457-.3.842-.661 1.15-.353.324-.766.491-1.226.491l-3.251.006c-.386 0-.726-.126-.982-.377-.269-.251-.397-.575-.405-.977 0-.081.013-.175.029-.272"/><path stroke-linejoin="round" d="m91.51 23.19l-.28 1.539c-.034.225.003.426.125.606.118.173.293.262.534.262l1.651-.008c.23 0 .434-.087.609-.267.167-.167.272-.374.322-.614l.269-1.529c.039-.227-.005-.421-.128-.593-.118-.178-.293-.272-.526-.272l-1.646.008c-.225 0-.431.094-.601.267-.18.169-.282.371-.329.601zm-2.02 2.396l.551-3.235c.081-.442.311-.821.674-1.148.371-.321.782-.488 1.231-.491l3.262-.013c.397 0 .729.128.982.374.248.258.374.583.374.985.008.12-.003.214-.013.264l-.565 3.243c-.075.457-.3.842-.661 1.15-.353.324-.766.491-1.226.491l-3.251.006c-.386 0-.726-.126-.982-.377-.269-.251-.397-.575-.405-.977 0-.081.013-.175.029-.272z" stroke="#000" stroke-linecap="round" stroke-width="3.917" fill="none"/><path d="m67.46 21.2c-.259-.256-.588-.379-.983-.379l-4.884.019c-.016.101-.019.193-.019.287 0 .384.128.695.398.951.253.243.58.364.972.364l2.791-.008c.285-.006.408.143.361.426-.042.29-.21.433-.51.441l-2.815.003c-.457.003-.859.152-1.223.449-.366.293-.582.664-.658 1.108l-.411 2.467c.437-.013.839-.167 1.205-.488.228-.194.439-.565.661-1.137.045-.225.152-.429.343-.598.115-.115.245-.129.373-.168l.236.23 1.319 1.592c.369.449.892.671 1.555.671h1.336l-2.154-2.605h.395c.457 0 .881-.157 1.262-.452.384-.298.612-.68.677-1.132l.131-.799c.015-.058.015-.147.015-.275 0-.397-.12-.721-.373-.967"/><path stroke-linejoin="round" d="m67.46 21.2c-.259-.256-.588-.379-.983-.379l-4.884.019c-.016.101-.019.193-.019.287 0 .384.128.695.398.951.253.243.58.364.972.364l2.791-.008c.285-.006.408.143.361.426-.042.29-.21.433-.51.441l-2.815.003c-.457.003-.859.152-1.223.449-.366.293-.582.664-.658 1.108l-.411 2.467c.437-.013.839-.167 1.205-.488.228-.194.439-.565.661-1.137.045-.225.152-.429.343-.598.115-.115.245-.129.373-.168l.236.23 1.319 1.592c.369.449.892.671 1.555.671h1.336l-2.154-2.605h.395c.457 0 .881-.157 1.262-.452.384-.298.612-.68.677-1.132l.131-.799c.015-.058.015-.147.015-.275 0-.397-.12-.721-.373-.967z" stroke="#000" stroke-linecap="round" stroke-width="3.917" fill="none"/><path d="m74.33 22.828c.021-.123-.008-.217-.073-.303-.071-.081-.17-.123-.293-.123l-2.388.013c-.293.003-.46.149-.512.429-.014.122.015.224.086.311.065.078.159.117.274.117l2.397-.001c.284 0 .454-.141.509-.434m1.722-.41l-.831 4.86c-.397 0-.734-.122-.995-.376-.269-.251-.413-.567-.413-.969 0-.092.001-.186.031-.288.039-.222-.008-.402-.146-.557-.12-.154-.303-.232-.525-.232l-1.65.002c-.227 0-.426.079-.616.233-.186.152-.29.34-.332.57-.076.46-.288.846-.651 1.171-.35.31-.758.473-1.218.473l.837-4.861c.078-.447.308-.826.671-1.155.369-.322.776-.481 1.234-.487l3.264-.013c.394-.005.718.123.972.372.253.253.379.58.381.98 0 .122-.002.216-.013.277" fill="#fff"/><path stroke-linejoin="round" d="m74.33 22.828c.021-.123-.008-.217-.073-.303-.071-.081-.17-.123-.293-.123l-2.388.013c-.293.003-.46.149-.512.429-.014.122.015.224.086.311.065.078.159.117.274.117l2.397-.001c.284 0 .454-.141.509-.434zm1.722-.41l-.831 4.86c-.397 0-.734-.122-.995-.376-.269-.251-.413-.567-.413-.969 0-.092.001-.186.031-.288.039-.222-.008-.402-.146-.557-.12-.154-.303-.232-.525-.232l-1.65.002c-.227 0-.426.079-.616.233-.186.152-.29.34-.332.57-.076.46-.288.846-.651 1.171-.35.31-.758.473-1.218.473l.837-4.861c.078-.447.308-.826.671-1.155.369-.322.776-.481 1.234-.487l3.264-.013c.394-.005.718.123.972.372.253.253.379.58.381.98 0 .122-.002.216-.013.277z" stroke="#fff" stroke-linecap="round" stroke-width=".154" fill="none"/><use fill="#fff" xlink:href="#4"/><use stroke-linejoin="round" stroke="#fff" stroke-linecap="round" stroke-width=".154" fill="none" xlink:href="#4"/><use fill="#fff" xlink:href="#5"/><use stroke-linejoin="round" stroke="#fff" stroke-linecap="round" stroke-width=".154" fill="none" xlink:href="#5"/><path d="m91.51 23.19l-.28 1.539c-.034.225.003.426.125.606.118.173.293.262.534.262l1.651-.008c.23 0 .434-.087.609-.267.167-.167.272-.374.322-.614l.269-1.529c.039-.227-.005-.421-.128-.593-.118-.178-.293-.272-.526-.272l-1.646.008c-.225 0-.431.094-.601.267-.18.169-.282.371-.329.601m-2.02 2.396l.551-3.235c.081-.442.311-.821.674-1.148.371-.321.782-.488 1.231-.491l3.262-.013c.397 0 .729.128.982.374.248.258.374.583.374.985.008.12-.003.214-.013.264l-.565 3.243c-.075.457-.3.842-.661 1.15-.353.324-.766.491-1.226.491l-3.251.006c-.386 0-.726-.126-.982-.377-.269-.251-.397-.575-.405-.977 0-.081.013-.175.029-.272" fill="#fff"/><path stroke-linejoin="round" d="m91.51 23.19l-.28 1.539c-.034.225.003.426.125.606.118.173.293.262.534.262l1.651-.008c.23 0 .434-.087.609-.267.167-.167.272-.374.322-.614l.269-1.529c.039-.227-.005-.421-.128-.593-.118-.178-.293-.272-.526-.272l-1.646.008c-.225 0-.431.094-.601.267-.18.169-.282.371-.329.601zm-2.02 2.396l.551-3.235c.081-.442.311-.821.674-1.148.371-.321.782-.488 1.231-.491l3.262-.013c.397 0 .729.128.982.374.248.258.374.583.374.985.008.12-.003.214-.013.264l-.565 3.243c-.075.457-.3.842-.661 1.15-.353.324-.766.491-1.226.491l-3.251.006c-.386 0-.726-.126-.982-.377-.269-.251-.397-.575-.405-.977 0-.081.013-.175.029-.272z" stroke="#fff" stroke-linecap="round" stroke-width=".154" fill="none"/><path d="m67.46 21.2c-.259-.256-.588-.379-.983-.379l-4.884.019c-.016.101-.019.193-.019.287 0 .384.128.695.398.951.253.243.58.364.972.364l2.791-.008c.285-.006.408.143.361.426-.042.29-.21.433-.51.441l-2.815.003c-.457.003-.859.152-1.223.449-.366.293-.582.664-.658 1.108l-.411 2.467c.437-.013.839-.167 1.205-.488.228-.194.439-.565.661-1.137.045-.225.152-.429.343-.598.115-.115.245-.129.373-.168l.236.23 1.319 1.592c.369.449.892.671 1.555.671h1.336l-2.154-2.605h.395c.457 0 .881-.157 1.262-.452.384-.298.612-.68.677-1.132l.131-.799c.015-.058.015-.147.015-.275 0-.397-.12-.721-.373-.967" fill="#fff"/><path stroke-linejoin="round" d="m67.46 21.2c-.259-.256-.588-.379-.983-.379l-4.884.019c-.016.101-.019.193-.019.287 0 .384.128.695.398.951.253.243.58.364.972.364l2.791-.008c.285-.006.408.143.361.426-.042.29-.21.433-.51.441l-2.815.003c-.457.003-.859.152-1.223.449-.366.293-.582.664-.658 1.108l-.411 2.467c.437-.013.839-.167 1.205-.488.228-.194.439-.565.661-1.137.045-.225.152-.429.343-.598.115-.115.245-.129.373-.168l.236.23 1.319 1.592c.369.449.892.671 1.555.671h1.336l-2.154-2.605h.395c.457 0 .881-.157 1.262-.452.384-.298.612-.68.677-1.132l.131-.799c.015-.058.015-.147.015-.275 0-.397-.12-.721-.373-.967z" stroke="#fff" stroke-linecap="round" stroke-width=".154" fill="none"/></svg>