<svg xmlns="http://www.w3.org/2000/svg" width="600" height="309.6" viewBox="0 0 480 247.68001"><g transform="scale(1.4816)"><g fill="#0146ab"><path d="m0 0h323.97c0 55.723 0 111.45 0 167.17h-323.97v-167.17m166.99 6.697c.018 51.22.003 102.44.008 153.66 50.1-.008 100.2.021 150.3-.016-.015-51.22 0-102.44-.008-153.66-50.1.008-100.2-.021-150.3.016m-22.24 38.02c-2.491.56-4.619 2.276-5.938 4.427-1.26 2.066-1.555 4.634-1.01 6.969.591 2.46 2.26 4.575 4.357 5.946 2.175 1.407 4.966 1.716 7.433.985 2.18-.658 4.02-2.208 5.251-4.098 1.498-2.294 1.822-5.251 1.073-7.863-.627-2.175-2.151-4.03-4.04-5.233-2.089-1.337-4.727-1.661-7.125-1.133m-130.06 5.184c-.003 23.06 0 46.13-.003 69.2 6.01.005 12.01.008 18.01 0 .003-8.96-.003-17.922.003-26.882 5.749 8.957 11.495 17.92 17.235 26.882 7.444.005 14.885.008 22.328 0-7.182-9.421-14.382-18.829-21.566-28.25 4.453-.915 8.703-3.229 11.482-6.884 2.54-3.216 3.641-7.345 3.756-11.394.184-4.792-.669-9.794-3.351-13.856-2.623-3.978-6.902-6.767-11.536-7.794-4.331-.967-8.794-.982-13.21-1.019-7.716-.003-15.434-.003-23.15 0m71.1 22.922c-4.219 2.211-7.254 6.114-9.499 10.225-3.328 6.13-4.098 13.534-2.273 20.25 1.083 3.945 3.271 7.529 6.04 10.51 2.177 2.26 4.898 3.942 7.773 5.171 3.686 1.521 7.755 2.317 11.733 1.752 2.46-.332 4.699-1.485 6.871-2.623 2.112-1.13 3.927-2.807 5.163-4.867-.001 1.949-.003 3.895-.003 5.842 5.479.003 10.961.003 16.44 0 .003-15.73.005-31.462 0-47.19-5.482 0-10.963-.005-16.442.003.003 1.718-.005 3.434.005 5.152-.827-1.203-1.819-2.309-3.045-3.115-2.257-1.47-4.735-2.701-7.428-3.087-5.145-.79-10.657-.472-15.338 1.983m52.805-.814c-.003 15.732-.003 31.462 0 47.19 5.57.003 11.14.003 16.709 0 .003-15.732.003-31.462 0-47.19-5.57-.003-11.14-.003-16.709 0z"/><path d="m234.28 26.784c8.589.008 17.18-.021 25.768.013-.016 37.33-.003 74.67-.005 112.01-9.07.008-18.13.003-27.2.003-.003-24.892 0-49.783 0-74.67-7.156-.001-14.314 0-21.47-.005-.005-5.264 0-10.528-.003-15.794 5.484.018 11.129-1.524 15.372-5.114 4.81-3.989 7.524-10.225 7.537-16.437"/><path d="m32.706 63.48c3.271.067 6.718-.321 9.802 1.026 2.195 1 3.945 3.048 4.354 5.458.35 2.01.352 4.147-.397 6.06-.853 2.151-2.892 3.613-5.04 4.295-2.817.886-5.806.658-8.716.692-.005-5.844-.003-11.692 0-17.536"/><path d="m99.4 84.938c3.123-.417 6.495.363 8.939 2.4 1.376 1.314 2.493 2.96 3.01 4.805.505 1.895.477 3.888.316 5.829-.244 2.981-2.273 5.673-4.943 6.951-1.822.897-3.849 1.415-5.886 1.381-3.95-.132-7.726-2.566-9.476-6.114-.622-1.34-.749-2.841-.765-4.297-.016-1.638.049-3.325.689-4.854 1.436-3.245 4.58-5.66 8.117-6.101"/></g><g fill="#fff"><path d="m166.99 6.697c50.1-.036 100.2-.008 150.3-.016.008 51.22-.008 102.44.008 153.66-50.1.036-100.2.008-150.3.016-.005-51.22.001-102.44-.008-153.66m67.29 20.09c-.013 6.213-2.727 12.448-7.537 16.437-4.243 3.59-9.888 5.132-15.372 5.114.003 5.267-.003 10.53.003 15.794 7.156.005 14.314-.005 21.47.005 0 24.889-.003 49.781 0 74.67 9.07 0 18.13.005 27.2-.003.003-37.33-.001-74.67.005-112.01-8.589-.034-17.18-.005-25.768-.013z"/><path d="m144.75 44.719c2.397-.529 5.04-.205 7.125 1.133 1.892 1.208 3.416 3.058 4.04 5.233.749 2.613.425 5.57-1.073 7.863-1.234 1.889-3.071 3.439-5.251 4.098-2.467.731-5.259.422-7.433-.985-2.097-1.371-3.766-3.486-4.357-5.946-.547-2.335-.251-4.904 1.01-6.969 1.319-2.151 3.447-3.867 5.938-4.427"/><path d="m14.693 49.902c7.716-.003 15.434-.003 23.15 0 4.416.036 8.879.052 13.21 1.019 4.634 1.026 8.913 3.815 11.536 7.794 2.683 4.061 3.535 9.06 3.351 13.856-.114 4.048-1.216 8.177-3.756 11.394-2.778 3.654-7.03 5.969-11.482 6.884 7.184 9.421 14.384 18.829 21.566 28.25-7.444.008-14.885.005-22.328 0-5.741-8.962-11.487-17.925-17.235-26.882-.005 8.96 0 17.922-.003 26.882-6 .008-12.01.005-18.01 0 .003-23.06 0-46.13.003-69.2m18.01 13.573c-.003 5.844-.005 11.692 0 17.536 2.911-.034 5.899.194 8.716-.692 2.151-.682 4.191-2.143 5.04-4.295.749-1.918.746-4.059.397-6.06-.41-2.41-2.159-4.455-4.354-5.458-3.084-1.348-6.531-.959-9.802-1.026z"/><path d="m85.79 72.824c4.681-2.454 10.194-2.773 15.338-1.983 2.693.386 5.171 1.617 7.428 3.087 1.226.806 2.219 1.913 3.045 3.115-.001-1.718-.003-3.434-.005-5.152 5.479-.008 10.961-.003 16.442-.003.005 15.732.003 31.464 0 47.19-5.479.003-10.961.003-16.44 0 0-1.946-.008-3.893.003-5.842-1.236 2.06-3.051 3.737-5.163 4.867-2.172 1.138-4.411 2.291-6.871 2.623-3.978.565-8.05-.231-11.733-1.752-2.874-1.229-5.596-2.911-7.773-5.171-2.773-2.981-4.961-6.565-6.04-10.51-1.825-6.715-1.055-14.12 2.273-20.25 2.244-4.111 5.279-8.01 9.499-10.225m13.615 12.11c-3.538.441-6.682 2.856-8.117 6.101-.64 1.529-.705 3.216-.689 4.854.016 1.457.143 2.957.765 4.297 1.749 3.548 5.526 5.982 9.476 6.114 2.037.034 4.064-.485 5.886-1.381 2.67-1.278 4.699-3.971 4.943-6.951.161-1.941.189-3.934-.316-5.829-.513-1.845-1.63-3.491-3.01-4.805-2.444-2.037-5.816-2.817-8.939-2.4z"/><path d="m138.59 72.01c5.57-.003 11.14-.003 16.709 0 .003 15.732.003 31.462 0 47.19-5.57.003-11.14.003-16.709 0-.003-15.732-.003-31.462 0-47.19"/></g></g></svg>