<?xml version="1.0" encoding="UTF-8" standalone="no"?>
<!-- Created with Inkscape (http://www.inkscape.org/) -->

<svg
   xmlns:dc="http://purl.org/dc/elements/1.1/"
   xmlns:cc="http://creativecommons.org/ns#"
   xmlns:rdf="http://www.w3.org/1999/02/22-rdf-syntax-ns#"
   xmlns:svg="http://www.w3.org/2000/svg"
   xmlns="http://www.w3.org/2000/svg"
   version="1.1"
   width="599.99921"
   height="208.963"
   viewBox="0 0 479.99937 167.1704"
   id="svg2">
  <metadata
     id="metadata36">
    <rdf:RDF>
      <cc:Work
         rdf:about="">
        <dc:format>image/svg+xml</dc:format>
        <dc:type
           rdf:resource="http://purl.org/dc/dcmitype/StillImage" />
        <dc:title></dc:title>
      </cc:Work>
    </rdf:RDF>
  </metadata>
  <defs
     id="defs34" />
  <g
     transform="scale(2.08963,2.08963)"
     id="g3256">
    <g
       transform="scale(0.12403101,0.12403101)"
       id="#0146abff">
      <path
         d="m 0,0 1250,0 c 0,215 0,430 0,645 L 0,645 0,0 m 644.3,25.84 c 0.07,197.63 0.01,395.25 0.03,592.88 193.31,-0.03 386.62,0.08 579.92,-0.06 -0.06,-197.62 0,-395.25 -0.03,-592.88 -193.3,0.03 -386.61,-0.08 -579.92,0.06 m -85.81,146.7 c -9.61,2.16 -17.82,8.78 -22.91,17.08 -4.86,7.97 -6,17.88 -3.89,26.89 2.28,9.49 8.72,17.65 16.81,22.94 8.39,5.43 19.16,6.62 28.68,3.8 8.41,-2.54 15.5,-8.52 20.26,-15.81 5.78,-8.85 7.03,-20.26 4.14,-30.34 -2.42,-8.39 -8.3,-15.53 -15.6,-20.19 -8.06,-5.16 -18.24,-6.41 -27.49,-4.37 m -501.8,20 c -0.01,88.99 0,177.99 -0.01,266.98 23.17,0.02 46.34,0.03 69.5,0 0.01,-34.57 -0.01,-69.15 0.01,-103.72 22.18,34.56 44.35,69.14 66.5,103.72 28.72,0.02 57.43,0.03 86.15,0 -27.71,-36.35 -55.49,-72.65 -83.21,-109 17.18,-3.53 33.58,-12.46 44.3,-26.56 9.8,-12.41 14.05,-28.34 14.49,-43.96 0.71,-18.49 -2.58,-37.79 -12.93,-53.46 -10.12,-15.35 -26.63,-26.11 -44.51,-30.07 -16.71,-3.73 -33.93,-3.79 -50.97,-3.93 -29.77,-0.01 -59.55,-0.01 -89.32,0 M 331,280.98 c -16.28,8.53 -27.99,23.59 -36.65,39.45 -12.84,23.65 -15.81,52.22 -8.77,78.13 4.18,15.22 12.62,29.05 23.32,40.55 8.4,8.72 18.9,15.21 29.99,19.95 14.22,5.87 29.92,8.94 45.27,6.76 9.49,-1.28 18.13,-5.73 26.51,-10.12 8.15,-4.36 15.15,-10.83 19.92,-18.78 -0.04,7.52 -0.01,15.03 -0.01,22.54 21.14,0.01 42.29,0.01 63.43,0 0.01,-60.69 0.02,-121.39 0,-182.09 -21.15,0 -42.3,-0.02 -63.44,0.01 0.01,6.63 -0.02,13.25 0.02,19.88 -3.19,-4.64 -7.02,-8.91 -11.75,-12.02 -8.71,-5.67 -18.27,-10.42 -28.66,-11.91 -19.85,-3.05 -41.12,-1.82 -59.18,7.65 m 203.74,-3.14 c -0.01,60.7 -0.01,121.39 0,182.09 21.49,0.01 42.98,0.01 64.47,0 0.01,-60.7 0.01,-121.39 0,-182.09 -21.49,-0.01 -42.98,-0.01 -64.47,0 z"
         id="path5"
         style="fill:#0146ab" />
      <path
         d="m 903.92,103.34 c 33.14,0.03 66.28,-0.08 99.42,0.05 -0.06,144.05 -0.01,288.11 -0.02,432.16 -34.98,0.03 -69.96,0.01 -104.94,0.01 -0.01,-96.04 0,-192.08 0,-288.11 -27.61,-0.04 -55.23,0 -82.84,-0.02 -0.02,-20.31 0,-40.62 -0.01,-60.94 21.16,0.07 42.94,-5.88 59.31,-19.73 18.56,-15.39 29.03,-39.45 29.08,-63.42 z"
         id="path7"
         style="fill:#0146ab" />
      <path
         d="m 1306.53,188.04 c 181.83,0.02 363.65,-0.03 545.47,0.03 l 0,287.39 c -181.82,0 -363.64,0.01 -545.46,0 0,-95.81 0.01,-191.61 -0.01,-287.42 m 127.59,72.25 c -0.02,54.97 0,109.94 0,164.91 14.29,0.02 28.58,0.01 42.87,0.01 0.03,-22.64 -0.01,-45.28 0.02,-67.92 20.54,0.02 41.07,0 61.61,0.01 -0.01,22.64 -0.01,45.27 0,67.9 14.39,0 28.78,0.03 43.18,-0.01 0,-54.96 0.01,-109.93 -0.01,-164.89 -14.4,0 -28.79,-0.03 -43.18,0.01 0.02,21.23 -0.01,42.45 0.01,63.67 -20.54,0.04 -41.08,0.01 -61.62,0.02 -0.01,-21.24 0.02,-42.48 -0.01,-63.72 -14.29,0.02 -28.58,0.01 -42.87,0.01 m 182,0 c -0.02,54.97 -0.01,109.94 0,164.91 20.97,0.02 41.94,0 62.91,0.01 9.81,-0.09 19.67,-1.64 28.83,-5.28 16.82,-6.65 30.9,-19.29 40.68,-34.38 18.02,-27.91 15.91,-67.16 -5.16,-92.88 -11.7,-14.82 -27.98,-26.55 -46.63,-30.52 -10.41,-2.45 -21.14,-1.77 -31.72,-1.86 -16.31,0 -32.61,0.01 -48.91,0 z"
         id="path9"
         style="fill:#0146ab" />
      <path
         d="m 126.19,244.91 c 12.62,0.26 25.92,-1.24 37.82,3.96 8.47,3.87 15.22,11.76 16.8,21.06 1.35,7.74 1.36,16 -1.53,23.4 -3.29,8.3 -11.16,13.94 -19.46,16.57 -10.87,3.42 -22.4,2.54 -33.63,2.67 -0.02,-22.55 -0.01,-45.11 0,-67.66 z"
         id="path11"
         style="fill:#0146ab" />
      <path
         d="m 1659.01,296.8 c 7.97,-0.09 15.94,0.58 23.83,1.78 14.12,2.09 25.01,13.92 29.74,26.86 3.96,11.05 3.96,23.39 0.41,34.55 -3.77,11.74 -13.35,21.21 -24.85,25.45 -9.26,3.68 -19.36,3.34 -29.12,3.27 -0.04,-30.64 -0.02,-61.28 -0.01,-91.91 z"
         id="path13"
         style="fill:#0146ab" />
      <path
         d="m 383.53,327.72 c 12.05,-1.61 25.06,1.4 34.49,9.26 5.31,5.07 9.62,11.42 11.6,18.54 1.95,7.31 1.84,15 1.22,22.49 -0.94,11.5 -8.77,21.89 -19.07,26.82 -7.03,3.46 -14.85,5.46 -22.71,5.33 -15.24,-0.51 -29.81,-9.9 -36.56,-23.59 -2.4,-5.17 -2.89,-10.96 -2.95,-16.58 -0.06,-6.32 0.19,-12.83 2.66,-18.73 5.54,-12.52 17.67,-21.84 31.32,-23.54 z"
         id="path15"
         style="fill:#0146ab" />
    </g>
    <g
       transform="scale(0.12403101,0.12403101)"
       id="#ffffffff">
      <path
         d="m 644.3,25.84 c 193.31,-0.14 386.62,-0.03 579.92,-0.06 0.03,197.63 -0.03,395.26 0.03,592.88 -193.3,0.14 -386.61,0.03 -579.92,0.06 -0.02,-197.63 0.04,-395.25 -0.03,-592.88 m 259.62,77.5 c -0.05,23.97 -10.52,48.03 -29.08,63.42 -16.37,13.85 -38.15,19.8 -59.31,19.73 0.01,20.32 -0.01,40.63 0.01,60.94 27.61,0.02 55.23,-0.02 82.84,0.02 0,96.03 -0.01,192.07 0,288.11 34.98,0 69.96,0.02 104.94,-0.01 0.01,-144.05 -0.04,-288.11 0.02,-432.16 -33.14,-0.13 -66.28,-0.02 -99.42,-0.05 z"
         id="path18"
         style="fill:#ffffff" />
      <path
         d="m 558.49,172.54 c 9.25,-2.04 19.43,-0.79 27.49,4.37 7.3,4.66 13.18,11.8 15.6,20.19 2.89,10.08 1.64,21.49 -4.14,30.34 -4.76,7.29 -11.85,13.27 -20.26,15.81 -9.52,2.82 -20.29,1.63 -28.68,-3.8 -8.09,-5.29 -14.53,-13.45 -16.81,-22.94 -2.11,-9.01 -0.97,-18.92 3.89,-26.89 5.09,-8.3 13.3,-14.92 22.91,-17.08 z"
         id="path20"
         style="fill:#ffffff" />
      <path
         d="m 56.69,192.54 c 29.77,-0.01 59.55,-0.01 89.32,0 17.04,0.14 34.26,0.2 50.97,3.93 17.88,3.96 34.39,14.72 44.51,30.07 10.35,15.67 13.64,34.97 12.93,53.46 -0.44,15.62 -4.69,31.55 -14.49,43.96 -10.72,14.1 -27.12,23.03 -44.3,26.56 27.72,36.35 55.5,72.65 83.21,109 -28.72,0.03 -57.43,0.02 -86.15,0 -22.15,-34.58 -44.32,-69.16 -66.5,-103.72 -0.02,34.57 0,69.15 -0.01,103.72 -23.16,0.03 -46.33,0.02 -69.5,0 0.01,-88.99 0,-177.99 0.01,-266.98 m 69.5,52.37 c -0.01,22.55 -0.02,45.11 0,67.66 11.23,-0.13 22.76,0.75 33.63,-2.67 8.3,-2.63 16.17,-8.27 19.46,-16.57 2.89,-7.4 2.88,-15.66 1.53,-23.4 -1.58,-9.3 -8.33,-17.19 -16.8,-21.06 -11.9,-5.2 -25.2,-3.7 -37.82,-3.96 z"
         id="path22"
         style="fill:#ffffff" />
      <path
         d="m 1434.12,260.29 c 14.29,0 28.58,0.01 42.87,-0.01 0.03,21.24 0,42.48 0.01,63.72 20.54,-0.01 41.08,0.02 61.62,-0.02 -0.02,-21.22 0.01,-42.44 -0.01,-63.67 14.39,-0.04 28.78,-0.01 43.18,-0.01 0.02,54.96 0.01,109.93 0.01,164.89 -14.4,0.04 -28.79,0.01 -43.18,0.01 -0.01,-22.63 -0.01,-45.26 0,-67.9 -20.54,-0.01 -41.07,0.01 -61.61,-0.01 -0.03,22.64 0.01,45.28 -0.02,67.92 -14.29,0 -28.58,0.01 -42.87,-0.01 0,-54.97 -0.02,-109.94 0,-164.91 z"
         id="path24"
         style="fill:#ffffff" />
      <path
         d="m 1616.12,260.29 c 16.3,0.01 32.6,0 48.91,0 10.58,0.09 21.31,-0.59 31.72,1.86 18.65,3.97 34.93,15.7 46.63,30.52 21.07,25.72 23.18,64.97 5.16,92.88 -9.78,15.09 -23.86,27.73 -40.68,34.38 -9.16,3.64 -19.02,5.19 -28.83,5.28 -20.97,-0.01 -41.94,0.01 -62.91,-0.01 -0.01,-54.97 -0.02,-109.94 0,-164.91 m 42.89,36.51 c -0.01,30.63 -0.03,61.27 0.01,91.91 9.76,0.07 19.86,0.41 29.12,-3.27 11.5,-4.24 21.08,-13.71 24.85,-25.45 3.55,-11.16 3.55,-23.5 -0.41,-34.55 -4.73,-12.94 -15.62,-24.77 -29.74,-26.86 -7.89,-1.2 -15.86,-1.87 -23.83,-1.78 z"
         id="path26"
         style="fill:#ffffff" />
      <path
         d="m 331,280.98 c 18.06,-9.47 39.33,-10.7 59.18,-7.65 10.39,1.49 19.95,6.24 28.66,11.91 4.73,3.11 8.56,7.38 11.75,12.02 -0.04,-6.63 -0.01,-13.25 -0.02,-19.88 21.14,-0.03 42.29,-0.01 63.44,-0.01 0.02,60.7 0.01,121.4 0,182.09 -21.14,0.01 -42.29,0.01 -63.43,0 0,-7.51 -0.03,-15.02 0.01,-22.54 -4.77,7.95 -11.77,14.42 -19.92,18.78 -8.38,4.39 -17.02,8.84 -26.51,10.12 -15.35,2.18 -31.05,-0.89 -45.27,-6.76 -11.09,-4.74 -21.59,-11.23 -29.99,-19.95 -10.7,-11.5 -19.14,-25.33 -23.32,-40.55 -7.04,-25.91 -4.07,-54.48 8.77,-78.13 8.66,-15.86 20.37,-30.92 36.65,-39.45 m 52.53,46.74 c -13.65,1.7 -25.78,11.02 -31.32,23.54 -2.47,5.9 -2.72,12.41 -2.66,18.73 0.06,5.62 0.55,11.41 2.95,16.58 6.75,13.69 21.32,23.08 36.56,23.59 7.86,0.13 15.68,-1.87 22.71,-5.33 10.3,-4.93 18.13,-15.32 19.07,-26.82 0.62,-7.49 0.73,-15.18 -1.22,-22.49 -1.98,-7.12 -6.29,-13.47 -11.6,-18.54 -9.43,-7.86 -22.44,-10.87 -34.49,-9.26 z"
         id="path28"
         style="fill:#ffffff" />
      <path
         d="m 534.74,277.84 c 21.49,-0.01 42.98,-0.01 64.47,0 0.01,60.7 0.01,121.39 0,182.09 -21.49,0.01 -42.98,0.01 -64.47,0 -0.01,-60.7 -0.01,-121.39 0,-182.09 z"
         id="path30"
         style="fill:#ffffff" />
    </g>
  </g>
</svg>
