<svg xmlns="http://www.w3.org/2000/svg" width="600" height="208.96" viewBox="0 0 479.99937 167.1704"><g transform="scale(.25918)"><g fill="#0146ab"><path d="m0 0h1250c0 215 0 430 0 645h-1250v-645m644.3 25.84c.07 197.63.001 395.25.03 592.88 193.31-.03 386.62.08 579.92-.06-.06-197.62 0-395.25-.03-592.88-193.3.03-386.61-.08-579.92.06m-85.81 146.7c-9.61 2.16-17.82 8.78-22.91 17.08-4.86 7.97-6 17.88-3.89 26.89 2.28 9.49 8.72 17.65 16.81 22.94 8.39 5.43 19.16 6.62 28.68 3.8 8.41-2.54 15.5-8.52 20.26-15.81 5.78-8.85 7.03-20.26 4.14-30.34-2.42-8.39-8.3-15.53-15.6-20.19-8.06-5.16-18.24-6.41-27.49-4.37m-501.8 20c-.001 88.99 0 177.99-.001 266.98 23.17.02 46.34.03 69.5 0 .001-34.57-.001-69.15.001-103.72 22.18 34.56 44.35 69.14 66.5 103.72 28.72.02 57.43.03 86.15 0-27.71-36.35-55.49-72.65-83.21-109 17.18-3.53 33.58-12.46 44.3-26.56 9.8-12.41 14.05-28.34 14.49-43.96.71-18.49-2.58-37.79-12.93-53.46-10.12-15.35-26.63-26.11-44.51-30.07-16.71-3.73-33.93-3.79-50.97-3.93-29.77-.001-59.55-.001-89.32 0m274.31 88.44c-16.28 8.53-27.99 23.59-36.65 39.45-12.84 23.65-15.81 52.22-8.77 78.13 4.18 15.22 12.62 29.05 23.32 40.55 8.4 8.72 18.9 15.21 29.99 19.95 14.22 5.87 29.92 8.94 45.27 6.76 9.49-1.28 18.13-5.73 26.51-10.12 8.15-4.36 15.15-10.83 19.92-18.78-.04 7.52-.001 15.03-.001 22.54 21.14.001 42.29.001 63.43 0 .001-60.69.02-121.39 0-182.09-21.15 0-42.3-.02-63.44.001.001 6.63-.02 13.25.02 19.88-3.19-4.64-7.02-8.91-11.75-12.02-8.71-5.67-18.27-10.42-28.66-11.91-19.85-3.05-41.12-1.82-59.18 7.65m203.74-3.14c-.001 60.7-.001 121.39 0 182.09 21.49.001 42.98.001 64.47 0 .001-60.7.001-121.39 0-182.09-21.49-.001-42.98-.001-64.47 0z"/><path d="m903.92 103.34c33.14.03 66.28-.08 99.42.05-.06 144.05-.001 288.11-.02 432.16-34.98.03-69.96.001-104.94.001-.001-96.04 0-192.08 0-288.11-27.61-.04-55.23 0-82.84-.02-.02-20.31 0-40.62-.001-60.94 21.16.07 42.94-5.88 59.31-19.73 18.56-15.39 29.03-39.45 29.08-63.42"/><path d="m1306.53 188.04c181.83.02 363.65-.03 545.47.03v287.39c-181.82 0-363.64.001-545.46 0 0-95.81.001-191.61-.001-287.42m127.59 72.25c-.02 54.97 0 109.94 0 164.91 14.29.02 28.58.001 42.87.001.03-22.64-.001-45.28.02-67.92 20.54.02 41.07 0 61.61.001-.001 22.64-.001 45.27 0 67.9 14.39 0 28.78.03 43.18-.001 0-54.96.001-109.93-.001-164.89-14.4 0-28.79-.03-43.18.001.02 21.23-.001 42.45.001 63.67-20.54.04-41.08.001-61.62.02-.001-21.24.02-42.48-.001-63.72-14.29.02-28.58.001-42.87.001m182 0c-.02 54.97-.001 109.94 0 164.91 20.97.02 41.94 0 62.91.001 9.81-.09 19.67-1.64 28.83-5.28 16.82-6.65 30.9-19.29 40.68-34.38 18.02-27.91 15.91-67.16-5.16-92.88-11.7-14.82-27.98-26.55-46.63-30.52-10.41-2.45-21.14-1.77-31.72-1.86-16.31 0-32.61.001-48.91 0z"/><path d="m126.19 244.91c12.62.26 25.92-1.24 37.82 3.96 8.47 3.87 15.22 11.76 16.8 21.06 1.35 7.74 1.36 16-1.53 23.4-3.29 8.3-11.16 13.94-19.46 16.57-10.87 3.42-22.4 2.54-33.63 2.67-.02-22.55-.001-45.11 0-67.66"/><path d="m1659.01 296.8c7.97-.09 15.94.58 23.83 1.78 14.12 2.09 25.01 13.92 29.74 26.86 3.96 11.05 3.96 23.39.41 34.55-3.77 11.74-13.35 21.21-24.85 25.45-9.26 3.68-19.36 3.34-29.12 3.27-.04-30.64-.02-61.28-.001-91.91"/><path d="m383.53 327.72c12.05-1.61 25.06 1.4 34.49 9.26 5.31 5.07 9.62 11.42 11.6 18.54 1.95 7.31 1.84 15 1.22 22.49-.94 11.5-8.77 21.89-19.07 26.82-7.03 3.46-14.85 5.46-22.71 5.33-15.24-.51-29.81-9.9-36.56-23.59-2.4-5.17-2.89-10.96-2.95-16.58-.06-6.32.19-12.83 2.66-18.73 5.54-12.52 17.67-21.84 31.32-23.54"/></g><g fill="#fff"><path d="m644.3 25.84c193.31-.14 386.62-.03 579.92-.06.03 197.63-.03 395.26.03 592.88-193.3.14-386.61.03-579.92.06-.02-197.63.04-395.25-.03-592.88m259.62 77.5c-.05 23.97-10.52 48.03-29.08 63.42-16.37 13.85-38.15 19.8-59.31 19.73.001 20.32-.001 40.63.001 60.94 27.61.02 55.23-.02 82.84.02 0 96.03-.001 192.07 0 288.11 34.98 0 69.96.02 104.94-.001.001-144.05-.04-288.11.02-432.16-33.14-.13-66.28-.02-99.42-.05z"/><path d="m558.49 172.54c9.25-2.04 19.43-.79 27.49 4.37 7.3 4.66 13.18 11.8 15.6 20.19 2.89 10.08 1.64 21.49-4.14 30.34-4.76 7.29-11.85 13.27-20.26 15.81-9.52 2.82-20.29 1.63-28.68-3.8-8.09-5.29-14.53-13.45-16.81-22.94-2.11-9.01-.97-18.92 3.89-26.89 5.09-8.3 13.3-14.92 22.91-17.08"/><path d="m56.69 192.54c29.77-.001 59.55-.001 89.32 0 17.04.14 34.26.2 50.97 3.93 17.88 3.96 34.39 14.72 44.51 30.07 10.35 15.67 13.64 34.97 12.93 53.46-.44 15.62-4.69 31.55-14.49 43.96-10.72 14.1-27.12 23.03-44.3 26.56 27.72 36.35 55.5 72.65 83.21 109-28.72.03-57.43.02-86.15 0-22.15-34.58-44.32-69.16-66.5-103.72-.02 34.57 0 69.15-.001 103.72-23.16.03-46.33.02-69.5 0 .001-88.99 0-177.99.001-266.98m69.5 52.37c-.001 22.55-.02 45.11 0 67.66 11.23-.13 22.76.75 33.63-2.67 8.3-2.63 16.17-8.27 19.46-16.57 2.89-7.4 2.88-15.66 1.53-23.4-1.58-9.3-8.33-17.19-16.8-21.06-11.9-5.2-25.2-3.7-37.82-3.96z"/><path d="m1434.12 260.29c14.29 0 28.58.001 42.87-.001.03 21.24 0 42.48.001 63.72 20.54-.001 41.08.02 61.62-.02-.02-21.22.001-42.44-.001-63.67 14.39-.04 28.78-.001 43.18-.001.02 54.96.001 109.93.001 164.89-14.4.04-28.79.001-43.18.001-.001-22.63-.001-45.26 0-67.9-20.54-.001-41.07.001-61.61-.001-.03 22.64.001 45.28-.02 67.92-14.29 0-28.58.001-42.87-.001 0-54.97-.02-109.94 0-164.91"/><path d="m1616.12 260.29c16.3.001 32.6 0 48.91 0 10.58.09 21.31-.59 31.72 1.86 18.65 3.97 34.93 15.7 46.63 30.52 21.07 25.72 23.18 64.97 5.16 92.88-9.78 15.09-23.86 27.73-40.68 34.38-9.16 3.64-19.02 5.19-28.83 5.28-20.97-.001-41.94.001-62.91-.001-.001-54.97-.02-109.94 0-164.91m42.89 36.51c-.001 30.63-.03 61.27.001 91.91 9.76.07 19.86.41 29.12-3.27 11.5-4.24 21.08-13.71 24.85-25.45 3.55-11.16 3.55-23.5-.41-34.55-4.73-12.94-15.62-24.77-29.74-26.86-7.89-1.2-15.86-1.87-23.83-1.78z"/><path d="m331 280.98c18.06-9.47 39.33-10.7 59.18-7.65 10.39 1.49 19.95 6.24 28.66 11.91 4.73 3.11 8.56 7.38 11.75 12.02-.04-6.63-.001-13.25-.02-19.88 21.14-.03 42.29-.001 63.44-.001.02 60.7.001 121.4 0 182.09-21.14.001-42.29.001-63.43 0 0-7.51-.03-15.02.001-22.54-4.77 7.95-11.77 14.42-19.92 18.78-8.38 4.39-17.02 8.84-26.51 10.12-15.35 2.18-31.05-.89-45.27-6.76-11.09-4.74-21.59-11.23-29.99-19.95-10.7-11.5-19.14-25.33-23.32-40.55-7.04-25.91-4.07-54.48 8.77-78.13 8.66-15.86 20.37-30.92 36.65-39.45m52.53 46.74c-13.65 1.7-25.78 11.02-31.32 23.54-2.47 5.9-2.72 12.41-2.66 18.73.06 5.62.55 11.41 2.95 16.58 6.75 13.69 21.32 23.08 36.56 23.59 7.86.13 15.68-1.87 22.71-5.33 10.3-4.93 18.13-15.32 19.07-26.82.62-7.49.73-15.18-1.22-22.49-1.98-7.12-6.29-13.47-11.6-18.54-9.43-7.86-22.44-10.87-34.49-9.26z"/><path d="m534.74 277.84c21.49-.001 42.98-.001 64.47 0 .001 60.7.001 121.39 0 182.09-21.49.001-42.98.001-64.47 0-.001-60.7-.001-121.39 0-182.09"/></g></g></svg>