<svg xmlns="http://www.w3.org/2000/svg" width="600" height="208.96" viewBox="0 0 479.99937 167.1704"><g transform="scale(.25918)"><g fill="#bf2314"><path d="m0 0h1250c0 215 0 430 0 645h-1250v-645m644.33 25.76c0 197.65 0 395.3 0 592.95 193.3.001 386.6.001 579.89.001.001-197.65.001-395.29 0-592.94-193.29-.02-386.59.03-579.89-.02m-85.93 146.8c-9.55 2.18-17.72 8.77-22.8 17.03-4.87 7.96-6.02 17.87-3.92 26.89 2.22 9.28 8.44 17.3 16.27 22.61 8.7 5.88 20.14 7.13 30.06 3.89 8.07-2.67 14.85-8.52 19.46-15.59 5.59-8.59 6.92-19.59 4.35-29.43-2.25-8.72-8.26-16.19-15.78-21.01-8.09-5.2-18.34-6.47-27.64-4.39m-501.72 19.98c0 89 0 177.99 0 266.99 23.17.001 46.34.001 69.5-.001.001-34.57-.001-69.14.001-103.72 22.18 34.57 44.35 69.14 66.51 103.72 28.71.02 57.43.001 86.14.001-27.71-36.36-55.49-72.66-83.21-109.01 16.52-3.42 32.35-11.75 43.06-25 9.95-11.85 14.77-27.26 15.58-42.56 1.12-18.5-1.57-37.86-11.23-53.97-9.95-16.66-27.29-28.4-46.14-32.54-16.35-3.64-33.2-3.76-49.86-3.91-30.12-.001-60.24-.001-90.36 0m257.61 100.69c-12 12.14-21.29 27-26.87 43.15-6.15 17.8-7.04 37.23-3.41 55.66 3.67 18.64 13.58 35.75 26.94 49.13 9.93 9.41 22.18 16.2 35.1 20.56 12.82 4.26 26.67 6.12 40.06 3.77 8.77-1.58 16.78-5.73 24.6-9.82 8.14-4.36 15.12-10.83 19.88-18.76-.04 7.51-.001 15.03-.02 22.54 21.15.001 42.3.001 63.44 0 .001-60.69.02-121.39 0-182.09-21.15 0-42.29-.001-63.44.001.001 6.62-.02 13.25.02 19.87-6.43-10.19-17.38-16.12-28.16-20.69-12.56-4.55-26.21-5.17-39.43-4.38-17.99 1.17-35.86 8.19-48.71 21.05m220.45-15.38c-.001 60.69-.001 121.39 0 182.08 21.49 0 42.98.001 64.47 0 .001-60.69.001-121.39 0-182.08-21.49-.001-42.98-.001-64.47 0z"/><path d="m831.65 124.72c28.12-18.37 62.07-26.08 95.35-26.61 37.3-.81 74.76 10.36 105.46 31.58 12.98 9.01 24.93 19.75 34.01 32.75 19.64 27.81 27.73 62.76 25.69 96.49-1.74 27.49-12.62 53.68-27.95 76.32-8.72 13.01-18.51 25.31-29.09 36.85-24.05 23.04-48.17 45.99-72.21 69.02 42.98.04 85.97.001 128.95.02-.04 31.26-.11 62.52-.14 93.78-113.39.02-226.78.001-340.17.001 57.88-60.88 115.92-121.61 173.73-182.56 10.39-12.88 19.59-26.67 28.59-40.55 5.44-8.82 11.42-17.49 14.78-27.38 4.78-13.95 8.25-28.68 7.29-43.52-.5-10.77-1.55-22.13-7.35-31.51-7.3-10.46-19.78-16.82-32.5-17.05-12-.14-25.49-.57-35.4 7.36-10.96 8.79-15.45 22.99-17.08 36.46-1.11 8.27-1.29 16.64-1.36 24.98-38.6.001-77.19 0-115.78 0-.13-33.72 7.06-68.37 25.84-96.84 10.27-15.65 23.58-29.41 39.34-39.6"/><path d="m1306.53 188.04c181.82.02 363.65-.03 545.47.02v287.4c-181.82.001-363.64.001-545.47 0 .001-95.81.001-191.61 0-287.42m127.54 72.28c-.03 54.95-.001 109.9-.001 164.85 14.31.03 28.62.001 42.94.001.001-22.61-.02-45.22.001-67.84 20.51.02 41.03 0 61.55.001 0 22.61-.001 45.21.001 67.82 14.42.02 28.85.03 43.27-.001 0-54.94.02-109.89-.001-164.84-14.42 0-28.85-.03-43.27.02-.001 21.22 0 42.44 0 63.66-20.52 0-41.04 0-61.56 0-.001-21.23.02-42.46-.001-63.69-14.31.02-28.61 0-42.92.001m182 0c-.03 54.95-.001 109.9-.001 164.85 15.96.03 31.92 0 47.89.001 11.01-.12 22.19.66 33.01-1.9 21.71-4.75 40.16-19.76 51.94-38.27 11.76-18.48 14.57-41.89 9.26-62.97-4.16-16.52-14.24-31.11-27.01-42.21-10.34-9.1-23.03-15.66-36.62-18.16-10.05-2.01-20.33-1.18-30.49-1.35-15.99 0-31.98-.001-47.97 0z"/><path d="m126.19 244.9c12.88.28 26.54-1.3 38.58 4.33 8.13 3.99 14.52 11.7 16.05 20.73 1.37 7.95 1.36 16.48-1.82 24.02-3.69 8.54-12.16 14.08-20.91 16.43-10.39 2.83-21.26 2.03-31.9 2.16-.001-22.56-.001-45.11 0-67.67"/><path d="m1659 296.84c9.69.09 19.55.44 28.96 2.97 15.91 5.5 26.09 21.97 27.39 38.3.89 11-.99 22.67-7.34 31.91-6.4 9.38-16.82 15.68-27.94 17.64-6.93 1.42-14.04.89-21.06 1-.02-30.61-.001-61.21-.001-91.82"/><path d="m383.51 327.72c10.93-1.51 22.49.93 31.69 7.07 5.17 3.55 8.94 8.79 11.91 14.24 4.65 9.16 4.55 19.81 3.64 29.8-.75 8.08-5.25 15.37-11.1 20.81-6.88 5.83-15.7 9.04-24.57 10.21-15.74 2.05-31.95-6.17-40.41-19.43-5.5-7.97-5.36-18.13-4.97-27.41.55-17.99 16.33-33.13 33.81-35.29"/></g><g fill="#fff"><path d="m644.33 25.76c193.3.05 386.6 0 579.89.02.001 197.65.001 395.29 0 592.94-193.29 0-386.59 0-579.89-.001 0-197.65 0-395.3 0-592.95m187.32 98.96c-15.76 10.19-29.07 23.95-39.34 39.6-18.78 28.47-25.97 63.12-25.84 96.84 38.59 0 77.18.001 115.78 0 .07-8.34.25-16.71 1.36-24.98 1.63-13.47 6.12-27.67 17.08-36.46 9.91-7.93 23.4-7.5 35.4-7.36 12.72.23 25.2 6.59 32.5 17.05 5.8 9.38 6.85 20.74 7.35 31.51.96 14.84-2.51 29.57-7.29 43.52-3.36 9.89-9.34 18.56-14.78 27.38-9 13.88-18.2 27.67-28.59 40.55-57.81 60.95-115.85 121.68-173.73 182.56 113.39 0 226.78.001 340.17-.001.03-31.26.1-62.52.14-93.78-42.98-.001-85.97.02-128.95-.02 24.04-23.03 48.16-45.98 72.21-69.02 10.58-11.54 20.37-23.84 29.09-36.85 15.33-22.64 26.21-48.83 27.95-76.32 2.04-33.73-6.05-68.68-25.69-96.49-9.08-13-21.03-23.74-34.01-32.75-30.7-21.22-68.16-32.39-105.46-31.58-33.28.53-67.23 8.24-95.35 26.61z"/><path d="m558.4 172.56c9.3-2.08 19.55-.81 27.64 4.39 7.52 4.82 13.53 12.29 15.78 21.01 2.57 9.84 1.24 20.84-4.35 29.43-4.61 7.07-11.39 12.92-19.46 15.59-9.92 3.24-21.36 1.99-30.06-3.89-7.83-5.31-14.05-13.33-16.27-22.61-2.1-9.02-.95-18.93 3.92-26.89 5.08-8.26 13.25-14.85 22.8-17.03"/><path d="m56.68 192.54c30.12-.001 60.24-.001 90.36 0 16.66.15 33.51.27 49.86 3.91 18.85 4.14 36.19 15.88 46.14 32.54 9.66 16.11 12.35 35.47 11.23 53.97-.81 15.3-5.63 30.71-15.58 42.56-10.71 13.25-26.54 21.58-43.06 25 27.72 36.35 55.5 72.65 83.21 109.01-28.71 0-57.43.001-86.14-.001-22.16-34.58-44.33-69.15-66.51-103.72-.02 34.58 0 69.15-.001 103.72-23.16.02-46.33.02-69.5.001 0-89 0-177.99 0-266.99m69.51 52.36c-.001 22.56-.001 45.11 0 67.67 10.64-.13 21.51.67 31.9-2.16 8.75-2.35 17.22-7.89 20.91-16.43 3.18-7.54 3.19-16.07 1.82-24.02-1.53-9.03-7.92-16.74-16.05-20.73-12.04-5.63-25.7-4.05-38.58-4.33z"/><path d="m1434.07 260.32c14.31-.001 28.61.001 42.92-.001.03 21.23 0 42.46.001 63.69 20.52 0 41.04 0 61.56 0 0-21.22-.001-42.44 0-63.66 14.42-.05 28.85-.02 43.27-.02.03 54.95.001 109.9.001 164.84-14.42.04-28.85.03-43.27.001-.02-22.61-.001-45.21-.001-67.82-20.52-.001-41.04.001-61.55-.001-.03 22.62 0 45.23-.001 67.84-14.32 0-28.63.02-42.94-.001 0-54.95-.02-109.9.001-164.85"/><path d="m1616.07 260.32c15.99-.001 31.98 0 47.97 0 10.16.17 20.44-.66 30.49 1.35 13.59 2.5 26.28 9.06 36.62 18.16 12.77 11.1 22.85 25.69 27.01 42.21 5.31 21.08 2.5 44.49-9.26 62.97-11.78 18.51-30.23 33.52-51.94 38.27-10.82 2.56-22 1.78-33.01 1.9-15.97-.001-31.93.02-47.89-.001 0-54.95-.02-109.9.001-164.85m42.93 36.52c0 30.61-.001 61.21.001 91.82 7.02-.11 14.13.42 21.06-1 11.12-1.96 21.54-8.26 27.94-17.64 6.35-9.24 8.23-20.91 7.34-31.91-1.3-16.33-11.48-32.8-27.39-38.3-9.41-2.53-19.27-2.88-28.96-2.97z"/><path d="m314.29 293.23c12.85-12.86 30.72-19.88 48.71-21.05 13.22-.79 26.87-.17 39.43 4.38 10.78 4.57 21.73 10.5 28.16 20.69-.04-6.62-.001-13.25-.02-19.87 21.15-.02 42.29-.001 63.44-.001.02 60.7.001 121.4 0 182.09-21.14.001-42.29.001-63.44 0 .001-7.51-.02-15.03.02-22.54-4.76 7.93-11.74 14.4-19.88 18.76-7.82 4.09-15.83 8.24-24.6 9.82-13.39 2.35-27.24.49-40.06-3.77-12.92-4.36-25.17-11.15-35.1-20.56-13.36-13.38-23.27-30.49-26.94-49.13-3.63-18.43-2.74-37.86 3.41-55.66 5.58-16.15 14.87-31.01 26.87-43.15m69.22 34.49c-17.48 2.16-33.26 17.3-33.81 35.29-.39 9.28-.53 19.44 4.97 27.41 8.46 13.26 24.67 21.48 40.41 19.43 8.87-1.17 17.69-4.38 24.57-10.21 5.85-5.44 10.35-12.73 11.1-20.81.91-9.99 1.01-20.64-3.64-29.8-2.97-5.45-6.74-10.69-11.91-14.24-9.2-6.14-20.76-8.58-31.69-7.07z"/><path d="m534.74 277.85c21.49-.001 42.98-.001 64.47 0 .001 60.69.001 121.39 0 182.08-21.49.001-42.98 0-64.47 0-.001-60.69-.001-121.39 0-182.08"/></g></g></svg>