<svg xmlns="http://www.w3.org/2000/svg" width="600" height="309.6" viewBox="0 0 480 247.68001"><g transform="scale(1.4816)"><g fill="#bf2314"><path d="m0 0h323.97c0 55.723 0 111.45 0 167.17h-323.97v-167.17m167 6.676c0 51.23 0 102.45 0 153.68 50.1.003 100.2.003 150.3.003.003-51.23.003-102.45 0-153.68-50.1-.005-100.2.008-150.3-.005m-22.271 38.05c-2.475.565-4.593 2.273-5.909 4.414-1.262 2.063-1.56 4.632-1.016 6.969.575 2.405 2.187 4.484 4.217 5.86 2.255 1.524 5.22 1.848 7.791 1.01 2.092-.692 3.849-2.208 5.04-4.04 1.449-2.226 1.794-5.077 1.127-7.628-.583-2.26-2.141-4.196-4.09-5.445-2.097-1.348-4.753-1.677-7.164-1.138m-130.04 5.178c0 23.07 0 46.13 0 69.2 6.01.003 12.01.003 18.01-.003.003-8.96-.003-17.92.003-26.882 5.749 8.96 11.495 17.92 17.238 26.882 7.441.005 14.885.003 22.326.003-7.182-9.424-14.382-18.832-21.566-28.25 4.282-.886 8.384-3.045 11.16-6.479 2.579-3.071 3.828-7.07 4.04-11.03.29-4.795-.407-9.813-2.911-13.988-2.579-4.318-7.07-7.361-11.959-8.434-4.238-.943-8.605-.975-12.923-1.013-7.806-.003-15.613-.003-23.419 0m66.767 26.1c-3.11 3.146-5.518 6.998-6.964 11.184-1.594 4.613-1.825 9.649-.884 14.426.951 4.831 3.52 9.266 6.982 12.733 2.574 2.439 5.749 4.199 9.1 5.329 3.323 1.104 6.912 1.586 10.383.977 2.273-.41 4.349-1.485 6.376-2.545 2.11-1.13 3.919-2.807 5.152-4.862-.001 1.946-.003 3.895-.005 5.842 5.482.003 10.963.003 16.442 0 .003-15.73.005-31.462 0-47.19-5.482 0-10.961-.003-16.442.003.003 1.716-.005 3.434.005 5.15-1.667-2.641-4.505-4.178-7.298-5.362-3.255-1.179-6.793-1.34-10.219-1.135-4.663.303-9.294 2.123-12.625 5.456m57.14-3.986c-.003 15.73-.003 31.462 0 47.19 5.57 0 11.14.003 16.709 0 .003-15.73.003-31.462 0-47.19-5.57-.003-11.14-.003-16.709 0z"/><path d="m215.55 32.32c7.288-4.761 16.09-6.759 24.713-6.897 9.667-.21 19.376 2.685 27.333 8.185 3.364 2.335 6.461 5.119 8.815 8.488 5.09 7.208 7.187 16.266 6.658 25.01-.451 7.125-3.271 13.913-7.244 19.781-2.26 3.372-4.797 6.56-7.54 9.551-6.233 5.971-12.485 11.92-18.715 17.889 11.14.001 22.282.003 33.421.005-.001 8.102-.029 16.204-.036 24.306-29.388.005-58.777.003-88.16.003 15-15.779 30.04-31.519 45.03-47.32 2.693-3.338 5.077-6.912 7.41-10.51 1.41-2.286 2.96-4.533 3.831-7.096 1.239-3.616 2.138-7.433 1.889-11.279-.13-2.791-.402-5.736-1.905-8.167-1.892-2.711-5.127-4.359-8.423-4.419-3.11-.036-6.606-.148-9.175 1.908-2.841 2.278-4 5.959-4.427 9.45-.288 2.143-.334 4.313-.352 6.474-10 .003-20.01 0-30.01 0-.034-8.74 1.83-17.72 6.697-25.1 2.662-4.056 6.111-7.622 10.196-10.263"/><path d="m32.706 63.47c3.338.073 6.879-.337 9.999 1.122 2.107 1.034 3.763 3.03 4.16 5.373.355 2.06.352 4.271-.472 6.225-.956 2.213-3.152 3.649-5.419 4.258-2.693.733-5.51.526-8.268.56-.003-5.847-.003-11.692 0-17.539"/><path d="m99.4 84.938c2.833-.391 5.829.241 8.213 1.832 1.34.92 2.317 2.278 3.087 3.691 1.205 2.374 1.179 5.134.943 7.724-.194 2.094-1.361 3.984-2.877 5.394-1.783 1.511-4.069 2.343-6.368 2.646-4.079.531-8.281-1.599-10.473-5.04-1.425-2.066-1.389-4.699-1.288-7.104.143-4.663 4.232-8.587 8.763-9.146"/></g><g fill="#fff"><path d="m167 6.676c50.1.013 100.2 0 150.3.005.003 51.23.003 102.45 0 153.68-50.1 0-100.2 0-150.3-.003 0-51.23 0-102.45 0-153.68m48.549 25.648c-4.085 2.641-7.534 6.207-10.196 10.263-4.867 7.379-6.731 16.359-6.697 25.1 10 0 20 .003 30.01 0 .018-2.162.065-4.331.352-6.474.422-3.491 1.586-7.171 4.427-9.45 2.568-2.055 6.06-1.944 9.175-1.908 3.297.06 6.531 1.708 8.423 4.419 1.503 2.431 1.775 5.375 1.905 8.167.249 3.846-.651 7.664-1.889 11.279-.871 2.563-2.421 4.81-3.831 7.096-2.333 3.597-4.717 7.171-7.41 10.51-14.983 15.797-30.03 31.537-45.03 47.32 29.388 0 58.777.003 88.16-.003.008-8.102.026-16.204.036-24.306-11.14-.003-22.282.005-33.421-.005 6.231-5.969 12.482-11.917 18.715-17.889 2.742-2.991 5.279-6.179 7.54-9.551 3.973-5.868 6.793-12.656 7.244-19.781.529-8.742-1.568-17.8-6.658-25.01-2.353-3.369-5.451-6.153-8.815-8.488-7.957-5.5-17.666-8.395-27.333-8.185-8.625.137-17.425 2.136-24.713 6.897z"/><path d="m144.73 44.724c2.41-.539 5.067-.21 7.164 1.138 1.949 1.249 3.507 3.185 4.09 5.445.666 2.55.321 5.401-1.127 7.628-1.195 1.832-2.952 3.349-5.04 4.04-2.571.84-5.536.516-7.791-1.01-2.029-1.376-3.641-3.455-4.217-5.86-.544-2.338-.246-4.906 1.016-6.969 1.317-2.141 3.434-3.849 5.909-4.414"/><path d="m14.69 49.902c7.806-.003 15.613-.003 23.419 0 4.318.039 8.685.07 12.923 1.013 4.886 1.073 9.38 4.116 11.959 8.434 2.504 4.175 3.201 9.193 2.911 13.988-.21 3.965-1.459 7.959-4.04 11.03-2.776 3.434-6.879 5.593-11.16 6.479 7.184 9.421 14.384 18.829 21.566 28.25-7.441 0-14.885.003-22.326-.003-5.743-8.962-11.489-17.922-17.238-26.882-.005 8.962 0 17.922-.003 26.882-6 .005-12.01.005-18.01.003 0-23.07 0-46.13 0-69.2m18.02 13.571c-.003 5.847-.003 11.692 0 17.539 2.758-.034 5.575.174 8.268-.56 2.268-.609 4.463-2.045 5.419-4.258.824-1.954.827-4.165.472-6.225-.397-2.34-2.053-4.339-4.16-5.373-3.121-1.459-6.661-1.05-9.999-1.122z"/><path d="m81.46 75.999c3.33-3.333 7.962-5.152 12.625-5.456 3.426-.205 6.964-.044 10.219 1.135 2.794 1.184 5.632 2.721 7.298 5.362-.001-1.716-.003-3.434-.005-5.15 5.482-.005 10.961-.003 16.442-.003.005 15.732.003 31.464 0 47.19-5.479.003-10.961.003-16.442 0 .003-1.946-.005-3.895.005-5.842-1.234 2.055-3.043 3.732-5.152 4.862-2.027 1.06-4.103 2.136-6.376 2.545-3.47.609-7.06.127-10.383-.977-3.349-1.13-6.524-2.89-9.1-5.329-3.463-3.468-6.03-7.902-6.982-12.733-.941-4.777-.71-9.813.884-14.426 1.446-4.186 3.854-8.04 6.964-11.184m17.94 8.939c-4.53.56-8.62 4.484-8.763 9.146-.101 2.405-.137 5.04 1.288 7.104 2.193 3.437 6.394 5.567 10.473 5.04 2.299-.303 4.585-1.135 6.368-2.646 1.516-1.41 2.683-3.299 2.877-5.394.236-2.589.262-5.349-.943-7.724-.77-1.413-1.747-2.771-3.087-3.691-2.384-1.591-5.381-2.224-8.213-1.832z"/><path d="m138.59 72.01c5.57-.003 11.14-.003 16.709 0 .003 15.73.003 31.462 0 47.19-5.57.003-11.14 0-16.709 0-.003-15.73-.003-31.462 0-47.19"/></g></g></svg>