<svg xmlns="http://www.w3.org/2000/svg" width="600" height="309.61" viewBox="0 0 480.00015 247.68802"><g transform="scale(1.48165)"><g fill="#008c00"><path d="m0 0h323.96c0 55.723 0 111.45 0 167.17h-323.96v-167.17m167 160.36c50.09.001 100.19-.016 150.28.013.044-51.23.008-102.46.018-153.69-50.09-.005-100.19.005-150.29-.005-.018 51.23-.003 102.46-.008 153.68m-22.255-115.64c-2.483.56-4.606 2.273-5.927 4.416-1.257 2.06-1.555 4.624-1.016 6.956.573 2.41 2.185 4.492 4.217 5.87 2.195 1.488 5.064 1.83 7.589 1.076 2.175-.658 4.01-2.206 5.241-4.092 1.501-2.299 1.825-5.261 1.07-7.879-.63-2.162-2.146-4-4.03-5.207-2.094-1.345-4.74-1.674-7.148-1.14m-130.05 5.181c-.003 23.06 0 46.13-.003 69.2 6.01-.005 12.02.026 18.02-.016-.021-8.957-.005-17.914-.008-26.872 5.746 8.962 11.495 17.922 17.235 26.887 7.444.005 14.887.003 22.331.003-7.184-9.421-14.387-18.829-21.566-28.25 4.155-.866 8.143-2.913 10.909-6.184 2.55-2.908 3.911-6.705 4.225-10.53.433-5.05-.213-10.372-2.848-14.784-2.548-4.263-6.964-7.286-11.78-8.392-4.3-.987-8.74-1.016-13.13-1.055-7.796-.005-15.595-.003-23.391 0m70.958 22.994c-4.149 2.224-7.138 6.086-9.362 10.147-3.354 6.179-4.111 13.656-2.229 20.413 1.078 3.82 3.198 7.293 5.865 10.209 2.2 2.335 4.979 4.061 7.915 5.316 3.675 1.519 7.736 2.312 11.705 1.752 2.467-.329 4.714-1.485 6.892-2.625 2.115-1.127 3.916-2.807 5.165-4.857-.013 1.944-.005 3.888-.005 5.832 5.479.003 10.961.003 16.44 0 .003-15.732.005-31.462 0-47.19-5.482.003-10.963-.005-16.442.003.003 1.716-.005 3.434.005 5.15-.832-1.208-1.83-2.32-3.063-3.126-2.26-1.467-4.735-2.695-7.428-3.076-5.189-.796-10.759-.459-15.457 2.058m52.94-.886c0 15.732 0 31.462 0 47.19 5.572.003 11.142 0 16.712 0 .003-15.732.003-31.462 0-47.19-5.57 0-11.14 0-16.712 0z"/><path d="m226.5 27.893c4.803-1.788 9.971-2.304 15.06-2.371 4.906-.062 9.916.223 14.581 1.871 3.859 1.324 7.309 3.595 10.481 6.122 2.921 2.302 5.365 5.215 7.07 8.524 2.06 3.973 3.03 8.46 3.079 12.923.036 4.961-.42 10.191-3.076 14.517-1.374 2.105-2.89 4.217-5.02 5.611-1.407.959-3.01 1.573-4.616 2.107.93.337 1.962.319 2.9.674 3.908 1.089 6.982 3.937 9.613 6.899 2.283 2.397 3.846 5.409 4.79 8.568 1.61 5.518 1.757 11.406.899 17.07-.811 5.14-2.82 10.118-6.03 14.234-3.584 4.637-8.462 8.193-13.822 10.512-6.876 2.978-14.439 4.02-21.885 4.048-7.7.052-15.561-1.081-22.556-4.435-6.503-3.1-12.07-8.255-15.362-14.693-3.113-6.02-4.271-12.881-4.251-19.612 9.312.008 18.625 0 27.939.005.016 4.01.679 8.299 3.302 11.487 2.071 2.568 5.355 3.849 8.584 4.051 4.365.342 8.864-.969 12.324-3.662 2.835-2.257 4.17-5.92 4.388-9.45.259-3.927-.827-8.117-3.631-10.987-2.351-2.348-5.648-3.483-8.895-3.836-1.946-.225-3.906-.277-5.86-.288.008-5.844 0-11.689.003-17.533 2.631-.08 5.414.119 7.858-1.032 1.98-1.039 3.838-2.488 4.909-4.492 1.584-2.879 1.612-6.324 1.192-9.501-.298-2.099-1.682-3.846-3.356-5.064-2.537-2.079-6.04-2.465-9.183-1.952-2.491.402-4.598 1.975-6.275 3.781-1.933 2.213-2.366 5.287-2.366 8.125-8.449.041-16.901.148-25.35.15.251-9.32 4.253-18.503 10.963-24.982 3.38-3.126 7.262-5.785 11.598-7.392"/><path d="m32.703 63.47c2.83.052 5.725-.205 8.486.552 2.628.692 4.935 2.784 5.567 5.471.459 2.01.482 4.17-.148 6.148-.739 2.283-2.804 3.882-5.02 4.621-2.861.951-5.917.71-8.885.746-.005-5.847-.003-11.692-.003-17.539"/><path d="m99.41 84.938c3.058-.412 6.34.337 8.778 2.27 1.959 1.747 3.323 4.217 3.502 6.86.168 2.659.21 5.616-1.485 7.845-1.597 2.462-4.466 3.74-7.265 4.232-4.676.871-9.67-1.843-11.655-6.127-.594-1.379-.684-2.905-.692-4.39-.003-1.547.086-3.139.689-4.585 1.436-3.25 4.585-5.668 8.128-6.106"/></g><g fill="#fff"><path d="m167 160.36c.005-51.23-.001-102.45.008-153.68 50.1.001 100.19 0 150.29.005-.001 51.23.026 102.46-.018 153.69-50.09-.029-100.18-.003-150.28-.013m59.5-132.47c-4.336 1.607-8.219 4.266-11.598 7.392-6.71 6.479-10.712 15.662-10.963 24.982 8.449-.003 16.901-.109 25.35-.15 0-2.838.433-5.912 2.366-8.125 1.677-1.806 3.784-3.38 6.275-3.781 3.141-.513 6.645-.127 9.183 1.952 1.674 1.218 3.058 2.965 3.356 5.064.42 3.178.391 6.622-1.192 9.501-1.07 2-2.929 3.452-4.909 4.492-2.444 1.151-5.228.951-7.858 1.032-.003 5.844.005 11.689-.003 17.533 1.954.001 3.914.062 5.86.288 3.248.352 6.544 1.488 8.895 3.836 2.804 2.869 3.89 7.06 3.631 10.987-.218 3.53-1.552 7.192-4.388 9.45-3.46 2.693-7.959 4-12.324 3.662-3.229-.202-6.513-1.483-8.584-4.051-2.623-3.188-3.286-7.48-3.302-11.487-9.315-.005-18.627.003-27.939-.005-.021 6.731 1.138 13.589 4.251 19.612 3.289 6.438 8.859 11.593 15.362 14.693 6.995 3.354 14.856 4.486 22.556 4.435 7.446-.029 15.01-1.07 21.885-4.048 5.36-2.32 10.238-5.876 13.822-10.512 3.209-4.116 5.217-9.09 6.03-14.234.858-5.663.71-11.552-.899-17.07-.943-3.159-2.506-6.171-4.79-8.568-2.631-2.962-5.705-5.811-9.613-6.899-.938-.355-1.97-.337-2.9-.674 1.607-.534 3.209-1.148 4.616-2.107 2.133-1.394 3.649-3.507 5.02-5.611 2.657-4.326 3.113-9.556 3.076-14.517-.049-4.463-1.019-8.949-3.079-12.923-1.703-3.31-4.147-6.223-7.07-8.524-3.172-2.527-6.622-4.797-10.481-6.122-4.665-1.648-9.675-1.933-14.581-1.871-5.093.067-10.261.583-15.06 2.371z"/><path d="m144.74 44.721c2.408-.534 5.05-.205 7.148 1.14 1.879 1.205 3.395 3.045 4.03 5.207.754 2.618.43 5.58-1.07 7.879-1.231 1.887-3.066 3.434-5.241 4.092-2.524.754-5.394.412-7.589-1.076-2.032-1.379-3.644-3.46-4.217-5.87-.539-2.333-.241-4.896 1.016-6.956 1.322-2.143 3.444-3.857 5.927-4.416"/><path d="m14.693 49.902c7.796-.003 15.595-.005 23.391 0 4.388.039 8.828.067 13.13 1.055 4.816 1.107 9.232 4.129 11.78 8.392 2.636 4.411 3.281 9.737 2.848 14.784-.314 3.825-1.674 7.622-4.225 10.53-2.765 3.271-6.754 5.318-10.909 6.184 7.179 9.424 14.382 18.832 21.566 28.25-7.444 0-14.887.003-22.331-.003-5.741-8.965-11.489-17.925-17.235-26.887.003 8.957-.013 17.914.008 26.872-6.01.041-12.02.001-18.02.016.003-23.06 0-46.13.003-69.2m18.01 13.571c0 5.847-.003 11.692.003 17.539 2.968-.036 6.02.205 8.885-.746 2.213-.739 4.279-2.338 5.02-4.621.63-1.978.606-4.136.148-6.148-.632-2.688-2.939-4.779-5.567-5.471-2.76-.757-5.655-.5-8.486-.552z"/><path d="m85.65 72.897c4.699-2.517 10.269-2.854 15.457-2.058 2.693.381 5.168 1.61 7.428 3.076 1.234.806 2.232 1.918 3.063 3.126-.001-1.716-.003-3.434-.005-5.15 5.479-.008 10.961 0 16.442-.003.005 15.732.003 31.462 0 47.19-5.479.003-10.961.003-16.44 0 0-1.944-.008-3.888.005-5.832-1.249 2.05-3.051 3.73-5.165 4.857-2.177 1.14-4.424 2.296-6.892 2.625-3.968.56-8.03-.233-11.705-1.752-2.936-1.254-5.715-2.981-7.915-5.316-2.667-2.916-4.787-6.389-5.865-10.209-1.882-6.757-1.125-14.234 2.229-20.413 2.224-4.061 5.212-7.923 9.362-10.147m13.76 12.04c-3.543.438-6.692 2.856-8.128 6.106-.604 1.446-.692 3.038-.689 4.585.008 1.485.098 3.01.692 4.39 1.985 4.284 6.98 6.998 11.655 6.127 2.799-.492 5.668-1.77 7.265-4.232 1.695-2.229 1.654-5.186 1.485-7.845-.179-2.644-1.542-5.114-3.501-6.86-2.439-1.933-5.72-2.683-8.778-2.27z"/><path d="m138.59 72.01c5.572 0 11.142 0 16.712 0 .003 15.732.003 31.462 0 47.19-5.57 0-11.14.003-16.712 0 0-15.732 0-31.462 0-47.19"/></g></g></svg>