<?xml version="1.0" encoding="UTF-8" standalone="no"?>
<!-- Created with Inkscape (http://www.inkscape.org/) -->

<svg
   xmlns:dc="http://purl.org/dc/elements/1.1/"
   xmlns:cc="http://creativecommons.org/ns#"
   xmlns:rdf="http://www.w3.org/1999/02/22-rdf-syntax-ns#"
   xmlns:svg="http://www.w3.org/2000/svg"
   xmlns="http://www.w3.org/2000/svg"
   version="1.1"
   width="599.99927"
   height="309.27798"
   id="svg2">
  <defs
     id="defs4" />
  <metadata
     id="metadata7">
    <rdf:RDF>
      <cc:Work
         rdf:about="">
        <dc:format>image/svg+xml</dc:format>
        <dc:type
           rdf:resource="http://purl.org/dc/dcmitype/StillImage" />
        <dc:title></dc:title>
      </cc:Work>
    </rdf:RDF>
  </metadata>
  <g
     transform="matrix(3.0927799,0,0,3.0927799,-736.68616,-1058.0595)"
     id="layer1">
    <g
       transform="matrix(0.33113564,0,0,0.33113564,144.81226,282.71308)"
       id="g2861">
      <path
         d="m 282.00894,179.36218 585.86261,0 0,301.99106 -585.86261,0 0,-301.99106 z"
         id="rect2859"
         style="fill:#d700ff;fill-opacity:1;fill-rule:nonzero;stroke:none" />
      <g
         transform="matrix(2.96324,0,0,2.96324,1198.4498,-654.16837)"
         id="flowRoot2838"
         style="font-size:56px;font-style:normal;font-variant:normal;font-weight:bold;font-stretch:normal;text-align:start;line-height:125%;writing-mode:lr-tb;text-anchor:start;fill:#ffffff;fill-opacity:1;stroke:none;font-family:Futura Bk;-inkscape-font-specification:Futura Bk Bold">
        <path
           d="m -280.53556,325.47964 c -3e-5,-2.0781 -0.6145,-3.20676 -1.66266,-4.10914 -1.0482,-0.90231 -2.42928,-1.35348 -4.92666,-1.35351 l -2.1875,0 0,10.69871 1.9961,0 c 2.42446,2e-5 3.9096,-0.43748 5.05806,-1.3125 1.14842,-0.87498 1.72263,-2.08239 1.72266,-3.92356 z m 15.37316,28.47757 -13.62662,0 -10.52336,-16.40625 0,16.40625 -10.99218,0 0,-42.21875 14.44572,0 c 6.85415,4e-5 9.67798,0.70944 12.44884,2.85132 2.7708,2.14197 4.39727,5.58829 4.3973,10.21847 -3e-5,3.24481 -0.74185,5.71182 -2.34598,7.76258 -1.6042,2.0508 -3.9074,3.4947 -6.96987,4.15093 l 13.16615,17.23545 z"
           id="path2847"
           style="fill:#ffffff" />
        <path
           d="m -241.06068,339.70397 c -3e-5,-2.27863 -0.59259,-3.41224 -1.64986,-4.67918 -1.05731,-1.26691 -3.10617,-1.98559 -4.91084,-1.98561 -1.84116,2e-5 -3.64643,0.75368 -4.77662,2.04793 -1.13022,1.29429 -1.58879,2.24378 -1.58878,4.46772 -1e-5,2.18751 0.38097,3.06705 1.48385,4.34308 1.10284,1.27605 3.02831,2.25496 4.92416,2.25495 1.76821,1e-5 4.06362,-0.82213 5.13917,-2.12553 1.07549,-1.30337 1.37889,-2.19054 1.37892,-4.32336 z m 9.92863,14.2429 -10.03516,0 0,-3.56926 c -1.02086,1.69531 -2.30146,2.58033 -3.8418,3.33684 -1.54038,0.75651 -2.75886,1.34783 -5.14687,1.34783 -3.86459,0 -8.28599,-1.9911 -10.66489,-4.78017 -2.37891,-2.78905 -3.86665,-5.95999 -3.86665,-10.53552 0,-4.73957 2.04625,-8.60894 4.43427,-11.35245 2.38801,-2.74346 5.61457,-4.11521 9.67969,-4.11524 2.13279,3e-5 4.17333,0.28543 5.69548,1.06926 1.52211,0.78388 2.617,1.31433 3.71077,2.95492 l 0,-3.14918 10.03516,0 0,28.79297 z"
           id="path2849"
           style="fill:#ffffff" />
        <path
           d="m -214.49316,354.01747 -10.19922,0 0,-28.79297 10.19922,0 z"
           id="path2855"
           style="fill:#ffffff" />
        <path
           d="m -213.88279,314.15046 c -1e-5,1.5825 -0.56318,2.95088 -1.68952,4.10512 -1.12636,1.15431 -2.47146,1.73144 -4.03531,1.73141 -1.54524,3e-5 -2.88569,-0.58176 -4.02134,-1.74537 -1.13566,-1.16355 -1.70349,-2.52727 -1.70348,-4.09116 -1e-5,-1.56381 0.56316,-2.90892 1.68952,-4.0353 1.12634,-1.12632 2.47144,-1.68949 4.0353,-1.68953 1.58246,4e-5 2.93223,0.55391 4.04928,1.66159 1.11701,1.10778 1.67554,2.46219 1.67555,4.06324 z"
           id="path2851"
           style="fill:#ffffff" />
      </g>
      <g
         transform="matrix(0.85714311,0,0,0.85981309,-426.5053,-134.149)"
         id="g2870">
        <path
           d="m 1178.9225,378.67627 317.0905,0 0,323.13043 -317.0905,0 0,-323.13043 z"
           id="rect2858"
           style="fill:#ffffff;fill-opacity:1;fill-rule:nonzero;stroke:none" />
      </g>
      <g
         transform="matrix(54.090325,0,0,54.090325,-17064.053,-6309.5215)"
         id="flowRoot2891"
         style="font-size:10px;font-style:normal;font-variant:normal;font-weight:bold;font-stretch:normal;text-align:start;line-height:125%;writing-mode:lr-tb;text-anchor:start;fill:#ab167f;fill-opacity:0.94117647;stroke:none;font-family:Futura Bk;-inkscape-font-specification:Futura Bk Bold">
        <path
           d="m 328.98654,123.09515 -0.007,-1.54019 -0.9373,1.54019 0.94433,0 z m 1.32397,0.73219 -0.44728,0 0,0.78979 -0.87669,0 0,-0.78979 -1.85574,0 0,-0.63756 1.48132,-2.37635 1.25111,0 0,2.28049 0.44728,0 0,0.73342 z"
           id="path2902"
           style="fill:#d700ff;fill-opacity:0.94117647" />
      </g>
    </g>
  </g>
</svg>
