<?xml version="1.0" encoding="UTF-8" standalone="no"?>
<svg xmlns="http://www.w3.org/2000/svg" height="309.28" viewBox="0 0 600 309.27838" width="600" version="1.1">
 <path d="m0 0h600v309.28h-600z" fill="#d700ff"/>
 <g fill="#fff">
  <path d="m87.201 134.1c0-6.3-1.865-9.73-5.045-12.47-3.181-2.73-7.373-4.1-14.952-4.1h-6.638v32.46h6.058c7.357 0 11.864-1.32 15.35-3.98 3.485-2.65 5.227-6.32 5.227-11.91zm46.649 86.43h-41.348l-31.936-49.79v49.79h-33.359v-128.13h43.84c20.8 0.003 29.373 2.156 37.783 8.66 8.4 6.5 13.34 16.95 13.34 31.01 0 9.84-2.25 17.33-7.12 23.55-4.87 6.23-11.86 10.61-21.151 12.6z"/>
  <path d="m207 177.27c0-6.91-1.8-10.35-5.01-14.2-3.21-3.84-9.43-6.03-14.9-6.03-5.59 0-11.07 2.29-14.5 6.22s-4.82 6.81-4.82 13.56c0 6.64 1.16 9.31 4.5 13.18 3.35 3.87 9.19 6.84 14.95 6.84 5.36 0 12.33-2.49 15.59-6.45 3.27-3.95 4.19-6.65 4.19-13.12zm30.13 43.22h-30.46v-10.83c-3.09 5.15-6.98 7.83-11.65 10.13-4.68 2.29-8.38 4.09-15.62 4.09-11.73 0-25.15-6.04-32.37-14.51-7.22-8.46-11.73-18.08-11.73-31.97 0-14.38 6.21-26.13 13.45-34.45 7.25-8.33 17.04-12.49 29.38-12.49 6.47 0 12.66 0.87 17.28 3.24 4.62 2.38 7.94 3.99 11.26 8.97v-9.56h30.46z"/>
  <path d="m287.62 220.71h-30.95v-87.38h30.95z"/>
  <path d="m289.48 99.722c0 4.798-1.71 8.958-5.13 12.458s-7.5 5.25-12.25 5.25c-4.69 0-8.76-1.76-12.2-5.29-3.45-3.53-5.17-7.67-5.17-12.418 0-4.745 1.71-8.827 5.13-12.246 3.41-3.418 7.5-5.127 12.24-5.127 4.8 0 8.9 1.681 12.29 5.042 3.39 3.362 5.09 7.473 5.09 12.331z"/>
  <path d="m309.28 12.371h278.35v284.54h-278.35z"/>
 </g>
 <path d="m459.76 173.46-0.39-85.32-51.92 85.32h52.31zm73.34 40.56h-24.78v43.75h-48.56v-43.75h-102.8v-35.32l82.06-131.64h69.3v126.33h24.78z" fill-opacity=".94118" fill="#d700ff"/>
</svg>
