<svg xmlns="http://www.w3.org/2000/svg" viewBox="0 0 600 321.03"><path d="m276.04 248.69c-.078 3.668-.25 7.212-.453 10.646-.234 3.434-.687 6.791-1.405 10.116-.718 3.294-1.733 6.541-3.075 9.71-1.342 3.153-3.122 6.307-5.354 9.429-4.995 6.947-11.07 12-18.202 15.11-7.134 3.138-14.939 4.714-23.416 4.714-7.961 0-15.236-1.311-21.823-3.918-6.603-2.56-12.27-6.197-16.984-10.912-4.73-4.668-8.414-10.272-11.04-16.781-2.638-6.51-3.949-13.721-3.949-21.683 0-8.211 1.311-15.657 3.949-22.338 2.623-6.712 6.353-12.41 11.161-17.14 4.839-4.73 10.599-8.398 17.327-10.974 6.728-2.576 14.174-3.887 22.292-3.887 10.443 0 19.544 2.342 27.303 7.02 7.758 4.683 13.831 11.77 18.19 21.21l-24.883 10.443c-1.795-4.824-4.527-8.711-8.227-11.645-3.7-2.935-8.227-4.418-13.597-4.418-4.246 0-8.07.937-11.364 2.81-3.294 1.873-6.06 4.324-8.227 7.368-2.185 3.03-3.84 6.431-4.933 10.225-1.124 3.793-1.67 7.602-1.67 11.458 0 3.903.578 7.774 1.733 11.567 1.14 3.793 2.857 7.181 5.073 10.1 2.248 2.95 5.01 5.339 8.367 7.165 3.341 1.826 7.15 2.747 11.427 2.747 5.713 0 10.537-1.436 14.455-4.355 3.934-2.904 6.182-7.29 6.697-13.191h-21.402v-20.606h52.03m34.14-12.317v36.684c0 2.139.14 4.137.468 5.948.312 1.842.905 3.419 1.78 4.761.905 1.342 2.17 2.373 3.746 3.075 1.623.718 3.668 1.062 6.166 1.062 2.498 0 4.558-.343 6.166-1.062 1.623-.702 2.872-1.733 3.746-3.075.874-1.342 1.483-2.919 1.795-4.761.328-1.811.468-3.809.468-5.948v-36.684h24.368v41.37c0 5.62-.952 10.318-2.81 14.11-1.873 3.793-4.433 6.837-7.696 9.101-3.263 2.279-7.118 3.903-11.583 4.886-4.465.999-9.273 1.483-14.455 1.483-5.167 0-9.975-.484-14.377-1.483-4.418-.983-8.273-2.607-11.583-4.886-3.294-2.263-5.885-5.308-7.758-9.101-1.873-3.793-2.81-8.492-2.81-14.11v-41.37zm87.25 68.67h-24.368v-111.08h24.368zm38.28-60.912h.265c2.248-3.356 5.245-5.885 9.04-7.54 3.793-1.655 7.68-2.498 11.708-2.498 5.073 0 9.772 1.015 14.05 3.044 4.262 1.998 7.93 4.668 10.974 8.01 3.01 3.341 5.401 7.259 7.087 11.723 1.686 4.449 2.544 9.148 2.544 14.05 0 4.902-.859 9.569-2.544 13.971-1.686 4.433-4.059 8.305-7.02 11.661-2.982 3.341-6.603 5.963-10.834 7.883-4.23 1.936-8.882 2.888-13.987 2.888-4.01 0-7.914-.718-11.723-2.139-3.778-1.436-6.978-3.653-9.554-6.697v40.821h-24.352v-102.93h24.352zm14.861 11.13c-2.513 0-4.714.421-6.635 1.28-1.92.843-3.559 1.951-4.886 3.325-1.358 1.389-2.388 3.01-3.091 4.886-.718 1.889-1.061 3.887-1.061 6.03 0 4.371 1.358 8.02 4.09 10.974 2.716 2.95 6.572 4.433 11.583 4.433 4.964 0 8.835-1.483 11.567-4.433 2.716-2.95 4.074-6.603 4.074-10.974 0-2.139-.343-4.137-1.062-6.03-.718-1.873-1.733-3.497-3.06-4.886-1.358-1.374-2.982-2.482-4.886-3.325-1.936-.859-4.137-1.28-6.634-1.28m-559.19-128.57v251.75h61.833v69.28l64.783-69.28h125.4v-251.75z" fill="#12c3f4" transform="translate(108.63-126.7)"/><path d="m50.837 122.82h2.529c8.554 0 18.14-1.592 18.14-12.52 0-10.943-9.585-12.566-18.14-12.566h-2.529zm57.49 55.53h-32.548l-24.68-38.698h-.281v38.698h-26.15v-100.62h39.07c19.903 0 34.967 9.491 34.967 30.971 0 13.878-7.743 25.882-22.01 28.426l31.627 41.23m26.07-34.17c0 8.679 5.745 15.345 15.61 15.345 9.881 0 15.61-6.666 15.61-15.345 0-8.398-5.729-15.47-15.61-15.47-9.866 0-15.61 7.07-15.61 15.47m54.699 34.17h-24.29v-7.602h-.265c-4.277 6.806-12.66 9.866-20.684 9.866-20.293 0-34.546-16.953-34.546-36.544 0-19.653 14-36.45 34.28-36.45 7.852 0 16.14 2.935 21.2 8.945v-6.666h24.29v68.45zm40.79-94.74c0 7.462-6.151 13.612-13.612 13.612-7.462 0-13.581-6.15-13.581-13.612 0-7.477 6.135-13.628 13.581-13.628 7.477 0 13.612 6.15 13.612 13.628m-1.467 94.74h-24.26v-68.45h24.26z" fill="#fff"/></svg>