<?xml version="1.0" encoding="UTF-8" standalone="no"?>
<!-- Created with Inkscape (http://www.inkscape.org/) -->

<svg
   xmlns:dc="http://purl.org/dc/elements/1.1/"
   xmlns:cc="http://creativecommons.org/ns#"
   xmlns:rdf="http://www.w3.org/1999/02/22-rdf-syntax-ns#"
   xmlns:svg="http://www.w3.org/2000/svg"
   xmlns="http://www.w3.org/2000/svg"
   version="1.1"
   width="599.99982"
   height="321.02701"
   id="svg2">
  <metadata
     id="metadata3397">
    <rdf:RDF>
      <cc:Work
         rdf:about="">
        <dc:format>image/svg+xml</dc:format>
        <dc:type
           rdf:resource="http://purl.org/dc/dcmitype/StillImage" />
        <dc:title></dc:title>
      </cc:Work>
    </rdf:RDF>
  </metadata>
  <defs
     id="defs3395" />
  <g
     id="g3034">
    <g
       transform="translate(108.63354,-126.69923)"
       id="layer1">
      <path
         d="m 276.03692,248.69419 c -0.078,3.66841 -0.24977,7.21197 -0.4527,10.64624 -0.23416,3.43429 -0.68685,6.79051 -1.40492,10.11552 -0.71808,3.29378 -1.73276,6.54074 -3.07525,9.70966 -1.34248,3.15329 -3.12207,6.30656 -5.35434,9.42864 -4.99533,6.94662 -11.06776,12.00437 -18.20169,15.11084 -7.13393,3.13766 -14.93911,4.71432 -23.41553,4.71432 -7.96128,0 -15.23573,-1.31127 -21.82329,-3.9182 -6.60317,-2.5601 -12.26974,-6.1973 -16.98406,-10.91164 -4.72994,-4.66751 -8.41399,-10.27162 -11.03653,-16.78114 -2.63815,-6.50952 -3.94942,-13.72149 -3.94942,-21.68279 0,-8.21103 1.31127,-15.65718 3.94942,-22.33843 2.62254,-6.71244 6.35342,-12.41022 11.1614,-17.14016 4.83921,-4.72994 10.59944,-8.39837 17.3275,-10.97409 6.72807,-2.5757 14.17421,-3.88697 22.29161,-3.88697 10.44332,0 19.54415,2.34155 27.3025,7.02466 7.75834,4.6831 13.83078,11.7702 18.18607,21.21449 l -24.88291,10.44332 c -1.79518,-4.82361 -4.52702,-8.71058 -8.22666,-11.64534 -3.69965,-2.93474 -8.22667,-4.41773 -13.59663,-4.41773 -4.24602,0 -8.07056,0.93664 -11.36434,2.80988 -3.29379,1.87323 -6.05681,4.32406 -8.22666,7.36808 -2.18545,3.0284 -3.84014,6.43146 -4.93287,10.22479 -1.12394,3.79332 -1.67029,7.60223 -1.67029,11.458 0,3.9026 0.57756,7.77395 1.73274,11.56728 1.13954,3.79331 2.85668,7.18076 5.07337,10.09989 2.24789,2.95037 5.01091,5.33874 8.36715,7.16517 3.34062,1.8264 7.14954,2.74741 11.42677,2.74741 5.7134,0 10.537,-1.43615 14.45519,-4.35528 3.93382,-2.90354 6.18172,-7.29004 6.69686,-13.19077 l -21.40181,0 0,-20.60565 52.02932,0 m 34.13985,-12.31659 0,36.68435 c 0,2.13862 0.14046,4.13673 0.46832,5.94753 0.31221,1.84203 0.90539,3.41869 1.77958,4.76118 0.90539,1.34248 2.16984,2.37276 3.74649,3.07523 1.62348,0.71808 3.66843,1.0615 6.16609,1.0615 2.49766,0 4.55823,-0.34342 6.1661,-1.0615 1.62348,-0.70247 2.87231,-1.73275 3.74648,-3.07523 0.87418,-1.34249 1.48298,-2.91915 1.79519,-4.76118 0.32782,-1.8108 0.4683,-3.80891 0.4683,-5.94753 l 0,-36.68435 24.36784,0 0,41.36746 c 0,5.61972 -0.95223,10.31845 -2.80995,14.11176 -1.87321,3.79331 -4.43329,6.83734 -7.69585,9.10083 -3.26259,2.27912 -7.11835,3.90261 -11.58292,4.88605 -4.46455,0.99905 -9.27255,1.48298 -14.45519,1.48298 -5.16702,0 -9.97502,-0.48393 -14.37715,-1.48298 -4.41773,-0.98344 -8.27348,-2.60693 -11.58288,-4.88605 -3.29378,-2.26349 -5.8851,-5.30752 -7.75835,-9.10083 -1.87324,-3.79331 -2.80986,-8.49204 -2.80986,-14.11176 l 0,-41.36746 z m 87.24628,68.66998 -24.36779,0 0,-111.08331 24.36779,0 z m 38.27665,-60.91163 0.26537,0 c 2.24783,-3.35622 5.24502,-5.8851 9.03832,-7.53979 3.79331,-1.65471 7.68036,-2.49766 11.70778,-2.49766 5.0734,0 9.77206,1.01467 14.04936,3.04401 4.26154,1.99813 7.9301,4.66751 10.97404,8.00812 3.01294,3.34061 5.40115,7.25881 7.08724,11.72338 1.68584,4.44895 2.54445,9.14767 2.54445,14.04932 0,4.90165 -0.85861,9.56914 -2.54445,13.97127 -1.68609,4.43334 -4.0588,8.30471 -7.02474,11.66094 -2.98157,3.34061 -6.60325,5.96316 -10.83355,7.88322 -4.23042,1.93569 -8.88233,2.88792 -13.98698,2.88792 -4.0118,0 -7.91435,-0.71807 -11.72328,-2.13861 -3.7778,-1.43617 -6.97786,-3.65283 -9.55356,-6.69684 l 0,40.82108 -24.35217,0 0,-102.93471 24.35217,0 z m 14.86109,11.13019 c -2.51333,0 -4.71441,0.42148 -6.6345,1.28005 -1.92009,0.84296 -3.55918,1.9513 -4.88603,3.325 -1.3581,1.38932 -2.38833,3.0128 -3.09082,4.88604 -0.71811,1.88887 -1.06148,3.88699 -1.06148,6.0256 0,4.3709 1.3581,8.02373 4.08992,10.97409 2.7162,2.95034 6.57188,4.43333 11.58291,4.43333 4.96403,0 8.83545,-1.48299 11.56728,-4.43333 2.7162,-2.95036 4.07429,-6.60319 4.07429,-10.97409 0,-2.13861 -0.34349,-4.13673 -1.0616,-6.0256 -0.71799,-1.87324 -1.73272,-3.49672 -3.05957,-4.88604 -1.3581,-1.3737 -2.98157,-2.48204 -4.88603,-3.325 -1.93571,-0.85857 -4.1368,-1.28005 -6.63437,-1.28005 z m -559.19433,-128.56691 0,251.74825 61.832618,0 0,69.27875 64.78302,-69.27875 125.397992,0 0,-251.74825 z"
         id="path3131"
         style="fill:#12c3f4;fill-opacity:1" />
    </g>
    <path
       d="m 50.83697,122.82246 2.52888,0 c 8.55448,0 18.13925,-1.59224 18.13925,-12.51951 0,-10.942846 -9.58477,-12.566326 -18.13925,-12.566326 l -2.52887,0 z m 57.49294,55.52606 -32.54758,0 -24.67998,-38.69808 -0.28098,0 0,38.69808 -26.14736,0 -10e-6,-100.624396 39.07275,0 c 19.90319,0 34.9672,9.49111 34.9672,30.970966 0,13.87761 -7.74273,25.88199 -22.0106,28.42646 l 31.62658,41.22697 z m 26.0693,-34.17109 c 0,8.67937 5.7446,15.34498 15.61036,15.34498 9.88135,0 15.61036,-6.66561 15.61036,-15.34498 0,-8.39837 -5.72901,-15.46986 -15.61036,-15.46986 -9.86576,0 -15.61036,7.07149 -15.61036,15.46986 m 54.69868,34.17109 -24.2897,0 0,-7.60225 -0.26538,0 c -4.27724,6.80611 -12.66,9.86574 -20.68373,9.86574 -20.29346,0 -34.54571,-16.95284 -34.54571,-36.54384 0,-19.65345 14.00248,-36.45019 34.28034,-36.45019 7.852,0 16.14112,2.93474 21.19886,8.94473 l 0,-6.66561 24.28972,0 0,68.45142 z M 229.8878,83.609244 c 0,7.46174 -6.15051,13.61224 -13.61224,13.61224 -7.46177,0 -13.58101,-6.1505 -13.58101,-13.61224 0,-7.47736 6.13484,-13.627857 13.58101,-13.627857 7.47733,0 13.61224,6.150497 13.61224,13.627857 m -1.4674,94.739276 -24.25851,0 0,-68.45142 24.25851,0 z"
       id="path3131-7"
       style="fill:#ffffff;fill-opacity:1" />
  </g>
</svg>
