<svg xmlns="http://www.w3.org/2000/svg" viewBox="0 0 600 310.4"><g transform="matrix(2.51054 0 0 2.51054-2473.76-1567)"><path d="m985.35 624.17v123.64h123.64v-123.64h-123.64" fill="#0807a0"/><g transform="matrix(.94202 0 0 .94202 525.15 420.04)" fill="#fff"><path d="m525.63 288.82l17.06 22.247h-17.569l-13.32-20.881h-.143v20.881h-14.11v-54.29h21.1c5.376.048 9.864 1.404 13.464 4.068 3.6 2.664 5.4 6.9 5.4 12.708 0 3.744-1.02 7.07-3.06 9.972-2.04 2.904-4.979 4.692-8.819 5.362zm-13.968-21.241v13.537h1.367c.24.047.48.07.721.07.24 0 .456 0 .648 0 2.112-.095 4.04-.587 5.796-1.475 1.752-.888 2.628-2.652 2.628-5.292 0-2.64-.876-4.404-2.628-5.292-1.752-.888-3.684-1.38-5.796-1.475-.192 0-.408 0-.648 0-.24 0-.48 0-.721 0l-1.367-.072"/><path d="m586.59 274.13v36.936h-13.1v-4.104h-.143c-1.056 1.729-2.496 3.01-4.321 3.853-1.824.84-3.72 1.308-5.688 1.403-.192.048-.384.072-.576.072-.192 0-.384 0-.576 0-5.473 0-9.949-1.956-13.429-5.868-3.48-3.912-5.22-8.508-5.22-13.789 0-5.279 1.716-9.875 5.147-13.787 3.431-3.912 7.883-5.868 13.356-5.868.24 0 .48 0 .721 0 .24 0 .48.024.719.07 1.872.145 3.708.613 5.509 1.405 1.8.792 3.3 1.908 4.5 3.348v-3.672h13.1m-21.1 10.151c-2.64.048-4.704.901-6.192 2.557-1.488 1.656-2.232 3.612-2.232 5.868 0 2.353.744 4.321 2.232 5.904 1.488 1.584 3.552 2.375 6.192 2.375 2.688 0 4.764-.792 6.228-2.375 1.464-1.583 2.196-3.551 2.196-5.904 0-2.256-.732-4.212-2.196-5.868-1.464-1.656-3.54-2.484-6.228-2.484z"/><path d="m608.38 274.13v36.936h-13.1v-36.936h13.1m-6.552-21.529c2.02.048 3.743.793 5.183 2.232 1.44 1.44 2.16 3.168 2.16 5.183 0 2.02-.72 3.746-2.16 5.186-1.44 1.44-3.168 2.16-5.183 2.16-2.02 0-3.743-.72-5.183-2.16-1.44-1.44-2.16-3.168-2.16-5.186 0-2.02.72-3.743 2.16-5.183 1.44-1.44 3.168-2.16 5.183-2.16z"/></g><g transform="matrix(.94883 0 0 .94883 558.11 385.24)" fill="#0807a0"><path d="m610.89 312.24h20.375v-20.951h14.11v54.29h-14.11v-22.247h-20.375v22.247h-14.11v-54.29h14.11v20.951"/><path d="m654.58 345.58v-54.29h20.02c7.583.048 14.08 2.688 19.475 7.92 5.4 5.232 8.1 11.663 8.1 19.295 0 7.632-2.712 14.05-8.136 19.26-5.424 5.208-11.904 7.812-19.439 7.812h-20.02m14.11-42.34v30.386h3.166c4.225.047 7.885-1.141 10.981-3.565 3.096-2.424 4.644-6.276 4.644-11.557 0-4.847-1.44-8.591-4.32-11.231-2.88-2.64-6.6-3.961-11.16-3.961l-3.311-.072"/></g></g></svg>