<?xml version="1.0" encoding="UTF-8" standalone="no"?>
<!-- Created with Inkscape (http://www.inkscape.org/) -->

<svg
   xmlns:dc="http://purl.org/dc/elements/1.1/"
   xmlns:cc="http://creativecommons.org/ns#"
   xmlns:rdf="http://www.w3.org/1999/02/22-rdf-syntax-ns#"
   xmlns:svg="http://www.w3.org/2000/svg"
   xmlns="http://www.w3.org/2000/svg"
   version="1.1"
   width="600"
   height="210.8335"
   id="svg4041">
  <defs
     id="defs4043" />
  <metadata
     id="metadata4046">
    <rdf:RDF>
      <cc:Work
         rdf:about="">
        <dc:format>image/svg+xml</dc:format>
        <dc:type
           rdf:resource="http://purl.org/dc/dcmitype/StillImage" />
        <dc:title></dc:title>
      </cc:Work>
    </rdf:RDF>
  </metadata>
  <g
     transform="translate(-54.271112,-426.03019)"
     id="layer1">
    <g
       transform="matrix(1.7052134,0,0,1.7052134,-1625.9626,-399.58472)"
       id="g3405">
      <path
         d="m 985.35099,484.17102 0,123.64053 123.64051,0 0,-123.64053 -123.64051,0 z"
         id="path3360"
         style="fill:#980b1c;fill-opacity:1;stroke:none" />
      <g
         transform="matrix(0.94202084,0,0,0.94202084,525.14693,280.03701)"
         id="g3362"
         style="font-size:72px;font-style:normal;font-variant:normal;font-weight:normal;font-stretch:normal;text-align:start;line-height:100%;writing-mode:lr-tb;text-anchor:start;fill:#ffffff;fill-opacity:1;stroke:none;font-family:Futura-Bold;-inkscape-font-specification:Futura-Bold">
        <path
           d="m 525.62604,288.81665 17.06396,22.24731 -17.56933,0 -13.31983,-20.88061 -0.14282,0 0,20.88061 -14.11304,0 0,-54.28784 21.09595,0 c 5.37595,0.0484 9.86386,1.40447 13.46375,4.06824 3.59981,2.66387 5.39973,6.89982 5.39978,12.70789 -5e-5,3.74417 -1.01995,7.06826 -3.0597,9.97229 -2.03983,2.90407 -4.9794,4.69155 -8.81872,5.36242 z m -13.96802,-21.24097 0,13.53736 1.3667,0 c 0.24021,0.0469 0.48045,0.0703 0.7207,0.0703 0.24022,3e-5 0.45628,3e-5 0.6482,0 2.11228,-0.0952 4.0444,-0.58701 5.79638,-1.47546 1.75193,-0.8884 2.6279,-2.65244 2.62793,-5.29212 -3e-5,-2.63961 -0.876,-4.40364 -2.62793,-5.29211 -1.75198,-0.88839 -3.6841,-1.38021 -5.79638,-1.47547 -0.19192,5e-5 -0.40798,5e-5 -0.6482,0 -0.24025,5e-5 -0.48049,5e-5 -0.7207,0 l -1.3667,-0.0725 z"
           id="path3364"
           style="fill:#ffffff" />
        <path
           d="m 586.58698,274.12793 0,36.93603 -13.1045,0 0,-4.10449 -0.14282,0 c -1.05618,1.72852 -2.49649,3.01282 -4.32092,3.85291 -1.82449,0.84009 -3.72036,1.30774 -5.68762,1.40295 -0.19192,0.0483 -0.38381,0.0725 -0.57569,0.0725 -0.19191,0 -0.38381,0 -0.57568,0 -5.47267,0 -9.94886,-1.95593 -13.42859,-5.8678 -3.47974,-3.91185 -5.21961,-8.50816 -5.2196,-13.78894 -10e-6,-5.27927 1.71569,-9.87485 5.14709,-13.78674 3.43139,-3.91183 7.88341,-5.86776 13.35608,-5.8678 0.24021,4e-5 0.48045,4e-5 0.7207,0 0.24022,4e-5 0.47972,0.0235 0.71851,0.0703 1.87204,0.14506 3.70822,0.61345 5.50854,1.40516 1.80027,0.79178 3.30027,1.90762 4.5,3.34753 l 0,-3.67163 13.1045,0 z m -21.09595,10.15137 c -2.63967,0.0484 -4.70363,0.90054 -6.1919,2.55652 -1.48829,1.65602 -2.23243,3.61195 -2.23242,5.86779 -10e-6,2.35256 0.74413,4.32057 2.23242,5.90406 1.48827,1.5835 3.55223,2.37525 6.1919,2.37524 2.68796,10e-6 4.76401,-0.79174 6.22815,-2.37524 1.46408,-1.58349 2.19613,-3.5515 2.19616,-5.90406 -3e-5,-2.25584 -0.73208,-4.21177 -2.19616,-5.86779 -1.46414,-1.65598 -3.54019,-2.48399 -6.22815,-2.48401 z"
           id="path3366"
           style="fill:#ffffff" />
        <path
           d="m 608.37726,274.12793 0,36.93603 -13.10449,0 0,-36.93603 13.10449,0 z m -6.55225,-21.52881 c 2.01561,0.0484 3.7434,0.79254 5.18335,2.23242 1.43993,1.44 2.1599,3.16778 2.15991,5.18335 -10e-6,2.01714 -0.71998,3.74566 -2.15991,5.18555 -1.43995,1.43999 -3.16774,2.15996 -5.18335,2.15991 -2.01563,5e-5 -3.74341,-0.71992 -5.18335,-2.15991 -1.43994,-1.43989 -2.15991,-3.16841 -2.15991,-5.18555 0,-2.01557 0.71997,-3.74335 2.15991,-5.18335 1.43994,-1.43988 3.16772,-2.15985 5.18335,-2.15991 z"
           id="path3368"
           style="fill:#ffffff" />
      </g>
      <g
         transform="matrix(0.95030464,0,0,0.95030464,582.65052,249.41223)"
         id="text3390"
         style="font-size:72px;font-style:normal;font-variant:normal;font-weight:normal;font-stretch:normal;text-align:start;line-height:100%;writing-mode:lr-tb;text-anchor:start;fill:#980b1c;fill-opacity:1;stroke:none;font-family:Futura-Bold;-inkscape-font-specification:Futura-Bold">
        <path
           d="m 568.06378,340.93222 9.21533,-54.28784 13.89551,0 11.01709,29.01489 11.66309,-29.01489 14.04052,0 8.20679,54.28784 -14.11084,0 -3.95947,-31.24731 -0.14502,0 -13.03198,31.24731 -5.61621,0 -12.4563,-31.24731 -0.14282,0 -4.53736,31.24731 -14.03833,0 z"
           id="path3395"
           style="fill:#980b1c;fill-opacity:1" />
        <path
           d="m 661.2608,302.77231 c 5.95163,0.0484 11.1478,1.78861 15.5885,5.2207 4.44063,3.43216 6.66097,8.29177 6.66101,14.57886 -4e-5,6.24025 -2.22038,11.06434 -6.66101,14.47229 -4.4407,3.40796 -9.63687,5.11194 -15.5885,5.11194 -5.90334,0 -11.08705,-1.6919 -15.55114,-5.07569 -4.46412,-3.38378 -6.69617,-8.21995 -6.69617,-14.50854 0,-6.28709 2.21997,-11.1467 6.65991,-14.57886 4.43993,-3.43209 9.63573,-5.14815 15.5874,-5.14819 z m 0,11.37524 c -2.63967,0.0484 -4.70363,0.90054 -6.19189,2.55652 -1.4883,1.65603 -2.23244,3.61196 -2.23242,5.8678 -2e-5,2.35255 0.74412,4.32057 2.23242,5.90405 1.48826,1.58351 3.55222,2.37526 6.19189,2.37525 2.68796,10e-6 4.76401,-0.79174 6.22815,-2.37525 1.46408,-1.58348 2.19614,-3.5515 2.19617,-5.90405 -3e-5,-2.25584 -0.73209,-4.21177 -2.19617,-5.8678 -1.46414,-1.65598 -3.54019,-2.48398 -6.22815,-2.48401 z"
           id="path3397"
           style="fill:#980b1c;fill-opacity:1" />
        <path
           d="m 698.7088,303.99619 8.85718,18.93603 8.78247,-18.93603 14.68872,0 -19.29639,36.93603 -8.3518,0 -19.3689,-36.93603 14.68872,0 z"
           id="path3399"
           style="fill:#980b1c;fill-opacity:1" />
        <path
           d="m 747.38483,303.99619 0,36.93603 -13.1045,0 0,-36.93603 13.1045,0 z m -6.55225,-21.52881 c 2.01561,0.0484 3.74339,0.79253 5.18335,2.23242 1.43992,1.43999 2.15989,3.16778 2.15991,5.18335 -2e-5,2.01714 -0.71999,3.74565 -2.15991,5.18555 -1.43996,1.43998 -3.16774,2.15995 -5.18335,2.15991 -2.01563,4e-5 -3.74341,-0.71993 -5.18335,-2.15991 -1.43994,-1.4399 -2.15991,-3.16841 -2.15991,-5.18555 0,-2.01557 0.71997,-3.74336 2.15991,-5.18335 1.43994,-1.43989 3.16772,-2.15986 5.18335,-2.15991 z"
           id="path3401"
           style="fill:#980b1c;fill-opacity:1" />
        <path
           d="m 794.02179,323.29257 0,1.3667 -27.57568,0 c -2e-5,2.688 0.69578,4.74025 2.0874,6.15674 1.39158,1.41651 3.43137,2.12476 6.11938,2.12476 1.39158,0 2.60374,-0.26403 3.63648,-0.79212 1.03268,-0.52807 1.90866,-1.39196 2.62793,-2.59167 l 12.59912,-0.0725 c -1.05473,4.41651 -3.39408,7.63257 -7.01807,9.64819 -3.62405,2.01562 -7.54836,3.02344 -11.77295,3.02344 -6.09669,0 -11.18482,-1.66809 -15.2644,-5.00428 -4.07959,-3.33617 -6.11939,-8.19615 -6.11939,-14.57995 0,-6.14353 1.90796,-10.96726 5.72388,-14.47119 3.81591,-3.50387 8.72386,-5.25582 14.72388,-5.25586 6.4321,4e-5 11.4122,1.84793 14.94031,5.5437 3.52803,3.69583 5.29207,8.68801 5.29211,14.97656 z m -27.36035,-6.19189 15.19189,0 c -0.33548,-1.72849 -1.21145,-3.12083 -2.62793,-4.177 -1.41653,-1.05613 -3.01247,-1.5842 -4.78784,-1.58423 -1.92043,3e-5 -3.6006,0.49221 -5.04053,1.47656 -1.43995,0.9844 -2.35182,2.43679 -2.73559,4.35718 z"
           id="path3403"
           style="fill:#980b1c;fill-opacity:1" />
      </g>
    </g>
  </g>
</svg>
