<svg xmlns="http://www.w3.org/2000/svg" viewBox="0 0 600 210.83"><g transform="matrix(1.70521 0 0 1.70521-1680.23-825.61)"><path d="m985.35 484.17v123.64h123.64v-123.64h-123.64" fill="#980b1c"/><g transform="matrix(.94202 0 0 .94202 525.15 280.04)" fill="#fff"><path d="m525.63 288.82l17.06 22.247h-17.569l-13.32-20.881h-.143v20.881h-14.11v-54.29h21.1c5.376.048 9.864 1.404 13.464 4.068 3.6 2.664 5.4 6.9 5.4 12.708 0 3.744-1.02 7.07-3.06 9.972-2.04 2.904-4.979 4.692-8.819 5.362zm-13.968-21.241v13.537h1.367c.24.047.48.07.721.07.24 0 .456 0 .648 0 2.112-.095 4.04-.587 5.796-1.475 1.752-.888 2.628-2.652 2.628-5.292 0-2.64-.876-4.404-2.628-5.292-1.752-.888-3.684-1.38-5.796-1.475-.192 0-.408 0-.648 0-.24 0-.48 0-.721 0l-1.367-.072"/><path d="m586.59 274.13v36.936h-13.1v-4.104h-.143c-1.056 1.729-2.496 3.01-4.321 3.853-1.824.84-3.72 1.308-5.688 1.403-.192.048-.384.072-.576.072-.192 0-.384 0-.576 0-5.473 0-9.949-1.956-13.429-5.868-3.48-3.912-5.22-8.508-5.22-13.789 0-5.279 1.716-9.875 5.147-13.787 3.431-3.912 7.883-5.868 13.356-5.868.24 0 .48 0 .721 0 .24 0 .48.024.719.07 1.872.145 3.708.613 5.509 1.405 1.8.792 3.3 1.908 4.5 3.348v-3.672h13.1m-21.1 10.151c-2.64.048-4.704.901-6.192 2.557-1.488 1.656-2.232 3.612-2.232 5.868 0 2.353.744 4.321 2.232 5.904 1.488 1.584 3.552 2.375 6.192 2.375 2.688 0 4.764-.792 6.228-2.375 1.464-1.583 2.196-3.551 2.196-5.904 0-2.256-.732-4.212-2.196-5.868-1.464-1.656-3.54-2.484-6.228-2.484z"/><path d="m608.38 274.13v36.936h-13.1v-36.936h13.1m-6.552-21.529c2.02.048 3.743.793 5.183 2.232 1.44 1.44 2.16 3.168 2.16 5.183 0 2.02-.72 3.746-2.16 5.186-1.44 1.44-3.168 2.16-5.183 2.16-2.02 0-3.743-.72-5.183-2.16-1.44-1.44-2.16-3.168-2.16-5.186 0-2.02.72-3.743 2.16-5.183 1.44-1.44 3.168-2.16 5.183-2.16z"/></g><g transform="matrix(.9503 0 0 .9503 582.65 249.41)" fill="#980b1c"><path d="m568.06 340.93l9.215-54.29h13.896l11.02 29.01 11.663-29.01h14.04l8.207 54.29h-14.11l-3.959-31.25h-.145l-13.03 31.25h-5.616l-12.456-31.25h-.143l-4.537 31.25h-14.04"/><path d="m661.26 302.77c5.952.048 11.148 1.789 15.588 5.221 4.441 3.432 6.661 8.292 6.661 14.579 0 6.24-2.22 11.06-6.661 14.472-4.441 3.408-9.637 5.112-15.588 5.112-5.903 0-11.09-1.692-15.551-5.076-4.464-3.384-6.696-8.22-6.696-14.509 0-6.287 2.22-11.147 6.66-14.579 4.44-3.432 9.636-5.148 15.587-5.148zm0 11.375c-2.64.048-4.704.901-6.192 2.557-1.488 1.656-2.232 3.612-2.232 5.868 0 2.353.744 4.321 2.232 5.904 1.488 1.584 3.552 2.375 6.192 2.375 2.688 0 4.764-.792 6.228-2.375 1.464-1.583 2.196-3.551 2.196-5.904 0-2.256-.732-4.212-2.196-5.868-1.464-1.656-3.54-2.484-6.228-2.484z"/><path d="m698.71 304l8.857 18.936 8.782-18.936h14.689l-19.296 36.936h-8.352l-19.369-36.936h14.689"/><path d="m747.38 304v36.936h-13.1v-36.936h13.1m-6.552-21.529c2.02.048 3.743.793 5.183 2.232 1.44 1.44 2.16 3.168 2.16 5.183 0 2.02-.72 3.746-2.16 5.186-1.44 1.44-3.168 2.16-5.183 2.16-2.02 0-3.743-.72-5.183-2.16-1.44-1.44-2.16-3.168-2.16-5.186 0-2.02.72-3.743 2.16-5.183 1.44-1.44 3.168-2.16 5.183-2.16z"/><path d="m794.02 323.29v1.367h-27.576c0 2.688.696 4.74 2.087 6.157 1.392 1.417 3.431 2.125 6.119 2.125 1.392 0 2.604-.264 3.636-.792 1.033-.528 1.909-1.392 2.628-2.592l12.599-.072c-1.055 4.417-3.394 7.633-7.02 9.648-3.624 2.02-7.548 3.02-11.773 3.02-6.097 0-11.185-1.668-15.264-5-4.08-3.336-6.119-8.196-6.119-14.58 0-6.144 1.908-10.967 5.724-14.471 3.816-3.504 8.724-5.256 14.724-5.256 6.432 0 11.412 1.848 14.94 5.544 3.528 3.696 5.292 8.688 5.292 14.977zm-27.36-6.192h15.192c-.335-1.728-1.211-3.121-2.628-4.177-1.417-1.056-3.01-1.584-4.788-1.584-1.92 0-3.601.492-5.04 1.477-1.44.984-2.352 2.437-2.736 4.357z"/></g></g></svg>