<?xml version="1.0" encoding="UTF-8" standalone="no"?>
<!-- Created with Inkscape (http://www.inkscape.org/) -->

<svg
   xmlns:dc="http://purl.org/dc/elements/1.1/"
   xmlns:cc="http://creativecommons.org/ns#"
   xmlns:rdf="http://www.w3.org/1999/02/22-rdf-syntax-ns#"
   xmlns:svg="http://www.w3.org/2000/svg"
   xmlns="http://www.w3.org/2000/svg"
   version="1.1"
   width="599.99939"
   height="253.858"
   id="svg3024">
  <defs
     id="defs3026" />
  <metadata
     id="metadata3029">
    <rdf:RDF>
      <cc:Work
         rdf:about="">
        <dc:format>image/svg+xml</dc:format>
        <dc:type
           rdf:resource="http://purl.org/dc/dcmitype/StillImage" />
        <dc:title></dc:title>
      </cc:Work>
    </rdf:RDF>
  </metadata>
  <g
     transform="translate(-19.484541,-424.00462)"
     id="layer1">
    <g
       transform="matrix(0.78499067,0,0,0.78499067,-144.78168,787.94077)"
       id="g3057">
      <rect
         width="323.38983"
         height="323.38983"
         x="209.25882"
         y="-463.61844"
         id="rect2983"
         style="fill:#686868;fill-opacity:1;fill-rule:nonzero;stroke:none" />
      <path
         d="m 297.1922,-291.19146 43.62814,56.8806 -44.92024,0 -34.05535,-53.3863 -0.36516,0 0,53.3863 -36.08338,0 0,-138.7999 53.93688,0 c 13.7449,0.1237 25.21933,3.5908 34.42331,10.4014 9.20379,6.8108 13.80573,17.641 13.80584,32.4908 -1.1e-4,9.5728 -2.60772,18.0717 -7.82284,25.4965 -5.21533,7.425 -12.73105,11.9951 -22.5472,13.7104 z m -35.71261,-54.3077 0,34.6115 3.4943,0 c 0.61416,0.12 1.22838,0.1799 1.84265,0.1798 0.61416,10e-5 1.16658,10e-5 1.65726,0 5.40056,-0.2433 10.34051,-1.5008 14.81986,-3.7724 4.47922,-2.2714 6.71886,-6.7815 6.71894,-13.5305 -8e-5,-6.7488 -2.23972,-11.259 -6.71894,-13.5306 -4.47935,-2.2714 -9.4193,-3.5288 -14.81986,-3.7724 -0.49068,10e-5 -1.0431,10e-5 -1.65726,0 -0.61427,10e-5 -1.22849,10e-5 -1.84265,0 l -3.4943,-0.1854 z"
         id="path2985"
         style="font-size:184.08537292px;font-style:normal;font-variant:normal;font-weight:normal;font-stretch:normal;text-align:start;line-height:100%;writing-mode:lr-tb;text-anchor:start;fill:#ffffff;fill-opacity:1;stroke:none;font-family:Futura-Bold;-inkscape-font-specification:Futura-Bold" />
      <path
         d="m 453.05355,-328.74676 0,94.4359 -33.5048,0 0,-10.4941 -0.36516,0 c -2.70038,4.4194 -6.38287,7.703 -11.04748,9.8509 -4.66474,2.1479 -9.512,3.3435 -14.54178,3.587 -0.49068,0.1236 -0.9813,0.1854 -1.47187,0.1854 -0.49068,0 -0.9813,0 -1.47188,0 -13.9922,0 -25.43666,-5.0009 -34.33342,-15.0025 -8.8968,-10.0016 -13.34519,-21.7532 -13.34518,-35.2547 -10e-6,-13.4978 4.38659,-25.2475 13.15979,-35.2492 8.77317,-10.0015 20.15583,-15.0023 34.14804,-15.0024 0.61416,10e-5 1.22838,10e-5 1.84265,0 0.61416,10e-5 1.22651,0.06 1.83703,0.1798 4.78634,0.3708 9.48098,1.5684 14.08393,3.5926 4.60281,2.0244 8.43791,4.8773 11.50533,8.5587 l 0,-9.3874 33.5048,0 z m -53.93688,25.9545 c -6.74895,0.1236 -12.02597,2.3024 -15.83107,6.5363 -3.80519,4.234 -5.70777,9.2349 -5.70773,15.0025 -4e-5,6.0148 1.90254,11.0465 5.70773,15.0951 3.8051,4.0486 9.08212,6.0729 15.83107,6.0729 6.87242,0 12.18034,-2.0243 15.92377,-6.0729 3.74327,-4.0486 5.61494,-9.0803 5.61503,-15.0951 -9e-5,-5.7676 -1.87176,-10.7685 -5.61503,-15.0025 -3.74343,-4.2339 -9.05135,-6.3509 -15.92377,-6.351 z"
         id="path2987"
         style="font-size:184.08537292px;font-style:normal;font-variant:normal;font-weight:normal;font-stretch:normal;text-align:start;line-height:100%;writing-mode:lr-tb;text-anchor:start;fill:#ffffff;fill-opacity:1;stroke:none;font-family:Futura-Bold;-inkscape-font-specification:Futura-Bold" />
      <path
         d="m 508.76567,-328.74676 0,94.4359 -33.5048,0 0,-94.4359 33.5048,0 z m -16.7524,-55.0436 c 5.1534,0.1238 9.57089,2.0264 13.25248,5.7078 3.68152,3.6817 5.52229,8.0992 5.52234,13.2524 -5e-5,5.1574 -1.84082,9.5767 -5.52234,13.2582 -3.68159,3.6816 -8.09908,5.5224 -13.25248,5.5223 -5.15345,1e-4 -9.57094,-1.8407 -13.25248,-5.5223 -3.68157,-3.6815 -5.52235,-8.1008 -5.52234,-13.2582 -10e-6,-5.1532 1.84077,-9.5707 5.52234,-13.2524 3.68154,-3.6814 8.09903,-5.5222 13.25248,-5.5224 z"
         id="path2989"
         style="font-size:184.08537292px;font-style:normal;font-variant:normal;font-weight:normal;font-stretch:normal;text-align:start;line-height:100%;writing-mode:lr-tb;text-anchor:start;fill:#ffffff;fill-opacity:1;stroke:none;font-family:Futura-Bold;-inkscape-font-specification:Futura-Bold" />
      <g
         transform="translate(-211.28348,-1538.8618)"
         id="text2991"
         style="font-size:181.54116821px;font-style:normal;font-variant:normal;font-weight:normal;font-stretch:normal;text-align:start;line-height:100%;writing-mode:lr-tb;text-anchor:start;fill:#686868;fill-opacity:1;stroke:none;font-family:Futura-Bold;-inkscape-font-specification:Futura-Bold">
        <path
           d="m 785.35053,1305.2574 23.23558,-136.8816 35.03621,0 27.77855,73.1583 29.40736,-73.1583 35.40186,0 20.69263,136.8816 -35.57914,0 -9.98344,-78.7871 -0.36565,0 -32.85891,78.7871 -14.16074,0 -31.40737,-78.7871 -0.36012,0 -11.4405,78.7871 -35.39632,0 z"
           id="path2998"
           style="fill:#686868;fill-opacity:1" />
        <path
           d="m 1066.8147,1260.7807 0,3.446 -69.52948,0 c -3e-5,6.7776 1.75436,11.9521 5.26318,15.5237 3.5088,3.5716 8.6519,5.3574 15.4295,5.3574 3.5087,0 6.565,-0.6658 9.169,-1.9973 2.6038,-1.3315 4.8125,-3.5097 6.6261,-6.5347 l 31.7674,-0.1828 c -2.6593,11.1358 -8.5578,19.2448 -17.6953,24.327 -9.1378,5.0822 -19.0325,7.6233 -29.6844,7.6233 -15.3723,0 -28.20149,-4.2059 -38.48776,-12.6178 -10.28631,-8.4118 -15.42945,-20.6658 -15.42945,-36.7619 0,-15.4904 4.81073,-27.6529 14.43221,-36.4878 9.62145,-8.8346 21.9964,-13.252 37.1249,-13.2521 16.2179,10e-5 28.7747,4.6594 37.6705,13.9779 8.8956,9.3187 13.3435,21.906 13.3436,37.762 z m -68.98654,-15.6122 38.30494,0 c -0.8459,-4.3583 -3.0546,-7.8689 -6.6261,-10.5319 -3.5716,-2.663 -7.5957,-3.9944 -12.0721,-3.9945 -4.8422,10e-5 -9.0786,1.2411 -12.7092,3.723 -3.6307,2.4821 -5.92989,6.1441 -6.89754,10.9862 z"
           id="path3000"
           style="fill:#686868;fill-opacity:1" />
        <path
           d="m 1151.8456,1305.2574 0,-10.349 -0.3656,0 c -2.6631,4.3583 -6.2937,7.5965 -10.892,9.7147 -4.5985,2.1182 -9.3796,3.2973 -14.3436,3.5374 -0.4839,0.1219 -0.9677,0.1828 -1.4515,0.1828 -0.4839,0 -0.9678,0 -1.4516,0 -13.7988,0 -25.0851,-4.9317 -33.8589,-14.7951 -8.7738,-9.8633 -13.1607,-21.4525 -13.1607,-34.7675 0,-13.3112 4.3269,-24.8985 12.9807,-34.7619 8.6537,-9.8633 19.8782,-14.795 33.6733,-14.7951 0.6057,10e-5 1.2114,10e-5 1.8172,0 0.6056,10e-5 1.2114,0.059 1.8172,0.1773 4.7201,0.3657 9.349,1.5467 13.8865,3.5429 4.5373,1.9964 8.3203,4.8099 11.349,8.4405 l 0,-66.8037 33.0362,0 0,150.6767 -33.0362,0 z m -20.1552,-67.535 c -6.6557,0.122 -11.8598,2.2707 -15.6123,6.4461 -3.7526,4.1755 -5.6288,9.1072 -5.6288,14.7951 0,5.9317 1.8762,10.8939 5.6288,14.8865 3.7525,3.9926 8.9566,5.9889 15.6123,5.9889 6.7775,0 12.012,-1.9963 15.7037,-5.9889 3.6915,-3.9926 5.5373,-8.9548 5.5374,-14.8865 -10e-5,-5.6879 -1.8459,-10.6196 -5.5374,-14.7951 -3.6917,-4.1754 -8.9262,-6.2632 -15.7037,-6.2632 z"
           id="path3002"
           style="fill:#686868;fill-opacity:1" />
      </g>
    </g>
  </g>
</svg>
