<svg xmlns="http://www.w3.org/2000/svg" viewBox="0 0 600 253.86"><g fill="#fff"><path d="m0 0v253.84h253.84v-253.84h-253.84m221.97 62.66c4.045.097 7.516 1.61 10.406 4.5 2.89 2.89 4.312 6.361 4.313 10.406 0 4.049-1.423 7.516-4.313 10.406-2.89 2.89-6.361 4.313-10.406 4.313-4.045 0-7.516-1.422-10.406-4.313-2.89-2.89-4.344-6.358-4.344-10.406 0-4.045 1.454-7.516 4.344-10.406 2.89-2.89 6.361-4.344 10.406-4.344v-.156m-209.31 8.406h42.34c10.79.097 19.806 2.81 27.03 8.156 7.225 5.346 10.844 13.843 10.844 25.5 0 7.515-2.062 14.172-6.156 20-4.076 5.804-9.936 9.39-17.594 10.75l34.16 44.531h-35.28l-26.719-41.906h-.281v41.906h-28.344v-108.94m28.344 21.656v27.19h2.75c.482.094.955.125 1.438.125.482 0 .896 0 1.281 0 4.239-.191 8.14-1.186 11.656-2.969 3.516-1.783 5.281-5.327 5.281-10.625 0-5.298-1.765-8.811-5.281-10.594-3.516-1.783-7.417-2.778-11.656-2.969-.385 0-.799 0-1.281 0-.482 0-.955 0-1.438 0l-2.75-.156m101.09 10.844c.482 0 .955 0 1.438 0 .482 0 .989.062 1.469.156 3.757.291 7.418 1.224 11.03 2.813 3.613 1.589 6.623 3.829 9.03 6.719v-7.375h26.313v74.12h-26.313v-8.219h-.281c-2.12 3.469-4.995 6.03-8.656 7.719-3.662 1.686-7.489 2.621-11.438 2.813-.385.097-.771.156-1.156.156h-1.125c-10.984 0-19.985-3.93-26.969-11.781-6.984-7.851-10.469-17.09-10.469-27.688 0-10.596 3.426-19.805 10.313-27.656 6.887-7.851 15.829-11.781 26.813-11.781m66.72 2.313h26.313v74.12h-26.313v-74.12m-59.781 20.375c-5.298.097-9.419 1.801-12.406 5.125-2.987 3.324-4.5 7.254-4.5 11.781 0 4.722 1.513 8.666 4.5 11.844 2.987 3.178 7.108 4.781 12.406 4.781 5.395 0 9.561-1.603 12.5-4.781 2.938-3.178 4.406-7.122 4.406-11.844 0-4.528-1.468-8.458-4.406-11.781-2.939-3.324-7.105-4.969-12.5-4.969v-.156"/><g transform="matrix(.78499 0 0 .78499-330.12-844.06)"><path d="m785.35 1305.26l23.24-136.88h35.04l27.779 73.16 29.407-73.16h35.402l20.693 136.88h-35.579l-9.983-78.79h-.366l-32.859 78.79h-14.161l-31.407-78.79h-.36l-11.441 78.79h-35.396"/><path d="m1066.81 1260.78v3.446h-69.53c0 6.778 1.754 11.952 5.263 15.524 3.509 3.572 8.652 5.357 15.429 5.357 3.509 0 6.565-.666 9.169-1.997 2.604-1.332 4.813-3.51 6.626-6.535l31.767-.183c-2.659 11.136-8.558 19.245-17.695 24.327-9.138 5.082-19.03 7.623-29.684 7.623-15.372 0-28.2-4.206-38.488-12.618-10.286-8.412-15.429-20.666-15.429-36.762 0-15.49 4.811-27.653 14.432-36.488 9.621-8.835 21.996-13.252 37.12-13.252 16.218 0 28.775 4.659 37.671 13.978 8.896 9.319 13.343 21.906 13.344 37.762zm-68.987-15.612h38.3c-.846-4.358-3.055-7.869-6.626-10.532-3.572-2.663-7.596-3.994-12.07-3.995-4.842 0-9.08 1.241-12.709 3.723-3.631 2.482-5.93 6.144-6.898 10.986z"/><path d="m1151.85 1305.26v-10.349h-.366c-2.663 4.358-6.294 7.597-10.892 9.715-4.599 2.118-9.38 3.297-14.344 3.537-.484.122-.968.183-1.451.183-.484 0-.968 0-1.452 0-13.799 0-25.09-4.932-33.859-14.795-8.774-9.863-13.161-21.453-13.161-34.767 0-13.311 4.327-24.899 12.981-34.762 8.654-9.863 19.878-14.795 33.673-14.795.606 0 1.211 0 1.817 0 .606 0 1.211.059 1.817.177 4.72.366 9.349 1.547 13.887 3.543 4.537 1.996 8.32 4.81 11.349 8.44v-66.804h33.04v150.68h-33.04m-20.16-67.54c-6.656.122-11.86 2.271-15.612 6.446-3.753 4.176-5.629 9.107-5.629 14.795 0 5.932 1.876 10.894 5.629 14.887 3.753 3.993 8.957 5.989 15.612 5.989 6.777 0 12.01-1.996 15.704-5.989 3.691-3.993 5.537-8.955 5.537-14.887 0-5.688-1.846-10.62-5.537-14.795-3.692-4.175-8.926-6.263-15.704-6.263z"/></g></g></svg>