<svg xmlns="http://www.w3.org/2000/svg" height="182.84" width="600" viewBox="0 0 480 146.26547"><g fill="#dc513a"><path d="m355.77 61.04c5.66-.672 11.48.169 16.75 2.328-1.58 3.02-3.19 6.03-4.76 9.05-2.77-1.39-5.91-2.313-9.03-1.896-.97.143-2.04.555-2.51 1.481-.38.782-.45 1.828.16 2.524.49.575 1.2.944 1.92 1.163 2.31.679 4.73.953 7.01 1.744 2.07.691 4.09 1.722 5.57 3.363 1.56 1.671 2.49 3.875 2.72 6.137.29 2.93-.2 5.993-1.72 8.552-1.79 3.04-4.8 5.25-8.1 6.43-2.71.97-5.6 1.36-8.46 1.4-5.82.15-11.57-1.61-16.53-4.558 1.7-3.303 3.41-6.605 5.11-9.906 2.75 1.795 5.79 3.284 9.07 3.802 1.35.197 2.73.261 4.08-.011.92-.191 1.87-.67 2.27-1.562.4-.921.37-2.085-.27-2.891-.53-.677-1.35-1.037-2.15-1.291-2.28-.722-4.65-1.092-6.96-1.733-2.32-.579-4.55-1.761-6.07-3.631-1.4-1.703-1.97-3.937-2.02-6.105-.1-2.597.52-5.24 1.91-7.455 1.16-1.888 2.78-3.512 4.71-4.631 2.22-1.306 4.75-2 7.3-2.306"/><path d="m0-.003c48.35 0 96.7-.002 145.06 0v146.26h-145.06v-146.27"/><path d="m399.27 42.25c3.38-.8 6.91-.956 10.36-.513 3.08.409 6.09 1.443 8.72 3.119 3.8 2.431 6.91 6.04 8.43 10.308 1.19 3.321 1.46 6.93 1.05 10.421-.34 2.767-1.23 5.468-2.64 7.872-1.41 2.463-3.31 4.608-5.34 6.572-3.45 3.197-6.9 6.401-10.34 9.601 6.37-.005 12.73-.002 19.1-.002v12.928c-15.49 0-30.98 0-46.47-.001.02-.23-.06-.52.15-.68 4.74-4.937 9.47-9.868 14.21-14.801 1.99-2.141 4.06-4.215 5.92-6.472 3.18-3.854 6.3-7.85 8.35-12.443 1.08-2.455 1.88-5.199 1.32-7.89-.37-1.763-1.41-3.358-2.81-4.474-2.58-2.075-6.9-1.586-8.78 1.19-1.41 2.051-1.53 4.74-1.04 7.109-5.59.002-11.18 0-16.78 0-.02-4.397.92-8.902 3.32-12.638 2.99-4.656 7.91-7.938 13.27-9.197"/><path d="m431.97 79.21c7.22-12.589 14.4-25.21 21.63-37.788 6.49.026 12.97.003 19.46.011v36.35c2.31.005 4.63 0 6.94.002v12.177c-2.31.002-4.63 0-6.94.002v12.544c-4.58-.001-9.17 0-13.75-.001v-12.534c-9.22-.003-18.44.002-27.66-.002v-9.917c-.04-.323.18-.574.32-.835m13.92-1.425c4.48-.002 8.95.002 13.42-.002v-23.458c-4.47 7.818-8.94 15.638-13.41 23.46z"/><path d="m153.69 43.584c5.27.002 10.54-.006 15.81.003 9.68 12.273 19.37 24.54 29.06 36.808v-36.811c5.27-.002 10.53-.002 15.8 0v60.19c-5.27 0-10.53-.001-15.8 0-9.69-12.288-19.38-24.575-29.07-36.86v36.86c-5.27 0-10.53-.001-15.8 0z"/><path d="m227.08 63.36c3.01-1.878 6.51-2.812 10-3.119 3.14-.247 6.32-.151 9.4.553 2.9.656 5.69 1.917 8 3.833 3.72 3.081 6.07 7.638 6.95 12.379.46 2.348.51 4.75.48 7.137-9.93.002-19.87 0-29.8.002.001 1.643.2 3.32.86 4.834.49 1.114 1.25 2.112 2.24 2.804 1.14.811 2.52 1.225 3.89 1.389 1.77.214 3.64.144 5.27-.657 1.38-.658 2.49-1.792 3.29-3.087 4.56-.005 9.13-.002 13.69-.002-.85 2.837-2.13 5.61-4.13 7.802-1.5 1.612-3.31 2.92-5.27 3.89-3.05 1.51-6.45 2.15-9.83 2.27-3.36.1-6.76-.2-9.99-1.19-2.32-.7-4.54-1.79-6.48-3.279-3.82-2.919-6.5-7.294-7.41-12.05-.71-3.753-.61-7.668.28-11.38 1.19-4.948 4.26-9.453 8.56-12.13m11.05 6.133c-1.71.426-3.3 1.456-4.3 2.934-.72 1.039-1.12 2.262-1.33 3.501 5.4.002 10.8.002 16.2 0-.41-1.78-1.16-3.552-2.51-4.806-2.14-1.984-5.34-2.245-8.07-1.629z"/><path d="m261.38 60.693c5.29-.002 10.58-.002 15.87 0 3.22 7.483 6.4 14.988 9.65 22.459 3.36-7.487 6.73-14.974 10.09-22.459 2.99.005 5.97-.014 8.95.008 3.34 7.711 6.7 15.414 10.05 23.12 3.37-7.707 6.75-15.408 10.1-23.12 5.28-.029 10.56-.005 15.85-.012-7.02 14.221-14.07 28.42-21.06 42.648-3.17.05-6.35.001-9.53.03-3.35-7.803-6.7-15.605-10.06-23.406-3.22 7.799-6.42 15.606-9.64 23.406-3.19-.001-6.39 0-9.58-.001-6.9-14.222-13.8-28.443-20.69-42.669z"/></g><g fill="#fff"><path d="m123.19 40.844c-1.55.263-3.01 1.022-4.13 2.126-1.52 1.481-2.41 3.588-2.39 5.714 0 2.219 1 4.407 2.67 5.872 1.46 1.314 3.44 2.052 5.41 1.974 2.21-.057 4.36-1.146 5.76-2.851 1.39-1.659 2.05-3.907 1.76-6.05-.28-2.237-1.57-4.319-3.45-5.569-1.63-1.111-3.69-1.548-5.63-1.212"/><path d="m14.1 45.22v58.42c5.02.001 10.05.001 15.07 0 .001-7.502-.032-15.01 0-22.519.132.093.238.212.325.35 4.668 7.396 9.351 14.781 14.02 22.17 6.248 0 12.499.001 18.748 0-6.05-7.981-12.13-15.925-18.17-23.919 2.06-.396 4.06-1.14 5.8-2.325 2.541-1.698 4.476-4.259 5.574-7.099 1.25-3.189 1.514-6.692 1.1-10.07-.429-3.697-1.979-7.355-4.724-9.925-3.269-3.112-7.783-4.53-12.199-4.924-1.689-.164-3.381-.147-5.075-.15h-20.473m15.07 11.624c2.353-.011 4.748-.008 7.02.675 1.479.439 2.9 1.246 3.775 2.55 1.01 1.482 1.222 3.38 1.05 5.124-.141 1.452-.717 2.893-1.8 3.9-1.064 1.019-2.485 1.579-3.9 1.9-2.02.456-4.093.437-6.149.425z"/><path d="m81.894 62.59c-2.433.088-4.854.631-7.08 1.625-3.708 1.631-6.816 4.535-8.849 8.03-3.21 5.477-3.88 12.303-2 18.348 1.332 4.316 4.02 8.258 7.724 10.87 4.379 3.14 10.142 4.25 15.374 2.98 2.732-.68 5.339-2.12 7.08-4.38.247-.292.393-.676.725-.895.025 1.485.013 2.985.025 4.475h13.977v-39.748c-4.66.003-9.318-.005-13.977 0v3.875c-2.179-2.595-5.364-4.168-8.65-4.825-1.432-.277-2.89-.402-4.349-.35m4.124 12.25c2.13-.065 4.328.458 6.03 1.774 1.779 1.356 2.891 3.474 3.199 5.675.365 2.549-.155 5.317-1.799 7.349-1.278 1.613-3.212 2.603-5.225 2.925-2.405.375-5 .062-7.07-1.275-1.71-1.086-2.921-2.846-3.425-4.799-.669-2.584-.387-5.471 1.05-7.75 1.348-2.202 3.804-3.601 6.349-3.849.301-.034.596-.041.9-.05"/><path d="m117.49 63.902v39.738c4.66.001 9.32.001 13.97 0v-39.738c-4.65-.002-9.31-.002-13.97 0"/></g></svg>