<svg xmlns="http://www.w3.org/2000/svg" height="234.86" width="600" viewBox="0 0 480 187.88279"><g stroke-width="1.284"><g fill="#dc513a"><path d="m457 78.42c7.27-.863 14.74.218 21.51 2.991-2.03 3.881-4.09 7.743-6.11 11.626-3.56-1.785-7.59-2.971-11.6-2.436-1.25.184-2.62.713-3.22 1.903-.49 1-.58 2.348.2 3.242.64.739 1.54 1.212 2.47 1.494 2.97.872 6.07 1.224 9 2.24 2.66.888 5.26 2.208 7.16 4.318 2 2.15 3.19 4.98 3.49 7.89.37 3.76-.26 7.69-2.2 10.98-2.31 3.91-6.17 6.74-10.42 8.26-3.48 1.25-7.18 1.75-10.87 1.8-7.46.19-14.85-2.07-21.22-5.86 2.18-4.24 4.37-8.48 6.56-12.72 3.54 2.3 7.44 4.22 11.65 4.88 1.73.26 3.51.34 5.24-.001 1.18-.25 2.41-.86 2.92-2.01.52-1.18.48-2.68-.34-3.71-.69-.87-1.74-1.33-2.77-1.66-2.93-.93-5.98-1.4-8.94-2.23-2.97-.74-5.85-2.26-7.8-4.66-1.8-2.19-2.53-5.056-2.59-7.842-.14-3.336.66-6.73 2.45-9.575 1.5-2.426 3.57-4.513 6.05-5.95 2.85-1.677 6.11-2.572 9.38-2.961"/><path d="m0 .007c62.11 0 124.22-.003 186.33 0v187.87c-62.11.0001-124.22.0001-186.33.0001v-187.89"/><path d="m197.42 55.996c6.77.002 13.54-.008 20.31.004 12.44 15.765 24.88 31.522 37.32 47.28v-47.28c6.77-.003 13.54-.003 20.3 0v77.3h-20.29c-12.45-15.78-24.89-31.56-37.34-47.34v47.34h-20.3z"/><path d="m291.69 81.4c3.87-2.414 8.36-3.613 12.85-4.01 4.03-.316 8.12-.194 12.07.712 3.73.842 7.31 2.462 10.28 4.923 4.78 3.958 7.79 9.811 8.93 15.901.59 3.02.65 6.1.61 9.17h-38.28c.001 2.11.26 4.26 1.11 6.21.62 1.43 1.6 2.71 2.88 3.6 1.46 1.04 3.23 1.57 4.99 1.79 2.28.27 4.68.18 6.78-.85 1.77-.84 3.18-2.3 4.22-3.96 5.86-.001 11.72-.001 17.58-.001-1.09 3.65-2.73 7.21-5.31 10.03-1.92 2.07-4.25 3.74-6.77 4.99-3.91 1.94-8.28 2.77-12.62 2.92-4.31.13-8.68-.26-12.83-1.53-2.98-.91-5.84-2.31-8.33-4.21-4.9-3.75-8.34-9.37-9.51-15.48-.92-4.82-.79-9.85.35-14.614 1.53-6.355 5.48-12.143 11-15.584m14.19 7.879c-2.2.547-4.23 1.869-5.52 3.768-.92 1.334-1.44 2.906-1.71 4.498 6.94.002 13.87.002 20.81 0-.52-2.287-1.48-4.563-3.22-6.174-2.76-2.548-6.86-2.883-10.36-2.092z"/><path d="m335.75 77.972c6.8-.002 13.6-.002 20.39 0 4.14 9.614 8.22 19.254 12.39 28.848 4.32-9.615 8.64-19.232 12.97-28.848 3.83.007 7.66-.017 11.49.011 4.3 9.905 8.61 19.8 12.92 29.697 4.32-9.897 8.65-19.789 12.96-29.693 6.79-.037 13.57-.007 20.36-.015-9.01 18.267-18.07 36.508-27.05 54.788-4.08.06-8.16.001-12.24.03-4.31-10.02-8.61-20.04-12.92-30.06-4.14 10.01-8.25 20.04-12.38 30.06-4.11-.001-8.21 0-12.31 0-8.86-18.28-17.73-36.546-26.58-54.82z"/></g><g fill="#fff"><path d="m158.24 52.48c-1.99.338-3.87 1.313-5.31 2.731-1.95 1.902-3.1 4.609-3.06 7.34 0 2.85 1.28 5.661 3.42 7.542 1.89 1.688 4.42 2.636 6.96 2.536 2.84-.073 5.59-1.472 7.39-3.661 1.79-2.131 2.63-5.02 2.26-7.778-.35-2.873-2.02-5.547-4.43-7.153-2.09-1.427-4.74-1.988-7.23-1.557"/><path d="m18.11 58.1v75.05h19.363c.013-9.65-.041-19.29 0-28.94.17.12.306.28.418.45 5.996 9.5 12.01 18.99 18.01 28.49h24.08c-7.777-10.26-15.583-20.47-23.345-30.73 2.646-.51 5.215-1.47 7.45-2.991 3.264-2.182 5.75-5.472 7.161-9.12 1.605-4.096 1.944-8.595 1.413-12.94-.552-4.748-2.543-9.447-6.069-12.748-4.199-3.999-9.997-5.819-15.67-6.326-2.17-.21-4.343-.189-6.519-.193h-26.299m19.363 14.932c3.02-.014 6.1-.011 9.02.867 1.9.564 3.726 1.601 4.849 3.275 1.291 1.904 1.57 4.342 1.349 6.583-.181 1.865-.921 3.716-2.312 5.01-1.366 1.309-3.192 2.028-5.01 2.44-2.592.586-5.258.562-7.9.546z"/><path d="m105.2 80.41c-3.13.112-6.239.81-9.09 2.087-4.764 2.095-8.756 5.825-11.367 10.308-4.124 7.03-4.984 15.802-2.569 23.572 1.711 5.54 5.166 10.6 9.922 13.97 5.625 4.02 13.03 5.45 19.746 3.82 3.51-.87 6.86-2.72 9.09-5.62.32-.38.5-.88.93-1.16.03 1.91.02 3.83.03 5.75h17.95v-51.06c-5.98.003-11.96-.007-17.95 0v4.977c-2.8-3.334-6.89-5.354-11.11-6.198-1.84-.356-3.71-.516-5.58-.449m5.29 15.734c2.74-.083 5.56.589 7.74 2.28 2.29 1.743 3.72 4.463 4.11 7.293.47 3.27-.2 6.83-2.31 9.44-1.64 2.07-4.12 3.34-6.71 3.75-3.09.49-6.42.08-9.09-1.63-2.19-1.4-3.75-3.66-4.397-6.17-.86-3.32-.498-7.03 1.347-9.95 1.73-2.832 4.89-4.629 8.16-4.949.38-.043.76-.052 1.15-.064"/><path d="m150.92 82.09v51.06h17.95v-51.06c-5.98-.002-11.97-.002-17.95 0"/></g></g></svg>