<svg xmlns="http://www.w3.org/2000/svg" viewBox="0 0 545 225"><rect width="136.3" height="116.22" rx="12.02" ry="34.16" x="5.261" y="56.17" fill="#fff"/><g transform="translate(-2.5-2.5)"><g transform="matrix(1.0093 0 0 1.009-2.546-1.031)"><g fill="#b4b5b4" stroke-width="35.433"><path d="m95.08 226.43l-31.536.072 15.706-27.428z"/><path d="m95.08 3.572l-31.536-.072 15.706 27.428z"/></g><path d="m153.62 40.667h-148.62v148.67h148.62v-148.67m-118.72 72.59h1.497c5.04 0 10.706-.945 10.706-7.399 0-6.455-5.662-7.403-10.706-7.403h-1.497v14.802m33.934 32.767h-19.213l-14.564-22.838h-.157v22.838h-15.424v-59.38h23.06c11.731 0 20.625 5.591 20.625 18.269 0 8.19-4.564 15.281-12.987 16.775l18.66 24.339m15.377-20.17c0 5.115 3.393 9.06 9.216 9.06 5.827 0 9.213-3.939 9.213-9.06 0-4.957-3.386-9.131-9.213-9.131-5.827 0-9.216 4.17-9.216 9.131m32.28 20.17h-14.323v-4.496h-.157c-2.518 4.02-7.474 5.828-12.203 5.828-11.969 0-20.387-9.998-20.387-21.575 0-11.58 8.272-21.502 20.226-21.502 4.641 0 9.531 1.732 12.522 5.276v-3.932h14.323v40.4zm24.07-55.92c0 4.415-3.627 8.03-8.03 8.03-4.403 0-8.02-3.617-8.02-8.03 0-4.408 3.616-8.03 8.02-8.03 4.403 0 8.03 3.625 8.03 8.03m-.867 55.92h-14.319v-40.4h14.319v40.4z" fill="#8d8d8d"/></g><path d="m540.46 45.35v27.733h-50.748l-2.652 17.438c2.743-.618 5.501-1.082 8.275-1.391 2.774-.309 5.501-.464 8.184-.464 13.594 0 24.322 4.128 32.19 12.383 7.864 8.255 11.795 19.463 11.795 33.623 0 15.09-4.892 26.991-14.676 35.71-9.784 8.719-23.18 13.08-40.19 13.08-8.108 0-15.666-.928-22.677-2.783-7.01-1.855-13.167-4.545-18.471-8.07l2.377-32.835 2.835.557c3.292 5.01 7.681 8.951 13.167 11.826 5.486 2.875 11.399 4.313 17.739 4.313 8.473 0 15.03-2.056 19.659-6.168 4.633-4.112 6.949-9.909 6.949-17.391 0-7.173-2.499-13.05-7.498-17.623-4.999-4.576-11.491-6.864-19.476-6.864-5.364 0-10.211.912-14.539 2.736-4.328 1.824-8.229 4.591-11.704 8.301l-4.481-2.69 11.06-71.42h72.876" fill="#8d8d8d"/><g transform="matrix(1.0093 0 0 1.009-2.628-3.03)"><g fill="#b4b5b4"><path d="m178.53 105.96v6.772h.163c1.428-2.473 3.337-4.3 5.727-5.483 2.39-1.182 5.04-1.773 7.952-1.773l2.884-.079v14.1c-.22-.054-.426-.135-.619-.242-.193-.107-.399-.188-.619-.242-.823-.321-1.647-.536-2.471-.643-.824-.107-1.703-.161-2.637-.161-4.176 0-6.95 1.195-8.323 3.586-1.373 2.391-2.06 5.36-2.059 8.907v16.603h-14.997v-41.35h14.997"/><path d="m215.66 105.03c-11.997 0-20.305 9.778-20.305 21.2 0 11.416 8.458 21.289 20.47 21.289 4.746 0 9.731-1.79 12.259-5.754h.141v4.442h14.376v-39.84h-14.376v3.867c-3-3.495-7.907-5.201-12.564-5.201m4.235 12.889c5.198 0 8.212 3.639 8.212 7.963 0 4.465-3.01 7.917-8.212 7.917-5.195 0-8.235-3.455-8.235-7.917 0-4.328 3.037-7.963 8.235-7.963"/><path d="m275.69 83.56v25.915c-3.26-2.702-7.341-4.304-11.764-4.304-10.677 0-19.341 9.355-19.341 20.898 0 11.543 8.664 20.898 19.341 20.898 4.424 0 8.505-1.602 11.764-4.304v3.452h15.13v-62.56h-15.13m-7.412 34.408c4.576 0 8.282 3.566 8.282 7.963 0 4.397-3.706 7.963-8.282 7.963-4.576 0-8.282-3.566-8.282-7.963 0-4.397 3.706-7.963 8.282-7.963" stroke-width="35.433"/><path d="m295.8 94.24c0-2.101.762-3.891 2.287-5.369 1.525-1.478 3.361-2.218 5.509-2.218 2.227 0 4.09.726 5.588 2.179 1.498 1.453 2.247 3.255 2.247 5.408 0 2.153-.762 3.982-2.287 5.486-1.525 1.504-3.374 2.257-5.549 2.257-2.121 0-3.951-.765-5.489-2.296-1.538-1.53-2.307-3.346-2.307-5.447m.716 51.55v-39.3h14.2v39.3z"/><path d="m345.29 126.26c0-2.931-.756-5.24-2.267-6.926-1.512-1.686-3.553-2.529-6.125-2.529-2.599 0-4.647.843-6.145 2.529-1.498 1.686-2.247 3.995-2.247 6.926 0 2.931.742 5.233 2.227 6.906 1.485 1.673 3.54 2.51 6.165 2.51 2.599 0 4.647-.837 6.145-2.51 1.498-1.673 2.247-3.975 2.247-6.906m14.08 0c0 2.827-.563 5.512-1.69 8.05-1.127 2.542-2.771 4.825-4.932 6.848-2.161 2.023-4.587 3.554-7.279 4.591-2.692 1.038-5.549 1.556-8.572 1.556-3.076 0-5.96-.519-8.651-1.556-2.691-1.038-5.098-2.568-7.219-4.591-2.121-1.971-3.739-4.234-4.853-6.789-1.114-2.555-1.671-5.259-1.671-8.112 0-2.879.55-5.59 1.651-8.132 1.1-2.542 2.725-4.825 4.873-6.848 2.095-1.997 4.488-3.502 7.18-4.513 2.691-1.012 5.588-1.517 8.691-1.517 3.102 0 5.993.506 8.671 1.517 2.678 1.012 5.078 2.516 7.199 4.513 2.174 2.049 3.818 4.345 4.932 6.887 1.114 2.542 1.671 5.24 1.671 8.093"/></g><g fill="#8d8d8d"><path d="m384.58 83.956c-2.614.662-17.609 3.887-18.752 21.22h-4.565v13.349h5.318v28.06h14.941v-28.06h11.247v-13.349h-10.4c.375-7.975 8.763-8.574 10.4-8.516v-12.704z"/><path d="m425 83.56v25.915c-3.26-2.702-7.341-4.304-11.764-4.304-10.677 0-19.341 9.355-19.341 20.898 0 11.543 8.664 20.898 19.341 20.898 4.424 0 8.505-1.602 11.764-4.304v3.452h15.13v-62.56h-15.13m-7.412 34.408c4.576 0 8.282 3.566 8.282 7.963 0 4.397-3.706 7.963-8.282 7.963-4.576 0-8.282-3.566-8.282-7.963 0-4.397 3.706-7.963 8.282-7.963"/></g></g></g></svg>