<?xml version="1.0" encoding="UTF-8" standalone="no"?>
<svg xmlns:rdf="http://www.w3.org/1999/02/22-rdf-syntax-ns#" xmlns="http://www.w3.org/2000/svg" height="360.84" width="600" version="1.1" xmlns:cc="http://creativecommons.org/ns#" xmlns:dc="http://purl.org/dc/elements/1.1/" viewBox="0 0 480 288.664">
 <path d="m0 52.532h179.38v183.42h-179.38z" fill="#1575c5"/>
 <g fill="#fff">
  <path d="m36.598 140.4h1.806c6.089 0 12.941-1.17 12.941-9.14 0-7.98-6.852-9.15-12.941-9.15h-1.806zm41.003 40.47h-23.212l-17.601-28.22h-0.19v28.22h-18.649v-73.35h27.875c14.178 0 24.926 6.91 24.926 22.57 0 10.12-5.517 18.87-15.693 20.72z"/>
  <path d="m95.105 155.96c0 6.33 4.09 11.19 11.135 11.19 7.04 0 11.13-4.86 11.13-11.19 0-6.13-4.09-11.28-11.13-11.28-7.045 0-11.135 5.15-11.135 11.28m39.005 24.9h-17.32v-5.54h-0.19c-3.04 4.96-9.03 7.2-14.74 7.2-14.463 0-24.641-12.36-24.641-26.65 0-14.3 9.989-26.56 24.451-26.56 5.61 0 11.51 2.14 15.12 6.52v-4.87h17.32z"/>
  <path d="m161.41 180.86h-17.31v-49.89h17.31zm1.05-69.06c0 5.45-4.38 9.92-9.71 9.92s-9.7-4.47-9.7-9.92 4.37-9.92 9.7-9.92 9.71 4.47 9.71 9.92"/>
 </g>
 <g>
  <path d="m109-0.002816-19.326 34.232-19.328-34.232z" fill="#67c3ef"/>
  <path d="m70.345 288.67 19.33-34.23 19.325 34.23z" fill="#67c3ef"/>
  <path d="m434.56 52.861c-7.89 7.234-24.52 17.119-34.74 20.786v36.213c9.11-2.46 23.53-8.29 31.4-12.982v30.572c11.19 4.69 19.17 14.57 19.17 28.77 0 14.11-7.98 23.97-19.17 28.65v51.08h48.78v-183.09z" fill="#1575c5"/>
 </g>
 <g fill="#67c3ef">
  <path d="m404.13 156.21c0 6.3 4.07 11.14 11.09 11.14s11.1-4.84 11.1-11.14c0-6.11-4.08-11.25-11.1-11.25s-11.09 5.14-11.09 11.25m40.4 0c0 16.87-13.66 26.47-29.31 26.47-15.55 0-29.3-9.5-29.3-26.47s13.66-26.57 29.3-26.57c15.65 0 29.31 9.6 29.31 26.57"/>
  <path d="m212.72 139.44h0.19c3.32-6.11 9.01-8.83 15.74-8.83h3.32v16.97c-2.37-1.36-4.65-1.65-7.3-1.65-9.58 0-11.95 6.5-11.95 15.03v20.07h-17.26v-49.74h17.26z"/>
  <path d="m251.02 156.21c0 6.3 4.08 11.14 11.09 11.14 7.03 0 11.1-4.84 11.1-11.14 0-6.11-4.07-11.25-11.1-11.25-7.01 0-11.09 5.14-11.09 11.25m38.88 24.82h-17.26v-5.53h-0.19c-3.03 4.95-9.01 7.18-14.7 7.18-14.41 0-24.56-12.32-24.56-26.57s9.96-26.47 24.38-26.47c5.59 0 11.46 2.13 15.07 6.5v-4.85h17.26z"/>
  <path d="m314.63 156.21c0 6.3 4.08 11.14 11.1 11.14 7.01 0 11.09-4.84 11.09-11.14 0-6.11-4.08-11.25-11.09-11.25-7.02 0-11.1 5.14-11.1 11.25m21.63 19.29h-0.19c-3.04 4.95-9.01 7.18-14.7 7.18-14.41 0-24.56-12.32-24.56-26.57s9.95-26.47 24.37-26.47c5.6 0 11.47 2.13 15.08 6.5v-35.59h17.25v80.48h-17.25z"/>
  <path d="m379.86 181.03h-17.26v-49.74h17.26zm1.04-68.84c0 5.43-4.36 9.89-9.67 9.89s-9.67-4.46-9.67-9.89 4.36-9.89 9.67-9.89 9.67 4.46 9.67 9.89"/>
 </g>
</svg>
