<?xml version="1.0" encoding="UTF-8" standalone="no"?>
<svg xmlns:rdf="http://www.w3.org/1999/02/22-rdf-syntax-ns#" xmlns="http://www.w3.org/2000/svg" height="320.55" width="600" version="1.1" xmlns:cc="http://creativecommons.org/ns#" xmlns:dc="http://purl.org/dc/elements/1.1/" viewBox="0 0 480 256.43658">
 <path d="m454.77 121.52c11.28-6.36 16.2-19.48 16.2-31.793 0-28.913-21.74-44.927-49.44-44.927-15.79 0-29.53 4.512-39.38 13.336-9.84 8.815-16.4 21.125-18.05 37.333h37.34c-0.21-10.053 6.14-17.841 16.4-17.841 9.03 0 15.8 6.146 15.8 15.584 0 10.668-7.38 17.038-17.65 17.038h-4.1v26.86c2.26-0.61 4.52-1.24 6.98-1.24 11.29 0 21.33 9.04 21.33 20.73 0 12.52-9.23 20.72-21.54 20.72-10.92 0-18.95-7.13-21.01-16.93-5.74 4.29-13.27 6.59-21.32 6.59-7.33 0-14.28-1.9-19.83-5.5 1.81 12 9.36 24.81 17.25 32.87 12.51 12.71 28.5 17.43 46.14 17.43 30.78 0 60.11-17.43 60.11-51.29 0-15.8-8.82-34.66-25.23-38.97" fill="#00a650"/>
 <path d="m0 209.6h162.93v-162.93h-162.93z" fill="#00a650"/>
 <g fill="#fff">
  <path d="m33.241 124.71h1.642c5.531 0 11.756-1.03 11.756-8.12 0-7.08-6.225-8.13-11.756-8.13h-1.642zm37.244 35.95h-21.08l-15.989-25.06h-0.175v25.06h-16.937v-65.148h25.313c12.88 0 22.652 6.128 22.652 20.048 0 8.99-5.022 16.76-14.258 18.41z"/>
  <path d="m86.386 138.54c0 5.62 3.714 9.94 10.106 9.94 6.398 0 10.118-4.32 10.118-9.94 0-5.44-3.72-10.03-10.118-10.03-6.392 0-10.106 4.59-10.106 10.03m35.424 22.12h-15.72v-4.92h-0.18c-2.75 4.41-8.207 6.39-13.387 6.39-13.135 0-22.389-10.96-22.389-23.68 0-12.69 9.079-23.58 22.214-23.58 5.092 0 10.452 1.89 13.742 5.78v-4.31h15.72z"/>
  <path d="m146.61 160.66h-15.73v-44.33h15.73zm0.95-61.349c0 4.839-3.97 8.819-8.81 8.819s-8.82-3.98-8.82-8.819c0-4.847 3.98-8.815 8.82-8.815s8.81 3.968 8.81 8.815"/>
 </g>
 <g fill="#abd91a">
  <path d="m99.026-0.00278-17.56 30.405-17.551-30.405z"/>
  <path d="m63.912 256.44 17.56-30.41 17.551 30.41z"/>
  <path d="m192.4 123.86h0.16c3.02-5.43 8.19-7.84 14.3-7.84h3.02v15.07c-2.16-1.2-4.23-1.47-6.63-1.47-8.7 0-10.85 5.78-10.85 13.36v17.83h-15.68v-44.19h15.68z"/>
  <path d="m227.18 138.76c0 5.6 3.7 9.9 10.08 9.9 6.37 0 10.08-4.3 10.08-9.9 0-5.43-3.71-9.99-10.08-9.99-6.38 0-10.08 4.56-10.08 9.99m35.31 22.05h-15.67v-4.91h-0.18c-2.74 4.39-8.17 6.37-13.34 6.37-13.09 0-22.31-10.94-22.31-23.6s9.04-23.51 22.13-23.51c5.09 0 10.43 1.9 13.7 5.77v-4.31h15.67z"/>
  <path d="m284.96 138.76c0 5.6 3.71 9.9 10.08 9.9 6.38 0 10.08-4.3 10.08-9.9 0-5.43-3.7-9.99-10.08-9.99-6.37 0-10.08 4.56-10.08 9.99m19.64 17.14h-0.17c-2.76 4.39-8.18 6.37-13.35 6.37-13.1 0-22.31-10.94-22.31-23.6s9.05-23.51 22.14-23.51c5.08 0 10.42 1.9 13.69 5.77v-31.611h15.68v71.491h-15.68z"/>
  <path d="m344.2 160.81h-15.67v-44.19h15.67zm0.96-61.157c0 4.827-3.97 8.787-8.79 8.787s-8.78-3.96-8.78-8.787c0-4.829 3.96-8.789 8.78-8.789s8.79 3.96 8.79 8.789"/>
  <path d="m366.25 138.76c0 5.6 3.7 9.9 10.08 9.9 6.37 0 10.08-4.3 10.08-9.9 0-5.43-3.71-9.99-10.08-9.99-6.38 0-10.08 4.56-10.08 9.99m36.69 0c0 14.99-12.4 23.51-26.61 23.51-14.12 0-26.62-8.44-26.62-23.51 0-15.08 12.41-23.6 26.62-23.6s26.61 8.52 26.61 23.6"/>
 </g>
</svg>
