<?xml version="1.0" encoding="UTF-8" standalone="no"?>
<svg xmlns:rdf="http://www.w3.org/1999/02/22-rdf-syntax-ns#" xmlns="http://www.w3.org/2000/svg" height="316.7" width="600" version="1.1" xmlns:cc="http://creativecommons.org/ns#" xmlns:dc="http://purl.org/dc/elements/1.1/" viewBox="0 0 480 253.35777">
 <path d="m428.56 172.57 24.37-22.48c4.04-3.58 7.61-7.14 10.73-10.71 3.13-3.57 5.79-7.32 8.02-11.24 2.22-3.92 3.88-8.15 5.01-12.69 1.09-4.54 1.66-9.53 1.66-15.04 0-8.53-1.6-16.188-4.78-22.982-3.21-6.82-7.57-12.576-13.16-17.332-5.54-4.731-12-8.411-19.36-11.017-7.36-2.604-15.14-3.926-23.34-3.926-9.31 0-17.68 1.445-25.11 4.337-7.43 2.877-13.75 6.941-18.96 12.165-5.21 5.216-9.31 11.499-12.3 18.862-2.21 5.453-3.68 11.322-4.41 17.658h43.9c0-5.223 1.45-9.528 4.38-13.227 2.92-3.709 7.16-5.573 12.71-5.573 2.78 0 5.25 0.589 7.39 1.756 2.16 1.173 4.04 2.729 5.64 4.63 1.6 1.924 2.79 4.1 3.64 6.492 0.83 2.424 1.25 4.865 1.25 7.335 0 7.142-1.85 14.052-5.52 20.722-3.69 6.67-7.82 12.47-12.4 17.41l-64.18 69.08h126.26v-34.23z" fill="#ed1c24"/>
 <path d="m0 207.08h162.7v-160.97h-162.7z" fill="#ed1c24"/>
 <g fill="#fff">
  <path d="m33.197 123.22h1.638c5.523 0 11.738-1.02 11.738-8.02s-6.215-8.03-11.738-8.03h-1.638zm37.191 35.52h-21.054l-15.965-24.76h-0.172v24.76h-16.916v-64.377h25.284c12.86 0 22.61 6.067 22.61 19.807 0 8.88-5.005 16.56-14.235 18.19z"/>
  <path d="m86.265 136.88c0 5.55 3.711 9.82 10.097 9.82 6.388 0 10.098-4.27 10.098-9.82 0-5.38-3.71-9.9-10.098-9.9-6.386 0-10.097 4.52-10.097 9.9m35.385 21.86h-15.71v-4.87h-0.17c-2.76 4.35-8.201 6.32-13.378 6.32-13.118 0-22.35-10.84-22.35-23.39 0-12.56 9.061-23.31 22.176-23.31 5.093 0 10.442 1.87 13.722 5.72v-4.27h15.71z"/>
  <path d="m146.41 158.74h-15.71v-43.8h15.71zm0.95-60.619c0 4.779-3.97 8.709-8.8 8.709-4.84 0-8.81-3.93-8.81-8.709s3.97-8.706 8.81-8.706c4.83 0 8.8 3.927 8.8 8.706"/>
 </g>
 <g fill="#f68712">
  <path d="m98.869-0.002062-17.53 30.043-17.532-30.043z"/>
  <path d="m63.807 253.36 17.534-30.04 17.528 30.04z"/>
  <path d="m192.98 122.37h0.18c3.01-5.36 8.17-7.74 14.27-7.74h3.02v14.89c-2.15-1.19-4.22-1.45-6.63-1.45-8.68 0-10.84 5.7-10.84 13.19v17.62h-15.65v-43.66h15.65z"/>
  <path d="m227.72 137.1c0 5.53 3.7 9.78 10.07 9.78 6.36 0 10.06-4.25 10.06-9.78 0-5.36-3.7-9.87-10.06-9.87-6.37 0-10.07 4.51-10.07 9.87m35.27 21.78h-15.65v-4.85h-0.17c-2.76 4.34-8.18 6.3-13.34 6.3-13.07 0-22.28-10.81-22.28-23.32s9.03-23.23 22.11-23.23c5.08 0 10.41 1.87 13.68 5.7v-4.25h15.65z"/>
  <path d="m285.43 137.1c0 5.53 3.69 9.78 10.06 9.78 6.36 0 10.06-4.25 10.06-9.78 0-5.36-3.7-9.87-10.06-9.87-6.37 0-10.06 4.51-10.06 9.87m19.61 16.93h-0.18c-2.74 4.34-8.17 6.3-13.32 6.3-13.08 0-22.28-10.81-22.28-23.32s9.03-23.23 22.1-23.23c5.07 0 10.41 1.87 13.68 5.7v-31.231h15.65v70.631h-15.65z"/>
  <path d="m344.59 158.88h-15.66v-43.66h15.66zm0.95-60.416c0 4.766-3.96 8.676-8.78 8.676s-8.77-3.91-8.77-8.676c0-4.768 3.95-8.682 8.77-8.682s8.78 3.914 8.78 8.682"/>
  <path d="m366.6 137.1c0 5.53 3.7 9.78 10.06 9.78 6.37 0 10.07-4.25 10.07-9.78 0-5.36-3.7-9.87-10.07-9.87-6.36 0-10.06 4.51-10.06 9.87m36.65 0c0 14.8-12.39 23.23-26.59 23.23-14.1 0-26.57-8.34-26.57-23.23s12.38-23.32 26.57-23.32c14.2 0 26.59 8.43 26.59 23.32"/>
 </g>
</svg>
