<svg xmlns="http://www.w3.org/2000/svg" viewBox="0 0 600 222.37"><g transform="matrix(1.11185 0 0 1.11185-113.75-327.11)"><path fill="#fff" d="m110.97 339.71h184.81v115.51h-184.81z"/><path d="m302.27 294.2h-199.96v200h199.96zm69.4 82.2c-1.926-1.628-4.075-2.92-6.461-3.877-2.361-.982-4.846-1.441-7.418-1.441-.907 0-1.913.137-2.969.41-1.069.286-2.05.733-2.92 1.292-.882.572-1.615 1.267-2.199 2.075-.572.82-.845 1.802-.845 2.932 0 1.155.311 2.137.957 2.982.646.857 1.416 1.59 2.336 2.199.932.596 1.938 1.093 2.994 1.479 1.069.385 2.075.745 2.994 1.019l5.33 1.578c2.758.87 5.355 1.876 7.778 3.056 2.423 1.168 4.498 2.609 6.299 4.311 1.789 1.702 3.168 3.765 4.2 6.113 1.031 2.41 1.541 5.243 1.541 8.486 0 4-.584 7.915-1.764 11.779-1.156 3.877-3.367 7.157-6.548 9.865-3.193 2.721-6.784 4.622-10.747 5.815-3.988 1.18-8.01 1.752-12.08 1.752-5.107 0-10.05-.795-14.847-2.398-4.796-1.59-9.256-3.839-13.369-6.771l8.958-16.835c2.622 2.274 5.467 4.224 8.511 5.852 3.056 1.652 6.424 2.46 10.05 2.46 1.205 0 2.398-.149 3.616-.485 1.205-.323 2.299-.783 3.243-1.429.957-.646 1.752-1.466 2.348-2.497.596-1.031.882-2.261.882-3.69 0-1.479-.41-2.733-1.305-3.74-.895-.969-1.988-1.826-3.317-2.559-1.305-.708-2.709-1.292-4.15-1.739-1.454-.46-2.758-.82-3.889-1.118-3.255-.919-6.237-1.901-8.896-2.945-2.671-1.019-4.957-2.361-6.883-3.988-1.913-1.64-3.392-3.69-4.411-6.175-1.031-2.497-1.553-5.703-1.553-9.604 0-4.05.696-7.741 2.075-11.08 1.392-3.342 3.317-6.187 5.765-8.523 2.448-2.348 5.355-4.162 8.735-5.43 3.367-1.292 7.094-1.926 11.133-1.926 2.063 0 4.2.137 6.399.472 2.199.335 4.386.77 6.548 1.342 2.187.559 4.311 1.255 6.411 2.062 2.087.82 4.03 1.727 5.815 2.721zm42.32 59.701h-19.42v-38.703h-6.274v-15.978h6.274v-16.425h19.42v16.425h10.971v15.978h-10.971v38.703m47.13-56.5c4.398 0 8.598.646 12.586 1.926 3.988 1.267 7.48 3.156 10.511 5.641 3.01 2.485 5.43 5.541 7.194 9.169 1.777 3.616 2.646 7.79 2.646 12.487 0 4.597-.87 8.735-2.646 12.338-1.777 3.64-4.187 6.684-7.194 9.182-3.03 2.485-6.511 4.361-10.511 5.653-3.976 1.267-8.175 1.913-12.586 1.913-4.336 0-8.486-.646-12.462-1.913-3.976-1.292-7.505-3.168-10.561-5.653-3.056-2.497-5.467-5.541-7.256-9.12-1.777-3.591-2.671-7.728-2.671-12.4 0-4.697.895-8.871 2.671-12.487 1.789-3.628 4.187-6.684 7.194-9.169 3.03-2.485 6.523-4.373 10.511-5.641 3.988-1.28 8.188-1.926 12.574-1.926m0 16.848c-1.976 0-3.752.335-5.268 1.019-1.528.659-2.833 1.565-3.889 2.646-1.069 1.106-1.876 2.41-2.448 3.877-.572 1.528-.845 3.106-.845 4.833 0 3.466 1.081 6.374 3.255 8.735 2.174 2.336 5.243 3.516 9.207 3.516 3.976 0 7.04-1.18 9.232-3.516 2.174-2.361 3.243-5.268 3.243-8.735 0-1.727-.286-3.305-.857-4.833-.559-1.466-1.367-2.771-2.448-3.877-1.044-1.081-2.336-1.988-3.889-2.646-1.528-.683-3.293-1.019-5.293-1.019m59.974-6.088h.224c1.839-3.404 4.299-5.877 7.355-7.393 3.056-1.541 6.498-2.299 10.35-2.299h3.715v18.649c-1.329-.783-2.671-1.267-3.988-1.503-1.305-.199-2.721-.298-4.2-.298-2.721 0-4.933.41-6.66 1.28-1.764.832-3.119 2-4.1 3.454-.994 1.454-1.715 3.206-2.087 5.231-.398 2.01-.596 4.187-.596 6.548v22.07h-19.407v-54.681h19.407v8.946zm39.697-40.815c1.491 0 2.883.273 4.2.845 1.317.572 2.473 1.354 3.466 2.336.994 1.01 1.777 2.174 2.348 3.466.559 1.342.845 2.733.845 4.237 0 1.479-.286 2.895-.845 4.2-.584 1.305-1.354 2.473-2.348 3.454-.994 1.01-2.149 1.777-3.466 2.361-1.305.547-2.709.832-4.2.832-1.503 0-2.895-.286-4.224-.832-1.292-.584-2.46-1.354-3.466-2.361-.994-.982-1.777-2.149-2.336-3.454-.572-1.305-.845-2.721-.845-4.2 0-1.503.273-2.895.845-4.237.559-1.292 1.329-2.46 2.336-3.466 1.01-.982 2.174-1.764 3.466-2.336 1.317-.572 2.721-.845 4.224-.845m9.691 86.55h-19.395v-54.681h19.395zm71.47 0h-19.383v-6.076h-.224c-1.69 2.696-4.088 4.684-7.132 5.976-3.056 1.267-6.188 1.913-9.381 1.913-4.063 0-7.778-.783-11.145-2.336-3.367-1.59-6.274-3.69-8.722-6.361-2.46-2.659-4.361-5.765-5.715-9.318-1.342-3.566-2.01-7.293-2.01-11.207 0-3.901.671-7.604 2.01-11.132 1.354-3.516 3.23-6.61 5.591-9.269 2.386-2.659 5.268-4.771 8.635-6.324 3.38-1.565 7.095-2.361 11.145-2.361 3.193 0 6.299.572 9.318 1.764 3.02 1.168 5.554 2.957 7.616 5.367v-5.318h19.382v54.681zm-31.21-39.647c-1.988 0-3.765.335-5.28 1.019-1.528.659-2.833 1.565-3.889 2.646-1.081 1.106-1.876 2.41-2.448 3.877-.572 1.528-.845 3.106-.845 4.833 0 3.466 1.069 6.374 3.243 8.735 2.162 2.336 5.231 3.516 9.219 3.516 3.963 0 7.03-1.18 9.219-3.516 2.162-2.361 3.243-5.268 3.243-8.735 0-1.727-.273-3.305-.845-4.833-.559-1.466-1.392-2.771-2.448-3.877-1.069-1.081-2.348-1.988-3.889-2.646-1.528-.683-3.293-1.019-5.281-1.019" fill="#a5cf4c"/></g><path d="m44.684 108.57h2.238c7.543 0 16.01-1.423 16.01-11.07 0-9.684-8.468-11.09-16.01-11.09h-2.238zm50.768 48.986h-28.748l-21.799-34.14h-.235v34.14h-23.07v-88.81h34.495c17.558 0 30.848 8.372 30.848 27.325 0 12.253-6.824 22.863-19.409 25.09zm22.987-30.14c0 7.653 5.07 13.538 13.787 13.538 8.744 0 13.787-5.885 13.787-13.538 0-7.418-5.04-13.662-13.787-13.662-8.717 0-13.787 6.244-13.787 13.662m48.3 30.14h-21.426v-6.7h-.235c-3.771 5.995-11.203 8.717-18.263 8.717-17.89 0-30.488-14.975-30.488-32.28 0-17.337 12.364-32.16 30.25-32.16 6.949 0 14.243 2.569 18.718 7.888v-5.857h21.426v60.4zm36.01-83.62c0 6.589-5.429 12.02-12 12.02-6.603 0-12.02-5.429-12.02-12.02 0-6.603 5.429-12.02 12.02-12.02 6.576 0 12 5.415 12 12.02m-1.326 83.62h-21.412v-60.41h21.412z" fill="#fff"/></svg>