<svg xmlns="http://www.w3.org/2000/svg" viewBox="0 0 600 195.42"><g transform="matrix(1.58053 0 0 1.58053-1557.38-1429.07)"><path d="m985.35 904.17v123.64h123.64v-123.64h-123.64" fill="#ffca00"/><g transform="matrix(.94202 0 0 .94202 525.15 700.04)" fill="#fff"><path d="m525.63 288.82l17.06 22.247h-17.569l-13.32-20.881h-.143v20.881h-14.11v-54.29h21.1c5.376.048 9.864 1.404 13.464 4.068 3.6 2.664 5.4 6.9 5.4 12.708 0 3.744-1.02 7.07-3.06 9.972-2.04 2.904-4.979 4.692-8.819 5.362zm-13.968-21.241v13.537h1.367c.24.047.48.07.721.07.24 0 .456 0 .648 0 2.112-.095 4.04-.587 5.796-1.475 1.752-.888 2.628-2.652 2.628-5.292 0-2.64-.876-4.404-2.628-5.292-1.752-.888-3.684-1.38-5.796-1.475-.192 0-.408 0-.648 0-.24 0-.48 0-.721 0l-1.367-.072"/><path d="m586.59 274.13v36.936h-13.1v-4.104h-.143c-1.056 1.729-2.496 3.01-4.321 3.853-1.824.84-3.72 1.308-5.688 1.403-.192.048-.384.072-.576.072-.192 0-.384 0-.576 0-5.473 0-9.949-1.956-13.429-5.868-3.48-3.912-5.22-8.508-5.22-13.789 0-5.279 1.716-9.875 5.147-13.787 3.431-3.912 7.883-5.868 13.356-5.868.24 0 .48 0 .721 0 .24 0 .48.024.719.07 1.872.145 3.708.613 5.509 1.405 1.8.792 3.3 1.908 4.5 3.348v-3.672h13.1m-21.1 10.151c-2.64.048-4.704.901-6.192 2.557-1.488 1.656-2.232 3.612-2.232 5.868 0 2.353.744 4.321 2.232 5.904 1.488 1.584 3.552 2.375 6.192 2.375 2.688 0 4.764-.792 6.228-2.375 1.464-1.583 2.196-3.551 2.196-5.904 0-2.256-.732-4.212-2.196-5.868-1.464-1.656-3.54-2.484-6.228-2.484z"/><path d="m608.38 274.13v36.936h-13.1v-36.936h13.1m-6.552-21.529c2.02.048 3.743.793 5.183 2.232 1.44 1.44 2.16 3.168 2.16 5.183 0 2.02-.72 3.746-2.16 5.186-1.44 1.44-3.168 2.16-5.183 2.16-2.02 0-3.743-.72-5.183-2.16-1.44-1.44-2.16-3.168-2.16-5.186 0-2.02.72-3.743 2.16-5.183 1.44-1.44 3.168-2.16 5.183-2.16z"/></g><g fill="#ffca00"><path d="m1158.21 945.74l-5.064 9.869c-1.169-.952-2.478-1.721-3.928-2.305-1.45-.584-2.954-.877-4.513-.877-.217 0-.455.011-.714.033-.26.022-.519.076-.778.163-.996.215-1.905.648-2.727 1.297-.822.649-1.233 1.515-1.233 2.599 0 1.038.389 1.871 1.168 2.498.779.627 1.623 1.136 2.533 1.526.346.131.681.25 1.01.358.324.108.638.205.942.292l3.245.909c3.42 1.038 6.287 2.542 8.603 4.512 2.315 1.969 3.473 4.945 3.473 8.928 0 .173 0 .346 0 .519 0 .173 0 .346 0 .519-.087 2.251-.499 4.447-1.234 6.59-.736 2.142-2.01 3.993-3.83 5.552-1.645 1.428-3.506 2.488-5.583 3.181-2.078.693-4.198 1.126-6.362 1.299-.347 0-.683.011-1.01.032-.324.021-.638.032-.94.032-3.074 0-6.082-.487-9.03-1.46-2.943-.973-5.67-2.326-8.181-4.058l5.455-10.323c1.601 1.428 3.343 2.64 5.226 3.636 1.883.996 3.906 1.494 6.07 1.494.087 0 .174 0 .261 0 .087 0 .173 0 .259 0 1.429-.087 2.728-.531 3.896-1.331 1.168-.8 1.753-2 1.753-3.604 0-1.211-.487-2.185-1.46-2.92-.974-.736-2.066-1.32-3.279-1.753-.519-.173-1.039-.335-1.558-.486-.52-.151-.996-.292-1.428-.423-.087-.044-.185-.076-.293-.097-.108-.021-.205-.053-.291-.097-3.853-1.082-6.927-2.467-9.22-4.155-2.294-1.688-3.441-4.848-3.441-9.479 0-4.978 1.591-8.961 4.772-11.947 3.181-2.986 7.218-4.48 12.11-4.48.995 0 2.01.054 3.05.162 1.039.108 2.078.293 3.118.553 1.645.346 3.257.801 4.836 1.363 1.58.563 3.02 1.212 4.317 1.948z"/><path d="m1177.38 958.66v3.767h.131c.995-1.515 2.336-2.673 4.02-3.474 1.688-.801 3.441-1.245 5.26-1.33.129 0 .259 0 .389 0 .13 0 .26 0 .389 0 4.977 0 9.02 1.785 12.141 5.356 3.117 3.57 4.675 7.736 4.675 12.498 0 4.804-1.547 8.938-4.642 12.4-3.095 3.463-7.11 5.194-12.04 5.194-.173 0-.335 0-.486 0-.151 0-.313 0-.486 0-1.732-.129-3.431-.53-5.097-1.201-1.666-.671-3.084-1.678-4.253-3.02v19.738h-11.817v-49.928h11.817m7.206 9.154c-2.38.044-4.241.812-5.582 2.305-1.341 1.493-2.01 3.257-2.01 5.291 0 2.121.671 3.896 2.01 5.324 1.341 1.428 3.202 2.142 5.582 2.142 2.425 0 4.297-.714 5.617-2.142 1.32-1.428 1.979-3.202 1.979-5.324 0-2.034-.66-3.798-1.979-5.291-1.32-1.493-3.192-2.24-5.617-2.24z"/><path d="m1227.8 957.55c5.367.044 10.05 1.613 14.06 4.708 4 3.095 6.01 7.477 6.01 13.146 0 5.627-2 9.977-6.01 13.05-4 3.073-8.69 4.61-14.06 4.61-5.323 0-9.997-1.526-14.02-4.577-4.03-3.051-6.04-7.412-6.04-13.08 0-5.669 2-10.05 6.01-13.146 4-3.095 8.689-4.642 14.06-4.642zm0 10.257c-2.38.044-4.241.812-5.583 2.305-1.342 1.493-2.01 3.257-2.01 5.291 0 2.121.671 3.896 2.01 5.324 1.342 1.428 3.203 2.142 5.583 2.142 2.424 0 4.296-.714 5.616-2.142 1.32-1.428 1.98-3.202 1.98-5.324 0-2.034-.66-3.798-1.98-5.291-1.32-1.493-3.192-2.24-5.616-2.24z"/><path d="m1265.01 958.66v5.455h.129c1.125-1.992 2.63-3.464 4.513-4.416 1.883-.952 3.972-1.429 6.266-1.429l2.273-.063v11.361c-.173-.044-.335-.109-.487-.195-.152-.087-.314-.152-.487-.195-.649-.259-1.297-.432-1.947-.518-.649-.087-1.342-.13-2.077-.13-3.29 0-5.476.963-6.558 2.889-1.082 1.926-1.623 4.317-1.623 7.174v13.374h-11.817v-33.31h11.817"/><path d="m1295.54 968.39v23.568h-11.817v-23.568h-3.83v-9.738h3.83v-9.998h11.817v9.998h6.687v9.738h-6.687"/><path d="m1349.83 983.04h15.14v10.175h-37.15l18.882-20.536c1.348-1.431 2.564-3.137 3.647-5.119 1.083-1.982 1.625-4.04 1.625-6.161 0-.04 0-.091 0-.152 0-.062 0-.133 0-.214-.082-1.389-.593-2.677-1.533-3.862-.94-1.185-2.186-1.778-3.739-1.778-1.635 0-2.882.552-3.74 1.656-.858 1.104-1.287 2.432-1.287 3.985 0 .286.02.602.061.949.041.347.081.684.123 1.01l-13.242-.06c.205-5.272 1.901-9.543 5.089-12.812 3.188-3.269 7.499-4.904 12.935-4.904 4.864 0 9.05 1.481 12.568 4.444 3.515 2.963 5.272 6.957 5.272 11.983 0 2.861-.491 5.293-1.471 7.296-.981 2-2.391 3.924-4.231 5.762-.286.286-.572.572-.858.858-.286.286-.593.573-.919.86l-7.173 6.621" transform="translate(0-1.525)"/></g></g></svg>