<svg xmlns="http://www.w3.org/2000/svg" width="600" height="197.79" viewBox="0 0 599.99878 197.79401"><g transform="scale(.98897)" fill="#fff"><path d="m42.26 77.73h-2.01v19.915h2.01c6.789 0 14.413-1.258 14.413-9.943 0-8.685-7.624-9.972-14.413-9.972m76.73 24.591c-7.84 0-12.409 5.6-12.409 12.281 0 6.887 4.568 12.183 12.409 12.183 7.85 0 12.399-5.295 12.399-12.183 0-6.681-4.549-12.281-12.399-12.281zm-118.99 97.68h199.97v-200h-199.97v200m60.06-58.27l-19.61-30.731h-.206v30.731h-20.759v-79.874h31.04c15.778 0 27.755 7.516 27.755 24.571 0 11.01-6.131 20.553-17.478 22.538l25.11 32.765h-25.849m89.97 0h-19.286v-6.04h-.206c-3.399 5.404-10.05 7.84-16.417 7.84-16.1 0-27.421-13.45-27.421-29.03 0-15.582 11.1-28.904 27.21-28.904 6.248 0 12.821 2.309 16.839 7.084v-5.286h19.286v54.34zm11.957-54.34h19.256v54.34h-19.256v-54.34m9.608-10.08c-5.914 0-10.787-4.863-10.787-10.797 0-5.934 4.873-10.807 10.787-10.807 5.944 0 10.817 4.873 10.817 10.807 0 5.934-4.873 10.797-10.817 10.797"/><path d="m268.81 82.92c-1.906-1.651-4.067-2.938-6.445-3.9-2.397-.963-4.844-1.444-7.408-1.444-.943 0-1.916.157-2.997.432-1.061.285-2.053.717-2.938 1.277-.884.56-1.611 1.258-2.191 2.083-.56.815-.855 1.768-.855 2.928 0 1.14.324 2.132.963 2.987.639.855 1.434 1.582 2.348 2.191.914.609 1.906 1.091 2.997 1.474 1.061.403 2.034.737 2.997 1.032l5.315 1.592c2.771.845 5.374 1.857 7.761 3.036 2.427 1.159 4.539 2.604 6.327 4.313 1.768 1.709 3.164 3.763 4.205 6.111 1.022 2.407 1.542 5.217 1.542 8.498 0 3.989-.58 7.899-1.759 11.79-1.189 3.861-3.38 7.143-6.553 9.844-3.203 2.702-6.789 4.647-10.778 5.806-3.989 1.179-7.987 1.778-12.05 1.778-5.119 0-10.08-.825-14.865-2.427-4.794-1.601-9.255-3.851-13.391-6.769l8.96-16.839c2.643 2.279 5.492 4.234 8.528 5.885 3.065 1.631 6.396 2.437 10.02 2.437 1.218 0 2.427-.157 3.615-.481 1.218-.305 2.289-.796 3.262-1.444.953-.639 1.749-1.464 2.358-2.505.58-1.022.894-2.25.894-3.665 0-1.503-.452-2.731-1.336-3.743-.894-1-1.985-1.827-3.321-2.545-1.307-.717-2.692-1.307-4.166-1.768-1.434-.452-2.712-.825-3.881-1.1-3.272-.933-6.229-1.896-8.881-2.938-2.662-1.032-4.971-2.378-6.887-3.999-1.896-1.641-3.399-3.694-4.421-6.19-1.022-2.476-1.533-5.679-1.533-9.589 0-4.058.678-7.732 2.063-11.11 1.405-3.301 3.321-6.16 5.767-8.488 2.456-2.368 5.364-4.166 8.734-5.443 3.389-1.287 7.103-1.926 11.151-1.926 2.053 0 4.195.157 6.386.481 2.201.324 4.392.766 6.553 1.336 2.171.58 4.303 1.258 6.396 2.063 2.102.825 4.048 1.729 5.806 2.721l-8.292 16.22"/><path d="m307.03 94.07h.206c1.788-2.672 4.195-4.677 7.201-5.993 3.01-1.307 6.121-1.975 9.324-1.975 4.058 0 7.791.806 11.19 2.407 3.399 1.601 6.337 3.724 8.724 6.396 2.427 2.662 4.313 5.767 5.669 9.324 1.346 3.557 2.024 7.29 2.024 11.171 0 3.91-.678 7.644-2.024 11.151-1.356 3.527-3.222 6.622-5.58 9.274-2.387 2.672-5.266 4.765-8.646 6.307-3.38 1.503-7.093 2.279-11.151 2.279-3.193 0-6.298-.56-9.304-1.709-3.046-1.11-5.58-2.918-7.624-5.325v32.51h-19.413v-81.967h19.413v6.15m11.819 8.881c-1.985 0-3.753.334-5.266 1.012-1.533.668-2.839 1.572-3.9 2.662-1.051 1.081-1.886 2.387-2.456 3.891-.57 1.493-.845 3.095-.845 4.804 0 3.478 1.081 6.386 3.262 8.744 2.142 2.328 5.217 3.498 9.216 3.498 3.969 0 7.05-1.169 9.216-3.498 2.161-2.358 3.242-5.266 3.242-8.744 0-1.709-.275-3.311-.845-4.804-.58-1.503-1.385-2.81-2.456-3.891-1.041-1.091-2.368-1.994-3.891-2.662-1.533-.678-3.301-1.012-5.276-1.012z"/><path d="m389.85 86.1c4.401 0 8.587.648 12.576 1.926 3.979 1.277 7.477 3.154 10.503 5.659 3.02 2.476 5.413 5.521 7.172 9.157 1.778 3.625 2.672 7.771 2.672 12.477 0 4.618-.904 8.744-2.672 12.35-1.768 3.615-4.166 6.691-7.172 9.147-3.036 2.505-6.524 4.401-10.503 5.669-3.989 1.277-8.174 1.926-12.576 1.926-4.323 0-8.498-.648-12.467-1.926-3.989-1.267-7.516-3.164-10.561-5.669-3.075-2.456-5.472-5.502-7.251-9.1-1.768-3.576-2.653-7.742-2.653-12.399 0-4.706.884-8.852 2.653-12.477 1.788-3.635 4.185-6.681 7.192-9.157 3.02-2.505 6.524-4.382 10.493-5.659 3.999-1.277 8.184-1.926 12.595-1.926m0 16.849c-1.985 0-3.743.334-5.276 1.012-1.523.668-2.839 1.572-3.891 2.662-1.071 1.081-1.886 2.387-2.456 3.891-.57 1.493-.845 3.095-.845 4.804 0 3.478 1.071 6.386 3.242 8.744 2.171 2.328 5.227 3.498 9.216 3.498 3.979 0 7.05-1.169 9.216-3.498 2.171-2.358 3.262-5.266 3.262-8.744 0-1.709-.285-3.311-.845-4.804-.589-1.503-1.395-2.81-2.476-3.891-1.061-1.091-2.348-1.994-3.881-2.662-1.523-.678-3.281-1.012-5.266-1.012z"/><path d="m449.29 96.88h.206c1.837-3.429 4.284-5.885 7.349-7.408 3.055-1.542 6.504-2.299 10.326-2.299h3.733v18.657c-1.336-.796-2.662-1.287-3.989-1.493-1.307-.216-2.712-.305-4.215-.305-2.692 0-4.922.403-6.661 1.267-1.749.845-3.114 2-4.097 3.448-1.012 1.464-1.7 3.203-2.083 5.237-.393 2.034-.58 4.205-.58 6.553v22.05h-19.404v-54.664h19.404v8.96"/><path transform="matrix(9.82463 0 0 9.82463-3756.44-2811.47)" d="m433.51 300.68h-1.97v-3.94h-.64v-1.63h.64v-1.67h1.97v1.67h1.12v1.63h-1.12v3.94"/><path d="m606.69 124.83v17.645h-64.44l32.765-35.624c2.328-2.545 4.431-5.531 6.307-8.96 1.876-3.448 2.82-7.03 2.82-10.689 0-1.287-.206-2.545-.648-3.792-.432-1.238-1.022-2.338-1.847-3.34-.796-.992-1.778-1.798-2.859-2.387-1.11-.609-2.368-.904-3.763-.904-2.839 0-5.02.953-6.494 2.859-1.493 1.926-2.25 4.225-2.25 6.917 0 1.051.128 2.201.334 3.399h-22.96c.147-4.598.963-8.803 2.486-12.595 1.533-3.792 3.625-7.03 6.278-9.726 2.662-2.702 5.895-4.785 9.677-6.278 3.782-1.493 8.06-2.25 12.821-2.25 4.156 0 8.125.678 11.888 2.053 3.773 1.336 7.06 3.232 9.903 5.679 2.829 2.446 5.07 5.423 6.71 8.94 1.621 3.478 2.437 7.447 2.437 11.829 0 2.849-.285 5.443-.865 7.752-.57 2.368-1.415 4.519-2.545 6.543-1.12 2.034-2.495 3.979-4.087 5.797-1.601 1.857-3.439 3.704-5.502 5.541l-12.438 11.593h26.27"/></g></svg>