<?xml version="1.0" encoding="UTF-8" standalone="no"?>
<!-- Created with Inkscape (http://www.inkscape.org/) -->

<svg
   xmlns:dc="http://purl.org/dc/elements/1.1/"
   xmlns:cc="http://creativecommons.org/ns#"
   xmlns:rdf="http://www.w3.org/1999/02/22-rdf-syntax-ns#"
   xmlns:svg="http://www.w3.org/2000/svg"
   xmlns="http://www.w3.org/2000/svg"
   version="1.1"
   width="599.99878"
   height="197.79401"
   viewBox="0 0 599.99878 197.79401"
   id="Layer_1"
   xml:space="preserve"><metadata
   id="metadata3011"><rdf:RDF><cc:Work
       rdf:about=""><dc:format>image/svg+xml</dc:format><dc:type
         rdf:resource="http://purl.org/dc/dcmitype/StillImage" /><dc:title></dc:title></cc:Work></rdf:RDF></metadata><defs
   id="defs3009" />
<g
   transform="matrix(0.98897,0,0,0.98897,4.6478711e-6,0)"
   id="g3013"><path
     d="m 42.255735,77.732477 h -2.01405 v 19.914526 h 2.01405 c 6.78882,0 14.41273,-1.257553 14.41273,-9.942526 0,-8.684974 -7.62391,-9.972 -14.41273,-9.972 M 118.9861,102.32353 c -7.84006,0 -12.40851,5.60004 -12.40851,12.28079 0,6.88706 4.56845,12.18254 12.40851,12.18254 7.84988,0 12.39868,-5.29548 12.39868,-12.18254 0,-6.68075 -4.5488,-12.28079 -12.39868,-12.28079 z M -4.6997089e-6,200 H 199.97053 V 0 H -4.6997089e-6 V 200 z M 60.057965,141.73012 40.447995,110.99868 h -0.20631 v 30.73144 H 19.482235 V 61.855874 h 31.03601 c 15.77836,0 27.75458,7.515842 27.75458,24.571401 0,11.01341 -6.13057,20.553125 -17.47802,22.537705 l 25.11176,32.76514 h -25.8486 z m 89.973965,0 h -19.28575 v -6.04215 h -0.20631 c -3.39933,5.40355 -10.0506,7.84006 -16.41696,7.84006 -16.102575,0 -27.420555,-13.44992 -27.420555,-29.03179 0,-15.58186 11.10184,-28.904059 27.214235,-28.904059 6.24847,0 12.82114,2.308788 16.83942,7.083559 v -5.285652 h 19.28575 v 54.340032 z m 11.95658,-54.340032 h 19.25627 V 141.73012 H 161.98851 V 87.390088 z M 171.597,77.310017 c -5.91443,0 -10.78745,-4.863192 -10.78745,-10.797268 0,-5.934077 4.87302,-10.807094 10.78745,-10.807094 5.9439,0 10.81691,4.873017 10.81691,10.807094 0,5.934076 -4.87301,10.797268 -10.81691,10.797268 z"
     id="path2701"
     style="fill:#ffffff" /><path
     d="m 268.81171,82.919881 c -1.90597,-1.650537 -4.06739,-2.937564 -6.44495,-3.900378 -2.39721,-0.962814 -4.84355,-1.444221 -7.40777,-1.444221 -0.94317,0 -1.91581,0.157195 -2.99652,0.432284 -1.06106,0.284915 -2.05334,0.717198 -2.93756,1.277202 -0.88422,0.560004 -1.61124,1.257553 -2.19089,2.082822 -0.56001,0.815444 -0.85475,1.768433 -0.85475,2.92774 0,1.139657 0.32422,2.131945 0.96282,2.986687 0.6386,0.854743 1.43439,1.581766 2.34808,2.190893 0.91369,0.609127 1.90598,1.090534 2.99652,1.473695 1.06106,0.402809 2.03369,0.736847 2.99651,1.031586 l 5.31512,1.59159 c 2.77055,0.844918 5.37408,1.856855 7.76146,3.035811 2.42669,1.159306 4.53898,2.603527 6.32706,4.313018 1.76844,1.70948 3.16353,3.76283 4.20495,6.11092 1.02176,2.40703 1.54246,5.21687 1.54246,8.4983 0,3.9888 -0.57965,7.899 -1.75861,11.78956 -1.18878,3.86108 -3.37967,7.1425 -6.55302,9.84428 -3.20283,2.70177 -6.78882,4.64705 -10.77762,5.80635 -3.9888,1.17896 -7.98743,1.77826 -12.05483,1.77826 -5.11863,0 -10.08007,-0.82527 -14.86466,-2.42668 -4.79442,-1.60142 -9.2548,-3.85126 -13.39097,-6.76917 l 8.96006,-16.83942 c 2.64283,2.27932 5.49197,4.23442 8.52778,5.88495 3.06528,1.63089 6.39583,2.43651 10.02112,2.43651 1.21826,0 2.42669,-0.15719 3.61547,-0.4814 1.21825,-0.30457 2.28913,-0.7958 3.26177,-1.44422 0.95299,-0.63861 1.74879,-1.46387 2.35791,-2.50529 0.57966,-1.02176 0.89405,-2.24984 0.89405,-3.66458 0,-1.50317 -0.45194,-2.73125 -1.33615,-3.74319 -0.89405,-1.00211 -1.98458,-1.82738 -3.32073,-2.54458 -1.30667,-0.71719 -2.69195,-1.30667 -4.16564,-1.76843 -1.4344,-0.45193 -2.7116,-0.82527 -3.88073,-1.10036 -3.2716,-0.93334 -6.22882,-1.89615 -8.88147,-2.93756 -2.66247,-1.03159 -4.97126,-2.37756 -6.88706,-3.99863 -1.89616,-1.64071 -3.39933,-3.694059 -4.42109,-6.189515 -1.02176,-2.475807 -1.53264,-5.678637 -1.53264,-9.588839 0,-4.057573 0.6779,-7.731985 2.06317,-11.111658 1.40493,-3.301075 3.32073,-6.160043 5.76706,-8.48848 2.45616,-2.367736 5.36425,-4.165644 8.7341,-5.442846 3.3895,-1.287026 7.10321,-1.925627 11.15095,-1.925627 2.05335,0 4.19512,0.157194 6.38601,0.481407 2.20072,0.324213 4.39161,0.766321 6.55303,1.33615 2.17125,0.579653 4.30319,1.257552 6.39584,2.063172 2.10247,0.825269 4.04774,1.729135 5.80635,2.721423 l -8.29199,16.220464"
     id="path2703"
     style="fill:#ffffff" /><path
     d="m 307.02953,94.070837 h 0.20631 c 1.78809,-2.672299 4.19512,-4.676524 7.20146,-5.993025 3.00634,-1.306675 6.12074,-1.97475 9.32357,-1.97475 4.05758,0 7.79094,0.805619 11.19026,2.407034 3.39932,1.601415 6.33688,3.723535 8.72427,6.395835 2.42668,2.662475 4.31301,5.767059 5.66881,9.323579 1.34598,3.55651 2.02387,7.28987 2.02387,11.1706 0,3.9102 -0.67789,7.64356 -2.02387,11.15096 -1.3558,3.52704 -3.22248,6.6218 -5.58039,9.27445 -2.38738,2.6723 -5.266,4.76494 -8.64567,6.30741 -3.37968,1.50317 -7.09339,2.27931 -11.15096,2.27931 -3.193,0 -6.29759,-0.56 -9.30392,-1.70948 -3.04564,-1.11019 -5.58039,-2.91792 -7.62392,-5.32495 v 32.5097 H 287.62588 V 87.920618 h 19.41347 v 6.150219 m 11.81903,8.881463 c -1.98457,0 -3.75301,0.33404 -5.266,1.01194 -1.53264,0.66808 -2.83932,1.57194 -3.90038,2.66248 -1.05123,1.0807 -1.88633,2.38738 -2.45616,3.89055 -0.56982,1.49334 -0.84491,3.09476 -0.84491,4.80424 0,3.47792 1.08071,6.38601 3.26177,8.74392 2.14177,2.32844 5.21688,3.49757 9.21551,3.49757 3.96915,0 7.05408,-1.16913 9.2155,-3.49757 2.16142,-2.35791 3.24213,-5.266 3.24213,-8.74392 0,-1.70948 -0.27509,-3.3109 -0.84492,-4.80424 -0.57965,-1.50317 -1.38527,-2.80985 -2.45616,-3.89055 -1.04141,-1.09054 -2.36773,-1.9944 -3.89055,-2.66248 -1.53264,-0.6779 -3.30108,-1.01194 -5.27583,-1.01194 z"
     id="path2705"
     style="fill:#ffffff" /><path
     d="m 389.85116,86.103062 c 4.40144,0 8.58673,0.648425 12.57553,1.925627 3.97897,1.277202 7.47654,3.153707 10.50253,5.658987 3.01616,2.475807 5.41337,5.521443 7.17198,9.156554 1.77826,3.62529 2.6723,7.77129 2.6723,12.47728 0,4.61758 -0.90387,8.74392 -2.6723,12.34956 -1.76843,3.61547 -4.16564,6.69058 -7.17198,9.14673 -3.03581,2.50528 -6.52356,4.40144 -10.50253,5.66882 -3.9888,1.2772 -8.17409,1.92562 -12.57553,1.92562 -4.32284,0 -8.4983,-0.64842 -12.46745,-1.92562 -3.9888,-1.26738 -7.51585,-3.16354 -10.56148,-5.66882 -3.07511,-2.45615 -5.47232,-5.50179 -7.25058,-9.0976 -1.76843,-3.57617 -2.65265,-7.74181 -2.65265,-12.39869 0,-4.70599 0.88422,-8.85199 2.65265,-12.47728 1.78808,-3.635111 4.18529,-6.680747 7.19163,-9.156554 3.01616,-2.50528 6.52356,-4.381785 10.49271,-5.658987 3.99862,-1.277202 8.18391,-1.925627 12.59517,-1.925627 m 0,16.849238 c -1.98457,0 -3.74318,0.33404 -5.27582,1.01194 -1.52282,0.66808 -2.83932,1.57194 -3.89056,2.66248 -1.07088,1.0807 -1.88633,2.38738 -2.45616,3.89055 -0.56982,1.49334 -0.84491,3.09476 -0.84491,4.80424 0,3.47792 1.07088,6.38601 3.24212,8.74392 2.17125,2.32844 5.22671,3.49757 9.21551,3.49757 3.97897,0 7.05408,-1.16913 9.2155,-3.49757 2.17124,-2.35791 3.26178,-5.266 3.26178,-8.74392 0,-1.70948 -0.28492,-3.3109 -0.84492,-4.80424 -0.58948,-1.50317 -1.3951,-2.80985 -2.47581,-3.89055 -1.06106,-1.09054 -2.34808,-1.9944 -3.88073,-2.66248 -1.52281,-0.6779 -3.28142,-1.01194 -5.266,-1.01194 z"
     id="path2707"
     style="fill:#ffffff" /><path
     d="m 449.29018,96.880681 h 0.20631 c 1.83721,-3.428796 4.28354,-5.884953 7.34883,-7.407771 3.05546,-1.542467 6.5039,-2.298964 10.32568,-2.298964 h 3.73336 v 18.656974 c -1.33615,-0.79579 -2.66247,-1.28703 -3.9888,-1.49334 -1.30667,-0.21615 -2.71159,-0.30457 -4.21476,-0.30457 -2.69195,0 -4.92214,0.40281 -6.6611,1.26738 -1.74879,0.84492 -3.11441,2.00422 -4.09687,3.44845 -1.01194,1.46387 -1.69966,3.20283 -2.08282,5.23652 -0.39299,2.0337 -0.57966,4.20495 -0.57966,6.55303 v 22.04647 H 429.87671 V 87.920618 h 19.40364 v 8.960063"
     id="path2709"
     style="fill:#ffffff" /><polyline
     transform="matrix(9.8246305,0,0,9.8246305,-3756.4377,-2811.4654)"
     style="fill:#ffffff"
     id="polyline2711"
     points="433.513,300.678 431.538,300.678 431.538,296.741 430.898,296.741 430.898,295.114   431.538,295.114 431.538,293.444 433.513,293.444 433.513,295.114 434.629,295.114 434.629,296.741 433.513,296.741   433.513,300.678 " /><path
     d="m 606.69058,124.83176 v 17.64503 h -64.43975 l 32.76514,-35.62411 c 2.32844,-2.54458 4.43091,-5.53127 6.30742,-8.960062 1.8765,-3.448445 2.81966,-7.034435 2.81966,-10.689198 0,-1.287026 -0.20631,-2.544579 -0.64842,-3.792307 -0.43228,-1.237903 -1.02176,-2.338262 -1.84703,-3.340374 -0.7958,-0.992288 -1.77826,-1.797908 -2.85897,-2.387386 -1.11018,-0.609127 -2.36773,-0.903866 -3.76283,-0.903866 -2.83932,0 -5.02039,0.95299 -6.49408,2.858968 -1.49335,1.925627 -2.24984,4.224591 -2.24984,6.91654 0,1.051235 0.12772,2.200717 0.33403,3.399322 h -22.96016 c 0.14737,-4.597927 0.96282,-8.802869 2.48563,-12.595176 1.53265,-3.792308 3.62529,-7.034436 6.27794,-9.726385 2.66248,-2.701773 5.89478,-4.784595 9.67726,-6.277938 3.78249,-1.493344 8.0562,-2.249841 12.82115,-2.249841 4.15582,0 8.12497,0.6779 11.8878,2.053348 3.77266,1.33615 7.06391,3.232303 9.90323,5.678636 2.82949,2.446333 5.06951,5.423196 6.71022,8.940414 1.62106,3.477919 2.43651,7.44707 2.43651,11.828855 0,2.849143 -0.28492,5.442846 -0.86457,7.751634 -0.56983,2.367736 -1.41475,4.51933 -2.54458,6.543206 -1.12001,2.0337 -2.49545,3.97897 -4.08704,5.79653 -1.60142,1.85686 -3.43863,3.70389 -5.5018,5.54109 l -12.43798,11.59307 h 26.27106"
     id="path2713"
     style="fill:#ffffff" />
</g>
</svg>