<?xml version="1.0" encoding="UTF-8" standalone="no"?>
<!-- Created with Inkscape (http://www.inkscape.org/) -->

<svg
   xmlns:dc="http://purl.org/dc/elements/1.1/"
   xmlns:cc="http://creativecommons.org/ns#"
   xmlns:rdf="http://www.w3.org/1999/02/22-rdf-syntax-ns#"
   xmlns:svg="http://www.w3.org/2000/svg"
   xmlns="http://www.w3.org/2000/svg"
   version="1.1"
   width="599.99939"
   height="195.418"
   id="svg4228">
  <defs
     id="defs4230" />
  <metadata
     id="metadata4233">
    <rdf:RDF>
      <cc:Work
         rdf:about="">
        <dc:format>image/svg+xml</dc:format>
        <dc:type
           rdf:resource="http://purl.org/dc/dcmitype/StillImage" />
        <dc:title></dc:title>
      </cc:Work>
    </rdf:RDF>
  </metadata>
  <g
     transform="translate(-52.93674,-432.69552)"
     id="layer1">
    <g
       transform="matrix(1.5805341,0,0,1.5805341,-1504.4441,-996.37761)"
       id="g3879">
      <path
         d="m 985.35099,904.17102 0,123.64048 123.64051,0 0,-123.64048 -123.64051,0 z"
         id="path3837"
         style="fill:#ffca00;fill-opacity:1;stroke:none" />
      <g
         transform="matrix(0.94202084,0,0,0.94202084,525.14693,700.03701)"
         id="g3839"
         style="font-size:72px;font-style:normal;font-variant:normal;font-weight:normal;font-stretch:normal;text-align:start;line-height:100%;writing-mode:lr-tb;text-anchor:start;fill:#ffffff;fill-opacity:1;stroke:none;font-family:Futura-Bold;-inkscape-font-specification:Futura-Bold">
        <path
           d="m 525.62604,288.81665 17.06396,22.24731 -17.56933,0 -13.31983,-20.88061 -0.14282,0 0,20.88061 -14.11304,0 0,-54.28784 21.09595,0 c 5.37595,0.0484 9.86386,1.40447 13.46375,4.06824 3.59981,2.66387 5.39973,6.89982 5.39978,12.70789 -5e-5,3.74417 -1.01995,7.06826 -3.0597,9.97229 -2.03983,2.90407 -4.9794,4.69155 -8.81872,5.36242 z m -13.96802,-21.24097 0,13.53736 1.3667,0 c 0.24021,0.0469 0.48045,0.0703 0.7207,0.0703 0.24022,3e-5 0.45628,3e-5 0.6482,0 2.11228,-0.0952 4.0444,-0.58701 5.79638,-1.47546 1.75193,-0.8884 2.6279,-2.65244 2.62793,-5.29212 -3e-5,-2.63961 -0.876,-4.40364 -2.62793,-5.29211 -1.75198,-0.88839 -3.6841,-1.38021 -5.79638,-1.47547 -0.19192,5e-5 -0.40798,5e-5 -0.6482,0 -0.24025,5e-5 -0.48049,5e-5 -0.7207,0 l -1.3667,-0.0725 z"
           id="path3841"
           style="fill:#ffffff" />
        <path
           d="m 586.58698,274.12793 0,36.93603 -13.1045,0 0,-4.10449 -0.14282,0 c -1.05618,1.72852 -2.49649,3.01282 -4.32092,3.85291 -1.82449,0.84009 -3.72036,1.30774 -5.68762,1.40295 -0.19192,0.0483 -0.38381,0.0725 -0.57569,0.0725 -0.19191,0 -0.38381,0 -0.57568,0 -5.47267,0 -9.94886,-1.95593 -13.42859,-5.8678 -3.47974,-3.91185 -5.21961,-8.50816 -5.2196,-13.78894 -10e-6,-5.27927 1.71569,-9.87485 5.14709,-13.78674 3.43139,-3.91183 7.88341,-5.86776 13.35608,-5.8678 0.24021,4e-5 0.48045,4e-5 0.7207,0 0.24022,4e-5 0.47972,0.0235 0.71851,0.0703 1.87204,0.14506 3.70822,0.61345 5.50854,1.40516 1.80027,0.79178 3.30027,1.90762 4.5,3.34753 l 0,-3.67163 13.1045,0 z m -21.09595,10.15137 c -2.63967,0.0484 -4.70363,0.90054 -6.1919,2.55652 -1.48829,1.65602 -2.23243,3.61195 -2.23242,5.86779 -10e-6,2.35256 0.74413,4.32057 2.23242,5.90406 1.48827,1.5835 3.55223,2.37525 6.1919,2.37524 2.68796,10e-6 4.76401,-0.79174 6.22815,-2.37524 1.46408,-1.58349 2.19613,-3.5515 2.19616,-5.90406 -3e-5,-2.25584 -0.73208,-4.21177 -2.19616,-5.86779 -1.46414,-1.65598 -3.54019,-2.48399 -6.22815,-2.48401 z"
           id="path3843"
           style="fill:#ffffff" />
        <path
           d="m 608.37726,274.12793 0,36.93603 -13.10449,0 0,-36.93603 13.10449,0 z m -6.55225,-21.52881 c 2.01561,0.0484 3.7434,0.79254 5.18335,2.23242 1.43993,1.44 2.1599,3.16778 2.15991,5.18335 -10e-6,2.01714 -0.71998,3.74566 -2.15991,5.18555 -1.43995,1.43999 -3.16774,2.15996 -5.18335,2.15991 -2.01563,5e-5 -3.74341,-0.71992 -5.18335,-2.15991 -1.43994,-1.43989 -2.15991,-3.16841 -2.15991,-5.18555 0,-2.01557 0.71997,-3.74335 2.15991,-5.18335 1.43994,-1.43988 3.16772,-2.15985 5.18335,-2.15991 z"
           id="path3845"
           style="fill:#ffffff" />
      </g>
      <path
         d="m 1158.2124,945.73583 -5.0643,9.86905 c -1.169,-0.95233 -2.4784,-1.72075 -3.928,-2.30529 -1.4497,-0.58445 -2.9539,-0.8767 -4.5125,-0.87674 -0.2167,4e-5 -0.4547,0.0109 -0.7143,0.0327 -0.2596,0.0218 -0.5188,0.0763 -0.7777,0.16346 -0.9959,0.21535 -1.905,0.64761 -2.7273,1.29679 -0.8222,0.64926 -1.2334,1.51543 -1.2334,2.59853 0,1.03825 0.3894,1.87107 1.168,2.49846 0.7787,0.62746 1.6231,1.136 2.5332,1.52564 0.346,0.1308 0.6812,0.25001 1.0055,0.35763 0.3243,0.10768 0.6383,0.2051 0.9421,0.29225 l 3.2455,0.90943 c 3.4197,1.03825 6.2874,2.54209 8.603,4.51151 2.3154,1.96948 3.4732,4.94545 3.4732,8.92792 0,0.17305 0,0.34609 0,0.51911 0,0.17305 0,0.34609 0,0.51911 -0.087,2.25081 -0.4986,4.44746 -1.2343,6.58994 -0.7358,2.14249 -2.0124,3.99306 -3.83,5.55171 -1.6445,1.42789 -3.5056,2.48823 -5.5834,3.18104 -2.0778,0.69281 -4.1985,1.12573 -6.3621,1.29877 -0.3474,0 -0.6832,0.0106 -1.0075,0.0317 -0.3243,0.0211 -0.6376,0.0317 -0.9401,0.0317 -3.0737,0 -6.0821,-0.48675 -9.025,-1.46025 -2.943,-0.97349 -5.6699,-2.32609 -8.181,-4.05778 l 5.4547,-10.32278 c 1.6009,1.4279 3.3428,2.63982 5.2257,3.63576 1.883,0.99596 3.9062,1.49394 6.0699,1.49393 0.087,10e-6 0.174,10e-6 0.2605,0 0.087,10e-6 0.1727,10e-6 0.2586,0 1.4292,-0.0872 2.7279,-0.53099 3.8963,-1.33146 1.1683,-0.80045 1.7525,-2.0018 1.7525,-3.60406 0,-1.21124 -0.4868,-2.18474 -1.4603,-2.92049 -0.9735,-0.73572 -2.0665,-1.32022 -3.2791,-1.75349 -0.5191,-0.17302 -1.0385,-0.33516 -1.5583,-0.48642 -0.5198,-0.15122 -0.9956,-0.29223 -1.4276,-0.42301 -0.087,-0.0436 -0.1849,-0.0759 -0.2932,-0.0971 -0.1083,-0.0211 -0.2054,-0.0535 -0.2912,-0.0971 -3.8531,-1.0818 -6.9265,-2.46675 -9.2202,-4.15487 -2.2937,-1.68808 -3.4406,-4.84765 -3.4406,-9.47873 0,-4.97841 1.5907,-8.9609 4.7721,-11.94748 3.1813,-2.98649 7.2176,-4.47976 12.1089,-4.47981 0.9946,5e-5 2.0114,0.0542 3.0503,0.16247 1.0388,0.10836 2.078,0.29263 3.1176,0.55279 1.6445,0.34613 3.2566,0.80051 4.8365,1.36317 1.5797,0.56274 3.0188,1.21196 4.3173,1.94765 z"
         id="path3847"
         style="font-size:64.92453766px;font-style:normal;font-variant:normal;font-weight:normal;font-stretch:normal;text-align:start;line-height:100%;writing-mode:lr-tb;text-anchor:start;fill:#ffca00;fill-opacity:1;stroke:none;font-family:Futura-Bold;-inkscape-font-specification:Futura-Bold" />
      <path
         d="m 1177.3799,958.65614 0,3.76653 0.1308,0 c 0.9946,-1.51503 2.3359,-2.67312 4.0241,-3.47428 1.688,-0.80109 3.4415,-1.24458 5.2604,-1.33047 0.1294,4e-5 0.2592,4e-5 0.3893,0 0.1301,4e-5 0.2599,4e-5 0.3894,0 4.9771,4e-5 9.024,1.78522 12.1406,5.35556 3.1166,3.5704 4.675,7.7365 4.675,12.49829 0,4.8041 -1.5475,8.9375 -4.6423,12.40022 -3.0949,3.46272 -7.1097,5.19408 -12.0445,5.19408 -0.1731,0 -0.3352,0 -0.4865,0 -0.1512,0 -0.3134,0 -0.4864,0 -1.7317,-0.12945 -3.4307,-0.52968 -5.097,-1.20069 -1.6663,-0.67102 -3.0839,-1.67753 -4.2529,-3.01956 l 0,19.73808 -11.8167,0 0,-49.92776 11.8167,0 z m 7.2061,9.15379 c -2.3803,0.0436 -4.2411,0.81205 -5.5824,2.30529 -1.3414,1.49329 -2.0121,3.25701 -2.0121,5.29117 0,2.12137 0.6707,3.89599 2.0121,5.32386 1.3413,1.42789 3.2021,2.14184 5.5824,2.14183 2.4252,10e-6 4.2975,-0.71394 5.6171,-2.14183 1.3196,-1.42787 1.9793,-3.20249 1.9794,-5.32386 -10e-5,-2.03416 -0.6598,-3.79788 -1.9794,-5.29117 -1.3196,-1.49324 -3.1919,-2.23988 -5.6171,-2.2399 z"
         id="path3849"
         style="font-size:64.92453766px;font-style:normal;font-variant:normal;font-weight:normal;font-stretch:normal;text-align:start;line-height:100%;writing-mode:lr-tb;text-anchor:start;fill:#ffca00;fill-opacity:1;stroke:none;font-family:Futura-Bold;-inkscape-font-specification:Futura-Bold" />
      <path
         d="m 1227.803,957.55254 c 5.3668,0.0436 10.0523,1.61284 14.0566,4.70766 4.0043,3.09488 6.0064,7.47694 6.0064,13.14619 0,5.62701 -2.0021,9.97704 -6.0064,13.05009 -4.0043,3.07306 -8.6898,4.60959 -14.0566,4.60959 -5.3232,0 -9.9975,-1.52563 -14.0229,-4.5769 -4.0255,-3.05125 -6.0382,-7.41218 -6.0382,-13.08278 0,-5.66925 2.0018,-10.05131 6.0055,-13.14619 4.0036,-3.09482 8.6888,-4.64224 14.0556,-4.64228 z m 0,10.25739 c -2.3803,0.0436 -4.2414,0.81205 -5.5834,2.30529 -1.3421,1.49329 -2.0131,3.25701 -2.0131,5.29117 0,2.12137 0.671,3.89599 2.0131,5.32386 1.342,1.42789 3.2031,2.14184 5.5834,2.14183 2.4238,10e-6 4.2958,-0.71394 5.6161,-2.14183 1.3202,-1.42787 1.9803,-3.20249 1.9804,-5.32386 -10e-5,-2.03416 -0.6602,-3.79788 -1.9804,-5.29117 -1.3203,-1.49324 -3.1923,-2.23988 -5.6161,-2.2399 z"
         id="path3851"
         style="font-size:64.92453766px;font-style:normal;font-variant:normal;font-weight:normal;font-stretch:normal;text-align:start;line-height:100%;writing-mode:lr-tb;text-anchor:start;fill:#ffca00;fill-opacity:1;stroke:none;font-family:Futura-Bold;-inkscape-font-specification:Futura-Bold" />
      <path
         d="m 1265.0126,958.65614 0,5.45463 0.1287,0 c 1.1254,-1.99188 2.6296,-3.46401 4.5125,-4.4164 1.883,-0.95233 3.9716,-1.42852 6.266,-1.42855 l 2.2726,-0.0634 0,11.361 c -0.173,-0.0436 -0.3355,-0.10862 -0.4874,-0.19516 -0.1519,-0.0865 -0.3144,-0.15155 -0.4874,-0.19517 -0.6486,-0.25887 -1.2975,-0.43157 -1.9467,-0.51812 -0.6492,-0.0865 -1.3417,-0.12975 -2.0774,-0.12977 -3.2904,2e-5 -5.4764,0.96295 -6.5582,2.88879 -1.0818,1.92588 -1.6228,4.31736 -1.6227,7.17443 l 0,13.37404 -11.8167,0 0,-33.30632 11.8167,0 z"
         id="path3853"
         style="font-size:64.92453766px;font-style:normal;font-variant:normal;font-weight:normal;font-stretch:normal;text-align:start;line-height:100%;writing-mode:lr-tb;text-anchor:start;fill:#ffca00;fill-opacity:1;stroke:none;font-family:Futura-Bold;-inkscape-font-specification:Futura-Bold" />
      <path
         d="m 1295.5351,968.39443 0,23.56803 -11.8167,0 0,-23.56803 -3.8299,0 0,-9.73829 3.8299,0 0,-9.99784 11.8167,0 0,9.99784 6.687,0 0,9.73829 -6.687,0 z"
         id="path3855"
         style="font-size:64.92453766px;font-style:normal;font-variant:normal;font-weight:normal;font-stretch:normal;text-align:start;line-height:100%;writing-mode:lr-tb;text-anchor:start;fill:#ffca00;fill-opacity:1;stroke:none;font-family:Futura-Bold;-inkscape-font-specification:Futura-Bold" />
      <g
         transform="translate(0,-1.5254237)"
         id="text3870"
         style="font-size:61.30221558px;font-style:normal;font-variant:normal;font-weight:normal;font-stretch:normal;text-align:start;line-height:100%;writing-mode:lr-tb;text-anchor:start;fill:#ffca00;fill-opacity:1;stroke:none;font-family:Futura-Bold;-inkscape-font-specification:Futura-Bold">
        <path
           d="m 1349.8269,983.03794 15.1422,0 0,10.17526 -37.1503,0 18.882,-20.53572 c 1.3482,-1.43052 2.5639,-3.13699 3.6471,-5.11943 1.0832,-1.9824 1.6247,-4.03621 1.6248,-6.16147 -10e-5,-0.0399 -10e-5,-0.0907 0,-0.15247 -10e-5,-0.0617 -10e-5,-0.1331 0,-0.2142 -0.082,-1.38935 -0.5934,-2.67676 -1.5331,-3.86226 -0.9398,-1.18542 -2.1861,-1.77815 -3.7388,-1.77819 -1.6351,4e-5 -2.8817,0.55192 -3.7397,1.65565 -0.8581,1.10381 -1.2872,2.43207 -1.2872,3.9848 0,0.28564 0.02,0.60211 0.061,0.94943 0.041,0.34737 0.081,0.68443 0.1226,1.01116 l -13.2415,-0.0599 c 0.2045,-5.27186 1.9007,-9.54257 5.0886,-12.81214 3.1878,-3.26948 7.4993,-4.90424 12.9346,-4.90429 4.8641,5e-5 9.0534,1.48141 12.568,4.44408 3.5146,2.96275 5.2719,6.95721 5.2719,11.98338 0,2.86109 -0.4905,5.29313 -1.4713,7.2961 -0.981,2.00302 -2.3913,3.9237 -4.2308,5.76205 -0.2857,0.28562 -0.5716,0.57154 -0.8578,0.85776 -0.2863,0.28625 -0.5928,0.57279 -0.9195,0.85963 l -7.1726,6.62074 z"
           id="path3875" />
      </g>
    </g>
  </g>
</svg>
