<svg xmlns="http://www.w3.org/2000/svg" viewBox="0 0 600 188.31"><g fill="#a71330" transform="translate(-373.91 550.23)"><path d="m701.72-421.16c0-35.635-6.374-43.602-6.374-43.602s-29.841-16.514-90.97-16.514c-13.04.145-28.392 1.014-44.04 3.187v-56.21h-26.509v167.17s42.44 5.215 78.51 5.215c66.2 0 83.15-13.761 83.15-13.761s6.229-8.836 6.229-45.49m-26.654 1.159c0 9.85-.724 19.411-1.449 25.2-8.402 2.318-27.378 6.229-60.84 6.229-14.631.145-32.01-1.014-52.44-2.752v-59.971c56.49-8.402 97.2 1.159 112.84 6.084.724 5.794 1.883 15.355 1.883 25.2"/><path d="m885.69-421.16c0-35.635-6.374-43.602-6.374-43.602s-29.986-16.514-90.97-16.514c-13.182.145-28.537 1.014-44.04 3.187v-56.21h-26.654v167.17s42.44 5.215 78.66 5.215c66.06 0 83.15-13.761 83.15-13.761s6.229-8.836 6.229-45.49m-26.654 1.159c0 9.85-.869 19.411-1.449 25.2-8.547 2.318-27.523 6.229-60.84 6.229-14.775.145-32.16-1.014-52.44-2.752v-59.971c56.49-8.402 97.05 1.159 112.84 6.084.724 5.794 1.883 15.355 1.883 25.2"/><path d="m516.45-480.7c-101.98.579-142.54 24.626-142.54 24.626v92.42h27.09v-75.04c12.747-4.201 48.672-14.631 115.45-15.5v-26.509z"/><path d="m934.36-550.23c21.873 0 39.546 17.673 39.546 39.546s-17.673 39.546-39.546 39.546-39.691-17.673-39.691-39.546c0-21.874 17.817-39.546 39.691-39.546m15.934 55.625v-39.691l-39.981 14.341v9.85l13.182-4.78v29.841l26.799-9.561zm-15.934-49.831c-18.687 0-33.897 15.07-33.897 33.752s15.21 33.752 33.897 33.752 33.752-15.06 33.752-33.752-15.07-33.752-33.752-33.752" fill-rule="evenodd"/></g></svg>