<svg xmlns="http://www.w3.org/2000/svg" viewBox="0 0 600 175.35"><path fill="#05a9a0" d="m13.746 3.087c6.244-3.39 13.56-3.122 20.445-3.052 88.48.035 176.94-.012 265.41.023-.06 19.501.78 38.979.44 58.48.35 10.09-.75 20.17-.16 30.24.64 20.62-.35 41.25.2 61.87-.62 8.2-.27 16.43.13 24.64-88.66.06-177.31-.001-265.96.03-6.21 0-12.64.4-18.57-1.85-8.749-3.47-15.424-12.18-15.68-21.71.012-42.69.012-85.38 0-128.06.221-8.754 5.941-16.862 13.746-20.613"/><path fill="#b91537" d="m299.6.058c88.23.07 176.47.012 264.7.023 5.78.07 11.67-.419 17.34.979 10.77 2.912 18.81 13.618 18.34 24.813.02 41.15.02 82.31 0 123.45.37 9.59-5.25 18.96-13.82 23.22-6.36 3.35-13.78 2.7-20.71 2.74-88.42-.001-176.82-.04-265.24.001-.4-8.21-.75-16.44-.13-24.64-.55-20.62.44-41.25-.2-61.87-.59-10.08.51-20.15.16-30.24.34-19.501-.5-38.979-.44-58.48z"/><g fill="#fdfdfc"><path d="m246.69 99.32c.13-19.14-.2-38.3.16-57.44 4.75-.094 9.52-.047 14.27-.035 1.06 20.724.04 41.507.56 62.25.18 2.25.75 4.79 2.73 6.16 2.91 2.18 6.75 1.61 10.17 1.8-.04 4.22-.001 8.45.02 12.68-7.26 1.28-15.49.57-21.14-4.63-5.71-5.23-6.83-13.44-6.77-20.787"/><path d="m65.41 49.976c-5.112.001-10.205.052-15.319.087-.21 25.05-.198 50.08-.059 75.11 4.683-.02 9.384-.001 14.07.03.396-8.87.117-17.77.175-26.646 4.636-.035 9.255-.017 13.892-.029 5.16 8.865 10.21 17.775 15.406 26.615 5.405-.03 10.836.39 16.196-.61-5.05-9.67-10.913-18.89-16.11-28.48 5.79-3.064 10.509-8.306 11.939-14.795 1.56-7.864.82-16.816-4.45-23.21-4.908-5.929-12.97-8.02-20.39-8.01-5.114-.04-10.237-.068-15.348-.058m9.03 13.455c3.383-.041 6.757.012 10.11.437 10.01 1.864 10.02 19.664-.233 20.969-6.664.408-13.362.122-20.04.146 0-7.13.041-14.259.029-21.377 3.367.006 6.752-.134 10.135-.175"/><path d="m423.86 73.48c6.75-8.07 20.11-6.85 26.64.862 7.7-8.213 22.11-8.668 30-.571 4.69 4.893 5.74 12.03 5.42 18.546-.12 10.938.13 21.888-.17 32.828-4.73-.001-9.46-.02-14.18-.001-.34-11.74 0-23.5-.16-35.25-.03-2.481-.76-5.207-2.89-6.698-4.63-3.705-12.77-.525-13.24 5.463-.26 12.158.08 24.338-.15 36.508-4.86-.02-9.7-.02-14.54-.05-.22-12.1.08-24.21-.12-36.32 0-3.157-2.29-6.151-5.4-6.815-5.08-1.852-10.82 2.656-10.73 7.957-.25 11.746.13 23.486-.17 35.22-4.77-.04-9.54-.001-14.31-.001-.21-18.54-.16-37.07-.02-55.59 4.5-.058 8.99-.058 13.49-.047.17 1.328.36 2.657.53 3.985"/><path d="m523.82 68.03c-.5-.009-.97.011-1.46.029-10.52.058-20.44 6.786-24.99 16.16-3.06 6.081-3.32 13.188-2.27 19.805 1.93 9.12 8.69 17.03 17.33 20.47 7.02 2.76 15.01 2.6 22.05.03 7.17-2.81 13.76-8.86 15.05-16.71-.15-.05-9.63-.33-14.41-.47-3.07 3.89-7.55 7.01-12.73 6.41-6.5.17-11.46-5-13.48-10.75 13.99-.02 27.99-.06 41.99.03 1.33-9.25-.85-19.269-7.19-26.328-5.06-5.461-12.48-8.554-19.89-8.679m-.18 12.727c6.17.005 11.41 4.841 13.34 10.542-9.27.012-18.52.065-27.78-.029 2.12-5.44 6.91-10.688 13.19-10.455.42-.044.84-.059 1.25-.058"/><path d="m142.36 68.12c-4.2-.109-8.41.68-12.24 2.388-12.55 5.324-20.02 20.299-16.6 33.522 1.94 9.24 8.79 17.21 17.57 20.65 6.87 2.76 14.7 2.4 21.63.03 7.39-2.85 14.2-9.22 15.24-17.36-4.87-.11-9.77-.06-14.65 0-4.08 7.11-14.76 8.77-20.89 3.41-2.44-1.88-3.71-4.79-5.06-7.46 13.77-.31 27.57.2 41.32-.23 1.59-1.15.92-3.258 1.08-4.924.04-8.096-2.68-16.402-8.47-22.19-4.99-4.98-11.95-7.652-18.93-7.834m-2.13 12.727c.4-.016.79-.025 1.19 0 6.43-.245 11.99 4.526 13.81 10.514-9.2-.035-18.4.04-27.61-.029 1.93-5.417 6.68-10.24 12.61-10.485"/><path d="m203.57 68.21c-9.24.041-18 5.672-22.48 13.689-5.68 10.216-5.15 23.714 1.6 33.31 5.16 7.74 14.79 12.16 24 11.07 5.29-.35 9.83-3.3 14.12-6.12.1 1.67.21 3.36.33 5.01 4.39 0 8.78-.03 13.19.03.08-18.56.11-37.12-.03-55.682-4.43-.047-8.85-.017-13.28-.029-.07 1.771-.11 3.547-.15 5.329-4.46-3.459-9.64-6.401-15.43-6.552-.62-.048-1.25-.061-1.87-.059m1.52 13.339c10.61-.478 17.87 11.917 14.15 21.374-2.19 7.78-11.77 12.71-19.13 8.74-9.2-4.47-10.84-18.06-4.11-25.338 2.31-2.667 5.57-4.403 9.09-4.776"/></g><g fill="#fff"><path d="m383.16 49.9v13.834h15v-13.834h-15m.29 19.28v55.98h14.65v-55.98h-14.65"/><path d="m324.65 49.9v13.834h20.21v61.43h14.86v-61.43h20.21v-13.834h-20.21-14.86-20.21"/><path d="m520.12 54.62h-6.02v-13.344h-13.49v13.344h-6.07v-31.629h6.07v12.666h13.49v-12.666h6.02v31.629"/><path d="m537.71 28.596h-5.69v20.411h5.69c7.14 0 8.23-6.419 8.23-10.257 0-4.637-1.44-10.154-8.23-10.154m0 26.03h-11.71v-31.628h11.71c8.79 0 14.26 6.06 14.26 15.813 0 9.669-5.6 15.814-14.26 15.814"/></g></svg>