<svg xmlns="http://www.w3.org/2000/svg" viewBox="0 0 600 300"><g transform="translate(-72.41-708.69)"><path fill="#8f9496" d="m372.41 708.69h300v300h-300z"/><path fill="#011d88" d="m72.41 708.69h300v300h-300z"/><path transform="matrix(20.62564 0 0 20.62564-9498.34-7440.87)" fill="#c4c5c6" d="m492.2 403.84l-.41 1.3-.411-1.3h-1.82v.34h.55v1.51h.41v-1.51h.55l.49 1.51h.46l.62-1.85h-.43"/><g fill="#fff"><path d="m333.84 853.91c-3.506-1.423-7.652-.701-10.498 2.124-3.774 3.795-3.774 9.9.021 13.675.949.949 2 1.691 3.176 2.145 3.506 1.423 7.673.722 10.498-2.124 3.795-3.774 3.774-9.9-.021-13.695-.928-.928-2-1.65-3.176-2.124m-14.541-34.383c-3.795-3.795-9.88-3.795-13.675-.021-3.795 3.795-3.816 9.921-.021 13.716 3.795 3.774 9.9 3.774 13.695-.021 3.795-3.795 3.774-9.9 0-13.675zm28.773-20.461c-1.176-1.176-2.393-2.228-3.63-3.238 1.093-12.09-1.918-24.338-9.282-34.837l.825-.825c3.795-3.795 3.774-9.921 0-13.695-3.795-3.774-9.9-3.774-13.695 0l-.825.825c-10.519-7.384-22.75-10.375-34.816-9.282-1.01-1.258-2.104-2.475-3.279-3.651-18.05-18.05-45.521-16.542-63.774 1.217 4.249 0 8.518 1.629 11.777 4.888 1.176 1.176 2.145 2.475 2.888 3.878 10.89-8.58 24.545-10.189 35.33-2.02-5.631 2.413-11.03 5.775-15.985 10.02 4.723-.413 9.632 1.196 13.262 4.826 2 1.98 3.341 4.352 4.125 6.848 11.612-8.06 25.39-9.88 37.11-3.341l-16.872 16.892c3.3.536 6.476 2.083 9.03 4.641 2.537 2.537 4.105 5.734 4.661 9.03l16.872-16.892c6.456 11.55 4.785 25.08-2.97 36.569 1.98.825 3.816 2.042 5.445 3.63 4.331 4.352 5.755 10.498 4.311 16.03 5.01-5.404 8.869-11.406 11.592-17.738 8.168 10.787 6.538 24.483-2.063 35.35 1.403.743 2.723 1.712 3.898 2.888 3.218 3.238 4.847 7.528 4.847 11.777 17.759-18.233 19.285-45.727 1.217-63.795m-121.67-39.952c3.816-3.795 3.816-9.9 0-13.675-3.774-3.795-9.88-3.795-13.675-.021-3.774 3.795-3.774 9.9 0 13.675 3.795 3.774 9.9 3.795 13.675.021m68.89 41.726c3.795-3.754 3.795-9.9 0-13.675-3.774-3.774-9.88-3.774-13.675 0-3.795 3.774-3.816 9.921-.021 13.695 3.774 3.774 9.921 3.774 13.695-.021m41.458-58.783l3.919 3.939 4.682-4.661 4.682 4.661 3.94-3.939-4.682-4.661 4.682-4.682-3.94-3.939-4.682 4.682-4.682-4.682-3.919 3.939 4.661 4.682-4.661 4.661m-149.64 153.27v-20.626c4.146 2.434 8.106 5.383 11.653 8.952 3.548 3.568 6.559 7.508 9.03 11.674h-20.688m83.53 0h-39.477c-3.878-9.673-9.694-18.728-17.511-26.566-7.838-7.817-16.872-13.634-26.525-17.47l-.021-39.498h-.041c-38.529-9.942-81.2.186-111.36 30.361-1.134 1.134-2.228 2.289-3.3 3.444v32.774c4.393-8.147 9.962-15.82 16.831-22.688 21.533-21.533 50.657-30.835 78.77-27.948l-.021 18.687c-23.369-3.01-47.748 4.414-65.69 22.338-25.803 25.803-29.887 65.01-12.417 95.15l-15.12 15.14 14.232 14.252 13.242-13.242c.021.021.041.041.062.062 18.03 18.05 42.613 25.473 66.11 22.358l-.021-21.286c-18.01 3.3-37.29-2.02-51.21-15.944 0-.021-.041-.041-.041-.062l10.189-10.189 16.48 16.48 11.777-11.777-16.501-16.459 7.858-7.858 16.48 16.48 10.952-10.932-30.732-30.753-38.14 38.14c-9.694-21.265-5.816-47.17 11.653-64.66 13.84-13.84 32.919-19.16 50.822-15.985v46.758h46.82c1.176 6.786 1.155 13.716-.083 20.481h21.265c.908-6.806.908-13.675.041-20.481h18.625c2.908 28.11-6.394 57.24-27.927 78.77-6.208 6.188-13.04 11.324-20.234 15.49h31.619c.701-.66 1.444-1.279 2.124-1.96 30.24-30.18 40.34-72.85 30.423-111.4m30.01-57.17c-5.61-5.61-6.394-14.232-2.331-20.667-1.877-2.475-3.857-4.93-5.878-7.281-5.486 1.32-11.53-.103-15.799-4.393-4.29-4.29-5.734-10.333-4.373-15.82-2.826-2.351-5.651-4.62-8.539-6.806-6.456 3.939-14.933 3.135-20.481-2.434-3.671-3.651-5.28-8.601-4.806-13.386-2.31-1.176-4.682-2.269-7.01-3.362-.021.021-.041.041-.062.062-5.507 5.507-13.86 6.332-20.254 2.558v10.21c21.08 7.57 40.88 19.801 57.814 36.714 16.872 16.892 29.14 36.714 36.693 57.793h10.21c-3.774-6.394-2.929-14.768 2.558-20.254.021-.021.041-.041.062-.062-1.238-2.723-2.537-5.445-3.919-8.127-4.95.619-10.11-.949-13.881-4.744m-228.24-22.01v23.926c.206-.206.392-.413.598-.619 46.903-46.923 123.03-46.923 169.93.021 46.717 46.696 46.923 122.23.722 169.21h23.637c41.808-54.12 37.951-132.19-11.715-181.86-50.06-50.06-128.99-53.606-183.18-10.684m189.49-40.34c3.774-3.774 3.774-9.9-.021-13.675-3.774-3.774-9.88-3.795-13.675-.021-3.816 3.795-3.795 9.921 0 13.716 3.774 3.774 9.921 3.774 13.695-.021"/><path d="m389.16 835.16h13.572c2.723 0 7.26.536 7.26 6.889 0 6.085-4.208 7.116-8.188 7.116h-12.623v-14m-.021 18.749h13.2c6.559 0 7.24 3.96 7.24 7.363 0 1.547.165 7.797.949 10.333h6.683v-.928c-1.691-.969-1.959-1.836-2.02-4.125l-.371-7.466c-.206-5.734-2.496-6.765-4.806-7.776 2.537-1.526 5.59-3.774 5.59-9.838 0-8.704-6.621-11.03-13.262-11.03h-18.646v41.17h5.466v-17.697zm36.03.351c0-4.661 3.609-8.993 8.168-8.993 6 0 7.92 4.331 8.209 8.993h-16.377m16.15 7.962c-.186 2.248-2.929 5.899-7.59 5.899-5.651 0-8.539-3.609-8.539-9.859h21.471c0-10.643-4.146-17.532-12.623-17.532-9.735 0-14.13 7.425-14.13 16.748 0 8.642 4.868 14.995 13.159 14.995 4.723 0 6.6-1.155 7.982-2.042 3.692-2.537 5.03-6.786 5.198-8.209h-4.93m27.453-.99c0 4.02-4.496 7.07-9.08 7.07-3.754 0-5.363-1.959-5.363-5.239 0-3.795 3.878-4.538 6.311-4.868 6.126-.825 7.343-1.279 8.147-1.918v4.95zm-13.572-10.498c.371-2.31 1.155-5.816 6.765-5.816 4.682 0 6.93 1.733 6.93 4.888 0 2.991-1.403 3.444-2.599 3.568l-8.168 1.031c-8.188 1.031-8.91 6.889-8.91 9.405 0 5.156 3.816 8.663 9.199 8.663 5.734 0 8.704-2.743 10.622-4.847.186 2.269.846 4.558 5.218 4.558 1.134 0 1.856-.33 2.702-.578v-3.651l-1.629.227c-1.01 0-1.629-.516-1.629-1.774v-17.284c0-7.693-8.539-8.395-10.89-8.395-7.26 0-11.922 2.826-12.13 10h4.517m30.26 20.873h-4.93v-41.17h4.93v41.17m47.975 0h-7.879v-18.522c0-4.538-1.959-6.02-4.249-6.02-3.898 0-5.321 2.64-5.321 6.25v18.295h-7.9v-18.336c0-2.599 0-6.208-4.703-6.208-3.713 0-4.868 2.64-4.868 5.961v18.584h-7.879v-30.505h7.528v4.455c1.134-2 3.3-5.26 8.58-5.26 4.311 0 6.311 1.609 8.312 4.868 1.01-1.485 3.197-4.868 7.962-4.868 5.837 0 10.395 3.506 10.395 10.21v21.1zm21.43-10.952c0 3.733-3.527 6.02-7.01 6.02-1.526 0-3.671-.846-3.671-3.671 0-3.321 2.434-4.063 5.342-4.579 3.259-.536 4.579-1.052 5.342-1.671v3.898m7.714-11.53c0-7.528-7.714-8.828-11.901-8.828-6.146 0-12.499 1.299-13.386 10.663h7.59c.227-1.794.908-4.249 4.826-4.249 2.02 0 5.156.186 5.156 3.568 0 1.712-1.485 2.228-2.743 2.393l-7.07 1.093c-5.01.743-8.745 3.795-8.745 9.756 0 6.311 4.62 8.91 9.1 8.91 5.383 0 7.9-2.537 9.694-4.435.165 1.712.289 2.166.743 3.609h8.457v-1.217c-.949-.351-1.733-1.134-1.733-4.744v-16.521zm11.01 7.466c0-4.806 1.691-9.343 6.703-9.343 5.404 0 6.745 4.93 6.745 9.797 0 4.538-1.959 8.787-6.971 8.787-5.074 0-6.476-5.631-6.476-9.24m20.997-26.15h-7.879v14.624c-1.361-1.959-3.733-4.765-8.807-4.765-6.538 0-12.396 5.156-12.396 15.717 0 8.353 3.713 16.418 12.54 16.418 3.279 0 6.765-1.217 8.704-4.682l.103 3.857h7.714v-41.17zm4.661 10.663h7.528v5.28c1.753-3.114 3.548-6.085 8.312-6.085l1.506.103v8.168l-2.228-.124c-6.126 0-7.281 3.898-7.281 7.281v15.861h-7.858v-30.485zm19.821 0h7.879v30.505h-7.879v-30.505m7.879-3.609h-7.879v-7.487h7.879v7.487m11.53 19.1c0-4.806 1.691-9.343 6.703-9.343 5.404 0 6.724 4.93 6.724 9.797 0 4.538-1.959 8.787-6.971 8.787-5.05 0-6.456-5.631-6.456-9.24m20.997-26.15h-7.879v14.624c-1.361-1.959-3.713-4.765-8.787-4.765-6.559 0-12.417 5.156-12.417 15.717 0 8.353 3.733 16.418 12.561 16.418 3.259 0 6.765-1.217 8.683-4.682l.103 3.857h7.714v-41.17z" fill-rule="evenodd"/></g></g></svg>