<svg xmlns="http://www.w3.org/2000/svg" height="136.34" width="562.5" viewBox="0 0 158.75 38.478973"><path d="m40.27-28.559h-3.299l-1.098.549-10.996 14.295-1.098.549h-2.32l-.03-.031-.521-.539v-30.746l-.549-.549h-6.599l-.549.549v37.38l.549.549h13.622.002 1.341c1.054-1.056 12.1-15.96 12.1-15.96v-5.498l-.551-.549m-126.32-4.927c0-7.697-5.497-11.545-13.194-11.545h-18.14l-.55.549v37.38l.55.549h6.6l.55-.549v-14.292l.55-.551h5.49l1.1.551 10.998 14.292 1.098.549h3.299l.551-.549v-5.498l-7.147-9.345v-.549c4.397-1.099 8.245-4.947 8.245-10.993m-13.194 4.948h-10.44l-.55-.551v-8.797l.55-.549h10.44c3.3 0 5.498 1.1 5.498 4.949 0 3.848-2.198 4.948-5.498 4.948m17.405-16.493l-.549.549v37.38l.549.549h25.836l.549-.549v-5.498l-.549-.549h-18.14l-.549-.549v-8.796l.549-.549h17.04l.551-.55v-5.497l-.551-.549h-17.04l-.549-.552v-7.696l.549-.549h18.14l.549-.549v-5.498l-.549-.549h-25.836zm64.792 0l-.549.549v37.38l.549.549h25.836l.549-.549v-5.498l-.549-.549h-18.14l-.547-.549v-8.796l.547-.549h17.04l.549-.55v-5.497l-.549-.549h-17.04l-.547-.552v-7.696l.547-.549h18.14l.55-.549v-5.498l-.549-.549h-25.836m-10.918 18.689v-.549c3.848-1.098 5.495-4.397 5.495-8.245 0-7.147-5.495-9.895-10.993-9.895h-17.591l-.549.549v37.38l.549.549h18.691c5.496 0 10.993-2.748 10.993-10.444 0-4.948-2.198-8.245-6.595-9.346m-15.942-11.544l.549-.549h8.797c3.296 0 4.397 1.65 4.397 4.397 0 2.201-1.101 4.4-4.397 4.4h-8.797l-.549-.552v-7.696zm9.346 24.738h-8.797l-.549-.549v-8.796l.549-.549h8.797c3.846 0 5.497 1.649 5.497 4.946 0 3.299-1.651 4.948-5.497 4.948" transform="translate(117.93 45.03)"/></svg>