<svg xmlns="http://www.w3.org/2000/svg" width="449.63" height="117.38" viewBox="0 0 449.62711 117.38107" overflow="inherit"><g transform="matrix(2.36646 0 0 2.36646-37.863-203.99)"><g fill="#211452"><path d="m139.95 123.37h8.11v-23.14l-8.11 4.63z"/><path d="m162.04 123.98c-9.973 0-11.26-5.137-11.26-11.771 0-6.678 1.287-11.814 11.26-11.814 9.972 0 11.298 5.136 11.298 11.814 0 6.635-1.326 11.771-11.298 11.771m0-18.362c-2.955 0-3.083 1.754-3.083 6.592 0 4.794.128 6.549 3.083 6.549 2.954 0 3.124-1.755 3.124-6.549 0-4.837-.17-6.592-3.124-6.592"/><path d="m89.3 106.18c0 0-.531.038-.903.038-2.353 0-4.491.301-4.491.301v16.264c0 .145 0 .644 0 .644h-8.092c0 0 0-.453 0-.644v-19.09c0-1.542 1.496-1.969 4.194-2.483 2.098-.427 4.922-.727 7.62-.727h.769c.322 0 .879.013.879.013 0 0 .02.609.02.971v3.725c0 .303.004.989.004.989"/><path d="m137.08 112.21c0-6.678-1.325-11.814-11.302-11.814-9.971 0-11.255 5.136-11.255 11.814 0 6.634 1.284 11.771 11.255 11.771 1.214 0 2.295-.078 3.264-.221-.012 1.475-.611 2.487-2.051 2.994-.9.344-2.185.515-3.854.515-2.568 0-5.01-.813-5.693-.982l-.63-.178-1.085 4.481c0 0 .39.23.687.317 1.2.512 4.153 1.498 8.178 1.498 7.339 0 11.365-2.122 12.232-8.657 0 0 .143-6.343.223-9.984.022-.507.031-1.028.031-1.554m-11.302 6.549c-2.95 0-3.08-1.755-3.08-6.549 0-4.837.13-6.592 3.08-6.592 2.954 0 3.126 1.754 3.126 6.592 0 4.794-.172 6.549-3.126 6.549"/><path d="m111.94 116.33c-.13.071-.219.122-.219.122 0 0-5.225 2.524-7.794 2.524-1.67 0-2.876-.271-3.776-.614-1.454-.515-2.049-1.564-2.049-3.064 0 0 0-6.549.129-7.406.214-1.498.94-2.353 3.25-2.353 1.544 0 2.527.642 2.871 2.61.047.332.092.497.125.848l-2 1.133c-1.581.94-1.784 1.163-1.789 2.962 0 0 0 .005 0 .009l-.0001 3.47 11.61-6.235c-.042-1.902-.229-2.808-.646-4.181l.004-.003c-.02-.074-.046-.144-.069-.213-.015-.042-.027-.084-.041-.126-.392-1.144-.946-2.106-1.708-2.885-1.669-1.713-4.408-2.525-8.515-2.525-8.221 0-11.174 3.081-11.174 11.986 0 8.86 4.065 11.599 12.411 11.599 3.574 0 7.728-1.859 9.407-2.695l-.016-4.963"/><path d="m141.96 92.43c-1.096.014-1.984.89-2.01 1.983v7.542l8.04-4.588v-4.942l-6.03.005"/><path d="m206 93.1c0-.333-.266-.603-.597-.609h-.006c-.002 0-.004 0-.007 0-.002 0-.005 0-.006 0-.217 0-.469 0-.711.003l-4.052.03c-.5.004-.998.406-1.107.894l-3.114 13.866-3.22-13.715c-.143-.608-.771-1.104-1.396-1.102l-4.631.02h-14.622c-.5 0-.909.409-.909.909v2.426c0 .5.409.909.909.909h4.086c.5 0 .909.409.909.909v12.883c0 .5.409.908.909.908h4.33c.5 0 .909-.409.909-.908v-12.882c0-.5.409-.909.909-.909h3.131l4.108 13.611c.181.599.84 1.088 1.465 1.089h1.801c0 0 .237 0 .527 0 .051 0 .116 0 .188 0h.47c.256 0 .534-.002.778-.003l2.846-.012c.5-.002 1.021-.396 1.159-.877l4.712-16.543c.07-.25.146-.512.209-.733.015-.053.024-.106.024-.163"/></g><g><g fill="#1d191d"><path d="m37.726 123.4h-.005z"/><path d="m48.591 117.2h-.005z"/></g><path fill="#f39200" d="m48.591 117.2l10.859 6.2v-12.4l-10.86 6.2"/><path fill="#ffce00" d="m37.726 86.21v-.001h-.005z"/><g fill="#1d191d"><path d="m26.861 117.2h-.005z"/><path d="m37.726 111h-.005z"/><path d="m48.591 104.8h-.005z"/><path d="m59.46 98.61v-.0001z"/></g><path fill="#fbba00" d="m26.861 104.8l10.86-6.2-10.86-6.19-.005-.001-10.856 6.2v.001l10.856 6.19z"/><path fill="#ffcd00" d="m37.721 98.6h.005l10.86-6.2-10.86-6.19-.005-.001-10.86 6.2h-.005l.005.001z"/><path fill="#ffde14" d="M26.856 92.4 16 86.21 16 98.6z"/><path fill="#ffcd00" d="m37.721 135.8l.005-.001 10.86-6.19-10.86-6.2h-.005l-10.86 6.19-.005.001h.005z"/><path fill="#fab900" d="m48.591 129.59l10.859-6.19-10.859-6.2h-.005l-10.86 6.2 10.86 6.2z"/><path fill="#f39200" d="m48.591 104.8l10.859-6.2-10.859-6.19-.005-.001-10.86 6.2 10.86 6.2z"/><path fill="#fbba00" d="m59.46 86.2l-10.86 6.2v.0001l10.859 6.19z"/><path fill="#f29100" d="m26.861 129.59l10.86-6.19-10.86-6.2h-.005l-10.856 6.2 10.856 6.2z"/><path fill="#1d191d" d="m37.726 98.6h-.005z"/><g><path fill="#2c2274" d="m26.861 117.2l10.86 6.2h.005v-12.4h-.005l-10.86 6.2"/><path fill="#69a4d9" d="M26.856 117.2 16 111 16 123.4z"/><path fill="#2e247a" d="m48.586 104.8l-10.86-6.2v12.4z"/><path fill="#6184c3" d="m48.591 104.8l10.859 6.2v-12.39-.0001l-10.859 6.2"/><path fill="#386fb4" d="M26.856 104.8 16 98.61 16 111z"/><path fill="#004899" d="m48.591 117.2l10.859-6.2-10.859-6.2h-.005l-10.86 6.2 10.86 6.2z"/><path fill="#211452" d="m48.586 117.2l-10.86-6.2v12.4z"/><path fill="#3a388e" d="m26.861 117.2l10.86-6.2-10.86-6.2h-.005l-10.856 6.2 10.856 6.2z"/><path fill="#4054a1" d="m37.726 111v-12.4h-.005l-10.86 6.2h-.005.005l10.86 6.2z"/></g></g></g></svg>