<svg xmlns="http://www.w3.org/2000/svg" height="448.35" width="600" viewBox="0 0 158.75 118.62476"><g transform="translate(46.626-120.52)"><path fill="#f5520f" d="m40.929 164.78h-3.401v5.37c0 2.83-2.297 5.13-5.128 5.13-2.822 0-5.122-2.3-5.122-5.13v-5.37h-12.02c-2.817 0-5.12-2.29-5.121-5.11 0-1.15.385-2.21 1.02-3.05h-.011l17.12-22.74h.006c.927-1.27 2.439-2.1 4.131-2.1 2.829 0 5.126 2.29 5.126 5.11v17.65h3.401c2.837 0 5.112 2.3 5.112 5.13 0 2.82-2.275 5.11-5.112 5.11m18.788-1.82v-.001c-1.046-.34-1.801-1.32-1.801-2.48s.76-2.14 1.805-2.48v-.001c7.576-2.59 13.03-9.77 13.03-18.21 0-10.63-8.632-19.25-19.257-19.25h-41.49c-10.639 0-19.254 8.62-19.254 19.25l.003 41.41c0 10.63 8.616 19.24 19.251 19.24 8.607 0 15.908-5.66 18.375-13.46.311-1.01 1.26-1.75 2.358-1.75 1.115 0 2.064.74 2.382 1.74v-.001c2.455 7.82 9.743 13.48 18.374 13.48 10.623 0 19.258-8.61 19.258-19.24 0-8.46-5.457-15.63-13.03-18.22"/><g fill="#a7a5a5" transform="matrix(1.1926 0 0 1.1926 328.24-1402.9)"><path d="m-289.14 1376.6h-3.89l-.59-15.1h-.05l-7.02 15.1h-1.91l-3.35-15.5h-.05l-4.28 15.5h-4.05l6.17-22.3h4.41l3.06 14 6.38-14h4.28z"/><path d="m-273.52 1358h-7.8l-.64 5.3h6.86l-.44 3.7h-6.87l-.69 5.9h9.84l-.45 3.7h-13.86l2.67-22.3h11.83z"/><path d="m-262.46 1354.3c7.56 0 9.77 6 9.77 10.9 0 6.6-3.88 11.4-8.93 11.4h-9.78l2.64-22.3zm-4.47 18.6h3.78c4.47 0 6.31-3.9 6.31-7.8s-2.23-7.1-6.39-7.1h-1.95l-1.75 14.9"/><path d="m-248.09 1376.6h-4.02l2.66-22.3h4.03z"/><path d="m-229.95 1376.6h-4.14l-.59-4.9h-5.87l-1.85 4.9h-4.44l9.28-22.6h4.28zm-9.44-8h4.38l-.99-9.9h-.05z"/><path d="m-215.69 1359.7c-1.23-1.1-3.25-2-4.7-2-1.46 0-2.66 1-2.66 2.5 0 3.2 6.97 3.6 6.97 9.9 0 3.6-2.17 6.8-6.41 6.8-2.75 0-4.76-.8-6.45-2.1l.62-3.9c1.52 1.3 3.76 2.3 5.35 2.3 1.63 0 2.73-1 2.73-2.5 0-3.7-6.98-4.1-6.98-10 0-3.8 2.84-6.7 6.67-6.7 1.83 0 3.78.6 5.42 1.8z"/><path d="m-200.69 1358h-7.79l-.66 5.3h6.87l-.45 3.7h-6.85l-.7 5.9h9.84l-.45 3.7h-13.86l2.66-22.3h11.84z"/><path d="m-181.66 1358h-6.16l-2.23 18.6h-4.02l2.22-18.6h-6l.45-3.7h16.18z"/></g></g></svg>