<svg xmlns="http://www.w3.org/2000/svg" height="136.71" viewBox="0 0 600.00012 136.70569"><g fill="#3b9fae"><path d="m64.13 24.694h-35.831l-1.874 1.897v30.382l1.874 1.897h35.831c11.308 0 18.867-3.794 18.867-17.1 0-13.28-7.559-17.07-18.867-17.07m16.963 55.04v1.897l24.525 32.27v19l-1.88 1.9h-11.337l-3.749-1.9-37.736-49.38-3.749-1.898h-18.868l-1.874 1.898v49.38l-1.905 1.9h-22.617l-1.905-1.9v-129.11l1.905-1.9h62.23c26.396 0 45.27 13.308 45.27 39.868 0 20.896-13.217 34.18-28.31 37.97"/><path d="m135.7 67.02l30.78-17.895 2.3 1.331v35.79l-2.3 1.331-30.78-17.895v-2.662"/><path d="m333.94 24.694h-37.71l-1.9 1.897v106.32l-1.88 1.9h-22.62l-1.9-1.9v-106.32l-1.88-1.896h-37.73l-1.88-1.897v-19l1.88-1.897h105.62l1.87 1.897v19l-1.87 1.897z"/><path d="m412.81 24.694h-35.83l-1.88 1.897v30.382l1.88 1.897h35.83c11.31 0 18.87-3.794 18.87-17.1 0-13.28-7.56-17.07-18.87-17.07m16.96 55.04v1.897l24.52 32.27v19l-1.87 1.9h-11.31l-3.78-1.9-37.74-49.38-3.74-1.898h-18.87l-1.88 1.898v49.38l-1.9 1.9h-22.62l-1.9-1.9v-129.11l1.9-1.9h62.23c26.39 0 45.26 13.308 45.26 39.868 0 20.896-13.21 34.18-28.3 37.97"/><path d="m535.87 22.794c-24.52 0-37.71 18.999-37.71 45.559 0 26.588 13.19 45.557 37.71 45.557s37.7-18.969 37.7-45.557c0-26.56-13.18-45.559-37.7-45.559m0 113.92c-39.61 0-64.1-28.49-64.1-68.36 0-39.868 24.49-68.35 64.1-68.35s64.13 28.485 64.13 68.35c0 39.867-24.52 68.36-64.13 68.36"/><path d="m213.58 39.953l-1.88 1.897h-22.65l-1.87-1.897v-13.365l-1.91-1.897h-62.68l-1.87-1.897v-18.971l1.87-1.898h89.11l1.88 1.897v36.13"/><path d="m213.58 132.9l-1.88 1.9h-89.11l-1.87-1.9v-18.97l1.87-1.93h62.68l1.91-1.89v-13.34l1.87-1.897h22.65l1.88 1.897v36.13"/></g></svg>