<svg xmlns="http://www.w3.org/2000/svg" width="105.34" viewBox="0 31.735 105.337 52.577" enable-background="new 0 31.735 105.337 52.577"><defs><linearGradient id="0" gradientUnits="userSpaceOnUse" x1="0" x2="105.34"><stop stop-color="#9a213d"/><stop offset="1" stop-color="#f20408"/></linearGradient></defs><path fill="url(#0)" d="m4.37 31.747c-.945.002-2.353.192-3.469 1.219-.724.667-.695 1.482-.875 2.25v12.156 20.75c-.012.063-.377 2.896 2.031 3.781.596.22 2.249.495 3.375.469 3.616-.085 3.576-.882 4-1.094 1.03-.517 1.094-3.281 1.094-3.281v-8.407-10.593c0 0 .378-1.683 1.031-3 .421-.85 1.11-1.469 1.344-1.625 1.138-.937 2.25-1.651 3.75-1.875 1.13-.313 2.924.313 4.625-.781 1.301-.837 1.199-1.641 1.594-4.563.395-2.921-.486-4.957-1.719-5.125-2.5-.494-7.431.666-9.656 2.438-.627.237-2 2.083-2 1.281-.226-.603-.889-2.756-1.844-3.281-1.14-.626-1.948-.603-2.25-.625-.072-.006-.464-.095-1.031-.094m43.563 0c-1.674.067-3.335.417-4.969.781-.938.209-1.886.458-2.719.938-.994.573-2.594 2.25-2.594 2.25s-.915.08-1.219-.188c-.575-.504-.135-1.659-.656-2.219-.971-1.043-2.454-1.428-3.875-1.531-1.111-.081-3.226.604-3.844 1.531-.443.666-.938 2-.938 2v31.875c0 0-.232 2.499 1.344 4.469.767.959 2.304 1.017 3.531 1.063 1.543.06 3.768.163 4.5-1 1.311-2.083 1.156-4.531 1.156-4.531v-21.345c0 0 .51-1.611 1.375-2.344.827-.7 2.57-1.581 3.594-1.938.951-.331 2-.504 3-.375.809.105 1.645.36 2.25.906.486.439 1 1.095 1.281 1.688.303.649.469 2.063.469 2.063l.063 21.344c0 0 .012 3.315 1 4.313 1.113 1.124 3.076 1.284 4.656 1.219 1.269-.053 2.375.2 3.781-1.594.915-1.168 1.06-3.907 1-3.938v-21.344c0 0-.193-3.795-.594-5.656-.233-1.084-.557-2.231-1.063-3.219-.411-.801-1-1.506-1.656-2.125-.765-.722-1.641-1.335-2.594-1.781-1.438-.672-3.01-1.155-4.594-1.281-.554-.045-1.127-.053-1.685-.031m39.562 0l-3.875.063c-10.839.64-18.483 12.199-18.313 24.688.003.208.032 1.69.031 1.813-.122 13.726 6.5 26.19 22.719 26 1.15-.014 5.54-.408 5.313-.406 5.824-1.293 9.52-2.888 10.656-7.344.621-2.438-.613-4.156-1.938-4.156-3.86 0-5.134 2.813-11.875 2.813-7.949 0-13.13-4.745-13.844-9.25-.043-.271-.5-3.694-.5-3.938 0-.545.438-1 1-1 0 0 21.804.005 22-.031 4.02-.726 5.455-1.309 6.188-4.813.379-1.815.174-3.02.25-4.219.53-8.461-6.154-20.22-17.812-20.22m-2.562 7.5h1.969c5.04.826 7.542 3.896 8.06 8.813.064 1.056.125 3.844.125 3.844 0 .489-.675.5-1.25.5l-17.12-.031c-.529 0-.656-.832-.656-1.344 0 0-.022-.529 0-1.063.251-5.97 4.588-10.435 8.874-10.719"/></svg>