<svg xmlns="http://www.w3.org/2000/svg" xmlns:xlink="http://www.w3.org/1999/xlink" viewBox="0 0 178.83 84.31"><defs><linearGradient id="0"><stop stop-color="#9a213d"/><stop offset="1" stop-color="#f20408"/></linearGradient><linearGradient x1="0" x2="105.34" id="1" xlink:href="#0" gradientUnits="userSpaceOnUse"/><linearGradient x1="2.332" x2="181.16" id="2" xlink:href="#0" gradientUnits="userSpaceOnUse"/></defs><path d="m4.37 31.747c-.945.002-2.353.191-3.469 1.219-.724.667-.695 1.482-.875 2.25v12.156 20.75c-.012.063-.377 2.895 2.031 3.781.596.219 2.248.495 3.375.469 3.616-.085 3.576-.881 4-1.094 1.03-.516 1.094-3.281 1.094-3.281v-8.406-10.594c0 0 .378-1.683 1.031-3 .421-.85 1.11-1.469 1.344-1.625 1.137-.936 2.25-1.652 3.75-1.875 1.13-.313 2.924.313 4.625-.781 1.301-.837 1.199-1.642 1.594-4.563.395-2.921-.486-4.957-1.719-5.125-2.499-.494-7.431.666-9.656 2.438-.628.237-2 2.083-2 1.281-.226-.603-.889-2.756-1.844-3.281-1.139-.626-1.948-.603-2.25-.625-.072-.005-.464-.095-1.031-.094m43.562 0c-1.674.067-3.335.417-4.969.781-.938.209-1.886.458-2.719.938-.994.573-2.594 2.25-2.594 2.25 0 0-.915.08-1.219-.188-.575-.505-.135-1.659-.656-2.219-.971-1.043-2.454-1.428-3.875-1.531-1.111-.081-3.226.604-3.844 1.531-.444.665-.938 2-.938 2v31.875c0 0-.232 2.498 1.344 4.469.767.959 2.304 1.016 3.531 1.063 1.543.059 3.768.163 4.5-1 1.311-2.084 1.156-4.531 1.156-4.531v-21.344c0 0 .51-1.611 1.375-2.344.827-.701 2.57-1.581 3.594-1.938.951-.331 2-.505 3-.375.809.105 1.644.36 2.25.906.486.439 1 1.094 1.281 1.688.303.649.469 2.063.469 2.063l.063 21.344c0 0 .012 3.316 1 4.313 1.113 1.123 3.076 1.284 4.656 1.219 1.269-.053 2.376.201 3.781-1.594.915-1.168 1.06-3.908 1-3.938v-21.344c0 0-.193-3.795-.594-5.656-.233-1.084-.557-2.232-1.063-3.219-.411-.802-1-1.507-1.656-2.125-.765-.722-1.641-1.336-2.594-1.781-1.438-.672-3.01-1.155-4.594-1.281-.556-.044-1.13-.054-1.688-.031m39.562 0l-3.875.063c-10.839.639-18.484 12.199-18.313 24.687.003.208.032 1.69.031 1.813-.122 13.725 6.501 26.19 22.719 26 1.15-.014 5.54-.408 5.313-.406 5.825-1.293 9.52-2.888 10.656-7.344.622-2.438-.613-4.156-1.938-4.156-3.86 0-5.134 2.813-11.875 2.813-7.948 0-13.13-4.746-13.844-9.25-.043-.27-.5-3.695-.5-3.938 0-.545.438-1 1-1 0 0 21.804.004 22-.031 4.02-.726 5.456-1.309 6.188-4.813.379-1.815.175-3.01.25-4.219.53-8.459-6.155-20.22-17.812-20.22m-2.563 7.5h1.969c5.04.826 7.541 3.895 8.06 8.813.065 1.055.125 3.844.125 3.844 0 .488-.674.5-1.25.5l-17.12-.031c-.529 0-.656-.832-.656-1.344 0 0-.022-.53 0-1.063.253-5.97 4.589-10.435 8.875-10.719" fill="url(#1)" fill-rule="evenodd"/><g transform="translate(-2.332-1.977)"><g fill="url(#2)"><g fill-rule="evenodd"><path d="m2.563 28.05c-.001-.034-.055-.436-.099-.893-.044-.458-.092-.9-.106-.982l-.026-.15.866-.387c.476-.213.873-.41.882-.438.009-.028.05-2.242.091-4.921.041-2.679.086-5.18.098-5.558l.023-.687-.867-.272c-.682-.214-.871-.292-.885-.364-.001-.05-.002-.557.017-1.125l.035-1.034 2.308-.53c2.591-.595 2.905-.636 3.141-.416.199.185.266.35.337.835.036.243.077.454.091.468.014.014.362-.198.774-.471.876-.581 1.675-.985 2.224-1.127.648-.167 1.614-.124 2.197.097l.141.054-.036 1.847c-.02 1.016-.042 1.853-.049 1.861-.007.008-.337.069-.733.136-2.83.48-3.563.917-3.929 2.346-.081.317-.088.668-.088 4.624v4.281l.868.373c.477.205.882.387.9.404.017.017-.008.495-.056 1.061l-.087 1.03h-4.01c-3.164 0-4.01-.013-4.03-.061"/><path d="m19.11 28.05c-.78-.105-1.516-.379-2.153-.803-1.117-.743-1.901-1.908-2.159-3.206-.101-.508-.074-1.886.05-2.573.239-1.328.827-2.386 1.73-3.113 1.398-1.126 3.415-1.677 6.541-1.79l.924-.033-.026-.665c-.041-1.03-.194-1.587-.574-2.09-.607-.804-1.816-1.021-3.636-.652-.52.105-1.78.441-2.552.68-.267.083-.493.142-.503.132-.038-.038-1.09-3.232-1.071-3.251.042-.042 1.456-.46 2.181-.645 3.187-.814 5.539-.889 7.283-.234 1.354.509 2.274 1.516 2.675 2.93.153.541.216 1 .251 1.84.028.69.219 9.301.219 9.902v.331l.82.265.82.265.013 1.087c.009.768-.003 1.087-.041 1.087-.03 0-.961.122-2.069.27-1.108.149-2.172.271-2.363.273-.711.005-1-.278-1.148-1.118-.034-.195-.084-.355-.111-.355-.027 0-.209.1-.404.221-.464.289-1.354.712-1.896.901-.871.304-2.034.446-2.8.344m2.252-2.886c.686-.097 1.701-.522 2.344-.982l.275-.197v-.871c0-.479.015-1.307.032-1.84l.032-.969-.975.028c-1.093.031-1.695.117-2.343.334-.555.186-.876.369-1.17.667-.466.472-.627 1.03-.528 1.828.125 1 .44 1.558 1.051 1.854.374.181.747.225 1.281.15"/><path d="m36.69 28.588c-2.338-.242-3.839-1.84-4.474-4.764-.255-1.177-.299-1.731-.299-3.769 0-1.939.044-2.696.223-3.888.453-3.01 1.591-4.837 3.487-5.606.901-.365 1.585-.468 2.874-.43.988.029 1.657.126 2.784.402.366.09.673.157.68.149.008-.008.019-.747.025-1.643l.011-1.629-.429-.114c-.616-.164-.889-.295-1.106-.531-.241-.262-.258-.371-.213-1.392l.035-.803.343-.117c1.029-.351 2.474-.715 3.733-.941.753-.135 2.217-.312 2.256-.273.018.018.057 4.728.088 10.467.031 5.739.059 10.691.061 11l.005.569.428.16c.627.235.969.418 1.086.582.14.196.191.532.209 1.379l.016.714-1.42.135c-2.523.239-3.522.319-3.647.293-.337-.072-.48-.252-.714-.9-.073-.202-.147-.384-.165-.404-.018-.02-.308.082-.646.228-1.992.859-3.871 1.262-5.23 1.121m3.427-4.02c.472-.137.946-.332 1.481-.609l.477-.247.011-4.398c.006-2.419.012-4.59.012-4.824v-.427l-.392-.11c-1.285-.362-2.476-.491-3.128-.338-.684.161-1.203.562-1.531 1.183-.26.492-.55 1.675-.737 3.01-.124.882-.121 3.147.006 3.843.309 1.7.992 2.676 2.091 2.986.35.099 1.265.064 1.708-.065"/><path d="m113.38 28.05c-.78-.105-1.516-.379-2.153-.803-1.117-.743-1.901-1.908-2.159-3.206-.101-.508-.074-1.886.05-2.573.239-1.328.827-2.386 1.73-3.113 1.398-1.126 3.415-1.677 6.541-1.79l.924-.033-.026-.665c-.041-1.03-.194-1.587-.574-2.09-.607-.804-1.816-1.021-3.636-.652-.52.105-1.78.441-2.552.68-.267.083-.493.142-.503.132-.038-.038-1.09-3.232-1.071-3.251.042-.042 1.456-.46 2.181-.645 3.187-.814 5.539-.889 7.283-.234 1.354.509 2.274 1.516 2.675 2.93.153.541.216 1 .251 1.84.028.69.219 9.301.219 9.902v.331l.82.265.82.265.013 1.087c.009.768-.003 1.087-.041 1.087-.03 0-.961.122-2.069.27-1.108.149-2.172.271-2.363.273-.711.005-1-.278-1.148-1.118-.034-.195-.084-.355-.111-.355-.027 0-.209.1-.404.221-.464.289-1.354.712-1.896.901-.871.304-2.034.446-2.8.344m2.252-2.886c.686-.097 1.701-.522 2.344-.982l.275-.197v-.871c0-.479.015-1.307.032-1.84l.032-.969-.975.028c-1.093.031-1.695.117-2.343.334-.555.186-.876.369-1.17.667-.466.472-.627 1.03-.528 1.828.125 1 .44 1.558 1.051 1.854.374.181.747.225 1.281.15"/></g><g transform="matrix(.25369 0 0 .25369 61.19-39.41)"><path d="m-41.61 266.33c-.092-.535-1.068-8.419-1.045-8.446.018-.022 1.728-.748 3.8-1.614l3.768-1.574.096-6.35c.053-3.493.125-13.221.161-21.619l.065-15.269-3.258-1.289-3.258-1.289v-4.387c0-4.04.023-4.394.282-4.474 1.676-.517 12.11-2.716 15.647-3.298 2.814-.463 7.285-.981 8.469-.981h.541l.004 29.483.004 29.483 3.656 1.511c2.01.831 3.717 1.566 3.792 1.632.116.103-.168 4.568-.483 7.596l-.096.925h-16.07c-8.838 0-16.07-.018-16.08-.04" fill-rule="evenodd" id="3"/><path d="m-28.329 189.72c-3.771-.829-7.132-3.838-8.361-7.486-.601-1.785-.74-4.346-.335-6.169 1.134-5.096 5.752-8.781 11.03-8.8 1.966-.007 3.503.351 5.14 1.198 2.338 1.21 3.924 2.823 5.091 5.178.938 1.894 1.249 3.38 1.143 5.47-.151 2.982-1.209 5.359-3.33 7.48-2.165 2.165-4.531 3.202-7.561 3.313-1.138.042-2.057-.019-2.816-.186" fill-rule="evenodd" id="4"/></g><g fill-rule="evenodd"><path d="m67.54 28.549c-1.656-.28-3.02-.98-4.185-2.141-1.172-1.172-1.891-2.597-2.142-4.246-.074-.483-.081-.745-.081-2.948 0-2.604.018-2.905.225-3.726.623-2.474 2.432-4.455 4.857-5.321.789-.282 1.541-.405 2.49-.408.777-.003 1.157.04 1.837.205 2.716.66 4.865 2.784 5.55 5.484.239.941.245 1.035.245 3.735 0 2.218-.008 2.539-.074 2.939-.289 1.746-.969 3.09-2.167 4.289-1.184 1.184-2.515 1.861-4.207 2.14-.637.105-1.721.105-2.347 0m1.651-3.432c.111-.022.316-.096.456-.164 1.019-.502 1.753-1.763 1.934-3.324.032-.275.042-1.072.03-2.487-.016-1.955-.022-2.106-.106-2.479-.413-1.846-1.508-3.01-2.821-3.01-.604.002-1.081.2-1.561.649-.775.724-1.229 1.783-1.341 3.127-.07.836-.028 4.046.059 4.536.255 1.439.948 2.517 1.926 2.995.465.227.849.27 1.425.158"/><path d="m170.32 28.05c-.78-.105-1.516-.379-2.153-.803-1.117-.743-1.901-1.908-2.159-3.206-.101-.508-.074-1.886.05-2.573.239-1.328.827-2.386 1.73-3.113 1.398-1.126 3.415-1.677 6.541-1.79l.924-.033-.026-.665c-.041-1.03-.194-1.587-.574-2.09-.607-.804-1.816-1.021-3.636-.652-.52.105-1.78.441-2.552.68-.267.083-.493.142-.503.132-.038-.038-1.09-3.232-1.071-3.251.042-.042 1.456-.46 2.181-.645 3.187-.814 5.539-.889 7.283-.234 1.354.509 2.274 1.516 2.675 2.93.153.541.216 1 .251 1.84.028.69.219 9.301.219 9.902v.331l.82.265.82.265.013 1.087c.009.768-.003 1.087-.041 1.087-.03 0-.961.122-2.069.27-1.108.149-2.172.271-2.363.273-.711.005-1-.278-1.148-1.118-.034-.195-.084-.355-.111-.355-.027 0-.209.1-.404.221-.464.289-1.354.712-1.896.901-.871.304-2.034.446-2.8.344m2.252-2.886c.686-.097 1.701-.522 2.344-.982l.275-.197v-.871c0-.479.015-1.307.032-1.84l.032-.969-.975.028c-1.093.031-1.695.117-2.343.334-.555.186-.876.369-1.17.667-.466.472-.627 1.03-.528 1.828.125 1 .44 1.558 1.051 1.854.374.181.747.225 1.281.15"/><path d="m117.32 6.7c1.903-.906 3.47-1.657 3.482-1.668.012-.012-.336-.715-.773-1.564-.58-1.126-.82-1.528-.889-1.489-.052.029-1.574 1.033-3.383 2.23-1.976 1.308-3.276 2.211-3.256 2.263.047.125 1.28 1.871 1.323 1.873.02 0 1.593-.74 3.496-1.645"/><path d="m91.6 28.27c-3.378-.166-5.757-2.163-6.642-5.575-.282-1.09-.394-2.083-.394-3.498 0-1.495.154-2.521.562-3.738.674-2.01 1.881-3.596 3.494-4.583 1.756-1.075 4.04-1.366 6.237-.795.561.146 1.18.358 1.673.575l.367.161.027.369c.015.203.035 1.336.044 2.519l.017 2.15-.751-.005c-.413-.003-.926-.017-1.141-.031l-.391-.027-.546-1.265-.546-1.265-.164-.039c-.09-.022-.473-.039-.85-.039-.785 0-1.122.067-1.659.331-.388.19-.909.693-1.159 1.118-.521.885-.818 2.151-.917 3.902-.079 1.403.07 2.618.461 3.754.288.836.628 1.39 1.171 1.903.533.505 1.134.786 1.896.887.882.117 2.064-.157 3.146-.729.307-.163.346-.174.38-.111.133.248 1.244 2.849 1.228 2.875-.011.017-.22.116-.466.218-1.715.718-3.371 1.024-5.078.94"/><path d="m103.54 28.314c-1.599-.226-2.521-1.208-2.963-3.158-.236-1.041-.252-1.659-.253-10.243-.002-8.08.011-7.635-.228-7.996-.22-.332-.677-.549-1.274-.604l-.286-.027v-.981-.981l2.914-.677 2.914-.677.095.116.095.116.014 10.135c.013 9.424.019 10.153.085 10.396.184.674.464.923 1.036.922.354 0 .602-.068.972-.264.237-.126.271-.134.303-.074.02.038.273.633.562 1.323.409.974.517 1.271.486 1.329-.116.212-.594.578-1.067.817-.755.381-1.403.527-2.427.547-.4.008-.84-.002-.977-.021"/><path d="m131.49 28.28c-2.094-.144-3.692-.632-4.686-1.465l-.275-.23v-.32c0-.176.005-1.072.0001-1.992l.009-1.672 1.114.012 1.114.012.245.833c.24.817.248.836.425.992.59.519 1.773.861 2.836.818.758-.03 1.288-.202 1.693-.549.814-.697.812-2.03-.005-2.863-.477-.486-1.148-.846-2.831-1.518-1.427-.57-2.378-1.066-2.911-1.518-.762-.647-1.186-1.312-1.402-2.199-.096-.392-.116-.606-.114-1.209.002-.954.179-1.743.57-2.541.547-1.116 1.427-1.974 2.606-2.542 1.105-.532 2.054-.703 3.474-.626 1.3.071 2.258.257 3.213.625.37.143.981.44 1.05.511.033.034.056.619.076 1.929l.029 1.88-.865-.005-1.616-.009c-.221-.517-.374-.941-.571-1.394-.102-.052-.302-.16-.625-.275-1.277-.456-2.373-.321-3 .371-.383.42-.576.98-.538 1.562.073 1.108.723 1.75 2.354 2.321.263.092.861.292 1.329.445 1.85.603 2.777 1.139 3.414 1.973.536.702.779 1.415.872 2.552.109 1.339-.183 2.514-.898 3.613-.912 1.402-2.358 2.262-4.156 2.47-.338.039-1.502.048-1.973.016l.039-.005"/><path d="m158.07 28.27c-3.378-.166-5.757-2.163-6.642-5.575-.282-1.09-.394-2.083-.394-3.498 0-1.495.154-2.521.562-3.738.674-2.01 1.881-3.596 3.494-4.583 1.756-1.075 4.04-1.366 6.237-.795.561.146 1.18.358 1.673.575l.367.161.027.369c.015.203.035 1.336.044 2.519l.017 2.15-.751-.005c-.413-.003-.926-.017-1.141-.031l-.391-.027-.546-1.265-.546-1.265-.164-.039c-.09-.022-.473-.039-.85-.039-.785 0-1.122.067-1.659.331-.388.19-.909.693-1.159 1.118-.521.885-.818 2.151-.917 3.902-.079 1.403.07 2.618.461 3.754.288.836.628 1.39 1.171 1.903.533.505 1.134.786 1.896.887.882.117 2.064-.157 3.146-.729.307-.163.346-.174.38-.111.133.248 1.244 2.849 1.228 2.875-.011.017-.22.116-.466.218-1.715.718-3.371 1.024-5.078.94"/></g></g><g transform="matrix(.25369 0 0 .25369 151.49-39.41)" fill="#e40910"><use xlink:href="#3"/><use xlink:href="#4"/></g></g></svg>