<svg xmlns="http://www.w3.org/2000/svg" viewBox="0 0 312.95 300"><defs><clipPath id="0"><path d="m50.03 433.29c0 0-2.037 1.858-1.806 3.677.232 1.818 1.444 2.579 2.348 2.513.904-.066 1.498-.349 2.479-1.716 0 0-.8-.047-1.467-.222-.397-.104-.775-.246-1.045-.363-.168-.072-.343-.157-.451-.216 0 0-.027-.011-.056-.049-.027-.035-.055-.096-.066-.121-.021-.044-.043-.101-.066-.162-.07-.187-.141-.42-.162-.496 0 0-.022-.058.034-.069.062-.013.08.024.088.039 0 0 .062.11.148.237.023.032.152.219.307.371.056.056.115.109.171.154.098.077.185.131.217.147 0 0 .816.46 1.65.508.006 0 .062.003.082-.02.018-.02 0-.067 0-.071-.013-.055-.048-.118-.076-.169 0 0-.054-.099-.153-.283-.086-.162-.548-1-1.038-1.833-.531-.899-1.091-1.789-1.138-1.856m.539-1.168l.23.43 2.305-2.171.729.682c0 0 .015-.022.116-.158.103-.138.114-.151.114-.151 0 0-.864-.734-.96-.804-.09.067-.82.687-1.463 1.241-.573.494-1.071.931-1.071.931m4.121-.253c-.578.826-1.143 1.672-1.626 2.558-.022.055.008.084.061.092.073.012.146.018.219.029.137.02.273.046.407.077.272.063.536.151.791.263.493.218.965.536 1.271.988.153.226.26.489.254.765-.007.256-.098.5-.289.674-.193.176-.45.262-.699.324-.259.065-.525.1-.791.121-.374.029-.75.03-1.123.011.255.409.574.79.944 1.101.393.332.868.591 1.389.632.503.039 1.01-.116 1.407-.422.403-.308.694-.746.877-1.215.196-.504.293-1.079.209-1.617-.085-.54-.33-1.046-.62-1.505-.14-.221-.294-.434-.457-.639-.13-.165-.27-.321-.405-.483-.126-.15-.275-.282-.416-.418-.19-.184-.381-.366-.572-.548-.276-.263-.554-.526-.831-.788m-6.06-.815c.052.007.255.083.493.148.296.08.63.152.632.152.225.496.486.975.745 1.453.273.504.553 1 .839 1.501.282.492.569.981.86 1.467.279.465.563.93.877 1.373.073.103.147.218.241.305.088.082.198.114.315.131.003 0 .19.022.425 0 .05-.005.165-.016.304-.054.112-.03.241-.079.354-.141.102-.058.192-.129.261-.206.07-.079.118-.164.143-.217.129-.277.081-.61.079-.632-.004-.035-.043-.402-.251-.715-.198-.297-.562-.539-.731-.625-.396-.201-.875-.288-1.07-.32-.355-.057-.683-.061-.741-.063-.057 0-.113-.002-.169-.002-.013 0-.029-.004-.039-.016-.005-.005-.018-.029-.017-.05 0-.023.017-.043.019-.045.244-.408.476-.823.72-1.23l.42-.703c.283-.474.578-.938.909-1.381.33-.442.688-.865 1.119-1.211.436-.349.937-.602 1.477-.743.269-.069.546-.111.823-.134.277-.024.558-.033.836-.018.618.035 1.214.229 1.762.511.013.007.083.037.116.075.022.025.017.062.011.071-.021.032-.059.026-.076.024-.008 0-.04-.015-.047-.018-.493-.257-1.037-.418-1.594-.436-.57-.018-1.12.123-1.631.369-.849.408-1.549 1.088-2.105 1.839.747.648 1.515 1.282 2.152 2.041.342.407.657.84.92 1.302.271.475.495.993.575 1.538.079.544-.002 1.12-.175 1.639-.169.506-.445.983-.839 1.346-.378.349-.854.571-1.363.641-.527.073-1.075.002-1.573-.184-.601-.224-1.117-.616-1.554-1.081-.68.794-1.666 1.303-2.721 1.292-.519-.006-1.03-.151-1.458-.449-.436-.303-.762-.74-.978-1.222-.228-.509-.345-1.074-.338-1.632.008-.548.192-1.082.433-1.568.238-.479.538-.926.867-1.347.266-.339.552-.667.862-.967-.04-.062-.257-.397-.498-.757-.146-.218-.294-.436-.442-.653-.054-.079-.107-.158-.161-.236-.018-.026-.035-.052-.054-.077-.013-.018-.033-.039-.02-.062.011-.018.037-.024.056-.022"/></clipPath><radialGradient cx="0" cy="0" r="1" id="1" gradientUnits="userSpaceOnUse" gradientTransform="matrix(5.9645 0 0-5.9645 53.997 434.56)"><stop stop-color="#f6f6f6"/><stop offset=".163" stop-color="#4f4c4c"/><stop offset=".365" stop-color="#f6f6f6"/><stop offset=".624" stop-color="#464344"/><stop offset=".826" stop-color="#f6f6f6"/><stop offset="1" stop-color="#9c9b9b"/></radialGradient><radialGradient cx="0" cy="0" r="1" id="2" gradientUnits="userSpaceOnUse" gradientTransform="matrix(5.6188 0 0-5.6188 54.3 434.41)"><stop stop-color="#f6f6f6"/><stop offset=".163" stop-color="#5e5b5c"/><stop offset=".365" stop-color="#d5d5d5"/><stop offset=".624" stop-color="#231f20"/><stop offset=".826" stop-color="#f6f6f6"/><stop offset="1" stop-color="#868384"/></radialGradient></defs><g transform="translate(-6.03-739.86)"><g fill="#918f90"><path d="m32.777 1027.77v-7.01c0-1 .244-1.515.831-1.759.365-.156 1.466-.318 2.419-.342h.244c2.761 0 4.739 1.685 4.739 4.08 0 3-3.274 5.01-8.233 5.03m14.389 9.845l-.317-.098c-.659-.244-.782-.416-2.028-3.127-1-2.15-1.661-3.249-3.03-5.204l-.61-.88c3.078-1.319 4.617-3.274 4.617-5.839 0-3.469-2.956-5.765-7.329-5.765h-10.993c-.709 0-1.1.342-1.1.88 0 .489.244.756.807.952.782.244 1 .661 1 1.661v15.684c0 1.026-.221 1.417-1 1.685-.563.176-.807.44-.807.928 0 .537.391.879 1.1.879h6.083c.707 0 1.098-.342 1.098-.879 0-.489-.244-.756-.805-.928-.782-.268-1.051-.659-1.051-1.685v-5.839c1.931-.176 2.736-.268 3.249-.319.244-.02.563-.098 1-.221.659 1.026.952 1.466 1.27 2.125l1.564 2.858c.563 1.051.807 1.808.807 2.199 0 .416-.244.659-.879.88-.563.176-.805.489-.805.928 0 .537.391.88 1.098.88h6.694c.684 0 1.026-.317 1.026-.88 0-.416-.219-.733-.659-.88"/><g transform="matrix(24.42992 0 0-24.42992 61.51 1037.66)"><path d="m0 0c-.16 0-.288.175-.288.394 0 .218.128.393.288.393.158 0 .287-.175.287-.393 0-.219-.129-.394-.287-.394m0 .875c-.147 0-.257-.041-.35-.133-.086-.087-.14-.221-.14-.348 0-.13.054-.263.14-.349.093-.091.203-.133.35-.133.145 0 .261.043.347.133.089.091.142.219.142.349 0 .127-.055.259-.142.348-.089.09-.202.133-.347.133"/><g transform="translate(1.173.141)"><path d="m0 0c.027.061.063.145.09.206.063.147.128.294.128.294l.019-.567v-.004c0-.037-.012-.054-.043-.066-.023-.006-.033-.018-.033-.037 0-.022.017-.036.045-.036h.246c.028 0 .045.014.045.036 0 .019-.011.031-.034.037-.032.012-.038.025-.04.07l-.024.642v.004c0 .037.0001.054.042.064.022.008.034.019.034.037 0 .023-.017.037-.045.037h-.171c-.04 0-.058-.006-.067-.025l-.014-.035-.22-.517-.223.531c-.014.032-.029.046-.057.046h-.204c-.027 0-.045-.014-.045-.036 0-.019.0001-.03.035-.038.031-.0001.04-.027.04-.066v-.002l-.02-.642c0-.045-.0001-.058-.041-.07-.024-.006-.033-.018-.033-.037 0-.022.016-.036.043-.036h.163c.025 0 .043.014.043.036 0 .018-.0001.031-.035.037-.03.012-.039.027-.039.066v.004l.016.57c0 0 .057-.127.117-.263.061-.14.126-.29.148-.316.015-.018.032-.026.048-.026.04 0 .058.039.086.102"/><g transform="translate(.893.199)"><path d="m0 0c.028.073.039.102.066.168.032.076.046.106.086.188.042-.078.05-.096.087-.186.035-.088.041-.102.065-.17h-.304m.664-.338l-.001.002c-.019.008-.03.018-.04.036-.012.023-.018.04-.067.172-.066.176-.13.334-.192.462-.028.06-.055.107-.082.146-.017.024-.031.041-.038.045-.006.005-.02.006-.039.006-.04 0-.051-.004-.066-.024-.001-.012-.019-.026-.03-.043-.073-.131-.104-.197-.172-.364-.036-.094-.069-.177-.098-.251l-.042-.115c-.017-.045-.029-.06-.053-.07l-.012-.002c-.014-.006-.023-.02-.023-.035 0-.022.018-.036.044-.036h.201c.028 0 .046.014.046.036 0 .018-.011.031-.035.037-.032.012-.042.026-.042.062 0 .02.011.064.029.114l.021.058h.376c.011-.031.019-.054.025-.069.022-.057.031-.094.031-.113 0-.024-.013-.042-.04-.052-.024-.008-.033-.018-.033-.037 0-.022.017-.036.045-.036h.275c.027 0 .044.014.044.036 0 .015-.009.029-.023.035"/><g transform="translate(1.647.518)"><path d="m0 0h-.17c-.028 0-.045-.014-.045-.036 0-.019.011-.031.034-.039.032-.001.041-.025.041-.068l.005-.474c-.133.196-.19.274-.296.402-.095.112-.145.174-.15.18-.022.029-.034.035-.058.035h-.174c-.028 0-.045-.014-.045-.036 0-.019.011-.031.034-.039.032-.001.041-.027.041-.068v-.644c0-.04-.009-.055-.041-.067-.023-.007-.034-.018-.034-.037 0-.022.017-.036.045-.036h.161c.028 0 .046.014.046.036 0 .019-.011.03-.034.037-.031.012-.041.027-.041.067v.581c.142-.163.19-.226.311-.393.065-.091.117-.166.154-.227.058-.094.08-.116.113-.116.023 0 .039.007.05.017.018.019.022.046.022.14v.642c0 .043.001.058.043.068.023.008.033.02.033.038 0 .023-.017.037-.045.037"/><g transform="translate(.937-.688)"><path d="m0 0c-.014 0-.024-.004-.035-.015l-.033-.038c-.058-.063-.151-.101-.239-.101-.189 0-.312.145-.312.372 0 .232.124.398.299.398.067 0 .135-.027.179-.068.02-.021.033-.039.057-.084.026-.045.047-.061.074-.061.023 0 .038.019.038.045 0 .025-.006.077-.011.108 0 .014-.009.031-.019.046-.042.057-.183.104-.314.104-.282 0-.505-.215-.505-.487 0-.273.21-.476.492-.476.126 0 .245.045.325.121.032.032.053.065.053.088 0 .029-.019.048-.049.048"/><g transform="translate(.915-.041)"><path d="m0 0c-.012 0-.03-.0001-.048-.026l-.022-.018c-.034-.029-.066-.047-.098-.053-.047-.011-.101-.016-.168-.016-.078 0-.117.006-.131.022-.008.007-.016.032-.017.048v.3h.021l.1.002h.0001c.058 0 .102-.006.116-.0001 0 0 .009-.003.022-.008l.019-.011.021-.0001c.011-.005.027-.0001.037-.0001.025 0 .032.015.032.076 0 .024 0 .057-.004.07 0 .007-.002.013-.005.018-.005.012-.013.017-.024.017-.013 0-.026-.005-.049-.019-.0001-.005-.018-.009-.02-.0001-.0001-.007-.017-.0001-.025-.011-.022-.006-.04-.008-.096-.008h-.033c-.031.002-.064.002-.1.002h-.021v.243c0 .05.022.06.123.06.04 0 .082-.002.146-.009.014 0 .026-.002.031-.004.017-.003.039-.013.05-.023.002 0 .011-.007.023-.02.029-.026.049-.039.065-.039.02 0 .033.017.033.04 0 .0001 0 .027-.002.05-.003.027-.007.046-.013.058-.003.008-.008.013-.017.017-.015.007-.04.011-.085.011h-.579c-.028 0-.045-.014-.045-.036 0-.019.011-.03.034-.038.032-.011.041-.027.041-.068v-.642c0-.043-.009-.058-.041-.07-.023-.006-.034-.018-.034-.037 0-.022.017-.036.045-.036h.623c.086 0 .095.008.107.087l.009.057c0 .004 0 .008 0 .0001 0 .025-.013.044-.032.044"/><g transform="translate(2.288.729)"><path d="m0 0h-.18c-.028 0-.045-.014-.045-.036 0-.019.012-.031.033-.039.026-.008.033-.014.039-.036 0-.009.003-.016.003-.024 0-.023-.017-.1-.044-.196-.037-.131-.079-.236-.129-.333-.014-.027-.036-.068-.067-.121-.063.119-.079.151-.137.285-.032.074-.054.132-.067.171-.014.047-.029.101-.043.161-.002.015-.004.027-.004.032v.004c0 .03.012.047.04.057.023.008.035.02.035.038 0 .023-.017.037-.045.037h-.251c-.028 0-.045-.014-.045-.036 0-.019.0001-.031.034-.039.026-.008.033-.016.037-.036l.009-.04.009-.035.045-.161c.024-.09.073-.213.143-.354.047-.1.081-.157.116-.199.029-.038.047-.048.084-.048.048 0 .058.006.087.05.041.061.065.104.117.211.067.14.09.198.133.34.026.085.04.137.057.207.012.05.016.055.045.065.023.008.035.02.035.038 0 .022-.017.037-.044.037"/><path d="m0 0c-.04 0-.053-.003-.065-.015-.007-.007-.011-.011-.013-.015-.006-.009-.011-.028-.017-.059-.006-.027-.009-.047-.009-.064 0-.023.015-.04.036-.04.014 0 .028.005.04.015l.039.036c.05.044.091.056.205.058v-.7c0-.042-.008-.057-.04-.069-.024-.006-.034-.018-.034-.037 0-.022.017-.036.045-.036h.25c.029 0 .046.014.046.036 0 .019-.012.031-.034.037-.032.012-.042.027-.042.069v.7c.114-.002.155-.013.205-.056l.039-.036c.012-.0001.026-.016.04-.016.021 0 .036.017.036.04 0 .017-.003.038-.009.065-.006.03-.012.05-.017.059-.002.004-.006.007-.013.014-.013.013-.025.015-.065.015h-.623" transform="translate(-1.708)"/></g></g></g></g></g></g></g></g><path d="m52.11 435.46c.233.396.474.786.726 1.171.094.143.189.286.287.427.099.141.205.315.376.374.0001.004.021.007.031.0001.228.06.485.04.715-.004.207-.045.411-.12.58-.252.203-.158.312-.388.334-.643.025-.265-.033-.554-.15-.794-.064-.131-.151-.248-.249-.355.07.07.136.146.19.226.208.313.247.68.251.715.002.022.05.355-.079.632-.025.053-.073.138-.143.217-.069.077-.159.148-.261.206-.113.062-.242.111-.354.141-.139.038-.254.049-.304.054-.235.023-.422 0-.425 0-.117-.017-.227-.049-.315-.131-.094-.087-.168-.202-.241-.305-.314-.443-.598-.908-.877-1.373-.291-.486-.578-.975-.86-1.467-.286-.497-.566-.997-.839-1.501-.259-.478-.52-.957-.745-1.453l.169.128c.003.006.25.536.645 1.267.494.913 1.013 1.814 1.538 2.709m-1.999-2.044l-.004.004c-.379.371-1.863 1.931-1.666 3.465.224 1.756 1.401 2.49 2.278 2.426.797-.058 1.429-.391 2.285-1.547.03.002.046.002.046.002-.981 1.367-1.575 1.65-2.479 1.716-.904.066-2.116-.695-2.348-2.513-.231-1.819 1.807-3.679 1.807-3.679l.081.126m3.726-2.213l-.697-.655-2.215 2.086-.127-.081 2.305-2.17.729.682c0 0 0 0 0 0s.015-.021.116-.157c.103-.138.114-.151.114-.151l-.003.15-.222.297m-4.047 4.863c0 0 0 0 0 0s0 0 .002 0m7.03-6.146c-.735.378-1.351.968-1.85 1.623-.011-.0001-.022-.019-.033-.028.556-.751 1.256-1.431 2.105-1.839.511-.246 1.061-.387 1.631-.369.557.018 1.101.179 1.594.436.007.003.039.017.047.018.003 0 .007 0 .011 0 0 0 .002 0 .002 0 .011 0 .024 0 .036-.004.007-.002.013-.005.018-.0001-.031.028-.17.085-.232.113-.032.015-.082.022-.126.014-.047-.009-.084-.028-.09-.031-.472-.232-.983-.324-1.511-.329-.563-.007-1.104.149-1.602.405m3.561-.172c0 0 0 0 0 0m-7.952 7.757c-.02.023-.076.02-.082.02-.834-.048-1.65-.508-1.65-.508-.032-.016-.119-.07-.217-.147-.056-.045-.115-.098-.171-.154-.155-.152-.284-.339-.307-.371-.086-.127-.148-.237-.148-.237-.007-.013-.022-.042-.065-.042.032 0 .181 0 .222.018.036.015.053.049.088.105.117.186.263.369.426.509.088.08.182.151.282.21.465.25.978.437 1.505.491.035.003.069.006.104.008.002 0 .003 0 .005 0 .003.009.006.019.008.027 0 .004.018.051 0 .071m.73.269c.255.409.574.79.944 1.101.393.332.868.591 1.389.632.503.039 1.01-.116 1.407-.422.403-.308.694-.746.877-1.215.196-.504.293-1.079.209-1.617-.085-.54-.33-1.046-.62-1.505-.14-.221-.294-.434-.457-.639-.13-.165-.27-.321-.405-.483-.126-.15-.275-.282-.416-.418-.19-.184-.381-.366-.572-.548-.276-.263-.554-.526-.831-.788-.578.826-1.143 1.672-1.626 2.558-.022.055.008.084.061.092.025.005.05.007.075.011-.018-.004-.042-.009-.053-.012-.013-.002-.027-.008-.038-.016-.012-.009-.018-.023-.016-.037 0-.011.004-.023.008-.033.229-.421.482-.828.74-1.231.265-.415.539-.822.821-1.225.458.433.916.865 1.369 1.303.135.131.274.261.397.404.141.165.284.329.417.501.329.423.625.882.818 1.383.098.256.169.525.191.799.019.262-.006.527-.054.785-.092.492-.299.972-.614 1.363-.152.188-.332.355-.535.486l-.006.004c-.281.178-.602.284-.934.305-.065.004-.129.005-.192.003-.02 0-.04-.002-.06-.003-.493-.032-.945-.271-1.322-.581-.329-.27-.615-.598-.853-.952-.04-.002-.08-.003-.119-.005" fill="url(#2)" transform="matrix(24.42992 0 0-24.42992-1156.64 11490.17)"/><g transform="matrix(24.42992 0 0-24.42992-1156.64 11490.17)" clip-path="url(#0)"><path d="m60.4 440.05h-12.81v-12.28h12.81v12.28" fill="url(#1)"/></g><g fill="#918f90"><path d="m218.93 974.15v-51.54h6.82v21.16h26.789v-21.16h6.82v51.54h-6.82v-24.293h-26.789v24.293z"/><path d="m270.76 974.15v-51.54h17.754c4.01 0 7.07.246 9.176.738 2.953.68 5.473 1.91 7.559 3.691 2.719 2.297 4.752 5.232 6.1 8.807 1.348 3.574 2.02 7.658 2.02 12.252 0 3.914-.457 7.383-1.371 10.406-.914 3.02-2.086 5.525-3.516 7.506-1.43 1.98-2.994 3.539-4.693 4.676-1.699 1.137-3.75 1.998-6.152 2.584-2.402.586-5.162.879-8.279.879zm6.82-6.082h11c3.398 0 6.06-.316 7.998-.949 1.934-.633 3.475-1.523 4.623-2.672 1.617-1.617 2.877-3.791 3.779-6.521.902-2.73 1.353-6.04 1.354-9.932 0-5.391-.885-9.533-2.654-12.428-1.77-2.894-3.92-4.834-6.451-5.818-1.828-.703-4.77-1.055-8.824-1.055h-10.828z"/></g></g></svg>