<svg xmlns="http://www.w3.org/2000/svg" height="350.36" width="600" viewBox="0 0 158.75 92.698616"><g transform="translate(-42.33-141.79)"><path d="m125.33 175.54c-1.46-1.54-3.26-3.62-4.85-5.47-.85-.98-1.66-1.91-2.34-2.69-.27-.27-.45-.58-.5-.88-.13-.64.32-1.27.99-1.42.27-.08.58-.17.92-.27.65-.18 1.37-.39 2-.56 3.27-.96 5.51-2.49 6.85-4.66.81-1.33 1.09-2.95.79-4.55-.19-.96-.81-1.9-1.5-2.29l-.02-.001-.02-.001c-.83-.51-2.03-.81-3.21-.78-.44.02-1.12.09-1.59.18-.78.15-1.29.44-1.56.89-1.64 2.8-3.51 8.04-5.29 13.27-.45 1.34-.93 2.71-1.39 4.04-.86 2.5-2.05 5.94-3.08 8.93 2.9 2.47 5.85 4.81 8.5 7.11.49.42 1.01.88 1.01.88.24.21.63.21.86 0 0 0 .52-.46 1.01-.88 2.32-2.01 4.87-4.05 7.41-6.19-1.61-1.29-3.26-2.83-4.99-4.64"/><path d="m96.79 159.01c-3.179-15.23 12.863-22.33 23.313-13.09.47.42.92.86 1.37 1.35.45-.49.9-.93 1.37-1.35 10.45-9.24 26.49-2.14 23.31 13.09-1.47 7.06-6.43 12.79-12.05 17.89-.57-.47-1.16-.97-1.75-1.51-3.28-2.96-6.87-6.8-9.04-9.36 1.66-.55 3.33-1.32 4.68-2.14 1.7-1.05 3.41-2.59 4.57-4.14 1.56-2.08 2.19-4.17 1.83-6.04-.3-1.55-1.26-2.83-2.63-3.51-2.8-1.4-6.82-.87-10.02-.27-2.78.54-5.6 1.37-7.95 2.35-2.7 1.14-5.49 2.9-7.59 4.56-.66.52-.77.61-.87 1.49-.001.16-.27 2.51-.28 2.62 0 .14.02.26.03.31.11.58.69.97 1.28.86.46-.09.82-.49.91-1.02.37-1.36 1.32-2.76 2.6-3.84 1.92-1.61 4.02-2.8 5.99-3.4-.8 2.94-2.26 7.24-3.7 10.9-1.39 3.57-2.94 7.66-4.28 11.25-5.22-4.87-9.701-10.34-11.09-17"/><path d="m193.32 213.11l-5.67-13.08c-.06-.12-.08-.23-.08-.37 0-.43.37-.82.84-.82.41 0 .71.27.86.63l5.08 12.17 5.09-12.22c.15-.29.45-.58.82-.58.46 0 .82.37.82.79 0 .13-.02.23-.06.34l-5.69 13.14c-.19.42-.48.69-.97.69h-.08c-.48 0-.8-.27-.96-.69"/><path d="m177.13 200.47h-4.26c-.42 0-.77-.33-.77-.75s.35-.78.77-.78h10.2c.42 0 .78.36.78.78s-.36.75-.78.75h-4.26v12.43c0 .46-.38.84-.84.84s-.84-.38-.84-.84z"/><path d="m149.75 212.8v-13.02c0-.46.37-.84.81-.84h9.09c.41 0 .78.31.8.72.02.44-.33.79-.76.79h-8.29v5.02h7.35c.55 0 .96.63.64 1.14-.15.24-.42.37-.69.37h-7.3v5.14h8.36c.41 0 .77.31.79.72.02.44-.32.79-.75.79h-9.24c-.44 0-.81-.37-.81-.83"/><path d="m132.13 206.33v-.04c0-4.16 3.11-7.6 7.44-7.6 2.37 0 3.88.78 5.24 1.91.17.15.33.38.33.67 0 .44-.39.82-.83.82-.23 0-.42-.11-.55-.19-1.13-1.01-2.41-1.68-4.22-1.68-3.25 0-5.69 2.65-5.69 6.02v.05c0 3.39 2.46 6.06 5.69 6.06 1.83 0 3.11-.63 4.37-1.78.12-.13.31-.23.52-.23.42 0 .8.37.8.8 0 .25-.12.46-.27.58-1.45 1.32-3.05 2.16-5.46 2.16-4.24 0-7.37-3.33-7.37-7.55"/><path d="m114.78 199.69c0-.44.38-.81.82-.81h.23c.38 0 .61.19.84.48l8.92 11.38v-11.08c0-.45.36-.82.82-.82.44 0 .8.37.8.82v13.26c0 .44-.32.78-.76.78h-.08c-.36 0-.61-.22-.87-.51l-9.1-11.65v11.38c0 .44-.36.82-.82.82-.44 0-.8-.38-.8-.82z"/><path d="m103.31 198.77c-.52 0-.84.27-1.05.74l-5.96 13.03c-.082.17-.103.32-.103.44 0 .42.336.76.754.76.379 0 .651-.21.797-.57l1.533-3.42h8.06l1.54 3.38c.14.33.41.61.81.61.44 0 .8-.36.8-.8 0-.13-.04-.27-.11-.42l-5.95-13.01c-.19-.47-.53-.74-1.03-.74zm0 1.95l3.38 7.52h-6.758z"/><path d="m77.853 199.69c0-.44.38-.81.819-.81h.19c.357 0 .607.19.775.44l5.247 7.89 5.247-7.89c.168-.28.44-.44.776-.44h.189c.44 0 .819.37.819.81v13.21c0 .46-.379.84-.819.84-.461 0-.84-.4-.84-.84v-10.96l-4.7 6.91c-.189.27-.4.42-.693.42s-.526-.15-.716-.42l-4.678-6.89v10.96c0 .46-.358.82-.819.82-.439 0-.797-.36-.797-.82z"/><path d="m65.49 198.69c-4.472 0-7.514 3.55-7.514 7.6v.04c0 4.05 2.999 7.55 7.471 7.55 4.471 0 7.513-3.54 7.513-7.59v-.05c0-4.05-2.999-7.55-7.47-7.55m-.043 1.53c3.36 0 5.794 2.73 5.794 6.07v.04c0 3.34-2.396 6.02-5.751 6.02-3.361 0-5.795-2.73-5.795-6.06v-.05c0-3.33 2.396-6.02 5.752-6.02"/><path d="m43.15 198.94c-.439 0-.818.38-.818.84v13.12c0 .46.379.84.818.84.461 0 .84-.38.84-.84v-4.98h4.218l4.136 5.37c.189.26.439.45.775.45.418 0 .84-.38.84-.82 0-.23-.103-.42-.271-.61l-3.654-4.7c2.288-.44 3.925-1.85 3.925-4.26v-.05c0-1.15-.422-2.18-1.133-2.89-.927-.92-2.374-1.47-4.179-1.47zm.84 1.53h4.532c2.374 0 3.757 1.09 3.757 2.9v.04c0 1.89-1.573 3.02-3.778 3.02h-4.511z"/><path d="m111.93 220.7c-.81 0-1.47.67-1.47 1.48v10.84c0 .81.66 1.47 1.47 1.47h19.55c.81 0 1.48-.66 1.48-1.47v-10.84c0-.81-.67-1.48-1.48-1.48zm1.18 1.84c.47 0 .85.38.85.86v3.32h4.72v-3.32c0-.48.38-.86.86-.86.49 0 .87.38.87.86v8.3c0 .48-.38.86-.87.86-.48 0-.86-.38-.86-.86v-3.37h-4.72v3.37c0 .48-.38.86-.85.86-.5 0-.88-.38-.88-.86v-8.3c0-.48.38-.86.88-.86m10.01.07h2.81c3.11 0 5.25 2.13 5.25 4.91v.03c0 2.78-2.14 4.94-5.25 4.94h-2.81c-.49 0-.87-.38-.87-.87v-8.13c0-.5.38-.88.87-.88m.86 1.58v6.72h1.95c2.08 0 3.43-1.4 3.43-3.33v-.03c0-1.93-1.35-3.36-3.43-3.36z"/></g></svg>