<svg xmlns="http://www.w3.org/2000/svg" height="217.21" width="600" viewBox="0 0 158.75 57.470291"><defs><linearGradient id="0" gradientUnits="userSpaceOnUse" x2="0"><stop stop-color="#f3f4f4"/><stop stop-color="#cbccce" offset="1"/></linearGradient><radialGradient id="1" gradientUnits="userSpaceOnUse" cy="0" cx="0" gradientTransform="matrix(28.454 0 0 26.904 153.14 147.47)" r="1"><stop stop-color="#f3f4f4"/><stop stop-color="#f3f4f4" offset=".556"/><stop stop-color="#cbccce" offset="1"/></radialGradient></defs><g transform="translate(-21.17-123.12)"><path fill="url(#0)" d="m156.98 124.74c-.33-.06-.66-.08-.98-.08-2.7 0-5.18 1.65-6.41 4.23-3.64.21-6.16 3.05-6.79 7.7-.44 3.28 1.42 7.13 4.76 9.92-.27 1.09-.93 2.17-3.76 3.6l-1.65.83 1.78.41c1.55.35 2.67.51 3.63.51 1.99 0 3.44-.68 5.31-1.93.88.56 1.77 1.14 3.1 1.48.99.26 1.97.39 2.91.39 2.13 0 3.89-.65 5.13-1.88.92.55 1.94.84 3 .84 2.03 0 3.9-1.06 5.06-2.85.22.02.46.04.69.04 3.95 0 7.16-3.94 7.16-8.76 0-3.72-1.89-6.99-4.71-8.25-1.26-3.2-4.21-5.33-7.44-5.33-.58 0-1.15.06-1.72.2-1.01-1.65-2.9-2.69-4.96-2.69-1.56 0-3.03.58-4.11 1.62"/><path fill="url(#1)" d="m157.18 125.45c-.38-.08-.77-.13-1.18-.13-2.68 0-4.99 1.74-6.02 4.22-3.63.02-5.98 2.75-6.58 7.14-.45 3.4 1.79 7.14 4.84 9.56-.28 1.56-.97 2.83-4.18 4.47 4.1.93 5.65.61 8.81-1.56.99.64 1.85 1.27 3.24 1.62 3.05.78 6.1.35 7.81-1.68.88.63 1.94 1.01 3.09 1.01 2.01 0 3.78-1.17 4.75-2.91.33.06.67.09 1 .09 3.62 0 6.54-3.62 6.54-8.09 0-3.63-1.92-6.7-4.56-7.73-1.07-3.04-3.79-5.2-6.97-5.2-.7 0-1.38.11-2.02.3-.78-1.63-2.58-2.78-4.66-2.78-1.57 0-2.97.65-3.91 1.67"/><g fill="#e1002b"><path d="m38.963 149.92l-2.346 6.29c-.766-.36-1.633-.55-2.604-.55-2.045 0-3.4.95-4.05 2.85-.257.7-.384 2.06-.384 4.07v7.39h-8.412v-21.23h8.412v4.92l.638-1.36c1.282-2.72 2.79-4.08 4.524-4.08 1.249 0 2.658.57 4.222 1.7"/><path d="m55.18 159.31c0-4.87-1.19-7.31-3.57-7.31-1.076 0-1.932.67-2.566 1.98-.64 1.32-.959 3.08-.959 5.29 0 2.26.319 4.07.959 5.41.634 1.35 1.49 2.02 2.566 2.02 1.134 0 2.01-.65 2.635-1.95.619-1.3.935-3.12.935-5.44m8.664-.17c0 3.29-1.147 6-3.44 8.14-2.295 2.14-5.212 3.2-8.751 3.2-3.568 0-6.492-1.06-8.773-3.18-2.278-2.13-3.416-4.83-3.416-8.12 0-3.19 1.152-5.82 3.461-7.87 2.307-2.06 5.259-3.09 8.857-3.09 3.45 0 6.327 1.05 8.622 3.13 2.293 2.08 3.44 4.68 3.44 7.79"/><path d="m89.74 169.97h-8.496v-3.1c-1.897 2.41-4.263 3.61-7.09 3.61-3.261 0-5.472-1.16-6.628-3.48-.568-1.13-.851-3.1-.851-5.91v-12.35h8.409v12.57c0 2.49.929 3.74 2.781 3.74 2.252 0 3.379-1.45 3.379-4.34v-11.97h8.496z"/><path d="m107.69 159.29c0-4.4-1.18-6.6-3.51-6.6-2.17 0-3.25 2.2-3.25 6.6 0 2.03.32 3.68.96 4.95.64 1.28 1.48 1.91 2.5 1.91 1 0 1.8-.62 2.4-1.86.59-1.24.9-2.91.9-5m8.45 4.74c0 3.54-.19 6.06-.55 7.56-1.48 6-5.54 9-12.19 9-3.06 0-6.268-.62-9.609-1.87l1.23-4.97c2.184 1.19 4.364 1.79 6.549 1.79 2.52 0 4.3-.85 5.35-2.55.51-.82.77-2.14.77-3.95v-1.91c-1.17 1.24-2.22 2.11-3.17 2.61s-2.07.74-3.38.74c-2.919 0-5.212-1.16-6.882-3.48-1.473-2.1-2.21-4.66-2.21-7.69 0-3.17.893-5.81 2.679-7.92 1.781-2.11 4.02-3.17 6.713-3.17 2.66 0 4.74 1.12 6.25 3.36v-2.84h8.45z"/><path d="m133.14 156.81v-.81c0-2.83-.97-4.25-2.93-4.25-1.98 0-2.97 1.68-2.97 5.06zm7.18 1.7c0 .79-.001 1.41-.04 1.86h-13.04c.03 1.65.52 2.9 1.47 3.76.94.87 2.21 1.3 3.8 1.3 1.64 0 3.48-.5 5.52-1.49l2.25 4.25c-3.26 1.53-6.43 2.29-9.51 2.29-3.32 0-6.08-.93-8.28-2.8-2.75-2.32-4.13-5.24-4.13-8.75 0-3.34 1.25-6.03 3.74-8.07 2.15-1.76 4.87-2.64 8.15-2.64 3.77 0 6.5 1.25 8.2 3.74 1.25 1.82 1.87 4 1.87 6.55"/><path d="m159.8 143.59c-1.11.39-2.21.58-3.31.58-1.69 0-2.73-.57-3.09-1.73-.11-.36-.17-.94-.17-1.76v-4.45h-1.32v-1.72h1.32v-2.28l3.74-.55v2.83h2.51v1.72h-2.51v3.32c0 1.73.43 2.59 1.31 2.59.34 0 .7-.08 1.06-.25z"/><path d="m170.86 134.77l-4.06 9.18h-2.74l-3.55-9.18 3.8-.45 1.66 5.48 1.93-5.48z"/></g></g></svg>