<?xml version="1.0" encoding="UTF-8" standalone="no"?>
<!-- Created with Inkscape (http://www.inkscape.org/) -->
<svg xmlns:rdf="http://www.w3.org/1999/02/22-rdf-syntax-ns#" xmlns="http://www.w3.org/2000/svg" height="161.54" width="600" version="1.1" xmlns:cc="http://creativecommons.org/ns#" xmlns:xlink="http://www.w3.org/1999/xlink" xmlns:dc="http://purl.org/dc/elements/1.1/">
 <defs></defs>
 <metadata>
  <rdf:RDF>
   <cc:Work rdf:about="">
    <dc:format>image/svg+xml</dc:format>
    <dc:type rdf:resource="http://purl.org/dc/dcmitype/StillImage"/>
    <dc:title/>
   </cc:Work>
  </rdf:RDF>
 </metadata>
 <g fill-rule="nonzero" transform="translate(2.0453186e-5,5.5066231e-6)">
  <path fill="#ff8b2a" d="m0,3.1141,0,158.42,219.49,0,0-158.42z"/>
  <path fill="#ff8b2a" d="m341.91,0c-0.72832,0-1.4797,0.21791-2.0938,0.375l-91.906,28.438c-2.7847,0.78543-4.4098,2.7136-4.2812,5.8125v21.094c-0.12852,2.9846,1.5251,4.8851,4.2812,5.6562l91.906,28.531c0.67118,0.1428,1.3512,0.28125,2.0938,0.28125,1.1281,0,2.1922-0.30026,2.9062-1,0.7426-0.68546,1.108-1.7415,1.0938-2.8125v-13.938c-0.0286-2.4277-1.8821-4.536-4.2812-5.25l-14.375-4.0938v-34.719l14.375-3.9062c2.4277-0.69975,4.2527-2.8474,4.2812-5.375v-15.188c0-1.0851-0.36-2.0839-1.11-2.8122-0.73-0.6998-1.79-1.1081-2.9-1.0938zm-34.188,34,0,23.531-41.281-12l41.28-11.531z"/>
  <path fill="#ff8b2a" d="m424.32,0.0003652c-2.2563,0-5.2251,0.60532-7.1815,1.0909l-42.634,15.908c-3.1846,0.82827-5.727,3.9827-5.727,7.1815v17.363c0,3.4702,2.7626,6.1941,7.8178,4.9089l31.271-11.818v121.09c0,3.1988,2.6334,5.8179,5.8179,5.8179h22.999c3.2131,0,5.9088-2.6334,5.9088-5.8179v-149.99c0-3.1845-2.4658-5.727-5.6361-5.727z"/>
  <path fill="#ff8b2a" d="m328.35,95.087c-2.5276,0.01428-4.5453,2.0033-4.5453,4.5453v38.453h-75.542c-2.5419,0.0142-4.6362,1.9891-4.6362,4.5453v14.363c0,2.5419,2.08,4.5453,4.6362,4.5453h93.087c2.5276,0,4.531-1.989,4.5452-4.5453v-57.361c-0.0142-2.5276-2.0033-4.531-4.5452-4.5453z"/>
  <path d="m132.43,42.18c-19.375,0-28.726,8.4227-28.726,21.817,0,12.105,6.5105,19.248,17.908,22.181l8.7269,2.2726c7.1703,1.8772,10.181,3.9877,10.181,8.4542,0,6.5827-4.4618,7.7269-15.272,7.7269-4.9346,0-13.425-0.67501-16.363-0.90904-3.0524-0.23404-3.9004,0.14785-4.3634,2.7272l-1.4545,8.9996c-0.22905,1.7677,0.64808,2.4931,2.1817,2.7272,3.3959,0.47303,11.926,1.0909,20.272,1.0909,18.678,0,32.271-6.1615,32.271-23.544,0-10.218-4.4025-17.824-19.908-21.817l-8.7269-2.2726c-5.8806-1.5187-8.5451-3.3849-8.5451-7.7269,0-6.1097,5.5919-7.2724,11-7.2724,7.2748,0,14.703,0.57914,17.636,0.81815,3.0573,0.23402,3.9004-0.14286,4.3634-2.7272l1.3636-8.8178c0.23402-1.7627-0.57211-2.4022-2.0908-2.6362-3.41-0.476-10.94-1.094-20.45-1.094zm-100.7,0.818c-2.3403,0-3.0908,0.82644-3.0908,3.1817v69.179c0,2.3453,0.75046,3.1817,3.0908,3.1817h10.818c2.3503,0,2.7573-0.84897,2.9999-3.1817v-58.361h11.181c7.0508,0,10.454,2.5128,10.454,9.0905,0,5.9902-2.6596,7.9154-5.3634,9.0905-3.4059,1.4042-4.5805-0.09806-5.6361,4.3634l-1.1818,4.9089c-0.35354,1.4042-0.45453,2.0773-0.45453,2.5453,0,1.1801,0.26927,2.1411,1.0909,3.5453l13.999,25.181c1.1801,1.9967,2.1815,2.818,4.9998,2.818h12.727c1.6382,0,3.6953-1.062,1.8181-3.9998l-17.181-28.453c5.751-3.639,12.181-8.788,12.181-20.18,0-14.684-8.1766-22.908-26.272-22.908zm145.22,0c-2.3503,0-3.0908,0.82644-3.0908,3.1817v69.179c0,2.3453,0.74051,3.1817,3.0908,3.1817h10.818c2.3453,0,2.9999-0.83639,2.9999-3.1817v-69.179c0-2.3552-0.65459-3.1817-2.9999-3.1817z" fill="#FFF"/>
  <path fill="#666" d="m488.11,40.762c-0.79979,0-1.463,0.6266-1.463,1.4264v73.843c0,0.79978,0.66317,1.463,1.463,1.463h18.762c0.79978,0,1.4264-0.66318,1.4264-1.463v-23.919-0.62176c0-0.79977,0.66318-1.463,1.463-1.463h18.762c0.79978,0,1.4264,0.66319,1.4264,1.463v0.62176,23.919c0,0.79978,0.66318,1.4627,1.463,1.4627h18.762c0.79978,0,1.463-0.66289,1.463-1.4627v-53.499c0-0.76232,0.47223-1.1454,1.5366-1.166l13.786-0.04536s11.757-0.77213,11.894,18.181c0.1373,18.953-8.1384,18.141-17.061,18.337-1.4174,0.03114-1.7169,0.38065-1.72,1.4846l-0.0462,16.52c-0.004,1.0476,0.68503,1.6517,1.9484,1.6504,28.867-0.0284,37.938-13.696,38.025-38.992,0.0864-25.296-11.716-37.74-35.781-37.74h-32.807c-0.79978,0-1.463,0.62661-1.463,1.4264v23.371,1.463c-0.00006,0.79978-0.62665,1.4264-1.4264,1.4264h-18.762c-0.79978,0-1.463-0.6266-1.463-1.4264v-1.463-23.371c0-0.79978-0.6266-1.4264-1.4264-1.4264z"/>
 </g>
</svg>
