<svg xmlns="http://www.w3.org/2000/svg" viewBox="0 0 600 160.61"><g transform="translate(-49.783-6.625)"><g fill="#fc0"><path d="m388.31 6.625c-.721 0-1.455.219-2.063.375l-91.06 28.16c-2.757.778-4.377 2.651-4.25 5.719v20.938c-.127 2.955 1.522 4.768 4.25 5.531l91.06 28.28c.664.141 1.327.281 2.063.281 1.117 0 2.106-.37 2.813-1.063.735-.679 1.139-1.659 1.125-2.719v-13.781c-.027-2.403-1.844-4.543-4.219-5.25l-14.281-4.063v-34.34l14.281-3.844c2.403-.693 4.19-2.873 4.219-5.375v-15c.015-1.074-.39-2.091-1.125-2.813-.721-.693-1.71-1.045-2.813-1.031zm-33.906 33.594v23.375l-40.84-11.906 40.85-11.469z"/><path d="m461.62 6.803c-14.806 0-29.68 2.77-42.25 7.698-2.675 1.049-6.29 2.781-6.29 7.416v15.584c0 4.901 3.228 6.458 7.228 5.351 9.979-2.775 23.705-7.05 37.739-6.665 20.838.565 23.563 13.09 23.563 19.808 0 11.603-3.557 17.1-13.05 23.751-9.492 6.651-23.548 16.06-35.579 26.1-15.849 13.223-22.437 25.362-22.437 40.08v15.302c0 3.321 2.716 6.01 6.01 6.01h89.28c3.307 0 5.278-2.763 5.914-6.01l3.38-17.18c.637-3.245-2.622-6.01-5.914-6.01h-61.865c.153-5.133 4.966-12.811 20.747-23.563 18.217-12.412 24.471-16.87 33.702-25.722 7.431-7.126 13.518-24.437 13.518-35.11 0-14.243-5.885-26.07-13.8-33.33-8.34-7.63-22.12-13.509-39.91-13.509z"/><path d="m49.783 9.713v156.77h217.33v-156.77h-217.33"/><path d="m374.88 100.77c-2.502.014-4.506 1.99-4.506 4.506v38.02h-74.82c-2.516.014-4.6 1.976-4.6 4.506v14.175c0 2.516 2.069 4.506 4.6 4.506h92.19c2.502 0 4.492-1.976 4.506-4.506v-56.702c-.015-2.502-1.99-4.492-4.506-4.506h-12.861"/></g><g fill="#fff"><path d="m180.9 48.36c-19.18 0-28.437 8.338-28.437 21.598 0 11.983 6.445 19.05 17.728 21.958l8.639 2.25c7.098 1.858 10.08 3.948 10.08 8.369 0 6.516-4.417 7.649-15.12 7.649-4.885 0-13.29-.668-16.198-.9-3.02-.232-3.861.146-4.32 2.7l-1.44 8.909c-.227 1.75.642 2.468 2.16 2.7 3.362.468 11.807 1.08 20.07 1.08 18.49 0 31.947-6.1 31.947-23.308 0-10.115-4.358-17.645-19.708-21.598l-8.639-2.25c-5.822-1.503-8.459-3.351-8.459-7.649 0-6.05 5.536-7.199 10.889-7.199 7.202 0 14.555.573 17.458.81 3.03.232 3.861-.141 4.32-2.7l1.35-8.729c.232-1.745-.566-2.378-2.07-2.61-3.377-.468-10.828-1.08-20.248-1.08"/><path d="m81.21 49.17c-2.317 0-3.06.818-3.06 3.15v68.48c0 2.322.743 3.15 3.06 3.15h10.709c2.327 0 2.73-.84 2.97-3.15v-57.774h11.07c6.98 0 10.349 2.487 10.349 8.999 0 5.93-2.633 7.836-5.309 8.999-3.372 1.39-4.534-.097-5.579 4.32l-1.17 4.859c-.35 1.39-.45 2.056-.45 2.52 0 1.168.267 2.12 1.08 3.51l13.859 24.928c1.168 1.977 2.159 2.79 4.95 2.79h12.599c1.622 0 3.658-1.051 1.8-3.96l-17.01-28.16c5.693-3.603 12.06-8.7 12.06-19.978 0-14.537-8.094-22.678-26.01-22.678z"/><path d="m224.98 49.17c-2.327 0-3.06.818-3.06 3.15v68.48c0 2.322.733 3.15 3.06 3.15h10.709c2.322 0 2.97-.828 2.97-3.15v-68.48c0-2.332-.648-3.15-2.97-3.15z"/></g><path fill="#666" d="m539.02 46.956c-.792 0-1.448.62-1.448 1.412v73.1c0 .792.657 1.448 1.448 1.448h18.574c.792 0 1.412-.657 1.412-1.448v-23.679-.616c0-.792.657-1.448 1.448-1.448h18.574c.792 0 1.412.657 1.412 1.448v.616 23.679c0 .792.657 1.448 1.448 1.448h18.574c.792 0 1.448-.656 1.448-1.448v-52.961c0-.755.467-1.134 1.521-1.154l13.647-.045s11.639-.764 11.775 17.999c.136 18.763-8.06 17.959-16.89 18.15-1.403.031-1.7.377-1.703 1.47l-.046 16.354c-.003 1.037.678 1.635 1.929 1.634 28.577-.028 37.557-13.559 37.642-38.6.086-25.04-11.598-37.36-35.421-37.36h-32.477c-.792 0-1.448.62-1.448 1.412v23.14 1.448c0 .792-.62 1.412-1.412 1.412h-18.574c-.792 0-1.448-.62-1.448-1.412v-1.448-23.14c0-.792-.62-1.412-1.412-1.412z"/></g></svg>