<?xml version="1.0" encoding="UTF-8" standalone="no"?>
<svg xmlns:rdf="http://www.w3.org/1999/02/22-rdf-syntax-ns#" xmlns="http://www.w3.org/2000/svg" height="600" width="600" version="1.1" xmlns:cc="http://creativecommons.org/ns#" xmlns:xlink="http://www.w3.org/1999/xlink" viewBox="0 0 158.75 158.75" xmlns:dc="http://purl.org/dc/elements/1.1/">
 <g fill-rule="evenodd" transform="translate(-36.051 -85.058)">
  <path d="m194.8 243.81h-158.75l0.001-158.75 158.75-0.002v158.75z" fill="#7ac143"/>
  <path d="m113.11 141.09c0.46 0 0.87 0 1.32 0.01 3.53 0.14 6.69 1.61 9.01 3.94 2.42 2.45 3.91 5.81 3.91 9.54l0.02 0.01-0.02-0.01c-0.01 3.74-1.48 7.11-3.91 9.55-1.49 1.5-3.32 2.64-5.4 3.31l15.26 20.35h-28.01l-13.595-19.7h-7.778v19.71h-26.62l-0.003-46.71h16.465 39.351zm-19.697 21.29c1.968-0.12 3.748-0.95 5.072-2.28 1.404-1.42 2.275-3.36 2.275-5.51 0-2.14-0.866-4.1-2.28-5.51-1.321-1.33-3.102-2.18-5.07-2.29h-0.416-9.077v15.59h9.496z"/>
  <path d="m147.04 146.79h-22.31v-5.7l70.06-0.02v5.73l-21.16-0.01v41.01h-26.59v-41.01z"/>
 </g>
</svg>
