<svg xmlns="http://www.w3.org/2000/svg" height="600" width="600" viewBox="0 0 158.75 158.75"><g fill-rule="evenodd" transform="translate(-36.05-85.06)"><path d="m194.8 243.81h-158.75v-158.75l158.75-.002v158.75z" fill="#7ac143"/><path d="m113.11 141.09c.46 0 .87 0 1.32.001 3.53.14 6.69 1.61 9.01 3.94 2.42 2.45 3.91 5.81 3.91 9.54l.02.001-.02-.001c-.001 3.74-1.48 7.11-3.91 9.55-1.49 1.5-3.32 2.64-5.4 3.31l15.26 20.35h-28.01l-13.595-19.7h-7.778v19.71h-26.62l-.003-46.71h16.465 39.35m-19.697 21.29c1.968-.12 3.748-.95 5.072-2.28 1.404-1.42 2.275-3.36 2.275-5.51 0-2.14-.866-4.1-2.28-5.51-1.321-1.33-3.102-2.18-5.07-2.29h-.416-9.08v15.59h9.496"/><path d="m147.04 146.79h-22.31v-5.7l70.06-.02v5.73l-21.16-.001v41.01h-26.59v-41.01"/></g></svg>