<svg xmlns="http://www.w3.org/2000/svg" height="793.19" width="600" viewBox="0 0 158.75 209.86585"><g transform="translate(-16.454 9.873)"><path d="m175.2 148.87h-158.75v-158.74h158.75z" fill-rule="evenodd" fill="#7ac143"/><g><g fill-rule="evenodd"><path d="m93.52 46.15c.452 0 .87.001 1.32.02 3.521.126 6.691 1.61 9.01 3.933 2.42 2.448 3.92 5.809 3.92 9.546h.001-.001c0 3.731-1.5 7.113-3.92 9.54-1.5 1.508-3.34 2.644-5.4 3.309l15.26 20.348h-28.02l-13.59-19.693h-7.781v19.706h-26.62v-46.709h16.464zm-19.697 21.287c1.965-.104 3.755-.95 5.075-2.277 1.407-1.415 2.274-3.362 2.274-5.511h-.007.007c0-2.142-.867-4.092-2.274-5.51-1.32-1.323-3.11-2.176-5.075-2.281h-9.501v15.579z"/><path d="m127.45 51.864h-22.31v-5.709l70.06-.024v5.74l-21.15-.007v40.998h-26.6z"/></g><g><path d="m23.32 185.24h2.268c1.403 0 2.723-1.21 2.723-2.57v-10.01h-2.222c-1.49 0-2.769 1.13-2.769 2.49zm-6.865 11.29c2.264-.49 2.985-1.37 2.985-3.82v-17.44c0-1.74.683-3.18 2-4.35 1.365-1.17 3.075-1.73 5.078-1.73h5.716v13.44c0 1.74-.687 3.17-2.048 4.3-1.362 1.18-3.072 1.74-5.082 1.74h-1.787v3.93c0 2.11-.512 3.77-1.532 4.98-1.244 1.4-2.992 2.23-5.333 2.41z"/><path d="m45.03 181.79v-9.13h-2.218c-1.529 0-2.773 1.13-2.773 2.49v4.12c0 1.4 1.244 2.52 2.773 2.52zm3.967-12.6v12.6h.255v3.45h-.255v1.54c0 1.58-.512 2.91-1.536 4.01-.553.53-1.111.94-1.713 1.21-.888.4-2.295.6-4.173.6h-5.465v-3.48h6.618c1.059 0 1.749-.33 2.086-1.01.126-.27.216-.72.216-1.37v-1.5h-1.797c-2.041 0-3.751-.56-5.116-1.71-1.327-1.13-2.01-2.56-2.01-4.3v-4.04c0-1.7.68-3.1 2.01-4.27 1.365-1.17 3.075-1.73 5.116-1.73z"/><path d="m58.04 189.12h3.887v3.48h-3.887zm-6.099 0h3.884v3.48h-3.884zm9.986-7.33h.254v3.44h-13.179v-3.44h9.04v-12.6h3.887z"/><path d="m61.918 181.79h6.27v-20.91h3.887v24.36h-10.157z"/><path d="m79.83 185.23h-3.922v-24.35h3.922z"/><path d="m95.79 181.79v3.45h-4.187v-24.36h3.932v20.91z"/><path d="m104.57 189.12h3.89v3.48h-3.89zm-6.103 0h3.893v3.48h-3.893zm9.983-7.33h.26v3.44h-13.179v-3.44h9.04v-12.6h3.88z"/><path d="m125.6 181.79h6.91v-9.58h3.88v9.58h6.91v-12.6h3.89v16.05h-38.74v-3.45h13.27v-6.53h3.88z"/><path d="m159.98 181.79v-9.13h-2.22c-1.54 0-2.78 1.13-2.78 2.49v4.12c0 1.4 1.24 2.52 2.78 2.52zm3.97-12.6v17.59c0 1.58-.52 2.91-1.54 4.01-.56.53-1.12.94-1.71 1.21-.89.4-2.3.6-4.18.6h-5.46v-3.48h6.61c1.07 0 1.75-.33 2.09-1.01.13-.27.22-.72.22-1.37v-1.5h-1.8c-2.05 0-3.75-.56-5.12-1.71-1.31-1.13-2-2.56-2-4.3v-4.04c0-1.7.69-3.1 2-4.27 1.37-1.17 3.07-1.73 5.12-1.73z"/><path d="m175.2 169.19v16.04c0 4.69-2.69 7.37-7.42 7.37h-.85v-3.48h.17c1.1 0 2-.18 2.73-.52.98-.5 1.49-1.55 1.49-3.25v-16.16z"/></g></g></g></svg>