<svg xmlns="http://www.w3.org/2000/svg" xmlns:xlink="http://www.w3.org/1999/xlink" height="513.55" width="600" viewBox="0 0 158.75 135.87799"><defs><linearGradient id="1" gradientUnits="userSpaceOnUse" x1="-18.429" x2="2.896" y1="61.766" y2="65.81"><stop stop-color="#d1d3d4"/><stop stop-color="#b1b3b6" offset="1"/></linearGradient><linearGradient id="2" gradientUnits="userSpaceOnUse" x1="-19.549" x2="1.76" y1="67.7" y2="71.74" xlink:href="#1"/><linearGradient id="0" gradientUnits="userSpaceOnUse" x1="-36.681" x2="13.693" y1="49.28" y2="84.948"><stop stop-color="#478e41"/><stop stop-color="#416932" offset="1"/></linearGradient><radialGradient id="3" gradientUnits="userSpaceOnUse" cy="-2.16" cx="-82.34" r="82.4"><stop stop-color="#6c6a69"/><stop stop-color="#010101" offset="1"/></radialGradient><radialGradient id="4" gradientUnits="userSpaceOnUse" cy="-2.16" cx="-82.34" r="82.4"><stop stop-color="#bfdda0"/><stop stop-color="#7cc143" offset="1"/></radialGradient></defs><g transform="translate(144.62 12.372)"><g><path d="m-144.62 2.816l103.96-15.188v135.88l-103.96-15.13z" fill="#7bc143"/><path d="m-108.61 52.05c-.06.369-.16.727-.28 1.067s-.27.663-.44.965-.37.584-.59.84c-.2.24-.42.456-.65.649s-.48.36-.74.5c-.25.135-.51.242-.78.324.13-.04.26-.084.39-.137-.13.053-.26.097-.39.137-.001.002-.02.007-.03.009-.03.009-.06.013-.09.02-.06.016-.12.036-.19.051.07-.015.13-.035.19-.051-.25.069-.51.114-.78.131l-5.64-.042v-11.07l5.39-.112.25-.006c.3.013.59.06.87.137.28.078.55.187.81.323.26.137.51.302.74.491s.45.404.65.64c.22.255.42.535.59.835s.32.62.44.958c.12.336.22.691.28 1.058.07.367.1.749.1 1.138 0 .391-.03.775-.1 1.144m15.412-7.315c-.064-.101-.131-.201-.2-.298-.069-.098-.139-.194-.211-.287-.071-.095-.144-.187-.218-.278-.075-.089-.15-.178-.226-.266-.384-.429-.8-.818-1.247-1.158-.446-.34-.92-.632-1.418-.872-.497-.239-1.017-.426-1.553-.553-.536-.129-1.089-.198-1.654-.206h-.175-.17c-.06.002-.12.002-.17.004-.06 0-.12.002-.18.004l-23.85.749-9.12.287v31.893l14.96.803v-13.995l4.6.082 8.31 14.601 18.289.983-10.156-15.779c.334-.118.662-.26.978-.423.318-.164.625-.348.922-.553.296-.206.581-.431.854-.675.275-.243.535-.507.78-.785.4-.456.764-.956 1.084-1.498.32-.54.596-1.12.821-1.731.228-.613.404-1.255.524-1.924.12-.667.182-1.359.182-2.07 0-.551-.04-1.091-.113-1.617-.073-.527-.182-1.04-.322-1.534-.141-.495-.314-.973-.516-1.429s-.433-.893-.691-1.304l15.239-.321v32.17l19.877 1.071v-33.66l17.314-.365v-4.867l-52.54 1.654v4.147" fill="#010101"/><path d="m14.13 8.217v94.7l-54.781 20.59v-135.88z" fill="#478e41"/></g><g fill="#cececd"><path d="m-13.06 68.51c-.029.073-.058.144-.089.211-.029.069-.058.136-.089.2-.031.065-.06.127-.091.187s-.062.118-.093.175c.031-.057.062-.115.093-.175s.06-.122.091-.187c.031-.064.06-.131.089-.2.031-.067.06-.138.089-.211" id="5"/><use xlink:href="#5"/><path d="m-4.229 68.69v-30.21l-6.742-.989v14.221c0 2.123-.065 4.121-.189 5.965-.121 1.845-.3 3.54-.52 5.05-.22 1.511-.483 2.834-.778 3.938-.294 1.107-.62 1.993-.963 2.618l9.192-.587m9.647-.775l1.978-.123v15.437l-9.354 1.683v-11.601l-2.271.222-14.836 1.451v13.01l-12.06 2.168v-19.951l3.765-.236c1.084-.802 1.973-1.893 2.7-3.191.72-1.287 1.278-2.784 1.705-4.415.426-1.623.722-3.383.909-5.205.189-1.818.271-3.703.271-5.579v-20.994l10.801 1.946 6.742 1.212 9.647 1.735z"/></g><path fill="url(#0)" d="m-40.655-12.364v135.87l54.781-20.59v-94.7l-54.759-20.581z"/><g fill="url(#2)"><path d="m-13.147 68.72c-.029.069-.06.135-.091.2-.029.064-.06.127-.091.186-.031.06-.062.12-.093.174.031-.054.062-.114.093-.174.031-.059.062-.122.091-.186.031-.065.062-.131.091-.2s.058-.14.089-.211c-.031.071-.06.142-.089.211"/><path d="m-13.427 68.5h.376v.781h-.376z"/></g><path fill="url(#1)" d="m-21.774 51.584c0 1.876-.082 3.761-.269 5.581-.189 1.82-.484 3.582-.909 5.204-.426 1.63-.985 3.128-1.705 4.416-.728 1.298-1.617 2.387-2.7 3.189l-3.764.238v19.951l12.06-2.17v-13.01l14.836-1.451 2.27-.22v11.6l9.354-1.682v-15.437l-1.978.123v-32.434l-9.647-1.737-6.742-1.212-10.803-1.944zm9.316 15.08c.294-1.102.558-2.427.778-3.938.22-1.505.396-3.198.52-5.05.124-1.844.189-3.842.189-5.963v-14.223l6.742.991v30.21l-9.193.587c.344-.624.669-1.509.964-2.618"/><path d="m-144.62 2.816s.04-.005.12-.018l-.12.018m.12-.018s.001-.002.02-.002l-.02.002m.02-.002v-.002.002m77.3-11.292c2.276-.333 3.945-.576 4.822-.705l-4.822.705" fill="#fff"/><path fill="url(#4)" d="m-67.18-8.497c-17.962 2.623-73.77 10.776-77.27 11.288-.001 0-.02.002-.03.004l-.02.002-.12.018v105.56l21.97 3.2s15.95-13.13 31.442-35.559l-14.512-.78-8.31-14.601-4.6-.082v13.997l-14.96-.805v-31.891l9.12-.287 23.85-.75c.06-.0001.12-.003.18-.003.06-.002.11-.004.17-.004h.17.176c.563.007 1.116.077 1.654.206.537.127 1.055.312 1.553.552.496.24.971.531 1.416.871.447.342.864.731 1.249 1.16.075.086.151.175.224.266.074.09.147.181.22.276.071.094.142.191.211.289.069.096.134.196.2.298v-4.147l21.333-.673c5.7-14.713 9.505-31.23 9.505-49.11zm-25.902 53.4c.257.411.489.845.689 1.304.204.456.375.932.517 1.429.14.494.249 1.01.321 1.532.075.528.113 1.067.113 1.618 0 .709-.062 1.402-.182 2.071-.118.667-.296 1.311-.523 1.924-.226.611-.502 1.191-.82 1.731-.322.541-.686 1.041-1.084 1.496-.247.28-.507.542-.782.785-.27.246-.556.471-.852.677-.297.203-.604.389-.922.552-.318.164-.645.306-.98.422l8.25 12.818c4-6.01 7.927-12.634 11.493-19.812v-8.869zm-20.16.424l-5.39.114v11.07l5.64.04c.25-.015.5-.055.74-.117.001-.003.03-.009.04-.014.03-.006.06-.009.09-.018.001-.002.02-.008.03-.011.02-.008.04-.015.07-.022-.03.007-.05.014-.07.022.03-.009.06-.02.1-.031.23-.077.46-.173.68-.291.26-.142.51-.307.74-.502.24-.191.45-.409.65-.647.22-.256.42-.538.59-.842.17-.302.32-.623.44-.965.12-.34.22-.697.28-1.066.07-.371.1-.752.1-1.143s-.03-.769-.1-1.138c-.06-.368-.16-.722-.28-1.059-.12-.338-.27-.658-.44-.959-.17-.299-.37-.579-.59-.835-.2-.234-.41-.449-.65-.64-.23-.187-.48-.353-.74-.491-.26-.134-.53-.245-.81-.322-.28-.078-.57-.123-.87-.136zm1 11.11c.001-.004.02-.008.03-.011-.001.003-.02.007-.03.011m-.16.038c.04-.008.08-.02.12-.031-.04.011-.08.023-.12.031"/><path fill="url(#3)" d="m-93.2 40.586v4.147c-.066-.102-.131-.202-.2-.298-.069-.098-.14-.195-.211-.289-.073-.095-.146-.186-.22-.276-.073-.091-.149-.18-.224-.266-.385-.429-.802-.818-1.249-1.16-.445-.34-.92-.631-1.416-.871-.498-.24-1.016-.425-1.553-.552-.538-.129-1.091-.199-1.654-.206h-.176-.17c-.06 0-.11.002-.17.004-.06 0-.12.002-.18.003l-23.85.75-9.12.287v31.891l14.96.805v-13.997l4.6.082 8.31 14.601 14.512.78c.625-.904 1.249-1.824 1.87-2.758l-8.25-12.818c.335-.116.662-.258.98-.422.318-.163.625-.349.922-.552.296-.206.582-.431.852-.677.275-.243.535-.505.782-.785.398-.455.762-.955 1.084-1.496.318-.54.594-1.12.82-1.731.227-.613.405-1.257.523-1.924.12-.669.182-1.362.182-2.071 0-.551-.038-1.09-.113-1.618-.072-.525-.181-1.038-.321-1.532-.142-.497-.313-.973-.517-1.429-.2-.459-.432-.893-.689-1.304l15.238-.322v8.869c2.145-4.318 4.159-8.836 5.981-13.538zm-25.433 15.925v-11.07l5.39-.114.25-.004c.3.013.59.058.87.136.28.077.55.188.81.322.26.138.51.304.74.491.24.191.45.406.65.64.22.256.42.536.59.835.17.301.32.621.44.959.12.337.22.691.28 1.059.07.369.1.747.1 1.138s-.03.772-.1 1.143c-.06.369-.16.726-.28 1.066-.12.342-.27.663-.44.965-.17.304-.37.586-.59.842-.2.238-.41.456-.65.647-.23.195-.48.36-.74.502-.22.118-.45.214-.68.291-.04.011-.07.022-.1.031-.001.003-.02.009-.03.011-.03.009-.06.012-.09.018-.001.005-.03.011-.04.014-.24.062-.49.102-.74.117z"/></g></svg>