<svg xmlns="http://www.w3.org/2000/svg" viewBox="0 0 712 180"><g transform="matrix(20.1745 0 0 20.1745-6470.78-11577.42)"><g fill="#003b79"><path d="m336.1 581.68c-1.302 0-2.397-.931-2.594-2.246h2.465c.271 0 .866.057.866.057v-1.091c0 0-.583.043-.908.043h-2.423c.244-1.291 1.306-2.184 2.594-2.184.68 0 1.517.313 1.517.313l.015-1.148c0 0-.595-.225-1.531-.225-2.167 0-4.064 1.657-4.064 3.766 0 2.282 1.897 3.824 4.064 3.824 1.019 0 1.627-.271 1.627-.271l-.028-1.188c0 0-.752.35-1.6.35"/><path d="m328.73 582.76c0 0 .082-.551.082-1.033v-5.237h-.354c-.481 0-1.229 0-1.78.055l-.047-1.218h5.751l-.027 1.218c-.569-.055-1.302-.055-1.799-.055h-.438v5.237c0 .482.097 1.033.097 1.033h-1.485"/></g><path d="m337.64 574.72c-.422-.119-.977-.2-1.441-.2-1.263 0-2.351.382-3.259 1.19l.014-.895c.963-.654 2.053-.948 3.245-.948.522 0 .976.072 1.455.196l-.014.657" fill="#008f4f"/><path d="m323.21 578.93h-1.073v-2.703c0 0 .521-.015 1.145-.015.093 0 .184.008.266.012.996.082 1.409.626 1.409 1.279 0 .733-.58 1.287-1.409 1.406-.109.015-.223.021-.338.021m2.937 2.805l-1.999-1.924c1.229-.12 2.264-1.023 2.264-2.196 0-1.249-.719-2.354-2.864-2.442-.09-.005-.184-.008-.279-.008-1.485 0-2.504.071-2.504.071 0 0 .067.733.067 1.102v5.397c0 .498-.097 1.019-.097 1.019h1.499c0 0-.097-.521-.097-1.115v-2.196l1.41 1.474.712.737c.439.48 1.205 1.101 1.205 1.101h1.981c0-.002-.886-.622-1.298-1.02" fill="#003b79"/><g fill="#008f4f"><path d="m345.73 581.98v.767h-4.795l3.468-4.098c.295-.354.502-.757.502-1.238 0-.825-.669-1.435-1.475-1.435-.895 0-1.474.657-1.493 1.522h-.825c.029-1.297.981-2.289 2.29-2.289 1.236 0 2.328.904 2.328 2.191 0 .599-.178 1.121-.562 1.563l-2.563 3.02h3.125"/><path d="m348.14 582.74h-.786v-3.892h-.433v-.728h.433v-1.191c0-.383 0-.864.206-1.198.256-.413.718-.58 1.189-.58.187 0 .373.04.56.099v.795c-.177-.058-.334-.107-.53-.107-.639 0-.639.451-.639 1.268v.916h1.169v.728h-1.169v3.89"/><path d="m350.76 578.62h.021c.245-.383.638-.629 1.11-.629.541 0 1.031.284 1.276.767.275-.511.826-.767 1.386-.767 1.181 0 1.475.963 1.475 1.936v2.811h-.786v-2.683c0-.6-.039-1.337-.845-1.337-.904 0-1 .875-1 1.573v2.446h-.785v-2.623c0-.57-.069-1.396-.826-1.396-.924 0-1.022.934-1.022 1.631v2.389h-.785v-4.618h.785v.5"/></g></g></svg>