<svg xmlns="http://www.w3.org/2000/svg" width="717.17" height="717.17" viewBox="0 0 569.98084 3317.4758"><g transform="translate(380.85)"><path d="m810.53256 422.86685a358.5864 358.5864 0 1 1 -717.17279 0 358.5864 358.5864 0 1 1 717.17279 0" transform="matrix(4.62577 0 0 4.62577-2186.46-297.35)" fill="#523091"/><g transform="translate(-431.86-226.24)" fill="#fff"><g transform="translate(1176.46-2728.57)"><path d="m-360.01 4341.42c-91.13 0-167.66-65.01-181.42-157.06h172.36c19.03 0 60.52 3.932 60.52 3.932v-76.32c0 0-40.722 3.02-63.54 3.02h-169.35c16.92-90.29 91.34-152.64 181.42-152.64 47.602 0 106.09 21.905 106.09 21.905l.983-80.46c0 0-41.494-15.727-107-15.727-151.58 0-284.28 115.78-284.28 263.5 0 159.52 132.7 267.43 284.28 267.43 71.33 0 113.74-18.957 113.74-18.957l-1.896-83.2c-.07.07-52.587 24.573-111.91 24.573"/><path d="m-875.98 4417.11c0 0 5.757-38.545 5.757-72.32v-366.35h-24.784c-33.771 0-86.08 0-124.62 3.721l-3.23-85.02h402.37l-2.036 85.02c-39.739-3.721-91.06-3.721-125.89-3.721h-30.471v366.35c0 33.771 6.81 72.32 6.81 72.32h-103.91"/><path d="m-252.17 3854.52c-29.488-8.215-68.24-14.04-100.75-14.04-88.39 0-164.43 26.82-228.04 83.41l1.053-62.63c67.26-45.706 143.65-66.21 226.99-66.21 36.509 0 68.24 4.915 101.73 13.691l-.983 45.777"/><path d="m-1261.58 4149.54h-74.984v-189.14c0 0 36.509-1.053 80.04-1.053 6.53 0 12.848.562 18.535.843 69.859 5.757 98.64 43.74 98.64 89.52 0 51.25-40.581 90.08-98.64 98.36-7.583.983-15.586 1.474-23.59 1.474m205.43 196.17l-139.86-134.66c86.08-8.144 158.39-71.47 158.39-153.62 0-87.34-50.34-164.64-200.45-170.96-6.249-.281-12.778-.491-19.378-.491-103.91 0-175.24 4.985-175.24 4.985 0 0 4.774 51.32 4.774 77.09v377.59c0 34.754-6.81 71.4-6.81 71.4h104.82c0 0-6.74-36.579-6.74-78.07v-153.62l98.5 103.07 49.779 51.53c30.822 33.49 84.32 77.09 84.32 77.09h138.73c0 .07-61.995-43.6-90.85-71.33"/></g><g transform="translate(-633.93-1922.29)"><path d="m-37.4 3919.18v-8.425c0-16.15-1.194-27.382-3.44-33.56-2.176-6.178-6.108-11.09-11.374-14.744-3.932-2.177-10.11-3.862-18.535-4.985h-1.264c-7.372 0-12.146-1.053-14.533-3.23-2.387-2.106-3.581-5.406-3.581-9.899 0-5.617 1.474-9.829 4.493-12.497 3.159-2.668 11.02-5.125 23.661-7.372 6.178-.562 12.708-1.615 19.518-3.159 6.881-1.545 14.04-3.721 21.344-6.53 12.287-4.283 25.837-10.391 40.441-18.606 14.533-8.07 23.871-12.287 27.803-12.287 3.721 0 6.529 1.474 8.566 4.283 2.176 2.878 3.159 6.74 3.159 11.795 0 .281-.843 15.867-2.387 46.76-1.685 30.822-2.528 61.64-2.528 92.19v374.99c0 22.397 1.334 37.632 4.142 45.706 2.808 8.144 7.793 15.02 14.744 20.642 5.125 3.932 12.989 7.723 23.59 11.304 1.194.281 1.825.421 2.106.421 7.863 2.247 12.778 4.423 14.533 6.529 1.825 2.036 2.738 5.06 2.738 8.987 0 5.617-1.545 9.759-4.634 12.427-3.089 2.528-7.793 4-14.323 4-2.808 0-12.848-1.264-30.12-3.511-17.272-2.317-33.07-3.44-47.39-3.44-26.75 0-53.15 1.966-79.27 6.04-4.704.632-7.723.913-8.846.913-4.704 0-8.566-1.334-11.304-3.581-2.879-2.387-4.353-5.406-4.353-9.06 0-4.985 4.634-10.602 13.972-16.71l1.334-.772h-.491c21.484-13.199 32.16-32.367 32.16-57.57v-15.516-401.53h.07"/><path d="m296.16 4401.8l-135.22-269.25c-9.829-20.08-20.852-34.613-33.35-43.39-12.427-8.846-18.676-14.604-18.676-17.412 0-4.213 1.825-7.653 5.266-10.391 3.51-2.808 7.653-4.283 12.848-4.283 1.123 0 3.581.281 7.512.843 1.896.351 3.581.632 4.985.983 7.302 1.123 15.797 1.896 25.346 2.598 9.689.562 20.08.843 31.31.843 13.13 0 25.486-.281 37.14-.843 11.514-.702 22.05-1.474 31.594-2.598 1.896-.351 4.283-.632 6.81-.983 4.915-.562 8.144-.843 9.619-.843 7.02 0 12.08 1.123 15.1 3.159 3.089 2.036 4.634 5.617 4.634 10.672 0 6.389-7.232 12.146-21.554 17.13-.772.281-1.404.562-1.545.843-9.9 2.808-16.289 5.546-19.378 8.214-3.089 2.668-4.564 6.178-4.564 10.672 0 4.985.491 10.04 1.474 14.884.983 4.844 2.457 9.06 4.423 12.427l75.69 149.48c4.283 8.144 7.372 13.551 9.548 16.15 2.036 2.668 4.072 4 6.108 4 1.896 0 4.985-2.387 9.06-7.302 4.072-4.845 7.091-10.04 9.06-15.376l41.21-108.68c3.089-7.864 5.406-15.727 7.161-23.59 1.615-7.793 2.528-15.516 2.528-23.1 0-9.759-1.474-17.482-4.423-23.24-2.879-5.687-7.583-10.11-14.04-13.199-2.808-1.194-7.863-2.247-15.17-3.44-13.691-2.106-20.571-6.67-20.571-13.34 0-5.827 1.545-9.97 4.704-12.146 3.37-2.247 10.251-3.44 20.922-3.44 3.089 0 6.249.07 9.478.281 3.23.14 8.215.702 14.955 1.474 1.404 0 5.476.421 12.216 1.334 6.74.913 12.01 1.334 16.01 1.334 4.704 0 9.619-.281 14.463-.843 4.915-.702 10.461-1.474 16.569-2.598 2.247 0 4.915-.14 7.793-.492 2.949-.281 5.06-.491 6.108-.491 6.178 0 10.882 1.193 14.11 3.44 3.159 2.177 4.774 5.406 4.774 9.619 0 3.37-5.406 8.776-16.359 16.08-10.882 7.372-20.22 20.642-27.803 39.598l-198.83 476.09c-3.651 8.706-8.566 14.744-14.744 18.11-6.108 3.37-16.218 4.985-30.26 4.985-8.706 0-14.604-.772-17.623-2.247-3.159-1.545-4.704-4.213-4.704-7.793 0-4.704 2.247-10.461 6.81-17.272 1.615-2.106 2.949-4 3.791-5.406l86.92-142.1c2.808-4.493 4.704-8.776 5.898-12.848 1.123-4.142 1.615-8.144 1.615-12.427 0-3.37-.562-7.091-1.615-11.163-1.194-3.932-2.879-8.215-5.125-12.708"/><path d="m584.23 4320.78v-151.23c0-20.431-1.194-33.771-3.581-40.23-2.387-6.529-6.74-11.585-12.919-15.587-4.423-2.176-11.234-3.932-20.571-4.985l-.843-.14c-8.706-.842-14.323-2.247-16.78-4.423-2.598-2.106-3.791-5.266-3.791-9.408 0-5.05 1.474-8.776 4.283-11.09 2.668-2.387 10.18-4.704 22.12-6.951 2.036-.562 4.985-1.334 8.846-2.106 14.884-3.3 27.17-6.67 37-10.04 14.253-5.05 29.21-11.09 44.723-18.325 15.587-7.091 24.433-10.602 26.68-10.602 2.247 0 4.423.983 6.319 2.949 1.966 1.896 2.949 3.721 2.949 5.406v14.744l-2.528 69.65c17.974-25.14 34.543-44.44 49.849-57.712 15.306-13.34 28.15-20.01 38.896-20.01 13.199 0 27.803 6.6 43.951 19.729 16.08 13.199 24.15 25.28 24.15 36.579 0 10.321-5.125 24.503-15.306 42.41-10.251 17.904-19.308 26.82-27.17 26.82-4.423 0-14.11-5.968-28.997-17.904-14.814-11.936-28.01-18.04-39.528-18.04-15.657 0-27.24 7.232-34.613 21.484-7.372 14.252-11.163 36.579-11.163 66.98v85.3c0 21.835 1.615 36.86 4.844 45.14 3.23 8.285 9.06 15.446 17.412 21.344 4.353 2.738 8.846 5.06 13.972 7.091 4.985 1.966 11.163 3.721 18.465 5.06.281 0 .843.141 1.685.421 11.795 3.651 17.693 8.987 17.693 16.15 0 4.704-1.896 8.355-5.687 10.882-3.791 2.457-9.06 3.721-15.867 3.721-4.704 0-16.499-1.123-35.526-3.44-18.886-2.317-35.596-3.511-49.849-3.511-27.943 0-55.11 2.036-81.09 6.108-4 .562-6.529.842-7.583.842-4.493 0-8.215-1.264-11.163-3.791-2.949-2.528-4.423-5.968-4.423-10.18 0-3.089.843-5.827 2.457-8.07 1.755-2.247 5.476-4.915 11.374-8 11.865-6.389 20.01-14.182 24.573-23.1 4.423-9.06 6.74-20.782 6.74-35.17v-14.744"/><path d="m892.03 3905.7c0-8.917 8.495-23.38 25.416-43.25 16.921-19.939 28.29-29.909 33.841-29.909 6.459 0 17.482 9.548 33.07 28.646 15.657 19.03 23.38 33.07 23.38 42.06 0 9.198-8.07 22.608-24.01 40.16-16.01 17.482-27.382 26.26-34.05 26.26-8.425 0-20.15-8.566-35.17-25.626-14.884-17.13-22.467-29.839-22.467-38.33m13.902 414.8v-151.51c0-20.361-1.123-33.771-3.581-40.23-2.387-6.459-6.6-11.585-12.778-15.516-4.493-2.247-11.374-3.932-20.642-5.06l-.843-.211c-8.706-.842-14.253-2.247-16.78-4.423-2.528-2.036-3.862-5.195-3.862-9.408 0-4.985 1.474-8.776 4.283-11.02 2.808-2.387 10.251-4.704 22.19-7.02 9.06-1.404 16.991-2.949 24.01-4.704 7.02-1.825 13.972-4.072 20.993-6.6 16.569-5.546 32.3-12.08 47.32-19.518 15.02-7.583 22.748-11.304 23.31-11.304 3.37 0 5.898 1.474 7.583 4.493 1.615 3.089 2.457 7.934 2.457 14.674 0 .632-.14 2.668-.421 6.389-.913 18.395-1.264 37-1.264 56.03v198.13c0 21.414 1.334 36.37 4.213 44.864 2.738 8.636 7.653 15.797 14.674 21.695 5.05 4 12.848 7.583 23.1 10.953 1.474.562 2.387.843 2.949.843.281.281.842.562 1.685.842 10.953 3.721 16.289 9.127 16.289 16.359 0 4.704-1.545 8.355-4.915 10.882-3.37 2.457-8.144 3.791-14.323 3.791-3.089 0-13.199-1.194-30.05-3.511-16.991-2.317-32.507-3.511-46.48-3.511-28.01 0-55.04 1.966-81.16 6.108-3.862.562-6.459.913-7.583.913-4.423 0-8.215-1.334-11.163-3.861-2.879-2.528-4.353-5.968-4.353-10.251 0-3.089.843-5.827 2.528-7.934 1.545-2.317 5.476-4.985 11.374-8.07 11.795-6.459 19.94-14.182 24.433-23.24 4.564-9.06 6.74-20.782 6.74-35.32v-14.744h.07z"/><path d="m1080.33 4258.08c0-58.55 20.291-108.33 60.942-149.13 40.581-40.792 88.67-61.15 144.14-61.15 31.03 0 58.2 7.02 81.3 20.993 23.1 13.972 34.684 28.29 34.684 42.828 0 10.391-8 21.976-24.08 34.824-16.08 12.919-28.575 19.378-37.492 19.378-6.108 0-10.882-6.67-14.253-19.799-1.615-6.108-3.23-11.02-4.564-14.674-6.459-16.499-15.516-28.716-27.03-36.579-11.514-7.863-26.12-11.795-43.881-11.795-27.522 0-48.44 9.548-62.908 28.505-14.533 18.886-21.835 46.48-21.835 82.71 0 54.764 11.936 98.71 35.807 131.85 23.941 33.21 54.974 49.708 93.45 49.708 26.12 0 52.24-7.442 78.28-22.537 26.05-15.1 40.02-22.537 41.705-22.537 4 0 6.74.913 8.215 2.738 1.545 1.755 2.317 4.985 2.317 9.408 0 15.376-18.676 34.33-55.887 56.659-37.35 22.397-78.14 33.63-122.45 33.63-50.13 0-90.5-16.08-120.83-48.3-30.401-32.02-45.636-74.28-45.636-126.73"/><path d="m1578.47 4265.59c0-3.51-.632-5.898-1.615-7.442-1.053-1.474-2.808-2.247-5.266-2.247h-19.1c-1.755 0-3.159-.281-4.283-.983-.983-.632-1.474-1.404-1.474-2.457 0-6.389.632-10.672 1.896-13.199 1.404-2.457 3.932-3.721 7.793-3.721h15.16c4.704-.141 7.442-8 8.07-23.801.632-15.657 3.3-29.488 8.07-41.35 7.653-19.308 20.571-36.439 38.475-51.32 17.974-14.814 34.473-22.19 49.708-22.19 7.302 0 13.34 1.334 18.11 4.072 4.774 2.738 7.161 6.249 7.161 10.321 0 7.864-2.247 16.85-6.67 26.89-4.423 10.18-8.636 15.1-12.848 15.1-2.668 0-6.249-4.704-10.672-14.393-4.423-9.619-10.461-14.463-18.11-14.463-9.408 0-16.289 5.125-20.782 15.376-4.283 10.251-6.53 26.89-6.53 50.06v40.37c0 2.457.562 4 1.545 4.493 1.123.562 3.37.913 6.88.913h17.623c4.213 0 8.495-1.474 12.708-4.423 4.353-2.949 6.53-4.493 6.881-4.493 1.123 0 1.966.421 2.598 1.264.632.842 1.053 1.825 1.053 3.159 0 1.334-.983 4.423-2.668 9.548-1.825 5.06-3.511 8.917-5.196 11.514-1.123 1.474-2.808 2.457-4.915 3.02-2.106.562-5.266.842-9.549.842h-19.378c-3.02 0-4.985.632-6.249 1.615-1.123 1.123-1.615 3.23-1.615 6.319v102.79c0 11.444.702 19.237 2.106 23.38 1.474 4.213 4 7.653 7.512 10.531 2.668 1.896 6.6 3.862 11.795 5.547.702.351 1.194.491 1.334.491 3.862.983 6.389 2.036 7.372 3.159 1.123 1.123 1.615 2.668 1.615 4.634 0 2.879-.913 4.845-2.387 6.249-1.545 1.404-4.072 1.966-7.302 1.966-1.474 0-6.81-.562-15.586-1.615-8.846-1.194-16.92-1.685-24.22-1.685-13.621 0-27.03 1.053-40.02 2.949-2.317.281-3.791.421-4.423.421-2.387 0-4.353-.632-5.827-1.755-1.404-1.264-2.036-2.738-2.036-4.634 0-1.474.492-3.02 1.474-4.283 1.123-1.404 2.949-2.808 5.827-4.493l.702-.351c10.251-6.67 15.376-16.429 15.376-29.07v-7.934-104.68h-.14"/><path d="m1709.34 4370.07v-77.44c0-10.391-.702-17.342-1.825-20.642-1.264-3.3-3.37-5.898-6.459-7.934-2.317-1.123-5.827-1.966-10.531-2.598h-.492c-4.353-.421-7.232-1.123-8.495-2.176-1.264-1.053-1.896-2.598-1.896-4.774 0-2.528.702-4.423 2.106-5.617 1.474-1.194 5.266-2.317 11.374-3.511.983-.281 2.527-.632 4.493-1.053 7.512-1.755 13.831-3.51 18.886-5.195 7.302-2.598 14.884-5.757 22.888-9.408 7.863-3.791 12.427-5.547 13.621-5.547 1.123 0 2.106.492 3.159 1.404.983.913 1.474 1.825 1.474 2.879v7.512l-1.264 25.486c11.304-11.09 21.905-19.237 31.945-24.503 10.04-5.195 20.22-7.723 30.541-7.723 11.725 0 21.905 3.02 30.331 9.268 8.566 6.178 15.586 15.587 20.993 28.08 14.604-14.04 27.03-23.801 37.07-29.21 10.251-5.406 20.571-8.144 31.24-8.144 20.01 0 34.894 7.302 44.583 22.12 9.829 14.744 14.674 37.492 14.674 68.1v47.11c0 10.11.702 17.412 2.177 22.256 1.545 4.774 4.142 8.706 7.934 11.655 2.668 2.036 6.6 3.861 11.795 5.617.702.351 1.194.491 1.474.491.211 0 .351 0 .492 0 5.546 1.545 8.355 4.142 8.355 7.723 0 2.879-.842 4.915-2.387 6.319-1.545 1.334-4.072 2.036-7.302 2.036-1.545 0-6.81-.632-15.657-1.685-8.776-1.123-16.78-1.755-24.01-1.755-13.761 0-27.17 1.123-40.02 3.02-2.036.351-3.23.491-3.721.491-2.036 0-4-.702-5.266-1.966-1.474-1.334-2.177-2.949-2.177-5.125 0-2.668 2.106-5.336 6.249-8 4.142-2.528 7.161-4.845 8.917-6.74 2.247-2.879 3.861-6.108 4.985-9.759.983-3.581 1.474-9.127 1.474-16.569v-4.423-43.46c0-24.784-3.02-42.34-9.06-52.798-5.968-10.461-15.797-15.797-29.558-15.797-12.01 0-21.06 3.23-27.03 9.619-6.04 6.319-9.06 15.657-9.06 28.01v70.912c0 10.882.772 18.605 2.106 22.888 1.474 4.423 4 8.07 7.512 11.02 2.598 2.036 6.53 3.861 11.865 5.617.702.351 1.194.491 1.474.491 0 0 .14 0 .421 0 5.617 1.545 8.355 4.142 8.355 7.723 0 2.879-.842 4.915-2.317 6.319-1.615 1.334-4.072 2.036-7.372 2.036-1.615 0-6.88-.632-15.376-1.685-8.565-1.123-16.08-1.755-22.748-1.755-13.901 0-26.96 1.123-39.18 3.02-1.755.351-2.738.491-3.02.491-2.036 0-3.651-.702-4.844-1.966-1.194-1.334-1.755-2.949-1.755-5.195 0-1.404.421-2.668 1.404-3.932.983-1.264 2.598-2.598 5.06-4.212.491-.281.983-.702 1.474-1.123 2.598-1.966 4.564-3.791 5.898-5.547 2.177-2.808 3.721-6.108 4.564-9.829.983-3.791 1.474-9.127 1.474-16.429v-4.423-43.46c0-24.433-3.089-41.985-9.197-52.52-6.178-10.672-16.08-16.08-29.909-16.08-11.936 0-20.993 3.23-26.96 9.619-5.968 6.319-8.987 15.657-8.987 28.01v70.912c0 10.882.632 18.605 2.036 22.888 1.474 4.423 4.142 8.07 7.934 11.02 3.159 2.036 7.302 3.861 12.497 5.617.913.351 1.474.491 1.685.491v.141c6.459 1.474 9.689 4.353 9.689 8.495 0 2.457-.913 4.283-2.598 5.547-1.615 1.264-4.213 1.896-7.442 1.896-2.036 0-7.512-.632-16.569-1.685-8.987-1.123-16.991-1.755-24.01-1.755-14.323 0-28.15 1.123-41.42 3.02-2.036.351-3.3.491-3.861.491-2.317 0-4.283-.702-5.757-1.966-1.474-1.264-2.177-2.949-2.177-5.195 0-1.474.421-2.879 1.194-4 .913-1.264 2.808-2.528 5.827-4.142 5.968-3.3 10.18-7.302 12.427-11.865 2.247-4.564 3.511-10.602 3.511-18.04v-7.512h.07"/><path d="m44.642 3990.35h.012-.012"/><path d="m44.654 3990.37h.011-.011"/></g></g></g></svg>