<svg xmlns="http://www.w3.org/2000/svg" viewBox="0 0 946 158"><g transform="translate(-388.1-352.73)"><g fill="#008a57"><path d="m763.08 451.36h3.628l39.19 57.22h17.696l-41.25-58.44c19.946-1.727 32.481-15.911 32.481-35.973 0-29.376-22.857-35.954-47.4-35.954h-18.763v130.35h14.436v-57.2h-.019m0-59.665h4.327c17.346 0 32.966 2.076 32.966 23.497 0 20.257-16.493 23.342-32.811 23.342h-4.463v-46.839h-.019"/><path d="m961.95 508.54h24.04c20.257 0 35.721-2.581 51.17-16.415 14.222-12.767 21.13-29.512 21.13-48.51 0-19.345-6.713-36.788-21.479-49.594-15.27-13.12-31.06-15.717-50.47-15.717h-24.39v130.23m14.436-13.466v-103.24h10.458c15.27 0 28.348 2.037 40.16 12.573 11.157 9.857 16.822 24.18 16.822 39.06 0 14.475-5.491 28.12-16.14 38.15-11.836 11.234-25.05 13.466-40.844 13.466h-10.458"/><path d="m1078.58 378.34h14.41v130.2h-14.41z"/><path d="m1180.13 376.13c-36.885 0-67.43 30.23-67.43 67.48 0 37.448 30.521 67.12 67.43 67.12 36.846 0 67.41-29.667 67.41-67.12 0-37.27-30.56-67.48-67.41-67.48m0 13.466c29.648 0 52.99 24.332 52.99 53.805 0 29.357-23.672 53.824-52.99 53.824-29.357 0-52.99-24.487-52.99-53.824-.019-29.473 23.323-53.805 52.99-53.805"/><path transform="matrix(19.40314 0 0 19.40314-5706.02-10101.39)" d="m360.99 540.8l.38-.7h1.46v6.72h-.74v-6.02h-1.1"/><path d="m867.34 458.03l22.18-52.18 21.654 52.18h-43.832m25.17-79.86h-5.355l-57.08 130.37h15.794l15.658-37h55.34l15.309 37h15.988l-55.648-130.37"/></g><g fill="#003772"><path d="m655.47 489.48c-22.663 0-41.717-16.279-45.15-39.31h42.9c4.734 0 15.08 1.01 15.08 1.01v-19.09c0 0-10.148.737-15.794.737h-42.18c4.249-22.585 22.74-38.19 45.15-38.19 11.797 0 26.369 5.452 26.369 5.452l.272-20.08c0 0-10.342-3.958-26.641-3.958-37.72 0-70.74 28.988-70.74 65.932 0 39.951 33 66.902 70.74 66.902 17.734 0 28.329-4.754 28.329-4.754l-.504-20.761c-.019-.019-13.06 6.112-27.824 6.112"/><path d="m527.1 508.38c0 0 1.436-9.643 1.436-18.08v-91.66h-6.17c-8.402 0-21.402 0-30.987.931l-.815-21.305h100.1l-.504 21.305c-9.896-.931-22.663-.931-31.3-.931h-7.606v91.66c0 8.44 1.688 18.08 1.688 18.08h-25.845"/></g><path d="m682.31 367.65c-7.354-2.076-16.997-3.531-25.09-3.531-21.984 0-40.902 6.713-56.735 20.839l.272-15.639c16.745-11.467 35.721-16.59 56.46-16.59 9.1 0 16.997 1.242 25.341 3.434l-.252 11.487" fill="#008a57"/><path d="m431.17 441.44h-18.685v-47.3c0 0 9.08-.252 19.908-.252 1.63 0 3.202.136 4.599.194 17.385 1.436 24.545 10.943 24.545 22.391 0 12.845-10.09 22.546-24.545 24.642-1.843.233-3.822.33-5.821.33m51.09 49.11l-34.79-33.703c21.421-2.037 39.41-17.89 39.41-38.42 0-21.848-12.515-41.17-49.866-42.745-1.552-.078-3.163-.136-4.851-.136-25.845 0-43.56 1.242-43.56 1.242 0 0 1.184 12.825 1.184 19.267v94.49c0 8.693-1.688 17.831-1.688 17.831h26.1c0 0-1.688-9.139-1.688-19.539v-38.438l24.526 25.787 12.418 12.922c7.645 8.402 20.975 19.267 20.975 19.267h34.46c-.019 0-15.445-10.866-22.624-17.831" fill="#003772"/></g></svg>