<svg xmlns="http://www.w3.org/2000/svg" height="567.76" width="600" viewBox="0 0 158.75 150.21972"><g transform="translate(25.732-73.03)"><g fill="#119cf5"><path d="m-25.732 198.72v24.53h18.03v-9h5l8.515 9h15.522l-10.517-8s8.516 0 8.516-8.52c0 0 0-8.01-7.01-8.01h-3zm18.03 5.01h8.01c0 0 2.51 0 2.51 2.51 0 2.49-3 3-3 3h-7.514z"/><path d="m92.95 198.72v24.53h40.07v-4.49h-22.04v-19.54h-18.03z"/><path d="m31.86 198.72v4.5h12.52v19.54h18.02v-19.54h13.03v-4.5z"/><path d="m53.39 73.03c-31.04 0-56.08 25.04-56.08 56.09 0 31.04 25.04 56.08 56.08 56.08 31.04 0 56.08-25.04 56.08-56.08 0-31.05-25.04-56.09-56.08-56.09"/></g><g fill="#fff"><path d="m58.906 152.14h18.03v-46.56h-18.03z"/><path d="m30.356 152.14h18.03v-46.56h-18.03z"/></g></g></svg>