<svg xmlns="http://www.w3.org/2000/svg" viewBox="0 0 600 112.5"><g transform="translate(385.58 292.83)"><g fill-rule="evenodd"><path fill="#e94e0f" d="m214.42-180.34h-112.49v-112.49h112.49v112.49"/><path d="m-273.08-180.34h-112.49v-112.49h112.49v112.49"/><path d="m-151.2-180.34h-112.49v-112.49h112.49v112.49"/><path d="m-29.329-180.34h-112.49v-112.49h112.49v112.49"/><path d="m92.55-180.33h-112.49v-112.49h112.49v112.49" fill="#e94e0f"/></g><path fill="#fff" d="m-326.3-240.33h-13.486v-14.989h14.676c5.582 0 7.06 4.547 7.06 7.455 0 4.313-2.186 7.533-8.255 7.533m31.519-8.997c0-17.702-15.242-26.25-23.264-26.25h-44.986v75.74h23.24v-21.741h7.494l14.247 21.741h26.25l-17.233-26.25s14.247-5.543 14.247-23.24m203.99 29.25v-55.51h-23.283v75.78h23.283v-.039h35.989v-20.239h-35.989zm-150-35.27l21.761.019v55.53h23.24v-55.53h21.741v-20.258h-66.747v20.239z"/></g></svg>