<svg xmlns="http://www.w3.org/2000/svg" viewBox="0 0 600 618.55" xmlns:xlink="http://www.w3.org/1999/xlink"><defs><linearGradient id="6" y2="941.8" gradientUnits="userSpaceOnUse" x2="0" y1="1123.9"><stop stop-color="#fa9100"/><stop stop-color="#fd991e" offset=".5"/><stop stop-color="#ffa03c" offset="1"/></linearGradient><linearGradient id="5" y2="1024.35" gradientUnits="userSpaceOnUse" x2="0" y1="941.87"><stop stop-color="#ffa03c"/><stop stop-color="#fc981e" offset=".5"/><stop stop-color="#fa9100" offset="1"/></linearGradient><linearGradient id="7" y2="941.58" gradientUnits="userSpaceOnUse" x2="0" y1="1024.84"><stop stop-color="#fba733"/><stop stop-color="#fdad4b" offset=".5"/><stop stop-color="#ffb363" offset="1"/></linearGradient><linearGradient id="4" y2="942.08" gradientUnits="userSpaceOnUse" x2="0" y1="1123.12" xlink:href="#7"/><linearGradient id="3" y2="626.1" gradientUnits="userSpaceOnUse" x2="0" y1="904.45"><stop stop-color="#fa9100"/><stop stop-color="#fc9716" offset=".5"/><stop stop-color="#fe9c2d" offset="1"/></linearGradient><linearGradient id="0" y2="622.09" gradientUnits="userSpaceOnUse" x2="0" y1="527.4"><stop stop-color="#ffc282"/><stop stop-color="#fec079" offset="1"/></linearGradient><linearGradient id="2" y2="622.27" gradientUnits="userSpaceOnUse" x2="0" y1="904.09"><stop stop-color="#fba733"/><stop stop-color="#fdac45" offset=".5"/><stop stop-color="#feb057" offset="1"/></linearGradient><linearGradient id="1" y2="527.63" gradientUnits="userSpaceOnUse" x2="0" y1="630.47"><stop stop-color="#feb056"/><stop stop-color="#ffb363" offset="1"/></linearGradient></defs><g transform="translate(81.13-517.47)"><g fill="#fff"><path d="m-74.839 760.75c-3.639 0-6.293-2.495-6.293-6.293v-85.04c0-7.914 6.302-13.828 14.159-13.828h31.798c9.712 0 15.15 6.457 15.15 14.08 0 8.153-7.139 13.58-13.58 13.58h-16.727v71.05c0 3.867-2.45 6.459-6.459 6.459z"/><path d="m10.45 760.42c-8.235 0-13.58-6.889-13.58-13.03v-109.85c0-2.869 1.963-5.796 5.796-5.796h19.362c3.322 0 5.479 2.954 5.479 5.521v25.779h21.529c5.573 0 6.072 1.957 6.072 2.857 0 1.471-.793 2.443-1.463 3.465l-11.419 16.348c-2.949 3.947-5.71 4.987-10.08 4.987h-4.637v42.23h17.04c6.364 0 13.267 5.254 13.267 13.745 0 7.854-6.223 13.746-13.746 13.746z"/><path d="m92.26 760.42c-6.725 0-13.58-5.189-13.58-13.58v-126.3c0-2.669 1.956-5.854 5.795-5.854h18.714c4.126 0 6.293 2.856 6.293 6.293v111.95h31.962c3.593 0 5.23 1.216 5.23 2.833 0 1.326-.885 2.533-1.775 3.882l-10.923 15.586c-2.298 3.248-4.841 5.19-9.09 5.19z"/></g><path d="m110.81 918.24c-10.08 0-18.548-5.248-18.548-15.898 0-5.969 2.615-11.596 5.465-16.06l185.48-291.8c4.648-7.447 12.68-14.515 20.865-14.515 9.512 0 13.416 8.914 13.416 16.833v120.4c0 12.1-2.688 18.56-8.281 27.491l-101.86 159.82c-7.05 10.304-13.06 13.745-29.81 13.745z" fill="#dcdcdc"/><path d="m306.56 626.77v-25.504c0-4.683-1.447-9.287-4.841-9.287-2.771 0-5.897 3.337-7.798 6.54l-7.173 11.281-.017 23.21z" fill="#fff"/><path d="m90.91 1037.3c-13.305 0-22.493-11.524-22.493-22.357v-60.778c0-11.945 9.866-22.523 22.523-22.523h204.2c12.257 0 22.357 10.382 22.357 22.357v60.779c0 12.647-10.538 22.523-22.523 22.523z" fill="#fa9100"/><path d="m146.75 941.43h147.39c9.08 0 12.421 6.646 12.421 12.421v60.45c0 6.261-5.634 10.268-11.888 10.268h-147.92l-37.593-37.593z" fill="url(#5)"/><path d="m146.75 1024.6h-55.31c-6.626 0-11.427-5.62-11.427-11.427v-60.12c0-6.05 5.099-11.592 11.592-11.592h55.15z" fill="url(#7)"/><path d="m354.17 1136c-12.75 0-22.44-10.842-22.44-22.812v-159.03c0-11.427 9.456-22.523 22.523-22.523h142.26c11.865 0 22.357 10.05 22.357 22.357v60.28c0 13.989-11.206 23.02-22.23 23.02h-47.819v75.68c0 13.808-11.15 23.02-21.82 23.02z" fill="#fa9100"/><path d="m377.44 1123.9h60.28v-32.79-66.08h59.4c6.01 0 10.818-5.573 10.818-11.612v-60.26c0-6.158-5.501-11.563-11.1-11.563h-119.4l-20.461 35.908v127.52z" fill="url(#6)"/><path d="m377.44 1123.4h-22.523c-5.534 0-11.427-4.49-11.427-11.427v-159.65c0-5.409 4.768-10.765 11.427-10.765h22.523z" fill="url(#4)"/><path d="m354.75 917.41c-13.06 0-23.02-10.36-23.02-23.02v-354.39c0-11.69 9.9-22.533 22.357-22.533h72.37c12.481 0 22.357 10.761 22.357 22.523v354.9c0 11.441-9.439 22.523-22.523 22.523z" fill="#fa9100"/><path d="m437.72 630.75v273.92h-60.28l-20.37-20.37v-308.03z" fill="url(#3)"/><path d="m377.44 527.41h49.19c6.113 0 11.1 5.256 11.1 11.1v92.24c-19.409-3.353-43-6.889-60.28-8.28l-24.19-56.15z" fill="url(#1)"/><path d="m343.49 620.31v-81.64c0-5.883 4.805-11.261 11.261-11.261h22.688v95.06l-20.04 11.569z" fill="url(#0)"/><path d="m377.44 904.66h-22.709c-5.942 0-11.241-4.975-11.241-11.261v-273.17c10.409.377 22.633 1.124 33.95 2.234z" fill="url(#2)"/><path d="m146.25 906.32h37.26c10.568 0 16.378-11.05 21.19-18.805l95.64-150.03c5.29-8.53 6.21-13.07 6.21-23.434v-87.28c-6.411-5.773-13.03-11.419-19.812-16.97l-140.49 220.33-19.87 60.78z" fill="#e4e4e4"/><path d="m146.25 906.32h-35.982c-5.114 0-7.156-2.065-7.156-4.835 0-3.336 2.434-7.243 3.989-9.698l39.15-61.65z" fill="#fff"/></g></svg>