<svg xmlns="http://www.w3.org/2000/svg" viewBox="0 0 600 450.24" xmlns:xlink="http://www.w3.org/1999/xlink"><defs><linearGradient id="6" y2="910.49" gradientUnits="userSpaceOnUse" x2="0" y1="1043.04"><stop stop-color="#fa9100"/><stop stop-color="#fd991e" offset=".5"/><stop stop-color="#ffa03c" offset="1"/></linearGradient><linearGradient id="5" y2="970.58" gradientUnits="userSpaceOnUse" x2="0" y1="910.54"><stop stop-color="#ffa03c"/><stop stop-color="#fc981e" offset=".5"/><stop stop-color="#fa9100" offset="1"/></linearGradient><linearGradient id="7" y2="910.33" gradientUnits="userSpaceOnUse" x2="0" y1="970.93"><stop stop-color="#fba733"/><stop stop-color="#fdad4b" offset=".5"/><stop stop-color="#ffb363" offset="1"/></linearGradient><linearGradient id="4" y2="910.7" gradientUnits="userSpaceOnUse" x2="0" y1="1042.48" xlink:href="#7"/><linearGradient id="3" y2="680.7" gradientUnits="userSpaceOnUse" x2="0" y1="883.31"><stop stop-color="#fa9100"/><stop stop-color="#fc9716" offset=".5"/><stop stop-color="#fe9c2d" offset="1"/></linearGradient><linearGradient id="0" y2="677.78" gradientUnits="userSpaceOnUse" x2="0" y1="608.85"><stop stop-color="#ffc282"/><stop stop-color="#fec079" offset="1"/></linearGradient><linearGradient id="2" y2="677.91" gradientUnits="userSpaceOnUse" x2="0" y1="883.04"><stop stop-color="#fba733"/><stop stop-color="#fdac45" offset=".5"/><stop stop-color="#feb057" offset="1"/></linearGradient><linearGradient id="1" y2="609.02" gradientUnits="userSpaceOnUse" x2="0" y1="683.88"><stop stop-color="#feb056"/><stop stop-color="#ffb363" offset="1"/></linearGradient></defs><g transform="translate(-.5-601.62)"><g fill="#fff"><path d="m5.081 778.71c-2.649 0-4.581-1.816-4.581-4.581v-61.9c0-5.761 4.587-10.07 10.306-10.07h23.15c7.07 0 11.03 4.7 11.03 10.246 0 5.934-5.196 9.885-9.885 9.885h-12.175v51.714c0 2.815-1.784 4.701-4.701 4.701z"/><path d="m67.16 778.46c-5.994 0-9.885-5.01-9.885-9.487v-79.958c0-2.088 1.429-4.219 4.219-4.219h14.09c2.418 0 3.988 2.15 3.988 4.02v18.765h15.671c4.057 0 4.42 1.425 4.42 2.079 0 1.071-.577 1.779-1.065 2.522l-8.312 11.899c-2.146 2.873-4.156 3.63-7.339 3.63h-3.375v30.739h12.402c4.633 0 9.657 3.824 9.657 10 0 5.717-4.529 10-10 10z"/><path d="m126.71 778.46c-4.895 0-9.885-3.777-9.885-9.885v-91.93c0-1.943 1.424-4.261 4.218-4.261h13.622c3 0 4.581 2.079 4.581 4.581v81.49h23.265c2.615 0 3.807.885 3.807 2.063 0 .965-.644 1.843-1.292 2.826l-7.951 11.345c-1.672 2.365-3.524 3.778-6.618 3.778z"/></g><path d="m140.21 893.34c-7.335 0-13.501-3.82-13.501-11.572 0-4.345 1.903-8.44 3.978-11.693l135.01-212.4c3.384-5.42 9.23-10.565 15.188-10.565 6.923 0 9.765 6.489 9.765 12.253v87.64c0 8.807-1.956 13.51-6.03 20.01l-74.13 116.33c-5.13 7.5-9.505 10-21.698 10z" fill="#dcdcdc"/><path d="m282.7 681.18v-18.564c0-3.409-1.053-6.76-3.524-6.76-2.02 0-4.293 2.429-5.676 4.76l-5.221 8.211-.012 16.897z" fill="#fff"/><path d="m125.73 980.02c-9.685 0-16.372-8.388-16.372-16.274v-44.24c0-8.695 7.181-16.394 16.394-16.394h148.63c8.922 0 16.274 7.557 16.274 16.274v44.24c0 9.205-7.67 16.394-16.394 16.394z" fill="#fa9100"/><path d="m166.37 910.22h107.29c6.606 0 9.04 4.838 9.04 9.04v43.999c0 4.557-4.101 7.474-8.653 7.474h-107.67l-27.364-27.364z" fill="url(#5)"/><path d="m166.37 970.74h-40.26c-4.823 0-8.317-4.091-8.317-8.318v-43.758c0-4.401 3.712-8.438 8.438-8.438h40.14z" fill="url(#7)"/><path d="m317.35 1051.9c-9.28 0-16.334-7.891-16.334-16.605v-115.75c0-8.318 6.883-16.394 16.394-16.394h103.55c8.636 0 16.274 7.314 16.274 16.274v43.879c0 10.182-8.157 16.756-16.184 16.756h-34.807v55.09c0 10.05-8.116 16.756-15.883 16.756z" fill="#fa9100"/><path d="m334.29 1043h43.878v-23.868-48.1h43.24c4.375 0 7.875-4.057 7.875-8.453v-43.864c0-4.482-4-8.417-8.08-8.417h-86.91l-14.894 26.14v92.82z" fill="url(#6)"/><path d="m334.29 1042.7h-16.394c-4.03 0-8.318-3.268-8.318-8.318v-116.21c0-3.937 3.47-7.836 8.318-7.836h16.394z" fill="url(#4)"/><path d="m317.78 892.74c-9.508 0-16.756-7.541-16.756-16.756v-257.96c0-8.509 7.206-16.402 16.274-16.402h52.678c9.08 0 16.274 7.833 16.274 16.394v258.33c0 8.327-6.87 16.394-16.394 16.394z" fill="#fa9100"/><path d="m378.17 684.08v199.38h-43.878l-14.827-14.827v-224.21z" fill="url(#3)"/><path d="m334.29 608.86h35.802c4.45 0 8.08 3.826 8.08 8.08v67.14c-14.13-2.44-31.3-5.01-43.878-6.03l-17.6-40.865z" fill="url(#1)"/><path d="m309.58 676.48v-59.43c0-4.282 3.498-8.197 8.197-8.197h16.515v69.19l-14.586 8.421z" fill="url(#0)"/><path d="m334.29 883.46h-16.53c-4.325 0-8.182-3.621-8.182-8.197v-198.84c7.577.274 16.475.818 24.712 1.626z" fill="url(#2)"/><path d="m166.01 884.67h27.12c7.692 0 11.922-8.04 15.427-13.688l69.62-109.21c3.851-6.209 4.52-9.511 4.52-17.06v-63.53c-4.666-4.202-9.486-8.312-14.421-12.353l-102.27 160.38-14.465 44.24z" fill="#e4e4e4"/><g fill="#fff"><path d="m166.01 884.67h-26.19c-3.722 0-5.209-1.503-5.209-3.52 0-2.428 1.772-5.272 2.903-7.06l28.497-44.872z"/><path d="m440.63 684.82v36.03h37.98v-36.03h20.652v93.86h-20.652v-40.499h-37.98v40.499h-20.652v-93.86h20.652"/><path d="m556.44 761.33c2.989 0 5.877-.504 8.698-1.444 2.787-.974 5.272-2.586 7.489-4.802 2.183-2.25 3.929-5.138 5.239-8.731 1.31-3.593 1.981-7.992 1.981-13.164 0-4.735-.47-9-1.377-12.794-.94-3.828-2.451-7.086-4.533-9.806-2.116-2.72-4.903-4.802-8.362-6.246s-7.724-2.183-12.828-2.183h-14.709v59.17h18.403m1.444-76.53c6.04 0 11.686.974 16.891 2.888 5.239 1.948 9.739 4.836 13.533 8.698 3.828 3.862 6.783 8.664 8.933 14.474 2.149 5.776 3.257 12.559 3.257 20.35 0 6.851-.873 13.164-2.653 18.94-1.746 5.776-4.399 10.78-7.925 15.01-3.56 4.197-7.992 7.489-13.298 9.906-5.306 2.418-11.552 3.627-18.738 3.627h-40.499v-93.89h40.499"/></g></g></svg>