<?xml version="1.0" encoding="UTF-8" standalone="no"?>
<!-- Created with Inkscape (http://www.inkscape.org/) -->
<svg xmlns:rdf="http://www.w3.org/1999/02/22-rdf-syntax-ns#" xmlns="http://www.w3.org/2000/svg" height="450.24" width="600" version="1.1" xmlns:cc="http://creativecommons.org/ns#" xmlns:xlink="http://www.w3.org/1999/xlink" xmlns:dc="http://purl.org/dc/elements/1.1/">
 <defs>
  <linearGradient id="linearGradient3504" y2="6394.4" gradientUnits="userSpaceOnUse" x2="-1441.9" gradientTransform="matrix(0.12054551,0,0,0.12054551,456.5236,199.76729)" y1="5896.3" x1="-1441.9">
   <stop stop-color="#ffa03c" offset="0"/>
   <stop stop-color="#fc981e" offset="0.5"/>
   <stop stop-color="#fa9100" offset="1"/>
  </linearGradient>
  <linearGradient id="linearGradient3506" y2="5894.6" gradientUnits="userSpaceOnUse" x2="-2810.1" gradientTransform="matrix(0.12054551,0,0,0.12054551,456.5236,199.76729)" y1="6397.3" x1="-2810.1">
   <stop stop-color="#fba733" offset="0"/>
   <stop stop-color="#fdad4b" offset="0.5"/>
   <stop stop-color="#ffb363" offset="1"/>
  </linearGradient>
  <linearGradient id="linearGradient3508" y2="5895.9" gradientUnits="userSpaceOnUse" x2="-1137.7" gradientTransform="matrix(0.12054551,0,0,0.12054551,456.5236,199.76729)" y1="6995.5" x1="-1137.7">
   <stop stop-color="#fa9100" offset="0"/>
   <stop stop-color="#fd991e" offset="0.5"/>
   <stop stop-color="#ffa03c" offset="1"/>
  </linearGradient>
  <linearGradient id="linearGradient3510" y2="5897.6" gradientUnits="userSpaceOnUse" x2="-1219.1" gradientTransform="matrix(0.12054551,0,0,0.12054551,456.5236,199.76729)" y1="6990.8" x1="-1219.1">
   <stop stop-color="#fba733" offset="0"/>
   <stop stop-color="#fdad4b" offset="0.5"/>
   <stop stop-color="#ffb363" offset="1"/>
  </linearGradient>
  <linearGradient id="linearGradient3512" y2="3989.6" gradientUnits="userSpaceOnUse" x2="-649.88" gradientTransform="matrix(0.12054551,0,0,0.12054551,456.5236,199.76729)" y1="5670.4" x1="-649.88">
   <stop stop-color="#fa9100" offset="0"/>
   <stop stop-color="#fc9716" offset="0.5"/>
   <stop stop-color="#fe9c2d" offset="1"/>
  </linearGradient>
  <linearGradient id="linearGradient3514" y2="3395" gradientUnits="userSpaceOnUse" x2="-657.64" gradientTransform="matrix(0.12054551,0,0,0.12054551,456.5236,199.76729)" y1="4016" x1="-657.64">
   <stop stop-color="#feb056" offset="0"/>
   <stop stop-color="#ffb363" offset="1"/>
  </linearGradient>
  <linearGradient id="linearGradient3516" y2="3965.4" gradientUnits="userSpaceOnUse" x2="-1136" gradientTransform="matrix(0.12054551,0,0,0.12054551,456.5236,199.76729)" y1="3393.6" x1="-1136">
   <stop stop-color="#ffc282" offset="0"/>
   <stop stop-color="#fec079" offset="1"/>
  </linearGradient>
  <linearGradient id="linearGradient3518" y2="3966.5" gradientUnits="userSpaceOnUse" x2="-1219.1" gradientTransform="matrix(0.12054551,0,0,0.12054551,456.5236,199.76729)" y1="5668.2" x1="-1219.1">
   <stop stop-color="#fba733" offset="0"/>
   <stop stop-color="#fdac45" offset="0.5"/>
   <stop stop-color="#feb057" offset="1"/>
  </linearGradient>
 </defs>
 <metadata>
  <rdf:RDF>
   <cc:Work rdf:about="">
    <dc:format>image/svg+xml</dc:format>
    <dc:type rdf:resource="http://purl.org/dc/dcmitype/StillImage"/>
    <dc:title/>
   </cc:Work>
  </rdf:RDF>
 </metadata>
 <g transform="translate(-0.5,-601.62469)">
  <path d="m5.0807,778.71c-2.649,0-4.5807-1.8158-4.5807-4.5807v-61.9c0-5.7609,4.5874-10.065,10.306-10.065h23.145c7.0691,0,11.03,4.6997,11.03,10.246,0,5.9343-5.1961,9.8847-9.8846,9.8847h-12.175v51.714c0,2.8149-1.7837,4.7013-4.7013,4.7013z" fill="#FFF"/>
  <path d="m67.162,778.46c-5.9944,0-9.8846-5.0143-9.8846-9.4872v-79.958c0-2.0883,1.4286-4.2191,4.2191-4.2191h14.093c2.4183,0,3.9884,2.1502,3.9884,4.0184v18.765h15.671c4.0567,0,4.42,1.4247,4.42,2.0794,0,1.0708-0.577,1.7785-1.0652,2.5221l-8.3117,11.899c-2.1462,2.8733-4.1565,3.6303-7.3388,3.6303h-3.3752v30.739h12.402c4.6325,0,9.6573,3.8244,9.6573,10.005,0,5.7172-4.5295,10.005-10.005,10.005z" fill="#FFF"/>
  <path d="m126.71,778.46c-4.8954,0-9.8845-3.7774-9.8845-9.8848v-91.934c0-1.9431,1.4238-4.2611,4.2184-4.2611h13.622c3.0035,0,4.5808,2.0789,4.5808,4.5808v81.489h23.265c2.6155,0,3.8067,0.885,3.8067,2.0625,0,0.9648-0.6445,1.8434-1.2921,2.8255l-7.9511,11.345c-1.6724,2.3645-3.5241,3.7779-6.6181,3.7779z" fill="#FFF"/>
  <path d="m140.21,893.34c-7.3354,0-13.501-3.8199-13.501-11.572,0-4.3451,1.9031-8.4404,3.9779-11.693l135.01-212.4c3.3835-5.4205,9.23-10.565,15.188-10.565,6.9235,0,9.7652,6.4888,9.7652,12.253v87.637c0,8.8067-1.9563,13.51-6.0274,20.01l-74.135,116.33c-5.1299,7.5005-9.5047,10.005-21.698,10.005z" fill="#dcdcdc"/>
  <path d="m282.7,681.18,0-18.564c0-3.4086-1.0535-6.7602-3.5238-6.7602-2.0169,0-4.2927,2.429-5.6759,4.7601l-5.2211,8.2114-0.012,16.897z" fill="#FFF"/>
  <path d="m125.73,980.02c-9.6848,0-16.372-8.3882-16.372-16.274v-44.24c0-8.695,7.1812-16.394,16.394-16.394h148.63c8.9218,0,16.274,7.5571,16.274,16.274v44.24c0,9.2054-7.6702,16.394-16.394,16.394z" fill="#fa9100"/>
  <path d="m166.37,910.22,107.29,0c6.6061,0,9.0409,4.8378,9.0409,9.0409v43.999c0,4.5573-4.1006,7.4739-8.6529,7.4739h-107.67l-27.364-27.364z" fill="url(#linearGradient3504)"/>
  <path d="m166.37,970.74-40.262,0c-4.8229,0-8.3175-4.0911-8.3175-8.3176v-43.758c0-4.4009,3.7115-8.4381,8.438-8.4381h40.142z" fill="url(#linearGradient3506)"/>
  <path d="m317.35,1051.9c-9.2803,0-16.334-7.8915-16.334-16.605v-115.75c0-8.3176,6.8832-16.394,16.394-16.394h103.55c8.6362,0,16.274,7.3139,16.274,16.274v43.879c0,10.182-8.1571,16.756-16.184,16.756h-34.807v55.089c0,10.05-8.1162,16.756-15.883,16.756z" fill="#fa9100"/>
  <path d="m334.29,1043,43.878,0,0-23.868,0-48.098,43.237,0c4.3746,0,7.8747-4.0568,7.8747-8.4526v-43.864c0-4.4825-4.0043-8.4168-8.0766-8.4168h-86.913l-14.894,26.137v92.82z" fill="url(#linearGradient3508)"/>
  <path d="m334.29,1042.7-16.394,0c-4.0283,0-8.3176-3.268-8.3176-8.3177v-116.21c0-3.9371,3.4703-7.8355,8.3176-7.8355h16.394z" fill="url(#linearGradient3510)"/>
  <path d="m317.78,892.74c-9.5084,0-16.756-7.5411-16.756-16.756v-257.96c0-8.5092,7.2063-16.402,16.274-16.402h52.678c9.0849,0,16.274,7.8326,16.274,16.394v258.33c0,8.3275-6.8705,16.394-16.394,16.394z" fill="#fa9100"/>
  <path d="m378.17,684.08,0,199.38-43.878,0-14.827-14.827,0-224.21z" fill="url(#linearGradient3512)"/>
  <path d="m334.29,608.86,35.802,0c4.4495,0,8.0765,3.8262,8.0765,8.0765v67.144c-14.128-2.4404-31.3-5.0144-43.878-6.0273l-17.6-40.865z" fill="url(#linearGradient3514)"/>
  <path d="m309.58,676.48,0-59.429c0-4.2819,3.4978-8.1971,8.1971-8.1971h16.515v69.193l-14.586,8.4211z" fill="url(#linearGradient3516)"/>
  <path d="m334.29,883.46-16.53,0c-4.3253,0-8.182-3.6213-8.182-8.1971v-198.84c7.5766,0.2745,16.475,0.8178,24.712,1.6264z" fill="url(#linearGradient3518)"/>
  <path d="m166.01,884.67,27.123,0c7.6924,0,11.922-8.0404,15.427-13.688l69.618-109.21c3.8505-6.2091,4.5202-9.5112,4.5202-17.058v-63.528c-4.6662-4.202-9.4862-8.3116-14.421-12.353l-102.27,160.38-14.465,44.24z" fill="#e4e4e4"/>
  <path d="m166.01,884.67-26.191,0c-3.7224,0-5.2089-1.5028-5.2089-3.5196,0-2.4285,1.7716-5.2722,2.9034-7.0591l28.497-44.872z" fill="#FFF"/>
  <path fill-rule="nonzero" fill="#FFF" d="m440.63,684.82,0,36.033,37.98,0,0-36.033,20.652,0,0,93.86-20.652,0,0-40.499-37.98,0,0,40.499-20.652,0,0-93.86,20.652,0z"/>
  <path fill-rule="nonzero" fill="#FFF" d="m556.44,761.33c2.9887,0,5.8767-0.5037,8.6976-1.444,2.7872-0.9739,5.2722-2.5858,7.4886-4.8021,2.1828-2.25,3.929-5.138,5.2387-8.7312,1.3096-3.5932,1.9813-7.9923,1.9813-13.164,0-4.735-0.4702-8.9998-1.3769-12.794-0.9402-3.8283-2.4514-7.0857-4.5334-9.8057-2.1157-2.7201-4.9029-4.8022-8.3618-6.2462s-7.7237-2.1827-12.828-2.1827h-14.709v59.17h18.403zm1.444-76.532c6.0446,0,11.686,0.9739,16.891,2.888,5.2387,1.9477,9.7386,4.8357,13.533,8.6976,3.8282,3.8618,6.7834,8.6639,8.9326,14.474,2.1492,5.776,3.2573,12.559,3.2573,20.35,0,6.8506-0.8731,13.164-2.6529,18.94-1.7462,5.776-4.3991,10.78-7.9251,15.011-3.5597,4.1975-7.9924,7.4885-13.298,9.9064-5.3059,2.4178-11.552,3.6267-18.738,3.6267h-40.499v-93.893h40.499z"/>
 </g>
</svg>
