<svg xmlns="http://www.w3.org/2000/svg" viewBox="0 0 600 131"><g transform="translate(-113.18-208.89)"><path d="m154.6 245.28h-14.979v21.76h14.979c7.262 0 11.487-5.288 11.487-10.88 0-5.592-4.226-10.88-11.487-10.88m13.01 83.929l-19.05-40.08h-8.932v40.08h-26.441v-107.66h42.635c23.886 0 36.74 16.928 36.74 34.614 0 14.676-9.08 23.886-17.535 28.14l23.279 44.912h-30.692z"/><path d="m256.89 245.13v84.08h-26.467v-84.08h-26.467v-23.582h79.4v23.582h-26.467"/><path d="m378.37 305.62h-53.14v-84.08h-26.467v107.66h71.784l7.819-23.582z"/><g fill="#fd0"><path d="m713.18 208.89h-39.523l-43.37 130.99h39.498l43.39-130.99"/><path d="m634.17 208.89h-26.34l-43.39 130.99h26.34l43.39-130.99"/><path d="m555.16 208.89h-13.183l-43.39 130.99h13.183l43.39-130.99"/></g><path d="m419.58 339.87h26.34l39.22-118.34h-79.15l-8.223 25.23h52.655l-30.844 93.11"/></g></svg>