<svg xmlns="http://www.w3.org/2000/svg" height="137.55" width="600" viewBox="0 0 158.75 36.39412"><g transform="translate(174.4-159.54)"><path d="m-174.4 195.93h158.75v-36.39h-158.75z" fill="#46a7da"/><g fill="#fff"><path d="m-112.4 177.14c.001-3.79 1.3-6.01 4.03-6 2.11 0 2.88 1.54 3.42 3.49l5.196-1.53c-.846-3.63-3.036-6.48-8.586-6.5-5.16-.001-9.54 3.08-9.55 10.53-.001 2.21.36 4.04 1.01 5.51l5.59-.87c-.74-1.08-1.11-2.67-1.11-4.63"/><path d="m-88.83 176.12h-2.363l.011-4.64h2.363c2.255 0 3.24.61 3.235 2.32 0 1.7-.991 2.33-3.246 2.32m.213-9.09l-7.94-.02-.027 12.47 15.618-2.44c.49-.9.741-2.01.741-3.37.011-4.89-3.17-6.62-8.392-6.64"/><path d="m-76.63 167.06l-.021 9.31 5.494-.86.022-8.44z"/><path d="m-59.9 167.1l-7.282-.02-.016 7.82 8.942-1.4z"/><path d="m-53.06 167.11l-1.361 5.79 8.795-1.37.011-4.4z"/><path d="m-102.49 180.54l-.42 1.37c-.62 1.64-1.53 2.51-3.24 2.5-1.29-.001-2.27-.56-2.94-1.53l-5.59.87c1.55 3.5 4.72 5.04 8.49 5.06 5.55.001 7.894-2.98 8.891-7.1z"/><path d="m-94.4 188.45l5.386.001.016-7.06h1.509l3.915 7.07 5.822.001-4.297-7.78c1.53-.51 2.625-1.34 3.284-2.56l-15.619 2.44z"/><path d="m-74.48 188.49l5.495.001.027-11.88-5.495.85z"/><path d="m-54.11 182h-.054l-1.901-7.4-8.937 1.4-.032 12.51 4.89.001.033-12.85h.054c.43 2.67.681 3.57 1.138 5.22l2.075 7.65 4.836.001 2.162-7.64c.441-1.56.773-2.85 1.106-4.94h.054l-.027 12.58 5.25.001.032-15.93-8.795 1.38z"/><path d="m-34.16 180.4l6.431.001.005-4.28-6.426-.02.006-3.3 9.01.02.005-3.06-14.507 2.27-.039 16.53 14.971.03.011-4.42-9.481-.02z"/><path d="m-27.316 167.17l-14.508-.03-.005 3.79 14.507-2.26z"/></g><g fill="#000205"><path d="m-158.51 177.4c3.2 0 4.99-.88 4.99-3.66 0-2.68-1.76-3.59-5.01-3.59h-4.44v7.25zm-6.86-9.45h7c4.63 0 7.25 1.95 7.25 5.7 0 3.28-1.85 4.99-4.74 5.6l5.02 9.09h-2.65l-4.88-8.79h-4.6v8.79h-2.4z"/><path d="m-142.49 170.18h-6.47v-2.23h15.4v2.23h-6.5v18.16h-2.43z"/><path d="m-130.22 167.95h2.42v18.19h9.82v2.2h-12.24z"/></g></g></svg>