<svg xmlns="http://www.w3.org/2000/svg" height="108.82" width="600" viewBox="0 0 158.75 28.790979"><g transform="translate(157.82-163.34)"><path d="m-157.82 192.13h125.59v-28.79h-125.59z" fill="#46a7da"/><g fill="#fff"><path d="m-108.77 177.27c.001-3 1.03-4.76 3.18-4.76 1.68.001 2.28 1.22 2.71 2.77l4.114-1.21c-.668-2.87-2.404-5.13-6.794-5.15-4.08 0-7.54 2.44-7.56 8.34 0 1.75.29 3.19.81 4.36l4.42-.69c-.59-.86-.88-2.11-.88-3.66"/><path d="m-90.12 176.46h-1.87l.009-3.68 1.87.001c1.783 0 2.563.48 2.559 1.83 0 1.35-.785 1.84-2.568 1.84m.168-7.19l-6.281-.02-.022 9.86 12.356-1.93c.388-.71.586-1.59.586-2.66.008-3.87-2.508-5.24-6.639-5.25"/><path d="m-80.47 169.29l-.017 7.36 4.346-.68.018-6.67z"/><path d="m-67.24 169.32l-5.76-.001-.013 6.18 7.07-1.1z"/><path d="m-61.827 169.33l-1.077 4.58 6.958-1.09.009-3.48z"/><path d="m-100.93 179.96l-.33 1.08c-.49 1.29-1.21 1.98-2.57 1.98-1.02-.001-1.79-.44-2.33-1.22l-4.42.69c1.23 2.77 3.74 3.99 6.72 4 4.391.001 6.247-2.35 7.04-5.61z"/><path d="m-94.53 186.21l4.261.001.013-5.59h1.193l3.098 5.6 4.605.001-3.399-6.16c1.211-.41 2.077-1.06 2.598-2.02l-12.356 1.93z"/><path d="m-78.78 186.24l4.347.001.022-9.4-4.347.68z"/><path d="m-62.66 181.11h-.043l-1.503-5.85-7.07 1.1-.026 9.9 3.869.001.026-10.17h.043c.34 2.11.538 2.82.9 4.13l1.642 6.05 3.825.001 1.711-6.04c.349-1.24.611-2.26.874-3.91h.043l-.021 9.95 4.153.001.026-12.6-6.958 1.08z"/><path d="m-46.876 179.84l5.088.001.004-3.39-5.083-.001.004-2.61 7.13.02.004-2.42-11.476 1.79-.031 13.08 11.843.02.009-3.49-7.5-.02z"/><path d="m-41.461 169.38l-11.477-.03-.004 3 11.476-1.79z"/></g><g fill="#000205"><path d="m-145.24 177.47c2.52 0 3.94-.7 3.94-2.9 0-2.12-1.39-2.83-3.97-2.83h-3.51v5.73zm-5.43-7.48h5.53c3.67 0 5.74 1.55 5.74 4.52 0 2.59-1.46 3.94-3.75 4.42l3.97 7.19h-2.1l-3.86-6.95h-3.64v6.95h-1.89z"/><path d="m-132.57 171.76h-5.12v-1.77h12.18v1.77h-5.14v14.36h-1.92z"/><path d="m-122.87 169.99h1.92v14.39h7.76v1.74h-9.68z"/></g><g fill="#46a7da"><path d="m-28.781 169.3h1.637v7.32h9.263v-7.32h1.637v17.09h-1.637v-8.27h-9.263v8.27h-1.637z"/><path d="m-7.309 184.91c4.226 0 6.604-2.15 6.604-7.09 0-4.83-2.404-7-6.652-7h-2.886v14.09zm-4.571-15.61h4.316c5.566 0 8.495 2.89 8.495 8.52 0 5.63-2.998 8.57-8.495 8.57h-4.316z"/></g></g></svg>