<svg xmlns="http://www.w3.org/2000/svg" viewBox="0 0 600 207.79"><g transform="translate(301.24 1208.79)"><path d="m-301.24-1208.8h600v131.52h-600v-131.52"/><g fill="#fff"><path d="m175.73-1121.3v-61.06h-70.916l.57 78.73h163.49v-17.668h-93.14"/><path d="m-126.63-1183.1c-46.68 0-93.36.109-140.04.109l.57 79.84h63.859v-30.532l12.43-.109 33.27 31.21 60.38-1.167-32.812-30.04c26.597-7.545 25.81-43.34 2.334-49.31m-48.634 34.17h-26.977l-.081-18.238h27.06c11.534 1.737 8.657 17.994 0 18.238"/><path d="m-87.37-1162.4h52.13v58.13h69.18v-57.51h49.18v-21.17h-169.92l-.57 20.545z"/></g><path d="m-300.59-1002.7v-61.47h19.785v25.05l36.91-25.05h25.81l-39.19 25.21 41.578 36.26h-25.918l-29.691-26.841-9.499 5.998v20.843h-19.785"/><path d="m-127.59-1002.7v-61.47h20.19v50.26h47.738v11.209h-67.93"/><path d="m40.613-1023.1v-41.14h20.463v39.949c0 4.397 1.927 7.653 5.754 9.852 3.04 1.71 6.866 2.551 11.48 2.551 7.219 0 12.403-1.221 15.524-3.582 2.497-1.954 3.745-4.695 3.745-8.305v-40.465h20.599v40.465c0 8.25-3.962 14.275-11.887 18.05-6.622 3.121-15.714 4.695-27.302 4.695-10.503 0-19.16-1.574-25.918-4.695-8.305-3.881-12.457-9.689-12.457-17.369"/><path d="m262.6-1002.7h-43.31v-61.47h47.33c9.06 0 16.257 1.438 21.522 4.342 4.912 2.741 7.355 6.242 7.355 10.53 0 3.175-.787 5.862-2.388 8.03-1.981 2.605-5.05 4.451-9.255 5.455 4.912 1.14 8.685 3.121 11.371 5.916 2.334 2.524 3.501 5.292 3.501 8.305v1.357c-.923 6.05-4.342 10.476-10.313 13.298-5.971 2.822-14.574 4.234-25.81 4.234m-23.937-50.805v13.353h24.48c4.18 0 7.409-.597 9.689-1.791l3.42-4.885-2.687-4.777c-2.117-1.248-5.998-1.9-11.643-1.9h-23.259zm0 40.27h25.538c4.288 0 7.626-.57 10.04-1.791 2.931-1.411 4.397-3.61 4.397-6.568 0-3.01-1.628-5.211-4.939-6.595-2.415-1.031-5.482-1.52-9.227-1.52h-25.81v16.474"/></g></svg>