<svg xmlns="http://www.w3.org/2000/svg" height="110.72" width="600" viewBox="0 0 158.75 29.29555"><g transform="translate(103.19-139.71)"><path d="m-103.19 139.71v29.29l124.05.001v-29.3z" fill="#f8b72e"/><g fill="#815012"><path d="m-88.83 156.27c2.206 0 3.843-1.11 3.843-3.01v-.04c0-1.77-1.396-2.88-3.787-2.88h-4.502v5.93zm-5.424-6.83h5.536c1.62 0 2.921.51 3.714 1.3.62.62.995 1.5.995 2.45v.03c0 2.21-1.637 3.47-3.86 3.77l4.351 5.63h-1.245l-4.201-5.46h-4.312v5.46h-.978z"/><path d="m-77.17 150.34h-4.596v-.9h10.171v.9h-4.597v12.28h-.978z"/><path d="m-68.62 149.44h.978v12.28h7.742v.9h-8.72z"/></g><g fill="#fff"><path d="m-56.38 162.62v-2.23h2.068v-13.23h-1.934v-2.23h4.321v15.46h1.912v2.23z"/><path d="m-47.49 162.62v-2.23h1.908v-8.64h-1.908v-2.23h4.295v10.87h1.939v2.23z"/><path d="m-27.11 151.75l-4.403 10.87h-2.572l-4.325-10.87h-1.883v-2.23h6.075v2.23h-1.564l2.994 7.9 3.132-7.9h-1.672v-2.23h6.02v2.23z"/><path d="m-23.712 161.61c1.667-.14 2.107-.7 2.107-2.48v-6.73h-1.874v-.79l3.364-2.16h.759v9.68c0 1.78.439 2.34 2.076 2.48v1.09h-6.402z"/><path d="m-15.252 161.61c1.52-.14 1.96-.7 1.96-2.48v-6.64h-1.93v-.73l3.36-2.34h.793v3.42c2.632-2.89 4.356-3.42 5.381-3.42 1.723 0 3.01 1.4 3.01 3.3v6.41c0 1.78.409 2.31 1.844 2.48v1.09h-6.174v-1.09c1.637-.17 2.076-.7 2.076-2.48v-5.44c0-1.64-.526-2.34-1.753-2.34s-2.339.7-4.356 2.78v5c0 1.78.435 2.34 2.02 2.48v1.09h-6.229z"/><path d="m3.117 153.85c0 1.92 1.292 3.45 3.046 3.45 1.482 0 2.667-1.24 2.667-2.96 0-1.81-1.293-3.4-2.882-3.4-1.564 0-2.83 1.21-2.83 2.91m1.538 8.57c-1.189.79-1.943 1.75-1.943 2.53 0 1.11 1.077 1.73 3.072 1.73 2.533 0 4.825-1.24 4.825-2.61 0-.97-.918-1.3-4.446-1.54-.215 0-.487-.03-.728-.05zm-.866-4.36c-1.805-.81-2.718-2.11-2.718-3.83 0-2.42 2.318-4.45 5.092-4.45 1.4 0 2.533.44 3.636 1.43l2.348-1.18c.133-.09.293-.14.375-.14.137 0 .189.11.189.33v1.18c0 .27-.862.46-2.344.54.375.7.565 1.35.565 2.1 0 2.43-2.21 4.39-4.959 4.39-.267 0-.672-.02-1.103-.11l-.323.25c-.836.65-1.215 1.05-1.215 1.37 0 .46.297.49 3.261.7l.728.06c2.477.19 4.932.38 4.932 2.53 0 2.62-3.235 4.5-7.655 4.5-2.262 0-3.692-.81-3.692-2.1 0-.89 1-1.99 2.938-3.26-2.076-.41-2.882-.57-2.882-1.43 0-.46.508-1 2.21-2.37z"/></g><path d="m3.117 153.85c0 1.92 1.292 3.45 3.046 3.45 1.482 0 2.667-1.24 2.667-2.96 0-1.81-1.293-3.4-2.882-3.4-1.564 0-2.83 1.21-2.83 2.91zm1.538 8.57c-1.189.79-1.943 1.75-1.943 2.53 0 1.11 1.077 1.73 3.072 1.73 2.533 0 4.825-1.24 4.825-2.61 0-.97-.918-1.3-4.446-1.54-.215 0-.487-.03-.728-.05zm-.866-4.36c-1.805-.81-2.718-2.11-2.718-3.83 0-2.42 2.318-4.45 5.092-4.45 1.4 0 2.533.44 3.636 1.43l2.348-1.18c.133-.09.293-.14.375-.14.137 0 .189.11.189.33v1.18c0 .27-.862.46-2.344.54.375.7.565 1.35.565 2.1 0 2.43-2.21 4.39-4.959 4.39-.267 0-.672-.02-1.103-.11l-.323.25c-.836.65-1.215 1.05-1.215 1.37 0 .46.297.49 3.261.7l.728.06c2.477.19 4.932.38 4.932 2.53 0 2.62-3.235 4.5-7.655 4.5-2.262 0-3.692-.81-3.692-2.1 0-.89 1-1.99 2.938-3.26-2.076-.41-2.882-.57-2.882-1.43 0-.46.508-1 2.21-2.37z" stroke="#fff" stroke-miterlimit="10" stroke-width=".078" fill="none"/><g><g fill="#fff"><path d="m-21.665 145.49c0-.7.556-1.4 1.405-1.4.818.03 1.43.64 1.43 1.4 0 .79-.642 1.44-1.43 1.44-.763 0-1.405-.65-1.405-1.44"/><path d="m-46.06 145.49c0-.7.555-1.4 1.404-1.4.819.03 1.435.64 1.435 1.4 0 .79-.647 1.44-1.435 1.44-.763 0-1.404-.65-1.404-1.44"/></g><g fill="#f8b72e"><path d="m24.735 144.97h1.702v7.59h9.602v-7.59h1.702v17.73h-1.702v-8.58h-9.602v8.58h-1.702z"/><path d="m47.01 161.16c4.382 0 6.85-2.22 6.85-7.35 0-5.01-2.49-7.25-6.897-7.25h-2.994v14.6zm-4.743-16.19h4.48c5.773 0 8.815 3 8.815 8.84 0 5.85-3.115 8.89-8.815 8.89h-4.48z"/></g></g></g></svg>