<svg xmlns="http://www.w3.org/2000/svg" viewBox="0 0 494 91.09"><g transform="translate(-117.36-380.15)"><path d="m122.36 385.15v81h12v-70.22h20.5c8.31 0 15 6.69 15 15 0 8.31-6.695 14.709-15 15h-17.5l28 40.22h16l-22.406-29.25c12.706-1.682 22.438-12.474 22.438-25.656v-.188c0-14.358-11.548-25.906-25.906-25.906h-3.125-1.156zm62.5 0v11h15.313v70h11v-70h15.688v-11zm50.31 0v81h42.688v-9h-31.688v-72z" fill="#d2d2d2"/><path d="m165 16v81h19v-52l32 52h18v-81h-19v52l-32-52h-18m80 0v81h21v-81h-21m29 0v17.5h16.5v63.5h21v-63.5h16.5v-17.5h-54m61 0v81l21 .094v-63.09h21.16c6.371 0 11.5 5.129 11.5 11.5 0 6.371-5.129 11.5-11.5 11.5h-19.16l29 40h24l-21.719-26.844c11.929-3.01 20.719-13.767 20.719-26.656 0-15.235-12.265-27.5-27.5-27.5h-47.5m120 0c-23.2 0-42 18.13-42 40.5 0 22.368 18.804 40.5 42 40.5 23.2 0 42-18.13 42-40.5 0-22.368-18.804-40.5-42-40.5m0 17.906c12.15 0 22 10.111 22 22.563 0 12.452-9.85 22.531-22 22.531-12.15 0-22-10.08-22-22.531 0-12.452 9.85-22.563 22-22.563" transform="translate(109.36 369.15)" fill="#bae637"/></g></svg>