<svg xmlns="http://www.w3.org/2000/svg" viewBox="0 0 643.47 81.25"><defs><clipPath><path d="m132.25 26.21h32.02v15.282h-32.02v-15.282"/></clipPath></defs><path d="m508.81 0v81.25h11.5v-34.875h34.5v34.875h11.5v-81.25h-11.5v34.875h-34.5v-34.875h-11.5m66.5 0v81.25h30.781c20.709 0 37.37-18.12 37.37-40.625 0-22.506-16.666-40.625-37.37-40.625h-30.781m-575.31.063v81h12v-70.22h20.5c8.31 0 15 6.69 15 15 0 8.31-6.695 14.709-15 15h-17.5l28 40.22h16l-22.406-29.25c12.706-1.682 22.438-12.474 22.438-25.656v-.188c0-14.358-11.548-25.906-25.906-25.906h-3.125-1.156-28.844m62.5 0v11h15.313v70h11v-70h15.688v-11h-42m50.31 0v81h42.688v-9h-31.688v-72h-11m474 10.813h18.16c15.17 0 27.375 13.264 27.375 29.75 0 16.486-12.205 29.75-27.375 29.75h-18.16v-59.5" fill="#d2d2d2"/><path d="m152 .063v81h19v-52l32 52h18v-81h-19v52l-32-52h-18m80 0v81h21v-81h-21m29 0v17.5h16.5v63.5h21v-63.5h16.5v-17.5h-54m61 0v81l21 .094v-63.09h21.16c6.371 0 11.5 5.129 11.5 11.5 0 6.371-5.129 11.5-11.5 11.5h-19.16l29 40h24l-21.719-26.844c11.929-3.01 20.719-13.767 20.719-26.656 0-15.235-12.265-27.5-27.5-27.5h-47.5m120 0c-23.2 0-42 18.13-42 40.5 0 22.368 18.804 40.5 42 40.5 23.2 0 42-18.13 42-40.5 0-22.368-18.804-40.5-42-40.5m0 17.906c12.15 0 22 10.111 22 22.563 0 12.452-9.85 22.531-22 22.531-12.15 0-22-10.08-22-22.531 0-12.452 9.85-22.563 22-22.563" fill="#bae637"/></svg>