<svg xmlns="http://www.w3.org/2000/svg" height="90.38" width="600" viewBox="0 0 158.75 23.913047"><g stroke-width=".827"><g fill="#cb2367"><path d="m134.17 4.93h1.36v6.06h7.66v-6.06h1.35v14.14h-1.35v-6.841h-7.66v6.841h-1.36z"/><path d="m151.93 17.842c3.5 0 5.47-1.778 5.47-5.865 0-3.995-1.99-5.79-5.51-5.79h-2.38v11.655zm-3.78-12.912h3.57c4.61 0 7.03 2.391 7.03 7.05 0 4.657-2.48 7.089-7.03 7.089h-3.57z"/><path d="m0 0v23.913h131.32v-23.913z"/></g><g fill="#63103c"><path d="m12.3 12.953c2.151 0 3.756-1.083 3.756-2.945v-.033c0-1.729-1.365-2.821-3.706-2.821h-4.393v5.798zm-5.302-6.675h5.41c1.588 0 2.854.488 3.631 1.266.604.612.968 1.472.968 2.391v.041c0 2.151-1.597 3.384-3.772 3.681l4.26 5.501h-1.216l-4.111-5.335h-4.21v5.335h-.96z"/><path d="m23.451 7.155h-4.492v-.885h9.943v.885h-4.492v12h-.959z"/><path d="m31.805 6.27h.96v12h7.565v.885h-8.525z"/></g><g fill="#fff"><path d="m48.32 12.945c2.484 0 4.166-1.299 4.166-3.284v-.041c0-2.117-1.643-3.226-4.052-3.226h-3.781v6.551zm-4.661-7.47h4.854c2.939 0 4.967 1.505 4.967 4.086v.041c0 2.813-2.427 4.26-5.217 4.26h-3.61v4.988h-.994z"/><path d="m63.42 14.211l-3.517-7.743-3.535 7.743zm-3.972-8.835h.954l6.23 13.475h-1.091l-1.699-3.747h-7.894l-1.7 3.747h-1.03z"/><path d="m68.02 16.899l.648-.745c1.472 1.357 2.83 1.994 4.797 1.994 2.01 0 3.382-1.133 3.382-2.664v-.033c0-1.414-.745-2.241-3.781-2.845-3.211-.654-4.511-1.737-4.511-3.772v-.033c0-1.985 1.813-3.515 4.3-3.515 1.947 0 3.23.538 4.584 1.621l-.628.786c-1.262-1.092-2.523-1.514-3.995-1.514-1.967 0-3.268 1.133-3.268 2.523v.041c0 1.414.727 2.275 3.9 2.92 3.092.637 4.393 1.745 4.393 3.689v.041c0 2.159-1.853 3.648-4.433 3.648-2.138 0-3.785-.703-5.388-2.142"/><path d="m79.77 16.899l.649-.745c1.471 1.357 2.829 1.994 4.797 1.994 2.01 0 3.381-1.133 3.381-2.664v-.033c0-1.414-.744-2.241-3.781-2.845-3.211-.654-4.511-1.737-4.511-3.772v-.033c0-1.985 1.817-3.515 4.301-3.515 1.946 0 3.229.538 4.583 1.621l-.627.786c-1.262-1.092-2.523-1.514-3.996-1.514-1.967 0-3.267 1.133-3.267 2.523v.041c0 1.414.727 2.275 3.899 2.92 3.092.637 4.394 1.745 4.394 3.689v.041c0 2.159-1.853 3.648-4.433 3.648-2.143 0-3.786-.703-5.389-2.142"/><path d="m92.71 5.476h.994v13.376h-.994z"/><path d="m109.45 12.2v-.041c0-3.3-2.41-6.01-5.71-6.01-3.31 0-5.681 2.672-5.681 5.981v.033c0 3.309 2.411 6.02 5.711 6.02 3.31 0 5.68-2.672 5.68-5.981m-12.421 0v-.041c0-3.648 2.695-6.915 6.741-6.915 4.05 0 6.71 3.226 6.71 6.882v.033c0 3.648-2.7 6.924-6.74 6.924-4.055 0-6.711-3.235-6.711-6.883"/><path d="m113.19 5.476h.94l9.23 11.638v-11.638h.95v13.375h-.74l-9.42-11.887v11.887h-.96z"/></g></g></svg>