<?xml version="1.0" encoding="UTF-8" standalone="no"?>
<!-- Created with Inkscape (http://www.inkscape.org/) -->
<svg xmlns:rdf="http://www.w3.org/1999/02/22-rdf-syntax-ns#" xmlns="http://www.w3.org/2000/svg" height="166.43" width="600" version="1.1" xmlns:cc="http://creativecommons.org/ns#" xmlns:dc="http://purl.org/dc/elements/1.1/">
 <defs></defs>
 <metadata>
  <rdf:RDF>
   <cc:Work rdf:about="">
    <dc:format>image/svg+xml</dc:format>
    <dc:type rdf:resource="http://purl.org/dc/dcmitype/StillImage"/>
    <dc:title/>
   </cc:Work>
  </rdf:RDF>
 </metadata>
 <g transform="translate(-105.18915,-452.29413)">
  <g transform="matrix(1.4046079,0,0,1.4046079,-163.94272,-216.67163)">
   <g transform="matrix(13.481631,0,0,-13.481631,214.78133,528.76259)">
    <path fill-rule="nonzero" fill="#1e5eac" d="M0,0,0.586,0c0.498,0,0.615,0.534,0.615,1.057,0,1.01-0.361,1.056-1.201,1.033v-2.09zm0-4.895-1.719,0,0,8.518,2.51,0c1.406,0,1.943-0.419,1.943-2.111,0-0.909-0.233-1.419-0.799-1.973v0.002c0.478-0.125,0.82-0.536,0.85-1.127,0.048-0.681-0.087-2.307,0.213-2.899,0.054-0.106,0.088-0.216,0.166-0.296v-0.114h-1.686c-0.049,0.16-0.277,0.852-0.287,1.023-0.029,0.75,0.01,1.212-0.039,1.734-0.048,0.523-0.185,0.987-0.586,1.021h-0.566"/>
   </g>
   <g transform="matrix(13.481631,0,0,-13.481631,245.31722,479.91864)">
    <path fill-rule="nonzero" fill="#1e5eac" d="m0,0,4.454,0,0-1.603-1.279,0,0-6.915-1.719,0,0,6.915-1.456,0"/>
   </g>
   <g transform="matrix(13.481631,0,0,-13.481631,457.69336,479.91864)">
    <path fill-rule="nonzero" fill="#1e5eac" d="m0,0,4.454,0,0-1.603-1.279,0,0-6.915-1.719,0,0,6.915-1.456,0"/>
   </g>
   <g transform="matrix(13.481631,0,0,-13.481631,595.66437,479.91864)">
    <path fill-rule="nonzero" fill="#1e5eac" d="m0,0,1.714,0,0-8.518-1.717,0"/>
   </g>
   <g transform="matrix(13.481631,0,0,-13.481631,570.21105,479.91864)">
    <path fill-rule="nonzero" fill="#1e5eac" d="M0,0-1.028-5.01-2.057,0h-1.89l1.74-8.518h2.357l1.739,8.518"/>
   </g>
   <g transform="matrix(13.481631,0,0,-13.481631,309.2606,594.75518)">
    <path fill-rule="nonzero" fill="#1e5eac" d="m0,0,0,8.518,1.719,0,0-7.153,2.065,0,0-1.365"/>
   </g>
   <g transform="matrix(13.481631,0,0,-13.481631,438.68426,488.87045)">
    <path fill-rule="nonzero" fill="#ef4237" d="m0,0c-0.471,0.497-1.46,0.927-2.477,0.935h-0.028c-1.017-0.008-2.005-0.438-2.476-0.935-1.013-1.071-0.602-2.451,0.502-3.221,0.433-0.302,1.004-0.446,1.386-0.797,0.34-0.312,0.407-0.734,0.599-1.128v-0.015c0.001,0.003,0.002,0.005,0.004,0.007,0.001-0.002,0.002-0.004,0.003-0.007v0.015c0.192,0.394,0.258,0.816,0.599,1.128,0.382,0.351,0.953,0.495,1.385,0.797,1.105,0.77,1.516,2.15,0.503,3.221"/>
   </g>
   <g transform="matrix(13.481631,0,0,-13.481631,419.04152,565.21692)">
    <path fill-rule="nonzero" fill="#ef4237" d="m0,0-0.002-2.148-2.094-0.006,0.001,2.144"/>
   </g>
  </g>
 </g>
</svg>
