<svg xmlns="http://www.w3.org/2000/svg" viewBox="0 0 772 157"><g transform="matrix(16.89426 0 0 16.89426-5333.64-10909.53)"><g fill="#003b79"><path d="m330.88 653.92c-1.285 0-2.367-.923-2.562-2.229h2.435c.268 0 .854.058.854.058v-1.082c0 0-.575.043-.896.043h-2.393c.241-1.281 1.29-2.165 2.562-2.165.671 0 1.497.309 1.497.309l.015-1.139c0 0-.587-.225-1.512-.225-2.141 0-4.01 1.645-4.01 3.737 0 2.264 1.872 3.793 4.01 3.793 1.01 0 1.606-.27 1.606-.27l-.028-1.179c0 0-.74.349-1.578.349"/><path d="m323.6 654.99c0 0 .081-.547.081-1.025v-5.194h-.35c-.477 0-1.215 0-1.759.053l-.046-1.206h5.68l-.028 1.206c-.563-.053-1.286-.053-1.776-.053h-.431v5.194c0 .479.095 1.025.095 1.025h-1.466"/></g><path d="m332.4 647.02c-.418-.118-.965-.199-1.423-.199-1.247 0-2.321.38-3.218 1.182l.014-.887c.949-.648 2.027-.94 3.204-.94.515 0 .964.07 1.437.194l-.014.65" fill="#008f4f"/><g fill="#003b79"><path d="m318.15 651.2h-1.06v-2.682c0 0 .516-.014 1.13-.014.092 0 .181.007.262.011.985.082 1.392.621 1.392 1.27 0 .729-.571 1.277-1.392 1.395-.108.014-.219.02-.332.02m2.899 2.783l-1.974-1.91c1.214-.117 2.235-1.014 2.235-2.178 0-1.239-.71-2.335-2.829-2.423-.089-.005-.18-.008-.275-.008-1.467 0-2.473.07-2.473.07 0 0 .067.729.067 1.094v5.354c0 .493-.096 1.01-.096 1.01h1.48c0 0-.096-.518-.096-1.107v-2.179l1.392 1.463.703.73c.434.475 1.189 1.093 1.189 1.093h1.957c.002 0-.874-.618-1.28-1.01"/><path d="m334.62 655c.097-.214.097-.533.097-.765v-.559c0-.128-.005-.27-.088-.349h.28c.053 0 .078 0 .11.042.059.073.236.354.322.47l.553.736c.02.026.041.063.059.063.02 0 .02-.025.02-.049v-.927c0-.177-.027-.267-.066-.335h.288c-.066.121-.083.257-.083.391v1.049c0 .087.003.165.006.244h-.197l-1.016-1.365c-.013-.017-.021-.029-.031-.029-.001 0-.018.017-.018.039v.674c0 .209-.005.475.083.67h-.319"/><path d="m338.58 655l-.057-.096c-.277-.486-.455-1.054-.633-1.576h-.328l-.002.071c0 .215-.572 1.34-.729 1.527l-.063.073h.349c-.007-.033-.001-.064-.001-.099 0-.15.125-.406.244-.634h.626l.302.732h.301v.002m-.651-.838h-.53l.241-.56c.006-.014.022-.064.048-.064.024 0 .041.045.047.064l.194.56"/><path d="m342.03 653.6c-.188-.144-.347-.195-.56-.195-.431 0-.681.343-.681.726 0 .485.245.799.78.799.072 0 .136-.007.204-.017.029-.09.029-.182.029-.271v-.128c0-.117 0-.254-.062-.344h.372c-.061.09-.061.227-.061.344v.263c0 .067.007.162.019.227-.169.027-.396.043-.592.043-.586 0-.979-.244-.979-.833 0-.635.487-.923 1.109-.923.14 0 .278.018.419.028v.281h.003"/><path d="m344.51 655l-.056-.096c-.278-.486-.456-1.054-.634-1.576h-.327l-.002.071c0 .215-.573 1.34-.731 1.527l-.061.073h.347c-.005-.033-.008-.064-.008-.099 0-.15.125-.406.244-.634h.625l.303.732h.3v.002m-.651-.838h-.528l.24-.56c.007-.014.022-.064.048-.064.026 0 .042.045.048.064l.192.56"/><path d="m345.51 654.9h.319c.172 0 .35-.04.48-.149l-.05.241c-.076.006-.167.013-.268.013h-.802c.061-.089.069-.226.069-.344v-.985c0-.118 0-.254-.062-.343h.971v.201c-.098-.078-.246-.097-.41-.097h-.259v.627c.213 0 .438 0 .653-.019-.098.148-.412.148-.584.148h-.069v.707h.002"/><path d="m347.19 653.67c0-.118 0-.255-.062-.344h.372c-.061.089-.061.226-.061.344v1.225h.21c.156 0 .298-.021.437-.149l-.054.246c-.055.006-.113.007-.168.007h-.769c.082-.102.094-.471.094-.594v-.735"/><path d="m349.1 655c.062-.089.062-.225.062-.343v-1.198h-.369c-.064 0-.129.009-.197.058l.057-.188h1.396c-.048.113-.217.131-.331.131h-.306v1.198c0 .118 0 .254.061.343h-.373"/><path d="m352.18 655l-.056-.096c-.277-.486-.454-1.054-.632-1.576h-.328l-.003.071c0 .215-.571 1.34-.73 1.527l-.06.073h.346c-.006-.033-.008-.064-.008-.099 0-.15.124-.406.244-.634h.626l.301.732h.3v.002m-.648-.838h-.53l.242-.56c.005-.014.021-.064.046-.064.025 0 .042.045.048.064l.194.56"/><path d="m354.08 653.64h-.008c-.067-.112-.161-.235-.447-.235-.435 0-.608.337-.608.711 0 .411.223.73.678.73.238 0 .398-.097.48-.182v.017c0 .118-.2.364-.634.364-.505 0-.816-.377-.813-.857 0-.537.336-.898.898-.898.161 0 .278.02.464.02v.33"/><path d="m356.11 653.67c0-.118-.003-.238-.063-.344h.378c-.063.105-.065.226-.065.344v.986c0 .118.003.238.065.342h-.378c.061-.104.063-.224.063-.342v-.507h-.821v.507c0 .118.003.238.063.342h-.378c.062-.104.065-.224.065-.342v-.986c0-.118-.004-.238-.065-.344h.378c-.061.105-.063.226-.063.344v.375h.821v-.375"/><path d="m357.65 655c.061-.089.061-.225.061-.343v-1.198h-.37c-.063 0-.127.009-.195.058l.055-.188h1.396c-.048.113-.216.131-.329.131h-.307v1.198c0 .118 0 .254.063.343h-.374"/><path d="m360.73 655l-.056-.096c-.277-.486-.455-1.054-.634-1.576h-.327l-.003.071c0 .215-.572 1.34-.729 1.527l-.062.073h.347c-.006-.033-.008-.064-.008-.099 0-.15.125-.406.244-.634h.625l.302.732h.301v.002m-.65-.838h-.531l.241-.56c.006-.014.023-.064.048-.064.025 0 .042.045.047.064l.195.56"/></g><g fill="#008f4f"><path d="m336.64 649.97c.588-.223 1.209-.686 1.209-1.396 0-.603-.434-1.034-1.267-1.034-.638 0-1.291.077-1.978.077.18.263.18.664.18 1.01v2.854c0 .331.017.702-.221 1.057h1.136c-.18-.262-.18-.663-.18-1.01v-1.389c.474.038.531.169.875.632l.996 1.343c.18.247.336.424.687.424h.67c-.335-.293-.448-.416-.687-.717l-1.42-1.852m-1.12-1.751c0-.123.008-.255.016-.37h.385c.728.016 1.193.108 1.193.879 0 .733-.433 1.135-1.226 1.135-.123 0-.245-.008-.368-.023v-1.621"/><path d="m344.43 652.54l-.164-.286c-.817-1.427-1.34-3.102-1.863-4.637h-.964l-.008.208c0 .634-1.684 3.943-2.149 4.498l-.18.217h1.021c-.016-.101-.023-.193-.023-.293 0-.44.368-1.196.719-1.867h1.838l.892 2.16h.881m-1.912-2.47h-1.562l.712-1.65c.016-.039.064-.186.138-.186.074 0 .123.131.14.186l.572 1.65"/><path d="m345.53 648.62c0-.347 0-.748-.18-1.01h1.095c-.179.263-.179.664-.179 1.01v2.901c0 .347 0 .748.179 1.01h-1.095c.18-.262.18-.663.18-1.01v-2.901"/><path d="m348.1 651.52c0 .348 0 .749-.18 1.012.572 0 1.144.03 1.97.03 1.553 0 2.811-.957 2.811-2.677 0-1.382-.932-2.354-2.296-2.354-.834 0-1.658.078-2.484.078.18.262.18.662.18 1.01v2.901m.736-3.256c0-.123.008-.246.008-.361.18-.031.474-.063.777-.063 1.462 0 2.229.841 2.229 2.176 0 1.266-.515 2.237-1.969 2.237-.883 0-1.046-.031-1.046-.586v-3.403"/><path d="m353.92 648.62c0-.347 0-.748-.181-1.01h1.096c-.18.263-.18.664-.18 1.01v2.901c0 .347 0 .748.18 1.01h-1.096c.181-.262.181-.663.181-1.01v-2.901"/></g><path d="m357.98 646.51c.016 0 .031.003.047.005-.026.003-.028.024-.047-.005" fill="#003b79"/><g fill="#008f4f"><path d="m359.31 647.57c.082.048.311.192.402.202.014-.026.018-.046.052-.043 0-.008 0-.015.002-.022.008 0 .017 0 .023.002-.002.015-.004.031-.005.047.019.058.038.115.056.172.021.037.09.025.086.074.008 0 .019 0 .028-.002.041.073.083.144.123.217.068.104.328.392.317.503.015.002.031.004.046.005 0-.008.002-.015.003-.022-.012-.041-.006-.117-.059-.121.018-.022.074-.063.03-.068-.016-.051-.144-.223-.141-.245.233.015.196.074.323.223.035.035.068.069.102.105.02.114.038.229.059.344.061.231.241.442.309.679.019.067-.042.15-.022.216.023.003-.103-.028-.08-.026.012-.029.022-.059.032-.09.009 0 .018.002.024.003 0 .008-.002.016-.003.022.016.002.031.003.047.005-.034.088-.065.156.055.168.005.043.063.308.063.308.023-.005.048-.0001.072-.016-.028.018-.26.076-.26.088-.008 0 .072-.013.064-.014 0 .015-.008.025-.011.041.002.093.005.184.007.276.012.088-.04.06-.028.146 0 .066-.021.129-.004.186.002.009.004.016.005.022-.008 0-.015 0-.022-.002-.004.031.005.023-.025.02-.03.024-.073.026-.076.063.041.072.077.155.068.246-.056.002-.109.005-.165.007.004-.032.009-.023-.021-.026-.087.206-.216.226-.239.469-.008 0-.016-.002-.023-.004.003-.03.062.006.064-.025-.008 0-.016 0-.023-.002-.029.086-.127.066-.182.137-.028.045-.146.069-.174.114-.071.079-.141.19-.233.159-.043-.016-.089.052-.084.003-.148.063-.17.228-.318.3-.239.116-.528.166-.858.141-.191-.014-.03-.074-.253-.081-.043-.002-.258-.017-.26.009-.009 0-.016-.002-.022-.002 0 .008-.002.016-.002.022.03-.004.096-.031.093.009.007 0 .015 0 .021.002 0 .016-.003.031-.004.046-.015 0-.03-.002-.046-.004-.157.048-.365.034-.542.018 0-.008.002-.016.002-.023.024.002.047.004.071.006 0-.007 0-.014.002-.021-.165-.022-.203-.288-.354-.325-.325-.083-.641-.469-.896-.663-.109-.084-.361-.575-.455-.584 0-.008.002-.015.002-.022.009 0 .016 0 .023.002 0-.009.002-.016.002-.023.035-.029.075.107.082.058-.054-.046-.297-.43-.304-.431.033-.085.009-.14 0-.226.007-.06-.049-.137-.044-.197-.042-.286.015-.469.044-.786.044-.014.036-.066.041-.114.017 0 .032.003.047.005 0 .008 0 .016-.003.022.022.024.044.04.04.075.017 0 .031.002.046.003-.004-.071-.044-.453.027-.446.008.135-.047.175.0001.293.065.151-.009.514.057.664.052.099.005.276.09.472.134.306.304.558.522.82.032.037.146.229.196.234-.003.029 0-.059-.03-.062 0 .008-.011-.004-.012.004-.008 0-.04.058-.048.058 0-.009-.016-.054-.015-.062-.13-.102-.403-.361-.482-.499-.022-.045-.042-.158-.076-.227-.062-.083-.064-.11-.121-.222-.055-.108.013-.129-.029-.24-.019-.05-.099-.388-.093-.446-.008 0 .047-.005.039-.005.059.426-.009.881.385 1.297.169.146.241.384.41.529.078.065.355.154.456.164 0-.007.002-.015.002-.022-.042-.035-.077-.078-.133-.083 0-.015.003-.03.004-.046.031.003.025-.006.022.025.015 0 .031.003.046.005-.022-.055-.035-.128-.029-.189.128.055.125.431.273.444.054-.038.188.021.263.027 0-.008 0-.015 0-.022.198.025.38-.056.568-.038.032.013.094-.004.09.033.008 0 .015 0 .022.002.045-.025.043-.138.101-.133 0-.007 0-.015.003-.022.103.007.211-.017.3-.056.077-.035.182-.038.239-.091.063-.06.298-.115.306-.201-.019-.017-.042-.047-.039-.073.026-.011.065-.041.098-.037 0-.009.084.019.085.0001.03.003-.035-.044-.038-.007-.009 0-.017 0-.024 0 0 .008 0 .017-.002.023.008 0 .015 0 .023.002 0-.008 0-.015.003-.024.016-.021.107 0 .111-.032.031.003.045.019.05-.02-.0001-.118.299-.438.314-.595-.008 0-.016-.002-.022-.003-.056.115-.519.644-.663.63 0-.007 0-.016.002-.022.047-.081.177-.128.224-.209.103-.14.205-.278.308-.42.063-.088.096-.198.206-.242.023-.0001-.141-.119-.138-.15.004.046.167.215.169.262.1-.1.074-.334.072-.489 0-.031.008-.069-.028-.072.002-.016.003-.03.004-.047.092-.069.068-.509.03-.513 0-.008.002-.015.002-.022-.039-.023-.033-.097-.061-.1-.029-.065-.06-.132-.092-.198-.018-.059-.035-.116-.055-.176-.027-.058-.111-.116-.104-.185-.186.018-.32.039-.351.245-.005.03.008.07-.031.066 0 .007-.002.017-.003.023-.029-.003-.061-.006-.093-.009-.004-.045-.057-.216-.025-.212.108.0001.149-.262-.05-.266-.031 0-.041-.014-.045.024-.027.031-.003.115-.035.111 0 .009 0 .017 0 .024-.008 0-.016-.002-.023-.003 0 .008 0 .016-.002.023-.063-.066-.07-.076-.156-.086.002-.071 0-.37.012-.369.002-.017.003-.03.004-.048-.175 0-.836.083-.868-.162-.013-.075.036-.119.085-.161.212-.185.419-.199.715-.17.101-.034.239 0 .351.011 0-.008.002-.015.003-.023-.009-.012-.016-.019-.023-.027"/><path d="m359.68 647.65c.023.002.046.005.069.007-.021.008-.048.004-.069-.007"/><path d="m356.3 647.65c.023.128-.095.297-.148.397-.018.03-.06.053-.063.094-.009 0-.016-.002-.023-.003.054-.188.147-.325.234-.488"/><path d="m360.06 648.04c.015.002.03.003.047.004-.017.028-.018.045-.051.042.002-.015.002-.032.004-.046"/><path d="m359.07 648.1c.018.023.03.051.064.053.002-.007.002-.015.002-.022-.021-.011-.043-.02-.066-.031"/><path d="m359.18 648.21c.003.047.007.094.0001.141.008 0 .016.002.024.002 0-.015.002-.029.003-.046.009 0 .017 0 .023.002-.013-.042-.031-.065-.06-.099"/><path d="m359.08 648.24c0 .041-.014.115.035.12-.006-.047-.009-.082-.035-.12"/><path d="m357.71 648.13c.038.007.116.0001.112.058.009.021.035.05-.005.046-.08.089-.16.178-.239.266-.036.101-.07.201-.107.301-.075.196-.24.374-.217.628.011.14.071.285.12.414.019.046.065.111.061.167.082.004.304.013.298.075.015 0 .031.003.046.004 0 .008 0 .017-.002.023.032-.005.063-.0001.095-.015.114-.019.274.079.292-.11-.015 0-.029-.003-.046-.004 0-.009 0-.016.003-.023-.031.008-.047.002-.052.041-.008 0-.015-.002-.022-.002-.002-.046-.012-.188-.076-.194.021-.038.086-.176.134-.172-.004-.031-.009-.063-.014-.094.032-.015.094.007.098-.037.031.002.022.009.025-.021.022.002.047.004.069.007-.015-.09-.078-.172-.066-.264.0001-.09.067-.14.133-.196.341-.297.759.169.888.461.004.069.009.14.012.208.009.079.018.157.025.235-.014.237-.188.675-.376.805-.09.061-.518.17-.638.178-.481.032-1.167-.308-1.331-.746-.058-.15-.041-.313-.026-.491.007-.138.018-.276.026-.416.033-.19.129-.338.218-.493.157-.28.247-.486.562-.639"/><path d="m360.31 648.39c.017.026.041.059.038.098-.009 0-.016 0-.024-.002 0-.009.003-.016.004-.023-.007-.025-.012-.048-.018-.073"/><path d="m359.07 648.38c0 .008-.003.016-.004.022 0-.007.004-.014.004-.022"/><path d="m359.58 648.43c-.013.046-.023.091-.036.136.007 0 .015.002.023.002.058-.024.14-.031.213-.024.002-.016.004-.031.005-.046-.084-.006-.139-.037-.205-.068"/><path d="m360.37 648.51c.016 0 .031.003.048.004-.027.005-.029.025-.048-.004"/><path d="m359.57 648.48c.009 0 .017.002.023.002-.008 0-.015 0-.023-.002"/><path d="m356.04 648.16c.008 0 .016 0 .023.002-.008 0-.016 0-.023-.002"/><path d="m359.22 648.49c.033.003.048-.008.045.027.031.004.024-.005.021.024-.022-.016-.043-.033-.066-.051"/><path d="m359.33 648.59c.006.029.013.07-.03.066.003-.032-.011-.048.027-.043 0-.008.002-.015.003-.023"/><path d="m359.14 648.62c.031.002.025-.006.022.024.016.019.021.02.019.049-.009 0-.016-.002-.023-.002 0 .008 0 .016-.002.022-.016 0-.031-.003-.048-.004 0-.008.002-.016.003-.024.009 0 .017.002.022.002 0-.007.002-.014.003-.021.002-.016.003-.031.004-.046"/><path d="m361.25 649.79c.009.026.035.073-.008.069.005-.031.011-.022-.021-.025.001-.014.019-.03.029-.044"/><path d="m361.29 649.84c.036.018.068.053.111.058 0 .008 0 .015-.002.023-.048.003-.094.006-.141.009.0001-.03.021-.06.032-.09"/><path d="m360.02 649.98c0 .032.008.095-.032.09 0-.015.002-.03.005-.046.0001-.014.018-.028.027-.044"/><path d="m359.96 650.07c.009 0 .016.002.022.002-.007 0-.013-.002-.022-.002"/><path d="m357.84 649.96c.017.002.032.003.046.005-.022.015-.099.061-.094.015.016 0 .031.003.045.005.002-.0001.003-.017.003-.025"/><path d="m359.22 651.31c.022.011.046.021.067.03 0 .015-.003.03-.004.046-.02-.025-.041-.051-.063-.076"/><path d="m357.46 651.11c.046.011.161.026.156.086-.009 0-.016-.003-.023-.003-.046-.027-.09-.056-.133-.083"/><path d="m358.07 651.64c.001-.03.003-.048.036-.038.006.011.116-.004.12.006.003-.008.006-.016.008-.022.012.024.007.027.037.036-.003.008-.005.015-.008.022-.029-.009-.165.005-.193-.004"/><path d="m359.89 652.31c.023.002.046.006.07.008-.002.015-.004.03-.005.045-.058.022-.125.084-.131.15-.0001 0-.018-.002-.024-.003.002-.008.002-.015.003-.022-.008 0-.015 0-.024-.002.012-.022.021-.045.03-.067.027-.036.054-.073.081-.109"/><path d="m359.98 652.25c-.003.023-.004.046-.007.069-.013-.023-.038-.051.004-.046 0-.009.002-.016.003-.023"/><path d="m358.06 652.49c0 .008 0 .017-.003.023-.032-.003-.045-.018-.048.019-.008 0-.016-.002-.023-.003 0 .008-.002.017-.002.023.031.003.063.006.093.0001.016-.016.019-.022.048-.02.002-.015.004-.029.006-.046-.025 0-.049-.004-.071-.006"/><path d="m357.89 652.52c0 .008-.002.017-.003.023 0-.007.002-.015.003-.023"/></g><g fill="#003b79"><path d="m358.41 645.75c.016.006.02.034 0 .034v-.034"/><path d="m358.96 645.81c.022.02.036.034.068.034v.012c-.014.011-.034.026-.034.046.018.011.038.046.058.046-.0001.014-.023.027-.023.047h.034v-.012c.016-.004.031-.008.048-.012 0 .015-.004.012.011.012 0-.017-.008-.047.011-.047.014.03.066.093.104.093.012-.039.022-.076.033-.115h.013c.004.016.008.03.012.047h.034c-.004-.017-.021-.047 0-.047.03-.017.076-.023.115-.023.023-.011.053 0 .079 0-.005.036.004.093.047.093v.012c-.082.058-.058.138-.058.23h.022c0-.022-.003-.069.023-.069.015.018.028.08.045.08v-.011c.028-.017.069-.028.069-.069h.012v.012c.019.004.037.008.058.012-.004.023-.007.046-.012.069h.034c.027.004.055.008.08.011 0-.015-.004-.011.013-.011.004.022.008.046.011.068h.012v-.022c.014 0 .011.003.011-.013h.013c.051.021.239.039.239.116.066.033.167.067.21.132.028.042.021.084.063.123.033.019.067.035.1.053.054.034.09.095.127.145.006.009 0 .009.018.009v.022c-.173-.005-.302-.065-.415-.183-.017-.016-.044-.034-.044-.059-.02.004-.038.008-.059.011-.047-.063-.131-.15-.207-.169-.013-.003-.021-.012-.021.007h-.011c0 .03-.011.07-.046.07.006.013.022.029.022.046-.093.009-.182.043-.286.029-.149-.021-.28-.077-.413-.123-.062-.008-.123-.017-.184-.025-.018-.003-.059-.0001-.059-.03-.016 0-.011-.004-.011.012-.029.013-.054.042-.091.037-.013-.002-.021-.016-.035-.016-.016-.0001-.012-.006-.012 0-.013.008-.024.008-.024.024-.038-.04-.17-.161-.217-.161-.003.011-.023.071-.023.046-.021-.0001-.043-.019-.066-.027-.02.004-.04.008-.061.011-.046.006-.147-.006-.147.063h-.012c-.021-.013-.044-.012-.069-.012-.0001.035.005.208-.011.208v.011h-.022c0-.02.009-.08-.012-.08v-.012h-.012c-.012.011-.021.023-.034.023v-.012c-.045-.042-.077-.043-.137-.053-.02-.006-.039-.011-.059-.017 0-.016.003-.013-.012-.013.004.021.008.039.012.059-.028-.007-.092-.018-.092-.059-.016.014-.036.035-.057.035.003.013.007.023.011.035h-.011v-.012c-.032-.018-.139-.059-.139.023h-.022c.005-.049.007-.106.027-.147.074-.158.302-.293.455-.342.068-.022.146-.019.213-.04.056-.019.091-.063.107-.116h.012v.011h.08c.011-.003.023-.007.034-.011v-.012h.022c.006.02.009.039.013.058h.021v-.011c.044-.05.076-.094.149-.094.012-.004.023-.007.035-.011v-.012h.012c0 .016-.009.034.0001.034v-.012c.036-.004.07-.007.104-.011.034-.014.064-.028.094-.044"/><path d="m360.11 646.21c.045.006.074.016.108.041.039.025.082.097.132.097v.012c-.019-.005-.068-.013-.068-.035h-.023c0 .018.008.046-.012.046-.053-.051-.09-.105-.137-.161"/><path d="m360.41 646.27c.019.007.035.023.058.023v.022h-.012v.011h-.012v-.011c-.016 0-.012.004-.012-.011-.007-.011-.014-.023-.022-.034"/><path d="m360.31 646.4h.012c0 .015-.004.011.011.011-.009.001-.007.013-.022.013v-.024"/></g></g></svg>