<svg xmlns="http://www.w3.org/2000/svg" height="507.67" width="600" viewBox="0 0 158.75 134.32042"><g transform="translate(55.94-916.45)"><g fill="#db487e"><path d="m-39.704 927.27h3.973c1.749 0 2.983.95 4.268 3.29l.203.38c.388.76.836 1.6 1.935 1.6.144 0 .516 0 .921-.2l7.05-3.49c.752-.37 1.132-.94 1.132-1.67 0-1.5-2.383-5.45-5.671-7.83-2.62-1.95-5.841-2.9-9.838-2.9h-3.973c-9.711 0-16.236 6.24-16.236 15.51v24c0 5.53 2.324 9.98 6.254 12.67h-3.161c-1.209 0-1.961.75-1.961 1.96v49.51c0 1.2.752 1.9 1.961 1.9h28.636c1.208 0 1.961-.7 1.961-1.9v-6.9c0-1.2-.812-2-1.961-2h-18.967v-10.8h15.476c1.209 0 1.961-.78 1.961-1.99v-6.9c0-1.21-.752-1.95-1.961-1.95h-15.476v-10.12h18.967c1.208 0 1.961-.75 1.961-1.96v-6.89c0-1.15-.812-1.96-1.961-1.96h-1.64c.499-.38.972-.79 1.412-1.24 2.518-2.59 4.217-5.33 4.217-6.8 0-.74-.38-1.31-1.124-1.68-.008 0-7.06-3.49-7.06-3.49-.371-.18-.65-.2-.921-.2-1.158 0-1.707 1.11-2.24 2.18-1.259 2.37-2.392 3.25-4.166 3.25h-3.973c-2.629 0-4.691-2.06-4.691-4.69v-24c0-2.63 2.062-4.69 4.691-4.69"/><path d="m8.133 955.97c0 2.67-1.978 4.69-4.606 4.69h-3.973c-2.637 0-4.691-2.07-4.691-4.69v-24.01c0-2.64 2.054-4.69 4.691-4.69h3.973c2.629 0 4.606 2.01 4.606 4.69zm-.49 51.33c0 2.7-1.978 4.7-4.606 4.7h-3.973c-2.629 0-4.691-2-4.691-4.7v-36.48c1.597.43 3.33.65 5.181.65h3.973c1.445 0 2.823-.14 4.116-.41zm-4.116-90.85h-3.973c-9.711 0-16.236 6.23-16.236 15.51v24.01c0 5.52 2.316 9.97 6.246 12.66h-4.776c-1.208 0-1.96.75-1.96 1.96v36.71c0 9.3 6.525 15.5 16.236 15.5h3.973c9.711 0 16.236-6.2 16.236-15.5v-36.71c0-1.21-.752-1.96-1.961-1.96h-3.803c3.93-2.69 6.254-7.14 6.254-12.66v-24.01c0-9.28-6.525-15.51-16.236-15.51"/><path d="m100.53 959.84h-18.972v-40.62c0-1.15-.802-1.96-1.96-1.96h-7.7c-1.209 0-1.961.75-1.961 1.96v49.48c0 1.21.752 1.96 1.961 1.96h28.632c1.2 0 1.96-.75 1.96-1.96v-6.89c0-1.16-.81-1.97-1.96-1.97"/><path d="m46.914 989.56h-8.579v-10.11h8.579c2.544 0 4.691 2.14 4.691 4.69v.72c0 2.59-2.105 4.7-4.691 4.7m9.424 7.99c.237-.24.71-.6 1.082-.88.566-.43 1.2-.92 1.8-1.48l.034-.03.025-.03c1.446-1.59 3.872-4.93 3.872-9.45v-.82c0-7.25-3.457-12.61-9.205-14.94 5.317-2.4 8.554-7.42 8.554-13.95v-36.74c0-1.21-.753-1.96-1.961-1.96h-7.7c-1.217 0-1.961.75-1.961 1.96v36.74c0 2.67-1.986 4.69-4.615 4.69h-3.972c-2.629 0-4.691-2.06-4.691-4.69v-36.74c0-1.16-.803-1.96-1.961-1.96h-7.624c-1.209 0-1.961.75-1.961 1.96v36.74c0 5.52 2.325 9.97 6.255 12.66h-3.643c-1.209 0-1.961.75-1.961 1.96v49.51c0 1.2.752 1.9 1.961 1.9h7.708c1.209 0 1.961-.7 1.961-1.9v-19.7h6.491.06c.228.7 7.06 20.4 7.06 20.4l.06.1c.557.9 1.242 1.1 1.715 1.1h8.351c1.361 0 1.961-.9 1.961-1.8 0-.1 0-.4-.152-.8-.313-.9-7.286-21.07-7.548-21.85"/></g><g fill="#ea90b3"><path d="m100.64 991.63c1.32-1.75 2.17-4.26 2.17-6.36v-1.13c0-9.92-6.407-16.32-16.313-16.32h-2.274c-4.834 0-8.714 1.42-11.52 4.23-2.755 2.84-3.989 5.5-3.989 6.49 0 .64.431 1.25 1.124 1.6-.009-.001 6.964 3.56 6.964 3.56l.068.03.287.11.66.14c1.039 0 1.496-.87 1.927-1.73.236-.45.498-.95.887-1.52.854-1.32 2.198-2.1 3.592-2.1h2.274c2.586 0 4.682 2.11 4.682 4.7v1.13c0 2.58-2.096 4.69-4.682 4.69h-7.303c-1.208 0-1.961.75-1.961 1.96v6.9c0 1.21.753 1.96 1.961 1.96h7.303c2.671 0 4.682 1.93 4.682 4.63v2.7c0 2.6-2.096 4.7-4.682 4.7h-2.274c-1.538 0-2.983-.9-3.676-2.3l-.423-.8c-.583-1.3-1.048-2.2-2.223-2.2-.279 0-.549 0-.921.2l-7.06 3.5c-.693.3-1.124.9-1.124 1.6 0 1.3 1.369 4 3.973 6.7 2.713 2.8 6.457 4.1 11.452 4.1h2.274c4.885 0 8.993-1.5 11.884-4.3 2.899-2.9 4.429-7 4.429-11.8v-2.4c0-2.2-.89-4.86-2.32-6.88-.757-1.09-1.416-1.9-1.898-2.48-.101-.12-.194-.24-.287-.35.143-.18.321-.4.49-.62.473-.56 1.107-1.35 1.845-2.34"/><path d="m69.32 1050.8h32.92v-22.1h-32.92zm11.999-5.8h-1.769c-.392 0-.522-.1-.682-.4l-1.935-3.5c-.115-.2-.166-.3-.166-.5 0-.1.018-.2.067-.4l.163-.6c.144-.7.307-.4.778-.6.374-.2.749-.5.749-1.3 0-.9-.474-1.3-1.453-1.3h-1.539v8.1c0 .4-.099.5-.423.5h-1.5c-.323 0-.416-.1-.416-.5v-9.5c0-.4.093-.5.416-.5h3.629c2.508 0 3.646 1.1 3.646 3.2 0 1.6-.896 2.3-1.693 2.8l2.373 3.9c.262.4-.015.6-.245.6m9.114-8.9c0 .3-.097.4-.422.4h-2.765v8c0 .4-.097.5-.421.5h-1.5c-.326 0-.422-.1-.422-.5v-8h-2.763c-.326 0-.425-.1-.425-.4v-1.1c0-.4.099-.5.425-.5h7.871c.325 0 .422.1.422.5zm3.849 9c-1.159 0-2.345-.1-2.816-.2-.208 0-.326-.1-.29-.4l.193-1.2c.069-.4.185-.4.604-.4.404 0 1.59.1 2.273.1 1.5 0 2.116-.1 2.116-1 0-.6-.419-.9-1.413-1.2l-1.204-.3c-1.576-.4-2.487-1.4-2.487-3.1 0-1.8 1.301-3 3.982-3 1.315 0 2.354.1 2.831.1.209.1.325.2.292.4l-.196 1.2c-.063.4-.178.4-.601.4-.407 0-1.434-.1-2.439-.1-.751 0-1.533.2-1.533 1 0 .6.378.9 1.189 1.1l1.205.3c2.146.5 2.765 1.6 2.765 3 0 2.4-1.887 3.3-4.471 3.3" stroke-width="1.101"/></g></g></svg>