<svg xmlns="http://www.w3.org/2000/svg" xmlns:xlink="http://www.w3.org/1999/xlink" viewBox="0 0 600 204.5"><defs><linearGradient id="A" y2="115.12" gradientUnits="userSpaceOnUse" x2="248.29" y1="57.41" x1="188.82"><stop stop-color="#e88a05"/><stop stop-color="#a54316" offset=".327"/><stop stop-color="#a54316" offset=".686"/><stop stop-color="#e88a05" offset="1"/></linearGradient><linearGradient id="B" y2="32.552" gradientUnits="userSpaceOnUse" x2="464.69" y1="32.535" x1="392.24"><stop stop-color="#e88a05"/><stop stop-color="#a54316" offset=".441"/><stop stop-color="#a54316" offset=".694"/><stop stop-color="#e88a05" offset="1"/></linearGradient><linearGradient id="9" x1="0" x2="1"><stop stop-color="#ff9300"/><stop stop-color="#ffc28d" offset="1"/></linearGradient><linearGradient id="C" xlink:href="#8" gradientUnits="userSpaceOnUse" x2="391.66" x1="285.01"/><linearGradient id="E" y2="107.81" xlink:href="#8" gradientUnits="userSpaceOnUse" x2="283.84" y1="78.86" x1="311.01"/><linearGradient id="F" y2="105.4" xlink:href="#8" gradientUnits="userSpaceOnUse" x2="284.68" y1="110" x1="226.45"/><linearGradient id="D" xlink:href="#8" gradientUnits="userSpaceOnUse" x2="293.09" x1="186.45"/><linearGradient id="8" x1="0" x2="1"><stop stop-color="#ff9300"/><stop stop-color="#852510" offset="1"/></linearGradient><linearGradient id="0" y2="64.39" xlink:href="#9" gradientUnits="userSpaceOnUse" x2="166.82" y1="75.74" x1="87.9"/><linearGradient id="1" y2="48.22" xlink:href="#9" gradientUnits="userSpaceOnUse" x2="238.92" y1="51.949" x1="164.27"/><linearGradient id="2" y2="71.24" xlink:href="#9" gradientUnits="userSpaceOnUse" x2="457.33" y1="107.79" x1="403.42"/><linearGradient id="3" xlink:href="#9" gradientUnits="userSpaceOnUse" x2="334.91" x1="267.98"/><linearGradient id="7" y2="142.83" gradientUnits="userSpaceOnUse" x2="166.69" y1="89.83" x1="107.14"><stop stop-color="#b35313"/><stop stop-color="#e88a05" offset=".573"/><stop stop-color="#a54316" offset="1"/></linearGradient><linearGradient id="6" y2="110.11" xlink:href="#9" gradientUnits="userSpaceOnUse" x2="406.3" y1="110.49" x1="365.89"/><linearGradient id="5" y2="123.18" xlink:href="#9" gradientUnits="userSpaceOnUse" x2="493.99" y1="155.91" x1="448.99"/><linearGradient id="4" y2="53.38" gradientUnits="userSpaceOnUse" x2="393.64" y1="71.64" x1="375.46"><stop stop-color="#852510" stop-opacity="0"/><stop stop-color="#852510" stop-opacity=".771" offset="1"/></linearGradient><radialGradient id="G" gradientUnits="userSpaceOnUse" cy="328.87" cx="1296.1" gradientTransform="matrix(.11869.3488-.2191.07455 351.44-370.06)" r="114.6"><stop stop-color="#852510" stop-opacity=".773"/><stop stop-color="#852510" stop-opacity="0" offset="1"/></radialGradient></defs><g transform="scale(1.19287)"><path d="m469.17 49.89h33.818l-59.05 79.948-2.66.156-26.331 39.1h-33.818l54.56-73.868 5.654-4.558z" fill="url(#B)"/><path fill="url(#C)" d="m334.75 171.1c-27.852 0-49.567-23.811-49.567-53.19 0-3.334.291-6.598.848-9.762h17.236c.217 21.588 15.369 33.641 31.483 33.609 19.429-.039 30.958-17.457 31.14-29.978 0 0 20.1 6.257 20.15 6.132 0 29.375-23.438 53.19-51.29 53.19"/><path fill="url(#E)" d="m282.97 49.747l-9.184 61.914 29.473 2.01v-63.923z"/><path fill="url(#F)" d="m226.61 104.54l61.914-9.184 2.01 29.28h-63.923z"/><path fill="url(#D)" d="m237.94 48.22c-27.852 0-51.32 23.811-51.32 53.19 0 3.334.291 6.598.848 9.762h16.7c.217-21.588 15.329-34.33 31.443-34.28 13.305.039 25.1 8.748 30.16 21.17 1.643 4.03 9.896 27.315 9.896 27.315l10.965-14.21c.556-3.164.848-6.428.848-9.762 0-29.375-21.682-53.19-49.53-53.19z"/><path d="m175.03 0v111.13h.042c.79 33.24 27.714 59.935 60.813 59.935 11.235 0 21.464-2.392 30.783-4.74v-20.257s-12.828 2.159-30.522.22c-17.562-1.924-31.523-16.486-31.987-35.16l.001-111.12h-29.13z" fill="url(#A)"/><path d="m155.64 70.03c-20.788.754-29.03 4.53-41.25 12.937-11.78 8.157-24.577 24.16-24.772 44.591-.099 10.355 4.473 20.03 11.593 26.765 7.474 7.07 18.386 11.604 27.383 11.604 9.644 0 19.834-2.995 31.683-14.157 12.868-12.12 14.652-30.562 14.743-40.661-.435 17.188-14.505 30.993-31.798 30.993-17.568 0-31.809-14.241-31.809-31.809 0-20.436 11.38-31.965 24.966-36.517 8.186-2.743 19.279-2.793 30.28-2.794v-.031c-3.361-.071-7.095-.913-11.02-.921" fill="url(#7)"/><path d="m143.22 47.546c-22.683 0-42.463 12.598-52.955 31.29h-90.27v60.918h90.05c2.841 5.149 6.392 9.832 10.505 13.937-6.702-6.698-10.361-16.1-10.265-26.13.196-20.435 13.185-36.28 24.966-44.44 4.664-3.23 13.14-8.68 25.09-11.123 9.259-1.893 18.737-1.206 26.316-1.046v-19.996s-10.06-3.411-23.438-3.411m-71.5 47.01c3.642 0 6.524.217 7.827.398.586.09.896.362.806 1.036l-.534 3.369c-.18.991-.496 1.135-1.664 1.046-1.125-.092-3.961-.324-6.749-.324-2.069 0-4.227.454-4.227 2.794 0 1.663 1.038 2.377 3.285 2.961l3.327.858c5.935 1.528 7.638 4.447 7.638 8.36 0 6.656-5.207 8.999-12.357 8.999-3.194 0-6.48-.228-7.785-.408-.584-.09-.894-.36-.806-1.036l.544-3.463c.178-.991.485-1.116 1.653-1.025 1.125.09 4.408.356 6.299.356 4.136 0 5.839-.454 5.839-2.972 0-1.709-1.16-2.514-3.903-3.233l-3.327-.858c-4.364-1.123-6.885-3.862-6.885-8.496 0-5.126 3.6-8.36 11.02-8.36m-59.799.303h10.02c6.926 0 10.08 3.149 10.08 8.768 0 4.362-2.483 6.35-4.688 7.743l6.571 10.882c.719 1.127-.049 1.528-.68 1.528h-4.897c-1.078 0-1.445-.312-1.894-1.078l-5.336-9.626c-.315-.541-.45-.901-.45-1.35 0-.178.043-.445.178-.984l.45-1.883c.404-1.71.844-1.133 2.145-1.674 1.036-.449 2.072-1.173 2.072-3.463 0-2.52-1.299-3.505-3.997-3.505h-4.269v22.35c0 .903-.271 1.214-1.172 1.214h-4.133c-.897 0-1.172-.311-1.172-1.214v-26.493c0-.899.274-1.214 1.172-1.214m23.574 0h21.764c.901 0 1.172.314 1.172 1.214v3.066c0 .899-.271 1.214-1.172 1.214h-7.649v22.21c0 .901-.271 1.214-1.172 1.214h-4.133c-.899 0-1.161-.313-1.161-1.214v-22.21h-7.649c-.901 0-1.172-.314-1.172-1.214v-3.066c0-.899.271-1.214 1.172-1.214" fill="url(#0)"/><path d="m100.55 153.69c10.992 10.969 26.05 17.746 42.67 17.746 33.656 0 60.939-27.733 60.939-61.944 0-22.36 5.242-61.27 33.776-61.27-47.586 0-62.63 39.42-62.906 62.28v.659c-.003.146-.015.294-.021.439-.165 10.195-2.735 28.25-15.402 40.18-11.849 11.162-21.369 13.487-31.01 13.487-8.996 0-19.909-3.868-27.383-10.934-.223-.21-.443-.422-.659-.638" fill="url(#1)"/><path fill="url(#3)" d="m238.29 48.22c14.246 0 35.533 9.187 35.598 62.55.051 41.681 38.06 60.34 60.861 60.34-15.923-.049-25.524-9.04-29.611-25.994-2.339-9.698-1.804-22.465-1.872-34.915-.1-18.454-27.643-61.974-64.975-61.974z"/><path fill="url(#6)" d="m334.75 171.1c27.475 0 60.27-22.571 60.27-59.935v-58.988c-9.71-1.168-19.42-2.222-29.13-2.282v61.27c0 16.829.152 27.368-2.842 37.481-4.701 15.878-16.201 22.454-28.3 22.454z"/><path fill="url(#4)" d="m334.75 171.1c27.475 0 60.27-22.571 60.27-59.935v-58.988l-29.13-2.286v61.27c0 16.829.152 27.368-2.842 37.481-4.701 15.878-16.201 22.454-28.3 22.454"/><path fill="url(#5)" d="m466.04 169.09h35.789l-42.679-60.24c-7.548-10.654-9.707-26.2-2.871-40l-31.2 44.784z"/><path fill="url(#G)" d="m466.04 169.09h35.789l-42.679-60.24c-7.548-10.654-9.707-26.2-2.871-40l-31.2 44.784z"/><path fill="url(#2)" d="m365.89 49.89h47.711l28.708 38.673c16.13 21.725-2.687 43.515-14.486 61.43 3.712-8.931 3.312-25.2-5.227-37.13l-36.17-50.53c-5.697-7.957-12.69-12.453-20.535-12.453z"/></g></svg>