<?xml version="1.0" encoding="UTF-8" standalone="no"?>
<!-- Created with Inkscape (http://www.inkscape.org/) -->
<svg xmlns:rdf="http://www.w3.org/1999/02/22-rdf-syntax-ns#" xmlns="http://www.w3.org/2000/svg" xmlns:cc="http://creativecommons.org/ns#" xmlns:xlink="http://www.w3.org/1999/xlink" xmlns:dc="http://purl.org/dc/elements/1.1/" height="171.43" width="600" version="1.1">
  <defs>
    <linearGradient id="linearGradient3319" y2="99.22" gradientUnits="userSpaceOnUse" x2="1390.1" gradientTransform="matrix(0.17578124,0,0,0.17578124,4.6044922,4.6484375)" y1="99.168" x1="1173.7">
      <stop stop-color="#e88a05" offset="0"/>
      <stop stop-color="#a54316" offset="0.4411"/>
      <stop stop-color="#a54316" offset="0.69399"/>
      <stop stop-color="#e88a05" offset="1"/>
    </linearGradient>
    <linearGradient id="linearGradient3316" y2="261.22" xlink:href="#linearGradient3907" gradientUnits="userSpaceOnUse" x2="877.6" gradientTransform="matrix(0.17578124,0,0,-0.17578124,56.349098,120.48828)" y1="261.22" x1="559.09"/>
    <linearGradient id="linearGradient3907" x1="0" x2="1" y1="0" y2="0">
      <stop stop-color="#ff9300" offset="0"/>
      <stop stop-color="#852510" offset="1"/>
    </linearGradient>
    <linearGradient id="linearGradient3313" y2="316.8" xlink:href="#linearGradient3907" gradientUnits="userSpaceOnUse" x2="852.46" gradientTransform="matrix(0,0.17578124,0.17578124,0,98.322953,-88.247849)" y1="397.97" x1="766"/>
    <linearGradient id="linearGradient3310" y2="316.8" xlink:href="#linearGradient3907" gradientUnits="userSpaceOnUse" x2="852.46" gradientTransform="matrix(0.17578124,0,0,0.17578124,4.6044922,4.6484375)" y1="330.52" x1="678.55"/>
    <linearGradient id="linearGradient3307" y2="261.22" xlink:href="#linearGradient3907" gradientUnits="userSpaceOnUse" x2="877.6" gradientTransform="matrix(0.17578124,0,0,0.17578124,4.6044922,4.6484375)" y1="261.22" x1="559.09"/>
    <linearGradient id="linearGradient3304" y2="345.81" gradientUnits="userSpaceOnUse" x2="743.78" gradientTransform="matrix(0.17578124,0,0,0.17578124,4.6044922,4.6484375)" y1="173.45" x1="566.18">
      <stop stop-color="#e88a05" offset="0"/>
      <stop stop-color="#a54316" offset="0.32709"/>
      <stop stop-color="#a54316" offset="0.68639"/>
      <stop stop-color="#e88a05" offset="1"/>
    </linearGradient>
    <linearGradient id="linearGradient3301" y2="428.57" gradientUnits="userSpaceOnUse" x2="500.09" gradientTransform="matrix(0.17578124,0,0,0.17578124,4.6044922,4.6484375)" y1="270.29" x1="322.23">
      <stop stop-color="#b35313" offset="0"/>
      <stop stop-color="#e88a05" offset="0.57301"/>
      <stop stop-color="#a54316" offset="1"/>
    </linearGradient>
    <linearGradient id="linearGradient3298" y2="194.31" xlink:href="#linearGradient5455" gradientUnits="userSpaceOnUse" x2="500.48" gradientTransform="matrix(0.17578124,0,0,0.17578124,4.6044922,4.6484375)" y1="228.2" x1="264.76"/>
    <linearGradient id="linearGradient5455" x1="0" x2="1" y1="0" y2="0">
      <stop stop-color="#ff9300" offset="0"/>
      <stop stop-color="#ffc28d" offset="1"/>
    </linearGradient>
    <linearGradient id="linearGradient3295" y2="146" xlink:href="#linearGradient5455" gradientUnits="userSpaceOnUse" x2="715.8" gradientTransform="matrix(0.17578124,0,0,0.17578124,4.6044922,4.6484375)" y1="157.15" x1="492.85"/>
    <linearGradient id="linearGradient3292" y2="329.5" xlink:href="#linearGradient5455" gradientUnits="userSpaceOnUse" x2="1002.5" gradientTransform="matrix(0.17578124,0,0,0.17578124,4.6044922,4.6484375)" y1="329.5" x1="802.59"/>
    <linearGradient id="linearGradient3289" y2="330.86" xlink:href="#linearGradient5455" gradientUnits="userSpaceOnUse" x2="1215.7" gradientTransform="matrix(0.17578124,0,0,0.17578124,4.6044922,4.6484375)" y1="332" x1="1095"/>
    <linearGradient id="linearGradient3286" y2="161.43" gradientUnits="userSpaceOnUse" x2="1177.9" gradientTransform="matrix(0.17578124,0,0,0.17578124,4.6044919,4.6484375)" y1="215.97" x1="1123.6">
      <stop stop-color="#852510" stop-opacity="0" offset="0"/>
      <stop stop-color="#852510" stop-opacity="0.77124184" offset="1"/>
    </linearGradient>
    <linearGradient id="linearGradient3283" y2="369.89" xlink:href="#linearGradient5455" gradientUnits="userSpaceOnUse" x2="1477.6" gradientTransform="matrix(0.17578124,0,0,0.17578124,4.6044922,4.6484375)" y1="467.63" x1="1343.2"/>
    <radialGradient id="radialGradient3280" gradientUnits="userSpaceOnUse" cy="328.87" cx="1296.1" gradientTransform="matrix(0.06230855,0.18311581,-0.1150254,0.03913953,189.50256,-189.27839)" r="114.6">
      <stop stop-color="#852510" stop-opacity="0.77254903" offset="0"/>
      <stop stop-color="#852510" stop-opacity="0" offset="1"/>
    </radialGradient>
    <linearGradient id="linearGradient3277" y2="214.75" xlink:href="#linearGradient5455" gradientUnits="userSpaceOnUse" x2="1368.1" gradientTransform="matrix(0.17578124,0,0,0.17578124,4.6044922,4.6484375)" y1="323.93" x1="1207.1"/>
  </defs>
  <metadata>
    <rdf:RDF>
      <cc:Work rdf:about="">
        <dc:format>image/svg+xml</dc:format>
        <dc:type rdf:resource="http://purl.org/dc/dcmitype/StillImage"/>
        <dc:title/>
      </cc:Work>
    </rdf:RDF>
  </metadata>
  <g transform="matrix(1.9048101,0,0,1.9048101,-9.5240505,-9.5240505)">
    <path d="m251.31,31.191,17.754,0-30.999,41.971-1.3962,0.0819-13.823,20.525-17.754,0,28.641-38.78,2.9684-2.3928z" fill-rule="nonzero" fill="url(#linearGradient3319)"/>
    <path fill="url(#linearGradient3316)" d="m180.74,94.824c-14.622,0-26.022-12.5-26.022-27.922,0-1.7503,0.15284-3.4641,0.44495-5.1251h9.0488c0.11387,11.333,8.0687,17.661,16.528,17.644,10.2-0.02065,16.252-9.1645,16.348-15.738,0,0,10.55,3.2851,10.579,3.2191,0,15.421-12.305,27.922-26.926,27.922z"/>
    <path fill="url(#linearGradient3313)" d="m153.56,31.116-4.8214,32.504,15.473,1.0547,0-33.559z"/>
    <path fill="url(#linearGradient3310)" d="m123.97,59.883,32.504-4.8214,1.0547,15.372-33.559,0z"/>
    <path fill="url(#linearGradient3307)" d="m129.91,30.312c-14.622,0-26.944,12.5-26.944,27.922,0,1.7503,0.15284,3.4641,0.44495,5.1251h8.7671c0.11387-11.333,8.0473-18.021,16.507-17.996,6.985,0.02062,13.176,4.5928,15.833,11.116,0.86249,2.1173,5.1952,14.34,5.1952,14.34l5.7565-7.4603c0.29211-1.6611,0.44495-3.3748,0.44495-5.1251,0-15.421-11.383-27.922-26.005-27.922z"/>
    <path d="m96.89,5,0,58.343,0.02196,0c0.41471,17.45,14.55,31.465,31.926,31.465,5.8983,0,11.269-1.256,16.161-2.4884v-10.635s-6.7346,1.1332-16.024,0.11535c-9.22-1.01-16.55-8.655-16.8-18.457v-58.343h-15.29z" fill-rule="nonzero" fill="url(#linearGradient3304)"/>
    <path d="m86.711,41.766c-10.914,0.39563-15.239,2.3783-21.657,6.792-6.1845,4.2821-12.902,12.681-13.005,23.409-0.05203,5.4361,2.3483,10.517,6.0864,14.052,3.9237,3.7098,9.6526,6.0919,14.376,6.0919,5.0632,0,10.413-1.5723,16.633-7.4323,6.7554-6.3638,7.6919-16.045,7.7399-21.346-0.22861,9.0235-7.6151,16.271-16.694,16.271-9.2227,0-16.699-7.4765-16.699-16.699,0-10.729,5.9742-16.781,13.107-19.171,4.2975-1.4401,10.121-1.4662,15.897-1.4667v-0.01647c-1.765-0.039-3.725-0.481-5.784-0.485z" fill-rule="nonzero" fill="url(#linearGradient3301)"/>
    <path d="m80.19,29.961c-11.908,0-22.293,6.6137-27.801,16.425h-47.39v31.981h47.274c1.4917,2.703,3.3555,5.1616,5.5151,7.3169-3.5186-3.5166-5.4392-8.4502-5.3888-13.716,0.10267-10.728,6.9222-19.047,13.107-23.329,2.4487-1.6955,6.8992-4.5567,13.173-5.8392,4.8606-0.99372,9.8369-0.63289,13.815-0.54932v-10.497s-5.2785-1.7908-12.305-1.7908zm-37.535,24.681c1.9123,0,3.4248,0.11411,4.1089,0.20874,0.30754,0.04732,0.47029,0.18996,0.42297,0.54382l-0.28015,1.7688c-0.09463,0.52045-0.26031,0.59564-0.87341,0.54932-0.59044-0.0483-2.0793-0.17029-3.5431-0.17029-1.0862,0-2.2192,0.23849-2.2192,1.4667,0,0.87333,0.54497,1.248,1.7249,1.5546l1.7468,0.45044c3.1158,0.80236,4.01,2.3348,4.01,4.389,0,3.4943-2.7339,4.7241-6.4874,4.7241-1.6767,0-3.4018-0.11961-4.0869-0.21423-0.30655-0.04735-0.4693-0.18897-0.42297-0.54383l0.28564-1.8182c0.09364-0.52045,0.25481-0.58565,0.86792-0.53833,0.59044,0.04729,2.3143,0.18676,3.3069,0.18676,2.1715,0,3.0652-0.23823,3.0652-1.5601,0-0.89699-0.60884-1.3199-2.049-1.6974l-1.7468-0.45044c-2.2908-0.58945-3.6145-2.0277-3.6145-4.4605,0-2.691,1.8898-4.389,5.7843-4.389zm-31.393,0.1593,5.2625,0c3.6363,0,5.2899,1.6531,5.2899,4.6033,0,2.2898-1.3037,3.3336-2.4609,4.0649l3.4497,5.7129c0.37752,0.59143-0.02586,0.802-0.35706,0.802h-2.5708c-0.56579,0-0.75868-0.16362-0.99426-0.56579l-2.8015-5.0537c-0.1656-0.28388-0.23621-0.47304-0.23621-0.70862,0-0.09364,0.02241-0.23346,0.09338-0.51635l0.23621-0.98877c0.21193-0.89798,0.44301-0.59503,1.1261-0.87891,0.54411-0.23558,1.0876-0.61568,1.0876-1.8182,0-1.3228-0.68193-1.8402-2.0984-1.8402h-2.2412v11.733c0,0.47413-0.1421,0.6372-0.61523,0.6372h-2.1698c-0.47117,0-0.61524-0.16308-0.61524-0.6372v-13.909c0-0.47215,0.14407-0.63721,0.61524-0.63721zm12.376,0,11.426,0c0.47314,0,0.61523,0.16506,0.61523,0.63721v1.6095c0,0.47215-0.1421,0.63721-0.61523,0.63721h-4.0155v11.662c0,0.47314-0.1421,0.6372-0.61524,0.6372h-2.1698c-0.47215,0-0.60974-0.16407-0.60974-0.6372v-11.662h-4.0155c-0.47314,0-0.61524-0.16506-0.61524-0.63721v-1.6095c0-0.47215,0.1421-0.63721,0.61524-0.63721z" fill-rule="nonzero" fill="url(#linearGradient3298)"/>
    <path d="M57.789,85.684c5.771,5.758,13.675,9.316,22.401,9.316,17.669,0,31.99-14.559,31.99-32.52,0-11.739,2.7521-32.168,17.732-32.168-24.982,0-32.878,20.695-33.025,32.695v0.34607c-0.0018,0.07688-0.0079,0.1541-0.01098,0.23071-0.08638,5.3521-1.4359,14.829-8.0859,21.094-6.2207,5.86-11.219,7.0807-16.282,7.0807-4.723,0-10.452-2.0305-14.376-5.7404-0.11682-0.11046-0.23257-0.22164-0.34607-0.33508z" fill-rule="nonzero" fill="url(#linearGradient3295)"/>
    <path fill="url(#linearGradient3292)" d="m130.1,30.312c7.4789,0,18.654,4.8232,18.688,32.837,0.0266,21.882,19.98,31.675,31.951,31.675-8.3594-0.02563-13.4-4.7467-15.546-13.647-1.2278-5.0915-0.94728-11.794-0.98273-18.33-0.0526-9.688-14.512-32.535-34.111-32.535z"/>
    <path fill="url(#linearGradient3289)" d="m180.74,94.824c14.424,0,31.641-11.85,31.641-31.465v-30.968c-5.0976-0.61522-10.195-1.1684-15.293-1.2003v32.168c0,8.835,0.0799,14.368-1.4919,19.677-2.4679,8.3355-8.5053,11.788-14.856,11.788z"/>
    <path fill="url(#linearGradient3286)" d="m180.74,94.824c14.424,0,31.641-11.85,31.641-31.465v-30.968l-15.293-1.2003v32.168c0,8.835,0.0799,14.368-1.4919,19.677-2.4679,8.3355-8.5053,11.788-14.856,11.788z"/>
    <path fill="url(#linearGradient3283)" d="m249.66,93.77,18.789,0-22.406-31.625c-3.9628-5.5933-5.096-13.757-1.5071-20.999l-16.377,23.511z"/>
    <path fill="url(#radialGradient3280)" d="m249.66,93.77,18.789,0-22.406-31.625c-3.9628-5.5933-5.096-13.757-1.5071-20.999l-16.377,23.511z"/>
    <path fill="url(#linearGradient3277)" d="m197.08,31.191,25.048,0,15.071,20.303c8.4665,11.405-1.4107,22.845-7.6047,32.252,1.949-4.6888,1.7388-13.23-2.7442-19.492l-18.99-26.525c-2.9907-4.1775-6.6619-6.5377-10.78-6.5377z"/>
    <path fill="#595959" d="m268.36,46.499,0,31.744,5.9281,0,0-13.29,11.856,0,0,13.29,5.9281,0,0-31.744-5.9281,0,0,12.525-11.856,0,0-12.525-5.9281,0zm27.728,0,0,31.744,12.782,0c6.1608,0,11.121-4.9603,11.121-11.121v-9.5017c0-6.1609-4.9603-11.121-11.121-11.121h-12.782zm5.9281,5.9281,6.4002,0c3.1293,0,5.6472,2.5179,5.6472,5.6472v8.5933c0,3.1293-2.5179,5.6472-5.6472,5.6472h-6.4002v-19.888z"/>
  </g>
</svg>
