<?xml version="1.0" encoding="UTF-8" standalone="no"?>
<svg xmlns="http://www.w3.org/2000/svg" height="144.24" viewBox="0 0 600 144.24483" width="600" version="1.1" xmlns:xlink="http://www.w3.org/1999/xlink">
 <path stroke-width="1.6027" fill="#595959" d="m517.25 66.511v50.879h9.5v-21.302h19v21.302h9.5v-50.879h-9.5v20.074h-19v-20.074z"/>
 <path stroke-width="1.6027" fill="#595959" d="m561.69 66.511v50.879h20.49c9.87 0 17.82-7.95 17.82-17.826v-15.228c0-9.874-7.95-17.825-17.82-17.825zm9.5 9.5h10.26c5.01 0 9.05 4.038 9.05 9.053v13.772c0 5.014-4.04 9.054-9.05 9.054h-10.26z"/>
 <path d="m0 142.83h149.57v-100.27h-149.57z" stroke-width=".98371" fill="#f49712"/>
 <path d="m126.56 114.42c-3.47 1.74-8 2.48-13.14 2.48-5.19 0-10.48-0.36-12.68-0.66-0.03 0-0.08-0.01-0.11-0.01-0.47-0.07-0.827-0.22-1.061-0.47-0.242-0.27-0.346-0.66-0.273-1.23l0.427-2.73 0.467-2.96c0.06-0.37 0.15-0.67 0.25-0.91 0.19-0.42 0.47-0.65 0.91-0.76 0.38-0.08 0.89-0.08 1.58-0.03 1.84 0.16 7.24 0.6 10.34 0.6 2.31 0 4.14-0.1 5.58-0.37 2.79-0.54 4.02-1.78 4.02-4.51 0-1.05-0.27-1.9-0.84-2.61-0.14-0.17-0.32-0.322-0.49-0.476-0.07-0.061-0.12-0.126-0.19-0.185-0.23-0.181-0.49-0.346-0.77-0.507-0.04-0.027-0.07-0.058-0.12-0.085-0.12-0.061-0.26-0.119-0.38-0.181-0.96-0.472-2.14-0.887-3.64-1.28l-5.46-1.402c-7.17-1.853-11.316-6.36-11.316-13.972 0-7.362 4.526-12.361 13.826-13.495 1.33-0.162 2.76-0.246 4.29-0.246 5.98 0 10.71 0.369 12.85 0.673h0.01c0.18 0.026 0.34 0.08 0.49 0.134 0.04 0.016 0.1 0.02 0.13 0.035 0.55 0.238 0.81 0.695 0.7 1.529l-0.46 2.879-0.43 2.655c-0.07 0.407-0.16 0.73-0.28 0.976-0.36 0.741-1.01 0.841-2.45 0.726-1.84-0.146-6.5-0.519-11.08-0.519-0.52 0-1.04 0.027-1.56 0.069-2.84 0.238-5.38 1.256-5.38 4.515 0 1.21 0.35 2.106 1.04 2.824 0.74 0.769 1.9 1.327 3.49 1.807 0.28 0.084 0.55 0.169 0.86 0.249l4.33 1.111 1.13 0.284c1.34 0.347 2.54 0.742 3.63 1.172 6.84 2.701 8.93 7.031 8.93 12.58 0 6.15-2.71 10.06-7.17 12.3m-30.622-38.459c0 1.479-0.454 1.994-1.925 1.994h-12.557v36.505c0 0.9-0.173 1.44-0.638 1.73-0.3 0.18-0.718 0.27-1.294 0.27h-6.79c-0.503 0-0.876-0.07-1.164-0.21-0.561-0.26-0.761-0.81-0.761-1.79v-36.505h-12.555c-1.487 0-1.925-0.515-1.925-1.994v-5.026c0-0.988 0.204-1.536 0.78-1.798 0.284-0.131 0.653-0.196 1.145-0.196h35.76c0.484 0 0.849 0.065 1.133 0.192 0.576 0.266 0.792 0.814 0.792 1.802v5.026zm-40.205 40.109c-0.031 0.02-0.05 0.06-0.081 0.08-0.03 0.02-0.069 0.03-0.1 0.05-0.081 0.04-0.158 0.09-0.242 0.12-0.097 0.04-0.196 0.06-0.3 0.08-0.027 0.01-0.058 0.02-0.085 0.02-0.135 0.03-0.265 0.04-0.395 0.04h-8.062c-0.718 0-1.237-0.09-1.656-0.28-0.365-0.16-0.653-0.4-0.915-0.72-0.181-0.22-0.349-0.48-0.526-0.78l-4.865-8.76-3.919-7.057c-0.288-0.491-0.48-0.887-0.599-1.271-0.092-0.307-0.146-0.607-0.146-0.938 0-0.23 0.051-0.557 0.17-1.095 0.034-0.157 0.072-0.334 0.123-0.534l0.745-3.101c0.631-2.655 1.333-1.959 3.217-2.616 0.111-0.039 0.211-0.065 0.331-0.115 0.134-0.061 0.268-0.127 0.399-0.192 1.56-0.758 3.001-2.026 3.001-5.503 0-1.756-0.411-3.036-1.199-3.955-1.064-1.245-2.832-1.806-5.388-1.806h-7.001v36.723c0 1.11-0.257 1.68-1.01 1.9-0.25 0.07-0.557 0.1-0.926 0.1h-6.801c-1.468 0-1.906-0.52-1.906-2v-43.525c0-0.872 0.161-1.403 0.592-1.699 0.296-0.203 0.715-0.296 1.314-0.296h16.485c11.381 0 16.55 5.18 16.55 14.417 0 7.163-4.066 10.418-7.685 12.708l5.461 9.045 5.325 8.83c0.701 1.08 0.543 1.75 0.094 2.13" stroke-width=".98371" fill="#fff"/>
 <g stroke-width=".98371" fill="#d3600c">
  <path d="m350.04 92.753v-50.992h-17.12l-2.26 15.079c8.51 9.234 19.37 23.237 19.38 35.913z"/>
  <path d="m266.64 47.929v-47.929h-24.52v92.077c0-18.66 9.83-35.045 24.52-44.148z"/>
  <path d="m266.53 92.077c0 12.833-4.57 24.593-12.15 33.693 9.39 11.04 23.32 18.06 38.83 18.06 6.82 0 16.57-1.44 26.14-3.97v-17.12c-38.52 5.8-52.82-10.81-52.82-30.663z"/>
  <path d="m325.28 92.7c-0.63-28.175-7.06-50.02-27.15-52.125-1.7-0.143-1.74-0.135-1.74-0.135-27.45-1.187-29.86 39.929-29.86 51.637 0-15.013 11.97-27.233 26.68-27.233 0.45 0 0.9 0.012 1.34 0.038 0.44 0.016 0.88 0.054 1.31 0.097 10.38 1.052 19.03 8.192 22.46 17.864l-32.68 4.896v17.131h41.08c-0.94-3.81-1.44-7.867-1.44-12.17z"/>
  <path d="m402.72 92.7c0 8.91-7.1 26.35-26.33 26.35-19.24 0-26.35-17.29-26.35-26.35v0.088c-0.03 9.222-5.24 51.002 26.35 51.002 31.66 0 26.33-42.18 26.33-51.09z"/>
  <path d="m481.52 91.412 36.86-49.651h-28.5c-12.36 17.937-8.33 12.063-8.33 12.063-5.32 7.73-10.59 22.564-0.03 37.588z"/>
  <path d="m450.5 94.801-35.17 47.499h28.72l10.23-15.14c3.12-4.66 4.84-20.22-3.78-32.359z"/>
 </g>
 <g stroke-width=".98371" fill="#f49712">
  <path d="m481.52 91.412c-10.56-15.024-5.29-29.858 0.03-37.588-4.03 5.875-14.27 20.704-14.27 20.704l0.01 0.007-0.01-0.007-24.3-32.767h-40.26v50.938c0 8.911 5.33 51.091-26.33 51.091v0.02c22.62 0 51.1-18.5 51.1-51.11v-30.065c10.19 14.332 23.01 32.347 23.01 32.347 8.62 12.138 6.85 27.648 3.78 32.178 0.71-1.07 1.47-2.2 2.27-3.37 6.87-10.25 7.9-11.99 7.9-11.99l22.59 30.5h30.35c-16.46-23.31-35.87-50.888-35.87-50.888z"/>
  <path d="m293.21 40.328c-9.77 0-18.91 2.79-26.68 7.601-14.69 9.099-24.52 25.488-24.52 44.148 0 43.813-40.03 58.503-61.97 37.973 9.19 8.8 21.59 14.19 35.19 14.19 15.69 0 29.74-7.17 39.15-18.47 7.58-9.09 12.15-20.86 12.15-33.692 0-11.712 2.41-52.824 29.86-51.637-1.06-0.063-2.12-0.113-3.18-0.113z"/>
  <path d="m350.04 92.787v-0.026c-0.01-12.685-10.87-26.687-19.38-35.921-8.3-9.015-19.73-15.032-32.53-16.266 20.09 2.106 26.52 23.951 27.15 52.125 0 32.301 28.47 51.111 51.11 51.111v-0.02c-31.59 0-26.38-41.78-26.35-51.003z"/>
  <path d="m215.24 39.91c-19.07 0-35.72 10.601-44.59 26.298-6.83 10.559-6.83 25.869-6.83 25.869 0 15.313 6.58 25.443 6.58 25.443 2.58 4.66 5.83 8.89 9.64 12.53-23.15-21.67-2.08-67.235 40.63-70.705 4.31-0.349 9.12-0.123 14.35 0.353v-17.333c-7.41-1.583-14.49-2.455-19.78-2.455z"/>
 </g>
 <path d="m180.04 130.05c21.94 20.53 61.97 5.84 61.97-37.97 0 15.14-12.01 27.46-26.77 27.46s-26.78-12.32-26.78-27.46c0-18.848 12.75-35.49 46.55-32.382-5.23-0.476-10.03-0.699-14.34-0.353-42.04 3.413-63.11 47.595-41.7 69.655 0.71 0.71 1.07 1.05 1.07 1.05z" stroke-width=".98371" fill="#d3600c"/>
</svg>
