<?xml version="1.0" encoding="UTF-8" standalone="no"?>
<svg xmlns:rdf="http://www.w3.org/1999/02/22-rdf-syntax-ns#" xmlns="http://www.w3.org/2000/svg" height="374.17" width="600" version="1.1" xmlns:cc="http://creativecommons.org/ns#" xmlns:xlink="http://www.w3.org/1999/xlink" viewBox="0 0 158.75 98.998003" xmlns:dc="http://purl.org/dc/elements/1.1/">
 <g fill="#e70046" transform="translate(-61.61 -1270.2)">
  <g stroke-width=".99998">
   <path d="m61.61 1337.4v-27.1h9.117v27.1z"/>
   <path d="m103.37 1270.2c-4.279 5.6-22.62 12.8-31.213 14.4v21.7l19.341-4.7v18.1s-2.15-1.6-8.396-1.6c-4.789-0.1-7.848 1-7.848 1v5.4s2.924-1.6 6.457-1.6c4.133 0 4.674 1.7 4.674 2.7 0 0-2.187-0.3-3.686-0.3-6.101 0-9.709 2.2-9.709 7 0 3.7 3.307 5.5 6.876 5.5 4.393 0 5.869-2.5 6.318-3.1v2.7h5.314v31.4h30.142v-13.7l5.78-4.3s-10.69-13.7-10.69-30.6c0-17.2 10.69-30.9 10.69-30.9l-5.78-4.3v-14.8zm-18.159 58.9h1.081v0.7c0 1.1-0.608 3.2-2.833 3.2-1.561 0-2.058-0.8-2.058-1.8 0-1.8 2.08-2.1 3.81-2.1z"/>
   <path d="m141.92 1307.3c-9.62 0-18.22 3.3-18.22 15 0 9.4 5.46 15.9 18.57 15.9 8.47 0 12.98-1.7 12.98-1.7v-7.7s-2.74 1.9-9.59 1.9c-6.11 0-7.9-2.1-7.9-4.6h19.73c0-6.3-0.16-18.8-15.57-18.8zm-0.5 6.9c3.67 0 3.65 4.2 3.65 5.8h-7.42c0-2.4 0.78-5.8 3.77-5.8z"/>
   <path d="m204.79 1307.3c-9.62 0-18.22 3.3-18.22 15 0 9.4 5.46 15.9 18.57 15.9 8.46 0 12.98-1.7 12.98-1.7v-7.7s-2.74 1.9-9.59 1.9c-6.1 0-7.9-2.1-7.9-4.6h19.73c0-6.3-0.16-18.8-15.57-18.8zm-0.49 6.9c3.66 0 3.64 4.2 3.64 5.8h-7.42c0-2.4 0.78-5.8 3.78-5.8z"/>
   <path d="m139.15 1304-11.19-8.9h13.45l5.67 8.9z"/>
   <path d="m161.2 1337.5v-29.5h13.37v6.9c0.8-2.4 3.52-7.6 9.12-7.6 1.29 0 2.32 0.3 2.32 0.3v11.9s-1-0.5-3.27-0.5c-3.02 0-7.26 2.5-7.26 7.9v10.6z"/>
  </g>
  <path stroke-width=".99998" d="m193.76 1351.4v17.8h26.54v-17.8zm20.9 4.6c1.06 0 1.9 0 2.28 0.1 0.17 0 0.26 0.1 0.24 0.3l-0.16 1c-0.05 0.2-0.15 0.3-0.49 0.3-0.32-0.1-1.15-0.1-1.96-0.1-0.61 0-1.24 0.1-1.24 0.8 0 0.5 0.31 0.7 0.96 0.8l0.97 0.3c1.73 0.4 2.23 1.3 2.23 2.4 0 2-1.52 2.7-3.6 2.7-0.94 0-1.89-0.1-2.27-0.2-0.17 0-0.26-0.1-0.24-0.3l0.16-1c0.05-0.3 0.14-0.3 0.48-0.3 0.33 0 1.29 0.1 1.84 0.1 1.2 0 1.7-0.1 1.7-0.8 0-0.5-0.34-0.8-1.14-1l-0.97-0.2c-1.27-0.4-2-1.2-2-2.5 0-1.5 1.05-2.4 3.21-2.4zm-17.44 0h2.93c2.02 0 2.93 1 2.93 2.6 0 1.3-0.72 1.8-1.36 2.3l1.91 3.1c0.21 0.4-0.01 0.5-0.19 0.5h-1.43c-0.32 0-0.42-0.1-0.55-0.3l-1.56-2.8c-0.09-0.2-0.13-0.3-0.13-0.4s0.01-0.2 0.05-0.3l0.13-0.6c0.12-0.5 0.25-0.3 0.63-0.5 0.3-0.1 0.6-0.3 0.6-1s-0.38-1-1.16-1h-1.25v6.5c0 0.3-0.08 0.4-0.34 0.4h-1.21c-0.26 0-0.34-0.1-0.34-0.4v-7.7c0-0.3 0.08-0.4 0.34-0.4zm6.88 0h6.34c0.26 0 0.34 0.1 0.34 0.4v0.9c0 0.3-0.08 0.3-0.34 0.3h-2.23v6.5c0 0.3-0.07 0.4-0.34 0.4h-1.2c-0.27 0-0.34-0.1-0.34-0.4v-6.5h-2.23c-0.27 0-0.34 0-0.34-0.3v-0.9c0-0.3 0.07-0.4 0.34-0.4z"/>
 </g>
</svg>
