<?xml version="1.0" encoding="UTF-8" standalone="no"?>
<svg xmlns:rdf="http://www.w3.org/1999/02/22-rdf-syntax-ns#" xmlns="http://www.w3.org/2000/svg" height="362.51" width="600" version="1.1" xmlns:cc="http://creativecommons.org/ns#" xmlns:xlink="http://www.w3.org/1999/xlink" viewBox="0 0 158.75 95.914301" xmlns:dc="http://purl.org/dc/elements/1.1/">
 <g transform="translate(52.161 -1064.4)">
  <path d="m82.467 1160.3h24.123v-16.2h-24.123zm8.792-4.2h-1.296c-0.287 0-0.382-0.1-0.5-0.3l-1.418-2.6c-0.084-0.1-0.121-0.2-0.121-0.3s0.013-0.1 0.049-0.3l0.119-0.5c0.106-0.4 0.225-0.3 0.57-0.4 0.275-0.1 0.55-0.3 0.55-0.9 0-0.7-0.348-1-1.065-1h-1.128v5.9c0 0.3-0.073 0.4-0.31 0.4h-1.099c-0.237 0-0.305-0.1-0.305-0.4v-7c0-0.2 0.068-0.3 0.305-0.3h2.659c1.838 0 2.672 0.8 2.672 2.3 0 1.2-0.657 1.7-1.241 2.1l1.739 2.9c0.192 0.3-0.011 0.4-0.18 0.4m6.679-6.6c0 0.3-0.071 0.4-0.31 0.4h-2.026v5.8c0 0.3-0.071 0.4-0.308 0.4h-1.099c-0.239 0-0.31-0.1-0.31-0.4v-5.8h-2.024c-0.239 0-0.311-0.1-0.311-0.4v-0.8c0-0.2 0.072-0.3 0.311-0.3h5.767c0.239 0 0.31 0.1 0.31 0.3zm2.822 6.6c-0.851 0-1.72 0-2.066-0.1-0.152 0-0.238-0.1-0.212-0.2l0.141-1c0.051-0.2 0.136-0.3 0.443-0.2 0.296 0 1.164 0.1 1.664 0.1 1.1 0 1.55-0.2 1.55-0.8 0-0.5-0.3-0.7-1.03-0.9l-0.89-0.2c-1.15-0.3-1.818-1-1.818-2.3s0.953-2.2 2.918-2.2c0.96 0 1.73 0.1 2.07 0.1 0.16 0.1 0.24 0.1 0.22 0.3l-0.14 0.9c-0.05 0.3-0.14 0.3-0.45 0.3-0.29-0.1-1.05-0.1-1.78-0.1-0.55 0-1.13 0.1-1.13 0.7 0 0.5 0.28 0.7 0.88 0.8l0.88 0.2c1.57 0.4 2.02 1.2 2.02 2.3 0 1.7-1.38 2.3-3.27 2.3" stroke-width=".80649" fill="#ffd100"/>
  <g fill="#004d6d">
   <path d="m46.904 1074.7h2.192v4.4c1.543-3 4.836-4.9 8.641-4.9 5.054 0 9.081 2.9 9.081 9.3v14.5h-2.197v-14.1c0-5.4-2.564-7.8-6.959-7.8-4.975 0-8.566 3.3-8.566 8.7v13.2h-2.192z"/>
   <path d="m-30.421 1086.4c0-5.9-4.102-10.3-9.736-10.3-5.635 0-9.737 4.4-9.737 10.3 0 5.8 4.102 10.3 9.737 10.3 5.634 0 9.736-4.5 9.736-10.3m-21.74 0c0-6.9 5.342-12.3 12.004-12.3 6.661 0 12.003 5.4 12.003 12.3s-5.342 12.2-12.003 12.2c-6.662 0-12.004-5.3-12.004-12.2"/>
   <path d="m-13.996 1096.7c-5.551 0-9.587-4.5-9.587-10.3 0-5.9 4.036-10.3 9.587-10.3 5.5467 0 9.5834 4.4 9.5834 10.3 0 5.8-4.0367 10.3-9.5834 10.3m0-22.6c-6.563 0-11.826 5.4-11.826 12.3v15.1h2.197v-8c2.137 3.1 5.639 5.1 9.629 5.1 6.5547 0 11.818-5.3 11.818-12.2-0.0002-6.9-5.2633-12.3-11.818-12.3"/>
   <path d="m-2.4352 1076.6v-1.9h3.2888v-9.6h2.1925v9.6h6.0806v1.9h-6.0806v16.4c0 2.2 0.8129 3.6 2.9311 3.6 1.1706 0 2.2762-0.6 3.0009-1.1l1.1009 1.6c-1.0266 0.9-2.5642 1.5-4.1018 1.5-3.2237 0-5.1236-2.1-5.1236-5.3v-16.7z"/>
   <path d="m14.268 1074.7h2.197v23.3h-2.197zm-0.739-8.5c0-1 0.883-1.8 1.831-1.8 0.957 0 1.83 0.8 1.83 1.8 0 1.1-0.873 1.9-1.83 1.9-0.948 0-1.831-0.8-1.831-1.9"/>
   <path d="m41.528 1086.4c0-5.9-4.098-10.3-9.737-10.3-5.634 0-9.736 4.4-9.736 10.3 0 5.8 4.102 10.3 9.736 10.3 5.639 0 9.737-4.5 9.737-10.3m-21.74 0c0-6.9 5.342-12.3 12.003-12.3 6.657 0 12.003 5.4 12.003 12.3s-5.346 12.2-12.003 12.2c-6.661 0-12.003-5.3-12.003-12.2"/>
  </g>
  <g fill="#ffd100">
   <path d="m-14.302 1117.8v-13.3h6.3967v12.8c0 2.4 1.2774 3.9 3.8973 3.9 3.0751 0 4.7985-1.7 4.7985-4.9v-11.8h6.3965v21.9h-6.3965v-2.8c-1.4028 2.3-3.7719 3.4-6.847 3.4-4.8585 0-8.2455-3.4-8.2455-9.2"/>
   <path d="m8.1202 1122.7 4.0968-3.6c1.533 1.9 3.517 2.8 5.691 2.8 2.304 0 3.196-0.8 3.196-1.7 0-1-0.632-1.4-4.223-2.2-4.534-0.9-7.2232-3.1-7.2232-7.2 0-4 3.1352-6.9 8.3152-6.9 3.646 0 6.011 1.3 8.059 3.2l-3.461 3.8c-1.082-1.1-2.485-1.9-4.408-1.9-2.044 0-2.745 0.7-2.745 1.5 0 1.1 0.827 1.5 4.473 2.2 4.924 1 7.289 3.5 7.289 7 0 4.5-3.131 7.3-9.142 7.3-3.837 0-7.363-1.4-9.9178-4.3"/>
   <path d="m28.464 1104.5h6.396v21.9h-6.396z"/>
   <path d="m48.023 1109.4c3.261 0 5.263 2.5 5.263 6.1 0 3.5-2.002 6-5.263 6-3.265 0-5.277-2.5-5.277-6 0-3.6 2.012-6.1 5.277-6.1m11.734 6.1c0-6.7-5.147-11.6-11.734-11.6-6.591 0-11.738 4.9-11.738 11.6 0 6.6 5.147 11.5 11.738 11.5 1.933 0 3.744-0.5 5.342-1.2v34.5h6.392v-44.6h-0.014l0.014-0.2"/>
   <path d="m60.905 1117.8v-13.3h6.401v12.8c0 2.4 1.273 3.9 3.897 3.9 3.071 0 4.799-1.7 4.799-4.9v-11.8h6.392v21.9h-6.392v-2.8c-1.403 2.3-3.772 3.4-6.847 3.4-4.854 0-8.25-3.4-8.25-9.2"/>
   <path d="m99.836 1113.2c-0.451-2.3-2.054-3.9-4.804-3.9-2.615 0-4.473 1.4-5.109 3.9zm-4.288 8.4c2.815 0 4.472-1.1 5.682-2.1l3.85 3.8c-1.99 2.1-4.87 3.7-9.407 3.7-7.608 0-12.467-4.9-12.467-11.5 0-6.7 5.184-11.6 11.826-11.6 7.688 0 12.028 6.1 11.518 13.7h-16.697c0.641 2.5 2.499 4 5.695 4"/>
   <path d="m-50.891 1104.5h6.392v2.5c1.347-2.1 3.456-3.1 6.145-3.1 2.936 0 4.985 1.3 6.202 3.8 1.853-2.6 4.413-3.8 7.924-3.8 5.054 0 8.125 3.6 8.125 9.1v13.4h-6.401v-12.7c0-2.5-0.827-4-3.512-4-2.875 0-4.283 1.7-4.283 4.9v11.8h-6.396v-12.7c0-2.5-0.827-4-3.517-4-2.875 0-4.287 1.7-4.287 4.9v11.8h-6.392z"/>
  </g>
 </g>
</svg>
