<svg xmlns="http://www.w3.org/2000/svg" xmlns:xlink="http://www.w3.org/1999/xlink" viewBox="0 0 600 179.35"><defs><linearGradient id="3" y2="84.71" gradientUnits="userSpaceOnUse" x2="168.15" y1="15.16" x1="120.97"><stop stop-color="#00b1ff"/><stop stop-color="#003332" offset=".5"/><stop stop-color="#00b1ff" offset="1"/></linearGradient><linearGradient id="4" xlink:href="#2" gradientUnits="userSpaceOnUse" x2="137.72" x1="81.61"/><linearGradient id="2" x1="0" x2="1"><stop stop-color="#0092d4"/><stop stop-color="#00446d" offset="1"/></linearGradient><linearGradient id="0" xlink:href="#2" gradientUnits="userSpaceOnUse" x2="204.81" x1="148.71"/><linearGradient id="1" y2="50.16" gradientUnits="userSpaceOnUse" y1="50.09" x2="221.1" x1="53.02"><stop stop-color="#0096ff"/><stop stop-color="#69d2df" offset=".338"/><stop stop-color="#0096ff" offset=".338"/><stop stop-color="#34b4ef" offset=".556"/><stop stop-color="#69d2df" offset=".735"/><stop stop-color="#0096ff" offset=".735"/><stop stop-color="#34b4ef" offset=".939"/><stop stop-color="#69d2df" offset="1"/></linearGradient></defs><g transform="matrix(2 0 0 2-10-10.645)"><path d="m232.51 27.858v44.566h8.322v-18.658h16.645v18.658h8.322v-44.566h-8.322v17.585h-16.645v-17.585h-8.322m38.928 0v44.566h17.945c8.649 0 15.613-6.964 15.613-15.613v-13.339c0-8.649-6.964-15.613-15.613-15.613h-17.945zm8.322 8.323h8.985c4.393 0 7.928 3.535 7.928 7.928v12.06c0 4.393-3.535 7.928-7.928 7.928h-8.985v-27.921" fill="#595959"/><path fill="url(#3)" d="m132.45 6.613h14.999l6.42 41.29v46.06h-14.834l-6.585-41.806z"/><path fill="url(#4)" d="m86.77 44.29c-3.25 5.245-5.161 11.672-5.161 18.597 0 17.736 12.536 32.11 28 32.11s28-14.377 28-32.11c0-6.925.841-11.7-2.409-16.945l-2.752 4.929c0 12.613-10.225 22.839-22.839 22.839-12.613 0-22.839-10.225-22.839-22.839z"/><path fill="url(#0)" d="m199.65 56.03c3.25-5.245 5.161-11.672 5.161-18.597 0-17.736-12.536-32.11-28-32.11s-28 14.377-28 32.11c0 6.925-.841 11.7 2.409 16.945l2.752-4.929c0-12.613 10.225-22.839 22.839-22.839 12.613 0 22.839 10.225 22.839 22.839z"/><path fill="url(#1)" d="m175.47 5.368c-23.873.692-43.02 20.236-43.02 44.28 0 .345.015.693.023 1.035h-.023c0 .065 0 .115 0 .18 0 32.729-9.572 43.43-21.61 44.1 23.578-.612 42.588-19.607 43.15-43.2-.076-.759-.113-1.54-.113-2.319 0-32.725 9.551-43.4 21.587-44.08m2.477 0c12.04.669 21.61 11.346 21.61 44.08 0 0 .444 44.26.113 44.525h21.43v-44.32c0-24.09-19.218-43.653-43.15-44.28zm-112.6.99v21.43h-60.35v44.37h65.909c7.365 13.266 21.58 22.336 37.731 22.803-12.06-.671-21.861-11.372-21.861-44.1v-44.502h-21.43m-8.239 32.954c2.644 0 4.749.162 5.695.293.425.065.651.276.585.765l-.405 2.431c-.131.72-.345.829-1.193.765-.816-.067-2.883-.225-4.907-.225-1.502 0-3.061.328-3.061 2.026 0 1.208.755 1.715 2.386 2.139l2.409.63c4.308 1.109 5.56 3.237 5.56 6.078 0 4.831-3.792 6.528-8.981 6.528-2.318 0-4.703-.162-5.65-.293-.424-.065-.649-.275-.585-.765l.383-2.499c.129-.72.368-.831 1.215-.765.816.065 3.197.27 4.569.27 3 0 4.232-.333 4.232-2.161 0-1.24-.845-1.819-2.836-2.341l-2.411-.63c-3.167-.815-4.997-2.804-4.997-6.168 0-3.721 2.606-6.078 7.991-6.078zm-43.4.225h7.271c5.03 0 7.316 2.291 7.316 6.37 0 3.166-1.799 4.616-3.399 5.627l4.772 7.901c.522.818-.037 1.103-.495 1.103h-3.557c-.782 0-1.047-.232-1.373-.788l-3.872-6.978c-.229-.393-.338-.665-.338-.99 0-.129.037-.329.135-.72l.338-1.351c.293-1.242.609-.823 1.553-1.215.752-.326 1.508-.858 1.508-2.521 0-1.829-.945-2.544-2.904-2.544h-3.106v16.23c0 .656-.201.878-.855.878h-2.994c-.651 0-.855-.222-.855-.878v-19.224c0-.653.204-.9.855-.9m17.11 0h15.802c.654 0 .855.248.855.9v2.206c0 .653-.201.878-.855.878h-5.538v16.14c0 .654-.201.878-.855.878h-3.02c-.653 0-.833-.224-.833-.878v-16.14h-5.56c-.654 0-.855-.225-.855-.878v-2.206c0-.653.201-.9.855-.9"/></g></svg>