<?xml version="1.0" encoding="UTF-8" standalone="no"?>
<svg xmlns="http://www.w3.org/2000/svg" height="139.29" viewBox="0 0 600 139.28519" width="600" version="1.1" xmlns:xlink="http://www.w3.org/1999/xlink">
 <path stroke-width="1.5532" fill="#595959" d="m487.42 35.002v69.218h12.92v-28.978h25.86v28.978h12.92v-69.218h-12.92v27.313h-25.86v-27.313z"/>
 <path stroke-width="1.5532" fill="#595959" d="m547.88 35.003v69.217h27.87c13.43 0 24.25-10.815 24.25-24.249v-20.717c0-13.434-10.82-24.251-24.25-24.251zm12.93 12.925h13.95c6.82 0 12.31 5.491 12.31 12.314v18.737c0 6.824-5.49 12.315-12.31 12.315h-13.95z"/>
 <g stroke-width="1.3301">
  <path d="m0 137.37h202.24v-135.57h-202.24z" fill="#00a1de"/>
  <path d="m153.36 102.31c-5 0-10.04-0.25-13.62-0.54-1.52-0.12-2.81-0.25-3.68-0.36-1.31-0.2-2-0.8-1.8-2.295l0.47-3.02 0.73-4.676c0.15-0.816 0.33-1.366 0.65-1.738 0 0 0.01-0.005 0.01-0.01 0.06-0.069 0.14-0.121 0.21-0.178 0.05-0.04 0.09-0.092 0.15-0.125 0.03-0.016 0.06-0.022 0.08-0.03 0.55-0.292 1.35-0.316 2.6-0.218 2.5 0.206 9.79 0.802 13.99 0.802 9.18 0 12.98-1.009 12.98-6.593 0-2.374-1.02-3.969-3.26-5.223-1.36-0.748-3.15-1.376-5.44-1.973l-7.38-1.891c-3.01-0.78-5.63-1.909-7.81-3.4-4.82-3.304-7.49-8.406-7.49-15.499 0-11.379 8-18.58 24.49-18.58 4.04 0 7.66 0.125 10.64 0.302 1.72 0.104 3.2 0.224 4.45 0.343 0.9 0.088 1.69 0.177 2.3 0.265 0.25 0.036 0.46 0.109 0.66 0.177 0.06 0.021 0.13 0.03 0.19 0.052 0.03 0.016 0.05 0.046 0.08 0.062 0.43 0.213 0.74 0.535 0.84 1.039 0.06 0.27 0.07 0.592 0.02 0.967l-0.62 3.871-0.58 3.611c-0.1 0.556-0.22 0.987-0.38 1.319-0.14 0.276-0.31 0.473-0.51 0.624-0.05 0.036-0.09 0.083-0.13 0.115-0.02 0.005-0.03 0.005-0.04 0.01-0.54 0.311-1.36 0.338-2.63 0.234-2.5-0.197-8.79-0.701-14.99-0.701-4.59 0-9.39 0.993-9.39 6.199 0 2.281 0.88 3.761 2.73 4.868 1.15 0.686 2.65 1.232 4.57 1.73l1.83 0.468 5.55 1.418c13.2 3.399 16.98 9.896 16.98 18.599 0.01 14.779-11.59 19.975-27.45 19.975m-23.64-55.35c0 2.006-0.62 2.701-2.61 2.701h-16.98v49.35c0 2.009-0.61 2.709-2.61 2.709h-9.181c-2.006 0-2.603-0.7-2.603-2.709v-49.35h-16.975c-2.011 0-2.603-0.695-2.603-2.701v-6.797c0-1.044 0.172-1.731 0.618-2.151 0.401-0.379 1.029-0.545 1.985-0.545h48.349c0.95 0 1.58 0.166 1.98 0.55 0.45 0.421 0.63 1.102 0.63 2.146zm-55.993 54.76h-10.901c-2.145 0-3.008-0.58-3.886-1.924-0.099-0.149-0.197-0.305-0.302-0.477l-3.876-6.983-7.997-14.407c-0.411-0.693-0.675-1.248-0.831-1.789-0.114-0.395-0.182-0.78-0.182-1.199 0-0.327 0.078-0.803 0.254-1.6 0.041-0.187 0.082-0.372 0.139-0.602l1.009-4.197c0.302-1.274 0.623-1.949 1.013-2.358 0.78-0.816 1.856-0.535 3.783-1.33 0.93-0.406 1.85-0.919 2.63-1.71 1.142-1.163 1.968-2.946 1.968-5.99 0-5.591-2.905-7.788-8.9-7.788h-9.471v49.65c0 2.004-0.619 2.704-2.619 2.704h-9.197c-1.169 0-1.844-0.25-2.213-0.86-0.254-0.42-0.363-1.023-0.363-1.844v-58.853c0-0.925 0.136-1.564 0.472-1.99 0.39-0.493 1.044-0.706 2.104-0.706h22.29c15.39 0 22.383 6.999 22.383 19.489 0 9.689-5.502 14.091-10.396 17.187l3.898 6.457 10.687 17.711c0.649 0.998 0.747 1.729 0.561 2.269-0.275 0.8-1.215 1.14-2.057 1.14" fill="#fff"/>
  <path d="m401.05 0.026889c-0.53-0.015961-1.06-0.026602-1.59-0.026602-0.47 3.3e-7 -0.93 0.010641-1.39 0.021282-34.33 1.0494-34.06 49.541-34.06 68.859v0.977c0-19.546 15.91-35.444 35.45-35.444s35.45 15.904 35.45 35.449v-0.983c0-19.281 0.27-67.632-33.86-68.853z" fill="#00668f"/>
  <path d="m399.61 0.00028733c35.58-0.10375 35.3 49.329 35.3 68.88v68.55h34.78v-68.659c0-37.923-32.16-68.88-70.08-68.771z" fill="#00a1de"/>
  <path d="m329.26 66.641c0.01-0.275 0.02-0.556 0.04-0.831 0.9-20.429 11.13-38.604 26.41-50.648l-1.97-13.192h-24.52v66.178c0-0.227 0.01-0.457 0.02-0.686 0.01-0.275 0.01-0.545 0.02-0.821z" fill="#00668f"/>
  <path d="m363.98 72.663c-0.01 0.259-0.03 0.525-0.03 0.785-0.91 20.439-11.13 38.622-26.42 50.682l1.96 13.18h24.52v-66.18c0 0.229-0.01 0.453-0.01 0.676-0.01 0.285-0.02 0.571-0.02 0.857z" fill="#00668f"/>
  <path d="m398.41 0.010928c-37.53 0.37908-69.18 31.138-69.18 68.76v1.635c0 19.379 0.28 68.134-34.4 68.864 37.53-0.37 69.18-31.13 69.18-68.761v-1.629c0-19.385-0.28-68.142 34.4-68.869z" fill="#00a1de"/>
  <path d="m329.23 70.408v-0.987c0 19.552-15.91 35.449-35.45 35.449s-35.45-15.897-35.45-35.449v0.987c0 19.276-0.27 67.612 33.85 68.852 0.53 0.01 1.06 0.03 1.6 0.03 0.47 0 0.93-0.01 1.39-0.03 34.33-1.04 34.06-49.535 34.06-68.852z" fill="#00668f"/>
  <path d="m293.63 139.28c-35.59 0.11-35.3-49.321-35.3-68.872v-68.558h-34.78v68.662c0 37.928 32.16 68.888 70.08 68.768z" fill="#00a1de"/>
 </g>
</svg>
