<svg xmlns="http://www.w3.org/2000/svg" xmlns:xlink="http://www.w3.org/1999/xlink" viewBox="0 0 600 248.99"><defs><linearGradient id="3" x1="0" x2="1"><stop stop-color="#0092d4"/><stop stop-color="#00446d" offset="1"/></linearGradient><linearGradient id="4" y2="158.78" gradientUnits="userSpaceOnUse" x2="326.31" y1="19.665" x1="231.95"><stop stop-color="#00b1ff"/><stop stop-color="#003332" offset=".5"/><stop stop-color="#00b1ff" offset="1"/></linearGradient><linearGradient id="2" xlink:href="#3" gradientUnits="userSpaceOnUse" x2="265.43" x1="153.23"/><linearGradient id="0" xlink:href="#3" gradientUnits="userSpaceOnUse" x2="399.63" x1="287.42"/><linearGradient id="1" y2="89.68" gradientUnits="userSpaceOnUse" x2="432.19" y1="89.53" x1="96.04"><stop stop-color="#0096ff"/><stop stop-color="#69d2df" offset=".338"/><stop stop-color="#0096ff" offset=".338"/><stop stop-color="#34b4ef" offset=".556"/><stop stop-color="#69d2df" offset=".735"/><stop stop-color="#0096ff" offset=".735"/><stop stop-color="#34b4ef" offset=".939"/><stop stop-color="#69d2df" offset="1"/></linearGradient></defs><g transform="scale(1.38827)"><path fill="url(#4)" d="m254.9 2.581h29.999l12.84 82.58v92.13h-29.669l-13.17-83.61z"/><path fill="url(#2)" d="m163.55 77.935c-6.5 10.49-10.323 23.344-10.323 37.19 0 35.472 25.07 64.23 56 64.23s56-28.754 56-64.23c0-13.85 1.682-23.4-4.818-33.89l-5.505 9.858c0 25.23-20.45 45.677-45.677 45.677s-45.677-20.45-45.677-45.677z"/><path fill="url(#0)" d="m389.29 101.42c6.5-10.491 10.32-23.345 10.32-37.19 0-35.472-25.07-64.23-56-64.23-30.92 0-56 28.754-56 64.23 0 13.85-1.682 23.4 4.818 33.89l5.505-9.858c0-25.23 20.45-45.677 45.677-45.677s45.677 20.45 45.677 45.677z"/><path fill="url(#1)" d="m340.94.09c-47.75 1.384-86.04 40.473-86.04 88.56 0 .69.03 1.385.045 2.071h-.045c0 .129 0 .231 0 .36 0 65.46-19.14 86.86-43.22 88.19 47.16-1.224 85.18-39.21 86.3-86.39-.152-1.517-.225-3.08-.225-4.637 0-65.45 19.1-86.81 43.17-88.15zm4.952 0c24.08 1.337 43.22 22.692 43.22 88.15 0 0 .888 88.52.225 89.05h42.859v-88.64c0-48.17-38.435-87.31-86.3-88.56zm-225.19 1.981v42.859h-120.7v88.73h131.82c14.729 26.532 43.16 44.672 75.45 45.605-24.1-1.341-43.715-22.744-43.715-88.19v-89h-42.859m-16.477 65.909c5.288 0 9.498.324 11.39.585.85.131 1.301.552 1.171 1.531l-.81 4.862c-.262 1.439-.691 1.659-2.386 1.531-1.633-.134-5.767-.45-9.814-.45-3 0-6.123.655-6.123 4.052 0 2.415 1.509 3.429 4.772 4.277l4.817 1.261c8.616 2.219 11.12 6.475 11.12 12.155 0 9.663-7.583 13.06-17.963 13.06-4.637 0-9.406-.324-11.3-.585-.848-.131-1.299-.549-1.171-1.531l.765-4.997c.259-1.439.736-1.662 2.431-1.531 1.633.131 6.394.54 9.139.54 6 0 8.464-.667 8.464-4.322 0-2.481-1.69-3.638-5.672-4.682l-4.817-1.261c-6.335-1.63-9.995-5.608-9.995-12.336 0-7.442 5.213-12.155 15.982-12.155m-86.8.45h14.542c10.06 0 14.632 4.582 14.632 12.741 0 6.332-3.598 9.233-6.798 11.255l9.544 15.802c1.044 1.635-.075 2.206-.99 2.206h-7.113c-1.565 0-2.095-.464-2.746-1.576l-7.743-13.958c-.458-.785-.675-1.329-.675-1.981 0-.259.074-.658.27-1.441l.675-2.701c.586-2.483 1.217-1.646 3.106-2.431 1.505-.651 3.02-1.717 3.02-5.04 0-3.658-1.891-5.087-5.808-5.087h-6.213v32.46c0 1.311-.402 1.756-1.711 1.756h-5.988c-1.303 0-1.711-.445-1.711-1.756v-38.447c0-1.306.408-1.801 1.711-1.801zm34.22 0h31.604c1.308 0 1.711.495 1.711 1.801v4.412c0 1.306-.402 1.756-1.711 1.756h-11.08v32.28c0 1.308-.402 1.756-1.711 1.756h-6.03c-1.306 0-1.666-.447-1.666-1.756v-32.28h-11.12c-1.308 0-1.711-.45-1.711-1.756v-4.412c0-1.306.402-1.801 1.711-1.801"/></g></svg>