<?xml version="1.0" encoding="UTF-8" standalone="no"?>
<!-- Created with Inkscape (http://www.inkscape.org/) -->
<svg xmlns:rdf="http://www.w3.org/1999/02/22-rdf-syntax-ns#" xmlns="http://www.w3.org/2000/svg" xmlns:cc="http://creativecommons.org/ns#" xmlns:xlink="http://www.w3.org/1999/xlink" xmlns:dc="http://purl.org/dc/elements/1.1/" height="248.99" width="600" version="1.1">
  <defs>
    <linearGradient id="linearGradient3915" x1="0" x2="1" y1="0" y2="0">
      <stop stop-color="#0092d4" offset="0"/>
      <stop stop-color="#00446d" offset="1"/>
    </linearGradient>
    <linearGradient id="linearGradient3509" y2="618.28" gradientUnits="userSpaceOnUse" x2="1267.7" gradientTransform="matrix(0.25806438,0,0,0.25806438,-0.8387092,-0.7742028)" y1="79.202" x1="902.05">
      <stop stop-color="#00b1ff" offset="0"/>
      <stop stop-color="#003332" offset="0.5"/>
      <stop stop-color="#00b1ff" offset="1"/>
    </linearGradient>
    <linearGradient id="linearGradient3511" y2="501.5" xlink:href="#linearGradient3915" gradientUnits="userSpaceOnUse" x2="1031.8" gradientTransform="matrix(0.25806438,0,0,0.25806438,-0.8387092,-0.7742028)" y1="501.5" x1="597"/>
    <linearGradient id="linearGradient3513" y2="199.5" xlink:href="#linearGradient3915" gradientUnits="userSpaceOnUse" x2="1551.8" gradientTransform="matrix(0.25806438,0,0,0.25806438,-0.8387092,-0.7742028)" y1="199.5" x1="1117"/>
    <linearGradient id="linearGradient3515" y2="350.5" gradientUnits="userSpaceOnUse" x2="1678" gradientTransform="matrix(0.25806438,0,0,0.25806438,-0.8387092,-0.7742028)" y1="349.92" x1="375.39">
      <stop stop-color="#0096ff" offset="0"/>
      <stop stop-color="#69d2df" offset="0.33754"/>
      <stop stop-color="#0096ff" offset="0.33754"/>
      <stop stop-color="#34b4ef" offset="0.55564"/>
      <stop stop-color="#69d2df" offset="0.73472"/>
      <stop stop-color="#0096ff" offset="0.73472"/>
      <stop stop-color="#34b4ef" offset="0.93913"/>
      <stop stop-color="#69d2df" offset="1"/>
    </linearGradient>
  </defs>
  <metadata>
    <rdf:RDF>
      <cc:Work rdf:about="">
        <dc:format>image/svg+xml</dc:format>
        <dc:type rdf:resource="http://purl.org/dc/dcmitype/StillImage"/>
        <dc:title/>
      </cc:Work>
    </rdf:RDF>
  </metadata>
  <g transform="scale(1.3882676,1.3882676)">
    <path fill="url(#linearGradient3509)" d="m254.9,2.5806,29.999,0,12.84,82.581,0,92.129-29.669,0-13.17-83.613z"/>
    <path fill="url(#linearGradient3511)" d="m163.55,77.935c-6.5003,10.49-10.323,23.344-10.323,37.194,0,35.472,25.072,64.226,56,64.226s56-28.754,56-64.226c0-13.85,1.6822-23.4-4.818-33.89l-5.5045,9.8578c0,25.227-20.45,45.677-45.677,45.677s-45.677-20.45-45.677-45.677z"/>
    <path fill="url(#linearGradient3513)" d="M389.29,101.42c6.5-10.491,10.32-23.345,10.32-37.194,0-35.472-25.07-64.226-56-64.226-30.92,0-56,28.754-56,64.226,0,13.85-1.6822,23.4,4.8181,33.89l5.5045-9.8578c0-25.227,20.45-45.677,45.677-45.677s45.677,20.45,45.677,45.677z"/>
    <path fill="url(#linearGradient3515)" d="M340.94,0.09004c-47.75,1.3844-86.04,40.473-86.04,88.555,0,0.68951,0.0296,1.3851,0.045,2.0709h-0.045c0.001,0.12938,0,0.23056,0,0.36016,0,65.458-19.143,86.857-43.219,88.194,47.156-1.2244,85.176-39.213,86.304-86.394-0.1522-1.5172-0.22512-3.0798-0.22512-4.6371,0-65.451,19.102-86.808,43.174-88.149zm4.9522,0c24.076,1.3373,43.219,22.692,43.219,88.149,0,0,0.8876,88.523,0.2251,89.05h42.859v-88.645c0-48.169-38.435-87.306-86.304-88.555zm-225.19,1.9809,0,42.859-120.7,0,0,88.735,131.82,0c14.729,26.532,43.159,44.672,75.454,45.605-24.103-1.3414-43.715-22.744-43.715-88.194v-89.005h-42.859zm-16.477,65.909c5.2881,0,9.4984,0.32358,11.39,0.58526,0.85046,0.13084,1.3014,0.55211,1.1705,1.5307l-0.81037,4.8622c-0.26168,1.4392-0.69061,1.6588-2.3861,1.5307-1.6328-0.13356-5.7666-0.4502-9.8144-0.4502-3.0038,0-6.1227,0.65545-6.1227,4.0518,0,2.4151,1.5093,3.4292,4.7721,4.2769l4.8172,1.2606c8.6163,2.2188,11.12,6.4748,11.12,12.155,0,9.663-7.5831,13.056-17.963,13.056-4.6366,0-9.4056-0.32359-11.3-0.58526-0.84773-0.13084-1.2986-0.54939-1.1705-1.5307l0.76534-4.9972c0.25895-1.4392,0.73563-1.6615,2.4311-1.5307,1.6328,0.13084,6.3942,0.54024,9.1391,0.54024,6.005,0,8.4638-0.66661,8.4638-4.3219,0-2.4805-1.6901-3.6381-5.6725-4.6821l-4.8172-1.2606c-6.3348-1.63-9.9945-5.6082-9.9945-12.336,0-7.4415,5.2125-12.155,15.982-12.155zm-86.799,0.4502,14.542,0c10.056,0,14.632,4.5823,14.632,12.741,0,6.3321-3.5979,9.2325-6.798,11.255l9.5443,15.802c1.044,1.6355-0.07456,2.206-0.99044,2.206h-7.1132c-1.5646,0-2.0948-0.46357-2.7462-1.5757l-7.743-13.958c-0.45793-0.78504-0.6753-1.3294-0.6753-1.9809,0-0.25894,0.07386-0.65835,0.27012-1.4406l0.6753-2.7012c0.58605-2.4832,1.2174-1.646,3.1064-2.4311,1.5046-0.65146,3.0164-1.7168,3.0164-5.0423,0-3.658-1.8906-5.0873-5.8076-5.0873h-6.2128v32.46c0,1.3111-0.40237,1.7558-1.7108,1.7558h-5.9877c-1.3029,0-1.7108-0.44467-1.7108-1.7558v-38.447c0-1.3057,0.40783-1.8008,1.7108-1.8008zm34.215,0,31.604,0c1.3084,0,1.7108,0.49514,1.7108,1.8008v4.412c0,1.3057-0.40237,1.7558-1.7108,1.7558h-11.075v32.279c0,1.3084-0.40237,1.7558-1.7108,1.7558h-6.0327c-1.3057,0-1.6657-0.4474-1.6657-1.7558v-32.279h-11.12c-1.3084,0-1.7108-0.45013-1.7108-1.7558v-4.412c0-1.3057,0.40237-1.8008,1.7108-1.8008z"/>
  </g>
</svg>
