<?xml version="1.0" encoding="UTF-8" standalone="no"?>
<svg xmlns:rdf="http://www.w3.org/1999/02/22-rdf-syntax-ns#" xmlns="http://www.w3.org/2000/svg" enable-background="new 0 0 609.648 670.332" xml:space="preserve" height="409.43" viewBox="0 0 599.99999 409.42928" width="600" version="1.1" y="0px" x="0px" xmlns:cc="http://creativecommons.org/ns#" xmlns:dc="http://purl.org/dc/elements/1.1/"><g stroke-width="8.1081" transform="translate(-119.52 346.74)"><path d="m205.07-174.27 58.31 123.71-53.31 25.151-58.32-123.73zm198.22-93.45-53.31 25.14c-8.18-17.35-21.3-30.39-39.35-39.14-20.97-9.64-42.18-9.43-63.6 0.67l-102.3 48.22-24.89-52.81 100.76-47.5c34.2-16.11 69.09-17.9 104.71-5.4 35.63 12.53 61.62 36.13 77.98 70.82zm58.44 123.99-185.62-63.72-67.1 31.63 185.63 63.71z" fill="#ec1c24"/><g fill="#231f20"><path d="m166.54 56.224c0 4.321-2.08 6.47-6.27 6.47h-21.43c-12.87 0-19.32-6.397-19.32-19.184v-16.654c0-13.078 6.4-19.63 19.21-19.63h15.01v-10.662c0-4.3457 2.13-6.5268 6.41-6.5268 4.26 0 6.39 2.1325 6.39 6.3487zm-12.8-6.373v-29.83h-14.9c-4.34 0-6.52 2.197-6.52 6.592v17.067c0 4.128 2.15 6.171 6.48 6.171z"/><path d="m191.85 26.443c0-12.868 6.42-19.29 19.25-19.29h8.48c12.85 0.0005 19.28 6.398 19.28 19.233v16.605c0 13.087-6.4 19.63-19.2 19.63h-8.75c-12.71 0-19.07-6.397-19.07-19.216v-16.962zm19.11-6.422c-4.2 0-6.3 2.124-6.3 6.365v16.849c0 4.394 2.1 6.567 6.3 6.567h8.62c4.32 0 6.48-2.173 6.48-6.567v-17.011c0-4.127-2.16-6.203-6.48-6.203z"/><path d="m300.57 30.691c-4.36 0-6.52-2.148-6.52-6.47v-4.2h-10.55c-4.35 0-6.53 2.197-6.53 6.592v29.611c0 4.321-2.13 6.47-6.4 6.47s-6.4-2.124-6.4-6.397v-29.441c0-13.078 6.4-19.63 19.2-19.63l17.07 0.0491c4.26 0 6.39 2.1 6.39 6.3239v10.622c0 4.322-2.08 6.47-6.26 6.47z"/><path d="m379.21 56.224c0 4.321-2.09 6.47-6.27 6.47h-21.41c-12.9 0-19.33-6.397-19.33-19.184v-16.654c0-13.078 6.4-19.63 19.19-19.63h15.02v-10.662c0-4.3457 2.14-6.5268 6.42-6.5268 4.25 0 6.39 2.1325 6.39 6.3487v59.838zm-12.8-6.373v-29.83h-14.88c-4.36 0-6.52 2.197-6.52 6.592v17.067c0 4.128 2.15 6.171 6.48 6.171z"/><path d="m440.93 30.691c-4.37 0-6.55-2.148-6.55-6.47v-4.2h-10.52c-4.36 0-6.54 2.197-6.54 6.592v29.611c0 4.321-2.13 6.47-6.39 6.47-4.27 0-6.41-2.124-6.41-6.397v-29.441c0-13.078 6.41-19.63 19.2-19.63l17.06 0.0491c4.28 0 6.4 2.1 6.4 6.3239v10.622c0 4.322-2.07 6.47-6.25 6.47z"/><path d="m519.57 56.378c0 4.224-2.15 6.316-6.39 6.316h-21.45c-12.79 0-19.19-6.543-19.19-19.622v-29.448c0-4.2489 2.13-6.3976 6.4-6.3976h33.86c4.48-0.0243 6.73 2.1 6.73 6.3726-0.03 4.127-2.2 6.268-6.55 6.341l-27.65-0.049v8.554l19.17-0.105c4.32 0.081 6.47 2.27 6.47 6.616 0.05 4.152-2.07 6.227-6.35 6.227l-19.29 0.049v2.124c0 4.379 2.19 6.552 6.52 6.552l21.45 0.024c4.17 0 6.27 2.14 6.27 6.446z"/><path d="m591.88 56.378c0 4.224-2.11 6.316-6.39 6.316h-21.41c-12.79 0-19.19-6.543-19.19-19.622v-16.459c0-12.916 6.4-19.387 19.19-19.387h21.07c4.46-0.0239 6.68 2.1004 6.68 6.373-0.02 4.127-2.19 6.268-6.51 6.341h-21.43c-4.15-0.024-6.22 2.197-6.22 6.697v16.719c0 4.379 2.19 6.552 6.52 6.552l21.41 0.024c4.22 0 6.28 2.14 6.28 6.446z"/><path d="m623.52 62.694c-4.22 0-6.32-2.149-6.32-6.47v-59.838c0-4.2244 2.13-6.3488 6.39-6.3488 4.28 0 6.4 2.1811 6.4 6.5271v10.662h15.03c12.81 0.0001 19.21 6.5517 19.21 19.63v29.441c0 4.273-2.16 6.397-6.4 6.397-4.28 0-6.39-2.149-6.39-6.47v-29.611c0-4.395-2.18-6.592-6.5-6.592h-14.95v36.203c0 4.321-2.14 6.47-6.47 6.47z"/><path d="m719.52 56.378c0 4.224-2.13 6.316-6.4 6.316h-4.38c-12.8 0-19.22-6.543-19.22-19.622v-42.243c0-4.2647 2.14-6.3891 6.42-6.3891 4.27-0.0243 6.42 2.0919 6.4 6.3892v6.373l10.39 0.0243c4.47-0.0243 6.69 2.1 6.69 6.3726 0 4.127-2.15 6.268-6.47 6.341l-10.62-0.049v23.465c0 4.379 2.17 6.552 6.52 6.552l4.34 0.024c4.22 0 6.33 2.14 6.33 6.446z"/></g><path fill="#206ab3" d="m715.64-29.909-35.31-74.931c-85.37 1.18-138.02 6.961-162.79-45.51l-42.06-89.3c-26.38-0.94-55.4-8.4-70.98-28.63l-1.21 0.56 70.56 149.68c24.25 51.466 65.91 57.32 124.41 58.602 42.26 0.973 90.79-2.036 116.18 30.097z"/></g></svg>
