<svg xmlns="http://www.w3.org/2000/svg" viewBox="0 0 2500 2500"><rect stroke-linejoin="bevel" height="2086.9" width="2319.9" stroke="#fff" stroke-linecap="round" y="222.46" x="74.15" stroke-width="6.733" fill="#fff" rx="21.63"/><path fill="#c00" d="m0 1250v-1250h1250 1250v1250 1250h-1250-1250v-1250m354.18 795.62c22.377-2.356 47.566-14.396 65.969-31.531 3.341-3.111 6.529-5.092 7.558-4.697 1.185.455 2.596 5.579 4.222 15.334l2.442 14.651 51.562.326 51.562.326v-21.889c0-12.04-.422-21.895-.938-21.903-4.312-.065-32.1-5.02-32.954-5.878-.62-.62-1.238-80.42-1.416-182.91l-.317-181.81-54.802-.013c-30.14 0-55.08.447-55.43 1.01-1.171 1.896-6.397 42.742-5.579 43.61.447.474 7.806 3.317 16.354 6.318 11.01 3.866 16.208 6.35 17.829 8.521 2.129 2.852 2.265 6.03 1.959 45.704l-.329 42.639-11.201-6.687c-13.253-7.912-27.569-13.332-42.766-16.193-14.787-2.783-39.457-1.905-53.42 1.903-41.733 11.38-70.08 45.33-80.74 96.7-5.514 26.578-6.283 65.35-1.884 94.98 5.333 35.919 15.12 58.16 33.718 76.64 21.439 21.3 48.981 29.03 88.6 24.855zm-3.928-66.736c-21.16-7.309-32.02-30.16-33.65-70.781-1.559-38.942 6.403-67.926 22.77-82.88 9.552-8.73 18.13-11.899 32.499-12.01 13.02-.097 27.898 4.052 39.498 11.02l6.752 4.054.324 65.21.324 65.21-5.949 4.372c-8.776 6.45-23.938 14.09-32.28 16.262-9.758 2.542-22.14 2.353-30.29-.461m616.99 62.33c31.33-3.928 58.704-16.12 78.25-34.83 9.751-9.338 20.1-22.608 18.617-23.877-.542-.464-14.557-6.06-31.14-12.428l-30.16-11.584-7.974 7.943c-13.234 13.182-26.704 18.03-47.587 17.11-10.303-.451-12.981-1.064-20.223-4.629-11.05-5.441-19.621-14.186-24.992-25.503-5.19-10.9-7.07-19.3-7.07-31.4v-9.04l47.19-2.199c70.53-3.287 117.62-5.764 125.19-6.584l6.751-.731-.757-19.574c-1.22-31.519-5.63-51.848-15.908-73.32-14.617-30.544-37.15-49.25-69.2-57.45-22.06-5.641-51.13-5.703-72.64-.155-69.63 17.961-113.59 92.76-102.55 174.48 8.624 63.834 49.13 105.68 110.05 113.7 11.173 1.47 32.447 1.475 44.12.013zm-72.24-174.8c0-6.231 4.807-22.614 8.876-30.25 4.936-9.261 15.247-19.12 24.364-23.292 9.232-4.226 24.567-5.342 34.33-2.498 19.04 5.552 30.568 21.388 32.13 44.16l.615 8.946-7.969.759c-11.66 1.2-82.41 5.8-87.77 5.8-4.2 0-4.58-.3-4.58-3.6zm1281.6 172.34c33.03-7.311 59.01-23.256 77.36-47.48 7.312-9.658 10.833-6.918-28.2-21.941l-28.584-11-5.791 6.383c-7.26 8-15.862 13.361-26.788 16.688-12.443 3.79-31.03 2.967-41.42-1.834-14.893-6.881-24.307-17.81-29.929-34.743-3.778-11.379-5.693-30.806-3.117-31.621.94-.297 10.428-.869 21.08-1.27 31.917-1.202 143.86-6.913 151.12-7.71l6.749-.74-.829-18.364c-2.172-48.14-13.756-81.49-36.22-104.29-20.03-20.323-44.584-30.17-79.24-31.776-47.525-2.2-86.83 16.05-114.78 53.29-34.828 46.41-42.11 117.6-17.371 169.93 18.277 38.667 50.48 61.725 96.19 68.874 12.855 2.01 45.83.69 59.763-2.394zm-86.4-175.98c1.701-10.992 3.376-16.36 7.919-25.381 5.552-11.03 13.679-19.16 24.06-24.08 7.789-3.69 9.37-3.982 21.531-3.982 11.564 0 13.943.389 20 3.266 8.254 3.921 15.419 10.862 19.508 18.898 3.562 6.999 6.697 19.498 6.723 26.8l.019 5.213-7.813.742c-12.09 1.149-82.42 5.707-88.05 5.707h-5.01l1.112-7.188m-470.41 175.27c.742-.742 4.936-42.742 5.083-50.907l.085-4.697-16.562.068c-19.1.079-26.666-1.642-34.932-7.947-6.245-4.763-11.683-14.61-13.508-24.46-.728-3.932-1.248-33.965-1.248-72.19v-65.45h35 35v-29.375-29.375h-35-35v-28.12c0-24.277-.259-28.12-1.892-28.12-2.204 0-61.49 7.129-68.42 8.227l-4.688.743v23.606 23.606l-17.812.347-17.812.347-3.177 28.75-3.177 28.75 19.11.344 19.11.344v74.25c0 44.45.523 78.18 1.304 84.03 3.923 29.425 16.968 49.566 39.09 60.35 16.715 8.148 22.421 8.888 63.23 8.199 19.524-.33 35.818-.919 36.21-1.31m-934.81-88.4c.02-92.55.184-95.33 6.342-107.4 3.997-7.834 12.769-16.447 20.792-20.415 9.168-4.534 22.846-5.428 45.972-3.01 8.938.936 16.812 1.716 17.499 1.733 1.405.035 10.767-67 9.537-68.3-2.782-2.932-40.42-4.509-51.662-2.166-19.271 4.02-36.576 18.435-47.873 39.88l-6.249 11.863-.757-10.156c-1.466-19.677-8.954-31.82-23.869-38.707l-7.876-3.637-25 .156c-13.75.085-28.375.65-32.5 1.255l-7.5 1.099-.336 27.808-.337 27.808 5.337.07c8.04.106 13.651 2.536 16.856 7.302l2.856 4.247v108.57 108.57h39.37 39.37l.019-86.56zm526.26 3.75c.014-45.547.549-86.44 1.19-90.87 3.282-22.71 15.988-39 34.871-44.71 10.184-3.079 26.313-2.736 35.35.753 8.816 3.404 17.01 10.513 21.388 18.556 7.05 12.961 7.14 14.288 7.16 110.65l.019 88.44h39.42 39.42l-.384-106.56c-.381-105.72-.407-106.64-3.164-116.56-7.283-26.2-21.713-45.08-42.06-55.02-15.523-7.586-27.887-9.918-47.576-8.977-35.12 1.679-59.7 16.13-81.77 48.06-1.544 2.234-3.244 4.063-3.776 4.063-.761 0-8.871-41.462-8.863-45.31 0-.516-15.748-.938-34.998-.938h-35v140.62 140.62h39.37 39.37l.025-82.81zm556.32 80.62c.051-1.203.232-41.28.403-89.06.224-62.938.727-88.56 1.825-92.98 5.553-22.374 20.684-36.454 42.863-39.887 21.23-3.285 40.459 5.636 49.16 22.801 6.805 13.429 6.87 14.49 6.89 111.63l.019 89.69h39.37 39.37l-.025-102.81c-.015-61.683-.524-106.27-1.273-111.45-1.699-11.758-7.862-29.641-13.371-38.799-16.664-27.704-50.819-42.03-88.29-37.04-27.599 3.679-50.62 17.712-68.9 42-3.868 5.14-7.424 9.345-7.901 9.345s-.867-36.701-.867-81.56v-81.56l-38.438-.015c-21.14-.013-38.485.411-38.542.932-.058.521-.105 90.1-.105 199.07s.047 198.97.105 200c.09 1.624 5.29 1.875 38.855 1.875 36.04 0 38.756-.153 38.843-2.188zm-481.3-612.2c60.23-2.955 67.57-3.43 68.17-4.412.869-1.406 14.758-154.91 14.08-155.59-.323-.323-7.852.013-16.731.734-21.729 1.779-62.848 1.791-73.64.021-28.568-4.682-47.71-13.312-63.54-28.649-12.178-11.796-20.242-25.555-26.309-44.891-7.01-22.327-7.02-22.846-7.02-222.87v-183.69l163.99.317 163.99.317 54.11 133.75c29.762 73.56 66.973 165.53 82.69 204.38 15.719 38.844 48.758 120.55 73.42 181.56l44.838 110.94h99.02 99.02l2.579-6.892c1.418-3.791 8.724-22.775 16.235-42.19 7.511-19.413 18.423-47.671 24.25-62.796 5.825-15.12 41.09-106.53 78.36-203.12 37.27-96.59 72.43-187.72 78.13-202.5 16.512-42.838 105.83-274.21 106.52-275.94.498-1.243-22.758-1.563-113.8-1.563-107.89 0-114.46.125-115.08 2.188-.362 1.203-9.638 32.28-20.612 69.06s-32.889 110.19-48.699 163.12c-15.81 52.938-41.496 139-57.08 191.25-15.584 52.25-29.998 100.48-32.03 107.19-3.323 10.959-3.995 12.188-6.665 12.188-2.54 0-3.334-1.129-5.491-7.813-1.387-4.297-7.06-22.02-12.602-39.37s-14.537-45.48-19.984-62.5c-5.447-17.02-16.459-51.47-24.471-76.56-8.01-25.09-18.982-59.41-24.378-76.25-5.396-16.844-20.861-65.22-34.37-107.5s-28.975-90.66-34.376-107.5c-5.401-16.844-12.458-38.922-15.683-49.06l-5.864-18.438h-257.98-257.98v-80.6-80.6l-5.313.724c-2.922.398-50.31 6.17-105.31 12.827l-100 12.1-.323 67.76-.323 67.76-50.29.327-50.29.327-8.373 77.5c-4.605 42.625-8.408 79.33-8.451 81.56l-.079 4.063h53.697 53.697l.457 215.31c.414 194.97.659 216.73 2.596 230.31 8.361 58.64 26.921 101.2 58.25 133.58 24.353 25.17 52.37 41.667 88.22 51.945 15.844 4.542 39.66 8.627 58.29 10 18.02 1.327 71.08.516 118.54-1.813m-767.48-239.02c.0001-127.02.322-235.72.695-241.56 3.319-52.01 21.361-92.24 52.719-117.56 17.12-13.821 38.545-23.24 61.12-26.876 22.01-3.542 62.708-1.615 117.82 5.581 14.854 1.939 27.24 3.316 27.534 3.059.29-.257 4.639-31.543 9.666-69.52s10.764-81.15 12.75-95.93c1.986-14.781 3.401-27.11 3.144-27.398-2.027-2.269-56.06-8.247-86.09-9.524-69.846-2.971-120.75 17.744-162.38 66.09-14.782 17.16-33.3 47.741-44.873 74.1-2.964 6.749-3.705 7.574-6.356 7.07l-3-.574-.615-23.942c-.68-26.461-2.183-35.37-8.826-52.28-16.13-41.09-51.586-64.917-103.94-69.853-20.848-1.966-79.66-.057-118.75 3.853-18.524 1.853-34.629 3.733-37.812 4.414l-2.813.602v78.1 78.1l11.562.025c29.973.064 44.541 6.367 53.02 22.936 6.947 13.581 6.625-1.989 6.649 321.52.012 164.37.397 299.23.855 299.69.458.458 49.677.833 109.38.833h108.54l.017-230.94z"/></svg>