<svg xmlns="http://www.w3.org/2000/svg" height="245.25" width="600" viewBox="0 0 158.75 64.889439"><defs><linearGradient id="3" gradientUnits="userSpaceOnUse" gradientTransform="matrix(35.665 34.923-35.665 34.923 71.815 139.12)" x1="0" x2="1"><stop stop-color="#04b7ee"/><stop stop-color="#04b7ee" offset=".25"/><stop stop-color="#0f4496" offset="1"/></linearGradient><linearGradient id="2" gradientUnits="userSpaceOnUse" gradientTransform="matrix(30.336 0 0 29.704 72.836 138.2)" x1="0" x2="1"><stop stop-color="#fff"/><stop stop-color="#fff" offset=".668"/><stop stop-color="#c0c6c9" offset="1"/></linearGradient><linearGradient id="0" gradientUnits="userSpaceOnUse" gradientTransform="matrix(52.832 9.1217-9.3156 51.732 98.87 129.69)" x1="0" x2="1"><stop stop-color="#04b7ee"/><stop stop-color="#04b7ee" offset=".25"/><stop stop-color="#0f4496" offset=".75"/><stop stop-color="#0f4496" offset=".784"/><stop stop-color="#0f4496" offset="1"/></linearGradient><linearGradient id="1" gradientUnits="userSpaceOnUse" gradientTransform="matrix(83.112 0 0 81.381 64.3 138.17)" x1="0" x2="1"><stop stop-color="#04b7ee"/><stop stop-color="#04b7ee" offset=".25"/><stop stop-color="#0087c5" offset=".437"/><stop stop-color="#0f4496" offset=".75"/><stop stop-color="#0f4496" offset=".784"/><stop stop-color="#0f4496" offset="1"/></linearGradient></defs><g transform="translate(11.339-105.81)"><path fill="url(#3)" d="m64.3 146.48v16.17l46.593 8.04v-24.21z"/><path fill="url(#1)" d="m64.3 162.65h83.11v-48.96h-83.11z"/><path fill="url(#2)" d="m95.28 121.34v19.9c-.964-2.6-14.437-18.83-15.559-19.9h-6.887v33.72h7.835v-22.09c2.988 3.34 13.11 16.85 15.572 22.09h6.926v-33.72z"/><path fill="url(#0)" d="m103.17 105.81v49.25l44.24 7.59v-49.2l-44.24-7.64"/><path d="m132.09 118.45l7.91 1.37v33.79l-7.91-1.37v-14.82h-13.29v12.53l-7.91-1.36v-33.8l7.91 1.37v13.93h13.29z" fill="#fff"/><g fill="#0ba3e1"><path d="m51.3 127.07s-5.466 14.67-5.851 15.52c-.404-.86-5.847-15.52-5.847-15.52h-6.352c2.26 6.63 6.04 15.1 9.477 21.91h5.254c3.148-6 7.839-17.36 9.478-21.91z"/><path d="m1.203 134.11c0 1.07-.38 1.81-1.169 2.24-1.537.84-4.244.69-5.856.69v-5.67c2.388-.2 4.81-.04 5.84.59.773.47 1.185 1.13 1.185 2.15m1.141 5.97c1.311-.54 2.342-1.27 3.065-2.18.775-.97 1.169-2.25 1.169-3.8 0-2.48-.971-4.34-2.886-5.52-1.883-1.17-4.623-1.76-8.14-1.76-.958 0-3.953 0-6.891.59v21.57h5.517v-7.85h2.289c1.722 1.99 3.295 4.43 5.34 7.85h6.309c-1.396-2.93-4.183-7.14-5.773-8.9"/><path d="m29.11 127.07h-20.705l1.899 4.93h6.525v16.98h5.858v-16.98h8.354z"/></g></g></svg>