<svg xmlns="http://www.w3.org/2000/svg" enable-background="new 0 0 1600 900" viewBox="0 0 600 156.35873" height="156.36" xmlns:xlink="http://www.w3.org/1999/xlink"><defs><path id="0" d="m811.95 482.74c0-31.33 25.4-56.73 56.73-56.73 31.32 0 56.72 25.4 56.72 56.73s-25.4 56.73-56.72 56.73c-31.33 0-56.73-25.4-56.73-56.73m36.8-106.54c-58.85 11.01-97.63 67.63-86.62 126.48 11.01 58.84 67.65 97.62 126.49 86.61s97.62-67.64 86.61-126.49c-9.75-52.1-55.27-88.48-106.43-88.47-6.61 0-13.32.61-20.05 1.87m154.15 57.88c0 66.43 100.5 62.39 100.5 93.18 0 12.15-12.5 18.63-27.1 18.63-33.7 0-56.3-22.68-56.3-22.68l-23.53 36.05s28.73 30.38 80.23 30.38c49 0 79-27.54 79-61.98 0-66.44-100.5-62.79-100.5-91.96 0-12.96 13-18.64 26.3-18.64 31.6 0 50.7 17.82 50.7 17.82l19-38.07s-22.7-23.49-69.3-23.49c-44.5-.0001-79 22.27-79 60.76m206.3-106.63v53.28h-32.6v46.22h32.6v82.89c-.1 46.51 25.3 79.7 83.5 79.7 11.9 0 23.3-.89 34.1-3.86l-7.7-45.891c-11.9 1.93-26.6 1.55-26.6 1.55-16.2 0-29.9-14.64-29.9-31.49v-82.89h64.2v-46.22h-64.2v-53.28zm-698.19 120.66c0-47.5 38.52-86.01 86.01-86.01s86 38.51 86 86.01-38.51 86-86 86-86.01-38.5-86.01-86m-55.4 0c0 78.1 63.31 141.4 141.41 141.4 78.09 0 141.4-63.3 141.4-141.4 0-78.09-63.31-141.41-141.4-141.41-78.1 0-141.41 63.31-141.41 141.41"/><clipPath id="1"><use xlink:href="#0"/></clipPath><linearGradient id="2" gradientUnits="userSpaceOnUse" x2="1323.46" x1="464.15"><stop stop-color="#0051cc"/><stop stop-color="#0051cc" offset=".012"/><stop stop-color="#1aacff" offset="1"/></linearGradient></defs><path clip-path="url(#1)" transform="matrix(.54969 0 0 .54969-129.32-168.59)" fill="url(#2)" d="m455.61 306.7h871.18v293.59h-871.18z"/><g fill="#0051cc"><path stroke-width=".55" d="m10 99.8h-10v-35.604h8.9l.551 6.899c2.484-4.898 7.108-6.887 13.318-6.887l-.206 9.509h-2.071c-6.624 0-10.489 3.451-10.489 11.73z"/><path transform="matrix(.54969 0 0 .54969-129.32-168.59)" d="m336.5 423.48h20.2l14.94 41.05 14.94-41.05h19.21l-25.74 64.78h-17.7z"/><path stroke-width=".55" d="m42.787 64.04h11.254v8.16h-11.254v14.699c0 3.235 1.477 4.782 4.29 4.782 2.884 0 5.768-.773 5.768-.773l1.196 8.439s-3.868 1.691-9.565 1.691c-7.245 0-11.887-4.01-11.887-11.538v-17.3h-6.682v-8.16h6.682v-8.721h10.198z"/></g></svg>