<svg xmlns="http://www.w3.org/2000/svg" height="186.33" width="600" viewBox="0 0 158.75 49.301174" xmlns:xlink="http://www.w3.org/1999/xlink"><g fill="#e1f3fd"><path d="m24.429 32.394v4.451c1.93.953 4.03 1.598 6.26 1.862l-3.07-6.313h-3.19"/><path d="m45.959 19.423c0 5.122-2.97 9.546-7.28 11.644v.009-.009.009l3.04 5.712c5.71-2.87 9.83-8.492 10.58-15.12-1.16-.09-2.07-1.062-2.07-2.243h-4.27"/><path d="m32.959 6.477h.04-.05"/><path d="m33.01 6.476v-6.476c-5.75 0-10.912 2.507-14.463 6.476h14.393.07"/></g><path d="m38.68 31.07v-.009c4.31-2.098 7.28-6.521 7.28-11.644 0-7.148-5.8-12.943-12.95-12.943h-.05-19.301v6.476h-13.641v12.943h13.632v23.387h10.78v-16.884h3.19l8.21 16.875h12.51l-9.66-18.201" fill="#455b93"/><path d="m38.68 31.07v-.009c4.31-2.098 7.28-6.521 7.28-11.644 0-7.148-5.8-12.943-12.95-12.943h-.05-19.301v6.476h-13.641v12.943h13.632v23.387h10.78v-16.884h3.19l8.21 16.875h12.51l-9.66-18.201" fill="#124395"/><path d="m38.68 31.07v-.009c4.31-2.098 7.28-6.521 7.28-11.644 0-7.148-5.8-12.943-12.95-12.943h-.05-19.301v6.476h-13.641v12.943h13.632v23.387h10.78v-16.884h3.19l8.21 16.875h12.51l-9.66-18.201z" stroke="#124395" stroke-width=".036" fill="none"/><path fill="#0071b9" d="m33.01 12.95c-1.91 0-3.63.836-4.82 2.152h4.82c2.39 0 4.32 1.935 4.32 4.324 0 2.379-1.93 4.314-4.32 4.314h-.05-4.77c1.18 1.326 2.91 2.161 4.82 2.161 3.58 0 6.48-2.906 6.48-6.475 0-3.579-2.9-6.476-6.48-6.476"/><path fill="#00518c" d="m38.679 31.06c-1.71.836-3.64 1.308-5.67 1.308-7.15 0-12.947-5.795-12.947-12.952 0-7.147 5.797-12.942 12.947-12.942h-.05-14.423c-3.069 3.433-4.949 7.974-4.949 12.942 0 7.648 4.423 14.26 10.842 17.429v-4.45h3.19l3.07 6.303c.76.091 1.53.146 2.32.146 3.13 0 6.09-.745 8.71-2.062l-3-5.649-.04-.073"/><path fill="#8e9bb2" d="m28.19 15.1h-.98l-2.87 8.638h3.85c-1.02-1.145-1.65-2.661-1.65-4.314 0-1.662.63-3.179 1.65-4.324"/><path fill="#c2e6fb" d="m50.23 19.419c.001-1.18.92-2.143 2.07-2.225-1.11-9.673-9.32-17.193-19.29-17.193v6.476c7.15 0 12.95 5.795 12.95 12.942h4.27"/><g fill="#00305b"><path d="m54.609 37.843h-4.35v-14.25h4.35v14.25"/><path d="m59.949 42.623h-2.48v-3.66h1.68c.59 0 .88-.318.88-.872v-14.486h4.34v14.804c0 1.962-1.27 4.214-4.42 4.214"/><path d="m77.7 37.85v-8.537c0-1.644-1.17-1.962-1.75-1.962s-1.74.318-1.74 1.962v8.537h-4.36v-14.268h4.25v1.171c.87-.881 2.17-1.326 3.31-1.326 1.35 0 2.44.445 3.21 1.217 1.21 1.217 1.43 2.571 1.43 4.088v9.118h-4.35"/><path d="m103.32 37.85v-8.537c0-1.644-1.16-1.962-1.75-1.962-.58 0-1.74.318-1.74 1.962v8.537h-4.35v-8.537c0-1.644-1.18-1.962-1.76-1.962s-1.74.318-1.74 1.962v8.537h-4.351v-14.268h4.241v1.171c.87-.881 2.17-1.326 3.31-1.326 1.41 0 2.55.445 3.47 1.508 1.25-1.09 2.39-1.508 4.04-1.508 1.35 0 2.65.445 3.42 1.217 1.22 1.217 1.56 2.571 1.56 4.088v9.118h-4.35"/><path d="m122.99 36.18c-.84.899-2.27 1.835-4.58 1.835s-3.74-.936-4.59-1.835c-1.19-1.299-1.56-2.652-1.56-5.458 0-2.789.37-4.169 1.56-5.468.85-.899 2.28-1.826 4.59-1.826s3.74.927 4.58 1.826c1.19 1.299 1.57 2.679 1.57 5.468 0 2.806-.38 4.159-1.57 5.458m-3.42-8.428c-.26-.273-.63-.4-1.16-.4-.54 0-.9.127-1.17.4-.56.554-.64 1.562-.64 2.97 0 1.398.08 2.406.64 2.969.27.264.63.391 1.17.391.53 0 .9-.127 1.16-.391.56-.563.64-1.571.64-2.969 0-1.408-.08-2.416-.64-2.97"/><path d="m137.09 37.85v-8.537c0-1.644-1.17-1.962-1.75-1.962s-1.74.318-1.74 1.962v8.537h-4.35v-14.268h4.24v1.171c.87-.881 2.17-1.326 3.31-1.326 1.36 0 2.44.445 3.21 1.217 1.22 1.217 1.43 2.571 1.43 4.088v9.118h-4.35"/><path d="m154.54 37.85v-1.171c-.88.881-1.8 1.335-3.29 1.335-1.38 0-2.65-.482-3.47-1.308-1.41-1.399-1.33-3.896-1.33-5.985 0-2.098-.08-4.587 1.33-5.995.82-.826 2.06-1.299 3.44-1.299 1.41 0 2.39.391 3.18 1.19v-5.649h4.35v18.882h-4.21m-1.94-10.499c-1.62 0-1.81 1.299-1.81 3.37 0 2.061.19 3.36 1.81 3.36s1.8-1.299 1.8-3.36c0-2.071-.18-3.37-1.8-3.37"/><path d="m64.42 19.427c0 1.235-1.01 2.243-2.25 2.243s-2.24-1.01-2.24-2.243c0-1.236 1-2.244 2.24-2.244s2.25 1.01 2.25 2.244"/><path d="m45.959 19.419h-1.05v.009c0 1.236-1.01 2.244-2.25 2.244s-2.25-1.01-2.25-2.244v-.009h-.93c0 3.579-2.89 6.476-6.47 6.476-1.92 0-3.63-.835-4.82-2.152h-3.85l2.87-8.638h.98c1.19-1.326 2.9-2.152 4.82-2.152v-6.476c-4.79 0-8.97 2.607-11.209 6.476-1.099 1.898-1.735 4.114-1.735 6.466 0 2.362.636 4.578 1.735 6.476 2.239 3.869 6.419 6.476 11.209 6.476 7.16 0 12.95-5.795 12.95-12.952"/><path d="m33.01 38.843c-.78 0-1.56-.045-2.32-.136l2.32 4.768 2.82 5.804h12.51l-6.63-12.489c-2.61 1.308-5.57 2.053-8.7 2.053"/></g><path fill="#124395" d="m39.489 19.419h6.47c0-7.147-5.8-12.942-12.95-12.942v6.476c3.58 0 6.48 2.897 6.48 6.466"/><path fill="#bcb4da" d="m44.899 19.427c0 1.235-1 2.243-2.24 2.243s-2.24-1.01-2.24-2.243c0-1.236 1-2.244 2.24-2.244s2.24 1.01 2.24 2.244"/><g fill="#458bc2"><path d="m32.959 23.739h.06c2.38 0 4.31-1.935 4.31-4.314 0-2.389-1.93-4.323-4.31-4.323v8.637h-.05"/><path d="m28.19 15.1h-.98l-2.87 8.638h3.85c-1.02-1.145-1.65-2.661-1.65-4.314 0-1.662.63-3.179 1.65-4.324"/></g><path fill="#6e85a4" d="m28.19 15.1c-1.02 1.145-1.65 2.662-1.65 4.324 0 1.653.63 3.169 1.65 4.314h4.77.05v-8.638h-4.82"/><path fill="#4885a5" d="m28.19 15.1c-1.02 1.145-1.65 2.662-1.65 4.324 0 1.653.63 3.169 1.65 4.314h4.77.05v-8.638h-4.82"/><path fill="#64c7f3" d="m35.26 19.421c0 1.235-1.01 2.244-2.24 2.244-1.25 0-2.24-1.01-2.24-2.244 0-1.244.99-2.243 2.24-2.243 1.23 0 2.24.999 2.24 2.243"/><g fill="#271c41"><path d="m6.617 23.743l-1.526-3.216h-.718v3.216h-2.116v-8.638h3.415c1.917 0 2.943 1.353 2.943 2.779 0 1.172-.727 1.917-1.408 2.253l1.871 3.606h-2.461m-1.045-6.712h-1.199v1.753h1.199c.582 0 .927-.427.927-.872 0-.454-.345-.881-.927-.881" id="0"/><path d="m15.746 16.995v6.748h-2.116v-6.748h-2.125v-1.889h6.358v1.889h-2.117" id="1"/><path d="m25.12 23.74h-1.57l-2.853-8.638h2.203l1.45 4.832 1.42-4.832h2.21l-2.86 8.638" id="2"/></g><g fill="#fff"><use xlink:href="#0"/><use xlink:href="#1"/><use xlink:href="#2"/></g><path d="m54.72 19.428c0 1.235-1.01 2.243-2.24 2.243-1.25 0-2.25-1.01-2.25-2.243 0-1.236 1-2.244 2.25-2.244 1.23 0 2.24 1.01 2.24 2.244" fill="#124395"/></svg>