<svg xmlns="http://www.w3.org/2000/svg" height="257.76" width="600" viewBox="0 0 158.75 68.19786"><defs><linearGradient id="0" gradientUnits="userSpaceOnUse" x1="26.442" x2="146.83"><stop stop-color="#558a2f"/><stop stop-color="#b8d917" offset="1"/></linearGradient></defs><g transform="translate(-17.765-12.282)"><path d="m95.69 17.296c-8.809 1.83-18.374 4.76-28.09 8.784-32.57 13.489-54.23 34.03-49.07 46.08 1.502 3.513 5.137 5.946 10.338 7.309-3.241-1.415-5.522-3.443-6.611-6.087-4.925-11.95 15.951-32.787 48.12-47.12 8.651-3.855 17.237-6.852 25.315-8.963" fill="#c3c2c0"/><path fill="url(#0)" d="m124.09 14.75c-12.99 0-30.16 3.73-47.816 11.04-1.346.557-2.666 1.129-3.973 1.709 1.469.518 2.943 1.053 4.338 1.583.563-.244 1.124-.49 1.694-.727 25.647-10.713 49.867-11.186 54.1-1.056.57 1.364.74 2.852.56 4.431 4.35.3 8.34 1.421 11.65 3.135 2.19-4.099 2.81-7.92 1.54-11.181-2.32-5.991-10.56-8.935-22.09-8.935"/><path d="m72.3 27.501c-30.335 13.465-50.04 32.817-45.1 44.37 4.07 9.514 23.763 11.12 47.931 4.939-3.625-.949-6.868-2.303-9.56-3.966-13.326 1.669-23.421-.548-26.01-6.754-4.137-9.902 12.372-26.27 37.08-37.01-1.395-.531-2.868-1.065-4.337-1.582" fill="#666769"/><g fill="#110f0d"><path d="m94.53 40.933c2 0 3.184-1.138 3.184-3.108 0-1.943-1.181-3.053-3.123-3.053h-3.216v6.161zm-7.129-6.161h-1.973v-3.08h9.648c3.943 0 6.707 2.22 6.707 5.939 0 3.552-2.672 5.02-3.583 5.189v.056s.668.277 1.062.999l2.091 3.802c.34.582.85.638 1.52.638h.39v3.081h-2.09c-1.607 0-2.305-.223-3-1.473l-2.76-4.966c-.456-.777-.91-.916-2.034-.916h-2v7.355h-3.974z"/><path d="m113 48.731c2.52 0 4.61-1.776 4.61-4.412 0-2.609-2.09-4.412-4.61-4.412-2.49 0-4.58 1.803-4.58 4.412 0 2.636 2.09 4.412 4.58 4.412m0-11.821c4.73 0 8.49 3.079 8.49 7.409 0 4.356-3.76 7.409-8.49 7.409-4.7 0-8.46-3.053-8.46-7.409 0-4.33 3.76-7.409 8.46-7.409"/><path d="m124.98 40.85c0-.416-.24-.611-.67-.611h-1.21v-2.997h3.55c1.36 0 2.03.583 2.03 1.582v.417c0 .304-.06.61-.06.61h.06c.67-1.193 2.34-2.942 5.46-2.942 3.43 0 5.4 1.637 5.4 5.384v5.522c0 .388.24.611.67.611h1.21v2.97h-3.67c-1.46 0-2.06-.556-2.06-1.888v-6.493c0-1.721-.49-2.887-2.43-2.887-2.06 0-3.61 1.193-4.16 2.887-.21.583-.3 1.221-.3 1.886v6.495h-3.82z"/><path d="m154.55 44.29c0-2.192-1.24-4.357-3.82-4.357-2.12 0-3.88 1.582-3.88 4.385 0 2.692 1.54 4.44 3.82 4.44 2 0 3.88-1.332 3.88-4.468m-4.58-7.381c3.37 0 4.46 1.719 4.46 1.719h.06s-.03-.36-.03-.832v-2.497c0-.416-.24-.61-.66-.61h-1.22v-2.998h3.67c1.43 0 2.07.583 2.07 1.888v14.235c0 .388.24.61.66.61h1.19v2.971h-3.55c-1.4 0-1.91-.611-1.91-1.444v-.528h-.07s-1.27 2.304-4.82 2.304c-4.18 0-6.89-3.02-6.89-7.409 0-4.496 2.95-7.409 7.04-7.409"/><path d="m172.57 42.487c-.06-1.693-1.33-2.858-2.91-2.858-1.97 0-3.37 1.082-3.79 2.858zm-2.91-5.578c4.43 0 6.85 2.97 6.85 6.716 0 .416-.09 1.304-.09 1.304h-10.67c.3 2.498 2.3 3.801 4.64 3.801 2.48 0 4.33-1.581 4.33-1.581l1.61 2.442s-2.36 2.136-6.22 2.136c-5.12 0-8.31-3.385-8.31-7.408 0-4.358 3.22-7.41 7.86-7.41"/><path d="m65.64 55.01c-.181-.471-.424-.61-.94-.61h-.546v-3.08h2.518c1.517 0 2.062.361 2.548 1.609l4.125 10.989c.425 1.111.819 2.887.819 2.887h.061s.395-1.776.82-2.887l4.125-10.989c.486-1.248 1-1.609 2.518-1.609h2.549v3.08h-.577c-.516 0-.759.139-.941.61l-6.43 16.01h-4.187z"/><path d="m96.31 62.11c-.06-1.692-1.335-2.857-2.912-2.857-1.972 0-3.368 1.082-3.792 2.857zm-2.912-5.577c4.429 0 6.856 2.969 6.856 6.715 0 .417-.09 1.305-.09 1.305h-10.68c.304 2.497 2.306 3.801 4.642 3.801 2.488 0 4.338-1.581 4.338-1.581l1.61 2.442s-2.369 2.137-6.222 2.137c-5.125 0-8.311-3.386-8.311-7.41 0-4.357 3.215-7.409 7.857-7.409"/><path d="m103.98 60.48c0-.416-.24-.61-.67-.61h-1.21v-2.997h3.55c1.36 0 2.03.583 2.03 1.582v.416c0 .306-.06.611-.06.611h.06c.67-1.193 2.34-2.942 5.46-2.942 3.43 0 5.4 1.638 5.4 5.384v5.521c0 .39.24.611.67.611h1.21v2.969h-3.67c-1.46 0-2.06-.554-2.06-1.886v-6.494c0-1.721-.49-2.886-2.43-2.886-2.06 0-3.61 1.193-4.15 2.886-.22.583-.31 1.221-.31 1.887v6.493h-3.82z"/><path d="m132.7 62.11c-.06-1.692-1.33-2.857-2.91-2.857-1.97 0-3.37 1.082-3.79 2.857zm-2.91-5.577c4.43 0 6.86 2.969 6.86 6.715 0 .417-.09 1.305-.09 1.305h-10.68c.3 2.497 2.3 3.801 4.64 3.801 2.49 0 4.34-1.581 4.34-1.581l1.61 2.442s-2.37 2.137-6.22 2.137c-5.13 0-8.31-3.386-8.31-7.41 0-4.357 3.21-7.409 7.85-7.409"/><path d="m140.38 60.48c0-.416-.25-.61-.67-.61h-1.21v-2.997h3.55c1.36 0 2.03.583 2.03 1.582v.416c0 .306-.06.611-.06.611h.06c.67-1.193 2.33-2.942 5.46-2.942 3.43 0 5.4 1.638 5.4 5.384v5.521c0 .39.24.611.67.611h1.21v2.969h-3.67c-1.46 0-2.06-.554-2.06-1.886v-6.494c0-1.721-.49-2.886-2.43-2.886-2.06 0-3.61 1.193-4.16 2.886-.21.583-.3 1.221-.3 1.887v6.493h-3.82z"/></g><g fill="#9dc620"><path d="m31.896 18.573c0-.35-.188-.514-.515-.514h-.936v-2.526h2.713c1.052 0 1.59.445 1.59 1.449v.703c0 .444-.047.748-.047.748h.047c.538-1.707 1.965-3.064 3.79-3.064.256 0 .537.047.537.047v2.923s-.304-.046-.725-.046c-1.263 0-2.712.725-3.251 2.502-.163.584-.257 1.24-.257 1.941v4.725h-2.946z"/><path d="m41.578 17.895h-1.543v-2.363h1.613v-3.25h2.899v3.25h2.714v2.363h-2.714v4.818c0 1.965 1.545 2.245 2.363 2.245.327 0 .538-.047.538-.047v2.596s-.374.07-.912.07c-1.661 0-4.958-.491-4.958-4.49z"/><path d="m49.44 18.48c-.117-.304-.327-.421-.655-.421h-.257v-2.526h1.707c.982 0 1.45.304 1.754 1.122l2.245 6.268c.257.702.445 1.708.445 1.708h.046s.187-1.01.421-1.708l2.246-6.268c.303-.818.795-1.122 1.754-1.122h1.59v2.526h-.281c-.328 0-.538.117-.654.421l-3.415 8.98h-3.532z"/></g></g></svg>