<svg xmlns="http://www.w3.org/2000/svg" height="260.33" width="600" viewBox="0 0 158.75 68.879777"><g fill="#e4032e"><path d="m14.09 12.671c0 .787-.636 1.423-1.423 1.423h-11.249c-.786 0-1.422-.636-1.422-1.423v-11.238c0-.787.636-1.433 1.422-1.433h11.249c.787 0 1.423.646 1.423 1.433v11.238"/><path d="m14.09 30.873c0 .787-.636 1.423-1.423 1.423h-11.249c-.786 0-1.422-.636-1.422-1.423v-11.238c0-.786.636-1.422 1.422-1.422h11.249c.787 0 1.423.636 1.423 1.422v11.238"/><path d="m14.09 49.07c0 .787-.636 1.423-1.423 1.423h-11.249c-.786 0-1.422-.636-1.422-1.423v-11.238c0-.786.636-1.433 1.422-1.433h11.249c.787 0 1.423.647 1.423 1.433v11.238"/><path d="m14.09 67.28c0 .787-.636 1.423-1.423 1.423h-11.249c-.786 0-1.422-.636-1.422-1.423v-11.238c0-.786.636-1.433 1.422-1.433h11.249c.787 0 1.423.647 1.423 1.433v11.238"/></g><g fill="#fff"><path d="m35.846 10.345c0-3.814-2.845-4.913-5.743-4.913-1.476 0-2.112.043-2.618.086-.054 2.112-.097 6.67-.097 9.924h2.984c2.996 0 5.474-1.24 5.474-5.097m-14.665-9.05c1.929-.237 5.614-.506 9.288-.506 6.756 0 11.67 2.478 11.67 9.6 0 5.614-3.168 7.995-5.927 8.458 5.743 9.795 6.53 10.527 7.489 11.583-1.509 1.38-2.845 1.972-4.321 1.972-1.325-.043-2.338-.635-3.03-1.928l-5.7-10.614h-3.264l.043 12.23-6.293.226s.183-11.303.183-17.14c0-5.98-.14-11.68-.14-13.878"/><path d="m44.37 5.795c-.183-3.448-.043-3.954.366-4.364.323-.323.83-.463 2.392-.463h21.05c.184 3.448.087 3.911-.377 4.364-.312.323-.819.463-2.381.463l-6.02-.043c0 8.684 0 15.526.086 26.334l-6.389.226c.14-11.03.053-20.04.053-26.56l-8.781.043"/><path d="m88.71 2.945c.366-1.659.733-2.069 4.967-2.069 1.379 0 1.649.873 1.196 2.392l-8.965 28.726s-5.43.69-7.994.323l-8.092-28.726c-.55-2.068-.097-2.715 4.083-2.715 1.757 0 2.069.366 2.446 2.026l6.01 24.405 6.346-24.362"/><path d="m38.972 39.507c0-1.562.646-2.165 4.364-2.165 1.336 0 1.982.323 1.982 1.573 0 2.338-.097 7.391-.097 19.03 0 7.349-4.73 10.84-12.175 10.84-7.36 0-12.09-3.588-12.09-10.894 0-10.656-.043-16.539-.043-18.382 0-1.562.69-2.165 4.407-2.165 1.336 0 1.983.323 1.983 1.573 0 2.338-.194 14.567-.194 18.1 0 4.741 1.659 7.122 5.937 7.122 4.266 0 6.02-2.381 6.02-7.122 0-3.718-.097-15.667-.097-17.51"/><path d="m48.18 50.31c-.366-2.715-.366-3.405.14-3.911.367-.367.873-.453 3.082-.367l.409-3.577c.184-1.616 2.349-2.166 3.448-2.166 1.283 0 1.929.367 1.929 1.423v4.417l5.237-.14c.323 2.619.237 3.535-.27 3.998-.366.42-1.476.366-5.01.237l-.043 11.443c0 2.478.916 3.03 2.844 3.03.647 0 1.746-.27 2.155-.367.561 2.252.324 2.845-.183 3.405-.549.507-1.928 1.056-4.956 1.056-3.362 0-5.743-1.379-5.7-5.377l.086-13.188-3.168.086"/><path d="m71.31 53.57v14.988l-5.98.226c.097-6.39.097-11.03.097-14.482 0-1.831-.14-4.687-.14-6.249 0-1.379 1.336-2.069 4.418-2.069 1.099 0 1.465.604 1.465 1.379 0 .787-.086 1.606-.226 2.619l.14.097c1.745-2.759 3.997-4.095 5.603-4.095.786 0 1.293.14 1.659.464.41.452.636.958.313 4.32-2.748-.226-4.871.69-7.349 2.802"/><path d="m94.54 55.32c.14-3.631-1.519-5.15-3.771-5.15-2.759 0-4.644 2.252-4.87 5.247l8.641-.097m5.702.787c0 1.692-.789 2.338-2.534 2.338-3.125 0-9.741 0-11.853-.043-.183 4.59 2.02 6.07 6.11 6.07 3.038 0 5.797-.689 6.853-1.013.732 2.392.592 2.845.086 3.351-.916.927-3.771 1.983-8.04 1.983-6.487 0-11.174-3.168-11.174-10.667 0-8.092 4.461-12.133 11.08-12.133 6.02 0 9.473 2.802 9.473 10.118"/><path d="m114.02 64.6c2.02 0 3.4-.409 4.18-.69.78 2.209.69 2.716.04 3.308-.69.69-2.62 1.66-6.15 1.66-5.42 0-9.47-3.265-9.47-11.174 0-8.728 4.5-11.723 9.83-11.723 2.9 0 4.92.97 5.7 1.756.55.496.69.959-.28 3.211-.73-.183-2.06-.592-3.81-.592-3.26 0-5.33 1.971-5.33 7.305.05 5.237 2.07 6.939 5.29 6.939"/><path d="m135.89 54.996c0-3.221-.87-4.364-2.98-4.364-1.93 0-3.81 1.38-5.43 2.942v14.977l-5.74.237s.18-10.258.18-15.58c0-4.375-.14-12.736-.14-15.958 0-1.422 1.15-2.112 4.19-2.112 1.42 0 1.83.55 1.83 1.519 0 1.789-.18 9.375-.32 12.133l-.37 1.056.14.097c2.03-2.069 4.6-3.955 8.05-3.955 4.37 0 6.57 2.576 6.57 7.995 0 10.851-.19 12.316.19 14.568-.56.14-2.44.183-3.59.183-1.79 0-2.67-1.099-2.67-2.564 0-1.756.09-6.347.09-11.174"/><path d="m144.31 50.31c-.36-2.715-.36-3.405.15-3.911.36-.367.87-.453 3.08-.367l.41-3.577c.18-1.616 2.35-2.166 3.44-2.166 1.29 0 1.93.367 1.93 1.423v4.417l5.24-.14c.32 2.619.24 3.535-.27 3.998-.37.42-1.48.366-5.01.237l-.04 11.443c0 2.478.91 3.03 2.84 3.03.65 0 1.75-.27 2.16-.367.56 2.252.32 2.845-.19 3.405-.55.507-1.93 1.056-4.95 1.056-3.37 0-5.75-1.379-5.7-5.377l.08-13.188-3.17.086"/></g></svg>