<svg xmlns="http://www.w3.org/2000/svg" viewBox="0 0 250 211.42"><g transform="translate(-261.5-441.44)"><path d="m262 652.36v-210.42h249l-43.838 210.42z" fill="#118e9b" fill-rule="evenodd"/><g transform="matrix(1.31366 0 0 1.31366-63.737 45.967)" fill="#fff"><path d="m275.58 396.51l-4.732 7.634c0 0 7.05 4.821 15.58 4.821 10.02 0 17.634-6.887 17.634-15.625 0-17.878-21.339-14.472-21.339-24.06 0-4.777 3.444-6.964 7.768-6.964 5.142 0 9.286 3.884 9.286 3.884l4.375-8.527c0 0-6.26-4.286-14.643-4.286-9.595 0-17.723 6.125-17.723 16.741 0 16.805 21.563 13.708 21.563 23.527 0 4.211-3.03 6.518-8.08 6.518-4.997 0-9.688-3.661-9.688-3.661"/><path d="m340.5 355.37l-9.906.063-24 33.16 2.688 7.781h21.22v11h10v-11h4.5v-9h-4.5v-32m-10 13.219v18.781h-12.813l12.813-18.781"/><path d="m388.26 396.03l4.732 7.586c-4.403 3.351-9.339 5.089-17.545 5.089-15.574 0-27.01-10.228-27.01-27.19 0-17.406 11-27.946 26.696-27.946 11.541 0 18.04 6.384 18.04 6.384l-5.089 7.589c0 0-4.977-4.554-12.589-4.554-6.636 0-16.295 4.52-16.295 18.12 0 10.183 6.839 18.393 17.01 18.393 8.301 0 12.05-3.479 12.05-3.479"/></g></g></svg>