<svg xmlns="http://www.w3.org/2000/svg" viewBox="0 0 600 184.91"><g transform="matrix(1.26941 0 0 1.26941-83.29-136.57)" fill="#bb9252"><path d="m436.58 180.39l.045 56.42h30.32c7.546 0 14.867-1.482 21.83-4.447 6.693-2.83 12.756-6.917 17.967-12.08 10.735-10.69 16.664-24.884 16.664-39.931 0-15.09-5.884-29.29-16.574-39.931-10.645-10.69-24.839-16.529-39.886-16.529h-38.853v-14.01h39.617c9.522 0 18.775 1.752 27.489 5.435.943.404 1.842.898 2.785 1.347.18.09.359.18.584.269 1.931.943 3.773 1.976 5.57 3.054.09.045.18.09.225.135 1.887 1.123 3.683 2.381 5.435 3.683.045.045.135.09.18.135 1.707 1.258 3.324 2.605 4.896 4.04.18.135.314.27.449.404.764.674 1.572 1.347 2.291 2.066.719.719 1.392 1.527 2.066 2.246.135.18.269.314.449.494 1.392 1.572 2.74 3.189 3.998 4.896.045.045.09.135.135.18 1.347 1.752 2.56 3.548 3.683 5.435.045.045.09.135.135.18 1.078 1.842 2.111 3.728 3.054 5.66.09.135.18.314.269.494.449.988.943 1.842 1.347 2.83 3.683 8.714 5.525 17.967 5.525 27.489 0 9.522-1.842 18.73-5.525 27.444-.404.988-.898 1.887-1.392 2.83-.045.18-.135.359-.225.494-.943 1.976-1.976 3.818-3.054 5.66-.045.09-.09.135-.135.225-1.123 1.842-2.381 3.638-3.683 5.39-.045.09-.09.135-.135.225-1.258 1.662-2.605 3.279-3.998 4.896-.18.135-.314.269-.449.449-.674.764-1.347 1.527-2.066 2.246-.719.764-1.527 1.392-2.291 2.111-.135.135-.269.269-.449.404-1.572 1.392-3.189 2.74-4.896 3.998-.045.09-.135.135-.18.18-1.752 1.303-3.548 2.515-5.435 3.638-.045.045-.135.09-.225.135-1.797 1.123-3.683 2.111-5.615 3.054-.18.09-.359.18-.539.27-.943.449-1.842.943-2.785 1.347-8.714 3.683-17.967 5.525-27.489 5.525h-45.05v-70.47"/><path d="m340.23 109.87h-14.06v141.04h86.78v-14.06h-72.72"/><path d="m300.53 215.43c-10.735 14.418-27.804 23.806-47.16 23.806s-36.473-9.388-47.16-23.806h-16.754c12.397 22.548 36.34 37.82 63.917 37.82 27.534 0 51.52-15.272 63.872-37.82"/><path d="m206.07 145.58c10.69-14.508 27.848-23.941 47.3-23.941 19.404 0 36.562 9.433 47.25 23.941h16.709c-12.352-22.638-36.38-38-63.962-38-27.624 0-51.654 15.362-64.01 38"/><path d="m158.59 173.38v14.06h8.669v49.36h-30.27c-7.546 0-14.912-1.482-21.83-4.447-6.737-2.83-12.801-6.917-17.967-12.08-10.78-10.69-16.664-24.884-16.664-39.931 0-15.09 5.839-29.29 16.529-39.931 10.645-10.69 24.839-16.574 39.931-16.574l38.04.045h.809v-14.01l-38.853-.045h-.809c-9.522 0-18.775 1.797-27.444 5.48-.988.404-1.886.898-2.83 1.347-.18.09-.404.18-.584.314-1.886.898-3.773 1.931-5.615 3.01-.045.045-.135.09-.18.135-1.842 1.123-3.683 2.381-5.435 3.683-.09.045-.135.09-.18.135-1.707 1.258-3.324 2.605-4.896 4.04-.18.09-.314.27-.449.404-.764.674-1.572 1.347-2.291 2.066-.719.719-1.347 1.527-2.066 2.246-.135.18-.269.314-.404.494-1.437 1.572-2.785 3.189-4.04 4.896-.045.045-.09.135-.135.18-1.303 1.752-2.56 3.548-3.683 5.435-.045.045-.09.135-.09.18-1.123 1.842-2.156 3.728-3.099 5.66-.09.18-.18.314-.225.539-.449.898-.988 1.842-1.392 2.785-3.683 8.714-5.525 17.922-5.525 27.489 0 9.477 1.842 18.775 5.525 27.444.404.943.943 1.887 1.392 2.83.045.18.135.359.225.539.943 1.887 1.976 3.773 3.099 5.615 0 .045.045.135.09.18 1.123 1.887 2.381 3.728 3.683 5.435.045.09.09.135.135.18 1.258 1.707 2.605 3.324 4.04 4.941l.404.404c.674.764 1.347 1.572 2.066 2.291.719.764 1.527 1.392 2.291 2.066.135.18.269.269.449.449 1.572 1.392 3.189 2.74 4.896 4.04.045.045.09.045.18.135 1.752 1.303 3.593 2.515 5.435 3.638.045.045.135.09.18.135 1.842 1.123 3.728 2.111 5.659 3.054.18.09.359.18.539.269.943.449 1.842.943 2.83 1.347 8.669 3.683 17.922 5.57 27.444 5.57h.809l44.29-.045v-77.48"/><path d="m283.1 197.24h4.04v-4.448h-4.04v4.448"/><path d="m216.62 177.47c-1.976-.494-4.402-1.123-5.615-2.515-1.437-1.707-1.213-5.255.449-6.872 1.033-.943 3.099-1.572 5.21-1.572 1.931 0 3.504.494 4.357 1.303.404.449.629.943.584 1.572v.988l4.357.09.045-.988c0-1.752-.629-3.279-1.797-4.447-1.752-1.707-4.582-2.695-7.771-2.695-3.234 0-6.198.988-7.95 2.65-3.414 3.189-3.683 9.612-.539 12.981 1.707 1.842 4.267 2.74 7.591 3.548 5.03 1.303 7.456 3.593 7.411 7.097-.045 1.527-.674 2.875-1.842 3.818-1.976 1.572-4.986 1.976-8.265 1.033-1.347-.359-2.74-1.572-2.83-3.144l-.045-.943-4.222-.09v.988c-.045 3.189 2.02 5.839 5.39 7.01 1.617.494 3.414.764 5.165.764 3.054 0 5.749-.809 7.591-2.336 2.156-1.842 3.324-4.267 3.414-7.05.045-7.501-5.704-9.882-10.69-11.184"/><path d="m237.91 169.75c0-1.078.809-1.707 1.303-2.02 1.078-.674 3.099-1.078 5.3-1.078s4.177.404 5.255 1.078c.494.314 1.347.988 1.347 2.02v10.6h-13.206v-10.6m17.518-.809l-.045-.225h-.045c-.269-1.887-1.482-3.548-3.279-4.671-1.797-1.078-4.492-1.662-7.546-1.662-3.01 0-5.749.584-7.546 1.662-2.156 1.303-3.369 3.324-3.369 5.704v27.804h4.312v-12.846h13.206v12.846h4.357v-27.848"/><path d="m260.5 166.78h8.894l-.09 30.543v.225h4.402l.09-30.768h8.894v-4.04h-22.19"/><path d="m291.09 162.74v4.402h4.941v30.409h4.402v-34.811"/></g></svg>