<svg xmlns="http://www.w3.org/2000/svg" viewBox="0 0 600 501.64"><g fill="#ce160a"><path d="m238.67.009c-132.94 1.178-239.76 114.42-238.66 252.92 1.137 138.51 109.79 249.88 242.69 248.7 132.93-1.14 239.8-114.38 238.66-252.92-1.1-138.51-109.75-249.88-242.69-248.7m-192.44 252.52c-.813-98.74 66.33-181.6 155.89-200.37l-92.08 184.69-.041.122c-10.195 21.04-15.841 44.841-15.638 70.02.487 57.51 31.356 107.35 76.6 133.1-72.38-29-124.05-101.86-124.74-187.56m195.57 136.75c-44.27.366-80.46-36.718-80.87-82.86-.366-46.14 35.26-83.87 79.53-84.28 44.27-.366 80.5 36.718 80.87 82.86.366 46.18-35.26 83.87-79.53 84.28m71.65 49.553c44.841-26.523 74.898-76.888 74.45-134.4-.69-84.48-66.937-152.35-148.01-151.66-2.681.041-5.361.122-8.04.284l50.04-100.32c86.961 19.537 152.48 99.8 153.29 196.38.69 85.74-49.796 159.46-121.73 189.72"/><g color="#000"><path d="m432.79 411.25v3.601 83.19 3.601h3.601 18.283 3.601v-3.601-32.3h26.483v32.3 3.601h3.601 18.311 3.574v-3.601-83.19-3.601h-3.574-18.311-3.601v3.601 28.339h-26.483v-28.339-3.601h-3.601-18.283-3.601"/><path d="m519.14 411.22v3.601 83.21 3.601h3.601 35.901c6.773 0 12.829-1.149 18.09-3.546 5.135-2.34 9.54-5.587 13.05-9.723v-.028c3.449-4.14 6.03-9.01 7.701-14.543 1.7-5.51 2.52-11.46 2.52-17.84 0-7.247-1.045-13.677-3.13-19.28h.028c-2.048-5.537-4.949-10.281-8.726-14.1l-.028-.028c-3.726-3.783-8.208-6.64-13.297-8.532-5.03-1.851-10.462-2.798-16.205-2.798h-2.604-33.3-3.601zm25.485 22.577h9.446c4.178 0 7.501.619 10 1.662 2.553 1.066 4.449 2.514 5.928 4.404.008.001.02.017.028.028 1.499 1.967 2.622 4.354 3.352 7.313.002.008-.002.019 0 .028.724 3.039 1.136 6.522 1.136 10.471 0 4.274-.578 7.773-1.551 10.443-1.01 2.771-2.285 4.854-3.795 6.427-.017.018-.038.038-.055.055-1.614 1.599-3.325 2.684-5.236 3.352-2.151.711-4.309 1.08-6.538 1.08h-12.715v-45.26"/></g></g></svg>