<svg xmlns="http://www.w3.org/2000/svg" viewBox="0 0 918.5 821.129" enable-background="new 0 0 918.5 821.129"><g fill="#5f009e"><path d="m214.66 7.31v204.41h113.78c35.01 0 63.34-25.45 63.34-56.89 0-20.8-12.39-39.02-30.93-48.96 15.08-9.929 24.97-25.899 24.97-43.986 0-30.15-27.29-54.58-60.859-54.58h-110.3m39.52 34.729h56.82c23.5 0 33.939 10.651 33.939 23.815s-9.53 23.814-33.939 23.814h-56.82v-47.629m0 83.66h67.97c15.17 0 27.45 9.18 27.45 23.17s-12.28 25.31-27.45 25.31h-67.97v-48.48"/><path d="m592.28 40.85c-12.07-24.574-32.27-40.85-79.51-40.85-52.06 0-83.78 23.898-83.78 57.846 0 91.46 129.74 42.534 128.65 93.89-.39 18.31-14.93 29.19-44.87 29.19-46.51 0-59.75-32.8-59.75-32.8l-33.85 19.03c16.81 40.09 47.75 50.42 93.6 50.42 60.57 0 86.85-29.76 85.97-65.84-2.25-92.61-127.41-44.92-127.41-91.46 0-13.545 8.2-24.418 37.17-24.418 29.3 0 39.609 7.722 51.68 22.379l32.1-17.395"/><path d="m173.12 40.85c-12.07-24.574-32.27-40.85-79.52-40.85-52.06 0-83.78 23.898-83.78 57.846 0 91.46 129.74 42.534 128.64 93.89-.38 18.31-14.91 29.19-44.852 29.19-46.511 0-59.748-32.8-59.748-32.8l-33.86 19.03c16.813 40.09 47.756 50.42 93.61 50.42 60.56 0 86.84-29.76 85.962-65.84-2.24-92.61-127.4-44.92-127.4-91.46-.004-13.545 8.197-24.418 37.17-24.418 29.29 0 39.604 7.722 51.674 22.379l32.11-17.395"/><path d="m.004 254.21v428.5c0 9.551.968 18.941 2.811 27.951 1.844 9.01 4.603 17.68 8.104 25.959 3.502 8.281 7.76 16.12 12.733 23.49 4.975 7.359 10.606 14.24 16.868 20.5 6.263 6.26 13.145 11.9 20.507 16.871 7.363 4.979 15.205 9.229 23.484 12.729 8.279 3.51 16.958 6.26 25.968 8.111 9.01 1.84 18.391 2.809 27.95 2.809h461.57v-566.91h-599.99l-.006-.001"/></g><path fill="#fff" d="m312.4 323.01c-38.72 0-77.5 14.66-106.84 43.99-58.67 58.67-58.67 154.83 0 213.51 19.99 20 44.34 33.1 70.12 39.529l-73.1 73.09c-6.841 6.84-10.92 16.461-10.92 26.13 0 9.68 4.079 19.289 10.92 26.13 6.84 6.842 16.449 10.75 26.13 10.75 9.67 0 19.29-3.908 26.13-10.75l164.55-164.55c58.76-58.76 58.34-155.15-.33-213.83l-3.81-3.81-2.811-1.49c-28.46-25.4-64.03-38.7-100.05-38.7h.011m0 73.27c19.66 0 39.3 7.71 54.57 22.98 30.54 30.539 30.609 78.869.17 109.32-30.45 30.449-78.95 30.369-109.48-.16-30.54-30.541-30.54-78.62 0-109.15 15.269-15.27 35.07-22.99 54.739-22.99"/><g fill="#5f009e"><path d="m652.5 678.37v5.73 132.34 5.729h5.729 29.08 5.731v-5.729-51.38h42.13v51.38 5.729h5.729 29.13 5.684v-5.729-132.34-5.73h-5.684-29.13-5.729v5.73 45.08h-42.13v-45.08-5.73h-5.731-29.08-5.73"/><path d="m789.87 678.33v5.73 132.38 5.729h5.728 57.11c10.774 0 20.409-1.83 28.776-5.644 8.169-3.722 15.177-8.886 20.755-15.466v-.044c5.488-6.586 9.589-14.333 12.252-23.13 2.705-8.766 4.01-18.232 4.01-28.38 0-11.53-1.664-21.759-4.98-30.673h.045c-3.259-8.809-7.873-16.355-13.883-22.43l-.043-.044c-5.927-6.02-13.06-10.563-21.15-13.573-8.01-2.943-16.644-4.451-25.779-4.451h-4.143-52.971-5.729.002zm40.543 35.915h15.02c6.648 0 11.934.984 15.908 2.645 4.062 1.695 7.078 4 9.432 7.01.013.019.031.028.044.046 2.384 3.13 4.171 6.927 5.334 11.634.002.013-.005.031 0 .044 1.15 4.834 1.806 10.377 1.806 16.657 0 6.8-.919 12.365-2.469 16.612-1.605 4.408-3.636 7.721-6.04 10.226-.026.028-.062.059-.09.088-2.567 2.544-5.289 4.269-8.327 5.331-3.421 1.132-6.855 1.719-10.402 1.719h-20.226v-72.01"/></g></svg>