<svg xmlns="http://www.w3.org/2000/svg" viewBox="0 0 600 821.13"><g fill="#fff"><path d="m214.66 7.31v204.41h113.78c35.01 0 63.34-25.45 63.34-56.89 0-20.8-12.39-39.02-30.93-48.96 15.08-9.929 24.97-25.899 24.97-43.986 0-30.15-27.29-54.58-60.86-54.58zm39.52 34.729h56.82c23.5 0 33.94 10.651 33.94 23.815s-9.53 23.815-33.94 23.815h-56.82zm0 83.66h67.97c15.17 0 27.45 9.18 27.45 23.17s-12.28 25.31-27.45 25.31h-67.97z"/><path d="m592.28 40.85c-12.07-24.574-32.27-40.85-79.51-40.85-52.06 0-83.78 23.898-83.78 57.846 0 91.46 129.74 42.534 128.65 93.89-.39 18.31-14.93 29.19-44.87 29.19-46.51 0-59.75-32.8-59.75-32.8l-33.85 19.03c16.81 40.09 47.75 50.42 93.6 50.42 60.57 0 86.85-29.76 85.97-65.84-2.25-92.61-127.41-44.92-127.41-91.46 0-13.545 8.2-24.418 37.17-24.418 29.3 0 39.61 7.722 51.68 22.379z"/><path d="m173.12 40.85c-12.07-24.574-32.27-40.85-79.52-40.85-52.06 0-83.78 23.898-83.78 57.846 0 91.46 129.74 42.534 128.64 93.89-.38 18.31-14.91 29.19-44.851 29.19-46.511 0-59.749-32.8-59.749-32.8l-33.86 19.03c16.814 40.09 47.756 50.42 93.61 50.42 60.56 0 86.84-29.76 85.961-65.84-2.24-92.61-127.4-44.92-127.4-91.46-.004-13.545 8.197-24.418 37.17-24.418 29.29 0 39.604 7.722 51.674 22.379z"/><path d="m.004 254.21v428.5c0 9.55.968 18.94 2.811 27.95 1.844 9.01 4.602 17.68 8.104 25.96 3.502 8.28 7.76 16.12 12.734 23.49 4.974 7.36 10.606 14.24 16.868 20.5s13.144 11.9 20.507 16.87c7.363 4.98 15.205 9.23 23.484 12.73 8.279 3.51 16.958 6.26 25.968 8.11 9.01 1.84 18.39 2.81 27.95 2.81h461.57v-566.91h-599.99z"/></g><path d="m312.4 323.01c-38.72 0-77.5 14.66-106.84 43.99-58.67 58.67-58.67 154.83 0 213.51 19.99 20 44.34 33.1 70.12 39.53l-73.1 73.09c-6.84 6.84-10.92 16.46-10.92 26.13 0 9.68 4.08 19.29 10.92 26.13s16.45 10.75 26.13 10.75c9.67 0 19.29-3.91 26.13-10.75l164.55-164.55c58.76-58.76 58.34-155.15-.33-213.83l-3.81-3.81-2.81-1.49c-28.46-25.4-64.03-38.7-100.05-38.7zm0 73.27c19.66 0 39.3 7.71 54.57 22.98 30.54 30.54 30.61 78.87.17 109.32-30.45 30.45-78.95 30.37-109.48-.16-30.54-30.54-30.54-78.62 0-109.15 15.27-15.27 35.07-22.99 54.74-22.99" fill="#5f009e" color="#000"/></svg>