<?xml version="1.0" encoding="UTF-8" standalone="no"?>
<svg xmlns:rdf="http://www.w3.org/1999/02/22-rdf-syntax-ns#" xmlns="http://www.w3.org/2000/svg" height="31.228mm" width="169.33mm" version="1.1" xmlns:cc="http://creativecommons.org/ns#" xmlns:dc="http://purl.org/dc/elements/1.1/" viewBox="0 0 599.99998 110.65111">
 <defs>
  <radialGradient id="a" gradientUnits="userSpaceOnUse" cy="0" cx="0" gradientTransform="matrix(-64.923 166.7 -166.7 -64.923 592.66 483.12)" r="1">
   <stop stop-color="#b7d5f0" offset="0"/>
   <stop stop-color="#b7d5f0" offset=".0061350"/>
   <stop stop-color="#7e91ab" offset="1"/>
  </radialGradient>
  <radialGradient id="b" gradientUnits="userSpaceOnUse" cy="0" cx="0" gradientTransform="matrix(-65.413 167.95 -167.95 -65.413 592.98 482.39)" r="1">
   <stop stop-color="#b7d5f0" offset="0"/>
   <stop stop-color="#b7d5f0" offset=".0061350"/>
   <stop stop-color="#7e91ab" offset="1"/>
  </radialGradient>
  <radialGradient id="c" gradientUnits="userSpaceOnUse" cy="0" cx="0" gradientTransform="matrix(-65.454 168.06 -168.06 -65.454 592.98 481.98)" r="1">
   <stop stop-color="#b7d5f0" offset="0"/>
   <stop stop-color="#b7d5f0" offset=".0061350"/>
   <stop stop-color="#7e91ab" offset="1"/>
  </radialGradient>
  <radialGradient id="d" gradientUnits="userSpaceOnUse" cy="0" cx="0" gradientTransform="matrix(-64.26 164.99 -164.99 -64.26 594.34 483.52)" r="1">
   <stop stop-color="#b7d5f0" offset="0"/>
   <stop stop-color="#b7d5f0" offset=".0061350"/>
   <stop stop-color="#7e91ab" offset="1"/>
  </radialGradient>
 </defs>
 <g transform="translate(-108.41 -453.94)">
  <g>
   <path d="m321.87 563.53h18.26v-76.52h-18.26v76.52z"/>
   <path d="m262.82 531.14v32.38h18.38v-32.38c0-16.07 8.1-27.97 29.29-27.97v-17.45c-33.23 0-47.67 17.74-47.67 45.42"/>
   <path d="m371.37 518.39c1.46-9.75 8.78-16.86 18.57-16.86 9.95 0 16.42 7.03 17.49 16.86h-36.06zm54.65 6.09c-0.93-22.06-14.32-38.72-36.08-38.72-21.75 0-37.72 17.82-37.72 39.59 0 23.63 16.05 39.24 37.82 39.24 12.29 0 24.16-4.54 31.19-12.04l-9.55-11.57c-5.63 5-12.93 8.29-20.42 7.85-10.23-0.64-17.56-5.78-19.73-15.69h54.41c0.16-2.69 0.2-5.68 0.08-8.66"/>
   <path d="m156.92 522.22c-3.57-1.67-8.01-3.32-11.77-4.65-2.46-0.82-5.37-1.79-8.1-2.76-3.8-1.37-8.57-3.25-7.25-8.59 1.02-4.01 5.23-6.53 12.19-6.28 8.22 0.33 15.78 4.25 19.33 6.83l6.88-12.24c-4.05-2.81-13.24-8.78-26.56-8.78-19.29 0-29.95 10.41-29.95 23.52 0 8.88 4.46 14.79 13.72 18.45 3.47 1.36 15.24 5.47 18.89 6.89 5.29 2.03 7.83 4.78 7.19 9.3-0.58 3.94-5.06 6.92-12.91 6.48-7.47-0.41-16.31-4.91-21.97-9.93l-8.2 12.97c4.79 4.15 16.27 11.15 30.71 11.15 19.29 0 29.56-10.06 30.3-23.13 0.52-9.71-5.02-15.66-12.5-19.23"/>
  </g>
  <path fill="url(#d)" d="m463.45 488.87c-4.75 2.1-8.82 4.93-12.24 8.55-3.47 3.57-6.16 7.82-8.1 12.6-1.96 4.83-2.95 9.91-2.95 15.26s0.99 10.43 2.95 15.18c1.94 4.75 4.63 8.92 8.1 12.47 3.42 3.56 7.49 6.39 12.24 8.49 4.73 2.07 9.85 3.12 15.39 3.12 7.11 0 13.09-1.38 17.89-4.11 4.81-2.7 9.13-6.2 12.93-10.49l-7.19-6.69c-3.02 3.18-6.4 5.86-10.14 7.99-3.72 2.15-8.04 3.2-12.89 3.2-4.01 0-7.68-0.74-11.01-2.25-3.37-1.51-6.3-3.59-8.78-6.28-2.46-2.66-4.42-5.84-5.82-9.44-1.43-3.61-2.13-7.45-2.13-11.54 0-4.11 0.68-7.93 2.05-11.47 1.36-3.59 3.26-6.71 5.7-9.39 2.43-2.67 5.28-4.77 8.59-6.28 3.32-1.51 6.88-2.27 10.66-2.27 5.18 0 9.52 1.11 13.07 3.34 3.53 2.25 6.84 4.94 9.85 8.06l7.46-7.91c-1.8-1.84-3.68-3.58-5.72-5.23-2.07-1.61-4.3-3.03-6.72-4.23-2.43-1.18-5.1-2.13-8.01-2.79-2.95-0.68-6.18-1.01-9.79-1.01-5.54 0-10.66 1.03-15.39 3.12"/>
  <path fill="url(#c)" d="m526.86 563.53h11.22v-109.59h-11.22v109.59z"/>
  <path fill="url(#b)" d="m605.01 487.01v46.53c0 5.76-1.81 10.53-5.32 14.27-3.54 3.72-8.27 5.6-14.11 5.6-5.85 0-10.62-1.84-14.21-5.54-3.53-3.69-5.39-8.49-5.39-14.33v-46.53h-11.36v46.53c0 9.19 2.97 16.73 8.82 22.39 5.88 5.72 13.34 8.59 22.14 8.59 8.78 0 16.25-2.87 22.1-8.59 5.89-5.66 8.86-13.2 8.86-22.39v-46.53h-11.53z"/>
  <path fill="url(#a)" d="m633.08 453.94v71.07c0 11.13 3.66 20.61 10.85 28.15 7.18 7.52 16.23 11.36 26.87 11.36 10.37 0 19.31-3.84 26.6-11.36 7.29-7.56 11.01-17.02 11.01-28.15s-3.66-20.55-10.85-28.03c-7.22-7.43-16.17-11.19-26.58-11.19-10.55 0-19.27 4.27-25.94 12.66l-0.78 0.99v-45.5h-11.18zm19.36 91.5c-5.09-5.62-7.71-12.48-7.71-20.43 0-7.83 2.54-14.66 7.64-20.2 5.08-5.58 11.26-8.41 18.43-8.41 7.18 0 13.38 2.81 18.4 8.35 5.02 5.49 7.56 12.33 7.56 20.26 0 8.01-2.54 14.93-7.56 20.47-5.02 5.57-11.22 8.42-18.4 8.42-7.07 0-13.26-2.85-18.36-8.46"/>
  <path d="m196.68 518.39c1.5-9.77 8.79-16.86 18.56-16.86 9.98 0 16.44 7.03 17.54 16.86h-36.1zm54.67 6.09c-0.95-22.06-14.34-38.72-36.11-38.72-21.72 0-37.71 17.82-37.71 39.59 0 23.63 16.07 39.24 37.82 39.24 12.29 0 24.16-4.56 31.18-12.04l-9.54-11.57c-5.66 5-12.91 8.29-20.4 7.85-10.25-0.64-17.56-5.78-19.79-15.69h54.44c0.17-2.71 0.21-5.68 0.11-8.66"/>
 </g>
</svg>
