<svg xmlns="http://www.w3.org/2000/svg" viewBox="0 0 600 276.64"><g fill="#fff"><path d="m469.15 170.25c-1.954 0-5.703.966-6.139.759h-2.621l-1.035-.575c.483-1.449 4.553-3.978 10.991-6.232.943-.322 2.529-1.081 3.679-1.61l.851-.414c6.369-2.943 16.464-9.106 23.569-15.636l.115-.115.069-.138c.529-1.38 1.311-2.529 2.07-3.61.598-.828 1.081-1.518 1.495-2.276l.046-.092.023-.115c1.633-10.255-5.726-16.28-11.175-22.971-3.219-3.955-6.53-8.05-8.416-13.04l-.575-1.564-.736 1.495c-1.794 3.702-3.541 7.588-5.082 11.01-5.174 11.428-10.21 22.1-18.17 31.548-.667.759-1.518 1.265-2.115 1.977-1.081 1.288-2.391.621-2.897 2.115l-.414.483-.161.115c-3.909 3.081-6.139 5.381-9.796 6.02-2.598.46-8.991.989-8.991.989-1.242-.621-1.058-1.196-3.633-1.977-.69-.184-2.07-.966-2.07-.966-4.139 3.288-8.324 4.208-15.11 4.208-4.415 0-8.186-1.127-10.899-3.242-8.968-6.967-10.278-22.971-7.703-34.905 1.817-8.508 6.806-18.763 10.439-26.24l.46-.943c.276-.552.483-1.081.69-1.587.345-.828.644-1.518 1.035-2.231.345-.575.782-1.081 1.196-1.564.437-.483.874-1.012 1.15-1.564l.069-.092v-.092c.023-.046.023-.368.023-.552 0-.46-.023-1.012.276-1.495 1.587-2.598 5.864-7.404 7.45-8.117.851-.391 1.725-.575 2.644-.575 1.104 0 2.024.276 2.782.483l.161.046.207.069.138.138c.69.713.805 1.862.92 2.874.069.575.115 1.058.253 1.472l.115.368-.322.276c-4.047 3.541-6.967 9.543-7.243 14.969l-.023.299-.276.184c-1.863 1.265-3.288 3.932-3.564 4.461l-.184.391.299.322c.437.46.943 1.242.276 2.46-1.403 2.506-3.817 9.01-5.04 14.302-3.702 16.188-1.84 26.15 5.703 30.468l.552.322.368-.483c4.875-6.05 8.163-10.853 10.876-18.74 1.104-3.196 4.3-11.842 5.01-13.13.414-.759.299-4.714.437-5.404.644-3.357 3.495-8.853 5.04-12.348 1.035-2.345 1.426-1.633 2.115-3.725.713-2.046 1.104-3.403 1.472-5.611.598-3.61 3.196-5.864 5.404-9.267l.138-.23.253-.069c1.357-.391.69.851 1.242-.575.736-1.978 2.966-3.932 5.105-5.128.23-.115.483-.23.736-.345l.184-.069.207.023c2.506.368 2.644 2.299 2.575 4.438-.023.736-1.38 2.414-1.242 2.989.46 1.84-.736 3.679-.759 5.68v.23c0 .989-.023 2-.115 3.058-.46 5.887-1.885 8.876-3.265 15.222-.391 1.84-.782 3.679-1.15 5.496-.552 2.667-1.954 6.668-2.759 9.175-.759 2.391-2.253 7.634-2.368 8.232-.184.736-2.667 5.91-2.828 6.484-.621 2.253-1.633 4.346-2.621 6.392-.414.874-.828 1.725-1.196 2.552l-1.748 2.047s1.886-.207 2.391-.345l1.403-.138.253-.046c.736-.115 2.024-.46 3.219-1.219.851-.552 2-1.311 2.759-1.679l.138-.069.092-.115c11.474-13.82 17.13-26.24 24.765-42.724 5.151-11.08 7.174-16.441 13.912-27.25l.161-.276.345-.046c.667-.092 1.311-.184 1.954-.276 1.472-.253 2.897-.46 4.323-.46 1.495 0 2.805.253 3.978.782l.46.207-.046.46c-.529 4.668-.529 5.404-1.885 8.646-.828 1.978.207.437-.483 2.759l-.069.23.115.207c1.104 2.276.345 4.507-.368 6.691-.483 1.472-.943 2.828-.805 4.139.115 1.081 2.667 5.45 5.887 9.658 1.196 1.564 2.414 2.943 3.61 4.277 2.69 3.035 7.427 5.542 9.221 9.865l.046.115.092.115c.552.529 1.058.989 1.863 1.173l.299.092.138.253c1.334 2.437 1.794 4.415 2.391 6.921.207.897.437 1.863.713 2.966 1.61 6.05.92 12.9-1.748 17.453-3.449 5.864-8.301 9.773-15.636 12.762l-.667.253c-2.07.874-4.323 3.01-7.588 3.587-4.093.713-7.887 3.196-9.681 3.196-.621 0-1.426.391-2.185.828l-.138.069c-2.943 1.012-1.104 1.081-5.657 1.081l-4.047-1.15" fill-rule="evenodd"/><path d="m586.79 104.7l-7.703 24.834c-1.012 3.035-1.288 6-1.955 9.04h-.161c-.759-2.966-1.196-5.933-2.299-8.899l-7.611-24.972h-41.643v9.658h9.888v42.36h12.624v-42.36h9.01l15.01 42.36h10.324l17.706-52.01h-13.199"/><g fill-rule="evenodd"><path d="m353.14 162.72l-.184-.046c-5.795-1.794-6.898-8.439-7.611-15.659-2.391-24.65-.644-47.21 4.783-61.901l.115-.322.345-.092c.598-.184 1.127-.253 1.656-.253 1.15 0 2 .414 2.828.851.253.115.506.253.782.368l.529.23-.138.529-.138.483c-.805 2.874-2.322 8.209 1.012 9.106l.506.138v.483c0 1.127.115 2.207.207 3.242.138 1.541.276 3.127.138 4.967h.046c.322.046.805.115 1.104.483.115.138.23.368.207.736.391 2.552.253 4.99.138 7.335-.115 2.368-.207 4.599.184 6.714.092.483.345.966.621 1.495.322.621.644 1.242.736 2 .345 2.46.092 4.921-.161 7.312-.322 2.759-.621 5.611 0 8.508 1.702-3.426 3.242-7.772 3.863-11.152l.023-.069.046-.092c2.115-4.231 4.093-8.646 6.185-13.314 7.358-16.418 14.969-33.411 29.663-43.827l.184-.138h.253 2.713 1.012l-.345.874c-.621 1.61-.046 2.391.782 3.449.161.23.345.46.506.69l.184.253-.115.299c-1.242 3.702-3.334 6.668-5.358 9.52-1.954 2.736-3.978 5.588-5.174 9.04-.943 1.909-1.885 3.702-2.851 5.496-1.656 3.127-3.38 6.369-4.852 9.727.253.943.069 2.805-.552 3.84-.46.759-1.035.966-1.495 1.012.046 3.472-2 6.875-3.817 9.911-.253.437-.483.851-.736 1.265-1.449 3.518-2.69 7.358-3.863 11.08-2.529 7.91-5.128 16.07-10.462 22.03-.414.368-.897.529-1.403.529-.207 0-.414-.023-.621-.069-.046.069-.092.138-.138.23-.483.69-.943 1.403-1.702 1.931l-.161.092-.184.023c-2.161.276-3.794.299-5.243.322-1.449.023-2.621.046-3.863.299l-.184.046"/><path d="m301.12 83.77c-9.221-.069-17.361 9.474-23.06 21.5 9.773-4.944 18.35-12.371 23.06-21.5m14.303 83.26l-1.012-.69c-1.61-1.081-3.702-1.817-5.749-2.506-.506-.184-1.035-.368-1.564-.552l-.322-.115-.092-.299c-2.391-7.082-2.115-16.717-.828-23.615-1.978 1.977-5.381 8.508-7.427 10.876-7.45 8.646-15.935 18.442-29.847 18.442-1.564 0-3.196-.138-4.852-.391-4.208-.621-6.622-3.15-8.922-5.887-2-2.368-3.15-6.576-3.541-9.451-1.426-10.554 1.633-25.04 4.02-30.33-1.587-.184-3.173-.575-4.116-1.725-.782-.966-1.012-2.253-.644-4l.092-.368.391-.115c1.288-.414 2.552-.897 3.771-1.357 1.61-.598 3.288-1.242 5.105-1.725 5.955-12.578 12.302-24.788 22.58-33.13 2.759-2.253 10.141-5.381 17.66-5.381 2.46 0 4.921.391 7.358 1.196 2.253 1.173 3.817 3.219 4.392 5.68.621 2.644 0 5.404-1.679 7.565-8.094 15.59-19.936 22.21-38.677 29.502l-.713 1.495c-4.53 9.497-12.279 29.341-2 37.642 7.542-.414 12.164-2.989 17.913-9.98 1.748-2.115 4.208-4.898 5.956-7.45.506-.69.989-1.403 1.472-2.093 6.599-9.451 14.624-24.282 20.05-34.06 2.276-4.116 4.093-7.565 6.438-12.256l.023-.069.069-.046c6.921-8.278 17.407-20.81 34.08-22.58 1.219-.115 2.483-.184 3.771-.184 3.334 0 6.415.414 8.991.828l.276.046.161.207c.851 1.035 2.185 1.817 3.472 2.598 2.299 1.357 4.875 2.897 4.829 5.978l-.023.759-.805-.138c-1.633-.276-2.943-.874-4.208-1.495-1.449-.667-2.805-1.334-4.484-1.334-.115 0-.207 0-.322.023-1.104.046-2.115.483-3.196.966-.782.322-1.564.69-2.437.897l-1.541.368c-3.196.759-6.231 1.495-9.152 3.01-1.035.552-2.024 1.242-2.943 1.909-1.449 1.012-2.805 1.954-4.415 2.483-1.219 1.564-2.621 3.081-3.978 4.53-2.322 2.506-4.737 5.082-6.369 8.094-3.449 6.369-5.128 14.371-6.737 22.1-.552 2.506-1.081 5.128-1.702 7.634l-.161.713-.759-.23c-.299-.092-.621-.253-.897-.506-1.357 5.68-1.954 12.256-2.529 18.648-.46 4.967-.92 10.118-1.748 14.67v.069l-.046.069c-.299.69-.736 1.196-1.15 1.679-.575.667-1.081 1.242-1.173 2.208l-.115 1.173z"/></g></g><g fill-rule="evenodd"><path d="m175.36 195.82c-6.622 1.127-22.902 4.392-38.19 2.414-14.693-1.886-41.574-8.784-50.22-20.649-3.863-5.312-9.842-12.923-12.03-21.73-.253-6.438-2.598-16.556-.575-22.282 3.702-20.718 18.786-35.27 35.411-44.563 2.92-2.805 6.323-4.093 11.244-5.151 6.139-1.334 11.888-5.358 21.02-4.484-.345 1.862-.437 3.932-.345 6.186-8.05 1.679-14.624 4.714-19.936 8.945-4.898 2.805-13.222 11.01-16.12 14.739-2.897 3.702-6.944 10.623-8.439 13.268-2.759 4.967-3.15 8.554-4.553 18.212-.046 1.334 1.265 10 3.357 13.544 7.887 17.591 20.258 27.754 41.32 31.25 3.311-.506 4.392 1.104 7.611.69-3.978-2.506-7.703-3.472-11.06-6.461-7.634-6.806-14.946-21.293-15.383-33.388-1.012-26.559 15.245-46.22 34.79-52.2.184 1.196.989 7.128 1.541 7.979-1.61.759-1.196 4.346-2.897 5.01.529 4.208-6.599 5.059-5.818 9.497-4.967 6.507-7.266 9.221-10.393 17.476.115.897-1.035 3.656-1.725 3.794.575 5.45-.828 11.267 1.15 15.774 4.737 19.453 25.25 29.709 54.27 22.03 11.52-3.058 21.454-8.232 30.28-16.809 4.53-4.438 10.485-10.416 12.486-17.246 3.403-11.543-8.301-24.995-14.188-31.23-7.473-7.864-18.35-14.44-28.49-21.615-13.521-9.543-26.65-19.545-25.455-42.36.276-5.082 4.277-13.08 6.553-16.625 7.06-10.991 17.223-16.418 30.514-22.42 5.404-2.437 11.497-4.07 17.936-5.312 5.887-1.127 14.394-2.184 20.511-2.115 5.542.046 11.221 1.242 15.268 2.391 8.209 4.599 10.164 4.185 9.01 15.981-3.15 8.876-8.416 14.693-17.2 19.361-5.335 2.828-8.784 4.369-14.693 6.117-2.851.828-5.818 2.391-9.313 3.058-5.243.989-6.622.575-14.762.368-1.081-.736-.483-2.598-.483-2.598l-5.726-3.541s1.288-3.334 1.794-3.633c4.691.276 8.347.506 17.752-2.299 8.37-2.506 13.567-5.04 20.764-10.37 4.254-3.15 6.071-1.518 5.335-6.05-.92-5.542-6.05-5.565-12.394-5.772-9.911-.322-15.912 1.518-21.638 3.932-5.726 2.437-11.934 4.047-15.751 7.358-1.725.276-3.495 2.276-5.68 2.139-1.61 2-2.782 4.07-5.68 4.852-.943 3.863-3.817 7.105-5.68 9.704-1.954 2.736.069 7.22 1.081 13.866.989 6.645 6.622 11.474 11.152 16.579 7.772 4.967 13.498 10.393 20.994 15.935 2.299 1.702 4.875 3.058 7.174 4.76 4.254 3.15 7.542 8.186 11.11 12.21 2.46 2.805 5.657 5.749 7.519 10.623.506 1.357 1.84 3.541 2.185 4.553 1.725 5.151 2.943 13.452 2.828 19.683-.414 23.96-25.547 41.21-38.447 47-6.323 2.851-24.07 8.485-30.698 9.612" fill="#bf2519"/><path d="m147.97 86.44c-2.552-1.472-6.346-.943-6.346-.943-8.03 1.656-14.601 4.714-19.936 8.922-4.875 2.828-13.199 11.04-16.1 14.739-2.897 3.725-6.944 10.646-8.439 13.268-2.782 4.99-3.15 8.577-4.553 18.212-.046 1.357 1.265 10 3.357 13.544 7.887 17.591 20.235 27.754 41.32 31.27 3.311-.506 4.392 1.104 7.611.667-3.978-2.483-7.703-3.449-11.08-6.438-7.634-6.806-14.923-21.316-15.383-33.388-1.012-26.559 15.268-46.22 34.813-52.22 0 0-2.713-6.162-5.266-7.634" fill="#ecece8"/><path d="m564.88 216.04c-3.173.483 5.105.92 7.864 1.472.276.046 1.977.92 4.02.598 1.196-.184 2.851.092 4.461-.115 1.058-.138 5.68.897 17.982.023 3.288-.23-4.461-5.703-8.623-7.519-17.89-7.795-46.2-12.256-70.64-15.08-43.27-6.691-85.49-8.301-127.25-5.358-19.936 1.403-39.435 3.449-59.12 6.208-40.03 5.657-79.47 10-117.98 17.2-18.671 3.518-37.435 7.473-55.922 12-18.579 4.553-37.23 8.05-54.98 13.866-18.05 5.956-36.31 13.705-54.27 17.315-9.152 1.84-18.396 4.139-27.16 7.565-4.139 1.633-7.68 1.885-11.773 4.277-3.702 2.161-11.957 3.932-11.474 7.381.483 3.472 30.996-5.588 44.862-10.807 14.14-5.335 27.961-10.623 43.62-13.636 1.587-.276-.851 1.931 1.334 1.472 3.587-1.541 6.599-2.047 10.347-1.954 3.817.069 8.83-2.115 13.728-3.541 4.553-1.334 9.221-2.759 13.728-3.541 10.05-1.771 20.05-4.921 28.49-6.094 1.977-.253 3.518.345 5.105-.069 1.817-.46 3.403-2.161 5.266-2.345 1.242-.115 2.621.736 3.955.759 2.713.092 5.611-1.564 8.531-2.093 7.565-1.357 15.935-2.828 24.374-4.576 11.888-2.437 23.02-3.104 35.3-5.082 5.082-.828 10.05-2.575 15.199-3.426 15.04-2.506 23.569-3.035 37.412-4.02 2.299-.161 4.576-1.495 7.06-1.771 5.174-.575 11.382-.368 17.18-.966 3.633-.368 18.35.115 20.327.184 1.081.046 2.231-1.035 3.357-1.127 1.012-.069 2.483.736 3.587.736 3.656 0 7.45-2.184 10.692-1.931 1.817.138 3.288 1.311 4.99 1.311 2 0 4.208-2.69 6.3-2.828 10.462-.598 22.603-.943 33.779-2.138 1.954-.207 3.978-1.288 5.933-1.38 1.817-.092 4.783 2.138 5.427.414 2.345-6.255 2.943-1.495 4.461-1.495 4.093-.023 7.496 3.656 11.52 3.242 1.564-.161 3.196-1.357 4.829-1.449 2.207-.138 4.254 1.15 6.507.943 1.15-.092 2.69-1.265 3.748-1.541 9.01-2.552 24.24 1.564 25.593 1.196 1.564-.437 36.1 1.564 51.76 3.495 8.094-.92 19.223 2.115 27.754 3.518 5.519-1.587 14.578 1.035 18.809.713" fill="#fff"/></g></svg>