<svg xmlns="http://www.w3.org/2000/svg" viewBox="0 0 600 287.34"><g fill="#fff"><path d="m463.03 168.03c-1.929 0-5.628.953-6.06.749h-2.587l-1.021-.567c.477-1.43 4.493-3.926 10.848-6.15.93-.318 2.496-1.067 3.631-1.589l.84-.408c6.286-2.905 16.249-8.987 23.262-15.432l.113-.113.068-.136c.522-1.362 1.294-2.496 2.043-3.563.59-.817 1.067-1.498 1.475-2.247l.045-.091.023-.113c1.611-10.122-5.651-16.07-11.03-22.672-3.177-3.903-6.445-7.943-8.306-12.868l-.567-1.543-.726 1.475c-1.77 3.654-3.495 7.489-5.02 10.871-5.106 11.279-10.08 21.809-17.928 31.14-.658.749-1.498 1.248-2.088 1.952-1.067 1.271-2.36.613-2.86 2.088l-.409.477-.159.113c-3.858 3.041-6.06 5.31-9.668 5.946-2.564.454-8.873.976-8.873.976-1.226-.613-1.044-1.18-3.586-1.952-.681-.182-2.043-.953-2.043-.953-4.085 3.245-8.215 4.153-14.91 4.153-4.357 0-8.08-1.112-10.757-3.2-8.851-6.876-10.144-22.671-7.603-34.45 1.793-8.397 6.717-18.518 10.303-25.894l.454-.93c.272-.545.477-1.067.681-1.566.34-.817.635-1.498 1.021-2.201.34-.567.772-1.067 1.18-1.543.431-.477.862-.999 1.135-1.543l.068-.091v-.091c.023-.045.023-.363.023-.545 0-.454-.023-.999.272-1.475 1.566-2.564 5.787-7.308 7.353-8.01.84-.386 1.702-.567 2.61-.567 1.089 0 1.997.272 2.746.477l.159.045.204.068.136.136c.681.704.794 1.838.908 2.837.068.567.113 1.044.25 1.452l.113.363-.318.272c-3.994 3.495-6.876 9.418-7.149 14.774l-.023.295-.272.182c-1.838 1.248-3.245 3.881-3.518 4.403l-.182.386.295.318c.431.454.93 1.225.272 2.428-1.384 2.474-3.767 8.896-4.97 14.12-3.654 15.977-1.815 25.803 5.628 30.07l.545.318.363-.477c4.811-5.969 8.06-10.712 10.734-18.496 1.089-3.154 4.244-11.688 4.947-12.958.409-.749.295-4.652.431-5.333.635-3.313 3.45-8.737 4.97-12.187 1.021-2.315 1.407-1.611 2.088-3.677.704-2.02 1.089-3.359 1.452-5.537.59-3.563 3.154-5.787 5.333-9.146l.136-.227.25-.068c1.339-.386.681.84 1.226-.567.726-1.952 2.928-3.881 5.04-5.061.227-.113.477-.227.726-.34l.182-.068.204.023c2.474.363 2.61 2.269 2.542 4.38-.023.726-1.362 2.383-1.226 2.95.454 1.816-.726 3.631-.749 5.606v.227c0 .976-.023 1.974-.113 3.02-.454 5.81-1.861 8.76-3.223 15.02-.386 1.816-.772 3.631-1.135 5.424-.545 2.632-1.929 6.581-2.723 9.05-.749 2.36-2.224 7.534-2.337 8.125-.182.726-2.632 5.832-2.791 6.4-.613 2.224-1.611 4.289-2.587 6.309-.408.862-.817 1.702-1.18 2.519l-1.725 2.02s1.861-.204 2.36-.34l1.384-.136.25-.045c.726-.113 1.997-.454 3.177-1.203.84-.545 1.974-1.294 2.723-1.657l.136-.068.091-.113c11.324-13.639 16.907-25.894 24.442-42.17 5.084-10.939 7.081-16.226 13.73-26.893l.159-.272.34-.045c.658-.091 1.294-.182 1.929-.272 1.452-.25 2.86-.454 4.267-.454 1.475 0 2.769.25 3.926.772l.454.204-.045.454c-.522 4.607-.522 5.333-1.861 8.533-.817 1.952.204.431-.477 2.723l-.068.227.113.204c1.089 2.247.34 4.448-.363 6.604-.477 1.452-.93 2.791-.794 4.085.113 1.067 2.632 5.379 5.81 9.532 1.18 1.543 2.383 2.905 3.563 4.221 2.655 2.996 7.33 5.469 9.1 9.736l.045.113.091.113c.545.522 1.044.976 1.838 1.157l.295.091.136.25c1.316 2.406 1.77 4.357 2.36 6.831.204.885.431 1.838.704 2.928 1.589 5.969.908 12.731-1.725 17.225-3.404 5.787-8.193 9.645-15.432 12.595l-.658.25c-2.043.862-4.267 2.973-7.489 3.54-4.04.704-7.784 3.155-9.554 3.155-.613 0-1.407.386-2.156.817l-.136.068c-2.905.999-1.089 1.067-5.583 1.067l-3.994-1.135z" fill-rule="evenodd"/><path d="m579.13 103.33l-7.603 24.51c-.999 2.996-1.271 5.923-1.929 8.919h-.159c-.749-2.928-1.18-5.855-2.269-8.783l-7.512-24.646h-41.1v9.532h9.759v41.803h12.459v-41.803h8.896l14.819 41.803h10.19l17.475-51.33h-13.03"/><g fill-rule="evenodd"><path d="m348.53 160.6l-.182-.045c-5.719-1.77-6.808-8.329-7.512-15.455-2.36-24.328-.635-46.591 4.72-61.09l.113-.318.34-.091c.59-.182 1.112-.25 1.634-.25 1.135 0 1.974.409 2.791.84.25.113.499.25.772.363l.522.227-.136.522-.136.477c-.794 2.837-2.292 8.102.999 8.987l.499.136v.477c0 1.112.113 2.179.204 3.2.136 1.52.272 3.086.136 4.902h.045c.318.045.794.113 1.089.477.113.136.227.363.204.726.386 2.519.25 4.925.136 7.239-.113 2.338-.204 4.539.182 6.627.091.477.34.953.613 1.475.318.613.635 1.225.726 1.974.34 2.428.091 4.857-.159 7.217-.318 2.723-.613 5.537 0 8.397 1.679-3.381 3.2-7.671 3.813-11.01l.023-.068.045-.091c2.088-4.176 4.04-8.533 6.105-13.14 7.262-16.204 14.774-32.975 29.28-43.25l.182-.136h.25 2.678.999l-.34.862c-.613 1.589-.045 2.36.772 3.404.159.227.34.454.499.681l.182.25-.113.295c-1.226 3.654-3.291 6.581-5.288 9.395-1.929 2.701-3.926 5.515-5.106 8.919-.93 1.884-1.861 3.654-2.814 5.424-1.634 3.086-3.336 6.286-4.788 9.6.25.93.068 2.769-.545 3.79-.454.749-1.021.953-1.475.999.045 3.427-1.974 6.786-3.767 9.781-.25.431-.477.84-.726 1.248-1.43 3.472-2.655 7.262-3.813 10.939-2.496 7.807-5.061 15.863-10.326 21.741-.408.363-.885.522-1.384.522-.204 0-.408-.023-.613-.068-.045.068-.091.136-.136.227-.477.681-.93 1.384-1.679 1.906l-.159.091-.182.023c-2.133.272-3.745.295-5.174.318-1.43.023-2.587.045-3.813.295l-.182.045"/><path d="m297.19 82.68c-9.1-.068-17.13 9.35-22.762 21.22 9.645-4.879 18.11-12.209 22.762-21.22m14.12 82.18l-.999-.681c-1.589-1.067-3.654-1.793-5.674-2.474-.499-.182-1.021-.363-1.543-.545l-.318-.113-.091-.295c-2.36-6.99-2.088-16.499-.817-23.307-1.952 1.952-5.31 8.397-7.33 10.734-7.353 8.533-15.727 18.201-29.457 18.201-1.543 0-3.154-.136-4.788-.386-4.153-.613-6.536-3.109-8.805-5.81-1.974-2.338-3.109-6.49-3.495-9.327-1.407-10.417 1.611-24.714 3.971-29.934-1.566-.182-3.132-.567-4.062-1.702-.772-.953-.999-2.224-.635-3.949l.091-.363.386-.113c1.271-.408 2.519-.885 3.722-1.339 1.589-.59 3.245-1.225 5.04-1.702 5.878-12.414 12.141-24.464 22.286-32.702 2.723-2.224 10.01-5.31 17.429-5.31 2.428 0 4.857.386 7.262 1.18 2.224 1.157 3.767 3.177 4.335 5.606.613 2.61 0 5.333-1.657 7.466-7.988 15.387-19.676 21.923-38.17 29.12l-.704 1.475c-4.471 9.373-12.12 28.958-1.974 37.15 7.444-.409 12-2.95 17.679-9.849 1.725-2.088 4.153-4.834 5.878-7.353.499-.681.976-1.384 1.452-2.065 6.513-9.327 14.434-23.965 19.789-33.61 2.247-4.062 4.04-7.466 6.354-12.1l.023-.068.068-.045c6.831-8.17 17.18-20.538 33.633-22.286 1.203-.113 2.451-.182 3.722-.182 3.291 0 6.332.409 8.873.817l.272.045.159.204c.84 1.021 2.156 1.793 3.427 2.564 2.269 1.339 4.811 2.859 4.766 5.9l-.023.749-.794-.136c-1.611-.272-2.905-.862-4.153-1.475-1.43-.658-2.769-1.316-4.425-1.316-.113 0-.204 0-.318.023-1.089.045-2.088.477-3.154.953-.772.318-1.543.681-2.406.885l-1.521.363c-3.154.749-6.15 1.475-9.03 2.973-1.021.545-1.997 1.225-2.905 1.884-1.43.999-2.769 1.929-4.357 2.451-1.203 1.543-2.587 3.041-3.926 4.471-2.292 2.474-4.675 5.02-6.286 7.988-3.404 6.286-5.061 14.184-6.649 21.809-.545 2.474-1.067 5.061-1.679 7.534l-.159.704-.749-.227c-.295-.091-.613-.25-.885-.499-1.339 5.605-1.929 12.1-2.496 18.405-.454 4.902-.908 9.985-1.725 14.479v.068l-.045.068c-.295.681-.726 1.18-1.135 1.657-.567.658-1.067 1.226-1.157 2.179l-.113 1.157z"/></g></g><g fill-rule="evenodd"><path d="m173.07 193.27c-6.536 1.112-22.603 4.335-37.695 2.383-14.502-1.861-41.03-8.669-49.564-20.379-3.813-5.242-9.713-12.754-11.869-21.446-.25-6.354-2.564-16.34-.567-21.991 3.654-20.447 18.541-34.813 34.949-43.981 2.882-2.769 6.241-4.04 11.1-5.084 6.06-1.316 11.733-5.288 20.742-4.425-.34 1.838-.431 3.881-.34 6.105-7.943 1.657-14.434 4.652-19.676 8.828-4.834 2.769-13.05 10.871-15.909 14.547-2.859 3.654-6.854 10.485-8.329 13.09-2.723 4.902-3.109 8.442-4.493 17.974-.045 1.316 1.248 9.872 3.313 13.367 7.784 17.361 19.994 27.392 40.781 30.841 3.268-.499 4.335 1.089 7.512.681-3.926-2.474-7.603-3.427-10.916-6.377-7.534-6.718-14.751-21.01-15.182-32.952-.999-26.21 15.05-45.615 34.34-51.52.182 1.18.976 7.04 1.52 7.875-1.589.749-1.18 4.289-2.859 4.947.522 4.153-6.513 4.993-5.742 9.373-4.902 6.422-7.171 9.1-10.258 17.248.113.885-1.021 3.608-1.702 3.744.567 5.379-.817 11.12 1.135 15.568 4.675 19.2 24.918 29.321 53.56 21.741 11.37-3.02 21.17-8.125 29.888-16.589 4.471-4.38 10.349-10.28 12.323-17.02 3.359-11.392-8.193-24.669-14-30.819-7.376-7.761-18.11-14.252-28.12-21.333-13.344-9.418-26.303-19.29-25.12-41.803.272-5.02 4.221-12.913 6.468-16.408 6.967-10.848 16.998-16.204 30.12-22.13 5.333-2.406 11.347-4.02 17.701-5.242 5.81-1.112 14.207-2.156 20.243-2.088 5.469.045 11.07 1.226 15.07 2.36 8.102 4.539 10.03 4.13 8.896 15.772-3.109 8.76-8.306 14.502-16.975 19.11-5.265 2.791-8.669 4.312-14.502 6.04-2.814.817-5.742 2.36-9.191 3.02-5.174.976-6.536.567-14.57.363-1.067-.726-.477-2.564-.477-2.564l-5.651-3.495s1.271-3.291 1.77-3.586c4.63.272 8.238.499 17.52-2.269 8.261-2.474 13.39-4.97 20.493-10.235 4.198-3.109 5.991-1.498 5.265-5.969-.908-5.469-5.969-5.492-12.232-5.696-9.781-.318-15.704 1.498-21.355 3.881-5.651 2.406-11.778 3.994-15.546 7.262-1.702.272-3.45 2.247-5.606 2.111-1.589 1.974-2.746 4.02-5.606 4.788-.93 3.813-3.767 7.01-5.606 9.577-1.929 2.701.068 7.126 1.067 13.685.976 6.559 6.536 11.324 11.01 16.363 7.671 4.902 13.322 10.258 20.72 15.727 2.269 1.679 4.811 3.02 7.081 4.698 4.198 3.109 7.444 8.08 10.961 12.05 2.428 2.769 5.583 5.674 7.421 10.485.499 1.339 1.815 3.495 2.156 4.493 1.702 5.084 2.905 13.276 2.791 19.426-.408 23.647-25.21 40.668-37.945 46.39-6.241 2.814-23.761 8.374-30.3 9.486" fill="#bf2519"/><path d="m146.04 85.31c-2.519-1.452-6.264-.93-6.264-.93-7.92 1.634-14.411 4.652-19.676 8.805-4.811 2.791-13.03 10.893-15.886 14.547-2.859 3.677-6.854 10.507-8.329 13.09-2.746 4.925-3.109 8.465-4.493 17.974-.045 1.339 1.248 9.872 3.313 13.367 7.784 17.361 19.971 27.392 40.781 30.864 3.268-.499 4.335 1.089 7.512.658-3.926-2.451-7.603-3.404-10.939-6.354-7.534-6.718-14.729-21.04-15.182-32.952-.999-26.21 15.07-45.615 34.36-51.54 0 0-2.678-6.082-5.197-7.534" fill="#ecece8"/><path d="m557.5 213.22c-3.132.477 5.04.908 7.761 1.452.272.045 1.952.908 3.971.59 1.18-.182 2.814.091 4.403-.113 1.044-.136 5.606.885 17.747.023 3.245-.227-4.403-5.628-8.51-7.421-17.656-7.693-45.593-12.1-69.72-14.887-42.71-6.604-84.38-8.193-125.59-5.288-19.676 1.384-38.921 3.404-58.35 6.127-39.511 5.583-78.43 9.872-116.44 16.975-18.428 3.472-36.946 7.376-55.19 11.846-18.337 4.493-36.742 7.943-54.26 13.685-17.815 5.878-35.834 13.526-53.56 17.09-9.03 1.815-18.16 4.085-26.802 7.466-4.085 1.611-7.58 1.861-11.619 4.221-3.654 2.133-11.801 3.881-11.324 7.285.477 3.427 30.592-5.515 44.28-10.666 13.957-5.265 27.596-10.485 43.05-13.458 1.566-.272-.84 1.906 1.316 1.452 3.54-1.52 6.513-2.02 10.212-1.929 3.767.068 8.715-2.088 13.548-3.495 4.493-1.316 9.1-2.723 13.548-3.495 9.917-1.747 19.789-4.857 28.12-6.01 1.952-.25 3.472.34 5.04-.068 1.793-.454 3.359-2.133 5.197-2.315 1.226-.113 2.587.726 3.903.749 2.678.091 5.537-1.543 8.42-2.065 7.466-1.339 15.727-2.791 24.06-4.516 11.733-2.406 22.717-3.064 34.836-5.02 5.02-.817 9.917-2.542 15-3.381 14.842-2.474 23.262-2.996 36.923-3.971 2.269-.159 4.516-1.475 6.967-1.748 5.106-.567 11.234-.363 16.953-.953 3.586-.363 18.11.113 20.06.182 1.067.045 2.201-1.021 3.313-1.112.999-.068 2.451.726 3.54.726 3.608 0 7.353-2.156 10.553-1.906 1.793.136 3.245 1.294 4.925 1.294 1.974 0 4.153-2.655 6.218-2.791 10.326-.59 22.308-.93 33.34-2.111 1.929-.204 3.926-1.271 5.855-1.362 1.793-.091 4.72 2.111 5.356.409 2.315-6.173 2.905-1.475 4.403-1.475 4.04-.023 7.398 3.608 11.37 3.2 1.543-.159 3.154-1.339 4.766-1.43 2.179-.136 4.198 1.135 6.422.93 1.135-.091 2.655-1.248 3.699-1.52 8.896-2.519 23.92 1.543 25.26 1.18 1.543-.431 35.63 1.543 51.08 3.45 7.988-.908 18.972 2.088 27.392 3.472 5.447-1.566 14.388 1.021 18.564.704" fill="#fff"/></g><path fill="#fff" d="m479.06 287.34h120.94v-61.18h-120.94v61.18"/><path d="m551.19 234c-.068.023-.116.074-.094.188-2.655 15.11-5.345 30.2-8 45.31h16.375c2.837 0 5.447.045 7.875-.25 2.383-.295 4.639-.635 6.75-1.406 3.881-1.407 7-3.928 9.406-6.969 2.474-3.086 4.04-6.819 5.063-11.312 1.021-4.516 1.626-9.984.469-14.5-1.089-4.312-3.471-7.435-7.125-9.25-3.8-1.9-8.68-1.81-14.36-1.81h-16.375zm13.156 11.594c3.971-.045 7.914-.144 9.344 2.625 1.43 2.746.394 7.638-.219 10.406-.726 3.313-1.779 6.358-4.094 7.969-2.156 1.475-5.755 1.244-9 1.313 1.316-7.444 2.584-14.937 3.969-22.312"/><path d="m498.28 234.01h15.16c-.908 5.083-1.793 10.19-2.701 15.273 4.266.113 8.76.023 13.1.045.976-5.04 1.793-10.235 2.746-15.319h15.25c-2.678 15.16-5.333 30.342-8.01 45.48h-15.273c1.021-5.946 2.088-11.824 3.132-17.747h-13.05c-1.226 5.764-2.111 11.869-3.223 17.747h-15.205c2.655-15.11 5.333-30.21 7.966-45.3 0-.113.045-.159.113-.182"/></svg>