<svg xmlns="http://www.w3.org/2000/svg" height="232.61" width="600" viewBox="0 0 158.75 61.545412"><defs><linearGradient id="0" gradientUnits="userSpaceOnUse" x2="0"><stop stop-color="#fedc00"/><stop stop-color="#fedc00" offset=".178"/><stop stop-color="#fedc00" offset=".405"/><stop stop-color="#fedc00" offset=".583"/><stop stop-color="#fedc00" offset="1"/></linearGradient></defs><g transform="translate(-18.899-123.35)"><path fill="url(#0)" d="m23.754 123.35c-2.676 0-4.855 2.16-4.855 4.86v51.82c0 2.69 2.179 4.87 4.855 4.87h149.03c2.69 0 4.87-2.18 4.87-4.87v-51.82c0-2.7-2.18-4.86-4.87-4.86z"/><g fill="#010101"><path d="m176.35 179.71c0 2.15-1.74 3.89-3.89 3.89h-148.38c-2.141 0-3.884-1.74-3.884-3.89v-21.7c0-2.16 1.743-3.89 3.886-3.89h148.38c2.15 0 3.89 1.73 3.89 3.89z"/><path d="m154.06 145.54h4.14l-6.07-13.73h-4.13l-6.07 13.73h10.83l-1.67-3.78h-3.36l2.33-5.28z"/><path d="m127.18 135.59h4.74v9.95h3.78v-9.95h4.74v-3.79h-13.26z"/><path d="m119.23 139.56-6.34-7.76h-3.77v13.74h3.77v-7.75l6.34 7.75h3.79v-13.74h-3.79z"/><path d="m95.21 131.81l-6.074 13.73h10.84l-1.672-3.78h-3.352l2.33-5.28 4 9.06h4.14l-6.078-13.73z"/><path d="m73.993 135.59h4.74v9.95h3.788v-9.95h4.731v-3.79h-13.259z"/><path d="m60.26 140.56h4.482v-3.79h-4.482v-1.19h8.893v-3.77h-12.681v13.73h12.921v-3.79h-9.133z"/><path d="m47.888 136.78h-5.158c-.338 0-.605-.26-.605-.59s.267-.6.605-.6h5.202c2.214 0 4.046-1.65 4.331-3.79h-9.533c-2.419 0-4.384 1.97-4.384 4.39 0 2.41 1.965 4.38 4.384 4.38h5.158c.329 0 .595.26.595.59 0 .32-.266.6-.595.6h-5.203c-2.214 0-4.046 1.65-4.339 3.78h9.542c2.418 0 4.375-1.96 4.375-4.38s-1.957-4.38-4.375-4.38"/></g><g fill="#fff"><path d="m42.57 162.07c-2.33 0-4.233 1.91-4.233 4.24s1.903 4.23 4.233 4.23h5.807c.418 0 .756.34.756.74 0 .43-.338.77-.756.77h-5.852c-2.045 0-3.779 1.48-4.144 3.47h9.996c2.338 0 4.232-1.89 4.232-4.24 0-2.32-1.894-4.22-4.232-4.22h-5.807c-.418 0-.765-.34-.765-.75 0-.43.347-.77.765-.77h5.842c2.045 0 3.797-1.48 4.162-3.47h-10"/><path d="m148.17 162.07c-2.33 0-4.23 1.91-4.23 4.24s1.9 4.23 4.23 4.23h5.81c.42 0 .76.34.76.74 0 .43-.34.77-.76.77h-5.85c-2.05 0-3.79 1.48-4.14 3.47h9.99c2.34 0 4.24-1.89 4.24-4.24 0-2.32-1.9-4.22-4.24-4.22h-5.81c-.41 0-.76-.34-.76-.75 0-.43.35-.77.76-.77h5.85c2.04 0 3.79-1.48 4.16-3.47h-10.01"/><path d="m121.71 162.07v3.47h6.17v9.99h3.49v-9.99h6.17v-3.47z"/><path d="m59.3 162.07v13.45h3.468v-9.98h7.257c.418 0 .756.34.756.77 0 .41-.338.75-.756.75h-5.763v3.48h5.763c2.339 0 4.233-1.9 4.233-4.23s-1.894-4.24-4.233-4.24z"/><path d="m101.39 162.07v13.45h3.47v-9.98h7.09c.42 0 .77.34.77.77 0 .41-.35.75-.77.75h-5.6v3.48h3.74s2.13 4.8 2.21 4.99h3.81c-.19-.41-2.38-5.38-2.38-5.38l.13-.07c1.44-.72 2.33-2.17 2.33-3.77 0-2.33-1.9-4.24-4.24-4.24z"/><path d="m83.931 162.07c-2.33 0-4.233 1.91-4.233 4.24v4.97c0 2.35 1.903 4.24 4.233 4.24h6.34c2.339 0 4.224-1.89 4.224-4.24v-4.22h-3.468v4.22c0 .21-.08.41-.222.55s-.338.22-.543.22h-6.331c-.205 0-.391-.08-.534-.22-.142-.14-.231-.34-.231-.55v-4.97c0-.21.089-.4.231-.54.143-.14.329-.23.534-.23h10.493c-.365-1.99-2.116-3.47-4.153-3.47z"/></g></g></svg>