<svg xmlns="http://www.w3.org/2000/svg" viewBox="0 0 600 206.04"><g transform="translate(-338.62-403.77)" fill="#fff"><g fill-rule="evenodd"><path d="m474.67 576.23h-23.583v-58.666h-25.494v58.666h-23.583v-135.31h23.583v54.54h25.494v-54.54h23.583v135.31m9.792-68.03c0-41.27 15.279-67.29 33.489-69.991-18.19-22.447-48.654-34.441-76.32-34.441-30.434 0-57.803 13.2-76.67 34.19 18.01 3.602 24.14 18.678 24.14 41.979h-22.01c0-13.72-2.897-20.87-11.05-20.87-3.619 0-6.464 1.841-8.163 5.01l-.713 1.638c-.66 1.744-.977 3.751-.977 6.05 0 28.549 46.857 27.12 46.857 70.977 0 17.14-13.12 33.13-27.889 33.13 19.409 21.21 45.932 33.93 76.48 33.93 29.72 0 56.48-12.593 75.26-32.697-17.304-4.394-32.424-29.32-32.424-68.908"/><path d="m358.99 554.64c6.578 0 11.254-5.768 11.254-14.187 0-17.427-15.252-20.844-31.614-35.541-.238 29.87 9.02 49.728 20.36 49.728"/><path d="m507.85 506c0-22.728 6.657-45.519 18.739-45.519 14.416 0 18.03 35.19 18.03 46.29 0 24.402-7.688 46.46-18.03 46.46-12.381 0-18.739-23.2-18.739-47.24"/></g><path d="m743.32 442.8h-18.405-63.774-2.968-14.222l-9.423 77.24h-.379l-10.506-77.24h-21.628l-11.501 77.24h-.352l-8.48-77.24h-21.839l17.577 131.62h21.05l11.871-83.4h.352l11.448 83.4h21.813l14.53-111.3h20.395v111.3h24.01v-111.3h22.02v111.3h23.979v-131.62h-5.574"/><path d="m760.75 442.8h31.957l10.735 67.45h.361l11.298-67.45h31.23v131.62h-21.443v-96.51h-.37l-16.265 96.51h-13.324l-16.07-96.51h-.37v96.51h-17.735v-131.62"/><path d="m858.11 442.8h54.34v20.316h-30.3v33.648h22.367v21.46h-22.367v35.841h31.587v20.351h-55.628v-131.62z"/><path d="m922.37 572.41c1.814 1.823 4.183 2.809 6.737 2.809 5.266 0 9.519-4.245 9.519-9.581 0-2.483-.986-4.879-2.756-6.719-1.841-1.779-4.218-2.783-6.763-2.783-2.554 0-4.923 1-6.737 2.783-1.796 1.841-2.8 4.236-2.8 6.719 0 2.571 1 4.949 2.8 6.772m-1.391-6.772c0-2.14.854-4.201 2.378-5.724 1.523-1.488 3.567-2.351 5.75-2.351 2.175 0 4.209.863 5.768 2.351 1.506 1.523 2.36 3.584 2.36 5.724 0 4.535-3.637 8.137-8.128 8.137-2.184 0-4.227-.801-5.75-2.334-1.523-1.532-2.378-3.584-2.378-5.803"/><path d="m933.25 571.08l-2.096-5c1.25-.317 1.99-1.462 1.99-2.747 0-.916-.414-1.823-1.127-2.369-.731-.546-1.559-.66-2.466-.66h-4.02v10.779h1.347v-4.641h2.985l1.99 4.641h1.4m-6.376-5.751v-3.831h2.677l1.506.317.775 1.471-.59 1.462-1.849.581h-2.519"/></g></svg>