<svg xmlns="http://www.w3.org/2000/svg" height="219.18" width="600" viewBox="0 0 158.75 57.992159" xmlns:xlink="http://www.w3.org/1999/xlink"><defs><radialGradient id="3" gradientUnits="userSpaceOnUse" cy="0" cx="0" gradientTransform="matrix(-.18832 56.794 62.392.20557 37.696 18.751)" r="1"><stop stop-color="#61b33d"/><stop stop-color="#3ca156" offset="1"/></radialGradient><radialGradient id="4" gradientUnits="userSpaceOnUse" cy="0" cx="0" gradientTransform="matrix(-.18747 56.784 62.382.20557 37.698 18.751)" r="1" xlink:href="#3"/><radialGradient id="2" gradientUnits="userSpaceOnUse" cy="0" cx="0" gradientTransform="matrix(-.19073 56.795 63.463.20557 37.568 18.741)" r="1" xlink:href="#3"/><radialGradient id="0" gradientUnits="userSpaceOnUse" cy="0" cx="0" gradientTransform="matrix(-.18894 56.793 63.426.20557 37.08 18.741)" r="1" xlink:href="#3"/><radialGradient id="1" gradientUnits="userSpaceOnUse" cy="0" cx="0" gradientTransform="matrix(37.981 35.315 274.76-320.54 114.91 17.501)" r="1"><stop stop-color="#66b43c"/><stop stop-color="#4aad31" offset="1"/></radialGradient></defs><path d="m100.76 29c0 16.01 12.98 28.991 29 28.991h28.99v-28.991c0-16.03-12.98-29-28.99-29-16.02 0-29 12.97-29 29" fill="url(#1)"/><path d="m109.72 18.941c.39 0 .7.32.7.7v8.72h15.25v-8.72c0-.38.31-.7.7-.7s.7.32.7.7v18.84c0 .38-.31.69-.7.69s-.7-.31-.7-.69v-8.72h-15.25v8.72c0 .38-.31.69-.7.69s-.7-.31-.7-.69v-18.84c0-.38.31-.7.7-.7m-.05-1.24c-1.21.02-2.3 1.15-2.28 2.36v17.99c-.02 1.23 1.09 2.371 2.31 2.371 1.23 0 2.35-1.141 2.33-2.371v-6.66h12.01v6.66c-.02 1.23 1.09 2.371 2.32 2.371 1.22 0 2.34-1.141 2.33-2.371v-17.99c.001-1.24-1.12-2.37-2.36-2.36-1.22.02-2.31 1.15-2.29 2.36v6.69h-12.01v-6.69c.02-1.24-1.12-2.37-2.36-2.36" fill="#fff"/><path d="m98.03 17.711c-.53.04-1.03.25-1.43.6l-8.9 7.66-8.911-7.66c-.44-.39-1-.6-1.58-.6h-.15c-1.308.09-2.285 1.2-2.199 2.47.041.63.336 1.22.825 1.62l8.425 7.25-8.425 7.25c-.998.84-1.115 2.3-.265 3.28.84.971 2.329 1.091 3.329.26l.04-.04 8.911-7.67 8.9 7.67c.97.861 2.46.781 3.34-.17.872-.95.792-2.42-.18-3.28l-.05-.05-8.43-7.25 8.43-7.25c.992-.83 1.112-2.3.27-3.28-.45-.51-1.11-.81-1.8-.81h-.15" fill="url(#0)"/><path d="m68.35 17.711c-.534.04-1.038.25-1.43.6l-8.91 7.66-8.911-7.66c-.437-.39-.998-.6-1.583-.6h-.153c-1.303.09-2.286 1.2-2.199 2.47.041.63.336 1.22.825 1.62l8.437 7.25-8.437 7.25c-.993.84-1.115 2.3-.27 3.28.845.971 2.337 1.091 3.329.26.016-.001.031-.02.051-.04l8.911-7.67 8.91 7.67c.967.861 2.459.781 3.334-.17.871-.95.8-2.42-.173-3.28-.015-.001-.03-.03-.051-.05l-8.436-7.25 8.436-7.25c.988-.83 1.11-2.3.265-3.28-.448-.51-1.105-.81-1.797-.81h-.148" fill="url(#2)"/><path d="m37.767 17.701c-1.278.03-2.306 1.08-2.286 2.36v18c-.02 1.28 1.01 2.341 2.286 2.361 1.283.001 2.337-1.01 2.358-2.291v-18.07c.015-1.28-1.01-2.33-2.286-2.36z" fill="url(#4)"/><path d="m29.08 17.741h-5.189c-4.201 0-7.347 3.72-7.347 7.93v6.54c0 1.21-.377 1.96-1 2.53-.626.58-1.619 1-3.101 1h-10.08c-.616-.001-1.227.23-1.665.66-.438.44-.692 1.04-.692 1.65 0 .62.254 1.23.692 1.66.438.43 1.049.681 1.665.671h10.08c2.398 0 4.608-.731 6.227-2.201s2.52-3.64 2.52-5.97v-6.54c0-1.61 1.736-3.29 2.704-3.29h5.189c.611.001 1.227-.24 1.659-.67.443-.43.693-1.04.693-1.65 0-.62-.25-1.23-.693-1.65-.422-.43-1.023-.67-1.624-.67z" fill="url(#3)"/><path d="m136.94 22.501h7.64c2.99 0 5.6 2.8 5.6 6.56 0 3.75-2.61 6.54-5.6 6.54h-7.64zm-1.55-1.7v16.51h9.19c4.17 0 7.31-3.57 7.31-8.25 0-4.69-3.14-8.26-7.31-8.26zm-.69-1.4h9.88c4.68 0 8.7 4.45 8.7 9.66 0 5.2-4.02 9.64-8.7 9.64h-9.88c-.25 0-.71-.46-.7-.71v-17.89c-.001-.24.45-.7.7-.7m-.12-1.7c-1.22 0-2.3 1.14-2.29 2.36v17.99c-.001 1.23 1.09 2.361 2.32 2.361h9.97c5.84 0 10.41-5.211 10.41-11.351 0-6.15-4.57-11.36-10.41-11.36z" fill="#fff"/></svg>