<?xml version="1.0" encoding="UTF-8" standalone="no"?>
<svg xmlns:rdf="http://www.w3.org/1999/02/22-rdf-syntax-ns#" xmlns="http://www.w3.org/2000/svg" height="600" width="600" version="1.1" xmlns:cc="http://creativecommons.org/ns#" xmlns:dc="http://purl.org/dc/elements/1.1/" viewBox="0 0 158.75 158.74981">
 <circle cx="79.375" cy="79.375" r="79.375" fill="#fff"/>
 <path d="m79.375-0.0001017c-21.339 0.02839-41.767 8.6474-56.678 23.913 35.454 0.091 70.907-0.073 106.36 0.082-0.06 7.493 0.06 14.985-0.09 22.467-14.92 17.875-28.27 37.109-40.064 57.218-9.71 16.95-18.645 34.69-23.154 53.81 4.496 0.81 9.054 1.23 13.623 1.26 43.835 0 79.375-35.54 79.375-79.375 0-43.838-35.54-79.375-79.375-79.375zm-75.257 54.351c-2.7048 8.067-4.0951 16.516-4.1176 25.024 0.035504 24.385 11.279 47.405 30.492 62.425 14.269-26.35 32.783-50.225 53.877-71.401 5.503-5.498 11.731-10.221 16.981-15.961-32.408 0.07-64.82 0.25-97.232-0.087z" fill="#514090"/>
</svg>
