<svg xmlns="http://www.w3.org/2000/svg" height="600" width="600" viewBox="0 0 158.75 158.74981"><circle cx="79.37" cy="79.37" r="79.37" fill="#fff"/><path d="m79.37 0c-21.339.028-41.767 8.647-56.678 23.913 35.454.091 70.907-.073 106.36.082-.06 7.493.06 14.985-.09 22.467-14.92 17.875-28.27 37.11-40.06 57.22-9.71 16.95-18.645 34.69-23.15 53.81 4.496.81 9.05 1.23 13.623 1.26 43.835 0 79.37-35.54 79.37-79.37 0-43.838-35.54-79.37-79.37-79.37zm-75.26 54.35c-2.705 8.07-4.095 16.516-4.118 25.02.036 24.385 11.279 47.41 30.492 62.42 14.269-26.35 32.783-50.22 53.877-71.4 5.503-5.498 11.731-10.221 16.981-15.961-32.408.07-64.82.25-97.23-.087" fill="#514090"/></svg>