<svg xmlns="http://www.w3.org/2000/svg" height="103.45" width="600" viewBox="0 0 158.75 27.371622"><defs><linearGradient id="0" gradientUnits="userSpaceOnUse" x2="0" y1=".907" y2="26.648"><stop stop-color="#adaaaa"/><stop stop-color="#bcbcba" offset=".004"/><stop stop-color="#cecccc" offset=".008"/><stop stop-color="#d8d6d6" offset=".012"/><stop stop-color="#e2e2e2" offset=".016"/><stop stop-color="#e5e5e5" offset=".02"/><stop stop-color="#e8e8e8" offset=".023"/><stop stop-color="#eaeaea" offset=".027"/><stop stop-color="#ededef" offset=".031"/><stop stop-color="#efeff2" offset=".035"/><stop stop-color="#f4f4f4" offset=".039"/><stop stop-color="#f4f4f7" offset=".043"/><stop stop-color="#f7f9f9" offset=".047"/><stop stop-color="#f7f9f9" offset=".063"/><stop stop-color="#f7f9f9" offset=".078"/><stop stop-color="#f7f9f9" offset=".082"/><stop stop-color="#f7f9f9" offset=".086"/><stop stop-color="#f7f9f9" offset=".094"/><stop stop-color="#f7f7f9" offset=".125"/><stop stop-color="#f7f7f9" offset=".156"/><stop stop-color="#f7f7f9" offset=".164"/><stop stop-color="#f7f7f7" offset=".172"/><stop stop-color="#f7f7f7" offset=".18"/><stop stop-color="#f7f7f7" offset=".184"/><stop stop-color="#f7f7f7" offset=".188"/><stop stop-color="#f7f7f7" offset=".203"/><stop stop-color="#f7f7f7" offset=".211"/><stop stop-color="#f4f7f7" offset=".219"/><stop stop-color="#f4f7f7" offset=".234"/><stop stop-color="#f4f4f7" offset=".238"/><stop stop-color="#f4f4f7" offset=".242"/><stop stop-color="#f4f4f7" offset=".25"/><stop stop-color="#f4f4f7" offset=".266"/><stop stop-color="#f4f4f7" offset=".273"/><stop stop-color="#f4f4f7" offset=".281"/><stop stop-color="#f4f4f7" offset=".297"/><stop stop-color="#f4f4f7" offset=".305"/><stop stop-color="#f4f4f4" offset=".309"/><stop stop-color="#f4f4f4" offset=".313"/><stop stop-color="#f4f4f4" offset=".328"/><stop stop-color="#f4f4f4" offset=".336"/><stop stop-color="#f4f4f4" offset=".344"/><stop stop-color="#f4f4f4" offset=".359"/><stop stop-color="#f4f4f4" offset=".375"/><stop stop-color="#f4f4f4" offset=".391"/><stop stop-color="#f2f4f4" offset=".395"/><stop stop-color="#f2f4f4" offset=".398"/><stop stop-color="#f2f4f4" offset=".406"/><stop stop-color="#f2f4f4" offset=".438"/><stop stop-color="#f2f4f4" offset=".445"/><stop stop-color="#f2f2f4" offset=".453"/><stop stop-color="#f2f2f4" offset=".457"/><stop stop-color="#f2f2f4" offset=".461"/><stop stop-color="#f2f2f4" offset=".469"/><stop stop-color="#f2f2f4" offset=".5"/><stop stop-color="#f2f2f4" offset=".516"/><stop stop-color="#f2f2f4" offset=".52"/><stop stop-color="#f2f2f4" offset=".523"/><stop stop-color="#f2f2f4" offset=".531"/><stop stop-color="#f2f4f4" offset=".563"/><stop stop-color="#f2f4f4" offset=".578"/><stop stop-color="#f4f4f4" offset=".594"/><stop stop-color="#f4f4f4" offset=".609"/><stop stop-color="#f4f4f4" offset=".617"/><stop stop-color="#f4f4f4" offset=".625"/><stop stop-color="#f4f4f4" offset=".641"/><stop stop-color="#f4f4f4" offset=".656"/><stop stop-color="#f4f4f4" offset=".664"/><stop stop-color="#f4f4f7" offset=".672"/><stop stop-color="#f4f4f7" offset=".688"/><stop stop-color="#f4f4f7" offset=".695"/><stop stop-color="#f4f4f7" offset=".699"/><stop stop-color="#f4f4f7" offset=".703"/><stop stop-color="#f4f4f7" offset=".719"/><stop stop-color="#f4f4f7" offset=".727"/><stop stop-color="#f4f4f7" offset=".73"/><stop stop-color="#f4f7f7" offset=".734"/><stop stop-color="#f4f7f7" offset=".75"/><stop stop-color="#f4f7f7" offset=".754"/><stop stop-color="#f7f7f7" offset=".758"/><stop stop-color="#f7f7f7" offset=".766"/><stop stop-color="#f7f7f7" offset=".773"/><stop stop-color="#f7f7f7" offset=".777"/><stop stop-color="#f7f7f7" offset=".781"/><stop stop-color="#f7f7f7" offset=".797"/><stop stop-color="#f7f7f7" offset=".801"/><stop stop-color="#f7f7f9" offset=".805"/><stop stop-color="#f7f7f9" offset=".813"/><stop stop-color="#f7f7f9" offset=".844"/><stop stop-color="#f7f7f9" offset=".859"/><stop stop-color="#f7f7f9" offset=".863"/><stop stop-color="#f7f9f9" offset=".867"/><stop stop-color="#f7f9f9" offset=".875"/><stop stop-color="#f7f9f9" offset=".891"/><stop stop-color="#f7f9f9" offset=".898"/><stop stop-color="#f7f7f9" offset=".902"/><stop stop-color="#f7f7f9" offset=".906"/><stop stop-color="#f4f7f9" offset=".91"/><stop stop-color="#f4f7f7" offset=".914"/><stop stop-color="#f4f4f4" offset=".918"/><stop stop-color="#f4f4f4" offset=".922"/><stop stop-color="#f2f2f4" offset=".926"/><stop stop-color="#eff2f4" offset=".93"/><stop stop-color="#efeff2" offset=".934"/><stop stop-color="#efeff2" offset=".938"/><stop stop-color="#ededef" offset=".941"/><stop stop-color="#eaeaed" offset=".945"/><stop stop-color="#eaeaea" offset=".949"/><stop stop-color="#e8e8ea" offset=".953"/><stop stop-color="#e5e5e8" offset=".957"/><stop stop-color="#e5e5e5" offset=".961"/><stop stop-color="#e2e2e2" offset=".965"/><stop stop-color="#e0e0e0" offset=".969"/><stop stop-color="#dbd8d8" offset=".973"/><stop stop-color="#d3d3d3" offset=".977"/><stop stop-color="#ccccc9" offset=".98"/><stop stop-color="#c4c1c1" offset=".984"/><stop stop-color="#bab7b7" offset=".988"/><stop stop-color="#b2afad" offset=".992"/><stop stop-color="#a8a5a3" offset=".996"/><stop stop-color="#9e9b99" offset="1"/></linearGradient><linearGradient id="1" gradientUnits="userSpaceOnUse" x2="0" y1="1.528" y2="24.535"><stop stop-color="#efefef"/><stop stop-color="#f2f2f2" offset=".004"/><stop stop-color="#f4f4f4" offset=".008"/><stop stop-color="#f4f4f7" offset=".012"/><stop stop-color="#f7f7f7" offset=".016"/><stop stop-color="#f9f9f9" offset=".02"/><stop stop-color="#f9f9f9" offset=".023"/><stop stop-color="#f9f9fc" offset=".031"/><stop stop-color="#f9f9fc" offset=".063"/><stop stop-color="#f9f9fc" offset=".07"/><stop stop-color="#f9f9f9" offset=".078"/><stop stop-color="#f9f9f9" offset=".082"/><stop stop-color="#f9f9f9" offset=".086"/><stop stop-color="#f9f9f9" offset=".094"/><stop stop-color="#f9f9f9" offset=".125"/><stop stop-color="#f9f9f9" offset=".141"/><stop stop-color="#f9f9f9" offset=".148"/><stop stop-color="#f9f9f9" offset=".152"/><stop stop-color="#f9f9f9" offset=".156"/><stop stop-color="#f9f9f9" offset=".188"/><stop stop-color="#f9f9f9" offset=".203"/><stop stop-color="#f9f9f9" offset=".207"/><stop stop-color="#f9f9f9" offset=".211"/><stop stop-color="#f9f9f9" offset=".219"/><stop stop-color="#f9f9f9" offset=".25"/><stop stop-color="#f9f9f9" offset=".266"/><stop stop-color="#f9f9f9" offset=".273"/><stop stop-color="#f7f9f9" offset=".277"/><stop stop-color="#f7f9f9" offset=".281"/><stop stop-color="#f7f9f9" offset=".313"/><stop stop-color="#f7f9f9" offset=".32"/><stop stop-color="#f7f9f9" offset=".328"/><stop stop-color="#f7f9f9" offset=".344"/><stop stop-color="#f7f9f9" offset=".359"/><stop stop-color="#f7f9f9" offset=".367"/><stop stop-color="#f7f7f9" offset=".371"/><stop stop-color="#f7f7f9" offset=".375"/><stop stop-color="#f7f7f9" offset=".406"/><stop stop-color="#f7f7f9" offset=".422"/><stop stop-color="#f7f7f9" offset=".438"/><stop stop-color="#f7f7f9" offset=".469"/><stop stop-color="#f7f7f9" offset=".477"/><stop stop-color="#f7f7f7" offset=".484"/><stop stop-color="#f7f7f7" offset=".5"/><stop stop-color="#f7f7f7" offset=".531"/><stop stop-color="#f7f7f7" offset=".547"/><stop stop-color="#f7f7f7" offset=".555"/><stop stop-color="#f7f7f7" offset=".559"/><stop stop-color="#f7f7f9" offset=".563"/><stop stop-color="#f7f7f9" offset=".594"/><stop stop-color="#f7f7f9" offset=".609"/><stop stop-color="#f7f7f9" offset=".617"/><stop stop-color="#f7f7f9" offset=".625"/><stop stop-color="#f7f7f9" offset=".656"/><stop stop-color="#f7f7f9" offset=".66"/><stop stop-color="#f7f9f9" offset=".664"/><stop stop-color="#f7f9f9" offset=".672"/><stop stop-color="#f7f9f9" offset=".688"/><stop stop-color="#f7f9f9" offset=".703"/><stop stop-color="#f7f9f9" offset=".711"/><stop stop-color="#f7f9f9" offset=".715"/><stop stop-color="#f7f9f9" offset=".719"/><stop stop-color="#f7f9f9" offset=".75"/><stop stop-color="#f7f9f9" offset="1"/></linearGradient></defs><path d="m154.82 27.372c3.03 0 3.93-1.87 3.93-3.751v-19.871c0-1.85-.9-3.75-3.93-3.75h-150.9c-3.02 0-3.924 1.9-3.924 3.75v19.871c0 1.881.905 3.751 3.93 3.751h150.9m-150.75-.25c-2.037 0-3.415-1.19-3.415-3.191v-20.471c0-2 1.378-3.19 3.415-3.19h150.63c2.01 0 3.39 1.19 3.39 3.19v20.471c0 2-1.38 3.191-3.39 3.191h-150.63" fill="#a8a6a6"/><path d="m3.761.91c-2.037 0-2.757 1.19-2.757 3.19v19.361c0 2 .72 3.191 2.757 3.191h151.25c2.01 0 2.73-1.19 2.73-3.191v-19.361c0-2-.72-3.19-2.73-3.19h-151.25" fill="url(#0)"/><g fill="#ae1e33"><path d="m48.37 26.652h69.72v-25.722h-69.72z"/><path d="m133.22 12.141v-3.64c0-.99.39-1.6 2.42-1.6l.7.04v11.931c0 .99-.39 1.61-2.42 1.61l-.7-.07v-5.41h-6.34v3.87c0 .99-.39 1.61-2.43 1.61l-.72-.07v-11.91c0-.991.39-1.601 2.43-1.601l.72.04v5.201zm18.02 1.53c0-4.06-2.92-6.801-7.74-6.801h-3.29c-1.56 0-1.95.83-1.95 1.92v9.771c0 1.05.39 1.9 1.95 1.9h3.29c4.82 0 7.74-2.74 7.74-6.79m-9.83 3.88v-7.77h2.28c3.15 0 4.32 2.05 4.32 3.89 0 1.85-1.17 3.88-4.32 3.88"/><path d="m17.384 16.261c0 2.2-1.44 3.8-4.362 4.13-2.119.23-5.185-.04-6.646-.22l-.103-.76c0-1.94 1.049-2.37 2.02-2.37 1.01 0 2.613.19 3.806.19 1.297 0 1.708-.46 1.708-.87 0-.55-.535-.8-1.543-.99l-2.778-.53c-2.305-.43-3.539-2.04-3.539-3.73 0-2.07 1.461-3.781 4.321-4.111 2.181-.23 4.815.04 6.255.2l.083.74c0 1.94-1.01 2.35-1.996 2.35-.741 0-1.914-.14-3.231-.14-1.358 0-1.914.37-1.914.82 0 .49.535.68 1.379.84l2.654.5c2.717.49 3.889 2.03 3.889 3.95m4.755 2.36c0 1.18-.453 1.86-2.759 1.86l-.823-.07v-15.671c0-1.18.391-2.43 2.717-2.43l.865.1zm9.444 6.05c.289.17.926.35 1.708.37 1.338.05 2.058-.47 2.614-1.68l7.182-16.03c-.309-.17-.947-.33-1.502-.35-.906-.02-2.161.18-2.943 2.06l-2.326 5.491-4.568-7.431c-.309-.08-1.029-.23-1.543-.23-1.605 0-2.511.6-3.457 1.63l-4.424 4.84 3.56 5.61c.658 1.03 1.543 1.57 2.942 1.57.926 0 1.687-.23 2.058-.39l-4.301-6.49 3.046-3.23 5 7.84"/></g><g fill="#fff"><path d="m110.93 5.43c-4.5 0-9.05-.02-13.56 0l-.72-.02c-.14.72-.31 1.46-.47 2.19-.08.39-.17.78-.27 1.17h8.68l.6-.58c.43-.22.97-.14.97-.14 1.07-.02 3.21-.02 3.21-.02l.82-.19c.66-.31.93-.97 1.15-1.54.21-.49.17-.66.11-.74l-.52-.13"/><path d="m95.52 9.741c-.25.12-.51.39-.68 1.09-.02.26-.08 1.05.39 1.79l.68.7c.19-.7.35-1.32.51-1.98h2.72c-.2.49-.7 1.71-1.32 2.61l-.59.58c-.41.25-.83.27-1.2.27-1.27 0-2.4-.11-3.39-.02l-.72.24-.56.64s3.11.02 5.54 0c.16 0 .51 0 .88-.18.46-.21.74-.52 1.11-1.05.56-.79.89-1.26 1.51-2.43.43-.8 1-1.24 1.93-1.13l.47-.27c.62-.37.74-.49.83-.6l.24-.47h-7.26s-.7 0-1.09.21"/><path d="m95.35 7.27c.15-.74.21-1.4.21-1.84h-12.02c-.39.68-.78 1.53-1.13 2.54-.31.92-.49 1.77-.59 2.491.76.02 1.5.02 2.26.02.43-.89.86-1.771 1.27-2.62h5.461c-.13.37-.33.93-.66 1.57-.78 1.46-1.71 2.36-2.14 2.82 0 0-1.191 1.21-3.561 4.4-.99 1.34-2.2 3.37-3.13 6.32h4.67c.93-2.78 2.121-4.7 3.01-5.91 1.5-2.04 3.54-4.01 5.12-6.67.33-.57.91-1.62 1.23-3.121"/><path d="m58.5 21.18l-.597-.11c-1.461-1.33 2.449-13.35 5.435-13.951l.66.13c1.48 1.42-2.494 13.291-5.498 13.931m7.078-15.231c-.7-.41-1.44-.49-1.89-.56-8.03-.84-12.02 14.281-7.163 17.06.637.35 1.275.43 1.728.47 8.01.83 12.325-14.05 7.325-16.971"/><path d="m72.08 21.18l-.59-.11c-1.471-1.33 2.42-13.35 5.43-13.951l.66.13c1.48 1.42-2.49 13.291-5.5 13.931m7.12-15.231c-.7-.41-1.44-.49-1.89-.56-8.01-.84-12.02 14.281-7.141 17.06.64.35 1.271.43 1.731.47 8 .83 12.3-14.05 7.3-16.971"/></g><path opacity=".4" d="m3.639 1.52c-1.502 0-2.078.73-2.078 2.84v18.281c0 1.13.041 1.89.206 1.89.041-.35.082-2.1 1.708-3.7 4.485-4.16 22.616-7.29 44.9-8.98 11.772-.88 24.715-1.35 37.435-1.35 11.271 0 22.341.37 32.28 1.17 18.48 1.48 32.97 4.42 37.21 9.16 1.46 1.72 1.64 3.35 1.7 3.7.15 0 .19-.76.19-1.89v-18.281c0-2.11-.58-2.84-2.08-2.84-.51 0-1.01.33-1.69.33h-148.1c-.673 0-1.168-.33-1.681-.33" fill="url(#1)"/></svg>