<svg xmlns="http://www.w3.org/2000/svg" height="81.57" width="600" viewBox="0 0 158.75 21.582461"><defs><linearGradient id="0" gradientUnits="userSpaceOnUse" x2="0" y1="146.13" y2="166.78"><stop stop-color="#888685"/><stop stop-color="#d9d9da" offset=".02"/><stop stop-color="#f5f5f6" offset=".052"/><stop stop-color="#eeefef" offset=".488"/><stop stop-color="#f5f5f6" offset=".895"/><stop stop-color="#ebebec" offset=".929"/><stop stop-color="#d9d9da" offset=".964"/><stop stop-color="#888685" offset="1"/></linearGradient><linearGradient id="1" gradientUnits="userSpaceOnUse" gradientTransform="matrix(0 20.646 18.183 0 26.17 146.13)" x1="0" x2="1"><stop stop-color="#b4b2b1"/><stop stop-color="#e8e8e9" offset=".02"/><stop stop-color="#f9f9fa" offset=".052"/><stop stop-color="#f5f5f5" offset=".488"/><stop stop-color="#f9f9fa" offset=".895"/><stop stop-color="#f4f3f4" offset=".929"/><stop stop-color="#e8e8e9" offset=".964"/><stop stop-color="#b4b2b1" offset="1"/></linearGradient></defs><g transform="translate(68.797-145.6)"><path d="m-65.828 146.31c-1.603 0-2.171.94-2.171 2.52v15.27c0 1.57.568 2.52 2.171 2.52h152.81c1.602 0 2.171-.95 2.171-2.52v-15.27c0-1.58-.569-2.52-2.169-2.52z" fill="url(#0)"/><g><g fill="#003761"><path d="m59.26 146.32h-89.88v20.3h89.88z"/><path d="m70.986 155.17v-2.87c0-.78.31-1.27 1.914-1.27.198 0 .367.001.565.04v9.41c0 .77-.311 1.26-1.917 1.26-.196 0-.367-.001-.562-.04v-4.27h-4.996v3.05c0 .77-.311 1.26-1.918 1.26-.195 0-.364-.001-.564-.04v-9.4c0-.78.31-1.27 1.917-1.27.198 0 .367.001.565.04v4.1h4.996m14.224 1.2c0-3.19-2.299-5.36-6.109-5.36h-2.591c-1.243 0-1.54.65-1.54 1.52v7.71c0 .83.297 1.5 1.54 1.5h2.591c3.81 0 6.109-2.17 6.109-5.37m-7.756 3.07v-6.13h1.791c2.497 0 3.412 1.61 3.412 3.06 0 1.46-.915 3.07-3.412 3.07h-1.791"/></g><path d="m-22.769 157.54h2.847l-1.42-4.66-1.427 4.66m-2.969 5.23c-.241 0-.517-.02-.827-.06-.31-.05-.569-.11-.771-.18l3.949-12.07c.343-.09.69-.15 1.04-.19.349-.04.67-.06.962-.06.42 0 .78.03 1.079.1.299.06.551.16.753.29.204.12.373.29.505.5.135.21.245.45.335.73l3.385 10.68c-.216.08-.476.15-.78.2-.306.04-.604.06-.894.06-.331 0-.652-.05-.962-.16s-.537-.35-.677-.73l-.647-1.96h-4.149l-.55 1.85c-.14.44-.374.72-.704.83-.33.12-.679.17-1.047.17" fill="#fff"/><path d="m-55.08 158.41c0 1.74-1.137 3.01-3.446 3.26-1.672.18-4.092-.03-5.241-.16-.042-.19-.076-.42-.076-.6 0-1.53.823-1.87 1.591-1.87.8 0 2.061.13 2.998.13 1.03 0 1.344-.34 1.344-.68 0-.43-.416-.61-1.216-.77l-2.189-.42c-1.822-.35-2.795-1.61-2.795-2.95 0-1.62 1.152-2.98 3.416-3.23 1.71-.19 3.793.02 4.935.16.043.2.065.38.065.59 0 1.51-.8 1.84-1.571 1.84-.591 0-1.51-.11-2.56-.11-1.067 0-1.51.29-1.51.65 0 .38.423.54 1.09.66l2.095.39c2.148.39 3.07 1.61 3.07 3.11m3.755 1.87c0 .93-.366 1.47-2.184 1.47-.243 0-.454-.02-.654-.04v-12.37c0-.94.319-1.92 2.157-1.92.232 0 .466.02.681.07v12.79m7.442 4.79c.238.12.728.27 1.344.28 1.056.03 1.634-.38 2.061-1.33l5.67-12.64c-.234-.13-.751-.27-1.175-.28-.729-.001-1.708.13-2.333 1.63l-1.836 4.33-3.603-5.86c-.232-.08-.798-.18-1.216-.18-1.268 0-1.98.47-2.717 1.27l-3.502 3.83 2.816 4.43c.522.81 1.207 1.22 2.32 1.22.73 0 1.335-.16 1.616-.3l-3.39-5.11 2.403-2.55 3.942 6.19-2.4 5.07" fill="#003761"/></g><g fill="#fff"><path d="m-11.924 162.73c-.267 0-.53-.001-.788-.03-.261-.03-.481-.06-.657-.1v-9.53h-3.598c-.025-.15-.054-.33-.085-.53-.032-.21-.047-.44-.047-.71 0-.58.116-.98.352-1.21.234-.22.529-.33.884-.33h9.115c.025.15.052.33.076.53.025.21.038.44.038.71 0 1.02-.413 1.54-1.238 1.54h-2.416v8.33c0 .37-.115.69-.342.94-.229.26-.661.39-1.295.39"/><path d="m-3.758 162.66c-.355 0-.645-.04-.865-.12-.223-.07-.393-.18-.515-.31-.121-.13-.202-.29-.247-.48-.045-.19-.067-.4-.067-.61v-9.56c0-.36.115-.68.344-.94.227-.26.659-.39 1.295-.39.265 0 .528.001.789.04s.479.06.656.1v9.49h5.461c.025.15.054.33.085.53.031.21.047.44.047.71 0 .6-.124 1-.371 1.22-.247.21-.587.32-1.018.32h-5.594"/><path d="m8.493 157.54h2.847l-1.42-4.66-1.427 4.66m-2.969 5.23c-.24 0-.517-.02-.827-.06-.31-.05-.569-.11-.771-.18l3.949-12.07c.344-.09.69-.15 1.041-.19.348-.04.67-.06.962-.06.421 0 .78.03 1.079.1.299.06.551.16.753.29.205.12.373.29.506.5.135.21.245.45.335.73l3.384 10.68c-.215.08-.476.15-.78.2-.305.04-.604.06-.894.06-.33 0-.652-.05-.962-.16s-.537-.35-.676-.73l-.648-1.96h-4.149l-.551 1.85c-.139.44-.373.72-.703.83-.33.12-.679.17-1.047.17"/><path d="m18.505 162.73c-.254 0-.501-.001-.742-.03-.24-.03-.445-.06-.609-.1v-12.12c.191-.06.439-.12.742-.16.306-.04.564-.07.78-.07.697 0 1.204.09 1.521.27.319.18.585.44.8.78l4.32 6.79v-6.62c0-.17.023-.32.067-.47.043-.14.12-.27.227-.39.108-.11.259-.2.448-.26.191-.07.431-.1.723-.1.254 0 .497.02.733.04.234.03.434.05.6.08v12.14c-.177.09-.393.15-.647.18s-.501.04-.742.04c-.598 0-1.04-.08-1.333-.24-.292-.17-.532-.4-.723-.69l-4.623-7.38v7.06c0 .35-.108.65-.324.89s-.622.36-1.218.36"/><path d="m34.499 162.73c-.267 0-.53-.001-.789-.03-.26-.03-.48-.06-.656-.1v-9.53h-3.598c-.025-.15-.054-.33-.085-.53-.032-.21-.048-.44-.048-.71 0-.58.117-.98.353-1.21.234-.22.528-.33.884-.33h9.115c.025.15.05.33.077.53.024.21.038.44.038.71 0 1.02-.414 1.54-1.238 1.54h-2.417v8.33c0 .37-.114.69-.341.94-.229.26-.661.39-1.295.39"/><path d="m42.39 162.73c-.267 0-.53-.001-.789-.03-.26-.03-.481-.06-.656-.1v-11.02c0-.36.112-.68.342-.94.229-.26.658-.39 1.294-.39.265 0 .528.02.789.04.261.03.479.06.656.1v11.01c0 .37-.114.69-.341.94-.23.26-.661.39-1.295.39"/><path d="m51.47 162.89c-.901 0-1.732-.16-2.492-.49-.762-.32-1.423-.77-1.98-1.34s-.996-1.25-1.313-2.04c-.316-.78-.476-1.63-.476-2.54 0-.89.16-1.72.476-2.5.317-.77.756-1.44 1.313-2.02.557-.57 1.218-1.01 1.98-1.34.76-.32 1.591-.48 2.492-.48.648 0 1.275.07 1.884.21s1.173.32 1.694.53c.115 1.69-.298 2.53-1.238 2.53-.164 0-.317-.02-.456-.06-.14-.03-.292-.07-.456-.11-.167-.04-.349-.08-.553-.11-.203-.04-.443-.06-.722-.06-.445 0-.863.08-1.256.24s-.733.38-1.018.68c-.286.3-.51.66-.677 1.08-.164.41-.247.88-.247 1.41 0 .54.083 1.03.247 1.46.167.43.391.8.677 1.1.285.29.625.52 1.018.68s.811.24 1.256.24c.279 0 .526-.02.742-.06s.409-.08.58-.11c.171-.04.332-.08.485-.12s.31-.05.477-.05c.926 0 1.337.84 1.236 2.53-.519.21-1.101.39-1.742.53-.64.14-1.283.21-1.931.21"/></g><path opacity=".3" d="m-65.88 146.64c-1.414 0-1.96.57-1.96 2.24l-.002 14.41c0 .9.047 1.5.184 1.5.047-.28.09-1.66 1.614-2.93.526-.4 1.268-.8 2.209-1.18 3.147-1.08 6.141-1.8 8.757-2.29.318-.06.643-.12.916-.17.995-.17 1.998-.34 2.841-.48.367-.05.746-.11 1.061-.16 1.037-.15 2.085-.3 2.967-.42 1.298-.17 2.606-.33 3.708-.46 1.049-.12 2.111-.24 3.01-.34.263-.02.532-.05.758-.08 1.03-.1 2.071-.2 2.948-.29 4.082-.4 8.099-.71 11.987-.95h.0001c.973-.07 1.948-.13 2.939-.19.41-.02.831-.05 1.184-.07.966-.05 1.951-.11 2.933-.16 1.472-.08 2.958-.15 4.459-.22 1.023-.05 2.05-.09 3.084-.13 1.6-.07 3.209-.13 4.834-.18 1.073-.04 2.164-.07 3.084-.1 3.188-.08 6.426-.16 9.153-.2.998-.001 2.01-.03 2.867-.04h.532c1.031-.001 2.083-.02 2.965-.03 1.389 0 2.8-.001 3.99-.001 1.846.001 3.746.001 5.407.02.964.001 1.943.02 2.769.03.974.02 1.964.03 2.798.05 1.657.02 3.308.06 4.94.1 1.033.03 2.062.06 3.082.09 1.624.05 3.221.11 4.807.18 1.071.04 2.163.09 3.083.13.526.03 1.061.06 1.512.08 1.172.06 2.367.13 3.375.19 3.573.23 7.235.49 10.341.77v.001c1.459.13 2.874.27 4.254.43 3.418.41 6.946.86 9.956 1.39 1.344.24 2.733.52 3.991.8 1.375.31 2.638.64 3.779.99.925.3 1.885.62 2.682.95 1.153.58 2.415 1.14 3.286 1.94 1.377 1.36 1.564 2.65 1.613 2.93.135 0 .187-.6.187-1.5l-.007-14.41c0-1.67-.541-2.24-1.957-2.24-.479 0-.958.26-1.596.26h-149.73c-.635 0-1.113-.26-1.592-.26" fill="url(#1)"/><path d="m86.85 167.18c2.376 0 3.102-1.47 3.102-2.95v-15.67c0-1.48-.726-2.96-3.102-2.96h-152.55c-2.375 0-3.098 1.48-3.098 2.96v15.67c0 1.48.723 2.95 3.101 2.95h152.55m-152.44-.19c-1.602 0-2.683-.95-2.683-2.52v-16.15c0-1.57 1.081-2.52 2.683-2.52h152.33c1.597 0 2.681.95 2.681 2.52v16.15c0 1.57-1.084 2.52-2.684 2.52h-152.33" fill="#a1a2a2"/></g></svg>