<svg xmlns="http://www.w3.org/2000/svg" viewBox="0 0 600 127"><defs><linearGradient id="0" gradientUnits="userSpaceOnUse" x2="0" y1="5.804" y2="31.85"><stop stop-color="#505456"/><stop offset=".844"/><stop offset="1"/></linearGradient><linearGradient id="1" gradientUnits="userSpaceOnUse" gradientTransform="matrix(0-127 64.12 0 403.12 127.01)" x1="0" x2="1"><stop stop-color="#881719"/><stop stop-color="#db1f2b" offset=".495"/><stop stop-color="#db1f2b" offset="1"/></linearGradient><linearGradient id="2" gradientUnits="userSpaceOnUse" gradientTransform="matrix(0 26.046-13.005 0 398.54 5.804)" x1="0" x2="1"><stop stop-color="#f37921"/><stop stop-color="#dd1f26" offset=".844"/><stop stop-color="#dd1f26" offset="1"/></linearGradient></defs><path d="m269.48 113.66c0 7.36-5.46 13.34-12.18 13.34h-245.13c-6.713 0-12.17-5.98-12.17-13.34v-100.31c0-7.378 5.457-13.341 12.184-13.341h245.13c6.72 0 12.18 5.963 12.18 13.338v100.31z"/><path fill="url(#0)" d="m15.681 5.811c-5.185 0-9.398 5.833-9.398 13.01 0 7.195 4.213 13.03 9.398 13.03h202.39c5.2 0 9.4-5.833 9.4-13.03-.19-.609-1.59-13.01-9.4-13.01h-202.39"/><path fill="url(#1)" d="m212.4.004c-3.4 0-6.15 5.976-6.15 13.338v113.66h387.6c3.4 0 6.15-5.97 6.15-13.34v-113.66h-387.6z"/><path fill="url(#2)" d="m207.31 5.811c-.66 2.139-1.06 4.731-1.06 7.532v18.51h389.41v-26.04h-388.35"/><path fill="#ed332a" d="m69.57 76.12c0 10.733-6.999 18.549-21.232 20.08-10.292 1.103-25.18-.194-32.29-1.01-.233-1.154-.428-2.579-.428-3.733 0-9.346 5.03-11.497 9.773-11.497 4.939 0 12.704.854 18.446.854 6.377 0 8.295-2.151 8.295-4.212 0-2.683-2.54-3.785-7.478-4.744l-13.507-2.58c-11.21-2.164-17.2-9.929-17.2-18.16 0-10.02 7.091-18.406 21.02-19.936 10.538-1.141 23.384.142 30.422 1.01.246 1.193.389 2.347.389 3.591 0 9.346-4.939 11.355-9.67 11.355-3.656 0-9.307-.674-15.775-.674-6.559 0-9.294 1.814-9.294 4.02 0 2.358 2.592 3.318 6.715 4.03l12.884 2.397c13.221 2.438 18.925 9.969 18.925 19.211m23.12 11.498c0 5.755-2.256 9.06-13.468 9.06-1.478 0-2.774-.104-4.02-.298v-76.18c0-5.781 1.957-11.834 13.274-11.834 1.439 0 2.864.143 4.213.441v78.81zm45.825 29.477c1.49.75 4.5 1.68 8.29 1.76 6.53.14 10.06-2.34 12.7-8.19l34.93-77.903c-1.45-.765-4.65-1.634-7.24-1.673-4.49-.103-10.54.805-14.37 10.01l-11.3 26.69-22.19-36.13c-1.43-.427-4.95-1.05-7.47-1.05-7.87 0-12.23 2.878-16.77 7.804l-21.561 23.578 17.331 27.311c3.23 4.977 7.44 7.517 14.28 7.517 4.52 0 8.25-1.05 9.97-1.865l-20.88-31.488 14.8-15.709 24.3 38.13-14.81 31.19z"/><g fill="#fff" transform="matrix(1.0263 0 0 1.0263 0 .004)"><path d="m248.05 52.41c0-3.107-1-5.469-3-7.07s-4.73-2.425-8.19-2.425h-10.65v19.17h10.91c3.48 0 6.15-.922 8.06-2.74 1.91-1.819 2.87-4.067 2.87-6.757v-.177m13.97-.088c0 3.637-.66 6.833-1.97 9.574-1.32 2.74-3.12 5.05-5.42 6.896s-4.98 3.233-8.06 4.155c-3.07.935-6.37 1.389-9.89 1.389h-10.47v18.807h-13.79v-62.67h25.6c3.76 0 7.12.53 10.08 1.566 2.95 1.048 5.46 2.526 7.51 4.433 2.06 1.92 3.64 4.194 4.74 6.859 1.11 2.652 1.67 5.595 1.67 8.816v.176"/><path d="m286.36 46.591l-8.33 20.323h16.65l-8.32-20.323m18.98 46.556l-5.73-14.06h-26.5l-5.72 14.06h-14.06l26.85-63.11h12.72l26.85 63.11h-14.41"/><path d="m369.41 74.61c0 3.107-.57 5.861-1.69 8.286-1.12 2.412-2.7 4.446-4.71 6.088-2.02 1.642-4.42 2.892-7.21 3.751-2.81.871-5.9 1.301-9.31 1.301-4.78 0-9.46-.821-14.05-2.463s-8.78-4.155-12.54-7.566l8.15-9.763c2.86 2.337 5.81 4.193 8.83 5.557 3 1.377 6.3 2.059 9.87 2.059 2.87 0 5.11-.518 6.68-1.566 1.58-1.036 2.38-2.488 2.38-4.332v-.19c0-.896-.18-1.679-.49-2.374-.34-.682-.96-1.326-1.9-1.92-.92-.593-2.21-1.187-3.85-1.781-1.65-.606-3.79-1.225-6.42-1.894-3.17-.834-6.05-1.705-8.62-2.64-2.58-.922-4.75-2.084-6.56-3.486-1.79-1.402-3.18-3.145-4.17-5.242-.98-2.084-1.49-4.673-1.49-7.78v-.189c0-2.855.55-5.444 1.62-7.743 1.06-2.286 2.55-4.269 4.48-5.949 1.92-1.667 4.24-2.955 6.91-3.852 2.68-.884 5.62-1.339 8.84-1.339 4.6 0 8.82.683 12.67 2.059 3.85 1.377 7.39 3.347 10.61 5.911l-7.16 10.382c-2.8-1.907-5.56-3.41-8.23-4.521-2.69-1.099-5.37-1.655-8.06-1.655-2.68 0-4.7.518-6.05 1.566-1.34 1.049-2.01 2.35-2.01 3.89v.177c0 1.023.19 1.907.58 2.653.39.745 1.09 1.414 2.11 2.01 1.02.593 2.41 1.162 4.18 1.705 1.77.53 3.99 1.162 6.68 1.869 3.17.846 6 1.781 8.49 2.829 2.47 1.036 4.57 2.286 6.28 3.752 1.7 1.465 2.99 3.182 3.86 5.153.87 1.97 1.3 4.332 1.3 7.07v.176"/><path d="m421.39 74.61c0 3.107-.56 5.861-1.69 8.286-1.12 2.412-2.69 4.446-4.71 6.088s-4.42 2.892-7.21 3.751c-2.81.871-5.9 1.301-9.3 1.301-4.78 0-9.46-.821-14.06-2.463-4.59-1.642-8.77-4.155-12.54-7.566l8.15-9.763c2.88 2.337 5.82 4.193 8.82 5.557 3.03 1.377 6.31 2.059 9.9 2.059 2.86 0 5.09-.518 6.67-1.566 1.58-1.036 2.37-2.488 2.37-4.332v-.19c0-.896-.16-1.679-.5-2.374-.32-.682-.95-1.326-1.89-1.92-.92-.593-2.21-1.187-3.85-1.781-1.65-.606-3.79-1.225-6.41-1.894-3.19-.834-6.05-1.705-8.63-2.64-2.56-.922-4.75-2.084-6.54-3.486-1.81-1.402-3.2-3.145-4.18-5.242-.99-2.084-1.48-4.673-1.48-7.78v-.189c0-2.855.53-5.444 1.6-7.743 1.06-2.286 2.57-4.269 4.49-5.949 1.93-1.667 4.23-2.955 6.9-3.852 2.68-.884 5.63-1.339 8.85-1.339 4.59 0 8.81.683 12.66 2.059 3.86 1.377 7.39 3.347 10.61 5.911l-7.16 10.382c-2.8-1.907-5.54-3.41-8.23-4.521-2.69-1.099-5.37-1.655-8.06-1.655-2.68 0-4.7.518-6.04 1.566-1.35 1.049-2.02 2.35-2.02 3.89v.177c0 1.023.2 1.907.58 2.653.39.745 1.1 1.414 2.11 2.01 1.02.593 2.41 1.162 4.18 1.705 1.77.53 3.99 1.162 6.68 1.869 3.17.846 6 1.781 8.49 2.829 2.49 1.036 4.57 2.286 6.28 3.752 1.7 1.465 2.99 3.182 3.86 5.153.87 1.97 1.3 4.332 1.3 7.07v.176"/><path d="m425.07 30.477h13.79v62.66h-13.79v-62.66"/><path d="m494.99 61.813c0-2.69-.47-5.229-1.39-7.616-.93-2.387-2.24-4.471-3.94-6.265-1.71-1.78-3.7-3.208-6-4.243-2.29-1.049-4.84-1.567-7.65-1.567-2.74 0-5.28.506-7.61 1.516-2.32 1.023-4.3 2.425-5.95 4.206-1.65 1.794-2.93 3.865-3.85 6.227-.93 2.362-1.39 4.875-1.39 7.565v.177c0 2.691.46 5.217 1.39 7.604.92 2.387 2.24 4.483 3.94 6.264 1.69 1.794 3.72 3.208 6.04 4.257 2.34 1.048 4.86 1.566 7.6 1.566 2.82 0 5.36-.505 7.66-1.516 2.31-1.023 4.27-2.425 5.91-4.206 1.64-1.793 2.92-3.865 3.85-6.227.92-2.361 1.39-4.875 1.39-7.565v-.177m14.41 0c0 4.471-.83 8.664-2.5 12.567-1.68 3.916-3.99 7.351-6.95 10.307-2.95 2.955-6.46 5.279-10.56 6.984-4.08 1.692-8.55 2.539-13.38 2.539-4.84 0-9.27-.847-13.34-2.539-4.06-1.705-7.57-4-10.52-6.896-2.95-2.905-5.24-6.303-6.89-10.205-1.64-3.903-2.46-8.109-2.46-12.58v-.177c0-4.471.84-8.664 2.5-12.58 1.68-3.902 3.99-7.338 6.94-10.293 2.95-2.956 6.48-5.28 10.57-6.985s8.55-2.551 13.37-2.551c4.84 0 9.29.846 13.35 2.551s7.57 4 10.51 6.897c2.96 2.892 5.26 6.302 6.9 10.205s2.46 8.108 2.46 12.579v.177"/><path d="m556.67 93.14l-30.34-39.836v39.836h-13.62v-62.66h12.72l29.36 38.572v-38.572h13.6v62.66h-11.72"/></g></svg>