<?xml version="1.0" encoding="UTF-8" standalone="no"?>
<svg xmlns:rdf="http://www.w3.org/1999/02/22-rdf-syntax-ns#" xmlns="http://www.w3.org/2000/svg" xmlns:cc="http://creativecommons.org/ns#" xmlns:dc="http://purl.org/dc/elements/1.1/" height="84.827" width="600" version="1.1">
  <defs>
    <linearGradient id="d" gradientUnits="userSpaceOnUse" gradientTransform="matrix(0 17.395 -17.395 0 78.072 3.8812)" x1="0" x2="1" y1="0" y2="0">
      <stop stop-color="#505456" offset="0"/>
      <stop offset=".84375"/>
      <stop offset="1"/>
    </linearGradient>
    <linearGradient id="c" gradientUnits="userSpaceOnUse" gradientTransform="matrix(0 -84.815 84.815 0 322.29 84.823)" x1="0" x2="1" y1="0" y2="0">
      <stop stop-color="#881719" offset="0"/>
      <stop stop-color="#db1f2b" offset=".49479"/>
      <stop stop-color="#db1f2b" offset="1"/>
    </linearGradient>
    <linearGradient id="b" gradientUnits="userSpaceOnUse" gradientTransform="matrix(0 17.395 -17.395 0 314.43 3.8812)" x1="0" x2="1" y1="0" y2="0">
      <stop stop-color="#f37921" offset="0"/>
      <stop stop-color="#dd1f26" offset=".84375"/>
      <stop stop-color="#dd1f26" offset="1"/>
    </linearGradient>
    <linearGradient id="a" gradientUnits="userSpaceOnUse" gradientTransform="matrix(0 17.392 -17.392 0 528.16 3.8822)" x1="0" x2="1" y1="0" y2="0">
      <stop stop-color="#505456" offset="0"/>
      <stop offset=".84375"/>
      <stop offset="1"/>
    </linearGradient>
  </defs>
  <path d="m179.99 75.916c0 4.918-3.63 8.911-8.13 8.911h-163.72c-4.4934 0-8.14-3.992-8.14-8.911v-67.004c0-4.9184 3.6466-8.9016 8.1348-8.9016h163.72c4.5 0 8.14 3.9833 8.14 8.9015v67.005z"/>
  <path fill="url(#d)" d="m10.476 3.8804c-3.4692 0-6.2743 3.8897-6.2743 8.6956 0 4.806 2.8051 8.705 6.2743 8.705h135.19c3.46 0 6.28-3.899 6.28-8.705-0.18-0.542-0.84-8.6956-6.28-8.6956h-135.19z"/>
  <path fill="url(#c)" d="m145.89 0c-4.48 0-8.13 3.9926-8.13 8.9109v75.915h360.91c4.5 0 8.14-3.993 8.14-8.911l0.01-75.915h-360.93z"/>
  <path fill="url(#b)" d="m139.18 3.8804c-0.89 1.4306-1.42 3.1698-1.42 5.0305v12.37h360.3v-17.401l-358.88-0.0001z"/>
  <path fill="#ed332a" d="m46.461 50.423c0 7.172-4.675 12.389-14.184 13.418-6.882 0.729-16.831-0.131-21.571-0.673-0.159-0.776-0.29-1.739-0.29-2.506 0-6.237 3.366-7.677 6.526-7.677 3.301 0 8.491 0.58 12.333 0.58 4.255 0 5.536-1.449 5.536-2.824 0-1.795-1.702-2.524-4.993-3.17l-9.033-1.73c-7.489-1.44-11.491-6.62-11.491-12.127-0.0003-6.694 4.74-12.296 14.054-13.315 7.041-0.776 15.624 0.094 20.328 0.674 0.159 0.794 0.262 1.561 0.262 2.393 0 6.246-3.301 7.593-6.471 7.593-2.431 0-6.208-0.449-10.528-0.449-4.385 0-6.208 1.216-6.208 2.684 0 1.57 1.72 2.206 4.478 2.692l8.612 1.599c8.836 1.637 12.642 6.658 12.642 12.838m15.447 7.686c0 3.834-1.505 6.05-8.995 6.05-0.991 0-1.851-0.075-2.683-0.196v-50.894c0-3.8808 1.309-7.9108 8.864-7.9108 0.963 0 1.916 0.0936 2.814 0.2899v52.661zm30.622 19.682c0.991 0.515 3.011 1.122 5.535 1.188 4.353 0.093 6.723-1.571 8.493-5.479l23.33-52.044c-0.96-0.515-3.1-1.094-4.83-1.122-3.01-0.066-7.05 0.542-9.61 6.685l-7.55 17.832-14.832-24.133c-0.954-0.29-3.301-0.711-4.994-0.711-5.245 0-8.162 1.927-11.202 5.218l-14.409 15.755 11.585 18.243c2.151 3.329 4.965 5.03 9.547 5.03 3.011 0 5.507-0.701 6.658-1.243l-13.96-21.038 9.893-10.5 16.234 25.479-9.895 20.842z"/>
  <g fill="#fff">
    <path d="m185.31 57.064c-1.1 1.188-2.25 2.253-3.43 3.188-1.19 0.945-2.48 1.749-3.9 2.432-1.41 0.673-2.96 1.178-4.63 1.533-1.68 0.346-3.57 0.524-5.65 0.524-3.15 0-6.08-0.58-8.77-1.721-2.7-1.15-5.04-2.711-7.01-4.694-1.96-1.982-3.49-4.329-4.6-7.031-1.1-2.702-1.65-5.582-1.65-8.649v-0.131c0-3.067 0.55-5.938 1.65-8.621 1.11-2.674 2.64-5.031 4.6-7.06 1.97-2.019 4.32-3.618 7.06-4.787 2.74-1.159 5.77-1.749 9.09-1.749 2.04 0 3.88 0.169 5.52 0.496s3.13 0.776 4.49 1.346c1.34 0.58 2.59 1.272 3.74 2.085 1.14 0.823 2.2 1.721 3.19 2.703l-6.02 6.938c-1.68-1.515-3.38-2.703-5.12-3.563s-3.69-1.29-5.86-1.29c-1.81 0-3.47 0.355-5.01 1.047-1.53 0.692-2.85 1.655-3.95 2.88-1.1 1.234-1.96 2.655-2.58 4.273-0.61 1.618-0.92 3.338-0.92 5.18v0.122c0 1.842 0.31 3.581 0.92 5.217 0.62 1.636 1.46 3.076 2.54 4.301 1.09 1.225 2.4 2.198 3.93 2.918 1.54 0.71 3.23 1.066 5.07 1.066 2.46 0 4.53-0.459 6.22-1.375 1.71-0.926 3.39-2.141 5.07-3.656l6.01 6.078z"/>
    <path d="m187.16 21.038h9.46v42.955h-9.46v-42.955z"/>
    <path d="m231.34 63.998-20.8-27.312v27.312h-9.33v-42.955h8.71l20.13 26.443v-26.443h9.34v42.955h-8.05z"/>
    <path d="m243.55 63.998v-42.955h32.35v8.406h-23.02v8.715h20.26v8.406h-20.26v9.023h23.33v8.406h-32.66z"/>
    <path d="m313.4 63.998v-28.042l-12.14 18.345h-0.25l-11.91-18.168v27.864h-9.33v-42.955h10.19l11.29 18.158 11.29-18.158h10.2v42.955h-9.33z"/>
    <path d="m345.86 32.086-5.7 13.932h11.42l-5.72-13.932zm13.02 31.913-3.93-9.64h-18.16l-3.93 9.64h-9.64l18.41-43.264h8.71l18.41 43.264h-9.87z"/>
    <path d="m387.93 27.378h8.67v10.931h11.06v8.49h-11.06v10.987h-8.67v-10.987h-11.05v-8.49h11.05v-10.931z"/>
    <path d="m424.57 29.21c-1.66 0-3.14 0.468-4.42 1.403s-2.72 2.384-4.31 4.338l-6.59-5.311c1.06-1.44 2.12-2.702 3.21-3.815 1.07-1.103 2.23-2.038 3.48-2.795 1.24-0.758 2.61-1.338 4.12-1.721 1.5-0.393 3.22-0.589 5.12-0.589 2.28 0 4.33 0.318 6.15 0.944 1.8 0.636 3.35 1.534 4.63 2.693 1.28 1.16 2.27 2.553 2.93 4.18 0.67 1.627 1.01 3.441 1.01 5.432 0 1.796-0.23 3.395-0.7 4.797-0.47 1.403-1.16 2.74-2.08 4.002-0.91 1.262-2.07 2.515-3.48 3.759-1.4 1.234-3.06 2.59-4.97 4.058l-6.97 5.376h18.63v8.116h-31.63v-7.433l14.23-11.641c1.34-1.104 2.48-2.085 3.42-2.964 0.94-0.87 1.69-1.702 2.28-2.497s1.02-1.561 1.29-2.319c0.27-0.748 0.4-1.571 0.4-2.468 0-1.824-0.54-3.207-1.59-4.142-1.06-0.936-2.44-1.403-4.16-1.403"/>
    <path d="m461.95 33.913-11.36 13.315h11.36v-13.315zm8.98-12.885v26.2h5.74v7.63h-5.74v9.219h-8.98v-9.219h-20.87l-1.54-6.658 23.45-27.172h7.94z"/>
  </g>
  <path d="m599.94 75.918c0 4.918-3.63 8.902-8.13 8.902h-106.14v-76c0-4.9094 3.7-8.8459 8.2-8.8085h106.13l-0.06 75.906z"/>
  <path fill="url(#a)" d="m487.07 3.8804c-0.87 1.4119-1.39 3.1043-1.39 4.9463v12.455h109.9v-17.401l-108.51-0.0003z"/>
  <path fill="#fff" d="m528.12 63.944v-18.654h-23.28v18.654h-10.1v-43.199h10.1v17.681h23.28v-17.681h10.1v43.199h-10.1z"/>
  <path fill="#fff" d="m565.68 27.546h-10.69v29.538h10.79c11.47 0 14.97-0.458 14.97-14.708s-3.59-14.83-15.07-14.83m21.48 30.576c-4.1 4.591-10.25 5.825-20.87 5.825h-21.22v-43.208h21.13c10.61 0 16.78 1.3 20.89 5.9 2.99 3.376 3.77 7.247 3.77 15.737 0 8.481-0.69 12.37-3.7 15.746"/>
</svg>
