<svg xmlns="http://www.w3.org/2000/svg" viewBox="0 0 600 139.59"><defs><linearGradient id="0" gradientUnits="userSpaceOnUse" gradientTransform="matrix(0 28.626-13.749 0 408.08 6.384)" x1="0" x2="1"><stop stop-color="#f37921"/><stop stop-color="#dd1f26" offset=".844"/><stop stop-color="#dd1f26" offset="1"/></linearGradient><linearGradient id="1" gradientUnits="userSpaceOnUse" gradientTransform="matrix(0-139.58 66.789 0 413.34 139.59)" x1="0" x2="1"><stop stop-color="#881719"/><stop stop-color="#db1f2b" offset=".495"/><stop stop-color="#db1f2b" offset="1"/></linearGradient><linearGradient id="2" gradientUnits="userSpaceOnUse" x2="0" y1="6.384" y2="35.01"><stop stop-color="#505456"/><stop offset=".844"/><stop offset="1"/></linearGradient></defs><path d="m296.19 124.93c0 8.09-6 14.66-13.39 14.66h-269.42c-7.397 0-13.38-6.57-13.38-14.66v-110.26c0-8.103 5.983-14.67 13.376-14.67h269.41c7.4 0 13.4 6.567 13.4 14.672v110.26z"/><path fill="url(#2)" d="m17.222 6.378c-5.698 0-10.328 6.41-10.328 14.316 0 7.906 4.63 14.317 10.328 14.317h222.45c5.71 0 10.34-6.411 10.34-14.317-.21-.655-1.75-14.316-10.34-14.316h-222.45"/><path fill="url(#1)" d="m233.08.001c-3.53 0-6.4 6.567-6.4 14.658v124.91h366.91c3.54 0 6.41-6.55 6.41-14.64v-124.93h-366.93z"/><path fill="url(#0)" d="m227.8 6.378c-.71 2.365-1.12 5.214-1.12 8.291v20.342h368.3v-28.633h-367.18"/><path d="m76.45 82.986c0 11.795-7.692 20.384-23.332 22.08-11.325 1.19-27.693-.22-35.498-1.13-.257-1.25-.47-2.83-.47-4.102 0-10.271 5.527-12.635 10.74-12.635 5.428 0 13.961.94 20.285.94 6.994 0 9.117-2.365 9.117-4.63 0-2.949-2.807-4.159-8.22-5.214l-14.859-2.849c-12.336-2.364-18.903-10.897-18.903-19.956 0-11.01 7.777-20.229 23.11-21.909 11.595-1.268 25.713.157 33.447 1.111.271 1.311.428 2.579.428 3.946 0 10.271-5.428 12.479-10.641 12.479-4 0-10.214-.727-17.322-.727-7.222 0-10.213 1.994-10.213 4.416 0 2.578 2.834 3.633 7.364 4.416l14.174 2.635c14.53 2.693 20.797 10.955 20.797 21.13m25.41 12.635c0 6.328-2.461 9.958-14.782 9.958-1.638 0-3.063-.1-4.43-.31v-83.75c0-6.367 2.165-13.01 14.587-13.01 1.581 0 3.165.156 4.625.47v86.64zm50.39 32.408c1.64.83 4.96 1.84 9.11 1.94 7.17.15 11.06-2.58 13.97-9.01l38.39-85.64c-1.59-.84-5.12-1.795-7.95-1.837-4.96-.114-11.6.883-15.82 10.997l-12.42 29.344-24.4-39.716c-1.56-.47-5.41-1.153-8.2-1.153-8.64 0-13.44 3.162-18.44 8.575l-23.71 25.911 19.06 30.03c3.54 5.485 8.17 8.265 15.69 8.265 4.96 0 9.06-1.16 10.96-2.05l-22.97-34.605 16.27-17.28 26.72 41.924-16.28 34.3z" fill="#ed332a"/><g fill="#fff"><path d="m255.01 48.593v15.228h33.69v14.03h-33.69v27.338h-15.54v-70.61h53.77v14.02h-38.23z"/><path d="m326.72 52.738l-9.39 22.892h18.78l-9.39-22.892m21.41 52.45l-6.47-15.841h-29.85l-6.46 15.841h-15.84l30.27-71.13h14.32l30.27 71.13h-16.24"/><path d="m420.47 105.19v-46.11l-19.97 30.17h-.42l-19.57-29.858v45.797h-15.33v-70.63h16.75l18.57 29.872 18.56-29.872h16.75v70.63h-15.34"/><path d="m443.36 34.568h15.55v70.63h-15.55v-70.63"/><path d="m466.47 105.19v-70.63h15.54v56.61h35.2v14.02h-50.74"/><path d="m554.24 77.04v28.15h-15.54v-27.848l-27.14-42.778h18.17l16.85 28.348 17.15-28.348h17.65l-27.14 42.479"/></g></svg>