<svg xmlns="http://www.w3.org/2000/svg" viewBox="0 0 600 126.52"><defs><linearGradient id="0" gradientUnits="userSpaceOnUse" gradientTransform="matrix(0 25.945-13.027 0 398.07 5.776)" x1="0" x2="1"><stop stop-color="#f37921"/><stop stop-color="#dd1f26" offset=".844"/><stop stop-color="#dd1f26" offset="1"/></linearGradient><linearGradient id="1" gradientUnits="userSpaceOnUse" gradientTransform="matrix(0-126.51 64.25 0 402.73 126.51)" x1="0" x2="1"><stop stop-color="#881719"/><stop stop-color="#db1f2b" offset=".495"/><stop stop-color="#db1f2b" offset="1"/></linearGradient><linearGradient id="2" gradientUnits="userSpaceOnUse" x2="0" y1="5.776" y2="31.721"><stop stop-color="#505456"/><stop offset=".844"/><stop offset="1"/></linearGradient></defs><path d="m268.45 113.22c0 7.34-5.43 13.29-12.14 13.29h-244.17c-6.704 0-12.14-5.95-12.14-13.29v-99.93c0-7.346 5.436-13.286 12.138-13.286h244.17c6.7 0 12.14 5.94 12.14 13.286v99.93z"/><path fill="url(#2)" d="m15.623 5.772c-5.178 0-9.374 5.811-9.374 12.977 0 7.166 4.197 12.964 9.374 12.964h201.62c5.17 0 9.36-5.798 9.36-12.964-.2-.607-1.6-12.977-9.37-12.977h-201.62z"/><path fill="url(#1)" d="m211.62 0c-3.4 0-6.16 5.953-6.16 13.286v113.23h388.38c3.41 0 6.16-5.96 6.16-13.3v-113.22h-388.38z"/><path fill="url(#0)" d="m206.53 5.772c-.68 2.143-1.07 4.726-1.07 7.515v18.426h390.06v-25.941h-388.99"/><path d="m69.31 75.828c0 10.691-6.972 18.477-21.15 20-10.253 1.097-25.09-.194-32.17-1.01-.232-1.149-.426-2.569-.426-3.718 0-9.31 5.01-11.454 9.736-11.454 4.92 0 12.655.852 18.375.852 6.353 0 8.264-2.143 8.264-4.196 0-2.673-2.531-3.771-7.45-4.726l-13.456-2.57c-11.168-2.157-17.13-9.892-17.13-18.09 0-9.981 7.06-18.322 20.945-19.86 10.498-1.136 23.294.142 30.31 1.01.246 1.188.388 2.337.388 3.577 0 9.31-4.92 11.311-9.633 11.311-3.641 0-9.271-.671-15.714-.671-6.534 0-9.259 1.808-9.259 4 0 2.35 2.583 3.305 6.689 4.02l12.835 2.389c13.171 2.428 18.852 9.93 18.852 19.14m23.04 11.454c0 5.733-2.247 9.03-13.416 9.03-1.472 0-2.763-.104-4-.297v-75.887c0-5.759 1.949-11.789 13.222-11.789 1.433 0 2.854.142 4.197.439v78.51zm45.648 29.36c1.48.75 4.49 1.67 8.26 1.76 6.5.14 10.02-2.34 12.66-8.16l34.78-77.61c-1.43-.762-4.62-1.627-7.2-1.666-4.48-.103-10.5.8-14.32 9.968l-11.26 26.587-22.11-35.987c-1.43-.426-4.92-1.046-7.44-1.046-7.83 0-12.17 2.867-16.7 7.773l-21.495 23.489 17.265 27.19c3.22 4.971 7.41 7.502 14.23 7.502 4.49 0 8.21-1.046 9.93-1.86l-20.82-31.364 14.77-15.649 24.19 37.988-14.75 31.08z" fill="#ed332a"/><g fill="#fff"><path d="m276.29 84.84c-1.64 1.769-3.35 3.357-5.12 4.765-1.77 1.394-3.71 2.595-5.81 3.615-2.11.995-4.41 1.756-6.91 2.286-2.51.516-5.31.775-8.42.775-4.7 0-9.06-.853-13.09-2.57-4.02-1.704-7.51-4.03-10.44-6.998-2.91-2.957-5.21-6.457-6.85-10.472-1.66-4.03-2.48-8.329-2.48-12.913v-.181c0-4.571.82-8.858 2.48-12.861 1.64-3.989 3.94-7.502 6.85-10.523 2.93-3.02 6.45-5.398 10.54-7.128 4.08-1.743 8.6-2.608 13.53-2.608 3.06 0 5.8.232 8.24.723 2.44.49 4.67 1.162 6.69 2.01 2.01.852 3.87 1.898 5.58 3.112 1.7 1.227 3.29 2.569 4.76 4.03l-8.97 10.343c-2.51-2.259-5.05-4.03-7.65-5.307-2.59-1.278-5.5-1.924-8.74-1.924-2.68 0-5.16.517-7.45 1.563-2.3 1.033-4.26 2.466-5.9 4.3-1.65 1.82-2.93 3.951-3.85 6.353-.91 2.414-1.37 4.997-1.37 7.734v.181c0 2.75.46 5.346 1.37 7.786.92 2.441 2.18 4.571 3.8 6.405 1.61 1.833 3.58 3.28 5.86 4.339 2.29 1.071 4.8 1.601 7.54 1.601 3.67 0 6.77-.685 9.3-2.053 2.53-1.369 5.05-3.19 7.55-5.449l8.96 9.06"/><path d="m328.9 63.15c0-2.75-.47-5.332-1.42-7.773-.94-2.44-2.28-4.584-4.03-6.417-1.73-1.821-3.78-3.28-6.13-4.339-2.35-1.072-4.96-1.601-7.82-1.601-2.81 0-5.4.516-7.78 1.549-2.37 1.046-4.4 2.48-6.08 4.3-1.68 1.834-3 3.951-3.94 6.366s-1.42 4.984-1.42 7.735v.181c0 2.75.48 5.332 1.42 7.773s2.29 4.584 4.03 6.417c1.73 1.821 3.8 3.28 6.17 4.339 2.38 1.072 4.97 1.601 7.79 1.601 2.87 0 5.47-.516 7.82-1.549 2.34-1.046 4.36-2.48 6.03-4.3 1.68-1.834 3-3.951 3.94-6.366.95-2.415 1.42-4.984 1.42-7.735v-.181m14.74 0c0 4.572-.86 8.858-2.56 12.861-1.72 3.99-4.08 7.503-7.1 10.524-3.02 3.02-6.61 5.398-10.8 7.141-4.18 1.73-8.74 2.608-13.68 2.608s-9.48-.878-13.64-2.608c-4.14-1.744-7.73-4.094-10.74-7.05-3.02-2.957-5.37-6.443-7.05-10.433s-2.52-8.277-2.52-12.861v-.181c0-4.571.85-8.858 2.56-12.86 1.71-3.99 4.08-7.503 7.1-10.524 3.01-3.02 6.61-5.398 10.79-7.141 4.17-1.73 8.74-2.608 13.69-2.608 4.93 0 9.48.878 13.64 2.608 4.14 1.743 7.72 4.094 10.74 7.05s5.37 6.443 7.05 10.433 2.52 8.277 2.52 12.861v.18"/><path d="m397.17 95.19v-41.824l-18.11 27.361h-.38l-17.75-27.09v41.552h-13.91v-64.06h15.2l16.84 27.09 16.83-27.09h15.19v64.06h-13.91z"/><path d="m417.31 95.19v-64.06h48.23v12.538h-34.32v12.99h30.2v12.538h-30.2v13.454h34.78v12.538h-48.69"/><path d="m513.77 63.15c0-2.866-.45-5.474-1.37-7.825-.92-2.35-2.23-4.377-3.94-6.081-1.7-1.718-3.76-3.035-6.13-3.99-2.38-.943-5-1.421-7.87-1.421h-10.89v38.622h10.89c2.87 0 5.49-.451 7.87-1.368 2.37-.917 4.43-2.221 6.13-3.939 1.71-1.704 3.02-3.731 3.94-6.082.92-2.35 1.37-4.919 1.37-7.734v-.181zm14.73 0c0 4.52-.83 8.729-2.46 12.629-1.66 3.9-3.98 7.296-7 10.162-3.03 2.867-6.61 5.126-10.76 6.766-4.16 1.653-8.75 2.48-13.82 2.48h-24.98v-64.07h24.98c5.07 0 9.66.813 13.82 2.428 4.15 1.614 7.73 3.86 10.76 6.727 3.02 2.867 5.34 6.237 7 10.11 1.63 3.874 2.46 8.07 2.46 12.59v.181"/><path d="m559.02 69.65v25.541h-14.1v-25.27l-24.61-38.802h16.48l15.27 25.721 15.56-25.721h16.01l-24.61 38.532"/></g></svg>