<svg xmlns="http://www.w3.org/2000/svg" height="94.21" width="600" viewBox="0 0 158.75 24.927118"><defs><linearGradient id="0" gradientUnits="userSpaceOnUse" x2="0" y1="24.19" y2=".738"><stop stop-color="#5a252a"/><stop stop-color="#cb082a" offset=".074"/><stop stop-color="#cb082a" offset=".916"/><stop stop-color="#e73440" offset="1"/></linearGradient><linearGradient id="1" gradientUnits="userSpaceOnUse" x2="0" y1="2.075" y2="92.2"><stop stop-color="#141c4b"/><stop stop-color="#1a2b68" offset=".036"/><stop stop-color="#1a2b68" offset=".895"/><stop stop-color="#141c4b" offset="1"/></linearGradient></defs><g stroke-width="7.861"><path d="m3.413.736c-1.847 0-2.504 1.092-2.504 2.908v17.636c0 1.816.657 2.908 2.504 2.908h151.8c1.84 0 2.51-1.092 2.51-2.908v-17.636c0-1.816-.67-2.908-2.51-2.908-50.6 0-101.2 0-151.8 0" fill="url(#1)"/><path d="m3.583 0c-2.745 0-3.584 1.706-3.584 3.411v18.1c0 1.709.838 3.414 3.582 3.414h151.59c2.75 0 3.58-1.705 3.58-3.413v-18.1c0-1.706-.83-3.412-3.58-3.412h-151.59zm.126.229h151.33c1.86 0 3.1 1.09 3.1 2.908v18.654c0 1.816-1.24 2.908-3.1 2.908h-151.33c-1.847 0-3.098-1.092-3.098-2.908v-18.654c0-1.818 1.25-2.908 3.098-2.908" fill="#a1a19e"/></g><path stroke-width="2.08" fill="url(#0)" d="m44.26 24.19h87.62v-23.452h-87.62z"/><g fill="#fff"><g stroke-width="2.08"><path d="m16 14.708c0 2.01-1.312 3.474-3.979 3.765-1.93.205-4.728-.037-6.05-.19-.05-.218-.087-.486-.087-.699 0-1.757.951-2.158 1.839-2.158.924 0 2.38.16 3.463.16 1.188 0 1.552-.404 1.552-.788 0-.504-.481-.714-1.404-.891l-2.53-.487c-2.105-.401-3.228-1.857-3.228-3.402 0-1.879 1.329-3.451 3.944-3.74 1.976-.214 4.382.027 5.703.189.048.227.073.441.073.676 0 1.751-.924 2.13-1.814 2.13-.684 0-1.745-.129-2.955-.129-1.234 0-1.746.341-1.746.757 0 .439.487.62 1.261.755l2.417.448c2.481.459 3.546 1.869 3.546 3.604m4.339 2.155c0 1.078-.424 1.699-2.525 1.699-.278 0-.522-.021-.755-.053v-14.289c0-1.083.368-2.215 2.492-2.215.266 0 .536.027.788.079zm8.593 5.526c.274.142.842.312 1.554.333 1.221.026 1.886-.442 2.379-1.534l6.551-14.611c-.271-.146-.868-.308-1.359-.318-.842-.017-1.972.156-2.696 1.88l-2.119 5.01-4.16-6.777c-.269-.081-.924-.2-1.404-.2-1.466 0-2.288.541-3.141 1.464l-4.04 4.424 3.254 5.12c.6.933 1.393 1.408 2.681 1.408.84 0 1.541-.192 1.865-.346l-3.916-5.908 2.775-2.938 4.555 7.146z"/><path d="m82.02 19.09c-.422 0-.765-.022-1.029-.111-.265-.092-.468-.205-.612-.363s-.287-.345-.339-.571c-.054-.228-.126-.463-.126-.718v-11.36c0-.436.182-.809.453-1.119.272-.308.807-.464 1.562-.464.316 0 .709.014 1.017.046.31.029.536.067.859.112v11.306h7.095c.031.323.064.384.102.626.037.24.058.515.058.833 0 .708-.147 1.167-.443 1.423-.293.256-.697.36-1.208.36z"/><path d="m108.73 19.224c-.32 0-.64-.014-.94-.046-.32-.03-.58-.066-.79-.112v-13.1c0-.437.14-.812.41-1.119.27-.31.78-.464 1.54-.464.31 0 .63.015.94.044.3.031.57.069.78.114v13.1c0 .436-.14.808-.4 1.118-.28.31-.79.465-1.54.465"/><path d="m119.98 19.411c2.29 0 4.05-.545 5.29-1.652 1.25-1.094 1.88-3.049 1.88-5.834-.02-2.742-.65-4.659-1.94-5.793-1.29-1.104-3.02-1.675-5.23-1.675-2.19 0-3.93.57-5.21 1.675-1.29 1.134-1.92 3.051-1.94 5.793 0 2.785.63 4.74 1.86 5.834 1.25 1.107 3.02 1.652 5.29 1.652m3.51-7.486c0 1.674-.28 2.85-.85 3.544-.54.718-1.43 1.045-2.66 1.045-1.23-.019-2.13-.368-2.7-1.045-.55-.673-.84-1.844-.84-3.544 0-1.679.31-2.852.87-3.53.57-.697 1.45-1.019 2.67-1.019 1.23 0 2.1.322 2.66 1.019.57.678.85 1.851.85 3.53"/><path d="m73.14 12.717l-1.434-4.52c-.179-.609-.528-.582-1.194-.51l-1.534 5.03zm-9.877 6.275l4.716-14.326c4.106-.774 6.23-.092 6.798 1.732l3.958 12.386c-.944.757-3.546.539-3.817-.271l-.821-2.603h-6.06l-.69 2.259c-.432 1.055-1.534 1.433-4.085.823"/><path d="m61.995 4.907c-1.065-.243-2.35-.668-4.99-.668-4.694 0-8.334 3.245-8.334 7.51 0 4.213 3.386 7.602 8.334 7.602 3.329 0 5.118-.67 5.118-.67 0-1.029-.022-2.847-1.507-2.847-.724 0-1.019.265-3.172.265-1.992 0-4.815-1.289-4.815-4.337 0-2.441 2.138-4.239 4.815-4.239 1.7 0 2.115.26 3.01.26 1.352 0 1.667-1.421 1.539-2.877"/><path d="m104.51 4.907c-1.07-.243-2.35-.668-4.995-.668-4.694 0-8.335 3.245-8.335 7.51 0 4.213 3.387 7.602 8.335 7.602 3.325 0 5.115-.67 5.115-.67 0-1.029-.02-2.847-1.5-2.847-.73 0-1.02.265-3.175.265-1.993 0-4.816-1.289-4.816-4.337 0-2.441 2.139-4.239 4.816-4.239 1.695 0 2.115.26 3.02.26 1.35 0 1.66-1.421 1.54-2.877"/></g><path opacity=".4" d="m155.41 18.787c1.51 1.575 1.71 3.06 1.77 3.386.15 0 .2-.696.2-1.734l-.001-16.649c0-1.928-.59-2.579-2.14-2.579-.51 0-1.04.297-1.74.297h-148.5c-.696 0-1.22-.297-1.744-.297-1.544 0-2.139.651-2.139 2.579l-.006 16.648c0 1.038.055 1.735.203 1.735.053-.327.099-1.928 1.763-3.386 13.29-10.833 138.01-14.157 152.34 0" stroke-width="2.024"/><path d="m142.58 13.13h2.98v-4.336zm4.49 6.28c-.28 0-.55-.021-.84-.059-.29-.037-.51-.073-.67-.104v-2.99h-6.65c-.03-.167-.06-.383-.1-.649-.04-.268-.06-.55-.06-.857 0-.379.06-.752.19-1.118.14-.366.34-.747.63-1.142l5.52-8.03h3.96v8.674h2.15c.04.168.06.384.11.652.04.266.05.544.05.832 0 .639-.12 1.076-.39 1.313-.25.234-.58.354-.98.354h-.94v1.985c0 .396-.13.685-.41.869-.26.182-.8.275-1.57.275" stroke-width="2.575"/></g></svg>