<svg xmlns="http://www.w3.org/2000/svg" viewBox="0 0 600 134.53"><defs><linearGradient id="0" gradientUnits="userSpaceOnUse" gradientTransform="matrix(0 27.588-23.878 0 402.16 6.145)" x1="0" x2="1"><stop stop-color="#f37921"/><stop stop-color="#dd1f26" offset=".844"/><stop stop-color="#dd1f26" offset="1"/></linearGradient><linearGradient id="1" gradientUnits="userSpaceOnUse" gradientTransform="matrix(0-134.52 110.76 0 409.2 134.52)" x1="0" x2="1"><stop stop-color="#881719"/><stop stop-color="#db1f2b" offset=".495"/><stop stop-color="#db1f2b" offset="1"/></linearGradient><linearGradient id="2" gradientUnits="userSpaceOnUse" x2="0" y1="6.147" y2="33.734"><stop stop-color="#505356"/><stop offset=".844"/><stop offset="1"/></linearGradient></defs><path d="m285.41 120.39c0 7.8-5.77 14.14-12.9 14.14h-259.61c-7.129 0-12.9-6.34-12.9-14.14v-106.26c0-7.808 5.771-14.13 12.9-14.13h259.61c7.13 0 12.9 6.322 12.9 14.12v106.26z"/><path fill="url(#2)" d="m16.612 6.15c-5.506 0-9.958 6.18-9.958 13.783 0 7.632 4.452 13.801 9.958 13.801h214.35c5.5 0 9.96-6.171 9.96-13.801-.42-1.253-.17-13.783-9.96-13.783h-214.35"/><path fill="url(#1)" d="m229.06.009c-5.86 0-10.62 6.322-10.62 14.12v120.4h370.93c5.87 0 10.63-6.33 10.63-14.12v-120.39h-370.94z"/><path fill="url(#0)" d="m220.38 6.15c-1.25 2.269-1.96 5.01-1.96 7.974v19.611h377.01v-27.586h-375.05"/><path fill="#ed332a" d="m73.69 79.956c0 11.373-7.414 19.64-22.488 21.274-10.907 1.17-26.693-.21-34.21-1.07-.247-1.219-.455-2.748-.455-3.962 0-9.891 5.325-12.179 10.355-12.179 5.231 0 13.451.912 19.545.912 6.75 0 8.781-2.288 8.781-4.462 0-2.848-2.696-4.02-7.917-5.03l-14.315-2.743c-11.884-2.278-18.225-10.51-18.225-19.231 0-10.614 7.509-19.497 22.279-21.12 11.172-1.214 24.766.152 32.24 1.074.247 1.262.409 2.476.409 3.805 0 9.891-5.231 12.03-10.252 12.03-3.864 0-9.854-.713-16.706-.713-6.948 0-9.845 1.927-9.845 4.263 0 2.486 2.735 3.502 7.101 4.261l13.66 2.544c14.01 2.583 20.05 10.556 20.05 20.353m24.5 12.179c0 6.094-2.392 9.593-14.268 9.593-1.575 0-2.941-.1-4.261-.3v-80.7c0-6.142 2.079-12.539 14.06-12.539 1.528 0 3.047.152 4.471.455v83.5zm48.543 31.22c1.58.8 4.77 1.77 8.78 1.88 6.92.15 10.68-2.49 13.46-8.69l36.99-82.53c-1.52-.817-4.92-1.728-7.66-1.775-4.77-.104-11.17.854-15.23 10.603l-11.98 28.27-23.49-38.27c-1.52-.455-5.24-1.12-7.92-1.12-8.32 0-12.94 3.048-17.76 8.269l-22.846 24.974 18.376 28.941c3.41 5.279 7.87 7.969 15.12 7.969 4.78 0 8.74-1.12 10.57-1.979l-22.14-33.36 15.69-16.65 25.74 40.41-15.68 33.05z"/><g fill="#fff"><path d="m293.65 90.41c-1.76 1.888-3.58 3.569-5.46 5.059s-3.95 2.771-6.17 3.845c-2.24 1.072-4.7 1.882-7.34 2.432-2.68.55-5.66.82-8.97.82-4.99 0-9.62-.9-13.91-2.72-4.29-1.814-7.98-4.291-11.09-7.443-3.11-3.142-5.55-6.864-7.31-11.135-1.75-4.29-2.63-8.865-2.63-13.726v-.199c0-4.86.88-9.417 2.63-13.669 1.76-4.253 4.2-7.983 7.31-11.191 3.11-3.209 6.84-5.744 11.19-7.594 4.34-1.852 9.14-2.772 14.4-2.772 3.25 0 6.16.257 8.76.779 2.59.521 4.96 1.233 7.1 2.145 2.15.91 4.13 2.01 5.94 3.303 1.82 1.3 3.49 2.724 5.07 4.281l-9.54 11c-2.67-2.402-5.38-4.281-8.13-5.648-2.77-1.358-5.85-2.041-9.29-2.041-2.87 0-5.51.55-7.94 1.652-2.43 1.11-4.52 2.629-6.28 4.575-1.74 1.945-3.11 4.204-4.08 6.768-.98 2.553-1.46 5.297-1.46 8.22v.19c0 2.924.48 5.676 1.46 8.278.97 2.591 2.31 4.859 4.04 6.806 1.71 1.956 3.8 3.492 6.22 4.631 2.43 1.131 5.12 1.7 8.04 1.7 3.89 0 7.18-.731 9.87-2.193 2.7-1.461 5.37-3.389 8.03-5.79l9.54 9.635"/><path d="m296.57 33.29h14.98v68.12h-14.98v-68.12"/><path d="m366.64 101.41l-32.99-43.31v43.31h-14.79v-68.12h13.81l31.93 41.937v-41.937h14.79v68.12h-12.75"/><path d="m386.01 101.41v-68.12h51.27v13.327h-36.48v13.82h32.11v13.327h-32.11v14.305h36.98v13.339h-51.77"/><path d="m496.75 101.41v-44.48l-19.28 29.1h-.38l-18.89-28.8v44.18h-14.79v-68.12h16.16l17.9 28.799 17.91-28.799h16.16v68.12h-14.79"/><path d="m548.23 50.808l-9.06 22.09h18.11l-9.05-22.09m20.62 50.602l-6.23-15.283h-28.81l-6.21 15.283h-15.28l29.18-68.61h13.83l29.2 68.61h-15.68"/></g></svg>