<svg xmlns="http://www.w3.org/2000/svg" viewBox="0 0 600 120.05"><defs><linearGradient id="0" gradientUnits="userSpaceOnUse" gradientTransform="matrix(0 24.619-12.977 0 393.12 5.491)" x1="0" x2="1"><stop stop-color="#f37921"/><stop stop-color="#dd1f26" offset=".844"/><stop stop-color="#dd1f26" offset="1"/></linearGradient><linearGradient id="1" gradientUnits="userSpaceOnUse" gradientTransform="matrix(0-120.05 62.881 0 397.48 120.05)" x1="0" x2="1"><stop stop-color="#881719"/><stop stop-color="#db1f2b" offset=".495"/><stop stop-color="#db1f2b" offset="1"/></linearGradient><linearGradient id="2" gradientUnits="userSpaceOnUse" x2="0" y1="5.491" y2="30.11"><stop stop-color="#505456"/><stop offset=".844"/><stop offset="1"/></linearGradient></defs><path d="m254.74 107.45c0 6.95-5.16 12.6-11.52 12.6h-231.7c-6.363 0-11.52-5.65-11.52-12.6v-94.83c0-6.971 5.157-12.621 11.519-12.621h231.7c6.36 0 11.52 5.649 11.52 12.621v94.83z"/><path fill="url(#2)" d="m14.831 5.492c-4.911 0-8.889 5.507-8.889 12.31 0 6.802 3.978 12.309 8.889 12.309h191.31c4.91 0 8.89-5.507 8.89-12.309-.19-.571-1.52-12.31-8.89-12.31h-191.31"/><path fill="url(#1)" d="m201 .011c-3.33 0-6.03 5.637-6.03 12.608v107.43h399c3.34 0 6.03-5.64 6.03-12.59v-107.45h-399z"/><path fill="url(#0)" d="m196.03 5.492c-.66 2.02-1.06 4.47-1.06 7.126v17.493h401.48v-24.619h-400.42"/><path d="m65.763 71.37c0 10.146-6.609 17.531-20.07 18.983-9.731 1.037-23.817-.18-30.528-.958-.221-1.088-.403-2.437-.403-3.525 0-8.837 4.756-10.871 9.239-10.871 4.665 0 11.999.816 17.442.816 6.02 0 7.839-2.034 7.839-3.991 0-2.527-2.41-3.576-7.08-4.483l-12.764-2.449c-10.613-2.035-16.263-9.382-16.263-17.16 0-9.472 6.699-17.402 19.877-18.854 9.965-1.088 22.11.13 28.767.959.22 1.128.363 2.216.363 3.395 0 8.824-4.665 10.729-9.149 10.729-3.446 0-8.798-.635-14.901-.635-6.207 0-8.786 1.724-8.786 3.81 0 2.216 2.436 3.123 6.337 3.796l12.193 2.268c12.491 2.307 17.882 9.42 17.882 18.17m21.86 10.872c0 5.442-2.125 8.565-12.724 8.565-1.4 0-2.631-.091-3.797-.272v-72.03c0-5.468 1.853-11.182 12.543-11.182 1.361 0 2.709.129 3.978.414v74.51zm43.33 27.857c1.4.73 4.25 1.58 7.84 1.67 6.16.13 9.51-2.21 12-7.75l33.02-73.65c-1.35-.713-4.38-1.542-6.83-1.581-4.27-.091-9.97.764-13.6 9.472l-10.69 25.23-20.97-34.16c-1.35-.402-4.67-.998-7.07-.998-7.42 0-11.54 2.722-15.84 7.386l-20.399 22.288 16.409 25.812c3.03 4.717 7.02 7.114 13.5 7.114 4.25 0 7.79-.985 9.42-1.762l-19.74-29.765 13.99-14.85 22.96 36.05-14 29.491" fill="#ed332a"/><g fill="#fff"><path d="m219.33 41.792v13.1h28.97v12.06h-28.97v23.518h-13.36v-60.746h46.24v12.06h-32.88"/><path d="m281 45.36l-8.08 19.695h16.15l-8.07-19.695m18.41 45.11l-5.56-13.619h-25.68l-5.55 13.619h-13.63l26.03-61.16h12.33l26.03 61.16h-13.97"/><path d="m361.62 90.47v-39.651l-17.18 25.942h-.35l-16.83-25.682v39.39h-13.19v-60.733h14.41l15.96 25.683 15.97-25.683h14.4v60.733h-13.19"/><path d="m381.32 29.736h13.36v60.733h-13.36v-60.733"/><path d="m401.2 90.47v-60.733h13.36v48.669h30.28v12.06h-43.64"/><path d="m476.68 66.26v24.2h-13.36v-23.946l-23.35-36.787h15.63l14.48 24.387 14.76-24.387h15.17l-23.33 36.528"/><path d="m519.7 39h12.23v15.421h15.59v11.973h-15.59v15.497h-12.23v-15.497h-15.59v-11.973h15.59v-15.421"/><path d="m564.15 30.04h9.04v60.719h-13.1v-47.28l-10.51 2.591-2.74-10.858 17.31-5.17"/></g></svg>