<svg xmlns="http://www.w3.org/2000/svg" viewBox="0 0 600 180.14"><defs><linearGradient id="0" gradientUnits="userSpaceOnUse" x2="0" y1="8.233" y2="45.18"><stop stop-color="#505456"/><stop offset=".844"/><stop offset="1"/></linearGradient><linearGradient id="1" gradientUnits="userSpaceOnUse" gradientTransform="matrix(0-180.14 66.612 0 446.28 180.14)" x1="0" x2="1"><stop stop-color="#881719"/><stop stop-color="#db1f2b" offset=".495"/><stop stop-color="#db1f2b" offset="1"/></linearGradient><linearGradient id="2" gradientUnits="userSpaceOnUse" gradientTransform="matrix(0 36.943-13.684 0 440.27 8.233)" x1="0" x2="1"><stop stop-color="#f37921"/><stop stop-color="#dd1f26" offset=".844"/><stop stop-color="#dd1f26" offset="1"/></linearGradient></defs><path d="m382.26 161.22c0 10.44-7.74 18.92-17.28 18.92h-347.71c-9.542 0-17.27-8.47-17.27-18.92v-142.3c0-10.453 7.728-18.918 17.275-18.918h347.7c9.55 0 17.28 8.466 17.28 18.913v142.3z"/><path fill="url(#0)" d="m22.244 8.227c-7.372 0-13.334 8.275-13.334 18.482 0 10.194 5.962 18.469 13.334 18.469h287.09c7.38 0 13.33-8.275 13.33-18.469.04.128-1.82-18.482-13.33-18.482h-287.09"/><path fill="url(#1)" d="m298.95.003c-3.53 0-6.39 8.466-6.39 18.914v161.21h301.05c3.53 0 6.39-8.47 6.39-18.92v-161.21h-301.05z"/><path fill="url(#2)" d="m293.69 8.227c-.71 3.051-1.12 6.712-1.12 10.691v26.26h300.88v-36.95h-299.76"/><path fill="#ed332a" d="m98.68 107.06c0 15.23-9.926 26.3-30.11 28.49-14.605 1.55-35.744-.28-45.811-1.44-.343-1.62-.61-3.66-.61-5.3 0-13.24 7.118-16.3 13.854-16.3 7 0 18.03 1.22 26.17 1.22 9.04 0 11.757-3.06 11.757-5.98 0-3.81-3.597-5.37-10.601-6.73l-19.17-3.676c-15.915-3.05-24.406-14.06-24.406-25.752 0-14.211 10.07-26.11 29.845-28.28 14.948-1.627 33.16.216 43.15 1.437.343 1.702.546 3.329.546 5.096 0 13.245-6.99 16.1-13.727 16.1-5.174 0-13.195-.953-22.359-.953-9.305 0-13.182 2.581-13.182 5.721 0 3.317 3.662 4.677 9.508 5.706l18.291 3.395c18.752 3.472 26.849 14.14 26.849 27.25m32.796 16.32c0 8.16-3.19 12.85-19.1 12.85-2.1 0-3.93-.14-5.7-.42v-108.06c0-8.224 2.78-16.792 18.83-16.792 2.03 0 4.06.204 5.97.61v111.8zm65.02 41.8c2.11 1.09 6.38 2.38 11.75 2.52 9.24.19 14.27-3.34 18.01-11.63l49.55-110.51c-2.03-1.095-6.59-2.315-10.26-2.378-6.38-.14-14.96 1.157-20.39 14.197l-16.02 37.856-31.49-51.24c-2.02-.61-6.99-1.499-10.59-1.499-11.15 0-17.34 4.08-23.79 11.07l-30.59 33.457 24.6 38.736c4.58 7.06 10.54 10.67 20.26 10.67 6.38 0 11.7-1.5 14.13-2.65l-29.62-44.647 20.99-22.307 34.46 54.11-21 44.24"/><g fill="#fff" transform="matrix(1.027 0 0 1.027 0 .002)"><path d="m357.48 132.39v-35.781h-36.16v35.781h-19.61v-89.14h19.61v35.28h36.16v-35.28h19.6v89.14h-19.6"/><path d="m389.17 43.26h19.61v89.14h-19.61v-89.14"/><path d="m463.81 61.34v71.05h-19.6v-71.05h-27.12v-18.08h73.85v18.08h-27.13"/><path d="m560.84 106.03c0 4.42-.8 8.34-2.4 11.79-1.6 3.44-3.84 6.32-6.71 8.65-2.86 2.34-6.29 4.12-10.26 5.34-3.98 1.23-8.38 1.86-13.23 1.86-6.79 0-13.46-1.18-19.99-3.5-6.54-2.34-12.48-5.93-17.83-10.77l11.59-13.88c4.07 3.32 8.25 5.95 12.54 7.9 4.29 1.96 8.98 2.92 14.07 2.92 4.08 0 7.24-.74 9.49-2.23 2.25-1.48 3.37-3.54 3.37-6.17v-.25c0-1.27-.22-2.4-.69-3.38s-1.37-1.88-2.69-2.73c-1.31-.86-3.14-1.7-5.5-2.554-2.34-.841-5.37-1.733-9.12-2.673-4.5-1.189-8.59-2.439-12.25-3.751-3.67-1.324-6.77-2.97-9.32-4.975-2.56-1.993-4.54-4.468-5.94-7.439-1.4-2.983-2.11-6.671-2.11-11.08v-.26c0-4.072.76-7.748 2.28-11.02 1.51-3.268 3.64-6.09 6.39-8.467 2.73-2.376 6.01-4.208 9.81-5.483 3.81-1.262 8-1.906 12.59-1.906 6.54 0 12.54.978 18.02 2.934 5.47 1.943 10.5 4.753 15.09 8.404l-10.19 14.765c-3.98-2.71-7.89-4.852-11.72-6.423-3.81-1.572-7.64-2.365-11.46-2.365-3.81 0-6.68.743-8.59 2.228-1.91 1.486-2.86 3.342-2.86 5.545v.26c0 1.436.27 2.686.83 3.751.54 1.064 1.55 2.02 3 2.871 1.44.842 3.42 1.646 5.92 2.414 2.53.767 5.69 1.658 9.52 2.673 4.51 1.189 8.53 2.525 12.07 4.01 3.53 1.485 6.51 3.267 8.94 5.347 2.42 2.079 4.25 4.517 5.49 7.327 1.23 2.797 1.85 6.149 1.85 10.06v.25"/></g></svg>