<svg xmlns="http://www.w3.org/2000/svg" viewBox="0 0 600 170"><defs><linearGradient id="0" gradientUnits="userSpaceOnUse" x2="0" y1="7.767" y2="42.631"><stop stop-color="#505456"/><stop offset=".844"/><stop offset="1"/></linearGradient><linearGradient id="1" gradientUnits="userSpaceOnUse" gradientTransform="matrix(0-169.99 69.076 0 438.09 169.99)" x1="0" x2="1"><stop stop-color="#881719"/><stop stop-color="#db1f2b" offset=".495"/><stop stop-color="#db1f2b" offset="1"/></linearGradient><linearGradient id="2" gradientUnits="userSpaceOnUse" gradientTransform="matrix(0 34.864-14.105 0 432.1 7.767)" x1="0" x2="1"><stop stop-color="#f37921"/><stop stop-color="#dd1f26" offset=".844"/><stop stop-color="#dd1f26" offset="1"/></linearGradient></defs><path d="m360.81 152.14c0 9.85-7.29 17.86-16.31 17.86h-328.2c-8.991 0-16.3-8-16.3-17.86v-134.29c0-9.857 7.309-17.841 16.306-17.841h328.2c9.01 0 16.31 7.984 16.31 17.841v134.28z"/><path fill="url(#0)" d="m20.983 7.778c-6.935 0-12.576 7.796-12.576 17.429 0 9.615 5.641 17.43 12.576 17.43h271.02c6.93 0 12.57-7.815 12.57-17.43-.03-.131-1.37-17.429-12.57-17.429h-271.02"/><path fill="url(#1)" d="m282.8 0c-3.66 0-6.62 8-6.62 17.841v152.15h317.2c3.66 0 6.62-8 6.62-17.84v-152.15h-317.2z"/><path fill="url(#2)" d="m277.34 7.778c-.73 2.867-1.15 6.334-1.15 10.06v24.795h317.46v-34.859h-316.32z"/><path d="m93.12 101.04c0 14.37-9.371 24.81-28.412 26.87-13.794 1.46-33.735-.26-43.22-1.35-.318-1.53-.581-3.46-.581-5 0-12.5 6.729-15.39 13.08-15.39 6.597 0 16.998 1.14 24.701 1.14 8.509 0 11.1-2.88 11.1-5.62 0-3.596-3.411-5.077-10.01-6.37l-18.09-3.468c-15.01-2.868-23.03-13.269-23.03-24.289 0-13.418 9.483-24.644 28.15-26.688 14.11-1.537 31.3.187 40.725 1.349.319 1.612.525 3.149.525 4.817 0 12.5-6.616 15.199-12.951 15.199-4.891 0-12.463-.9-21.1-.9-8.789 0-12.444 2.437-12.444 5.379 0 3.149 3.448 4.423 8.977 5.397l17.262 3.205c17.691 3.261 25.319 13.344 25.319 25.709m30.961 15.39c0 7.71-3.02 12.13-18.03 12.13-1.98 0-3.71-.13-5.38-.39v-101.98c0-7.755 2.63-15.833 17.77-15.833 1.91 0 3.84.187 5.64.581v105.49zm61.34 39.45c1.99 1.02 6.04 2.25 11.1 2.38 8.73.19 13.47-3.14 16.99-10.98l46.76-104.27c-1.93-1.03-6.22-2.173-9.69-2.248-6.01-.131-14.11 1.087-19.24 13.4l-15.12 35.722-29.71-48.35c-1.91-.581-6.6-1.405-9.99-1.405-10.53 0-16.36 3.842-22.45 10.438l-28.88 31.58 23.23 36.546c4.31 6.67 9.95 10.06 19.11 10.06 6.04 0 11.04-1.4 13.35-2.49l-27.98-42.13 19.84-21.05 32.51 51.06-19.82 41.75z" fill="#ed332a"/><g fill="#fff"><path d="m369.12 113.11c-2.16 2.31-4.4 4.4-6.71 6.24-2.33 1.83-4.85 3.4-7.62 4.72-2.75 1.33-5.76 2.32-9.03 3-3.29.69-6.97 1.03-11.03 1.03-6.15 0-11.86-1.13-17.14-3.36-5.28-2.24-9.83-5.29-13.67-9.17-3.83-3.87-6.83-8.44-8.98-13.72-2.16-5.274-3.24-10.904-3.24-16.905v-.236c0-6 1.08-11.597 3.24-16.839 2.15-5.225 5.15-9.826 8.98-13.788 3.84-3.944 8.43-7.06 13.79-9.338 5.34-2.275 11.26-3.421 17.73-3.421 4 0 7.59.32 10.79.96 3.2.641 6.12 1.517 8.75 2.647 2.64 1.112 5.07 2.478 7.31 4.062 2.23 1.601 4.32 3.354 6.24 5.276l-11.75 13.552c-3.29-2.967-6.62-5.276-10.01-6.962-3.39-1.668-7.22-2.511-11.45-2.511-3.5 0-6.77.674-9.76 2.04-3 1.348-5.58 3.236-7.73 5.629-2.16 2.394-3.83 5.175-5.04 8.327-1.2 3.152-1.79 6.523-1.79 10.13v.236c0 3.59.59 6.995 1.79 10.181 1.21 3.202 2.86 6 4.97 8.39 2.12 2.4 4.68 4.3 7.69 5.7 2.98 1.4 6.28 2.09 9.87 2.09 4.81 0 8.85-.89 12.17-2.7 3.31-1.8 6.61-4.16 9.88-7.13l11.75 11.87"/><path d="m444.74 90.1c0 6.321-.86 11.849-2.58 16.599-1.72 4.76-4.18 8.7-7.36 11.87-3.21 3.15-7.07 5.51-11.57 7.06-4.51 1.55-9.6 2.35-15.28 2.35-11.26 0-20.13-3.14-26.6-9.41s-9.71-15.56-9.71-27.863v-47.937h18.46v47.45c0 6.877 1.6 12.05 4.78 15.52 3.21 3.48 7.64 5.21 13.3 5.21 5.68 0 10.12-1.67 13.32-5.02 3.18-3.35 4.79-8.395 4.79-15.1v-48.06h18.45v47.33"/><path d="m452.66 126.65v-83.89h18.46v67.24h41.81v16.65h-60.27"/><path d="m553.91 59.782v66.868h-18.46v-66.868h-25.52v-17.02h69.5v17.02h-25.52"/></g></svg>