<svg xmlns="http://www.w3.org/2000/svg" viewBox="0 0 600 106.75" xmlns:xlink="http://www.w3.org/1999/xlink"><defs><linearGradient id="3" gradientUnits="userSpaceOnUse" gradientTransform="matrix(0 21.891-11.096 0 319.75 4.886)" x1="0" x2="1"><stop stop-color="#f37921"/><stop stop-color="#dd1f26" offset=".844"/><stop stop-color="#dd1f26" offset="1"/></linearGradient><linearGradient id="2" gradientUnits="userSpaceOnUse" x2="0" y1="4.899" y2="26.805"><stop stop-color="#505456"/><stop offset=".844"/><stop offset="1"/></linearGradient><linearGradient id="0" gradientUnits="userSpaceOnUse" x2="0" y1="4.886" y2="26.777" xlink:href="#2"/><linearGradient id="1" gradientUnits="userSpaceOnUse" gradientTransform="matrix(0-106.74 54.106 0 324.57 106.75)" x1="0" x2="1"><stop stop-color="#881719"/><stop stop-color="#db1f2b" offset=".495"/><stop stop-color="#db1f2b" offset="1"/></linearGradient></defs><path d="m226.5 95.54c0 6.188-4.58 11.208-10.24 11.208h-206.03c-5.655 0-10.23-5.02-10.23-11.209v-84.32c0-6.199 4.575-11.221 10.229-11.221h206.03c5.65 0 10.24 5.02 10.24 11.22v84.32z"/><path fill="url(#0)" d="m13.17 4.881c-4.357 0-7.898 4.902-7.898 10.948 0 6.05 3.54 10.948 7.898 10.948h170.11c4.37 0 7.91-4.902 7.91-10.948-.16-.501-1.34-10.948-7.91-10.948h-170.11"/><path fill="url(#1)" d="m178.53.012c-2.86 0-5.18 5.02-5.18 11.209v95.53h297.24c2.86 0 5.19-5.02 5.19-11.202v-95.54h-297.25"/><path fill="url(#3)" d="m174.25 4.881c-.57 1.808-.9 3.987-.9 6.34v15.556h297.24v-21.896h-296.33z"/><path d="m58.46 63.47c0 9.02-5.882 15.589-17.843 16.886-8.66.915-21.18-.164-27.15-.861-.196-.959-.359-2.168-.359-3.137 0-7.855 4.226-9.663 8.213-9.663 4.151 0 10.676.719 15.512.719 5.349 0 6.972-1.808 6.972-3.54 0-2.255-2.146-3.181-6.285-3.987l-11.363-2.179c-9.434-1.808-14.457-8.333-14.457-15.262 0-8.42 5.948-15.469 17.67-16.754 8.867-.969 19.663.12 25.578.85.207 1 .327 1.972.327 3.02 0 7.854-4.151 9.542-8.138 9.542-3.061 0-7.811-.555-13.246-.555-5.523 0-7.811 1.525-7.811 3.377 0 1.971 2.168 2.778 5.632 3.377l10.839 2.02c11.11 2.059 15.905 8.377 15.905 16.16m19.434 9.663c0 4.836-1.885 7.614-11.307 7.614-1.253 0-2.343-.076-3.388-.239v-64.04c0-4.869 1.655-9.946 11.155-9.946 1.209 0 2.418.12 3.54.359v66.25zm38.532 24.783c1.25.632 3.79 1.405 6.97 1.481 5.48.12 8.45-1.971 10.68-6.884l29.35-65.49c-1.21-.642-3.91-1.372-6.07-1.405-3.8-.087-8.87.675-12.1 8.41l-9.5 22.44-18.66-30.371c-1.19-.36-4.14-.883-6.27-.883-6.6 0-10.27 2.419-14.1 6.558l-18.14 19.815 14.575 22.964c2.713 4.194 6.253 6.319 12.01 6.319 3.79 0 6.92-.883 8.37-1.569l-17.565-26.46 12.445-13.214 20.43 32.06-12.45 26.23z" fill="#ed332a"/><g fill="#fff"><path d="m195.01 37.16v11.645h25.76v10.73h-25.76v20.905h-11.88v-54h41.12v10.719h-29.24"/><path d="m249.85 40.33l-7.18 17.506h14.36l-7.18-17.506m16.37 40.11l-4.94-12.11h-22.83l-4.94 12.11h-12.11l23.15-54.39h10.95l23.14 54.39h-12.41z"/><path d="m321.54 80.45v-35.26l-15.27 23.07h-.32l-14.96-22.833v35.02h-11.73v-54.01h12.82l14.19 22.844 14.19-22.844h12.81v54.01h-11.73z"/><path d="m339.05 26.439h11.89v54.01h-11.89v-54.01"/><path d="m356.72 80.45v-54.01h11.89v43.29h26.92v10.72h-38.81"/><path d="m423.84 58.921v21.526h-11.88v-21.298l-20.75-32.713h13.88l12.89 21.678 13.12-21.678h13.49l-20.75 32.484"/></g><path d="m599.92 95.54c0 6.183-4.57 11.193-10.24 11.193h-133.54v-95.6c0-6.188 4.67-11.133 10.32-11.133h133.54l-.08 95.54"/><path fill="url(#2)" d="m457.91 4.892c-1.11 1.776-1.77 3.922-1.77 6.242v15.676h138.29v-21.918h-136.52"/><g fill="#fff"><path d="m509.55 80.29v-23.465h-29.29v23.465h-12.7v-54.36h12.7v22.255h29.29v-22.255h12.72v54.36h-12.72"/><path d="m556.81 34.496h-13.46v37.16h13.57c14.44 0 18.85-.577 18.85-18.497 0-17.931-4.52-18.66-18.96-18.66m27.03 38.465c-5.16 5.785-12.92 7.332-26.26 7.332h-26.71v-54.36h26.59c13.35 0 21.11 1.634 26.27 7.419 3.77 4.248 4.75 9.129 4.75 19.804 0 10.676-.87 15.556-4.64 19.804"/></g></svg>