<?xml version="1.0" encoding="UTF-8" standalone="no"?>
<svg xmlns:rdf="http://www.w3.org/1999/02/22-rdf-syntax-ns#" xmlns="http://www.w3.org/2000/svg" xmlns:cc="http://creativecommons.org/ns#" xmlns:dc="http://purl.org/dc/elements/1.1/" height="117.91" width="600" version="1.1">
  <defs>
    <linearGradient id="c" gradientUnits="userSpaceOnUse" gradientTransform="matrix(-.0000012032 24.16 -24.16 -.0000012032 108.45 5.3792)" x1="0" x2="1" y1="0" y2="0">
      <stop stop-color="#505456" offset="0"/>
      <stop offset=".84375"/>
      <stop offset="1"/>
    </linearGradient>
    <linearGradient id="b" gradientUnits="userSpaceOnUse" gradientTransform="matrix(-.0000026022 -117.9 63.745 -.0000048130 395.69 117.91)" x1="0" x2="1" y1="0" y2="0">
      <stop stop-color="#881719" offset="0"/>
      <stop stop-color="#db1f2b" offset=".49479"/>
      <stop stop-color="#db1f2b" offset="1"/>
    </linearGradient>
    <linearGradient id="a" gradientUnits="userSpaceOnUse" gradientTransform="matrix(-6.4562e-7 24.256 -13.015 -.0000012032 390.75 5.3792)" x1="0" x2="1" y1="0" y2="0">
      <stop stop-color="#f37921" offset="0"/>
      <stop stop-color="#dd1f26" offset=".84375"/>
      <stop stop-color="#dd1f26" offset="1"/>
    </linearGradient>
  </defs>
  <path d="m250.04 105.43c0 6.83-5.05 12.37-11.3 12.37h-227.43c-6.2564 0-11.31-5.54-11.31-12.37v-93.061c0-6.834 5.0536-12.369 11.298-12.369l227.43 0.00017c6.25 0 11.3 5.5348 11.3 12.369v93.061z"/>
  <path fill="url(#c)" d="m14.547 5.3822c-4.813 0-8.7235 5.4148-8.7235 12.081 0 6.666 3.9105 12.08 8.7235 12.08h187.8c4.82 0 8.73-5.414 8.73-12.08 0 0-3.91-12.081-8.73-12.081l-187.8 0.0002z"/>
  <path fill="url(#b)" d="m191.37 12.382v105.43l402.52 0.1c3.37 0 6.11-5.54 6.11-12.37v-105.44l-402.51-0.1c-3.37 0-6.11 5.547-6.11 12.381"/>
  <path fill="url(#a)" d="m191.37 12.373v17.17l403.92 0.097v-24.161l-402.87-0.0964c-0.67 1.9853-1.06 4.3918-1.06 6.9904"/>
  <path d="m64.51 70.027c0 9.962-6.497 17.218-19.709 18.638-9.554 1.022-23.391-0.181-29.973-0.939-0.228-1.059-0.397-2.394-0.397-3.465 0-8.676 4.657-10.673 9.061-10.673 4.584 0 11.792 0.794 17.133 0.794 5.908 0 7.701-1.997 7.701-3.91 0-2.491-2.358-3.514-6.943-4.404l-12.549-2.407c-10.409-1.996-15.967-9.204-15.967-16.857 0-9.289 6.582-17.074 19.529-18.506 9.783-1.059 21.706 0.133 28.253 0.939 0.216 1.107 0.349 2.178 0.349 3.333 0 8.675-4.585 10.54-8.976 10.54-3.394 0-8.64-0.613-14.644-0.613-6.089 0-8.627 1.684-8.627 3.73 0 2.177 2.394 3.068 6.22 3.742l11.973 2.226c12.273 2.262 17.567 9.241 17.567 17.831m21.467 10.673c0 5.342-2.094 8.411-12.49 8.411-1.384 0-2.587-0.097-3.742-0.277v-70.714c0-5.379 1.817-10.986 12.321-10.986 1.336 0.0001 2.671 0.1325 3.911 0.3972v73.169zm42.542 27.361c1.39 0.7 4.19 1.55 7.7 1.65 6.06 0.12 9.34-2.19 11.8-7.62l32.41-72.325c-1.32-0.71-4.31-1.504-6.71-1.552-4.18-0.084-9.79 0.758-13.35 9.301l-10.47 24.774-20.61-33.545c-1.34-0.397-4.59-0.975-6.93-0.975-7.31 0-11.35 2.671-15.57 7.244l-20.018 21.886 16.098 25.365c2.99 4.62 6.9 6.979 13.26 6.979 4.18 0 7.65-0.975 9.25-1.733l-19.39-29.227 13.74-14.595 22.56 35.411-13.76 28.962z" fill="#ed332a"/>
  <g fill="#fff">
    <path d="m257.43 79.085c-1.53 1.648-3.13 3.128-4.78 4.428-1.65 1.311-3.46 2.43-5.4 3.369-1.98 0.938-4.12 1.648-6.44 2.142-2.34 0.481-4.95 0.721-7.85 0.721-4.38 0-8.43-0.794-12.19-2.394-3.75-1.588-6.99-3.754-9.72-6.522-2.73-2.755-4.86-6.004-6.39-9.758-1.54-3.754-2.31-7.749-2.31-12.02v-0.169c0-4.259 0.77-8.254 2.31-11.972 1.53-3.73 3.66-6.991 6.39-9.806 2.73-2.816 5.99-5.03 9.81-6.654 3.8-1.613 8.01-2.419 12.61-2.419 2.84 0 5.4 0.217 7.68 0.674 2.27 0.457 4.34 1.083 6.22 1.877 1.87 0.794 3.61 1.769 5.19 2.9 1.59 1.131 3.07 2.382 4.44 3.754l-8.36 9.626c-2.32-2.106-4.69-3.742-7.11-4.946-2.42-1.191-5.13-1.781-8.15-1.781-2.5 0-4.81 0.482-6.94 1.444-2.13 0.963-3.97 2.299-5.5 4.007-1.54 1.709-2.73 3.682-3.58 5.92-0.86 2.25-1.28 4.645-1.28 7.208v0.168c0 2.563 0.42 4.969 1.28 7.243 0.85 2.275 2.03 4.26 3.53 5.969 1.51 1.708 3.34 3.056 5.47 4.054 2.13 0.987 4.47 1.492 7.02 1.492 3.42 0 6.3-0.649 8.66-1.925 2.35-1.275 4.7-2.96 7.03-5.065l8.36 8.434z"/>
    <path d="m259.38 88.717v-59.669h13.13v47.816h29.76v11.852h-42.89z"/>
    <path d="m335.08 44.392-7.93 19.349h15.86l-7.93-19.349zm18.07 44.327-5.45-13.38h-25.23l-5.46 13.38h-13.38l25.57-60.102h12.1l25.58 60.102h-13.73z"/>
    <path d="m413.24 71.073c0 2.96-0.53 5.583-1.62 7.882-1.07 2.31-2.56 4.235-4.48 5.799s-4.22 2.756-6.87 3.574c-2.66 0.83-5.61 1.239-8.86 1.239-4.54 0-9-0.782-13.38-2.346-4.38-1.552-8.35-3.959-11.92-7.195l7.74-9.289c2.74 2.213 5.53 3.97 8.4 5.282 2.87 1.299 6.01 1.961 9.42 1.961 2.72 0 4.84-0.505 6.35-1.492 1.51-0.999 2.26-2.37 2.26-4.139v-0.169c0-0.854-0.16-1.6-0.47-2.262-0.31-0.649-0.92-1.263-1.79-1.829-0.88-0.565-2.11-1.131-3.69-1.708-1.56-0.566-3.59-1.167-6.11-1.793-3.01-0.794-5.75-1.624-8.19-2.515-2.46-0.878-4.54-1.985-6.25-3.321-1.71-1.335-3.03-2.996-3.97-4.981-0.94-1.997-1.41-4.464-1.41-7.424v-0.168c0-2.72 0.51-5.186 1.52-7.376 1.02-2.178 2.44-4.067 4.28-5.668 1.83-1.588 4.02-2.803 6.57-3.657 2.55-0.855 5.36-1.288 8.43-1.288 4.38 0 8.39 0.662 12.06 1.961 3.66 1.312 7.03 3.189 10.1 5.631l-6.82 9.891c-2.67-1.817-5.29-3.261-7.84-4.308-2.56-1.046-5.11-1.576-7.67-1.576-2.57 0-4.48 0.493-5.75 1.492-1.28 0.987-1.93 2.226-1.93 3.706v0.169c0 0.974 0.19 1.804 0.57 2.514 0.36 0.71 1.03 1.348 1.99 1.925 0.98 0.566 2.3 1.107 3.99 1.613 1.68 0.517 3.8 1.107 6.36 1.793 3.02 0.794 5.72 1.696 8.08 2.683 2.37 0.998 4.36 2.19 5.99 3.586 1.61 1.395 2.84 3.02 3.67 4.897 0.82 1.877 1.24 4.115 1.24 6.738v0.168z"/>
    <path d="m461.82 71.073c0 2.96-0.54 5.583-1.61 7.882-1.07 2.31-2.57 4.235-4.49 5.799-1.91 1.564-4.21 2.756-6.87 3.574-2.66 0.83-5.61 1.239-8.86 1.239-4.53 0-9-0.782-13.38-2.346-4.38-1.552-8.35-3.959-11.93-7.195l7.76-9.289c2.73 2.213 5.52 3.97 8.4 5.282 2.86 1.299 6 1.961 9.42 1.961 2.72 0 4.83-0.505 6.34-1.492 1.51-0.999 2.26-2.37 2.26-4.139v-0.169c0-0.854-0.16-1.6-0.47-2.262-0.31-0.649-0.91-1.263-1.79-1.829-0.88-0.565-2.11-1.131-3.67-1.708-1.58-0.566-3.61-1.167-6.11-1.793-3.02-0.794-5.76-1.624-8.21-2.515-2.45-0.878-4.54-1.985-6.24-3.321-1.71-1.335-3.04-2.996-3.98-4.981-0.93-1.997-1.4-4.464-1.4-7.424v-0.168c0-2.72 0.5-5.186 1.51-7.376 1.03-2.178 2.45-4.067 4.29-5.668 1.83-1.588 4.02-2.803 6.57-3.657 2.55-0.855 5.35-1.288 8.42-1.288 4.38 0 8.4 0.662 12.07 1.961 3.66 1.312 7.02 3.189 10.09 5.631l-6.82 9.891c-2.67-1.817-5.28-3.261-7.83-4.308-2.57-1.046-5.12-1.576-7.68-1.576s-4.48 0.493-5.75 1.492c-1.28 0.987-1.91 2.226-1.91 3.706v0.169c0 0.974 0.18 1.804 0.55 2.514s1.03 1.348 2 1.925c0.97 0.566 2.29 1.107 3.98 1.613 1.68 0.517 3.8 1.107 6.36 1.793 3.02 0.794 5.72 1.696 8.08 2.683 2.37 0.998 4.37 2.19 5.99 3.586 1.62 1.395 2.84 3.02 3.67 4.897s1.24 4.115 1.24 6.738v0.168z"/>
    <path d="m465.32 29.05h13.13v59.669h-13.13v-59.669z"/>
    <path d="m537.26 79.085c-1.52 1.648-3.12 3.128-4.77 4.428-1.65 1.311-3.46 2.43-5.41 3.369-1.96 0.938-4.11 1.648-6.43 2.142-2.34 0.481-4.95 0.721-7.85 0.721-4.38 0-8.44-0.794-12.19-2.394-3.75-1.588-6.99-3.754-9.72-6.522-2.72-2.755-4.86-6.004-6.39-9.758-1.54-3.754-2.3-7.749-2.3-12.02v-0.169c0-4.259 0.76-8.254 2.3-11.972 1.53-3.73 3.67-6.991 6.39-9.806 2.73-2.816 5.99-5.03 9.81-6.654 3.8-1.613 8.01-2.419 12.61-2.419 2.85 0 5.4 0.217 7.67 0.674 2.28 0.457 4.35 1.083 6.22 1.877 1.88 0.794 3.61 1.769 5.2 2.9 1.6 1.131 3.07 2.382 4.44 3.754l-8.36 9.626c-2.32-2.106-4.69-3.742-7.11-4.946-2.42-1.191-5.13-1.781-8.15-1.781-2.5 0-4.81 0.482-6.94 1.444-2.13 0.963-3.97 2.299-5.5 4.007-1.54 1.709-2.73 3.682-3.58 5.92-0.85 2.25-1.28 4.645-1.28 7.208v0.168c0 2.563 0.43 4.969 1.28 7.243 0.85 2.275 2.03 4.26 3.53 5.969 1.51 1.708 3.34 3.056 5.47 4.054 2.13 0.987 4.47 1.492 7.02 1.492 3.42 0 6.3-0.649 8.65-1.925 2.36-1.275 4.71-2.96 7.04-5.065l8.35 8.434z"/>
    <path d="m585.76 71.073c0 2.96-0.53 5.583-1.62 7.882-1.07 2.31-2.56 4.235-4.48 5.799s-4.21 2.756-6.87 3.574c-2.66 0.83-5.61 1.239-8.86 1.239-4.54 0-9-0.782-13.38-2.346-4.38-1.552-8.35-3.959-11.92-7.195l7.75-9.289c2.73 2.213 5.52 3.97 8.39 5.282 2.87 1.299 6.01 1.961 9.43 1.961 2.71 0 4.83-0.505 6.34-1.492 1.51-0.999 2.26-2.37 2.26-4.139v-0.169c0-0.854-0.16-1.6-0.47-2.262-0.31-0.649-0.92-1.263-1.79-1.829-0.88-0.565-2.11-1.131-3.69-1.708-1.56-0.566-3.59-1.167-6.1-1.793-3.02-0.794-5.76-1.624-8.2-2.515-2.46-0.878-4.54-1.985-6.25-3.321-1.71-1.335-3.03-2.996-3.97-4.981-0.94-1.997-1.41-4.464-1.41-7.424v-0.168c0-2.72 0.51-5.186 1.52-7.376 1.02-2.178 2.44-4.067 4.28-5.668 1.83-1.588 4.03-2.803 6.57-3.657 2.55-0.855 5.36-1.288 8.43-1.288 4.38 0 8.4 0.662 12.06 1.961 3.66 1.312 7.03 3.189 10.1 5.631l-6.82 9.891c-2.66-1.817-5.28-3.261-7.84-4.308-2.56-1.046-5.11-1.576-7.67-1.576-2.55 0-4.48 0.493-5.75 1.492-1.28 0.987-1.92 2.226-1.92 3.706v0.169c0 0.974 0.18 1.804 0.56 2.514 0.37 0.71 1.03 1.348 2.01 1.925 0.96 0.566 2.28 1.107 3.97 1.613 1.68 0.517 3.8 1.107 6.36 1.793 3.02 0.794 5.72 1.696 8.08 2.683 2.37 0.998 4.36 2.19 5.99 3.586 1.62 1.395 2.84 3.02 3.67 4.897s1.24 4.115 1.24 6.738v0.168z"/>
  </g>
</svg>
