<?xml version="1.0" encoding="UTF-8" standalone="no"?>
<svg xmlns:rdf="http://www.w3.org/1999/02/22-rdf-syntax-ns#" xmlns="http://www.w3.org/2000/svg" xmlns:cc="http://creativecommons.org/ns#" xmlns:dc="http://purl.org/dc/elements/1.1/" height="99.236" width="600" version="1.1">
  <defs>
    <linearGradient id="a" gradientUnits="userSpaceOnUse" gradientTransform="matrix(-.0000010127 20.382 -20.382 -.0000010127 515.98 4.5376)" x1="0" x2="1" y1="0" y2="0">
      <stop stop-color="#505456" offset="0"/>
      <stop offset=".84375"/>
      <stop offset="1"/>
    </linearGradient>
    <linearGradient id="d" gradientUnits="userSpaceOnUse" gradientTransform="matrix(-5.2767e-7 20.348 -10.603 -.0000010127 317.9 4.5312)" x1="0" x2="1" y1="0" y2="0">
      <stop stop-color="#f37921" offset="0"/>
      <stop stop-color="#dd1f26" offset=".84375"/>
      <stop stop-color="#dd1f26" offset="1"/>
    </linearGradient>
    <linearGradient id="c" gradientUnits="userSpaceOnUse" gradientTransform="matrix(-.0000021107 -99.217 51.698 -.0000040507 319.87 99.217)" x1="0" x2="1" y1="0" y2="0">
      <stop stop-color="#881719" offset="0"/>
      <stop stop-color="#db1f2b" offset=".49479"/>
      <stop stop-color="#db1f2b" offset="1"/>
    </linearGradient>
    <linearGradient id="b" gradientUnits="userSpaceOnUse" gradientTransform="matrix(-.0000010127 20.348 -20.348 -.0000010127 91.31 4.5312)" x1="0" x2="1" y1="0" y2="0">
      <stop stop-color="#505456" offset="0"/>
      <stop offset=".84375"/>
      <stop offset="1"/>
    </linearGradient>
  </defs>
  <path d="m210.53 88.796c0 5.752-4.26 10.42-9.52 10.42h-191.5c-5.2467 0-9.51-4.668-9.51-10.42l-0.000005-78.372c0-5.7617 4.2633-10.42 9.5191-10.42l191.5-8e-7c5.26 0 9.52 4.6583 9.52 10.42v78.371z"/>
  <path fill="url(#b)" d="m12.25 4.5368c-4.0506 0-7.3417 4.5571-7.3417 10.167 0 5.62 3.2912 10.177 7.3417 10.177h158.12c4.06 0 7.34-4.557 7.34-10.177-0.15-0.476-1.24-10.167-7.34-10.167l-158.12-0.0002z"/>
  <path fill="url(#c)" d="m166.09-8.2697e-7c-2.73 0-4.95 4.6684-4.95 10.42v88.802h312.51c2.74 0 4.95-4.669 4.95-10.42v-88.802l-312.51-8.2697e-7z"/>
  <path fill="url(#d)" d="m162 4.5368c-0.54 1.6709-0.87 3.6962-0.87 5.8832v14.462h317.47v-20.346l-316.61 0.0004z"/>
  <path d="m54.352 59.469c0 8.385-5.468 14.491-16.588 15.686-8.04 0.861-19.676-0.151-25.226-0.789-0.182-0.902-0.334-2.016-0.334-2.917 0-7.301 3.929-8.982 7.636-8.982 3.858 0 9.924 0.668 14.41 0.668 4.982 0 6.481-1.681 6.481-3.291 0-2.096-1.985-2.957-5.843-3.707l-10.552-2.015c-8.758-1.691-13.438-7.757-13.438-14.187 0-7.828 5.54-14.38 16.426-15.575 8.233-0.891 18.269 0.111 23.767 0.79 0.192 0.931 0.304 1.833 0.304 2.805 0 7.301-3.859 8.871-7.555 8.871-2.856 0-7.271-0.527-12.324-0.527-5.124 0-7.261 1.418-7.261 3.14 0 1.843 2.025 2.592 5.246 3.149l10.066 1.874c10.329 1.903 14.785 7.787 14.785 15.008m18.066 8.982c0 4.496-1.762 7.079-10.522 7.079-1.155 0-2.167-0.081-3.139-0.233v-59.516c0-4.516 1.529-9.2453 10.37-9.2453 1.124 0 2.238 0.1114 3.291 0.3443v61.57zm35.802 23.028c1.16 0.588 3.52 1.306 6.48 1.377 5.09 0.112 7.86-1.833 9.92-6.4l27.28-60.861c-1.12-0.598-3.62-1.276-5.65-1.306-3.51-0.081-8.23 0.627-11.23 7.817l-8.83 20.852-17.34-28.224c-1.11-0.334-3.85-0.82-5.83-0.82-6.146 0-9.548 2.248-13.103 6.096l-16.839 18.421 13.54 21.337c2.522 3.888 5.813 5.873 11.16 5.873 3.522 0 6.442-0.82 7.792-1.458l-16.325-24.599 11.575-12.273 18.98 29.792-11.57 24.375z" fill="#ed332a"/>
  <g fill="#fff">
    <path d="m198.88 42.024c0-2.491-0.8-4.385-2.4-5.671-1.61-1.286-3.8-1.944-6.57-1.944h-8.54v15.372h8.75c2.79 0 4.93-0.74 6.46-2.198s2.3-3.261 2.3-5.418v-0.141zm11.2-0.071c0 2.917-0.53 5.479-1.58 7.676-1.05 2.198-2.5 4.051-4.34 5.53-1.85 1.478-3.99 2.592-6.46 3.331-2.46 0.75-5.11 1.114-7.93 1.114h-8.4v15.079h-11.06v-50.249h20.53c3.02 0 5.71 0.426 8.08 1.256 2.37 0.841 4.38 2.025 6.03 3.555 1.65 1.539 2.91 3.362 3.79 5.498 0.9 2.127 1.34 4.487 1.34 7.069v0.142z"/>
    <path d="m229.6 37.356-6.68 16.294h13.35l-6.67-16.294zm15.22 37.328-4.6-11.271h-21.25l-4.58 11.271h-11.27l21.53-50.603h10.19l21.53 50.603h-11.55z"/>
    <path d="m296.19 59.822c0 2.491-0.46 4.699-1.36 6.643-0.9 1.935-2.17 3.565-3.78 4.881-1.62 1.317-3.54 2.319-5.78 3.008-2.25 0.699-4.73 1.043-7.46 1.043-3.83 0-7.59-0.658-11.26-1.975-3.69-1.316-7.04-3.331-10.06-6.066l6.53-7.828c2.3 1.874 4.66 3.363 7.08 4.456 2.41 1.104 5.06 1.651 7.92 1.651 2.3 0 4.09-0.415 5.36-1.256 1.26-0.83 1.9-1.995 1.9-3.473v-0.152c0-0.719-0.14-1.347-0.39-1.904-0.28-0.547-0.77-1.063-1.52-1.539-0.74-0.476-1.77-0.952-3.09-1.428-1.33-0.486-3.04-0.982-5.15-1.519-2.54-0.669-4.85-1.367-6.91-2.117-2.07-0.739-3.81-1.671-5.26-2.795-1.44-1.124-2.55-2.521-3.34-4.202-0.79-1.671-1.19-3.747-1.19-6.238v-0.152c0-2.289 0.43-4.365 1.29-6.208 0.85-1.833 2.05-3.423 3.6-4.77 1.54-1.336 3.39-2.369 5.54-3.088 2.14-0.709 4.5-1.074 7.09-1.074 3.68 0 7.06 0.547 10.15 1.651s5.93 2.684 8.51 4.739l-5.74 8.325c-2.25-1.53-4.46-2.735-6.61-3.626-2.15-0.881-4.3-1.326-6.46-1.326-2.14 0-3.76 0.415-4.85 1.255-1.07 0.841-1.61 1.884-1.61 3.119v0.142c0 0.82 0.15 1.529 0.47 2.127 0.31 0.597 0.87 1.134 1.69 1.61s1.93 0.931 3.35 1.367c1.42 0.425 3.2 0.932 5.36 1.499 2.54 0.678 4.81 1.428 6.8 2.268 1.99 0.83 3.67 1.833 5.04 3.008 1.36 1.174 2.4 2.552 3.1 4.131 0.69 1.58 1.04 3.474 1.04 5.671v0.142z"/>
    <path d="m337.87 59.822c0 2.491-0.46 4.699-1.36 6.643-0.9 1.935-2.16 3.565-3.78 4.881-1.62 1.317-3.54 2.319-5.78 3.008-2.25 0.699-4.73 1.043-7.45 1.043-3.84 0-7.59-0.658-11.27-1.975-3.69-1.316-7.04-3.331-10.06-6.066l6.53-7.828c2.31 1.874 4.67 3.363 7.07 4.456 2.43 1.104 5.06 1.651 7.94 1.651 2.3 0 4.08-0.415 5.35-1.256 1.26-0.83 1.9-1.995 1.9-3.473v-0.152c0-0.719-0.13-1.347-0.41-1.904-0.25-0.547-0.75-1.063-1.5-1.539-0.74-0.476-1.78-0.952-3.09-1.428-1.33-0.486-3.04-0.982-5.15-1.519-2.55-0.669-4.85-1.367-6.91-2.117-2.06-0.739-3.81-1.671-5.25-2.795-1.45-1.124-2.56-2.521-3.35-4.202-0.79-1.671-1.19-3.747-1.19-6.238v-0.152c0-2.289 0.43-4.365 1.29-6.208 0.85-1.833 2.06-3.423 3.6-4.77 1.54-1.336 3.39-2.369 5.53-3.088 2.15-0.709 4.51-1.074 7.09-1.074 3.69 0 7.07 0.547 10.16 1.651s5.92 2.684 8.51 4.739l-5.74 8.325c-2.25-1.53-4.45-2.735-6.61-3.626-2.15-0.881-4.3-1.326-6.46-1.326-2.15 0-3.77 0.415-4.84 1.255-1.08 0.841-1.62 1.884-1.62 3.119v0.142c0 0.82 0.16 1.529 0.47 2.127 0.31 0.597 0.88 1.134 1.69 1.61 0.82 0.476 1.93 0.931 3.35 1.367 1.42 0.425 3.2 0.932 5.36 1.499 2.54 0.678 4.81 1.428 6.8 2.268 2 0.83 3.67 1.833 5.03 3.008 1.37 1.174 2.4 2.552 3.1 4.131 0.7 1.58 1.05 3.474 1.05 5.671v0.142z"/>
    <path d="m340.81 24.436h11.06v50.239h-11.06v-50.239z"/>
    <path d="m396.87 49.561c0-2.157-0.37-4.193-1.11-6.107-0.75-1.914-1.79-3.585-3.16-5.023-1.37-1.427-2.97-2.572-4.81-3.402-1.83-0.841-3.88-1.256-6.14-1.256-2.19 0-4.23 0.405-6.09 1.215-1.87 0.821-3.46 1.945-4.77 3.373-1.33 1.438-2.35 3.098-3.09 4.992-0.75 1.894-1.11 3.909-1.11 6.066v0.142c0 2.157 0.36 4.182 1.11 6.096 0.74 1.914 1.79 3.595 3.16 5.023 1.36 1.438 2.98 2.572 4.84 3.413 1.87 0.84 3.9 1.255 6.1 1.255 2.25 0 4.29-0.405 6.13-1.215 1.86-0.82 3.43-1.944 4.74-3.372 1.32-1.438 2.34-3.099 3.09-4.993 0.74-1.893 1.11-3.909 1.11-6.066v-0.141zm11.56 0c0 3.585-0.67 6.947-2.01 10.076-1.34 3.139-3.2 5.894-5.57 8.263-2.37 2.37-5.18 4.233-8.46 5.6-3.27 1.357-6.86 2.036-10.74 2.036-3.87 0-7.43-0.679-10.69-2.036-3.25-1.367-6.07-3.21-8.44-5.529-2.35-2.329-4.2-5.053-5.51-8.182-1.32-3.13-1.98-6.502-1.98-10.086v-0.142c0-3.585 0.67-6.947 2.01-10.086 1.34-3.13 3.2-5.884 5.56-8.254 2.37-2.369 5.19-4.233 8.47-5.6s6.86-2.045 10.73-2.045 7.44 0.678 10.7 2.045c3.25 1.367 6.07 3.21 8.43 5.53 2.36 2.319 4.21 5.053 5.52 8.182 1.32 3.129 1.98 6.501 1.98 10.086v0.142z"/>
    <path d="m446.33 74.681-24.33-31.941v31.941h-10.91v-50.239h10.19l23.54 30.927v-30.927h10.9v50.239h-9.39z"/>
  </g>
  <path d="m599.93 88.826c0 5.752-4.25 10.41-9.51 10.41h-124.13v-88.882c0-5.7414 4.33-10.349 9.59-10.349l124.12-0.0001108-0.07 88.822z"/>
  <path fill="url(#a)" d="m467.95 4.5369c-1.05 1.6506-1.65 3.6557-1.65 5.8231v14.563h128.53v-20.386l-126.88 0.0003z"/>
  <path fill="#fff" d="m515.93 74.634v-21.813h-27.22v21.813h-11.81v-50.523h11.81v20.679h27.22v-20.679h11.81v50.523h-11.81z"/>
  <path fill="#fff" d="m559.86 32.069h-12.52v34.541h12.62c13.42 0 17.52-0.536 17.52-17.194 0-16.669-4.2-17.347-17.62-17.347m25.12 35.747c-4.8 5.377-12.01 6.815-24.41 6.815h-24.82v-50.523h24.71c12.41 0 19.62 1.519 24.42 6.896 3.51 3.95 4.42 8.486 4.42 18.41 0 9.914-0.81 14.461-4.32 18.4"/>
</svg>
