<svg xmlns="http://www.w3.org/2000/svg" viewBox="0 0 600 98.15" xmlns:xlink="http://www.w3.org/1999/xlink"><defs><linearGradient id="3" gradientUnits="userSpaceOnUse" x2="0" y1="4.483" y2="24.61"><stop stop-color="#f37921"/><stop stop-color="#dd1f26" offset=".844"/><stop stop-color="#dd1f26" offset="1"/></linearGradient><linearGradient id="2" gradientUnits="userSpaceOnUse" x2="0" y1="4.504" y2="24.644"><stop stop-color="#505356"/><stop offset=".844"/><stop offset="1"/></linearGradient><linearGradient id="0" gradientUnits="userSpaceOnUse" x2="0" y1="4.484" y2="24.611" xlink:href="#2"/><linearGradient id="1" gradientUnits="userSpaceOnUse" x2="0" y1="98.14" y2=".002"><stop stop-color="#881719"/><stop stop-color="#db1f2b" offset=".495"/><stop stop-color="#db1f2b" offset="1"/></linearGradient></defs><path d="m208.22 87.83c0 5.692-4.21 10.312-9.41 10.312h-189.4c-5.2 0-9.41-4.619-9.41-10.312v-77.53c0-5.693 4.21-10.305 9.411-10.305h189.4c5.2 0 9.41 4.612 9.41 10.305v77.53z"/><path fill="url(#0)" d="m12.12 4.487c-4.02 0-7.264 4.508-7.264 10.05 0 5.568 3.248 10.07 7.264 10.07h156.38c4.01 0 7.26-4.502 7.26-10.07-.3-.914-.12-10.05-7.26-10.05h-156.38"/><path fill="url(#1)" d="m168.77.006c-5.19 0-9.41 4.612-9.41 10.298v87.84h328.67c5.2 0 9.42-4.619 9.42-10.305v-87.83h-328.68"/><path fill="url(#3)" d="m161 4.487c-1.05 1.655-1.65 3.657-1.65 5.817v14.307h317.78v-20.12h-316.13"/><path fill="#ed332a" d="m53.758 58.33c0 8.297-5.409 14.328-16.406 15.519-7.957.852-19.474-.152-24.958-.782-.18-.887-.332-2-.332-2.888 0-7.216 3.885-8.885 7.555-8.885 3.816 0 9.813.665 14.259.665 4.924 0 6.406-1.669 6.406-3.255 0-2.078-1.967-2.929-5.776-3.67l-10.443-2c-8.67-1.662-13.296-7.667-13.296-14.03 0-7.743 5.478-14.224 16.253-15.409 8.151-.886 18.07.111 23.518.783.18.921.298 1.807.298 2.776 0 7.216-3.816 8.775-7.479 8.775-2.819 0-7.189-.52-12.188-.52-5.069 0-7.182 1.406-7.182 3.11 0 1.814 1.995 2.555 5.18 3.109l9.966 1.856c10.222 1.884 14.625 7.701 14.625 14.848m17.874 8.885c0 4.446-1.745 7-10.409 7-1.149 0-2.146-.076-3.109-.222v-58.877c0-4.481 1.517-9.148 10.256-9.148 1.115 0 2.223.111 3.262.332v60.914zm35.418 22.776c1.15.589 3.48 1.295 6.4 1.371 5.05.111 7.79-1.814 9.82-6.336l26.99-60.21c-1.11-.596-3.59-1.261-5.59-1.295-3.48-.076-8.15.623-11.11 7.735l-8.74 20.624-17.14-27.916c-1.11-.332-3.82-.817-5.78-.817-6.069 0-9.435 2.223-12.952 6.03l-16.669 18.22 13.407 21.11c2.486 3.851 5.741 5.81 11.03 5.81 3.482 0 6.372-.81 7.712-1.44l-16.15-24.335 11.448-12.147 18.775 29.481-11.44 24.11z"/><g fill="#fff"><path d="m214.23 65.961c-1.28 1.378-2.61 2.604-3.98 3.691s-2.88 2.02-4.5 2.805c-1.64.782-3.43 1.371-5.36 1.773-1.95.401-4.13.602-6.54.602-3.64 0-7.02-.658-10.15-1.987-3.13-1.323-5.82-3.13-8.09-5.43-2.27-2.292-4.05-5.01-5.33-8.123-1.28-3.13-1.92-6.468-1.92-10.01v-.145c0-3.546.64-6.87 1.92-9.972 1.28-3.103 3.06-5.824 5.33-8.165s4.99-4.19 8.16-5.54c3.17-1.351 6.67-2.02 10.51-2.02 2.37 0 4.49.187 6.39.568 1.89.38 3.62.9 5.18 1.565 1.57.664 3.01 1.468 4.33 2.41 1.33.948 2.55 1.987 3.7 3.123l-6.96 8.03c-1.95-1.752-3.92-3.123-5.93-4.12-2.02-.991-4.27-1.489-6.78-1.489-2.09 0-4.02.401-5.79 1.205-1.77.81-3.3 1.918-4.58 3.338-1.27 1.419-2.27 3.067-2.98 4.937-.71 1.863-1.06 3.865-1.06 5.997v.139c0 2.133.35 4.141 1.06 6.04.71 1.89 1.69 3.545 2.95 4.965 1.25 1.427 2.77 2.548 4.54 3.379 1.77.825 3.73 1.24 5.86 1.24 2.84 0 5.24-.533 7.2-1.6 1.97-1.066 3.92-2.472 5.86-4.224l6.96 7.03"/><path d="m216.36 24.286h10.93v49.694h-10.93v-49.694"/><path d="m267.48 73.982l-24.07-31.593v31.593h-10.79v-49.694h10.08l23.29 30.595v-30.595h10.79v49.694h-9.3"/><path d="m281.61 73.982v-49.694h37.41v9.723h-26.62v10.08h23.43v9.723h-23.43v10.436h26.98v9.73h-37.77"/><path d="m362.4 73.982v-32.445l-14.06 21.23h-.28l-13.78-21.01v32.23h-10.79v-49.694h11.79l13.06 21.01 13.06-21.01h11.79v49.694h-10.79"/><path d="m399.96 37.07l-6.61 16.11h13.21l-6.6-16.11m15.04 36.917l-4.54-11.15h-21.02l-4.53 11.15h-11.15l21.29-50.05h10.09l21.3 50.05h-11.44"/><path d="m449.8 24.22h7.41v49.757h-10.73v-38.746l-8.62 2.119-2.25-8.892 14.19-4.238"/></g><path d="m599.92 87.85c0 5.685-4.21 10.298-9.4 10.298h-122.78v-87.92c0-5.686 4.28-10.235 9.48-10.235h122.78l-.07 87.85z"/><path fill="url(#2)" d="m469.37 4.508c-1.03 1.627-1.63 3.601-1.63 5.735v14.397h127.13v-20.13h-125.51z"/><g fill="#fff"><path d="m516.83 73.819v-21.572h-26.92v21.572h-11.69v-49.971h11.69v20.456h26.92v-20.456h11.69v49.971h-11.69"/><path d="m560.29 31.715h-12.37v34.16h12.48c13.27 0 17.32-.526 17.32-17 0-16.488-4.15-17.16-17.43-17.16m24.85 35.37c-4.75 5.319-11.87 6.738-24.15 6.738h-24.55v-49.971h24.45c12.27 0 19.41 1.496 24.15 6.814 3.47 3.899 4.37 8.387 4.37 18.213 0 9.806-.8 14.301-4.27 18.206"/></g></svg>