<?xml version="1.0" encoding="UTF-8" standalone="no"?>
<svg xmlns:rdf="http://www.w3.org/1999/02/22-rdf-syntax-ns#" xmlns="http://www.w3.org/2000/svg" xmlns:cc="http://creativecommons.org/ns#" xmlns:dc="http://purl.org/dc/elements/1.1/" height="112.24" width="600" version="1.1">
  <defs>
    <linearGradient id="a" gradientUnits="userSpaceOnUse" gradientTransform="matrix(0 23.03 -23.03 0 504.97 5.142)" x1="0" x2="1" y1="0" y2="0">
      <stop stop-color="#505456" offset="0"/>
      <stop offset=".84375"/>
      <stop offset="1"/>
    </linearGradient>
    <linearGradient id="b" gradientUnits="userSpaceOnUse" gradientTransform="matrix(0 23.018 -10.628 0 317.94 5.1324)" x1="0" x2="1" y1="0" y2="0">
      <stop stop-color="#f37921" offset="0"/>
      <stop stop-color="#dd1f26" offset=".84375"/>
      <stop stop-color="#dd1f26" offset="1"/>
    </linearGradient>
    <linearGradient id="c" gradientUnits="userSpaceOnUse" gradientTransform="matrix(0 -112.23 51.821 0 321.79 112.24)" x1="0" x2="1" y1="0" y2="0">
      <stop stop-color="#881719" offset="0"/>
      <stop stop-color="#db1f2b" offset=".49479"/>
      <stop stop-color="#db1f2b" offset="1"/>
    </linearGradient>
    <linearGradient id="d" gradientUnits="userSpaceOnUse" gradientTransform="matrix(0 23.018 -23.018 0 103.32 5.1324)" x1="0" x2="1" y1="0" y2="0">
      <stop stop-color="#505456" offset="0"/>
      <stop offset=".84375"/>
      <stop offset="1"/>
    </linearGradient>
  </defs>
  <path d="m238.22 100.45c0 6.52-4.81 11.79-10.76 11.79h-216.71c-5.9354 0-10.75-5.27-10.75-11.79v-88.663c0-6.5039 4.8146-11.777 10.751-11.777l216.71 0.000151c5.95 0 10.76 5.273 10.76 11.777v88.663z"/>
  <path fill="url(#d)" d="m13.86 5.1405c-4.5974 0-8.326 5.1405-8.326 11.5 0 6.36 3.7286 11.512 8.326 11.512h178.92c4.6 0 8.31-5.152 8.31-11.512 0 0-3.71-11.5-8.31-11.5l-178.92 0.0005z"/>
  <path fill="url(#c)" d="m187.3 0.012226c-2.74 0-4.97 5.2611-4.97 11.777v100.44h273.94c2.75 0 4.97-5.27 4.97-11.78v-100.44l-273.94 0.002226z"/>
  <path fill="url(#b)" d="m183.2 5.1405c-0.54 1.8824-0.87 4.1751-0.87 6.6485v16.362h275.46v-23.011l-274.59 0.0002z"/>
  <path d="m61.468 66.718c0 9.484-6.178 16.399-18.764 17.75-9.098 0.977-22.275-0.169-28.55-0.893-0.205-1.014-0.386-2.281-0.386-3.306 0-8.254 4.452-10.16 8.639-10.16 4.369 0 11.234 0.76 16.314 0.76 5.635 0 7.337-1.907 7.337-3.729 0-2.365-2.257-3.342-6.613-4.187l-11.947-2.293c-9.918-1.906-15.203-8.772-15.203-16.049 0-8.857 6.262-16.266 18.594-17.629 9.316-1.013 20.67 0.133 26.897 0.893 0.205 1.062 0.338 2.076 0.338 3.174 0 8.265-4.368 10.039-8.555 10.039-3.222 0-8.217-0.592-13.937-0.592-5.804 0-8.217 1.605-8.217 3.56 0 2.076 2.28 2.92 5.924 3.56l11.403 2.111c11.681 2.16 16.724 8.821 16.724 16.99m20.441 10.172c0 5.08-1.991 8-11.898 8-1.315 0-2.461-0.084-3.56-0.253v-67.356c0-5.116 1.738-10.462 11.741-10.462 1.267 0.0003 2.534 0.133 3.717 0.3865v69.684zm40.523 26.051c1.31 0.68 3.98 1.47 7.33 1.56 5.76 0.13 8.9-2.08 11.23-7.242l30.87-68.876c-1.26-0.676-4.1-1.436-6.39-1.484-3.98-0.085-9.32 0.724-12.71 8.857l-9.99 23.59-19.63-31.94c-1.25-0.374-4.36-0.929-6.6-0.929-6.95 0-10.8 2.546-14.82 6.902l-19.064 20.837 15.325 24.145c2.849 4.416 6.579 6.66 12.629 6.66 3.99 0 7.29-0.941 8.81-1.653l-18.47-27.838 13.09-13.889 21.48 33.714-13.09 27.586z" fill="#ed332a"/>
  <g fill="#fff">
    <path d="m237.3 84.582v-37.177l-16.1 24.325h-0.34l-15.78-24.085v36.935h-12.37v-56.941h13.52l14.97 24.073 14.95-24.073h13.52v56.941h-12.37z"/>
    <path d="m280.33 42.277-7.57 18.462h15.13l-7.56-18.462zm17.24 42.306-5.2-12.778h-24.08l-5.2 12.778h-12.78l24.41-57.352h11.54l24.41 57.352h-13.1z"/>
    <path d="m346.87 84.582-12.77-19.524-12.86 19.524h-14.22l19.85-28.959-19.04-27.983h14.63l11.96 18.462 12.04-18.462h14.24l-19.04 27.814 19.86 29.128h-14.65z"/>
    <path d="m386.72 36.201h11.43v14.408h14.57v11.197h-14.57v14.492h-11.43v-14.492h-14.58v-11.197h14.58v-14.408z"/>
    <path d="m428.26 27.829h8.45v56.748h-12.23v-44.188l-9.82 2.414-2.59-10.148 16.19-4.827z"/>
  </g>
  <path d="m599.93 100.46c0 6.5-4.82 11.77-10.76 11.77h-140.4v-100.54c0-6.4892 4.9-11.69 10.85-11.69h140.38l-0.08 100.46z"/>
  <path d="m450.62 5.1526c-1.17 1.8583-1.85 4.1147-1.85 6.5404v16.483h145.37v-23.023l-143.52-0.0001z" fill="url(#a)"/>
  <path d="m504.91 84.404v-24.676h-30.79v24.676h-13.36v-57.147h13.36v23.397h30.79v-23.397h13.36v57.147h-13.36z" fill="#fff"/>
  <path d="m554.6 36.258h-14.15v39.06h14.27c15.17 0 19.81-0.604 19.81-19.44 0-18.848-4.75-19.621-19.93-19.621m28.42 40.434c-5.43 6.082-13.59 7.711-27.62 7.711h-28.07v-57.147h27.96c14.03 0 22.19 1.713 27.62 7.795 3.96 4.465 4.98 9.593 4.98 20.827 0 11.222-0.91 16.362-4.87 20.815" fill="#fff"/>
</svg>
