<svg xmlns="http://www.w3.org/2000/svg" height="82.84" width="600" viewBox="0 0 158.75 21.917439"><defs><linearGradient id="0" gradientUnits="userSpaceOnUse" x2="0" y1="21.27" y2=".649"><stop stop-color="#5a252a"/><stop stop-color="#cb082a" offset=".074"/><stop stop-color="#cb082a" offset=".916"/><stop stop-color="#e73440" offset="1"/></linearGradient><linearGradient id="1" gradientUnits="userSpaceOnUse" x2="0" y1="1.845" y2="81.09"><stop stop-color="#141c4b"/><stop stop-color="#1a2b68" offset=".036"/><stop stop-color="#1a2b68" offset=".895"/><stop stop-color="#141c4b" offset="1"/></linearGradient></defs><path d="m3 .647c-1.624 0-2.202.96-2.202 2.557v15.507c0 1.597.578 2.557 2.202 2.557 50.12-.025 105.32.022 152.84.019 1.48 0 1.99-.959 1.99-2.556v-15.497c0-1.582-.51-2.537-1.98-2.553-51.14.024-106.55-.034-152.85-.033" stroke-width="6.912" fill="url(#1)"/><path d="m3.149 0c-2.413 0-3.149 1.5-3.149 2.999v15.916c0 1.503.737 3 3.149 3h152.44c2.42 0 3.16-1.507 3.16-3v-15.92c0-1.496-.74-2.993-3.16-2.993-50.81 0-101.63 0-152.44 0m152.33.198c1.63 0 2.73.961 2.73 2.557v16.397c0 1.595-1.1 2.557-2.73 2.557-51.48.003-107.12.008-152.22.007-1.622 0-2.722-.96-2.722-2.556v-16.402c0-1.599 1.099-2.558 2.723-2.558 54 .003 108.32-.002 152.22-.003z" stroke-width="3.704" fill="#94979c"/><g fill="#fff" stroke-width=".98"><path d="m139.55 9.634v-2.914c0-.793.31-1.289 1.94-1.289l.58.039v9.556c0 .783-.32 1.289-1.94 1.289l-.58-.049v-4.342h-5.08v3.102c0 .783-.31 1.289-1.94 1.289l-.58-.049v-9.546c0-.793.33-1.289 1.96-1.289l.56.039v4.164h5.08m14.44 1.22c0-3.242-2.33-5.442-6.2-5.442h-2.64c-1.25 0-1.56.664-1.56 1.536v7.832c0 .842.31 1.526 1.56 1.526h2.64c3.87 0 6.2-2.2 6.2-5.452m-7.87 3.122v-6.234h1.81c2.54 0 3.47 1.635 3.47 3.112 0 1.477-.93 3.122-3.47 3.122h-1.81"/><path d="m120.8 8.495c-.16-.138-.3-.258-.5-.605-.54-.862-.56-2 .55-2.419l4.07-1.377h2v11.627c0 .893-.25 1.517-1.68 1.517-.56 0-1.24-.06-1.52-.119v-9.606l-2.92.981"/></g><path d="m38.916 21.268h77.04v-20.62h-77.04z" stroke-width="1.829" fill="url(#0)"/><g fill="#fff"><g stroke-width="1.829"><path d="m14.07 12.932c0 1.765-1.154 3.055-3.499 3.31-1.697.181-4.157-.032-5.324-.167-.044-.191-.077-.427-.077-.614 0-1.545.836-1.898 1.617-1.898.812 0 2.092.141 3.045.141 1.045 0 1.365-.355 1.365-.693 0-.443-.423-.628-1.235-.783l-2.224-.428c-1.851-.353-2.838-1.633-2.838-2.992 0-1.652 1.169-3.035 3.468-3.289 1.738-.188 3.853.024 5.01.167.042.199.064.388.064.594 0 1.54-.812 1.873-1.595 1.873-.601 0-1.534-.113-2.598-.113-1.085 0-1.535.3-1.535.666 0 .386.428.545 1.108.664l2.126.394c2.181.404 3.118 1.643 3.118 3.169m3.815 1.895c0 .948-.373 1.494-2.22 1.494-.245 0-.459-.019-.664-.047v-12.564c0-.952.323-1.947 2.191-1.947.234 0 .471.024.693.069zm7.555 4.859c.241.124.741.274 1.367.292 1.073.023 1.658-.388 2.091-1.348l5.76-12.847c-.238-.128-.763-.271-1.195-.28-.74-.015-1.733.137-2.37 1.653l-1.863 4.403-3.658-5.959c-.236-.071-.812-.176-1.234-.176-1.289 0-2.01.476-2.762 1.288l-3.556 3.89 2.861 4.502c.528.82 1.225 1.238 2.358 1.238.738 0 1.354-.169 1.639-.304l-3.443-5.195 2.44-2.584 4 6.283z"/><path d="m72.12 16.781c-.371 0-.672-.019-.904-.097-.233-.081-.412-.18-.538-.319-.127-.139-.253-.304-.299-.502-.047-.201-.11-.408-.11-.632v-9.988c0-.384.16-.711.398-.983.239-.271.71-.408 1.373-.408.278 0 .624.013.895.04.272.026.471.059.755.099v9.941h6.238c.028.284.057.338.09.551.032.211.051.453.051.732 0 .623-.129 1.026-.39 1.251-.257.226-.612.317-1.062.317z"/><path d="m95.6 16.903c-.282 0-.563-.013-.827-.041-.281-.026-.51-.058-.694-.098v-11.518c0-.385.123-.714.36-.985.238-.273.686-.408 1.354-.408.273 0 .554.013.827.038.264.027.501.06.686.101v11.52c0 .383-.124.71-.352.983-.246.272-.695.408-1.354.408"/><path d="m105.49 17.07c2.02 0 3.57-.479 4.66-1.452 1.09-.962 1.65-2.681 1.65-5.13-.02-2.411-.57-4.097-1.71-5.094-1.13-.971-2.65-1.472-4.6-1.472-1.92 0-3.45.501-4.58 1.472-1.131.997-1.685 2.683-1.702 5.094 0 2.449.554 4.168 1.632 5.13 1.1.973 2.66 1.452 4.65 1.452m3.09-6.582c0 1.472-.25 2.506-.75 3.116-.47.631-1.25.919-2.34.919-1.08-.017-1.87-.324-2.37-.919-.48-.592-.74-1.621-.74-3.116 0-1.476.27-2.508.77-3.104.5-.613 1.27-.896 2.34-.896 1.09 0 1.85.284 2.34.896.5.596.75 1.627.75 3.104"/><path d="m64.31 11.181l-1.261-3.973c-.157-.536-.464-.512-1.05-.448l-1.348 4.421zm-8.684 5.518l4.146-12.597c3.611-.68 5.478-.08 5.978 1.524l3.48 10.89c-.83.666-3.118.474-3.356-.238l-.722-2.289h-5.328l-.607 1.986c-.379.928-1.348 1.26-3.591.724"/><path d="m54.51 4.314c-.936-.214-2.066-.587-4.387-.587-4.127 0-7.328 2.853-7.328 6.603 0 3.705 2.977 6.684 7.328 6.684 2.927 0 4.5-.589 4.5-.589 0-.904-.019-2.503-1.325-2.503-.637 0-.896.233-2.789.233-1.752 0-4.234-1.133-4.234-3.813 0-2.147 1.88-3.727 4.234-3.727 1.495 0 1.86.229 2.648.229 1.189 0 1.466-1.249 1.353-2.529"/><path d="m91.89 4.314c-.941-.214-2.066-.587-4.392-.587-4.127 0-7.328 2.853-7.328 6.603 0 3.705 2.978 6.684 7.328 6.684 2.924 0 4.498-.589 4.498-.589 0-.904-.018-2.503-1.319-2.503-.642 0-.897.233-2.792.233-1.752 0-4.234-1.133-4.234-3.813 0-2.147 1.88-3.727 4.234-3.727 1.491 0 1.86.229 2.651.229 1.187 0 1.46-1.249 1.354-2.529"/></g><path opacity=".4" d="m155.69 16.519c1.52 1.384 1.72 2.69 1.78 2.977.15 0 .2-.612.2-1.525l-.001-14.639c0-1.695-.59-2.268-2.15-2.268-.51 0-1.04.262-1.74.262h-148.9c-.7 0-1.225-.262-1.75-.262-1.548 0-2.144.572-2.144 2.268l-.006 14.638c0 .913.055 1.526.204 1.526.053-.288.099-1.696 1.767-2.978 13.326-9.525 138.38-12.447 152.75 0" stroke-width="1.9"/></g></svg>