<svg xmlns="http://www.w3.org/2000/svg" viewBox="0 0 600 92.65" xmlns:xlink="http://www.w3.org/1999/xlink"><defs><linearGradient id="3" gradientUnits="userSpaceOnUse" x2="0" y1="92.64" y2=".003"><stop stop-color="#881719"/><stop stop-color="#db1f2b" offset=".495"/><stop stop-color="#db1f2b" offset="1"/></linearGradient><linearGradient id="2" gradientUnits="userSpaceOnUse" x2="0" y1="4.234" y2="23.23"><stop stop-color="#505456"/><stop offset=".844"/><stop offset="1"/></linearGradient><linearGradient id="0" gradientUnits="userSpaceOnUse" x2="0" y1="4.22" y2="23.275" xlink:href="#2"/><linearGradient id="1" gradientUnits="userSpaceOnUse" x2="0" y1="4.234" y2="23.23"><stop stop-color="#f37921"/><stop stop-color="#dd1f26" offset=".844"/><stop stop-color="#dd1f26" offset="1"/></linearGradient></defs><path d="m196.57 82.912c0 5.377-3.97 9.726-8.88 9.726h-178.8c-4.913 0-8.89-4.349-8.89-9.726v-73.18c0-5.377 3.977-9.736 8.884-9.736h178.81c4.91 0 8.89 4.359 8.89 9.736v73.18z"/><path fill="url(#2)" d="m11.45 4.232c-3.791 0-6.866 4.251-6.866 9.501s3.075 9.501 6.866 9.501h147.63c3.78 0 6.86-4.251 6.86-9.501-.16-.441-.48-9.501-6.87-9.501h-147.63z"/><path fill="url(#3)" d="m159.33 0c-4.9 0-8.88 4.359-8.88 9.726v82.922h341.08c4.9 0 8.87-4.359 8.87-9.736v-82.912h-341.07"/><path fill="url(#1)" d="m151.99 4.232c-.98 1.567-1.54 3.458-1.54 5.495v13.507h336.74v-19h-335.19z"/><path fill="#ed332a" d="m50.742 55.07c0 7.826-5.103 13.526-15.495 14.653-7.513.803-18.385-.147-23.556-.745-.177-.832-.314-1.88-.314-2.722 0-6.818 3.664-8.395 7.121-8.395 3.614 0 9.276.637 13.468.637 4.653 0 6.05-1.577 6.05-3.075 0-1.959-1.861-2.763-5.455-3.468l-9.865-1.892c-8.188-1.567-12.547-7.229-12.547-13.243 0-7.316 5.171-13.429 15.339-14.555 7.698-.832 17.06.108 22.2.745.176.871.284 1.704.284 2.615 0 6.817-3.605 8.286-7.06 8.286-2.655 0-6.788-.49-11.499-.49-4.8 0-6.788 1.333-6.788 2.939 0 1.714 1.89 2.409 4.897 2.938l9.403 1.744c9.648 1.792 13.811 7.277 13.811 14.03m16.876 8.394c0 4.192-1.645 6.601-9.824 6.601-1.087 0-2.027-.068-2.938-.205v-55.59c0-4.232 1.43-8.639 9.687-8.639 1.048 0 2.096.108 3.075.314v57.52zm33.442 21.499c1.08.558 3.29 1.224 6.05 1.293 4.76.107 7.35-1.714 9.27-5.975l25.49-56.858c-1.04-.558-3.38-1.185-5.27-1.224-3.29-.069-7.7.597-10.5 7.306l-8.25 19.481-16.19-26.367c-1.05-.313-3.608-.764-5.459-.764-5.73 0-8.913 2.097-12.234 5.691l-15.739 17.209 12.655 19.922c2.351 3.644 5.426 5.495 10.422 5.495 3.291 0 6.01-.764 7.277-1.362l-15.251-22.969 10.813-11.469 17.736 27.826-10.82 22.763z"/><g fill="#fff"><path d="m202.46 62.43c-1.2 1.293-2.45 2.458-3.75 3.487-1.3 1.028-2.71 1.91-4.26 2.644-1.54.735-3.23 1.303-5.06 1.675-1.83.382-3.89.578-6.16.578-3.45 0-6.64-.637-9.59-1.881-2.95-1.253-5.5-2.958-7.64-5.132-2.15-2.165-3.82-4.721-5.03-7.669s-1.81-6.102-1.81-9.452v-.137c0-3.35.6-6.494 1.81-9.423 1.21-2.928 2.88-5.495 5.03-7.708 2.14-2.204 4.71-3.957 7.71-5.231 2.99-1.263 6.29-1.91 9.92-1.91 2.23 0 4.24.187 6.03.539 1.78.363 3.42.852 4.89 1.479 1.48.627 2.84 1.381 4.09 2.273 1.26.901 2.41 1.88 3.49 2.958l-6.57 7.571c-1.83-1.655-3.7-2.948-5.59-3.889-1.9-.94-4.04-1.41-6.41-1.41-1.97 0-3.79.382-5.47 1.146-1.67.754-3.11 1.802-4.31 3.144-1.21 1.342-2.15 2.899-2.83 4.662-.66 1.763-.99 3.654-.99 5.662v.137c0 2.01.33 3.908.99 5.7.68 1.783 1.6 3.35 2.79 4.692 1.18 1.332 2.61 2.4 4.29 3.183 1.68.784 3.52 1.176 5.53 1.176 2.68 0 4.95-.51 6.81-1.509 1.85-1.01 3.69-2.341 5.52-3.996l6.57 6.641"/><path d="m204.47 23.08h10.33v46.926h-10.33v-46.926"/><path d="m252.73 70l-22.72-29.825v29.825h-10.19v-46.926h9.52l21.98 28.894v-28.894h10.2v46.926h-8.79"/><path d="m266.07 70v-46.926h35.33v9.187h-25.14v9.521h22.13v9.177h-22.13v9.854h25.48v9.187h-35.67"/><path d="m342.36 70v-30.638l-13.27 20.05h-.27l-13-19.844v30.432h-10.2v-46.926h11.13l12.34 19.844 12.33-19.844h11.13v46.926h-10.19"/><path d="m377.82 35.15l-6.24 15.221h12.48l-6.24-15.221m14.22 34.859l-4.29-10.529h-19.85l-4.29 10.529h-10.52l20.11-47.26h9.52l20.11 47.26h-10.79"/><path d="m423.54 29.715h9.52v11.999h12.14v9.315h-12.14v12.07h-9.52v-12.07h-12.13v-9.315h12.13v-11.999"/><path d="m458.13 22.743h7.05v47.26h-10.2v-36.799l-8.18 2.01-2.14-8.443 13.47-4.03"/></g><path d="m599.94 82.921c0 5.367-3.97 9.726-8.88 9.726h-115.94v-82.971c0-5.377 4.05-9.668 8.96-9.668h115.92l-.06 82.912"/><path fill="url(#0)" d="m476.68 4.222c-.98 1.548-1.55 3.428-1.55 5.456v13.595h120.04v-19.05h-118.49"/><g fill="#fff"><path d="m521.49 69.71v-20.373h-25.42v20.373h-11.04v-47.18h11.04v19.315h25.42v-19.315h11.03v47.18h-11.03"/><path d="m562.52 29.952h-11.68v32.25h11.78c12.53 0 16.36-.5 16.36-16.05 0-15.564-3.93-16.2-16.46-16.2m23.46 33.39c-4.47 5.02-11.2 6.366-22.8 6.366h-23.17v-47.19h23.08c11.59 0 18.33 1.421 22.8 6.445 3.29 3.683 4.13 7.914 4.13 17.19 0 9.266-.76 13.507-4.04 17.19"/></g></svg>