<?xml version="1.0" encoding="UTF-8" standalone="no"?>
<svg xmlns:rdf="http://www.w3.org/1999/02/22-rdf-syntax-ns#" xmlns="http://www.w3.org/2000/svg" xmlns:cc="http://creativecommons.org/ns#" xmlns:dc="http://purl.org/dc/elements/1.1/" height="139.59" width="600" version="1.1">
  <defs>
    <linearGradient id="c" gradientUnits="userSpaceOnUse" gradientTransform="matrix(-6.8419e-7 28.626 -13.749 -.0000014245 408.08 6.3844)" x1="0" x2="1" y1="0" y2="0">
      <stop stop-color="#f37921" offset="0"/>
      <stop stop-color="#dd1f26" offset=".84375"/>
      <stop stop-color="#dd1f26" offset="1"/>
    </linearGradient>
    <linearGradient id="b" gradientUnits="userSpaceOnUse" gradientTransform="matrix(-.0000027264 -139.58 66.789 -.0000056980 413.34 139.59)" x1="0" x2="1" y1="0" y2="0">
      <stop stop-color="#881719" offset="0"/>
      <stop stop-color="#db1f2b" offset=".49479"/>
      <stop stop-color="#db1f2b" offset="1"/>
    </linearGradient>
    <linearGradient id="a" gradientUnits="userSpaceOnUse" gradientTransform="matrix(-.0000014245 28.626 -28.626 -.0000014245 128.45 6.3844)" x1="0" x2="1" y1="0" y2="0">
      <stop stop-color="#505456" offset="0"/>
      <stop offset=".84375"/>
      <stop offset="1"/>
    </linearGradient>
  </defs>
  <path d="m296.19 124.93c0 8.09-6 14.66-13.39 14.66h-269.42c-7.3972 0-13.38-6.57-13.38-14.66v-110.26c0-8.1026 5.9828-14.67 13.376-14.67h269.41c7.4 0 13.4 6.567 13.4 14.672v110.26z"/>
  <path fill="url(#a)" d="m17.222 6.3779c-5.698 0-10.328 6.4101-10.328 14.316 0.0004 7.906 4.63 14.317 10.328 14.317h222.45c5.71 0 10.34-6.411 10.34-14.317-0.21-0.655-1.75-14.316-10.34-14.316l-222.45-0.0001z"/>
  <path fill="url(#b)" d="m233.08 0.010342c-3.53 0-6.4 6.567-6.4 14.658v124.91h366.91c3.54 0 6.41-6.55 6.41-14.64v-124.93l-366.93 0.000342z"/>
  <path fill="url(#c)" d="m227.8 6.3779c-0.71 2.3646-1.12 5.2141-1.12 8.2911v20.342h368.3v-28.633l-367.18-0.0001z"/>
  <path d="m76.451 82.986c0 11.795-7.692 20.384-23.332 22.084-11.325 1.19-27.693-0.22-35.498-1.13-0.257-1.25-0.47-2.83-0.47-4.102 0-10.271 5.527-12.635 10.74-12.635 5.428 0 13.961 0.94 20.285 0.94 6.994 0 9.117-2.365 9.117-4.63 0-2.949-2.807-4.159-8.22-5.214l-14.859-2.849c-12.336-2.364-18.903-10.897-18.903-19.956 0-11.012 7.777-20.229 23.105-21.909 11.595-1.268 25.713 0.157 33.447 1.111 0.271 1.311 0.428 2.579 0.428 3.946 0 10.271-5.428 12.479-10.641 12.479-4.003 0-10.214-0.727-17.322-0.727-7.222 0-10.213 1.994-10.213 4.416 0 2.578 2.834 3.633 7.364 4.416l14.174 2.635c14.53 2.693 20.797 10.955 20.797 21.126m25.41 12.635c0 6.328-2.461 9.958-14.782 9.958-1.638 0-3.063-0.1-4.43-0.31v-83.75c0-6.367 2.165-13.005 14.587-13.005 1.581-0.0003 3.165 0.1563 4.625 0.4698v86.638zm50.39 32.408c1.64 0.83 4.96 1.84 9.11 1.94 7.17 0.15 11.06-2.58 13.97-9.01l38.39-85.636c-1.59-0.84-5.12-1.795-7.95-1.837-4.96-0.114-11.6 0.883-15.82 10.997l-12.42 29.344-24.4-39.716c-1.56-0.47-5.41-1.153-8.2-1.153-8.64 0-13.44 3.162-18.44 8.575l-23.71 25.911 19.06 30.03c3.54 5.485 8.17 8.265 15.69 8.265 4.96 0 9.06-1.16 10.96-2.05l-22.97-34.605 16.27-17.28 26.72 41.924-16.28 34.301z" fill="#ed332a"/>
  <g fill="#fff">
    <path d="m255.01 48.593v15.228h33.69v14.031h-33.69v27.338h-15.54v-70.615h53.77v14.017h-38.23z"/>
    <path d="m326.72 52.738-9.39 22.892h18.78l-9.39-22.892zm21.41 52.452-6.47-15.841h-29.85l-6.46 15.841h-15.84l30.27-71.127h14.32l30.27 71.127h-16.24z"/>
    <path d="m420.47 105.19v-46.11l-19.97 30.171h-0.42l-19.57-29.858v45.797h-15.33v-70.627h16.75l18.57 29.872 18.56-29.872h16.75v70.627h-15.34z"/>
    <path d="m443.36 34.568h15.55v70.632h-15.55v-70.632z"/>
    <path d="m466.47 105.19v-70.626h15.54v56.609h35.2v14.017h-50.74z"/>
    <path d="m554.24 77.044v28.146h-15.54v-27.848l-27.14-42.778h18.17l16.85 28.348 17.15-28.348h17.65l-27.14 42.479z"/>
  </g>
</svg>
