<svg xmlns="http://www.w3.org/2000/svg" viewBox="0 0 600 103.5" xmlns:xlink="http://www.w3.org/1999/xlink"><defs><linearGradient id="3" gradientUnits="userSpaceOnUse" x2="0" y1="4.728" y2="25.952"><stop stop-color="#f37921"/><stop stop-color="#dd1f26" offset=".844"/><stop stop-color="#dd1f26" offset="1"/></linearGradient><linearGradient id="2" gradientUnits="userSpaceOnUse" x2="0" y1="4.75" y2="25.988"><stop stop-color="#505356"/><stop offset=".844"/><stop offset="1"/></linearGradient><linearGradient id="0" gradientUnits="userSpaceOnUse" x2="0" y1="4.729" y2="25.952" xlink:href="#2"/><linearGradient id="1" gradientUnits="userSpaceOnUse" x2="0" y1="103.49" y2="0"><stop stop-color="#881719"/><stop stop-color="#db1f2b" offset=".495"/><stop stop-color="#db1f2b" offset="1"/></linearGradient></defs><path d="m219.57 92.62c0 6-4.44 10.871-9.92 10.871h-199.73c-5.48 0-9.92-4.868-9.92-10.871v-81.75c0-6 4.44-10.867 9.924-10.867h199.73c5.48 0 9.92 4.864 9.92 10.867v81.75z"/><path fill="url(#0)" d="m12.78 4.731c-4.236 0-7.661 4.754-7.661 10.604 0 5.871 3.425 10.617 7.661 10.617h164.9c4.23 0 7.66-4.747 7.66-10.617-.32-.964-.13-10.604-7.66-10.604h-164.9"/><path fill="url(#1)" d="m177.97.007c-5.47 0-9.92 4.864-9.92 10.859v92.62h346.58c5.49 0 9.94-4.869 9.94-10.865v-92.62h-346.6"/><path fill="url(#3)" d="m169.78 4.731c-1.11 1.745-1.74 3.856-1.74 6.135v15.09h335.1v-21.22h-333.36"/><path fill="#ed332a" d="m56.688 61.51c0 8.749-5.703 15.11-17.3 16.365-8.391.898-20.535-.16-26.318-.825-.19-.935-.35-2.111-.35-3.045 0-7.61 4.096-9.37 7.966-9.37 4.02 0 10.348.702 15.04.702 5.192 0 6.755-1.76 6.755-3.433 0-2.191-2.074-3.088-6.091-3.87l-11.01-2.11c-9.143-1.753-14.02-8.09-14.02-14.795 0-8.165 5.777-14.999 17.14-16.249 8.595-.934 19.05.117 24.8.826.19.971.314 1.905.314 2.927 0 7.61-4.02 9.254-7.887 9.254-2.972 0-7.58-.549-12.852-.549-5.345 0-7.573 1.483-7.573 3.28 0 1.913 2.103 2.694 5.462 3.278l10.509 1.957c10.779 1.987 15.422 8.121 15.422 15.658m18.849 9.369c0 4.689-1.84 7.383-10.977 7.383-1.211 0-2.263-.08-3.278-.234v-62.09c0-4.725 1.6-9.647 10.815-9.647 1.176 0 2.344.117 3.44.351v64.23zm37.35 24.02c1.21.621 3.67 1.365 6.74 1.446 5.33.117 8.22-1.913 10.36-6.682l28.46-63.49c-1.17-.628-3.78-1.33-5.89-1.365-3.67-.081-8.6.657-11.72 8.156l-9.22 21.748-18.07-29.437c-1.17-.35-4.03-.862-6.1-.862-6.4 0-9.945 2.344-13.653 6.361l-17.578 19.213 14.14 22.265c2.621 4.061 6.05 6.127 11.633 6.127 3.67 0 6.72-.854 8.13-1.519l-17.03-25.661 12.07-12.809 19.8 31.09-12.06 25.42z"/><g fill="#fff"><path d="m225.91 69.56c-1.35 1.453-2.75 2.746-4.2 3.892-1.44 1.146-3.04 2.132-4.74 2.958-1.73.824-3.62 1.446-5.66 1.869-2.05.423-4.35.635-6.89.635-3.84 0-7.41-.694-10.71-2.095-3.3-1.395-6.13-3.301-8.53-5.726-2.39-2.417-4.27-5.28-5.62-8.566-1.35-3.3-2.02-6.82-2.02-10.56v-.153c0-3.739.67-7.244 2.02-10.515 1.35-3.272 3.23-6.142 5.62-8.61 2.4-2.469 5.26-4.419 8.61-5.842 3.34-1.425 7.03-2.133 11.08-2.133 2.5 0 4.74.198 6.74.599 1.99.401 3.82.949 5.46 1.651 1.66.7 3.18 1.548 4.57 2.541 1.4 1 2.69 2.095 3.9 3.293l-7.34 8.464c-2.06-1.848-4.13-3.293-6.25-4.345-2.13-1.045-4.51-1.57-7.15-1.57-2.21 0-4.24.423-6.11 1.271-1.87.854-3.48 2.02-4.83 3.52-1.34 1.496-2.39 3.234-3.14 5.206-.75 1.964-1.12 4.076-1.12 6.324v.146c0 2.25.37 4.367 1.12 6.369.75 1.993 1.78 3.738 3.11 5.235 1.32 1.505 2.92 2.687 4.79 3.563 1.86.87 3.93 1.308 6.18 1.308 2.99 0 5.52-.562 7.59-1.687 2.08-1.124 4.13-2.607 6.18-4.454l7.34 7.412"/><path d="m228.15 25.61h11.53v52.4h-11.53v-52.4"/><path d="m282.06 78.02l-25.38-33.31v33.31h-11.38v-52.4h10.63l24.56 32.26v-32.26h11.38v52.4h-9.81"/><path d="m296.96 78.02v-52.4h39.45v10.253h-28.07v10.632h24.71v10.253h-24.71v11h28.45v10.26h-39.83"/><path d="m382.16 78.02v-34.21l-14.83 22.383h-.3l-14.53-22.16v33.987h-11.38v-52.4h12.44l13.77 22.16 13.77-22.16h12.43v52.4h-11.37"/><path d="m421.76 39.09l-6.97 16.992h13.93l-6.96-16.992m15.86 38.929l-4.78-11.758h-22.17l-4.78 11.758h-11.76l22.46-52.783h10.64l22.46 52.783h-12.07"/></g><path d="m599.92 92.64c0 5.995-4.44 10.857-9.92 10.857h-129.47v-92.7c0-5.996 4.51-10.793 10-10.793h129.47l-.07 92.64z"/><path fill="url(#2)" d="m462.25 4.753c-1.09 1.716-1.72 3.797-1.72 6.05v15.182h134.06v-21.23h-132.35z"/><g fill="#fff"><path d="m512.3 77.84v-22.748h-28.39v22.748h-12.33v-52.695h12.33v21.571h28.39v-21.571h12.32v52.695h-12.32"/><path d="m558.13 33.444h-13.05v36.02h13.16c13.99 0 18.27-.555 18.27-17.928 0-17.387-4.38-18.09-18.38-18.09m26.2 37.29c-5.01 5.609-12.52 7.105-25.47 7.105h-25.88v-52.695h25.78c12.94 0 20.47 1.578 25.46 7.185 3.66 4.112 4.61 8.845 4.61 19.21 0 10.341-.84 15.08-4.5 19.2"/></g></svg>