<svg xmlns="http://www.w3.org/2000/svg" viewBox="0 0 600 93.42" xmlns:xlink="http://www.w3.org/1999/xlink"><defs><linearGradient id="3" gradientUnits="userSpaceOnUse" gradientTransform="matrix(0-93.419 53.549 0 323.27 93.42)" x1="0" x2="1"><stop stop-color="#881719"/><stop stop-color="#db1f2b" offset=".495"/><stop stop-color="#db1f2b" offset="1"/></linearGradient><linearGradient id="2" gradientUnits="userSpaceOnUse" x2="0" y1="4.262" y2="23.405"><stop stop-color="#505456"/><stop offset=".844"/><stop offset="1"/></linearGradient><linearGradient id="0" gradientUnits="userSpaceOnUse" x2="0" y1="4.33" y2="23.46" xlink:href="#2"/><linearGradient id="1" gradientUnits="userSpaceOnUse" gradientTransform="matrix(0 19.22-11.017 0 320.4 4.262)" x1="0" x2="1"><stop stop-color="#f37921"/><stop stop-color="#dd1f26" offset=".844"/><stop stop-color="#dd1f26" offset="1"/></linearGradient></defs><path d="m198.12 83.54c0 5.416-4 9.801-8.95 9.801h-180.21c-4.956 0-8.96-4.386-8.96-9.801v-73.74c0-5.415 4-9.801 8.952-9.801h180.21c4.95 0 8.96 4.386 8.96 9.801v73.74z"/><path fill="url(#2)" d="m11.526 4.265c-3.813 0-6.912 4.29-6.912 9.572s3.098 9.572 6.912 9.572h148.81c3.81 0 6.91-4.29 6.91-9.572 0 0-3.1-9.572-6.91-9.572h-148.81"/><path fill="url(#3)" d="m151.63 9.811v83.54l338.14.076c2.83 0 5.14-4.385 5.14-9.801v-83.55l-338.14-.077c-2.83 0-5.13 4.395-5.13 9.81"/><path fill="url(#1)" d="m151.63 9.804v13.605l341.91.076v-19.14l-341.02-.076c-.56 1.573-.89 3.48-.89 5.539"/><path d="m51.12 55.49c0 7.894-5.149 13.643-15.618 14.768-7.57.811-18.534-.143-23.749-.743-.181-.839-.314-1.898-.314-2.746 0-6.874 3.689-8.457 7.179-8.457 3.632 0 9.343.629 13.576.629 4.681 0 6.102-1.582 6.102-3.098 0-1.974-1.869-2.784-5.501-3.489l-9.944-1.907c-8.247-1.582-12.651-7.293-12.651-13.357 0-7.361 5.215-13.53 15.474-14.664 7.751-.839 17.199.105 22.386.744.171.877.276 1.726.276 2.641 0 6.874-3.632 8.352-7.112 8.352-2.689 0-6.846-.486-11.603-.486-4.824 0-6.836 1.334-6.836 2.955 0 1.726 1.897 2.431 4.929 2.965l9.486 1.764c9.725 1.792 13.92 7.322 13.92 14.13m17.01 8.457c0 4.233-1.659 6.664-9.896 6.664-1.096 0-2.05-.076-2.965-.219v-56.03c0-4.262 1.44-8.705 9.763-8.705 1.058 0 2.116.105 3.098.315v57.976zm33.715 21.68c1.09.553 3.32 1.23 6.1 1.306 4.79.095 7.4-1.735 9.34-6.03l25.69-57.31c-1.05-.563-3.42-1.192-5.32-1.23-3.31-.067-7.75.601-10.58 7.37l-8.3 19.63-16.33-26.58c-1.05-.315-3.629-.773-5.488-.773-5.787 0-8.991 2.117-12.337 5.74l-15.86 17.342 12.756 20.1c2.364 3.661 5.463 5.53 10.506 5.53 3.308 0 6.06-.773 7.332-1.373l-15.369-23.16 10.888-11.565 17.872 28.06-10.9 22.949" fill="#ed332a"/><g fill="#fff"><path d="m203.97 62.66c-1.21 1.306-2.48 2.479-3.78 3.508-1.31 1.039-2.74 1.926-4.28 2.67-1.57.743-3.26 1.306-5.1 1.697-1.85.381-3.92.572-6.22.572-3.47 0-6.68-.63-9.66-1.898-2.97-1.258-5.54-2.974-7.7-5.167-2.16-2.183-3.85-4.757-5.06-7.732-1.22-2.975-1.83-6.14-1.83-9.525v-.133c0-3.375.61-6.54 1.83-9.486 1.21-2.956 2.9-5.54 5.06-7.771s4.75-3.985 7.77-5.272c3.01-1.278 6.35-1.916 9.99-1.916 2.25 0 4.28.171 6.08.534 1.81.362 3.45.858 4.93 1.487 1.49.629 2.86 1.401 4.12 2.297 1.26.897 2.43 1.888 3.52 2.975l-6.63 7.627c-1.84-1.668-3.71-2.965-5.63-3.918-1.92-.944-4.06-1.411-6.46-1.411-1.98 0-3.81.381-5.5 1.144-1.68.763-3.14 1.821-4.35 3.175-1.22 1.354-2.17 2.917-2.84 4.69-.68 1.783-1.02 3.681-1.02 5.711v.134c0 2.03.34 3.937 1.02 5.739.67 1.802 1.61 3.375 2.8 4.729s2.64 2.422 4.33 3.213c1.68.782 3.54 1.182 5.56 1.182 2.71 0 4.99-.515 6.86-1.525 1.87-1.01 3.73-2.346 5.58-4.01l6.61 6.683z"/><path d="m205.53 70.3v-47.28h10.4v37.887h23.57v9.391h-33.98z"/><path d="m265.5 35.17l-6.28 15.332h12.57l-6.29-15.332m14.32 35.12l-4.32-10.602h-19.99l-4.33 10.602h-10.6l20.26-47.622h9.59l20.27 47.622h-10.87z"/><path d="m327.43 56.32c0 2.345-.42 4.423-1.28 6.244-.84 1.831-2.03 3.356-3.55 4.596-1.52 1.239-3.34 2.183-5.45 2.831-2.1.658-4.44.982-7.01.982-3.6 0-7.13-.619-10.6-1.859-3.47-1.23-6.62-3.136-9.45-5.701l6.14-7.36c2.16 1.754 4.37 3.146 6.65 4.185 2.27 1.03 4.76 1.554 7.47 1.554 2.15 0 3.83-.4 5.02-1.182 1.2-.791 1.79-1.878 1.79-3.28v-.133c0-.677-.12-1.268-.37-1.792-.25-.515-.72-1-1.42-1.45-.69-.448-1.67-.896-2.92-1.353-1.24-.449-2.85-.925-4.84-1.421-2.38-.629-4.56-1.287-6.49-1.993-1.95-.696-3.6-1.573-4.95-2.631s-2.4-2.374-3.15-3.947c-.74-1.583-1.11-3.537-1.11-5.882v-.134c0-2.155.4-4.109 1.2-5.844.81-1.726 1.94-3.223 3.39-4.491 1.45-1.258 3.19-2.221 5.21-2.898s4.24-1.02 6.67-1.02c3.47 0 6.66.524 9.57 1.554 2.89 1.039 5.56 2.526 7.99 4.462l-5.4 7.836c-2.12-1.439-4.19-2.583-6.21-3.413-2.03-.829-4.05-1.249-6.08-1.249s-3.55.391-4.56 1.183c-1.01.781-1.52 1.763-1.52 2.936v.133c0 .773.15 1.43.45 1.993.28.562.82 1.068 1.58 1.525.77.449 1.82.878 3.15 1.278 1.34.41 3.02.877 5.05 1.421 2.39.629 4.53 1.344 6.39 2.126 1.88.791 3.47 1.735 4.75 2.841s2.25 2.393 2.91 3.88c.65 1.487.98 3.261.98 5.339v.134"/><path d="m365.93 56.32c0 2.345-.43 4.423-1.28 6.244-.85 1.831-2.03 3.356-3.56 4.596-1.51 1.239-3.33 2.183-5.44 2.831-2.11.658-4.44.982-7.02.982-3.59 0-7.13-.619-10.6-1.859-3.47-1.23-6.62-3.136-9.46-5.701l6.15-7.36c2.17 1.754 4.38 3.146 6.66 4.185 2.27 1.03 4.75 1.554 7.46 1.554 2.16 0 3.84-.4 5.03-1.182 1.2-.791 1.79-1.878 1.79-3.28v-.133c0-.677-.12-1.268-.37-1.792-.25-.515-.73-1-1.42-1.45-.7-.448-1.67-.896-2.91-1.353-1.25-.449-2.86-.925-4.84-1.421-2.4-.629-4.56-1.287-6.51-1.993-1.94-.696-3.59-1.573-4.94-2.631-1.36-1.058-2.41-2.374-3.15-3.947-.74-1.583-1.12-3.537-1.12-5.882v-.134c0-2.155.4-4.109 1.2-5.844.82-1.726 1.94-3.223 3.4-4.491 1.45-1.258 3.18-2.221 5.2-2.898 2.03-.677 4.25-1.02 6.68-1.02 3.47 0 6.65.524 9.56 1.554 2.9 1.039 5.57 2.526 8 4.462l-5.41 7.836c-2.11-1.439-4.18-2.583-6.2-3.413-2.03-.829-4.05-1.249-6.08-1.249-2.04 0-3.55.391-4.56 1.183-1.01.781-1.52 1.763-1.52 2.936v.133c0 .773.14 1.43.44 1.993.3.562.82 1.068 1.58 1.525.78.449 1.82.878 3.16 1.278 1.33.41 3.01.877 5.04 1.421 2.4.629 4.53 1.344 6.4 2.126 1.88.791 3.46 1.735 4.75 2.841 1.28 1.106 2.25 2.393 2.91 3.88.65 1.487.98 3.261.98 5.339v.134"/><path d="m368.7 23.02h10.41v47.28h-10.41v-47.28"/><path d="m425.71 62.66c-1.21 1.306-2.48 2.479-3.79 3.508-1.3 1.039-2.73 1.926-4.28 2.67-1.55.743-3.26 1.306-5.1 1.697-1.85.381-3.92.572-6.22.572-3.47 0-6.69-.63-9.65-1.898-2.98-1.258-5.54-2.974-7.71-5.167-2.15-2.183-3.85-4.757-5.06-7.732-1.22-2.975-1.82-6.14-1.82-9.525v-.133c0-3.375.6-6.54 1.82-9.486 1.21-2.956 2.91-5.54 5.06-7.771 2.17-2.231 4.75-3.985 7.77-5.272 3.02-1.278 6.35-1.916 9.99-1.916 2.26 0 4.28.171 6.09.534 1.8.362 3.44.858 4.93 1.487 1.48.629 2.86 1.401 4.11 2.297 1.27.897 2.44 1.888 3.52 2.975l-6.62 7.627c-1.84-1.668-3.72-2.965-5.64-3.918-1.91-.944-4.06-1.411-6.45-1.411-1.99 0-3.82.381-5.5 1.144-1.69.763-3.15 1.821-4.36 3.175-1.22 1.354-2.16 2.917-2.84 4.69-.67 1.783-1.01 3.681-1.01 5.711v.134c0 2.03.34 3.937 1.01 5.739.68 1.802 1.61 3.375 2.8 4.729s2.64 2.422 4.33 3.213c1.69.782 3.55 1.182 5.57 1.182 2.71 0 4.98-.515 6.85-1.525 1.87-1.01 3.73-2.346 5.58-4.01l6.62 6.683z"/><path d="m464.13 56.32c0 2.345-.42 4.423-1.28 6.244-.85 1.831-2.03 3.356-3.55 4.596-1.52 1.239-3.34 2.183-5.45 2.831-2.1.658-4.44.982-7.01.982-3.6 0-7.14-.619-10.61-1.859-3.47-1.23-6.61-3.136-9.44-5.701l6.14-7.36c2.16 1.754 4.37 3.146 6.65 4.185 2.27 1.03 4.76 1.554 7.47 1.554 2.15 0 3.83-.4 5.02-1.182 1.2-.791 1.79-1.878 1.79-3.28v-.133c0-.677-.12-1.268-.37-1.792-.25-.515-.72-1-1.42-1.45s-1.67-.896-2.92-1.353c-1.24-.449-2.85-.925-4.83-1.421-2.39-.629-4.57-1.287-6.5-1.993-1.95-.696-3.6-1.573-4.95-2.631-1.36-1.058-2.4-2.374-3.15-3.947-.74-1.583-1.11-3.537-1.11-5.882v-.134c0-2.155.4-4.109 1.2-5.844.81-1.726 1.93-3.223 3.39-4.491 1.45-1.258 3.2-2.221 5.21-2.898 2.02-.677 4.24-1.02 6.67-1.02 3.47 0 6.66.524 9.56 1.554 2.9 1.039 5.57 2.526 8 4.462l-5.4 7.836c-2.11-1.439-4.19-2.583-6.21-3.413-2.03-.829-4.05-1.249-6.08-1.249-2.02 0-3.55.391-4.56 1.183-1.01.781-1.51 1.763-1.51 2.936v.133c0 .773.14 1.43.43 1.993.3.562.82 1.068 1.6 1.525.76.449 1.81.878 3.14 1.278 1.34.41 3.01.877 5.05 1.421 2.39.629 4.52 1.344 6.39 2.126 1.88.791 3.46 1.735 4.75 2.841s2.25 2.393 2.91 3.88.98 3.261.98 5.339v.134"/></g><path d="m599.93 83.62c0 5.415-4 9.801-8.95 9.801h-116.87v-83.68c0-5.406 4.08-9.658 9.03-9.658h116.86l-.07 83.54"/><path fill="url(#0)" d="m475.66 4.331c-.97 1.535-1.54 3.394-1.54 5.425v13.71h121v-19.14h-119.46"/><g fill="#fff"><path d="m520.86 70.26v-20.536h-25.62v20.536h-11.13v-47.565h11.13v19.468h25.62v-19.468h11.12v47.565h-11.12"/><path d="m562.22 30.19h-11.78v32.52h11.88c12.63 0 16.49-.505 16.49-16.188 0-15.693-3.96-16.332-16.59-16.332m23.64 33.655c-4.51 5.062-11.29 6.416-22.97 6.416h-23.37v-47.565h23.26c11.69 0 18.48 1.43 23 6.492 3.3 3.719 4.15 7.98 4.15 17.333 0 9.334-.76 13.615-4.07 17.323"/></g></svg>