<svg xmlns="http://www.w3.org/2000/svg" viewBox="0 0 600 125.11"><defs><linearGradient id="0" gradientUnits="userSpaceOnUse" gradientTransform="matrix(0 25.658-24.741 0 393.5 5.715)" x1="0" x2="1"><stop stop-color="#f37921"/><stop stop-color="#dd1f26" offset=".844"/><stop stop-color="#dd1f26" offset="1"/></linearGradient><linearGradient id="1" gradientUnits="userSpaceOnUse" gradientTransform="matrix(0-125.1 115.2 0 401.56 125.11)" x1="0" x2="1"><stop stop-color="#881719"/><stop stop-color="#db1f2b" offset=".495"/><stop stop-color="#db1f2b" offset="1"/></linearGradient><linearGradient id="2" gradientUnits="userSpaceOnUse" x2="0" y1="5.717" y2="31.373"><stop stop-color="#505356"/><stop offset=".844"/><stop offset="1"/></linearGradient></defs><path d="m265.43 111.96c0 7.26-5.37 13.15-12 13.15h-241.44c-6.623 0-11.99-5.89-11.99-13.15v-98.82c0-7.257 5.367-13.14 11.997-13.14h241.43c6.63 0 12 5.879 12 13.14v98.83z"/><path fill="url(#2)" d="m15.449 5.72c-5.12 0-9.26 5.747-9.26 12.817 0 7.098 4.14 12.836 9.26 12.836h199.34c5.12 0 9.27-5.738 9.27-12.836-.38-1.165-.15-12.817-9.27-12.817h-199.34"/><path fill="url(#1)" d="m214.19.008c-6.1 0-11.05 5.879-11.05 13.13v111.98l385.81-.001c6.1 0 11.05-5.89 11.05-13.14v-111.96l-385.81-.002z"/><path fill="url(#0)" d="m205.16 5.72c-1.28 2.11-2.02 4.661-2.02 7.415v18.238h390.61v-25.654h-388.59z"/><path fill="#ed332a" d="m68.53 74.36c0 10.576-6.895 18.265-20.914 19.783-10.143 1.086-24.825-.194-31.815-.998-.23-1.13-.424-2.551-.424-3.681 0-9.199 4.952-11.326 9.631-11.326 4.864 0 12.509.847 18.18.847 6.277 0 8.166-2.127 8.166-4.149 0-2.648-2.507-3.734-7.363-4.678l-13.312-2.551c-11.05-2.119-16.949-9.773-16.949-17.885 0-9.87 6.983-18.13 20.719-19.643 10.39-1.13 23.03.142 29.979.998.23 1.174.38 2.304.38 3.54 0 9.199-4.865 11.185-9.534 11.185-3.593 0-9.164-.662-15.537-.662-6.462 0-9.155 1.792-9.155 3.963 0 2.313 2.543 3.258 6.604 3.964l12.703 2.366c13.03 2.401 18.645 9.817 18.645 18.928m22.784 11.326c0 5.667-2.224 8.925-13.268 8.925-1.466 0-2.737-.097-3.964-.283v-75.06c0-5.711 1.933-11.661 13.07-11.661 1.421 0 2.833.141 4.158.424v77.65zm45.15 29.03c1.47.75 4.44 1.65 8.17 1.75 6.42.14 9.92-2.31 12.51-8.08l34.4-76.75c-1.41-.759-4.57-1.607-7.12-1.651-4.43-.097-10.38.795-14.16 9.861l-11.14 26.291-21.85-35.586c-1.42-.424-4.87-1.042-7.37-1.042-7.74 0-12.03 2.834-16.51 7.689l-21.251 23.23 17.09 26.916c3.17 4.909 7.32 7.407 14.06 7.407 4.44 0 8.12-1.033 9.83-1.836l-20.59-31.02 14.6-15.485 23.92 37.581-14.58 30.727z"/><g fill="#fff"><path d="m273.09 84.08c-1.63 1.757-3.32 3.319-5.07 4.705s-3.67 2.578-5.74 3.576c-2.09.997-4.36 1.748-6.84 2.259-2.48.513-5.25.769-8.33.769-4.64 0-8.95-.839-12.93-2.534-3.99-1.686-7.43-3.99-10.32-6.921-2.9-2.922-5.16-6.383-6.79-10.355-1.63-3.991-2.45-8.246-2.45-12.766v-.185c0-4.52.82-8.757 2.45-12.712s3.89-7.425 6.79-10.408c2.89-2.984 6.36-5.341 10.41-7.06 4.04-1.721 8.5-2.578 13.39-2.578 3.02 0 5.73.239 8.15.724 2.41.486 4.61 1.148 6.6 1.995 2 .848 3.83 1.872 5.52 3.073 1.69 1.209 3.26 2.533 4.71 3.981l-8.87 10.232c-2.48-2.234-5-3.982-7.56-5.253-2.57-1.262-5.44-1.898-8.64-1.898-2.66 0-5.12.512-7.38 1.536-2.26 1.033-4.2 2.445-5.83 4.255s-2.9 3.911-3.8 6.294c-.91 2.375-1.36 4.927-1.36 7.645v.177c0 2.719.45 5.279 1.36 7.698.9 2.41 2.15 4.52 3.75 6.33 1.6 1.818 3.53 3.248 5.79 4.308 2.26 1.05 4.75 1.58 7.47 1.58 3.62 0 6.68-.68 9.18-2.039 2.51-1.36 5-3.152 7.47-5.385l8.87 8.96"/><path d="m275.81 30.959h13.94v63.35h-13.94v-63.35"/><path d="m340.97 94.31l-30.67-40.27v40.27h-13.77v-63.35h12.86l29.68 39v-39h13.76v63.35h-11.86"/><path d="m358.98 94.31v-63.35h47.7v12.395h-33.94v12.853h29.86v12.394h-29.86v13.304h34.39v12.403h-48.14z"/><path d="m461.97 94.31v-41.36l-17.92 27.06h-.36l-17.56-26.783v41.09h-13.75v-63.35h15.02l16.65 26.784 16.65-26.784h15.03v63.35h-13.76"/><path d="m509.85 47.25l-8.42 20.543h16.83l-8.41-20.543m19.18 47.06l-5.79-14.213h-26.79l-5.78 14.213h-14.22l27.15-63.807h12.85l27.16 63.807h-14.58"/><path d="m573.38 30.871h9.45v63.43h-13.67v-49.39l-10.99 2.701-2.87-11.335 18.08-5.403z"/></g></svg>