<svg xmlns="http://www.w3.org/2000/svg" viewBox="0 0 600 179.95"><defs><linearGradient id="0" gradientUnits="userSpaceOnUse" gradientTransform="matrix(0 36.906-13.381 0 440.27 8.222)" x1="0" x2="1"><stop stop-color="#f37921"/><stop stop-color="#dd1f26" offset=".844"/><stop stop-color="#dd1f26" offset="1"/></linearGradient><linearGradient id="1" gradientUnits="userSpaceOnUse" gradientTransform="matrix(0-179.94 65.626 0 446.18 179.95)" x1="0" x2="1"><stop stop-color="#881719"/><stop stop-color="#db1f2b" offset=".495"/><stop stop-color="#db1f2b" offset="1"/></linearGradient><linearGradient id="2" gradientUnits="userSpaceOnUse" x2="0" y1="8.222" y2="45.13"><stop stop-color="#505456"/><stop offset=".844"/><stop offset="1"/></linearGradient></defs><path d="m381.94 161.05c0 10.43-7.72 18.9-17.27 18.9h-347.42c-9.513 0-17.25-8.46-17.25-18.9v-142.16c0-10.429 7.737-18.881 17.261-18.881h347.42c9.55 0 17.27 8.451 17.27 18.886v142.14z"/><path fill="url(#2)" d="m22.21 8.233c-7.341 0-13.312 8.253-13.312 18.45 0 10.178 5.971 18.451 13.312 18.451h286.89c7.34 0 13.31-8.273 13.31-18.451-.04-.138-1.45-18.45-13.31-18.45h-286.89"/><path fill="url(#1)" d="m298.64 0c-3.48 0-6.29 8.471-6.29 18.886v161.05h301.36c3.48 0 6.29-8.47 6.29-18.88v-161.06h-301.36z"/><path fill="url(#0)" d="m293.45 8.233c-.69 3.035-1.09 6.706-1.09 10.654v26.25h301.18v-36.9h-300.1z"/><path d="m98.57 106.95c0 15.22-9.919 26.27-30.08 28.45-14.603 1.55-35.711-.28-45.749-1.43-.337-1.62-.615-3.67-.615-5.29 0-13.24 7.122-16.29 13.847-16.29 6.984 0 17.994 1.21 26.15 1.21 9.01 0 11.745-3.06 11.745-5.95 0-3.81-3.611-5.38-10.594-6.75l-19.15-3.669c-15.89-3.035-24.381-14.05-24.381-25.711 0-14.204 10.04-26.09 29.798-28.25 14.939-1.627 33.13.198 43.11 1.428.338 1.706.556 3.333.556 5.099 0 13.232-7 16.09-13.709 16.09-5.178 0-13.193-.953-22.339-.953-9.304 0-13.173 2.58-13.173 5.694 0 3.333 3.65 4.682 9.503 5.714l18.272 3.392c18.728 3.452 26.802 14.13 26.802 27.22m32.778 16.29c0 8.16-3.2 12.84-19.09 12.84-2.1 0-3.93-.14-5.69-.42v-107.94c0-8.216 2.78-16.767 18.81-16.767 2.02 0 4.06.198 5.97.615v111.67zm64.93 41.76c2.1 1.07 6.39 2.38 11.75 2.52 9.24.2 14.26-3.33 17.99-11.62l49.49-110.38c-2.04-1.092-6.58-2.302-10.25-2.381-6.37-.139-14.94 1.15-20.38 14.184l-16 37.814-31.45-51.18c-2.02-.615-6.98-1.488-10.57-1.488-11.15 0-17.32 4.067-23.77 11.05l-30.57 33.429 24.59 38.686c4.56 7.06 10.53 10.65 20.23 10.65 6.39 0 11.69-1.48 14.13-2.63l-29.61-44.603 20.99-22.279 34.42 54.04-20.98 44.2z" fill="#ed332a"/><g fill="#fff"><path d="m380.18 135.6v-59.54l-25.79 38.939h-.53l-25.28-38.562v59.16h-19.8v-91.2h21.63l23.98 38.567 23.97-38.567h21.62v91.2h-19.8"/><path d="m449.1 67.847l-12.12 29.58h24.24l-12.12-29.58m27.62 67.753l-8.33-20.46h-38.57l-8.33 20.46h-20.46l39.09-91.86h18.49l39.1 91.86h-20.99"/><path d="m555.69 135.6l-20.45-31.27-20.6 31.27h-22.79l31.78-46.39-30.47-44.817h23.45l19.14 29.58 19.29-29.58h22.79l-30.47 44.559 31.78 46.644h-23.45"/></g></svg>