<svg xmlns="http://www.w3.org/2000/svg" height="112.65" width="600" viewBox="0 0 158.75 29.804322"><defs><linearGradient id="0" gradientUnits="userSpaceOnUse" x2="0" y1="28.924" y2=".883"><stop stop-color="#5a252a"/><stop stop-color="#cb082a" offset=".074"/><stop stop-color="#cb082a" offset=".916"/><stop stop-color="#e73440" offset="1"/></linearGradient><linearGradient id="1" gradientUnits="userSpaceOnUse" x2="0" y1="2.482" y2="110.24"><stop stop-color="#141c4b"/><stop stop-color="#1a2b68" offset=".036"/><stop stop-color="#1a2b68" offset=".895"/><stop stop-color="#141c4b" offset="1"/></linearGradient></defs><g stroke-width="9.4"><path fill="url(#1)" d="m4.081.88c-2.208 0-2.994 1.306-2.994 3.477v21.09c0 2.171.786 3.477 2.994 3.477h149.1v-28.04z"/><path d="m4.282 0c-3.28 0-4.282 2.039-4.282 4.079v21.644c0 2.042 1 4.081 4.282 4.081h150.19c3.28 0 4.28-2.039 4.28-4.081v-21.644c0-2.04-1-4.079-4.28-4.079h-150.19m.152.274h149.89c2.21 0 3.7 1.303 3.7 3.477v22.304c0 2.171-1.49 3.477-3.7 3.477h-149.89c-2.204 0-3.699-1.306-3.699-3.477v-22.304c0-2.173 1.494-3.477 3.703-3.477z" fill="#a1a19e"/></g><path d="m52.919.88v28.04h101.78c2.21 0 2.99-1.306 2.99-3.477v-21.09c0-2.171-.78-3.477-2.99-3.477-33.93 0-67.854 0-101.78 0" stroke-width="2.487" fill="url(#0)"/><g fill="#fff"><g stroke-width="2.487"><path d="m19.13 17.586c0 2.4-1.57 4.153-4.758 4.501-2.308.247-5.653-.044-7.24-.226-.06-.261-.104-.582-.104-.836 0-2.101 1.137-2.581 2.199-2.581 1.105 0 2.845.191 4.141.191 1.42 0 1.856-.482 1.856-.942 0-.602-.575-.853-1.679-1.065l-3.02-.582c-2.517-.48-3.86-2.221-3.86-4.068 0-2.246 1.589-4.126 4.715-4.472 2.363-.256 5.24.032 6.82.226.057.271.087.527.087.808 0 2.095-1.105 2.546-2.169 2.546-.818 0-2.087-.154-3.534-.154-1.475 0-2.087.408-2.087.905 0 .525.582.741 1.507.903l2.89.535c2.967.549 4.241 2.236 4.241 4.31m5.188 2.576c0 1.289-.508 2.032-3.02 2.032-.333 0-.624-.025-.902-.064v-17.08c0-1.296.44-2.648 2.979-2.648.318 0 .642.032.943.095zm10.274 6.608c.328.17 1.01.373 1.857.398 1.46.03 2.256-.529 2.846-1.835l7.831-17.469c-.323-.174-1.037-.368-1.624-.38-1.01-.02-2.358.186-3.223 2.248l-2.534 5.986-4.974-8.103c-.321-.097-1.105-.239-1.679-.239-1.754 0-2.736.647-3.756 1.751l-4.834 5.29 3.889 6.121c.719 1.117 1.667 1.684 3.206 1.684 1 0 1.843-.229 2.231-.413l-4.683-7.06 3.318-3.515 5.446 8.543z"/><path d="m98.07 22.821c-.505 0-.915-.027-1.231-.134-.316-.11-.56-.244-.731-.433-.172-.189-.343-.413-.406-.684-.064-.271-.151-.552-.151-.858v-13.582c0-.522.219-.967.542-1.338.326-.368.965-.555 1.868-.555.378 0 .848.017 1.216.055.37.035.641.08 1.022.134v13.517h8.49c.04.388.08.46.12.748.04.289.07.617.07.998 0 .845-.18 1.395-.53 1.701s-.83.43-1.45.43z"/><path d="m129.99 22.985c-.37 0-.75-.017-1.12-.055-.37-.034-.68-.079-.93-.134v-15.663c0-.522.16-.97.49-1.338.32-.371.93-.555 1.84-.555.37 0 .75.017 1.12.052.37.037.68.082.93.137v15.664c0 .522-.16.967-.49 1.338-.32.37-.93.554-1.84.554"/><path d="m143.46 23.21c2.74 0 4.84-.652 6.33-1.975 1.48-1.308 2.24-3.646 2.24-6.976-.03-3.278-.79-5.571-2.32-6.926-1.54-1.321-3.61-2-6.25-2-2.63 0-4.71.681-6.24 2-1.54 1.355-2.29 3.648-2.32 6.926 0 3.33.75 5.668 2.24 6.976 1.48 1.323 3.59 1.975 6.32 1.975m4.19-8.951c0 2-.34 3.407-1.01 4.238-.65.858-1.72 1.249-3.18 1.249-1.48-.023-2.55-.441-3.22-1.249-.68-.806-1.02-2.206-1.02-4.238 0-2.01.37-3.41 1.04-4.22.68-.834 1.74-1.219 3.2-1.219s2.5.386 3.18 1.219c.67.81 1.01 2.213 1.01 4.22"/><path d="m87.46 15.206l-1.713-5.405c-.214-.729-.632-.696-1.428-.609l-1.835 6.01zm-11.808 7.503l5.638-17.13c4.909-.925 7.449-.109 8.128 2.072l4.733 14.81c-1.13.906-4.241.645-4.564-.325l-.983-3.112h-7.244l-.824 2.701c-.517 1.261-1.835 1.714-4.884.985"/><path d="m74.13 5.867c-1.273-.291-2.81-.798-5.966-.798-5.614 0-9.966 3.88-9.966 8.978 0 5.04 4.049 9.09 9.966 9.09 3.979 0 6.118-.801 6.118-.801 0-1.231-.025-3.405-1.801-3.405-.865 0-1.219.319-3.793.319-2.382 0-5.757-1.542-5.757-5.186 0-2.92 2.556-5.068 5.757-5.068 2.032 0 2.53.311 3.601.311 1.617 0 1.993-1.699 1.841-3.44"/><path d="m124.95 5.867c-1.27-.291-2.81-.798-5.96-.798-5.62 0-9.97 3.88-9.97 8.978 0 5.04 4.05 9.09 9.97 9.09 3.98 0 6.12-.801 6.12-.801 0-1.231-.03-3.405-1.81-3.405-.86 0-1.21.319-3.79.319-2.38 0-5.76-1.542-5.76-5.186 0-2.92 2.56-5.068 5.76-5.068 2.03 0 2.53.311 3.6.311 1.62 0 2-1.699 1.84-3.44"/></g><path opacity=".4" d="m155.5 22.463c1.5 1.883 1.71 3.658 1.76 4.049.15 0 .2-.833.2-2.074v-19.907c0-2.305-.6-3.083-2.14-3.083-.52 0-1.05.356-1.74.356h-148.38c-.692 0-1.216-.356-1.739-.356-1.543 0-2.137.778-2.137 3.084l-.006 19.907c0 1.241.055 2.074.203 2.074.053-.391.098-2.306 1.761-4.049 13.277-12.953 137.9-16.927 152.22 0" stroke-width="2.212"/></g></svg>