<?xml version="1.0" encoding="UTF-8" standalone="no"?>
<svg xmlns:rdf="http://www.w3.org/1999/02/22-rdf-syntax-ns#" xmlns="http://www.w3.org/2000/svg" xmlns:cc="http://creativecommons.org/ns#" xmlns:dc="http://purl.org/dc/elements/1.1/" height="96.327" width="600" version="1.1">
  <defs>
    <linearGradient id="a" gradientUnits="userSpaceOnUse" gradientTransform="matrix(0 19.767 -19.767 0 518.44 4.4205)" x1="0" x2="1" y1="0" y2="0">
      <stop stop-color="#505456" offset="0"/>
      <stop offset=".84375"/>
      <stop offset="1"/>
    </linearGradient>
    <linearGradient id="d" gradientUnits="userSpaceOnUse" gradientTransform="matrix(0 19.753 -10.445 0 315.92 4.4092)" x1="0" x2="1" y1="0" y2="0">
      <stop stop-color="#f37921" offset="0"/>
      <stop stop-color="#dd1f26" offset=".84375"/>
      <stop stop-color="#dd1f26" offset="1"/>
    </linearGradient>
    <linearGradient id="c" gradientUnits="userSpaceOnUse" gradientTransform="matrix(0 -96.318 50.93 0 320.45 96.328)" x1="0" x2="1" y1="0" y2="0">
      <stop stop-color="#881719" offset="0"/>
      <stop stop-color="#db1f2b" offset=".49479"/>
      <stop stop-color="#db1f2b" offset="1"/>
    </linearGradient>
    <linearGradient id="b" gradientUnits="userSpaceOnUse" gradientTransform="matrix(0 19.753 -19.753 0 88.644 4.4092)" x1="0" x2="1" y1="0" y2="0">
      <stop stop-color="#505456" offset="0"/>
      <stop offset=".84375"/>
      <stop offset="1"/>
    </linearGradient>
  </defs>
  <path d="m204.38 86.211c0 5.583-4.14 10.116-9.24 10.116h-185.9c-5.1022 0-9.24-4.533-9.24-10.116v-76.081c0-5.593 4.1378-10.126 9.2424-10.126h185.9c5.11 0 9.24 4.5328 9.24 10.126v76.081z"/>
  <path fill="url(#b)" d="m11.899 4.4101c-3.9398 0-7.1315 4.4185-7.1315 9.8769 0 5.458 3.1917 9.876 7.1315 9.876h153.49c3.94 0 7.13-4.418 7.13-9.876-0.14-0.458-1.22-9.8769-7.13-9.8769h-153.49z"/>
  <path fill="url(#c)" d="m161.31 0.012479c-2.7 0-4.88 4.5224-4.88 10.116v86.196h323.17c2.7 0 4.88-4.522 4.88-10.105v-86.207l-323.17 0.000479z"/>
  <path fill="url(#d)" d="m157.28 4.4101c-0.53 1.6218-0.85 3.5868-0.85 5.7179v14.035h323.15v-19.753l-322.3 0.0001z"/>
  <path d="m52.763 57.267c0 8.14-5.302 14.066-16.104 15.231-7.808 0.832-19.109-0.145-24.494-0.769-0.177-0.873-0.323-1.955-0.323-2.828 0-7.09 3.816-8.723 7.413-8.723 3.743 0 9.627 0.655 13.994 0.655 4.834 0 6.29-1.632 6.29-3.202 0-2.027-1.934-2.869-5.677-3.597l-10.241-1.965c-8.515-1.632-13.048-7.527-13.048-13.765 0-7.6 5.375-13.962 15.948-15.127 7.995-0.873 17.736 0.104 23.08 0.769 0.177 0.905 0.291 1.778 0.291 2.724 0 7.08-3.742 8.609-7.339 8.609-2.766 0-7.06-0.51-11.956-0.51-4.98 0-7.049 1.383-7.049 3.057 0 1.777 1.954 2.505 5.084 3.046l9.783 1.819c10.022 1.851 14.347 7.558 14.347 14.576m17.539 8.723c0 4.366-1.705 6.872-10.209 6.872-1.123 0-2.111-0.073-3.046-0.219v-57.793c0-4.387 1.486-8.9716 10.064-8.9716 1.091 0 2.172 0.1039 3.191 0.3326v59.779zm34.769 22.352c1.12 0.582 3.41 1.268 6.29 1.341 4.93 0.104 7.63-1.778 9.62-6.217l26.49-59.093c-1.08-0.572-3.51-1.237-5.48-1.269-3.42-0.072-7.99 0.614-10.9 7.6l-8.58 20.242-16.83-27.405c-1.08-0.322-3.74-0.8-5.67-0.8-5.954 0-9.26 2.183-12.711 5.926l-16.364 17.882 13.162 20.71c2.432 3.784 5.634 5.707 10.833 5.707 3.41 0 6.25-0.79 7.56-1.414l-15.84-23.881 11.229-11.915 18.421 28.923-11.23 23.662z" fill="#ed332a"/>
  <g fill="#fff">
    <path d="m175.97 33.535v10.511h23.25v9.679h-23.25v18.869h-10.72v-48.738h37.11v9.679h-26.39z"/>
    <path d="m225.45 36.395-6.47 15.802h12.95l-6.48-15.802zm14.78 36.19-4.46-10.927h-20.61l-4.45 10.927h-10.94l20.89-49.071h9.89l20.88 49.071h-11.21z"/>
    <path d="m290.14 72.59v-31.813l-13.78 20.814h-0.28l-13.51-20.606v31.605h-10.58v-48.728h11.56l12.81 20.606 12.8-20.606h11.56v48.728h-10.58z"/>
    <path d="m305.94 23.862h10.72v48.728h-10.72v-48.728z"/>
    <path d="m321.89 72.59v-48.728h10.72v39.049h24.3v9.679h-35.02z"/>
    <path d="m382.45 53.167v19.42h-10.72v-19.213l-18.73-29.515h12.54l11.62 19.566 11.84-19.566h12.18l-18.73 29.307z"/>
  </g>
  <path d="m599.94 86.207c0 5.583-4.13 10.105-9.23 10.105h-120.5v-86.269c-0.01-5.5726 4.19-10.043 9.3-10.043h120.49l-0.06 86.207z"/>
  <path fill="url(#a)" d="m471.8 4.4205c-1.01 1.601-1.6 3.5348-1.6 5.6245v14.139h124.78v-19.764l-123.18-0.0001z"/>
  <g fill="#fff">
    <path d="m518.39 72.45v-21.177h-26.43v21.177h-11.46v-49.05h11.46v20.075h26.43v-20.075h11.47v49.05h-11.47z"/>
    <path d="m561.04 31.128h-12.15v33.528h12.26c13.01 0 16.99-0.52 16.99-16.686 0-16.187-4.07-16.842-17.1-16.842m24.39 34.703c-4.67 5.229-11.65 6.622-23.7 6.622h-24.1v-49.05h23.99c12.05 0 19.06 1.466 23.72 6.696 3.4 3.826 4.27 8.234 4.27 17.871 0 9.627-0.78 14.035-4.18 17.861"/>
    <path d="m416.97 31.296h9.82v12.372h12.5v9.606h-12.5v12.434h-9.82v-12.434h-12.5v-9.606h12.5v-12.372z"/>
    <path d="m452.63 24.109h7.26v48.717h-10.51v-37.936l-8.43 2.079-2.21-8.712 13.89-4.148z"/>
  </g>
</svg>
