<?xml version="1.0" encoding="UTF-8" standalone="no"?>
<svg xmlns:rdf="http://www.w3.org/1999/02/22-rdf-syntax-ns#" xmlns="http://www.w3.org/2000/svg" xmlns:cc="http://creativecommons.org/ns#" xmlns:dc="http://purl.org/dc/elements/1.1/" height="98.92" width="600" version="1.1">
  <defs>
    <linearGradient id="b" gradientUnits="userSpaceOnUse" gradientTransform="matrix(-.0000010095 20.283 -20.283 -.0000010095 91.02 4.5156)" x1="0" x2="1" y1="0" y2="0">
      <stop stop-color="#505456" offset="0"/>
      <stop offset=".84375"/>
      <stop offset="1"/>
    </linearGradient>
    <linearGradient id="c" gradientUnits="userSpaceOnUse" gradientTransform="matrix(-.0000021142 -98.902 51.784 -.0000040378 319.62 98.901)" x1="0" x2="1" y1="0" y2="0">
      <stop stop-color="#881719" offset="0"/>
      <stop stop-color="#db1f2b" offset=".49479"/>
      <stop stop-color="#db1f2b" offset="1"/>
    </linearGradient>
    <linearGradient id="d" gradientUnits="userSpaceOnUse" gradientTransform="matrix(-5.2854e-7 20.283 -10.62 -.0000010095 317.65 4.5156)" x1="0" x2="1" y1="0" y2="0">
      <stop stop-color="#f37921" offset="0"/>
      <stop stop-color="#dd1f26" offset=".84375"/>
      <stop stop-color="#dd1f26" offset="1"/>
    </linearGradient>
    <linearGradient id="a" gradientUnits="userSpaceOnUse" gradientTransform="matrix(-.0000010095 20.316 -20.316 -.0000010095 516.24 4.5233)" x1="0" x2="1" y1="0" y2="0">
      <stop stop-color="#505456" offset="0"/>
      <stop offset=".84375"/>
      <stop offset="1"/>
    </linearGradient>
  </defs>
  <path d="m209.87 88.512c0 5.734-4.25 10.387-9.49 10.387h-190.89c-5.2402 0-9.49-4.653-9.49-10.387v-78.122c0-5.7434 4.2498-10.387 9.4889-10.387h190.89c5.24 0 9.49 4.6435 9.49 10.387v78.122z"/>
  <path fill="url(#b)" d="m12.214 4.5123c-4.0481 0-7.3287 4.5425-7.3287 10.145 0 5.603 3.2807 10.135 7.3287 10.135h157.62c4.04 0 7.32-4.532 7.32-10.135-0.16-0.474-1.25-10.145-7.33-10.145l-157.62 0.0003z"/>
  <path fill="url(#c)" d="m165.59 0c-2.75 0-4.97 4.6536-4.97 10.387v88.519h313.03c2.75 0 4.97-4.653 4.97-10.397v-88.509h-313.03z"/>
  <path fill="url(#d)" d="m161.5 4.5123c-0.56 1.6757-0.87 3.6945-0.87 5.8747v14.405h317.98v-20.28l-317.11 0.0004z"/>
  <path d="m54.181 59.28c0 8.358-5.451 14.444-16.535 15.636-8.015 0.858-19.614-0.151-25.146-0.787-0.182-0.898-0.333-2.009-0.333-2.907 0-7.278 3.916-8.954 7.611-8.954 3.846 0 9.893 0.666 14.365 0.666 4.967 0 6.461-1.676 6.461-3.281 0-2.089-1.979-2.947-5.825-3.694l-10.519-2.009c-8.731-1.686-13.395-7.733-13.395-14.143 0-7.803 5.522-14.324 16.374-15.526 8.207-0.888 18.211 0.111 23.692 0.787 0.192 0.929 0.303 1.827 0.303 2.797 0 7.278-3.846 8.842-7.531 8.842-2.847 0-7.248-0.525-12.285-0.525-5.108 0-7.238 1.414-7.238 3.13 0 1.837 2.019 2.584 5.229 3.139l10.034 1.868c10.297 1.897 14.738 7.762 14.738 14.959m18.009 8.954c0 4.482-1.756 7.057-10.488 7.057-1.151 0-2.16-0.081-3.129-0.233v-59.325c0-4.502 1.524-9.2165 10.337-9.2165 1.12 0 2.231 0.111 3.28 0.3432v61.374zm35.68 22.955c1.17 0.586 3.52 1.302 6.47 1.373 5.07 0.111 7.83-1.827 9.89-6.38l27.19-60.668c-1.12-0.596-3.61-1.272-5.63-1.302-3.5-0.081-8.21 0.626-11.19 7.793l-8.81 20.785-17.28-28.134c-1.12-0.333-3.85-0.818-5.81-0.818-6.131 0-9.523 2.241-13.065 6.077l-16.801 18.363 13.497 21.259c2.513 3.886 5.794 5.865 11.123 5.865 3.516 0 6.416-0.818 7.766-1.454l-16.275-24.52 11.545-12.234 18.91 29.698-11.53 24.298z" fill="#ed332a"/>
  <g fill="#fff">
    <path d="m216 66.328c-1.28 1.383-2.63 2.624-4.01 3.724-1.38 1.091-2.9 2.029-4.54 2.827-1.65 0.777-3.44 1.373-5.4 1.787-1.96 0.404-4.15 0.605-6.58 0.605-3.68 0-7.09-0.666-10.24-2.008-3.14-1.333-5.87-3.15-8.16-5.472-2.28-2.311-4.08-5.047-5.36-8.186-1.29-3.15-1.94-6.511-1.94-10.095v-0.141c0-3.574 0.65-6.925 1.94-10.054 1.28-3.12 3.08-5.865 5.36-8.227 2.29-2.363 5.04-4.22 8.24-5.573 3.19-1.362 6.72-2.039 10.58-2.039 2.39 0 4.53 0.182 6.44 0.565 1.91 0.384 3.65 0.909 5.23 1.575 1.57 0.666 3.03 1.484 4.36 2.433 1.33 0.959 2.57 2.009 3.72 3.149l-7.01 8.086c-1.96-1.766-3.95-3.149-5.98-4.149-2.03-0.999-4.3-1.504-6.83-1.504-2.1 0-4.04 0.404-5.83 1.222-1.79 0.807-3.33 1.928-4.61 3.361-1.29 1.423-2.29 3.089-3.01 4.967-0.71 1.887-1.07 3.906-1.07 6.046v0.142c0 2.15 0.36 4.179 1.07 6.087 0.72 1.908 1.71 3.573 2.97 5.007 1.26 1.433 2.8 2.564 4.58 3.391 1.79 0.838 3.76 1.252 5.9 1.252 2.87 0 5.29-0.535 7.27-1.605s3.94-2.493 5.9-4.26l7.01 7.087z"/>
    <path d="m257.13 49.372c0-2.15-0.38-4.169-1.11-6.077-0.74-1.908-1.79-3.583-3.15-5.017-1.36-1.423-2.96-2.564-4.8-3.392-1.84-0.837-3.88-1.251-6.12-1.251-2.19 0-4.22 0.403-6.07 1.211-1.86 0.818-3.45 1.938-4.76 3.362-1.31 1.433-2.34 3.088-3.08 4.976-0.73 1.888-1.11 3.897-1.11 6.047v0.141c0 2.15 0.38 4.169 1.11 6.077 0.74 1.908 1.79 3.584 3.15 5.017 1.36 1.423 2.97 2.564 4.83 3.392 1.86 0.838 3.88 1.252 6.08 1.252 2.25 0 4.29-0.404 6.12-1.212 1.83-0.817 3.4-1.938 4.72-3.361 1.31-1.434 2.34-3.089 3.08-4.977 0.73-1.888 1.11-3.896 1.11-6.047v-0.141zm11.51 0c0 3.574-0.66 6.925-1.99 10.054-1.35 3.119-3.19 5.865-5.56 8.227-2.36 2.362-5.17 4.22-8.44 5.583-3.27 1.352-6.83 2.039-10.7 2.039-3.85 0-7.41-0.687-10.66-2.039-3.24-1.363-6.04-3.2-8.39-5.512-2.37-2.312-4.2-5.037-5.52-8.156-1.31-3.12-1.96-6.471-1.96-10.055v-0.141c0-3.573 0.66-6.925 1.99-10.054 1.35-3.119 3.19-5.865 5.56-8.227 2.35-2.362 5.16-4.22 8.43-5.583 3.27-1.352 6.84-2.039 10.71-2.039 3.85 0 7.4 0.687 10.66 2.039 3.24 1.363 6.03 3.201 8.39 5.512 2.37 2.312 4.2 5.037 5.52 8.157 1.31 3.119 1.96 6.47 1.96 10.054v0.141z"/>
    <path d="m310.5 74.413v-32.697l-14.17 21.39h-0.29l-13.88-21.179v32.484h-10.87v-50.079h11.88l13.16 21.178 13.17-21.178h11.87v50.079h-10.87z"/>
    <path d="m326.24 74.413v-50.08h37.71v9.802h-26.83v10.155h23.61v9.802h-23.61v10.518h27.18v9.802h-38.06z"/>
    <path d="m401.65 49.372c0-2.241-0.36-4.28-1.07-6.117-0.72-1.838-1.75-3.422-3.08-4.755-1.33-1.342-2.94-2.372-4.8-3.119-1.85-0.737-3.9-1.11-6.14-1.11h-8.52v30.193h8.52c2.24 0 4.29-0.353 6.14-1.07 1.86-0.717 3.47-1.736 4.8-3.079 1.33-1.332 2.36-2.917 3.08-4.754 0.71-1.838 1.07-3.846 1.07-6.047v-0.141zm11.52 0c0 3.533-0.65 6.824-1.93 9.873-1.3 3.048-3.11 5.703-5.47 7.944-2.37 2.241-5.17 4.008-8.41 5.29-3.25 1.292-6.85 1.938-10.8 1.938h-19.54v-50.09h19.54c3.95 0 7.55 0.636 10.8 1.898 3.24 1.262 6.04 3.018 8.41 5.259 2.36 2.241 4.17 4.876 5.47 7.904 1.28 3.029 1.93 6.309 1.93 9.842v0.142z"/>
    <path d="m437.02 54.45v19.967h-11.02v-19.756l-19.24-30.334h12.88l11.94 20.108 12.17-20.108h12.51l-19.24 30.123z"/>
  </g>
  <path d="m599.93 88.543c0 5.734-4.24 10.377-9.48 10.377h-123.74v-88.6c0-5.7236 4.32-10.317 9.56-10.317l123.73 0.0003691-0.07 88.54z"/>
  <path fill="url(#a)" d="m468.36 4.5221c-1.04 1.6454-1.66 3.6442-1.66 5.8039v14.516h128.12v-20.32l-126.46-0.0005z"/>
  <path fill="#fff" d="m516.2 74.397v-21.744h-27.14v21.744h-11.78v-50.362h11.78v20.613h27.14v-20.613h11.77v50.362h-11.77z"/>
  <path fill="#fff" d="m559.97 31.966h-12.47v34.433h12.58c13.37 0 17.46-0.535 17.46-17.141 0-16.615-4.19-17.292-17.56-17.292m25.04 35.634c-4.78 5.36-11.97 6.793-24.34 6.793h-24.74v-50.362h24.63c12.38 0 19.56 1.514 24.35 6.874 3.49 3.937 4.39 8.45 4.39 18.352 0 9.883-0.8 14.415-4.29 18.342"/>
</svg>
