<svg xmlns="http://www.w3.org/2000/svg" viewBox="0 0 628.42 85.02"><defs><clipPath><path d="m0 0h226.77v595.28h-226.77v-595.28"/></clipPath><clipPath><path d="m976.84 141.97h-34.779v-27.503h34.779v27.503"/></clipPath><clipPath><path d="m1011.54 114.5h-36.538v.78l-.667-.78h-15.16v.778l-.665-.778h-16.421v27.437h69.45v-27.437m-40.31 1.194l.891-.638v1.047l1.281.589h-1.281v1.044l-.891-1.044h-1.392l.866-.618-.866-1.016 1.392.636m-8.801.003l.891-.639v1.048l1.28.588h-1.28v1.045l-.891-1.045h-1.392l.865-.617-.866-1.016 1.393.636m4.599 1.137l.892-.638v1.046l1.28.589h-1.28v1.045l-.892-1.045h-1.392l.865-.617-.865-1.017 1.392.637"/></clipPath><clipPath><path d="m1011.58 141.97h-34.776v-27.503h34.776v27.503"/></clipPath><clipPath><path d="m1011.54 141.94h-69.45v.35h69.45v-.35"/></clipPath></defs><g transform="translate(.985-968.35)"><path d="m148.16 972.52h463.16c0 0 11.954 0 11.954 11.955v52.805c0 0 0 11.925-11.954 11.925h-463.16" fill="#fff" stroke="#881f16" stroke-width="6.317" stroke-miterlimit="10"/><g transform="translate(110.55-434.49)"><path d="m42.537 1407.01h-137.97c0 0-11.954 0-11.954 11.954v52.805c0 0 0 11.925 11.954 11.925h137.97" fill="#881f16" stroke="#881f16" stroke-width="6.317" stroke-miterlimit="10"/><path d="m0 0c-.014-.03-.037-.075-.111-.075h-.344c-.034 0-.075.03-.075.075 0 .033.007.052.019.074l.388.789-.855 1.277-.441-.47.564-.841c.033-.044.041-.067.041-.09 0-.036-.041-.07-.09-.07h-.388c-.056 0-.09.037-.127.089l-.654.945.725.781c.052.06.101.09.19.09h.418c.09 0 .139-.034.184-.105l.683-1.087.486 1.102c.022.056.056.09.127.09h.347c.041 0 .079-.034.079-.075 0-.023-.008-.048-.023-.075l-1.143-2.424m-2.106.863c0-.124-.094-.194-.194-.194h-.296c-.033 0-.075.034-.075.089v2.447c0 .149.075.198.207.198h.264c.056 0 .094-.038.094-.09v-2.45m-1.252.933c.355-.082.523-.265.523-.567 0-.31-.212-.56-.721-.56h-.964c-.048 0-.071.034-.071.089v.183c0 .105.057.191.195.191h.87c.098 0 .135.044.135.078 0 .052-.037.086-.154.112l-.553.12c-.343.074-.526.261-.526.549 0 .329.228.583.664.583h.968c.053 0 .089-.034.089-.09v-.183c0-.105-.055-.194-.197-.194h-.837c-.112 0-.145-.038-.145-.072 0-.055.033-.078.161-.108l.563-.131" fill="#fff" transform="matrix(20.1416 0 0-20.1416 3.591 1478.99)"/></g><g transform="translate(-352.56-434.49)"><path d="m622.92 1486.86h-117.36v-83h117.36z" fill="#221f20"/><g fill="#fff"><path d="m551.87 1466.72v-16.631h-25.01v16.631h-7.494v-40.759h7.494v16.671h25.01v-16.671h7.456v40.759z"/><path d="m568.26 1425.98h27.07c7.571 0 13.765 6.156 13.765 13.803v13.153c0 7.609-6.194 13.803-13.765 13.803h-27.07zm7.532 33.26h19.538c3.441 0 6.271-2.906 6.271-6.309v-13.153c0-3.441-2.829-6.347-6.271-6.347h-19.538v25.809"/></g></g><g transform="matrix(.49981 0 0 .49981 210.19 85.12)" fill="#881f16"><path d="m221.52 1813.4v15.11h-52.627c-1.595 0-2.99.562-4.186 1.685-1.196 1.124-1.794 2.483-1.794 4.078v12.396h55.24v15.01h-55.24v33.27h-14.896v-60.673c0-5.799 2.03-10.728 6.089-14.788 4.059-4.059 8.989-6.089 14.788-6.089h52.627"/><path d="m240.59 1876.58l-7.285 18.376h-16.201c11.671-29.575 20.405-51.684 26.2-66.33.942-2.247 1.413-3.407 1.414-3.479.58-1.305 1.033-2.265 1.359-2.881.326-.616.942-1.595 1.848-2.936.906-1.341 1.794-2.356 2.664-3.044.87-.689 2.066-1.341 3.588-1.957 1.522-.616 3.153-.924 4.893-.924h6.089c1.812 0 3.461.308 4.947.924 1.486.616 2.682 1.269 3.588 1.957.906.689 1.812 1.704 2.718 3.044.906 1.341 1.504 2.32 1.794 2.936.29.616.725 1.577 1.305 2.881 0 .072.471 1.232 1.414 3.479 5.799 14.643 14.534 36.752 26.2 66.33h-16.201l-7.285-18.376zm37.4-14.57l-12.287-30.663c-.725-1.812-1.269-2.718-1.631-2.718h-3.806c-.362 0-.906.906-1.631 2.718l-12.395 30.663h31.75"/><path d="m387.64 1894.95c-1.885 0-3.661-.797-5.328-2.392l-51.974-53.06v55.45h-14.896v-74.16c0-2.175.779-3.951 2.338-5.328 1.558-1.377 3.353-2.066 5.382-2.066 1.957 0 3.661.797 5.11 2.392l52.08 53.39v-55.56h14.788v73.938c0 2.102-.761 3.86-2.283 5.274-1.522 1.414-3.262 2.12-5.219 2.12"/><path d="m426.17 1887.23c0-1.885.797-3.697 2.392-5.437l54.37-53.06h-56.758v-15.331h75.895c2.175 0 3.969.797 5.382 2.392 1.413 1.595 2.12 3.443 2.12 5.545 0 1.957-.834 3.697-2.501 5.219l-54.58 53.17h56.867v15.223h-75.57c-2.175 0-3.987-.797-5.437-2.392-1.45-1.595-2.175-3.371-2.175-5.328"/><path d="m519.99 1841.46c0-7.684 2.682-14.28 8.05-19.789 5.364-5.509 11.888-8.264 19.572-8.264h31.532c7.684 0 14.208 2.736 19.572 8.209 5.364 5.473 8.05 12.05 8.05 19.735v25.661c0 7.684-2.682 14.262-8.05 19.735-5.364 5.473-11.888 8.209-19.572 8.209h-31.532c-7.684 0-14.208-2.791-19.572-8.372-5.364-5.582-8.05-12.214-8.05-19.898zm71.76-.435c0-3.407-1.251-6.379-3.751-8.916-2.501-2.537-5.455-3.806-8.862-3.806h-31.532c-3.407 0-6.379 1.287-8.916 3.86-2.537 2.573-3.806 5.564-3.806 8.97v25.878c0 3.479 1.269 6.524 3.806 9.133 2.537 2.61 5.509 3.914 8.916 3.914h31.532c3.407 0 6.361-1.232 8.862-3.697 2.501-2.465 3.751-5.4 3.751-8.807v-26.531"/><path d="m687.01 1894.95c-1.885 0-3.661-.797-5.328-2.392l-51.974-53.06v55.45h-14.896v-74.16c0-2.175.779-3.951 2.338-5.328 1.558-1.377 3.353-2.066 5.382-2.066 1.957 0 3.661.797 5.11 2.392l52.08 53.39v-55.56h14.788v73.938c0 2.102-.761 3.86-2.283 5.274-1.522 1.414-3.262 2.12-5.219 2.12"/><path d="m774.92 1813.4v15.11h-52.627c-1.595 0-2.99.562-4.186 1.685-1.196 1.124-1.794 2.483-1.794 4.078v12.396h55.24v15.01h-55.24v12.396c0 1.595.598 2.972 1.794 4.132 1.196 1.16 2.591 1.74 4.186 1.74h52.627v15.01h-52.627c-5.799 0-10.728-2.03-14.788-6.089-4.059-4.059-6.089-8.988-6.089-14.788v-39.796c0-5.799 2.03-10.728 6.089-14.788 4.059-4.059 8.989-6.089 14.788-6.089h52.627"/></g></g></svg>