<svg xmlns="http://www.w3.org/2000/svg" viewBox="0 0 177.33 33.769"><defs><clipPath><path d="m595.82 548.08h203.11v-13.216h-203.11v13.216"/></clipPath><clipPath><path d="m595.82 534.86h203.11v13.216h-203.11v-13.216"/></clipPath><clipPath id="0"><path d="m592.44 518.64h210.22v30.833h-210.22v-30.833"/></clipPath><clipPath><path d="m-.015-9.154h.956v18.308h-.956v-18.308"/></clipPath><filter x="-.25" y="-.25" width="1.5" height="1.5" color-interpolation-filters="sRGB" id="1"><feGaussianBlur result="blur" stdDeviation=".6" in="SourceAlpha"/><feColorMatrix values="1 0 0 0 0 0 1 0 0 0 0 0 1 0 0 0 0 0 0.5 0 " type="matrix" result="bluralpha"/><feOffset result="offsetBlur" dy="-.3" dx="0" in="bluralpha"/><feMerge><feMergeNode in="offsetBlur"/><feMergeNode in="SourceGraphic"/></feMerge></filter><linearGradient y1="1192.36" x2="0" y2="1092.36" id="2" gradientUnits="userSpaceOnUse"><stop stop-color="#eeeff1" stop-opacity=".133"/><stop offset="1" stop-color="#fff5f5" stop-opacity=".851"/></linearGradient><linearGradient x1="629.67" y1="1255.07" x2="1426.1" y2="1192.75" id="3" gradientUnits="userSpaceOnUse"><stop stop-color="#839dac"/><stop offset=".414" stop-color="#a8bac6"/><stop offset=".725" stop-color="#c6d3dc"/><stop offset="1" stop-color="#dce1e7"/></linearGradient><linearGradient y1="1087.36" x2="0" y2="1299.36" id="4" gradientUnits="userSpaceOnUse"><stop stop-color="#dbdbdb"/><stop offset=".1" stop-color="#dadada"/><stop offset=".2" stop-color="#d9d9d9"/><stop offset=".3" stop-color="#e0e0e0"/><stop offset=".4" stop-color="#e9e9e9"/><stop offset=".5" stop-color="#f1f1f1"/><stop offset=".6" stop-color="#f7f7f7"/><stop offset=".7" stop-color="#fbfbfb"/><stop offset=".8" stop-color="#fefefe"/><stop offset=".9" stop-color="#fff"/><stop offset="1" stop-color="#fff"/></linearGradient></defs><g transform="matrix(.14761 0 0 .14761-34.776-159.27)"><g fill-rule="evenodd"><g fill="#9d9d9d" stroke="#000" stroke-width="16.763"><path d="m265 1087.36c10 0 1132.64 0 1142.64 0 10 0 21 7 21 21v170c0 14-11 21-21 21-10 0-1132.64 0-1142.64 0-10 0-21-7-21-21v-170c0-14 11-21 21-21z" fill="#9b9b9b" stroke="#9b9b9b"/><path d="m265 1087.36c10 0 1132.62 0 1142.62 0 10 0 21 7 21 21v170c0 14-11 21-21 21-10 0-1132.62 0-1142.62 0-10 0-21-7-21-21v-170c0-14 11-21 21-21z" fill="#fff" stroke="#fff" stroke-width="8.382"/></g><g stroke="none"><path d="m629 1299.36l1-1v-210l-1-1h-364c-10 0-21 7-21 21v170c0 14 11 21 21 21h364" fill="url(#4)"/><path d="m629 1299.36v-212h778.62c10 0 21 7 21 21v170c0 14-11 21-21 21h-778.62" fill="url(#3)"/><path d="m374.39 1192.36c-57 0-109.34-69.911-114.39-100h1152.16c-5.05 30.09-57.05 100.09-114.05 100.09" fill="url(#2)"/></g></g><path d="m420.62 1233.3c0 9.673-3.784 15.15-22.536 15.15-2.467 0-4.606-.132-6.744-.444v-127.64c0-9.689 3.29-19.822 22.21-19.822 2.467 0 4.771.23 7.07.757v131.99m-40.14-19.312c0 17.947-11.679 31.07-35.37 33.64-17.272 1.859-42.28-.296-54.12-1.645-.493-1.974-.822-4.376-.822-6.317 0-15.677 8.389-19.296 16.45-19.296 8.225 0 21.22 1.513 30.926 1.513 10.528 0 13.818-3.619 13.818-7.06 0-4.507-4.277-6.366-12.502-7.962l-22.701-4.343c-18.753-3.619-28.787-16.598-28.787-30.383 0-16.812 11.844-30.844 35.2-33.426 17.601-1.941 39.15.23 50.995 1.661.493 2.023.658 3.981.658 6 0 15.693-8.225 19.08-16.285 19.08-5.922 0-15.463-1.135-26.32-1.135-11.02 0-15.463 3.076-15.463 6.761 0 3.882 4.277 5.461 11.02 6.728l21.714 3.997c22.04 4.03 31.584 16.647 31.584 32.18m118.77 68.73c2.467 1.283 7.402 2.78 13.818 2.928 10.857.247 16.779-3.899 21.22-13.719l58.56-130.51c-2.303-1.267-7.731-2.714-12.173-2.78-7.402-.148-17.601 1.349-24.02 16.746l-18.917 44.711-37.18-60.47c-2.467-.74-8.225-1.793-12.502-1.793-13.16 0-20.562 4.787-28.13 13.04l-36.03 39.562 28.952 45.682c5.428 8.357 12.502 12.617 23.852 12.617 7.567 0 13.818-1.727 16.779-3.158l-34.874-52.673 24.675-26.353 40.631 63.875" fill="#849ead" stroke="none"/><g transform="matrix(7.11191 0 0-7.11191-3973.12 4992.77)" clip-path="url(#0)" filter="url(#1)" fill="#fff"><path d="m0 0c-.605 0-1.096.064-1.475.194-.377.129-.668.309-.873.534-.206.227-.346.5-.421.826-.076.323-.114.669-.114 1.036v16.256c0 .625.194 1.159.583 1.601.388.443 1.123.665 2.202.665.453 0 .901-.022 1.344-.065.442-.044.816-.097 1.117-.16v-16.16h6.111c.044-.259.093-.562.146-.907.054-.345.08-.742.08-1.198 0-1.014-.21-1.704-.631-2.073-.42-.367-.998-.549-1.732-.549h-6.337" transform="translate(658.92 523.78)"/><path d="m0 0c-.453 0-.902.022-1.344.064-.442.044-.814.097-1.116.162v18.749c0 .628.192 1.16.582 1.603.39.443 1.123.666 2.203.666.454 0 .899-.023 1.341-.066.444-.045.814-.097 1.12-.162v-18.75c0-.626-.194-1.161-.585-1.604-.388-.441-1.122-.662-2.201-.662" transform="translate(702.29 523.56)"/><path d="m0 0c-.454 0-.902.022-1.345.064-.442.044-.814.097-1.116.162v18.749c0 .628.194 1.16.583 1.603.388.443 1.122.666 2.202.666.453 0 .9-.023 1.343-.066.442-.045.814-.097 1.118-.162v-18.75c0-.626-.194-1.161-.583-1.604-.389-.441-1.122-.662-2.202-.662" transform="translate(672.22 523.56)"/><path d="m0 0c-.432 0-.85.022-1.261.065-.408.043-.754.096-1.035.161v20.588c.324.107.744.2 1.261.275.518.075.957.115 1.325.115 1.187 0 2.048-.152 2.588-.456.538-.299.988-.741 1.357-1.323l7.335-11.539v11.247c0 .281.038.544.113.793.078.248.204.47.389.663.183.193.437.345.761.451.322.107.731.164 1.227.164.431 0 .845-.024 1.246-.066.396-.042.735-.086 1.018-.129v-20.622c-.304-.15-.67-.254-1.102-.307-.431-.052-.85-.08-1.26-.08-1.013 0-1.766.139-2.263.419-.495.281-.904.669-1.227 1.164l-7.854 12.541v-11.99c0-.604-.184-1.112-.551-1.521-.365-.409-1.054-.613-2.067-.613" transform="translate(710.28 523.55)"/><path d="m0 0c0 .357.038.693.11 1.01.074.315.211.582.411.804.2.22.483.394.852.52.367.124.844.188 1.435.188l9.479-.003c.029-.364.029-.674.029-1.095 0-6.946-5.321-11.12-11.06-11.12-6.275 0-11.01 4.904-11.01 10.868 0 6.19 4.986 10.673 11.09 10.673 4.958 0 9.215-3.334 10.363-7.338h-5.939c-.812 1.455-2.324 2.687-4.563 2.687-2.606 0-5.659-1.933-5.659-6.02 0-4.341 3.082-6.217 5.686-6.217 2.634 0 4.398 1.315 4.956 3.333h-6.189l.009 1.712" transform="translate(738.75 533.06)"/><path d="m0 0c.877-.125 2.264-.2 3-.2 2.133 0 4.517.005 6.613 3.331l11.01 17.661c0 0-1.273.408-2.773.408-1.657 0-3.525-.443-4.166-1.763l-8.363-13.42-.036 14.719c-.304.065-.681.119-1.128.163-.446.042-.898.067-1.353.067-1.092 0-1.831-.225-2.224-.671-.392-.447-.588-.987-.588-1.618l.012-18.663" transform="translate(678.15 523.76)"/></g></g></svg>