<svg xmlns="http://www.w3.org/2000/svg" height="91.96" width="600" viewBox="0 0 158.75 24.332069" xmlns:xlink="http://www.w3.org/1999/xlink"><defs><linearGradient id="3" gradientUnits="userSpaceOnUse" x1="23.525" x2="21.92" y1="13.716" y2="-1.556"><stop stop-color="#ededed"/><stop stop-color="#fff" offset=".758"/><stop stop-color="#fff" offset="1"/></linearGradient><linearGradient id="4" gradientUnits="userSpaceOnUse" x1="139.83" x2="141.04" y1="12.999" y2="-.81" xlink:href="#3"/><linearGradient id="2" gradientUnits="userSpaceOnUse" x2="0" y1=".629" y2="11.65"><stop stop-color="#f4a3ae"/><stop stop-color="#b33027" offset="1"/></linearGradient><linearGradient id="0" gradientUnits="userSpaceOnUse" x2="0" y1="0" y2="24.333"><stop stop-color="#a9252b"/><stop stop-color="#941f21" offset=".401"/><stop stop-color="#b82527" offset="1"/></linearGradient><linearGradient id="1" gradientUnits="userSpaceOnUse" x2="0" y1="0" y2="24.333"><stop stop-color="#d2d2d3"/><stop stop-color="#fff" offset="1"/></linearGradient></defs><g stroke-width="1.013"><path d="m0 2.314v19.797c0 1.224 1 2.221 2.225 2.221h154.3c1.21 0 2.2-.964 2.23-2.16v-19.909c-.03-1.195-1.02-2.164-2.23-2.261l-154.29-.002c-1.229.094-2.23 1.094-2.23 2.314" fill="url(#1)"/><path d="m43.18 24.332h81.17v-24.332h-81.17z" fill="url(#0)"/><path d="m43.18.629v11.02c24.883-.003 58.58-.005 81.17-.005v-11.02z" fill="url(#2)"/><path d="m124.35.629v11.01l.001.003c14.15-.003 23.94-.003 24.46-.003 1.96 0 7.29-4.314 8.66-11.01h-.001z" fill="url(#4)"/><path d="m1.124.629h-.005c.743 5.431 7.06 11.02 9.341 11.02 0 0 13.818 0 32.719-.002v-11.02z" fill="url(#3)"/><path fill="#fff" d="m113.47 11.127l-2.42-.8c-1.62-.537-2.29-1.154-2.29-2.34 0-1.207.98-1.903 3.32-1.903 1.36 0 2.83.332 3.89.748.36.15.51.074.56-.233l.41-2.393c.05-.254-.02-.358-.22-.434-1.37-.543-3.2-.906-4.76-.906-4.12 0-6.75 1.777-6.75 5.173 0 2.626 1.27 4.217 3.99 5.197l2.44.875c2.22.795 2.65 1.284 2.65 2.442 0 1.619-.95 2.288-3.34 2.288-1.46 0-3.34-.487-4.78-1.131-.29-.13-.47-.155-.52.155l-.44 2.393c-.05.332-.05.411.31.566 1.52.642 3.86 1.076 5.64 1.076 3.98 0 6.63-1.927 6.63-5.629 0-2.754-1.1-4.091-4.32-5.144m-9.91-7.923h-2.38c-.38 0-.56.078-.61.383-.629 4.271-1.49 9.235-2.72 13.79h-.255c-.852-3.832-1.646-8.565-2.502-13.3-.051-.256-.15-.335-.428-.335h-3.749c-.251 0-.373.079-.427.335-.831 4.682-1.621 9.339-2.555 13.3h-.276c-1.082-4.321-1.766-9.595-2.408-13.79-.046-.31-.199-.383-.602-.383h-2.543c-.35 0-.522.073-.451.462.883 4.961 1.877 10.803 3.74 17.364.124.382.353.537.731.537h3.177c.401 0 .579-.155.675-.564 1.036-4.501 1.972-9.13 2.726-12.782h.201c.758 3.627 1.692 8.126 2.649 12.782.076.435.274.564.677.564h3.177c.381 0 .603-.155.733-.537 1.81-6.38 3.1-12.458 3.87-17.364.06-.389-.1-.462-.45-.462m-24 15.251h-8.267v-4.755h6.755c.231 0 .335-.107.335-.363v-2.388c0-.261-.104-.365-.335-.365h-6.755v-4.269h8.107c.231 0 .333-.101.333-.361v-2.39c0-.259-.102-.361-.333-.361h-11.297c-.282 0-.412.127-.412.361v17.617c0 .311.079.385.412.385h11.457c.231 0 .333-.101.333-.355v-2.396c0-.256-.102-.361-.333-.361m-14.897-15.251h-2.545c-.36 0-.436.101-.436.436v11.188h-.155l-8.854-11.422c-.102-.152-.178-.203-.462-.203h-2.109c-.285 0-.414.152-.414.361v17.566c0 .335.078.436.439.436h2.546c.36 0 .438-.101.438-.436v-11.189h.15l8.832 11.164c.231.332.411.461.746.461h1.824c.361 0 .44-.101.44-.436v-17.49c0-.336-.079-.437-.44-.437"/><path d="m137.85 11.287v-3.391c0-.917.36-1.503 2.26-1.503.23 0 .43.018.67.051v11.12c0 .92-.37 1.5-2.27 1.5-.23 0-.43-.017-.66-.051v-5.05h-5.9v3.598c0 .92-.37 1.5-2.27 1.5-.23 0-.43-.017-.67-.051v-11.11c0-.917.37-1.503 2.27-1.503.23 0 .43.018.67.051v4.843zm16.65 1.446c0-3.728-2.68-6.256-7.13-6.256h-3.01c-1.45 0-1.8.764-1.8 1.766v8.997c0 .961.35 1.746 1.8 1.746h3.01c4.45 0 7.13-2.531 7.13-6.253m-9.05 3.575v-7.153h2.09c2.91 0 3.98 1.88 3.98 3.578 0 1.695-1.07 3.575-3.98 3.575z"/><path d="m14.862 15.01c0 2.112-1.382 3.657-4.181 3.959-2.034.218-4.975-.041-6.37-.201-.051-.225-.092-.51-.092-.733 0-1.848.997-2.271 1.934-2.271.969 0 2.499.17 3.642.17 1.248 0 1.631-.425 1.631-.831 0-.527-.504-.748-1.479-.935l-2.659-.509c-2.213-.426-3.393-1.958-3.393-3.58 0-1.977 1.398-3.629 4.144-3.934 2.083-.223 4.613.028 5.999.199.05.241.076.464.076.715 0 1.838-.969 2.239-1.906 2.239-.718 0-1.832-.138-3.109-.138-1.296 0-1.832.361-1.832.797 0 .46.51.65 1.325.795l2.537.472c2.614.477 3.733 1.963 3.733 3.786m4.561 2.266c0 1.135-.446 1.787-2.652 1.787-.295 0-.553-.02-.794-.056v-15.03c0-1.139.385-2.33 2.619-2.33.281 0 .565.03.827.086zm9.04 5.811c.286.15.883.331 1.634.351 1.279.025 1.979-.465 2.5-1.614l6.89-15.364c-.287-.155-.914-.322-1.432-.335-.883-.015-2.073.168-2.835 1.977l-2.228 5.266-4.372-7.129c-.282-.084-.973-.211-1.48-.211-1.54 0-2.405.571-3.301 1.545l-4.254 4.652 3.419 5.383c.637.979 1.472 1.481 2.822 1.481.888 0 1.621-.202 1.961-.367l-4.115-6.21 2.917-3.094 4.787 7.517z"/></g></svg>