<svg xmlns="http://www.w3.org/2000/svg" height="119.02" width="600" viewBox="0 0 158.75 31.489761"><defs><linearGradient id="3" gradientUnits="userSpaceOnUse" y1=".795" x2="0" y2="15.05"><stop stop-color="#f49da7" offset=".005"/><stop stop-color="#df8183" offset=".192"/><stop stop-color="#ca615c" offset=".468"/><stop stop-color="#bd4943" offset=".704"/><stop stop-color="#b53a34" offset=".889"/><stop stop-color="#b23430" offset="1"/></linearGradient><linearGradient id="2" x1="32.915" gradientUnits="userSpaceOnUse" y1="20.23" x2="27.07" y2="-5.095"><stop stop-color="#e6e6e6"/><stop stop-color="#f7f7f7" offset=".426"/><stop stop-color="#fff" offset=".758"/></linearGradient><linearGradient id="0" gradientUnits="userSpaceOnUse" y1="7.659" x2="0" y2="27.891"><stop stop-color="#c6c7c7"/><stop stop-color="#d8d9d8" offset=".289"/><stop stop-color="#f2f1f1" offset=".735"/><stop stop-color="#fff" offset="1"/></linearGradient><linearGradient id="1" gradientUnits="userSpaceOnUse" y1="7.661" x2="0" y2="27.891"><stop stop-color="#a62532"/><stop stop-color="#901c24" offset=".401"/><stop stop-color="#9a2028" offset=".53"/><stop stop-color="#af282e" offset=".82"/><stop stop-color="#b62a30" offset="1"/></linearGradient></defs><g stroke-width=".426"><path d="m0 2.998c0-1.586 1.301-2.877 2.877-2.998h52.47v31.49h-52.47c-1.576 0-2.877-1.291-2.877-2.877v-25.614" fill="url(#0)"/><path d="m55.35 0h100.52c1.58.132 2.88 1.423 2.88 3.01v25.604c0 1.586-1.3 2.877-2.88 2.877h-100.52z" fill="url(#1)"/><path d="m55.35 15.05h89.66c2.54 0 9.44-5.591 11.21-14.251h-100.87z" fill="url(#3)"/><path d="m55.35.793h-53.791c.966 7.03 9.138 14.271 12.1 14.271 0 0 18.54-.001 41.695-.001z" fill="url(#2)"/><path d="m83.15 4.229h-3.303c-.468 0-.56.132-.56.569v14.474h-.203l-11.455-14.779c-.132-.204-.234-.264-.6-.264h-2.724c-.366 0-.539.193-.539.468v22.728c0 .427.102.559.569.559h3.294c.467 0 .569-.132.569-.559v-14.485h.193l11.425 14.454c.305.427.529.59.966.59h2.368c.457 0 .559-.132.559-.559v-22.626c0-.437-.102-.569-.559-.569m19.274 19.73h-10.705v-6.15h8.745c.3 0 .43-.142.43-.467v-3.09c0-.346-.13-.478-.43-.478h-8.745v-5.519h10.485c.31 0 .44-.132.44-.468v-3.09c0-.335-.13-.468-.44-.468h-14.612c-.366 0-.529.163-.529.468v22.789c0 .407.102.498.529.498h14.832c.29 0 .42-.132.42-.457v-3.101c0-.325-.13-.467-.42-.467m31.04-19.73h-3.08c-.49 0-.71.102-.78.498-.82 5.519-1.93 11.944-3.52 17.838h-.33c-1.1-4.959-2.13-11.08-3.24-17.207-.07-.336-.2-.437-.56-.437h-4.84c-.33 0-.49.102-.55.437-1.08 6.06-2.11 12.09-3.31 17.208h-.36c-1.4-5.59-2.29-12.411-3.11-17.838-.06-.407-.27-.498-.79-.498h-3.28c-.46 0-.68.091-.59.6 1.14 6.414 2.43 13.976 4.84 22.464.16.498.46.691.95.691h4.11c.52 0 .74-.193.88-.722 1.33-5.834 2.54-11.821 3.52-16.548h.26c.97 4.696 2.19 10.521 3.42 16.548.1.559.36.722.89.722h4.1c.49 0 .79-.193.95-.691 2.34-8.254 4.01-16.12 5.01-22.464.07-.508-.13-.599-.59-.599m12.83 10.246l-3.13-1.026c-2.1-.702-2.96-1.494-2.96-3.03 0-1.566 1.27-2.46 4.29-2.46 1.77 0 3.67.427 5.03.966.47.193.66.091.73-.305l.53-3.09c.06-.335-.03-.468-.29-.569-1.77-.701-4.13-1.169-6.16-1.169-5.33 0-8.72 2.297-8.72 6.689 0 3.395 1.63 5.458 5.16 6.729l3.16 1.128c2.86 1.037 3.43 1.667 3.43 3.161 0 2.094-1.23 2.958-4.33 2.958-1.9 0-4.32-.63-6.19-1.464-.37-.162-.6-.193-.67.204l-.56 3.1c-.07.427-.07.528.4.732 1.96.823 4.99 1.392 7.29 1.392 5.15 0 8.58-2.5 8.58-7.288 0-3.557-1.43-5.296-5.59-6.658" fill="#fff"/><path d="m36.3 29.955c.376.193 1.148.427 2.114.457 1.667.031 2.571-.61 3.242-2.094l8.915-19.871c-.376-.204-1.179-.417-1.85-.437-1.149-.02-2.684.213-3.67 2.561l-2.886 6.81-5.662-9.219c-.356-.112-1.25-.274-1.911-.274-1.992 0-3.11.732-4.269 1.992l-5.499 6.02 4.421 6.973c.824 1.271 1.901 1.911 3.649 1.911 1.149 0 2.094-.264 2.542-.478l-5.327-8.03 3.771-4 6.201 9.727zm-11.69-7.522c0 1.474-.579 2.318-3.435 2.318-.376 0-.712-.031-1.027-.071v-19.445c0-1.474.498-3.02 3.395-3.02.356 0 .732.041 1.067.112zm-5.905-2.927c0 2.734-1.779 4.726-5.408 5.123-2.632.274-6.434-.051-8.243-.265-.061-.284-.112-.66-.112-.945 0-2.389 1.291-2.937 2.5-2.937 1.25 0 3.232.223 4.707.223 1.616 0 2.114-.549 2.114-1.077 0-.681-.651-.976-1.911-1.21l-3.446-.661c-2.856-.548-4.391-2.531-4.391-4.635 0-2.551 1.809-4.696 5.367-5.082 2.694-.295 5.967.03 7.755.254.072.305.102.6.102.925 0 2.379-1.25 2.897-2.46 2.897-.935 0-2.378-.183-4.03-.183-1.677 0-2.368.468-2.368 1.037 0 .59.661.833 1.707 1.027l3.284.609c3.384.62 4.828 2.542 4.828 4.9" fill="#1c1c1e"/></g></svg>