<svg xmlns="http://www.w3.org/2000/svg" height="117.88" width="600" viewBox="0 0 158.75 31.188552"><defs><linearGradient id="3" gradientUnits="userSpaceOnUse" x2="0" y1="272.73" y2="241.54"><stop stop-color="#192967"/><stop stop-color="#0075bf" offset=".5"/><stop stop-color="#0075bf" offset="1"/></linearGradient><linearGradient id="2" gradientUnits="userSpaceOnUse" x2="0" y1="242.96" y2="249.36"><stop stop-color="#10bbef"/><stop stop-color="#0075bf" offset=".843"/><stop stop-color="#0075bf" offset="1"/></linearGradient><linearGradient id="0" gradientUnits="userSpaceOnUse" x2="0" y1="272.73" y2="241.54"><stop stop-color="#282827"/><stop stop-color="#a8a7a7" offset=".5"/><stop stop-color="#a8a7a7" offset="1"/></linearGradient><linearGradient id="1" gradientUnits="userSpaceOnUse" x2="0" y1="242.96" y2="249.36"><stop stop-color="#dadada"/><stop stop-color="#a8a7a7" offset=".844"/><stop stop-color="#a8a7a7" offset="1"/></linearGradient></defs><g transform="translate(62.941-241.54)"><path fill="url(#0)" d="m-59.952 241.54c-1.652 0-2.989 1.46-2.989 3.27v24.64c0 1.81 1.337 3.28 2.989 3.28h59.14c1.651 0 2.989-1.47 2.989-3.28v-24.64c0-1.81-1.338-3.27-2.99-3.27z"/><path fill="url(#1)" d="m-59.09 242.96c-1.276 0-2.31 1.43-2.31 3.2s1.034 3.2 2.31 3.2h48.639c1.276 0 2.309-1.43 2.309-3.2 0-1.88-1.034-3.2-2.309-3.2z"/><path fill="url(#3)" d="m-10.367 241.54c-1.651 0-2.989 1.46-2.989 3.27v27.92h106.17c1.657 0 2.995-1.47 2.995-3.28v-27.91z"/><path fill="url(#2)" d="m-12.835 242.96c-.329.53-.521 1.17-.521 1.85v4.55h107.55v-6.4z"/><g fill="#fff"><path d="m-3.541 257.8c.314 0 .596-.04.846-.12.25-.08.464-.23.643-.45.179-.21.316-.51.407-.9.093-.39.139-.9.139-1.53 0-.62-.051-1.12-.149-1.52-.101-.39-.244-.7-.43-.91-.187-.22-.404-.37-.655-.44-.251-.08-.533-.12-.847-.12h-2.723v5.99zm-5.716-8.49h5.901c.861 0 1.596.09 2.207.26.61.17 1.109.46 1.496.88.388.42.675.98.862 1.68s.281 1.58.281 2.63c0 1.06-.097 1.94-.292 2.65-.193.7-.488 1.27-.883 1.69s-.9.72-1.518.9c-.617.18-1.349.27-2.195.27h-2.909v4.8h-2.95z"/><path d="m8.536 257.47c.344 0 .647-.04.905-.12.257-.08.474-.22.645-.44.173-.22.301-.51.388-.88.086-.36.129-.83.129-1.41s-.046-1.05-.14-1.42c-.093-.37-.23-.65-.409-.86s-.398-.35-.658-.42c-.258-.08-.553-.11-.881-.11h-2.65v5.66zm5.771 7.61h-3.295l-2.908-5.17h-2.24v5.17h-2.929v-15.77h5.771c.862 0 1.598.09 2.209.26.609.17 1.108.46 1.497.87.387.41.67.95.851 1.61.179.67.268 1.51.268 2.51 0 1.38-.194 2.44-.582 3.18-.387.74-1.04 1.25-1.959 1.52z"/><path d="m15.826 249.31h2.994v15.77h-2.994z"/><path d="m21.07 249.31h3.275l3.704 10.85 3.725-10.85h3.275v15.76h-2.844v-9.77l-3.122 9.13h-2.24l-3.102-9.11v9.75h-2.671z"/><path d="m42.762 253.81l-1.851 6.16h3.639zm-3.401 11.26h-2.952l5.126-15.85h2.692l4.933 15.85h-3.102l-.775-2.62h-5.125z"/><path d="m50.54 249.33l9.197-.02v2.63h-6.204v4.54h4.825v2.56h-4.825v6.03h-2.993z"/><path d="m61.21 249.31h2.994v15.77h-2.994z"/><path d="m66.43 249.31h2.994v13.18h6.374v2.58h-9.368z"/><path d="m83.09 253.81l-1.851 6.16h3.639zm-3.403 11.26h-2.952l5.127-15.85h2.691l4.933 15.85h-3.101l-.775-2.62h-5.126z"/><path d="m-45.47 260.08c0 2.64-1.718 4.55-5.215 4.93-2.53.27-6.19-.04-7.934-.25-.058-.28-.104-.63-.104-.91 0-2.3 1.234-2.83 2.4-2.83 1.212 0 3.119.21 4.533.21 1.564 0 2.037-.53 2.037-1.03 0-.66-.626-.93-1.837-1.17l-3.321-.64c-2.755-.52-4.224-2.43-4.224-4.46 0-2.46 1.74-4.52 5.165-4.89 2.59-.28 5.745.03 7.476.25.058.29.093.57.093.88 0 2.29-1.211 2.79-2.376 2.79-.895 0-2.285-.17-3.874-.17-1.612 0-2.282.45-2.282.99 0 .58.634.81 1.647.99l3.167.59c3.249.6 4.649 2.45 4.649 4.72m5.681 2.82c0 1.42-.553 2.23-3.307 2.23-.366 0-.683-.03-.989-.07v-18.72c0-1.42.482-2.91 3.261-2.91.353 0 .705.04 1.035.11zm11.259 7.25c.364.18 1.106.41 2.037.43 1.601.03 2.472-.58 3.119-2.01l8.58-19.14c-.352-.19-1.139-.4-1.777-.41-1.106-.03-2.588.19-3.531 2.45l-2.777 6.56-5.451-8.87c-.352-.11-1.213-.26-1.836-.26-1.931 0-3 .7-4.12 1.91l-5.297 5.8 4.261 6.71c.789 1.22 1.826 1.84 3.507 1.84 1.107 0 2.026-.26 2.449-.45l-5.132-7.74 3.638-3.86 5.968 9.37z"/></g></g></svg>