<?xml version="1.0" encoding="UTF-8" standalone="no"?>
<svg xmlns:rdf="http://www.w3.org/1999/02/22-rdf-syntax-ns#" xmlns="http://www.w3.org/2000/svg" height="71.266" width="600" version="1.1" xmlns:cc="http://creativecommons.org/ns#" xmlns:xlink="http://www.w3.org/1999/xlink" viewBox="0 0 599.99999 71.266005" xmlns:dc="http://purl.org/dc/elements/1.1/">
 <defs>
  <path id="j" d="m490.36 1.689v37.718h423.87c6.45 0 16.25-7.377 16.25-7.377 19.32-13.836 22.38-30.341 22.38-30.341h-462.5z"/>
  <linearGradient id="e" x1="367.1" gradientUnits="userSpaceOnUse" y1="2.85" gradientTransform="matrix(-.52655 0 0 .52655 709.11 .02423)" x2="367.1" y2="66.65">
   <stop stop-color="#FFF" offset="0"/>
   <stop stop-color="#E7ECF5" offset=".039"/>
   <stop stop-color="#BACAE4" offset=".122"/>
   <stop stop-color="#93ACD4" offset=".21"/>
   <stop stop-color="#7293C7" offset=".303"/>
   <stop stop-color="#577EBC" offset=".403"/>
   <stop stop-color="#426EB3" offset=".51"/>
   <stop stop-color="#3363AE" offset=".631"/>
   <stop stop-color="#2B5CAA" offset=".774"/>
   <stop stop-color="#285AA9" offset="1"/>
  </linearGradient>
  <linearGradient id="g" x1="538.1" gradientUnits="userSpaceOnUse" y1="2.848" gradientTransform="matrix(.52655 0 0 .52655 -.00526 .02423)" x2="538.1" y2="66.65">
   <stop stop-color="#FFF" offset="0"/>
   <stop stop-color="#FAE1E3" offset=".048"/>
   <stop stop-color="#F2B4B9" offset=".13"/>
   <stop stop-color="#EB8D95" offset=".217"/>
   <stop stop-color="#E66C76" offset=".31"/>
   <stop stop-color="#E1515D" offset=".408"/>
   <stop stop-color="#DD3C49" offset=".515"/>
   <stop stop-color="#DB2D3B" offset=".634"/>
   <stop stop-color="#D92533" offset=".776"/>
   <stop stop-color="#D92231" offset="1"/>
  </linearGradient>
  <linearGradient id="h" gradientUnits="userSpaceOnUse" y1="135.3" gradientTransform="matrix(.52655 0 0 .52655 -.00526 .02423)" x2="538.1" x1="538.1">
   <stop stop-color="#D92231" offset="0"/>
   <stop stop-color="#D12130" offset=".193"/>
   <stop stop-color="#BD1F2C" offset=".448"/>
   <stop stop-color="#9D1A26" offset=".735"/>
   <stop stop-color="#7C131D" offset="1"/>
  </linearGradient>
  <linearGradient id="i" x1="128.2" gradientUnits="userSpaceOnUse" y1="2.848" gradientTransform="matrix(.52655 0 0 .52655 -.00526 .02423)" x2="128.2" y2="66.65">
   <stop stop-color="#FFF" offset="0"/>
   <stop stop-color="#E7ECF5" offset=".039"/>
   <stop stop-color="#BACAE4" offset=".122"/>
   <stop stop-color="#93ACD4" offset=".21"/>
   <stop stop-color="#7293C7" offset=".303"/>
   <stop stop-color="#577EBC" offset=".403"/>
   <stop stop-color="#426EB3" offset=".51"/>
   <stop stop-color="#3363AE" offset=".631"/>
   <stop stop-color="#2B5CAA" offset=".774"/>
   <stop stop-color="#285AA9" offset="1"/>
  </linearGradient>
  <path id="f" d="m145.81-0.001h344.54v79.99h-344.54z"/>
  <path id="c" d="m145.81 1.689h344.54v37.718h-344.54z"/>
  <path id="b" d="m5.718 1.689s3.062 16.505 22.382 30.341c0 0 9.802 7.377 16.248 7.377h101.46v-37.718h-140.09z"/>
 </defs>
 <clipPath>
  <use xlink:href="#j" height="100%" width="100%" y="0" x="0" overflow="visible"/>
 </clipPath>
 <clipPath>
  <use xlink:href="#f" height="100%" width="100%" y="0" x="0" overflow="visible"/>
 </clipPath>
 <clipPath>
  <use xlink:href="#c" height="100%" width="100%" y="0" x="0" overflow="visible"/>
 </clipPath>
 <clipPath>
  <use xlink:href="#b" height="100%" width="100%" y="0" x="0" overflow="visible"/>
 </clipPath>
 <path fill="#0e2d6d" d="m129.89 0.02528h-123.42c-3.5592 0-6.47 2.9113-6.47 6.4712v58.288c0 3.56 2.9113 6.467 6.4713 6.467l123.42-0.008v-71.242z"/>
 <path opacity=".8" d="m129.89 1.5238h-124.79c0.0022 0 2.7298 14.701 19.937 27.022 0 0 8.809 6.629 14.549 6.572h90.304v-33.594z" fill="url(#i)"/>
 <path fill="url(#h)" d="m129.89 71.266h306.88v-71.242l-306.88 0.00023z"/>
 <path opacity=".8" d="m129.89 1.5238h306.88v33.594h-306.88z" fill="url(#g)"/>
 <path fill="#0e2d6d" d="m436.77 0.02423h157.01c3.31 0 6.22 2.9134 6.22 6.4713v58.288c0 3.559-2.91 6.466-6.47 6.466l-156.75-0.008v-71.242z"/>
 <path opacity=".8" d="m436.77 1.5249h158.12s-2.73 14.696-19.94 27.022c0 0-8.81 6.629-14.55 6.572h-123.47v-33.594z" fill="url(#e)"/>
 <path fill="#fff" d="m558.13 45.186v-21.304h6.24c8.67 0 11.84 5.603 11.84 10.652 0 5.054-3.17 10.652-11.84 10.652h-6.3zm26.86-10.652c0-11.094-7.98-18.634-21.21-18.634h-9c-4.31 0-5.34 2.283-5.34 5.26v26.796c0 2.876 1.03 5.2 5.34 5.2h9c13.17 0 21.07-7.519 21.07-18.618m-49.5-4.307v-10.094c0-2.729 1.09-4.466 6.74-4.466 0.69 0 1.29 0.052 1.99 0.15v33.109c0 2.72-1.1 4.452-6.75 4.452-0.69 0-1.29-0.048-1.98-0.143v-15.006h-17.58v10.725c0 2.72-1.1 4.452-6.74 4.452-0.69 0-1.29-0.047-1.98-0.142v-33.073c0-2.728 1.08-4.466 6.74-4.466 0.69 0 1.28 0.053 1.98 0.15v14.406h17.63zm-449.58 35.98c0.847 0.436 2.568 0.954 4.724 1.011 3.715 0.079 5.734-1.341 7.235-4.669l19.902-44.393c-0.82-0.437-2.65-0.928-4.12-0.956-2.57-0.055-6.01 0.465-8.19 5.708l-6.446 15.201-12.642-20.583c-0.82-0.246-2.812-0.6-4.261-0.6-4.475 0-6.961 1.637-9.551 4.449l-12.285 13.433 9.884 15.559c1.829 2.84 4.233 4.287 8.135 4.287 2.567 0 4.697-0.597 5.676-1.063l-11.9-17.939 8.435-8.957 13.843 21.731-8.53 17.802zm-26.117-16.807c0 3.275-1.284 5.163-7.671 5.163-0.848 0-1.583-0.058-2.293-0.168v-43.424c0-3.3032 1.118-6.7452 7.561-6.7452 0.82 0 1.637 0.0832 2.403 0.2458v44.909zm-13.168-6.556c0 6.113-3.986 10.563-12.095 11.437-5.871 0.628-14.359-0.11-18.398-0.574-0.138-0.656-0.247-1.473-0.247-2.129 0-5.323 2.866-6.55 5.571-6.55 2.813 0 7.235 0.49 10.51 0.49 3.629 0 4.722-1.23 4.722-2.403 0-1.53-1.446-2.154-4.259-2.701l-7.704-1.443c-6.387-1.23-9.799-5.65-9.799-10.347 0-5.702 4.04-10.483 11.985-11.352 6.008-0.656 13.321 0.08 17.339 0.572 0.136 0.683 0.217 1.337 0.217 2.048 0 5.323-2.812 6.471-5.513 6.471-2.075 0-5.297-0.383-8.983-0.383-3.741 0-5.297 1.039-5.297 2.293 0 1.338 1.474 1.883 3.823 2.292l7.345 1.366c7.535 1.395 10.784 5.682 10.784 10.947zm139.86 2.959c0-7.64-4.98-11.357-12.9-13.111l-13.88-3.151c-2.52-0.562-4.63-1.334-4.63-3.857 0-2.734 2.18-3.785 7.99-3.785 6.88 0 8.49 0.35 14.73 0.35 2.87 0 5.82-1.333 5.82-7.008 0-0.703-0.07-1.474-0.21-2.176-4.21-0.348-11.71-0.77-20.97-0.77-13.94 0-19.28 6.029-19.28 13.738 0 7.219 4.56 11.22 12.62 13.111l13.88 3.224c3.23 0.768 4.98 2.173 4.98 4.205 0 2.735-2.46 3.786-8.27 3.786-6.87 0-10.03-0.49-16.27-0.49-2.87 0-5.82 1.329-5.82 7.009 0 0.7 0.07 1.47 0.21 2.173 4.21 0.417 13.25 0.911 22.5 0.911 13.96 0 19.48-5.95 19.48-14.138zm114.52-12.337v-11.705h11.01c4.7 0 8.41 0.699 8.41 5.608 0 4.133-2.8 6.097-8.41 6.097h-10.99zm-0.05 9.252h5.82l11.23 13.39c2.1 2.593 4.13 3.926 8.9 3.926 3.22 0 5.4-0.419 7.14-1.263l-14.59-16.892c8.21-1.751 12.34-7.082 12.34-14.933 0-9.672-5.89-14.443-17.8-14.443l-17.04-0.069c-5.53 0.21-7.36 2.101-7.36 7.151v39.675c0.84 0.14 1.83 0.207 2.81 0.207 7.01 0 8.62-2.029 8.62-5.676v-11.063zm-97.99-7.993v-12.9h11.43c5.68 0 8.48 2.103 8.48 6.239 0 4.418-2.8 6.661-8.48 6.661h-11.44zm-11.43 24.532c0.85 0.14 1.83 0.207 2.81 0.207 7.01 0 8.62-2.03 8.62-5.677v-9.604h11.92c12.97 0 19.42-5.607 19.42-16.123 0-10.162-6.45-15.564-18.65-15.564h-16.75c-5.61 0-7.36 2.173-7.36 7.15v39.623zm80.67-23.969c0 5.403-0.91 9.183-2.73 11.426-1.75 2.312-4.63 3.366-8.55 3.366-4-0.073-6.87-1.193-8.7-3.366-1.82-2.173-2.73-5.955-2.73-11.426 0-5.397 0.98-9.183 2.8-11.357 1.83-2.243 4.7-3.294 8.62-3.294 3.93 0 6.73 1.051 8.56 3.294 1.84 2.174 2.73 5.96 2.73 11.357zm-11.27 24.127c7.36 0 13.05-1.752 17.04-5.329 3.99-3.507 6.03-9.815 6.03-18.787-0.07-8.83-2.1-15.001-6.24-18.645-4.14-3.576-9.74-5.397-16.83-5.397-7.07 0-12.69 1.82-16.82 5.397-4.14 3.646-6.17 9.815-6.24 18.645 0 8.972 2.03 15.28 6.03 18.787 3.95 3.528 9.64 5.318 17.01 5.318zm100.99-37.306h9.19c3.01 0 6.1-1.403 6.1-7.367 0-0.698-0.07-1.54-0.21-2.241h-35.68c-3.02 0-6.1 1.403-6.1 7.362 0 0.703 0.07 1.541 0.21 2.246h15.07v37.153c0.84 0.14 1.82 0.207 2.81 0.207 7 0 8.61-2.029 8.61-5.676v-31.672zm60.08 23.694c0-7.64-4.98-11.357-12.9-13.111l-13.88-3.151c-2.52-0.562-4.62-1.334-4.62-3.857 0-2.734 2.17-3.785 7.98-3.785 6.88 0 8.49 0.35 14.73 0.35 2.87 0 5.82-1.333 5.82-7.008 0-0.703-0.07-1.474-0.21-2.176-4.21-0.348-11.71-0.77-20.96-0.77-13.95 0-19.28 6.029-19.28 13.738 0 7.219 4.56 11.22 12.62 13.111l13.88 3.224c3.23 0.768 4.98 2.173 4.98 4.205 0 2.735-2.46 3.786-8.27 3.786-6.87 0-10.03-0.49-16.27-0.49-2.88 0-5.82 1.329-5.82 7.009 0 0.7 0.07 1.47 0.21 2.173 4.2 0.417 13.25 0.911 22.5 0.911 13.91 0 19.43-5.95 19.43-14.138zm48.87 14.612c-3.37 0-6.43-0.428-9.18-1.279-2.75-0.85-5.23-1.959-7.42-3.327 0.05-2.632 0.57-4.652 1.57-6.065 1-1.415 2.33-2.121 3.99-2.121 0.73 0 1.47 0.122 2.23 0.367 0.75 0.245 1.56 0.511 2.41 0.806 0.85 0.289 1.76 0.559 2.74 0.801 0.98 0.245 2.05 0.366 3.22 0.366 2.43 0 4.28-0.583 5.55-1.753 1.27-1.171 1.9-2.658 1.9-4.462 0-1.559-0.62-2.899-1.86-4.019s-2.94-1.684-5.08-1.684c-1.66 0-3.06 0.219-4.21 0.659-1.14 0.439-2.2 1.025-3.18 1.753l-7.97-2.556 2.56-25.807h28.37c0.1 0.534 0.19 1.232 0.29 2.082 0.1 0.853 0.15 1.768 0.15 2.741 0 2.048-0.42 3.46-1.24 4.241-0.83 0.781-1.88 1.168-3.15 1.168h-15.06l-1.02 8.698c1.07-0.436 2.17-0.828 3.29-1.167 1.12-0.342 2.49-0.512 4.09-0.512 2.64 0 4.94 0.414 6.91 1.242 1.97 0.829 3.63 1.926 4.97 3.289 1.34 1.367 2.34 2.912 3 4.644 0.66 1.728 0.98 3.471 0.98 5.225 0 2.291-0.38 4.447-1.16 6.471s-1.95 3.792-3.51 5.303-3.52 2.704-5.89 3.582c-2.47 0.896-5.27 1.317-8.42 1.317"/>
</svg>
