<svg xmlns="http://www.w3.org/2000/svg" height="74.79" width="600" viewBox="0 0 158.75 19.789199"><defs><linearGradient id="0" gradientUnits="userSpaceOnUse" x2="0" y1="19.2" y2=".581"><stop stop-color="#562228"/><stop stop-color="#c51e2c" offset=".074"/><stop stop-color="#c51e2c" offset=".911"/><stop stop-color="#e83c4c" offset="1"/></linearGradient><linearGradient id="1" gradientUnits="userSpaceOnUse" x2="0" y1=".601" y2="19.219"><stop stop-color="#878786"/><stop stop-color="#d9dbdb" offset=".02"/><stop stop-color="#f6f6f6" offset=".052"/><stop stop-color="#eff0ef" offset=".488"/><stop stop-color="#f6f6f6" offset=".895"/><stop stop-color="#ececed" offset=".929"/><stop stop-color="#d9dbdb" offset=".964"/><stop stop-color="#878786" offset="1"/></linearGradient><linearGradient id="2" gradientUnits="userSpaceOnUse" x2="0" y1=".433" y2="19.363"><stop stop-color="#1e2546"/><stop stop-color="#223362" offset=".036"/><stop stop-color="#223362" offset=".895"/><stop stop-color="#1e2546" offset="1"/></linearGradient></defs><g stroke-width="2.809"><path fill="url(#2)" d="m2.795.601c-1.405 0-1.966.871-1.966 2.304v13.991c0 1.46.562 2.303 1.966 2.303h33.713v-18.598z"/><path fill="#a1a2a1" d="m155.91 19.789c2.18 0 2.84-1.354 2.84-2.708v-14.373c0-1.354-.66-2.708-2.84-2.708h-153.07c-2.177 0-2.84 1.354-2.84 2.708v14.373c0 1.354.663 2.708 2.843 2.708zm-152.97-.182c-1.469 0-2.461-.866-2.461-2.307v-14.811c0-1.441.992-2.306 2.461-2.306h152.87c1.46 0 2.46.865 2.46 2.307v14.811c0 1.441-1 2.307-2.46 2.307z"/><path fill="url(#1)" d="m101.69.601h-.29v18.598h54.79c1.4 0 1.96-.843 1.96-2.303v-13.991c0-1.461-.56-2.304-1.96-2.304z"/><path fill="url(#0)" d="m35.1 19.2h66.867v-18.598h-66.867z"/><g fill="#fff"><path d="m12.909 11.67c0 1.593-1.042 2.759-3.158 2.989-1.534.163-3.753-.031-4.807-.151-.039-.172-.07-.385-.07-.554 0-1.396.753-1.714 1.458-1.714.733 0 1.891.127 2.75.127.944 0 1.233-.32 1.233-.624 0-.402-.382-.567-1.115-.708l-2.01-.385c-1.672-.32-2.562-1.477-2.562-2.705 0-1.489 1.056-2.739 3.13-2.967 1.571-.171 3.481.02 4.528.149.037.18.059.351.059.537 0 1.391-.733 1.691-1.441 1.691-.542 0-1.385-.101-2.346-.101-.981 0-1.385.27-1.385.601 0 .345.385.492 1 .598l1.919.357c1.97.362 2.815 1.484 2.815 2.86m3.444 1.711c0 .857-.337 1.349-2 1.349-.22 0-.413-.017-.599-.043v-11.341c0-.863.292-1.762 1.978-1.762.213 0 .427.022.626.065zm6.822 4.388c.219.113.668.248 1.233.262.969.022 1.497-.349 1.891-1.217l5.2-11.6c-.216-.115-.691-.241-1.079-.253-.669-.011-1.568.126-2.141 1.495l-1.683 3.972-3.303-5.377c-.211-.065-.731-.16-1.113-.16-1.166 0-1.818.43-2.495 1.163l-3.208 3.512 2.582 4.065c.477.739 1.107 1.118 2.127 1.118.668 0 1.224-.151 1.483-.275l-3.11-4.689 2.203-2.335 3.615 5.673z"/><path d="m49.993 12.06c0-1.93-1.259-2.871-3.259-3.312l-3.509-.798c-.638-.141-1.168-.337-1.168-.975 0-.691.55-.955 2.02-.955 1.737 0 2.144.09 3.72.09.728 0 1.469-.337 1.469-1.773 0-.177-.016-.371-.05-.551-1.065-.087-2.958-.194-5.299-.194-3.523 0-4.871 1.523-4.871 3.472 0 1.823 1.152 2.835 3.189 3.313l3.508.814c.815.194 1.259.551 1.259 1.062 0 .691-.621.958-2.09.958-1.736 0-2.534-.123-4.11-.123-.728 0-1.472.334-1.472 1.77 0 .177.019.37.053.55 1.065.104 3.349.231 5.686.231 3.526 0 4.925-1.506 4.925-3.58"/><path d="m78.93 11.305h1.469l2.838 3.382c.53.655 1.045.992 2.25.992.815 0 1.362-.104 1.806-.317l-3.688-4.268c2.073-.444 3.118-1.792 3.118-3.776 0-2.444-1.489-3.647-4.498-3.647l-4.304-.02c-1.399.053-1.86.531-1.86 1.806v10.03c.211.037.461.054.708.054 1.77 0 2.178-.514 2.178-1.436zm.017-2.338v-2.958h2.781c1.188 0 2.127.177 2.127 1.416 0 1.045-.708 1.542-2.127 1.542z"/><path d="m51.4 15.491c.213.036.46.053.708.053 1.772 0 2.18-.514 2.18-1.435v-2.428h3.01c3.278 0 4.908-1.416 4.908-4.073 0-2.568-1.63-3.93-4.712-3.93h-4.233c-1.416 0-1.86.548-1.86 1.807zm2.888-6.2v-3.259h2.885c1.436 0 2.146.531 2.146 1.576 0 1.118-.71 1.683-2.146 1.683z"/><path d="m68.816 15.519c1.86 0 3.295-.444 4.304-1.346 1.01-.887 1.525-2.48 1.525-4.748-.019-2.231-.533-3.79-1.578-4.711-1.046-.905-2.461-1.363-4.251-1.363s-3.206.458-4.251 1.363c-1.045.921-1.559 2.481-1.576 4.711 0 2.268.514 3.861 1.523 4.748 1.01.902 2.444 1.346 4.304 1.346m2.851-6.094c0 1.366-.23 2.321-.691 2.888-.441.585-1.168.849-2.16.849-1.01-.017-1.736-.301-2.197-.849-.458-.55-.691-1.505-.691-2.888 0-1.363.25-2.321.711-2.868.46-.567 1.185-.834 2.177-.834s1.7.267 2.16.834c.461.548.691 1.506.691 2.868"/><path d="m94.38 6.08h2.321c.761 0 1.539-.354 1.539-1.86 0-.177-.016-.39-.053-.567h-9.02c-.762 0-1.54.354-1.54 1.86 0 .177.017.391.054.567h3.806v9.389c.214.034.461.051.711.051 1.77 0 2.177-.511 2.177-1.433z"/></g><path fill="#010203" d="m141.58 8.692v-2.63c0-.711.28-1.163 1.75-1.163.18 0 .34.011.52.039v8.625c0 .708-.28 1.16-1.75 1.16-.18 0-.34-.011-.52-.039v-3.917h-4.58v2.796c0 .708-.29 1.16-1.76 1.16-.18 0-.33-.011-.52-.039v-8.622c0-.711.29-1.163 1.76-1.163.18 0 .34.011.52.039v3.753zm13.04 1.107c0-2.93-2.11-4.916-5.6-4.916h-2.38c-1.13 0-1.41.598-1.41 1.388v7.07c0 .758.28 1.373 1.41 1.373h2.38c3.49 0 5.6-1.989 5.6-4.919m-7.11 2.812v-5.624h1.64c2.29 0 3.13 1.48 3.13 2.812 0 1.335-.84 2.812-3.13 2.812z"/><g fill="#da0943"><path d="m131.47 9.366h-.25l-.13.641h-.1l.14-.641h-.25l.02-.081h.58z"/><path d="m131.75 9.31h.13l.1.621.36-.621h.13l-.15.722h-.1l.15-.632-.37.632h-.09l-.1-.632-.12.632h-.1z"/></g><g fill-rule="evenodd" fill="#1a1b19"><path d="m108.43 3.692c.37-.697 1.24-1.261 1.93-1.261h4.88l-3.27 6.181h-6.13z"/><path d="m118.26 5.546c.27-.492.88-.891 1.37-.891h3.33l-1.61 3.085c-.26.492-.87.891-1.36.891h-3.34z"/><path d="m123.88 2.933c.14-.261.46-.472.72-.472h1.75l-.94 1.745c-.14.261-.46.472-.72.472h-1.75z"/><path d="m112.08 8.608h4.82l-2.57 4.81h-4.83z"/><path d="m114.33 13.44h3.38l-1.54 2.874c-.2.362-.65.655-1.01.655h-2.72z"/></g><path fill="#da0943" d="m128.66 11.698l-.37.7c-.11.191-.34.345-.54.345h-.46l1-1.868.3-.565c.42-.831.94-1.01 1.55-1.01.68 0 .77.455.47 1.014l-.02.04-.26.488-.001.034c-.25.464-.91.84-1.47.84-.07 0-.13-.006-.19-.017m.77-1.447l-.04.071-.35.649h.14c.15 0 .34-.124.42-.276l.24-.444c.06-.112.02-.205-.1-.205-.11 0-.25.093-.31.205m-7.1-.098l-.97 1.821-.001.011c-.24.461-.89.834-1.44.834-.54 0-.79-.373-.55-.831l.99-1.849c.24-.461.89-.832 1.43-.832.55 0 .8.371.55.832zm-2.08 1.717c-.06.115-.02.207.09.207.12 0 .26-.092.32-.207l.86-1.613c.06-.115.02-.208-.1-.208-.11 0-.25.093-.31.208zm5.84-1.717l-.97 1.821-.001.011c-.24.461-.89.834-1.44.834s-.79-.373-.55-.831l.98-1.849c.25-.461.89-.832 1.44-.832s.8.371.55.832zm-2.12 1.717c-.06.115-.02.207.1.207.11 0 .25-.092.31-.207l.87-1.613c.05-.115.001-.208-.1-.208-.12 0-.26.093-.32.208zm4.41-1.725l-.29.547h-.79l.24-.443c.06-.116.02-.208-.09-.208-.12 0-.26.092-.32.208l-.79 1.489-.07.132c-.06.115-.02.207.09.207.12 0 .26-.075.38-.325l.11-.203h-.2l.32-.592h.98l-.54 1.017-.001.011c-.24.461-.88.834-1.43.834s-.8-.373-.55-.831l.13-.25.85-1.607c.25-.461.89-.832 1.44-.832s.8.371.55.832zm-9.64.146l-.02.031-.38.722-.72 1.348c-.06.115-.17.216-.28.278-.08.045-.17.071-.25.071h-.46l.9-1.697.4-.753c0-.012.001-.02.001-.031.04-.101 0-.18-.11-.18s-.26.096-.32.211l-.4.753-.72 1.348c-.1.194-.34.349-.53.349h-.47l1.31-2.45c.27-.573.6-.967 1.55-.967h1.23c.47 0 .86.275.49.967l-1.12 2.101c-.1.194-.34.349-.53.349h-.47l.91-1.697.4-.753c.06-.115.001-.211-.1-.211-.12 0-.26.096-.32.211m4.68-.13l-.93 1.742c-.05.113.02.197.13.205.09.009.18 0 .29-.045l-.37.7c-.13.037-.21.056-.33.056-.55 0-.8-.371-.56-.829l1.56-2.927c.1-.191.34-.345.53-.345h.45l-.37.688h.47l-.4.755z"/><path opacity=".4" d="m100.28 14.929c1.27 1.25 1.61 2.43 1.65 2.689v-16.407h-97.71c-.587 0-1.025-.233-1.466-.233-1.301 0-1.798.517-1.798 2.045l-.006 13.218c0 .823.045 1.377.169 1.377.048-.259.084-1.532 1.483-2.689 11.176-8.6 85.63-11.238 97.68 0" fill="#fff"/></g></svg>