<svg xmlns="http://www.w3.org/2000/svg" height="70.11" width="600" viewBox="0 0 158.75 18.549684"><defs><linearGradient id="0" gradientUnits="userSpaceOnUse" gradientTransform="matrix(0-17.452-27.736 0 106.2 18)" x1="0" x2="1"><stop stop-color="#5a252a"/><stop stop-color="#cb082a" offset=".074"/><stop stop-color="#cb082a" offset=".916"/><stop stop-color="#e73440" offset="1"/></linearGradient><linearGradient id="1" gradientUnits="userSpaceOnUse" x2="0" y1="1.545" y2="68.61"><stop stop-color="#141c4b"/><stop stop-color="#1a2b68" offset=".036"/><stop stop-color="#1a2b68" offset=".895"/><stop stop-color="#141c4b" offset="1"/></linearGradient></defs><path stroke-width="5.85" fill="url(#1)" d="m2.517.548c-1.354.014-1.838.822-1.838 2.163v13.12c0 1.352.484 2.165 1.857 2.165h152.14v-17.452z"/><path d="m32.932.548v17.452h123.19c1.37 0 1.86-.813 1.86-2.164v-13.12c0-1.351-.49-2.164-1.86-2.164-42.84 0-86.5 0-123.19 0" stroke-width="1.951" fill="url(#0)"/><path d="m2.667 0c-2.044 0-2.667 1.272-2.667 2.541v13.47c0 1.269.623 2.539 2.666 2.539h153.41c2.05 0 2.67-1.269 2.67-2.541v-13.47c0-1.27-.62-2.538-2.67-2.538-52.62 0-106.64 0-153.41 0zm.091.17c52.91 0 106.66 0 153.23 0 1.38 0 2.31.811 2.31 2.164v13.882c0 1.351-.93 2.163-2.31 2.163-53.01.124-107.62.042-153.23 0-1.378 0-2.308-.813-2.308-2.163v-13.883c0-1.35.93-2.163 2.306-2.163z" stroke-width="5.85" fill="#a1a19e"/><g fill="#fff"><path stroke-width="1.935" d="m11.92 10.945c0 1.494-.977 2.586-2.96 2.802-1.438.153-3.518-.027-4.506-.141-.037-.162-.066-.362-.066-.521 0-1.308.708-1.606 1.37-1.606.687 0 1.77.12 2.575.12.886 0 1.155-.301 1.155-.586 0-.376-.357-.532-1.044-.663l-1.881-.362c-1.567-.3-2.403-1.384-2.403-2.533 0-1.397.989-2.567 2.935-2.782 1.47-.161 3.26.019 4.243.141.037.168.054.327.054.503 0 1.302-.687 1.585-1.349 1.585-.508 0-1.298-.097-2.2-.097-.917 0-1.298.255-1.298.565 0 .325.362.46.936.559l1.799.335c1.848.341 2.639 1.391 2.639 2.681m3.227 1.604c0 .801-.313 1.264-1.878 1.264-.208 0-.387-.016-.562-.041v-10.63c0-.807.275-1.65 1.854-1.65.2 0 .401.021.586.06zm6.395 4.112c.205.107.627.232 1.157.247.907.02 1.402-.328 1.771-1.141l4.873-10.871c-.201-.109-.646-.229-1.012-.239-.625-.001-1.466.118-2 1.401l-1.577 3.725-3.096-5.04c-.199-.06-.687-.149-1.045-.149-1.091 0-1.702.402-2.337 1.091l-3.01 3.291 2.421 3.809c.447.693 1.037 1.047 1.995 1.047.625 0 1.147-.141 1.387-.257l-2.914-4.394 2.066-2.188 3.388 5.317z"/><g stroke-width="1.548"><path d="m120.88 14.203c-.32 0-.57-.016-.77-.083-.19-.068-.35-.152-.45-.27-.11-.117-.22-.256-.25-.425-.04-.169-.1-.344-.1-.534v-8.453c0-.325.14-.602.34-.833.2-.229.6-.345 1.16-.345.24 0 .53.011.76.034.23.022.4.05.64.084v8.413h5.28c.02.241.04.286.07.466.03.179.05.383.05.62 0 .526-.11.868-.33 1.059s-.52.267-.9.267z"/><path d="m140.75 14.306c-.23 0-.47-.011-.7-.035-.23-.022-.43-.049-.59-.083v-9.749c0-.325.11-.603.31-.833.2-.231.58-.345 1.15-.345.23 0 .47.011.69.033.23.023.43.051.58.085v9.749c0 .325-.1.602-.29.832-.21.231-.59.346-1.15.346"/><path d="m149.13 14.445c1.7 0 3.01-.406 3.93-1.229.93-.814 1.4-2.269 1.4-4.342-.02-2.04-.49-3.467-1.44-4.311-.96-.822-2.25-1.246-3.89-1.246-1.63 0-2.93.424-3.89 1.246-.95.844-1.42 2.271-1.44 4.311 0 2.073.47 3.528 1.39 4.342.93.823 2.24 1.229 3.94 1.229m2.61-5.571c0 1.246-.21 2.121-.64 2.637-.4.535-1.06.778-1.97.778-.92-.014-1.59-.274-2.01-.778-.42-.501-.63-1.372-.63-2.637 0-1.249.23-2.122.65-2.626.42-.518 1.08-.758 1.99-.758s1.56.24 1.97.758c.43.505.64 1.378.64 2.626"/><path d="m114.27 9.464l-1.06-3.363c-.14-.454-.4-.433-.89-.379l-1.14 3.741zm-7.35 4.669l3.51-10.661c3.06-.576 4.64-.068 5.06 1.289l2.95 9.218c-.71.563-2.64.4-2.84-.203l-.61-1.936h-4.51l-.52 1.681c-.32.785-1.14 1.066-3.04.612"/><path d="m105.98 3.652c-.8-.181-1.75-.497-3.72-.497-3.49 0-6.199 2.415-6.199 5.588 0 3.136 2.52 5.657 6.199 5.657 2.48 0 3.81-.499 3.81-.499 0-.765-.001-2.118-1.12-2.118-.54 0-.76.197-2.36.197-1.48 0-3.584-.959-3.584-3.227 0-1.817 1.594-3.154 3.584-3.154 1.26 0 1.57.194 2.24.194 1.01 0 1.24-1.057 1.15-2.141"/><path d="m137.61 3.652c-.79-.181-1.75-.497-3.71-.497-3.5 0-6.21 2.415-6.21 5.588 0 3.136 2.52 5.657 6.21 5.657 2.47 0 3.8-.499 3.8-.499 0-.765-.001-2.118-1.12-2.118-.53 0-.76.197-2.36.197-1.48 0-3.58-.959-3.58-3.227 0-1.817 1.59-3.154 3.58-3.154 1.27 0 1.58.194 2.24.194 1.01 0 1.24-1.057 1.15-2.141"/></g><g stroke-width="1.935"><path d="m46.824 11.313c0-1.809-1.178-2.689-3.055-3.105l-3.287-.747c-.598-.132-1.097-.315-1.097-.913 0-.648.517-.896 1.894-.896 1.628 0 2.01.083 3.487.083.681 0 1.377-.315 1.377-1.66 0-.166-.016-.35-.048-.517-.997-.081-2.775-.182-4.965-.182-3.305 0-4.566 1.428-4.566 3.254 0 1.71 1.08 2.657 2.988 3.105l3.287.764c.763.182 1.18.515 1.18.995 0 .648-.581.898-1.961.898-1.625 0-2.373-.116-3.852-.116-.678 0-1.377.315-1.377 1.659 0 .167.017.349.05.515.997.099 3.138.215 5.329.215 3.304 0 4.616-1.41 4.616-3.353"/><path d="m59.42 14.501c.199.033.431.049.664.049 1.662 0 2.043-.48 2.043-1.343v-2.276h2.82c3.073 0 4.6-1.327 4.6-3.819 0-2.407-1.527-3.686-4.416-3.686h-3.968c-1.329 0-1.743.515-1.743 1.695zm2.707-5.81v-3.055h2.704c1.347 0 2.01.497 2.01 1.476 0 1.047-.664 1.579-2.01 1.579z"/></g><path d="m53.1 14.55c-.733 0-1.389-.125-1.969-.375-.577-.25-1.065-.592-1.466-1.026-.401-.433-.706-.936-.918-1.509-.209-.572-.315-1.186-.315-1.843v-5.203c0-.323.099-.598.298-.825.202-.228.58-.342 1.134-.342.235 0 .464.011.693.034s.421.05.574.083v6.271c0 .723.179 1.287.537 1.693.355.406.839.609 1.449.609.6 0 1.084-.203 1.452-.609.365-.406.551-.97.551-1.693v-5.22c0-.323.099-.598.298-.826.199-.228.577-.342 1.134-.342.235 0 .461.011.683.034s.411.05.567.083v6.254c0 .656-.113 1.271-.342 1.842-.228.573-.54 1.076-.941 1.509-.401.434-.889.776-1.469 1.026-.577.25-1.227.375-1.95.375" stroke-width=".332"/><path d="m73.902 12.376v-2.141h3.993c.946 0 1.468-.338 1.468-1.55 0-.287-.035-.573-.085-.759h-5.376v-2.207h4.113c.942 0 1.464-.337 1.464-1.551 0-.286-.032-.572-.085-.759h-6.148c-1.753 0-2.093.928-2.093 1.838v9.437h7.097c.943 0 1.464-.338 1.464-1.551 0-.286-.031-.573-.081-.758h-5.709z" stroke-width=".314"/><path stroke-width="1.935" d="m84.02 10.581h1.377l2.66 3.172c.498.613.98.931 2.109.931.762 0 1.278-.101 1.691-.301l-3.455-4c1.944-.415 2.923-1.678 2.923-3.537 0-2.291-1.396-3.419-4.218-3.419l-4.03-.017c-1.31.05-1.744.497-1.744 1.693v9.397c.2.033.434.051.664.051 1.66 0 2.043-.482 2.043-1.345zm.017-2.191v-2.771h2.606c1.113 0 1.993.165 1.993 1.327 0 .979-.663 1.443-1.993 1.443z"/><path opacity=".4" d="m156.09 13.979c1.31 1.173 1.48 2.278 1.53 2.519.13 0 .17-.516.17-1.288v-12.389c0-1.435-.51-1.919-1.85-1.919-.46 0-.91.221-1.51.221h-150.23c-.609 0-1.063-.221-1.516-.221-1.34 0-1.854.484-1.854 1.919l-.004 12.389c0 .772.047 1.289.175 1.289.047-.242.085-1.434 1.528-2.52 11.518-8.06 141.15-10.533 153.57 0" stroke-width="2.032"/></g></svg>