<svg xmlns="http://www.w3.org/2000/svg" height="71.27" xmlns:xlink="http://www.w3.org/1999/xlink" viewBox="0 0 599.99999 71.266005"><defs><path id="0" d="m490.36 1.689v37.718h423.87c6.45 0 16.25-7.377 16.25-7.377 19.32-13.836 22.38-30.341 22.38-30.341h-462.5"/><path id="1" d="m145.81 0h344.54v79.99h-344.54z"/><path id="2" d="m145.81 1.689h344.54v37.718h-344.54z"/><path id="3" d="m5.718 1.689s3.062 16.505 22.382 30.341c0 0 9.802 7.377 16.248 7.377h101.46v-37.718h-140.09"/><clipPath><use xlink:href="#3"/></clipPath><clipPath><use xlink:href="#0"/></clipPath><clipPath><use xlink:href="#1"/></clipPath><clipPath><use xlink:href="#2"/></clipPath><linearGradient id="6" gradientUnits="userSpaceOnUse" y1="1.524" x2="0" y2="35.12" xlink:href="#7"/><linearGradient id="4" gradientUnits="userSpaceOnUse" y1="71.27" x2="0" y2=".024"><stop stop-color="#d92231"/><stop stop-color="#d12130" offset=".193"/><stop stop-color="#bd1f2c" offset=".448"/><stop stop-color="#9d1a26" offset=".735"/><stop stop-color="#7c131d" offset="1"/></linearGradient><linearGradient id="7" gradientUnits="userSpaceOnUse" y1="1.525" x2="0" y2="35.12"><stop stop-color="#fff"/><stop stop-color="#e7ecf5" offset=".039"/><stop stop-color="#bacae4" offset=".122"/><stop stop-color="#93acd4" offset=".21"/><stop stop-color="#7293c7" offset=".303"/><stop stop-color="#577ebc" offset=".403"/><stop stop-color="#426eb3" offset=".51"/><stop stop-color="#3363ae" offset=".631"/><stop stop-color="#2b5caa" offset=".774"/><stop stop-color="#285aa9" offset="1"/></linearGradient><linearGradient id="5" gradientUnits="userSpaceOnUse" y1="1.524" x2="0" y2="35.12"><stop stop-color="#fff"/><stop stop-color="#fae1e3" offset=".048"/><stop stop-color="#f2b4b9" offset=".13"/><stop stop-color="#eb8d95" offset=".217"/><stop stop-color="#e66c76" offset=".31"/><stop stop-color="#e1515d" offset=".408"/><stop stop-color="#dd3c49" offset=".515"/><stop stop-color="#db2d3b" offset=".634"/><stop stop-color="#d92533" offset=".776"/><stop stop-color="#d92231" offset="1"/></linearGradient></defs><path fill="#0e2d6d" d="m129.89.025h-123.42c-3.559 0-6.47 2.911-6.47 6.471v58.29c0 3.56 2.911 6.467 6.471 6.467l123.42-.008v-71.24z"/><path opacity=".8" d="m129.89 1.524h-124.79c.002 0 2.73 14.701 19.937 27.02 0 0 8.809 6.629 14.549 6.572h90.3v-33.594" fill="url(#6)"/><path fill="url(#4)" d="m129.89 71.27h306.88v-71.24h-306.88z"/><path opacity=".8" d="m129.89 1.524h306.88v33.594h-306.88z" fill="url(#5)"/><path fill="#0e2d6d" d="m436.77.024h157.01c3.31 0 6.22 2.913 6.22 6.471v58.29c0 3.559-2.91 6.466-6.47 6.466l-156.75-.008v-71.24z"/><path opacity=".8" d="m436.77 1.525h158.12s-2.73 14.696-19.94 27.02c0 0-8.81 6.629-14.55 6.572h-123.47v-33.594z" fill="url(#7)"/><path fill="#fff" d="m558.13 45.19v-21.304h6.24c8.67 0 11.84 5.603 11.84 10.652 0 5.05-3.17 10.652-11.84 10.652h-6.3zm26.86-10.652c0-11.09-7.98-18.634-21.21-18.634h-9c-4.31 0-5.34 2.283-5.34 5.26v26.796c0 2.876 1.03 5.2 5.34 5.2h9c13.17 0 21.07-7.519 21.07-18.618m-49.5-4.307v-10.09c0-2.729 1.09-4.466 6.74-4.466.69 0 1.29.052 1.99.15v33.11c0 2.72-1.1 4.452-6.75 4.452-.69 0-1.29-.048-1.98-.143v-15.01h-17.58v10.725c0 2.72-1.1 4.452-6.74 4.452-.69 0-1.29-.047-1.98-.142v-33.07c0-2.728 1.08-4.466 6.74-4.466.69 0 1.28.053 1.98.15v14.406h17.63zm-449.58 35.98c.847.436 2.568.954 4.724 1.01 3.715.079 5.734-1.341 7.235-4.669l19.902-44.39c-.82-.437-2.65-.928-4.12-.956-2.57-.055-6.01.465-8.19 5.708l-6.446 15.201-12.642-20.583c-.82-.246-2.812-.6-4.261-.6-4.475 0-6.961 1.637-9.551 4.449l-12.285 13.433 9.884 15.559c1.829 2.84 4.233 4.287 8.135 4.287 2.567 0 4.697-.597 5.676-1.063l-11.9-17.939 8.435-8.957 13.843 21.731-8.53 17.802zm-26.12-16.807c0 3.275-1.284 5.163-7.671 5.163-.848 0-1.583-.058-2.293-.168v-43.42c0-3.303 1.118-6.745 7.561-6.745.82 0 1.637.083 2.403.246v44.909zm-13.168-6.556c0 6.113-3.986 10.563-12.09 11.437-5.871.628-14.359-.11-18.398-.574-.138-.656-.247-1.473-.247-2.129 0-5.323 2.866-6.55 5.571-6.55 2.813 0 7.235.49 10.51.49 3.629 0 4.722-1.23 4.722-2.403 0-1.53-1.446-2.154-4.259-2.701l-7.704-1.443c-6.387-1.23-9.799-5.65-9.799-10.347 0-5.702 4.04-10.483 11.985-11.352 6.01-.656 13.321.08 17.339.572.136.683.217 1.337.217 2.048 0 5.323-2.812 6.471-5.513 6.471-2.075 0-5.297-.383-8.983-.383-3.741 0-5.297 1.039-5.297 2.293 0 1.338 1.474 1.883 3.823 2.292l7.345 1.366c7.535 1.395 10.784 5.682 10.784 10.947zm139.86 2.959c0-7.64-4.98-11.357-12.9-13.11l-13.88-3.151c-2.52-.562-4.63-1.334-4.63-3.857 0-2.734 2.18-3.785 7.99-3.785 6.88 0 8.49.35 14.73.35 2.87 0 5.82-1.333 5.82-7.01 0-.703-.07-1.474-.21-2.176-4.21-.348-11.71-.77-20.97-.77-13.94 0-19.28 6.03-19.28 13.738 0 7.219 4.56 11.22 12.62 13.11l13.88 3.224c3.23.768 4.98 2.173 4.98 4.205 0 2.735-2.46 3.786-8.27 3.786-6.87 0-10.03-.49-16.27-.49-2.87 0-5.82 1.329-5.82 7.01 0 .7.07 1.47.21 2.173 4.21.417 13.25.911 22.5.911 13.96 0 19.48-5.95 19.48-14.14zm114.52-12.337v-11.705h11.01c4.7 0 8.41.699 8.41 5.608 0 4.133-2.8 6.097-8.41 6.097h-10.99zm-.05 9.252h5.82l11.23 13.39c2.1 2.593 4.13 3.926 8.9 3.926 3.22 0 5.4-.419 7.14-1.263l-14.59-16.892c8.21-1.751 12.34-7.082 12.34-14.933 0-9.672-5.89-14.443-17.8-14.443l-17.04-.069c-5.53.21-7.36 2.101-7.36 7.151v39.675c.84.14 1.83.207 2.81.207 7.01 0 8.62-2.029 8.62-5.676v-11.06zm-97.99-7.993v-12.9h11.43c5.68 0 8.48 2.103 8.48 6.239 0 4.418-2.8 6.661-8.48 6.661h-11.44zm-11.43 24.532c.85.14 1.83.207 2.81.207 7.01 0 8.62-2.03 8.62-5.677v-9.604h11.92c12.97 0 19.42-5.607 19.42-16.12 0-10.162-6.45-15.564-18.65-15.564h-16.75c-5.61 0-7.36 2.173-7.36 7.15v39.623zm80.67-23.969c0 5.403-.91 9.183-2.73 11.426-1.75 2.312-4.63 3.366-8.55 3.366-4-.073-6.87-1.193-8.7-3.366-1.82-2.173-2.73-5.955-2.73-11.426 0-5.397.98-9.183 2.8-11.357 1.83-2.243 4.7-3.294 8.62-3.294 3.93 0 6.73 1.051 8.56 3.294 1.84 2.174 2.73 5.96 2.73 11.357m-11.27 24.13c7.36 0 13.05-1.752 17.04-5.329 3.99-3.507 6.03-9.815 6.03-18.787-.07-8.83-2.1-15-6.24-18.645-4.14-3.576-9.74-5.397-16.83-5.397-7.07 0-12.69 1.82-16.82 5.397-4.14 3.646-6.17 9.815-6.24 18.645 0 8.972 2.03 15.28 6.03 18.787 3.95 3.528 9.64 5.318 17.01 5.318zm100.99-37.31h9.19c3.01 0 6.1-1.403 6.1-7.367 0-.698-.07-1.54-.21-2.241h-35.68c-3.02 0-6.1 1.403-6.1 7.362 0 .703.07 1.541.21 2.246h15.07v37.15c.84.14 1.82.207 2.81.207 7 0 8.61-2.029 8.61-5.676v-31.672zm60.08 23.694c0-7.64-4.98-11.357-12.9-13.11l-13.88-3.151c-2.52-.562-4.62-1.334-4.62-3.857 0-2.734 2.17-3.785 7.98-3.785 6.88 0 8.49.35 14.73.35 2.87 0 5.82-1.333 5.82-7.01 0-.703-.07-1.474-.21-2.176-4.21-.348-11.71-.77-20.96-.77-13.95 0-19.28 6.03-19.28 13.738 0 7.219 4.56 11.22 12.62 13.11l13.88 3.224c3.23.768 4.98 2.173 4.98 4.205 0 2.735-2.46 3.786-8.27 3.786-6.87 0-10.03-.49-16.27-.49-2.88 0-5.82 1.329-5.82 7.01 0 .7.07 1.47.21 2.173 4.2.417 13.25.911 22.5.911 13.91 0 19.43-5.95 19.43-14.14zm48.87 14.612c-3.37 0-6.43-.428-9.18-1.279-2.75-.85-5.23-1.959-7.42-3.327.05-2.632.57-4.652 1.57-6.06 1-1.415 2.33-2.121 3.99-2.121.73 0 1.47.122 2.23.367.75.245 1.56.511 2.41.806.85.289 1.76.559 2.74.801.98.245 2.05.366 3.22.366 2.43 0 4.28-.583 5.55-1.753 1.27-1.171 1.9-2.658 1.9-4.462 0-1.559-.62-2.899-1.86-4.02s-2.94-1.684-5.08-1.684c-1.66 0-3.06.219-4.21.659-1.14.439-2.2 1.025-3.18 1.753l-7.97-2.556 2.56-25.807h28.37c.1.534.19 1.232.29 2.082.1.853.15 1.768.15 2.741 0 2.048-.42 3.46-1.24 4.241-.83.781-1.88 1.168-3.15 1.168h-15.06l-1.02 8.698c1.07-.436 2.17-.828 3.29-1.167 1.12-.342 2.49-.512 4.09-.512 2.64 0 4.94.414 6.91 1.242 1.97.829 3.63 1.926 4.97 3.289 1.34 1.367 2.34 2.912 3 4.644.66 1.728.98 3.471.98 5.225 0 2.291-.38 4.447-1.16 6.471s-1.95 3.792-3.51 5.303-3.52 2.704-5.89 3.582c-2.47.896-5.27 1.317-8.42 1.317"/></svg>