<svg xmlns="http://www.w3.org/2000/svg" height="83.51" xmlns:xlink="http://www.w3.org/1999/xlink" viewBox="0 0 599.99999 83.508636"><defs><path id="0" d="m490.36 1.689v37.718h423.87c6.45 0 16.25-7.377 16.25-7.377 19.32-13.836 22.38-30.341 22.38-30.341h-462.5"/><path id="1" d="m145.81 0h344.54v79.99h-344.54z"/><path id="2" d="m145.81 1.689h344.54v37.718h-344.54z"/><path id="3" d="m5.718 1.689s3.062 16.505 22.382 30.341c0 0 9.802 7.377 16.248 7.377h101.46v-37.718h-140.09"/><clipPath><use xlink:href="#3"/></clipPath><clipPath><use xlink:href="#0"/></clipPath><clipPath><use xlink:href="#1"/></clipPath><clipPath><use xlink:href="#2"/></clipPath><linearGradient id="6" gradientUnits="userSpaceOnUse" y1="1.758" x2="0" y2="41.13" xlink:href="#7"/><linearGradient id="4" gradientUnits="userSpaceOnUse" y1="83.49" x2="0" y2="0"><stop stop-color="#d92231"/><stop stop-color="#d12130" offset=".193"/><stop stop-color="#bd1f2c" offset=".448"/><stop stop-color="#9d1a26" offset=".735"/><stop stop-color="#7c131d" offset="1"/></linearGradient><linearGradient id="7" gradientUnits="userSpaceOnUse" y1="1.759" x2="0" y2="41.13"><stop stop-color="#fff"/><stop stop-color="#e7ecf5" offset=".039"/><stop stop-color="#bacae4" offset=".122"/><stop stop-color="#93acd4" offset=".21"/><stop stop-color="#7293c7" offset=".303"/><stop stop-color="#577ebc" offset=".403"/><stop stop-color="#426eb3" offset=".51"/><stop stop-color="#3363ae" offset=".631"/><stop stop-color="#2b5caa" offset=".774"/><stop stop-color="#285aa9" offset="1"/></linearGradient><linearGradient id="5" gradientUnits="userSpaceOnUse" y1="1.758" x2="0" y2="41.13"><stop stop-color="#fff"/><stop stop-color="#fae1e3" offset=".048"/><stop stop-color="#f2b4b9" offset=".13"/><stop stop-color="#eb8d95" offset=".217"/><stop stop-color="#e66c76" offset=".31"/><stop stop-color="#e1515d" offset=".408"/><stop stop-color="#dd3c49" offset=".515"/><stop stop-color="#db2d3b" offset=".634"/><stop stop-color="#d92533" offset=".776"/><stop stop-color="#d92231" offset="1"/></linearGradient></defs><path fill="#0e2d6d" d="m152.22 0h-144.63c-4.178 0-7.59 3.412-7.59 7.585v68.34c0 4.17 3.412 7.581 7.586 7.581l144.63-.0001v-83.5z"/><path opacity=".8" d="m152.22 1.758h-146.25c-.002 0 3.195 17.227 23.362 31.672 0 0 10.325 7.773 17.05 7.703h105.84v-39.37z" fill="url(#6)"/><path fill="url(#4)" d="m152.22 83.5l359.68-.006v-83.49h-359.68z"/><path opacity=".8" d="m152.22 1.758h359.69v39.37h-359.69z" fill="url(#5)"/><path fill="#0e2d6d" d="m511.9 0h80.81c3.88 0 7.29 3.416 7.29 7.586v68.33c0 4.17-3.41 7.58-7.58 7.58l-80.52-.009v-83.49"/><path opacity=".8" d="m511.9 1.759h82.13s-3.19 17.226-23.36 31.673c0 0-10.33 7.771-17.05 7.701h-41.72v-39.37" fill="url(#7)"/><g fill="#fff"><path d="m555.85 47.829c6.95 0 9.84 1.908 9.84 5.381 0 3.221-2.89 5.699-11.49 5.699-8.76 0-12.65-1.815-17.12-1.734-3.48 0-6.37 2.902-6.12 9.516 6.2 2.23 15.96 3.637 23.41 3.637 18.69 0 25.39-7.443 25.39-16.372 0-6.542-4.05-10.591-9.84-12.243 5.12-2.066 9.1-5.875 9.1-11.991 0-7.695-5.63-15.383-23.83-15.383-7.85 0-16.54 1.488-22.74 3.304-.25 6.616 2.81 9.683 5.79 9.683 3.39 0 8.35-1.823 16.37-1.823 10.01 0 10.26 3.553 10.26 6.04 0 3.472-2.73 5.292-9.76 5.292h-15.47c-.25.908-.58 2.067-.58 3.802 0 5.625 2.32 7.192 6.95 7.192h9.84"/><path d="m100.53 77.55c.99.51 3.01 1.116 5.54 1.184 4.35.093 6.72-1.572 8.48-5.472l23.32-52.03c-.96-.513-3.1-1.088-4.83-1.121-3.01-.064-7.04.545-9.6 6.69l-7.53 17.818-14.82-24.12c-.96-.288-3.297-.704-4.996-.704-5.245 0-8.157 1.918-11.197 5.216l-14.399 15.744 11.582 18.235c2.144 3.328 4.961 5.02 9.536 5.02 3.01 0 5.504-.7 6.655-1.245l-13.951-21.02 9.887-10.496 16.223 25.468-9.88 20.834zm-30.603-19.682c0 3.839-1.505 6.05-8.992 6.05-.992 0-1.854-.068-2.687-.196v-50.873c0-3.872 1.311-7.905 8.863-7.905.96 0 1.918.098 2.816.288v52.635m-15.444-7.678c0 7.166-4.672 12.382-14.176 13.407-6.879.737-16.83-.129-21.565-.672-.162-.769-.289-1.726-.289-2.496 0-6.241 3.359-7.678 6.526-7.678 3.297 0 8.481.574 12.322.574 4.253 0 5.533-1.442 5.533-2.815 0-1.794-1.694-2.525-4.991-3.167l-9.02-1.729c-7.488-1.441-11.487-6.624-11.487-12.13 0-6.685 4.735-12.286 14.05-13.309 7.04-.77 15.614.094 20.32.67.158.8.254 1.567.254 2.4 0 6.24-3.295 7.583-6.463 7.583-2.432 0-6.206-.448-10.527-.448-4.386 0-6.208 1.217-6.208 2.687 0 1.568 1.726 2.207 4.48 2.687l8.608 1.601c8.83 1.632 12.639 6.656 12.639 12.832z"/><path d="m218.4 53.659c0-8.957-5.83-13.313-15.12-15.367l-16.26-3.694c-2.96-.657-5.43-1.563-5.43-4.52 0-3.204 2.55-4.436 9.37-4.436 8.05 0 9.94.41 17.25.41 3.37 0 6.82-1.562 6.82-8.216 0-.823-.08-1.727-.24-2.549-4.93-.409-13.72-.903-24.57-.903-16.35 0-22.59 7.07-22.59 16.1 0 8.462 5.34 13.15 14.79 15.365l16.26 3.779c3.78.899 5.84 2.547 5.84 4.929 0 3.205-2.88 4.438-9.7 4.438-8.05 0-11.75-.573-19.06-.573-3.37 0-6.82 1.558-6.82 8.214 0 .822.08 1.723.25 2.547 4.93.49 15.53 1.068 26.37 1.068 16.36 0 22.85-6.983 22.85-16.597z"/><path d="m352.65 39.2v-13.719h12.9c5.51 0 9.86.819 9.86 6.57 0 4.845-3.29 7.149-9.86 7.149h-12.91zm-.08 10.845h6.81l13.17 15.692c2.46 3.039 4.84 4.602 10.43 4.602 3.78 0 6.33-.491 8.38-1.481l-17.11-19.796c9.62-2.053 14.47-8.302 14.47-17.503 0-11.338-6.91-16.924-20.87-16.924l-19.97-.081c-6.48.245-8.63 2.463-8.63 8.379v46.5c.99.164 2.15.243 3.29.243 8.22 0 10.11-2.378 10.11-6.652l-.07-12.982z"/><path d="m237.7 40.677v-15.12h13.39c6.66 0 9.95 2.464 9.95 7.314 0 5.177-3.29 7.805-9.95 7.805h-13.39m-13.39 28.756c.99.164 2.14.243 3.28.243 8.22 0 10.11-2.378 10.11-6.652v-11.257h13.97c15.2 0 22.76-6.571 22.76-18.895 0-11.915-7.56-18.241-21.86-18.241h-19.64c-6.57 0-8.62 2.547-8.62 8.38v46.42"/><path d="m318.88 41.33c0 6.33-1.07 10.761-3.2 13.393-2.06 2.71-5.43 3.943-10.03 3.943-4.68-.084-8.04-1.396-10.19-3.943-2.13-2.547-3.2-6.983-3.2-13.393 0-6.326 1.15-10.762 3.29-13.31 2.13-2.629 5.5-3.861 10.1-3.861s7.89 1.232 10.03 3.861c2.13 2.548 3.2 6.984 3.2 13.31m-13.23 28.26c8.62 0 15.28-2.053 19.96-6.243 4.68-4.111 7.07-11.506 7.07-22.02-.09-10.35-2.47-17.582-7.31-21.856-4.86-4.191-11.42-6.325-19.73-6.325-8.29 0-14.87 2.134-19.71 6.325-4.85 4.274-7.24 11.505-7.32 21.856 0 10.515 2.39 17.91 7.07 22.02 4.69 4.19 11.35 6.243 19.97 6.243"/><path d="m424.05 25.889h10.76c3.54 0 7.15-1.644 7.15-8.631 0-.818-.08-1.806-.25-2.626h-41.82c-3.53 0-7.15 1.644-7.15 8.625 0 .825.09 1.807.26 2.632h17.66v43.544c.99.164 2.13.243 3.29.243 8.21 0 10.1-2.378 10.1-6.652v-37.13"/><path d="m494.46 53.659c0-8.957-5.84-13.313-15.12-15.367l-16.27-3.694c-2.96-.657-5.43-1.563-5.43-4.52 0-3.204 2.55-4.436 9.37-4.436 8.05 0 9.94.41 17.25.41 3.38 0 6.82-1.562 6.82-8.216 0-.823-.07-1.727-.24-2.549-4.93-.409-13.72-.903-24.57-.903-16.34 0-22.59 7.07-22.59 16.1 0 8.462 5.34 13.15 14.79 15.365l16.27 3.779c3.78.899 5.83 2.547 5.83 4.929 0 3.205-2.88 4.438-9.69 4.438-8.05 0-11.75-.573-19.07-.573-3.37 0-6.82 1.558-6.82 8.214 0 .822.08 1.723.25 2.547 4.93.49 15.53 1.068 26.37 1.068 16.36 0 22.85-6.983 22.85-16.597"/></g></svg>