<svg xmlns="http://www.w3.org/2000/svg" height="86.48" width="600" viewBox="0 0 158.75 22.880729"><defs><linearGradient id="0" gradientUnits="userSpaceOnUse" x2="0" y1="-5.04" y2="13.582"><stop stop-color="#878786"/><stop stop-color="#d9dbdb" offset=".02"/><stop stop-color="#f6f6f6" offset=".052"/><stop stop-color="#eff0ef" offset=".488"/><stop stop-color="#f6f6f6" offset=".895"/><stop stop-color="#ececed" offset=".929"/><stop stop-color="#d9dbdb" offset=".964"/><stop stop-color="#878786" offset="1"/></linearGradient><linearGradient id="1" gradientUnits="userSpaceOnUse" x2="0" y1="13.562" y2="-5.056"><stop stop-color="#562228"/><stop stop-color="#c51e2c" offset=".074"/><stop stop-color="#c51e2c" offset=".911"/><stop stop-color="#e83c4c" offset="1"/></linearGradient><linearGradient id="2" gradientUnits="userSpaceOnUse" x2="0" y1="-5.204" y2="13.726"><stop stop-color="#1e2546"/><stop stop-color="#223362" offset=".036"/><stop stop-color="#223362" offset=".895"/><stop stop-color="#1e2546" offset="1"/></linearGradient></defs><g transform="matrix(1.1562 0 0 1.1562-174.88 6.518)"><path d="m154.05-5.04c-1.4 0-1.97.871-1.97 2.304v13.991c0 1.461.57 2.303 1.97 2.303h33.71v-18.598z" stroke-width="2.809" fill="url(#2)"/><path stroke-width="10.618" fill="#a1a2a1" d="m154.1-5.637c-2.18 0-2.84 1.354-2.84 2.708v14.373c0 1.354.66 2.708 2.84 2.708h131.61c2.18 0 2.85-1.354 2.85-2.708v-14.373c0-1.354-.67-2.708-2.85-2.708h-.59zm.1.182h131.41c1.47 0 2.46.866 2.46 2.307v14.811c0 1.441-.99 2.307-2.46 2.307h-131.41c-1.47 0-2.46-.866-2.46-2.307v-14.811c0-1.441.99-2.307 2.46-2.307"/><g stroke-width="2.809"><path d="m186.36 13.562h66.86v-18.598h-66.86z" fill="url(#1)"/><g fill="#fff"><path d="m164.16 6.03c0 1.593-1.04 2.759-3.15 2.989-1.54.163-3.76-.031-4.81-.152-.04-.171-.07-.385-.07-.553 0-1.396.75-1.714 1.46-1.714.73 0 1.89.126 2.75.126.94 0 1.23-.32 1.23-.624 0-.402-.38-.567-1.11-.708l-2.01-.385c-1.67-.32-2.56-1.478-2.56-2.705 0-1.489 1.05-2.739 3.13-2.967 1.57-.171 3.48.02 4.52.149.04.18.06.351.06.537 0 1.391-.73 1.691-1.44 1.691-.54 0-1.38-.101-2.34-.101-.98 0-1.39.27-1.39.601 0 .345.39.492 1 .598l1.92.357c1.97.362 2.81 1.483 2.81 2.86m3.45 1.711c0 .857-.34 1.348-2.01 1.348-.22 0-.41-.017-.6-.042v-11.342c0-.862.3-1.761 1.98-1.761.22 0 .43.022.63.065zm6.82 4.388c.22.113.67.248 1.23.262.97.022 1.5-.349 1.89-1.217l5.2-11.6c-.21-.115-.69-.241-1.07-.253-.67-.011-1.57.126-2.15 1.495l-1.68 3.972-3.3-5.377c-.21-.065-.73-.16-1.11-.16-1.17 0-1.82.43-2.5 1.163l-3.21 3.512 2.58 4.065c.48.739 1.11 1.118 2.13 1.118.67 0 1.23-.152 1.48-.275l-3.11-4.689 2.21-2.335 3.61 5.672z"/><path d="m201.25 6.426c0-1.93-1.26-2.871-3.26-3.312l-3.51-.798c-.64-.14-1.17-.337-1.17-.975 0-.691.55-.955 2.02-.955 1.74 0 2.15.09 3.72.09.73 0 1.47-.337 1.47-1.773 0-.177-.02-.371-.05-.551-1.06-.087-2.96-.194-5.3-.194-3.52 0-4.87 1.523-4.87 3.472 0 1.823 1.15 2.835 3.19 3.312l3.51.815c.81.194 1.26.551 1.26 1.062 0 .691-.62.958-2.09.958-1.74 0-2.54-.124-4.11-.124-.73 0-1.48.334-1.48 1.77 0 .177.02.371.06.551 1.06.104 3.35.231 5.68.231 3.53 0 4.93-1.506 4.93-3.579"/><path d="m230.19 5.668h1.46l2.84 3.382c.53.655 1.05.992 2.25.992.82 0 1.37-.104 1.81-.317l-3.69-4.267c2.07-.444 3.12-1.792 3.12-3.776 0-2.444-1.49-3.647-4.5-3.647l-4.3-.02c-1.4.053-1.86.531-1.86 1.806v10.03c.21.036.46.053.7.053 1.77 0 2.18-.514 2.18-1.436zm.001-2.337v-2.958h2.78c1.19 0 2.13.177 2.13 1.416 0 1.045-.71 1.542-2.13 1.542z"/><path d="m202.65 9.854c.22.037.46.053.71.053 1.77 0 2.18-.514 2.18-1.436v-2.427h3.01c3.28 0 4.91-1.416 4.91-4.074 0-2.568-1.63-3.93-4.71-3.93h-4.24c-1.41 0-1.86.548-1.86 1.806zm2.89-6.2v-3.259h2.89c1.43 0 2.14.531 2.14 1.576 0 1.118-.71 1.683-2.14 1.683z"/><path d="m220.07 9.882c1.86 0 3.3-.444 4.31-1.346 1-.888 1.52-2.481 1.52-4.748-.02-2.231-.53-3.79-1.58-4.711-1.04-.905-2.46-1.363-4.25-1.363s-3.2.458-4.25 1.363c-1.04.921-1.56 2.481-1.58 4.711 0 2.267.52 3.86 1.53 4.748 1.01.902 2.44 1.346 4.3 1.346m2.85-6.094c0 1.365-.23 2.321-.69 2.888-.44.584-1.17.848-2.16.848-1.01-.017-1.73-.301-2.2-.848-.45-.551-.69-1.506-.69-2.888 0-1.363.25-2.321.71-2.868.47-.567 1.19-.834 2.18-.834.99 0 1.7.267 2.16.834.46.548.69 1.506.69 2.868"/><path d="m245.64.443h2.32c.76 0 1.54-.354 1.54-1.86 0-.177-.02-.391-.06-.567h-9.01c-.76 0-1.54.354-1.54 1.86 0 .177.02.391.05.568h3.81v9.389c.21.034.46.051.71.051 1.77 0 2.18-.511 2.18-1.433z"/><path opacity=".4" d="m251.54 9.292c1.26 1.25 1.6 2.43 1.65 2.689v-16.407h-97.71c-.59 0-1.03-.233-1.47-.233-1.3 0-1.8.517-1.8 2.045v13.218c0 .823.04 1.377.17 1.377.04-.259.08-1.531 1.48-2.689 11.18-8.6 85.63-11.238 97.68 0"/></g><path fill="url(#0)" d="m252.66-5.04v18.598h33.34c1.4 0 1.96-.843 1.96-2.303v-13.991c0-1.461-.56-2.304-1.96-2.304h-33.06z"/><g fill="#da0943"><path d="m282.72 3.729h-.24l-.14.641h-.09l.13-.64h-.24l.02-.082h.58z"/><path d="m283 3.673h.14l.09.621.351-.621h.13l-.15.722h-.09l.15-.632-.37.632h-.1l-.09-.632-.13.632h-.09z"/></g><g fill-rule="evenodd" fill="#1a1b19"><path d="m259.68-1.946c.38-.697 1.24-1.261 1.94-1.261h4.88l-3.27 6.181h-6.14z"/><path d="m269.52-.091c.26-.492.87-.891 1.36-.891h3.34l-1.61 3.085c-.26.492-.87.89-1.37.89h-3.33z"/><path d="m275.14-2.704c.14-.261.46-.472.72-.472h1.75l-.94 1.745c-.14.261-.46.472-.73.472h-1.74z"/><path d="m263.34 2.971h4.82l-2.58 4.81h-4.82z"/><path d="m265.58 7.803h3.38l-1.54 2.874c-.19.363-.64.655-1 .655h-2.73z"/></g><path d="m279.91 6.06l-.37.699c-.1.191-.34.346-.53.346h-.46l.99-1.868.3-.565c.43-.832.95-1.01 1.55-1.01.69 0 .78.455.48 1.014l-.02.039-.26.489-.02.034c-.25.464-.9.84-1.46.84-.07 0-.14-.006-.2-.017m.77-1.447l-.04.07-.34.649h.13c.16 0 .35-.124.43-.275l.23-.444c.07-.112.02-.205-.09-.205-.12 0-.26.093-.32.205m-7.1-.098l-.97 1.821v.011c-.25.461-.89.834-1.44.834s-.8-.374-.55-.832l.98-1.849c.25-.461.89-.832 1.44-.832s.79.371.55.832zm-2.08 1.717c-.06.115-.02.208.1.208.11 0 .25-.093.32-.208l.86-1.613c.06-.115.0001-.208-.1-.208-.12 0-.26.093-.32.208zm5.84-1.717l-.97 1.821v.011c-.24.461-.88.834-1.43.834s-.8-.374-.56-.832l.99-1.849c.24-.461.89-.832 1.44-.832s.79.371.55.832zm-2.11 1.717c-.07.115-.02.208.09.208.12 0 .26-.093.32-.208l.86-1.613c.06-.115.02-.208-.1-.208-.11 0-.25.093-.31.208zm4.41-1.725l-.29.548h-.79l.24-.444c.06-.115.0001-.208-.1-.208s-.25.093-.32.208l-.79 1.489-.07.132c-.06.115-.02.208.1.208.11 0 .25-.076.38-.326l.1-.202h-.19l.31-.593h.99l-.54 1.017v.011c-.24.461-.89.834-1.44.834-.54 0-.79-.374-.55-.832l.13-.25.86-1.607c.24-.461.89-.832 1.43-.832.55 0 .8.371.56.832zm-9.64.146l-.02.031-.38.722-.72 1.348c-.06.115-.17.216-.29.278-.08.045-.17.07-.24.07h-.47l.9-1.697.41-.753c0-.011 0-.02.0001-.031.04-.101-.0001-.18-.11-.18-.12 0-.26.096-.32.211l-.4.753-.72 1.349c-.1.194-.34.348-.54.348h-.46l1.3-2.45c.28-.573.61-.966 1.55-.966h1.23c.47 0 .86.275.5.966l-1.12 2.101c-.1.194-.34.348-.53.348h-.47l.9-1.697.4-.753c.06-.115.02-.211-.1-.211-.11 0-.25.096-.31.211m4.68-.129l-.93 1.742c-.06.112.02.197.13.205.08.008.17 0 .29-.045l-.38.7c-.13.037-.2.056-.32.056-.55 0-.81-.371-.57-.829l1.56-2.927c.1-.191.34-.346.53-.346h.45l-.36.688h.47l-.4.756z" fill="#da0943"/></g></g></svg>