<svg xmlns="http://www.w3.org/2000/svg" height="60.25" viewBox="0 0 600 60.251919" xmlns:xlink="http://www.w3.org/1999/xlink"><defs><linearGradient id="3" gradientUnits="userSpaceOnUse" y1="60.24" x2="0" y2="0"><stop stop-color="#d82232"/><stop stop-color="#d22131" offset=".178"/><stop stop-color="#c21e2d" offset=".414"/><stop stop-color="#a61a27" offset=".681"/><stop stop-color="#80141e" offset=".97"/><stop stop-color="#7c131d" offset="1"/></linearGradient><linearGradient id="2" y2="29.678" gradientUnits="userSpaceOnUse" y1="1.269" x2="0"><stop stop-color="#fff"/><stop stop-color="#e7ecf5" offset=".039"/><stop stop-color="#bacae3" offset=".122"/><stop stop-color="#93acd3" offset=".21"/><stop stop-color="#7293c6" offset=".303"/><stop stop-color="#577ebb" offset=".403"/><stop stop-color="#426eb3" offset=".51"/><stop stop-color="#3363ad" offset=".631"/><stop stop-color="#2b5ca9" offset=".774"/><stop stop-color="#285aa8" offset="1"/></linearGradient><linearGradient id="0" gradientUnits="userSpaceOnUse" y1="1.27" x2="0" y2="29.678" xlink:href="#2"/><linearGradient id="1" y2="29.678" gradientUnits="userSpaceOnUse" y1="1.269" x2="0"><stop stop-color="#fff"/><stop stop-color="#fae1e3" offset=".048"/><stop stop-color="#f2b4ba" offset=".13"/><stop stop-color="#eb8d95" offset=".217"/><stop stop-color="#e56c76" offset=".31"/><stop stop-color="#e0515d" offset=".408"/><stop stop-color="#dd3c4a" offset=".515"/><stop stop-color="#da2d3c" offset=".634"/><stop stop-color="#d82534" offset=".776"/><stop stop-color="#d82232" offset="1"/></linearGradient></defs><g stroke-width=".293"><path fill="#0e2d6d" d="m109.83.002h-104.36c-3.01 0-5.47 2.462-5.47 5.472v49.31c0 3.01 2.462 5.469 5.473 5.469l104.36-.007v-60.24z"/><path opacity=".8" d="m109.83 1.269h-105.52c-.003 0 2.303 12.43 16.854 22.852 0 0 7.45 5.608 12.302 5.557h76.35v-28.409z" fill="url(#2)"/><path fill="url(#3)" d="m109.83 60.24l259.51-.003v-60.24h-259.51z"/><path opacity=".8" d="m109.83 1.269h259.51v28.409h-259.51z" fill="url(#1)"/><path fill="#0e2d6d" d="m369.34 0h225.39c2.81 0 5.27 2.464 5.27 5.473v49.3c0 3.01-2.46 5.469-5.47 5.469l-225.18-.007v-60.24z"/><path opacity=".8" d="m369.34 1.27h226.34s-2.31 12.429-16.86 22.852c0 0-7.45 5.607-12.3 5.556h-197.18v-28.408" fill="url(#0)"/><path fill="#fff" d="m402.06 8.821l6.54 43.982h-11.69l-.61-7.906h-4.09l-.69 7.906h-11.82l5.83-43.982h16.54zm-6.06 28.28c-.58-4.983-1.16-11.139-1.74-18.474-1.17 8.422-1.9 14.58-2.2 18.474h3.92zm38.11-14.97h-10.62v-3.261c0-1.52-.14-2.489-.41-2.906s-.72-.624-1.36-.624c-.69 0-1.21.28-1.56.841-.35.563-.53 1.415-.53 2.556 0 1.466.2 2.573.6 3.317.38.742 1.45 1.64 3.23 2.689 5.09 3.02 8.3 5.502 9.62 7.44s1.98 5.062 1.98 9.372c0 3.133-.36 5.442-1.1 6.927-.73 1.486-2.15 2.73-4.25 3.736s-4.55 1.507-7.33 1.507c-3.06 0-5.68-.58-7.84-1.738-2.17-1.159-3.58-2.635-4.25-4.428s-1.01-4.338-1.01-7.634v-2.88h10.62v5.353c0 1.647.15 2.707.45 3.178s.83.706 1.59.706 1.33-.299 1.7-.897c.37-.597.55-1.484.55-2.662 0-2.59-.35-4.283-1.05-5.081-.73-.796-2.51-2.127-5.36-3.993-2.84-1.883-4.72-3.252-5.65-4.102-.92-.851-1.69-2.028-2.29-3.531-.61-1.504-.91-3.423-.91-5.76 0-3.369.43-5.832 1.29-7.39.86-1.556 2.25-2.775 4.17-3.654 1.92-.877 4.24-1.317 6.95-1.317 2.97 0 5.5.48 7.59 1.441 2.1.961 3.48 2.168 4.16 3.627.68 1.457 1.02 3.936 1.02 7.43v1.737zm28.98-13.311v43.982h-11.44v-18.474h-3.42v18.474h-11.44v-43.985h11.44v15.728h3.42v-15.728h11.43zm2.43 0h19.07v8.801h-7.63v8.34h7.14v8.368h-7.14v9.671h8.39v8.803h-19.83v-43.986zm46.11 13.311h-10.62v-3.261c0-1.52-.14-2.489-.41-2.906s-.73-.624-1.36-.624c-.69 0-1.21.28-1.56.841-.35.563-.53 1.415-.53 2.556 0 1.466.2 2.573.59 3.317.39.742 1.46 1.64 3.24 2.689 5.09 3.02 8.29 5.502 9.62 7.44 1.32 1.938 1.98 5.062 1.98 9.372 0 3.133-.37 5.442-1.1 6.927-.73 1.486-2.15 2.73-4.25 3.736s-4.55 1.507-7.34 1.507c-3.06 0-5.67-.58-7.83-1.738-2.17-1.159-3.59-2.635-4.26-4.428s-1-4.338-1-7.634v-2.88h10.62v5.353c0 1.647.15 2.707.45 3.178s.83.706 1.59.706 1.32-.299 1.7-.897c.37-.597.55-1.484.55-2.662 0-2.59-.35-4.283-1.06-5.081-.72-.796-2.5-2.127-5.35-3.993-2.84-1.883-4.72-3.252-5.65-4.102-.92-.851-1.69-2.028-2.29-3.531-.61-1.504-.91-3.423-.91-5.76 0-3.369.43-5.832 1.29-7.39.86-1.556 2.25-2.775 4.17-3.654 1.92-.877 4.24-1.317 6.95-1.317 2.97 0 5.5.48 7.59 1.441 2.1.961 3.48 2.168 4.16 3.627.68 1.457 1.02 3.936 1.02 7.43v1.737zm53.44 16.06v-18.02h5.27c7.33 0 10.01 4.738 10.01 9.01 0 4.273-2.68 9.01-10.01 9.01h-5.27m22.79-9.01c0-9.382-6.75-15.757-17.93-15.757h-7.61c-3.65 0-4.52 1.93-4.52 4.448v22.659c0 2.432.87 4.398 4.52 4.398h7.61c11.16 0 17.93-6.363 17.93-15.748m-41.92-3.645v-8.534c0-2.307.92-3.777 5.69-3.777.59 0 1.09.044 1.68.127v27.997c0 2.301-.93 3.765-5.7 3.765-.58 0-1.09-.04-1.67-.121v-12.715h-14.88v9.07c0 2.301-.92 3.765-5.7 3.765-.58 0-1.09-.04-1.67-.12v-27.992c0-2.307.92-3.777 5.7-3.777.58 0 1.08.044 1.67.127v12.184h14.94zm-473.4 30.417c.717.369 2.171.806 3.994.855 3.141.067 4.849-1.134 6.118-3.948l16.834-37.541c-.694-.369-2.24-.784-3.488-.808-2.169-.046-5.078.393-6.925 4.826l-5.448 12.856-10.689-17.405c-.693-.208-2.378-.508-3.603-.508-3.785 0-5.886 1.385-8.08 3.763l-10.389 11.361 8.356 13.156c1.547 2.401 3.58 3.625 6.881 3.625 2.171 0 3.972-.505 4.801-.898l-10.06-15.169 7.134-7.573 11.705 18.376-7.136 15.03zm-22.08-14.2c0 2.77-1.086 4.366-6.487 4.366-.717 0-1.339-.049-1.94-.142v-36.705c0-2.794.947-5.704 6.395-5.704.693 0 1.384.071 2.032.208v37.977m-11.141-5.54c0 5.17-3.371 8.934-10.228 9.673-4.963.532-12.143-.093-15.559-.485-.116-.555-.208-1.245-.208-1.8 0-4.503 2.423-5.54 4.709-5.54 2.378 0 6.118.414 8.889.414 3.069 0 3.993-1.04 3.993-2.031 0-1.295-1.223-1.822-3.601-2.285l-6.511-1.247c-5.402-1.04-8.287-4.78-8.287-8.751 0-4.823 3.415-8.864 10.135-9.602 5.078-.554 11.265.068 14.66.484.115.578.183 1.131.183 1.732 0 4.502-2.377 5.472-4.663 5.472-1.755 0-4.478-.324-7.595-.324-3.164 0-4.479.878-4.479 1.938 0 1.132 1.246 1.593 3.232 1.939l6.211 1.154c6.372 1.18 9.12 4.806 9.12 9.262zm118.27 2.499c0-6.462-4.21-9.605-10.91-11.09l-11.74-2.666c-2.13-.475-3.91-1.128-3.91-3.261 0-2.313 1.84-3.201 6.76-3.201 5.81 0 7.17.296 12.45.296 2.43 0 4.92-1.127 4.92-5.927 0-.594-.06-1.247-.18-1.839-3.56-.295-9.9-.652-17.73-.652-11.79 0-16.3 5.099-16.3 11.619 0 6.106 3.86 9.487 10.67 11.09l11.74 2.726c2.73.65 4.21 1.838 4.21 3.556 0 2.314-2.08 3.203-7 3.203-5.8 0-8.47-.414-13.75-.414-2.43 0-4.92 1.123-4.92 5.927 0 .592.06 1.243.18 1.837 3.56.353 11.2.77 19.03.77 11.79-.002 16.47-5.04 16.47-11.976zm96.86-10.434v-9.898h9.3c3.98 0 7.12.591 7.12 4.74 0 3.496-2.37 5.158-7.12 5.158zm-.06 7.824h4.92l9.49 11.322c1.78 2.192 3.5 3.32 7.53 3.32 2.73 0 4.56-.355 6.04-1.068l-12.33-14.284c6.93-1.481 10.43-5.989 10.43-12.627 0-8.181-4.98-12.212-15.06-12.212l-14.4-.058c-4.68.177-6.23 1.776-6.23 6.04v33.554c.71.118 1.55.174 2.38.174 5.92 0 7.29-1.715 7.29-4.798l-.06-9.369m-82.87-6.755v-10.909h9.66c4.8 0 7.17 1.779 7.17 5.278 0 3.735-2.37 5.631-7.17 5.631h-9.67zm-9.67 20.748c.71.118 1.55.175 2.37.175 5.93 0 7.29-1.716 7.29-4.799v-8.122h10.08c10.97 0 16.42-4.741 16.42-13.633 0-8.596-5.45-13.161-15.77-13.161h-14.16c-4.75 0-6.23 1.837-6.23 6.05v33.491m68.23-20.274c0 4.567-.77 7.764-2.31 9.663-1.48 1.955-3.91 2.845-7.23 2.845-3.38-.061-5.81-1.01-7.35-2.845-1.54-1.838-2.31-5.04-2.31-9.663 0-4.564.83-7.764 2.37-9.604 1.54-1.896 3.97-2.785 7.29-2.785s5.69.889 7.23 2.785c1.55 1.838 2.32 5.04 2.32 9.604zm-9.54 20.39c6.22 0 11.03-1.481 14.41-4.505 3.37-2.965 5.09-8.302 5.09-15.888-.06-7.467-1.78-12.685-5.27-15.768-3.5-3.02-8.24-4.563-14.23-4.563s-10.73 1.539-14.23 4.563c-3.5 3.083-5.22 8.301-5.28 15.768 0 7.587 1.72 12.923 5.1 15.888 3.38 3.03 8.19 4.506 14.41 4.506m85.41-31.536h7.77c2.55 0 5.15-1.186 5.15-6.227 0-.591-.06-1.303-.17-1.895h-30.17c-2.55 0-5.16 1.186-5.16 6.223 0 .595.06 1.304.18 1.899h12.75v31.418c.71.118 1.54.175 2.37.175 5.92 0 7.29-1.716 7.29-4.799v-26.794zm50.8 20.04c0-6.462-4.21-9.605-10.91-11.09l-11.74-2.666c-2.13-.475-3.91-1.128-3.91-3.261 0-2.313 1.84-3.201 6.76-3.201 5.81 0 7.17.296 12.45.296 2.43 0 4.92-1.127 4.92-5.927 0-.594-.06-1.247-.18-1.839-3.55-.295-9.9-.652-17.72-.652-11.8 0-16.31 5.099-16.31 11.619 0 6.106 3.86 9.487 10.68 11.09l11.73 2.726c2.73.65 4.21 1.838 4.21 3.556 0 2.314-2.07 3.203-6.99 3.203-5.81 0-8.48-.414-13.76-.414-2.43 0-4.92 1.123-4.92 5.927 0 .592.06 1.243.18 1.837 3.56.353 11.2.77 19.03.77 11.81-.002 16.46-5.04 16.46-11.976z"/></g></svg>