<svg xmlns="http://www.w3.org/2000/svg" height="91.35" width="600" viewBox="0 0 158.75 24.170276"><defs><linearGradient id="0" gradientUnits="userSpaceOnUse" gradientTransform="matrix(0-22.723-16.779 0 83.67 23.465)" x1="0" x2="1"><stop stop-color="#5a252a"/><stop stop-color="#cb082a" offset=".074"/><stop stop-color="#cb082a" offset=".916"/><stop stop-color="#e73440" offset="1"/></linearGradient><linearGradient id="1" gradientUnits="userSpaceOnUse" gradientTransform="matrix(0 23.142-19.521 0 79.34.521)" x1="0" x2="1"><stop stop-color="#141c4b"/><stop stop-color="#1a2b68" offset=".036"/><stop stop-color="#1a2b68" offset=".895"/><stop stop-color="#141c4b" offset="1"/></linearGradient></defs><path d="m2.92.713c-1.49.018-2.02 1.072-2.02 2.821v17.12c0 1.764.532 2.823 2.043 2.823h152.77c1.51 0 2.03-1.059 2.03-2.823v-17.12c0-1.748-.52-2.803-2.01-2.82z" stroke-width="2.318" fill="url(#1)"/><path d="m3.48 0c-2.66 0-3.48 1.651-3.48 3.301v17.556c0 1.651.82 3.313 3.477 3.313h151.79c2.68 0 3.48-1.654 3.48-3.307v-17.553c0-1.654-.8-3.31-3.48-3.31h-151.79zm.116.218c49.693-.005 104 .005 151.56.004 1.79 0 3 1.059 3 2.818v18.09c0 1.759-1.21 2.818-3 2.818-51.56-.005-106.68-.008-151.56-.008-1.797 0-3.01-1.06-3.01-2.82v-18.08c0-1.76 1.213-2.82 3.01-2.82z" stroke-width="9.529" fill="#a1a19e"/><path stroke-width="2.521" fill="#fff" d="m137.53 10.624v-3.209c0-.872.34-1.424 2.14-1.424.22 0 .41.015.64.048v10.533c0 .868-.36 1.42-2.15 1.42-.22 0-.4-.015-.63-.048v-4.783h-5.59v3.411c0 .868-.36 1.42-2.15 1.42-.22 0-.4-.015-.63-.048v-10.528c0-.873.34-1.425 2.14-1.425.23 0 .41.015.64.048v4.586zm15.94 1.351c0-3.577-2.58-6-6.85-6h-2.91c-1.38 0-1.72.734-1.72 1.697v8.64c0 .925.34 1.676 1.72 1.676h2.91c4.27 0 6.85-2.428 6.85-6.01m-8.69 3.437v-6.873h1.99c2.81 0 3.83 1.81 3.83 3.436 0 1.632-1.02 3.437-3.83 3.437z"/><path stroke-width="2.799" d="m42.933 23.475h81.47z"/><path d="m42.933 23.475h81.47v-22.725h-81.47z" stroke-width="2.165" fill="url(#0)"/><g fill="#fff"><path opacity=".4" d="m155.88 18.257c1.3 1.53 1.47 2.971 1.52 3.287.13 0 .17-.674.17-1.681v-16.16c0-1.873-.51-2.504-1.84-2.504-.46 0-.91.288-1.51.288h-149.8c-.597 0-1.05-.288-1.501-.288-1.336 0-1.849.631-1.849 2.504l-.004 16.16c0 1.01.047 1.681.174 1.681.047-.315.085-1.87 1.523-3.287 11.482-10.514 140.74-13.74 153.12 0" stroke-width="2.317"/><g stroke-width="1.081"><path d="m15.523 14.254c0 1.947-1.279 3.378-3.859 3.651-1.879.208-4.591-.032-5.881-.185l-.077-.678c0-1.694.919-2.088 1.782-2.088.896 0 2.307.153 3.356.153 1.159 0 1.508-.393 1.508-.765 0-.481-.47-.689-1.366-.853l-2.45-.481c-2.044-.393-3.137-1.804-3.137-3.301 0-1.815 1.29-3.345 3.826-3.63 1.924-.207 4.252.032 5.531.197l.077.645c0 1.705-.896 2.065-1.76 2.065-.667 0-1.695-.12-2.864-.12-1.203 0-1.695.328-1.695.733 0 .426.47.601 1.225.732l2.338.437c2.407.437 3.444 1.804 3.444 3.487m4.198 2.099c0 1.039-.404 1.64-2.448 1.64-.263 0-.504-.022-.722-.054v-13.851c0-1.05.35-2.143 2.405-2.143.263 0 .525.022.765.077v14.331m8.341 5.357c.263.131.81.306 1.498.317 1.191.022 1.837-.426 2.307-1.486l6.351-14.168c-.263-.142-.842-.295-1.312-.306-.819-.011-1.912.152-2.613 1.826l-2.054 4.853-4.03-6.569c-.263-.088-.897-.197-1.367-.197-1.421 0-2.219.524-3.039 1.421l-3.924 4.285 3.159 4.963c.579.908 1.345 1.367 2.591 1.367.819 0 1.497-.185 1.815-.328l-3.805-5.728 2.7-2.854 4.416 6.932-2.689 5.673"/><path d="m61.01 14.735c0-2.36-1.53-3.508-3.979-4.04l-4.285-.973c-.776-.175-1.421-.404-1.421-1.192 0-.841.667-1.17 2.459-1.17 2.132 0 2.624.109 4.548.109.885 0 1.793-.404 1.793-2.164l-.066-.667c-1.289-.109-3.608-.241-6.46-.241-4.307 0-5.947 1.859-5.947 4.242 0 2.23 1.399 3.465 3.891 4.045l4.286.994c.994.241 1.53.667 1.53 1.301 0 .842-.754 1.17-2.547 1.17-2.121 0-3.094-.154-5.03-.154-.885 0-1.793.416-1.793 2.165l.066.667c1.301.131 4.088.284 6.942.284 4.307 0 6.01-1.836 6.01-4.373"/><path d="m96.35 13.784h1.784l3.478 4.132c.65.799 1.27 1.214 2.75 1.214.99 0 1.66-.131 2.2-.393l-4.49-5.214c2.51-.537 3.79-2.187 3.79-4.603 0-2.985-1.81-4.461-5.48-4.461l-5.275-.022c-1.708.065-2.259.656-2.259 2.208v12.244c.249.043.551.065.865.065 2.162 0 2.659-.623 2.659-1.749l-.022-3.422m.022-2.852v-3.619h3.394c1.456 0 2.606.218 2.606 1.738 0 1.268-.88 1.881-2.606 1.881h-3.394"/><path d="m62.57 18.89c.263.043.569.065.864.065 2.165 0 2.668-.623 2.668-1.749v-2.963h3.672c4 0 5.992-1.738 5.992-4.985 0-3.126-1.99-4.799-5.751-4.799h-5.171c-1.738 0-2.274.678-2.274 2.208v12.222m3.532-7.565v-3.99h3.52c1.749 0 2.623.656 2.623 1.924 0 1.367-.874 2.066-2.623 2.066h-3.52"/><path d="m83.994 18.933c2.27 0 4.02-.536 5.253-1.639 1.232-1.082 1.87-3.03 1.87-5.806-.033-2.721-.66-4.624-1.935-5.75-1.275-1.104-3-1.661-5.188-1.661-2.19 0-3.917.558-5.197 1.661-1.268 1.126-1.901 3.03-1.924 5.75 0 2.777.635 4.724 1.859 5.806 1.236 1.103 2.995 1.639 5.262 1.639m3.48-7.445c0 1.674-.281 2.843-.843 3.532-.54.711-1.427 1.038-2.637 1.038-1.243-.021-2.125-.372-2.682-1.038-.557-.667-.842-1.837-.842-3.532 0-1.661.295-2.83.864-3.497.558-.699 1.438-1.017 2.66-1.017 1.21 0 2.075.318 2.637 1.017.562.667.843 1.836.843 3.497"/><path d="m115.17 7.422h2.83c.94 0 1.88-.427 1.88-2.274l-.06-.689h-11.01c-.93 0-1.88.438-1.88 2.274l.06.689h4.66v11.468c.25.043.55.065.86.065 2.17 0 2.66-.623 2.66-1.749v-9.784"/></g></g></svg>