<svg xmlns="http://www.w3.org/2000/svg" height="105.66" xmlns:xlink="http://www.w3.org/1999/xlink" viewBox="0 0 599.99999 105.66431"><defs><path id="0" d="m490.36 1.689v37.718h423.87c6.45 0 16.25-7.377 16.25-7.377 19.32-13.836 22.38-30.341 22.38-30.341h-462.5"/><path id="1" d="m145.81 0h344.54v79.99h-344.54z"/><path id="2" d="m145.81 1.689h344.54v37.718h-344.54z"/><path id="3" d="m5.718 1.689s3.062 16.505 22.382 30.341c0 0 9.802 7.377 16.248 7.377h101.46v-37.718h-140.09"/><clipPath><use xlink:href="#3"/></clipPath><clipPath><use xlink:href="#0"/></clipPath><clipPath><use xlink:href="#2"/></clipPath><clipPath><use xlink:href="#1"/></clipPath><filter id="5" height="25.557" width="90.57" y="11.371" x="5.04" filterUnits="userSpaceOnUse"><feColorMatrix values="1 0 0 0 0 0 1 0 0 0 0 0 1 0 0 0 0 0 1 0"/></filter><filter id="4" height="25.548" width="129.12" y="11.359" x="321.5" filterUnits="userSpaceOnUse"><feColorMatrix values="1 0 0 0 0 0 1 0 0 0 0 0 1 0 0 0 0 0 1 0"/></filter><linearGradient id="B" gradientUnits="userSpaceOnUse" x2="95.61" x1="5.04" xlink:href="#9"/><linearGradient id="A" y2="40.04" gradientUnits="userSpaceOnUse" y1="10.761" x2="0" xlink:href="#6"/><linearGradient id="9" gradientUnits="userSpaceOnUse" x2="450.63" x1="321.5"><stop stop-color="#abb6cc"/><stop stop-color="#98a5c1" offset=".123"/><stop stop-color="#8796b7" offset=".28"/><stop stop-color="#7c8cb0" offset=".457"/><stop stop-color="#7587ac" offset=".668"/><stop stop-color="#7385ab" offset="1"/></linearGradient><linearGradient id="7" y2="14.14" gradientUnits="userSpaceOnUse" y1="83.4" x2="0"><stop stop-color="#d92231"/><stop stop-color="#d12130" offset=".193"/><stop stop-color="#bd1f2c" offset=".448"/><stop stop-color="#9d1a26" offset=".735"/><stop stop-color="#7c131d" offset="1"/></linearGradient><linearGradient id="8" y2="48.747" gradientUnits="userSpaceOnUse" y1="15" x2="0"><stop stop-color="#ebb4b9"/><stop stop-color="#e79895" offset=".077"/><stop stop-color="#e37f76" offset=".168"/><stop stop-color="#e0685f" offset=".266"/><stop stop-color="#dd534d" offset=".371"/><stop stop-color="#db4140" offset=".484"/><stop stop-color="#da3238" offset=".611"/><stop stop-color="#d92733" offset=".762"/><stop stop-color="#d92432" offset="1"/></linearGradient><linearGradient id="6" y2="39.585" gradientUnits="userSpaceOnUse" y1="10.307" x2="0"><stop stop-color="#fff"/><stop offset="1"/></linearGradient><mask id="C" height="25.548" width="129.12" y="11.359" x="321.5" maskUnits="userSpaceOnUse"><g filter="url(#4)"><path fill="url(#6)" d="m-26.05 9.877h536.08v27.986h-536.08z"/></g></mask><mask id="D" height="25.557" width="90.57" y="11.371" x="5.04" maskUnits="userSpaceOnUse"><g filter="url(#5)"><path fill="url(#A)" d="m-20.618 10.331h536.08v27.986h-536.08z"/></g></mask></defs><path fill="url(#7)" d="m424.63 14.15h-298.36v69.25l298.36.0001z"/><path fill="#0e2d6d" d="m424.63 83.4h169.08c3.46 0 6.29-2.83 6.29-6.289v-56.675c0-3.463-2.83-6.289-6.29-6.289h-169.08v69.25m-298.36-69.27h-119.98c-3.46 0-6.29 2.832-6.29 6.292v56.69c0 3.461 2.83 6.291 6.291 6.291l119.98-.001v-69.26"/><path opacity=".8" d="m5.04 11.371c3.124 12.92 21.02 25.557 27.662 25.557h62.906v-25.557h-90.57" mask="url(#D)" transform="scale(1.3208)" fill="url(#B)"/><path opacity=".8" d="m321.5 11.359l.02 25.548c60.54 0 101.44-.434 103.4-.434 5.8 0 20.63-8.845 25.71-24.997l-129.12-.117z" mask="url(#C)" transform="scale(1.3208)" fill="url(#9)"/><path opacity=".8" d="m126.32 15.02l.08 33.728h298.25l-.02-33.743-298.31.014" fill="url(#8)"/><g fill="#fff"><path d="m181.16 58.64c0-7.429-4.84-11.04-12.54-12.747l-13.5-3.062c-2.45-.546-4.49-1.299-4.49-3.749 0-2.659 2.11-3.682 7.76-3.682 6.68 0 8.25.339 14.32.339 2.79 0 5.65-1.293 5.65-6.812 0-.682-.06-1.432-.2-2.115-4.09-.341-11.38-.75-20.38-.75-13.56 0-18.74 5.864-18.74 13.36 0 7.02 4.43 10.904 12.27 12.744l13.49 3.135c3.14.747 4.84 2.112 4.84 4.087 0 2.661-2.38 3.682-8.04 3.682-6.68 0-9.74-.475-15.81-.475-2.8 0-5.66 1.296-5.66 6.815 0 .683.07 1.432.21 2.115 4.09.408 12.88.886 21.87.886 13.58-.003 18.95-5.796 18.95-13.771m111.37-11.996v-11.382h10.7c4.57 0 8.18.682 8.18 5.453 0 4.02-2.73 5.929-8.18 5.929h-10.7m-.07 8.998h5.66l10.92 13.02c2.04 2.52 4.02 3.817 8.65 3.817 3.13 0 5.25-.406 6.95-1.226l-14.18-16.427c7.97-1.703 11.99-6.886 11.99-14.518 0-9.408-5.73-14.04-17.31-14.04l-16.56-.067c-5.38.204-7.16 2.045-7.16 6.951v38.577c.82.137 1.78.203 2.73.203 6.82 0 8.38-1.972 8.38-5.52l-.06-10.766zm-95.28-7.77v-12.544h11.11c5.52 0 8.25 2.046 8.25 6.067 0 4.294-2.73 6.476-8.25 6.476h-11.11m-11.11 23.857c.82.136 1.78.202 2.73.202 6.82 0 8.38-1.972 8.38-5.519v-9.337h11.59c12.61 0 18.88-5.455 18.88-15.678 0-9.881-6.27-15.13-18.13-15.13h-16.29c-5.45 0-7.16 2.113-7.16 6.951v38.511zm78.44-23.312c0 5.25-.88 8.929-2.65 11.11-1.71 2.248-4.5 3.271-8.32 3.271-3.88-.07-6.68-1.158-8.45-3.271-1.77-2.114-2.66-5.792-2.66-11.11 0-5.247.96-8.928 2.73-11.04 1.77-2.182 4.56-3.202 8.38-3.202s6.54 1.02 8.31 3.202c1.77 2.113 2.66 5.793 2.66 11.04m-10.97 23.447c7.15 0 12.68-1.704 16.56-5.178 3.88-3.413 5.86-9.545 5.86-18.269-.07-8.588-2.04-14.584-6.06-18.13-4.03-3.476-9.47-5.247-16.36-5.247-6.88 0-12.34 1.771-16.36 5.247-4.02 3.545-6 9.54-6.06 18.13 0 8.724 1.97 14.856 5.86 18.269 3.87 3.474 9.39 5.178 16.55 5.178zm98.21-36.26h8.93c2.93 0 5.93-1.365 5.93-7.158 0-.679-.07-1.499-.21-2.18h-34.68c-2.93 0-5.93 1.364-5.93 7.156 0 .685.06 1.497.2 2.18h14.65v36.12c.82.136 1.78.202 2.73.202 6.81 0 8.38-1.972 8.38-5.52v-30.804m58.41 23.04c0-7.429-4.85-11.04-12.54-12.747l-13.5-3.062c-2.45-.546-4.5-1.299-4.5-3.749 0-2.659 2.12-3.682 7.77-3.682 6.68 0 8.25.339 14.31.339 2.8 0 5.66-1.293 5.66-6.812 0-.682-.06-1.432-.2-2.115-4.09-.341-11.38-.75-20.38-.75-13.56 0-18.74 5.864-18.74 13.36 0 7.02 4.43 10.904 12.27 12.744l13.49 3.135c3.14.747 4.84 2.112 4.84 4.087 0 2.661-2.39 3.682-8.04 3.682-6.68 0-9.75-.475-15.82-.475-2.79 0-5.65 1.296-5.65 6.815 0 .683.07 1.432.2 2.115 4.09.408 12.88.886 21.88.886 13.55-.003 18.94-5.796 18.94-13.771zm-326.77 19.822c.823.425 2.495.928 4.593.982 3.609.077 5.573-1.301 7.03-4.538l19.351-43.16c-.8-.427-2.58-.902-4.01-.931-2.5-.053-5.84.451-7.96 5.548l-6.266 14.783-12.289-20.01c-.796-.239-2.734-.582-4.142-.582-4.352 0-6.766 1.594-9.289 4.324l-11.944 13.06 9.607 15.13c1.78 2.759 4.115 4.169 7.912 4.169 2.495 0 4.565-.583 5.52-1.036l-11.572-17.436 8.202-8.707 13.455 21.13-8.202 17.278zm-25.387-16.325c0 3.184-1.248 5.02-7.458 5.02-.823 0-1.539-.054-2.23-.16v-42.2c0-3.212 1.089-6.558 7.353-6.558.797 0 1.593.079 2.337.241v43.66zm-12.81-6.371c0 5.947-3.876 10.272-11.759 11.123-5.706.611-13.961-.107-17.889-.558-.133-.636-.239-1.43-.239-2.068 0-5.176 2.787-6.37 5.414-6.37 2.734 0 7.04.477 10.219.477 3.529 0 4.592-1.196 4.592-2.337 0-1.488-1.406-2.097-4.14-2.63l-7.486-1.433c-6.211-1.195-9.529-5.494-9.529-10.06 0-5.547 3.928-10.192 11.654-11.04 5.839-.638 12.951.079 16.854.556.132.663.212 1.301.212 1.991 0 5.176-2.734 6.29-5.361 6.29-2.02 0-5.149-.371-8.733-.371-3.637 0-5.149 1.01-5.149 2.231 0 1.299 1.433 1.828 3.715 2.228l7.141 1.328c7.323 1.353 10.483 5.521 10.483 10.642zm479.47-38.41l.08-.007.02-.002-.09.009zm45.96 18.902c1.02.923.82.787.6.82-.35.045-3.64-1.671-7.68-.145-.96.362-1.98.771-2.79 1.194-.8.416-2.82 1.717-3.11 1.855-.25.117-3.13 2.538-3.43 2.652-.31.125-.68.189-.97.374-.63.305-1.11.811-1.62 1.26-.21.192-.29.832-.67.653 0 0-.48.012-.89.375-.23.099 0 .249.001.391l-.69.664c-.43.433-.91.811-1.3 1.273-.77.913-1.52 1.859-2.29 2.778-.001.008-.15.638-.27.753l-1.33 1.34c-.04.093.08.522.22.414-.35.502-.68 1.01-1.07 1.486-.25.308-.53.621-.73.965l-.52.651c-.13.205-.14.43-.17.666l-.63 1.061c-.03.257-.92 1.236-1.09 1.486-.34.521-.69 1.06-1 1.603-.22.375-.38.752-.63 1.104l-.62.86c-.22.302-1.1 1.21-1.21 1.49-.1.23-.21.392-.41.551-.49.395-.69.882-1.04 1.401-.35.514-.65 1.049-.94 1.603-.27.526-.51 1-.94 1.423-.46.437-.97.802-1.39 1.28-.38.436-.74.87-1.27 1.133-.28.136-.45.511-.8.353.03-.073-.91.508-.94.624-.16.409-.61.349-.96.3-.46-.063-.88.056-1.34.12-.25.031-1.06.043-1.26.014-.45-.061-.64-.386-1.03-.545-.001-.392-.28-.608-.4-.953-.13-.362.08-.947.14-1.318.06-.377.3-2.034.38-2.506.07-.423.17-.839.17-1.266.001-.973.13-1.895.2-2.857.07-.908.6-1.723.79-2.602.13-.486.11-.991.15-1.482.04-.431.05-.86-.07-1.285-1.45 1.611-3.09 3.067-4.46 4.747-.63.768-1.16 1.57-1.95 2.18-.37.282-.66.577-.97.926-.15.168-.87 1.032-.81.791-.13.525-.62.424-.71.758-.3-.084-1.38 1.029-1.61 1.473-.31.633-1.15 1.22-1.38 1.391-.35.23-.78.173-1.11.434-.3.23-.67-.037-.99.221-.21.189-.92.272-1.03.33.03-.095-.64.309-.72.762-.05.245-.37.321-.59.44-.2.114-.38.096-.5.25-.03-.036-.41.05-.66.103-.24.038-.35-.263-.65-.159-.6.209-.98.308-1.62.367-.73.069-1.48.003-2.1-.412-.51-.337-.96-.463-1.34-.988-.31-.424-.52-.931-.86-1.328-.33-.378-.71-.745-.92-1.194-.18-.36-.2-.834-.24-1.227-.07-.46-.13-.926-.16-1.386-.1-1.385.38-2.804.63-4.154.31-1.61.63-3.162 1.13-4.723 1.03-3.159 2.3-6.226 3.48-9.327.53.208.61-.926.71-.848-.9-.715-3.08.755-3.1.565l-1.91 1.063c-.24.128-1.25.387-1.44.101-.33-.014-.64.253-.97.282-.32-.142-1.1.083-1.25.118-.42.087-.85.168-1.27.239 0 0-2.03-.649-2.6-1.94-.57-1.292.35-3.975.87-4.508.58-.617 2.26-1.783 2.92-2.166.28-.161 1.65-.552 1.96-.703.66-.327 1.39-.494 2.04-.84 1.57-.832 3.21-1.459 4.87-2.084.88-.328 1.77-.655 2.65-.98l1.32-.489c.23-.079.65-.305.89-.321 1.07-.082 1.74-1.675 1.93-1.996.64-1.124 1.31-2.234 2.01-3.333 1.41-2.23 3.1-4.328 4.68-6.435.26-.332.19-.515.49-.808.75-.736.86-1.082 1.64-1.235.27-.222 2.98-1.684 3.32-1.564.64-.254 1.4-.124 1.87.688-.11-.193.16.246.31.641.1.307.04 2.228-.05 2.505-.12.363-.02 1.041-.26 1.337-.12.145-.41 1.336-.46 1.437-.12.23-.54 1.581-.53 1.849-.03.422-.41.961-.15 1.368.17.271.58.201.84.151 2.19-.412 4.33-.926 6.49-1.498 1.18-.317 2.39-.618 3.6-.812.81-.126 1.7-.097 2.46-.455.94-.439 1.72-.969 2.79-1.044.51-.031.44.095.93-.066.18-.063.47-.097.66-.031.03.012.49.012.51.003.55-.197.24-.143.82.082-.31.086.87-.017.42.083.74.42.05-.034.72.21-.07.189.67.124.53.197-.21.108.93.627.7.525.6.25 1.39.585 1.97.751 1.11.71 2.1.215.48 1.482-2.6 2.026-4.23 2.3-5.35 2.827-1.13.521-7.48 2.881-8.35 3.183-.31.113-.54.479-.84.625-.3.14-.62.251-.93.365-1.82.664-3.62 1.363-5.45 1.984-1.69.574-3.4 1.184-4.91 2.175l-.08.263c-.51.524-.99.083-1.43.656l.13.171c-1.14.277-2.13 1.09-3.28 1.327-.02.432-.43.671-.62 1.027-.13.241-.05.498-.15.748-.3.777-.77 1.491-1.14 2.226-.5 1.018-1.05 1.994-1.51 3.03l-1.64 3.584c-1.06 2.345-2.07 4.741-2.65 7.262l-.29 1.556c-.09.321-.2.884.29.915.95.074 1.87-1.12 2.45-1.718 2.26-2.375 4.63-4.648 6.94-6.986 2.21-2.244 4.45-4.46 6.81-6.553 1.17-1.047 2.38-2.062 3.62-3.03 1.09-.853 2.29-1.993 3.72-2.208.36-.056.73-.028 1.07.136.29.145 1.51 1.504 1.65 2.138.18.744.27 1.559-.04 2.28-.12.268-.27 2.044-.27 2.183 0 .32-.17.717-.06 1.017l.15.613c.08.17.52-.651.69-.892 1.05-1.468 2.44-2.544 3.53-3.771 2.13-2.386 4.2-4.801 6.6-6.913 2.35-2.077 4.06-3.151 6.74-4.781.4-.049 1.56-.869 1.89-1.066.31-.189.62-.276.97-.359.65-.164.99-.291 1.62-.545 1.45-.591 1.89-.687 3.42-.611.44.02 1.65.012 2.93.389 1.26.373 4.25 2.632 4.36 2.95"/><path d="m583.08 68.07c-.86-.011-1.57-.391-2.34-.713-.54-.232-1.26-.72-1.61-.962-.63-.453-1.11-1.013-1.58-1.64-.47-.626-.87-1.288-1.24-1.97-.36-.698-.61-1.476-1.01-2.15-.85-1.417-.71-2.915-.95-4.496-.13-.776-.11-1.576-.3-2.35-.06-.287-.12-1.32-.39-1.528-.001-.251-.35-.598-.47-.8-.26-.384-.47-.783-.68-1.191-.11-.234-.27-.484-.32-.736-.05-.25.1-.54-.04-.762-.04-.085-.14-.382-.25-.342-.19-.191-.66-.191-.63-.258-.15-.022-.33-.169-.38-.164-.37-.158-1.37-.379-1.93-.318l-.77.201c-.26.001-.47-.239-.74-.115-.42-.054-.27-.46-.2-.741.09-.277.03-.522-.03-.799-.12-.585-.28-1.16-.43-1.73-.001-.011-.22-.703-.24-.661l-.19-.429c-.11-.225-.31-.388-.45-.584-.24-.152-.51-.477-2.15-.434-.43.034-.84-.13-1.26-.139-.37-.017-1.25.33-1.4.425-.2.124-.46.19-.68.264-.45.147-.88.209-1.26.481-.34.23-1.51 1.055-1.94 1.345-.62.416-1.14.941-1.72 1.4-.29.22-.81.5-.99.842-.17.339-.5.559-.74.85-.21.261-1.21 1.77-1.61 2.271-.41.53-.75 1.12-1.09 1.703l-.38.629c-.15.232-.47.513-.47.807 0 .121-.26.35-.33.488l-.45.821c-.78 1.592-1.6 3.15-2.19 4.842-.37 1.039-.64 2.097-.87 3.176-.12.52-.21 1.043-.31 1.567-.08.434-.17 1.915-.2 1.997.09.985.05 1.999.39 2.945.3.87.7 1.598 1.39 2.215.65.56 1.39.952 2.16 1.342.49.255 1.13.606 1.8.342 0-.157.15-.164.09-.428.04.149.82-.363 1.41-.543.13-.037 1.22-.289 1.51-.411l.31.117c.37-.105.61-.309.97-.438.34-.134.33-.447.58-.686.37-.373 1.07-.895 1.45-1.29.15-.12 1.02-1.446 1.16-1.791.2-.091.51-.532.62-.733.22-.417.46-.807.72-1.2.52-.74 1.03-1.44 1.48-2.216.32-.535.67-1.035 1.03-1.542.28-.42.57-.801.79-1.27.09-.2.2-.401.33-.578.22-.299.28.041.49-.06.25.112.25.696.35.943.21.449.26.951.42 1.435.35 1.066.64 2.06 1.18 3.047 1.02 1.902 2.02 3.849 3.65 5.311 1.09.976 2.55 1.499 3.97 1.814.36.078.72.156 1.09.206l.96.12c.31.038.73.065 1.07-.004.23-.051 2.36.221 5.22-2.24l2.94-2.828c-.62.222-1.73.329-2.36.325zm-17.4-19.04c-.16.082-.89.334-1.2.791-.14.199-.001.478-.03.721.05-.029-.06.596-.22.74-.26.244-.18.479-.34.763 0 0-.31.263-.32.372-.27-.015-.33.671-.25.843.07.18.02.165-.09.361l-.21.443c-.16.349-.59.951-.59.951-.28.798-.84 1.46-1.15 2.342 0 0-.62 1.094-.7 1.246-.14.269-.24.552-.41.801-.19.296-1.36 1.724-1.56 2.176-.23.524-.46.968-.81 1.43-.35.478-.64 1.042-.97 1.547-.21.31-.41 1.01-.81 1.111-.09-.262-.09-.76-.08-1.031.03-.274.03-.554.08-.829l.12-.77.13-.493c.36-1.257 1.4-2.448 1.4-3.826.27-.242.3-.646.43-.958.13-.288.73-1.442.81-1.699.08-.255.14-.617.27-.817.11-.17.64-1.037.89-1.331.28-.33.44-.819.67-1.199.03-.055.71-.795.69-.916.22.031.26-.276.37-.387l.69-.536c.47-.507.93-1.057 1.51-1.451.11-.08.99-.56 1.12-.497.19-.189.62-.263.86-.349-.02.074-.27.427-.31.452zm-40.3-45.2c-2.05.798-4.22 1.701-5.96 3.059-.62-.333-.54.462-.88.659-2.14 1.368-3.82 3.182-5.79 4.462.26.155.2.501-.09.582l-.88.655.17.213c-2.6 2.143-5.46 4.99-8.19 7.464-.29.661-.55 1.53-1.25 1.787l.16.218c-.92.653-1.33 1.024-1.85 1.894.11-.187-.04-.282-.13-.418l-.45.337.17.221-.21-.007-.43.304c.57.948-.84.857-1 1.426-.1-.135-.15-.298-.36-.249l-.22.165c.11.137.24.229.14.412l-.16-.213c-.15.169-.51.236-.48.515l.17.221-.43.33c-.08.501.05-.193-.18-.226-.89.186.09.803-.55 1.099l-.33-.44c-.13.101-.29.159-.25.357l.33.441c-.23-.032-.47-.025-.55-.275-.14.095-.3.149-.25.35.1.142.16.305.35.256-1.74.613-2.23 2.896-3.9 3.753-1.63 1.69-2.28 3.447-3.91 5.14l.17.222c.84-.869 1.45-1.29 2.1-2.26-1.08 2.046-3.33 3.409-3.99 5.719l.11.204c-.13.103-.25.164-.2.37l.17.224c.5-.674 1.08-.946 1.6-1.539-.92 2.785-3.39 4.07-4.72 6.594.03.388.19.733.39 1.068l.12.139 1.36 1.803-.59-.124c.3.692.57.928.98 1.685l.34.718.2-.005c-.001.288.04.489.15.861l.16.399c.19.423.41.851.65 1.276l.5 2.063c.24.423.47.849.67 1.279.66 1.402 1.79 2.371 2.64 3.67 1.08 1.625 1.91 4.322 2.5 5.835 1.32 3.388 3.57 5.194 4.77 8.714.64 1.891 1.71 3.254 2.74 5.05.34.614.72 1.148 1.11 1.657.2.249.44.463.58.737.57 1.015 1.81 2.189 1.24 2.831-.24.284.86 1.723 1.4 2.822l.41.618c.44.714.47 1.468.47 1.468l.15.349c.47.421 1.36 2.576 1.8 3.688l.05-.001.11.425.1.252-.03.067c.23 1.087.31 2.251.2 3.354-.06.74-.2 1.56-.44 2.53l-.23-.001c-.31.62 0 1.17-.53 1.56l-.41-.14c.21.8-.63.28-.92.52-.8-.67-.92.78-2.13.48-1.18.76-2.28-1.27-3.51-.65-.02-1.59-1.92-2.02-2.11-3.53-.94-1.312-2.43-2.485-3.06-3.99-.94-1.654-1.08-3.512-1.98-5.254-.54-.88-.18.742-.7-.15l.15 1.226-.46-.862.03-.006c-.4-.742-1.51-1.092-1.86-1.874l-.17-.407c-1.17-1.861-2.27-3.312-3.24-5.253l.23-.163c.5.265.76.899 1.17 1.351l.22-.161c-1.01-1.469-1.94-2.988-2.82-4.521-2.56-2.592-3.51-5.804-4.93-8.976-1.25-2.791-3.5-4.4-5.15-6.898-.65-.976-1.16-1.783-1.54-2.584-.04.384.4.837.33 1.289.33.717 1.3 1.607 1.39 2.561-.29-1.259-1.56-2.469-2.52-2.93l-.22.168-.66-.885c-.54.509-.85 1.528-1.61 1.536.26.943-.76.908-1.21 1.596.1.638-.48 1.419-.89 2.031-.72.328-.94 1.01-1.22 1.589l-.16-.215c-.14.099-.3.152-.25.352-.13.813-.93 1.758-1.56 2.53-2.88 3.583-5.12 7.681-7.87 11.389-1.95 2.61-4.15 5.02-7.03 6.888-.92 1.595-2.88 3.164-4.79 3.036l-.16-.222c-.26.437-.5-.112-.77-.112-.14-.609-1.52-.104-2.06-.7-1.05-.115-1.32-1.526-2.31-1.712.78-.755-.22-1.723.56-2.482.42-.414 1.01-1.232 1.61-1.537-.001-.507.27-1.338.66-1.865l.17.221c.13-.098.3-.159.24-.366-.09-.128-.14-.291-.35-.246l.44-.329-.16-.218c.28-.838.75-1.561 1.29-2.234 1.35-1.684 3.2-3.063 4.12-5.04 6.04-7.576 11.09-15.885 17.57-23 .54-.63.95-1.549.93-2.232-.14.103-.24.246-.42.144-.1-.131-.24-.238-.13-.423l.16.221c.43-.761-.22-1.681-.62-2.45-.18-.111-.28.033-.42.132l.03 1.191c-.73-1.767-2.4-3.472-2.79-5.14-1.42-.526-1.1-2.171-2.3-3.101-1.15-3.154-3.01-5.482-4.42-8.723-.56.313 0 .791.02 1.184-2.13-3.988-4.15-8.611-6.23-12.919l-.1-.223c-.64-1.592-.41-3.408.52-4.846.49-.952 1.87-1.773 2.67-2.164-.43-.459.24-.752.37-1.129.99-.837 1.45-2.35 2.93-2.516-.35-.291.03-.711.15-.968.48-.045.86-.54 1.29-.794.46.144 1.12.166 1.46.806 2.3 3.162 4.14 6.553 5.92 9.962 2.02 3.869 3.99 7.753 6.49 11.366l-.22.165.49.66.22-.163c1.45 3.01 3.43 5.387 5.28 8.26l.39.058c3.69-3.392 6.51-7.07 10.16-10.112.81-.944 1.85-2.414 2.95-2.72l.22-.158-.16-.223c.67-.568 1.12-1.452 2.02-1.67l-.17-.222 1.09-.992c9.8-8.958 19.22-18.36 31.82-23.1.72-.609 1.53-.761 2.31-1.033 0 .272-.55.499-.11.766.33-.073-1.88 1.85-3.2 3.072zc-2.05.798-4.22 1.701-5.96 3.059-.62-.333-.54.462-.88.659-2.14 1.368-3.82 3.182-5.79 4.462.26.155.2.501-.09.582l-.88.655.17.213c-2.6 2.143-5.46 4.99-8.19 7.464-.29.661-.55 1.53-1.25 1.787l.16.218c-.92.653-1.33 1.024-1.85 1.894.11-.187-.04-.282-.13-.418l-.45.337.17.221-.21-.007-.43.304c.57.948-.84.857-1 1.426-.1-.135-.15-.298-.36-.249l-.22.165c.11.137.24.229.14.412l-.16-.213c-.15.169-.51.236-.48.515l.17.221-.43.33c-.08.501.05-.193-.18-.226-.89.186.09.803-.55 1.099l-.33-.44c-.13.101-.29.159-.25.357l.33.441c-.23-.032-.47-.025-.55-.275-.14.095-.3.149-.25.35.1.142.16.305.35.256-1.74.613-2.23 2.896-3.9 3.753-1.63 1.69-2.28 3.447-3.91 5.14l.17.222c.84-.869 1.45-1.29 2.1-2.26-1.08 2.046-3.33 3.409-3.99 5.719l.11.204c-.13.103-.25.164-.2.37l.17.224c.5-.674 1.08-.946 1.6-1.539-.92 2.785-3.39 4.07-4.72 6.594.03.388.19.733.39 1.068l.12.139 1.36 1.803-.59-.124c.3.692.57.928.98 1.685l.34.718.2-.005c-.001.288.04.489.15.861l.16.399c.19.423.41.851.65 1.276l.5 2.063c.24.423.47.849.67 1.279.66 1.402 1.79 2.371 2.64 3.67 1.08 1.625 1.91 4.322 2.5 5.835 1.32 3.388 3.57 5.194 4.77 8.714.64 1.891 1.71 3.254 2.74 5.05.34.614.72 1.148 1.11 1.657.2.249.44.463.58.737.57 1.015 1.81 2.189 1.24 2.831-.24.284.86 1.723 1.4 2.822l.41.618c.44.714.47 1.468.47 1.468l.15.349c.47.421 1.36 2.576 1.8 3.688l.05-.001.11.425.1.252-.03.067c.23 1.087.31 2.251.2 3.354-.06.74-.2 1.56-.44 2.53l-.23-.001c-.31.62 0 1.17-.53 1.56l-.41-.14c.21.8-.63.28-.92.52-.8-.67-.92.78-2.13.48-1.18.76-2.28-1.27-3.51-.65-.02-1.59-1.92-2.02-2.11-3.53-.94-1.312-2.43-2.485-3.06-3.99-.94-1.654-1.08-3.512-1.98-5.254-.54-.88-.18.742-.7-.15l.15 1.226-.46-.862.03-.006c-.4-.742-1.51-1.092-1.86-1.874l-.17-.407c-1.17-1.861-2.27-3.312-3.24-5.253l.23-.163c.5.265.76.899 1.17 1.351l.22-.161c-1.01-1.469-1.94-2.988-2.82-4.521-2.56-2.592-3.51-5.804-4.93-8.976-1.25-2.791-3.5-4.4-5.15-6.898-.65-.976-1.16-1.783-1.54-2.584-.04.384.4.837.33 1.289.33.717 1.3 1.607 1.39 2.561-.29-1.259-1.56-2.469-2.52-2.93l-.22.168-.66-.885c-.54.509-.85 1.528-1.61 1.536.26.943-.76.908-1.21 1.596.1.638-.48 1.419-.89 2.031-.72.328-.94 1.01-1.22 1.589l-.16-.215c-.14.099-.3.152-.25.352-.13.813-.93 1.758-1.56 2.53-2.88 3.583-5.12 7.681-7.87 11.389-1.95 2.61-4.15 5.02-7.03 6.888-.92 1.595-2.88 3.164-4.79 3.036l-.16-.222c-.26.437-.5-.112-.77-.112-.14-.609-1.52-.104-2.06-.7-1.05-.115-1.32-1.526-2.31-1.712.78-.755-.22-1.723.56-2.482.42-.414 1.01-1.232 1.61-1.537-.001-.507.27-1.338.66-1.865l.17.221c.13-.098.3-.159.24-.366-.09-.128-.14-.291-.35-.246l.44-.329-.16-.218c.28-.838.75-1.561 1.29-2.234 1.35-1.684 3.2-3.063 4.12-5.04 6.04-7.576 11.09-15.885 17.57-23 .54-.63.95-1.549.93-2.232-.14.103-.24.246-.42.144-.1-.131-.24-.238-.13-.423l.16.221c.43-.761-.22-1.681-.62-2.45-.18-.111-.28.033-.42.132l.03 1.191c-.73-1.767-2.4-3.472-2.79-5.14-1.42-.526-1.1-2.171-2.3-3.101-1.15-3.154-3.01-5.482-4.42-8.723-.56.313 0 .791.02 1.184-2.13-3.988-4.15-8.611-6.23-12.919l-.1-.223c-.64-1.592-.41-3.408.52-4.846.49-.952 1.87-1.773 2.67-2.164-.43-.459.24-.752.37-1.129.99-.837 1.45-2.35 2.93-2.516-.35-.291.03-.711.15-.968.48-.045.86-.54 1.29-.794.46.144 1.12.166 1.46.806 2.3 3.162 4.14 6.553 5.92 9.962 2.02 3.869 3.99 7.753 6.49 11.366l-.22.165.49.66.22-.163c1.45 3.01 3.43 5.387 5.28 8.26l.39.058c3.69-3.392 6.51-7.07 10.16-10.112.81-.944 1.85-2.414 2.95-2.72l.22-.158-.16-.223c.67-.568 1.12-1.452 2.02-1.67l-.17-.222 1.09-.992c9.8-8.958 19.22-18.36 31.82-23.1.72-.609 1.53-.761 2.31-1.033 0 .272-.55.499-.11.766.33-.073-1.88 1.85-3.2 3.072z"/></g></svg>