<svg xmlns="http://www.w3.org/2000/svg" height="77.28" width="600" viewBox="0 0 158.75 20.445723"><defs><linearGradient id="0" gradientUnits="userSpaceOnUse" x2="0" y1="19.832" y2=".597"><stop stop-color="#5a252a"/><stop stop-color="#cb082a" offset=".074"/><stop stop-color="#cb082a" offset=".916"/><stop stop-color="#e73440" offset="1"/></linearGradient><linearGradient id="1" gradientUnits="userSpaceOnUse" x2="0" y1=".441" y2="19.999"><stop stop-color="#141c4b"/><stop stop-color="#1a2b68" offset=".036"/><stop stop-color="#1a2b68" offset=".895"/><stop stop-color="#141c4b" offset="1"/></linearGradient></defs><g stroke-width="2.133"><path fill="url(#1)" d="m2.775.604c-1.493.015-2.026.906-2.026 2.384v14.466c0 1.49.533 2.386 2.047 2.386h153.06c1.51 0 2.04-.896 2.04-2.386v-14.466c0-1.478-.53-2.369-2.02-2.385z"/><path fill="#a1a19e" d="m155.81 20.446c2.26 0 2.94-1.399 2.94-2.798v-14.848c0-1.399-.68-2.8-2.94-2.8h-152.87c-2.253 0-2.94 1.401-2.94 2.8v14.848c0 1.399.687 2.798 2.939 2.798zm-152.77-.188c-1.516 0-2.542-.896-2.542-2.384v-15.302c0-1.489 1.026-2.384 2.542-2.384h152.67c1.52 0 2.54.896 2.54 2.384v15.302c0 1.488-1.02 2.384-2.54 2.384z"/><path fill="url(#0)" d="m36.3 19.84h93.39v-19.236h-93.39z"/><g fill="#fff"><path d="m140.8 8.987v-2.715c0-.738.29-1.205 1.81-1.205.19 0 .35.013.54.04v8.91c0 .734-.3 1.201-1.82 1.201-.18 0-.34-.013-.53-.041v-4.046h-4.73v2.886c0 .734-.3 1.201-1.82 1.201-.18 0-.34-.013-.53-.041v-8.906c0-.738.29-1.205 1.81-1.205.19 0 .35.013.54.04v3.879zm13.48 1.143c0-3.03-2.18-5.08-5.79-5.08h-2.46c-1.17 0-1.46.621-1.46 1.435v7.309c0 .783.29 1.418 1.46 1.418h2.46c3.61 0 5.79-2.054 5.79-5.082m-7.35 2.907v-5.814h1.69c2.37 0 3.24 1.531 3.24 2.907 0 1.38-.87 2.907-3.24 2.907z"/><path d="m13.14 12.06c0 1.647-1.077 2.85-3.263 3.088-1.585.169-3.877-.029-4.967-.155-.04-.179-.072-.399-.072-.574 0-1.442.781-1.77 1.51-1.77.757 0 1.951.132 2.839.132.977 0 1.273-.332 1.273-.646 0-.414-.394-.586-1.151-.731l-2.073-.399c-1.727-.331-2.649-1.525-2.649-2.792 0-1.54 1.09-2.83 3.235-3.067 1.621-.177 3.594.021 4.677.156.041.186.06.361.06.554 0 1.435-.757 1.747-1.487 1.747-.56 0-1.431-.107-2.424-.107-1.01 0-1.431.282-1.431.623 0 .358.399.508 1.032.616l1.983.369c2.037.375 2.909 1.533 2.909 2.955m3.557 1.768c0 .883-.345 1.393-2.07 1.393-.229 0-.427-.017-.619-.045v-11.717c0-.889.303-1.819 2.043-1.819.22 0 .442.023.646.066zm7.05 4.532c.226.118.691.256 1.275.273 1 .022 1.546-.362 1.952-1.258l5.372-11.983c-.222-.12-.713-.252-1.116-.263-.689-.011-1.616.13-2.209 1.544l-1.738 4.106-3.413-5.558c-.219-.066-.757-.164-1.151-.164-1.203 0-1.877.444-2.576 1.203l-3.317 3.628 2.668 4.199c.493.764 1.143 1.154 2.199 1.154.689 0 1.265-.155 1.529-.283l-3.212-4.844 2.278-2.412 3.734 5.861z"/><path d="m51.612 12.47c0-1.994-1.299-2.965-3.367-3.423l-3.624-.823c-.659-.145-1.209-.348-1.209-1.01 0-.714.57-.987 2.088-.987 1.794 0 2.214.092 3.843.092.751 0 1.518-.348 1.518-1.83 0-.183-.017-.386-.053-.57-1.098-.09-3.058-.2-5.472-.2-3.643 0-5.03 1.574-5.03 3.587 0 1.885 1.19 2.928 3.293 3.422l3.623.843c.842.2 1.301.567 1.301 1.096 0 .715-.64.99-2.161.99-1.791 0-2.616-.128-4.246-.128-.748 0-1.518.347-1.518 1.829 0 .184.019.384.055.568 1.099.109 3.459.236 5.874.236 3.642 0 5.088-1.554 5.088-3.695"/><path d="m81.49 11.663h1.518l2.932 3.496c.549.676 1.08 1.026 2.325 1.026.84 0 1.408-.111 1.864-.331l-3.809-4.41c2.143-.457 3.222-1.849 3.222-3.899 0-2.525-1.539-3.768-4.649-3.768l-4.446-.019c-1.444.055-1.922.548-1.922 1.866v10.358c.22.036.478.056.732.056 1.83 0 2.252-.531 2.252-1.483zm.019-2.416v-3.054h2.872c1.227 0 2.197.181 2.197 1.463 0 1.079-.731 1.591-2.197 1.591z"/><path d="m52.934 15.984c.22.036.476.054.732.054 1.832 0 2.252-.529 2.252-1.481v-2.508h3.109c3.387 0 5.07-1.463 5.07-4.209 0-2.653-1.683-4.063-4.867-4.063h-4.374c-1.465 0-1.922.567-1.922 1.868zm2.984-6.404v-3.367h2.981c1.485 0 2.216.548 2.216 1.627 0 1.154-.731 1.74-2.216 1.74z"/><path d="m71.04 16.02c1.921 0 3.403-.456 4.448-1.39 1.041-.915 1.574-2.563 1.574-4.905-.021-2.305-.55-3.916-1.629-4.869-1.081-.932-2.544-1.407-4.393-1.407s-3.312.476-4.392 1.407c-1.081.953-1.612 2.563-1.629 4.869 0 2.342.531 3.99 1.574 4.905 1.041.934 2.525 1.39 4.447 1.39m2.947-6.295c0 1.41-.239 2.397-.715 2.983-.456.604-1.209.879-2.232.879-1.043-.019-1.792-.311-2.27-.879-.475-.567-.712-1.554-.712-2.983 0-1.41.256-2.397.732-2.964.475-.587 1.226-.859 2.25-.859 1.023 0 1.757.273 2.232.859.476.567.715 1.555.715 2.964"/><path d="m97.42 6.285h2.398c.791 0 1.591-.367 1.591-1.921 0-.183-.02-.403-.05-.587h-9.319c-.787 0-1.591.367-1.591 1.921 0 .183.017.403.055.587h3.935v9.699c.22.036.476.054.732.054 1.827 0 2.249-.529 2.249-1.481z"/><path d="m106.57 16.04c-.05-.152-.09-.329-.12-.538-.03-.206-.05-.415-.05-.629 0-.151.02-.32.05-.509.03-.188.08-.382.16-.583.07-.202.18-.403.32-.603.14-.201.31-.388.53-.565l2.34-2.037c.42-.339.77-.636 1.05-.887.29-.252.52-.488.7-.71.18-.22.31-.435.39-.642.08-.209.11-.431.11-.672 0-.326-.11-.629-.34-.906-.22-.277-.6-.416-1.13-.416-.33 0-.62.041-.88.122-.26.083-.5.171-.71.267-.21.094-.42.179-.6.254-.19.077-.39.113-.59.113-.19 0-.37-.049-.55-.151-.18-.1-.33-.245-.45-.433-.13-.19-.22-.42-.29-.691-.06-.271-.08-.576-.05-.917.51-.377 1.12-.7 1.81-.964.7-.264 1.51-.397 2.46-.397.68 0 1.29.094 1.84.284s1.01.456 1.39.804c.38.345.67.766.88 1.256.21.493.31 1.034.31 1.625 0 .896-.22 1.676-.68 2.346-.45.668-1.09 1.265-1.91 1.796l-2.17 1.625h4.8c.03.139.06.322.09.548.04.226.06.467.06.719 0 .567-.12.958-.36 1.171-.24.215-.52.322-.85.322z"/><path d="m119.2 10.938h2.47v-3.591zm3.72 5.2c-.23 0-.46-.017-.7-.049-.24-.03-.42-.06-.55-.086v-2.476h-5.51c-.02-.138-.05-.317-.08-.537-.03-.222-.05-.456-.05-.71 0-.314.05-.623.16-.926s.28-.618.52-.945l4.57-6.653h3.28v7.182h1.78c.03.139.05.318.09.54.03.22.04.45.04.689 0 .529-.1.891-.32 1.087-.21.194-.48.293-.81.293h-.78v1.644c0 .328-.11.567-.34.719-.22.151-.66.228-1.3.228"/><path opacity=".4" d="m156.11 15.408c1.31 1.293 1.48 2.511 1.53 2.777.13 0 .17-.569.17-1.42v-13.656c0-1.582-.51-2.115-1.85-2.115-.46 0-.91.243-1.51.243h-150.17c-.606 0-1.06-.243-1.512-.243-1.339 0-1.853.533-1.853 2.116l-.004 13.656c0 .851.047 1.42.175 1.42.047-.266.085-1.58 1.527-2.777 11.512-8.884 141.09-11.61 153.5 0"/></g></g></svg>