<svg xmlns="http://www.w3.org/2000/svg" viewBox="0 0 600 68.95018" xmlns:xlink="http://www.w3.org/1999/xlink"><defs><linearGradient id="3" gradientUnits="userSpaceOnUse" y1="68.942" x2="0" y2="0"><stop stop-color="#d82232"/><stop stop-color="#d22131" offset=".178"/><stop stop-color="#c21e2d" offset=".414"/><stop stop-color="#a61a27" offset=".681"/><stop stop-color="#80141e" offset=".97"/><stop stop-color="#7c131d" offset="1"/></linearGradient><linearGradient id="2" y2="33.964" gradientUnits="userSpaceOnUse" y1="1.451" x2="0"><stop stop-color="#fff"/><stop stop-color="#e7ecf5" offset=".039"/><stop stop-color="#bacae3" offset=".122"/><stop stop-color="#93acd3" offset=".21"/><stop stop-color="#7293c6" offset=".303"/><stop stop-color="#577ebb" offset=".403"/><stop stop-color="#426eb3" offset=".51"/><stop stop-color="#3363ad" offset=".631"/><stop stop-color="#2b5ca9" offset=".774"/><stop stop-color="#285aa8" offset="1"/></linearGradient><linearGradient id="0" gradientUnits="userSpaceOnUse" y1="1.452" x2="0" y2="33.964" xlink:href="#2"/><linearGradient id="1" y2="33.964" gradientUnits="userSpaceOnUse" y1="1.451" x2="0"><stop stop-color="#fff"/><stop stop-color="#fae1e3" offset=".048"/><stop stop-color="#f2b4ba" offset=".13"/><stop stop-color="#eb8d95" offset=".217"/><stop stop-color="#e56c76" offset=".31"/><stop stop-color="#e0515d" offset=".408"/><stop stop-color="#dd3c4a" offset=".515"/><stop stop-color="#da2d3c" offset=".634"/><stop stop-color="#d82534" offset=".776"/><stop stop-color="#d82232" offset="1"/></linearGradient></defs><g stroke-width=".293"><path fill="#0e2d6d" d="m125.68 0h-119.42c-3.442 0-6.26 2.818-6.26 6.262v56.43c0 3.444 2.817 6.259 6.263 6.259l119.42-.008v-68.941z"/><path opacity=".8" d="m125.68 1.451h-120.75s2.639 14.225 19.292 26.15c0 0 8.525 6.417 14.08 6.36h87.39v-32.514z" fill="url(#2)"/><path fill="url(#3)" d="m125.68 68.941l296.98-.003v-68.938h-296.98z"/><path opacity=".8" d="m125.68 1.451h296.98v32.511h-296.98z" fill="url(#1)"/><path fill="#0e2d6d" d="m422.66 0h171.3c3.23 0 6.04 2.82 6.04 6.263v56.42c0 3.444-2.82 6.259-6.26 6.259l-171.06-.008v-68.932z"/><path opacity=".8" d="m422.66 1.452h172.39s-2.64 14.224-19.29 26.15c0 0-8.52 6.416-14.08 6.359h-139.02v-32.51" fill="url(#0)"/><path fill="#fff" d="m460.1 10.09l7.49 50.33h-13.38l-.7-9.05h-4.68l-.79 9.05h-13.53l6.67-50.34h18.96zm-6.94 32.364c-.66-5.702-1.33-12.748-2-21.14-1.33 9.639-2.16 16.686-2.51 21.14h4.53zm43.62-17.13h-12.15v-3.732c0-1.74-.16-2.849-.47-3.326s-.83-.714-1.56-.714c-.78 0-1.38.32-1.78.963-.41.644-.61 1.618-.61 2.925 0 1.678.23 2.944.68 3.795.44.85 1.67 1.877 3.7 3.078 5.83 3.459 9.5 6.296 11.01 8.514s2.27 5.793 2.27 10.725c0 3.586-.42 6.228-1.26 7.927-.84 1.701-2.46 3.125-4.87 4.275-2.4 1.152-5.2 1.726-8.39 1.726-3.5 0-6.49-.664-8.97-1.989-2.48-1.327-4.1-3.02-4.86-5.068-.77-2.052-1.16-4.964-1.16-8.736v-3.296h12.16v6.126c0 1.885.17 3.098.51 3.636.35.54.95.808 1.82.808s1.52-.341 1.95-1.026c.42-.683.63-1.698.63-3.046 0-2.964-.4-4.902-1.21-5.814-.83-.911-2.87-2.434-6.12-4.571-3.26-2.154-5.41-3.72-6.47-4.694s-1.93-2.32-2.63-4.04c-.69-1.72-1.04-3.917-1.04-6.591 0-3.855.49-6.674 1.48-8.457.98-1.781 2.57-3.176 4.77-4.182 2.2-1 4.85-1.507 7.96-1.507 3.4 0 6.29.55 8.69 1.648 2.39 1.099 3.98 2.481 4.76 4.15.77 1.668 1.16 4.505 1.16 8.504v1.991m33.2-15.235v50.34h-13.09v-21.14h-3.92v21.14h-13.09v-50.34h13.09v18h3.92v-18h13.08zm2.75 0h21.82v10.07h-8.73v9.545h8.17v9.576h-8.17v11.07h9.6v10.07h-22.69v-50.33m52.79 15.234h-12.15v-3.732c0-1.74-.16-2.849-.47-3.326s-.83-.714-1.56-.714c-.78 0-1.38.32-1.78.963-.41.644-.61 1.618-.61 2.925 0 1.678.23 2.944.68 3.795.44.85 1.67 1.877 3.7 3.078 5.83 3.459 9.5 6.296 11.01 8.514s2.27 5.793 2.27 10.725c0 3.586-.42 6.228-1.26 7.927-.84 1.701-2.46 3.125-4.86 4.275-2.41 1.152-5.21 1.726-8.4 1.726-3.5 0-6.49-.664-8.97-1.989-2.47-1.327-4.1-3.02-4.86-5.068-.77-2.052-1.15-4.964-1.15-8.736v-3.296h12.15v6.126c0 1.885.17 3.098.52 3.636.34.54.94.808 1.81.808s1.52-.341 1.95-1.026c.42-.683.63-1.698.63-3.046 0-2.964-.4-4.902-1.21-5.814-.83-.911-2.87-2.434-6.12-4.571-3.26-2.154-5.41-3.72-6.47-4.694s-1.93-2.32-2.63-4.04c-.69-1.72-1.04-3.917-1.04-6.591 0-3.855.49-6.674 1.48-8.457.98-1.781 2.57-3.176 4.77-4.182 2.2-1 4.85-1.507 7.96-1.507 3.4 0 6.29.55 8.69 1.648 2.39 1.099 3.98 2.481 4.75 4.15.78 1.668 1.17 4.505 1.17 8.504v1.991m-502.51 38.706c.82.421 2.485.922 4.572.978 3.594.077 5.549-1.298 7-4.519l19.259-42.96c-.79-.423-2.56-.898-3.99-.926-2.48-.052-5.81.45-7.92 5.524l-6.238 14.713-12.233-19.919c-.793-.238-2.721-.581-4.123-.581-4.332 0-6.736 1.584-9.246 4.306l-11.888 13 9.562 15.06c1.77 2.748 4.096 4.148 7.874 4.148 2.484 0 4.546-.578 5.495-1.028l-11.519-17.359 8.164-8.666 13.396 21.03-8.174 17.203zm-25.27-16.251c0 3.17-1.243 4.996-7.424 4.996-.82 0-1.532-.056-2.22-.162v-42c0-3.197 1.083-6.527 7.318-6.527.794 0 1.585.08 2.326.238v43.46zm-12.753-6.337c0 5.917-3.857 10.224-11.705 11.07-5.68.608-13.896-.106-17.805-.556-.134-.634-.239-1.425-.239-2.06 0-5.153 2.774-6.339 5.389-6.339 2.722 0 7 .473 10.173.473 3.513 0 4.57-1.19 4.57-2.325 0-1.481-1.4-2.085-4.122-2.614l-7.45-1.427c-6.183-1.19-9.485-5.47-9.485-10.01 0-5.52 3.909-10.145 11.599-10.989 5.812-.634 12.892.078 16.778.554.131.661.21 1.294.21 1.981 0 5.153-2.721 6.263-5.337 6.263-2.01 0-5.124-.371-8.692-.371-3.621 0-5.126 1-5.126 2.219 0 1.294 1.427 1.822 3.7 2.218l7.107 1.322c7.292 1.344 10.435 5.493 10.435 10.593zm135.34 2.859c0-7.395-4.82-10.992-12.48-12.687l-13.44-3.051c-2.44-.543-4.47-1.29-4.47-3.732 0-2.646 2.1-3.662 7.73-3.662 6.65 0 8.21.338 14.25.338 2.78 0 5.63-1.29 5.63-6.783 0-.68-.07-1.426-.2-2.105-4.08-.337-11.33-.746-20.29-.746-13.5 0-18.66 5.835-18.66 13.297 0 6.988 4.41 10.858 12.22 12.687l13.43 3.12c3.12.744 4.81 2.103 4.81 4.07 0 2.647-2.37 3.664-8 3.664-6.65 0-9.7-.473-15.74-.473-2.78 0-5.63 1.285-5.63 6.782 0 .678.07 1.423.2 2.103 4.08.404 12.83.882 21.78.882 13.5 0 18.86-5.766 18.86-13.702zm110.85-11.941v-11.327h10.65c4.55 0 8.14.676 8.14 5.425 0 4-2.71 5.903-8.14 5.903h-10.67zm-.07 8.956h5.63l10.87 12.957c2.03 2.509 4 3.8 8.61 3.8 3.12 0 5.23-.406 6.92-1.223l-14.12-16.346c7.94-1.695 11.94-6.854 11.94-14.451 0-9.362-5.7-13.975-17.23-13.975l-16.48-.067c-5.36.203-7.13 2.033-7.13 6.919v38.4c.81.136 1.77.2 2.72.2 6.78 0 8.34-1.963 8.34-5.491l-.09-10.723zm-94.84-7.734v-12.484h11.06c5.49 0 8.21 2.036 8.21 6.04 0 4.275-2.72 6.444-8.21 6.444h-11.06m-11.06 23.745c.82.135 1.77.2 2.72.2 6.78 0 8.34-1.964 8.34-5.492v-9.295h11.53c12.55 0 18.79-5.426 18.79-15.602 0-9.837-6.24-15.06-18.04-15.06h-16.22c-5.42 0-7.12 2.103-7.12 6.919v38.34zm78.09-23.2c0 5.227-.88 8.885-2.65 11.06-1.69 2.237-4.48 3.256-8.28 3.256-3.86-.069-6.64-1.153-8.41-3.256-1.76-2.103-2.64-5.766-2.64-11.06 0-5.223.95-8.886 2.71-10.991 1.77-2.17 4.55-3.187 8.34-3.187 3.8 0 6.52 1.017 8.28 3.187 1.77 2.106 2.65 5.769 2.65 10.991m-10.93 23.337c7.12 0 12.62-1.694 16.49-5.155 3.86-3.394 5.84-9.501 5.84-18.18-.08-8.546-2.04-14.518-6.04-18.05-4.01-3.46-9.43-5.222-16.29-5.222-6.85 0-12.28 1.762-16.28 5.222-4 3.528-5.97 9.5-6.04 18.05 0 8.681 1.97 14.788 5.84 18.18 3.86 3.463 9.35 5.156 16.48 5.156m97.75-36.09h8.89c2.92 0 5.9-1.358 5.9-7.127 0-.676-.07-1.491-.2-2.169h-34.53c-2.92 0-5.9 1.358-5.9 7.122 0 .681.06 1.492.2 2.174h14.59v35.953c.81.135 1.76.2 2.71.2 6.78 0 8.34-1.964 8.34-5.492v-30.659zm58.16 22.928c0-7.395-4.82-10.992-12.49-12.687l-13.43-3.051c-2.44-.543-4.48-1.29-4.48-3.732 0-2.646 2.1-3.662 7.73-3.662 6.66 0 8.22.338 14.25.338 2.79 0 5.63-1.29 5.63-6.783 0-.68-.06-1.426-.2-2.105-4.07-.337-11.33-.746-20.28-.746-13.5 0-18.66 5.835-18.66 13.297 0 6.988 4.41 10.858 12.21 12.687l13.43 3.12c3.13.744 4.82 2.103 4.82 4.07 0 2.647-2.38 3.664-8 3.664-6.65 0-9.7-.473-15.75-.473-2.78 0-5.62 1.285-5.62 6.782 0 .678.06 1.423.2 2.103 4.07.404 12.82.882 21.78.882 13.53 0 18.89-5.766 18.89-13.702z"/></g></svg>