<svg xmlns="http://www.w3.org/2000/svg" height="66.22" width="600" viewBox="0 0 158.75 17.520348"><defs><linearGradient id="0" gradientUnits="userSpaceOnUse" gradientTransform="matrix(0-16.479-21.161 0 82.49 16.993)" x1="0" x2="1"><stop stop-color="#5a252a"/><stop stop-color="#cb082a" offset=".074"/><stop stop-color="#cb082a" offset=".916"/><stop stop-color="#e73440" offset="1"/></linearGradient><linearGradient id="1" gradientUnits="userSpaceOnUse" gradientTransform="matrix(0 16.756-19.588 0 79.34.381)" x1="0" x2="1"><stop stop-color="#141c4b"/><stop stop-color="#1a2b68" offset=".036"/><stop stop-color="#1a2b68" offset=".895"/><stop stop-color="#141c4b" offset="1"/></linearGradient></defs><path d="m2.665.52c-1.495.013-2.029.777-2.029 2.043v12.393c0 1.277.534 2.044 2.05 2.044h153.29c1.51 0 2.04-.767 2.04-2.044v-12.393c0-1.266-.53-2.03-2.02-2.043z" stroke-width="1.976" fill="url(#1)"/><path fill="#a1a19e" d="m156.23 17.52c1.93 0 2.52-1.2 2.52-2.4v-12.72c0-1.2-.59-2.4-2.52-2.4h-153.71c-1.933 0-2.52 1.2-2.52 2.4v12.72c0 1.2.587 2.4 2.518 2.4h153.71m-153.62-.16c-1.298 0-2.179-.77-2.179-2.04v-13.12c0-1.27.881-2.04 2.179-2.04h153.54c1.29 0 2.17.77 2.17 2.04v13.12c0 1.27-.88 2.04-2.17 2.04h-153.54"/><path d="m31.11 17h102.74v-16.48h-102.74z" stroke-width="2.071" fill="url(#0)"/><g fill="#fff"><g><path d="m143.37 7.7v-2.33c0-.63.25-1.03 1.55-1.03.16 0 .3.001.46.04v7.63c0 .63-.25 1.03-1.55 1.03-.16 0-.3-.001-.46-.03v-3.47h-4.06v2.47c0 .63-.25 1.03-1.55 1.03-.16 0-.3-.001-.46-.03v-7.64c0-.63.25-1.03 1.55-1.03.16 0 .3.001.46.04v3.32h4.06m11.55.98c0-2.59-1.87-4.35-4.96-4.35h-2.11c-1 0-1.25.53-1.25 1.23v6.26c0 .67.25 1.22 1.25 1.22h2.11c3.09 0 4.96-1.76 4.96-4.36m-6.3 2.49v-4.98h1.46c2.02 0 2.76 1.31 2.76 2.49 0 1.18-.74 2.49-2.76 2.49h-1.46"/><path d="m11.247 10.34c0 1.41-.924 2.44-2.797 2.64-1.358.15-3.323-.02-4.256-.13-.036-.15-.062-.34-.062-.49 0-1.23.668-1.52 1.292-1.52.65 0 1.673.12 2.434.12.837 0 1.091-.29 1.091-.56 0-.35-.337-.5-.986-.62l-1.778-.35c-1.479-.28-2.27-1.3-2.27-2.39 0-1.32.936-2.42 2.772-2.63 1.391-.15 3.081.02 4.01.13.034.16.051.32.051.48 0 1.23-.649 1.5-1.274 1.5-.482 0-1.227-.09-2.079-.09-.866 0-1.225.24-1.225.53 0 .31.342.44.884.53l1.699.32c1.747.32 2.494 1.31 2.494 2.53m3.05 1.51c0 .76-.297 1.2-1.774 1.2-.198 0-.369-.02-.533-.04v-10.04c0-.77.26-1.56 1.752-1.56.188 0 .378.02.555.05v10.39m6.04 3.89c.192.1.591.22 1.091.23.858.02 1.327-.31 1.673-1.08l4.606-10.27c-.19-.1-.61-.21-.956-.22-.591-.001-1.385.11-1.893 1.32l-1.494 3.52-2.922-4.76c-.19-.06-.649-.14-.988-.14-1.031 0-1.609.38-2.207 1.03l-2.842 3.11 2.287 3.6c.421.65.978.99 1.883.99.591 0 1.084-.14 1.312-.25l-2.753-4.15 1.951-2.07 3.201 5.03-1.949 4.11"/><path d="m44.23 10.69c0-1.71-1.114-2.55-2.887-2.94l-3.105-.7c-.565-.13-1.035-.3-1.035-.86 0-.62.485-.85 1.788-.85 1.537 0 1.898.08 3.293.08.643 0 1.302-.3 1.302-1.57 0-.16-.015-.33-.047-.49-.941-.08-2.62-.17-4.689-.17-3.122 0-4.314 1.35-4.314 3.07 0 1.62 1.02 2.51 2.823 2.94l3.105.72c.723.17 1.114.48 1.114.94 0 .61-.547.85-1.85.85-1.537 0-2.243-.11-3.639-.11-.644 0-1.302.29-1.302 1.56 0 .16.017.33.047.49.943.09 2.965.21 5.03.21 3.122 0 4.361-1.34 4.361-3.17"/><path d="m69.846 10h1.302l2.512 2.99c.469.58.927.88 1.992.88.723 0 1.208-.09 1.6-.28l-3.266-3.78c1.837-.39 2.761-1.59 2.761-3.34 0-2.17-1.317-3.23-3.985-3.23l-3.81-.02c-1.238.05-1.647.47-1.647 1.6v8.88c.188.03.409.04.627.04 1.569 0 1.929-.45 1.929-1.27l-.015-2.47m.015-2.07v-2.62h2.463c1.052 0 1.882.15 1.882 1.25 0 .93-.627 1.37-1.882 1.37h-2.463"/><path d="m45.36 13.7c.188.03.408.05.626.05 1.57 0 1.931-.46 1.931-1.28v-2.14h2.667c2.901 0 4.343-1.26 4.343-3.61 0-2.28-1.442-3.48-4.172-3.48h-3.749c-1.255 0-1.646.48-1.646 1.6v8.86m2.557-5.49v-2.89h2.555c1.273 0 1.899.47 1.899 1.4 0 .99-.626 1.49-1.899 1.49h-2.555"/><path d="m60.889 13.73c1.647 0 2.919-.39 3.813-1.19.894-.79 1.349-2.2 1.349-4.21-.017-1.97-.472-3.35-1.396-4.17-.926-.8-2.181-1.21-3.766-1.21-1.584 0-2.839.41-3.763 1.21-.926.82-1.381 2.2-1.396 4.17 0 2.01.455 3.42 1.349 4.21.892.8 2.164 1.19 3.81 1.19m2.526-5.4c0 1.21-.203 2.06-.612 2.56-.391.52-1.035.75-1.914.75-.893-.001-1.535-.26-1.943-.75-.409-.49-.612-1.33-.612-2.56 0-1.2.218-2.05.627-2.54.408-.5 1.05-.73 1.928-.73.879 0 1.506.23 1.914.73.409.49.612 1.34.612 2.54"/><path d="m83.49 5.39h2.055c.674 0 1.364-.32 1.364-1.65 0-.16-.015-.35-.047-.5h-7.982c-.676 0-1.366.31-1.366 1.64 0 .16.016.35.048.51h3.373v8.31c.188.03.406.04.626.04 1.568 0 1.929-.45 1.929-1.27v-7.08"/><path d="m131.06 10.7c0-1.73-1.18-2.57-3.06-2.96l-2.71-.71c-.6-.13-1.1-.3-1.1-.87 0-.62.52-.86 1.9-.86.99 0 1.42.12 2.9.12.69 0 1.39-.3 1.39-1.58 0-.16-.02-.34-.06-.5-.99-.07-2.19-.2-4.38-.2-3.31 0-4.58 1.36-4.58 3.1 0 1.63 1.09 2.53 3 2.96l2.7.72c.77.18 1.19.49 1.19.95 0 .62-.38.86-1.76.86-1.16 0-2-.11-3.48-.11-.68 0-1.38.3-1.38 1.58 0 .16.02.33.05.49 1 .09 2.76.2 4.96.2 3.31 0 4.42-1.34 4.42-3.19"/><path d="m91.03 13.76c.232.03.392.05.612.05 1.582 0 1.932-.46 1.932-1.28v-2.09h2.74c2.92 0 4.381-1.27 4.381-3.64 0-2.29-1.461-3.51-4.211-3.51h-3.779c-1.264 0-1.675.41-1.675 1.53v8.94m2.544-5.63v-2.77h2.63c1.28 0 1.91.41 1.91 1.34 0 1-.63 1.43-1.91 1.43h-2.63"/><path d="m112.93 9.04c0 2.25 1.29 2.74 2.45 2.74 1.15 0 2.3-.53 2.3-2.62v-4.79c0-1.54 2.05-1.1 2.73-1v5.39c0 1.94-.44 5.06-5.03 5.06-4.82 0-5.07-3.43-5.07-5v-4.37c0-1.64 2.02-1.22 2.61-1.1l.001 5.69"/><path d="m103.32 13.74c-.3 0-.54-.001-.73-.08-.19-.06-.33-.14-.43-.25-.11-.11-.21-.25-.25-.41-.03-.16-.09-.33-.09-.51v-8.08c0-.31.13-.57.33-.79.19-.22.57-.33 1.11-.33.22 0 .5.001.72.03s.38.05.61.08v8.04h5.05c.02.23.04.27.07.44s.04.37.04.6c0 .5-.1.83-.31 1.01s-.5.25-.86.25h-5.26"/></g><path opacity=".4" d="m156.25 13.209c1.31 1.109 1.48 2.153 1.53 2.381.13 0 .17-.488.17-1.218v-11.708c0-1.357-.51-1.814-1.86-1.814-.46 0-.91.208-1.51.208h-150.43c-.608 0-1.063-.208-1.516-.208-1.342 0-1.857.457-1.857 1.814l-.004 11.709c0 .729.047 1.217.175 1.217.047-.228.085-1.354 1.53-2.381 11.532-7.617 141.34-9.954 153.77 0" stroke-width="1.976"/></g></svg>