<svg xmlns="http://www.w3.org/2000/svg" height="84.52" width="600" viewBox="0 0 158.75 22.362"><defs><linearGradient id="0" gradientUnits="userSpaceOnUse" gradientTransform="matrix(0-21.023-15.524 0 90.27 209.25)" x1="0" x2="1"><stop stop-color="#5a252a"/><stop stop-color="#cb082a" offset=".074"/><stop stop-color="#cb082a" offset=".916"/><stop stop-color="#e73440" offset="1"/></linearGradient><linearGradient id="1" gradientUnits="userSpaceOnUse" gradientTransform="matrix(0 21.376-19.538 0 92.19 188.06)" x1="0" x2="1"><stop stop-color="#141c4b"/><stop stop-color="#1a2b68" offset=".036"/><stop stop-color="#1a2b68" offset=".895"/><stop stop-color="#141c4b" offset="1"/></linearGradient></defs><g transform="translate(-12.851-187.55)"><path d="m15.706 188.24c-1.491.02-2.024.99-2.024 2.61v15.81c0 1.62.533 2.6 2.046 2.6h152.9c1.51 0 2.04-.98 2.04-2.6v-15.81c0-1.62-.53-2.59-2.02-2.61z" stroke-width="2.228" fill="url(#1)"/><path stroke-width="2.589" d="m52.57 209.26h75.37z"/><path d="m168.38 209.91c2.46 0 3.22-1.54 3.22-3.07v-16.24c0-1.53-.76-3.05-3.22-3.05h-152.31c-2.46 0-3.219 1.52-3.219 3.05v16.24c0 1.53.759 3.07 3.217 3.07h152.31m-152.2-.22c-1.659 0-2.781-.98-2.781-2.6v-16.73c0-1.63 1.122-2.61 2.781-2.61h152.09c1.66 0 2.78.98 2.78 2.61v16.73c0 1.62-1.12 2.6-2.78 2.6h-152.09" fill="#94979c"/><path d="m52.57 209.26h75.37v-21.02h-75.37z" stroke-width="2" fill="url(#0)"/><g fill="#fff"><g><path d="m152.06 197.38v-2.98c0-.81.32-1.31 1.98-1.31l.59.04v9.75c0 .8-.32 1.31-1.98 1.31l-.59-.05v-4.43h-5.18v3.17c0 .8-.32 1.31-1.98 1.31l-.59-.05v-9.74c0-.81.33-1.31 2-1.31l.57.04v4.25h5.18m14.74 1.24c0-3.31-2.38-5.55-6.33-5.55h-2.69c-1.28 0-1.59.67-1.59 1.56v8c0 .85.31 1.55 1.59 1.55h2.69c3.95 0 6.33-2.24 6.33-5.56m-8.03 3.19v-6.37h1.85c2.59 0 3.54 1.67 3.54 3.18s-.95 3.19-3.54 3.19h-1.85"/><path d="m27.21 200.73c0 1.8-1.183 3.13-3.57 3.38-1.739.19-4.248-.03-5.441-.17l-.071-.63c0-1.56.85-1.93 1.649-1.93.829 0 2.134.14 3.105.14 1.072 0 1.395-.36 1.395-.71 0-.44-.435-.63-1.264-.78l-2.266-.45c-1.891-.36-2.902-1.67-2.902-3.05 0-1.68 1.193-3.1 3.54-3.36 1.78-.19 3.934.03 5.117.18l.071.6c0 1.57-.829 1.91-1.628 1.91-.617 0-1.568-.11-2.65-.11-1.113 0-1.568.3-1.568.68 0 .39.435.55 1.133.67l2.164.41c2.226.4 3.186 1.67 3.186 3.22m3.884 1.95c0 .96-.374 1.51-2.265 1.51-.243 0-.466-.02-.668-.05v-12.81c0-.97.324-1.98 2.225-1.98.243 0 .486.02.708.07v13.26m7.717 4.95c.243.12.749.28 1.386.29 1.102.03 1.699-.39 2.134-1.37l5.876-13.11c-.243-.13-.779-.27-1.214-.28-.758-.001-1.769.14-2.417 1.69l-1.901 4.49-3.732-6.08c-.243-.08-.83-.18-1.265-.18-1.314 0-2.053.48-2.811 1.31l-3.631 3.97 2.923 4.59c.536.84 1.244 1.26 2.397 1.26.758 0 1.385-.17 1.679-.3l-3.52-5.3 2.498-2.64 4.086 6.41-2.488 5.25"/><path d="m69.3 201.18c0-2.19-1.416-3.25-3.682-3.74l-3.964-.9c-.718-.17-1.315-.38-1.315-1.11 0-.77.617-1.08 2.275-1.08 1.973 0 2.428.1 4.208.1.819 0 1.659-.37 1.659-2l-.061-.62c-1.193-.1-3.338-.22-5.977-.22-3.985 0-5.502 1.72-5.502 3.93 0 2.06 1.294 3.2 3.6 3.74l3.965.92c.92.22 1.416.61 1.416 1.2 0 .78-.698 1.08-2.357 1.08-1.962 0-2.862-.14-4.652-.14-.819 0-1.659.39-1.659 2l.061.62c1.203.12 3.782.26 6.422.26 3.985 0 5.563-1.69 5.563-4.04"/><path d="m101.99 200.3h1.65l3.22 3.82c.6.74 1.17 1.12 2.54 1.12.92 0 1.54-.12 2.04-.36l-4.16-4.82c2.33-.5 3.51-2.03 3.51-4.26 0-2.76-1.67-4.13-5.07-4.13l-4.88-.02c-1.579.06-2.089.61-2.089 2.04v11.33c.23.04.51.06.8.06 1.999 0 2.459-.57 2.459-1.62l-.02-3.16m.02-2.64v-3.35h3.14c1.35 0 2.41.2 2.41 1.61 0 1.17-.81 1.74-2.41 1.74h-3.14"/><path d="m70.74 205.02c.243.04.526.06.799.06 2 0 2.468-.57 2.468-1.62v-2.74h3.398c3.702 0 5.543-1.6 5.543-4.61 0-2.89-1.841-4.44-5.32-4.44h-4.784c-1.608 0-2.104.63-2.104 2.04v11.31m3.267-7v-3.69h3.257c1.618 0 2.427.61 2.427 1.78 0 1.27-.809 1.91-2.427 1.91h-3.257"/><path d="m90.56 205.06c2.1 0 3.72-.49 4.86-1.51 1.14-1.01 1.73-2.81 1.73-5.38-.03-2.51-.61-4.27-1.79-5.32-1.18-1.02-2.78-1.53-4.8-1.53-2.026 0-3.624.51-4.808 1.53-1.173 1.05-1.759 2.81-1.78 5.32 0 2.57.587 4.37 1.72 5.38 1.143 1.02 2.771 1.51 4.868 1.51m3.22-6.89c0 1.55-.26 2.63-.78 3.27-.5.66-1.32.96-2.44.96-1.15-.02-1.966-.34-2.481-.96-.516-.62-.779-1.7-.779-3.27 0-1.53.273-2.61.799-3.23.516-.65 1.331-.94 2.461-.94 1.12 0 1.92.29 2.44.94.52.62.78 1.7.78 3.23"/><path d="m119.4 194.41h2.62c.87 0 1.74-.39 1.74-2.1l-.05-.64h-10.19c-.86 0-1.74.41-1.74 2.11l.06.63h4.31v10.61c.23.04.51.06.79.06 2.01 0 2.46-.57 2.46-1.62v-9.05"/></g><path opacity=".4" d="m168.86 204.44c1.31 1.41 1.48 2.75 1.53 3.04.13 0 .17-.63.17-1.56v-14.95c0-1.73-.51-2.32-1.85-2.32-.46 0-.9.27-1.5.27h-150.01c-.602 0-1.055-.27-1.507-.27-1.338 0-1.851.59-1.851 2.32l-.004 14.95c0 .93.047 1.56.174 1.56.047-.29.086-1.73 1.526-3.04 11.499-9.73 140.93-12.72 153.33 0" stroke-width="2.23"/><path d="m130.99 205.13c-.05-.16-.09-.35-.13-.57-.03-.23-.05-.45-.05-.68 0-.16.02-.34.05-.55.04-.2.09-.41.18-.62.07-.22.19-.43.34-.65.15-.21.33-.41.57-.6l2.51-2.19c.45-.37.83-.68 1.13-.95.31-.27.55-.53.75-.77.19-.23.33-.46.42-.68.08-.23.11-.47.11-.73 0-.35-.11-.67-.36-.97-.24-.3-.64-.44-1.21-.44-.36 0-.67.04-.95.13s-.53.18-.76.28c-.22.1-.45.19-.64.27-.21.09-.42.13-.64.13-.2 0-.39-.06-.59-.17-.19-.1-.35-.26-.48-.46-.14-.21-.24-.45-.31-.74s-.09-.62-.05-.99c.54-.4 1.2-.75 1.94-1.03.75-.29 1.62-.43 2.64-.43.73 0 1.38.1 1.97.31.59.2 1.09.49 1.49.86.41.37.72.82.95 1.35.22.53.33 1.11.33 1.74 0 .96-.23 1.8-.73 2.52-.48.72-1.17 1.36-2.05 1.93l-2.33 1.74h5.15c.04.15.07.35.1.59.04.24.07.5.07.77 0 .61-.13 1.03-.39 1.26s-.56.34-.91.34z" stroke-width="2.289"/></g></g></svg>