<svg xmlns="http://www.w3.org/2000/svg" height="60.37" width="600" viewBox="0 0 158.75 15.973771"><defs><linearGradient id="0" gradientUnits="userSpaceOnUse" gradientTransform="matrix(0-15.029-23.884 0 91.45 15.502)" x1="0" x2="1"><stop stop-color="#5a252a"/><stop stop-color="#cb082a" offset=".074"/><stop stop-color="#cb082a" offset=".916"/><stop stop-color="#e73440" offset="1"/></linearGradient><linearGradient id="1" gradientUnits="userSpaceOnUse" x2="0" y1=".352" y2="15.633"><stop stop-color="#141c4b"/><stop stop-color="#1a2b68" offset=".036"/><stop stop-color="#1a2b68" offset=".895"/><stop stop-color="#141c4b" offset="1"/></linearGradient></defs><path d="m2.167.472c-1.166.012-1.583.708-1.583 1.863v11.302c0 1.164.417 1.864 1.6 1.864h154.3c1.18 0 1.61-.699 1.61-1.863v-11.302c0-1.163-.43-1.863-1.61-1.863z" stroke-width="1.333" fill="url(#1)"/><path d="m28.359.472v15.03s75.8 0 107.68 0v-15.03c-35.3 0-107.68 0-107.68 0" stroke-width="1.68" fill="url(#0)"/><path d="m2.297 0c-1.76 0-2.297 1.095-2.297 2.188v11.6c0 1.093.536 2.186 2.296 2.186h154.15c1.77 0 2.3-1.093 2.3-2.188v-11.599c0-1.094-.53-2.187-2.3-2.187-50.95 0-107.87 0-154.15 0zm.078.147c50.864 0 107.72 0 154 0 1.19 0 1.99.698 1.99 1.863v11.954c0 1.164-.8 1.863-1.99 1.863.08.147-154 0-154 0-1.18 0-1.981-.7-1.981-1.863v-11.955c0-1.163.801-1.862 1.986-1.862z" stroke-width="1.333" fill="#a1a19e"/><g fill="#fff"><path d="m144.73 7.02v-2.122c0-.575.23-.941 1.41-.941.15 0 .28.011.42.032v6.962c0 .572-.23.938-1.42.938-.14 0-.27-.011-.41-.032v-3.161h-3.7v2.255c0 .572-.23.938-1.42.938-.14 0-.27-.011-.42-.032v-6.959c0-.575.23-.941 1.42-.941.15 0 .27.011.42.032v3.03zm10.53.893c0-2.365-1.71-3.968-4.53-3.968h-1.91c-.92 0-1.15.484-1.15 1.121v5.71c0 .61.23 1.107 1.15 1.107h1.91c2.82 0 4.53-1.604 4.53-3.97m-5.75 2.271v-4.541h1.33c1.85 0 2.52 1.195 2.52 2.27 0 1.077-.67 2.271-2.52 2.271z" stroke-width="1.333"/><path stroke-width="1.666" d="m10.265 9.425c0 1.287-.842 2.227-2.55 2.413-1.238.132-3.03-.023-3.881-.121-.032-.14-.057-.312-.057-.449 0-1.126.61-1.383 1.18-1.383.591 0 1.524.103 2.218.103.763 0 .994-.259.994-.505 0-.323-.308-.458-.899-.571l-1.62-.312c-1.349-.259-2.069-1.191-2.069-2.181 0-1.203.851-2.211 2.527-2.396 1.266-.138 2.808.017 3.654.122.032.145.047.282.047.433 0 1.121-.591 1.365-1.162 1.365-.438 0-1.118-.083-1.894-.083-.79 0-1.118.22-1.118.487 0 .28.311.396.806.481l1.549.288c1.591.293 2.273 1.198 2.273 2.309m2.778 1.381c0 .69-.269 1.089-1.617 1.089-.179 0-.333-.014-.483-.035v-9.154c0-.695.236-1.421 1.596-1.421.172 0 .345.018.504.052zm5.508 3.541c.176.092.539.2.996.213.781.018 1.207-.282 1.525-.982l4.197-9.362c-.174-.094-.558-.197-.872-.205-.539-.008-1.263.102-1.726 1.206l-1.358 3.208-2.666-4.342c-.171-.052-.592-.128-.9-.128-.939 0-1.466.347-2.01.94l-2.592 2.834 2.085 3.28c.385.597.893.902 1.718.902.538 0 .988-.122 1.194-.222l-2.509-3.784 1.78-1.884 2.917 4.579z"/><g stroke-width="1.333"><path d="m104.09 12.231c-.27 0-.49-.014-.66-.072s-.3-.131-.39-.232-.18-.221-.22-.366c-.03-.146-.08-.297-.08-.46v-7.279c0-.28.12-.518.29-.717.18-.197.52-.297 1-.297.21 0 .46.009.66.029.19.019.34.043.55.072v7.245h4.54c.02.207.04.246.07.401.02.154.04.33.04.534 0 .453-.1.748-.29.912s-.44.23-.77.23z"/><path d="m121.21 12.319c-.21 0-.41-.009-.61-.029-.2-.019-.37-.043-.5-.072v-8.395c0-.28.09-.52.26-.717.18-.199.5-.297.99-.297.2 0 .4.009.6.028.19.02.36.044.5.073v8.395c0 .28-.09.518-.26.717-.17.198-.5.298-.98.298"/><path d="m128.42 12.439c1.46 0 2.59-.349 3.39-1.058.8-.702 1.2-1.954 1.2-3.739-.001-1.757-.42-2.986-1.24-3.712-.83-.708-1.94-1.073-3.35-1.073s-2.52.365-3.34 1.073c-.83.726-1.23 1.955-1.25 3.712 0 1.785.41 3.037 1.2 3.739.8.709 1.93 1.058 3.39 1.058m2.25-4.797c0 1.073-.18 1.826-.55 2.271-.34.46-.92.669-1.7.669-.79-.012-1.37-.235-1.73-.669-.36-.431-.54-1.182-.54-2.271 0-1.075.2-1.827.55-2.262.37-.447.94-.653 1.72-.653s1.34.207 1.7.653c.37.435.55 1.186.55 2.262"/><path d="m98.4 8.149l-.918-2.896c-.115-.391-.339-.373-.765-.327l-.984 3.221zm-6.329 4.02l3.02-9.181c2.631-.496 3.992-.059 4.356 1.11l2.537 7.937c-.61.485-2.273.346-2.446-.174l-.526-1.667h-3.883l-.442 1.447c-.277.676-.983.919-2.618.527"/><path d="m91.26 3.145c-.682-.156-1.506-.428-3.197-.428-3.01 0-5.341 2.079-5.341 4.812 0 2.7 2.17 4.871 5.341 4.871 2.133 0 3.279-.429 3.279-.429 0-.659-.013-1.824-.965-1.824-.464 0-.653.17-2.033.17-1.276 0-3.085-.826-3.085-2.779 0-1.565 1.37-2.716 3.085-2.716 1.089 0 1.356.167 1.93.167.867 0 1.068-.91.986-1.843"/><path d="m118.5 3.145c-.68-.156-1.51-.428-3.2-.428-3.01 0-5.34 2.079-5.34 4.812 0 2.7 2.17 4.871 5.34 4.871 2.14 0 3.28-.429 3.28-.429 0-.659-.001-1.824-.96-1.824-.47 0-.66.17-2.04.17-1.27 0-3.08-.826-3.08-2.779 0-1.565 1.37-2.716 3.08-2.716 1.09 0 1.36.167 1.93.167.87 0 1.07-.91.99-1.843"/></g><g stroke-width="1.666"><path d="m40.32 9.742c0-1.558-1.015-2.316-2.631-2.674l-2.831-.643c-.515-.113-.945-.271-.945-.786 0-.558.446-.771 1.632-.771 1.401 0 1.729.072 3 .072.587 0 1.186-.272 1.186-1.43 0-.143-.013-.301-.041-.445-.858-.07-2.39-.157-4.275-.157-2.847 0-3.932 1.23-3.932 2.802 0 1.473.929 2.288 2.572 2.674l2.831.659c.657.156 1.016.443 1.016.856 0 .558-.5.773-1.688.773-1.399 0-2.044-.1-3.317-.1-.585 0-1.186.271-1.186 1.429 0 .144.014.3.043.444.858.085 2.702.184 4.589.184 2.845 0 3.975-1.214 3.975-2.887"/><path d="m51.16 12.488c.172.028.372.042.572.042 1.431 0 1.759-.413 1.759-1.157v-1.96h2.429c2.646 0 3.961-1.143 3.961-3.289 0-2.073-1.315-3.174-3.803-3.174h-3.417c-1.144 0-1.501.443-1.501 1.46zm2.331-5v-2.631h2.329c1.16 0 1.731.428 1.731 1.271 0 .901-.571 1.36-1.731 1.36z"/></g><path d="m45.729 12.53c-.631 0-1.196-.108-1.696-.323-.497-.215-.917-.51-1.262-.884-.346-.373-.608-.806-.791-1.299-.18-.493-.271-1.022-.271-1.587v-4.481c0-.278.085-.515.257-.711.174-.196.499-.295.976-.295.203 0 .4.001.597.029s.362.043.494.072v5.4c0 .623.154 1.108.462 1.458.306.349.723.524 1.248.524.517 0 .934-.175 1.251-.524.314-.349.474-.835.474-1.458v-4.495c0-.278.085-.514.257-.711.171-.196.497-.294.976-.294.203 0 .397.001.589.029.191.019.354.043.488.072v5.386c0 .565-.097 1.094-.294 1.587-.197.493-.466.926-.811 1.299-.346.374-.765.669-1.265.884-.497.215-1.057.323-1.679.323" stroke-width=".286"/><path d="m63.64 10.657v-1.843h3.438c.815 0 1.264-.291 1.264-1.335 0-.247-.03-.493-.073-.654h-4.629v-1.9h3.541c.812 0 1.261-.29 1.261-1.336 0-.247-.027-.492-.073-.653h-5.295c-1.509 0-1.801.8-1.801 1.583v8.127h6.111c.812 0 1.261-.291 1.261-1.336 0-.246-.027-.493-.071-.652h-4.915z" stroke-width=".271"/><path stroke-width="1.666" d="m72.35 9.112h1.186l2.291 2.731c.429.528.843.802 1.816.802.656 0 1.1-.087 1.456-.259l-2.975-3.445c1.674-.357 2.517-1.445 2.517-3.046 0-1.973-1.203-2.944-3.632-2.944l-3.474-.015c-1.128.043-1.501.428-1.501 1.458v8.092c.172.028.373.044.572.044 1.429 0 1.759-.415 1.759-1.159zm.015-1.887v-2.386h2.244c.958 0 1.716.142 1.716 1.143 0 .843-.571 1.243-1.716 1.243z"/><path opacity=".4" d="m156.28 12.04c1.31 1.01 1.48 1.961 1.53 2.169.13 0 .17-.444.17-1.109v-10.669c0-1.236-.51-1.653-1.85-1.653-.46 0-.91.19-1.51.19h-150.53c-.609 0-1.064-.19-1.517-.19-1.343 0-1.858.417-1.858 1.653l-.004 10.669c0 .665.047 1.11.175 1.11.047-.208.086-1.235 1.531-2.17 11.539-6.941 141.42-9.07 153.86 0" stroke-width="1.887"/></g></svg>