<?xml version="1.0" encoding="UTF-8" standalone="no"?>
<svg xmlns:rdf="http://www.w3.org/1999/02/22-rdf-syntax-ns#" xmlns="http://www.w3.org/2000/svg" xmlns:cc="http://creativecommons.org/ns#" xmlns:dc="http://purl.org/dc/elements/1.1/" height="68.95" width="600" version="1.1" viewBox="0 0 600 68.95018">
  <path stroke-width=".29297" fill="#0e2d6d" d="m125.68 0.000879h-119.42c-3.4425 0-6.26 2.8177-6.26 6.2621v56.428c0 3.444 2.8175 6.259 6.263 6.259l119.42-0.008v-68.941z"/>
  <linearGradient id="h" y2="115.93" gradientUnits="userSpaceOnUse" y1="4.953" gradientTransform="matrix(.29297 0 0 .29297 -.00059 0)" x2="222.92" x1="222.92">
    <stop stop-color="#fff" offset="0"/>
    <stop stop-color="#E7ECF5" offset=".039"/>
    <stop stop-color="#BACAE3" offset=".122"/>
    <stop stop-color="#93ACD3" offset=".21"/>
    <stop stop-color="#7293C6" offset=".303"/>
    <stop stop-color="#577EBB" offset=".403"/>
    <stop stop-color="#426EB3" offset=".51"/>
    <stop stop-color="#3363AD" offset=".631"/>
    <stop stop-color="#2B5CA9" offset=".774"/>
    <stop stop-color="#285AA8" offset="1"/>
  </linearGradient>
  <path opacity=".8" d="m125.68 1.4511h-120.75s2.6394 14.225 19.292 26.152c0 0 8.525 6.417 14.078 6.36h87.39v-32.514z" stroke-width=".29297" fill="url(#h)"/>
  <linearGradient id="g" gradientUnits="userSpaceOnUse" y1="235.32" gradientTransform="matrix(.29297 0 0 .29297 -.00059 0)" x2="935.88" x1="935.88" y2="0">
    <stop stop-color="#D82232" offset="0"/>
    <stop stop-color="#D22131" offset=".178"/>
    <stop stop-color="#C21E2D" offset=".414"/>
    <stop stop-color="#A61A27" offset=".681"/>
    <stop stop-color="#80141E" offset=".97"/>
    <stop stop-color="#7C131D" offset="1"/>
  </linearGradient>
  <path stroke-width=".29297" fill="url(#g)" d="m125.68 68.941 296.98-0.003v-68.938h-296.98z"/>
  <linearGradient id="f" y2="115.93" gradientUnits="userSpaceOnUse" y1="4.953" gradientTransform="matrix(.29297 0 0 .29297 -.00059 0)" x2="935.88" x1="935.88">
    <stop stop-color="#fff" offset="0"/>
    <stop stop-color="#FAE1E3" offset=".048"/>
    <stop stop-color="#F2B4BA" offset=".13"/>
    <stop stop-color="#EB8D95" offset=".217"/>
    <stop stop-color="#E56C76" offset=".31"/>
    <stop stop-color="#E0515D" offset=".408"/>
    <stop stop-color="#DD3C4A" offset=".515"/>
    <stop stop-color="#DA2D3C" offset=".634"/>
    <stop stop-color="#D82534" offset=".776"/>
    <stop stop-color="#D82232" offset="1"/>
  </linearGradient>
  <path opacity=".8" d="m125.68 1.4511h296.98v32.511h-296.98z" stroke-width=".29297" fill="url(#f)"/>
  <path stroke-width=".29297" fill="#0e2d6d" d="m422.66 0h171.3c3.23 0 6.04 2.8195 6.04 6.263v56.419c0 3.444-2.82 6.259-6.26 6.259l-171.06-0.008v-68.932z"/>
  <linearGradient id="e" x1="-8.137" gradientUnits="userSpaceOnUse" y1="4.957" gradientTransform="matrix(-.29297 0 0 .29297 506.49 0)" x2="-8.137" y2="115.93">
    <stop stop-color="#fff" offset="0"/>
    <stop stop-color="#E7ECF5" offset=".039"/>
    <stop stop-color="#BACAE3" offset=".122"/>
    <stop stop-color="#93ACD3" offset=".21"/>
    <stop stop-color="#7293C6" offset=".303"/>
    <stop stop-color="#577EBB" offset=".403"/>
    <stop stop-color="#426EB3" offset=".51"/>
    <stop stop-color="#3363AD" offset=".631"/>
    <stop stop-color="#2B5CA9" offset=".774"/>
    <stop stop-color="#285AA8" offset="1"/>
  </linearGradient>
  <path opacity=".8" d="m422.66 1.4522h172.39s-2.64 14.224-19.29 26.152c0 0-8.52 6.416-14.08 6.359h-139.02v-32.51z" stroke-width=".29297" fill="url(#e)"/>
  <path stroke-width=".29297" fill="#fff" d="m460.1 10.093 7.49 50.335h-13.38l-0.7-9.049h-4.68l-0.79 9.049h-13.53l6.67-50.335h18.96zm-6.94 32.364c-0.66-5.702-1.33-12.748-2-21.142-1.33 9.639-2.16 16.686-2.51 21.142h4.53zm43.62-17.13h-12.15v-3.732c0-1.74-0.16-2.849-0.47-3.326s-0.83-0.714-1.56-0.714c-0.78 0-1.38 0.32-1.78 0.963-0.41 0.644-0.61 1.618-0.61 2.925 0 1.678 0.23 2.944 0.68 3.795 0.44 0.85 1.67 1.877 3.7 3.078 5.83 3.459 9.5 6.296 11.01 8.514s2.27 5.793 2.27 10.725c0 3.586-0.42 6.228-1.26 7.927-0.84 1.701-2.46 3.125-4.87 4.275-2.4 1.152-5.2 1.726-8.39 1.726-3.5 0-6.49-0.664-8.97-1.989-2.48-1.327-4.1-3.016-4.86-5.068-0.77-2.052-1.16-4.964-1.16-8.736v-3.296h12.16v6.126c0 1.885 0.17 3.098 0.51 3.636 0.35 0.54 0.95 0.808 1.82 0.808s1.52-0.341 1.95-1.026c0.42-0.683 0.63-1.698 0.63-3.046 0-2.964-0.4-4.902-1.21-5.814-0.83-0.911-2.87-2.434-6.12-4.571-3.26-2.154-5.41-3.72-6.47-4.694s-1.93-2.32-2.63-4.041c-0.69-1.72-1.04-3.917-1.04-6.591 0-3.855 0.49-6.674 1.48-8.457 0.98-1.781 2.57-3.176 4.77-4.182 2.2-1.0042 4.85-1.5072 7.96-1.5072 3.4 0 6.29 0.5499 8.69 1.6482 2.39 1.099 3.98 2.481 4.76 4.15 0.77 1.668 1.16 4.505 1.16 8.504v1.991zm33.2-15.234v50.335h-13.09v-21.142h-3.92v21.142h-13.09v-50.335h13.09v18h3.92v-18h13.08zm2.75 0h21.82v10.072h-8.73v9.545h8.17v9.576h-8.17v11.068h9.6v10.073h-22.69v-50.334zm52.79 15.234h-12.15v-3.732c0-1.74-0.16-2.849-0.47-3.326s-0.83-0.714-1.56-0.714c-0.78 0-1.38 0.32-1.78 0.963-0.41 0.644-0.61 1.618-0.61 2.925 0 1.678 0.23 2.944 0.68 3.795 0.44 0.85 1.67 1.877 3.7 3.078 5.83 3.459 9.5 6.296 11.01 8.514s2.27 5.793 2.27 10.725c0 3.586-0.42 6.228-1.26 7.927-0.84 1.701-2.46 3.125-4.86 4.275-2.41 1.152-5.21 1.726-8.4 1.726-3.5 0-6.49-0.664-8.97-1.989-2.47-1.327-4.1-3.016-4.86-5.068-0.77-2.052-1.15-4.964-1.15-8.736v-3.296h12.15v6.126c0 1.885 0.17 3.098 0.52 3.636 0.34 0.54 0.94 0.808 1.81 0.808s1.52-0.341 1.95-1.026c0.42-0.683 0.63-1.698 0.63-3.046 0-2.964-0.4-4.902-1.21-5.814-0.83-0.911-2.87-2.434-6.12-4.571-3.26-2.154-5.41-3.72-6.47-4.694s-1.93-2.32-2.63-4.041c-0.69-1.72-1.04-3.917-1.04-6.591 0-3.855 0.49-6.674 1.48-8.457 0.98-1.781 2.57-3.176 4.77-4.182 2.2-1.0042 4.85-1.5072 7.96-1.5072 3.4 0 6.29 0.5499 8.69 1.6482 2.39 1.099 3.98 2.481 4.75 4.15 0.78 1.668 1.17 4.505 1.17 8.504v1.991zm-502.51 38.707c0.82 0.421 2.485 0.922 4.572 0.978 3.594 0.077 5.549-1.298 7.001-4.519l19.259-42.96c-0.79-0.423-2.56-0.898-3.99-0.926-2.48-0.052-5.81 0.45-7.92 5.524l-6.238 14.713-12.233-19.919c-0.793-0.238-2.721-0.581-4.123-0.581-4.332 0-6.736 1.584-9.246 4.306l-11.888 13.001 9.562 15.056c1.77 2.748 4.096 4.148 7.874 4.148 2.484 0 4.546-0.578 5.495-1.028l-11.519-17.359 8.164-8.666 13.396 21.029-8.174 17.203zm-25.268-16.251c0 3.17-1.243 4.996-7.424 4.996-0.82 0-1.532-0.056-2.22-0.162v-42.003c0-3.1967 1.083-6.5265 7.318-6.5265 0.794 0 1.585 0.0805 2.326 0.2379v43.459zm-12.753-6.337c0 5.917-3.857 10.224-11.705 11.07-5.68 0.608-13.896-0.106-17.805-0.556-0.134-0.634-0.239-1.425-0.239-2.06 0-5.153 2.774-6.339 5.389-6.339 2.722 0 7.003 0.473 10.173 0.473 3.513 0 4.57-1.19 4.57-2.325 0-1.481-1.4-2.085-4.122-2.614l-7.45-1.427c-6.183-1.19-9.485-5.47-9.485-10.014 0-5.52 3.909-10.145 11.599-10.989 5.812-0.634 12.892 0.078 16.778 0.554 0.131 0.661 0.21 1.294 0.21 1.981 0 5.153-2.721 6.263-5.337 6.263-2.008 0-5.124-0.371-8.692-0.371-3.621 0-5.126 1.005-5.126 2.219 0 1.294 1.427 1.822 3.7 2.218l7.107 1.322c7.292 1.344 10.435 5.493 10.435 10.593zm135.34 2.859c0-7.395-4.82-10.992-12.48-12.687l-13.44-3.051c-2.44-0.543-4.47-1.29-4.47-3.732 0-2.646 2.1-3.662 7.73-3.662 6.65 0 8.21 0.338 14.25 0.338 2.78 0 5.63-1.29 5.63-6.783 0-0.68-0.07-1.426-0.2-2.105-4.08-0.337-11.33-0.746-20.29-0.746-13.5 0-18.66 5.835-18.66 13.297 0 6.988 4.41 10.858 12.22 12.687l13.43 3.12c3.12 0.744 4.81 2.103 4.81 4.07 0 2.647-2.37 3.664-8 3.664-6.65 0-9.7-0.473-15.74-0.473-2.78 0-5.63 1.285-5.63 6.782 0 0.678 0.07 1.423 0.2 2.103 4.08 0.404 12.83 0.882 21.78 0.882 13.5 0 18.86-5.766 18.86-13.702zm110.85-11.941v-11.327h10.65c4.55 0 8.14 0.676 8.14 5.425 0 4-2.71 5.903-8.14 5.903h-10.67zm-0.07 8.956h5.63l10.87 12.957c2.03 2.509 4 3.8 8.61 3.8 3.12 0 5.23-0.406 6.92-1.223l-14.12-16.346c7.94-1.695 11.94-6.854 11.94-14.451 0-9.362-5.7-13.975-17.23-13.975l-16.48-0.067c-5.36 0.203-7.13 2.033-7.13 6.919v38.396c0.81 0.136 1.77 0.2 2.72 0.2 6.78 0 8.34-1.963 8.34-5.491l-0.09-10.723zm-94.84-7.734v-12.484h11.06c5.49 0 8.21 2.036 8.21 6.04 0 4.275-2.72 6.444-8.21 6.444h-11.06zm-11.06 23.745c0.82 0.135 1.77 0.2 2.72 0.2 6.78 0 8.34-1.964 8.34-5.492v-9.295h11.53c12.55 0 18.79-5.426 18.79-15.602 0-9.837-6.24-15.061-18.04-15.061h-16.22c-5.42 0-7.12 2.103-7.12 6.919v38.335zm78.09-23.203c0 5.227-0.88 8.885-2.65 11.058-1.69 2.237-4.48 3.256-8.28 3.256-3.86-0.069-6.64-1.153-8.41-3.256-1.76-2.103-2.64-5.766-2.64-11.058 0-5.223 0.95-8.886 2.71-10.991 1.77-2.17 4.55-3.187 8.34-3.187 3.8 0 6.52 1.017 8.28 3.187 1.77 2.106 2.65 5.769 2.65 10.991zm-10.93 23.337c7.12 0 12.62-1.694 16.49-5.155 3.86-3.394 5.84-9.501 5.84-18.182-0.08-8.546-2.04-14.518-6.04-18.046-4.01-3.46-9.43-5.222-16.29-5.222-6.85 0-12.28 1.762-16.28 5.222-4 3.528-5.97 9.5-6.04 18.046 0 8.681 1.97 14.788 5.84 18.182 3.86 3.463 9.35 5.156 16.48 5.156zm97.75-36.088h8.89c2.92 0 5.9-1.358 5.9-7.127 0-0.676-0.07-1.491-0.2-2.169h-34.53c-2.92 0-5.9 1.358-5.9 7.122 0 0.681 0.06 1.492 0.2 2.174h14.59v35.953c0.81 0.135 1.76 0.2 2.71 0.2 6.78 0 8.34-1.964 8.34-5.492v-30.659zm58.16 22.928c0-7.395-4.82-10.992-12.49-12.687l-13.43-3.051c-2.44-0.543-4.48-1.29-4.48-3.732 0-2.646 2.1-3.662 7.73-3.662 6.66 0 8.22 0.338 14.25 0.338 2.79 0 5.63-1.29 5.63-6.783 0-0.68-0.06-1.426-0.2-2.105-4.07-0.337-11.33-0.746-20.28-0.746-13.5 0-18.66 5.835-18.66 13.297 0 6.988 4.41 10.858 12.21 12.687l13.43 3.12c3.13 0.744 4.82 2.103 4.82 4.07 0 2.647-2.38 3.664-8 3.664-6.65 0-9.7-0.473-15.75-0.473-2.78 0-5.62 1.285-5.62 6.782 0 0.678 0.06 1.423 0.2 2.103 4.07 0.404 12.82 0.882 21.78 0.882 13.53 0 18.89-5.766 18.89-13.702z"/>
</svg>
