<svg xmlns="http://www.w3.org/2000/svg" height="72.77" width="600" viewBox="0 0 158.75 19.253982"><defs><linearGradient id="0" gradientUnits="userSpaceOnUse" gradientTransform="matrix(0-18.133-18.075 0 66.64 18.684)" x1="0" x2="1"><stop stop-color="#562228"/><stop stop-color="#c51e2c" offset=".074"/><stop stop-color="#c51e2c" offset=".911"/><stop stop-color="#e83c4c" offset="1"/></linearGradient><linearGradient id="1" gradientUnits="userSpaceOnUse" gradientTransform="matrix(0 18.438-18.425 0 18.2.405)" x1="0" x2="1"><stop stop-color="#1e2546"/><stop stop-color="#223362" offset=".036"/><stop stop-color="#223362" offset=".895"/><stop stop-color="#1e2546" offset="1"/></linearGradient></defs><path d="m155.98 19.254c2.12 0 2.77-1.318 2.77-2.636v-13.982c0-1.318-.65-2.636-2.77-2.636h-153.21c-2.124 0-2.77 1.318-2.77 2.636v13.982c0 1.318.646 2.636 2.767 2.636h153.21m-153.12-.177c-1.428 0-2.394-.843-2.394-2.245v-14.409c0-1.403.965-2.246 2.394-2.246h153.02c1.43 0 2.4.842 2.4 2.245v14.409c0 1.402-.97 2.245-2.4 2.245h-153.02" fill="#939696"/><path d="m99.1 18.684v-18.11h56.913c1.43 0 1.94.844 1.94 2.246v13.623c0 1.404-.51 2.246-1.94 2.246h-56.913" fill="#181817"/><path stroke-width="2.735" fill="url(#1)" d="m2.613.569c-1.367 0-1.914.848-1.914 2.244v13.627c0 1.423.547 2.244 1.914 2.244h32.813v-18.11z"/><path stroke-width="2.732" fill="url(#0)" d="m34.18 18.684h64.914v-18.11h-64.914z"/><path d="m102.09 15.12l8.2-11.596h8.49c0 0-1.63 3.03-6.12 3.01l-1.53 2.136 2.96.119-2.16 3.048-3.03.038-2.27 3.242z" fill="#fff"/><path d="m116.29 11.76l5.87-8.239 9.98.343-8.92.458 8.24.458-8.88.343 8.31.42-8.77.42 8.2.42-8.85.381 8.28.496-8.85.344 8.2.344-8.81.457 8.35.382-8.81.457 8.16.343-8.73.421 8.01.381-8.62.457 8.12.42-6.84.45 6.23.517-5.68.329 5.11.458-5.76.343 5.08.458-5.67.382 5.16.458-7.28.457 2.39-3.343z" fill="#ec2432"/><g fill="#fff"><path d="m141.98 8.463v-2.558c0-.693.28-1.133 1.71-1.133.18 0 .33.011.51.038v8.392c0 .69-.28 1.131-1.71 1.131-.18 0-.33-.013-.51-.039v-3.81h-4.45v2.718c0 .69-.28 1.131-1.71 1.131-.18 0-.33-.013-.51-.039v-8.389c0-.693.28-1.133 1.71-1.133.18 0 .33.011.51.038v3.653zm12.69 1.077c0-2.85-2.05-4.784-5.45-4.784h-2.31c-1.11 0-1.37.584-1.37 1.351v6.884c0 .736.26 1.334 1.37 1.334h2.31c3.4 0 5.45-1.933 5.45-4.785m-6.92 2.737v-5.473h1.6c2.23 0 3.04 1.442 3.04 2.736 0 1.298-.81 2.737-3.04 2.737z"/><path opacity=".4" d="m97.5 14.511c1.226 1.216 1.557 2.364 1.596 2.616v-15.963h-95.06c-.571 0-.998-.227-1.427-.227-1.266 0-1.749.503-1.749 1.99l-.006 12.861c0 .801.044 1.34.164 1.34.046-.252.082-1.49 1.443-2.617 10.874-8.367 83.31-10.933 95.04 0" stroke-width="2.733"/><g><path d="m12.359 11.362c0 1.55-1.015 2.683-3.073 2.907-1.492.16-3.652-.028-4.678-.147-.037-.167-.068-.375-.068-.538 0-1.359.734-1.668 1.421-1.668.713 0 1.837.124 2.674.124.918 0 1.198-.312 1.198-.608 0-.391-.371-.552-1.085-.689l-1.953-.375c-1.626-.311-2.493-1.436-2.493-2.63 0-1.451 1.026-2.665 3.045-2.888 1.527-.165 3.385.021 4.404.146.039.175.058.341.058.523 0 1.352-.713 1.644-1.401 1.644-.528 0-1.348-.099-2.283-.099-.953 0-1.348.264-1.348.585 0 .339.377.479.973.583l1.867.346c1.918.354 2.74 1.443 2.74 2.784m3.35 1.664c0 .833-.326 1.312-1.949 1.312-.215 0-.404-.015-.584-.041v-11.04c0-.837.285-1.712 1.925-1.712.206 0 .415.022.608.062v11.415m6.638 4.269c.213.109.65.241 1.2.256.942.02 1.457-.342 1.838-1.185l5.059-11.285c-.209-.112-.67-.237-1.049-.245-.65-.012-1.523.121-2.082 1.452l-1.638 3.866-3.213-5.233c-.208-.064-.712-.154-1.084-.154-1.133 0-1.768.418-2.426 1.131l-3.123 3.417 2.512 3.955c.464.719 1.077 1.086 2.07 1.086.65 0 1.192-.148 1.442-.267l-3.02-4.561 2.144-2.272 3.517 5.52-2.142 4.519"/><path d="m48.601 11.743c0-1.878-1.223-2.793-3.171-3.223l-3.413-.776c-.62-.138-1.137-.327-1.137-.948 0-.672.535-.93 1.964-.93 1.689 0 2.086.085 3.62.085.707 0 1.43-.327 1.43-1.723 0-.173-.017-.363-.051-.535-1.035-.086-2.879-.19-5.153-.19-3.429 0-4.74 1.482-4.74 3.378 0 1.775 1.121 2.759 3.102 3.223l3.412.793c.793.189 1.224.534 1.224 1.034 0 .672-.603.931-2.033.931-1.689 0-2.464-.121-3.998-.121-.707 0-1.431.327-1.431 1.723 0 .173.018.362.052.535 1.034.102 3.258.224 5.531.224 3.43 0 4.792-1.465 4.792-3.482"/><path d="m76.74 10.985h1.431l2.76 3.291c.516.638 1.017.966 2.189.966.793 0 1.327-.103 1.757-.311l-3.587-4.153c2.02-.43 3.03-1.74 3.03-3.671 0-2.378-1.448-3.55-4.377-3.55l-4.187-.017c-1.362.052-1.811.517-1.811 1.759v9.753c.207.035.449.051.691.051 1.722 0 2.119-.499 2.119-1.395l-.018-2.723m.018-2.275v-2.877h2.705c1.155 0 2.069.171 2.069 1.378 0 1.016-.69 1.499-2.069 1.499h-2.705"/><path d="m49.841 15.05c.207.034.449.05.69.05 1.723 0 2.12-.498 2.12-1.395v-2.361h2.929c3.189 0 4.773-1.379 4.773-3.964 0-2.499-1.584-3.826-4.583-3.826h-4.119c-1.379 0-1.81.534-1.81 1.758v9.738m2.81-6.03v-3.171h2.809c1.396 0 2.086.517 2.086 1.534 0 1.087-.69 1.637-2.086 1.637h-2.809"/><path d="m66.903 15.09c1.809 0 3.205-.431 4.188-1.31.982-.862 1.483-2.413 1.483-4.619-.019-2.171-.518-3.688-1.535-4.584-1.017-.879-2.394-1.326-4.136-1.326-1.741 0-3.12.447-4.136 1.326-1.017.896-1.517 2.414-1.534 4.584 0 2.206.499 3.757 1.482 4.619.981.879 2.378 1.31 4.188 1.31m2.775-5.929c0 1.328-.224 2.258-.673 2.809-.43.569-1.137.828-2.102.828-.983-.019-1.688-.293-2.137-.828-.447-.534-.672-1.465-.672-2.809 0-1.327.241-2.257.689-2.792.449-.551 1.155-.81 2.12-.81s1.654.258 2.102.81c.449.535.673 1.465.673 2.792"/><path d="m91.74 5.919h2.257c.741 0 1.499-.345 1.499-1.811 0-.171-.016-.379-.051-.55h-8.772c-.741 0-1.5.345-1.5 1.809 0 .173.018.379.053.553h3.704v9.133c.208.035.449.052.691.052 1.721 0 2.119-.499 2.119-1.396v-7.789"/></g></g></svg>