<svg xmlns="http://www.w3.org/2000/svg" height="78.14" width="600" viewBox="0 0 158.75 20.674089"><defs><linearGradient id="0" gradientUnits="userSpaceOnUse" gradientTransform="matrix(0 74.728-87.358 0 353.86 1.701)" x1="0" x2="1"><stop stop-color="#141c4b"/><stop stop-color="#1a2b68" offset=".036"/><stop stop-color="#1a2b68" offset=".895"/><stop stop-color="#141c4b" offset="1"/></linearGradient><linearGradient id="1" gradientUnits="userSpaceOnUse" gradientTransform="matrix(0-19.446-24.97 0 97.34 20.05)" x1="0" x2="1"><stop stop-color="#5a252a"/><stop stop-color="#cb082a" offset=".074"/><stop stop-color="#cb082a" offset=".916"/><stop stop-color="#e73440" offset="1"/></linearGradient></defs><path stroke-width="8.81" fill="url(#0)" d="m154.18.613h-151.04c-1.76.015-2.39.916-2.39 2.41v14.624c0 1.507.63 2.413 2.42 2.413h151.01z"/><path d="m2.97 0c-2.278 0-2.97 1.416-2.97 2.832v15.01c0 1.416.693 2.832 2.971 2.832h152.81c2.27 0 2.97-1.416 2.97-2.832v-15.01c0-1.416-.7-2.832-2.97-2.832h-152.81zm.107.189h152.6c1.53 0 2.56.908 2.56 2.407v15.482c0 1.499-1.03 2.407-2.56 2.407h-152.6c-1.535 0-2.574-.908-2.574-2.407v-15.482c0-1.499 1.039-2.407 2.571-2.407z" stroke-width="4.46" fill="#a1a19e"/><path d="m36.709.613v19.448h118.82c1.79 0 2.42-.906 2.42-2.413v-14.624c0-1.494-.63-2.395-2.39-2.411-39.62 0-79.23 0-118.85 0" stroke-width="2.443" fill="url(#1)"/><g fill="#fff"><g stroke-width="1.18"><path d="m13.272 12.201c0 1.664-1.091 2.88-3.301 3.116-1.602.177-3.921-.024-5.02-.154-.043-.177-.073-.401-.073-.578 0-1.451.788-1.794 1.525-1.794.767 0 1.974.142 2.872.142.987 0 1.287-.342 1.287-.661 0-.413-.398-.59-1.163-.731l-2.098-.413c-1.745-.331-2.679-1.534-2.679-2.821 0-1.558 1.104-2.856 3.271-3.104 1.641-.177 3.636.024 4.732.153.04.189.06.378.06.566 0 1.451-.766 1.77-1.503 1.77-.569 0-1.448-.106-2.454-.106-1.022 0-1.446.283-1.446.625 0 .366.404.519 1.043.625l2.01.378c2.061.378 2.943 1.546 2.943 2.985m3.599 1.782c0 .897-.351 1.416-2.094 1.416-.233 0-.435-.023-.628-.047v-11.847c0-.909.306-1.841 2.067-1.841.222 0 .446.024.655.059v12.26m7.128 4.591c.227.118.698.259 1.288.271 1.012.024 1.566-.366 1.974-1.274l5.434-12.12c-.224-.118-.72-.248-1.128-.26-.698-.012-1.634.13-2.234 1.558l-1.762 4.153-3.448-5.617c-.224-.071-.766-.165-1.166-.165-1.216 0-1.898.448-2.604 1.215l-3.354 3.67 2.699 4.248c.497.767 1.154 1.168 2.222 1.168.698 0 1.279-.165 1.548-.295l-3.248-4.897 2.302-2.443 3.777 5.936-2.3 4.85"/><path d="m52.2 12.614c0-2.02-1.315-3.01-3.407-3.469l-3.664-.826c-.667-.153-1.221-.354-1.221-1.015 0-.732.572-1 2.11-1 1.813 0 2.239.094 3.886.094.758 0 1.536-.354 1.536-1.853 0-.189-.018-.389-.056-.578-1.11-.094-3.091-.201-5.533-.201-3.684 0-5.09 1.593-5.09 3.623 0 1.912 1.203 2.962 3.331 3.469l3.664.85c.853.2 1.314.566 1.314 1.109 0 .72-.645 1-2.183 1-1.813 0-2.646-.13-4.294-.13-.76 0-1.536.342-1.536 1.841 0 .189.02.39.055.578 1.113.107 3.499.248 5.942.248 3.684 0 5.146-1.581 5.146-3.741"/><path d="m82.42 11.8h1.536l2.964 3.529c.554.684 1.093 1.038 2.35 1.038.853 0 1.425-.106 1.888-.33l-3.853-4.461c2.167-.46 3.257-1.876 3.257-3.941 0-2.561-1.554-3.812-4.701-3.812l-4.496-.024c-1.461.059-1.944.555-1.944 1.888v10.478c.222.036.483.048.74.048 1.852 0 2.276-.531 2.276-1.499l-.017-2.915m.017-2.442v-3.092h2.907c1.241 0 2.221.177 2.221 1.475 0 1.097-.74 1.617-2.221 1.617h-2.907"/><path d="m53.53 16.17c.222.036.482.059.739.059 1.852 0 2.278-.542 2.278-1.51v-2.525h3.148c3.423 0 5.124-1.487 5.124-4.26 0-2.691-1.701-4.106-4.923-4.106h-4.424c-1.481 0-1.942.566-1.942 1.888v10.455m3.02-6.478v-3.41h3.02c1.503 0 2.241.555 2.241 1.652 0 1.168-.738 1.758-2.241 1.758h-3.02"/><path d="m71.849 16.202c1.944 0 3.445-.46 4.5-1.405 1.055-.932 1.592-2.596 1.592-4.967-.02-2.325-.557-3.953-1.648-4.921-1.092-.944-2.573-1.428-4.444-1.428-1.869 0-3.35.484-4.44 1.428-1.093.968-1.63 2.596-1.647 4.921 0 2.371.536 4.04 1.591 4.967 1.053.945 2.554 1.405 4.496 1.405m2.981-6.372c0 1.427-.239 2.43-.722 3.02-.462.614-1.221.885-2.259.885-1.053-.011-1.811-.306-2.292-.885-.483-.578-.723-1.569-.723-3.02 0-1.416.258-2.419.74-2.997.482-.59 1.239-.861 2.275-.861 1.038 0 1.777.271 2.259.861.483.578.722 1.581.722 2.997"/><path d="m98.52 6.36h2.43c.79 0 1.6-.378 1.6-1.947 0-.189-.001-.413-.05-.59h-9.42c-.797 0-1.612.366-1.612 1.935 0 .189.019.413.057.602h3.98v9.806c.222.036.479.048.739.048 1.85 0 2.276-.531 2.276-1.499v-8.355"/><path d="m154.65 12.626c0-2.041-1.39-3.03-3.61-3.493l-3.2-.838c-.71-.153-1.3-.354-1.3-1.027 0-.732.62-1.015 2.25-1.015 1.16 0 1.67.142 3.42.142.81 0 1.64-.354 1.64-1.864 0-.189-.03-.401-.07-.59-1.17-.083-2.59-.236-5.17-.236-3.91 0-5.41 1.605-5.41 3.658 0 1.924 1.29 2.986 3.54 3.493l3.19.85c.91.212 1.4.578 1.4 1.121 0 .731-.44 1.015-2.07 1.015-1.37 0-2.36-.13-4.11-.13-.8 0-1.63.354-1.63 1.864 0 .189.03.39.06.579 1.18.106 3.26.236 5.85.236 3.91 0 5.22-1.582 5.22-3.765"/><path d="m107.42 16.237c.27.036.46.059.72.059 1.87 0 2.28-.543 2.28-1.51v-2.467h3.24c3.44 0 5.16-1.498 5.16-4.295 0-2.702-1.72-4.142-4.96-4.142h-4.46c-1.49 0-1.98.484-1.98 1.805v10.549m3-6.643v-3.269h3.11c1.51 0 2.25.484 2.25 1.581 0 1.18-.74 1.687-2.25 1.687h-3.11"/><path d="m133.26 10.667c0 2.655 1.52 3.234 2.89 3.234 1.35 0 2.71-.626 2.71-3.092v-5.652c0-1.817 2.42-1.298 3.22-1.18v6.36c0 2.289-.52 5.971-5.93 5.971-5.69 0-5.99-4.048-5.99-5.9v-5.157c0-1.935 2.39-1.44 3.08-1.298l.02 6.714"/><path d="m121.92 16.214c-.36 0-.64-.012-.86-.095-.23-.071-.39-.165-.51-.295-.13-.13-.25-.295-.3-.484-.03-.188-.1-.389-.1-.602v-9.534c0-.366.15-.673.39-.932.22-.26.67-.389 1.31-.389.26 0 .59.012.85.035.25.024.44.059.72.094v9.487h5.95c.03.272.05.319.09.52.03.2.04.436.04.708 0 .59-.11.979-.36 1.192-.25.212-.59.295-1.02.295h-6.2"/></g><path opacity=".4" d="m156.08 15.587c1.31 1.308 1.48 2.54 1.53 2.809.13 0 .17-.576.17-1.437v-13.816c0-1.601-.51-2.14-1.85-2.14-.46 0-.91.246-1.51.246h-150.14c-.604 0-1.059-.246-1.511-.246-1.339 0-1.853.539-1.853 2.14l-.004 13.816c0 .861.047 1.437.175 1.437.047-.27.085-1.599 1.527-2.81 11.51-8.989 141.07-11.746 153.48 0" stroke-width="2.145"/></g></svg>