<svg xmlns="http://www.w3.org/2000/svg" height="71.25" viewBox="0 0 600 71.252457" overflow="visible" xmlns:xlink="http://www.w3.org/1999/xlink"><defs><linearGradient id="3" gradientUnits="userSpaceOnUse" y1="1.5" x2="0" y2="35.1"><stop stop-color="#fff"/><stop stop-color="#fae1e3" offset=".048"/><stop stop-color="#f2b4b9" offset=".13"/><stop stop-color="#eb8d95" offset=".217"/><stop stop-color="#e66c76" offset=".31"/><stop stop-color="#e1515d" offset=".408"/><stop stop-color="#dd3c49" offset=".515"/><stop stop-color="#db2d3b" offset=".634"/><stop stop-color="#d92533" offset=".776"/><stop stop-color="#d92231" offset="1"/></linearGradient><linearGradient id="2" gradientUnits="userSpaceOnUse" y1="1.501" x2="0" y2="35.1"><stop stop-color="#fff"/><stop stop-color="#e7ecf5" offset=".039"/><stop stop-color="#bacae4" offset=".122"/><stop stop-color="#93acd4" offset=".21"/><stop stop-color="#7293c7" offset=".303"/><stop stop-color="#577ebc" offset=".403"/><stop stop-color="#426eb3" offset=".51"/><stop stop-color="#3363ae" offset=".631"/><stop stop-color="#2b5caa" offset=".774"/><stop stop-color="#285aa9" offset="1"/></linearGradient><linearGradient id="0" gradientUnits="userSpaceOnUse" y1="1.5" x2="0" y2="35.1" xlink:href="#2"/><linearGradient id="1" gradientUnits="userSpaceOnUse" y1="71.24" x2="0" y2="0"><stop stop-color="#d92231"/><stop stop-color="#d12130" offset=".193"/><stop stop-color="#bd1f2c" offset=".448"/><stop stop-color="#9d1a26" offset=".735"/><stop stop-color="#7c131d" offset="1"/></linearGradient></defs><path fill="#0e2d6d" d="m129.88 0h-123.41c-3.558 0-6.47 2.912-6.47 6.471v58.31c0 3.558 2.912 6.467 6.472 6.467l123.41-.008v-71.24z"/><path opacity=".8" d="m129.88 1.5h-124.79c.002 0 2.73 14.699 19.937 27.02 0 0 8.811 6.632 14.549 6.572h90.3v-33.596" fill="url(#0)"/><path fill="url(#1)" d="m129.88 71.24l306.89-.006v-71.24h-306.89z"/><path opacity=".8" d="m129.88 1.5h306.9v33.596h-306.9z" fill="url(#3)"/><path fill="#0e2d6d" d="m436.77 0h157.01c3.31 0 6.22 2.914 6.22 6.472v58.3c0 3.559-2.91 6.468-6.47 6.468l-156.76-.008v-71.24"/><path opacity=".8" d="m436.77 1.501h158.14s-2.73 14.698-19.94 27.02c0 0-8.81 6.63-14.55 6.57h-123.65v-33.595" fill="url(#2)"/><g fill="#fff"><path d="m558.18 45.16v-21.303h6.24c8.67 0 11.84 5.602 11.84 10.652 0 5.05-3.17 10.651-11.84 10.651h-6.24m26.94-10.651c0-11.09-7.98-18.634-21.2-18.634h-9.01c-4.3 0-5.34 2.282-5.34 5.26v26.796c0 2.877 1.04 5.202 5.34 5.202h9.01c13.23 0 21.21-7.527 21.21-18.624m-49.58-4.312v-10.09c0-2.728 1.09-4.466 6.73-4.466.7 0 1.3.052 2 .15v33.11c0 2.72-1.1 4.453-6.75 4.453-.69 0-1.29-.048-1.98-.144v-15.04h-17.59v10.728c0 2.72-1.09 4.453-6.74 4.453-.69 0-1.29-.048-1.98-.144v-33.1c0-2.728 1.09-4.466 6.74-4.466.69 0 1.28.052 1.98.15v14.408h17.59z"/><path d="m460.75 28.619c-.56-.496-1.06-.92-1.84-2.192-1.91-3.113-1.98-7.216 2.05-8.704l14.65-4.953h7.21v41.883c0 3.184-.92 5.448-6.08 5.448-2.05 0-4.46-.208-5.45-.427v-34.59l-10.54 3.535"/><path d="m85.78 66.17c.848.436 2.568.953 4.724 1.01 3.715.079 5.735-1.34 7.235-4.669l19.905-44.39c-.82-.437-2.65-.928-4.12-.956-2.57-.055-6.01.465-8.19 5.708l-6.433 15.204-12.645-20.584c-.819-.246-2.812-.601-4.261-.601-4.475 0-6.96 1.637-9.555 4.451l-12.284 13.434 9.881 15.559c1.83 2.839 4.233 4.286 8.137 4.286 2.567 0 4.698-.596 5.678-1.062l-11.903-17.938 8.437-8.956 13.842 21.731-8.434 17.776zm-26.11-16.793c0 3.276-1.284 5.163-7.672 5.163-.848 0-1.583-.058-2.294-.167v-43.41c0-3.304 1.119-6.745 7.563-6.745.819 0 1.637.084 2.404.246v44.911zm-13.177-6.551c0 6.114-3.987 10.565-12.1 11.44-5.87.628-14.361-.111-18.4-.574-.138-.656-.247-1.473-.247-2.129 0-5.326 2.866-6.552 5.568-6.552 2.813 0 7.236.49 10.514.49 3.629 0 4.721-1.23 4.721-2.403 0-1.53-1.445-2.155-4.259-2.702l-7.699-1.475c-6.389-1.23-9.801-5.653-9.801-10.348 0-5.704 4.04-10.483 11.986-11.355 6.01-.656 13.322.08 17.337.572.137.683.218 1.337.218 2.047 0 5.325-2.812 6.472-5.514 6.472-2.076 0-5.296-.383-8.983-.383-3.741 0-5.296 1.039-5.296 2.292 0 1.338 1.474 1.883 3.823 2.293l7.345 1.365c7.534 1.392 10.784 5.679 10.784 10.949z"/><path d="m186.34 45.783c0-7.642-4.97-11.359-12.9-13.11l-13.88-3.152c-2.52-.561-4.63-1.334-4.63-3.857 0-2.735 2.18-3.785 8-3.785 6.87 0 8.48.35 14.72.35 2.87 0 5.82-1.333 5.82-7.01 0-.703-.07-1.474-.21-2.175-4.21-.349-11.71-.771-20.96-.771-13.95 0-19.28 6.03-19.28 13.74 0 7.221 4.56 11.221 12.62 13.11l13.88 3.224c3.22.768 4.98 2.173 4.98 4.205 0 2.736-2.46 3.787-8.28 3.787-6.87 0-10.02-.49-16.26-.49-2.88 0-5.82 1.329-5.82 7.01 0 .701.07 1.471.21 2.174 4.21.417 13.25.911 22.5.911 13.96 0 19.49-5.958 19.49-14.162"/><path d="m300.9 33.445v-11.706h11c4.7 0 8.42.698 8.42 5.606 0 4.133-2.81 6.1-8.42 6.1h-11.01zm-.07 9.253h5.81l11.24 13.389c2.09 2.593 4.13 3.927 8.9 3.927 3.22 0 5.39-.419 7.14-1.264l-14.59-16.891c8.21-1.751 12.34-7.083 12.34-14.934 0-9.674-5.89-14.441-17.8-14.441l-17.04-.068c-5.53.209-7.36 2.101-7.36 7.149v39.679c.84.14 1.83.206 2.8.206 7.01 0 8.62-2.029 8.62-5.675l-.05-11.08z"/><path d="m202.82 34.707v-12.9h11.42c5.69 0 8.49 2.103 8.49 6.241 0 4.418-2.8 6.659-8.49 6.659h-11.42m-11.43 24.538c.84.139 1.83.206 2.8.206 7.02 0 8.63-2.029 8.63-5.675v-9.605h11.91c12.97 0 19.42-5.606 19.42-16.12 0-10.165-6.45-15.564-18.64-15.564h-16.75c-5.61 0-7.36 2.174-7.36 7.15v39.611z"/><path d="m272.08 35.27c0 5.401-.91 9.182-2.73 11.427-1.75 2.312-4.63 3.365-8.55 3.365-4-.072-6.87-1.192-8.7-3.365-1.82-2.172-2.73-5.957-2.73-11.427 0-5.397.98-9.182 2.8-11.357 1.83-2.243 4.7-3.294 8.63-3.294 3.92 0 6.73 1.051 8.55 3.294 1.82 2.175 2.73 5.96 2.73 11.357m-11.29 24.12c7.36 0 13.04-1.751 17.04-5.327 3.99-3.507 6.03-9.817 6.03-18.789-.08-8.831-2.11-15-6.24-18.648-4.14-3.576-9.75-5.397-16.83-5.397s-12.69 1.82-16.82 5.397c-4.14 3.645-6.17 9.816-6.25 18.648 0 8.971 2.04 15.282 6.03 18.789 4 3.576 9.69 5.327 17.04 5.327"/><path d="m361.81 22.09h9.18c3.02 0 6.1-1.403 6.1-7.365 0-.698-.07-1.541-.21-2.241h-35.68c-3.01 0-6.1 1.403-6.1 7.36 0 .703.07 1.542.21 2.246h15.07v37.15c.85.14 1.82.206 2.81.206 7 0 8.62-2.029 8.62-5.675v-31.685"/><path d="m421.89 45.783c0-7.642-4.98-11.359-12.9-13.11l-13.88-3.152c-2.52-.561-4.63-1.334-4.63-3.857 0-2.735 2.18-3.785 7.99-3.785 6.88 0 8.49.35 14.73.35 2.87 0 5.82-1.333 5.82-7.01 0-.703-.07-1.474-.21-2.175-4.21-.349-11.71-.771-20.97-.771-13.94 0-19.27 6.03-19.27 13.74 0 7.221 4.55 11.221 12.61 13.11l13.88 3.224c3.23.768 4.98 2.173 4.98 4.205 0 2.736-2.45 3.787-8.27 3.787-6.87 0-10.02-.49-16.27-.49-2.87 0-5.81 1.329-5.81 7.01 0 .701.07 1.471.21 2.174 4.2.417 13.25.911 22.5.911 13.97 0 19.51-5.958 19.51-14.162z"/></g></svg>