<svg xmlns="http://www.w3.org/2000/svg" height="115.72" width="600" viewBox="0 0 158.75 30.616453"><defs><linearGradient id="0" gradientUnits="userSpaceOnUse" gradientTransform="matrix(0-28.783-21.255 0 105.99 29.724)" x1="0" x2="1"><stop stop-color="#5a252a"/><stop stop-color="#cb082a" offset=".074"/><stop stop-color="#cb082a" offset=".916"/><stop stop-color="#e73440" offset="1"/></linearGradient><linearGradient id="1" gradientUnits="userSpaceOnUse" gradientTransform="matrix(0 110.79-93.46 0 379.84 2.497)" x1="0" x2="1"><stop stop-color="#141c4b"/><stop stop-color="#1a2b68" offset=".036"/><stop stop-color="#1a2b68" offset=".895"/><stop stop-color="#141c4b" offset="1"/></linearGradient></defs><path stroke-width="11.1" fill="url(#1)" d="m3.699.903c-1.887.022-2.561 1.359-2.561 3.574v21.683c0 2.234.675 3.577 2.589 3.577h149.77v-28.833z"/><path d="m4.409 0c-3.369 0-4.409 2.091-4.409 4.181v22.24c0 2.089 1.039 4.194 4.404 4.194h149.95c3.38 0 4.4-2.095 4.4-4.19v-22.23c0-2.095-1.02-4.193-4.4-4.193zm.147.277c52-.024 104.65.022 149.64.005 2.27 0 3.8 1.341 3.8 3.57v22.914c0 2.21-1.5 3.546-3.75 3.567-51.86-.004-105.37-.008-149.69-.008-2.276 0-3.813-1.343-3.813-3.572v-22.905c0-2.229 1.537-3.571 3.808-3.571z" stroke-width="45.619" fill="#a1a19e"/><path stroke-width="3.545" d="m54.38 29.736h103.19z"/><path d="m54.38.95v28.786c33.487-.002 67.25.002 100.62 0 1.92 0 2.57-1.343 2.57-3.577v-21.683c0-2.214-.65-3.551-2.54-3.573-34.97.083-70.66.047-100.65.046" stroke-width="2.742" fill="url(#0)"/><g fill="#fff"><path opacity=".4" d="m155.66 23.13c1.3 1.939 1.47 3.764 1.52 4.163.13 0 .17-.853.17-2.129v-20.471c0-2.372-.51-3.172-1.84-3.172-.46 0-.91.365-1.5.365h-149.31c-.602 0-1.053-.364-1.503-.364-1.332 0-1.843.799-1.843 3.171l-.004 20.471c0 1.276.047 2.129.174 2.129.047-.398.085-2.368 1.518-4.163 11.446-13.318 140.28-17.405 152.63 0" stroke-width="2.604"/><g stroke-width="1.369"><path d="m19.663 18.06c0 2.466-1.619 4.279-4.888 4.625-2.38.263-5.816-.041-7.449-.236l-.097-.858c0-2.145 1.164-2.645 2.258-2.645 1.134 0 2.921.194 4.252.194 1.467 0 1.91-.498 1.91-.969 0-.609-.596-.872-1.731-1.08l-3.102-.61c-2.589-.498-3.974-2.285-3.974-4.181 0-2.299 1.633-4.238 4.847-4.598 2.437-.263 5.386.041 7.01.249l.097.817c0 2.159-1.135 2.616-2.229 2.616-.845 0-2.147-.152-3.628-.152-1.524 0-2.147.415-2.147.929 0 .539.596.761 1.551.927l2.963.554c3.048.553 4.362 2.285 4.362 4.417m5.318 2.659c0 1.316-.512 2.077-3.101 2.077-.333 0-.638-.028-.915-.069v-17.545c0-1.33.444-2.714 3.047-2.714.332 0 .665.027.969.097v18.15m10.566 6.785c.332.166 1.025.388 1.897.401 1.509.029 2.326-.539 2.922-1.882l8.05-17.947c-.333-.179-1.066-.374-1.662-.387-1.038-.014-2.422.193-3.309 2.313l-2.603 6.148-5.11-8.322c-.332-.111-1.136-.249-1.732-.249-1.799 0-2.81.664-3.848 1.8l-4.972 5.428 4 6.287c.734 1.15 1.704 1.73 3.282 1.73 1.038 0 1.897-.234 2.299-.415l-4.819-7.256 3.42-3.615 5.594 8.781-3.406 7.186"/><path d="m77.28 18.665c0-2.99-1.938-4.444-5.04-5.123l-5.427-1.232c-.983-.222-1.8-.512-1.8-1.51 0-1.066.844-1.482 3.114-1.482 2.702 0 3.325.138 5.762.138 1.121 0 2.271-.512 2.271-2.741l-.083-.845c-1.634-.138-4.571-.305-8.184-.305-5.456 0-7.533 2.355-7.533 5.374 0 2.825 1.772 4.39 4.929 5.123l5.429 1.26c1.259.305 1.939.845 1.939 1.649 0 1.066-.956 1.481-3.228 1.481-2.686 0-3.918-.194-6.369-.194-1.121 0-2.271.527-2.271 2.742l.083.845c1.647.165 5.178.36 8.793.36 5.456 0 7.616-2.326 7.616-5.54"/><path d="m122.04 17.46h2.26l4.41 5.235c.82 1.01 1.6 1.537 3.48 1.537 1.26 0 2.11-.166 2.79-.498l-5.69-6.605c3.19-.679 4.8-2.77 4.8-5.83 0-3.781-2.28-5.65-6.94-5.65l-6.68-.027c-2.16.082-2.86.831-2.86 2.797v15.509c.31.055.7.082 1.09.082 2.74 0 3.37-.788 3.37-2.215l-.03-4.335m.03-3.613v-4.584h4.3c1.85 0 3.3.277 3.3 2.202 0 1.606-1.11 2.382-3.3 2.382h-4.3"/><path d="m79.26 23.928c.333.055.72.082 1.094.082 2.743 0 3.379-.788 3.379-2.215v-3.753h4.653c5.068 0 7.589-2.201 7.589-6.314 0-3.96-2.521-6.079-7.284-6.079h-6.55c-2.202 0-2.881.859-2.881 2.797v15.482m4.473-9.582v-5.05h4.46c2.215 0 3.322.831 3.322 2.437 0 1.73-1.107 2.618-3.322 2.618h-4.46"/><path d="m106.4 23.983c2.87 0 5.09-.679 6.65-2.077 1.56-1.371 2.37-3.836 2.37-7.354-.04-3.447-.84-5.857-2.45-7.284-1.62-1.398-3.81-2.104-6.57-2.104-2.78 0-4.97.707-6.587 2.104-1.606 1.427-2.409 3.837-2.437 7.284 0 3.518.803 5.983 2.355 7.354 1.569 1.398 3.789 2.077 6.669 2.077m4.4-9.431c0 2.12-.35 3.601-1.06 4.473-.69.901-1.81 1.316-3.34 1.316-1.58-.027-2.7-.471-3.4-1.316-.71-.844-1.07-2.326-1.07-4.473 0-2.104.38-3.585 1.1-4.43.7-.886 1.82-1.289 3.37-1.289 1.53 0 2.62.403 3.34 1.289.71.845 1.06 2.326 1.06 4.43"/><path d="m145.88 9.402h3.59c1.19 0 2.38-.541 2.38-2.881l-.07-.872h-13.95c-1.18 0-2.38.554-2.38 2.881l.08.872h5.9v14.526c.32.055.7.082 1.08.082 2.76 0 3.37-.788 3.37-2.215v-12.393"/></g></g></svg>