<svg xmlns="http://www.w3.org/2000/svg" height="94.07" width="600" viewBox="0 0 158.75 24.888866"><defs><linearGradient id="0" gradientUnits="userSpaceOnUse" x2="0" y1="2.031" y2="92.01"><stop stop-color="#141c4b"/><stop stop-color="#1a2b68" offset=".036"/><stop stop-color="#1a2b68" offset=".895"/><stop stop-color="#141c4b" offset="1"/></linearGradient><linearGradient id="1" gradientUnits="userSpaceOnUse" x2="0" y1="24.14" y2=".726"><stop stop-color="#5a252a"/><stop stop-color="#cb082a" offset=".074"/><stop stop-color="#cb082a" offset=".916"/><stop stop-color="#e73440" offset="1"/></linearGradient></defs><g stroke-width="9.812"><path fill="url(#0)" d="m3.377.735c-1.817.018-2.466 1.103-2.466 2.902v17.61c0 1.814.648 2.905 2.492 2.905h149.29v-23.417z"/><path d="m3.577 0c-2.741 0-3.577 1.706-3.577 3.409v18.07c0 1.704.836 3.407 3.577 3.407h151.6c2.74 0 3.57-1.703 3.57-3.407v-18.07c0-1.703-.83-3.409-3.57-3.409h-151.6m.127.228h151.35c1.84 0 3.09 1.09 3.09 2.902v18.627c0 1.812-1.25 2.903-3.09 2.903h-151.35c-1.841 0-3.09-1.091-3.09-2.903v-18.627c0-1.812 1.248-2.903 3.094-2.903z" fill="#a1a19e"/></g><path d="m44.19.735v23.417h111.19c1.84 0 2.49-1.091 2.49-2.905v-17.61c0-1.799-.65-2.884-2.47-2.902-37.07 0-74.14 0-111.21 0" stroke-width="2.596" fill="url(#1)"/><g fill="#fff"><g stroke-width="2.596"><path d="m15.994 14.686c0 2-1.311 3.468-3.972 3.759-1.929.205-4.719-.036-6.05-.189-.049-.218-.088-.486-.088-.699 0-1.755.95-2.154 1.838-2.154.922 0 2.375.161 3.455.161 1.189 0 1.55-.405 1.55-.787 0-.504-.48-.714-1.402-.89l-2.523-.486c-2.103-.402-3.224-1.856-3.224-3.398 0-1.875 1.327-3.445 3.938-3.733 1.973-.215 4.374.026 5.693.189.049.226.073.439.073.675 0 1.747-.922 2.126-1.81 2.126-.683 0-1.742-.13-2.952-.13-1.23 0-1.742.343-1.742.758 0 .437.485.617 1.257.751l2.414.449c2.48.457 3.541 1.867 3.541 3.598m4.331 2.152c0 1.075-.421 1.696-2.521 1.696-.278 0-.519-.021-.753-.055v-14.263c0-1.083.369-2.214 2.487-2.214.267 0 .537.029.787.08zm8.58 5.517c.275.143.841.311 1.552.332 1.218.026 1.882-.441 2.376-1.531l6.539-14.588c-.27-.145-.867-.306-1.358-.319-.838-.013-1.967.158-2.689 1.88l-2.116 4.998-4.154-6.766c-.267-.08-.921-.2-1.402-.2-1.464 0-2.284.54-3.136 1.464l-4.04 4.416 3.248 5.111c.6.93 1.392 1.405 2.677 1.405.838 0 1.539-.19 1.861-.345l-3.91-5.896 2.773-2.936 4.546 7.134z"/><path d="m62.828 15.179c0-2.427-1.581-3.608-4.099-4.166l-4.411-1c-.802-.177-1.472-.424-1.472-1.226 0-.87.693-1.202 2.542-1.202 2.183 0 2.694.112 4.678.112.914 0 1.848-.423 1.848-2.227 0-.223-.021-.47-.065-.693-1.337-.109-3.723-.244-6.661-.244-4.434 0-6.127 1.916-6.127 4.367 0 2.295 1.448 3.564 4.01 4.167l4.411 1.025c1.025.244 1.584.691 1.584 1.334 0 .87-.779 1.205-2.63 1.205-2.181 0-3.186-.156-5.169-.156-.911 0-1.848.423-1.848 2.228 0 .223.023.467.067.69 1.337.133 4.211.288 7.15.288 4.434 0 6.194-1.892 6.194-4.499"/><path d="m99.2 14.198h1.851l3.57 4.255c.66.823 1.31 1.249 2.83 1.249 1.02 0 1.71-.135 2.27-.403l-4.64-5.368c2.61-.556 3.92-2.251 3.92-4.746 0-3.074-1.87-4.587-5.66-4.587l-5.41-.023c-1.758.067-2.339.667-2.339 2.272v12.609c.267.044.581.068.89.068 2.228 0 2.742-.647 2.742-1.805zm.024-2.941v-3.718h3.497c1.49 0 2.67.221 2.67 1.781 0 1.314-.89 1.937-2.67 1.937z"/><path d="m64.44 19.458c.267.044.578.065.89.065 2.23 0 2.741-.644 2.741-1.802v-3.053h3.786c4.122 0 6.17-1.781 6.17-5.125 0-3.229-2.048-4.946-5.924-4.946h-5.324c-1.784 0-2.339.691-2.339 2.274zm3.631-7.796v-4.1h3.63c1.807 0 2.697.667 2.697 1.981 0 1.405-.89 2.119-2.697 2.119z"/><path d="m86.48 19.502c2.339 0 4.144-.556 5.416-1.693 1.267-1.114 1.916-3.12 1.916-5.971-.026-2.806-.67-4.766-1.984-5.927-1.316-1.135-3.097-1.713-5.348-1.713-2.25 0-4.03.579-5.345 1.713-1.316 1.16-1.963 3.12-1.983 5.927 0 2.851.646 4.857 1.916 5.971 1.266 1.137 3.073 1.693 5.412 1.693m3.588-7.664c0 1.716-.291 2.918-.87 3.632-.555.735-1.472 1.07-2.718 1.07-1.269-.024-2.18-.379-2.762-1.07-.579-.69-.867-1.892-.867-3.632 0-1.716.312-2.918.89-3.608.579-.714 1.493-1.046 2.739-1.046s2.14.332 2.718 1.046c.579.691.87 1.892.87 3.608"/><path d="m118.59 7.651h2.92c.96 0 1.94-.447 1.94-2.339 0-.223-.02-.491-.07-.714h-11.34c-.96 0-1.93.447-1.93 2.339 0 .223.02.491.06.714h4.79v11.807c.27.044.58.065.89.065 2.23 0 2.74-.644 2.74-1.802z"/><path d="m129.73 19.528c-.06-.185-.11-.4-.15-.654-.04-.252-.06-.507-.06-.766 0-.185.02-.39.06-.621.04-.228.1-.464.2-.708.09-.247.22-.491.39-.735.16-.244.38-.473.64-.688l2.85-2.479c.51-.413.94-.774 1.28-1.08.35-.307.63-.595.85-.865.22-.267.38-.529.47-.781.1-.255.14-.525.14-.818 0-.397-.14-.766-.41-1.103-.28-.338-.74-.506-1.38-.506-.4 0-.76.049-1.07.148-.32.101-.6.208-.87.325-.26.114-.5.218-.73.309-.23.094-.47.138-.72.138-.23 0-.45-.06-.66-.184-.22-.122-.4-.299-.56-.527-.15-.231-.26-.511-.34-.841s-.1-.701-.07-1.116c.63-.46 1.37-.851 2.21-1.173s1.84-.483 2.99-.483c.83 0 1.58.114 2.24.345.67.231 1.24.556 1.7.979.46.421.81.932 1.07 1.529.25.6.38 1.259.38 1.978 0 1.09-.28 2.04-.83 2.855-.56.813-1.33 1.54-2.33 2.186l-2.64 1.978h5.84c.03.169.07.392.12.668.04.275.07.568.07.875 0 .69-.15 1.165-.44 1.425-.29.262-.64.392-1.03.392z"/><path d="m145.1 13.315h3.01v-4.371zm4.53 6.33c-.27 0-.56-.021-.85-.06-.29-.036-.51-.073-.67-.104v-3.01h-6.7c-.03-.169-.07-.387-.11-.654-.04-.27-.05-.556-.05-.865 0-.381.06-.758.19-1.126.13-.369.34-.753.63-1.15l5.56-8.1h4v8.743h2.17c.03.169.06.387.1.657.04.268.06.548.06.839 0 .644-.13 1.085-.39 1.324-.27.236-.6.355-.99.355h-.95v2c0 .4-.14.691-.41.875-.28.184-.81.278-1.59.278"/></g><path opacity=".4" d="m155.86 18.757c1.29 1.573 1.47 3.055 1.52 3.38.13 0 .17-.693.17-1.729v-16.623c0-1.926-.51-2.575-1.85-2.575-.45 0-.9.296-1.51.296h-149.72c-.606 0-1.059-.296-1.51-.296-1.335 0-1.848.649-1.848 2.575l-.004 16.623c0 1.036.047 1.729.174 1.729.047-.325.085-1.924 1.522-3.38 11.479-10.816 140.67-14.13 153.05 0" stroke-width="2.349"/></g></svg>