<svg xmlns="http://www.w3.org/2000/svg" width="599.99" viewBox="0 0 599.99998 48.813359"><defs><linearGradient id="0" gradientUnits="userSpaceOnUse" x2="0"><stop stop-color="#bfbbd8"/><stop stop-color="#2e4a9d" offset=".34"/><stop stop-color="#2e4a9d" offset="1"/></linearGradient><linearGradient id="1" gradientUnits="userSpaceOnUse" gradientTransform="matrix(0-50.693-48.942 0 346.05 430.09)"><stop stop-color="#dc1b30"/><stop stop-color="#dc1b30" offset=".375"/><stop stop-color="#791520" offset="1"/></linearGradient></defs><g transform="translate(-45.748-381.22)"><path d="m134.61 381.24h-84.44c-2.438 0-4.423 1.99-4.423 4.42v39.91c0 2.43 1.985 4.43 4.423 4.43h84.44v-48.75" fill="#1a2d67"/><path d="m134.61 430h210v-48.78h-210z" fill="url(#1)"/><path d="m344.61 381.25l296.89.03c2.26 0 4.25 1.99 4.25 4.42v39.9c0 2.45-1.99 4.43-4.42 4.43l-296.72-.03v-48.75" fill="#1a2d67"/><g fill="url(#0)"><path d="m49.22 382.28s1.875 10.05 13.645 18.48 5.975 4.51 9.9 4.51h61.842v-22.99h-85.39"/><path d="m344.61 405.27l274.06.03h.05c3.93 0 9.91-4.5 9.91-4.5 11.77-8.43 13.64-18.49 13.64-18.49l-297.66-.03v22.99"/></g><g fill="#fff"><path d="m601.69 401.91v-6.9c0-1.87.75-3.05 4.6-3.05.49 0 .89.03 1.37.1v22.66c0 1.85-.75 3.04-4.62 3.04-.47 0-.88-.02-1.35-.1v-10.29h-12.03v7.35c0 1.85-.75 3.04-4.62 3.04-.47 0-.88-.02-1.35-.1v-22.65c0-1.87.74-3.05 4.6-3.05.47 0 .89.03 1.37.1v9.85h12.03m33.92 2.96c0-7.59-5.45-12.75-14.51-12.75h-6.16c-2.96 0-3.66 1.56-3.66 3.6v18.33c0 1.97.7 3.56 3.66 3.56h6.16c9.06 0 14.51-5.15 14.51-12.74m-18.43 7.28v-14.57h4.26c5.94 0 8.1 3.83 8.1 7.29 0 3.45-2.16 7.28-8.1 7.28h-4.26"/><path d="m363.75 400.44l-.14.04v17.73c0 2.46-.63 4-5.65 4-.71 0-1.19-.04-1.73-.1v-28.08c0-2.75.97-4.49 5.31-4.49 1.4 0 2.89.1 3.56.2l15.42 21.78.13-.05v-18.02c0-2.5.55-3.91 5.03-3.91 1.01 0 1.68.06 2.26.15v27.99c0 2.75-.96 4.49-5.31 4.49-1.38 0-2.89-.11-3.56-.2l-15.32-21.53"/><path d="m493.93 412.62c0-5.25-3.42-7.8-8.86-9.01l-9.54-2.16c-1.73-.39-3.19-.92-3.19-2.66 0-1.87 1.51-2.59 5.5-2.59 4.73 0 5.84.24 10.11.24 1.99 0 4-.92 4-4.83 0-.47-.04-1.01-.14-1.48-2.88-.25-8.04-.53-14.4-.53-9.6 0-13.25 4.14-13.25 9.44 0 4.97 3.13 7.71 8.67 9.01l9.53 2.21c2.22.53 3.43 1.49 3.43 2.89 0 1.89-1.69 2.61-5.68 2.61-4.73 0-6.89-.33-11.19-.33-1.96 0-3.99.9-3.99 4.8 0 .49.04 1.01.15 1.5 2.89.29 9.11.62 15.47.62 9.58 0 13.38-4.09 13.38-9.73"/><path d="m454.53 392.25c.38-2.46 3.41-3.47 8-2.18l-6.61 31.41c-.58.15-2.31.69-3.95.69-3.27 0-5.21-.35-5.93-3.09l-4.47-17.44-4.29 17.4c-.73 2.84-2.85 3.26-5.4 3.26-2.37 0-3.9-.52-4.48-.67l-6.5-31.46c4.85-1.39 7.85-.33 8.28 2.27l3.47 20.22h.09l5.45-22.59c.57-.13 1.12-.43 2.84-.43 2.7 0 4.58.58 5.16 2.94l4.82 20.14h.15l3.37-20.47"/><path d="m401.72 415.42v-6.12h11.42c2.69 0 4.19-.96 4.19-4.43 0-.82-.1-1.64-.25-2.17h-15.36v-6.31h11.76c2.7 0 4.19-.97 4.19-4.44 0-.81-.11-1.63-.25-2.16h-17.57c-5.03 0-5.99 2.65-5.99 5.25v26.98h20.29c2.69 0 4.19-.97 4.19-4.43 0-.82-.1-1.64-.24-2.17h-16.38"/><path d="m528.15 402.11v-8.8c0-2.36.96-3.88 5.87-3.88.61 0 1.12.04 1.74.13v28.84c0 2.37-.96 3.88-5.89 3.88-.59 0-1.11-.05-1.72-.13v-13.1h-15.31v9.35c0 2.37-.95 3.88-5.87 3.88-.61 0-1.13-.05-1.73-.13v-28.84c0-2.36.95-3.88 5.87-3.88.61 0 1.13.04 1.73.13v12.55h15.31"/><path d="m555.16 416.08c-1.21 0-2.33-.26-3.34-.78-1.01-.5-1.9-1.22-2.63-2.11-.74-.89-1.32-1.96-1.74-3.19s-.63-2.6-.63-4.05c0-1.39.21-2.7.63-3.9s1.02-2.26 1.76-3.15c.75-.88 1.65-1.58 2.66-2.08 1.02-.5 2.14-.75 3.34-.75 1.23 0 2.38.26 3.41.77 1.03.52 1.92 1.23 2.65 2.12.73.88 1.3 1.94 1.71 3.14.42 1.2.62 2.51.62 3.89 0 1.43-.21 2.76-.64 3.98l-.43 1.04-3.66-2.39c-2.09-1.43-3.87-.39-4.79.31-.91.7-1.53 1.6-1.87 2.7l5.73 3.9c-.89.36-1.81.55-2.78.55m13.68-1.06c.6-.97 1.11-2 1.49-3.11.67-1.89 1-3.91 1-6.01 0-2.27-.38-4.43-1.14-6.42s-1.86-3.74-3.26-5.21c-1.41-1.47-3.12-2.64-5.1-3.48-1.96-.84-4.19-1.27-6.62-1.27s-4.67.43-6.64 1.27-3.68 2.01-5.08 3.48c-1.42 1.47-2.5 3.22-3.26 5.21s-1.15 4.15-1.15 6.42c0 1.94.28 3.8.83 5.52.55 1.7 1.34 3.29 2.36 4.68s2.27 2.59 3.75 3.57c1.46.99 3.13 1.7 4.96 2.13.001 0 1.59.51 4.37.51.68 0 1.36-.02 2.06-.08 2-.17 3.92-.76 5.72-1.75l1.09-.67 1.4.97c.5.35.99.64 1.47.92.47.27.92.49 1.36.62 2.49.75 4.42-.3 6.17-3.66l-5.78-3.64"/><path d="m77.55 410.56c0 4.18-2.731 7.22-8.278 7.83-4.02.43-9.825-.07-12.587-.4-.096-.45-.17-1.01-.17-1.46 0-3.64 1.958-4.48 3.811-4.48 1.919 0 4.952.34 7.19.34 2.486 0 3.229-.84 3.229-1.64 0-1.06-.983-1.49-2.91-1.86l-5.267-1.01c-4.375-.84-6.709-3.87-6.709-7.08 0-3.9 2.767-7.17 8.204-7.77 4.112-.44 9.117.06 11.861.39.092.47.149.92.149 1.4 0 3.65-1.927 4.44-3.772 4.44-1.425 0-3.623-.27-6.149-.27-2.561 0-3.619.72-3.619 1.57 0 .92 1.01 1.29 2.614 1.57l5.02.93c5.162.95 7.382 3.89 7.382 7.5m9.02 4.49c0 2.23-.883 3.52-5.249 3.52-.582 0-1.084-.03-1.565-.11v-29.71c0-2.26.756-4.61 5.17-4.61.556 0 1.115.06 1.644.16v30.75zm17.87 11.49c.57.29 1.75.64 3.23.68 2.54.06 3.93-.91 4.95-3.19l13.62-30.38c-.56-.3-1.82-.64-2.82-.66-1.76-.03-4.11.32-5.61 3.91l-4.4 10.41-8.66-14.09c-.56-.17-1.92-.41-2.91-.41-3.063 0-4.763 1.11-6.538 3.04l-8.409 9.2 6.761 10.64c1.255 1.95 2.898 2.94 5.569 2.94 1.757 0 3.217-.42 3.887-.73l-8.149-12.28 5.769-6.12 9.48 14.86-5.77 12.18"/><path d="m173.25 412.58c0-5.23-3.41-7.78-8.82-8.97l-9.5-2.16c-1.73-.38-3.17-.92-3.17-2.64 0-1.87 1.48-2.59 5.47-2.59 4.69 0 5.8.24 10.07.24 1.97 0 3.99-.91 3.99-4.8 0-.48-.05-1.01-.15-1.48-2.88-.24-8.01-.53-14.34-.53-9.55 0-13.2 4.13-13.2 9.4 0 4.94 3.13 7.68 8.64 8.97l9.49 2.21c2.22.52 3.42 1.48 3.42 2.88 0 1.87-1.69 2.59-5.66 2.59-4.71 0-6.86-.34-11.13-.34-1.97 0-3.99.91-3.99 4.8 0 .48.05 1.01.15 1.48 2.87.29 9.07.63 15.39.63 9.55 0 13.34-4.08 13.34-9.69"/><path d="m251.58 410.47h3.98l7.69 9.16c1.43 1.77 2.83 2.68 6.09 2.68 2.2 0 3.69-.28 4.89-.86l-9.99-11.56c5.62-1.2 8.45-4.84 8.45-10.21 0-6.63-4.03-9.89-12.18-9.89l-11.66-.04c-3.79.14-5.04 1.43-5.04 4.89v27.15c.58.1 1.25.14 1.92.14 4.8 0 5.9-1.38 5.9-3.88l-.05-7.58m.05-6.33v-8.01h7.53c3.22 0 5.76.48 5.76 3.83 0 2.83-1.92 4.18-5.76 4.18h-7.53"/><path d="m176.71 421.79c.57.1 1.25.14 1.91.14 4.8 0 5.9-1.38 5.9-3.88v-6.58h8.16c8.87 0 13.28-3.83 13.28-11.02 0-6.96-4.41-10.66-12.76-10.66h-11.46c-3.84 0-5.03 1.49-5.03 4.89v27.11m7.81-16.79v-8.83h7.82c3.89 0 5.81 1.44 5.81 4.28 0 3.01-1.92 4.55-5.81 4.55h-7.82"/><path d="m224.19 421.88c5.04 0 8.93-1.2 11.66-3.64 2.73-2.4 4.12-6.72 4.12-12.85-.04-6.05-1.44-10.27-4.26-12.76-2.84-2.45-6.67-3.7-11.52-3.7s-8.68 1.25-11.52 3.7c-2.82 2.49-4.21 6.71-4.26 12.76 0 6.13 1.39 10.45 4.12 12.85 2.74 2.44 6.63 3.64 11.66 3.64m7.72-16.49c0 3.69-.62 6.27-1.87 7.81-1.2 1.59-3.17 2.31-5.85 2.31-2.73-.05-4.7-.82-5.95-2.31-1.24-1.49-1.86-4.08-1.86-7.81 0-3.7.66-6.29 1.91-7.78 1.25-1.53 3.22-2.25 5.9-2.25s4.61.72 5.85 2.25c1.25 1.49 1.87 4.08 1.87 7.78"/><path d="m293.31 396.36h6.29c2.06 0 4.17-.95 4.17-5.04 0-.47-.05-1.05-.14-1.53h-24.42c-2.06 0-4.17.96-4.17 5.04 0 .48.05 1.05.15 1.53h10.31v25.43c.58.1 1.24.14 1.91.14 4.79 0 5.9-1.38 5.9-3.88v-21.69"/><path d="m334.43 412.58c0-5.23-3.42-7.78-8.82-8.97l-9.51-2.16c-1.73-.38-3.17-.92-3.17-2.64 0-1.87 1.49-2.59 5.47-2.59 4.7 0 5.81.24 10.07.24 1.97 0 3.99-.91 3.99-4.8 0-.48-.05-1.01-.15-1.48-2.88-.24-8.01-.53-14.34-.53-9.54 0-13.19 4.13-13.19 9.4 0 4.94 3.12 7.68 8.63 8.97l9.5 2.21c2.21.52 3.41 1.48 3.41 2.88 0 1.87-1.69 2.59-5.66 2.59-4.7 0-6.86-.34-11.14-.34-1.96 0-3.98.91-3.98 4.8 0 .48.06 1.01.15 1.48 2.87.29 9.07.63 15.4.63 9.55 0 13.34-4.08 13.34-9.69"/></g></g></svg>