<svg xmlns="http://www.w3.org/2000/svg" height="83.51" viewBox="0 0 600 83.508324" overflow="visible" xmlns:xlink="http://www.w3.org/1999/xlink"><defs><linearGradient id="3" gradientUnits="userSpaceOnUse" y1="83.5" x2="0" y2="0"><stop stop-color="#d92231"/><stop stop-color="#d12130" offset=".193"/><stop stop-color="#bd1f2c" offset=".448"/><stop stop-color="#9d1a26" offset=".735"/><stop stop-color="#7c131d" offset="1"/></linearGradient><linearGradient id="2" y2="41.13" gradientUnits="userSpaceOnUse" y1="1.758" x2="0"><stop stop-color="#fff"/><stop stop-color="#e7ecf5" offset=".039"/><stop stop-color="#bacae4" offset=".122"/><stop stop-color="#93acd4" offset=".21"/><stop stop-color="#7293c7" offset=".303"/><stop stop-color="#577ebc" offset=".403"/><stop stop-color="#426eb3" offset=".51"/><stop stop-color="#3363ae" offset=".631"/><stop stop-color="#2b5caa" offset=".774"/><stop stop-color="#285aa9" offset="1"/></linearGradient><linearGradient id="0" gradientUnits="userSpaceOnUse" y1="1.759" x2="0" y2="41.13" xlink:href="#2"/><linearGradient id="1" y2="41.13" gradientUnits="userSpaceOnUse" y1="1.758" x2="0"><stop stop-color="#fff"/><stop stop-color="#fae1e3" offset=".048"/><stop stop-color="#f2b4b9" offset=".13"/><stop stop-color="#eb8d95" offset=".217"/><stop stop-color="#e66c76" offset=".31"/><stop stop-color="#e1515d" offset=".408"/><stop stop-color="#dd3c49" offset=".515"/><stop stop-color="#db2d3b" offset=".634"/><stop stop-color="#d92533" offset=".776"/><stop stop-color="#d92231" offset="1"/></linearGradient></defs><path fill="#0e2d6d" d="m152.22 0h-144.63c-4.178 0-7.59 3.412-7.59 7.585v68.34c0 4.17 3.412 7.58 7.586 7.58l144.63-.009v-83.5z"/><path opacity=".8" fill="url(#2)" d="m152.22 1.758h-146.25c-.002 0 3.195 17.228 23.362 31.672 0 0 10.326 7.773 17.05 7.703h105.84v-39.37z"/><path fill="url(#3)" d="m152.22 83.5l359.68-.006v-83.49h-359.68z"/><path opacity=".8" fill="url(#1)" d="m152.22 1.758h359.69v39.37h-359.69z"/><path fill="#0e2d6d" d="m511.9 0h80.81c3.88 0 7.29 3.416 7.29 7.586v68.33c0 4.172-3.41 7.581-7.58 7.581l-80.52-.001v-83.49"/><path opacity=".8" fill="url(#0)" d="m511.9 1.759h82.13s-3.2 17.227-23.36 31.674c0 0-10.33 7.77-17.06 7.7h-41.71v-39.37"/><g fill="#fff"><path d="m540 33.542c-.66-.581-1.24-1.078-2.15-2.57-2.24-3.648-2.32-8.457 2.4-10.2l17.17-5.805h8.45v49.09c0 3.731-1.08 6.385-7.13 6.385-2.4 0-5.22-.244-6.39-.501v-40.539l-12.34 4.143z"/><path d="m100.53 77.55c.99.511 3.01 1.117 5.54 1.185 4.35.093 6.72-1.571 8.48-5.472l23.33-52.03c-.97-.512-3.11-1.087-4.84-1.121-3.01-.064-7.04.545-9.6 6.69l-7.53 17.819-14.82-24.12c-.96-.288-3.298-.703-4.996-.703-5.245 0-8.158 1.918-11.198 5.216l-14.397 15.744 11.58 18.235c2.145 3.328 4.962 5.02 9.537 5.02 3.01 0 5.504-.699 6.655-1.245l-13.951-21.02 9.888-10.496 16.222 25.469-9.88 20.833zm-30.602-19.682c0 3.84-1.505 6.05-8.992 6.05-.994 0-1.855-.068-2.688-.197v-50.873c0-3.872 1.311-7.905 8.863-7.905.961 0 1.919.098 2.818.288v52.635m-15.445-7.677c0 7.166-4.672 12.382-14.177 13.407-6.879.737-16.831-.129-21.565-.672-.161-.77-.289-1.727-.289-2.496 0-6.241 3.359-7.679 6.526-7.679 3.297 0 8.481.574 12.322.574 4.254 0 5.534-1.441 5.534-2.816 0-1.793-1.695-2.525-4.992-3.166l-9.02-1.728c-7.488-1.443-11.487-6.626-11.487-12.13 0-6.685 4.735-12.286 14.05-13.308 7.04-.769 15.614.094 20.32.67.16.801.255 1.567.255 2.4 0 6.24-3.296 7.584-6.463 7.584-2.432 0-6.207-.448-10.527-.448-4.385 0-6.208 1.218-6.208 2.687 0 1.567 1.728 2.206 4.481 2.686l8.608 1.601c8.83 1.631 12.639 6.655 12.639 12.832"/><path d="m218.39 53.658c0-8.957-5.83-13.313-15.12-15.365l-16.26-3.694c-2.96-.658-5.43-1.564-5.43-4.52 0-3.206 2.55-4.437 9.37-4.437 8.05 0 9.94.411 17.25.411 3.38 0 6.82-1.563 6.82-8.217 0-.823-.07-1.727-.24-2.549-4.93-.408-13.72-.903-24.57-.903-16.35 0-22.59 7.07-22.59 16.1 0 8.462 5.34 13.15 14.79 15.365l16.26 3.779c3.79.9 5.84 2.547 5.84 4.928 0 3.207-2.88 4.439-9.7 4.439-8.05 0-11.74-.574-19.06-.574-3.37 0-6.82 1.557-6.82 8.215 0 .821.09 1.723.25 2.547 4.93.489 15.53 1.068 26.37 1.068 16.36 0 22.84-6.983 22.84-16.598z"/><path d="m352.65 39.2v-13.72h12.9c5.51 0 9.86.819 9.86 6.57 0 4.845-3.28 7.15-9.86 7.15h-12.91zm-.08 10.844h6.82l13.16 15.693c2.46 3.038 4.85 4.602 10.43 4.602 3.78 0 6.33-.492 8.38-1.481l-17.1-19.797c9.61-2.052 14.46-8.302 14.46-17.502 0-11.339-6.91-16.925-20.87-16.925l-19.96-.081c-6.49.246-8.63 2.463-8.63 8.379v46.5c.98.164 2.14.242 3.29.242 8.21 0 10.1-2.378 10.1-6.651l-.06-12.983z"/><path d="m237.7 40.677v-15.12h13.39c6.66 0 9.95 2.464 9.95 7.314 0 5.179-3.29 7.805-9.95 7.805h-13.39m-13.39 28.758c.99.164 2.14.242 3.29.242 8.21 0 10.1-2.378 10.1-6.651v-11.257h13.97c15.2 0 22.76-6.571 22.76-18.897 0-11.913-7.56-18.24-21.86-18.24h-19.63c-6.57 0-8.62 2.547-8.62 8.379v46.42z"/><path d="m318.88 41.34c0 6.329-1.06 10.761-3.2 13.392-2.05 2.71-5.42 3.944-10.02 3.944-4.69-.085-8.05-1.397-10.19-3.944-2.13-2.546-3.21-6.982-3.21-13.392 0-6.326 1.15-10.763 3.29-13.312 2.14-2.628 5.5-3.86 10.1-3.86s7.89 1.232 10.03 3.86c2.13 2.549 3.2 6.986 3.2 13.312m-13.23 28.26c8.62 0 15.28-2.053 19.97-6.243 4.68-4.111 7.06-11.507 7.06-22.02-.08-10.35-2.46-17.583-7.31-21.857-4.85-4.191-11.42-6.324-19.72-6.324s-14.87 2.132-19.72 6.324c-4.85 4.273-7.23 11.506-7.31 21.857 0 10.513 2.38 17.91 7.06 22.02 4.69 4.19 11.35 6.243 19.97 6.243"/><path d="m424.04 25.89h10.77c3.53 0 7.14-1.644 7.14-8.632 0-.818-.08-1.806-.24-2.626h-41.82c-3.54 0-7.15 1.644-7.15 8.625 0 .825.08 1.807.25 2.633h17.66v43.544c.99.164 2.14.242 3.29.242 8.21 0 10.1-2.378 10.1-6.651v-37.13"/><path d="m494.46 53.658c0-8.957-5.84-13.313-15.12-15.365l-16.27-3.694c-2.96-.658-5.42-1.564-5.42-4.52 0-3.206 2.54-4.437 9.36-4.437 8.06 0 9.95.411 17.26.411 3.37 0 6.82-1.563 6.82-8.217 0-.823-.08-1.727-.24-2.549-4.93-.408-13.73-.903-24.57-.903-16.35 0-22.6 7.07-22.6 16.1 0 8.462 5.34 13.15 14.79 15.365l16.27 3.779c3.78.9 5.83 2.547 5.83 4.928 0 3.207-2.87 4.439-9.69 4.439-8.05 0-11.75-.574-19.07-.574-3.37 0-6.81 1.557-6.81 8.215 0 .821.08 1.723.24 2.547 4.93.489 15.53 1.068 26.38 1.068 16.37 0 22.86-6.983 22.86-16.598z"/></g></svg>