<svg xmlns="http://www.w3.org/2000/svg" height="84.52" width="600" viewBox="0 0 158.75 22.361913"><defs><linearGradient id="0" gradientUnits="userSpaceOnUse" gradientTransform="matrix(0 21.376-19.538 0 79.34.517)" x1="0" x2="1"><stop stop-color="#141c4b"/><stop stop-color="#1a2b68" offset=".036"/><stop stop-color="#1a2b68" offset=".895"/><stop stop-color="#141c4b" offset="1"/></linearGradient><linearGradient id="1" gradientUnits="userSpaceOnUse" gradientTransform="matrix(0-21.023-15.524 0 77.42 21.71)" x1="0" x2="1"><stop stop-color="#5a252a"/><stop stop-color="#cb082a" offset=".074"/><stop stop-color="#cb082a" offset=".916"/><stop stop-color="#e73440" offset="1"/></linearGradient></defs><path stroke-width="2.228" fill="url(#0)" d="m2.855.694c-1.491.016-2.024.991-2.024 2.606v15.811c0 1.629.533 2.608 2.045 2.608h152.9c1.51 0 2.03-.979 2.03-2.608v-15.811c0-1.615-.52-2.589-2.01-2.605z"/><path stroke-width="2.589" d="m39.721 21.719h75.37z"/><path fill="#94979c" d="m155.53 22.362c2.46 0 3.22-1.538 3.22-3.065v-16.243c0-1.527-.76-3.054-3.22-3.054h-152.31c-2.461 0-3.22 1.527-3.22 3.054v16.243c0 1.527.759 3.065 3.217 3.065h152.31m-152.2-.213c-1.659 0-2.781-.981-2.781-2.609v-16.729c0-1.628 1.122-2.609 2.781-2.609h152.09c1.66 0 2.78.981 2.78 2.609v16.729c0 1.628-1.12 2.609-2.78 2.609h-152.09"/><path stroke-width="2" fill="url(#1)" d="m39.721 21.719h75.37v-21.02h-75.37z"/><g fill="#fff"><path opacity=".4" d="m155.95 16.891c1.31 1.416 1.48 2.749 1.53 3.041.13 0 .17-.623.17-1.555v-14.952c0-1.733-.51-2.317-1.85-2.317-.46 0-.91.266-1.51.266h-149.94c-.604 0-1.057-.266-1.509-.266-1.337 0-1.851.584-1.851 2.316l-.004 14.952c0 .932.047 1.555.175 1.555.047-.291.085-1.73 1.525-3.041 11.494-9.727 140.87-12.712 153.27 0" stroke-width="2.23"/><g><path d="m139.16 9.83v-2.973c0-.809.32-1.315 1.98-1.315l.59.04v9.75c0 .799-.32 1.315-1.98 1.315l-.59-.05v-4.43h-5.18v3.165c0 .799-.32 1.315-1.98 1.315l-.59-.05v-9.74c0-.809.33-1.315 2-1.315l.57.04v4.248h5.18m14.73 1.244c0-3.307-2.38-5.552-6.32-5.552h-2.69c-1.28 0-1.59.677-1.59 1.567v7.991c0 .859.31 1.557 1.59 1.557h2.69c3.94 0 6.32-2.245 6.32-5.563m-8.02 3.186v-6.361h1.85c2.58 0 3.53 1.668 3.53 3.175s-.95 3.186-3.53 3.186h-1.85"/><path d="m14.357 13.188c0 1.801-1.183 3.125-3.569 3.378-1.738.192-4.246-.03-5.439-.172l-.071-.627c0-1.567.85-1.932 1.648-1.932.829 0 2.133.142 3.104.142 1.071 0 1.394-.364 1.394-.708 0-.445-.435-.637-1.263-.789l-2.266-.445c-1.89-.364-2.901-1.669-2.901-3.054 0-1.679 1.193-3.095 3.539-3.358 1.78-.192 3.933.03 5.115.182l.071.597c0 1.577-.828 1.911-1.627 1.911-.617 0-1.568-.111-2.649-.111-1.113 0-1.567.303-1.567.678 0 .394.435.556 1.133.677l2.163.405c2.225.404 3.185 1.669 3.185 3.226m3.883 1.942c0 .961-.374 1.517-2.265 1.517-.242 0-.465-.02-.667-.05v-12.815c0-.971.324-1.982 2.224-1.982.243 0 .486.02.708.071v13.259m7.714 4.956c.243.121.748.283 1.385.293 1.102.021 1.699-.394 2.133-1.375l5.874-13.11c-.243-.131-.778-.273-1.213-.283-.758-.001-1.769.141-2.416 1.689l-1.901 4.49-3.73-6.078c-.243-.081-.83-.182-1.265-.182-1.313 0-2.052.485-2.81 1.315l-3.629 3.964 2.921 4.592c.536.84 1.244 1.264 2.397 1.264.757 0 1.384-.171 1.678-.303l-3.519-5.3 2.497-2.64 4.085 6.413-2.487 5.249"/><path d="m56.43 13.633c0-2.184-1.415-3.246-3.68-3.742l-3.963-.9c-.717-.162-1.314-.374-1.314-1.103 0-.778.617-1.082 2.274-1.082 1.972 0 2.427.101 4.206.101.819 0 1.659-.374 1.659-2l-.061-.617c-1.193-.101-3.337-.223-5.975-.223-3.984 0-5.5 1.72-5.5 3.925 0 2.063 1.294 3.206 3.599 3.742l3.963.92c.92.223 1.416.617 1.416 1.204 0 .779-.698 1.082-2.356 1.082-1.962 0-2.861-.142-4.651-.142-.818 0-1.658.385-1.658 2l.061.617c1.202.121 3.78.263 6.42.263 3.983 0 5.56-1.699 5.56-4.046"/><path d="m89.11 12.753h1.65l3.219 3.823c.599.739 1.169 1.123 2.539 1.123.919 0 1.539-.121 2.039-.364l-4.159-4.824c2.329-.496 3.509-2.023 3.509-4.258 0-2.762-1.669-4.127-5.068-4.127l-4.878-.02c-1.58.06-2.089.607-2.089 2.043v11.328c.229.04.509.06.799.06 1.999 0 2.459-.576 2.459-1.618l-.02-3.166m.02-2.639v-3.348h3.139c1.35 0 2.409.202 2.409 1.608 0 1.173-.809 1.74-2.409 1.74h-3.139"/><path d="m57.872 17.477c.243.04.526.06.799.06 2 0 2.467-.576 2.467-1.618v-2.741h3.396c3.701 0 5.541-1.608 5.541-4.612 0-2.892-1.84-4.44-5.318-4.44h-4.782c-1.607 0-2.103.627-2.103 2.043v11.308m3.266-6.999v-3.692h3.255c1.618 0 2.427.607 2.427 1.78 0 1.264-.809 1.912-2.427 1.912h-3.255"/><path d="m77.68 17.517c2.099 0 3.718-.496 4.858-1.517 1.139-1 1.729-2.802 1.729-5.371-.03-2.518-.61-4.278-1.789-5.32-1.18-1.021-2.779-1.537-4.798-1.537-2.026 0-3.623.516-4.807 1.537-1.172 1.042-1.758 2.802-1.779 5.32 0 2.569.587 4.37 1.719 5.371 1.143 1.021 2.77 1.517 4.867 1.517m3.218-6.888c0 1.548-.26 2.63-.779 3.267-.5.658-1.32.961-2.439.961-1.15-.02-1.966-.344-2.481-.961s-.778-1.699-.778-3.267c0-1.537.273-2.619.798-3.236.516-.647 1.331-.941 2.461-.941 1.119 0 1.919.294 2.439.941.519.617.779 1.699.779 3.236"/><path d="m106.51 6.867h2.62c.87 0 1.74-.395 1.74-2.104l-.05-.637h-10.19c-.857 0-1.736.405-1.736 2.104l.06.637h4.306v10.61c.23.04.51.06.79.06 2.01 0 2.46-.576 2.46-1.618v-9.05"/><path d="m120.03 8.667c-.16-.141-.3-.263-.51-.617-.55-.88-.57-2.043.57-2.468l4.14-1.405h2.04v11.863c0 .911-.25 1.548-1.71 1.548-.58 0-1.27-.061-1.55-.122v-9.8l-2.98 1"/></g></g></svg>