<?xml version="1.0" encoding="UTF-8" standalone="no"?>
<svg xmlns:rdf="http://www.w3.org/1999/02/22-rdf-syntax-ns#" xmlns="http://www.w3.org/2000/svg" height="71.252" width="600" version="1.1" xmlns:cc="http://creativecommons.org/ns#" xmlns:xlink="http://www.w3.org/1999/xlink" viewBox="0 0 599.99999 71.252456" xmlns:dc="http://purl.org/dc/elements/1.1/">
 <defs>
  <path id="j" d="m490.36 1.689v37.718h423.87c6.45 0 16.25-7.377 16.25-7.377 19.32-13.836 22.38-30.341 22.38-30.341h-462.5z"/>
  <linearGradient id="e" x1="819.79" gradientUnits="userSpaceOnUse" y1="1.685" gradientTransform="matrix(-.89066 0 0 .89066 1246 0)" x2="819.79" y2="39.405">
   <stop stop-color="#FFF" offset="0"/>
   <stop stop-color="#E7ECF5" offset=".039"/>
   <stop stop-color="#BACAE4" offset=".122"/>
   <stop stop-color="#93ACD4" offset=".21"/>
   <stop stop-color="#7293C7" offset=".303"/>
   <stop stop-color="#577EBC" offset=".403"/>
   <stop stop-color="#426EB3" offset=".51"/>
   <stop stop-color="#3363AE" offset=".631"/>
   <stop stop-color="#2B5CAA" offset=".774"/>
   <stop stop-color="#285AA9" offset="1"/>
  </linearGradient>
  <linearGradient id="g" x1="318.11" gradientUnits="userSpaceOnUse" y1="1.684" gradientTransform="matrix(.89066 0 0 .89066 -.002672 0)" x2="318.11" y2="39.405">
   <stop stop-color="#FFF" offset="0"/>
   <stop stop-color="#FAE1E3" offset=".048"/>
   <stop stop-color="#F2B4B9" offset=".13"/>
   <stop stop-color="#EB8D95" offset=".217"/>
   <stop stop-color="#E66C76" offset=".31"/>
   <stop stop-color="#E1515D" offset=".408"/>
   <stop stop-color="#DD3C49" offset=".515"/>
   <stop stop-color="#DB2D3B" offset=".634"/>
   <stop stop-color="#D92533" offset=".776"/>
   <stop stop-color="#D92231" offset="1"/>
  </linearGradient>
  <linearGradient id="h" gradientUnits="userSpaceOnUse" y1="79.99" gradientTransform="matrix(.89066 0 0 .89066 -.002672 0)" x2="318.11" x1="318.11">
   <stop stop-color="#D92231" offset="0"/>
   <stop stop-color="#D12130" offset=".193"/>
   <stop stop-color="#BD1F2C" offset=".448"/>
   <stop stop-color="#9D1A26" offset=".735"/>
   <stop stop-color="#7C131D" offset="1"/>
  </linearGradient>
  <linearGradient id="i" x1="75.772" gradientUnits="userSpaceOnUse" y1="1.684" gradientTransform="matrix(.89066 0 0 .89066 -.002672 0)" x2="75.772" y2="39.405">
   <stop stop-color="#FFF" offset="0"/>
   <stop stop-color="#E7ECF5" offset=".039"/>
   <stop stop-color="#BACAE4" offset=".122"/>
   <stop stop-color="#93ACD4" offset=".21"/>
   <stop stop-color="#7293C7" offset=".303"/>
   <stop stop-color="#577EBC" offset=".403"/>
   <stop stop-color="#426EB3" offset=".51"/>
   <stop stop-color="#3363AE" offset=".631"/>
   <stop stop-color="#2B5CAA" offset=".774"/>
   <stop stop-color="#285AA9" offset="1"/>
  </linearGradient>
  <path id="f" d="m145.81-0.001h344.54v79.99h-344.54z"/>
  <path id="c" d="m145.81 1.689h344.54v37.718h-344.54z"/>
  <path id="b" d="m5.718 1.689s3.062 16.505 22.382 30.341c0 0 9.802 7.377 16.248 7.377h101.46v-37.718h-140.09z"/>
 </defs>
 <clipPath>
  <use xlink:href="#j" height="100%" width="100%" y="0" x="0" overflow="visible"/>
 </clipPath>
 <clipPath>
  <use xlink:href="#f" height="100%" width="100%" y="0" x="0" overflow="visible"/>
 </clipPath>
 <clipPath>
  <use xlink:href="#c" height="100%" width="100%" y="0" x="0" overflow="visible"/>
 </clipPath>
 <clipPath>
  <use xlink:href="#b" height="100%" width="100%" y="0" x="0" overflow="visible"/>
 </clipPath>
 <path fill="#0e2d6d" d="m129.88 0.0008906h-123.41c-3.5584 0-6.47 2.9115-6.47 6.4715v58.313c0 3.558 2.9116 6.467 6.4724 6.467l123.41-0.008v-71.243z"/>
 <path opacity=".8" d="m129.88 1.4999h-124.79c0.0019 0 2.73 14.699 19.937 27.024 0 0 8.811 6.632 14.549 6.572h90.304v-33.596z" fill="url(#i)"/>
 <path fill="url(#h)" d="m129.88 71.244 306.89-0.006v-71.238h-306.89z"/>
 <path opacity=".8" d="m129.88 1.4999h306.9v33.596h-306.9z" fill="url(#g)"/>
 <path fill="#0e2d6d" d="m436.77 0h157.01c3.31 0 6.22 2.9142 6.22 6.4724v58.304c0 3.559-2.91 6.468-6.47 6.468l-156.76-0.008v-71.236z"/>
 <path opacity=".8" d="m436.77 1.5008h158.14s-2.73 14.698-19.94 27.025c0 0-8.81 6.63-14.55 6.57h-123.65v-33.595z" fill="url(#e)"/>
 <g fill="#fff">
  <path d="m558.18 45.164v-21.303h6.24c8.67 0 11.84 5.602 11.84 10.652 0 5.053-3.17 10.651-11.84 10.651h-6.24zm26.94-10.651c0-11.095-7.98-18.634-21.2-18.634h-9.01c-4.3 0-5.34 2.282-5.34 5.26v26.796c0 2.877 1.04 5.202 5.34 5.202h9.01c13.23 0 21.21-7.527 21.21-18.624m-49.58-4.312v-10.092c0-2.728 1.09-4.466 6.73-4.466 0.7 0 1.3 0.052 2 0.15v33.11c0 2.72-1.1 4.453-6.75 4.453-0.69 0-1.29-0.048-1.98-0.144v-15.037h-17.59v10.728c0 2.72-1.09 4.453-6.74 4.453-0.69 0-1.29-0.048-1.98-0.144v-33.103c0-2.728 1.09-4.466 6.74-4.466 0.69 0 1.28 0.052 1.98 0.15v14.408h17.59z"/>
  <path d="m486.05 48.563h4.8c3.03 0 6.13-1.407 6.13-7.404 0-0.704-0.07-1.549-0.21-2.254h-10.72v-25.303c-2.32-0.845-4.22-1.194-6.55-1.194-4.51 0-6.9 2.396-10.85 6.411l-15.86 16.774c-2.25 2.326-3.31 4.723-3.31 7.186 0 1.692 0.57 3.878 1.83 5.784h24.04v11.132c0.85 0.144 1.83 0.212 2.82 0.212 7.04 0 7.88-2.045 7.88-5.706v-5.639zm-10.7-23.262v13.604h-13.11l13.11-13.604z"/>
  <path d="m85.776 66.172c0.848 0.436 2.568 0.953 4.724 1.011 3.715 0.079 5.735-1.34 7.235-4.669l19.905-44.394c-0.82-0.437-2.65-0.928-4.12-0.956-2.57-0.055-6.01 0.465-8.19 5.708l-6.433 15.204-12.645-20.584c-0.819-0.246-2.812-0.601-4.261-0.601-4.475 0-6.96 1.637-9.555 4.451l-12.284 13.434 9.881 15.559c1.83 2.839 4.233 4.286 8.137 4.286 2.567 0 4.698-0.596 5.678-1.062l-11.903-17.938 8.437-8.956 13.842 21.731-8.434 17.776zm-26.111-16.793c0 3.276-1.284 5.163-7.672 5.163-0.848 0-1.583-0.058-2.294-0.167v-43.407c0-3.3039 1.119-6.7454 7.563-6.7454 0.819 0 1.637 0.0837 2.404 0.2458v44.911zm-13.177-6.551c0 6.114-3.987 10.565-12.096 11.44-5.87 0.628-14.361-0.111-18.4-0.574-0.138-0.656-0.247-1.473-0.247-2.129 0-5.326 2.866-6.552 5.568-6.552 2.813 0 7.236 0.49 10.514 0.49 3.629 0 4.721-1.23 4.721-2.403 0-1.53-1.445-2.155-4.259-2.702l-7.699-1.475c-6.389-1.23-9.801-5.653-9.801-10.348 0-5.704 4.04-10.483 11.986-11.355 6.006-0.656 13.322 0.08 17.337 0.572 0.137 0.683 0.218 1.337 0.218 2.047 0 5.325-2.812 6.472-5.514 6.472-2.076 0-5.296-0.383-8.983-0.383-3.741 0-5.296 1.039-5.296 2.292 0 1.338 1.474 1.883 3.823 2.293l7.345 1.365c7.534 1.392 10.784 5.679 10.784 10.949z"/>
  <path d="m186.34 45.783c0-7.642-4.97-11.359-12.9-13.11l-13.88-3.152c-2.52-0.561-4.63-1.334-4.63-3.857 0-2.735 2.18-3.785 8-3.785 6.87 0 8.48 0.35 14.72 0.35 2.87 0 5.82-1.333 5.82-7.01 0-0.703-0.07-1.474-0.21-2.175-4.21-0.349-11.71-0.771-20.96-0.771-13.95 0-19.28 6.03-19.28 13.74 0 7.221 4.56 11.221 12.62 13.111l13.88 3.224c3.22 0.768 4.98 2.173 4.98 4.205 0 2.736-2.46 3.787-8.28 3.787-6.87 0-10.02-0.49-16.26-0.49-2.88 0-5.82 1.329-5.82 7.009 0 0.701 0.07 1.471 0.21 2.174 4.21 0.417 13.25 0.911 22.5 0.911 13.96 0 19.49-5.958 19.49-14.162z"/>
  <path d="m300.9 33.445v-11.706h11c4.7 0 8.42 0.698 8.42 5.606 0 4.133-2.81 6.1-8.42 6.1h-11.01zm-0.07 9.253h5.81l11.24 13.389c2.09 2.593 4.13 3.927 8.9 3.927 3.22 0 5.39-0.419 7.14-1.264l-14.59-16.891c8.21-1.751 12.34-7.083 12.34-14.934 0-9.674-5.89-14.441-17.8-14.441l-17.04-0.068c-5.53 0.209-7.36 2.101-7.36 7.149v39.679c0.84 0.14 1.83 0.206 2.8 0.206 7.01 0 8.62-2.029 8.62-5.675l-0.05-11.077z"/>
  <path d="m202.82 34.707v-12.9h11.42c5.69 0 8.49 2.103 8.49 6.241 0 4.418-2.8 6.659-8.49 6.659h-11.42zm-11.43 24.538c0.84 0.139 1.83 0.206 2.8 0.206 7.02 0 8.63-2.029 8.63-5.675v-9.605h11.91c12.97 0 19.42-5.606 19.42-16.123 0-10.165-6.45-15.564-18.64-15.564h-16.75c-5.61 0-7.36 2.174-7.36 7.15v39.611z"/>
  <path d="m272.08 35.268c0 5.401-0.91 9.182-2.73 11.427-1.75 2.312-4.63 3.365-8.55 3.365-4-0.072-6.87-1.192-8.7-3.365-1.82-2.172-2.73-5.957-2.73-11.427 0-5.397 0.98-9.182 2.8-11.357 1.83-2.243 4.7-3.294 8.63-3.294 3.92 0 6.73 1.051 8.55 3.294 1.82 2.175 2.73 5.96 2.73 11.357zm-11.29 24.116c7.36 0 13.04-1.751 17.04-5.327 3.99-3.507 6.03-9.817 6.03-18.789-0.08-8.831-2.11-15.002-6.24-18.648-4.14-3.576-9.75-5.397-16.83-5.397s-12.69 1.82-16.82 5.397c-4.14 3.645-6.17 9.816-6.25 18.648 0 8.971 2.04 15.282 6.03 18.789 4 3.576 9.69 5.327 17.04 5.327z"/>
  <path d="m361.81 22.09h9.18c3.02 0 6.1-1.403 6.1-7.365 0-0.698-0.07-1.541-0.21-2.241h-35.68c-3.01 0-6.1 1.403-6.1 7.36 0 0.703 0.07 1.542 0.21 2.246h15.07v37.154c0.85 0.14 1.82 0.206 2.81 0.206 7 0 8.62-2.029 8.62-5.675v-31.685z"/>
  <path d="m421.89 45.783c0-7.642-4.98-11.359-12.9-13.11l-13.88-3.152c-2.52-0.561-4.63-1.334-4.63-3.857 0-2.735 2.18-3.785 7.99-3.785 6.88 0 8.49 0.35 14.73 0.35 2.87 0 5.82-1.333 5.82-7.01 0-0.703-0.07-1.474-0.21-2.175-4.21-0.349-11.71-0.771-20.97-0.771-13.94 0-19.27 6.03-19.27 13.74 0 7.221 4.55 11.221 12.61 13.111l13.88 3.224c3.23 0.768 4.98 2.173 4.98 4.205 0 2.736-2.45 3.787-8.27 3.787-6.87 0-10.02-0.49-16.27-0.49-2.87 0-5.81 1.329-5.81 7.009 0 0.701 0.07 1.471 0.21 2.174 4.2 0.417 13.25 0.911 22.5 0.911 13.97 0 19.51-5.958 19.51-14.162z"/>
 </g>
</svg>
