<svg xmlns="http://www.w3.org/2000/svg" height="99.59" width="600" viewBox="0 0 158.75 26.350447"><defs><linearGradient id="0" gradientUnits="userSpaceOnUse" gradientTransform="matrix(0-24.773-18.293 0 91.22 25.582)" x1="0" x2="1"><stop stop-color="#5a252a"/><stop stop-color="#cb082a" offset=".074"/><stop stop-color="#cb082a" offset=".916"/><stop stop-color="#e73440" offset="1"/></linearGradient><linearGradient id="1" gradientUnits="userSpaceOnUse" gradientTransform="matrix(0 95.201-87.015 0 353.34 2.304)" x1="0" x2="1"><stop stop-color="#141c4b"/><stop stop-color="#1a2b68" offset=".036"/><stop stop-color="#1a2b68" offset=".895"/><stop stop-color="#141c4b" offset="1"/></linearGradient></defs><path d="m3.364.818c-1.757.019-2.385 1.167-2.385 3.07v18.631c0 1.92.628 3.073 2.41 3.073h151.86c1.77 0 2.39-1.153 2.39-3.073v-18.631c0-1.904-.61-3.051-2.37-3.071-50.64 0-101.27 0-151.91 0z" stroke-width="9.925" fill="url(#1)"/><path stroke-width="3.051" d="m46.806 25.593h88.81z"/><path d="m3.794 0c-2.9 0-3.794 1.8-3.794 3.599v19.14c0 1.799.894 3.611 3.791 3.611h151.16.001c2.89 0 3.79-1.812 3.79-3.611v-19.14c0-1.8-.9-3.599-3.79-3.599h-151.17zm.126.238h150.9c1.96 0 3.28 1.156 3.28 3.075v19.712c0 1.918-1.32 3.075-3.28 3.075h-150.9c-1.955 0-3.276-1.157-3.276-3.075v-19.712c0-1.919 1.322-3.075 3.277-3.075" stroke-width="4.454" fill="#94979c"/><path stroke-width="2.36" fill="url(#0)" d="m46.806 25.593h88.81v-24.775h-88.81z"/><g fill="#fff"><path opacity=".4" d="m155.72 19.904c1.31 1.668 1.48 3.239 1.53 3.583.13 0 .17-.734.17-1.832v-17.619c0-2.042-.51-2.73-1.85-2.73-.45 0-.9.314-1.5.314h-149.55c-.605 0-1.057-.314-1.508-.314-1.334 0-1.846.688-1.846 2.73l-.004 17.619c0 1.098.047 1.832.174 1.832.047-.343.085-2.038 1.521-3.583 11.465-11.462 140.51-14.98 152.87 0" stroke-width="2.417"/><g stroke-width="1.178"><path d="m16.924 15.54c0 2.122-1.394 3.683-4.207 3.981-2.049.226-5.01-.036-6.412-.203l-.084-.739c0-1.846 1-2.276 1.943-2.276.977 0 2.514.167 3.659.167 1.263 0 1.644-.429 1.644-.834 0-.525-.513-.751-1.49-.93l-2.67-.524c-2.228-.429-3.42-1.967-3.42-3.599 0-1.979 1.406-3.647 4.172-3.957 2.097-.226 4.636.035 6.03.215l.083.704c0 1.858-.977 2.252-1.918 2.252-.727 0-1.848-.131-3.123-.131-1.312 0-1.848.357-1.848.799 0 .464.513.655 1.335.798l2.551.477c2.623.476 3.754 1.967 3.754 3.801m4.577 2.289c0 1.132-.441 1.787-2.669 1.787-.287 0-.55-.023-.788-.059v-15.1c0-1.145.382-2.336 2.622-2.336.287 0 .573.024.835.084v15.624m9.09 5.84c.286.142.883.333 1.633.345 1.299.025 2-.464 2.515-1.62l6.924-15.446c-.286-.155-.918-.322-1.431-.334-.893-.012-2.084.166-2.848 1.99l-2.24 5.291-4.397-7.162c-.287-.095-.979-.214-1.491-.214-1.548 0-2.419.572-3.312 1.55l-4.279 4.671 3.444 5.411c.632.99 1.466 1.49 2.825 1.49.893 0 1.632-.202 1.978-.357l-4.148-6.246 2.944-3.111 4.815 7.556-2.932 6.186"/><path d="m66.52 16.07c0-2.574-1.668-3.825-4.339-4.41l-4.671-1.06c-.846-.191-1.549-.441-1.549-1.3 0-.917.727-1.275 2.681-1.275 2.325 0 2.861.119 4.958.119.965 0 1.955-.441 1.955-2.359l-.072-.727c-1.406-.119-3.933-.263-7.04-.263-4.696 0-6.483 2.027-6.483 4.625 0 2.431 1.525 3.778 4.242 4.41l4.672 1.084c1.084.262 1.669.727 1.669 1.418 0 .918-.823 1.275-2.778 1.275-2.312 0-3.372-.167-5.482-.167-.965 0-1.954.454-1.954 2.36l.071.727c1.418.143 4.457.31 7.568.31 4.696 0 6.555-2 6.555-4.767"/><path d="m105.04 15.03h1.94l3.8 4.504c.7.871 1.38 1.324 2.99 1.324 1.08 0 1.82-.143 2.4-.429l-4.9-5.685c2.75-.584 4.14-2.383 4.14-5.02 0-3.255-1.97-4.863-5.98-4.863l-5.75-.024c-1.86.071-2.46.715-2.46 2.407v13.348c.27.047.6.071.94.071 2.36 0 2.9-.679 2.9-1.907l-.02-3.73m.02-3.11v-3.945h3.7c1.59 0 2.84.238 2.84 1.895 0 1.382-.95 2.05-2.84 2.05h-3.7"/><path d="m68.22 20.594c.286.047.62.071.942.071 2.36 0 2.908-.679 2.908-1.907v-3.23h4c4.362 0 6.531-1.894 6.531-5.434 0-3.408-2.169-5.232-6.268-5.232h-5.638c-1.895 0-2.479.739-2.479 2.407v13.325m3.85-8.247v-4.351h3.838c1.906 0 2.86.715 2.86 2.098 0 1.489-.954 2.253-2.86 2.253h-3.838"/><path d="m91.57 20.641c2.474 0 4.383-.584 5.726-1.787 1.344-1.18 2.039-3.302 2.039-6.329-.035-2.967-.719-5.04-2.109-6.269-1.391-1.203-3.276-1.811-5.656-1.811-2.388 0-4.271.608-5.666 1.811-1.382 1.228-2.073 3.302-2.097 6.269 0 3.03.691 5.149 2.026 6.329 1.347 1.203 3.266 1.787 5.737 1.787m3.794-8.116c0 1.824-.306 3.099-.919 3.849-.589.776-1.556 1.133-2.875 1.133-1.356-.024-2.317-.405-2.924-1.133-.608-.727-.918-2-.918-3.849 0-1.811.322-3.086.942-3.813.608-.762 1.568-1.109 2.9-1.109 1.319 0 2.262.346 2.875 1.109.613.727.919 2 .919 3.813"/><path d="m125.55 8.092h3.09c1.03 0 2.05-.466 2.05-2.479l-.06-.751h-12c-1.02 0-2.05.477-2.05 2.479l.07.751h5.07v12.502c.28.047.61.071.94.071 2.36 0 2.89-.679 2.89-1.907v-10.666"/></g><path stroke-width=".331" d="m146.67 14.373c1.95 0 2.78.542 2.78 1.52 0 .908-.83 1.615-3.25 1.615-2.48 0-3.58-.519-4.84-.495-.97 0-1.79.825-1.72 2.687 1.75.636 4.5 1.025 6.6 1.025 5.28 0 7.17-2.098 7.17-4.62 0-1.85-1.15-2.993-2.77-3.452 1.44-.59 2.57-1.662 2.57-3.383 0-2.18-1.59-4.348-6.73-4.348-2.22 0-4.67.424-6.42.931-.08 1.874.8 2.734 1.63 2.734.96 0 2.36-.507 4.62-.507 2.83 0 2.9 1 2.9 1.697 0 .978-.78 1.497-2.76 1.497h-4.36c-.08.259-.16.577-.16 1.072 0 1.591.65 2.027 1.96 2.027z"/></g></svg>