<svg xmlns="http://www.w3.org/2000/svg" height="84.05" width="600" viewBox="0 0 158.75 22.238044"><defs><linearGradient id="0" gradientUnits="userSpaceOnUse" gradientTransform="matrix(0-20.943-20.877 0 76.968 21.579)" x1="0" x2="1"><stop stop-color="#562228"/><stop stop-color="#c51e2c" offset=".074"/><stop stop-color="#c51e2c" offset=".911"/><stop stop-color="#e83c4c" offset="1"/></linearGradient><linearGradient id="1" gradientUnits="userSpaceOnUse" gradientTransform="matrix(0 21.296-21.281 0 21.02.468)" x1="0" x2="1"><stop stop-color="#1e2546"/><stop stop-color="#223362" offset=".036"/><stop stop-color="#223362" offset=".895"/><stop stop-color="#1e2546" offset="1"/></linearGradient></defs><path d="m3.196 0c-2.45 0-3.196 1.522-3.196 3.045v16.15c0 1.522.746 3.044 3.196 3.044h152.35c2.45 0 3.2-1.522 3.2-3.044v-16.15c0-1.522-.75-3.044-3.2-3.044zm.113.205h152.13c1.65 0 2.77.973 2.77 2.594v16.642c0 1.619-1.12 2.592-2.77 2.592h-152.13c-1.651 0-2.766-.973-2.766-2.592v-16.642c0-1.621 1.115-2.594 2.765-2.594z" fill="#939696"/><path d="m114.46.658v20.922h41.13c1.65 0 2.23-.974 2.23-2.594v-15.735c0-1.619-.58-2.593-2.23-2.593-13.71 0-27.42 0-41.13 0" fill="#181817"/><path stroke-width="3.159" fill="url(#1)" d="m3.02.657c-1.579 0-2.211.98-2.211 2.592v15.739c0 1.644.632 2.591 2.211 2.591h37.898v-20.922z"/><path stroke-width="3.155" fill="url(#0)" d="m39.481 21.579h74.979v-20.921h-74.979z"/><path d="m117.91 17.46l9.48-13.393h9.8c0 0-1.89 3.495-7.07 3.48l-1.76 2.467 3.42.137-2.5 3.52-3.5.045-2.62 3.744z" fill="#fff"/><path d="m134.32 13.583l6.77-9.516 11.53.396-10.3.529 9.52.529-10.27.396 9.61.485-10.14.485 9.48.485-10.22.44 9.56.573-10.23.397 9.48.397-10.18.528 9.65.442-10.18.528 9.43.395-10.09.486 9.26.441-9.96.528 9.38.485-7.9.519 7.19.598-6.56.38 5.9.528-6.65.397 5.87.529-6.55.441 5.96.529-8.41.528 2.76-3.862z" fill="#ec2432"/><g fill="#fff"><path opacity=".4" d="m112.61 16.76c1.42 1.405 1.8 2.731 1.84 3.02v-18.438h-109.79c-.662 0-1.154-.262-1.65-.262-1.462 0-2.02.581-2.02 2.298l-.006 14.854c0 .925.051 1.547.189 1.547.054-.291.095-1.72 1.667-3.02 12.559-9.663 96.23-12.628 109.77 0" stroke-width="3.157"/><g><path d="m14.274 13.12c0 1.79-1.172 3.099-3.549 3.358-1.723.185-4.218-.033-5.403-.17-.043-.193-.078-.433-.078-.622 0-1.569.848-1.926 1.642-1.926.823 0 2.122.143 3.089.143 1.06 0 1.385-.361 1.385-.703 0-.45-.429-.637-1.253-.795l-2.256-.433c-1.878-.359-2.879-1.659-2.879-3.037 0-1.676 1.185-3.078 3.518-3.336 1.763-.191 3.908.025 5.086.169.045.202.067.393.067.604 0 1.562-.825 1.899-1.618 1.899-.61 0-1.558-.115-2.637-.115-1.101 0-1.557.304-1.557.676 0 .391.435.553 1.124.673l2.156.399c2.215.409 3.164 1.668 3.164 3.216m3.87 1.922c0 .962-.377 1.515-2.252 1.515-.248 0-.466-.017-.674-.048v-12.745c0-.967.329-1.978 2.223-1.978.238 0 .479.026.703.071v13.184m7.666 4.931c.246.125.751.277 1.386.295 1.088.023 1.683-.395 2.123-1.369l5.843-13.03c-.241-.13-.774-.274-1.212-.284-.75-.014-1.758.139-2.404 1.677l-1.892 4.466-3.71-6.04c-.241-.074-.824-.178-1.253-.178-1.308 0-2.041.482-2.801 1.307l-3.608 3.946 2.902 4.568c.536.832 1.243 1.255 2.391 1.255.75 0 1.376-.17 1.665-.309l-3.494-5.268 2.476-2.624 4.062 6.376-2.474 5.22"/><path d="m56.13 13.563c0-2.169-1.412-3.225-3.663-3.722l-3.941-.896c-.717-.159-1.314-.378-1.314-1.095 0-.776.618-1.074 2.269-1.074 1.951 0 2.409.098 4.181.098.817 0 1.652-.378 1.652-1.989 0-.2-.02-.419-.059-.618-1.195-.099-3.325-.219-5.952-.219-3.961 0-5.475 1.712-5.475 3.901 0 2.05 1.295 3.186 3.583 3.722l3.942.916c.915.219 1.413.617 1.413 1.194 0 .777-.697 1.075-2.348 1.075-1.951 0-2.846-.139-4.618-.139-.816 0-1.652.378-1.652 1.991 0 .199.02.418.06.617 1.194.118 3.762.258 6.388.258 3.961 0 5.534-1.692 5.534-4.02"/><path d="m88.64 12.688h1.652l3.189 3.8c.596.737 1.174 1.116 2.528 1.116.916 0 1.533-.119 2.029-.359l-4.143-4.796c2.329-.497 3.503-2.01 3.503-4.24 0-2.747-1.672-4.101-5.06-4.101l-4.836-.02c-1.573.06-2.091.597-2.091 2.032v11.265c.238.04.518.059.797.059 1.989 0 2.447-.576 2.447-1.611l-.02-3.145m.02-2.628v-3.323h3.125c1.334 0 2.389.198 2.389 1.591 0 1.173-.796 1.732-2.389 1.732h-3.125"/><path d="m57.57 17.386c.239.039.519.058.796.058 1.991 0 2.449-.576 2.449-1.611v-2.727h3.384c3.682 0 5.512-1.593 5.512-4.579 0-2.886-1.83-4.419-5.294-4.419h-4.757c-1.592 0-2.09.617-2.09 2.03v11.247m3.245-6.967v-3.663h3.244c1.613 0 2.41.597 2.41 1.772 0 1.255-.797 1.892-2.41 1.892h-3.244"/><path d="m77.27 17.425c2.09 0 3.702-.498 4.837-1.513 1.134-.995 1.713-2.787 1.713-5.335-.023-2.506-.599-4.259-1.773-5.294-1.174-1.015-2.766-1.532-4.777-1.532s-3.603.516-4.778 1.532c-1.174 1.035-1.751 2.788-1.771 5.294 0 2.548.577 4.34 1.712 5.335 1.133 1.015 2.747 1.513 4.837 1.513m3.204-6.848c0 1.534-.258 2.608-.776 3.245-.498.657-1.314.956-2.428.956-1.135-.022-1.95-.339-2.469-.956-.516-.617-.776-1.692-.776-3.245 0-1.532.279-2.606.796-3.224.519-.637 1.334-.936 2.449-.936 1.114 0 1.911.299 2.428.936.518.618.776 1.692.776 3.224"/><path d="m105.95 6.836h2.61c.86 0 1.73-.398 1.73-2.091 0-.198-.02-.438-.06-.636h-10.13c-.854 0-1.73.398-1.73 2.089 0 .2.02.438.061.638h4.279v10.549c.24.04.52.06.8.06 1.99 0 2.44-.577 2.44-1.613v-8.996"/></g></g></svg>