<svg xmlns="http://www.w3.org/2000/svg" height="63.58" xmlns:xlink="http://www.w3.org/1999/xlink" viewBox="0 0 599.99999 63.581126"><defs><path id="0" d="m490.36 1.689v37.718h423.87c6.45 0 16.25-7.377 16.25-7.377 19.32-13.836 22.38-30.341 22.38-30.341h-462.5"/><path id="1" d="m145.81 0h344.54v79.99h-344.54z"/><path id="2" d="m145.81 1.689h344.54v37.718h-344.54z"/><path id="3" d="m5.718 1.689s3.062 16.505 22.382 30.341c0 0 9.802 7.377 16.248 7.377h101.46v-37.718h-140.09"/><clipPath><use xlink:href="#0"/></clipPath><clipPath><use xlink:href="#3"/></clipPath><clipPath><use xlink:href="#1"/></clipPath><clipPath><use xlink:href="#2"/></clipPath><linearGradient id="6" gradientUnits="userSpaceOnUse" y1="63.57" x2="0" y2="0"><stop stop-color="#d92231"/><stop stop-color="#d12130" offset=".193"/><stop stop-color="#bd1f2c" offset=".448"/><stop stop-color="#9d1a26" offset=".735"/><stop stop-color="#7c131d" offset="1"/></linearGradient><linearGradient id="5" gradientUnits="userSpaceOnUse" y1="1.338" x2="0" y2="31.32"><stop stop-color="#fff"/><stop stop-color="#fae1e3" offset=".048"/><stop stop-color="#f2b4b9" offset=".13"/><stop stop-color="#eb8d95" offset=".217"/><stop stop-color="#e66c76" offset=".31"/><stop stop-color="#e1515d" offset=".408"/><stop stop-color="#dd3c49" offset=".515"/><stop stop-color="#db2d3b" offset=".634"/><stop stop-color="#d92533" offset=".776"/><stop stop-color="#d92231" offset="1"/></linearGradient><linearGradient id="4" gradientUnits="userSpaceOnUse" y1="1.338" x2="0" y2="31.32"><stop stop-color="#fff"/><stop stop-color="#e7ecf5" offset=".039"/><stop stop-color="#bacae4" offset=".122"/><stop stop-color="#93acd4" offset=".21"/><stop stop-color="#7293c7" offset=".303"/><stop stop-color="#577ebc" offset=".403"/><stop stop-color="#426eb3" offset=".51"/><stop stop-color="#3363ae" offset=".631"/><stop stop-color="#2b5caa" offset=".774"/><stop stop-color="#285aa9" offset="1"/></linearGradient></defs><path fill="#0e2d6d" d="m115.9 0h-110.12c-3.182 0-5.78 2.598-5.78 5.775v52.03c0 3.175 2.598 5.771 5.776 5.771l110.12-.007v-63.57z"/><path opacity=".8" d="m115.9 1.338h-111.36c.004 0 2.438 13.12 17.793 24.11 0 0 7.862 5.918 12.982 5.865h80.59v-29.98" fill="url(#4)"/><path fill="url(#6)" d="m388.55 0h-272.65v63.57l272.65-.005z"/><path opacity=".8" d="m115.9 1.338h269.89s-2.43 13.12-17.78 24.11c0 0-7.87 5.918-11.17 5.865h-240.94v-29.98" fill="url(#5)"/><path d="m388.55 0h205.9c2.95 0 5.55 2.6 5.55 5.776v52.03c0 3.175-2.6 5.771-5.77 5.771l-205.67-.007v-63.57z"/><g fill="#fff"><path d="m562.69 40.3v-19.01h5.56c7.74 0 10.57 4.999 10.57 9.505 0 4.509-2.83 9.507-10.57 9.507h-5.56m24.04-9.506c0-9.9-7.12-16.628-18.92-16.628h-8.03c-3.85 0-4.77 2.037-4.77 4.694v23.912c0 2.567.92 4.642 4.77 4.642h8.03c11.8 0 18.93-6.717 18.93-16.62m-44.24-3.847v-9.01c0-2.434.97-3.985 6.01-3.985.62 0 1.15.047 1.77.133v29.546c0 2.428-.98 3.973-6.02 3.973-.61 0-1.15-.043-1.76-.128v-13.418h-15.7v9.572c0 2.429-.97 3.974-6.01 3.974-.62 0-1.15-.043-1.77-.129v-29.539c0-2.435.97-3.985 6.01-3.985.62 0 1.15.046 1.77.133v12.857h15.7z"/><path d="m399.78 53.53l30.24-42.76h31.29s-6.02 11.16-22.57 11.12l-5.63 7.875 10.93.436-7.97 11.237-11.19.146-8.36 11.95h-16.74"/></g><path fill="#ee2e27" d="m452.15 41.15l21.61-30.384 36.82 1.266-32.88 1.689 30.38 1.688-32.77 1.265 30.67 1.552-32.36 1.544 30.25 1.548-32.63 1.406 30.52 1.829-32.64 1.262 30.24 1.273-32.49 1.683 30.81 1.41-32.49 1.684 30.1 1.269-32.22 1.551 29.56 1.403-31.8 1.689 29.96 1.546-25.23 1.66 22.96 1.907-20.95 1.214 18.86 1.687-21.24 1.268 18.74 1.688-20.93 1.406 19.04 1.688-26.84 1.685 8.81-12.328z"/><g fill="#fff"><path d="m76.54 59.05c.757.388 2.292.85 4.216.902 3.315.071 5.117-1.196 6.456-4.166l17.757-39.615c-.73-.39-2.36-.828-3.67-.853-2.295-.049-5.365.415-7.313 5.094l-5.738 13.566-11.283-18.368c-.731-.219-2.509-.535-3.802-.535-3.994 0-6.211 1.46-8.527 3.971l-10.961 11.988 8.817 13.883c1.633 2.534 3.778 3.825 7.261 3.825 2.291 0 4.192-.532 5.067-.948l-10.622-16.01 7.528-7.992 12.353 19.392-7.527 15.862zm-23.3-14.985c0 2.923-1.146 4.607-6.846 4.607-.756 0-1.412-.052-2.046-.15v-38.733c0-2.948.998-6.02 6.748-6.02.731 0 1.461.075 2.145.219v40.08m-11.759-5.846c0 5.456-3.558 9.428-10.794 10.208-5.237.561-12.815-.099-16.419-.512-.123-.586-.22-1.314-.22-1.9 0-4.752 2.557-5.846 4.969-5.846 2.51 0 6.456.437 9.381.437 3.239 0 4.213-1.098 4.213-2.145 0-1.365-1.29-1.922-3.8-2.41l-6.87-1.316c-5.701-1.099-8.746-5.05-8.746-9.235 0-5.089 3.605-9.354 10.695-10.132 5.359-.586 11.888.071 15.471.51.122.61.194 1.193.194 1.827 0 4.751-2.509 5.775-4.92 5.775-1.852 0-4.726-.342-8.02-.342-3.338 0-4.726.928-4.726 2.046 0 1.194 1.315 1.68 3.412 2.046l6.554 1.218c6.722 1.242 9.623 5.068 9.623 9.77z"/><path d="m166.28 40.854c0-6.82-4.44-10.136-11.51-11.699l-12.39-2.813c-2.25-.5-4.13-1.19-4.13-3.441 0-2.441 1.94-3.378 7.13-3.378 6.14 0 7.57.313 13.14.313 2.57 0 5.19-1.19 5.19-6.256 0-.627-.06-1.315-.18-1.941-3.76-.31-10.45-.687-18.71-.687-12.44 0-17.2 5.38-17.2 12.261 0 6.443 4.07 10.01 11.26 11.699l12.39 2.877c2.87.685 4.44 1.939 4.44 3.752 0 2.441-2.19 3.379-7.38 3.379-6.13 0-8.95-.437-14.52-.437-2.56 0-5.19 1.186-5.19 6.255 0 .625.06 1.312.19 1.939 3.75.373 11.82.813 20.08.813 12.45 0 17.39-5.316 17.39-12.637"/><path d="m268.5 29.844v-10.445h9.82c4.19 0 7.51.623 7.51 5 0 3.688-2.5 5.443-7.51 5.443h-9.83zm-.06 8.257h5.19l10.02 11.948c1.87 2.313 3.69 3.504 7.94 3.504 2.88 0 4.82-.375 6.38-1.128l-13.02-15.07c7.32-1.562 11.01-6.32 11.01-13.325 0-8.633-5.26-12.887-15.89-12.887l-15.2-.061c-4.94.187-6.57 1.875-6.57 6.38v35.406c.75.125 1.63.185 2.51.185 6.25 0 7.69-1.811 7.69-5.065l-.05-9.884z"/><path d="m180.98 30.97v-11.511h10.2c5.07 0 7.57 1.876 7.57 5.569 0 3.943-2.5 5.942-7.57 5.942h-10.2m-10.2 21.896c.76.125 1.63.185 2.51.185 6.25 0 7.69-1.811 7.69-5.065v-8.57h10.63c11.58 0 17.33-5 17.33-14.388 0-9.07-5.75-13.888-16.64-13.888h-14.94c-5.01 0-6.57 1.939-6.57 6.38v35.35z"/><path d="m242.79 31.471c0 4.82-.81 8.193-2.44 10.197-1.56 2.063-4.13 3-7.63 3-3.57-.065-6.13-1.064-7.76-3-1.62-1.939-2.44-5.316-2.44-10.197 0-4.816.88-8.194 2.5-10.135 1.63-2 4.2-2.939 7.7-2.939s6 .938 7.63 2.939c1.62 1.941 2.44 5.319 2.44 10.135m-10.08 21.52c6.57 0 11.64-1.563 15.21-4.754 3.56-3.129 5.38-8.76 5.38-16.766-.07-7.88-1.88-13.387-5.57-16.641-3.7-3.191-8.7-4.815-15.02-4.815-6.31 0-11.32 1.624-15.01 4.815-3.69 3.253-5.51 8.76-5.57 16.641 0 8.01 1.82 13.637 5.38 16.766 3.57 3.191 8.64 4.754 15.2 4.754"/><path d="m322.85 19.712h8.2c2.69 0 5.44-1.252 5.44-6.572 0-.623-.06-1.375-.19-2h-31.84c-2.68 0-5.44 1.252-5.44 6.567 0 .628.06 1.376.19 2h13.45v33.15c.75.125 1.62.185 2.5.185 6.25 0 7.69-1.811 7.69-5.065v-28.27"/><path d="m376.47 40.854c0-6.82-4.45-10.136-11.51-11.699l-12.39-2.813c-2.25-.5-4.13-1.19-4.13-3.441 0-2.441 1.94-3.378 7.13-3.378 6.14 0 7.57.313 13.14.313 2.57 0 5.19-1.19 5.19-6.256 0-.627-.05-1.315-.18-1.941-3.76-.31-10.45-.687-18.71-.687-12.45 0-17.2 5.38-17.2 12.261 0 6.443 4.06 10.01 11.26 11.699l12.38 2.877c2.88.685 4.45 1.939 4.45 3.752 0 2.441-2.19 3.379-7.38 3.379-6.13 0-8.95-.437-14.52-.437-2.57 0-5.19 1.186-5.19 6.255 0 .625.06 1.312.19 1.939 3.75.373 11.82.813 20.08.813 12.46 0 17.4-5.316 17.4-12.637z"/></g></svg>