<svg xmlns="http://www.w3.org/2000/svg" height="90.05" width="599.99" viewBox="0 0 600.03535 90.053625"><defs><linearGradient id="3" gradientUnits="userSpaceOnUse" x2="0" y1="4.107" y2="22.577"><stop stop-color="#d4442f"/><stop stop-color="#83332a" offset=".844"/><stop stop-color="#83332a" offset="1"/></linearGradient><linearGradient id="2" gradientUnits="userSpaceOnUse" x2="0" y1="90.05" y2="-.008"><stop stop-color="#4f000c"/><stop stop-color="#4f000c" offset=".006"/><stop stop-color="#83332a" offset=".495"/><stop stop-color="#83332a" offset="1"/></linearGradient><linearGradient id="0" gradientUnits="userSpaceOnUse" x2="0" y1="4.107" y2="22.577"><stop stop-color="#f47632"/><stop stop-color="#ef3f35" offset=".844"/><stop stop-color="#ef3f35" offset="1"/></linearGradient><linearGradient id="1" gradientUnits="userSpaceOnUse" x2="0" y1="90.05" y2="-.008"><stop stop-color="#9b1d20"/><stop stop-color="#ef3f35" offset=".495"/><stop stop-color="#ef3f35" offset="1"/></linearGradient></defs><path fill="url(#2)" d="m8.63-.003c-4.77 0-8.63 4.22-8.63 9.451v71.14c0 5.225 3.86 9.464 8.63 9.464h171.86c4.77 0 8.65-4.239 8.65-9.464v-71.14c0-5.231-3.88-9.451-8.65-9.451h-171.86"/><path fill="url(#3)" d="m11.12 4.107c-3.681 0-6.671 4.14-6.671 9.231 0 5.1 2.99 9.24 6.671 9.24h141.54c3.7 0 6.67-4.14 6.67-9.24 0 0-2.97-9.231-6.67-9.231h-141.54"/><path fill="url(#1)" d="m154.93-.003c-4.78 0-8.63 4.22-8.63 9.451v80.61h238.21c4.77 0 8.64-4.239 8.64-9.464v-80.59h-238.22"/><path fill="url(#0)" d="m147.8 4.107c-.94 1.53-1.5 3.35-1.5 5.34v13.13h242.2v-18.471h-240.7"/><path fill="url(#2)" d="m373.19-.003c-4.78 0-8.62 4.22-8.62 9.451v80.61h226.84c4.77 0 8.63-4.239 8.63-9.464v-80.59h-226.85"/><path fill="url(#3)" d="m366.06 4.107c-.94 1.53-1.49 3.35-1.49 5.34v13.13h230.82v-18.471h-229.33"/><path fill="#f9b32f" d="m49.31 53.52c0 7.611-4.96 13.163-15.07 14.247-7.29.772-17.861-.131-22.901-.723-.17-.805-.3-1.824-.3-2.645 0-6.618 3.57-8.149 6.94-8.149 3.5 0 9 .61 13.07.61 4.52 0 5.89-1.53 5.89-2.99 0-1.91-1.81-2.7-5.31-3.37l-9.581-1.84c-7.95-1.53-12.21-7.03-12.21-12.881 0-7.1 5.03-13.05 14.92-14.13 7.481-.82 16.601.1 21.592.7.16.86.28 1.661.28 2.551 0 6.64-3.5 8.05-6.871 8.05-2.59 0-6.6-.48-11.19-.48-4.651 0-6.591 1.3-6.591 2.86 0 1.68 1.83 2.35 4.751 2.86l9.15 1.69c9.391 1.751 13.431 7.091 13.431 13.641m16.391 8.151c0 4.092-1.59 6.425-9.541 6.425-1.05 0-1.97-.066-2.84-.198v-54.04c0-4.11 1.38-8.4 9.391-8.4 1.04 0 2.04.1 2.99.32v55.894zm32.521 20.917c1.051.542 3.205 1.183 5.885 1.248 4.61.099 7.13-1.659 9-5.799l24.78-55.28c-1.02-.54-3.29-1.15-5.13-1.18-3.2-.08-7.47.58-10.2 7.101l-8.02 18.931-15.74-25.632c-1.019-.3-3.5-.74-5.291-.74-5.587 0-8.674 2.03-11.894 5.531l-15.301 16.731 12.291 19.371c2.29 3.532 5.28 5.34 10.139 5.34 3.187 0 5.85-.756 7.07-1.331l-14.825-22.33 10.519-11.161 17.216 27.06-10.495 22.14"/><g fill="#fff" transform="matrix(1.0001 0 0 1.0001 187.63 163.55)"><path d="m10.702-141.18h-.295-43.36v5.91h18.336v39.565h6.933v-39.565h18.385v-5.91"/><path d="m33.584-119.95v5.94h19.716c-.362 2.43-.789 4.78-3.418 7.64-5.03 5.4-12.47 5.83-14.606 5.83-2.776 0-12.158-.59-17-8.07-.903-1.38-3.01-5.14-3.01-10.28 0-11.92 10.153-17.27 20.19-17.27 5.356 0 10.449 1.76 13.998 4.83 1.315 1.15 1.955 2.07 2.744 3.22l.115.18.279.03 6.638-2.02-.411-.69c-.903-1.49-1.889-3.2-4.222-5.17-2.3-1.96-8.807-6.49-19.65-6.49-9.858 0-18.5 4.02-23.13 10.76-1.479 2.2-3.927 6.82-3.927 13.01 0 13.6 11.172 23.873 25.975 23.873 7.903 0 14.11-2.596 17.285-5.03.016 0 1.922-1.695 1.922-1.695s.066-.06.098-.08v5.784h6.112v-24.304h-25.696"/><path d="m114.24-95.73h-47.561v-9.35c1.61-2.96 3.844-7 12.11-11.78 1.873-1.07 2.826-1.48 11.37-5.39 4.715-2.15 7.262-3.28 7.262-6.11 0-3.89-5.586-4.04-7.394-4.04-1.889 0-3.762.2-5.306 1.21-2.564 1.63-2.629 4.11-2.711 5.79l-13.999-.35c.28-3.41.493-6.59 2.711-9.81 2.892-3.99 7.279-6.52 21.06-6.52 10.137 0 15.547 1.87 18.697 5.26 2.15 2.28 3.02 4.96 3.02 7.94 0 6.63-5.65 10.21-10.28 12.43-2.7 1.28-5.522 2.35-8.216 3.55-1.742.77-6.917 3.04-10.499 5.67-.46.26-.871.61-1.265.94.657-.05 1.331-.05 2-.05.756-.09 1.413-.09 2.169-.09h26.827v10.7"/><path d="m146.71-129.23l-14.39 14.52h14.39v-14.52m-3.02-12.04h18.22v26.56h7.93v10.7h-8.05v8.279h-15.15v-8.279h-29.87v-9.94l26.92-27.32"/><path d="m190.33-96.52v-45.757h32.34v9.36h-21.43v8.1h19.57v9.14h-19.57v9.82h22.12v9.337h-33.03"/><path d="m239.55-96.52l-14.62-45.757h11.55l6 23.51c.08.4.24 1.04.47 1.92.74 2.83 1.3 5.19 1.68 7.08.21-.92.48-2.02.79-3.28.31-1.27.74-2.93 1.3-4.98l6.26-24.25h11.46l-14.68 45.757h-10.21"/><path d="m268-96.52v-45.757h32.34v9.36h-21.43v8.1h19.57v9.14h-19.57v9.82h22.12v9.337h-33.03"/><path d="m307.44-96.52v-45.757h11.78l8.02 15.03c1.31 2.45 2.55 4.87 3.73 7.27 1.17 2.41 2.28 4.78 3.32 7.11-.15-3.45-.26-6.69-.35-9.73-.08-3.02-.11-5.68-.11-7.98v-11.7h10.53v45.757h-11.76l-8.37-15.477c-.97-1.82-2.03-3.86-3.2-6.13-1.15-2.27-2.37-4.71-3.66-7.34.21 2.97.36 5.75.46 8.31.09 2.58.14 4.85.14 6.84v13.797h-10.53"/><path d="m361.29-96.52v-36.477h-12.18v-9.28h35.26v9.28h-12.17v36.477h-10.91"/><path d="m389.45-142.3h10.87v45.762h-10.87v-45.762"/></g></svg>