<svg xmlns="http://www.w3.org/2000/svg" width="599.99" viewBox="0 0 600.03535 68.150138"><defs><linearGradient id="3" gradientUnits="userSpaceOnUse" x2="0" y1="3.118" y2="17.1"><stop stop-color="#d4442f"/><stop stop-color="#83332a" offset=".844"/><stop stop-color="#83332a" offset="1"/></linearGradient><linearGradient id="2" gradientUnits="userSpaceOnUse" x2="0" y1="68.15" y2=".002"><stop stop-color="#4f000c"/><stop stop-color="#4f000c" offset=".006"/><stop stop-color="#83332a" offset=".495"/><stop stop-color="#83332a" offset="1"/></linearGradient><linearGradient id="0" gradientUnits="userSpaceOnUse" x2="0" y1="3.118" y2="17.1"><stop stop-color="#f47632"/><stop stop-color="#ef3f35" offset=".844"/><stop stop-color="#ef3f35" offset="1"/></linearGradient><linearGradient id="1" gradientUnits="userSpaceOnUse" x2="0" y1="68.15" y2=".002"><stop stop-color="#9b1d20"/><stop stop-color="#ef3f35" offset=".495"/><stop stop-color="#ef3f35" offset="1"/></linearGradient></defs><path fill="url(#2)" d="m6.477-.002c-3.307 0-6.05 2.72-6.477 6.22v55.713c.423 3.52 3.17 6.22 6.477 6.22h130.05c3.61 0 6.53-3.2 6.53-7.16v-53.843c0-3.941-2.92-7.151-6.53-7.151h-130.05"/><path fill="url(#3)" d="m8.355 3.128c-2.785 0-5.05 3.13-5.05 6.971 0 3.88 2.263 7 5.05 7h107.12c2.79 0 5.04-3.12 5.04-7 0 0-2.25-6.971-5.04-6.971h-107.12"/><path fill="url(#1)" d="m117.19-.002c-3.61 0-6.53 3.21-6.53 7.15v61h180.26c3.61 0 6.54-3.2 6.54-7.16v-60.994h-180.27"/><path fill="url(#0)" d="m111.8 3.128c-.72 1.14-1.14 2.53-1.14 4.02v9.95h183.27v-13.971h-182.13"/><path fill="url(#2)" d="m282.36-.002c-3.61 0-6.54 3.21-6.54 7.15v61h317.67c3.61 0 6.55-3.2 6.55-7.16v-60.994h-317.68"/><path fill="url(#3)" d="m276.96 3.128c-.72 1.14-1.14 2.53-1.14 4.02v9.95h320.69v-13.971h-319.55"/><path fill="#f9b32f" d="m37.26 40.51c0 5.761-3.754 9.961-11.402 10.781-5.52.58-13.514-.1-17.332-.55-.123-.61-.224-1.38-.224-2 0-5.01 2.699-6.16 5.248-6.16 2.648 0 6.813.46 9.896.46 3.419 0 4.452-1.161 4.452-2.271 0-1.44-1.368-2.04-4.02-2.55l-7.249-1.39c-6.02-1.16-9.239-5.32-9.239-9.75 0-5.371 3.806-9.871 11.291-10.691 5.657-.62 12.558.08 16.337.54.125.64.212 1.25.212 1.92 0 5.03-2.648 6.101-5.197 6.101-1.965 0-4.999-.37-8.468-.37-3.519 0-4.986.99-4.986 2.17 0 1.27 1.38 1.78 3.594 2.16l6.925 1.28c7.1 1.32 10.158 5.36 10.158 10.32m12.409 6.171c0 3.09-1.206 4.86-7.224 4.86-.796 0-1.492-.05-2.151-.15v-40.892c0-3.11 1.044-6.361 7.113-6.361.783 0 1.541.08 2.262.24v42.3zm24.605 15.831c.8.41 2.43.89 4.45.94 3.5.07 5.401-1.26 6.821-4.391l18.742-41.822c-.77-.41-2.48-.87-3.87-.9-2.432-.06-5.662.44-7.732 5.37l-6.06 14.331-11.911-19.401c-.77-.22-2.65-.56-4.01-.56-4.22 0-6.561 1.54-9 4.19l-11.574 12.661 9.304 14.661c1.72 2.67 3.99 4.04 7.671 4.04 2.41 0 4.42-.58 5.34-1.01l-11.211-16.901 7.961-8.44 13.03 20.481-7.95 16.751"/><g fill="#fff" transform="matrix(1.0001 0 0 1.0001-46.82-332.68)"><path d="m196.84 349.59h-.22-32.81v4.47h13.87v29.94h5.25v-29.94h13.91v-4.47"/><path d="m214.16 365.66v4.49h14.92c-.28 1.84-.6 3.62-2.6 5.78-3.79 4.09-9.43 4.41-11.04 4.41-2.1 0-9.2-.45-12.87-6.1-.68-1.05-2.28-3.89-2.28-7.79 0-9.01 7.69-13.06 15.28-13.06 4.06 0 7.91 1.33 10.6 3.65.99.87 1.48 1.57 2.07 2.44l.09.14.21.02 5.02-1.53-.31-.52c-.68-1.13-1.43-2.42-3.19-3.92-1.74-1.48-6.67-4.91-14.87-4.91-7.46 0-14 3.05-17.51 8.15-1.12 1.66-2.97 5.16-2.97 9.84 0 10.3 8.46 18.07 19.66 18.07 5.98 0 10.68-1.97 13.08-3.81.001 0 1.45-1.28 1.45-1.28s.05-.05.08-.06v4.38h4.62v-18.39h-19.44"/><path d="m275.19 383.99h-35.99v-7.08c1.22-2.24 2.91-5.3 9.16-8.91 1.42-.81 2.14-1.12 8.61-4.08 3.56-1.63 5.49-2.49 5.49-4.63 0-2.94-4.23-3.05-5.59-3.05-1.43 0-2.85.14-4.02.92-1.94 1.23-1.99 3.1-2.05 4.37l-10.59-.26c.21-2.59.37-4.97 2.05-7.42 2.19-3.02 5.51-4.94 15.94-4.94 7.67 0 11.76 1.42 14.15 3.98 1.62 1.73 2.28 3.76 2.28 6.01 0 5.02-4.27 7.73-7.78 9.41-2.04.97-4.18 1.78-6.22 2.68-1.31.59-5.23 2.3-7.94 4.29-.35.2-.66.46-.96.71.5-.04 1.01-.04 1.52-.04.57-.06 1.07-.06 1.64-.06h20.3v8.1"/><path d="m299.76 358.63l-10.89 10.99h10.89v-10.99m-2.29-9.11h13.79v20.1h6.01v8.1h-6.1v6.26h-11.46v-6.26h-22.6v-7.53l20.36-20.67"/><path d="m340.49 364.04h5.47c1.48 0 2.57-.34 3.28-1.02s1.06-1.74 1.06-3.17c0-1.38-.36-2.41-1.09-3.1-.75-.68-1.86-1.01-3.35-1.01h-5.37v8.3m-8.28 19.35v-34.64h14.73c3.73 0 6.57.93 8.52 2.78 1.95 1.87 2.92 4.55 2.92 8.06 0 3.68-.96 6.51-2.88 8.48-1.92 1.96-4.69 2.95-8.3 2.95h-6.71v12.37h-8.28"/><path d="m371.19 363.59h6.14c1.67 0 2.89-.34 3.67-1 .77-.66 1.17-1.7 1.17-3.14 0-1.28-.39-2.23-1.15-2.85-.75-.62-1.91-.92-3.48-.92h-6.35v7.91m-8.19 19.79v-34.63h15.4c4.08 0 7.08.79 9.02 2.35 1.92 1.57 2.89 4 2.89 7.29 0 1.94-.42 3.61-1.24 5-.82 1.38-2.1 2.55-3.83 3.48 1.4.58 2.41 1.38 2.98 2.37.59 1 .92 2.75 1.01 5.25.04.71.09 1.65.14 2.85.1 2.79.54 4.41 1.34 4.85v1.19h-8.63c-.43-1.22-.67-2.9-.73-5.04-.06-2.12-.11-3.46-.18-4.01-.13-1.36-.56-2.34-1.26-2.97-.71-.62-1.78-.94-3.21-.94h-5.51v12.96h-8.19"/><path d="m396.09 348.75h8.24v34.63h-8.24v-34.63"/><path d="m410.85 383.38v-34.62h11.34l4.24 16.84c.39 1.5.72 2.94 1.03 4.34.3 1.41.57 2.78.81 4.11.27-1.41.59-2.89.95-4.43.34-1.54.74-3.21 1.19-4.97l4-15.89h11.33v34.62h-7.52v-15.35c0-1.08.03-2.6.08-4.55s.13-4.2.23-6.75l-6.19 26.65h-8.18l-6.06-26.65c.1 3.07.18 5.83.24 8.28s.08 4.37.08 5.75v12.62h-7.57"/><path d="m459.15 366.11c0 3.52.68 6.23 2.01 8.11 1.33 1.87 3.24 2.81 5.73 2.81 2.51 0 4.44-.94 5.78-2.81 1.35-1.88 2.03-4.59 2.03-8.11 0-3.51-.68-6.2-2.03-8.09-1.34-1.88-3.27-2.83-5.78-2.83-2.49 0-4.4.94-5.73 2.81-1.33 1.88-2.01 4.59-2.01 8.11m-8.36 0c0-5.62 1.44-10.07 4.34-13.34 2.89-3.26 6.81-4.9 11.77-4.9 4.97 0 8.91 1.64 11.84 4.91 2.92 3.28 4.39 7.72 4.39 13.33s-1.47 10.05-4.39 13.33c-2.93 3.27-6.87 4.91-11.84 4.91-4.96 0-8.88-1.63-11.77-4.9-2.9-3.27-4.34-7.72-4.34-13.34"/><path d="m503.74 364.04h5.47c1.48 0 2.58-.34 3.28-1.02.71-.68 1.06-1.74 1.06-3.17 0-1.38-.36-2.41-1.09-3.1-.75-.68-1.86-1.01-3.35-1.01h-5.37v8.3m-8.28 19.35v-34.64h14.73c3.73 0 6.57.93 8.52 2.78 1.95 1.87 2.92 4.55 2.92 8.06 0 3.68-.95 6.51-2.87 8.48-1.93 1.96-4.7 2.95-8.3 2.95h-6.72v12.37h-8.28"/><path d="m524.27 348.75h8.23v34.63h-8.23v-34.63"/><path d="m548.19 369.88h7.04l-3.58-11.95-3.46 11.95m-.77-21.13h9.01l11.37 34.63h-8.85l-1.97-6.32h-10.75l-1.84 6.32h-8.56l11.59-34.63"/><path d="m570.92 383.38v-34.62h8.91l6.07 11.37c.99 1.86 1.94 3.68 2.82 5.5.89 1.83 1.73 3.62 2.51 5.38-.11-2.61-.2-5.06-.26-7.36-.06-2.29-.09-4.3-.09-6.04v-8.85h7.97v34.62h-8.9l-6.32-11.71c-.74-1.38-1.55-2.92-2.43-4.64-.87-1.71-1.79-3.56-2.78-5.55.17 2.25.28 4.35.35 6.29.08 1.95.11 3.67.11 5.17v10.44h-7.96"/><path d="m612.26 366.11c0 3.52.67 6.23 2 8.11 1.33 1.87 3.24 2.81 5.73 2.81 2.51 0 4.44-.94 5.78-2.81 1.36-1.88 2.03-4.59 2.03-8.11 0-3.51-.67-6.2-2.03-8.09-1.34-1.88-3.27-2.83-5.78-2.83-2.49 0-4.4.94-5.73 2.81-1.33 1.88-2 4.59-2 8.11m-8.37 0c0-5.62 1.44-10.07 4.34-13.34 2.9-3.26 6.81-4.9 11.77-4.9 4.98 0 8.92 1.64 11.84 4.91 2.92 3.28 4.39 7.72 4.39 13.33s-1.47 10.05-4.39 13.33c-2.92 3.27-6.86 4.91-11.84 4.91-4.96 0-8.87-1.63-11.77-4.9s-4.34-7.72-4.34-13.34"/></g></svg>