<svg xmlns="http://www.w3.org/2000/svg" xmlns:xlink="http://www.w3.org/1999/xlink" height="148.99" width="599.99" viewBox="0 0 600.02361 148.98568"><defs><path id="0" d="m138.5 690.9h56.22v13.964h-56.22z"/><path id="1" d="m160.8 691.54c-.15.23-.24.52-.24.82v2.04h33.44v-2.86h-33.2"/><path id="2" d="m161.9 690.9c-.74 0-1.34.65-1.34 1.46v12.5h32.82c.74 0 1.34-.66 1.34-1.47v-12.49h-32.82"/><path id="3" d="m140.22 691.54c-.57 0-1.03.64-1.03 1.43s.46 1.43 1.03 1.43h21.33c.57 0 1.04-.64 1.04-1.43-.001-.02-.05-1.43-1.04-1.43h-21.33"/><path id="4" d="m139.84 690.9c-.74 0-1.34.65-1.34 1.46v11.03c0 .81.6 1.47 1.34 1.47h26.02c.74 0 1.34-.66 1.34-1.47v-11.03c0-.81-.6-1.46-1.34-1.46h-26.02"/><clipPath id="8"><use xlink:href="#0"/></clipPath><clipPath id="7"><use xlink:href="#2"/></clipPath><clipPath id="9"><use xlink:href="#1"/></clipPath><clipPath id="6"><use xlink:href="#4"/></clipPath><clipPath id="5"><use xlink:href="#3"/></clipPath><linearGradient id="C" y2="694.4" gradientUnits="userSpaceOnUse" y1="691.54" x2="0"><stop stop-color="#cf3c2d"/><stop stop-color="#952827" offset=".844"/><stop stop-color="#952827" offset="1"/></linearGradient><linearGradient id="B" gradientUnits="userSpaceOnUse" y1="704.86" x2="0" y2="690.9"><stop stop-color="#9f2a1f"/><stop stop-color="#9f2a1f" offset=".112"/><stop stop-color="#e52c25" offset=".495"/><stop stop-color="#e52c25" offset="1"/></linearGradient><linearGradient id="A" gradientUnits="userSpaceOnUse" y1="704.86" x2="0" y2="690.9"><stop stop-color="#3a2422"/><stop stop-color="#3a2422" offset=".112"/><stop stop-color="#952827" offset=".495"/><stop stop-color="#952827" offset="1"/></linearGradient><linearGradient id="D" y2="694.4" gradientUnits="userSpaceOnUse" y1="691.54" x2="0"><stop stop-color="#ec6a20"/><stop stop-color="#e52c25" offset=".844"/><stop stop-color="#e52c25" offset="1"/></linearGradient></defs><path d="m138.5 690.9h28.7v13.96h-28.7z" clip-path="url(#6)" transform="matrix(10.673 0 0 10.673-1478.2-7373.8)" fill="url(#A)"/><path d="m139.19 691.54h23.4v2.86h-23.4z" clip-path="url(#5)" transform="matrix(10.673 0 0 10.673-1478.2-7373.8)" fill="url(#C)"/><path d="m160.56 690.9h34.16v13.96h-34.16z" clip-path="url(#7)" transform="matrix(10.673 0 0 10.673-1478.2-7373.8)" fill="url(#B)"/><path d="m160.56 691.54h33.44v2.86h-33.44z" clip-path="url(#9)" transform="matrix(10.673 0 0 10.673-1478.2-7373.8)" fill="url(#D)"/><path d="m153.73 703.7c.16.09.49.19.91.2.72.001 1.1-.26 1.4-.9l3.84-8.57c-.16-.09-.51-.18-.8-.19-.5-.001-1.16.09-1.58 1.11l-1.24 2.93-2.44-3.97c-.16-.05-.55-.12-.83-.12-.86 0-1.34.32-1.84.86l-2.37 2.59 1.9 3.01c.36.55.82.83 1.58.83.49 0 .9-.12 1.09-.21l-2.3-3.46 1.63-1.73 2.68 4.19-1.63 3.43m-5.05-3.24c0 .64-.24 1-1.48 1-.16 0-.3-.001-.44-.03v-8.38c0-.64.22-1.31 1.46-1.31.16 0 .32.02.46.05v8.67m-2.54-1.26c0 1.18-.77 2.04-2.33 2.21-1.13.12-2.77-.03-3.55-.11-.03-.13-.05-.29-.05-.42 0-1.02.55-1.26 1.07-1.26.55 0 1.4.1 2.03.1.7 0 .91-.24.91-.47 0-.29-.28-.42-.82-.52l-1.48-.29c-1.24-.23-1.9-1.08-1.9-1.99 0-1.1.78-2.03 2.32-2.19 1.16-.13 2.57.001 3.34.11.03.13.05.25.05.39 0 1.03-.55 1.25-1.07 1.25-.4 0-1.02-.07-1.73-.07-.73 0-1.03.2-1.03.44 0 .26.29.36.74.44l1.42.27c1.46.26 2.08 1.09 2.08 2.11" clip-path="url(#8)" transform="matrix(10.673 0 0 10.673-1478.2-7373.8)" fill="#f9b32f"/><g fill="#fff"><path d="m164.62 701.42h1.07v-6.14h2.85v-.91h-.04-6.72v.91h2.84z" clip-path="url(#8)" transform="matrix(10.673 0 0 10.673-1478.2-7373.8)"/><path d="m172.09 697.66v.92h3.06c-.06.38-.13.74-.53 1.18-.78.84-1.94.91-2.27.91-.43 0-1.88-.09-2.63-1.25-.14-.22-.47-.8-.47-1.6 0-1.85 1.57-2.68 3.13-2.68.83 0 1.62.28 2.17.75.21.18.31.32.43.5l.02.03h.04l1.03-.31-.07-.11c-.14-.23-.29-.49-.65-.8-.36-.3-1.37-1-3.05-1-1.52 0-2.87.62-3.58 1.66-.23.35-.61 1.06-.61 2.02 0 2.11 1.73 3.7 4.02 3.7 1.23 0 2.19-.4 2.69-.78l.29-.26s.001-.001.02-.001v.89h.94v-3.76h-3.98" clip-path="url(#8)" transform="matrix(10.673 0 0 10.673-1478.2-7373.8)"/><path d="m184.6 701.41h-7.38v-1.44c.25-.47.6-1.09 1.88-1.83.29-.17.44-.23 1.76-.84.74-.33 1.13-.51 1.13-.94 0-.61-.87-.63-1.15-.63-.29 0-.58.03-.82.19-.4.25-.41.63-.42.89l-2.17-.05c.04-.53.07-1.02.42-1.52.45-.62 1.13-1.01 3.27-1.01 1.57 0 2.4.29 2.89.81.34.36.47.77.47 1.23 0 1.03-.87 1.59-1.59 1.93-.42.2-.86.36-1.27.55-.28.12-1.08.47-1.63.88-.07.04-.14.09-.2.15.1-.001.21-.001.31-.001.12-.001.22-.001.34-.001h4.16v1.65" clip-path="url(#8)" transform="matrix(10.673 0 0 10.673-1478.2-7373.8)"/><path d="m189.16 694.35h2.83v4.12h1.23v1.66h-1.25v1.28h-2.35v-1.28h-4.63v-1.54l4.17-4.24m.47 1.87l-2.23 2.25h2.23v-2.25" clip-path="url(#8)" transform="matrix(10.673 0 0 10.673-1478.2-7373.8)"/></g></svg>