<svg xmlns="http://www.w3.org/2000/svg" width="599.99" viewBox="0 0 600.03535 74.760275"><defs><linearGradient id="3" gradientUnits="userSpaceOnUse" x2="0" y1="3.407" y2="18.74"><stop stop-color="#d4442f"/><stop stop-color="#83332a" offset=".844"/><stop stop-color="#83332a" offset="1"/></linearGradient><linearGradient id="2" gradientUnits="userSpaceOnUse" x2="0" y1="74.75" y2="-.011"><stop stop-color="#4f000c"/><stop stop-color="#4f000c" offset=".006"/><stop stop-color="#83332a" offset=".495"/><stop stop-color="#83332a" offset="1"/></linearGradient><linearGradient id="0" gradientUnits="userSpaceOnUse" x2="0" y1="3.407" y2="18.74"><stop stop-color="#f47632"/><stop stop-color="#ef3f35" offset=".844"/><stop stop-color="#ef3f35" offset="1"/></linearGradient><linearGradient id="1" gradientUnits="userSpaceOnUse" x2="0" y1="74.75" y2="-.011"><stop stop-color="#9b1d20"/><stop stop-color="#ef3f35" offset=".495"/><stop stop-color="#ef3f35" offset="1"/></linearGradient></defs><path fill="url(#2)" d="m7.161-.002c-3.955 0-7.161 3.505-7.161 7.843v59.06c0 4.34 3.206 7.86 7.161 7.86h142.68c3.97 0 7.16-3.52 7.16-7.86v-59.06c0-4.339-3.19-7.844-7.16-7.844h-142.68"/><path fill="url(#3)" d="m9.222 3.408c-3.056 0-5.524 3.437-5.524 7.666 0 4.225 2.468 7.665 5.524 7.665h117.53c3.05 0 5.53-3.44 5.53-7.665 0 0-2.48-7.666-5.53-7.666h-117.53"/><path fill="url(#1)" d="m128.63-.002c-3.97 0-7.18 3.505-7.18 7.843v66.92h197.76c3.95 0 7.17-3.52 7.17-7.86v-66.904h-197.75"/><path fill="url(#0)" d="m122.71 3.408c-.79 1.268-1.26 2.782-1.26 4.433v10.897h201.06v-15.331h-199.8"/><path fill="url(#2)" d="m309.81-.002c-3.95 0-7.17 3.505-7.17 7.843v66.92h290.23c3.96 0 7.17-3.52 7.17-7.86v-66.904h-290.23"/><path fill="url(#3)" d="m303.89 3.408c-.79 1.268-1.25 2.782-1.25 4.433v10.897h293.54v-15.331h-292.29"/><path fill="#f9b32f" d="m40.937 44.43c0 6.32-4.119 10.93-12.507 11.83-6.06.64-14.827-.11-19.02-.6-.136-.67-.245-1.52-.245-2.2 0-5.5 2.96-6.77 5.757-6.77 2.905 0 7.474.51 10.857.51 3.751 0 4.883-1.27 4.883-2.48 0-1.59-1.5-2.24-4.406-2.8l-7.952-1.531c-6.601-1.27-10.134-5.83-10.134-10.69 0-5.89 4.174-10.831 12.385-11.731 6.206-.68 13.777.08 17.923.59.136.71.232 1.37.232 2.11 0 5.511-2.905 6.681-5.702 6.681-2.155 0-5.483-.39-9.289-.39-3.86 0-5.469 1.08-5.469 2.37 0 1.39 1.514 1.95 3.941 2.37l7.598 1.41c7.789 1.45 11.144 5.88 11.144 11.321m13.613 6.77c0 3.39-1.323 5.33-7.925 5.33-.873 0-1.637-.06-2.36-.16v-44.867c0-3.41 1.146-6.971 7.802-6.971.86 0 1.692.082 2.483.259v46.41zm26.994 17.361c.873.45 2.659.98 4.883 1.04 3.833.08 5.92-1.38 7.475-4.82l20.568-45.883c-.84-.45-2.73-.96-4.25-.98-2.66-.07-6.21.47-8.47 5.891l-6.661 15.71-13.07-21.281c-.846-.24-2.905-.61-4.392-.61-4.637 0-7.201 1.69-9.876 4.6l-12.698 13.881 10.202 16.08c1.896 2.93 4.378 4.43 8.417 4.43 2.646 0 4.855-.62 5.865-1.1l-12.304-18.541 8.73-9.26 14.295 22.471-8.716 18.371"/><g fill="#fff" transform="matrix(1.0001 0 0 1.0001 36.774-85.09)"><path d="m127.87 103.64h-.25-35.991v4.91h15.221v32.84h5.76v-32.84h15.26v-4.91"/><path d="m146.87 121.27v4.92h16.36c-.3 2.02-.65 3.97-2.85 6.35-4.16 4.48-10.34 4.84-12.11 4.84-2.3 0-10.09-.49-14.12-6.7-.75-1.14-2.49-4.27-2.49-8.54 0-9.89 8.43-14.33 16.76-14.33 4.45 0 8.68 1.46 11.62 4.01 1.09.95 1.62 1.72 2.28 2.67l.09.15.24.03 5.51-1.68-.34-.57c-.75-1.24-1.57-2.66-3.51-4.3-1.91-1.62-7.31-5.39-16.31-5.39-8.19 0-15.36 3.35-19.21 8.94-1.22 1.83-3.26 5.66-3.26 10.8 0 11.29 9.28 19.82 21.57 19.82 6.56 0 11.71-2.16 14.35-4.18.001 0 1.59-1.4 1.59-1.4s.06-.06.08-.07v4.8h5.08v-20.17h-21.33"/><path d="m213.82 141.37h-39.48v-7.76c1.34-2.45 3.19-5.81 10.05-9.78 1.56-.88 2.35-1.23 9.44-4.47 3.91-1.79 6.03-2.73 6.03-5.08 0-3.23-4.64-3.35-6.14-3.35-1.57 0-3.12.16-4.41 1.01-2.12 1.35-2.18 3.41-2.25 4.8l-11.62-.29c.24-2.83.41-5.47 2.25-8.14 2.4-3.31 6.05-5.41 17.49-5.41 8.42 0 12.9 1.55 15.52 4.36 1.79 1.9 2.51 4.12 2.51 6.59 0 5.51-4.69 8.48-8.54 10.32-2.23 1.07-4.58 1.95-6.82 2.95-1.44.64-5.74 2.52-8.71 4.71-.38.21-.73.5-1.05.77.54-.04 1.1-.04 1.66-.04.63-.07 1.17-.07 1.8-.07h22.27v8.88"/><path d="m240.78 113.56l-11.95 12.06h11.95v-12.06m-2.51-10h15.12v22.06h6.59v8.88h-6.68v6.87h-12.58v-6.87h-24.79v-8.25l22.34-22.69"/><path d="m285.07 119h6.73c1.83 0 3.17-.37 4.03-1.1.84-.72 1.28-1.86 1.28-3.45 0-1.4-.42-2.44-1.25-3.12-.84-.68-2.11-1.01-3.82-1.01h-6.97v8.68m-8.99 21.71v-37.99h16.9c4.47 0 7.76.86 9.89 2.58 2.11 1.72 3.17 4.38 3.17 7.99 0 2.13-.45 3.96-1.36 5.49-.9 1.51-2.31 2.79-4.2 3.82 1.54.64 2.63 1.51 3.27 2.6s1.01 3.02 1.11 5.76c.04.78.09 1.81.15 3.12.11 3.07.6 4.84 1.47 5.32v1.31h-9.47c-.47-1.34-.73-3.18-.8-5.52s-.12-3.81-.19-4.41c-.15-1.49-.61-2.56-1.39-3.26-.78-.68-1.95-1.02-3.52-1.02h-6.04v14.21h-8.99"/><path d="m322.24 125.9h7.72l-3.92-13.1-3.8 13.1m-.84-23.18h9.89l12.46 38h-9.71l-2.15-6.95h-11.8l-2.02 6.95h-9.38l12.71-38"/><path d="m345.52 128.11h8.68c.07 2.16.65 3.78 1.77 4.87s2.76 1.64 4.91 1.64c1.84 0 3.26-.33 4.26-.98 1.01-.66 1.51-1.57 1.51-2.75 0-.6-.12-1.14-.37-1.6-.23-.48-.57-.84-1.01-1.07-.65-.38-2.26-.98-4.81-1.79-2.55-.8-4.71-1.59-6.47-2.34-2.53-1.09-4.46-2.51-5.78-4.3-1.31-1.77-1.98-3.86-1.98-6.23 0-3.63 1.27-6.51 3.81-8.65 2.53-2.14 5.96-3.22 10.3-3.22 4.24 0 7.61 1.13 10.1 3.39 2.5 2.25 3.74 5.29 3.74 9.12h-8.52c-.2-1.77-.77-3.08-1.74-3.93-.97-.84-2.36-1.27-4.17-1.27-1.45 0-2.62.33-3.53.97-.9.66-1.37 1.48-1.37 2.47 0 1.69 2.17 3.29 6.48 4.79.78.27 1.38.48 1.79.61l.37.14c4.47 1.55 7.27 2.82 8.4 3.78 1.13 1.01 1.99 2.18 2.59 3.52.59 1.35.89 2.85.89 4.5 0 3.79-1.35 6.73-4.04 8.83-2.7 2.11-6.47 3.16-11.34 3.16-4.58 0-8.07-1.12-10.47-3.39-2.39-2.26-3.72-5.68-4-10.27"/><path d="m379.93 128.11h8.68c.07 2.16.65 3.78 1.77 4.87s2.76 1.64 4.91 1.64c1.84 0 3.26-.33 4.26-.98 1.01-.66 1.51-1.57 1.51-2.75 0-.6-.12-1.14-.37-1.6-.23-.48-.57-.84-1.01-1.07-.65-.38-2.26-.98-4.81-1.79-2.55-.8-4.71-1.59-6.47-2.34-2.53-1.09-4.46-2.51-5.78-4.3-1.31-1.77-1.98-3.86-1.98-6.23 0-3.63 1.27-6.51 3.81-8.65s5.96-3.22 10.3-3.22c4.24 0 7.61 1.13 10.1 3.39 2.5 2.25 3.74 5.29 3.74 9.12h-8.52c-.19-1.77-.77-3.08-1.74-3.93-.96-.84-2.36-1.27-4.17-1.27-1.45 0-2.62.33-3.53.97-.9.66-1.37 1.48-1.37 2.47 0 1.69 2.17 3.29 6.48 4.79.78.27 1.38.48 1.79.61l.37.14c4.47 1.55 7.27 2.82 8.4 3.78 1.13 1.01 1.99 2.18 2.59 3.52.59 1.35.89 2.85.89 4.5 0 3.79-1.35 6.73-4.04 8.83-2.7 2.11-6.48 3.16-11.33 3.16-4.59 0-8.08-1.12-10.48-3.39-2.39-2.26-3.72-5.68-4-10.27"/><path d="m415.14 140.71v-37.98h26.85v7.77h-17.79v6.73h16.25v7.58h-16.25v8.16h18.36v7.74h-27.42"/><path d="m474.49 140.71l-.72-4.88c-1.33 1.98-2.91 3.47-4.74 4.43-1.82.96-3.97 1.45-6.41 1.45-2.28 0-4.39-.45-6.34-1.34-1.94-.9-3.66-2.21-5.13-3.94-1.55-1.79-2.73-3.9-3.53-6.31-.79-2.43-1.2-5.08-1.2-7.94 0-6.21 1.65-11.19 4.95-14.92 3.3-3.75 7.69-5.62 13.18-5.62 4.13 0 7.54 1.12 10.24 3.34 2.69 2.24 4.39 5.36 5.11 9.38h-8.64c-.58-1.63-1.46-2.86-2.64-3.69-1.18-.84-2.63-1.26-4.35-1.26-2.58 0-4.68 1.13-6.27 3.4-1.6 2.28-2.4 5.26-2.4 9 0 3.67.79 6.6 2.36 8.77 1.58 2.17 3.68 3.26 6.31 3.26 2.12 0 3.86-.57 5.24-1.72 1.39-1.16 2.25-2.75 2.58-4.81h-7.86v-7.31h15.92v20.71h-5.66"/><path d="m486.68 140.71v-37.98h9.78l6.66 12.48c1.09 2.03 2.11 4.04 3.1 6.03.98 2 1.89 3.97 2.75 5.9-.12-2.86-.22-5.55-.28-8.07-.07-2.51-.1-4.72-.1-6.63v-9.71h8.74v37.98h-9.76l-6.95-12.84c-.8-1.52-1.69-3.21-2.66-5.09-.95-1.88-1.96-3.92-3.04-6.1.18 2.47.3 4.78.39 6.9.08 2.14.12 4.03.12 5.68v11.45h-8.75"/><path d="m524.32 140.71v-37.98h26.84v7.77h-17.78v6.73h16.24v7.58h-16.24v8.16h18.36v7.74h-27.42"/></g></svg>