<svg xmlns="http://www.w3.org/2000/svg" height="110.73" width="600" viewBox="0 0 158.75 29.297135"><defs><linearGradient id="0" gradientUnits="userSpaceOnUse" x2="0" y1="92.08" y2="120.11"><stop stop-color="#888786"/><stop stop-color="#d9dada" offset=".02"/><stop stop-color="#f6f7f7" offset=".052"/><stop stop-color="#efeff0" offset=".488"/><stop stop-color="#f6f7f7" offset=".895"/><stop stop-color="#edecee" offset=".929"/><stop stop-color="#d9dada" offset=".964"/><stop stop-color="#888786" offset="1"/></linearGradient><linearGradient id="1" gradientUnits="userSpaceOnUse" x2="0" y1="119.89" y2="92.33"><stop stop-color="#124874"/><stop stop-color="#1072b9" offset=".078"/><stop stop-color="#0071b9" offset=".912"/><stop stop-color="#6995c8" offset="1"/></linearGradient><linearGradient id="2" gradientUnits="userSpaceOnUse" x2="0" y1="92.08" y2="120.11"><stop stop-color="#b5b2b2"/><stop stop-color="#e8e9e9" offset=".02"/><stop stop-color="#fafafa" offset=".052"/><stop stop-color="#f5f5f6" offset=".488"/><stop stop-color="#fafafa" offset=".895"/><stop stop-color="#f4f4f4" offset=".929"/><stop stop-color="#e8e9e9" offset=".964"/><stop stop-color="#b5b2b2" offset="1"/></linearGradient></defs><g transform="translate(14.93-91.46)"><path d="m139.61 120.75c3.23 0 4.21-2 4.21-4.01v-21.271c0-2-.98-4.01-4.21-4.01h-150.33c-3.227 0-4.21 2.01-4.21 4.01v21.271c0 2.01.983 4.01 4.209 4.01h150.33m-150.18-.27c-2.171 0-3.641-1.28-3.641-3.41v-21.927c0-2.132 1.47-3.414 3.641-3.414h150.03c2.17 0 3.64 1.282 3.64 3.414v21.927c0 2.13-1.47 3.41-3.64 3.41h-150.03" fill="#a1a2a2"/><path fill="url(#0)" d="m-10.922 92.33c-2.171 0-2.945 1.282-2.945 3.414v20.73c0 2.13.774 3.42 2.945 3.42h150.57c2.18 0 2.95-1.29 2.95-3.42v-20.73c0-2.132-.77-3.414-2.95-3.414z"/><path d="m37.08 92.33v27.554h65.1v-27.554z" fill="url(#1)"/><g fill="#0071b9"><path d="m118.1 104.34v-3.9c0-1.052.42-1.72 2.6-1.72.27 0 .5.015.76.057v12.763c0 1.06-.41 1.73-2.6 1.73-.26 0-.49-.02-.76-.06v-5.8h-6.78v4.13c0 1.06-.42 1.73-2.6 1.73-.27 0-.5-.02-.77-.06v-12.77c0-1.052.42-1.72 2.6-1.72.27 0 .5.015.77.057v5.563h6.78m19.31 1.63c0-4.33-3.12-7.274-8.29-7.274h-3.52c-1.69 0-2.09.886-2.09 2.054v10.47c0 1.12.4 2.04 2.09 2.04h3.52c5.17 0 8.29-2.95 8.29-7.29m-10.53 4.17v-8.33h2.43c3.39 0 4.63 2.19 4.63 4.16 0 1.98-1.24 4.17-4.63 4.17h-2.43"/><path d="m3.873 108.75c0 2.35-1.542 4.08-4.675 4.42-2.271.24-5.558-.04-7.118-.22-.057-.26-.103-.58-.103-.82 0-2.07 1.116-2.54 2.162-2.54 1.085 0 2.797.19 4.07.19 1.397 0 1.823-.48 1.823-.93 0-.59-.565-.84-1.651-1.05l-2.972-.57c-2.473-.47-3.792-2.18-3.792-4 0-2.2 1.56-4.052 4.632-4.394 2.325-.251 5.152.034 6.704.224.058.266.085.517.085.795 0 2.055-1.085 2.505-2.129 2.505-.804 0-2.053-.15-3.474-.15-1.451 0-2.053.4-2.053.89 0 .51.575.73 1.482.88l2.839.53c2.918.54 4.17 2.19 4.17 4.24m5.098 2.53c0 1.26-.496 1.99-2.966 1.99-.327 0-.614-.02-.889-.06v-16.79c0-1.276.435-2.603 2.93-2.603.315 0 .632.03.925.094v17.369m10.1 6.49c.324.17.989.37 1.827.39 1.433.03 2.216-.52 2.797-1.8l7.698-17.17c-.317-.172-1.022-.363-1.596-.375-.989-.018-2.32.185-3.169 2.215l-2.492 5.88-4.889-7.965c-.315-.097-1.083-.236-1.651-.236-1.721 0-2.688.638-3.689 1.721l-4.75 5.2 3.822 6.02c.704 1.09 1.635 1.65 3.147 1.65.989 0 1.815-.22 2.196-.41l-4.603-6.94 3.26-3.45 5.352 8.4-3.26 6.87"/></g><g fill="#fff"><path d="m51.34 115.09c-1.197 0-2.268-.2-3.211-.59-.943-.4-1.742-.95-2.395-1.64-.653-.68-1.152-1.48-1.497-2.39-.344-.91-.517-1.89-.517-2.93v-8.273c0-.514.164-.95.49-1.312.327-.363.944-.545 1.851-.545.381 0 .756.018 1.128.052.371.036.686.081.94.133v9.965c0 1.15.29 2.05.871 2.7.58.64 1.37.96 2.367.96.98 0 1.769-.32 2.368-.96.599-.65.898-1.55.898-2.7v-8.293c0-.514.163-.95.49-1.312.326-.363.943-.545 1.85-.545.381 0 .753.018 1.116.052.363.036.671.081.925.133v9.945c0 1.04-.187 2.02-.556 2.93-.375.91-.886 1.71-1.539 2.39-.653.69-1.451 1.24-2.395 1.64-.943.39-2.01.59-3.184.59"/><path d="m63.54 114.8c-.363 0-.717-.02-1.062-.05-.344-.04-.635-.08-.87-.13v-16.891c.272-.09.625-.163 1.061-.226.435-.061.807-.094 1.116-.094.997 0 1.723.124 2.177.372.453.248.834.611 1.143 1.088l6.177 9.461v-9.222c0-.23.034-.447.097-.65.064-.203.172-.384.327-.544.154-.16.365-.281.638-.372.272-.088.616-.133 1.034-.133.363 0 .713.018 1.049.054.336.037.62.07.856.106v16.911c-.254.13-.563.21-.926.25-.362.05-.716.07-1.061.07-.853 0-1.488-.11-1.905-.34s-.762-.55-1.034-.96l-6.613-10.28v9.83c0 .5-.154.91-.463 1.25-.308.34-.889.5-1.741.5"/><path d="m88.09 111.25c.617 0 1.197-.13 1.741-.4.545-.26 1.022-.63 1.431-1.1.408-.47.722-1.01.952-1.64.224-.63.339-1.31.339-2.03s-.109-1.4-.327-2.03c-.217-.63-.523-1.17-.91-1.63-.393-.46-.859-.82-1.403-1.09-.544-.26-1.143-.39-1.796-.39-.635 0-1.222.13-1.757.38-.535.26-1 .62-1.4 1.08s-.713 1-.937 1.63c-.23.62-.342 1.3-.342 2.02 0 .75.112 1.43.342 2.07.224.64.532 1.19.925 1.66.387.47.85.83 1.385 1.09.535.25 1.122.38 1.757.38m.027 3.82c-1.361 0-2.594-.24-3.701-.72s-2.056-1.12-2.842-1.93c-.793-.82-1.4-1.77-1.827-2.87-.426-1.09-.638-2.27-.638-3.52 0-1.24.212-2.4.638-3.49.427-1.09 1.034-2.03 1.827-2.836.786-.804 1.735-1.436 2.842-1.895 1.107-.46 2.34-.69 3.701-.69s2.594.23 3.701.69c1.107.459 2.056 1.091 2.842 1.895.793.806 1.4 1.746 1.827 2.836.423 1.09.638 2.25.638 3.49 0 1.25-.215 2.43-.638 3.52-.427 1.1-1.034 2.05-1.827 2.87-.786.81-1.735 1.45-2.842 1.93s-2.34.72-3.701.72"/></g><path opacity=".4" d="m-10.973 92.88c-1.92 0-2.658.765-2.658 3.03l-.006 19.565c0 1.22.07 2.04.251 2.04.067-.39.124-2.27 2.189-3.98.823-.63 1.893-1.25 3.193-1.84 1.873-.79 3.749-1.46 5.353-1.95.932-.26 1.871-.53 2.663-.73 1.332-.34 2.682-.66 3.817-.91.448-.1.904-.2 1.287-.28 1.346-.27 2.711-.54 3.857-.74.343-.07.699-.13.994-.18 1.381-.24 2.776-.47 3.952-.65 1.747-.26 3.519-.51 5.01-.71 1.419-.18 2.858-.36 4.068-.5.697-.08 1.422-.16 2.025-.23 1.408-.15 2.834-.3 4.04-.42 2.803-.26 5.639-.51 8.03-.69 2.183-.16 4.397-.31 6.637-.44 1.535-.09 3.096-.18 4.409-.24 2.15-.11 4.327-.2 6.504-.27 1.526-.06 3.076-.1 4.381-.14.905-.02 1.824-.04 2.598-.05 2.73-.05 5.51-.09 7.851-.09h1.072c.916 0 1.834 0 2.752.001 1.391.001 2.808.02 4 .04.853.001 1.722.03 2.453.04 1.727.05 3.487.09 4.972.14 2.446.09 4.936.2 7.04.31 1.738.09 3.514.2 5.01.31 1.884.13 3.805.28 5.425.42 1.97.18 3.9.37 5.77.58 4.65.6 9.45 1.25 13.51 2.05.72.15 1.44.3 2.05.43 1.17.27 2.36.55 3.37.81 1.89.53 3.83 1.09 5.45 1.68 1.18.45 2.39.94 3.39 1.42 1.54.85 3.15 1.75 4.31 2.82 1.87 1.85 2.12 3.59 2.19 3.98.18 0 .25-.82.25-2.04l-.001-19.565c0-2.267-.73-3.03-2.65-3.03-.65 0-1.3.35-2.17.35h-146.45c-.866 0-1.513-.35-2.163-.35" fill="url(#2)"/></g></svg>