<svg xmlns="http://www.w3.org/2000/svg" height="93.34" width="600" viewBox="0 0 158.75 24.697582"><defs><linearGradient id="0" gradientUnits="userSpaceOnUse" x2="0" y1="287.65" y2="311.27"><stop stop-color="#888786"/><stop stop-color="#d9dada" offset=".02"/><stop stop-color="#f6f7f7" offset=".052"/><stop stop-color="#efeff0" offset=".488"/><stop stop-color="#f6f7f7" offset=".895"/><stop stop-color="#edecee" offset=".929"/><stop stop-color="#d9dada" offset=".964"/><stop stop-color="#888786" offset="1"/></linearGradient><linearGradient id="1" gradientUnits="userSpaceOnUse" x2="0" y1="311.08" y2="287.84"><stop stop-color="#124874"/><stop stop-color="#1072b9" offset=".078"/><stop stop-color="#0071b9" offset=".912"/><stop stop-color="#6995c8" offset="1"/></linearGradient><linearGradient id="2" gradientUnits="userSpaceOnUse" x2="0" y1="287.65" y2="311.27"><stop stop-color="#b5b2b2"/><stop stop-color="#e8e9e9" offset=".02"/><stop stop-color="#fafafa" offset=".052"/><stop stop-color="#f5f5f6" offset=".488"/><stop stop-color="#fafafa" offset=".895"/><stop stop-color="#f4f4f4" offset=".929"/><stop stop-color="#e8e9e9" offset=".964"/><stop stop-color="#b5b2b2" offset="1"/></linearGradient></defs><g transform="translate(37.69-287.12)"><path d="m117.51 311.82c2.72 0 3.55-1.7 3.55-3.39v-17.93c0-1.69-.83-3.38-3.55-3.38h-151.65c-2.72 0-3.55 1.69-3.55 3.38v17.93c0 1.69.83 3.39 3.55 3.39h151.65m-151.52-.23c-1.832 0-3.071-1.08-3.071-2.88v-18.48c0-1.8 1.239-2.88 3.071-2.88h151.4c1.84 0 3.08 1.08 3.08 2.88v18.48c0 1.8-1.24 2.88-3.07 2.88h-151.4" fill="#a1a2a2"/><path fill="url(#0)" d="m-34.31 287.85c-1.835 0-2.486 1.08-2.486 2.88v17.47c0 1.8.651 2.88 2.486 2.88h151.86c1.83 0 2.48-1.08 2.48-2.88v-17.47c0-1.8-.65-2.88-2.48-2.88h-151.86"/><path d="m6.16 287.85v23.23h54.88c0-8.19 0-16.11 0-23.23z" fill="url(#1)"/><g fill="#0071b9"><path d="m99.47 297.97v-3.28c0-.89.354-1.45 2.193-1.45.22 0 .42.001.64.05v10.76c0 .89-.35 1.45-2.19 1.45-.224 0-.42-.001-.643-.05v-4.88h-5.717v3.48c0 .89-.356 1.45-2.196 1.45-.221 0-.414-.001-.643-.05v-10.76c0-.89.354-1.45 2.191-1.45.226 0 .42.001.648.05v4.68h5.717m16.273 1.39c0-3.66-2.63-6.14-6.99-6.14h-2.96c-1.42 0-1.76.75-1.76 1.73v8.83c0 .94.34 1.71 1.76 1.71h2.96c4.36 0 6.99-2.48 6.99-6.13m-8.87 3.51v-7.03h2.05c2.86 0 3.9 1.85 3.9 3.52 0 1.66-1.04 3.51-3.9 3.51h-2.05"/><path d="m-21.837 301.69c0 1.99-1.301 3.44-3.941 3.73-1.914.2-4.685-.03-6-.19-.049-.21-.087-.48-.087-.69 0-1.74.942-2.14 1.821-2.14.918 0 2.358.16 3.433.16 1.176 0 1.538-.4 1.538-.78 0-.5-.476-.71-1.394-.88l-2.504-.48c-2.085-.4-3.199-1.85-3.199-3.38 0-1.86 1.318-3.41 3.909-3.7 1.958-.21 4.339.02 5.649.19.049.22.073.43.073.67 0 1.73-.914 2.11-1.796 2.11-.678 0-1.729-.13-2.929-.13-1.223 0-1.729.34-1.729.75 0 .43.482.61 1.247.75l2.395.44c2.461.45 3.514 1.85 3.514 3.57m4.299 2.14c0 1.07-.42 1.68-2.502 1.68-.275 0-.517-.02-.749-.05v-14.16c0-1.07.365-2.2 2.469-2.2.264 0 .534.03.782.08v14.65m8.514 5.47c.272.14.833.31 1.538.33 1.209.03 1.87-.44 2.357-1.52l6.489-14.48c-.267-.14-.86-.3-1.345-.31-.833-.02-1.954.16-2.67 1.86l-2.102 4.96-4.121-6.71c-.264-.08-.915-.2-1.391-.2-1.453 0-2.267.54-3.111 1.45l-4.01 4.38 3.223 5.08c.596.92 1.383 1.39 2.657 1.39.833 0 1.527-.19 1.848-.34l-3.879-5.85 2.749-2.92 4.511 7.08-2.747 5.8"/></g><g fill="#fff"><path d="m18.18 307.04c-1.01 0-1.911-.17-2.709-.5-.795-.34-1.467-.79-2.02-1.38-.552-.58-.972-1.25-1.263-2.02s-.435-1.59-.435-2.47v-6.97c0-.43.138-.8.413-1.11.275-.3.795-.45 1.56-.45.321 0 .637.001.953.04.313.03.577.07.789.11v8.4c0 .97.245 1.73.735 2.27.49.55 1.154.82 1.995.82.828 0 1.492-.27 1.998-.82.504-.54.757-1.3.757-2.27v-6.99c0-.43.136-.8.414-1.11.275-.3.795-.45 1.56-.45.321 0 .634.001.939.04.307.03.566.07.781.11v8.38c0 .88-.158 1.7-.471 2.47s-.746 1.44-1.296 2.02c-.549.59-1.224 1.04-2.02 1.38-.795.33-1.691.5-2.684.5"/><path d="m28.465 306.8c-.305 0-.604-.02-.896-.05-.288-.03-.533-.07-.732-.11v-14.24c.229-.07.525-.13.893-.19.367-.05.68-.07.942-.07.841 0 1.453.1 1.834.31.384.21.705.51.964.91l5.207 7.98v-7.78c0-.19.028-.37.082-.54.055-.17.144-.33.275-.46s.31-.24.539-.31c.229-.08.52-.11.871-.11.308 0 .602.001.885.04s.522.06.721.09v14.26c-.212.1-.474.17-.778.21-.308.04-.605.06-.896.06-.719 0-1.255-.1-1.606-.29-.351-.2-.642-.46-.871-.81l-5.575-8.67v8.29c0 .42-.131.77-.392 1.05-.259.28-.749.43-1.467.43"/><path d="m49.16 303.8c.52 0 1.01-.11 1.467-.33.46-.23.863-.54 1.206-.93.343-.4.612-.86.803-1.39.19-.53.286-1.09.286-1.71 0-.61-.09-1.18-.275-1.71-.183-.52-.438-.98-.768-1.37-.329-.39-.724-.69-1.181-.92-.46-.22-.964-.33-1.514-.33-.536 0-1.029.11-1.481.32-.451.22-.846.52-1.181.91-.337.38-.602.84-.792 1.37-.191.53-.286 1.1-.286 1.71 0 .63.095 1.21.286 1.74.19.54.452 1.01.781 1.4.327.4.719.7 1.168.92.452.21.945.32 1.481.32m.024 3.22c-1.148 0-2.188-.2-3.122-.6-.931-.41-1.731-.95-2.395-1.64-.667-.68-1.179-1.48-1.538-2.41-.36-.92-.539-1.91-.539-2.97 0-1.04.179-2.02.539-2.94.359-.92.871-1.71 1.538-2.39.664-.68 1.464-1.21 2.395-1.6.934-.39 1.974-.58 3.122-.58 1.146 0 2.186.19 3.12.58.931.39 1.731.92 2.395 1.6.667.68 1.179 1.47 1.538 2.39.36.92.539 1.9.539 2.94 0 1.06-.179 2.05-.539 2.97-.359.93-.871 1.73-1.538 2.41-.664.69-1.464 1.23-2.395 1.64-.934.4-1.974.6-3.12.6"/></g><g fill="#0071b9"><path d="m71.25 305.34c-.251 0-.487-.001-.713-.03-.229-.02-.422-.05-.586-.08v-4.28h-3.977c-.03-.15-.06-.32-.089-.52-.03-.2-.044-.43-.044-.7 0-.55.117-.94.351-1.16s.52-.33.858-.33h2.901v-3.05c0-.34.104-.62.311-.85.204-.23.585-.34 1.143-.34.248 0 .484.001.713.03.226.02.422.05.583.08v4.13h4.02c.03.15.06.32.087.52.03.2.044.42.044.69 0 .56-.117.95-.352 1.16-.234.22-.52.34-.857.34h-2.945v3.21c0 .33-.104.61-.308.84s-.585.34-1.143.34"/><path d="m83.08 306.93c-.319 0-.634-.02-.947-.05s-.575-.06-.787-.11v-10.75l-2.513 1.14c-.122-.15-.25-.32-.386-.5-.139-.19-.259-.41-.368-.69-.106-.27-.157-.55-.157-.82 0-.36.098-.68.296-.93.196-.26.471-.48.822-.64l3.332-1.58h2.671v13.33c0 .44-.137.82-.412 1.13-.272.32-.789.47-1.551.47"/></g><path opacity=".4" d="m-34.35 288.32c-1.619 0-2.24.64-2.24 2.56l-.005 16.49c0 1.03.06 1.72.212 1.72.055-.32.104-1.91 1.846-3.36.656-.51 1.559-1 2.686-1.47 1.853-.72 3.68-1.29 5.249-1.7.417-.11.916-.23 1.312-.33 1.209-.27 2.427-.54 3.451-.75.365-.07.741-.14 1.054-.2 1.136-.21 2.284-.42 3.25-.58.375-.06.758-.12 1.078-.18 1.178-.18 2.369-.36 3.371-.5 1.48-.21 2.976-.41 4.234-.56 1.199-.15 2.413-.29 3.433-.4.411-.05.83-.09 1.181-.13 1.181-.12 2.377-.25 3.384-.34 4.302-.41 8.639-.76 12.61-1.02 1.293-.08 2.608-.17 3.715-.23 1.912-.11 3.853-.21 5.484-.29 1.287-.06 2.594-.12 3.696-.16.762-.04 1.537-.06 2.189-.09 2.346-.08 4.731-.16 6.74-.21 1.058-.02 2.148-.05 3.101-.07 1.173-.02 2.366-.04 3.372-.06.726-.001 1.465-.02 2.088-.02 1.506-.02 3.037-.03 4.325-.03h1.577c1.301 0 2.597 0 3.892.001 1.498.001 3.02.03 4.311.05 4.605.07 9.508.21 13.706.4.955.04 1.929.09 2.75.13 2.996.17 6.06.35 8.649.55 1.284.1 2.593.2 3.698.3 2.031.19 4.107.39 5.862.59 3.916.5 7.957 1.03 11.392 1.67.59.11 1.16.22 1.73.34.98.2 1.93.42 2.84.64 1.58.38 3.03.79 4.34 1.23 1.04.36 2.12.75 3.01 1.15 1.55.7 2.78 1.45 3.64 2.26 1.58 1.56 1.79 3.04 1.85 3.36.16 0 .21-.69.21-1.72l-.001-16.49c0-1.92-.62-2.56-2.23-2.56-.55 0-1.1.29-1.83.29h-148.38c-.728 0-1.275-.29-1.823-.29" fill="url(#2)"/></g></svg>