<svg xmlns="http://www.w3.org/2000/svg" height="178.69" width="600" viewBox="0 0 158.75 47.278964"><g transform="translate(99.61-436.31)" fill="#e40069"><path d="m-60.12 477.83v-.02c0-1.2-.804-1.99-1.754-1.99-.952 0-1.743.79-1.743 1.99v.02c0 1.2.791 1.99 1.743 1.99.95 0 1.754-.78 1.754-1.99m-5.507-3.6h2.038v1.03c.496-.67 1.179-1.16 2.236-1.16 1.674 0 3.269 1.31 3.269 3.71v.02c0 2.4-1.567 3.71-3.269 3.71-1.085 0-1.753-.49-2.236-1.07v3.08h-2.038z"/><path d="m-57.25 471.63h2.038v9.78h-2.038z"/><path d="m-49.658 478.88v-.36c-.349-.16-.804-.27-1.299-.27-.871 0-1.407.35-1.407.99v.03c0 .55.455.87 1.112.87.95 0 1.594-.52 1.594-1.26m-4.675.47v-.03c0-1.57 1.191-2.29 2.893-2.29.724 0 1.246.12 1.754.3v-.13c0-.84-.521-1.31-1.538-1.31-.778 0-1.327.15-1.984.39l-.509-1.55c.791-.35 1.567-.58 2.786-.58 1.111 0 1.917.3 2.425.8.535.54.776 1.33.776 2.29v4.17h-1.969v-.78c-.495.55-1.178.91-2.169.91-1.353 0-2.465-.77-2.465-2.19"/><path d="m-42.16 474.23h2.116l-2.76 7.35c-.549 1.47-1.138 2.01-2.357 2.01-.737 0-1.286-.18-1.809-.49l.683-1.48c.269.17.605.29.872.29.349 0 .534-.11.709-.47l-2.812-7.21h2.157l1.633 4.89z"/><path d="m-34.818 474.23h2.036v1.02c.469-.6 1.086-1.15 2.117-1.15.938 0 1.648.41 2.02 1.13.631-.73 1.381-1.13 2.359-1.13 1.513 0 2.424.91 2.424 2.64v4.67h-2.036v-4c0-.97-.429-1.46-1.191-1.46-.763 0-1.233.49-1.233 1.46v4h-2.035v-4c0-.97-.429-1.46-1.194-1.46-.763 0-1.232.49-1.232 1.46v4h-2.036z"/><path d="m-22.903 478.88v-4.65h2.035v4.01c0 .96.455 1.46 1.233 1.46.777 0 1.273-.5 1.273-1.46v-4.01h2.036v7.18h-2.036v-1.02c-.47.61-1.071 1.15-2.103 1.15-1.54 0-2.438-1.01-2.438-2.66"/><path d="m-15.561 480.46l.87-1.34c.778.56 1.594.86 2.264.86.589 0 .856-.22.856-.54v-.03c0-.44-.696-.59-1.485-.83-1.01-.29-2.143-.76-2.143-2.15v-.03c0-1.46 1.178-2.28 2.624-2.28.911 0 1.902.31 2.68.83l-.778 1.41c-.709-.41-1.42-.67-1.941-.67-.496 0-.75.22-.75.5v.02c0 .41.683.59 1.459.86 1 .33 2.171.82 2.171 2.13v.03c0 1.59-1.193 2.31-2.747 2.31-1 0-2.13-.33-3.08-1.08"/><path d="m-8.666 474.23h2.036v7.18h-2.036zm-.054-2.6h2.143v1.81h-2.143z"/><path d="m-5.566 477.86v-.03c0-2.05 1.566-3.73 3.764-3.73 1.353 0 2.197.45 2.867 1.2l-1.247 1.34c-.455-.48-.909-.79-1.633-.79-1.019 0-1.741.9-1.741 1.96v.02c0 1.1.709 1.99 1.823 1.99.681 0 1.151-.3 1.646-.77l1.193 1.21c-.698.76-1.501 1.31-2.934 1.31-2.157 0-3.738-1.66-3.738-3.71"/><path d="m1.873 482.74c.924-.1 1.381-.57 1.312-1.33h-.829v-2.14h2.169v1.81c0 1.76-.883 2.47-2.478 2.5z"/><path d="m15.794 477.83v-.02c0-1.2-.803-1.99-1.754-1.99-.952 0-1.742.79-1.742 1.99v.02c0 1.2.79 1.99 1.742 1.99.951 0 1.754-.78 1.754-1.99m-5.506-3.6h2.036v1.03c.497-.67 1.18-1.16 2.238-1.16 1.674 0 3.268 1.31 3.268 3.71v.02c0 2.4-1.566 3.71-3.268 3.71-1.086 0-1.754-.49-2.238-1.07v3.08h-2.036z"/><path d="m18.662 471.63h2.036v9.78h-2.036z"/><path d="m26.26 478.88v-.36c-.349-.16-.803-.27-1.299-.27-.87 0-1.407.35-1.407.99v.03c0 .55.455.87 1.112.87.952 0 1.594-.52 1.594-1.26m-4.675.47v-.03c0-1.57 1.192-2.29 2.894-2.29.723 0 1.245.12 1.753.3v-.13c0-.84-.521-1.31-1.54-1.31-.776 0-1.325.15-1.982.39l-.508-1.55c.79-.35 1.566-.58 2.785-.58 1.114 0 1.917.3 2.426.8.536.54.776 1.33.776 2.29v4.17h-1.968v-.78c-.497.55-1.18.91-2.171.91-1.353 0-2.465-.77-2.465-2.19"/><path d="m33.75 474.23h2.115l-2.759 7.35c-.55 1.47-1.138 2.01-2.357 2.01-.737 0-1.286-.18-1.81-.49l.685-1.48c.267.17.601.29.871.29.347 0 .534-.11.708-.47l-2.811-7.21h2.156l1.633 4.89z"/><path d="m41.19 471.63h2.038v9.78h-2.038z"/><path d="m44.3 474.23h2.035v7.18h-2.035zm-.056-2.6h2.143v1.81h-2.143z"/><path d="m48.27 475.97h-.843v-1.67h.843v-.46c0-.79.202-1.36.577-1.74.373-.37.924-.56 1.646-.56.644 0 1.073.08 1.448.2v1.69c-.296-.11-.578-.18-.925-.18-.469 0-.736.24-.736.78v.28h1.646v1.66h-1.62v5.44h-2.036z"/><path d="m57.16 477.26c-.121-.91-.657-1.53-1.514-1.53-.843 0-1.394.6-1.554 1.53zm-5.063.6v-.03c0-2.05 1.459-3.73 3.549-3.73 2.399 0 3.496 1.86 3.496 3.89 0 .16-.013.35-.026.54h-4.998c.202.93.845 1.41 1.756 1.41.683 0 1.178-.22 1.742-.74l1.164 1.03c-.67.83-1.633 1.34-2.932 1.34-2.159 0-3.751-1.51-3.751-3.71"/><path d="m-30.414 460.46v-24.14h-8.05v26.5c0 3.14 2.549 5.69 5.693 5.69h14.428v-8.05z"/><path d="m51.08 456.44h8.05v-20.13h-8.05z"/><path d="m51.08 468.51h8.05v-8.05h-8.05z"/><path d="m.773 452.41h-8.05v-8.05h8.05zm2.355-16.1h-12.757c-3.145 0-5.694 2.55-5.694 5.7v26.5h8.05v-8.05h8.05v8.05h8.05v-26.5c0-3.15-2.55-5.7-5.694-5.7"/><path d="m42.37 436.32h-24.832c-3.143 0-5.693 2.54-5.693 5.69v26.5h8.05v-24.15h6.04v24.15h8.05v-24.15h6.04v24.15h8.05v-26.5c0-3.15-2.549-5.69-5.693-5.69"/><path d="m-59.932 436.32c-3.144 0-5.694 2.54-5.694 5.69v8.73c0 3.15 2.55 5.7 5.694 5.7h10.404v4.02h-16.1v8.05h18.451c3.146 0 5.694-2.55 5.694-5.69v-8.74c0-3.14-2.548-5.69-5.694-5.69h-10.402v-4.03h16.1v-8.04z"/><path d="m-94.04 462.62v-20.41l18.342 10.19zm21.723-14.71l-19.637-10.92c-.013-.001-.028-.001-.041-.02-.74-.42-1.594-.65-2.503-.65-2.823 0-5.111 2.28-5.111 5.11v21.97c0 2.82 2.288 5.11 5.111 5.11.909 0 1.763-.24 2.503-.66l19.673-10.95c1.594-.87 2.676-2.56 2.676-4.5s-1.08-3.62-2.671-4.49"/></g></svg>