<svg xmlns="http://www.w3.org/2000/svg" viewBox="0 0 600 432.41"><g fill="#79bb19"><path d="m.281 0v359.81h599.72v-359.81h-599.72m59.969 59.969h179.91v59.971h-119.91v59.97h-60v-119.94m405.19 1.53h59.84v59.75h-59.84v-59.75m-285.25 118.41h59.97v119.93h-179.91v-59.96h119.94v-59.97m285.4 56.43h59.88v59.78h-59.88v-59.78"/><path d="m26.546 432.4h-26.546v-9.596h21.17v-8.475h-15.801l-3.764-1.4-1.609-3.45v-17.67l1.609-3.361 3.764-1.408h26.431v9.624h-21.06v7.958h15.801l3.706 1.379 1.551 3.476v18.07l-1.551 3.448-3.706 1.408z"/><path d="m50.21 422.79h19.852v9.624h-30.597v-45.16h10.745v35.539"/><path d="m81.938 387.25l-3.75 1.406-1.531 3.344v35.656l1.531 3.406 3.75 1.344h25.813l3.719-1.344 1.563-3.406v-35.656l-1.563-3.344-3.719-1.406h-25.813m5.375 9.594h15.06v25.938h-15.06v-25.938"/><path d="m163.35 387.24l-13.446 45.16h-16.318l-13.532-45.16h10.86l10.831 35.34 10.745-35.34h10.86"/><path d="m175.75 387.34l-14.781 45.06h10.938l3.625-10.625h16.75l3.5 10.625h10.969l-14.781-45.06h-16.219m8.155 9.5l5.063 15.219h-10.219l5.156-15.219"/><path d="m238.26 432.4l-8.992-12.928-8.992 12.928h-8.992v-45.16h10.659v21.72l14.451-21.72h15.313l-15.198 21.72h.316l15.485 23.443h-14.05"/><path d="m315.23 432.4h-26.546v-9.596h21.17v-8.475h-15.801l-3.764-1.408-1.609-3.448v-17.669l1.609-3.361 3.764-1.408h26.431v9.624h-21.06v7.958h15.801l3.735 1.379 1.523 3.476v18.07l-1.523 3.448-3.735 1.408"/><path d="m329 387.25v45.16h10.75v-15.5h20.12l3.719-1.406 1.563-3.469v-20.03l-1.563-3.375-3.719-1.375h-30.875m10.75 9.594h14.75v10.438h-14.75v-10.438"/><path d="m378.78 387.25l-3.719 1.406-1.531 3.344v35.656l1.531 3.406 3.719 1.344h25.844l3.719-1.344 1.531-3.406v-35.656l-1.531-3.344-3.719-1.406h-25.844m5.375 9.594h15.09v25.938h-15.09v-25.938"/><path d="m419.5 387.25v45.16h10.625v-15.531h7.656l10.344 15.531h12.406l-10.34-15.53 3.81-1.38 1.563-3.469v-20.03l-1.563-3.344-3.813-1.406h-30.688m10.625 9.624h14.781v10.406h-14.781v-10.406"/><path d="m495.23 396.75h-10.429v35.654h-10.659v-35.654h-10.429v-9.51h31.516v9.51"/><path d="m511.66 432.39h-8.676v-9.596h8.676v9.596"/><path d="m551.65 396.75h-10.429v35.654h-10.659v-35.654h-10.429v-9.51h31.516v9.51"/><path d="m599.69 387.24l-13.417 45.16h-16.347l-13.532-45.16h10.86l10.831 35.34 10.745-35.34h10.86"/></g></svg>