<?xml version="1.0" encoding="UTF-8" standalone="no"?>
<svg xmlns:rdf="http://www.w3.org/1999/02/22-rdf-syntax-ns#" xmlns="http://www.w3.org/2000/svg" height="83.49" width="600" version="1.1" xmlns:cc="http://creativecommons.org/ns#" xmlns:dc="http://purl.org/dc/elements/1.1/" viewBox="0 0 158.75002 22.09">
 <g fill="#e4374b" transform="translate(.00025902)">
  <path d="m50.27 0.32-8.36 16.9-1.46 2.96-0.76 1.6h6.91l1.26-3.01h5.81l0.31 3.01h7.2l-0.31-1.36h0.01c0.01 0 0.03 0.01 0.04 0.02-0.02-0.02-0.04-0.04-0.06-0.05-1.07-0.99-1.27-1.34-1.3-1.4v-0.03l0.09-0.37 0.5-2.64-2.76-15.63zm2.22 7.43 0.62 5.6h-2.98z"/>
  <path d="m142.51 5.3 0.8-5.04h-13.9l-0.97 5.51h3.97l-2.52 15.96h6.81l2.52-15.96h3.07c0.1-0.26 0.22-0.47 0.22-0.47"/>
  <path d="m151.34 7.85c-1.38-0.48-2.38-0.82-2.38-1.5 0-0.74 0.94-1 1.76-1 1.64 0 3.6 1.02 4.79 2l3.24-4.86c-1.7-1.56-4.79-2.49-6.84-2.49-4.82 0-9.69 2.59-9.69 8.36 0 3.64 3.23 4.69 5.59 5.45 1.4 0.46 2.52 0.82 2.52 1.62 0 0.74-0.95 1-1.76 1-1.76 0-4.06-1.16-5.22-2.28l-3.75 5.14c2.16 1.83 4.72 2.8 7.42 2.8 4.87 0 10.1-2.7 10.1-8.62 0-3.6299-3.34-4.7799-5.78-5.62"/>
  <path d="m120.5 5.77h4.82l-5.37 3.2901-1.99 12.67h6.81l2.54-15.96 0.88-5.5299h-6.82z"/>
  <path d="m92.11 0.24-1.25 7.76h-5.54l1.21-7.76h-6.82l-3.39 21.49h6.82l1.24-7.91h5.58l-1.28 7.91h6.82l3.43-21.49z"/>
  <path d="m112.91 0.24-1.25 7.76h-5.54l1.21-7.76h-6.82l-3.39 21.49h6.82l1.24-7.91h5.58l-1.28 7.91h6.82l3.43-21.49z"/>
  <path d="m40.03 20.18 2.22-6.22 1.4-13.66h-8.56l-4.7 12.27-0.79-12.27h-8.58l-4.6 21.48h6.32l2.4-12.67 0.92 12.67h5.73l5.08-12.55-1.75 12.55h4.57l0.76-1.6z"/>
  <path d="m11.74 7.85c-1.38-0.48-2.3804-0.82-2.3804-1.5 0-0.74 0.9404-1 1.7604-1 1.64 0 3.6 1.02 4.79 2l3.24-4.86c-1.7-1.56-4.78-2.49-6.83-2.49-4.8304 0-9.6934 2.59-9.6934 8.36 0 3.64 3.223 4.69 5.583 5.45 1.41 0.46 2.5204 0.82 2.5204 1.62 0 0.74-0.9504 1-1.7604 1-1.76 0-4.06-1.16-5.214-2.28l-3.7561 5.14c2.162 1.83 4.7271 2.8 7.4301 2.8 4.8604 0 10.1-2.7 10.1-8.62 0-3.6299-3.35-4.7799-5.79-5.62"/>
  <path d="m71.06 7.85c-1.38-0.48-2.38-0.82-2.38-1.5 0-0.74 0.95-1 1.76-1 1.65 0 3.6 1.02 4.79 2l3.25-4.86c-1.7-1.56-4.79-2.49-6.84-2.49-4.82 0-9.69 2.59-9.69 8.36 0 3.64 3.22 4.69 5.58 5.45 1.41 0.46 2.52 0.82 2.52 1.62 0 0.74-0.94 1-1.76 1-1.76 0-4.06-1.16-5.21-2.28l-3.29 4.5-0.23 0.34c0.03 0.06 0.23 0.41 1.3 1.4 0.02 0.01 0.04 0.03 0.06 0.05 1.78 1.08 3.77 1.65 5.83 1.65 4.86 0 10.1-2.7 10.1-8.62 0-3.6299-3.34-4.7799-5.79-5.62"/>
 </g>
</svg>
