<svg xmlns="http://www.w3.org/2000/svg" viewBox="0 0 600 123.8"><defs><linearGradient id="5" gradientUnits="userSpaceOnUse" x2="0" y1="492.86" y2="21.895"><stop stop-color="#9cba21"/><stop stop-color="#b4d726" offset="1"/></linearGradient><linearGradient id="4" gradientUnits="userSpaceOnUse" x2="0" y1="492.86" y2="21.895"><stop stop-color="#d6c616"/><stop stop-color="#f7e419" offset="1"/></linearGradient><linearGradient id="6" gradientUnits="userSpaceOnUse" x2="0" y1="492.86" y2="21.895"><stop stop-color="#535556"/><stop stop-color="#5f6163" offset="1"/></linearGradient><linearGradient id="3" gradientUnits="userSpaceOnUse" x2="0" y1="492.86" y2="21.895"><stop stop-color="#4694c6"/><stop stop-color="#50abe4" offset="1"/></linearGradient><linearGradient id="1" gradientUnits="userSpaceOnUse" x2="0" y1="492.86" y2="21.895"><stop stop-color="#ba1055"/><stop stop-color="#d41364" offset="1"/></linearGradient><linearGradient id="0" gradientUnits="userSpaceOnUse" x2="0" y1="492.86" y2="21.895"><stop stop-color="#d6701b"/><stop stop-color="#f6821f" offset="1"/></linearGradient><linearGradient id="2" gradientUnits="userSpaceOnUse" x2="0" y1="492.86" y2="21.895"><stop stop-color="#62ae3f"/><stop stop-color="#71c949" offset="1"/></linearGradient></defs><g transform="translate(505.25-192.4)"><path fill="url(#5)" d="m-472.17 276.14c5.153 2.319 7.683 5.692 7.613 10.1-.07 3.092-1.101 5.669-3.069 7.683-1.897 1.991-4.334 2.975-7.308 2.975h-.187c-6.161-.117-9.768-3.678-10.846-10.658h-19.279c.492 8.597 3.443 15.741 8.925 21.316 5.645 5.739 12.696 8.644 21.2 8.644 8.48 0 15.624-2.952 21.434-8.808 5.856-5.88 8.761-13.02 8.761-21.48 0-12.673-6.067-21.738-18.295-27.17l-8.948 17.405z"/><path fill="url(#4)" d="m-386.46 255.48l-44.765-36.22v25.06l44.647 36 25.346-20.262v53.55h19.606v-94.36l-44.835 36.22"/><path fill="url(#6)" d="m-236.33 239.3c7.05 1.546 12.813 5.2 17.358 10.892l15.179-12.04c-7.777-10.447-18.646-16.608-32.537-18.482v19.63m0 55.985v19.817c13.305-1.64 24.268-7.871 32.771-18.716l-15.413-11.806c-4.544 5.739-10.307 9.3-17.358 10.705"/><path fill="url(#3)" d="m-189.67 313.62h19.63v-91.75h-19.63v91.75"/><path fill="url(#1)" d="m-3.234 220.25l48.981 95.15 11.06-21.2-38.25-73.952h-21.785z"/><path fill="url(#0)" d="m-495.71 226.32c-5.177 5.04-7.777 11.431-7.777 19.12 0 13.188 7.285 20.895 20.989 26.26l9.253-17.241c-3.186-1.335-6.02-2.46-7.308-3.209-2.225-1.265-3.326-3.209-3.326-5.762l2.132-5.271c1.406-1.429 3.186-2.155 5.317-2.155 3.982 0 6.325 2.6 6.957 7.73h20.286c-.515-8.03-3.162-14.476-7.964-19.372-4.943-5.083-11.314-7.636-19.14-7.636-7.754 0-14.219 2.53-19.419 7.543"/><path fill="url(#3)" d="m-431.23 313.97h19.606v-39.33l-19.606-15.788v55.12"/><path fill="url(#5)" d="m-311.43 192.4l-13.305 21.598h16.866l13.305-21.598h-16.866m-12.04 121.11h19.63v-92.41h-19.63v92.41"/><path fill="url(#1)" d="m-277.54 235.45c-8.06 8.925-12.02 19.56-12.02 31.904 0 12.321 3.912 22.839 11.853 31.647 7.941 8.761 18.13 14.1 30.546 15.999v-19.817c-6.957-1.757-12.462-4.99-16.561-9.838-4.263-5.04-6.372-10.986-6.372-17.99 0-6.981 2.108-12.977 6.372-18.06 4.099-4.919 9.604-8.269 16.561-10.07v-19.63c-12.368 1.827-22.511 7.098-30.382 15.859"/><path fill="url(#2)" d="m-128.91 313.53h19.606v-91.99h-19.606v91.99m-33.26-36.636h25.346v-19.02h-25.346v19.02"/><path fill="url(#0)" d="m72.873 220.44l-21.01 40.759 10.916 21.18 31.975-61.935h-21.879"/><path fill="url(#5)" d="m-20.287 273.57c-2.764 12.626-14.01 22.11-27.454 22.11-13.469 0-24.76-9.487-27.547-22.11h-19.841c3.069 23.448 23.12 41.602 47.41 41.602 24.291 0 44.34-18.15 47.46-41.602h-20.03"/><path fill="url(#4)" d="m-95.13 261.1h19.981c2.881-12.485 14.05-21.738 27.407-21.738 13.329 0 24.502 9.253 27.383 21.738h20.1c-3.114-23.49-23.17-41.62-47.46-41.62s-44.34 18.13-47.41 41.626"/></g></svg>