<?xml version="1.0" encoding="UTF-8" standalone="no"?>
<!-- Creator: CorelDRAW X5 -->
<svg xmlns:rdf="http://www.w3.org/1999/02/22-rdf-syntax-ns#" xmlns="http://www.w3.org/2000/svg" fill-rule="evenodd" xml:space="preserve" height="664.03" width="600" version="1.1" xmlns:cc="http://creativecommons.org/ns#" xmlns:dc="http://purl.org/dc/elements/1.1/" viewBox="0 0 6666.6667 7378.1292"><metadata><rdf:RDF><cc:Work rdf:about=""><dc:format>image/svg+xml</dc:format><dc:type rdf:resource="http://purl.org/dc/dcmitype/StillImage"/><dc:title/></cc:Work></rdf:RDF></metadata><defs><style type="text/css">
    .fil0 {fill:#101372}
    .fil1 {fill:white}
    .fil2 {fill:#101372;fill-rule:nonzero}
   </style></defs><rect class="fil0" width="6666.7" y="2.2737E-13" x="-0.000036123" height="6017.3" fill="#101372"/><path fill="#FFF" class="fil1" d="m4280.1,655c301.15,37.644,830.04,406.55,831.92,822.51h1398.5v1065.3c-432.9-404.67-3380.4-485.6-3250.5-1449.3,43.29-321.85,474.31-506.31,1020.1-438.55zm-3034.1-521.36-1114.2,0,0,4679.1,922.27,0,0-698.29,2401.7,0,0,698.29,1853.9,0c22.586-124.22,5.6466-235.27-45.172-333.15-35.761-69.64-103.52-137.4-173.16-178.81-615.5-357.6-1949.9-647.5-2648.2-894.1-399.1-141.1-800-353.8-1093.6-656.8-301.1-308.7-444.17-773.6-463-1193.3-15.05-929.84,357.6-1424.8,357.6-1424.8z"/><polygon transform="matrix(1.8821758,0,0,1.8821758,-6.2099976e-5,-2.4804687e-5)" points="561,2186,1837,2186,1837,2557,561,2557" class="fil0" fill="#101372"/><path fill="#101372" class="fil0" d="m1246,131.75,5264.4,0,0,1343.9-1398.5,0c0-415.96-528.89-784.87-831.92-822.51-545.83-67.758-976.85,116.69-1020.1,438.55-129.87,965.56,2817.6,1046.5,3250.5,1449.3v2269.9h-1198.9c22.586-124.22,5.6465-235.27-45.172-333.15-35.761-69.64-103.52-137.4-173.16-178.81-615.4-357.5-1949.9-647.4-2648.2-893.9-399-141.2-799.9-353.9-1093.5-656.9-301.1-308.7-444.19-773.6-463.01-1193.3-15.06-929.82,357.61-1424.8,357.61-1424.8z"/><path d="m161.87,6610.2,0-60.23,24.468,0c16.94,0,28.233-1.8822,31.997-7.5287,5.6465-3.7644,7.5287-15.057,7.5287-33.879v-263.5c0-18.822-1.8822-30.115-7.5287-33.879-5.6465-3.7643-15.057-7.5287-31.997-7.5287h-24.468v-60.23h434.78v176.92h-58.347c-3.7644-26.35-7.5287-47.054-13.175-62.112-5.6465-13.175-11.293-24.468-18.822-31.997-7.5287-7.5287-18.822-13.175-31.997-16.94-13.175-3.7644-35.761-5.6466-69.64-5.6466h-56.465v131.75h11.293c24.468,0,41.408-5.6465,48.936-15.057,7.5288-9.4108,13.175-30.115,13.175-58.347h54.583v212.69h-54.583c0-31.997-5.6465-52.701-11.293-62.112-7.5287-9.4109-24.468-15.058-48.936-15.058h-11.293v150.57h58.347c48.937,0,80.934-9.4109,97.873-26.35,16.94-16.94,28.233-52.701,31.997-105.4h58.347v191.98h-434.78zm555.24-365.14c0-16.94-1.8822-28.233-7.5287-33.879-5.6465-3.7643-16.94-7.5287-33.879-7.5287h-22.586v-60.23h210.8l169.4,323.73v-223.98c0-16.94-1.8821-28.233-7.5287-33.879-5.6465-3.7644-16.94-7.5287-33.879-7.5287h-24.468v-60.23h201.39v60.23h-20.704c-16.94,0-28.233,1.8821-33.879,7.5287-5.6465,3.7643-7.5287,15.057-7.5287,33.879v365.14h-135.52l-180.69-346.32v244.68c0,16.94,1.8822,28.233,7.5287,33.879,5.6465,3.7644,16.94,7.5287,33.879,7.5287h24.468v60.23h-203.27v-60.23h22.586c16.94,0,28.233-1.8822,33.879-7.5287,5.6465-3.7643,7.5287-15.057,7.5287-33.879v-263.5zm903.44-101.64,0,178.81-60.23,0c0-39.526-7.5287-69.64-20.704-88.462-15.057-18.822-35.761-28.233-65.876-28.233h-7.5287v295.5c0,16.94,0,26.35,1.8822,31.997,1.8821,5.6465,3.7643,7.5287,7.5287,9.4109,3.7643,1.8822,11.293,3.7643,18.822,3.7643,7.5287,0,20.704,1.8822,41.408,1.8822v60.23h-261.62v-60.23c13.175,0,26.35,0,35.761-1.8822,9.4109-1.8821,18.822-1.8821,24.468-5.6465,3.7643-1.8822,5.6465-3.7643,7.5287-9.4109,1.8822-5.6465,1.8822-15.057,1.8822-30.115v-9.4109-287.97h-5.6466c-30.115,0-52.701,9.4109-65.876,28.233-15.057,18.822-22.586,48.936-22.586,88.462h-58.348v-178.81h429.14zm26.35,464.9,0-60.23,24.468,0c16.94,0,28.233-1.8822,31.997-7.5287,5.6466-3.7643,7.5287-15.057,7.5287-33.879v-263.5c0-18.822-1.8821-30.115-7.5287-33.879-5.6465-3.7644-15.057-7.5287-31.997-7.5287h-24.468v-60.23h434.78v176.92h-58.348c-3.7643-26.35-7.5287-47.054-13.175-62.112-5.6465-13.175-11.293-24.468-18.822-31.997-7.5287-7.5287-18.822-13.175-31.997-16.94-13.175-3.7644-35.761-5.6465-69.64-5.6465h-56.465v131.75h11.293c24.468,0,41.408-5.6466,48.937-15.057,7.5287-9.4109,13.175-30.115,13.175-58.348h54.583v212.69h-54.583c0-31.997-5.6465-52.701-11.293-62.112-7.5287-9.4109-24.468-15.057-48.937-15.057h-11.293v150.57h58.348c48.937,0,80.934-9.4108,97.873-26.35,16.94-16.94,28.233-52.701,31.997-105.4h58.348v191.98h-434.78zm679.47-272.92,47.054,0c33.879,0,56.465-3.7643,67.758-13.175,11.293-9.4109,18.822-26.35,18.822-48.937,0-24.468-5.6465-43.29-18.822-52.701-11.293-9.4109-33.879-15.057-62.112-15.057h-50.819v131.75zm0,171.28c0,16.94,1.8822,28.233,7.5287,33.879,5.6466,3.7644,15.057,7.5287,33.879,7.5287h22.586v60.23h-252.21v-60.23h24.468c16.94,0,28.233-1.8822,31.997-7.5287,5.6465-3.7643,7.5287-15.057,7.5287-33.879v-263.5c0-18.822-1.8822-30.115-7.5287-33.879-5.6465-3.7644-15.057-7.5287-31.997-7.5287h-24.468v-60.23h289.86c54.583,0,94.109,9.4109,120.46,28.233,26.35,18.822,39.526,48.936,39.526,86.58,0,28.233-9.4109,50.819-26.35,67.758-16.94,18.822-43.29,30.115-75.287,37.644,28.233,5.6465,48.936,15.057,60.23,30.115,11.293,15.057,18.822,35.761,18.822,63.994v45.172c0,18.822,1.8822,31.997,3.7644,39.526,1.8821,7.5287,7.5287,9.4109,15.057,9.4109,7.5287,0,15.057-5.6465,16.94-15.057,3.7643-9.4109,5.6465-30.115,5.6465-58.348h43.29v9.4109,9.4109c0,43.29-7.5287,73.405-24.468,94.109-16.94,20.704-43.29,30.115-77.169,30.115-37.644,0-63.994-9.4109-80.934-28.233s-26.35-48.937-26.35-90.344v-45.172c0-26.35-3.7643-43.29-11.293-50.819-7.5287-7.5287-24.468-11.293-48.937-11.293h-54.583v111.05zm769.81-365.14,0,178.81-60.23,0c0-39.526-7.5287-69.64-20.704-88.462-15.057-18.822-35.761-28.233-65.876-28.233h-7.5287v295.5c0,16.94,0,26.35,1.8822,31.997,1.8821,5.6466,3.7643,7.5287,7.5287,9.4109,3.7643,1.8822,11.293,3.7644,18.822,3.7644,7.5287,0,20.704,1.8821,41.408,1.8821v60.23h-261.62v-60.23c13.175,0,26.35,0,35.761-1.8821,9.4109-1.8822,18.822-1.8822,24.468-5.6466,3.7643-1.8821,5.6465-3.7643,7.5287-9.4108,1.8821-5.6466,1.8821-15.058,1.8821-30.115v-9.4108-287.97h-5.6465c-30.115,0-52.701,9.4108-65.876,28.233-15.057,18.822-22.586,48.937-22.586,88.462h-58.348v-178.81h429.14zm269.15,255.98-45.172-146.81-45.172,146.81,90.344,0zm-263.5,210.8,0-60.23,15.057,0c15.057,0,24.468-1.8822,31.997-7.5287,7.5287-5.6465,13.175-16.94,18.822-37.644l112.93-359.5h131.75l109.17,361.38c5.6465,16.94,11.293,28.233,16.94,33.879,5.6465,5.6466,15.057,7.5287,28.233,7.5287h22.586v60.23h-242.8v-60.23h18.822c15.057,0,26.35-1.8821,31.997-3.7643,5.6465-1.8822,7.5287-7.5287,7.5287-13.175,0-1.8822,0-5.6466-1.8822-9.4109,0-1.8822-1.8821-3.7644-1.8821-5.6466l-16.94-56.465h-126.11l-16.94,52.701c0,3.7643-1.8821,5.6465-1.8821,9.4109,0,3.7643-1.8822,5.6465-1.8822,9.4109,0,5.6465,1.8822,11.293,7.5287,13.175,3.7643,1.8822,15.057,3.7643,28.233,3.7643h20.704v60.23h-193.86zm493.13,0,0-60.23,26.35,0c16.94,0,28.233-1.8822,31.997-7.5287,5.6466-3.7643,7.5287-15.057,7.5287-33.879v-263.5c0-18.822-1.8821-30.115-7.5287-33.879-5.6465-3.7644-15.057-7.5287-31.997-7.5287h-26.35v-60.23h259.74v60.23h-26.35c-16.94,0-28.233,1.8821-33.879,7.5287-5.6465,3.7643-7.5287,15.057-7.5287,33.879v263.5c0,16.94,1.8822,28.233,7.5287,33.879,5.6465,3.7644,16.94,7.5287,33.879,7.5287h26.35v60.23h-259.74zm350.08-365.14c0-16.94-1.8822-28.233-7.5287-33.879-5.6466-3.7644-16.94-7.5287-33.879-7.5287h-22.586v-60.23h210.8l169.4,323.73v-223.98c0-16.94-1.8822-28.233-7.5287-33.879-5.6465-3.7644-16.94-7.5287-33.879-7.5287h-24.468v-60.23h201.39v60.23h-20.704c-16.94,0-28.233,1.8822-33.879,7.5287-5.6466,3.7643-7.5287,15.057-7.5287,33.879v365.14h-135.52l-180.69-346.32v244.68c0,16.94,1.8822,28.233,7.5287,33.879,5.6466,3.7644,16.94,7.5287,33.879,7.5287h24.468v60.23h-203.28v-60.23h22.586c16.94,0,28.233-1.8821,33.879-7.5287,5.6465-3.7643,7.5287-15.057,7.5287-33.879v-263.5zm607.94,263.5c0,16.94,1.8821,28.233,7.5287,33.879,5.6465,3.7644,15.057,7.5287,33.879,7.5287h13.175v60.23h-188.22v-60.23h20.704c16.94,0,28.233-1.8822,33.879-7.5287,5.6465-3.7643,7.5287-15.057,7.5287-33.879v-263.5c0-16.94-1.8822-28.233-7.5287-33.879-5.6466-3.7644-15.057-7.5287-33.879-7.5287h-20.704v-60.23h231.51l77.169,286.09,80.934-286.09h229.63v60.23h-22.586c-16.94,0-28.233,1.8821-33.879,7.5287-5.6465,3.7643-7.5287,15.057-7.5287,33.879v263.5c0,16.94,1.8822,28.233,7.5287,33.879,5.6466,3.7644,16.94,7.5287,33.879,7.5287h22.586v60.23h-231.51v-60.23h13.175c16.94,0,28.233-1.8822,31.997-7.5287,5.6465-3.7643,7.5287-15.057,7.5287-33.879v-289.86l-109.17,391.49h-88.462l-107.28-393.37v291.74zm508.19,101.64,0-60.23,24.468,0c16.94,0,28.233-1.8822,31.997-7.5287,5.6465-3.7643,7.5287-15.057,7.5287-33.879v-263.5c0-18.822-1.8822-30.115-7.5287-33.879-5.6465-3.7644-15.057-7.5287-31.997-7.5287h-24.468v-60.23h434.78v176.92h-58.347c-3.7644-26.35-7.5287-47.054-13.175-62.112-5.6466-13.175-11.293-24.468-18.822-31.997-7.5287-7.5287-18.822-13.175-31.997-16.94-13.175-3.7644-35.761-5.6465-69.64-5.6465h-56.465v131.75h11.293c24.468,0,41.408-5.6466,48.937-15.057,7.5287-9.4109,13.175-30.115,13.175-58.348h54.583v212.69h-54.583c0-31.997-5.6465-52.701-11.293-62.112-7.5287-9.4109-24.468-15.057-48.936-15.057h-11.293v150.57h58.348c48.936,0,80.934-9.4108,97.873-26.35,16.94-16.94,28.233-52.701,31.997-105.4h58.347v191.98h-434.78zm555.24-365.14c0-16.94-1.8822-28.233-7.5287-33.879-5.6465-3.7644-16.94-7.5287-33.879-7.5287h-22.586v-60.23h210.8l169.4,323.73v-223.98c0-16.94-1.8822-28.233-7.5287-33.879-5.6465-3.7644-16.94-7.5287-33.879-7.5287h-24.468v-60.23h201.39v60.23h-20.704c-16.94,0-28.233,1.8822-33.879,7.5287-5.6465,3.7643-7.5287,15.057-7.5287,33.879v365.14h-135.52l-180.69-346.32v244.68c0,16.94,1.8822,28.233,7.5287,33.879,5.6466,3.7644,16.94,7.5287,33.879,7.5287h24.468v60.23h-203.28v-60.23h22.586c16.94,0,28.233-1.8821,33.879-7.5287,5.6465-3.7643,7.5287-15.057,7.5287-33.879v-263.5zm903.44-101.64,0,178.81-60.23,0c0-39.526-7.5287-69.64-20.704-88.462-15.057-18.822-35.761-28.233-65.876-28.233h-7.5287v295.5c0,16.94,0,26.35,1.8821,31.997,1.8822,5.6466,3.7644,7.5287,7.5287,9.4109,3.7644,1.8822,11.293,3.7644,18.822,3.7644,7.5287,0,20.704,1.8821,41.408,1.8821v60.23h-261.62v-60.23c13.175,0,26.35,0,35.761-1.8821,9.4108-1.8822,18.822-1.8822,24.468-5.6466,3.7644-1.8821,5.6466-3.7643,7.5288-9.4108,1.8821-5.6466,1.8821-15.058,1.8821-30.115v-9.4108-287.97h-5.6465c-30.115,0-52.701,9.4108-65.876,28.233-15.057,18.822-22.586,48.937-22.586,88.462h-58.347v-178.81h429.14z" fill-rule="nonzero" class="fil2" fill="#101372"/><path d="m752.87,6747.6,0,235.27-86.58,0c0-52.701-9.4109-90.344-30.115-116.69-20.704-24.468-52.701-37.644-95.991-37.644h-9.4109v387.73c0,20.704,1.8822,35.761,3.7643,41.408,1.8822,7.5287,5.6466,11.293,11.293,13.175,5.6465,1.8822,15.057,5.6465,26.35,5.6465,11.293,1.8822,30.115,1.8822,58.347,1.8822v79.051h-378.32v-79.051c20.704,0,37.644,0,50.819-1.8822,15.057-1.8821,26.35-3.7643,35.761-5.6465,5.6466-1.8822,9.4109-5.6465,11.293-13.175,1.8822-7.5287,3.7644-20.704,3.7644-41.408v-11.293-376.44h-9.4109c-43.29,0-75.287,13.175-95.991,37.644-20.704,24.468-31.997,63.994-31.997,116.69h-84.698v-235.27h621.12zm3.7644,609.82,0-79.051,35.761,0c24.468,0,41.408-3.7643,47.054-9.4109,7.5287-5.6465,11.293-20.704,11.293-43.29v-344.44c0-24.468-3.7644-37.644-11.293-45.172-7.5287-5.6465-22.586-9.4109-47.054-9.4109h-35.761v-79.051h630.53v233.39h-82.816c-5.6466-35.761-11.293-62.112-18.822-80.934-7.5287-18.822-16.94-31.997-28.233-43.29s-26.35-18.822-45.172-22.586c-18.822-3.7643-52.701-7.5287-99.755-7.5287h-82.816v173.16h15.057c35.761,0,58.348-5.6465,71.523-18.822,11.293-13.175,18.822-37.644,18.822-77.169h79.051v278.56h-79.051c-1.8821-41.408-7.5287-69.641-16.94-82.816-11.293-13.175-33.879-18.822-71.523-18.822h-15.057v197.63h84.698c69.64,0,116.69-11.293,143.05-33.879,24.468-22.586,39.526-69.641,47.054-137.4h82.816v252.21h-630.53zm711.46-609.82,370.79,0,0,79.051-39.526,0c-24.468,0-41.408,3.7644-48.937,9.4109-7.5287,5.6465-11.293,20.704-11.293,43.29v397.14h50.819c48.937,0,80.934-1.8821,99.755-7.5287,18.822-3.7643,33.879-11.293,45.172-22.586,13.175-11.293,24.468-28.233,30.115-50.819,7.5287-20.704,13.175-50.819,15.057-90.344h82.816v250.33h-598.53v-79.051h35.761c24.468,0,41.408-3.7643,47.054-9.4108,7.5287-5.6466,11.293-20.704,11.293-43.29v-344.44c0-24.468-3.7644-37.644-11.293-45.172-7.5287-5.6465-22.586-9.4108-47.054-9.4108h-35.761v-79.051zm658.76,609.82,0-79.051,35.761,0c24.468,0,41.408-3.7643,47.054-9.4109,7.5287-5.6465,11.293-20.704,11.293-43.29v-344.44c0-24.468-3.7644-37.644-11.293-45.172-7.5287-5.6465-22.586-9.4109-47.054-9.4109h-35.761v-79.051h630.53v233.39h-82.816c-5.6465-35.761-11.293-62.112-18.822-80.934-7.5287-18.822-16.94-31.997-28.233-43.29s-26.35-18.822-45.172-22.586c-18.822-3.7643-52.701-7.5287-99.755-7.5287h-82.816v173.16h15.057c35.761,0,58.347-5.6465,71.523-18.822,11.293-13.175,18.822-37.644,18.822-77.169h79.051v278.56h-79.051c-1.8822-41.408-7.5287-69.641-16.94-82.816-11.293-13.175-33.879-18.822-71.523-18.822h-15.057v197.63h84.698c69.64,0,116.69-11.293,143.05-33.879,24.468-22.586,39.526-69.641,47.054-137.4h82.816v252.21h-630.53zm1123.7,0-178.81,0-161.87-461.13c-11.293-30.115-22.586-50.819-35.761-58.347-13.175-9.4109-33.879-13.175-62.112-15.057v-77.169h357.61v77.169h-15.057-20.704c-20.704,0-33.879,1.8822-41.408,5.6465-7.5287,3.7644-11.293,11.293-11.293,22.586,0,3.7644,1.8822,9.4109,1.8822,16.94,1.8821,7.5287,5.6465,18.822,11.293,35.761l101.64,297.38,109.17-312.44c5.6465-13.175,7.5287-24.468,9.4109-28.233,1.8822-5.6465,1.8822-9.4109,1.8822-11.293,0-9.4108-3.7644-15.057-13.175-18.822-9.4109-3.7644-22.586-5.6465-41.408-5.6465h-16.94-11.293v-77.169h276.68v77.169c-30.115,0-50.819,5.6465-65.876,18.822-15.057,11.293-26.35,35.761-37.644,71.523l-154.34,442.31zm274.8,0,0-79.051,39.526,0c24.468,0,41.408-3.7643,47.054-9.4109,7.5287-5.6465,11.293-20.704,11.293-43.29v-344.44c0-24.468-3.7643-37.644-11.293-45.172-7.5287-5.6465-22.586-9.4109-47.054-9.4109h-39.526v-79.051h376.44v79.051h-39.526c-24.468,0-41.408,3.7644-48.936,9.4109-7.5287,5.6465-11.293,20.704-11.293,43.29v344.44c0,22.586,3.7644,37.644,11.293,43.29,7.5287,5.6465,22.586,9.4108,48.936,9.4108h39.526v79.051h-376.44zm513.83,7.5287-77.169,0,0-240.92,84.698,0c7.5287,48.937,30.115,88.462,65.876,116.69,35.761,28.233,80.934,43.29,131.75,43.29,35.761,0,63.994-5.6465,84.698-18.822,20.704-13.175,30.115-30.115,30.115-52.701,0-35.761-37.644-62.112-114.81-79.051-13.175-1.8822-22.586-3.7644-28.233-5.6465-65.876-15.058-112.93-28.233-137.4-37.644-26.35-9.4108-47.054-20.704-63.994-33.879-20.704-16.94-37.644-35.761-48.937-56.465-11.293-22.586-16.94-47.054-16.94-73.405,0-62.112,22.586-109.17,67.758-143.05,45.172-33.879,109.17-50.819,191.98-50.819,41.408,0,77.169,3.7644,109.17,13.175,31.997,9.4108,58.347,20.704,82.816,37.644l18.822-43.29h79.051v223.98h-86.58c-5.6466-45.172-24.468-80.934-58.348-105.4-33.879-26.35-77.169-37.644-129.87-37.644-31.997,0-56.465,5.6465-75.287,18.822-18.822,13.175-28.233,30.115-28.233,50.819,0,31.997,41.408,54.583,126.11,71.523,31.997,5.6465,56.465,11.293,75.287,16.94,73.405,16.94,126.11,41.408,159.98,73.405,33.879,31.997,50.819,73.405,50.819,126.11,0,60.23-24.468,109.17-71.523,144.93-47.054,35.761-111.05,54.583-193.86,54.583-39.526,0-77.169-5.6465-114.81-15.057-37.644-9.4108-67.758-22.586-92.227-39.526l-26.35,45.172zm540.18-7.5287,0-79.051,39.526,0c24.468,0,41.408-3.7643,47.054-9.4109,7.5287-5.6465,11.293-20.704,11.293-43.29v-344.44c0-24.468-3.7644-37.644-11.293-45.172-7.5287-5.6465-22.586-9.4109-47.054-9.4109h-39.526v-79.051h376.44v79.051h-39.526c-24.468,0-41.408,3.7644-48.937,9.4109-7.5287,5.6465-11.293,20.704-11.293,43.29v344.44c0,22.586,3.7643,37.644,11.293,43.29,7.5287,5.6465,22.586,9.4108,48.937,9.4108h39.526v79.051h-376.44zm636.18-304.91c0,82.816,11.293,144.93,35.761,182.57,24.468,37.644,62.112,56.465,114.81,56.465,52.701,0,90.344-18.822,114.81-56.465,24.468-37.644,35.761-99.755,35.761-182.57,0-82.816-11.293-144.93-35.761-182.57-24.468-37.644-62.112-56.465-114.81-56.465-52.701,0-90.344,18.822-114.81,56.465-24.468,37.644-35.761,99.755-35.761,182.57zm-207.04,0c0-101.64,31.997-180.69,95.991-237.15,63.994-58.348,150.57-86.58,263.5-86.58,111.05,0,199.51,28.233,261.62,86.58,63.994,58.347,95.991,137.4,95.991,237.15,0,101.64-31.997,180.69-95.991,237.15-63.994,56.465-150.57,86.58-261.62,86.58s-199.51-28.233-263.5-86.58c-63.994-58.348-95.991-137.4-95.991-237.15zm858.27-173.16c0-22.586-3.7644-37.644-11.293-43.29-7.5287-5.6465-22.586-9.4109-48.937-9.4109h-33.879v-79.051h304.91l244.68,425.37v-293.62c0-22.586-3.7643-37.644-11.293-43.29-7.5287-5.6465-22.586-9.4109-48.937-9.4109h-35.761v-79.051h291.74v79.051h-30.115c-24.468,0-41.408,3.7644-48.937,9.4109-7.5287,5.6465-11.293,20.704-11.293,43.29v478.07h-195.75l-261.62-453.6v321.85c0,22.586,3.7644,37.644,11.293,43.29,7.5287,5.6466,22.586,9.4109,48.937,9.4109h35.761v79.051h-295.5v-79.051h33.879c24.468,0,41.408-3.7643,48.936-9.4109,7.5287-5.6465,11.293-20.704,11.293-43.29v-344.44z" fill-rule="nonzero" class="fil2" fill="#101372"/><path fill="#FFF" class="fil1" d="m3212.9,5712.4,0,103.52,591,0,0-114.81-191.98,0,0-446.08,756.63,564.65,216.45,0,0-673.82s-1.8821-30.115,30.115-30.115h165.63v-122.34h-594.77v120.46h165.63l37.644,31.997v359.5l-662.53-508.19h-510.07v112.93h180.69v602.3l-182.57,3.7643z"/><polygon transform="matrix(1.8821758,0,0,1.8821758,-6.2099976e-5,-2.4804687e-5)" points="3207,3029,3102,3029,3102,2934,3345,2719,3432,2719,3432,2650,3128,2650,3128,2719,3188,2719,3058,2848,2930,2736,2931,2718,2985,2719,2986,2651,2611,2653,2611,2718,2709,2718,2938,2929,2938,3031,2843,3031,2843,3090,3207,3090" class="fil1" fill="#FFF"/><path fill="#FFF" class="fil1" d="m2401.7,4942.6c415.96,0,752.87,210.8,752.87,470.54s-336.91,470.54-752.87,470.54-752.87-210.8-752.87-470.54,336.91-470.54,752.87-470.54zm5.6465,150.57c242.8,0,438.55,143.05,438.55,319.97s-195.75,319.97-438.55,319.97-438.55-143.05-438.55-319.97,195.75-319.97,438.55-319.97z"/><path fill="#FFF" class="fil1" d="m1436.1,4993.4-139.28,0,0,62.112s-41.408-39.526-191.98-71.523c-248.45-52.701-527.01-54.583-752.87,60.23-143.05,71.523-188.22,197.63-95.991,318.09,73.405,95.991,348.2,131.75,464.9,141.16,255.98,22.586,726.52,71.523,395.26,208.92-92.227,31.997-182.57,58.347-468.66,3.7643-122.34-39.526-205.16-45.172-271.03-201.39-60.23,3.7643-156.22,0-156.22,0v321.85l175.04,3.7643v-50.819h30.115s244.68,101.64,621.12,86.58c129.87-20.704,276.68-33.879,391.49-152.46,116.69-122.34,67.758-254.09-62.112-336.91-116.69-73.405-361.38-90.344-483.72-105.4-201.39-13.175-346.32-39.526-346.32-39.526s-103.52-45.172-16.94-111.05c63.994-47.054,214.57-48.936,289.86-45.172,80.934,5.6465,240.92,0,383.96,67.758,52.701,35.761,88.462,71.523,95.991,126.11h137.4l-1.8822-282.33z"/><path fill="#101372" class="fil0" d="m2407.3,5091.3c242.8,0,438.55,143.05,438.55,319.97s-195.75,319.97-438.55,319.97-438.55-143.05-438.55-319.97,195.75-319.97,438.55-319.97z"/></svg>
