<svg xmlns="http://www.w3.org/2000/svg" fill-rule="evenodd" height="664.03" width="600" viewBox="0 0 6666.6667 7378.1292"><path fill="#101372" d="m0 0h6666.7v6017.3h-6666.7z"/><path fill="#fff" d="m4280.1 655c301.15 37.644 830.04 406.55 831.92 822.51h1398.5v1065.3c-432.9-404.67-3380.4-485.6-3250.5-1449.3 43.29-321.85 474.31-506.31 1020.1-438.55zm-3034.1-521.36h-1114.2v4679.1h922.27v-698.29h2401.7v698.29h1853.9c22.586-124.22 5.647-235.27-45.17-333.15-35.761-69.64-103.52-137.4-173.16-178.81-615.5-357.6-1949.9-647.5-2648.2-894.1-399.1-141.1-800-353.8-1093.6-656.8-301.1-308.7-444.17-773.6-463-1193.3-15.05-929.84 357.6-1424.8 357.6-1424.8z"/><g fill="#101372"><path transform="scale(1.88218)" d="m561 2186h1276v371h-1276z"/><path d="m1246 131.75h5264.4v1343.9h-1398.5c0-415.96-528.89-784.87-831.92-822.51-545.83-67.758-976.85 116.69-1020.1 438.55-129.87 965.56 2817.6 1046.5 3250.5 1449.3v2269.9h-1198.9c22.586-124.22 5.646-235.27-45.17-333.15-35.761-69.64-103.52-137.4-173.16-178.81-615.4-357.5-1949.9-647.4-2648.2-893.9-399-141.2-799.9-353.9-1093.5-656.9-301.1-308.7-444.19-773.6-463.01-1193.3-15.06-929.82 357.61-1424.8 357.61-1424.8z"/><g fill-rule="nonzero"><path d="m161.87 6610.2v-60.23h24.468c16.94 0 28.23-1.882 31.997-7.529 5.647-3.764 7.529-15.06 7.529-33.879v-263.5c0-18.822-1.882-30.11-7.529-33.879-5.647-3.764-15.06-7.529-31.997-7.529h-24.468v-60.23h434.78v176.92h-58.35c-3.764-26.35-7.529-47.05-13.175-62.11-5.646-13.175-11.293-24.468-18.822-31.997-7.529-7.529-18.822-13.175-31.997-16.94-13.175-3.764-35.761-5.647-69.64-5.647h-56.46v131.75h11.293c24.468 0 41.41-5.646 48.936-15.06 7.529-9.411 13.175-30.11 13.175-58.35h54.58v212.69h-54.58c0-31.997-5.647-52.701-11.293-62.11-7.529-9.411-24.468-15.06-48.936-15.06h-11.293v150.57h58.35c48.937 0 80.934-9.411 97.87-26.35 16.94-16.94 28.23-52.701 31.997-105.4h58.35v191.98h-434.78zm555.24-365.14c0-16.94-1.882-28.23-7.529-33.879-5.646-3.764-16.94-7.529-33.879-7.529h-22.586v-60.23h210.8l169.4 323.73v-223.98c0-16.94-1.882-28.23-7.529-33.879-5.646-3.764-16.94-7.529-33.879-7.529h-24.468v-60.23h201.39v60.23h-20.704c-16.94 0-28.23 1.882-33.879 7.529-5.647 3.764-7.529 15.06-7.529 33.879v365.14h-135.52l-180.69-346.32v244.68c0 16.94 1.882 28.23 7.529 33.879 5.646 3.764 16.94 7.529 33.879 7.529h24.468v60.23h-203.27v-60.23h22.586c16.94 0 28.23-1.882 33.879-7.529 5.646-3.764 7.529-15.06 7.529-33.879v-263.5zm903.44-101.64v178.81h-60.23c0-39.526-7.529-69.64-20.704-88.46-15.06-18.822-35.761-28.23-65.876-28.23h-7.529v295.5c0 16.94 0 26.35 1.882 31.997 1.882 5.646 3.764 7.529 7.529 9.411 3.764 1.882 11.293 3.764 18.822 3.764 7.529 0 20.704 1.882 41.41 1.882v60.23h-261.62v-60.23c13.175 0 26.35 0 35.761-1.882 9.411-1.882 18.822-1.882 24.468-5.646 3.764-1.882 5.647-3.764 7.529-9.411 1.882-5.646 1.882-15.06 1.882-30.11v-9.411-287.97h-5.647c-30.12 0-52.701 9.411-65.876 28.23-15.06 18.822-22.586 48.936-22.586 88.46h-58.35v-178.81h429.14zm26.35 464.9v-60.23h24.468c16.94 0 28.23-1.882 31.997-7.529 5.647-3.764 7.529-15.06 7.529-33.879v-263.5c0-18.822-1.882-30.11-7.529-33.879-5.647-3.764-15.06-7.529-31.997-7.529h-24.468v-60.23h434.78v176.92h-58.35c-3.764-26.35-7.529-47.05-13.175-62.11-5.647-13.175-11.293-24.468-18.822-31.997-7.529-7.529-18.822-13.175-31.997-16.94-13.175-3.764-35.761-5.646-69.64-5.646h-56.46v131.75h11.293c24.468 0 41.41-5.647 48.937-15.06 7.529-9.411 13.175-30.11 13.175-58.35h54.58v212.69h-54.58c0-31.997-5.647-52.701-11.293-62.11-7.529-9.411-24.468-15.06-48.937-15.06h-11.293v150.57h58.35c48.937 0 80.934-9.411 97.87-26.35 16.94-16.94 28.23-52.701 31.997-105.4h58.35v191.98h-434.78zm679.47-272.92h47.05c33.879 0 56.47-3.764 67.758-13.175 11.293-9.411 18.822-26.35 18.822-48.937 0-24.468-5.646-43.29-18.822-52.701-11.293-9.411-33.879-15.06-62.11-15.06h-50.819v131.75zm0 171.28c0 16.94 1.882 28.23 7.529 33.879 5.647 3.764 15.06 7.529 33.879 7.529h22.586v60.23h-252.21v-60.23h24.468c16.94 0 28.23-1.882 31.997-7.529 5.646-3.764 7.529-15.06 7.529-33.879v-263.5c0-18.822-1.882-30.11-7.529-33.879-5.646-3.764-15.06-7.529-31.997-7.529h-24.468v-60.23h289.86c54.58 0 94.11 9.411 120.46 28.23 26.35 18.822 39.526 48.936 39.526 86.58 0 28.23-9.411 50.819-26.35 67.758-16.94 18.822-43.29 30.11-75.29 37.644 28.23 5.646 48.936 15.06 60.23 30.11 11.293 15.06 18.822 35.761 18.822 63.994v45.17c0 18.822 1.882 31.997 3.764 39.526 1.882 7.529 7.529 9.411 15.06 9.411 7.529 0 15.06-5.646 16.94-15.06 3.764-9.411 5.646-30.11 5.646-58.35h43.29v9.411 9.411c0 43.29-7.529 73.4-24.468 94.11-16.94 20.704-43.29 30.11-77.17 30.11-37.644 0-63.994-9.411-80.934-28.23s-26.35-48.937-26.35-90.34v-45.17c0-26.35-3.764-43.29-11.293-50.819-7.529-7.529-24.468-11.293-48.937-11.293h-54.58v111.05zm769.81-365.14v178.81h-60.23c0-39.526-7.529-69.64-20.704-88.46-15.06-18.822-35.761-28.23-65.876-28.23h-7.529v295.5c0 16.94 0 26.35 1.882 31.997 1.882 5.647 3.764 7.529 7.529 9.411 3.764 1.882 11.293 3.764 18.822 3.764 7.529 0 20.704 1.882 41.41 1.882v60.23h-261.62v-60.23c13.175 0 26.35 0 35.761-1.882 9.411-1.882 18.822-1.882 24.468-5.647 3.764-1.882 5.646-3.764 7.529-9.411 1.882-5.647 1.882-15.06 1.882-30.11v-9.411-287.97h-5.646c-30.11 0-52.701 9.411-65.876 28.23-15.06 18.822-22.586 48.937-22.586 88.46h-58.35v-178.81h429.14zm269.15 255.98l-45.17-146.81-45.17 146.81h90.34m-263.5 210.8v-60.23h15.06c15.06 0 24.468-1.882 31.997-7.529 7.529-5.646 13.175-16.94 18.822-37.644l112.93-359.5h131.75l109.17 361.38c5.646 16.94 11.293 28.23 16.94 33.879 5.646 5.647 15.06 7.529 28.23 7.529h22.586v60.23h-242.8v-60.23h18.822c15.06 0 26.35-1.882 31.997-3.764 5.646-1.882 7.529-7.529 7.529-13.175 0-1.882 0-5.647-1.882-9.411 0-1.882-1.882-3.764-1.882-5.647l-16.94-56.47h-126.11l-16.94 52.701c0 3.764-1.882 5.646-1.882 9.411 0 3.764-1.882 5.646-1.882 9.411 0 5.646 1.882 11.293 7.529 13.175 3.764 1.882 15.06 3.764 28.23 3.764h20.704v60.23h-193.86zm493.13 0v-60.23h26.35c16.94 0 28.23-1.882 31.997-7.529 5.647-3.764 7.529-15.06 7.529-33.879v-263.5c0-18.822-1.882-30.11-7.529-33.879-5.646-3.764-15.06-7.529-31.997-7.529h-26.35v-60.23h259.74v60.23h-26.35c-16.94 0-28.23 1.882-33.879 7.529-5.646 3.764-7.529 15.06-7.529 33.879v263.5c0 16.94 1.882 28.23 7.529 33.879 5.646 3.764 16.94 7.529 33.879 7.529h26.35v60.23h-259.74m350.08-365.14c0-16.94-1.882-28.23-7.529-33.879-5.647-3.764-16.94-7.529-33.879-7.529h-22.586v-60.23h210.8l169.4 323.73v-223.98c0-16.94-1.882-28.23-7.529-33.879-5.646-3.764-16.94-7.529-33.879-7.529h-24.468v-60.23h201.39v60.23h-20.704c-16.94 0-28.23 1.882-33.879 7.529-5.647 3.764-7.529 15.06-7.529 33.879v365.14h-135.52l-180.69-346.32v244.68c0 16.94 1.882 28.23 7.529 33.879 5.647 3.764 16.94 7.529 33.879 7.529h24.468v60.23h-203.28v-60.23h22.586c16.94 0 28.23-1.882 33.879-7.529 5.646-3.764 7.529-15.06 7.529-33.879v-263.5zm607.94 263.5c0 16.94 1.882 28.23 7.529 33.879 5.646 3.764 15.06 7.529 33.879 7.529h13.175v60.23h-188.22v-60.23h20.704c16.94 0 28.23-1.882 33.879-7.529 5.646-3.764 7.529-15.06 7.529-33.879v-263.5c0-16.94-1.882-28.23-7.529-33.879-5.647-3.764-15.06-7.529-33.879-7.529h-20.704v-60.23h231.51l77.17 286.09 80.934-286.09h229.63v60.23h-22.586c-16.94 0-28.23 1.882-33.879 7.529-5.646 3.764-7.529 15.06-7.529 33.879v263.5c0 16.94 1.882 28.23 7.529 33.879 5.647 3.764 16.94 7.529 33.879 7.529h22.586v60.23h-231.51v-60.23h13.175c16.94 0 28.23-1.882 31.997-7.529 5.646-3.764 7.529-15.06 7.529-33.879v-289.86l-109.17 391.49h-88.46l-107.28-393.37v291.74zm508.19 101.64v-60.23h24.468c16.94 0 28.23-1.882 31.997-7.529 5.646-3.764 7.529-15.06 7.529-33.879v-263.5c0-18.822-1.882-30.11-7.529-33.879-5.646-3.764-15.06-7.529-31.997-7.529h-24.468v-60.23h434.78v176.92h-58.35c-3.764-26.35-7.529-47.05-13.175-62.11-5.647-13.175-11.293-24.468-18.822-31.997-7.529-7.529-18.822-13.175-31.997-16.94-13.175-3.764-35.761-5.646-69.64-5.646h-56.47v131.75h11.293c24.468 0 41.41-5.647 48.937-15.06 7.529-9.411 13.175-30.11 13.175-58.35h54.58v212.69h-54.58c0-31.997-5.646-52.701-11.293-62.11-7.529-9.411-24.468-15.06-48.936-15.06h-11.293v150.57h58.35c48.936 0 80.934-9.411 97.87-26.35 16.94-16.94 28.23-52.701 31.997-105.4h58.35v191.98h-434.78zm555.24-365.14c0-16.94-1.882-28.23-7.529-33.879-5.646-3.764-16.94-7.529-33.879-7.529h-22.586v-60.23h210.8l169.4 323.73v-223.98c0-16.94-1.882-28.23-7.529-33.879-5.646-3.764-16.94-7.529-33.879-7.529h-24.468v-60.23h201.39v60.23h-20.704c-16.94 0-28.23 1.882-33.879 7.529-5.646 3.764-7.529 15.06-7.529 33.879v365.14h-135.52l-180.69-346.32v244.68c0 16.94 1.882 28.23 7.529 33.879 5.647 3.764 16.94 7.529 33.879 7.529h24.468v60.23h-203.28v-60.23h22.586c16.94 0 28.23-1.882 33.879-7.529 5.646-3.764 7.529-15.06 7.529-33.879v-263.5zm903.44-101.64v178.81h-60.23c0-39.526-7.529-69.64-20.704-88.46-15.06-18.822-35.761-28.23-65.876-28.23h-7.529v295.5c0 16.94 0 26.35 1.882 31.997 1.882 5.647 3.764 7.529 7.529 9.411 3.764 1.882 11.293 3.764 18.822 3.764 7.529 0 20.704 1.882 41.41 1.882v60.23h-261.62v-60.23c13.175 0 26.35 0 35.761-1.882 9.411-1.882 18.822-1.882 24.468-5.647 3.764-1.882 5.647-3.764 7.529-9.411 1.882-5.647 1.882-15.06 1.882-30.11v-9.411-287.97h-5.646c-30.11 0-52.701 9.411-65.876 28.23-15.06 18.822-22.586 48.937-22.586 88.46h-58.35v-178.81h429.14z"/><path d="m752.87 6747.6v235.27h-86.58c0-52.701-9.411-90.34-30.12-116.69-20.704-24.468-52.701-37.644-95.99-37.644h-9.411v387.73c0 20.704 1.882 35.761 3.764 41.41 1.882 7.529 5.647 11.293 11.293 13.175 5.646 1.882 15.06 5.646 26.35 5.646 11.293 1.882 30.12 1.882 58.35 1.882v79.05h-378.32v-79.05c20.704 0 37.644 0 50.819-1.882 15.06-1.882 26.35-3.764 35.761-5.646 5.647-1.882 9.411-5.646 11.293-13.175 1.882-7.529 3.764-20.704 3.764-41.41v-11.293-376.44h-9.411c-43.29 0-75.29 13.175-95.99 37.644-20.704 24.468-31.997 63.994-31.997 116.69h-84.7v-235.27h621.12zm3.764 609.82v-79.05h35.761c24.468 0 41.41-3.764 47.05-9.411 7.529-5.646 11.293-20.704 11.293-43.29v-344.44c0-24.468-3.764-37.644-11.293-45.17-7.529-5.646-22.586-9.411-47.05-9.411h-35.761v-79.05h630.53v233.39h-82.82c-5.647-35.761-11.293-62.11-18.822-80.934-7.529-18.822-16.94-31.997-28.23-43.29s-26.35-18.822-45.17-22.586c-18.822-3.764-52.701-7.529-99.75-7.529h-82.82v173.16h15.06c35.761 0 58.35-5.646 71.52-18.822 11.293-13.175 18.822-37.644 18.822-77.17h79.05v278.56h-79.05c-1.882-41.41-7.529-69.64-16.94-82.82-11.293-13.175-33.879-18.822-71.52-18.822h-15.06v197.63h84.7c69.64 0 116.69-11.293 143.05-33.879 24.468-22.586 39.526-69.64 47.05-137.4h82.82v252.21h-630.53zm711.46-609.82h370.79v79.05h-39.526c-24.468 0-41.41 3.764-48.937 9.411-7.529 5.646-11.293 20.704-11.293 43.29v397.14h50.819c48.937 0 80.934-1.882 99.76-7.529 18.822-3.764 33.879-11.293 45.17-22.586 13.175-11.293 24.468-28.23 30.12-50.819 7.529-20.704 13.175-50.819 15.06-90.34h82.82v250.33h-598.53v-79.05h35.761c24.468 0 41.41-3.764 47.05-9.411 7.529-5.647 11.293-20.704 11.293-43.29v-344.44c0-24.468-3.764-37.644-11.293-45.17-7.529-5.646-22.586-9.411-47.05-9.411h-35.761v-79.05zm658.76 609.82v-79.05h35.761c24.468 0 41.41-3.764 47.05-9.411 7.529-5.646 11.293-20.704 11.293-43.29v-344.44c0-24.468-3.764-37.644-11.293-45.17-7.529-5.646-22.586-9.411-47.05-9.411h-35.761v-79.05h630.53v233.39h-82.82c-5.646-35.761-11.293-62.11-18.822-80.934-7.529-18.822-16.94-31.997-28.23-43.29s-26.35-18.822-45.17-22.586c-18.822-3.764-52.701-7.529-99.76-7.529h-82.82v173.16h15.06c35.761 0 58.35-5.646 71.52-18.822 11.293-13.175 18.822-37.644 18.822-77.17h79.05v278.56h-79.05c-1.882-41.41-7.529-69.64-16.94-82.82-11.293-13.175-33.879-18.822-71.52-18.822h-15.06v197.63h84.7c69.64 0 116.69-11.293 143.05-33.879 24.468-22.586 39.526-69.64 47.05-137.4h82.82v252.21h-630.53zm1123.7 0h-178.81l-161.87-461.13c-11.293-30.11-22.586-50.819-35.761-58.35-13.175-9.411-33.879-13.175-62.11-15.06v-77.17h357.61v77.17h-15.06-20.704c-20.704 0-33.879 1.882-41.41 5.646-7.529 3.764-11.293 11.293-11.293 22.586 0 3.764 1.882 9.411 1.882 16.94 1.882 7.529 5.646 18.822 11.293 35.761l101.64 297.38 109.17-312.44c5.646-13.175 7.529-24.468 9.411-28.23 1.882-5.646 1.882-9.411 1.882-11.293 0-9.411-3.764-15.06-13.175-18.822-9.411-3.764-22.586-5.646-41.41-5.646h-16.94-11.293v-77.17h276.68v77.17c-30.11 0-50.819 5.646-65.876 18.822-15.06 11.293-26.35 35.761-37.644 71.52l-154.34 442.31zm274.8 0v-79.05h39.526c24.468 0 41.41-3.764 47.05-9.411 7.529-5.646 11.293-20.704 11.293-43.29v-344.44c0-24.468-3.764-37.644-11.293-45.17-7.529-5.646-22.586-9.411-47.05-9.411h-39.526v-79.05h376.44v79.05h-39.526c-24.468 0-41.41 3.764-48.936 9.411-7.529 5.646-11.293 20.704-11.293 43.29v344.44c0 22.586 3.764 37.644 11.293 43.29 7.529 5.646 22.586 9.411 48.936 9.411h39.526v79.05h-376.44zm513.83 7.529h-77.17v-240.92h84.7c7.529 48.937 30.11 88.46 65.876 116.69 35.761 28.23 80.934 43.29 131.75 43.29 35.761 0 63.994-5.646 84.7-18.822 20.704-13.175 30.11-30.11 30.11-52.701 0-35.761-37.644-62.11-114.81-79.05-13.175-1.882-22.586-3.764-28.23-5.646-65.876-15.06-112.93-28.23-137.4-37.644-26.35-9.411-47.05-20.704-63.994-33.879-20.704-16.94-37.644-35.761-48.937-56.47-11.293-22.586-16.94-47.05-16.94-73.4 0-62.11 22.586-109.17 67.758-143.05 45.17-33.879 109.17-50.819 191.98-50.819 41.41 0 77.17 3.764 109.17 13.175 31.997 9.411 58.35 20.704 82.82 37.644l18.822-43.29h79.05v223.98h-86.58c-5.647-45.17-24.468-80.934-58.35-105.4-33.879-26.35-77.17-37.644-129.87-37.644-31.997 0-56.47 5.646-75.29 18.822-18.822 13.175-28.23 30.11-28.23 50.819 0 31.997 41.41 54.58 126.11 71.52 31.997 5.646 56.47 11.293 75.29 16.94 73.4 16.94 126.11 41.41 159.98 73.4 33.879 31.997 50.819 73.4 50.819 126.11 0 60.23-24.468 109.17-71.52 144.93-47.05 35.761-111.05 54.58-193.86 54.58-39.526 0-77.17-5.646-114.81-15.06-37.644-9.411-67.758-22.586-92.23-39.526l-26.35 45.17zm540.18-7.529v-79.05h39.526c24.468 0 41.41-3.764 47.05-9.411 7.529-5.646 11.293-20.704 11.293-43.29v-344.44c0-24.468-3.764-37.644-11.293-45.17-7.529-5.646-22.586-9.411-47.05-9.411h-39.526v-79.05h376.44v79.05h-39.526c-24.468 0-41.41 3.764-48.937 9.411-7.529 5.646-11.293 20.704-11.293 43.29v344.44c0 22.586 3.764 37.644 11.293 43.29 7.529 5.646 22.586 9.411 48.937 9.411h39.526v79.05h-376.44zm636.18-304.91c0 82.82 11.293 144.93 35.761 182.57 24.468 37.644 62.11 56.47 114.81 56.47 52.701 0 90.34-18.822 114.81-56.47 24.468-37.644 35.761-99.76 35.761-182.57 0-82.82-11.293-144.93-35.761-182.57-24.468-37.644-62.11-56.47-114.81-56.47-52.701 0-90.34 18.822-114.81 56.47-24.468 37.644-35.761 99.76-35.761 182.57m-207.04 0c0-101.64 31.997-180.69 95.99-237.15 63.994-58.35 150.57-86.58 263.5-86.58 111.05 0 199.51 28.23 261.62 86.58 63.994 58.35 95.99 137.4 95.99 237.15 0 101.64-31.997 180.69-95.99 237.15-63.994 56.47-150.57 86.58-261.62 86.58s-199.51-28.23-263.5-86.58c-63.994-58.35-95.99-137.4-95.99-237.15m858.27-173.16c0-22.586-3.764-37.644-11.293-43.29-7.529-5.646-22.586-9.411-48.937-9.411h-33.879v-79.05h304.91l244.68 425.37v-293.62c0-22.586-3.764-37.644-11.293-43.29-7.529-5.646-22.586-9.411-48.937-9.411h-35.761v-79.05h291.74v79.05h-30.11c-24.468 0-41.41 3.764-48.937 9.411-7.529 5.646-11.293 20.704-11.293 43.29v478.07h-195.75l-261.62-453.6v321.85c0 22.586 3.764 37.644 11.293 43.29 7.529 5.647 22.586 9.411 48.937 9.411h35.761v79.05h-295.5v-79.05h33.879c24.468 0 41.41-3.764 48.936-9.411 7.529-5.646 11.293-20.704 11.293-43.29v-344.44z"/></g></g><g fill="#fff"><path d="m3212.9 5712.4v103.52h591v-114.81h-191.98v-446.08l756.63 564.65h216.45v-673.82s-1.882-30.11 30.11-30.11h165.63v-122.34h-594.77v120.46h165.63l37.644 31.997v359.5l-662.53-508.19h-510.07v112.93h180.69v602.3l-182.57 3.764z"/><path transform="scale(1.88218)" d="m3207 3029h-105v-95l243-215h87v-69h-304v69h60l-130 129-128-112 1-18 54 1 1-68-375 2v65h98l229 211v102h-95v59h364z"/><path d="m2401.7 4942.6c415.96 0 752.87 210.8 752.87 470.54s-336.91 470.54-752.87 470.54-752.87-210.8-752.87-470.54 336.91-470.54 752.87-470.54m5.646 150.57c242.8 0 438.55 143.05 438.55 319.97s-195.75 319.97-438.55 319.97-438.55-143.05-438.55-319.97 195.75-319.97 438.55-319.97"/><path d="m1436.1 4993.4h-139.28v62.11s-41.41-39.526-191.98-71.52c-248.45-52.701-527.01-54.58-752.87 60.23-143.05 71.52-188.22 197.63-95.99 318.09 73.4 95.99 348.2 131.75 464.9 141.16 255.98 22.586 726.52 71.52 395.26 208.92-92.23 31.997-182.57 58.35-468.66 3.764-122.34-39.526-205.16-45.17-271.03-201.39-60.23 3.764-156.22 0-156.22 0v321.85l175.04 3.764v-50.819h30.12s244.68 101.64 621.12 86.58c129.87-20.704 276.68-33.879 391.49-152.46 116.69-122.34 67.758-254.09-62.11-336.91-116.69-73.4-361.38-90.34-483.72-105.4-201.39-13.175-346.32-39.526-346.32-39.526s-103.52-45.17-16.94-111.05c63.994-47.05 214.57-48.936 289.86-45.17 80.934 5.646 240.92 0 383.96 67.758 52.701 35.761 88.46 71.52 95.99 126.11h137.4l-1.882-282.33z"/></g><path fill="#101372" d="m2407.3 5091.3c242.8 0 438.55 143.05 438.55 319.97s-195.75 319.97-438.55 319.97-438.55-143.05-438.55-319.97 195.75-319.97 438.55-319.97"/></svg>