<?xml version="1.0" encoding="UTF-8" standalone="no"?>
<!-- Creator: CorelDRAW X5 -->
<svg xmlns:rdf="http://www.w3.org/1999/02/22-rdf-syntax-ns#" xmlns="http://www.w3.org/2000/svg" fill-rule="evenodd" xml:space="preserve" height="652.97" width="600" version="1.1" xmlns:cc="http://creativecommons.org/ns#" xmlns:dc="http://purl.org/dc/elements/1.1/" viewBox="0 0 6666.667 7255.1771"><metadata><rdf:RDF><cc:Work rdf:about=""><dc:format>image/svg+xml</dc:format><dc:type rdf:resource="http://purl.org/dc/dcmitype/StillImage"/><dc:title/></cc:Work></rdf:RDF></metadata><defs><style type="text/css">
    .fil0 {fill:black}
    .fil4 {fill:#1C31A0}
    .fil2 {fill:#54D344}
    .fil3 {fill:#F93C30}
    .fil6 {fill:white}
    .fil1 {fill:black;fill-rule:nonzero}
    .fil5 {fill:white;fill-rule:nonzero}
   </style></defs><g transform="translate(-0.01071074,-154.61402)"><path fill-rule="evenodd" fill="#000" d="m0.010581,154.61,6167,0,0,7255.2-6167,0z"/><path d="m6442,5482.3c-37.668,0.2622-73.717,9.265-109.72,28.125-36.563,19.152-64.177,45.035-85.07,81.598-19.152,34.822-29.861,73.155-29.861,111.46,0,40.045,10.709,76.637,29.861,111.46,19.152,34.822,46.771,62.793,83.334,81.945,34.822,19.152,73.155,29.514,111.46,29.514,38.304,0,74.896-10.362,111.46-29.514,36.563-19.152,64.529-47.123,83.681-81.945,19.152-36.563,29.514-73.155,29.514-111.46,0-38.304-8.621-76.637-29.514-111.46-19.152-34.822-47.118-62.445-83.681-81.598-36.006-18.861-72.054-27.864-109.72-28.125h-1.7361zm0,36.806,1.7361,0c31.34,0,62.763,8.6359,92.361,24.306,29.599,15.67,52.381,38.11,69.792,67.708,15.67,31.339,24.306,61.017,24.306,94.098,0,31.34-8.6357,62.763-24.306,92.362-17.411,29.599-40.193,53.774-69.792,69.445-29.598,15.67-61.016,24.653-94.098,24.653-33.081,0-64.499-8.983-94.098-24.653-29.599-17.411-52.034-39.846-69.445-69.445-15.669-29.598-24.306-61.022-24.306-92.362,0-33.081,8.6307-64.499,26.042-94.098,15.67-29.599,39.846-52.038,69.445-67.708,29.598-15.67,61.021-24.306,92.361-24.306zm-99.306,67.709,0,240.28,5.2084-3.4725,40.278,0,0-101.04,22.57,0c13.929,0,24.286,3.4572,31.25,8.6805,8.7049,6.964,22.867,26.304,40.278,55.903l20.833,38.194h46.875l-29.514-46.875c-15.67-20.894-26.011-38.517-36.458-47.222-5.223-5.2236-12.475-8.6705-21.181-12.153,20.893-1.741,38.507-10.381,50.695-22.569s19.097-27.728,19.097-45.139c0-12.188-5.1884-24.622-12.153-35.07-8.706-10.446-19.062-17.346-31.25-22.57-13.929-5.2234-34.99-6.9444-62.847-6.9444h-83.681zm40.278,34.722,45.139,0c19.152,0,32.966-0.01,39.931,3.4722,6.9644,1.741,12.49,7.2767,15.972,12.5,3.4823,5.223,5.2084,12.133,5.2084,19.097,0,10.446-3.7945,19.078-12.5,26.042-8.706,6.9647-24.241,10.417-46.875,10.417h-46.875v-71.528z" fill-rule="nonzero" fill="#000"/><path d="m121.86,1584,0,4328.5,5900.7-1.7361s-1.67-4326.9,0-4328.5z" fill-rule="evenodd" fill="#54d344"/><path d="m1152.6,1582.3,4869.9,0,0,1243.1-1293.6,0c0-384.78-489.25-726.04-769.57-760.86-504.92-62.68-903.63,107.95-943.68,405.68-120.14,893.18,2606.4,968.05,3006.9,1340.6v2099.8h-1109c20.893-114.91,5.2235-217.64-41.786-308.17-33.081-64.421-95.76-127.1-160.18-165.4-569.3-330.7-1803.8-598.8-2449.7-826.9-369.1-130.6-740-327.3-1011.6-607.6-278.54-285.5-410.86-715.6-428.27-1103.8-13.93-860.1,330.77-1318,330.77-1318z" fill-rule="evenodd" class="fil4" fill="#1c31a0"/><path fill-rule="evenodd" fill="#f93c30" d="m3198.4,5912.5-2221.6,0,0-645.95,2221.6,0z"/><path d="m149.74,6513.1,0-55.715,22.634,0c15.67,0,26.116-1.7411,29.599-6.9642,5.2233-3.4822,6.9644-13.929,6.9644-31.34v-243.78c0-17.411-1.7411-27.858-6.9644-31.34-5.2233-3.4824-13.929-6.9645-29.599-6.9645h-22.634v-55.715h402.19v163.66h-53.974c-3.4822-24.375-6.9644-43.528-12.188-57.456-5.2233-12.188-10.447-22.634-17.411-29.599-6.9644-6.9643-17.411-12.188-29.599-15.67-12.188-3.4821-33.081-5.2232-64.421-5.2232h-52.233v121.88h10.447c22.634,0,38.304-5.2233,45.268-13.929,6.9644-8.7053,12.188-27.858,12.188-53.974h50.492v196.74h-50.504c0-29.599-5.2233-48.751-10.447-57.456-6.9644-8.7056-22.634-13.929-45.268-13.929h-10.445v139.29h53.974c45.269,0,74.867-8.7053,90.537-24.375,15.67-15.669,26.116-48.751,29.599-97.502h53.974v177.59h-402.19z" fill-rule="nonzero" fill="#FFF"/><path d="m663.36,6175.3c0-15.67-1.7411-26.116-6.9644-31.34-5.2232-3.4821-15.67-6.9643-31.34-6.9643h-20.893v-55.715h195l156.7,299.47v-207.22c0-15.67-1.7411-26.116-6.9644-31.34-5.2233-3.4822-15.67-6.9645-31.34-6.9645h-22.634v-55.715h186.3v55.715h-19.152c-15.67,0-26.116,1.7411-31.34,6.9645-5.2233,3.4822-6.9644,13.929-6.9644,31.34v337.77h-125.29l-167.15-320.3v226.34c0,15.67,1.7411,26.116,6.9644,31.34,5.2233,3.4821,15.67,6.9642,31.34,6.9642h22.634v55.715h-188.04v-55.715h20.893c15.67,0,26.116-1.7411,31.34-6.9642,5.2233-3.4822,6.9644-13.929,6.9644-31.34v-243.72z" fill-rule="nonzero" fill="#FFF"/><path d="m1499.1,6081.3,0,165.4-55.715,0c0-36.563-6.9646-64.421-19.152-81.832-13.929-17.411-33.081-26.116-60.938-26.116h-6.9643v273.35c0,15.67,0,24.375,1.7411,29.599,1.7411,5.2234,3.4821,6.9646,6.9643,8.7057s10.447,3.4821,17.411,3.4821c6.9643,0,19.152,1.741,38.304,1.741v55.715h-241.97v-55.715c12.188,0,24.375,0,33.081-1.741,8.7054-1.741,17.411-1.741,22.634-5.2232,3.4821-1.7412,5.2232-3.4822,6.9643-8.7057,1.7411-5.2231,1.7411-13.929,1.7411-27.858v-275.09h-5.2233c-27.858,0-48.751,8.7055-60.938,26.116-13.929,17.411-20.893,45.268-20.893,81.832h-53.974v-165.4h396.97z" fill-rule="nonzero" fill="#FFF"/><path d="m1523.5,6511.4,0-55.715,22.634,0c15.67,0,26.116-1.7411,29.599-6.9642,5.2232-3.4822,6.9643-13.929,6.9643-31.34v-243.81c0-17.411-1.7411-27.858-6.9643-31.34-5.2232-3.4822-13.929-6.9645-29.599-6.9645h-22.634v-55.715h402.19v163.66h-53.974c-3.4821-24.375-6.9643-43.528-12.188-57.456-5.2232-12.188-10.447-22.634-17.411-29.599-6.9644-6.9642-17.411-12.188-29.599-15.67-12.188-3.4821-33.081-5.2232-64.421-5.2232h-52.233v121.88h10.447c22.634,0,38.304-5.2232,45.269-13.929,6.9644-8.7053,12.188-27.858,12.188-53.974h50.492v196.74h-50.492c0-29.599-5.2234-48.751-10.447-57.456-6.9645-8.7054-22.634-13.929-45.269-13.929h-10.447v139.29h53.974c45.269,0,74.867-8.7053,90.537-24.375,15.67-15.669,26.116-48.751,29.599-97.502h53.974v177.59h-402.19z" fill-rule="nonzero" fill="#FFF"/><path d="m1977.8,6079.5,0,55.903,22.917,0c15.67,0,24.29,3.4622,29.514,6.9445,5.2233,3.482,6.9445,13.839,6.9445,31.25v243.75c0,17.411-1.7212,27.768-6.9445,31.25-3.483,5.2233-13.844,6.9444-29.514,6.9444h-22.917v55.903h233.33v-55.903h-20.833c-17.411,0-26.027-3.4623-31.25-6.9444-5.2232-5.224-6.9445-15.58-6.9445-31.25v-1.7361-102.78h50.347c22.635,0,38.522,3.4524,45.486,10.417,6.9638,6.965,10.417,22.847,10.417,47.222v41.667c0,38.305,8.6357,66.27,24.306,83.681s39.831,26.042,74.653,26.042c31.34,0,55.858-8.6259,71.528-27.778,15.669-19.152,22.569-47.108,22.569-87.153v-8.6805-8.6806h-39.931c0,26.116-1.7261,45.114-5.2084,53.82-1.741,8.7056-8.6607,13.889-15.625,13.889-6.9645,0-12.148-1.7162-13.889-8.6805-1.7411-6.9641-3.4722-19.048-3.4722-36.458v-41.667c0-26.116-7.2613-45.446-17.708-59.375-10.446-13.929-29.44-22.555-55.556-27.778,29.599-6.964,54.122-17.311,69.792-34.722,15.669-15.67,24.306-36.732,24.306-62.848,0-34.821-12.431-62.798-36.806-80.208s-60.62-26.042-111.11-26.042h-268.4zm176.04,59.375,46.875,0c26.116,0,47.193,5.1835,57.639,13.889,12.188,8.706,17.361,25.978,17.361,48.611,0,20.894-6.9143,36.434-17.361,45.139-10.447,8.7056-31.508,12.5-62.847,12.5h-41.667v1.7362l-1.7362-1.7362h1.7362v-120.14z" fill-rule="nonzero" fill="#FFF"/><path d="m2864.1,6079.6,0,165.4-55.715,0c0-36.563-6.9643-64.421-19.152-81.832-13.929-17.411-33.081-26.116-60.938-26.116h-6.9643v273.35c0,15.67,0,24.375,1.741,29.599,1.7411,5.2236,3.4822,6.9646,6.9643,8.7057,3.4823,1.7411,10.447,3.4821,17.411,3.4821,6.9644,0,19.152,1.7411,38.304,1.7411v55.715h-242.01v-55.715c12.188,0,24.375,0,33.081-1.7411,8.7056-1.741,17.411-1.741,22.634-5.2232,3.4822-1.741,5.2233-3.4822,6.9643-8.7057,1.7412-5.2231,1.7412-13.929,1.7412-27.858v-275.09h-5.2233c-27.858,0-48.751,8.7055-60.938,26.116-13.929,17.411-20.893,45.268-20.893,81.832h-53.974v-165.4h396.97z" fill-rule="nonzero" fill="#FFF"/><path d="m3034.7,6081.3-104.51,332.64c-5.223,19.152-10.397,29.499-17.361,34.722-6.965,5.2232-15.585,6.9444-29.514,6.9444h-13.889v54.167h177.43v-55.903h-19.097c-12.187,0-22.56-1.7312-26.042-3.4722-5.2232-1.741-6.9445-6.9293-6.9445-12.153,0-3.4821,1.7362-5.1983,1.7362-8.6805,0-3.4821,1.7361-5.1983,1.7361-8.6806l15.625-48.611h116.67l15.625,52.084c0,1.7413,1.7361,3.4674,1.7361,5.2084,1.741,3.4822,1.7361,6.9395,1.7361,8.6805,0,5.2238-1.7211,10.412-6.9445,12.153-5.2239,1.7411-15.585,3.4722-29.514,3.4722h-17.361v55.903h224.31v-55.903h-20.833c-12.187,0-20.818-1.7211-26.042-6.9444-5.224-5.2241-10.402-15.58-15.625-31.25l-101.04-334.38h-121.88zm-165.28,428.47-1.7361,0,1.7361,1.7361,0-1.7361zm201.74-329.17,42.014,135.76-83.681,0,41.667-135.76z" fill-rule="nonzero" fill="#FFF"/><path d="m3325.5,6511.4,0-55.715,24.375,0c15.67,0,26.116-1.7411,29.599-6.9642,5.2233-3.4822,6.9644-13.929,6.9644-31.34v-243.81c0-17.411-1.7411-27.858-6.9644-31.34-5.2235-3.4822-13.929-6.9645-29.599-6.9645h-24.375v-55.715h240.27v55.715h-24.375c-15.67,0-26.116,1.7411-31.34,6.9645-5.2233,3.4822-6.9646,13.929-6.9646,31.34v243.75c0,15.67,1.7413,26.116,6.9646,31.34,5.2232,3.4821,15.67,6.9642,31.34,6.9642h24.375v55.715h-240.27z" fill-rule="nonzero" fill="#FFF"/><path d="m3649.3,6173.6c0-15.67-1.741-26.116-6.9643-31.34-5.2234-3.4821-15.67-6.9642-31.34-6.9642h-20.893v-55.715h195l156.7,299.47v-207.25c0-15.67-1.7411-26.116-6.9644-31.34-5.2235-3.4822-15.67-6.9646-31.34-6.9646h-22.634v-55.715h186.3v55.715h-19.152c-15.67,0-26.116,1.7412-31.34,6.9646-5.2232,3.4822-6.9643,13.929-6.9643,31.34v337.77h-125.36l-167.15-320.36v226.34c0,15.67,1.7411,26.116,6.9644,31.34,5.2232,3.4821,15.67,6.9642,31.34,6.9642h22.634v55.715h-188.04v-55.715h20.893c15.67,0,26.116-1.741,31.34-6.9642,5.2234-3.4821,6.9645-13.929,6.9645-31.34v-243.65z" fill-rule="nonzero" fill="#FFF"/><path d="m4211.7,6417.3c0,15.67,1.7411,26.116,6.9642,31.34,5.2235,3.4821,13.929,6.9645,31.34,6.9645h12.188v55.715h-174.1v-55.715h19.152c15.67,0,26.116-1.7412,31.34-6.9645,5.2233-3.4822,6.9643-13.929,6.9643-31.34v-243.75c0-15.67-1.741-26.116-6.9643-31.34-5.2231-3.4821-13.929-6.9642-31.34-6.9642h-19.152v-55.715h214.16l71.385,264.65,74.867-264.65h212.41v55.715h-20.893c-15.67,0-26.116,1.741-31.34,6.9642-5.2231,3.4821-6.9642,13.929-6.9642,31.34v243.75c0,15.67,1.7411,26.116,6.9642,31.34,5.2234,3.4821,15.67,6.9645,31.34,6.9645h20.893v55.715h-214.16v-55.715h12.188c15.67,0,26.116-1.7412,29.599-6.9645,5.2232-3.4822,6.9642-13.929,6.9642-31.34v-268.13l-100.98,362.15h-81.832l-99.242-363.89v269.87z" fill-rule="nonzero" fill="#FFF"/><path d="m4681.8,6511.4,0-55.715,22.634,0c15.67,0,26.116-1.7411,29.599-6.9642,5.2232-3.4822,6.9643-13.929,6.9643-31.34v-243.82c0-17.411-1.7411-27.858-6.9643-31.34-5.2233-3.4822-13.929-6.9645-29.599-6.9645h-22.634v-55.715h402.19v163.66h-53.974c-3.4822-24.375-6.9643-43.528-12.188-57.456-5.2233-12.188-10.447-22.634-17.411-29.599-6.9643-6.9642-17.411-12.188-29.599-15.67-12.188-3.4821-33.081-5.2232-64.421-5.2232h-52.233v121.88h10.446c22.634,0,38.304-5.2232,45.269-13.929,6.9643-8.7053,12.188-27.858,12.188-53.974h50.492v196.74h-50.492c0-29.599-5.2233-48.751-10.447-57.456-6.9642-8.7054-22.634-13.929-45.269-13.929h-10.446v139.29h53.974c45.269,0,74.867-8.7053,90.537-24.375,15.67-15.669,26.116-48.751,29.599-97.502h53.974v177.59h-402.19z" fill-rule="nonzero" fill="#FFF"/><path d="m5195.4,6173.6c0-15.67-1.7412-26.116-6.9644-31.34-5.2231-3.4821-15.67-6.9642-31.34-6.9642h-20.893v-55.715h195l156.7,299.47v-207.26c0-15.67-1.741-26.116-6.9643-31.34-5.2231-3.4822-15.67-6.9646-31.34-6.9646h-22.634v-55.715h186.3v55.715h-19.152c-15.67,0-26.116,1.7412-31.34,6.9646-5.2233,3.4822-6.9644,13.929-6.9644,31.34v337.77h-125.32l-167.15-320.36v226.34c0,15.67,1.7411,26.116,6.9643,31.34,5.2232,3.4821,15.67,6.9642,31.34,6.9642h22.634v55.715h-188.04v-55.715h20.893c15.67,0,26.116-1.741,31.34-6.9642,5.2233-3.4821,6.9644-13.929,6.9644-31.34v-243.66z" fill-rule="nonzero" fill="#FFF"/><path d="m6031.2,6079.6,0,165.4-55.715,0c0-36.563-6.9642-64.421-19.152-81.832-13.929-17.411-33.081-26.116-60.938-26.116h-6.9643v273.35c0,15.67,0,24.375,1.7411,29.599,1.741,5.2236,3.4821,6.9646,6.9643,8.7057,3.4823,1.7411,10.447,3.4821,17.411,3.4821,6.9644,0,19.152,1.7411,38.304,1.7411v55.715h-242.01v-55.715c12.188,0,24.375,0,33.081-1.7411,8.7056-1.741,17.411-1.741,22.634-5.2232,3.4822-1.741,5.2233-3.4822,6.9646-8.7057,1.741-5.2231,1.741-13.929,1.741-27.858v-275.09h-5.2234c-27.858,0-48.751,8.7055-60.938,26.116-13.929,17.411-20.893,45.268-20.893,81.832h-53.974v-165.4h396.97z" fill-rule="nonzero" fill="#FFF"/><path d="m548.46,6664.6,0,212.41-55.715,0c0-47.01-6.9644-81.832-19.152-104.47-13.929-22.634-33.081-34.822-60.938-34.822h-6.9644v349.96c0,19.152,0,31.34,1.7411,38.304,1.7411,5.2233,3.4822,10.447,6.9644,12.188,3.4822,1.7412,10.447,3.4824,17.411,5.2234,6.9644,1.7411,19.152,1.7411,38.304,1.7411v71.385h-243.74v-71.385c12.188,0,24.375,0,33.081-1.7411,8.7055-1.741,17.411-3.4822,22.634-5.2234,3.4822-1.7411,6.9644-5.2232,6.9644-12.188,1.7411-5.2234,1.7411-17.411,1.7411-36.563v-351.71h-5.2233c-27.858,0-48.751,12.188-60.938,34.822-13.929,22.634-20.893,57.456-20.893,104.47h-53.974v-212.41h398.71z" fill-rule="nonzero" fill="#FFF"/><path d="m572.83,7216.5,0-73.126,22.634,0c15.67,0,26.116-3.4822,31.34-8.7054,5.2233-5.2232,6.9644-19.152,6.9644-40.045v-311.66c0-20.893-1.7411-34.822-6.9644-40.045-5.2233-5.2232-13.929-6.9642-31.34-6.9642h-22.626v-73.149h403.93v210.67h-53.974c-3.4822-31.34-6.9644-55.715-12.188-73.126-5.2233-15.67-10.447-29.599-17.411-38.304-6.9644-10.446-17.411-15.67-29.599-20.893-12.188-3.4821-33.081-5.2233-64.421-5.2233h-52.233v156.7h10.447c22.634,0,38.304-5.2235,45.268-17.411,6.9644-12.188,12.188-34.822,12.188-69.644h50.492v252.46h-50.492c0-38.304-5.2233-62.68-10.447-74.867-6.9643-12.188-22.634-17.411-45.268-17.411h-10.447v177.59h53.974c45.269,0,74.867-10.447,90.537-31.34s26.116-62.68,31.34-123.62h53.974v228.08h-403.93z" fill-rule="nonzero" fill="#FFF"/><path d="m1029,6664.6,238.53,0,0,73.126-26.116,0c-15.67,0-26.116,3.4821-31.34,8.7053-5.2231,5.2233-6.9642,19.152-6.9642,40.045v360.41h31.34c31.34,0,52.233-1.741,64.421-5.2231,12.188-3.4824,20.893-10.447,29.599-20.893,8.7054-10.447,15.67-26.116,19.152-45.269,5.2233-19.152,8.7055-47.01,10.447-81.832h53.974v224.6h-384.74v-73.126h22.634c15.67,0,26.116-3.4822,31.34-8.7055,5.2232-5.2231,6.9643-19.152,6.9643-40.045v-311.66c0-20.893-1.7411-34.822-6.9643-40.045-5.2233-5.2232-13.929-6.9642-31.34-6.9642h-22.634v-73.126z" fill-rule="nonzero" fill="#FFF"/><path d="m1452.1,7216.5,0-73.126,22.634,0c15.67,0,26.116-3.4822,31.34-8.7054,5.2232-5.2232,6.9644-19.152,6.9644-40.045v-311.66c0-20.893-1.7412-34.822-6.9644-40.045-5.2234-5.2232-13.929-6.9642-31.34-6.9642h-22.634v-73.126h405.68v210.67h-53.974c-3.4823-31.34-6.9645-55.715-12.188-73.126-5.2233-15.67-10.447-29.599-17.411-38.304-6.9644-10.446-17.411-15.67-29.599-20.893-12.188-3.4821-33.081-5.2233-64.421-5.2233h-52.233v156.7h10.447c22.634,0,38.304-5.2235,45.268-17.411,6.9646-12.188,12.188-34.822,12.188-69.644h50.492v252.46h-50.492c0-38.304-5.2233-62.68-10.447-74.867-6.9643-12.188-22.634-17.411-45.268-17.411h-10.447v177.59h53.974c45.269,0,74.867-10.447,90.537-31.34s26.116-62.68,31.34-123.62h53.974v228.08h-405.68z" fill-rule="nonzero" fill="#FFF"/><path d="m2172.9,7216.5-114.91,0-104.47-416.12c-6.9644-27.858-13.929-45.268-22.634-52.233-8.7055-6.9645-20.893-12.188-40.045-12.188v-69.644h228.02v69.644h-24.376c-12.188,0-22.634,1.741-26.116,5.2231-5.2233,3.4822-6.9644,10.447-6.9644,20.893,0,3.482,0,8.7053,1.7411,15.67,1.7411,6.9643,3.4822,17.411,6.9643,31.34l64.421,269.87,69.644-282.06c3.4822-12.188,5.2233-20.893,6.9645-26.116,1.7411-5.2233,1.7411-8.7056,1.7411-10.447,0-6.9642-3.4823-13.929-8.7056-17.411-5.2233-3.4821-13.929-5.2231-26.116-5.2231h-19.152v-69.644h177.59v69.644c-19.152,0-33.081,5.2231-41.786,17.411-8.7055,10.446-17.411,33.081-24.375,64.421l-99.243,400.45z" fill-rule="nonzero" fill="#FFF"/><path d="m2348.7,7216.5,0-73.126,24.375,0c15.67,0,26.116-3.4822,31.34-8.7054,5.2232-5.2232,6.9644-19.152,6.9644-40.045v-311.66c0-20.893-1.7412-34.822-6.9644-40.045-5.2233-5.2232-13.929-6.9642-31.34-6.9642h-24.375v-73.126h242.01v73.126h-24.375c-15.67,0-26.116,3.482-31.34,8.7053-5.2232,5.2234-6.9643,19.152-6.9643,40.045v311.66c0,20.893,1.7411,34.822,6.9643,40.045,5.2233,5.2233,15.67,8.7054,31.34,8.7054h24.375v73.126h-242.01z" fill-rule="nonzero" fill="#FFF"/><path d="m2677.8,7223.5-48.751,0,0-217.64,53.974,0c5.2232,43.527,19.152,80.09,41.786,106.21,22.634,26.116,52.233,40.045,85.314,40.045,22.634,0,41.786-5.2236,53.974-17.411,13.929-12.188,19.152-27.858,19.152-48.751,0-31.34-24.375-55.715-73.126-71.385-8.7055-1.7412-13.929-3.4823-17.411-5.2234-43.528-13.929-73.126-24.375-88.796-33.081-15.67-8.7054-29.599-19.152-40.045-29.599-13.929-13.929-24.375-31.34-31.34-52.233-6.9645-20.893-10.447-41.786-10.447-66.162,0-55.715,13.929-99.242,43.528-130.58,29.599-31.34,69.644-47.01,123.62-47.01,26.116,0,50.492,3.4821,69.644,12.188,20.893,6.9644,38.304,19.152,52.233,34.822l12.188-38.304h50.492v201.97h-55.715c-3.4822-40.045-15.67-73.126-38.304-95.76-20.893-22.634-48.751-34.822-83.572-34.822-20.893,0-36.563,5.2231-48.751,17.411s-17.411,27.858-17.411,47.01c0,27.858,26.116,50.492,80.091,64.421,20.893,5.2233,36.563,10.447,48.751,15.67,47.01,15.67,81.832,38.304,102.72,66.162,22.634,29.599,33.081,66.162,33.081,113.17,0,55.715-15.67,99.243-45.268,130.58-31.34,33.081-71.385,48.751-123.62,48.751-24.375,0-48.751-5.2231-73.126-13.929-24.375-8.7054-43.528-20.893-59.197-36.563l-15.67,40.045z" fill-rule="nonzero" fill="#FFF"/><path d="m3024.3,7216.5,0-73.126,24.375,0c15.67,0,26.116-3.4822,31.34-8.7054,5.2233-5.2232,6.9644-19.152,6.9644-40.045v-311.66c0-20.893-1.7411-34.822-6.9644-40.045-5.2232-5.2232-13.929-6.9642-31.34-6.9642h-24.375v-73.126h242.01v73.126h-24.375c-15.67,0-26.116,3.482-31.34,8.7053-5.2233,5.2234-6.9644,19.152-6.9644,40.045v311.66c0,20.893,1.7411,34.822,6.9644,40.045,5.2233,5.2233,15.67,8.7054,31.34,8.7054h24.375v73.126h-242z" fill-rule="nonzero" fill="#FFF"/><path d="m3529.2,6649c-71.388,0-128.71,26.24-168.75,78.473-40.045,52.24-61.111,123.35-61.111,213.89s21.066,162,61.111,214.24c40.05,52.233,97.366,78.472,168.75,78.472,71.388,0,129.05-26.24,169.1-78.472,40.045-52.24,60.764-123.7,60.764-214.24s-20.719-161.66-60.764-213.89c-41.79-52.234-97.713-78.473-169.1-78.473zm-1.7361,75c33.081,0,57.594,17.262,73.264,52.084,15.67,34.82,22.569,90.412,22.569,165.28,0,76.604-6.8995,130.8-22.569,165.63-15.67,34.822-40.183,52.084-73.264,52.084s-57.247-17.262-72.917-52.084c-15.67-34.82-22.917-90.759-22.917-165.63,0-76.604,7.2468-130.46,22.917-165.28,13.929-34.822,39.836-52.084,72.917-52.084z" fill-rule="nonzero" fill="#FFF"/><path d="m3849.6,6784.7c0-20.893-1.7411-34.822-6.9643-40.045-5.2235-5.2234-15.67-8.7056-31.34-8.7056h-20.893v-73.126h195l156.7,384.78v-264.65c0-20.893-1.7411-34.822-6.9643-40.045-5.2234-5.2232-15.67-8.7053-31.34-8.7053h-22.634v-73.126h186.3v73.126h-19.152c-15.67,0-26.116,3.4821-31.34,8.7053-5.2232,5.2232-6.9643,19.152-6.9643,40.045v431.79h-125.37l-167.13-411v290.76c0,20.893,1.741,34.822,6.9643,40.045,5.2231,5.2232,15.67,8.7054,31.34,8.7054h22.634v73.126h-189.76v-73.126h20.893c15.67,0,26.116-3.4822,31.34-8.7054,5.2233-5.2232,6.9644-19.152,6.9644-40.045v-311.66z" fill-rule="nonzero" fill="#FFF"/><path d="m4631.3,6662.9-104.51,426.74c-5.223,24.376-10.397,39.916-17.361,45.139-6.965,5.2232-15.585,8.6805-29.514,8.6805h-15.625v73.264h177.43v-73.264h-20.833c-12.187,0-22.56,0.01-26.042-3.4722-5.2232-3.482-6.9445-8.6607-6.9445-15.625,0-3.4826,1.7362-6.9345,1.7362-10.417,0-5.2235,1.7361-8.6705,1.7361-12.153l15.625-62.848h118.4l15.625,68.056s1.7361,3.4672,1.7361,5.2083c1.741,5.2235,1.7361,10.412,1.7361,12.153,0,6.9644-1.7211,12.143-6.9445,15.625-5.224,1.741-15.585,3.4722-29.514,3.4722h-17.361v73.264h226.39v-73.264h-21.181c-12.187,0-20.818-3.4523-26.042-10.417-5.2239-6.964-10.402-20.774-15.625-41.667l-101.04-428.47h-121.88zm36.806,130.56,41.667,174.31-83.681,0,42.014-174.31z" fill-rule="nonzero" fill="#FFF"/><path d="m4984.8,7223.5-48.751,0,0-217.64,53.974,0c5.2235,43.527,19.152,80.09,41.786,106.21,22.634,26.116,52.233,40.045,85.314,40.045,22.634,0,41.786-5.2236,53.974-17.411,13.929-12.188,19.152-27.858,19.152-48.751,0-31.34-24.375-55.715-73.126-71.385-8.7056-1.7412-13.929-3.4823-17.411-5.2234-43.528-13.929-73.126-24.375-88.796-33.081-15.67-8.7054-29.599-19.152-40.045-29.599-13.929-13.929-24.375-31.34-31.34-52.233-6.9645-20.893-10.447-41.786-10.447-66.162,0-55.715,13.929-99.242,43.528-130.58,29.599-31.34,69.644-47.01,123.62-47.01,26.116,0,50.492,3.4821,69.644,12.188,20.893,6.9644,38.304,19.152,52.233,34.822l12.188-38.304h50.492v201.97h-55.715c-3.4822-40.045-15.67-73.126-38.304-95.76-20.893-22.634-48.751-34.822-83.572-34.822-20.893,0-36.563,5.2231-48.751,17.411s-17.411,27.858-17.411,47.01c0,27.858,26.116,50.492,80.091,64.421,20.893,5.2233,36.563,10.447,48.751,15.67,47.01,15.67,81.832,38.304,102.72,66.162,22.634,29.599,33.081,66.162,33.081,113.17,0,55.715-15.67,99.243-45.268,130.58-31.34,33.081-71.385,48.751-123.62,48.751-24.375,0-48.751-5.2231-73.126-13.929-24.375-8.7054-43.528-20.893-59.197-36.563l-15.67,40.045z" fill-rule="nonzero" fill="#FFF"/><path d="m5331.2,7216.5,0-73.126,24.375,0c15.67,0,26.116-3.4822,31.34-8.7054,5.2232-5.2232,6.9645-19.152,6.9645-40.045v-311.66c0-20.893-1.7413-34.822-6.9645-40.045-5.2232-5.2232-13.929-6.9642-31.34-6.9642h-24.375v-73.126h242.01v73.126h-24.375c-15.67,0-26.116,3.482-31.34,8.7053-5.2232,5.2234-6.9643,19.152-6.9643,40.045v311.66c0,20.893,1.7411,34.822,6.9643,40.045,5.2234,5.2233,15.67,8.7054,31.34,8.7054h24.375v73.126h-242.01z" fill-rule="nonzero" fill="#FFF"/><path d="m5745.5,6662.9-104.17,426.74c-5.223,24.376-10.744,39.916-17.708,45.139-6.965,5.2232-15.585,8.6805-29.514,8.6805h-15.625v73.264h177.78v-73.264h-21.181c-12.187,0-22.56,0.01-26.042-3.4722-5.2232-3.482-6.9444-8.6607-6.9444-15.625,0-3.4826,1.7361-6.9345,1.7361-10.417,0-5.2235,1.7361-8.6705,1.7361-12.153l15.625-62.848h118.4l15.625,68.056s1.7361,3.4672,1.7361,5.2083c1.7411,5.2235,1.7361,10.412,1.7361,12.153,0,6.9644-1.7211,12.143-6.9445,15.625-5.2238,1.741-15.585,3.4722-29.514,3.4722h-17.361v73.264h226.39v-73.264h-20.834c-12.187,0-21.166-3.4523-26.389-10.417-5.223-6.964-10.402-20.774-15.625-41.667l-101.04-428.47h-121.88zm36.806,130.56,41.667,174.31-83.681,0,42.014-174.31z" fill-rule="nonzero" fill="#FFF"/><path fill-rule="evenodd" fill="#FFF" d="m2951.2,1241,0,121.88,546.7,0,0-134.06-177.59,0,0-520.59,699.92,656.39,200.23,0,0-785.24s-1.7411-36.563,27.858-36.563h153.22v-142.74h-550.19v141.03h153.22l34.822,36.563v419.6l-612.87-591.97h-471.84v130.58h167.15v703.4l-168.89,3.4821z"/><path fill-rule="evenodd" fill="#FFF" d="m4525.1,405.33,0,142.77,170.63,0,398.71,461.39,0,224.6-165.4,0,0,128.84,633.76,0,0-132.32-182.81,0,0-210.67,421.34-470.1,153.22,0,0-151.48-529.29,0,0,151.48,104.47,0-226.34,282.06-222.86-245.49,1.7411-38.304,94.019,1.7411,1.741-149.73z"/><path fill-rule="evenodd" fill="#FFF" d="m1307.6,405.33-128.84,0,0,71.385s-38.304-45.269-177.59-83.573c-229.83-62.68-487.51-62.68-696.44,69.644-132.32,83.573-174.11,231.57-88.796,369.11,67.903,111.43,322.1,153.22,430.05,163.66,236.79,26.116,672.06,83.573,365.63,242.01-85.314,38.304-168.89,67.903-433.53,3.4822-113.17-45.269-189.78-52.233-250.72-235.05-55.715,3.4822-144.51,0-144.51,0v376.08l161.92,3.4822v-59.197h27.858s226.34,120.14,574.56,100.98c120.14-24.375,255.94-40.045,362.15-179.33,107.95-141.03,62.68-297.73-57.456-391.75-107.9-85.4-334.2-106.29-447.37-123.7-186.3-15.67-320.35-45.27-320.35-45.27s-95.76-53.974-15.67-128.84c59.197-53.974,198.49-57.456,268.13-53.974,74.867,6.9644,222.86,0,355.18,80.09,48.751,41.786,81.832,83.573,88.796,147.99h127.1l-1.7411-329.07z"/><path fill-rule="evenodd" fill="#FFF" d="m2200.7,344.43c-384.78,0-696.53,245.32-696.53,548.27s311.75,548.61,696.53,548.61,696.53-245.66,696.53-548.61c0-302.96-311.75-548.27-696.53-548.27zm5.2083,175.7c224.05,0,405.9,166.79,405.9,372.57s-181.86,372.57-405.9,372.57c-224.05,0-405.56-166.79-405.56-372.57s181.51-372.57,405.56-372.57z"/></g></svg>
