<svg xmlns="http://www.w3.org/2000/svg" fill-rule="evenodd" height="538" width="600" viewBox="0 0 6666.6674 5977.744"><path fill="#101372" d="m0 0h5401.3v4875.2h-5401.3z"/><path fill="#fff" d="m3467.7 530.68c243.99 30.499 672.5 329.39 674.02 666.4h1133v863.11c-350.74-327.86-2738.8-393.43-2633.6-1174.2 35.07-260.76 384.28-410.21 826.51-355.31zm-2458.2-422.41h-902.76v3791h747.22v-565.75h1945.8v565.75h1502.1c18.299-100.65 4.575-190.62-36.598-269.91-28.974-56.42-83.87-111.32-140.29-144.87-498.7-289.9-1579.9-524.7-2145.6-724.5-323.3-114.3-648.1-286.7-886-532.2-244.01-250.1-359.91-626.7-375.16-966.8-12.2-753.3 289.76-1154.4 289.76-1154.4z"/><g fill="#101372"><path transform="scale(1.52493)" d="m561 2186h1276v371h-1276z"/><path d="m1009.5 106.75h4265.2v1088.8h-1133c0-337.01-428.51-635.9-674.02-666.4-442.23-54.898-791.44 94.55-826.51 355.31-105.22 782.29 2282.8 847.86 2633.6 1174.2v1839.1h-971.38c18.299-100.65 4.575-190.62-36.598-269.91-28.974-56.42-83.87-111.32-140.29-144.87-498.7-289.8-1579.9-524.6-2145.6-724.4-323.3-114.4-648.1-286.7-886-532.2-243.99-250.1-359.88-626.7-375.13-966.8-12.2-753.32 289.73-1154.4 289.73-1154.4z"/><g fill-rule="nonzero"><path d="m131.14 5355.6v-48.798h19.824c13.724 0 22.874-1.525 25.924-6.1 4.575-3.05 6.1-12.199 6.1-27.449v-213.49c0-15.249-1.525-24.399-6.1-27.449-4.575-3.05-12.199-6.1-25.924-6.1h-19.824v-48.798h352.26v143.34h-47.27c-3.05-21.349-6.1-38.12-10.675-50.32-4.575-10.674-9.15-19.824-15.249-25.924-6.1-6.1-15.249-10.674-25.924-13.724-10.675-3.05-28.974-4.575-56.42-4.575h-45.748v106.75h9.15c19.824 0 33.549-4.575 39.648-12.199 6.1-7.625 10.675-24.399 10.675-47.27h44.22v172.32h-44.22c0-25.924-4.575-42.698-9.15-50.32-6.1-7.625-19.824-12.2-39.648-12.2h-9.15v121.99h47.27c39.648 0 65.57-7.625 79.3-21.349 13.724-13.724 22.874-42.698 25.924-85.4h47.27v155.54h-352.26zm449.86-295.84c0-13.724-1.525-22.874-6.1-27.449-4.575-3.05-13.724-6.1-27.449-6.1h-18.299v-48.798h170.79l137.24 262.29v-181.47c0-13.724-1.525-22.874-6.1-27.449-4.575-3.05-13.724-6.1-27.449-6.1h-19.824v-48.798h163.17v48.798h-16.774c-13.724 0-22.874 1.525-27.449 6.1-4.575 3.05-6.1 12.2-6.1 27.449v295.84h-109.8l-146.39-280.59v198.24c0 13.724 1.525 22.874 6.1 27.449 4.575 3.05 13.724 6.1 27.449 6.1h19.824v48.798h-164.69v-48.798h18.299c13.724 0 22.874-1.525 27.449-6.1 4.575-3.05 6.1-12.199 6.1-27.449v-213.49zm731.97-82.35v144.87h-48.798c0-32.02-6.1-56.42-16.774-71.67-12.2-15.249-28.974-22.874-53.37-22.874h-6.1v239.41c0 13.724 0 21.349 1.525 25.924 1.525 4.575 3.05 6.1 6.1 7.625 3.05 1.525 9.15 3.05 15.249 3.05 6.1 0 16.774 1.525 33.549 1.525v48.798h-211.97v-48.798c10.674 0 21.349 0 28.974-1.525 7.625-1.525 15.249-1.525 19.824-4.575 3.05-1.525 4.575-3.05 6.1-7.625 1.525-4.575 1.525-12.199 1.525-24.399v-7.625-233.32h-4.575c-24.399 0-42.698 7.625-53.37 22.874-12.199 15.249-18.299 39.648-18.299 71.67h-47.27v-144.87h347.69zm21.349 376.66v-48.798h19.824c13.724 0 22.874-1.525 25.924-6.1 4.575-3.05 6.1-12.199 6.1-27.449v-213.49c0-15.249-1.525-24.399-6.1-27.449-4.575-3.05-12.2-6.1-25.924-6.1h-19.824v-48.798h352.26v143.34h-47.27c-3.05-21.349-6.1-38.12-10.675-50.32-4.575-10.675-9.15-19.824-15.249-25.924-6.1-6.1-15.249-10.675-25.924-13.724-10.674-3.05-28.974-4.575-56.42-4.575h-45.748v106.75h9.149c19.824 0 33.549-4.575 39.648-12.199 6.1-7.625 10.674-24.399 10.674-47.27h44.22v172.32h-44.22c0-25.924-4.575-42.698-9.15-50.32-6.1-7.625-19.824-12.2-39.648-12.2h-9.15v121.99h47.27c39.648 0 65.57-7.625 79.3-21.349s22.874-42.698 25.924-85.4h47.27v155.54h-352.26zm550.5-221.12h38.12c27.449 0 45.748-3.05 54.898-10.674 9.15-7.625 15.249-21.349 15.249-39.648 0-19.824-4.575-35.07-15.249-42.698-9.15-7.625-27.449-12.199-50.32-12.199h-41.17v106.75zm0 138.77c0 13.724 1.525 22.874 6.1 27.449 4.575 3.05 12.2 6.1 27.449 6.1h18.299v48.798h-204.34v-48.798h19.824c13.724 0 22.874-1.525 25.924-6.1 4.575-3.05 6.1-12.199 6.1-27.449v-213.49c0-15.249-1.525-24.399-6.1-27.449-4.575-3.05-12.2-6.1-25.924-6.1h-19.824v-48.798h234.84c44.22 0 76.25 7.625 97.6 22.874s32.02 39.648 32.02 70.15c0 22.874-7.625 41.17-21.349 54.898-13.724 15.249-35.07 24.399-60.997 30.499 22.874 4.575 39.648 12.199 48.798 24.399 9.149 12.199 15.249 28.974 15.249 51.848v36.598c0 15.249 1.525 25.924 3.05 32.02 1.525 6.1 6.1 7.625 12.199 7.625 6.1 0 12.2-4.575 13.724-12.199 3.05-7.625 4.575-24.399 4.575-47.27h35.07v7.625 7.625c0 35.07-6.1 59.47-19.824 76.25-13.724 16.774-35.07 24.399-62.52 24.399-30.499 0-51.848-7.625-65.57-22.874s-21.349-39.648-21.349-73.2v-36.598c0-21.349-3.05-35.07-9.15-41.17-6.1-6.1-19.824-9.15-39.648-9.15h-44.22v89.97zm623.7-295.84v144.87h-48.798c0-32.02-6.1-56.42-16.774-71.67-12.2-15.249-28.974-22.874-53.37-22.874h-6.1v239.41c0 13.724 0 21.349 1.525 25.924 1.525 4.575 3.05 6.1 6.1 7.625 3.05 1.525 9.15 3.05 15.249 3.05 6.1 0 16.774 1.525 33.549 1.525v48.798h-211.97v-48.798c10.675 0 21.349 0 28.974-1.525 7.625-1.525 15.249-1.525 19.824-4.575 3.05-1.525 4.575-3.05 6.1-7.625 1.525-4.575 1.525-12.2 1.525-24.399v-7.625-233.32h-4.575c-24.399 0-42.698 7.625-53.37 22.874-12.2 15.249-18.299 39.648-18.299 71.67h-47.27v-144.87h347.69zm218.07 207.39l-36.598-118.94-36.598 118.94h73.2zm-213.49 170.79v-48.798h12.199c12.2 0 19.824-1.525 25.924-6.1 6.1-4.575 10.675-13.724 15.249-30.499l91.5-291.26h106.75l88.45 292.79c4.575 13.724 9.15 22.874 13.724 27.449 4.575 4.575 12.199 6.1 22.874 6.1h18.299v48.798h-196.72v-48.798h15.249c12.2 0 21.349-1.525 25.924-3.05 4.575-1.525 6.1-6.1 6.1-10.675 0-1.525 0-4.575-1.525-7.625 0-1.525-1.525-3.05-1.525-4.575l-13.724-45.748h-102.17l-13.724 42.698c0 3.05-1.525 4.575-1.525 7.625 0 3.05-1.525 4.575-1.525 7.625 0 4.575 1.525 9.15 6.1 10.675 3.05 1.525 12.2 3.05 22.874 3.05h16.774v48.798h-157.07zm399.53 0v-48.798h21.349c13.724 0 22.874-1.525 25.924-6.1 4.575-3.05 6.1-12.199 6.1-27.449v-213.49c0-15.249-1.525-24.399-6.1-27.449-4.575-3.05-12.2-6.1-25.924-6.1h-21.349v-48.798h210.44v48.798h-21.349c-13.724 0-22.874 1.525-27.449 6.1-4.575 3.05-6.1 12.2-6.1 27.449v213.49c0 13.724 1.525 22.874 6.1 27.449 4.575 3.05 13.724 6.1 27.449 6.1h21.349v48.798h-210.44m283.64-295.84c0-13.724-1.525-22.874-6.1-27.449-4.575-3.05-13.724-6.1-27.449-6.1h-18.299v-48.798h170.79l137.24 262.29v-181.47c0-13.724-1.525-22.874-6.1-27.449-4.575-3.05-13.724-6.1-27.449-6.1h-19.824v-48.798h163.17v48.798h-16.774c-13.724 0-22.874 1.525-27.449 6.1-4.575 3.05-6.1 12.2-6.1 27.449v295.84h-109.8l-146.39-280.59v198.24c0 13.724 1.525 22.874 6.1 27.449 4.575 3.05 13.724 6.1 27.449 6.1h19.824v48.798h-164.69v-48.798h18.299c13.724 0 22.874-1.525 27.449-6.1 4.575-3.05 6.1-12.2 6.1-27.449v-213.49zm492.55 213.49c0 13.724 1.525 22.874 6.1 27.449 4.575 3.05 12.199 6.1 27.449 6.1h10.675v48.798h-152.49v-48.798h16.774c13.724 0 22.874-1.525 27.449-6.1 4.575-3.05 6.1-12.199 6.1-27.449v-213.49c0-13.724-1.525-22.874-6.1-27.449-4.575-3.05-12.2-6.1-27.449-6.1h-16.774v-48.798h187.57l62.52 231.79 65.57-231.79h186.04v48.798h-18.299c-13.724 0-22.874 1.525-27.449 6.1-4.575 3.05-6.1 12.2-6.1 27.449v213.49c0 13.724 1.525 22.874 6.1 27.449 4.575 3.05 13.724 6.1 27.449 6.1h18.299v48.798h-187.57v-48.798h10.674c13.724 0 22.874-1.525 25.924-6.1 4.575-3.05 6.1-12.199 6.1-27.449v-234.84l-88.45 317.19h-71.67l-86.92-318.71v236.36zm411.73 82.35v-48.798h19.824c13.724 0 22.874-1.525 25.924-6.1 4.575-3.05 6.1-12.199 6.1-27.449v-213.49c0-15.249-1.525-24.399-6.1-27.449-4.575-3.05-12.199-6.1-25.924-6.1h-19.824v-48.798h352.26v143.34h-47.27c-3.05-21.349-6.1-38.12-10.674-50.32-4.575-10.675-9.15-19.824-15.249-25.924-6.1-6.1-15.25-10.675-25.924-13.724-10.675-3.05-28.974-4.575-56.42-4.575h-45.748v106.75h9.15c19.824 0 33.549-4.575 39.648-12.199 6.1-7.625 10.674-24.399 10.674-47.27h44.22v172.32h-44.22c0-25.924-4.575-42.698-9.15-50.32-6.1-7.625-19.824-12.2-39.648-12.2h-9.15v121.99h47.27c39.648 0 65.57-7.625 79.3-21.349 13.724-13.724 22.874-42.698 25.924-85.4h47.27v155.54h-352.26zm449.86-295.84c0-13.724-1.525-22.874-6.1-27.449-4.575-3.05-13.724-6.1-27.449-6.1h-18.299v-48.798h170.79l137.24 262.29v-181.47c0-13.724-1.525-22.874-6.1-27.449-4.575-3.05-13.724-6.1-27.449-6.1h-19.824v-48.798h163.17v48.798h-16.774c-13.724 0-22.874 1.525-27.449 6.1-4.575 3.05-6.1 12.2-6.1 27.449v295.84h-109.8l-146.39-280.59v198.24c0 13.724 1.525 22.874 6.1 27.449 4.575 3.05 13.724 6.1 27.449 6.1h19.824v48.798h-164.69v-48.798h18.299c13.724 0 22.874-1.525 27.449-6.1 4.575-3.05 6.1-12.2 6.1-27.449v-213.49zm731.97-82.35v144.87h-48.798c0-32.02-6.1-56.42-16.774-71.67-12.199-15.249-28.974-22.874-53.37-22.874h-6.1v239.41c0 13.724 0 21.349 1.525 25.924 1.525 4.575 3.05 6.1 6.1 7.625 3.05 1.525 9.15 3.05 15.249 3.05 6.1 0 16.774 1.525 33.549 1.525v48.798h-211.97v-48.798c10.675 0 21.349 0 28.974-1.525 7.625-1.525 15.249-1.525 19.824-4.575 3.05-1.525 4.575-3.05 6.1-7.625 1.525-4.575 1.525-12.2 1.525-24.399v-7.625-233.32h-4.575c-24.399 0-42.698 7.625-53.37 22.874-12.199 15.249-18.299 39.648-18.299 71.67h-47.27v-144.87h347.69z"/><path d="m609.97 5466.9v190.62h-70.15c0-42.698-7.625-73.2-24.399-94.55-16.774-19.824-42.698-30.499-77.77-30.499h-7.625v314.14c0 16.774 1.525 28.974 3.05 33.548 1.525 6.1 4.575 9.15 9.15 10.674 4.575 1.525 12.199 4.575 21.349 4.575 9.15 1.525 24.399 1.525 47.27 1.525v64.05h-306.51v-64.05c16.774 0 30.499 0 41.17-1.525 12.199-1.525 21.349-3.05 28.974-4.575 4.575-1.525 7.625-4.575 9.15-10.674 1.525-6.1 3.05-16.774 3.05-33.548v-9.15-304.99h-7.625c-35.07 0-60.997 10.674-77.77 30.499-16.774 19.824-25.924 51.848-25.924 94.55h-68.62v-190.62h503.23m3.05 494.08v-64.05h28.974c19.824 0 33.549-3.05 38.12-7.625 6.1-4.575 9.15-16.774 9.15-35.07v-279.06c0-19.824-3.05-30.499-9.15-36.598-6.1-4.575-18.299-7.625-38.12-7.625h-28.974v-64.05h510.85v189.09h-67.1c-4.575-28.974-9.15-50.32-15.249-65.57-6.1-15.249-13.724-25.924-22.874-35.07-9.15-9.15-21.349-15.249-36.599-18.299-15.249-3.05-42.698-6.1-80.82-6.1h-67.1v140.29h12.199c28.974 0 47.27-4.575 57.948-15.249 9.15-10.674 15.249-30.499 15.249-62.52h64.05v225.69h-64.05c-1.525-33.549-6.1-56.42-13.724-67.1-9.15-10.675-27.449-15.249-57.948-15.249h-12.199v160.12h68.62c56.42 0 94.55-9.15 115.9-27.449 19.824-18.299 32.02-56.42 38.12-111.32h67.1v204.34h-510.85zm576.43-494.08h300.41v64.05h-32.02c-19.824 0-33.549 3.05-39.648 7.625-6.1 4.575-9.15 16.774-9.15 35.07v321.76h41.17c39.648 0 65.57-1.525 80.82-6.1 15.249-3.05 27.449-9.15 36.598-18.299 10.674-9.15 19.824-22.874 24.399-41.17 6.1-16.774 10.674-41.17 12.199-73.2h67.1v202.82h-484.93v-64.05h28.974c19.824 0 33.548-3.05 38.12-7.625 6.1-4.575 9.15-16.774 9.15-35.07v-279.06c0-19.824-3.05-30.499-9.15-36.598-6.1-4.575-18.299-7.625-38.12-7.625h-28.974v-64.05zm533.73 494.08v-64.05h28.974c19.824 0 33.548-3.05 38.12-7.625 6.1-4.575 9.15-16.774 9.15-35.07v-279.06c0-19.824-3.05-30.499-9.15-36.598-6.1-4.575-18.299-7.625-38.12-7.625h-28.974v-64.05h510.85v189.09h-67.1c-4.575-28.974-9.15-50.32-15.249-65.57-6.1-15.249-13.724-25.924-22.874-35.07-9.15-9.15-21.349-15.249-36.598-18.299-15.249-3.05-42.698-6.1-80.82-6.1h-67.1v140.29h12.2c28.974 0 47.27-4.575 57.948-15.249 9.15-10.674 15.249-30.499 15.249-62.52h64.05v225.69h-64.05c-1.525-33.549-6.1-56.42-13.724-67.1-9.15-10.675-27.449-15.249-57.948-15.249h-12.199v160.12h68.62c56.42 0 94.55-9.15 115.9-27.449 19.824-18.299 32.02-56.42 38.12-111.32h67.1v204.34h-510.85zm910.39 0h-144.87l-131.14-373.61c-9.15-24.399-18.299-41.17-28.974-47.27-10.675-7.625-27.449-10.675-50.32-12.2v-62.52h289.74v62.52h-12.199-16.774c-16.774 0-27.449 1.525-33.549 4.575-6.1 3.05-9.15 9.15-9.15 18.299 0 3.05 1.525 7.625 1.525 13.724 1.525 6.1 4.575 15.249 9.15 28.974l82.35 240.94 88.45-253.14c4.575-10.675 6.1-19.824 7.625-22.874 1.525-4.575 1.525-7.625 1.525-9.15 0-7.625-3.05-12.2-10.675-15.249-7.625-3.05-18.299-4.575-33.548-4.575h-13.724-9.15v-62.52h224.17v62.52c-24.399 0-41.17 4.575-53.37 15.249-12.2 9.15-21.349 28.974-30.499 57.948l-54.8 167.8zm222.64 0v-64.05h32.02c19.824 0 33.548-3.05 38.12-7.625 6.1-4.575 9.149-16.774 9.149-35.07v-279.06c0-19.824-3.05-30.499-9.149-36.598-6.1-4.575-18.299-7.625-38.12-7.625h-32.02v-64.05h304.99v64.05h-32.02c-19.824 0-33.548 3.05-39.648 7.625-6.1 4.575-9.15 16.774-9.15 35.07v279.06c0 18.299 3.05 30.499 9.15 35.07 6.1 4.575 18.299 7.625 39.648 7.625h32.02v64.05h-304.99zm416.31 6.1h-62.52v-195.19h68.62c6.1 39.648 24.399 71.67 53.37 94.55s65.57 35.07 106.75 35.07c28.974 0 51.848-4.575 68.62-15.249 16.774-10.675 24.399-24.399 24.399-42.698 0-28.974-30.499-50.32-93.02-64.05-10.675-1.525-18.299-3.05-22.874-4.575-53.37-12.2-91.5-22.874-111.32-30.499-21.349-7.625-38.12-16.774-51.848-27.449-16.774-13.724-30.499-28.974-39.648-45.748-9.15-18.299-13.724-38.12-13.724-59.47 0-50.32 18.299-88.45 54.898-115.9 36.598-27.449 88.45-41.17 155.54-41.17 33.549 0 62.52 3.05 88.45 10.675 25.924 7.625 47.27 16.774 67.1 30.499l15.249-35.07h64.05v181.47h-70.15c-4.575-36.598-19.824-65.57-47.27-85.4-27.449-21.349-62.52-30.499-105.22-30.499-25.924 0-45.748 4.575-60.997 15.249s-22.874 24.399-22.874 41.17c0 25.924 33.549 44.22 102.17 57.948 25.924 4.575 45.748 9.15 60.997 13.724 59.47 13.724 102.17 33.548 129.62 59.47 27.449 25.924 41.17 59.47 41.17 102.17 0 48.798-19.824 88.45-57.948 117.42-38.12 28.974-89.97 44.22-157.07 44.22-32.02 0-62.52-4.575-93.02-12.2-30.499-7.625-54.898-18.299-74.72-32.02l-21.349 36.599zm437.66-6.1v-64.05h32.02c19.824 0 33.549-3.05 38.12-7.625 6.1-4.575 9.15-16.774 9.15-35.07v-279.06c0-19.824-3.05-30.499-9.15-36.598-6.1-4.575-18.299-7.625-38.12-7.625h-32.02v-64.05h304.99v64.05h-32.02c-19.824 0-33.549 3.05-39.648 7.625-6.1 4.575-9.149 16.774-9.149 35.07v279.06c0 18.299 3.05 30.499 9.149 35.07 6.1 4.575 18.299 7.625 39.648 7.625h32.02v64.05h-304.99zm515.43-247.04c0 67.1 9.15 117.42 28.974 147.92 19.824 30.499 50.32 45.748 93.02 45.748s73.2-15.249 93.02-45.748 28.974-80.82 28.974-147.92c0-67.1-9.15-117.42-28.974-147.92-19.824-30.499-50.32-45.748-93.02-45.748s-73.2 15.249-93.02 45.748-28.974 80.82-28.974 147.92m-167.74 0c0-82.35 25.924-146.39 77.77-192.14 51.848-47.27 121.99-70.15 213.49-70.15 89.97 0 161.64 22.874 211.97 70.15 51.848 47.27 77.77 111.32 77.77 192.14 0 82.35-25.924 146.39-77.77 192.14-51.848 45.748-121.99 70.15-211.97 70.15-89.97 0-161.64-22.874-213.49-70.15-51.848-47.27-77.77-111.32-77.77-192.14m695.37-140.29c0-18.299-3.05-30.499-9.15-35.07-6.1-4.575-18.299-7.625-39.648-7.625h-27.449v-64.05h247.04l198.24 344.64v-237.89c0-18.299-3.05-30.499-9.15-35.07-6.1-4.575-18.299-7.625-39.648-7.625h-28.974v-64.05h236.36v64.05h-24.399c-19.824 0-33.549 3.05-39.648 7.625-6.1 4.575-9.15 16.774-9.15 35.07v387.33h-158.59l-211.97-367.51v260.76c0 18.299 3.05 30.499 9.15 35.07 6.1 4.575 18.299 7.625 39.648 7.625h28.974v64.05h-239.41v-64.05h27.449c19.824 0 33.548-3.05 39.648-7.625 6.1-4.575 9.15-16.774 9.15-35.07v-279.06z"/></g></g><g fill="#fff"><path d="m2603.1 4628.2v83.87h478.83v-93.02h-155.54v-361.41l613.02 457.48h175.37v-545.93s-1.525-24.399 24.399-24.399h134.19v-99.12h-481.88v97.6h134.19l30.499 25.924v291.26l-536.78-411.73h-413.26v91.5h146.39v487.98l-147.92 3.05z"/><path transform="scale(1.52493)" d="m3188 2719l-130 129-128-112 1-18 54 1 1-68-375 2v65h98l229 211v102h-95v59h364v-61h-105v-95l243-215h87v-69h-304v69z"/><path d="m1945.8 4004.5c337.01 0 609.97 170.79 609.97 381.23s-272.96 381.23-609.97 381.23-609.97-170.79-609.97-381.23 272.96-381.23 609.97-381.23m4.575 121.99c196.72 0 355.31 115.9 355.31 259.24s-158.59 259.24-355.31 259.24-355.31-115.9-355.31-259.24 158.59-259.24 355.31-259.24"/><path d="m1163.5 4045.7h-112.85v50.32s-33.549-32.02-155.54-57.948c-201.29-42.698-426.98-44.22-609.97 48.798-115.9 57.948-152.49 160.12-77.77 257.71 59.47 77.77 282.11 106.75 376.66 114.37 207.39 18.299 588.62 57.948 320.24 169.27-74.72 25.924-147.92 47.27-379.71 3.05-99.12-32.02-166.22-36.598-219.59-163.17-48.798 3.05-126.57 0-126.57 0v260.76l141.82 3.05v-41.17h24.399s198.24 82.35 503.23 70.15c105.22-16.774 224.17-27.449 317.19-123.52 94.55-99.12 54.898-205.87-50.32-272.96-94.55-59.47-292.79-73.2-391.91-85.4-163.17-10.675-280.59-32.02-280.59-32.02s-83.87-36.598-13.724-89.97c51.848-38.12 173.84-39.648 234.84-36.598 65.57 4.575 195.19 0 311.09 54.898 42.698 28.974 71.67 57.948 77.77 102.17h111.32l-1.525-228.74z"/></g><g fill="#101372"><path d="m1950.4 4124.9c196.72 0 355.31 115.9 355.31 259.24s-158.59 259.24-355.31 259.24-355.31-115.9-355.31-259.24 158.59-259.24 355.31-259.24"/><g transform="matrix(1.57348 0 0 1.57348-5375.09-3542.14)" fill-rule="nonzero"><path d="m0 0h2.253v1.931h2.252v-1.931h2.253v-2.092h-2.253v-2.091h-2.252v2.091h-2.253v2.092" transform="matrix(58.71498 0 0-58.71498 6979.89 5406.46)"/><path d="m7414.9 5262.4h82.17v491.27h155.89v-637.7h-238.06z"/></g></g></svg>