<svg xmlns="http://www.w3.org/2000/svg" fill-rule="evenodd" height="666.88" width="600" viewBox="0 0 6666.667 7409.7378"><g fill-rule="nonzero"><path d="m6154.5 7409.7h-6154.5v-5937.4h6154.5v5937.4"/><path d="m6154.5 1430.1h-6154.5v-1430.1h6154.5v1430.1"/><path d="m140.67 1610.1h5888.5v4312.7h-5888.5v-4312.7" fill="#fff"/><path d="m858.94 5922.9h2236.5v-615.59h-2236.5v615.59" fill="#e63329"/><g fill="#fdc600"><path d="m3101.7 2525c2.186-257.16 231.66-403.6 747.45-399.22 228.02 2.186 469.88 64.837 637.45 155.18 167.55 90.34 264.45 285.58 261.53 522.34l1280.8 2.914v-1196.2h-4909.4c-165.38 290.67-257.9 632.35-260.81 1026.5-24.04 2718.8 4088.4 2012.9 4079 3090.3-.729 72.851-19.67 137.69-53.909 195.96h1145.2v-2119.3c-1208-606.11-2933.2-586.41-2927.3-1278.5"/><path d="m4128.4 7129.9v-7.285l10.199 15.299h-10.199 649.1l182.13-210.54c18.213-21.855 28.412-36.425 35.698-47.35 2.914-3.642 8.01-10.928 18.213-31.33 2.914 10.199 8.742 20.399 16.755 32.05 8.01 11.657 19.67 26.955 34.24 46.625l184.31 210.54h659.3l-568.97-469.16 499.76-462.61h-654.93l-121.67 152.25c-11.657 16.755-22.584 30.597-29.869 42.982-7.285 11.656-13.842 23.312-18.941 34.24-8.01-17.484-23.312-40.07-44.44-68.48-3.642-5.1-5.828-7.285-7.285-8.742l-118.02-152.25h-657.85l501.94 462.61-559.49 461.15z"/><path d="m3281.6 6787h-11.656-152.25l67.02-144.24c33.512-73.58 56.824-131.13 68.48-169.74 10.928-40.796 18.941-48.08 22.584-87.42h1.457c5.1 38.611 11.656 46.625 23.312 87.42 10.928 38.611 34.24 96.16 67.02 169.74l67.752 144.24h-153.72zm319.09-581.35h-320.54-8.742-302.33l-564.59 920.84 3.643 11.656h608.31l48.811-116.57h206.16 8.742 210.54l50.996 116.57h600.29l10.199-8.01v-7.285l-551.48-917.19z"/><path d="m1849.3 7137.9l-69.21-369.36c-4.371-28.412-9.471-56.824-13.11-84.51-4.371-28.412-8.01-56.824-11.656-85.24-6.557 26.955-15.299 55.37-27.683 85.24-11.656 29.869-26.955 61.924-44.44 95.44l-184.31 358.43h-342.36l-184.31-358.4c-17.484-33.512-32.783-65.57-44.44-95.44s-21.13-58.28-26.955-85.24c-3.643 28.412-7.285 56.824-11.657 85.24-3.643 27.683-8.01 56.1-13.11 84.51l-69.937 369.35h-564.6l273.92-931.7h593.74l114.38 230.94c3.642 7.285 59.738 131.13 67.752 145.7 8.742 17.484 26.955 72.852 42.982 126.77 8.742-39.34 32.05-87.42 43.711-126.77 17.484-44.44 40.796-93.98 69.21-150.08l120.18-226.55h593.01l249.15 914.28v9.471l-5.099 8.01h5.099-560.23z"/></g><path d="m2402.3 7129.9l2.186-2.914-2.186-6.557v9.471" fill="#fdc300"/><g fill="#fff"><path d="m2211.4 1253c-214.91 0-413.8-64.11-547.12-183.59-99.81-90.34-148.62-212.72-148.62-338.75 0-124.58 50.27-248.42 148.62-338.03 123.84-112.19 341.67-182.85 547.12-182.85 227.3 0 409.42 56.824 548.57 183.59 98.35 89.61 146.43 212 146.43 337.3 0 120.93-50.996 249.15-146.43 338.75-129.68 120.2-332.93 183.59-548.57 183.59v-137.7c113.64 0 220.01-39.34 293.59-112.92 73.58-72.852 107.09-162.45 107.09-271.73 0-104.91-36.425-203.25-107.09-273.19-72.852-71.39-181.4-112.19-293.59-112.19-112.92 0-220.74 40.07-293.59 112.19-70.67 69.937-107.09 168.29-107.09 273.19 0 104.18 37.15 202.53 107.09 271.73 72.851 72.851 180.68 112.92 293.59 112.92v137.69"/><path d="m724.38 210.22c-115.11 0-245.51 21.13-356.24 70.67-101.99 45.896-185.76 119.48-185.76 241.86 0 110.73 69.937 174.84 67.752 173.39 29.869 26.955 77.95 74.31 203.25 101.26 56.09 12.384 176.3 31.33 295.04 43.711 118.74 12.384 235.31 24.77 282.66 36.425 37.883 9.471 101.26 22.584 101.26 93.98 0 70.67-67.02 92.52-78.68 96.89-11.657 4.371-91.79 41.525-235.31 41.525-106.36 0-233.85-32.05-280.47-48.811-53.909-18.941-110.01-44.44-162.45-108.55-13.11-16.03-34.24-59.738-34.24-102.72h-130.44v364.99h144.98v-49.54c0-5.828 7.285-28.412 32.05-17.484 29.869 13.842 118.74 48.811 211.26 68.48 76.49 15.299 125.3 26.955 220.01 26.955 154.44 0 237.5-24.77 294.32-41.525 54.638-15.299 120.93-42.982 175.58-86.69 29.14-23.312 93.25-83.05 93.25-191.6 0-104.91-56.1-169.01-75.77-189.41-26.23-26.23-59.01-47.35-93.25-63.38-29.869-13.842-77.22-31.33-115.11-40.07-75.04-18.941-244.05-41.525-324.92-49.54-84.51-8.742-230.94-21.13-289.95-39.34-17.484-5.828-53.909-22.584-53.909-64.837 0-29.869 16.755-55.37 49.54-75.76 51.724-32.783 156.63-53.18 266.63-53.18 128.94 0 238.95 29.869 308.16 60.47 24.04 10.928 51.724 26.23 73.58 43.711 25.498 20.399 59.738 62.65 72.851 121.67h116.57v-318.43h-130.4v37.15c0 12.384-12.384 27.683-35.698 14.57-58.28-30.597-223.65-96.89-426.17-96.89"/><path d="m3422.7 267.89l637.45 574.79-6.557-386.84c-.729-50.996-10.199-72.12-65.57-72.12h-119.41v-115.83h544.93v115.83h-117.27c-55.37 0-59.01 18.213-59.738 72.12l9.471 739.44h-186.53l-733.57-654.95v464.78c.729 50.996 2.914 74.31 55.37 74.31h130.4v115.83h-534.73v-115.83h125.3c46.625 0 44.44-44.44 44.44-76.49v-542.69c0-34.969-5.1-76.49-77.95-76.49h-101.38v-115.84h455.32z"/><path d="m5036 1079.5c5.1 0 27.683-.729 32.05-2.186 12.384-3.642 21.13-13.11 25.498-21.855 1.457-4.371 2.186-21.855 2.186-25.497v-182.75c0-4.371 0-6.557-8.01-16.03-8.01-10.928-333.66-379.55-348.23-395.58-18.213-20.399-50.996-51.724-100.53-51.724h-112.92v-115.84h638.9v115.83h-77.22c-17.484 0-29.869 16.755-14.57 35.697 0 0 214.91 257.16 217.1 259.35 2.185 2.914 3.643 3.643 6.557 1.457 2.914-2.914 220.01-258.62 222.2-260.81 10.199-12.384 3.643-35.697-18.941-35.697h-79.41v-115.83h523.79v115.83h-117.29c-42.25 0-59.738 8.01-91.06 43.711-15.299 16.755-343.85 391.94-352.6 402.14-5.1 5.828-4.371 13.11-4.371 17.484v182.85c0 3.642.729 21.13 2.186 25.498 4.371 8.742 12.384 18.213 25.498 21.855 4.371 1.457 26.955 2.186 31.33 2.186h120.2v115.83h-636.21v-115.83h113.64z"/></g><path d="m6439.9 5487.5c-119.48 0-225.69 86.12-225.69 219.44 0 134.77 106.22 221.53 225.69 221.53 120.2 0 226.74-86.75 226.74-221.53 0-133.32-106.54-219.44-226.74-219.44m0 46.528c91.8 0 167.01 73.11 167.01 172.92 0 101.26-75.22 173.96-167.01 173.96-92.52 0-165.97-72.69-165.97-173.96 0-99.8 73.45-172.92 165.97-172.92m-87.15 48.958v246.88h48.611v-104.86h30.556l60.764 104.86h50.694l-66.32-107.64c37.15-2.914 64.931-20.458 64.931-65.62 0-53.91-34.26-73.61-96.18-73.61h-93.06zm48.611 38.542h41.667c21.855 0 50.35 4.329 50.35 30.556 0 29.869-20.581 34.375-48.26 34.375h-43.75v-64.931"/></g></svg>