<svg xmlns="http://www.w3.org/2000/svg" xmlns:xlink="http://www.w3.org/1999/xlink" viewBox="0 0 600 721.42"><defs><path id="0" d="m81.04 347.38h-8.385v-10.08h8.385v10.08"/><clipPath id="W"><path d="m76.03 342.45c-.367.502-.672 1.549-.651 1.97.018.361.046.792-.166 1.421-.285.852-.55 1.214-.786 1.21-.03 0-.056-.012-.078-.033-.179-.102-.165-.741.126-1.785.205-.735.478-1.395.799-1.955.179-.311.483-.734.728-.885l.031-.006-.004.062"/></clipPath><clipPath id="P"><path d="m77.11 341.52c.051.068.069.138.062.206-.034.006-.07.014-.101.024-.104.033-.352.141-.352.141s.098-.225.165-.311c.05-.064.099-.112.14-.147.033.026.062.055.086.087"/></clipPath><clipPath id="X"><path d="m75.66 343.16c-.005.015-.011.03-.016.044-.067.102-.207.301-.386.486-.065.066-.187.173-.298.267.037-.081.074-.161.112-.24.088-.05.205-.128.31-.233.124-.123.222-.247.278-.324"/></clipPath><clipPath id="Z"><path d="m75.3 343.3c-.321.559-.594 1.219-.799 1.955-.277.993-.304 1.62-.151 1.766-.179-.102-.165-.741.126-1.785.205-.735.478-1.395.799-1.955.179-.311.483-.734.728-.885l.031-.006c-.245.151-.556.599-.734.91"/></clipPath><clipPath id="Y"><path d="m74.5 345.25c-.317 1.137-.306 1.794-.074 1.798.236.004.501-.358.786-1.21.212-.629.184-1.06.166-1.421-.021-.421.284-1.468.651-1.97l.004-.062c-.245.151-.556.599-.734.91-.321.559-.594 1.219-.799 1.955"/></clipPath><clipPath id="V"><path d="m75.76 342.92c-.035.077-.068.158-.1.239-.056.077-.154.201-.278.324-.105.105-.222.183-.31.233.072-.146.146-.286.223-.42.027-.047.057-.097.089-.149.048-.024.099-.051.143-.075.07-.038.177-.112.233-.152"/></clipPath><clipPath id="Q"><path d="m75.8 342.84c-.012.025-.024.051-.036.078-.056.04-.163.114-.233.152-.044.024-.095.051-.143.075.042-.066.087-.135.135-.204.061-.022.132-.047.17-.062.039-.015.079-.029.107-.039"/></clipPath><clipPath id="U"><path d="m81.04 347.38h-8.385v-10.08h8.385v10.08"/></clipPath><clipPath id="R"><path d="m76.61 344.68c.372.099.593.458.796.906.073.161.119.422.116.694-.026.106-.065.225-.121.293-.092.111-.257.228-.473.075-.236-.168-.39-.541-.528-1.113-.103-.426-.129-.937-.135-1.187.088.143.215.298.345.332"/></clipPath><clipPath id="T"><path d="m75.95 346.45c.193.449.455.776.719.887-.271-.103-.541-.434-.74-.895-.258-.601-.376-1.276-.367-2.122.004-.41.092-1.132.349-1.679l.018-.011c-.257.547-.342 1.288-.346 1.699-.009.845.108 1.52.367 2.121"/></clipPath><clipPath id="S"><path d="m75.859 342.72c-.021.04-.042.081-.063.124-.028.001-.068.024-.107.039-.038.015-.109.04-.17.062.044-.064.091-.128.139-.189.019-.004.038-.007.052-.001.03-.005.104-.018.149-.026"/></clipPath><clipPath id="a"><path d="m75.26 343.69c.179-.185.319-.384.386-.486-.034.089-.065.179-.093.269-.09.153-.248.407-.424.639-.144.19-.328.42-.456.578.088-.256.185-.501.289-.733.111-.094.233-.201.298-.267"/></clipPath><clipPath id="j"><path d="m78.03 346.14c.57.25 1.098.27 1.435-.058-.336.344-.872.327-1.451.073-.494-.217-.99-.671-1.425-1.384-.318-.521-.555-1.237-.573-1.93l.016-.002c.021.689.256 1.399.573 1.917.435.713.93 1.167 1.425 1.384"/></clipPath><clipPath id="b"><path d="m76.09 342.25c-.253.046-.528.232-.744.367-.441.275-.995.713-1.452 1.106-.668.575-1.277 1.205-1.217 1.364l-.003-.003c-.147-.109.493-.779 1.199-1.386.457-.392 1.01-.83 1.452-1.106.216-.135.491-.321.744-.367.105-.018.144.016.162.046-.024-.02-.066-.034-.141-.021"/></clipPath><clipPath id="k"><path d="m77.33 344.42c-.172-.193-.338-.409-.422-.521.041.027.083.051.124.074.031.017.06.031.089.044.13.182.372.509.506.644.124.124.483.437.819.609-.249-.098-.8-.496-1.116-.85"/></clipPath><clipPath id="n"><path d="m76.13 343.18c.022-.041.036-.081.045-.115.038.08.08.155.124.225-.049.026-.112.059-.14.073-.013.007-.035.023-.058.043-.009-.047-.016-.093-.023-.139.017-.027.037-.059.052-.087"/></clipPath><clipPath id="l"><path d="m79.11 344.71c.086.21.161.554-.182.663-.365.116-1.111-.522-1.301-.712-.134-.135-.376-.462-.506-.644.308.139.524.076.709 0 .208-.086.429-.146.634-.164.148.119.461.409.646.858"/></clipPath><clipPath id="i"><path d="m78.02 346.15c.746.328 1.419.261 1.689-.464.203-.549-.1-1.518-.796-1.787-.285-.11-.707-.042-1.084.115-.202.085-.441.152-.798-.043-.377-.206-.743-.553-.951-1.142l-.058.007c.018.693.255 1.409.573 1.93.435.713.931 1.167 1.425 1.384"/></clipPath><clipPath id="c"><path d="m80.28 343.04c-.323.224-.777.33-1.292.361-.386.023-.876-.083-1.099-.137.094-.035.174-.081.232-.136.076-.072.215-.296.323-.431.336-.419.602-.547.95-.63.55-.131 1.07.051 1.372.452-.111.161-.287.384-.486.521"/></clipPath><clipPath id="h"><path d="m76.73 346.46c-.075-.091-.257-.431-.373-.916-.104-.433-.141-1.046-.153-1.29.016.03.033.061.053.094.006.25.032.761.135 1.187.123.509.258.861.453 1.05-.038-.036-.08-.082-.115-.125"/></clipPath><clipPath id="d"><path d="m79.938 344.63c.947-.282 1.26-1.018 1.027-1.73-.214-.656-.866-.996-1.566-.829-.348.083-.614.211-.95.63-.108.135-.247.359-.323.431-.303.286-1.149.331-1.836-.261l-.044.043c.296.464.753.954 1.309 1.303.786.493 1.693.618 2.383.413"/></clipPath><clipPath id="f"><path d="m73.874 343.7c-.706.607-1.346 1.277-1.199 1.386.125.094.735-.378 1.27-.843.414-.36.746-.737.924-.907.279-.267.959-.875 1.33-.999l.043-.041c-.001-.029-.038-.093-.172-.069-.253.046-.528.232-.744.367-.441.276-.995.714-1.452 1.106"/></clipPath><clipPath id="g"><path d="m76.919 343.44c-.003.076-.03.167-.052.23-.184-.179-.347-.368-.485-.558.006-.037.012-.074.015-.09.004-.015.001-.035.017-.054.163.12.333.207.5.266.005.053.001.127.005.206"/></clipPath><clipPath id="e"><path d="m79.02 343.38c.516-.031.969-.137 1.292-.361.017-.011.033-.023.049-.035-.026.021-.053.042-.08.06-.323.224-.777.33-1.292.361-.386.023-.876-.083-1.099-.137.017-.006.034-.013.05-.02.231.055.705.154 1.08.132"/></clipPath><clipPath id="m"><path d="m76.16 343.36c.028-.014.091-.047.14-.073.146.232.322.409.509.545-.018.085-.057.205-.143.323-.077.105-.173.172-.257.214-.136-.295-.243-.626-.307-.966.023-.02.045-.036.058-.043"/></clipPath><clipPath id="7"><path d="m80.44 342.36c-.484.696-1.328.94-2.079.945-.692.004-1.467-.264-1.887-.507v-.046l.022-.016c.331.065.611.048.836-.022.359-.123.581-.38.635-.64.048-.232.041-.48.029-.65-.029-.419.017-.702.299-1.021.514-.582 1.364-.497 1.886-.033.554.492.758 1.273.258 1.99"/></clipPath><clipPath id="B"><path d="m76.48 342.75l.022-.016c.333.065.616.048.842-.024-.233.082-.524.107-.864.04"/></clipPath><clipPath id="8"><path d="m78.13 342.03c.14.168.248.265.292.671.027.245-.046.469-.102.6-.128 0-.259-.012-.389-.029-.047-.077-.119-.181-.21-.273-.107-.107-.29-.213-.412-.277.378-.119.612-.383.667-.651.009-.046.017-.093.022-.139.054.032.106.067.132.098"/></clipPath><clipPath id="A"><path d="m79.66 341.33c-.34.489-.858.755-1.397.871-.04-.06-.087-.112-.138-.173-.026-.031-.078-.066-.132-.098.023-.188.016-.375.007-.511-.029-.419.017-.702.299-1.021.431-.489 1.099-.507 1.612-.226.083.367.018.772-.251 1.158"/></clipPath><clipPath id="9"><path d="m80.44 342.36c-.484.696-1.328.94-2.079.945-.017 0-.033 0-.049 0 .056-.131.129-.355.102-.6-.028-.259-.082-.392-.154-.498.539-.116 1.057-.382 1.397-.871.269-.386.334-.791.251-1.158.098.053.19.118.274.193.554.492.758 1.273.258 1.99"/></clipPath><clipPath id="6"><path d="m77.09 343.06c-.017-.042-.043-.095-.102-.164-.033-.039-.075-.081-.111-.116.159 0 .304-.025.431-.065.122.064.305.17.412.277.091.092.163.196.21.273-.292-.04-.582-.115-.84-.205"/></clipPath><clipPath id="1"><path d="m76.986 342.9c.059.069.085.122.102.164-.096-.034-.188-.069-.273-.106-.025-.028-.059-.063-.1-.1-.026-.024-.07-.06-.111-.092.095.013.185.019.271.018.036.035.078.077.111.116"/></clipPath><clipPath id="5"><path d="m80.19 340.39c-.522-.464-1.372-.55-1.886.033-.234.264-.305.5-.307.811 0-.32.069-.563.307-.832.514-.582 1.364-.497 1.886-.033.338.3.545.708.543 1.143-.003-.427-.21-.827-.543-1.122"/></clipPath><clipPath id="2"><path d="m75.39 342.65s.102-.013.157-.022c.071-.001.137-.033.137-.033l.085-.056s-.054.007-.104.005c-.041-.002-.079-.013-.079-.013l-.196.119"/></clipPath><clipPath id="4"><path d="m78.39 342.12c-.491.357-1.381.47-1.8.454l-.027-.042.002-.018c.302-.058.477-.206.548-.375.066-.157.053-.33-.029-.464-.131-.218-.44-.438-.552-.52-.442-.323-.608-.618-.608-.98 0-.484.466-.735 1.044-.716.603.02 1.625.354 1.939 1.279.176.517 0 1.01-.517 1.382"/></clipPath><clipPath id="3"><path d="m76.68 342.9c-.019-.023-.044-.05-.066-.073-.02-.02-.06-.049-.093-.072.027.005.055.001.081.013.041.032.085.068.111.092.041.037.075.072.1.1-.046-.02-.09-.04-.133-.06"/></clipPath><clipPath id="O"><path d="m78.915 341.46c-.083.244-.259.47-.527.664-.057.042-.12.08-.187.115-.198-.012-.453-.025-.6-.024-.202 0-.425.034-.567.058.124-.157.148-.353.087-.515.03-.04.069-.096.111-.164.195-.07.507-.162.852-.185.331-.022.652.02.831.051"/></clipPath><clipPath id="K"><path d="m78.927 341.42c.056-.208.046-.428-.03-.653-.315-.925-1.337-1.259-1.939-1.279-.494-.016-.905.165-1.015.519.096-.373.516-.564 1.023-.548.603.02 1.625.354 1.939 1.279.08.236.087.466.022.682"/></clipPath><clipPath id="J"><path d="m77.51 340.84c-.052.42-.281.773-.393.923-.001-.027-.023-.054-.039-.079-.131-.218-.44-.438-.552-.52-.442-.323-.608-.618-.608-.98 0-.484.466-.735 1.044-.716.172.006.377.037.59.1.005.329.004.895-.042 1.272"/></clipPath><clipPath id="L"><path d="m76.56 342.54l.002-.018c.302-.058.477-.206.548-.375-.075.179-.253.337-.55.393"/></clipPath><clipPath id="N"><path d="m77.51 340.84c-.052.42-.281.773-.393.923-.006-.015-.005-.012-.012-.027.115-.158.331-.508.381-.914.045-.369.053-.927.049-1.259.001.003.007.002.017.005.005.329.004.895-.042 1.272"/></clipPath><clipPath id="M"><path d="m78.915 341.46c-.179-.031-.5-.073-.831-.051-.244.016-.471.067-.652.12-.017-.006-.035-.012-.053-.016-.027-.007-.059-.013-.09-.017.096-.175.193-.406.225-.661.016-.136.027-.297.034-.462.141-.075.323-.142.552-.174.168-.023.355-.009.512.022.124.148.225.321.293.521.085.249.087.491.001.718"/></clipPath><clipPath id="C"><path d="m78.905 340.74c-.314-.925-1.336-1.259-1.939-1.279-.578-.019-1.044.232-1.044.716 0 .362.166.657.608.98.112.082.421.302.552.52.174.287.036.752-.521.857l.027.042c.419.016 1.309-.097 1.8-.454.516-.374.693-.865.517-1.382"/></clipPath><clipPath id="D"><path d="m75.14 341.17c-.653.047-1.712.334-1.729.638-.015.272.593.321 1.063.318.302-.002.615-.048.981-.094.178-.022.5-.031.651-.013.281.034.535.125.359.329l.044.002c.371-.18.834-.519.6-.834-.296-.398-1.425-.385-1.969-.346"/></clipPath><clipPath id="E"><path d="m77.21 342.42c.096.019.176.048.236.074-.331.069-.651.092-.857.084l-.027-.042c.142-.027.257-.077.346-.142.08 0 .189.003.302.026"/></clipPath><clipPath id="I"><path d="m76.51 342.35l-.044-.002v-.027c.037-.043.054-.078.057-.108-.013-.112-.207-.169-.416-.194-.151-.018-.473-.009-.651.013-.366.046-.679.092-.981.094-.47.003-1.078-.046-1.063-.318.017-.304 1.076-.591 1.729-.638.544-.039 1.673-.052 1.969.346.234.315-.229.654-.6.834"/></clipPath><clipPath id="H"><path d="m76.07 341.58c-.033.151.02.352.047.44-.003 0-.005 0-.008 0-.015-.002-.032-.003-.05-.005-.057-.081-.179-.267-.225-.463-.037-.153-.03-.3-.017-.397.132.003.268.011.401.025-.045.081-.108.22-.148.401"/></clipPath><clipPath id="F"><path d="m76.44 341.7c-.098.135-.165.262-.206.347-.023-.004-.046-.008-.07-.012.019-.089.054-.245.094-.385.045-.16.118-.328.167-.434.16.027.309.066.431.121-.118.082-.322.233-.416.363"/></clipPath><clipPath id="G"><path d="m77.17 341.74c.006-.064-.012-.131-.063-.198-.299-.395-1.425-.385-1.969-.346-.639.047-1.665.322-1.726.618v-.006c.017-.304 1.076-.591 1.729-.638.544-.039 1.673-.052 1.969.346.055.074.072.15.06.224"/></clipPath><linearGradient id="1I" gradientUnits="userSpaceOnUse" x1="74.76" x2="75.879" y1="342.7" y2="340.76"><stop stop-color="#301a4a"/><stop stop-color="#422568" offset=".546"/><stop stop-color="#5e2590" offset="1"/></linearGradient><linearGradient id="1J" gradientUnits="userSpaceOnUse" x1="77.17" x2="76.72"><stop stop-color="#4c2c7a"/><stop stop-color="#53207e" offset=".798"/><stop stop-color="#53207e" offset="1"/></linearGradient><linearGradient id="1K" gradientUnits="userSpaceOnUse" x2="0" y1="341.21" y2="342.04"><stop stop-color="#4c2c7a"/><stop stop-color="#5e2590" offset=".742"/><stop stop-color="#5e2590" offset="1"/></linearGradient><linearGradient id="1H" gradientUnits="userSpaceOnUse" x1="73.41" x2="77.17"><stop stop-color="#3b215c"/><stop stop-color="#9d79c3" offset=".534"/><stop stop-color="#5e2590" offset="1"/></linearGradient><linearGradient id="1G" gradientUnits="userSpaceOnUse" x1="78.971" x2="75.943"><stop stop-color="#30205a"/><stop stop-color="#7264b8" offset=".509"/><stop stop-color="#51369b" offset="1"/></linearGradient><linearGradient id="1C" gradientUnits="userSpaceOnUse" x1="74.61" x2="75.49" y1="344.58" y2="344.78" xlink:href="#z"/><linearGradient id="1L" gradientUnits="userSpaceOnUse" x2="0" y1="341.16" y2="342.02"><stop stop-color="#422568"/><stop stop-color="#572285" offset="1"/></linearGradient><linearGradient id="1D" gradientUnits="userSpaceOnUse" x1="78.971" x2="77.29"><stop stop-color="#362466"/><stop stop-color="#442583" offset="1"/></linearGradient><linearGradient id="1F" gradientUnits="userSpaceOnUse" x1="77.19" x2="78.67" y1="341.58" y2="342.12"><stop stop-color="#30205a"/><stop stop-color="#362466" offset=".247"/><stop stop-color="#442583" offset="1"/></linearGradient><linearGradient id="1E" gradientUnits="userSpaceOnUse" x1="76.56" x2="77.11"><stop stop-color="#2f275f"/><stop stop-color="#9d79c3" offset="1"/></linearGradient><linearGradient id="1M" gradientUnits="userSpaceOnUse" x2="0" y1="341.76" y2="339.46"><stop stop-color="#30205a"/><stop stop-color="#442583" offset="1"/></linearGradient><linearGradient id="1T" gradientUnits="userSpaceOnUse" x1="75.922" x2="78.971" xlink:href="#1D"/><linearGradient id="1B" gradientUnits="userSpaceOnUse" x1="77.11" x2="77.58"><stop stop-color="#362466"/><stop stop-color="#3d2174" offset="1"/></linearGradient><linearGradient id="1U" gradientUnits="userSpaceOnUse" x1="77.01" x2="77.79" y1="343.17" y2="342.89"><stop stop-color="#391f6d"/><stop stop-color="#3c2971" offset=".2"/><stop stop-color="#62468a" offset="1"/></linearGradient><linearGradient id="1W" gradientUnits="userSpaceOnUse" x1="76.6" x2="77.09"><stop stop-color="#231d48"/><stop stop-color="#3b215c" offset="1"/></linearGradient><linearGradient id="1V" gradientUnits="userSpaceOnUse" x1="77.994" x2="80.73"><stop stop-color="#7e52ae"/><stop stop-color="#3b215c" offset=".988"/><stop stop-color="#3b215c" offset="1"/></linearGradient><linearGradient id="1S" gradientUnits="userSpaceOnUse" x1="77.61" x2="78.43" y1="343.08" y2="342.39"><stop stop-color="#342869"/><stop stop-color="#4e3577" offset=".303"/><stop stop-color="#68438e" offset="1"/></linearGradient><linearGradient id="1N" gradientUnits="userSpaceOnUse" x1="78.09" x2="79.64" y1="340.72" y2="341.44"><stop stop-color="#1f183e"/><stop stop-color="#3d2668" offset=".448"/><stop stop-color="#795bb3" offset=".92"/><stop stop-color="#795bb3" offset="1"/></linearGradient><linearGradient id="1R" gradientUnits="userSpaceOnUse" x1="78.41" x2="80.63" y1="343.38" y2="340.73"><stop stop-color="#4d346d"/><stop stop-color="#795bb3" offset=".81"/><stop stop-color="#795bb3" offset="1"/></linearGradient><linearGradient id="1O" gradientUnits="userSpaceOnUse" x1="76.56" x2="77.44"><stop stop-color="#31214d"/><stop stop-color="#36255f" offset=".247"/><stop stop-color="#3b2883" offset="1"/></linearGradient><linearGradient id="1Q" gradientUnits="userSpaceOnUse" x1="76.48" x2="80.73" xlink:href="#1E"/><linearGradient id="1P" gradientUnits="userSpaceOnUse" x1="76.48" x2="77.34" xlink:href="#1E"/><linearGradient id="1A" gradientUnits="userSpaceOnUse" x1="75.39" x2="75.77"><stop stop-color="#8681c8"/><stop stop-color="#7873b2" offset=".92"/><stop stop-color="#7873b2" offset="1"/></linearGradient><linearGradient id="u" gradientUnits="userSpaceOnUse" x1="75.61" x2="79.69" y1="343.98" y2="345.47"><stop stop-color="#68438e"/><stop stop-color="#f1eef9" offset=".679"/><stop stop-color="#e4d3ec" offset="1"/></linearGradient><linearGradient id="1X" gradientUnits="userSpaceOnUse" x1="76.81" x2="76.52"><stop stop-color="#3b215c"/><stop stop-color="#473783" offset=".709"/><stop stop-color="#473783" offset="1"/></linearGradient><linearGradient id="v" gradientUnits="userSpaceOnUse" x1="76.984" x2="76.37" y1="343.53" y2="343.02"><stop stop-color="#be9dd5"/><stop stop-color="#68438e" offset="1"/></linearGradient><linearGradient id="x" gradientUnits="userSpaceOnUse" x1="80.36" x2="77.894"><stop stop-color="#7e5bb3"/><stop stop-color="#cdafdd" offset=".614"/><stop stop-color="#be9dd5" offset=".896"/><stop stop-color="#be9dd5" offset="1"/></linearGradient><linearGradient id="w" gradientUnits="userSpaceOnUse" x1="79.04" x2="79.69" y1="343.69" y2="341.92"><stop stop-color="#a784c9"/><stop stop-color="#68438e" offset=".752"/><stop stop-color="#52346d" offset="1"/></linearGradient><linearGradient id="t" gradientUnits="userSpaceOnUse" x1="74.22" x2="74.52" y1="343.4" y2="343.76"><stop stop-color="#746fad"/><stop stop-color="#55528b" offset=".84"/><stop stop-color="#55528b" offset="1"/></linearGradient><linearGradient id="o" gradientUnits="userSpaceOnUse" x1="77.12" x2="79.18"><stop stop-color="#beaadb"/><stop stop-color="#e4dff2" offset=".455"/><stop stop-color="#cbbce3" offset="1"/></linearGradient><linearGradient id="s" gradientUnits="userSpaceOnUse" x1="76.25" x2="81.04"><stop stop-color="#7e5bb3"/><stop stop-color="#be9dd5" offset=".376"/><stop stop-color="#68438e" offset=".926"/><stop stop-color="#68438e" offset="1"/></linearGradient><linearGradient id="p" gradientUnits="userSpaceOnUse" x1="76.06" x2="76.3"><stop stop-color="#dfd1ec"/><stop stop-color="#b39bd4" offset="1"/></linearGradient><linearGradient id="r" gradientUnits="userSpaceOnUse" x1="76.905" x2="78.44"><stop stop-color="#beacdc"/><stop stop-color="#dcd1ec" offset=".152"/><stop stop-color="#f1eef9" offset=".727"/><stop stop-color="#f1eef9" offset="1"/></linearGradient><linearGradient id="q" gradientUnits="userSpaceOnUse" x1="76.58" x2="76.39" y1="344.35" y2="343.27"><stop stop-color="#cbc1e6"/><stop stop-color="#beaadb" offset="1"/></linearGradient><linearGradient id="y" gradientUnits="userSpaceOnUse" x1="76.02" x2="79.77"><stop stop-color="#beacdc"/><stop stop-color="#dad0ec" offset=".455"/><stop stop-color="#cbbce3" offset=".867"/><stop stop-color="#cbbce3" offset="1"/></linearGradient><linearGradient id="16" gradientUnits="userSpaceOnUse" x1="75.38" x2="75.8"><stop stop-color="#858acd"/><stop stop-color="#5c609f" offset=".736"/><stop stop-color="#5c609f" offset="1"/></linearGradient><linearGradient id="z" gradientUnits="userSpaceOnUse" x1="74.96" x2="75.66"><stop stop-color="#9ba1d9"/><stop stop-color="#5c609f" offset=".736"/><stop stop-color="#5c609f" offset="1"/></linearGradient><linearGradient id="17" gradientUnits="userSpaceOnUse" x1="76.29" x2="77.2" y1="345.93" y2="345.16"><stop stop-color="#b3caec"/><stop stop-color="#7684b3" offset=".988"/><stop stop-color="#7684b3" offset="1"/></linearGradient><linearGradient id="19" gradientUnits="userSpaceOnUse" x2="0" y1="342.63" y2="347.34"><stop stop-color="#8095bb"/><stop stop-color="#d8dbf1" offset=".736"/><stop stop-color="#a3beda" offset=".902"/><stop stop-color="#a3beda" offset="1"/></linearGradient><linearGradient id="18" gradientUnits="userSpaceOnUse" x1="75.869" x2="75.5" y1="342.75" y2="342.88"><stop stop-color="#7074b6"/><stop stop-color="#9ba1d9" offset="1"/></linearGradient><linearGradient id="15" gradientUnits="userSpaceOnUse" x2="0" y1="344.26" y2="346.59"><stop stop-color="#d1e0f4"/><stop stop-color="#b3d1ef" offset=".755"/><stop stop-color="#b3d1ef" offset="1"/></linearGradient><linearGradient id="10" gradientUnits="userSpaceOnUse" x1="72.801" x2="75.989" y1="345.21" y2="342.02"><stop stop-color="#7873b2"/><stop stop-color="#a7aedf" offset=".239"/><stop stop-color="#55528b" offset=".84"/><stop stop-color="#55528b" offset="1"/></linearGradient><linearGradient id="14" gradientUnits="userSpaceOnUse" x1="75.76" x2="75.07" xlink:href="#18"/><linearGradient id="11" gradientUnits="userSpaceOnUse" x1="73.66" x2="76.67" y1="345.25" y2="344.16"><stop stop-color="#9ba1d9"/><stop stop-color="#edf4fc" offset=".129"/><stop stop-color="#5c609f" offset=".736"/><stop stop-color="#5c609f" offset="1"/></linearGradient><linearGradient id="13" gradientUnits="userSpaceOnUse" x1="75.64" x2="74.67"><stop stop-color="#7074b6"/><stop stop-color="#a7aedf" offset="1"/></linearGradient><linearGradient id="12" gradientUnits="userSpaceOnUse" x1="74.64" x2="75.49" y1="344.58" y2="344.78" xlink:href="#z"/></defs><g transform="translate(344.67 632.31)"><g fill="#917ec6" fill-opacity=".69"><path d="m-274.1 7.742c0 2.648-2 4.937-4.794 4.937-5.01 0-6.655-5.796-17.818-5.796-8.229 0-14.311 5.152-14.311 12.809 0 19.893 42.862 10.376 42.862 40.859 0 14.955-10.877 28.551-30.555 28.551-11.95 0-25.19-4.58-25.19-10.877 0-3.077 1.574-5.725 4.723-5.725 3.793 0 9.159 6.941 20.608 6.941 11.521 0 18.533-8.372 18.533-18.39 0-21.467-42.934-11.02-42.934-40.644 0-10.519 9.875-23.18 26.619-23.18 11.234 0 22.254 4.651 22.254 10.519"/><path d="m-243.76 44.882h16.53c11.02 0 18.533-8.229 18.533-18.533 0-8.873-5.081-18.819-19.03-18.819h-16.03v37.35m0 38.21c0 3.649-2.147 5.939-5.581 5.939s-5.581-2.29-5.581-5.939v-79.07c0-3.435 1.789-6.082 5.939-6.082h22.11c18.18 0 29.338 12.666 29.338 28.408s-12.451 28.19-28.98 28.19h-17.245v28.551"/><path d="m-174.71 77.942h26.905c3.22 0 5.438 1.646 5.438 5.224 0 3.506-2.218 5.152-5.438 5.152h-32.13c-4.15 0-5.939-2.648-5.939-6.082v-78.21c0-3.363 1.789-6.082 5.939-6.082h32.13c3.22 0 5.438 1.646 5.438 5.224s-2.218 5.224-5.438 5.224h-26.905v29.553h24.472c3.22 0 5.51 1.646 5.51 5.224s-2.29 5.224-5.51 5.224h-24.472v29.553"/><path d="m-118.39 83.09c0 3.649-2.147 5.939-5.581 5.939s-5.581-2.29-5.581-5.939v-80c0-3.649 2.147-5.939 5.581-5.939s5.581 2.29 5.581 5.939v33.06l38.713-35.421c2.075-1.932 3.793-3.578 6.082-3.578 2.791 0 4.866 1.932 4.866 4.794 0 2.934-1 3.936-2.29 5.08l-37.07 33.417 40.501 39.07c1.717 1.646 2.29 2.934 2.29 4.58 0 2.648-2.433 4.937-5.51 4.937-1.646 0-3.148-.215-5.438-2.361l-42.15-41.43v37.853"/><path d="m-38.889 8.312h-16.887c-3.148 0-5.438-1.646-5.438-5.224 0-3.506 2.29-5.152 5.438-5.152h44.938c3.149 0 5.438 1.646 5.438 5.152 0 3.578-2.29 5.224-5.438 5.224h-16.887v74.78c0 3.649-2.147 5.939-5.581 5.939s-5.581-2.29-5.581-5.939v-74.78"/><path d="m15.921 39.732h15.242c11.664 0 16.744-4.937 16.744-16.601 0-8.444-6.583-15.528-17.03-15.528h-14.955v32.13m0 43.44c0 3.649-2.147 5.939-5.581 5.939s-5.581-2.29-5.581-5.939v-79.14c0-3.363 1.789-6.082 5.939-6.082h20.68c14.24 0 27.692 9.66 27.692 24.401 0 18.247-11.163 25.12-24.615 25.617l-4.794.143 28.766 31.628c1.574 1.646 2.147 3.01 2.147 5.081 0 2.433-2.218 4.293-5.01 4.293-2.29 0-3.864-1.145-5.081-2.504l-34.562-37.853v34.419"/><path d="m71.878 3.162c0-3.649 2.147-5.939 5.581-5.939s5.581 2.29 5.581 5.939v53.668c0 14.24 9.66 22.612 23.9 22.612 14.168 0 23.828-8.372 23.828-22.612v-53.668c0-3.649 2.147-5.939 5.581-5.939s5.581 2.29 5.581 5.939v49.37c0 30.483-19.535 36.565-34.991 36.565-15.528 0-35.06-6.082-35.06-36.565v-49.37"/><path d="m164.19 84.24c-.501 3.936-3.077 4.794-5.939 4.794-3.435 0-5.224-2.29-5.224-5.653 0-1.288.215-2.934.644-5.081l12.308-72.63c1.145-6.369 4.651-8.515 8.73-8.515 4.436 0 6.869 1.646 8.157 5.868l19.249 66.12h.286l19.32-66.12c1.216-4.222 3.649-5.868 8.09-5.868 4.079 0 7.657 2.147 8.802 8.515l12.308 72.63c.358 2.147.644 3.793.644 5.081 0 3.363-1.789 5.653-5.224 5.653-2.934 0-5.438-.859-6.01-4.794l-10.519-72.63h-.215l-21.61 72.916c-1.145 3.649-3.149 4.508-5.725 4.508-2.505 0-4.58-.859-5.725-4.508l-21.539-72.916h-.286l-10.519 72.63"/></g><g transform="matrix(71.5567 0 0-71.5567-5543.53 24225.03)" clip-path="url(#W)"><path fill="url(#1C)" d="m76.03 342.45c-.367.502-.672 1.549-.651 1.97.018.361.046.792-.166 1.421-.285.852-.55 1.214-.786 1.21-.03 0-.056-.012-.078-.033-.179-.102-.165-.741.126-1.785.205-.735.478-1.395.799-1.955.179-.311.483-.734.728-.885l.031-.006-.004.062"/></g><g transform="matrix(71.5567 0 0-71.5567-5543.53 24225.03)" clip-path="url(#Y)"><path fill="url(#12)" d="m74.5 345.25c-.317 1.137-.306 1.794-.074 1.798.236.004.501-.358.786-1.21.212-.629.184-1.06.166-1.421-.021-.421.284-1.468.651-1.97l.004-.062c-.245.151-.556.599-.734.91-.321.559-.594 1.219-.799 1.955"/></g><g transform="matrix(71.5567 0 0-71.5567-5543.53 24225.03)" clip-path="url(#a)"><path fill="url(#13)" d="m75.26 343.69c.179-.185.319-.384.386-.486-.034.089-.065.179-.093.269-.09.153-.248.407-.424.639-.144.19-.328.42-.456.578.088-.256.185-.501.289-.733.111-.094.233-.201.298-.267"/></g><g transform="matrix(71.5567 0 0-71.5567-5543.53 24225.03)" clip-path="url(#Z)"><path fill="url(#11)" d="m75.3 343.3c-.321.559-.594 1.219-.799 1.955-.277.993-.304 1.62-.151 1.766-.179-.102-.165-.741.126-1.785.205-.735.478-1.395.799-1.955.179-.311.483-.734.728-.885l.031-.006c-.245.151-.556.599-.734.91"/></g><g transform="matrix(71.5567 0 0-71.5567-5543.53 24225.03)" clip-path="url(#X)"><path fill="url(#z)" d="m75.66 343.16c-.005.015-.011.03-.016.044-.067.102-.207.301-.386.486-.065.066-.187.173-.298.267.037-.081.074-.161.112-.24.088-.05.205-.128.31-.233.124-.123.222-.247.278-.324"/></g><g transform="matrix(71.5567 0 0-71.5567-5543.53 24225.03)" clip-path="url(#V)"><path fill="url(#14)" d="m75.76 342.92c-.035.077-.068.158-.1.239-.056.077-.154.201-.278.324-.105.105-.222.183-.31.233.072-.146.146-.286.223-.42.027-.047.057-.097.089-.149.048-.024.099-.051.143-.075.07-.038.177-.112.233-.152"/></g><g transform="matrix(71.5567 0 0-71.5567-5543.53 24225.03)" clip-path="url(#Q)"><path fill="url(#16)" d="m75.8 342.84c-.012.025-.024.051-.036.078-.056.04-.163.114-.233.152-.044.024-.095.051-.143.075.042-.066.087-.135.135-.204.061-.022.132-.047.17-.062.039-.015.079-.029.107-.039"/></g><g transform="matrix(71.5567 0 0-71.5567-5543.53 24225.03)" clip-path="url(#S)"><path fill="url(#18)" d="m75.859 342.72c-.021.04-.042.081-.063.124-.028.001-.068.024-.107.039-.038.015-.109.04-.17.062.044-.064.091-.128.139-.189.019-.004.038-.007.052-.001.03-.005.104-.018.149-.026"/></g><g transform="matrix(71.5567 0 0-71.5567-5543.53 24225.03)" clip-path="url(#U)" fill="#b3caec"><path d="m0 0c-.189.279-.418.34-.645.242.002 0 .003 0 .005.002-.271-.103-.541-.435-.74-.896-.258-.601-.376-1.276-.367-2.121.004-.41.092-1.133.349-1.68l.018-.0001.043.03c-.097.692.036 1.081.182 1.483.05.137.248.487.451.541.372.099.593.459.796.906.152.335.187 1.091-.092 1.503" transform="translate(77.31 347.09)"/><path d="m0 0c.359.834.952 1.244 1.359.644.279-.412.244-1.169.092-1.503-.203-.448-.424-.807-.796-.906-.203-.054-.401-.405-.451-.541-.146-.402-.279-.792-.182-1.484l-.043-.029c-.257.547-.342 1.287-.346 1.698-.009.845.108 1.52.367 2.121" transform="translate(75.95 346.45)"/></g><g transform="matrix(71.5567 0 0-71.5567-5543.53 24225.03)" clip-path="url(#T)"><path fill="url(#19)" d="m75.95 346.45c.193.449.455.776.719.887-.271-.103-.541-.434-.74-.895-.258-.601-.376-1.276-.367-2.122.004-.41.092-1.132.349-1.679l.018-.011c-.257.547-.342 1.288-.346 1.699-.009.845.108 1.52.367 2.121"/></g><g transform="matrix(71.5567 0 0-71.5567-5543.53 24225.03)" clip-path="url(#R)"><path fill="url(#17)" d="m76.61 344.68c.372.099.593.458.796.906.073.161.119.422.116.694-.026.106-.065.225-.121.293-.092.111-.257.228-.473.075-.236-.168-.39-.541-.528-1.113-.103-.426-.129-.937-.135-1.187.088.143.215.298.345.332"/></g><g transform="matrix(71.5567 0 0-71.5567-5543.53 24225.03)" clip-path="url(#h)"><path fill="url(#15)" d="m76.73 346.46c-.075-.091-.257-.431-.373-.916-.104-.433-.141-1.046-.153-1.29.016.03.033.061.053.094.006.25.032.761.135 1.187.123.509.258.861.453 1.05-.038-.036-.08-.082-.115-.125"/></g><path fill="#b8d2f0" d="m-107.59-294.37c-.072-1.431-.143-2.791-.143-4.15-2-16.03-2.29-29.696-1.36-41.932-2.218-4.222-5.295-8.945-9.231-13.238-3.864-4.15-8.301-7.227-12.165-9.445 3.721 23.614 10.161 49.23 20.18 70.63l2.719-1.861"/><path fill="#bcd4f0" d="m-131.27-482.35c-2.791 21.04-4.079 43.721-3.792 68.34.072 7.8.572 17.245 1.574 27.692 4.15 2.218 9.159 5.438 13.381 10.09 6.655 7.227 10.734 15.599 12.88 20.966 2.791-16.887 7.8-31.06 13.02-45.51.215-.501.429-1 .644-1.574-3.01-10.09-8.515-26.762-17.603-46.798-6.583-14.526-14.1-25.617-20.11-33.2"/><g transform="matrix(71.5567 0 0-71.5567-5543.53 24225.03)" clip-path="url(#i)"><path fill="url(#y)" d="m78.02 346.15c.746.328 1.419.261 1.689-.464.203-.549-.1-1.518-.796-1.787-.285-.11-.707-.042-1.084.115-.202.085-.441.152-.798-.043-.377-.206-.743-.553-.951-1.142l-.058.007c.018.693.255 1.409.573 1.93.435.713.931 1.167 1.425 1.384"/></g><g transform="matrix(71.5567 0 0-71.5567-5543.53 24225.03)" clip-path="url(#j)"><path fill="url(#u)" d="m78.03 346.14c.57.25 1.098.27 1.435-.058-.336.344-.872.327-1.451.073-.494-.217-.99-.671-1.425-1.384-.318-.521-.555-1.237-.573-1.93l.016-.002c.021.689.256 1.399.573 1.917.435.713.93 1.167 1.425 1.384"/></g><g transform="matrix(71.5567 0 0-71.5567-5543.53 24225.03)" clip-path="url(#m)"><path fill="url(#q)" d="m76.16 343.36c.028-.014.091-.047.14-.073.146.232.322.409.509.545-.018.085-.057.205-.143.323-.077.105-.173.172-.257.214-.136-.295-.243-.626-.307-.966.023-.02.045-.036.058-.043"/></g><g transform="matrix(71.5567 0 0-71.5567-5543.53 24225.03)" clip-path="url(#n)"><path fill="url(#p)" d="m76.13 343.18c.022-.041.036-.081.045-.115.038.08.08.155.124.225-.049.026-.112.059-.14.073-.013.007-.035.023-.058.043-.009-.047-.016-.093-.023-.139.017-.027.037-.059.052-.087"/></g><path fill="#dfd1ec" d="m-98.64-309.68c1.789-4.794 3.721-9.445 5.796-13.81-.644-2.361-1.646-5.295-3.22-8.229-1.073-2-2.504-4.293-3.721-6.225-1.288 8.229-2.147 16.458-2.576 24.687l3.721 3.578"/><g transform="matrix(71.5567 0 0-71.5567-5543.53 24225.03)" clip-path="url(#l)"><path fill="url(#o)" d="m79.11 344.71c.086.21.161.554-.182.663-.365.116-1.111-.522-1.301-.712-.134-.135-.376-.462-.506-.644.308.139.524.076.709 0 .208-.086.429-.146.634-.164.148.119.461.409.646.858"/></g><g transform="matrix(71.5567 0 0-71.5567-5543.53 24225.03)" clip-path="url(#k)"><path fill="url(#r)" d="m77.33 344.42c-.172-.193-.338-.409-.422-.521.041.027.083.051.124.074.031.017.06.031.089.044.13.182.372.509.506.644.124.124.483.437.819.609-.249-.098-.8-.496-1.116-.85"/></g><g transform="matrix(71.5567 0 0-71.5567-5543.53 24225.03)" clip-path="url(#d)"><g clip-path="url(#U)"><use fill="url(#s)" xlink:href="#0"/></g></g><g transform="matrix(71.5567 0 0-71.5567-5543.53 24225.03)" clip-path="url(#c)"><path fill="url(#w)" d="m80.28 343.04c-.323.224-.777.33-1.292.361-.386.023-.876-.083-1.099-.137.094-.035.174-.081.232-.136.076-.072.215-.296.323-.431.336-.419.602-.547.95-.63.55-.131 1.07.051 1.372.452-.111.161-.287.384-.486.521"/></g><g transform="matrix(71.5567 0 0-71.5567-5543.53 24225.03)" clip-path="url(#e)"><path fill="url(#x)" d="m79.02 343.38c.516-.031.969-.137 1.292-.361.017-.011.033-.023.049-.035-.026.021-.053.042-.08.06-.323.224-.777.33-1.292.361-.386.023-.876-.083-1.099-.137.017-.006.034-.013.05-.02.231.055.705.154 1.08.132"/></g><g transform="matrix(71.5567 0 0-71.5567-5543.53 24225.03)" clip-path="url(#g)"><path fill="url(#v)" d="m76.919 343.44c-.003.076-.03.167-.052.23-.184-.179-.347-.368-.485-.558.006-.037.012-.074.015-.09.004-.015.001-.035.017-.054.163.12.333.207.5.266.005.053.001.127.005.206"/></g><path fill="#68438e" d="m-84.4-309.61c2.934-2.505 5.868-4.866 8.802-7.01-.501-1.36-.93-2.862-1.145-3.864-.286-1.216-.716-3.864-1.073-6.44-1.646 2.218-3.292 4.508-4.794 6.726 0 1.503-.072 3.292-.358 4.723-.286 1.503-.93 3.864-1.431 5.868"/><path fill="#8f6eb2" d="m-84.47-309.54s.072-.072.072-.072c.501-2 1.145-4.365 1.431-5.868.286-1.431.358-3.22.358-4.723-1.717 2.576-3.363 5.08-5.01 7.514l3.148 3.149"/><g transform="matrix(71.5567 0 0-71.5567-5543.53 24225.03)" clip-path="url(#f)"><g clip-path="url(#U)"><use fill="url(#t)" xlink:href="#0"/></g></g><g transform="matrix(71.5567 0 0-71.5567-5543.53 24225.03)" clip-path="url(#b)"><g clip-path="url(#U)"><use fill="url(#10)" xlink:href="#0"/></g></g><g transform="matrix(71.5567 0 0-71.5567-5543.53 24225.03)" clip-path="url(#2)"><path fill="url(#1A)" d="m75.39 342.65s.102-.013.157-.022c.071-.001.137-.033.137-.033l.085-.056s-.054.007-.104.005c-.041-.002-.079-.013-.079-.013l-.196.119"/></g><g transform="matrix(71.5567 0 0-71.5567-5543.53 24225.03)" clip-path="url(#7)"><path fill="url(#1Q)" d="m80.44 342.36c-.484.696-1.328.94-2.079.945-.692.004-1.467-.264-1.887-.507v-.046l.022-.016c.331.065.611.048.836-.022.359-.123.581-.38.635-.64.048-.232.041-.48.029-.65-.029-.419.017-.702.299-1.021.514-.582 1.364-.497 1.886-.033.554.492.758 1.273.258 1.99"/></g><g transform="matrix(71.5567 0 0-71.5567-5543.53 24225.03)" clip-path="url(#9)"><path fill="url(#1R)" d="m80.44 342.36c-.484.696-1.328.94-2.079.945-.017 0-.033 0-.049 0 .056-.131.129-.355.102-.6-.028-.259-.082-.392-.154-.498.539-.116 1.057-.382 1.397-.871.269-.386.334-.791.251-1.158.098.053.19.118.274.193.554.492.758 1.273.258 1.99"/></g><g transform="matrix(71.5567 0 0-71.5567-5543.53 24225.03)" clip-path="url(#B)"><path fill="url(#1P)" d="m76.48 342.75l.022-.016c.333.065.616.048.842-.024-.233.082-.524.107-.864.04"/></g><g transform="matrix(71.5567 0 0-71.5567-5543.53 24225.03)" clip-path="url(#A)"><path fill="url(#1N)" d="m79.66 341.33c-.34.489-.858.755-1.397.871-.04-.06-.087-.112-.138-.173-.026-.031-.078-.066-.132-.098.023-.188.016-.375.007-.511-.029-.419.017-.702.299-1.021.431-.489 1.099-.507 1.612-.226.083.367.018.772-.251 1.158"/></g><g transform="matrix(71.5567 0 0-71.5567-5543.53 24225.03)" clip-path="url(#8)"><path fill="url(#1S)" d="m78.13 342.03c.14.168.248.265.292.671.027.245-.046.469-.102.6-.128 0-.259-.012-.389-.029-.047-.077-.119-.181-.21-.273-.107-.107-.29-.213-.412-.277.378-.119.612-.383.667-.651.009-.046.017-.093.022-.139.054.032.106.067.132.098"/></g><g transform="matrix(71.5567 0 0-71.5567-5543.53 24225.03)" clip-path="url(#6)"><path fill="url(#1U)" d="m77.09 343.06c-.017-.042-.043-.095-.102-.164-.033-.039-.075-.081-.111-.116.159 0 .304-.025.431-.065.122.064.305.17.412.277.091.092.163.196.21.273-.292-.04-.582-.115-.84-.205"/></g><g transform="matrix(71.5567 0 0-71.5567-5543.53 24225.03)" clip-path="url(#1)"><path fill="url(#1W)" d="m76.986 342.9c.059.069.085.122.102.164-.096-.034-.188-.069-.273-.106-.025-.028-.059-.063-.1-.1-.026-.024-.07-.06-.111-.092.095.013.185.019.271.018.036.035.078.077.111.116"/></g><g transform="matrix(71.5567 0 0-71.5567-5543.53 24225.03)" clip-path="url(#3)"><path fill="url(#1X)" d="m76.68 342.9c-.019-.023-.044-.05-.066-.073-.02-.02-.06-.049-.093-.072.027.005.055.001.081.013.041.032.085.068.111.092.041.037.075.072.1.1-.046-.02-.09-.04-.133-.06"/></g><g transform="matrix(71.5567 0 0-71.5567-5543.53 24225.03)" clip-path="url(#5)"><path fill="url(#1V)" d="m80.19 340.39c-.522-.464-1.372-.55-1.886.033-.234.264-.305.5-.307.811 0-.32.069-.563.307-.832.514-.582 1.364-.497 1.886-.033.338.3.545.708.543 1.143-.003-.427-.21-.827-.543-1.122"/></g><g transform="matrix(71.5567 0 0-71.5567-5543.53 24225.03)" clip-path="url(#4)"><path fill="url(#1T)" d="m78.39 342.12c-.491.357-1.381.47-1.8.454l-.027-.042.002-.018c.302-.058.477-.206.548-.375.066-.157.053-.33-.029-.464-.131-.218-.44-.438-.552-.52-.442-.323-.608-.618-.608-.98 0-.484.466-.735 1.044-.716.603.02 1.625.354 1.939 1.279.176.517 0 1.01-.517 1.382"/></g><g transform="matrix(71.5567 0 0-71.5567-5543.53 24225.03)" clip-path="url(#C)"><path fill="url(#1T)" d="m78.905 340.74c-.314-.925-1.336-1.259-1.939-1.279-.578-.019-1.044.232-1.044.716 0 .362.166.657.608.98.112.082.421.302.552.52.174.287.036.752-.521.857l.027.042c.419.016 1.309-.097 1.8-.454.516-.374.693-.865.517-1.382"/></g><g transform="matrix(71.5567 0 0-71.5567-5543.53 24225.03)" clip-path="url(#E)"><path fill="url(#1O)" d="m77.21 342.42c.096.019.176.048.236.074-.331.069-.651.092-.857.084l-.027-.042c.142-.027.257-.077.346-.142.08 0 .189.003.302.026"/></g><g transform="matrix(71.5567 0 0-71.5567-5543.53 24225.03)" clip-path="url(#J)"><path fill="url(#1M)" d="m77.51 340.84c-.052.42-.281.773-.393.923-.001-.027-.023-.054-.039-.079-.131-.218-.44-.438-.552-.52-.442-.323-.608-.618-.608-.98 0-.484.466-.735 1.044-.716.172.006.377.037.59.1.005.329.004.895-.042 1.272"/></g><g transform="matrix(71.5567 0 0-71.5567-5543.53 24225.03)" clip-path="url(#L)"><path fill="url(#1E)" d="m76.56 342.54l.002-.018c.302-.058.477-.206.548-.375-.075.179-.253.337-.55.393"/></g><path fill="#442583" d="m52.27-264.53c-16.03-8.444-35.28-14.383-54.1-18.247-4.293 1.861-10.02 3.936-16.887 5.295-8.09 1.646-15.957 1.932-21.61 1.861 3.578 2.576 6.583 5.51 9.02 8.658 10.233 1.789 26.19 4.079 40.573 4.15 10.59.072 28.766-.859 43.01-1.717"/><g transform="matrix(71.5567 0 0-71.5567-5543.53 24225.03)" clip-path="url(#O)"><path fill="url(#1F)" d="m78.915 341.46c-.083.244-.259.47-.527.664-.057.042-.12.08-.187.115-.198-.012-.453-.025-.6-.024-.202 0-.425.034-.567.058.124-.157.148-.353.087-.515.03-.04.069-.096.111-.164.195-.07.507-.162.852-.185.331-.022.652.02.831.051"/></g><g transform="matrix(71.5567 0 0-71.5567-5543.53 24225.03)" clip-path="url(#M)"><path fill="url(#1D)" d="m78.915 341.46c-.179-.031-.5-.073-.831-.051-.244.016-.471.067-.652.12-.017-.006-.035-.012-.053-.016-.027-.007-.059-.013-.09-.017.096-.175.193-.406.225-.661.016-.136.027-.297.034-.462.141-.075.323-.142.552-.174.168-.023.355-.009.512.022.124.148.225.321.293.521.085.249.087.491.001.718"/></g><path fill="#30205a" d="m-2.755-213.73c-5.367-1.574-10.233-3.22-14.311-4.651 1.36 2.147 2.719 4.508 4.079 7.01 2.218-.286 4.508-.644 6.512-1.216 1.288-.286 2.505-.716 3.721-1.145"/><g transform="matrix(71.5567 0 0-71.5567-5543.53 24225.03)" clip-path="url(#N)"><path fill="url(#1B)" d="m77.51 340.84c-.052.42-.281.773-.393.923-.006-.015-.005-.012-.012-.027.115-.158.331-.508.381-.914.045-.369.053-.927.049-1.259.001.003.007.002.017.005.005.329.004.895-.042 1.272"/></g><g transform="matrix(71.5567 0 0-71.5567-5543.53 24225.03)" clip-path="url(#K)"><path fill="url(#1G)" d="m78.927 341.42c.056-.208.046-.428-.03-.653-.315-.925-1.337-1.259-1.939-1.279-.494-.016-.905.165-1.015.519.096-.373.516-.564 1.023-.548.603.02 1.625.354 1.939 1.279.08.236.087.466.022.682"/></g><g transform="matrix(71.5567 0 0-71.5567-5543.53 24225.03)" clip-path="url(#I)"><path fill="url(#1I)" d="m76.51 342.35l-.044-.002v-.027c.037-.043.054-.078.057-.108-.013-.112-.207-.169-.416-.194-.151-.018-.473-.009-.651.013-.366.046-.679.092-.981.094-.47.003-1.078-.046-1.063-.318.017-.304 1.076-.591 1.729-.638.544-.039 1.673-.052 1.969.346.234.315-.229.654-.6.834"/></g><g transform="matrix(71.5567 0 0-71.5567-5543.53 24225.03)" clip-path="url(#D)"><path fill="url(#1I)" d="m75.14 341.17c-.653.047-1.712.334-1.729.638-.015.272.593.321 1.063.318.302-.002.615-.048.981-.094.178-.022.5-.031.651-.013.281.034.535.125.359.329l.044.002c.371-.18.834-.519.6-.834-.296-.398-1.425-.385-1.969-.346"/></g><path fill="#29163e" d="m-72.02-272.55v2c2.648 3.01 3.936 5.581 4.079 7.728.358-2.791-.859-6.01-4.079-9.732"/><g transform="matrix(71.5567 0 0-71.5567-5543.53 24225.03)" clip-path="url(#F)"><path fill="url(#1K)" d="m76.44 341.7c-.098.135-.165.262-.206.347-.023-.004-.046-.008-.07-.012.019-.089.054-.245.094-.385.045-.16.118-.328.167-.434.16.027.309.066.431.121-.118.082-.322.233-.416.363"/></g><g transform="matrix(71.5567 0 0-71.5567-5543.53 24225.03)" clip-path="url(#H)"><path fill="url(#1L)" d="m76.07 341.58c-.033.151.02.352.047.44-.003 0-.005 0-.008 0-.015-.002-.032-.003-.05-.005-.057-.081-.179-.267-.225-.463-.037-.153-.03-.3-.017-.397.132.003.268.011.401.025-.045.081-.108.22-.148.401"/></g><g transform="matrix(71.5567 0 0-71.5567-5543.53 24225.03)" clip-path="url(#P)"><path fill="url(#1J)" d="m77.11 341.52c.051.068.069.138.062.206-.034.006-.07.014-.101.024-.104.033-.352.141-.352.141s.098-.225.165-.311c.05-.064.099-.112.14-.147.033.026.062.055.086.087"/></g><g transform="matrix(71.5567 0 0-71.5567-5543.53 24225.03)" clip-path="url(#G)"><path fill="url(#1H)" d="m77.17 341.74c.006-.064-.012-.131-.063-.198-.299-.395-1.425-.385-1.969-.346-.639.047-1.665.322-1.726.618v-.006c.017-.304 1.076-.591 1.729-.638.544-.039 1.673-.052 1.969.346.055.074.072.15.06.224"/></g></g></svg>