<?xml version="1.0" encoding="UTF-8" standalone="no"?>
<svg xmlns:rdf="http://www.w3.org/1999/02/22-rdf-syntax-ns#" xmlns="http://www.w3.org/2000/svg" height="178.17" width="600" version="1.1" xmlns:cc="http://creativecommons.org/ns#" xmlns:dc="http://purl.org/dc/elements/1.1/" viewBox="0 0 158.75 47.142053">
 <g transform="translate(50.833 -158.76)">
  <g fill="#fff">
   <path d="m-50.833 196.89v-0.05c0-4.99 3.88-9.07 9.187-9.07 3.159 0 5.063 0.86 6.887 2.41l-2.427 2.93c-1.358-1.13-2.556-1.78-4.585-1.78-2.801 0-5.034 2.48-5.034 5.46v0.05c0 3.2 2.205 5.55 5.313 5.55 1.403 0 2.653-0.34 3.63-1.04v-2.51h-3.88v-3.33h7.608v7.61c-1.802 1.53-4.279 2.78-7.483 2.78-5.461 0-9.216-3.83-9.216-9.01"/>
   <path d="m-31.652 188.08h13.222v3.43h-9.392v3.55h8.261v3.44h-8.261v3.68h9.517v3.42h-13.347"/>
   <path d="m-16.634 203.05 2.278-2.72c1.574 1.3 3.227 2.12 5.2329 2.12 1.5795 0 2.5284-0.62 2.5284-1.65v-0.05c0-0.98-0.6023-1.48-3.5343-2.23-3.528-0.9-5.807-1.88-5.807-5.36v-0.05c0-3.18 2.557-5.28 6.1368-5.28 2.5511 0 4.7272 0.8 6.5113 2.23l-2.0057 2.9c-1.5511-1.07-3.0795-1.73-4.5568-1.73-1.4776 0-2.2556 0.68-2.2556 1.53v0.05c0 1.15 0.756 1.53 3.784 2.3 3.5569 0.93 5.5569 2.21 5.5569 5.27v0.04c0 3.48-2.6535 5.44-6.4319 5.44-2.653 0-5.335-0.93-7.437-2.81"/>
   <path d="m35.866 205.6h3.863v-17.52h-3.863z"/>
   <path d="m51.303 202.35c-3.006 0-5.085-2.51-5.085-5.51v-0.05c0-3 2.13-5.46 5.085-5.46 1.75 0 3.131 0.75 4.483 1.98l2.455-2.83c-1.631-1.6-3.608-2.71-6.91-2.71-5.386 0-9.142 4.09-9.142 9.07v0.05c0 5.03 3.83 9.01 8.989 9.01 3.381 0 5.386-1.2 7.188-3.13l-2.455-2.47c-1.375 1.25-2.602 2.05-4.608 2.05"/>
   <path d="m71.792 195.01h-7.108v-6.93h-3.858v17.52h3.858v-7.03h7.108v7.03h3.858v-17.52h-3.858"/>
   <path d="m-1.1459 196.89v-0.05c0-4.99 3.7557-9.07 9.1421-9.07 3.3008 0 5.2788 1.11 6.9088 2.71l-2.454 2.83c-1.353-1.23-2.7332-1.98-4.4832-1.98-2.9546 0-5.0852 2.46-5.0852 5.46v0.05c0 3 2.0795 5.51 5.0852 5.51 2 0 3.2332-0.8 4.6082-2.05l2.454 2.48c-1.807 1.92-3.807 3.12-7.1872 3.12-5.1591 0-8.9887-3.98-8.9887-9.01"/>
   <path d="m17.076 188.08h3.852v6.93h7.114v-6.93h3.858v17.52h-3.858v-7.03h-7.114v7.03h-3.852"/>
   <path d="m77.928 191.63h5.335v13.97h3.853v-13.97h5.335v-3.55h-14.523"/>
   <path d="m98.405 198.5h8.265v-3.44h-8.265v-3.55h9.385v-3.43h-13.214v17.52h13.344v-3.42h-9.515"/>
  </g>
  <path d="m30.252 158.76h-80.193v23.48h80.193z" fill="#de3b10"/>
  <g stroke-width="1.3631">
   <path d="m-41.577 169.49h1.692v-3.28h-1.692z"/>
   <path d="m-39.885 173.12h-1.692v2.71h1.692z"/>
   <path d="m-35.629 165.32v2.88h1.691v-1.99h-0.564v-2.05c-0.27-0.22-0.604-0.34-0.98-0.34h-1.692c0.852 0 1.545 0.64 1.545 1.5"/>
   <path d="m-33.938 175.83v-6.34h-1.691v7.19c0 0.83-0.675 1.51-1.527 1.51h1.692c0.374 0 0.715-0.14 0.98-0.37v-1.99z"/>
   <path d="m-30.542 169.49h1.691v-3.28h-1.691z"/>
   <path d="m-30.542 175.83h1.063v2.36h1.692v-2.36h-1.064v-3.94h-1.691z"/>
   <path d="m-23.513 164.07c-0.247-0.17-0.541-0.26-0.857-0.26h-1.692c0.852 0 1.527 0.68 1.527 1.52v4.99c0 0.85-0.675 1.56-1.527 1.56h1.692c0.85 0 1.526-0.71 1.526-1.56v-4.11h-0.669z"/>
   <path d="m-17.96 175.83v-9.62h0.382v-2.39h-1.01v2.39h-1.063v9.62h1.063v2.36h1.01v-2.36z"/>
   <path d="m-13.769 169.49h1.691v-3.28h-1.691z"/>
   <path d="m-6.5845 168.2v-2.84c0-0.46 0.2058-0.88 0.5289-1.16v-0.38h-1.6916v4.38z"/>
   <path d="m-7.7322 169.49h-1.6916v2.4h1.6916z"/>
   <path d="m-13.769 175.83h1.691v-3.94h-1.691z"/>
   <path d="m-6.5845 176.68v-3.56h-1.1627v5.07h1.6916v-0.41c-0.3176-0.26-0.5289-0.67-0.5289-1.1"/>
   <path d="m2.1448 165.36v2.84h1.6916v-1.99h-0.4703v-1.97c-0.2753-0.25-0.6447-0.43-1.0564-0.43h-1.6916c0.8519 0 1.5267 0.69 1.5267 1.55"/>
   <path d="m-3.861 166.21v9.62h1.6916v-3.94h-0.7811v-2.4h0.7811v-3.28z"/>
   <path d="m3.8568 175.83v-6.34h-1.6916v8.7h1.2036v-2.36z"/>
   <path d="m7.1732 175.83h1.6903v-3.94h-1.6903z"/>
   <path d="m7.1732 169.49h1.6903v-3.28h-1.6903z"/>
   <path d="m14.89 175.83v-2.71h-1.692v5.07h1.122v-2.36z"/>
   <path d="m13.21 169.49h-1.691v2.4h1.691z"/>
   <path d="m14.89 168.2v-1.99h-0.552v-2.39h-1.14v4.38z"/>
   <path d="m18.24 166.21v9.62h1.692v-9.62h1.198v-2.4h-1.692v2.4z"/>
   <path d="m24.186 178.18h1.692v-5.06h-1.692z"/>
  </g>
  <g stroke-width="1.3631" fill="#fff">
   <path d="m-35.629 176.68v-7.19h-5.949v-3.28h3.112v1.99h2.837v-2.88c0-0.84-0.693-1.51-1.545-1.51h-5.661c-0.828 0-1.521 0.69-1.521 1.52v6.55h5.89v3.95h-3.112v-2.71h-2.778v3.5c0 0.85 0.693 1.57 1.544 1.57h5.656c0.852 0 1.527-0.68 1.527-1.51"/>
   <path d="m-28.851 169.49h-1.691v-3.28h3.207v3.28zm4.317 0.83v-4.99c0-0.84-0.676-1.52-1.526-1.52h-8.439v2.4h1.12v9.62h-1.103v2.36h5.003v-2.36h-1.063v-3.94h4.482c0.85 0 1.526-0.72 1.526-1.57"/>
   <path d="m-19.65 175.83v-9.62h1.063v-2.39h-4.927v2.39h1.081v9.62h-1.081v2.36h4.927v-2.36z"/>
   <path d="m-8.8159 173.12h-1.6921v2.71h-3.265v-3.95h4.3464v-2.39h-4.3464v-3.28h3.265v1.99h2.7608v-4.39h-9.8308v2.4h1.046v9.62h-1.046v2.36h9.8308v-5.07z"/>
   <path d="m-1.2616 169.49h-1.6916v2.4h2.2954v3.94h-3.2005v-9.62h3.1065v1.99h2.8952v-2.84c0-0.84-0.6747-1.55-1.5267-1.55h-5.6732c-0.3871 0-0.7333 0.15-0.9978 0.38-0.323 0.29-0.5288 0.71-0.5288 1.17v11.32c0 0.45 0.2112 0.83 0.5288 1.11 0.2822 0.24 0.6462 0.4 1.0333 0.4h7.1821v-8.7z"/>
   <path d="m12.127 173.12h-1.692v2.71h-3.2645v-3.95h4.3455v-2.39h-4.3455v-3.28h3.2645v1.99h2.76v-4.39h-9.8303v2.4h1.0455v9.62h-1.0455v2.36h9.8303v-5.07z"/>
   <path d="m23.138 173.12h-1.69v2.71h-3.208v-9.62h1.198v-2.4h-5.098v2.4h1.081v9.62h-1.104v2.36h9.873v-5.07z"/>
  </g>
 </g>
</svg>
