<svg xmlns="http://www.w3.org/2000/svg" height="65.737" width="600" viewBox="0 0 158.75 17.3928"><defs><linearGradient id="0" gradientUnits="userSpaceOnUse" x1="84.65" x2="92.17"><stop stop-color="#9a999b"/><stop stop-color="#ededee" offset="1"/></linearGradient></defs><g transform="translate(-5.292-139.38)"><path d="m84.65 156.77h79.39v-17.39h-79.39z" fill="#ededee"/><path fill="url(#0)" d="m84.65 139.39v17.38h7.518v-17.38z"/><g><path d="m5.292 156.77h79.37v-17.39h-79.37z" fill="#de3b10"/><g fill="#fff"><path d="m71.832 144.89h-2.482v8.46h-2.386v-8.46h-2.572v-2.08h7.599z"/><path d="m77.908 153.35h-2.702c-1.18-3.52-2.214-7.06-3.02-10.54h2.516c.603 2.97 1.331 5.85 1.969 8.09.762-2.71 1.43-5.41 1.939-8.09h2.322c-.81 3.64-1.827 7.15-3.02 10.54"/></g></g><g fill="#2a2321"><path d="m11.5 146.97h1.241v-2.41h-1.241z"/><path d="m12.741 149.63h-1.241v1.99h1.241z"/><path d="m15.863 143.91v2.11h1.241v-1.46h-.414v-1.5c-.198-.16-.443-.25-.719-.25h-1.241c.625 0 1.133.47 1.133 1.1"/><path d="m17.1 151.62v-4.65h-1.241v5.27c0 .61-.495 1.11-1.12 1.11h1.241c.275 0 .525-.1.719-.27v-1.46z"/><path d="m19.595 146.97h1.241v-2.41h-1.241z"/><path d="m19.595 151.62h.78v1.73h1.241v-1.73h-.78v-2.89h-1.241z"/><path d="m24.752 142.99c-.181-.12-.397-.19-.629-.19h-1.241c.625 0 1.12.5 1.12 1.12v3.66c0 .62-.495 1.14-1.12 1.14h1.241c.624 0 1.12-.52 1.12-1.14v-3.02h-.491z"/><path d="m28.826 151.62v-7.06h.28v-1.75h-.741v1.75h-.78v7.06h.78v1.73h.741v-1.73z"/><path d="m31.9 146.97h1.241v-2.41h-1.241z"/><path d="m37.17 146.02v-2.08c0-.34.151-.65.388-.85v-.28h-1.241v3.21z"/><path d="m36.33 146.97h-1.241v1.76h1.241z"/><path d="m31.9 151.62h1.241v-2.89h-1.241z"/><path d="m37.17 152.24v-2.61h-.853v3.72h1.241v-.3c-.233-.19-.388-.49-.388-.81"/><path d="m43.575 143.94v2.08h1.241v-1.46h-.345v-1.44c-.202-.19-.473-.32-.775-.32h-1.241c.625 0 1.12.51 1.12 1.14"/><path d="m39.17 144.56v7.06h1.241v-2.89h-.573v-1.76h.573v-2.41z"/><path d="m44.831 151.62v-4.65h-1.241v6.38h.883v-1.73z"/><path d="m47.26 151.62h1.24v-2.89h-1.24z"/><path d="m47.26 146.97h1.24v-2.41h-1.24z"/><path d="m52.925 151.62v-1.99h-1.241v3.72h.823v-1.73z"/><path d="m51.693 146.97h-1.241v1.76h1.241z"/><path d="m52.925 146.02v-1.46h-.405v-1.75h-.836v3.21z"/><path d="m55.38 144.56v7.06h1.241v-7.06h.879v-1.76h-1.241v1.76z"/><path d="m59.745 153.34h1.241v-3.71h-1.241z"/></g><g fill="#fff"><path d="m15.863 152.24v-5.27h-4.364v-2.41h2.283v1.46h2.081v-2.11c0-.62-.508-1.11-1.133-1.11h-4.153c-.608 0-1.116.51-1.116 1.12v4.8h4.321v2.9h-2.283v-1.99h-2.038v2.57c0 .62.508 1.15 1.133 1.15h4.149c.625 0 1.12-.5 1.12-1.11"/><path d="m20.836 146.97h-1.241v-2.41h2.353v2.41zm3.167.61v-3.66c0-.62-.496-1.12-1.12-1.12h-6.191v1.76h.822v7.06h-.809v1.73h3.67v-1.73h-.78v-2.89h3.288c.624 0 1.12-.53 1.12-1.15"/><path d="m27.586 151.62v-7.06h.78v-1.75h-3.615v1.75h.793v7.06h-.793v1.73h3.615v-1.73z"/><path d="m35.534 149.63h-1.241v1.99h-2.396v-2.9h3.189v-1.75h-3.189v-2.41h2.396v1.46h2.025v-3.22h-7.212v1.76h.767v7.06h-.767v1.73h7.212v-3.72z"/><path d="m41.08 146.97h-1.241v1.76h1.684v2.89h-2.348v-7.06h2.279v1.46h2.124v-2.08c0-.62-.495-1.14-1.12-1.14h-4.162c-.284 0-.538.11-.732.28-.237.21-.388.52-.388.86v8.3c0 .33.155.61.388.82.207.17.474.29.758.29h5.269v-6.38z"/><path d="m50.898 149.63h-1.241v1.99h-2.395v-2.9h3.188v-1.75h-3.188v-2.41h2.395v1.46h2.025v-3.22h-7.212v1.76h.767v7.06h-.767v1.73h7.212v-3.72z"/><path d="m58.976 149.63h-1.24v1.99h-2.353v-7.06h.879v-1.76h-3.74v1.76h.793v7.06h-.81v1.73h7.243v-3.72z"/></g><g fill="#2a2321"><path d="m93.67 142.85h2.464l2.167 7.08 2.345-7.11h1.97l2.35 7.11 2.16-7.08h2.41l-3.57 10.53h-2l-2.36-6.84-2.366 6.84h-1.999z"/><path d="m111.34 142.85h2.3v10.46h-2.3z"/><path d="m115.54 151.78l1.36-1.63c.94.78 1.93 1.27 3.12 1.27.94 0 1.51-.37 1.51-.98v-.03c0-.59-.36-.89-2.11-1.33-2.1-.54-3.46-1.12-3.46-3.2v-.03c0-1.9 1.52-3.15 3.66-3.15 1.52 0 2.82.48 3.88 1.33l-1.19 1.73c-.93-.64-1.84-1.03-2.72-1.03s-1.35.4-1.35.91v.03c0 .69.45.91 2.26 1.38 2.12.55 3.32 1.31 3.32 3.13v.03c0 2.08-1.59 3.24-3.84 3.24-1.59 0-3.19-.55-4.44-1.67"/><path d="m124.95 151.78l1.36-1.63c.94.78 1.93 1.27 3.12 1.27.94 0 1.51-.37 1.51-.98v-.03c0-.59-.36-.89-2.1-1.33-2.11-.54-3.47-1.12-3.47-3.2v-.03c0-1.9 1.52-3.15 3.66-3.15 1.52 0 2.82.48 3.88 1.33l-1.19 1.73c-.93-.64-1.84-1.03-2.72-1.03s-1.34.4-1.34.91v.03c0 .69.44.91 2.25 1.38 2.12.55 3.32 1.31 3.32 3.13v.03c0 2.08-1.59 3.24-3.84 3.24-1.59 0-3.19-.55-4.44-1.67"/><path d="m135.23 142.85h7.89v2.04h-5.61v2.12h4.93v2.05h-4.93v2.2h5.68v2.04h-7.96z"/><path d="m145.23 142.85h2.12l4.91 6.43v-6.43h2.27v10.45h-1.96l-5.07-6.64v6.64h-2.27z"/></g></g></svg>