<svg xmlns="http://www.w3.org/2000/svg" viewBox="0 0 600 99.2"><g fill="#212d34"><path d="m0 0l.327 1.219h4.332c.205 0 .396.167.425.373.014.102-.015.204-.081.279-.06.069-.142.107-.232.107h-2.771c-.425 0-.795.162-1.041.455-.247.294-.342.687-.266 1.108.172.963.984 1.573 1.852 1.573h4.53l-.326-1.219h-4.392c-.19 0-.364-.153-.423-.372-.023-.089-.005-.178.051-.252.06-.078.155-.124.253-.124h2.786c.426 0 .795-.162 1.041-.457.245-.294.33-.688.26-1.112-.158-.951-.896-1.578-1.869-1.578h-4.456" transform="matrix(11.73799 0 0-11.73799 0 80.17)"/><path d="m0 0c-1.52 0-2.152-.786-2.569-2.346l-.743-2.768h1.318l.736 2.768c.156.584.531 1.127 1.258 1.127h1.549l.321 1.219h-1.87" transform="matrix(11.73799 0 0-11.73799 273.21 20.13)"/><path d="m0 0h-2.039l.459 1.715h-1.317l-1.83-6.829h1.317l1.043 3.896h2.041l.326 1.218" transform="matrix(11.73799 0 0-11.73799 340.6 20.13)"/><path d="m0 0l-.191-.714c-.135-.502-.58-.942-1.2-.942h-2.474l.717 2.676h2.44c.867 0 .771-.791.708-1.02m-.708 2.239h-2.113-1.318l-1.805-6.736h1.318l.435 1.622h2.8c1.203 0 2.119.759 2.413 1.845l.192.714c.291 1.08-.009 2.555-1.922 2.555" transform="matrix(11.73799 0 0-11.73799 140.41 46.41)"/><path d="m0 0l-.191-.714c-.135-.502-.58-.942-1.2-.942h-1.88c-.867 0-.771.79-.708 1.02l.191.714c.134.502.6.942 1.2.942h1.879c.868 0 .772-.791.709-1.02m-.709 2.239h-1.879c-1.127 0-2.119-.759-2.414-1.846l-.191-.714c-.292-1.08-.022-2.554 1.922-2.554h1.88c1.203 0 2.119.759 2.413 1.845l.192.714c.291 1.08-.009 2.555-1.923 2.555" transform="matrix(11.73799 0 0-11.73799 221.58 46.41)"/></g><g fill="#ffb400"><path d="m0 0c-.336-1.016-1.293-1.714-2.374-1.714l-.311-1.219h1.466l-1.045-3.895h1.745l1.854 6.828c0 0-1.335 0-1.335 0" transform="matrix(11.73799 0 0-11.73799 374.52.012)"/><path d="m0 0h-1.952l.522 1.948h-1.317l-.523-1.948h-1.937l-.327-1.218h1.938l-.522-1.948h1.318l.522 1.948h1.952l.326 1.218" transform="matrix(11.73799 0 0-11.73799 447.35 42.996)"/></g><g fill="#9c9c9b"><path d="m0 0l-.522-1.948h-3.068l.522 1.948h-1.318l-1.37-5.114h1.318l.521 1.948h3.068l-.521-1.948h1.318l1.37 5.114h-1.318" transform="matrix(11.73799 0 0-11.73799 512.69 20.14)"/><path d="m0 0l-.191-.714c-.135-.502-.58-.942-1.2-.942h-2.479l.718 2.676h2.443c.868 0 .772-.791.709-1.02m-.709 2.239h-3.435l-1.37-5.114h4.123c1.203 0 2.119.759 2.413 1.845l.192.714c.292 1.08-.009 2.555-1.923 2.555" transform="matrix(11.73799 0 0-11.73799 584.62 46.41)"/></g></svg>