<svg xmlns="http://www.w3.org/2000/svg" viewBox="0 0 600 114.97"><defs><clipPath id="0"><path d="m453.13 280.65c0 0-2.835 0-2.835-2.835v-14.296c0 0 0-2.835 2.835-2.835h57.725c0 0 2.834 0 2.834 2.835v14.296c0 0 0 2.835-2.834 2.835h-57.725"/></clipPath></defs><g transform="translate(-82.86 187.98)"><g clip-path="url(#0)" transform="matrix(15.1103 0 0-15.1103-7033.66 3954.97)"><path d="m0 0h-1.831l-.774-5.384h1.103l.107.991h.997l.107-.991h1.111l-.82 5.384m-10.475-3.379h-.682l.275 2.368h.086l.321-2.368m.555 3.379h-1.831l-.774-5.384h1.103l.107.991h.997l.108-.991h1.11l-.82 5.384m-16.571-4.37h-.725v3.357h.725v-3.357m1.199 3.589l-.866.781h-1.421l-.835-.781v-3.822l.835-.781h1.475l.812.781v3.822m22.03.781h-1.199v-5.384h1.199v5.384m-2.164 0h-1.057v-2.787l-.958 2.787h-1.057v-5.384h1.057v2.947l.966-2.947h1.049v5.384m-7.733 0h-1.486l-.433-2.736h-.078l-.463 2.736h-1.486v-5.384h1.026v3.612h.054l.659-3.612h.468l.659 3.612h.054v-3.612h1.026v5.384m-4.754 0h-2.821v-1.014h.778v-4.37h1.265v4.37h.778v1.014m-3.473-.716l-.785.716h-2.234v-5.384h1.134v2.213h.79v-2.213h1.161v2.213l-.702.525.636.518v1.412m-1.095-1.507h-.79v1.209h.79v-1.209m-6.69 1.442l-.85.781h-2.157v-5.384h1.134v1.832h1.023l.85.759v2.01m-1.21-1.757h-.663v1.524h.663v-1.524m-4.857 2.538l-.827-.781v-1.615l.881-.78.969-.068v-1.126h-.716v.713h-1.134v-.946l.82-.781h1.402l.828.781v1.637l-.866.781-1.05.075v1.096h.716v-.721h1.134v.954l-.823.781h-1.334m34.677-3.379h-.682l.276 2.368h.085l.321-2.368m2.795-3.106h-39.708v7.609h39.708v-7.609" fill="#d50037" fill-rule="evenodd" transform="translate(508.44 273.06)"/></g></g></svg>