<svg xmlns="http://www.w3.org/2000/svg" viewBox="0 0 600 90.6"><defs><clipPath id="0"><path d="m953.52 307.34h-50.02v-7.554h50.02v7.554"/></clipPath></defs><g transform="translate(-50-487.06)"><g fill="#212d34"><path d="m0 0l.292 1.09h3.872c.184 0 .354.149.38.333.013.091-.013.182-.072.249-.053.062-.127.096-.208.096h-2.477c-.38 0-.71.144-.93.407-.22.262-.305.614-.238.99.154.861.88 1.406 1.656 1.406h4.049l-.292-1.089h-3.925c-.17 0-.326-.138-.378-.334-.021-.078-.005-.158.045-.224.054-.07.139-.111.226-.111h2.49c.381 0 .712-.146.931-.408.219-.264.295-.616.233-.995-.142-.85-.802-1.41-1.671-1.41h-3.983" transform="matrix(11.994 0 0-11.994 50 560.27)"/><path d="m0 0c-1.359 0-1.924-.703-2.296-2.097l-.664-2.474h1.178l.657 2.474c.14.522.475 1.01 1.125 1.01h1.385l.286 1.089h-1.671" transform="matrix(11.994 0 0-11.994 299.54 505.45)"/><path d="m0 0h-1.823l.411 1.533h-1.178l-1.636-6.104h1.178l.932 3.482h1.825l.291 1.089" transform="matrix(11.994 0 0-11.994 361.09 505.45)"/><path d="m0 0h-1.888-1.178l-1.613-6.02h1.178l.388 1.45h2.503c1.075 0 1.894.678 2.157 1.649l.171.639c.261.965-.007 2.283-1.718 2.283m.633-2l-.171-.638c-.12-.449-.518-.843-1.072-.843h-2.211l.641 2.393h2.18c.776 0 .689-.707.633-.912" transform="matrix(11.994 0 0-11.994 170.65 505.45)"/><path d="m0 0h-1.68c-1.01 0-1.894-.678-2.157-1.65l-.171-.638c-.261-.965-.02-2.283 1.718-2.283h1.68c1.075 0 1.894.678 2.157 1.649l.171.639c.261.965-.007 2.283-1.718 2.283m.634-2l-.171-.638c-.121-.449-.519-.843-1.073-.843h-1.68c-.775 0-.689.707-.634.912l.171.638c.121.449.537.843 1.073.843h1.68c.776 0 .69-.707.634-.912" transform="matrix(11.994 0 0-11.994 244.77 505.45)"/></g><path d="m0 0c-.3-.908-1.156-1.532-2.122-1.532l-.278-1.089h1.311l-.935-3.482h1.56l1.657 6.103c0 0-1.193 0-1.193 0" fill="#ffb400" transform="matrix(11.994 0 0-11.994 392.07 487.07)"/><path d="m0 0l.189.705h2.148c.119 0 .229.097.246.216.008.06-.009.118-.047.162-.034.04-.082.062-.134.062h-1.147c-.247 0-.461.093-.603.263-.142.17-.198.398-.154.642.1.557.57.91 1.072.91h2.105l-.189-.705h-2.025c-.11 0-.211-.089-.244-.216-.014-.051-.004-.103.029-.146.035-.045.09-.072.147-.072h1.155c.246 0 .461-.093.603-.264.142-.17.191-.398.15-.644-.091-.55-.519-.913-1.082-.913h-2.219" fill="#fff" transform="matrix(11.994 0 0-11.994 494.91 557.13)"/><g fill="#233289"><path d="m0 0h-2.436c-.651 0-1.207-.471-1.323-1.12-.057-.319-.254-1.134-.254-1.134l-.05-.189-.496-.547-1.364-.479h4.136c.685 0 1.221.453 1.333 1.126.054.323-.02.625-.206.849-.105.125-.237.22-.388.28h.723l.05.188.275 1.026m-.332-.254l-.189-.706h-2.024c-.11 0-.211-.088-.245-.216-.014-.051-.003-.102.03-.145.035-.045.089-.072.146-.072h1.156c.246 0 .46-.094.602-.264.142-.171.192-.399.151-.644-.092-.551-.519-.913-1.082-.913h-2.219l.189.705h2.147c.119 0 .23.097.246.216.009.059-.008.118-.046.161-.035.04-.082.062-.135.062h-1.147c-.246 0-.46.094-.602.264-.143.17-.198.398-.155.641.1.557.57.911 1.073.911h2.104" transform="matrix(11.994 0 0-11.994 542.95 518.58)"/><path d="m0 0h-.957l-.048-.192-.377-1.476-.063-.234c-.047-.177-.205-.357-.448-.357h-.849c-.045 0-.123.006-.151.042-.037.048-.032.163-.014.227l.052.193.484 1.797h-2.674l-.682 1.584-.441-1.584h-1.828l1.552-1.073-.461-1.725 1.414 1.067 1.19-.805-.325 1.456.795.407-.27-1c-.133-.491-.062-.981.19-1.31.171-.223.512-.489 1.169-.489h.786c.791 0 1.498.493 1.705 1.256l.497 1.898.084.319h-.33" transform="matrix(11.994 0 0-11.994 498.48 518.62)"/></g><g fill="#fff"><path d="m0 0l-.377-1.476-.063-.237c-.078-.29-.398-.546-.757-.546h-.787c-.502 0-.446.458-.41.591l.052.192.398 1.476h-.752l-.4-1.485c-.169-.625-.013-1.479 1.112-1.479h.787c.696 0 1.289.44 1.459 1.068l.497 1.896h-.759" transform="matrix(11.994 0 0-11.994 489.38 521.68)"/><path d="m0 0l-.497-1.896c-.17-.628-.7-1.068-1.396-1.068h-.849c-1.126 0-1.282.854-1.113 1.479l.4 1.485h.752l-.398-1.476-.052-.192c-.036-.133-.092-.591.411-.591h.849c.358 0 .616.256.694.546l.063.237.377 1.476h.759" transform="matrix(11.994 0 0-11.994 498.48 521.68)"/><path d="m0 0l.466-1.081h1.792l-1.471-.694.248-1.069-.841.604-.991-.748.318 1.191-1.035.716h1.213l.301 1.081" transform="matrix(11.994 0 0-11.994 430.4 508.65)"/></g><path d="m0 0l-.354-1.321h-2.081l.354 1.321h-.894l-.93-3.469h.894l.354 1.321h2.082l-.355-1.321h.895l.929 3.469h-.894" fill="#9c9c9b" transform="matrix(11.994 0 0-11.994 589.49 518.67)"/><g clip-path="url(#0)" transform="matrix(11.994 0 0-11.994-10786.57 4173.27)"><path d="m0 0h-2.33l-.93-3.469h2.797c.816 0 1.437.515 1.637 1.252l.13.484c.198.733-.006 1.733-1.304 1.733m.481-1.518l-.13-.485c-.091-.341-.393-.639-.814-.639h-1.681l.486 1.815h1.658c.589 0 .523-.536.481-.691" fill="#9c9c9b" transform="translate(952.15 304.7)"/></g></g></svg>