<svg xmlns="http://www.w3.org/2000/svg" viewBox="0 0 600 285.94"><g transform="translate(217.15-251.41)"><g fill="#0f80cc"><path d="m53.858 369.65l26.22-118.24h131.22v25.24h-109.13l-13.33 57.45c17.241-8.887 34.13-13.375 50.789-13.375 26.17 0 48.745 9.642 67.763 28.927 18.974 19.373 28.438 42.35 28.438 69.05 0 27.372-9.509 50.567-28.66 69.63-19.15 19.02-42.39 28.571-69.72 28.571-18.17 0-34.926-4.355-50.21-13.06-15.33-8.71-27.416-20.75-36.35-36.26-6.709-11.33-11.197-25.99-13.686-43.95h28.394c2.533 20.262 9.909 36.21 23.11 48.745 13.197 12.575 29.549 19.15 48.17 19.15 19.15 0 35.1-7.509 48.789-21.64 12.442-12.93 20.973-31.46 20.973-50.833 0-20.262-7.687-37.858-20.08-50.789-13.242-13.819-31.01-22.04-50.52-22.04-22.22 0-41.768 9.331-58.698 31.726l-23.464-8.31"/><path d="m136.15 370.67c25.15 0 45.501 21.595 45.501 48.21 0 26.661-20.351 48.26-45.501 48.26s-45.501-21.595-45.501-48.26c0-26.616 20.351-48.21 45.501-48.21"/></g><path d="m-217.15 445.01h24.13c0 7.509 2.088 13.73 6.31 18.574 4.177 4.932 9.42 7.376 15.73 7.376 5.999 0 10.886-1.866 14.752-5.554 3.866-3.644 5.776-8.309 5.776-14.04 0-5.02-1.377-9.242-4.088-12.708-2.755-3.466-7.154-6.399-13.197-8.842l-8.798-3.333c-10.09-3.821-16.574-6.843-19.329-9.109-5.066-4.04-8.843-8.665-11.286-13.819-2.444-5.11-3.599-11.06-3.599-17.818 0-11.553 3.999-21.417 12.13-29.593 8.04-8.09 17.952-12.175 29.593-12.175 12.22 0 21.862 3.599 29.06 10.709 7.198 7.154 11.11 17.15 11.82 30.04h-24.661c-.444-5.288-2.177-9.376-5.199-12.308-3.02-2.977-7.07-4.443-12.175-4.443-4.577 0-8.398 1.6-11.464 4.755-3.066 3.155-4.577 7.07-4.577 11.731 0 7.954 6.887 14.486 20.707 19.551l9.198 3.555c10.886 4.399 18.663 9.865 23.284 16.485 4.666 6.532 6.932 15.286 6.932 26.305 0 12.797-4.31 23.461-12.93 31.904-8.665 8.443-19.596 12.708-32.704 12.708-13.242 0-23.95-4.488-32.04-13.375-8.131-8.887-12.575-21.06-13.375-36.57m132.06-26.08c0 14.13 4.71 26.13 14.175 36.08 9.465 9.953 20.751 14.93 33.904 14.93 13.419 0 24.883-4.799 34.481-14.352 9.642-9.553 14.397-21.15 14.397-34.792 0-14.486-4.755-26.572-14.263-36.35-9.509-9.776-21.11-14.663-34.881-14.663-12.619 0-23.728 4.932-33.37 14.752-9.642 9.776-14.441 21.284-14.441 34.392m.755 55.05v63.36h-25.683v-188.85h25.95v17.507c6.532-6.71 13.908-11.864 21.995-15.33 8.09-3.51 16.707-5.288 25.861-5.288 21.506 0 39.37 7.154 53.588 21.373 14.175 14.308 21.24 32.21 21.24 53.721 0 9.953-1.777 19.418-5.332 28.438-3.51 8.976-8.62 16.974-15.285 23.995-7.198 7.509-15.02 13.06-23.506 16.619-8.576 3.599-18.263 5.421-29.15 5.421-9.687 0-18.618-1.777-26.927-5.288-8.22-3.466-15.819-8.709-22.75-15.685m354.37 17.196h-25.683v-142.68h24.13v16.485c4.266-6.31 9.109-10.975 14.619-14.04 5.465-3.066 11.864-4.666 19.11-4.755v26.838c-11.509.889-19.729 4.266-24.706 10.176-4.977 5.954-7.465 15.463-7.465 28.616v79.36zm67.05 0v-119.35h-20.22v-23.328h20.22v-46.17h25.55v46.17h20.22v23.328h-20.22v119.35h-25.55"/></g></svg>