<svg xmlns="http://www.w3.org/2000/svg" viewBox="0 0 600 533.83"><defs><clipPath id="1"><path d="m238.17 253.56h12.575v10.925h-12.575v-10.925"/></clipPath><clipPath><path d="m241.56 260.82c-.692-.693-1.073-1.612-1.073-2.591 0-.084.003-.167.008-.25l.707.003c-.07.837.215 1.698.856 2.339.578.578 1.335.867 2.092.867s1.515-.289 2.093-.867c.073-.073.141-.149.204-.227l-.003.992c-.648.523-1.449.806-2.294.806-.978 0-1.898-.381-2.59-1.072"/></clipPath><clipPath id="0"><path d="m238.17 253.56h11.961v10.642h-11.961v-10.642"/></clipPath><linearGradient id="3" gradientUnits="userSpaceOnUse" x2="0"><stop stop-color="#fff"/><stop stop-color="#facc09" offset="1"/></linearGradient><linearGradient id="2" gradientUnits="userSpaceOnUse" x2="0"><stop stop-color="#e2e2e0"/><stop stop-color="#fff" offset=".356"/><stop stop-color="#fff" offset="1"/></linearGradient><linearGradient id="4" gradientUnits="userSpaceOnUse" x2="0"><stop stop-color="#e2e2e0"/><stop stop-color="#e2e2e0" offset="1"/></linearGradient></defs><g transform="translate(-50-265.44)"><g clip-path="url(#1)" transform="matrix(50.163 0 0-50.163-11897 13519)"><path d="m0 0c0 .006-.002.011-.003.016l.458.07c0-.003 0-.005 0-.008l-.456-.078" fill="#fde47b" transform="translate(243.38 257.05)"/><path d="m0 0c0 .006-.002.011-.002.017l.458.06c0-.002 0-.005 0-.008l-.457-.069" fill="#fde47c" transform="translate(243.38 257.06)"/><path d="m0 0c0 .005-.002.011-.003.016l.456.078c0-.002 0-.005.002-.007l-.455-.087" fill="#fde378" transform="translate(243.38 257.03)"/><path d="m0 0c0 .005 0 .011-.002.017l.461.043c0-.002 0-.005 0-.008l-.46-.052" fill="#fde581" transform="translate(243.37 257.09)"/><path d="m0 0c0 .005 0 .011-.002.016l.46.053c0-.003 0-.005 0-.008l-.459-.061" fill="#fde57f" transform="translate(243.37 257.08)"/><path d="m0 0c0 .005-.003.011-.004.016l.449.112c0-.003 0-.005.002-.008l-.447-.12" fill="#fde16f" transform="translate(243.4 256.96)"/><path d="m0 0c0 .005-.002.011-.003.016l.454.087c0-.003 0-.005.002-.008l-.453-.095" fill="#fde376" transform="translate(243.38 257.01)"/><path d="m0 0c0 .005-.003.011-.004.016l.451.104c0-.003 0-.006.002-.008l-.449-.112" fill="#fde272" transform="translate(243.39 256.98)"/><path d="m0 0l-.462.025c0 .005 0 .011 0 .016l.462-.033c0-.003 0-.005 0-.008" fill="#fde996" transform="translate(243.83 257.22)"/><path d="m0 0c0 .005-.002.011-.004.016l.453.095c0-.003.002-.005.002-.008l-.451-.103" fill="#fde273" transform="translate(243.39 257)"/><path d="m0 0l-.462.016c0 .006 0 .011 0 .017l.461-.025v-.008" fill="#fde994" transform="translate(243.83 257.21)"/><path d="m0 0l-.462.008v.016l.462-.016v-.008" fill="#fde891" transform="translate(243.83 257.2)"/><path d="m0 0c-.002.005-.003.011-.005.016l.445.128c0-.002 0-.005.002-.007l-.442-.137" fill="#fde06b" transform="translate(243.41 256.93)"/><path d="m0 0v.017l.463-.008c0-.003 0-.005 0-.008h-.462" fill="#fde88f" transform="translate(243.37 257.19)"/><path d="m0 0v.017l.462.009v-.008l-.462-.018" fill="#fde78b" transform="translate(243.37 257.16)"/><path d="m0 0c0 .006 0 .011 0 .017l.462.026v-.008l-.461-.035" fill="#fde685" transform="translate(243.37 257.13)"/><path d="m0 0c0 .006 0 .011 0 .017l.462.018c0-.003 0-.006 0-.008l-.462-.027" fill="#fde688" transform="translate(243.37 257.14)"/><path d="m0 0c0 .006 0 .011 0 .017l.461.035c0-.003 0-.005 0-.008l-.461-.044" fill="#fde584" transform="translate(243.37 257.11)"/><path d="m0 0v.017h.462v-.007l-.462-.001" fill="#fde78d" transform="translate(243.37 257.18)"/><path d="m0 0c-.002.005-.003.011-.005.016l.447.12c0-.003.002-.005.002-.008l-.444-.128" fill="#fde16c" transform="translate(243.4 256.95)"/><path d="m0 0c-.003.005-.006.009-.009.014l.391.246.004-.007-.386-.253" fill="#fcda4a" transform="translate(243.51 256.71)"/><path d="m0 0c-.003.005-.006.009-.009.014l.386.253.004-.007-.381-.26" fill="#fcd947" transform="translate(243.52 256.69)"/><path d="m0 0c-.002.005-.003.011-.005.016l.442.137c0-.003.002-.006.002-.008l-.439-.145" fill="#fde068" transform="translate(243.41 256.92)"/><path d="m0 0c-.003.004-.007.009-.001.014l.381.26.005-.007-.376-.267" fill="#fcd945" transform="translate(243.53 256.68)"/><path d="m0 0c-.003.005-.006.001-.009.014l.4.231.004-.006-.395-.239" fill="#fcdb4e" transform="translate(243.49 256.74)"/><path d="m0 0l-.461.033c0 .006 0 .012 0 .017l.461-.042c0-.003 0-.005 0-.008" fill="#fdea99" transform="translate(243.83 257.23)"/><path d="m0 0c-.004.004-.007.009-.001.013l.365.281.005-.006-.36-.288" fill="#fcd73e" transform="translate(243.56 256.64)"/><path d="m0 0c-.003.004-.007.009-.001.013l.376.268.005-.007-.371-.274" fill="#fcd843" transform="translate(243.54 256.67)"/><path d="m0 0c-.003.005-.006.001-.008.014l.404.224.004-.007-.4-.231" fill="#fcdb50" transform="translate(243.49 256.75)"/><path d="m0 0c-.003.004-.007.009-.001.013l.371.274.005-.006-.366-.281" fill="#fcd840" transform="translate(243.55 256.65)"/><path d="m0 0c-.003.005-.006.001-.009.014l.396.239.004-.007-.391-.246" fill="#fcda4b" transform="translate(243.5 256.72)"/><path d="m0 0c-.002.005-.004.0001-.006.016l.434.161c0-.003.002-.005.002-.008l-.43-.169" fill="#fcdf62" transform="translate(243.43 256.87)"/><path d="m0 0l-.005.006-.006.007.36.288.004-.005.002-.002-.355-.294" fill="#fcd73c" transform="translate(243.57 256.63)"/><path d="m0 0l-.006.015.43.17.003-.008-.427-.177" fill="#fcde5f" transform="translate(243.43 256.85)"/><path d="m0 0c-.003.005-.005.001-.008.015l.408.216c.002-.003.003-.005.004-.007l-.404-.224" fill="#fcdb52" transform="translate(243.48 256.76)"/><path d="m0 0c-.002.005-.004.0001-.005.016l.439.145c0-.003.002-.005.003-.008l-.437-.153" fill="#fcdf66" transform="translate(243.42 256.9)"/><path d="m0 0c-.002.005-.004.0001-.006.016l.437.153c0-.003.002-.005.003-.008l-.434-.161" fill="#fcdf64" transform="translate(243.42 256.89)"/><path d="m0 0c-.003.005-.005.001-.007.015l.416.201.004-.007-.413-.209" fill="#fcdc57" transform="translate(243.46 256.79)"/><path d="m0 0c-.003.005-.005.0001-.008.015l.413.208c0-.002.002-.005.003-.007l-.408-.216" fill="#fcdc54" transform="translate(243.47 256.78)"/><path d="m0 0c-.002.005-.005.0001-.007.015l.42.193c0-.003.002-.005.003-.007l-.416-.201" fill="#fcdd59" transform="translate(243.45 256.81)"/><path d="m0 0c-.002.005-.004.001-.007.015l.428.178.003-.008-.424-.185" fill="#fcde5d" transform="translate(243.44 256.84)"/><path d="m0 0l-.384.25c.003.004.006.009.009.014l.38-.257-.005-.007" fill="#fef7da" transform="translate(243.9 257.43)"/><path d="m0 0l-.374.264c.003.004.006.009.001.013l.369-.27-.005-.007" fill="#fef8df" transform="translate(243.91 257.44)"/><path d="m0 0l-.38.257c.004.004.007.009.001.013l.375-.264-.005-.006" fill="#fef7dc" transform="translate(243.9 257.44)"/><path d="m0 0l-.364.278c.004.004.007.008.001.013l.359-.285-.005-.006" fill="#fff9e3" transform="translate(243.92 257.46)"/><path d="m0 0l-.407.213c.003.005.005.001.008.015l.403-.221-.004-.007" fill="#fef5cd" transform="translate(243.88 257.39)"/><path d="m0 0l-.46.042c0 .006 0 .011.002.017l.459-.051c0-.003 0-.005 0-.008" fill="#fdea9b" transform="translate(243.83 257.24)"/><path d="m0 0l-.398.228c.002.005.005.001.008.014l.394-.235-.004-.007" fill="#fef6d2" transform="translate(243.89 257.41)"/><path d="m0 0l-.403.221c.003.005.006.009.009.014l.398-.228-.004-.007" fill="#fef5d0" transform="translate(243.88 257.4)"/><path d="m0 0l-.389.243c.003.005.006.009.009.014l.384-.25-.004-.007" fill="#fef7d7" transform="translate(243.89 257.42)"/><path d="m0 0l-.394.236c.003.004.006.009.009.014l.389-.243-.004-.007" fill="#fef6d5" transform="translate(243.89 257.42)"/><path d="m0 0l-.358.284c.003.005.007.009.001.013l.353-.291-.005-.006" fill="#fffae5" transform="translate(243.92 257.46)"/><path d="m0 0l-.317.328c.004.004.008.007.012.011l.311-.334-.006-.005" fill="#fffdf7" transform="translate(243.96 257.5)"/><path d="m0 0l-.311.334c.004.003.009.007.013.011l.304-.34-.006-.005" fill="#fffefa" transform="translate(243.97 257.51)"/><path d="m0 0l-.353.291c.004.004.007.008.011.012l.347-.297-.005-.006" fill="#fffae8" transform="translate(243.93 257.47)"/><path d="m0 0l-.323.322c.004.004.008.007.012.011l.317-.327-.006-.006" fill="#fffdf5" transform="translate(243.96 257.5)"/><path d="m0 0l-.304.339c.004.004.008.008.013.011l.297-.345-.006-.005" fill="#fffefc" transform="translate(243.97 257.51)"/><path d="m0 0l-.347.297c.003.004.007.009.011.013l.341-.304-.005-.006" fill="#fffbeb" transform="translate(243.93 257.47)"/><path d="m0 0l-.341.304c.003.004.007.008.011.012l.336-.31-.006-.006" fill="#fffbed" transform="translate(243.94 257.48)"/><path d="m0 0l-.329.316c.003.004.007.008.011.012l.324-.322-.006-.006" fill="#fffcf2" transform="translate(243.95 257.49)"/><path d="m0 0l-.336.31.012.012.33-.316-.006-.006" fill="#fffcf0" transform="translate(243.94 257.49)"/><path d="m0 0l-.369.271c.003.004.006.009.001.013l.364-.278-.005-.006" fill="#fff9e0" transform="translate(243.91 257.45)"/><path d="m0 0l-.443.126c0 .006.003.011.004.016l.441-.134c0-.003 0-.005-.002-.008" fill="#feefb2" transform="translate(243.85 257.31)"/><path d="m0 0l-.454.085c0 .005.002.0001.004.016l.452-.093c0-.003-.002-.005-.002-.008" fill="#feeda7" transform="translate(243.84 257.27)"/><path d="m0 0l-.452.093c0 .006.002.011.004.016l.45-.101c0-.003 0-.005-.002-.008" fill="#feeda9" transform="translate(243.84 257.28)"/><path d="m0 0l-.448.11c0 .005.003.0001.004.016l.446-.118c0-.003 0-.005-.002-.008" fill="#feeeae" transform="translate(243.84 257.3)"/><path d="m0 0l-.446.118c.002.005.003.011.005.016l.443-.126c0-.003 0-.005-.002-.008" fill="#feeeb0" transform="translate(243.84 257.31)"/><path d="m0 0l-.45.101c0 .006.002.011.004.017l.448-.11c0-.003 0-.005-.002-.008" fill="#feeeab" transform="translate(243.84 257.29)"/><path d="m0 0l-.459.051c0 .005 0 .011.002.016l.458-.059c0-.003 0-.005 0-.008" fill="#fdeb9d" transform="translate(243.83 257.24)"/><path d="m0 0l-.458.059c0 .006 0 .011.002.017l.457-.068c0-.003 0-.005 0-.008" fill="#fdeba0" transform="translate(243.83 257.25)"/><path d="m0 0l-.456.076c0 .006.002.011.004.016l.453-.084c0-.003 0-.005 0-.008" fill="#feeca5" transform="translate(243.83 257.27)"/><path d="m0 0l-.457.068c0 .005.002.011.003.016l.455-.076c0-.003 0-.005 0-.008" fill="#feeca2" transform="translate(243.83 257.26)"/><path d="m0 0l-.422.183c.002.005.004.001.007.015l.418-.191-.003-.007" fill="#fef3c4" transform="translate(243.86 257.37)"/><path d="m0 0l-.419.19c.003.005.005.001.008.015l.415-.198c-.002-.002-.003-.004-.004-.007" fill="#fef3c6" transform="translate(243.87 257.37)"/><path d="m0 0l-.411.206c.003.005.005.001.008.015l.407-.214-.004-.007" fill="#fef4ca" transform="translate(243.88 257.39)"/><path d="m0 0l-.415.198c.002.005.005.001.008.015l.411-.206c-.002-.002-.003-.004-.004-.007" fill="#fef4c9" transform="translate(243.87 257.38)"/><path d="m0 0l-.426.175c.002.005.005.001.007.015l.422-.183-.003-.007" fill="#fef2c1" transform="translate(243.86 257.36)"/><path d="m0 0l-.435.151c.002.005.004.001.005.015l.433-.159-.003-.007" fill="#fef1ba" transform="translate(243.85 257.34)"/><path d="m0 0l-.441.135c.002.005.003.0001.005.015l.438-.142c0-.003 0-.005-.002-.008" fill="#feefb5" transform="translate(243.85 257.32)"/><path d="m0 0l-.438.143c.002.005.003.0001.005.015l.436-.15c0-.003-.002-.005-.003-.008" fill="#fef0b7" transform="translate(243.85 257.33)"/><path d="m0 0l-.429.167.006.015.426-.175-.003-.007" fill="#fef2bf" transform="translate(243.86 257.35)"/><path d="m0 0l-.432.159.006.015.429-.166c0-.003-.002-.005-.003-.008" fill="#fef1bc" transform="translate(243.86 257.34)"/><path d="m0 0c-.002.005-.005.0001-.007.015l.424.185c0-.002.002-.005.003-.007l-.42-.193" fill="#fcdd5b" transform="translate(243.45 256.82)"/><path d="m0 0c-.004.004-.007.008-.011.013l.355.294.005-.006-.349-.301" fill="#fcd73a" transform="translate(243.58 256.61)"/><path d="m0 0c-.004.003-.009.007-.013.001l.292.355.007-.005-.286-.36" fill="#fbd225" transform="translate(243.71 256.5)"/><path d="m0 0c-.005.003-.009.006-.014.009l.265.376.006-.005-.257-.38" fill="#fbd11c" transform="translate(243.76 256.46)"/><path d="m0 0c-.005.003-.009.007-.013.001l.285.36.007-.005-.279-.365" fill="#fbd223" transform="translate(243.72 256.49)"/><path d="m0 0c-.005.003-.009.007-.013.001l.278.365.007-.004-.272-.371" fill="#fbd220" transform="translate(243.73 256.48)"/><path d="m0 0c-.005.003-.009.006-.014.009l.257.38.007-.004-.25-.385" fill="#fbd01b" transform="translate(243.77 256.45)"/><path d="m0 0c-.005.003-.009.006-.014.001l.272.37.007-.005-.265-.375" fill="#fbd11f" transform="translate(243.75 256.47)"/><path d="m0 0c-.004.004-.009.007-.013.011l.299.349.006-.005-.292-.355" fill="#fbd327" transform="translate(243.69 256.51)"/><path d="m0 0l-.012.012.331.32.006-.006-.325-.326" fill="#fcd532" transform="translate(243.63 256.57)"/><path d="m0 0c-.004.004-.008.008-.011.012l.343.308.005-.006-.337-.314" fill="#fcd636" transform="translate(243.61 256.59)"/><path d="m0 0l-.012.012.338.314.005-.006-.331-.32" fill="#fcd534" transform="translate(243.62 256.58)"/><path d="m0 0l-.012.012.325.326.006-.006-.319-.332" fill="#fcd42f" transform="translate(243.64 256.55)"/><path d="m0 0c-.004.004-.008.007-.012.011l.312.338.006-.006-.306-.343" fill="#fbd42b" transform="translate(243.67 256.53)"/><path d="m0 0c-.004.004-.008.007-.013.011l.306.343.006-.005-.299-.349" fill="#fbd329" transform="translate(243.68 256.52)"/><path d="m0 0c-.004.004-.008.008-.012.011l.318.332.006-.005-.312-.338" fill="#fbd42d" transform="translate(243.65 256.54)"/><path d="m0 0c-.004.004-.007.008-.011.012l.349.301.005-.006-.343-.307" fill="#fcd638" transform="translate(243.6 256.6)"/><path d="m0 0l-.244.102-.006-.006-.007-.004-.006-.005-.007-.005-.007-.004-.007-.004-.007-.005-.007-.004-.007-.004c-.002 0-.005-.002-.007-.003l-.008-.004-.007-.004c-.002 0-.005-.002-.007-.003-.003 0-.005-.002-.008-.003-.002 0-.005-.003-.007-.003-.003-.002-.006-.002-.008-.003-.003 0-.005-.002-.008-.003-.002 0-.005-.002-.007-.003-.003 0-.006-.002-.008-.002-.003 0-.005-.002-.008-.003s-.005 0-.008-.002-.005 0-.008-.002c-.002 0-.005 0-.008-.002-.002 0-.005 0-.008-.002-.002 0-.005 0-.008 0-.002 0-.005 0-.008-.002-.003 0-.005 0-.008 0-.003 0-.005 0-.008 0-.003 0-.005 0-.008 0-.003 0-.005 0-.008 0s-.006 0-.008 0c-.003 0-.006 0-.009 0h-.008-.008-.008-.008-.008-.009c-.002 0-.005 0-.008 0h-.008c-.002 0-.005 0-.008 0s-.005 0-.008 0-.005 0-.008 0-.005 0-.008.002c-.003 0-.005 0-.008 0-.003 0-.006 0-.008 0-.003 0-.006.002-.008.002-.003 0-.005 0-.008.002-.003 0-.005 0-.008.002-.003 0-.005 0-.008.002-.002 0-.005 0-.008.002-.002 0-.005.002-.008.003-.002 0-.005 0-.007.002-.003 0-.005.002-.008.003-.002 0-.005.002-.008.003-.002 0-.005.002-.007.003-.003 0-.005.002-.008.003-.002 0-.005.002-.007.003s-.005.002-.007.004l-.008.003-.007.004-.007.004-.007.003-.007.005-.007.004-.007.004-.25-.385c.005-.003.009-.006.014-.009s.0001-.005.015-.008c.004-.003.009-.006.014-.009.005-.002.0001-.005.015-.008.005-.002.0001-.005.015-.007.005-.003.0001-.006.015-.008s.0001-.005.015-.007.0001-.005.016-.007c.005-.002.0001-.004.015-.007.005-.002.0001-.004.016-.006l.015-.006c.006-.002.011-.004.016-.006s.011-.004.016-.005c.005-.002.011-.004.016-.005.005-.002.011-.004.016-.005.006-.002.011-.003.016-.005.006 0 .011-.003.017-.004.005-.002.011-.003.016-.004s.011-.003.016-.004c.006 0 .011-.002.017-.003.005 0 .011-.002.017-.003.005 0 .011-.002.016-.003.006 0 .011 0 .017-.002.005 0 .011-.002.017-.002.005 0 .011-.002.016-.002.006 0 .011 0 .017-.002.006 0 .011 0 .017 0 .005 0 .011 0 .017 0h.017.016.017.017c.006 0 .011 0 .017 0 .005 0 .011 0 .017 0 .005 0 .011 0 .016 0 .006 0 .012 0 .017.002.006 0 .011 0 .017.002.005 0 .011 0 .017.002.005 0 .011.002.016.003.006 0 .011.002.017.003.005 0 .011.002.016.003.006 0 .011.002.017.003.005.002.011.003.016.004.006 0 .011.003.016.004.006.002.011.003.017.005.005 0 .0001.003.016.004.005.002.0001.004.016.005.005.002.0001.004.016.006.005.002.0001.004.016.005l.015.006c.006.002.011.004.016.007l.015.006c.006.002.011.005.016.007s.0001.005.015.007.0001.005.015.007c.005.003.0001.005.015.008s.0001.005.015.008.0001.005.014.008l.015.009c.005.003.009.006.014.008.005.003.0001.007.014.009.005.004.009.007.014.0001s.009.006.014.009c.004.004.009.007.013.0001.005.003.009.007.014.0001.004.003.009.007.013.0001l-.041.252" fill="#fbd018" transform="translate(244.77 256.76)"/></g><g clip-path="url(#0)" transform="matrix(50.163 0 0-50.163-11897 13519)"><path d="m0 0c-.02 0-.043.007-.068.021-.026.013-.048.031-.068.054l-.1-.11c.057-.074.132-.111.227-.111.071 0 .128.02.171.058.042.039.063.087.063.145 0 .043-.011.081-.035.113-.023.032-.067.064-.13.095l-.059.03c-.026.013-.042.023-.049.03-.007.008-.001.016-.001.024 0 .012.005.022.016.029.001.008.024.012.043.012.033 0 .07-.02.111-.061l.101.101c-.026.035-.057.061-.094.08-.038.018-.077.027-.12.027-.061 0-.112-.018-.152-.054-.039-.036-.059-.081-.059-.132 0-.079.053-.146.158-.199l.055-.027c.047-.024.071-.049.071-.074 0-.013-.007-.025-.02-.036-.013-.001-.031-.015-.052-.015m.808.335c.034.035.076.052.128.052.051 0 .093-.018.126-.053.034-.036.05-.082.05-.138s-.016-.102-.05-.138c-.035-.036-.077-.054-.126-.054-.052 0-.094.017-.128.053s-.051.082-.051.14c0 .057.017.102.051.138m-.044-.396c.032-.03.064-.052.096-.065.033-.013.068-.02.105-.02.084 0 .157.033.218.098s.092.146.092.243c0 .1-.03.182-.089.246s-.131.096-.216.096c-.039 0-.076-.007-.11-.022-.034-.014-.066-.036-.096-.066v.072h-.162v-.854h.162v.272zm.301-2.701c-.072.085-.129.182-.166.288-.063-.049-.141-.079-.226-.079-.2 0-.366.165-.366.366h-.543c0-.497.411-.905.907-.905.202 0 .391.068.543.182-.055.044-.105.093-.149.148m1.638 1.482c-.081 0-.158-.011-.232-.03l.244.291.76.002v.543h-.993l-.664-.798c.361-.016.666-.243.799-.561.029.008.059.012.09.012.2 0 .365-.165.365-.366s-.165-.366-.365-.366c-.031 0-.061.004-.089.011-.075-.18-.207-.332-.372-.432.134-.078.29-.122.457-.122.502 0 .91.406.91.908 0 .501-.408.908-.91.908m-.925-.541c-.202 0-.366-.164-.366-.366s.164-.366.366-.366.366.164.366.366-.164.366-.366.366m1.572 1.692h.163v.509h.097v.141h-.097v.239h-.163v-.239h-.083v-.141h.083v-.509zm-.536.263v.031c0 .091.009.152.027.183.017.031.038.047.063.047.012 0 .028-.005.047-.015l.051.141c-.023.011-.045.016-.066.016-.03 0-.057-.008-.083-.025-.025-.016-.045-.041-.06-.073v.082h-.14v-.65h.162v.263m-2.143-.52c-.465 0-.85-.383-.85-.848h.544c0 .168.138.306.306.306.167 0 .305-.138.305-.306 0-.167-.137-.305-.303-.306v-.281c.075 0 .146-.024.205-.064.058.265.195.473.293.613.321.456.618.798.618.798h-.121l-.266-.33c-.149.249-.423.418-.731.418m1.169.717c.034.035.076.053.127.053s.094-.018.127-.052c.034-.035.05-.08.05-.136s-.017-.102-.051-.137-.076-.053-.127-.053-.093.017-.126.052c-.034.036-.051.081-.051.138 0 .055.017.1.051.135m.125-.477c.063 0 .121.015.173.045.053.03.094.072.125.125.03.054.046.111.046.172s-.015.118-.046.171c-.03.052-.072.094-.126.124-.054.031-.112.046-.173.046-.085 0-.16-.029-.225-.088-.075-.068-.112-.152-.112-.254 0-.095.033-.175.099-.241.066-.067.145-.1.239-.1" fill="#56565a" transform="translate(242.47 259.37)"/><path d="m0 0c-1.531 0-3.061.584-4.229 1.752-2.206 2.206-2.328 5.707-.367 8.06l.573-.606c-.732-.911-1.13-2.036-1.13-3.221 0-1.377.536-2.671 1.509-3.644.973-.974 2.268-1.51 3.644-1.51 1.087 0 2.122.334 2.989.954l.572-.606c-1.054-.783-2.308-1.175-3.561-1.175" fill="#fff" transform="translate(244.15 252.24)"/></g><path fill="url(#3)" d="m239.92 262.45c-.129-.129-.251-.263-.366-.401l.572-.607c.118.147.245.288.379.423.974.973 2.268 1.509 3.644 1.509 1.377 0 2.671-.536 3.644-1.509s1.51-2.268 1.51-3.644c0-1.377-.537-2.671-1.51-3.644-.205-.205-.423-.39-.655-.556l.436-.461h.324c.166.134.327.278.481.432 1.158 1.159 1.741 2.673 1.751 4.192v.074c-.001 1.519-.593 3.03-1.751 4.192-1.169 1.168-2.699 1.752-4.23 1.752s-3.061-.584-4.229-1.752" transform="matrix(50.163 0 0-50.163-11897 13519)"/><g clip-path="url(#1)" transform="matrix(50.163 0 0-50.163-11897 13519)"><path d="m0 0c-1.157 0-2.314.441-3.197 1.324-.818.818-1.257 1.872-1.317 2.943l.859.003c.059-.884.432-1.707 1.065-2.34.692-.692 1.612-1.073 2.59-1.073s1.898.381 2.59 1.073 1.073 1.612 1.073 2.591c0 .978-.381 1.898-1.073 2.59-.095.095-.194.184-.297.267l-.004 1.042c.324-.19.63-.425.908-.703 1.765-1.765 1.765-4.628 0-6.393-.883-.883-2.04-1.324-3.197-1.324m0 1.562c-.757 0-1.514.289-2.092.867-.515.514-.8 1.171-.856 1.844h.02c.057-.691.354-1.334.85-1.83.555-.555 1.293-.861 2.078-.861s1.523.306 2.078.861.86 1.293.86 2.078c0 .674-.225 1.313-.641 1.832v.033c.946-1.162.878-2.875-.205-3.958-.578-.577-1.335-.866-2.092-.866" fill="#e2e2e0" transform="translate(244.15 253.7)"/></g><path fill="url(#4)" d="m246.44 260.09c.946-1.162.878-2.874-.204-3.957-.578-.578-1.336-.867-2.093-.867s-1.514.289-2.092.867c-.514.515-.8 1.172-.856 1.845l-.707-.003c.06-.885.432-1.708 1.065-2.34.692-.692 1.612-1.073 2.59-1.073.979 0 1.898.381 2.591 1.072.692.692 1.072 1.612 1.072 2.591s-.38 1.898-1.072 2.591c-.095.094-.194.183-.297.266l.003-.992" transform="matrix(50.163 0 0-50.163-11897 13519)"/><path fill="url(#2)" d="m240.95 261.42c-.947-.947-1.386-2.209-1.317-3.449l.858.003c-.005.083-.008.166-.008.25 0 .979.381 1.898 1.073 2.591.692.691 1.612 1.072 2.59 1.072.845 0 1.646-.283 2.294-.806l-.004 1.042c-.705.414-1.497.622-2.29.622-1.156 0-2.313-.442-3.196-1.325m1.104-1.104c-.641-.641-.926-1.502-.856-2.339h.021c-.007.082-.011.164-.011.247 0 .785.306 1.523.86 2.078.556.555 1.294.86 2.078.86.785 0 1.523-.305 2.079-.86.077-.079.151-.161.219-.245v.032c-.063.078-.131.154-.204.227-.578.578-1.336.867-2.093.867s-1.514-.289-2.092-.867" transform="matrix(50.163 0 0-50.163-11897 13519)"/></g></svg>