<svg xmlns="http://www.w3.org/2000/svg" viewBox="0 0 600 115.07"><path fill="#fff" d="m593.05 115.07c3.848 0 6.945-3.476 6.945-7.795v-99.48c0-4.318-3.1-7.795-6.95-7.795h-586.1c-3.848 0-6.945 3.476-6.945 7.795v99.48c0 4.318 3.098 7.795 6.945 7.795"/><path fill="#00386b" d="m14.331 7.56c-3.751 0-6.77 3.02-6.77 6.77v86.41c0 3.751 3.02 6.77 6.77 6.77h31.34 8.773.367v-12.553c-19.16-1.438-34.27-17.455-34.27-36.985 0-19.531 15.11-35.52 34.28-36.956v-13.456h-.367-8.773-31.34zm46.09 0v13.456c19.16 1.436 34.27 17.424 34.27 36.955s-15.11 35.548-34.27 36.983v12.553h.056 9.14 516.05c3.751 0 6.77-3.02 6.77-6.77v-86.41c0-3.751-3.02-6.77-6.77-6.77h-516.05-9.14-.056m47.08 7.561h477v84.72h-477v-84.72"/><path fill="#01b3c1" d="m54.772 26.368c-16.34 1.426-29.17 15.11-29.17 31.821s12.829 30.423 29.17 31.849v-23.725c-3.363-1.164-5.783-4.366-5.783-8.124 0-3.758 2.42-6.933 5.783-8.096v-23.725m5.614 0v23.725c3.363 1.164 5.783 4.338 5.783 8.096 0 3.758-2.42 6.961-5.783 8.124v23.725c16.34-1.426 29.17-15.14 29.17-31.849s-12.829-30.395-29.17-31.821"/><g fill="#00386b"><g stroke-width=".106"><g stroke="#01386a"><path d="m149.47 38.27h20.234v7.746h-20.234c-6.182 0-5.842 6.92 0 6.92h7.335c19.745 0 19.635 23.879 0 23.879h-21.76v-8.08h21.76c6.471 0 6.396-8.35 0-8.35-1.137 0-5.162.201-7.335 0-19.791 0-19.791-22.11 0-22.11z"/><path d="m294.02 38.27v8.159h-8.866c-5.617 0-6.256 5.198-6.256 8.325v22.09h-10.598v-21.702c0-3.541.488-8.114 3.01-11.747 2.023-2.915 5.79-5.13 9.01-5.13h13.697z"/></g><path d="m306.74 24.13h10.321c0 4.514 0 10 .068 14.175 3.634-.032 7.03-.032 10.524-.032.03 2.595.03 5.451 0 8.159h-10.592v18.16c0 5.01 4.673 3.93 10.592 3.93v8.326h-10.592c-9.582 0-10.321-8.326-10.321-12.28 0-6.409 0-11.731 0-18.14h-6.926v-8.159h6.926c.113-4.514 0-9.506 0-14.14z" stroke="#01b3c1"/></g><path d="m189.4 90.995c.005-3.201.005-12.455 0-14.14h8.68c12.929 0 18.791-8.159 18.791-19.357 0-10.896-5.981-19.222-18.79-19.222h-19.365c0 2.833 0 47.47.027 52.722h10.657zm-.03-22.303l.035-22.09h8.675c10.733 0 10.733 22.09 0 22.09h-8.71"/><path d="m241.9 37.495c-10.795.532-19.38 9.213-19.38 19.832 0 10.961 9.14 19.86 20.424 19.86s20.452-8.899 20.452-19.86-9.169-19.832-20.452-19.832c-.353 0-.696-.017-1.044 0m1.015 8.519c5.249 0 9.507 5.095 9.507 11.369 0 6.273-4.258 11.34-9.507 11.34s-9.507-5.067-9.507-11.34c0-6.273 4.258-11.369 9.507-11.369"/></g><g fill="#01b3c1"><path d="m361.77 24.13c-.005 3.201-.005 12.455 0 14.14h-8.68c-12.929 0-18.791 8.159-18.791 19.357 0 10.896 5.981 19.222 18.79 19.222h19.365c0-2.832 0-47.47-.027-52.722h-10.657zm.03 22.303l-.034 22.09h-8.675c-10.733 0-10.733-22.09 0-22.09h8.71"/><g stroke="#01b3c1" stroke-width=".106"><path d="m475.54 24.13h10.321c0 4.514 0 10 .068 14.175 3.634-.032 7.03-.032 10.524-.032.03 2.595.03 5.451 0 8.159h-10.592v18.16c0 5.01 4.673 3.93 10.592 3.93v8.326h-10.592c-9.582 0-10.321-8.326-10.321-12.28 0-6.409 0-11.731 0-18.14h-6.926v-8.159h6.926c.113-4.514 0-9.506 0-14.14z"/><path d="m439.51 38.27h-19.843c-13.183 0-18.661 8.773-18.661 18.668 0 10.918 5.087 19.91 18.661 19.91h9.454c0 2.392 0 4.24-3.773 4.24h-19.973v7.905h21.21c4.062-.113 8.801-1.373 10.946-5.097 2.708-4.739 1.923-10.252 1.923-15.375 0-10.316.052-20.01.052-30.25zm-10.389 8.159v22.09h-9.454c-11.719 0-11.719-22.09 0-22.09 1.986 0 4.322-.008 9.454 0z"/><path d="m503.99 38.27c-.113 2.595.113 5.564 0 8.159h21.346c3.385.339 4.916 3.573 5.254 6.507h-18.01c-14.328 0-14.328 23.912 0 23.912h28.35v-23.23c.033-10.247-5.986-15.351-15.597-15.351-7.102 0-14.04.038-21.34 0zm26.56 22.11v8.139h-12.605c-7.189 0-7.212-8.139-.023-8.139h12.628z"/></g><path d="m548.17 24.13h10.965v52.722h-10.965z"/><path d="m381.98 38.27h10.932v38.579h-10.932z"/><path d="m381.98 24.13h10.932v10h-10.932z"/><path d="m449.15 38.27h10.932v38.579h-10.932z"/><path d="m449.15 24.13h10.932v10h-10.932z"/></g></svg>