<svg xmlns="http://www.w3.org/2000/svg" viewBox="0 0 600 350.06"><g transform="matrix(1.44727 0 0 1.44727 447.48 242.21)" fill-rule="evenodd"><g fill="#a90000"><path d="m-131.1-46.15c0-39.18.019-78.37-.05-117.55-.004-2.141.477-2.693 2.665-2.691 77.1.065 154.2.062 231.29.007 2.038-.002 2.579.486 2.577 2.558-.056 78.52-.056 157.04 0 235.56.002 1.988-.479 2.448-2.455 2.446-77.25-.056-154.5-.054-231.74-.004-1.862 0-2.334-.454-2.33-2.319.06-39.33.045-78.67.045-118z"/><path d="m-148.43-46.39c0 39.41-.021 78.82.052 118.23.004 2.158-.501 2.683-2.674 2.68-51.823-.069-103.65-.069-155.47 0-2.16.002-2.672-.497-2.67-2.665.065-78.894.064-157.79.006-236.68 0-2.051.516-2.532 2.541-2.53 51.897.06 103.79.06 155.69.002 1.989-.002 2.575.419 2.571 2.513-.067 39.485-.049 78.969-.049 118.45z"/></g><g fill="#fefefe"><path d="m15.819-142.47v2.442c0 60.94-.011 121.88.05 182.82.002 2.12-.432 2.713-2.642 2.696-15.626-.11-31.25-.088-46.882-.019-1.737.008-2.221-.402-2.22-2.193.052-49.2.052-98.4-.004-147.6-.002-1.675.684-2.58 1.879-3.476 8.968-6.735 18.319-12.924 27.47-19.394 6.529-4.615 13.05-9.243 19.592-13.841.776-.542 1.505-1.214 2.756-1.432z"/><path d="m-228.73-19.35c-11.292 0-22.584.004-33.876-.002-3.682 0-4.25-.514-4.216-4.082.095-9.944-.277-19.891.215-29.831.125-2.547.604-5.04 1.346-7.483 2.657-8.743 8.768-13.639 17.878-14.57 9.914-1.013 17.788 2.206 23.13 10.824.735 1.185 1.253 1.214 2.399.509 8.53-5.241 17.11-10.406 25.671-15.589.767-.466 1.52-.969 2.335-1.331 1.754-.783 3.098-.116 3.141 1.795.108 4.858.058 9.719-.015 14.577-.024 1.634-1.062 2.767-2.433 3.536-8.867 4.959-17.741 9.903-26.621 14.839-1.217.677-2.511.86-3.897.501-2.386-.619-4.783-1.187-7.184-1.739-1.554-.357-2.399-1.279-2.793-2.835-1.567-6.189-4.256-8.21-10.503-8.02-5.064.155-7.988 2.694-8.354 7.799-.303 4.243-.103 8.521-.193 12.78-.026 1.251.677 1.249 1.571 1.245 3.515-.021 7.03-.009 10.544-.009 15.181 0 30.362-.004 45.542.002 4.132.002 4.407.295 4.411 4.501.002 2.842.007 5.684 0 8.526-.011 3.519-.522 4.046-3.996 4.048-11.37.009-22.737.004-34.1.004z"/><path d="m-189.95 27.08c-.262 5.523-.305 11.06-1.04 16.557-.266 1.989-1.208 2.724-3.19 2.375-2.795-.494-5.619-.821-8.414-1.316-2.676-.473-3.119-1.032-2.977-3.781.309-5.898.967-11.776.967-17.691 0-3.22-.045-6.438-.843-9.581-.873-3.442-2.565-4.985-5.765-5.389-3.239-.408-5.647.768-7.281 3.697-2.22 3.975-2.859 8.468-4.02 12.782-.873 3.25-1.673 6.516-3.278 9.504-4.731 8.813-12.489 11.808-21.967 11.129-8.766-.626-14.435-5.471-17.47-13.579-1.509-4.03-2.176-8.227-2.285-12.513-.193-7.558.009-15.11.883-22.619.333-2.867.896-3.283 3.807-2.859 2.588.378 5.153.903 7.745 1.247 2.218.295 3.091 1.464 2.926 3.657-.456 6.114-.916 12.229-.894 18.367.007 2.177.138 4.331.817 6.421.914 2.818 2.693 4.611 5.761 4.865 3.272.273 5.456-.884 6.883-3.908 2.057-4.359 2.7-9.151 3.992-13.745 1.159-4.121 2.549-8.124 4.987-11.688 3.13-4.581 7.444-7.274 12.952-7.952 14.325-1.769 23.736 5.157 26.514 19.504.368 1.905.679 3.829.868 5.759.346 3.573.471 7.162.318 10.755z"/><path d="m-228.78-91.36c-11.288 0-22.578.004-33.866-.002-3.687-.002-4.185-.484-4.187-4.086-.007-14.355-.007-28.709 0-43.06.002-3.616.507-4.101 4.164-4.119 2.169-.011 4.336-.011 6.505 0 3.579.021 4.04.467 4.04 3.973.007 9.345.052 18.691-.041 28.03-.019 1.78.466 2.263 2.221 2.204 3.958-.135 7.926-.127 11.883-.002 1.649.052 2.13-.348 2.109-2.066-.101-8.446-.05-16.896-.043-25.344.004-3.373.535-3.925 3.869-3.97 2.466-.034 4.936-.056 7.401.015 2.779.078 3.411.722 3.422 3.528.03 8.523.08 17.05-.041 25.568-.028 1.945.567 2.294 2.365 2.272 8.07-.099 16.15-.052 24.22-.039 3.618.006 4.11.518 4.119 4.159.007 2.99.009 5.982 0 8.972-.011 3.532-.436 3.957-4.052 3.96-11.365.009-22.728.004-34.09.004"/></g></g></svg>