<svg xmlns="http://www.w3.org/2000/svg" viewBox="0 0 155.03 190.72"><path d="m1 1v153.03h153.03v-153.03zm95.25 162.37c-1.703 0-3.441.299-5.219.875-1.753.576-3.192 1.872-4.344 3.875-1.152 2-1.719 4.801-1.719 8.406 0 2.504.249 4.604.75 6.281.526 1.678 1.273 3 2.25 4.03.976 1.027 2.154 1.768 3.531 2.219 1.402.426 2.972.656 4.75.656 1.803 0 3.41-.231 4.813-.656 1.402-.451 2.58-1.192 3.531-2.219.976-1.027 1.718-2.354 2.219-4.03.501-1.678.75-3.777.75-6.281 0-2.479-.324-4.772-1-6.875-.651-2.103-1.835-3.661-3.563-4.688-1.728-1.052-3.996-1.594-6.75-1.594m19.313 0v26.344h38.469v-26.344zm-114.56.531v25.281h5.688v-20.563h3.281c1.352 0 2.287.287 2.813.813.551.501.812 1.248.813 2.25 0 1.252-.336 2.124-1.063 2.625-.701.501-1.754.75-3.156.75l-.938 3.938 6.563 10.188h6.563l-7.313-10.813c.651-.15 1.392-.449 2.219-.875.851-.451 1.549-1.192 2.125-2.219.576-1.027.875-2.279.875-3.781 0-2.329-.692-4.179-2.094-5.531-1.377-1.377-3.545-2.062-6.5-2.063zm30.406 0l-9.06 25.281h5.594l2.125-6.125h7.906l2.125 6.125h5.813l-9.03-25.281zm17.625 0v25.281h8.719c1.778 0 3.398-.193 4.875-.594 1.477-.401 2.767-1.08 3.844-2.031 1.077-.976 1.893-2.279 2.469-3.906.601-1.627.906-3.671.906-6.125 0-2.479-.305-4.523-.906-6.125-.576-1.627-1.392-2.924-2.469-3.875-1.077-.976-2.366-1.656-3.844-2.031-1.477-.401-3.097-.594-4.875-.594zm25.469 0v25.281h5.781v-25.281zm21.75 4.219c.926 0 1.83.187 2.656.563.851.351 1.481 1.117 1.906 2.344.451 1.227.687 3.071.688 5.5 0 1.653-.125 3.148-.375 4.5-.25 1.327-.786 2.318-1.563 2.969-.751.651-1.86.969-3.313.969-.926 0-1.699-.125-2.375-.375-.651-.275-1.199-.724-1.625-1.375-.401-.651-.706-1.517-.906-2.594-.2-1.077-.313-2.441-.313-4.094 0-1.653.118-3.135.344-4.438.25-1.327.749-2.318 1.5-2.969.776-.676 1.898-1 3.375-1m-41.44.5h2.906c.926 0 1.861.162 2.813.438.951.275 1.712.973 2.313 2.125.601 1.127.906 2.915.906 5.344 0 1.703-.187 3.198-.563 4.5-.376 1.277-.999 2.155-1.875 2.656-.876.501-2.066.75-3.594.75h-2.906zm-20.75 1.594l2.531 8.219h-5.125z" fill="#cf007f"/><path d="m124.23 170.17c-3.201 0-4.752 1.394-4.752 3.605 0 1.999 1.082 3.187 2.963 3.671l1.438.368c1.184.309 1.69.657 1.69 1.394 0 1.088-.739 1.284-2.524 1.284-.814 0-2.231-.119-2.716-.159-.505-.037-.642.025-.719.45l-.23 1.492c-.04.292.098.407.351.444.562.077 1.977.176 3.352.176 3.086 0 5.339-1.01 5.339-3.879 0-1.689-.742-2.951-3.303-3.61l-1.432-.368c-.969-.25-1.416-.562-1.416-1.278 0-1.01.93-1.202 1.822-1.202 1.204 0 2.423.099 2.908.137.506.038.641-.024.719-.45l.236-1.454c.038-.29-.1-.406-.351-.444-.564-.078-1.803-.176-3.374-.176m6.354.132c-.389 0-.505.138-.505.527v11.429c0 .386.116.521.505.521h1.783c.388 0 .505-.135.505-.521v-9.646h1.844c1.164 0 1.723.427 1.723 1.514 0 .989-.442 1.299-.889 1.492-.562.234-.759-.018-.933.719l-.192.818c-.059.232-.082.344-.082.422 0 .193.061.349.198.582l2.31 4.153c.194.329.347.466.812.466h2.118c.271 0 .602-.175.291-.658l-2.837-4.697c.951-.602 2.02-1.454 2.02-3.336 0-2.425-1.357-3.786-4.345-3.786h-4.324m11.764 0c-.388 0-.505.138-.505.527v11.429c0 .387.117.521.505.521h1.789c.387 0 .499-.134.499-.521v-4.505h4.62c.387 0 .505-.134.505-.521v-1.361c0-.388-.117-.521-.505-.521h-4.62v-2.639h5.086c.388 0 .505-.139.505-.527v-1.355c0-.389-.117-.527-.505-.527h-7.374" fill="#fff"/><path d="m41.938 53.844l31.19 31.19-42.63 28.06-.469 5.062v21.19l14.688 14.688h109.31v-82.64l-42.39-42.39-54.891 3.594z" fill="#a21455"/><path d="m76.25 16.344c-12.422-.144-23.478 4.222-34.25 9.5v28c9.416-7.793 19.06-13 32-13.5 12.1-.465 16.939 5.252 17.75 14 1.116 12.04-11.04 21.16-15.5 24.5l-45.75 34.25h40.5l27-19.75c11.692-8.552 23.12-18.455 23.5-39.5.26-14.205-9.135-37.08-45.25-37.5m-46.22 101.81v21.19h4.75v-21.19zm11.969 0l-5.25 8.375-.531 2.438 6.344 10.375h5.531l-7-11.5 6.156-9.688zm6.188 0v13.281c0 1.657.185 3.02.563 4.094.378 1.07.943 1.933 1.656 2.563.713.629 1.566 1.061 2.594 1.313 1.049.252 2.231.375 3.531.375 1.322 0 2.503-.123 3.531-.375 1.028-.252 1.88-.683 2.594-1.313.713-.629 1.279-1.493 1.656-2.563.378-1.07.562-2.436.563-4.094v-13.281h-4.844v13.75c0 .797-.103 1.496-.313 2.125-.21.608-.59 1.05-1.094 1.344-.503.294-1.202.438-2.125.438-.545 0-1.08-.062-1.625-.188-.524-.126-.987-.485-1.344-1.094-.336-.608-.5-1.471-.5-2.625v-13.75zm18.906 0v21.19h13.06l.5-4.125h-8.719v-17.06zm8.313 0v4.125h5.969v17.06h4.844v-17.06h4.188v9.156c0 1.657.216 3.02.594 4.094.378 1.07.912 1.933 1.625 2.563.713.629 1.597 1.061 2.625 1.313 1.049.252 2.199.375 3.5.375 1.322 0 2.503-.123 3.531-.375 1.028-.252 1.912-.683 2.625-1.313.713-.629 1.247-1.493 1.625-2.563.378-1.07.562-2.436.563-4.094v-13.281h-4.844v13.75c0 .797-.103 1.496-.313 2.125-.21.608-.559 1.05-1.063 1.344-.503.294-1.233.438-2.156.438-.545 0-1.08-.062-1.625-.188-.524-.126-.956-.485-1.313-1.094-.336-.608-.5-1.471-.5-2.625v-13.75h-3.063zm33.906 0v21.19h4.813v-17.219h2.719c1.133 0 1.934.247 2.375.688.462.42.687 1.036.688 1.875 0 1.049-.298 1.768-.906 2.188-.587.42-1.481.656-2.656.656l-.781 3.281 5.5 8.531h5.5l-6.125-9.06c.545-.126 1.151-.362 1.844-.719.713-.378 1.33-.984 1.813-1.844.482-.86.719-1.929.719-3.188 0-1.951-.606-3.492-1.781-4.625-1.154-1.154-2.962-1.75-5.438-1.75z" fill="#fff"/></svg>