<svg xmlns="http://www.w3.org/2000/svg" viewBox="0 0 600 450.93"><g transform="translate(-1.184-596.16)"><g fill="#fff"><path d="m318.37 622.66c-34.504 0-65.62.713-89.81 2.156v282.72h66.37v-110.37h2.594l68.09 110.37h80.84l-60.812-90.94c-7.215-10.143-14.464-20.874-22.06-31.781 38.24-9.337 63.41-40.38 63.41-78.4 0-59.84-40.935-83.75-108.62-83.75zm-5.125 53.56c31.15 0 44.22 13.896 44.22 35.625 0 24.02-17.873 38.75-45.968 38.75-6.281 0-13.21-.719-16.562-.719v-72.19c3.947-.764 11.607-1.469 18.312-1.469"/><path d="m530.53 596.16c-39 0-70.59 31.05-70.59 69.843 0 38.02 31.592 69.19 70.59 69.19 39.09 0 70.65-31.16 70.65-69.19 0-38.79-31.569-69.843-70.65-69.843m0 10.09c33.32 0 60.25 26.392 60.25 59.749 0 32.678-26.933 59.03-60.25 59.03-33.27 0-60.22-26.353-60.22-59.03 0-33.36 26.947-59.749 60.22-59.749m28.312 17.906l-71.09 25.562v17.16l23.625-8.562v51.906l47.47-16.281v-69.78"/><path d="m117.61 620.24c-71.934 0-114.15 34.92-114.15 87.8 0 94.6 114.46 70.57 114.46 118.66 0 19.394-17.374 29.547-41.608 29.547-20.964 0-44.43-4.741-60.6-10.132l-3.429 59.83c18.504 4.582 38.759 6.858 58.79 6.858 73.29 0 117.89-41.11 117.89-95.35 0-88.53-114.5-72.23-114.5-115.69 0-16.297 12.812-27.931 40.566-27.931 16.848 0 34.958 3.122 51.09 7.706l3.737-56.709c-17.91-3.01-36.963-4.585-52.24-4.585"/></g><path d="m1.184 1047.1h446.97v-109.37h-446.97v109.37" fill="#0f2995"/><g fill="#fff"><path d="m221.88 964.88c-13.03 0-20.664 6.673-20.664 16.325 0 17.857 22.754 13.12 22.754 23.495 0 4.987-4.084 7.17-9.393 7.17-3.942 0-8.294-.887-11.35-1.932l-.635 9.71c3.378.885 7.226 1.297 11.09 1.297 13.353 0 21.484-7.485 21.484-17.7 0-16.972-22.833-13.339-22.833-23.07 0-3.862 3.043-6.615 9.08-6.615 3.298 0 6.68.57 9.737 1.455l.556-9.154c-3.217-.563-6.76-.979-9.816-.979z"/><path d="m113.63 965.44c-6.274 0-11.331.104-15.594.344v54.28h10.437v-22.469h.406l15.12 22.469h12.937l-13-18.25c-1.367-1.85-2.909-3.928-4.437-5.938 8.205-1.288 13.844-7.113 13.844-15.16 0-11.1-7.733-15.281-19.719-15.281zm-1.031 8.531c6.595 0 9.812 2.584 9.812 7.812 0 5.067-3.882 8.281-10.156 8.281-1.609 0-3.057-.076-3.781-.156v-15.687c1.046-.162 2.597-.25 4.125-.25"/><path d="m17.758 965.78v54.29h10.451v-22.86h17.542v-8.599h-17.542v-13.996h18.574v-8.837h-29.02z"/><path d="m56.757 965.78v54.29h29.527v-8.943h-19.05v-14.711h18.1v-8.519h-18.1v-13.361h19.05v-8.758h-29.527"/><path d="m145.81 965.78v54.29h10.133v-19.394c0-6.516-.181-15.04-.503-19.711 1.609 3.539 3.461 7.565 5.874 11.668l15.928 27.437h13.52v-54.29h-10.133v16.88c0 6.677.153 16.332.556 21.801-2.01-4.102-4.174-8.623-6.667-12.806l-15.13-25.876h-13.573"/><path d="m245.69 965.78v54.29h29.527v-8.943h-19.08v-14.711h18.1v-8.519h-18.1v-13.361h19.08v-8.758h-29.527"/><path d="m286.97 965.78v54.29h10.451v-23.574h22.992v23.574h10.477v-54.29h-10.477v21.696h-22.992v-21.696h-10.451"/><path d="m345.36 965.78v54.29h29.501v-8.943h-19.05v-14.711h18.1v-8.519h-18.1v-13.361h19.05v-8.758h-29.501"/><path d="m386.61 965.78v54.29h10.133v-19.394c0-6.516-.153-15.04-.476-19.711 1.609 3.539 3.46 7.565 5.874 11.668l15.928 27.437h13.52v-54.29h-10.133v16.88c0 6.677.154 16.332.556 21.801-2.01-4.102-4.175-8.623-6.667-12.806l-15.13-25.876h-13.599"/></g></g></svg>