<svg xmlns="http://www.w3.org/2000/svg" viewBox="0 0 600 161.8"><path fill="#af001e" d="m117.99 161.78h337.55v-161.78h-337.55v161.78"/><g fill="#fff"><path d="m421.68 61.01c-1.902-5.69-4.613-10.356-8.08-13.874-3.518-3.572-7.808-6.156-12.779-7.681-4.738-1.472-10.09-2.225-15.92-2.225-5.815 0-11.181.754-15.92 2.225-4.972 1.526-9.261 4.128-12.779 7.681-3.464 3.518-6.174 8.184-8.08 13.874-1.849 5.51-2.782 12.366-2.782 20.335 0 7.879.915 14.663 2.692 20.17 1.849 5.689 4.541 10.374 8.02 13.91 3.5 3.554 7.789 6.138 12.761 7.681 4.756 1.472 10.159 2.225 16.08 2.225 5.923 0 11.325-.754 16.08-2.225 4.972-1.543 9.261-4.128 12.761-7.681 3.482-3.536 6.174-8.22 8.02-13.91 1.777-5.528 2.692-12.312 2.692-20.17 0-7.969-.933-14.807-2.782-20.335m-23.314 32.63c-.556 2.89-1.418 5.133-2.584 6.677-1.059 1.454-2.369 2.423-3.966 3.02-1.849.664-4.164 1.01-6.91 1.01-2.746 0-5.061-.341-6.91-1.01-1.597-.592-2.908-1.561-3.966-3.02-1.167-1.543-2.028-3.805-2.584-6.677-.628-3.177-.933-7.305-.933-12.276 0-4.989.305-9.154.933-12.366.556-2.944 1.436-5.205 2.584-6.766 1.059-1.436 2.369-2.423 3.966-2.997 1.849-.664 4.164-1.01 6.91-1.01s5.061.341 6.928 1.01c1.579.574 2.89 1.561 3.949 2.997 1.149 1.544 2.028 3.823 2.584 6.766.628 3.249.933 7.395.933 12.366 0 4.954-.305 9.08-.933 12.276"/><path d="m330.42 72.78h-26.491v-12.241h30.96c1.921 0 3.464-1.544 3.464-3.464v-15.668c0-1.903-1.543-3.464-3.464-3.464h-52.677c-1.902 0-3.464 1.561-3.464 3.464v79.71c0 1.921 1.561 3.482 3.464 3.482h18.253c1.921 0 3.464-1.561 3.464-3.482v-25.841h26.491c1.921 0 3.464-1.561 3.464-3.464v-15.561c0-1.903-1.543-3.464-3.464-3.464"/><path d="m258.24 44.48c-2.584-2.333-5.743-4.056-9.387-5.097-3.464-.969-7.269-1.436-11.325-1.436h-41.514c-1.921 0-3.464 1.561-3.464 3.464v79.71c0 1.921 1.543 3.464 3.464 3.464h18.397c1.921 0 3.464-1.543 3.464-3.464v-59.79h14.771c2.315 0 5.367.359 6.713 2.064 1.274 1.615 1.921 4.146 1.921 7.52v50.2c0 1.921 1.561 3.464 3.482 3.464h18.235c1.902 0 3.464-1.543 3.464-3.464v-54.718c0-4.918-.718-9.243-2.136-12.833-1.454-3.679-3.5-6.73-6.084-9.08"/><path d="m176.88 37.939h-18.235c-1.921 0-3.464 1.544-3.464 3.464v79.71c0 1.921 1.543 3.482 3.464 3.482h18.235c1.921 0 3.464-1.561 3.464-3.482v-79.71c0-1.92-1.543-3.464-3.464-3.464"/></g><path fill="#af001e" d="m0 161.8h106.25v-161.78l-106.25-.003v161.78z"/><g fill="#fff"><path d="m48.32 41.19h-10.643v-20.514c0-1.561-.556-2.028-2.118-2.028h-5.492c-1.561 0-2.1.467-2.1 2.028v29.757c0 1.561.538 2.028 2.1 2.028h46.13c1.561 0 2.118-.467 2.118-2.028v-7.197c0-1.579-.556-2.046-2.118-2.046h-18.16v-18.63c0-1.561-.556-2.046-2.118-2.046h-5.474c-1.579 0-2.118.485-2.118 2.046v18.63"/><path d="m52.31 81.63l3.284.79c.951.233 1.418.305 1.723.305.79 0 1.418-.233 2.351-.79l16.763-9.315c1.328-.772 1.885-1.4 1.885-3.266v-8.543c0-1.095-.718-2.423-2.674-1.185l-18.935 11.433c-2.423-3.841-5.887-8.148-13.479-8.148-9.782 0-15.256 5.492-15.256 17.553v17.463c0 1.561.538 2.028 2.1 2.028h46.13c1.561 0 2.118-.467 2.118-2.028v-7.215c0-1.561-.556-2.028-2.118-2.028h-38.929v-7.448c0-4.684 1.741-6.964 6.12-6.964 3.984 0 5.241 1.795 6.03 3.608.933 2.261-.09 3.051 2.89 3.751"/><path d="m70.24 142.19l6.03.951c1.185.144 1.651-.413 1.813-1.418.305-2.279.7-7.987.7-13.551 0-12.438-4.074-21.538-15.651-21.538-6.82 0-11.917 2.997-14.574 13.317l-1.49 5.797c-1.01 3.895-2.261 5.707-5.151 5.707-4.074 0-4.864-3.751-4.864-7.359 0-4.846.395-9.781.538-11.738.162-2.046-.072-2.585-1.795-2.89l-5.869-.951c-1.167-.162-1.651.395-1.795 1.418-.323 2.261-.718 7.287-.718 13.622 0 12.922 5.636 19.17 14.574 19.17 8.06 0 12.833-4.379 14.789-11.971l1.49-5.797c1.256-4.774 2.656-6.802 5.636-6.802 4.379 0 5.169 2.979 5.169 10.176 0 3.284-.467 8.992-.628 10.966-.162 2.028.072 2.584 1.795 2.89"/></g><path fill="#6c6c6c" d="m471.52 37.23c-.918 0-1.68.719-1.68 1.638v84.79c0 .918.761 1.68 1.68 1.68h21.544c.918 0 1.638-.761 1.638-1.68v-28.18c0-.918.761-1.68 1.68-1.68h21.544c.918 0 1.638.762 1.638 1.68v28.18c0 .918.761 1.679 1.68 1.679h21.544c.918 0 1.68-.761 1.68-1.679v-61.43c0-.875.542-1.315 1.764-1.339l15.829-.052s13.5-.887 13.657 20.876c.158 21.763-9.345 20.83-19.59 21.06-1.628.036-1.971.437-1.975 1.705l-.054 18.968c0 1.203.787 1.897 2.237 1.895 33.15-.033 43.561-15.727 43.661-44.772.099-29.05-13.453-43.33-41.08-43.33h-37.669c-.918 0-1.68.719-1.68 1.638v28.515c0 .918-.72 1.638-1.638 1.638h-21.544c-.918 0-1.68-.719-1.68-1.638v-28.519c0-.918-.719-1.638-1.638-1.638z"/></svg>