<svg xmlns="http://www.w3.org/2000/svg" viewBox="0 0 600 227"><g transform="matrix(1.29336 0 0 1.29336 697.81 8.59)" fill-rule="evenodd"><g fill="#fecb00"><path d="m-243.98-5.847c55.2 0 110.4.015 165.6-.055 2.267-.004 2.748.578 2.746 2.783-.067 56.46-.068 112.91.004 169.37.002 2.234-.669 2.613-2.718 2.611-110.4-.048-220.8-.05-331.2.011-2.278.002-2.764-.606-2.76-2.814.067-56.31.048-112.62.059-168.93 0-3.368-.475-2.971 2.892-2.973 55.13-.011 110.25-.007 165.38-.007z"/><path d="m-423.43 80.55c0 28.23-.022 56.45.048 84.68.004 2.032-.515 2.557-2.552 2.554-37.02-.065-74.04-.063-111.05-.002-2 .002-2.548-.475-2.546-2.524.059-56.45.059-112.9.002-169.35-.002-2.01.479-2.544 2.518-2.54 37.02.067 74.04.063 111.05.006 1.962-.002 2.587.405 2.581 2.505-.078 28.23-.054 56.45-.054 84.68z"/></g><g fill="#fefefe"><path d="m-264.36 82.83c-3.466 11.799-6.921 23.6-10.413 35.392-.582 1.968-.514 4.658-2.053 5.663-1.412.924-3.858.296-5.848.301-5.541.015-11.08-.044-16.623.039-1.412.022-2.075-.325-2.422-1.774-6.251-26.05-12.538-52.09-18.879-78.11-.373-1.532-.107-1.888 1.439-1.881 9.09.057 18.17.068 27.26-.009 1.608-.013 1.907.641 2.095 2.038 1.604 11.925 3.289 23.837 4.957 35.754.028.2.163.384.455 1.048 1.035-4.351 1.977-8.283 2.901-12.219 1.938-8.263 3.913-16.516 5.755-24.801.338-1.519 1.022-1.818 2.406-1.807 6.502.057 13 .092 19.504-.02 1.7-.03 2.234.576 2.589 2.134 2.655 11.655 5.403 23.29 8.126 34.93.116.499.277.987.756 1.522.547-3.075 1.114-6.144 1.641-9.22 1.543-9.02 3.102-18.04 4.577-27.07.266-1.632.745-2.332 2.611-2.302 8.124.124 16.252.079 24.38.03 1.454-.009 1.875.231 1.506 1.844-5.951 25.967-11.845 51.949-17.69 77.94-.342 1.521-.889 2-2.467 1.986-7.313-.092-14.628-.102-21.941.004-1.683.024-2.238-.588-2.675-2.103-3.684-12.762-7.457-25.498-11.204-38.24-.102-.344-.212-.684-.32-1.024-.142-.013-.283-.026-.421-.039z"/><path d="m-358.01 98.14h8.15c7.313 0 14.628.041 21.941-.033 1.546-.017 2.02.432 2 1.988-.072 7.387-.074 14.776 0 22.16.017 1.574-.499 1.968-2.02 1.964-22.606-.044-45.21-.046-67.821.002-1.548.004-2.02-.418-1.981-1.973.1-4.431.089-8.865.006-13.298-.028-1.497.394-2.642 1.338-3.806 9.443-11.648 18.837-23.334 28.24-35.02.355-.442.665-.92 1.232-1.711h-6.873c-6.872 0-13.743-.055-20.611.041-1.689.024-2.103-.488-2.082-2.121.087-7.239.078-14.48.006-21.719-.015-1.55.255-2.184 2.027-2.178 21.35.065 42.702.055 64.05.009 1.5-.002 2.01.381 2.09 1.933.233 4.719.589 9.434 1.04 14.14.127 1.332-.589 2.064-1.269 2.906-9.451 11.736-18.909 23.467-28.365 35.2-.266.344-.51.704-1.103 1.513"/><path d="m-154.88 90.79c-7.313 0-14.626.041-21.937-.031-1.587-.017-2.06.499-1.953 2.042.318 4.595 2.53 7.934 6.495 10.158 3.091 1.733 6.474 2.5 9.972 2.638 9.253.368 18.46-.137 27.56-1.912 1.55-.303 1.905-.105 1.748 1.489-.477 4.848-.892 9.704-1.155 14.569-.083 1.543-.685 2.206-2.06 2.631-4.615 1.425-9.357 2.13-14.15 2.493-9.588.724-19.18 1.171-28.667-1.013-14.308-3.293-22.907-12.147-25.749-26.536-1.929-9.767-1.807-19.537.517-29.22 3.631-15.14 14.216-24.476 29.712-26.318 7.304-.868 14.586-.841 21.814.745 8.379 1.84 14.03 6.846 17.261 14.726 2.781 6.79 3.705 13.954 4.268 21.18.27 3.459.235 6.938.462 10.401.103 1.578-.443 2.01-1.983 1.996-7.385-.068-14.772-.031-22.16-.031"/><path d="m-120.62 83.17c0-12.775.05-25.55-.054-38.32-.017-2.025.589-2.431 2.483-2.407 7.975.105 15.951.087 23.925.007 1.622-.015 2.132.373 2.129 2.077-.055 25.919-.052 51.84-.004 77.76.004 1.608-.525 1.951-2.02 1.938-8.122-.065-16.247-.094-24.369.017-1.883.026-2.132-.687-2.125-2.299.055-12.919.031-25.841.031-38.766"/><path d="m-481.53 100.12c-8.06 0-16.11.007-24.17-.002-2.871-.004-3.276-.355-3.221-3.143.157-7.751-.556-15.53.388-23.25.928-7.592 4.658-11.94 11.136-13.543 7.527-1.861 14.12.224 18.262 6.184 1.393 2 2.289 1.846 4.096.697 5.735-3.644 11.589-7.101 17.416-10.595.85-.508 1.722-1.402 2.825-.785 1.094.61.844 1.788.848 2.805.013 2.659-.031 5.321.013 7.98.03 1.724-.621 2.951-2.156 3.799-6.208 3.426-12.407 6.868-18.578 10.36-2.249 1.271-4.3.059-6.439-.262-2.219-.334-3.66-1.164-4.257-3.679-.848-3.588-3.76-5.1-7.738-4.615-3.653.445-5.401 2.319-5.587 6.208-.116 2.433.091 4.887-.1 7.311-.157 1.983.669 2.247 2.396 2.237 12.858-.068 25.718-.039 38.577-.037 3.821 0 3.869.05 3.873 3.814 0 1.848.013 3.695-.004 5.543-.026 2.522-.445 2.966-2.977 2.971-8.2.017-16.404.006-24.607.006z"/><path d="m-509.45 122.85c.004-3.546.194-7.084.552-10.613.27-2.664.702-3.01 3.398-2.576 1.53.244 3.047.615 4.586.754 2.121.19 2.718 1.341 2.553 3.298-.264 3.161-.421 6.334-.61 9.503-.131 2.215-.131 4.431.251 6.626.488 2.788 1.984 4.386 4.313 4.632 2.703.285 4.42-.673 5.408-3.52 1.038-2.99 1.722-6.099 2.622-9.139.501-1.694 1.042-3.387 1.716-5.02 2.633-6.369 7.413-9.506 14.329-9.397 6.89.107 11.851 3.121 14.574 9.556 1.31 3.095 1.925 6.365 2.141 9.687.394 6.05.022 12.1-.469 18.14-.174 2.143-1.14 2.842-3.191 2.4-1.583-.342-3.193-.625-4.804-.776-2.025-.19-2.807-1.14-2.657-3.196.347-4.784.859-9.567.628-14.377-.076-1.543-.196-3.099-.484-4.614-.416-2.188-1.506-3.823-3.978-4.111-2.751-.32-4.421.456-5.661 2.866-1.434 2.784-1.923 5.877-2.731 8.863-.597 2.208-1.14 4.427-2.177 6.489-3.084 6.131-8.538 9-16.15 8.475-6.06-.419-10.596-4.13-12.73-10.377-1.508-4.42-1.55-8.991-1.432-13.579z"/><path d="m-481.64 48.24c-7.902 0-15.805.005-23.707-.002-3.287-.002-3.579-.292-3.579-3.479-.004-10.118-.006-20.236 0-30.355.002-2.879.32-3.195 3.145-3.217 1.476-.011 2.954-.015 4.431 0 2.622.031 3.03.44 3.036 3.141.013 6.498.059 13-.035 19.497-.024 1.637.37 2.212 2.073 2.114 2.577-.15 5.172-.115 7.751-.007 1.463.061 1.873-.414 1.853-1.873-.081-5.907-.041-11.818-.03-17.725.006-2.751.29-3.02 3.073-3.047 1.476-.013 2.954-.011 4.431 0 2.803.022 3.087.288 3.095 3.02.013 5.835.063 11.67-.033 17.503-.028 1.619.344 2.162 2.058 2.129 5.759-.111 11.522.011 17.281-.07 2.086-.03 2.986.73 2.88 2.851-.105 2.136-.011 4.283-.026 6.424-.019 2.635-.431 3.076-3.104 3.084-8.196.022-16.394.009-24.592.009"/></g><path fill="#fecb00" d="m-166.94 74.13c-3.398 0-6.799-.041-10.197.022-1.164.022-1.558-.364-1.517-1.519.076-2.138-.054-4.281.597-6.371 1.561-5.01 5.109-7.319 10.334-7.721 9.322-.721 12.856 6.855 12.281 14.556-.087 1.173-.798 1.029-1.524 1.029-3.324.007-6.65.004-9.974.004"/></g></svg>