<svg xmlns="http://www.w3.org/2000/svg" viewBox="0 0 780 244" enable-background="new 0 0 780 244"><defs><linearGradient id="0" gradientUnits="userSpaceOnUse" x1="138.88" y1="72.77" x2="161.76" y2="55.648"><stop stop-color="#389dd7"/><stop offset="1" stop-color="#57c0ee"/></linearGradient></defs><g fill="#308aca"><path d="m161.5 130.5c0 0 10.738 12.354 14.344 16 3.812 3.854 15.323 14 15.323 14l-77.35 70.833c0 0 1.854-20.6 20.354-57.33 5.649-11.219 27.333-43.5 27.333-43.5"/><path d="m65.7 130.5l-29.25 30 77.35 70.833c0 0-1.854-20.6-20.313-57.33-5.794-11.532-27.796-43.5-27.796-43.5"/></g><path fill="#57c0ee" d="m21.333 83.5l92.48-66.62 92.13 66.62c0 0-17.307 15.552-22.813 21.375-5.604 5.927-21.625 25.625-21.625 25.625s-21.739 32.391-27.333 43.5c-18.5 36.733-20.354 57.33-20.354 57.33s-1.855-20.6-20.313-57.33c-5.448-10.841-27.417-43.04-27.417-43.04s-15.03-18.934-20.833-25.08c-5.389-5.715-23.917-22.375-23.917-22.375"/><path fill="url(#0)" d="m113.81 16.875l92.12 66.62c0 0-17.432 15.707-22.813 21.375-5.771 6.079-21.625 25.625-21.625 25.625s-17.5-20.12-32.17-54.17c-14.772-34.29-15.52-59.46-15.52-59.46"/><g fill="#d9dadc"><path d="m295.81 103.06c0 0 .924 7.295-7 15.938-6.876 7.5-21.06 6.969-21.06 6.969s-11.125.531-19.625-6.344c-8.431-6.819-9-15.875-9-15.875h16.12c0 0 .5 9.5 12.5 9.5 13.375 0 12.932-7.655 12.834-9.416-.167-3-1.912-4.724-3.25-5.75-2.053-1.573-7.349-2.503-9.848-3.167-4.957-1.318-15.653-3.01-19.486-6.418-3.224-2.866-7.718-9.07-7.583-15.5.167-7.917 5.473-14.264 9.5-17 3.766-2.559 9.833-4.763 17.583-4.75 4.838.008 12.88.991 17.75 4.917 8.167 6.583 10.25 15.833 10.25 15.833h-15.25c0 0-1.441-3.443-4.083-5.583-2.656-2.153-6.517-3-8.417-2.992-1.835.001-6.28.387-8.833 2.492-2.601 2.146-2.73 2.125-3.292 6.02-.309 2.145.208 7.479 14.5 9.06 12.147 1.346 17.893 5.902 20.09 8.104 5.632 5.645 5.599 13.958 5.599 13.958"/><path d="m705.83 51.96h16.54l18.15 28.7 14.04-28.7h15.81l-36.75 73h-15.75l14.88-29.38z"/><path d="m642.92 124.96h15l6.08-17h20.92l6 17h14.91l-24.95-73h-12.96l-25 73 16.83-28.5h7.32l7.3-22.541 7.58 22.541h-22.2z"/><path d="m579.87 51.96h29c0 0 22.19.688 23 24 .524 15.06-12.12 21.25-12.12 21.25l12.12 27.75h-15.12l-10.867-24h-11.927l-.039 24h-14.04v-59.04h14.08v21.03h12.918c0 0 11-.115 11.06-10.74.062-10.5-11.06-10.291-11.06-10.291h-27v-13.959"/><path d="m524.67 50.04c31.521 0 32.33 26.03 32.33 26.03h-14.563c0 0-1.188-12.11-18.19-12.11-10.25 0-21.563 7.165-21.563 24.291 0 14.58 11.188 24.422 22.376 24.422 16.812 0 18.08-13.01 18.08-13.01h-12.144l-.063-12.916h37.06l-.063 12.916h-8.375c0 0-2.625 26.793-34.896 26.793-18.292 0-36.834-14.13-36.834-38.2 0-23.674 16.918-38.22 36.835-38.22"/><path d="m422.91 76.4v48.56h-13v-73h13l35.98 47.02v-47.02h13.98v73h-13.98z"/><path d="m374.94 51.96h13.938v73h-13.938z"/><path d="m324.92 124.96h14l.02-60 20.97.016v-13.02h-56.04v13.02l21.07-.001z"/></g><g fill="#058ed0"><path d="m243.42 149.2h10.251v36.583h17.957v8.576h-28.21v-45.16"/><path d="m287.91 149.2v45.16h-10.25v-45.16h10.25"/><path d="m305.46 157.78h-12.13v-8.576h34.707v8.576h-12.328v36.583h-10.252v-36.583"/><path d="m360.34 175.27h-16.617v10.721h18.559v8.375h-28.811v-45.16h27.873v8.375h-17.621v9.381h16.617v8.307"/><path d="m388.88 157.78h-12.13v-8.576h34.707v8.576h-12.328v36.583h-10.252v-36.583"/><path d="m429.41 194.36l-14.473-45.16h11.189l5.494 19.1c1.541 5.36 2.949 10.52 4.02 16.15h.201c1.139-5.428 2.545-10.787 4.086-15.946l5.762-19.297h10.855l-15.209 45.16h-11.926"/></g></svg>