<svg xmlns="http://www.w3.org/2000/svg" viewBox="0 0 600 600"><g transform="translate(246.6 1177.36)"><path fill="#f9b000" d="m353.39-875.85c-.806 165.66-135.84 299.29-301.51 298.49-165.71-.856-299.29-135.84-298.49-301.51.856-165.71 135.84-299.34 301.51-298.49 165.71.856 299.34 135.84 298.49 301.51"/><g fill="#fff"><path d="m1.824-1079.7h143.65 9.02c26.544.05 50.52 8.361 50.671 38.482.151 34.05-26.494 37.978-50.671 38.532-2.216.05-9.02 0-9.02 0h-134.08-6.951c-7.555-.05-11.131 5.843-12.04 11.08-.101.504-1.36 6.699-1.36 6.699-6.498 39.993-13.549 89.86-13.6 90.26-3.324 19.342-8.16 39.942-35.31 38.18-28.458-1.763-30.675-24.933-28.458-40.04 7.606-52.03 21.16-145.26 21.507-146.67 5.238-20.45 4.634-36.769 38.28-36.517h28.358"/><path d="m-61.24-1042.4c-.604 3.224-9.469 64.07-16.622 113.08l-4.835 33.29c-1.01 6.649-1.612 18.939 5.087 27.2 4.231 5.238 10.93 8.16 19.946 8.714 1.01.101 1.964.101 2.871.101 20.903 0 25.335-15.967 28.66-35.31l.201-1.41c4.835-33.999 9.62-65.53 13.398-88.8v-.151s1.259-5.994 1.36-6.598c1.108-6.498 5.893-14.05 15.514-14.05h2.821 4.231 134.08c.05 0 6.699.05 8.966 0 28.358-.655 47.2-6.85 47.04-34.906-.101-23.371-15.463-34.754-46.994-34.855h-3.324l-169.94.05c-4.181 0-7.455 0-7.757-.05h-.756c-26.19 0-28.509 10.124-32.34 26.847-.504 2.216-1.01 4.483-1.612 6.85m6.447 189.69c-1.058 0-2.216-.05-3.324-.101-11.131-.705-19.593-4.533-25.18-11.434-8.412-10.376-7.757-25.03-6.649-32.84l4.886-33.29c11.534-79.28 16.42-112.57 16.722-113.73.604-2.317 1.108-4.533 1.612-6.749 4.03-17.428 7.455-32.488 39.439-32.488h.806 7.706 169.94 3.375c44.677.101 54.15 22.918 54.25 42.11.201 40.95-36.517 41.806-54.2 42.21-2.267.05-9.167 0-9.167 0h-138.26-2.72c-6.346 0-8.01 5.591-8.462 8.01-.101.554-1.108 5.541-1.36 6.749-3.778 23.22-8.512 54.65-13.348 88.55-.151 1.058-.252 1.612-.252 1.662-2.821 16.471-7.05 41.35-35.812 41.35"/><path d="m14.235-936.22l-11.08 70.67 53.14-.05c26.292-.201 50.07 5.591 65.13 21.05 18.989 19.442 31.48 66.13 4.634 97.62-17.78 20.903-42.562 30.523-75.35 29.566-33.09-.907-65.23-21.709-82.81-33.29-17.18-11.283-40.698-30.977-62.911-4.584-23.824 28.26 11.686 57.47 26.847 69.36 34.2 26.796 82.957 42.41 118.06 43.77 48.1 1.864 86.33-16.02 109.45-35.762 24.13-20.55 53.09-58.02 55.51-114.84 1.864-43.01-13.247-76.81-34.2-101.29-24.03-28.05-66.64-40.14-113.28-42.21-25.18-1.108-53.14 0-53.14 0"/><path d="m-70.55-764.73c-7.908 0-14.96 3.878-21.659 11.786-5.49 6.498-7.757 13.197-7 20.5 1.964 19.14 24.731 36.971 33.29 43.67 35.711 28 83.965 41.806 115.95 43.01 2.267.101 4.483.151 6.699.151 53.44 0 87.94-24.53 100.28-35.06 19.14-16.319 51.628-52.635 54.2-112.22 2.01-47.1-17.03-79.68-33.34-98.77-26.494-30.926-74.8-39.34-110.61-40.899-7.404-.353-15.765-.504-24.832-.504-11.03 0-20.45.252-25.08.403l-9.973 63.47c11.887 0 44.576-.05 48.908-.05h1.259c29.768 0 52.13 7.455 66.49 22.16 10.527 10.779 18.385 28.559 20.5 46.39 2.569 21.356-3.02 41.25-15.665 56.11-18.586 21.759-44.12 31.833-78.27 30.876-34.654-.957-68.45-23.22-84.72-33.898-1.41-.957-2.921-1.964-4.432-2.972-9.772-6.649-20.853-14.15-31.984-14.15m127.33 126.38h-.05c-2.267 0-4.634 0-6.951-.101-33.19-1.31-83.21-15.564-120.23-44.576-9.218-7.253-33.747-26.444-36.01-48.656-.957-9.217 1.964-17.931 8.663-25.94 8.06-9.57 17.226-14.405 27.25-14.405 13.348 0 25.94 8.563 36.06 15.413 1.511 1.01 2.972 2.01 4.382 2.921 15.665 10.326 48.3 31.783 80.892 32.689 31.732.957 55.46-8.311 72.48-28.31 24.882-29.11 14.15-73.59-4.432-92.68-12.945-13.247-33.546-19.996-61.3-19.996l-1.209.05c-5.289 0-52.736.05-53.19.05-1.058 0-2.065-.453-2.77-1.259-.705-.806-1.01-1.914-.856-2.921l11.11-70.7c.252-1.712 1.713-3.02 3.425-3.072.151 0 12.693-.504 28.358-.504 9.167 0 17.629.151 25.13.504 53.44 2.367 93.48 17.377 115.85 43.47 17.18 20.05 37.22 54.35 35.11 103.81-2.669 62.36-36.719 100.38-56.766 117.46-27.401 23.371-65.68 36.769-104.97 36.769"/></g><g fill="#f9b000"><path d="m-30.19-1029.4c2.871 0 6.699 2.972 12.693 2.972 4.584 0 6.246-2.317 6.246-4.886 0-3.879-4.483-4.684-11.182-6.85-6.095-1.964-12.391-4.584-12.391-13.952 0-11.232 8.764-16.571 18.586-16.571 9.419 0 14.657 3.274 14.657 7.807 0 3.173-2.115 5.49-5.238 5.49-3.778 0-5.04-1.964-10.02-1.964-3.173 0-5.39 1.662-5.39 4.231 0 2.972 2.921 3.324 11.03 5.994 6.397 2.116 12.592 5.39 12.592 15.16 0 11.938-8.815 17.276-19.745 17.276-6.901 0-17.327-2.669-17.327-8.462 0-3.224 1.914-6.246 5.49-6.246"/><path d="m15.6-1056.6h-6.598c-3.929 0-6.095-2.166-6.095-5.44 0-3.425 2.166-5.44 6.095-5.44h24.983c3.929 0 6.095 2.01 6.095 5.44 0 3.274-2.166 5.44-6.095 5.44h-6.598v35.01c0 4.13-2.468 6.246-5.893 6.246-3.425 0-5.893-2.115-5.893-6.246v-35.01"/><path d="m51.684-1041.6c0 8.21 3.677 16.12 12.794 16.12 9.07 0 12.743-7.908 12.743-16.12s-3.677-16.12-12.743-16.12c-9.117 0-12.794 7.908-12.794 16.12m38.18 0c0 16.42-10.07 26.998-25.386 26.998s-25.436-10.577-25.436-26.998c0-16.42 10.124-26.998 25.436-26.998s25.386 10.578 25.386 26.998"/><path d="m108.32-1045.2h7.757c3.828 0 6.04-2.518 6.04-5.792 0-3.526-2.72-5.591-6.04-5.591h-7.757v11.383m-11.786-16.42c0-3.778 2.871-5.843 5.893-5.843h14.15c10.477 0 17.276 6.346 17.276 16.02 0 7.606-4.634 13.146-12.04 14.506l10.225 11.03c1.612 1.763 2.468 3.123 2.468 5.087 0 1.662-1.511 5.44-6.04 5.44-3.02 0-4.13-1.058-5.591-2.871l-14.405-18.233h-.151v14.859c0 4.13-2.468 6.246-5.893 6.246s-5.893-2.115-5.893-6.246v-39.993"/><path d="m150.98-1040l-10.124-13.65c-3.727-5.138-4.886-6.598-4.886-9.02 0-3.123 2.77-5.188 6.246-5.188 3.173 0 4.684 2.216 5.944 3.979l8.714 12.391 8.714-12.391c1.209-1.763 2.72-3.979 5.944-3.979 3.475 0 6.246 2.065 6.246 5.188 0 2.418-1.159 3.878-4.886 9.02l-10.124 13.65v18.435c0 4.13-2.468 6.246-5.893 6.246s-5.893-2.115-5.893-6.246v-18.435"/></g></g></svg>