<svg xmlns="http://www.w3.org/2000/svg" viewBox="0 0 600 600"><g transform="translate(81.19 1004.95)"><path fill="#e00440" d="m518.81-703.44c-.856 165.66-135.84 299.29-301.51 298.49-165.66-.856-299.29-135.84-298.49-301.51.856-165.71 135.84-299.34 301.51-298.49 165.71.856 299.34 135.84 298.49 301.51"/><g fill="#fff"><path d="m393.08-635.36c0-30.12-19.291-43.37-49.36-43.37h-30.977-174.43c-2.418 0-4.684-1.259-5.893-3.375-1.259-2.115-1.259-4.735-.05-6.85l73.69-129.1c1.511-2.72 4.684-4.03 7.656-3.224 3.02.756 5.087 3.475 5.087 6.598v118.32h93.94v-164.2c0-43.37-27.703-73.44-72.23-73.44-30.725 0-51.779 7.203-69.26 34.3l-143.3 221.57c-7.253 10.829-18.687 28.912-18.687 47.598 0 16.219 12.04 38.532 48.807 38.532h79.68c.252-.05.504-.101.705-.101h208.78c28.06-1.01 45.836-14.355 45.836-43.27"/><path d="m218.82-551.06c0 34.3 18.08 52.988 46.944 52.988 28.912 0 46.994-18.687 46.994-54.2v-22.16h-93.94v23.371"/></g><g fill="#e00440"><path d="m104.79-622.76c2.921 0 6.699 2.972 12.693 2.972 4.584 0 6.246-2.317 6.246-4.886 0-3.878-4.483-4.684-11.182-6.85-6.095-1.964-12.391-4.583-12.391-13.952 0-11.232 8.764-16.571 18.586-16.571 9.419 0 14.657 3.274 14.657 7.807 0 3.173-2.115 5.49-5.238 5.49-3.778 0-4.987-1.964-10.02-1.964-3.173 0-5.339 1.662-5.339 4.231 0 2.972 2.871 3.324 11.03 5.994 6.346 2.115 12.542 5.389 12.542 15.211 0 11.887-8.814 17.276-19.745 17.276-6.9 0-17.377-2.72-17.377-8.512 0-3.173 1.964-6.246 5.541-6.246"/><path d="m150.59-649.98h-6.598c-3.929 0-6.095-2.166-6.095-5.44 0-3.425 2.166-5.44 6.095-5.44h24.983c3.878 0 6.095 2.01 6.095 5.44 0 3.274-2.216 5.44-6.095 5.44h-6.649v35.01c0 4.13-2.468 6.246-5.843 6.246-3.425 0-5.893-2.115-5.893-6.246v-35.01"/><path d="m186.66-635.03c0 8.21 3.677 16.12 12.794 16.12 9.07 0 12.743-7.908 12.743-16.12s-3.677-16.12-12.743-16.12c-9.117 0-12.794 7.908-12.794 16.12m38.18 0c0 16.42-10.07 26.998-25.386 26.998s-25.436-10.577-25.436-26.998c0-16.42 10.124-26.998 25.436-26.998s25.386 10.577 25.386 26.998"/><path d="m243.28-638.58h7.757c3.878 0 6.04-2.518 6.04-5.792 0-3.475-2.72-5.591-6.04-5.591h-7.757v11.383m-11.736-16.42c0-3.778 2.821-5.843 5.843-5.843h14.15c10.477 0 17.276 6.346 17.276 16.02 0 7.606-4.634 13.146-12.04 14.506l10.225 11.03c1.612 1.763 2.468 3.123 2.468 5.087 0 1.662-1.511 5.44-5.994 5.44-3.072 0-4.181-1.058-5.591-2.871l-14.456-18.233h-.151v14.859c0 4.13-2.468 6.246-5.893 6.246-3.375 0-5.843-2.115-5.843-6.246v-39.993"/><path d="m285.96-633.43l-10.174-13.65c-3.677-5.138-4.835-6.598-4.835-9.02 0-3.123 2.77-5.188 6.246-5.188 3.173 0 4.684 2.216 5.944 3.979l8.714 12.391 8.714-12.391c1.209-1.763 2.72-3.979 5.943-3.979 3.475 0 6.246 2.065 6.246 5.188 0 2.418-1.159 3.878-4.886 9.02l-10.174 13.65v18.435c0 4.13-2.468 6.246-5.843 6.246-3.425 0-5.893-2.115-5.893-6.246v-18.435"/></g></g></svg>