<svg xmlns="http://www.w3.org/2000/svg" viewBox="0 0 600 324.21"><g transform="matrix(.20156 0 0-.20156 0 324.21)"><path fill="#e22526" d="m2976.7 804.2c0-444.14-666.4-804.2-1488.3-804.2-821.97 0-1488.4 360.06-1488.4 804.2 0 444.19 666.43 804.28 1488.4 804.28 821.9 0 1488.3-360.09 1488.3-804.28"/><g fill="#b1211c"><path d="m568.4 903.51c0 7.367 6.04 13.344 13.36 13.344h147.59c7.363 0 15.82.55 18.804 1.187l1.821 1.219c1.793 1.226 2.965 3.039 2.965 6.06 0 4.227-2.965 6.02-5.418 7.223-4.188 2.383-10.832 4.223-36.19 12.668l-56.01 18.203c-7.01 2.266-18.27 6.426-25.05 9.235 0 0-41.34 17.199-53.42 37.09-9.04 15.08-12.03 38.04-12.03 53.69 0 19.9 3.589 40.42 15.08 57.3 16.886 25.34 40.984 30.18 74.19 30.18h200.14c7.344 0 13.371-6.01 13.371-13.37v-55.33c0-7.32-6.03-13.35-13.371-13.35h-147.01c-7.32 0-17.441.28-22.398.59l-4.832-1.21c-3.02-.59-5.407-1.18-5.407-5.41 0-4.82 2.981-6.04 6.629-7.24 14.485-4.81 10.266-4.21 24.11-9.06l68.19-22.89c6.942-2.3 18.32-6.31 25.23-8.77 0 0 45.929-16.59 61-38.907 15.08-21.687 16.304-47.637 16.304-61.49 0-23.547-4.855-50.656-26.59-68.2-16.843-13.227-36.19-15.08-52.47-15.08h-215.21c-7.32 0-13.36 6.06-13.36 13.402v58.918"/><path d="m1070.2 829.29c-23.51 0-66.31 0-98.89 21.746-26.543 18.07-40.41 49.45-40.41 78.4v124.18c0 7.35-6.03 13.35-13.391 13.35h-18.484c-7.363 0-13.359 6.04-13.359 13.34v55.34c0 7.35 5.996 13.36 13.359 13.36h18.484c7.364 0 13.391 6 13.391 13.34v75.81c0 7.37 5.992 13.39 13.336 13.39h91.5c7.35 0 13.35-6.02 13.35-13.39v-75.81c0-7.34 6.01-13.34 13.37-13.34h64.38c7.32 0 13.29-6.01 13.29-13.36v-55.34c0-7.3-5.97-13.34-13.29-13.34h-64.38c-7.36 0-13.37-6-13.37-13.35v-46.26c0-7.34.34-19.381.86-26.705 0 0 2.21-34.922 19.66-50.594 16.28-14.465 36.79-15.07 51.88-15.07h4.11c7.39 0 13.35-6 13.35-13.368v-58.914c0-7.328-5.96-13.406-13.35-13.406h-55.39"/><path d="m1261.9 1149c7.35 0 13.39-6.01 13.39-13.36v-132.53c0-7.348.64-19.321 1.41-26.626 0 0 3.43-31.929 10.02-41.621 13.3-18.711 36.21-19.886 50.07-19.886h8.34c7.38 0 19.32.855 26.58 1.957 0 0 3.08.449 7.28 4.687 6.1 6.02 6.1 13.242 6.1 19.301v194.72c0 7.35 5.96 13.36 13.32 13.36h91.52c7.31 0 13.34-6.01 13.34-13.36v-227.81c0-7.363-.41-19.359-.89-26.684 0 0-1.55-22.867-19.01-37.33-16.31-13.277-38.63-14.527-51.88-14.527h-131.4c-7.35 0-19.28 1.102-26.49 2.449 0 0-59.86 10.852-76.16 24.727-33.15 27.13-40.39 69.976-40.39 118.2v160.97c0 7.35 6.02 13.36 13.34 13.36h91.51"/><path d="m1739.6 1067c7.39 0 13.38-6 13.38-13.35v-115.71c0-4.851 0-16.277-6.03-21.746-1.19-1.175-4.42-1.914-4.42-1.914-7.22-1.593-19.09-2.875-26.39-2.875h-15.05c-10.26 0-31.35 2.426-42.21 23.5-5.45 10.266-8.44 25.36-8.44 55.52 0 17.457 1.19 40.997 12.66 57.29 6.64 9.64 18.68 19.29 37.99 19.29h38.51zm26.72 184.58c-7.38 0-13.34-6.02-13.34-13.39v-75.81c0-7.34-5.99-13.34-13.38-13.34h-77.69c-33.17 0-78.42-6.04-106.17-45.24-21.7-30.76-23.54-67.56-23.54-106.77 0-39.22 1.84-76.01 14.49-106.17 16.27-39.785 54.91-61.53 114.09-61.53h145.25c17.5 0 41.03 1.25 54.92 21.746 8.4 12.06 9.49 32.52 9.49 32.52.37 7.343.75 19.34.75 26.691v327.9c0 7.37-6 13.39-13.34 13.39h-91.53"/><path d="m1907.4 1135.6c0 7.35 5.99 13.36 13.34 13.36h91.52c7.3 0 13.38-6.01 13.38-13.36v-292.94c0-7.328-6.08-13.406-13.38-13.406h-91.52c-7.35 0-13.34 6.078-13.34 13.406v292.94m13.34 45.33c-7.35 0-13.34 5.97-13.34 13.32v43.86c0 7.37 5.99 13.39 13.34 13.39h91.52c7.3 0 13.38-6.02 13.38-13.39v-43.86c0-7.35-6.08-13.32-13.38-13.32h-91.52"/><path d="m2175.1 989.15c0 37.412 7.31 51.29 11.5 57.31 6.04 7.84 19.91 20.5 52.48 20.5 32.51 0 46.43-12.66 52.43-20.5 6.03-8.45 11.46-23.54 11.46-57.31 0-22.925-2.4-42.82-12.03-56.1-5.43-7.813-19.96-21.684-51.86-21.684-36.19 0-50.07 18.07-52.48 21.684-4.86 6.652-11.5 21.14-11.5 56.1m63.98 163.47c-50.72 0-107.4-1.83-142.32-32.57-39.86-35.58-42.27-98.95-42.27-130.9 0-31.964 2.41-95.29 42.27-130.87 34.92-30.789 91.6-32.597 142.32-32.597 50.63 0 107.35 1.808 142.35 32.597 39.78 35.574 42.19 98.9 42.19 130.87 0 31.952-2.41 95.32-42.19 130.9-35 30.74-91.72 32.57-142.35 32.57"/><path d="m529.76 645.64c0 7.34 6.02 13.367 13.387 13.367h40.29c9.667 0 28.968-1.816 39.21-24.727 2.421-5.429 7.843-19.941 7.843-50.05 0-31.993-4.824-46.47-8.418-54.29-6.664-13.281-28.07-18.562-28.07-18.562-7.129-1.758-18.953-3.164-26.336-3.164h-10.754c-5.422 0-15.1 0-21.13 5.426-6.02 6.02-6.02 18.08-6.02 23.547v108.45zm-104.84 199.13c-7.344 0-13.348-5.997-13.348-13.364v-350.94c0-15.1 2.981-27.762 13.879-39.19 15.664-16.922 37.899-18.05 37.899-18.05 7.351-.332 19.367-.657 26.691-.657h127.19c31.344 0 84.44 5.442 112.77 53.07 13.242 22.312 21.11 54.3 21.11 107.37 0 32.578-1.222 74.18-21.711 107.38-30.12 49.41-100.63 51.46-100.63 51.46-7.364.215-19.344.379-26.711.379h-58.914c-7.364 0-13.387 5.996-13.387 13.364v75.81c0 7.367-5.981 13.364-13.34 13.364h-91.5"/><path d="m780.1 607.73c0 30.782 2.395 75.4 37.961 104.34 35.02 28.985 86.91 30.16 118.19 30.16h65.06c7.35 0 13.38-5.992 13.38-13.355v-56.53c0-7.344-6.03-13.34-13.38-13.34h-14.255c-7.375 0-19.34-.41-26.684-.926 0 0-31.3-2.101-46.4-22.01-13.868-18.661-15.68-42.821-15.68-60.918v-139.25c0-7.305-5.996-13.325-13.313-13.325h-91.56c-7.363 0-13.313 6.02-13.313 13.325v171.84"/><path d="m1137.6 742.23c7.37 0 13.34-5.992 13.34-13.355v-132.51c0-7.363.7-19.355 1.47-26.66 0 0 3.43-31.953 10.06-41.602 13.24-18.71 36.15-19.89 50.05-19.89h8.32c7.36 0 19.32.859 26.56 1.93 0 0 3.1.507 7.34 4.679 6.02 6.03 6.02 13.281 6.02 19.317v194.74c0 7.363 5.98 13.355 13.33 13.355h91.51c7.37 0 13.34-5.992 13.34-13.355v-227.8c0-7.363-.36-19.386-.91-26.687 0 0-1.48-22.891-18.96-37.36-16.31-13.261-38.6-14.465-51.88-14.465h-131.4c-56.31 0-86.37 13.254-102.62 27.17-33.19 27.14-40.41 69.926-40.41 118.22v160.93c0 7.363 6.03 13.355 13.38 13.355h91.46"/><path d="m1411.6 494.88c0 7.324 5.98 13.34 13.33 13.34h147.59c7.35 0 15.78.527 18.77 1.18l1.8 1.257c1.84 1.196 3.02 2.989 3.02 6.01 0 4.199-3.02 6.02-5.44 7.195-4.16 2.434-10.84 4.25-36.19 12.68l-56.05 18.211c-6.98 2.305-18.23 6.465-25.03 9.219 0 0-41.33 17.207-53.4 37.16-9.06 15.05-12.03 37.938-12.03 53.648 0 19.895 3.63 40.39 15.09 57.3 16.87 25.352 40.99 30.16 74.15 30.16h200.17c7.39 0 13.35-5.992 13.35-13.355v-55.33c0-7.344-5.96-13.34-13.35-13.34h-146.97c-7.34 0-17.46.262-22.44.586l-4.84-1.203c-3.01-.586-5.39-1.219-5.39-5.43 0-4.812 3.03-5.996 6.56-7.219 14.51-4.812 10.27-4.246 24.14-9.06l68.22-22.891c6.94-2.375 18.32-6.301 25.22-8.789 0 0 45.92-16.574 61.01-38.867 15.09-21.711 16.27-47.676 16.27-61.57 0-23.496-4.85-50.586-26.56-68.13-16.85-13.274-36.19-15.06-52.48-15.06h-215.19c-7.35 0-13.33 6.02-13.33 13.325v58.984"/><path d="m1744.5 494.88c0 7.324 5.99 13.34 13.3 13.34h147.62c7.39 0 15.8.527 18.81 1.18l1.8 1.257c1.8 1.196 3.01 2.989 3.01 6.01 0 4.199-3.01 6.02-5.41 7.195-4.26 2.434-10.86 4.25-36.19 12.68l-56.04 18.211c-7.01 2.305-18.32 6.465-25.05 9.219 0 0-41.34 17.207-53.37 37.16-9.14 15.05-12.11 37.938-12.11 53.648 0 19.895 3.63 40.39 15.09 57.3 16.85 25.352 40.97 30.16 74.13 30.16h200.19c7.33 0 13.35-5.992 13.35-13.355v-55.33c0-7.344-6.02-13.34-13.35-13.34h-147.02c-7.29 0-17.33.262-22.36.586l-4.85-1.203c-2.97-.586-5.43-1.219-5.43-5.43 0-4.812 3.07-5.996 6.66-7.219 14.43-4.812 10.23-4.246 24.1-9.06l68.18-22.891c6.94-2.375 18.32-6.301 25.22-8.789 0 0 45.96-16.574 61.01-38.867 15.04-21.711 16.27-47.676 16.27-61.57 0-23.496-4.82-50.586-26.52-68.13-16.85-13.274-36.19-15.06-52.51-15.06h-215.23c-7.31 0-13.3 6.02-13.3 13.325v58.984"/><path d="m2205.4 624.04c-7.38 0-13.26 5.992-13.14 13.317 0 0 .37 15.586 12.36 22.24 8.54 4.812 27.22 5.41 41.1 5.41 5.99 0 21.7-.598 31.29-2.355 17.55-3.641 21.79-13.297 21.79-21.747 0-6.03-2.46-16.863-19.3-16.863h-74.1m186.76-201.47c7.35 0 13.34 6.02 13.34 13.325v58.984c0 7.324-5.99 13.34-13.34 13.34h-141.68c-21.09 0-42.75-1.223-53.03 15.09-4.21 6.64-4.57 12.578-4.57 12.578-.49 7.344 5.14 13.359 12.52 13.359h160.88c10.9 0 21.17.598 31.43 9.02 18.07 14.461 19.3 38.01 19.3 58.5 0 34.992-3.64 82.63-34.4 107.41-25.35 20.441-67.54 21.66-132.13 21.66-60.3 0-121.17-1.219-150.76-31.33-28.93-29.578-25.92-77.2-25.92-135.74 0-57.918 2.39-91.68 16.29-114.58 25.35-41.633 65.74-41.633 113.35-41.633h188.72"/><path d="m2445.9 831.41c0 7.367 6.04 13.364 13.42 13.364h91.52c7.27 0 13.3-5.997 13.3-13.364v-395.52c0-7.305-6.03-13.325-13.3-13.325h-91.52c-7.38 0-13.42 6.02-13.42 13.325v395.52"/></g><g fill="#fff"><path d="m549.93 921.95c0 7.363 6.03 13.36 13.355 13.36h147.6c7.383 0 15.809.55 18.812 1.207l1.801 1.226c1.801 1.199 3.02 3.02 3.02 6.03 0 4.207-3.02 6.02-5.414 7.223-4.242 2.41-10.867 4.246-36.24 12.652l-56.03 18.2c-6.949 2.285-18.19 6.453-25.06 9.285 0 0-41.28 17.18-53.36 37.08-9.05 15.07-12.05 38-12.05 53.68 0 19.9 3.578 40.41 15.07 57.31 16.875 25.3 40.988 30.18 74.18 30.18h200.16c7.375 0 13.386-6.04 13.386-13.38v-55.34c0-7.32-6.01-13.34-13.386-13.34h-147.03c-7.316 0-17.406.28-22.355.59l-4.856-1.21c-3.01-.59-5.398-1.19-5.398-5.43 0-4.8 2.977-6.02 6.59-7.22 14.48-4.84 10.262-4.21 24.11-9.05l68.19-22.89c6.976-2.32 18.32-6.32 25.23-8.8 0 0 45.93-16.57 61.01-38.915 15.07-21.672 16.301-47.598 16.301-61.47 0-23.528-4.817-50.684-26.567-68.16-16.839-13.262-36.15-15.1-52.45-15.1h-215.25c-7.324 0-13.355 6.04-13.355 13.363v58.922"/><path d="m1051.8 847.79c-23.52 0-66.31 0-98.89 21.703-26.55 18.1-40.41 49.43-40.41 78.4v124.18c0 7.33-6.01 13.35-13.367 13.35h-18.516c-7.351 0-13.347 6-13.347 13.35v55.32c0 7.36 5.996 13.38 13.347 13.38h18.516c7.359 0 13.367 6 13.367 13.32v75.83c0 7.34 5.996 13.38 13.313 13.38h91.53c7.36 0 13.35-6.04 13.35-13.38v-75.83c0-7.32 6.03-13.32 13.42-13.32h64.3c7.35 0 13.35-6.02 13.35-13.38v-55.32c0-7.35-6-13.35-13.35-13.35h-64.3c-7.39 0-13.42-6.02-13.42-13.35v-46.26c0-7.37.4-19.4.85-26.715 0 0 2.2-34.906 19.64-50.589 16.3-14.442 36.83-15.1 51.9-15.1h4.12c7.36 0 13.39-5.996 13.39-13.34v-58.945c0-7.324-6.03-13.34-13.39-13.34h-55.4"/><path d="m1243.5 1167.5c7.32 0 13.35-6.02 13.35-13.38v-132.54c0-7.33.63-19.31 1.4-26.615 0 0 3.43-31.945 10.03-41.613 13.27-18.691 36.2-19.914 50.05-19.914h8.36c7.35 0 19.36.898 26.61 1.996 0 0 3.04.43 7.29 4.652 6.04 6.02 6.04 13.266 6.04 19.301v194.73c0 7.36 5.98 13.38 13.35 13.38h91.47c7.34 0 13.36-6.02 13.36-13.38v-227.83c0-7.343-.39-19.32-.88-26.683 0 0-1.52-22.871-19.02-37.32-16.29-13.277-38.58-14.48-51.84-14.48h-131.42c-7.36 0-19.27 1.039-26.51 2.383 0 0-59.81 10.879-76.11 24.75-33.17 27.13-40.38 69.976-40.38 118.2v160.97c0 7.36 5.98 13.38 13.31 13.38h91.54"/><path d="m1721.2 1085.4c7.35 0 13.35-6.02 13.35-13.35v-115.71c0-4.851 0-16.301-6.05-21.726-1.17-1.223-4.43-1.934-4.43-1.934-7.19-1.574-19.03-2.883-26.37-2.883h-15.02c-10.23 0-31.33 2.41-42.23 23.508-5.37 10.258-8.48 25.356-8.48 55.52 0 17.47 1.22 41 12.68 57.28 6.7 9.65 18.69 19.3 38.03 19.3h38.52zm26.73 184.58c-7.38 0-13.38-6.04-13.38-13.38v-75.83c0-7.32-6-13.32-13.35-13.32h-77.72c-33.18 0-78.44-6.06-106.17-45.28-21.7-30.74-23.5-67.52-23.5-106.73 0-39.21 1.8-76.01 14.48-106.19 16.29-39.785 54.88-61.49 114.09-61.49h145.2c17.56 0 41.1 1.203 54.92 21.703 8.46 12.08 9.52 32.524 9.52 32.524.41 7.308.7 19.335.7 26.664v327.95c0 7.34-5.97 13.38-13.26 13.38h-91.53"/><path d="m1889 1154.1c0 7.36 5.92 13.38 13.34 13.38h91.48c7.31 0 13.34-6.02 13.34-13.38v-292.97c0-7.324-6.03-13.34-13.34-13.34h-91.48c-7.42 0-13.34 6.02-13.34 13.34v292.97m13.34 45.32c-7.42 0-13.34 5.97-13.34 13.33v43.88c0 7.34 5.92 13.38 13.34 13.38h91.48c7.31 0 13.34-6.04 13.34-13.38v-43.88c0-7.36-6.03-13.33-13.34-13.33h-91.48"/><path d="m2156.7 1007.6c0 37.39 7.25 51.27 11.41 57.28 6.05 7.88 19.92 20.53 52.52 20.53s46.42-12.65 52.47-20.53c6.04-8.43 11.47-23.51 11.47-57.28 0-22.913-2.36-42.823-12.07-56.1-5.45-7.813-19.88-21.692-51.87-21.692-36.19 0-50.06 18.07-52.52 21.692-4.73 6.668-11.41 21.13-11.41 56.1m63.93 163.47c-50.63 0-107.34-1.83-142.33-32.58-39.82-35.6-42.22-98.92-42.22-130.89 0-31.932 2.4-95.28 42.22-130.9 34.99-30.723 91.7-32.559 142.33-32.559 50.68 0 107.4 1.836 142.36 32.559 39.79 35.625 42.23 98.97 42.23 130.9 0 31.97-2.44 95.29-42.23 130.89-34.96 30.75-91.68 32.58-142.36 32.58"/><path d="m511.28 664.12c0 7.324 6.05 13.34 13.363 13.34h40.33c9.672 0 28.961-1.797 39.21-24.727 2.386-5.429 7.812-19.91 7.812-50.08 0-31.933-4.789-46.43-8.402-54.26-6.653-13.253-28.06-18.562-28.06-18.562-7.137-1.731-18.953-3.137-26.332-3.137h-10.773c-5.383 0-15.03 0-21.09 5.43-6.05 6.02-6.05 18.07-6.05 23.476v108.52zm-104.85 199.11c-7.34 0-13.329-6.03-13.329-13.355v-350.92c0-15.11 3.01-27.766 13.868-39.21 15.683-16.922 37.902-18.05 37.902-18.05 7.32-.359 19.367-.691 26.68-.691h127.21c31.375 0 84.43 5.457 112.77 53.09 13.282 22.304 21.12 54.3 21.12 107.34 0 32.598-1.187 74.22-21.683 107.4-30.18 49.43-100.62 51.49-100.62 51.49-7.383.207-19.367.371-26.735.371h-58.961c-7.312 0-13.363 5.996-13.363 13.34v75.832c0 7.324-5.996 13.355-13.308 13.355h-91.54"/><path d="m761.62 626.21c0 30.742 2.445 75.36 37.988 104.32 34.989 28.965 86.88 30.18 118.22 30.18h65c7.363 0 13.43-6 13.43-13.351v-56.55c0-7.344-6.067-13.34-13.43-13.34h-14.219c-7.383 0-19.367-.41-26.726-.898 0 0-31.25-2.122-46.35-22.01-13.894-18.711-15.683-42.852-15.683-60.938v-139.22c0-7.344-6.04-13.387-13.348-13.387h-91.52c-7.363 0-13.359 6.04-13.359 13.387v171.82"/><path d="m1119.2 760.7c7.36 0 13.41-6 13.41-13.351v-132.53c0-7.344.59-19.355 1.39-26.679 0 0 3.39-31.922 10.06-41.582 13.26-18.704 36.16-19.864 50.03-19.864h8.37c7.36 0 19.27.879 26.55 1.953 0 0 3.11.45 7.31 4.629 6.01 6.03 6.01 13.282 6.01 19.317v194.75c0 7.347 6.05 13.351 13.39 13.351h91.46c7.36 0 13.39-6 13.39-13.351v-227.84c0-7.344-.46-19.336-.91-26.68 0 0-1.53-22.871-19.01-37.34-16.27-13.254-38.6-14.48-51.84-14.48h-131.45c-56.3 0-86.33 13.308-102.57 27.18-33.22 27.13-40.43 69.961-40.43 118.2v160.96c0 7.347 6.02 13.351 13.37 13.351h91.47"/><path d="m1393.1 513.33c0 7.352 5.98 13.367 13.36 13.367h147.6c7.34 0 15.74.528 18.72 1.16l1.82 1.243c1.9 1.191 3.03 3.03 3.03 6.04 0 4.171-3.03 6.01-5.43 7.199-4.24 2.383-10.84 4.219-36.19 12.676l-56.08 18.2c-6.99 2.262-18.22 6.406-25 9.258 0 0-41.34 17.17-53.43 37.09-9.03 15.1-12.03 37.992-12.03 53.703 0 19.863 3.63 40.37 15.09 57.26 16.85 25.313 40.98 30.18 74.14 30.18h200.16c7.34 0 13.34-6 13.34-13.351v-55.33c0-7.379-6-13.356-13.34-13.356h-146.93c-7.39 0-17.46.262-22.42.594l-4.85-1.199c-3.05-.598-5.44-1.25-5.44-5.414 0-4.813 3.02-6.04 6.59-7.262 14.52-4.817 10.3-4.199 24.16-9.05l68.15-22.851c6.97-2.364 18.36-6.329 25.25-8.809 0 0 45.9-16.57 61-38.887 15.1-21.726 16.33-47.636 16.33-61.53 0-23.527-4.87-50.656-26.57-68.15-16.89-13.278-36.19-15.09-52.48-15.09h-215.19c-7.38 0-13.36 6.04-13.36 13.387v58.937"/><path d="m1726 513.33c0 7.352 6.03 13.367 13.34 13.367h147.59c7.39 0 15.83.528 18.8 1.16l1.75 1.243c1.88 1.191 3.11 3.03 3.11 6.04 0 4.171-3.11 6.01-5.47 7.199-4.2 2.383-10.8 4.219-36.19 12.676l-56.06 18.2c-6.97 2.262-18.24 6.406-24.98 9.258 0 0-41.36 17.17-53.4 37.09-9.06 15.1-12.12 37.992-12.12 53.703 0 19.863 3.63 40.37 15.09 57.26 16.9 25.313 40.98 30.18 74.22 30.18h200.14c7.34 0 13.3-6 13.3-13.351v-55.33c0-7.379-5.96-13.356-13.3-13.356h-147.01c-7.31 0-17.38.262-22.37.594l-4.84-1.199c-3.03-.598-5.43-1.25-5.43-5.414 0-4.813 2.97-6.04 6.61-7.262 14.49-4.817 10.25-4.199 24.15-9.05l68.11-22.851c7.01-2.364 18.36-6.329 25.29-8.809 0 0 45.9-16.57 60.96-38.887 15.1-21.726 16.33-47.636 16.33-61.53 0-23.527-4.87-50.656-26.57-68.15-16.85-13.278-36.15-15.09-52.48-15.09h-215.23c-7.31 0-13.34 6.04-13.34 13.387v58.937"/><path d="m2186.9 642.5c-7.31 0-13.21 6.02-13.05 13.34 0 0 .33 15.586 12.37 22.22 8.43 4.832 27.2 5.437 41.05 5.437 6.04 0 21.7-.605 31.33-2.402 17.5-3.633 21.74-13.262 21.74-21.707 0-6.05-2.41-16.887-19.34-16.887h-74.1m186.83-201.49c7.31 0 13.36 6.04 13.36 13.387v58.937c0 7.352-6.05 13.367-13.36 13.367h-141.66c-21.13 0-42.8-1.23-53.04 15.06-4.24 6.64-4.61 12.597-4.61 12.597-.49 7.356 5.17 13.329 12.48 13.329h160.98c10.85 0 21.13.586 31.37 9.03 18.12 14.492 19.29 38.01 19.29 58.51 0 34.981-3.61 82.64-34.36 107.38-25.37 20.488-67.55 21.719-132.11 21.719-60.31 0-121.23-1.231-150.8-31.387-28.93-29.539-25.87-77.19-25.87-135.72 0-57.911 2.36-91.66 16.25-114.56 25.33-41.66 65.72-41.66 113.46-41.66h188.62"/><path d="m2427.5 849.88c0 7.324 6 13.355 13.38 13.355h91.48c7.35 0 13.35-6.03 13.35-13.355v-395.48c0-7.344-6-13.387-13.35-13.387h-91.48c-7.38 0-13.38 6.04-13.38 13.387v395.48"/></g></g></svg>