<svg xmlns="http://www.w3.org/2000/svg" height="278.93" width="600" viewBox="0 0 158.75 73.800608"><g fill-rule="evenodd" transform="translate(-91.69-22.873)"><g fill="#fff"><path d="m176.44 86.61v.259c.22.021.48.089.48.39v8.224c0 .306-.26.369-.43.39v.259h3.72v-.259c-.3-.021-.56-.084-.56-.39v-2.895h2.08c.17.365 1.64 2.72 1.64 3 0 .217-.32.28-.51.28v.259h4.36v-.259c-.3 0-.6-.195-.76-.438l-1.92-2.894c1.34-.518 2.4-1.363 2.4-2.92 0-1.976-1.42-3.01-3.55-3.01zm3.21 1.822h2.92c1.27 0 1.64.497 1.64 1.162 0 .787-.58 1.172-1.48 1.172h-3.08z"/><path d="m203.91 86.61v.259c.21.021.27.063.27.216 0 .301-2 4.521-3.73 8.567-.07.153-.26.216-.44.216v.264h3.25v-.264c-.09 0-.28 0-.28-.19 0-.243.49-1.083.63-1.479h5.02c.15.396.62 1.236.62 1.479 0 .19-.19.19-.28.19v.264h3.59v-.264c-.17 0-.37-.063-.43-.216-.95-2.229-3.98-8.308-3.98-8.567 0-.153.07-.195.28-.216v-.259zm2.16 2.25l1.82 3.787h-3.59z"/><path d="m125.26 86.83c.45.036.5.163.5.327v4.875c0 1.399-.83 1.964-2.29 1.964-1.45 0-2.29-.565-2.29-1.964v-4.875c0-.164.06-.291.51-.327v-.217h-3.75v.217c.46.036.52.163.52.327v4.875c0 3.2 2.23 4.256 5.01 4.256 2.79 0 5.03-1.056 5.03-4.256v-4.875c0-.164.05-.291.5-.327v-.217h-3.74z"/><path d="m138.96 95.87v.264h4.01v-.264c-.35-.021-.61-.084-.61-.385v-8.223c0-.301.26-.37.61-.391v-.259h-3.81v.259c.34.021.6.09.6.391v4.262c-1.82-1.97-3.91-4.115-3.91-4.262 0-.301.26-.37.45-.391v-.259h-5.15v.259c.32.021.58.09.58.391v8.223c0 .301-.26.364-.54.385v.264h3.71v-.264c-.31-.021-.57-.084-.57-.385v-5.673c2.49 2.815 5.26 5.282 5.26 5.778 0 .259-.41.28-.63.28"/><path d="m149.58 95.87c-.43-.021-.68-.084-.68-.385v-8.223c0-.301.25-.37.68-.391v-.259h-4.28v.259c.43.021.69.09.69.391v8.223c0 .301-.26.364-.69.385v.264h4.28z"/><path d="m158.51 86.87c.13 0 .5 0 .5.216 0 .19-1.49 3.681-2.25 5.519-.19-.649-1.99-5.281-1.99-5.519 0-.216.36-.216.54-.216v-.259h-4.09v.259c.11 0 .2 0 .37.111.3.19 3.07 8.455 3.07 8.545 0 .232-.26.369-.46.343v.264h4.57v-.264c-.2.026-.45-.111-.45-.343 0-.174 3.07-7.447 3.35-8.355.07-.211.21-.28.46-.301v-.259h-3.62z"/><path d="m173.58 88.51c.18 0 .4.09.4.523h.26v-2.905h-.26c0 .396-.22.481-.4.481h-9.82v.259c.3.021.61.084.61.391v8.223c0 .301-.31.369-.61.39v.254h9.65c.35 0 .46.063.6.459h.23v-2.899h-.26c-.09.391-.31.539-.57.539h-6.14v-2.139h4.07c.17 0 .38.084.38.496h.26v-2.815h-.26c0 .412-.21.497-.38.497h-4.07v-1.754z"/><path d="m192.1 89.38c0-.95 1.93-.95 2.46-.95 1.46 0 2.99.586 2.99.797 0 .09-.02.18-.02.243l.28.127 1.3-2.725-.24-.09c-.11.09-.23.264-.48.264-.47 0-2.25-.565-4.3-.565-3.53 0-4.81 1.88-4.81 3.227 0 3.628 7.08 1.986 7.08 3.676 0 .845-1.43.934-1.96.934-1.76 0-4.25-.565-4.25-1.13 0-.111.03-.169.03-.237l-.29-.127-.88 2.894.24.074c.14-.159.3-.306.49-.306.17 0 2.6.776 4.68.776 3.31 0 4.75-1.468 4.75-3.158 0-3.771-7.07-2.187-7.07-3.724"/><path d="m223.92 93.38c0 .459-.21.544-.39.544h-5.93v-6.671c0-.301.26-.369.57-.385v-.264h-4.05v.264c.32.016.58.084.58.385v8.229c0 .301-.26.369-.58.39v.254h9.41c.18 0 .39.09.39.544h.26v-3.29z"/></g><path d="m235.52 40.645v-1.468c-1.03-.555-2.1-1.099-3.2-1.643-16.47-8.112-40.27-14.661-61.53-14.661s-45.07 6.549-61.54 14.661c-1.09.544-2.16 1.088-3.19 1.643v1.468s25.74-12.07 64.73-12.237c38.98.164 64.73 12.237 64.73 12.237" fill="#ffd105"/><g fill="#fff"><path d="m176.36 45.48v30.441l11.94-.005c8.94 0 15.69-6.544 15.69-15.215 0-4.125-1.55-7.869-4.37-10.547-3.18-3.02-7.19-4.674-11.3-4.674zm3.7 3.686h8.26c3.47 0 6.56 1.585 8.75 3.66 2.12 2.01 3.22 4.806 3.22 7.875 0 6.548-5.01 11.529-11.99 11.529h-8.23zm1.2 1.125v20.846h7.04c3.04 0 5.85-1.162 7.9-3.269 1.89-1.933 2.89-4.421 2.83-7.01 0-2.926-1.06-5.377-3.25-7.5-2.03-1.975-4.69-3.063-7.48-3.063zm3.69 3.687h3.35c1.82 0 3.56.718 4.9 2.02 1.48 1.431 2.13 2.926 2.13 4.859.04 1.685-.6 3.227-1.79 4.442-1.35 1.389-3.21 2.149-5.24 2.149h-3.35z"/><path d="m104.44 45.01c-3.56.016-6.291 1.01-8.213 2.947-1.748 1.77-2.651 4.231-2.625 7.109.201 4.943 3.655 8.117 10.278 9.564 1.57.344 4.4.909 4.4 2.298 0 .644-.34 1.156-1.39 1.288-.68.085-1.6-.058-2.55-.295-1.25-.317-2.93-.956-4.585-2.039l-2.657-1.764-5.408 6.871 3.401 2.192c2.218 1.426 5.639 3.322 9.849 3.359.23.001.49.016.76.016 5.57 0 11.22-3.053 11.22-9.913-.03-2.805-.99-7.532-9.66-9.866 0 0-2.66-.623-3.72-1.014-.34-.127-1.26-.433-1.29-1.151-.02-.317.18-.893.87-1.125.29-.106.64-.175 1.17-.164 1.07.016 2.69.56 4.61 1.579l2.93 1.616 4.83-6.95-3.52-1.991c-2.13-1.194-5.03-2.567-8.7-2.567m-.05 3.644c2.67-.001 4.92.956 6.94 2.092l-.67.977c-2.24-1.236-3.7-1.939-6.34-1.928-.76.005-1.44.042-2.06.19-.6.143-1.08.407-1.52.655-.59.338-1.044.814-1.387 1.3-.565.786-.813 1.668-.824 2.635-.058 3.892 3.771 4.764 7.841 5.767 2.75.676 4.45 1.669 5.45 2.741 1.13 1.194 1.43 2.503 1.45 3.596 0 .206 0 .428-.001.623-.18 2.303-1.43 3.925-2.93 4.748-1.9 1.041-3.86.993-4.89.967-.79 0-2.2-.195-3.04-.401-1.91-.475-3.638-1.458-5.296-2.53l.802-1.014c1.701 1.114 3.194 1.949 4.844 2.355.46.111.89.217 1.41.302.38.058.82.105 1.35.105 1.94.011 2.78-.127 4.01-.734 1.69-.835 2.53-2.477 2.53-4.046.001-1.294-.47-2.345-1.24-3.184-1.33-1.463-3.63-2.282-6.14-2.826-5.38-1.172-7.26-3.248-7.371-6.02-.011-1.426.29-2.598.924-3.596.449-.708 1.088-1.358 1.887-1.801.57-.322 1.18-.624 1.96-.793.7-.147 1.49-.179 2.32-.185"/><path d="m207.1 45.48v30.436h8.69v-30.436zm3.69 3.681h1.31v23.07h-1.31z"/><path d="m145.82 45.48v17.223c0 8.529 4.87 13.614 13.06 13.614 8.3 0 13.23-5.16 13.23-13.81v-17.03h-8.69v17.259c0 3.38-1.53 5.091-4.53 5.091-2.91 0-4.38-1.774-4.38-5.286v-17.06zm3.69 3.686h1.31v13.383c0 5.535 3.04 8.867 8.07 8.867 5.02 0 8.22-3.258 8.22-8.677v-13.573h1.31v13.346c0 6.544-3.21 10.219-9.54 10.219-6.23 0-9.37-3.617-9.37-10.03z"/><path d="m117.95 45.48v8.666h8.24v21.77h8.68v-21.77h8.25v-8.666zm3.7 3.686h17.77v1.294h-8.23v21.764h-1.32v-21.764h-8.22z"/><path d="m234.68 45.01c-8.71 0-15.77 7.02-15.77 15.685 0 8.667 7.06 15.691 15.77 15.691 8.7 0 15.76-7.02 15.76-15.691 0-8.661-7.06-15.685-15.76-15.685m0 3.781c6.61 0 11.99 5.356 11.99 11.936 0 6.586-5.38 11.941-11.99 11.941-6.62 0-12-5.355-12-11.941 0-6.58 5.38-11.936 12-11.936m0 1.231c-5.94 0-10.77 4.801-10.77 10.705s4.83 10.71 10.77 10.71c5.93 0 10.76-4.806 10.76-10.71s-4.83-10.705-10.76-10.705m0 3.781c3.84 0 6.96 3.1 6.96 6.924 0 3.829-3.12 6.929-6.96 6.929-3.85 0-6.97-3.1-6.97-6.929 0-3.824 3.12-6.924 6.97-6.924"/></g></g></svg>