<?xml version="1.0" encoding="UTF-8" standalone="no"?>
<!-- Created with Inkscape (http://www.inkscape.org/) -->
<svg xmlns:rdf="http://www.w3.org/1999/02/22-rdf-syntax-ns#" xmlns="http://www.w3.org/2000/svg" height="196.1" width="600.01" version="1.1" xmlns:cc="http://creativecommons.org/ns#" xmlns:dc="http://purl.org/dc/elements/1.1/">
 <metadata>
  <rdf:RDF>
   <cc:Work rdf:about="">
    <dc:format>image/svg+xml</dc:format>
    <dc:type rdf:resource="http://purl.org/dc/dcmitype/StillImage"/>
    <dc:title/>
   </cc:Work>
  </rdf:RDF>
 </metadata>
 <g transform="translate(1487.8605,396.9721)">
  <g transform="matrix(0.45449981,0,0,0.45449981,-647.97814,-163.06093)">
   <path fill-rule="nonzero" fill="#48c4e5" d="m-1847.9-83.187,840,0,0-431.47-840,0,0,431.47z"/>
   <path fill-rule="nonzero" fill="#FFF" d="m-1650-358.08-3.8312-3.3523,0-51.037-3.1471-3.4207-17.583,0-3.0557,3.5576,1.277,3.8312,1.7787,0.75255,4.105,3.626,0,44.538-1.6419,3.1471-15.462,3.0102c-12.862-0.0456-18.335-6.0205-18.335-20.114v-32.155-5.1311-1.0946l-2.2348-4.5838-2.7366-0.9578-2.0524,0.4561-14.641,6.5678-2.8279,3.7628,2.2806,3.4208,5.4047,4.5154v29.35c0,14.641,8.4835,29.487,27.298,29.555,10.262,0,18.746-4.7206,24.561-9.0992v0.36488l-0.4561,3.3523,2.3261,4.5154,2.3261,0.68413,2.7366-0.95779,13.478-9.4412,2.5542-4.4469-2.4629-3.2155"/>
   <path fill-rule="nonzero" fill="#FFF" d="m-1774.5-386.54c-8.3465-3.0787-15.188-5.8152-15.188-12.315,0-5.9521,3.1014-8.6202,9.8516-8.6887l12.725,6.3626,6.431,5.1311,1.4139-0.31927,2.5541-4.447v-1.8472l-0.4561-8.0045-3.6488-4.0365c-5.131-1.7104-11.083-2.5313-18.061-2.5313-15.598,0-25.382,11.699-25.382,22.577,0,14.367,12.452,19.156,23.124,23.329,8.0728,3.0787,14.709,5.7468,14.641,11.152,0,9.236-6.4994,10.399-10.536,10.467-7.4573,0-14.914-3.1471-20.046-8.4834l-6.8415-4.9943-1.5052,0.27366-2.3261,3.5576,0.4561,2.805,1.0491,8.0729,3.4664,4.3785c6.6362,2.9418,13.683,4.3101,22.987,4.3101,14.641,0,27.503-11.015,27.503-23.74,0-14.572-11.836-19.156-22.098-22.987"/>
   <path fill-rule="nonzero" fill="#FFF" d="m-1765.4-273.17,0.821-3.4892c-3.5576-5.7468-9.5097-9.6465-18.677-9.6465-14.299,0-24.287,11.562-24.287,28.255,0,17.24,9.6466,28.187,23.945,28.187,8.8255,0,15.12-3.8996,18.951-9.9885l-1.1401-3.8312-4.7207-2.805-3.4208,0.8894-9.3728,4.8574c-8.1413,0-12.93-7.4572-12.93-17.309,0-10.262,4.5838-17.446,12.93-17.446l8.6203,3.8996,3.5576,1.0946,5.7468-2.6682"/>
   <path fill-rule="nonzero" fill="#FFF" d="m-1704.4-230.69-2.8733-2.8734,0-17.377-2.8734-2.7366-16.693,0-2.8735,2.7366,0,17.377-2.8278,2.8734-5.268,0-2.8733-2.8734,0-49.053,2.8733-2.9418,5.268,0,2.8278,2.9418,0,15.188,2.8735,2.8734,16.693,0,2.8734-2.8734,0-15.188,2.8733-2.9418,5.1996,0,2.9647,2.9418,0,49.053-2.9647,2.8734"/>
   <path fill-rule="nonzero" fill="#FFF" d="m-1567.9-230.69-4.5154-2.4629-16.898-25.04-3.1471-4.789-0.6842-1.0262-0.8666-0.41049-0.6841,0.82097,0,8.8255,0,21.209-2.8734,2.8734-5.0627,0-2.8278-2.8734,0-49.053,2.8278-2.9418,4.789,0,4.3785,2.4629,16.214,24.15,3.2382,4.8574,0.7298,1.0262,0.9577,0.41048,0.4562-0.75256,0-8.8939,0-20.319,2.8278-2.9418,5.1312,0,2.8277,2.9418,0,49.053-2.8277,2.8734"/>
   <path fill-rule="nonzero" fill="#FFF" d="m-1457.6-230.69-3.0102-2.8734,0-49.053,2.919-2.9418,32.155,0,2.919,2.9418,0,4.9943-2.919,2.8734-21.209,0-2.919,2.8734,0,3.6944,2.919,2.8734,9.9885,0,2.8278,2.8734,0,4.9259-2.8278,2.8734-9.9885,0-2.919,2.8734,0,7.4572,2.919,2.9418,22.44,0,2.8734,2.7366,0,5.0627-2.8734,2.8734"/>
   <path fill-rule="nonzero" fill="#FFF" d="m-1495.5-230.69-4.4242-2.4629-17.035-25.04-3.0102-4.789-0.6842-1.0262-1.049-0.41049-0.5929,0.82097,0,8.8255,0,21.209-2.8735,2.8734-5.0627,0-2.8734-2.8734,0-49.053,2.8734-2.9418,4.7206,0,4.4698,2.4629,16.283,24.15,3.1471,4.8574,0.6842,1.0262,0.9577,0.41048,0.5929-0.75256,0-8.8939,0-20.319,2.8735-2.9418,5.0627,0,2.8277,2.9418,0,49.053-2.8277,2.8734"/>
   <path fill-rule="nonzero" fill="#FFF" d="m-1647.8-262.23-2.2806-6.8415-0.9578-0.61574-0.8209,0.61574-2.3261,6.8415-2.8735,8.2782,2.1436,3.0786,7.8678,0,2.1893-3.0786-2.919-8.2782zm10.125,28.803-1.5508-4.3785-4.6522-2.6682-15.051,0-3.8313,2.6682-1.6419,4.3785-3.7856,2.7366-5.9521,0-1.9156-2.6682,18.951-49.395,3.8767-2.6682,4.9259,0,3.74,2.6682,18.882,49.395-1.9157,2.6682-6.2258,0-3.8767-2.7366"/>
   <path fill-rule="nonzero" fill="#FFF" d="m-1343-238.21-1.2314-0.22805-0.9577,0,0,2.1893,0.9577,0,0.9579-0.22806,0.6842-0.88939-0.4562-0.88938m-1.1403-0.95781,1.642,0.0913,0.9578,1.642-0.5474,1.163-0.9121,0.27365,0.9578,0.57013,0.4561,0.95781,0,0.88939,0,0.31925,0,0.0456-1.049,0,0-0.82097-0.5929-1.3683-1.186-0.27366-0.8209,0,0,2.4629-1.0947,0,0-6.0205,2.0982,0zm-3.147-0.27366-1.4139,3.2839,1.4139,3.3523,3.2838,1.3683,3.2384-1.3683,1.4138-3.3523-1.4138-3.2839-3.2384-1.4367-3.2838,1.4367m7.1151,7.1151-3.8313,1.642-3.9224-1.642-1.5051-3.8312,1.5051-3.8312,3.9224-1.5735,3.8313,1.5735,1.5507,3.8312-1.5507,3.8312"/>
   <path fill-rule="nonzero" fill="#FFF" d="m-1542.3-348.5-1.7331-0.68415,0,0-3.3296-3.2839,0-34.686c0-8.8939-1.0945-15.256-6.4994-20.935-5.5416-5.8152-13.751-9.0307-22.577-9.0307-9.5781,0-18.335,5.2679-22.714,9.578v-0.61572l0.4561-2.6682v-0.95781l-2.4172-4.5838-2.3261-0.61574-2.7366,0.82098-13.409,9.578-2.5998,4.447,2.4631,3.2839,3.968,3.2839v43.101l-3.2839,3.2155-1.642,0.68415-1.5052,3.8996,3.1472,3.626h22.919l3.147-3.626-1.3682-3.8312-1.642-0.68415-3.3295-3.2839v-44.948l1.7332-3.2839c4.2873-1.7788,9.9201-2.8734,15.462-2.8734,7.9361,0,12.999,1.8472,15.667,5.4732,1.9611,2.6682,2.5997,6.4994,2.5997,15.256v30.376l-3.1471,3.2155-1.5506,0.68415-1.5508,3.8996,3.147,3.626h22.987l3.1016-3.626-1.3227-3.8312"/>
   <path fill-rule="nonzero" fill="#FFF" d="m-1087.6-405.56c8.4149,0,16.967,5.7468,20.593,13.957l-38.791,13.683-0.8666-7.6624c0-11.22,8.3466-19.977,19.088-19.977m38.517,42.691-3.4662-2.6682-1.1403-0.22805-2.4629,1.2314c-5.1311,6.8415-14.436,11.288-23.535,11.288-9.3727,0-18.267-6.1573-23.124-16.146l48.574-17.104,4.9258-4.447c0-6.431-12.52-26.34-34.207-26.34-15.735,0-37.491,14.914-37.491,39.27,0,24.766,18.814,38.175,36.396,38.175,16.762,0,28.666-6.9783,35.507-20.866l0.4561-1.2315"/>
   <path fill-rule="nonzero" fill="#FFF" d="m-1145.5-362.18,0,0"/>
   <path fill-rule="nonzero" fill="#FFF" d="m-1145.5-362.18,0,0zm3.2383,2.805-3.0559-3.1471-1.5508-0.31927-2.1435,0.82099c-6.2258,5.4048-13.888,8.415-21.688,8.415-16.146-0.0456-27.503-12.178-27.503-29.692,0-12.999,9.6466-23.535,21.482-23.671,9.236,0,16.009,4.6522,16.898,8.5518l0.4561,1.7104,4.7205,6.9783,4.7207-4.9259,3.4207-8.7571,0.4561-1.6419-2.1893-3.4892c-6.7046-5.8837-15.598-8.6887-27.229-8.6887-19.567,0-37.354,18.677-37.354,39.27,0,24.766,19.224,38.107,37.354,38.175,13.888,0,25.04-5.8837,32.907-17.309l0.5929-1.5735v-0.68416"/>
   <path fill-rule="nonzero" fill="#FFF" d="m-1481.2-406.04c10.604,0,21.003,6.9783,21.003,14.093v29.418l-2.7366,5.9521-11.836,4.447c-15.598,0-26.545-12.794-26.545-31.129,0-12.725,8.8255-22.782,20.114-22.782m41.391,47.959-3.8769-3.3523,0-95.233,0-5.1311-2.098-5.6784-2.7366-0.95781-2.0525,0.4561-14.709,6.5678-2.8734,3.8312,2.3261,3.3523,5.4732,4.447,0,36.123c-5.3364-2.4629-10.946-3.626-17.583-3.626-21.003,0-39.338,18.335-39.338,39.338,0,23.877,18.335,38.175,36.123,38.175,8.3467,0,16.283-3.2839,21.619-8.8255l-0.4561,2.5313v0.75257l2.2805,4.8574,2.0525,0.57012,3.0101-1.0262,12.452-9.5096,2.6911-4.4469-2.463-3.2155"/>
   <path fill-rule="nonzero" fill="#FFF" d="m-1369.6-358.15c-2.6909,1.5051-9.3044,5.3364-17.172,5.3364-6.8414,0-10.262-2.7366-10.262-8.2782,0-7.252,4.1505-11.973,26.613-16.009v0.27366l1.7332,18.267-0.7754,0.41048zm28.871,1.5051-1.4595-0.36488-2.1891,1.0262-4.2418,3.1471c-2.4173,0-4.0136-3.5576-5.0626-11.083l-1.7332-18.335-0.821-9.236c-1.9613-17.788-9.4412-25.792-24.287-25.792-10.331,0-17.104,3.1471-24.629,8.0729l-2.5085,4.9943,2.0524,9.0307,4.2874,5.0627,5.3364-6.6362,0.6841-1.5735c2.3261-5.8836,6.4309-9.0307,12.041-9.0307,6.9783,0,9.8517,4.9943,11.494,19.703l0.4561,1.7104c-7.252,1.5051-15.598,3.2155-22.098,5.7468-13.82,5.0627-21.072,12.794-21.072,22.03,0,12.041,7.4573,18.335,21.893,18.335,7.594,0,16.898-3.4207,25.655-9.4412,2.5998,6.3626,7.1836,9.4412,13.888,9.4412,6.4309,0,12.452-4.7206,14.846-11.699l-2.5997-5.1311"/>
   <path fill-rule="nonzero" fill="#FFF" d="m-1238.1-348.5-1.7788-0.68415-3.2382-3.2839,0-34.686c0-8.8939-1.049-15.256-6.4995-20.935-5.4732-5.8152-13.683-9.0307-22.44-9.0307-9.7149,0-18.404,5.3363-22.85,9.578v-0.41048-2.8734-0.95781l-2.2806-4.5838-2.3261-0.61574-2.8277,0.82098-13.409,9.578-2.5996,4.447,2.4628,3.2839,3.8313,3.2839v43.101l-3.1471,3.2155-1.642,0.68415-1.505,3.8996,3.147,3.626h23.056l3.0101-3.626-1.4595-3.8312-1.5506-0.68415-3.284-3.2839v-44.948l1.7332-3.2839c4.2417-1.7788,9.7833-2.8734,15.462-2.8734,7.9361,0,12.93,1.8472,15.599,5.4732,2.1436,2.6682,2.7365,6.4994,2.7365,15.256v30.376l-3.2838,3.2155-1.5508,0.68415-1.4595,3.8996,2.9647,3.626h23.124l3.0103-3.626-1.2771-3.8312"/>
   <path fill-rule="nonzero" fill="#FFF" d="m-1393.9-230.69-2.8733-2.8734,0-49.053,2.8733-2.9418,5.1996,0,2.8734,2.9418,0,38.244,2.8279,2.805,21.756,0,2.8277,2.8734,0,5.1311-2.8277,2.8734"/>
   <path fill="#48c4e5" stroke-opacity="0" d="m-981.07-514.14,452.76,0,0,430.44-452.76,0z"/>
   <path fill="#FFF" d="m-916.13-382.46,39.69,0,0,63.679,58.555,0,0-63.679,39.69,0,0,167.09-39.69,0,0-70.842-58.555,0,0,70.842-39.69,0,0-167.09"/>
   <path fill="#FFF" d="m-703.12-349.9,0,101.95,14.866,0c16.949,0.00003,29.876-4.3646,38.782-13.094,8.9772-8.7293,13.466-21.413,13.466-38.051-0.00012-16.563-4.4529-29.172-13.358-37.827-8.9056-8.6546-21.869-12.982-38.89-12.982h-14.866m-41.475-32.567,43.738,0c24.418,0.00016,42.588,1.8281,54.51,5.4838,11.994,3.5814,22.264,9.6994,30.81,18.354,7.5408,7.5357,13.143,16.228,16.806,26.076,3.6626,9.8486,5.494,21.003,5.4941,33.462-0.00016,12.609-1.8316,23.875-5.4941,33.798-3.6629,9.8485-9.2648,18.541-16.806,26.076-8.6184,8.6547-18.96,14.81-31.026,18.466-12.066,3.5813-30.164,5.3719-54.295,5.3719h-43.738v-167.09"/>
  </g>
 </g>
</svg>
