<svg xmlns="http://www.w3.org/2000/svg" height="600" width="600" viewBox="0 0 158.75 158.75"><g transform="translate(-49.38-54.07)"><path d="m208.13 54.07h-158.75v158.75h158.75v-158.75" fill="#a02f35"/><g fill="#fff"><path d="m130.38 158.55l.03-10.14c0-2.49.04-4.2.18-5.44.14-1.25.53-2.36 1.23-3.52.71-1.15 1.64-1.96 2.89-2.62 1.24-.66 2.52-.93 4-.97 2.2-.06 3.96.51 5.39 1.53 1.43 1.03 2.15 2.02 2.6 3.54.45 1.53.7 3.88.7 7.11v2.96h-6.86l.001-5.69c0-1.74-.02-2.83-.18-3.26-.16-.44-.71-.97-1.25-.97-1.03 0-1.47.58-1.63 1.11-.16.52-.23 1.66-.23 3.41l.03 16.05c0 1.68.09 2.76.2 3.29.16.72.86 1.07 1.43 1.07.83 0 1.23-.56 1.4-1.08.17-.51.23-1.72.23-3.62v-4h6.85l.02.98c0 3.58-.23 6.1-.64 7.6-.43 1.49-1.24 2.6-2.68 3.73-1.43 1.13-3.03 1.61-5.13 1.61-2.19 0-3.9-.53-5.31-1.48-1.42-.95-2.14-2.02-2.6-3.71-.46-1.68-.68-4.11-.68-7.49"/><path d="m252.29 312l-14.43 127.84h25.21l1.56-23.5h12.87l1.53 23.5h24.86l-16.13-127.84h-35.47m18.83 26.36s4.3 42.79 5.67 57.56h-12.27c.71-11.53 6.6-57.56 6.6-57.56" transform="matrix(.26458 0 0 .26458 49.38 54.07)"/><path d="m98.11 136.62h15.673v6.21h-4.48v27.62h-6.76v-27.62h-4.433v-6.21"/><path d="m90.993 162.9c0-2.04-.215-3.54-.787-4.23-.498-.61-1.693-1.7-3.545-3.16-1.857-1.48-3.01-2.5-3.61-3.16-.602-.67-1.045-1.51-1.439-2.69-.393-1.18-.562-2.59-.562-4.43 0-2.65.234-4.36.796-5.58.558-1.22 1.365-2.08 2.619-2.78 1.25-.68 2.544-.99 4.317-.99 1.937 0 3.465.34 4.834 1.07 1.35.73 2.076 1.59 2.54 2.61.507 1.11.677 3.06.677 5.8v1.07h-6.294v-2.26c0-1.19-.109-2.08-.333-2.49-.179-.33-.603-.61-1.175-.58-.443.02-.886.17-1.225.81-.234.43-.378 1.26-.378 2.15 0 1.15.144 2.11.388 2.64.324.7.936 1.36 2.216 2.3 3.256 2.39 5.307 4.22 6.163 5.74.862 1.52 1.265 3.83 1.265 7.21 0 2.46-.259 4.26-.737 5.43-.478 1.16-1.314 1.96-2.654 2.72-1.379.78-2.748 1.12-4.57 1.12-2 0-3.605-.43-5.02-1.34s-2.215-2.07-2.654-3.48c-.438-1.41-.592-3.12-.592-5.71v-1.94h6.308v3.9c0 1.29.144 2.29.344 2.66.194.37.657.7 1.289.71.503.001 1.11-.22 1.429-.9.229-.47.389-1.3.389-2.22"/><path d="m87.89 104.39c0 1.22.194 2.16.418 2.79.249.74 1.14 1.6 2.37 2.47 3.52 2.52 5.76 4.52 6.612 6.17.836 1.61 1.274 4.01 1.274 7.6 0 2.61-.249 4.48-.791 5.7-.513 1.17-1.325 2.04-2.778 2.88-1.454.84-3.02 1.22-4.949 1.22-2.122 0-3.779-.47-5.278-1.43-1.499-.97-2.325-2.07-2.793-3.56-.463-1.5-.652-3.44-.652-6.18l.02-2.09 6.701-.001.001 4.2c0 1.38.115 2.37.349 2.74.388.62.831.71 1.349.74.732.05 1.215-.42 1.468-.92.259-.5.414-1.37.409-2.35-.001-2.85-.394-3.85-.872-4.51-.497-.67-1.717-1.76-3.684-3.3-1.971-1.56-3.166-2.62-3.804-3.33-.637-.71-1.135-1.6-1.553-2.85-.423-1.26-.622-2.83-.622-4.78 0-2.81.308-4.67.901-5.968.597-1.3 1.364-2.111 2.599-2.828 1.309-.767 3.02-1.13 4.779-1.13 1.852 0 3.59.338 5.04 1.135 1.449.801 2.35 1.782 2.778 2.833.493 1.208.702 3.238.702 6.148v1.14h-6.731v-2.42c0-1.27-.09-2.13-.269-2.49-.329-.65-.841-.77-1.275-.77-.642 0-1.09.41-1.329.88-.244.47-.398 1.31-.398 2.27"/><path d="m118.86 126.43c-.16 1.12-.73 2.29-1.47 3.48-.74 1.18-1.36 1.73-2.57 2.34s-2.64.91-4.29.91c-1.81 0-3.34-.34-4.73-1.07-1.39-.72-2.16-1.47-2.85-2.63s-1.1-2.25-1.23-3.54c-.12-1.28-.19-4-.19-8.13v-21.335h7.34v27.14c0 1.6.07 2.61.21 3.06.14.44.35.97 1.17.98.71.02 1.15-.53 1.3-1.02.14-.49.17-1.67.17-3.5v-26.665h7.23v24.14c0 2.78.06 4.71-.09 5.84"/><path d="m306.07 159.99l-28.89.07v135.94h27.78v-55.57h8.2c6.53 0 11.67-.65 15.7-2.82 4.02-2.16 6.64-4.55 8.16-8.6 1.51-4.06 2.34-10.46 2.34-19.31v-12.06c0-8.67-.53-15.09-1.32-19.21-.77-4.14-1.9-7-4.1-9.92-2.2-2.9-5.21-4.87-9.2-6.23-4.11-1.41-10.52-2.29-18.67-2.29m-1.09 21.41c3.84 0 7.37.38 9.41 2.41 1.56 1.56 2.18 5.38 2.18 10.12v11.43c0 5.13-.58 9.01-1.64 10.65-1.05 1.62-3.01 3.18-6.62 3.06-.62-.001-2.49-.11-3.33-.16v-37.51" transform="matrix(.26458 0 0 .26458 49.38 54.07)"/><path d="m155.18 132.43h-13.12v-36.04h12.61v6.709h-5.29v7.59h4.96v6.34h-4.96v8.71h5.8v6.69"/><path d="m157.56 166.01c-.06 1-.27 1.81-.77 2.6-.45.73-.99 1.14-1.81 1.45s-1.95.43-3.6.43h-3.02l.02-5.08c.82-.17 1.4-.48 1.82-.87.31-.3.52-.9.56-1.35.05-.45.07-1.34.07-2.64v-23.93h6.76v22.73c0 3.45.03 5.68-.03 6.66"/><g transform="matrix(.26458 0 0 .26458 49.38 54.07)"><path d="m410.77 159.99v136.01h27.68v-62.21c4.84-.3 7.87.79 9.15 2.35 1.86 2.24 2.31 7.74 2.31 15.15v44.71l25.55-.07v-35.23c0-11.18-.24-18.01-.73-20.49-.51-2.49-1.99-4.86-4.03-7.83-2.03-2.96-7.37-5.83-13.3-7.6 6.55-.76 12.55-3.39 14.77-7.1 2.22-3.68 3.24-10.31 3.24-21.09 0-11.78-1.55-19.97-4.71-25.35s-6.83-8.09-11.83-9.41c-5.01-1.31-14.08-1.77-28.23-1.77l-19.87-.07m27.89 21.38c3.46 0 7.21.31 8.75 2.21 1.18 1.47 2.58 3.24 2.54 9.62v7.58c0 6.1-1.39 10.6-2.69 11.76-2.2 1.98-5.23 1.85-8.6 1.85v-33.02"/><path d="m428.72 312l-14.43 127.84h25.21l1.57-23.5h12.87l1.52 23.5h24.86l-16.13-127.84h-35.47m18.84 26.36c1.52 21.83 4.29 42.79 5.64 57.56h-12.26c.71-11.53 3.81-32.51 6.62-57.56"/></g></g></g></svg>