<svg xmlns="http://www.w3.org/2000/svg" xmlns:xlink="http://www.w3.org/1999/xlink" viewBox="0 0 859.01 155"><defs><path id="0" d="m50.56 7.502c-20.472 0-37.06 16.589-37.06 37.06v77.68c0 20.472 16.59 37.06 37.06 37.06h377.38c23.42 0 37.598-15.969 37.598-37.06v-77.68c0-22.1-14.178-36.08-37.598-37.06"/><filter color-interpolation-filters="sRGB" id="1"><feFlood flood-opacity="0.32934131736526945" flood-color="#000" result="flood"/><feComposite in2="SourceGraphic" operator="in" in="flood" result="composite1"/><feGaussianBlur stdDeviation="10" result="blur"/><feOffset dx="15" dy="0" result="offset"/><feComposite in2="offset" operator="over" in="SourceGraphic" result="composite2"/></filter><linearGradient x1="351.07" y1="-56.727" x2="416.31" y2="126.71" id="4" gradientUnits="userSpaceOnUse"><stop stop-color="#e7530e"/><stop offset=".5" stop-color="#ce3532"/><stop offset="1" stop-color="#af0010"/></linearGradient><linearGradient x1="351.07" y1="-56.727" x2="416.31" y2="126.71" id="3" gradientUnits="userSpaceOnUse"><stop stop-color="#e9661b"/><stop offset=".5" stop-color="#d2403e"/><stop offset="1" stop-color="#bb001a"/></linearGradient><linearGradient x1="428.41" x2="422.2" id="2" gradientUnits="userSpaceOnUse"><stop/><stop offset="1" stop-opacity="0"/></linearGradient></defs><g transform="translate(-11.498-4.31)"><path d="m402.26 159.06v-154.5h431.63c9.586 0 18.671 3.772 25.603 11.196 6.843 7.275 10.766 17.12 10.766 26.973v79.42c0 9.849-3.805 19.1-10.648 26.1-6.873 6.945-16.02 10.807-25.721 10.807h-431.63" fill="#fff" stroke="#e5e5e5" stroke-width=".498"/><path d="m782.47 56.2v42.09h59.27v12.648h-105.42v-54.74h46.15m-60.3 0l.059 12.883h-30.21v41.857h-43.09l.029-41.857h-30.532v-12.883h103.74m-159.48 24.826l-18.972-.029.029-12.178 18.531-.029c3.647 0 5.765 3.118 5.765 5.971 0 3.324-2.177 5.912-5.353 6.265m25.796 10.942l1.147-.088c8.53.206 16.766-7.383 16.766-17.15-.029-13.148-9.739-18.742-18.649-18.531h-84.3l-.029 54.74h40.3v-17.913l8.265-.029 20.884 17.972h42.18l-26.561-19" fill="#af0010"/></g><use transform="matrix(1.006 0 0 1.02104-13.58-7.56)" opacity=".5" fill="url(#2)" filter="url(#1)" xlink:href="#0"/><g transform="translate(-11.498-4.31)"><use fill="url(#4)" transform="matrix(1.006 0 0 1.02104-2.081-3.35)" xlink:href="#0"/><g><use xlink:href="#5"/><use xlink:href="#6"/><use xlink:href="#9"/><use xlink:href="#7"/><use xlink:href="#8"/></g></g><g transform="translate(-11.498-4.31)" opacity=".5"><path d="m782.47 56.2v42.09h59.27v12.648h-105.42v-54.74h46.15m-60.3 0l.059 12.883h-30.21v41.857h-43.09l.029-41.857h-30.532v-12.883h103.74m-159.48 24.826l-18.972-.029.029-12.178 18.531-.029c3.647 0 5.765 3.118 5.765 5.971 0 3.324-2.177 5.912-5.353 6.265m25.796 10.942l1.147-.088c8.53.206 16.766-7.383 16.766-17.15-.029-13.148-9.739-18.742-18.649-18.531h-84.3l-.029 54.74h40.3v-17.913l8.265-.029 20.884 17.972h42.18l-26.561-19" fill="#bb001a"/><use transform="matrix(1.006 0 0 1.02104-2.081-3.35)" fill="url(#3)" xlink:href="#0"/><path d="m287.15 121.81h54.12v-17.958l-32.562.11v-12.639l29.27.137v-17.985l-29.27.137v-10.117l30.915.137v-18.09h-52.48v76.27" fill="#fff" id="5"/><path d="m162.65 121.81c20.266 0 32.591-10.442 32.591-29.15v-47.12h-21.59v47.564c0 6.118-3.265 11.56-11.148 11.56-7.412 0-11.12-5.736-11.12-11.56v-47.564h-21.737v47.12c0 18.296 12.854 29.15 33 29.15" fill="#fff" id="6"/><path d="m243.44 45.538l-29.563.281v75.991h21.12v-24.421c2.559.147 4.893.117 6.599.117 19.266 0 32.406-9.557 32.406-27 0-10.119-5.108-17.413-13.844-21.531-5-2.588-8.6-3.438-16.719-3.438m-2.281 16.812c6.324-.118 11.719 0 11.719 8 0 7.177-2.13 9.607-12.719 9.46h-5.162v-17.12z" fill="#fff" id="7"/><path d="m388.16 45.529l-31.563.281v76h21.12v-26.438c2.045.118 4.935.128 7 .125l13.563 26.313h23.75l-15.75-30.563c7.797-4.16 12.438-11.393 12.438-21.75 0-10.118-5.108-16.413-13.844-20.531-5-2.588-8.6-3.438-16.719-3.438m-.219 15.781c5.269.053 9.406 1.031 9.406 8.03 0 7.177-2.13 9.616-12.719 9.469h-6.906v-17.12l7.906-.344c.791-.015 1.56-.039 2.313-.031" fill="#fff" id="8"/><path d="m81.59 121.81c23.48 0 33.573-11.751 33.23-26.05-.11-4.59-3.488-13.66-15.771-17.797l-12.809-4.314c-5.767-1.942-6.327-6.069-6.327-7.396 0-1.777 1.954-4.947 9.18-4.947 5.117 0 8.206 1.878 15.902 6.311l9.07-14.579c-9.11-5.111-18.765-7.504-25.278-7.504-17.895 0-29.913 8.251-29.913 21.383 0 7.853 2.807 15.795 12.02 20.438l15.507 5.72c5.504 2.03 8.487 4.16 7.07 7.216-1.435 3.098-4.394 5.715-11.878 4.377-5.19-.928-10.711-4.01-16.12-8.01l-9.441 14.514c8.595 6.847 16.401 10.633 25.565 10.633" fill="#fff" id="9"/></g></svg>