<?xml version="1.0" encoding="UTF-8" standalone="no"?>
<svg xmlns:rdf="http://www.w3.org/1999/02/22-rdf-syntax-ns#" xmlns="http://www.w3.org/2000/svg" height="146.48" width="600" version="1.1" xmlns:cc="http://creativecommons.org/ns#" xmlns:dc="http://purl.org/dc/elements/1.1/" viewBox="0 0 158.75 38.755242">
 <g transform="translate(-529.96 -619.53)">
  <path d="m599.34 625.71c5.22 0.05 10.17-1.61 11.1-6.18h5.06v38.75h-6.8v-27.18h-9.36v-5.39" fill="#f06769"/>
  <g fill="#939598">
   <path d="m578.66 625.7h-6.28l-5.53 17.57c-0.82 2.31-1.45 4.41-2.01 6.35-0.56-2.17-1.14-4.18-1.93-6.37l-5.45-17.15-0.13-0.4h-7.19l11.39 31.88h6.14l11.79-31.88h-0.8"/>
   <path d="m598.71 651.94-0.67 0.21c-0.84 0.26-1.7 0.36-3.1 0.36-2.55 0-3.64-1.62-3.64-5.44v-15.98h5.76v-5.39h-5.76v-6.17l-0.6 0.04-6.01 0.43v5.7h-2.59l-1.99 5.39h4.58v16.17c0 3.95 0.76 6.73 2.32 8.47 1.5 1.65 3.79 2.55 6.47 2.55 2.53 0 4.32-0.5 5.16-0.8l0.13-0.04v-4.6l-0.06-0.9"/>
   <path d="m541.94 638.58c-4.22-1.61-5.44-2.69-5.44-4.78 0-0.95 0.34-1.8 0.99-2.44 0.81-0.8 2.04-1.22 3.55-1.21 3.11 0.03 6.06 1.14 7.05 1.94v-5.9c-1.76-0.83-4.21-1.3-6.92-1.3-6.49 0-11.21 4.05-11.21 9.62 0 4.07 2.89 7.18 8.59 9.26 3.98 1.49 5.31 2.79 5.31 5.15 0 2.57-1.96 4.04-5.37 4.04-2.53 0-5.71-1.09-7.52-2.17l-0.24-0.14v6.06c2.22 1.01 4.93 1.57 7.63 1.57 7.31 0 12.04-3.87 12.04-9.87 0-4.62-2.61-7.65-8.46-9.83"/>
   <path d="m688.71 658.28h-64.13v-37.51h64.13v37.51zm-59.62-3.78h6.58v-12.92h12.12v12.92h6.58v-29.95h-6.58v11.49h-12.12v-11.49h-6.58v29.95zm29.39 0h12.91c9.15 0 13.59-6.46 13.59-15.14 0-9.94-5.83-14.81-13.59-14.81h-12.91v29.95zm6.59-24.41h4.69c6.54 0 8.64 3.86 8.64 9.9 0 6.63-3.65 8.97-7.47 8.97h-5.86v-18.87z"/>
  </g>
 </g>
</svg>
