<?xml version="1.0" encoding="UTF-8" standalone="no"?>
<svg xmlns:rdf="http://www.w3.org/1999/02/22-rdf-syntax-ns#" xmlns="http://www.w3.org/2000/svg" height="271.83" width="600" version="1.1" xmlns:cc="http://creativecommons.org/ns#" xmlns:dc="http://purl.org/dc/elements/1.1/" viewBox="0 0 158.75 71.922025">
 <g transform="translate(-493.36 -602.95)">
  <path d="m622.11 614.41c9.69 0.1 18.88-2.97 20.6-11.46h9.4v71.92h-12.63v-50.46h-17.37v-10" fill="#f06769"/>
  <g fill="#939598">
   <path d="m583.73 614.41h-11.65l-10.26 32.59c-1.52 4.3-2.7 8.19-3.73 11.78-1.04-4.01-2.12-7.75-3.58-11.82l-10.12-31.83-0.24-0.72h-13.34l21.14 59.14h11.39l21.87-59.14h-1.48"/>
   <path d="m620.95 663.1-1.25 0.39c-1.56 0.48-3.16 0.66-5.75 0.66-4.73 0-6.76-3.01-6.76-10.1v-29.64h10.68v-10.01h-10.68v-11.45l-1.12 0.07-11.14 0.79v10.59h-4.82l-3.68 10.01h8.5v30c0 7.33 1.41 12.48 4.29 15.72 2.79 3.06 7.05 4.73 12.02 4.73 4.69 0 8.01-0.92 9.57-1.48l0.24-0.08v-8.53l-0.1-1.67"/>
   <path d="m515.59 638.29c-7.84-2.98-10.11-4.97-10.11-8.85 0-1.78 0.64-3.34 1.84-4.53 1.52-1.5 3.79-2.28 6.6-2.26 5.76 0.06 11.25 2.12 13.08 3.61v-10.95c-3.27-1.55-7.81-2.42-12.84-2.42-12.05 0-20.8 7.51-20.8 17.85 0 7.55 5.36 13.33 15.94 17.19 7.38 2.76 9.86 5.18 9.86 9.56 0 4.76-3.64 7.49-9.98 7.49-4.7 0-10.59-2.02-13.96-4.03l-0.43-0.25v11.25c4.12 1.86 9.14 2.92 14.16 2.92 13.57 0 22.34-7.2 22.34-18.33 0-8.56-4.84-14.2-15.7-18.25"/>
  </g>
 </g>
</svg>
