<svg xmlns="http://www.w3.org/2000/svg" height="238.77" width="600" viewBox="0 0 158.75 63.174912"><g transform="translate(-271.28-647.58)"><path d="m388.11 709.61v-.43c.08-10.01 5.25-17.62 13.37-23.05 7.88-5.68 17.78-10.39 17.9-19.36v-.28c-.05-4.18-1.75-9.88-9.68-9.9-7.36 0-9.55 6.19-9.85 14.57v.43h-10.62v-.45c0-6.71 1.85-12.6 5.42-16.82 3.56-4.22 8.88-6.74 15.66-6.74 14.91.02 19.69 11 19.72 18.85-.0001 9.74-6.69 15.77-13.56 20.58-6.72 4.62-13.64 8.26-15.56 13h29.03v9.6h-41.83" fill="#0ac2f1"/><g fill="#939598"><path d="m350.56 657.72h-10.23l-8.98 28.59c-1.35 3.77-2.38 7.19-3.28 10.35-.92-3.53-1.88-6.81-3.14-10.38l-8.89-27.93-.2-.63h-11.72l18.56 51.89h9.99l19.18-51.89h-1.29"/><path d="m383.21 700.43l-1.11.35c-1.35.42-2.77.58-5.03.58-4.16 0-5.94-2.65-5.94-8.86v-26h9.38v-8.79h-9.38v-10.05l-.97.08-9.77.69v9.28h-4.23l-3.24 8.79h7.47v26.31c0 6.44 1.23 10.95 3.75 13.8 2.45 2.67 6.2 4.15 10.55 4.15 4.11 0 7.03-.82 8.4-1.3l.21-.07v-7.49l-.09-1.47"/><path d="m290.77 678.68c-6.87-2.63-8.86-4.37-8.86-7.77 0-1.56.56-2.94 1.61-3.98 1.33-1.31 3.34-2 5.79-1.98 5.05.05 9.88 1.86 11.47 3.17v-9.61c-2.87-1.35-6.85-2.11-11.26-2.11-10.57 0-18.24 6.57-18.24 15.65 0 6.63 4.7 11.7 13.99 15.08 6.46 2.42 8.64 4.54 8.64 8.38 0 4.18-3.18 6.58-8.75 6.58-4.14 0-9.29-1.78-12.25-3.53l-.39-.23v9.87c3.62 1.64 8.03 2.56 12.43 2.56 11.9 0 19.6-6.31 19.6-16.08 0-7.51-4.24-12.45-13.78-16"/></g></g></svg>