<svg xmlns="http://www.w3.org/2000/svg" viewBox="0 0 708.66 209.17"><defs><clipPath><path d="m.272.727h.113v.151h-.113v-.151"/></clipPath><clipPath id="1"><path d="m.5 1.354h.432c.038 0 .068-.102.068-.229v-1.465c0-.127-.03-.229-.068-.229h-.864c-.038 0-.068.102-.068.229v1.465c0 .127.03.229.068.229"/></clipPath><clipPath><path d="m.1.025l.875.138-.031.434-.875-.138"/></clipPath><clipPath id="0"><path d="m0-.569h1v1.923h-1v-1.923"/></clipPath><clipPath id="2"><path d="m-.084 1v-1h1.154v1"/></clipPath><clipPath id="3"><path d="m133.96 672.16h57.63c4.97 0 9-4.03 9-9.01v-57.64c0-4.97-4.03-9-9-9h-115.26c-4.973 0-9 4.03-9 9v57.64c0 4.98 4.03 9.01 9 9.01"/></clipPath><clipPath id="5"><path d="m119.38 657.33h57.63c4.97 0 9-4.03 9-9v-57.65c0-4.97-4.03-9-9-9h-115.26c-4.973 0-9 4.03-9 9v57.65c0 4.97 4.03 9 9 9"/></clipPath><clipPath id="4"><path d="m67.33 596.51h133.26v75.65h-133.26v-75.65"/></clipPath><clipPath><path d="m1.096 1.193h.996c.086 0 .156-.105.156-.235v-2.204c0-.13-.07-.236-.156-.236h-1.992c-.086 0-.156.106-.156.236v2.204c0 .13.07.235.156.235"/></clipPath><clipPath><path d="m.829.549c.002-.011.002-.026.003-.039 0-.005 0-.0001 0-.016 0-.012.002-.024.003-.036.002-.025.004-.051.005-.077 0 0 .002 0 .003 0 0-.011 0-.021.002-.031.002-.035.005-.069.007-.103 0-.003 0-.009 0-.014 0 0 0-.002 0-.002 0 0 0-.002 0-.004 0 0 0 0 0-.002 0 0 0-.003 0-.005 0 0 0-.002 0-.003 0 0 0-.003 0-.005 0 0 0 0 0-.002 0 0 0-.002 0-.003 0 0 0 0 0-.002 0-.002-.003-.004-.003-.007 0-.004-.004-.006-.006-.009 0 0 0 0 0-.002 0 0 0 0-.002 0 0 0 0 0 0-.002 0 0 0 0-.002 0 0 0 0 0 0-.002h-.002c0 0 0 0 0 0s0 0-.002 0c-.005-.004-.016-.0001-.024-.007-.002 0-.004 0-.006 0-.002 0-.003 0-.005 0 0 0-.003 0-.004 0s0 0-.002 0c0 0 0 0 0 0s0 0-.002 0c0 0-.002 0-.002 0 0 0-.002.003-.002.004 0 0 0 0-.002 0 0 .003-.003.005-.005.007 0 .002-.002.003-.003.004 0 0 0 0 0 .002 0 0 0 0 0 .002 0 0 0 0 0 .002 0 .002 0 .003 0 .004 0 0 0 .003 0 .005 0 0 0 0 0 .002 0 0 0 0 0 .002 0 .003 0 .005-.002.008 0 .003 0 .006 0 .0001 0 .005 0 .0001 0 .014 0 .004 0 .008 0 .011v.007c0 0 0 0 0 0s0 .002 0 .003c0 .002 0 .004 0 .005 0 0 0 .002 0 .003 0 0 0 0 0 .002 0 0 0 .002 0 .003 0 0 0 .002.002.004 0 0 0 .002 0 .002 0 .002.002.004.003.006 0 0 0 .002 0 .004 0 0 0 0 .002 0v.003c0 0 .002 0 .003 0 0 0 0 0 0 .002 0 0 .002 0 .002 0 0 0 .002 0 .003 0 0 0 .002 0 .003 0 0 0 .002 0 .003 0s0 0 0 0c0 0 .002 0 .004 0 .002 0 .0001.005.014.004.002 0 .005 0 .008 0 0 0 .002 0 .002 0 0 0 0 0 .002 0 0 0 0 0 0 0 .002 0 .003 0 .004 0 0 0 .002 0 .002 0 0 0 0-.002 0-.002 0 0 0 0 0-.002.003-.002.009-.006.0001-.011-.002.028-.004.055-.006.083 0 0 .002 0 .002.002 0 .009 0 .018 0 .027-.002.028-.004.057-.006.086 0 .002 0 .0001 0 .015 0 .013-.002.027-.003.04-.003 0-.004 0-.004.007 0 0 0 0 .002 0 0 0 0 .002 0 .002.002 0 .004 0 .006 0 0 0 0 0 .003 0 0-.002 0-.004 0-.006-.002 0-.002-.003-.004-.003m-.734-.228c.006 0 .019.004.023.002 0 0 0-.002 0-.002 0 0 .002-.003.003-.004 0 0 0-.003 0-.004.007-.014.004-.038-.004-.045-.004-.004-.015-.004-.022-.005-.002.02-.003.039-.004.059m.11.017c.002 0 .004 0 .005 0 0-.009.002-.018.002-.028 0 0 0 0 .002 0 .005.011.0001.021.015.031.003 0 .005 0 .008 0-.005-.004-.007-.012-.011-.018 0-.003-.003-.005-.004-.008.003-.002.003-.004.004-.007 0 0 .002 0 .002 0 0 0 0 0 0-.002 0 0 0 0 .002 0 0 0 0 0 0-.002 0 0 0 0 0-.002 0 0 0 0 0-.002 0 0 0 0 0-.002 0 0 0-.002 0-.002 0 0 0 0 .002 0 0 0 0 0 0-.002 0 0 0-.002 0-.003-.002 0-.004 0-.006-.002-.006.0001-.011.019-.016.028 0-.003-.003-.006-.005-.009 0-.007 0-.014.002-.021-.002 0-.004 0-.006 0 0 .019-.002.039-.004.058m.036.006c0 0 .003 0 .005 0 0-.002 0-.005 0-.008 0 0-.003 0-.005 0 0 .003 0 .006 0 .009m.06.009c0 0 .003 0 .005 0 0-.019.002-.039.004-.058 0 0-.003 0-.005 0 0 0 0 .002 0 .003 0-.002 0 0-.002-.002-.004-.003-.011.002-.012.004 0 .002-.002.004-.003.006 0 .005 0 .011-.002.017 0 .003.002.006.002.009 0 0 0 .002.002.003 0 0 .002 0 .003.002 0 0 .002 0 .003 0 0 0 0 0 .002 0 0 0 .002 0 .003 0 0 0 .003-.002.004-.004 0 .007 0 .013 0 .02m.125.02c.002 0 .004 0 .005 0 .002-.02.003-.039.004-.059 0 0-.003 0-.004 0 0 .002 0 .003 0 .005-.002-.007-.009-.009-.014-.005 0 0 0 .003-.002.004 0 0 0 0 0 .002 0 0 0 .002 0 .002-.002.008-.002.015 0 .022 0 0 0 0 0 .002 0 0 0 .002.002.004 0 0 0 0 0 .002 0 0 0 0 .002.002.004 0 .004 0 .007 0h.002c0 0 0 0 0 0s.002 0 .003-.002c0 .007 0 .013-.002.02m.013.002c0 0 .003 0 .005 0 0-.003 0-.006 0-.008 0 0-.003 0-.005-.002 0 .003 0 .006 0 .009m-.338-.06c0-.004 0-.0001 0-.015 0-.0001.002-.02.002-.029.003 0 .007 0 .0001 0 0 0 .003 0 .004 0 0 0 .002 0 .003 0 0 .002 0 .003.002.005 0 0 0 .002 0 .003 0 0 0 .003 0 .004 0 .002 0 .003 0 .005 0 .009-.003.023-.008.023-.002.002-.011 0-.014 0m.052-.017c0 .002 0 .004 0 .006 0 0 0 0-.002.002 0 0-.007 0-.008 0 0-.002-.002-.003-.003-.005 0 0 0-.002 0-.003 0 0-.002 0-.002 0 0 0-.002 0-.003 0 0 .005 0 .0001.004.011.003.006.012.004.016.004 0-.002.002-.004.003-.006 0-.004 0-.008 0-.012 0-.009 0-.017.003-.023 0 0-.003 0-.005 0 0 .002 0 .003 0 .004 0 0 0 0-.002-.002 0 0-.003 0-.005-.002-.004-.003-.007 0-.0001 0 0 0-.002.003-.003.004 0 .004 0 .008 0 .0001 0 .006.005.008.009.0001 0 0 .002 0 .004 0 0 0 .003.002.005.003m.016-.011c0-.003.002-.006.004-.006.002-.003.009 0 .0001.003 0 0 0 .002 0 .003 0 0 0 0 0 .002-.002.002-.002 0-.003 0 0 0-.002 0-.002 0-.004 0-.0001 0-.012.007 0 0 0 .002 0 .005 0 .008.003.008.005.013.002 0 .004 0 .006 0 0 0 .002 0 .003 0 0 0 .002 0 .003 0 0 0 0 0 0-.002.002 0 .002-.004.002-.005 0 0-.003 0-.004 0 0 .002 0 .002 0 .004 0 0-.002 0-.003.002-.003 0-.005 0-.007-.002 0-.003-.002-.002-.002-.006 0 0 0-.002.002-.002.004 0 .008-.002.013-.003 0 0 .003-.004.004-.006 0-.003.002-.006 0-.009 0-.005-.003-.005-.004-.009-.003 0-.006 0-.0001-.002 0 0-.003.002-.004.002 0 0 0 0-.002.002 0 0 0 0 0 .002 0 0 0 0 0 .002 0 0 0 .002 0 .003.002 0 .003.002.005.002m.111.004c-.002 0-.003 0-.005 0 0 .012-.002.025-.004.034-.002 0-.003.002-.007.002 0-.003-.003-.003-.003-.007-.002-.004 0-.024 0-.031-.002 0-.004 0-.005 0 0 .014-.002.028-.003.042 0 0 .002 0 .004.002 0-.002 0-.004 0-.005.002.007.015.0001.017 0 0-.002 0-.006.002-.011 0-.008 0-.017.002-.025m.06.028c-.007 0-.014-.002-.021-.003 0-.004 0-.005.002-.008.004-.003.003-.005.009-.004 0 0 .002 0 .003 0 0 0 0 0 0 .002 0 .002.003.002.004.002 0 0 0-.003 0-.004 0 0 0 0 0-.002 0 0 0-.002 0-.003 0 0 0 0 0-.002 0 0 0 0 0 0s0 0-.002 0c-.005-.003-.013.002-.015.005 0 0 0 .002 0 .003-.002.006-.002.017 0 .022 0 0 0 0 0 .002 0 0 0 .002.002.003 0 .002.002.004.004.005 0 0 .008 0 .009 0 .006-.003.009-.008.0001-.022m.018.019c0 0-.002 0-.003 0 0 0 0 0-.003 0 0-.002 0 0 0-.004-.002-.004 0-.024 0-.032-.002 0-.004 0-.005 0 0 .015-.002.029-.003.043 0 0 .003 0 .004 0 0 0 0-.003 0-.004 0 .004.003.006.006.007 0 0 .002 0 .003 0 0-.002 0-.005 0-.007m.019.003c-.002 0-.004 0-.005 0-.002 0-.002 0-.003-.003-.002-.006 0-.025 0-.033-.002 0-.004 0-.005 0 0 .014-.002.028-.003.042 0 0 .002 0 .004.002 0-.002 0-.004 0-.006 0 0 0 0 0 .002.002.002.002.005.006.006 0 0 .002 0 .002 0 0 0 .002 0 .002 0 0-.003 0-.004 0-.007m.03-.03c-.002 0-.004 0-.005 0 0 0 0 .003 0 .004-.002 0-.003-.003-.004-.004 0 0 0 0-.002 0-.003-.002-.007 0-.009 0 0 0-.002.002-.002.003 0 .003-.002.006-.002.0001 0 .002 0 .004.002.007 0 0 0 0 0 .002 0 0 .003.002.005.003.002 0 .003 0 .005 0 0 0 .003.002.005.002 0 .004 0 .006 0 .008-.004.002-.008.002-.012 0 0-.002 0-.004 0-.006-.002 0-.004 0-.005 0 0 0 0 0 0 .002 0 .003.002.006.004.008 0 0 .007.006.0001.005 0 0 .002 0 .003 0 0 0 .002 0 .002 0 0 0 0 0 0-.002.002-.002.003-.007.003-.013 0-.006 0-.013 0-.019 0-.002 0-.004 0-.005m.054.053c.008 0 .013-.003.016-.011 0 0 0-.002 0-.003 0-.002.002-.009 0-.012 0-.003 0-.006 0-.008 0-.002-.002-.004-.003-.005 0 0 0 0 0-.002 0 0-.002 0-.003-.002-.002 0-.005-.002-.008-.002 0 0 0 0-.002 0-.002 0-.003.002-.004.004 0 0 0 .003 0 .004 0 0 0 .003 0 .004 0 .002-.002.0001-.002.013 0 .002 0 .005 0 .008 0 0 .002.003.004.004 0 0 0 0 .002 0 0 0 0 0 .002 0 0 0 .002 0 .003 0m-.214-.035c0-.014.002-.029.003-.043-.002 0-.003 0-.005 0 0 .014-.002.028-.003.042 0 0 .003.002.005.002m.193.03c0 0 .003 0 .004 0 .002-.003.002-.0001.002-.014 0-.0001 0-.019.002-.028 0 0-.003 0-.005-.002 0 .015-.002.029-.003.043m-.148-.029c0-.002-.002-.003-.003-.007 0 0 0-.012 0-.016 0 0 0-.003 0-.004.003-.002.003-.005.008-.004 0 0 0 0 .002 0 0 0 0 .002 0 .003 0 0 0 .003 0 .004.002.008 0 .012-.002.019 0 0-.002.003-.003.004-.002 0-.004 0-.006 0m.027-.007l.015.002c0 .003 0 .005 0 .007-.002 0-.003.002-.005.004 0 0 0 0-.002 0-.005 0-.007-.005-.007-.012m.097.024c0 0 0-.002 0-.003 0 0 0-.002 0-.002 0 0 0-.002 0-.003 0-.006.002-.0001.002-.015.004-.002.003-.005.009-.004 0 0 .002.002.003.004.003.005 0 .022-.003.023h-.002c-.002.004-.006 0-.008-.002m.042.007c0-.003 0-.005-.002-.008 0-.005.002-.011.002-.015.002-.002.002-.004.004-.005.002 0 .003 0 .006 0 0 0 0 0 0 0s0 .004.002.005c0 .0001 0 .019-.005.022 0 0-.005.002-.007 0 0 0 0 0-.002 0m-.305-.062c0 0-.002 0-.004-.002 0 0-.002 0-.003 0-.002 0-.003 0-.005-.002 0 0 0 0 0-.002 0-.002 0-.004 0-.006 0 0 .003-.002.003-.003.005 0 .009.002.0001.008 0 .002 0 .006 0 .0001m.233.032c0-.003 0-.004 0-.007 0 0 0 0 0-.002.002 0 .005-.003.009 0 0 0 0 .002 0 .003 0 .003 0 .006 0 .009-.004-.002-.008-.004-.013-.006m.1.008c0 0 .003 0 .005 0 0-.002 0-.005 0-.008 0 0-.004-.002-.006-.002v.009zm.42.006c.004 0 .007 0 .011.002 0 0 0 0 0-.002 0 0 .002 0 .002 0 0 0 0 0 .002 0 0 0 0-.002.002-.003 0-.002.003-.005.005-.007 0 0 .002-.002.003-.003 0 0 0 0 0-.002 0 0 .002 0 .002-.002 0 0 0 0 0-.002 0 0 0 0 0-.002 0-.002 0-.003 0-.004 0-.002 0-.003 0-.004 0 0 0-.003 0-.005 0 0 0 0 0-.002 0 0 0-.002 0-.003 0 0 0-.003 0-.004 0 0 0 0 0-.002 0 0 0-.002 0-.004 0 0 0-.002 0-.004 0 0 0-.003 0-.005 0-.002 0-.005 0-.008 0 0 0-.002 0-.004 0-.003 0-.007 0-.009 0-.005 0-.009 0-.013 0 0 0-.002 0-.003 0-.002 0-.003 0-.005 0 0 0-.002 0-.003 0 0 0-.002 0-.003 0 0 0 0 0-.002 0 0 0-.002 0-.003 0 0 0-.002 0-.003 0 0 0-.003 0-.005 0 0 0-.002 0-.004 0 0 0-.002 0-.003 0 0 0-.003 0-.004 0 0 0-.002-.002-.003 0 0 0-.002 0-.002 0 0 0-.002-.002-.003 0 0 0 0 0-.002 0-.002-.003-.004-.004-.007 0 0 0 0 0-.002 0 0-.002-.003-.003-.005 0 0 0-.002 0-.003 0 0 0 0 0 0s0 0-.002 0c0 0 0 0 0 0-.002 0-.005 0-.008-.002 0 .002 0 .002-.003.003 0 .002 0 .004-.002.006-.002.005 0 .0001 0 .012 0 0 0 .002 0 .003 0 0 0 0 0 .002 0 0 0 0 .002 0v.003c0 0 0 0 0 0s0 .003 0 .004c0 0 0 0 .002.002 0 0 0 0 0 .002 0 0 0 .002.002.002 0 0 0 .002 0 .002 0 0 0 0 0 .002 0 0 0 0 0 .002 0 0 0 0 0 .002 0 0 0 .002 0 .003 0 0 0 .002 0 .002 0 .002 0 .004 0 .006 0 0 0 .003 0 .005 0 .003.002.02 0 .025 0 0 0 .002 0 .004 0 0 0 .003 0 .005 0 0 0 0 0 .002 0 .002 0 .004 0 .006 0 0 0 0 0 .002 0 0 0 0 0 .002 0 0 0 .002 0 .003v.004c0 0 0 0 0 0 0 .002 0 .003 0 .004 0 0 0 0-.002 0 0 0 0 0 0 .002 0 0-.002 0-.002.002-.003.003-.006.009-.0001.0001 0 0 0 .002 0 .003 0 0 0 0 0 0s0 0 0 .002c0 .004 0 .009 0 .014.002 0 0 .004.004.005 0 0 0 0 0 .002m-.249-.063c0 0 0 0 0-.002.002 0 .002 0 .003-.003 0 0 0-.002 0-.003.002-.002.003-.006.005-.009 0 0 0-.002 0-.003 0 0 0 0 0-.002 0 0 0-.002 0-.002 0 0 0 0 0-.002 0 0 0-.003 0-.004 0 0 0-.003 0-.004 0 0 0-.002 0-.003 0-.002 0-.004 0-.006 0-.005 0-.0001 0-.014 0 0 0-.002 0-.004 0-.002 0-.004 0-.006 0 0 0 0 0-.002 0-.002 0-.003 0-.005 0-.002 0-.005 0-.007 0-.002 0-.003 0-.004 0 0 0 0 0-.002 0 0 0-.002 0-.002 0 0 0-.002 0-.002 0-.002-.002-.003-.003-.005 0-.003-.003-.006-.004-.008v-.002c0 0 0 0 0 0s0 0 0-.002h-.002c0 0 0 0 0 0s0 0-.002 0c0 0 0 0-.002 0 0 0-.002 0-.003 0 0 0-.002 0-.003 0 0 0-.002 0-.003 0-.003 0-.012-.002-.014 0-.002 0-.004 0-.006 0 0 0-.002 0-.002 0 0 0 0 0-.002 0 0 0 0 .002 0 .002 0 0-.003 0-.005.002 0 0 0 0 0 .002 0 0 0 0-.002 0 0 0 0 0-.002 0 0 0 0 .002 0 .003 0 .003-.003.005-.004.007 0 0-.002 0-.003.002 0 0 0 0 0 .002 0 0 0 0-.002 0 0 0 0 .002 0 .003 0 .002 0 .004 0 .005 0 0 0 0-.002 0 0 0 0 0 0 .002 0 0 0 .002 0 .003 0 0 0 .002 0 .003 0 0 0 .002 0 .003 0 0 0 .002 0 .003 0 .002 0 .004 0 .006 0 0 0 .002 0 .003 0 .007 0 .013-.002.02 0 0 0 .002 0 .003 0 0 0 .003 0 .005 0 0 0 .002 0 .002 0 .003 0 .005 0 .007 0 0 0 .002 0 .003 0 0 0 0 0 .002 0 0 0 .002 0 .003 0 0 0 0 0 .002 0 0 0 .002 0 .003 0 0 0 0 .002.002 0 0 0 0 0 .002.002.003.004.006.006.008 0 .002 0 .004.002.006 0 0 0 .002 0 .003 0 0 0 0 0 .002 0 0 .002 0 .003.002 0 0 0 0 0 .002s0 0 0 0c0 0 .002 0 .003.002 0 0 .002 0 .002 0 .008.006.02.007.028.004 0 0 .002 0 .003 0s0 0 .002 0c0 0 0 0 0 0h.002c0 0 0 0 0 0s.002 0 .003-.002c0 0 0 0 .002 0 0 0 0 0 .003-.002m-.367-.16c-.011-.002-.021-.004-.031-.005 0-.002 0-.005-.002-.007 0 0 0 0 0-.002 0 0 0-.002 0-.003 0 0 0-.002 0-.003 0-.002-.002-.004-.003-.006 0 0 0-.002 0-.002-.004 0-.006-.003-.0001-.003-.007-.002-.012-.002-.016 0 0 0 0 .002-.002.003 0 0 0 0 0 .002 0 .002 0 .003-.002.005 0 .004 0 .008-.002.013 0 0 0 0 0 .002 0 0 0 .003 0 .004 0 0 0 0 0 .002 0 0 0 .002 0 .003 0 0 0 .003 0 .004 0 0 0 .003 0 .004 0 .002 0 .003 0 .005 0 0 0 0 0 .002 0 0 0 .002 0 .003 0 0 0 .002 0 .002 0 0 0 0 0 .002 0 0 0 0 0 .002 0 0 0 .003 0 .004 0 0 0 .002 0 .002 0 .003 0 .006 0 .008 0 0 0 0 0 .002 0 0 0 .003 0 .004 0 .002 0 .003 0 .004 0 .003 0 .005 0 .008 0 0 0 .002 0 .003 0 0 0 0 0 .002 0 0 0 .002 0 .003 0 0 0 .002 0 .003 0 0 0 .002 0 .002 0 0 0 .002 0 .002 0 0 0 .003 0 .004 0 0 0 .003 0 .004 0 .007.004.017.007.021 0 0 .002 0 .003 0 .003 0 .006 0 .009 0 .003.002.008.002.012.002.009.002.018.003.026.004.002-.002 0 0 .003 0 0 0 .002-.003.003-.004 0 0 0 0 0-.002 0 0 0 0 .002 0 0-.002 0-.003 0-.004 0 0 0 0 0-.002 0 0 0-.002 0-.003 0 0 0 0 0-.002s0 0 0-.002c0 0 0 0 0 0s0 0 0-.002c0-.002 0-.004 0-.006s0 0 0-.002c0 0 0 0 0 0s0-.003 0-.004c0-.003 0-.005.002-.008 0 0 0-.003 0-.004 0 0 0-.002 0-.003 0-.002 0-.003 0-.004 0 0 0 0 0 0 0-.002 0-.004 0-.005 0 0 0-.003 0-.004 0 0 0 0 0 0s0-.003 0-.004c0 0 0-.002 0-.003 0 0 0-.002 0-.003 0 0 0 0 0-.002 0 0 0-.002 0-.003 0 0 0-.002 0-.003 0 0 0-.002 0-.003 0 0 0-.003 0-.004 0-.002 0-.003 0-.004 0 0 0-.002 0-.002 0 0 0-.002 0-.003 0 0 0-.002 0-.003 0-.004 0-.008 0-.013 0 0 0-.002 0-.002 0 0 0 0 0-.002 0-.002 0-.004-.002-.006 0 0 0 0 0-.002 0 0 0 0 0-.002 0 0-.002 0-.004 0-.002 0-.005 0-.008 0-.002 0-.005 0-.008 0 0 0 0 0-.002 0 0 0 0 0-.002 0 0 0 0 .002 0 .003 0 0 0 .002 0 .003 0 0 0 .003-.002.005 0 .002 0 .004 0 .006v.002c0 0 0 0 0 0s0 .002 0 .003m.134.121c0 0 0 0 0-.002 0 0 .002-.002.003-.003 0 0 0 0 0-.002 0 0 0-.002 0-.003 0 0 0-.002 0-.002 0 0 0 0 0-.002 0-.002 0-.003 0-.004 0 0 0-.002 0-.003 0 0 0 0 0-.002 0 0 0-.002 0-.004 0 0 0 0 0-.002 0-.002 0-.003 0-.005 0 0 0-.002 0-.002 0-.003 0-.007 0-.0001 0-.004 0-.009 0-.012 0-.002 0-.005 0-.008 0 0 0 0 0-.002 0-.002 0-.004 0-.005 0 0 0 0 0-.002 0 0 0-.002 0-.004 0 0 0-.003 0-.004 0 0 0 0 0-.002v-.005c0 0 0-.002-.002-.002 0 0 0 0 0-.002 0 0-.002 0-.002-.002 0 0 0 0 0-.002 0 0 0-.003-.002-.004 0 0 0-.002-.002-.003 0 0 0-.002 0-.002 0 0 0-.002 0-.002 0 0-.002 0-.003 0 0 0 0-.002 0-.002 0 0-.002 0-.003 0 0 0 0 0-.002-.002 0 0 0 0-.002 0 0 0 0 0-.002 0-.002 0-.003 0-.004 0 0 0 0 0 0 0s-.002 0-.004 0c-.005-.003-.012-.003-.018-.004-.009-.002-.025-.007-.031-.003 0 0 0 0 0 .002-.002.002-.003.004-.005.006 0 0 0 .002 0 .003 0 0 0 .002 0 .002 0 0 0 0 0 .002 0 0 0 .002 0 .002 0 .004 0 .008 0 .011 0 .006 0 .013 0 .02 0 .014-.002.028-.003.042 0 .007 0 .017-.002.023 0 .003 0 .009 0 .0001 0 .003.002.005.003.008 0 0 0 .002.002.003.005.008.015.007.024.009.006 0 .011.002.016.003.004 0 .008 0 .012.002 0 0 0 0 .002 0 0 0 .002 0 .003 0 0 0 .002 0 .002 0 0 0 .002 0 .002 0 0 0 0 0 .002 0 0 0 0 0 .002 0s0 0 0 0c0 0 0 0 0-.002 0 0 0 0 0-.002 0 0 0 0 .002 0 0 0 0-.002.002-.003.002-.002 0-.004.004-.004m.03.019c0 0 0 0 0 0s0 0 .002 0 0 0 0 0c.003 0 .006 0 .009.002.003 0 .005 0 .008.002.003 0 .006 0 .009 0 0-.002 0 0 .002 0 .002 0 .003-.002.004-.004 0 0 0-.002 0-.003.002-.028.004-.056.006-.084 0-.0001.003-.03 0-.036-.002-.005-.004-.008-.008-.0001-.003 0-.007 0-.0001 0-.004 0-.008 0-.011 0 0 0 0 0-.002 0 0 0-.002 0-.003 0 0 0 0 .002 0 .002 0 0 0 0 0 .002 0 .002 0 .002-.002.004-.002.028-.004.057-.006.086 0 .007-.003.027 0 .031 0 0 0 .002 0 .003 0 0 0 0 0 .002m.063-.115c0 0 0 0 0 .002 0 0 0 .002-.002.003 0 0 0 0-.002 0 0 0 0 .002 0 .003 0 .002 0 .003 0 .005 0 0 .002 0 .003 0 .002 0 .004 0 .006 0 0 0 .002 0 .004 0 0 0 0 0 .002 0 0 0 0 .002 0 .003 0 0 0 0 0 .002 0 .007 0 .015 0 .022 0 .015-.002.03-.003.045 0 .008 0 .016 0 .024 0 .002 0 .003 0 .005 0 0 0 .002.002.003 0 0 0 0 0 .002 0 0 0 0 0 .002.006 0 .012.003.019.004.002 0 .006 0 .007 0 .002 0 .003-.002.005-.004 0 0 0 0 0-.002 0 0 0 0 0-.002.002-.019.004-.04.005-.06 0-.009.002-.021 0-.029 0-.004 0-.009 0-.014 0 0 0 0 0-.002 0-.002 0-.004 0-.005 0 0 0 0 0-.002 0 0 0 0 0-.002 0 0 0 0 0-.002 0 0 0 0 0-.002 0 0-.002-.002-.003-.003 0 0 0-.002 0-.002 0 0 0-.002 0-.003 0 0 0 0-.002 0s0 0-.002 0c0 0 0 0 0 0s-.002 0-.003 0h-.002c0 0 0 0 0 0-.004 0-.007-.002-.011-.002 0 0-.003 0-.004 0h-.002c0 0 0 0 0 0s-.002 0-.004 0h-.002c0 0 0 0 0 0s-.002 0-.003 0c0 0-.002 0-.003 0 0 0 0 0 0 .002-.002.002 0 .003-.004.004m.172.044c0 0 0 0 0 0 .002 0 .004 0 .007.002 0 0 .002 0 .003 0 0 0 .002 0 .003 0 0 .003 0 .005.002.007 0 .005 0 .015 0 .021 0 .014-.002.028-.003.042 0 .009 0 .017-.002.025 0 .002 0 .003 0 .004 0 0 0 0 0 .002 0 0 0 .002 0 .003 0 .002.003.002.004.005.006 0 .015.005.021.003.002 0 .003 0 .004 0 0 0 .003 0 .004 0 0 0 0-.002 0-.003 0 0 0-.002 0-.003.002-.019.004-.042.005-.063.002-.023.005-.045 0-.059v-.002c0 0 0 0 0 0s0-.002 0-.004c0 0-.002 0-.003 0 0 0 0 0 0-.002 0 0 0 0-.002 0 0 0-.002 0-.003 0 0 0-.003 0-.004 0-.002 0-.006 0-.008 0 0 0-.003 0-.004 0-.002 0-.003 0-.004 0 0 0 0 0 0 0h-.002-.002c0 0 0 0 0 0s0 .002-.002.002c0 0 0 .002-.002.003 0 0 0 0 0 .002 0 0-.002.002-.003.003 0 0 0 .002 0 .003 0 .004 0 .008 0 .0001m-.5.017c0 0 0 0 0 0 0-.004.003-.004.003-.007 0 0 0 0 0-.002 0-.002 0-.004 0-.007 0-.005.002-.009 0-.015 0-.002 0-.004 0-.006 0 0 0-.002 0-.003 0 0 0 0 0-.002 0 0 0 0 0-.002 0 0 0 0-.002-.002 0-.003-.003-.007-.005-.0001 0 0 0-.002 0-.002 0-.002 0-.002 0-.003 0 0 0-.002 0-.002 0 0 0 0 0-.002 0 0 0-.002 0-.003 0-.002 0-.004.002-.005 0 0 0-.002 0-.003 0-.002 0-.003 0-.004 0 0 0-.002 0-.003 0 0 0 0 0-.002 0 0 0-.002 0-.004.002-.004 0-.0001 0-.012 0 0 0 0 0-.002-.002-.007-.005-.009-.011-.013-.002 0-.005 0-.007 0-.003 0-.007 0-.0001 0 0 0-.002 0-.003 0 0 0 0 0-.002 0 0 .002 0 .003-.002.004 0 0 0 0-.002 0 0 .002 0 .003 0 .005 0 .002 0 .004 0 .007s0 0 0 .002c0 0 0 0 0 0 0 .002 0 .003 0 .004 0 0 0 .002 0 .003 0 0 0 .003 0 .004 0 .004-.003.008-.005.011 0 0 0 0 0 .002-.002 0-.008.005-.0001.003 0-.002 0-.006 0-.009 0-.008 0-.015.002-.023 0 0 0-.002 0-.004 0 0 0 0 0-.002 0 0 0-.002 0-.002 0 0 0-.002 0-.003 0-.002 0-.004-.002-.005 0 0-.002 0-.003-.002 0 0 0 0 0-.002-.004 0-.007 0-.0001 0-.002 0-.003 0-.004-.002-.002 0-.004 0-.007 0 0 .003-.002.002-.003.003 0 0 0 0 0 .002 0 0-.002.002-.003.003 0 0 0 .002 0 .003 0 0 0 .003 0 .005-.002.025-.004.051-.005.076 0 .011-.004.028-.002.036 0 .002.002.004.003.006 0 0 0 .002 0 .003 0 0 0 0 .002.002.014.003.028.005.042.007.009 0 .02.004.026 0 0 0 0 0 .002 0 0 0 0-.002.002-.003 0 0 0 0 0-.002.002-.002.003-.002.004-.005m.696.008c0 0 0 0 0 0v.002l.002.004c0 0 0 0 0 0s0 .003 0 .004c0 0 0 0 0 .002 0 0 0 0 0 .002 0 .003 0 .006 0 .008 0 0 0 .002 0 .002 0 .003 0 .005 0 .008 0 .008-.003.02-.005.024 0 0 0 .002 0 .004 0 0 0 0-.002 0 0 0 0 0 0 .002 0 0-.003.003-.004.004 0 0 0 .002-.002.003 0 .002-.002.004-.004.006 0 .006 0 .011.002.013 0 .002.006.002.008.002 0-.002.004-.003.006-.005 0-.002.002-.003.003-.005 0 0 0 0 0-.002 0 0 .002-.002.003-.002 0 0 0-.003 0-.004 0 0 0 0 .002 0 0 0 0 0 0-.002 0 0 0-.003.002-.005 0 0 0 0 0-.002 0 0 0 0 0-.002 0-.002 0-.005 0-.007 0 0 0-.002 0-.003 0-.008 0-.017.002-.026 0 0 0 0 0-.002 0 0 0-.002 0-.003 0 0 0-.002 0-.003 0-.002 0-.004 0-.007 0 0 0-.002 0-.003 0 0 0 0 0-.002 0 0 0-.002 0-.003 0 0 0-.002-.002-.003 0 0 0-.002 0-.002 0 0-.002 0-.002-.002v-.003-.002c0 0 0 0 0 0s0 0 0-.002l-.002-.004c-.003 0-.005 0-.008 0 0 0 0 .002-.002.002 0 0 0 0 0 .002 0 0 0 .002 0 .003 0 .002 0 .004 0 .006 0 0 0 .002 0 .003m-.743-.026c0 0 0 0 0 0s0 0-.002 0c0 0 0-.002 0-.002 0-.002 0-.003-.002-.004 0 0 0-.002 0-.004 0 0 0-.002 0-.002 0-.004.002-.016.003-.017 0 0 .002-.003.003-.004 0 0 .002 0 .003 0 0 0 0 0 0 0 .006 0 .013.007.014.0001 0 .002 0 .004 0 .006 0 0 0 0 0 .002 0 .002 0 .011-.002.012 0 .006-.006.011-.0001.012-.002 0-.005 0-.008 0m.122 0c0 0 0 0 0 0s0 0-.002 0c0-.002 0-.002-.003-.004 0-.004-.002-.007-.003-.0001 0-.002 0-.004 0-.005 0-.009.003-.011.007-.015v-.003c0 0 0 0 .002 0s0 0 0 0c.003 0 .005 0 .008 0 0 .003 0 0 .003.003 0 0 0 0 0 .002 0 0 0 .002.002.003 0 .002 0 .003 0 .004 0 0 0 .002 0 .003 0 .003 0 .005 0 .007 0 .003 0 .005-.002.008 0 0-.002.002-.004.004-.003.003-.007.002-.012 0m.134-.021c0 .003 0 .004.002.007 0 0 0 .002 0 .002 0 0 0 .002 0 .002 0 0 0 .003 0 .004 0 .003-.002.011-.003.012-.004.008-.014.011-.02.003 0-.002-.002-.005-.003-.007 0 0 0-.002 0-.003 0 0 0-.003 0-.004 0 0 0-.006 0-.008 0-.002 0-.003 0-.004 0 0 .002 0 .002 0 0 0 0-.003.002-.004.002-.002.006-.006.0001-.003.002 0 .004.003.006.004m.404.1c0 0 0 0 0 0-.002 0-.003 0-.004-.002 0-.003 0 0-.002-.002 0 0 0-.003-.002-.005 0-.002-.003-.012 0-.017 0-.002 0-.004.002-.006 0 0 .002-.003.003-.004.003-.002.007-.002.012 0 0 0 .002 0 .003.002 0 0 0 0 0 .002 0 0 0 0 0 .002.002.006 0 .012 0 .018 0 0-.002.004-.003.006v.002c0 0 0 0 0 0-.003.002-.004.002-.008 0m-.176-.029c0 0-.003-.003-.004-.003 0-.002-.002-.005-.003-.007 0 0 0 0-.002 0 0 0 0-.002 0-.004 0-.003 0-.007 0-.011 0 0 0 0 0-.002 0-.002 0-.004.002-.005 0 0 .002-.002.003-.003 0 0 0 0 0-.002 0 0 0 0 .002 0 0 0 0 0 .002 0 .009 0 .011.003.014.011 0 .002 0 .003 0 .005.002.013-.006.022-.012.024-.002 0-.003 0-.005 0"/></clipPath><clipPath><path d="m.511.688h.104v.05h-.104v-.05"/></clipPath><clipPath><path d="m.675.589c0-.003 0-.005-.002-.006 0-.002-.012-.009-.032-.023.002-.005.005-.011.008-.019 0 0 0-.003 0-.004 0-.003.002-.005.002-.006 0 0 0-.002-.002-.003 0-.002-.002-.002-.002-.002-.002 0-.008 0-.02.004 0-.013 0-.022 0-.027 0 0 0-.002 0-.004 0-.002 0-.003 0-.004 0-.006-.002-.009-.005-.009-.007.006-.013.013-.019.021 0-.002-.002-.006-.003-.011-.002-.006-.003-.009-.005-.009 0 0-.004.005-.008.014 0 0-.002-.003-.003-.009-.007-.019-.011-.028-.012-.028h-.002c-.002 0-.004.007-.007.021-.002.008-.004.017-.006.025 0 0 0 0 0-.002 0 0-.005-.003-.011-.009-.004-.003-.007-.005-.0001-.005l-.002.002c0 .003 0 .007 0 .013 0 .006 0 .0001 0 .013s-.0001-.004-.031-.012c0 0 0 0 0 .002 0 0 .002.008.007.019.004.0001.007.017.009.02-.002 0-.004.003-.009.007-.002 0-.004.002-.006.003-.004.003-.006.005-.006.007 0 0 .002.005.007.011.002.004.005.007.007.0001-.005.006-.013.013-.022.021 0 0 0 .002 0 .003 0 0 0 0 0 .002 0 0 0 0 0 .002l.014.005c.006.002.011.005.015.009-.006.011-.008.018-.008.018 0 .004 0 .006.004.006 0 0 .005-.003.015-.007 0 .006 0 .012-.002.016 0 .004 0 .0001-.002.019 0 0 0 .003 0 .007 0 .003 0 .005 0 .006 0 0 0 .003 0 .004 0 0 .002.002.003.002 0 0 .005-.003.011-.0001.003-.003.007-.007.013-.013 0 .004 0 .008 0 .011 0 .005.002.008.003.008 0 0 .005-.005.011-.013l.008.025c.005.014.008.021.009.021 0 0 0 0 .002 0l.0001-.037c0-.002 0-.004 0-.006 0-.004.002-.006.003-.006 0 0 .002.002.006.006.004.004.007.006.008.006 0 0 0-.002.002-.006 0-.006 0-.012 0-.02.002 0 .008.003.017.005 0 0 .004 0 .008.002.004.003.006.004.007.004.002 0 .003 0 .003-.004 0 0-.003-.007-.007-.016-.003-.006-.005-.013-.008-.022 0 0 .002 0 .004 0 .009 0 .013 0 .013-.006 0-.005 0-.011-.003-.016 0-.006-.004-.009-.007-.009.002 0 .0001-.004.024-.009.002 0 .005-.003.009-.005 0 0 0-.002 0-.004"/></clipPath><clipPath><path d="m.387.686h.122v.191h-.122v-.191"/></clipPath><clipPath><path d="m.618.686h.122v.051h-.122v-.051"/></clipPath><clipPath><path d="m.618.687h.122v.05h-.122v-.05"/></clipPath><clipPath><path d="m.659.877h.023.0001-.053.02m-.02 0h.053.011-.07.006m-.006 0h.07l.005-.002h-.082l.007.002m-.007-.002h.082.003-.087.002m-.002 0h.087.003-.093.003m-.003 0h.093l.004-.002h-.099l.002.002m-.002-.002h.099-.101m0 0h.101l.005-.003h-.106v.003m0-.003h.106l.004-.004h-.11v.004m0-.004h.11-.111m0 0h.111l.004-.007h-.115v.007m0-.007h.115-.116m0 0h.116l.003-.009h-.119v.009m0-.009h.119l.002-.0001h-.121v.0001m0-.0001h.121v-.007h-.122v.007m0-.007h.122v-.006h-.122v.006m0-.006h.122v-.008h-.121v.008m.059-.008h.062v-.002h-.059l-.003.002m.003-.002h.059v-.003h-.057l-.002.003m.002-.003h.057-.056m0 0h.056v-.005h-.052l-.003.005m-.065.006h.059v-.014h-.06v.014m.068-.011h.052v-.005h-.052v.005m0-.005h.052-.051m0 0h.051v-.004h-.05v.004m-.068.002h.06v-.0001h-.061v.0001m.068-.006h.05v-.004h-.051l.002.004m-.002-.004h.051v-.003h-.053l.002.003m-.002-.003h.053-.052m-.064.003h.061v-.005h-.06v.005m.064-.003h.052v-.002h-.055l.003.002m-.063-.002h.115l-.002-.004h-.113v.004m0-.004h.113l-.002-.003h-.111v.003m0-.003h.111l-.005-.015h-.106v.015m0-.015h.106l.002-.005h-.108v.005m0-.005h.108l.004-.006h-.112v.006m0-.006h.112l.007-.0001h-.119v.0001m0-.0001h.119v-.002h-.12v.002m0-.002h.12v-.004h-.118v.004m0-.004h.118l-.003-.004h-.115v.004m0-.004h.115l-.006-.006h-.109v.006m0-.006h.109l-.002-.003h-.107v.003m0-.003h.107l-.004-.003h-.103v.003m.055-.003h.048l-.008-.007h-.034l-.006.007m.006-.007h.034v-.002h-.031l-.002.002m-.061.007h.055v-.019h-.053l-.002.019m.063-.009h.031l-.0001-.013h-.0001l-.011.013m-.061-.0001h.053l-.003-.003h-.05v.003m0-.003h.05l-.004-.002h-.046v.002m.072 0h.0001l-.003-.003h-.004l-.003.003m-.072-.002h.046-.005-.041m.075 0h.004-.003m-.075 0h.041-.008-.033m0 0h.033l-.009-.003h-.024v.003m0-.003h.024-.005-.016-.003m.003 0h.016-.002-.009-.005m.005 0h.009-.002"/></clipPath><clipPath><path d="m.618.727h.122v.151h-.122v-.151"/></clipPath><clipPath><path d="m.618.727h.122v.15h-.122v-.15"/></clipPath><clipPath><path d="m.511.687h.104v.05h-.104v-.05"/></clipPath><clipPath><path d="m.114.022h1v1h-1v-1"/></clipPath><clipPath><path d="m.609.877h.002-.009.007m-.02 0h.003-.0001.007m.013 0h.009.002-.017.006m-.02 0h.0001.003-.014m.014 0h.017-.018m-.015 0h.032-.035.003m-.003 0h.035-.037m-.022 0h.058-.065.007m-.007 0h.065-.067.002m-.002 0h.067-.071.004m-.004 0h.071-.081.0001m-.0001 0h.081v-.002h-.089l.007.002m-.007-.002h.089v-.002h-.095l.006.002m-.006-.002h.095-.098.004m-.004 0h.098v-.002h-.101l.003.002m-.003-.002h.101-.101m0 0h.101-.102m0 0h.102v-.027h-.103v.027m0-.027h.103v-.0001h-.104v.0001m0-.0001h.104v-.003h-.103v.003m0-.003h.103l-.018-.005h-.085v.005m0-.005h.085l-.012-.002h-.073v.002m0-.002h.073-.004-.069m0 0h.069l-.007-.002h-.062v.002m0-.002h.062l-.003-.002h-.059v.002m.084-.005h.003-.008.004m-.004 0h.008v-.002h-.015l.006.002m-.006-.002h.015-.017.002m-.074.006h.059v-.008h-.059v.008m0-.008h.059-.06m.072 0h.017-.029.012m-.072 0h.089v-.002h-.089v.002m0-.002h.089l.002-.028h-.091v.028m0-.028h.091v-.002h-.09v.002m0-.002h.09l-.008-.004h-.082v.004m0-.004h.082l-.0001-.002h-.072v.002m0-.002h.072l-.006-.003h-.066v.003m0-.003h.066l-.004-.002h-.062v.002m0-.002h.062-.061m.088-.008h.006-.016.0001m-.088.008h.061v-.009h-.061v.009m.078-.009h.016.003-.024.005m-.078 0h.061.006-.067m.073 0h.024-.031.006m-.073 0h.098.002-.1m0 0h.1v-.003h-.101v.003m0-.003h.101v-.005h-.101v.005m0-.005h.101v-.009h-.1v.009m0-.009h.1v-.0001h-.1v.0001m0-.0001h.1v-.013h-.101v.013m0-.013h.101l.002-.016h-.103v.016m0-.016h.103v-.002h-.101l-.002.002m.002-.002h.101-.102m0 0h.102-.101m0 0h.101v-.002h-.083l-.017.002m.017-.002h.083l-.022-.003h-.028"/></clipPath><clipPath><path d="m.511.727h.104v.151h-.104v-.151"/></clipPath><clipPath><path d="m.209.687h.059v.05h-.059v-.05"/></clipPath><clipPath><path d="m.446.877h.012-.021.009m-.009 0h.021-.022m0 0h.022l.012-.004h-.049l.015.004m-.015-.004h.049-.051m0 0h.051l.009-.004h-.074l.014.004m-.014-.004h.074l.004-.003h-.087l.009.003m-.009-.003h.087.002-.09m0 0h.09-.093.002m-.002 0h.093l.002-.002h-.101l.006.002m-.006-.002h.101-.102m0 0h.102l.002-.003h-.105v.003m0-.003h.105l.002-.002h-.106v.002m0-.002h.106l.003-.005h-.109v.005m0-.005h.109v-.003h-.11v.003m0-.003h.11l.002-.004h-.112v.004m0-.004h.112v-.005h-.113v.005m0-.005h.113-.114m0 0h.114l.003-.009h-.117v.009m0-.009h.117l.003-.02h-.12v.02m0-.02h.12v-.013h-.12v.013m0-.013h.12v-.005h-.12v.005m.046-.005h.074v-.002h-.066l-.008.002m.008-.002h.066v-.003h-.061l-.005.003m.005-.003h.061-.061m0 0h.061v-.003h-.058l-.002.003m.002-.003h.058v-.005h-.06l.002.005m-.002-.005h.06v-.002h-.06v.002m0-.002h.06v-.003h-.062l.002.003m-.002-.003h.062v-.002h-.064l.002.002m-.002-.002h.064-.066m0 0h.066-.066m-.053.022h.046l.003-.025h-.049v.025m.053-.023h.066v-.002h-.069l.004.002m-.053-.002h.118v-.003h-.117v.003m0-.003h.117l-.002-.004h-.115v.004m0-.004h.115l-.003-.0001h-.112v.0001m0-.0001h.112l-.005-.009h-.107v.009m0-.009h.107-.107m0 0h.107l-.009-.015h-.098v.015m0-.015h.098l-.009-.011h-.088v.011m0-.011h.088l-.015-.014h-.073v.014m0-.014h.073l-.009-.004h-.064v.004m0-.004h.064-.005-.059m0 0h.059l-.012-.003h-.045l-.002.003m.002-.003h.045-.004-.039-.002m.002 0h.039-.005-.033m0 0h.033l-.013-.003h-.011l-.009.003m.009-.003h.011-.004"/></clipPath><clipPath><path d="m.387.686h.122v.051h-.122v-.051"/></clipPath><clipPath><path d="m.387.727h.122v.151h-.122v-.151"/></clipPath><clipPath><path d="m.315.877h-.003.003m-.003 0h.003.002-.011.006m-.006 0h.011v-.003h-.025l.013.003m-.013-.003h.025v-.002h-.045l.019.002m.05 0l.013-.004h-.017l.004.004m-.004-.004h.017l.009-.002h-.027v.002m0-.002h.027.015-.042m-.064.005h.045l.002-.006h-.048v.006m.064-.005h.042l.002-.002h-.044v.002m0-.002h.044v-.004h-.045v.004m0-.004h.045v-.005h-.045v.005m-.065.005h.048l.004-.011h-.052v.011m0-.011h.052l.004-.009h-.057v.009m0-.009h.057l.006-.013h-.063v.013m.065.0001h.045v-.023h-.047l.002.023m-.065-.023h.11v-.006h-.11v.006m0-.006h.11v-.029h-.11v.029m0-.029h.11v-.019h-.11v.019m0-.019h.11v-.019h-.111v.019m0-.019h.111v-.012h-.11v.012m0-.012h.11v-.009h-.11v.009m0-.009h.11v-.004h-.11v.004m0-.004h.11v-.003h-.11v.003m0-.003h.11v-.003h-.111v.003m0-.003h.111v-.003h-.111v.003m.046-.003h.065v-.004h-.063l-.002.004m.002-.004h.063v-.007h-.061l-.003.007m-.048.004h.046v-.012h-.045v.012m0-.012h.045v-.003h-.045v.003m0-.003h.045-.044m.051.004h.061v-.005h-.058l-.002.005m.002-.005h.058v-.003h-.056v.003m0-.003h.056l-.003-.002h-.052v.002m0-.002h.052l-.005-.002h-.046v.002m-.054.006h.044v-.013h-.021l-.023.013m.055-.008h.046l-.019-.007h-.024l-.003.007m.003-.007h.024-.023m-.035.002h.021v-.005h-.011l-.0001.005m.035-.002h.023l-.008-.003h-.014v.003m-.025-.003h.011v-.003h-.003l-.007.003m.007-.003h.003-.002m.019.003h.014l-.008-.005h-.004l-.002.005m.002-.005h.004-.004m0 0h.004-.002"/></clipPath><clipPath><path d="m.272.686h.113v.051h-.113v-.051"/></clipPath><clipPath><path d="m.21.687h.059v.05h-.059v-.05"/></clipPath><clipPath><path d="m.261.877h.002-.007.005m-.035 0h.02-.03.0001m-.0001 0h.03.004-.034m.04 0h.007-.014.006m-.04 0h.048-.05m0 0h.05-.051m0 0h.051-.053m0 0h.053v-.003h-.055l.002.003m-.002-.003h.055v-.003h-.056v.003m0-.003h.056v-.029h-.056v.029m0-.029h.056v-.003h-.056v.003m0-.003h.056v-.009h-.056v.009m0-.009h.056v-.013h-.057v.013m0-.013h.057v-.02h-.056v.02m0-.02h.056v-.023h-.056v.023m0-.023h.056v-.0001h-.056v.0001m0-.0001h.056v-.004h-.055v.004m0-.004h.055v-.003h-.055v.003m0-.003h.055v-.004h-.056v.004m0-.004h.056v-.021h-.056v.021m0-.021h.056v-.011h-.056v.011m0-.011h.056v-.007h-.056v.007m0-.007h.056v-.006h-.056v.006m0-.006h.056-.055m0 0h.055-.002-.053m0 0h.053l-.015-.006h-.038v.006m0-.006h.038l-.008-.002h-.03v.002m0-.002h.03-.007-.023m0 0h.023l-.007-.003h-.016v.003m0-.003h.016l-.004-.002h-.011v.002m0-.002h.011-.003-.007m0 0h.007-.004"/></clipPath><clipPath><path d="m.511.688h.104v.19h-.104v-.19"/></clipPath><clipPath><path d="m.21.727h.059v.15h-.059v-.15"/></clipPath><clipPath><path d="m.511.727h.104v.15h-.104v-.15"/></clipPath><clipPath><path d="m.086.687h.122v.05h-.122v-.05"/></clipPath><clipPath><path d="m.209.727h.059v.15h-.059v-.15"/></clipPath><clipPath><path d="m.135.877l.003-.002h-.009l.006.002m-.006-.002h.009-.012.003m.033 0h.005-.008.003m-.036 0h.012v-.003h-.024l.012.003m.033 0h.008l.008-.002h-.017v.002m0-.002h.017l.005-.002h-.023v.002m-.044 0h.024v-.003h-.05l.026.003m-.026-.003h.05-.052.002m.069 0h.023l.008-.002h-.032v.002m0-.002h.032.018-.05m-.07 0h.052v-.002h-.052v.002m.07 0h.05.002-.052m-.07 0h.052-.052m.07 0h.052v-.002h-.053v.002m0-.002h.053v-.002h-.053v.002m0-.002h.053-.054m-.069.003h.052v-.0001h-.051v.0001m.068-.004h.054l-.006-.018h-.054l.006.018m-.067-.006h.051v-.015h-.051v.015m0-.015h.051-.051m.06.003h.054l-.004-.015h-.056l.006.015m-.06-.003h.051v-.015h-.051v.015m0-.015h.051-.051m.053.003h.056l-.002-.004h-.056l.002.004m-.053-.004h.107l-.004-.013h-.103v.013m0-.013h.103-.102m0 0h.102l-.003-.007h-.099v.007m0-.007h.099l-.002-.006h-.097v.006m0-.006h.097v-.002h-.097v.002m0-.002h.097l.0001-.031h-.106v.031m0-.031h.106l.006-.018h-.111v.018m0-.018h.111v-.002h-.112v.002m0-.002h.112v-.002h-.111v.002m0-.002h.111l-.008-.011h-.103v.011m0-.011h.103l-.008-.0001h-.095v.0001m.049-.0001h.046-.042-.003m.003 0h.042l-.003-.003h-.036l-.003.003m-.052 0h.049v-.0001h-.05v.0001m.055-.004h.036l-.005-.007h-.026l-.005.007m-.055-.006h.05v-.009h-.051v.009m0-.009h.051-.05m.06.008h.026l-.008-.0001h-.011l-.007.0001m-.059-.008h.05v-.003h-.047l-.003.003m.003-.003h.047v-.003h-.044l-.004.003m.063 0h.011l-.005-.006-.005.006m-.059-.004h.044v-.003h-.036l-.008.003m.008-.003h.036-.025-.011m.011 0h.025-.019-.006m.006 0h.019v-.002h-.006l-.012.002m.012-.002h.006"/></clipPath><clipPath><path d="m.618.687h.122v.19h-.122v-.19"/></clipPath><clipPath><path d="m.086.727h.122v.15h-.122v-.15"/></clipPath><clipPath><path d="m.511.687h.104v.19h-.104v-.19"/></clipPath><clipPath><path d="m.272.686h.113v.191h-.113v-.191"/></clipPath><clipPath><path d="m538.28 554.06h57.63c4.97 0 9-4.03 9-9.01v-57.64c0-4.97-4.03-9-9-9h-115.26c-4.97 0-9 4.03-9 9v57.64c0 4.98 4.03 9.01 9 9.01"/></clipPath><clipPath><path d="m.21.687h.059v.19h-.059v-.19"/></clipPath><clipPath><path d="m-1.01-.436h3.122v1.542h-3.122v-1.542"/></clipPath><clipPath><path d="m.086.687h.122v.19h-.122v-.19"/></clipPath><clipPath><path d="m.209.687h.059v.19h-.059v-.19"/></clipPath><clipPath><path d="m-.056-1.482h2.304v2.675h-2.304v-2.675"/></clipPath><clipPath><path d="m471.65 661.59h133.26v102.31h-133.26v-102.31"/></clipPath><clipPath><path d="m538.28 763.9h57.63c4.97 0 9-4.03 9-9v-84.3c0-4.98-4.03-9.01-9-9.01h-115.26c-4.97 0-9 4.03-9 9.01v84.3c0 4.97 4.03 9 9 9"/></clipPath><clipPath><path d="m.554 1.106h1.351c.116 0 .211-.082.211-.183v-1.175c0-.101-.095-.184-.211-.184h-2.701c-.116 0-.211.083-.211.184v1.175c0 .101.095.183.211.183"/></clipPath><clipPath><path d="m133.96 581.13h57.63c4.97 0 9-4.03 9-9v-57.65c0-4.97-4.03-9-9-9h-115.26c-4.973 0-9 4.03-9 9v57.65c0 4.97 4.03 9 9 9"/></clipPath><clipPath><path d="m132.98 128.46h57.63c4.98 0 9.01-4.03 9.01-9.01v-57.639c0-4.973-4.03-9-9.01-9h-115.25c-4.973 0-9 4.03-9 9v57.639c0 4.98 4.03 9.01 9 9.01"/></clipPath><clipPath><path d="m67.33 505.48h133.26v75.65h-133.26v-75.65"/></clipPath><clipPath><path d="m1119.1 840.5h57.6c5 0 9.1-4.03 9.1-9v-57.64c0-4.98-4.1-9.01-9.1-9.01h-115.2c-5 0-9 4.03-9 9.01v57.64c0 4.97 4 9 9 9"/></clipPath><clipPath><path d="m.52 1.517h.473c.04 0 .073-.142.073-.318v-2.034c0-.176-.033-.318-.073-.318h-.945c-.041 0-.074.142-.074.318v2.034c0 .176.033.318.074.318"/></clipPath><clipPath><path d="m119.38 566.3h57.63c4.97 0 9-4.03 9-9v-57.64c0-4.97-4.03-9.01-9-9.01h-115.26c-4.973 0-9 4.04-9 9.01v57.64c0 4.97 4.03 9 9 9"/></clipPath><clipPath><path d="m.42.774c.026.112.049.21.049.21 0 0 .024 0 .042 0-.004-.02-.016-.105-.034-.211h-.057m-.023-.106c.005.024.011.05.016.075h.059l-.012-.075h-.063m-.022-.107c.004.02.008.042.013.065h.066l-.011-.066h-.068m-.018-.099l.0001.054h.069l-.008-.054h-.071m-.02-.109l.013.071h.072l-.012-.071h-.073m-.038-.216c0 0 .013.077.031.173h.074c-.02-.124-.036-.233-.045-.294-.017.102-.06.121-.06.121"/></clipPath><clipPath><path d="m-.026-1.153h1.093v2.671h-1.093v-2.671"/></clipPath><clipPath><path d="m.499.774l-.025.148c0 0 .022.0001.036.062.015-.066.029-.141.042-.21h-.053m.018-.106l-.013.075h.054c.004-.025.009-.051.013-.075h-.054m.018-.109l-.004.027-.007.04h.054c.004-.023.008-.046.011-.068h-.054m.016-.097l-.009.054h.054l.008-.054h-.053m.017-.107c0 0-.002.016-.011.068h.053c.007-.045.0001-.071.0001-.071l-.052.002"/></clipPath><clipPath><path d="m66.35 52.807h133.27v75.65h-133.27v-75.65"/></clipPath><clipPath><path d="m1119.1 749.07h57.6c5 0 9.1-4.03 9.1-9v-84.3c0-4.97-4.1-9-9.1-9h-115.2c-5 0-9 4.03-9 9v84.3c0 4.97 4 9 9 9"/></clipPath><clipPath><path d="m118.4 113.63h57.63c4.97 0 9-4.03 9-9v-57.645c0-4.973-4.03-9-9-9h-115.26c-4.973 0-9 4.03-9 9v57.645c0 4.97 4.03 9 9 9"/></clipPath><clipPath><path d="m-.151-.845h1.367v1.907h-1.367v-1.907"/></clipPath><clipPath><path d="m1119.1 539.23h57.6c5 0 9.1-4.03 9.1-9v-57.65c0-4.97-4.1-9-9.1-9h-115.2c-5 0-9 4.03-9 9v57.65c0 4.97 4 9 9 9"/></clipPath><clipPath><path d="m471.65 569.83h133.26v75.65h-133.26v-75.65"/></clipPath><clipPath><path d="m538.28 645.49h57.63c4.97 0 9-4.04 9-9.01v-57.64c0-4.98-4.03-9.01-9-9.01h-115.26c-4.97 0-9 4.03-9 9.01v57.64c0 4.97 4.03 9.01 9 9.01"/></clipPath><clipPath><path d="m1119.1 630.66h57.6c5 0 9.1-4.03 9.1-9.01v-57.64c0-4.97-4.1-9-9.1-9h-115.2c-5 0-9 4.03-9 9v57.64c0 4.98 4 9.01 9 9.01"/></clipPath><clipPath><path d="m-.134-.786h1.36v1.942h-1.36v-1.942"/></clipPath><clipPath><path d="m.546 1.156h.589c.05 0 .092-.104.092-.231v-1.48c0-.128-.042-.231-.092-.231h-1.177c-.051 0-.092.103-.092.231v1.48c0 .127.041.231.092.231"/></clipPath><clipPath><path d="m471.65 478.41h133.26v75.65h-133.26v-75.65"/></clipPath><clipPath><path d="m.523 1.099h.586c.05 0 .091-.104.091-.232v-1.48c0-.127-.041-.231-.091-.231h-1.172c-.051 0-.092.104-.092.231v1.48c0 .128.041.232.092.232"/></clipPath><clipPath><path d="m538.28 855.33h57.63c4.97 0 9-4.03 9-9.01v-57.64c0-4.97-4.03-9-9-9h-115.26c-4.97 0-9 4.03-9 9v57.64c0 4.98 4.03 9.01 9 9.01"/></clipPath><clipPath><path d="m-.155-.844h1.355v1.942h-1.355v-1.942"/></clipPath><clipPath><path d="m.532 1.062h.592c.05 0 .092-.101.092-.227v-1.453c0-.125-.042-.227-.092-.227h-1.183c-.051 0-.092.102-.092.227v1.453c0 .126.041.227.092.227"/></clipPath><clipPath><path d="m67.33 232.4h133.26v75.66h-133.26v-75.66"/></clipPath><clipPath><path d="m133.96 308.06h57.63c4.97 0 9-4.04 9-9.01v-57.64c0-4.97-4.03-9.01-9-9.01h-115.26c-4.973 0-9 4.04-9 9.01v57.64c0 4.97 4.03 9.01 9 9.01"/></clipPath><clipPath><path d="m119.38 293.23h57.63c4.97 0 9-4.03 9-9.01v-57.64c0-4.97-4.03-9-9-9h-115.26c-4.973 0-9 4.03-9 9v57.64c0 4.98 4.03 9.01 9 9.01"/></clipPath><clipPath><path d="m-.846-.448h2.692v1.483h-2.692v-1.483"/></clipPath><clipPath><path d="m.5 1.035h1.164c.101 0 .182-.079.182-.176v-1.131c0-.097-.081-.176-.182-.176h-2.328c-.101 0-.182.079-.182.176v1.131c0 .097.081.176.182.176"/></clipPath><clipPath><path d="m471.65 779.68h133.26v75.65h-133.26v-75.65"/></clipPath></defs><g transform="translate(-604.69 401.01)"><g clip-path="url(#5)" transform="matrix(5.31781 0 0-5.31781 324.2 3020.47)" fill="none"><g clip-path="url(#4)" transform="translate(-14.583-14.826)"><g clip-path="url(#3)"><g clip-path="url(#0)" transform="matrix(133.276 0 0 39.3335 67.33 618.89)"><g clip-path="url(#2)"><g clip-path="url(#1)"><path d="m0 .68h1v.319h-1v-.319" fill="#ec1b24"/><g fill="#2199dd"><path d="m.157.449c-.007-.095.007-.115.032-.115.023 0 .04.044.044.103.007.109-.043.106-.039.16 0 .022.005.036.011.036.003 0 .006 0 .007-.007.002-.007.002-.021 0-.044h.027c.007.073-.009.104-.028.104-.018 0-.04-.022-.045-.095-.007-.108.043-.092.039-.164-.002-.023-.007-.035-.013-.035-.005 0-.008.005-.009.016 0 .011 0 .026 0 .041h-.027"/><path d="m.26.207h.015l.021.29.022-.29h.015l.027.339h-.012l-.022-.297-.023.297h-.014l-.021-.297-.022.297h-.013l.028-.339"/><path d="m.387.692h-.028v-.075h.028v.075m0-.146h-.028v-.339h.028v.339" fill-rule="evenodd"/><path d="m.395.449c-.007-.095.008-.115.032-.115.023 0 .04.044.044.103.007.109-.043.106-.039.16 0 .022.005.036.011.036.003 0 .006 0 .007-.007.002-.007.002-.021 0-.044h.028c.006.073-.0001.104-.029.104-.018 0-.04-.022-.045-.095-.007-.108.043-.092.039-.164-.002-.023-.007-.035-.013-.035-.005 0-.008.005-.009.016 0 .011 0 .026 0 .041h-.027"/><path d="m.558.33c0 .159-.063.127-.063.245 0 .043.009.069.021.069.019 0 .024-.032.024-.092h.017c0 .072-.009.137-.037.137-.024 0-.042-.031-.042-.118 0-.157.063-.125.063-.249 0-.053-.008-.084-.024-.084-.021 0-.026.043-.026.108h-.017c0-.1.012-.15.042-.15.026 0 .042.045.042.134"/></g><g fill="#19ae58"><g fill-rule="evenodd"><path d="m.639.565l.003.051h-.015l-.003-.051h.015m-.02-.095l-.023-.379c-.003-.045-.006-.058-.02-.055l-.002-.033c0-.002.004-.003.008-.003.018 0 .023.044.024.068l.025.402h-.012"/><path d="m.704.208h.017c.002.055.004.085.006.119l.015.239c.008.121-.021.126-.035.126-.025 0-.048-.036-.055-.127h.018c.003.056.017.081.032.081.023 0 .026-.042.022-.111l-.003-.04c-.029-.007-.077.0001-.087-.157-.006-.082.004-.14.029-.14.018 0 .033.023.044.068l-.004-.058m.009.156c-.004-.062-.023-.121-.042-.121-.017 0-.023.044-.019.098.007.116.042.106.066.109l-.005-.086"/></g><path d="m.828.68h-.066l-.004-.061h.038l-.053-.211-.004-.067h.068l.004.06h-.041l.053.212.005.067"/><path d="m.775.207h.055l.002.032h-.042l.058.273.002.034h-.051l-.002-.032h.039l-.059-.274-.002-.033"/></g><path d="m.207.68h.55v.319h-.55v-.319" fill="#ec1b24"/><g fill="#fff"><path d="m.277.902h-.025c0-.023 0-.037 0-.057v-.165h.025v.089c0 .043.004.069.017.069.002 0 .003 0 .005 0v.071c-.011 0-.019-.011-.022-.048v.041"/><g fill-rule="evenodd"><path d="m.411.68c0 .027 0 .036 0 .046v.114c0 .05-.016.069-.03.069-.007 0-.015-.003-.022-.013-.007-.0001-.012-.029-.012-.06h.024c0 .013.002.033.008.034.0001 0 .008-.027.008-.046h-.008c-.021 0-.036-.023-.036-.077 0-.045.008-.074.024-.074.012 0 .017.021.02.037 0-.016 0-.023 0-.03h.024m-.045.071c0 .016.003.024.007.03.003.006.008.005.013.005 0-.03 0-.064-.011-.064-.005 0-.009.013-.009.029"/><path d="m.496.86c.011 0 .013-.039.013-.069 0-.029-.002-.069-.013-.069-.0001 0-.012.04-.012.069 0 .03 0 .069.012.069m.013-.18h.024v.32h-.024v-.124c-.005.023-.013.033-.021.033-.02 0-.028-.06-.028-.119 0-.055.008-.117.027-.117.009 0 .019.013.022.04v-.033"/><path d="m.585.941h.025v.059h-.025v-.059m.025-.039h-.025v-.223h.025v.223"/><path d="m.699.909c-.021 0-.038-.036-.038-.118 0-.082.017-.118.038-.118.02 0 .038.036.038.118 0 .082-.018.118-.038.118m-.013-.118c0 .032.002.069.013.069.001 0 .013-.037.013-.069 0-.031-.003-.069-.013-.069-.011 0-.013.038-.013.069"/></g></g></g></g></g></g></g></g></g></svg>