<svg xmlns="http://www.w3.org/2000/svg" viewBox="0 0 589 126"><g transform="translate(-128.6-10.532)" stroke-linejoin="round" stroke-linecap="round" stroke-width=".218" stroke-miterlimit="10"><g fill="#f00" stroke="#f00"><path d="m128.71 10.863h588.78v47.739h-588.78z"/><path d="m222.88 102.85c-3.052 10.899 3.052 13.297 12.643 13.297 9.373 0 16.13-5.232 17.657-11.989 2.616-12.643-17.221-12.643-15.695-18.965.436-2.616 2.18-4.142 4.796-4.142 1.09 0 1.962.218 2.616.872.654.654.654 2.398 0 5.232h10.899c2.616-8.719-3.488-12.425-11.335-12.425-7.194 0-16.349 2.616-18.09 11.335-2.616 12.643 17.439 10.681 15.695 19.18-.654 2.834-2.834 4.142-5.232 4.142-2.18 0-3.27-.654-3.706-1.962 0-1.09 0-2.834.654-4.578h-10.899z"/></g><path d="m340.59 58.38l-23.979 45.12h-.218l-3.488-45.12h-13.951l-23.979 45.995h-.218l-4.142-45.995h-11.771l6.758 57.11h12.861l24.632-46.867h.436l3.27 46.867h12.425l32.48-57.11h-11.12z" fill="#33ff80" stroke="#33ff80"/><path d="m363.26 75.6h-11.12v39.892h11.12zm0-17h-11.12v8.719h11.12z" fill="#b21aff" fill-rule="evenodd" stroke="#b21aff"/><path d="m421.9 77.35c-1.09-15.477-13.297-18.747-26.376-18.747-11.12 0-25.722 3.706-25.722 17.221 0 20.05 32.916 14.387 32.916 24.2 0 3.488-3.052 5.01-7.194 5.01-1.962 0-3.706-1.09-5.01-2.398-1.308-1.526-1.744-3.27-1.308-5.01h-20.05c0 16.785 13.297 19.619 26.812 19.619 12.861 0 26.812-3.706 26.812-18.529 0-8.937-4.578-13.08-11.335-15.259-13.297-3.924-21.799-3.706-21.799-7.848 0-3.27 1.962-5.01 5.01-5.01 2.834 0 4.578.872 5.886 2.18.872 1.09 1.308 2.616 1.308 4.578h20.05z" fill="#ff9a00" stroke="#ff9a00"/><path d="m427.57 102.85c-3.052 10.899 3.052 13.297 12.643 13.297 9.373 0 16.13-5.232 17.657-11.989 2.834-12.643-17-12.643-15.695-18.965.654-2.616 2.398-4.142 4.796-4.142 1.09 0 1.962.218 2.616.872.654.654.654 2.398 0 5.232h11.12c2.398-8.719-3.706-12.425-11.335-12.425-7.194 0-16.349 2.616-18.311 11.335-2.616 12.643 17.439 10.681 15.695 19.18-.654 2.834-2.834 4.142-5.01 4.142-2.18 0-3.27-.654-3.488-1.962-.436-1.09 0-2.834.218-4.578h-10.899z" fill="#1a65ff" stroke="#1a65ff"/><g fill-rule="evenodd"><path d="m495.8 109.39c-3.924 0-3.706-4.142-1.526-14.169 1.744-8.07 2.834-13.515 7.412-13.515 4.796 0 3.488 5.45 1.744 13.515-1.962 10.03-3.706 14.169-7.63 14.169zm-8.501-33.788l-12.207 56.895h11.12l4.578-20.709c1.744 3.27 4.36 4.36 8.283 4.36 11.335 0 13.515-12.425 15.259-20.273 1.744-8.283 4.796-21.14-6.54-21.14-4.36 0-7.848 1.526-10.681 5.232l.872-4.36h-10.681z" fill="#b21aff" stroke="#b21aff"/><path d="m542.88 88.03c0-8.07 1.962-17.439 10.681-17.439 8.937 0 10.899 9.373 10.899 17.439 0 7.848-1.962 17-10.899 17-8.719 0-10.681-9.155-10.681-17zm10.681-29.428c-17.439 0-32.26 8.937-32.26 29.428 0 20.273 14.823 29.21 32.26 29.21 17.657 0 32.48-8.937 32.48-29.21 0-20.491-14.823-29.428-32.48-29.428z" fill="#ff9a00" stroke="#ff9a00"/><path d="m599.12 82.58c0-13.951 7.63-18.529 12.643-18.529 11.989 0 11.989 12.425 11.989 23.543 0 3.488-.436 13.515-1.526 16.13-.436 1.526-1.962 7.63-11.12 7.63-6.104 0-11.989-6.104-11.989-18.965v-9.809zm-.218-22.889h-6.54v76.73h6.758v-27.25h.218c3.488 5.45 7.412 7.412 11.771 7.412 14.169 0 19.18-8.501 19.18-22.889v-12.643c0-7.194 0-22.453-17.657-22.453-4.36 0-10.03 2.398-13.515 7.848h-.218v-6.758z" fill="#33ff80" stroke="#33ff80"/></g><g fill="#fff" stroke="#fff"><path d="m312.9 25.25h-12.643c0 3.488.218 5.668.218 8.719v24.85h12.643v-13.515c-.218-6.322 2.18-10.245 8.719-10.245.872 0 1.744 0 2.834 0v-10.681c-5.668-.218-9.809 1.744-11.335 7.194h-.218l-.218-6.322z"/><g fill-rule="evenodd"><path d="m358.25 47.921c0-2.398 1.526-3.488 3.27-4.36 1.744-.872 4.36-.654 6.976-.654 0 4.36-.436 9.373-5.886 9.373-2.398 0-4.36-1.962-4.36-4.36zm22.889 10.899c-.436-4.142-.654-5.668-.654-6.976v-17.221c0-7.63-8.07-10.245-14.823-10.245-3.706 0-8.283.218-11.771 1.962-3.27 1.526-5.668 4.142-5.668 8.937h11.989c0-1.962.872-5.01 3.924-5.01 5.01-.436 4.36 3.924 4.36 6.758h-3.924c-10.899 0-18.529 3.27-18.529 11.553-.218 6.758 3.924 11.12 11.989 11.12 6.104 0 9.155-3.27 10.463-5.45h.218c0 2.18 0 3.27.436 4.578h11.989z"/><path d="m431.27 58.82h12.207v-48.18h-12.643v18.529c-2.616-3.488-6.758-4.796-10.899-4.796-10.03 0-14.387 8.937-14.387 17.657 0 8.283 4.36 17.657 13.951 17.657 4.796 0 9.373-1.744 11.12-6.104h.218l.436 5.232zm-6.758-27.25c5.668 0 6.322 6.104 6.322 10.463 0 4.36-.872 10.245-6.322 10.245-5.01 0-6.104-5.886-6.104-10.245 0-4.36.654-10.463 6.104-10.463z"/><path d="m470.07 58.82h12.643v-33.57h-12.643zm0-39.24h12.861v-8.937h-12.861z"/><path d="m521.52 42.03c0-4.796 1.09-10.463 6.322-10.463 5.45 0 6.54 5.668 6.54 10.463 0 4.578-1.09 10.245-6.54 10.245-5.232 0-6.322-5.668-6.322-10.245zm6.322-17.657c-10.245 0-19.401 5.232-19.401 17.657 0 12.207 9.155 17.657 19.401 17.657 10.681 0 19.619-5.45 19.619-17.657 0-12.425-8.937-17.657-19.619-17.657z"/></g></g></g></svg>