<svg xmlns="http://www.w3.org/2000/svg" viewBox="0 0 600 338.13"><g transform="translate(151.81 1503.7)"><path d="m-151.81-1298.3h600v-10.802h-600v10.802"/><path d="m-151.81-1165.6h600v-10.802h-600v10.802"/><path d="m167.06-1399.7h1.392l37.27 61.18h44l-33.08-50.3c-3.961-5.784-7.897-11.574-12.07-17.595 20.884-5.107 33.856-22.23 33.856-43.32 0-33.21-21.551-46.48-58.55-46.48-18.856 0-35.784.226-49.02 1.161v156.52h36.2v-61.18zm0-66.26c2.091-.242 6.294-.462 10-.462 17.03 0 24.25 7.408 24.25 19.681 0 13.219-9.777 21.315-25.17 21.315-3.51 0-7.229-.231-9.09-.457v-40.08"/><path d="m-110.41-1367.3c-11.343 0-24.614-3.362-33.409-6.62l-1.613 34.3c9.961 2.322 21.362 3.483 32.24 3.483 39.961 0 64.28-22.56 64.28-52.964 0-48.934-62.66-39.661-62.66-64.01 0-8.811 7.219-15.299 22.366-15.299 9.263 0 21 2.322 29.795 4.865l.074-31.933c-9.72-1.854-20.14-2.784-28.476-2.784-39.27 0-63.1 19.444-62.44 48.856 1.193 51.955 62.66 38.737 62.66 65.41 0 11.128-9.541 16.697-22.823 16.697"/><path d="m85.6-1495l-15.772 96.92-15.788-96.92h-8.264-19.896-8.27l-15.772 96.92-15.783-96.92h-36.451l27.662 156.56h12.678 23.779 4.387l17.711-100.49 17.732 100.49h4.377 23.784 12.678l27.667-156.56h-36.456z"/><path d="m276.31-1503.7v56.59l30.383 30.383-30.383 30.388v56.57l86.25-86.962-86.25-86.972"/><path d="m353.81-1503.7v56.59l30.383 30.383-30.383 30.388v56.57l86.26-86.962-86.26-86.972"/><path d="m-109.11-1258.5c-.494-2.669-.988-5.133-1.182-7.602h-15.898v20.637h13.13c.299-2.175.694-4.245 1.187-6.121h6.714v20.437h-6.714c-.494-1.876-.888-3.951-1.187-6.121h-13.13v21.425c2.958.194 6.02.688 8.59 1.282v6.515h-27.845v-6.515c2.569-.594 5.627-1.088 8.59-1.282v-51.05c-2.963-.2-6.02-.694-8.59-1.287v-6.515h44.14v16.192h-7.802"/><path d="m-89.47-1208v-6.515c2.569-.594 5.627-1.088 8.59-1.287v-51.05c-2.963-.194-6.02-.688-8.59-1.282v-6.52h44.14v15.998h-7.802c-.494-2.764-.988-5.432-1.182-7.502h-15.898v19.944h12.735c.299-2.175.694-4.245 1.282-6.121h6.714v20.14h-6.714c-.588-1.876-1.082-4.15-1.282-6.126h-12.735v21.625h15.993c.2-2.369.694-5.03 1.287-7.897h7.797v16.586h-44.33"/><path d="m-6.04-1266.3c-2.075 0-4.051.1-5.627.194v21.13c.982.1 2.863.2 5.233.2 8.69 0 13.917-4.445 13.917-11.06 0-7.308-4.539-10.466-13.523-10.466m14.12 58.26l-18.07-28.833h-1.676v21.03c2.27.2 4.639.594 6.809 1.187v6.614h-26.06v-6.515c2.569-.594 5.627-1.088 8.59-1.287v-51.05c-2.963-.194-6.02-.688-8.59-1.282v-6.52h7.702c2.564 0 10.565-.394 18.662-.394 13.823 0 23.301 4.839 23.301 18.07 0 10.07-7.308 16.692-17.574 18.268 1.382 1.681 2.764 3.657 3.951 5.532l11.553 17.28c2.07.294 4.539.688 7.103 1.182v6.714h-15.693z"/><path d="m97.14-1266.9v58.848h-13.923l-23.301-37.917c-3.063-4.939-5.333-9.678-7.408-14.02.594 10.865.594 26.958.594 44.14 2.569.2 5.233.594 7.602 1.187v6.615h-26.558v-6.52c2.569-.589 5.627-1.082 8.59-1.282v-51.05c-2.963-.2-6.02-.694-8.59-1.287v-6.515h22.613l23.01 37.618c2.958 4.844 5.133 9.09 7.597 13.923-.588-10.566-.688-25.965-.688-43.738-2.469-.2-5.03-.594-7.208-1.187v-6.615h24.289v6.615c-2.07.494-4.345.988-6.615 1.187"/><path d="m132.48-1207c-5.233 0-10.366-.588-14.616-1.676v-16.686h7.902c.494 3.058.988 5.921 1.187 8.39 1.776.394 4.046.694 5.921.694 7.602 0 13.529-3.063 13.529-10.271 0-14.02-29.721-7.897-29.721-29.621 0-11.453 8.884-19.45 24.19-19.45 4.744 0 8.889.494 13.329 1.382v16.09h-7.897c-.594-2.863-.988-5.727-1.187-8.096-1.082-.194-3.058-.494-4.639-.494-8.39 0-12.541 3.851-12.541 9.383 0 13.329 29.821 8.39 29.821 29.22 0 12.247-9.678 21.13-25.276 21.13"/><path d="m170.49-1208v-6.515c2.569-.594 5.627-1.088 8.59-1.287v-51.05c-2.963-.194-6.02-.688-8.59-1.282v-6.52h44.14v15.998h-7.802c-.494-2.764-.988-5.432-1.182-7.502h-15.898v19.944h12.735c.294-2.175.694-4.245 1.287-6.121h6.709v20.14h-6.709c-.594-1.876-1.088-4.15-1.287-6.126h-12.735v21.625h15.993c.2-2.369.694-5.03 1.287-7.897h7.797v16.586h-44.33"/><path d="m272.19-1208v-6.614c2.27-.594 5.03-.988 7.602-1.188v-22.11h-31.497v22.11c2.569.2 5.333.594 7.602 1.188v6.614h-26.858v-6.515c2.569-.594 5.627-1.088 8.59-1.287v-51.05c-2.963-.194-6.02-.688-8.59-1.282v-6.52h26.858v6.615c-2.27.594-5.03.993-7.602 1.187v19.749h31.497v-19.749c-2.569-.194-5.333-.594-7.602-1.187v-6.615h26.958v6.52c-2.569.594-5.632 1.088-8.59 1.282v51.05c2.958.2 6.02.694 8.59 1.287v6.515h-26.958"/><path d="m311.88-1208v-6.515c2.569-.594 5.627-1.088 8.59-1.287v-51.05c-2.963-.194-6.02-.688-8.59-1.282v-6.52h44.14v15.998h-7.802c-.494-2.764-.988-5.432-1.182-7.502h-15.898v19.944h12.735c.294-2.175.694-4.245 1.282-6.121h6.714v20.14h-6.714c-.588-1.876-1.082-4.15-1.282-6.126h-12.735v21.625h15.993c.2-2.369.694-5.03 1.287-7.897h7.797v16.586h-44.33"/><path d="m433.42-1266.9v58.848h-13.923l-23.301-37.917c-3.063-4.939-5.333-9.678-7.403-14.02.588 10.865.588 26.958.588 44.14 2.569.2 5.233.594 7.602 1.187v6.615h-26.558v-6.52c2.569-.589 5.627-1.082 8.59-1.282v-51.05c-2.963-.2-6.02-.694-8.59-1.287v-6.515h22.613l23.01 37.618c2.958 4.844 5.133 9.09 7.602 13.923-.594-10.566-.693-25.965-.693-43.738-2.469-.2-5.03-.594-7.208-1.187v-6.615h24.289v6.615c-2.07.494-4.345.988-6.615 1.187"/></g></svg>