<svg xmlns="http://www.w3.org/2000/svg" viewBox="0 0 600 119.2"><g fill="#fff" transform="translate(269.01 1260.73)"><g fill-rule="evenodd" color="#000"><path d="m-50.35-1254.1c-12.466 0-23.644.165-32.406.781l-.406.031v.406 103.47.438h.438 23.906.438v-.438-40h.25l24.5 40.22.125.219h.25 29.09.813l-.438-.688-21.875-33.25c-2.496-3.665-5.02-7.356-7.656-11.156 13.625-3.598 22.12-14.966 22.12-28.875 0-11.07-3.607-18.917-10.344-23.938-6.736-5.02-16.533-7.219-28.813-7.219m-1.843 20.561c5.561 0 9.446 1.229 11.938 3.375 2.491 2.146 3.656 5.246 3.656 9.219 0 4.256-1.553 7.62-4.344 9.969-2.791 2.349-6.836 3.687-11.844 3.688-2.147 0-4.328-.142-5.594-.281v-25.688c1.426-.141 3.881-.281 6.188-.281"/><path d="m-227.31-1255.5c-13.05 0-23.584 3.215-30.812 8.938-7.228 5.722-11.1 13.967-10.875 23.812.198 8.672 2.918 14.702 6.906 19.06 3.988 4.36 9.191 7.05 14.344 9.219 5.152 2.166 10.274 3.809 14.03 5.969 3.758 2.16 6.125 4.729 6.125 8.969 0 3.554-1.49 6.168-4.063 7.938-2.573 1.77-6.267 2.656-10.594 2.656-7.418 0-16.16-2.213-21.938-4.344l-.563-.188-.031.594-1.063 22.656v.375l.344.094c6.623 1.547 14.211 2.313 21.438 2.313 13.293 0 24.02-3.773 31.438-10.09 7.415-6.321 11.469-15.207 11.469-25.375 0-8.182-2.612-13.982-6.563-18.281-3.951-4.299-9.206-7.104-14.406-9.375-5.2-2.271-10.362-4.03-14.188-6.188-1.913-1.081-3.482-2.254-4.563-3.625-1.081-1.37-1.688-2.926-1.688-4.844 0-2.793 1.127-5.149 3.469-6.875s5.934-2.813 10.875-2.813c6.06 0 13.777 1.541 19.562 3.219l.563.156v-.563l.063-21.12v-.375l-.344-.062c-6.46-1.229-13.392-1.844-18.938-1.844"/><path d="m-203.58-1253.8l.163 1.035 18.304 103.51.109.708h.708 8.389 15.744 2.887.708l.163-.708 10.841-61.51 10.841 61.51.163.708h.708 2.887 15.744 8.389.708l.109-.708 18.304-103.51.163-1.035h-1.035-24.08-.763l-.109.763-9.588 58.89-9.534-58.89-.109-.763h-.763-5.448-13.184-5.448-.763l-.109.763-9.534 58.89-9.588-58.89-.109-.763h-.763-24.08-1.035z"/><path d="m12.53-1260.7v2.125 37.37.381l.272.272 19.503 19.448-19.503 19.503-.272.218v.381 37.37 2.125l1.525-1.471 56.983-57.53.654-.599-.654-.599-56.983-57.53-1.525-1.471"/><path d="m63.794-1260.7v2.125 37.37.381l.272.272 19.448 19.448-19.448 19.503-.272.218v.381 37.37 2.125l1.471-1.471 57.04-57.53.599-.599-.599-.599-57.04-57.53-1.471-1.471"/></g><path d="m231.16-1147.9h-13.646v-49.824h-55.853v49.824h-13.805v-107.11h13.805v45.698h55.853v-45.698h13.646v107.11"/><path d="m276.87-1255.5c-5.289 0-12.9.151-22.844.469-1.798.106-3.425.188-4.906.188h-3.969v106.94h4.438c1.904 0 4.168.051 6.813.156 3.068.106 5.867.156 8.406.156 2.644.106 5.04.156 7.156.156 8.463 0 16.275-1.173 23.469-3.5 7.193-2.327 13.43-5.764 18.719-10.312 5.289-4.654 9.413-10.405 12.375-17.281 2.962-6.876 4.469-14.922 4.469-24.12 0-17.877-4.71-31.14-14.12-39.812-9.309-8.674-22.652-13.03-40-13.03zm-1.438 11.125c27.398 0 41.12 14.232 41.12 42.688 0 7.087-1.072 13.324-3.188 18.719-2.01 5.289-4.911 9.716-8.719 13.312-3.702 3.597-8.211 6.295-13.5 8.094-5.289 1.798-11.223 2.688-17.781 2.688-2.327 0-4.793-.051-7.438-.156-2.645-.212-4.99-.464-7-.781v-84.09h1.75c4.02 0 6.92-.051 8.719-.156 1.904-.212 3.916-.312 6.03-.313"/></g></svg>