<?xml version="1.0" encoding="UTF-8" standalone="no"?>
<svg xmlns:rdf="http://www.w3.org/1999/02/22-rdf-syntax-ns#" xmlns="http://www.w3.org/2000/svg" height="246.18" viewBox="0 0 600 246.17976" width="600" version="1.1" xmlns:cc="http://creativecommons.org/ns#" xmlns:dc="http://purl.org/dc/elements/1.1/">
 <g fill-rule="evenodd" fill="#3f1663">
  <path d="m0.051379 126.29s0.0221-3.53 0.15432-5.62l40.585 0.13-0.132 2.47c-0.044 7.25 4.365 14.17 8.245 17.02 3.88 2.84 9.414 3.79 12.809 3.79 8.664-0.02 16.601-5.31 16.689-13.47-0.286-7.1-4.321-10.58-10.075-13.29-5.159-2.43-14.021-6.18-23.611-10.94-9.612-4.76-19.996-10.536-28.175-16.995-11.816-9.347-17.129-21.406-16.489-38.183 0.55067-14.286 6.7676-26.565 18.363-36.75 11.618-10.206 25.926-14.263 41.071-14.263 19.268-0.00043 35.362 7.7817 46.014 20.435 10.8 13.272 12.87 25.838 13.33 35.075l0.07 1.786h-42.085c-0.419-4.343-2.469-9.524-4.938-12.346-2.888-3.329-7.341-5.511-12.919-5.489-3.219 0-6.988 0.97-10.185 2.998-3.13 1.94-5.71 5.203-5.71 9.502-0.044 4.651 2.139 8.267 8.091 11.31 5.864 3.042 23.545 10.846 26.036 11.816 25.22 9.833 41.16 25.724 42.97 49.734l0.04 1.68c0.04 8.11-2.4 22.17-11.71 34.43-9.321 12.26-25.458 22.97-46.6 22.97-41.821-0.15-61.75-30.51-61.839-57.8"/>
  <path d="m184.38 246.18c37.78-0.04 57.73-27.65 57.8-53.62v-125.53l-40.37 0.001v52.069 10.43c0 2.87-0.17 6.66-3.43 10.14-3.07 3.29-6.95 5.84-13.41 5.82-6.72 0.02-11.51-2.47-13.93-5.86-2.43-3.38-2.89-7.28-2.91-10.1v-62.499h-40.96v63.399c0.06 26.42 19.6 53.57 52.44 53.62 6.42 0 12.77-1.3 18.96-3.77l2.98-1.17v3.2l-0.02 9.19c0 1.9-0.02 4.61-2.07 8.18-2.01 3.57-6.44 7.1-13.89 7.03-6.73 0.02-11.03-2.93-13.32-5.97-2.34-3.04-2.87-6-2.93-6.42l-41.43-0.17 0.82 6.61c4.83 22.64 25.46 45.46 55.67 45.41"/>
  <path d="m398.9 246.18c37.79-0.04 57.74-27.65 57.8-53.61v-125.53l-40.36-0.004v52.074 10.43c0 2.86-0.36 6.74-3.44 10.14-3.02 3.3-6.95 5.84-13.38 5.82-6.75 0.02-11.51-2.47-13.94-5.87-2.44-3.37-2.91-7.27-2.93-10.09v-62.504h-40.94v63.404c0.05 26.41 19.58 53.57 52.43 53.61 6.41 0 12.76-1.3 18.96-3.77l2.97-1.16v3.19l-0.02 9.2c0 1.94-0.04 4.6-2.07 8.17-1.99 3.58-6.42 7.1-13.87 7.04-6.72 0.02-11.04-2.94-13.34-5.98-2.33-3.04-2.84-5.99-2.93-6.41l-41.4-0.18 0.81 6.61c4.81 22.65 25.45 45.46 55.65 45.42"/>
  <path d="m333.08 67.041h-39.24v-4.299c0-2.602 0.11-5.401 0.57-7.937 0.33-1.874 0.84-3.527 1.43-4.762 0.97-1.896 1.68-2.843 3.82-4.144 2.14-1.257 6.55-2.932 15.28-2.932h26.78v-42.967h-26.78c-12.72 0-23.9 2.2707-33.38 6.9003-7.08 3.4387-13.03 8.2667-17.46 13.624-6.7 8.091-9.9 16.909-11.51 24.317-1.59 7.452-1.7 13.823-1.7 17.901v116.07h42.97l-0.02-71.14h39.24v-40.63z"/>
  <path d="m483.28 67.041c-5.14 0-9.31 4.176-9.31 9.312v59.817c0 5.13 4.17 9.31 9.31 9.31h107.44c5.14 0 9.28-4.18 9.28-9.31v-59.817c0-5.136-4.14-9.312-9.28-9.312h-107.44zm77.46 13.486h8.94v51.473h-10.88v-29.79-2.18c0.02-0.866 0.05-1.758 0.07-2.673 0.05-0.939 0.08-1.877 0.1-2.816 0.05-0.939 0.09-1.796 0.11-2.571-0.12 0.141-0.32 0.352-0.6 0.633-0.28 0.282-0.6 0.599-0.95 0.951-0.35 0.329-0.71 0.67-1.09 1.022s-0.74 0.667-1.09 0.949l-5.92 4.755-5.28-6.55 16.59-13.203zm-43.52 9.225h7.71v12.988h12.89v7.71h-12.89v12.82h-7.71v-12.82h-12.92v-7.71h12.92v-12.988z"/>
 </g>
</svg>
