<?xml version="1.0" encoding="UTF-8" standalone="no"?>
<svg xmlns:rdf="http://www.w3.org/1999/02/22-rdf-syntax-ns#" xmlns="http://www.w3.org/2000/svg" height="246.18" viewBox="0 0 600 246.17999" width="600" version="1.1" xmlns:cc="http://creativecommons.org/ns#" xmlns:dc="http://purl.org/dc/elements/1.1/">
 <g fill-rule="evenodd" fill="#3f1663">
  <path d="m0.051279 126.29s0.0221-3.53 0.15432-5.62l40.585 0.13-0.132 2.47c-0.044 7.25 4.365 14.18 8.245 17.02s9.414 3.79 12.809 3.79c8.664-0.02 16.601-5.31 16.689-13.47-0.286-7.1-4.321-10.58-10.075-13.29-5.158-2.43-14.021-6.18-23.611-10.94-9.612-4.76-19.996-10.536-28.175-16.995-11.816-9.347-17.129-21.407-16.489-38.183 0.55067-14.286 6.7676-26.565 18.363-36.749 11.618-10.207 25.926-14.264 41.071-14.264 19.268-0.00043 35.362 7.7817 46.014 20.436 10.8 13.272 12.87 25.838 13.33 35.075l0.07 1.786h-42.086c-0.419-4.343-2.469-9.524-4.938-12.346-2.888-3.329-7.341-5.511-12.919-5.489-3.219 0-6.988 0.97-10.185 2.998-3.13 1.94-5.71 5.203-5.71 9.502-0.044 4.651 2.139 8.267 8.091 11.31 5.864 3.042 23.545 10.847 26.036 11.817 25.221 9.832 41.161 25.732 42.971 49.732l0.04 1.68c0.04 8.11-2.4 22.18-11.71 34.43-9.321 12.26-25.459 22.98-46.601 22.98-41.821-0.16-61.75-30.52-61.839-57.81"/>
  <path d="m184.38 246.18c37.78-0.04 57.73-27.65 57.8-53.62v-125.52l-40.37-0.005v52.075 10.42c0 2.87-0.17 6.66-3.43 10.15-3.07 3.28-6.95 5.84-13.41 5.82-6.72 0.02-11.51-2.47-13.93-5.87-2.43-3.37-2.89-7.27-2.91-10.1v-62.495h-40.96v63.405c0.06 26.41 19.6 53.57 52.44 53.61 6.42 0 12.77-1.3 18.96-3.77l2.98-1.16v3.19l-0.02 9.2c0 1.89-0.02 4.6-2.07 8.17-2.01 3.58-6.44 7.1-13.89 7.04-6.73 0.02-11.03-2.93-13.32-5.98-2.34-3.04-2.87-5.99-2.93-6.41l-41.43-0.18 0.82 6.61c4.83 22.65 25.46 45.46 55.67 45.42"/>
  <path d="m398.9 246.18c37.79-0.04 57.74-27.65 57.8-53.62v-125.52l-40.36-0.005v52.075 10.42c0 2.87-0.36 6.75-3.44 10.15-3.02 3.3-6.95 5.84-13.38 5.82-6.75 0.02-11.51-2.47-13.94-5.87-2.44-3.37-2.91-7.27-2.93-10.1v-62.495h-40.94v63.405c0.05 26.41 19.58 53.57 52.43 53.61 6.41 0 12.76-1.3 18.96-3.77l2.97-1.16v3.19l-0.02 9.2c0 1.94-0.04 4.6-2.07 8.17-1.99 3.58-6.42 7.1-13.87 7.04-6.72 0.02-11.04-2.93-13.34-5.98-2.33-3.04-2.84-5.99-2.93-6.41l-41.4-0.18 0.81 6.61c4.81 22.65 25.45 45.46 55.65 45.42"/>
  <path d="m333.08 67.041h-39.24v-4.299c0-2.602 0.11-5.401 0.57-7.937 0.33-1.874 0.84-3.527 1.43-4.762 0.97-1.895 1.68-2.843 3.82-4.144 2.14-1.257 6.55-2.932 15.28-2.932h26.78v-42.967h-26.78c-12.72 0-23.9 2.2707-33.38 6.9004-7.08 3.4396-13.03 8.2676-17.46 13.624-6.7 8.091-9.9 16.909-11.51 24.317-1.59 7.452-1.7 13.823-1.7 17.901v116.07h42.97l-0.02-71.14h39.24v-40.631z"/>
  <path d="m483.28 67.046c-5.14 0-9.31 4.176-9.31 9.313v59.811c0 5.14 4.17 9.31 9.31 9.31h107.44c5.14 0 9.28-4.17 9.28-9.31v-59.811c0-5.137-4.14-9.313-9.28-9.313h-107.44zm6.12 12.812h13.5v19.688h17.29v-19.688h13.46v52.812h-13.46v-19.66h-17.29v19.66h-13.5v-52.812zm52.75 0h17.47c5.93 0 16.51 0.012 23.35 9.844 3.63 5.005 4.84 10.658 4.84 16.438 0 14.42-7.13 26.53-27.19 26.53h-18.47v-52.811zm13.5 11.844v29.128h5.79c10.05 0 12.9-6.98 12.9-14.47 0-3-0.62-6.816-2.56-9.814-1.57-2.359-4.29-4.844-10.28-4.844h-5.85z"/>
 </g>
</svg>
