<svg xmlns="http://www.w3.org/2000/svg" height="255.14" width="600" viewBox="0 0 158.75 67.506811"><g transform="translate(-36.29-150.61)"><path d="m195.04 218.11h-158.75l-.004-67.5h158.75v67.5z" fill="#313e7d"/><path d="m136.2 184.16c0 13.13 5.09 25.06 13.4 33.96h45.44v-67.51h-45.84c-8.07 8.85-13 20.62-13 33.55" fill="#b22238"/><g fill="#fff"><path d="m84.7 161.67h-37.568v10.04h12.98v35.4h11.805v-35.4h12.783v-10.04"/><path d="m117.26 207.11h12.67l-17.11-45.44h-12.828l-17.464 45.44h12.674l2.869-7.94h16.409l2.78 7.94m-15.94-16.92l5.09-14.11 4.93 14.11h-10.02"/><path d="m164.15 187c.62-.2 1.28-.31 1.97-.31 3.45 0 6.26 2.67 6.26 5.96s-2.81 5.95-6.26 5.95c-3.46 0-6.27-2.66-6.27-5.95l.001-.3h-12.14l-.02.56c0 5.3 5.26 15.94 18.02 15.94 10.05 0 18.29-5.64 18.29-14.35 0-6.75-3.2-10.49-7.15-12.23h-.001c2.61-1.61 4.6-4.58 4.6-9.99 0-2.79-1.32-12.48-15.32-12.48-11.55 0-15.77 9.62-16.03 14.87h11.1l-.02-.45c0-2.63 2.11-4.77 4.71-4.77 2.73 0 4.63 1.93 4.63 4.77 0 2.63-2.03 4.77-4.63 4.77h-1.75l.001 8.01"/></g></g></svg>