<svg xmlns="http://www.w3.org/2000/svg" viewBox="0 0 600 140.38"><defs><linearGradient id="0" y2="-1276.74" gradientUnits="userSpaceOnUse" x2="10.94" y1="-1243.49" x1="-50.43"><stop stop-color="#fff"/><stop stop-opacity="0" stop-color="#fff" offset="1"/></linearGradient></defs><g transform="translate(487.69 1236.51)"><path fill="url(#0)" d="m42.12-1236.5c-38.771 0-70.19 31.425-70.19 70.19s31.425 70.19 70.19 70.19 70.19-31.425 70.19-70.19-31.425-70.19-70.19-70.19m0 14.04c31.01 0 56.15 25.14 56.15 56.15s-25.14 56.15-56.15 56.15-56.15-25.14-56.15-56.15 25.14-56.15 56.15-56.15"/><g fill="#fff" fill-rule="evenodd"><path d="m-59.978-1202.5c-12.187 0-22.05 9.924-22.05 22.08 0 12.229 9.858 22.15 22.05 22.15 12.182 0 22.08-9.924 22.08-22.15 0-12.158-9.899-22.08-22.08-22.08m0 3.247c10.345 0 18.871 8.46 18.871 18.834 0 10.444-8.526 18.906-18.871 18.906-10.345 0-18.87-8.462-18.871-18.906 0-10.374 8.526-18.834 18.871-18.834m8.984 5.665l-22.262 8.01v5.448l7.324-2.634v16.633l14.937-5.268v-22.19"/><path d="m-216.21-1199.3v60.22h10.528v-19.804c0-7.18 4.224-13.286 9.588-13.286 3.879 0 5.01 2.602 5.01 6.894v26.2h10.528v-28.766c0-7.18-2.978-13.1-12.22-13.1-6.354 0-11.08 3.02-13.474 7.646l-.188-.062c.578-2.393.752-5.859.752-8.335v-17.61h-10.528"/><path d="m-472.58-1195.5l-6.204 1.755v13.599h-8.899v4.888h8.899v24.629c0 8.5 2.401 12.158 10.654 12.158 2.558 0 5.437-.32 7.583-.815v-5.389c-1.651.495-3.765.752-5.828.752-4.869 0-6.204-1.868-6.204-9.213v-22.12h12.03v-4.888h-12.03v-15.354"/><path d="m20.682-1191.8c-2.822 0-5.711.283-8.648.815-2.937.509-5.955 1.262-8.962 2.256v11.343c2.822-1.758 5.484-3.069 7.959-3.948 2.475-.902 4.749-1.379 6.831-1.379 2.706 0 4.899.776 6.518 2.256 1.642 1.48 2.444 3.4 2.444 5.828 0 1.573-.381 3.118-1.191 4.575-.81 1.457-2.072 2.923-3.76 4.449l-18.926 16.732v9.776h37.663v-9.776h-22.811l11.09-9.714c4.672-4.093 7.693-7.348 9.15-9.776 1.457-2.452 2.193-5.137 2.193-7.959 0-4.88-1.693-8.677-5.139-11.406-3.423-2.729-8.216-4.073-14.414-4.073z"/><path d="m65.04-1190.9l-20.71 30.921v11.474h22.912v9.381h12.665v-9.381h7.324v-9.742h-7.324v-32.653h-14.865zm2.201 10.969v21.684h-14.648l14.648-21.684"/><path d="m-270.73-1181c-11.554 0-17.422 5.918-17.422 13.1 0 13.946 16.544 9.784 16.544 17.05 0 2.723-2.599 4.387-6.643 4.387-3.136 0-6.278-.531-8.836-1.191l-.251 8.648c2.641.413 5.615.752 8.586.752 11.223 0 18.299-5.449 18.299-13.537 0-13.286-16.796-10.361-16.796-17.05 0-2.558 1.953-4.199 6.079-4.199 2.558 0 5.272.405 7.583 1.065l.313-8.335c-2.476-.413-5.064-.689-7.458-.689z"/><path d="m-154.4-1181c-5.282 0-10.559 1-14.685 2.489l.938 8.84c3.466-1.981 8.41-3.175 12.12-3.175 5.942 0 8.01 2.203 8.01 6.495v2.201c-13.946 0-23.705 5.225-23.705 15.05 0 6.602 4.299 10.824 11.726 10.824 6.107 0 11.12-3.208 13.1-7.83l.144.072c-.33 2.146-.433 4.498-.433 6.891h9.958c-.165-3.383-.253-7.235-.253-10.536v-17.1c0-8.913-3.718-14.215-16.922-14.215m6.386 23.741v1.01c0 4.951-3.569 9.886-8.768 9.886-3.053 0-4.835-1.725-4.835-4.366 0-3.301 2.462-6.531 13.602-6.531"/><path d="m-436.63-1180.9c-5.529 0-10.265 1.334-14.14 3.067l.577 5.484c3.631-2.311 8.559-3.572 12.52-3.572 7.097 0 9.345 3.444 9.345 9.634v3.392c-16.01 0-24.968 5.958-24.968 14.541 0 6.519 4.702 9.958 11.221 9.958 7.01 0 12.308-4.218 14.288-9.417h.216c-.413 2.393-.469 5.523-.469 8.659h6.098c-.165-3.631-.144-8.224-.144-12.268v-16.13c0-7.757-3.235-13.349-14.541-13.349zm8.298 22.586v.613c0 7.097-4.789 14.288-12.05 14.288-4.04 0-6.711-2.348-6.711-6.06 0-3.961 3.33-8.84 18.762-8.84"/><path d="m-391.74-1180.9c-11.141 0-17.86 7.293-17.86 15.876 0 5.282 2.01 9.513 6.134 11.906-2.888 1.32-4.582 3.833-4.582 6.639 0 2.641 1.591 4.798 4.149 5.953-3.879 1.981-7.07 5.78-7.07 10.896 0 7.84 6.704 12.05 17.1 12.05 12.627 0 21.504-6.453 21.504-15.12 0-7.18-4.87-11.546-13.782-11.546h-7.974c-5.117 0-7.469-1.034-7.469-3.428 0-1.486 1-3.01 3.067-3.753 1.486.33 3.695.541 5.592.541 11.801 0 17.86-6.659 17.86-15.407 0-3.879-1.539-7.05-3.933-8.948h7.397v-4.907h-13.927c-2.146-.495-3.895-.758-6.206-.758zm-1.624 4.835c.421-.034.855 0 1.299 0 6.767 0 10.788 3.753 10.788 10.355 0 6.602-4.382 10.283-11.149 10.283-6.932 0-10.969-3.599-10.969-10.283 0-5.648 3.72-9.853 10.03-10.355zm-5.592 37.09c.743.083 1.809.072 2.634.072h8.479c6.272 0 9.345 2.662 9.345 7.04 0 5.447-5.293 9.273-14.288 9.273-6.849 0-11.979-2.801-11.979-8.08 0-3.466 2.26-6.483 5.809-8.299"/><path d="m-347-1180.9c-11.388 0-17.968 9.208-17.968 21.504 0 14.36 6.6 20.999 18.978 20.999 5.117 0 9.734-.886 13.531-2.454l-.541-5.268c-3.053 1.568-7.615 2.634-11.906 2.634-9.16 0-14.02-5.131-13.602-17.428h27.386c.165-1.238.18-2.324.18-3.067 0-9.08-4.75-16.922-16.06-16.922zm-.289 4.727c6.272 0 10.05 4.289 9.886 10.644h-20.818c.99-6.437 5.156-10.644 10.933-10.644z"/><path d="m-306.38-1180.9c-10.398 0-15.981 5.183-15.981 12.03 0 14.607 19.928 8.459 19.928 18.363 0 4.291-4.085 6.894-10.03 6.894-3.218 0-6.572-.573-9.212-1.316l-.125 5.703c2.476.495 5.595.815 8.648.815 10.728 0 17.17-5.648 17.17-12.91 0-13.946-20.05-8.353-20.05-18.17 0-4.04 3-6.517 9.02-6.517 2.806 0 5.737.471 8.46 1.379l.188-5.327c-2.558-.495-5.463-.94-8.02-.94z"/><path d="m-233.06-1180.9c-14.525 0-21.18 9.832-21.18 22.623 0 13.946 7.099 19.866 18.487 19.866 4.374 0 8.412-.807 11.218-1.88l-.815-9.02c-2.228 1.155-5.279 1.755-8.08 1.755-7.01 0-9.776-4.767-9.776-11.782 0-7.757 3.405-12.721 10.09-12.721 2.641 0 5.23.679 7.458 1.504l1.065-9.15c-2.641-.743-5.655-1.191-8.46-1.191"/><path d="m-125.96-1180.1v28.828c0 7.18 2.978 13.1 12.22 13.1 6.767 0 11.437-3.403 13.913-8.272l.125.125c-.413 2.146-.501 5.309-.501 7.207h9.902v-40.986h-10.591v19.804c0 7.18-4.099 13.286-9.463 13.286-3.961 0-5.139-2.54-5.139-6.831v-26.26h-10.466"/></g></g></svg>