<svg xmlns="http://www.w3.org/2000/svg" viewBox="0 0 600 121"><defs><linearGradient id="0" y2="-1261.95" gradientUnits="userSpaceOnUse" x2="-15.654" y1="-1233.16" x1="-68.803"><stop stop-color="#fff"/><stop stop-opacity="0" stop-color="#fff" offset="1"/></linearGradient></defs><g transform="translate(447.52 1226.53)"><path fill="url(#0)" d="m11.353-1227.1c-33.58 0-60.79 27.22-60.79 60.791s27.22 60.791 60.791 60.791 60.792-27.22 60.792-60.791-27.22-60.791-60.792-60.791m0 12.158c26.859 0 48.633 21.774 48.633 48.633s-21.774 48.633-48.633 48.633-48.633-21.774-48.633-48.633 21.774-48.633 48.633-48.633"/><g fill="#fff"><g fill-rule="evenodd"><path d="m-77.08-1197.6c-10.555 0-19.09 8.595-19.09 19.12 0 10.592 8.538 19.19 19.09 19.19 10.551 0 19.12-8.596 19.12-19.19 0-10.53-8.574-19.12-19.12-19.12m0 2.813c8.96 0 16.344 7.328 16.344 16.312 0 9.05-7.384 16.375-16.344 16.375-8.96 0-16.343-7.329-16.344-16.375 0-8.985 7.384-16.312 16.344-16.312m7.781 4.906l-19.281 6.938v4.719l6.344-2.281v14.406l12.937-4.563v-19.219"/><path d="m-212.39-1194.9v52.16h9.119v-17.15c0-6.218 3.659-11.507 8.305-11.507 3.359 0 4.342 2.254 4.342 5.971v22.688h9.119v-24.914c0-6.218-2.579-11.344-10.584-11.344-5.504 0-9.597 2.619-11.67 6.622l-.163-.054c.5-2.073.651-5.075.651-7.219v-15.252h-9.119"/><path d="m-434.44-1191.6l-5.373 1.52v11.778h-7.707v4.234h7.707v21.331c0 7.362 2.08 10.53 9.227 10.53 2.216 0 4.709-.277 6.568-.706v-4.668c-1.43.429-3.261.651-5.05.651-4.217 0-5.373-1.618-5.373-7.979v-19.16h10.421v-4.234h-10.421v-13.298"/><path d="m-7.217-1188.4c-2.444 0-4.946.245-7.49.706-2.544.441-5.158 1.093-7.762 1.954v9.824c2.444-1.522 4.75-2.658 6.893-3.419 2.143-.781 4.114-1.194 5.916-1.194 2.344 0 4.243.672 5.645 1.954 1.422 1.282 2.117 2.945 2.117 5.05 0 1.362-.33 2.7-1.031 3.962-.701 1.262-1.794 2.532-3.257 3.854l-16.392 14.492v8.467h32.621v-8.467h-19.757l9.607-8.413c4.046-3.545 6.663-6.364 7.925-8.467 1.262-2.123 1.9-4.449 1.9-6.893 0-4.227-1.466-7.515-4.451-9.879-2.965-2.364-7.116-3.528-12.484-3.528"/><path d="m31.2-1187.6l-17.937 26.781v9.938h19.844v8.125h10.969v-8.125h6.344v-8.438h-6.344v-28.28h-12.875zm1.906 9.5v18.781h-12.687l12.687-18.781"/><path d="m-259.61-1179c-10.01 0-15.09 5.126-15.09 11.344 0 12.08 14.329 8.474 14.329 14.764 0 2.359-2.251 3.8-5.753 3.8-2.716 0-5.438-.459-7.653-1.031l-.217 7.49c2.287.357 4.863.651 7.436.651 9.721 0 15.849-4.719 15.849-11.724 0-11.507-14.547-8.974-14.547-14.764 0-2.216 1.691-3.637 5.265-3.637 2.216 0 4.566.351 6.568.923l.271-7.219c-2.144-.357-4.386-.597-6.459-.597"/><path d="m-158.86-1179c-4.574 0-9.145.87-12.719 2.156l.813 7.656c3-1.715 7.284-2.75 10.5-2.75 5.146 0 6.937 1.908 6.937 5.625v1.906c-12.08 0-20.531 4.526-20.531 13.03 0 5.718 3.723 9.375 10.156 9.375 5.289 0 9.628-2.779 11.344-6.781l.125.062c-.286 1.858-.375 3.896-.375 5.969h8.625c-.143-2.93-.219-6.266-.219-9.125v-14.812c0-7.719-3.22-12.312-14.656-12.312m5.531 20.562v.875c0 4.289-3.091 8.563-7.594 8.563-2.645 0-4.188-1.494-4.188-3.781 0-2.859 2.132-5.656 11.781-5.656"/><path d="m-403.3-1178.9c-4.789 0-8.891 1.155-12.25 2.656l.5 4.75c3.145-2 7.413-3.094 10.844-3.094 6.147 0 8.094 2.983 8.094 8.344v2.938c-13.866 0-21.625 5.16-21.625 12.594 0 5.647 4.072 8.625 9.719 8.625 6.075 0 10.66-3.653 12.375-8.156h.188c-.357 2.073-.406 4.784-.406 7.5h5.281c-.143-3.145-.125-7.123-.125-10.625v-13.969c0-6.719-2.802-11.562-12.594-11.562m7.188 19.562v.531c0 6.147-4.148 12.375-10.437 12.375-3.502 0-5.813-2.033-5.813-5.25 0-3.431 2.884-7.656 16.25-7.656"/><path d="m-364.42-1178.9c-9.649 0-15.469 6.316-15.469 13.75 0 4.574 1.739 8.24 5.313 10.312-2.502 1.144-3.969 3.32-3.969 5.75 0 2.287 1.378 4.156 3.594 5.156-3.359 1.715-6.125 5.01-6.125 9.438 0 6.79 5.807 10.437 14.812 10.437 10.936 0 18.625-5.589 18.625-13.09 0-6.218-4.218-10-11.937-10h-6.906c-4.432 0-6.469-.896-6.469-2.969 0-1.287.869-2.607 2.656-3.25 1.287.286 3.2.469 4.844.469 10.221 0 15.469-5.767 15.469-13.344 0-3.359-1.333-6.106-3.406-7.75h6.406v-4.25h-12.06c-1.858-.429-3.374-.656-5.375-.656zm-1.406 4.188c.364-.029.741 0 1.125 0 5.861 0 9.344 3.251 9.344 8.969 0 5.718-3.795 8.906-9.656 8.906-6 0-9.5-3.117-9.5-8.906 0-4.892 3.222-8.534 8.687-8.969m-4.844 32.12c.643.072 1.567.062 2.281.062h7.344c5.432 0 8.094 2.305 8.094 6.094 0 4.717-4.584 8.03-12.375 8.03-5.932 0-10.375-2.426-10.375-7 0-3 1.958-5.615 5.03-7.187"/><path d="m-325.67-1178.9c-9.864 0-15.562 7.975-15.562 18.625 0 12.437 5.716 18.19 16.437 18.19 4.431 0 8.431-.767 11.719-2.125l-.469-4.563c-2.645 1.358-6.596 2.281-10.312 2.281-7.934 0-12.139-4.444-11.781-15.09h23.719c.143-1.072.156-2.01.156-2.656 0-7.862-4.114-14.656-13.906-14.656zm-.25 4.094c5.432 0 8.705 3.715 8.562 9.219h-18.03c.858-5.575 4.465-9.219 9.469-9.219"/><path d="m-290.49-1178.9c-9.01 0-13.841 4.489-13.841 10.421 0 12.651 17.26 7.326 17.26 15.904 0 3.717-3.538 5.971-8.685 5.971-2.788 0-5.692-.496-7.979-1.14l-.109 4.939c2.144.429 4.846.706 7.49.706 9.292 0 14.872-4.891 14.872-11.181 0-12.08-17.369-7.235-17.369-15.741 0-3.502 2.598-5.645 7.816-5.645 2.43 0 4.969.408 7.327 1.194l.163-4.614c-2.216-.429-4.732-.814-6.948-.814"/><path d="m-226.99-1178.9c-12.58 0-18.346 8.516-18.346 19.594 0 12.08 6.149 17.206 16.01 17.206 3.788 0 7.286-.699 9.716-1.628l-.706-7.816c-1.93 1-4.572 1.52-7 1.52-6.075 0-8.467-4.129-8.467-10.204 0-6.719 2.949-11.02 8.739-11.02 2.287 0 4.529.588 6.459 1.303l.923-7.925c-2.287-.643-4.897-1.031-7.328-1.031"/><path d="m-134.23-1178.3v24.968c0 6.218 2.579 11.344 10.584 11.344 5.861 0 9.906-2.948 12.05-7.165l.109.109c-.357 1.858-.434 4.598-.434 6.242h8.576v-35.498h-9.173v17.15c0 6.218-3.55 11.507-8.196 11.507-3.431 0-4.451-2.2-4.451-5.916v-22.743h-9.06"/><path d="m116.54-1191.9v45.34h11.594c21.07 0 24.344-10.694 24.344-22.812 0-10.944-3.432-22.531-24.344-22.531h-11.594m11.594 9.75h3.25c7.426 0 9.469 7.02 9.469 13.09 0 6.445-2.132 13.219-8.906 13.219h-3.813v-26.312z"/></g><path d="m77.77-1191.9v45.36h11.457v-18.99h13.478v18.99h11.457v-45.36h-11.457v16.323h-13.478v-16.323h-11.457"/></g></g></svg>