<svg xmlns="http://www.w3.org/2000/svg" viewBox="0 0 600 258.87"><g transform="translate(-118.85 681.96)" fill="#061e33"><path d="m363.09-573.24c.1-.04.17-.04.24-.04.45 0 .79.24.96.65.17.45.1.93-.2 1.24-5.46 5.32-5.91 10.74-5.87 16.78-.04 5.38.41 11.56 5.73 16.81.31.31.41.82.2 1.27-.17.38-.51.62-.92.62-.07 0-.17 0-.31-.04-2.2-.17-13.42-7.44-13.38-19.21.03-11.26 11.25-17.88 13.55-18.08m-36.71 20.65c0 9.75 4.22 16.88 14.14 23.92 12.66 8.64 29.19 13.03 49.13 13.03h.03c16.47 0 34.86-3.15 51.78-8.92l.34-.1-3.5-12.9c-.45-1.34-1.48-1.85-2.75-1.34h-.06c-11.74 6.79-25.09 10.5-37.64 10.5-4.77 0-9.4-.51-13.8-1.58-2.5-.82-4.15-3.22-4.9-7.1-1.07-4.91-.86-28.86.62-32.08 2.53-5.83 8.68-6.28 14.61-6.73 1.24-.1 2.51-.17 3.67-.3 15.99.34 29.65 7.75 34 18.42.14.65.69 1.06 1.45 1.06.27 0 .61-.06.96-.17 4.76-1.54 6.65-2.16 6.82-2.3l.24-.1-4.94-30.09-7.37-.58-.07.31c0 .03-1.1 4.22-4.12 4.22-.24 0-.45-.04-.69-.07-13.99-2.47-25.38-3.6-35.82-3.6-18.97 0-34.34 3.91-46.97 11.97-10.05 6.96-15.16 15.23-15.16 24.53"/><path d="m508.16-573.18c-.17-.17-.24-.41-.24-.65 0-.55.45-1.03.96-1.03v-.35l.04.35 5.87.03.1-.07c.31.04.65.17.89.41l17.29 18.5c.55.58.55 1.58.04 2.16l-2.4 2.74c-.55.59-1.41.59-1.89.04l-20.52-21.96-.14-.17m74.7 37.71l.1-33.8c.03-.75.58-1.58 1.17-1.82l4.9-1.92c.14-.07.24-.07.38-.07.48 0 .58.45.58.69l-.13 33.86c0 .72-.55 1.51-1.2 1.79l-4.88 1.92c-.51.2-.92-.07-.92-.65m27.62-37.88l.34-.14c1.96-.79 4.39-1.78 6.28-2.26 2.16-.59 3.09-1.48 2.85-2.78v-7.35l-57.82-.03-17.01 19.9c-.07.1-.18.14-.38.21-.17-.04-.31-.07-.38-.14l-18.35-19.9-.14-.1-57.16-.07h-.38v7.34c-.21 1.37.65 2.23 2.81 2.81 1.79.48 3.95 1.34 5.87 2.1l.79.3c1.68.69 1.99 1.65 1.99 2.82l-.1 38.22c.1 1.17-.21 2.09-1.89 2.78-.51.17-1.03.38-1.58.58-1.68.65-3.57 1.41-5.11 1.82-2.13.58-3.02 1.44-2.81 2.78v7.31l36.36.07-.03-7.35c.24-1.33-.65-2.23-2.81-2.78-1.89-.51-4.39-1.51-6.35-2.33l-.28-.07c-1.71-.68-2.05-1.61-2.02-2.88v-30.23c0-.48.34-.82.79-.82.21 0 .31.03.41.14l33.18 38.6 33.52-39.46.03-.04c.11-.24.42-.3.66-.3.48 0 .68.44.68.89l.07 31.32c.04 1.2-.27 2.13-1.99 2.78-1.82.76-4.6 1.89-6.65 2.4-2.13.59-3.02 1.45-2.82 2.82l-.03 7.34 68.51.07h.35v-7.34c.2-1.41-.62-2.23-2.78-2.78-1.82-.55-4.15-1.44-6.01-2.2l-.65-.24c-1.68-.65-2.02-1.61-1.99-2.81l.04-38.19c-.04-1.23.31-2.13 1.99-2.81"/><path d="m244.52-534.89l.13-33.87c0-.68.55-1.51 1.17-1.75l4.91-1.92c.13-.07.24-.1.37-.1.48 0 .55.55.55.72l-.17 33.86c0 .73-.51 1.51-1.17 1.75l-4.9 1.96c-.28.14-.55.1-.72-.07-.11-.14-.17-.34-.17-.58m58.84-50.95l-.04-.28-109.99-.06h-.31l-.07.27c-.04.21-4.15 17.77-6.45 25.9l-.11.31 6.63 2.68c.44.2.82.31 1.16.31.86 0 1.27-.59 1.72-1.24.17-.2.34-.44.55-.68l.07-.07c4.66-9.58 13.65-15.99 22.33-15.99 1.89 0 3.78.27 5.59.89v41.17c.04 1.2-.27 2.13-1.99 2.82-.41.13-.85.31-1.3.48-1.75.68-3.74 1.47-5.35 1.92-2.13.55-3.06 1.44-2.82 2.78v7.31l69.93.06h.38l-.04-7.3c.28-1.34-.58-2.2-2.78-2.82-2.09-.58-4.77-1.64-6.65-2.43-1.72-.66-2.03-1.58-1.96-2.78v-41.21c1.82-.58 3.67-.86 5.56-.86 8.71 0 17.7 6.42 22.33 16.03l.07.06c.21.24.38.48.55.73.45.61.89 1.2 1.75 1.2.35 0 .72-.07 1.17-.28l6.65-2.71-.1-.31c-2.3-8.13-6.41-25.73-6.48-25.9"/><path d="m248.27-681.96c-71.37 0-129.42 58.05-129.42 129.42 0 71.36 58.05 129.45 129.42 129.45 20.07 0 40.07-4.7 57.88-13.55l.31-.18-.66-11.39c-1.78 1-3.6 1.92-5.42 2.82-16.33 7.89-33.86 11.9-52.11 11.9-31.98 0-62.04-12.45-84.65-35.06-22.57-22.61-35.03-52.63-35.03-84.61s12.46-62.03 35.03-84.64c22.61-22.58 52.67-35.03 84.65-35.03 21.37 0 42.33 5.69 60.66 16.5 17.32 10.22 31.94 24.77 42.23 42.1h10.88c-22.68-41.83-66.15-67.73-113.77-67.73"/><path d="m349.05-471.38c6.07 0 10.02 1.89 14.03 6.69.62.76 1.37 1.44 2.57 1.44 1.99 0 3.5-1.3 3.5-3.09 0-.79-.2-1.4-.68-2.12-3.02-4.5-9.68-9.3-19.42-9.3-14.38 0-25.22 10.84-25.22 25.22 0 14.37 10.84 25.21 25.22 25.21 9.74 0 16.4-4.8 19.42-9.29.51-.76.68-1.38.68-2.17 0-1.78-1.47-3.05-3.5-3.05-1.23 0-1.95.69-2.57 1.41-4.01 4.84-7.96 6.72-14.03 6.72-10.23 0-17.95-8.09-17.95-18.83s7.72-18.84 17.95-18.84"/><path d="m385.39-477.32c-2.06 0-3.6 1.54-3.6 3.63v42.31c0 2.02 1.57 3.6 3.6 3.6 2.02 0 3.6-1.58 3.6-3.6v-42.31c0-2.09-1.54-3.63-3.6-3.63"/><path d="m385.39-496.97c-2.47 0-4.46 2.03-4.46 4.5s1.99 4.49 4.46 4.49 4.49-2.02 4.49-4.49-2.02-4.5-4.49-4.5"/><path d="m430.18-477.76c-7.54 0-13.62 2.99-17.32 8.41v-4.36c0-2.06-1.55-3.6-3.6-3.6-2.1 0-3.64 1.54-3.64 3.6v42.3c0 2.03 1.58 3.64 3.64 3.64 2.02 0 3.6-1.61 3.6-3.64v-22.67c0-9.99 6.55-16.99 15.92-16.99 9.54 0 14.82 5.53 14.82 15.58v24.08c0 2.03 1.58 3.64 3.6 3.64 2.03 0 3.64-1.61 3.64-3.64v-24.18c0-13.25-8.3-22.17-20.66-22.17"/><path d="m478.75-486.82c.55.41 1.13.62 1.78.62.62 0 1.17-.17 1.75-.35l15.03-4.87c.59-.13 1.24-.41 1.82-1.2 1.13-1.51.48-3.22-.75-4.15-.52-.38-1.21-.62-1.89-.62-.34 0-.69.07-1 .17l-15.64 5.12c-.69.24-1.24.48-1.72 1.13-.44.62-.65 1.41-.55 2.19.14.79.55 1.48 1.17 1.96"/><path d="m504.85-456.17h-33.35c1.06-8.96 8.13-15.44 16.95-15.44 8.64 0 15.33 6.34 16.4 15.44m-16.4-21.58c-13.8 0-24.57 11.08-24.57 25.18 0 12.56 8.65 25.22 25.22 25.22 7.96 0 15.47-3.54 19.62-9.27.48-.75.69-1.37.69-2.16 0-1.54-1.06-3.09-3.09-3.09-1.3 0-2.16.83-2.78 1.55-3.81 4.59-8.4 6.72-14.44 6.72-11.15 0-17.36-8.2-17.84-16.43h37.26c1.64 0 3.05-1.41 3.05-3.06 0-14.3-9.71-24.66-23.12-24.66"/><path d="m586.7-477.76c-8.78 0-14.92 3.36-19.24 10.53-3.4-6.62-10.09-10.53-18.09-10.53-7.37 0-13.17 2.92-16.84 8.41v-4.36c0-2.06-1.58-3.6-3.64-3.6-2.02 0-3.6 1.58-3.6 3.6v42.3c0 2.03 1.58 3.64 3.6 3.64 2.03 0 3.64-1.61 3.64-3.64v-22.67c0-10.16 6.21-16.99 15.47-16.99 9.4 0 14.58 5.53 14.58 15.58v24.08c0 2.03 1.62 3.64 3.64 3.64s3.6-1.61 3.6-3.64v-22.67c0-10.16 6.21-16.99 15.48-16.99 9.4 0 14.58 5.53 14.58 15.58v24.08c0 2.03 1.61 3.64 3.64 3.64 2.02 0 3.63-1.61 3.63-3.64v-24.18c0-13.25-8.23-22.17-20.45-22.17"/><path d="m641.05-432.85c-7.93 0-13.08-3.57-13.08-9.06 0-5.59 5.32-9.2 13.52-9.2 7.07 0 14.38 3.43 14.38 9.2 0 5.66-7.55 9.06-14.82 9.06m0-44.92c-6.62 0-11.94 1.17-16.75 3.64-1.09.55-1.81 1.61-1.81 2.71 0 1.89 1.2 3.09 3.15 3.09.62 0 1.13-.17 1.48-.31l.2-.07c3.54-1.44 7.59-2.78 13.18-2.78 10.5 0 15.37 4.64 15.37 14.59v5.48c-2.81-2.74-8.2-5.28-14.82-5.28-12.15 0-20.31 5.94-20.31 14.79 0 8.58 7.96 14.58 19.31 14.58 6.66 0 12.22-1.96 15.82-5.52v1.44c0 1.82 1.23 3.63 3.64 3.63 2.36 0 3.6-1.81 3.6-3.63v-25.6c0-13.17-8.03-20.76-22.06-20.76"/><path d="m674.99-563.61c-1.48 0-2.64-1.2-2.64-2.71v-14.1h-19.8v14.1c0 1.51-1.03 2.71-2.57 2.71-1.61 0-2.71-1.2-2.71-2.71v-32.18c0-1.54 1.1-2.71 2.64-2.71s2.64 1.24 2.64 2.71v13.11h19.8v-13.11c0-1.54 1.16-2.71 2.64-2.71 1.61 0 2.64 1.24 2.64 2.71v32.18c0 1.51-1.1 2.71-2.64 2.71"/><path d="m700.29-595.9h-7.45v27h7.45c8.44 0 13.27-5.63 13.27-13.48 0-7.89-4.83-13.52-13.27-13.52m.17 31.87h-10.19c-1.51 0-2.71-1.23-2.71-2.71v-31.32c0-1.48 1.2-2.68 2.71-2.68h10.19c11.35 0 18.39 7.82 18.39 18.36 0 10.5-7.04 18.35-18.39 18.35"/></g></svg>