<svg xmlns="http://www.w3.org/2000/svg" viewBox="0 0 600 136.36"><g transform="matrix(1.40171 0 0 1.40171-115.37 504.8)"><g fill="#d72e4a"><path d="m372.28-262.85h-289.97l35.415-97.28h289.97"/><path d="m474.98-262.85h-94.38l35.37-97.28h94.38"/></g><g fill="#fff"><path d="m145.8-331.41h-23.425l4.992-13.91h66.35l-5.077 13.91h-23.08l-19.542 53.933h-19.713"/><path d="m201.61-345.32h56.834l-4.864 13.91h-37.12l-4.395 12.587h35.03l-4.95 13.91h-35.03l-4.779 13.526h36.567l-5.077 13.91h-56.791"/><path d="m269.11-345.32h19.755l-19.03 53.933h32.684l-4.864 13.91h-53.16"/><path d="m329.44-345.32h57.13l-4.864 13.91h-37.12l-4.352 12.587h35.03l-4.95 13.91h-35.07l-4.779 13.526h36.481l-4.864 13.91h-57.22"/><path d="m425.74-345.49h56.791l-4.565 12.544h-42.41l-4.992 13.06c5.205-2.901 14.294-4.01 19.499-4.01 13.91 0 29.612 5.163 26.03 22.529-3.584 17.11-21.12 24.449-39.08 24.449-13.952 0-30.465-4.01-27.564-21.633h18.817c.256 7.126 3.328 9.09 11.136 9.09 10.838 0 16.683-3.755 18.305-11.435 2.01-9.643-8.107-11.648-13.654-11.648-4.565 0-10.539 1.237-14.635 4.608h-17.323"/></g></g></svg>