<svg xmlns="http://www.w3.org/2000/svg" height="341.01" width="600" viewBox="0 0 158.75 90.22551"><g transform="translate(20.471-155.91)"><path d="m-20.471 221.14h158.75v-34.86h-158.75v34.86" fill="#7f1c72"/><path d="m124.35 199.38c-.15 0-.25-.11-.25-.24v-6.21c0-.13-.11-.25-.25-.25h-5.46c-.14 0-.25.12-.25.25v6.21c0 .13-.12.24-.25.24h-7.14c-.14 0-.25.11-.25.25v5.52c0 .13.11.24.25.24h7.14c.13 0 .25.11.25.25v7.28c0 .13.11.24.25.24h5.46c.14 0 .25-.11.25-.24v-7.28c0-.14.1-.25.25-.25h6.64c.14 0 .25-.11.25-.24v-5.52c0-.14-.11-.25-.25-.25" fill="#fff"/><path d="m77.84 205.62c3.479-20.82-47.34-7.49-21.17-30.02 11.544-9.93-18.278-31.46 10.816-11.49 17.585 12.07 16.578 28.41 10.351 41.51" fill="#7f1c72"/><path d="m17.937 197.83c-10.833-31.53 13.976-24.11 5.099.25-4.731 12.98 11.255 22.68 21.292 20.83 27.5-5.08 10.748 29.25-14.626 13.6-12.969-7.99-4.282-12.9-11.765-34.68" fill="#fecc00"/><path d="m101.6 187.43c-1.14-3.54-2.667-6.93-4.562-10.02-5.683-9.27-14.71-15.81-26.925-15.47-27.765.18-21.469 24.24-11.03 25.37 11.775 1.29 27.612-13.97 29.765 14.88 1.445 19.37 5.999 15.89-9.531 30.09-14.656 13.4-.153 19.09-.153 7.89 0-15.27 23.569-14.32 24.409-37.98.13-3.86-.38-10.04-1.97-14.76" fill="#c9003c"/><path d="m103.51 200.34c-1.02-18.74-25.917-27.24-25.2-4.85.929 28.89-11.524 34.65-47.819 20.1 14.19 5.98 21.01 8.94 29.897 13.57 17.851 9.29 44.538-2.71 43.12-28.82" fill="#e53734"/><g fill="#fff"><path d="m40.985 197.17l1.295 15.16c.011.09-.051.18-.156.18l-4.816.41c-.099.001-.184-.06-.187-.16l-1.303-15.14c-.003-.1-.089-.16-.18-.16l-3.854.33c-.088.001-.174-.06-.177-.16l-.35-4.02c-.007-.1.068-.18.153-.18l13.299-1.15c.088-.001.18.06.18.16l.357 4.03c.004.09-.064.17-.163.18l-3.945.34c-.092 0-.16.09-.153.18"/><path d="m7.498 204.52c-.167-1.33-.939-2.1-2.296-2.3-1.384-.2-2.316.32-2.786 1.56-.02.05.003.09.054.09l4.956.73c.048 0 .082-.03.071-.08m-5.629 2.07c-.184 1.79.602 2.8 2.333 3.05.891.12 1.626-.13 2.231-.74.068-.08.197-.12.286-.11l3.976.57c.098.001.136.1.098.18-.398.83-.87 1.46-1.387 1.92-1.425 1.21-3.323 1.64-5.677 1.29-2.18-.31-3.854-1.15-4.99-2.56-1.136-1.4-1.541-3.13-1.258-5.14.299-2.05 1.157-3.6 2.599-4.62 1.435-1.03 3.248-1.39 5.408-1.07 2.15.31 3.724 1.16 4.755 2.58 1.034 1.41 1.405 3.21 1.099 5.36l-.048.31c-.006.09-.095.16-.187.14l-9.05-1.3c-.092-.02-.18.04-.187.14"/><path d="m13.25 212.19l1.204-17.5c.007-.09.092-.17.18-.15l3.946.27c.092 0 .163.09.156.18l-1.204 17.5c-.001.1-.085.17-.187.16l-3.935-.27c-.092-.001-.17-.09-.16-.19"/><path d="m28.757 204.82c-.419-1.16-1.245-1.7-2.493-1.62-1.29.08-2.028.73-2.218 1.93-.007.04.02.08.075.08l4.581-.31c.045 0 .075-.03.055-.08m-4.667 2.96c.18 1.63 1.085 2.39 2.691 2.28.806-.05 1.418-.41 1.857-1.09.044-.07.156-.15.255-.15l3.653-.24c.105 0 .15.06.129.15-.194.82-.5 1.47-.881 1.97-1.037 1.36-2.673 2.11-4.857 2.26-2.02.13-3.69-.31-4.979-1.36-1.29-1.04-1.987-2.52-2.099-4.38-.129-1.92.34-3.46 1.442-4.66 1.092-1.21 2.67-1.87 4.663-1.99 2-.13 3.575.34 4.779 1.41 1.197 1.07 1.878 2.63 2.01 4.63l.014.25c.001.1-.068.19-.154.19l-8.367.55c-.092 0-.16.09-.153.18"/><path d="m-6.222 203.68l1.391 8.28c.014.1-.041.19-.133.2l-4 .67c-.092.02-.184-.04-.197-.14l-1.391-8.26c-.024-.1-.105-.17-.2-.15l-1.085.19c-.096.001-.181-.05-.198-.15l-.551-3.25c-.013-.09.048-.18.143-.2l1.085-.18c.095-.02.153-.11.143-.2l-.568-3.33c-.001-.09.044-.18.143-.2l4.01-.67c.095-.001.18.05.197.14l.568 3.34c.007.08.099.15.191.13l2.143-.36c.095-.001.184.05.201.14l.548 3.25c.017.1-.048.19-.143.2l-2.146.37c-.095.001-.156.09-.143.18"/><path d="m54.6 207.27c0-1.02-.378-1.87-1.082-2.58-.707-.72-1.574-1.06-2.578-1.06-.99 0-1.85.36-2.578 1.08-.714.71-1.082 1.54-1.082 2.53 0 1.01.354 1.9 1.062 2.6.707.72 1.578 1.08 2.598 1.08 1.024 0 1.871-.36 2.578-1.08.704-.7 1.082-1.57 1.082-2.57m3.524 0c0 2.02-.697 3.68-2.099 4.98-1.381 1.31-3.075 1.94-5.085 1.94-2.03 0-3.745-.65-5.122-1.95-1.368-1.32-2.061-2.93-2.061-4.85 0-1.47.377-2.79 1.142-3.95.759-1.15 1.817-2.02 3.147-2.55.864-.35 1.802-.53 2.819-.53 2.092 0 3.823.66 5.191 1.96 1.371 1.29 2.068 2.96 2.068 4.95"/><path d="m73.29 201.01c0-1.36-.483-2.49-1.432-3.43-.939-.94-2.085-1.4-3.425-1.4-1.31 0-2.47.48-3.429 1.43-.945.94-1.428 2.04-1.428 3.36 0 1.35.466 2.53 1.411 3.47.942.95 2.088 1.43 3.446 1.43 1.36 0 2.486-.48 3.425-1.43.949-.94 1.432-2.1 1.432-3.43m4.687 0c0 2.7-.919 4.91-2.776 6.63-1.84 1.73-4.095 2.58-6.768 2.58-2.687 0-4.97-.88-6.813-2.6-1.82-1.75-2.738-3.89-2.738-6.45 0-1.95.503-3.71 1.52-5.24 1.01-1.54 2.408-2.7 4.184-3.42 1.16-.45 2.404-.68 3.748-.68 2.792 0 5.088.87 6.915 2.6 1.809 1.72 2.728 3.93 2.728 6.58"/><path d="m90.93 213.88l-6.755-10.4c-.051-.07-.095-.06-.106.03l-.843 9.66c-.003.1-.085.17-.187.16l-3.901-.34c-.102-.001-.167-.09-.157-.18l1.388-16.01c.007-.09.092-.17.184-.15l3.911.33c.095.001.208.09.265.16l6.755 10.4c.045.08.092.06.099-.03l.844-9.66c.006-.09.088-.17.18-.16l3.918.34c.095.001.157.09.15.19l-1.395 16c-.007.1-.088.17-.177.17l-3.918-.36c-.095 0-.207-.07-.255-.15"/></g></g></svg>