<?xml version="1.0" encoding="UTF-8" standalone="no"?>
<!-- Created with Inkscape (http://www.inkscape.org/) -->
<svg xmlns:rdf="http://www.w3.org/1999/02/22-rdf-syntax-ns#" xmlns="http://www.w3.org/2000/svg" height="97.284" width="600" version="1.1" xmlns:cc="http://creativecommons.org/ns#" xmlns:dc="http://purl.org/dc/elements/1.1/">
 <defs></defs>
 <metadata>
  <rdf:RDF>
   <cc:Work rdf:about="">
    <dc:format>image/svg+xml</dc:format>
    <dc:type rdf:resource="http://purl.org/dc/dcmitype/StillImage"/>
    <dc:title/>
   </cc:Work>
  </rdf:RDF>
 </metadata>
 <g transform="translate(-82.305905,360.12967)">
  <g fill-rule="nonzero" transform="translate(1.1724044e-4,-9.5522906e-5)">
   <path fill="#aaaaa9" d="m682.31-360.09-163.25,0-35.415,97.241,163.25,0,35.415-97.241zm-7.979,5.5469-31.318,86.104-151.39,0,31.318-86.104"/>
   <path fill="#aaaaa9" d="m531.73-345.71,15.105,0-9.515,26.412,27.82,0,9.515-26.412,15.105,0-24.79,68.738-15.105,0,10.667-29.654-27.82,0-10.667,29.654-15.147,0"/>
   <path d="m596.03-289.68,13.483,0c8.747,0,19.073-5.3762,24.577-20.609,4.9922-13.824,3.3708-22.699-11.648-22.699h-10.795l-15.617,43.308zm5.1202-56.023,29.654,0c17.793,0,27.137,11.179,18.902,34.007-7.1683,19.926-22.742,34.732-43.735,34.732h-29.654" fill="#aaaaa9"/>
   <path fill="#d72e4a" d="m372.28-262.85-289.97,0,35.415-97.283,289.97,0"/>
   <path fill="#d72e4a" d="m474.98-262.85-94.382,0,35.372-97.283,94.382,0"/>
   <path fill="#FFF" d="m145.8-331.41-23.425,0,4.9922-13.91,66.349,0-5.0775,13.91-23.083,0-19.542,53.933-19.713,0"/>
   <path fill="#FFF" d="m201.61-345.32,56.834,0-4.8642,13.91-37.121,0-4.3948,12.587,35.031,0-4.9495,13.91-35.031,0-4.7788,13.526,36.567,0-5.0775,13.91-56.791,0"/>
   <path fill="#FFF" d="m269.11-345.32,19.755,0-19.03,53.933,32.684,0-4.8642,13.91-53.165,0"/>
   <path fill="#FFF" d="m329.44-345.32,57.133,0-4.8642,13.91-37.121,0-4.3522,12.587,35.031,0-4.9495,13.91-35.073,0-4.7788,13.526,36.481,0-4.8642,13.91-57.218,0"/>
   <path d="m425.74-345.49,56.791,0-4.5655,12.544-42.412,0-4.9922,13.056c5.2055-2.9014,14.294-4.0108,19.499-4.0108,13.91,0,29.612,5.1628,26.028,22.529-3.5841,17.11-21.121,24.449-39.084,24.449-13.952,0-30.465-4.0108-27.564-21.633h18.817c0.25601,7.1256,3.3281,9.0883,11.136,9.0883,10.838,0,16.683-3.7548,18.305-11.435,2.0054-9.643-8.107-11.648-13.654-11.648-4.5655,0-10.539,1.2374-14.635,4.6082h-17.323" fill="#FFF"/>
  </g>
 </g>
</svg>
