<svg xmlns="http://www.w3.org/2000/svg" viewBox="0 0 600 124.25"><g transform="scale(1.36742)"><path d="m223.44 59.6c-1.602 0-3.109-.311-4.524-.93-4.287-1.872-7.219-6.084-7.219-10.828v-8.08c0-6.393 5.344-11.756 11.743-11.756h14.157c5.309 0 9.741 4.416 9.741 9.73 0 5.308-4.435 9.736-9.741 9.736h-18.543v.37c0 2.289 2.119 4.431 4.386 4.431h16.308c2.151 0 3.702 1.472 3.702 3.664 0 2.175-1.514 3.666-3.674 3.666h-16.336m-4.48-19.55h18.543c1.397 0 2.393-.946 2.393-2.248 0-1.35-1.047-2.402-2.393-2.402h-14.157c-2.27 0-4.386 2.145-4.386 4.436v.214m-68.35-.078h18.543c1.397 0 2.393-.946 2.393-2.247 0-1.35-1.046-2.403-2.393-2.403h-14.156c-2.27 0-4.386 2.145-4.386 4.437v.213m4.481 19.55c-1.602 0-3.11-.311-4.525-.93-4.287-1.872-7.219-6.084-7.219-10.828v-8.08c0-6.393 5.344-11.756 11.744-11.756h14.157c5.308 0 9.741 4.416 9.741 9.73 0 5.308-4.435 9.736-9.741 9.736h-18.544v.37c0 2.289 2.119 4.431 4.387 4.431h16.308c2.151 0 3.702 1.472 3.702 3.664 0 2.175-1.514 3.666-3.674 3.666h-16.336m166.9-11.962h-18.544c-1.396 0-2.392.946-2.392 2.247 0 1.35 1.046 2.403 2.392 2.403h14.157c2.271 0 4.387-2.145 4.387-4.437v-.213m-4.48-19.549c1.602 0 3.11.311 4.525.93 4.287 1.872 7.219 6.084 7.219 10.828v8.08c0 6.394-5.345 11.757-11.744 11.757h-14.157c-5.308 0-9.74-4.417-9.74-9.73 0-5.308 4.434-9.737 9.74-9.737h18.544v-.37c0-2.289-2.118-4.431-4.387-4.431h-16.308c-2.15 0-3.702-1.471-3.702-3.664 0-2.174 1.515-3.666 3.674-3.666h16.336m-317.51 28.15l9.181-28.01 9.07-28.15h29.502 29.556l9.138 28.15 9.112 28.01-23.923 17.385-23.857 17.326-23.847-17.328-23.931-17.383m390.46-24.488c0 1.089-.348 1.958-1.028 2.637-.681.68-1.552 1.027-2.646 1.027h-6.06c-2.18 0-4.412 2.063-4.412 4.209v16.375c0 2.158-1.485 3.673-3.663 3.673-2.157 0-3.663-1.518-3.663-3.669v-16.364c0-6.206 5.626-11.55 11.738-11.55h6.06c2.157 0 3.674 1.487 3.674 3.662m-32.789-7.908c0-1.2.366-2.087 1.062-2.711.719-.645 1.579-.968 2.602-.968 2.177 0 3.662 1.517 3.662 3.675v32.36c0 1.95-1.72 3.674-3.673 3.674h-16.576c-6.393 0-11.759-5.353-11.759-11.751v-8.08c0-6.454 5.281-11.75 11.738-11.75h12.918l.026-4.447m-.025 11.773h-12.919c-2.572 0-4.413 1.845-4.413 4.418v8.097c0 2.44 1.98 4.418 4.421 4.418h12.938l-.027-16.933m-87.21 24.06c-2.167 0-3.662-1.508-3.662-3.673v-16.17c0-2.384-2.02-4.412-4.403-4.412-2.436 0-4.403 1.975-4.403 4.412v16.17c0 2.189-1.456 3.673-3.663 3.673-2.171 0-3.662-1.51-3.662-3.669v-16.16c0-6.38 5.337-11.751 11.729-11.751 3.46 0 5.677 1.229 8.02 3.274 2.338-2.045 4.556-3.274 8.02-3.274 6.362 0 11.829 5.346 11.829 11.751v16.16c0 2.159-1.489 3.669-3.663 3.669-2.162 0-3.662-1.522-3.662-3.673v-16.17c0-2.348-2.147-4.412-4.504-4.412-2.305 0-4.303 1.962-4.303 4.262v16.322c-.002 2.158-1.488 3.673-3.665 3.673m161.02-35.837c0-1.2.366-2.087 1.061-2.711.719-.644 1.579-.967 2.602-.967 2.178 0 3.663 1.517 3.663 3.675v32.36c0 1.951-1.721 3.675-3.674 3.675h-16.576c-6.393 0-11.759-5.354-11.759-11.751v-8.08c0-6.455 5.281-11.751 11.738-11.751h12.918l.027-4.448m-.025 11.773h-12.92c-2.572 0-4.413 1.844-4.413 4.418v8.097c0 2.44 1.98 4.418 4.422 4.418h12.937l-.026-16.933m-32.688 24.06c-2.163 0-3.662-1.505-3.662-3.669v-24.24c0-2.16 1.489-3.671 3.662-3.671 2.175 0 3.663 1.512 3.663 3.671v24.24c0 2.159-1.489 3.669-3.663 3.669m-289.87-27.924c0-2.166 1.506-3.666 3.671-3.666h25.08c2.161 0 3.673 1.49 3.673 3.666 0 2.175-1.513 3.666-3.673 3.666h-8.857l.007 20.601c0 2.159-1.492 3.671-3.665 3.671-2.173 0-3.666-1.511-3.666-3.671l.003-20.616-8.9.015c-2.159 0-3.671-1.494-3.671-3.666m81.27 1.799l-.028 15.755c0 1.576 1.447 3.02 3.02 3.02h12.517c2.152 0 3.807 1.363 3.807 3.668 0 2.175-1.517 3.662-3.673 3.662l-12.953.025c-2.728 0-5.082-.979-7.082-2.953-1.973-1.998-2.929-4.354-2.929-7.085v-17.874c0-2.15 1.42-3.695 3.639-3.695 2.185 0 3.663 1.515 3.663 3.675l.017 1.799" fill="#fff"/><g fill-rule="evenodd"><g fill="#b3b3b3"><path d="m218.96 40.05h18.543c1.397 0 2.393-.946 2.393-2.248 0-1.35-1.047-2.402-2.393-2.402h-14.157c-2.27 0-4.386 2.145-4.386 4.436v.214m4.48 19.55c-1.602 0-3.109-.311-4.524-.93-4.287-1.872-7.219-6.084-7.219-10.828v-8.08c0-6.393 5.344-11.756 11.743-11.756h14.157c5.309 0 9.741 4.416 9.741 9.73 0 5.308-4.435 9.736-9.741 9.736h-18.543v.37c0 2.289 2.119 4.431 4.386 4.431h16.308c2.151 0 3.702 1.472 3.702 3.664 0 2.175-1.514 3.666-3.674 3.666h-16.336"/><path d="m150.61 39.971h18.543c1.397 0 2.393-.946 2.393-2.247 0-1.35-1.046-2.403-2.393-2.403h-14.156c-2.27 0-4.386 2.145-4.386 4.437v.213m4.481 19.55c-1.602 0-3.11-.311-4.525-.93-4.287-1.872-7.219-6.084-7.219-10.828v-8.08c0-6.393 5.344-11.756 11.744-11.756h14.157c5.308 0 9.741 4.416 9.741 9.73 0 5.308-4.435 9.736-9.741 9.736h-18.544v.37c0 2.289 2.119 4.431 4.387 4.431h16.308c2.151 0 3.702 1.472 3.702 3.664 0 2.175-1.514 3.666-3.674 3.666h-16.336"/></g><path d="m321.99 47.559h-18.544c-1.396 0-2.392.946-2.392 2.247 0 1.35 1.046 2.403 2.392 2.403h14.157c2.271 0 4.387-2.145 4.387-4.437v-.213m-4.48-19.549c1.602 0 3.11.311 4.525.93 4.287 1.872 7.219 6.084 7.219 10.828v8.08c0 6.394-5.345 11.757-11.744 11.757h-14.157c-5.308 0-9.74-4.417-9.74-9.73 0-5.308 4.434-9.737 9.74-9.737h18.544v-.37c0-2.289-2.118-4.431-4.387-4.431h-16.308c-2.15 0-3.702-1.471-3.702-3.664 0-2.174 1.515-3.666 3.674-3.666h16.336" fill="#f10"/></g><path fill="#f10" d="M71.64 73.54 47.778 90.87 23.931 73.54 47.79 56.27 71.64 73.54z"/><path fill="#411485" d="m62.58 45.533l23.86-17.383 9.12 28.01-23.92 17.38-9.06-28.01"/><path fill="#ff6309" d="m86.44 28.15h-29.524l-9.165-28.15h29.559l9.13 28.15"/><path fill="#b7d30b" d="m18.25 0h29.501l-9.178 28.15h-29.392l9.07-28.15"/><path fill="#0197b5" d="M0 56.16 9.181 28.15 33.01 45.533 23.931 73.54 0 56.16z"/><path fill="#fff" d="m38.573 28.15l9.178-28.15 9.165 28.15h29.524l-23.86 17.383 9.06 28.01-23.85-17.27-23.859 17.27 9.08-28.01-23.829-17.383z"/><g fill="#f10"><path d="m390.46 31.669c0 1.089-.348 1.958-1.028 2.637-.681.68-1.552 1.027-2.646 1.027h-6.06c-2.18 0-4.412 2.063-4.412 4.209v16.375c0 2.158-1.485 3.673-3.663 3.673-2.157 0-3.663-1.518-3.663-3.669v-16.364c0-6.206 5.626-11.55 11.738-11.55h6.06c2.157 0 3.674 1.487 3.674 3.662"/><path d="m357.67 23.761c0-1.2.366-2.087 1.062-2.711.719-.645 1.579-.968 2.602-.968 2.177 0 3.662 1.517 3.662 3.675v32.36c0 1.95-1.72 3.674-3.673 3.674h-16.576c-6.393 0-11.759-5.353-11.759-11.751v-8.08c0-6.454 5.281-11.75 11.738-11.75h12.918l.026-4.447m-.025 11.773h-12.919c-2.572 0-4.413 1.845-4.413 4.418v8.097c0 2.44 1.98 4.418 4.421 4.418h12.938l-.027-16.933" fill-rule="evenodd"/><path d="m270.43 59.59c-2.167 0-3.662-1.508-3.662-3.673v-16.17c0-2.384-2.02-4.412-4.403-4.412-2.436 0-4.403 1.975-4.403 4.412v16.17c0 2.189-1.456 3.673-3.663 3.673-2.171 0-3.662-1.51-3.662-3.669v-16.16c0-6.38 5.337-11.751 11.729-11.751 3.46 0 5.677 1.229 8.02 3.274 2.338-2.045 4.556-3.274 8.02-3.274 6.362 0 11.829 5.346 11.829 11.751v16.16c0 2.159-1.489 3.669-3.663 3.669-2.162 0-3.662-1.522-3.662-3.673v-16.17c0-2.348-2.147-4.412-4.504-4.412-2.305 0-4.303 1.962-4.303 4.262v16.322c-.002 2.158-1.488 3.673-3.665 3.673"/><path d="m431.46 23.753c0-1.2.366-2.087 1.061-2.711.719-.644 1.579-.967 2.602-.967 2.178 0 3.663 1.517 3.663 3.675v32.36c0 1.951-1.721 3.675-3.674 3.675h-16.576c-6.393 0-11.759-5.354-11.759-11.751v-8.08c0-6.455 5.281-11.751 11.738-11.751h12.918l.027-4.448m-.025 11.773h-12.92c-2.572 0-4.413 1.844-4.413 4.418v8.097c0 2.44 1.98 4.418 4.422 4.418h12.937l-.026-16.933" fill-rule="evenodd"/><path d="m398.74 59.59c-2.163 0-3.662-1.505-3.662-3.669v-24.24c0-2.16 1.489-3.671 3.662-3.671 2.175 0 3.663 1.512 3.663 3.671v24.24c0 2.159-1.489 3.669-3.663 3.669"/></g><g fill="#b3b3b3"><path d="m108.88 31.666c0-2.166 1.506-3.666 3.671-3.666h25.08c2.161 0 3.673 1.49 3.673 3.666 0 2.175-1.513 3.666-3.673 3.666h-8.857l.007 20.601c0 2.159-1.492 3.671-3.665 3.671-2.173 0-3.666-1.511-3.666-3.671l.003-20.616-8.9.015c-2.159 0-3.671-1.494-3.671-3.666"/><path d="m190.15 33.465l-.028 15.755c0 1.576 1.447 3.02 3.02 3.02h12.517c2.152 0 3.807 1.363 3.807 3.668 0 2.175-1.517 3.662-3.673 3.662l-12.953.025c-2.728 0-5.082-.979-7.082-2.953-1.973-1.998-2.929-4.354-2.929-7.085v-17.874c0-2.15 1.42-3.695 3.639-3.695 2.185 0 3.663 1.515 3.663 3.675l.017 1.799"/></g></g></svg>