<svg xmlns="http://www.w3.org/2000/svg" viewBox="0 0 600 520.31"><defs><linearGradient id="0" gradientUnits="userSpaceOnUse" x1="-382.95" x2="217.09"><stop stop-color="#b51d28"/><stop stop-color="#ef313d" offset="1"/></linearGradient></defs><g transform="translate(382.94-178.16)"><path fill="url(#0)" d="m-103.27 178.45c-24.384.624-48.23 2.455-71.28 5.285-7.199.874-14.356 1.831-21.347 2.913-64.62 10.07-121.42 28.629-162.66 53.887-4.244 2.58-7.282 6.741-8.406 11.568-10.611 44.48-15.979 92.21-15.979 142.1 0 4.744.042 9.404.166 14.02 1.04 51.27 7.781 99.83 19.974 144.43 1.29 4.66 4.369 8.697 8.572 11.152 35.744 20.889 82.85 36.993 136.11 47.23-.042.166-.083.333-.083.499v83.68c0 1.831 1.456 3.246 3.204 3.246h55.968c1.789 0 3.204-1.415 3.204-3.246v-75.23c15.355 1.498 31 2.538 46.938 3.121 8.53.25 17.227.458 25.966.458 8.739 0 17.394-.208 26.01-.458 16.437-.583 32.665-1.706 48.52-3.246v75.36c0 1.831 1.456 3.246 3.246 3.246h55.926c1.789 0 3.246-1.415 3.246-3.246v-83.68c0-.291-.042-.583-.125-.832 52.56-10.18 99.08-26.16 134.5-46.88 4.203-2.455 7.282-6.491 8.53-11.152 12.234-44.608 18.975-93.17 20.01-144.39.083-4.702.125-9.321.125-14.273 0-49.684-5.326-97.41-15.937-141.85-1.124-4.869-4.161-9.03-8.406-11.61-40.07-24.57-94.79-42.71-157.08-52.95-7.03-1.165-14.15-2.247-21.388-3.204-24.717-3.204-50.43-5.285-76.81-5.951-6.741-.166-13.524-.291-20.348-.291-6.824 0-13.607.125-20.348.291"/><g fill="#fff"><path d="m-315.56 472.2v-111.02h-43.4v-39.698h135.2v39.698h-43.4v111.02h-48.39z"/><path d="m-203.98 404.06h39.41c-.499-6.866-2.413-12.07-5.742-15.48-3.329-3.454-8.156-5.202-14.439-5.202-5.784 0-10.361 1.831-13.732 5.493-3.412 3.662-5.243 8.697-5.493 15.188m37.03 35.2h42.36c-3.038 12.151-9.779 21.347-20.18 27.589-10.403 6.242-24.13 9.363-41.2 9.363-19.1 0-34.29-5.326-45.48-15.937-11.235-10.611-16.853-24.842-16.853-42.818 0-18.684 5.742-33.414 17.19-44.23 11.485-10.819 27.05-16.229 46.772-16.229 19.807 0 35.29 5.867 46.522 17.643 11.194 11.776 16.811 28.09 16.811 48.977v2.663l-82.974.083c.208 7.116 2.081 12.567 5.618 16.437 3.579 3.87 8.489 5.784 14.855 5.784 4.286 0 7.865-.791 10.736-2.413 2.871-1.581 4.827-3.911 5.826-6.908"/><path d="m-115.34 321.47h44.608v150.72h-44.608v-150.72"/><path d="m-60.19 472.2v-150.72h44.19v73.57l29.17-34.08h49.643l-41.36 41.03 46.98 70.2h-52.597l-24.26-39.781-7.573 7.781v31.999h-44.19z"/><path d="m141.95 422.59c-4.244 1.623-9.862 3.371-16.894 5.202-11.03 2.954-16.561 6.866-16.561 11.776 0 3.163 1.082 5.618 3.287 7.365 2.164 1.789 5.285 2.663 9.279 2.663 7.365 0 12.733-1.706 16.15-5.118 3.371-3.412 5.03-8.822 5.03-16.27 0-1.54 0-2.746-.042-3.537-.042-.749-.125-1.456-.25-2.081m4.078 49.601l-2.746-10.611c-5.659 4.993-11.776 8.655-18.309 11.03-6.575 2.413-13.94 3.62-22.1 3.62-12.567 0-22.262-3.079-29.13-9.279-6.866-6.159-10.278-14.897-10.278-26.13 0-10.986 3.371-19.1 10.112-24.343 6.741-5.285 19.516-9.07 38.28-11.485 2.372-.333 5.576-.707 9.612-1.123 13.982-1.498 20.972-5.118 20.972-10.861 0-3.204-1.248-5.534-3.828-6.991-2.538-1.456-6.616-2.205-12.11-2.205-4.577 0-8.114.915-10.569 2.705-2.455 1.831-3.87 4.619-4.286 8.364h-43.19c.208-12.484 5.326-21.929 15.355-28.3 10.03-6.408 24.759-9.571 44.23-9.571 9.113 0 17.56.832 25.3 2.538 7.74 1.706 13.774 3.995 18.06 6.866 5.285 3.537 8.946 7.573 11.07 12.03 2.122 4.452 3.162 10.861 3.162 19.18v62c0 2.039.416 3.87 1.248 5.493.791 1.581 1.997 2.913 3.579 3.911v3.163h-44.44z"/></g></g></svg>