<svg xmlns="http://www.w3.org/2000/svg" viewBox="0 0 600 600"><g transform="translate(584.84 171.91)"><path fill="#00cc3f" d="m-584.84-171.91h600v600h-600v-600"/><g fill="#fff"><path d="m-353.27 26.698c-11.531 6.188-23.19 12.141-34.711 18.34-4.289 2.355-9.75 4.01-11.484 9.129.645 1.875 1.277 3.961 3.117 5.03 2.227 1.723 5.18.633 7.606-.023 15.68-4.863 31.24-10.125 46.863-15.176 3.902-1.395 8.344-3.02 10.441-6.879 2.742-4.43.902-11.02-3.926-13.148-5.894-3.199-12.48.141-17.906 2.73"/><path d="m-490.97 54.32c-2.273 8.484-4.289 17.04-6.469 25.547-6.176 1.184-12.75-.188-19.04.621-3.035.469-5.332 3.609-5.098 6.633-.234 3.094 2.93 5.344 5.777 5.426 5.144.27 10.301-.082 15.445.211-6.02 22.723-11.625 45.563-17.414 68.36-2.519 10.629-6.375 21.387-4.746 32.473.973 5.262 3.961 10.805 9.269 12.691 7.711 2.074 15.15-2.203 21.01-6.82 9.316-7.559 16.98-17 23.344-27.13 1.793-3.141 3.961-6.434 3.785-10.195-.07-4.01-6.293-6.152-8.449-2.449-5.215 8.93-11.18 17.625-19.1 24.375-1.547.961-3.574 2.813-5.414 1.43-.563-2.285-.375-4.664.152-6.926 7.289-28.652 14.297-57.37 21.621-86 7.5.023 15.01.305 22.5-.094 5.953 0 8.684-10.617 2.156-11.93-7.313-.645-14.695-.059-22.03-.234 2.414-9.363 6.141-18.645 6.129-28.43-3.891-4.488-10.242-3.059-15.469-3.188-3.481-.047-7.277 1.98-7.957 5.637"/><path d="m-219.35 90.5c.855 8.04 9.269 12.902 9.527 21.11.41 11.719-4.02 22.98-8.941 33.41-6.621 12.984-15.176 25.12-26.02 34.934-6.82 5.777-14.613 10.945-23.555 12.539-3.188.223-6.738.797-9.621-.926-3.891-2.063-6.469-6.328-6.387-10.746.082-9.01 3.773-17.402 6.633-25.793 5.894-16.805 11.789-33.598 17.625-50.41 1.898-5.953 3.539-12.305 2.332-18.562-.504-4.184-3.82-7.664-7.711-9.05-6.129-1.594-12.562.211-17.895 3.363-12.844 7.5-24.26 18.11-30.996 31.512-1.652 2.988.504 6.949 3.785 7.512 2.731.035 4.535-2.144 5.894-4.207 4.406-6.727 9.973-12.645 16.03-17.906 1.734-1.652 4.04-2.414 6.41-2.566-.223 2.203-.516 4.418-1.324 6.504-6.867 19.09-13.547 38.26-20.227 57.42-2.144 7.254-4.828 14.555-4.535 22.23-.129 8.438 3.457 17.59 11.05 21.914 7.688 4.734 17.227 4.43 25.875 3.469 17.06-3.106 31.523-14.04 42.961-26.602 16.254-18.469 28.28-40.98 33.35-65.13 2.086-11.1 3.117-23.473-2.789-33.645-2.227-4.359-6.902-7.84-11.977-7.184-7.477 1.172-11.06 10.07-9.504 16.816"/><g transform="translate(-584.84-171.91)"><path d="m523.56 245.47c-2.91-.04-5.83.36-8.59 1.06-3.59 1.1-4.24 5.1-5.44 8.13-4.8-4.01-10.94-6.41-17.22-6.25-18.09-1.06-35.57 6.42-50.09 16.68-20.42 14.36-35.26 35.95-42.78 59.63-3.87 12.97-5.44 27.76 1.03 40.19 3.49 7.41 10.79 13.28 19.15 13.71 12.34 1.08 23.81-5.19 33.26-12.5 16.27-13.12 29.04-29.97 40.43-47.37-1.8 8.46-4.21 16.79-6.22 25.19-1.92 8.32-5.01 16.6-4.21 25.28.001 4.53 3.6 8.66 8.09 9.31 6.26 1.03 12.25-1.81 17.47-4.94 10.06-6.41 18.62-15.07 25.09-25.09 2.71-4.14 5.6-8.39 6.5-13.34.51-3.3-2.96-6.65-6.25-5.6-3.56 2.02-4.98 6.12-7.34 9.25-4.83 6.66-10.11 13.15-16.82 18-.44-6.24 2-12.1 3.22-18.12 7.11-28.14 14.14-56.31 21.13-84.47.71-2.51 1.06-5.96-1.94-7.06-2.65-1.16-5.55-1.65-8.47-1.69m-33.87 13.25c2.55-.02 5.11.29 7.53 1.06 5.35 1.6 8.93 7.49 7.66 12.97-2.38 9.53-7.34 18.12-12.26 26.53-8.13 13.7-17.67 26.53-28.21 38.47-6.52 6.82-13.14 13.82-21.44 18.5-4.08 2.29-9.24 4.16-13.78 2.19-3.72-2.15-5.81-6.29-6.38-10.44-.77-6.09.14-12.27 1.88-18.12 6.01-20.81 17.14-40.26 32.72-55.38 7.21-6.41 15.18-12.59 24.75-14.91 2.45-.51 4.98-.85 7.53-.87"/><path d="m218.56 248.34c-3.39.03-6.76.29-10.09.66-38.31 6.56-69.52 42.45-70.19 81.41.26 11.87 3.55 24.15 11.44 33.28 7.94 9.74 20.54 15.35 33.09 15 15.54.34 30.31-6.94 41.91-16.85 5.99-4.98 11.26-10.82 15.4-17.4 1.72-2.53 2.33-6.83-.9-8.41-2.65-2.1-5.95.18-7.44 2.56-7.33 10.5-18.21 18.69-30.62 22.1-9.62 2.22-20.91.97-28.07-6.44-7.24-7.42-8.54-18.44-8.15-28.34 20.89-2.31 42.24-4.34 61.87-12.41 7.5-3.23 14.82-7.4 20.22-13.66 7.37-8.07 9.72-20.14 6.59-30.53-2.77-8.61-10.21-15.05-18.53-18.15-5.25-2.18-10.88-2.86-16.53-2.82m-3.75 10.41c.64-.001 1.27-.001 1.91.03 5.52-.46 11.63 2.89 12.87 8.56 1.75 8.27-.43 16.98-4.81 24.1-4.44 7.8-12.52 12.72-20.69 15.87-12.07 4.76-25 6.58-37.81 8.1 4.37-16.4 11.3-32.66 23.34-44.91 6.76-6.53 15.64-11.62 25.19-11.75"/></g></g></g></svg>