<svg xmlns="http://www.w3.org/2000/svg" viewBox="0 0 600 600"><g transform="translate(441.4 315.35)"><path fill="#00cc3f" d="m-441.4-315.35h600v600h-600v-600"/><g transform="matrix(.67653 0 0 .67653-45.739-4.966)"><g fill="#fff"><path d="m-490.2-88.72c-2.273 8.484-4.289 17.04-6.469 25.547-6.176 1.184-12.75-.188-19.04.621-3.035.469-5.332 3.609-5.098 6.633-.234 3.094 2.93 5.344 5.777 5.426 5.144.27 10.301-.082 15.445.211-6.02 22.723-11.625 45.563-17.414 68.36-2.519 10.629-6.375 21.387-4.746 32.473.973 5.262 3.961 10.805 9.269 12.691 7.711 2.074 15.15-2.203 21.01-6.82 9.316-7.559 16.98-17 23.344-27.13 1.793-3.141 3.961-6.434 3.785-10.195-.07-4.01-6.293-6.152-8.449-2.449-5.215 8.93-11.18 17.625-19.1 24.375-1.547.961-3.574 2.813-5.414 1.43-.563-2.285-.375-4.664.152-6.926 7.289-28.652 14.297-57.37 21.621-86 7.5.023 15.01.305 22.5-.094 5.953 0 8.684-10.617 2.156-11.93-7.313-.645-14.695-.059-22.03-.234 2.414-9.363 6.141-18.645 6.129-28.43-3.891-4.488-10.242-3.059-15.469-3.188-3.481-.047-7.277 1.981-7.957 5.637"/><path d="m-218.57-52.55c.855 8.04 9.269 12.902 9.527 21.11.41 11.719-4.02 22.98-8.941 33.41-6.621 12.984-15.176 25.12-26.02 34.934-6.82 5.777-14.613 10.945-23.555 12.539-3.188.223-6.738.797-9.621-.926-3.891-2.063-6.469-6.328-6.387-10.746.082-9.01 3.773-17.402 6.633-25.793 5.894-16.805 11.789-33.598 17.625-50.41 1.898-5.953 3.539-12.305 2.332-18.562-.504-4.184-3.82-7.664-7.711-9.05-6.129-1.594-12.562.211-17.895 3.363-12.844 7.5-24.26 18.1-30.996 31.512-1.652 2.988.504 6.949 3.785 7.512 2.731.035 4.535-2.145 5.894-4.207 4.406-6.727 9.973-12.645 16.03-17.906 1.734-1.652 4.04-2.414 6.41-2.566-.223 2.203-.516 4.418-1.324 6.504-6.867 19.09-13.547 38.26-20.227 57.42-2.144 7.254-4.828 14.555-4.535 22.23-.129 8.438 3.457 17.59 11.05 21.914 7.688 4.734 17.227 4.43 25.875 3.469 17.06-3.105 31.523-14.04 42.961-26.602 16.254-18.469 28.28-40.98 33.35-65.13 2.086-11.1 3.117-23.473-2.789-33.645-2.227-4.359-6.902-7.84-11.977-7.184-7.477 1.172-11.06 10.07-9.504 16.816"/><path d="m-60.51-69.51c-2.915-.04-5.834.365-8.594 1.063-3.586 1.102-4.242 5.102-5.438 8.125-4.805-4.01-10.938-6.402-17.219-6.25-18.09-1.055-35.574 6.422-50.09 16.688-20.414 14.355-35.26 35.941-42.781 59.62-3.867 12.973-5.438 27.766 1.031 40.19 3.492 7.418 10.789 13.285 19.16 13.719 12.34 1.078 23.805-5.199 33.25-12.5 16.277-13.12 29.05-29.973 40.44-47.37-1.805 8.461-4.215 16.785-6.219 25.19-1.922 8.32-5.02 16.598-4.219 25.281.012 4.535 3.606 8.656 8.094 9.313 6.258 1.031 12.254-1.809 17.469-4.938 10.07-6.41 18.625-15.07 25.09-25.09 2.707-4.137 5.598-8.387 6.5-13.344.504-3.293-2.957-6.648-6.25-5.594-3.563 2.02-4.977 6.121-7.344 9.25-4.828 6.656-10.11 13.148-16.812 18-.445-6.246 2-12.1 3.219-18.12 7.102-28.14 14.14-56.31 21.12-84.47.715-2.508 1.063-5.961-1.938-7.06-2.654-1.16-5.554-1.648-8.469-1.688m-33.876 13.249c2.55-.021 5.111.295 7.531 1.063 5.356 1.594 8.934 7.484 7.656 12.969-2.379 9.527-7.34 18.12-12.25 26.531-8.133 13.699-17.672 26.527-28.22 38.469-6.516 6.82-13.14 13.824-21.438 18.5-4.078 2.285-9.234 4.156-13.781 2.188-3.715-2.145-5.813-6.289-6.375-10.438-.773-6.094.141-12.266 1.875-18.12 6.01-20.801 17.15-40.26 32.719-55.37 7.219-6.41 15.188-12.586 24.75-14.906 2.449-.51 4.981-.854 7.531-.875"/></g><path fill="#cbe5c4" d="m0 0h-.574l.127.467h.712c.458 0 .723.235.773.675.043.369-.113.515-.488.515h-.098l-.271-.992h-.574l.056.203h-.741l-.237-.868h-.571l.581 2.127h.571l-.225-.821h.743l.222.821h.575v-.002c.286-.004.501-.022.646-.1.294-.157.431-.469.382-.895-.047-.407-.227-.711-.555-.925-.29-.187-.621-.204-1.053-.205" transform="matrix(72.5762 0 0-72.5762 121.93 63.772)"/><g fill="#fff"><path d="m-365.51-66.59c-3.39.025-6.767.287-10.09.656-38.31 6.563-69.52 42.45-70.19 81.41.258 11.871 3.551 24.15 11.438 33.28 7.945 9.738 20.543 15.352 33.09 15 15.539.34 30.31-6.941 41.906-16.844 5.988-4.98 11.258-10.82 15.406-17.406 1.711-2.531 2.328-6.824-.906-8.406-2.648-2.098-5.949.184-7.438 2.563-7.336 10.5-18.215 18.684-30.625 22.09-9.621 2.227-20.902.969-28.06-6.438-7.242-7.418-8.543-18.441-8.156-28.344 20.895-2.309 42.25-4.332 61.875-12.406 7.5-3.234 14.816-7.398 20.22-13.656 7.371-8.07 9.723-20.15 6.594-30.531-2.777-8.613-10.211-15.05-18.531-18.16-5.252-2.175-10.88-2.853-16.531-2.812m-3.751 10.405c.637-.009 1.264-.005 1.906.031 5.519-.457 11.633 2.891 12.875 8.563 1.746 8.262-.43 16.98-4.813 24.09-4.441 7.805-12.52 12.723-20.688 15.875-12.07 4.758-25 6.582-37.812 8.094 4.371-16.395 11.297-32.66 23.344-44.906 6.757-6.526 15.637-11.62 25.19-11.75"/><path d="m-352.49-116.37c-11.531 6.188-23.19 12.141-34.711 18.34-4.289 2.356-9.75 4.01-11.484 9.129.645 1.875 1.277 3.961 3.117 5.03 2.227 1.723 5.18.633 7.606-.023 15.68-4.863 31.24-10.125 46.863-15.176 3.902-1.394 8.344-3.02 10.441-6.879 2.742-4.43.902-11.02-3.926-13.148-5.894-3.199-12.48.141-17.906 2.731"/></g></g></g></svg>