<svg xmlns="http://www.w3.org/2000/svg" viewBox="0 0 410.82 150"><defs><clipPath id="0"><path d="m624 511h671v245h-671v-245"/></clipPath><clipPath><path d="m473.03 551.03c-1.67-1.813-4.121-2.709-7.937-2.941l-1.296-.063h-1.313l.222-.823h1.101c5.603.122 8.697 1.392 10.7 4.374l-.681.454-.796-1"/></clipPath><clipPath><path d="m0 0h595.28v841.89h-595.28v-841.89"/></clipPath><clipPath id="2"><path d="m1295 511c0 0 0 245 0 245 0 0-335.81 0-335.81 0 0 0 0-245 0-245 0 0 335.81 0 335.81 0"/></clipPath><clipPath id="1"><path d="m959.81 511c0 0 0 245 0 245 0 0-335.81 0-335.81 0 0 0 0-245 0-245 0 0 335.81 0 335.81 0"/></clipPath><clipPath><path d="m0 0h1920v1080h-1920v-1080"/></clipPath><clipPath><path d="m419.28 568.37l-.174-.822h8.254l.136.822h-8.216"/></clipPath><clipPath><path d="m425.54 532.68l-.137-.823h12.939v.823h-12.802"/></clipPath><clipPath><path d="m412.93 553.03l-.174-.822h15.458l.179.822h-15.463"/></clipPath><clipPath><path d="m463.26 571.01v-.823h5.396c4.106 0 7.02-.99 8.664-2.951 1.144-1.36 1.719-3.257 1.719-5.634h.823c0 2.577-.644 4.649-1.909 6.162-1.813 2.15-4.938 3.246-9.297 3.246h-5.396"/></clipPath><clipPath><path d="m464.19 532.68h-21.403v-.822h21.403c7.975 0 14.647 2.287 19.837 6.799l-.542.617c-5.03-4.38-11.526-6.594-19.295-6.594"/></clipPath><clipPath><path d="m431.43 586.36v-.823h41.467c8.243 0 14.747-2.561 18.82-7.41 3.094-3.684 4.665-8.496 4.665-14.288h.822c0 5.992-1.639 10.978-4.86 14.82-4.226 5.03-10.956 7.701-19.447 7.701h-41.467"/></clipPath><radialGradient cx="0" cy="0" r="1" id="3" gradientUnits="userSpaceOnUse" gradientTransform="matrix(329.5729 0 0-329.8277 1003.98 652.12)"><stop stop-color="#970d0d"/><stop offset="1" stop-color="#440c11"/></radialGradient><radialGradient cx="0" cy="0" r="1" id="4" gradientUnits="userSpaceOnUse" gradientTransform="matrix(343.7857 0 0-344.0515 656.78 757.3)"><stop stop-color="#2962f2"/><stop offset="1" stop-color="#0d1950"/></radialGradient></defs><g transform="translate(-309.7-340.49)"><g clip-path="url(#1)" transform="matrix(.61225 0 0-.61225-72.35 803.34)"><path d="m624 511h671v245h-671v-245" fill="url(#4)"/></g><g clip-path="url(#2)" transform="matrix(.61225 0 0-.61225-72.35 803.34)"><path d="m624 511h671v245h-671v-245" fill="url(#3)"/></g><g clip-path="url(#0)" transform="matrix(.61225 0 0-.61225-72.35 803.34)" fill="#fff"><path d="m676.64 718.94c0 0 0-58.999 0-58.999 0 0 39.1 0 39.1 0 0 0 0-111.88 0-111.88 0 0 74.838 0 74.838 0 0 0 0 111.88 0 111.88 0 0 39.1 0 39.1 0 0 0 0 58.999 0 58.999 0 0-153.04 0-153.04 0"/><path d="m922.08 718.94c0 0 0-170.88 0-170.88 0 0 74.839 0 74.839 0 0 0 0 53.801 0 53.801 0 0 45.971 0 45.971 0 0 0 0 42.798 0 42.798 0 0-45.971 0-45.971 0 0 0 0 31.488 0 31.488 0 0 64.3 0 64.3 0 0 0 0 42.796 0 42.796 0 0-139.14 0-139.14 0"/><path d="m1227.39 719.82c0 0 0-171.76 0-171.76 0 0-77.59 0-77.59 0 0 0 0 149.75 0 149.75 0 0 77.59 22.01 77.59 22.01"/></g></g></svg>