<svg xmlns="http://www.w3.org/2000/svg" xmlns:xlink="http://www.w3.org/1999/xlink" viewBox="0 0 681.02 150"><defs><clipPath><path d="m431.43 586.36v-.823h41.467c8.243 0 14.747-2.561 18.82-7.41 3.094-3.684 4.665-8.496 4.665-14.288h.822c0 5.992-1.639 10.978-4.86 14.82-4.226 5.03-10.956 7.701-19.447 7.701h-41.467"/></clipPath><clipPath><path d="m464.19 532.68h-21.403v-.822h21.403c7.975 0 14.647 2.287 19.837 6.799l-.542.617c-5.03-4.38-11.526-6.594-19.295-6.594"/></clipPath><clipPath id="1"><path d="m959.81 511c0 0 0 245 0 245 0 0-335.81 0-335.81 0 0 0 0-245 0-245 0 0 335.81 0 335.81 0"/></clipPath><clipPath><path d="m0 0h1920v1080h-1920v-1080"/></clipPath><clipPath><path d="m425.54 532.68l-.137-.823h12.939v.823h-12.802"/></clipPath><clipPath id="2"><path d="m624 511h671v245h-671v-245"/></clipPath><clipPath><path d="m0 0h595.28v841.89h-595.28v-841.89"/></clipPath><clipPath><path d="m473.03 551.03c-1.67-1.813-4.121-2.709-7.937-2.941l-1.296-.063h-1.313l.222-.823h1.101c5.603.122 8.697 1.392 10.7 4.374l-.681.454-.796-1"/></clipPath><clipPath><path d="m463.26 571.01v-.823h5.396c4.106 0 7.02-.99 8.664-2.951 1.144-1.36 1.719-3.257 1.719-5.634h.823c0 2.577-.644 4.649-1.909 6.162-1.813 2.15-4.938 3.246-9.297 3.246h-5.396"/></clipPath><clipPath><path d="m412.93 553.03l-.174-.822h15.458l.179.822h-15.463"/></clipPath><clipPath id="0"><path d="m1295 511c0 0 0 245 0 245 0 0-335.81 0-335.81 0 0 0 0-245 0-245 0 0 335.81 0 335.81 0"/></clipPath><clipPath><path d="m419.28 568.37l-.174-.822h8.254l.136.822h-8.216"/></clipPath><linearGradient x1="775.17" x2="811.91" id="G" xlink:href="#H" gradientUnits="userSpaceOnUse"/><linearGradient x1="789.33" x2="810.74" id="F" xlink:href="#H" gradientUnits="userSpaceOnUse"/><linearGradient x1="729.58" x2="757.99" id="E" xlink:href="#S" gradientUnits="userSpaceOnUse"/><linearGradient x1="1580.55" x2="1863.12" id="D" gradientUnits="userSpaceOnUse"><stop stop-color="#d2d1d2"/><stop offset=".143" stop-color="#dcdcdc"/><stop offset=".456" stop-color="#f6f5f5"/><stop offset=".756" stop-color="#e5e5e5"/><stop offset=".938" stop-color="#c6c5c5"/><stop offset="1" stop-color="#949292"/></linearGradient><linearGradient id="H"><stop stop-color="#d2d1d2"/><stop offset=".5" stop-color="#fbfbfb"/><stop offset="1" stop-color="#d2d1d2"/></linearGradient><linearGradient x1="809.89" x2="838.31" id="I" xlink:href="#P" gradientUnits="userSpaceOnUse"/><linearGradient x1="814.43" x2="1527.57" id="L" gradientUnits="userSpaceOnUse"><stop stop-color="#484546"/><stop offset=".202" stop-color="#d5d4d5"/><stop offset=".871" stop-color="#8d8b8b"/><stop offset="1" stop-color="#8d8b8b"/></linearGradient><linearGradient x1="0" x2="1" id="J" gradientUnits="userSpaceOnUse" gradientTransform="matrix(451.1223 0 0-451.1222 1368.1-559.72)" xlink:href="#6"/><linearGradient x1="1629.33" x2="1805.85" id="K" gradientUnits="userSpaceOnUse"><stop stop-color="#cbcacb"/><stop offset=".5" stop-color="#fcfbfc"/><stop offset="1" stop-color="#a8a6a7"/></linearGradient><linearGradient x1="1590.19" x2="1848.04" id="A" gradientUnits="userSpaceOnUse" xlink:href="#6"/><linearGradient x1="1356.38" x2="1629.52" id="6" gradientUnits="userSpaceOnUse"><stop stop-color="#bbbaba"/><stop offset=".118" stop-color="#514e4f"/><stop offset=".298" stop-color="#8a8889"/><stop offset=".444" stop-color="#676465"/><stop offset=".567" stop-color="#959394"/><stop offset=".691" stop-color="#f2f2f2"/><stop offset=".798" stop-color="#bdbcbc"/><stop offset=".91" stop-color="#727070"/><stop offset="1" stop-color="#bfbebe"/></linearGradient><linearGradient x1="0" x2="1" id="5" gradientUnits="userSpaceOnUse" gradientTransform="matrix(451.118 0 0-451.1179 1368.28-597.98)" xlink:href="#6"/><linearGradient x1="845.78" x2="997.18" id="C" xlink:href="#M" gradientUnits="userSpaceOnUse" gradientTransform="matrix(.48975 0 0 .4898 307.3 338.06)"/><linearGradient x1="1724.86" x2="1788.69" id="4" xlink:href="#O" gradientUnits="userSpaceOnUse"/><linearGradient x1="1368.29" x2="1819.36" id="3" gradientUnits="userSpaceOnUse" xlink:href="#6"/><linearGradient x1="1657.18" x2="1821.63" id="B" gradientUnits="userSpaceOnUse" xlink:href="#6"/><linearGradient x1="1519.18" x2="1879.24" id="7" gradientUnits="userSpaceOnUse" xlink:href="#6"/><linearGradient x1="1715.6" y1="195.8" x2="1762.6" y2="212.7" id="9" xlink:href="#N" gradientUnits="userSpaceOnUse"/><linearGradient x1="1348.87" x2="1649.01" id="8" gradientUnits="userSpaceOnUse" xlink:href="#6"/><radialGradient cx="0" cy="0" r="1" id="Q" gradientUnits="userSpaceOnUse" gradientTransform="matrix(329.5729 0 0-329.8277 1003.98 652.12)"><stop stop-color="#970d0d"/><stop offset="1" stop-color="#440c11"/></radialGradient><radialGradient cx="0" cy="0" r="1" id="R" gradientUnits="userSpaceOnUse" gradientTransform="matrix(343.7857 0 0-344.0515 656.78 757.3)"><stop stop-color="#2962f2"/><stop offset="1" stop-color="#0d1950"/></radialGradient><radialGradient cx="0" cy="0" r="1" id="P" gradientUnits="userSpaceOnUse" gradientTransform="matrix(329.5729 0 0-329.8277 1003.98 652.12)"><stop stop-color="#d3d2d2"/><stop offset=".4" stop-color="#fcfbfc"/><stop offset="1" stop-color="#cecdcd"/></radialGradient><radialGradient cx="0" cy="0" r="1" id="O" gradientUnits="userSpaceOnUse" gradientTransform="matrix(329.5729 0 0-329.8277 1003.98 652.12)"><stop stop-color="#bdbbbc"/><stop offset=".5" stop-color="#fcfbfc"/><stop offset="1" stop-color="#acabab"/></radialGradient><radialGradient cx="0" cy="0" r="1" id="N" gradientUnits="userSpaceOnUse" gradientTransform="matrix(329.5729 0 0-329.8277 1003.98 652.12)"><stop stop-color="#bdbbbc"/><stop offset=".5" stop-color="#fcfbfc"/><stop offset="1" stop-color="#b2b1b1"/></radialGradient><radialGradient cx="0" cy="0" r="1" id="M" gradientUnits="userSpaceOnUse" gradientTransform="matrix(79.1326 0 0-79.1326 322.26 561.83)"><stop stop-color="#7a7878"/><stop offset=".36" stop-color="#fbfbfb"/><stop offset=".69" stop-color="#fbfbfb"/><stop offset="1" stop-color="#d8d7d8"/></radialGradient><radialGradient cx="0" cy="0" r="1" id="S" gradientUnits="userSpaceOnUse" gradientTransform="matrix(329.5729 0 0-329.8277 1003.98 652.12)"><stop stop-color="#918f90"/><stop offset=".5" stop-color="#fcfbfc"/><stop offset="1" stop-color="#cecdcd"/></radialGradient></defs><g transform="translate(-309.7-340.49)"><g clip-path="url(#1)" transform="matrix(.61225 0 0-.61225-72.35 803.34)"><path d="m624 511h671v245h-671v-245" fill="url(#R)"/></g><g clip-path="url(#0)" transform="matrix(.61225 0 0-.61225-72.35 803.34)"><path d="m624 511h671v245h-671v-245" fill="url(#Q)"/></g><g clip-path="url(#2)" transform="matrix(.61225 0 0-.61225-72.35 803.34)" fill="#fff"><path d="m676.64 718.94c0 0 0-58.999 0-58.999 0 0 39.1 0 39.1 0 0 0 0-111.88 0-111.88 0 0 74.838 0 74.838 0 0 0 0 111.88 0 111.88 0 0 39.1 0 39.1 0 0 0 0 58.999 0 58.999 0 0-153.04 0-153.04 0"/><path d="m922.08 718.94c0 0 0-170.88 0-170.88 0 0 74.839 0 74.839 0 0 0 0 53.801 0 53.801 0 0 45.971 0 45.971 0 0 0 0 42.798 0 42.798 0 0-45.971 0-45.971 0 0 0 0 31.488 0 31.488 0 0 64.3 0 64.3 0 0 0 0 42.796 0 42.796 0 0-139.14 0-139.14 0"/><path d="m1227.39 719.82c0 0 0-171.76 0-171.76 0 0-77.59 0-77.59 0 0 0 0 149.75 0 149.75 0 0 77.59 22.01 77.59 22.01"/></g><g transform="matrix(.59401 0 0-.59401-118.08 556.96)"><path d="m843.75 5v302 4.25h106.91c0 0 14.259-80.85 18.688-106h40.19c.434-2.122-14.672 83.25-17.937 101.75l2.125 4.25h227.53c90.7 0 154.65-55.4 171-148.22 6.466-36.624 2.895-68.6-10.156-93.97-.032-.062-.062-.126-.094-.188-3.865-8.358-8.712-16.04-14.531-22.969-22.44-26.771-58.04-40.906-102.97-40.906h-219.66c0 0-12.329 69.969-16.5 93.75h-40.19c5.138-29.27 15.75-89.5 15.75-89.5l-2.156-4.25zm286.84 22.281h.031l-45.41 257.44h-64.19l17.938-101.75-2.156-4.25h-88.28l-18.719 106h-64.16l44.625-253.16h64.19l-15.781 89.47 2.125 4.281h88.34l16.5-93.75h64.19zm25.375 4.281h110.69c46.39 0 78.884 16.587 94.97 46.41 9.526 20.337 11.991 46.29 6.594 76.938-14.886 84.36-70.853 129.81-149.06 129.81h-107.81zm54.75 53.41l-25.06 142.06 2.156 4.25h31.719c51.03-1.089 74.73-20.896 83.81-72.47 3.433-19.518 1.763-34.834-4.688-46.09-8.03-18.617-27.2-27.75-56.22-27.75zm18.687 22.281c-3.876 22.01-12.01 68.21-17.16 97.5h-.031c5.156-29.3 13.319-75.48 17.19-97.5m2.125 4.25h13.03c11.333 0 26.25 1.71 33 9.75.396.469.761.989 1.094 1.5 1.463 3.961 2.031 8.594 2.031 13.313 0 5.03-.64 10.149-1.438 14.625-7.138 40.532-21.692 53.18-62.22 54.06h-1.937c5.184-29.335 12.749-72.29 16.437-93.25" transform="matrix(.82456 0 0-.82456 716.03 368.54)" fill="url(#L)"/><path d="m1580.55 362.62v-3.523l185.94-.255c28.04-.038 93.09-16.556 93.09-92.96h3.534c0 72.12-56.06 96.75-96.72 96.75z" fill="url(#D)"/><path d="m1762.68 215.18c-5.03-7.563-14.963-13.05-22.333-14.789-6.919-1.63-16.753-2.671-26.397-2.429l.958-3.538c9.212 0 18.423.45 27.17 2.683 8.276 2.113 17.728 7.179 23.541 16.11" fill="url(#9)"/><path d="m1717.29 296.7v-3.527c13.236 0 24.335.449 33.902-.594 22.12-2.412 33.902-14.943 33.902-36.28h3.533c0 17.748-7.855 36.36-35.669 39.576-9.486 1.097-35.668.827-35.668.827" fill="url(#4)"/><path d="m1498.14 115.4h-86.39v-3.502h88.14l-1.753 3.502" fill="#5e5b5c"/><path d="m1499.89 111.9c0 0 11.755 66.67 15.407 87.4l-1.753 3.506c-3.656-20.73-15.407-87.41-15.407-87.41l1.753-3.502" fill="#656263"/><path d="m1513.55 202.81l1.753-3.506h33.15c.21 1.224.421 2.415.619 3.506h-35.526" fill="url(#6)"/><path d="m1862.59 239.51c-.017-.073-.026-.146-.039-.219-.094-.563-.189-1.13-.288-1.697-13.473-76.49-66.19-122.19-140.98-122.19h-187.63l1.744-3.506h187.63c74.79 0 127.52 45.67 141 122.21 5.345 30.27 2.376 56.699-8.451 77.64 9.19-19.896 11.622-44.43 7.01-72.24" fill="url(#7)"/><path d="m1543.8 360.91l-1.766 3.51c-2.195-12.429-10.281-58.28-13.607-77.3h2.376c4.236 24.14 12.996 73.79 12.996 73.79" fill="#7b7979"/><path d="m1506.53 268.75l1.749-3.523h72.836l-1.753 3.523h-72.832" fill="url(#8)"/><path d="m1729.75 280.11l1.749-3.51h10.745c9.345 0 21.645-1.401 27.21-8.03.326-.387.623-.821.898-1.242-.645 1.762-1.508 3.386-2.647 4.76-5.568 6.625-17.877 8.02-27.21 8.02h-10.745" fill="url(#B)"/><path d="m1729.75 280.11c-3.197-18.15-9.92-56.24-14.165-80.39h2.363c4.275 24.19 10.513 59.6 13.555 76.879l-1.753 3.514" fill="#656263"/><path d="m1786.84 275.6c0 .004 0 .004 0 .009 0-.004 0-.004 0-.009m2.341-33.08c-.001-.069-.021-.133-.034-.193-.064-.408-.133-.816-.202-1.229-7.497-42.499-27.04-58.851-69.12-59.754h-26.15l1.77-3.506h26.15c42.07.898 61.62 17.228 69.11 59.754 2.831 16.09 1.452 28.725-3.867 38.01 3.695-8.576 4.537-19.583 2.341-33.08" fill="url(#A)"/><path d="m1667.43 346.04l1.753-3.523h91.28c38.25 0 65.05-13.675 78.31-38.26-12.554 26.801-40.04 41.786-80.08 41.786h-91.26" fill="url(#5)"/><g fill="#656263"><path d="m1667.44 346.05l-37.43-212.28h2.376l36.794 208.75-1.74 3.532"/><path d="m1557.94 133.77l14.788 83.89-1.77 3.51-15.398-87.4h2.38"/><path d="m1592.98 346.04l-13.624-77.3 1.753-3.523 13.619 77.3-1.749 3.519"/></g><path d="m1592.98 346.04l1.749-3.523h52.922l.623 3.523h-55.29" fill="url(#3)"/><path d="m1464.87 346.05l-37.43-212.28h2.38l36.794 208.75-1.744 3.532" fill="#656263"/><path d="m1464.86 346.04l1.749-3.523h52.918l.627 3.523h-55.29" fill="url(#J)"/><path d="m1629.33 132.02v-3.543h85.75c42.991 0 66.27 8.357 91.42 29.23l-2.316 2.664c-18.823-16.15-43.794-28.347-85.39-28.347z" fill="url(#K)"/></g><path d="m721.55 342.58h73.87" fill="none" stroke="url(#C)" stroke-width="2.106"/><path d="m789.77 387.45h20.969l-.352 2.097h-21.06z" fill="url(#F)"/><path d="m773.57 426.61h39.485l-.455 2.097h-39.474z" fill="url(#G)"/><path d="m729.69 478.53h32.842l-.378 2.097h-32.908z" fill="url(#E)"/><path d="m805.75 478.53h32.659v2.097h-33z" fill="url(#I)"/></g></svg>