<svg xmlns="http://www.w3.org/2000/svg" viewBox="0 0 600 219.64"><defs><filter id="0" height="1" width="1" color-interpolation-filters="sRGB" y="0" x="0"><feColorMatrix values="1" type="saturate" result="fbSourceGraphic"/><feColorMatrix values="-1 0 0 0 1 0 -1 0 0 1 0 0 -1 0 1 0 0 0 1 0 " in="fbSourceGraphic"/></filter><filter id="1" height="1" width="1" color-interpolation-filters="sRGB" y="0" x="0"><feColorMatrix values="1" type="saturate" result="fbSourceGraphic"/><feColorMatrix values="-1 0 0 0 1 0 -1 0 0 1 0 0 -1 0 1 0 0 0 1 0 " in="fbSourceGraphic"/></filter><linearGradient id="2" gradientUnits="userSpaceOnUse" x1="113.27" x2="123.81" y1="388.82" y2="475.11"><stop stop-color="#fff"/><stop stop-color="#b8bab8" offset=".913"/><stop stop-color="#b8bab8" offset="1"/></linearGradient><radialGradient id="3" gradientUnits="userSpaceOnUse" cy="0" cx="0" gradientTransform="matrix(-.00001 323.0739-581.9203-.00003 172.57 132.24)" r="1"><stop stop-color="#28292b"/><stop stop-color="#040606" offset="1"/></radialGradient></defs><g transform="translate(182.39-316.13)"><path d="m197.21 535.76h220.41v-219.64h-220.41v219.64m-379.59 0h363.67v-219.64h-363.67v219.64" filter="url(#1)" fill="url(#3)"/><path d="m233.01 450.62c0 3.974.183 9.06.805 13.666h88.26v49.25l33.476-10.362v-38.888h25.588v-29.01h-25.588v-90.5c-4.779-.792-11.12-.792-15.1-.792-59.42 0-107.44 43.533-107.44 106.64m89.06-73.851v58.5h-54.651c3.548-29.721 26.307-53.09 54.651-58.5m-337.02 49.18c0 47.751 35.487 82.76 83.24 82.76 44.02 0 81.17-32.634 81.17-81.97v-9.545h-73.61l-13.8 27.868h50.713c-5.949 18.944-21.419 31.866-43.947 31.866-28.538 0-48.775-21.02-48.775-50.26 0-29.501 19.286-50.884 46.556-50.884 16.384 0 28.21 8.314 34.621 17.542h41.875c-15.92-33.44-46.16-49.36-76.41-49.36-44.557 0-81.64 32.634-81.64 81.97m-135.61-79.58v29h53.26v133.34h33.39v-133.34h43.923l14.263-29h-144.84z" filter="url(#0)" fill="url(#2)"/></g></svg>