<svg xmlns="http://www.w3.org/2000/svg" height="183.89" width="562.5" viewBox="0 0 158.75 51.897591"><g transform="translate(7.559-166.73)"><g fill="#fff"><path d="m57.934 207.8c-.09-.6-.559-2.44-2.673-2.44-2.397 0-3.165 2.33-3.165 4.56 0 2.24.768 4.56 3.165 4.56 1.722 0 2.394-1.21 2.697-2.77h5.02c0 3.35-2.718 6.92-7.579 6.92-5.383 0-8.425-3.8-8.425-8.71 0-5.23 3.302-8.7 8.425-8.7 4.556.03 7.07 2.42 7.516 6.58z"/><path d="m63.07 201.62h5.121v5.77h4.793v-5.77h5.119v16.61h-5.119v-6.59h-4.793v6.59h-5.121z"/><path d="m87.42 212.29l-1.492-5.11h-.043l-1.606 5.11zm-4.02-10.67h4.996l6.05 16.61h-5.304l-.698-2.37h-5.283l-.744 2.37h-5.145z"/><path d="m93.76 201.62h5.238l4.835 8.88h.04v-8.88h4.85v16.61h-4.99l-5.087-9.08h-.052v9.08h-4.834z"/><path d="m109.11 201.62h5.24l4.84 8.88h.04v-8.88h4.84v16.61h-4.98l-5.1-9.08h-.04v9.08h-4.84z"/><path d="m124.39 201.62h13.76v4.25h-8.64v2.07h7.85v3.96h-7.85v2.07h8.89v4.26h-14.01z"/><path d="m138.72 201.62h5.11v12.35h7.36v4.26h-12.47z"/><path d="m51.849 170.99h-4.662v-4.26h14.437v4.26h-4.658v12.36h-5.117z"/><path d="m62 166.73h5.119v5.77h4.79v-5.77h5.125v16.62h-5.125v-6.59h-4.79v6.59h-5.119z"/><path d="m77.41 166.73h13.755v4.26h-8.63v2.07h7.839v3.96h-7.839v2.07h8.894v4.26h-14.02z"/></g><g fill="#fdc300"><path d="m5.86 215.51l-1.19 3.12 27.317-.001-5.115-13.65z"/><path d="m18.652 179.96h-.164l-6.705 19.07 11.11-5.95z"/><path d="m-7.559 166.73l.033 44.57 17.789-44.57z"/><path d="m26.96 166.73l17.765 44.52.05-44.52z"/><path d="m54.703 194.85l1.606-5.11h.043l1.493 5.11zm9.476 4.03l-5.361-14.71h-4.994l-6.129 16.62h5.144l.754-2.38h5.274l.699 2.38h9.732v-6.33h6.63v-3.96h-6.63v-2.07h7.728v-4.26h-12.847zm54.18-4.03l1.61-5.11h.04l1.5 5.11zm-33.12-3.41h-2.681v-3.31h2.403c1.952 0 2.534.6 2.534 1.65 0 1.49-1.301 1.66-2.256 1.66m37.24-7.27h-5l-3.72 10.1h-5.02c-.31 1.56-.98 2.77-2.7 2.77-2.39 0-3.17-2.33-3.17-4.56 0-2.24.78-4.56 3.17-4.56 2.12 0 2.59 1.84 2.68 2.44h4.97c-.43-4.16-2.95-6.56-7.51-6.58-4.07 0-6.992 2.2-8.02 5.73v-5.34l-5.111 2.54v13.9c-.383-.86-.412-2.62-.477-3.39-.189-2.06-1.051-3.6-2.448-4.13 1.704-.63 2.493-2.45 2.493-4.17 0-3.14-2.512-4.75-5.426-4.75h-9.747v16.62h5.115v-5.79h2.727c2.025 0 2.159 1.65 2.3 3.23.07.86.164 1.72.424 2.56h5.113v-.001h5.04v-5.37c.999 3.41 3.78 5.77 8.02 5.77 2.69 0 4.72-1.09 6.01-2.64l-.83 2.25h5.14l.74-2.38h5.29l.69 2.38h5.31z"/></g></g></svg>