<?xml version="1.0" encoding="UTF-8" standalone="no"?>
<svg xmlns:rdf="http://www.w3.org/1999/02/22-rdf-syntax-ns#" xmlns="http://www.w3.org/2000/svg" height="364.98" width="600" version="1.1" xmlns:cc="http://creativecommons.org/ns#" xmlns:dc="http://purl.org/dc/elements/1.1/" viewBox="0 0 158.75 96.568075">
 <g transform="translate(-15.119 -119.45)" fill="#d641af">
  <path d="m46.982 172.57v-20.77h5.418l7.452 12.89-0.199-12.89h4.988v20.77h-5.383l-7.253-12.12-0.066 12.12z"/>
  <path d="m73.29 172.57 0.027-16.02h-6.115l-0.025-4.75h17.69l0.026 4.75h-6.342l-0.026 16.02z"/>
  <path d="m33.063 172.57 0.026-16.02h-6.115l-0.025-4.75h17.689l0.026 4.75h-6.342l-0.024 16.02z"/>
  <path d="m15.119 160.32c0.002-22.58 18.259-40.87 40.783-40.87 22.525 0 40.78 18.29 40.783 40.87-0.003 22.57-18.258 40.86-40.783 40.87-22.524-0.01-40.781-18.3-40.783-40.87m6.121 0c0.001 9.6 3.873 18.26 10.152 24.56 6.281 6.29 14.929 10.17 24.51 10.18 9.581-0.01 18.227-3.89 24.51-10.18 6.279-6.3 10.151-14.96 10.153-24.56-0.002-9.6-3.874-18.27-10.153-24.57-6.283-6.29-14.929-10.17-24.51-10.17s-18.229 3.88-24.51 10.17c-6.279 6.3-10.151 14.97-10.152 24.57"/>
  <path d="m42.837 214.53c-0.831 1.08-1.919 1.49-2.962 1.49-3.338 0-5.303-2.5-5.303-5.62 0-3.21 1.965-5.71 5.303-5.71 2.207 0 4.292 1.36 4.549 3.81h-2.267c-0.272-1.19-1.163-1.81-2.282-1.81-2.13 0-2.931 1.81-2.931 3.71 0 1.8 0.801 3.62 2.931 3.62 1.541 0 2.433-0.83 2.57-2.33h-2.388v-1.78h4.533v5.85h-1.511z"/>
  <path d="m46.206 204.95h2.372v8.81h5.258v2h-7.63z"/>
  <path d="m54.863 204.95h2.373v10.81h-2.373z"/>
  <path d="m61.707 206.95h-3.233v-2h8.84v2h-3.234v8.81h-2.373z"/>
  <path d="m67.856 213.88 5.788-6.93h-5.334v-2h8.492v1.88l-5.787 6.93h5.938v2h-9.097z"/>
  <path d="m105.51 144.96h9.6v13h12.33v-13h9.6v34.73h-9.6v-13.2h-12.33v13.2h-9.6z"/>
  <path d="m140.95 144.96h13.37c12.37 0 19.55 7.14 19.55 17.16v0.1c0 10.02-7.28 17.47-19.75 17.47h-13.17zm13.51 26.19c5.75 0 9.56-3.17 9.56-8.78v-0.1c0-5.55-3.81-8.78-9.56-8.78h-3.91v17.66z"/>
 </g>
</svg>
