<svg xmlns="http://www.w3.org/2000/svg" height="710.36" width="600" viewBox="0 0 158.75 187.94922"><g transform="translate(23.473-73.76)" fill="#d641af"><path d="m38.54 177.16v-40.43h10.546l14.504 25.09-.387-25.09h9.708v40.43h-10.478l-14.12-23.6-.129 23.6z"/><path d="m89.75 177.16l.052-31.19h-11.901l-.05-9.24h34.434l.05 9.24h-12.346l-.05 31.19z"/><path d="m11.45 177.16l.052-31.19h-11.903l-.047-9.24h34.427l.052 9.24h-12.344l-.048 31.19z"/><path d="m-23.473 153.3c.004-43.93 35.536-79.54 79.37-79.54 43.841.002 79.37 35.612 79.38 79.54-.001 43.94-35.537 79.54-79.38 79.55-43.839-.001-79.37-35.61-79.37-79.55m11.912 0c.003 18.69 7.539 35.55 19.759 47.81 12.226 12.24 29.06 19.8 47.704 19.8s35.475-7.56 47.708-19.8c12.22-12.26 19.75-29.12 19.76-47.81-.001-18.69-7.54-35.55-19.76-47.81-12.233-12.241-29.06-19.795-47.708-19.795s-35.478 7.554-47.704 19.795c-12.22 12.26-19.756 29.12-19.759 47.81"/><path d="m30.474 258.82c-1.617 2.09-3.734 2.89-5.765 2.89-6.497 0-10.322-4.86-10.322-10.94 0-6.24 3.825-11.11 10.322-11.11 4.295 0 8.354 2.65 8.854 7.43h-4.413c-.528-2.33-2.263-3.54-4.441-3.54-4.146 0-5.704 3.54-5.704 7.22 0 3.51 1.558 7.05 5.704 7.05 3 0 4.735-1.62 5-4.54h-4.647v-3.45h8.822v11.38h-2.942z"/><path d="m37.03 240.16h4.618v17.16h10.234v3.89h-14.852z"/><path d="m53.881 240.16h4.617v21.05h-4.617z"/><path d="m67.2 244.05h-6.294v-3.89h17.206v3.89h-6.294v17.16h-4.618z"/><path d="m79.17 257.55l11.264-13.5h-10.381v-3.89h16.528v3.66l-11.264 13.5h11.557v3.89h-17.704z"/></g></svg>