<svg xmlns="http://www.w3.org/2000/svg" height="599.84" width="600" viewBox="0 0 158.75 158.70668"><g transform="translate(-46.12-70.992)" fill="#2d7bc8"><path d="m46.12 150.33c0 43.77 35.645 79.37 79.4 79.37 43.75 0 79.35-35.6 79.35-79.37 0-43.75-35.6-79.34-79.35-79.34-43.758 0-79.4 35.588-79.4 79.34m12.727 0c0-36.75 29.904-66.67 66.68-66.67 36.76 0 66.67 29.916 66.67 66.67 0 36.77-29.91 66.69-66.67 66.69-36.772 0-66.68-29.92-66.68-66.69"/><path d="m103.9 143.2h-11.894v30.94h-10.376v-30.94h-11.903v-8.92h34.17z"/><path d="m108.37 134.28h10.66l13.85 24.55h.11v-24.55h9.78v39.86h-10.68l-13.84-24.85h-.11v24.85h-9.77z"/><path d="m181.45 143.2h-11.88v30.94h-10.39v-30.94h-11.88v-8.92h34.15z"/></g></svg>