<?xml version="1.0" encoding="UTF-8" standalone="no"?>
<svg
   xmlns:dc="http://purl.org/dc/elements/1.1/"
   xmlns:cc="http://creativecommons.org/ns#"
   xmlns:rdf="http://www.w3.org/1999/02/22-rdf-syntax-ns#"
   xmlns:svg="http://www.w3.org/2000/svg"
   xmlns="http://www.w3.org/2000/svg"
   id="svg209627"
   height="277.50052"
   width="600"
   version="1.1">
  <defs
     id="defs209629">
    <clipPath
       id="clipPath4287">
      <path
         id="path4289"
         d="m 300.945,593.833 -40.63,0 0,-18.77 40.63,0 0,18.77 z" />
    </clipPath>
    <clipPath
       id="clipPath4293">
      <path
         id="path4295"
         d="m 260.315,593.833 40.678,0 0,-18.802 -40.678,0 0,18.802" />
    </clipPath>
    <clipPath
       id="clipPath4299">
      <path
         id="path4301"
         d="m 250.448,597.261 c 0,0 -4.252,0 -4.252,-4.252 l 0,-17.122 c 0,0 0,-4.252 4.252,-4.252 l 60.363,0 c 0,0 4.252,0 4.252,4.252 l 0,17.122 c 0,0 0,4.252 -4.252,4.252 l -60.363,0" />
    </clipPath>
    <clipPath
       id="clipPath4305">
      <path
         id="path4307"
         d="m 1142.36,745.512 -1150.864,0 0,-754.016 1150.864,0 0,754.016 z" />
    </clipPath>
    <clipPath
       id="clipPath4311">
      <path
         id="path4313"
         d="m 0.015015,737.01 1133.849985,0 0,-737.01 -1133.849985,0 0,737.01 z" />
    </clipPath>
  </defs>
  <metadata
     id="metadata209632">
    <rdf:RDF>
      <cc:Work
         rdf:about="">
        <dc:format>image/svg+xml</dc:format>
        <dc:type
           rdf:resource="http://purl.org/dc/dcmitype/StillImage" />
        <dc:title></dc:title>
      </cc:Work>
    </rdf:RDF>
  </metadata>
  <g
     id="g4249"
     transform="matrix(14.784257,0,0,-14.784257,108.39815,180.35314)">
    <path
       style="fill:#b6111c;fill-opacity:1;fill-rule:nonzero;stroke:none"
       id="path4251"
       d="m 0,0 0,4.77 1.247,0 1.715,-2.96 -0.046,2.96 1.148,0 L 4.064,0 2.825,0 1.156,2.784 1.141,0 0,0" />
  </g>
  <g
     id="g4253"
     transform="matrix(14.784257,0,0,-14.784257,197.91683,180.35314)">
    <path
       style="fill:#b6111c;fill-opacity:1;fill-rule:nonzero;stroke:none"
       id="path4255"
       d="m 0,0 0.006,3.679 -1.407,0 -0.006,1.091 4.071,0 0.006,-1.091 -1.459,0 L 1.205,0 0,0" />
  </g>
  <g
     id="g4257"
     transform="matrix(14.784257,0,0,-14.784257,61.044175,180.35314)">
    <path
       style="fill:#b6111c;fill-opacity:1;fill-rule:nonzero;stroke:none"
       id="path4259"
       d="m 0,0 0.006,3.679 -1.407,0 -0.006,1.091 4.071,0 0.006,-1.091 -1.459,0 L 1.205,0 0,0" />
  </g>
  <g
     id="g4261"
     transform="matrix(14.784257,0,0,-14.784257,20.81621,138.75024)">
    <path
       style="fill:#b6111c;fill-opacity:1;fill-rule:nonzero;stroke:none"
       id="path4263"
       d="m 0,0 c 0,-2.205 0.892,-4.195 2.336,-5.641 1.446,-1.444 3.436,-2.335 5.641,-2.336 2.205,0.001 4.194,0.892 5.64,2.336 1.445,1.446 2.336,3.436 2.337,5.641 C 15.953,2.205 15.062,4.195 13.617,5.64 12.171,7.085 10.182,7.976 7.977,7.977 5.772,7.976 3.782,7.085 2.336,5.64 0.892,4.195 0,2.205 0,0 Z m -1.408,0 c 0,5.183 4.201,9.385 9.385,9.385 5.183,0 9.384,-4.202 9.385,-9.385 -10e-4,-5.184 -4.202,-9.385 -9.385,-9.385 -5.184,0 -9.385,4.201 -9.385,9.385" />
  </g>
  <g
     id="g4265"
     transform="matrix(14.784257,0,0,-14.784257,311.0164,163.80956)">
    <path
       style="fill:#b6111c;fill-opacity:1;fill-rule:nonzero;stroke:none"
       id="path4267"
       d="m 0,0 c 0.058,-0.111 0.134,-0.201 0.23,-0.27 0.096,-0.069 0.208,-0.12 0.337,-0.154 0.129,-0.033 0.263,-0.05 0.401,-0.05 0.093,0 0.194,0.008 0.3,0.023 0.107,0.016 0.207,0.046 0.301,0.09 0.093,0.045 0.171,0.106 0.233,0.184 C 1.865,-0.099 1.896,0 1.896,0.12 1.896,0.249 1.855,0.354 1.772,0.434 1.69,0.514 1.582,0.581 1.449,0.634 1.315,0.688 1.163,0.734 0.995,0.774 0.825,0.814 0.654,0.859 0.481,0.908 0.302,0.952 0.129,1.007 -0.04,1.071 -0.209,1.136 -0.36,1.219 -0.494,1.322 -0.628,1.424 -0.736,1.552 -0.818,1.706 -0.9,1.859 -0.941,2.045 -0.941,2.263 c 0,0.245 0.052,0.457 0.157,0.638 0.104,0.18 0.241,0.33 0.41,0.45 0.169,0.12 0.36,0.209 0.574,0.267 0.214,0.058 0.427,0.087 0.641,0.087 0.249,0 0.488,-0.028 0.718,-0.084 C 1.788,3.566 1.991,3.476 2.17,3.351 2.347,3.226 2.489,3.068 2.593,2.874 2.698,2.68 2.75,2.446 2.75,2.17 l -1.014,0 C 1.727,2.312 1.697,2.43 1.645,2.523 1.594,2.617 1.526,2.69 1.442,2.744 1.357,2.797 1.26,2.835 1.151,2.857 1.042,2.879 0.923,2.891 0.794,2.891 0.71,2.891 0.625,2.882 0.541,2.864 0.456,2.846 0.379,2.815 0.31,2.771 0.241,2.726 0.184,2.67 0.14,2.604 0.095,2.537 0.073,2.452 0.073,2.35 0.073,2.256 0.091,2.181 0.127,2.123 0.162,2.065 0.232,2.012 0.337,1.963 0.442,1.914 0.586,1.865 0.771,1.816 0.956,1.767 1.197,1.705 1.495,1.629 1.584,1.611 1.708,1.579 1.866,1.532 2.024,1.485 2.181,1.411 2.336,1.308 2.492,1.206 2.627,1.069 2.74,0.898 2.854,0.727 2.91,0.507 2.91,0.24 2.91,0.022 2.868,-0.18 2.784,-0.367 2.699,-0.554 2.573,-0.715 2.406,-0.851 2.24,-0.987 2.033,-1.093 1.786,-1.168 1.539,-1.244 1.253,-1.282 0.928,-1.282 c -0.263,0 -0.518,0.033 -0.765,0.097 -0.247,0.065 -0.465,0.166 -0.654,0.304 -0.189,0.138 -0.339,0.313 -0.45,0.527 -0.112,0.214 -0.165,0.468 -0.161,0.761 l 1.015,0 C -0.087,0.247 -0.058,0.111 0,0" />
  </g>
  <g
     id="g4269"
     transform="matrix(14.784257,0,0,-14.784257,415.92549,110.70451)">
    <path
       style="fill:#b6111c;fill-opacity:1;fill-rule:nonzero;stroke:none"
       id="path4271"
       d="m 0,0 0,-0.881 -2.517,0 0,-1.022 2.31,0 0,-0.814 -2.31,0 0,-1.168 2.57,0 0,-0.881 -3.618,0 0,4.766 L 0,0" />
  </g>
  <g
     id="g4273"
     transform="matrix(14.784257,0,0,-14.784257,459.64254,142.59415)">
    <path
       style="fill:#b6111c;fill-opacity:1;fill-rule:nonzero;stroke:none"
       id="path4275"
       d="m 0,0 c 0.24,0 0.421,0.053 0.541,0.16 0.12,0.107 0.18,0.281 0.18,0.521 0,0.231 -0.06,0.399 -0.18,0.504 C 0.421,1.289 0.24,1.342 0,1.342 l -1.148,0 L -1.148,0 0,0 Z M 0.374,2.156 C 0.588,2.156 0.78,2.122 0.951,2.053 1.123,1.984 1.27,1.889 1.392,1.769 1.514,1.649 1.608,1.51 1.672,1.352 1.737,1.194 1.769,1.023 1.769,0.841 1.769,0.561 1.71,0.318 1.592,0.113 1.474,-0.091 1.282,-0.247 1.015,-0.354 l 0,-0.013 c 0.129,-0.036 0.236,-0.09 0.32,-0.164 0.085,-0.073 0.154,-0.16 0.207,-0.26 0.054,-0.1 0.093,-0.21 0.117,-0.33 C 1.683,-1.242 1.7,-1.362 1.709,-1.482 1.714,-1.558 1.718,-1.647 1.723,-1.749 1.727,-1.851 1.735,-1.956 1.746,-2.063 1.757,-2.17 1.775,-2.271 1.799,-2.366 1.823,-2.462 1.86,-2.544 1.91,-2.61 l -1.049,0 c -0.057,0.151 -0.093,0.331 -0.107,0.541 -0.013,0.209 -0.033,0.409 -0.06,0.6 -0.035,0.25 -0.111,0.432 -0.227,0.548 -0.115,0.115 -0.304,0.173 -0.567,0.173 l -1.048,0 0,-1.862 -1.048,0 0,4.766 2.57,0" />
  </g>
  <path
     style="fill:#b6111c;fill-opacity:1;fill-rule:nonzero;stroke:none"
     id="path4277"
     d="m 498.43643,181.18106 15.49249,0 0,-70.46768 -15.49249,0 0,70.46768 z" />
  <g
     id="g4279"
     transform="matrix(14.784257,0,0,-14.784257,580.25251,110.70451)">
    <path
       style="fill:#b6111c;fill-opacity:1;fill-rule:nonzero;stroke:none"
       id="path4281"
       d="m 0,0 0,-0.881 -2.517,0 0,-1.022 2.31,0 0,-0.814 -2.31,0 0,-1.168 2.57,0 0,-0.881 -3.618,0 0,4.766 L 0,0" />
  </g>
</svg>
