<svg xmlns="http://www.w3.org/2000/svg" viewBox="0 0 600 277.5" xmlns:xlink="http://www.w3.org/1999/xlink"><defs><clipPath><path d="m300.94 593.83h-40.63v-18.77h40.63v18.77"/></clipPath><clipPath><path d="m260.31 593.83h40.678v-18.802h-40.678v18.802"/></clipPath><clipPath><path d="m250.45 597.26c0 0-4.252 0-4.252-4.252v-17.12c0 0 0-4.252 4.252-4.252h60.36c0 0 4.252 0 4.252 4.252v17.12c0 0 0 4.252-4.252 4.252h-60.36"/></clipPath><clipPath><path d="m1142.36 745.51h-1150.86v-754.02h1150.86v754.02"/></clipPath><clipPath><path d="m.015 737.01h1133.85v-737.01h-1133.85v737.01"/></clipPath></defs><path d="m0 0v4.77h1.247l1.715-2.96-.046 2.96h1.148v-4.77h-1.239l-1.669 2.784-.015-2.784h-1.141" fill="#b6111c" transform="matrix(14.78426 0 0-14.78426 108.4 180.35)"/><path d="m0 0l.006 3.679h-1.407l-.006 1.091h4.071l.006-1.091h-1.459l-.006-3.679h-1.205" fill="#b6111c" transform="matrix(14.78426 0 0-14.78426 197.92 180.35)" id="0"/><use transform="translate(-136.87)" xlink:href="#0"/><g fill="#b6111c"><path d="m0 0c0-2.205.892-4.195 2.336-5.641 1.446-1.444 3.436-2.335 5.641-2.336 2.205 0 4.194.892 5.64 2.336 1.445 1.446 2.336 3.436 2.337 5.641 0 2.205-.892 4.195-2.337 5.64-1.446 1.445-3.435 2.336-5.64 2.337-2.205 0-4.195-.892-5.641-2.337-1.444-1.445-2.336-3.435-2.336-5.64m-1.408 0c0 5.183 4.201 9.385 9.385 9.385 5.183 0 9.384-4.202 9.385-9.385 0-5.184-4.202-9.385-9.385-9.385-5.184 0-9.385 4.201-9.385 9.385" transform="matrix(14.78426 0 0-14.78426 20.816 138.75)"/><path d="m0 0c.058-.111.134-.201.23-.27.096-.069.208-.12.337-.154.129-.033.263-.05.401-.05.093 0 .194.008.3.023.107.016.207.046.301.09.093.045.171.106.233.184.063.078.094.177.094.297 0 .129-.041.234-.124.314-.082.08-.19.147-.323.2-.134.054-.286.1-.454.14-.17.04-.341.085-.514.134-.179.044-.352.099-.521.163-.169.065-.32.148-.454.251-.134.102-.242.23-.324.384-.082.153-.123.339-.123.557 0 .245.052.457.157.638.104.18.241.33.41.45.169.12.36.209.574.267.214.058.427.087.641.087.249 0 .488-.028.718-.084.229-.055.432-.145.611-.27.177-.125.319-.283.423-.477.105-.194.157-.428.157-.704h-1.014c-.009.142-.039.26-.091.353-.051.094-.119.167-.203.221-.085.053-.182.091-.291.113-.109.022-.228.034-.357.034-.084 0-.169-.009-.253-.027-.085-.018-.162-.049-.231-.093-.069-.045-.126-.101-.17-.167-.045-.067-.067-.152-.067-.254 0-.094.018-.169.054-.227.035-.058.105-.111.21-.16.105-.049.249-.098.434-.147.185-.049.426-.111.724-.187.089-.018.213-.05.371-.097.158-.047.315-.121.47-.224.156-.102.291-.239.404-.41.114-.171.17-.391.17-.658 0-.218-.042-.42-.126-.607-.085-.187-.211-.348-.378-.484-.166-.136-.373-.242-.62-.317-.247-.076-.533-.114-.858-.114-.263 0-.518.033-.765.097-.247.065-.465.166-.654.304-.189.138-.339.313-.45.527-.112.214-.165.468-.161.761h1.015c0-.16.029-.296.087-.407" transform="matrix(14.78426 0 0-14.78426 311.02 163.81)"/></g><path d="m0 0v-.881h-2.517v-1.022h2.31v-.814h-2.31v-1.168h2.57v-.881h-3.618v4.766h3.565" fill="#b6111c" transform="matrix(14.78426 0 0-14.78426 415.93 110.7)" id="1"/><g fill="#b6111c"><path d="m0 0c.24 0 .421.053.541.16.12.107.18.281.18.521 0 .231-.06.399-.18.504-.12.104-.301.157-.541.157h-1.148v-1.342h1.148m.374 2.156c.214 0 .406-.034.577-.103.172-.069.319-.164.441-.284.122-.12.216-.259.28-.417.065-.158.097-.329.097-.511 0-.28-.059-.523-.177-.728-.118-.204-.31-.36-.577-.467v-.013c.129-.036.236-.09.32-.164.085-.073.154-.16.207-.26.054-.1.093-.21.117-.33.024-.121.041-.241.05-.361.005-.076.009-.165.014-.267.004-.102.012-.207.023-.314.011-.107.029-.208.053-.303.024-.096.061-.178.111-.244h-1.049c-.057.151-.093.331-.107.541-.013.209-.033.409-.06.6-.035.25-.111.432-.227.548-.115.115-.304.173-.567.173h-1.048v-1.862h-1.048v4.766h2.57" transform="matrix(14.78426 0 0-14.78426 459.64 142.59)"/><path d="m498.44 181.18h15.492v-70.47h-15.492v70.47"/></g><use transform="translate(164.33)" xlink:href="#1"/></svg>