<svg xmlns="http://www.w3.org/2000/svg" height="283.54" width="599.99" viewBox="0 0 599.99998 283.5435"><g transform="translate(532.12 99.05)"><path d="m-532.12 128.53h600l-.003-227.58-600-.002v227.58z" fill="#059b4e"/><path d="m-119.66-36.18c-34.14 0-46.4 13.341-46.4 33.662v29.816c0 10.07-1.96 12-5.18 12.05-3.33-.051-5.21-2.421-5.21-12.05v-60.969h-41.22c-14.77 0-25.79 6.907-33.53 27.489l-13.43 39.05c-1.28 3.49-2.78 4.03-4.39 4.04-1.85-.011-3.62-1.143-4.85-5.01l-4.53-9.614c11.21-5.231 15.1-14.05 15.1-23.777v-3.01c0-15.943-9.22-29.17-46.84-29.17h-45.68-.21-110.31v31.719h25.6v-6.664c0-2.104 1.71-3.805 3.83-3.805h10.28v58.46c0 10.842 8.81 19.602 19.69 19.602l19.46-.006v-21.944l-.25.034c-3.88 0-7.04-3.156-7.04-7.04v-49.11h10.31c2.12 0 3.82 1.701 3.82 3.805v6.664h24.82v-.363.363 38.707c0 3.874-3.15 7.01-7.05 7.01v21.865h39.19v-37.832l3.27.023c5.22 0 9.77 2.478 12.12 6.731l16.24 31.08h23.01.36 9.3c14.4 0 17.5-3.15 22.19-14.914l5.73-16.01h23.03l-.04 30.92h37.32.02 173.2v-32.42h-25.83l.045 6.662c0 2.099-1.719 3.785-3.84 3.785l-22.996-.068v-18.01h19.314v-20.976h-19.314v-17.06l22.996.006c2.121 0 3.84 1.714 3.84 3.818l-.045 6.674h25.83v-31.719l-84.72.063v8.275c-7.216-6.47-19.06-10.847-37.03-10.847m-.08 23.357h.0001c7.91 0 14.32 2.607 14.32 14.693l-.03.639h23.32l.516 25.52-23.796.027-.0001.814c0 12.12-6.41 14.711-14.32 14.711h-.0001c-7.91 0-14.32-2.596-14.32-14.711v-27c0-12.09 6.41-14.693 14.32-14.693m-203.95.373h12.43c12.15 0 14.8 4.304 14.8 9.445v.022c0 5.141-2.62 9.316-14.75 9.316l-12.48-.029v-18.754m115.19 3.818v22.305l-16.7-.016 3-7.72c4.85-11.634 8.28-14.568 13.7-14.568" fill="#fff"/><path d="m53.691 142.7c-2.2 0-4.18.37-5.928 1.1-1.759.74-3.248 1.76-4.481 3.06-1.232 1.31-2.17 2.83-2.826 4.56s-.984 3.56-.984 5.5c0 1.99.328 3.83.984 5.53.656 1.71 1.594 3.21 2.826 4.52 1.233 1.31 2.722 2.33 4.481 3.07 1.748.73 3.728 1.09 5.928 1.09s4.162-.36 5.892-1.09c1.725-.74 3.207-1.76 4.44-3.07 1.227-1.31 2.172-2.81 2.828-4.52.65-1.7.978-3.54.978-5.53 0-1.94-.328-3.77-.978-5.5-.656-1.73-1.601-3.25-2.828-4.56-1.233-1.3-2.715-2.32-4.44-3.06-1.73-.73-3.692-1.1-5.892-1.1m0 3.14c1.776 0 3.353.29 4.711.87 1.363.57 2.494 1.37 3.377 2.39.888 1.02 1.571 2.2 2.046 3.54.47 1.33.707 2.76.707 4.28s-.237 2.94-.707 4.28c-.475 1.33-1.158 2.51-2.046 3.53-.883 1.02-2.01 1.82-3.377 2.4-1.358.58-2.935.86-4.711.86-1.833 0-3.434-.28-4.791-.86-1.363-.58-2.489-1.38-3.377-2.4-.894-1.02-1.578-2.2-2.041-3.53-.47-1.34-.707-2.76-.707-4.28s.237-2.95.707-4.28c.463-1.34 1.147-2.52 2.041-3.54.888-1.02 2.01-1.82 3.377-2.39 1.357-.58 2.958-.87 4.791-.87m-4.401 4.24v13.05h2.2v-4.33h2.675l3.219 4.33h2.668l-3.455-4.72c.73-.42 1.228-.88 1.494-1.37.26-.5.395-1.06.395-1.69v-1.81c0-1.1-.322-1.95-.944-2.55-.628-.6-1.679-.91-3.138-.91h-5.114m2.2 2.05h2.828c.684 0 1.17.1 1.453.31.288.21.435.63.435 1.26v1.57c0 .47-.134.84-.394 1.1s-.765.39-1.494.39h-2.828v-4.63" fill="#059b4e"/><path d="m-92.96 170.15l-273.71 14.34-4.51-86.05 273.71-14.348 4.51 86.06" fill="#231f20"/><g fill="#fff"><path d="m-321.99 112.22l-15.49.81-13.03 52.42 12.09-.63 2.26-10.21 17.29-.91 3.3 9.93 12.09-.64-18.51-50.77m-7.21 10.63l7.02 21.31-11.85.62 4.83-21.93"/><path d="m-299.6 162.79l-2.71-51.6 32.78-1.72.54 10.3-21.16 1.11.58 11.01 19.53-1.03.54 10.31-19.53 1.02 1.05 19.99-11.62.61"/><path d="m-240.38 108c-.72 0-1.48.02-2.27.06l-21.46 1.13 2.7 51.6 11.63-.61-.84-16.04 6.81-.36 12.23 15.44 13.79-.72-13.4-17.01c2.58-1.22 4.41-2.94 5.48-5.14 1.07-2.21 1.53-4.94 1.36-8.19l-.33-6.36c-.13-2.43-.55-4.54-1.27-6.34-.71-1.8-1.79-3.27-3.22-4.42-1.43-1.13-3.25-1.96-5.45-2.47-1.65-.38-3.57-.57-5.76-.57m-.7 10.39c1.5.08 2.6.41 3.3.99.92.79 1.43 2.15 1.53 4.12l.22 4.11c.1 1.96-.24 3.41-1.01 4.36-.79.95-2.41 1.49-4.89 1.61l-9.23.49-.79-15.19 9.22-.49c.6-.02 1.14-.03 1.65 0"/><path d="m-213.14 158.26l-2.7-51.6 11.62-.61 2.7 51.6-11.62.61"/><path d="m-183.42 139.76c.06 1.14.21 2.14.47 3.01.25.86.67 1.6 1.24 2.19s1.34 1.01 2.28 1.27c.95.26 2.14.36 3.59.28 1.86-.09 3.97-.3 6.34-.64 2.36-.33 4.67-.76 6.92-1.29l2.16 10.06c-2.55.7-5.01 1.24-7.37 1.63-2.37.38-4.86.64-7.5.78-3.26.17-6.08-.06-8.5-.71-2.42-.66-4.43-1.64-6.02-2.96-1.6-1.31-2.82-2.92-3.67-4.82-.86-1.9-1.34-4.01-1.46-6.33l-1.13-21.54c-.12-2.33.14-4.47.78-6.45.65-1.97 1.71-3.7 3.15-5.17 1.45-1.48 3.35-2.66 5.68-3.56 2.34-.9 5.13-1.44 8.39-1.61 2.63-.14 5.14-.14 7.53 0 2.4.13 4.89.41 7.51.84l-1.1 10.24c-2.3-.29-4.63-.49-7.02-.56-2.39-.09-4.51-.08-6.37.02-1.45.07-2.63.29-3.54.65s-1.62.86-2.13 1.51-.85 1.41-1.01 2.31c-.16.88-.21 1.9-.15 3.03l.93 17.82"/><path d="m-129.53 102.13l-15.5.81-13.02 52.43 12.09-.63 2.26-10.22 17.28-.91 3.32 9.93 12.08-.64-18.51-50.77m-7.21 10.64l7.02 21.31-11.85.62 4.83-21.93"/></g></g></svg>