<svg xmlns="http://www.w3.org/2000/svg" height="284.49" width="599.99" viewBox="0 0 599.99998 284.48867"><g transform="translate(531.65 26.21)"><path d="m68.35 201.38h-600v-227.59l600 .004-.002 227.59z" fill="#f7b10b"/><path d="m-119.2 36.671c-34.13 0-46.38 13.344-46.38 33.663v29.816c0 10.08-1.97 12.01-5.19 12.06-3.33-.05-5.21-2.43-5.21-12.06v-60.971h-41.22c-14.76 0-25.78 6.912-33.53 27.489l-13.43 39.05c-1.28 3.49-2.78 4.03-4.39 4.04-1.86 0-3.63-1.14-4.85-5l-4.53-9.62c11.2-5.231 15.1-14.05 15.1-23.774v-3.01c0-15.94-9.22-29.18-46.85-29.18h-45.67-.21-110.31v31.716h25.59v-6.654c0-2.108 1.71-3.812 3.83-3.812l10.29.011v58.46c0 10.84 8.8 19.61 19.69 19.61l19.46-.0001v-21.94l-.25.03c-3.88 0-7.03-3.15-7.03-7.03v-49.12l10.31-.011c2.11 0 3.81 1.704 3.81 3.812v6.654h24.82v-.359.359 38.715c0 3.88-3.13 7.01-7.05 7.01v21.87h39.19v-37.83l3.28.02c5.21 0 9.77 2.47 12.11 6.73l16.25 31.08h23.01.36 9.29c14.4 0 17.51-3.15 22.2-14.92l5.73-16h23.04l-.05 30.92h37.32.02 173.2l-.003-32.42h-25.824l.038 6.66c0 2.1-1.709 3.78-3.839 3.78l-22.996-.06v-18.01h19.316v-20.986h-19.316v-17.05l22.996.005c2.13 0 3.839 1.712 3.839 3.82l-.038 6.665h25.824v-31.716l-84.72.067v8.271c-7.211-6.465-19.07-10.846-37.03-10.846h-.0001m-.07 23.359h.0001c7.91 0 14.32 2.602 14.32 14.696l-.03.633h23.317l.517 25.531-23.794.02-.0001.82c0 12.11-6.41 14.71-14.32 14.71h-.0001c-7.92 0-14.32-2.6-14.32-14.71v-27c0-12.09 6.4-14.696 14.32-14.696m-203.95.375h12.43c12.15 0 14.81 4.3 14.81 9.442v.024c0 5.142-2.63 9.313-14.76 9.313l-12.48-.03v-18.749m115.19 3.814v22.303l-16.7-.005 3-7.726c4.85-11.634 8.28-14.572 13.7-14.572" fill="#fff"/><path d="m-56.6 240.17l-345.53 18.11-4.51-86.06 345.53-18.11 4.509 86.06" fill="#231f20"/><g fill="#fff"><path d="m-362.18 197.84l2.12 40.47-11.39.59-2.12-40.47-13.59.72-.52-10.1 38.56-2.03.53 10.11-13.59.71"/><path d="m-321.91 185.66c-.71 0-1.45.02-2.22.06l-21.04 1.1 2.65 50.57 11.39-.59-.82-15.73 6.68-.34 11.99 15.12 13.51-.7-13.13-16.67c2.53-1.2 4.32-2.88 5.36-5.04 1.06-2.17 1.51-4.83 1.34-8.03l-.33-6.23c-.12-2.37-.53-4.45-1.24-6.21-.7-1.76-1.74-3.21-3.16-4.33-1.4-1.12-3.17-1.93-5.34-2.43-1.62-.36-3.5-.55-5.64-.55m-.69 10.18c1.48.08 2.56.4 3.24.97.9.77 1.4 2.12 1.5 4.03l.22 4.03c.1 1.92-.24 3.35-1.01 4.28-.75.93-2.35 1.46-4.79 1.59l-9.03.47-.77-14.89 9.02-.47c.59-.03 1.12-.03 1.62-.001"/><path d="m-278.41 182.65c-.82-.02-1.67 0-2.56.05-3.59.18-6.61.79-9.04 1.8-2.44 1.02-4.39 2.3-5.85 3.85-1.47 1.55-2.51 3.26-3.12 5.14-.62 1.89-.87 3.8-.77 5.72l1.11 21.11c.1 1.92.55 3.79 1.37 5.6.79 1.81 2 3.41 3.63 4.8 1.61 1.38 3.69 2.45 6.22 3.22 2.53.75 5.58 1.03 9.18.84 3.54-.18 6.54-.79 9-1.8 2.47-1.02 4.42-2.3 5.89-3.85s2.51-3.27 3.12-5.15c.62-1.89.87-3.79.77-5.72l-1.11-21.11c-.1-1.92-.55-3.78-1.35-5.6-.82-1.81-2.03-3.4-3.65-4.79-1.61-1.39-3.7-2.46-6.25-3.21-1.92-.57-4.11-.87-6.59-.9m-2.03 10.14c2.88-.15 5 .31 6.36 1.38 1.34 1.08 2.08 2.6 2.18 4.57l1 19.14c.11 1.97-.46 3.57-1.69 4.77-1.24 1.2-3.3 1.88-6.18 2.03-2.88.16-5-.31-6.35-1.38s-2.09-2.59-2.19-4.56l-.99-19.14c-.11-1.97.45-3.57 1.68-4.77 1.24-1.21 3.29-1.89 6.18-2.04"/><path d="m-231.63 180.93c-.71 0-1.45.02-2.22.06l-20.66 1.08 2.66 50.57 11.38-.6-.8-15.34 8.65-.44c6.18-.34 10.57-1.76 13.18-4.27 2.61-2.53 3.78-6.17 3.54-10.93l-.35-6.6c-.12-2.39-.53-4.46-1.24-6.22-.7-1.77-1.75-3.21-3.16-4.33-1.4-1.12-3.18-1.92-5.34-2.42-1.61-.37-3.5-.56-5.64-.56m-.66 10.18c1.5.09 2.59.44 3.25 1.05.88.81 1.36 2.13 1.45 3.95l.24 4.41c.1 1.82-.22 3.22-.96 4.2-.73.97-2.34 1.53-4.82 1.66l-8.66.45-.81-15.26 8.67-.45c.59-.04 1.14-.04 1.64-.001"/><path d="m-209.03 230.39l-2.66-50.56 11.39-.6 2.65 50.57-11.38.59"/><path d="m-179.91 212.27c.06 1.12.22 2.1.46 2.94.26.86.65 1.57 1.21 2.15.57.58 1.32 1 2.24 1.26.93.25 2.1.34 3.52.27 1.82-.11 3.89-.32 6.2-.63 2.33-.33 4.59-.75 6.79-1.27l2.12 9.85c-2.5.7-4.91 1.23-7.22 1.61-2.32.37-4.77.62-7.35.76-3.19.17-5.97-.06-8.34-.7s-4.34-1.61-5.9-2.9c-1.56-1.28-2.77-2.86-3.59-4.71-.83-1.86-1.32-3.94-1.43-6.21l-1.11-21.11c-.12-2.28.14-4.38.77-6.32.64-1.94 1.66-3.63 3.09-5.08 1.42-1.44 3.27-2.6 5.56-3.48s5.04-1.41 8.22-1.58c2.58-.13 5.05-.13 7.39 0 2.34.12 4.78.41 7.35.83l-1.08 10.03c-2.24-.29-4.54-.47-6.88-.56-2.33-.07-4.41-.07-6.24.03-1.42.08-2.58.28-3.47.64-.89.35-1.59.84-2.09 1.48s-.83 1.39-.99 2.26-.2 1.86-.14 2.98l.91 17.46"/><path d="m-127.1 175.39l-15.18.8-12.77 51.38 11.85-.63 2.21-10.01 16.93-.89 3.26 9.73 11.84-.62-18.14-49.76m-7.07 10.42l6.88 20.88-11.61.61 4.73-21.49"/><path d="m-105.16 224.95l-2.65-50.58 11.391-.58 2.114 40.47 20.05-1.06.527 10.1-31.432 1.65"/></g><path d="m54.05 215.46c-2.204 0-4.183.36-5.932 1.1-1.755.73-3.247 1.75-4.48 3.06-1.234 1.31-2.17 2.83-2.832 4.56-.65 1.73-.98 3.56-.98 5.5 0 1.99.33 3.84.98 5.54.662 1.7 1.598 3.21 2.832 4.52 1.233 1.31 2.725 2.33 4.48 3.06 1.749.73 3.728 1.1 5.932 1.1 2.198 0 4.159-.37 5.891-1.1 1.727-.73 3.209-1.75 4.443-3.06 1.222-1.31 2.167-2.82 2.823-4.52s.983-3.55.983-5.54c0-1.94-.327-3.77-.983-5.5s-1.601-3.25-2.823-4.56c-1.234-1.31-2.716-2.33-4.443-3.06-1.732-.74-3.693-1.1-5.891-1.1m0 3.15c1.777 0 3.346.28 4.709.85 1.362.58 2.495 1.38 3.381 2.4s1.571 2.2 2.042 3.54.711 2.76.711 4.28-.24 2.95-.711 4.28c-.471 1.34-1.156 2.51-2.042 3.54-.886 1.02-2.02 1.82-3.381 2.39-1.363.58-2.932.86-4.709.86-1.834 0-3.433-.28-4.796-.86-1.362-.57-2.489-1.37-3.375-2.39-.892-1.03-1.574-2.2-2.045-3.54-.471-1.33-.708-2.76-.708-4.28s.237-2.94.708-4.28 1.153-2.52 2.045-3.54c.886-1.02 2.01-1.82 3.375-2.4 1.363-.57 2.962-.85 4.796-.85m-4.402 4.23v13.05h2.198v-4.32h2.675l3.222 4.32h2.67l-3.459-4.72c.734-.42 1.232-.87 1.49-1.37.263-.5.398-1.06.398-1.69v-1.81c0-1.1-.32-1.95-.948-2.55-.622-.6-1.675-.91-3.138-.91h-5.108m2.198 2.05h2.831c.679 0 1.167.1 1.452.31.292.21.437.63.437 1.26v1.57c0 .47-.141.84-.399 1.1s-.755.39-1.49.39h-2.831v-4.63" fill="#f7b10b"/></g></svg>