<svg xmlns="http://www.w3.org/2000/svg" height="283.62" width="600" viewBox="0 0 158.75 75.040399"><g transform="translate(-26.458-6.714)"><path d="m185.21 6.714h-158.75v60.33h158.75" fill="#513c9e"/><path d="m67.36 58.979l1.197 22.776 74.21-3.891-1.19-22.775z" fill="#040606"/><g fill="#fff"><path d="m81.46 76.14c-.751.147-1.502.232-2.254.275-.787.043-1.484-.019-2.082-.183-.599-.165-1.106-.41-1.521-.739-.409-.33-.727-.727-.953-1.204-.226-.476-.354-1.01-.385-1.588l-.287-5.399c-.03-.592.043-1.136.22-1.631.171-.5.446-.928.825-1.3.378-.373.855-.666 1.435-.886.574-.214 1.264-.348 2.052-.391.751-.037 1.49-.031 2.217.012.733.049 1.374.11 1.936.183l-.213 2.56c-.288-.025-.605-.043-.947-.068-.348-.018-.69-.036-1.038-.055-.342-.012-.672-.018-.99-.012-.317 0-.592.012-.831.025-.36.018-.659.079-.891.183-.238.104-.416.232-.544.397s-.214.354-.256.574c-.037.226-.049.458-.037.708l.232 4.441c.012.262.049.501.116.714.061.22.165.41.312.568.146.165.336.287.586.373.244.085.544.116.91.098.293-.019.562-.037.8-.061.244-.025.544-.074.916-.147l-.201-3.964 2.736-.14.318 6.077c-.703.244-1.43.439-2.181.58"/><path d="m92.44 66.59c-.024-.507-.214-.891-.556-1.166-.348-.275-.891-.391-1.624-.355-.739.037-1.265.214-1.582.52-.312.311-.458.714-.434 1.221l.257 4.892c.03.507.214.892.562 1.167.342.275.885.391 1.624.354.733-.036 1.258-.214 1.576-.519.318-.311.458-.715.434-1.222zm3.182 4.99c.025.495-.042.984-.195 1.46-.159.482-.428.922-.8 1.319-.373.397-.874.727-1.503.984-.629.262-1.398.415-2.302.464-.923.042-1.704-.025-2.352-.22-.641-.19-1.172-.464-1.588-.819-.415-.354-.727-.763-.928-1.227-.208-.464-.324-.941-.348-1.436l-.287-5.393c-.025-.494.042-.983.195-1.459.159-.483.428-.923.8-1.32.373-.397.874-.726 1.497-.983.623-.263 1.392-.415 2.314-.464.904-.043 1.68.024 2.334.22.653.195 1.184.464 1.6.818.415.361.727.764.934 1.228.202.464.318.94.348 1.435z"/><path d="m106.38 71.15c.04.648 0 1.209-.1 1.692-.11.482-.33.892-.66 1.234s-.8.61-1.41.794c-.61.189-1.4.311-2.37.36-.75.037-1.5.006-2.24-.11-.745-.11-1.405-.281-1.973-.513l.367-2.29c.604.152 1.215.268 1.826.354.62.085 1.26.11 1.93.073.38-.018.68-.055.91-.11.23-.049.41-.134.53-.25s.21-.263.24-.44c.04-.177.05-.397.04-.672-.02-.281-.05-.513-.08-.696-.03-.177-.13-.324-.28-.427-.14-.11-.36-.202-.66-.281-.3-.074-.71-.153-1.25-.245-.79-.128-1.423-.268-1.906-.433-.482-.165-.855-.385-1.123-.66-.263-.281-.452-.641-.562-1.087s-.177-1.02-.214-1.723c-.037-.641 0-1.197.104-1.655.11-.458.324-.843.641-1.148.324-.311.77-.55 1.338-.715.572-.164 1.302-.268 2.192-.317.57-.031 1.19-.031 1.85 0 .66.03 1.36.104 2.09.22l-.16 2.443c-.74-.092-1.39-.153-1.93-.183-.54-.031-1.1-.025-1.68.006-.33.012-.59.042-.79.085-.21.049-.37.116-.48.214-.12.098-.19.226-.23.379-.03.158-.04.354-.03.586.02.311.04.556.08.733.03.171.12.311.26.415.14.098.35.19.65.257.28.067.69.146 1.19.238.88.159 1.57.336 2.08.525.5.19.88.422 1.14.703.27.274.43.629.51 1.056.07.422.13.953.16 1.588"/><path d="m114.81 65.34c-.02-.464-.14-.8-.37-1.014-.22-.208-.64-.293-1.25-.263l-2.21.116.2 3.903 2.22-.116c.63-.037 1.04-.177 1.23-.427.18-.251.27-.605.25-1.075zm2.99 1.264c.06 1.215-.24 2.15-.9 2.791-.67.648-1.79 1.01-3.37 1.094l-2.22.116.21 3.921-2.91.152-.68-12.93 5.28-.274c.79-.043 1.46 0 2.01.128s1.01.33 1.37.617.62.659.8 1.105c.19.452.29.984.32 1.594z"/><path d="m119.95 74.08l-.68-12.93 8.13-.428.14 2.584-5.23.275.13 2.369 4.82-.256.13 2.583-4.82.251.15 2.815 5.23-.274.13 2.583z"/><path d="m130.31 73.54l-.68-12.93 2.92-.152.54 10.346 5.12-.269.14 2.584z"/><path d="m139.44 40.37l.02.189c0 3.207-1.67 3.86-3.76 3.86h-.001c-2.09 0-3.93-.629-3.93-3.835v-7.146c0-3.195 1.84-3.964 3.93-3.964h.001c2.09 0 3.78.708 3.78 3.909v.189h5.91v6.792zm-27.39-3.805l-4.34-.006.75-2.04c1.29-3.085 2.27-3.86 3.59-3.86zm-23.283-4.41c0 1.362-.666 2.468-3.873 2.468l-3.273-.013v-5.01h3.389c3.219 0 3.757 1.191 3.757 2.547zm78.973.226v-8.331h-22.35v2.187c-1.86-1.71-4.92-2.853-9.67-2.853-9.04 0-12.43 3.518-12.43 8.893v7.891c0 2.669-.46 3.176-1.32 3.195-.88-.019-1.32-.648-1.32-3.195v-16.12h-10.87c-3.91 0-6.83 1.79-8.88 7.232l-3.552 10.352c-.336.922-.733 1.069-1.154 1.075-.495-.006-.965-.299-1.289-1.325l-1.234-2.541c2.968-1.387 3.958-3.72 3.958-6.291v-.8c0-4.214-2.364-7.702-12.319-7.702h-41.526v8.331h6.963l.006-1.741c0-.555.452-.995 1.01-.995l2.724.012v15.471c0 2.87 2.254 5.191 5.131 5.191h5.075v-5.808l-.03.006c-1.026 0-1.826-.831-1.826-1.863v-12.991l2.711-.006c.562 0 .996.452.996 1.01v1.716h6.615v-.049 10.34c0 1.027-.801 1.821-1.833 1.821l.037 5.747h10.365l.006-9.974.867.024c1.38 0 2.584.63 3.206 1.753l4.294 8.197h8.649c3.813 0 4.633-.843 5.873-3.952l1.52-4.251h6.09l-.001 8.203h55.52v-8.6h-6.64l.001 1.765c0 .55-.47 1.014-1.03 1.014h-6.22v-4.758h5.16v-5.558h-5.16v-4.452h6.16c.56 0 1.05.434 1.05.989l.03 1.741z"/></g><path d="m181.48 70.46c-.58 0-1.1.095-1.57.291-.46.193-.85.462-1.18.808-.32.346-.57.746-.74 1.201-.18.458-.26.942-.26 1.451 0 .524.08 1.012.26 1.459.17.451.42.848.74 1.193.33.346.72.615 1.18.808.47.193.99.291 1.57.291s1.1-.098 1.55-.291c.46-.193.85-.462 1.17-.808.33-.345.58-.742.75-1.193.17-.447.26-.935.26-1.459 0-.509-.09-.993-.26-1.451-.17-.455-.42-.855-.75-1.201-.32-.346-.71-.615-1.17-.808-.45-.196-.97-.291-1.55-.291m0 .83c.47 0 .88.076 1.24.225.36.153.66.364.89.633.24.27.42.582.54.935.13.35.19.728.19 1.128s-.06.779-.19 1.128c-.12.353-.3.662-.54.935-.23.269-.53.48-.89.629-.36.153-.77.23-1.24.23-.49 0-.91-.077-1.27-.23-.36-.149-.65-.36-.89-.629-.23-.273-.41-.582-.54-.935-.12-.349-.18-.728-.18-1.128s.06-.778.18-1.128c.13-.353.31-.665.54-.935.24-.269.53-.48.89-.633.36-.149.78-.225 1.27-.225m-1.16 1.117v3.441h.58v-1.138h.7l.85 1.138h.71l-.92-1.244c.2-.109.33-.229.4-.364.07-.127.1-.28.1-.444v-.476c0-.291-.08-.517-.25-.673-.16-.16-.44-.24-.83-.24zm.58.542h.74c.18 0 .31.025.39.08.07.054.11.167.11.331v.415c0 .123-.03.222-.1.291s-.2.105-.4.105h-.74z" stroke-width=".364" fill="#513c9e"/></g></svg>