<svg xmlns="http://www.w3.org/2000/svg" viewBox="0 0 600 207"><g transform="translate(46.667-197.36)"><g fill="#2fb2e2"><path d="m435.16 197.47h-27.335l47.745 103.37-48.773 103.51h27.335l46.636-103.51-45.608-103.37"/><path d="m443.06 300.81l-47.19-103.34h-442.53v126.16c0 44.55 36.11 80.66 80.66 80.66v.02h361.57l47.48-103.48v-.002z"/></g><g fill="#fff"><path d="m13.677 310.69c0 25.339 19.453 29.11 26.16 29.11h16.12c1.562 0 2.429-.695 2.429-1.915v-15.08c0-1.562-.393-2.852-1.603-2.852s-8.557-.03-11.51-.03c-4.898 0-7.559-4.425-7.559-7.549v-28.22h17.85c1.734 0 2.076-1.562 2.076-1.562v-16.288c0-2.076-2.076-2.429-2.076-2.429h-17.276v-26.69c0-2.086-2.6-1.734-2.6-1.734s-19.07 6.239-20.289 6.41c-1.21.171-1.723.695-1.723 1.734v67.1"/><path d="m63.982 266.13c0-2.429 1.734-2.6 2.943-2.6h13.758c1.824 0 2.197 1.209 2.54 2.076.353.867 3.81 9.01 3.81 9.01s6.934-11.954 23.23-11.954c1.905 0 2.076 1.905 2.076 3.991v15.965c0 .968-.867 2.399-2.076 2.399-1.22 0-17.17.695-21.499 5.725v47.836c0 1.734-1.038 1.038-2.6 1.038-1.562 0-19.584.353-20.622.353-1.038 0-1.472-1.391-1.472-2.6 0-1.22-.091-71.24-.091-71.24"/><path d="m142.78 263.89c-1.924.018-3.374.156-4.03.156h-19.12c-1.048 0-2.344.274-2.344 1.313 0 1.038-.094 14.7-.094 16 0 1.3.627 2.594 1.938 2.594h16.75c6.451 0 8.156 4.475 8.156 5.906v4.531h-9.06c-14.171 0-30.437 2.878-30.437 22.25 0 14.816 8.985 24.812 23.16 24.812 11.5 0 19.75-8.812 19.75-8.812l3.25 7.25s15.362.063 16.531.063c1.169 0 1.375-1.202 1.375-2.25 0-1.038.302-10.562 0-44.16-.254-27.361-17.477-29.732-25.812-29.656m-2.251 45.843c1.699-.02 3.719.063 3.719.063v10.156c-1.139 2.066-12.478 6.819-14.312.469-2.348-8.104 6.1-10.383 9.09-10.625.411-.035.933-.056 1.5-.063"/><path d="m169.66 266.56c-.514-1.693.262-3.125 1.955-3.125h22.22c1.179 0 1.824 1.048 2.086 2.731.262 1.693 10.664 54.47 10.664 54.47s10.271-54.07 10.654-55.37c.393-1.3 1.693-1.562 2.994-1.562h20.541c1.431 0 1.3 1.562 1.038 2.469-.262.907-21.842 73.71-21.842 73.71h-28.605l-21.71-73.32"/><path d="m312.6 244.03c0-.907.595-2.127 1.945-2.661 1.29-.514 19.634-6.662 20.703-6.924 1.592-.403 2.308.917 2.308 2.086 0 1.179-.131 72.933-.131 75.66 0 2.731 2.469 7.408 7.539 7.408h7.67c1.038 0 1.562 1.3 1.562 2.6v15.603c0 1.3-.776 1.945-2.469 1.945h-12.75c-4.546 0-25.984-3.508-25.984-27.818 0-24.301-.393-67.903-.393-67.903"/><path d="m275.9 262.68c-12.609 0-34.718 7.25-34.718 41.19 0 31.588 26.13 37.19 37.968 37.19 11.823 0 20.893-4.964 22.06-5.75 1.169-.776 1.918-1.252 1.344-2.875-2.459-6.844-2.663-7.05-5.656-14.531-.514-1.3-1.038-1.299-2.469-.906-1.431.383-7.04 3.06-15.687 3-14.04-.101-13.437-10.531-13.437-10.531h42.562c1.038-43.03-19.359-46.781-31.968-46.781m-1.313 17.781c8.95 0 8.531 14.219 8.531 14.219h-18.12s-.062-14.219 9.594-14.219"/><path d="m212.55 356.93l1.915-3.598s-5.654-3.901-12.02-.837c-7.358 3.528-6.199 15.925-4.596 18.908 1.613 2.993 5.362 9.343 16.621 4.596l-1.845-3.901s-4.747 3.135-8.497.151c-3.76-2.983-3.215-11.561-1.22-14.322 1.986-2.762 6.803-2.832 9.646-.998"/><path d="m218.98 351.65h4.516v10.875l9.495-.03v-10.845h4.596v26.06h-4.636l.04-10.966h-9.495v10.976h-4.516v-26.06"/><path d="m249.49 351.64l-8.156 26.06h4.594l1.688-5.719h8.687l1.844 5.719h4.937l-8.281-26.06h-5.312m2.531 5.375l3.281 10.969h-6.531c-.06 0 3.25-10.969 3.25-10.969"/><path d="m267.18 351.65h4.536l9.676 17.08v-17.08h4.586v26.06h-4.495l-9.686-17.548.06 17.548h-4.677v-26.06"/><path d="m297.39 377.72h-4.717v-26.06h4.566l9.595 17.13v-17.13h4.707v26.06h-4.536l-9.706-17.457.091 17.457"/><path d="m318.01 377.72v-26.06h15.754v3.991h-11.11v6.854h8.648v4.112h-8.678v6.914h11.137v4.193h-15.754"/><path d="m338.9 351.65h4.747v21.902h10.351v4.163h-15.1v-26.06"/></g><g fill="#2fb2e2"><path d="m481.75 228.24v19.11c0 .564-.353.917-.907.917h-9.313c-.564 0-.917-.353-.917-.917v-49.07c0-.564.353-.917.917-.917h9.313c.554 0 .907.353.907.917v19.11c0 .423.151.564.575.564h15.431c.423 0 .575-.141.575-.564v-19.11c0-.564.353-.917.907-.917h9.313c.564 0 .917.353.917.917v49.07c0 .564-.353.917-.917.917h-9.313c-.554 0-.907-.353-.907-.917v-19.11c0-.423-.151-.564-.575-.564h-15.431c-.423 0-.575.141-.575.564"/><path d="m515.3 197.36c-.564 0-.906.342-.906.906v49.09c0 .564.342.906.906.906h16.312c14.383 0 21.718-8.867 21.718-25.437 0-16.641-7.336-25.468-21.718-25.468h-16.312m10.812 10.09h4.562c6.914 0 11.09 4.157 11.09 15.375 0 11.208-4.171 15.344-11.156 15.344h-4.594c-.353 0-.469-.139-.469-.562v-29.593c0-.423.139-.562.562-.562z"/></g></g></svg>