<svg xmlns="http://www.w3.org/2000/svg" viewBox="0 0 600 219.55"><g fill="#2fb2e2"><path d="m511.04.116h-28.992l50.64 109.64-51.73 109.79h28.992l49.46-109.79-48.37-109.64"/><path d="m519.42 109.73h-.011l-50.05-109.61h-469.36v133.81c0 47.25 38.3 85.56 85.56 85.56v.022h383.49l50.36-109.76h.011l-.011-.011.011-.011"/></g><g fill="#fff"><path d="m64 120.21c0 26.875 20.632 30.874 27.752 30.874h17.09c1.657 0 2.576-.738 2.576-2.031v-15.993c0-1.657-.417-3.03-1.7-3.03-1.283 0-9.08-.032-12.208-.032-5.195 0-8.02-4.693-8.02-8.01v-29.933h18.933c1.839 0 2.202-1.657 2.202-1.657v-17.276c0-2.202-2.202-2.576-2.202-2.576h-18.323v-28.31c0-2.213-2.758-1.839-2.758-1.839 0 0-20.226 6.617-21.52 6.799-1.283.182-1.828.738-1.828 1.839v71.16z"/><path d="m117.36 72.936c0-2.576 1.839-2.758 3.122-2.758h14.592c1.935 0 2.331 1.283 2.694 2.202.374.919 4.04 9.557 4.04 9.557 0 0 7.355-12.679 24.641-12.679 2.02 0 2.202 2.02 2.202 4.233v16.933c0 1.026-.919 2.544-2.202 2.544-1.293 0-18.206.738-22.802 6.072v50.736c0 1.839-1.101 1.101-2.758 1.101-1.657 0-20.771.374-21.872.374-1.101 0-1.561-1.475-1.561-2.758 0-1.293-.096-75.56-.096-75.56"/><path d="m200.93 70.57c-2.04.019-3.578.166-4.276.166h-20.284c-1.112 0-2.486.291-2.486 1.392 0 1.101-.099 15.591-.099 16.97 0 1.379.665 2.751 2.055 2.751h17.765c6.842 0 8.651 4.746 8.651 6.264v4.806h-9.612c-15.03 0-32.28 3.052-32.28 23.599 0 15.715 9.529 26.317 24.56 26.317 12.198 0 20.947-9.347 20.947-9.347l3.447 7.69c0 0 16.293.066 17.533.066 1.24 0 1.458-1.275 1.458-2.386 0-1.101.321-11.202 0-46.833-.269-29.02-18.537-31.535-27.377-31.454m-2.386 48.622c1.803-.021 3.944.066 3.944.066v10.772c-1.208 2.191-13.235 7.232-15.18.497-2.491-8.595 6.47-11.01 9.645-11.269.436-.037.99-.059 1.591-.066"/><path d="m229.45 73.4c-.545-1.796.278-3.314 2.074-3.314h23.572c1.251 0 1.935 1.112 2.213 2.897.278 1.796 11.31 57.77 11.31 57.77 0 0 10.893-57.35 11.3-58.733.417-1.379 1.796-1.657 3.175-1.657h21.787c1.518 0 1.379 1.657 1.101 2.619-.278.962-23.17 78.18-23.17 78.18h-30.339l-23.03-77.76"/><path d="m381.06 49.5c0-.962.631-2.256 2.063-2.822 1.368-.545 20.825-7.07 21.958-7.344 1.689-.428 2.448.973 2.448 2.213 0 1.251-.139 77.35-.139 80.25 0 2.897 2.619 7.857 7.996 7.857h8.135c1.101 0 1.657 1.379 1.657 2.758v16.549c0 1.379-.823 2.063-2.619 2.063h-13.523c-4.821 0-27.56-3.72-27.56-29.505 0-25.774-.417-72.02-.417-72.02"/><path d="m342.13 69.28c-13.374 0-36.823 7.69-36.823 43.684 0 33.503 27.72 39.442 40.27 39.442 12.54 0 22.16-5.265 23.4-6.099 1.24-.823 2.035-1.328 1.425-3.049-2.608-7.259-2.824-7.48-5.999-15.412-.545-1.379-1.1-1.378-2.618-.961-1.518.406-7.466 3.246-16.639 3.182-14.892-.107-14.252-11.17-14.252-11.17h45.14c1.101-45.637-20.533-49.617-33.907-49.617m-1.392 18.859c9.493 0 9.05 15.08 9.05 15.08h-19.224c0 0-.066-15.08 10.175-15.08"/><path d="m274.94 169.25l2.031-3.816c0 0-5.997-4.137-12.754-.887-7.804 3.742-6.575 16.891-4.875 20.06 1.71 3.175 5.687 9.91 17.628 4.875l-1.956-4.137c0 0-5.04 3.325-9.01.16-3.988-3.164-3.41-12.262-1.293-15.191 2.106-2.929 7.216-3 10.231-1.058"/><path d="m281.76 163.65h4.789v11.535l10.07-.032v-11.503h4.875v27.645h-4.918l.043-11.631-10.07-.011v11.642h-4.789v-27.645"/><path d="m314.12 163.64l-8.651 27.642h4.872l1.79-6.07h9.214l1.955 6.07h5.237l-8.783-27.642h-5.635m2.685 5.701l3.48 11.634h-6.927c-.064 0 3.447-11.634 3.447-11.634"/><path d="m332.88 163.65h4.811l10.263 18.12v-18.12h4.864v27.645h-4.768l-10.273-18.612.064 18.612h-4.96v-27.645"/><path d="m364.92 191.3h-5v-27.645h4.843l10.177 18.17v-18.17h4.992v27.645h-4.811l-10.295-18.516.096 18.516"/><path d="m386.79 191.3v-27.645h16.709v4.233h-11.781v7.269h9.172v4.362h-9.204v7.334h11.813v4.447h-16.709"/><path d="m408.95 163.65h5.04v23.23h10.979v4.415h-16.01v-27.645"/></g><g transform="matrix(.92996 0 0 .92996 96.7-114.66)" fill="#2fb2e2"><path d="m0 0h2.253v1.931h2.252v-1.931h2.253v-2.092h-2.253v-2.091h-2.252v2.091h-2.253v2.092" transform="matrix(5.28435 0 0-5.28435 480.63 149.44)"/><path d="m519.78 136.47h7.395v44.21h14.03v-57.39h-21.425z"/></g></svg>