<svg xmlns="http://www.w3.org/2000/svg" viewBox="0 0 600 235.35"><g fill="#2fb2e2"><path d="m548.12 0h-31.1l54.31 117.59-55.48 117.75h31.1l53.05-117.75-51.883-117.59"/><path d="m557.11 117.56h-.011l-53.683-117.56h-503.41v143.52c0 50.679 41.08 91.76 91.76 91.76v.023h411.32l54.02-117.72h.011l-.011-.011.011-.011z"/></g><g fill="#fff"><path d="m68.65 128.8c0 28.825 22.13 33.11 29.766 33.11h18.334c1.777 0 2.763-.791 2.763-2.179v-17.15c0-1.777-.447-3.245-1.823-3.245-1.376 0-9.735-.034-13.09-.034-5.572 0-8.599-5.03-8.599-8.588v-32.1h20.306c1.972 0 2.362-1.777 2.362-1.777v-18.529c0-2.362-2.362-2.763-2.362-2.763h-19.653v-30.362c0-2.373-2.958-1.972-2.958-1.972 0 0-21.694 7.097-23.08 7.292-1.376.195-1.961.791-1.961 1.972v76.33"/><path d="m125.87 78.11c0-2.763 1.972-2.958 3.348-2.958h15.651c2.075 0 2.5 1.376 2.889 2.362.401.986 4.334 10.251 4.334 10.251 0 0 7.889-13.599 26.429-13.599 2.167 0 2.362 2.167 2.362 4.54v18.16c0 1.101-.986 2.729-2.362 2.729-1.387 0-19.526.791-24.457 6.513v54.42c0 1.972-1.181 1.181-2.958 1.181-1.777 0-22.278.401-23.459.401-1.181 0-1.674-1.582-1.674-2.958 0-1.387-.103-81.04-.103-81.04"/><path d="m215.51 75.56c-2.188.02-3.838.178-4.586.178h-21.756c-1.192 0-2.666.312-2.666 1.493 0 1.181-.107 16.722-.107 18.201 0 1.479.713 2.951 2.204 2.951h19.05c7.338 0 9.278 5.091 9.278 6.719v5.155h-10.309c-16.12 0-34.625 3.273-34.625 25.311 0 16.855 10.221 28.23 26.342 28.23 13.08 0 22.467-10.03 22.467-10.03l3.697 8.247c0 0 17.475.071 18.806.071 1.33 0 1.564-1.367 1.564-2.559 0-1.181.344-12.01 0-50.23-.289-31.12-19.881-33.823-29.364-33.736m-2.56 52.15c1.933-.022 4.23.071 4.23.071v11.553c-1.296 2.351-14.195 7.757-16.281.533-2.672-9.219 6.939-11.812 10.345-12.09.467-.04 1.062-.064 1.706-.071"/><path d="m246.09 78.6c-.585-1.926.298-3.554 2.224-3.554h25.282c1.341 0 2.075 1.192 2.373 3.107.298 1.926 12.13 61.962 12.13 61.962 0 0 11.684-61.52 12.12-62.994.447-1.479 1.926-1.777 3.405-1.777h23.368c1.628 0 1.479 1.777 1.181 2.809-.298 1.032-24.847 83.85-24.847 83.85h-32.54l-24.698-83.4"/><path d="m408.7 52.96c0-1.032.676-2.419 2.213-3.03 1.468-.585 22.336-7.579 23.551-7.877 1.812-.459 2.626 1.043 2.626 2.373 0 1.341-.149 82.967-.149 86.08 0 3.107 2.809 8.427 8.577 8.427h8.726c1.181 0 1.777 1.479 1.777 2.958v17.749c0 1.479-.883 2.213-2.809 2.213h-14.504c-5.171 0-29.559-3.99-29.559-31.646 0-27.644-.447-77.25-.447-77.25"/><path d="m366.95 74.18c-14.344 0-39.495 8.248-39.495 46.854 0 35.934 29.731 42.3 43.19 42.3 13.45 0 23.768-5.647 25.1-6.541 1.33-.883 2.182-1.424 1.529-3.27-2.798-7.785-3.03-8.02-6.434-16.53-.585-1.479-1.18-1.478-2.808-1.031-1.628.436-8.01 3.482-17.846 3.413-15.972-.115-15.286-11.98-15.286-11.98h48.42c1.181-48.948-22.02-53.22-36.37-53.22m-1.493 20.227c10.182 0 9.705 16.17 9.705 16.17h-20.618c0 0-.071-16.17 10.914-16.17"/><path d="m294.88 181.4l2.178-4.093c0 0-6.432-4.437-13.679-.952-8.37 4.01-7.05 18.12-5.228 21.51 1.835 3.405 6.1 10.629 18.907 5.228l-2.098-4.437c0 0-5.4 3.566-9.666.172-4.277-3.394-3.658-13.151-1.387-16.293 2.259-3.142 7.74-3.222 10.973-1.135"/><path d="m302.2 175.39h5.137v12.372l10.801-.034v-12.337h5.228v29.651h-5.274l.046-12.475-10.801-.012v12.486h-5.137v-29.651"/><path d="m336.91 175.39l-9.278 29.648h5.226l1.92-6.506h9.883l2.097 6.506h5.617l-9.421-29.648h-6.04m2.879 6.114l3.733 12.478h-7.43c-.069 0 3.697-12.478 3.697-12.478"/><path d="m357.03 175.39h5.16l11.01 19.435v-19.435h5.217v29.651h-5.114l-11.02-19.962.069 19.962h-5.32v-29.651"/><path d="m391.39 205.05h-5.366v-29.651h5.194l10.916 19.492v-19.492h5.355v29.651h-5.16l-11.04-19.859.103 19.859"/><path d="m414.85 205.05v-29.651h17.921v4.541h-12.635v7.797h9.838v4.678h-9.872v7.866h12.67v4.77h-17.921"/><path d="m438.62 175.39h5.4v24.915h11.776v4.735h-17.18v-29.651"/></g></svg>