<svg xmlns="http://www.w3.org/2000/svg" viewBox="0 0 600 169.24"><g transform="translate(33.968 1918.38)"><g fill="#fff"><path d="m31.24-1882.3h23.433v33.32h-23.433v94.99h-43.656v-94.99h-21.55v-33.32h21.55v-36.1h43.656v36.1"/><path d="m103.01-1861.9h-.535v-20.391h-41.03v128.31h43.656v-57.707c0-21.583 13.572-26.08 33.1-26.753v-43.946c-24.17.468-31.589 13.527-35.2 20.491"/><path d="m281.25-1754h-41.572v-15.599h-.535c-9 18.797-26.987 20.391-38.13 20.391-9 0-30.19-2.117-43.17-18.53-11.644-14.574-13.226-25.16-13.226-45.28v-69.28h43.946v62.66c0 10.06 0 29.394 23.589 29.394 12.691 0 25.14-10.128 25.14-33.438v-58.62h43.957v128.31z"/></g><path d="m379.69 59.41c-30.33.457-54.54 25.4-54.1 55.714.46 30.35 25.44 54.54 55.75 54.1 30.34-.46 54.55-25.39 54.1-55.72-.46-30.32-25.41-54.54-55.75-54.09m12.19 34.594l10 27.19h.03l9.97-27.19 16.18.031-19.15 50.25h-14.03l-13.88-36.31h-14.22v36.34h-15.31v-36.4h-16.16v-13.879l56.57-.031" transform="translate(-33.968-1918.38)" fill="#d8e823"/><g fill="#fff"><path d="m488.54-1820.5h34.34v31.945h-34.34v34.542h-31.945v-34.542h-34.34v-31.945h34.34v-34.542h31.945v34.542"/><path d="m533.26-1854.7h-20.981v-27.566h53.751v130.19h-32.77v-102.62z"/></g></g></svg>