<svg xmlns="http://www.w3.org/2000/svg" viewBox="0 0 600 233.18"><g transform="translate(116.25 1950.36)"><g fill="#fff"><path d="m-26.399-1900.6h32.29v45.906h-32.29v130.89h-60.15v-130.89h-29.693v-45.906h29.693v-49.745h60.15v49.745"/><path d="m72.5-1872.5h-.737v-28.1h-56.53v176.79h60.15v-79.51c0-29.739 18.7-35.942 45.614-36.863v-60.55c-33.3.645-43.526 18.639-48.5 28.23"/><path d="m318.09-1723.8h-57.28v-21.494h-.737c-12.405 25.901-37.19 28.1-52.54 28.1-12.405 0-41.592-2.917-59.48-25.532-16.04-20.08-18.224-34.668-18.224-62.4v-95.47h60.55v86.35c0 13.864 0 40.502 32.503 40.502 17.487 0 34.637-13.956 34.637-46.08v-80.77h60.57v176.79z"/></g><path fill="#d8e823" d="m406.93-1868.5c-41.792.63-75.15 34.999-74.54 76.78.629 41.807 35.04 75.15 76.82 74.54 41.807-.63 75.17-34.984 74.54-76.78-.629-41.776-35.01-75.15-76.82-74.54m16.793 47.667l13.779 37.462h.043l13.736-37.462 22.305.043-26.395 69.24h-19.334l-19.12-50.04h-19.592v50.08h-21.1v-50.16h-22.262v-19.12l77.938-.043z"/></g></svg>