<svg xmlns="http://www.w3.org/2000/svg" height="152.47" viewBox="0 0 212.29592 152.46538" width="212.3"><path fill="#d80c02" d="m118.36 152.17c.102-.165.039-.3-.14-.3s-.453-.338-.61-.75c-.344-.905-.919-.958-1.65-.15-.656.725-1.521.777-1.892.114-.306-.547-2.626-.869-2.914-.404-.099.16-.358.291-.576.291-.45 0-.927-1.698-1.223-4.35-.279-2.498-.998-6.72-1.329-7.8-.152-.495-.426-2.962-.609-5.482-.183-2.52-.671-7.313-1.083-10.65-.412-3.338-1.013-8.228-1.334-10.868-.321-2.64-.659-6.96-.751-9.6-.17-4.873-.548-7.929-1.111-8.982-.302-.565-.328-.562-.87.108-.307.38-.556.979-.552 1.332.013 1.182-1.609 7.664-1.876 7.499-.145-.09-.219-.387-.165-.66.055-.273-.149-.701-.451-.949-.474-.389-.509-.635-.256-1.762.341-1.519.168-2.207-.521-2.064-.326.068-.468.375-.429.926.032.453-.407 1.794-.975 2.98-.568 1.186-1.033 2.322-1.033 2.525s-.354.724-.788 1.157l-.788.788.212-1.416c.15-.997.103-1.484-.158-1.645-.283-.175-.228-.516.23-1.443.347-.702.489-1.326.336-1.479-.332-.332.02-1.322.388-1.094.149.092.357-.057.462-.332.107-.278.017-.607-.202-.742-.322-.199-.311-.534.059-1.845.448-1.586.43-2.352-.054-2.352-.138 0-.545.886-.906 1.969-.802 2.412-1.032 2.394-.413-.032 1.126-4.406 1.021-4.149 1.449-3.564.371.507.408.503.72-.081.181-.338.451-1.159.601-1.824.249-1.11.213-1.235-.446-1.535-.538-.245-.679-.497-.564-1.01 1.122-4.934 3.457-18.19 3.458-19.639 0-.528.212-1.743.47-2.7.274-1.016.51-3.361.568-5.64.054-2.145.195-4.457.314-5.139.208-1.2.258-1.245 1.574-1.425 1.74-.239 5.305-.239 7.04-.002l1.348.185.368 3.04c.202 1.672.492 3.85.643 4.84.541 3.54 1.317 13.26 2.672 33.45.636 9.471 1.388 18.603 1.692 20.537l.187 1.187.563-.695c.653-.806.784-3.199.188-3.414-.27-.097-.14-.596.46-1.774 1.013-1.987 2.915-9.356 2.915-11.293 0-.769.27-2.108.6-2.976.633-1.665.818-3.842.3-3.522-.165.102-.3.042-.3-.132 0-.175.188-.318.417-.318.445 0 1.383-2.027 1.383-2.988 0-.804-.502-1.03-.872-.393-.417.716-.41.291.0001-.631.208-.456.503-.677.768-.575.276.106.496-.086.613-.533.167-.639.2-.649.383-.127.39 1.112 2.189-6.677 2.564-11.1.178-2.105.151-2.331-.222-1.847-.385.5-.462.508-.819.077-.217-.261-.324-.78-.237-1.152.828-3.551 4.11-20.06 4.111-20.678 0-.767.087-.81 2.027-1.019 1.765-.189 18.976.07 19.19.29.045.045.228.88.407 1.856.178.976 1.045 4.28 1.925 7.343 2.027 7.05 2.141 7.643 1.524 7.88-.333.128-.476.009-.476-.398 0-.319-.27-.725-.6-.901s-.6-.591-.6-.92c0-.746-.76-1.07-1.354-.577-.566.47-.566 1.41 0 2.497.244.467.586 1.379.76 2.025.174.646.446 1.175.605 1.175s.288.203.288.45c0 .541.35.58.835.095.195-.195.458-.251.585-.124.126.127-.154.561-.623.965-.986.849-.895 1.789.148 1.516.432-.113.811.045 1.177.491.537.654.542.655.986.058.429-.576.47-.545 1.02.75.316.743.948 2.335 1.405 3.54.457 1.204 1.154 2.574 1.549 3.043.395.469.719 1.239.719 1.71 0 .478 1.342 3.576 3.03 7.01 1.667 3.382 3.217 6.765 3.443 7.518.226.752.737 1.673 1.134 2.046.456.428.666.892.57 1.257-.121.463.006.579.634.579.58 0 .785-.154.785-.588 0-.324.274-.843.609-1.155.335-.312 1.226-1.768 1.98-3.237.754-1.468 3.097-5.64 5.205-9.27s4.693-8.32 5.745-10.422 2.081-3.823 2.287-3.825c.206-.002.375-.283.375-.624s1.238-2.941 2.751-5.775c4.01-7.505 6.958-13.316 7.74-15.238l.685-1.685 3.186-.197c2.812-.173 7.343.122 7.724.504.076.076-.063.593-.308 1.15-.245.557-.734 2.902-1.087 5.212-.353 2.31-1.299 8.05-2.102 12.75-1.599 9.362-2.272 14.239-2.567 18.6-.106 1.567-.444 3.779-.75 4.915-.312 1.157-.549 2.996-.538 4.184.014 1.507-.104 2.21-.409 2.435-.838.618-1.127 1.658-1.127 4.057 0 1.592-.147 2.659-.427 3.095-.507.789-.701 2.898-.324 3.523.229.379.195.383-.238.033-.63-.511-.694-.345-.948 2.464-.126 1.388-.071 2.194.167 2.481.277.333.237.554-.185 1.019-.366.404-.581 1.242-.673 2.619-.075 1.114-.27 2.191-.434 2.393-.179.221-.214 1.096-.087 2.192.174 1.497.121 1.925-.297 2.386-.446.492-.46.696-.117 1.645.321.888.322 1.196.002 1.707-.268.43-.293.72-.079.934.199.199.21.499.031.833-.154.287-.357 1.313-.452 2.279-.317 3.234-.427 3.633-1.048 3.795-.364.095-.593.41-.593.815 0 .464-.134.609-.45.488-.274-.105-.45 0-.45.268 0 .242.135.441.3.441s.3.202.3.45-.197.45-.438.45c-.255 0-.56.471-.73 1.125-.658 2.542-.887 3.595-1.073 4.95-.177 1.288-.138 1.425.401 1.425.363 0 .772.352 1.045.9.247.495.321.9.165.9s-.416-.346-.576-.768c-.37-.974-.725-.749-1.468.93-.693 1.567-1.448 1.742-2.589.601-.802-.802-.81-.85-.466-2.941.163-.991.126-1.518-.12-1.722-.401-.332-.75-.1-.75.5 0 .22-.279.679-.62 1.02-.461.461-.537.72-.296 1.01.237.286.203.49-.13.767-.38.315-.454.276-.454-.243 0-.341-.278-.814-.617-1.052l-.617-.432.668-3.184c.367-1.751.578-3.274.468-3.384-.11-.11-.538-.046-.951.142-.413.188-.747.244-.742.124.005-.12.198-1.569.429-3.219s1.033-7.657 1.784-13.35c.75-5.692 1.573-11.902 1.828-13.8 1.053-7.838 2.417-21.551 2.206-22.18-.246-.739-1.487.75-3.786 4.546-3.28 5.417-5.91 10.718-5.513 11.11.169.169 1.013.376 1.875.459 1.227.118 1.472.223 1.131.483-.24.183-.458.657-.484 1.055-.026.398-.21.823-.407.945s-.28.428-.183.68c.097.252-.018.619-.255.816-.237.197-.634 1.04-.881 1.873-.546 1.837-1.214 2.913-1.809 2.913-.815 0-.455.6.382.635.517.022.264.137-.675.308-.825.15-2.209.414-3.075.586l-1.575.314v3.353c0 2.749-.105 3.543-.579 4.403-.318.578-.714 1.34-.88 1.694l-.302.644-1.42-.719c-.781-.395-1.595-.719-1.809-.719-.214 0-.533-.27-.71-.6s-.519-.6-.761-.6c-.242 0-.442-.236-.444-.525-.004-.448-.047-.459-.29-.075-.157.248-.169.49-.027.539.142.049.192.345.11.658-.125.477-.24.512-.718.213-.313-.196-.569-.661-.569-1.033 0-.373-.135-.678-.3-.678s-.3.311-.3.69c0 .753-.634 2.304-.943 2.308-.106 0-.274-.209-.373-.467-.099-.258-.328-.378-.509-.266-.233.144-.313-.965-.276-3.806.06-4.559-.09-5.356-1.01-5.366-.352-.004-1.228-.274-1.948-.6-1.561-.708-2.993-.772-3.234-.143-.14.365-.842.45-3.708.45h-3.535l-.221 5.604c-.122 3.082-.138 6.626-.037 7.875.132 1.625.061 2.613-.248 3.471-.262.726-.44 2.384-.45 4.2-.021 3.637-.165 4.249-1.054 4.472-.379.095-.767.378-.863.628-.237.619.255 1.827.836 2.05.359.138.473.621.473 1.997 0 1.646-.07 1.848-.75 2.158-.433.197-.761.607-.776.969-.02.485-.084.432-.283-.23-.265-.885-1.108-1.993-1.517-1.993-.128 0-.452.22-.72.488-.385.385-.447.821-.292 2.059.19 1.521.171 1.576-.59 1.721-.433.083-.86.031-.95-.114-.09-.146-.289-.187-.443-.092-.154.095-.279-.038-.279-.295 0-.792-.821-.517-1.065.357-.198.709-.249.741-.365.225-.196-.875-.653-1.338-1.139-1.151-.664.255-.888-.767-.269-1.221.514-.376.512-.407-.037-.714-.553-.31-.577-.884-.631-15.268-.031-8.22-.168-15.486-.304-16.15l-.248-1.2-4.196-.15-4.196-.15.065-.9c.219-3.01 1.06-9.04 1.294-9.278.17-.171 1.177-.141 2.609.077 1.283.195 2.682.354 3.111.353 1.705-.004 1.661.378 2.036-17.702.512-24.676.474-26.705-.47-25.422-.546.743-1.281 4.396-2.035 10.122-.867 6.584-1.375 9.253-2.432 12.797-.401 1.346-.647 2.664-.545 2.929.102.265.02.681-.182.924-.202.243-.291.64-.199.881.093.241-.157 1.762-.555 3.379-1.245 5.06-4.093 18.16-4.358 20.04-.139.99-.474 2.407-.744 3.15s-.54 2.43-.6 3.75c-.137 3.01-1.077 7.907-3.572 18.6-1.078 4.62-1.963 8.649-1.966 8.953-.003.304-.276.624-.606.71-.699.183-.816.987-.144.987.328 0 .412.211.3.75-.086.412-.227 1.093-.315 1.512-.087.419-.289.682-.447.584-.159-.098-.517.301-.797.888-.28.586-.626 1.066-.77 1.066s-.179-.135-.077-.3zm25.35-10.05c0-.412-.135-.75-.3-.75s-.3.338-.3.75.135.75.3.75.3-.338.3-.75m2.281-1.269c-.305-.305-.557.154-.306.559.189.306.26.306.361 0 .07-.208.045-.461-.055-.56m-2.617-1.356c-.019-.536-.124-1.38-.231-1.875-.256-1.178-.606-.618-.838 1.343-.165 1.395-.131 1.507.463 1.507.531 0 .636-.168.606-.975m42.03-1.143c0-.155-.135-.282-.3-.282s-.3.21-.3.468c0 .257.135.384.3.282s.3-.312.3-.468m-36.31-2.617c.0001-.745-.616-1.135-1.363-.849-.43.165-.43.224 0 .654.26.26.472.826.472 1.258 0 .755.017.763.44.204.242-.32.445-.89.45-1.267m-1.072-2.041c.112-.292.045-.429-.174-.356-.448.149-.695.831-.301.831.161 0 .375-.214.475-.475m-.08-.95c.206-1.209.179-1.827-.105-2.4-.698-1.408-1.07-.435-.645 1.688.167.837.651 1.297.751.713m-29.858-16.95c.249-2.122-.315-2.396-.618-.3-.113.784-.28 1.763-.371 2.175-.149.676-.119.706.31.3.263-.248.567-1.224.679-2.175m.87-3.396c0-.314-.219-.613-.486-.665-.375-.072-.452.083-.338.683.167.876.824.861.824-.019m40.08-1.629c.316 0 .575-.135.575-.3s-.338-.3-.75-.3c-.758 0-1.038-.454-.409-.664.244-.081.226-.298-.064-.761-.549-.88-.084-1.26.508-.415.58.828 1.398.727 1.464-.181.047-.64-.047-.668-2-.609-1.127.034-2.05.133-2.051.221 0 .088.303.867.675 1.731.437 1.015.818 1.52 1.076 1.425.22-.081.658-.147.975-.147m2.294-.481c-.1-.1-.358-.11-.575-.024-.239.096-.168.167.181.181.316.013.493-.058.394-.158m-3.669-3.719c-.102-.165-.38-.3-.618-.3-.238 0-.432.135-.432.3s.278.3.618.3c.34 0 .534-.135.432-.3m.825-1.999c-.206-.083-.544-.083-.75 0s-.037.151.375.151.581-.068.375-.151m-37.725-.401c.102-.165.093-.449-.02-.632-.202-.326-.715.174-.726.707-.007.329.529.275.745-.075m32.475-1.522c.371.015 1.316.056 2.1.091.784.035 1.813-.041 2.288-.168l.863-.232-.583-.66c-.95-1.076-1.631-2.307-1.443-2.61.096-.156-.042-.614-.306-1.017s-.439-.981-.387-1.284c.056-.33-.086-.549-.356-.549-.564 0-.889-.429-.895-1.181-.002-.319-.275-.868-.605-1.22-.33-.352-.932-1.485-1.337-2.519-.584-1.489-.666-1.993-.395-2.425.268-.429.229-.717-.183-1.346-.403-.616-.444-.895-.178-1.216.439-.529.132-1.043-.623-1.043-.545 0-.582.237-.581 3.675 0 2.02.09 6.02.198 8.876l.197 5.201.777-.201c.427-.11 1.081-.188 1.452-.173m-4.725-1.178c0-.401-.2-.6-.603-.6-.527 0-.556.075-.228.6.206.33.477.6.603.6.125 0 .228-.27.228-.6m.799-.675c-.083-.206-.151-.037-.151.375s.068.581.151.375c.083-.206.083-.544 0-.75m-27.499-2.757c0-.403-.135-.816-.3-.918-.175-.108-.3.197-.3.732 0 .505.135.918.3.918s.3-.33.3-.732m26.4.072c0-.485-.089-.571-.334-.326-.184.184-.243.481-.132.66.31.502.466.39.466-.334m-48.39-4.205c-.083-.206-.151-.037-.151.375s.068.581.151.375c.083-.206.083-.544 0-.75m-1.999-3.225c0-.165-.135-.3-.3-.3s-.3.135-.3.3.135.3.3.3.3-.135.3-.3m0-6.117c0-1.656-.545-1.032-.768.879-.162 1.387-.142 1.448.297.906.259-.32.471-1.124.471-1.785m51.48.799c-.305-.305-.557.154-.306.559.189.306.26.306.361 0 .07-.208.045-.461-.055-.56m11.519-.214c0-.238-.135-.516-.3-.618s-.3.093-.3.432c0 .34.135.618.3.618s.3-.195.3-.432m-62.794-3.987c-.076-.292-.143-.126-.149.369-.006.495.056.734.138.531s.087-.608.011-.9m54.27-2.406c-.327-.327-.451.101-.243.839l.207.737.105-.701c.058-.385.027-.779-.069-.875m-1.974.232c0-.4-1.248-1.207-1.867-1.207-.714 0-.677.502.067.9.33.177.6.524.6.771 0 .357.124.384.6.129.33-.177.6-.444.6-.594m1.8-15.324c0-.155-.202-.282-.45-.282-.464 0-.596.354-.258.692.24.24.708-.031.708-.41m-12.9-4.332c0-.248-.202-.45-.45-.45s-.45.203-.45.45.202.45.45.45.45-.203.45-.45m-127.31 86.62c-.076-.124.252-2.385.729-5.03 1.379-7.628 2.907-19.253 5.678-43.2.825-7.127 2.071-16.15 3.128-22.65.228-1.403.494-4.305.591-6.45.097-2.145.382-5.587.635-7.65 1.275-10.421 1.638-13.741 1.961-17.967.294-3.848.285-4.648-.057-4.864-.225-.143-5.843-.262-12.485-.264l-12.07-.005-.008-1.275c-.004-.742.655-3.348 1.552-6.139l1.559-4.854 2.123-.157c1.168-.086 6.478-.27 11.8-.408 7.851-.204 9.755-.334 10.09-.689.286-.303.705-3.397 1.36-10.04.521-5.28 1.094-10.661 1.274-11.958l.328-2.357 2.886.198c3.18.218 7.618.75 7.803.935.335.335-1.019 17.316-1.657 20.796-.384 2.095-.394 2.577-.061 2.894.32.304 3.264.324 14.72.101 11.876-.232 23.678-.205 29.78.068.66.03 14.206-.053 30.1-.184 24.731-.204 28.94-.177 29.16.185.219.355 2.067.406 11.477.317 8.605-.081 11.356-.018 11.817.269.478.299 2.789.304 11.37.027 9.825-.318 37.04-.413 34.661-.121-.68.083-1.058.312-1.16.702-.096.367-.412.578-.866.578-.515 0-.715.168-.715.6 0 .439.2.6.746.6h.746l-.561.923c-.507.833-.519 1.01-.125 1.798.527 1.057.269 2.079-.525 2.079-.921 0-.678.507.612 1.277l1.192.711-5.756.339c-4.148.245-5.866.248-6.149.013-.288-.239-.652-.199-1.36.15-.855.421-5.907.532-43.567.958-23.43.265-46.11.624-50.4.799s-21.05.404-37.25.51c-16.198.106-29.521.264-29.607.35-.264.264-1.641 8.263-2.283 13.266-.334 2.598-.946 8.2-1.361 12.45-1.094 11.197-2.117 19.24-3.615 28.427-.726 4.455-1.931 13.702-2.678 20.55-1.909 17.512-3.754 29.922-4.389 29.529-.147-.09-.266-.51-.266-.932 0-.62-.116-.737-.6-.61-.402.105-.6.009-.6-.29 0-.759-.744-.248-.843.579-.051.429-.287.941-.525 1.139-.36.299-.432.208-.432-.541 0-.495-.206-1.071-.457-1.28-.546-.453-.478-.517-1.442 1.356l-.773 1.5-.014-1.01c-.012-.859-.103-.987-.614-.853-.445.116-.6.009-.6-.415 0-1.138-1.528-.4-1.955.944-.108.339-.024.818.186 1.071.31.373.301.508-.05.726-.332.206-.354.392-.098.806.549.887-.008 1.881-1.056 1.881-.491 0-.954-.101-1.031-.225zm4.211-10.494c-.076-.292-.143-.126-.149.369-.006.495.056.734.138.531s.087-.608.011-.9m126.6-100.62c.246-.246.74-.23 1.866.058 1.325.34 1.593.331 1.987-.063.395-.395.7-.404 2.319-.065 2.729.572 8.999.53 10.156-.069.83-.429.96-.429 1.434 0 .287.26.624.371.749.247.125-.124 2.489-.226 5.253-.226 3.801 0 5.147-.1 5.52-.409.419-.347.519-.343.66.024.136.355 1.091.429 5.329.409 2.839-.013 5.588.071 6.108.188.835.187.967.126 1.131-.525.207-.824.702-.972.965-.287.205.535 1.825.595 3.504.129.846-.235 1.257-.226 1.571.035.238.197.858.283 1.405.195 3.971-.641 5.635-.798 6.672-.628 1.027.168 1.142.134.828-.245-.487-.587-.181-.835 1.029-.835.55 0 1-.13 1-.289 0-.541-1.254-.967-2.282-.774-.785.147-1.018.089-1.018-.252 0-.564.974-.879 2.032-.657 1.062.223 1.871-.244 1.341-.775-.834-.834-.437-1.238 1.051-1.07 1.337.151 2.477-.134 2.477-.618 0-.209-3.668-.351-8.585-.332-2.027.008-2.468-.077-2.632-.504-.108-.282-.152-.558-.097-.613.055-.055.932.055 1.95.244 1.995.371 3.365.058 3.365-.77 0-.705-1.38-.826-3.462-.303-1.541.387-2.135.421-2.719.155-1.179-.537-11.425-.453-13.01.107-1.048.37-1.628.388-3.33.107-1.582-.261-2.162-.257-2.494.019-.541.449-3.462.54-3.732.117-.136-.214-1.293-.225-3.65-.037-1.898.151-3.855.263-4.35.248-6.263-.191-11.517-.023-12.528.399-1.328.555-1.552 1.279-.297.96.454-.115 1.095-.192 1.425-.171s2.02.102 3.75.179c1.732.077 3.454.208 3.825.291.911.204.88 1.04-.038 1.04-.707 0-1.316.472-1.357 1.05-.012.165-.664.335-1.451.378l-1.429.078.825-.523c1.153-.73 1.028-1.096-.3-.876-.619.102-1.361.187-1.65.189-.324.002-.525.233-.525.603 0 .33-.135.6-.3.6s-.299.169-.297.375c.002.262.747.402 2.475.465 2.951.107 4.231-.091 4.9-.761.463-.463.558-.462 1.386.013.832.477 1.021.478 2.935.016 1.14-.275 2.291-.393 2.598-.266.366.151.426.275.177.368-1.136.424.027.695 3.15.733l3.525.043-3.15.267c-1.732.147-3.916.198-4.852.114-1.189-.106-1.743-.041-1.838.216-.106.289-.22.288-.533-.007-.53-.5-.877-.474-.877.068 0 .351-.159.382-.77.15-.423-.161-1.161-.293-1.641-.293-.703 0-.834.102-.68.525.172.471.125.467-.459-.047-.575-.505-.651-.514-.651-.075 0 .273-.202.496-.45.496s-.45.149-.45.332c0 .197-.214.246-.525.121-1-.402-4.664-.753-4.997-.478-.18.149-2.208.282-4.507.297-3.174.02-4.338-.077-4.84-.406-.364-.238-.913-.416-1.221-.394-.308.021-.923-.054-1.367-.167-.451-.115-.889-.073-.993.095-.102.166.058.306.357.312.432.008.39.098-.207.439l-.75.429.75.023c.412.013 1.222.282 1.8.598 1.254.687 1.288.692 1.714.266m38.936-2.642c-1.121-.176-1.063-.202.9-.404 2.644-.272 4.209-.279 3.948-.019-.111.111-.775.231-1.475.267-.7.036-1.476.128-1.724.205s-.99.055-1.65-.049m6.289-.906c.096-.155-.065-.421-.357-.591-.724-.422-.286-.408.655.021.921.42.996.852.146.852-.34 0-.539-.127-.444-.282m5.261 0c0-.156.502-.204 1.125-.108 1.558.24 1.605.389.125.389-.688 0-1.25-.127-1.25-.281m-29.325-2.326c.289-.075.761-.075 1.05 0s.053.137-.525.137-.814-.062-.525-.137m8.869-.898c.217-.087.475-.076.575.024.1.1-.077.171-.394.158-.349-.014-.421-.085-.181-.181m7.406-.412c1.656-.343 4.108-.33 3.3.017-.33.142-1.477.252-2.55.244-1.811-.012-1.864-.031-.75-.262m6.6.017c-1.161-.208-1.144-.216.507-.257.939-.023 1.791.092 1.893.257.205.331-.55.331-2.4 0m18.75 5.643c0-.394-.682-.147-.831.301-.073.219.064.286.356.174.261-.1.475-.314.475-.475m-.3-.843c.565-.442.629-.588.258-.593-.27-.004-.81.259-1.2.583-.958.798-.077.807.942.0001m-59.4-.9c0-.165-.641-.281-1.425-.257l-1.425.043 1.2.215c.66.118 1.301.234 1.425.257.124.023.225-.092.225-.257m5.55 0c.117-.189-.597-.3-1.932-.3-1.212 0-2.118.128-2.118.3 0 .169.844.3 1.932.3 1.063 0 2.02-.135 2.118-.3m-14.612-.3c1.036 0 1.045-.011.512-.6-.671-.742-1.392-.754-3.231-.056-1.694.643-1.509 1.087.348.835.724-.098 1.791-.179 2.371-.179m3.362-.439c0-.37-.843-1.061-1.295-1.061-.219 0-.454 1.151-.272 1.333.361.361 1.567.152 1.567-.272m64.784.156c.342-.216.265-.317-.358-.474-.866-.217-1.537.036-1.264.478.219.355 1.057.352 1.621-.005m1.516-.616c0-.165-.135-.3-.3-.3s-.3.135-.3.3.135.3.3.3.3-.135.3-.3m-69.3-1.8c0-.165-.262-.3-.582-.3-.32 0-.666.135-.768.3-.105.17.147.3.582.3.422 0 .768-.135.768-.3m71.925-.675c-.069-.206-.305-.375-.525-.375s-.456.169-.525.375c-.074.223.138.375.525.375s.599-.152.525-.375m-3.912-1.611c.07-.212-.171-.282-.651-.19-.419.08-.762.274-.762.432 0 .393 1.276.175 1.413-.242m-2.163-.414c-.102-.165-.582-.3-1.068-.3s-.882.135-.882.3.48.3 1.068.3c.635 0 .993-.121.882-.3m-169.36 119.48c0-.325 2.254-20.728 2.842-25.722.252-2.145.872-7.815 1.378-12.6.505-4.785 1.12-10.185 1.365-12 .407-3.01 2.187-16.871 4.668-36.34.529-4.15 1.132-7.778 1.34-8.06.358-.489.611-.49 4.56-.019 8.665 1.033 13.621 2.846 17.436 6.378 1.934 1.79 2.157 2.127 2.831 4.259 1.151 3.644 1.48 5.896 1.472 10.09-.012 6.03-1.059 9.666-3.964 13.771-1.261 1.783-1.984 2.508-2.913 2.921-.679.303-1.405.754-1.612 1-.207.249-.562.453-.79.453-.227 0-.683.27-1.013.6-.727.727-.787 2.289-.161 4.2.243.743.641 2.565.884 4.05.243 1.485.856 4.388 1.362 6.45.506 2.063 1 4.56 1.101 5.55s.505 2.725.902 3.855c.753 2.144 1.438 5.961 1.759 9.795.246 2.94.74 6.905.947 7.601.144.483.084.508-.49.201-.36-.193-.744-.261-.853-.151-.24.24.806 1.05 1.358 1.05.216 0 .393.19.393.422 0 .274-.21.367-.6.265-.732-.191-.744-.028-.089 1.203l.511.96.167-.899.167-.899.359 1.199c.197.659.444 1.736.549 2.393.104.657.343 1.467.531 1.8.371.658 1.055 3.519 1.087 4.539.016.517-.118.607-.731.49-.55-.105-.75-.014-.75.342 0 .848-.518.522-.711-.447-.134-.668-.314-.883-.638-.759-.283.108-.451-.002-.451-.296 0-.258-.27-.539-.6-.626-.432-.113-.6-.409-.6-1.057 0-.8-.084-.884-.757-.755-.416.08-.826.034-.91-.102-.084-.136-.351-.171-.593-.078-.341.131-.44-.095-.44-.996 0-.641-.233-1.498-.517-1.904-.285-.406-.481-1.018-.436-1.36.045-.342-.082-1.018-.281-1.503-.199-.485-.335-1-.302-1.144.033-.144-.127-.482-.356-.75-.536-.626-.901-1.631-.505-1.385.177.109.297-.316.297-1.056 0-1.016-.094-1.222-.522-1.139-1.206.232-1.798-1.303-1.992-5.156-.046-.907-.255-1.97-.465-2.362-.21-.391-.305-1.097-.21-1.569.132-.661.033-.932-.434-1.182-.432-.231-.55-.5-.411-.939.111-.348-.033-1.12-.331-1.781-.429-.951-.604-1.101-.951-.813-.316.262-.374.726-.227 1.799.128.934.088 1.446-.115 1.446-.314 0-.937-1.816-.941-2.738 0-.269-.204-.973-.452-1.565-.248-.592-.45-1.41-.45-1.817 0-.407-.157-1.12-.348-1.585-.191-.464-.318-1.026-.28-1.249.037-.222-.12-.627-.35-.9-.529-.628-.968-2.198-1.539-5.517-.423-2.456-1.148-4.548-1.694-4.885-.238-.147-.566 1.126-1.158 4.507-.174.99-.798 6.188-1.388 11.55-.59 5.362-1.403 11.354-1.807 13.314-.404 1.96-.74 4.323-.746 5.25-.011 1.597-1.079 7.673-1.154 6.561-.056-.843-.6-.606-1.032.45-.396.968-.402.97-.761.3-.53-.987-.89-.827-1.018.45l-.113 1.125-.243-.975c-.211-.847-.764-1.386-.77-.75 0 .124-.406.455-.9.736-.494.281-.898.716-.898.966 0 .263-.174.388-.413.296-.262-.1-.483.121-.605.606-.105.42-.561.988-1.012 1.261-.451.273-1.191.751-1.645 1.063-.454.311-.825.455-.825.32m34.564-5.118l-.274-1.508.714.468c.958.628 1.108.382.666-1.092-.348-1.161-1.125-1.59-.933-.515.049.272-.031.494-.177.494-.388 0-.884-1.23-1.114-2.761-.11-.737-.317-1.527-.458-1.755-.48-.777-.668-.012-.328 1.338.186.739.339 1.635.339 1.989 0 .745 1.52 5.169 1.711 4.978.07-.07.004-.806-.147-1.636m-1.564-.337c0-.101-.185-.45-.412-.775s-.505-1.021-.619-1.546c-.261-1.199-.947-1.838-1.442-1.343-.263.263-.232.347.128.347.464 0 .833.822.841 1.875.002.289-.203.525-.456.525-.354 0-.392.128-.166.55.273.51 2.127.83 2.127.367m-5.834-14.09c-.345-.558-.718-.358-.548.294.106.404.264.518.456.326.162-.162.203-.44.092-.62m4.03-1.301c-.006-.993-.327-2.025-.631-2.025-.146 0-.263.304-.261.675.006.993.328 2.025.631 2.025.146 0 .263-.304.261-.675m.935-2.114c-.385-.385-.776-.088-.49.374.11.179.338.24.506.136.205-.127.2-.294-.016-.51m-4.531-3.229c0-.155-.135-.282-.3-.282s-.3.21-.3.468c0 .257.135.384.3.282s.3-.312.3-.468m-4.455-6.432c0-.157-.145-.333-.322-.392-.177-.059-.322.118-.322.392s.145.452.322.392c.177-.059.322-.236.322-.392m-5.312-20.522c.092-.15.422-.205.733-.124.311.081 1.017-.086 1.571-.373 1.119-.579 3.613-2.582 3.436-2.76-.063-.062-.68.175-1.372.528-2.396 1.222-1.563.176 1.612-2.026 1.344-.932 1.95-1.713 1.6-2.062-.089-.089-.448.124-.798.474s-.76.559-.912.465c-.334-.207-.054-1.051.349-1.051.158 0 .246-.238.197-.528-.049-.291.549-1.489 1.329-2.662 3.839-5.774 5.566-10.423 5.837-15.709.18-3.52-.241-5.789-1.558-8.389-.582-1.149-1.366-1.956-3.367-3.465-1.434-1.082-2.816-1.927-3.071-1.878-.885.17-1.232 1.694-1.536 6.738-.385 6.38-.933 10.905-2.1 17.344-1.697 9.357-2.68 14.996-2.68 15.375 0 .434.485.503.732.103m35 48.682c-.956-1.357-1.37-1.437-1.582-.308-.099.526-.143.523-.889-.065-.432-.34-.881-.522-1-.404-.316.316-1.066-.839-1.066-1.642 0-.541.166-.693.759-.693.418 0 .838-.204.934-.454.224-.583-.443-1.392-1.064-1.29-.647.106-1.229-.293-1.229-.842 0-.248.136-.366.302-.263.537.332.729-.814.201-1.199-.272-.199-.437-.418-.367-.488.07-.07-.021-1.588-.201-3.374-.24-2.375-.239-3.302.005-3.453.239-.148.211-.583-.102-1.546-.329-1.016-.619-6.615-1.194-23.09-.418-11.963-.976-27.536-1.24-34.608-.4-10.69-.413-12.9-.082-13.11.846-.523 9.04-1.258 9.305-.835.097.153.262 6.04.366 13.09.104 7.05.325 13.552.491 14.46.561 3.056.91 10.297.913 18.908.003 7.4.069 8.652.489 9.252l.486.694.564-1.26c.31-.693.564-1.415.564-1.604 0-.19.612-.565 1.359-.833 1.258-.453 1.35-.452 1.226.002-.073.27-.293 1.436-.489 2.591-.195 1.155-.486 2.349-.647 2.654-.212.403-.16.699.191 1.087.447.493.437.545-.13.693-.337.088-.612.375-.612.638 0 .276-.25.478-.593.478-.7 0-1.422.999-1.69 2.341-.21 1.048.022 1.175.915.5.32-.242.78-.44 1.022-.44.359 0 .346.103-.075.568-.299.331-.687 1.636-.928 3.124-.228 1.406-.578 2.819-.779 3.14-.293.47-.278.708.079 1.217.323.461.391 1.042.251 2.136-.116.907-.069 1.627.12 1.816.217.217.205.486-.04.878-.597.956-.131 2.679.862 3.193.837.433.849.47.409 1.321-.249.482-.453 1.22-.453 1.641 0 .927-.465 1.012-.697.128-.32-1.226-2.603-.09-2.603 1.294 0 .42.237.543 1.05.543.962 0 1.05.074 1.05.882 0 1.141-.526 1.467-.774.48-.195-.778-.834-1.017-1.188-.444-.108.175-.022.74.192 1.255.311.752.313.962.0001 1.063-.208.069-.502.45-.652.845-.15.395-.386.719-.523.719s-.69-.625-1.229-1.389zm-.637-3.244c0-.238-.135-.516-.3-.618s-.3.093-.3.432c0 .34.135.618.3.618s.3-.195.3-.432m6.919-24.941c.325-.392.319-.52-.038-.745-.237-.15-.694-.275-1.016-.277-.455-.004-.505-.085-.225-.365.198-.198.36-.556.36-.796 0-.346-.124-.325-.6.106-.819.741-.78 1.897.075 2.241.938.377 1 .37 1.444-.164m-31.644 23.313c-.129-.209-.154-.461-.055-.56.268-.268.561.126.416.561-.102.305-.172.305-.361 0m31.749-7.727c.433-2.454 1.117-4.434 1.383-4 .153.248.129.575-.058.8-.231.278-.186.432.167.567.562.216.646.917.131 1.089-.194.065-.499.639-.678 1.276-.456 1.625-1.223 1.844-.945.27m81.8-3.889c.014-.349.085-.421.181-.181.087.217.076.475-.024.575-.1.1-.171-.078-.158-.394m-117.6-2.1c.014-.349.086-.421.181-.181.087.217.076.475-.024.575-.1.1-.171-.078-.158-.394m-1.386-1.045c-.275-.445-.016-.63.568-.406.27.104.417.309.325.457-.225.363-.652.339-.893-.051m38.11-2.98c-.102-.165-.042-.3.132-.3.175 0 .318.135.318.3s-.059.3-.132.3-.216-.135-.318-.3m-.6-1.5c-.106-.171.153-.3.6-.3.447 0 .706.129.6.3-.102.165-.372.3-.6.3-.228 0-.498-.135-.6-.3m1.397-6c0-.412.068-.581.151-.375.083.206.083.544 0 .75s-.151.037-.151-.375m29.397-26.395c-.029-.86 1.362-8.101 1.602-8.341.231-.231.218-.134-.458 3.435-.967 5.106-1.116 5.745-1.144 4.906m31.632-13.671c-.11-.44-.133-.867-.051-.949.083-.082.24.21.351.649s.133.867.051.949c-.083.082-.24-.21-.351-.649"/></svg>