<svg xmlns="http://www.w3.org/2000/svg" height="574.35" width="600" viewBox="0 0 158.75 151.96292"><g transform="translate(194.25-587.95)" fill="#2ab0df"><path d="m-35.558 677.34c.732 7.84-5.04 14.78-12.876 15.51-7.845.72-14.778-5.04-15.509-12.87-.721-7.85 5.04-14.79 12.876-15.51 7.845-.73 14.778 5.04 15.509 12.87"/><path d="m-97.84 723.75l-41.04-45.77c-.54-.61-.49-1.53.12-2.08l13.3-11.98c3.99-3.57 4.31-9.7.73-13.68-3.57-3.99-9.7-4.31-13.68-.73l-21.21 19.07c-.15.12-.28.23-.4.35-.14.12-.27.24-.4.37l-21.23 19.09c-3.98 3.58-4.31 9.72-.73 13.69 3.57 3.98 9.7 4.31 13.69.73l13.31-11.97c.59-.53 1.49-.5 2.04.05l41.08 45.81c3.58 3.99 9.71 4.31 13.69.73 3.984-3.58 4.31-9.7.731-13.68"/><path d="m-103.83 634.41l-19.08-21.21c-.11-.14-.23-.27-.35-.41-.11-.13-.24-.26-.37-.38l-19.09-21.24c-3.58-3.98-9.71-4.31-13.69-.73s-4.31 9.71-.73 13.68l12 13.35c.51.59.47 1.46-.07 2.01l-45.82 41.09c-3.98 3.58-4.31 9.7-.73 13.69 3.58 3.98 9.7 4.31 13.69.73l45.76-41.04c.61-.55 1.53-.49 2.08.1l11.98 13.32c3.58 3.98 9.7 4.31 13.68.73 3.99-3.58 4.31-9.7.74-13.69"/><path d="m-80.38 625.7c-5.357 0-9.691 4.33-9.691 9.69l1.103 59.22v.27c-.022.31-.281.54-.585.54-.157 0-.292-.05-.394-.14-.011-.02-.079-.08-.079-.08l-19.13-23.72c-3.56-3.99-9.68-4.35-13.68-.79s-4.35 9.68-.8 13.68l28.21 31.64c.461.53.979.99 1.531 1.39 2.442 1.96 5.548 3.14 8.925 3.14 7.552 0 13.732-5.88 14.215-13.32.046-.37.068-.75.068-1.13v-70.7c0-5.36-4.333-9.69-9.691-9.69"/></g></svg>