<svg xmlns="http://www.w3.org/2000/svg" height="506.91" width="600" viewBox="0 0 158.75 134.11993"><g transform="translate(67.24 90.58)"><path d="m.778-49.83c.492-9.431.773-35.937-25.558-40.472-24.395-4.203 3.3 40.08 3.3 40.08s-4.966-24.833-27.642-21.816c-20.713 2.753 13.314 27.397 13.314 27.397s-5.814-11.841-20.06-2.277c-12.483 8.382 21.06 17.07 22.733 14.12 1.669-2.955 33.914-17.02 33.914-17.02" fill="#e5007d"/><path d="m-32.28-47.599c-4.262 2.91-13.196 11.696-2.845 25.753 7.63 10.362 20.07 19.2 29.898 13.876 5.993-3.245 17.853-13.852 9.164-22.822-9.507-9.81-36.22-16.807-36.22-16.807" fill="#1f5ea9"/><path d="m.22-35.668c2.848 3.115 11.997 6.383 18.11-1.592 5.358-6.987-2.482-15.483-5.02-16.577-3.324-1.428-11.834-1.806-14.703 5.744-2.297 6.04-.217 10.426 1.607 12.425" fill="#fff"/><path d="m1.197-42.17c.675.853 2.836 1.944 4.469-.057 2.128-2.596-.15-4.04-.78-4.37-.827-.423-3-.672-3.875 1.208-.699 1.512-.247 2.677.185 3.219"/><path d="m.695-45.974l2.437 1.909-2.993.261z" fill="#fff"/><path d="m-3.73-47.553c.321-1.053.754-2.152 1.343-3.283 4.512-8.665 14.684-7.02 18.478-4.828 1.768 1.02 6.33 4.15 7.203 9.109z" fill="#a0c7eb"/><path d="m10.964-29.15l6.519 11.08c-25.47 7.832-41.939-1.462-41.939-1.462l17.218-9.942z" fill="#ebb510"/><path d="m8.428-29.398l-3.264.062.057.083 3.333.06z" fill="#dddee0"/><path d="m5.164-29.336l-2.218.043 2.277.04z" fill="#1f5ea9"/><path d="m2.946-29.29l-8.822.166-11.674 8.537s4.386 2.339 12.794 2.339c4.771 0 10.838-.753 18.13-3.116l-4.821-7.826-3.333-.06z" fill="#ebb510"/><path d="m-.584-39.697s5.33-3.25 14.14-2.561c11.517.899 13.464 2.991 13.464 2.991s-6.511 12.449-21.913 17.765c-18.252 6.302-29.563 1.968-29.563 1.968l17.437-11.584c0 0 3.542 3.216 6.435-8.579" fill="#fcea00"/><path d="m-26.07-24.95c5.125 3.385 18.649 5.446 23.924-8.194 6.844-17.701-7.947-21.454-11.91-22.09-5.196-.835-17.339 1.664-18.701 13.329-1.089 9.335 3.404 14.788 6.687 16.956" fill="#fff"/><path d="m-28.565-34.17c1.034 1.134 4.186 2.46 6.295-.523 2.745-3.873-.614-5.689-1.539-6.086-1.205-.518-4.3-.656-5.341 2.09-.837 2.196-.081 3.794.585 4.519"/><path d="m-30.331-39.789l4.094 2.776-4.731.744z" fill="#fff"/><path d="m-35.762-38.26c-.002-1.443.114-2.97.416-4.622 2.302-12.554 15.647-14.406 21.23-13.13 2.598.589 9.504 2.743 12.499 8.603z" fill="#a0c7eb"/><g fill="#e5007d"><path d="m-43.88-5.807c1.243-2.684 4.417-10.355-2.707-14.748-6.602-4.068-3.718 12.04-3.718 12.04 0 0 1.454-7.797-5.489-9.568-6.345-1.616.672 9.518.672 9.518s-.309-4.12-5.565-3c-4.607.979 4.129 7.419 4.962 6.756.829-.663 11.845-.991 11.845-.991"/><path d="m38.56-2.726c1.196-.057 2.211.868 2.268 2.063l1.555 35.387c.054 1.196-.868 2.211-2.064 2.27l-8.967.806c-1.195.057-2.21-.868-2.267-2.063l-1.555-35.388c-.055-1.196.868-2.211 2.063-2.27z"/></g><path d="m-8.707 2.584l-6.875-.076c-1.301-.014-2.366 1.027-2.382 2.327l-.2 18s-.09.832-.675 1.457c-.961 1.032-2.337 1.429-5.934 1.207-1.343-.083-2.498-.627-3.242-1.466-.473-.537-.293-1.555-.293-1.555l-.114-17.708c-.009-1.3-1.069-2.346-2.37-2.339l-6.875.045c-1.3.007-2.348 1.067-2.341 2.37l.149 22.976c-.149 3.984 5.368 7.819 10.743 8.377 21.723 2.254 22.474-7.478 22.481-8.265l.257-22.976c.014-1.3-1.027-2.365-2.33-2.38" fill="#ebb510"/><path d="m-33.602-4.67c-.017-1.369-1.141-2.468-2.513-2.453l-28.669.742c-1.372.017-2.47 1.139-2.454 2.51l.554 10.291c.017 1.372 1.141 2.47 2.513 2.456l7.702-.2.183 25.18c.007 1.369 1.125 2.477 2.499 2.468l7.245-.048c1.372-.001 2.475-1.129 2.468-2.498l-.128-25.413 8.7-.226c1.369-.017 2.47-1.141 2.453-2.513z" fill="#1f5ea9"/><path d="m33.19 35.826l-17.81-17.658 14.348-16.636c.987-1.131.875-2.845-.256-3.832l-2.023-1.921c-1.127-.989-2.843-.872-3.832.257l-12.352 14.323-.024-12.554c-.012-1.5-1.234-2.708-2.734-2.698l-8.843.026c-1.498.001-2.705 1.231-2.698 2.734l.086 42.69c.001 1.5 1.231 2.707 2.734 2.698l8.841-.026c1.498-.001 2.708-1.234 2.698-2.732l-.026-12.559 14.926 14.799c1.058 1.062 2.777 1.067 3.84.007l3.116-3.079c1.063-1.058 1.065-2.776.001-3.839" fill="#aac811"/><path d="m88.08 29.744c-4.5 6.134-19.338 14.343-31.33.764-15.563-17.638.013-28.358 4.348-30.802 5.686-3.209 20.866-5.521 27.468 7.452 5.278 10.384 2.399 18.659-.487 22.586" fill="#fff"/><g fill="#1f5ea9"><path d="m70.812 6.951v20.2l-.382.382h-.62l-.355-.382v-9.6h-12.492v9.6l-.356.382h-.62l-.382-.382v-20.2l.382-.382h.62l.356.382v9.329h12.492v-9.329l.355-.382h.62z"/><path d="m88.27 14.363v5.376c0 4.816-3.07 7.794-8.565 7.794h-6.02l-.389-.382v-20.2l.389-.382h6.02c5.495 0 8.565 2.978 8.565 7.795m-8.532-6.523h-5.08v18.428h5.08c4.605 0 7.175-2.424 7.175-6.529v-5.376c0-4.105-2.543-6.523-7.175-6.523"/></g></g></svg>