<svg xmlns="http://www.w3.org/2000/svg" height="634.76" width="600" viewBox="0 0 158.75 167.94796"><g transform="translate(5.19 7.821)"><path d="m79.981 43.21c.618-11.807.967-45-32.01-50.68-30.545-5.261 4.132 50.18 4.132 50.18s-6.217-31.1-34.614-27.32c-25.936 3.45 16.673 34.31 16.673 34.31s-7.281-14.83-25.12-2.852c-15.631 10.495 26.372 21.373 28.467 17.676 2.091-3.7 42.468-21.319 42.468-21.319" fill="#e5007d"/><path d="m38.588 46.01c-5.336 3.643-16.523 14.648-3.562 32.25 9.555 12.977 25.13 24.03 37.438 17.373 7.506-4.062 22.356-17.345 11.476-28.576-11.903-12.286-45.35-21.05-45.35-21.05" fill="#1f5ea9"/><path d="m79.28 60.946c3.565 3.902 15.02 7.992 22.688-1.995 6.7-8.749-3.113-19.388-6.289-20.755-4.162-1.792-14.819-2.262-18.412 7.189-2.875 7.568-.272 13.06 2.01 15.561" fill="#fff"/><path d="m80.51 52.807c.846 1.068 3.55 2.436 5.597-.071 2.665-3.25-.19-5.059-.979-5.471-1.033-.53-3.761-.843-4.85 1.513-.876 1.892-.311 3.35.232 4.03"/><path d="m79.877 48.04l3.051 2.39-3.747.327z" fill="#fff"/><path d="m74.34 46.06c.402-1.318.943-2.692 1.683-4.11 5.648-10.85 18.389-8.786 23.14-6.05 2.213 1.278 7.933 5.196 9.02 11.407z" fill="#a0c7eb"/><path d="m92.74 69.11l8.164 13.875c-31.894 9.808-52.52-1.832-52.52-1.832l21.558-12.448z" fill="#ebb510"/><path d="m89.56 68.798l-4.088.078.074.102 4.172.074z" fill="#dddee0"/><path d="m85.47 68.876l-2.776.052 2.85.05z" fill="#1f5ea9"/><path d="m82.7 68.928l-11.05.208-14.62 10.689s5.494 2.931 16.02 2.931c5.975 0 13.572-.944 22.705-3.905l-6.04-9.799-4.172-.074z" fill="#ebb510"/><path d="m78.28 55.9s6.675-4.07 17.707-3.206c14.418 1.126 16.858 3.746 16.858 3.746s-8.15 15.587-27.437 22.244c-22.856 7.892-37.02 2.465-37.02 2.465l21.832-14.506s4.436 4.03 8.06-10.743" fill="#fcea00"/><path d="m46.36 74.37c6.417 4.239 23.354 6.819 29.958-10.26 8.57-22.17-9.95-26.866-14.914-27.665-6.507-1.043-21.71 2.084-23.417 16.691-1.365 11.691 4.262 18.521 8.373 21.234" fill="#fff"/><path d="m43.24 62.826c1.294 1.42 5.244 3.081 7.884-.656 3.435-4.848-.767-7.123-1.926-7.621-1.51-.648-5.386-.821-6.69 2.619-1.048 2.75-.102 4.75.732 5.658"/><path d="m41.03 55.785l5.127 3.478-5.924.93z" fill="#fff"/><path d="m34.23 57.698c-.002-1.805.143-3.718.521-5.786 2.882-15.722 19.594-18.04 26.581-16.441 3.255.739 11.903 3.436 15.653 10.772z" fill="#a0c7eb"/><g fill="#e5007d"><path d="m24.06 98.34c1.558-3.36 5.532-12.968-3.389-18.468-8.268-5.095-4.656 15.07-4.656 15.07s1.821-9.765-6.876-11.981c-7.943-2.024.844 11.919.844 11.919s-.386-5.16-6.97-3.759c-5.769 1.226 5.172 9.289 6.214 8.46 1.039-.831 14.833-1.242 14.833-1.242"/><path d="m127.29 102.2c1.5-.08 2.77 1.08 2.84 2.58l1.95 44.31c.07 1.5-1.09 2.77-2.58 2.84l-11.23 1.01c-1.5.08-2.77-1.08-2.84-2.58l-1.95-44.31c-.07-1.5 1.09-2.77 2.58-2.84z"/></g><path d="m68.1 108.85l-8.609-.1c-1.629-.02-2.962 1.29-2.982 2.92l-.25 22.54s-.114 1.04-.845 1.83c-1.204 1.29-2.929 1.79-7.433 1.51-1.681-.11-3.128-.79-4.057-1.84-.596-.67-.368-1.94-.368-1.94l-.142-22.18c-.012-1.63-1.338-2.94-2.969-2.93l-8.609.06c-1.627.001-2.94 1.34-2.93 2.97l.185 28.77c-.185 4.99 6.723 9.79 13.453 10.49 27.2 2.82 28.14-9.37 28.15-10.35l.319-28.77c.018-1.63-1.286-2.97-2.916-2.98" fill="#ebb510"/><path d="m36.929 99.76c-.021-1.716-1.429-3.091-3.146-3.073l-35.899.929c-1.72.02-3.095 1.427-3.074 3.142l.695 12.89c.021 1.71 1.427 3.09 3.144 3.07l9.646-.25.229 31.53c.001 1.71 1.409 3.1 3.13 3.09l9.07-.06c1.716-.001 3.098-1.42 3.089-3.13l-.158-31.82 10.893-.29c1.715-.02 3.093-1.42 3.072-3.14z" fill="#1f5ea9"/><path d="m120.56 150.47l-22.3-22.11 17.97-20.83c1.23-1.42 1.09-3.56-.32-4.8l-2.54-2.41c-1.41-1.232-3.56-1.086-4.79.33l-15.473 17.93-.031-15.72c-.012-1.88-1.543-3.391-3.423-3.377l-11.07.033c-1.877.011-3.389 1.544-3.379 3.424l.108 53.46c.012 1.87 1.54 3.39 3.421 3.37l11.07-.03c1.876-.001 3.388-1.54 3.377-3.42l-.031-15.72 18.69 18.53c1.33 1.33 3.48 1.33 4.81.001l3.9-3.86c1.33-1.32 1.34-3.48.001-4.81" fill="#aac811"/><path d="m153.56 104.94c.06-1.26-.91-2.33-2.17-2.39l-14.68-.03c-1.26-.06-2.33.91-2.39 2.17v10.03c-.06 1.25.91 2.32 2.16 2.39l14.68.03c1.26.06 2.33-.91 2.4-2.17z" fill="#1f5ea9"/><g fill="#fff"><path d="m143.43 105.46c.001-.32-.25-.58-.56-.59l-6.63.02c-.32 0-.58.25-.58.57l.02 1.89c0 .31.25.57.57.58l1.78-.001-.05 6.31c0 .31.25.57.57.58l1.67.03c.32 0 .58-.25.58-.56l.06-6.36 2.01-.001c.32.001.58-.25.58-.56z"/><path d="m151.67 105.84l-1.13-.47c-.24-.09-.52.04-.61.28l-1.87 5.44-1.73-5.23c-.08-.25-.34-.39-.59-.31l-1.18.31c-.25.08-.39.34-.32.59l2.67 8.05c.07.25.27.33.59.31l1.05.05c.34-.001.51-.06.6-.3l2.8-8.11c.09-.24-.04-.52-.28-.61"/></g></g></svg>