<svg xmlns="http://www.w3.org/2000/svg" height="138.7" width="600" viewBox="0 0 158.75 36.698132"><g transform="translate(125.49-190.2)" fill="#9f3a0e"><path d="m-39.796 195.75c-2.041 2.29-3.543 3.57-3.573 7.35 0 1.05.087 4.27.117 5.91-.087 3.53-3.215 6.07-4.335 7.19l3.779 5.43c.372-.32.953-.78 2.489-2.14 2.491-2.21 3.808-5.81 3.867-8.4l-.147-4.42c.088-3.98.557-4.39 2.139-6.19l-4.336-4.73c-2.041 2.29 0 0 0 0"/><path d="m-125.49 226.9h158.62v-4.32h-158.62z"/><path d="m-123.69 190.2-1.8 6.72 6.96 1.86-5.42 20.22 6.72 1.8 5.41-20.22 6.97 1.87 1.79-6.72z"/><path d="m31.463 190.2-20.633 5.53 1.798 6.72 6.961-1.87 5.418 20.22 6.712-1.8-5.418-20.22 6.961-1.86z"/><path d="m-79.18 195.62l-14.581 3.1 1.245 5.86 4.362-.93 3.387 15.94 5.857-1.25-3.387-15.93 4.362-.93z"/><path d="m-76.944 197.41l-.73 5.95 4.426.54-1.985 16.17 5.944.73 1.985-16.17 4.426.54.73-5.94z"/><path d="m-94.51 198.95l-6.33.56 1.086 12.37c.121 1.39-.886 2.23-1.946 2.32-.06.001-.13.001-.19.001-1 0-2.01-.66-2.13-1.96l-.8-9.21-6.33.55.88 10.07c.48 5.43 4.59 7.54 8.32 7.54.29 0 .58-.001.86-.03 3.931-.35 8.249-3.14 7.738-8.99z"/><path d="m-27.851 208.42l-.584-4.75.879-.11c.129-.02.256-.02.38-.02.502 0 .958.14 1.311.44.44.39.677.97.766 1.69s0 1.34-.335 1.82c-.333.48-.879.74-1.524.82h-.014zm1.409-10.27c-.463 0-.95.03-1.458.09l-6.961.86 2.665 21.7 5.778-.71-.785-6.39 1.183-.14c2.327-.29 4.04-1.09 5.099-2.45 1.06-1.35 1.516-3.33 1.178-6.1-.342-2.76-1.262-4.57-2.619-5.63-1.06-.83-2.424-1.23-4.08-1.23"/><path d="m-54.8 214.96c-1.642 0-2.974-2.51-2.974-5.6s1.332-5.59 2.974-5.59c1.641 0 2.973 2.5 2.973 5.59s-1.332 5.6-2.973 5.6c-1.642 0 0 0 0 0m0-16.95c-4.457 0-8.07 5.1-8.07 11.38s3.614 11.38 8.07 11.38 8.07-5.1 8.07-11.38-3.613-11.38-8.07-11.38"/><path d="m-10.801 214.96c-1.642 0-2.973-2.51-2.973-5.6s1.331-5.59 2.973-5.59c1.642 0 2.973 2.5 2.973 5.59s-1.331 5.6-2.973 5.6c-1.642 0 0 0 0 0m0-16.95c-4.457 0-8.07 5.1-8.07 11.38s3.613 11.38 8.07 11.38c4.457 0 8.07-5.1 8.07-11.38s-3.613-11.38-8.07-11.38c-4.457 0 0 0 0 0"/><path d="m4.995 209.04h-.886v-4.79h.903c.65 0 1.223.2 1.61.63.39.43.554 1.04.554 1.77 0 .72-.165 1.33-.554 1.76-.388.44-.962.63-1.613.63zm.306-10.11h-7.01v21.87h5.821v-6.44l3.716 6.44h6.722l-4.47-7.74c.206-.15.401-.32.581-.5 1.218-1.22 1.912-3.13 1.913-5.91 0-2.79-.695-4.7-1.913-5.92-1.217-1.21-3.01-1.8-5.358-1.8"/></g></svg>