<svg xmlns="http://www.w3.org/2000/svg" height="548.88" width="600" viewBox="0 0 158.75 145.22349"><g transform="translate(103.94 14.493)"><path d="m54.807 107.9l-158.75 22.83v-145.22l158.75-.003-.003 122.39z" fill="#f9e808"/><path d="m6.131 70.33c-3.998 3.986-9.477 6.44-15.564 6.44-6.073 0-11.565-2.454-15.551-6.44-3.985-3.999-6.44-9.478-6.44-15.551 0-6.086 2.455-11.578 6.44-15.564 3.986-3.986 9.478-6.441 15.552-6.441 6.086 0 11.565 2.455 15.563 6.441 3.986 3.986 6.441 9.478 6.441 15.564 0 6.073-2.455 11.552-6.441 15.551m-76.79-41.29v7.301l5.643-3.353-.038 63.32 29.1-17.385c6.554 7.25 16.05 11.805 26.598 11.805 19.815 0 35.885-16.07 35.885-35.885s-16.07-35.872-35.886-35.872c-19.815 0-35.872 16.06-35.872 35.872 0 6.643 1.809 12.856 4.947 18.2l-12.855 7.68v-62.01l-17.525 10.338z"/></g></svg>