<svg xmlns="http://www.w3.org/2000/svg" height="290.7" viewBox="0 0 585 290.69849"><path fill="#f07621" d="m263.84 289.89c.048-.516 24.376-39.75 54.06-87.19 49.543-79.17 54.39-86.45 58.975-88.75 4.699-2.35 8.2-2.538 58.23-3.125l53.23-.625 4.589-3.502c7.858-5.997 12.1-17.803 9.65-26.885-2.59-9.618 4.975-8.988-107.88-8.988-87.35 0-101.62.256-105.54 1.891-2.49 1.04-4.714 1.704-4.943 1.475-.229-.229 8.573-14.796 19.56-32.371 17.14-27.422 20.642-32.28 24.671-34.29 4.472-2.223 9.736-2.333 110.94-2.333h106.25l8.314 3.939c18.89 8.942 31.07 28.942 31.07 50.985 0 16.493-7.335 32.69-20.838 46.02-9.929 9.797-17.581 15.07-32.12 22.14l-12.338 5.996 6.713 2.181c21.299 6.919 39.07 20.877 46.36 36.403 3.488 7.436 4.097 10.248 4.532 20.909.597 14.65-1.54 24.15-8.635 38.39-10.343 20.76-27.21 37.924-47.08 47.899-14.04 7.05-12.532 6.972-134.71 7.05-94.67.062-113.29.359-117.5 1.875-5.907 2.128-5.648 2.086-5.538.901zm218.18-70.91c16.435-4.881 25.372-22.976 17.375-35.18-4.156-6.343-7.115-6.723-52.28-6.723h-41.716l-12.531 20.312c-6.892 11.172-12.921 21.02-13.398 21.875-1.384 2.494 94.08 2.229 102.55-.284m-361.4 66.24c-2.75-.99-7.391-4.321-10.312-7.402-4.49-4.74-5.31-6.4-5.31-10.79 0-2.853 3.375-38.834 7.5-79.959s7.5-75.11 7.5-75.51c0-.406 13.781-.739 30.625-.739s30.62.141 30.615.313c-.005.172-3.342 33.492-7.415 74.04-4.072 40.552-7.162 73.974-6.865 74.27.719.719-3.922 7.984 45.95-71.919 39.673-63.56 45.09-71.67 49.27-73.75 4.209-2.092 8.566-2.372 42.19-2.712l37.5-.379-5.625 2.879c-5.379 2.753-7.868 6.461-56.875 84.74-48.12 76.872-51.593 82.06-56.875 85l-5.625 3.135-45.625.287c-37.1.234-46.559-.049-50.625-1.512zm-120.62-211.23c0-.253 8.892-14.67 19.76-32.04 17.07-27.29 20.43-31.931 24.688-34.16 4.849-2.544 6.723-2.595 118.73-3.21 106.23-.583 114.03-.773 117.19-2.841 1.86-1.219 3.382-1.968 3.382-1.665 0 2.028-40.16 64.2-42.693 66.09-1.831 1.367-6.798 2.829-11.797 3.473-4.749.612-56.33 1.131-114.61 1.153-89.65.035-106.65.32-110.32 1.853-2.379.996-4.33 1.604-4.33 1.352"/></svg>