<svg xmlns="http://www.w3.org/2000/svg" height="210.34" width="600" viewBox="0 0 158.75 55.651617"><g transform="translate(-223.02-334.66)"><path d="m260.6 390.31h4.35l37.53-55.65h-4.34l-37.54 55.65" fill="#a7a9ac"/><g fill="#62bb46"><path d="m354.69 356.92c.56 0 .9.44.76.98l-6.61 24.61h-6.08c-.56 0-.9-.44-.75-.98l6.61-24.61h6.07"/><path d="m329.99 369.2c3.18 0 5.26-1.35 5.26-3.54 0-.7-.22-1.24-.65-1.72-.59-.58-1.65-.88-3.15-.88h-3.84l-1.68 6.14h4.06m-14.47 12.33l6.61-24.61h9.65c4.28 0 7.09.95 8.81 2.67 1.35 1.35 1.98 3.18 1.98 5.23 0 4.28-2.45 7.64-7.68 9.07 0 0 1 2.5 2.06 3.32 1.16.9 2.43 1.06 3.04 1.06l-1.12 4.14s-1.29.41-3.48.41c-2.15 0-4.8-1.3-6.01-4-.5-1.11-1.77-4.06-1.77-4.06h-3.14l-2.09 7.75h-6.11c-.56 0-.9-.44-.75-.98"/><path d="m319.01 356.92l-1.42 5.24c-.14.54-.72.98-1.28.98h-12.32l-1.17 4.35h12.06l-1.31 4.9c-.14.54-.72.98-1.28.98h-11.04l-2.45 9.14h-6.11c-.57 0-.9-.44-.76-.98l6.61-24.61h20.47"/><path d="m266.54 345.79h-14.52c-.45 0-1.01.3-1.26.67l-3.12 4.63h17.71c.71.001 1.38.37 1.47 1.2.1 1.04-1.01 1.98-2.03 1.98h-7.92c-.44 0-1.01.3-1.26.67l-3.12 4.63h11.39c4.44 0 9.04-3.86 8.88-8.11-.14-3.37-3.1-5.67-6.22-5.67"/><path d="m242.86 351.09h-19.84l3.13-4.63c.24-.37.81-.67 1.25-.67h19.84l-3.12 4.63c-.25.38-.81.67-1.26.67"/><path d="m231.38 366.37l1.26-12.1h5.91l-1.29 12.21 7.78-11.54c.25-.37.81-.67 1.26-.67h5.69l-8.84 13.12c-.25.36-.82.66-1.26.66h-8.99c-.94 0-1.62-.75-1.52-1.68"/><path d="m265.4 368.05h-18.63l3.13-4.63c.24-.37.81-.67 1.25-.67h18.63l-3.13 4.63c-.24.38-.81.67-1.25.67"/></g><g fill="#a7a9ac"><path d="m361.77 356.92h3.12l-1.1 4.19h3.24l1.12-4.19h3.12l-2.95 11.13h-3.13l1.16-4.34h-3.24l-1.16 4.34h-3.13l2.95-11.13"/><path d="m374.88 365.62c2.1 0 3.5-1.78 3.68-3.83.15-1.66-.54-2.44-2.01-2.44h-1.08l-1.67 6.27h1.08m-1.89-8.7h3.8c3.26 0 5.24 1.56 4.96 4.82-.33 3.61-2.87 6.31-7.77 6.31h-3.94l2.95-11.13"/></g></g></svg>