<?xml version="1.0" encoding="UTF-8" standalone="no"?>
<svg xmlns:rdf="http://www.w3.org/1999/02/22-rdf-syntax-ns#" xmlns="http://www.w3.org/2000/svg" height="555.77" width="600" version="1.1" xmlns:cc="http://creativecommons.org/ns#" xmlns:dc="http://purl.org/dc/elements/1.1/" viewBox="0 0 158.75 147.04635">
 <g transform="translate(-253.37 -683.66)" fill="#b1063a">
  <path d="m378.03 769.63-5.09 0.74v32.4c0 6.01 6.05 7.19 9.41 7.19h3.6c1.47 0 5.88-0.64 7.26-1.23l0.5-0.21v-3.97h-11.94c-2.8 0-2.8-1.62-2.8-2.88v-19.17h13.83v-5.11h-13.83v-7.91l-0.94 0.15z"/>
  <path d="m301.13 720.97-5.09 0.74v33.2c0 6.02 6.05 7.19 9.41 7.19h5.59c1.46 0 5.87-0.63 7.26-1.22l0.5-0.22v-3.96h-13.93c-2.58 0-2.79-1.5-2.79-2.74v-18.97h13.89v-5.2h-13.89v-8.96l-0.95 0.14z"/>
  <path d="m347.43 776.81c-7.96 0-11.52 4.02-11.52 8v3.82c0 4.13 3.37 6.62 9.47 7.02l12.04 0.75c3.01 0.19 3.43 1.06 3.43 2.71v2.36c0 1.24-0.25 2.79-4.34 2.79h-19.63v4.12l0.48 0.22c2.14 1 5.22 1.36 7.2 1.36h11.19c6.69 0 11-3.35 11-8.53v-3.65c0-5.74-5.48-6.82-9.61-7.13 0 0-9.39-0.53-12.12-0.75-2.72-0.21-3.21-1.09-3.21-2.66v-1.59c0-1.5-0.01-3.15 3.56-3.15h18.72v-4.12l-0.47-0.22c-2.14-1-5.22-1.35-7.2-1.35h-8.99z"/>
  <path d="m301.28 786.78c0-2.15 0.91-4.73 5.21-4.73h12.64c3.62 0 4.91 2.44 4.91 4.73v13.22c0 2.29-1.29 4.73-4.91 4.73h-12.64c-4.3 0-5.21-2.6-5.21-4.78v-13.17zm16.14-9.96h-8.73c-9.72 0-13.2 3.84-13.2 10.54v12.05c0 6.71 4.04 10.56 12.86 10.56h9.07c8.4 0 12.41-4.08 12.41-10.9v-11.35c0-6.83-4.01-10.9-12.41-10.9"/>
  <path d="m328.95 772.98h-6.06l-26.24 39.97h6.06l26.24-39.97z"/>
  <path d="m371.2 729.21c-2.02 0-5.15 0.36-7.32 1.37l-0.48 0.23v4.18h20.07c3.8 0 4.32 1.09 4.32 2.92v1.42c0 1.18-0.67 2.36-3.26 2.77-3.71 0.59-7.55 1.23-12.4 1.95-4.29 0.65-9.76 1.85-9.76 7.68v10.19h30.43v-5.22h-24.44v-3.83c0-1.54 0.28-2.48 3.49-2.98 3.44-0.55 7.97-1.26 12.32-1.95 6.64-1.05 9.61-2.87 9.61-7.43v-3.82c0-4.04-3.62-7.48-11.69-7.48h-10.89z"/>
  <path d="m319.95 734.99v-5.2h9.62l10.27 21.89 0.57 2.37h0.13l0.56-2.37 9.94-21.89h6.93l-15.17 32.31h-4.43l-13.05-27.11h-5.37z"/>
  <path d="m259.31 807.24v-100.07c0-10.67 8.34-17.57 21.24-17.57h105.16c12.24 0 20.47 7.3 20.47 18.18v116.99h-125.63c-12.9 0-21.24-6.88-21.24-17.53m21.24-123.58c-16.26 0-27.18 9.45-27.18 23.51v100.07c0 14.03 10.92 23.47 27.18 23.47h131.57v-122.93c0-14.2-10.86-24.12-26.41-24.12h-105.16z"/>
 </g>
</svg>
