<?xml version="1.0" encoding="UTF-8" standalone="no"?>
<svg id="svg2" xmlns:rdf="http://www.w3.org/1999/02/22-rdf-syntax-ns#" xmlns="http://www.w3.org/2000/svg" height="248.36" viewBox="0 0 631.05267 248.35983" width="631.05" version="1.1" xmlns:cc="http://creativecommons.org/ns#" xmlns:dc="http://purl.org/dc/elements/1.1/">
 <path id="path4138" fill="#e1264d" d="m300.69 240.1c25.563-36.866 32.384-45.569 38.717-49.395l6.3918-3.8612 26.531-0.82625c14.592-0.45445 52.737-0.83455 84.767-0.84468 44.036-0.014 58.998-0.39918 61.361-1.5799 6.9967-3.496 10.192-19.798 5.1119-26.076l-2.388-2.951-53.549-0.625c-53.245-0.62144-53.589-0.6422-60.424-3.6462-27.491-12.081-43.191-31.96-46.605-59.014-2.5895-20.515 0.38241-24.051-83.639 99.535-16.826 24.75-31.268 46.264-32.092 47.808-0.82395 1.5446-3.8699 4.0759-6.7688 5.625-5.2048 2.7813-5.9553 2.8211-59.978 3.1787-52.162 0.3453-54.967 0.24746-60.279-2.1025-5.9508-2.6323-10.107-7.9896-11.366-14.65-0.81198-4.2952 18.786-151.57 20.369-153.07 0.54139-0.51313 16.185-0.56234 34.764-0.10933l33.78 0.82364-9.6386 68.125c-5.3012 37.469-9.6741 69.391-9.7175 70.938-0.0435 1.5499 0.66935 2.8125 1.5879 2.8125 0.91671 0 21.589-29.616 45.938-65.814 45.82-68.117 48.078-70.987 59.041-75.029 2.6901-0.9918 15.987-1.4982 41.026-1.5625l37.046-0.0951 1.5474-8.2009c5.338-28.291 31.527-55.541 63.736-66.318 6.3758-2.1334 14.106-2.3479 106.46-2.9531 66.294-0.43442 99.263-0.23471 98.627 0.59744-0.52531 0.6875-8.1619 11.375-16.97 23.75-8.8083 12.375-18.003 24.605-20.433 27.177-7.8633 8.3248-6.6546 8.1996-87.637 9.08-79.781 0.86733-77.289 0.61837-81.749 8.1677-1.1525 1.951-2.0444 6.1655-2.0444 9.6601 0 7.2087 3.6418 11.956 10.174 13.262 2.1387 0.42773 24.259 0.7777 49.157 0.7777 41.01 0 46.178 0.2326 54.937 2.4727 19.563 5.0034 33.691 16.095 42.016 32.985 13.441 27.269 10.457 57.254-8.1398 81.811-10.232 13.511-29.744 27.385-46.269 32.901l-8.75 2.9205-108.12 0.65103c-61.733 0.3717-109.16 1.1446-110.54 1.8012-1.5911 0.75777-0.21885-2.0173 4.022-8.1334zm-295.98-181.15c2.5886-3.0938 8.25-10.406 12.581-16.25 17.304-23.349 26.249-33.69 32.135-37.15l5.9122-3.4754 143.75-0.625c79.062-0.34375 143.84-0.625 143.95-0.625 0.10962 0-9.1022 12.001-20.471 26.669-20.798 26.835-26.914 32.933-35.289 35.188-2.8099 0.75662-58.617 1.3528-145.91 1.5588l-141.36 0.334 4.7065-5.625z"/>
</svg>
