<svg xmlns="http://www.w3.org/2000/svg" viewBox="0 0 631.05267 248.35983" width="631.05"><path fill="#e1264d" d="m300.69 240.1c25.563-36.866 32.384-45.569 38.717-49.4l6.392-3.861 26.531-.826c14.592-.454 52.737-.835 84.77-.845 44.04-.014 58.998-.399 61.36-1.58 6.997-3.496 10.192-19.798 5.112-26.08l-2.388-2.951-53.55-.625c-53.25-.621-53.589-.642-60.42-3.646-27.491-12.08-43.19-31.96-46.605-59.01-2.589-20.515.382-24.05-83.64 99.53-16.826 24.75-31.27 46.26-32.09 47.808-.824 1.545-3.87 4.076-6.769 5.625-5.205 2.781-5.955 2.821-59.978 3.179-52.16.345-54.967.247-60.28-2.102-5.951-2.632-10.11-7.99-11.366-14.65-.812-4.295 18.786-151.57 20.369-153.07.541-.513 16.185-.562 34.764-.109l33.78.824-9.639 68.13c-5.301 37.469-9.674 69.39-9.718 70.938-.043 1.55.669 2.813 1.588 2.813.917 0 21.589-29.616 45.938-65.814 45.82-68.12 48.08-70.987 59.04-75.03 2.69-.992 15.987-1.498 41.03-1.563l37.05-.095 1.547-8.201c5.338-28.29 31.527-55.54 63.736-66.32 6.376-2.133 14.11-2.348 106.46-2.953 66.29-.434 99.26-.235 98.63.597-.525.688-8.162 11.375-16.97 23.75-8.808 12.375-18 24.605-20.433 27.18-7.863 8.325-6.655 8.2-87.64 9.08-79.78.867-77.29.618-81.75 8.168-1.152 1.951-2.044 6.165-2.044 9.66 0 7.209 3.642 11.956 10.174 13.262 2.139.428 24.26.778 49.16.778 41.01 0 46.18.233 54.937 2.473 19.563 5 33.691 16.09 42.02 32.985 13.441 27.27 10.457 57.25-8.14 81.81-10.232 13.511-29.744 27.385-46.27 32.901l-8.75 2.921-108.12.651c-61.733.372-109.16 1.145-110.54 1.801-1.591.758-.219-2.02 4.02-8.133zm-295.98-181.15c2.589-3.094 8.25-10.406 12.581-16.25 17.304-23.349 26.25-33.69 32.13-37.15l5.912-3.475 143.75-.625c79.06-.344 143.84-.625 143.95-.625.11 0-9.102 12-20.471 26.669-20.798 26.835-26.914 32.933-35.29 35.19-2.81.757-58.62 1.353-145.91 1.559l-141.36.334 4.707-5.625z"/></svg>