<svg xmlns="http://www.w3.org/2000/svg" height="191.08" width="600" viewBox="0 0 158.75 50.555894"><g transform="translate(-90.71-538.25)"><path stroke-width=".36" fill="#ffc501" d="m90.71 538.25h50.555v50.556h-50.555z"/><g fill="#231f20"><path stroke-width=".36" d="m113.31 546.22c-1.83.56-3.5 1.56-4.98 2.96-3.54 3.38-3.55 8-3.54 8.66h7.83l-3.48-2.58c.06-.22.62-2.21 2.75-3.9 2.1-1.66 4.62-1.88 4.99-1.9v-3.76c-1.2-.02-2.4.16-3.57.52"/><path transform="matrix(.35973 0 0 .35973 90.71 538.25)" d="m104.35 101.02h-35.08l-19.81 10.71h46.1l8.79 10.31z"/><path stroke-width=".36" d="m119.75 561.25l-5.65 4.38c-4.1 3.12-6.55 6.48-6.93 7.04-.67 1-1.58 2.52-2.22 4.22-.71 1.87-1.13 3.69-1.17 5.13l4.73-3.58c.06-.24.65-2.44 2.81-5 2.27-2.7 4.06-4.02 5.5-5.09.32-.24.63-.47.92-.7.22-.17.56-.41.94-.68.99-.72 2.41-1.74 3.56-2.78 1.85-1.53 3.04-3.83 3.04-6.41 0-4.6-3.76-8.32-8.4-8.32v3.83c2.5 0 4.53 2.01 4.53 4.49 0 .9-.27 1.73-.73 2.44-.22.3-.52.64-.93 1.03"/></g><g stroke-width=".36" fill="#ffc501"><path d="m154.29 571.69l11.64-15.9h-11.15v-5.03h18.92v4.4l-11.29 15.54h11.36v5.14h-19.49v-4.15z"/><path d="m176.02 568.66v-3.41c0-5.63 4.44-8.3 9.01-8.3 4.22 0 8.19 2.5 8.19 7.53v3.55h-11.29v.77c0 2.08 2.01 3.03 3.91 3.03 1.61 0 3.9-.88 4.82-1.69l2.21 3.27c-1.9 1.94-4.75 2.89-7.77 2.89-4.64 0-9.08-2.26-9.08-7.64m11.72-4.01v-.59c0-1.94-1.31-2.82-2.85-2.82-1.55 0-2.96.92-2.96 2.92v.49z"/><path d="m202.26 574.12h-.1v1.72h-5.67v-25.08h5.81v8.72h.07c1.34-1.76 3.3-2.53 5.06-2.53 4.15 0 6.86 2.57 6.86 6.86v5.59c0 4.29-3.41 6.9-7.45 6.9-1.8 0-3.52-.85-4.58-2.18m6.19-5.18v-4.53c0-1.94-1.37-2.96-3.02-2.96-1.48 0-3.13.81-3.13 3.34v4.26c0 2.04 1.65 2.95 3.2 2.95 1.51 0 2.95-.91 2.95-3.06"/><path d="m217.42 557.34h5.7v3.06h.04c.98-1.8 3.34-3.38 5.62-3.38.53 0 1.27.04 1.83.18v4.99c-.88-.14-1.93-.21-2.46-.21-2.43 0-4.92 1.02-4.92 4.22v9.64h-5.81v-18.5"/><path d="m231.84 570.81c0-4.36 4.58-5.98 8.3-5.98h3.2v-1.44c0-1.52-1.02-2.32-2.88-2.32s-2.74.88-2.74 1.86v.53h-5.17v-.67c0-4.01 4.01-5.84 8.23-5.84 4.25 0 8.37 1.69 8.37 6.37v8.44c0 1.41.17 3.73.31 4.08h-5.52c-.03-.14-.17-1.94-.21-2.08h-.14c-1.55 2.08-3.76 2.47-5.63 2.47-3.55 0-6.12-1.94-6.12-5.42m11.5-1.69v-1.06h-2.77c-1.69 0-2.92.5-2.92 2.01 0 1.2.77 2 2.57 2 2.14.001 3.12-1.19 3.12-2.95"/></g></g></svg>