<svg xmlns="http://www.w3.org/2000/svg" height="174.01" width="600" viewBox="0 0 158.75 46.038989"><g transform="translate(-293.57-362.29)"><g fill="#0097a4"><path d="m445.75 391.85c0 1.68-.35 2.88-1.06 3.91-.85 1.23-2.15 1.85-3.87 1.85h-.32c-1.72 0-3.01-.62-3.87-1.85-.71-1.03-1.06-2.23-1.06-3.91v-6.09c0-.23.18-.41.41-.41h2.62c.22 0 .41.18.41.41v6.26c0 .59.11 1.13.35 1.61.31.63.94.8 1.3.8.37 0 .99-.17 1.3-.8.23-.48.35-1.02.35-1.61v-6.26c0-.23.19-.41.41-.41h2.62c.23 0 .41.18.41.41v6.09m-5.06-12.2c-6.43 0-11.64 5.21-11.64 11.64s5.21 11.64 11.64 11.64c6.42 0 11.63-5.21 11.63-11.64s-5.21-11.64-11.63-11.64"/><path d="m393.59 391.85c0 1.68-.36 2.88-1.07 3.91-.85 1.23-2.14 1.85-3.86 1.85h-.32c-1.72 0-3.02-.62-3.87-1.85-.71-1.03-1.07-2.23-1.07-3.91v-6.09c0-.23.19-.41.41-.41h2.63c.22 0 .41.18.41.41v6.26c0 .59.12 1.13.35 1.61.32.63.93.8 1.3.8.36 0 .99-.17 1.29-.8.24-.48.36-1.02.36-1.61v-6.26c0-.23.19-.41.41-.41h2.62c.23 0 .41.18.41.41v6.09m-5.06-12.2c-6.43 0-11.64 5.21-11.64 11.64s5.21 11.64 11.64 11.64c6.42 0 11.63-5.21 11.63-11.64s-5.21-11.64-11.63-11.64"/><path d="m416.25 379.77v17.47c0 .23-.19.42-.42.42h-2.57c-.22 0-.41-.19-.41-.42v-17.45c-5.59.85-9.89 5.67-9.89 11.5 0 6.43 5.22 11.64 11.64 11.64 6.43 0 11.65-5.21 11.65-11.64 0-5.87-4.36-10.71-10-11.52"/><path d="m366.7 387.64c0 .17-.07.42-.16.56l-3.75 5.88c-.09.15-.03.26.14.26h3.06.3c.23 0 .41.19.41.41v2.49c0 .23-.18.42-.41.42h-7.77c-.23 0-.42-.19-.42-.42v-1.87c0-.16.08-.41.17-.55l3.77-5.83c.09-.14.03-.26-.13-.26h-3.39c-.23 0-.42-.19-.42-.42v-2.51c0-.22.19-.4.42-.4h7.77c.23 0 .41.18.41.4v1.84m-4.26-7.99c-6.43 0-11.64 5.21-11.64 11.64s5.21 11.64 11.64 11.64 11.65-5.21 11.65-11.64-5.22-11.64-11.65-11.64"/></g><path d="m324.66 408.33h3.6l31.05-46.04h-3.6l-31.05 46.04" fill="#a7a9ac"/><g fill="#0097a4"><path d="m329.57 371.5h-12.01c-.37 0-.83.24-1.04.55l-2.58 3.83h14.65c.59.001 1.14.3 1.21.99.09.86-.83 1.64-1.68 1.64h-6.54c-.37 0-.84.25-1.04.56l-2.59 3.83h9.43c3.67 0 7.47-3.2 7.33-6.72-.1-2.78-2.56-4.68-5.14-4.68"/><path d="m309.99 375.88h-16.42l2.59-3.83c.2-.31.67-.55 1.04-.55h16.41l-2.58 3.83c-.21.3-.67.55-1.04.55"/><path d="m300.49 388.51l1.04-10h4.89l-1.07 10.1 6.44-9.55c.21-.3.67-.55 1.04-.55h4.71l-7.32 10.85c-.2.3-.67.55-1.04.55h-7.44c-.77 0-1.34-.62-1.25-1.4"/><path d="m328.63 389.91h-15.41l2.58-3.84c.21-.3.68-.54 1.04-.54h15.41l-2.58 3.83c-.21.3-.67.55-1.04.55"/></g></g></svg>