<svg xmlns="http://www.w3.org/2000/svg" height="597.47" width="600" viewBox="0 0 158.75001 158.0803"><defs><linearGradient id="0" gradientUnits="userSpaceOnUse" x2="-530.67" x1="-687.91"><stop stop-color="#5a3f99"/><stop stop-color="#5a3f99" offset=".102"/><stop stop-color="#3d2b6a" offset=".599"/><stop stop-color="#2c204f" offset="1"/></linearGradient></defs><path d="m-690.18-287.78v158.09h109.27c-43.54-11.77-43.57-49.69-42.59-59.9h44.28c-.21 8.61 1.87 15.15 6.31 19.34 4.42 5.37 11.19 7.21 19.32 7.21 13.29 0 21.68-4.88 21.68-18.16 0-14.2-10.96-16.78-21.68-16.78h-13.77v-29.62h13.77c9.79 0 22.16-2.07 22.16-14.67 0-10.24-11.67-14.2-21.22-14.2-12.59 0-22.82 6.76-22.37 20.26h-43.81c.23-19.11 7.91-33.1 20.28-42.42 5.32-3.91 11.52-6.94 18.26-9.15h-109.89" fill="url(#0)" transform="translate(690.18 287.78)"/></svg>