<svg xmlns="http://www.w3.org/2000/svg" height="376.69" width="600" viewBox="0 0 158.75001 99.664813"><defs><linearGradient id="0" gradientUnits="userSpaceOnUse" x2="-171.7" x1="-270.84"><stop stop-color="#5a3f99"/><stop stop-color="#5a3f99" offset=".102"/><stop stop-color="#3d2b6a" offset=".599"/><stop stop-color="#2c204f" offset="1"/></linearGradient><linearGradient id="1" gradientUnits="userSpaceOnUse" x2="-128.84" x1="-165.06"><stop stop-color="#5a3f99"/><stop stop-color="#5a3f99" offset=".102"/><stop stop-color="#3d2b6a" offset=".381"/><stop stop-color="#2c204f" offset="1"/></linearGradient><linearGradient id="2" gradientUnits="userSpaceOnUse" x2="-113.53" x1="-127.09"><stop stop-color="#5a3f99"/><stop stop-color="#3d2b6a" offset=".444"/><stop stop-color="#2c204f" offset="1"/></linearGradient></defs><g transform="translate(272.27 299.51)"><path d="m-272.27-299.51v99.66h68.89c-27.45-7.42-27.47-31.32-26.85-37.76h27.91c-.13 5.43 1.19 9.55 3.98 12.19 2.79 3.39 7.06 4.55 12.18 4.55 8.39 0 13.67-3.08 13.67-11.45 0-8.95-6.91-10.58-13.67-10.58h-8.68v-18.67h8.68c6.18 0 13.97-1.31 13.97-9.25 0-6.46-7.35-8.96-13.37-8.96-7.94 0-14.39 4.27-14.11 12.78h-27.62c.15-12.05 4.99-20.87 12.79-26.75 3.35-2.46 7.26-4.37 11.51-5.76h-69.28" fill="url(#0)"/><path d="m-165.06-258h12.71v-12.79h10.73v12.79h12.78v10.75h-12.78v12.72h-10.73v-12.72h-12.71v-10.75" fill="url(#1)"/><path d="m-127.09-276.04h13.57v46.76h-13.57z" fill="url(#2)"/></g></svg>