<?xml version="1.0" encoding="UTF-8" standalone="no"?>
<svg xmlns:rdf="http://www.w3.org/1999/02/22-rdf-syntax-ns#" xmlns="http://www.w3.org/2000/svg" xmlns:cc="http://creativecommons.org/ns#" xmlns:xlink="http://www.w3.org/1999/xlink" xmlns:dc="http://purl.org/dc/elements/1.1/" height="376.69" width="600" version="1.1" viewBox="0 0 158.75001 99.664813">
  <defs>
    <linearGradient id="c" gradientUnits="userSpaceOnUse" x2="1.0048" gradientTransform="matrix(100.09 0 0 100.09 -272.27 -249.68)" x1=".014286" y1="0" y2="0">
      <stop stop-color="#5a3f99" offset="0"/>
      <stop stop-color="#5a3f99" offset=".10182"/>
      <stop stop-color="#3d2b6a" offset=".59899"/>
      <stop stop-color="#2c204f" offset="1"/>
    </linearGradient>
    <linearGradient id="b" y2="-253.96" gradientUnits="userSpaceOnUse" x2="-100.97" gradientTransform="matrix(.69687 0 0 .69687 -58.475 -75.686)" y1="-253.96" x1="-152.95">
      <stop stop-color="#5a3f99" offset="0"/>
      <stop stop-color="#5a3f99" offset=".10182"/>
      <stop stop-color="#3d2b6a" offset=".38087"/>
      <stop stop-color="#2c204f" offset="1"/>
    </linearGradient>
    <linearGradient id="a" y2="-253.96" gradientUnits="userSpaceOnUse" x2="-78.997" gradientTransform="matrix(.69687 0 0 .69687 -58.475 -75.686)" y1="-253.96" x1="-98.463">
      <stop stop-color="#5a3f99" offset="0"/>
      <stop stop-color="#3d2b6a" offset=".44365"/>
      <stop stop-color="#2c204f" offset="1"/>
    </linearGradient>
  </defs>
  <g transform="translate(272.27 299.51)">
    <path d="m-272.27-299.51v99.66h68.89c-27.45-7.42-27.47-31.32-26.85-37.76h27.91c-0.13 5.43 1.19 9.55 3.98 12.19 2.79 3.39 7.06 4.55 12.18 4.55 8.39 0 13.67-3.08 13.67-11.45 0-8.95-6.91-10.58-13.67-10.58h-8.68v-18.67h8.68c6.18 0 13.97-1.31 13.97-9.25 0-6.46-7.35-8.96-13.37-8.96-7.94 0-14.39 4.27-14.11 12.78h-27.62c0.15-12.05 4.99-20.87 12.79-26.75 3.35-2.46 7.26-4.37 11.51-5.76h-69.28z" fill="url(#c)"/>
    <path d="m-165.06-258h12.71v-12.79h10.73v12.79h12.78v10.75h-12.78v12.72h-10.73v-12.72h-12.71v-10.75z" fill="url(#b)"/>
    <path d="m-127.09-276.04h13.57v46.76h-13.57z" fill="url(#a)"/>
  </g>
</svg>
