<svg xmlns="http://www.w3.org/2000/svg" height="600.04" width="600" viewBox="0 0 158.75 158.76044"><g transform="translate(-212.93-564.03)"><path d="m292.3 564.03c43.74 0 79.38 35.65 79.38 79.37 0 43.74-35.64 79.39-79.38 79.39-43.73 0-79.37-35.65-79.37-79.39 0-43.72 35.64-79.37 79.37-79.37" fill="#ed1c2e"/><path d="m314.89 577.01c-.6.0001-1.3.34-2.18.98l-27.75 41.16-45.02 67.44c-.74 2.02-.19 2.94 1.83 2.94h43.19 11.02v12.13c0 1.47 1.28 2.02 3.3 1.84h15.62c1.29 0 2.03-.73 1.84-1.84v-12.13h11.02c1.47-.17 1.84-1.28 1.84-2.75v-15.07c0-1.46-.73-2.21-2.2-2.02h-10.66v-91.14c-.52-1.03-1.09-1.54-1.85-1.53m-19.83 62.72v29.95h-10.1-10.67l10.67-15.62 10.1-14.33" fill="#fff"/></g></svg>