<svg xmlns="http://www.w3.org/2000/svg" height="792.87" width="600" viewBox="0 0 158.75 209.77902"><g transform="translate(-6.804-8.57)"><g fill="#a2c615"><path d="m24.14 183.87h23.07v7.92h-14.665v7.49h12.12v7.53h-12.12v11.54h-8.41z"/><path d="m57.684 183.87h8.511v34.47h-8.511z"/><path d="m78.86 183.87h8.513v27.04h14.667v7.44h-23.18z"/><path d="m113.69 183.42h3.08l12.96 19.95 12.96-19.95h3.08l2.44 34.91h-8.5l-.98-14.91-8.36 12.72h-1.82l-8.35-12.72-.98 14.91h-7.98z"/><path d="m79.876 104.16v-20.307c0-5.848-4.762-10.551-10.615-10.551h-44.952c-5.821 0-10.593 4.703-10.593 10.551v20.307c0 5.87 4.772 10.62 10.593 10.62h44.952c5.853 0 10.615-4.75 10.615-10.62m-73.07-95.59h6.912v19.71c0 5.87 4.772 10.578 10.593 10.578h44.952c5.853 0 10.615-4.708 10.615-10.578v-19.71h85.67v158.76h-85.67v-7.59c0-5.82-4.762-10.59-10.615-10.59h-44.952c-5.821 0-10.593 4.77-10.593 10.59v7.59h-6.912z"/></g><path fill="#fff" d="m107.98 121.45l16.5-24.401v24.401zm42.53 0h-8.64v-73.37c0-.551-.36-1.091-.89-1.241-.56-.166-1.17.037-1.5.514l-59.6 88.25c-.294.4-.332.9-.107 1.33.214.42.669.69 1.177.69h43.995v9.92c0 .75.6 1.33 1.33 1.33h14.28c.76 0 1.32-.58 1.32-1.33v-9.92h8.64c.74 0 1.32-.61 1.32-1.34v-13.5c0-.74-.58-1.33-1.32-1.33"/></g></svg>