<svg xmlns="http://www.w3.org/2000/svg" height="253.89" width="600" viewBox="0 0 158.75 67.173812"><g transform="translate(-258.72-609.82)"><path d="m292.3 609.82c18.51 0 33.59 15.08 33.59 33.59 0 18.5-15.08 33.58-33.59 33.58-18.5 0-33.58-15.08-33.58-33.58 0-18.51 15.08-33.59 33.58-33.59" fill="#ed1c2e"/><path d="m301.86 615.31c-.25.0001-.55.15-.92.42l-11.75 17.41-19.04 28.531c-.32.85-.08 1.24.77 1.24h18.27 4.67v5.13c0 .62.54.86 1.4.78h6.61c.54 0 .85-.31.77-.78v-5.13h4.67c.62-.08.77-.54.77-1.16v-6.38c0-.62-.31-.93-.93-.86h-4.51v-38.56c-.22-.43-.46-.65-.78-.65m-8.39 26.54v12.67h-4.28-4.51l4.51-6.61 4.28-6.07" fill="#fff"/><g fill="#6f6d6d"><path d="m347.77 621.66v17.81h18.45v-17.81h6.79v43.5h-6.79v-19.3h-18.45v19.3h-6.75v-43.5h6.75"/><path d="m380.38 621.66v43.5h12.62c15.93 0 24.47-10.11 24.47-22.38 0-9.9-7.67-21.12-22.98-21.12h-14.11m6.58 6.32h7.14c10.08 0 16.55 6.53 16.55 14.87 0 10.33-6.66 16.04-16.88 16.04h-6.81v-30.91"/></g></g></svg>