<svg xmlns="http://www.w3.org/2000/svg" height="544.17" width="600" viewBox="0 0 158.75 143.97824"><g stroke-width=".817" fill="#1c3360"><path d="m19.957.002c-10.959 0-19.917 8.954-19.917 19.925l-.041 124.05h91.36v-20.88h-75.39l93.37-123.1z"/><path d="m91.36 53.846l-37.13 50.43h37.13z"/><path d="m129.63 123.1v.91c0 10.98-8.93 19.97-19.9 19.97v-20.88z"/><path d="m109.73.002h19.95l-.05 104.28h-19.9z"/></g><path d="m158.69 105.37c-.02 2.64-2.19 4.75-4.8 4.75h-39.17c-2.64 0-4.79-2.19-4.76-4.81l.05-25.06c0-2.64 2.17-4.74 4.78-4.74h39.17c2.64.001 4.79 2.19 4.79 4.83z" fill-rule="evenodd" fill="#720f11"/><g fill="#fff"><path d="m133.5 102.81h-5.11v-8.232h-5.45v8.232h-5.1v-20.802h5.1v8h5.45v-8h5.11z"/><path d="m148.07 92.41c0-2.58-.18-4.12-.53-4.69-.54-.78-1.36-1.16-2.47-1.16h-2.25v11.7h2.25c1.11 0 1.93-.38 2.47-1.17.25-.45.46-1.2.53-2.28zm4.95 4.5c-.31 1.9-1.2 3.372-2.63 4.412-1.34 1.01-3.01 1.49-4.97 1.49h-7.7v-20.802h7.7c1.96 0 3.63.48 4.97 1.49 1.43 1.04 2.32 2.51 2.63 4.42.11.65.18 2.17.18 4.49 0 2.33-.07 3.82-.18 4.5"/></g></svg>