<svg xmlns="http://www.w3.org/2000/svg" viewBox="0 0 600 649.56"><path d="m189.05 857.14c-43.564-41.463-68.71-99.34-69.42-160.44-.443-37.524 7.978-73.16 25.03-105.91l228.44-383.2-225.04.378c-53.988 0-97.88 46.667-97.88 104.05 0 0 .013 521.08-.181 545.06 8.93-.053 139.05.053 139.05.053m310.76-.197l52.3.147c53.955 0 97.9-46.667 97.9-104.02 0 0-.164-516.55-.164-545.21-29.18 0-183.74-.23-202.85-.28l-161.54 269.71c18.483-5.01 37.39-7.633 56.4-7.83l2.577-.039c122.49 0 223.3 99.72 224.68 222.24.705 62.753-24.441 122.39-69.3 165.28m-155.94-324.06h-1.789c-60.42.705-114.84 34.717-141.97 88.77-11.605 23.01-17.334 47.881-17.07 73.898 1.018 87.64 73.18 158.99 160.83 158.99h1.822c88.69-.985 160.01-73.947 159.01-162.64-.985-87.69-73.11-159.02-160.83-159.02" fill="#ef3f24" transform="translate(-50-207.58)"/></svg>