<svg xmlns="http://www.w3.org/2000/svg" height="592.97" width="600" viewBox="0 0 158.75 156.88973"><g transform="translate(22.679-46.2)"><path d="m94.69 55.3c24.642 13.371 41.38 39.32 41.38 69.07 0 43.4-35.61 78.71-79.37 78.71-43.77 0-79.38-35.31-79.38-78.71 0-39.907 30.13-72.958 69.02-78l-18.967 25.773c-18.479 10.231-31 29.801-31 52.23 0 32.99 27.06 59.83 60.33 59.83 33.26 0 60.32-26.84 60.32-59.83 0-23.5-13.76-43.868-33.695-53.642l11.363-15.433" fill="#fff"/><path d="m56.948 103.06c12.146 0 22.02 9.79 22.02 21.83 0 12.03-9.875 21.82-22.02 21.82-12.13 0-22.01-9.79-22.01-21.82 0-12.04 9.883-21.83 22.01-21.83m-37.4-2.91l-.783 1.16v.1c-4.418 7.05-6.774 15.13-6.774 23.48 0 24.58 20.18 44.57 44.956 44.57 24.796 0 44.972-19.99 44.972-44.57 0-22.81-17.362-41.65-39.67-44.26l21.92-29.764c-7.735-2.976-16.13-4.635-24.912-4.666l-37.724 51.27c-.682.837-1.365 1.767-1.985 2.686" fill="#cf1e26"/></g></svg>