<svg xmlns="http://www.w3.org/2000/svg" xmlns:xlink="http://www.w3.org/1999/xlink" viewBox="0 0 600 437.6"><defs><path id="0" d="m0 0l.033-1.109h.005l.369 1.109h.566l-.064-1.879h-.483l.141 1.353h-.006l-.151-.463-.34-.89h-.326l-.044.9.004.418.006.035h-.005l-.305-1.353h-.453l.473 1.879h.58" fill="#fff"/><path id="1" d="m0 0l-.07-.368h.184l-.085-.374h-.183l-.145-.952h-.447l.144.952h-.155l.084.374h.155l.071.368h.447" fill="#fff"/><path id="2" d="m0 0l-.348-1.985h-.44l.348 1.985h.44" fill="#fff"/><clipPath><path d="m241.34 537.44c0-.921.516-1.704 1.34-1.968v-.024c-1.075-.345-1.792-1.139-1.792-2.279 0-1.796 1.888-2.625 3.442-2.625 1.554 0 3.443.829 3.443 2.625 0 1.14-.718 1.934-1.793 2.279v.024c.825.264 1.34 1.047 1.34 1.968 0 1.658-1.447 2.476-2.99 2.476-1.542 0-2.99-.818-2.99-2.476m2.285-.786c-.198.198-.322.473-.322.751 0 .532.458.963 1.027.963.57 0 1.027-.431 1.027-.963 0-.279-.127-.555-.329-.753-.185-.181-.703-.479-.703-.479 0 0-.518.298-.7.481m-.544-3.419c0 .307.156.61.403.83.225.2.859.528.859.528 0 0 .632-.329.854-.53.242-.22.392-.521.392-.828 0-.587-.559-1.061-1.253-1.061-.695 0-1.255.474-1.255 1.061"/></clipPath><clipPath id="4"><path d="m237.89 530h13.14v10.01h-13.14v-10.01"/></clipPath><clipPath id="3"><path d="m237.89 530.43h13.14v9.582h-13.14v-9.582"/></clipPath><linearGradient y1="530.54" x2="0" y2="539.91" id="5" gradientUnits="userSpaceOnUse"><stop stop-color="#ed1c24"/><stop offset=".544" stop-color="#ae1c22"/><stop offset="1" stop-color="#ed1c24"/></linearGradient></defs><g transform="translate(-50-313.56)"><path d="m241.34 537.44c0-.921.516-1.704 1.34-1.968v-.024c-1.075-.345-1.792-1.139-1.792-2.279 0-1.796 1.888-2.625 3.442-2.625 1.554 0 3.443.829 3.443 2.625 0 1.14-.718 1.934-1.793 2.279v.024c.825.264 1.34 1.047 1.34 1.968 0 1.658-1.447 2.476-2.99 2.476-1.542 0-2.99-.818-2.99-2.476m2.285-.786c-.198.198-.322.473-.322.751 0 .532.458.963 1.027.963.57 0 1.027-.431 1.027-.963 0-.279-.127-.555-.329-.753-.185-.181-.703-.479-.703-.479 0 0-.518.298-.7.481m-.544-3.419c0 .307.156.61.403.83.225.2.859.528.859.528 0 0 .632-.329.854-.53.242-.22.392-.521.392-.828 0-.587-.559-1.061-1.253-1.061-.695 0-1.255.474-1.255 1.061" fill="url(#5)" transform="matrix(45.66908 0 0-45.66908-10814.03 24975.64)"/><g clip-path="url(#4)" transform="matrix(45.66908 0 0-45.66908-10814.03 24975.64)"><path d="m0 0v.063c-.333 0-.632.114-.847.296-.214.182-.344.43-.344.702 0 .286.145.574.381.783.052.046.132.103.222.161.135.087.291.177.414.244.061.034.114.063.151.083.019.0001.034.018.044.023.0001.005.015.008.015.008l-.029.056-.029-.056c0 0 .009-.005.027-.014.061-.033.219-.117.384-.215.083-.049.168-.102.244-.152.075-.051.141-.1.186-.14.231-.208.372-.495.372-.781 0-.272-.13-.52-.344-.702-.215-.182-.514-.296-.847-.296v-.063-.063c.362 0 .69.123.929.325.238.202.388.485.388.799 0 .328-.159.645-.413.875-.06.054-.143.113-.235.174-.276.179-.632.365-.633.365l-.029.016-.029-.016c0 0-.16-.082-.347-.19-.094-.054-.195-.114-.288-.174-.092-.06-.176-.119-.237-.173-.259-.229-.423-.548-.423-.877 0-.314.15-.597.388-.799.239-.202.567-.325.929-.325v.063m-.005 6.194v-.064c.268 0 .509-.101.683-.264.174-.164.28-.387.28-.635 0-.26-.119-.52-.31-.708-.042-.041-.107-.093-.18-.145-.11-.079-.238-.16-.338-.221-.05-.031-.094-.057-.124-.075-.015-.009-.028-.016-.036-.021-.008-.005-.013-.007-.013-.007l.032-.055.032.055c0 0-.008.004-.022.012-.051.03-.179.107-.315.195-.067.045-.137.092-.198.138-.062.045-.116.09-.152.126-.187.187-.303.447-.303.706 0 .248.106.471.28.635.174.163.415.264.684.264v.064.063c-.301 0-.573-.114-.77-.299-.198-.185-.321-.443-.32-.727 0-.297.13-.586.34-.796.05-.05.118-.104.193-.159.227-.163.518-.332.519-.332l.032-.018.032.018c0 0 .13.075.284.173.077.049.16.104.236.158.076.055.145.108.196.158.213.21.348.5.348.798 0 .284-.123.542-.32.727-.197.185-.47.299-.77.299v-.063m1.649-2.919h.064v.023h-.064l.02-.061c.426.137.773.409 1.012.764.24.355.372.793.372 1.265 0 .424-.093.797-.257 1.116-.247.478-.655.835-1.145 1.071-.491.235-1.065.352-1.651.352-.782 0-1.542-.207-2.111-.628-.284-.211-.52-.476-.685-.795-.164-.319-.257-.692-.257-1.116 0-.472.132-.91.371-1.265.24-.355.587-.627 1.013-.764l.019.061h-.063v-.023h.063l-.019.06c-.548-.176-1.01-.467-1.33-.862-.323-.395-.508-.895-.507-1.478 0-.46.121-.861.328-1.201.311-.509.812-.881 1.381-1.125.568-.244 1.206-.362 1.797-.362.788 0 1.659.209 2.338.649.34.22.632.499.839.838.207.34.329.741.329 1.201 0 .583-.185 1.083-.508 1.478-.322.395-.782.686-1.329.862l-.02-.06h.064-.064l-.019-.061c.529-.169.966-.448 1.27-.821.305-.374.479-.841.479-1.398 0-.438-.115-.814-.31-1.135-.293-.481-.771-.838-1.322-1.074-.551-.237-1.173-.352-1.747-.352-.766 0-1.617.205-2.27.628-.327.212-.604.478-.799.798-.196.321-.311.697-.311 1.135 0 .557.175 1.024.479 1.398.305.373.742.652 1.271.821l.044.015v.115l-.044.014c-.399.128-.722.381-.947.713-.224.333-.349.747-.349 1.195 0 .406.088.757.243 1.057.232.451.616.789 1.087 1.015.47.227 1.026.34 1.596.34.76 0 1.495-.202 2.035-.603.271-.201.493-.451.648-.752.155-.3.243-.651.243-1.057 0-.448-.125-.862-.35-1.195-.224-.332-.547-.585-.946-.713l-.044-.014v-.115l.044-.015.019.061" fill="#fff" transform="translate(244.34 532.17)"/></g><g clip-path="url(#4)" transform="matrix(45.66908 0 0-45.66908-10814.03 24975.64)"><path d="m0 0v.106c-.323 0-.613.11-.819.285-.104.088-.186.191-.242.304-.057.113-.088.237-.088.366 0 .136.035.273.098.402.063.128.155.248.269.349.049.043.128.1.217.157.133.086.289.176.411.243.061.034.114.063.151.082.018.0001.033.018.043.024.0001.005.016.008.016.008l-.049.093-.049-.093c0 0 .003-.002.007-.004.034-.018.193-.102.368-.204.087-.051.179-.107.26-.161.081-.053.153-.106.198-.146.111-.101.201-.22.262-.349.062-.128.095-.265.095-.401 0-.129-.03-.253-.087-.366-.084-.17-.227-.317-.411-.422-.184-.105-.407-.167-.65-.167v-.106-.106c.372 0 .709.127.956.336.123.105.224.23.294.371.07.141.11.297.109.46 0 .171-.041.338-.115.493-.074.154-.181.295-.312.413-.063.057-.147.117-.24.178-.139.091-.298.182-.422.252-.124.069-.214.115-.214.116l-.049.025-.049-.025c0 0-.16-.083-.348-.192-.095-.054-.196-.114-.29-.175-.093-.06-.178-.12-.242-.176-.133-.118-.242-.26-.318-.414-.076-.155-.12-.323-.12-.495 0-.163.04-.319.11-.46.105-.211.279-.388.495-.511.217-.124.476-.195.755-.196v.106m-.005 6.194v-.106c.258 0 .488-.097.654-.253.167-.156.267-.369.267-.604 0-.247-.114-.497-.298-.678-.039-.038-.103-.089-.175-.141-.108-.077-.236-.158-.335-.219-.05-.031-.093-.057-.124-.075-.015-.009-.027-.016-.035-.021-.008-.004-.013-.007-.013-.007l.053-.091.053.091-.006.003c-.028.016-.157.093-.3.185-.071.046-.146.097-.212.145-.066.048-.124.095-.16.131-.18.18-.291.43-.291.677 0 .235.101.448.267.604.166.156.397.253.655.253v.106.105c-.312 0-.594-.118-.799-.31-.205-.192-.334-.461-.334-.758 0-.31.136-.608.353-.826.053-.052.122-.107.199-.163.114-.083.244-.166.346-.229.102-.063.176-.105.176-.106l.053-.03.053.03c0 0 .131.076.286.174.078.05.161.105.238.16.077.055.147.11.2.162.221.217.361.517.361.828 0 .297-.128.566-.333.758-.205.192-.488.31-.799.31v-.105m1.649-2.919h.106v.023h-.106l.033-.101c.435.14.79.418 1.034.78.245.362.379.809.379 1.289 0 .43-.094.81-.262 1.135-.252.488-.667.851-1.164 1.09-.497.239-1.077.356-1.669.356-.79 0-1.558-.208-2.136-.637-.289-.214-.53-.484-.697-.809-.168-.325-.262-.705-.262-1.135 0-.48.134-.927.378-1.289.245-.362.6-.64 1.035-.78l.032.101h-.105v-.023h.105l-.032.1c-.554-.178-1.021-.473-1.35-.875-.329-.403-.517-.913-.516-1.505 0-.467.123-.877.334-1.223.317-.519.826-.895 1.4-1.142.575-.246 1.217-.365 1.814-.365.795 0 1.673.21 2.361.656.344.223.641.505.852.851.211.346.335.756.335 1.223 0 .592-.188 1.102-.517 1.505-.329.402-.796.697-1.349.875l-.033-.1h.106-.106l-.032-.101c.522-.167.952-.442 1.251-.808.298-.366.469-.823.469-1.371 0-.43-.112-.798-.304-1.113-.287-.471-.758-.824-1.303-1.058-.544-.234-1.161-.348-1.73-.348-.759 0-1.603.204-2.247.622-.322.209-.595.47-.786.784-.192.315-.304.683-.304 1.113 0 .548.17 1 .469 1.371.299.366.728.641 1.25.808l.074.024v.177l-.074.023c-.389.125-.704.371-.924.697-.219.325-.342.731-.342 1.171 0 .399.087.744.238 1.038.228.441.604.773 1.068.996.463.223 1.013.336 1.578.336.752 0 1.479-.2 2.01-.595.266-.197.484-.443.635-.737.152-.294.239-.639.239-1.038 0-.44-.123-.846-.343-1.171-.219-.326-.534-.572-.924-.697l-.073-.023v-.177l.073-.024.032.101" fill="#ae1c22" transform="translate(244.34 532.17)"/><path d="m0 0v.084c-.328 0-.623.113-.833.291-.211.179-.337.421-.337.686 0 .14.035.28.1.411.065.131.159.253.274.356.051.045.13.101.219.159.134.086.291.176.413.244.061.034.114.062.151.082.019.0001.033.018.043.023.011.005.016.008.016.008l-.039.075-.039-.075c0 0 .002 0 .007-.003.034-.018.193-.102.368-.205.088-.051.18-.107.262-.161.081-.054.154-.107.2-.149.227-.205.365-.486.365-.765 0-.265-.126-.507-.337-.686-.21-.178-.505-.291-.833-.291v-.084-.084c.367 0 .699.125.942.33.243.205.397.495.396.815 0 .335-.162.657-.42.891-.062.055-.145.115-.238.175-.276.181-.633.366-.634.367l-.039.02-.039-.02c0 0-.16-.083-.348-.191-.094-.054-.195-.114-.288-.174-.093-.061-.177-.12-.24-.175-.131-.116-.239-.256-.313-.408-.075-.152-.118-.317-.118-.485 0-.32.154-.61.397-.815.243-.205.575-.33.942-.33v.084m-.005 6.194v-.085c.263 0 .499-.099.669-.259.17-.159.273-.378.273-.619 0-.253-.116-.509-.304-.693-.04-.04-.105-.091-.178-.143-.109-.078-.236-.159-.336-.221-.05-.03-.093-.056-.124-.074-.015-.009-.027-.016-.035-.021-.009-.005-.013-.007-.013-.007l.042-.073.042.073-.005.003c-.028.016-.158.093-.301.185-.072.047-.147.097-.213.146-.067.049-.126.096-.163.133h.002-.002c-.184.184-.297.439-.297.692 0 .241.104.46.274.619.17.16.406.259.669.259v.085.084c-.306 0-.584-.116-.785-.305-.201-.188-.327-.452-.327-.742 0-.303.133-.597.347-.811.051-.051.12-.105.196-.161.228-.164.52-.333.521-.333l.042-.025.042.024c0 0 .131.076.286.174.077.049.16.104.237.159.076.055.146.109.197.16.218.214.355.508.355.813 0 .29-.125.554-.327.742-.201.189-.478.305-.784.305v-.084m1.649-2.919h.085v.023h-.085l.026-.081c.431.138.782.413 1.024.772.242.358.375.801.375 1.277 0 .427-.093.803-.26 1.125-.249.484-.66.843-1.154 1.081-.494.237-1.071.354-1.66.354-.786 0-1.55-.207-2.124-.633-.286-.212-.524-.48-.691-.802-.166-.322-.259-.698-.259-1.125 0-.476.133-.919.375-1.277.242-.359.593-.634 1.023-.772l.026.081h-.084v-.023h.084l-.026.08c-.55-.177-1.013-.47-1.339-.869-.326-.399-.513-.903-.512-1.491 0-.464.122-.869.331-1.212.314-.514.819-.888 1.39-1.133.572-.246 1.212-.364 1.806-.364.792 0 1.666.21 2.35.652.342.222.636.502.845.845.209.343.332.748.332 1.212 0 .588-.186 1.092-.512 1.491-.326.399-.789.692-1.34.869l-.026-.08h.085-.085l-.025-.081c.525-.168.958-.445 1.26-.815.301-.369.474-.832.474-1.384 0-.434-.113-.806-.307-1.124-.29-.476-.764-.831-1.312-1.066-.548-.235-1.168-.35-1.739-.35-.762 0-1.61.204-2.258.625-.325.21-.6.474-.793.791-.194.318-.307.69-.308 1.124 0 .552.173 1.015.475 1.384.301.37.735.647 1.26.815l.059.019v.146l-.059.019c-.394.127-.713.376-.935.705-.222.329-.346.739-.346 1.183 0 .403.087.75.241 1.048.23.446.61.781 1.077 1 .467.225 1.02.338 1.587.338.756 0 1.487-.201 2.023-.599.268-.199.488-.447.641-.744.154-.298.241-.645.241-1.048 0-.444-.124-.854-.346-1.183-.222-.329-.541-.578-.935-.705l-.059-.019v-.146l.059-.019.025.081" fill="#fff" transform="translate(244.34 532.17)"/><use transform="translate(239.07 536.55)" xlink:href="#0"/><path d="m0 0c-.064-.339-.257-.688-.728-.688-.471 0-.533.349-.47.688.064.339.258.691.729.691.471 0 .533-.352.469-.691m-.758 0c-.014-.076-.061-.357.092-.357.153 0 .212.281.226.357.015.076.061.357-.092.357-.152 0-.212-.281-.226-.357" fill="#fff" transform="translate(241.41 535.28)" id="6"/><path d="m0 0h.006c.083.126.237.231.409.231.324 0 .239-.305.203-.496l-.161-.856h-.44l.137.727c.012.068.078.252-.062.252-.1 0-.135-.087-.147-.152l-.156-.827h-.44l.25 1.326h.439l-.038-.205" fill="#fff" transform="translate(242.1 535.74)" id="7"/><path d="m0 0h.006c.083.126.237.231.409.231.324 0 .239-.305.203-.496l-.162-.856h-.439l.137.727c.012.068.078.252-.062.252-.1 0-.135-.087-.147-.152l-.156-.827h-.44l.25 1.326h.439l-.038-.205" fill="#fff" transform="translate(249.18 535.74)" id="8"/><use transform="translate(243.6 536.31)" xlink:href="#1"/><path d="m0 0l.333 1.887h.52c.187 0 .346-.005.481-.103.14-.1.193-.267.161-.425-.034-.168-.141-.295-.34-.39.184-.076.243-.276.21-.438-.076-.373-.462-.531-.899-.531h-.466m.646.823l-.103-.51c.191-.008.326.102.358.26.03.148-.064.255-.255.25m.153.751l-.094-.46c.18 0 .306.095.335.237.028.138-.056.231-.241.223" fill="#fff" transform="translate(245.08 534.62)" id="9"/><use transform="translate(247.28 536.61)" xlink:href="#2"/><path d="m0 0h-.006c-.08-.1-.187-.176-.331-.176-.363 0-.345.478-.304.691.044.228.187.688.563.688.15 0 .236-.082.267-.189h.006l.031.163h.45l-.255-1.327h-.45l.029.15m.132.52c.014.073.059.355-.094.355-.15 0-.214-.279-.228-.355-.016-.084-.062-.357.097-.357.144 0 .211.286.225.357" fill="#fff" transform="translate(247.87 534.77)" id="A"/><path d="m0 0c-.09-.032-.178-.047-.271-.047-.444 0-.526.378-.467.68.065.333.299.699.771.699.081 0 .15-.014.219-.04l-.063-.326c-.036.032-.07.042-.125.042-.223 0-.314-.217-.341-.354-.028-.142-.034-.355.196-.355.052 0 .101.016.147.04l-.066-.339" fill="#fff" transform="translate(250.65 534.64)" id="B"/></g><g clip-path="url(#3)" transform="matrix(45.66908 0 0-45.66908-10814.03 24975.64)"><use transform="translate(239.07 536.55)" xlink:href="#0"/><path d="m0 0l-.127-.004.033-1.109c.002-.068.058-.122.127-.122h.005c.055 0 .103.034.12.086l.341 1.022h.343l-.055-1.625h-.221l.127 1.213c.004.036-.008.072-.032.098-.024.027-.058.042-.094.042h-.006c-.054 0-.103-.035-.12-.087l-.15-.461-.309-.805h-.117l-.039.775.005.404.004.025c.007.037-.003.075-.027.104-.025.028-.06.045-.098.045h-.005c-.059 0-.111-.041-.124-.099l-.283-1.254h-.188l.409 1.625h.481v.127l-.127-.004.127.004v.127h-.58c-.058 0-.108-.04-.122-.096l-.474-1.879c-.009-.037 0-.078.023-.108.024-.031.061-.049.1-.049h.453c.059 0 .11.041.123.099l.305 1.352-.123.028v-.126h.005v.126l-.124.023-.006-.035c-.002-.008-.002-.014-.002-.021l-.005-.419v-.007l.045-.9c.003-.068.059-.12.126-.12h.326c.052 0 .099.032.118.081l.341.89.002.006.151.463-.121.039v-.126h.006v.126l-.126.013-.141-1.352c-.004-.036.008-.072.032-.098.024-.027.058-.042.094-.042h.483c.069 0 .125.054.127.122l.063 1.879c0 .034-.011.067-.035.092-.024.025-.057.039-.091.039h-.566c-.055 0-.103-.035-.12-.087l-.369-1.109.12-.04v.127h-.005v-.127l.126.004-.032 1.109c-.002.068-.059.123-.127.123v-.127" fill="#ae1c22" transform="translate(239.07 536.55)"/></g><g clip-path="url(#4)" transform="matrix(45.66908 0 0-45.66908-10814.03 24975.64)"><use id="C" xlink:href="#6"/><path d="m0 0l-.124.023c-.029-.154-.088-.305-.182-.41-.047-.053-.102-.095-.17-.126-.068-.03-.15-.048-.252-.049-.082 0-.143.013-.189.03-.034.014-.06.03-.081.049-.032.029-.054.064-.07.111-.016.046-.024.102-.024.165 0 .057.007.12.019.184.028.154.088.306.182.411.047.054.102.096.17.127.068.03.15.049.252.049.081 0 .143-.012.188-.03.035-.013.06-.03.082-.049.031-.029.053-.065.069-.111.016-.046.024-.103.024-.166 0-.058-.006-.121-.018-.185l.124-.023.124-.023c.015.076.024.153.024.231 0 .074-.009.149-.029.221-.016.054-.039.106-.071.154-.049.073-.119.134-.207.174-.087.04-.191.06-.31.06-.133 0-.253-.025-.355-.071-.155-.069-.269-.184-.347-.312-.079-.129-.125-.272-.151-.411-.014-.076-.023-.153-.023-.23 0-.075.008-.149.029-.221.016-.054.039-.106.071-.154.048-.072.119-.133.206-.173.088-.04.192-.06.311-.06.133 0 .252.025.355.071.154.069.268.183.347.311.078.129.124.271.15.41l-.124.023m-.758 0l-.124.023c-.007-.035-.02-.111-.02-.194 0-.028 0-.057.006-.088.003-.023.009-.046.017-.07.013-.035.035-.074.073-.106.018-.015.041-.028.065-.037.024-.008.05-.012.075-.012.039 0 .076.0001.108.025.056.027.094.068.122.109.043.063.068.129.087.189.018.059.029.11.034.138.006.035.02.11.02.193 0 .029-.002.058-.006.089-.004.022-.009.046-.018.07-.013.035-.035.074-.072.106-.019.015-.042.028-.066.036-.024.009-.05.013-.075.013-.038 0-.076-.0001-.108-.025-.056-.027-.093-.069-.122-.11-.043-.062-.068-.129-.087-.188-.018-.059-.028-.11-.033-.138l.124-.023.125-.023c.003.017.009.045.017.078.013.049.034.107.057.142.011.017.021.028.026.032l.003.002-.002.005v-.006h.002l-.002.005v-.006.024l-.006-.022c.003 0 .006-.002.006-.002v.024l-.006-.022.011.038-.03-.027c.003-.003.012-.009.019-.011l.011.038-.03-.027.015.013-.017-.0001.002-.003.015.013-.017-.0001c0 0 .005-.0001.007-.024.002-.013.004-.032.004-.052 0-.054-.011-.118-.016-.147-.003-.017-.009-.046-.018-.078-.013-.049-.034-.107-.056-.142-.011-.017-.022-.028-.027-.032l-.003-.002.002-.005v.005h-.002l.002-.005v.005-.023l.007.022c-.004 0-.007 0-.007 0v-.023l.007.022-.012-.038.03.027c-.003.003-.011.009-.018.011l-.012-.038.03.027-.015-.013.017.0001-.002.003-.015-.013.017.0001c0 0-.004.0001-.006.023-.003.014-.004.033-.004.052 0 .055.0001.119.016.148l-.125.023" fill="#ae1c22" transform="translate(241.41 535.28)"/><use xlink:href="#7"/><path d="m0 0v-.127h.006c.043 0 .082.022.106.057.031.047.077.092.13.124.054.032.113.051.173.05.036 0 .06-.005.073-.0001.011-.004.016-.008.019-.011.005-.005.009-.0001.014-.024.004-.014.008-.035.008-.062 0-.033-.005-.072-.012-.114-.007-.041-.016-.084-.024-.125l-.141-.753h-.183l.109.578c.002.009.009.035.015.066.007.031.014.068.014.111 0 .021-.002.043-.008.068-.004.018-.011.038-.023.058-.017.029-.045.058-.079.075-.034.017-.071.024-.105.024-.043 0-.086-.0001-.122-.029-.027-.014-.05-.033-.068-.052-.028-.03-.045-.062-.058-.092-.012-.03-.019-.058-.024-.083l-.136-.724h-.182l.202 1.073h.182l-.0001-.055c-.007-.037.003-.075.027-.104.024-.029.059-.046.097-.046v.127l.124-.023.039.205c.007.036-.003.075-.027.104-.024.029-.06.046-.098.046h-.439c-.061 0-.114-.044-.125-.104l-.249-1.326c-.007-.037.003-.075.027-.104.024-.029.06-.046.097-.046h.44c.061 0 .113.043.124.103l.156.827c.002.011.005.022.008.03.005.014.011.02.011.02l-.002.002.002-.002-.002.002.002-.002-.004.005.003-.006-.004.005.003-.006v.003-.003.003-.003c0 0 .002 0 .006 0l.002.02-.005-.019h.003l.002.02-.005-.019.014.052-.033-.041c.006-.006.014-.0001.019-.011l.014.052-.033-.041.033.04-.05-.017c0-.003.006-.015.017-.023l.033.04-.05-.017.016.006-.017-.004v-.002l.016.006-.017-.004c0 0 0-.004 0-.008 0-.012-.003-.035-.008-.058-.005-.024-.012-.047-.017-.073l-.137-.727c-.007-.037.003-.075.027-.104.024-.029.06-.046.098-.046h.44c.06 0 .113.043.124.103l.161.856c.007.037.017.082.025.13.008.049.015.101.015.156 0 .04-.004.081-.015.123-.009.032-.022.064-.042.094-.029.046-.074.085-.128.109-.055.024-.115.035-.182.035-.112 0-.216-.034-.303-.086-.087-.053-.159-.123-.212-.202l.106-.07v.127h-.006v-.127l.124-.023-.124.023" fill="#ae1c22" transform="translate(242.1 535.74)"/><use xlink:href="#8"/><path d="m0 0v-.127h.006c.043 0 .083.022.106.057.031.047.077.092.13.124.054.032.113.051.173.05.036 0 .06-.005.073-.0001.011-.004.015-.008.019-.011.005-.005.009-.0001.014-.024.004-.013.008-.035.008-.062 0-.032-.005-.072-.012-.113-.007-.042-.016-.085-.024-.126l-.142-.753h-.182l.109.578c.002.008.008.035.015.066.007.031.014.068.014.111 0 .021-.002.043-.008.068-.004.018-.011.038-.023.058-.017.029-.045.058-.079.075-.034.017-.071.024-.105.024-.043 0-.086-.0001-.122-.029-.027-.014-.05-.033-.068-.052-.028-.03-.045-.062-.058-.092-.012-.03-.019-.058-.024-.083l-.136-.724h-.182l.202 1.073h.182l-.0001-.055c-.007-.037.003-.075.027-.104.023-.029.059-.046.097-.046v.127l.124-.023.039.205c.007.036-.003.075-.027.104-.024.029-.06.046-.098.046h-.439c-.061 0-.113-.044-.125-.104l-.249-1.326c-.007-.037.003-.075.027-.104.024-.029.06-.046.097-.046h.44c.061 0 .113.043.124.103l.156.827c.002.0001.005.021.008.029.005.014.011.02.011.02l-.002.002v-.002l-.002.002v-.002l-.003.005.003-.006-.003.005.003-.006v.003-.003.003-.003c0 0 .002 0 .006 0l.002.02-.005-.019h.003l.002.02-.005-.019.014.052-.033-.041c.006-.006.014-.0001.019-.011l.014.052-.033-.041.033.04-.051-.017c0-.003.007-.015.018-.023l.033.04-.051-.017.016.005-.016-.003v-.002l.016.005-.016-.003c0 0 0-.004 0-.008 0-.012-.003-.035-.009-.058-.005-.024-.011-.047-.016-.072l-.137-.727c-.007-.037.003-.075.027-.104.024-.029.06-.046.098-.046h.439c.061 0 .114.043.125.103l.161.856c.007.037.017.082.025.13.008.049.015.102.015.156 0 .04-.004.081-.015.123-.009.032-.022.064-.042.094-.029.046-.074.085-.128.109-.055.024-.115.035-.182.035-.112 0-.216-.034-.303-.086-.087-.053-.159-.123-.212-.202l.106-.07v.127h-.006v-.127l.124-.023-.124.023" fill="#ae1c22" transform="translate(249.18 535.74)"/><use transform="translate(243.6 536.31)" xlink:href="#1"/><path d="m0 0l-.124.024-.071-.368c-.007-.037.003-.075.027-.104.024-.029.06-.046.098-.046h.025l-.027-.121h-.082c-.063 0-.116-.046-.126-.108l-.127-.844h-.191l.121.807c.006.036-.005.073-.029.101-.024.028-.059.044-.096.044h-.155v-.127l.123-.027.062.275h.054c.061 0 .113.043.125.103l.051.264h.342v.127l-.124.024.124-.024v.127h-.447c-.061 0-.113-.044-.125-.103l-.05-.265h-.051c-.059 0-.111-.041-.124-.099l-.084-.374c-.008-.037 0-.077.025-.107.024-.03.06-.047.099-.047h.008l-.122-.807c-.005-.037.005-.073.029-.101.024-.029.059-.045.096-.045h.447c.063 0 .116.046.126.108l.127.845h.075c.06 0 .111.041.124.099l.084.374c.009.037 0 .076-.024.106-.024.031-.061.048-.099.048h-.031l.041.217c.007.037-.002.076-.026.105-.024.029-.06.046-.098.046v-.127" fill="#ae1c22" transform="translate(243.6 536.31)"/><use xlink:href="#9"/><path d="m0 0l.125-.022.314 1.782h.414c.092 0 .172 0 .239-.013.067-.011.119-.03.167-.065.04-.028.068-.063.088-.102.019-.04.029-.084.029-.13 0-.022-.002-.043-.006-.065-.014-.065-.039-.116-.08-.165-.042-.048-.103-.094-.191-.136-.045-.022-.073-.068-.072-.118.002-.05.033-.095.079-.114.049-.02.081-.051.104-.091.023-.04.036-.091.036-.142 0-.021-.002-.042-.006-.062-.016-.075-.045-.135-.086-.187-.062-.077-.155-.138-.274-.18-.119-.041-.262-.062-.415-.062h-.466v-.127l.125-.022-.125.022v-.127h.466c.234 0 .458.041.645.141.093.05.176.115.242.197.066.083.113.182.136.294.007.037.011.075.011.113 0 .091-.021.184-.069.268-.048.084-.125.158-.228.2l-.048-.117.054-.115c.112.053.204.119.274.2.07.081.115.177.136.28.007.038.011.076.011.115 0 .082-.018.165-.055.241-.037.076-.094.145-.168.198-.085.061-.18.094-.273.109-.094.016-.187.017-.281.017h-.52c-.062 0-.114-.044-.125-.105l-.333-1.887c-.006-.037.004-.075.028-.103.024-.029.059-.046.097-.046v.127m.646.823l-.124.026-.103-.511c-.008-.036 0-.074.024-.103.023-.03.058-.047.095-.049.007 0 .015 0 .023 0 .116 0 .222.035.305.1.082.065.138.158.159.262.005.026.008.052.008.078 0 .045-.009.09-.027.131-.028.063-.079.115-.14.147-.061.032-.131.046-.207.046-.005 0-.011 0-.016 0-.059-.002-.109-.044-.121-.101l.124-.026.004-.126h.009c.029 0 .052-.004.069-.009.025-.008.035-.017.041-.025.006-.008.0001-.017.011-.037 0-.008 0-.017-.003-.028-.0001-.049-.034-.086-.068-.113-.035-.027-.082-.046-.148-.046-.005 0-.009 0-.013 0l-.005-.126.124-.025.104.51-.125.025.004-.126-.004.126m.153.751l-.124.025-.094-.46c-.007-.037.002-.076.026-.105.025-.03.061-.047.098-.047.113 0 .216.03.299.089.082.059.14.149.16.25.005.025.008.05.008.075 0 .042-.008.084-.026.124-.013.029-.032.056-.055.079-.034.035-.077.06-.123.075-.046.016-.096.022-.148.022-.009 0-.017 0-.026 0-.058-.003-.107-.045-.119-.102l.124-.025.005-.126c.006 0 .011 0 .016 0 .027 0 .048-.003.062-.007.023-.007.029-.014.031-.017l.003-.006c0-.004.003-.009.003-.017 0-.006 0-.014-.003-.024-.009-.042-.028-.071-.061-.095-.033-.024-.082-.042-.15-.042v-.126l.125-.026.093.461-.124.025.005-.126-.005.126" fill="#ae1c22" transform="translate(245.08 534.62)"/><use transform="translate(247.28 536.61)" xlink:href="#2"/><path d="m0 0l-.125.022-.329-1.881h-.183l.304 1.732h.333v.127l-.125.022.125-.022v.127h-.44c-.061 0-.114-.045-.124-.105l-.348-1.985c-.007-.037.003-.075.028-.104.024-.028.059-.045.096-.045h.44c.062 0 .114.044.125.105l.348 1.985c.006.037-.004.075-.028.103-.024.029-.059.046-.097.046v-.127" fill="#ae1c22" transform="translate(247.28 536.61)"/><use xlink:href="#A"/><path d="m0 0v.127h-.006c-.039 0-.075-.018-.099-.048-.033-.041-.068-.073-.106-.095-.038-.021-.077-.033-.126-.033-.045 0-.073.0001-.094.023-.016.0001-.03.023-.043.041-.019.028-.036.068-.046.117-.011.048-.015.103-.015.157 0 .076.008.15.019.202.019.105.064.265.14.387.037.061.082.112.13.145.049.034.1.053.168.053.052 0 .081-.013.101-.028.02-.015.034-.037.044-.069.015-.054.065-.092.122-.092h.006c.061 0 .113.043.124.103l.012.06h.192l-.207-1.073h-.345v-.127l.125-.024.028.15c.007.037-.002.076-.026.105-.024.029-.06.046-.098.046v-.127l-.124.024-.029-.15c-.007-.037.003-.075.027-.104.024-.029.06-.046.097-.046h.45c.061 0 .113.043.124.102l.255 1.327c.008.037-.002.075-.026.104-.024.029-.06.046-.098.046h-.45c-.06 0-.112-.043-.124-.102l-.031-.163.124-.024v.126h-.006v-.126l.122.034c-.021.076-.065.149-.134.201-.068.053-.157.081-.255.08-.12 0-.228-.038-.313-.098-.064-.044-.117-.1-.16-.159-.065-.09-.111-.188-.145-.282-.034-.093-.056-.182-.069-.251-.013-.068-.024-.155-.024-.25 0-.061.005-.124.017-.188.008-.047.022-.095.041-.141.03-.069.075-.136.143-.186.034-.025.073-.044.115-.057.043-.013.088-.02.136-.02.095 0 .181.026.253.068.072.041.129.097.177.156l-.099.079v-.127h.006v.127l-.124.024.124-.024m.132.52l.124-.024c.007.035.019.107.02.188 0 .029-.002.058-.007.089-.003.023-.009.047-.017.071-.013.036-.035.075-.073.107-.018.016-.041.029-.066.038-.024.008-.05.012-.075.012-.039 0-.076-.009-.108-.024-.055-.028-.093-.068-.121-.109-.043-.061-.069-.127-.088-.186-.019-.059-.03-.11-.036-.138-.008-.038-.021-.113-.022-.195 0-.029.002-.059.007-.089.004-.024.0001-.047.019-.072.014-.036.037-.075.076-.105.02-.015.042-.028.067-.035.024-.008.049-.012.074-.012.039 0 .077.0001.108.026.055.029.09.07.119.11.041.062.067.128.087.187.019.059.03.109.035.137l-.124.024-.124.024c-.006-.029-.025-.112-.055-.177-.014-.032-.032-.059-.044-.071-.005-.006-.009-.008-.009-.008l.005-.0001-.003.011h-.002l.005-.0001-.003.011.005-.02v.02h-.005l.005-.02v.02l-.002-.02.007.019h-.005l-.002-.02.007.019-.012-.032.026.022c-.002.003-.008.008-.014.0001l-.012-.032.026.022-.0001-.009.012.008h-.002l-.0001-.009.012.008c0 .002-.004.011-.006.024-.002.013-.003.029-.003.047 0 .053.0001.115.016.147.003.017.009.045.018.077.014.049.035.106.058.141.011.018.022.029.027.032l.003.002-.002.007v-.007h.002l-.002.007v-.007.023l-.007-.022h.007v.023l-.007-.022.011.037-.029-.026c.003-.003.011-.009.018-.011l.011.037-.029-.026.012.011-.014-.009.002-.002.012.011-.014-.009c.002-.003.005-.013.007-.027.002-.013.003-.031.003-.05 0-.054-.009-.114-.014-.14l.124-.024" fill="#ae1c22" transform="translate(247.87 534.77)"/></g><g clip-path="url(#3)" transform="matrix(45.66908 0 0-45.66908-10814.03 24975.64)"><use xlink:href="#B"/><path d="m0 0l-.042.12c-.079-.028-.15-.041-.229-.041-.076 0-.134.013-.177.033-.033.015-.059.033-.081.055-.033.032-.057.074-.074.124-.017.051-.025.11-.025.171 0 .049.005.099.015.147.028.147.095.301.2.411.052.056.114.101.187.133.073.032.157.052.259.052.068 0 .118-.0001.174-.031l.045.118-.124.024-.064-.325.125-.025.083.096c-.027.024-.061.045-.099.057-.037.013-.074.016-.109.016-.076 0-.147-.019-.205-.052-.044-.025-.081-.056-.112-.09-.046-.05-.078-.107-.101-.161-.023-.055-.038-.107-.047-.154-.009-.044-.016-.095-.016-.15 0-.037.003-.075.013-.115.007-.029.018-.06.035-.089.025-.044.065-.086.116-.112.051-.027.109-.039.172-.039.078 0 .147.024.204.053l-.057.113-.124.024-.066-.339.124-.024-.042.12.042-.12.124-.024.066.338c.0001.048-.009.097-.048.126-.038.029-.09.034-.133.012-.036-.018-.064-.026-.09-.026-.028 0-.043.005-.051.008-.006.003-.009.005-.012.008-.004.004-.009.012-.013.027-.004.014-.007.035-.007.059 0 .032.005.069.011.102.006.027.014.059.027.09.018.047.045.091.076.119.016.013.032.024.049.031.018.007.039.012.065.012.02 0 .028-.002.03-.003.002 0 .002 0 .011-.008.034-.03.082-.039.125-.024.043.014.074.051.083.095l.064.326c.011.06-.022.121-.08.143-.082.031-.169.047-.264.047-.134 0-.256-.026-.362-.073-.159-.07-.28-.185-.366-.314-.087-.13-.14-.274-.167-.414-.012-.063-.019-.128-.019-.195 0-.074.008-.149.029-.223.016-.054.038-.108.07-.158.046-.075.114-.141.201-.186.087-.046.191-.069.31-.069.108 0 .211.019.313.054.042.015.074.052.082.096l-.124.024" fill="#ae1c22" transform="translate(250.65 534.64)"/></g><g clip-path="url(#4)" transform="matrix(45.66908 0 0-45.66908-10814.03 24975.64)"><g fill="#fff"><path d="m244.5 534.95h-.352v.746h.352v-.746"/><path d="m244.82 535.18h-1.013v.295h1.013v-.295"/></g><use transform="translate(239.07 536.56)" xlink:href="#0"/><use transform="translate(0 .014)" xlink:href="#C"/><g fill="#fff"><path d="m0 0h.006c.083.126.237.231.409.231.324 0 .239-.304.203-.496l-.161-.856h-.44l.137.727c.012.068.078.252-.062.252-.1 0-.135-.086-.147-.152l-.156-.827h-.44l.25 1.326h.44l-.039-.205" transform="translate(242.1 535.76)"/><path d="m0 0h.006c.083.126.237.231.409.231.324 0 .239-.304.203-.496l-.162-.856h-.439l.137.727c.013.068.078.252-.062.252-.1 0-.135-.086-.147-.152l-.156-.827h-.44l.25 1.326h.439l-.038-.205" transform="translate(249.18 535.76)"/></g><use transform="translate(243.6 536.33)" xlink:href="#1"/><path d="m0 0l.333 1.887h.52c.187 0 .346-.005.481-.103.14-.1.193-.267.161-.425-.034-.168-.141-.295-.34-.39.184-.076.243-.276.21-.438-.076-.373-.462-.531-.899-.531h-.466m.646.823l-.103-.51c.191-.008.326.102.358.26.03.148-.064.255-.255.25m.153.751l-.094-.46c.18 0 .306.095.335.238.028.137-.056.23-.241.222" fill="#fff" transform="translate(245.08 534.63)"/><use transform="translate(247.28 536.62)" xlink:href="#2"/><g fill="#fff"><path d="m0 0h-.006c-.08-.1-.187-.176-.331-.176-.363 0-.345.478-.304.691.044.228.187.688.563.688.15 0 .236-.082.267-.189h.006l.031.163h.45l-.255-1.327h-.45l.029.15m.132.52c.014.073.059.355-.094.355-.15 0-.214-.279-.228-.355-.016-.084-.063-.357.097-.357.144 0 .211.286.225.357" transform="translate(247.87 534.78)"/><path d="m0 0c-.09-.032-.178-.047-.271-.047-.444 0-.526.378-.467.68.065.333.299.698.771.698.081 0 .15-.013.219-.039l-.063-.326c-.036.032-.07.042-.125.042-.223 0-.314-.217-.341-.354-.028-.142-.034-.355.196-.355.052 0 .1.016.147.04l-.066-.339" transform="translate(250.65 534.66)"/></g></g></g></svg>