<?xml version="1.0" encoding="UTF-8" standalone="no"?>
<svg xmlns:rdf="http://www.w3.org/1999/02/22-rdf-syntax-ns#" xmlns="http://www.w3.org/2000/svg" height="401.92" viewBox="0 0 600.00012 401.92075" width="600" version="1.1" xmlns:cc="http://creativecommons.org/ns#" xmlns:dc="http://purl.org/dc/elements/1.1/">
 <g stroke-width="1.3578" fill="#ec008c">
  <path d="m81.847 349.19c-3.961 0-6.191 2.57-7.056 5.42l-10.269 31.63h-0.473l-10.254-31.08c-0.811-2.54-2.326-5.97-6.735-5.97-5.196 0-8.075 3.12-8.075 7.09 0 1.33 0.448 3.21 1.41 5.63l11.76 30.84c2.182 5.97 5.15 9.17 11.472 9.17 6.053 0 9.389-3.3 11.711-9.17l11.029-30.57c0.77-2.08 1.467-4.53 1.467-5.98-0.003-3.86-1.33-7.01-5.987-7.01"/>
  <path d="m521.39 349.19c-15.21 0-27.25 9.97-27.25 26.43s12.03 26.3 27.25 26.3c15.3 0 27.44-9.84 27.44-26.3s-12.14-26.43-27.44-26.43zm0 12.38c8 0 12.97 5.87 12.97 14.04 0 8.19-4.97 14.05-12.97 14.05-7.93 0-12.92-5.86-12.92-14.05 0-8.17 4.99-14.04 12.92-14.04z"/>
  <path d="m480.8 324.57c-3.9 0-7.36 3.2-7.36 7.05v20.23c-3.5-1.76-7.52-2.76-12.95-2.76-5.72 0-12.78 1.56-17.69 6.75-4.27 4.41-7.15 10.82-7.15 19.66 0 7.75 2.32 14.05 6.22 18.47 4.53 5.19 11.51 7.95 19.87 7.95 7.84 0 15.59-2.65 20.33-8.3 4-4.64 5.94-10.49 5.94-19.22v-42.78c0-3.86-3.3-7.05-7.2-7.05h-0.01zm-18.17 36.23c4.77 0 7.73 1.32 10.81 3.43v10.61c0 5.43-1.01 8.51-3.24 11.06-2.18 2.43-5.28 3.32-8.31 3.32-4.05 0-7.24-1.78-9.08-4.64-1.66-2.44-2.62-5.54-2.62-9.52 0-4.96 1.25-8.5 3.35-10.72 2.11-2.32 5.26-3.54 9.09-3.54z"/>
  <path d="m404.4 349.1c-8.96 0-16.36 2.66-20.66 8.07-2.9 3.64-4.43 8.38-4.43 14.91v22.77c0 3.87 3.17 7.07 7.28 7.07 4.1 0 7.27-3.2 7.27-7.07v-21.33c0-2.76 0.46-4.97 1.46-6.86 1.55-2.75 4.38-4.63 9.08-4.63 4.63 0 7.62 1.88 9.17 4.63 1.01 1.89 1.32 4.1 1.32 6.86v21.33c0 3.87 3.32 7.07 7.38 7.07 4.02 0 7.36-3.2 7.36-7.07v-22.77c0-6.53-1.55-11.28-4.59-14.91-4.18-5.41-11.56-8.07-20.64-8.07"/>
  <path d="m344.81 349.2c-8.38 0-15.25 2.77-19.89 8.06-3.85 4.45-6.19 10.63-6.19 18.36 0 8.74 2.89 15.15 7.07 19.67 4.88 5.08 11.97 6.63 17.68 6.63 5.21 0 10.19-1.32 13.7-3.76 1.24 2.44 3.76 3.76 6.65 3.76 3.96 0 7.29-2.99 7.29-7.06v-18.02c0-8.85-2.01-14.58-5.97-19.35-4.75-5.64-12.5-8.29-20.34-8.29zm0 12.72c3.09 0 6.18 0.88 8.39 3.42 2.09 2.43 3.32 6.42 3.32 11.94v9.51c-3.4 2.1-7.17 3.21-10.93 3.21-3.99 0-6.65-1.02-8.85-3.33-2.11-2.21-3.53-5.64-3.53-10.71 0-3.88 0.99-6.95 2.66-9.51 1.89-2.86 4.95-4.53 8.94-4.53z"/>
  <path d="m312.21 351.09c-2.53-1.21-5.95-2-10.18-2-9.25 0-16.56 2.54-20.77 7.96-2.88 3.64-4.42 8.41-4.42 14.93v22.75c0 3.99 3.2 7.08 7.31 7.08 4.1 0 7.3-3.09 7.3-7.08v-21.66c0-2.87 0.42-4.86 1.42-6.86 1.43-2.63 4.31-4.51 8.62-4.51 1.88 0 3.32 0.55 4.63 1.09 1.54 0.79 2.57 1.44 4.55 1.44 3.65 0 6.29-2.88 6.29-6.52 0-2.98-1.98-5.19-4.75-6.63"/>
  <path d="m269.56 351.08c-2.56-1.2-6-1.99-10.16-1.99-9.32 0-16.61 2.54-20.8 7.96-2.84 3.64-4.42 8.4-4.42 14.92v22.76c0 3.99 3.2 7.07 7.29 7.07 4.08 0 7.28-3.08 7.28-7.07v-21.67c0-2.87 0.48-4.86 1.46-6.86 1.44-2.63 4.31-4.51 8.64-4.51 1.87 0 3.29 0.55 4.63 1.1 1.54 0.78 2.52 1.43 4.55 1.43 3.6 0 6.27-2.88 6.27-6.52 0-2.98-1.97-5.19-4.74-6.63"/>
  <path d="m199.69 349.18c-8.37 0-15.25 2.78-19.89 8.07-3.85 4.44-6.2 10.63-6.2 18.35 0 8.74 2.92 15.16 7.08 19.68 4.87 5.08 11.96 6.62 17.69 6.62 5.19 0 10.19-1.32 13.71-3.75 1.22 2.43 3.78 3.75 6.66 3.75 3.96 0 7.28-2.98 7.28-7.06v-18.02c0-8.85-2.01-14.58-5.97-19.34-4.74-5.64-12.51-8.3-20.35-8.3h-0.01zm0 12.73c3.1 0 6.19 0.88 8.39 3.42 2.12 2.43 3.33 6.41 3.33 11.94v9.51c-3.39 2.1-7.16 3.21-10.92 3.21-4 0-6.67-1.02-8.87-3.33-2.1-2.21-3.52-5.64-3.52-10.71 0-3.88 0.98-6.96 2.66-9.52 1.88-2.85 4.94-4.52 8.93-4.52z"/>
  <path d="m122.21 324.56c-3.97 0-7.29 3.19-7.29 7.04v42.78c0 8.73 2 14.58 5.97 19.22 4.78 5.65 12.52 8.29 20.38 8.29 8.37 0 15.35-2.75 19.89-7.94 3.84-4.42 6.18-10.72 6.18-18.47 0-8.85-2.43-15.25-6.74-19.66-4.87-5.19-12.38-6.75-18.14-6.75h-0.01c-5.51 0-9.5 1-12.94 2.76v-20.23c0-3.85-3.4-7.04-7.3-7.04zm18.16 36.23c3.87 0 6.95 1.22 9.02 3.53 2.13 2.23 3.47 5.76 3.47 10.73 0 3.98-1.02 7.08-2.68 9.51v0.01c-1.88 2.86-5.1 4.63-9.05 4.63-3.08 0-6.19-0.88-8.42-3.32-2.19-2.55-3.2-5.62-3.2-11.05v-10.61c3.13-2.12 6.11-3.43 10.86-3.43z"/>
  <path d="m33.885 392.52c-1.082-5.15-5.591-4.3-7.662-4.3-3.112 0-6.198-0.88-8.422-3.32-2.217-2.54-3.191-5.63-3.191-11.05v-10.61c4.357-0.1 6.276-0.04 11.012-0.04 11.671 0 9.671-14.61 2.239-14.61h-13.251v-17.95c0-3.87-3.401-7.07-7.3009-7.07-3.9703 0-7.3091 3.2-7.3091 7.07v42.77c0 8.74 2.0245 14.58 5.9893 19.24 4.7377 5.65 12.506 8.29 20.359 8.29 2.899 0 9.148-1.26 7.537-8.42"/>
  <path d="m594.06 349.19c-3.94 0-6.19 2.56-7.1 5.4l-10.25 31.65h-0.45l-10.3-31.08c-0.75-2.55-2.25-5.97-6.71-5.97-5.18 0-8.07 3.1-8.07 7.09 0 1.32 0.42 3.19 1.41 5.63l11.74 30.83c2.19 5.97 5.21 9.17 11.46 9.17 6.14 0 9.48-3.31 11.73-9.17l11.03-30.57c0.78-2.08 1.45-4.53 1.45-5.97 0-3.86-1.26-7.01-5.94-7.01"/>
  <path d="m413.4 93.116-85.94 63.024 16.15 51.16-43.81-31.48-43.59 31.41 17.32-51.03-44.29-32.07 53.26-0.02s16.54-48.774 17.42-51.347c0.82 2.534 12.86 39.537 12.86 39.537 1.68 5.18 5.77 9.3 10.99 11.03 3.53 1.11 7.24 1.11 10.69-0.01 4.39-1.41 7.94-4.48 10.01-8.57 2.09-4.11 2.45-8.75 1.02-13.12l-29.16-89.721c-2.31-7.1363-8.91-11.909-16.37-11.909h-0.02c-7.5 0-14.06 4.7727-16.35 11.909 0 0-24.25 74.344-25.38 77.815-0.67 0-81.87 0.017-81.87 0.017-7.48 0.022-14.06 4.804-16.36 11.869-0.56 1.77-0.85 3.54-0.85 5.34 0 5.4 2.54 10.61 7.1 13.91 0 0 63.25 46.05 66.19 48.2-0.23 0.64-25.3 77.86-25.3 77.86-2.31 7.16 0.2 14.86 6.24 19.26 6.07 4.4 14.2 4.4 20.24-0.02l66.28-48.05 66.29 48.11c6.06 4.4 14.19 4.44 20.23 0.05 0 0 0.02-0.02 0.04-0.02 6.04-4.4 8.54-12.11 6.21-19.24l-25.25-77.88 66.22-48.13c4.64-3.35 7.09-8.62 7.09-13.95 0-3.5-1.05-7.05-3.26-10.115-5.58-7.659-16.38-9.395-24.05-3.81"/>
 </g>
</svg>
