<svg xmlns="http://www.w3.org/2000/svg" height="124.23" width="600" viewBox="0 0 480 99.385303"><path d="m409.38.019c8.312-.025 16.648-.025 24.959 0-.05 9.904.05 19.783-.149 29.663 8.834-5.251 20.03-7.441 29.787-3.384 10.1 4.03 15.677 15.13 15.852 25.581.324 15.229-.099 30.484.174 45.713-8.187.025-16.374.025-24.561 0-.149-13.512.647-27.05-.348-40.512-.697-10.651-16.12-10.85-20.629-2.812-.423 14.433-.025 28.891-.124 43.35h-24.984c.05-32.549.025-65.07.025-97.6"/><path d="m101.63 4.1c18.838.796 38.1-2.14 56.59 2.09 18.813 5.05 21.276 33.868 4.405 42.951 17.32 2.02 23.441 24.611 13.836 37.501-6.271 8.336-17.419 10.825-27.298 10.974-15.852.025-31.678.025-47.53-.05v-93.47m24.76 19.982c.025 5.35.025 10.676.025 16.03 7.291-.473 21.699 2.961 22.07-8.01-.224-11.323-14.707-7.441-22.1-8.01m0 36.481c0 5.574.025 11.173.025 16.772 7.54-.274 15.229.896 22.645-.722 7.49-1.568 7.391-14.11-.075-15.503-7.465-1.244-15.08-.448-22.595-.547z"/><path d="m192.18 38.04c11.123-14.981 32.28-14.781 48.55-10.03-2.24 7.615-4.206 15.329-6.321 22.993-8.361-3.633-21.799-4.01-24.611 6.868-.846 13.214-.1 26.477-.323 39.716-8.336.025-16.673.025-25.01 0 1.891-19.783-5.151-42.33 7.714-59.55"/><path d="m245.04 38.19c11.422-17.22 40.36-20.256 53.651-3.758 7.465 9.332 6.072 21.874 5.997 33.02-14.408.174-28.816-.423-43.2.348 3.509 12.12 17.295 12.865 27.398 9.854 3.509 5.275 6.968 10.551 10.427 15.852-12.268 6.57-27.348 7.59-40.462 3.26-22.421-8.834-26.378-40.19-13.811-58.58m16.797 14.607c7.739.224 15.478.224 23.24.075-.523-4.778-3.185-10.427-8.834-10.128-7.07-1.593-12.318 3.957-14.408 10.05z"/><path d="m311.56 25.6c8.336-.075 16.673-.075 25.01 0-.099 23.989-.05 48-.025 72.02-8.287-.025-16.548-.05-24.835.124-.249-24.06.075-48.1-.149-72.14"/><path d="m344.38 25.575c18.763-.075 37.551 0 56.34-.05-.373 6.321 1.319 13.14-.896 19.11-7.64 11.123-16.324 21.5-24.09 32.549 8.361-.025 16.722-.025 25.08.075-.025 6.769-.025 13.537-.025 20.331-18.788.05-37.601 0-56.39.025.025-6.122.025-12.218 0-18.315 8.535-11.02 16.847-22.22 25.532-33.15-8.535-.075-17.05-.05-25.581-.075.075-6.843.075-13.662.025-20.505z"/><path d="m46.12 4.03c-15.379.003-30.746.063-46.12.175.025 31.08-.025 62.14.025 93.22 30.757.249 61.49.249 92.25-.025.149-31.06.124-62.12 0-93.2-15.379-.124-30.771-.178-46.15-.175m7.325 29.875c2.439 7.864 4.26 15.887 6.3 23.875 2.712-7.789 4.286-15.912 6.575-23.825h11.6c-3.857 12.293-7.467 24.682-11.2 37l-13.375.075c-2.986-9.182-5.563-18.493-8.475-27.675h-9.3c.075 9.207.05 18.443.1 27.65-3.583 0-7.142-.025-10.725-.075.174-9.182.125-18.393.125-27.575-1.941.025-5.834.075-7.8.1-.174-3.136-.3-6.315-.375-9.45 12.193-.1 24.357.024 36.55-.1"/></svg>