<svg xmlns="http://www.w3.org/2000/svg" xmlns:xlink="http://www.w3.org/1999/xlink" viewBox="0 0 2084 1779"><defs><path id="0" d="m-722.08888 348.03381a100.18169 82.61737 0 1 1 -200.36338 0 100.18169 82.61737 0 1 1 200.36338 0"/><radialGradient cx="-822.27" cy="348.03" r="100.18" id="4" gradientUnits="userSpaceOnUse" gradientTransform="matrix(1 0 0 .82468 0 61.02)"><stop stop-color="#0fc"/><stop offset="1" stop-color="#0fc" stop-opacity="0"/></radialGradient><radialGradient cx="-822.27" cy="348.03" r="100.18" id="3" gradientUnits="userSpaceOnUse" gradientTransform="matrix(1 0 0 .82468 0 61.02)"><stop stop-color="#0055d4"/><stop offset="1" stop-color="#06f" stop-opacity="0"/></radialGradient><radialGradient cx="-822.27" cy="348.03" r="100.18" id="1" gradientUnits="userSpaceOnUse" gradientTransform="matrix(1 0 0 .82468 0 61.02)"><stop stop-color="#0cf"/><stop offset="1" stop-color="#0cf" stop-opacity="0"/></radialGradient><radialGradient cx="-822.27" cy="348.03" r="100.18" id="2" gradientUnits="userSpaceOnUse" gradientTransform="matrix(1 0 0 .82468 0 61.02)"><stop stop-color="#00aad4"/><stop offset="1" stop-color="#00aad4" stop-opacity="0"/></radialGradient></defs><g transform="translate(-443.81-65.926)" fill-rule="evenodd"><g fill="url(#2)"><use transform="matrix(9.30147-2.49232 2.49232 9.30147 8175.46-4371.76)" xlink:href="#0"/><use transform="matrix(9.30147-2.49232 2.49232 9.30147 8195.73-4318.95)" xlink:href="#0"/><use transform="matrix(9.30147-2.49232 2.49232 9.30147 8214.22-4385.76)" xlink:href="#0"/><use transform="matrix(9.30147-2.49232 2.49232 9.30147 8234.49-4300.09)" xlink:href="#0"/></g><use transform="matrix(3.87955 7.0186-6.8691 4.13853 6766.05 5396.38)" fill="url(#3)" xlink:href="#0"/><use transform="matrix(3.87955 7.0186-6.8691 4.13853 7416.77 5180.91)" fill="url(#4)" xlink:href="#0"/><use transform="matrix(8.58801-2.30115 2.30115 8.58801 7724.67-3930.41)" fill="url(#1)" xlink:href="#0"/><path d="m1155.28 747.39l133.12 52.745c14.597-30.09 29.566-59.93 48.34-87.24 65.942-85.56 205.17-64.5 219.27 34.492 22.266 194.16-402.12 243.48-397.72 599.86v82.48c0 14.01 4.726 16.496 16.496 16.496h524.88c9.391 0 14.622-6.819 14.622-17.246v-126.72c0-6.297-5.138-12.372-11.997-12.372l-362.54 2.249c10.74-153.56 241.1-233.47 332.42-366.63 137.75-234.12-43.31-420.56-197.45-419.56-127.33-1.457-247.36 25.796-319.42 241.44" fill="#fff"/></g></svg>