<?xml version="1.0" encoding="UTF-8" standalone="no"?>
<!-- Created with Inkscape (http://www.inkscape.org/) -->
<svg xmlns:rdf="http://www.w3.org/1999/02/22-rdf-syntax-ns#" xmlns="http://www.w3.org/2000/svg" height="350" width="600" version="1.1" xmlns:cc="http://creativecommons.org/ns#" xmlns:dc="http://purl.org/dc/elements/1.1/">
 <metadata>
  <rdf:RDF>
   <cc:Work rdf:about="">
    <dc:format>image/svg+xml</dc:format>
    <dc:type rdf:resource="http://purl.org/dc/dcmitype/StillImage"/>
    <dc:title/>
   </cc:Work>
  </rdf:RDF>
 </metadata>
 <g transform="translate(232.23028,135.10086)">
  <path d="m367.77,214.9-600,0,0-350,600,0,0,350z" fill-rule="evenodd" fill="#ef6420"/>
  <g fill-rule="nonzero" fill="#FFF" transform="translate(3.7547,-21.398392)">
   <path d="m-2.6837-12.235,0-57.42-190.92,0,0,57.42,63.177,0,0,128.11,64.937,0,0-128.11,62.808,0z"/>
   <path d="m199.73-69.656-78.603,0-41.973,87.206-44.146-87.206-76.083,0,103.35,185.53,31.958,0l105.5-185.53z"/>
   <path d="m321.64,115.83,0-57.42-75.712,0,0.34761-128.11-65.676,0,0,185.53,141.04,0z"/>
   <path d="m-181.62,161.89-10.906,0,0-4.3016,26.396,0,0,4.3016-10.906,0,0,29.547-4.584,0,0-29.547z"/>
   <path d="m-143.67,157.59,5.301,0,9.9502,27.526,0.0869,0,10.32-27.526,5.0186,0-13.318,33.848-4.3016,0-13.057-33.848z"/>
   <path d="m-15.673,157.59,4.584,0,0,29.547,15.533,0,0,4.3016-20.117,0,0-33.848z"/>
   <path d="m31.36,157.59,4.584,0,0,33.848-4.584,0,0-33.848z"/>
   <path d="m66.534,157.59,6.8435,0,10.754,25.614,0.17381,0,10.667-25.614,6.8435,0,0,33.848-4.6058,0,0-27.83-0.08687,0-11.427,27.83-3.0632,0-11.405-27.83-0.10862,0,0,27.83-4.584,0,0-33.848z"/>
   <path d="m132.39,157.59,11.754,0c5.8876,0,10.276,2.7156,10.276,8.4512,0,3.8888-2.3898,6.3221-5.8224,7.4735v0.0869c4.0627,0.28243,7.2997,3.8672,7.2997,8.4077,0,6.0831-5.301,9.4288-11.884,9.4288h-11.623v-33.848zm4.584,14.056,6.2569,0c3.4978,0,6.3221-1.3905,6.3221-5.062,0-2.694-1.6729-4.9751-5.3662-4.9751h-7.2128v10.037zm0,15.773,6.7349,0c2.7808,0,7.3214-0.95592,7.3214-5.7355,0-4.0192-2.8243-6.0179-7.2562-6.0179h-6.8001v11.754z"/>
   <path d="m188.69,157.59,0,20.748c0,4.193,2.1073,9.646,8.5164,9.646,6.3873,0,8.4946-5.453,8.4946-9.646v-20.748h4.584v21.465c0,7.8428-5.6921,13.231-13.078,13.231-7.4084,0-13.1-5.3878-13.1-13.231v-21.465h4.584z"/>
   <path d="m240.6,157.59,11.905,0c8.6467,0,10.841,5.2141,10.841,9.4723,0,4.3016-3.1936,8.3643-8.3208,8.9291l9.6244,15.446h-5.7355l-8.6032-14.925h-5.1272v14.925h-4.584v-33.85zm4.584,14.904,6.0179,0c3.6499,0,7.278-0.84729,7.278-5.4314,0-4.6058-3.6281-5.453-7.278-5.453h-6.0179v10.884z"/>
   <path d="m320.85,172.5,0,16.685c-3.3023,1.9987-8.6901,3.1068-12.818,3.1068-11.471,0-18.097-8.1687-18.097-17.793,0-10.037,7.2997-17.771,17.619-17.771,6.2134,0,9.9936,1.6729,12.622,4.3885l-3.2371,3.4978c-2.7808-2.6722-5.9745-3.5847-9.3853-3.5847-7.7342,0-12.753,6.0614-12.753,13.469,0,7.6473,5.6921,13.491,13.144,13.491,3.1936,0,6.2569-0.63003,8.3208-1.7815v-9.4071h-7.5169v-4.3016h12.101z"/>
  </g>
 </g>
</svg>
