<svg xmlns="http://www.w3.org/2000/svg" viewBox="0 0 600 350"><g transform="translate(232.23 135.1)"><path d="m367.77 214.9h-600v-350h600v350" fill-rule="evenodd" fill="#ef6420"/><g fill="#fff" transform="translate(3.755-21.398)"><path d="m-2.684-12.235v-57.42h-190.92v57.42h63.18v128.11h64.937v-128.11h62.808z"/><path d="m199.73-69.66h-78.6l-41.973 87.21-44.15-87.21h-76.08l103.35 185.53h31.958l105.5-185.53z"/><path d="m321.64 115.83v-57.42h-75.71l.348-128.11h-65.68v185.53h141.04"/><path d="m-181.62 161.89h-10.906v-4.302h26.396v4.302h-10.906v29.547h-4.584v-29.547"/><path d="m-143.67 157.59h5.301l9.95 27.526h.087l10.32-27.526h5.02l-13.318 33.848h-4.302l-13.06-33.848"/><path d="m-15.673 157.59h4.584v29.547h15.533v4.302h-20.12v-33.848"/><path d="m31.36 157.59h4.584v33.848h-4.584v-33.848"/><path d="m66.53 157.59h6.844l10.754 25.614h.174l10.667-25.614h6.844v33.848h-4.606v-27.83h-.087l-11.427 27.83h-3.063l-11.405-27.83h-.109v27.83h-4.584v-33.848z"/><path d="m132.39 157.59h11.754c5.888 0 10.276 2.716 10.276 8.451 0 3.889-2.39 6.322-5.822 7.474v.087c4.063.282 7.3 3.867 7.3 8.408 0 6.083-5.301 9.429-11.884 9.429h-11.623v-33.848m4.584 14.06h6.257c3.498 0 6.322-1.391 6.322-5.062 0-2.694-1.673-4.975-5.366-4.975h-7.213v10.04m0 15.773h6.735c2.781 0 7.321-.956 7.321-5.736 0-4.02-2.824-6.02-7.256-6.02h-6.8v11.754"/><path d="m188.69 157.59v20.748c0 4.193 2.107 9.646 8.516 9.646 6.387 0 8.495-5.453 8.495-9.646v-20.748h4.584v21.465c0 7.843-5.692 13.231-13.08 13.231-7.408 0-13.1-5.388-13.1-13.231v-21.465h4.584z"/><path d="m240.6 157.59h11.905c8.647 0 10.841 5.214 10.841 9.472 0 4.302-3.194 8.364-8.321 8.929l9.624 15.446h-5.736l-8.603-14.925h-5.127v14.925h-4.584v-33.85zm4.584 14.904h6.02c3.65 0 7.278-.847 7.278-5.431 0-4.606-3.628-5.453-7.278-5.453h-6.02v10.884"/><path d="m320.85 172.5v16.685c-3.302 1.999-8.69 3.107-12.818 3.107-11.471 0-18.1-8.169-18.1-17.793 0-10.04 7.3-17.771 17.619-17.771 6.213 0 9.994 1.673 12.622 4.388l-3.237 3.498c-2.781-2.672-5.974-3.585-9.385-3.585-7.734 0-12.753 6.06-12.753 13.469 0 7.647 5.692 13.491 13.144 13.491 3.194 0 6.257-.63 8.321-1.781v-9.407h-7.517v-4.302h12.1"/></g></g></svg>