<svg xmlns="http://www.w3.org/2000/svg" height="416.72" width="600" viewBox="0 0 158.75 110.25707"><defs><clipPath id="B"><path d="m387.95 322.3h7.86v1.13h-7.86zm0 1.13h1.58v4.59h-1.58zm0 4.59h6.1v1.12h-6.1zm0 1.12h1.58v4.93h-1.58zm0 4.93h8.01v1.13h-8.01z"/></clipPath><clipPath id="F"><path d="m454.54 322.3h1.58v12.9h-1.58z"/></clipPath><clipPath id="C"><path d="m431.17 322.3l-2.71 10.84h-.05l-2.73-10.84h-1.72l3.36 12.9h2.16l3.43-12.9z"/></clipPath><clipPath id="D"><path d="m442 322h9v14h-9z"/></clipPath><clipPath id="G"><path d="m436.97 322.3h1.57v12.9h-1.57z"/></clipPath><clipPath id="L"><path d="m442.59 322.3v1.13h6.07l-6.3 10.8v.97h8.61v-1.13h-6.72l6.22-10.82v-.95z"/></clipPath><clipPath id="H"><path d="m460.18 335.2h1.71l1.34-3.51h4.6l1.35 3.51h1.7l-5.36-12.9zm5.34-9.36l1.93 4.81h-3.84z"/></clipPath><clipPath id="K"><path d="m437 318h6v4h-6z"/></clipPath><clipPath id="I"><path d="m437.35 320.67l.8.88 4.05-2.31-1.13-1.11z"/></clipPath><clipPath id="J"><path d="m423 322h10v14h-10z"/></clipPath><clipPath id="E"><path d="m460 322h11v14h-11z"/></clipPath><clipPath id="3"><path d="m399.89 322.3h1.57v11.77h-1.57zm0 11.77h8.13v1.13h-8.13z"/></clipPath><clipPath id="4"><path d="m373.78 322.3h10.11v1.13h-10.11zm4.22 1.13h1.58v11.77h-1.58z"/></clipPath><clipPath id="A"><path d="m381.07 267.76c-4.03.06-7.29 3.45-7.29 7.62v31.75c0 4.21 3.31 7.62 7.4 7.62h31.23c4.09 0 7.4-3.41 7.4-7.62v-31.75c0-4.17-3.25-7.56-7.29-7.62zm-5.57 38.12v-29.15c0-4.3 2.79-7.34 7.1-7.34h28.57c4.32 0 7.03 2.98 7.03 7.27v29.62c0 4.29-3.11 6.6-7.43 6.6h-28.84c-4.32 0-6.43-2.71-6.43-7"/></clipPath><clipPath id="0"><path d="m468.16 275.09-5.77 13.38-5.78-13.38h-2.39l7.23 15.32-7.45 15.66h2.4l5.94-13.73 6.03 13.73h2.4l-7.36-15.62 7.14-15.36z"/></clipPath><clipPath id="1"><path d="m412.09 322.3h7.85v1.13h-7.85zm0 1.13h1.57v4.59h-1.57zm0 4.59h6.09v1.12h-6.09zm0 1.12h1.57v4.93h-1.57zm0 4.93h8v1.13h-8z"/></clipPath><clipPath id="2"><path d="m454 275h17v32h-17z"/></clipPath><clipPath id="9"><path d="m373 267h47v48h-47z"/></clipPath><clipPath id="8"><path d="m381 271h33v41h-33z"/></clipPath><clipPath id="5"><path d="m428 275h17v32h-17z"/></clipPath><clipPath id="7"><path d="m442.76 275.09v22.67c0 5.04-2.52 7.19-6.03 7.19-3.33 0-6.11-1.98-6.11-7.88v-21.98h-2.01v23.49c0 4.56 3.89 8.09 8.12 8.09 3.42 0 8.04-2.45 8.04-8.56v-23.02z"/></clipPath><clipPath id="6"><path d="m399.55 271.22c-.78.76-2.87 3.81-4.77 6.69-1.69 2.56-4.8 7.85-5.6 9.22-2.13 3.66-7.86 14.86-7.56 19.47.17 2.56 1.77 4.1 4.81 4.41 2.03.2 3.43.14 7.07-.19 8.8-.79 17.13-3.74 19.14-5.01.38-.24.53-.43.6-.55.05-.08.07-.17.07-.25-.001-.1-.1-.19-.2-.22-.18-.07-.45-.07-.82-.06-.47 0-1.24.08-2.06.12-1.33.06-3.06.11-5.09.2-2.94.14-8.03.43-11.39-1.57-2.75-1.64-2.35-7.09-.36-14.02 1.94-6.72 7.73-18.2 6.59-18.45-.02-.001-.03-.001-.05-.001-.14 0-.27.12-.38.22"/></clipPath><linearGradient id="Q" gradientUnits="userSpaceOnUse" x2="0" y1="306.67" y2="275.09"><stop stop-color="#211e1e"/><stop stop-color="#211e1e" offset=".016"/><stop stop-color="#231e1e" offset=".031"/><stop stop-color="#231e21" offset=".047"/><stop stop-color="#231e21" offset=".063"/><stop stop-color="#232121" offset=".078"/><stop stop-color="#232121" offset=".094"/><stop stop-color="#262121" offset=".109"/><stop stop-color="#262123" offset=".125"/><stop stop-color="#262123" offset=".141"/><stop stop-color="#262323" offset=".156"/><stop stop-color="#262323" offset=".172"/><stop stop-color="#282323" offset=".188"/><stop stop-color="#282326" offset=".203"/><stop stop-color="#282326" offset=".219"/><stop stop-color="#282626" offset=".234"/><stop stop-color="#282626" offset=".25"/><stop stop-color="#2b2626" offset=".266"/><stop stop-color="#2b2628" offset=".281"/><stop stop-color="#2b2828" offset=".297"/><stop stop-color="#2b2828" offset=".313"/><stop stop-color="#2b2828" offset=".328"/><stop stop-color="#2d282b" offset=".344"/><stop stop-color="#2d282b" offset=".359"/><stop stop-color="#2d2b2b" offset=".375"/><stop stop-color="#2d2b2b" offset=".391"/><stop stop-color="#2d2b2b" offset=".406"/><stop stop-color="#302b2d" offset=".422"/><stop stop-color="#302b2d" offset=".438"/><stop stop-color="#302d2d" offset=".453"/><stop stop-color="#302d2d" offset=".469"/><stop stop-color="#302d2d" offset=".484"/><stop stop-color="#332d30" offset=".5"/><stop stop-color="#332d30" offset=".516"/><stop stop-color="#333030" offset=".531"/><stop stop-color="#333030" offset=".547"/><stop stop-color="#333030" offset=".563"/><stop stop-color="#353033" offset=".578"/><stop stop-color="#353033" offset=".594"/><stop stop-color="#353333" offset=".609"/><stop stop-color="#353333" offset=".625"/><stop stop-color="#353333" offset=".641"/><stop stop-color="#383335" offset=".656"/><stop stop-color="#383335" offset=".672"/><stop stop-color="#383535" offset=".688"/><stop stop-color="#383535" offset=".703"/><stop stop-color="#383535" offset=".719"/><stop stop-color="#3a3538" offset=".734"/><stop stop-color="#3a3538" offset=".75"/><stop stop-color="#3a3838" offset=".766"/><stop stop-color="#3a3838" offset=".781"/><stop stop-color="#3d3838" offset=".797"/><stop stop-color="#3d383a" offset=".813"/><stop stop-color="#3d3a3a" offset=".828"/><stop stop-color="#3d3a3a" offset=".844"/><stop stop-color="#3d3a3a" offset=".859"/><stop stop-color="#3f3a3a" offset=".875"/><stop stop-color="#3f3a3d" offset=".891"/><stop stop-color="#3f3d3d" offset=".906"/><stop stop-color="#3f3d3d" offset=".922"/><stop stop-color="#3f3d3d" offset=".938"/><stop stop-color="#423d3f" offset=".953"/><stop stop-color="#423d3f" offset=".969"/><stop stop-color="#423f3f" offset=".984"/><stop stop-color="#423f3f" offset="1"/></linearGradient><linearGradient id="P" gradientUnits="userSpaceOnUse" x2="531.5" x1="492.04" y1="454.1" y2="423.53"><stop stop-color="#211e1e"/><stop stop-color="#211e1e" offset=".063"/><stop stop-color="#211e1e" offset=".078"/><stop stop-color="#211e1e" offset=".086"/><stop stop-color="#231e1e" offset=".094"/><stop stop-color="#231e21" offset=".102"/><stop stop-color="#232121" offset=".109"/><stop stop-color="#232121" offset=".117"/><stop stop-color="#232121" offset=".125"/><stop stop-color="#262123" offset=".133"/><stop stop-color="#262123" offset=".141"/><stop stop-color="#262323" offset=".148"/><stop stop-color="#262323" offset=".156"/><stop stop-color="#282323" offset=".164"/><stop stop-color="#282326" offset=".172"/><stop stop-color="#282326" offset=".18"/><stop stop-color="#282626" offset=".188"/><stop stop-color="#282626" offset=".195"/><stop stop-color="#2b2626" offset=".203"/><stop stop-color="#2b2628" offset=".211"/><stop stop-color="#2b2628" offset=".219"/><stop stop-color="#2b2828" offset=".227"/><stop stop-color="#2b2828" offset=".234"/><stop stop-color="#2d2828" offset=".242"/><stop stop-color="#2d282b" offset=".25"/><stop stop-color="#2d2b2b" offset=".258"/><stop stop-color="#2d2b2b" offset=".266"/><stop stop-color="#2d2b2b" offset=".273"/><stop stop-color="#302b2b" offset=".281"/><stop stop-color="#302b2d" offset=".289"/><stop stop-color="#302d2d" offset=".297"/><stop stop-color="#302d2d" offset=".305"/><stop stop-color="#302d2d" offset=".313"/><stop stop-color="#332d30" offset=".32"/><stop stop-color="#332d30" offset=".328"/><stop stop-color="#333030" offset=".336"/><stop stop-color="#333030" offset=".344"/><stop stop-color="#333030" offset=".352"/><stop stop-color="#353033" offset=".359"/><stop stop-color="#353033" offset=".367"/><stop stop-color="#353333" offset=".375"/><stop stop-color="#353333" offset=".383"/><stop stop-color="#353333" offset=".391"/><stop stop-color="#383335" offset=".398"/><stop stop-color="#383335" offset=".406"/><stop stop-color="#383535" offset=".414"/><stop stop-color="#383535" offset=".422"/><stop stop-color="#3a3535" offset=".43"/><stop stop-color="#3a3538" offset=".438"/><stop stop-color="#3a3838" offset=".445"/><stop stop-color="#3a3838" offset=".453"/><stop stop-color="#3a3838" offset=".461"/><stop stop-color="#3d383a" offset=".469"/><stop stop-color="#3d383a" offset=".477"/><stop stop-color="#3d3a3a" offset=".484"/><stop stop-color="#3d3a3a" offset=".492"/><stop stop-color="#3d3a3a" offset=".5"/><stop stop-color="#3f3a3d" offset=".508"/><stop stop-color="#3f3a3d" offset=".516"/><stop stop-color="#3f3d3d" offset=".523"/><stop stop-color="#3f3d3d" offset=".531"/><stop stop-color="#3f3d3d" offset=".539"/><stop stop-color="#423d3f" offset=".547"/><stop stop-color="#423d3f" offset=".555"/><stop stop-color="#423f3f" offset=".563"/><stop stop-color="#423f3f" offset=".625"/><stop stop-color="#423f3f" offset=".75"/><stop stop-color="#423f3f" offset="1"/></linearGradient><linearGradient id="O" gradientUnits="userSpaceOnUse" x2="0" y1="321.54" y2="318.12"><stop stop-color="#211e1e"/><stop stop-color="#211e1e" offset=".016"/><stop stop-color="#231e1e" offset=".031"/><stop stop-color="#231e21" offset=".047"/><stop stop-color="#231e21" offset=".063"/><stop stop-color="#232121" offset=".078"/><stop stop-color="#232121" offset=".094"/><stop stop-color="#262121" offset=".109"/><stop stop-color="#262123" offset=".125"/><stop stop-color="#262123" offset=".141"/><stop stop-color="#262323" offset=".156"/><stop stop-color="#262323" offset=".172"/><stop stop-color="#282323" offset=".188"/><stop stop-color="#282326" offset=".203"/><stop stop-color="#282326" offset=".219"/><stop stop-color="#282626" offset=".234"/><stop stop-color="#282626" offset=".25"/><stop stop-color="#2b2626" offset=".266"/><stop stop-color="#2b2628" offset=".281"/><stop stop-color="#2b2628" offset=".297"/><stop stop-color="#2b2828" offset=".313"/><stop stop-color="#2b2828" offset=".328"/><stop stop-color="#2d2828" offset=".344"/><stop stop-color="#2d282b" offset=".359"/><stop stop-color="#2d2b2b" offset=".375"/><stop stop-color="#2d2b2b" offset=".391"/><stop stop-color="#2d2b2b" offset=".406"/><stop stop-color="#302b2d" offset=".422"/><stop stop-color="#302b2d" offset=".438"/><stop stop-color="#302d2d" offset=".453"/><stop stop-color="#302d2d" offset=".469"/><stop stop-color="#302d2d" offset=".484"/><stop stop-color="#332d30" offset=".5"/><stop stop-color="#332d30" offset=".516"/><stop stop-color="#333030" offset=".531"/><stop stop-color="#333030" offset=".547"/><stop stop-color="#333030" offset=".563"/><stop stop-color="#353033" offset=".578"/><stop stop-color="#353033" offset=".594"/><stop stop-color="#353333" offset=".609"/><stop stop-color="#353333" offset=".625"/><stop stop-color="#353333" offset=".641"/><stop stop-color="#383335" offset=".656"/><stop stop-color="#383335" offset=".672"/><stop stop-color="#383535" offset=".688"/><stop stop-color="#383535" offset=".703"/><stop stop-color="#383535" offset=".719"/><stop stop-color="#3a3538" offset=".734"/><stop stop-color="#3a3538" offset=".75"/><stop stop-color="#3a3838" offset=".766"/><stop stop-color="#3a3838" offset=".781"/><stop stop-color="#3a3838" offset=".797"/><stop stop-color="#3d383a" offset=".813"/><stop stop-color="#3d3a3a" offset=".828"/><stop stop-color="#3d3a3a" offset=".844"/><stop stop-color="#3d3a3a" offset=".859"/><stop stop-color="#3f3a3a" offset=".875"/><stop stop-color="#3f3a3d" offset=".891"/><stop stop-color="#3f3d3d" offset=".906"/><stop stop-color="#3f3d3d" offset=".922"/><stop stop-color="#3f3d3d" offset=".938"/><stop stop-color="#423d3f" offset=".953"/><stop stop-color="#423d3f" offset=".969"/><stop stop-color="#423f3f" offset=".984"/><stop stop-color="#423f3f" offset="1"/></linearGradient><linearGradient id="N" gradientUnits="userSpaceOnUse" x2="0" y1="314.75" y2="267.77"><stop stop-color="#211e1e"/><stop stop-color="#211e1e" offset=".016"/><stop stop-color="#231e1e" offset=".031"/><stop stop-color="#231e21" offset=".047"/><stop stop-color="#231e21" offset=".063"/><stop stop-color="#232121" offset=".078"/><stop stop-color="#232121" offset=".094"/><stop stop-color="#262121" offset=".109"/><stop stop-color="#262123" offset=".125"/><stop stop-color="#262123" offset=".141"/><stop stop-color="#262323" offset=".156"/><stop stop-color="#262323" offset=".172"/><stop stop-color="#282323" offset=".188"/><stop stop-color="#282326" offset=".203"/><stop stop-color="#282326" offset=".219"/><stop stop-color="#282626" offset=".234"/><stop stop-color="#282626" offset=".25"/><stop stop-color="#2b2626" offset=".266"/><stop stop-color="#2b2628" offset=".281"/><stop stop-color="#2b2628" offset=".297"/><stop stop-color="#2b2828" offset=".313"/><stop stop-color="#2b2828" offset=".328"/><stop stop-color="#2d2828" offset=".344"/><stop stop-color="#2d282b" offset=".359"/><stop stop-color="#2d2b2b" offset=".375"/><stop stop-color="#2d2b2b" offset=".391"/><stop stop-color="#2d2b2b" offset=".406"/><stop stop-color="#302b2b" offset=".422"/><stop stop-color="#302b2d" offset=".438"/><stop stop-color="#302d2d" offset=".453"/><stop stop-color="#302d2d" offset=".469"/><stop stop-color="#302d2d" offset=".484"/><stop stop-color="#332d30" offset=".5"/><stop stop-color="#332d30" offset=".516"/><stop stop-color="#333030" offset=".531"/><stop stop-color="#333030" offset=".547"/><stop stop-color="#333030" offset=".563"/><stop stop-color="#353033" offset=".578"/><stop stop-color="#353033" offset=".594"/><stop stop-color="#353333" offset=".609"/><stop stop-color="#353333" offset=".625"/><stop stop-color="#353333" offset=".641"/><stop stop-color="#383335" offset=".656"/><stop stop-color="#383335" offset=".672"/><stop stop-color="#383535" offset=".688"/><stop stop-color="#383535" offset=".703"/><stop stop-color="#383535" offset=".719"/><stop stop-color="#3a3538" offset=".734"/><stop stop-color="#3a3538" offset=".75"/><stop stop-color="#3a3838" offset=".766"/><stop stop-color="#3a3838" offset=".781"/><stop stop-color="#3a3838" offset=".797"/><stop stop-color="#3d383a" offset=".813"/><stop stop-color="#3d383a" offset=".828"/><stop stop-color="#3d3a3a" offset=".844"/><stop stop-color="#3d3a3a" offset=".859"/><stop stop-color="#3d3a3a" offset=".875"/><stop stop-color="#3f3a3d" offset=".891"/><stop stop-color="#3f3d3d" offset=".906"/><stop stop-color="#3f3d3d" offset=".922"/><stop stop-color="#3f3d3d" offset=".938"/><stop stop-color="#3f3d3d" offset=".953"/><stop stop-color="#423d3f" offset=".969"/><stop stop-color="#423f3f" offset=".984"/><stop stop-color="#423f3f" offset="1"/></linearGradient><linearGradient id="M" gradientUnits="userSpaceOnUse" x2="0" y1="335.2" y2="322.3"><stop stop-color="#211e1e"/><stop stop-color="#211e1e" offset=".016"/><stop stop-color="#231e1e" offset=".031"/><stop stop-color="#231e21" offset=".047"/><stop stop-color="#231e21" offset=".063"/><stop stop-color="#232121" offset=".078"/><stop stop-color="#232121" offset=".094"/><stop stop-color="#262121" offset=".109"/><stop stop-color="#262123" offset=".125"/><stop stop-color="#262123" offset=".141"/><stop stop-color="#262323" offset=".156"/><stop stop-color="#262323" offset=".172"/><stop stop-color="#282323" offset=".188"/><stop stop-color="#282326" offset=".203"/><stop stop-color="#282326" offset=".219"/><stop stop-color="#282626" offset=".234"/><stop stop-color="#282626" offset=".25"/><stop stop-color="#2b2626" offset=".266"/><stop stop-color="#2b2628" offset=".281"/><stop stop-color="#2b2628" offset=".297"/><stop stop-color="#2b2828" offset=".313"/><stop stop-color="#2b2828" offset=".328"/><stop stop-color="#2d2828" offset=".344"/><stop stop-color="#2d282b" offset=".359"/><stop stop-color="#2d2b2b" offset=".375"/><stop stop-color="#2d2b2b" offset=".391"/><stop stop-color="#2d2b2b" offset=".406"/><stop stop-color="#302b2b" offset=".422"/><stop stop-color="#302b2d" offset=".438"/><stop stop-color="#302d2d" offset=".453"/><stop stop-color="#302d2d" offset=".469"/><stop stop-color="#302d2d" offset=".484"/><stop stop-color="#332d30" offset=".5"/><stop stop-color="#332d30" offset=".516"/><stop stop-color="#333030" offset=".531"/><stop stop-color="#333030" offset=".547"/><stop stop-color="#333030" offset=".563"/><stop stop-color="#353033" offset=".578"/><stop stop-color="#353033" offset=".594"/><stop stop-color="#353333" offset=".609"/><stop stop-color="#353333" offset=".625"/><stop stop-color="#353333" offset=".641"/><stop stop-color="#383335" offset=".656"/><stop stop-color="#383335" offset=".672"/><stop stop-color="#383535" offset=".688"/><stop stop-color="#383535" offset=".703"/><stop stop-color="#383535" offset=".719"/><stop stop-color="#3a3538" offset=".734"/><stop stop-color="#3a3538" offset=".75"/><stop stop-color="#3a3838" offset=".766"/><stop stop-color="#3a3838" offset=".781"/><stop stop-color="#3a3838" offset=".797"/><stop stop-color="#3d383a" offset=".813"/><stop stop-color="#3d3a3a" offset=".828"/><stop stop-color="#3d3a3a" offset=".844"/><stop stop-color="#3d3a3a" offset=".859"/><stop stop-color="#3d3a3a" offset=".875"/><stop stop-color="#3f3a3d" offset=".891"/><stop stop-color="#3f3d3d" offset=".906"/><stop stop-color="#3f3d3d" offset=".922"/><stop stop-color="#3f3d3d" offset=".938"/><stop stop-color="#423d3d" offset=".953"/><stop stop-color="#423d3f" offset=".969"/><stop stop-color="#423f3f" offset=".984"/><stop stop-color="#423f3f" offset="1"/></linearGradient><linearGradient id="R" gradientUnits="userSpaceOnUse" x2="0" y1="275.09" y2="306.07"><stop stop-color="#423f3f"/><stop stop-color="#423f3f" offset=".016"/><stop stop-color="#423f3f" offset=".031"/><stop stop-color="#423d3f" offset=".047"/><stop stop-color="#423d3f" offset=".063"/><stop stop-color="#3f3d3d" offset=".078"/><stop stop-color="#3f3d3d" offset=".094"/><stop stop-color="#3f3d3d" offset=".109"/><stop stop-color="#3f3a3d" offset=".125"/><stop stop-color="#3f3a3a" offset=".141"/><stop stop-color="#3d3a3a" offset=".156"/><stop stop-color="#3d3a3a" offset=".172"/><stop stop-color="#3d3a3a" offset=".188"/><stop stop-color="#3d383a" offset=".203"/><stop stop-color="#3a3838" offset=".219"/><stop stop-color="#3a3838" offset=".234"/><stop stop-color="#3a3838" offset=".25"/><stop stop-color="#3a3538" offset=".266"/><stop stop-color="#3a3538" offset=".281"/><stop stop-color="#383535" offset=".297"/><stop stop-color="#383535" offset=".313"/><stop stop-color="#383535" offset=".328"/><stop stop-color="#383335" offset=".344"/><stop stop-color="#383335" offset=".359"/><stop stop-color="#353333" offset=".375"/><stop stop-color="#353333" offset=".391"/><stop stop-color="#353333" offset=".406"/><stop stop-color="#353033" offset=".422"/><stop stop-color="#353033" offset=".438"/><stop stop-color="#333030" offset=".453"/><stop stop-color="#333030" offset=".469"/><stop stop-color="#333030" offset=".484"/><stop stop-color="#332d30" offset=".5"/><stop stop-color="#332d30" offset=".516"/><stop stop-color="#302d2d" offset=".531"/><stop stop-color="#302d2d" offset=".547"/><stop stop-color="#302d2d" offset=".563"/><stop stop-color="#302b2d" offset=".578"/><stop stop-color="#302b2d" offset=".594"/><stop stop-color="#2d2b2b" offset=".609"/><stop stop-color="#2d2b2b" offset=".625"/><stop stop-color="#2d2b2b" offset=".641"/><stop stop-color="#2d282b" offset=".656"/><stop stop-color="#2d2828" offset=".672"/><stop stop-color="#2b2828" offset=".688"/><stop stop-color="#2b2828" offset=".703"/><stop stop-color="#2b2628" offset=".719"/><stop stop-color="#2b2628" offset=".734"/><stop stop-color="#2b2626" offset=".75"/><stop stop-color="#282626" offset=".766"/><stop stop-color="#282626" offset=".781"/><stop stop-color="#282326" offset=".797"/><stop stop-color="#282326" offset=".813"/><stop stop-color="#282323" offset=".828"/><stop stop-color="#262323" offset=".844"/><stop stop-color="#262323" offset=".859"/><stop stop-color="#262123" offset=".875"/><stop stop-color="#262123" offset=".891"/><stop stop-color="#262121" offset=".906"/><stop stop-color="#232121" offset=".922"/><stop stop-color="#232121" offset=".938"/><stop stop-color="#231e21" offset=".953"/><stop stop-color="#231e21" offset=".969"/><stop stop-color="#231e1e" offset=".984"/><stop stop-color="#211e1e" offset="1"/></linearGradient></defs><g transform="translate(-69.61-138.23)"><g clip-path="url(#8)" transform="matrix(1.635 0 0 1.635-541.5-299.55)"><g clip-path="url(#6)"><path d="m361.85 286.09l31.47 40.61 39.46-30.58-31.47-40.61z" fill="url(#P)"/></g></g><g clip-path="url(#9)" transform="matrix(1.635 0 0 1.635-541.5-299.55)"><g clip-path="url(#A)"><path d="m373.78 314.75h46.03v-46.99h-46.03z" fill="url(#N)"/></g></g><g clip-path="url(#5)" transform="matrix(1.635 0 0 1.635-541.5-299.55)"><g clip-path="url(#7)"><path d="m428.61 306.67h16.16v-31.58h-16.16z" fill="url(#Q)"/></g></g><g clip-path="url(#2)" transform="matrix(1.635 0 0 1.635-541.5-299.55)"><g clip-path="url(#0)"><path d="m470.77 275.09h-16.77v30.98h16.77z" fill="url(#R)"/></g></g><g clip-path="url(#4)" transform="matrix(1.635 0 0 1.635-541.5-299.55)"><path d="m373.78 335.2h10.11v-12.9h-10.11z" fill="url(#M)"/></g><g clip-path="url(#B)" transform="matrix(1.635 0 0 1.635-541.5-299.55)"><path d="m387.95 335.2h8.01v-12.9h-8.01z" fill="url(#M)"/></g><g clip-path="url(#3)" transform="matrix(1.635 0 0 1.635-541.5-299.55)"><path d="m399.89 335.2h8.13v-12.9h-8.13z" fill="url(#M)"/></g><g clip-path="url(#1)" transform="matrix(1.635 0 0 1.635-541.5-299.55)"><path d="m412.09 335.2h8v-12.9h-8z" fill="url(#M)"/></g><g clip-path="url(#J)" transform="matrix(1.635 0 0 1.635-541.5-299.55)"><g clip-path="url(#C)"><path d="m423.96 335.2h8.95v-12.9h-8.95z" fill="url(#M)"/></g></g><g clip-path="url(#K)" transform="matrix(1.635 0 0 1.635-541.5-299.55)"><g clip-path="url(#I)"><path d="m437.35 321.55h4.85v-3.42h-4.85z" fill="url(#O)"/></g></g><g clip-path="url(#D)" transform="matrix(1.635 0 0 1.635-541.5-299.55)"><g clip-path="url(#L)"><path d="m442.36 335.2h8.61v-12.9h-8.61z" fill="url(#M)"/></g></g><g clip-path="url(#E)" transform="matrix(1.635 0 0 1.635-541.5-299.55)"><g clip-path="url(#H)"><path d="m460.18 335.2h10.7v-12.9h-10.7z" fill="url(#M)"/></g></g><g clip-path="url(#G)" transform="matrix(1.635 0 0 1.635-541.5-299.55)"><path d="m436.97 335.2h1.57v-12.9h-1.57z" fill="url(#M)"/></g><g clip-path="url(#F)" transform="matrix(1.635 0 0 1.635-541.5-299.55)"><path d="m454.54 335.2h1.58v-12.9h-1.58z" fill="url(#M)"/></g></g></svg>