<svg xmlns="http://www.w3.org/2000/svg" height="600" width="600" viewBox="0 0 158.75 158.75"><g transform="translate(-111.84 103.35)"><path d="m270.59-23.975a79.375 79.375 0 1 1 -158.75 0 79.375 79.375 0 1 1 158.75 0" fill="#0072ce"/><path d="m165.5-39.22v9.462h-7.41v13.7c0 1.876.35 2.99 1.06 3.343.7.353 1.43.53 2.19.53 1.17 0 2.56-.207 4.16-.621v10.375c-2.87.56-5.7.841-8.47.841-4.48 0-7.78-.962-9.89-2.886-2.1-1.924-3.16-4.993-3.16-9.206l.04-4.347v-11.728h-5.55v-9.462h5.55l.22-12.09 13.85-.219v12.312h7.41m40.34 0l-13.62 37.16h-10.89l-13.88-37.16h14.98l5.29 15.783c.44 1.29.83 2.569 1.17 3.836.12-.439.31-.999.55-1.681.05-.097.21-.56.47-1.388l5.48-16.55h10.45m38.13 37.16h-14.58v-23.382c0-1.924-.3-3.154-.9-3.69-.59-.536-1.34-.803-2.24-.803-2.66 0-3.98 1.851-3.98 5.553v22.322h-14.58v-37.16h13.52v5.261c1.99-4.02 5.56-6.03 10.7-6.03 2.7 0 4.99.517 6.85 1.552 1.86 1.036 3.2 2.375 4 4.02s1.21 4.5 1.21 8.567v23.784" stroke-width=".121" fill="#ffcb00"/></g></svg>