<svg xmlns="http://www.w3.org/2000/svg" height="577.79" width="600" viewBox="0 0 158.75 152.87248"><g transform="translate(152.74 73.28)"><path d="m-92.2 14.95l-12.282-32.835h13.254l5.751 17.342 5.69-17.342h9.246l-12.09 32.835h-9.565m-14.742-24.494h-6.59v12.202c0 2.522.77 3.427 2.98 3.427 1.03 0 2.13-.19 3.61-.585v9.144c-3.1.523-4.14.645-7.49.72-3.82 0-5.83-.462-7.65-1.686-2.78-1.93-3.94-4.561-3.88-8.953v-3.882-10.387h-4.91v-8.334h4.91v-10.931h12.43v10.931h6.59v8.334m38.78-8.307h11.951v4.636h.129c.843-1.801 1.55-2.637 2.699-3.48 1.55-1.088 4.194-1.802 6.771-1.802 3.038 0 6.01 1.027 7.811 2.767 2.134 1.999 2.651 3.868 2.651 9.674v20.992h-12.917v-20.673c0-2.841-.706-3.997-2.705-3.997-2.373 0-3.535 1.598-3.535 4.969v19.701h-12.855v-32.787m-11.04 54.881c0-4.256 3.433-7.709 7.675-7.709h50.18c5.221-9.776 8.178-20.945 8.178-32.801 0-38.551-31.24-69.802-69.789-69.802-38.547 0-69.787 31.25-69.787 69.802 0 38.545 31.24 69.789 69.787 69.789 1.312 0 2.618-.041 3.909-.109-.109-.503-.156-1.033-.156-1.57v-27.6" fill="#0072ce"/><g fill="#ffcb00"><path d="m-113.53-28.806h-12.43v10.925h-4.91v8.341h4.91v10.381 3.888c-.06 4.385 1.1 7.02 3.88 8.953 1.82 1.223 3.82 1.679 7.65 1.679 3.36-.075 4.39-.19 7.5-.714v-9.143c-1.5.388-2.59.585-3.62.585-2.21 0-2.98-.904-2.98-3.426v-12.202h6.6v-8.341h-6.6v-10.925"/><path d="m-79.79-17.885l-5.69 17.341-5.751-17.341h-13.252l12.28 32.834h9.572l12.09-32.834h-9.246"/><path d="m-55.3-4.767c0-3.365 1.162-4.963 3.535-4.963 1.992 0 2.706 1.149 2.706 3.99v20.672h12.916v-20.985c0-5.813-.517-7.675-2.651-9.674-1.802-1.74-4.773-2.773-7.811-2.773-2.584 0-5.221.713-6.771 1.801-1.149.843-1.863 1.679-2.706 3.487h-.122v-4.643h-11.951v32.787h12.855v-19.7"/></g><g fill="#0072ce"><path d="m-64.21 61.899v-22.298h5.799v8.253h11.645v-8.253h5.799v22.298h-5.799v-8.634h-11.645v8.634h-5.799"/><path d="m-30.594 57.6h3.854c5.445 0 8.171-1.788 8.171-6.839 0-5.04-2.726-6.927-8.171-6.927h-3.854v13.766m-5.799-17.967h10.03c4.249 0 7.525.877 9.816 2.624 2.522 1.869 3.78 4.711 3.78 8.504s-1.258 6.628-3.78 8.518c-2.291 1.747-5.567 2.624-9.816 2.624h-10.03v-22.27"/><path d="m-8.321 79.59h-104.28v-7.628h48.19 56.08c1.876 0 2.998-.421 3.807-.904.809-.489 1.366-1.135 1.815-1.931.904-1.536 1.088-3.589 1.081-3.868v-36.17h7.627v36.17c-.007.245-.007 2.033-.714 4.419-.707 2.359-2.196 5.466-5.418 7.627-2.121 1.421-4.908 2.285-8.137 2.285h-.061z"/></g></g></svg>