<svg xmlns="http://www.w3.org/2000/svg" height="735.87" width="600" viewBox="0 0 158.75 194.69825"><g transform="translate(85.42-190.55)"><path d="m73.33 349.13h-158.75v-158.58h158.75z" fill="#e22525"/><path fill="#fff" d="m-51.41 315.25v-90.64h22.674l45.39 54.48v-54.48h22.673v90.64h-22.673l-45.39-54.29v54.29z"/><g fill="#bbaaa0"><path d="m-78.31 369.2h-7.108v-3.65h19.428v3.65h-7.12v15.5h-5.2z"/><path d="m-68.04 365.55h5.71l5.556 14.59 5.556-14.59h5.721l-8.505 19.15h-5.532z"/></g><g fill="#221e1f"><path d="m-27.36 365.55h5.05v19.15h-5.663l-10.436-13.36h-.06v13.36h-5.03v-19.15h6.03l10.06 13.36h.059z"/><path d="m-7.827 365.01c10.306 0 11.917 6.11 11.917 10.12 0 3.99-1.611 10.12-11.917 10.12s-11.917-6.13-11.917-10.12c0-4.01 1.611-10.12 11.917-10.12m0 16.59c4.727 0 6.385-3.5 6.385-6.47s-1.658-6.47-6.385-6.47c-4.726 0-6.385 3.5-6.385 6.47s1.659 6.47 6.385 6.47"/><path d="m6.662 365.55h13.931c5.307 0 6.196 3.25 6.196 5.2 0 2.33-.948 3.84-3.116 4.62v.05c2.286.35 2.63 3.26 2.63 5.13 0 .93.083 3.2.995 4.15h-5.686c-.486-.88-.509-1.65-.509-3.67 0-2.69-1.161-3.35-2.772-3.35h-6.468v7.02h-5.201zm5.201 8.48h6.906c1.149 0 2.488-.65 2.488-2.44 0-1.91-1.505-2.39-2.761-2.39h-6.633v4.83"/><path d="m41.945 374.03h9.761v10.67h-2.618l-.699-2.23c-1.824 1.97-4.727 2.78-8.05 2.78-6.978 0-11.325-3.01-11.325-10.12 0-5.94 4.087-10.12 11.325-10.12 5.319 0 10.329 1.55 11.265 6.81h-5.792c-.782-2.46-2.998-3.16-4.881-3.16-4.727 0-6.385 3.48-6.385 6.47 0 2.97 1.658 6.47 6.385 6.47 2.843 0 5.05-1.08 5.662-4.24h-4.643v-3.33"/><path d="m55.17 365.55h17.9v3.65h-12.699v3.97h12.05v3.49h-12.05v4.4h12.805v3.64h-18.01z"/></g></g></svg>