<svg xmlns="http://www.w3.org/2000/svg" width="714.77" height="140.51" viewBox="0 0 201.72402 39.653724" fill-rule="evenodd"><path transform="translate(-5.116-15.875)" fill="#db0000" d="m14.748 28.81l-8.221 25.31 49.53-.435 8.22-25.307z"/><g fill="#fff"><path d="m38.08 30.541l2.594-7.517c1.461-1.158 2.506-1.105 3.134.16l-2.54 7.357 4.35.012 2.58-7.473c.513-1.718-.026-2.689-1.617-2.913h-4.348c-.318 0-.853.463-1.07.753l.176-.753h-3.503l-3.58 10.373h3.825"/><path transform="translate(-5.116-15.875)" d="m30.19 36.04v10.699h3.41l7.978-10.699h-3.047l-3.996 6.03h-.445v-6.03z"/><path d="m22.15 22.21l.704-2.042h-2.062l1.296-3.758h-4.04l-1.296 3.758h-1.912l-.706 2.048 1.914-.002-2.172 6.288c-.248 1.266.313 2.062 1.684 2.388h3.671v-2.483l-.352-.041c-.654-.053-.813-.471-.48-1.251l1.693-4.903 2.063-.002"/><path d="m198.02 12.584h-30.39l-8.685 25.23h30.39l8.686-25.23m-23.386 6.586h11.536l-4.052 11.768h-11.536l4.052-11.768"/><path d="m138.42 1.411l-4.52 13.13-7.451 21.641-.561 1.629h29.446l8.685-25.23h-19.86l3.847-11.173h-9.586m3.472 17.759h10.764l-4.052 11.768h-10.764l4.052-11.768"/><g transform="translate(-5.116-15.875)"><path d="m123.11 35.05h10.85l2.27-6.591h-19.69l-8.68 25.23h8.77z"/><path d="m82.58 28.459l-8.686 25.23h29.21l8.68-25.23h-8.51l-6.32 18.355h-11.46l6.32-18.355z"/><path d="m79.973 24.03h13.367l.76-2.218h-13.36l1.55-4.526h-10.13l-1.56 4.526h-19.21l-.758 2.218h19.2l-10.216 29.655h10.141z"/></g></g><g transform="translate(-5.116-15.875)"><g fill="#ff9000"><path d="m204.67 24.03l.76-2.218h-49.98l-.76 2.218z"/><path d="m96.62 24.03h41.13l.77-2.218h-41.14z"/></g><path fill="#db0000" d="m17.16 21.812l-.765 2.218h30.655l.759-2.218z"/></g></svg>