<svg xmlns="http://www.w3.org/2000/svg" viewBox="0 0 716.19 212.62"><g transform="translate(-16.901-156.4)"><g transform="matrix(3.54331 0 0 3.54331 16.901 156.4)" fill-rule="evenodd"><path transform="translate(-5.116-15.875)" fill="#db0000" d="m64.28 28.378l-49.53.432-8.221 25.31 49.53-.435z"/><g fill="#fff"><path d="m38.08 30.541l2.594-7.517c1.461-1.158 2.506-1.105 3.134.16l-2.54 7.357 4.35.012 2.58-7.473c.513-1.718-.026-2.689-1.617-2.913h-4.348c-.318 0-.853.463-1.07.753l.176-.753h-3.503l-3.58 10.373h3.825"/><path transform="translate(-5.116-15.875)" d="m34.09 36.04h-3.9v10.699h3.41l7.978-10.699h-3.047l-3.996 6.03h-.445z"/><path d="m22.15 22.21l.704-2.042h-2.062l1.296-3.758h-4.04l-1.296 3.758h-1.912l-.706 2.048 1.914-.002-2.172 6.288c-.248 1.266.313 2.062 1.684 2.388h3.671v-2.483l-.352-.041c-.654-.053-.813-.471-.48-1.251l1.693-4.903 2.063-.002"/></g><path d="m198.02 12.584h-30.39l-8.685 25.23h30.39l8.686-25.23m-23.386 6.586h11.536l-4.052 11.768h-11.536l4.052-11.768"/><path d="m138.42 1.411l-4.52 13.13-7.451 21.641-.561 1.629h29.446l8.685-25.23h-19.86l3.847-11.173h-9.586m3.472 17.759h10.764l-4.052 11.768h-10.764l4.052-11.768"/><g transform="translate(-5.116-15.875)"><path d="m133.96 35.05l2.27-6.591h-19.69l-8.68 25.23h8.77l6.48-18.635z"/><path d="m91.81 28.459h-9.23l-8.686 25.23h29.21l8.68-25.23h-8.51l-6.32 18.355h-11.46z"/><path d="m51.39 21.812l-.758 2.218h19.2l-10.216 29.655h10.141l10.212-29.655h13.367l.76-2.218h-13.36l1.55-4.526h-10.13l-1.56 4.526z"/><g fill="#ff9000"><path d="m154.69 24.03h49.98l.76-2.218h-49.98z"/><path d="m97.38 21.812l-.76 2.218h41.13l.77-2.218z"/></g><path fill="#db0000" d="m47.809 21.812h-30.649l-.765 2.218h30.655z"/></g></g><path d="m611.22 303.6c38.954-.005 77.909-.011 116.86-.016-7.473 21-14.832 43.26-20.601 60.43-15.585 0-100.58 0-115.58 0 10-31 10-31 19.322-60.42m17.762 28.09h6.531c3.592 0 6.531.302 6.531.671 0 .369-1.541 4.871-3.425 10.01-1.884 5.134-3.425 9.928-3.425 10.654 0 .725 2.535 1.124 5.633.887l5.633-.432 4.648-13.352c2.556-7.343 4.995-14.459 5.418-15.811.696-2.221-.448-2.46-11.798-2.46-9.484 0-12.41-.431-11.924-1.757 2.981-8.138 3.01-8.08-4.055-8.08h-6.629l-7.115 21.08-7.115 21.08h6.652 6.652c2.596-7.496 5.192-14.992 7.788-22.487m74.83 2.108c3.693-10.8 6.625-20.15 6.661-20.73-.575-.054-4.916-.054-8.575-.054-6.33 0-4.942 0-5.937 3.568l-1.274 4.568-13.03.399-13.03.399-4.719 14.358c-2.595 7.897-4.754 16.721-5.01 17.709 13.862-.046 20.446-.136 38 0zm-29.485 7.379c2.841-9.355 2.972-9.487 9.465-9.487 6.938 0 6.788-.235 4.612 7.216-1.562 5.349-1.692 5.434-8.312 5.434-6.345 0-6.671-.179-5.765-3.162"/></g></svg>