<svg xmlns="http://www.w3.org/2000/svg" viewBox="0 0 600 350"><g transform="translate(-367.77-213.83)"><path fill="#e1091f" d="m367.77 213.83h600v350h-600z"/><g fill="#fff" transform="matrix(.97332 0 0 .97332 1136.25 828.14)"><path d="m-405.68-519.94c-26.531 0-45.875 17.413-45.875 44.656 0 27.24 19.344 44.656 45.875 44.656 26.51 0 45.812-17.413 45.812-44.656 0-27.24-19.302-44.656-45.812-44.656m0 17.281c15.948 0 26.406 11.553 26.406 27.375 0 15.864-10.458 27.375-26.406 27.375-15.99 0-26.406-11.511-26.406-27.375 0-15.822 10.416-27.375 26.406-27.375"/><path d="m-504.27-519.94c-26.531 0-45.844 17.413-45.844 44.656 0 27.24 19.313 44.656 45.844 44.656s45.844-17.413 45.844-44.656c0-27.24-19.313-44.656-45.844-44.656m0 17.281c15.969 0 26.406 11.553 26.406 27.375 0 15.864-10.437 27.375-26.406 27.375-15.948 0-26.406-11.511-26.406-27.375 0-15.822 10.458-27.375 26.406-27.375"/><path d="m-351.6-432.04v-17.75h26.783c5.616 0 16.241.021 16.241-7.796 0-13.203-44.763-4.485-44.763-34.18 0-24.393 21.313-26.03 29.612-26.03 1.278 0 2.263.042 2.787.042 4.066 0 24.603.147 24.603.147v16.325l-24.959.021c-3.395 0-12.595.754-12.595 9.556 0 15.508 44.05 4.17 44.05 33.95 0 25.357-24.645 25.714-32.923 25.714h-28.837"/><path d="m-287.33-501.2v-16.577h67.23v16.577h-24.268v68.42h-18.693v-68.42h-24.268"/><path d="m-576.65-517.78l-35.06 85h-30.743l-23.849-59.684h-21.02v59.684h-27.453v-59.684h-27.768v-25.316h66.12 28.354l21.02 53.963h.251l21.355-53.963h28.794"/><path d="m-234.03-390.72h.063v-18.06h5.742v26.01h-7.482l-11.358-18.505h-.084v18.505h-5.721v-26.01h7.775l11.06 18.06"/><path d="m-303.69-382.78v-26.01h17.666v5.281h-11.945v4.841h11.296v5.302h-11.296v5.281h12.595v5.302h-18.316"/><path d="m-355.62-408.78v26h5.75v-10.375h2.781l5.469 10.375h6.844l-6.594-10.969c3.688-.671 5.625-3.5 5.625-7.125 0-6.06-4.49-7.906-9.813-7.906h-10.06m5.75 4.844h3.719c2.117 0 4.438.412 4.438 3.03 0 2.808-2.696 2.875-4.813 2.875h-3.344v-5.906"/><path d="m-406.44-382.78v-26.01h17.666v5.281h-11.924v4.841h11.254v5.302h-11.254v5.281h12.595v5.302h-18.337"/><path d="m-462.43-408.78v26h9.344c7.775 0 14.625-4.534 14.625-12.938 0-9.514-7.01-13.06-15.375-13.06h-8.594m5.719 5.281h3.375c4.841 0 8.906 2.387 8.906 7.5 0 5.91-3.99 7.938-9.313 7.938h-2.969v-15.438"/><path d="m-501.44-390.72h.084v-18.06h5.721v26.01h-7.502l-11.338-18.505h-.063v18.505h-5.742v-26.01h7.775l11.06 18.06"/><path d="m-566.84-408.78l-11.25 26h6.313l2.188-5.5h10.06l2.25 5.5h6.469l-11.312-26h-4.719m2.188 7.563l3.188 8.06h-6.344l3.156-8.06"/><path d="m-621.99-408.78l-11.188 26h6.281l2.156-5.5h10.125l2.219 5.5h6.469l-11.312-26h-4.75m2.219 7.563l3.188 8.06h-6.344l3.156-8.06"/><path d="m-677.94-382.78v-26.01h5.721v20.705h10.625v5.302h-16.346"/><path d="m-708.78-408.78l-10.73 26.01h-4.59l-10.374-26.01h6.538l6.413 17.04h.084l6.538-17.04h6.119"/></g></g></svg>