<?xml version="1.0" encoding="UTF-8" standalone="no"?>
<!-- Created with Inkscape (http://www.inkscape.org/) -->
<svg xmlns:rdf="http://www.w3.org/1999/02/22-rdf-syntax-ns#" xmlns="http://www.w3.org/2000/svg" height="350" width="600" version="1.1" xmlns:cc="http://creativecommons.org/ns#" xmlns:dc="http://purl.org/dc/elements/1.1/">
 <metadata>
  <rdf:RDF>
   <cc:Work rdf:about="">
    <dc:format>image/svg+xml</dc:format>
    <dc:type rdf:resource="http://purl.org/dc/dcmitype/StillImage"/>
    <dc:title/>
   </cc:Work>
  </rdf:RDF>
 </metadata>
 <g transform="translate(-367.76971,-213.82611)">
  <path fill="#e1091f" stroke-opacity="0" d="m367.77,213.83,600,0,0,350-600,0z"/>
  <g fill-rule="nonzero" fill="#FFF" transform="matrix(0.97332443,0,0,0.97332443,1136.2517,828.14242)">
   <path d="m-405.68-519.94c-26.531,0-45.875,17.413-45.875,44.656,0,27.244,19.344,44.656,45.875,44.656,26.51,0,45.812-17.413,45.812-44.656,0-27.244-19.302-44.656-45.812-44.656zm0,17.281c15.948,0,26.406,11.553,26.406,27.375,0,15.864-10.458,27.375-26.406,27.375-15.99,0-26.406-11.511-26.406-27.375,0-15.822,10.416-27.375,26.406-27.375z"/>
   <path d="m-504.27-519.94c-26.531,0-45.844,17.413-45.844,44.656,0,27.244,19.313,44.656,45.844,44.656s45.844-17.413,45.844-44.656c0-27.244-19.313-44.656-45.844-44.656zm0,17.281c15.969,0,26.406,11.553,26.406,27.375,0,15.864-10.437,27.375-26.406,27.375-15.948,0-26.406-11.511-26.406-27.375,0-15.822,10.458-27.375,26.406-27.375z"/>
   <path d="m-351.6-432.04,0-17.75,26.783,0c5.6164,0,16.241,0.0209,16.241-7.7959,0-13.203-44.763-4.4847-44.763-34.18,0-24.393,21.313-26.028,29.612-26.028,1.2784,0,2.2633,0.0419,2.7872,0.0419,4.0656,0,24.603,0.14669,24.603,0.14669v16.325l-24.959,0.021c-3.395,0-12.595,0.75444-12.595,9.5562,0,15.508,44.051,4.1704,44.051,33.95,0,25.357-24.645,25.714-32.923,25.714h-28.837"/>
   <path d="m-287.33-501.2,0-16.577,67.229,0,0,16.577-24.268,0,0,68.423-18.693,0,0-68.423-24.268,0"/>
   <path d="m-576.65-517.78,0,0-35.06,85-30.743,0-23.849-59.684-21.019,0,0,59.684-27.453,0,0-59.684-27.768,0,0-25.316,66.118,0,28.354,0,21.019,53.963,0.25148,0,21.355-53.963,28.794,0"/>
   <path d="m-234.03-390.72,0.0629,0,0-18.065,5.7421,0,0,26.007-7.4815,0-11.358-18.505-0.0838,0,0,18.505-5.7212,0,0-26.007,7.7749,0,11.065,18.065"/>
   <path d="m-303.69-382.78,0-26.007,17.666,0,0,5.2811-11.945,0,0,4.841,11.296,0,0,5.302-11.296,0,0,5.2811,12.595,0,0,5.302-18.316,0"/>
   <path d="m-355.62-408.78,0,26,5.75,0,0-10.375,2.7812,0,5.4688,10.375,6.8438,0-6.5938-10.969c3.6884-0.67061,5.625-3.4995,5.625-7.125,0-6.0565-4.4895-7.9062-9.8125-7.9062h-10.062zm5.75,4.8438,3.7188,0c2.1166,0,4.4375,0.41167,4.4375,3.0312,0,2.8082-2.6959,2.875-4.8125,2.875h-3.3438v-5.9062z"/>
   <path d="m-406.44-382.78,0-26.007,17.666,0,0,5.2811-11.924,0,0,4.841,11.254,0,0,5.302-11.254,0,0,5.2811,12.595,0,0,5.302-18.337,0"/>
   <path d="m-462.43-408.78,0,26,9.3438,0c7.7749,0,14.625-4.5339,14.625-12.938,0-9.5143-7.0133-13.062-15.375-13.062h-8.5938zm5.7188,5.2812,3.375,0c4.841,0,8.9062,2.3866,8.9062,7.5,0,5.9098-3.9895,7.9375-9.3125,7.9375h-2.9688v-15.438z"/>
   <path d="m-501.44-390.72,0.0838,0,0-18.065,5.7212,0,0,26.007-7.5025,0-11.338-18.505-0.0629,0,0,18.505-5.7421,0,0-26.007,7.7749,0,11.065,18.065"/>
   <path d="m-566.84-408.78-11.25,26,6.3125,0,2.1875-5.5,10.062,0,2.25,5.5,6.4688,0-11.312-26-4.7188,0zm2.1875,7.5625,3.1875,8.0625-6.3438,0,3.1562-8.0625z"/>
   <path d="m-621.99-408.78-11.188,26,6.2812,0,2.1562-5.5,10.125,0,2.2188,5.5,6.4688,0-11.312-26-4.75,0zm2.2188,7.5625,3.1875,8.0625-6.3438,0,3.1562-8.0625z"/>
   <path d="m-677.94-382.78,0-26.007,5.7212,0,0,20.705,10.625,0,0,5.302-16.346,0"/>
   <path d="m-708.78-408.78,0,0-10.73,26.007-4.5895,0-10.374-26.007,6.5385,0,6.4127,17.038,0.0838,0,6.5385-17.038,6.1193,0"/>
  </g>
 </g>
</svg>
