<svg xmlns="http://www.w3.org/2000/svg" viewBox="0 0 600 312"><g fill="#ef8323" transform="translate(43.58-98.92)"><path d="m498.48 177.28l.212.118c.4.188.777.377 1.083.589 1.154.659 1.837 1.649 2.214 2.897 1.766 5.747 1.955 11.281.683 16.816-1.154 4.852-3.368 9.444-6.783 14.11-.071.094-.188.236-.259.33l-21.903 39.1-.094.094c-.777.966-2.567 1.484-3.203 1.272-.659-.236-3.203-2.143-4.569-3.415 3.792-2.614 5.817-5.535 6.218-8.738.377-3.109-.73-6.477-3.651-9.986l-.141-.118c-1.46-1.554-2.803-2.025-4.428-1.507l-.424.141c-4.475 1.272-7.183 3.415-8.267 6.312-1.248 2.638-.871 6.03.966 10.1-3.391-.094-6.689-1.342-9.797-3.58-1.554-1.178-2.049-2.638-1.46-4.381 3.01-7.96 6.406-15.827 10.1-23.504 1.272-2.52 2.426-5.064 3.603-7.584l-.118.188 17.993-32.24c7.772-.777 14.932.165 22.02 2.991m17.405 17.31c-.188 0-.283 0-.377.094h-.188c0-.188 0-.377.094-.471l.094.094c.094.094.188.188.377.283m-.377-12.03v.094c-.094-.4-.188-.777-.188-1.178 0 .094.094.094.188.094.283.094.589.188.871.306-.283.188-.589.377-.871.683m-.071-12.08c.565-.495 2.025-1.154 3.01-1.06 1.178 0 2.096.4 2.967 1.272.895.871 1.272 1.861 1.272 3.109 0 1.178-.377 2.237-1.272 3.109-.871.777-1.931 1.272-3.109 1.272-1.06 0-1.931-.4-2.803-1.083-.094-.094-.188-.188-.188-.188-.895-.871-1.366-1.931-1.366-3.109-.094-1.272.801-2.708 1.484-3.321m-255.63 48.02c-.777-.871-1.178-1.743-1.178-2.92 0-1.06.4-2.049 1.178-2.826.777-.777 1.743-1.154 2.803-1.154 1.178 0 2.049.377 2.92 1.154.777.777 1.178 1.766 1.178 2.826 0 1.178-.4 2.049-1.178 2.92-.871.777-1.743 1.154-2.92 1.154-1.06 0-2.025-.377-2.803-1.154m2.92-10.787h-.118-.565c.188-.188.283-.4.377-.495.094.094.188.306.306.495m-10.221-1.955c-.871-.871-1.342-1.837-1.342-3.01 0-1.154.471-2.214 1.342-2.991.777-.871 1.861-1.366 3.01-1.366 1.178 0 2.143.495 3.01 1.366.188.094.306.283.495.471.471.589.683 1.178.777 1.955v.565c0 1.178-.4 2.143-1.272 3.01-.871.895-1.837 1.272-3.01 1.272-1.154 0-2.237-.377-3.01-1.272m4.192-11.163c.188-.094.283-.188.377-.377 0-.118.094-.118.094-.118.118.212.118.4.118.589-.212 0-.4-.094-.589-.094m.377-11.941c-.283-.306-.565-.589-.871-.777.306-.118.777-.212 1.083-.4-.118.4-.118.777-.212 1.178m-5.723 1.554c1.154 0 2.237.377 3.01 1.248.871.777 1.248 1.861 1.248 3.01 0 1.178-.377 2.143-1.248 3.01-.777.777-1.861 1.272-3.01 1.272-1.178 0-2.143-.495-3.01-1.272-.777-.871-1.272-1.837-1.272-3.01 0-1.154.4-2.237 1.178-3.01l.094-.094c.871-.777 1.837-1.154 3.01-1.154m5.935-13.519c.871.871 1.248 1.861 1.248 3.109 0 1.178-.377 2.237-1.248 3.109-.895.777-1.861 1.272-3.109 1.272-1.178 0-2.237-.495-3.01-1.272-.989-.871-1.366-1.931-1.366-3.109 0-1.248.377-2.237 1.366-3.109.777-.871 1.837-1.248 3.01-1.248 1.248 0 2.214.377 3.109 1.248m10.881-11.352c1.248 0 2.332.471 3.203 1.342.871.871 1.342 1.955 1.342 3.227 0 1.248-.471 2.332-1.342 3.297-.871.871-1.955 1.248-3.203 1.248-1.272 0-2.332-.377-3.227-1.248-.966-.966-1.342-2.049-1.342-3.297 0-1.272.377-2.355 1.342-3.227.895-.871 1.955-1.342 3.227-1.342m45.737 46.797l.118.212c.989 2.167 2.167 4.71 3.486 7.584 3.792 7.678 7.089 15.544 10.198 23.504.589 1.743.094 3.203-1.46 4.381-3.203 2.237-6.406 3.486-9.798 3.58 1.837-4.074 2.12-7.466.966-10.1-1.06-2.897-3.886-5.04-8.267-6.312l-.259-.094c-1.978-.471-3.132-.165-4.475 1.389l-.118.165c-3.01 3.509-4.263 6.901-3.792 10.01.306 3.203 2.332 6.123 6.123 8.738-1.366 1.272-2.92 2.426-4.569 3.415-.518.212-2.237-.283-3.01-1.178l-.094-.094c-.094 0-22.14-39.26-22.14-39.26-.047-.047-.094-.188-.094-.188-7.395-9.797-9.586-19.995-6.288-30.782l.071-.212c.306-.989.73-1.861 2.214-2.897.447-.283.683-.377 1.083-.589 7.089-2.732 14.578-3.792 22.35-3.109l17.78 31.84zm-1.437-69.74c1.342 0 2.52.495 3.486 1.46.094.094.188.188.4.377 0 0 .094.118.188.212.471.871.777 1.743.777 2.803v.989c-.188.871-.683 1.743-1.366 2.426-.377.377-.589.471-.895.777l-.165.094c-.589.283-1.272.471-1.955.589h-.471c-.683 0-1.46-.118-2.049-.495-.283-1.649-.966-3.203-2.237-4.475-.188-.094-.377-.283-.495-.377.118-1.083.589-2.049 1.366-2.92.966-.966 2.143-1.46 3.415-1.46m19.03.188c.683-.659 1.554-1.06 2.52-1.06.989 0 1.766.4 2.544 1.06.047.094.141.188.141.188.565.589.824 1.366.919 2.143-.188.589-.283 1.083-.283 1.672-.118.283-.683 1.06-.777 1.06-.777.777-1.46 1.036-2.544 1.06-.966 0-1.861-.33-2.614-.966-.447-.4-.495-.589-.589-.966.188-.777.306-1.554.306-2.332 0-.4-.118-.871-.118-1.272.118-.188.495-.589.495-.589m-4.263 1.861c0 .589-.188 1.154-.283 1.413 0 .212-.895 1.295-.895 1.295-.895.636-1.649 1.083-2.614 1.083-.871 0-1.554-.212-2.237-.589v-.4c0-1.649-.4-3.203-1.178-4.451.212-.4.4-.683.683-.989.777-.777 1.649-1.154 2.732-1.154.966 0 1.931.377 2.614 1.154.495.495.777.989.966 1.554 0 0 .212.777.212 1.083m-24.776 4.263c.871 0 1.46.071 2.143.565.118.071.188.118.283.212.094.094.283.306.471.495.777.777 1.178 1.743 1.272 2.826v.188c0 .871-.283 1.649-.871 2.426-.094.094-.188.188-.4.377-.471.495-.966.777-1.554 1.083-.094 0-.141.024-.236.024-.283.118-.636.071-1.107.071-1.083 0-2.049-.4-2.92-1.178-.777-.871-1.178-1.837-1.178-2.897 0-1.178.4-2.143 1.178-2.92l.188-.212c.871-.777 1.649-1.06 2.732-1.06m-19.336 14.673c.871-.966 1.931-1.366 3.203-1.366s2.332.4 3.203 1.366c.871.871 1.366 1.955 1.366 3.203 0 1.272-.495 2.332-1.366 3.203-.683.683-1.46 1.083-2.332 1.272-.283.094-.589.094-.871.094h-.4c-1.154-.094-2.025-.589-2.803-1.366-.966-.871-1.366-1.931-1.366-3.203 0-1.248.4-2.332 1.366-3.203m63.38-14.272c-.094.094-.188.188-.283.283 0 0-.989.73-1.884.683-.895 0-1.554-.283-2.237-.966-.589-.495-.871-1.272-.871-2.049v-.283c0-.188 0-.495.094-.683 0-.188.094-.283.094-.4.188-.377.377-.683.683-.966.565-.589 1.342-.871 2.237-.871.777 0 1.554.283 2.12.871.4.4.589.565.824 1.272 0 0 .188.612.188.919 0 .801-.283 1.601-.966 2.19m135.09 17.475c0-1.342.495-2.426 1.46-3.297.871-.871 1.955-1.366 3.203-1.366 1.178 0 2.332.495 3.203 1.366.871.871 1.366 1.955 1.366 3.297 0 .966-.283 1.955-.966 2.732 0 0-.306.377-.4.471-.777.777-1.743 1.178-2.803 1.272h-1.272c-.966-.188-1.743-.683-2.332-1.272-.966-.966-1.46-2.025-1.46-3.203m-7.466-14.578l.094.801v.094l-.094.777c-.118.777-.495 1.46-1.083 2.025-.871.871-1.837 1.272-3.01 1.272-.377 0-.659.024-1.46-.259-.824-.306-1.248-.707-1.437-.895-.212-.188-.283-.306-.377-.4-.306-.4-.306-.4-.518-.871-.212-.495-.283-1.554-.283-1.554v-.188l.094-.801c.188-.871.942-1.908 1.178-2.096.212-.188.236-.259.777-.612.683-.377 1.342-.589 2.025-.589 1.178 0 2.544.565 3.01 1.178.495.612.966 1.342 1.083 2.12m-43.25-6.39c.094.118.094.306.188.495 0 .094.141.236.118.495v.283l-.118.683c-.094.495-.377.966-.777 1.46-.659.565-1.437.966-2.214.966-.777 0-1.366-.283-1.861-.683-.094-.094-.165-.094-.259-.188l-.118-.094c-.589-.683-.942-1.389-.942-2.261 0-.212.071-.495.071-.707.071-.424.236-.777.283-.801.306-.4.283-.471.683-.754.589-.589 1.248-.73 2.143-.73.871 0 1.554.283 2.214.871.306.283.495.589.589.966m4.969-3.109c.659-.659 1.554-1.06 2.52-1.06.966 0 1.743.4 2.52 1.06.188.212.283.4.495.589-.094.306-.094.589-.094.966v.306c0 .565 0 1.06.094 1.554l.094.283c0 .188.094.306.094.4-.094.377-.4.659-.683.966-.683.683-1.554 1.06-2.52 1.06-.966 0-1.861-.377-2.52-1.06-.118-.094-.118-.094-.212-.188-.283-.306-.471-.589-.565-.989 0 0-.165-.471-.236-.73-.047-.283-.071-.518-.071-.824 0-.966.4-1.649 1.083-2.332m20.09 1.861c0-.094.4-.495.495-.589.966-.966 2.143-1.46 3.391-1.46 1.366 0 2.544.495 3.509 1.46.589.589.966 1.272 1.272 2.049l.094.777c-.212.188-.306.283-.495.471-1.272 1.272-2.049 2.732-2.237 4.475-.683.283-1.46.377-2.143.377h-.377c-.683 0-1.601-.33-2.049-.565-.424-.259-.683-.495-.966-.777-.495-.589-.871-1.083-1.154-1.743-.118-.212-.118-.4-.212-.683 0 0-.094-.589-.094-.683v-.306l.094-.777c.094-.777.4-1.46.871-2.025m-10.81-.047v-.188c0-.306 0-.683.094-.777.236-.612.071-.212.283-.636.283-.495.353-.565.848-1.06.754-.73 1.531-1.083 2.591-1.083.989 0 1.955.377 2.638 1.154 0 0 .495.424.589.636.141.118.094.141.188.353-.589.777-.871 1.649-1.083 2.614l-.188 1.743v.4c-.589.377-1.366.683-2.143.683-1.06 0-1.931-.4-2.614-1.083-.094 0-.589-.683-.777-.966l-.094-.188c0-.094-.188-.377-.283-.777 0 0-.047-.636-.047-.824m-33.28 3.839s.188.188.188.283v.589c0 .966.094 1.931.495 2.708-.212.306-.4.589-.683.871-.589.589-1.366.895-2.237.895-.777 0-1.554-.306-2.143-.895-.683-.683-.966-1.342-.966-2.12 0-.895.377-1.649.966-2.237.589-.683 1.366-.989 2.143-.989.871 0 1.554.306 2.237.895m9.326-2.237c-.094.283-.094.589-.094.871 0 1.649.471 3.01 1.437 4.263-.188.094-.283.4-.471.495-.683.777-1.554 1.06-2.52 1.06-.989 0-1.672-.212-2.52-.989-.306-.283-.495-.659-.707-.942-.283-.495-.424-1.036-.424-1.625 0-.188.047-.424.047-.612.094-.447.589-1.366 1.06-1.837.683-.777 1.554-1.083 2.544-1.083.565 0 1.06.094 1.649.4m-35.07-25.27v.188l1.837 5.652-1.649-.212c-.188-.024-.424 0-.777 0l-1.272.118 1.743-5.558c.118 0 .118-.094.118-.188m-29.887 27.697c.047.259.047.495.047.777 0 .659-.188 1.013-.353 1.554-.141.188-.353.636-.707.966-.777.777-1.554 1.083-2.52 1.083-.989 0-1.861-.306-2.544-1.083-.188-.188-.377-.377-.471-.589.966-1.154 1.46-2.52 1.46-4.169 0-.283 0-.683-.118-.966.495-.306 1.083-.4 1.672-.4.966 0 1.743.306 2.52 1.083.377.471.777.966.966 1.554 0 .094.047.094.047.188m4.122-.188c.589-.495 1.366-.777 2.143-.777.871 0 1.554.283 2.237.871.589.683.871 1.342.871 2.237 0 .777-.283 1.554-.871 2.12-.683.683-1.366.989-2.237.989-.777 0-1.554-.306-2.143-.989-.283-.188-.471-.565-.659-.871.283-.777.471-1.743.471-2.614v-.589c0-.094.094-.188.094-.283l.094-.094zm25.765-39.35h.188 2.52l-2.049 6.03c-.188.471-.188.966 0 1.46.306.471.589.871 1.178 1.06.495.094.966.094 1.46-.094l3.792-1.649v5.04l-4.381-2.143c-.495-.283-.966-.283-1.46-.094-.471.094-.871.495-1.06.989-.094.094-.188.283-.188.471-.118-.188-.118-.377-.212-.471-.188-.495-.565-.895-1.06-.989-.589-.188-1.06-.188-1.46.094l-4.381 2.143v-5.134l3.792 1.743c.495.188.989.188 1.46.094.495-.188.871-.589 1.083-1.06.283-.495.283-.989.094-1.46l-2.049-6.03h2.732m118.13 56.45c1.248 0 2.332.471 3.203 1.342.871.871 1.342 1.955 1.342 3.227 0 1.248-.471 2.332-1.342 3.297-.871.871-1.955 1.248-3.203 1.248-1.272 0-2.449-.377-3.227-1.248-.966-.966-1.342-2.049-1.342-3.297 0-1.272.377-2.355 1.342-3.227.777-.871 1.955-1.342 3.227-1.342m5.44 52.26c1.154 0 2.025.377 2.803 1.154.871.777 1.272 1.766 1.272 2.826 0 1.178-.4 2.049-1.272 2.92-.777.777-1.649 1.154-2.803 1.154-1.083 0-2.049-.377-2.826-1.154-.777-.871-1.178-1.743-1.178-2.92 0-1.06.4-2.049 1.178-2.826.777-.777 1.743-1.154 2.826-1.154m0-3.886h-.118c.118-.188.212-.4.4-.495.094.094.188.306.377.495h-.659zm2.803-5.346v-.188c.094-.777.4-1.342.848-2 .094-.094.33-.424.73-.754 1.107-.848 1.625-1.036 2.803-1.036 1.154 0 2.19.424 3.085 1.319.612.424 1.178 1.884 1.178 3.038 0 1.178-.377 2.143-1.248 3.01-.871.895-1.861 1.272-3.01 1.272-1.178 0-2.237-.377-3.01-1.272-.871-.871-1.366-1.837-1.366-3.01v-.377m11.493-17.08c.754.754 1.389 1.908 1.295 3.203-.094 1.319-.447 2.12-1.225 2.991-.871.777-1.931 1.272-3.109 1.272-1.154 0-2.096-.377-2.873-1.154l-.141-.118c-.777-.871-1.248-1.837-1.248-3.01 0-1.154.424-2.332 1.295-3.109.919-.848 1.813-1.154 2.967-1.154 1.13-.047 2.379.424 3.038 1.083m-13.731-27.32c-1.649-1.649-3.674-2.52-6.01-2.52-2.449 0-4.381.871-6.03 2.52s-2.426 3.58-2.426 5.935c0 .966.094 1.931.377 2.803-.283-.094-.683-.188-.871-.283-.871-.188-1.743-.4-2.614-.589.683-.777 1.06-1.649 1.342-2.52.212-.495.306-.966.4-1.46v.094-2.708c-.283-1.861-1.06-3.415-2.332-4.663-1.649-1.672-3.698-2.544-6.03-2.544-2.426 0-4.357.871-6.03 2.544-.659.659-1.319 1.389-1.696 2.285 0 0-.353.683-.518 1.46-.165.824-.212 1.531-.188 2.167.024 1.319.659 3.509.659 3.509.188.377.306.659.589 1.06h-.4c-1.248-4.074-3.203-7.678-5.817-10.598 1.06-.471 2.049-1.06 2.92-1.931.777-.777 1.342-1.649 1.743-2.638 0 0 .542-1.79.518-2.991-.024-1.178-.518-3.109-.518-3.109-.4-.989-.966-1.861-1.743-2.638-1.649-1.554-3.509-2.332-5.747-2.332-.565 0-1.06 0-1.554.094-.283-1.437-1.06-2.803-2.237-3.886-1.649-1.649-3.768-2.614-6.218-2.614-1.743 0-3.297.495-4.757 1.46-.188-.306-.377-.589-.683-.871-1.554-1.554-3.391-2.237-5.44-2.237-2.12 0-3.98.683-5.44 2.237-.094.094-.188.188-.377.377-1.366-1.154-3.01-1.743-4.757-1.743-2.143 0-3.91.659-5.252 2.12-.212.165-.283.212-.518.518-.188.188-.447.565-.542.871-.4-.306-.777-.589-1.272-.683-.777-.4-1.743-.589-2.708-.589-1.083 0-1.955.188-2.826.589-.777.377-1.46.871-2.143 1.46-.094.188-.283.377-.377.471-.989-.471-2.049-.777-3.203-.777-2.143 0-3.886.777-5.252 2.237-.306.188-.589.495-.777.871-1.083-.871-2.426-1.248-3.886-1.248-1.955 0-3.603.754-4.852 2.025-1.46 1.366-2.143 3.109-2.143 5.064 0 1.437.377 2.708 1.248 3.886-.659-.212-1.248-.306-1.837-.495-1.366-.377-2.52-.966-3.391-1.743-1.083-.777-1.766-1.861-2.332-3.109 1.154-1.554 2.072-3.109 2.967-4.64 0 0 .989-2.237 1.295-3.674.33-1.437.4-2.779.4-2.779s0-.942-.047-1.342c-.024-.377-.047-.636-.094-.824-.188-1.649-.801-2.755-1.978-4.121l-.188-.188c-1.46-1.743-3.627-3.038-6.335-4.192l-1.083-3.203 3.01 1.46c.4.188.871.283 1.272.188.471-.094.777-.4 1.06-.683.283-.306.495-.777.495-1.272v-11.258c0-.4-.212-.777-.4-1.178-.283-.377-.683-.565-1.06-.683-.495-.094-.871-.094-1.366.118l-2.426 1.06 1.554-4.286c.094-.377.094-.777 0-1.248-.188-.4-.4-.683-.683-.966-.377-.212-.777-.4-1.154-.4h-10.881c-.495 0-.777.188-1.178.4-.283.283-.589.565-.683.966-.188.471-.188.871 0 1.248l1.46 4.286-2.426-1.06c-.4-.212-.777-.212-1.272-.118-.377.118-.777.306-1.06.683-.283.4-.4.777-.4 1.178v11.258c0 .495.118.966.4 1.272.283.283.683.589 1.06.683.495.094.871 0 1.366-.188l2.92-1.46-.966 3.203c-2.826 1.154-4.969 2.52-6.335 4.263-1.248 1.366-1.931 2.92-2.12 4.663-.589 2.638.094 5.841 2.12 9.421.589 1.083 1.366 2.237 2.237 3.415-.471 1.248-1.248 2.332-2.237 3.109-.966.777-2.096 1.319-3.368 1.79-.565.212-1.295.33-1.861.447.777-1.083 1.154-2.449 1.154-3.886 0-1.955-.683-3.603-2.025-4.969-1.366-1.366-3.01-2.025-4.969-2.025-1.46 0-2.708.377-3.792 1.154-.283-.283-.471-.589-.777-.871-1.46-1.46-3.203-2.143-5.228-2.143-1.178 0-2.237.212-3.227.683-.188-.094-.283-.283-.377-.377-.188-.212-.4-.4-.589-.495-.471-.495-1.06-.777-1.649-1.06-.777-.306-1.743-.495-2.708-.495-1.083 0-1.955.188-2.732.495-.495.188-.871.377-1.272.683-.094-.212-.283-.4-.471-.683-.188-.212-.4-.4-.589-.589-1.46-1.46-3.203-2.237-5.252-2.237-1.837 0-3.391.589-4.852 1.743-.094-.094-.188-.283-.283-.377-1.554-1.46-3.321-2.237-5.44-2.237-2.143 0-3.98.777-5.44 2.237l-.094.094c-.212.283-.495.471-.683.777-1.366-.966-2.92-1.366-4.757-1.366-2.449 0-4.475.871-6.123 2.52-1.178 1.178-1.955 2.449-2.332 3.98-.495-.094-.989-.188-1.554-.188-2.143 0-4.098.871-5.652 2.332-1.554 1.649-2.332 3.509-2.332 5.747s.777 4.074 2.332 5.629c.777.871 1.766 1.46 2.92 1.931-2.708 2.92-4.663 6.524-5.911 10.692-.118-.094-.212-.094-.306-.094.777-1.272 1.272-2.826 1.272-4.475 0-2.426-.871-4.357-2.426-6.01-1.649-1.672-3.698-2.449-6.03-2.449-2.426 0-4.381.777-6.03 2.449-1.649 1.649-2.426 3.58-2.426 6.01 0 2.049.589 3.792 1.837 5.346-.871.094-1.672.259-2.591.518-.424.094-.612.165-.895.259.188-.871.377-1.837.377-2.803 0-2.355-.871-4.286-2.426-5.935-1.649-1.649-3.674-2.52-6.01-2.52-2.449 0-4.381.871-6.03 2.52s-2.426 3.58-2.426 5.935c0 2.426.777 4.357 2.426 6.01.589.589 1.248 1.083 1.931 1.46-.283.188-.565.306-.754.4-.188.094-.707.377-.989.659-.188-1.743-.966-3.203-2.237-4.451-1.649-1.649-3.58-2.426-5.911-2.426-2.237 0-4.192.777-5.841 2.426-1.554 1.554-2.426 3.486-2.426 5.817 0 2.237.871 4.286 2.426 5.841.4.377.683.683 1.06.871-1.437.377-2.708 1.06-3.768 2.143-1.672 1.649-2.449 3.58-2.449 5.817s.777 4.192 2.449 5.747c1.248 1.342 2.803 2.12 4.545 2.332-.188.094-.283.283-.471.377-1.554 1.649-2.426 3.509-2.426 5.817 0 2.237.871 4.192 2.426 5.841 1.649 1.554 3.486 2.332 5.817 2.332h.683c-.966 1.366-1.46 2.92-1.46 4.663 0 2.237.777 4.074 2.237 5.629 1.554 1.554 3.509 2.332 5.629 2.332 2.237 0 4.098-.777 5.652-2.332.683-.683 1.248-1.46 1.649-2.332.966 1.766 1.931 3.509 2.92 5.252 4.569 8.549 9.02 17.1 13.401 25.648 2.332 4.569 5.629 8.05 9.798 10.48-.283.306-.377.683-.471 1.083 0 .659.188.966.471 1.46.4.377.777.589 1.366.683.495 0 .966-.094 1.366-.495l2.332-1.955c.283-.283.495-.565.683-.966.094-.377 0-.777-.094-1.154-.212-.495-.4-.777-.777-.989-.306-.188-.683-.377-1.178-.283-.094 0-.283 0-.377-.094-.212-.094-.094 0-.212-.094-4.074-1.955-7.277-5.158-9.421-9.421-4.357-8.549-8.832-17.193-13.495-25.742-3.01-5.652-6.312-11.09-9.915-16.321-1.46-2.143-2.237-3.745-2.708-4.663-.754-1.672-1.06-2.261-1.366-3.321-1.955-5.723-2.237-11.658-.683-17.876.589-2.12 1.743-3.792 3.603-4.852 3.886-2.143 7.772-3.792 11.941-4.757 2.92-.777 5.841-1.272 8.95-1.46.094 0 .471-.047.565-.047.495 0 .589-.047 1.083-.047 2.025-.094 4.074-.094 6.218.094l.471 1.178c-6.01-.306-11.752.377-17.287 2.025-1.649.4-3.18.871-4.616 1.46l-.353.141c-.612.236-1.295.683-1.531.824-1.861 1.272-3.109 2.92-3.792 5.064-3.603 12.03-1.366 23.504 6.712 34.385l21.95 39.05c.188.306.283.495.471.683l.094.094c1.766 1.955 4.122 2.92 6.806 2.544.188-.094.4-.094.683-.306 2.92-1.554 5.535-3.58 7.584-6.03.188-.283.33-.495.471-.777.118-.377.118-.636.047-1.013l-.236-.73c-.094-.283-.283-.683-.471-.871-.306-.283-.589-.471-.895-.589l-1.342-.377c-2.544-1.743-3.98-3.698-4.286-5.841-.188-2.12.777-4.451 2.92-7.089.188-.188.471-.306.824-.188 2.967.73 4.805 2.237 5.676 4.074.683 1.955.259 4.31-1.154 7.489-.071.141-.094.188-.188.377l-.495 2.143c-.094.283-.094.683.094 1.06.094.306.306.589.589.895.283.188.683.377 1.06.377 5.158.683 10.1-.777 14.861-4.169 3.109-2.332 4.098-5.252 2.732-8.855-3.01-8.05-6.524-16.01-10.292-23.881-1.578-3.274-2.732-5.864-3.509-7.56 0 0-.071-.141-.188-.33l-18.18-32.642-1.837-4.545c1.46-5.346 4.074-9.538 8.05-12.741.989-.942 2.803-2 2.85-2.025 1.554-.989 3.368-1.766 5.134-2.332 1.625-.636 2-.683 3.391-1.083h.094c7.678-2.237 14.296-2.803 19.83-1.837 1.248.283 2.52.589 3.674.966 2.638.966 5.44 1.837 8.361 2.426 4.663 1.083 9.515 1.861 14.673 2.049 2.614.188 4.946 0 6.995-.4 1.178-.188 2.332-.565 3.391-1.06 3.227-1.554 5.346-4.074 6.335-7.772.094-.188.094-.589.094-.871-.094-.283-.212-.589-.4-.777-3.297-4.286-4.757-7.866-4.357-10.692.565-2.614 2.143-4.546 6.618-6.171 0 0 1.036-.283 1.978-.4.73-.118 1.484-.165 1.649-.165.424-.024 1.389 0 1.389 0s1.413.094 2.072.141c.636.071 1.507.306 1.507.306 4.122 1.39 5.959 3.58 6.547 6.288.283 2.826-1.083 6.406-4.381 10.692-.188.188-.283.495-.4.777 0 .283 0 .683.118.871 1.743 6.712 7.277 9.821 16.698 9.232 8.361-.495 16.04-1.955 23.13-4.475 6.123-2.143 13.99-1.837 23.41.871 1.06.495 2.237.966 3.486 1.083 1.766.565 3.415 1.342 4.875 2.332.094 0 .188.094.283.188.871.871 1.837 1.46 2.826 1.837.471.4.966.871 1.46 1.272l6.5 11.352-1.837 4.569-1.06 2.167-.188.283-16.934 30.452c-.071.094-.094.236-.094.236-.754 1.649-1.884 4.192-3.603 7.489-3.768 7.866-7.183 15.827-10.198 23.881-1.342 3.603-.471 6.524 2.732 8.855 4.663 3.391 9.609 4.852 14.861 4.169.447-.071.683-.188.966-.377.306-.306.447-.589.636-.895.094-.377.094-.659.047-1.06l-.424-2.12c0-.094 0-.024-.071-.212-.047-.188-.094-.283-.094-.283-1.46-3.01-1.837-5.44-1.154-7.395.777-1.837 2.355-3.25 5.346-4.03.188-.047.471-.094.683-.071.259.047.471.212.471.212-.094-.094 3.227 3.792 2.92 7.089-.4 2.143-1.743 4.098-4.286 5.841l-1.342.377c-.4.118-.542.141-.824.4-.188.118-.518.377-.73 1.154l-.094.683c-.047.306 0 .612.094.871.094.306.188.589.471.871 2.049 2.449 4.569 4.475 7.489 6.03.283.212.495.212.777.306 2.708.283 4.946-.589 6.806-2.544 0 0 .377-.471.565-.777l21.974-39.05c3.886-5.346 6.5-10.881 7.678-16.415 1.06-5.817.871-11.493-.895-17.617l-.118-.424c-.565-2.143-1.908-3.721-3.863-4.993 0 0-1.06-.589-1.743-.871-1.554-.565-4.663-1.649-4.663-1.649-5.629-1.554-11.375-2.237-17.287-1.931l.471-1.178c2.143-.188 4.192-.188 6.218-.094.495 0 .895.094 1.366.094h.4c7.372.495 14.272 2.614 20.678 6.218 1.861 1.06 3.109 2.732 3.603 4.852 1.554 6.123 1.507 11.587-.33 17.216 0 .118-.966 2.52-1.625 3.98-.777 1.554-1.649 3.109-2.708 4.663-3.603 5.228-6.901 10.669-9.915 16.321-4.663 8.549-9.138 17.193-13.495 25.742-2.237 4.263-5.346 7.466-9.515 9.421 0 .094-.165.118-.165.118-.188.094-.33.071-.424.071-.4-.094-.777.094-1.083.283-.377.212-.659.495-.777.989-.188.377-.188.777-.094 1.154.094.4.306.683.589.966l2.426 1.955c.4.4.871.495 1.366.495.589-.094.966-.306 1.366-.683.283-.495.471-.871.377-1.46 0-.4-.188-.777-.377-1.083 4.074-2.426 7.372-5.911 9.798-10.48 4.381-8.549 8.855-17.1 13.424-25.648.966-1.743 1.837-3.486 2.897-5.252.306.871.871 1.649 1.649 2.332 1.46 1.554 3.415 2.332 5.558 2.332 2.214 0 4.074-.777 5.629-2.332s2.332-3.391 2.332-5.629c0-1.743-.495-3.297-1.554-4.663h.777c2.237 0 4.169-.777 5.817-2.332 1.554-1.649 2.332-3.603 2.332-5.841 0-2.308-.777-4.169-2.332-5.817-.188-.094-.283-.283-.471-.377 1.743-.212 3.297-.989 4.569-2.332 1.554-1.554 2.332-3.509 2.332-5.747s-.777-4.169-2.332-5.817c-1.178-1.083-2.449-1.766-3.792-2.143.283-.188.683-.495 1.06-.871 1.554-1.554 2.332-3.603 2.332-5.841 0-2.332-.777-4.263-2.332-5.817-1.649-1.649-3.603-2.426-5.935-2.426-.966 0-1.931.094-2.803.471-1.083.4-2.143.966-3.01 1.955-1.272 1.248-2.049 2.708-2.332 4.451-.283-.283-.589-.471-.871-.565-.306-.212-.589-.306-.777-.495.683-.377 1.248-.871 1.931-1.46 1.554-1.649 2.426-3.58 2.426-6.01 0-2.355-.871-4.286-2.426-5.935"/><path d="m366.38 159.72c.4-.094.871-.4 1.366-.589l2.803-1.248c0 .188 0 .377.118.565.094 1.649.283 3.603.471 5.841l5.252 70.33c-1.649.495-3.109 1.083-4.663 1.861h-.094c-2.732 1.342-5.064 1.46-7.089.188l-.094-.094c3.297-3.297 4.357-7.183 2.991-11.846-.094 0-.094-.118-.094-.118l-.377-1.248c-.094-.188-.188-.306-.306-.495-3.01-4.169-5.911-6.218-8.643-5.911-2.897-.118-5.535 2.025-7.866 6.594-1.154 2.143-1.366 4.381-.589 6.5v.118c1.083 3.203 3.01 5.629 5.747 7.183l.188.094c0 1.06-.283 1.931-.871 2.614-1.083.871-2.732 1.554-4.969 1.861v-.094c-3.58.283-6.995.094-10.292-.777-5.346-18.37-12.624-36.34-21.95-53.839-2.332-4.169-4.475-8.643-6.5-13.212-.212-.471-.4-.966-.589-1.46 10.1-1.342 20.11-3.109 29.816-5.44 1.861-.377 4.757-.966 8.549-1.837 1.178-.188 2.426-.495 3.792-.777 4.946-1.366 9.609-2.92 13.895-4.757m-44.489-3.98h.094c4.946-.966 9.821-1.178 14.673-.777 3.58.283 7.183.966 10.692 2.025-3.509 1.083-7.02 1.861-10.692 2.449-.683.094-1.366.188-2.049.283-7.96 1.06-16.415 2.332-25.459 3.486 2.638-4.074 6.901-6.689 12.741-7.466m32.05-.683c-1.861-.683-3.509-1.272-5.252-1.743-3.98-1.178-7.96-1.955-12.04-2.237-5.064-.4-10.198-.188-15.356.777-8.738 1.248-14.578 5.629-17.381 13.02-.118.377-.212.777 0 1.248v.094l1.649 5.158c0 .094.094.188.094.377.377.683.683 1.46 1.06 2.237 2.237 5.252 4.663 10.316 7.301 15.07 9.326 17.569 16.698 35.539 21.95 54.1.094.4.283.589.471.871.306.212.495.4.895.495 3.98 1.178 8.149 1.554 12.718 1.178 3.391-.4 5.817-1.366 7.277-2.92 1.766-1.649 2.332-3.98 1.861-6.901 0-.188-.188-.495-.306-.683-.188-.283-.377-.471-.565-.589l-.989-.565h-.094c-1.837-1.178-3.203-2.92-3.98-5.158-.377-1.178-.283-2.426.283-3.603v.094c1.578-2.803 3.01-4.357 4.569-4.546 1.554.094 3.321 1.437 5.252 4.074l.283.966c.989 3.297.212 6.123-2.52 8.361-.283.283-.471.683-.565 1.06-.495 2.049.188 3.509 1.837 4.663h.094c3.01 2.049 6.712 2.049 10.881 0 1.743-.777 3.698-1.554 5.535-2.025.495-.212.871-.4 1.06-.777.306-.4.4-.895.4-1.272l-5.346-71.879c-.188-2.355-.377-4.286-.589-5.935v-.094c-.094-.777-.283-1.649-.471-2.544 0-.188-.094-.471-.212-.565v-.094l-.377-.683c-.283-.4-.683-.683-1.178-.777-.471-.212-.966-.212-1.437 0l-4.569 2.025c-1.649.683-3.603.989-5.841.777-.471-.094-2.614-.377-6.406-1.06"/><path d="m401.94 158.45c0-.188.094-.377.094-.683l2.732 1.366h.094c4.569 2.143 9.703 3.886 15.14 5.346h.094c5.841 1.248 9.915 2.12 12.341 2.614 9.727 2.332 19.618 4.074 29.84 5.44-.212.495-.4.966-.589 1.46-2.049 4.569-4.286 8.926-6.5 13.212-1.955 3.509-3.698 6.995-5.346 10.504-6.901 14.08-12.435 28.545-16.722 43.41-3.203.777-6.594.989-10.198.683v.094c-2.237-.283-3.98-.966-4.946-1.837-.683-.683-.895-1.554-.895-2.614l.212-.118h-.094c2.803-1.531 4.663-3.98 5.817-7.183v-.094c.683-2.143.495-4.381-.589-6.5-2.332-4.569-5.04-6.712-7.866-6.618-2.803-.283-5.676 1.672-8.596 5.864-.141.188-.188.353-.33.589-.424.895-.495 1.319-.495 1.319-1.366 4.663-.377 8.549 3.01 11.846-.094.094-.236.165-.236.165-2.049 1.272-4.334 1.107-7.04-.259-1.554-.777-3.109-1.342-4.663-1.837l5.228-70.35v-.094c.094-2.12.306-4.074.495-5.723m36.03 1.154c-.777 0-1.46-.188-2.12-.283-3.603-.495-7.113-1.366-10.598-2.426 8.267-2.332 16.698-2.732 25.365-1.178 5.817.801 10.1 3.321 12.812 7.395-9.138-1.178-17.593-2.332-25.459-3.509m-36.22-6.312c-.4-.283-.871-.283-1.366-.094-.589.094-.871.4-1.178.871l-.377.683-.094.212c-.094.094-.094.283-.188.471-.212.871-.306 1.743-.4 2.52v.118c-.283 1.649-.495 3.58-.589 5.911l-5.323 71.903c-.071.377.094.871.283 1.248.212.377.683.589 1.06.777 1.861.518 3.792 1.272 5.629 2.049l.165.071c4.263 2.049 7.607 1.955 10.74-.071 1.649-1.083 2.214-2.52 1.931-4.381-.024-.33-.165-.636-.259-.848-.094-.212-.071-.236-.259-.424l-.259-.188c-2.52-2.237-3.297-4.946-2.426-8.149l.377-1.083c1.955-2.614 3.603-3.98 5.252-4.074 1.46.188 3.01 1.766 4.569 4.569v-.094c.589 1.178.683 2.426.283 3.603-.777 2.237-2.12 3.98-4.074 5.134l-.966.589c-.495.188-.707.495-.871 1.131 0 0-.094.33-.094.424-.4 2.708.188 4.946 1.931 6.618 1.366 1.531 3.792 2.52 7.277 2.897 4.475.4 8.761 0 12.741-1.154.283-.094.589-.306.871-.495.188-.283.377-.495.495-.871 4.357-15.544 10.292-30.688 17.569-45.46 1.366-2.92 2.826-5.747 4.381-8.667 2.92-5.535 5.723-11.258 8.267-17.287.094-.188.094-.283.188-.377l1.649-5.158v-.188c.094-.4.094-.777 0-1.178-2.92-7.466-8.643-11.752-17.499-13.02h.118c-5.252-.966-10.316-1.248-15.45-.777-5.841.4-11.564 1.766-17.216 4-3.768.659-5.911.966-6.406.966-2.237.188-4.169 0-5.817-.683l-4.663-2.049z"/><path d="m94.31 184.59v15.544h-38.13v139.9h-47.857v-139.9h-38.37v-15.544h124.35z"/><path d="m215.65 184.59l-45.08 155.44h-40.41l-41.22-155.44h45.525l30.758 117.71 33.585-117.71h16.839"/><path d="m248.59 269.79c-3.509 0-5.888 1.955-7.136 5.864-1.225 3.886-1.861 11.375-1.861 22.421 0 11.07.636 18.559 1.861 22.445 1.248 3.91 3.627 5.864 7.136 5.864s5.888-1.955 7.136-5.864c1.225-3.886 1.861-11.375 1.861-22.445 0-11.02-.636-18.488-1.861-22.398-1.248-3.933-3.627-5.888-7.136-5.888m.518-5.228c18.841 0 28.26 11.187 28.26 33.514 0 22.35-9.586 33.537-28.78 33.537-19.19 0-28.78-11.446-28.78-34.29 0-21.832 9.774-32.76 29.3-32.76"/><path d="m304.46 294.08h3.792c7.113 0 10.669-3.721 10.669-11.163 0-7.466-3.556-11.187-10.669-11.187h-3.79v22.35zm-18.818 36.434v-64.72h27.885c7.23 0 13.02 1.507 17.334 4.569 4.334 3.062 6.5 7.136 6.5 12.27 0 7.843-4.64 12.953-13.919 15.332 4.757 1.766 7.866 3.698 9.256 5.817 1.413 2.12 2.379 6.218 2.873 12.317.612 7.277 1.813 12.08 3.651 14.414h-20.396c-1.295-3.01-1.931-6.759-1.931-11.234l-.094-3.839-.094-4.828c0-7.466-3.01-11.187-9.02-11.187h-3.227v31.09h-18.818"/><path d="m354.1 309.87h15.897l-7.654-28.615-8.243 28.615m22.35-44.09l18.02 64.743h-18.888l-3.839-14.11h-19.501l-4.122 14.11h-7.348l19.17-64.743h16.51"/><path d="m446.9 265.78v64.72h-14.366l-27.04-41v41h-6.312v-64.72h11.894l29.51 44.23v-44.23h6.312z"/><path d="m487.2 265.78v41.616c0 16.368-5.77 24.564-17.287 24.564-5.111 0-9.421-1.437-12.977-4.357-3.556-2.897-5.323-6.406-5.323-10.575 0-2.473.518-5.582 1.531-9.35l6.877-1.861c-1.06 4.498-1.601 7.772-1.601 9.75 0 7.04 2.096 10.575 6.312 10.575 2.426 0 3.651-3.321 3.651-9.915v-50.45h18.818"/><path d="m539.91 265.78v6.547h-23.08v19.571h19.43v6.547h-19.43v25.506h27.08v6.547h-45.902v-64.72h41.898z"/><path d="m231.05 165.64h-274.63v8.738h274.63v-8.738"/><path d="m556.42 165.64h-14.484v8.738h14.484v-8.738"/><path d="m556.42 350.24h-600v8.738h600v-8.738"/><path d="m53.48 374.05v29.13h-8.125v-20.254l-5.676 20.254h-4.734l-5.817-19.901v19.901h-2.85v-29.13h8.596l4.993 17.617 4.969-17.617h8.643"/><path d="m78.6 381.15v22.04h-7.772v-3.415c-1.79 2.567-4.098 3.839-6.924 3.839-3.815 0-5.7-1.837-5.7-5.558v-16.345c2.614-.118 5.205-.306 7.772-.565v16.722c0 1.437.447 2.167 1.319 2.167 2.355 0 3.533-2.497 3.533-7.489v-10.834c2.591-.118 5.181-.306 7.772-.565"/><path d="m99.17 381.7v2.426l-9.421 16.651h9.421v2.426h-17.97v-2.661l9.397-16.415h-8.479v-2.426h17.05"/><path d="m105.83 373.32c2.426 0 3.65.942 3.65 2.826s-1.225 2.826-3.65 2.826-3.65-.942-3.65-2.826 1.225-2.826 3.65-2.826m-3.957 29.863v-21.455c2.426 0 5.02-.188 7.772-.589v22.04h-7.772z"/><path d="m121.2 390.69h4.663c0-4.969-.754-7.466-2.261-7.466-1.366 0-2.143 1.837-2.308 5.535l-.09 1.94zm8.29 4.616l3.132.919c-.33 4.969-3.25 7.466-8.808 7.466-7.16 0-10.74-3.58-10.74-10.74 0-3.462.942-6.312 2.85-8.526 1.908-2.214 4.357-3.321 7.325-3.321 6.218 0 9.326 4 9.326 12.01h-11.352c0 5.629 1.437 8.432 4.286 8.432 2.685 0 4-1.578 4-4.757 0-.424 0-.919-.024-1.484"/><path d="m155.01 381.7l-4.451 5.558 6.406 15.944h-8.22l-3.721-9.468-1.437 1.743v7.725h-7.772v-29.16c2.285 0 4.875-.141 7.772-.471v18.252l8.314-10.127h3.109"/><path d="m189.51 381.7l-7.23 21.503h-5.417l-7.489-21.503h8.314l4.569 14.39 4.687-14.39h2.567"/><path d="m201.89 390.28c-.495.542-1.06 1.013-1.696 1.389-1.625.942-2.426 2.497-2.426 4.734 0 2.826.542 4.239 1.672 4.239 1.625 0 2.449-1.389 2.449-4.192v-6.17m11.02 12.153c-1.908.754-3.768 1.13-5.558 1.13-2.685 0-4.333-.824-4.946-2.52-1.295 1.719-3.179 2.591-5.605 2.591-4.546 0-6.806-2.12-6.806-6.335 0-3.203 2.072-5.44 6.241-6.759 3.815-1.178 5.723-2.614 5.723-4.31 0-2.214-1.107-3.297-3.297-3.297-2.544 0-3.815 1.06-3.815 3.227 0 .683.212 1.554.612 2.661l-3.863-.73c-.094-.683-.141-1.319-.141-1.908 0-3.415 3.109-5.134 9.326-5.134 5.911 0 8.879 1.601 8.879 4.828v13.05c0 1.342.424 2.025 1.295 2.025.283 0 .683-.165 1.201-.471l.754 1.955"/><path d="m234.69 403.2h-7.772v-15.78c0-1.625-.447-2.426-1.366-2.426-.919 0-1.719.636-2.402 1.908s-1.036 2.779-1.036 4.522v11.776h-7.772v-21.526c2.685 0 5.276-.188 7.772-.542v4.03c1.955-2.708 4.333-4.051 7.136-4.051 3.627 0 5.44 1.837 5.44 5.535v16.557"/><path d="m259.27 390.69h4.663c0-4.969-.754-7.466-2.261-7.466-1.366 0-2.143 1.837-2.308 5.535l-.09 1.94zm8.29 4.616l3.132.919c-.33 4.969-3.274 7.466-8.808 7.466-7.16 0-10.74-3.58-10.74-10.74 0-3.462.942-6.312 2.85-8.526 1.908-2.214 4.357-3.321 7.324-3.321 6.218 0 9.326 4 9.326 12.01h-11.352c0 5.629 1.437 8.432 4.286 8.432 2.685 0 4-1.578 4-4.757 0-.424 0-.919-.024-1.484"/><path d="m278.02 373.32c2.426 0 3.651.942 3.651 2.826s-1.225 2.826-3.651 2.826-3.651-.942-3.651-2.826 1.225-2.826 3.651-2.826m-3.957 29.863v-21.455c2.426 0 5.02-.188 7.772-.589v22.04h-7.772z"/><path d="m295.46 383.22c-1.46 0-2.19 1.813-2.19 5.417 0 3.321.754 4.969 2.284 4.969 1.389 0 2.072-1.484 2.072-4.428 0-3.957-.707-5.959-2.167-5.959m-.165 21.385c-3.627 0-5.44.683-5.44 2.096 0 1.39 1.766 2.072 5.252 2.072 4.074 0 6.123-.777 6.123-2.332 0-1.225-2-1.837-5.935-1.837m4.969-22.68c3.627 1.531 5.44 3.792 5.44 6.759 0 1.931-.895 3.603-2.732 4.969-1.813 1.389-4 2.072-6.594 2.072-.989 0-2.332-.118-4.03-.377-1.013.565-1.507 1.13-1.507 1.696 0 .777.589 1.178 1.813 1.178.306 0 .942-.024 1.908-.094 2.402-.141 4.145-.212 5.252-.212 5.181 0 7.772 1.955 7.772 5.888 0 4.734-4.286 7.113-12.836 7.113-6.382 0-9.562-1.342-9.562-4.03 0-1.554 1.295-2.614 3.863-3.156-2.779-.73-4.169-1.931-4.169-3.603 0-2.096 1.649-3.933 4.946-5.535-2.897-1.154-4.334-3.156-4.334-5.959 0-2.143.871-3.933 2.614-5.37 1.766-1.437 3.933-2.167 6.524-2.167.895 0 2.049.094 3.486.306-.071-.495-.118-.895-.118-1.178 0-2.826 1.46-4.239 4.428-4.239 2.355 0 3.533.989 3.533 2.967 0 1.507-.707 2.261-2.12 2.261-.471 0-1.036-.165-1.672-.471-.4-.188-.683-.306-.895-.33-.659-.024-1.013.471-1.013 1.507"/><path d="m316.8 390.69h4.663c0-4.969-.754-7.466-2.261-7.466-1.366 0-2.143 1.837-2.308 5.535l-.09 1.94zm8.29 4.616l3.132.919c-.33 4.969-3.25 7.466-8.808 7.466-7.16 0-10.74-3.58-10.74-10.74 0-3.462.942-6.312 2.85-8.526 1.908-2.214 4.357-3.321 7.325-3.321 6.218 0 9.326 4 9.326 12.01h-11.352c0 5.629 1.437 8.432 4.286 8.432 2.685 0 4-1.578 4-4.757 0-.424 0-.919-.024-1.484"/><path d="m351.88 403.2h-7.772v-15.78c0-1.625-.447-2.426-1.366-2.426-.919 0-1.719.636-2.402 1.908s-1.036 2.779-1.036 4.522v11.776h-7.772v-21.526c2.685 0 5.276-.188 7.772-.542v4.03c1.955-2.708 4.334-4.051 7.136-4.051 3.627 0 5.44 1.837 5.44 5.535v16.557"/><path d="m379.46 384.25c-1.719 0-2.567 2.497-2.567 7.466 0 5.864.824 8.808 2.497 8.808 1.46 0 2.19-1.531 2.19-4.569l.165-5.276-.188-2.967c-.212-2.308-.919-3.462-2.096-3.462m-10.221 18.935v-29.13c1.272 0 3.862-.141 7.772-.447v10.386c1.46-1.931 3.085-2.897 4.852-2.897 5.111 0 7.654 3.533 7.654 10.598 0 7.984-3.038 11.988-9.09 11.988-2.873 0-5.299-1.342-7.325-4.051l-1.931 3.556h-1.931z"/><path d="m402.53 382.98c-1.743 0-2.591 3.132-2.591 9.421 0 6.265.848 9.397 2.591 9.397s2.614-3.132 2.614-9.397c0-6.288-.871-9.421-2.614-9.421m.024-1.884c7.113 0 10.669 3.768 10.669 11.305 0 7.513-3.556 11.281-10.669 11.281-7.136 0-10.692-3.768-10.692-11.281 0-7.536 3.556-11.305 10.692-11.305"/><path d="m425.71 384.25c-1.319 0-1.955 1.201-1.955 3.58l-.165 4.569.094 4.169c0 2.638.73 3.957 2.214 3.957 1.437 0 2.167-1.295 2.167-3.91l.071-5.228-.141-3.58c-.236-2.379-.989-3.556-2.284-3.556m10.08-10.645v29.581h-7.772v-1.837c-1.319 1.554-3.062 2.332-5.252 2.332-4.828 0-7.254-3.721-7.254-11.14 0-7.631 2.567-11.446 7.678-11.446 2.025 0 3.627.895 4.828 2.661v-9.703c2.332 0 4.922-.141 7.772-.447"/><path d="m447.18 390.69h4.663c0-4.969-.754-7.466-2.261-7.466-1.366 0-2.143 1.837-2.308 5.535l-.09 1.94zm8.29 4.616l3.132.919c-.33 4.969-3.25 7.466-8.808 7.466-7.16 0-10.74-3.58-10.74-10.74 0-3.462.942-6.312 2.85-8.526 1.908-2.214 4.357-3.321 7.325-3.321 6.218 0 9.326 4 9.326 12.01h-11.352c0 5.629 1.437 8.432 4.286 8.432 2.685 0 4-1.578 4-4.757 0-.424 0-.919-.024-1.484"/><path d="m493.43 403.2h-7.772v-16.13c0-1.437-.424-2.143-1.248-2.143-1.931 0-2.873 2.025-2.873 6.1v12.176h-7.772v-15.803c0-1.601-.377-2.402-1.13-2.402-1.955 0-2.944 2-2.944 6.05v12.153h-7.772v-21.55c2.614 0 5.205-.188 7.772-.542v3.721c1.837-2.497 4.098-3.721 6.806-3.721 2.261 0 3.933 1.154 5.04 3.509 1.719-2.402 3.91-3.58 6.5-3.58 3.603 0 5.393 1.837 5.393 5.488v16.675"/></g></svg>