<svg xmlns="http://www.w3.org/2000/svg" width="537.94" height="147.19" viewBox="0 0 151.8184 156.48731" fill-rule="evenodd"><defs><linearGradient y1="187.57" x2="0" y2="109.43" id="0" gradientUnits="userSpaceOnUse"><stop stop-color="#00268f"/><stop offset="1" stop-color="#40c9ff"/></linearGradient></defs><path transform="matrix(2.72342 0 0 1.98487-210.05-216.51)" fill="url(#0)" d="m210 187.92h-210v-78.84h210z"/><g fill="#fff"><path d="m174.53 18.558l-45.32 23.589v28.573l19.868-12.293-1.329 71.56h26.778v-111.43m34.22 6.213v69.7h54.22v-69.7h-54.22m57.41 0v69.7h54.22v-69.7h-54.22m7.143 10.565h16.479c13.395 0 24.15 10.792 24.15 24.19 0 13.395-10.759 24.19-24.15 24.19h-16.479v-48.37m-57.943.066h9.901v18.473h21.2v-18.473h9.901v48.44h-9.901v-20.599h-21.2v20.599h-9.901v-48.44m67.25 9.568v29.1h6.379c8.06 0 14.519-6.494 14.519-14.552 0-8.06-6.461-14.552-14.519-14.552h-6.379"/><path d="m-63.17 29.19h72.932v95.84h-72.932v-95.84m78.29 0h72.932v95.84h-72.932v-95.84m15.795 15.795v65.23h13.163v-19.89l2.828.097c17.843 0 26.618-11.505 26.618-23.01 0-11.213-8.483-22.425-25.351-22.425h-17.258m13.163 12.675h4.778c7.508.097 11.31 2.632 11.798 10.14-.39 7.8-4.875 10.238-12.48 10.433h-4.095v-20.573m-70.786 54.601l-30.23-68.06h14.625l15.11 34.418.487 2.048.487-2.048 15.02-34.418h14.723l-30.23 68.06m-53.04-54.601v-12.675h-50.604v12.675h18.33v52.55h14.04v-52.55h18.233m-61.719-28.471h72.932v95.84h-72.932v-95.84m-5.363-4.68h240.25v105.2h-240.25v-105.2"/></g></svg>