<svg xmlns="http://www.w3.org/2000/svg" width="389.76" height="146.37" viewBox="0 0 110 41.31" fill-rule="evenodd"><path fill="#e2762d" d="m0 0h110v41.31h-110z"/><g fill="#fff"><path d="m100.86 34.25h-21.524l12.648-14.952c.769-.912 1.34-1.732 1.708-2.473.361-.735.545-1.424.545-2.067 0-.984-.309-1.791-.933-2.414-.624-.623-1.439-.932-2.457-.932-1.202 0-2.129.387-2.779 1.155-.65.768-.972 1.883-.972 3.346v.348h-6.774v-.19c0-3.195.933-5.708 2.799-7.538 1.866-1.83 4.422-2.749 7.654-2.749 3.154 0 5.67.814 7.543 2.441 1.873 1.627 2.812 3.792 2.812 6.495 0 1.325-.296 2.605-.887 3.858-.591 1.247-1.564 2.618-2.924 4.101l-5.085 5.596h8.627v5.977" fill-rule="nonzero"/><path d="m33.26 7.954h19.01v24.952h-19.01v-24.952m20.4 0h19.01v24.952h-19.01v-24.952m4.111 4.108v17h3.443v-5.191l.743.024c4.637 0 6.914-3.01 6.914-5.99 0-2.934-2.205-5.846-6.597-5.846h-4.502m3.438 3.29h1.24c1.967.03 2.948.696 3.089 2.653-.122 2.031-1.272 2.677-3.253 2.711h-1.076v-5.364m-18.443 14.227l-7.872-17.72h3.822l3.913 8.961.137.533.138-.54 3.912-8.954h3.823l-7.873 17.72m-13.809-14.224v-3.29h-13.178v3.29h4.761v13.71h3.656v-13.71h4.761m-16.09-7.401h19.01v24.952h-19.01v-24.952m-1.388-1.234h62.58v27.42h-62.58v-27.42"/></g></svg>