<svg xmlns="http://www.w3.org/2000/svg" width="537.94" height="147.19" viewBox="0 0 151.8184 156.48731" fill-rule="evenodd"><defs><linearGradient y1="187.57" x2="0" y2="127.33" id="0" gradientUnits="userSpaceOnUse"><stop stop-color="#ba5300"/><stop offset=".351" stop-color="#dd864c"/><stop offset="1" stop-color="#e96600"/></linearGradient></defs><path transform="matrix(2.73714 0 0 1.98487-210.05-216.51)" fill="url(#0)" d="m0 187.92v-78.84h210v78.84z"/><g fill="#fff"><path d="m338.47 21.313c-11.454 0-20.514 3.264-27.12 9.75-6.611 6.486-9.906 15.366-9.906 26.688v.688h24v-1.25c0-5.184 1.133-9.124 3.438-11.844 2.305-2.72 5.584-4.094 9.844-4.094 3.609 0 6.507 1.104 8.719 3.313 2.211 2.209 3.313 5.076 3.313 8.563 0 2.278-.657 4.709-1.938 7.313-1.304 2.627-3.339 5.519-6.06 8.75l-44.813 53h76.28v-21.19h-30.563l18-19.844c4.819-5.254 8.28-10.115 10.375-14.531 2.096-4.44 3.125-8.96 3.125-13.656 0-9.578-3.302-17.235-9.938-23-6.635-5.765-15.576-8.656-26.75-8.656m67.25 2v65.56h51v-65.56h-51m54 0v65.56h51v-65.56h-51m6.719 9.938h15.5c12.599 0 22.719 10.151 22.719 22.75 0 12.599-10.119 22.75-22.719 22.75h-15.5v-45.5m-54.5.063h9.313v17.375h19.938v-17.375h9.313v45.563h-9.313v-19.375h-19.938v19.375h-9.313v-45.563m63.25 9v27.375h6c7.58 0 13.656-6.108 13.656-13.688 0-7.58-6.077-13.688-13.656-13.688h-6" transform="matrix(1.06317 0 0 1.06317-210.05 0)"/><path d="m-63.45 29.357h71.12v93.34h-71.12v-93.34m76.31 0h71.12v93.34h-71.12v-93.34m15.381 15.368v63.6h12.879v-19.419l2.778.09c17.345 0 25.865-11.25 25.865-22.409-.002-10.977-8.25-21.868-24.681-21.868h-16.841m12.859 12.31h4.638c7.359.112 11.03 2.603 11.556 9.924-.456 7.597-4.759 10.01-12.169 10.14h-4.03v-20.06m-68.992 53.22l-29.449-66.29h14.3l14.638 33.523.512 1.994.517-2.02 14.632-33.496h14.302l-29.451 66.29m-51.659-53.21v-12.306h-49.3v12.306h17.81v51.29h13.678v-51.29h17.81m-60.21-27.687h71.12v93.34h-71.12v-93.34m-5.193-4.615h234.12v102.57h-234.12v-102.57"/></g></svg>