<svg xmlns="http://www.w3.org/2000/svg" viewBox="0 0 1000 837.59" xmlns:xlink="http://www.w3.org/1999/xlink"><defs><linearGradient y1="512.8" x2="0" y2="787.9" id="3" gradientUnits="userSpaceOnUse"><stop stop-color="#2e3192"/><stop offset="1" stop-color="#0994dc"/></linearGradient><linearGradient y1="447.45" x2="0" y2="166.43" id="2" gradientUnits="userSpaceOnUse"><stop stop-color="#fbc707"/><stop offset="1" stop-color="#ed1c24"/></linearGradient><linearGradient y1="437.71" x2="0" y2="186.63" id="0" gradientUnits="userSpaceOnUse"><stop stop-color="#b2db18"/><stop offset="1" stop-color="#009748"/></linearGradient><linearGradient y1="472.34" x2="0" y2="118.63" id="1" gradientUnits="userSpaceOnUse" xlink:href="#3"/></defs><g transform="matrix(1.25 0 0-1.25-260.05 985.38)"><path d="m1004.89 223.88c-1.013 2.615-1.977 5.462-4.789 8.231-2.797 2.611-7.353 5.438-17.813 5.513-3.464 0-7.55-.35-12.353-1.199-14.45-2.513-32.07-7.176-50.36-7.206-13.12-.013-26.848 2.509-39.42 10.436-12.582 7.898-23.549 20.961-31.957 40.505-6.03 13.999-8.755 26.63-8.755 38-.039 16.12 5.624 29.519 13.881 39.708 8.257 10.233 18.899 17.475 29.27 22.715 20.773 10.447 40.8 13.12 41.466 13.23 0 .008 8.389 1.65 12.779 4.124 6.402 3.607 11.197 7.945 11.325 17.18 0 2.829-.504 6.244-1.825 10.351-1.344 4.06-3.601 9.14-9.231 13.542-5.646 4.357-15.176 8.419-32.472 8.445-1.96 0-4.02-.055-6.18-.165-19.646-.985-52.52-9.608-81.31-26.76-28.961-17.204-53.619-42.43-60.38-76.45-.152-.763-.656-3.02-1.207-6.532 12.03-9.374 22.762-21.501 30.775-37.08.962-1.887 5.329-9.535 9.163-20.531 3.893-11.08 7.488-25.95 7.488-43.47.023-9.838-1.145-20.489-4-31.709 2.049-1.987 4.176-3.96 6.411-5.906 4.158-3.69 42.39-32.545 100.64-32.419 13.7 0 28.56 1.554 44.45 5.37 4.101.987 13.422 2.911 23.657 6.669 10.193 3.693 20.914 9.338 27.06 16.418 4.126 4.769 6.402 9.736 6.443 16.196 0 3.626-.773 7.838-2.755 12.791" fill="url(#2)" fill-rule="evenodd"/><path d="m319.5 512.8h566.29v275.11h-566.29v-275.11" fill="url(#3)"/><g fill-rule="evenodd"><path d="m393.66 743.98h417.98v-183.14h-417.98v183.14m9.281-8.242h126.96v-166.64h-126.96v166.64m107.49-49.43v21.971h-88.01v-21.971h31.791v-91.57h24.41v91.57h31.812m92.21-94.99l-52.578 118.33h25.536l26.12-59.854.925-3.564.929 3.629 26.12 59.788h25.532l-52.578-118.33m123.18 95.02h8.285c13.13-.212 19.689-4.65 20.632-17.73-.823-13.567-8.503-17.858-21.732-18.09h-7.186v35.821m-22.963 21.969v-113.56h22.997v34.669l4.97-.15c30.966 0 46.16 20.08 46.16 40.01 0 19.589-14.732 39.04-44.05 39.04h-30.07m-27.455 27.435h126.97v-166.64h-126.97v166.64m-136.24 0h126.97v-166.64h-126.97v166.64" fill="#fff"/><path d="m693.76 228.27c-6.361-33.12-35.31-56.17-67.865-56.17-4.319 0-8.68.406-13.05 1.235h-.008c-33.13 6.361-56.18 35.31-56.18 67.867 0 4.312.404 8.687 1.248 13.06 6.355 33.13 35.31 56.18 67.868 56.18 4.299 0 8.671-.395 13.05-1.239 33.13-6.366 56.18-35.31 56.18-67.863 0-4.31-.398-8.686-1.239-13.07m86.08 46.17c-3.462 9.819-6.96 15.899-8.263 18.428l.004.004c-13.08 25.329-34.23 39.874-56.779 48.4-22.51 8.477-46.18 10.09-62.4 10.52-13.747.365-29.782-3.141-34.34-3.141-12.614-.226-22.553 5.772-27.386 13.9-4.938 8.01-5.926 16.911-5.973 24.444.019 9.174 1.695 16.601 2.081 18.206.199 1.03 1.586 8.107 3.047 15.625 1.558 8.04 3.248 16.911 3.473 18.431.203 1.355.293 2.616.293 3.791-.047 9.214-5.528 14.836-13.965 19.597-8.251 4.502-17.492 6.225-22.11 7.122-4.834.94-15.742 2.564-20.807 2.564-14.518-.147-20.309-4.727-23.775-8.937-3.415-4.276-4.056-9.336-4.077-9.89h-.004l-.017-.562-.12-.609c0 0-6.652-34.769-15.183-79.35.139-.523.282-1.036.415-1.564l.07-.271 20.473-115.35c.423-1.507 1.436-5.671 1.444-11.317.021-7.103-1.724-16.96-9.09-25.634-7.357-8.689-19.753-15.347-38.635-17.708-1.03-.124-3.836-.427-7.68-.671-.671-3.511-1.257-6.584-1.752-9.165-.534-2.806-.774-5.334-.774-7.631.211-11.648 5.346-17.924 14.839-23.262 9.469-5.09 23.19-7.423 36.1-7.383 7.825-.008 15.362.804 21.397 2.068 5.847 1.237 11.287 1.772 16.315 1.772.028 0 .054 0 .083 0 12.06 0 21.666-3.16 28.658-6.682 6.883-3.445 46.855-30.508 92.87-31.51 22.548-.492 51.48 3.15 78.83 27.401 33.14 31.914 39.23 65.23 39.3 90.39 0 15.227-3.137 28.25-6.552 37.979" fill="url(#1)"/><path d="m361.27 240.28c-10.244-3.895-19.247-5.558-27.11-5.558-.041 0-.083 0-.126 0-11.708 0-20.794 3.87-26.884 8.761-6.152 5.01-9.355 10.328-10.654 15.11-.62 2.451-.921 4.887-.921 7.255-.015 7.776 3.274 14.46 7.492 19.525 4.25 5.111 9.464 8.953 14.494 11.981 10.06 6.01 19.578 8.778 19.845 8.87.415.1 11.947 3.754 25.15 3.799 5.473-.015 11.304-.628 16.939-2.786 5.596-2.109 11.138-6.133 14.42-12.388 1.968-3.684 2.889-7.686 2.881-11.513-.267-12.385-8.03-21.73-15.45-28.989-7.795-7.276-15.187-12.07-20.07-14.06h-.008m-51.983-53.57c31.583-.254 64.47 20.582 70.73 25.557 9.261 7.118 19.758 9.266 28.795 9.242 9.289-.006 17.409-2.124 22.655-3.573 4.643-1.304 11.699-1.836 18.11-1.818 8.144-.006 15.46.759 16.663.908 16.238 2.098 24.19 7.246 28.408 12.187 4.21 4.958 5.272 10.565 5.289 15.264 0 3.276-1.024 7.547-1.024 7.547l-20.561 115.8c-7.815 30.09-24.933 46.798-45.32 56.984-20.448 10.135-44.36 12.924-63.43 12.894-14.96.008-34.13-2.895-34.14-2.895l-.188-.043-.212-.028c-44.971-6.592-87.13-18.922-102.44-33.395-5.129-4.761-6.975-8.77-6.99-12.667 0-.412.021-.788.062-1.212.859-7.725 3.252-10.753 5.874-12.761 2.68-1.99 6.671-2.898 10.857-2.881 4.188-.017 8.344.913 10.268 1.494 39.449 11.919 53.608 14.03 62.62 15.657 2.921.528 6.646.759 11.255.773 11.847-.22 28.02-1.239 39.449-8.966 3.782-2.656 7.317-6.812 8.298-12.306.197-1.066 1.577-10.49-7.28-18.219-3.951-3.451-8.586-5.784-13.176-7.689-9.274-3.748-18.09-5.462-21.627-5.879-10.556-.998-47.4-11.593-55.12-14.616-32.478-12.325-49.35-27.624-58.36-41.04-8.988-13.437-10.304-25.35-10.325-31.658 0-2.162.162-3.626.246-4.312 3.436-27.14 20.664-40.894 41.24-49.25 20.441-8.118 43.32-9.227 52.849-9.193 3.03 0 6.05.085 6.507.085" fill="url(#0)"/></g></g></svg>