<svg xmlns="http://www.w3.org/2000/svg" viewBox="0 0 600 164.04"><g fill="#bd1a18"><path d="m163.58 80.48c0 10.513 1.35 18.24 4.07 23.2 2.721 4.963 5.986 7.444 9.838 7.444 3.657 0 6.747-2.285 9.25-6.878 2.503-4.571 3.766-12.06 3.766-22.462 0-9.86-1.284-17.13-3.874-21.831-2.568-4.701-5.703-7.05-9.425-7.05-3.896 0-7.139 2.285-9.729 6.878-2.59 4.571-3.896 11.471-3.896 20.699m-19.959-45.05h18.719v13.669c2.568-4.897 5.964-8.75 10.186-11.514 4.201-2.786 8.728-4.179 13.582-4.179 8.706 0 14.779 4.157 21.07 12.45 6.29 8.271 5.267 20.05 5.267 35.28 0 15.998 1 26.816-5.289 35.3-6.312 8.51-12.363 12.755-21.07 12.755-4.03 0-7.77-1-11.231-2.938-3.482-1.959-7.139-4.07-10.992-9.207v46.993h-20.242v-128.61z"/><path d="m311.42 80.48c0 10.513 1.349 18.24 4.07 23.2 2.721 4.963 5.986 7.444 9.838 7.444 3.657 0 6.747-2.285 9.25-6.878 2.503-4.571 3.765-12.06 3.765-22.462 0-9.86-1.284-17.13-3.874-21.831-2.568-4.701-5.703-7.05-9.425-7.05-3.896 0-7.139 2.285-9.729 6.878-2.59 4.571-3.896 11.471-3.896 20.699m-19.959-45.05h18.719v13.669c2.568-4.897 5.964-8.75 10.186-11.514 4.201-2.786 8.728-4.179 13.582-4.179 8.706 0 14.779 4.157 21.07 12.45 6.29 8.271 5.267 20.05 5.267 35.28 0 15.998 1 26.816-5.289 35.3-6.312 8.51-12.363 12.755-21.07 12.755-4.03 0-7.77-1-11.231-2.938-3.483-1.959-7.139-4.07-10.992-9.207v46.993h-20.242v-128.61z"/><path d="m263.87 83.79c-2.59 1.045-6.617 2.264-12.08 3.678-6.29 1.632-10.404 3.439-12.341 5.42-1.959 1.981-2.917 4.527-2.917 7.683 0 3.548 1.066 6.53 3.221 8.968 2.133 2.416 4.832 3.613 8.08 3.613 2.873 0 5.724-.979 8.554-2.917 2.808-1.959 4.767-4.266 5.855-6.943 1.088-2.699 1.632-7.553 1.632-14.605v-4.897m-25.66-20l-18.22-.914c2.22-9.446 4.44-19.11 9.555-23.25 5.115-4.136 12.45-6.203 22.03-6.203 8.51 0 15.02 1.197 19.524 3.591 4.484 2.394 7.705 5.637 9.62 9.773 1.937 4.114 2.895 11.601 2.895 22.484l-.174 28.731c0 8.08.326 14.08.958 18.02.631 3.94.936 8.14 2.655 12.581h-21.701l-1.785-10.165c-3.439 4.07-5.42 7.139-9.359 9.163-3.961 2-8.14 3.03-12.581 3.03-7.444 0-13.517-2.503-18.24-7.487-4.745-4.984-7.117-11.645-7.117-19.938 0-5.246.979-9.816 2.917-13.734 1.937-3.918 4.658-7.03 8.184-9.359 3.504-2.351 9.142-4.418 16.89-6.225 9.381-2.155 15.911-4.179 19.611-6.05 0-5.159-.37-9.142-1.11-10.752-.718-1.611-2.068-4.527-4.03-5.55-1.981-1.023-4.745-1.545-8.315-1.545-3.635 0-6.508 2.264-8.576 3.896-2.089 1.632-2.329 5.42-3.635 9.904"/><path d="m576.82 83.79c-2.59 1.045-6.617 2.264-12.08 3.678-6.29 1.632-10.404 3.439-12.341 5.42-1.959 1.981-2.917 4.527-2.917 7.683 0 3.548 1.067 6.53 3.221 8.968 2.133 2.416 4.832 3.613 8.08 3.613 2.873 0 5.724-.979 8.554-2.917 2.808-1.959 4.767-4.266 5.855-6.943 1.088-2.699 1.632-7.553 1.632-14.605v-4.897m-25.66-20l-18.22-.914c2.22-9.446 4.44-19.11 9.555-23.25 5.115-4.136 12.45-6.203 22.03-6.203 8.51 0 15.02 1.197 19.524 3.591 4.484 2.394 7.705 5.637 9.62 9.773 1.937 4.114 2.895 11.601 2.895 22.484l-.174 28.731c0 8.08.326 14.08.958 18.02.631 3.94.936 8.14 2.655 12.581h-21.701l-1.785-10.165c-3.439 4.07-5.42 7.139-9.359 9.163-3.961 2-8.14 3.03-12.581 3.03-7.444 0-13.517-2.503-18.24-7.487-4.745-4.984-7.117-11.645-7.117-19.938 0-5.246.979-9.816 2.917-13.734 1.937-3.918 4.658-7.03 8.184-9.359 3.504-2.351 9.142-4.418 16.89-6.225 9.381-2.155 15.911-4.179 19.611-6.05 0-5.159-.37-9.142-1.11-10.752-.718-1.611-2.068-4.527-4.03-5.55-1.981-1.023-4.745-1.545-8.315-1.545-3.635 0-6.508 2.264-8.576 3.896-2.09 1.632-2.329 5.42-3.635 9.904"/><path d="m391.54 128.59h-21.265v-93.16h18.74v13.234c3.243-6.203 6.138-10.295 8.685-12.276 2.568-1.981 5.529-2.764 8.88-2.982 4.353-.305 5.115-.348 9.664-.022l-.065 22.637c-3.374-1.262-9.12-.588-12.12-.588-2.83 0-5.311 1.045-7.466 3.112-2.155 2.068-2.699 5.833-3.635 11.275-.936 5.442-1.415 15.432-1.415 29.993v28.775z"/><path d="m426.72 128.59l-.022-93.16h20.242l.022 93.16h-20.242"/><path d="m457.86 128.59v-128.59h20.242v67.888l23.594-32.453h24.9l-26.1 34.04 27.86 59.12h-21.505l-19.48-41.965-9.272 12.1v29.863h-20.242z"/></g><g fill="#f8a818"><path d="m42.861 96.41c-.653-2.699-.979-8.162-.979-16.433v-32.26h-7.422v-15.454h7.422v-20.634c-18.09 1.066-31.08 3.896-37.22 10.03-8.445 8.445-5.833 55.22 11.275 72.33 6.443 6.443 17.5 8.05 29.536 8.423-1.197-1.654-2.068-3.657-2.612-6.01"/><path d="m120.59 21.67c-8.29-8.293-27.64-10.535-56.52-10.6h-.718-.718c-1.589 0-3.134.022-4.68.043v21.14h7.226 3.613 10.121l9.142 40.463 2.808 13.495 2.873-13.43 9.338-40.528h13.321l-16.738 67.45c3.744-1.262 7.03-3.091 9.664-5.703 17.09-17.11 19.72-63.883 11.275-72.33"/><path d="m68.799 46.738v.979h-10.839v29.798c0 6.443.152 10.186.479 11.209.653 1.85 1.981 2.764 3.961 2.764 1.502 0 3.461.043 6.421-.392v11.384c4.723.043 9.403.065 13.887-.152l-13.908-55.59z"/></g></svg>