<svg xmlns="http://www.w3.org/2000/svg" height="258.29" width="600" viewBox="0 0 158.75 68.340252"><g transform="translate(69.55-210.52)"><g fill-rule="evenodd"><path d="m-30.497 210.52h76.05v36.73h-76.05z" fill="#b5a132"/><g fill="#fff"><path d="m0 0v.386h-1.546v-.386h.559v-1.603h.426v1.603z" transform="matrix(7.7037 0 0-7.7037-5.05 224.3)"/><path d="m0 0l-.929 2.081h.452l.459-1.044.018-.067.015.067.46 1.044h.452z" transform="matrix(7.7037 0 0-7.7037 7.503 237.17)"/><path d="m0 0v-1.989h.401v.609l.092-.008c.544 0 .81.359.81.701 0 .344-.259.687-.777.687zm.401-.386h.15c.226-.008.343-.082.36-.318-.017-.226-.151-.299-.385-.307h-.125z" transform="matrix(7.7037 0 0-7.7037 21.15 221.33)"/><path d="m-1.131 217.6h17.248v22.6h-17.248zm18.542 0h17.249v22.6h-17.249zm-37.02 0h17.264v22.6h-17.264zm-1.294-1.16h56.776v24.84h-56.776z"/></g></g><g fill="#b5a132"><path d="m0 0v1.232h-1.033v-1.232h-.791v2.917h.791v-1.11h1.033v1.11h.791v-2.917z" transform="matrix(7.7037 0 0-7.7037-55.5 278.17)"/><path d="m-44.12 255.7h6.125v22.47h-6.125z"/><path d="m0 0c-.302 0-.646.06-.918.158.003.026.148.55.158.575.248-.105.557-.171.835-.171.238 0 .506.068.506.313 0 .497-1.48.185-1.48 1.214 0 .651.661.925 1.336.925.278 0 .627-.072.881-.168l-.204-.532c-.219.09-.457.145-.701.145-.198 0-.437-.064-.437-.269 0-.477 1.481-.225 1.481-1.192 0-.718-.721-.998-1.457-.998" transform="matrix(7.7037 0 0-7.7037-26.811 278.53)"/><path d="m0 0h-.81v-2.344h-.791v2.344h-.811v.574h2.452z" transform="matrix(7.7037 0 0-7.7037 4.868 260.12)"/><path d="m0 0c-.498 0-.701-.417-.701-.915 0-.546.149-.959.701-.959.491 0 .706.36.706.932 0 .546-.149.942-.706.942m-.03-2.45c-1.039 0-1.531.598-1.531 1.466 0 .908.626 1.559 1.606 1.559 1.029 0 1.52-.621 1.52-1.452 0-.866-.515-1.573-1.595-1.573" transform="matrix(7.7037 0 0-7.7037 17.699 259.72)"/><path d="m0 0h-.243v-.716c.045-.003.154-.003.233-.003.284 0 .513.102.513.374 0 .243-.165.345-.503.345m.677-2.454c-.07.103-.339.665-.542.975-.055.086-.12.158-.185.201-.068.047-.158.06-.193.06v-1.147h-.79v2.917h1.048c.83 0 1.332-.272 1.332-.849 0-.405-.308-.713-.69-.803.103-.072.214-.157.313-.317.08-.126.503-.808.531-.854-.273-.061-.552-.124-.824-.183" transform="matrix(7.7037 0 0-7.7037 41.52 259.95)"/><path d="m56.42 255.7h6.124v22.47h-6.124z"/><path d="m0 0c-.104-.354-.224-.707-.338-1.057h.666c-.113.355-.213.703-.328 1.057m.716-2.17c-.069.198-.133.389-.203.584h-1.035c-.07-.195-.139-.386-.209-.584h-.8c.367.967.746 1.945 1.119 2.917h.875c.373-.972.746-1.95 1.118-2.917z" transform="matrix(7.7037 0 0-7.7037 77.02 261.46)"/></g></g></svg>