<svg xmlns="http://www.w3.org/2000/svg" height="280.08" width="600" viewBox="0 0 158.75 74.105638"><g transform="translate(173.11-103.3)"><path d="m-129.78 103.3h70.16v34.08h-70.16z" fill-rule="evenodd" fill="#ec008c"/><g fill="#fff"><path d="m-102.56 109.76h15.724v20.65h-15.724zm16.874 0h15.728v20.65h-15.728zm3.4 3.4v14.07h2.847v-4.29l.614.02c3.842 0 5.726-2.5 5.726-4.96 0-2.43-1.83-4.84-5.458-4.84zm2.847 2.73h1.022c1.63.02 2.439.57 2.559 2.19-.1 1.68-1.056 2.21-2.693 2.24h-.888zm-15.261 11.76l-6.51-14.66h3.156l3.241 7.42.113.44.114-.45 3.234-7.41h3.167zm-11.43-11.76v-2.72h-10.9v2.72h3.94v11.34h3.02v-11.34zm-13.31-6.13h15.73v20.65h-15.73zm-1.15-1.01h51.781v22.69h-51.781z" fill-rule="evenodd"/><path d="m0 0c-.046.042-.119.05-.161.104-.041.054-.078.124-.116.183-.05.078-.093.148-.151.208-.013.02-.025.041-.038.063l.013-.008c-.178.257-.296.414-.453.565.0001.051-.154.205-.189.271l.007-.004c-.071.066-.126.148-.18.229l-.022.033c.012.019.024.038.034.057-.002-.007.005-.017-.02-.051.075.111.176.263.201.258.184.261.456.615.548.801l-.003-.015c.049.109.086.124.153.237.007.004.013.0001.013.008.019.039.049.086.083.133.013.007.025.015.035.024.028.025.054.061.077.09.029.036.059.074.089.113.017.014.033.029.047.046.023.029.027.046.035.07.018.029.035.058.05.088.003.004.006.008.008.012.009-.041.006-.03 0 0 .002.003.005.007.007.0001.019.037.06.102.041.141-.005.003-.0001.005-.016.004 0 .016-.009.03-.011.045-.013.008-.03.013-.043.016-.006-.003-.012-.008-.018-.012-.005.009-.005.013-.007.024-.007-.003-.022-.006-.032-.011.002.018-.004.039 0 .058-.009-.0001-.026-.016-.034-.025 0 .014-.008.023-.0001.033-.023-.008-.044-.014-.064-.021 0 .018-.003.035-.003.048-.0001 0-.022.003-.033 0 .007.022.012.044.014.067-.022-.017-.046-.034-.071-.045-.007.006-.013.012-.02.018 0 0-.003-.002-.005-.003 0 .011-.003.021 0 .03-.033-.015-.074-.035-.108-.053l-.003-.019c-.017-.0001-.031-.021-.037-.034v-.003l-.009-.013-.031-.058c-.0001-.019-.02-.039-.029-.06-.041-.037-.085-.073-.114-.12-.025-.042-.023-.09-.044-.132-.006-.012-.013-.022-.022-.032-.002 0-.004-.003-.007-.008-.008-.008-.017-.015-.026-.022 0 .016.023.043-.004.03-.015-.024-.03-.045-.046-.065-.005-.003-.011-.007-.016-.0001l.003-.006c-.05-.059-.104-.109-.16-.203l-.018.005c-.094-.18-.243-.291-.299-.417-.112-.174-.123-.081-.225-.274l-.068-.054c-.058-.072-.017-.07-.087-.146-.008.014-.086-.097-.062-.041-.023-.026-.045-.054-.067-.082-.004.024-.006.053-.008.081.028.086.0001.182 0 .274 0 .014-.002.029-.004.044.003.032.008.036.018-.031.002-.015.002-.041-.003-.039l.017-.021c.031.174-.017.316-.013.489-.005-.051-.004-.119-.015-.074l.002.16.014-.033.008.238-.017-.033c.009.117.038.158.014.29-.005.019-.008.014-.012.004.007.147.011.294 0 .441-.007-.009-.026-.018-.033-.027-.004.013-.015.021-.015.041-.013-.016-.026-.011-.045-.019-.043.069-.149.033-.244.012-.034-.002-.067-.004-.099-.006 0-.002.002-.003.003-.004-.019.002-.037.007-.05.018-.045-.043-.105-.0001-.149-.043s-.054-.113-.032-.164c.016-.175-.039-.062-.021-.262l-.012.018.036-.055c.033-.189-.035-.102.0001-.312-.002.083.038.039.031-.064l-.017.026c.004-.056.0001-.075.007-.113-.009.034-.024.018-.021-.065l-.02.055.03-.157c-.018-.121.004-.314-.019-.364 0 0-.011-.261.014-.321-.016.052-.022-.092-.04-.051.018-.067.032-.267.013-.347l-.002.015c-.019-.296.027-.507.003-.772.02.012.009-.128.034-.094.025-.275-.051-.501.027-.6.004-.125-.018-.149-.022-.213l-.004.03c.003-.117.005-.193.005-.261v-.101-.052c-.03-.067-.0001-.112.072-.114-.003-.013.004-.031 0-.044.017-.002.04-.003.064-.004.062-.003.135 0 .173.022.005-.035.203-.017.245.002.091.042.056.108.04.184 0 0 .002.003.003 0-.003.061-.006.077-.008.07 0 .028.003.061-.004.081 0 .079 0 .155.015.163-.006.292-.032.501-.041.744.013.027.024-.03.029-.1l-.005.172c.019 0 .011-.099.014-.152.03.205-.029.423-.002.664l-.006.019c.005-.005.009-.0001.013-.014.048-.053.099-.107.141-.153-.039.054-.019.043.003.024.037-.047.046-.084.079-.116v-.014c.018.003.112-.114.131-.125.008-.037-.068.064-.087.069.149-.188.075-.094.223-.281.091-.091.002.03.054-.006.073-.086.152-.164.221-.274l-.0001.044c0 0 0 0 .002-.002.059-.098.129-.187.201-.27.04-.045.064-.114.102-.165.038-.05.091-.084.126-.136.108-.159.233-.301.392-.401-.007.011-.009.022-.014.034.033-.014.066-.017.097-.038-.006.0001-.009.031-.019.044.048.005.098-.036.119.007.037-.024.096.018.121-.025.045.016.032.1.064.112-.033.064-.061.131-.095.195-.026.051-.044.129-.088.169" transform="matrix(6.6814 0 0-6.6814-156.93 172.84)"/><path d="m0 0v-.073c0-.089 0-.176.003-.255-.006-.002-.009-.014-.012-.034v-.006c-.007-.062 0-.186.003-.282 0 .041-.012.045-.015.052.027-.181-.028-.381.002-.569l-.003.007c-.013-.073.022-.292-.017-.326.032-.213.029-.407.013-.716l-.006.014c-.032-.268-.059-.456-.082-.58.04-.073-.006-.223.004-.289.005.002.007.009.012.0001 0-.064 0-.127 0-.191.006.015.015.03.02.046-.002-.051-.037-.098-.051-.146-.018-.057-.004-.128-.021-.179 0 .005.003.02.003.026-.008-.028-.036-.092-.057-.126-.006-.029-.014-.06-.023-.092-.08-.122-.15-.235-.332-.357l.046.005c-.122-.058-.226-.107-.341-.131-.059-.031.098-.004-.032-.047-.249-.027-.124-.018-.373-.019.016.011.147.006.111.023-.02-.009-.175-.004-.186-.018l-.003.018c-.048 0-.082.016-.143.029-.03 0-.055-.004.014-.02-.129.009-.322.061-.402.139-.108.084-.062.073-.078.111-.029.026-.077.064-.081.059l-.008.015-.044.037c-.119.236-.211.455-.201.671.005-.054.013-.156.032-.154-.012.058-.019.117-.025.176.0001-.072.029-.129.038-.099-.036.247-.049.455-.058.742.025.013.005.191.024.29-.004-.014-.007-.017-.009-.015-.002-.045-.007-.061-.012.035.002-.002.003 0 .004.002-.003.015-.005.032-.0001.042.0001.076.015.064.017.028 0 .057-.002.12.012.07.009.154-.027.168-.035.254.002.172 0 .239-.005.47l.004-.029c.004.064.026.087.022.21-.078.098 0 .322-.027.594-.025-.035-.014.104-.034.092.012.131.007.249 0 .37l-.002.046v.023.008c0 0 0 0 0 .002-.005.024 0 .052.004.075.002.007.023.008.025.017.002.0001-.0001.034-.009.037.006.022.005.056.03.071.014.007.053-.002.07 0 .046.006.09.029.134.034.048.006.123 0 .177-.003 0-.006 0-.011.002-.018.019 0 .038 0 .058 0 .021 0 .042 0 .063 0 .008-.026.018-.032.048-.028 0-.004.002-.007.003-.011.009 0 .011.008.019.014.003-.005.007-.013.013-.016.007.0001.027.016.035.024.004-.004.006-.017.008-.022 0 0 .014.008.012.009.005-.003.003 0 .009 0 .024-.076.009-.206-.0001-.3.004-.046.0001-.087.016-.112-.018.041-.024-.101-.04-.049.025-.06.014-.318.014-.318-.023-.049 0-.239-.019-.36l.03-.155-.02.055c.003-.082-.012-.098-.021-.065-.003-.037.003-.056.007-.112l-.017.026c-.007-.101.033-.145.03-.062.046-.208-.022-.122.011-.309l.036-.055-.012.019c.019-.208-.042-.075-.019-.284l-.017-.007c.004-.054.004-.107.023-.088-.005-.197-.023-.428-.035-.582.006-.122.015.046.029-.013.025-.13-.005-.17-.014-.286l.018.033c-.003-.078-.007-.16-.007-.23l-.015.03c0-.049.003-.098.008-.145.017-.038.006.02.009.067.008-.157.081-.263.121-.366h-.022c.005.002-.005.017-.013.024-.087.098.033-.091.039-.09.033-.012.13-.075.193-.056.253-.087.475.02.57.107-.017-.039.041.034.049.027.047.066.009.061.036.131.015.019.026.042.039.065-.004.195.05.127.041.327-.029.132.024.308-.007.507l.017.006c-.015.152.018.231.007.354.018.033.0001-.03.031-.026-.015.126.037-.032.017.052.021.176-.071.351-.066.52-.027.182.041.339 0 .371l-.003-.093-.004.25.015.006c-.0001.102.011.343-.014.469 0-.002.003.007.006.014-.013.129.008.163-.016.278l.006-.013c-.009.05-.015.116-.019.19l-.002.031c-.028.042.02.141.036.177 0-.002.011-.015.014-.024 0 .005.002.018 0 .023.024.014.046.031.068.047.076-.04.223.041.293.027.016-.006.013-.009.035-.005.018-.019.039-.009.058.012.007-.013.019-.016.024-.03.008.002.017 0 .025.005 0-.015.009-.038.008-.049l.009.006c.007-.023.012-.046.015-.07.007-.007.014-.013.021-.019.008.009.015.019.017.025 0-.013-.002-.026-.002-.039z" transform="matrix(6.6814 0 0-6.6814-134.07 147.49)"/><path d="m0 0l.002-.02.002-.039c0-.026-.002-.053-.0001-.081l-.009.007c.004-.075.008-.154-.002-.229-.038-.197.016-.351-.006-.501-.014.039-.011-.048-.025-.045-.012-.066.02-.049.017-.108l-.023-.055c.033-.139-.031-.095-.017-.229.029-.086-.024-.201.007-.331l-.017-.004c.015-.099-.018-.151-.008-.232-.017-.021-.009.02-.031.018.015-.082-.036.021-.016-.034-.021-.115.071-.229.066-.34.027-.119-.041-.221 0-.242l.003.061.003-.164-.015-.004c.011-.066-.0001-.224.015-.306-.002 0-.003-.005-.006-.0001.012-.084-.009-.106.016-.181l-.006.009c.034-.125.027-.387.031-.59.106.008.219-.031.327-.005l-.005-.003c.047-.013.191.023.213-.017.1.023.194.028.313.023l.007.017c.042.002.176.076.191.007.067.016.13.045.196.06.017-.034.086-.041.124-.047.056-.008.149-.007.197.02 0-.004.002-.009.002-.013.006.008.018.018.025.026 0-.016.0001-.035.009-.053.034.025.128.07.123-.02.024.009.036.028.035.053.083-.107.067-.361.045-.489-.045-.042-.076-.063-.142-.07-.074-.007-.167-.013-.237.006-.012.003-.018.005-.021.007-.026-.004-.052-.008-.08-.013-.092.02-.174.022-.311.007l.027-.019c-.084.013-.155-.002-.227-.006-.04-.019.057-.023-.025-.039-.154-.002-.077 0-.231-.004.009.013.091.0001.069.026-.013-.008-.11-.0001-.116-.026l-.002.017c-.03-.007-.052.009-.091.009-.018-.006-.032-.015.011-.017-.08-.009-.192-.032-.253-.017-.077 0-.054.02-.076.036-.023-.002-.058-.013-.057-.02l-.009.002-.033-.015c-.155.027-.296-.032-.429-.002.035.004.098-.004.099.014l-.112-.004c.046.005.083.016.065.028l-.115-.009-.014-.002h-.006l-.079.079v.007l-.003.028-.006.057c-.008.077-.016.158-.019.252.025.008.005.125.023.19-.004-.009-.006-.012-.009-.0001-.002-.029-.006-.04-.011.023 0 0 .002 0 .003 0-.002.0001-.005.021-.009.028.009.049.015.042.017.018 0 .037-.003.078.012.046.009.1-.028.109-.035.165.002.113 0 .157-.006.308l.005-.019c.004.041.026.056.022.137-.078.064-.002.21-.027.388-.025-.023-.014.068-.034.06.024.172-.022.307-.003.499h.002c.019.052.004.181-.013.224.018-.026.024.067.04.033-.025.039-.014.207-.014.207.023.033 0 .157.019.235l-.031.102.021-.036c-.003.054.012.064.021.042.003.025-.004.037-.007.073l.016-.016c.008.066-.033.094-.03.04-.046.136.023.08-.0001.202l-.024.024c-.019.135.042.049.019.185l.017.004c-.004.036-.004.07-.023.059.005.128.023.279.035.38-.006.079-.015-.031-.029.008-.013.042-.011.07-.006.097l.0001.041.003.0001v.002c.002.053.009.105.033.151.002-.009.012-.022.014-.03.0001.008.0001.015.015.025 0 .003.007-.008.007-.008 0 .011.006.029.006.042.087.009.167.021.249.021.079 0 .129.016.199.02.006-.002.02-.008.034-.011.003-.022.013-.041.016-.063.005 0 .014 0 .018 0 .007.025.016.048.031.069.0001-.039.005-.084.005-.125.003.039.019.069.042.101.012-.044.007-.093.002-.142z" transform="matrix(6.6814 0 0-6.6814-119.12 148.77)"/><path d="m0 0h.003.021.044c.118.002.246 0 .353.004.007-.023.129-.014.218-.009-.028 0-.03-.011-.035-.014.122.027.257-.029.385 0l-.005-.003c.049-.013.198.023.22-.017.144.033.276.029.484.014l-.009-.007c.032-.005.062-.011.091-.016.095.028.255.068.264.055.027.012.061.021.087.024 0-.013.003-.027.002-.04.078.028.144-.056.235.016.109-.082.147-.352.089-.471-.041-.085-.113-.09-.179-.075-.046.0001-.095.021-.145.032-.035-.006-.071-.012-.111-.018-.095.02-.18.022-.322.007l.028-.019c-.087.013-.16-.002-.235-.006-.039-.018.052-.023-.017-.038v-.056c-.006.005-.009.034-.012.055-.003 0-.006 0-.009 0 .005-.032.009-.098.021-.102l-.016-.003c.007-.031-.009-.054-.009-.094.006-.019.015-.033.017.011.009-.082.032-.198.017-.261 0-.08-.02-.056-.036-.078.002-.024.013-.06.02-.06h-.002l.015-.033c-.027-.161.032-.307.002-.444-.004.036.004.101-.014.102l.004-.115c-.005.047-.016.085-.028.066.009-.162.035-.302.04-.497-.024-.008-.004-.129-.023-.196.004.009.007.012.009.0001.002.031.006.042.011-.023 0 0-.002 0-.003-.002.002-.0001.005-.021.009-.028-.009-.051-.015-.044-.017-.019 0-.039.003-.081-.012-.048-.008-.104.028-.113.035-.171 0-.116 0-.161.006-.318l-.004.02c-.004-.043-.027-.059-.023-.142.078-.067.002-.218.027-.402.025.024.015-.07.034-.062-.023-.178.023-.318.003-.516h-.002c-.019-.054-.004-.187.014-.232-.005.006-.009.006-.012 0-.285-.315-.079-.087-.143-.157h-.002l-.006.002-.012.003c-.017.004-.032.008-.016.017-.037-.029-.212-.035-.212-.035-.018.009-.058.005-.104 0l-.018-.002h-.008c-.066.06.147-.133-.148.134v.045c0 .024.003.048.007.068l-.03.105.021-.037c-.003.056.012.066.021.044.003.025-.004.037-.007.075l.016-.017c.008.068-.033.098-.03.042-.046.14.023.082-.011.209l-.035.037.012-.013c-.019.14.042.051.018.192l.017.005c-.004.036-.003.072-.023.06.006.133.024.289.035.393-.005.083-.015-.031-.028.009-.025.088.004.115.013.193l-.017-.022.008.159.014-.022.003.107c-.012.031-.011-.015-.016-.049.005.115-.044.21-.013.326l.017-.014c-.005.002-.005-.016-.003-.026.027-.115.016.085.029.091-.022.033-.005.136-.033.18.038.204-.016.363.006.518.014-.04.011.051.026.047.011.068-.021.05-.017.112l.022.056c-.033.145.032.099.018.237-.03.09.023.209-.008.343l.017.004c-.014.103.018.157.008.24.017.022.009-.02.031-.018-.015.085.036-.022.017.035 0 .009.002.018.002.027h-.005c-.029-.005-.059-.015-.088-.025-.059-.02-.117-.041-.175-.039-.039-.008-.077-.007-.111-.003-.137-.021-.264-.006-.407-.006-.027 0-.136-.0001-.218.003-.055.009-.097.028-.096.067-.009.003-.025.006-.033.012-.008.116.004.196.031.29v.003c0 .025.002.052.003.08v.0001.006c.012.011.023.02.033.029.02.07.043.164.086.093z" transform="matrix(6.6814 0 0-6.6814-102.61 147.04)"/><path d="m0 0c0 .054-.008.078-.024.113l-.015-.003c-.004.009 0 .017-.004.026-.002.003-.0001-.008-.014-.008 0 .069-.19.076-.246.065 0 .012-.005.03-.004.043-.047-.053-.12-.091-.166-.16h-.003c-.006.046-.006.099-.028.135-.017-.034-.04-.055-.071-.048-.034-.051-.035-.115-.027-.177-.029-.032-.05-.055-.041-.046v-.004l.003-.058c.004-.074.0001-.14.019-.191l-.006.014c.025-.115.004-.149.016-.278-.003-.007-.004-.016-.006-.015.025-.125.004-.366.014-.468l-.015-.006.004-.25.003.093c.042-.032-.026-.189 0-.371-.005-.169.087-.344.066-.52.02-.084-.031.074-.017-.052-.021-.004-.013.059-.031.026.011-.123-.022-.202-.007-.354l-.017-.006c.031-.199-.022-.375.007-.507.009-.2-.045-.132-.041-.328-.013-.022-.024-.045-.039-.064-.027-.07.011-.065-.036-.131-.007.007-.066-.066-.049-.027-.095-.087-.317-.194-.57-.107-.063-.019-.16.044-.193.055-.006 0-.126.189-.038.091.007-.007.017-.022.013-.024h.021c-.04.102-.113.209-.121.366-.003-.047.008-.106-.009-.067-.005.047-.008.096-.007.145l.014-.03c0 .07.004.152.007.23l-.018-.033c.009.116.039.156.014.286-.014.059-.023-.109-.029.013.012.154.03.385.035.581-.019-.018-.019.035-.023.089l.017.007c-.023.208.038.076.019.283l-.024.037c-.033.187.036.101-.0001.308.003-.082-.038-.038-.03.063l.016-.026c-.003.056-.0001.075-.007.112.009-.033.024-.017.021.065l.021-.055-.03.155c.017.12-.005.311.018.36 0 0 .011.258-.014.317.016-.052.022.091.04.05-.009.034-.017.1-.02.168l-.002.04c.002.019.002.038 0 .058v.034c-.002.057-.012.076-.033.122-.005-.006-.029-.019-.034-.025-.004.007-.009.02-.013.025 0 0-.026.002-.024 0-.003-.022-.0001-.036-.019-.045-.031.028-.052.047-.041.038-.031-.002-.058-.002-.079 0l.015.004c-.02 0-.039-.002-.058-.003-.019.007-.038.011-.054.008-.007.017-.021.022-.028.033-.016-.021-.048-.032-.065-.05-.007.005-.011.013-.0001.023-.042-.003-.08-.032-.116-.051-.002.0001-.009.027-.0001.035-.013-.011-.02-.016-.027-.033-.006.004-.004.017-.017.014-.052-.047-.062-.042-.054-.095-.091-.101.032-.016-.019-.073v-.008-.023l.003-.046c.006-.121.011-.239 0-.37.019.012.008-.127.034-.093.025-.271-.052-.495.026-.593.005-.123-.018-.146-.022-.21l-.004.029c.006-.231.007-.299.005-.471.008-.085.044-.099.035-.253-.014.05-.011-.013-.011-.07-.003.036-.008.048-.018-.028.005-.0001.008-.027.0001-.042 0 0-.002-.004-.004-.002.005-.096.0001-.08.012-.035.002-.002.005 0 .009.015-.019-.099 0-.278-.024-.29.009-.287.022-.495.058-.742-.009-.03-.028.027-.037.099.005-.059.013-.118.024-.176-.018-.002-.026.1-.032.154-.0001-.216.082-.435.201-.671l.045-.037.007-.015c.004.004.052-.033.081-.059.016-.038-.03-.027.078-.111.08-.078.273-.13.402-.139-.069.016-.044.02-.014.02.061-.013.095-.03.143-.029l.004-.018c.0001.014.165.009.186.018.035-.017-.096-.012-.112-.023.249 0 .124-.008.373.019.13.043-.027.016.033.047.114.024.218.073.34.131l-.046-.005c.182.122.252.235.332.357.037.131.055.242.061.336.021.122.032.259.032.411v.093c.028.112.062.326.103.681l.006-.014c.016.309.019.503-.013.716.039.033.004.253.017.326l.003-.007c-.03.188.025.387-.002.569.003-.007.014-.011.015-.053-.005.133-.014.313.009.323-.002.077-.002.161-.002.247.003.026.004.052.004.077z" transform="matrix(6.6814 0 0-6.6814-62.828 148.81)"/></g><path d="m0 0c-.031.014-.058.016-.093.014.016-.076-.054-.045-.065-.09-.008-.027 0-.058.017-.078-.004-.005-.006-.007-.008-.009v-.008l.005-.074c.006-.101.0001-.208-.009-.33.004-.007.007-.017.0001-.027.024 0 .049 0 .074-.005-.039-.014.049-.011.044-.025.067-.012.05.02.109.017l.055-.023c.139.033.095-.031.229-.018.044.016.096.009.153.003 0 .007 0 .014.002.02.057 0 .103-.044.124.021.033.004.038-.018.055-.022l-.008-.004c.061.006.078.005.122.002.022.007.028.044.066.032-.013-.013.003-.012.017-.013-.009 0-.012-.006.006-.017.003.004.007.006.011.008v-.003c.024.003.02.008.009.011 0 .002 0 .005-.003.009.024-.02.067-.007.067-.031.075-.005.121.0001.179-.002 0-.015-.014-.019-.031-.02.013 0 .024-.006.036-.0001-.008-.017-.022 0-.035 0 .028-.042.094-.011.121-.067l.018.004v-.004c.005.005.021.005.029 0-.005-.017-.026-.027-.005-.044.004-.025.045-.039.07-.056-.007.014.003.015.012.014.008-.012 0-.028.011-.033l-.017-.013c.014.016.038-.017.049-.017-.0001-.015-.024.0001-.036.007.032-.044.014-.023.042-.07.028-.02.016.014.039.009.017-.023.037-.045.037-.079l.014.016c.032-.046.035-.081.024-.119.018-.038.035-.07.05-.096.003-.031.004-.062.004-.095v-.025c-.03-.028-.068-.079-.119-.16l-.005.004c-.03-.068-.044-.104-.035-.16-.038.009-.027-.048-.049-.054l-.002.003c.004-.053-.066-.047-.075-.089 0 .004-.007.012 0 .018-.015-.022-.042-.05-.057-.031-.049-.04-.147-.062-.186-.108l.002.007c-.02-.031-.034-.011-.063-.029-.002.002-.004.003-.004.004-.026-.031-.09-.016-.114-.03l-.003.015c0 0 0 0-.002 0l.002-.026c.003 0 .007-.002.0001-.003l-.0001-.003v.006c-.012.004-.026.006-.042.007-.005-.008-.014-.005-.027 0-.034 0-.071-.006-.1-.013-.032-.025-.064-.068-.098-.053-.022-.02.02.031-.013.016-.002.022.015.014.007.031-.033-.0001-.054.023-.094.008l-.002.013h-.009c-.005 0-.009-.004-.014-.005l.006.005c-.038 0-.068.004-.068.004-.033.03-.157 0-.235.024l-.102-.04.036.028c-.054-.004-.064.016-.042.028-.025.004-.037-.005-.073-.0001l.016.022c-.066.0001-.094-.044-.04-.04-.109-.049-.095 0-.147 0-.005-.067-.0001-.134-.012-.198.02.015.019-.028.023-.071l-.017-.005c.024-.168-.037-.062-.018-.228l.023-.03c.034-.15-.035-.081.011-.248-.003.066.037.031.03-.05l-.016.021c.003-.045.0001-.06.007-.09-.009.027-.024.014-.022-.052l-.02.044.03-.124c-.017-.097.005-.25-.019-.29 0 0-.011-.207.015-.255-.016.042-.022-.072-.041-.04.018-.053.033-.212.014-.276l-.002.012c-.0001-.117-.003-.218.003-.315l.004-.073v-.036-.002l-.012-.002c-.007-.042-.014-.095-.062-.111-.021-.15.104-.054.168-.002l.077-.064c.011-.015.025-.026.053-.032.02-.005.045.027.074.026.016 0 .118-.035.142-.044.016.027.039.045.066.061.024-.035.101-.034.145-.033.005.052 0 .131-.019.194.004.005.009.0001.014.015v.008c.003.049.007.094.0001.135.007.083.006.147-.033.186-.004.1.018.118.023.169l.004-.023c-.007.186-.008.24-.006.378-.007.069-.043.08-.035.203.015-.04.012.011.012.057.002-.029.007-.038.017.022-.004.009-.007.022-.009.034 0 0 .002.003.003.002-.005.077-.009.064-.011.028-.003.002-.005 0-.009-.013.018.081-.002.224.023.233-.003.116-.011.216-.019.311l-.003.033.085.004c.022-.013-.023-.024-.081-.028l.139.003c0-.019-.08-.0001-.122-.013.163-.031.336.022.535.02-.008-.014-.02-.017.009-.085.015-.075.091-.193.137-.279-.019.049-.004.037.0001.018.019-.043.015-.074.036-.105h-.014c.017 0 .066-.109.079-.121-.004-.031-.041.062-.057.068.076-.173.038-.086.114-.26.055-.087.012.025.048-.013.039-.08.087-.155.115-.254l.005.037c.03-.056.054-.104.073-.148v-.005c.004-.175.062-.365.173-.502.059-.071.043-.077.064-.161.018-.07.028-.071.1-.075.093-.006.352.037.381.125-.025.005-.039.02-.064.021l-.005.014c.007.049.033.079.025.131-.0001.062-.062.083-.089.129-.029.049-.017.121-.04.169-.0001.021-.041.042-.05.058-.02.088-.047.2-.083.338v-.008c-.082.234-.14.379-.236.524.026.04-.076.189-.087.248l.005-.004c-.043.064-.068.138-.092.212-.009.03-.019.06-.03.089.011.006.022.012.032.017.049.028.084.054.095.046.259.158.427.566.4.742l.005-.013c-.005.102.009.128.005.239.003.006.005.014.006.013-.022.106-.025.314-.067.396l.013.0001c-.02.07-.05.136-.082.202l.03-.076c-.047.008-.038.165-.159.279-.087.13-.264.154-.377.24-.072.014.071.002-.033.033.006.022.053-.008.034.02-.103.033-.161.08-.292.089l-.002.018c-.169-.005-.311.053-.421.024-.167-.012-.111.051-.283.018l-.066.023c-.074.004-.053-.028-.134-.017.005.015-.103.012-.055.025-.046.006-.093.007-.14.006l-.028-.002c-.007.005-.014.009-.022.013z" fill="#ec008c" transform="matrix(6.6814 0 0-6.6814-52.08 145.57)"/><path d="m0 0c-.015.046-.04.067-.047.119-.003.016.016.034.0001.054-.009.03-.029.037-.04.065-.032.082-.025.184-.054.272 0 .02-.002.04-.004.06l.008-.007c-.006.04-.013.077-.02.112.0001.027 0 .008 0 .008-.028.142-.057.246-.109.352.032.032-.038.17-.038.221l.004-.004c-.06.118-.039.264-.095.378.004-.004.015-.004.023-.031-.027.086-.065.204-.045.217-.058.208-.12.504-.189.629l.009-.007c-.043.07-.028.098-.062.181.002.005.002.012.003.011-.044.078-.064.243-.091.308l.014.008-.045.165.013-.063c-.046.012-.006.132-.062.246-.023.115-.141.209-.151.331-.032.051.043-.042.008.038.021.008.023-.036.035-.0001-.028.072-.016.128-.042.21.006.009.011.018.012.029 0 .023-.011.051-.029.078-.026.043-.064.085-.081.112-.055 0-.127-.041-.171-.011-.054-.054-.124.004-.19-.004-.038-.005-.077-.023-.108-.027-.03-.004-.04.053-.092.005-.03-.029-.031-.06-.03-.098-.002-.002-.004-.003-.006-.005v-.011-.026l-.035-.05c-.019-.06.016-.05-.011-.115-.013.008-.032-.082-.035-.04-.059-.147-.044-.317-.13-.508.017-.051-.024-.148-.011-.185-.013-.003-.051-.202-.049-.083 0 .011.004.028.009.025l-.013.018c-.058-.107-.034-.212-.066-.324.014.032.023.077.027.045l-.028-.105-.008.025-.046-.155.022.017c-.027-.074-.062-.094-.059-.186.003-.043.04.067.026-.016-.037-.099-.091-.249-.128-.379.022.008.013-.027.008-.064h-.018c-.0001-.145-.048-.043-.063-.185l.017-.03c.002-.132-.051-.059-.04-.208.011.055.043.017.02-.048l-.012.02c-.006-.038-.002-.052-.011-.076-.004.025-.021.018-.031-.038l-.012.042.005-.111c-.037-.076-.046-.208-.076-.235 0 0-.053-.169-.038-.215-.007.039-.035-.055-.047-.023.007-.049-.011-.184-.042-.232v.0001c-.066-.19-.055-.339-.12-.508.009 0 .008-.015.007-.032-.008-.025-.011-.053-.013-.079 0-.011 0-.021 0-.031 0-.072-.011-.079.065-.102.011-.004.023-.006.035-.007.014-.021.023-.033.018-.026h.006l.064-.008c.041-.007.079-.016.113-.023.053-.0001.097-.015.132 0 .07-.018.149-.027.167.069.004.019.002.035-.002.049.005.013.0001.023.014.032.0001.018.02.031.027.052v-.021c.028.157.038.202.065.316.006.059-.028.076.004.177.006-.036.013.006.022.045-.003-.025 0-.034.021.014-.003.008-.003.02-.003.031 0 0 .002.002.004 0 .009.066.002.056-.006.026-.002.002-.006 0-.012-.008.033.062.041.186.067.188.009.049.016.095.023.138v.007c.019.026.036.053.039.071-.008-.003-.017-.004-.027-.004l.005.021c.006.0001.012.022.016.033.0001.032.032.092.028.121-.003-.0001-.006-.012-.011-.02 0 .005 0 .0001 0 .015l.008.037c.004.0001.007.02.009.031 0-.002-.002-.005-.003-.007l.067.299c-.005.024.0001.032.007.065.004 0 .006.003.007.002-.003.007-.003.015-.004.022.007.019.012.039.011.059.006.019.012.037.0001.05l.015-.002.014.068v-.024c-.038.019.039.045.024.101.017.044-.061.114-.029.157-.013.027.026-.028.02.0001.021-.004.009-.019.028-.015-.002.036.035.05.031.095l.017-.003c-.017.062.047.096.027.139 0 .059.058.026.04.092l.028.016c.009.024-.023.025-.006.05.014-.005.02.032.03.012.037.057 0 .134.057.207-.023.024.003.061-.014.08.012 0 .022.082.037.029 0-.004 0-.011-.006-.0001l.015-.009c.042.039.004.089.02.134-.009-.013-.012-.031-.02-.016l.013.042.011-.012.024.062-.019-.005c.017.029.048.033.033.075-.0001.019-.03-.025-.027.0001.012.022.027.049.042.079.005-.002.011-.004.019-.005.012-.032-.008-.044-.008-.062l-.006.007c.022-.061.027-.079.036-.127.013-.021.049-.016.051-.06-.017.0001-.011-.006-.007-.022-.004.0001-.0001.011-.015-.011.005-.002.009-.006.012-.0001h-.003c.011-.025.015-.019.014-.007.002 0 .004.002.007.006-.011-.031.02-.075-.003-.084.024-.077.063-.127.088-.19-.011-.0001-.026.002-.035.02l.016-.045c-.018-.004-.017.024-.024.037-.015-.062.056-.106.046-.177h.017v-.005c.007.002.021-.0001.025-.019-.013-.013-.035-.008-.027-.04-.009-.028.025-.07.042-.101-.002.019.008.015.015.009.005-.016-.009-.029 0-.04l-.021-.007c.019.012.032-.036.042-.04-.014-.013-.02.022-.032.023.017-.064.009-.032.026-.096.024-.03.018.011.04 0 .012-.029.034-.055.03-.093l.015.016c.029-.053.035-.088.025-.131.022-.033.041-.06.059-.083l.056-.231.031-.54c0-.004.002-.008.003-.011.004-.018.006-.027.009-.037.004-.02.009-.04.028-.118.035-.081.016.02.044-.017.021-.073.052-.142.059-.23l.012.031c.047-.136.063-.221.066-.319.022-.057.042-.107.061-.153 0-.003.002-.007.003-.011.013-.054-.004-.238.043-.266s.182.0001.229.017c.067.009.21-.013.235.057.009.026-.026.195-.036.226" transform="matrix(6.6814 0 0-6.6814-14.613 174.13)" fill="#fff"/></g></svg>