<svg xmlns="http://www.w3.org/2000/svg" width="390" height="212" viewBox="0 0 110.06666 59.831114" fill-rule="evenodd"><path fill="#fe000c" fill-rule="nonzero" d="m0 0h110.07v59.831h-110.07z"/><g fill="#fff"><path d="m45.38 8.177h19.304v25.336h-19.304v-25.336m20.713 0h19.304v25.336h-19.304v-25.336m4.175 4.171v17.264h3.496v-5.271l.754.024c4.708 0 7.02-3.054 7.02-6.082 0-2.979-2.239-5.935-6.699-5.935h-4.571m3.49 3.341h1.259c1.997.03 2.994.706 3.136 2.694-.124 2.062-1.292 2.718-3.303 2.752h-1.093v-5.446m-18.726 14.445l-7.993-17.992h3.881l3.973 9.1.139.541.14-.549 3.971-9.09h3.882l-7.994 17.992m-14.02-14.443v-3.34h-13.38v3.34h4.834v13.92h3.712v-13.92h4.834m-16.342-7.515h19.304v25.336h-19.304v-25.336m-1.41-1.253h63.55v27.841h-63.55v-27.841"/><g transform="translate(.033.031)" fill-rule="nonzero"><path d="m85.75 52.781l6.605-13.363h.198l6.462 13.362h-3.237l-.821-1.885h-5.257l-.839 1.885h-3.112m4.845-4.119h3.405l-1.681-4.061-1.724 4.061"/><path d="m79.85 39.822h3.095v12.959h-3.095z"/><path d="m67.17 52.781h-2.85v-13.381h.3l8.07 7.564v-7.142h2.85v13.448h-.27l-8.1-7.557z"/><path d="m47.937 46.3c0-.958.165-1.861.497-2.703.33-.845.818-1.589 1.461-2.239.607-.625 1.312-1.11 2.117-1.449.805-.339 1.647-.51 2.529-.51.87 0 1.712.171 2.526.51.812.339 1.532.827 2.157 1.461.626.635 1.101 1.376 1.431 2.221.327.848.491 1.751.491 2.709 0 .824-.113 1.593-.339 2.306-.229.714-.565 1.361-1.01 1.94-.626.839-1.4 1.492-2.322 1.956-.918.467-1.898.699-2.935.699-.876 0-1.715-.171-2.517-.51-.799-.339-1.51-.83-2.13-1.468-.638-.653-1.126-1.403-1.458-2.242-.333-.839-.5-1.733-.5-2.682m3.182 0c0 1.126.33 2.068.992 2.828.662.76 1.474 1.141 2.431 1.141.964 0 1.776-.378 2.435-1.135.659-.757.989-1.702.989-2.834 0-1.144-.326-2.096-.982-2.853-.656-.757-1.47-1.135-2.441-1.135-.97 0-1.785.381-2.441 1.141-.656.76-.983 1.709-.983 2.846"/><path d="m41.483 50h5.05v2.781h-8.142v-12.959h3.093z"/><path d="m22.01 46.3c0-.958.165-1.861.497-2.703.329-.845.818-1.589 1.461-2.239.607-.625 1.312-1.11 2.117-1.449.805-.339 1.647-.51 2.529-.51.869 0 1.712.171 2.526.51.812.339 1.532.827 2.157 1.461.626.635 1.101 1.376 1.431 2.221.327.848.491 1.751.491 2.709 0 .824-.113 1.593-.339 2.306-.229.714-.565 1.361-1.01 1.94-.626.839-1.4 1.492-2.322 1.956-.918.467-1.898.699-2.935.699-.876 0-1.715-.171-2.517-.51-.799-.339-1.51-.83-2.13-1.468-.638-.653-1.126-1.403-1.458-2.242-.332-.839-.5-1.733-.5-2.682m3.182 0c0 1.126.329 2.068.991 2.828.662.76 1.474 1.141 2.431 1.141.964 0 1.776-.378 2.434-1.135.659-.757.988-1.702.988-2.834 0-1.144-.326-2.096-.982-2.853-.656-.757-1.47-1.135-2.441-1.135-.97 0-1.785.381-2.441 1.141-.656.76-.982 1.709-.982 2.846"/><path d="m10.985 52.781v-12.96h3.335c1.031 0 1.843.073 2.434.22.592.143 1.129.394 1.605.744.476.351.848.787 1.117 1.315.268.525.403 1.086.403 1.681 0 1.303-.467 2.337-1.397 3.106-.934.772-2.197 1.156-3.795 1.156h-.375c-.101 0-.177 0-.232 0v4.738h-3.094m3.515-10.583h-.421v3.46h.561c.781 0 1.376-.15 1.788-.451.412-.302.616-.735.616-1.3 0-.592-.201-1.022-.607-1.297-.201-.131-.464-.232-.787-.305-.32-.07-.705-.107-1.15-.107"/></g></g></svg>