<svg xmlns="http://www.w3.org/2000/svg" viewBox="0 0 269.68244 191.14078" width="269.69"><g transform="matrix(.07701 0 0 .07701-.005 0)"><path fill="#fff" d="m220.94 146.3h3124.8v2135.8h-3124.8z"/><path fill="#00b760" d="m0 1241v-1241h1751 1751v1241 1241h-1751-1751v-1241m1638.1 693.55c32.33-5.897 59.2-21.268 76.15-43.554 6.795-8.935 15.207-26.497 18.442-38.5 2.502-9.284 2.695-11.432 2.7-30 .0001-18.976-.135-20.457-2.736-28.921-8.07-26.26-23.374-44.23-55.16-64.787-5.494-3.553-24.614-14.68-42.489-24.727s-33.913-19.332-35.64-20.633c-9.875-7.441-14.44-14.825-15.13-24.476-.432-6.04-.159-7.578 2.192-12.383 3.098-6.332 8.33-10.89 15.858-13.815 6.654-2.586 23.18-3.518 31.909-1.8 20.393 4.01 44.511 14.196 71.06 30.01l3.75 2.233v-41.564-41.564l-11.25-3.502c-34.659-10.788-62.989-15.531-84.7-14.179-47.994 2.987-82.51 22.626-98.77 56.2-6.081 12.556-8.27 21.465-8.948 36.41-1.754 38.665 15.726 70.09 52.928 95.16 4.82 3.248 22.37 13.593 39 22.987 41.24 23.297 49.37 29.328 54.962 40.773 1.774 3.63 2.24 6.333 2.255 13.08.016 7.573-.305 9.08-2.95 13.859-7.972 14.393-24.04 20.819-49.53 19.815-26-1.024-50.671-9.7-84.87-29.846-4.601-2.711-8.539-4.757-8.749-4.546-.351.351 4.772 72.964 6.169 87.45l.601 6.231 7.102 2.115c22.376 6.664 46.526 11.831 64.743 13.852 11.724 1.301 40.704.521 51.1-1.375zm653.6.901c21.307-2.789 36.29-7.421 56.801-17.559 17.16-8.484 29.47-17.16 43.8-30.874 27.36-26.19 44.764-57.68 52.2-94.46 13.9-68.71-5.86-136.92-52.38-180.8-33.539-31.639-76.3-48.761-121.75-48.752-17.654 0-28.596 1.344-44.886 5.499-36.654 9.349-69.54 30.744-93.8 61.02-22.22 27.733-35.424 59.887-39.775 96.84-1.7 14.433-.665 46.26 1.955 60.13 5.261 27.852 15.695 52.41 32.3 76.01 8.199 11.656 29.75 33.16 41.834 41.75 11.328 8.05 33.895 19.518 46.742 23.753 24.817 8.182 51.55 10.766 76.957 7.439zm-40.2-80.41c-11.629-2.525-26.734-9.972-35.974-17.735-26.999-22.684-40.07-57.22-37.31-98.59 3.061-45.862 30.982-83.15 70.28-93.85 11.275-3.072 31.544-3.061 43 .023 31.436 8.462 56.896 35.67 65.936 70.46 3.183 12.25 4.565 22.702 4.558 34.47-.027 43.636-21.07 81.56-54.687 98.53-15.411 7.782-38.2 10.513-55.808 6.689zm399.62-16.451c19.644-53.85 36.09-98.72 36.548-99.72.607-1.32 10.84 25.15 37.849 97.91l37.02 99.72 3.069.301 3.069.301 72.67-180.8c39.968-99.44 72.67-181.14 72.66-181.55 0-.412-17.668-.747-39.26-.744h-39.25l-33.442 93.97c-18.393 51.683-33.548 93.86-33.677 93.73-.129-.129-16.523-44.555-36.431-98.72s-36.646-99.05-37.2-99.74c-.55-.688-2.01-1.25-3.255-1.25s-2.702.563-3.249 1.25-17.14 45.46-36.872 99.5c-19.733 54.04-36.1 98.25-36.38 98.25-.275 0-15.784-42.07-34.465-93.5l-33.964-93.5h-42.799-42.799l1.353 3.25c.744 1.787 33.908 83.48 73.7 181.55l72.34 178.3 3.518-.299 3.518-.299 35.715-97.91zm-1982.1 17.9v-68.55l6.163.298 6.163.298 46.2 68 46.2 68 48.13.26c26.473.143 48.13.042 48.13-.224 0-.266-23.852-34.11-53-75.2l-53-74.72 7.755-4.067c28.31-14.844 46.31-36.595 53.945-65.17 2.316-8.672 2.647-11.878 2.723-26.372.075-14.294-.221-17.628-2.217-24.933-10.818-39.59-42.994-67.2-88.56-75.995-16.701-3.223-35.961-4.052-94.39-4.062h-55.25v175.5 175.5h40.5 40.5v-68.55m0-169.95v-48.5l10.25.026c20.736.052 38.553 2.776 49.5 7.568 7.319 3.203 15.404 11.137 18.596 18.25 5.03 11.203 5.259 29.09.541 41.74-1.673 4.486-3.8 7.493-8.798 12.435-12.5 12.3-28.24 16.9-57.81 16.9h-12.276v-48.5zm507.41 235.75c.995-4.798 12.586-69.72 12.587-70.5 0-.412-38.924-.75-86.5-.75s-86.5-.185-86.5-.411c0-.226 38.925-62.36 86.5-138.07 47.575-75.71 86.5-137.85 86.5-138.09 0-.234-62.775-.426-139.5-.426s-139.5.338-139.51.75c0 .412-2.928 16.686-6.5 36.16s-6.494 35.787-6.494 36.24c0 .457 35.08.946 77.963 1.087l77.963.256-86.55 137.5c-47.604 75.62-86.76 137.84-87.02 138.25-.259.412 66.35.75 148.01.75h148.48l.57-2.75zm276.6-34.4v-37h-68.5-68.5v-34.5-34.5h58 58v-36-36h-58-58v-31.5-31.5h67.5 67.5v-36.5-36.5h-108.5-108.5v175.5 175.5h109.5 109.5v-37m601.42 34.25c1.19-5.681 12.583-69.29 12.583-70.25 0-.664-29.28-1-86.5-1-47.575 0-86.5-.161-86.5-.358 0-.197 38.925-62.32 86.5-138.05 47.575-75.73 86.5-137.9 86.5-138.14 0-.246-62.775-.447-139.5-.447s-139.5.353-139.5.785-2.925 16.833-6.5 36.448-6.5 35.909-6.5 36.21c0 .3 35.09.661 77.979.802l77.979.256-83.06 132c-45.685 72.6-84.83 134.81-86.994 138.25l-3.931 6.25h148.44 148.44l.576-2.75zm260.6-420.4c13.475-18.796 26.21-36.557 28.3-39.469l3.805-5.294h-37.31-37.31l-19.742 39.5-19.742 39.5 28.748-.031 28.748-.031 24.5-34.17m370-663.76v-409h-934-934v409 409h934 934v-409m-1826-.5v-371.5h284 284v371.5 371.5h-284-284v-371.5m338 53.5v-204h72.01 72.01l-.259-49.75-.259-49.75-196.75-.252-196.75-.253v50 50h71 71v204 204h54 54v-204m272-53.5v-371.5h282 282v371.5 371.5h-282-282v-371.5m399 9.435c64.08-144.67 116.65-263.47 116.83-263.99.207-.588-21.2-.945-56.5-.942l-56.833.004-58.46 133.25c-37.17 84.73-59.02 135.7-59.992 140-.84 3.712-1.759 6.75-2.042 6.75s-1.205-3.038-2.047-6.75c-.97-4.276-22.956-55.58-59.992-139.99l-58.4-133.28-56.833-.008c-35.864-.005-56.71.346-56.5.952 1.401 4.03 233.45 527.02 233.83 527.02.275 0 52.925-118.37 117-263.05zm207-9.435v-371.5h284 284v371.5 371.5h-284-284v-371.5m227 180.46v-77h16.25c66.875-.043 119.67-18.214 157.22-54.12 21.17-20.242 36.12-43.882 45.01-71.17 15.03-46.18 9.222-100.41-15.11-141.01-30.991-51.7-85.19-81.938-155.37-86.69-7.975-.54-45.44-.988-83.25-.996l-68.75-.015v254 254h52 52v-77zm-2-251.38v-79.62l21.75.003c36.472.006 53.716 2.463 69.826 9.95 9.856 4.581 20.2 13.91 25.7 23.18 7.369 12.42 12.506 35.27 11.213 49.864-2.818 31.81-15.374 53.21-37.862 64.53-16.03 8.07-30.443 10.579-64.38 11.214l-26.25.491v-79.62"/></g></svg>