<svg xmlns="http://www.w3.org/2000/svg" height="288.13" width="600" viewBox="0 0 158.75 76.233802"><g transform="translate(-51.55 20.414)"><g fill-rule="evenodd"><path d="m83.54-20.414h89.65v43.556h-89.65v-43.556" fill="#00ab66"/><path d="m95.27-13.459h66.18v28.991h-66.18v-28.991m1.469 1.304h20.11v26.383h-20.11v-26.383m17.02 7.83v-3.483h-13.932v3.483h5.03v14.496h3.87v-14.496h5.03m14.6 15.04l-8.32-18.737h4.04l4.14 9.474.14.565.15-.57 4.14-9.469h4.03l-8.32 18.737m19.51-15.04h1.3c2.08.03 3.12.735 3.27 2.803-.13 2.148-1.35 2.828-3.44 2.868h-1.13v-5.671m-3.64-3.478v17.978h3.64v-5.492l.79.025c4.9 0 7.31-3.178 7.31-6.336 0-3.098-2.34-6.176-6.98-6.176h-4.76m-4.35-4.348h20.1v26.383h-20.1v-26.383m-21.57 0h20.11v26.383h-20.11v-26.383" fill="#fff"/></g><g fill="#00ab66"><path d="m59.7 43.28c0-.85-.279-1.459-.829-1.819-.545-.365-1.414-.545-2.598-.545h-.68v4.827h.88c2.148 0 3.227-.824 3.227-2.463m5.871 11.877h-4.751l-4.647-6.836h-.59v6.836h-4.04v-17.409h4.482c2.473 0 4.282.405 5.431 1.224 1.359.985 2.044 2.284 2.044 3.888 0 2.263-1.084 3.872-3.248 4.822l5.316 7.475z"/><path d="m78.09 55.16h-10.833v-17.413h10.728v3.602h-6.686v3.133h5.731v3.563h-5.731v3.448h6.791v3.667"/><path d="m95.93 53.961c-2.328 1.179-4.542 1.768-6.64 1.768-2.644 0-4.842-.874-6.591-2.633-1.759-1.754-2.633-3.962-2.633-6.621 0-2.693.884-4.916 2.653-6.685 1.769-1.764 4.02-2.643 6.736-2.643 2.058 0 3.922.564 5.616 1.699l-.445 4.352c-1.574-1.574-3.223-2.364-4.947-2.364-1.559 0-2.848.525-3.877 1.564-1.024 1.044-1.539 2.359-1.539 3.933 0 1.663.5 3.01 1.489 4.057s2.269 1.564 3.828 1.564c.704 0 1.454-.125 2.243-.37v-2.543h-3.298v-3.538h7.405v8.46"/><path d="m103.61 55.16h-4.162v-17.414h4.162v17.414"/><path d="m119.98 46.45c0-1.544-.44-2.828-1.33-3.847-.88-1.02-1.98-1.524-3.27-1.524s-2.38.504-3.27 1.524c-.88 1.019-1.33 2.303-1.33 3.847 0 1.529.45 2.803 1.33 3.817.89 1.02 1.98 1.529 3.27 1.529s2.39-.504 3.27-1.514c.89-1.014 1.33-2.288 1.33-3.832m4.28 0c0 2.199-.6 4.102-1.81 5.711-.86 1.134-1.91 2.01-3.14 2.633-1.24.625-2.56.935-3.93.935-2.44 0-4.54-.895-6.28-2.683-1.73-1.789-2.6-3.988-2.6-6.596 0-2.628.88-4.842 2.63-6.651 1.7-1.753 3.79-2.633 6.25-2.633s4.56.88 6.29 2.643c1.73 1.769 2.59 3.983 2.59 6.641"/><path d="m142.21 55.82h-.37l-10.87-10.164v9.499h-3.85v-17.988h.39l10.86 10.163v-9.588h3.84v18.08"/><path d="m154.79 49.61l-2.26-5.466-2.31 5.466h4.57m6.74 5.547h-4.35l-1.11-2.544h-7.06l-1.13 2.544h-4.18l8.88-17.943h.27l8.68 17.943"/><path d="m173.99 55.16h-10.94v-17.413h4.15v13.676h6.79v3.737"/><path d="m190.98 55.82h-.37l-10.88-10.164v9.499h-3.85v-17.988h.4l10.85 10.163v-9.588h3.85v18.08"/><path d="m203.55 49.61l-2.26-5.466-2.31 5.466h4.57m6.75 5.547h-4.36l-1.11-2.544h-7.06l-1.13 2.544h-4.18l8.88-17.943h.27l8.69 17.943"/></g></g></svg>