<svg xmlns="http://www.w3.org/2000/svg" width="618.6" height="314.51" viewBox="0 0 494.87998 251.60864"><path d="m137.63.002c81 .03 162.01-.04 243.02.03-.04 39.31-.04 78.61 0 117.91-81.01.07-162.02 0-243.03.04.05-39.33.04-78.65.001-117.98" fill="#ec008c"/><path d="m169.53 18.772c59.74.05 119.49.001 179.24.03-.1 26.13-.06 52.26-.02 78.39-59.74.06-119.48-.02-179.23.04.05-26.16.04-52.31.001-78.46" fill="#fff"/><g fill="#ec008c"><path d="m173.55 93.95c-.04-23.94-.06-47.87.001-71.8 18.07.04 36.15 0 54.22.02.02 23.92-.03 47.84.02 71.76-18.08 0-36.17-.04-54.25.02"/><path d="m231.8 22.15c18.08-.02 36.16.1 54.23-.06.75 4.45.4 8.96.45 13.44.02 19.45-.04 38.9.03 58.35-18.24.1-36.48 0-54.71.05-.001-23.92-.02-47.85 0-71.78"/><path d="m290.53 93.95c-.06-23.93-.07-47.87.001-71.81 18.07.06 36.13.001 54.2.03.001 23.92-.04 47.83.02 71.75-18.07.03-36.15-.04-54.23.03"/></g><g fill="#fff"><path d="m181.75 43.29c.02-3.09.02-6.18.001-9.28 12.62.03 25.24-.001 37.85.02-.001 3.07-.001 6.14.03 9.21-4.61.08-9.21.05-13.82.05-.04 13.2 0 26.4-.001 39.6-3.43 0-6.86 0-10.29.001.06-13.03-.11-26.05.09-39.08-4.57-.87-9.24-.47-13.86-.53"/><path d="m236.46 33.752c3.69-.001 7.38-.02 11.08-.001 3.56 8.59 7.88 16.89 10.84 25.72.24.19.72.57.96.76 3.05-9.02 7.68-17.41 10.99-26.34 3.76-.19 7.52-.15 11.29-.15-5.47 11.42-10.27 23.15-15.51 34.67-2.35 5.34-4.9 10.61-6.91 16.1-7.71-16.86-14.84-33.98-22.74-50.75"/><path d="m301.99 34.03c5.08.04 10.18-.17 15.26.08 6.59.4 13.22 4.39 15.5 10.78 2.88 6.99 0 15.71-6.36 19.73-4.28 2.84-9.52 3.61-14.56 3.4.05 4.96.05 9.93.02 14.89-3.29-.02-6.57-.02-9.85-.03 0-16.29.001-32.57-.001-48.85"/></g><g fill="#ec008c"><path d="m311.87 43.16c3.29.31 6.98-.04 9.84 1.92 3.47 2.95 3.56 9 0 11.95-2.82 2.14-6.54 1.92-9.88 1.99.05-5.29.02-10.57.04-15.86"/><path d="m381.56 140.02c.38-1.35 1.06-3.22 2.86-2.97 5.69-.15 11.38.04 17.08-.04-.79 5.57-3.03 10.79-4.57 16.17-7.2 22.46-13.95 45.06-21.14 67.53-6.37-.08-12.74 0-19.11-.06 8.37-26.85 16.65-53.73 24.88-80.63"/><path d="m87.12 194.84c-1.883-.008-3.771.114-5.656.406-11.662 1.525-22.606 8.294-28.906 18.281-7.8 11.637-8.737 27.45-2.625 40 8.25 17.938 30.7 28.07 49.44 21.22 19.588-6 32.425-28.23 27.12-48.16-3.704-18.06-21.17-31.673-39.37-31.75m-.031 19.406c3.69-.002 7.375.711 10.531 2.688 8.2 4.738 13.13 15.35 10.156 24.563-2.45 9.625-12.08 16.9-22.09 16-12.412-.025-22.694-12.669-20.531-24.844 1.1-8.225 7.5-15.344 15.375-17.719 2.123-.412 4.348-.687 6.563-.688" transform="scale(.8)"/><path d="m22.5 160.11c2.98-2.33 6.83-2.99 10.48-3.45 0 6.21.07 12.42-.06 18.64-4.14.19-8.83.21-12.02 3.27-2.3 1.87-3.15 4.89-3.1 7.75-.05 11.44-.03 22.88 0 34.32-5.93.06-11.87.02-17.8.04.04-21.3.02-42.59.001-63.88 5.61 0 11.22-.03 16.84.02-.06 3.71-.09 7.42.08 11.13 1.52-2.83 2.91-5.89 5.57-7.84"/><path d="m309.45 156.83c5.49-.08 10.98.02 16.47-.09 3.84 11.96 6.7 24.21 10.46 36.2 3.5-12.08 7.28-24.07 10.88-36.12 6.28-.04 12.56-.04 18.84 0-6.9 21.15-13.18 42.51-19.66 63.8-5.69.1-11.38.06-17.07.03-4.02-13.83-7.48-27.83-11.79-41.57-3.54 13.96-7.46 27.84-11.57 41.64-5.58-.08-11.16-.05-16.74-.04-5.18-16.31-9.72-32.83-15.16-49.06-1.63.07-3.25.2-4.86.4-1.46.49-1.76 2.22-2.41 3.42-7.64 19.18-15.15 38.42-22.78 57.6-2.15 5.56-5.44 10.93-10.49 14.29-9.54 6.68-23.59 5.37-31.89-2.78 2.34-4.09 4.62-8.22 6.81-12.38 3.25 2.39 6.8 5.32 11.14 4.56 5.92-.71 8.85-6.67 10.73-11.63.85-1.39-.06-2.84-.58-4.14-6.6-14.51-12.77-29.22-19.35-43.74-1.13-3.05-4.75-2.17-7.29-2.39.08-6.01.07-12.01.07-18.01 4.82.06 9.66-.28 14.47.16 4.67.9 6.11 5.95 7.63 9.77 4.28 11.35 9.51 22.37 13.15 33.95.28.05.85.14 1.14.18 3.09-11.91 8.02-23.25 11.74-34.97 1.15-3.98 3.31-8.8 8.11-9.02 9.69-.21 19.4-.08 29.1-.04 3.35 12.26 7.34 24.33 10.96 36.5 3.25-12.19 6.78-24.3 9.94-36.52"/><path d="m408.9 156.82c7.54-.35 15.11-.08 22.67-.09-8.16 9.69-15.72 19.87-23.89 29.53 2.13 5.38 4.5 10.66 6.61 16.05.73 1.46 1.14 3.46 2.88 4.07 2.32.22 4.66.13 7 .13-.07 4.73-.05 9.45-.04 14.17-5.91-.08-11.82.11-17.73-.05-3.17-.03-6.25-1.88-7.45-4.87-4.25-9.86-8.09-19.88-12.19-29.8 7.54-9.59 14.43-19.71 22.14-29.14"/><path d="m574.34 195.78c-3.06.038-6.1.491-9.03 1.344-17.925 4.4-31.438 22.18-30.438 40.688.337 18.6 15.15 35.31 33.375 38.5 11.125 2.813 22.625-2.425 30.375-10.313-.112 3.288-.163 6.556-.188 9.844 6.712-.012 13.413-.006 20.12.031.038-26.675.006-53.37.031-80.06-6.675.063-13.337.044-20 .031 0 3.525.044 7.06.094 10.594-5.953-7.209-15.16-10.77-24.344-10.656m.281 18.719c11.165-.208 21.926 9.32 21.938 20.75.875 9.863-6.06 19.4-15.5 22.06-12.6 4.288-27.725-6.169-27.688-19.594-1.225-10.762 7.294-21.07 17.781-22.844 1.152-.239 2.314-.354 3.469-.375" transform="scale(.8)"/><path d="m105.71 170.01c.001-4.41 0-8.83.05-13.24 15.67.07 31.34-.001 47.01.04 0 4.58-.02 9.17.03 13.75-8.87 12.04-17.29 24.41-26.33 36.32 8.79.58 17.68-.64 26.4.69-.14 4.36-.11 8.72-.09 13.08-15.68.06-31.36-.001-47.04.04-.03-4.21-.001-8.42-.04-12.63 9.1-12.17 17.96-24.53 27.26-36.56.08-.39.25-1.17.34-1.55-9.2.11-18.39.001-27.59.06"/><path d="m162.01 220.68c.03-21.3.001-42.59.001-63.89 5.67.001 11.34.001 17.02-.001-.001 3.6-.1 7.2.05 10.8 1.93-2.87 3.45-6.29 6.57-8.09 2.85-1.82 6.24-2.36 9.52-2.85-.02 6.22.1 12.44-.09 18.66-3.55.2-7.34.16-10.45 2.15-3.06 1.75-4.78 5.31-4.67 8.79-.05 11.48.001 22.96-.02 34.44-5.98-.001-11.96-.001-17.94 0"/></g></svg>