<svg xmlns="http://www.w3.org/2000/svg" height="245.98" width="600" viewBox="0 0 158.75 65.081959"><g transform="translate(-23.435-90.59)"><g fill="#6e0f6c"><path d="m100.78 136.88c1.32 0 2.4-1.07 2.4-2.4 0-1.32-1.08-2.4-2.4-2.4-1.327 0-2.399 1.08-2.399 2.4 0 1.33 1.072 2.4 2.399 2.4"/><path d="m54.994 141.53c.693-1.03 1.414-1.91 2.156-2.61.639-.62 1.19-1.06 1.653-1.33.318-.16.691-.29 1.118-.35.427-.07.781-.02 1.065.15.388.34.461 1.03.212 2.08-.178.61-.523 1.2-1.035 1.75-.521.56-1.148 1.08-1.893 1.55-.745.48-1.544.88-2.398 1.22-.851.34-1.669.58-2.45.72.357-1.09.881-2.15 1.572-3.18m36.904-4.69c-.479-.22-1-.32-1.596-.32h-.297c-.829.05-1.783.24-2.87.59-1.088.35-2.181.8-3.292 1.35-1.108.55-2.202 1.15-3.277 1.81-1.071.66-2.02 1.32-2.813 1.97-.296.26-.569.5-.808.73-.224.2-.463.48-.718.82l-.475.64v-.79c0-.41.012-.88.03-1.44s.058-1.13.112-1.71c.061-.58.121-1.14.2-1.67.073-.53.151-1.01.224-1.4.027-.15.039-.29.039-.42 0-.37-.1-.66-.293-.91-.291-.36-.612-.61-.966-.77-.221-.06-.427-.08-.624-.08-.242 0-.473.04-.697.11-.369.13-.636.42-.811.99-.149.46-.3.88-.451 1.28-.158.41-.346.82-.576 1.23-.094.16-.13.31-.13.45 0 .05.006.11.018.16.049.19.115.27.303.34l.197.07-.021.21c-.076.79-.137 1.7-.197 2.74-.055 1.04-.082 2.13-.082 3.28v3.01c-.166-.22-.372-.42-.633-.57-.372-.22-.845-.25-1.411-.08-.814.24-1.853.6-3.116 1.07-1.26.47-2.592.91-3.991 1.32-1.402.41-2.822.72-4.258.94-1.441.22-2.761.19-3.966-.08-.785-.13-1.369-.44-1.757-.94-.393-.49-.533-1.16-.43-2 1.242-.1 2.538-.4 3.888-.89 1.351-.49 2.611-1.11 3.78-1.85 1.171-.75 2.192-1.61 3.061-2.57.869-.97 1.463-2.01 1.784-3.12.142-.58.242-1.18.293-1.81.052-.62.025-1.22-.081-1.78s-.3-1.07-.585-1.54c-.285-.48-.693-.87-1.223-1.18-.461-.26-.96-.44-1.493-.5-.53-.07-1.072-.08-1.623-.03-.548.05-1.084.15-1.596.31-.515.15-.984.33-1.411.53-.394.17-.833.45-1.333.84-.496.39-.996.82-1.489 1.29-.5.48-1.036 1.07-1.624 1.78-.587.71-1.162 1.53-1.732 2.44-.566.91-1.09 1.93-1.571 3.05-.479 1.12-.824 2.32-1.036 3.6-.533 2.75.018 4.86 1.65 6.36.851.84 2.111 1.4 3.783 1.67 1.632.27 3.297.3 5 .08 1.702-.22 3.319-.56 4.845-.99 1.523-.44 2.925-.91 4.203-1.4 1.281-.49 2.326-.87 3.143-1.14.421-.13.73-.32.951-.57.009.34.022.67.034.98.033.85.248 1.44.599 1.82.379.41.76.58 1.205.58.461 0 .842-.16 1.19-.49.328-.31.546-.85.621-1.67.073-.62.17-1.22.282-1.78.118-.58.327-1.18.639-1.82.197-.43.53-.89.993-1.39.457-.5 1.01-1 1.656-1.5.788-.58 1.621-1.15 2.502-1.73.884-.58 1.777-1.1 2.683-1.55.896-.44 1.753-.82 2.561-1.14.809-.31 1.515-.51 2.129-.6.191-.06.385-.09.585-.09.151 0 .303.02.454.05.351.08.736.23 1.178.47.342.22.639.31.89.31.124 0 .239-.02.351-.07.364-.14.664-.43.903-.88h.003c.275-.49.412-1.04.412-1.66 0-.65-.227-1.16-.682-1.59-.312-.25-.76-.51-1.341-.76"/><path d="m164.97 141.19c.68-1.04 1.39-1.92 2.13-2.64.63-.62 1.17-1.07 1.62-1.34.32-.17.69-.29 1.11-.36.42-.06.76-.001 1.05.16.38.34.45 1.04.21 2.1-.18.62-.52 1.21-1.03 1.77-.5.57-1.12 1.1-1.86 1.57-.74.48-1.53.89-2.37 1.23-.83.35-1.64.59-2.41.73.35-1.1.86-2.17 1.55-3.22m16.99 8c-.17-.38-.45-.68-.81-.9-.37-.23-.83-.25-1.4-.09-.8.25-1.83.61-3.07 1.09s-2.56.92-3.94 1.33-2.78.73-4.2.95c-1.42.23-2.72.2-3.91-.07-.77-.14-1.35-.46-1.74-.95-.38-.5-.52-1.18-.42-2.03 1.23-.11 2.51-.41 3.84-.9 1.33-.5 2.57-1.13 3.73-1.88s2.16-1.62 3.02-2.59c.86-.98 1.44-2.03 1.76-3.16.14-.59.24-1.19.29-1.83.05-.63.02-1.23-.08-1.8-.11-.56-.3-1.08-.58-1.56s-.68-.87-1.21-1.19c-.45-.27-.94-.44-1.47-.51s-1.06-.08-1.6-.02c-.54.05-1.07.15-1.58.3-.51.16-.97.34-1.39.55-.38.16-.82.45-1.31.84-.49.4-.99.83-1.48 1.31-.48.48-1.02 1.08-1.59 1.8-.58.72-1.16 1.54-1.71 2.47-.56.92-1.08 1.95-1.55 3.08s-.82 2.35-1.03 3.65c-.02.1-.02.2-.04.3-.45.08-.93.2-1.46.37-1.02.32-2.07.69-3.13 1.11-1.07.41-2.08.8-3.05 1.16-.98.36-1.77.59-2.38.7-.97.18-1.69.15-2.13-.08-.45-.24-.77-.71-.95-1.43-.11-.4-.18-.89-.21-1.46-.04-.57-.14-.99.03-2.11.34-2.26 2.49-5.7 2.91-7 .41-1.29.82-2.33 1.22-3.13.25-.46.24-.89-.03-1.27s-.66-.66-1.16-.83c-.4-.15-.82-.2-1.27-.16-.45.03-.86.19-1.22.48-.28.29-.57.68-.86 1.16s-.5.89-.65 1.21c-.07.23-.11.44-.11.65 0 .22.11.37.32.44-.25.72-1.24 2.7-1.63 3.54-.61 1.3-1.39 3.1-1.66 5.07-.11.79-.1 1.35-.09 2.11-.14.06-.29.12-.44.18-.6.23-1.2.46-1.82.67-.61.22-1.22.41-1.83.57-.62.17-1.16.28-1.63.36-.62.03-1.11-.06-1.49-.27-.38-.22-.67-.64-.89-1.25-.18-.47-.3-1.02-.36-1.65-.05-.63-.06-1.31-.02-2.03 0-.61-.13-1.1-.38-1.46-.26-.36-.59-.59-1.03-.7-.43-.11-.93-.1-1.49.02-.55.13-1.11.36-1.65.68-.65.4-1.4.92-2.24 1.57-.85.65-1.71 1.33-2.57 2.03-.87.7-1.71 1.4-2.52 2.08-.81.69-1.49 1.26-2.03 1.74-.75.64-1.33.8-1.73.48-.29-.22-.4-.63-.32-1.24.07-.62.21-1.14.43-1.57.39-.83.93-1.69 1.6-2.57.66-.89 1.38-1.75 2.13-2.58.76-.82 1.55-1.59 2.36-2.29.81-.71 1.54-1.28 2.19-1.71 1.33-.9 2.5-1.43 3.49-1.6.99-.16 1.9.09 2.73.74.58.36 1.18.46 1.81.29.63-.16 1.09-.49 1.38-1 .22-.4.31-.83.28-1.3-.04-.47-.3-.9-.76-1.3-1.05-.86-2.09-1.37-3.14-1.51s-2.05-.1-3.01.14c-.95.23-1.84.59-2.67 1.08-.83.48-1.57.94-2.22 1.38-.76.5-1.59 1.12-2.49 1.86s-1.8 1.57-2.68 2.49c-.89.92-1.72 1.91-2.52 2.95-.79 1.05-1.46 2.11-2 3.19-.3.62-.56 1.26-.76 1.91h-.17c-.71 0-1.58.15-2.59.45s-2.04.64-3.08 1.02-2.04.73-2.99 1.06-1.72.54-2.3.64c-.42.07-.78.1-1.08.1-.4 0-.714-.06-.935-.17-.493-.24-.687-.15-.86-.75-.118-.4-.172-.32-.209-.84-.018-.27-.027-.31-.027-.36s.009-.13.027-.46c.07-1.07.306-2.2.709-3.38s.799-2.13 1.185-2.85c.12-.22.19-.44.19-.65 0-.23-.08-.45-.23-.65-.28-.37-.685-.64-1.2-.81-.327-.11-.669-.17-1.026-.17-.088 0-.182.001-.27.001-.463.04-.887.2-1.259.48-.303.28-.591.64-.879 1.09-.284.45-.496.83-.642 1.13-.078.22-.118.43-.118.65-.009.2.103.37.282.47-.233.63-.442 1.34-.624 2.12-.197.83-.33 1.68-.4 2.54-.057.48-.084.47-.084.87 0 .1.003.23.009.4.009.86.13.72.29 1.29.573 1.94 1.502 3.19 2.804 3.73.655.26 1.436.39 2.335.39.872 0 1.852-.12 2.952-.37.75-.16 1.62-.4 2.63-.72 1.01-.31 2-.63 2.97-.96s1.88-.62 2.75-.86c.58-.17 1.07-.29 1.49-.38.2.99.61 1.78 1.27 2.37.76.68 1.74 1 2.93.95 1.19-.06 2.47-.61 3.84-1.65.57-.47 1.19-1 1.84-1.57.65-.58 1.29-1.14 1.92-1.68.63-.55 1.23-1.04 1.78-1.49.56-.45 1.04-.8 1.44-1.06.29-.21.55-.29.78-.24.24.06.37.22.41.52 0 .5.1 1.08.3 1.72.2.66.42 1.14.67 1.47.62.94 1.35 1.57 2.2 1.89.84.32 2.06.42 3.65.27 1.33-.14 2.79-.49 4.35-1.05.72-.26 1.4-.53 2.05-.81.56 1.3 1.33 2.17 2.3 2.59 1.28.56 3.05.57 5.32.03.75-.18 1.64-.44 2.67-.79 1.03-.34 2.03-.69 3.02-1.05s1.93-.67 2.81-.94c.34-.11.64-.19.93-.26.3.73.75 1.37 1.34 1.93.84.85 2.09 1.42 3.73 1.7 1.61.27 3.26.3 4.94.07 1.68-.22 3.27-.55 4.78-1s2.89-.92 4.15-1.41c1.26-.5 2.29-.88 3.1-1.16.67-.2 1.08-.56 1.23-1.08.16-.51.11-.99-.13-1.43"/><path d="m43.626 136.52h.022c1.105.02 2.025-.85 2.053-1.96.024-1.11-.851-2.03-1.96-2.06h-.115c-.626 0-3.964.06-8.233 1.43-2.671.87-4.261 1.77-5.266 2.59-.739.6-1.151 1.19-1.36 1.62-.178.31-.345.75-.348 1.31-.006.68.272 1.38.702 1.93.655.83 1.596 1.51 3.138 2.27 1.547.76 3.721 1.59 6.889 2.52 1.187.33 1.947.71 2.283.95-.248.27-.763.69-1.457 1.07-2.619 1.53-7.64 2.87-10.665 2.84-.212 0-.412 0-.596-.001-.24-.02-.461-.03-.667-.05-.433-.64-1.217-1-2.025-.85-.04.001-.318.07-.682.17-.19.06-.39.12-.687.27-.142.08-.324.18-.572.41-.224.23-.633.71-.645 1.52-.006.67.354 1.24.626 1.49.494.46.791.51 1.066.61.779.23 1.645.32 3.352.44.279.001.555.02.83.02 3.04-.001 6.735-.84 9.875-2.06 1.572-.62 2.992-1.33 4.14-2.2.575-.44 1.093-.91 1.514-1.51.417-.59.763-1.35.763-2.24.012-1.3-.776-2.41-1.699-3.08-.939-.7-2.108-1.2-3.634-1.65-4.02-1.17-6.208-2.16-7.225-2.8-.042-.03-.079-.05-.112-.07.581-.42 1.69-1.04 3.697-1.68 3.713-1.2 6.662-1.25 6.998-1.24"/></g><path d="m67.08 124.24h71.46v-33.65h-71.46v33.65" fill="#6e106c"/><g fill="#fff"><path d="m127.74 117.99h-15.86v-20.802h15.86v20.802m-17.02 0h-15.863v-20.802h15.863v20.802m-17.01 0h-15.831v-20.802h15.831v20.802m-16.985 1.14h52.18v-23.11h-52.18v23.11"/><path d="m119.3 107.71h-.88v-4.43h1.02c1.62.04 2.43.58 2.55 2.19-.1 1.68-1.06 2.22-2.69 2.24m.37-7.13h-4.18v14.01h2.93v-4.28l.99.03c3.79 0 5.67-2.48 5.67-4.95 0-2.41-1.82-4.81-5.41-4.81m-16.56 7.76l-.12.43-.11-.43-3.181-7.76h-3.164l6.455 14.51 6.46-14.51h-3.16l-3.18 7.76zm-22.57-5.04h3.925v11.29h3.01v-11.29h3.927v-2.72h-10.865v2.72" fill-rule="evenodd"/></g></g></svg>