<svg xmlns="http://www.w3.org/2000/svg" width="500" height="297.5" viewBox="0 0 400 238"><path d="m0 0h400v238h-400v-238" fill="#00ab67"/><path d="m89.84 23.3c73.28-.11 146.56-.04 219.84-.04-.03 32.12 0 64.23-.001 96.35-73.28-.001-146.56.06-219.84-.04-.001-32.09-.02-64.18.001-96.27" fill="#fdffff"/><g fill="#00ab67"><path d="m94.76 27.54c22.28-.08 44.56-.02 66.84-.03-.02 29.24.07 58.48-.05 87.72-20.2.05-40.4-.04-60.6.04-2.09.001-4.17-.21-6.23-.48.1-29.08 0-58.17.04-87.25"/><path d="m166.58 27.52c22.21.001 44.42-.1 66.62.06.001 25.8-.001 51.6.001 77.4.11 3.44.001 6.89-.48 10.3-22.04-.1-44.08.001-66.12-.06-.08-29.23-.02-58.47-.03-87.7"/><path d="m238.23 27.49c22.16.03 44.31-.001 66.47.03-.04 29.23.04 58.46-.04 87.7-22.15.04-44.3.001-66.44.001-.13-9.41-.03-18.82-.07-28.23.03-12.66-.02-25.32.03-37.98.12-7.18-.57-14.35.05-21.53"/></g><g fill="#fdffff"><path d="m172.63 41.3c4.37-.04 8.73-.06 13.1.02 4.65 10.95 9.69 21.73 14.18 32.74 4.16-11.12 9.44-21.8 14.03-32.76 4.46-.05 8.92-.04 13.38.001-9.12 20.74-18.36 41.43-27.44 62.19-6.73-14.86-13.22-29.82-19.85-44.73-2.49-5.81-5.34-11.48-7.4-17.47"/><path d="m105.29 41.75c15.4-.02 30.8 0 46.2-.001.03 3.93.02 7.86.02 11.78-5.63.03-11.26.03-16.89.04-.03 16.03-.001 32.05-.001 48.08-4.28.02-8.55.03-12.82-.03 0-16.02.02-32.04-.001-48.06-5.5 0-11-.001-16.5-.001-.03-3.93-.04-7.86.001-11.79"/><path d="m252.43 101.64c.02-19.97-.05-39.93.03-59.89 8.08.35 16.39-.98 24.29 1.23 7.51 2.11 13.45 8.78 14.5 16.54 1.15 7.57-2.44 15.6-8.86 19.78-5.2 3.53-11.65 4.42-17.8 4.27 0 6.03-.001 12.05.001 18.08-4.06.001-8.12 0-12.17-.001"/></g><path d="m264.47 53.52c3.82.13 7.97-.46 11.44 1.51 5.43 3.6 4.91 13.48-1.21 16.12-3.21 1.43-6.8 1.16-10.22 1.27-.03-6.3-.03-12.6-.001-18.9" fill="#00ab67"/><g fill="#fdffff"><path d="m66.34 156.96c3.8 7.71 5.89 16.13 9.42 23.96 2.35-7.5 5.13-14.85 7.84-22.22 3.05.001 6.1.001 9.16.04-5.88 14.48-11.33 29.15-17.67 43.44-2.98-7.98-5.77-16.04-9-23.92-3.11 7.95-5.64 16.13-9.02 23.99-4.99-11.83-9.63-23.8-14.56-35.65-1.08-2.55-1.98-5.18-2.73-7.85 3.19-.05 6.38-.05 9.57-.04 2.68 7.39 5.66 14.69 7.88 22.23 3.49-7.81 5.98-16.02 9.11-23.98"/><path d="m85.27 200.28c7.28-14.36 13.95-29.04 21.6-43.21 6.91 14.42 13.86 28.82 20.82 43.22-3.41.001-6.83.02-10.25.07-.9-1.98-1.77-3.97-2.64-5.97-5.62-.21-11.25-.11-16.88-.09-.89 2-1.8 4-2.69 6.01-3.32 0-6.64 0-9.96-.03"/><path d="m258.36 157.13c5.13 9.25 9.27 19.02 14 28.48 2.31 4.87 4.89 9.61 6.78 14.67-3.31.03-6.62.03-9.94.06-.95-2.02-1.88-4.04-2.82-6.06-5.56-.001-11.11-.001-16.66 0-.9 2-1.8 4-2.68 6-3.32.03-6.64.03-9.95 0 6.99-14.43 14.15-28.78 21.27-43.15"/><path d="m290.07 180.82c3.18-7.95 5.83-16.1 8.98-24.06 3.33 7.95 6.11 16.12 9.06 24.22 2.89-7.39 5.11-15.04 8.27-22.33 2.91.04 5.81.06 8.72.1-5.23 14.65-11.42 28.95-17.19 43.39-3.32-7.93-6.2-16.04-9.07-24.15-3.14 8.02-5.93 16.16-8.96 24.22-6.42-14.28-11.98-28.94-17.81-43.47 3.32-.04 6.64-.04 9.96 0 2.65 7.37 5.34 14.73 8.04 22.08"/><path d="m339.16 157.07c7.39 14.2 14.16 28.72 20.96 43.21-3.4.03-6.8.03-10.2.02-.88-2.01-1.77-4.01-2.66-6.02-5.54-.001-11.08-.001-16.62 0-1 2.03-1.98 4.06-3 6.08-3.24-.05-6.48-.06-9.71-.08 6.98-14.45 14.22-28.78 21.23-43.21"/><path d="m172.96 159.95c5.75-4 13.24-2.59 19.39-.4-.02 3.17-.02 6.34-.04 9.52-4.49-2.33-9.91-5.39-14.82-2.28.28 1.47.03 3.28 1.35 4.32 4.75 3.76 11.16 5.4 14.84 10.48 4.1 5.93 1.43 15.05-4.99 18.17-5.97 3.16-13.07 1.79-19.18-.21-.13-3.58-.44-7.15-.87-10.7 5.18 2.56 11.28 5.51 16.93 2.43-.001-1.92.87-4.42-1.08-5.69-4.36-3.48-10.2-5-13.72-9.53-3.97-4.72-3.07-12.71 2.19-16.11"/><path d="m132.53 200.29c-.04-13.86-.05-27.72.001-41.57 7.36.32 15.23-1.16 22.13 2.07 5.71 2.82 7.72 10.29 5.02 15.86-1.31 2.72-3.94 4.39-6.31 6.08 4.29 5.77 8.32 11.72 12.52 17.55-3.75.03-7.5.02-11.25.05-4.22-5.58-7.52-11.85-12.2-17.08-.52 5.69.17 11.43-.63 17.1-3.1-.03-6.19-.04-9.29-.06"/><path d="m201.76 158.73c10.83-.001 21.67-.08 32.51.03-6.3 11.14-13.49 21.75-20.17 32.67 6.82.09 13.65.001 20.47.07-.53 2.97-1.13 5.92-1.87 8.85-11.57-.1-23.14.02-34.7-.08 6.78-10.94 13.67-21.82 20.51-32.73-6.13-.04-12.26-.001-18.39-.05.5-2.93 1.1-5.84 1.64-8.76"/></g><g fill="#00ab67"><path d="m142.25 166.23c3.07.28 6.87-.14 8.92 2.71.95 2.27 1.02 5.46-1.09 7.14-2.09 1.98-5.21 1.45-7.83 1.81-.04-3.89-.04-7.77 0-11.66"/><path d="m105.95 175.02c.25.14.75.42 1 .56 1.49 3.89 3.1 7.73 4.66 11.59-3.54.04-7.08.04-10.62-.02 1.48-4.11 3.22-8.13 4.96-12.13"/><path d="m258.03 174.3c1.83 4.23 3.71 8.45 5.11 12.85-3.44.07-6.87.06-10.31-.001 1.45-4.39 3.37-8.6 5.2-12.84"/><path d="m333.73 187.15c1.37-4.43 3.29-8.66 5.19-12.89 1.75 4.28 3.62 8.52 5.14 12.9-3.44.05-6.89.06-10.33-.001"/></g></svg>