<svg xmlns="http://www.w3.org/2000/svg" height="72.11" width="600" viewBox="0 0 158.75 19.08013"><g transform="translate(-90.71-214.13)"><g><path d="m102.58 218.63h-3.722v14.06h-4.489v-14.06h-3.655v-3.91h11.866z"/><path d="m120.83 214.72-7.35 17.97h-3.49l-7.26-17.97h4.88l4.16 10.93 4.2-10.93z"/><path d="m167.66 232.66h-5.71l-4.36-6.89v6.89h-4.59v-17.95h7.13c2.08 0 3.62.64 4.62 1.91.81 1.02 1.22 2.23 1.22 3.61 0 1.59-.47 2.86-1.4 3.8-.59.61-1.41 1.03-2.45 1.27zm-6.46-12.16c0-.64-.23-1.18-.68-1.62-.43-.41-1.13-.62-2.08-.62h-.85v4.49h.85c.96 0 1.65-.21 2.08-.62.45-.45.68-.99.68-1.63"/><path d="m179.62 232.66h-10.04v-17.95h10.04v3.91h-5.45v3.03h5.15v3.91h-5.15v3.19h5.45z"/><path d="m200.22 222.69c0 1.95-.22 3.54-.65 4.76-.65 1.87-1.73 3.31-3.24 4.32-1.45.96-3.18 1.44-5.17 1.44-3.23 0-5.72-1.12-7.45-3.36-1.31-1.7-1.96-3.73-1.96-6.09 0-2.61.77-4.81 2.3-6.59 1.74-2.02 4.17-3.04 7.28-3.04 2.09 0 3.85.55 5.3 1.63 1.03.77 1.91 1.91 2.65 3.42l-4.36 1.83c-.37-.84-.8-1.47-1.29-1.89-.7-.6-1.54-.9-2.52-.9-1.99 0-3.37 1.05-4.16 3.14-.29.78-.43 1.57-.43 2.4 0 1.71.52 3.13 1.58 4.27.79.85 1.83 1.28 3.14 1.28 1.16 0 2.09-.35 2.77-1.04.44-.46.74-1.13.87-2.03h-3.75v-3.55z"/><path d="m207.7 232.66h-4.59v-17.95h4.59z"/><path d="m229.03 232.66h-4.58l-8.44-10.99v10.99h-4.58v-17.95h4.58l8.44 10.98v-10.98h4.58z"/><path d="m249.46 232.66h-4.89l-1.14-3.13h-6.33l-1.21 3.13h-4.84l6.78-17.95h5zm-7.27-6.68-1.9-5.72-1.92 5.72z"/></g><path d="m135.99 214.63-4.46 7.72-8.34-3.04 3.9 10.72h17.79l3.9-10.72-8.34 3.04z" fill="#fffb00"/></g></svg>