<svg xmlns="http://www.w3.org/2000/svg" height="367.76" width="600" viewBox="0 0 158.75 97.303048"><g transform="translate(-103.77-193.21)"><path d="m262.52 193.21l-111.14 51.29 34.62-32.76 76.52-18.53" fill="#e9e8e6" mix-blend-mode="normal" solid-color="#000000" white-space="normal" shape-padding="0" color="#000" image-rendering="auto" color-rendering="auto" isolation="auto" shape-rendering="auto"/><path d="m103.77 290.51l158.75-97.3-111.14 51.29-47.61 46.01" fill="#c51d2f"/><g fill="#565656"><path d="m133.15 260.92s-2.16.17-2.45.26c-.3.1-.59.23-.88.39-.28.17-.53.36-.74.57-.21.22-.34.44-.38.69l-2.27 13.78-3.6-.02 2.82-17.17c.09-.59.31-1.81.31-1.81l3.28.02s-.07.39-.12.65c.46-.23.93-.41 1.43-.51.49-.1 3.13-.13 3.13-.13l-.53 3.28"/><path d="m146.08 273.14c-.06.45-.55 1.07-.83 1.39s-.55.59-.82.8c-.24.2-.49.39-.77.56s-.56.33-.85.47c-.3.13-.59.24-.88.32-.3.09-.57.12-.83.12h-1.62c-.82-.0001-1.56-.17-2.22-.48-.65-.32-1.2-.76-1.63-1.31-.44-.55-.74-1.19-.93-1.93-.18-.74-.2-1.54-.06-2.39l1.16-7.12c.14-.85.42-1.64.84-2.38.42-.73.94-1.37 1.56-1.92.61-.54 1.3-.97 2.06-1.28s1.55-.46 2.36-.46c.82 0 1.56.16 2.23.48.65.32 1.2.75 1.64 1.3.44.56.75 1.2.93 1.94s.21 1.53.07 2.37l-.61 3.73c-.09.57-.31 1.78-.31 1.78s-1.11-.0001-1.68-.0001l-6.52-.03-.27 1.61c-.06.35-.05.69.02.99.06.31.18.58.35.8.18.23.4.41.68.54.27.13.57.19.91.19h1.26c.28.0001.58-.08.83-.2.44-.21 1.52-.86 2.06-1.66.46.39 1.65 1.57 1.87 1.78m-2.01-9.52c.06-.34.05-.67-.03-.98-.07-.3-.21-.57-.39-.79-.19-.22-.42-.4-.69-.53-.28-.13-.59-.2-.92-.2-.34 0-.67.06-.98.18-.31.13-.59.3-.84.52-.25.23-.45.49-.62.79-.17.31-.28.63-.33.98l-.41 2.45 4.81.02.4-2.44z"/><path d="m162.81 270.51c-.14.86-.43 1.66-.86 2.39-.43.74-.97 1.37-1.61 1.92s-1.35.98-2.14 1.29-1.61.46-2.46.45c-.42 0-.83-.04-1.24-.13-.4-.08-.78-.21-1.14-.39l-1.04 6.03s-2.97-.02-3.57-.02c.06-.35 4.04-24.51 4.04-24.51l3.28.02s-.07.33-.12.66c.46-.23.94-.41 1.43-.51.5-.1.98-.15 1.46-.15.85.001 1.62.17 2.31.49.68.32 1.26.76 1.72 1.31.46.56.78 1.2.97 1.94.2.74.23 1.53.09 2.37l-1.12 6.84m-2.43-6.85c.06-.35.05-.68-.03-.99s-.22-.58-.42-.81c-.19-.22-.43-.4-.72-.53-.29-.12-.61-.19-.96-.19-.32 0-.63.06-.95.18-.32.13-.61.3-.88.52-.09.06-.18.14-.29.24-.1.09-.19.19-.28.29-.09.11-.17.22-.24.33s-.11.22-.13.32l-1.21 7.45c-.06.35-.05.68.02.99s.2.57.38.8.42.41.7.54c.28.12.59.19.95.19.35 0 .69-.06 1.02-.19.32-.12.63-.3.89-.52.27-.22.49-.49.68-.8.18-.31.3-.63.35-.99l1.12-6.83"/><path d="m176.21 276.48c-.28 0-1.48-.0001-1.48-.0001s.04-.29.09-.61c-.51.22-.99.38-1.44.47s-.93.14-1.46.13c-.85 0-1.61-.16-2.3-.48-.69-.31-1.25-.75-1.71-1.3-.45-.55-.78-1.2-.97-1.94-.2-.73-.22-1.53-.08-2.39l2.13-12.9h3.58l-2.12 12.91c-.05.35-.05.68.02.99.08.31.2.57.38.8.19.22.42.41.7.53.28.13.6.19.95.2.23 0 .5-.04.8-.12.31-.07.6-.18.88-.33.29-.15.54-.33.75-.54.22-.21.35-.46.39-.73l2.23-13.69 3.54.02-3.09 18.97s-1.13.02-1.79.0001"/><path d="m196.44 270.58c-.14.86-.43 1.66-.86 2.39-.44.74-.97 1.38-1.61 1.92-.64.55-1.36.98-2.14 1.29-.79.31-1.61.46-2.47.46-.47-.0001-.94-.06-1.41-.15-.46-.1-.88-.27-1.26-.51-.06.37-.1.63-.1.63h-3.29s.22-1.32.31-1.91l3.92-24.03 3.54.02-1.2 7.43c.87-.33 1.73-.5 2.59-.5.86.0001 1.63.17 2.31.49.69.32 1.26.76 1.72 1.31.46.56.79 1.2.98 1.94.2.74.22 1.53.08 2.37l-1.11 6.84m-2.43-6.85c.05-.35.04-.68-.04-.99s-.22-.58-.41-.8c-.19-.23-.44-.41-.72-.53-.29-.14-.61-.2-.96-.2-.36 0-.7.06-1.02.19-.33.12-.63.29-.89.52-.26.22-.48.49-.66.8-.17.3-.29.63-.35.98l-1.22 7.45c-.0001.1 0 .21.04.32.03.12.08.23.14.34s.12.22.2.31.56.57.93.75c.28.13.57.19.89.19.35 0 .69-.06 1.02-.19.33-.12.63-.29.9-.52.27-.22.49-.49.67-.8.18-.3.3-.63.36-.98l1.12-6.84"/><path d="m206.48 276.49s-.58-.001-1.18-.001h-.87c-.61-.001-1.17-.12-1.66-.35s-.9-.54-1.23-.94c-.33-.39-.57-.85-.71-1.39-.14-.52-.16-1.09-.06-1.69l3.52-21.58 3.59.02-3.51 21.57c-.05.3 0 .5.16.6.15.1.35.16.59.17.25.02.52.03.82.03.29.001 1.12.03 1.12.03l-.58 3.54"/><path d="m218.74 252.35c-.2 1.2-.91 1.81-2.13 1.8-1.24-.001-1.76-.61-1.56-1.82.2-1.24.92-1.86 2.16-1.85 1.22 0 1.73.63 1.53 1.87m-3.95 23.98l-3.59-.02 3.09-18.98 3.59.02-3.09 18.98z"/><path d="m229.07 276.56v.04l-2.57-8.96-.2.18-1.41 8.7-3.59-.02 4.2-25.89 3.6.02-2.01 12.36 4.36-5.44 5.03.03-6.85 7.65 3.73 11.36-4.29-.03"/><path d="m250.61 276.83l-4.5-.02s-.39-.55-.73-1.03c-.56.35-1.16.6-1.78.77s-1.24.25-1.87.25c-.86 0-1.63-.17-2.32-.48-.69-.32-1.26-.75-1.71-1.29-.45-.55-.77-1.2-.96-1.94-.18-.74-.21-1.54-.07-2.4l1.12-6.84c.14-.85.42-1.63.86-2.37.43-.74.96-1.38 1.6-1.92.63-.55 1.34-.98 2.13-1.3.79-.31 1.61-.47 2.45-.46.5 0 .98.05 1.44.16s.89.28 1.29.53c.08-.33.12-.67.12-.67l3.22.03s-.08.57-.27 1.77l-2.19 13.28c.12.2 2.17 3.93 2.17 3.93m-4.16-13.35c.04-.27 0-.52-.13-.78-.13-.25-.3-.48-.53-.68-.21-.2-.46-.35-.74-.47s-.55-.18-.8-.18c-.35 0-.69.06-1 .19-.32.12-.61.3-.86.52-.26.23-.48.49-.66.8-.17.31-.29.64-.35.99l-1.11 6.83c-.06.36-.05.69.02.99.07.32.2.58.38.81.18.22.41.4.7.53.28.13.59.19.95.19.35 0 .69-.06 1.02-.18.32-.13.62-.3.89-.53.27-.22.49-.49.67-.79.19-.31.31-.64.37-.99l1.18-7.25z"/></g></g></svg>