<svg xmlns="http://www.w3.org/2000/svg" viewBox="0 0 82.5 101.25"><path fill="#114376" d="m0 50.625v-50.625h31.25 31.25v24.23 24.23l-4.749-4.749c-5.252-5.252-11.129-7.02-18.627-5.617-6.397 1.2-14.12 9-14.12 14.263 0 3.702.246 3.897 4.916 3.897 3.813 0 5.093-.559 5.707-2.493 2.99-9.423 16.877-7.566 16.877 2.257 0 4.427-4.147 8.986-8.174 8.986-2.687 0-3.076.558-3.076 4.414 0 4.441.349 4.772 6.438 6.099 6.084 1.326 7.372 12.552 1.882 16.398-5.306 3.717-11.888 1.767-14.963-4.432-1.636-3.299-6.424-4.601-9.521-2.588-2.597 1.688.259 10.466 4.488 13.793l3.264 2.567h-16.419-16.418v-50.625m56.52 49.3c1.178-.687 3.01-2.482 4.063-3.99 1.897-2.708 1.92-2.692 1.92 1.287 0 3.719-.312 4.03-4.063 3.99-3.311-.031-3.666-.269-1.92-1.287m17.466-2.738c.344-3.572.882-4.11 4.454-4.454 3.897-.376 4.063-.21 4.063 4.063s-.182 4.454-4.454 4.454-4.438-.166-4.063-4.063m-14.923-24.999l-2.625-2.813 3.03-3.507 3.03-3.507v6.32c0 3.475-.183 6.319-.407 6.319-.224 0-1.589-1.266-3.03-2.813"/></svg>