<svg xmlns="http://www.w3.org/2000/svg" viewBox="0 0 600 110.03"><g transform="translate(2037.16 548.38)"><path d="m-2012.5-548.38s-6.02-.024-12.12 2.375c-3.054 1.199-6.164 3.02-8.531 5.813s-3.969 6.552-3.969 11.406v70.844s0 4.937 3.125 9.844c3.123 4.907 9.48 9.75 21.5 9.75h550.78s6.02.024 12.12-2.375c3.054-1.2 6.164-2.992 8.531-5.781 2.367-2.789 3.938-6.583 3.938-11.438v-70.844s.029-4.937-3.094-9.844c-3.123-4.907-9.48-9.75-21.5-9.75z" fill="#fff" color="#000"/><g transform="translate(-2037.15-1490.7)"><path fill="#0d0b09" d="m578.67 949.39v-.036h-406.3v96.46h406.3v-.065c3.687-.345 15.379-2.535 15.379-16.411v-63.5s-.008-15.718-15.379-16.442"/><path fill="#ee2722" d="m20.388 949.35v.135c-14.431 1.52-14.441 16.35-14.441 16.35v63.5c0 12.532 9.761 15.529 14.442 16.247v.228h143.96v-96.46h-143.96z"/><g transform="translate(.25 665.08)" fill="#fff"><path d="m195.51 321.88l14.815-26.552h12.348l-25.591 43.713h-8.812l-11.454-43.713h12.349l6.345 26.552"/><path d="m230.37 329.41h13.622l-1.522 9.624h-24.988l6.924-43.712h11.362l-5.398 34.09"/><path d="m266.68 295.31l-23.734 43.727h12.06l4.233-7.596h15.646l1.625 7.596h12.13l-9.562-43.727h-12.396m3.968 13.53h.113l2.419 13.908h-9.448l6.916-13.908"/><path d="m313.5 295.31l-23.734 43.727h12.06l4.233-7.596h15.646l1.625 7.596h12.13l-9.524-43.727h-12.434m3.968 13.53h.113l2.419 13.908h-9.448l6.916-13.908"/><path d="m344.84 295.33h11.364l16.579 26.728h.118l4.233-26.728h11.361l-6.924 43.713h-11.361l-16.572-26.785h-.116l-4.243 26.785h-11.359l6.921-43.713"/><path d="m395.4 295.31l-6.916 43.727h16.1c12.12 0 23.718-9.553 25.662-21.845 1.949-12.29-6.569-21.882-18.746-21.882h-16.1m9.827 9.637h2.683c7.305 0 11.742 4.419 10.507 12.245-1.351 8.523-7.733 12.207-14.513 12.207h-2.532l3.855-24.452"/><path d="m447.41 304.95l-1.158 7.306h12.814l-1.524 9.622h-12.812l-1.194 7.538h13.507l-1.524 9.624h-24.873l6.925-43.712h24.87l-1.524 9.622h-13.507"/><path d="m469.59 295.31l-6.916 43.727h11.376l2.646-16.818h.113l8.05 16.818h14.173l-10.922-17.914c6.377-1.101 10.572-6.33 11.527-12.358 1.475-9.335-4.401-13.454-13.04-13.454h-17.01m9.977 8.692h1.096c3.708 0 7.781.726 7.03 5.48-.753 4.754-5.02 5.442-8.73 5.442h-1.096l1.701-10.922"/><path d="m518.53 304.95l-1.155 7.306h12.81l-1.524 9.622h-12.812l-1.193 7.538h13.506l-1.522 9.624h-24.87l6.921-43.712h24.873l-1.524 9.622h-13.51"/><path d="m540.72 295.33h11.365l16.581 26.728h.115l4.23-26.728h11.365l-6.924 43.713h-11.362l-16.569-26.785h-.118l-4.242 26.785h-11.362l6.921-43.713"/></g><g transform="translate(.25 665.08)" fill="#d3d2d2"><path d="m405.66 368.94h-3.677v-18.516h3.677v18.516"/><path d="m441.22 359.04v.568c0 5.974-3.575 9.752-9.166 9.752-5.767 0-9.921-4.02-9.921-9.604 0-5.628 4.206-9.751 10.02-9.751 2.317 0 4.304.665 5.941 1.95.807.642 1.262 1.135 2.139 2.419l-3.221 1.702c-.579-.839-.856-1.158-1.361-1.578-.98-.766-2.189-1.161-3.55-1.161-3.55 0-6.191 2.739-6.191 6.419 0 3.654 2.615 6.345 6.166 6.345 1.385 0 2.644-.444 3.551-1.209.375-.346.706-.768.93-1.209.255-.444.328-.765.482-1.53h-4.435v-3.113h8.612"/><path d="m461.38 368.94h-3.677v-18.516h3.677v18.516"/><path d="m483.71 368.94v-15.379h-4.231v-3.137h12.165v3.137h-4.257v15.379h-3.677"/><path d="m512.75 350.04l-8.163 18.897h3.893l1.738-3.893h7.71l1.587 3.893h3.968l-7.974-18.897h-2.759m1.361 5.442l2.683 6.614h-5.442l2.759-6.614"/><path d="m544.91 350.04l-8.163 18.897h3.893l1.701-3.893h7.71l1.625 3.893h3.931l-7.937-18.897h-2.759m1.361 5.442l2.646 6.614h-5.404l2.759-6.614"/><path d="m575.84 365.81h5.813v3.135h-9.491v-18.516h3.678v15.38"/><path d="m369.44 350.41v18.519h5.367c2.847 0 4.939-.671 6.727-2.154 2.166-1.752 3.401-4.366 3.401-7.181 0-5.332-4.21-9.184-10.129-9.184h-5.367m3.666 3.137h.983c2.39 0 3.844.454 5.03 1.512 1.286 1.113 2.041 2.859 2.041 4.611 0 1.778-.782 3.538-2.041 4.649-1.156 1.037-2.659 1.474-5.03 1.474h-.983v-12.245"/></g><path fill="#fff" d="m132.15 957.5l-24.814 48.909-12.296-48.909h-77.56l-2.159 17.799h17.476l-7.875 63.11h20.496l7.767-63.11h24.715l16.492 63.11h17.367l43.37-80.907h-22.977"/></g></g></svg>