<svg xmlns="http://www.w3.org/2000/svg" viewBox="0 0 600 226.25"><g transform="translate(164.72 415.31)"><path d="m-164.03-189.71h598.7v-224.95h-598.7v224.95" fill="#28439a"/><path d="m434.64-189.71h-598.7v-224.95h598.7v224.95z" stroke="#28439a" stroke-width="1.303" fill="none"/><path d="m130.28-221.41h273.68v-161.9h-273.68v161.9" fill="#fbbf18"/><g fill="#ef2e32"><path d="m250.21-328.8h-31.702v81.85h-26.15v-81.85h-31.724v-19.614h89.58v19.614z"/><path d="m376.12-348.42l-37.07 101.46h-29.32l-37.03-101.46h27.19l24.737 71.65 24.714-71.65h26.782"/></g><path fill="#fbbf18" d="m25.535-382.94v76.19c0 15.727-3.438 27.14-10.335 34.24-6.898 7.145-17.817 10.695-32.713 10.695-15.14 0-26.08-3.685-32.825-11.122-6.74-7.414-10.09-18.671-10.09-33.814v-76.19h-59.764v78.929c0 26.737 8.65 47.27 25.973 61.56 17.323 14.312 42.868 21.457 76.7 21.457 33.814 0 59.38-7.145 76.77-21.457 17.368-14.289 26.06-34.87 26.06-61.719v-78.77h-59.787"/></g></svg>