<svg xmlns="http://www.w3.org/2000/svg" viewBox="0 0 600.02 148.15"><defs><linearGradient id="0" gradientUnits="userSpaceOnUse" x1="331.05" x2="538.99"><stop stop-color="#fff"/><stop stop-color="#989fd8" offset="1"/></linearGradient></defs><g transform="translate(61.03 376.27)"><path fill="url(#0)" d="m331.05-228.11h207.93v-148.15h-207.93v148.15"/><path d="m521.68-244.89h-190.12v-111.21h190.12v111.21" fill="#515bae"/><g fill="#fff"><path d="m355.68-331.35h20.45v25.44h30.17v-25.44h20.449v66.751h-20.449v-28.3h-30.17v28.3h-20.45v-66.751"/><path d="m457.72-318.34v40.73h7.33c8.357 0 14.731-1.744 19.12-5.231 4.426-3.487 6.639-8.554 6.639-15.201 0-6.617-2.195-11.654-6.586-15.11-4.391-3.457-10.783-5.186-19.18-5.186h-7.33m-20.45-13.01h21.565c12.04 0 20.998.73 26.876 2.191 5.913 1.431 10.977 3.875 15.191 7.332 3.718 3.01 6.48 6.483 8.286 10.417 1.806 3.934 2.709 8.39 2.709 13.368 0 5.04-.903 9.538-2.709 13.502-1.806 3.934-4.568 7.407-8.286 10.417-4.249 3.457-9.348 5.916-15.297 7.377-5.949 1.431-14.872 2.146-26.77 2.146h-21.565v-66.751"/></g><path d="m-60.58-228.58h391.77v-147.2h-391.77v147.2" fill="#28439a"/><path d="m331.18-228.58h-391.77v-147.2h391.77v147.2z" stroke="#28439a" stroke-width=".853" fill="none"/><path d="m132.01-249.33h179.09v-105.94h-179.09v105.94" fill="#fbbf18"/><g fill="#ef2e32"><path d="m210.49-319.6h-20.745v53.56h-17.11v-53.56h-20.76v-12.835h58.62v12.835"/><path d="m292.89-332.44l-24.26 66.4h-19.19l-24.23-66.4h17.79l16.187 46.886 16.17-46.886h17.525"/></g><path fill="#fbbf18" d="m63.47-355.03v49.855c0 10.292-2.249 17.76-6.763 22.406-4.514 4.675-11.659 6.998-21.407 6.998-9.909 0-17.07-2.411-21.48-7.278-4.411-4.852-6.601-12.218-6.601-22.13v-49.855h-39.11v51.649c0 17.496 5.66 30.934 16.996 40.28 11.335 9.365 28.05 14.04 50.19 14.04 22.13 0 38.858-4.675 50.24-14.04 11.365-9.351 17.06-22.818 17.06-40.39v-51.55h-39.12"/></g></svg>