<svg xmlns="http://www.w3.org/2000/svg" viewBox="0 0 1000 466.12"><g transform="translate(-138.5-830.04)"><path fill="#18563f" fill-rule="evenodd" d="m139 830.54h999v465.12h-999z"/><g transform="matrix(.85196 0 0 .85196 53.17 686.27)"><g fill="#fff" color="#000"><path d="m722.51 488.65c-7.07 0-13.983 2.046-20.524 6.02-4.01 2.438-7.05 5.626-9.578 9.304v-12.588-2.189h-2.189-6.568-2.189v2.189 89.89 2.189h2.189 6.568 2.189v-2.189-49.12c0-9.833 2.961-17.548 8.757-23.671 5.802-6.129 12.953-9.167 22.03-9.167h2.326 2.189v-2.189-6.294-2.189h-2.189z"/><path d="m774.54 486.97c-12.554 0-23.03 4.69-30.821 13.832-7.788 9.136-11.604 21.08-11.604 35.37 0 15.171 3.63 27.368 11.05 36.21 7.426 8.848 17.989 13.275 31.19 13.275 11.01 0 20.238-2.976 27.386-9 7.147-6.03 11.709-14.736 13.647-25.622l.464-2.414h-2.599-7.148-1.95l-.278 1.764c-1.444 7.665-4.716 13.562-9.84 18.2-5.063 4.578-11.459 6.963-19.681 6.963-9.989 0-17.46-3.416-23.02-10.397-5.209-6.536-7.801-15.175-8.169-25.715h70.74 2.228v-2.228-3.806c0-12.905-3.599-23.883-10.954-32.585-7.736-9.08-18.2-13.832-30.635-13.832m-.279 10.119c8.551 0 15.525 3.183 21.538 9.748 5.51 6.02 8.097 13.611 8.541 22.466h-60.62c1.155-8.432 3.661-15.646 8.169-21.259 6.082-7.412 13.395-10.954 22.373-10.954"/><path d="m836.07 454.17v2.189 124.92 2.189h2.189 6.705 2.189v-2.189-124.92-2.189h-2.189-6.705z"/><path d="m910.92 486.97c-11.92 0-21.46 2.993-28.04 9.191-5.932 5.678-8.912 13.51-8.912 22.837v2.228h2.228 6.684 2.135v-2.228c0-6.251 2.133-11.167 6.591-15.411 4.369-4.158 10.564-6.498 18.938-6.498 6.995 0 12.51 1.819 16.803 5.106 4.187 3.206 6.093 7.438 6.127 13.368 0 .051 0 .135 0 .186-.027 3-.665 5.42-2.042 7.241-1.402 1.853-3.555 3.262-6.684 4.27-2.708.903-7.547 1.485-14.204 1.485-13.278 0-23.472 2.385-30.543 7.427-7.07 5.04-10.676 12.765-10.676 22.559 0 8.506 2.708 15.511 8.169 20.331 5.492 4.847 13.373 7.148 23.394 7.148 8.483 0 15.963-1.834 22.19-5.57 4.089-2.454 7.279-5.996 10.119-10.03.057 3.964 1.347 7.297 3.899 9.562 2.614 2.32 6.301 3.249 10.769 3.249h.093.186l5.01-.65 1.95-.278v-1.857-5.663-2.321l-2.414.278-4.549.371c-.069 0-.12 0-.186 0-1.416-.031-2.097-.337-2.599-.928-.526-.619-.928-1.781-.928-3.806v-53.19c0-9.136-2.857-16.451-8.634-21.259-5.777-4.808-14.13-7.148-24.88-7.148m22.28 47.624v11.419c0 8.649-2.555 15.521-7.891 21.07-5.742 5.96-13.708 8.819-24.14 8.819-6.86 0-11.798-1.618-15.41-4.92-3.676-3.36-5.477-7.331-5.477-12.533 0-6.97 2.313-11.736 6.87-14.946 4.517-3.182 12.3-4.92 23.394-4.92 7.06 0 12.734-.575 17.17-1.764 2.111-.565 3.918-1.318 5.477-2.228"/><path d="m1011.21 487.01c-7.886 0-15.175 2.253-21.482 6.704-3.509 2.477-6.24 5.46-8.483 8.757v-11.08-2.189h-2.189-6.841-2.189v2.189 89.89 2.189h2.189 6.705 2.189v-2.189-49.53c0-10.09 2.74-18.17 8.346-24.766 5.572-6.555 12.745-9.851 22.03-9.851 8.05 0 13.626 2.214 17.377 6.431 3.751 4.217 5.883 10.784 5.884 19.977v57.741 2.189h2.189 6.568 2.189v-2.189-58.972c0-11.226-2.774-20.16-8.757-26.27-5.983-6.109-14.716-9.03-25.723-9.03"/><path d="m1139.38 454.2v2.135 47.35c-2.578-4.073-5.554-7.792-9.655-10.397-6.59-4.188-14.1-6.313-22.19-6.313-12.768 0-23.304 4.556-30.821 13.554-7.512 8.991-11.05 21.18-11.05 36.02 0 15.169 3.466 27.29 10.769 36.02 7.31 8.735 17.92 13.09 31.01 13.09 7.711 0 14.702-1.981 20.888-5.756 4.334-2.645 7.856-6.607 11.05-11.233v12.625 2.135h2.228 6.406 2.228v-2.135-124.96-2.135h-2.228-6.406-2.228m-31.471 42.889c9.729 0 17.1 3.631 22.744 10.862 5.66 7.255 8.448 16.73 8.448 28.871 0 11.657-2.822 20.887-8.541 28.04-5.704 7.13-12.976 10.676-22.466 10.676-9.618 0-16.99-3.419-22.744-10.49-5.758-7.08-8.726-16.483-8.726-28.5 0-12.383 2.871-22.06 8.448-29.06 5.567-6.988 12.972-10.397 22.837-10.397"/></g><g transform="matrix(.91033 0 0 .91033 241.06-91.63)"><path d="m437.76 559.87h228.43v-135.11h-228.43v135.11" fill="#ffc428"/><g fill="#275841"><path d="m537.87 470.21h-26.457v68.29h-21.848v-68.29h-26.457v-16.347h74.76v16.347"/><path d="m642.96 453.87l-30.912 84.68h-24.482l-30.951-84.68h22.739l20.608 59.81 20.647-59.81h22.351"/></g></g><g><path d="m492.04 295.04v138.79c0 28.654-6.339 49.45-18.849 62.46-12.509 12.932-32.457 19.44-59.59 19.44-27.555 0-47.5-6.762-59.758-20.286-12.256-13.524-18.426-34.06-18.426-61.62v-138.79h-108.78v143.77c0 48.77 15.721 86.13 47.25 112.16 31.527 26.12 78.1 39.05 139.72 39.05 61.62 0 108.19-12.932 139.89-39.05 31.612-26.03 47.42-63.56 47.42-112.42v-143.52h-108.87" fill="#ffc428"/><path d="m639.59 454.17v2.189 124.92 2.189h2.189 7.799 2.189v-2.189-124.92-2.189h-2.189-7.799z" color="#000" fill="#fff"/></g></g></g></svg>