<svg xmlns="http://www.w3.org/2000/svg" viewBox="0 0 600 162.06"><defs><linearGradient id="0" gradientUnits="userSpaceOnUse" x1="517.55" x2="686.22"><stop stop-color="#e4e2f3"/><stop stop-color="#6066b5" offset="1"/></linearGradient></defs><g transform="translate(-86.22-338.76)"><path fill="url(#0)" d="m517.55 500.82h168.67v-162.06h-168.67v162.06"/><g fill="#28439a"><path d="m659.61 478.26h-142.06v-116.95h142.06v116.95z" stroke="#28439a" stroke-width="2.278"/><path d="m86.22 500.82h431.33v-162.06h-431.33v162.06"/></g><path d="m298.25 477.97h197.18v-116.65h-197.18v116.65" fill="#fbbf18"/><g fill="#ef2e32"><path d="m384.66 400.6h-22.836v58.96h-18.853v-58.96h-22.836v-14.14h64.52v14.14"/><path d="m475.38 386.47l-26.697 73.1h-21.13l-26.697-73.1h19.601l17.81 51.638 17.81-51.638h19.305"/></g><path fill="#fbbf18" d="m222.8 361.59v54.89c0 11.322-2.487 19.549-7.444 24.68-4.974 5.131-12.836 7.705-23.584 7.705-10.905 0-18.784-2.678-23.636-8.02-4.852-5.339-7.287-13.462-7.287-24.367v-54.89h-43.06v56.873c0 19.271 6.244 34.05 18.714 44.35 12.488 10.314 30.906 15.462 55.27 15.462s42.802-5.148 55.31-15.462c12.522-10.296 18.784-25.13 18.784-44.45v-56.768h-43.06z"/><g fill="#fff"><path d="m539.67 435.11v-14.14h22.21v-22.21h14.244v22.21h22.21v14.14h-22.21v22.314h-14.244v-22.314h-22.21"/><path d="m608.19 403.26v-10.505c4.87-.226 8.261-.539 10.209-.974 3.096-.696 5.618-2.07 7.566-4.122 1.339-1.409 2.348-3.287 3.03-5.635.4-1.409.591-2.452.591-3.131h12.888v78.53h-15.81v-54.16h-18.471"/></g></g></svg>