<svg xmlns="http://www.w3.org/2000/svg" viewBox="0 0 600 188.03"><g transform="translate(-122.2-149.43)" fill="#009ee0"><path d="m189.88 336.8l.693-2.078 11.06-32.467 13.163-40.04 9.437-30.699 7.645-24.272 3.751-11.993c4.611-13.02 9.437-18.825 15.624-18.825 2.246 0 3.918.454 6.713 1.816 3.703 1.816 4.01 1.935 5.399 2.27.884.215 1.863.311 2.962.311 7.836 0 13.474-6.331 13.474-15.12 0-9.317-7.119-16.269-16.651-16.269-7.955 0-16.389 4.539-21.05 11.324-4.969 7.239-9.389 18.324-16.341 40.924l-12.351 40.13-12.28 38.845-.597 2.317-22.528-72.34c-2.27-7.31-3.249-11.897-3.249-15.242 0-5.471 3.583-10.368 9.699-13.259v-1.195h-62.26v1.195c6.952 1.601 11.443 4.276 14.764 8.792 3.345 4.539 7.02 12.471 10.01 21.501l40.948 124.37h1.959z"/><path d="m237.52 192.88v1.195c4.42 2.58 6.809 7.693 6.809 14.621v71.65c0 11.443-3.631 20.426-10.846 26.852v1.171l2.437-1.027c13.498-5.829 18.16-7.716 28.979-11.634 5.495-2.01 10.249-3.607 14.215-4.85 5.304-1.625 7.812-2.317 14.573-3.966l1.529-30.651h-1.195c-4.04 18.276-13.641 29.767-28.883 34.593v-50.41c9.699.502 15.266 4.372 18.921 13.211h1.195v-35.405h-1.195c-3.082 10.201-9.819 16.771-18.921 18.419v-38.606h5.447c11.204 0 19.662 6.474 23.03 17.631h1.195l-.741-22.791h-56.55"/><path d="m514.32 192.88h-24.272v1.195c5.113 2.198 7.167 4.157 8.505 8.03 1.171 3.44 1.768 7.931 1.768 13.522v30.651h-1.027l-29.26-53.39h-26.16v1.195c4.683 1.911 9.484 6.546 12.28 11.826v53.47c0 13.522-3.297 19.255-11.826 20.522v1.195l1.577.311 5.423 1 6.737 1.123 7.716 1.338 5.901.956 1.553.239v-1.171c-4.778-2.509-7.382-4.921-9.269-8.553-1.911-3.679-2.556-7.812-2.556-16.532v-41.975h.884l42.644 77.71h1.218v-79.936c0-8.266.645-13.593 1.959-16.17 1.099-2.174 3.631-4.348 6.211-5.351v-1.195"/><path d="m515.78 291.02v1.218l1.171.215c11.563 2.126 24.822 3.727 33.733 4.085l1.84.072v-1.195c-3.154-1.601-5.208-3.631-6.809-6.809-1.911-3.751-2.365-6.689-2.365-15.242v-60.681c0-10.559 3.01-16.221 9.89-18.682v-1.123h-36.576v1.123c3.583 2.485 6.188 5.829 7.191 9.222.597 2.031 1 6.976 1 11.993v55.23c0 13.546-1.72 17.464-9.08 20.569"/><path d="m613.47 192.31l-.836.311-1.409.669c-1.648.788-3.631 1.266-5.112 1.266-1.075 0-2.15-.143-3.154-.43l-2.843-.836c-2.938-.86-5.996-1.338-8.457-1.338-19.02 0-34.31 25.921-34.31 58.15 0 28.24 12.495 48.592 29.815 48.592 11.658 0 21.597-9.437 24.487-23.25.884-4.252 1.075-5.59 1.625-11.539h-.979l-.478 1.553c-3.297 10.751-8.29 15.6-16.03 15.6-12.256 0-20.14-16.651-20.14-42.524 0-13.235 1.672-24.87 4.611-32.16 1.266-3.106 3.464-5.638 6.235-7.119 1.768-.956 4.085-1.505 6.45-1.505 8.935 0 15.15 7.239 19.06 22.22l.263 1h1.194v-28.668"/><path d="m327.55 230.66c12.327-.454 19.06-7.05 19.06-18.682 0-10.06-4.706-14.215-16.15-14.215h-.358l-1.386.024h-1.171v32.873m7.574-37.794h4.276c8.553 0 13.928.86 17.918 2.819 5.16 2.556 8.935 9.126 8.935 15.576 0 5.113-2.341 10.416-5.996 13.665-3.846 3.392-8.959 5.734-18.228 8.314 15.696 2.676 19.9 7.549 24.15 28.12 1.242 5.973 1.409 6.57 2.27 8.433 1.051 2.293 2.532 3.154 5.399 3.154 1.314 0 2.341-.143 4.85-.621l.454.836c-4.061 4.109-10.08 6.641-15.72 6.641-4.778 0-9.15-1.935-12.16-5.375-2.102-2.413-3.727-5.327-4.754-8.529-1.29-4.157-1.672-5.901-3.631-16.771-1.768-9.962-5.02-13.522-12.303-13.522-.645 0-1.195.024-2.293.143l-.741.072v24.702c0 10.822 1.744 14.167 8.529 16.365v1.195l-.836.072-3.775.287c-2.724.215-11.467 1.768-17.894 3.177-5.71 1.242-8.815 2.078-13.713 3.631l-.263-1.195c3.775-3.368 4.945-4.754 6.403-7.645 1.839-3.631 2.341-6.283 2.341-12.71v-49.978-2.389c0-11.11-1.529-14.382-8.05-17.273v-1.195h34.832z"/><path d="m642.32 213.34l-7.334 32.562.549-.143c7.095-1.863 9.126-2.532 14.358-4.802l-6.833-27.641-.741.024m26.47 28.525c.239.932.764 2.747 1.577 5.423 2.7 8.792 3.607 10.918 5.543 12.996 1.338 1.457 3.01 2.078 5.686 2.102l.311 1.195c-9.604 6.355-21.549 12.566-32.562 16.938l-.191-1.195c3.607-3.106 5.399-7.669 5.399-13.737 0-3.942-.645-8.433-2.031-14.167l-1.266-5.184c-3.751 1.648-9.723 3.775-15.959 5.686l-1.314.406-2.676 11.563-.454 1.959c-.836 3.368-1.314 7.02-1.314 9.747 0 5.184 1.601 7.191 6.809 8.481l.191 1.171c-3.44 1.195-9.126 2.867-16.01 4.682l-8.696 2.293-1.863.502-.167-1.242c4.467-3.464 5.805-4.754 7.693-7.454 2.222-3.201 4.993-10.08 7.05-17.464l2.795-10.129.621-2.413 11.09-51.579c-3.13-4.133-5.304-5.805-10.942-8.362v-1.195h28.835l11.849 48.975z"/><path d="m396.54 234.55c0 11.826.526 19.638 1.935 28.883 1.433 9.198 4.706 12.829 11.658 12.829 3.99 0 7.05-1.553 8.696-4.42 3.01-5.232 4.611-18.228 4.611-37.2 0-28.764-3.273-38.01-13.45-38.01s-13.45 9.222-13.45 37.914m47.852 1.338c0 28.907-12.71 45.845-34.402 45.845s-34.402-16.938-34.402-45.845c0-29.19 12.11-45.06 34.402-45.06 22.289 0 34.402 15.863 34.402 45.06"/><path d="m666.36 285.81c-9.867 6.689-23.938 13.45-37.914 18.18-19.399 6.594-40.33 9.843-63.62 9.843-15.457 0-23.747-.788-48.927-4.682l-28.19-4.348-29.934-5.16c-14.692-2.509-33.685-4.85-49.07-5.996-10.966-.836-21.859-1.242-32.658-1.242-31.845 0-61.09 3.56-85.84 10.464-13.331 3.727-26.996 8.839-40.828 15.314-14.453 6.761-19.638 9.675-32.2 18.276l.717 1c18.969-10.488 31.774-15.481 50.48-19.709 13.211-2.986 22.887-4.085 36.1-4.085 6.88 0 14.716.358 22.385 1 5.04.43 11.849 1.171 20.474 2.246 11.467 1.409 20.474 2.7 27.07 3.87l27.665 4.85c4.061.717 11.897 2.01 23.556 3.87 11.611 1.863 19.59 3.106 23.914 3.703 18.491 2.604 33.446 3.727 49.36 3.727 42.62 0 86.29-8.553 123.06-24.11 19.351-8.194 36.24-18.01 45.06-26.21l-.645-.812z"/><path d="m669.3 156.85v11.921h12.566v-11.921h6.833v31.06h-6.833v-13.402h-12.566v13.402h-6.833v-31.06h6.833"/><path d="m707.62 182.17c.979 0 1.935-.167 2.867-.478.932-.311 1.768-.86 2.485-1.577.717-.741 1.314-1.72 1.744-2.915.43-1.171.645-2.628.645-4.348 0-1.553-.143-2.986-.454-4.229-.311-1.266-.812-2.341-1.505-3.249-.693-.908-1.625-1.577-2.747-2.055-1.171-.502-2.58-.741-4.252-.741h-4.874v19.59h6.092m.478-25.323c2.01 0 3.87.311 5.59.956 1.72.645 3.225 1.601 4.491 2.867 1.242 1.29 2.246 2.867 2.938 4.802.717 1.911 1.075 4.157 1.075 6.737 0 2.27-.287 4.348-.86 6.259-.597 1.911-1.457 3.56-2.628 4.969-1.194 1.386-2.652 2.485-4.42 3.273-1.744.812-3.798 1.195-6.188 1.195h-13.402v-31.06h13.402"/></g></svg>