<svg xmlns="http://www.w3.org/2000/svg" height="472.01" width="600" viewBox="0 0 480 377.6009"><path d="m62.37 167.68c3.963-.862 8.03-1.119 12.07-1.321 9.326.302 18.607 2.541 26.974 6.71 4.759 2.273 9.366 4.955 13.414 8.357 3.534-6.624 11.131-10.702 18.606-10.178 3.287 0 5.933 2.142 8.832 3.357 2.601 1.094 4.663 3.483 5.117 6.301.751 3.095-.126 6.367-1.769 9.02 3.907-.04 8.03.02 11.524 2 1.24-.126 2.49-.181 3.74-.141 1.185-2.435 3.413-4.592 6.291-4.537 3.408-.287 6.1 2.132 8.186 4.507 3.907-.943 7.919-1.255 11.917-1.532 3.115-.6 6.271.449 8.892 2.107 1.452-1.346 3.251-2.576 5.323-2.47 2.173-.116 4.144 1.028 5.54 2.616 1.785-.479 3.68-1.225 5.52-.59 2.122.514 3.776 2.062 5.283 3.559 7.204 7.244 14.458 14.443 21.672 21.686 48.15-.03 96.3 0 144.44-.015 2.183-.005 4.431-.151 6.523.615 2.737.877 4.623 3.156 6.589 5.112 8.575 8.549 17.11 17.12 25.704 25.654 1.916 2.042 3.11 4.799 3.05 7.622-.02 27.731.015 55.46-.015 83.19-.065 3.917-2.803 7-5.586 9.442-7.925 8.05-15.98 15.96-23.935 23.975-2.269 2.5-5.202 4.759-8.721 4.844-49.594.025-99.18 0-148.78.001-1.825-.02-3.67.121-5.475-.217-2.218-.363-4.194-1.618-5.782-3.161-7.531-7.567-15.12-15.08-22.655-22.639-7.07 7.098-14.175 14.15-21.248 21.243-2.324 2.788-5.606 4.955-9.372 4.779-13.782-.02-27.565.001-41.34-.015-4.482 0-8.444-4.083-8.323-8.549.004-13.792 0-27.579 0-41.37-.001-2.823 1.25-5.601 3.307-7.521 7.587-7.587 15.168-15.174 22.76-22.746-27.713-27.705-55.45-55.42-83.19-83.12-2.495-2.47-4.744-5.5-5.222-9.07-.434-3.262 1.285-6.523 3.867-8.444 3.277-2.611 7.249-4.119 11.262-5.177.418-2.732.933-5.459 2.218-7.939-3.514-.721-7.103-1.129-10.692-.973-.928.726-1.659 1.689-2.677 2.304-2.117 1.034-4.567 1.028-6.856.731-3.705-.5-6.639-4.03-6.558-7.754.529-5.03 4.703-9.235 9.583-10.254" fill="#1b4265"/><g fill="#c1d72d"><path d="m60.46 175.09c1.79-2.163 4.839-2.173 7.395-2.546 8.968-1.119 18.203.212 26.531 3.705 7.325 2.803 14.1 7.02 19.928 12.265 3.63 3.549 7.04 7.678 8.277 12.709 1.069 5.414-1.991 10.944-6.437 13.928-7.683 5.485-17.865 6.01-26.819 3.972-.368 1.134-.877 2.657-2.309 2.737-1.028.328-1.946-.388-2.863-.721-.61-1.326-.963-2.747-1.089-4.204-5.04-2.213-9.725-5.399-13.187-9.714-.761-1.043-1.633-2.193-1.512-3.564-.055-1.306 1.018-2.198 1.966-2.894 3.776-2.707 8.403-3.735 12.875-4.643.308-2.788.323-5.641 1.094-8.358.227-1 1.028-1.689 1.694-2.41 2.883 2.601 2.42 6.846 2.883 10.364 4.678-.04 9.457.292 13.893 1.88 2.359.988 4.85 2.798 5.132 5.545-.071 3.085-3.403 5.379-6.306 4.134-.872-1.24 1.598-2.032 1.628-3.388-1.739-1.427-4.02-1.769-6.15-2.233-2.692-.549-5.449-.686-8.192-.615.171 4.602.156 9.2.454 13.798 6.05 1.104 12.446.912 18.309-1.038 3.287-1.25 6.79-3.231 8.06-6.725 1.689-4.063-.05-8.636-2.581-11.932-3.685-4.904-8.827-8.483-14.14-11.437-9.381-4.965-19.942-7.944-30.599-7.728-2.097.232-4.356.005-6.256 1.069.615.484 1.205.988 1.775 1.517-1.407.928-3.72 1.109-4.855-.328-.237-1.23.62-2.304 1.407-3.146m10.914 28c-.635.418-1.764.938-1.416 1.875 3.231 4.295 8.489 6.155 13.162 8.393-.015-4.078.03-8.156.071-12.239-3.942.565-8.096.348-11.817 1.971z"/><path d="m128.34 177.44c3.136-.958 6.785-.791 9.336 1.477 1.709.474 3.967 1.406 3.846 3.544.242 3.272-2.576 5.505-4.789 7.441-3.322 2.768-7.768 3.816-11.998 2.909-.61.413-1.23.822-1.85 1.22-.474-.237-.943-.474-1.416-.711-.187-.917-.363-1.83-.534-2.747-1.01-1.815-1.936-3.982-.993-6.02 1.502-3.473 4.789-6.079 8.399-7.108m-5.479 8.726c1.865-1.87 3.907-3.549 6.074-5.056-2.566.746-5.691 2.032-6.074 5.056m11.852-3.927c-3.246 1.558-5.913 4.103-8.383 6.669 3.554.912 7.234-.358 10.128-2.415 1.059-.802 2.062-2.052 1.719-3.463-.474-1.457-2.344-1.396-3.463-.791z"/><path d="m166.7 194.04c.136-.58.434-1.089.882-1.522 3.801 2.48 5.439 6.952 6.579 11.136.917 3.458.756 7.501-1.618 10.364-.958 1.124-2.818 2.057-4.113.943-3.312-2.798-4.97-6.967-7.683-10.264-1.185 3.599.081 7.612-1.568 11.08-1.437 1.714-3.816-.287-3.786-2.092-.232-5.374.565-10.944 2.929-15.824.454-.232.902-.469 1.356-.706 4.25 3.11 6.382 8.131 9.674 12.1 1.175-5.228-2.405-10.06-2.652-15.214"/><path d="m135.03 197.77c4.638-2.369 9.991-2.168 15.05-2.042 1.679.02 3.428.439 4.587 1.739-.282.504-.565 1.01-.842 1.517-3.962 1.326-8.192 1.119-12.3 1.558-1.573.217-3.589.04-4.567 1.573 3.67.892 7.476.882 11.196 1.447 2.263.398 4.754 1.427 5.767 3.645 1.165 2.546.161 5.737-2.072 7.35-2.899 2.223-6.785 2.233-10.258 1.921-3.04-.388-6.367-1.694-7.803-4.597-1.064-2.198.802-4.875 3.105-5.142 3.06-.282 6.125.101 9.125.701 1.013.207 1.704 1.018 2.384 1.719-1.674 1.835-4.441 2.137-6.669 1.24-1.669-.504-3.352-1.719-5.152-1.139-1.205.469-.872 1.81-.282 2.631 3.756.655 7.637.035 11.272-.968 1.18-.454 3.105-.963 3.01-2.536-2.647-1.845-5.989-2.042-9.06-2.586-2.788-.504-6.069.691-8.469-1.23-2.092-2.163-.313-5.606 1.981-6.8"/><path d="m183.81 196.2c2.616.03 5.384-1.064 7.88.171 1.331.479 2.067 1.754 2.813 2.863-.812.489-1.543 1.311-2.561 1.296-2.586.126-5.172.297-7.738.64-.187.867-.348 1.734-.484 2.611 1.951.398 3.942.459 5.923.368.61.963 1.114 2.576-.232 3.176-2.304.484-4.713-.091-7.02.418-1.169 1.038-1.134 2.742-1.336 4.169 2.631-.202 5.197-.958 7.839-1.074 1.306-.03 2.44 1.119 2.541 2.394-2.868 2.964-7.03 4.618-11.12 4.855-2.505.091-4.088-2.218-4.592-4.411-.943-2.833 2.132-5.49.701-8.257.832-.802 1.815-1.417 2.838-1.941.202-.887.413-1.774.61-2.667-.943-.454-1.885-.912-2.823-1.376-.282-.509-.565-1.013-.842-1.522 2.168-1.643 5.04-1.432 7.607-1.714z"/><path d="m201.19 195.76c1.159-.791 1.472 1.089 1.255 1.89-1.01 3.725-4.774 6.674-4.23 10.783 3.529-3.816 6.69-8.242 11.353-10.763 1.291-.867 2.768-.02 3.841.781 2.01 2.01 2.465 5.091 2.052 7.803-.439 2.697-2.137 4.96-4.01 6.861-2.717 2.762-6.437 4.708-10.384 4.607-1.618 6.09-3.947 12-4.875 18.258-2.591.378-4.502-2.359-4.9-4.633.096-6.06 2.309-11.827 3.776-17.644-.247-2.153-1.356-4.27-.711-6.473.902-4.406 3.463-8.529 6.836-11.473m2.258 16.354c3.887-.413 7.95-2.858 8.908-6.861.565-1.386-.126-2.722-.812-3.907-3.771 2.631-5.641 7.04-8.096 10.767z"/><path d="m127.05 195.86c.867.348 1.941.731 2.142 1.774.953 3.761 1.023 7.688 1.099 11.549-.004 2.505.272 5.086-.534 7.506-1.422.524-3.332.403-4.073-1.114-1.124-3.337-.58-6.926-.635-10.374.308-3.156.035-6.649 2-9.341"/><path d="m132.66 223.59c1.26-.212 2.541-.106 3.811-.121 12.11.035 24.22-.015 36.32.02 1.996-.151 3.302 1.532 4.547 2.808 8.58 8.549 17.13 17.13 25.714 25.674.978 1.169 2.909 1.165 3.856-.04 8.509-8.458 16.958-16.978 25.467-25.427 1.331-1.391 2.737-3.201 4.89-3.02 12.94-.015 25.886 0 38.831-.005 1.588-.237 3.115 1.25 2.828 2.853-.015 13.459 0 26.919-.001 40.37.146 1.432-.731 2.637-1.709 3.569-8.383 8.439-16.847 16.797-25.22 25.25-1.064.857-1.27 2.571-.217 3.529 8.439 8.529 17.02 16.928 25.452 25.463 1.028.928 1.825 2.193 1.699 3.635-.005 13.934.005 27.867-.005 41.801-.832.635-1.699 1.427-2.823 1.326-13.435.005-26.874.02-40.31-.001-2.142.151-3.574-1.517-4.91-2.904-7.88-7.919-15.803-15.789-23.688-23.698-.691-.741-1.638-1.124-2.536-1.522-1.018.741-1.991 1.548-2.858 2.465-7.466 7.496-14.977 14.941-22.438 22.443-1.437 1.411-2.838 3.332-5.101 3.216-13.268.04-26.541-.001-39.809.025-1.235.05-2.692-.232-3.282-1.457-.227-1.25-.121-2.536-.136-3.801.035-12.784-.02-25.578.02-38.36-.076-1.225.62-2.289 1.457-3.11 7.703-7.693 15.401-15.391 23.1-23.08 1.089-1.119 2.354-2.107 3.166-3.458.353-1.21-.524-2.193-1.275-3-8.253-8.212-16.484-16.439-24.716-24.666-1.01-.948-1.875-2.198-1.749-3.65 0-13.449.001-26.894-.005-40.34-.106-1.139.378-2.516 1.633-2.762z"/><path d="m285.79 223.93c.943-.247 1.906-.459 2.894-.459 32.601.02 65.2.001 97.8.001 1.432-.086 2.767.635 3.771 1.613 9.255 9.23 18.481 18.495 27.756 27.715.978 1 1.558 2.384 1.487 3.796-.02 27.22.015 54.44-.015 81.65.065 1.941-1.059 3.604-2.571 4.703-8.409 8.393-16.847 16.772-25.26 25.18-.938.902-1.774 1.936-2.878 2.642-1.674.726-3.559.459-5.328.509-31.754-.03-63.51.005-95.26-.015-1.543.141-3.176-1.038-2.914-2.707-.025-47.23.005-94.48-.015-141.71-.001-1 .257-1.976.534-2.929"/></g><g fill="#1b4265"><path d="m349 276.26c6.276-.005 12.553.001 18.828-.001 2.41-.055 5.03.575 6.7 2.425 1.568 2.02 2.218 4.633 2.163 7.163-.005 7.4.005 14.801-.005 22.2.025 2.339-.65 4.844-2.475 6.422-1.517 1.175-3.468 1.699-5.369 1.638-6.614-.025-13.228-.001-19.841-.015v-39.824m5.727 5.04c.005 10.03-.015 20.05.001 30.07 4.03-.015 8.06-.02 12.08.001 1.129-.02 2.374.101 3.362-.58.897-.605.867-1.83.907-2.793-.035-7.904.001-15.809-.02-23.708.081-1.326-.691-2.964-2.183-2.974-4.719-.091-9.442.005-14.16-.03z"/><path d="m289.19 276.57c6.226 5.913 12.159 12.134 18.299 18.14 1.084.968 2.369 2.536 1.265 3.982-2.394 2.692-5.137 5.056-7.597 7.693-4.01 3.887-7.789 8.02-11.963 11.726-.001-13.848-.005-27.695-.005-41.539"/><path d="m314.4 276.49c1.87-.005 3.745-.005 5.621 0 .055 5.505.015 11.01.025 16.514 5.616.197 11.247.187 16.867.001-.03-5.515.015-11.02-.03-16.535 1.845.001 3.695.001 5.54-.005-.03 13.208 0 26.41-.015 39.618h-5.505c0-5.989-.005-11.983.005-17.972-5.621.005-11.241.001-16.863-.005.005 5.994 0 11.983 0 17.976h-5.646v-39.602z"/></g><g fill="#009ee0"><path d="m54.15 149.9l.554-1.663 8.849-25.974 10.531-32.03 7.549-24.559 6.116-19.418 3-9.595c3.689-10.416 7.549-15.06 12.499-15.06 1.797 0 3.134.363 5.371 1.453 2.962 1.453 3.211 1.548 4.319 1.816.707.172 1.491.248 2.37.248 6.269 0 10.779-5.065 10.779-12.1 0-7.454-5.695-13.02-13.321-13.02-6.364 0-13.11 3.631-16.838 9.06-3.973 5.781-7.508 14.649-13.07 32.729l-9.881 32.11-9.824 31.08-.478 1.854-18.02-57.872c-1.816-5.848-2.599-9.518-2.599-12.194 0-4.377 2.867-8.294 7.76-10.607v-.956h-49.807v.956c5.562 1.28 9.155 3.421 11.811 7.03 2.676 3.631 5.619 9.977 8.01 17.201l32.759 99.5h1.567z"/><path d="m92.26 34.758v.956c3.536 2.064 5.447 6.154 5.447 11.697v57.32c0 9.154-2.905 16.341-8.677 21.482v.936l1.95-.822c10.799-4.663 14.525-6.173 23.18-9.307 4.396-1.605 8.199-2.886 11.372-3.88 4.243-1.3 6.25-1.854 11.659-3.173l1.223-24.521h-.956c-3.23 14.621-10.913 23.814-23.11 27.675v-40.33c7.76.401 12.213 3.498 15.14 10.569h.956v-28.324h-.956c-2.466 8.161-7.855 13.417-15.14 14.735v-30.885h4.358c8.963 0 15.73 5.179 18.424 14.11h.956l-.592-18.233h-45.23z"/><path d="m313.7 34.758h-19.418v.956c4.09 1.758 5.734 3.326 6.804 6.422.936 2.752 1.414 6.345 1.414 10.818v24.521h-.822l-23.412-42.716h-20.928v.956c3.746 1.529 7.588 5.237 9.824 9.461v42.773c0 10.818-2.637 15.404-9.461 16.418v.956l1.261.248 4.338.803 5.39.898 6.173 1.07 4.721.764 1.242.191v-.936c-3.822-2.01-5.906-3.937-7.416-6.842-1.529-2.943-2.045-6.25-2.045-13.226v-33.58h.707l34.12 62.17h.975v-63.955c0-6.613.516-10.875 1.567-12.939.879-1.739 2.905-3.478 4.969-4.281v-.956z"/><path d="m314.87 113.27v.975l.936.172c9.25 1.701 19.858 2.981 26.987 3.268l1.472.057v-.956c-2.523-1.281-4.166-2.905-5.447-5.447-1.529-3-1.892-5.351-1.892-12.194v-48.534c0-8.447 2.408-12.977 7.913-14.946v-.898h-29.26v.898c2.867 1.988 4.95 4.663 5.753 7.377.478 1.625.803 5.581.803 9.594v44.19c0 10.837-1.376 13.971-7.263 16.455"/><path d="m393.02 34.3l-.669.248-1.128.535c-1.319.631-2.905 1.013-4.09 1.013-.86 0-1.72-.115-2.523-.344l-2.274-.669c-2.351-.688-4.797-1.07-6.766-1.07-15.213 0-27.445 20.737-27.445 46.519 0 22.591 9.996 38.874 23.852 38.874 9.327 0 17.278-7.549 19.59-18.596.707-3.402.86-4.472 1.3-9.231h-.784l-.382 1.242c-2.637 8.601-6.632 12.48-12.824 12.48-9.805 0-16.11-13.321-16.11-34.02 0-10.588 1.338-19.896 3.689-25.725 1.013-2.485 2.771-4.511 4.988-5.695 1.414-.764 3.268-1.204 5.16-1.204 7.148 0 12.12 5.791 15.251 17.775l.21.803h.956v-22.935"/><path d="m164.28 64.983c9.862-.363 15.251-5.638 15.251-14.946 0-8.05-3.765-11.372-12.92-11.372h-.287l-1.108.019h-.936v26.299m6.06-30.24h3.421c6.842 0 11.143.688 14.335 2.255 4.128 2.045 7.148 7.301 7.148 12.461 0 4.09-1.873 8.333-4.797 10.932-3.077 2.714-7.167 4.587-14.583 6.651 12.557 2.141 15.92 6.04 19.323 22.495.994 4.778 1.128 5.256 1.816 6.747.841 1.835 2.026 2.523 4.319 2.523 1.051 0 1.873-.115 3.88-.497l.363.669c-3.249 3.287-8.07 5.313-12.576 5.313-3.822 0-7.32-1.548-9.728-4.3-1.682-1.93-2.982-4.262-3.803-6.823-1.032-3.326-1.338-4.721-2.905-13.417-1.414-7.97-4.01-10.818-9.843-10.818-.516 0-.956.019-1.835.115l-.592.057v19.762c0 8.658 1.395 11.334 6.823 13.09v.95l-.669.057-3.02.229c-2.179.172-9.174 1.414-14.315 2.542-4.568.994-7.05 1.663-10.971 2.905l-.21-.956c3.02-2.695 3.956-3.803 5.122-6.116 1.472-2.905 1.873-5.03 1.873-10.168v-41.894c0-8.887-1.223-11.506-6.441-13.819v-.956h27.866z"/><path d="m416.1 51.13l-5.867 26.05.44-.115c5.676-1.491 7.301-2.026 11.487-3.842l-5.466-22.11-.592.019m21.18 22.82c.191.745.612 2.198 1.261 4.338 2.16 7.03 2.886 8.734 4.434 10.397 1.07 1.166 2.408 1.663 4.549 1.682l.248.956c-7.683 5.084-17.239 10.05-26.05 13.551l-.153-.956c2.886-2.485 4.319-6.135 4.319-10.99 0-3.153-.516-6.747-1.625-11.334l-1.013-4.147c-3 1.319-7.779 3.02-12.767 4.549l-1.051.325-2.141 9.251-.363 1.567c-.669 2.695-1.051 5.619-1.051 7.798 0 4.147 1.281 5.753 5.447 6.785l.153.936c-2.752.956-7.301 2.293-12.805 3.746l-6.957 1.835-1.491.401-.134-.994c3.574-2.771 4.644-3.803 6.154-5.963 1.777-2.561 3.994-8.07 5.638-13.971l2.236-8.103.497-1.93 8.868-41.26c-2.504-3.306-4.243-4.644-8.754-6.689v-.956h23.07l9.479 39.18z"/><path d="m219.48 68.09c0 9.461.42 15.711 1.548 23.11 1.147 7.358 3.765 10.263 9.327 10.263 3.192 0 5.638-1.242 6.957-3.536 2.408-4.186 3.689-14.583 3.689-29.758 0-23.01-2.618-30.408-10.76-30.408-8.142 0-10.76 7.377-10.76 30.332m38.28 1.07c0 23.13-10.168 36.676-27.522 36.676s-27.522-13.551-27.522-36.676c0-23.355 9.69-36.05 27.522-36.05 17.831 0 27.522 12.691 27.522 36.05"/><path d="m435.33 109.1c-7.893 5.351-19.15 10.76-30.332 14.544-15.519 5.275-32.26 7.874-50.896 7.874-12.366 0-18.998-.631-39.14-3.746l-22.552-3.478-23.947-4.128c-11.754-2.01-26.948-3.88-39.26-4.797-8.773-.669-17.487-.994-26.13-.994-25.476 0-48.87 2.848-68.67 8.371-10.665 2.982-21.597 7.07-32.663 12.251-11.563 5.409-15.711 7.74-25.763 14.621l.573.803c15.175-8.391 25.419-12.385 40.38-15.767 10.569-2.389 18.31-3.268 28.879-3.268 5.504 0 11.773.287 17.908.803 4.03.344 9.479.936 16.379 1.797 9.174 1.128 16.379 2.16 21.654 3.096l22.13 3.88c3.249.573 9.518 1.605 18.845 3.096 9.289 1.491 15.672 2.485 19.13 2.962 14.793 2.083 26.757 2.982 39.486 2.982 34.1 0 69.03-6.842 98.45-19.284 15.481-6.555 28.993-14.411 36.05-20.966l-.516-.65z"/><path d="m437.69 5.934v9.537h10.05v-9.537h5.466v24.846h-5.466v-10.722h-10.05v10.722h-5.466v-24.846h5.466"/><path d="m468.34 26.19c.784 0 1.548-.134 2.293-.382.745-.248 1.414-.688 1.988-1.261.573-.592 1.051-1.376 1.395-2.332.344-.936.516-2.102.516-3.478 0-1.242-.115-2.389-.363-3.383-.248-1.013-.65-1.873-1.204-2.599-.554-.726-1.3-1.261-2.198-1.644-.936-.401-2.064-.592-3.402-.592h-3.899v15.672h4.874m.382-20.259c1.606 0 3.096.248 4.472.764 1.376.516 2.58 1.28 3.593 2.293.994 1.032 1.797 2.293 2.351 3.842.573 1.529.86 3.326.86 5.39 0 1.816-.229 3.478-.688 5.01-.478 1.529-1.166 2.848-2.102 3.975-.956 1.108-2.122 1.988-3.536 2.618-1.395.65-3.039.956-4.95.956h-10.722v-24.845h10.722"/></g></svg>