<svg xmlns="http://www.w3.org/2000/svg" viewBox="0 0 600 342.05"><g transform="matrix(20.70036 0 0 20.70036-235.76-21305.12)"><path d="m26.696 1045.74v-16.524l-12.808 1.35v13.832l12.809 1.342" fill="#095ba4"/><path d="m27.567 1045.72l12.807-1.345v-13.799l-12.807-1.344v16.488" fill="#05a4db"/><g fill="#fff"><path d="m0 0v.024l-1.209-.033.002-8.03 1.51-.159v5.614h1.092v1.227c-.781-.023-1.341.285-1.395 1.357" transform="matrix(1 0 0-1 25.301 1035.39)"/><path d="m0 0c0 .814.31 1.585 1.027 1.583 1.064-.002.972-1.055.972-2.094v-3.9l.65-.069v7.982c-.24.084-.519.128-.846.122-.708-.014-1.493-.504-1.781-1.266h-.022v4.071l-1.509-.158v-10.315l1.509-.159v4.203" transform="matrix(1 0 0-1 20.995 1038.9)"/><path d="m0 0l1.133 4.821v5.295l-.648-.068-1.368-6.73-.509 2.678c-.292.515-.714 1.068-1.388 1.399-.324.159-.444.219-1.049.358l1.681-7.529 2.148-.224" transform="matrix(1 0 0-1 17.942 1042.79)"/></g><path d="m0 0c-.179.373-.44 1.059-1.01 1.525-.203.167-.445.305-.736.389-1.384.541-2.593.34-3.075 2.302l.692-3.161c.388-1.337 1.01-1.494 1.849-1.737l.1-.025c.366-.106 1.276-.43 1.276-.43.586-.257.974-.619 1.335-1.201l-.433 2.338" fill="#05a4db" transform="matrix(1 0 0-1 16.208 1034.06)"/></g></svg>