<svg xmlns="http://www.w3.org/2000/svg" viewBox="0 0 200 78.55"><g transform="matrix(.17675 0 0 .17675-5.385-230.47)"><path d="m827.45 1600.46v138.18c0 4.073-3.817 8-8 8h-115.31c-4.069 0-8.189-2.261-8.189-8.631v-137.48c0-6.359-3.286-9.04-9.963-9.04h-151.53l4.516-131.5h146.84c6.836 0 10.142-3.056 10.142-9.28v-132.79c0-7.494 3.231-12.27 12.241-12.27h109.26c6.136 0 10 3.765 10 10v135.07c0 5.692 1.573 9.276 10.05 9.276h117.48v123.31c0 4.07-2.266 8.189-8.636 8.189h-108.81c-7.541 0-10.08 3.605-10.08 8.975" fill="#6d15a0"/><g fill="#941bc8"><path d="m287.31 1746.65h-91.88c-7.657 0-10.532-6.47-13.06-14.292l-148.89-415.17c-2.088-5.49-2.696-11.518 5.893-11.518h118.3c8.477-.044 11.211 4.556 14.11 13.12l65.893 213.61c1.928 6.494 5.498 6.698 7.552-.253l66.64-216.64c1.327-5.04 5.109-9.867 12.268-9.867h248.86c6.136 0 10 3.765 10 10v423c0 4.073-3.817 8-8 8h-116.11c-4.07 0-8.189-2.261-8.189-8.631v-407.08c0-4.644-4.045-6.599-6.593 0l-143.57 402.32c-2.437 6.666-5.576 13.393-13.225 13.393"/><path d="m1150.3 1305.65c6.136 0 10 3.765 10 10v423c0 4.073-3.817 8-8 8h-115.31c-4.07 0-8.189-2.261-8.189-8.631v-268.31c0-5.869-2.994-9.712-9.01-9.712h-64.819v-82.83c0-6.628 2.644-9.678 8.839-14.647l60.1-45.583c8.892-6.551 13.02-11.281 21.592-11.281z"/></g></g></svg>