<svg xmlns="http://www.w3.org/2000/svg" viewBox="0 0 1018.28 601.75"><defs><clipPath id="0"><path d="m466.89 435.24v-141.16h59.707v141.16"/></clipPath></defs><g transform="matrix(1.01 0 0 1.01-6.092-130.21)" fill="#231f20"><g clip-path="url(#0)" transform="matrix(16.88541 0 0-16.88541-7877.6 5690.3)"><path d="m497.97 316.9c-.086-.031-.172-.05-.257-.05-.264 0-.396.106-.396.383l.002.48h-.478l-.002-.594c0-.187-.141-.264-.321-.264-.181 0-.319.073-.316.266l.009 1.416c0 .113-.189.073-.189.232 0 .111.069.169.171.203.085.031.171.049.257.049.26 0 .398-.107.399-.382l-.003-.447h.478l.002.56c0 .187.135.263.315.264.181 0 .322-.073.32-.263l-.013-1.418c0-.114.193-.074.193-.233 0-.111-.074-.169-.171-.202m-2.186 1.782l-.534-1.471c-.067-.19-.211-.377-.462-.378-.239 0-.405.165-.463.376l-.373 1.32c-.031.117-.205.052-.206.257 0 .089.071.147.162.184.095.034.175.05.242.05.193 0 .371-.064.414-.263l.29-1.259h.019l.396 1.272c.049.16.11.23.306.231.119 0 .307-.055.209-.319m4.965-4.669c0 .533-.433.966-.967.964h-.26c-.537.026-.969.432-.969.967h.002l-.014 7.551c-.002.535-.435.968-.97.967l-1.782-.003c-.281 0-.621-.165-.797-.355-.838-.739-1.448-1.12-2.564-1.274-.535 0-1.034-.434-1.032-.97v-1.105c0-.968.436-.967.97-.966h.584c.268 0 .436-.216.437-.483l.005-3.429c0-.534-.433-.911-.967-.911h-.541c-.534 0-.967-.434-.966-.968l.003-1.813c0-.535.435-.967.969-.965l7.894.011c.537 0 .968.434.967.969l-.003 1.813"/><path d="m467.94 295.45c-.711.835-1.049 1.774-1.051 3.086-.005 2.503 2.156 4.936 5.01 4.94 1.101 0 2.218-.067 3.158-.686.766-.497.838-1.083.75-1.65-.142-.992-.407-1.296-1.56-1.386-.621-.054-1.42.157-1.598.851-.072.247-.196.407-.374.407-.211-.002-.461-.09-.637-.286-.495-.569-.601-1.65-.601-2.271.003-.534.108-.959.304-1.261.338-.477.835-.582 1.261-.582.497.002.959.161 1.526.517.583.374 1.17.178 1.526-.317.32-.444.232-.959-.158-1.384-.479-.534-1.683-1.351-3.707-1.355h-.015c-1.835 0-2.967.407-3.836 1.377"/></g><path d="m176.52 689.52l-.22-153.35c-.051-20.08 14.927-27.29 33.788-27.337 18.574-.034 33.855 7.159 33.906 27.22l.22 135.08c0 12.884 18.591 4.171 18.591 23.336.034 10.182-6.839 16.193-19.13 21.02-9.878 3.917-18.27 5.69-32.03 5.724-17.679.051-35.09-11.921-35.12-31.694"/><path d="m352.93 653.91l-14.07 4.829c-3.917 1.182-6.619 4.795-6.585 7.784v2.094c0 5.707 5.099 8.662 9.591 8.662 11.702 0 17.05-6.906 17.05-14.386v-6.281c-.034-1.621-1.486-3.09-3.799-3.09-.675 0-1.401.118-2.195.388m-79.969 22.576c-.051-25.463 16.446-34.16 39.782-40.474l45.24-11.752-.034-7.514c0-6.889-4.221-11.364-11.11-11.364-7.48.034-8.966 1.824-11.364 8.443-4.475 13.188-15.231 14.707-27.81 14.707-15.889 0-24.602-5.977-24.636-23.05 0-13.188 1.182-22.15 26.645-31.508 13.154-4.508 30.833-7.514 41.623-7.514 49.41-.084 70.73 21.14 70.77 60.703l.067 38.6c0 6.923 1.52 9.02 9.321 11.381 4.475 1.199 8.966 5.994 9.02 14.1 0 9.574-5.37 15.568-17.341 21.58-8.409 4.492-19.452 7.531-30.26 7.531-15.281.034-25.463-8.628-29.08-20.6l-.608-1.52c-10.756 17.409-31.424 23.1-42.21 23.13-34.14.051-47.938-18.81-48.01-44.881"/><path d="m455.17 702.3c-6.619-8.105-7.227-19.469-.962-26.375 8.409-8.713 20.381-9.625 29.347-1.841 6.619 5.673 13.829 8.679 22.2 8.679 6.298-.051 10.79-1.841 12.58-4.525 1.469-2.398.287-5.707-4.238-9.321-5.083-3.867-14.96-6.535-28.756-14.01-13.795-7.446-30.867-19.418-30.9-42.2-.084-28.739 31.66-47.08 67.913-47.13 33.821-.034 49.44 11.03 57.55 21.17 6.619 8.09 6.619 15.889 1.824 23.673-5.099 7.801-17.628 10.807-28.16 3.917-6.264-4.188-14.673-6.535-20.972-6.535-4.795-.304-8.375 1.216-9.591 3.917-1.469 4.475 1.52 7.784 11.415 12.529 9.304 4.795 19.18 8.07 28.503 13.154 12.884 7.446 23.977 18.861 24.01 38.617.051 19.469-19.384 48.22-68.825 48.31h-.338c-35.426 0-54.24-11.921-62.59-22.04"/><path d="m604.64 702.06c-6.602-8.09-7.21-19.452-.946-26.375 8.358-8.713 20.364-9.608 29.381-1.824 6.568 5.657 13.762 8.662 22.15 8.628 6.315 0 10.807-1.79 12.58-4.525 1.486-2.398.304-5.657-4.221-9.27-5.083-3.884-14.96-6.535-28.773-14.03-13.795-7.446-30.883-19.418-30.934-42.18-.034-28.773 31.711-47.09 67.964-47.13 33.821-.084 49.44 11.01 57.55 21.17 6.568 8.04 6.602 15.872 1.824 23.673-5.099 7.784-17.645 10.79-28.16 3.901-6.281-4.171-14.673-6.568-20.989-6.535-4.779-.287-8.358 1.216-9.574 3.917-1.486 4.492 1.52 7.767 11.398 12.546 9.321 4.795 19.2 8.05 28.503 13.154 12.884 7.446 23.994 18.81 24.03 38.617.034 19.452-19.418 48.22-68.825 48.31h-.338c-35.442 0-54.24-11.938-62.61-22.05"/><path d="m752.03 531.37c0-19.452 25.733-25.497 41.01-25.497 15.585-.034 32.369 4.745 32.369 23.302.051 20.06-22.12 24.315-37.688 24.315h-.321c-14.944 0-35.32-2.752-35.37-22.12m1.452 148.3l-.118-84.8c-.034-20.364 15.805-27.24 33.788-27.29 17.679-.034 33.872 6.822 33.906 27.19l-.186 77.3c.034 11.972 19.79 7.75 19.84 23.64 0 11.09-6.315 16.767-16.463 20.11-8.713 2.702-17.679 4.221-26.983 4.221-27.827.034-43.75-11.33-43.784-40.37"/><path d="m860.16 700.16c-12.01-14.05-17.713-29.904-17.747-52.11-.084-42.21 36.405-83.3 84.63-83.38 18.591-.034 37.435 1.148 53.32 11.6 12.934 8.358 14.12 18.236 12.63 27.861-2.364 16.75-6.855 21.85-26.307 23.369-10.486.912-23.977-2.668-26.983-14.336-1.216-4.171-3.31-6.872-6.315-6.872-3.563 0-7.784 1.52-10.756 4.829-8.392 9.574-10.148 27.861-10.148 38.35.051 8.966 1.824 16.14 5.133 21.242 5.707 8.09 14.1 9.878 21.293 9.878 8.392-.034 16.193-2.735 25.767-8.73 9.844-6.315 19.756-3.056 25.767 5.353 5.386 7.497 3.917 16.16-2.668 23.369-8.09 9.02-28.418 22.812-62.59 22.846h-.507c-30.833 0-49.896-6.889-64.52-23.268"/><path d="m1007.93 551.33l.118-6.349h-.186l-2.026 4.289c-.338.811-.861 1.233-1.705 1.233-.794 0-1.317-.422-1.705-1.182l-1.908-4.407-.186.034-.085 7.362c0 1.351-.557 1.992-1.976 1.992-1.317 0-1.891-.642-1.891-1.942l.118-10.908-.27-.574c-.54-.27-.979-.608-.979-1.182 0-1.79 2.381-2.01 3.681-2.01 1.469 0 2.499.608 3.225 1.976l2.702 5.167h.118l2.651-5.471c.608-1.25 1.368-1.672 2.702-1.672 1.452 0 2.465.574 2.432 2.094l-.034 10.722c-.034.827 1.486.557 1.486 1.773 0 1.537-2.026 2.026-3.208 2.026-2.077 0-3.073-.844-3.073-2.972m-24.2.946l-.051-10.638-1.131-.27-.878.084c-.422.034-.827.034-1.25.034-.996 0-1.638-.844-1.638-1.824 0-1.098.76-1.79 1.824-1.79h11.516c1.03 0 1.79.54 1.79 1.638 0 .979-.726 1.976-1.79 1.976-.422 0-.827 0-1.266-.067l-.827-.051c-.49 0-1.182-.101-1.148.388v10.486c0 1.52-1.165 2.06-2.583 2.06-.034 0-.084 0-.118 0-1.351 0-2.448-.591-2.448-2.026"/><path d="m350.19 333.66c0 80.881 65.55 146.45 146.43 146.45 80.881 0 146.48-65.57 146.48-146.45 0-80.881-65.6-146.43-146.48-146.43-80.881 0-146.43 65.55-146.43 146.43m-58.27 0c0-113.06 91.64-204.74 204.7-204.74 113.06 0 204.75 91.67 204.75 204.74 0 113.08-91.69 204.75-204.75 204.75-113.06 0-204.7-91.67-204.7-204.75"/></g></svg>