<svg xmlns="http://www.w3.org/2000/svg" height="407.1" width="600" viewBox="0 0 158.75 107.71186"><defs><linearGradient id="0" gradientUnits="userSpaceOnUse" x1="-3.529" x2="-54.901" y1="197.56" y2="286.54"><stop stop-color="#8ed6ed"/><stop stop-color="#5b9edb" offset=".186"/><stop stop-color="#2b58aa" offset=".646"/><stop stop-color="#253067" offset=".938"/><stop stop-color="#253067" offset="1"/></linearGradient><linearGradient id="1" gradientUnits="userSpaceOnUse" x1="-146.83" x2="-78.935" y1="282.18" y2="201.27"><stop stop-color="#526123"/><stop stop-color="#becd0b" offset="1"/></linearGradient></defs><g transform="translate(150.37-204.24)"><g stroke-width=".125"><path d="m-100.25 204.24v24.87l6.08 15.66-6.08-7.55v.12l-26.67-33.1h-23.45v74.97h24.85v-34.6l27.846 34.6h22.265v-74.97h-24.841" fill="url(#1)"/><path d="m-150.37 282.13h74.965v14.6h-74.965v-14.6" fill="#9d9d9c"/><path d="m-106.34 288.86c-.43-.23-.94-.3-2.27-.3h-1.73c-.55 0-.78-.22-.78-.75v-.11c0-.02 0-.05.001-.07.02-.47.25-.68.77-.68h1.88c.25 0 .45.05.57.15.02.001.02.02.03.03.1.1.15.23.16.41.22-.001 2.01-.16 2.25-.18-.05-.22-.1-.43-.16-.61-.43-1.28-1.33-1.76-3.12-1.76h-1.37c-2.22 0-3.31.74-3.31 2.26v1.03c0 .8.33 1.4.92 1.69.44.23.95.29 2.27.29h1.73c.55 0 .78.22.78.74v.13c0 .52-.23.76-.78.76h-1.88c-.29 0-.48-.06-.6-.2-.09-.1-.15-.24-.15-.43-.22.02-2.03.09-2.27.1.27 1.82 1.18 2.5 3.29 2.5h1.37c2.22 0 3.3-.74 3.3-2.28v-1.04c0-.8-.32-1.4-.91-1.68m19.14-3.8h-8.783v2.11h3.154v6.66h2.465v-6.66h3.164zm-32.885 6.19l1.13-3.02 1.13 3.02zm2-6.19h-1.75l-3.79 8.81h2.55l.37-1h3.5l.37 1h2.53zm17.01 6.19l1.121-3.03 1.133 3.03zm1.99-6.19h-1.75l-3.79 8.81h2.55l.37-1h3.498l.373 1h2.536zm-34.8 5.65l-2.12-5.65h-2.56l3.79 8.81h1.75l3.79-8.81h-2.54l-2.11 5.65m6.25 3.12h2.46v-8.77h-2.46z" fill="#fff"/><g fill="#526023"><path d="m-150.37 299.64h2.42l5.6 7.35v-7.35h2.59v11.94h-2.23l-5.79-7.59v7.59h-2.59v-11.94"/><path d="m-129.18 306.6-1.59-3.87-1.59 3.87zm-2.77-7.05h2.43l5.12 12.03h-2.75l-1.09-2.68h-5.05l-1.1 2.68h-2.67z"/><path d="m-120.47 302.06h-3.63v-2.42h9.89v2.42h-3.63v9.52h-2.63z"/><path d="m-106.35 311.77c-1.61 0-2.87-.44-3.8-1.34-.91-.89-1.38-2.21-1.38-3.97v-6.81h2.64v6.75c0 .98.22 1.72.68 2.2.45.5 1.08.75 1.89.75s1.44-.24 1.89-.71c.46-.49.69-1.2.69-2.16v-6.83h2.63v6.73c0 .9-.12 1.69-.37 2.37-.25.67-.6 1.23-1.05 1.68-.46.45-1 .79-1.65 1.01-.64.22-1.37.33-2.17.33"/><path d="m-92.3 305.46c.647 0 1.142-.16 1.492-.46.349-.32.524-.73.524-1.24v-.03c0-.57-.189-1.01-.552-1.29-.359-.28-.865-.43-1.516-.43h-2.607v3.45zm-5.289-5.82h5.459c1.511 0 2.672.41 3.48 1.21.675.69 1.025 1.6 1.025 2.73v.04c0 .96-.236 1.75-.709 2.36-.472.6-1.091 1.06-1.846 1.33l2.914 4.27h-3.075l-2.554-3.82h-2.064v3.82h-2.63z"/><path d="m-84.48 299.64h8.991v2.33h-6.403v2.44h5.633v2.33h-5.633v2.51h6.483v2.33h-9.07z"/></g></g><g fill="#fff" stroke-width=".472"><path d="m-149.06 266.67h3.17v4.28h4.06v-4.28h3.18v11.44h-3.18v-4.35h-4.06v4.35h-3.17z"/><path d="m-132.96 275.29c1.9 0 3.16-1.04 3.16-2.89v-.03c0-1.83-1.26-2.89-3.16-2.89h-1.29v5.81zm-4.46-8.61h4.42c4.08 0 6.45 2.34 6.45 5.64v.04c0 3.29-2.4 5.74-6.52 5.74h-4.35z"/></g><g stroke-width=".474"><path fill="#918f90" d="m-66.844 296.76h75.22v-14.65h-75.22z"/><path fill="#fff" d="m-22.658 288.86c-.445-.23-.961-.3-2.288-.3h-1.734c-.555 0-.782-.22-.782-.75v-.11c0-.02 0-.05.009-.07.019-.48.261-.67.773-.67h1.89c.251 0 .446.04.574.14.004.001.019.02.033.03.095.1.137.24.151.42.223-.02 2.01-.16 2.256-.18-.038-.23-.1-.43-.161-.62-.431-1.28-1.327-1.77-3.128-1.77h-1.374c-2.227 0-3.316.74-3.316 2.26v1.05c0 .8.327 1.4.914 1.68.445.24.952.31 2.284.31h1.739c.545 0 .772.21.772.74v.11c0 .54-.232.77-.772.77h-1.895c-.285 0-.474-.05-.602-.19-.09-.1-.147-.24-.157-.43-.213.02-2.023.09-2.264.1.274 1.82 1.189 2.51 3.297 2.51h1.374c2.237 0 3.317-.75 3.317-2.29v-1.04c0-.81-.322-1.41-.91-1.7m19.2-3.8h-8.813v2.1h3.165v6.69h2.473v-6.69h3.175zm-32.997 6.2l1.128-3.03 1.142 3.03zm2-6.2h-1.754l-3.804 8.83h2.568l.369-.99h3.502l.374.99h2.545zm17.06 6.2l1.132-3.04 1.142 3.04zm2.01-6.2h-1.758l-3.8 8.83h2.559l.374-.99h3.506l.37.99h2.549zm-34.929 5.66l-2.122-5.66h-2.562l3.797 8.83h1.754l3.81-8.83h-2.549zm6.272 3.13h2.468v-8.79h-2.468z"/><g fill="#2b57aa"><path d="m-66.46 299.74h2.642v4.76h4.87v-4.76h2.643v12.01h-2.643v-4.82h-4.87v4.82h-2.642z"/><path d="m-54.05 299.74h2.642v12.01h-2.642z"/><path d="m-44.673 311.92c-.914 0-1.808-.16-2.689-.46-.881-.32-1.688-.8-2.402-1.44l1.562-1.88c.546.45 1.107.81 1.687 1.08.574.26 1.208.39 1.895.39.548 0 .974-.1 1.275-.3.306-.2.453-.48.453-.84v-.04c0-.16-.026-.32-.093-.44-.06-.14-.18-.26-.36-.37-.174-.12-.42-.23-.741-.35-.313-.12-.727-.23-1.227-.36-.608-.16-1.161-.33-1.648-.5-.494-.18-.914-.41-1.262-.68-.34-.27-.607-.6-.793-1-.194-.4-.287-.91-.287-1.5v-.03c0-.55.099-1.04.307-1.49.206-.44.487-.82.86-1.14.367-.32.807-.57 1.321-.74s1.081-.26 1.695-.26c.881 0 1.688.13 2.429.4.74.25 1.414.63 2.034 1.12l-1.374 1.98c-.54-.36-1.061-.65-1.581-.86-.514-.22-1.028-.32-1.541-.32-.514 0-.901.1-1.161.3-.254.2-.387.44-.387.75v.04c0 .19.046.36.12.5.073.14.2.27.4.38.194.11.461.23.801.33s.76.22 1.281.36c.607.16 1.147.34 1.621.54.48.2.881.44 1.208.73.327.28.574.6.74.98.16.38.247.83.247 1.36v.03c0 .6-.106 1.13-.32 1.59-.22.47-.52.86-.908 1.17-.38.31-.847.55-1.381.72-.533.17-1.127.25-1.781.25"/><path d="m-35.735 302.17h-3.658v-2.42h9.95v2.42h-3.653v9.58h-2.639z"/><path d="m-22.359 309.52c.535 0 1.028-.1 1.469-.29s.81-.46 1.128-.81c.317-.34.559-.74.739-1.19s.265-.93.265-1.45v-.03c0-.52-.085-1.01-.265-1.46-.18-.46-.427-.86-.754-1.2s-.706-.62-1.146-.82c-.441-.2-.934-.29-1.469-.29-.526 0-1.014.09-1.46.29-.45.19-.829.46-1.141.8-.313.35-.564.74-.735 1.19-.18.45-.265.94-.265 1.45v.04c0 .51.085 1 .265 1.46.171.46.427.85.753 1.2.327.34.716.61 1.161.81.441.2.929.3 1.455.3m-.033 2.43c-.929 0-1.782-.16-2.554-.48-.782-.33-1.45-.77-2.023-1.32-.559-.56-1-1.21-1.313-1.96-.317-.75-.474-1.55-.474-2.41v-.03c0-.86.157-1.66.479-2.41s.768-1.41 1.327-1.97c.568-.57 1.241-1.02 2.028-1.34.781-.33 1.634-.49 2.563-.49s1.772.16 2.554.49c.782.32 1.45.76 2.01 1.32.568.55 1.01 1.2 1.322 1.95.312.75.473 1.55.473 2.41v.04c0 .85-.161 1.66-.478 2.4-.322.76-.768 1.42-1.336 1.98-.559.57-1.242 1.01-2.02 1.34-.782.32-1.634.48-2.563.48"/><path d="m-8.623 305.59c.654 0 1.156-.15 1.502-.46.351-.31.521-.72.521-1.25v-.03c0-.57-.18-1.01-.545-1.29-.37-.29-.877-.43-1.531-.43h-2.62v3.46zm-5.316-5.84h5.487c1.526 0 2.687.4 3.502 1.21.687.69 1.028 1.6 1.028 2.74v.04c0 .97-.232 1.77-.716 2.37-.474.62-1.085 1.07-1.853 1.35l2.928 4.29h-3.085l-2.573-3.84h-2.075v3.84h-2.644z"/><path d="m1.119 307.02l-4.61-7.28h3.085l2.867 4.82 2.909-4.82h3l-4.61 7.22v4.79h-2.644z"/></g><path fill="url(#0)" d="m-17.426 215.63v30.13h-23.584v-30.13l-25.787-11.2v75.25h25.787v-11.66h23.584v11.66h25.78v-75.25z"/><g fill="#fff"><path d="m-65.34 267.09h3.182v4.29h4.077v-4.29h3.182v11.47h-3.182v-4.36h-4.077v4.36h-3.182z"/><path d="m-49.18 275.74c1.895 0 3.163-1.05 3.163-2.9v-.03c0-1.84-1.268-2.91-3.163-2.91h-1.294v5.84zm-4.477-8.65h4.43c4.097 0 6.472 2.35 6.472 5.66v.04c0 3.31-2.409 5.76-6.538 5.76h-4.364z"/></g></g></g></svg>