<svg xmlns="http://www.w3.org/2000/svg" viewBox="0 0 600 521.34"><defs><filter id="0" height="1" width="1" color-interpolation-filters="sRGB" y="0" x="0"><feColorMatrix values="1" type="saturate" result="fbSourceGraphic"/><feColorMatrix values="-1 0 0 0 1 0 -1 0 0 1 0 0 -1 0 1 0 0 0 1 0 " in="fbSourceGraphic"/></filter></defs><path d="m410.1 874.51c0 69.32-.647 177.84-205.06 177.84-204.39 0-205.04-108.57-205.04-177.89 0-69.96.647-178.49 205.04-178.49 204.41 0 205.06 108.52 205.06 177.84v.647zm-399.42 0c0 68.34 0 167.48 194.36 167.48 194.38 0 194.38-99.14 194.38-167.48 0-69.01 0-168.13-194.38-168.13-194.36 0-194.36 99.12-194.36 167.48v.647zm271.15 1.94v-83.58h13.284c13.284 0 17.81 7.131 17.81 20.415v37.579c0 14.891-4.526 25.589-20.08 25.589h-11.01m45.36 95.89c-.979-6.485-1.958-12.637-1.958-29.15v-34.35c0-10.679-3.88-23.316-16.517-26.882 10.697-3.88 15.556-14.891 15.556-28.17v-42.771c0-14.891-7.132-28.508-25.27-28.508h-28.822v189.84h11.658v-85.52h11.01c14.263 0 20.729 9.404 20.729 24.942v31.427c0 17.496.647 22.355 1.958 29.15h11.658zm-72.57-178.82v-10.679h-49.57v189.5h49.57v-10.679h-37.893v-81.31h27.528v-10.697h-27.528v-76.14h37.893zm-76.77-10.679h-11.658v189.5h11.658v-189.5m-88.11 0h-11.344l23.316 189.5h19.12l23.963-189.5h-11.325l-22.355 179.78" transform="matrix(1.46306 0 0 1.46306 0-1018.32)" filter="url(#0)" fill="#fff"/></svg>