<svg xmlns="http://www.w3.org/2000/svg" viewBox="0 0 599.85 356.34"><path d="m410.1 178.49c0 69.32-.647 177.84-205.06 177.84-204.39.001-205.04-108.52-205.04-177.84 0-69.97.647-178.49 205.04-178.49 204.41 0 205.06 108.52 205.06 177.84v.647zm-399.42 0c0 68.34 0 167.48 194.36 167.48 194.38 0 194.38-99.14 194.38-167.48 0-69.01 0-168.13-194.38-168.13-194.36 0-194.36 99.12-194.36 167.48v.647zm271.15 1.94v-83.58h13.284c13.284 0 17.81 7.132 17.81 20.415v37.579c0 14.891-4.526 25.589-20.08 25.589h-11.01m45.36 95.89c-.979-6.485-1.958-12.637-1.958-29.15v-34.35c0-10.679-3.88-23.316-16.517-26.882 10.697-3.88 15.556-14.891 15.556-28.18v-42.769c0-14.891-7.132-28.508-25.27-28.508h-28.833v189.84h11.658v-85.52h11.01c14.263 0 20.729 9.404 20.729 24.942v31.427c0 17.496.647 22.355 1.958 29.15h11.658zm-72.58-178.82v-10.679h-49.57v189.5h49.57v-10.679h-37.893v-81.31h27.528v-10.697h-27.528v-76.14h37.893zm-76.77-10.679h-11.658v189.5h11.658v-189.5m-88.11 0h-11.344l23.316 189.5h19.12l23.963-189.5h-11.325l-22.355 179.78"/><path fill="#231f20" d="m571.21 268.65h-22.632v-174.32h22.632c13.82 0 20.729 8.794 20.729 23.24v128.15c0 15.704-7.852 22.928-20.729 22.928m25.755-151.07c0-16.96-9.755-27.953-25.755-27.953h-27.639v183.74h27.639c16 0 25.755-10.365 25.755-27.639v-128.14zm-79.81-27.953h-5.03v91.4h-45.542v-91.4h-5.03v183.74h5.03v-87.31h45.542v87.31h5.03"/><g color="#000"><path d="m540.53 86.59v3.03 183.76 3.03h3.03 27.66c8.65 0 16.03-2.9 21.09-8.32 5.07-5.42 7.69-13.16 7.69-22.37v-128.16c0-9.06-2.62-16.84-7.66-22.372-5.04-5.529-12.43-8.594-21.12-8.594h-27.66-3.03zm11.09 10.781h19.6c6.26 0 10.39 1.873 13.22 5.155 2.83 3.28 4.47 8.29 4.47 15.03v128.16c0 7.34-1.83 12.22-4.72 15.28-2.9 3.06-7.1 4.62-12.97 4.62h-19.6v-168.24z"/><path d="m458.5 86.59v3.03 183.75 3.03h3.063 5.03 3.03v-3.03-84.28h39.469v84.28 3.03h3.03 5.03 3.03v-3.03-183.75-3.03h-3.03-5.03-3.03v3.03 88.34h-39.469v-88.34-3.03h-3.03-5.03-3.063"/></g></svg>