<svg xmlns="http://www.w3.org/2000/svg" viewBox="0 0 600 650.45"><g fill="#dd1373"><path d="m2.313.094c-1.349.109-2.359 1.267-2.25 2.594l18.375 223.12-16.875 6.719c-1.218.522-1.813 1.947-1.313 3.188l3.781 10c.5 1.24 1.863 1.863 3.125 1.406l12.593-5.04 14.875 180.6c0 1.371 1.12 2.469 2.469 2.469h28.969c1.349 0 2.438-1.098 2.438-2.469h.031l16.09-206.41 55.845-22.28v228.75c.022 1.327 1.089 2.406 2.438 2.406h14.656c1.327 0 2.394-1.079 2.438-2.406l-.001-236.53 71.03-28.28-.03 234.31c0 7.332-5.959 13.312-13.312 13.312-7.332 0-13.281-5.981-13.281-13.312l-.031-20.938c0-1.371-1.098-2.469-2.469-2.469h-14.625c-1.371 0-2.469 1.098-2.469 2.469v20.938c0 18.14 14.753 32.906 32.875 32.906 18.14 0 32.906-14.762 32.906-32.906 0-.043-.009-131.8-.031-242.12l63.44-25.25v297.91c.043 1.305 1.11 2.375 2.438 2.375h14.656c1.327 0 2.394-1.07 2.438-2.375v-305.69l57.06-22.75c1.24-.5 1.897-1.894 1.375-3.156l-3.813-10.03c-.51-1.259-1.91-1.872-3.17-1.372l-51.47 20.5.031-80.62h55.969c1.371 0 2.438-1.089 2.438-2.438v-14.688c0-1.349-1.067-2.438-2.438-2.438h-73.09c-1.349 0-2.438 1.089-2.438 2.438v105.53l-63.44 25.281v-130.91c-.04-1.298-1.11-2.336-2.44-2.336h-14.625c-1.327 0-2.394 1.038-2.438 2.344l-.03 138.68-71.03 28.29.03-166.88c0-1.349-1.12-2.438-2.469-2.438h-14.656c-1.349 0-2.469 1.089-2.469 2.438l.031 174.69-54.5 21.719 15.29-196.25c.109-1.327-.932-2.485-2.281-2.594h-14.625-.063-.188c-1.219.044-2.257.988-2.344 2.25l-16.344 204.78-27.5 10.94-18.344-215.72c-.087-1.262-1.135-2.207-2.375-2.25h-.156-.094-14.625zm61.719 224.38l-12.406 155.38-12.344-145.53 24.75-9.844z" transform="matrix(1.53024 0 0 1.53024-.083-.143)"/></g></svg>