<svg xmlns="http://www.w3.org/2000/svg" viewBox="0 0 600.4 271.94"><defs><clipPath id="0"><path d="m499.28 171.6h37.14v16.806h-37.14v-16.806"/></clipPath></defs><g transform="translate(-101.94-388.15)"><g clip-path="url(#0)" transform="matrix(16.1571 0 0-16.1571-7964.77 3432.5)" fill="#d8175e"><path d="m0 0l-2.927-4.772c-.087-.142-.14-.393-.118-.558l.897-6.815c.022-.165.174-.282.34-.261l3.272.432c.164.021.282.174.26.339l-1.526 11.593c-.022.165-.111.184-.198.042" transform="translate(513.96 185.46)"/><path d="m0 0l-4.069-.536c-.165-.021-.371-.155-.458-.297l-4.048-6.601c-.087-.142-.176-.123-.197.041l-.768 5.832c-.022.165-.174.283-.339.26l-2.99-.393c-.165-.022-.282-.174-.26-.34l1.526-11.592c.022-.166.174-.282.339-.26l2.99.393c.165.022.371.155.458.297l7.958 12.978c.087.141.023.24-.142.218" transform="translate(512.41 185.49)"/><path d="m0 0l-4.01-.528c-.164-.023-.37-.156-.457-.298l-4.071-6.635c-.087-.142-.176-.122-.198.041l-.771 5.863c-.022.165-.175.283-.34.26l-2.989-.394c-.165-.021-.282-.174-.261-.339l1.527-11.593c.021-.165.174-.281.339-.26l2.959.39c.165.021.371.154.458.297l7.958 12.977c.086.142.023.241-.142.219" transform="translate(528.47 187.61)"/><path d="m0 0l1.766 2.881c.087.141.176.122.197-.043l.335-2.535-2.298-.303m4.637 7.951l-4.068-.536c-.164-.022-.371-.156-.458-.298l-7.94-12.974c-.087-.143-.023-.24.141-.219l4.01.528c.166.022.372.155.459.296l1.156 1.886 4.762.627.215-1.636c.022-.166.175-.283.34-.261l2.99.394c.164.022.281.174.26.34l-1.527 11.593c-.021.164-.174.281-.339.26" transform="translate(529.91 180.46)"/></g></g></svg>