<svg xmlns="http://www.w3.org/2000/svg" width="600" height="271.26" viewBox="0 0 479.99999 217.00847"><path d="m.023.001c73.2-.017 146.4-.009 219.6 0-.018 18.784.192 47.524-.113 66.31-112.68-.048-127.45.242-219.49 0-.035-22.1-.026-44.21 0-66.31" fill="#ca2e3e"/><g fill="#fefefe"><path d="m179.99 16.227c6.977-8.689 21.587-9.06 29.17-.969-1.362 1.511-2.725 3.02-4.104 4.515-3.947-3.283-9.431-5.825-14.531-3.676-8.148 2.829-10.532 14.14-5.502 20.723 2.725 3.938 7.947 5.851 12.575 4.637 3-.541 5.257-2.707 7.859-4.096 1.371.969 2.567 2.183 3.537 3.554-2.01 3.694-6.436 5.571-10.374 6.471-5.947.969-12.523-.297-16.933-4.62-7.397-6.602-8.01-19.01-1.694-26.539"/><path d="m11.856 9.992c2.209.079 4.497-.236 6.663.297 4.166 5.493 7.458 11.615 11.422 17.265 3.807-5.833 7.554-11.693 11.326-17.544 2.262.009 4.524.017 6.794.035.052 12.357.061 24.714-.009 37.07-2.105.009-4.209.017-6.314.035-.183-8.855 0-17.701-.122-26.556-3.982 5.79-7.868 11.649-11.789 17.483-3.904-5.781-7.737-11.597-11.667-17.352-.105 8.698-.061 17.396-.026 26.09-2.078.218-4.166.332-6.261.402-.14-12.409-.114-24.818-.017-37.23"/><path d="m64.36 32.1c-.105-7.362-.07-14.723.035-22.09 2.096.009 4.192.009 6.296 0 .166 7.05 0 14.09.079 21.14.017 3.249.899 6.838 3.65 8.864 3.345 2.34 8.183 2.375 11.545.044 2.76-2.01 3.58-5.589 3.607-8.82.096-7.082-.122-14.164.114-21.238 2.087.009 4.174.026 6.261.035.07 7.519.175 15.05-.026 22.565-.122 5.545-2.943 11.318-8.244 13.571-5.475 2.253-12.235 2.113-17.273-1.188-4.218-2.777-5.973-8.03-6.04-12.881"/><path d="m111.8 16.803c1.773-5.04 7.458-7.536 12.505-7.231 4.716-.07 9.187 1.808 12.933 4.558-1.109 1.581-2.227 3.161-3.353 4.733-3.493-1.93-7.283-4.122-11.44-3.554-3.904-.122-6.777 5.467-3.074 7.763 5.178 3.083 12.08 2.594 16.514 7.03 2.681 2.401 2.55 6.34 2.02 9.58-.987 3.904-4.602 6.593-8.392 7.432-7.01 1.642-14.418-.865-19.841-5.397 1.292-1.511 2.594-3 3.93-4.48 3.799 2.952 8.497 5.336 13.44 4.541 2.236-.384 4.969-1.816 4.812-4.454.192-1.581-.637-3.056-2.078-3.72-4.934-2.698-11.178-2.445-15.605-6.148-3.118-2.524-3.406-7.06-2.367-10.654"/><path d="m153.62 10.21c2.096-.131 4.2-.192 6.296-.245.114 12.418.07 24.836.018 37.25-2.113-.079-4.218-.175-6.322-.367.026-12.208 0-24.425.009-36.642"/></g><path d="m38.41 57.04c114.95-.999 224.41-.692 331.18-.594-.096 62.02-.39 71.43 0 134.71-103.75.035-227.43.008-331.18 0 .079-47.997.188-93.82 0-134.71z" fill="#074480"/><g fill="#fefefe"><path d="m190.82 81.18c9.728-2.01 20.21-.192 28.635 5.091 10.698 6.55 18.04 18.03 20.01 30.372 2.244 13.06-1.38 27.08-10.04 37.16-7.344 8.768-18.496 14.374-29.997 14.453-10.366.271-20.679-3.938-28.14-11.1-9.265-8.707-14.322-21.57-13.771-34.25.052-19.229 14.15-37.952 33.31-41.725"/><path d="m70.16 84.56c8.724-.017 17.439 0 26.16-.026 2.611-.017 5.449.271 7.51 2.043 2.567 2.183 3.554 5.528 4.515 8.628 2.236 7.161 4.558 14.295 6.838 21.448 3.502-10.671 6.864-21.395 10.287-32.08 11.58-.035 23.15-.017 34.73-.009-10.549 26.425-21.17 52.824-31.726 79.25-8.846.018-17.701.018-26.556.009-10.567-26.425-21.12-52.859-31.761-79.26"/></g><path d="m234.22 84.9c11.205-.44 22.06-.55 32.521.009 2.672 1.354 5.406 2.829 7.257 5.275 6.331 8.235 12.453 16.636 18.688 24.958 1.642 2.236 3.563 4.296 4.864 6.777.655 1.633-.402 3.1-1.275 4.384-9.1 12.269-17.771 24.836-26.809 37.15-11.666.465-24.482.298-34.896.114.079-.83.166-1.659.253-2.48 8.872-11.955 17.483-24.11 26.22-36.19-.017-1.048-.035-2.096-.044-3.135-6.41-8.506-12.715-17.08-19-25.683-2.698-3.65-5.545-7.213-7.772-11.178" fill="#ca2e3e"/><path d="m294 84.56c11.955-.017 23.91-.035 35.856.017-8.03 11.06-15.972 22.18-23.997 33.25-6.296-8.07-12.654-16.09-18.915-24.2 2.367-3 4.724-6.03 7.06-9.06" fill="#fefefe"/><path d="m193.65 109.52c5.502-2.236 12.2-.445 15.99 4.069 6.139 6.803 4.934 18.705-2.707 23.901-6.244 4.698-15.937 2.725-20.11-3.799-5.851-7.868-2.524-20.731 6.829-24.17" fill="#074480"/><path d="m479.97 124.2c.026 30.931.052 61.863-.017 92.79-43.35.018-86.71.026-130.06 0 .068-31.04.065-64.45.061-92.79 43.839-.279 91.38-.035 130.01 0" fill="#ca2e3e"/><g fill="#fefefe"><path d="m287.9 152.81c5.956-8.183 11.868-16.383 17.832-24.556 8.733 11.842 17.413 23.727 26.17 35.551-12.02.026-24.05.035-36.07.009-2.611-3.694-5.283-7.344-7.929-11"/><path d="m409.09 140.16c4.742-.009 9.484-.026 14.226-.009 5.353 14.339 10.243 28.844 15.64 43.17 5.423-14.339 10.165-28.94 15.754-43.21 4.55.079 9.09.018 13.64.061-7.676 20.723-15.937 41.24-23.797 61.897-3.834.009-7.667.009-11.501.009-8.03-20.627-16.03-41.25-23.963-61.915"/><path d="m361.11 140.15c14.584.009 29.17-.044 43.742.009 1.703 4.061 3.214 8.2 4.864 12.278-5.877.07-11.745.035-17.623.061-.061 16.365.017 32.731-.035 49.1-4.358.07-4.297.107-13.05 0 .07-16.26.035-32.827.009-49.09-5.982-.044-11.973-.009-17.954-.035.026-4.113 0-8.217.044-12.322"/></g></svg>