<svg xmlns="http://www.w3.org/2000/svg" viewBox="0 0 600 169.17"><defs><clipPath id="0"><path d="m137.09 89.2h25.517v8.01h-25.517v-8.01"/></clipPath></defs><g transform="translate(62.857-250.64)"><g clip-path="url(#0)" transform="matrix(24.41869 0 0-24.41869-3421.33 2597.93)" fill="#1c2c45"><path d="m0 0c.538 0 .892-.238 1.053-.711l.002-.009c.006-.019.015-.05-.004-.083-.021-.033-.059-.045-.086-.05-.221-.047-.769-.129-1.972-.154-.005 0-.092 0-.092 0l.014.068c.077.347.317.93 1.064.938h.021m1.636-1.425c.308.085.316.382.293.553-.172.982-.876 1.545-1.929 1.545h-.036c-.607-.007-1.114-.239-1.467-.672-.311-.383-.479-.899-.473-1.454.014-1.229.905-2.087 2.168-2.088h.03c.408.005.757.074 1.132.226.188.081.486.261.371.56-.052.134-.134.194-.267.194-.136 0-.311-.066-.449-.123-.183-.077-.509-.118-.722-.118h-.025c-.365 0-1.23.103-1.365 1.055l-.009.064h.063c1.603.031 2.3.161 2.685.256" transform="translate(160.17 95.45)"/><path d="m0 0c-.358 0-.669-.113-.9-.327-.272-.253-.434-.652-.434-1.068 0-.415.163-.813.435-1.066.231-.214.542-.328.901-.328.358 0 .669.114.899.328.273.253.435.651.435 1.066 0 .416-.163.815-.436 1.068-.23.214-.542.327-.9.327m0-3.518c-1.296 0-2.201.866-2.201 2.107 0 1.241.905 2.107 2.201 2.107 1.296 0 2.201-.866 2.201-2.107 0-1.241-.905-2.107-2.201-2.107" transform="translate(144.3 95.43)"/><path d="m0 0c-.236 0-.428.192-.428.428 0 .091.028.178.082.251l1.854 2.594c.068.098.069.229 0 .326l-1.85 2.617c-.054.074-.082.161-.082.252 0 .236.192.428.428.428.221 0 .306-.119.446-.317l2.046-2.896c.105-.148.105-.346 0-.494l-2.05-2.872c-.14-.197-.224-.317-.446-.317" transform="translate(147.08 89.2)"/><path d="m0 0c-.156 0-.295.086-.365.225l-1.657 3.353c-.057.116-.054.274.009.394.039.075.087.121.165.161.057.028.115.043.172.043.05 0 .103-.012.155-.035.089-.038.173-.118.216-.203l1.368-2.744c.019-.037.053-.059.093-.063.003 0 .006 0 .009 0 .037 0 .071.018.093.047.039.055.078.111.12.171.448.679.721 1.376.976 2.487.058.252.251.342.398.342.024 0 .049-.002.073-.007.12-.023.213-.08.269-.163.056-.084.072-.194.047-.32-.304-1.515-.734-2.441-1.643-3.54-.078-.094-.192-.148-.314-.148h-.184" transform="translate(139.6 91.93)"/><path d="m0 0c-.031 0-.06-.015-.077-.04l-.824-1.242c-.026-.04-.018-.089 0-.121l.005-.008c.021-.03.057-.048.095-.048h1.472c.033 0 .064.018.08.046.017.028.018.063.002.092 0 0-.175.314-.343.633-.156.293-.304.591-.329.639-.017.029-.045.047-.077.049h-.005m1.937-2.936c-.131 0-.25.06-.328.164-.111.149-.352.562-.352.562h-2.223c-.12 0-.233.058-.304.154l-.412.566c-.088.121-.096.282-.021.411l.002.004c.011.021.021.038.031.053l1.383 2.086c.076.108.201.173.333.173.0001 0 .02 0 .03 0 .141-.011.27-.096.334-.223.067-.13 1.244-2.402 1.766-3.169.031-.045.066-.108.085-.148.043-.089.065-.167.065-.233 0-.032-.003-.061-.009-.093-.021-.107-.057-.165-.136-.225-.071-.053-.156-.081-.244-.081" transform="translate(151.42 94.86)"/><path d="m0 0c-.201 0-.364.165-.364.366 0 .2.163.364.364.364h.824c.297 0 .52-.218.52-.507v-1.027c0-.538-.659-.944-1.533-.944-.669 0-1.174.183-1.589.576-.394.372-.619.924-.619 1.512 0 .778.258 1.35.789 1.75.443.328 1.01.377 1.303.377.07 0 .122-.003.144-.005.009 0 .014 0 .016 0 .065-.002.634-.017 1.068-.15.157-.046.266-.187.266-.349 0-.025-.003-.068-.007-.082-.051-.188-.15-.276-.321-.284-.035-.004-.129.003-.223.022-.237.049-.518.083-.683.083h-.051c-.433 0-1.441-.123-1.441-1.27 0-1.25.853-1.437 1.361-1.437.373 0 .772.172.772.429v.427c0 .051-.035.149-.152.149h-.444" transform="translate(156.29 93.66)"/></g></g></svg>