<svg xmlns="http://www.w3.org/2000/svg" viewBox="0 0 600 232.12"><path fill="#f07f00" d="m368.79 311.27c0-18.08 29.995-24.19 31.31-5v57.15h40.543v-55.24c0-4.333.077-9.207-1.883-18.26-9.03-41.29-59.86-39.2-77.42-13.437-14.13-23.547-47.713-23.16-66.44-7.686v-11.528h-37.24v69.69h-12.302c-11.09 0-18.363-6.577-18.363-20.14v-13.05h19.11v-36.494h-19.11v-36.34l-19.03 36.34h-43.896l-26.797 54.934-21.277-54.934h-43.741l49.34 106.18h32.625l35.1-67.6v14.933c0 30.562 18.16 52.665 51.17 52.665h54.37v-52.18c0-18.492 33.14-24.475 33.14-3.662v55.811h40.801v-52.15z" transform="matrix(1.62868 0 0 1.62868-117.67-359.81)"/></svg>