<svg xmlns="http://www.w3.org/2000/svg" viewBox="0 0 600 142.91"><g transform="matrix(.99999 0 0 .99999-72.25-220.92)"><g fill="#929292"><path d="m564.19 257.56v105.84h51.5c15.681 0 28.869-4.669 39.469-14.03 11.4-10.03 17.09-22.605 17.09-37.719 0-16.48-5.37-29.606-16.12-39.41-10.755-9.801-25.367-14.688-43.781-14.688h-48.16zm17.531 15.938h32.06c11.786 0 21.315 3.437 28.562 10.375 7.273 6.938 10.906 16.08 10.906 27.406 0 10.652-3.399 19.373-10.156 26.16-6.783 6.783-15.415 10.188-25.938 10.188h-35.438v-74.12z"/><path d="m535.42 257.55v43.05h-65.922v-43.05h-17.538v106.28l17.538-34.07v-13.257h65.922v46.888h17.538v-105.85h-17.538z"/></g><path d="m368.79 311.27c0-18.08 29.995-24.19 31.31-5v57.15h40.543v-55.24c0-4.333.077-9.207-1.883-18.26-9.03-41.29-59.861-39.2-77.42-13.437-14.13-23.547-47.713-23.16-66.44-7.686v-11.529h-37.24v69.69h-12.302c-11.09 0-18.363-6.577-18.363-20.14v-13.05h19.11v-36.494h-19.11v-36.34l-19.03 36.34h-43.896l-26.797 54.935-21.278-54.935h-43.741l49.34 106.18h32.626l35.1-67.6v14.933c0 30.562 18.16 52.665 51.17 52.665h54.37v-52.18c0-18.492 33.14-24.476 33.14-3.662v55.812h40.801v-52.15" fill="#f07f00"/></g></svg>