<svg xmlns="http://www.w3.org/2000/svg" viewBox="0 0 600 350.63"><g transform="translate(-346.87-347.22)"><path d="m928.96 506.7l-55.04 3.466v-114.66c0-10.113-7.753-19.07-17.387-20l-482.5-22.92c-14.923-1.471-27.16 7.671-27.16 20.42v174.53c0 12.749 12.234 23.1 27.16 23.1h25.349l-11.07 112.27c-.807 8.238 4.123 14.938 11.04 14.938h529.01c10.195 0 18.515-8.186 18.515-18.269v-156.78c0-9.5-8.06-16.708-17.918-16.1" fill="#ace413"/><g fill="#0080df"><path d="m756.9 462.71c0-23.11 38.35-30.928 40.05-6.371v73.06h51.804v-70.63c0-5.549.112-11.778-2.42-23.355-11.495-52.775-76.52-50.12-98.96-17.201-18.08-30.07-61.02-29.599-84.95-9.814v-14.743h-47.569v89.12h-15.722c-14.183 0-23.46-8.417-23.46-25.752v-16.7h24.416v-46.665h-24.416v-46.43l-24.378 46.43h-56.11l-34.25 70.24-27.2-70.24h-55.927l63.07 135.75h41.698l44.903-86.41v19.1c0 39.07 23.22 67.32 65.43 67.32h69.43v-66.69c0-23.639 42.39-31.3 42.39-4.675v71.33h52.17v-66.66z"/><path d="m565.16 621.63l-15.169.359 30.31-47.35c1.374-2.136 1.628-4.974.657-7.297-.956-2.315-2.958-3.69-5.176-3.555l-62.63 3.578c-2.629.149-4.84 2.622-5.251 5.848l-3.077 24.318c-.239 1.919.187 3.832 1.21 5.243.993 1.427 2.465 2.218 4 2.181l11.487-.388-28.2 45.821c-1.217 1.979-1.442 4.631-.553 6.864.874 2.233 2.689 3.652 4.675 3.63l64.35-.037c2.786 0 5.146-2.427 5.594-5.744l3.398-25.723c.261-1.964-.232-3.966-1.307-5.46-1.068-1.479-2.651-2.323-4.317-2.293"/><path d="m473.36 615.01l22.362-36.03c1.247-2.024 1.494-4.728.612-6.961-.859-2.211-2.681-3.54-4.683-3.421l-24.677 1.397c-1.628.097-3.167 1.202-4.108 2.965l-5.392 10.09.695-5.04c.254-1.882-.149-3.772-1.09-5.154-.949-1.389-2.338-2.136-3.802-2.061l-21.04 1.21c-2.383.134-4.384 2.472-4.765 5.549l-9.164 76.22c-.224 1.808.172 3.622 1.068 5.01.911 1.382 2.233 2.181 3.622 2.181l20.801-.015c2.45 0 4.511-2.338 4.847-5.467l1.038-9.515 3.548 11.04c.754 2.375 2.569 3.921 4.601 3.921l25.947-.015c1.8 0 3.473-1.173 4.407-3.115.941-1.949 1.01-4.362.172-6.363l-14.997-36.425z"/><path d="m908.71 552.87c-.052-4.474-3.682-7.902-8.134-7.641l-35.888 2.032c-3.092.172-5.863 2.188-7.125 5.146l-9.978 23.534-2.084-20.48c-.418-4.01-3.697-6.886-7.611-6.655l-34.08 1.942c-3.189.194-6.01 2.51-6.976 5.758l-28.04 94.24c-.695 2.338-.329 4.862 1.016 6.819 1.322 1.964 3.458 3.129 5.751 3.129l31.06-.022c3.368 0 6.334-2.42 7.17-5.87l3.249-13.242 1.778 12.436c.545 3.824 3.697 6.655 7.417 6.655l19.643-.022c2.965 0 5.661-1.763 6.938-4.511l7.215-15.423-.777 11.405c-.149 2.203.62 4.377 2.076 5.975 1.486 1.628 3.57 2.547 5.714 2.547l34.12-.022c2.159-.03 4.257-.859 5.781-2.42 1.539-1.561 2.375-3.63 2.375-5.803l-.612-99.51"/><path d="m627.52 611.3c-.747 5.706-4.03 9.216-8.582 9.157-4.556-.075-6.916-3.682-6.132-9.426.635-4.713 3.563-9.396 8.626-9.291 3.368.075 6.991 2.607 6.087 9.56m-1.815-51.736c-12.391.71-24.326 6.184-33.64 15.326-9.627 9.478-15.931 22.444-17.783 36.605-1.837 13.967.657 26.16 7.29 35.3 7.14 9.896 18.523 15.371 32.14 15.371 12.525 0 24.752-4.698 34.416-13.339 10.501-9.366 17.223-22.466 19.359-37.815 2.01-14.482-.941-27.709-8.283-37.13-7.827-10.06-19.77-15.13-33.498-14.318"/><path d="m731.16 608.24c-.837 6.05-4.526 9.777-9.665 9.71-5.139-.075-7.797-3.929-6.916-9.993.724-5 4.01-9.963 9.724-9.859 3.802.075 7.865 2.778 6.856 10.143m35.04-39.615c-8.791-10.598-22.16-15.924-37.553-15.03-13.877.792-27.22 6.64-37.598 16.319-10.755 10.03-17.783 23.758-19.882 38.741-2.061 14.721.754 27.59 8.134 37.26 7.977 10.471 20.681 16.252 35.918 16.252 14.02 0 27.732-4.989 38.554-14.1 11.778-9.948 19.329-23.848 21.742-40.09 2.248-15.371-1.083-29.382-9.314-39.35"/></g></g></svg>