<svg xmlns="http://www.w3.org/2000/svg" xmlns:xlink="http://www.w3.org/1999/xlink" viewBox="0 0 600 292.01"><defs><linearGradient id="4"><stop stop-color="#979797"/><stop offset="1" stop-color="#0b0b0b"/></linearGradient><linearGradient id="3"><stop stop-color="#a6a6a6"/><stop offset="1" stop-color="#e9e9e9"/></linearGradient><linearGradient x1="542.07" y1="-2320.99" x2="1318.77" y2="-2507.18" id="5" xlink:href="#3" gradientUnits="userSpaceOnUse"/><linearGradient x1="2640.16" y1="-2074.58" x2="222.47" y2="-1961.23" id="0" xlink:href="#3" gradientUnits="userSpaceOnUse"/><linearGradient x1="3748.74" y1="-1427.34" x2="1550.05" y2="-2543.59" id="2" xlink:href="#4" gradientUnits="userSpaceOnUse"/><linearGradient x1="1297.5" y1="-2309.57" x2="973.51" y2="-2474.06" id="1" xlink:href="#4" gradientUnits="userSpaceOnUse"/><radialGradient cx="2122.04" cy="-2230.56" r="408.67" id="8" xlink:href="#4" gradientUnits="userSpaceOnUse" gradientTransform="matrix(1.22979 0 0 1.06038-492.94 125.12)"/><radialGradient cx="1428.63" cy="-2174.53" r="1161.23" id="7" xlink:href="#3" gradientUnits="userSpaceOnUse" gradientTransform="matrix(.1407.02213-.02501.15903 702.67-2105.86)"/><radialGradient cx="1428.63" cy="-2174.53" r="1161.23" id="6" xlink:href="#3" gradientUnits="userSpaceOnUse" gradientTransform="matrix(.95479.15017-.16974 1.0792-287.93-44.902)"/><radialGradient cx="2122.04" cy="-2230.56" r="408.67" id="9" xlink:href="#4" gradientUnits="userSpaceOnUse" gradientTransform="matrix(.18122 0 0 .15626 672.46-2080.8)"/></defs><g transform="matrix(1.73896 0 0 1.73896-1352.7 4328.12)"><g transform="matrix(.14736 0 0 .14736 745.1-2099.24)"><path d="m2016.83-2487.78c-19.55 0-38.636.866-57.22 2.586-61.44 5.686-117.37 20.721-166.32 44.813-96.09 47.29-153.46 123.63-165.19 219.8-2.272 18.618-2.299 44.21-.405 66.25.755 8.792 1.816 17.02 3.162 24.01 17.382 90.33 82.997 157.5 182.95 187.28 60.46 18.01 139.58 22.22 201.91 10.755 41.944-7.713 85.61-25.19 119.03-47.617 9.206-6.178 14.761-9.241 15.46-8.535.699.705-.471 7.123-3.253 17.853-17.03 65.66-44.686 107.17-85.45 128.28-5.591 2.896-13.723 6.554-18.09 8.129-37.562 13.534-93.86 11.949-124.48-3.502-15.802-7.972-29.889-21.563-36.03-34.767l-3.563-7.691-121.94-.031c-98.09-.018-121.94.267-121.94 1.438 0 .801 1.488 7.61 3.315 15.13 9.584 39.459 26.1 72.13 51.46 101.77 51.25 59.907 136.19 95.73 247.39 104.3 20.06 1.547 91.72.531 109.77-1.563 100.72-11.688 178.51-46.04 239.24-105.68 47.33-46.48 80.75-105.01 100.85-176.52 21.893-77.919 26.653-173.26 12.424-249.56-14.724-78.946-48.711-145.5-99.7-195.32-16.303-15.929-26.875-24.472-47.49-38.36-30.29-20.405-64.48-35.898-102.44-46.44-40.29-11.194-84.82-16.811-133.42-16.807zm-9.08 193.47c11.859 0 23.692.724 30.331 2.189 27.696 6.109 49.36 17.353 67.42 34.955 19.854 19.352 30.695 34.959 32.1 61.847 1.763 33.8-12.821 55.926-41.453 77.6-25.772 19.513-68.92 30.787-104.78 27.389-36.859-3.494-70.69-19.456-93.04-43.928-31.944-34.987-34.936-66.36-7.683-105.12 5.929-8.431 20.458-22.601 29.68-28.921 15.361-10.527 36.788-19.487 56.913-23.824 6.776-1.46 18.658-2.192 30.517-2.189z" fill="url(#8)" stroke="url(#2)" stroke-linejoin="round" stroke-linecap="round" stroke-width="35.7"/><path d="m407.59-2643.84c-112.83 0-185.54-1.137-185.12 0 .285.785 67.26 262.64 148.81 567.94l148.25 571.09h353.75l25.75-34c19.979-117.55 37.07-200.9 58.5-318.19l51.969-282.72 40.16 283.03c26.08 183.79 61.695 350.78 62 351.87h337.37c4.422-17.489 7.62-35.23 12.906-52.53 29.08-80.75 52.44-167.31 67.66-226.59 2.417-9.418-15.13-17.14-14.531-17.16.596-.015 5.602 7.138 11.125 15.906 74.55 118.34 167.97 209.5 287.06 249.28 115.54 36.15 226.55 32.99 344.78 11.906 144.49-29.02 253.11-117.59 323.94-241.53 44.32-77.56 73.23-176.1 81.12-276.41 1.679-21.33.713-77.36-1.781-102.19-10.245-101.94-39.891-187.78-88.87-257.41-30.3-43.07-73.46-86.06-117.5-118.22-78.19-57.11-212.48-107.48-333.62-118.28-57.43-5.121-147.13-5.25-268.09-5.25h-298.75l-89.97 339.91c-49.48 181.45-83.35 292-85.06 298.24-2.34 8.538-3.347 10.793-4.03 9.125-.5-1.22-23.497-110.71-60.906-295.93-37.409-185.22-68.31-349.93-68.66-351.34h-311.62c-.321 1.099-32.713 166.77-72 354.19-39.29 187.42-71.844 341.74-72.34 342.94-1.116 2.684 56.13 39.457-52.09-348.06-36.461-133.19-59.51-228.79-73.31-281.72l-49.22-67.906h-.031-107.62m1607.72 155c95.2-.001 174.92 21.17 237.91 63.22 20.798 13.883 31.462 22.423 47.906 38.34 51.43 49.794 85.71 116.31 100.56 195.22 14.353 76.26 9.552 171.56-12.531 249.44-20.267 71.48-53.977 129.98-101.72 176.44-61.25 59.61-139.72 93.94-241.31 105.62-18.2 2.093-90.48 3.109-110.72 1.563-112.16-8.572-197.84-44.37-249.53-104.25-25.578-29.627-42.24-62.28-51.906-101.72-1.843-7.519-3.344-14.324-3.344-15.12 0-1.171 24.06-1.456 123-1.438l127 .031 3.594 7.688c6.197 13.197 16.405 26.782 32.34 34.75 30.892 15.443 87.67 17.03 125.56 3.5 4.408-1.574 12.611-5.231 18.25-8.125 41.11-21.1 69.01-62.59 86.19-128.22 2.806-10.724 3.986-17.14 3.281-17.844-.705-.705-6.309 2.357-15.594 8.531-33.71 22.417-77.76 39.884-120.06 47.594-62.868 11.456-142.67 7.255-203.66-10.75-100.81-29.764-167-96.91-184.53-187.19-4.761-24.518-5.987-64.19-2.781-90.22 11.836-96.12 69.7-172.42 166.62-219.69 64.3-31.362 140.55-47.37 225.47-47.37" fill="url(#0)"/><path d="m1951.41-1520.92c-40.42-3.094-82.23-11.644-122.17-24.985-119.1-39.781-218.5-120.94-293.04-239.28-5.523-8.768-10.53-15.93-11.126-15.915-.596.015-3.061 7.733-5.478 17.15-15.215 59.29-42.597 145.85-71.68 226.6-5.766 16.01-11.03 30.779-11.692 32.82l-1.208 3.71h-162.4c-153.7 0-162.43-.107-162.96-1.998-.305-1.099-28.2-151.34-61.996-333.86-33.793-182.52-61.766-331.5-62.16-331.05-.397.445-28.28 149.27-61.964 330.72-33.682 181.45-61.53 331.32-61.879 333.05l-.638 3.139h-165.74-165.74l-148.27-555.08c-81.55-305.3-148.51-557.15-148.79-557.94-.413-1.137 28.29 0 141.12 0h141.64l1.688 5.993c.928 3.296 40.01 153.43 86.85 333.62 102.27 393.47 90.97 350.76 92.09 348.08.5-1.202 37.05-155.53 76.34-342.94 39.29-187.42 67.69-343.65 68.01-344.75h296.99c23.39 113.9 46.26 227.92 69.28 341.9 37.409 185.22 68.43 337.76 68.927 338.98.684 1.668 1.68-.594 4.02-9.132 1.711-6.243 43.593-159.81 93.07-341.26l89.96-329.91h256.73c270.46 0 266.05-.074 312.09 5.246 119.86 13.848 231.66 53.15 313.64 110.26 44.744 31.17 87.19 73.16 117.49 116.23 48.985 69.63 78.62 155.48 88.87 257.42 2.495 24.825 3.485 80.84 1.806 102.17-7.896 100.31-36.821 198.84-81.14 276.4-70.823 123.94-181.46 202.54-325.94 231.56-38.5 7.733-72.63 11.274-126.71 13.148-36.881 1.278-50.32 1.261-67.901-.085m94.73-139.65c101.6-11.682 180.04-46.02 241.29-105.63 47.742-46.46 81.47-104.95 101.74-176.43 22.08-77.881 26.861-173.17 12.508-249.43-14.851-78.907-49.12-145.44-100.55-195.23-16.444-15.921-27.11-24.458-47.909-38.34-62.985-42.04-142.7-63.23-237.9-63.22-84.92.001-161.16 16.03-225.46 47.39-12.186 5.943-23.754 12.345-34.691 19.19-76.05 47.582-121.59 116.47-131.94 200.5-3.206 26.03-1.985 65.7 2.776 90.22 17.532 90.28 83.71 157.41 184.52 187.17 60.983 18 140.78 22.22 203.64 10.767 42.31-7.709 86.37-25.17 120.08-47.587 9.285-6.175 14.876-9.235 15.581-8.53.705.705-.471 7.101-3.277 17.825-17.17 65.63-45.05 107.12-86.17 128.22-5.639 2.894-13.86 6.55-18.268 8.124-37.888 13.528-94.66 11.947-125.55-3.496-15.939-7.968-30.14-21.55-36.34-34.747l-3.615-7.699-123-.023c-98.94-.018-123 .262-123 1.433 0 .801 1.508 7.607 3.351 15.13 9.667 39.44 26.336 72.1 51.914 101.73 51.695 59.878 137.37 95.67 249.53 104.24 20.236 1.547 92.53.52 110.73-1.573m-56.51-423.01c-37.18-3.492-71.3-19.464-93.84-43.925-32.22-34.97-35.26-82.32-7.771-121.06 5.98-8.427 20.655-22.586 29.957-28.903 15.495-10.522 37.08-19.483 57.38-23.819 13.67-2.919 47.987-2.91 61.38.018 27.936 6.106 49.794 17.331 68.01 34.923 20.03 19.343 30.968 42.93 32.383 69.806 1.778 33.784-12.945 63.908-41.825 85.58-25.995 19.504-69.51 30.777-105.68 27.38" fill="url(#6)"/></g><path d="m1042.29-2465.84c-2.881 0-5.693.128-8.431.381-9.05.838-17.295 3.053-24.508 6.604-14.159 6.969-22.613 18.218-24.343 32.389-.335 2.744-.339 6.515-.06 9.762.111 1.296.268 2.508.466 3.539 2.561 13.31 12.23 23.21 26.959 27.597 8.909 2.654 20.568 3.274 29.753 1.585 6.181-1.137 12.616-3.712 17.54-7.02 1.357-.91 2.175-1.362 2.278-1.258.103.104-.069 1.05-.479 2.631-2.509 9.676-6.585 15.792-12.591 18.903-.824.427-2.02.966-2.666 1.198-5.535 1.994-13.831 1.761-18.344-.516-2.329-1.175-4.404-3.178-5.31-5.123l-.525-1.133h-17.969c-14.455 0-17.969.039-17.969.212 0 .118.219 1.121.489 2.23 1.412 5.815 3.846 10.629 7.583 14.997 7.552 8.828 20.07 14.11 36.455 15.37 2.956.228 13.516.078 16.18-.23 14.842-1.722 26.305-6.785 35.25-15.572 6.975-6.85 11.899-15.474 14.86-26.01 3.226-11.482 3.928-25.532 1.831-36.775-2.17-11.633-7.178-21.44-14.691-28.781-2.402-2.347-3.96-3.606-6.999-5.653-4.464-3.01-9.502-5.29-15.1-6.844-5.937-1.649-12.499-2.477-19.661-2.477zm-1.338 28.509c1.747 0 3.491.107 4.469.322 4.081.9 7.273 2.557 9.934 5.151 2.926 2.852 4.523 5.151 4.73 9.114.26 4.981-1.889 8.241-6.109 11.436-3.798 2.876-10.156 4.537-15.44 4.04-5.431-.515-10.417-2.867-13.71-6.473-4.707-5.156-5.148-9.779-1.132-15.491.874-1.242 3.01-3.33 4.374-4.262 2.264-1.551 5.421-2.872 8.387-3.511.999-.215 2.749-.323 4.497-.322z" fill="url(#9)" stroke="url(#1)" stroke-linejoin="round" stroke-linecap="round" stroke-width="5.261"/><path d="m805.16-2488.83c-16.626 0-27.341-.168-27.28 0 .042.116 9.912 38.702 21.929 83.69l21.846 84.16h52.13l3.794-5.01c2.944-17.321 5.462-29.604 8.62-46.887l7.658-41.661 5.917 41.707c3.842 27.08 9.09 51.69 9.136 51.852h49.715c.652-2.577 1.123-5.191 1.902-7.741 4.285-11.899 7.728-24.654 9.97-33.39.356-1.388-2.229-2.526-2.141-2.528.088 0 .825 1.052 1.639 2.344 10.985 17.438 24.751 30.872 42.3 36.733 17.03 5.328 33.384 4.861 50.806 1.755 21.292-4.276 37.3-17.327 47.735-35.591 6.531-11.429 10.791-25.95 11.954-40.731.247-3.143.105-11.4-.262-15.06-1.51-15.02-5.878-27.67-13.1-37.931-4.465-6.346-10.825-12.681-17.314-17.421-11.523-8.415-31.31-15.838-49.16-17.43-8.462-.755-21.681-.774-39.506-.774h-44.02l-13.258 50.09c-7.291 26.738-12.283 43.03-12.535 43.948-.345 1.258-.493 1.59-.594 1.345-.074-.18-3.462-16.314-8.975-43.608-5.513-27.29-10.07-51.565-10.117-51.773h-45.92c-.047.162-4.821 24.575-10.61 52.19-5.789 27.617-10.587 50.36-10.66 50.53-.164.396 8.271 5.814-7.676-51.29-5.373-19.626-8.769-33.714-10.803-41.514l-7.253-10.01h-.005-15.859m236.91 22.84c14.03 0 25.776 3.12 35.06 9.316 3.065 2.046 4.636 3.304 7.06 5.65 7.579 7.338 12.63 17.14 14.819 28.767 2.115 11.238 1.408 25.28-1.847 36.756-2.986 10.533-7.954 19.15-14.989 25.999-9.03 8.784-20.588 13.843-35.559 15.565-2.682.308-13.333.458-16.315.23-16.528-1.263-29.15-6.539-36.77-15.362-3.769-4.366-6.224-9.177-7.649-14.989-.272-1.108-.493-2.111-.493-2.229 0-.173 3.545-.215 18.13-.212h18.714l.53 1.133c.913 1.945 2.417 3.947 4.766 5.121 4.552 2.276 12.92 2.509 18.503.516.65-.232 1.858-.771 2.689-1.197 6.06-3.11 10.17-9.223 12.7-18.894.414-1.58.587-2.526.484-2.629-.104-.104-.93.347-2.298 1.257-4.967 3.303-11.458 5.877-17.692 7.01-9.264 1.688-21.02 1.069-30.01-1.584-14.856-4.386-24.609-14.28-27.19-27.584-.702-3.613-.882-9.458-.41-13.294 1.744-14.164 10.272-25.407 24.553-32.373 9.476-4.622 20.711-6.98 33.22-6.981z" fill="url(#5)"/><path d="m1032.65-2323.36c-5.957-.456-12.12-1.716-18-3.682-17.55-5.862-32.2-17.822-43.18-35.26-.814-1.292-1.552-2.347-1.639-2.345-.088 0-.451 1.14-.807 2.527-2.242 8.736-6.277 21.492-10.562 33.391-.85 2.359-1.625 4.536-1.723 4.836l-.178.547h-23.931c-22.649 0-23.936-.016-24.01-.294-.045-.162-4.156-22.3-9.136-49.2-4.98-26.896-9.102-48.849-9.16-48.783-.059.066-4.167 21.996-9.131 48.734-4.963 26.738-9.07 48.823-9.118 49.08l-.094.463h-24.423-24.423l-21.849-81.8c-12.02-44.988-21.884-82.1-21.926-82.22-.061-.168 4.169 0 20.796 0h20.872l.249.883c.137.486 5.896 22.608 12.798 49.16 15.07 57.981 13.406 51.688 13.57 51.29.074-.177 5.46-22.918 11.249-50.54 5.789-27.617 9.975-50.64 10.02-50.802h43.763c3.447 16.784 6.816 33.586 10.209 50.38 5.513 27.29 10.08 49.771 10.157 49.951.101.246.248-.088.592-1.346.252-.92 6.424-23.549 13.715-50.29l13.257-48.615h37.831c39.854 0 39.2-.011 45.99.773 17.662 2.041 34.14 7.832 46.22 16.248 6.593 4.593 12.849 10.781 17.313 17.13 7.218 10.26 11.585 22.911 13.1 37.933.368 3.658.514 11.912.266 15.06-1.164 14.781-5.426 29.3-11.956 40.729-10.436 18.264-26.739 29.846-48.03 34.12-5.673 1.14-10.703 1.661-18.672 1.937-5.435.188-7.415.186-10.01-.012m13.959-20.579c14.971-1.721 26.53-6.781 35.556-15.565 7.04-6.846 12.01-15.465 14.992-25.998 3.254-11.476 3.958-25.518 1.843-36.756-2.188-11.628-7.238-21.432-14.816-28.769-2.423-2.346-3.995-3.604-7.06-5.65-9.281-6.196-21.03-9.317-35.06-9.316-12.514 0-23.747 2.362-33.22 6.984-1.796.876-3.5 1.819-5.112 2.827-11.207 7.01-17.917 17.16-19.442 29.546-.472 3.836-.292 9.681.409 13.294 2.583 13.303 12.335 23.2 27.19 27.581 8.986 2.653 20.745 3.275 30.01 1.587 6.234-1.136 12.727-3.709 17.694-7.01 1.368-.91 2.192-1.361 2.296-1.257.104.104-.069 1.046-.483 2.627-2.531 9.671-6.639 15.785-12.697 18.894-.831.427-2.042.965-2.692 1.197-5.583 1.993-13.948 1.76-18.5-.515-2.349-1.174-4.442-3.175-5.355-5.12l-.533-1.135h-18.13c-14.58 0-18.13.039-18.13.211 0 .118.222 1.121.494 2.229 1.425 5.812 3.881 10.625 7.65 14.991 7.618 8.823 20.243 14.1 36.77 15.361 2.982.228 13.635.077 16.317-.232zm-8.327-62.33c-5.478-.515-10.507-2.868-13.828-6.473-4.748-5.153-5.196-12.13-1.145-17.839.881-1.242 3.044-3.328 4.414-4.259 2.283-1.55 5.465-2.871 8.456-3.51 2.01-.43 7.07-.429 9.04 0 4.117.9 7.338 2.554 10.02 5.146 2.951 2.85 4.563 6.326 4.772 10.286.262 4.978-1.908 9.417-6.163 12.61-3.831 2.874-10.242 4.535-15.572 4.03z" fill="url(#7)"/></g></svg>