<svg xmlns="http://www.w3.org/2000/svg" xmlns:xlink="http://www.w3.org/1999/xlink" viewBox="0 0 600 167.92"><defs><linearGradient x1="-449.92" y1="-2165.55" x2="1764.74" y2="-2696.46" id="6" xlink:href="#4" gradientUnits="userSpaceOnUse"/><linearGradient id="4"><stop stop-color="#a6a6a6"/><stop offset="1" stop-color="#e9e9e9"/></linearGradient><linearGradient x1="3748.74" y1="-1427.34" x2="1550.05" y2="-2543.59" id="3" xlink:href="#5" gradientUnits="userSpaceOnUse"/><linearGradient id="5"><stop stop-color="#979797"/><stop offset="1" stop-color="#0b0b0b"/></linearGradient><linearGradient x1="1704.11" y1="-2132.99" x2="780.28" y2="-2602.01" id="0" xlink:href="#5" gradientUnits="userSpaceOnUse"/><linearGradient x1="2341.73" x2="942.06" id="2" xlink:href="#4" gradientUnits="userSpaceOnUse"/><linearGradient x1="2640.16" y1="-2074.58" x2="222.47" y2="-1961.23" id="1" xlink:href="#4" gradientUnits="userSpaceOnUse"/><radialGradient cx="2122.04" cy="-2230.56" r="408.67" id="9" xlink:href="#5" gradientUnits="userSpaceOnUse" gradientTransform="matrix(1.22979 0 0 1.06038-492.94 125.12)"/><radialGradient cx="1428.63" cy="-2174.53" r="1161.23" id="8" xlink:href="#4" gradientUnits="userSpaceOnUse" gradientTransform="matrix(.40118.0631-.07132.45345 8.01-1552.13)"/><radialGradient cx="1428.63" cy="-2174.53" r="1161.23" id="7" xlink:href="#4" gradientUnits="userSpaceOnUse" gradientTransform="matrix(.95479.15017-.16974 1.0792-287.93-44.902)"/><radialGradient cx="2122.04" cy="-2230.56" r="408.67" id="A" xlink:href="#5" gradientUnits="userSpaceOnUse" gradientTransform="matrix(.51673 0 0 .44554-78.13-1480.69)"/></defs><g transform="matrix(.35071 0 0 .35071-78.02 927.39)"><path d="m1187.79-2593.37c16.567 13.28 31.844 29.329 43.37 45.719 22.96 32.636 36.854 72.875 41.656 120.66 1.169 11.636 1.631 37.877.844 47.875-3.701 47.02-17.259 93.21-38.03 129.56-17.726 31.02-40.775 55.964-68.72 74.56h557.19c115.47 0 209.19-93.72 209.19-209.19 0-115.47-93.72-209.19-209.19-209.19h-536.31m140.53 74.37h76.5v96h83.69v-96h77.34v274.91h-77.34v-112h-83.69v112h-76.5v-274.91m270.16 0h124.91c98.06 0 125.89 78.79 126.22 137.44.325 58.65-33.33 137.47-126.22 137.47h-124.91v-274.91m71.72 62.16v142.25h38.25c58.667 0 66.49-41.488 66.937-71.12.451-29.637-15.16-71.12-66.937-71.12h-38.25" fill="#434343" fill-rule="evenodd"/><g transform="matrix(.42017 0 0 .42017 128.99-1533.27)"><path d="m2016.83-2487.78c-19.55 0-38.636.866-57.22 2.586-61.44 5.686-117.37 20.721-166.32 44.813-96.09 47.29-153.46 123.63-165.19 219.8-2.272 18.618-2.299 44.21-.405 66.25.755 8.792 1.816 17.02 3.162 24.01 17.382 90.33 82.997 157.5 182.95 187.28 60.46 18.01 139.58 22.22 201.91 10.755 41.944-7.713 85.61-25.19 119.03-47.617 9.206-6.178 14.761-9.241 15.46-8.535.699.705-.471 7.123-3.253 17.853-17.03 65.66-44.686 107.17-85.45 128.28-5.591 2.896-13.723 6.554-18.09 8.129-37.562 13.534-93.86 11.949-124.48-3.502-15.802-7.972-29.889-21.563-36.03-34.767l-3.563-7.691-121.94-.031c-98.09-.018-121.94.267-121.94 1.438 0 .801 1.488 7.61 3.315 15.13 9.584 39.459 26.1 72.13 51.46 101.77 51.25 59.907 136.19 95.73 247.39 104.3 20.06 1.547 91.72.531 109.77-1.563 100.72-11.688 178.51-46.04 239.24-105.68 47.33-46.48 80.75-105.01 100.85-176.52 21.893-77.919 26.653-173.26 12.424-249.56-14.724-78.946-48.711-145.5-99.7-195.32-16.303-15.929-26.875-24.472-47.49-38.36-30.29-20.405-64.48-35.898-102.44-46.44-40.29-11.194-84.82-16.811-133.42-16.807zm-9.08 193.47c11.859 0 23.692.724 30.331 2.189 27.696 6.109 49.36 17.353 67.42 34.955 19.854 19.352 30.695 34.959 32.1 61.847 1.763 33.8-12.821 55.926-41.453 77.6-25.772 19.513-68.92 30.787-104.78 27.389-36.859-3.494-70.69-19.456-93.04-43.928-31.944-34.987-34.936-66.36-7.683-105.12 5.929-8.431 20.458-22.601 29.68-28.921 15.361-10.527 36.788-19.487 56.913-23.824 6.776-1.46 18.658-2.192 30.517-2.189z" fill="url(#9)" stroke="url(#3)" stroke-linejoin="round" stroke-linecap="round" stroke-width="35.7"/><path d="m407.59-2643.84c-112.83 0-185.54-1.137-185.12 0 .285.785 67.26 262.64 148.81 567.94l148.25 571.09h353.75l25.75-34c19.979-117.55 37.07-200.9 58.5-318.19l51.969-282.72 40.16 283.03c26.08 183.79 61.695 350.78 62 351.87h337.37c4.422-17.489 7.62-35.23 12.906-52.53 29.08-80.75 52.44-167.31 67.66-226.59 2.417-9.418-15.13-17.14-14.531-17.16.596-.015 5.602 7.138 11.125 15.906 74.55 118.34 167.97 209.5 287.06 249.28 115.54 36.15 226.55 32.99 344.78 11.906 144.49-29.02 253.11-117.59 323.94-241.53 44.32-77.56 73.23-176.1 81.12-276.41 1.679-21.33.713-77.36-1.781-102.19-10.245-101.94-39.891-187.78-88.87-257.41-30.3-43.07-73.46-86.06-117.5-118.22-78.19-57.11-212.48-107.48-333.62-118.28-57.43-5.121-147.13-5.25-268.09-5.25h-298.75l-89.97 339.91c-49.48 181.45-83.35 292-85.06 298.24-2.34 8.538-3.347 10.793-4.03 9.125-.5-1.22-23.497-110.71-60.906-295.93-37.409-185.22-68.31-349.93-68.66-351.34h-311.62c-.321 1.099-32.713 166.77-72 354.19-39.29 187.42-71.844 341.74-72.34 342.94-1.116 2.684 56.13 39.457-52.09-348.06-36.461-133.19-59.51-228.79-73.31-281.72l-49.22-67.906h-.031-107.62m1607.72 155c95.2-.001 174.92 21.17 237.91 63.22 20.798 13.883 31.462 22.423 47.906 38.34 51.43 49.794 85.71 116.31 100.56 195.22 14.353 76.26 9.552 171.56-12.531 249.44-20.267 71.48-53.977 129.98-101.72 176.44-61.25 59.61-139.72 93.94-241.31 105.62-18.2 2.093-90.48 3.109-110.72 1.563-112.16-8.572-197.84-44.37-249.53-104.25-25.578-29.627-42.24-62.28-51.906-101.72-1.843-7.519-3.344-14.324-3.344-15.12 0-1.171 24.06-1.456 123-1.438l127 .031 3.594 7.688c6.197 13.197 16.405 26.782 32.34 34.75 30.892 15.443 87.67 17.03 125.56 3.5 4.408-1.574 12.611-5.231 18.25-8.125 41.11-21.1 69.01-62.59 86.19-128.22 2.806-10.724 3.986-17.14 3.281-17.844-.705-.705-6.309 2.357-15.594 8.531-33.71 22.417-77.76 39.884-120.06 47.594-62.868 11.456-142.67 7.255-203.66-10.75-100.81-29.764-167-96.91-184.53-187.19-4.761-24.518-5.987-64.19-2.781-90.22 11.836-96.12 69.7-172.42 166.62-219.69 64.3-31.362 140.55-47.37 225.47-47.37" fill="url(#1)"/><path d="m1951.41-1520.92c-40.42-3.094-82.23-11.644-122.17-24.985-119.1-39.781-218.5-120.94-293.04-239.28-5.523-8.768-10.53-15.93-11.126-15.915-.596.015-3.061 7.733-5.478 17.15-15.215 59.29-42.597 145.85-71.68 226.6-5.766 16.01-11.03 30.779-11.692 32.82l-1.208 3.71h-162.4c-153.7 0-162.43-.107-162.96-1.998-.305-1.099-28.2-151.34-61.996-333.86-33.793-182.52-61.766-331.5-62.16-331.05-.397.445-28.28 149.27-61.964 330.72-33.682 181.45-61.53 331.32-61.879 333.05l-.638 3.139h-165.74-165.74l-148.27-555.08c-81.55-305.3-148.51-557.15-148.79-557.94-.413-1.137 28.29 0 141.12 0h141.64l1.688 5.993c.928 3.296 40.01 153.43 86.85 333.62 102.27 393.47 90.97 350.76 92.09 348.08.5-1.202 37.05-155.53 76.34-342.94 39.29-187.42 67.69-343.65 68.01-344.75h296.99c23.39 113.9 46.26 227.92 69.28 341.9 37.409 185.22 68.43 337.76 68.927 338.98.684 1.668 1.68-.594 4.02-9.132 1.711-6.243 43.593-159.81 93.07-341.26l89.96-329.91h256.73c270.46 0 266.05-.074 312.09 5.246 119.86 13.848 231.66 53.15 313.64 110.26 44.744 31.17 87.19 73.16 117.49 116.23 48.985 69.63 78.62 155.48 88.87 257.42 2.495 24.825 3.485 80.84 1.806 102.17-7.896 100.31-36.821 198.84-81.14 276.4-70.823 123.94-181.46 202.54-325.94 231.56-38.5 7.733-72.63 11.274-126.71 13.148-36.881 1.278-50.32 1.261-67.901-.085m94.73-139.65c101.6-11.682 180.04-46.02 241.29-105.63 47.742-46.46 81.47-104.95 101.74-176.43 22.08-77.881 26.861-173.17 12.508-249.43-14.851-78.907-49.12-145.44-100.55-195.23-16.444-15.921-27.11-24.458-47.909-38.34-62.985-42.04-142.7-63.23-237.9-63.22-84.92.001-161.16 16.03-225.46 47.39-12.186 5.943-23.754 12.345-34.691 19.19-76.05 47.582-121.59 116.47-131.94 200.5-3.206 26.03-1.985 65.7 2.776 90.22 17.532 90.28 83.71 157.41 184.52 187.17 60.983 18 140.78 22.22 203.64 10.767 42.31-7.709 86.37-25.17 120.08-47.587 9.285-6.175 14.876-9.235 15.581-8.53.705.705-.471 7.101-3.277 17.825-17.17 65.63-45.05 107.12-86.17 128.22-5.639 2.894-13.86 6.55-18.268 8.124-37.888 13.528-94.66 11.947-125.55-3.496-15.939-7.968-30.14-21.55-36.34-34.747l-3.615-7.699-123-.023c-98.94-.018-123 .262-123 1.433 0 .801 1.508 7.607 3.351 15.13 9.667 39.44 26.336 72.1 51.914 101.73 51.695 59.878 137.37 95.67 249.53 104.24 20.236 1.547 92.53.52 110.73-1.573m-56.51-423.01c-37.18-3.492-71.3-19.464-93.84-43.925-32.22-34.97-35.26-82.32-7.771-121.06 5.98-8.427 20.655-22.586 29.957-28.903 15.495-10.522 37.08-19.483 57.38-23.819 13.67-2.919 47.987-2.91 61.38.018 27.936 6.106 49.794 17.331 68.01 34.923 20.03 19.343 30.968 42.93 32.383 69.806 1.778 33.784-12.945 63.908-41.825 85.58-25.995 19.504-69.51 30.777-105.68 27.38" fill="url(#7)"/></g><path d="m962.94 40.563c16.567 13.28 31.845 29.329 43.37 45.719 22.96 32.636 36.854 72.875 41.656 120.66 1.169 11.636 1.631 37.877.844 47.875-3.701 47.02-17.259 93.21-38.03 129.56-17.726 31.02-40.775 55.964-68.72 74.56h557.19c115.47 0 209.19-93.72 209.19-209.19 0-115.47-93.72-209.19-209.19-209.19h-536.31m140.53 74.37h76.5v96h83.69v-96h77.34v274.91h-77.34v-112h-83.69v112h-76.5v-274.91m270.16 0h124.91c98.06 0 125.89 78.79 126.22 137.44.325 58.65-33.33 137.47-126.22 137.47h-124.91v-274.91m71.72 62.16v142.25h38.25c58.667 0 66.49-41.488 66.937-71.12.451-29.637-15.16-71.12-66.937-71.12h-38.25" transform="translate(222.47-2644.35)" fill="url(#2)" fill-rule="evenodd"/><path d="m976.41-2578.56c-8.214 0-16.234.364-24.04 1.086-25.816 2.389-49.31 8.706-69.881 18.829-40.37 19.872-64.48 51.945-69.41 92.35-.955 7.823-.966 18.575-.17 27.837.317 3.694.763 7.151 1.329 10.09 7.303 37.952 34.873 66.18 76.869 78.69 25.404 7.569 58.647 9.335 84.84 4.519 17.624-3.241 35.972-10.584 50.01-20.01 3.868-2.596 6.202-3.883 6.496-3.586.294.296-.198 2.993-1.367 7.501-7.154 27.59-18.776 45.03-35.903 53.901-2.349 1.217-5.766 2.754-7.602 3.416-15.783 5.687-39.436 5.02-52.3-1.471-6.639-3.349-12.558-9.06-15.14-14.608l-1.497-3.232-51.24-.013c-41.22-.0001-51.24.112-51.24.604 0 .336.625 3.198 1.393 6.358 4.03 16.58 10.967 30.31 21.622 42.761 21.534 25.17 57.22 40.22 103.95 43.825 8.43.65 38.54.223 46.12-.657 42.32-4.911 75.01-19.345 100.52-44.4 19.888-19.531 33.93-44.12 42.37-74.17 9.199-32.74 11.199-72.8 5.22-104.86-6.187-33.17-20.467-61.13-41.891-82.07-6.85-6.693-11.292-10.283-19.956-16.12-12.727-8.574-27.09-15.08-43.04-19.514-16.929-4.703-35.64-7.06-56.06-7.06zm-3.814 81.29c4.983 0 9.955.304 12.744.919 11.637 2.567 20.739 7.291 28.326 14.687 8.342 8.131 12.897 14.689 13.486 25.986.741 14.202-5.387 23.499-17.418 32.607-10.829 8.199-28.958 12.936-44.03 11.508-15.487-1.468-29.704-8.175-39.09-18.457-13.422-14.701-14.679-27.884-3.228-44.17 2.491-3.543 8.596-9.496 12.471-12.152 6.454-4.423 15.457-8.188 23.913-10.01 2.847-.614 7.839-.921 12.822-.919z" fill="url(#A)" stroke="url(#0)" stroke-linejoin="round" stroke-linecap="round" stroke-width="15"/><path d="m300.25-2644.14c-47.41 0-77.958-.478-77.78 0 .12.33 28.26 110.36 62.53 238.63l62.29 239.96h148.64l10.819-14.286c8.395-49.39 15.575-84.41 24.58-133.69l21.836-118.79 16.873 118.92c10.956 77.22 25.923 147.39 26.05 147.85h141.76c1.858-7.349 3.202-14.801 5.423-22.07 12.218-33.928 22.03-70.3 28.427-95.21 1.015-3.957-6.356-7.202-6.106-7.209.25-.001 2.354 2.999 4.674 6.683 31.32 49.722 70.57 88.03 120.62 104.74 48.548 15.191 95.19 13.862 144.87 5 60.711-12.194 106.35-49.41 136.11-101.49 18.621-32.587 30.769-73.992 34.09-116.14.706-8.962.3-32.506-.748-42.936-4.305-42.833-16.761-78.899-37.34-108.16-12.731-18.1-30.868-36.16-49.37-49.672-32.855-23.995-89.28-45.16-140.18-49.699-24.13-2.152-61.82-2.206-112.65-2.206h-125.53l-37.802 142.82c-20.79 76.24-35.02 122.69-35.741 125.31-.983 3.587-1.406 4.535-1.694 3.834-.21-.513-9.873-46.518-25.591-124.34-15.718-77.82-28.701-147.03-28.847-147.63h-130.94c-.135.462-13.745 70.07-30.25 148.82-16.507 78.75-30.19 143.59-30.397 144.09-.469 1.128 23.584 16.579-21.888-146.25-15.32-55.962-25-96.13-30.804-118.37l-20.68-28.532h-.013-45.22m675.52 65.13c40 0 73.5 8.897 99.96 26.563 8.739 5.833 13.22 9.421 20.13 16.11 21.61 20.922 36.01 48.871 42.25 82.03 6.03 32.04 4.01 72.08-5.265 104.81-8.516 30.03-22.679 54.613-42.739 74.13-25.737 25.05-58.705 39.472-101.39 44.38-7.647.879-38.02 1.306-46.521.657-47.13-3.602-83.13-18.644-104.85-43.803-10.747-12.448-17.748-26.17-21.81-42.739-.774-3.159-1.405-6.02-1.405-6.355 0-.492 10.11-.612 51.681-.604l53.36.013 1.51 3.23c2.604 5.545 6.893 11.253 13.59 14.601 12.98 6.489 36.839 7.155 52.758 1.471 1.852-.661 5.299-2.198 7.668-3.414 17.275-8.867 28.998-26.298 36.21-53.874 1.179-4.506 1.675-7.201 1.379-7.497-.296-.296-2.651.99-6.552 3.585-14.164 9.419-32.671 16.758-50.45 19.998-26.416 4.814-59.947 3.048-85.57-4.517-42.36-12.506-70.17-40.718-77.54-78.65-2-10.302-2.515-26.97-1.169-37.907 4.973-40.39 29.29-72.44 70.01-92.31 27.02-13.178 59.05-19.903 94.74-19.906" fill="url(#6)"/><path d="m948.92-2172.32c-16.984-1.3-34.55-4.892-51.33-10.498-50.04-16.715-91.81-50.818-123.13-100.54-2.321-3.684-4.424-6.693-4.675-6.687-.25.001-1.286 3.249-2.302 7.206-6.393 24.911-17.898 61.28-30.12 95.21-2.423 6.727-4.633 12.933-4.912 13.79l-.508 1.559h-68.24c-64.58 0-68.25-.045-68.47-.839-.128-.462-11.85-63.59-26.05-140.28-14.199-76.69-25.953-139.29-26.12-139.1-.167.187-11.883 62.719-26.04 138.96-14.15 76.24-25.852 139.21-26 139.94l-.268 1.319h-69.64-69.64l-62.3-233.23c-34.27-128.28-62.4-234.1-62.52-234.43-.174-.478 11.888 0 59.3 0h59.51l.709 2.518c.39 1.385 16.811 64.47 36.491 140.18 42.972 165.33 38.22 147.38 38.694 146.25.21-.505 15.569-65.35 32.08-144.09 16.507-78.75 28.443-144.39 28.578-144.86h124.79c9.828 47.857 19.436 95.77 29.11 143.66 15.718 77.82 28.751 141.92 28.961 142.43.288.701.706-.25 1.689-3.837.719-2.623 18.317-67.15 39.11-143.39l37.8-138.62h107.87c113.64 0 111.79-.031 131.13 2.204 50.36 5.819 97.34 22.334 131.79 46.33 18.8 13.1 36.637 30.74 49.37 48.836 20.582 29.26 33.03 65.33 37.34 108.16 1.048 10.431 1.464 33.967.759 42.929-3.318 42.15-15.471 83.55-34.09 116.14-29.758 52.08-76.24 85.1-136.95 97.3-16.177 3.249-30.517 4.737-53.24 5.524-15.496.537-21.14.53-28.53-.035m39.802-58.679c42.688-4.909 75.65-19.336 101.38-44.38 20.06-19.521 34.23-44.1 42.748-74.13 9.279-32.724 11.286-72.76 5.256-104.8-6.24-33.15-20.637-61.11-42.25-82.03-6.909-6.69-11.391-10.276-20.13-16.11-26.465-17.666-59.96-26.567-99.96-26.564-35.682 0-67.71 6.736-94.73 19.913-5.12 2.497-9.981 5.187-14.576 8.06-31.956 19.993-51.09 48.936-55.44 84.25-1.347 10.938-.834 27.605 1.167 37.907 7.367 37.934 35.17 66.14 77.53 78.64 25.624 7.565 59.15 9.338 85.57 4.524 17.776-3.239 36.29-10.576 50.45-19.995 3.901-2.594 6.251-3.88 6.547-3.584.296.296-.198 2.984-1.377 7.49-7.216 27.576-18.93 45.01-36.21 53.874-2.369 1.216-5.823 2.752-7.676 3.414-15.919 5.684-39.772 5.02-52.752-1.469-6.697-3.348-12.665-9.05-15.269-14.6l-1.519-3.235-51.683-.001c-41.574-.001-51.683.11-51.683.602 0 .336.634 3.196 1.408 6.355 4.062 16.572 11.07 30.3 21.813 42.745 21.721 25.16 57.72 40.2 104.85 43.8 8.503.65 38.879.218 46.526-.661m-23.743-177.74c-15.621-1.467-29.959-8.178-39.43-18.456-13.538-14.693-14.815-34.588-3.265-50.865 2.513-3.541 8.679-9.49 12.587-12.144 6.51-4.421 15.581-8.186 24.11-10.01 5.744-1.227 20.16-1.222 25.79.001 11.738 2.566 20.922 7.282 28.575 14.674 8.414 8.127 13.01 18.04 13.606 29.331.747 14.195-5.439 26.852-17.574 35.957-10.922 8.195-29.2 12.932-44.4 11.504z" fill="url(#8)"/></g></svg>