<svg xmlns="http://www.w3.org/2000/svg" height="357.89" viewBox="0 0 800.02875 357.89151" width="800.03"><path fill="#fff" d="m695.03 319.48c0-34.697-.232-39.4-1.977-40.07-1.087-.417-135.95-.748-299.69-.735l-297.71.024-8.768 6.538c-4.822 3.596-10.865 7.945-13.429 9.663-2.564 1.719-4.665 3.547-4.67 4.063-.005.516-.587.938-1.294.938-.707 0-4.91 2.813-9.339 6.25-4.429 3.438-8.31 6.25-8.623 6.25-.498 0-26.454 18.962-43.579 31.836l-5.946 4.48.044-98.25c.03-67.41.479-100.08 1.429-104.09.762-3.22 3.106-10.07 5.208-15.22 9.248-22.68 23.994-37.892 48.15-49.668 20.922-10.201 5.763-9.46 204.57-9.991l177.5-.474 6.875-4.869c3.781-2.678 13.625-9.508 21.875-15.179 8.25-5.67 20.06-13.978 26.25-18.461 6.188-4.483 19.406-13.632 29.375-20.33l18.12-12.178.625 35.26.625 35.26 91.87.671c104.6.764 95.95-.133 118.12 12.252 9.08 5.071 15.13 9.617 22.12 16.608 8.4 8.406 10.567 11.579 17.1 25.05 4.114 8.482 8.08 18.403 8.819 22.05.84 4.154 1.339 28.7 1.339 65.832v59.21l-5.313 4.103c-2.922 2.257-7.616 6.101-10.432 8.543-2.816 2.442-9.508 8.096-14.872 12.565-5.364 4.469-12.97 10.938-16.902 14.375-3.933 3.438-14.367 12.156-23.19 19.375-8.82 7.219-19.441 15.965-23.603 19.436-4.162 3.471-8.27 6.738-9.129 7.261-1.237.753-1.563-7.239-1.563-38.36z"/><path fill="#f36925" d="m733.15 301.1c6.875-5.889 13.866-11.802 15.535-13.14 1.669-1.338 5.607-4.699 8.75-7.467s9.512-8.301 14.15-12.293l8.438-7.259v-49.582c0-39.834-.381-51.43-1.932-58.957-5.538-26.882-27.797-50.84-53.38-57.46-7.954-2.057-14.357-2.359-52.5-2.471l-43.44-.128v82.53 82.53h40.544c23.318 0 41.906.518 43.75 1.219l3.206 1.219v27.684c0 26.18.119 27.592 2.188 25.984 1.203-.935 7.813-6.518 14.688-12.407z"/><path fill="#fff" d="m694.03 210.9c-1.094-1.094-1.5-10.833-1.5-36s.406-34.906 1.5-36c1.991-1.991 18.759-1.991 20.75 0 1.094 1.094 1.5 10.833 1.5 36s-.406 34.906-1.5 36c-.885.885-5.139 1.5-10.375 1.5s-9.49-.615-10.375-1.5"/><g fill="#f36925"><path d="m38.481 294.52c7.742-5.635 21.09-15.307 29.669-21.495l15.592-11.25.018-60.784c.015-50.583.312-61.03 1.77-62.24 1.121-.93 5.732-1.323 12.812-1.091l11.06.363.324 60 .324 60 160.93-.303 160.93-.303.321-82.51.321-82.51h-32.497-32.497l-.325 59.688-.325 59.688-10.3.363-10.3.363-.325-59.738-.325-59.738-32.19-.334-32.19-.334v58.04c0 31.924-.341 58.934-.759 60.02-.603 1.571-2.777 1.977-10.581 1.977-8.432 0-10-.342-11.12-2.418-.838-1.566-1.294-22.698-1.294-60v-57.58h-31.875-31.875v60.05 60.05l-10.938-.361-10.938-.361-.325-59.688-.325-59.688h-43.511c-48.2 0-49.08.112-66.27 8.468-11.659 5.667-25.859 19.07-31.412 29.657-10.06 19.18-9.227 10.717-9.736 98.52-.438 75.54-.369 78.47 1.809 77.12 1.245-.772 8.599-6.01 16.341-11.647z"/><path d="m605.99 233.86c.351-24.797.026-26.361-4.616-22.18-1.085.977-4.938 2.942-8.562 4.367-15.293 6.01-33.411 4.496-46.26-3.874-14.928-9.723-24.333-23.398-26.604-38.683-.651-4.379-1.149-34.68-1.109-67.34.09-71.897.2-66.25-1.292-66.25-.677 0-8.411 5.077-17.188 11.282-8.776 6.205-18.968 13.377-22.649 15.938-3.681 2.56-10.431 7.492-15 10.959l-8.308 6.304v86.2 86.2l74.37.625c40.906.344 74.938.579 75.62.522.773-.064 1.379-9.238 1.59-24.06"/><path d="m588.63 193.72c5.769-2.943 12.162-10 15.281-16.867 2.087-4.595 2.311-8.886 2.336-44.769l.027-39.688h-32.19-32.19l.345 42.01.345 42.01 3.751 5.452c3.975 5.778 9.868 10.85 14.97 12.887 5.689 2.27 22.05 1.65 27.318-1.036z"/></g></svg>