<svg xmlns="http://www.w3.org/2000/svg" width="1319.54" height="355.93" viewBox="0 0 1055.63 284.74038"><g fill="#959595"><g transform="scale(.8)"><path d="m852.31.094c-7.597.022-15.188.056-22.781.031-.2 32.962-.212 65.944 0 98.91 3.337-.05 6.681-.081 10.03-.094.025-13.45-.194-26.894.156-40.34 12.2-.087 24.394.313 36.594-.188 10.112-.688 21.7-4.106 26.625-13.844 4.4-9.225 4.35-20.462.313-29.813-5.063-10.387-17.362-14.163-28.12-14.5-7.594-.188-15.216-.178-22.813-.156m5.844 9.375c6.173-.017 12.35.075 18.5.656 5.7.55 11.981 2.113 15.531 7 3.375 4.925 3.431 11.288 2.781 17-.563 4.962-3.694 9.575-8.281 11.625-5.2 2.35-11.01 2.575-16.625 2.75-10.138.013-20.3 0-30.438-.063-.125-12.987-.169-25.962.031-38.938 6.169.125 12.327-.014 18.5-.031"/><path d="m1016.37 0c-12.612 28.22-25.925 56.13-38.688 84.28-1.25 2.037-2 5.606-5.063 5.094-17.16.15-34.34.056-51.5-.031-.1-29.725-.006-59.46-.031-89.19-3.513 0-7.03.006-10.531.031.138 32.937.056 65.875.031 98.81 22.75-.075 45.5.019 68.25-.031 2.95.563 3.806-2.763 4.969-4.75 3.775-8.513 7.775-16.919 11.625-25.406 17.85-.375 35.713-.125 53.56-.125 4.688 10.06 9.269 20.14 13.781 30.28 5.438-.013 10.844-.006 16.281.031.25-29.16-.1-58.31.188-87.47 21.938 28.01 43.713 56.16 65.37 84.37 3.513 5.3 10.725 2.388 16 3.125.2-32.962.088-65.913.062-98.87-3.35-.025-6.675-.05-10-.063-.062 29.27-.206 58.57.094 87.84-18.875-23.862-37.468-47.962-56.22-71.938-4.162-5.125-7.713-10.8-12.438-15.438-4.3-.862-8.744-.4-13.09-.438-.162 29.412.306 58.819-.219 88.22-6.5-12.662-11.831-25.881-17.969-38.719-7.638-16.25-14.6-32.844-22.563-48.906-3.9-.95-7.944-.606-11.906-.719m5.813 9.219c7.537 16.3 14.894 32.681 22.03 49.16-14.625.188-29.25.131-43.875.031 6.912-16.55 14.731-32.712 21.844-49.19"/></g><path d="m933.84.08c40.6.05 81.2-.06 121.79.05-.02 2.48-.04 4.96-.05 7.44-10.17.09-20.33.06-30.49 0-.06 23.88-.04 47.75-.001 71.63-2.68 0-5.36.001-8.03.03-.02-23.88.06-47.76-.04-71.64-25.02.03-50.05.06-75.07-.02-.09 9.2-.09 18.39.02 27.58 16.22.07 32.46-.22 48.68.15 0 2.41-.001 4.82-.001 7.24-16.24.24-32.47.04-48.7.11-.06 9.6-.07 19.2-.001 28.81 17.57.21 35.15-.001 52.73.11-.02 2.53-.02 5.05 0 7.58-20.27.1-40.54-.06-60.81.1-.08-26.39-.08-52.78 0-79.17"/></g><path d="m736.12 41.25c-10.629.021-21.248.127-31.875.375.025 28.975.181 57.95-.094 86.94-13.987.15-27.962.037-41.938.063-.175 5.613-.15 11.231-.375 16.844-1.45-.912-2.888-1.794-4.313-2.719-22.763-15.763-50.619-22.19-77.84-24.344-13.563-1.725-27.25-1.013-40.875-1.063-14.263.9-28.556 2.706-42.28 6.844-19.425 5.15-37.22 15.75-51.34 30 1.988-8.6 4.387-17.09 6.938-25.531-27.8-.075-55.606-.044-83.41-.031-10.8 44.912-21.294 89.91-31.906 134.87-6.95 28.15-12.85 56.55-20.375 84.56-15.363-73.11-30.806-146.18-46.09-219.31-26.338-.3-52.681-.037-79.03-.188-2.787.137-5.775-.238-8.375.938-2.537 6.963-3.01 14.45-4.75 21.625-13.05 65.71-26.387 131.36-39.31 197.09-1.338-4.925-2.731-9.825-3.844-14.813-16.04-68.25-32.25-136.47-48.31-204.72-28.9-.137-57.819-.156-86.72.031 1.825 9.2 4.563 18.18 7.25 27.16 18.8 66.56 37.587 133.11 56.625 199.59 7.475.55 14.95.35 22.438.375 32.912 0 65.856.006 98.78.031 3.713 0 7.425-.219 11.125-.594 3.813-15.288 6.481-30.837 10.281-46.12 3.825-19.7 8.306-39.28 12.531-58.906 2.175-9.512 3.869-19.14 6.781-28.469 9.975 44.44 19.694 88.94 29.844 133.34 8.1 1.05 16.256.694 24.406.719 27.09-.038 54.16.025 81.25 0 9.09-.063 18.231.369 27.28-.719 9.238-34.24 19.269-68.26 28.594-102.47 2.462-7.625 3.887-15.669 7.375-22.906 3.337-1.225 6.956-1.137 10.469-1.188 21.863.1 43.719-.019 65.59.094-.738-11.125 1.944-23.24 10.281-31.16 10.5-9.637 25.21-12.981 39.12-13.03 14.413-.15 29.919-.331 42.781 7.156 10.25 6.01 13.962 18.813 13 30.06.075 8.775-7.294 15.11-14.406 18.906-17.475 8.8-37.33 10.356-56.41 13.03-28.9 3.4-58.32 8.65-84.19 22.688-10.488 5.625-19.381 13.938-26.469 23.438-10.913 16.212-15.488 36.08-15.12 55.47 11.09 1.163 22.22.425 33.34.625 16.01-.163 32.06.356 48.06-.344.387-11.462 4.01-23.806 13.906-30.594 12.188-9 27.319-12.256 41.844-15.406 12.962-2.6 25.9-5.387 38.5-9.438 7.55-2.375 14.75-5.769 22.19-8.469.212 11.688.144 23.375.031 35.06-.038 9.825-3.181 19.21-5.719 28.594 3.288.375 6.612.625 9.938.625 22.09-.075 44.15-.05 66.25 0 4.02-.012 8.07-.331 12.09-.719.1-27.825.038-55.656.063-83.47-.15-27.588.438-55.16-.563-82.72 5.01-.113 10.02-.119 15.03.094.25 55.32.05 110.62.125 165.94 17.7 1.663 35.487.494 53.25.844 10.538-.125 21.12.494 31.625-.656.263-55.24.094-110.51.094-165.75 11.638-1.238 23.356-.475 35.03-.438-4.175 10-8.606 19.931-11.656 30.344-3.538 11.4-5.525 23.19-7.25 34.969-1.337 9.07-.781 18.281-1.656 27.406-.675 6.675.006 13.356.531 20.03.538 18.12 3.794 36.11 8.656 53.56 9.02.875 18.08.444 27.12.531 20.763-.05 41.538.1 62.31-.063-5.663-14.225-9.606-29.26-9.594-44.656 67.29-.087 134.58.131 201.87-.094.55 14.85-.512 29.738.813 44.563 21.95.525 43.881.106 65.844.281 6.513.125 13.06-.163 19.563-.875-.013-25.688-.019-51.39-.031-77.06.75-14.06 2.412-28.575 9.375-41.06 6.7-10.625 15.925-20.469 28.25-24.281 19.412-7.887 40.675-4.944 61.06-5.469.438-29.09-.069-58.18-.156-87.28-10.912-.275-21.969-.719-32.719 1.469-11.225 2.188-22.07 6.456-31.594 12.781-8.7 5.675-16.03 13.188-22.844 20.938-6.65 7.688-10.506 17.244-17.219 24.844-.838-17.1.037-34.23-.438-51.34-26.45.2-52.906.019-79.34.031-1.188 26.525.269 53.13-.781 79.66-5.088-12.85-11.138-25.425-19.375-36.563-12.15-16.675-28.388-30.28-47-39.19-18.8-9.225-39.656-13.419-60.41-15.03-10.02-.162-20.07-.306-30.09.094-15.14 1.675-30.331 4.369-44.531 10.03-20.888 8.06-39.11 22.11-53.53 39.09-2.2-12.512-.719-25.3-1.156-37.938-16.313-.25-32.656-.056-48.969-.094-.188-29.09.069-58.19-.094-87.28-17.711.031-35.442-.128-53.16-.094m218.94 147.62c2.112.004 4.203.094 6.281.25 15.1.738 30.675 6.431 40.75 18.09 11.712 12.675 14.969 30.606 15.906 47.28-30.14.213-60.3.044-90.44.094-11.612-.088-23.21.269-34.813-.219 1.35-18.65 6.975-38.34 21.5-51.06 10.763-10.544 26.03-14.464 40.813-14.438" transform="scale(.8)" fill="#37ede8"/></svg>