<?xml version="1.0" encoding="UTF-8" standalone="no"?>
<!-- Created with Inkscape (http://www.inkscape.org/) -->
<svg xmlns:rdf="http://www.w3.org/1999/02/22-rdf-syntax-ns#" xmlns="http://www.w3.org/2000/svg" height="215.92" width="600" version="1.1" xmlns:cc="http://creativecommons.org/ns#" xmlns:dc="http://purl.org/dc/elements/1.1/">
 <metadata>
  <rdf:RDF>
   <cc:Work rdf:about="">
    <dc:format>image/svg+xml</dc:format>
    <dc:type rdf:resource="http://purl.org/dc/dcmitype/StillImage"/>
    <dc:title/>
   </cc:Work>
  </rdf:RDF>
 </metadata>
 <path fill-rule="nonzero" fill="#e6224f" d="m555.57,7.5695-0.29517-0.29517-5.4818,0-0.48493-0.50601,0-6.2619,0.48493-0.50601,20.472,0,0.48492,0.50601,0,6.2619-0.48492,0.50601-5.4396,0-0.29517,0.29517,0,25.807-0.48492,0.48493-7.9697,0-0.50601-0.48493,0-25.807z"/>
 <path fill-rule="nonzero" fill="#e6224f" d="m580.67,0.00041931,0.50601,0.50601,4.28,25.385,0.54817,0.35842,0.6536-0.35842,4.1324-25.385,0.69576-0.50601,8.0118,0l0.5,0.50644-7.27,32.87-0.29518,0.42168-0.54817,0.06325h-12.418l-0.59035-0.48493-6.9787-32.87,0.50601-0.50601h8.2648z"/>
 <path fill-rule="nonzero" fill="#e6224f" d="m533.1,25.839c0,19.755,0.67468,100.08-0.99094,120.3-2.9306,35.463-26.481,64.306-64.833,68.902-17.457,2.0873-34.493,0.73793-50.453-7.0842-21.969-10.795-34.114-29.243-39.174-52.583-1.497-6.8522-2.024-14.021-2.0662-21.042-0.18975-36.306-0.10542-72.57-0.0843-108.86,0-7.2528,1.2229-8.4757,8.4124-8.4968,9.4455-0.02108,18.891-0.04217,28.337,0,6.8522,0.02108,8.1594,1.3494,8.1594,8.3492,0.0211,36.285,0.0211,72.57,0,108.83,0,7.9697,1.6867,15.497,5.3974,22.517,6.2197,11.765,15.918,17.837,29.328,17.563,13.177-0.25301,22.117-6.9998,27.809-18.512,3.3945-6.8522,4.786-14.126,4.7649-21.78-0.0422-35.99-0.0211-71.98-0.0211-107.97,0-7.8221,1.1596-9.0028,8.8974-9.0028,9.2979-0.02108,18.575-0.02108,27.873,0,7.4004,0.02108,8.6444,1.2861,8.6444,8.8552"/>
 <path fill-rule="nonzero" fill="#e6224f" d="m40.85,17.279c5.0179-0.10542,8.1594,1.9819,10.141,6.7046,13.009,30.951,26.882,63.378,40.017,94.266l2.003,3.2047c0.59034,0,1.4337-1.6445,2.2349-3.5632,13.43-31.879,27.409-65.107,40.776-97.006,1.3283-3.1415,2.8463-5.8191,6.789-5.8824,4.1746-0.08434,5.8402,2.7198,7.2106,6.0089,8.2648,19.734,35.906,85.368,41.43,98.482l1.5813,1.9819,1.518-2.1927c11.09-26.017,38.246-89.648,40.544-95.509,1.8132-4.5963,5.0179-6.536,9.8461-6.4938,11.765,0.08433,23.529,0,35.273,0.04217,5.8824,0.02108,6.8944,1.6024,4.4698,6.9366-15.813,34.83-31.668,69.64-47.523,104.47-12.376,27.219-24.795,54.417-37.171,81.657-1.1807,2.6144-2.4668,5.0601-5.7559,5.3764-3.9427,0.37951-5.7559-2.0451-7.1685-5.2499-7.8642-17.837-15.792-35.653-23.698-53.468-5.9878-13.536-11.933-27.093-17.963-40.628l-2.3403-2.2981-2.4246,2.2138c-13.873,31.204-27.725,62.429-41.535,93.654-1.3704,3.1415-2.9517,5.9456-6.8101,5.8824-3.6686-0.0422-5.1234-2.8674-6.4516-5.777-28.105-61.6-56.21-123.22-84.314-184.83-2.8885-6.346-1.9186-7.927,4.9336-7.927l34.388-0.042z"/>
 <path fill-rule="nonzero" fill="#e6224f" d="m277.32,175.61c-2.5722-0.0422-3.8794,0.69576-4.8282,3.1836-3.7529,9.8672-7.7378,19.629-11.638,29.433-2.3403,5.9035-4.1746,7.1685-10.563,7.1685h-34.788c-5.798-0.0211-7.0209-1.7921-4.7017-6.9155,27.894-61.48,55.83-122.96,83.787-184.44l3.2047-5.1444c3.6264-3.4999,9.1293-2.0662,11.533,2.9939l85.79,188.34c1.1385,3.0993,0.14758,5.0812-3.0361,5.1023l-40.101-0.0632c-3.6686-0.0422-5.6083-2.7409-6.8733-5.9456-3.9638-9.9305-8.0329-19.798-11.828-29.791-1.0964-2.9306-2.53-4.027-5.7348-3.9427l-50.222,0.0211z"/>
</svg>
