<svg xmlns="http://www.w3.org/2000/svg" viewBox="0 0 600 235.52"><path transform="matrix(1 0-.26747.96357 0 0)" fill="#d40055" d="m479.93 0h120.07v244.43h-120.07z"/><path d="m301.64 181.4h36.09v-46.16h2.757c4.11 0 14.47-.23 20.1 8.886l22.17 37.27h38.83l-20.2-33.935c-6.672-11.376-12.161-17.468-16.478-20.6v-.375c12.174-4.315 25.496-14.724 25.496-35.928 0-26.27-18.822-39.809-52.16-39.809h-56.6v45.35h-.363c-6.855-27.358-29.932-45.35-72.09-45.35h-79.81l-12.161 53.35c-2.55 10.989-4.715 24.928-4.715 24.928h-.386c0 0-2.744-15.498-5.295-26.499l-10.408-51.778h-43.811l-10.409 51.778c-2.551 11-5.295 26.499-5.295 26.499h-.399c0 0-2.152-13.939-4.703-24.928l-12.162-53.35h-39.628l34.913 130.65h39.858l19.814-83.76h.206.182l19.814 83.76h39.23l29.06-108.47h.386v10.143 98.33h44.549c42.747 0 66.33-19.608 73.27-47.643h.351v47.643m-70.68-29.618h-10.977v-71.41h9.997c23.937 0 34.72 10.59 34.72 34.925 0 23.924-10.784 36.485-33.74 36.485m126.5-44.15h-19.729v-29.22h18.545c12.366 0 17.468 4.896 17.468 14.7 0 9.03-5.295 14.519-16.284 14.519" fill="#fff"/></svg>