<svg xmlns="http://www.w3.org/2000/svg" viewBox="0 0 602.36 181.77"><g transform="translate(-470.25-12.905)" fill-rule="evenodd"><g transform="matrix(.00004 0 0 .00004 470.25 12.904)"><path fill="#ff008f" d="m500000 4630060h4130120v-4130070h-4130120v4130070"/><path fill="#fff" d="m1765580 1099740v769800h476100v2204610h900120v-2974410h-1376220"/></g><path d="m1054.89 68.31v-37.689h-82.18v146.34h82.15v-37.846h-39.93v-17.13h39.957v-34.14h-39.957v-19.535h39.957m-134.63-37.689l-32.988 101.45-32.988-101.45h-42.25l47.59 146.34h55.3l47.584-146.34h-42.25m-161.26 146.34h42.25v-146.34h-42.25v146.34m-13.905-37.846h-39.904v-108.5h-42.25v146.34h42.25v-.153h39.904v-37.693"/></g></svg>