<?xml version="1.0" encoding="utf-8"?>
<!-- Generator: Adobe Illustrator 16.0.0, SVG Export Plug-In . SVG Version: 6.00 Build 0)  -->
<!DOCTYPE svg PUBLIC "-//W3C//DTD SVG 1.1//EN" "http://www.w3.org/Graphics/SVG/1.1/DTD/svg11.dtd">
<svg version="1.1" id="svg1887" xmlns:svg="http://www.w3.org/2000/svg"
	 xmlns="http://www.w3.org/2000/svg" xmlns:xlink="http://www.w3.org/1999/xlink" x="0px" y="0px" width="602.361px"
	 height="181.771px" viewBox="0 0 602.361 181.771" enable-background="new 0 0 602.361 181.771" xml:space="preserve">
<g id="layer1">
	<g id="g1898" transform="translate(-470.2475,-12.90492)">
		<polygon id="_47951704" fill="#FF008F" points="487.964,176.962 634.307,176.962 634.307,30.62 487.964,30.62 		"/>
		<polygon id="_47950648" fill="#FFFFFF" points="532.807,51.871 532.807,79.148 549.677,79.148 549.677,157.263 581.571,157.263 
			581.571,51.871 		"/>
		<path id="_48206424" fill="#FFFFFF" d="M1054.893,68.309V30.62h-82.176v146.341h82.148v-37.846h-39.93v-17.134h39.957V87.844
			h-39.957V68.309H1054.893z M920.267,30.62L887.28,132.071L854.292,30.62h-42.254l47.59,146.341h55.305L962.515,30.62H920.267
			L920.267,30.62z M759.004,176.962h42.252V30.62h-42.252V176.962z M745.099,139.116h-39.904V30.62h-42.246v146.341h42.246v-0.153
			h39.904V139.116z"/>
	</g>
</g>
</svg>
