<svg xmlns="http://www.w3.org/2000/svg" viewBox="0 0 1024 510" enable-background="new 0 0 1024 510"><g transform="matrix(39.7826 0 0-39.7826-19810.49 7640.82)"><g fill="#ec008c"><path d="m0 0c.192 0 .315-.014.493.082.13.075.233.178.308.308.164.274.219.589.219.904 0 .315-.089.726-.287.986-.226.281-.445.267-.774.267h-.164v-2.547h.205m-1.65 3.615h1.732c.678 0 1.219-.089 1.725-.575.493-.466.719-1.109.719-1.78 0-.616-.219-1.26-.65-1.705-.466-.486-1.048-.637-1.698-.637h-1.828v4.697" transform="translate(507.59 180.47)"/><path d="m512.08 179.39h-1.451v4.697h1.451v-4.697"/><path d="m0 0h-.705l-.192.493c-.294-.397-.787-.561-1.273-.561-1.37 0-2.102 1.054-2.102 2.341 0 .616.157 1.26.547 1.746.446.561 1.014.746 1.705.746 1.089 0 1.815-.554 2.02-1.629l-1.397-.144c-.054.377-.212.733-.65.733-.664 0-.705-.891-.705-1.37 0-.274.013-.616.123-.862.116-.274.342-.452.644-.452.369 0 .643.226.643.595h-.774v.993h2.116v-2.629" transform="translate(516.85 179.39)"/><path d="m0 0h-.705l-.192.493c-.294-.397-.787-.561-1.273-.561-1.37 0-2.102 1.054-2.102 2.341 0 .616.157 1.26.548 1.746.445.561 1.013.746 1.704.746 1.089 0 1.815-.554 2.02-1.629l-1.397-.144c-.054.377-.212.733-.65.733-.664 0-.705-.891-.705-1.37 0-.274.013-.616.123-.862.116-.274.342-.452.644-.452.369 0 .643.226.643.595h-.774v.993h2.116v-2.629" transform="translate(521.51 179.39)"/><path d="m523.58 179.39h-1.451v4.697h1.451v-4.697"/><path d="m498.07 191.92h6.585v-6.56h-6.585v6.56"/></g><path fill="#fff" d="M0,0v-1.222h0.758v-3.503h1.436V0H0z" transform="translate(500.09 190.97)"/><g fill="#231f20"><path d="M0,0h-1.795v4.864h-1.901l-0.001-6.56H0V0z" transform="translate(509.64 187.06)"/><path d="m510.27 191.92h1.901v-6.56h-1.901v6.56"/><path d="M0,0l-1.485-4.548L-2.969,0H-4.87l2.141-6.56h2.489L1.901,0H0z" transform="translate(517.52 191.92)"/><path d="M0,0v1.689h-3.699v-6.56H0l-0.001,1.697h-1.797v0.769H0v1.53h-1.798V0H0z" transform="translate(523.58 190.23)"/></g></g></svg>