<svg xmlns="http://www.w3.org/2000/svg" width="330.12" height="129.68" viewBox="0 0 330.125 129.678" enable-background="new 0 0 330.125 129.678"><path fill="#ec1728" d="m263.98 0h66.15l-36 129.68h-66.15l36-129.68"/><path fill="#dadbdc" d="m0 27.88l19.344 71.906h21.75l11.06-46.531 11.219 46.531h21.22l16.563-61.5v61.5h23.969c37.954 0 41.06-27.313 41.06-27.313v27.313h19.375v-25.03h4.813c3.554.004 6.94 2.611 10.06 7.875l10.156 17.16h20.781c0 0-12.04-24.34-19.5-29.969 0 0 14.04-3.603 14.03-19.75-.001-17.03-13.54-22.19-26.347-22.19h-33.375v25.719c0 0-4-25.718-40.875-25.719h-43.06l-9.595 44.06-8.53-44.06h-24.06l-8.875 44.06-9.25-44.06h-21.938m185.56 15.16h12.09c4.539 0 8.188 3.647 8.188 8.188s-3.647 8.188-8.188 8.188h-12.09v-16.376m-64.844 1.219h9c8.982 0 16.188 7.236 16.188 16.219v7.06c0 8.981-7.205 16.219-16.188 16.219h-9v-39.501"/><path fill="#fff" d="m299.65 74.942v-8.947h-18.913c3.381-3.3 15.842-12.671 16.02-25.24.091-6.251-5.371-14.35-15.633-14.389-9.172-.035-14.896 3.564-18.34 6.171 0 0 5.828 7.728 5.936 7.85 3.69-2.937 8.627-4.563 11.994-2.826 4.879 2.516 3.33 10.01-.703 14.999-3.053 3.776-15.232 15.855-15.232 15.855v6.531h34.867"/></svg>