<svg xmlns="http://www.w3.org/2000/svg" width="330.12" height="129.68" viewBox="0 0 330.125 129.678" enable-background="new 0 0 330.125 129.678"><path fill="#eb691b" d="m263.98 0h66.15l-36 129.68h-66.15l36-129.68"/><path fill="#dadbdc" d="m0 27.88l19.344 71.906h21.75l11.06-46.531 11.219 46.531h21.22l16.563-61.5v61.5h23.969c37.954 0 41.06-27.313 41.06-27.313v27.313h19.375v-25.03h4.813c3.554.004 6.941 2.611 10.06 7.875l10.156 17.16h20.781c0 0-12.04-24.34-19.5-29.969 0 0 14.04-3.602 14.03-19.75-.009-17.04-13.54-22.19-26.346-22.19h-33.375v25.719c0 0-4-25.718-40.875-25.719h-43.06l-9.594 44.06-8.531-44.06h-24.06l-8.875 44.06-9.25-44.06h-21.938m185.56 15.16h12.09c4.54 0 8.188 3.647 8.188 8.188s-3.647 8.188-8.188 8.188h-12.09v-16.376m-64.844 1.219h9c8.982 0 16.188 7.236 16.188 16.219v7.06c0 8.982-7.205 16.219-16.188 16.219h-9v-39.501"/><path fill="#fff" d="m265.2 30.1c0 0 5.234 7.727 5.359 8.101 3.364-3.489 13.13-5.884 13.958 0 .9 6.43-7.416 6.854-11.279 6.73v8.724c8.983.148 12.4 3.115 12.293 6.73-.125 4.18-5.251 6.106-17.215 2.991l-2.867 9.97c12.515 5.237 32.678 4.182 34.38-12.503.124-5.145-1.604-9.822-10.327-13.668 5.938-2.041 8.973-7.104 8.849-11.216-.127-4.178-4.611-11.09-12.836-11.465-8.226-.376-12.656 1.299-20.315 5.606"/></svg>