<svg xmlns="http://www.w3.org/2000/svg" viewBox="0 0 330.13 129.68"><path d="m263.98 0h66.15l-36 129.68h-66.15z" fill="#f4a019"/><path d="m293.16 26.92l-12.881-.268-21.868 31.33v9.626h21.868v9.259h12.881v-9.259h6.156v-9.626h-6.156zm-12.881 17.517v13.544h-9.05z" fill="#fff"/><path d="m0 27.88l19.344 71.906h21.75l11.06-46.531 11.219 46.531h21.22l16.563-61.5v61.5h23.969c37.954 0 41.06-27.313 41.06-27.313v27.313h19.375v-25.03h4.813c3.554.004 6.942 2.611 10.06 7.875l10.156 17.16h20.781c0 0-12.04-24.34-19.5-29.969 0 0 14.04-3.601 14.03-19.75-.007-17.04-13.537-22.19-26.344-22.19h-33.375v25.719c0 0-4-25.719-40.875-25.719h-43.06l-9.594 44.06-8.531-44.06h-24.06l-8.875 44.06-9.25-44.06zm185.56 15.16h12.09c4.54 0 8.188 3.647 8.188 8.188 0 4.54-3.647 8.188-8.188 8.188h-12.09zm-64.844 1.219h9c8.982 0 16.188 7.236 16.188 16.219v7.06c0 8.982-7.205 16.219-16.188 16.219h-9z" fill="#07446d"/></svg>