<svg xmlns="http://www.w3.org/2000/svg" viewBox="0 0 330.13 129.68"><path d="m263.98 0h66.15l-36 129.68h-66.15z" fill="#77b31f"/><path d="m0 27.88l19.344 71.906h21.75l11.06-46.531 11.219 46.531h21.22l16.563-61.5v61.5h23.969c37.954 0 41.06-27.313 41.06-27.313v27.313h19.375v-25.03h4.813c3.554.004 6.942 2.611 10.06 7.875l10.156 17.16h20.781c0 0-12.04-24.34-19.5-29.969 0 0 14.04-3.601 14.03-19.75-.007-17.04-13.537-22.19-26.344-22.19h-33.375v25.719c0 0-4-25.719-40.875-25.719h-43.06l-9.594 44.06-8.531-44.06h-24.06l-8.875 44.06-9.25-44.06zm185.56 15.16h12.09c4.54 0 8.188 3.647 8.188 8.188 0 4.54-3.647 8.188-8.188 8.188h-12.09zm-64.844 1.219h9c8.982 0 16.188 7.236 16.188 16.219v7.06c0 8.982-7.205 16.219-16.188 16.219h-9z" fill="#07446d"/><path d="m282.15 37.2h17.01v-11.426h-30.406v27.883c9.757-.316 16.884.483 16.776 6.73-.072 4.181-5.561 8.584-17.525 4.075l-1.163 11.05c12.514 5.237 32.368 1.394 32.986-14.671.124-9.325-3.224-16.325-17.678-17.385-.254-.63 0-6.261 0-6.261" fill="#fff"/></svg>