<svg xmlns="http://www.w3.org/2000/svg" viewBox="0 0 600 191.35"><path d="m488.73 40.472v70.68h10.261v-33.671h27.959v33.671h10.261v-70.68h-10.261v28.972h-27.959v-28.972h-10.261m62.28 0v70.68h15.327c11.527 0 20.02-2.867 25.479-8.579 5.46-5.744 8.191-14.652 8.191-26.708 0-12.12-2.731-21.05-8.191-26.794-5.46-5.744-13.953-8.601-25.479-8.601h-15.327m10.261 7.846h4.85c8.628 0 14.629 1.995 17.999 5.971 3.404 3.945 5.109 11.132 5.109 21.578 0 10.352-1.705 17.515-5.109 21.492-3.404 3.945-9.405 5.928-17.999 5.928h-4.85v-54.969" fill="#fff"/><path transform="matrix(1 0-.26747.96357 0 0)" fill="#d40055" d="m389.91 0h97.55v198.58h-97.55z"/><path d="m245.06 147.37h29.32v-37.499h2.239c3.34 0 11.757-.186 16.334 7.219l18.01 30.28h31.548l-16.412-27.569c-5.421-9.242-9.88-14.192-13.387-16.736v-.304c9.891-3.507 20.714-11.963 20.714-29.19 0-21.341-15.292-32.34-42.38-32.34h-45.984v36.842h-.295c-5.569-22.23-24.319-36.842-58.57-36.842h-64.842l-9.881 43.34c-2.072 8.927-3.83 20.252-3.83 20.252h-.314c0 0-2.229-12.591-4.302-21.529l-8.456-42.07h-35.594l-8.456 42.07c-2.072 8.938-4.302 21.529-4.302 21.529h-.324c0 0-1.748-11.325-3.821-20.252l-9.881-43.34h-32.2l28.365 106.14h32.382l16.1-68.05h.167.148l16.1 68.05h31.871l23.611-88.13h.314v8.24 79.89h36.19c34.729 0 53.891-15.931 59.53-38.708h.285v38.708m-57.43-24.06h-8.918v-58.02h8.123c19.446 0 28.21 8.604 28.21 28.375 0 19.437-8.761 29.641-27.412 29.641m102.77-35.868h-16.03v-23.74h15.07c10.05 0 14.193 3.978 14.193 11.943 0 7.337-4.302 11.796-13.23 11.796" fill="#fff"/></svg>