<svg xmlns="http://www.w3.org/2000/svg" height="217.15" viewBox="0 0 223.92243 217.14867" width="223.92"><g transform="translate(-.3-.209)"><path fill="#cf97c3" d="m167.4 217.3c-3.91-.458-8.4-3.082-8.4-4.909 0-.84.808-1.788 1.524-1.788.235 0 1.574.675 2.976 1.5 2.913 1.714 3.751 1.934 6.604 1.73 4.646-.332 7.196-3.402 7.196-8.661v-2.356l-1.228 1.332c-1.752 1.9-3.868 2.651-7.02 2.491-5.609-.285-9.333-3.837-10.518-10.03-.541-2.829-.538-4.502.013-7.104 1.166-5.502 3.984-8.828 8.48-10.01 3.175-.834 6.882.137 9.14 2.395l1.063 1.063.153-1.357c.204-1.809 1.084-2.724 2.231-2.321 1.548.544 1.579.814 1.581 13.93 0 6.943-.131 12.986-.309 14.1-.71 4.449-3.224 7.752-7.03 9.238-1.561.609-4.639.971-6.45.759m4.87-14.07c1.738-.592 3.4-2.193 4.314-4.156.651-1.398.709-1.91.706-6.174-.003-4.03-.085-4.83-.614-6-1.34-2.965-3.775-4.588-6.881-4.588-4.173 0-6.629 2.769-7.514 8.471-.622 4.01.698 9.04 2.935 11.188 1.693 1.622 4.512 2.126 7.05 1.26m-162.54 3.46c-.33-.12-.768-.43-.974-.67-.431-.52-8.455-24.36-8.455-25.12 0-1.295 2.172-1.98 3.079-.971.259.289 1.915 5.115 3.68 10.725s3.24 10.236 3.28 10.28c.072.081.512-1.287 4.412-13.72 1.907-6.082 2.313-7.099 2.975-7.471 1.115-.626 2.296-.232 2.837.945.244.532 1.738 5.152 3.319 10.267 1.581 5.115 2.975 9.406 3.098 9.536.123.13 1.629-4.247 3.348-9.726 1.718-5.479 3.37-10.276 3.671-10.661.769-.983 2.132-.94 2.806.09.51.778.459.96-3.634 13.12-2.283 6.785-4.389 12.589-4.681 12.898-.292.309-.894.563-1.339.563-.445 0-1.059-.253-1.365-.563-.306-.309-1.319-2.993-2.251-5.963-3.971-12.657-4.72-14.883-4.931-14.648-.122.136-1.605 4.703-3.294 10.148s-3.269 10.123-3.51 10.395c-.558.629-1.308.826-2.072.544zm184.64-.03c-2.552-.369-4.232-1.749-5.03-4.132-.22-.67-.34-4.15-.34-10.27v-9.26h-1.453c-1.59 0-2.446-.604-2.446-1.727 0-1.051.804-1.573 2.421-1.573h1.479v-3.703c0-3.207.074-3.77.549-4.2.72-.651 1.637-.63 2.255.052.405.447.496 1.223.496 4.2v3.651h3.75c3.35 0 3.814.064 4.35.6.33.33.6.803.6 1.05s-.27.72-.6 1.05c-.536.536-1 .6-4.35.6h-3.75v8.71c0 9.222.101 10 1.45 11.204.544.485.961.541 2.966.399 1.283-.091 2.611-.252 2.951-.359.393-.123.872.013 1.32.376.954.773.652 1.979-.667 2.661-1.186.613-4.087.94-5.95.671zm-146.58-.4c-5.224-1.63-8.486-6.71-8.486-13.21 0-5.439 2.775-10.82 6.561-12.721 4.02-2.02 8.988-1.402 12.176 1.512 2.047 1.871 3.03 3.558 3.775 6.456.819 3.204.779 4.739-.148 5.667l-.736.736h-8.89-8.89l.203 1.275c.778 4.88 4.533 8.07 8.951 7.612 2.194-.229 3.712-.932 5.897-2.731 1.729-1.423 2.279-1.599 3.065-.981 1.368 1.075.579 2.893-1.996 4.604-3.01 1.998-8.212 2.808-11.48 1.786zm10.526-16.14c-.752-4.91-3.561-7.79-7.612-7.81-2.712-.013-4.854 1.438-6.277 4.252-.478.95-1.223 3.72-1.223 4.55 0 .173 3.02.285 7.654.285h7.654l-.195-1.275zm15.638 16.16c-1.909-.604-3.093-1.321-4.394-2.661-2.435-2.509-3.663-6.05-3.663-10.569 0-7.944 4.067-13.251 10.628-13.867 2.555-.24 4.687.503 6.687 2.331l1.653 1.51.094-7.317c.106-8.209.154-8.404 2.02-8.248.93.078 1.124.233 1.434 1.14.471 1.381.541 35 .077 36.673-.331 1.191-1.179 1.66-2.338 1.292-.648-.2-1.247-1.57-1.247-2.85 0-.784-.029-.772-1.453.601-.876.844-2.029 1.597-2.903 1.895-1.701.58-4.883.616-6.593.075zm5.665-2.949c1.698-.507 3.549-2.441 4.411-4.609.615-1.546.706-2.289.714-5.822.0001-3.929-.018-4.108-.928-6-1.4-2.911-2.54-3.939-4.977-4.482-5.64-1.258-9.958 4.896-8.929 12.725.84 6.388 4.737 9.674 9.709 8.189m20.853 2.663c-.925-.381-2.096-.987-2.601-1.346-4.85-3.453-6.378-12.579-3.204-19.13 1.145-2.363 2.906-4.162 5.164-5.274 1.751-.862 2.29-.982 4.409-.984 2.875-.002 4.503.629 6.592 2.555l1.372 1.265v-7.172c0-7.929.12-8.505 1.77-8.505 1.903 0 1.829-.781 1.829 19.532 0 20.315.05 19.768-1.8 19.768-1.132 0-1.8-.966-1.8-2.602v-1.269l-1.436 1.436c-1.761 1.761-3.573 2.439-6.493 2.429-1.517-.005-2.601-.204-3.804-.699m7.508-3.216c2.328-1.308 3.822-4.435 4.116-8.617.43-6.109-1.989-10.895-5.936-11.742-1.716-.368-3.749-.02-5.23.896-2.01 1.241-3.537 4.436-3.868 8.09-.513 5.652 1.61 10.568 5.129 11.878 1.591.592 4.255.362 5.789-.5m15.196 3.451c-.259-.259-.544-.765-.633-1.125-.089-.36-.123-6.074-.076-12.698.082-11.355.12-12.08.658-12.675.73-.806 1.728-.806 2.457 0 .543.6.572 1.263.572 13.304 0 10.3-.077 12.765-.412 13.168-.521.628-1.95.642-2.566.025m10.195-.195c-.405-.578-.467-2.342-.467-13.2 0-12.133.019-12.552.6-13.13 1.308-1.308 3-.27 3 1.841v1.241l1.463-1.368c2.443-2.285 5.24-2.813 8.93-1.685 1.729.528 2.324.901 3.732 2.338 2.627 2.681 2.674 2.93 2.674 14.14 0 8.822-.039 9.536-.549 9.997-.783.709-2.026.627-2.584-.17-.397-.567-.467-1.995-.469-9.525 0-5.04-.132-9.329-.305-9.949-.455-1.636-2.535-3.411-4.491-3.83-3.297-.707-6.105.597-7.692 3.571-.501.939-.576 2.02-.71 10.23-.117 7.167-.24 9.288-.562 9.675-.601.723-2.01.629-2.571-.171m79.69.125c-.484-.484-2.137-5.04-7.449-20.541-1.279-3.731-1.556-4.857-1.309-5.318.489-.914 1.279-1.213 2.119-.803.629.307 1.204 1.766 4.134 10.481 1.871 5.568 3.513 10.124 3.647 10.124.135 0 1.776-4.556 3.647-10.124 2.864-8.522 3.513-10.178 4.103-10.465.933-.455 1.829-.185 2.218.669.267.586-.364 2.677-3.946 13.08-2.852 8.286-4.466 12.56-4.876 12.911-.786.673-1.604.667-2.288-.017m-89.99-31.459c-.626-.252-1.332-1.907-1.139-2.673.376-1.497 2.088-2.323 3.607-1.74 1.403.538 1.647 3.271.373 4.163-.623.436-2.062.563-2.841.25m23.863-27.781c-2.945-5.737-10.709-16.985-17.441-25.27-6.669-8.206-17.891-21.15-18.336-21.15-.516 0-13.38 14.963-19.09 22.2-6.561 8.323-12.984 17.636-15.873 23.02-.905 1.687-1.724 3.07-1.818 3.075-.094.005-.889-1.308-1.766-2.917-7.082-12.96-23.09-33.02-43.97-55.07-5.621-5.936-8.568-9.275-11.291-12.794-3.942-5.094-7.975-11.54-10.606-16.95-4.332-8.908-6.154-15.564-6.152-22.464.004-11.447 4.896-21.907 13.989-29.915 5.624-4.952 12.892-7.796 21.11-8.259 10.302-.58 19.27 2.562 26.21 9.184 6.914 6.595 11.1 14.707 12.06 23.339.115 1.037.27 1.823.345 1.748.075-.075.384-1.396.685-2.935 2.731-13.949 12.651-25.736 24.972-29.672 9.09-2.905 19.402-2.082 27.652 2.207 9.04 4.702 16.789 14.681 19.392 24.988.485 1.921.882 3.959.882 4.529 0 .614.122.96.3.85.165-.102.3-.635.3-1.185 0-.55.208-2.094.462-3.433 2.235-11.781 10.52-22.372 21.15-27.04 7.352-3.227 17.51-3.692 25.741-1.177 11.811 3.608 21.889 14.71 25.22 27.777 2.647 10.393.547 21.05-6.789 34.456-5.148 9.408-9.929 15.738-19.861 26.298-6.792 7.221-7.123 7.582-12.346 13.452-15.25 17.14-26.11 31.44-31.957 42.07-.973 1.769-1.836 3.219-1.918 3.224-.083.005-.653-.973-1.269-2.171z"/><path fill="#c276b0" d="m165.4 216.79c-3.25-.83-6.4-2.97-6.4-4.36 0-.865.748-1.609 1.617-1.609.451 0 1.416.428 2.145.952 2.364 1.698 3.949 2.247 6.438 2.231 1.698-.011 2.601-.182 3.681-.697 1.779-.848 3.59-2.864 4.099-4.563.481-1.604.8-5.947.437-5.947-.147 0-.619.44-1.048.978-.429.538-1.509 1.377-2.4 1.864-1.458.798-1.89.886-4.32.882-2.318-.004-2.965-.124-4.57-.853-4.36-1.98-6.68-6.37-6.68-12.62 0-3.188.419-5.202 1.578-7.589 2.527-5.202 8.66-7.551 13.572-5.199.99.474 2.196 1.284 2.681 1.8.485.516.991.938 1.125.938s.244-.549.244-1.22c0-1.772.422-2.38 1.65-2.38.71 0 1.125.18 1.339.58.201.375.311 5.288.311 13.887 0 10.903-.082 13.621-.453 15.05-.885 3.398-2.952 5.881-6.094 7.319-2.02.925-6.433 1.2-8.953.559m8.248-14.07c1.594-1.055 2.932-2.896 3.504-4.823.596-2.01.6-7.971.007-9.969-.592-1.993-2.02-3.861-3.714-4.857-1.189-.699-1.732-.82-3.668-.82-1.968 0-2.436.109-3.501.813-2.55 1.688-3.915 4.599-4.183 8.921-.257 4.157.839 7.802 2.954 9.823 1.7 1.625 2.549 1.931 5.073 1.832 1.891-.074 2.482-.228 3.527-.92m-164.6 3.43c-.309-.31-2.37-5.99-4.671-12.88-3.407-10.2-4.062-12.44-3.789-12.95.411-.769 1.559-1.081 2.373-.645.621.332.91 1.163 5.74 16.482.852 2.701 1.653 4.793 1.78 4.65.128-.143.939-2.556 1.803-5.361 3.987-12.944 4.799-15.299 5.405-15.675 1.683-1.045 2.668.069 4.04 4.575 3.246 10.629 5.04 16.231 5.291 16.485.152.157.276.203.276.103 0-.416 6.23-19.947 6.559-20.561.803-1.501 3.041-.946 3.041.754 0 1.206-8.06 24.779-8.614 25.19-.816.611-2.118.458-2.619-.307-.381-.581-2.046-5.647-4.41-13.418-1.51-4.964-2.444-7.532-2.654-7.301-.126.138-.439.926-.696 1.751-.256.825-1.637 5.28-3.067 9.9s-2.793 8.704-3.03 9.07c-.531.841-1.982.905-2.765.123zm39.828.249c-3.975-.673-7.155-3.64-8.696-8.113-.918-2.665-.945-7.686-.055-10.408 1.221-3.738 3.834-6.73 6.868-7.866 1.992-.745 5.682-.821 7.629-.157 1.813.618 4.074 2.399 5.281 4.158 1.277 1.862 2.24 5.03 2.301 7.557.039 1.643-.051 2.049-.535 2.404-.474.34-2.265.42-9.567.42h-8.984l.176 1.485c.227 1.915 1.42 4.423 2.672 5.615 1.711 1.63 3.133 2.2 5.482 2.197 2.485-.003 4.467-.798 6.709-2.688 2.105-1.77 3.645-1.63 3.645.32 0 .95-2.054 2.924-4.02 3.861-2.749 1.312-5.835 1.732-8.906 1.212zm9.529-16.205c-.678-5.727-5.609-9.473-10.04-7.627-2.569 1.07-4.752 4.315-5.087 7.56l-.163 1.575h7.734 7.734l-.179-1.508m16.571 16.222c-4.199-.764-7.648-4.455-8.646-9.254-.472-2.27-.408-6.536.129-8.598 1.505-5.779 5.485-9.162 10.777-9.162 2.656 0 4.212.592 6.21 2.363.768.68 1.477 1.237 1.575 1.237.098 0 .179-3.287.179-7.303 0-6.695.046-7.345.549-7.8.72-.651 1.637-.63 2.255.052.451.498.496 2.255.496 19.05 0 18.1-.013 18.514-.6 19.1-.722.722-1.152.75-2.033.133-.536-.375-.667-.758-.667-1.95 0-.816-.101-1.483-.225-1.483s-.593.461-1.042 1.024c-1.665 2.086-5.55 3.21-8.957 2.59m5.404-3.303c4.544-2.318 6.202-10.729 3.297-16.725-1.481-3.055-3.987-4.554-7.04-4.21-5.085.573-8.119 7.218-6.591 14.434.66 3.117 2.211 5.387 4.503 6.593 1.314.692 4.389.643 5.83-.092m21.742 3.297c-5.613-1.19-8.915-6.126-8.935-13.358-.013-4.593 1.257-8.147 3.831-10.721 1.938-1.938 3.715-2.697 6.714-2.865 3.14-.177 4.72.379 6.877 2.419l1.561 1.476.09-7.554c.084-7.07.127-7.581.672-7.98.852-.622 1.867-.52 2.401.241.41.586.467 2.867.467 18.73 0 10.585-.117 18.372-.283 18.808-.311.817-1.209 1.233-2.072.96-.719-.228-1.246-1.408-1.246-2.792v-1.1l-1.425 1.388c-.784.763-1.941 1.599-2.572 1.858-1.436.588-4.465.832-6.081.49m5.585-3.382c2.837-1.435 4.493-5.1 4.493-9.944 0-5.186-1.571-8.715-4.537-10.194-3.9-1.943-8.138-.017-9.859 4.48-.937 2.448-1.165 7.04-.484 9.734.645 2.556 2.318 4.993 4.052 5.904 1.803.947 4.485.955 6.335.019m15.66 3.208l-.667-.467v-12.603c0-8.114.111-12.809.311-13.183.214-.401.629-.58 1.339-.58.71 0 1.125.18 1.339.58.2.374.311 5.069.311 13.183v12.603l-.667.467c-.367.257-.809.467-.983.467s-.617-.21-.983-.467m10.266.041c-.558-.408-.586-.944-.658-12.825-.084-13.674-.066-13.826 1.629-13.991 1.144-.112 1.897.785 1.897 2.259 0 1.207.139 1.221 1.076.107 1.28-1.522 3.521-2.423 6.02-2.423 4.02 0 7.115 1.786 8.709 5.03l.843 1.717.095 9.275c.052 5.101.017 9.586-.078 9.966-.34 1.353-2.474 1.693-3.054.486-.139-.29-.323-4.858-.408-10.152l-.155-9.624-.842-1.104c-1.113-1.459-2.929-2.346-5.149-2.517-2.48-.191-4.691.936-6 3.058l-.905 1.462-.15 9.424c-.141 8.889-.183 9.448-.732 9.85-.739.54-1.397.539-2.135 0m59.868.092c-1.403-.424-2.882-1.582-3.525-2.757-.46-.841-.543-2.181-.675-10.859l-.15-9.9-1.542-.089c-1.931-.112-2.786-.864-2.269-1.996.29-.637.564-.745 2.073-.824l1.738-.09.15-3.868c.163-4.207.36-4.658 1.868-4.279.989.248 1.123.835 1.128 4.923l.004 3.375h3.84c4.03 0 4.56.157 4.56 1.35 0 1.194-.529 1.35-4.572 1.35h-3.852l.087 9.625.087 9.625.98.875c.819.731 1.238.875 2.55.873.864 0 2.092-.147 2.73-.324.638-.177 1.49-.239 1.893-.138.616.155.718.339.64 1.149-.075.776-.313 1.072-1.214 1.513-1.343.656-5.03.921-6.529.469m19.389-.643c-.234-.371-2.277-6.04-4.541-12.592-2.935-8.498-4.062-12.134-3.928-12.67.257-1.023 1.536-1.346 2.28-.576.3.31 2.037 5.02 3.861 10.464 1.91 5.703 3.469 9.9 3.677 9.9.209 0 1.769-4.217 3.687-9.966 1.829-5.481 3.559-10.199 3.845-10.485.74-.737 2.145-.23 2.269.819.049.416-1.075 4.126-2.496 8.244s-3.27 9.513-4.107 11.988c-.837 2.475-1.726 4.736-1.975 5.03-.653.756-2.052.675-2.571-.15m-89.999-31.448c-1.117-.878-1.117-2.678 0-3.556.44-.35 1.09-.63 1.46-.63.368 0 1.025.28 1.46.622 1.117.878 1.117 2.678 0 3.556-.44.34-1.09.62-1.46.62-.368 0-1.025-.28-1.46-.622zm23.33-28.86c-7.91-14.05-22.97-32.68-46.61-57.68-12.331-13.04-20.615-26.812-24.09-40.05-.817-3.114-.907-3.917-.928-8.25-.017-3.489.123-5.535.513-7.489 1.675-8.395 5.199-15.05 11.142-21.05 6.142-6.195 12.83-9.344 21.901-10.312 6.01-.641 13.04.701 18.9 3.605 10.76 5.335 18.92 16.935 20.66 29.393.44 3.148.367 3.292 1.227-2.429.828-5.506 2.562-9.944 5.791-14.821 2.377-3.59 7.07-8.4 10.222-10.478 6.03-3.973 13.466-5.864 21.512-5.468 9.984.491 17.617 3.992 24.485 11.23 10.182 10.731 13.516 24.658 9.232 38.562-2.989 9.702-10.09 22.13-17.939 31.398-1.051 1.241-4.501 5.02-7.666 8.407-23.2 24.797-38.92 44.665-45.39 57.38l-.882 1.733-2.074-3.682z"/><path fill="#b03a94" d="m165.75 216.78c-3.362-.821-6.75-3.02-6.75-4.384 0-.76.8-1.498 1.625-1.498.375 0 1.482.517 2.459 1.149 2.774 1.793 4.264 2.257 6.692 2.083 3.845-.275 6.734-2.68 7.498-6.242.3-1.397.464-5.39.222-5.39-.057 0-.834.728-1.725 1.617-1.889 1.885-2.982 2.279-6.334 2.281-5.435.004-9.204-3.213-10.574-9.03-1.67-7.084.941-14.411 6.02-16.899 3.768-1.845 8.287-1.233 11.149 1.509.756.725 1.419 1.318 1.472 1.318.053 0 .096-.616.096-1.37 0-1.842.409-2.53 1.504-2.53 1.851 0 1.846-.049 1.735 15.202-.098 13.538-.11 13.775-.791 15.474-2.2 5.493-8.04 8.234-14.298 6.707m7.388-13.712c1.648-.826 3.498-3.108 4.045-4.992.36-1.237.446-2.635.362-5.876-.094-3.661-.2-4.425-.763-5.488-1.627-3.073-3.942-4.62-6.898-4.608-3.214.012-5.656 1.852-7.01 5.279-.587 1.488-.699 2.328-.711 5.364-.017 4.03.44 5.927 1.956 8.13 1.951 2.836 5.844 3.782 9.02 2.191m-164.04 2.95c-.654-.72-8.495-23.71-8.495-24.9 0-.383.162-.858.36-1.056.519-.519 1.897-.443 2.378.132.226.27 1.838 5.02 3.582 10.557 1.744 5.536 3.296 10.11 3.45 10.158.237.078 2.912-8.121 5.743-17.606.901-3.02 1.334-3.6 2.677-3.6 1.301 0 1.606.502 2.913 4.8 3.263 10.727 5.139 16.5 5.363 16.5.139 0 .307-.169.372-.375s1.492-4.762 3.171-10.125c1.679-5.363 3.178-9.986 3.332-10.275.179-.336.633-.525 1.259-.525 1.136 0 1.699.453 1.699 1.366 0 1.016-8.03 24.461-8.591 25.08-.661.73-1.746.704-2.456-.058-.314-.337-1.066-2.261-1.671-4.275-2.542-8.459-5.19-16.532-5.451-16.619-.154-.051-.728 1.358-1.274 3.132-4.582 14.863-5.425 17.401-5.954 17.93-.647.647-1.707.545-2.407-.23zm38.09-.21c-4.884-1.75-7.58-6.29-7.58-12.76 0-4.554 1.267-8.05 3.85-10.624 1.903-1.897 3.841-2.755 6.657-2.948 6.664-.457 11.49 4.201 11.921 11.505.212 3.589.719 3.417-10.04 3.417h-8.783v1.039c0 2.663 2.402 6.438 4.911 7.718.937.478 1.762.626 3.396.609 2.568-.027 3.977-.583 6.52-2.574 1.792-1.403 2.751-1.693 3.413-1.032 1.399 1.399-1.311 4.283-5.28 5.62-2.452.826-6.733.842-8.979.034zm11.32-15.11c0-2.894-1.933-6.352-4.314-7.718-2.969-1.703-6.898-.884-8.879 1.851-1.148 1.59-2.107 4.17-2.107 5.68v1.189h7.65 7.65v-.996zm14.78 15.11c-3.619-1.302-5.898-4.189-6.848-8.674-1.513-7.136 1.046-14.18 6.06-16.691 1.565-.783 2.065-.88 4.606-.889 3.277-.011 4.42.431 6.505 2.516.673.673 1.308 1.224 1.41 1.224.102 0 .185-3.308.185-7.35 0-6.95.033-7.383.6-7.95.33-.33.802-.6 1.05-.6s.72.27 1.05.6c.587.587.6 1 .6 18.92 0 12.06-.106 18.518-.311 18.9-.214.4-.629.58-1.339.58-1.228 0-1.65-.608-1.65-2.38 0-.671-.109-1.22-.241-1.22s-.706.489-1.275 1.087c-1.671 1.756-3.608 2.509-6.434 2.5-1.577-.005-2.938-.202-3.97-.573m7.668-2.924c4.828-2.757 5.722-13.744 1.509-18.542-1.309-1.491-2.991-2.234-5.057-2.234-2.066 0-3.748.743-5.057 2.234-4.097 4.666-3.468 15.04 1.11 18.282 2.087 1.48 5.172 1.586 7.496.26m19.816 3.097c-4.885-1.75-7.46-6.21-7.46-12.93 0-4.947 1.266-8.363 4.051-10.93 2.211-2.038 3.693-2.581 7.05-2.581 2.549 0 2.992.084 4.2.799.743.44 1.81 1.278 2.373 1.863.562.585 1.136.994 1.275.908.139-.086.252-3.446.252-7.467 0-6.246.069-7.38.471-7.782.506-.506 1.258-.602 1.835-.236.917.583.994 2.1.989 19.509-.005 19.08 0 19.02-1.596 19.2-1.249.144-1.7-.409-1.7-2.083 0-.805-.139-1.463-.309-1.463s-.743.494-1.273 1.097c-1.54 1.754-3.491 2.499-6.518 2.486-1.403-.006-3.038-.185-3.635-.398zm6.545-2.616c1.252-.462 3.01-2.366 3.792-4.115 2.527-5.631 1.145-13.529-2.827-16.16-1.714-1.134-4.72-1.346-6.45-.455-1.655.853-2.957 2.316-3.922 4.407-1.448 3.139-1.338 9.415.219 12.485 1.876 3.7 5.477 5.203 9.188 3.835m15.701 2.45c-.2-.373-.311-5.01-.311-13 0-11.654.034-12.454.549-12.92.691-.626 1.669-.636 2.28-.025.413.413.471 2 .471 12.92 0 8.01-.111 12.655-.311 13.03-.214.401-.629.58-1.339.58-.71 0-1.125-.18-1.339-.58m10.563.234c-.53-.53-.543-25.764-.013-26.294.503-.503 1.892-.449 2.34.09.205.248.443 1.068.528 1.823l.155 1.373 1.083-1.119c3.061-3.164 8.119-3.385 12.136-.532.973.691 1.602 1.495 2.339 2.993l1.01 2.048.103 8.848c.119 10.269 0 11.12-1.578 11.12-.551 0-1.144-.172-1.318-.382-.203-.245-.351-3.772-.412-9.825-.082-8.203-.162-9.565-.604-10.374-2.566-4.684-9.893-4.519-12.213.275-.591 1.221-.627 1.789-.631 9.975-.005 9.575-.092 10.114-1.654 10.269-.492.049-1.063-.08-1.268-.285m-10.738-31.889c-1.187-1.187-.955-2.88.497-3.631 1.603-.829 3.266.214 3.266 2.048 0 1.07-1.212 2.32-2.25 2.32-.427 0-1.109-.331-1.514-.736m25.08-25.59c0-.525-3.765-6.947-6.328-10.794-6.248-9.379-15.759-21.336-26.608-33.451-1.885-2.105-3.359-3.995-3.276-4.2.083-.205 3.101-3.532 6.706-7.392 8.522-9.124 10.19-11 12.827-14.431 8.228-10.705 14.47-23.07 16.405-32.506.365-1.778.677-4.666.75-6.944.248-7.722 1.222-12.515 3.534-17.396 7.18-15.14 21.58-22.994 37.99-20.698 8.32 1.164 15.43 4.874 21.17 11.04 9.68 10.421 13.11 23.906 9.45 37.1-2.511 9.04-9.246 21.347-16.904 30.9-1.389 1.733-4.99 5.782-8 9-23.389 24.976-38.651 44.04-45.669 57.04-1.412 2.615-2.039 3.455-2.039 2.73z"/></g></svg>