<svg xmlns="http://www.w3.org/2000/svg" viewBox="0 0 655.77 299.59"><path d="m63.43 266.89h-1.969c-1.074 0-1.909.478-2.447 1.433l-3.759 7.352v15.468l10.562-20.374c.239-.657.478-1.194.478-1.79 0-.656-.298-1.194-.716-1.492-.537-.417-1.252-.596-2.148-.596m-58.6 0h-1.969c-1.91 0-2.865.716-2.865 2.089 0 .537.179 1.133.477 1.79l13.01 25.897c.417.776 1.015 1.372 1.909 1.789.776.418 1.611.596 2.626.596.954 0 1.85-.178 2.685-.596.716-.417 1.313-.954 1.73-1.67l10.8-19.99 10.562 19.931c.358.716.955 1.313 1.731 1.67.715.298 1.55.537 2.506.537.895 0 1.79-.239 2.566-.596.895-.418 1.491-.955 1.789-1.67l1.194-2.301v-15.421l-5.49 10.74-10.8-19.87c-.417-.835-.954-1.432-1.73-1.85-.716-.358-1.552-.596-2.327-.596-.954 0-1.73.239-2.446.716-.776.358-1.372.954-1.73 1.73l-10.86 19.87-10.98-21.361-1.015-1.074-1.372-.359m50.42 8.785l-1.67 3.269v15.421l1.67-3.222v-15.468m0 0l-1.67 3.269v15.421l1.67-3.222v-15.468m44.27-8.785h-13.484c-5.312 0-9.488.895-12.65 2.746-3.044 1.849-4.595 4.415-4.595 7.577v11.993c0 2.805 1.313 5.251 3.999 7.34 1.193.955 2.983 1.731 5.25 2.268 2.268.476 5.01.775 8.295.775h4.594c1.79 0 2.685-.954 2.685-2.744v-.596c0-1.79-.895-2.685-2.685-2.685h-5.37c-6.266 0-9.369-2.268-9.369-6.803h35.802c.657 0 1.194-.298 1.492-.895.358-.596.537-1.253.537-2.089v-7.877c0-2.864-1.492-5.191-4.416-6.862-2.744-1.432-6.086-2.148-10.08-2.148m-23.509 13.665v-3.82c0-1.252 1.074-2.207 3.281-2.924 1.909-.596 4.416-.835 7.518-.835h10.502c2.566 0 4.892.298 6.803 1.074 1.969.716 2.863 1.492 2.863 2.446v4.058h-30.968m50.958-22.496h-1.85c-1.79 0-2.685.835-2.685 2.626v36.16c0 1.79.895 2.744 2.685 2.744h1.85c1.79 0 2.626-.954 2.626-2.744v-36.16c0-1.79-.835-2.626-2.626-2.626m18.676 0h-1.909c-1.79 0-2.685.835-2.685 2.626v6.444h-2.506c-1.79 0-2.686.835-2.686 2.685v.657c0 1.789.896 2.685 2.686 2.685h2.506v23.688c0 1.79.895 2.744 2.685 2.744h1.909c1.79 0 2.626-.954 2.626-2.744v-23.688h11.397c1.79 0 2.685-.896 2.685-2.685v-.657c0-1.85-.895-2.685-2.685-2.685h-11.397v-6.444c0-1.79-.835-2.626-2.626-2.626m85.15 0h-1.85c-1.731 0-2.685.895-2.685 2.685v6.385h-21.422c-5.848 0-10.204 1.015-13.13 2.924-2.626 1.731-3.878 4.118-3.938 7.22l-.059 13.07c-.059 2.685 1.133 4.774 3.461 6.325 2.924 1.909 7.459 2.923 13.724 2.923h11.04c5.549 0 10.02-1.133 13.247-3.281 2.863-1.909 4.296-4.177 4.296-6.742v-28.821c0-1.79-.896-2.685-2.685-2.685m-25.956 35.503c-3.64 0-6.266-.298-7.697-.955-1.492-.596-2.148-1.79-2.148-3.58v-11.636c0-1.433.715-2.507 2.267-3.163 1.552-.657 3.998-1.074 7.399-1.074h21.601v16.289c0 1.253-.896 2.268-2.805 2.983-1.909.776-4.594 1.135-8.294 1.135h-10.323m67.49-26.673h-13.485c-5.311 0-9.487.895-12.59 2.746-3.043 1.849-4.655 4.415-4.655 7.577v11.993c0 2.805 1.313 5.251 4.058 7.34 1.193.955 2.983 1.731 5.251 2.268 2.267.476 4.952.775 8.294.775h4.594c1.79 0 2.626-.954 2.626-2.744v-.596c0-1.79-.835-2.685-2.626-2.685h-5.37c-6.266 0-9.368-2.268-9.368-6.803h35.741c.657 0 1.194-.298 1.552-.895.298-.596.537-1.253.537-2.089v-7.877c0-2.864-1.552-5.191-4.475-6.862-2.685-1.432-6.03-2.148-10.08-2.148m-23.509 13.665v-3.82c0-1.252 1.074-2.207 3.341-2.924 1.85-.596 4.357-.835 7.519-.835h10.442c2.626 0 4.953.298 6.862 1.074 1.909.716 2.864 1.492 2.864 2.446v4.058h-31.03m65.1-13.665h-2.804c-4.894 0-8.712.895-11.517 2.685-2.804 1.731-4.176 4.237-4.237 7.46l-.059 19.809c0 1.79.835 2.744 2.626 2.744h2.029c1.73 0 2.626-.954 2.626-2.744v-19.809c0-1.253.476-2.209 1.55-2.864 1.253-.776 3.461-1.194 6.505-1.194h3.281c1.79 0 2.746-.955 2.746-2.744v-.657c0-1.79-.955-2.685-2.746-2.685m97.38 0h-2.029c-1.015 0-1.85.478-2.387 1.433l-10.919 21.361-10.8-19.87c-.417-.835-.954-1.432-1.73-1.85-.776-.358-1.552-.596-2.327-.596-.955 0-1.731.239-2.446.716-.776.358-1.373.954-1.731 1.73l-10.86 19.87-10.979-21.361-1.015-1.074-1.372-.359h-1.97c-1.909 0-2.924.716-2.924 2.089 0 .537.239 1.133.537 1.79l13.01 25.897c.418.776 1.015 1.372 1.85 1.789.836.418 1.672.596 2.685.596.955 0 1.85-.178 2.626-.596.776-.417 1.372-.954 1.731-1.67l10.86-19.99 10.562 19.931c.358.716.954 1.313 1.67 1.67.776.298 1.611.537 2.566.537.895 0 1.789-.239 2.565-.596.896-.418 1.492-.955 1.79-1.67l13.426-25.897c.239-.657.478-1.194.478-1.79 0-.656-.299-1.194-.776-1.492-.537-.417-1.194-.596-2.089-.596m50.06 0h-1.909c-1.79 0-2.686.895-2.686 2.685v20.348c0 1.253-.895 2.089-2.744 2.685-1.79.657-4.296.955-7.399.955h-10.741c-3.281 0-5.787-.359-7.577-.955-1.85-.656-2.805-1.611-2.805-2.804v-20.229c0-1.79-.835-2.685-2.624-2.685h-1.851c-1.789 0-2.685.895-2.685 2.685v20.229c0 2.863 1.135 5.131 3.401 6.742 2.864 2.029 7.579 3.043 14.14 3.043h10.741c5.788 0 10.204-1.013 13.306-2.923 2.746-1.731 4.118-3.999 4.118-6.862v-20.229c0-1.79-.896-2.685-2.685-2.685m39.799 0h-11.815c-5.728 0-9.964.835-12.65 2.446-2.506 1.492-3.759 3.82-3.759 6.803v20.705c0 1.79.835 2.744 2.626 2.744h1.85c1.79 0 2.685-.954 2.685-2.744v-20.765c0-1.253.776-2.209 2.447-2.626 1.252-.358 3.52-.478 6.922-.478h11.695c3.222 0 5.49.12 6.742.537 1.611.478 2.387 1.313 2.387 2.566v20.765c0 1.79.835 2.744 2.626 2.744h1.97c1.789 0 2.626-.954 2.626-2.744v-20.765c0-2.983-1.313-5.311-4.058-6.803-2.626-1.611-6.742-2.387-12.291-2.387m68.74-8.831h-1.85c-1.73 0-2.626.895-2.626 2.685v6.385h-21.481c-5.848 0-10.203 1.015-13.13 2.924-2.566 1.731-3.879 4.118-3.938 7.22l-.059 13.07c-.061 2.685 1.133 4.774 3.461 6.325 2.924 1.909 7.518 2.923 13.724 2.923h11.04c5.549 0 10.02-1.133 13.306-3.281 2.805-1.909 4.297-4.177 4.297-6.742v-28.821c0-1.79-.955-2.685-2.746-2.685m-25.956 35.503c-3.639 0-6.205-.298-7.697-.955-1.432-.596-2.089-1.79-2.089-3.58v-11.636c0-1.433.716-2.507 2.209-3.163 1.552-.657 3.998-1.074 7.399-1.074h21.659v16.289c0 1.253-.954 2.268-2.804 2.983-1.909.776-4.655 1.135-8.294 1.135h-10.383m67.49-26.673h-13.426c-5.311 0-9.488.895-12.649 2.746-3.044 1.849-4.655 4.415-4.655 7.577v11.993c0 2.805 1.372 5.251 4.057 7.34 1.194.955 2.983 1.731 5.251 2.268 2.268.476 5.01.775 8.294.775h4.595c1.789 0 2.626-.954 2.626-2.744v-.596c0-1.79-.836-2.685-2.626-2.685h-5.371c-6.265 0-9.368-2.268-9.368-6.803h35.802c.657 0 1.194-.298 1.492-.895.358-.596.537-1.253.537-2.089v-7.877c0-2.864-1.552-5.191-4.416-6.862-2.744-1.432-6.086-2.148-10.144-2.148m-23.451 13.665v-3.82c0-1.252 1.074-2.207 3.283-2.924 1.85-.596 4.416-.835 7.518-.835h10.502c2.566 0 4.892.298 6.803 1.074 1.969.716 2.863 1.492 2.863 2.446v4.058h-30.969m65.1-13.665h-2.864c-4.833 0-8.712.895-11.456 2.685-2.805 1.731-4.237 4.237-4.296 7.46l-.059 19.809c0 1.79.895 2.744 2.685 2.744h1.969c1.731 0 2.685-.954 2.685-2.744v-19.809c0-1.253.418-2.209 1.492-2.864 1.253-.776 3.461-1.194 6.503-1.194h3.342c1.79 0 2.685-.955 2.685-2.744v-.657c0-1.79-.895-2.685-2.685-2.685"/><path d="m327.91 0c-63.847 0-115.64 51.793-115.64 115.64 0 63.847 51.793 115.58 115.64 115.58 63.847 0 115.58-51.733 115.58-115.58 0-63.847-51.733-115.64-115.58-115.64m0 222.81c-59.19 0-107.17-47.973-107.17-107.17 0-59.19 47.974-107.17 107.17-107.17 59.19 0 107.17 47.974 107.17 107.17 0 59.19-47.973 107.17-107.17 107.17m0-206.16c-19.87 0-38.37 5.848-53.881 15.932l26.314 23.45 27.567-24.584 27.567 24.584 26.315-23.45c-15.515-10.08-34.01-15.932-53.882-15.932m80.49 41.41l-52.927 47.2-27.567-24.644-27.567 24.644-52.927-47.2c-11.636 16.23-18.437 36.1-18.437 57.58h197.86c0-21.481-6.802-41.35-18.437-57.58m-25.36 71.31l-27.567 24.584-27.567-24.584-27.567 24.584-27.627-24.584-27.567 24.644 55.19 49.17 27.567-24.583 27.567 24.583 55.19-49.17-27.627-24.644" fill="#b4152b"/></svg>