<svg xmlns="http://www.w3.org/2000/svg" viewBox="0 0 197.48862 64.000008" width="197.49"><path fill="#fff" d="m163 62.904c0-.603.73-3.606 1.622-6.674 1.496-5.145 1.496-5.671 0-6.764-.89-.652-1.62-1.923-1.62-2.825 0-1.376 1.222-1.64 7.583-1.64 8.04 0 9.4 1.217 4.187 3.759-1.992.972-3.067 2.856-4.705 8.25-1.882 6.196-2.405 6.991-4.595 6.991-1.359 0-2.471-.493-2.471-1.096zm17.47-1.166c-.312-1.244-.433-5.632-.269-9.75.289-7.241.381-7.488 2.799-7.488 2.226 0 2.534.465 2.808 4.25.169 2.337.649 4.25 1.066 4.25.417 0 1.756-1.774 2.974-3.943 2.163-3.849 5.162-5.788 7.1-4.59 1.315.813.428 2.842-4.819 11.03-5.01 7.817-5.682 8.463-8.86 8.485-1.49.001-2.419-.736-2.799-2.246m-154.94-6.35c-.886-.886-2.779-3.923-4.208-6.75-1.428-2.826-6.811-12.644-11.961-21.818-5.149-9.173-9.363-17.52-9.363-18.55 0-2.934 2.049-4.271 6.545-4.271 2.715 0 4.705.618 5.767 1.793.892.986 4.278 7.399 7.524 14.25 3.246 6.851 6.807 13.266 7.914 14.255 1.833 1.638 2.152 1.657 3.591.218.869-.869 1.809-3.03 2.09-4.797.521-3.285 2.568-23.02 2.568-24.758 0-1.966 4.092-4.961 6.777-4.961 4.68 0 7.05 2.691 13.223 15 3.265 6.513 6.42 12.141 7.01 12.507 2.409 1.489 3.83-1.773 4.488-10.309.369-4.784 1.1-10.386 1.624-12.448.809-3.183 1.362-3.748 3.664-3.735 5.745.032 5.751.075 3.166 20.643-2.061 16.399-2.66 19.13-4.616 21.09-2.275 2.277-6.695 2.944-9.159 1.382-.726-.46-4.101-6.416-7.5-13.235-4.865-9.761-6.656-12.465-8.42-12.716-1.573-.223-2.529.373-3.211 2-.846 2.024-3.048 22.838-3.048 28.819 0 1.185-1.315 3.47-2.923 5.078-3.355 3.355-8.875 3.983-11.545 1.312m147.45-15.77c-3.231-3.105-7.356-4.074-8.985-2.11-1.609 1.939-4.892 1.914-5.644-.044-.804-2.096 2.67-18.236 4.198-19.504 2.778-2.306 5.983 1.01 11.285 11.67 2.868 5.767 4.953 10.909 4.632 11.427-.97 1.569-2.877 1.069-5.487-1.439m-4.566-10.791c-1.356-2.622-1.794-2.897-2.527-1.586-1.24 2.216-.039 4.757 2.249 4.757 1.833 0 1.845-.142.279-3.171m-80.41 10.173c-1.148-.71-5.958-27.828-5.986-33.751-.013-2.917.28-3.25 2.863-3.25 1.583 0 3.338.563 3.9 1.25 1.216 1.486 5.222 25.61 5.222 31.444 0 3.521-.33 4.136-2.435 4.538-1.339.256-2.943.152-3.564-.232m11.02-3.25c-1.378-3.3-5.266-30.539-4.528-31.732.346-.56 1.78-1.018 3.188-1.018 2.903 0 7.218 4.071 14.572 13.75 6.678 8.789 8.08 8.448 7.191-1.75-.565-6.473-.435-7.997.681-7.985 3.174.035 4.03 2.125 5.958 14.494 1.76 11.309 1.823 13.02.526 14.315-2.542 2.542-6.603-.294-13.451-9.392-4.06-5.399-7.03-8.432-8.25-8.432-2.231 0-2.358 1.606-.858 10.852.76 4.683.726 6.719-.13 7.75-1.716 2.068-3.832 1.7-4.898-.852m37.97.386c-7.84-4.194-11.85-19.363-6.54-24.682 1.39-1.385 3.63-2.455 5.14-2.455 7.338 0 17.428 5.91 16.08 9.419-.624 1.625-1.03 1.559-5.102-.827-5.42-3.177-9.09-3.345-10.624-.487-3.624 6.772 5.719 18.287 12.08 14.884 2.687-1.438 2.488-2.632-.697-4.184-5.86-2.857-3.27-5.675 3.531-3.844 4.269 1.149 4.879 2.33 5.441 10.518l.204 2.979-8.01.273c-6.286.214-8.765-.13-11.5-1.593z"/></svg>