<svg xmlns="http://www.w3.org/2000/svg" viewBox="0 0 222 334.20001"><path d="m0 282.75v-51.45h111 111v51.45 51.45h-111-111v-51.45m218.33 23.925l.077-23.775h-107.4-107.4v23.65c0 13.01.09 23.74.2 23.85.11.11 48.41.166 107.32.125l107.12-.075.077-23.775zm-139.73 14.11c-3.971-.664-7.091-2.897-8.531-6.103-.453-1.01-.775-1.884-.716-1.943.129-.129 7.244-1.361 7.302-1.264 1.106 1.85 1.526 2.335 2.37 2.735.559.265 1.71.482 2.559.482 1.239 0 1.689-.145 2.28-.736.907-.907.913-1.125.058-2.119-.531-.617-1.405-.975-4.01-1.642-4.047-1.036-6.01-1.991-7.378-3.588-2.424-2.832-2.331-7.755.202-10.714 2.217-2.59 6.479-3.832 10.827-3.157 3.315.515 5.403 1.722 6.99 4.04 1.686 2.462 1.698 2.441-1.951 3.621l-3.228 1.044-.574-.949c-.692-1.146-.92-1.309-2.398-1.718-2.04-.564-3.8.215-3.8 1.683 0 1.026.908 1.491 4.35 2.228 3.855.825 6.15 1.865 7.61 3.449 1.452 1.575 1.976 3.065 1.957 5.559-.027 3.44-1.752 6.186-4.894 7.788-2.35 1.199-6.268 1.765-9.02 1.305m82.31-.104c-2.987-.591-6.662-3.556-7.912-6.382-2.081-4.705-2.01-10.9.182-15.422 3.946-8.146 16.316-8.509 20.943-.614 1.125 1.921 1.981 5.582 1.981 8.48 0 2.652-.774 6.247-1.755 8.151-2.343 4.547-7.81 6.901-13.438 5.787m4.846-6.981c1.349-1.349 1.769-3.03 1.781-7.107.012-3.923-.374-5.587-1.618-6.98-1.104-1.236-2.872-1.342-4.04-.243-1.39 1.306-1.825 3.061-1.825 7.373 0 3.647.054 4.01.825 5.579 1.277 2.599 3.133 3.124 4.879 1.378m-151.66-6.96v-13.65h9.45 9.45v3.15 3.15h-5.4-5.4v2.1 2.1h4.2 4.2v2.85 2.85h-4.2-4.2v5.55 5.55h-4.05-4.05v-13.65m25.2 13.398c0-.251 6.819-23.853 7.536-26.08l.316-.983 4.244.083 4.244.083 3.978 13.5c2.188 7.425 3.979 13.538 3.98 13.583 0 .046-1.847.046-4.107 0l-4.11-.084-.631-2.55-.631-2.55-3.471-.084-3.471-.084-.72 2.634-.72 2.634-3.219.085c-1.791.05-3.219-.03-3.219-.18zm13.198-11.523c-.002-.457-1.722-6.849-1.888-7.01-.065-.065-.479 1.267-.921 2.961s-.883 3.382-.981 3.754c-.172.65-.105.675 1.807.675 1.389 0 1.984-.113 1.983-.375m49.2-1.875v-13.65h3.9 3.9v5.1 5.1h3 3v-5.1-5.1h4.05 4.05v13.65 13.65h-4.05-4.05v-5.411-5.411l-2.925.086-2.925.086-.082 5.325-.082 5.325h-3.893-3.893v-13.65m32.4.017v-13.633l3.926-.092c2.159-.05 3.982-.035 4.05.033.068.069.124 6.245.124 13.725v13.6h-4.05-4.05v-13.633m51.3-.017v-13.65h3.878 3.878l3.966 6.975c4.502 7.919 4.826 8.39 4.457 6.479-.139-.717-.258-4.04-.265-7.379l-.013-6.075h3.3 3.3v13.65 13.65l-3.375-.003-3.375-.003-4.05-7.09c-2.227-3.899-4.32-7.692-4.65-8.428l-.6-1.337.1 8.43.1 8.43h-3.325-3.325v-13.65zm-106.1-34.05c6.519-1.068 10.09-6.05 10.1-14.12.0001-6.257-2.298-10.511-6.896-12.711-1.833-.877-2.158-.933-5.4-.933-3.205 0-3.577.062-5.234.876-3.839 1.885-6.181 5.566-6.793 10.674-.971 8.11 2.813 14.635 9.327 16.08 2.086.464 2.74.481 4.896.128m-4.149-7c-1.303-1.303-1.734-2.965-1.766-6.807-.031-3.75.468-5.969 1.619-7.2.693-.741 1.078-.9 2.189-.9 1.161 0 1.475.143 2.254 1.031 1.267 1.443 1.663 3.516 1.499 7.852-.109 2.894-.257 3.803-.784 4.822-1.269 2.451-3.28 2.933-5.01 1.202m-45.23-.357c.884-3.795 1.684-7.103 1.779-7.35s.945 2.858 1.889 6.9l1.716 7.35 3.428.084 3.428.084 3.263-13.284c1.795-7.306 3.329-13.458 3.41-13.67.114-.302-.524-.367-2.951-.3l-3.097.086-1.699 7.379c-.935 4.059-1.761 7.564-1.836 7.79-.075.226-.491-1.07-.923-2.88-.432-1.809-1.278-5.349-1.879-7.865l-1.093-4.575h-3.097-3.097l-.591 2.625c-.325 1.444-1.105 4.951-1.733 7.793-.628 2.843-1.18 5.131-1.226 5.085-.046-.046-.835-3.317-1.754-7.268-.918-3.952-1.742-7.421-1.83-7.71-.141-.462-.591-.525-3.74-.525-2.868 0-3.58.083-3.58.42 0 .231.813 3.572 1.807 7.425.994 3.853 2.512 9.81 3.375 13.239l1.569 6.233 3.428-.083 3.428-.083 1.607-6.9m85.59 1.95v-5.1h1.275 1.275l1.8 4.988c.99 2.743 1.942 5.04 2.114 5.109.173.066 2.156.083 4.408.037l4.093-.084-2.388-5.68c-1.314-3.124-2.285-5.764-2.158-5.867.127-.103.726-.55 1.332-.993 2.738-2 3.614-6.826 1.873-10.31-1.043-2.088-2.907-3.489-5.303-3.986-.954-.198-4.46-.295-8.922-.246l-7.35.081-.078 13.575-.078 13.575h4.053 4.053v-5.1m0-13.458v-2.742h2.564c2.322 0 2.633.069 3.3.736 1.013 1.013 1.017 2.795.008 3.743-.603.567-1.169.712-3.3.845l-2.572.16v-2.742m51.6 15.415v-3.143l-5.03-.082-5.03-.082-.079-10.425-.079-10.425h-3.896-3.896v13.65 13.65h9 9v-3.143m33.15 2.152c5.153-2.407 7.985-8.47 7.05-15.08-.698-4.916-3.477-8.799-7.423-10.37-1.614-.642-2.156-.687-8.474-.696l-6.75-.0001-.078 13.595-.078 13.595 6.978-.095c6.924-.094 6.992-.102 8.778-.936m-7.65-12.696v-7.387l1.662.138c2.802.232 4.141 1.718 4.682 5.194.579 3.719-.671 7.773-2.74 8.882-.575.308-1.621.56-2.325.56h-1.28v-7.387m-192.6-147.71v-111h111 111v111 111h-111-111v-111m92.55 105.36c43.15-6.516 72.01-14.07 91.8-24.04 12.638-6.365 19.884-12.933 22.58-20.468 1.121-3.135 1.113-7.458-.021-10.9-2.668-8.097-11.142-16.994-24.275-25.488-1.769-1.144-3.172-2.124-3.119-2.177.201-.201 12.569 5.185 18.335 7.985 7.06 3.429 11.288 5.802 16.13 9.06 1.944 1.305 3.598 2.373 3.676 2.373s.107-33.379.065-74.17l-.076-74.17-38.25-.092c-27.14-.065-39.03.007-40.95.247-49.789 6.247-90.17 17.32-109.2 29.943-7.801 5.175-12.13 9.966-14.18 15.701-1.121 3.135-1.113 7.459.021 10.9 2.677 8.125 11.1 16.965 24.275 25.488 1.769 1.144 3.171 2.125 3.117 2.18-.055.055-3.19-1.213-6.966-2.816-11.597-4.932-22.378-10.564-28.597-14.947-1.295-.912-2.435-1.659-2.534-1.659-.253 0-.224 148.05.029 148.31.115.115 18.1.165 39.975.112l39.767-.096 8.4-1.268zm-29.668-27.28c-.094-.45-1.595-10.95-3.336-23.33-1.741-12.37-3.966-28.17-4.946-35.1-.979-6.93-3.478-24.61-5.553-39.3-2.076-14.685-4.246-30.08-4.825-34.2-1.147-8.186-1.579-9.604-3.244-10.633-.538-.332-1.676-.766-2.528-.962l-1.55-.358v-1.599-1.599h16.5 16.5v1.624 1.624l-1.193.202c-1.644.278-3.085 1.322-3.533 2.562-.231.64-.316 1.789-.22 2.99.294 3.678 10.443 74.42 10.643 74.19.11-.13 2.865-12.229 6.123-26.887l5.923-26.65-.178-5.6c-.367-11.528-.806-16.362-1.635-17.986-.631-1.237-2.247-2.294-4.01-2.621l-1.125-.209v-1.767-1.767h5.775c3.176 0 10.534.09 16.35.199l10.575.198v1.568 1.568l-1.115.209c-3.02.567-3.983 1.899-3.984 5.521 0 1.382.674 10.36 1.499 19.95 2.367 27.512 4.175 48.739 4.36 51.19.093 1.237.242 2.588.331 3 .112.522 1.389-3.129 4.199-12 2.221-7.01 6.133-19.348 8.694-27.411l4.656-14.661-.095-10.989c-.086-9.944-.147-11.09-.646-12.1-.653-1.313-1.4-1.85-3.38-2.427l-1.469-.428v-1.619-1.619h29.25 29.25v24.3 24.3l-2.146.088-2.146.088-.17-2.788c-.876-14.383-1.198-17.324-2.452-22.356-1.871-7.507-4.547-11.533-9.1-13.69l-1.987-.942-7.125-.099-7.125-.099v29.874c0 26.15.055 29.874.443 29.874.887 0 4.416-1.507 6.02-2.569 4.307-2.859 6.796-7.881 7.238-14.606l.193-2.925h2.205 2.205v25.5 25.5h-2.206-2.206l-.348-3.375c-.971-9.415-4.04-14.239-10.451-16.446-.92-.32-1.99-.58-2.38-.58h-.703v30.17c0 21.475.098 30.556.34 31.517.447 1.776 1.641 2.923 3.614 3.471l1.596.444v1.625 1.625l-15.825.078-15.825.078v-1.776-1.776l1.15-.194c1.575-.266 2.916-1.14 3.56-2.32.511-.936.543-3.167.597-42.538.036-26.22-.048-41.33-.226-40.95-.156.33-2.108 6.945-4.338 14.7-2.231 7.755-5.398 18.758-7.04 24.45-8.01 27.77-13 45.11-13.721 47.625l-.794 2.775h-3.694c-2.774 0-3.694-.094-3.694-.379 0-.342-.703-8.648-1.95-23.02-.738-8.516-5.529-62.08-5.742-64.2-.14-1.397-.263-1.78-.432-1.35-.13.33-1.539 6.472-3.131 13.65-1.592 7.177-4.695 21.08-6.896 30.9-2.201 9.817-5.173 23.12-6.605 29.55-1.432 6.435-2.767 12.375-2.967 13.2l-.364 1.5-3.631.084-3.631.084-.17-.834zm154.78 28.341c.079-.206.108-8.273.066-17.925-.075-16.993-.095-17.513-.603-16.388-3.283 7.265-15.07 15.266-33.08 22.456-11.546 4.61-27.08 9.02-39.24 11.136-2.276.396-4.222.805-4.325.908-.103.103 17.19.187 38.422.187 30.611 0 38.639-.078 38.753-.375m-212.86-178.26c0-.224.673-1.414 1.497-2.644 4.455-6.661 15.14-13.453 31.504-20.02 11.32-4.544 27.408-9.128 39-11.11 2.062-.353 4.02-.754 4.35-.892s-16.815-.225-38.1-.194l-38.7.055-.077 17.794c-.052 11.899.023 17.732.225 17.607.166-.103.302-.37.302-.594"/></svg>