<svg xmlns="http://www.w3.org/2000/svg" viewBox="0 0 519 220"><g transform="translate(-84.09-577.82)" fill="#ee3053" fill-rule="evenodd"><path d="m402.04 688.78l50.571-64.18v129.15l-50.571-64.968m-148.27 0l34.621 48.52 35.24-48.52-35.24-47.11-34.621 47.11m-153.45 93.26l68.908-93.26-68.45-95.15h84.4l27.506 37.15 27.2-37.15h98.78l27.983 37.3 27.339-37.3h120.6v140.82h72.7v47.586h-198.06l-22.587-31.469-24.04 31.469h-106.82l-23.09-31.3-23.23 31.3h-89.13"/><path d="m304.06 688.92l-15.544-20.773-15.281 20.773 15.281 21.393 15.544-21.393m132.78-18.839l-14.78 18.767 14.78 18.982v-37.749m166.2 59.859l.048 56.54c0 6.232-5.11 11.317-11.341 11.317h-197.46c-11.27 0-14.183-2.316-15.472-4.131l-12.11-16.427-12.225 16.403c-1.289 1.838-4.178 4.155-15.472 4.155h-98.73c-11.27 0-14.254-2.316-15.52-4.131l-12.13-16.427-12.225 16.403c-1.265 1.838-4.298 4.155-15.568 4.155l-67.833.024h-18.218c-8.285 0-20.677-11.7-11.413-24.808l62.32-84.36-60.31-83.998c-11.509-16.09.979-26.813 10.05-26.813h81.49c11.294 0 14.302 2.34 15.591 4.155l16.308 21.943 16.26-21.966c1.289-1.838 4.274-4.155 15.544-4.155l-1.504.048 91.61-.024c11.294 0 14.302 2.34 15.591 4.155l16.308 21.943 16.284-21.966c1.265-1.838 4.25-4.155 15.52-4.155l-1.504.048h121.99l.143-.048c6.208 0 11.27 5.04 11.27 11.246v129.63h61.34c6.327-.024 11.365 5.01 11.365 11.246m-158.68-.263l-31.827-40.877 31.827-40.38v81.25m-155.91-6.518l-24.473-34.31 24.473-33.31 24.951 33.31-24.951 34.31m307.1 61.08c0 3.319-2.698 6.02-6.02 6.02l-194.43.048h-.836c-8.261 0-10.339-2.316-11.628-4.155l-15.902-21.537-15.997 21.537c-1.289 1.838-4.25 4.155-12.511 4.155h-97.2-.836c-8.261 0-10.339-2.316-11.604-4.155l-15.926-21.537-15.997 21.537c-1.265 1.838-3.295 4.155-11.556 4.155l-67.59.024h-18.457c-5.898 0-9.455-7.354-5.539-13.01l1.647-2.292 63.846-86.31-64.849-90.35c-3.916-5.635-.358-12.989 5.539-12.989h82.947c8.261 0 8.834 2.292 10.124 4.131l20.06 27.08 20.08-27.1c1.289-1.838 1.862-4.155 10.124-4.155l2.34.024 91.09.024c8.261 0 8.834 2.292 10.124 4.131l20.08 27.08 20.08-27.1c1.265-1.838 1.265-4.107 9.527-4.107h120.55c3.319 0 6.02 2.722 6.02 6.04v134.78h66.47l.239.024c3.319 0 5.993 2.698 5.993 6.02v52"/></g></svg>