<svg xmlns="http://www.w3.org/2000/svg" height="1241.1" viewBox="0 0 1249.9402 1241.0784" width="1249.9"><path d="m1095.6 1239.2c-55.49-11.889-92.14-62-92.2-126.05-.035-40.44 11.496-71.7 35.3-95.7 16.574-16.713 34.27-25.93 59.769-31.13 18.564-3.783 17.731-4.774 17.731 21.09 0 23.766.364 22.822-10.239 26.556-24.622 8.671-39.954 31.969-43.45 66.03-4.513 43.973 13.619 82.09 43.43 91.3 4.559 1.408 8.725 3.245 9.256 4.082 1.656 2.607 1.21 42.692-.495 44.4-1.944 1.944-8.232 1.755-19.11-.574zm42.62-.606c-1.633-2.332-2.01-6.389-2.01-21.43 0-10.205.555-19.591 1.233-20.858.711-1.329 4.81-3.439 9.688-4.988 21.619-6.864 36.856-25.779 42.26-52.46 2.693-13.291 1.947-46.49-1.306-58.12-6.552-23.412-21.248-40.11-41.35-46.976-4.07-1.39-8.102-3.469-8.962-4.619-1.959-2.622-2.187-38.11-.268-41.696 1.795-3.354 9.164-3.172 24.01.594 55.55 14.09 88.4 60.35 88.4 124.49 0 47.74-19.35 87.24-53.588 109.39-14.433 9.337-33.456 16.496-49.66 18.689-5.8.785-6.618.59-8.438-2.01zm-1055.7-2.3c-1.592-1.01-1.969-8.122-2.5-47.17l-.625-45.984-38.655-71.25c-21.261-39.2-39.26-72.87-40-74.81-2.453-6.458.138-7.087 29.24-7.087 20.07 0 26.28.386 28.2 1.753 1.356.964 19.341 35.582 39.966 76.929l37.5 75.18.371 44.799c.33 39.924.151 45.02-1.652 46.821-1.724 1.724-5.558 2.02-25.996 2-13.185-.011-24.817-.552-25.848-1.203zm109-.3c-.825-.825-1.5-2.489-1.5-3.698 0-1.209 18.361-55.24 40.801-120.06 26.767-77.32 41.648-118.62 43.26-120.05 2.192-1.947 5.589-2.188 30.935-2.188 25.298 0 28.762.244 31.06 2.188 2.852 2.41 86.44 235.19 86.44 240.72 0 1.69-.89 3.415-1.977 3.832-1.087.417-13.917.759-28.511.759-19.261 0-27.12-.428-28.657-1.563-1.247-.917-4.969-10.824-9.02-23.993-3.791-12.337-7.801-23.435-8.912-24.663-1.797-1.986-4.918-2.27-28.28-2.569-23.1-.296-26.416-.592-27.591-2.456-1.685-2.673 8.287-38.31 11.386-40.693 1.301-1 6.351-1.563 14.04-1.563 12.412 0 15.01-.915 15.01-5.284 0-1.256-3.328-13.12-7.395-26.353s-8.336-27.707-9.487-32.15c-2.51-9.703-3.783-11.454-7.966-10.961-2.364.279-3.588 1.506-4.738 4.751-.852 2.406-12.08 40.09-24.946 83.75s-24.23 80.36-25.25 81.56c-1.664 1.962-4.714 2.188-29.536 2.188-19.863 0-28.1-.424-29.18-1.5zm300.67-.062c-1.714-1.304-85.92-237.4-85.92-240.9 0-.611.884-1.996 1.964-3.076 1.66-1.66 5.992-1.964 27.931-1.964 24.25 0 26.11.163 28.2 2.464 1.226 1.355 19.308 55.777 40.18 120.94 30.63 95.62 37.718 119.02 36.74 121.29-1.193 2.77-1.555 2.813-24.12 2.813-16.402 0-23.496-.444-24.966-1.563zm168.08.1c-1.146-1.146-1.5-30.05-1.5-122.46 0-118.31.053-120.98 2.418-122.25 1.423-.762 12.19-1.294 26.18-1.294 23.14 0 23.812.073 25.707 2.778 1.728 2.467 1.946 16.02 1.946 120.97s-.218 118.5-1.946 120.97c-1.899 2.711-2.539 2.778-26.625 2.778-17.528 0-25.11-.435-26.18-1.5zm109.2-1.278c-1.728-2.467-1.946-16.02-1.946-120.97s.218-118.51 1.946-120.97c1.899-2.711 2.539-2.778 26.625-2.778 17.528 0 25.11.435 26.18 1.5 2.175 2.175 2.175 242.32 0 244.5-1.065 1.065-8.651 1.5-26.18 1.5-24.09 0-24.726-.067-26.625-2.778zm76.25 0c-1.541-2.199-1.946-6.495-1.946-20.625 0-22.259.355-22.836 14.06-22.869 11.402-.027 23.847-2.627 31.751-6.632 7.846-3.976 16.558-13.317 20.817-22.319 12.335-26.07 12.419-72.02.175-96.4-9.721-19.353-23.348-26.78-53.39-29.1-6.05-.466-10.406-1.448-11.562-2.604-1.473-1.473-1.856-5.649-1.856-20.238 0-25.513-.884-24.527 21.14-23.558 27.434 1.208 45.907 5.858 62.55 15.746 21.655 12.865 39.01 38.07 47.26 68.62 3.03 11.226 3.279 14.09 3.337 38.38.055 23.09-.263 27.467-2.644 36.36-12.212 45.648-38.37 74.13-76.64 83.44-9.57 2.327-30.484 4.576-42.562 4.576-7.415 0-8.804-.368-10.493-2.778m-293.57-41.525c-2.51-2.51-22.13-63.26-22.09-68.39.019-2.3 8.991-32.588 19.938-67.31 15.05-47.735 20.561-63.66 22.603-65.31 2.365-1.916 5.721-2.188 27.02-2.188 14.373 0 25.308.529 26.737 1.294 1.33.712 2.418 2.55 2.418 4.085 0 3.366-66.877 192.8-69.48 196.81-2.104 3.24-4.566 3.588-7.144 1.01zm-406.22-75.85c-3.225-1.828-24.653-45.22-24.653-49.925 0-4.492 33.763-71.77 37.755-75.23 2.227-1.932 5.547-2.188 28.383-2.188 27.1 0 28.862.34 28.862 5.579 0 3.419-62.985 119.62-65.877 121.54-1.563 1.036-2.924 1.107-4.469.231zm290.85-272.85l-4.25-4.25-.032-107.31c-.018-59.02-.571-112.85-1.229-119.62-.729-7.491-2.58-16.292-4.734-22.5-2.32-6.7-55.83-107.52-154.04-290.24-82.76-154-151.04-282.08-151.72-284.61-1.57-5.879.25-10.148 5.78-13.518 4.03-2.461 6.48-2.493 194.15-2.497l190.06-.005 5.05 3.275c4.862 3.153 10.274 13.813 144.6 284.87 86.33 174.19 140.96 285.82 143.23 292.66 9.536 28.677 10.11 37.495 10.11 155.46 0 109.5.217 105.82-6.521 110.54-2.493 1.746-21.858 1.951-184.51 1.951h-181.72l-4.25-4.25zm407.4-330.62c-2.146-2.165-38.13-73.24-91.61-180.94l-88.08-177.37v-8.75-8.75l33.374-66.53c32.39-64.58 33.52-66.6 38.36-69.07 4.96-2.531 6.02-2.543 195.74-2.22l190.75.324 3.79 4.242c3.254 3.642 3.704 4.967 3.179 9.375-.799 6.716-262.91 494.65-268.5 499.82-5.21 4.82-12.166 4.768-17.02-.128z"/></svg>