<svg xmlns="http://www.w3.org/2000/svg" viewBox="0 0 200 154.65"><g transform="matrix(.73871 0 0 .73871-417.24-249.19)"><path d="m595 380l42-42 63 64h-74z" fill="#73c908"/><path d="m700 402l63-64 42 42-39 22z" fill="#b3fa0a"/><path d="m671 455l-76-75 105 22v53z" fill="#387305"/><path d="m700 455v-53l105-22-76 75z" fill="#4e9d04"/><path d="m671 546v-91l29-53v135z" fill="#295001"/><path d="m729 546l-29-9v-135l29 53v91" fill="#8cdf07"/><path d="m671 546l29-144 29 144z" fill="#4b9405"/><path d="m575 464v-12.06l-9.5-14.89v-5.554h4.429l8.571 13.593 8.584-13.593h4.416v5.61l-9.5 14.757v12.13z"/><path d="m818.39 464v-12.06l-9.5-14.89v-5.554h4.429l8.571 13.593 8.584-13.593h4.416v5.61l-9.5 14.757v12.13z"/><path d="m597 464v-32.5h24v6h-17v7h16v6h-16v8h17v5.5z"/><path d="m688 464v-32.5h24v6h-17v7h16v6h-16v8h17v5.5z"/><path d="m665.5 464v-26.5h-10.5v-6h28v6h-10.5v26.5z"/><path d="m734 437.44h-9.434v8.06h9.475c3.898 0 4.616-1.758 4.616-4.2 0-1.729-.803-3.905-4.657-3.863m-3.722 14.06h-5.711v12.437h-7v-32.5h17.07c4.906 0 10.882 3.192 10.882 9.66 0 8.01-7.366 10.402-7.366 10.402l6.347 7.573v5h-4.546z"/><path d="m751 431.5v32.5h13.719c8.03 0 13.281-4.487 13.281-13.438v-5.563c0-8.628-6.473-13.5-14-13.5h-13m40.12 0l-11.125 27.25v5.25h5.438l2.438-6h13.813l2.188 6h5.5v-5l-11.125-27.5h-7.125m-33.12 6h5c4.539 0 8 2.212 8 8.5v4.313c0 5.01-2.227 7.688-8 7.688h-5v-20.5m36.625 2.25l4.75 12.25h-9.375l4.625-12.25"/><path d="m632.38 453.56h-6.813c0 8.101 6.01 11.5 13.25 11.5 9.02 0 14.625-3.64 14.625-9.938 0-14.31-20.438-7.44-20.438-14.813 0-2 1.681-3.625 6.06-3.625 4.02.343 5.849 1.836 5.849 4.758h7.25c0-5.685-4.545-10.57-12.974-10.57-5.99 0-13.188 2.192-13.188 9.25 0 14.279 20.313 6.762 20.313 14.938 0 2.645-2.858 4-7.375 4-5.723 0-6.563-5.5-6.563-5.5"/></g></svg>