<svg xmlns="http://www.w3.org/2000/svg" height="154.65" viewBox="0 0 200 154.652" enable-background="new 0 0 200 154.652"><g transform="matrix(.73871 0 0 .73871-417.24-249.19)"><path fill="#73c908" d="m595 380l42-42 63 64h-74l-31-22"/><path fill="#b3fa0a" d="m700 402l63-64 41.999 42-39 22h-65.999"/><path fill="#387305" d="m671 455l-76-75 105 22v53h-29"/><path fill="#4e9d04" d="m700 455v-53l105-22-76 75h-29"/><path fill="#295001" d="m671 546v-91l29-53v135l-29 9"/><path fill="#8cdf07" d="m729 546l-29-9v-135l29 53v91"/><path fill="#4b9405" d="m671 546l29-144 29 144h-58"/><g fill="#c0bebd"><path d="m575 464v-12.06l-9.5-14.89v-5.554h4.429l8.57 13.593 8.584-13.593h4.416v5.61l-9.5 14.757v12.133h-6.999"/><path d="m818.39 464v-12.06l-9.5-14.89v-5.554h4.43l8.57 13.593 8.585-13.593h4.415v5.61l-9.5 14.757v12.133h-7"/><path d="m597 464v-32.5h24v6h-17v7h16v6h-16v8h17v5.499h-24"/><path d="m688 464v-32.5h24v6h-17v7h15.999v6h-15.999v8h17v5.499h-24"/><path d="m665.5 464v-26.5h-10.5v-6h28v6h-10.5v26.5h-7"/><path d="m734 437.44h-9.434v8.06h9.473c3.9 0 4.616-1.758 4.616-4.201 0-1.729-.801-3.905-4.655-3.862m-3.723 14.06h-5.711v12.437h-7v-32.499h17.08c4.906 0 10.882 3.193 10.882 9.66 0 8.01-7.366 10.402-7.366 10.402l6.348 7.572v5h-4.548l-9.679-12.577"/><path d="m751 431.5v32.5h13.719c8.03 0 13.281-4.487 13.281-13.438v-5.562c0-8.629-6.472-13.501-14-13.501h-13m40.12 0l-11.124 27.25v5.251h5.437l2.438-6h13.812l2.188 6h5.501v-5l-11.126-27.5h-7.126m-33.12 6h5c4.538 0 7.999 2.212 7.999 8.5v4.312c0 5-2.228 7.687-7.999 7.687h-5v-20.499m36.624 2.25l4.75 12.249h-9.375l4.625-12.249"/><path d="m632.37 453.56h-6.812c0 8.101 6.01 11.501 13.25 11.501 9.02 0 14.625-3.641 14.625-9.939 0-14.31-20.437-7.44-20.437-14.812 0-2 1.681-3.625 6.06-3.625 4.02.342 5.849 1.836 5.849 4.758h7.25c0-5.685-4.545-10.571-12.974-10.571-5.991 0-13.187 2.192-13.187 9.251 0 14.279 20.312 6.761 20.312 14.937 0 2.645-2.858 4-7.375 4-5.724 0-6.564-5.5-6.564-5.5"/></g></g></svg>