<svg xmlns="http://www.w3.org/2000/svg" height="285.19" viewBox="0 0 520.69019 285.1941"><rect stroke-linejoin="bevel" height="229.85" width="244.4" stroke="#fff" stroke-linecap="round" y="26.25" x="17.457" stroke-width="6.733" fill="#fff" rx="21.63"/><path d="m8.1 284.17c-3.056-1.4-5.572-3.92-6.973-6.97-1.057-2.3-1.101-7.66-1.114-134.78l-.013-132.38 1.677-3.212c1.221-2.337 2.472-3.701 4.603-5.02l2.926-1.809h133.89 133.89l2.501 1.655c1.376.91 3.246 2.781 4.156 4.156l1.655 2.501v134.19 134.19l-1.655 2.501c-.91 1.376-2.781 3.246-4.156 4.156l-2.501 1.655-133.24.139c-128.24.13-133.34.1-135.65-.97zm74.22-68.34c4.784-2.356 8.717-6.176 10.856-10.543 2.346-4.791 23.05-88.45 23.665-95.61.302-3.535.228-3.806-1.516-5.55-1.701-1.701-2.141-1.833-6.109-1.833-5.47 0-7.406.969-8.665 4.337-.527 1.409-3.77 14.851-7.207 29.869-3.437 15.02-6.435 28.05-6.662 28.95-.32 1.274-.769 1.643-1.998 1.64-2.913-.006-5.95-1.202-6.958-2.739-.548-.836-4.353-14.209-8.456-29.717-4.103-15.509-7.735-28.711-8.07-29.338-1.229-2.3-3.079-3.01-7.855-3.01-7.557 0-9.18 2.329-7.526 10.8 1.192 6.107 15.762 57.829 16.959 60.2 2.768 5.489 6.775 7.68 14.761 8.07 5.57.272 5.829.345 5.563 1.556-2.985 13.618-4.392 16.718-8.473 18.673-2.697 1.292-8.183 1.49-18.608.675-6.367-.498-6.737-.463-7.95.75-1.051 1.051-1.273 1.994-1.273 5.423 0 5.28.24 5.841 3.13 7.315 3.762 1.919 6.653 2.266 17.884 2.146l10.514-.112 3.992-1.966zm147.05-34c4.791-1.083 7.358-2.301 8.212-3.897.34-.635.618-2.876.618-4.981 0-3.08-.25-4.095-1.284-5.204-1.429-1.534-3.049-1.538-14.02-.039-6.597.902-18.531.431-22.955-.906-5.988-1.81-8.374-5.746-8.998-14.845l-.319-4.659h22.01c21.05 0 22.12-.054 24.436-1.238 1.81-.923 2.739-1.945 3.657-4.02 1.086-2.456 1.184-3.501.832-8.933-1.46-22.582-11.778-32.812-33.06-32.781-15.686.023-24.844 5.01-30.29 16.498-3.559 7.504-4.485 13.02-4.458 26.572.025 12.833.793 17.644 3.869 24.24 3.916 8.4 11.11 13.233 22.481 15.1 4.69.768 24.581.151 29.27-.909m-38.25-48.3c-.576-.932.841-8.416 2.185-11.539 2.555-5.94 7.167-8.484 15.496-8.548 4.848-.037 6.134.17 8.604 1.386 4.881 2.403 7.732 7.646 8.6 15.82l.367 3.45h-17.45c-10.358 0-17.593-.231-17.802-.569m-39.05 47.16c1.124-1.124 1.496-2.321 1.816-5.85.222-2.44.316-27.657.209-56.04-.19-48.966-.26-51.71-1.32-53.761-1.94-3.741-3.26-4.139-13.78-4.139-9.142 0-9.345.028-11.157 1.553-1.77 1.492-1.84 1.74-1.84 6.267 0 4.117.183 4.926 1.448 6.397 1.256 1.461 1.99 1.723 5.55 1.984l4.102.3.3 51.2.3 51.2 1.417 1.147c1.144.927 2.389 1.147 6.477 1.147 4.516 0 5.213-.152 6.474-1.413zm307.53 10.377c-3.795-.303-8.925-.891-11.4-1.307l-4.5-.756-.154-46.31-.154-46.31 3.154-.631c6.781-1.356 14.393-1.92 25.927-1.919 14.826 0 20.617 1.028 28.887 5.123 8.971 4.442 15.14 12.09 17.937 22.24.61 2.212 1.119 7.07 1.32 12.6.997 27.337-8.177 46.23-26.09 53.718-8.199 3.429-20.612 4.688-34.931 3.545m23.343-11.687c15.14-3.569 23.09-16.55 23.866-38.976.486-14.06-1.589-21.357-7.861-27.629-6.476-6.475-13.402-8.378-28.762-7.899-5.658.176-10.895.511-11.638.744l-1.35.423v36.519 36.519l1.35.288c.743.158 1.89.402 2.55.542 3.223.682 18.25.316 21.844-.531m-140.94-36.881v-47.4h6.592 6.592l.158 21.15.158 21.15 26.85.156 26.85.156v-21.306-21.306h6.9 6.9v47.4 47.4h-6.9-6.9v-20.1-20.1h-27-27v20.1 20.1h-6.6-6.6v-47.4"/></svg>