<?xml version="1.0" encoding="UTF-8" standalone="no"?>
<svg xmlns:rdf="http://www.w3.org/1999/02/22-rdf-syntax-ns#" xmlns="http://www.w3.org/2000/svg" height="217.59" width="600" version="1.1" xmlns:cc="http://creativecommons.org/ns#" xmlns:dc="http://purl.org/dc/elements/1.1/" viewBox="0 0 158.75 57.571709">
 <g transform="translate(326.57 -106.73)">
  <path d="m-269 109.4v52.23c0 1.43-1.23 2.68-2.59 2.68h-52.28c-1.47 0-2.7-1.25-2.7-2.68v-52.23c0-1.48 1.23-2.67 2.7-2.67h52.28c1.36 0 2.59 1.19 2.59 2.67" fill="#ed7c00"/>
  <g fill="#fff">
   <path d="m-303 128.59c0-0.71-0.46-1.17-1.17-1.17h-0.93c-0.8 0-1.16 0.4-1.43 1.59l-2.63 11.41h-0.58c-0.89 0-1.26-0.22-1.57-1.47l-2.63-9.95-0.02-0.1c-0.21-0.76-0.39-1.48-1.3-1.48h-0.98c-0.79 0-1.23 0.41-1.23 1.17 0 0.46 0.12 1.14 0.39 2.15l2.79 9.95c0.5 1.87 1.52 2.67 3.4 2.67h1.12c-0.12 0.63-0.37 1.91-0.53 2.4-0.51 1.59-1.3 1.93-2.66 1.93-1.13 0-1.87-0.09-2.41-0.15-0.32-0.04-0.58-0.07-0.82-0.07-0.64 0-1.01 0.39-1.01 1.06v0.66c0 0.75 0.39 0.98 0.78 1.14 0.66 0.3 1.5 0.47 4 0.47 2.51 0 4.38-1.35 4.99-3.61 1.1-4.1 4.07-16.55 4.09-16.67 0 0 0.34-1.32 0.34-1.93"/>
   <path d="m-295.57 121.6c0-1.29-0.13-2.54-1.71-2.54h-2.35c-0.43 0-1.56 0-1.56 1.11v1.04c0 0.44 0.22 1.17 1.67 1.17h0.57v19.54c0 1.04 0.22 1.61 1.34 1.61h0.76c1.07 0 1.28-0.64 1.28-1.61z"/>
   <path d="m-280.99 133.78h-7.12c0.1-2.93 1.22-4.19 3.67-4.19 2.42 0 3.38 1.43 3.45 4.19m3.11 0.7c0-3.19-0.74-7.5-6.62-7.5-4.93 0-7.12 2.69-7.12 8.71 0 5.87 2.05 8.06 7.56 8.06 2.46 0 4.07-0.34 4.71-0.63 0.39-0.17 0.77-0.39 0.77-1.15v-0.59c0-0.68-0.36-1.07-1-1.07-0.22 0-0.45 0.05-0.75 0.11-0.56 0.11-1.42 0.28-3.08 0.28-4.13 0-4.65-0.75-4.77-4.17h7.82c1.88 0 2.48-0.81 2.48-2.05"/>
  </g>
  <g fill="#ed7c00">
   <path d="m-257.66 128.27v-2.3h14.96v2.3h-6.18v16.85h-2.69v-16.85z"/>
   <path d="m-239.86 145.12v-19.16h12.2v2.31h-9.59v6.21h8.35v2.2h-8.35v6.13h9.85v2.31z"/>
   <path d="m-223.74 145.12v-19.16h12.19v2.31h-9.59v6.21h8.36v2.2h-8.36v6.13h9.86v2.31z"/>
   <path d="m-206.98 125.97h3.38l6.05 15.25 5.82-15.25h3.25l0.81 19.15h-2.66l-0.51-14.64-5.77 14.61h-2.1l-5.93-14.61-0.49 14.64h-2.63z"/>
   <path d="m-176.34 128.03-3.27 9.38h6.31zm3.71 11.71h-7.79l-1.82 5.38h-2.72l6.8-19.24h3.81l6.53 19.24h-2.88z"/>
  </g>
 </g>
</svg>
