<svg xmlns="http://www.w3.org/2000/svg" height="217.59" width="600" viewBox="0 0 158.75 57.571709"><g transform="translate(326.57-106.73)"><path d="m-269 109.4v52.23c0 1.43-1.23 2.68-2.59 2.68h-52.28c-1.47 0-2.7-1.25-2.7-2.68v-52.23c0-1.48 1.23-2.67 2.7-2.67h52.28c1.36 0 2.59 1.19 2.59 2.67" fill="#ed7c00"/><g fill="#fff"><path d="m-303 128.59c0-.71-.46-1.17-1.17-1.17h-.93c-.8 0-1.16.4-1.43 1.59l-2.63 11.41h-.58c-.89 0-1.26-.22-1.57-1.47l-2.63-9.95-.02-.1c-.21-.76-.39-1.48-1.3-1.48h-.98c-.79 0-1.23.41-1.23 1.17 0 .46.12 1.14.39 2.15l2.79 9.95c.5 1.87 1.52 2.67 3.4 2.67h1.12c-.12.63-.37 1.91-.53 2.4-.51 1.59-1.3 1.93-2.66 1.93-1.13 0-1.87-.09-2.41-.15-.32-.04-.58-.07-.82-.07-.64 0-1.01.39-1.01 1.06v.66c0 .75.39.98.78 1.14.66.3 1.5.47 4 .47 2.51 0 4.38-1.35 4.99-3.61 1.1-4.1 4.07-16.55 4.09-16.67 0 0 .34-1.32.34-1.93"/><path d="m-295.57 121.6c0-1.29-.13-2.54-1.71-2.54h-2.35c-.43 0-1.56 0-1.56 1.11v1.04c0 .44.22 1.17 1.67 1.17h.57v19.54c0 1.04.22 1.61 1.34 1.61h.76c1.07 0 1.28-.64 1.28-1.61z"/><path d="m-280.99 133.78h-7.12c.1-2.93 1.22-4.19 3.67-4.19 2.42 0 3.38 1.43 3.45 4.19m3.11.7c0-3.19-.74-7.5-6.62-7.5-4.93 0-7.12 2.69-7.12 8.71 0 5.87 2.05 8.06 7.56 8.06 2.46 0 4.07-.34 4.71-.63.39-.17.77-.39.77-1.15v-.59c0-.68-.36-1.07-1-1.07-.22 0-.45.05-.75.11-.56.11-1.42.28-3.08.28-4.13 0-4.65-.75-4.77-4.17h7.82c1.88 0 2.48-.81 2.48-2.05"/></g><g fill="#ed7c00"><path d="m-257.66 128.27v-2.3h14.96v2.3h-6.18v16.85h-2.69v-16.85z"/><path d="m-239.86 145.12v-19.16h12.2v2.31h-9.59v6.21h8.35v2.2h-8.35v6.13h9.85v2.31z"/><path d="m-223.74 145.12v-19.16h12.19v2.31h-9.59v6.21h8.36v2.2h-8.36v6.13h9.86v2.31z"/><path d="m-206.98 125.97h3.38l6.05 15.25 5.82-15.25h3.25l.81 19.15h-2.66l-.51-14.64-5.77 14.61h-2.1l-5.93-14.61-.49 14.64h-2.63z"/><path d="m-176.34 128.03-3.27 9.38h6.31zm3.71 11.71h-7.79l-1.82 5.38h-2.72l6.8-19.24h3.81l6.53 19.24h-2.88z"/></g></g></svg>