<?xml version="1.0" encoding="UTF-8" standalone="no"?>
<svg xmlns:rdf="http://www.w3.org/1999/02/22-rdf-syntax-ns#" xmlns="http://www.w3.org/2000/svg" height="300.32" width="600" version="1.1" xmlns:cc="http://creativecommons.org/ns#" xmlns:dc="http://purl.org/dc/elements/1.1/" viewBox="0 0 158.75 79.45847">
 <g transform="translate(210.15 -325.74)">
  <path d="m-206.71 325.74h72.57c1.91 0 3.44 1.53 3.44 3.44v72.57c0 1.91-1.53 3.44-3.44 3.44h-72.57c-1.91 0-3.44-1.53-3.44-3.44v-72.57c0-1.91 1.53-3.44 3.44-3.44z" fill="#a625aa"/>
  <g fill="#fff">
   <path d="m-197.14 383.32c0-1.35 0.97-1.38 1.43-1.38 1.3 0 2.4 0.32 4.14 0.32 3.63 0 3.72-1.82 4.62-5.95h-1.68c-4.2 0-4.5-3.41-5.13-5.6l-3.56-12.78s-0.33-1.16-0.33-1.95c0-1.42 0.98-1.7 1.88-1.7h1.07c1.27 0 1.55 0.4 2.19 2.61l3.42 13.04c0.45 1.55 0.23 2.3 2.95 2.3l3.78-16.37c0.22-0.91 0.7-1.58 1.87-1.58h1.32c1.06 0 1.61 0.62 1.61 1.67 0 0.84-0.52 2.98-0.52 2.98l-5.69 23.03c-0.26 0.66-1.24 4.62-7.35 4.62-3.59 0-6.02-0.29-6.02-1.93z"/>
   <path d="m-172.01 374.72v-27.4h-1.07c-1.06 0-2.03-0.43-2.03-1.49v-1.67c0-0.83 0.65-1.4 1.75-1.4h3.91c2.1 0 2.14 2.08 2.14 3.64v28.3c0 0.71-0.15 1.83-1.82 1.83h-1.11c-1.09 0-1.77-0.42-1.77-1.81z"/>
   <path d="m-152.05 353.67c-5.63 0-9.86 2.49-9.86 11.08v1.91c0 7.72 3.96 10.17 9.3 10.17h2.49c3.83 0 6.24-0.9 6.24-2.04v-1.35c0-0.77-0.49-1.37-1.3-1.37-1.1 0-2.29 0.58-5.4 0.58-4.65 0-6.54-0.55-6.54-5.76h11.14c1.42 0 3.05-0.57 3.05-2.76v-1.02c0-6.16-3.1-9.44-9.12-9.44zm0.08 3.6c3.58 0 4.74 2.57 4.74 5.78h-9.79c0-3.08 1.2-5.78 5.05-5.78z"/>
  </g>
  <g fill="#a625aa">
   <path d="m-115 355.44v-3.17h20.694v3.17h-8.514v23.29h-3.75v-23.29z"/>
   <path d="m-78.918 378.81h-5.235l-8.224-26.54h4.248l6.722 23.47 7.359-23.47h4.099z"/>
   <path d="m-63.453 375.65h12.048l-0.03 3.17h-16.192l-0.381-3.26 6.754-6.42c0.674-0.64 5.762-5.22 5.762-9.65 0-2.44-1.283-4.43-4.724-4.43-3.018 0-7.259 1.58-7.259 1.58l-0.745-2.98s4.137-1.84 8.689-1.84c5.73 0 7.84 4.04 7.84 7.92 0 3.26-2.038 7.1-6.722 11.4-1.183 1.12-3.062 2.8-5.04 4.51z"/>
  </g>
 </g>
</svg>
