<svg xmlns="http://www.w3.org/2000/svg" width="1024" height="613" viewBox="-7.3309881 -7.3309881 432.772 259.02825"><path d="m280.91 158.12h-25.686v-71.02h25.686c20.18 0 27.442 8.635 27.442 35.509 0 26.868-7.259 35.514-27.442 35.514m96.43-71.02h40.775v-19.341h-49.11c-26.415 0-37.26 14.785-37.26 37.959l-.017 2.266c-4.418-27.29-20.626-40.22-50.33-40.22h-49.778c-20.03-40.17-61.49-67.752-109.42-67.752-67.46 0-122.19 54.711-122.19 122.21 0 67.48 54.734 122.15 122.19 122.15 47.644 0 88.85-27.21 109-66.915h50.776c12.158 0 23.06-.722 34.22-9.616 8.03-6.385 13.07-15.359 15.399-27.14v36.61h23.276l.034-43.09h54.941v-19.18h-54.975l.316-7.764c0-12.581 3.78-20.18 22.15-20.18" fill="#fa7d19"/><path d="m176.3 113.18h15.17c12.08 0 19.19-2.421 19.19-12.645 0-10.505-7.109-13.442-19.477-13.442h-51.46v-19.341h59.864c30.374 0 34.671 21.257 34.671 33.11 0 12.616-5.148 32.627-34.711 32.627h-14.688c-18.377 0-22.336 6.644-22.336 19.215v5.875h68.72v18.726h-92.2v-27.22c0-23.14 10.884-36.909 37.26-36.909" fill="#fff"/></svg>