<svg xmlns="http://www.w3.org/2000/svg" viewBox="0 0 553.73 125.72"><path d="m490.73 42.09v11h7v42h-7v11h40c18 0 18-15.6 18-31.469 0-19.07 0-32.531-18-32.531h-40m22 11h14c7 0 7 7.416 7 21 0 13.584 0 21-7 21h-14v-42" fill="#fff"/><g transform="matrix(.7056 0 0 .7056 5 5)" fill="#ff7e09"><path d="m2.5 52h81v17.5l-52.5 55.5h31.5v-18h21v36h-83.5v-17l52.6-55.6h-28.6v16.6h-21.5"/><path d="m197 143h49v-19h-13v-52h17v-20h-17v-4c0-7.326.783-8 7-8h11.5v-19h-23.5c-12.506 0-19 7.666-19 19v12h-12.5v20h12.5v52h-12"/><path d="m-109.83-91.88v22.543h1.2v4.289h-3.599v-2.517c-1.163 2.517-1.536 2.517-2.639 2.517-1.387 0-2.831.468-2.831-7.82v-3.885c0-8.01 1.162-8.309 2.831-8.309 1.483 0 1.72.4 2.639 2.199v-4.729h-1.152v-4.289zm-4.74 11.201c-.755.027-.773 1.596-.775 3.144l-.007 5.831c-.002 1.711.42 2.337.58 2.342l1.336.041c.408.013 1.207-.652 1.207-.652v-9.921c0 0-.518-.852-1.261-.825z" transform="matrix(10.4188 0 0 4.54682 1319.32 438.75)"/></g><path d="m215.07 5h170.45c8.097 0 14.616 6.519 14.616 14.616v86.49c0 8.097-6.519 14.616-14.616 14.616h-170.45c-8.097 0-14.616-6.519-14.616-14.616v-16.43l-20.463-20.463h20.463v-49.594c0-8.097 6.519-14.616 14.616-14.616" fill="#fff"/><g fill="#000"><g transform="matrix(.7056 0 0 .7056 5 5)"><path d="m303.5 76.5h28v52h9v15h-37l-.018-15.12 9.518.125v-37h-9.5"/><path d="m312 52h19v16h-19z"/></g><path d="m250.2 58.979h19.05v5.998c7.691-6.531 9.156-6 14.31-5.998 10.494.005 13.551 2.319 13.562 12.348v24.343h6.35v10.584h-24.343v-10.584h4.939v-22.23c0-3.482-1.06-4.177-6.35-4.234-2.868-.031-5.285.456-8.467 2.117v24.343h4.939v10.584h-24.343v-10.584h6.35v-26.46h-5.998"/><path d="m350.34 58.969c-6.04 0-10.875 6.831-10.875 15.313v16.656c0 8.481 4.837 15.313 10.875 15.313h20.906c6.04 0 10.906-6.831 10.906-15.313v-16.656c0-8.481-4.868-15.313-10.906-15.313h-20.906m4.5 10.25h11.906c1.298 0 2.344 3.291 2.344 7.375v11.719c0 4.084-1.046 7.344-2.344 7.344h-11.906c-1.298 0-2.344-3.26-2.344-7.344v-11.719c0-4.084 1.046-7.375 2.344-7.375"/><path d="m307.96 106.25h25.848v-10.584h-6.703v-26.306h8.82v-10.392h-8.82v-2.078c0-3.807.32-4.157 3.551-4.157h5.975v-9.872h-12.563c-6.498 0-9.872 3.983-9.872 9.872v6.235h-6.495v10.392h6.495v26.306h-6.235"/></g><path d="m418.73 95.09h7v-42h-7v-11h28v11h-7v14.5h22v-14.5h-7v-11h28v11h-7v42h7v11h-28v-11h7v-16.5h-22v16.5h7v11h-28z" fill="#fff"/></svg>