<svg xmlns="http://www.w3.org/2000/svg" viewBox="0 0 560 164"><g fill="#ff7e09"><path d="m2.5 52h81v17.5l-52.5 55.5h31.5v-18h21v36h-83.5v-17l52.6-55.6h-28.6v16.6h-21.5"/><path d="m197 143h49v-19h-13v-52h17v-20h-17v-4c0-7.326.783-8 7-8h11.5v-19h-23.5c-12.506 0-19 7.666-19 19v12h-12.5v20h12.5v52h-12"/><path d="m-109.83-91.88v22.543h1.2v4.289h-3.599v-2.517c-1.163 2.517-1.536 2.517-2.639 2.517-1.387 0-2.831.468-2.831-7.82v-3.885c0-8.01 1.162-8.309 2.831-8.309 1.483 0 1.72.4 2.639 2.199v-4.729h-1.152v-4.289zm-4.74 11.201c-.755.027-.773 1.596-.775 3.144l-.007 5.831c-.002 1.711.42 2.337.58 2.342l1.336.041c.408.013 1.207-.652 1.207-.652v-9.921c0 0-.518-.852-1.261-.825z" transform="matrix(10.4188 0 0 4.54682 1319.32 438.75)"/></g><path d="m297.71 0h241.57c11.476 0 20.714 9.239 20.714 20.714v122.57c0 11.476-9.239 20.714-20.714 20.714h-241.57c-11.476 0-20.714-9.239-20.714-20.714v-23.286l-29-29h29v-70.29c0-11.476 9.239-20.714 20.714-20.714"/><g fill="#fff"><path d="m303.5 76.5h28v52h9v15h-37l-.018-15.12 9.518.125v-37h-9.5"/><path d="m312 52h19v16h-19z"/><path d="m347.5 76.5h27v8.5c10.9-9.255 12.976-8.503 20.28-8.5 14.872.007 19.2 3.286 19.22 17.5v34.5h9v15h-34.5v-15h7v-31.5c0-4.935-1.502-5.92-9-6-4.064-.043-7.49.646-12 3v34.5h7v15h-34.5v-15h9v-37.5h-8.5"/><path d="m489.45 76.5h29.607c8.557 0 15.446 9.677 15.446 21.696v23.607c0 12.02-6.889 21.696-15.446 21.696h-29.607c-8.557 0-15.446-9.677-15.446-21.696v-23.607c0-12.02 6.889-21.696 15.446-21.696"/></g><path d="m495.82 91h16.861c1.839 0 3.32 4.659 3.32 10.446v16.607c0 5.787-1.481 10.446-3.32 10.446h-16.861c-1.839 0-3.32-4.659-3.32-10.446v-16.607c0-5.787 1.481-10.446 3.32-10.446" fill="#000"/><path d="m429.37 143.5h36.632v-15h-9.5v-37.28h12.5v-14.727h-12.5v-2.945c0-5.395.454-5.891 5.03-5.891h8.468v-13.991h-17.805c-9.209 0-13.991 5.645-13.991 13.991v8.836h-9.205v14.727h9.205v37.28h-8.836" fill="#fff"/></svg>