<svg xmlns="http://www.w3.org/2000/svg" viewBox="0 0 611.31 87.24"><path d="m126.68 28.08h-11.858v12.07h11.858v40.539h13.762v-40.539h15.932v-12.07h-16.24c0-7.81 6.39-10.486 11.621-10.486v-12.596c-13.684.001-25.07 8.259-25.07 23.08m-30.392-22.466v26.768c-4.446-3.271-9.529-5.422-14.54-5.422-16.74 0-26.78 13.195-26.78 27.613 0 15.249 12.32 27.608 27.518 27.608 15.191 0 27.507-12.348 27.518-27.589 0 0 0-.013 0-.019v-48.96h-13.716m-13.932 35.408c7.695 0 13.936 6.254 13.936 13.971 0 7.717-6.241 13.971-13.936 13.971-7.695 0-13.932-6.254-13.932-13.971 0-7.717 6.237-13.971 13.932-13.971m-74.5-12.942v11.603h24.715l-27.571 41.01h48.38v-11.54h-26.15l27.739-41.07z" fill="#ec7405"/><g fill="#fff"><path d="m180.96 5.614v75.09h13.719v-14.781l4.875-4.406 18.563 19.19h17.12l-26.844-28.75 23.5-23.875h-15.781l-21.438 21.469v-43.938h-13.719m113.31 0v75.09h13.719v-75.09h-13.719m31.375 6.125v16.344h-11.813v12.06h11.813v17.875c0 14.344 10.01 23.375 25.12 23.375v-12.875c-5.363 0-11.344-3.368-11.344-12.719v-15.656h16.06v-12.06h-16.06v-16.344h-13.781m152.19 8.188v60.781h13.719v-23.531h25.594v23.531h13.719v-60.781h-13.719v23.531h-25.594v-23.531h-13.719m67.22 0v60.781h30.875c16.836 0 30.375-13.57 30.375-30.406 0-16.836-13.539-30.375-30.375-30.375h-30.875m-100.25 6.406c-15.779 0-25.09 9.03-25.09 23.375l-.031 31h13.594v-28.75c0-10.652 6.365-12.688 11.531-12.688v-12.938m-208.84 1.75v32.06c0 11.296 10.836 21.594 25.03 21.594 14.344 0 25-10.332 25-21.594v-32.06h-13.719v29.406c0 7.272-4.478 12.656-11.281 12.656-6.335 0-11.281-4.613-11.281-12.656v-29.406h-13.75m126.53 0v32.06c0 11.296 10.836 21.594 25.03 21.594 14.344 0 24.969-10.332 24.969-21.594v-32.06h-13.719v29.406c0 7.272-4.447 12.656-11.25 12.656-6.335 0-11.281-4.613-11.281-12.656v-29.406h-13.75m196.31 3.75h15.313c10.239 0 18.469 8.23 18.469 18.469 0 10.239-8.229 18.5-18.469 18.5h-15.313v-36.969m-396.12 35.844c-4.02 0-7.281 3.259-7.281 7.281 0 4.02 3.26 7.281 7.281 7.281 4.02 0 7.281-3.259 7.281-7.281 0-4.02-3.259-7.281-7.281-7.281"/><path d="m294.26 5.614h13.729v75.08h-13.729z"/></g></svg>