<?xml version="1.0" encoding="UTF-8" standalone="no"?>
<!-- Created with Inkscape (http://www.inkscape.org/) -->
<svg xmlns:rdf="http://www.w3.org/1999/02/22-rdf-syntax-ns#" xmlns="http://www.w3.org/2000/svg" height="119.06" width="600" version="1.1" xmlns:cc="http://creativecommons.org/ns#" xmlns:dc="http://purl.org/dc/elements/1.1/">
 <metadata>
  <rdf:RDF>
   <cc:Work rdf:about="">
    <dc:format>image/svg+xml</dc:format>
    <dc:type rdf:resource="http://purl.org/dc/dcmitype/StillImage"/>
    <dc:title/>
   </cc:Work>
  </rdf:RDF>
 </metadata>
 <path d="m176.97,111.32,53.318,0,0,7.7384-53.318,0,0-7.7384z" fill="#fa7d19" fill-rule="nonzero"/>
 <path fill="#fa7d19" d="m0.15457,34.343,57.707,0,0,17.253-31.67,41.87,32.612,0,0,17.253-58.804,0,0-17.253,31.516-41.87-31.361,0,0-17.253z" fill-rule="nonzero"/>
 <path fill="#fa7d19" d="m62.558,61.007c0-18.038,7.839-28.233,25.718-28.233,6.2835,0,14.275,0.94461,19.447,2.1959v-31.835l22.59-3.135v110.72h-17.724l-2.3505-6.1166c-5.3364,3.4472-15.219,7.6894-23.52,7.6894-15.528,0-24.16-9.5737-24.16-28.235v-23.048zm45.165-6.7423c-3.9183-0.94461-9.716-1.8843-14.429-1.8843-5.9498,0-8.1457,3.6067-8.1457,8.6266v23.048c0,5.3389,2.1959,8.6266,8.1457,8.6266,5.1868,0,11.137-3.1356,14.429-5.9572v-32.46z" fill-rule="nonzero"/>
 <path fill="#fa7d19" d="m188.01,19.916c-3.1405-0.6281-7.368-1.0992-10.035-1.0992-7.2158,0-7.6869,3.1405-7.6869,8.1604v8.9382h18.029l-1.5678,18.502h-16.461v56.301h-22.59v-56.301h-11.595v-18.502h11.595v-11.448c0-15.688,7.3802-24.467,25.882-24.467,6.4234,0,11.134,0.93724,17.253,2.1959l-2.824,17.719z" fill-rule="nonzero"/>
 <path fill="#000" d="m280.39,110.72,0-50.496c0-3.4546-1.5703-5.491-5.491-5.491-4.0704,0-11.608,2.824-16.461,5.491v50.496h-22.59v-76.374h16.78l2.3628,5.8051c9.3995-4.5464,21.633-7.3753,30.416-7.3753,13.026,0,17.572,9.7234,17.572,24.467v53.477h-22.59z" fill-rule="nonzero"/>
 <path fill="#000" d="m331.5,80.447,0,2.1959c0,8.7861,3.4472,11.137,13.791,11.137,7.0613,0,16.473-1.2513,23.215-3.2951l3.2951,16.939c-6.8944,2.5075-18.031,4.8654-28.692,4.8654-24.786,0-34.197-12.236-34.197-31.057v-17.876c0-16.466,7.3655-30.583,32.779-30.583,25.409,0,30.89,15.055,30.89,31.68v15.995h-41.082zm19.756-20.227c0-5.3315-1.5727-9.7234-9.4117-9.7234s-10.344,4.3918-10.344,9.7234v3.2975h19.756v-3.2975z" fill-rule="nonzero"/>
 <path fill="#000" d="m377.58,81.393,0-17.724c0-15.681,7.368-30.897,34.504-30.897,27.134,0,34.502,15.217,34.502,30.897v17.724c0,15.681-7.368,30.897-34.502,30.897-27.136,0-34.504-15.217-34.504-30.897m46.416,0.6232,0-18.973c0-7.2158-3.7539-11.294-11.912-11.294-8.1604,0-11.914,4.0778-11.914,11.294v18.973c0,7.2183,3.7539,11.296,11.914,11.296,8.158,0,11.912-4.0778,11.912-11.296" fill-rule="nonzero"/>
 <path fill="#333" d="m476.68,72.531,0-39.671,8.94,0,8.94,0,0,15.924,0,15.924,12.851,0,12.851,0,0-15.924,0-15.924,8.94,0,8.94,0,0,39.671,0,39.671-8.94,0-8.94,0,0-15.924,0-15.924-12.851,0-12.851,0,0,15.924,0,15.924-8.94,0-8.94,0z"/>
 <path fill="#333" d="m542.72,32.781,0,39.75,0,39.75,19.438-0.21875c17.845-0.19693,19.684-0.30706,22.875-1.375,6.7851-2.2707,11.269-5.9356,13.75-11.25,1.18-2.548,1.21-3.095,1.21-26.899,0-23.648-0.0256-24.362-1.1875-26.875-2.4452-5.2883-6.9992-9.0116-13.781-11.281-3.1911-1.0679-5.0302-1.178-22.875-1.375l-19.438-0.21875zm17.875,15.594,7.6875,0.25c8.4426,0.27601,11.011,0.98818,12.844,3.6875,0.92514,1.3627,1,3.0823,1,20.219,0,20.982,0.0398,20.711-4.0938,22.688-1.5546,0.74319-3.9596,1.0294-9.75,1.2188l-7.6875,0.25v-24.156-24.156z"/>
</svg>
