<svg xmlns="http://www.w3.org/2000/svg" viewBox="0 0 600 119.06"><g fill="#fa7d19"><path d="m176.97 111.32h53.32v7.738h-53.32v-7.738"/><path d="m.155 34.34h57.707v17.253l-31.67 41.87h32.612v17.253h-58.804v-17.253l31.516-41.87h-31.361v-17.253"/><path d="m62.56 61.01c0-18.04 7.839-28.23 25.718-28.23 6.284 0 14.275.945 19.447 2.196v-31.835l22.59-3.135v110.72h-17.724l-2.35-6.117c-5.336 3.447-15.219 7.689-23.52 7.689-15.528 0-24.16-9.574-24.16-28.23v-23.05zm45.16-6.742c-3.918-.945-9.716-1.884-14.429-1.884-5.95 0-8.146 3.607-8.146 8.627v23.05c0 5.339 2.196 8.627 8.146 8.627 5.187 0 11.137-3.136 14.429-5.957v-32.46"/><path d="m188.01 19.916c-3.141-.628-7.368-1.099-10.03-1.099-7.216 0-7.687 3.14-7.687 8.16v8.938h18.03l-1.568 18.502h-16.461v56.3h-22.59v-56.3h-11.595v-18.502h11.595v-11.448c0-15.688 7.38-24.467 25.882-24.467 6.423 0 11.134.937 17.253 2.196l-2.824 17.719"/></g><path d="m280.39 110.72v-50.5c0-3.455-1.57-5.491-5.491-5.491-4.07 0-11.608 2.824-16.461 5.491v50.5h-22.59v-76.37h16.78l2.363 5.805c9.399-4.546 21.633-7.375 30.416-7.375 13.03 0 17.572 9.723 17.572 24.467v53.48h-22.59z"/><path d="m331.5 80.45v2.196c0 8.786 3.447 11.137 13.791 11.137 7.06 0 16.473-1.251 23.21-3.295l3.295 16.939c-6.894 2.507-18.03 4.865-28.692 4.865-24.786 0-34.2-12.236-34.2-31.06v-17.876c0-16.466 7.365-30.583 32.779-30.583 25.409 0 30.89 15.05 30.89 31.68v15.995h-41.08zm19.756-20.227c0-5.331-1.573-9.723-9.412-9.723s-10.344 4.392-10.344 9.723v3.297h19.756v-3.297"/><path d="m377.58 81.39v-17.724c0-15.681 7.368-30.897 34.504-30.897 27.13 0 34.502 15.217 34.502 30.897v17.724c0 15.681-7.368 30.897-34.502 30.897-27.14 0-34.504-15.217-34.504-30.897m46.42.623v-18.973c0-7.216-3.754-11.294-11.912-11.294-8.16 0-11.914 4.078-11.914 11.294v18.973c0 7.218 3.754 11.296 11.914 11.296 8.158 0 11.912-4.078 11.912-11.296"/><g fill="#333"><path d="m476.68 72.53v-39.671h8.94 8.94v15.924 15.924h12.851 12.851v-15.924-15.924h8.94 8.94v39.671 39.671h-8.94-8.94v-15.924-15.924h-12.851-12.851v15.924 15.924h-8.94-8.94z"/><path d="m542.72 32.781v39.75 39.75l19.438-.219c17.845-.197 19.684-.307 22.875-1.375 6.785-2.271 11.269-5.936 13.75-11.25 1.18-2.548 1.21-3.095 1.21-26.899 0-23.648-.026-24.362-1.188-26.875-2.445-5.288-6.999-9.01-13.781-11.281-3.191-1.068-5.03-1.178-22.875-1.375l-19.438-.219zm17.875 15.594l7.688.25c8.443.276 11.01.988 12.844 3.688.925 1.363 1 3.082 1 20.22 0 20.982.04 20.711-4.094 22.688-1.555.743-3.96 1.029-9.75 1.219l-7.688.25v-24.16-24.16z"/></g></svg>