<?xml version="1.0" encoding="UTF-8" standalone="no"?>
<!-- Created with Inkscape (http://www.inkscape.org/) -->
<svg xmlns:rdf="http://www.w3.org/1999/02/22-rdf-syntax-ns#" xmlns="http://www.w3.org/2000/svg" height="159.96" width="600" version="1.1" xmlns:cc="http://creativecommons.org/ns#" xmlns:dc="http://purl.org/dc/elements/1.1/">
 <metadata>
  <rdf:RDF>
   <cc:Work rdf:about="">
    <dc:format>image/svg+xml</dc:format>
    <dc:type rdf:resource="http://purl.org/dc/dcmitype/StillImage"/>
    <dc:title/>
   </cc:Work>
  </rdf:RDF>
 </metadata>
 <path d="m237.77,149.56,71.634,0,0,10.397-71.634,0,0-10.397z" fill="#fa7d19" fill-rule="nonzero"/>
 <path fill="#fa7d19" d="m0.20767,46.141,77.531,0,0,23.18-42.55,56.253,43.815,0,0,23.18-79.004,0,0-23.18,42.342-56.253-42.134,0,0-23.18z" fill-rule="nonzero"/>
 <path fill="#fa7d19" d="m84.049,81.964c0-24.235,10.532-37.931,34.553-37.931,8.442,0,19.178,1.2691,26.127,2.9503v-42.77l30.35-4.213v148.75h-23.813l-3.1579-8.2179c-7.1696,4.6314-20.447,10.331-31.599,10.331-20.863,0-32.459-12.862-32.459-37.935v-30.966zm60.68-9.0584c-5.2643-1.2691-13.054-2.5316-19.386-2.5316-7.9937,0-10.944,4.8457-10.944,11.59v30.966c0,7.1729,2.9503,11.59,10.944,11.59,6.9685,0,14.962-4.2128,19.386-8.0036v-43.611z" fill-rule="nonzero"/>
 <path fill="#fa7d19" d="m252.6,26.757c-4.2194-0.84387-9.899-1.4768-13.482-1.4768-9.6946,0-10.328,4.2194-10.328,10.964v12.009h24.222l-2.1064,24.858h-22.115v75.642h-30.35v-75.642h-15.579v-24.858h15.579v-15.381c0-21.077,9.9155-32.871,34.773-32.871,8.6299,0,14.959,1.2592,23.18,2.9503l-3.7941,23.806z" fill-rule="nonzero"/>
 <path fill="#000" d="m376.72,148.75,0-67.843c0-4.6413-2.1097-7.3773-7.3773-7.3773-5.4687,0-15.595,3.7941-22.115,7.3773v67.843h-30.35v-102.61h22.544l3.1744,7.7992c12.628-6.1082,29.064-9.9089,40.865-9.9089,17.5,0,23.609,13.064,23.609,32.871v71.848h-30.35z" fill-rule="nonzero"/>
 <path fill="#000" d="m445.38,108.08,0,2.9503c0,11.804,4.6314,14.962,18.529,14.962,9.487,0,22.132-1.6812,31.19-4.427l4.427,22.758c-9.2628,3.3689-24.225,6.5367-38.548,6.5367-33.3,0-45.945-16.439-45.945-41.726v-24.017c0-22.122,9.8957-41.089,44.04-41.089,34.137,0,41.501,20.227,41.501,42.563v21.489h-55.195zm26.542-27.175c0-7.163-2.113-13.064-12.645-13.064s-13.898,5.9005-13.898,13.064v4.4303h26.542v-4.4303z" fill-rule="nonzero"/>
 <path fill="#000" d="m507.29,109.35,0-23.813c0-21.067,9.899-41.511,46.357-41.511,36.455,0,46.354,20.444,46.354,41.511v23.813c0,21.067-9.899,41.511-46.354,41.511-36.458,0-46.357-20.444-46.357-41.511m62.361,0.83729,0-25.491c0-9.6946-5.0435-15.173-16.004-15.173-10.964,0-16.007,5.4786-16.007,15.173v25.491c0,9.6979,5.0435,15.177,16.007,15.177,10.96,0,16.004-5.4786,16.004-15.177" fill-rule="nonzero"/>
</svg>
