<svg xmlns="http://www.w3.org/2000/svg" enable-background="new 0 0 1600 900" viewBox="0 0 600 277.2854" height="277.29"><g stroke-width=".5" fill="#fff"><path d="m579.96 196.23h-19.84v-57.13h-19.04v-17.27h58.92v17.27h-20.04v57.13"/><path d="m471.79 121.83v74.4h19.84v-19.74h11.62c5.26 0 6.96.98 8.51 5.5 3.92 11.45 4.9 14.24 4.9 14.24h22.57c-.001 0-2.2-6.09-7.25-20.15-1.79-4.99-4.07-7.67-8.84-9.22 12.53-3.44 12.54-10.59 12.54-22.51 0-18.55-8.44-22.22-25.6-22.52zm19.84 17.26h15.38c6.54 0 8.23 1.89 8.23 8.53 0 8.43.29 11.61-8.23 11.61h-15.38z"/><path d="m427.42 121.25c-20.14 0-34.42 4.36-34.42 27.27v21.03c0 22.92 14.28 27.28 34.42 27.28s34.42-4.36 34.42-27.28v-21.03c0-22.91-14.28-27.27-34.42-27.27m0 17.24c10.31 0 13.69 1.09 13.99 12.1v16.76c-.3 11.11-3.68 12.2-13.99 12.2s-13.69-1.09-13.99-12.2v-16.76c.3-11.01 3.68-12.1 13.99-12.1"/><path d="m322.92 121.83v74.4h19.83v-19.05h17.56c20.73 0 25.39-7.14 25.39-28.07 0-19.44-6.94-27.28-25.39-27.28zm19.85 17.27h13.58c7.74 0 8.93 2.77 8.93 10.39v.02c0 7.61-1.2 10.38-8.93 10.38h-13.58z"/><path d="m281.39 137.34c11.59.34 19.24.8 28.58 2.06v-16.39c-4.34-.52-15.35-1.89-25.93-1.89-.89 0-2.65.0001-2.65.0001v.0001c-19.39 0-31.37 1.39-31.37 22.66s10.69 21.17 28.99 22.46l4.36.3c9.3.59 10.39.49 10.39 6.92 0 6.24-3.07 6.83-12.37 6.83l-.03.03c-11.38-.34-20.63-.94-29.81-2.2v16.38c4.27.52 14.76 2.03 27.21 2.03.87 0 2.51-.0001 2.51-.0001h.12c32.65 0 32.16-12.07 32.16-24.34 0-17.02-5.45-19.79-27.41-21.38l-8.21-.59c-5.25-.39-8.12-.59-8.12-6.53 0-4.16.89-6.33 11.58-6.33z"/><path d="m397.87 44.46c11.7.393 20.8.917 30.24 2.359v-18.776c-4.39-.598-16.91-2.166-27.61-2.166-23.35 0-40.59 3.946-40.59 30.396v20.69c0 25.908 12.79 30.18 37.96 30.18 28.58 0 35.41-4.9 35.41-31.886v-13.968h-36.37v14.821h14.72c0 11.09-2.88 13.543-13.76 13.543-11.09 0-16-1.491-16-15.679v-13.834c0-14.187 4.91-15.678 16-15.678"/><path d="m480.59 44.46c11.71.393 20.8.917 30.24 2.359v-18.776c-4.39-.598-16.9-2.166-27.61-2.166-23.35 0-40.59 3.946-40.59 30.396v20.69c0 25.908 12.8 30.18 37.97 30.18 28.58 0 35.4-4.9 35.4-31.886v-13.968h-36.36v14.821h14.72c0 11.09-2.88 13.543-13.76 13.543-11.09 0-16-1.491-16-15.679v-13.834c0-14.187 4.9-15.678 15.99-15.678"/><path d="m562.43 25.876c-21.65 0-37.01 4.693-37.01 29.328v22.611c0 24.635 15.36 29.325 37.01 29.325s37.01-4.69 37.01-29.325v-22.611c0-24.635-15.36-29.328-37.01-29.328m0 18.54c11.08 0 14.72 1.17 15.04 13.01v18.02c-.32 11.944-3.96 13.12-15.04 13.12-11.09 0-14.72-1.173-15.04-13.12v-18.02c.32-11.843 3.95-13.01 15.04-13.01"/><path d="m315.74 44.44l-38.29 42.869v.642h38.29v18.553h-65.38v-18.02l37.76-42.765v-.641h-35.31v-18.557h62.93z"/><path d="m348.27 106.5h-21.33v-79.983h21.33z"/><path d="m172.34 173.55c-.48-9.68-7.02-24.57-23.45-26.54h-58.48l67.37-64.5c2.84-2.709 9.23-11.912 4.69-21.817-3.65-7.962-9.77-11.356-20.45-11.356h-83.928c.346 11.134 5.898 24.43 20.656 26.81h47.962l-70.878 66.61c-2.876 2.75-7.608 11.24-3.874 19.86 3.368 7.76 9.04 10.93 19.595 10.93h100.79z"/><path d="m26.538 172.75c0 6.5 2.648 12.41 6.922 16.68s10.171 6.91 16.676 6.91h122.62c6.5 0 12.4-2.64 16.67-6.91s6.92-10.18 6.92-16.68v-61.31l-.001-37.892c0-12.516 12.64-24.18 26.55-24.21v123.41c0 13.84-5.61 26.38-14.68 35.45-9.08 9.08-21.61 14.69-35.45 14.69h-122.62c-13.847 0-26.382-5.61-35.455-14.69-9.07-9.07-14.685-21.61-14.685-35.45v-122.61c0-13.846 5.614-26.382 14.686-35.452 9.07-9.08 21.608-14.688 35.452-14.688h122.59c6.8 0 13.28 1.355 19.19 3.805 8.1 3.357 13.29 7.5 18.28 12.9 1.99 2.15 3.89 5.329 3.89 9.383 0 3.397-1.29 6.791-3.89 9.383-2.59 2.593-5.98 3.886-9.38 3.886-3.39 0-6.83-1.336-9.38-3.886-3.54-3.54-5.48-5.356-9.53-7.07-2.83-1.197-5.93-1.858-9.18-1.858h-122.59c-6.506 0-12.404 2.645-16.678 6.92-4.273 4.273-6.92 10.174-6.92 16.678z"/><path d="m262.33 253.13h17.21v7.48h-17.21v7.85h18.72v8.83h-29.48v-40.35h29.1v8.82h-18.34z"/><path d="m337.52 256.52l12 20.76h-12.54l-8.01-15.54-7.96 15.54h-12.65l12.11-20.76-11.35-19.58h12.58l7.27 14.79 7.31-14.79h12.38z"/><path d="m394.37 277.28h-10.76v-30.98h-10.33v-9.36h31.96v9.36h-10.87z"/><path d="m432.92 236.94v40.34h10.76v-10.7h8.34c3.23 0 4.52 2.04 4.41 5.06v5.65h10.76v-8.13c0-4.57-2.85-6.99-7.26-7.15v-.43c7.64-1.78 7.64-5.71 7.64-12.43 0-10.06-4.57-12.05-13.88-12.21zm10.77 9.36h8.33c3.56 0 4.47 1.02 4.47 4.62 0 4.58.16 6.3-4.47 6.3h-8.33z"/><path d="m505.86 236.94l-12.11 40.34h11.19l1.99-6.94h14.48l2.09 6.94h10.98l-12.27-40.34zm8.28 8.06h.11l5 17.49h-10z"/><path d="m593.64 277.28h-31.85v-8.39c0-9.36 1.99-10.92 14.2-13.77 6.89-1.61 7.37-1.51 7.37-5.65 0-4.04-1.34-4.52-5.65-4.47-4.89 0-5.65.38-5.7 4.69v1.99h-10.22v-1.99c0-10.98 5.65-13.08 15.92-13.08 9.47 0 15.87 1.35 15.87 12.7 0 9.04-2.63 10.76-11.08 13.07-8.18 2.21-10.49 1.08-10.49 6.51h21.63v8.39"/></g></svg>