<?xml version="1.0" encoding="iso-8859-1"?><!-- Generator: Adobe Illustrator 16.0.0, SVG Export Plug-In . SVG Version: 6.00 Build 0) --><!DOCTYPE svg PUBLIC "-//W3C//DTD SVG 1.1//EN" "http://www.w3.org/Graphics/SVG/1.1/DTD/svg11.dtd"><svg version="1.1" id="Layer_1" xmlns="http://www.w3.org/2000/svg" xmlns:xlink="http://www.w3.org/1999/xlink" x="0px" y="0px" width="593.85px" height="206.554px" viewBox="0.143 316.628 593.85 206.554" style="enable-background:new 0.143 316.628 593.85 206.554;" xml:space="preserve"><path style="fill:#F48C00;" d="M191.212,490.321c2.377,2.377,3.566,5.494,3.566,8.607c0,3.715-1.663,6.707-3.563,8.608	c-3.626,3.62-8.56,7.39-15.007,10.057c-5.423,2.251-11.368,3.495-17.602,3.495h-56.235H46.143c-12.703,0-24.202-5.146-32.527-13.47	c-8.325-8.325-13.473-19.823-13.473-32.529v-56.231v-56.236c0-12.703,5.146-24.201,13.473-32.524	c8.324-8.322,19.824-13.47,32.527-13.47h56.229h56.233c6.232,0,12.179,1.239,17.603,3.49c7.434,3.081,12.188,6.88,16.776,11.833	c1.827,1.972,3.566,4.89,3.566,8.608c0,3.114-1.19,6.229-3.566,8.607c-2.375,2.375-5.493,3.566-8.607,3.566	c-3.116,0-6.269-1.229-8.607-3.566c-3.244-3.247-5.024-4.914-8.744-6.489c-2.591-1.099-5.438-1.705-8.419-1.705h-56.233H46.143	c-5.971,0-11.384,2.428-15.304,6.352c-3.919,3.918-6.348,9.329-6.348,15.299v56.236v56.231c0,5.976,2.429,11.385,6.348,15.303	c3.92,3.921,9.333,6.352,15.304,6.352h56.229h56.233c2.982,0,5.828-0.604,8.419-1.705c2.332-0.986,4.767-2.513,6.973-4.718	c2.341-2.342,5.493-3.564,8.608-3.564C185.719,486.758,188.837,487.944,191.212,490.321z M158.247,475.832	c-0.438-8.879-6.437-22.549-21.515-24.346H83.089l61.804-59.167c2.609-2.49,8.466-10.932,4.296-20.016	c-3.35-7.304-8.959-10.417-18.762-10.417H53.437c0.314,10.214,5.411,22.408,18.948,24.591h43.993L51.362,447.58	c-2.638,2.532-6.976,10.315-3.552,18.22c3.09,7.124,8.297,10.032,17.975,10.032H158.247L158.247,475.832z M334.374,420.087v45.34	c0,16.772-5.132,31.355-16.769,42.987c-10.459,10.463-23.676,14.768-38.188,14.768c-28.457,0-43.118-21.988-43.118-21.988	c7.651-7.651,18.293-12.3,28.712-6.058c1.752,1.048,7.005,3.917,14.522,3.917c26.337,0,30.624-23.535,30.624-30.541	c-9.124,5.516-19.427,8.261-30.866,8.267h-0.015c-14.882-0.006-27.934-4.71-38.791-13.994l-0.143-0.123	c-10.654-10.217-16.105-22.819-16.196-37.471c-0.072-3.009-0.072-12.648,0-14.889c0.034-14.404,5.482-26.958,16.196-37.218	c10.817-10.36,23.919-15.616,38.933-15.62h0.009h0.004c19.953,0,34.602,9.878,41.375,18.093c1.728,2.091,2.729,4.786,2.729,7.707	c0,3.382-1.366,6.446-3.584,8.665c-2.22,2.215-5.277,3.586-8.666,3.586c-3.349,0-6.552-1.4-8.589-3.522	c-7.601-7.903-14.829-10.396-23.27-10.397c-8.44,0.001-15.475,2.817-21.505,8.604c-5.991,5.649-8.817,12.073-8.901,20.243	c-0.134,3.575-0.134,11.175-0.005,14.606c0.067,8.371,2.881,14.89,8.856,20.614c6.228,5.685,13.297,8.471,21.556,8.475	c8.259-0.004,15.33-2.79,21.61-8.526c3.276-3.144,5.603-6.542,7.037-10.364c1.152-3.069,3.561-9.473,11.707-12.723	C326.502,419.793,334.374,420.087,334.374,420.087z M449.402,422.526c-8.146,3.248-10.553,9.65-11.706,12.722	c-1.437,3.821-3.765,7.222-7.042,10.364c-6.275,5.735-13.347,8.521-21.607,8.525c-8.261-0.004-15.322-2.79-21.555-8.474	c-5.979-5.724-8.789-12.242-8.858-20.614c-0.126-3.434-0.126-11.031,0.009-14.606c0.082-8.171,2.904-14.594,8.898-20.244	c6.027-5.788,13.064-8.604,21.506-8.604c8.438,0.001,15.669,2.494,23.267,10.397c2.038,2.123,5.242,3.522,8.593,3.522	c3.385,0,6.45-1.371,8.662-3.586c2.218-2.218,3.589-5.283,3.589-8.665c0-2.919-1.008-5.614-2.729-7.708	c-6.78-8.216-21.425-18.093-41.375-18.093h-0.006h-0.008c-15.017,0.004-28.113,5.26-38.933,15.62	c-10.717,10.26-16.163,22.814-16.195,37.218c-0.077,2.241-0.077,11.88,0,14.888c0.09,14.652,5.54,27.256,16.195,37.473l0.139,0.123	c10.859,9.284,23.911,13.988,38.794,13.993h0.012c11.439-0.005,21.739-2.75,30.864-8.267c0,7.005-4.289,30.541-30.623,30.541	c-7.517,0-12.773-2.868-14.524-3.916c-10.418-6.242-21.062-1.596-28.711,6.057c0,0,14.66,21.988,43.122,21.988	c14.51,0,27.725-4.304,38.188-14.767c11.638-11.633,16.765-26.216,16.765-42.988v-45.341	C464.127,420.087,456.26,419.793,449.402,422.526z M593.937,410.4c-0.033-14.496-5.482-27.053-16.191-37.317	c-10.821-10.361-23.925-15.616-38.944-15.62h-0.005h-0.008c-15.014,0.004-28.11,5.26-38.934,15.62	c-10.712,10.26-16.158,22.814-16.194,37.218c-0.073,2.24-0.073,11.88,0,14.888c0.092,14.651,5.546,27.255,16.194,37.472l0.145,0.123	c10.854,9.284,23.907,13.989,38.789,13.994h0.016c14.869-0.005,27.927-4.71,38.798-13.989l0.144-0.128	c10.649-10.217,16.097-22.823,16.19-37.415C594.011,422.182,594.011,412.542,593.937,410.4 M538.798,454.138	c-8.257-0.004-15.322-2.79-21.556-8.475c-5.975-5.725-8.789-12.241-8.854-20.614c-0.132-3.433-0.132-11.031,0.004-14.606	c0.086-8.17,2.909-14.594,8.898-20.243c6.031-5.789,13.064-8.604,21.507-8.604c8.44,0.001,15.475,2.817,21.529,8.631	c5.976,5.623,8.798,12.047,8.889,20.295c0.114,3.344,0.163,10.908,0,14.623c-0.074,8.278-2.895,14.802-8.808,20.468	C554.129,451.348,547.058,454.135,538.798,454.138 M204.619,361.886c-12.766,0.023-24.35,10.728-24.35,22.21v91.736	c12.766-0.028,24.35-10.729,24.35-22.21V361.886z"/></svg>