<svg xmlns="http://www.w3.org/2000/svg" height="206.55" viewBox="0.143 316.628 593.85 206.554" enable-background="new 0.143 316.628 593.85 206.554"><path d="m191.21 490.32c2.377 2.377 3.566 5.494 3.566 8.607 0 3.715-1.663 6.707-3.563 8.608-3.626 3.62-8.56 7.39-15.01 10.06-5.423 2.251-11.368 3.495-17.602 3.495h-56.23-56.23c-12.703 0-24.2-5.146-32.527-13.47-8.325-8.325-13.473-19.823-13.473-32.529v-56.23-56.24c0-12.703 5.146-24.2 13.473-32.524 8.324-8.322 19.824-13.47 32.527-13.47h56.23 56.23c6.232 0 12.179 1.239 17.603 3.49 7.434 3.081 12.188 6.88 16.776 11.833 1.827 1.972 3.566 4.89 3.566 8.608 0 3.114-1.19 6.229-3.566 8.607-2.375 2.375-5.493 3.566-8.607 3.566-3.116 0-6.269-1.229-8.607-3.566-3.244-3.247-5.02-4.914-8.744-6.489-2.591-1.099-5.438-1.705-8.419-1.705h-56.23-56.23c-5.971 0-11.384 2.428-15.304 6.352-3.919 3.918-6.348 9.329-6.348 15.299v56.24 56.23c0 5.976 2.429 11.385 6.348 15.303 3.92 3.921 9.333 6.352 15.304 6.352h56.23 56.23c2.982 0 5.828-.604 8.419-1.705 2.332-.986 4.767-2.513 6.973-4.718 2.341-2.342 5.493-3.564 8.608-3.564 3.114 0 6.232 1.186 8.607 3.563m-32.965-14.489c-.438-8.879-6.437-22.549-21.515-24.346h-53.643l61.804-59.17c2.609-2.49 8.466-10.932 4.296-20.02-3.35-7.304-8.959-10.417-18.762-10.417h-76.99c.314 10.214 5.411 22.408 18.948 24.591h43.993l-65.02 61.1c-2.638 2.532-6.976 10.315-3.552 18.22 3.09 7.124 8.297 10.03 17.975 10.03h92.46m176.13-55.745v45.34c0 16.772-5.132 31.355-16.769 42.987-10.459 10.463-23.676 14.768-38.19 14.768-28.457 0-43.12-21.988-43.12-21.988 7.651-7.651 18.293-12.3 28.712-6.06 1.752 1.048 7 3.917 14.522 3.917 26.337 0 30.624-23.535 30.624-30.541-9.124 5.516-19.427 8.261-30.866 8.267h-.015c-14.882-.006-27.934-4.71-38.791-13.994l-.143-.123c-10.654-10.217-16.1-22.819-16.196-37.471-.072-3.01-.072-12.648 0-14.889.034-14.404 5.482-26.958 16.196-37.22 10.817-10.36 23.919-15.616 38.933-15.62h.009.004c19.953 0 34.602 9.878 41.37 18.09 1.728 2.091 2.729 4.786 2.729 7.707 0 3.382-1.366 6.446-3.584 8.665-2.22 2.215-5.277 3.586-8.666 3.586-3.349 0-6.552-1.4-8.589-3.522-7.601-7.903-14.829-10.396-23.27-10.397-8.44 0-15.475 2.817-21.505 8.604-5.991 5.649-8.817 12.07-8.901 20.243-.134 3.575-.134 11.175-.005 14.606.067 8.371 2.881 14.89 8.856 20.614 6.228 5.685 13.297 8.471 21.556 8.475 8.259-.004 15.33-2.79 21.61-8.526 3.276-3.144 5.603-6.542 7.04-10.364 1.152-3.069 3.561-9.473 11.707-12.723 6.864-2.732 14.736-2.438 14.736-2.438m115.03 2.439c-8.146 3.248-10.553 9.65-11.706 12.722-1.437 3.821-3.765 7.222-7.04 10.364-6.275 5.735-13.347 8.521-21.607 8.525-8.261-.004-15.322-2.79-21.555-8.474-5.979-5.724-8.789-12.242-8.858-20.614-.126-3.434-.126-11.03.009-14.606.082-8.171 2.904-14.594 8.898-20.244 6.03-5.788 13.06-8.604 21.506-8.604 8.438 0 15.669 2.494 23.267 10.397 2.038 2.123 5.242 3.522 8.593 3.522 3.385 0 6.45-1.371 8.662-3.586 2.218-2.218 3.589-5.283 3.589-8.665 0-2.919-1.01-5.614-2.729-7.708-6.78-8.216-21.425-18.09-41.37-18.09h-.006-.008c-15.02.004-28.11 5.26-38.933 15.62-10.717 10.26-16.16 22.814-16.195 37.22-.077 2.241-.077 11.88 0 14.888.09 14.652 5.54 27.26 16.195 37.473l.139.123c10.859 9.284 23.911 13.988 38.794 13.993h.012c11.439-.005 21.739-2.75 30.864-8.267 0 7-4.289 30.541-30.623 30.541-7.517 0-12.773-2.868-14.524-3.916-10.418-6.242-21.06-1.596-28.711 6.06 0 0 14.66 21.988 43.12 21.988 14.51 0 27.725-4.304 38.19-14.767 11.638-11.633 16.765-26.22 16.765-42.988v-45.34c-.006.003-7.873-.291-14.731 2.442m144.54-12.13c-.033-14.496-5.482-27.05-16.191-37.32-10.821-10.361-23.925-15.616-38.944-15.62h-.005-.008c-15.01.004-28.11 5.26-38.934 15.62-10.712 10.26-16.16 22.814-16.194 37.22-.073 2.24-.073 11.88 0 14.888.092 14.651 5.546 27.25 16.194 37.472l.145.123c10.854 9.284 23.907 13.989 38.789 13.994h.016c14.869-.005 27.927-4.71 38.798-13.989l.144-.128c10.649-10.217 16.1-22.823 16.19-37.415.074-3.064.074-12.704 0-14.846m-55.14 43.738c-8.257-.004-15.322-2.79-21.556-8.475-5.975-5.725-8.789-12.241-8.854-20.614-.132-3.433-.132-11.03.004-14.606.086-8.17 2.909-14.594 8.898-20.243 6.03-5.789 13.06-8.604 21.507-8.604 8.44 0 15.475 2.817 21.529 8.631 5.976 5.623 8.798 12.05 8.889 20.295.114 3.344.163 10.908 0 14.623-.074 8.278-2.895 14.802-8.808 20.468-6.278 5.735-13.349 8.522-21.609 8.525m-334.18-92.25c-12.766.023-24.35 10.728-24.35 22.21v91.74c12.766-.028 24.35-10.729 24.35-22.21v-91.74z" fill="#f48c00"/></svg>