<?xml version="1.0" encoding="UTF-8" standalone="no"?>
<!-- Created with Inkscape (http://www.inkscape.org/) -->
<svg xmlns:rdf="http://www.w3.org/1999/02/22-rdf-syntax-ns#" xmlns="http://www.w3.org/2000/svg" height="187.65" width="600" version="1.1" xmlns:cc="http://creativecommons.org/ns#" xmlns:dc="http://purl.org/dc/elements/1.1/">
 <defs></defs>
 <metadata>
  <rdf:RDF>
   <cc:Work rdf:about="">
    <dc:format>image/svg+xml</dc:format>
    <dc:type rdf:resource="http://purl.org/dc/dcmitype/StillImage"/>
    <dc:title/>
   </cc:Work>
  </rdf:RDF>
 </metadata>
 <g fill-rule="nonzero" transform="translate(-140.253,558.74906)">
  <path d="m234.1-558.75c-51.822,0-93.843,41.989-93.843,93.812,0,51.822,42.021,93.843,93.843,93.843,51.839,0,93.843-42.021,93.843-93.843s-42.004-93.812-93.843-93.812zm-38.781,29.562,86.437,0,0,31.562-58.593,0-3.625,17.062,0.34374,0.34374c7.7721-5.924,18.099-7.5937,27.5-7.5937,22.422,0,41.031,13.365,41.031,43.812,0,26.169-20.052,45.468-56.406,45.468-46.101,0-55.317-29.323-53.874-42.125h35.625c0.71729,3.5189,2.3452,6.4806,5.0624,8.5312,3.6034,2.9704,8.6778,4.25,14.281,4.25,10.683,0,19.156-6.8617,19.156-17.25,0-11.325-7.2101-18-18.062-18-8.4894,0-14.475,2.4028-18.281,8.3437h-33.625l13.031-74.406z" fill="#02a16b"/>
  <path fill="#000" d="m699.19-455.17-28.093,0,0,29.08-23.578,0,0-29.08-28.093,0,0-23.578,28.093,0,0-28.489,23.578,0,0,28.489,28.093,0,0,23.578z"/>
  <path d="m740.25-401.14-30.844,0,0-99.02-13.949,0,0-17.882c8.4472-1.173,14.337-5.1054,17.291-11.392h27.502v128.29z" fill="#000"/>
  <path d="m550.03-529.62-41.593,128.84,39.718,0,5.2812-17.406,28.218,0,5.2812,17.406,40.875,0-41.593-128.84-36.187,0zm6.3124,9.1562,23.562,0,35.218,111.37-21.062,0.0625-5.8124-18.281-41.281,0-6.3437,18.25-19.781,0.0312,35.5-111.44zm11.344,19.031-17.062,58.406,33.812,0-16.75-58.406zm-0.0625,30.312,5,19.375-10.125,0,5.125-19.375z" fill="#000"/>
  <path d="m332.81-529.62,0,79.687c0,32.523,19.694,51.406,49.5,51.406,29.485,0,49.531-19.566,49.531-51.406v-79.687h-40.031v78.499c0,12.287-2.9514,14-9.4999,14-6.2616,0-9.4687-1.924-9.4687-14v-78.499h-40.031zm9.4999,9.4686,21.031,0,0,69.031c0,14.877,5.34,23.469,18.969,23.469,14,0,18.969-8.4729,18.969-23.469v-69.031h21.094v70.218c0,26.768-15.986,41.937-40.062,41.937-24.439,0-40-14.511-40-41.937v-70.218z" fill="#000"/>
  <path d="m478.03-532.06c-26.354,0-45.375,16.966-45.375,41.312,0,16.953,10.846,29.891,29.656,38.406,1.5865,0.70886,3.5778,1.4111,5.6874,2.1875h-37.187v7.9374c0,28.32,16.438,43.687,45.375,43.687,24.666,0,44-19.12,44-42.656,0-16.616-9.4672-28.566-26.75-37.468-4.1265-2.135-21.437-8.1868-21.437-14.406,0-2.4304,1.5861-4.1875,4.5312-4.1875,4.0253,0,6.1874,1.8142,6.1874,6.8437v4.7187h36.312v-6.5624c0-24.126-17.093-39.812-41-39.812zm0,9.4374c18.076,0,30.222,10.662,31.437,27.531h-17.844c-1.6202-7.097-7.0346-11.625-15.094-11.625-7.8058,0-13.969,5.6562-13.969,13.656,0,13.24,17.172,17.968,26.531,22.812,15.316,7.8818,21.656,17.138,21.656,29.062,0,18.11-14.883,33.218-34.562,33.218-23.586,0-35.4-11.028-35.906-32.75h18.531c0.75105,9.5948,5.5337,16.312,15.5,16.312,9.0801,0,16-5.2663,16-14.625,0-14.818-13.551-17.172-24.125-21.906-16.793-7.6033-24.094-17.871-24.094-29.812,0-18.304,13.946-31.875,35.937-31.875zm-9.8749,72.531c5.9915,2.2363,12.687,5.1384,12.687,11.062,0,3.0548-1.5017,5.1874-6.5312,5.1874-3.5021,0-6.1562-1.3221-6.1562-9.7186v-6.5312z" fill="#000"/>
 </g>
</svg>
