<?xml version="1.0" encoding="UTF-8" standalone="no"?>
<!-- Created with Inkscape (http://www.inkscape.org/) -->

<svg
   xmlns:dc="http://purl.org/dc/elements/1.1/"
   xmlns:cc="http://creativecommons.org/ns#"
   xmlns:rdf="http://www.w3.org/1999/02/22-rdf-syntax-ns#"
   xmlns:svg="http://www.w3.org/2000/svg"
   xmlns="http://www.w3.org/2000/svg"
   xmlns:xlink="http://www.w3.org/1999/xlink"
   xmlns:inkscape="http://www.inkscape.org/namespaces/inkscape"
   version="1.0"
   width="350.99893"
   height="358"
   id="svg2">
  <metadata
     id="metadata168">
    <rdf:RDF>
      <cc:Work
         rdf:about="">
        <dc:format>image/svg+xml</dc:format>
        <dc:type
           rdf:resource="http://purl.org/dc/dcmitype/StillImage" />
        <dc:title />
      </cc:Work>
    </rdf:RDF>
  </metadata>
  <defs
     id="defs166" />
  <g
     transform="translate(-44.400179,-662.30737)"
     id="layer1">
    <g
       transform="matrix(1,0,0,-1,-49.874766,1247.5965)"
       id="g13872" />
    <g
       transform="matrix(1,0,0,-1,-49.874766,1247.5965)"
       id="g14024">
      <use
         id="use14026"
         x="0"
         y="0"
         width="744.09448"
         height="1052.3622"
         xlink:href="#id24" />
    </g>
    <g
       transform="matrix(1,0,0,-1,-49.874766,1247.5965)"
       id="g22814">
      <g
         transform="matrix(0.6000061,0,0,-0.5899963,-6.0236206,289.47241)"
         id="g22816">
        <path
           d="m 888.539,-273.918 0.051,0 0,-0.326 -0.051,0 0,0.326 z"
           inkscape:connector-curvature="0"
           id="path22818"
           style="fill:#ad1015;fill-rule:nonzero;stroke:none" />
      </g>
      <g
         transform="matrix(0.6000061,0,0,-0.5899963,-6.0236206,289.47241)"
         id="g22820">
        <path
           d="m 888.59,-280.54 -0.051,0 0,0.643 0.051,0 0,-0.643 z"
           inkscape:connector-curvature="0"
           id="path22822"
           style="fill:#ad1015;fill-rule:nonzero;stroke:none" />
      </g>
      <g
         transform="matrix(0.6000061,0,0,-0.5899963,-6.0236206,289.47241)"
         id="g22824">
        <g
           transform="translate(888.5387,-279.7495)"
           id="g22826">
          <path
             d="m 0,0 0,5.349 0.051,0.042 0,-5.431 L 0.045,-0.036 0,0 z"
             inkscape:connector-curvature="0"
             id="path22828"
             style="fill:#ad1015;fill-rule:nonzero;stroke:none" />
        </g>
      </g>
    </g>
    <g
       transform="matrix(1,0,0,-1,-49.874766,1247.5965)"
       id="g24982">
      <g
         transform="matrix(0.6000061,0,0,-0.5899963,-6.0236206,289.47241)"
         id="g24984">
        <path
           d="m 888.539,-274.244 0.051,0 0,-0.013 -0.051,0 0,0.013 z"
           inkscape:connector-curvature="0"
           id="path24986"
           style="fill:#ad1015;fill-rule:nonzero;stroke:none" />
      </g>
      <g
         transform="matrix(0.6000061,0,0,-0.5899963,-6.0236206,289.47241)"
         id="g24988">
        <g
           transform="translate(888.5387,-274.3822)"
           id="g24990">
          <path
             d="M 0,0 0.047,0.036 0.051,0.04 0.051,0.023 0,-0.019 0,0 z"
             inkscape:connector-curvature="0"
             id="path24992"
             style="fill:#ad1015;fill-rule:nonzero;stroke:none" />
        </g>
      </g>
      <g
         transform="matrix(0.6000061,0,0,-0.5899963,-6.0236206,289.47241)"
         id="g24994">
        <path
           d="m 888.539,-279.884 0.051,0 0,-0.014 -0.051,0 0,0.014 z"
           inkscape:connector-curvature="0"
           id="path24996"
           style="fill:#ad1015;fill-rule:nonzero;stroke:none" />
      </g>
      <g
         transform="matrix(0.6000061,0,0,-0.5899963,-6.0236206,289.47241)"
         id="g24998">
        <g
           transform="translate(888.5514,-279.7758)"
           id="g25000">
          <path
             d="m 0,0 -0.013,0.011 0,0.015 0.045,-0.036 0.006,-0.004 0,-0.014 L 0,0 z"
             inkscape:connector-curvature="0"
             id="path25002"
             style="fill:#ad1015;fill-rule:nonzero;stroke:none" />
        </g>
      </g>
    </g>
    <g
       transform="matrix(1,0,0,-1,-49.874766,1247.5965)"
       id="g26910">
      <g
         transform="matrix(0.6000061,0,0,-0.5899963,-6.0236206,289.47241)"
         id="g26912">
        <path
           d="m 888.59,-279.884 -0.051,0 0,0.012 0.051,0 0,-0.012 z"
           inkscape:connector-curvature="0"
           id="path26914"
           style="fill:#aa1015;fill-rule:nonzero;stroke:none" />
      </g>
      <g
         transform="matrix(0.6000061,0,0,-0.5899963,-6.0236206,289.47241)"
         id="g26916">
        <g
           transform="translate(888.5387,-279.7807)"
           id="g26918">
          <path
             d="m 0,0 0,0.016 0.013,-0.011 0.038,-0.028 0,-0.014 L 0,0 z"
             inkscape:connector-curvature="0"
             id="path26920"
             style="fill:#aa1015;fill-rule:nonzero;stroke:none" />
        </g>
      </g>
      <g
         transform="matrix(0.6000061,0,0,-0.5899963,-6.0236206,289.47241)"
         id="g26922">
        <g
           transform="translate(888.5387,-274.3822)"
           id="g26924">
          <path
             d="M 0,0 0,0.017 0.009,0.023 0.051,0.058 0.051,0.04 0.047,0.036 0,0 z"
             inkscape:connector-curvature="0"
             id="path26926"
             style="fill:#aa1015;fill-rule:nonzero;stroke:none" />
        </g>
      </g>
      <g
         transform="matrix(0.6000061,0,0,-0.5899963,-6.0236206,289.47241)"
         id="g26928">
        <path
           d="m 888.539,-274.257 0.051,0 0,-0.013 -0.051,0 0,0.013 z"
           inkscape:connector-curvature="0"
           id="path26930"
           style="fill:#aa1015;fill-rule:nonzero;stroke:none" />
      </g>
    </g>
    <g
       transform="matrix(1,0,0,-1,-49.874766,1247.5965)"
       id="g28722">
      <g
         transform="matrix(0.6000061,0,0,-0.5899963,-6.0236206,289.47241)"
         id="g28724">
        <g
           transform="translate(888.5387,-279.7963)"
           id="g28726">
          <path
             d="m 0,0 0,0.016 0.051,-0.037 0,-0.016 L 0,0 z"
             inkscape:connector-curvature="0"
             id="path28728"
             style="fill:#a91115;fill-rule:nonzero;stroke:none" />
        </g>
      </g>
      <g
         transform="matrix(0.6000061,0,0,-0.5899963,-6.0236206,289.47241)"
         id="g28730">
        <g
           transform="translate(888.5895,-274.307)"
           id="g28732">
          <path
             d="m 0,0 0,-0.018 -0.042,-0.034 -0.009,-0.007 0,0.017 L 0,0 z"
             inkscape:connector-curvature="0"
             id="path28734"
             style="fill:#a91115;fill-rule:nonzero;stroke:none" />
        </g>
      </g>
      <g
         transform="matrix(0.6000061,0,0,-0.5899963,-6.0236206,289.47241)"
         id="g28736">
        <path
           d="m 888.539,-274.27 0.051,0 0,-0.013 -0.051,0 0,0.013 z"
           inkscape:connector-curvature="0"
           id="path28738"
           style="fill:#a91115;fill-rule:nonzero;stroke:none" />
      </g>
      <g
         transform="matrix(0.6000061,0,0,-0.5899963,-6.0236206,289.47241)"
         id="g28740">
        <path
           d="m 888.59,-279.872 -0.051,0 0,0.014 0.051,0 0,-0.014 z"
           inkscape:connector-curvature="0"
           id="path28742"
           style="fill:#a91115;fill-rule:nonzero;stroke:none" />
      </g>
    </g>
    <g
       transform="matrix(1,0,0,-1,-49.874766,1247.5965)"
       id="g30210">
      <g
         transform="matrix(0.6000061,0,0,-0.5899963,-6.0236206,289.47241)"
         id="g30212">
        <g
           transform="translate(888.5856,-279.8461)"
           id="g30214">
          <path
             d="m 0,0 -0.047,0.035 0,0.015 0.051,-0.037 0,-0.026 -0.051,0 0,0.013 L 0,0 z"
             inkscape:connector-curvature="0"
             id="path30216"
             style="fill:#a81116;fill-rule:nonzero;stroke:none" />
        </g>
      </g>
      <g
         transform="matrix(0.6000061,0,0,-0.5899963,-6.0236206,289.47241)"
         id="g30218">
        <g
           transform="translate(888.5836,-274.2953)"
           id="g30220">
          <path
             d="m 0,0 -0.045,0 0,0.013 0.051,0 0,-0.025 -0.051,-0.042 0,0.019 L 0,0 z"
             inkscape:connector-curvature="0"
             id="path30222"
             style="fill:#a81116;fill-rule:nonzero;stroke:none" />
        </g>
      </g>
    </g>
    <g
       transform="matrix(1,0,0,-1,-49.874766,1247.5965)"
       id="g31228">
      <g
         transform="matrix(0.6000061,0,0,-0.5899963,-6.0236206,289.47241)"
         id="g31230">
        <g
           transform="translate(888.5475,-279.8334)"
           id="g31232">
          <path
             d="m 0,0 -0.009,0.007 0,0.015 0.047,-0.035 -0.047,0 0,0.013 L 0,0 z"
             inkscape:connector-curvature="0"
             id="path31234"
             style="fill:#a61116;fill-rule:nonzero;stroke:none" />
        </g>
      </g>
      <g
         transform="matrix(0.6000061,0,0,-0.5899963,-6.0236206,289.47241)"
         id="g31236">
        <g
           transform="translate(888.5456,-274.308)"
           id="g31238">
          <path
             d="m 0,0 -0.007,0 0,0.013 0.045,0 -0.045,-0.035 0,0.015 L 0,0 z"
             inkscape:connector-curvature="0"
             id="path31240"
             style="fill:#a61116;fill-rule:nonzero;stroke:none" />
        </g>
      </g>
    </g>
    <g
       transform="matrix(1,0,0,-1,-49.874766,1247.5965)"
       id="g31830">
      <g
         transform="matrix(0.6000061,0,0,-0.5899963,-6.0236206,289.47241)"
         id="g31832">
        <g
           transform="translate(888.5456,-274.308)"
           id="g31834">
          <path
             d="M 0,0 -0.007,-0.007 -0.007,0 0,0 z"
             inkscape:connector-curvature="0"
             id="path31836"
             style="fill:#a51116;fill-rule:nonzero;stroke:none" />
        </g>
      </g>
      <g
         transform="matrix(0.6000061,0,0,-0.5899963,-6.0236206,289.47241)"
         id="g31838">
        <g
           transform="translate(888.5475,-279.8334)"
           id="g31840">
          <path
             d="m 0,0 -0.009,0 0,0.007 L 0,0 z"
             inkscape:connector-curvature="0"
             id="path31842"
             style="fill:#a51116;fill-rule:nonzero;stroke:none" />
        </g>
      </g>
    </g>
    <g
       transform="matrix(1,0,0,-1,-49.874766,1247.5965)"
       id="g34536">
      <g
         transform="matrix(0.6000061,0,0,-0.5899963,-6.0236206,289.47241)"
         id="g34538">
        <path
           d="m 888.539,-273.918 0.051,0 0,-0.326 -0.051,0 0,0.326 z"
           inkscape:connector-curvature="0"
           id="path34540"
           style="fill:#ad1015;fill-rule:nonzero;stroke:none" />
      </g>
      <g
         transform="matrix(0.6000061,0,0,-0.5899963,-6.0236206,289.47241)"
         id="g34542">
        <path
           d="m 888.59,-280.54 -0.051,0 0,0.643 0.051,0 0,-0.643 z"
           inkscape:connector-curvature="0"
           id="path34544"
           style="fill:#ad1015;fill-rule:nonzero;stroke:none" />
      </g>
      <g
         transform="matrix(0.6000061,0,0,-0.5899963,-6.0236206,289.47241)"
         id="g34546">
        <g
           transform="translate(888.5387,-279.7495)"
           id="g34548">
          <path
             d="m 0,0 0,5.349 0.051,0.042 0,-5.431 L 0.045,-0.036 0,0 z"
             inkscape:connector-curvature="0"
             id="path34550"
             style="fill:#ad1015;fill-rule:nonzero;stroke:none" />
        </g>
      </g>
    </g>
    <g
       transform="matrix(1,0,0,-1,-49.874766,1247.5965)"
       id="g36704">
      <g
         transform="matrix(0.6000061,0,0,-0.5899963,-6.0236206,289.47241)"
         id="g36706">
        <path
           d="m 888.539,-274.244 0.051,0 0,-0.013 -0.051,0 0,0.013 z"
           inkscape:connector-curvature="0"
           id="path36708"
           style="fill:#ad1015;fill-rule:nonzero;stroke:none" />
      </g>
      <g
         transform="matrix(0.6000061,0,0,-0.5899963,-6.0236206,289.47241)"
         id="g36710">
        <g
           transform="translate(888.5387,-274.3822)"
           id="g36712">
          <path
             d="M 0,0 0.047,0.036 0.051,0.04 0.051,0.023 0,-0.019 0,0 z"
             inkscape:connector-curvature="0"
             id="path36714"
             style="fill:#ad1015;fill-rule:nonzero;stroke:none" />
        </g>
      </g>
      <g
         transform="matrix(0.6000061,0,0,-0.5899963,-6.0236206,289.47241)"
         id="g36716">
        <path
           d="m 888.539,-279.884 0.051,0 0,-0.014 -0.051,0 0,0.014 z"
           inkscape:connector-curvature="0"
           id="path36718"
           style="fill:#ad1015;fill-rule:nonzero;stroke:none" />
      </g>
      <g
         transform="matrix(0.6000061,0,0,-0.5899963,-6.0236206,289.47241)"
         id="g36720">
        <g
           transform="translate(888.5514,-279.7758)"
           id="g36722">
          <path
             d="m 0,0 -0.013,0.011 0,0.015 0.045,-0.036 0.006,-0.004 0,-0.014 L 0,0 z"
             inkscape:connector-curvature="0"
             id="path36724"
             style="fill:#ad1015;fill-rule:nonzero;stroke:none" />
        </g>
      </g>
    </g>
    <g
       transform="matrix(1,0,0,-1,-49.874766,1247.5965)"
       id="g38632">
      <g
         transform="matrix(0.6000061,0,0,-0.5899963,-6.0236206,289.47241)"
         id="g38634">
        <path
           d="m 888.59,-279.884 -0.051,0 0,0.012 0.051,0 0,-0.012 z"
           inkscape:connector-curvature="0"
           id="path38636"
           style="fill:#aa1015;fill-rule:nonzero;stroke:none" />
      </g>
      <g
         transform="matrix(0.6000061,0,0,-0.5899963,-6.0236206,289.47241)"
         id="g38638">
        <g
           transform="translate(888.5387,-279.7807)"
           id="g38640">
          <path
             d="m 0,0 0,0.016 0.013,-0.011 0.038,-0.028 0,-0.014 L 0,0 z"
             inkscape:connector-curvature="0"
             id="path38642"
             style="fill:#aa1015;fill-rule:nonzero;stroke:none" />
        </g>
      </g>
      <g
         transform="matrix(0.6000061,0,0,-0.5899963,-6.0236206,289.47241)"
         id="g38644">
        <g
           transform="translate(888.5387,-274.3822)"
           id="g38646">
          <path
             d="M 0,0 0,0.017 0.009,0.023 0.051,0.058 0.051,0.04 0.047,0.036 0,0 z"
             inkscape:connector-curvature="0"
             id="path38648"
             style="fill:#aa1015;fill-rule:nonzero;stroke:none" />
        </g>
      </g>
      <g
         transform="matrix(0.6000061,0,0,-0.5899963,-6.0236206,289.47241)"
         id="g38650">
        <path
           d="m 888.539,-274.257 0.051,0 0,-0.013 -0.051,0 0,0.013 z"
           inkscape:connector-curvature="0"
           id="path38652"
           style="fill:#aa1015;fill-rule:nonzero;stroke:none" />
      </g>
    </g>
    <g
       transform="matrix(1,0,0,-1,-49.874766,1247.5965)"
       id="g40444">
      <g
         transform="matrix(0.6000061,0,0,-0.5899963,-6.0236206,289.47241)"
         id="g40446">
        <g
           transform="translate(888.5387,-279.7963)"
           id="g40448">
          <path
             d="m 0,0 0,0.016 0.051,-0.037 0,-0.016 L 0,0 z"
             inkscape:connector-curvature="0"
             id="path40450"
             style="fill:#a91115;fill-rule:nonzero;stroke:none" />
        </g>
      </g>
      <g
         transform="matrix(0.6000061,0,0,-0.5899963,-6.0236206,289.47241)"
         id="g40452">
        <g
           transform="translate(888.5895,-274.307)"
           id="g40454">
          <path
             d="m 0,0 0,-0.018 -0.042,-0.034 -0.009,-0.007 0,0.017 L 0,0 z"
             inkscape:connector-curvature="0"
             id="path40456"
             style="fill:#a91115;fill-rule:nonzero;stroke:none" />
        </g>
      </g>
      <g
         transform="matrix(0.6000061,0,0,-0.5899963,-6.0236206,289.47241)"
         id="g40458">
        <path
           d="m 888.539,-274.27 0.051,0 0,-0.013 -0.051,0 0,0.013 z"
           inkscape:connector-curvature="0"
           id="path40460"
           style="fill:#a91115;fill-rule:nonzero;stroke:none" />
      </g>
      <g
         transform="matrix(0.6000061,0,0,-0.5899963,-6.0236206,289.47241)"
         id="g40462">
        <path
           d="m 888.59,-279.872 -0.051,0 0,0.014 0.051,0 0,-0.014 z"
           inkscape:connector-curvature="0"
           id="path40464"
           style="fill:#a91115;fill-rule:nonzero;stroke:none" />
      </g>
    </g>
    <g
       transform="matrix(1,0,0,-1,-49.874766,1247.5965)"
       id="g41932">
      <g
         transform="matrix(0.6000061,0,0,-0.5899963,-6.0236206,289.47241)"
         id="g41934">
        <g
           transform="translate(888.5856,-279.8461)"
           id="g41936">
          <path
             d="m 0,0 -0.047,0.035 0,0.015 0.051,-0.037 0,-0.026 -0.051,0 0,0.013 L 0,0 z"
             inkscape:connector-curvature="0"
             id="path41938"
             style="fill:#a81116;fill-rule:nonzero;stroke:none" />
        </g>
      </g>
      <g
         transform="matrix(0.6000061,0,0,-0.5899963,-6.0236206,289.47241)"
         id="g41940">
        <g
           transform="translate(888.5836,-274.2953)"
           id="g41942">
          <path
             d="m 0,0 -0.045,0 0,0.013 0.051,0 0,-0.025 -0.051,-0.042 0,0.019 L 0,0 z"
             inkscape:connector-curvature="0"
             id="path41944"
             style="fill:#a81116;fill-rule:nonzero;stroke:none" />
        </g>
      </g>
    </g>
    <g
       transform="matrix(1,0,0,-1,-49.874766,1247.5965)"
       id="g42950">
      <g
         transform="matrix(0.6000061,0,0,-0.5899963,-6.0236206,289.47241)"
         id="g42952">
        <g
           transform="translate(888.5475,-279.8334)"
           id="g42954">
          <path
             d="m 0,0 -0.009,0.007 0,0.015 0.047,-0.035 -0.047,0 0,0.013 L 0,0 z"
             inkscape:connector-curvature="0"
             id="path42956"
             style="fill:#a61116;fill-rule:nonzero;stroke:none" />
        </g>
      </g>
      <g
         transform="matrix(0.6000061,0,0,-0.5899963,-6.0236206,289.47241)"
         id="g42958">
        <g
           transform="translate(888.5456,-274.308)"
           id="g42960">
          <path
             d="m 0,0 -0.007,0 0,0.013 0.045,0 -0.045,-0.035 0,0.015 L 0,0 z"
             inkscape:connector-curvature="0"
             id="path42962"
             style="fill:#a61116;fill-rule:nonzero;stroke:none" />
        </g>
      </g>
    </g>
    <g
       transform="matrix(1,0,0,-1,-49.874766,1247.5965)"
       id="g43552">
      <g
         transform="matrix(0.6000061,0,0,-0.5899963,-6.0236206,289.47241)"
         id="g43554">
        <g
           transform="translate(888.5456,-274.308)"
           id="g43556">
          <path
             d="M 0,0 -0.007,-0.007 -0.007,0 0,0 z"
             inkscape:connector-curvature="0"
             id="path43558"
             style="fill:#a51116;fill-rule:nonzero;stroke:none" />
        </g>
      </g>
      <g
         transform="matrix(0.6000061,0,0,-0.5899963,-6.0236206,289.47241)"
         id="g43560">
        <g
           transform="translate(888.5475,-279.8334)"
           id="g43562">
          <path
             d="m 0,0 -0.009,0 0,0.007 L 0,0 z"
             inkscape:connector-curvature="0"
             id="path43564"
             style="fill:#a51116;fill-rule:nonzero;stroke:none" />
        </g>
      </g>
    </g>
    <g
       transform="matrix(1,0,0,-1,-49.874766,1247.5965)"
       id="g55472">
      <path
         d="m 352.682,350.98 0.026,0 0,3.973 -0.026,0 0,-3.973 z"
         inkscape:connector-curvature="0"
         id="path55474"
         style="fill:#ed1c24;fill-rule:nonzero;stroke:none" />
    </g>
    <g
       transform="matrix(1,0,0,-1,-49.874766,1247.5965)"
       id="g56536">
      <path
         d="m 356.665,350.98 0.031,0 0,0.196 -0.031,0 0,-0.196 z"
         inkscape:connector-curvature="0"
         id="path56538"
         style="fill:#ad1015;fill-rule:nonzero;stroke:none" />
    </g>
    <g
       transform="matrix(1,0,0,-1,-49.874766,1247.5965)"
       id="g62150">
      <path
         d="m 352.682,350.98 0.026,0 0,3.973 -0.026,0 0,-3.973 z"
         inkscape:connector-curvature="0"
         id="path62152"
         style="fill:#ed1c24;fill-rule:nonzero;stroke:none" />
    </g>
    <g
       transform="matrix(1,0,0,-1,-49.874766,1247.5965)"
       id="g63214">
      <path
         d="m 356.665,350.98 0.031,0 0,0.196 -0.031,0 0,-0.196 z"
         inkscape:connector-curvature="0"
         id="path63216"
         style="fill:#ad1015;fill-rule:nonzero;stroke:none" />
    </g>
    <g
       transform="matrix(1,0,0,-1,228.60983,857.62274)"
       id="g68940">
      <path
         d="M 0,0 -0.376,0"
         inkscape:connector-curvature="0"
         id="path68942"
         style="fill:#050606;fill-rule:nonzero;stroke:none" />
    </g>
    <g
       transform="matrix(1,0,0,-1,233.40993,857.62274)"
       id="g68948">
      <path
         d="M 0,0 -0.376,0"
         inkscape:connector-curvature="0"
         id="path68950"
         style="fill:#050606;fill-rule:nonzero;stroke:none" />
    </g>
    <g
       transform="matrix(1,0,0,-1,491.43013,900.34814)"
       id="g70384">
      <path
         d="M 0,0 9.029,0 0,0 z"
         inkscape:connector-curvature="0"
         id="path70386"
         style="fill:#ffffff;fill-rule:nonzero;stroke:none" />
    </g>
    <g
       transform="matrix(1,0,0,-1,397.52783,933.48174)"
       id="g70508">
      <path
         d="M 0,0 -0.215,0"
         inkscape:connector-curvature="0"
         id="path70510"
         style="fill:#000000;fill-rule:nonzero;stroke:none" />
    </g>
    <g
       transform="matrix(1,0,0,-1,400.28163,933.48174)"
       id="g70512">
      <path
         d="M 0,0 -0.215,0"
         inkscape:connector-curvature="0"
         id="path70514"
         style="fill:#000000;fill-rule:nonzero;stroke:none" />
    </g>
    <g
       transform="matrix(27.031108,0,0,-27.031108,44.400179,841.30737)"
       id="g76208"
       style="fill:#e40020;fill-opacity:1">
      <path
         d="m 0,0 c 0,-3.657 2.908,-6.622 6.492,-6.622 3.586,0 6.493,2.965 6.493,6.622 0,3.658 -2.907,6.622 -6.493,6.622 C 2.908,6.622 0,3.658 0,0"
         inkscape:connector-curvature="0"
         id="path76210"
         style="fill:#e40020;fill-opacity:1;fill-rule:nonzero;stroke:none" />
    </g>
    <g
       transform="matrix(27.031108,0,0,-27.031108,119.81967,845.75669)"
       id="g76212">
      <path
         d="m 0,0 c -0.15,-0.116 -0.362,-0.145 -0.644,-0.184 -0.392,-0.054 -0.591,-0.131 -0.591,-0.431 0,-0.213 0.179,-0.377 0.45,-0.377 C -0.3,-0.992 0,-0.741 0,-0.373 L 0,0 z m -0.789,-1.303 c -0.524,0 -0.799,0.257 -0.799,0.707 0,0.441 0.257,0.62 0.795,0.697 0.531,0.078 0.768,0.097 0.768,0.412 0,0.252 -0.187,0.401 -0.513,0.401 -0.295,0 -0.494,-0.12 -0.494,-0.207 0,-0.049 0.112,-0.102 0.112,-0.219 0,-0.125 -0.101,-0.222 -0.242,-0.222 -0.175,0 -0.285,0.122 -0.285,0.324 0,0.349 0.353,0.615 0.958,0.615 0.61,0 0.842,-0.252 0.842,-0.828 l 0,-1.094 c 0,-0.184 0.02,-0.261 0.15,-0.261 0.126,0 0.171,0.077 0.17,0.242 l 0.001,0.084 c 0,0.136 0.038,0.187 0.135,0.187 0.106,0 0.146,-0.044 0.146,-0.194 l 0,-0.203 c 0,-0.276 -0.185,-0.436 -0.491,-0.436 -0.252,0 -0.396,0.131 -0.406,0.363 -0.189,-0.241 -0.474,-0.368 -0.847,-0.368"
         inkscape:connector-curvature="0"
         id="path76214"
         style="fill:#ffffff;fill-rule:nonzero;stroke:none" />
    </g>
    <g
       transform="matrix(27.031108,0,0,-27.031108,163.78847,812.64628)"
       id="g76216">
      <path
         d="m 0,0 0,0.038 c 0,0.33 -0.014,0.439 -0.252,0.439 l -0.176,0 c -0.111,0 -0.149,0.05 -0.149,0.157 0,0.092 0.052,0.151 0.173,0.151 l 0.238,0 0.38,0 c 0.145,0 0.154,-0.054 0.154,-0.199 l 0,-2.431 c 0,-0.271 0.024,-0.334 0.228,-0.334 0.053,0 0.092,0.005 0.126,0.005 0.135,0 0.203,-0.048 0.203,-0.155 0,-0.106 -0.054,-0.138 -0.186,-0.138 l -0.529,0 -0.597,0 c -0.13,0 -0.184,0.032 -0.184,0.138 0,0.107 0.067,0.155 0.203,0.155 0.049,0 0.092,-0.005 0.135,-0.005 0.208,0 0.233,0.063 0.233,0.334 L 0,0 z"
         inkscape:connector-curvature="0"
         id="path76218"
         style="fill:#ffffff;fill-rule:nonzero;stroke:none" />
    </g>
    <g
       transform="matrix(27.031108,0,0,-27.031108,210.3847,795.50315)"
       id="g76220">
      <path
         d="m 0,0 c 0.145,0 0.256,-0.116 0.256,-0.262 0,-0.14 -0.116,-0.256 -0.256,-0.256 -0.146,0 -0.262,0.111 -0.262,0.256 C -0.262,-0.116 -0.151,0 0,0 m -0.116,-1.515 c 0,0.377 -0.021,0.487 -0.248,0.487 -0.082,0 -0.093,-0.006 -0.183,0 -0.037,0.003 -0.144,0.055 -0.145,0.146 -0.005,0.193 0.063,0.22 0.164,0.22 l 0.279,0 0.331,0 c 0.145,0 0.17,-0.113 0.17,-0.263 l 0,-1.554 c 0,-0.276 0.029,-0.334 0.227,-0.334 0.053,0 0.092,0.005 0.126,0.005 0.135,0 0.204,-0.049 0.204,-0.155 0,-0.107 -0.062,-0.138 -0.193,-0.138 l -0.528,0 -0.599,0 c -0.13,0 -0.177,0.031 -0.177,0.138 0,0.106 0.068,0.155 0.203,0.155 0.049,0 0.092,-0.005 0.136,-0.005 0.209,0 0.233,0.063 0.233,0.334 l 0,0.964 z"
         inkscape:connector-curvature="0"
         id="path76222"
         style="fill:#ffffff;fill-rule:nonzero;stroke:none" />
    </g>
    <g
       transform="matrix(27.031108,0,0,-27.031108,253.82909,851.91167)"
       id="g76224">
      <path
         d="m 0,0 c 0,-0.509 0.193,-0.755 0.658,-0.755 0.494,0 0.78,0.339 0.78,0.939 0,0.591 -0.305,0.934 -0.746,0.934 C 0.28,1.118 0,0.827 0,0.305 L 0,0 z m -0.204,-1.046 c -0.125,0 -0.164,0.043 -0.164,0.16 0,0.048 0.009,0.116 0.009,0.209 l 0,2.284 c 0,0.257 -0.008,0.323 -0.255,0.323 -0.048,0 -0.094,0.002 -0.137,0.002 -0.145,0 -0.214,-0.026 -0.218,0.16 -0.001,0.096 0.063,0.145 0.188,0.145 0.088,0 0.183,0 0.305,0 l 0.328,0 c 0.129,0 0.186,-0.063 0.186,-0.223 0,-0.102 -0.004,-0.238 -0.009,-0.407 L 0.009,1.055 c 0.165,0.257 0.403,0.388 0.751,0.388 0.639,0 1.069,-0.505 1.069,-1.255 0,-0.793 -0.425,-1.253 -1.113,-1.253 -0.281,0 -0.518,0.092 -0.697,0.266 l 0,-0.043 c 0,-0.184 -0.029,-0.204 -0.223,-0.204"
         inkscape:connector-curvature="0"
         id="path76226"
         style="fill:#ffffff;fill-rule:nonzero;stroke:none" />
    </g>
    <g
       transform="matrix(27.031108,0,0,-27.031108,325.10472,836.08766)"
       id="g76228">
      <path
         d="m 0,0 c 0,0.377 -0.012,0.488 -0.239,0.488 l -0.17,0 c -0.036,0 -0.161,0.037 -0.168,0.146 -0.01,0.161 0.065,0.219 0.165,0.219 l 0.279,0 0.331,0 c 0.145,0 0.169,-0.113 0.169,-0.262 l 0,-1.555 c 0,-0.275 0.03,-0.334 0.228,-0.334 0.053,0 0.093,0.006 0.126,0.006 0.135,0 0.204,-0.049 0.204,-0.156 0,-0.106 -0.068,-0.152 -0.199,-0.152 l -0.52,0 -0.594,0 c -0.132,0 -0.184,0.046 -0.184,0.152 0,0.107 0.068,0.156 0.204,0.156 0.048,0 0.091,-0.006 0.135,-0.006 0.208,0 0.233,0.063 0.233,0.334 L 0,0 z"
         inkscape:connector-curvature="0"
         id="path76230"
         style="fill:#ffffff;fill-rule:nonzero;stroke:none" />
    </g>
    <g
       transform="matrix(27.031108,0,0,-27.031108,328.63498,788.96163)"
       id="g76232"
       style="fill:#000000">
      <path
         d="m 0,0 c 0.163,0 0.287,-0.13 0.287,-0.292 0,-0.157 -0.129,-0.286 -0.287,-0.286 -0.163,0 -0.291,0.124 -0.291,0.286 C -0.291,-0.13 -0.166,0 0,0"
         inkscape:connector-curvature="0"
         id="path76234"
         style="fill:#000000;fill-rule:nonzero;stroke:none" />
    </g>
    <g
       id="text3927"
       style="font-size:117.97356415px;font-style:normal;font-variant:normal;font-weight:bold;font-stretch:normal;line-height:125%;letter-spacing:0px;word-spacing:0px;fill:#ffffff;fill-opacity:1;stroke:none;font-family:Arial;-inkscape-font-specification:Sans Bold">
      <path
         d="m 150.13735,978.20319 0,-84.44788 17.05086,0 0,33.23767 33.41048,0 0,-33.23767 17.05087,0 0,84.44788 -17.05087,0 0,-36.92435 -33.41048,0 0,36.92435 z"
         inkscape:connector-curvature="0"
         id="path3144"
         style="fill:#ffffff" />
      <path
         d="m 235.27647,893.75531 31.16392,0 c 7.02767,9e-5 12.38486,0.53773 16.07159,1.61292 4.95391,1.45939 9.19742,4.05158 12.73055,7.77658 3.53299,3.72515 6.22118,8.28548 8.06459,13.68102 1.84326,5.39565 2.76493,12.04894 2.76501,19.95988 -8e-5,6.95095 -0.86414,12.94179 -2.59219,17.97253 -2.11223,6.14448 -5.12685,11.11764 -9.04387,14.91951 -2.95709,2.88022 -6.95098,5.12679 -11.98169,6.7397 -3.76354,1.19049 -8.7943,1.78574 -15.09233,1.78574 l -32.08558,0 z m 17.05087,14.28586 0,55.93376 12.73054,0 c 4.76191,10e-6 8.19897,-0.26881 10.31117,-0.80646 2.76495,-0.69124 5.05952,-1.86252 6.88371,-3.51386 1.82408,-1.6513 3.31219,-4.3683 4.46433,-8.15101 1.15203,-3.78265 1.72807,-8.93823 1.72813,-15.46675 -6e-5,-6.52843 -0.5761,-11.54 -1.72813,-15.03471 -1.15214,-3.4946 -2.76506,-6.2212 -4.83876,-8.17981 -2.0738,-1.95848 -4.7044,-3.28338 -7.89178,-3.9747 -2.38103,-0.53757 -7.04697,-0.80639 -13.99784,-0.80646 z"
         inkscape:connector-curvature="0"
         id="path3146"
         style="fill:#ffffff" />
    </g>
  </g>
</svg>
