<?xml version="1.0" encoding="UTF-8" standalone="no"?>
<!-- Created with Inkscape (http://www.inkscape.org/) -->

<svg
   xmlns:dc="http://purl.org/dc/elements/1.1/"
   xmlns:cc="http://creativecommons.org/ns#"
   xmlns:rdf="http://www.w3.org/1999/02/22-rdf-syntax-ns#"
   xmlns:svg="http://www.w3.org/2000/svg"
   xmlns="http://www.w3.org/2000/svg"
   xmlns:inkscape="http://www.inkscape.org/namespaces/inkscape"
   version="1.1"
   width="300"
   height="220"
   id="svg2">
  <defs
     id="defs4">
    <style
       type="text/css"
       id="style6" />
  </defs>
  <metadata
     id="metadata7">
    <rdf:RDF>
      <cc:Work
         rdf:about="">
        <dc:format>image/svg+xml</dc:format>
        <dc:type
           rdf:resource="http://purl.org/dc/dcmitype/StillImage" />
        <dc:title />
      </cc:Work>
    </rdf:RDF>
  </metadata>
  <g
     transform="translate(-341.42856,-698.79071)"
     id="layer1">
    <rect
       width="300"
       height="220"
       x="341.42856"
       y="698.79071"
       id="rect3934"
       style="opacity:0.93362834;fill:#c90302;fill-opacity:1;stroke:none" />
    <path
       d="m 421.11971,868.10005 c 7.32752,-1.15954 13.20539,-3.96665 17.90121,-8.5491 5.46186,-5.33023 8.60313,-11.89227 9.74099,-20.34726 0.29232,-2.1719 0.33172,-7.64924 0.0709,-9.80691 -1.0284,-8.50251 -4.29777,-15.48999 -9.72349,-20.78127 -6.29271,-6.13667 -14.79617,-9.22948 -24.5519,-8.92971 -7.734,0.23757 -14.54717,2.64349 -20.14637,7.1141 -3.06807,2.44958 -6.27427,6.46725 -8.12595,10.18185 -4.9906,10.0127 -5.0768,23.58113 -0.21351,33.61939 1.66803,3.4433 3.34583,5.82589 5.97592,8.48659 5.32377,5.38586 11.94481,8.37907 20.47578,9.25654 1.3101,0.13452 7.27261,-0.0347 8.59675,-0.24439 z m -8.18786,-12.14414 c -4.71654,-0.50254 -8.44856,-2.19354 -11.36805,-5.15168 -2.87507,-2.91306 -4.53625,-6.54745 -5.33209,-11.66671 -0.33593,-2.16182 -0.3397,-7.88214 -0.009,-10.12423 0.28584,-1.92471 0.85239,-4.18601 1.39265,-5.55907 2.0062,-5.09968 5.66255,-8.63661 10.68991,-10.34089 3.53807,-1.19952 8.60627,-1.44697 12.60808,-0.61547 7.80934,1.62247 12.79512,7.11098 14.243,15.67953 0.57679,3.41216 0.57649,8.26406 -1.7e-4,11.71571 -1.57437,9.4236 -7.47109,15.11128 -16.66404,16.07305 -1.45344,0.15204 -4.08341,0.14729 -5.56288,-0.0119 z m 150.85301,12.07864 c 7.66254,-1.02372 14.31776,-3.34394 19.68014,-6.86095 1.42709,-0.93594 2.8945,-2.04147 2.8945,-2.18107 0,-0.0597 -1.10143,-2.16227 -2.44744,-4.67236 l -2.4475,-4.56365 -0.72397,0.46782 c -9.87271,6.37706 -24.38471,8.10895 -33.08371,3.94803 -5.42213,-2.5936 -8.57763,-7.09316 -9.77681,-13.94146 l -0.0753,-0.43085 25.32472,0 25.32495,0 0.0688,-0.29805 c 0.39054,-1.68926 0.5659,-6.32415 0.3424,-9.0452 -0.31752,-3.86049 -0.83331,-6.50778 -1.91488,-9.82662 -3.3693,-10.33977 -10.84851,-17.35219 -21.26298,-19.93551 -3.07827,-0.76365 -4.8799,-0.96326 -8.79348,-0.97428 -3.63315,-0.0119 -4.61386,0.071 -7.28415,0.60424 -11.30398,2.25765 -20.028,10.07016 -23.68382,21.20894 -1.69015,5.14993 -2.34063,10.58662 -1.90801,15.94724 0.94765,11.74222 6.14549,20.85613 14.96089,26.23186 4.15694,2.53483 8.41795,3.88959 14.56832,4.63206 0.25261,0.0306 2.172,0.0383 4.26551,0.0178 2.9969,-0.03 4.26677,-0.0995 5.97174,-0.32757 z m -25.94279,-39.75563 c 0.30014,-2.89934 1.46988,-6.15434 3.12277,-8.6895 0.95677,-1.46737 3.17103,-3.67816 4.67908,-4.67201 2.06769,-1.36216 4.50448,-2.29732 7.24603,-2.78029 1.90389,-0.33559 6.25624,-0.2922 8.33563,0.0834 3.79134,0.68431 6.65825,2.04525 9.08146,4.31065 2.8855,2.6975 4.72863,6.80646 4.98339,11.10938 l 0.0844,1.42485 -18.80712,0 -18.80692,0 0.0815,-0.78649 z m -69.60474,22.1428 c 0,-10.01187 0.0521,-16.93995 0.13528,-17.99067 0.53255,-6.71062 2.22661,-11.03823 5.7049,-14.57272 3.69731,-3.75713 8.66991,-5.54081 14.83096,-5.3202 4.93801,0.17668 8.38118,1.54826 11.09232,4.41743 2.12836,2.2526 3.39368,4.88504 4.13224,8.59694 0.53949,2.71235 0.59292,3.95626 0.6638,15.50673 0.0926,15.04866 0.34049,19.934 1.26249,24.88221 l 0.14234,0.76219 6.39093,0 6.39078,0 -0.23939,-1.49107 c -0.24879,-1.54775 -0.52146,-4.04924 -0.77643,-7.12345 -0.0888,-1.07174 -0.18939,-7.63342 -0.25056,-16.36731 -0.10057,-14.41068 -0.13586,-15.51541 -0.59684,-18.81893 -0.68677,-4.92451 -2.32498,-9.40974 -4.61944,-12.64844 -1.88594,-2.66234 -5.01083,-5.53389 -7.70335,-7.07986 -6.75206,-3.87683 -15.89572,-4.6147 -23.69789,-1.91212 -2.82877,0.97965 -5.41698,2.42238 -7.69053,4.28662 -1.42609,1.16935 -3.54322,3.36117 -4.44237,4.5992 -0.35661,0.49137 -0.68339,0.89327 -0.72609,0.89327 -0.0426,0 -0.14792,-0.67103 -0.23468,-1.49104 -0.24585,-2.33569 -0.77608,-5.24388 -1.35322,-7.42148 l -0.13204,-0.49701 -6.27582,0 -6.2758,0 0.16528,0.96086 c 0.55963,3.25343 0.93409,7.692 1.10895,13.1518 0.07,2.18754 0.12822,14.54825 0.1294,27.46816 l 0.001,23.4908 6.43113,0 6.43113,0 0,-16.28191 0,0 4.7e-4,0 z"
       inkscape:connector-curvature="0"
       id="path10-4"
       style="fill:#ffffff;fill-rule:evenodd" />
    <g
       transform="matrix(0.55976987,0,0,0.55976987,279.1677,498.03445)"
       id="layer3"
       style="display:inline">
      <path
         d="m 414.35294,444.90308 -68.49685,0 0,64.90112 68.49685,0 0,-64.90112 z"
         inkscape:connector-curvature="0"
         id="path23-6"
         style="fill:#ffffff;fill-opacity:1;fill-rule:evenodd;display:inline;overflow:visible" />
      <path
         d="m 335.38237,444.90308 -68.49685,0 0,64.90112 68.49685,0 0,-64.90112 z"
         inkscape:connector-curvature="0"
         id="path23"
         style="fill:#ffffff;fill-opacity:1;fill-rule:evenodd;overflow:visible" />
      <path
         d="m 283.36806,453.15209 0,48.1975 17.23267,0 c 3.90162,0 7.20466,-0.60455 9.84727,-1.7984 2.51672,-1.19382 4.35936,-2.73837 5.74418,-4.7658 1.38488,-1.79014 2.00593,-4.05851 2.00593,-6.56424 0,-3.10453 -1.05178,-5.85499 -3.19122,-8.00291 -2.1408,-2.26719 -5.03384,-3.71993 -8.93546,-4.31621 5.28644,-2.14792 7.80675,-5.4768 7.9325,-10.25095 -0.12599,-2.50576 -0.83936,-4.59418 -2.09712,-6.38437 -1.13324,-1.90939 -2.98849,-3.51142 -5.37948,-4.58599 -2.39105,-1.07461 -5.56831,-1.52863 -9.84724,-1.52863 l -13.31203,0 z m 7.29425,6.11462 6.2913,0 c 6.16687,0 9.30017,2.35887 9.30017,7.01382 0,2.14784 -0.82676,4.05276 -2.4618,5.48514 -1.63635,1.31182 -4.43017,1.97827 -8.20604,1.97827 l -4.92363,0 0,-14.47723 z m 0,20.68173 6.83837,0 c 3.52297,0 6.26284,0.27363 8.02369,0.98914 1.63635,0.47832 2.85655,1.47569 3.73828,2.78756 0.75465,0.95656 1.33311,2.19695 1.45887,3.86658 -0.126,1.55164 -0.52056,2.91444 -1.27649,4.22629 -0.88045,1.19382 -1.98878,2.01141 -3.3736,2.60769 -1.63635,0.47848 -4.4302,0.71939 -8.20604,0.71939 l -7.20308,0 0,-15.19665 z"
         inkscape:connector-curvature="0"
         id="path23-3"
         style="fill:#cc0000;fill-opacity:1;fill-rule:evenodd;display:inline;overflow:visible" />
      <path
         d="m 492.93107,444.90308 -68.49686,0 0,64.90112 68.49686,0 0,-64.90112 z"
         inkscape:connector-curvature="0"
         id="path23-6-1"
         style="fill:#ffffff;fill-opacity:1;fill-rule:evenodd;display:inline;overflow:visible" />
      <path
         d="m 460.57456,452.89882 c -7.49661,0 -13.89296,2.4862 -19.05574,7.21268 -5.28438,4.72769 -7.83601,10.54014 -7.83601,17.63101 0,4.25531 1.17147,8.2704 3.38374,12.28828 2.33638,3.66352 5.45034,6.56918 9.26072,8.81551 3.93319,2.127 8.59443,3.20564 14.24729,3.20564 6.63804,0 12.66781,-1.43859 18.07623,-4.27419 l 0,-7.39076 c -5.77564,3.54419 -11.69745,5.25367 -17.72005,5.25367 -5.65415,0 -10.31411,-1.58825 -14.24729,-4.89749 -3.68757,-3.54545 -5.60985,-7.91993 -5.60985,-13.00066 0,-5.31815 1.8898,-9.57458 5.6989,-13.00064 3.68751,-3.54547 8.55807,-5.34272 14.33634,-5.34272 5.40714,0 11.14167,1.61853 16.91865,4.80844 l 0,-7.30173 c -6.26827,-2.71751 -12.04317,-4.00704 -17.45293,-4.00704 z"
         inkscape:connector-curvature="0"
         id="path15-8"
         style="fill:#cc0000;fill-opacity:1;fill-rule:evenodd;display:inline;overflow:visible" />
      <path
         d="m 362.03286,453.15209 0,48.1975 17.23267,0 c 3.90162,0 7.20466,-0.60455 9.84726,-1.7984 2.51672,-1.19382 4.35937,-2.73837 5.74419,-4.7658 1.38487,-1.79014 2.00593,-4.05851 2.00593,-6.56424 0,-3.10453 -1.05178,-5.85499 -3.19122,-8.00291 -2.14081,-2.26719 -5.03384,-3.71993 -8.93547,-4.31621 5.28645,-2.14792 7.80675,-5.4768 7.9325,-10.25095 -0.12599,-2.50576 -0.83936,-4.59418 -2.09712,-6.38437 -1.13323,-1.90939 -2.98848,-3.51142 -5.37948,-4.58599 -2.39104,-1.07461 -5.5683,-1.52863 -9.84723,-1.52863 l -13.31203,0 z m 7.29424,6.11462 6.29131,0 c 6.16686,0 9.30017,2.35887 9.30017,7.01382 0,2.14784 -0.82676,4.05276 -2.4618,5.48514 -1.63635,1.31182 -4.43018,1.97827 -8.20605,1.97827 l -4.92363,0 0,-14.47723 z m 0,20.68173 6.83837,0 c 3.52298,0 6.26284,0.27363 8.02369,0.98914 1.63635,0.47832 2.85655,1.47569 3.73829,2.78756 0.75464,0.95656 1.33311,2.19695 1.45886,3.86658 -0.12599,1.55164 -0.52055,2.91444 -1.27648,4.22629 -0.88045,1.19382 -1.98879,2.01141 -3.37361,2.60769 -1.63635,0.47848 -4.4302,0.71939 -8.20604,0.71939 l -7.20308,0 0,-15.19665 z"
         inkscape:connector-curvature="0"
         id="path23-3-7"
         style="fill:#cc0000;fill-opacity:1;fill-rule:evenodd;display:inline;overflow:visible" />
    </g>
  </g>
</svg>
