<?xml version="1.0" encoding="UTF-8" standalone="no"?>
<svg xmlns:rdf="http://www.w3.org/1999/02/22-rdf-syntax-ns#" xmlns="http://www.w3.org/2000/svg" height="230.71" viewBox="0 0 600 230.70549" width="600" version="1.1" xmlns:cc="http://creativecommons.org/ns#" xmlns:dc="http://purl.org/dc/elements/1.1/">
 <g fill="#fff">
  <path d="m0.02652 4.4417s-0.02652 68.042-0.02652 98.958c0 30.92 25.555 59.99 61.691 59.99 36.14 0 61.659-30.93 61.659-62.27 0-31.327-24.883-61.395-61.682-61.395s-52.762 29.045-52.762 29.045h0.0001v-64.328c0-2.4523-1.9859-4.442-4.4417-4.442-2.452 0-4.4379 1.9897-4.4379 4.4417m9.0615 96.698c0-29.126 23.478-52.74 52.455-52.74 28.962 0 52.447 23.614 52.447 52.74 0 29.13-23.485 52.74-52.447 52.74-28.977 0-52.455-23.61-52.455-52.74"/>
  <path d="m129.03 101.28c0 34.15 27.68 61.83 61.82 61.83 22.24 0 41.73-11.74 52.63-29.36 1.41-2.1 0.78-4.97-1.33-6.39-2.12-1.41-5-0.83-6.41 1.28-9.23 15.1-25.89 25.19-44.89 25.19-29.02 0-52.55-23.52-52.55-52.55 0-29.023 23.53-52.558 52.55-52.558 27.41 0 49.91 20.973 52.34 47.744l-61.21-0.004c-2.58 0-4.62 2.092-4.62 4.668 0 2.57 2.09 4.67 4.67 4.67h65.98c3.48 0 4.68-2.45 4.68-4.52 0-34.147-27.69-61.832-61.84-61.832-34.14 0-61.82 27.685-61.82 61.832"/>
  <path d="m270.4 39.38h0.03-0.03zc-5.99 0.015-10.54 4.726-10.86 8.99v107.22c0.32 4.27 4.87 8.99 10.86 9 6-0.01 10.54-4.73 10.87-9v-107.22c-0.33-4.264-4.87-8.975-10.87-8.99m-0.02 0h0.02-0.02zm0.02 125.21h0.03-0.03m-0.02 0h0.02-0.02"/>
  <path d="m451.67 39.475h0.02-0.02zc-5.9 0.007-10.35 4.718-10.68 8.917v78.998c0 2.9-1.79 10.03-8.61 13.27-14.68 6.99-22.23-6.42-22.23-6.42l-48.91-76.93c-5.64-9.812-23.08-23.861-46.8-15.038-22.86 9.387-23.14 33.176-23.14 33.176v80.142c0.33 4.27 4.87 8.49 10.86 8.5 5.99-0.01 10.59-4.8 10.59-9.73v-76.725s-1.09-15.137 16.31-16.695c10.16-0.595 15.17 9.945 15.17 9.945s44.51 70.205 49.03 77.195c4.52 6.98 22.79 22.7 46.51 13.05 24.01-9.77 22.58-33.81 22.58-33.81l0.02-78.973c-0.33-4.196-4.8-8.865-10.7-8.872m-0.02 0h0.02-0.02zm-149.49 124.62h0.03-0.03zm-0.02 0h0.02-0.02z"/>
  <path d="m236.52 190.92 0.04 36.51c0 1.76 1.42 3.17 3.17 3.17s3.18-1.41 3.18-3.17v-16.06h14.02c11.3 0 20.46-9.17 20.46-20.47s-9.16-20.48-20.46-20.48c-12.51 0-20.41 8.82-20.41 20.5m6.35-0.03c0-8.18 5.24-14.34 14-14.34 7.9 0 14.31 6.41 14.31 14.32 0 7.92-6.41 14.27-14.31 14.27h-13.97l-0.03-14.25z"/>
  <path d="m278.51 200.5c0 16.66 13.56 30.21 30.22 30.21 16.65 0 30.21-13.55 30.21-30.21s-13.56-30.21-30.21-30.21c-16.66 0-30.22 13.55-30.22 30.21m6.78 0c0-12.93 10.52-23.43 23.44-23.43s23.43 10.5 23.43 23.43c0 12.92-10.51 23.43-23.43 23.43s-23.44-10.51-23.44-23.43"/>
  <path d="m384.7 172.57c-1.86 0-3.38 1.46-3.38 3.25 0 1.8 1.52 3.25 3.38 3.25h13.42v47.79c0 1.85 1.45 3.33 3.25 3.33 1.79 0 3.24-1.48 3.24-3.33v-47.79h13.24c1.87 0 3.39-1.45 3.39-3.25 0-1.79-1.52-3.25-3.39-3.25h-33.15z"/>
  <path d="m210.58 170.32c-16.23 0-19.72 11.93-19.72 18.08 0 6.14 4.9 14.39 19.86 14.39 14.97 0 14.33 8.89 14.33 9.25 0 0.35 0.81 11.65-14.29 11.61-12.36-0.04-13.83-9.5-13.66-12.42 0-1.71-1.4-3.05-3.11-3.05-1.72 0-3.12 1.34-3.12 3.05-0.27 10.36 7.9 18.66 19.78 18.66 14.89 0 20.68-9.17 20.68-17.78s-6.81-15.6-20.64-15.6c-13.84 0-13.69-7.94-13.69-7.94s-0.88-12.14 13.72-12.14c14.62 0 13.49 13.21 13.49 13.21 0 1.69 1.38 3.04 3.07 3.04 1.7 0 3.07-1.35 3.07-3.04 0-18.94-18.2-19.32-19.67-19.32h-0.1"/>
  <path d="m341.97 190.92 0.03 36.51c0 1.76 1.42 3.17 3.18 3.17s3.17-1.41 3.17-3.17v-16.06h13.76l10.69 17.45c0.88 1.54 2.85 2.08 4.39 1.2 1.54-0.89 2.08-2.85 1.2-4.4l-9.37-15.38c8.03-2.76 13.81-10.36 13.81-19.34 0-11.3-9.15-20.48-20.45-20.48-12.51 0-20.41 8.82-20.41 20.5m6.35-0.03c0-8.18 5.23-14.34 13.99-14.34 7.91 0 14.32 6.41 14.32 14.32 0 7.92-6.41 14.27-14.32 14.27h-13.96l-0.03-14.25z"/>
  <path d="m455.11 190.05s1.12-13.21-13.49-13.21c-14.6 0-13.72 12.13-13.72 12.13s-0.15 7.94 13.68 7.94c13.84 0 20.65 7 20.65 15.61 0 8.6-5.79 17.78-20.68 17.78-11.88 0-20.06-8.31-19.79-18.66 0-1.71 1.41-3.06 3.12-3.06 1.72 0 3.11 1.35 3.11 3.06-0.16 2.92 1.3 12.38 13.67 12.42 15.1 0.04 14.29-11.27 14.29-11.62s0.63-9.24-14.33-9.24-19.86-8.26-19.86-14.4 3.49-18.07 19.72-18.07c0 0 19.76-0.42 19.76 19.32 0 1.69-1.37 3.04-3.06 3.04s-3.07-1.35-3.07-3.04"/>
  <path d="m484.91 39.559c-9.2 0-9.3 9.025-9.3 9.025l-0.07 74.006c0 45.02 39.34 41.53 39.34 41.53h77.61c7.89 0 7.51-8.44 7.51-8.44v-107.66c0-7.998-7.81-8.461-7.81-8.461h-107.28zm29.3 13.338h41.19c1.71 0 3.25 0.19 4.66 0.515 1.87 0.298 3.58 1.083 4.94 2.248 1.92 1.518 3.63 4.798 3.68 8.076 0.05 2.493-0.62 4.281-1.81 5.879h0.02l-13.73 17.534c9.59 5.094 16.09 15.201 16.09 26.831 0 16.8-13.6 30.43-30.4 30.43-15.75 0-28.67-11.95-30.25-27.26h15.15c1.47 7.02 7.67 12.27 15.1 12.27 8.51 0 15.41-6.91 15.41-15.44 0-8.46-6.04-14.204-15.22-15.423-4.34 0-7.84-3.524-7.84-7.832 0-1.897 0.68-3.657 1.82-5.012l13.85-17.641h-29.08l-3.58-15.175z"/>
 </g>
</svg>
