<?xml version="1.0" encoding="UTF-8" standalone="no"?>
<svg
   xmlns:dc="http://purl.org/dc/elements/1.1/"
   xmlns:cc="http://creativecommons.org/ns#"
   xmlns:rdf="http://www.w3.org/1999/02/22-rdf-syntax-ns#"
   xmlns:svg="http://www.w3.org/2000/svg"
   xmlns="http://www.w3.org/2000/svg"
   xmlns:sodipodi="http://sodipodi.sourceforge.net/DTD/sodipodi-0.dtd"
   xmlns:inkscape="http://www.inkscape.org/namespaces/inkscape"
   height="65.108337mm"
   width="169.33334mm"
   version="1.1"
   viewBox="0 0 600.01182 230.6992"
   id="svg2"
   inkscape:version="0.91 r"
   sodipodi:docname="beinsports2.svg">
  <metadata
     id="metadata104">
    <rdf:RDF>
      <cc:Work
         rdf:about="">
        <dc:format>image/svg+xml</dc:format>
        <dc:type
           rdf:resource="http://purl.org/dc/dcmitype/StillImage" />
        <dc:title></dc:title>
      </cc:Work>
    </rdf:RDF>
  </metadata>
  <sodipodi:namedview
     pagecolor="#ffffff"
     bordercolor="#666666"
     borderopacity="1"
     objecttolerance="10"
     gridtolerance="10"
     guidetolerance="10"
     inkscape:pageopacity="0"
     inkscape:pageshadow="2"
     inkscape:window-width="1680"
     inkscape:window-height="1000"
     id="namedview102"
     showgrid="false"
     fit-margin-top="0"
     fit-margin-left="0"
     fit-margin-right="0"
     fit-margin-bottom="0"
     inkscape:zoom="0.52167693"
     inkscape:cx="-361.33035"
     inkscape:cy="115.34687"
     inkscape:window-x="0"
     inkscape:window-y="0"
     inkscape:window-maximized="1"
     inkscape:current-layer="svg2" />
  <defs
     id="defs4">
    <linearGradient
       id="i"
       gradientUnits="userSpaceOnUse"
       gradientTransform="matrix(135.24198,-103.59152,103.59152,135.24198,120.41177,22.098241)"
       x1="0"
       x2="1"
       y1="0"
       y2="0">
      <stop
         stop-color="#190031"
         offset="0"
         id="stop7" />
      <stop
         stop-color="#190031"
         offset=".0060577"
         id="stop9" />
      <stop
         stop-color="#5c2d91"
         offset="1"
         id="stop11" />
    </linearGradient>
    <linearGradient
       id="h"
       gradientUnits="userSpaceOnUse"
       gradientTransform="matrix(135.24198,-103.59152,103.59152,135.24198,184.70271,105.99946)"
       x1="0"
       x2="1"
       y1="0"
       y2="0">
      <stop
         stop-color="#190031"
         offset="0"
         id="stop14" />
      <stop
         stop-color="#190031"
         offset=".0060577"
         id="stop16" />
      <stop
         stop-color="#5c2d91"
         offset="1"
         id="stop18" />
    </linearGradient>
    <linearGradient
       id="g"
       gradientUnits="userSpaceOnUse"
       gradientTransform="matrix(135.24198,-103.59152,103.59152,135.24198,214.46315,144.80003)"
       x1="0"
       x2="1"
       y1="0"
       y2="0">
      <stop
         stop-color="#190031"
         offset="0"
         id="stop21" />
      <stop
         stop-color="#190031"
         offset=".0060577"
         id="stop23" />
      <stop
         stop-color="#5c2d91"
         offset="1"
         id="stop25" />
    </linearGradient>
    <linearGradient
       id="f"
       gradientUnits="userSpaceOnUse"
       gradientTransform="matrix(135.24198,-103.59152,103.59152,135.24198,253.80372,196.20078)"
       x1="0"
       x2="1"
       y1="0"
       y2="0">
      <stop
         stop-color="#190031"
         offset="0"
         id="stop28" />
      <stop
         stop-color="#190031"
         offset=".0060577"
         id="stop30" />
      <stop
         stop-color="#5c2d91"
         offset="1"
         id="stop32" />
    </linearGradient>
    <linearGradient
       id="e"
       gradientUnits="userSpaceOnUse"
       gradientTransform="matrix(135.24198,-103.59152,103.59152,135.24198,227.09333,214.30105)"
       x1="0"
       x2="1"
       y1="0"
       y2="0">
      <stop
         stop-color="#190031"
         offset="0"
         id="stop35" />
      <stop
         stop-color="#190031"
         offset=".0060577"
         id="stop37" />
      <stop
         stop-color="#5c2d91"
         offset="1"
         id="stop39" />
    </linearGradient>
    <linearGradient
       id="d"
       gradientUnits="userSpaceOnUse"
       gradientTransform="matrix(135.24198,-103.59152,103.59152,135.24198,250.61368,245.0015)"
       x1="0"
       x2="1"
       y1="0"
       y2="0">
      <stop
         stop-color="#190031"
         offset="0"
         id="stop42" />
      <stop
         stop-color="#190031"
         offset=".0060577"
         id="stop44" />
      <stop
         stop-color="#5c2d91"
         offset="1"
         id="stop46" />
    </linearGradient>
    <linearGradient
       id="c"
       gradientUnits="userSpaceOnUse"
       gradientTransform="matrix(135.24198,-103.59152,103.59152,135.24198,282.20414,286.2021)"
       x1="0"
       x2="1"
       y1="0"
       y2="0">
      <stop
         stop-color="#190031"
         offset="0"
         id="stop49" />
      <stop
         stop-color="#190031"
         offset=".0060577"
         id="stop51" />
      <stop
         stop-color="#5c2d91"
         offset="1"
         id="stop53" />
    </linearGradient>
    <linearGradient
       id="b"
       gradientUnits="userSpaceOnUse"
       gradientTransform="matrix(135.24198,-103.59152,103.59152,135.24198,214.29314,197.60081)"
       x1="0"
       x2="1"
       y1="0"
       y2="0">
      <stop
         stop-color="#190031"
         offset="0"
         id="stop56" />
      <stop
         stop-color="#190031"
         offset=".0060577"
         id="stop58" />
      <stop
         stop-color="#5c2d91"
         offset="1"
         id="stop60" />
    </linearGradient>
    <linearGradient
       id="a"
       gradientUnits="userSpaceOnUse"
       gradientTransform="matrix(135.24198,-103.59152,103.59152,135.24198,271.67398,272.5019)"
       x1="0"
       x2="1"
       y1="0"
       y2="0">
      <stop
         stop-color="#190031"
         offset="0"
         id="stop63" />
      <stop
         stop-color="#190031"
         offset=".0060577"
         id="stop65" />
      <stop
         stop-color="#5c2d91"
         offset="1"
         id="stop67" />
    </linearGradient>
    <linearGradient
       id="j"
       gradientUnits="userSpaceOnUse"
       gradientTransform="matrix(133.22195,-76.91413,76.914126,133.22196,475.82697,137.99994)"
       x1="0"
       x2="1"
       y1="0"
       y2="0">
      <stop
         stop-color="#643e95"
         offset="0"
         id="stop70" />
      <stop
         stop-color="#643e95"
         offset=".48543"
         id="stop72" />
      <stop
         stop-color="#342d40"
         offset="1"
         id="stop74" />
    </linearGradient>
  </defs>
  <path
     inkscape:connector-curvature="0"
     style="fill:url(#i)"
     id="path78"
     d="M 0.03000044,4.3979816 C 0.03000044,4.3979816 0,72.498979 0,103.39942 0,134.29988 25.560375,163.4003 61.690904,163.4003 97.831434,163.4003 123.36181,132.39985 123.36181,101.09939 123.36181,69.79894 98.471443,39.698499 61.670904,39.698499 24.870365,39.698499 8.9101305,68.798925 8.9101305,68.798925 L 8.9101305,4.3979816 C 8.9101305,1.9979464 6.9201014,-0.00208287 4.4700655,-0.00208287 2.0200296,-0.00208287 0.03000044,1.9979464 0.03000044,4.3979816 M 9.0901332,101.09939 C 9.0901332,71.998972 32.570478,48.398626 61.550902,48.398626 90.511327,48.398626 114.00167,71.998972 114.00167,101.09939 114.00167,130.29982 90.511327,153.90016 61.550902,153.90016 32.570478,153.90016 9.0901332,130.29982 9.0901332,101.09939" />
  <path
     inkscape:connector-curvature="0"
     style="fill:url(#h)"
     id="path80"
     d="M 129.03189,101.29939 C 129.03189,135.39989 156.7223,163.1003 190.8528,163.1003 213.09313,163.1003 232.58341,151.40013 243.48357,133.69987 244.89359,131.59984 244.26358,128.7998 242.15355,127.39978 240.03352,125.89975 237.15348,126.49976 235.74346,128.59979 226.51332,143.70002 209.85308,153.80016 190.8528,153.80016 161.83238,153.80016 138.30203,130.29982 138.30203,101.29939 138.30203,72.198975 161.83238,48.69863 190.8528,48.69863 218.2632,48.69863 240.76353,69.698938 243.20357,96.499331 L 181.99267,96.499331 C 179.41263,96.499331 177.3626,98.49936 177.3626,101.09939 177.3626,103.69943 179.45263,105.79946 182.03267,105.79946 L 248.01364,105.79946 C 251.49369,105.79946 252.69371,103.29942 252.69371,101.29939 252.69371,67.0989 225.0033,39.398494 190.8528,39.398494 156.7223,39.398494 129.03189,67.0989 129.03189,101.29939" />
  <path
     inkscape:connector-curvature="0"
     style="fill:url(#g)"
     id="path82"
     d="M 270.40397,39.398494 270.43397,39.398494 270.40397,39.398494 Z M 270.40397,39.398494 C 264.41388,39.398494 259.87381,44.098563 259.54381,48.398626 L 259.54381,155.60019 C 259.87381,159.90025 264.41388,164.60032 270.40397,164.60032 276.40405,164.60032 280.94412,159.90025 281.27413,155.60019 L 281.27413,48.398626 C 280.94412,44.098563 276.40405,39.398494 270.40397,39.398494 M 270.38397,39.398494 270.40397,39.398494 270.38397,39.398494 Z M 270.40397,164.60032 270.43397,164.60032 270.40397,164.60032 M 270.38397,164.60032 270.40397,164.60032 270.38397,164.60032" />
  <path
     inkscape:connector-curvature="0"
     style="fill:url(#f)"
     id="path84"
     d="M 451.68662,39.498496 451.70662,39.498496 451.68662,39.498496 Z M 451.68662,39.498496 C 445.77654,39.498496 441.32647,44.198565 440.99647,48.398626 L 440.99647,127.39978 C 440.99647,130.29982 439.20644,137.39992 432.38634,140.69997 417.71612,147.60007 410.15601,134.19988 410.15601,134.19988 L 361.2453,57.298756 C 355.60521,47.498613 338.16496,33.398406 314.44461,42.298537 291.58428,51.598673 291.30427,75.399022 291.30427,75.399022 L 291.30427,155.60019 C 291.63428,159.90025 296.17434,164.10031 302.16443,164.10031 308.15452,164.10031 312.75459,159.30024 312.75459,154.30017 L 312.75459,77.599054 C 312.75459,77.599054 311.66457,62.498833 329.06483,60.898809 339.22497,60.2988 344.23505,70.898956 344.23505,70.898956 344.23505,70.898956 388.7457,141.09998 393.26577,148.10008 397.78583,155.10018 416.0561,170.80041 439.78645,161.10027 463.7868,151.30013 462.36678,127.29978 462.36678,127.29978 L 462.37678,48.298625 C 462.04677,44.098563 457.57671,39.498496 451.68662,39.498496 M 451.65662,39.498496 451.68662,39.498496 451.65662,39.498496 Z M 302.16443,164.10031 302.19443,164.10031 302.16443,164.10031 Z M 302.14443,164.10031 302.16443,164.10031 302.14443,164.10031 Z" />
  <path
     inkscape:connector-curvature="0"
     style="fill:url(#e)"
     id="path86"
     d="M 236.53347,190.90071 236.56347,227.40124 C 236.56347,229.20127 237.98349,230.60129 239.73352,230.60129 241.49354,230.60129 242.91356,229.20127 242.91356,227.40124 L 242.91356,211.40101 256.94377,211.40101 C 268.23393,211.40101 277.39407,202.20087 277.39407,190.90071 277.39407,179.60054 268.23393,170.40041 256.94377,170.40041 244.43359,170.40041 236.53347,179.20054 236.53347,190.90071 M 242.88356,190.90071 C 242.88356,182.70059 248.11364,176.5005 256.87377,176.5005 264.77388,176.5005 271.18398,183.00059 271.18398,190.90071 271.18398,198.80082 264.77388,205.10091 256.87377,205.10091 L 242.91356,205.10091 242.88356,190.90071 Z" />
  <path
     inkscape:connector-curvature="0"
     style="fill:url(#d)"
     id="path88"
     d="M 278.52409,200.50085 C 278.52409,217.10109 292.07428,230.70129 308.73453,230.70129 325.39477,230.70129 338.94497,217.10109 338.94497,200.50085 338.94497,183.8006 325.39477,170.30041 308.73453,170.30041 292.07428,170.30041 278.52409,183.8006 278.52409,200.50085 M 285.30418,200.50085 C 285.30418,187.60066 295.81434,177.1005 308.73453,177.1005 321.65472,177.1005 332.16487,187.60066 332.16487,200.50085 332.16487,213.40104 321.65472,223.90119 308.73453,223.90119 295.81434,223.90119 285.30418,213.40104 285.30418,200.50085" />
  <path
     inkscape:connector-curvature="0"
     style="fill:url(#c)"
     id="path90"
     d="M 384.71564,172.60044 C 382.84561,172.60044 381.32559,174.00046 381.32559,175.80049 381.32559,177.60051 382.84561,179.10053 384.71564,179.10053 L 398.12584,179.10053 398.12584,226.90123 C 398.12584,228.70126 399.57586,230.20128 401.37589,230.20128 403.16591,230.20128 404.61593,228.70126 404.61593,226.90123 L 404.61593,179.10053 417.86613,179.10053 C 419.73615,179.10053 421.24618,177.60051 421.24618,175.80049 421.24618,174.00046 419.73615,172.60044 417.86613,172.60044 L 384.71564,172.60044 Z" />
  <path
     inkscape:connector-curvature="0"
     style="fill:url(#b)"
     id="path92"
     d="M 210.58309,170.30041 C 194.35285,170.30041 190.8628,182.20058 190.8628,188.40067 190.8628,194.50076 195.77287,202.80088 210.72309,202.80088 225.69331,202.80088 225.0533,211.70101 225.0533,212.00102 225.0533,212.40102 225.86331,223.70119 210.76309,223.60119 198.40291,223.60119 196.93289,214.10105 197.10289,211.201 197.10289,209.50098 195.70287,208.20096 193.99285,208.20096 192.27282,208.20096 190.8728,209.50098 190.8728,211.201 190.6028,221.60116 198.77292,229.90128 210.66309,229.90128 225.55331,229.90128 231.34339,220.70114 231.34339,212.10102 231.34339,203.50089 224.52329,196.50079 210.69309,196.50079 196.85289,196.50079 197.00289,188.60067 197.00289,188.60067 197.00289,188.60067 196.12288,176.40049 210.72309,176.40049 225.34331,176.40049 224.22329,189.60069 224.22329,189.60069 224.22329,191.30071 225.60331,192.70073 227.29333,192.70073 228.98336,192.70073 230.35338,191.30071 230.35338,189.60069 230.35338,170.70041 212.15311,170.30041 210.68309,170.30041 L 210.58309,170.30041" />
  <path
     inkscape:connector-curvature="0"
     style="fill:url(#a)"
     id="path94"
     d="M 341.97501,190.90071 342.00502,227.40124 C 342.00502,229.20127 343.42504,230.60129 345.18506,230.60129 346.94509,230.60129 348.36511,229.20127 348.36511,227.40124 L 348.36511,211.40101 362.11531,211.40101 372.81547,228.80126 C 373.69548,230.40129 375.65551,230.90129 377.20553,230.00128 378.73555,229.10127 379.27556,227.20124 378.39555,225.60122 L 369.02541,210.20099 C 377.05553,207.50095 382.83561,199.90084 382.83561,190.90071 382.83561,179.60054 373.68548,170.40041 362.39531,170.40041 349.87513,170.40041 341.97501,179.20054 341.97501,190.90071 M 348.32511,190.90071 C 348.32511,182.70059 353.55518,176.5005 362.31531,176.5005 370.22543,176.5005 376.63552,183.00059 376.63552,190.90071 376.63552,198.80082 370.22543,205.10091 362.31531,205.10091 L 348.35511,205.10091 348.32511,190.90071 Z" />
  <path
     style="fill:#512c80"
     inkscape:connector-curvature="0"
     id="path96"
     d="M 455.11667,190.00069 C 455.11667,190.00069 456.23669,176.8005 441.62647,176.8005 427.02626,176.8005 427.90627,189.00068 427.90627,189.00068 427.90627,189.00068 427.75627,196.90079 441.59647,196.90079 455.42668,196.90079 462.23678,203.9009 462.23678,212.50102 462.23678,221.10115 456.44669,230.30128 441.55647,230.30128 429.6763,230.30128 421.50618,222.00116 421.77618,211.60101 421.77618,209.90099 423.1762,208.60097 424.88623,208.60097 426.60625,208.60097 428.00628,209.90099 428.00628,211.60101 427.83627,214.50105 429.30629,224.00119 441.66648,224.00119 456.7667,224.10119 455.95668,212.80103 455.95668,212.40102 455.95668,212.10102 456.59669,203.20089 441.62647,203.20089 426.66626,203.20089 421.76618,194.90077 421.76618,188.80068 421.76618,182.60059 425.25624,170.70041 441.48647,170.70041 441.48647,170.70041 461.24676,170.30041 461.24676,190.00069 461.24676,191.70072 459.88674,193.10074 458.18672,193.10074 456.49669,193.10074 455.11667,191.70072 455.11667,190.00069" />
  <path
     style="fill:url(#j)"
     d="M 484.917,39.499148 C 475.71687,39.499148 475.61785,48.599069 475.61785,48.599068 L 475.55731,122.59964 C 475.55731,167.60031 514.88678,164.10107 514.88678,164.10107 L 592.49882,164.10107 C 600.38893,164.10107 600.00884,155.70039 600.00884,155.70039 L 600.00884,47.999439 C 600.00884,39.999322 592.20779,39.499148 592.20779,39.499148 L 484.917,39.499148 Z M 539.60833,52.898045 C 557.9986,52.898045 570.7676,65.799588 570.7676,82.199829 570.7676,88.599923 567.41916,97.299227 565.02913,99.999267 562.62908,102.6993 561.2987,106.59877 530.09824,129.79911 L 570.0293,129.79911 570.0293,144.39922 519.03731,144.39922 C 519.03731,144.39922 507.10721,143.79938 507.10721,133.29923 507.10721,127.79915 512.91796,123.69929 512.91796,123.69929 520.90808,118.09921 548.2971,96.099481 550.25713,93.899449 552.20716,91.699417 555.06785,87.099911 555.06785,82.699846 555.06785,74.299723 548.75846,67.498154 539.60833,67.498154 530.47819,67.498154 524.18788,74.299723 524.18788,82.699846 524.18788,89.399945 528.24682,95.098747 534.5769,97.098777 L 521.0784,106.69871 C 512.28827,100.49862 508.64805,92.49999 508.40804,82.699846 508.03804,66.099602 522.42808,52.898045 539.60833,52.898045 Z"
     id="path98"
     inkscape:connector-curvature="0" />
</svg>
