<?xml version="1.0" encoding="UTF-8" standalone="no"?>
<svg xmlns:rdf="http://www.w3.org/1999/02/22-rdf-syntax-ns#" xmlns="http://www.w3.org/2000/svg" xmlns:cc="http://creativecommons.org/ns#" xmlns:dc="http://purl.org/dc/elements/1.1/" height="227.7" width="600" version="1.1" viewBox="0 0 158.75 60.243745">
  <defs>
    <linearGradient id="f" gradientUnits="userSpaceOnUse" gradientTransform="matrix(-2.9609 -37.273 -37.273 2.9609 71.674 36.342)" x1="0" x2="1" y1="0" y2="0">
      <stop stop-color="#d79631" offset="0"/>
      <stop stop-color="#ffef2e" offset=".5"/>
      <stop stop-color="#d79631" offset="1"/>
    </linearGradient>
    <radialGradient id="h" gradientUnits="userSpaceOnUse" cy="0" cx="0" gradientTransform="matrix(-1.2213 -14.468 -14.455 1.2202 95.663 35.791)" r="1">
      <stop stop-color="#d79631" offset="0"/>
      <stop stop-color="#ffef2e" offset=".5"/>
      <stop stop-color="#d79631" offset="1"/>
    </radialGradient>
    <radialGradient id="i" gradientUnits="userSpaceOnUse" cy="0" cx="0" gradientTransform="matrix(-7.1525 -20.741 -20.722 7.1463 90.566 41.209)" r="1">
      <stop stop-color="#d79631" offset="0"/>
      <stop stop-color="#ffef2e" offset=".5"/>
      <stop stop-color="#d79631" offset="1"/>
    </radialGradient>
    <radialGradient id="j" gradientUnits="userSpaceOnUse" cy="0" cx="0" gradientTransform="matrix(-3.1367 -35.17 -35.138 3.1339 80.299 41.49)" r="1">
      <stop stop-color="#d79631" offset="0"/>
      <stop stop-color="#ffef2e" offset=".5"/>
      <stop stop-color="#d79631" offset="1"/>
    </radialGradient>
    <linearGradient id="g" gradientUnits="userSpaceOnUse" gradientTransform="matrix(-11.088 25.828 25.828 11.088 95.393 2.948)" x1="0" x2="1" y1="0" y2="0">
      <stop stop-color="#d79631" offset="0"/>
      <stop stop-color="#ffef2e" offset=".5"/>
      <stop stop-color="#d79631" offset="1"/>
    </linearGradient>
  </defs>
  <g stroke-width=".51999">
    <path d="m79.374-0.00033568c-10.823 0-19.606 8.7515-19.606 19.583 0 8.002 4.787 14.861 11.651 17.914-1.758-2.106-3.169-4.758-4.059-8.034-0.931-3.417-0.705-6.324-0.185-8.976 1.278-6.479 4.978-11.621 8.725-16.587 0.566-0.744 1.092-1.446 1.769-2.1792 0.693-0.76954 1.717-1.7211 1.722-1.7211z" fill="url(#f)"/>
    <path d="m88.041 23.061 0.017 0.078s2.73 7.525 4.1 11.29c2.237-1.924 4.035-4.348 5.221-7.098-0.764-1.326-1.787-2.361-3.03-3.094-1.284-0.76-2.873-1.316-4.718-1.316-0.509 0-1.041 0.042-1.59 0.14" fill="url(#h)"/>
    <path d="m82.803 26.504c-0.792 1.222-1.295 2.725-1.243 4.446 0.057 2.064 1 3.666 2.029 4.711 0.775 0.801 1.746 1.352 2.868 1.659 0.231 0.062 0.514 0.156 0.734 0.229 1.237-0.541 2.411-1.207 3.504-1.976-1.446-4.02-2.891-8.034-4.348-12.038-1.7 0.691-2.735 1.71-3.544 2.969" fill="url(#i)"/>
    <path d="m79.207 11.466c-2.891 4.024-6.06 7.987-7.314 13.072-0.503 2.044-0.804 4.373-0.353 6.901 0.503 2.792 1.55 4.846 2.949 6.499 0.236 0.271 0.479 0.531 0.734 0.791 1.335 0.291 2.729 0.447 4.157 0.447 2.052 0 4.036-0.317 5.897-0.915-1.451-0.25-2.665-0.946-3.636-1.768-1.503-1.274-2.932-3.312-3.487-5.845-0.67-3.089 0-5.761 1.012-7.847 1.064-2.194 2.637-3.946 5.013-5.278-1.035-2.833-2.035-5.719-3.093-8.5222-0.561 0.728-1.284 1.6332-1.879 2.4652" fill="url(#j)"/>
    <path d="m82.93 6.3644c-0.179 0.2548-0.619 0.962-0.619 0.962s0.307 0.832 0.446 1.2012c1.029 2.8704 1.936 5.3874 3.012 8.2994 4.053-1.212 7.32-0.479 9.91 1.06 1.197 0.708 2.341 1.696 3.266 2.834 0.018-0.39 0.035-0.774 0.035-1.159 0-8.362-5.238-15.512-12.615-18.325 0 0.0003-0.006 0.0003-0.006-0.0049-0.972 1.7211-2.25 3.4891-3.429 5.1323" fill="url(#g)"/>
  </g>
  <g stroke-width=".14696">
    <path d="m11.667 54.669c0 1.443-0.51 2.717-1.531 3.823-1.0202 1.105-2.2017 1.658-3.5439 1.658-0.7458 0-1.468-0.157-2.1665-0.47-0.4789-0.22-0.9029-0.33-1.2716-0.33-0.5889 0-0.9774 0.251-1.1657 0.753-0.0393 0.094-0.1375 0.141-0.2945 0.141-0.2041 0-0.3061-0.063-0.3061-0.188 0.0628-0.658 0.0942-1.449 0.0942-2.374v-11.459c0-0.634-0.0805-1.049-0.2411-1.245-0.161-0.196-0.51159-0.321-1.0527-0.376-0.1255 0-0.1881-0.096-0.1881-0.288 0-0.224 0.062456-0.336 0.18751-0.336 1.3913-0.36 2.38-0.776 2.9665-1.246 0.1173-0.095 0.2149-0.142 0.2931-0.142 0.2186 0 0.3281 0.063 0.3281 0.189-0.1255 1.709-0.1881 3.081-0.1881 4.116v3.517c0.7391-0.737 1.6434-1.106 2.713-1.106 1.5961 0 2.8898 0.482 3.8809 1.447 0.991 0.964 1.486 2.27 1.486 3.916zm-2.3757 0.1c0-1.444-0.2869-2.575-0.8604-3.391-0.5735-0.817-1.3788-1.225-2.4159-1.225-0.558 0-1.1019 0.21-1.6323 0.629-0.5302 0.419-0.7955 0.837-0.7955 1.252v5.443c0 0.416 0.316 0.838 0.9487 1.266 0.6325 0.428 1.2199 0.642 1.7618 0.642 0.9428 0 1.6776-0.42 2.204-1.26s0.7896-1.958 0.7896-3.356z"/>
    <path d="m20.593 50.459c0 0.313-0.096 0.58-0.288 0.799-0.192 0.22-0.425 0.33-0.7 0.33-0.345 0-0.686-0.114-1.023-0.341-0.266-0.181-0.498-0.271-0.694-0.271-0.51 0-1.035 0.298-1.576 0.894v5.292c0 0.683 0.118 1.159 0.353 1.429 0.235 0.271 0.737 0.457 1.505 0.559 0.126 0.016 0.188 0.122 0.188 0.318 0 0.219-0.062 0.329-0.188 0.329-0.321 0-0.776-0.023-1.364-0.07-0.649-0.047-1.164-0.071-1.546-0.071-0.39 0-0.863 0.024-1.418 0.071-0.502 0.047-0.913 0.07-1.235 0.07-0.125 0-0.188-0.11-0.188-0.329 0-0.196 0.063-0.302 0.188-0.318 0.683-0.086 1.12-0.246 1.312-0.481s0.288-0.736 0.288-1.504v-4.345c0-0.626-0.081-1.037-0.241-1.233-0.161-0.196-0.52-0.325-1.076-0.387-0.126 0-0.189-0.104-0.189-0.312 0-0.192 0.063-0.288 0.189-0.288 0.776-0.196 1.416-0.414 1.919-0.653s0.833-0.445 0.989-0.617c0.094-0.095 0.187-0.142 0.281-0.142 0.218 0 0.327 0.063 0.327 0.189l-0.094 1.481c0.627-0.58 1.167-0.988 1.617-1.223 0.451-0.235 0.9-0.352 1.347-0.352 0.361 0 0.67 0.117 0.929 0.352s0.388 0.51 0.388 0.824z"/>
    <path d="m28.722 60.056c-0.437 0-0.817-0.108-1.141-0.324-0.323-0.215-0.543-0.507-0.66-0.876-0.839 0.863-1.937 1.294-3.293 1.294-0.706 0-1.282-0.218-1.729-0.653s-0.671-0.978-0.671-1.629c0-1.607 1.906-2.909 5.717-3.904l0.07-1.835v-0.059c0-0.564-0.139-1.013-0.418-1.346-0.278-0.334-0.648-0.5-1.111-0.5s-0.855 0.111-1.176 0.335c-0.322 0.223-0.486 0.504-0.494 0.841-0.008 0.502-0.139 0.894-0.394 1.176s-0.594 0.423-1.017 0.423c-0.251 0-0.455-0.074-0.612-0.223s-0.235-0.349-0.235-0.6c0-0.604 0.549-1.237 1.646-1.899 1.098-0.663 2.117-0.994 3.058-0.994 0.847 0 1.533 0.251 2.059 0.752 0.525 0.502 0.788 1.177 0.788 2.023v0.142l-0.177 5.316v0.082c0 0.823 0.266 1.235 0.8 1.235 0.259 0 0.56-0.157 0.905-0.471l0.083-0.023c0.063 0 0.121 0.041 0.176 0.124 0.055 0.082 0.083 0.17 0.083 0.264 0 0.228-0.238 0.506-0.712 0.835-0.475 0.329-0.99 0.494-1.545 0.494zm-1.801-5.305c-2.282 0.519-3.423 1.377-3.423 2.572 0 1.116 0.43 1.674 1.289 1.674 0.414 0 0.823-0.104 1.225-0.312s0.674-0.466 0.815-0.773z"/>
    <path d="m41.752 49.982c0 0.201-0.063 0.308-0.188 0.324-0.659 0.071-1.1 0.229-1.324 0.473-0.223 0.244-0.503 0.749-0.84 1.514l-3.376 7.692c-0.055 0.126-0.149 0.188-0.282 0.188-0.141 0-0.239-0.062-0.294-0.188l-3.164-7.692c-0.29-0.721-0.584-1.215-0.882-1.482-0.298-0.266-0.702-0.435-1.211-0.505-0.126-0.016-0.189-0.122-0.189-0.318 0-0.219 0.061-0.329 0.183-0.329 0.312 0 0.699 0.024 1.163 0.071 0.502 0.047 0.936 0.07 1.301 0.07 0.372 0 0.825-0.023 1.357-0.07 0.48-0.047 0.88-0.071 1.202-0.071 0.125 0 0.188 0.11 0.188 0.329 0 0.196-0.063 0.302-0.188 0.318-0.47 0.063-0.794 0.147-0.971 0.253s-0.265 0.26-0.265 0.464c0 0.243 0.114 0.663 0.342 1.259l1.904 4.628 1.952-4.617c0.246-0.588 0.369-1.011 0.369-1.27 0-0.204-0.091-0.359-0.273-0.464-0.182-0.106-0.496-0.19-0.943-0.253-0.125-0.016-0.188-0.122-0.188-0.318 0-0.219 0.063-0.329 0.188-0.329 0.33 0 0.702 0.023 1.118 0.07 0.402 0.047 0.763 0.071 1.083 0.071 0.164 0 0.431-0.02 0.8-0.059 0.509-0.055 0.919-0.082 1.231-0.082 0.131 0 0.197 0.108 0.197 0.323z"/>
    <path d="m49.327 60.056c-0.437 0-0.817-0.108-1.14-0.324-0.324-0.215-0.544-0.507-0.661-0.876-0.839 0.863-1.937 1.294-3.293 1.294-0.706 0-1.282-0.218-1.729-0.653s-0.67-0.978-0.67-1.629c0-1.607 1.905-2.909 5.716-3.904l0.07-1.835v-0.059c0-0.564-0.139-1.013-0.417-1.346-0.279-0.334-0.649-0.5-1.112-0.5-0.462 0-0.854 0.111-1.176 0.335-0.321 0.223-0.486 0.504-0.494 0.841-0.007 0.502-0.139 0.894-0.394 1.176s-0.594 0.423-1.017 0.423c-0.251 0-0.455-0.074-0.612-0.223s-0.235-0.349-0.235-0.6c0-0.604 0.549-1.237 1.647-1.899 1.097-0.663 2.117-0.994 3.058-0.994 0.846 0 1.532 0.251 2.058 0.752 0.525 0.502 0.788 1.177 0.788 2.023v0.142l-0.177 5.316v0.082c0 0.823 0.267 1.235 0.8 1.235 0.259 0 0.561-0.157 0.906-0.471l0.082-0.023c0.063 0 0.122 0.041 0.177 0.124 0.054 0.082 0.082 0.17 0.082 0.264 0 0.228-0.237 0.506-0.712 0.835-0.474 0.329-0.989 0.494-1.545 0.494zm-1.801-5.305c-2.281 0.519-3.422 1.377-3.422 2.572 0 1.116 0.429 1.674 1.289 1.674 0.414 0 0.822-0.104 1.224-0.312 0.403-0.208 0.674-0.466 0.815-0.773z"/>
    <path d="m69.355 59.468c0 0.219-0.063 0.329-0.188 0.329-0.314 0-0.698-0.023-1.153-0.07-0.501-0.047-0.943-0.071-1.326-0.071-0.391 0-0.84 0.024-1.348 0.071-0.461 0.047-0.848 0.07-1.16 0.07-0.126 0-0.188-0.11-0.188-0.329 0-0.196 0.063-0.302 0.188-0.318 0.541-0.063 0.896-0.215 1.064-0.458 0.169-0.243 0.253-0.753 0.253-1.529v-3.929c0-0.878-0.172-1.521-0.517-1.928-0.345-0.408-0.878-0.612-1.6-0.612-0.455 0-0.857 0.086-1.205 0.259-0.349 0.172-0.724 0.478-1.123 0.917v5.293c0 0.776 0.084 1.286 0.252 1.529 0.169 0.243 0.524 0.396 1.065 0.458 0.125 0.016 0.188 0.122 0.188 0.318 0 0.219-0.063 0.329-0.188 0.329-0.322 0-0.714-0.023-1.176-0.07-0.51-0.047-0.957-0.071-1.341-0.071-0.377 0-0.816 0.024-1.317 0.071-0.463 0.047-0.855 0.07-1.177 0.07-0.125 0-0.188-0.11-0.188-0.329 0-0.196 0.063-0.302 0.188-0.318 0.675-0.086 1.11-0.248 1.306-0.487s0.294-0.738 0.294-1.497v-4.345c0-0.627-0.081-1.038-0.241-1.234-0.161-0.195-0.52-0.325-1.076-0.387-0.126 0-0.188-0.104-0.188-0.312 0-0.192 0.062-0.288 0.188-0.288 0.776-0.196 1.423-0.418 1.94-0.664 0.518-0.247 0.843-0.449 0.977-0.606 0.078-0.094 0.164-0.141 0.258-0.141 0.22 0 0.33 0.063 0.33 0.188l-0.094 1.482c1.126-1.051 2.175-1.576 3.146-1.576 1.064 0 1.896 0.305 2.495 0.917 0.598 0.612 0.898 1.435 0.898 2.47v4.493c0 0.768 0.096 1.27 0.288 1.505s0.621 0.396 1.288 0.482c0.125 0.016 0.188 0.122 0.188 0.318z"/>
    <path d="m75.8 59.444c0 0.22-0.063 0.33-0.188 0.33-0.322 0-0.734-0.02-1.235-0.059-0.565-0.04-1.039-0.059-1.423-0.059-0.377 0-0.843 0.02-1.4 0.059-0.502 0.039-0.914 0.059-1.235 0.059-0.125 0-0.188-0.11-0.188-0.33 0-0.196 0.063-0.302 0.188-0.317 0.667-0.079 1.1-0.237 1.3-0.476s0.3-0.742 0.3-1.51v-10.918c0-0.634-0.079-1.049-0.236-1.245s-0.517-0.325-1.081-0.388c-0.126-0.016-0.189-0.116-0.189-0.3 0-0.192 0.063-0.288 0.189-0.288 0.823-0.212 1.497-0.437 2.022-0.677 0.526-0.239 0.855-0.441 0.988-0.605 0.079-0.087 0.165-0.13 0.259-0.13 0.22 0 0.33 0.063 0.33 0.189-0.126 1.756-0.189 3.12-0.189 4.092v10.268c0 0.768 0.098 1.272 0.294 1.511s0.632 0.398 1.306 0.476c0.125 0.016 0.188 0.122 0.188 0.318z"/>
    <path d="m94.606 59.468c0 0.219-0.063 0.329-0.188 0.329-0.314 0-0.718-0.023-1.212-0.07-0.541-0.047-1.004-0.071-1.388-0.071s-0.866 0.024-1.446 0.071c-0.541 0.047-0.969 0.07-1.282 0.07-0.126 0-0.188-0.11-0.188-0.329 0-0.196 0.062-0.302 0.188-0.318 0.204-0.023 0.348-0.063 0.435-0.117 0.086-0.055 0.129-0.161 0.129-0.318 0-0.235-0.376-0.753-1.129-1.552l-1.882-2.094c-0.157-0.157-0.368-0.235-0.635-0.235v2.329c0 0.69 0.084 1.18 0.253 1.47s0.484 0.462 0.947 0.517c0.125 0.016 0.188 0.122 0.188 0.318 0 0.219-0.063 0.329-0.188 0.329-0.337 0-0.776-0.023-1.317-0.07-0.514-0.047-0.92-0.071-1.216-0.071-0.335 0-0.742 0.024-1.219 0.071-0.455 0.047-0.831 0.07-1.129 0.07-0.125 0-0.188-0.11-0.188-0.329 0-0.196 0.063-0.302 0.188-0.318 0.659-0.07 1.086-0.225 1.282-0.464s0.294-0.746 0.294-1.522v-10.917c0-0.635-0.076-1.05-0.229-1.246s-0.508-0.325-1.065-0.388c-0.125-0.016-0.188-0.116-0.188-0.299 0-0.208 0.063-0.312 0.188-0.312 1.338-0.314 2.328-0.73 2.967-1.247 0.117-0.094 0.215-0.141 0.293-0.141 0.218 0 0.327 0.063 0.327 0.188-0.125 1.288-0.188 2.653-0.188 4.097v7.288c0.282 0 0.506-0.075 0.671-0.224l1.752-1.663c0.055-0.055 0.145-0.137 0.27-0.247 0.651-0.594 0.977-1.034 0.977-1.319 0-0.206-0.314-0.349-0.941-0.428-0.126-0.016-0.188-0.123-0.188-0.324 0-0.215 0.063-0.323 0.188-0.323 0.329 0 0.745 0.024 1.247 0.071 0.462 0.047 0.846 0.07 1.152 0.07 0.228 0 0.522-0.019 0.882-0.059 0.439-0.055 0.831-0.082 1.176-0.082 0.126 0 0.189 0.108 0.189 0.323 0 0.201-0.063 0.308-0.189 0.324-0.572 0.063-1.072 0.198-1.499 0.404s-1.006 0.634-1.735 1.283l-2.023 1.793 3.082 3.377c0.65 0.713 1.199 1.203 1.646 1.47 0.447 0.266 1.031 0.439 1.753 0.517 0.125 0.016 0.188 0.122 0.188 0.318z"/>
    <path d="m101.18 59.444c0 0.22-0.06 0.33-0.19 0.33-0.32 0-0.73-0.02-1.233-0.059-0.565-0.04-1.039-0.059-1.423-0.059-0.377 0-0.843 0.02-1.4 0.059-0.502 0.039-0.913 0.059-1.235 0.059-0.125 0-0.188-0.11-0.188-0.33 0-0.196 0.063-0.302 0.188-0.317 0.667-0.079 1.1-0.237 1.3-0.476s0.3-0.742 0.3-1.51v-10.918c0-0.634-0.078-1.049-0.235-1.245s-0.518-0.325-1.082-0.388c-0.126-0.016-0.189-0.116-0.189-0.3 0-0.192 0.063-0.288 0.189-0.288 0.823-0.212 1.497-0.437 2.023-0.677 0.525-0.239 0.854-0.441 0.988-0.605 0.078-0.087 0.164-0.13 0.258-0.13 0.22 0 0.33 0.063 0.33 0.189-0.126 1.756-0.188 3.12-0.188 4.092v10.268c0 0.768 0.097 1.272 0.293 1.511s0.634 0.398 1.304 0.476c0.13 0.016 0.19 0.122 0.19 0.318z"/>
    <path d="m109.43 60.056c-0.44 0-0.82-0.108-1.14-0.324-0.33-0.215-0.55-0.507-0.67-0.876-0.83 0.863-1.93 1.294-3.29 1.294-0.7 0-1.28-0.218-1.73-0.653-0.44-0.435-0.67-0.978-0.67-1.629 0-1.607 1.91-2.909 5.72-3.904l0.07-1.835v-0.059c0-0.564-0.14-1.013-0.42-1.346-0.28-0.334-0.65-0.5-1.11-0.5s-0.85 0.111-1.18 0.335c-0.32 0.223-0.48 0.504-0.49 0.841-0.01 0.502-0.14 0.894-0.39 1.176-0.26 0.282-0.6 0.423-1.02 0.423-0.25 0-0.46-0.074-0.61-0.223-0.16-0.149-0.24-0.349-0.24-0.6 0-0.604 0.55-1.237 1.65-1.899 1.1-0.663 2.12-0.994 3.06-0.994 0.84 0 1.53 0.251 2.05 0.752 0.53 0.502 0.79 1.177 0.79 2.023v0.142l-0.17 5.316v0.082c0 0.823 0.26 1.235 0.8 1.235 0.25 0 0.56-0.157 0.9-0.471l0.08-0.023c0.07 0 0.13 0.041 0.18 0.124 0.05 0.082 0.08 0.17 0.08 0.264 0 0.228-0.23 0.506-0.71 0.835-0.47 0.329-0.99 0.494-1.54 0.494zm-1.81-5.305c-2.28 0.519-3.42 1.377-3.42 2.572 0 1.116 0.43 1.674 1.29 1.674 0.42 0 0.82-0.104 1.23-0.312 0.4-0.208 0.67-0.466 0.81-0.773z"/>
    <path d="m119.53 56.763c0 0.956-0.38 1.76-1.13 2.411-0.75 0.65-1.66 0.976-2.72 0.976-0.38 0-0.96-0.083-1.74-0.247-0.59-0.118-0.99-0.176-1.2-0.176-0.06-0.549-0.21-1.384-0.43-2.506 0-0.117 0.11-0.176 0.34-0.176 0.19 0 0.3 0.063 0.34 0.188 0.18 0.58 0.53 1.086 1.07 1.517 0.53 0.432 1.08 0.647 1.64 0.647 0.59 0 1.05-0.161 1.37-0.482 0.33-0.322 0.49-0.772 0.49-1.353 0-0.368-0.13-0.694-0.4-0.976s-0.86-0.631-1.76-1.047c-1.19-0.541-1.97-1.05-2.35-1.529-0.38-0.478-0.57-1.05-0.57-1.717 0-0.823 0.36-1.53 1.07-2.123 0.72-0.591 1.56-0.888 2.53-0.888 0.41 0 0.98 0.071 1.72 0.212 0.41 0.079 0.67 0.118 0.8 0.118 0.02 0.925 0.07 1.713 0.15 2.364 0 0.117-0.11 0.176-0.34 0.176-0.2 0-0.31-0.063-0.33-0.188-0.09-0.572-0.3-1.037-0.64-1.394-0.35-0.356-0.76-0.535-1.24-0.535-1.21 0-1.82 0.534-1.82 1.6 0 0.36 0.14 0.694 0.43 0.999 0.29 0.306 0.92 0.702 1.88 1.188 1.16 0.581 1.92 1.082 2.29 1.506 0.36 0.423 0.55 0.902 0.55 1.435z"/>
    <path d="m128.28 56.763c0 0.956-0.38 1.76-1.13 2.411-0.75 0.65-1.66 0.976-2.72 0.976-0.38 0-0.96-0.083-1.74-0.247-0.59-0.118-0.99-0.176-1.2-0.176-0.06-0.549-0.21-1.384-0.43-2.506 0-0.117 0.11-0.176 0.34-0.176 0.19 0 0.3 0.063 0.34 0.188 0.18 0.58 0.54 1.086 1.07 1.517 0.53 0.432 1.08 0.647 1.64 0.647 0.59 0 1.05-0.161 1.37-0.482 0.33-0.322 0.49-0.772 0.49-1.353 0-0.368-0.13-0.694-0.4-0.976s-0.86-0.631-1.76-1.047c-1.19-0.541-1.97-1.05-2.35-1.529-0.38-0.478-0.57-1.05-0.57-1.717 0-0.823 0.36-1.53 1.07-2.123 0.72-0.591 1.56-0.888 2.53-0.888 0.41 0 0.98 0.071 1.72 0.212 0.41 0.079 0.67 0.118 0.8 0.118 0.02 0.925 0.07 1.713 0.15 2.364 0 0.117-0.11 0.176-0.34 0.176-0.2 0-0.31-0.063-0.33-0.188-0.09-0.572-0.3-1.037-0.64-1.394-0.35-0.356-0.76-0.535-1.24-0.535-1.21 0-1.82 0.534-1.82 1.6 0 0.36 0.14 0.694 0.43 0.999 0.29 0.306 0.92 0.702 1.88 1.188 1.16 0.581 1.92 1.082 2.29 1.506 0.36 0.423 0.55 0.902 0.55 1.435z"/>
    <path d="m135.05 59.468c0 0.219-0.06 0.329-0.19 0.329-0.32 0-0.73-0.023-1.23-0.07-0.56-0.047-1.04-0.071-1.42-0.071-0.39 0-0.86 0.024-1.4 0.071-0.5 0.047-0.91 0.07-1.23 0.07-0.12 0-0.19-0.11-0.19-0.329 0-0.196 0.07-0.302 0.19-0.318 0.67-0.086 1.1-0.246 1.29-0.481s0.29-0.736 0.29-1.504v-4.345c0-0.626-0.08-1.037-0.24-1.233s-0.51-0.325-1.05-0.387c-0.13 0-0.19-0.104-0.19-0.312 0-0.192 0.06-0.288 0.18-0.288 0.83-0.212 1.5-0.437 2.02-0.677 0.52-0.239 0.85-0.437 0.99-0.593 0.07-0.095 0.16-0.142 0.25-0.142 0.22 0 0.33 0.063 0.33 0.188-0.12 1.757-0.19 3.121-0.19 4.093v3.693c0 0.769 0.1 1.271 0.29 1.506s0.63 0.396 1.31 0.482c0.13 0.016 0.19 0.122 0.19 0.318zm-1.65-14.22c0 0.33-0.11 0.616-0.35 0.859s-0.53 0.364-0.87 0.364-0.62-0.121-0.86-0.364-0.36-0.529-0.36-0.859c0-0.345 0.12-0.635 0.35-0.87 0.24-0.235 0.53-0.353 0.87-0.353s0.63 0.118 0.87 0.353 0.35 0.525 0.35 0.87z"/>
    <path d="m145.28 53.117c0 0.219-0.14 0.329-0.42 0.329h-6.44c-0.05 0.423-0.08 0.862-0.08 1.317 0 1.263 0.3 2.233 0.9 2.911s1.46 1.018 2.56 1.018c0.56 0 1.12-0.149 1.68-0.447 0.57-0.298 1.02-0.678 1.37-1.141l0.06-0.024c0.07 0 0.14 0.043 0.2 0.13 0.07 0.086 0.1 0.188 0.1 0.305 0 0.165-0.25 0.508-0.75 1.03-0.5 0.521-1.05 0.919-1.63 1.193-0.59 0.275-1.21 0.412-1.85 0.412-1.41 0-2.6-0.518-3.56-1.553-0.97-1.034-1.45-2.305-1.45-3.81 0-1.537 0.47-2.838 1.42-3.905 0.94-1.066 2.14-1.599 3.59-1.599 1.21 0 2.24 0.398 3.06 1.193 0.83 0.796 1.24 1.676 1.24 2.641zm-2.14-1.035c0-0.588-0.2-1.076-0.6-1.465-0.41-0.388-0.93-0.582-1.56-0.582-0.6 0-1.13 0.253-1.57 0.759-0.44 0.505-0.74 1.17-0.9 1.993l3.27-0.094c0.49-0.008 0.84-0.055 1.05-0.141s0.31-0.243 0.31-0.47z"/>
    <path d="m158.75 59.468c0 0.219-0.06 0.329-0.19 0.329-0.31 0-0.72-0.023-1.21-0.07-0.54-0.047-1-0.071-1.39-0.071-0.38 0-0.86 0.024-1.44 0.071-0.54 0.047-0.97 0.07-1.29 0.07-0.12 0-0.18-0.11-0.18-0.329 0-0.196 0.06-0.302 0.18-0.318 0.21-0.023 0.35-0.063 0.44-0.117 0.09-0.055 0.13-0.161 0.13-0.318 0-0.235-0.38-0.753-1.13-1.552l-1.88-2.094c-0.16-0.157-0.37-0.235-0.64-0.235v2.329c0 0.69 0.09 1.18 0.26 1.47 0.16 0.29 0.48 0.462 0.94 0.517 0.13 0.016 0.19 0.122 0.19 0.318 0 0.219-0.06 0.329-0.19 0.329-0.34 0-0.77-0.023-1.31-0.07-0.52-0.047-0.92-0.071-1.22-0.071-0.34 0-0.74 0.024-1.22 0.071-0.45 0.047-0.83 0.07-1.13 0.07-0.12 0-0.19-0.11-0.19-0.329 0-0.196 0.07-0.302 0.19-0.318 0.66-0.07 1.09-0.225 1.28-0.464 0.2-0.239 0.3-0.746 0.3-1.522v-10.917c0-0.635-0.08-1.05-0.23-1.246s-0.51-0.325-1.07-0.388c-0.12-0.016-0.18-0.116-0.18-0.299 0-0.208 0.06-0.312 0.18-0.312 1.34-0.314 2.33-0.73 2.97-1.247 0.12-0.094 0.21-0.141 0.29-0.141 0.22 0 0.33 0.063 0.33 0.188-0.12 1.288-0.19 2.653-0.19 4.097v7.288c0.28 0 0.51-0.075 0.67-0.224l1.76-1.663c0.05-0.055 0.14-0.137 0.27-0.247 0.65-0.594 0.97-1.034 0.97-1.319 0-0.206-0.31-0.349-0.94-0.428-0.12-0.016-0.19-0.123-0.19-0.324 0-0.215 0.07-0.323 0.19-0.323 0.33 0 0.75 0.024 1.25 0.071 0.46 0.047 0.84 0.07 1.15 0.07 0.23 0 0.52-0.019 0.88-0.059 0.44-0.055 0.83-0.082 1.18-0.082 0.12 0 0.19 0.108 0.19 0.323 0 0.201-0.07 0.308-0.19 0.324-0.57 0.063-1.07 0.198-1.5 0.404s-1.01 0.634-1.74 1.283l-2.02 1.793 3.08 3.376c0.65 0.714 1.2 1.204 1.65 1.471 0.45 0.266 1.03 0.439 1.75 0.517 0.13 0.016 0.19 0.122 0.19 0.318z"/>
  </g>
</svg>
