<?xml version="1.0" encoding="UTF-8" standalone="no"?>
<svg
   xmlns:dc="http://purl.org/dc/elements/1.1/"
   xmlns:cc="http://creativecommons.org/ns#"
   xmlns:rdf="http://www.w3.org/1999/02/22-rdf-syntax-ns#"
   xmlns:svg="http://www.w3.org/2000/svg"
   xmlns="http://www.w3.org/2000/svg"
   id="svg2"
   height="800"
   width="800"
   version="1.0">
  <metadata
     id="metadata18">
    <rdf:RDF>
      <cc:Work
         rdf:about="">
        <dc:format>image/svg+xml</dc:format>
        <dc:type
           rdf:resource="http://purl.org/dc/dcmitype/StillImage" />
        <dc:title></dc:title>
      </cc:Work>
    </rdf:RDF>
  </metadata>
  <defs
     id="defs4">
    <clipPath
       id="clipPath">
      <path
         id="text3496"
         d="m 310.40096,-62.918501 c -12.33351,-0.16297 -23.16735,11.89994 -26.32822,26.32101 -9.88623,31.7038301 -20.0797,63.38044 -29.40654,95.27661 -1.62804,7.55631 0.16006,17.41379 6.5185,20.69559 6.37087,4.38808 15.25567,3.11278 19.95713,-4.07248 3.21741,-4.55948 3.59774,-10.97758 5.89067,-16.06097 2.35549,-2.75338 5.89988,-0.6815 8.76479,-1.33306 12.92494,0 25.84988,0 38.77482,0 1.70049,8.63055 3.985,19.09189 11.27642,22.67808 7.92833,3.81779 18.84008,-0.77676 21.21934,-11.46753 1.87641,-9.55862 -2.54901,-18.58936 -5.0103,-27.35183 -9.31779,-28.5404 -17.7219,-57.66548 -27.47322,-85.90609 -4.27645,-11.32303 -14.07363,-19.13885 -24.18339,-18.77933 z m 222.30609,1.10821 c -12.60637,0.73054 -25.30437,-0.76225 -37.85561,0.99578 -7.15974,2.6337 -11.40038,12.34554 -10.55737,21.32896 -0.006,31.4683401 -0.18998,62.9392 0.007,94.40605 0.30591,6.37012 -0.62504,13.58061 3.00285,18.82381 4.55283,7.97245 14.31395,10.18944 20.94747,4.72192 5.15266,-4.02809 7.64548,-11.8248 7.01702,-19.30527 0.10172,-6.26683 -0.23933,-12.57347 -0.15536,-18.80741 0.22639,-3.07028 2.67482,-5.20658 5.07466,-4.41791 14.25728,0.61252 29.76662,1.31898 42.07656,-9.00906 14.89317,-12.12006 20.91502,-37.7934 14.02258,-58.02366 -4.99495,-15.58176 -16.97656,-26.9237 -30.29636,-29.49258 -4.36821,-1.02549 -8.82361,-1.34768 -13.28313,-1.22063 z m -116.11874,0.03213 c -9.19203,0.91231 -18.70458,-1.2729 -27.66671,1.57396 -7.13553,3.50043 -11.28035,13.81481 -9.94085,23.06356 0.24217,34.1672201 -0.55028,68.37881 0.46399,102.51718 1.40871,8.67701 8.3349,15.44016 15.54842,14.37938 13.03675,0.21826 26.07605,-0.14121 39.11179,0.13975 9.08099,0.14582 18.71784,-1.02791 25.99661,-8.3999 11.39456,-10.58875 16.88339,-31.23797 10.29248,-47.42803 -2.78092,-7.0968 -7.70441,-12.63559 -13.25724,-16.1573499 -2.39353,-3.49917 0.40341,-7.63344005 1.99377,-10.58419 7.66169,-16.8199301 2.70185,-40.5682501 -10.69383,-50.3993101 -9.35599,-7.55787 -20.88848,-8.90523 -31.84843,-8.70505 z m -91.23412,87.98199 c -9.7703,0 -19.54062,0 -29.31091,0 4.77779,-21.5329499 9.69444,-33.2337609 14.61661,-54.716501 4.93988,21.490675 9.80027,33.215319 14.6943,54.716501 z m 96.1279,-56.61492 c 13.25684,0.12708 13.36417,23.9610701 0.98393,23.9147901 -4.10836,0 -8.21671,0 -12.32508,0 0,-7.9287601 0,-15.8575401 0,-23.7863001 3.78064,0 7.56319,0.09598 11.34115,-0.12849 z m 94.58869,1.33306 c 8.75317,1.11812 18.16738,-2.027 26.37206,2.8428 6.93777,5.07436 8.33343,18.4620401 2.39511,25.37633005 -4.03614,5.26728005 -10.34799,5.64476005 -15.82065,4.91465005 -4.59601,0 -9.19203,0 -13.78804,0 0,-11.04994 0,-22.0998901 0,-33.1498401 0.28051,0.0053 0.56102,0.01071 0.84152,0.01606 z m -105.25662,52.74423 c 8.74266,0.89224 17.76887,-1.33213 26.30733,1.65428 6.82126,4.04158 6.83544,18.73487 -0.59555,21.87504 -5.4109,2.35754 -11.22153,0.17871 -16.80458,0.94761 -3.24957,0 -6.49915,0 -9.74873,0 0,-8.16434 0,-16.32865 0,-24.493 0.28051,0.0054 0.56102,0.01072 0.84153,0.01607 z" />
    </clipPath>
    <filter
       id="filter"
       color-interpolation-filters="sRGB"
       height="2"
       width="10"
       y="-0.5"
       x="-0.5">
      <feGaussianBlur
         id="feGaussianBlur5416"
         stdDeviation="5.0" />
    </filter>
  </defs>
  <path
     style="fill:#ca0016;fill-opacity:1;fill-rule:nonzero;stroke:#ca0016;stroke-width:3;stroke-linecap:round;stroke-linejoin:round;stroke-miterlimit:4;stroke-opacity:1;stroke-dasharray:none"
     id="path6155"
     transform="matrix(8.56903,0,-2.3329646,8.9995606,-2534.8254,-2798.2113)"
     d="m 483.91671,361.57349 a 35.842125,35.842125 0 1 1 -71.68425,0 35.842125,35.842125 0 1 1 71.68425,0 z" />
  <path
     style="fill:#ca0016;fill-opacity:1;fill-rule:nonzero;stroke:#ffffff;stroke-width:3;stroke-linecap:round;stroke-linejoin:round;stroke-miterlimit:4;stroke-opacity:1;stroke-dasharray:none"
     id="path6157"
     transform="matrix(14.794852,0,-3.7681339,15.500527,-4996.3763,-5076.0246)"
     d="m 449.51595,340.52945 a 11.338795,11.338795 0 1 1 -22.67759,0 11.338795,11.338795 0 1 1 22.67759,0 z" />
  <path
     style="fill:#ffffff;fill-rule:evenodd;stroke:#ffffff;stroke-width:37.81194305;stroke-linecap:butt;stroke-linejoin:miter;stroke-miterlimit:4;stroke-opacity:1;stroke-dasharray:none"
     id="path6163"
     d="M 67.884922,67.01697 195.05414,192.36951" />
  <path
     style="font-size:277.30322266px;font-style:normal;font-variant:normal;font-weight:bold;font-stretch:normal;text-align:start;line-height:100%;writing-mode:lr-tb;text-anchor:start;fill:#ffffff;fill-opacity:1;stroke:none;font-family:Arial;-inkscape-font-specification:Arial Bold"
     id="text6149"
     d="m 239.28703,572.79877 0,-198.49928 38.04795,0 0,71.49223 c 11.73477,-13.35952 25.63603,-20.03934 41.70381,-20.03949 17.51187,1.5e-4 31.99987,6.34147 43.46403,19.02398 11.46388,12.68277 17.19589,30.89431 17.19605,54.63469 -1.6e-4,24.55294 -5.84501,43.46406 -17.53456,56.73343 -11.68983,13.26939 -25.88445,19.90408 -42.58391,19.90408 -8.21448,0 -16.31602,-2.05359 -24.30466,-6.16079 -7.98878,-4.10718 -14.8717,-10.1777 -20.6488,-18.21156 l 0,21.12271 -35.33991,0 z m 37.77715,-75.01269 c -6e-5,14.89428 2.34691,25.90696 7.0409,33.03808 6.58949,10.11004 15.34548,15.16504 26.26798,15.16502 8.39483,2e-5 15.54856,-3.58812 21.46121,-10.76446 5.91244,-7.17626 8.86871,-18.48231 8.86883,-33.91819 -1.2e-4,-16.42868 -2.97896,-28.27634 -8.93653,-35.54302 -5.95779,-7.26645 -13.58542,-10.89974 -22.88293,-10.89985 -9.11714,1.1e-4 -16.69965,3.54313 -22.74753,10.62905 -6.04801,7.08614 -9.07199,17.85058 -9.07193,32.29337 l 0,0 z m 172.9083,75.01269 -57.95204,-143.79689 39.94358,0 27.08039,73.38787 7.85332,24.50775 c 2.07608,-6.22844 3.38497,-10.33563 3.92666,-12.32158 1.26367,-4.06199 2.61768,-8.12405 4.06205,-12.18617 l 27.3512,-73.38787 39.13117,0 -57.13963,143.79689 -34.2567,0 z m 245.61917,0 -38.04795,0 0,-73.38787 c -1.1e-4,-15.526 -0.81252,-25.5683 -2.43723,-30.12693 -1.62494,-4.55843 -4.26527,-8.10144 -7.92102,-10.62906 -3.65595,-2.52739 -8.05651,-3.79114 -13.20169,-3.79125 -6.58965,1.1e-4 -12.50219,1.80547 -17.73766,5.41607 -5.23561,3.61083 -8.82376,8.39503 -10.76445,14.35261 -1.94082,5.95778 -2.9112,16.97046 -2.91115,33.03808 l 0,65.12835 -38.04795,0 0,-143.79689 35.33991,0 0,21.12271 c 12.54719,-16.2481 28.34407,-24.37221 47.39069,-24.37236 8.39481,1.5e-4 16.06758,1.51214 23.01834,4.53597 6.9505,3.02412 12.2086,6.88307 15.77432,11.57687 3.56544,4.69406 6.04781,10.01986 7.44711,15.97743 1.39901,5.95779 2.09858,14.48811 2.09873,25.59097 l 0,89.3653 z" />
  <path
     style="fill:#ffffff;fill-opacity:1;fill-rule:nonzero;stroke:none"
     id="path6159"
     transform="matrix(9.4529853,0,0,9.4529853,-3885.2602,-2910.3814)"
     d="m 436.06314,328.42194 a 4.2280254,4.2280254 0 1 1 -8.45605,0 4.2280254,4.2280254 0 1 1 8.45605,0 z" />
  <path
     style="fill:#ca0016;fill-opacity:1;fill-rule:nonzero;stroke:none"
     id="path6161"
     transform="matrix(9.4529853,0,0,9.4529853,-4012.4294,-3035.734)"
     d="m 436.06314,328.42194 a 4.2280254,4.2280254 0 1 1 -8.45605,0 4.2280254,4.2280254 0 1 1 8.45605,0 z" />
</svg>
