<?xml version="1.0" encoding="UTF-8" standalone="no"?>
<!-- Created with Inkscape (http://www.inkscape.org/) -->
<svg xmlns:rdf="http://www.w3.org/1999/02/22-rdf-syntax-ns#" xmlns="http://www.w3.org/2000/svg" xmlns:cc="http://creativecommons.org/ns#" xmlns:xlink="http://www.w3.org/1999/xlink" xmlns:dc="http://purl.org/dc/elements/1.1/" height="107.57" width="600" version="1.1">
  <defs>
    <linearGradient id="linearGradient3266" gradientUnits="userSpaceOnUse" gradientTransform="matrix(0,65.88366,-65.88366,0,299.99881,-4.5839518e-4)" x1="0" x2="1" y1="0" y2="0">
      <stop stop-color="#FFF" offset="0"/>
      <stop stop-color="#4e4e50" offset="1"/>
    </linearGradient>
    <mask id="mask3258">
      <path opacity="0.69999701" d="m-0.012722,0.01582,600.02,0,0,65.885-600.02,0,0-65.885z" fill-rule="nonzero" fill="#000"/>
      <path opacity="0.69999701" fill="url(#linearGradient3266)" d="m6.6062,0.01582c-3.6625,0-6.6287,3.0006-6.6287,6.6728v50.907c20.048-4.3585,128.98-24.446,277.18-19.911,147.85,4.52,271.08,19.714,322.82,28.216v-59.212c0-3.6772-2.9221-6.6728-6.5454-6.6728h-586.82z"/>
    </mask>
  </defs>
  <metadata>
    <rdf:RDF>
      <cc:Work rdf:about="">
        <dc:format>image/svg+xml</dc:format>
        <dc:type rdf:resource="http://purl.org/dc/dcmitype/StillImage"/>
        <dc:title/>
      </cc:Work>
    </rdf:RDF>
  </metadata>
  <g fill-rule="nonzero" transform="translate(-0.00295,8.9892482e-4)">
    <path fill="#000" d="m251-0.00079923-244.37,0c-3.6608,0-6.627,2.9956-6.627,6.6727v94.238c0,3.6772,2.9662,6.658,6.6286,6.658h244.37v-107.57z"/>
    <path fill="#d8571c" d="m593.46-0.00079923-337.68,0,0,107.57,337.68,0c3.6183,0,6.5454-2.981,6.5454-6.658v-94.237c0-3.6772-2.927-6.6727-6.5454-6.6727"/>
  </g>
  <g fill-rule="nonzero" fill="#FFF" transform="translate(-0.00295,8.9892482e-4)">
    <path d="m310.75,17.094-10.53,2.187v17.219c-3.67-0.814-7.91-1.688-11.91-1.688-11.5,0-14.59,6.268-14.59,15.157v12.156c0,11.257,6.69,14.937,16.72,14.937,8.16,0,17.13-1.566,20.31-2.624v-57.344zm-20.47,26.094c3.02,0,6.51,0.654,9.94,1.468v23.25c-3.18,0.736-6.28,0.844-8.41,0.844-6.03,0-7.59-1.81-7.59-6.625v-11.75c0-4.481,1.08-7.187,6.06-7.187z" transform="translate(0.00295,-8.9922902e-4)"/>
    <path d="m323.8,35.532,10.522,0,0,40.792-10.522,0,0-40.792z"/>
    <path d="m323.48,27.128,0-9.5459,11.174,0,0,7.1827-11.174,2.3632z"/>
    <path d="m364.75,34.812c-11.909,0-17.781,5.293-17.781,14.594,0,5.0545,2.0236,10.034,6.75,11.75-3.584,3.4271-5.7812,6.4486-5.7812,9.4688,0,2.123,1.4652,4.3063,4,4.875-4.7362,0.8972-7.0152,5.484-7.0938,9.1562v0.40625c0,7.3396,6.2052,11.656,18.031,11.656h4.25c13.547,0,21.438-4.7502,21.438-14.781,0-9.4672-7.4242-12.781-16.156-12.781h-11.156c-2.3681,0-3.4375-0.51875-3.4375-1.9062,0-1.3041,1.8888-3.566,3.0312-4.625,1.7945,0.1618,3.2535,0.15625,4.3125,0.15625h1.2188c12.238,0,18.031-4.168,18.031-13.469,0-2.3681-0.9042-4.4139-2.125-6.125h6.7812v-7.8125l-13.625,0.96875c-2.6083-0.98056-5.7139-1.5312-8.8125-1.5312h-1.875zm-0.65625,7.25,3.1875,0c5.0598,0,7.0938,2.7854,7.0938,6.7812,0,4.241-1.7888,6.75-7.0938,6.75h-3.1875c-5.2215,0-7-2.509-7-6.75,0-3.9959,2.0236-6.7812,7-6.7812zm-3.09,34.657h10.125c4.898,0,7.4062,1.3318,7.4062,5.6562,0,4.8147-3.8436,6.6875-10.531,6.6875h-3.75c-6.1189,0-9.375-1.9006-9.375-5.6562v-0.46875c0-2.6084,1.3888-6.2188,6.125-6.2188z"/>
    <path d="m400.32,35.532,10.527,0,0,40.792-10.527,0,0-40.792z"/>
    <path d="m399.99,27.128,0-9.5459,11.174,0,0,7.1827-11.174,2.3632z"/>
    <path d="m456.12,74.771c-3.5889,1.2208-9.0606,2.2848-14.277,2.2848-8.8105,0-12.399-4.3244-12.399-11.669v-21.617h-8.2418v-8.242h8.2418v-12.89l10.522-2.1181v15.008h15.174v8.2418h-15.174v19.337c0,4.6479,0.73543,5.7903,4.5695,5.7903,2.3681,0,6.6091-0.73544,9.2959-1.466l2.2896,7.3396z"/>
    <path d="m483.62,34.812c-4.9411,0.12563-11.136,0.70876-17.562,1.7812l2.2188,8.0625c3.349-0.65207,11.253-1.5312,15.656-1.5312,5.6285,0,6.5417,1.7076,6.625,5.375v2.2188h-10.438c-10.365,0-16.156,4.5388-16.156,13.188v2.0625c0,6.5255,4.4041,11.094,12.562,11.094,4.893,0,9.543-1.0792,15.5-3.6875l1.0625,2.9375h7.9688v-27.812c0-10.684-5.5368-13.688-15.406-13.688-0.65263,0-1.3254-0.01795-2.0312,0zm3.1875,22.75c1.7945-0.02023,3.3014,0,3.75,0v8.0625c-2.201,0.8187-8.3236,2.9375-11.344,2.9375-3.2653,0-4.75-1.1416-4.75-4v-1.5312c0-3.5104,1.8986-5.1458,6.875-5.3125,1.591-0.0809,3.6743-0.13602,5.4688-0.15625z"/>
    <path d="m532.31,34.812c-4.9401,0.12563-11.105,0.70876-17.531,1.7812l2.1875,8.0625c3.344-0.65207,11.28-1.5312,15.688-1.5312,5.6285,0,6.5104,1.7076,6.5938,5.375v2.2188h-10.438c-10.36,0-16.156,4.5388-16.156,13.188v2.0625c0,6.5255,4.4041,11.094,12.562,11.094,4.893,0,9.5479-1.0792,15.5-3.6875l1.0625,2.9375h8v-27.812c0-10.684-5.568-13.688-15.438-13.688-0.65263,0-1.3255-0.01795-2.0312,0zm3.1875,22.75c1.7951-0.02023,3.3014,0,3.75,0v8.0625c-2.2059,0.8187-8.3284,2.9375-11.344,2.9375-3.2653,0-4.7188-1.1416-4.7188-4v-1.5312c0-3.5104,1.8722-5.1458,6.8438-5.3125,1.5934-0.0809,3.6737-0.13602,5.4688-0.15625z"/>
    <path d="m582.81,75.344c-4.0792,1.2208-7.5848,1.716-9.6244,1.716-7.0209,0-9.3008-4.0841-9.3008-8.8154v-49.112l10.527-2.2848v48.137c0,2.2798,0.48538,3.4271,3.2604,3.4271,0.89233,0,2.2848-0.25005,3.6723-0.57364l1.466,7.5063z"/>
    <path d="m82.938,34.812c-4.9411,0.12563-11.136,0.70876-17.562,1.7812l2.2188,8.0625c3.343-0.652,11.252-1.531,15.655-1.531,5.6285,0,6.5104,1.7076,6.5938,5.375v2.2188h-10.438c-10.36,0-16.156,4.5388-16.156,13.188v2.0625c0,6.5255,4.4041,11.094,12.562,11.094,4.893,0,9.5479-1.0792,15.5-3.6875l1.0625,2.9375h8v-27.813c0-10.684-5.5368-13.688-15.406-13.688-0.65262,0-1.3254-0.01795-2.0312,0zm3.1562,22.75c1.7951-0.02023,3.3014,0,3.75,0v8.0625c-2.201,0.8187-8.2923,2.9375-11.312,2.9375-3.2653,0-4.75-1.1416-4.75-4v-1.5312c0-3.5104,1.8674-5.1458,6.8438-5.3125,1.5885-0.0809,3.6737-0.13602,5.4688-0.15625z"/>
    <path d="m141.33,76.322,0-26.025c0-4.241-0.81388-7.0994-5.3834-7.0994-3.4271,0-8.2418,1.716-10.85,2.6917v30.432h-10.527v-40.792h7.7515l1.3875,2.9368c3.5889-1.6278,8.6487-3.6674,14.277-3.6674,10.688,0,13.87,6.3591,13.87,14.356v27.167h-10.527z"/>
    <path d="m183.19,34.812c-4.941,0.12563-11.109,0.70876-17.531,1.7812l2.1875,8.0625c3.34-0.652,11.25-1.531,15.65-1.531,5.6285,0,6.5466,1.7076,6.625,5.375v2.2188h-10.438c-10.36,0-16.156,4.5388-16.156,13.188v2.0625c0,6.5255,4.4041,11.094,12.562,11.094,4.898,0,9.543-1.0792,15.5-3.6875l1.0625,2.9375h8v-27.813c0-10.684-5.568-13.688-15.438-13.688-0.65263,0-1.3254-0.01795-2.0312,0zm3.1875,22.75c1.7945-0.02023,3.3014,0,3.75,0v8.0625c-2.201,0.8187-8.3236,2.9375-11.344,2.9375-3.2604,0-4.7188-1.1416-4.7188-4v-1.5312c0-3.5104,1.8674-5.1458,6.8438-5.3125,1.591-0.0809,3.6743-0.13602,5.4688-0.15625z"/>
    <path d="m233.68,75.344c-4.0792,1.2208-7.5897,1.716-9.6244,1.716-7.0209,0-9.3057-4.0841-9.3057-8.8154v-49.112l10.527-2.2848v48.137c0,2.2798,0.49028,3.4271,3.2653,3.4271,0.89233,0,2.2848-0.25005,3.6723-0.57364l1.466,7.5063z"/>
    <path d="m52.248,74.527c-4.7313,1.466-12.483,2.5299-18.111,2.5299-13.542,0-16.807-5.7119-16.807-15.258v-11.502c0-10.767,5.0598-15.498,16.155-15.498,5.1382,0,12.806,0.65208,18.356,1.7111l-2.3681,7.9966c-4.814-0.736-10.443-1.305-13.949-1.305-6.7709,0-7.6681,2.525-7.6681,8.2369v9.9578c0,4.8931,0.65208,7.2563,7.9133,7.2563,3.9959,0,10.031-0.73544,14.194-1.8778l2.2848,7.7515z"/>
  </g>
  <g mask="url(#mask3258)">
    <path opacity="0.69999701" d="M277.18,37.667c147.85,4.525,271.08,19.719,322.82,28.216v-59.212c0-3.6772-2.927-6.6728-6.5405-6.6728h-586.83c-3.6625,0-6.6287,3.0006-6.6287,6.6777v50.902c20.048-4.3589,128.97-24.441,277.17-19.911" fill-rule="nonzero" transform="translate(-0.00295,8.9969482e-4)" fill="#FFF"/>
  </g>
</svg>
