<?xml version="1.0" encoding="UTF-8" standalone="no"?>
<svg xmlns:rdf="http://www.w3.org/1999/02/22-rdf-syntax-ns#" xmlns="http://www.w3.org/2000/svg" enable-background="new 0 0 86 32" xml:space="preserve" height="223.25" viewBox="0 0 600 223.25399" width="600" version="1.1" y="0px" x="0px" xmlns:cc="http://creativecommons.org/ns#" xmlns:dc="http://purl.org/dc/elements/1.1/"><rect height="146.51" width="600" y="76.744" x="0" stroke-width="6.9767" fill="#0feb0f"/><g stroke-width="6.9767" fill="#fff"><path d="m93.153 128.36c0 9.88-2.427 17.29-7.269 22.23-4.849 4.94-11.84 7.41-20.965 7.41h-13.452v28.71h-23.267v-84.81h26.414c6.139 0 11.086 0.26 14.846 0.78 3.754 0.53 7.124 1.44 10.117 2.74 4.444 1.95 7.814 4.92 10.116 8.92 2.309 4.01 3.46 8.68 3.46 14.02zm-21.697 0.74c0-3.65-1.256-6.36-3.754-8.11-2.504-1.74-5.658-2.62-9.446-2.62h-6.789v22.06h7.396c3.635 0 6.544-0.81 8.721-2.44 2.581-1.95 3.872-4.92 3.872-8.89z"/><path d="m163.07 186.71h-19.63v-5.81c-0.81 0.8-3.19 2.15-7.15 4.05-5.01 2.39-8.96 3.59-11.87 3.59-7.27 0-13.57-2.58-18.9-7.74-6.06-5.89-9.094-13.67-9.094-23.34 0-8.63 2.867-15.85 8.604-21.66 5.73-5.81 12.56-8.7 20.47-8.7 3.64 0 7.3 0.89 10.97 2.67 3.67 1.77 6.08 3.43 7.21 4.96l-0.24 0.24v-6.42h19.63zm-18.91-29.08c0-3.56-1.13-6.54-3.39-8.96-2.5-2.67-5.78-3.99-9.81-3.99-3.88 0-6.93 1.29-9.15 3.87-2.22 2.59-3.34 5.62-3.34 9.09 0 3.39 1.05 6.34 3.15 8.85 2.43 2.83 5.61 4.24 9.57 4.24 4.12 0 7.31-1.28 9.57-3.83 2.27-2.54 3.4-5.63 3.4-9.27z"/><path d="m221.35 147.82c-1.37-0.72-2.89-1.27-4.54-1.63-1.65-0.37-3.54-0.54-5.64-0.54-2.82 0-5.49 0.8-7.99 2.42-3.39 2.18-5.09 5.17-5.09 8.97v29.68h-21.81v-58.16h21.81v9.81c0.73-1.6 2.95-3.71 6.66-6.29 4.85-3.39 9.46-5.1 13.82-5.1h2.78z"/><path d="m262.18 146.11h-11.15v40.59h-21.08v-40.59h-6.67v-17.56h6.67v-16.6h21.08v16.6h11.15z"/><path d="m291.99 108.08c0 3.14-1 5.75-3.01 7.81-1.99 2.06-4.75 3.09-8.26 3.09-3.68 0-6.5-1.01-8.46-3.03-1.95-2.02-2.94-4.64-2.94-7.87 0-3.16 1.06-5.82 3.18-8 2.13-2.182 4.87-3.271 8.22-3.271 3.26 0 5.95 1.047 8.08 3.147 2.12 2.104 3.19 4.804 3.19 8.124zm-1.82 78.63h-20.84v-58.16h20.84z"/><path d="m366.74 186.71h-21.08v-6.17c-1.61 1.77-3.67 3.35-6.18 4.72-3.88 2.18-7.79 3.28-11.75 3.28-8.73 0-15.84-3.07-21.33-9.21-5.17-5.82-7.76-13.05-7.76-21.69 0-7.75 2.18-14.46 6.54-20.11 5.09-6.63 12.04-9.94 20.84-9.94 5.01 0 9.65 1.13 13.94 3.39 2.66 1.38 4.56 2.75 5.69 4.12v-41.681h21.08v93.291zm-20.35-28.9c0-3.37-1.14-6.27-3.39-8.68-2.51-2.65-5.78-3.98-9.82-3.98-3.95 0-7.07 1.27-9.33 3.8-2.26 2.54-3.39 5.49-3.39 8.87s1.11 6.35 3.34 8.92c2.22 2.57 5.35 3.86 9.39 3.86 4.12 0 7.35-1.29 9.7-3.86 2.33-2.58 3.5-5.55 3.5-8.93z"/><path d="m441.51 186.71h-19.63v-5.81c-0.81 0.8-3.19 2.15-7.15 4.05-5.01 2.39-8.96 3.59-11.87 3.59-7.27 0-13.57-2.58-18.9-7.74-6.06-5.89-9.09-13.67-9.09-23.34 0-8.63 2.86-15.85 8.6-21.66 5.73-5.81 12.56-8.7 20.48-8.7 3.63 0 7.29 0.89 10.96 2.67 3.67 1.77 6.08 3.43 7.21 4.96l-0.24 0.24v-6.42h19.63zm-18.91-29.08c0-3.56-1.13-6.54-3.39-8.96-2.5-2.67-5.78-3.99-9.81-3.99-3.88 0-6.93 1.29-9.15 3.87-2.22 2.59-3.34 5.62-3.34 9.09 0 3.39 1.05 6.34 3.15 8.85 2.43 2.83 5.62 4.24 9.57 4.24 4.13 0 7.31-1.28 9.57-3.83 2.27-2.54 3.4-5.63 3.4-9.27z"/><path d="m509.97 128.55-27.99 41.19h24.11v16.97h-57.43l27.02-41.31h-25.09v-16.85z"/><path d="m579.51 157.93c0 8.79-3.15 16.1-9.45 21.9-6.29 5.81-14.22 8.71-23.74 8.71-9.38 0-17.23-2.97-23.57-8.89-6.34-5.93-9.51-13.16-9.51-21.71 0-8.7 3.13-15.98 9.39-21.82 6.26-5.85 14.15-8.77 23.7-8.77 9.6 0 17.54 2.8 23.8 8.4 6.26 5.61 9.38 12.99 9.38 22.18zm-20.6 0c0-3.13-1.2-5.93-3.59-8.37-2.4-2.46-5.34-3.68-8.83-3.68-3.57 0-6.54 1.21-8.88 3.62-2.36 2.42-3.54 5.23-3.54 8.44 0 3.14 1.2 5.89 3.59 8.27 2.4 2.36 5.35 3.55 8.84 3.55 3.48 0 6.43-1.19 8.83-3.55 2.38-2.39 3.58-5.14 3.58-8.28z"/></g><polygon points="43 11 43 0 0 0 0 11" transform="matrix(6.9767 0 0 6.9767 .000023867 0)"/><path d="m285.86 43.458s-0.06 0.133-0.25 0.133h-16.02c-0.26 0-0.39 0.118-0.39 0.118s-0.18 0.056-0.18 0.37v16.919c0 0.244-0.13 0.307-0.13 0.307s-0.06 0.118-0.24 0.118h-12.72c-0.18 0-0.31-0.118-0.31-0.118s-0.05-0.07-0.05-0.377v-16.905c0-0.188-0.19-0.314-0.19-0.314s-0.07-0.118-0.26-0.118h-16.4c-0.32 0-0.38-0.07-0.38-0.07s-0.13-0.126-0.13-0.502v-12.377c0-0.133 0.13-0.321 0.13-0.321s0.06-0.056 0.19-0.056h16.77c0.13 0 0.13-0.063 0.13-0.063s0.14-0.062 0.14-0.188v-14.805c0-0.188 0.05-0.3 0.05-0.3s0.13-0.069 0.5-0.069h12.46c0.25 0 0.31 0.069 0.31 0.069s0.13 0.112 0.13 0.363v14.868h16.28c0.44 0 0.56 0.062 0.56 0.062s0.19 0.056 0.19 0.44v12.502c0 0.133-0.19 0.314-0.19 0.314zm-49.66 17.4c-0.06 0.377-0.13 0.495-0.13 0.495s-0.05 0.126-0.37 0.126h-25.8c-0.74 0-0.94-0.174-0.94-0.174s-0.13-0.252-0.06-0.803l6.4-43.988c0.06-0.558 0.18-0.74 0.18-0.74h12.39c0.33 0 0.44 0.063 0.44 0.063s0.06 0.189 0 0.44l-4.82 34.374c-0.05 0.377 0.13 0.433 0.13 0.433s0.14 0.056 0.63 0.056h12.76c0.26 0 0.39 0.132 0.39 0.132s0.05 0.063 0.05 0.37zm-32.86 0.684h-11.47c-0.24 0.118-0.44-0.126-0.44-0.126s-0.06-0.069-0.12-0.432l-1.5-7.005c-0.13-0.37-0.24-0.551-0.24-0.551s-0.33-0.188-0.7-0.188h-14.92c-0.31 0-0.49 0.188-0.49 0.188s-0.25 0.244-0.37 0.614l-3.39 7.123c-0.06 0.182-0.18 0.251-0.18 0.251s-0.26 0.056-0.38 0.056h-12.9c-0.31 0.063-0.44-0.125-0.44-0.125s-0.07-0.119 0.13-0.363l22.72-44.91c0.14-0.062 0.25-0.251 0.25-0.251s0.13-0.063 0.51-0.063h14.09c0.31 0 0.5 0.182 0.5 0.182s0.06 0.07 0.13 0.251l9.44 45.105c0 0.118-0.05 0.174-0.05 0.174s0.01 0.07-0.18 0.07zm-53.67-0.063h-11.84s-0.06-0.056-0.12-0.126l-15.91-27.927c-0.13-0.133-0.19-0.133-0.19-0.133s-0.12 0-0.12 0.188l-3.93 27.44c-0.07 0.307-0.13 0.377-0.13 0.377s-0.13 0.049-0.33 0.049h-11.38c-0.2 0-0.32-0.119-0.32-0.119s-0.25-0.244-0.18-0.495l6.25-44.421c0.07-0.238 0.19-0.3 0.19-0.3s0.19-0.189 0.37-0.189h12.72c0.18 0 0.31 0.119 0.31 0.119s0.12 0.07 0.19 0.251l14.33 24.907c0.25 0.488 0.44 0.433 0.44 0.433s0.18 0 0.31-0.566l3.64-24.774c0-0.181 0.12-0.251 0.12-0.251s0.07-0.119 0.24-0.119l11.98 0.119c0.23 0 0.3 0.07 0.3 0.07s0.07 0.062 0.07 0.181l-6.44 44.791c-0.07 0.244-0.21 0.432-0.21 0.432s-0.04 0.063-0.36 0.063zm-50.098-0.126-11.142 0.07c-0.258 0-0.439-0.118-0.439-0.118s-0.063-0.07-0.126-0.503l-1.751-7.123c0-0.181-0.133-0.244-0.133-0.244h-15.893c-0.321 0-0.502 0.244-0.502 0.244s-0.251 0.181-0.439 0.614l-3.126 6.628c-0.133 0.251-0.188 0.314-0.188 0.314s-0.196 0.118-0.37 0.118h-12.977c-0.37 0.07-0.439-0.118-0.439-0.118s-0.07-0.182 0.069-0.433l22.472-44.721c0.126-0.251 0.321-0.314 0.321-0.314h14.784c0.251 0 0.44 0.182 0.44 0.182s0.062 0.07 0.125 0.251l9.649 44.853c0 0.182-0.126 0.252-0.126 0.252s-0.076 0.048-0.209 0.048zm84.918-32.644s-0.06 0-0.13 0.251l-6.26 13.996c-0.12 0.439-0.07 0.502-0.07 0.502s0.19 0.133 0.32 0.133l9.25-0.07h0.14s0.07-0.063 0-0.244l-3.11-14.372c-0.07-0.196-0.14-0.196-0.14-0.196zm-103.95 0.196s-0.063 0-0.126 0.118l-6.258 14.072c-0.126 0.182-0.063 0.3-0.063 0.3s0.063 0.063 0.377 0.063l9.195 0.063c0.07 0 0.14-0.063 0.14-0.063s0.055-0.063 0-0.251l-3.189-14.184c0-0.118-0.076-0.118-0.076-0.118zm-32.059 30.907c-0.055 0.502-0.307 0.872-0.307 0.872s-0.251 0.237-0.697 0.363c-5.993 2.413-12.698 1.611-12.698 1.611-10.835-1.179-17.728-7.744-19.912-16.235-3.265-12.697 3.189-21.732 4.752-23.665 3.816-4.514 9.76-7.737 15.593-8.477 7.444-1.046 12.962 0.691 15.223 1.431 0 0 2.498 0.802 4.381 2.044 0.942 0.621 1.061 0.865 1.061 0.865s0.063 0.126-0.196 1.116l-1.758 9.098c-0.056 0.377-0.307 0.558-0.307 0.558s-0.125 0.07-0.997-0.488c-5.645-3.977-12.224-3.468-12.224-3.468-4.995 0.3-10.828 2.896-12.572 9.475-1.563 5.818 0.063 10.709 3.572 13.625 2.372 2.044 6.077 3.091 9.963 2.91 4.249-0.314 7.626-1.982 7.368-1.863 0 0 0.188-0.056 0.383-0.126 0.879-0.439 1.075-0.37 1.075-0.37s0.174 0.182 0.056 0.74z" stroke-width="6.9767" fill="#fff"/></svg>
