<?xml version="1.0" encoding="UTF-8" standalone="no"?>
<!-- Created with Inkscape (http://www.inkscape.org/) -->

<svg
   xmlns:dc="http://purl.org/dc/elements/1.1/"
   xmlns:cc="http://creativecommons.org/ns#"
   xmlns:rdf="http://www.w3.org/1999/02/22-rdf-syntax-ns#"
   xmlns:svg="http://www.w3.org/2000/svg"
   xmlns="http://www.w3.org/2000/svg"
   version="1.1"
   width="599.99963"
   height="180.11749"
   id="svg125645">
  <defs
     id="defs125647">
    <clipPath
       id="clipPath109929">
      <path
         d="m 419.757,279.538 27.822,0 0,7.506 -27.822,0 0,-7.506 z"
         id="path109931" />
    </clipPath>
    <clipPath
       id="clipPath109929-9">
      <path
         d="m 419.757,279.538 27.822,0 0,7.506 -27.822,0 0,-7.506 z"
         id="path109931-1" />
    </clipPath>
    <clipPath
       id="clipPath109913">
      <path
         d="m 423.719,280.304 19.898,0 0,5.974 -19.898,0 0,-5.974 z"
         id="path109915" />
    </clipPath>
    <clipPath
       id="clipPath109873">
      <path
         d="m 419.757,279.538 27.822,0 0,7.506 -27.822,0 0,-7.506 z"
         id="path109875" />
    </clipPath>
    <clipPath
       id="clipPath109859">
      <path
         d="m 423.719,280.304 19.898,0 0,5.974 -19.898,0 0,-5.974 z"
         id="path109861" />
    </clipPath>
    <clipPath
       id="clipPath109839">
      <path
         d="m 419.757,279.538 27.822,0 0,7.506 -27.822,0 0,-7.506 z"
         id="path109841" />
    </clipPath>
  </defs>
  <metadata
     id="metadata125650">
    <rdf:RDF>
      <cc:Work
         rdf:about="">
        <dc:format>image/svg+xml</dc:format>
        <dc:type
           rdf:resource="http://purl.org/dc/dcmitype/StillImage" />
        <dc:title></dc:title>
      </cc:Work>
    </rdf:RDF>
  </metadata>
  <g
     transform="translate(-89.306576,-376.41488)"
     id="layer1">
    <g
       transform="matrix(30.153766,0,0,-30.153766,-12687.417,9008.7747)"
       id="g109835">
      <g
         clip-path="url(#clipPath109839)"
         id="g109837">
        <g
           transform="translate(443.617,280.7907)"
           id="g109843">
          <path
             d="m 0,0 -0.268,3.062 -5.601,0 0.31,-3.548 L 0,0 z"
             id="path109845"
             style="fill:#8d198f;fill-opacity:1;fill-rule:nonzero;stroke:none" />
        </g>
        <g
           transform="translate(439.2287,280.94929)"
           id="g109847">
          <path
             d="m 0,0 -0.596,1.565 0.259,0 0.339,-0.909 0.338,0.909 0.26,0 L 0,0 z"
             id="path109849"
             style="fill:#ffffff;fill-opacity:1;fill-rule:nonzero;stroke:none" />
        </g>
        <g
           transform="translate(440.7231,282.3044)"
           id="g109851">
          <path
             d="m 0,0 c -0.268,0 -0.486,-0.218 -0.486,-0.486 0,-0.274 0.216,-0.498 0.481,-0.498 0.27,0 0.489,0.221 0.489,0.491 C 0.484,-0.221 0.267,0 0,0 m -0.001,-1.214 c -0.394,0 -0.727,0.325 -0.727,0.709 0,0.407 0.324,0.737 0.723,0.737 0.404,0 0.732,-0.325 0.732,-0.725 0,-0.397 -0.327,-0.721 -0.728,-0.721"
             id="path109853"
             style="fill:#ffffff;fill-opacity:1;fill-rule:nonzero;stroke:none" />
        </g>
      </g>
    </g>
    <g
       transform="matrix(30.153766,0,0,-30.153766,-12687.417,9008.7747)"
       id="g109855">
      <g
         clip-path="url(#clipPath109859)"
         id="g109857">
        <g
           transform="translate(442.0667,281.34331)"
           id="g109863">
          <path
             d="m 0,0 0.08,0 c 0.306,0 0.505,0.185 0.505,0.47 0,0.286 -0.199,0.47 -0.505,0.47 L 0,0.94 0,0 z m 0.073,-0.23 -0.314,0 0,1.401 0.316,0 c 0.219,0 0.376,-0.05 0.51,-0.163 C 0.741,0.876 0.828,0.685 0.828,0.47 0.828,0.253 0.741,0.067 0.578,-0.068 0.441,-0.183 0.295,-0.23 0.073,-0.23"
             id="path109865"
             style="fill:#ffffff;fill-opacity:1;fill-rule:nonzero;stroke:none" />
        </g>
        <path
           d="m 423.719,282.832 18.367,0 0,3.061 -18.367,0 0,-3.061 z"
           id="path109867"
           style="fill:#191a21;fill-opacity:1;fill-rule:nonzero;stroke:none" />
      </g>
    </g>
    <g
       transform="matrix(30.153766,0,0,-30.153766,-12687.417,9008.7747)"
       id="g109869">
      <g
         clip-path="url(#clipPath109873)"
         id="g109871">
        <g
           transform="translate(440.60761,283.455)"
           id="g109877">
          <path
             d="m 0,0 -0.519,0 0.445,0.809 -0.632,1.094 0.537,0 0.35,-0.648 0.342,0.648 0.53,0 L 0,0 z"
             id="path109879"
             style="fill:#ffffff;fill-opacity:1;fill-rule:nonzero;stroke:none" />
        </g>
        <g
           transform="translate(425.7227,283.5255)"
           id="g109881">
          <path
             d="m 0,0 c -0.003,-0.021 -0.013,-0.037 -0.013,-0.037 0,0 -0.011,-0.01 -0.029,-0.015 -0.251,-0.102 -0.53,-0.068 -0.53,-0.068 -0.452,0.049 -0.739,0.326 -0.831,0.684 -0.136,0.536 0.134,0.917 0.199,0.998 0.159,0.191 0.407,0.327 0.65,0.358 0.311,0.044 0.541,-0.029 0.635,-0.06 0,0 0.104,-0.034 0.183,-0.086 0.039,-0.027 0.044,-0.037 0.044,-0.037 0,0 0.003,-0.005 -0.008,-0.047 L 0.228,1.306 C 0.225,1.29 0.214,1.282 0.214,1.282 0.214,1.282 0.209,1.28 0.172,1.303 -0.063,1.47 -0.337,1.45 -0.337,1.45 -0.546,1.437 -0.789,1.327 -0.862,1.05 -0.927,0.805 -0.859,0.598 -0.713,0.475 -0.614,0.389 -0.46,0.344 -0.298,0.353 c 0.178,0.012 0.319,0.083 0.309,0.078 0,0 0.007,0.002 0.015,0.005 0.037,0.018 0.045,0.016 0.045,0.016 0,0 0.007,-0.008 0.002,-0.032 L 0,0"
             id="path109883"
             style="fill:#ffffff;fill-opacity:1;fill-rule:nonzero;stroke:none" />
        </g>
        <g
           transform="translate(429.78011,283.4565)"
           id="g109885">
          <path
             d="m 0,0 -0.469,0 -0.015,0 c 0,0 -0.002,0.002 -0.005,0.005 l -0.65,1.154 c -0.005,0.006 -0.008,0.006 -0.008,0.006 0,0 -0.005,0 -0.005,-0.008 L -1.313,0.023 C -1.316,0.01 -1.318,0.008 -1.318,0.008 c 0,0 -0.006,-0.003 -0.013,-0.003 l -0.466,0 c -0.008,0 -0.013,0.005 -0.013,0.005 0,0 -0.01,0.01 -0.008,0.021 l 0.256,1.835 c 0.003,0.01 0.008,0.013 0.008,0.013 0,0 0.008,0.008 0.015,0.008 l 0.52,0 c 0.008,0 0.013,-0.005 0.013,-0.005 0,0 0.005,-0.003 0.008,-0.011 l 0.586,-1.029 c 0.01,-0.02 0.018,-0.018 0.018,-0.018 0,0 0.007,0 0.012,0.023 l 0.149,1.024 c 0,0.008 0.005,0.011 0.005,0.011 0,0 0.003,0.002 0.01,0.002 l 0.49,0 c 0.01,0 0.012,-0.005 0.012,-0.005 0,0 0.003,-0.003 0.003,-0.008 L 0.023,0.02 C 0.02,0.01 0.015,0.002 0.015,0.002 0.015,0.002 0.013,0 0,0"
             id="path109887"
             style="fill:#ffffff;fill-opacity:1;fill-rule:nonzero;stroke:none" />
        </g>
        <g
           transform="translate(427.1772,284.2011)"
           id="g109889">
          <path
             d="M 0,0 C 0,0 -0.003,-0.002 -0.005,-0.002 L -0.381,0 c -0.013,0 -0.016,0.003 -0.016,0.003 0,0 -0.002,0.005 0.003,0.013 l 0.256,0.581 c 0.003,0.005 0.005,0.005 0.005,0.005 0,0 0.003,0 0.003,-0.005 L 0,0.01 C 0.003,0.003 0,0 0,0 m 0.237,1.127 c -0.003,0.007 -0.005,0.01 -0.005,0.01 0,0 -0.008,0.008 -0.018,0.008 l -0.586,0 -0.018,0 c 0,0 -0.008,-0.003 -0.013,-0.013 l -0.919,-1.849 c -0.005,-0.01 -0.003,-0.018 -0.003,-0.018 0,0 0.003,-0.007 0.018,-0.005 l 0.53,0 c 0.008,0 0.015,0.005 0.015,0.005 0,0 0.003,0.003 0.008,0.013 l 0.128,0.274 c 0.008,0.018 0.018,0.026 0.018,0.026 0,0 0.008,0.01 0.021,0.01 l 0.642,0 0.008,0 c 0,0 0.005,-0.002 0.005,-0.01 L 0.14,-0.717 c 0.002,-0.018 0.005,-0.02 0.005,-0.02 0,0 0.008,-0.004 0.018,-0.004 l 0.455,0 c 0.006,0 0.008,0.004 0.008,0.004 0,0 0.005,0.002 0.005,0.01 L 0.237,1.127"
             id="path109891"
             style="fill:#ffffff;fill-opacity:1;fill-rule:nonzero;stroke:none" />
        </g>
        <g
           transform="translate(430.7993,284.1553)"
           id="g109893">
          <path
             d="m 0,0 c -0.008,0 -0.013,0.006 -0.01,0.014 l 0.196,0.571 c 0.002,0.008 0.007,0.008 0.009,0 L 0.387,0.015 C 0.389,0.006 0.385,0 0.376,0 L 0,0 z m -0.058,1.189 c -0.009,0 -0.018,-0.007 -0.021,-0.015 l -0.715,-1.86 c -0.003,-0.008 0.002,-0.015 0.01,-0.015 l 0.488,0 c 0.009,0 0.018,0.007 0.021,0.014 l 0.118,0.3 c 0.003,0.007 0.012,0.014 0.02,0.014 l 0.647,0 c 0.009,0 0.018,-0.007 0.021,-0.014 l 0.113,-0.299 c 0.003,-0.008 0.012,-0.015 0.02,-0.015 l 0.494,0 c 0.009,0 0.013,0.007 0.01,0.015 L 0.466,1.174 C 0.463,1.182 0.454,1.189 0.445,1.189 l -0.503,0"
             id="path109895"
             style="fill:#ffffff;fill-opacity:1;fill-rule:nonzero;stroke:none" />
        </g>
        <g
           transform="translate(432.6519,283.9445)"
           id="g109897">
          <path
             d="m 0,0 c 0,-0.009 0.008,-0.017 0.017,-0.017 l 0.516,0 c 0.009,0 0.017,-0.008 0.017,-0.018 l 0,-0.44 c 0,-0.01 -0.008,-0.018 -0.017,-0.018 l -1.077,0 c -0.01,0 -0.018,0.008 -0.018,0.018 l 0,1.882 c 0,0.009 0.008,0.017 0.018,0.017 l 0.527,0 C -0.008,1.424 0,1.416 0,1.407 L 0,0"
             id="path109899"
             style="fill:#ffffff;fill-opacity:1;fill-rule:nonzero;stroke:none" />
        </g>
        <g
           transform="translate(437.83141,283.4519)"
           id="g109901">
          <path
             d="m 0,0 -1.042,0 0.234,1.906 0.483,0 -0.183,-1.487 0.559,0 L 0,0 z"
             id="path109903"
             style="fill:#ffffff;fill-opacity:1;fill-rule:nonzero;stroke:none" />
        </g>
        <g
           transform="translate(438.97839,284.7682)"
           id="g109905">
          <path
             d="m 0,0 -0.209,-0.608 0.412,0 L 0,0 z m 0.463,-1.316 -0.125,0.33 -0.684,0 -0.129,-0.33 -0.524,0 0.732,1.905 0.539,0 0.719,-1.905 -0.528,0 z"
             id="path109907"
             style="fill:#ffffff;fill-opacity:1;fill-rule:nonzero;stroke:none" />
        </g>
      </g>
    </g>
    <g
       transform="matrix(30.153766,0,0,-30.153766,-12687.417,9008.7747)"
       id="g109909">
      <g
         clip-path="url(#clipPath109913)"
         id="g109911">
        <g
           transform="translate(436.2153,284.7213)"
           id="g109917">
          <path
             d="m 0,0 c 0,0.16 -0.089,0.239 -0.27,0.239 l -0.165,0 0,-0.476 0.163,0 C -0.091,-0.237 0,-0.158 0,0 m 0.519,0.005 c 0,-0.427 -0.214,-0.641 -0.643,-0.641 l -0.311,0 0,-0.633 -0.496,0 0,1.907 0.789,0 c 0.203,0 0.361,-0.053 0.475,-0.16 C 0.458,0.361 0.519,0.203 0.519,0.005"
             id="path109919"
             style="fill:#ffffff;fill-opacity:1;fill-rule:nonzero;stroke:none" />
        </g>
        <g
           transform="translate(433.3284,283.03439)"
           id="g109921">
          <path
             d="M 0,0 0,3.244 2.782,1.621 0,0 z"
             id="path109923"
             style="fill:#191a21;fill-opacity:1;fill-rule:nonzero;stroke:none" />
        </g>
      </g>
    </g>
    <g
       transform="matrix(30.153766,0,0,-30.153766,-12687.417,9008.7747)"
       id="g109925">
      <g
         clip-path="url(#clipPath109929-9)"
         id="g109927">
        <g
           transform="translate(433.4958,285.98669)"
           id="g109933">
          <path
             d="M 0,0 0,-2.661 2.282,-1.332 0,0 z"
             id="path109935"
             style="fill:#8d198f;fill-opacity:1;fill-rule:nonzero;stroke:none" />
        </g>
      </g>
    </g>
  </g>
</svg>
