<?xml version="1.0" encoding="UTF-8" standalone="no"?>
<svg xmlns:rdf="http://www.w3.org/1999/02/22-rdf-syntax-ns#" xmlns="http://www.w3.org/2000/svg" enable-background="new 0 0 86 32" xml:space="preserve" height="232.27" viewBox="0 0 600 232.26738" width="600" version="1.1" y="0px" x="0px" xmlns:cc="http://creativecommons.org/ns#" xmlns:dc="http://purl.org/dc/elements/1.1/"><rect height="154.84" width="600" y="77.422" x="0" stroke-width=".77419" fill="#ff6419"/><rect height="77.422" width="309.69" y="0" x="0" stroke-width=".77419"/><g fill="#fff"><g stroke-width=".77419"><path d="m57.46 18.991c0.136-0.64 0.194-1.009 0.194-1.126 0-0.408-0.194-0.718-0.544-0.951-4.408-2.874-9.767-4.311-16.078-4.311-7.923 0-14.487 2.485-19.672 7.456-5.165 4.991-7.728 11.302-7.728 18.934 0 7.379 2.369 13.36 7.127 17.943 4.718 4.582 10.932 6.854 18.622 6.854 4.272 0 7.632-0.737 10.059-2.194 0.466-0.272 0.777-0.874 0.893-1.845 0 0 1.321-9.165 1.36-9.534 0.097-0.719-0.311-0.622-2.175-0.02-3.632 1.049-6.603 1.573-8.933 1.573-3.69 0-6.758-1.223-9.166-3.728-2.408-2.486-3.631-5.651-3.631-9.496 0-4.136 1.379-7.515 4.117-10.117 2.757-2.622 6.292-3.923 10.7-3.923 4.233 0 7.845 0.971 10.893 2.894 0.933 0.602 1.496 0.893 1.709 0.893 0.311 0 0.525-0.466 0.699-1.379z"/><path d="m93.987 15.263c-0.136-0.68-0.467-1.01-1.088-1.01h-14.622c-0.66 0-1.165 0.292-1.457 0.894l-22.525 45.556c-0.078 0.252-0.117 0.446-0.117 0.563 0 0.33 0.175 0.447 0.505 0.447h12.273c0.757 0 1.242-0.253 1.514-0.758l3.146-6.524c0.272-0.505 0.68-0.758 1.282-0.758h15.438c0.582 0 0.932 0.272 1.009 0.816l1.651 6.583c0.097 0.427 0.388 0.641 0.893 0.641h10.931c0.41 0 0.57-0.195 0.57-0.564v-0.271zm-7.729 27.788h-9.185c-0.291 0-0.427-0.077-0.427-0.194l0.116-0.388 6.117-13.924c0.155-0.252 0.252-0.388 0.35-0.427 0.116 0.078 0.233 0.292 0.31 0.622l3.224 13.496c0.097 0.33 0.136 0.505 0.136 0.563 0 0.155-0.214 0.252-0.641 0.252"/><path d="m109.42 61.072c0 0.427 0.37 0.641 1.09 0.641h10.59c0.56 0 0.91-0.292 1-0.894l3.79-27.069c0.08-0.563 0.16-0.835 0.2-0.835 0.13 0.077 0.29 0.291 0.48 0.64l15.54 27.264c0.33 0.602 0.83 0.894 1.49 0.894h10.84c0.72 0 1.12-0.253 1.2-0.758l6.33-46.003c0-0.466-0.27-0.699-0.83-0.699h-11.19c-0.78 0-1.18 0.311-1.26 0.952l-3.44 24.545c-0.08 0.641-0.17 0.952-0.31 0.952-0.12 0-0.31-0.233-0.56-0.7l-14.16-24.855c-0.37-0.602-0.85-0.894-1.51-0.894h-12.02c-0.6 0-0.94 0.272-1.03 0.816z"/><path d="m209.72 60.703-9.55-45.498c-0.12-0.641-0.49-0.952-1.13-0.952h-13.92c-0.68 0-1.17 0.272-1.4 0.816l-22.41 45.75c-0.12 0.253-0.19 0.428-0.19 0.583 0 0.214 0.17 0.311 0.52 0.311h12.14c0.64 0 1.09-0.233 1.32-0.699l3.44-6.642c0.23-0.466 0.68-0.699 1.3-0.699h14.62c0.76 0 1.22 0.35 1.32 1.01l1.2 6.136c0.16 0.602 0.53 0.894 1.23 0.894h10.81c0.51 0 0.78-0.117 0.78-0.389 0-0.291-0.04-0.505-0.08-0.621m-16.39-18.118c0 0.291-0.23 0.447-0.7 0.447h-8.54c-0.52 0-0.82-0.136-0.82-0.408 0-0.136 0.06-0.311 0.16-0.563l6.17-13.982c0.2-0.349 0.32-0.543 0.39-0.582 0.1 0.078 0.18 0.272 0.27 0.582l3.03 13.846c0 0.039 0.02 0.155 0.06 0.311v0.349z"/><path d="m222.44 14.234c-0.46 0-0.74 0.33-0.81 1.01l-6.59 45.944c0 0.33 0.2 0.505 0.55 0.505h26.58c0.54 0 0.87-0.252 0.95-0.757l1.26-9.302c0-0.427-0.21-0.641-0.64-0.641h-12.68c-0.52 0-0.77-0.233-0.77-0.699v-0.116l4.73-35.381c0-0.388-0.21-0.563-0.62-0.563z"/><path d="m277.63 43.809c0-0.564 0.27-0.835 0.82-0.835h15.72c0.45 0 0.66-0.253 0.66-0.738v-12.933c0-0.544-0.21-0.816-0.66-0.816h-15.88c-0.43 0-0.64-0.291-0.64-0.893v-14.603c0-0.427-0.27-0.641-0.82-0.641h-12.91c-0.41 0-0.64 0.214-0.64 0.641v14.603c0 0.602-0.25 0.893-0.76 0.893h-16.95c-0.45 0-0.68 0.233-0.68 0.699v12.972c0 0.544 0.25 0.816 0.76 0.816h16.81c0.55 0 0.82 0.31 0.82 0.951v17.03c0 0.505 0.25 0.758 0.7 0.758h12.97c0.47 0 0.7-0.292 0.7-0.894v-17.01z"/><path d="m50.139 177.64h5.185c7.69 0 13.807-2.29 18.389-6.85 4.486-4.51 6.739-10.47 6.739-17.93 0-7.43-2.233-13.41-6.739-17.9-4.582-4.58-10.699-6.85-18.389-6.85h-5.185zm-22.972 19.46v-88.49h33.788c7.341 0 14.312 1.92 20.914 5.77 7.03 4.05 12.584 9.65 16.7 16.75 3.961 6.84 5.941 14.1 5.941 21.79 0 7.63-1.96 14.88-5.882 21.71-4.098 7.09-9.671 12.68-16.7 16.76-6.564 3.81-13.535 5.71-20.973 5.71z"/><path d="m156.44 158.86c-1.96-6.36-6.08-9.57-12.45-9.57-6.49 0-10.49 3.21-11.98 9.57zm19.71 12.28h-44.72c0.23 5.03 1.51 8.58 3.84 10.66 2.16 1.86 5.21 2.81 9.11 2.81 2.99 0 5.36-0.64 7.09-1.9 1.03-0.78 2.13-2.02 3.28-3.75h20.58c-1.38 4.35-2.91 7.56-4.6 9.63-6 7.27-14.84 10.9-26.51 10.9-10.79 0-19.32-3.13-25.55-9.34-5.83-5.69-8.7-13.21-8.7-22.53 0-10.13 3.22-18.1 9.67-23.84 6-5.34 13.9-8.02 23.75-8.02 10.74 0 19.05 3.26 24.87 9.74 5.27 5.83 7.91 13.64 7.91 23.38v2.26z"/><path d="m219.28 153.68c-3.77 0-6.99 1.34-9.69 4.04-2.61 2.64-3.91 5.81-3.91 9.49 0 3.73 1.32 6.92 3.96 9.56 2.74 2.74 6 4.1 9.81 4.1s7.07-1.34 9.79-4.02c2.64-2.66 3.92-5.83 3.92-9.52 0-3.73-1.32-6.93-3.98-9.61-2.64-2.72-5.94-4.04-9.9-4.04m-13.03 69.73h-21.25v-85.98h21.25v6.62c0.81-0.95 1.57-1.81 2.25-2.58 4.39-3.97 9.84-5.95 16.43-5.95 8.29 0 15.34 2.92 21.14 8.78 6.1 6.14 9.15 13.83 9.15 23.09 0 9.22-3.03 16.87-9.15 22.99-5.72 5.77-12.7 8.64-20.93 8.64-3.9 0-7.63-0.72-11.17-2.13-2.4-0.96-4.99-2.86-7.7-5.65v32.17z"/><path d="m297.44 153.45c-3.71 0-6.9 1.34-9.58 4.04-2.7 2.64-4.04 5.82-4.04 9.55 0 3.88 1.34 7.17 4.04 9.85 2.66 2.66 5.87 3.98 9.62 3.98 3.78 0 7.01-1.34 9.69-4.02 2.68-2.66 4.03-5.89 4.03-9.69 0-3.81-1.34-7.03-3.98-9.67-2.66-2.7-5.92-4.04-9.78-4.04m0.21-18.3c7.65 0 14.51 1.73 20.56 5.19 4.98 2.85 8.78 6.62 11.48 11.3 2.7 4.64 4.04 9.85 4.04 15.61 0 8.68-2.89 15.95-8.68 21.77-3.32 3.26-7.3 5.79-12 7.56-4.84 1.84-10.06 2.77-15.59 2.77-11.38 0-20.55-3.47-27.44-10.37-5.83-5.76-8.7-12.85-8.7-21.26 0-8.91 3.01-16.39 8.99-22.41 6.66-6.74 15.79-10.16 27.34-10.16"/><path d="m342.82 137.43h21.24v9.8c3.19-5.38 8-8.74 14.41-10.1 3.19-0.56 6.35-0.66 9.5-0.27v20.04c-3.15-1.41-6.08-2.13-8.8-2.13-4.62 0-8.29 1.34-10.95 4.04-1.54 1.49-2.62 3.2-3.23 5.12-0.62 1.89-0.93 4.41-0.93 7.61v25.58h-21.24z"/></g><polygon points="410.42 77.729 410.06 77.729 410.06 76.825 410.42 76.825 410.42 75.9 411.52 75.9 411.52 76.825 412.14 76.825 412.14 77.729 411.52 77.729 411.52 79.898 410.42 79.898" transform="matrix(19.419 0 0 19.419 -7569.6 -1354.4)"/><path d="m482.24 158.86c-1.96-6.36-6.09-9.57-12.44-9.57-6.49 0-10.47 3.21-11.98 9.57zm19.71 12.28h-44.7c0.24 5.03 1.52 8.58 3.85 10.66 2.15 1.86 5.18 2.81 9.11 2.81 2.99 0 5.35-0.64 7.08-1.9 1.05-0.78 2.12-2.02 3.28-3.75h20.57c-1.36 4.35-2.89 7.56-4.58 9.63-6.02 7.27-14.84 10.9-26.51 10.9-10.78 0-19.3-3.13-25.57-9.34-5.81-5.69-8.68-13.21-8.68-22.53 0-10.13 3.22-18.1 9.67-23.84 6-5.34 13.9-8.02 23.74-8.02 10.76 0 19.04 3.26 24.88 9.74 5.26 5.83 7.88 13.64 7.88 23.38v2.26z" stroke-width=".77419"/><path d="m557.86 139.21-7.16 13.65c-4.08-1.94-7.95-2.93-11.62-2.93-2.07 0-3.76 0.51-5.01 1.5-0.95 0.77-1.43 1.69-1.43 2.75 0 1.93 1.86 3.33 5.53 4.16l0.86 0.18c1.41 0.34 3.08 0.73 5.01 1.14 3.84 0.82 7.01 2.18 9.45 4.1 4.08 3.2 6.1 7.59 6.1 13.18 0 8.08-3.52 14.12-10.53 18.16-4.95 2.84-10.91 4.27-17.94 4.27-7.92 0-15.98-2.33-24.12-6.97l7.65-14.87c6.32 4.11 11.97 6.15 17.02 6.15 2.01 0 3.72-0.5 5.06-1.55 1.09-0.84 1.62-1.85 1.62-3.05 0-1.19-0.59-2.27-1.79-3.28-0.82-0.66-3.22-1.4-7.26-2.24-5.81-1.28-10.02-2.93-12.68-4.97-3.34-2.6-5.01-6.44-5.01-11.51 0-8.14 3.34-14.12 10.04-17.93 4.52-2.56 10.05-3.86 16.54-3.86 3.03 0 6.45 0.33 10.25 0.99 2.51 0.39 5.67 1.36 9.42 2.93" stroke-width=".77419"/></g></svg>
