<?xml version="1.0" encoding="UTF-8" standalone="no"?>
<svg xmlns:rdf="http://www.w3.org/1999/02/22-rdf-syntax-ns#" xmlns="http://www.w3.org/2000/svg" height="257.14" width="600" version="1.1" xmlns:cc="http://creativecommons.org/ns#" xmlns:dc="http://purl.org/dc/elements/1.1/" viewBox="0 0 158.75 68.035109">
 <g transform="translate(-73.326 -265.25)">
  <path d="m232.08 333.28h-158.75v-45.35h158.75z" fill="#e20026"/>
  <g fill="#fff">
   <path d="m81.28 323v-25.92h14.722v5.7h-7.982v4.32h7.569v5.7h-7.569v4.5h7.982v5.7z"/>
   <path d="m113.66 317.09c0 3.09-1.63 5.13-4.9 6.12-0.99 0.3-2.15 0.44-3.46 0.44-2.38 0-4.72-0.67-7.05-2.03l2.24-4.36c1.83 1.2 3.49 1.8 4.98 1.8 0.46 0 0.89-0.1 1.28-0.31 0.46-0.25 0.69-0.6 0.69-1.04 0-0.34-0.12-0.62-0.36-0.84s-0.67-0.41-1.29-0.57c-0.1-0.03-0.23-0.06-0.39-0.09-0.16-0.04-0.36-0.07-0.62-0.12-1.66-0.35-2.88-0.82-3.66-1.42-1.01-0.8-1.523-1.96-1.523-3.46 0-2.11 0.803-3.74 2.423-4.87 1.4-0.96 3.21-1.45 5.42-1.45 1.84 0 3.43 0.24 4.74 0.73 0.14 0.04 0.29 0.1 0.45 0.17s0.33 0.15 0.51 0.24l-2.1 4.01c-0.93-0.48-1.83-0.76-2.74-0.83-0.11-0.02-0.22-0.04-0.34-0.04h-0.31c-1.27 0-1.9 0.42-1.9 1.25 0 0.53 0.47 0.92 1.42 1.18 0.04 0.02 0.12 0.04 0.22 0.05 0.11 0.01 0.23 0.04 0.36 0.09l0.8 0.17c1.52 0.32 2.62 0.76 3.32 1.31 1.19 0.92 1.79 2.21 1.79 3.87"/>
   <path d="m123.76 310.66v12.34h-6.23v-12.34h-2.04v-5.15h2.04v-5.25h6.23v5.25h3.55v5.15z"/>
   <path d="m142.83 311.22-0.69-0.32c-0.55-0.2-1.21-0.31-1.97-0.31-1.31 0-2.37 0.4-3.16 1.2-0.8 0.79-1.19 2.03-1.19 3.71v7.5h-6.22v-17.49h6.22v2.87c0.6-0.92 1.2-1.58 1.8-1.97 1.1-0.76 2.45-1.14 4.04-1.14h0.52c0.07 0 0.15 0.01 0.26 0.02 0.1 0.01 0.23 0.03 0.39 0.05z"/>
   <path d="m158.18 311.8c-0.48-1.87-1.69-2.8-3.63-2.8-1.98 0-3.16 0.93-3.52 2.8zm-7.33 3.6c0.03 2.63 1.29 3.94 3.81 3.94 1.28 0 2.3-0.56 3.04-1.66h6.01c-0.37 1.27-0.9 2.3-1.59 3.11-1.71 1.94-4.2 2.9-7.5 2.9-3.06 0-5.51-0.84-7.33-2.52s-2.73-3.94-2.73-6.77c0-2.88 0.88-5.17 2.63-6.85s4.15-2.52 7.19-2.52c2.97 0 5.31 0.86 7.02 2.59 1.7 1.75 2.55 4.12 2.55 7.12v0.66z"/>
   <path d="m178.98 323v-10.02c0-1.2-0.45-2.05-1.38-2.56-0.46-0.25-0.96-0.38-1.48-0.38-2.19 0-3.29 1.2-3.29 3.59v9.37h-6.22v-17.49h6.22v2.21c1.53-1.72 3.41-2.59 5.67-2.59 2.12 0 3.81 0.64 5.08 1.9 1.08 1.09 1.63 2.7 1.63 4.84v11.13z"/>
   <path d="m202.49 314.22c0-1.13-0.4-2.07-1.18-2.83-0.78-0.78-1.73-1.18-2.83-1.18-1.11 0-2.05 0.4-2.84 1.18-0.78 0.78-1.17 1.71-1.17 2.8 0 0.55 0.1 1.07 0.31 1.57s0.49 0.93 0.85 1.29c0.35 0.38 0.78 0.66 1.28 0.87 0.49 0.21 1.01 0.31 1.57 0.31 1.1 0 2.05-0.39 2.83-1.18 0.78-0.78 1.18-1.72 1.18-2.83m6.6 0.04c0 2.92-1.07 5.25-3.22 6.98-1.98 1.61-4.44 2.42-7.39 2.42-3.07 0-5.6-0.87-7.61-2.59-2-1.76-3-3.97-3-6.64 0-2.97 1.05-5.33 3.14-7.09 1.96-1.65 4.42-2.48 7.36-2.48 3.18 0 5.75 0.87 7.71 2.62 2 1.78 3.01 4.04 3.01 6.78"/>
   <path d="m226.09 317.09c0 3.09-1.63 5.13-4.91 6.12-0.98 0.3-2.14 0.44-3.45 0.44-2.38 0-4.72-0.67-7.05-2.03l2.24-4.36c1.82 1.2 3.48 1.8 4.98 1.8 0.46 0 0.89-0.1 1.28-0.31 0.46-0.25 0.69-0.6 0.69-1.04 0-0.34-0.12-0.62-0.36-0.84s-0.67-0.41-1.3-0.57c-0.09-0.03-0.22-0.06-0.38-0.09-0.16-0.04-0.37-0.07-0.62-0.12-1.66-0.35-2.88-0.82-3.66-1.42-1.02-0.8-1.52-1.96-1.52-3.46 0-2.11 0.8-3.74 2.41-4.87 1.41-0.96 3.22-1.45 5.43-1.45 1.84 0 3.42 0.24 4.74 0.73 0.14 0.04 0.29 0.1 0.44 0.17 0.17 0.07 0.34 0.15 0.53 0.24l-2.11 4.01c-0.93-0.48-1.84-0.76-2.74-0.83-0.11-0.02-0.23-0.04-0.34-0.04h-0.31c-1.27 0-1.9 0.42-1.9 1.25 0 0.53 0.47 0.92 1.41 1.18 0.05 0.02 0.13 0.04 0.23 0.05s0.23 0.04 0.36 0.09l0.8 0.17c1.52 0.32 2.62 0.76 3.32 1.31 1.19 0.92 1.79 2.21 1.79 3.87"/>
  </g>
  <path d="m73.326 265.25h90.714v22.68h-90.714z"/>
  <g fill="#fff">
   <path d="m90.161 270.81c0.038-0.19 0.054-0.3 0.054-0.34 0-0.11-0.054-0.2-0.167-0.28-1.284-0.83-2.852-1.26-4.708-1.26-2.323 0-4.242 0.73-5.756 2.19s-2.268 3.31-2.268 5.54c0 2.17 0.692 3.92 2.085 5.26 1.389 1.34 3.207 2.01 5.459 2.01 1.247 0 2.227-0.22 2.945-0.65 0.137-0.07 0.225-0.25 0.262-0.54 0 0 0.384-2.68 0.397-2.79 0.029-0.21-0.084-0.18-0.639-0.01-1.063 0.31-1.935 0.47-2.614 0.47-1.089 0-1.982-0.37-2.686-1.1-0.705-0.73-1.06-1.65-1.06-2.78 0-1.21 0.405-2.2 1.206-2.96 0.805-0.77 1.847-1.15 3.132-1.15 1.238 0 2.302 0.28 3.19 0.85 0.271 0.18 0.438 0.26 0.501 0.26 0.087 0 0.154-0.13 0.204-0.4z"/>
   <path d="m100.86 269.71c-0.04-0.19-0.15-0.29-0.32-0.29h-4.279c-0.201 0-0.342 0.08-0.43 0.26l-6.598 13.34c-0.025 0.08-0.037 0.13-0.037 0.17 0 0.09 0.05 0.13 0.15 0.13h3.595c0.221 0 0.371-0.07 0.446-0.22l0.926-1.91c0.075-0.15 0.196-0.22 0.371-0.22h4.521c0.175 0 0.275 0.07 0.3 0.24l0.48 1.92c0.025 0.13 0.115 0.19 0.255 0.19h3.21c0.11 0 0.17-0.06 0.17-0.17v-0.07zm-2.264 8.14h-2.69c-0.083 0-0.129-0.02-0.129-0.05l0.037-0.12 1.798-4.08c0.037-0.07 0.067-0.11 0.092-0.13 0.037 0.03 0.07 0.09 0.095 0.19l0.943 3.95c0.025 0.1 0.038 0.16 0.038 0.16 0 0.05-0.063 0.08-0.184 0.08"/>
   <path d="m105.38 283.13c0 0.13 0.1 0.19 0.32 0.19h3.09c0.17 0 0.27-0.09 0.3-0.26l1.11-7.93c0.03-0.17 0.04-0.24 0.05-0.24 0.04 0.02 0.09 0.08 0.15 0.18l4.55 7.99c0.09 0.17 0.24 0.26 0.44 0.26h3.17c0.21 0 0.33-0.07 0.35-0.22l1.85-13.48c0-0.14-0.07-0.2-0.24-0.2h-3.28c-0.22 0-0.34 0.09-0.37 0.27l-1 7.2c-0.02 0.18-0.05 0.28-0.09 0.28s-0.09-0.07-0.17-0.21l-4.15-7.28c-0.1-0.18-0.25-0.26-0.45-0.26h-3.52c-0.17 0-0.27 0.08-0.29 0.24z"/>
   <path d="m134.76 283.02-2.8-13.33c-0.04-0.18-0.15-0.28-0.33-0.28h-4.08c-0.2 0-0.33 0.09-0.41 0.25l-6.56 13.4c-0.04 0.08-0.06 0.13-0.06 0.17 0 0.06 0.05 0.09 0.15 0.09h3.56c0.19 0 0.32-0.07 0.39-0.21l1-1.94c0.08-0.14 0.21-0.2 0.39-0.2h4.28c0.22 0 0.35 0.09 0.39 0.29l0.36 1.8c0.03 0.17 0.15 0.26 0.35 0.26h3.17c0.15 0 0.22-0.04 0.22-0.11 0-0.09-0.01-0.15-0.02-0.19m-4.8-5.3c0 0.09-0.07 0.13-0.2 0.13h-2.51c-0.16 0-0.24-0.04-0.24-0.11 0-0.04 0.01-0.09 0.04-0.17l1.82-4.09c0.04-0.1 0.08-0.16 0.11-0.17 0.02 0.02 0.05 0.08 0.07 0.17l0.89 4.05c0 0.02 0.01 0.05 0.02 0.1z"/>
   <path d="m138.49 269.42c-0.14 0-0.22 0.1-0.25 0.29l-1.92 13.46c0 0.1 0.05 0.15 0.16 0.15h7.79c0.16 0 0.25-0.07 0.28-0.22l0.37-2.73c0-0.12-0.07-0.19-0.19-0.19h-3.72c-0.15 0-0.23-0.06-0.23-0.2v-0.03l1.4-10.37c0-0.11-0.07-0.16-0.19-0.16z"/>
   <path d="m154.65 278.07c0-0.16 0.08-0.24 0.24-0.24h4.6c0.14 0 0.2-0.07 0.2-0.22v-3.78c0-0.16-0.06-0.24-0.2-0.24h-4.65c-0.13 0-0.19-0.09-0.19-0.26v-4.29c0-0.12-0.08-0.18-0.24-0.18h-3.78c-0.13 0-0.19 0.06-0.19 0.18v4.29c0 0.17-0.07 0.26-0.22 0.26h-4.97c-0.13 0-0.2 0.07-0.2 0.2v3.8c0 0.16 0.07 0.24 0.22 0.24h4.93c0.16 0 0.24 0.1 0.24 0.28v4.99c0 0.14 0.07 0.22 0.21 0.22h3.8c0.13 0 0.2-0.09 0.2-0.26z"/>
  </g>
 </g>
</svg>
