<?xml version="1.0" encoding="UTF-8" standalone="no"?>
<svg xmlns:rdf="http://www.w3.org/1999/02/22-rdf-syntax-ns#" xmlns="http://www.w3.org/2000/svg" height="200.01" width="600" version="1.1" xmlns:cc="http://creativecommons.org/ns#" xmlns:dc="http://purl.org/dc/elements/1.1/" viewBox="0 0 480 160.00471">
 <path d="m0 160h480v-106.67h-480z" fill="#0078eb"/>
 <path d="m0 53.333h293.93v-53.333h-293.93z"/>
 <g fill="#fff">
  <path d="m39.592 13.074 0.127-0.783-0.388-0.656c-3.027-1.976-6.717-2.9638-11.077-2.9638-5.461 0-9.977 1.7078-13.533 5.1438-3.563 3.429-5.3407 7.775-5.3407 13.031 0 5.087 1.6367 9.208 4.9037 12.361 3.274 3.154 7.549 4.728 12.834 4.728 2.935 0 5.249-0.508 6.935-1.524 0.318-0.177 0.523-0.593 0.607-1.263l0.939-6.569c0.07-0.494-0.198-0.43-1.503-0.014-2.498 0.727-4.544 1.094-6.153 1.094-2.547 0-4.656-0.861-6.314-2.576-1.658-1.714-2.484-3.894-2.484-6.54 0-2.851 0.938-5.172 2.829-6.971 1.891-1.806 4.347-2.709 7.366-2.709 2.914 0 5.412 0.677 7.5 2.01 0.642 0.403 1.037 0.607 1.179 0.607 0.204 0 0.366-0.317 0.479-0.959z"/>
  <path d="m64.745 10.502-0.741-0.6984h-10.068l-1.009 0.6134-15.522 31.383-0.078 0.395 0.346 0.304h8.452l1.052-0.522 2.18-4.495 0.868-0.522h10.639l0.699 0.572 1.129 4.529 0.614 0.438h7.542l0.388-0.395v-0.17zm-5.32 19.135h-6.322l-0.303-0.127 0.085-0.268 4.233-9.582 0.212-0.31 0.225 0.437 2.216 9.292 0.091 0.381z"/>
  <path d="m75.383 42.064 0.741 0.438h7.274l0.699-0.607 2.617-18.662 0.134-0.564 0.346 0.43 10.682 18.796 1.044 0.607h7.46l0.82-0.522 4.36-31.701-0.56-0.4725h-7.72l-0.87 0.6565-2.35 16.912-0.223 0.649-0.395-0.48-9.764-17.131-1.045-0.6065h-8.283l-0.698 0.5645z"/>
  <path d="m144.48 41.803-6.58-31.347-0.79-0.6496h-9.59l-0.96 0.5646-15.43 31.517-0.13 0.395 0.35 0.219h8.36l0.92-0.48 2.36-4.579 0.91-0.48h10.07l0.92 0.699 0.83 4.226 0.83 0.614h7.45l0.52-0.261-0.04-0.438m-11.3-12.467-0.47 0.303h-5.88l-0.58-0.261 0.1-0.395 4.26-9.638 0.27-0.388 0.17 0.388 2.09 9.554 0.04 0.218z"/>
  <path d="m153.24 9.8036-0.56 0.6984-4.54 31.651 0.39 0.346h18.32l0.65-0.522 0.87-6.407-0.44-0.437h-8.76l-0.52-0.48v-0.085l3.26-24.376-0.43-0.3884z"/>
  <path d="m191.25 30.162 0.57-0.565h10.81l0.48-0.522v-8.897l-0.48-0.564h-10.94l-0.44-0.614v-10.068l-0.56-0.4379h-8.9l-0.43 0.4375v10.068l-0.53 0.614h-11.67l-0.48 0.479v8.94l0.51 0.564h11.6l0.57 0.649v11.734l0.48 0.522h8.93l0.48-0.614z"/>
  <path d="m60.887 115.66c0 4.49-0.762 8.18-2.279 11.06-1.898 3.62-4.96 6.39-9.179 8.29-3.69 1.62-7.782 2.43-12.284 2.43-4.438 0-9.038-0.98-13.808-2.93-1.192-0.49-2.25-0.96-3.167-1.42-0.932-0.46-1.687-0.91-2.279-1.34l-0.896-0.61-1.052-0.69 6.738-12.68c4.77 4.12 9.434 6.18 13.984 6.18 2.11 0 3.874-0.47 5.285-1.38 1.566-1.09 2.349-2.63 2.349-4.64 0-1.73-0.832-3.19-2.511-4.39-0.706-0.48-1.955-1.03-3.74-1.62l-1.22-0.37c-0.544-0.13-1.221-0.34-2.032-0.61l-3.253-0.97c-1.898-0.54-3.902-1.36-6.011-2.44-4.77-2.44-7.155-6.96-7.155-13.58 0-6.174 1.92-11.134 5.772-14.866 3.789-3.796 8.77-5.694 14.958-5.694 6.66 0 13.109 1.658 19.346 4.96l-6.343 12.361c-3.366-2.773-6.802-4.148-10.322-4.148-1.792 0-3.309 0.423-4.558 1.298-1.51 0.973-2.272 2.3-2.272 3.979 0 1.736 1.108 3.147 3.33 4.226 0.325 0.163 1.115 0.466 2.364 0.896 1.241 0.431 3.005 1.002 5.277 1.708 5.038 1.57 8.728 3.61 11.056 6.1 2.604 2.76 3.902 6.4 3.902 10.89"/>
  <path d="m97.461 109.48c-1.143-4.39-3.986-6.58-8.537-6.58-4.657 0-7.422 2.19-8.29 6.58zm-17.229 8.45c0.056 6.18 3.034 9.26 8.939 9.26 3.034 0 5.412-1.29 7.147-3.9h14.142c-0.86 2.99-2.11 5.43-3.73 7.33-4.02 4.55-9.897 6.82-17.644 6.82-7.21 0-12.947-1.98-17.236-5.93-4.276-3.96-6.414-9.27-6.414-15.93 0-6.78 2.06-12.14 6.174-16.1 4.12-3.951 9.758-5.933 16.912-5.933 6.985 0 12.478 2.032 16.498 6.096 4.01 4.117 6.01 9.697 6.01 16.747v1.54z"/>
  <path d="m148.01 108.1-1.63-0.74c-1.29-0.48-2.84-0.72-4.62-0.72-3.09 0-5.58 0.93-7.45 2.8-1.86 1.87-2.8 4.78-2.8 8.73v17.64h-14.63v-41.126h14.63v6.756c1.41-2.177 2.82-3.722 4.23-4.639 2.6-1.792 5.77-2.681 9.51-2.681h1.22l0.61 0.035 0.93 0.127z"/>
  <path d="m154.52 94.685h14.63v41.125h-14.63zm15.6-12.192c0 1.143-0.22 2.208-0.65 3.21-0.43 1.009-1.03 1.877-1.78 2.604-0.76 0.733-1.65 1.305-2.65 1.7-1 0.409-2.06 0.621-3.21 0.621-2.16 0-4.09-0.79-5.76-2.357-1.64-1.629-2.45-3.527-2.45-5.693 0-1.136 0.22-2.223 0.65-3.253 0.44-1.03 1.02-1.912 1.75-2.639 0.73-0.733 1.6-1.319 2.6-1.749 1-0.431 2.07-0.65 3.21-0.65 1.15 0 2.21 0.219 3.21 0.65 1 0.43 1.89 1.016 2.65 1.749 0.75 0.727 1.35 1.595 1.78 2.597 0.43 1.009 0.65 2.074 0.65 3.21"/>
  <path d="m207.1 109.48c-1.13-4.39-3.98-6.58-8.53-6.58-4.66 0-7.43 2.19-8.29 6.58zm-17.23 8.45c0.05 6.18 3.04 9.26 8.94 9.26 3.04 0 5.42-1.29 7.16-3.9h14.14c-0.87 2.99-2.12 5.43-3.74 7.33-4.02 4.55-9.89 6.82-17.64 6.82-7.21 0-12.95-1.98-17.24-5.93-4.27-3.96-6.42-9.27-6.42-15.93 0-6.78 2.07-12.14 6.18-16.1 4.12-3.951 9.76-5.933 16.91-5.933 6.99 0 12.49 2.032 16.5 6.096 4.01 4.117 6.01 9.697 6.01 16.747v1.54z"/>
  <path d="m258.63 121.91c0 7.26-3.85 12.06-11.54 14.39-2.33 0.71-5.04 1.06-8.13 1.06-5.58 0-11.11-1.6-16.58-4.8l5.28-10.24c4.28 2.82 8.18 4.23 11.71 4.23 1.08 0 2.08-0.24 3.01-0.73 1.08-0.6 1.62-1.41 1.62-2.45 0-0.8-0.28-1.46-0.85-1.99-0.57-0.51-1.58-0.96-3.05-1.34l-0.9-0.2-1.46-0.28c-3.9-0.81-6.77-1.93-8.61-3.33-2.39-1.9-3.58-4.61-3.58-8.13 0-4.99 1.9-8.806 5.69-11.459 3.3-2.279 7.56-3.422 12.76-3.422 4.34 0 8.05 0.571 11.14 1.714l1.05 0.402 1.22 0.572-4.96 9.423c-2.16-1.13-4.3-1.79-6.42-1.95l-0.81-0.07h-0.73c-2.98 0-4.48 0.97-4.48 2.92 0 1.25 1.12 2.17 3.33 2.76l0.54 0.12 0.85 0.21 1.87 0.4c3.58 0.76 6.18 1.79 7.81 3.09 2.81 2.17 4.22 5.2 4.22 9.1"/>
  <path d="m318.21 135.81-13.09-19.83-13.65 19.83h-19.1l23.81-32.51-19.5-28.448h19.5l9.1 15.847 9.44-15.847h19.42l-19.83 28.448 23 32.51z"/>
  <path d="m356.98 106.8v29.01h-14.63v-29.01h-4.8v-12.119h4.8v-12.347h14.63v12.347h8.37v12.119z"/>
  <path d="m401.84 108.1-1.63-0.74c-1.29-0.48-2.84-0.72-4.62-0.72-3.09 0-5.58 0.93-7.45 2.8-1.86 1.87-2.8 4.78-2.8 8.73v17.64h-14.62v-41.126h14.62v6.756c1.41-2.177 2.82-3.722 4.23-4.639 2.6-1.792 5.77-2.681 9.51-2.681h1.22l0.61 0.035 0.93 0.127z"/>
  <path d="m439.23 115.09c0-2.6-0.92-4.82-2.76-6.66-1.85-1.85-4.07-2.77-6.66-2.77-2.61 0-4.83 0.92-6.67 2.77-1.85 1.84-2.76 4.03-2.76 6.58 0 1.3 0.24 2.53 0.73 3.69 0.48 1.17 1.15 2.19 1.99 3.05 0.83 0.87 1.84 1.55 3.01 2.04 1.16 0.48 2.39 0.72 3.7 0.72 2.59 0 4.81-0.92 6.66-2.76 1.84-1.84 2.76-4.06 2.76-6.66m-0.4 20.72v-4.55c-0.77 0.92-1.28 1.49-1.55 1.7-2.83 2.83-6.56 4.23-11.21 4.23-6.13 0-11.17-2.21-15.12-6.66-3.91-4.28-5.86-9.45-5.86-15.52 0-2.17 0.29-4.3 0.86-6.39 0.57-2.08 1.4-4 2.52-5.76 1.11-1.77 2.45-3.353 4.02-4.764 1.57-1.404 3.33-2.54 5.29-3.415 2.6-1.079 5.3-1.615 8.12-1.615 3.95 0 7.21 0.839 9.75 2.511 0.82 0.551 1.87 1.496 3.18 2.851v-4.064h14.63v41.446z"/>
 </g>
 <g>
  <path d="m289.19 4.7625h-75.49v43.864h75.49z" fill="#f00"/>
  <path d="m228.4 22.356h12.25v-12.636h8.48v32.674h-8.48v-13.462h-12.25v13.462h-8.48v-32.674h8.48z" fill="#fff"/>
  <path d="m255.16 42.389v-32.667h12.48c2.71-0.0002 5.28 0.712 7.72 2.131 2.59 1.502 4.64 3.563 6.17 6.187 1.45 2.519 2.19 5.2 2.19 8.036 0 2.83-0.73 5.497-2.17 8.023-1.52 2.617-3.58 4.684-6.17 6.187-2.42 1.404-5.01 2.103-7.74 2.103zm8.48-7.19h1.92c2.83 0 5.09-0.832 6.78-2.526 1.66-1.665 2.49-3.866 2.49-6.618 0-2.744-0.83-4.953-2.49-6.611-1.69-1.693-3.95-2.533-6.78-2.533h-1.92z" fill="#fff"/>
 </g>
</svg>
