<?xml version="1.0" encoding="UTF-8" standalone="no"?>
<svg xmlns:rdf="http://www.w3.org/1999/02/22-rdf-syntax-ns#" xmlns="http://www.w3.org/2000/svg" height="448.35" width="600" version="1.1" xmlns:cc="http://creativecommons.org/ns#" xmlns:dc="http://purl.org/dc/elements/1.1/" viewBox="0 0 158.75 118.62356">
 <g stroke-width=".85546" fill="#a7a5a5" transform="matrix(1.3941 0 0 1.3941 0 -.00051501)">
  <path d="m21.549 84.832h-3.328l-0.504-12.917h-0.043l-6.005 12.917h-1.634l-2.8662-13.26h-0.0428l-3.6614 13.26h-3.4646l5.2782-19.077h3.7726l2.6182 11.977 5.457-11.977h3.662z"/>
  <path d="m34.911 68.92h-6.672l-0.548 4.534h5.869l-0.377 3.166h-5.877l-0.59 5.047h8.418l-0.385 3.165h-11.857l2.284-19.077h10.12z"/>
  <path d="m44.373 65.755c6.467 0 8.358 5.133 8.358 9.325 0 5.646-3.319 9.752-7.64 9.752h-8.366l2.258-19.077zm-3.824 15.912h3.234c3.824 0 5.398-3.337 5.398-6.673s-1.908-6.074-5.467-6.074h-1.668l-1.497 12.747"/>
  <path d="m56.666 84.832h-3.439l2.275-19.077h3.448z"/>
  <path d="m72.184 84.832h-3.542l-0.504-4.192h-5.022l-1.583 4.192h-3.798l7.939-19.333h3.661zm-8.076-6.844h3.747l-0.847-8.469h-0.042z"/>
  <path d="m84.383 70.375c-1.052-0.941-2.78-1.711-4.021-1.711-1.249 0-2.275 0.855-2.275 2.138 0 2.738 5.962 3.08 5.962 8.469 0 3.08-1.856 5.818-5.483 5.818-2.353 0-4.072-0.685-5.518-1.797l0.53-3.336c1.301 1.112 3.217 1.967 4.577 1.967 1.395 0 2.336-0.855 2.336-2.138 0-3.165-5.972-3.508-5.972-8.555 0-3.251 2.43-5.731 5.706-5.731 1.566 0 3.234 0.513 4.637 1.539z"/>
  <path d="m97.215 68.92h-6.664l-0.565 4.534h5.877l-0.385 3.166h-5.86l-0.598 5.047h8.417l-0.385 3.165h-11.856l2.275-19.077h10.129z"/>
  <path d="m113.49 68.92h-5.27l-1.9 15.912h-3.44l1.9-15.912h-5.136l0.386-3.165h13.84z"/>
 </g>
 <g stroke-width="1.3941">
  <path fill="#fff" d="m116.45-0.00076601h-1.04s-4.67 13.895-30.096 13.895h-16.884l-1.446 11.657h49.466z"/>
  <path fill="#fff" d="m114.87 50.799c-10.92-9.306-37.454-4.365-37.454-4.365v-5.407h39.264v-11.77h-52.459l-3.691 27.944 19.276-0.006c2.124-1.547 6.081-2.177 8.121-2.12 6.181 0.177 8.112 1.943 9.233 3.46 1.03 1.386 1.106 3.866 0 5.352-1.469 1.964-4.369 3.502-9.449 3.502-1.937 0-7.628-0.291-10.272-4.697l-17.999-0.008c-0.001 11.309 12.705 15.164 18.206 16.304 0.495 0.102 12.267 2.468 25.714-0.808 8.94-2.181 14.93-7.039 16.43-13.331 1.17-4.96-0.66-10.22-4.92-14.05"/>
  <path fill="#f5520f" d="m61.718 21.998c0-1.768-1.374-3.225-3.1-3.352 0.489-0.583 0.796-1.345 0.796-2.183 0-1.853-1.492-3.355-3.356-3.355-0.824 0-1.577 0.286-2.162 0.775l-0.067 0.16v0.043c-0.116-1.698-1.541-3.04-3.279-3.04-1.733 0-3.137 1.33-3.276 3.016l-0.073-0.176c-0.581-0.477-1.324-0.758-2.136-0.758-1.845 0-3.354 1.503-3.354 3.359 0 0.869 0.33 1.659 0.866 2.25-1.78 0.09-3.197 1.564-3.197 3.358 0 1.792 1.422 3.239 3.197 3.338-0.503 0.588-0.817 1.365-0.817 2.197 0 1.854 1.51 3.362 3.356 3.362 0.794 0 1.523-0.274 2.102-0.734 0.187 1.674 1.599 2.98 3.332 2.98 1.784 0 3.226-1.383 3.346-3.127 0.59 0.504 1.354 0.809 2.19 0.809 1.86 0 3.354-1.511 3.354-3.364 0-0.849-0.313-1.616-0.814-2.21l-0.051 0.007c1.749-0.107 3.143-1.572 3.143-3.355m-11.144 3.081c-1.71 0-3.074-1.385-3.074-3.084 0-1.7 1.364-3.084 3.074-3.084 1.707 0 3.09 1.384 3.09 3.084 0 1.699-1.383 3.084-3.09 3.084"/>
 </g>
</svg>
