<?xml version="1.0" encoding="UTF-8" standalone="no"?>
<svg xmlns:rdf="http://www.w3.org/1999/02/22-rdf-syntax-ns#" xmlns="http://www.w3.org/2000/svg" height="448.34" width="600" version="1.1" xmlns:cc="http://creativecommons.org/ns#" xmlns:dc="http://purl.org/dc/elements/1.1/" viewBox="0 0 158.75 118.62391">
 <g stroke-width="1.1926" fill="#a7a5a5">
  <path d="m30.042 118.27h-4.639l-0.704-18.01h-0.059l-8.373 18.01h-2.278l-3.9948-18.489h-0.0597l-5.1044 18.489h-4.8301l7.3585-26.599h5.2595l3.649 16.699 7.609-16.699h5.105z"/>
  <path d="m48.671 96.084h-9.303l-0.763 6.316h8.182l-0.525 4.42h-8.193l-0.823 7.03h11.735l-0.537 4.42h-16.529l3.184-26.599h14.109z"/>
  <path d="m61.861 91.671c9.017 0 11.652 7.156 11.652 12.999 0 7.87-4.627 13.6-10.65 13.6h-11.664l3.149-26.599zm-5.331 22.179h4.508c5.331 0 7.526-4.65 7.526-9.3s-2.66-8.466-7.621-8.466h-2.326l-2.087 17.766"/>
  <path d="m78.999 118.27h-4.794l3.172-26.599h4.807z"/>
  <path d="m100.63 118.27h-4.934l-0.704-5.85h-7l-2.207 5.85h-5.295l11.068-26.957h5.104zm-11.255-9.54h5.224l-1.181-11.812h-0.059z"/>
  <path d="m117.64 98.111c-1.47-1.312-3.88-2.385-5.61-2.385-1.74 0-3.17 1.192-3.17 2.981 0 3.813 8.32 4.293 8.32 11.803 0 4.3-2.59 8.11-7.65 8.11-3.28 0-5.68-0.95-7.69-2.5l0.74-4.65c1.81 1.55 4.48 2.74 6.38 2.74 1.94 0 3.25-1.19 3.25-2.98 0-4.41-8.32-4.89-8.32-11.926 0-4.532 3.39-7.991 7.95-7.991 2.19 0 4.51 0.716 6.47 2.147z"/>
  <path d="m135.53 96.084h-9.29l-0.79 6.316h8.2l-0.54 4.42h-8.17l-0.84 7.03h11.74l-0.54 4.42h-16.53l3.18-26.599h14.12z"/>
  <path d="m158.23 96.084h-7.35l-2.66 22.186h-4.8l2.65-22.186h-7.15l0.53-4.413h19.3z"/>
 </g>
 <g>
  <path fill="#031f40" d="m116.45-0.00017637h-1.04s-4.67 13.895-30.097 13.895h-16.884l-1.445 11.657h49.466z"/>
  <path fill="#031f40" d="m114.87 50.8c-10.92-9.307-37.454-4.366-37.454-4.366v-5.407h39.264v-11.769h-52.46l-3.69 27.943 19.276-0.005c2.124-1.548 6.081-2.179 8.121-2.121 6.181 0.177 8.111 1.943 9.233 3.46 1.029 1.386 1.105 3.866 0 5.353-1.47 1.964-4.371 3.501-9.449 3.501-1.937 0-7.628-0.291-10.274-4.696l-17.997-0.008c-0.001 11.308 12.704 15.163 18.205 16.304 0.496 0.102 12.268 2.467 25.715-0.81 8.94-2.179 14.93-7.038 16.43-13.33 1.17-4.96-0.66-10.22-4.92-14.049"/>
  <path fill="#f5520f" d="m61.718 21.998c0-1.768-1.374-3.224-3.1-3.352 0.489-0.582 0.796-1.345 0.796-2.183 0-1.853-1.493-3.355-3.356-3.355-0.824 0-1.577 0.287-2.162 0.776l-0.068 0.159v0.043c-0.115-1.697-1.54-3.039-3.278-3.039-1.733 0-3.137 1.329-3.277 3.016l-0.072-0.176c-0.581-0.477-1.325-0.758-2.136-0.758-1.845 0-3.354 1.503-3.354 3.358 0 0.871 0.33 1.66 0.866 2.25-1.78 0.091-3.196 1.565-3.196 3.359 0 1.791 1.421 3.238 3.195 3.338-0.503 0.588-0.816 1.364-0.816 2.197 0 1.853 1.51 3.362 3.355 3.362 0.795 0 1.524-0.274 2.103-0.734 0.187 1.674 1.599 2.98 3.332 2.98 1.784 0 3.225-1.383 3.345-3.127 0.59 0.504 1.354 0.808 2.19 0.808 1.861 0 3.354-1.51 3.354-3.364 0-0.849-0.313-1.616-0.813-2.209l-0.052 0.006c1.75-0.107 3.144-1.572 3.144-3.355m-11.145 3.081c-1.708 0-3.074-1.385-3.074-3.084s1.366-3.084 3.074-3.084 3.091 1.385 3.091 3.084-1.383 3.084-3.091 3.084"/>
 </g>
</svg>
