<?xml version="1.0" encoding="UTF-8" standalone="no"?>
<svg xmlns:rdf="http://www.w3.org/1999/02/22-rdf-syntax-ns#" xmlns="http://www.w3.org/2000/svg" height="240.01" viewBox="0 0 600 240.01376" width="600" version="1.1" xmlns:cc="http://creativecommons.org/ns#" xmlns:dc="http://purl.org/dc/elements/1.1/">
 <rect height="80.005" width="320.02" y="0" x="0" stroke-width=".99997"/>
 <g stroke-width=".99997" fill="#fff">
  <path d="m59.385 19.63c0.119-0.653 0.198-1.049 0.198-1.188 0-0.376-0.198-0.712-0.593-0.969-4.532-2.969-10.073-4.453-16.603-4.453-8.192 0-14.96 2.573-20.303 7.718s-8.014 11.655-8.014 19.551c0 7.638 2.454 13.812 7.341 18.542 4.908 4.729 11.339 7.084 19.274 7.084 4.393 0 7.856-0.752 10.389-2.276 0.475-0.257 0.792-0.89 0.93-1.9 0 0 1.346-9.478 1.385-9.854 0.119-0.752-0.296-0.633-2.255-0.02-3.74 1.088-6.808 1.642-9.202 1.642-3.859 0-7.005-1.286-9.479-3.858-2.493-2.573-3.74-5.838-3.74-9.815 0-4.275 1.425-7.757 4.255-10.468 2.83-2.692 6.51-4.057 11.042-4.057 4.373 0 8.113 1.009 11.259 3.028 0.95 0.593 1.544 0.91 1.761 0.91 0.297 0 0.535-0.475 0.713-1.445l1.642-8.172z"/>
  <path d="m97.122 15.771c-0.139-0.693-0.515-1.049-1.128-1.049h-15.099c-0.692 0-1.187 0.297-1.504 0.91l-23.271 47.097c-0.099 0.257-0.138 0.455-0.138 0.574 0 0.316 0.178 0.475 0.514 0.475h12.704c0.772 0 1.306-0.277 1.564-0.792l3.265-6.748c0.257-0.514 0.692-0.771 1.306-0.771h15.969c0.594 0 0.95 0.277 1.029 0.85l1.702 6.788c0.099 0.455 0.396 0.673 0.93 0.673h11.295c0.4 0 0.6-0.198 0.6-0.594v-0.257zm-7.995 28.713h-9.478c-0.297 0-0.455-0.079-0.455-0.198l0.138-0.396 6.332-14.386c0.139-0.257 0.238-0.415 0.337-0.455 0.118 0.079 0.237 0.297 0.316 0.653l3.345 13.931c0.079 0.336 0.138 0.534 0.138 0.574 0 0.178-0.237 0.277-0.673 0.277"/>
  <path d="m113.07 63.105c0 0.435 0.38 0.673 1.11 0.673h10.92c0.62 0 0.95-0.317 1.05-0.93l3.92-27.981c0.08-0.574 0.16-0.851 0.2-0.851 0.14 0.079 0.29 0.297 0.51 0.653l16.03 28.179c0.36 0.613 0.87 0.93 1.56 0.93h11.18c0.76 0 1.17-0.277 1.25-0.792l6.55-47.551c0-0.475-0.3-0.713-0.85-0.713h-11.58c-0.79 0-1.22 0.337-1.3 0.99l-3.54 25.368c-0.08 0.653-0.2 0.97-0.32 0.97-0.14 0-0.34-0.238-0.59-0.712l-14.65-25.706c-0.35-0.613-0.87-0.91-1.56-0.91h-12.43c-0.61 0-0.97 0.297-1.05 0.851z"/>
  <path d="m216.72 62.729-9.89-47.017c-0.12-0.653-0.52-0.99-1.17-0.99h-14.38c-0.7 0-1.17 0.297-1.45 0.851l-23.13 47.275c-0.14 0.257-0.2 0.455-0.2 0.593 0 0.218 0.16 0.337 0.51 0.337h12.57c0.65 0 1.11-0.258 1.37-0.733l3.52-6.866c0.26-0.475 0.73-0.712 1.38-0.712h15.1c0.79 0 1.25 0.336 1.39 1.048l1.22 6.333c0.14 0.613 0.56 0.93 1.25 0.93h11.18c0.54 0 0.79-0.139 0.79-0.396 0-0.317-0.02-0.534-0.06-0.653m-16.94-18.72c0 0.297-0.25 0.455-0.73 0.455h-8.82c-0.56 0-0.85-0.138-0.85-0.396 0-0.138 0.05-0.336 0.13-0.593l6.42-14.446c0.17-0.356 0.29-0.554 0.37-0.593 0.1 0.079 0.18 0.277 0.28 0.593l3.12 14.307c0 0.06 0.02 0.159 0.08 0.337v0.336z"/>
  <path d="m229.86 14.722c-0.49 0-0.77 0.356-0.85 1.049l-6.81 47.472c0 0.357 0.2 0.535 0.6 0.535h27.46c0.58 0 0.89-0.277 0.97-0.792l1.31-9.617c0-0.435-0.22-0.653-0.65-0.653h-13.14c-0.52 0-0.79-0.238-0.79-0.712v-0.139l4.9-36.549c0-0.396-0.21-0.594-0.65-0.594z"/>
  <path d="m286.87 45.256c0-0.554 0.3-0.851 0.85-0.851h16.23c0.48 0 0.71-0.257 0.71-0.772v-13.337c0-0.574-0.23-0.851-0.71-0.851h-16.42c-0.44 0-0.66-0.317-0.66-0.93v-15.099c0-0.435-0.27-0.653-0.85-0.653h-13.34c-0.43 0-0.65 0.218-0.65 0.653v15.099c0 0.613-0.26 0.93-0.77 0.93h-17.53c-0.48 0-0.72 0.237-0.72 0.712v13.397c0 0.574 0.26 0.851 0.78 0.851h17.39c0.57 0 0.85 0.336 0.85 0.989v17.592c0 0.515 0.24 0.792 0.73 0.792h13.4c0.48 0 0.71-0.317 0.71-0.93z"/>
 </g>
 <path d="m0.00000209 240.01h600v-160h-600z" fill="#d7002d"/>
 <g fill="#fff">
  <path d="m93.397 139.45v0.83l-0.656 0.89-1.08-0.59c-1.905-1.56-4.064-2.84-6.488-3.88-4.085-1.74-8.075-2.61-11.959-2.61-7.069 0-13.059 2.43-17.981 7.32-4.805 4.8-7.196 10.63-7.196 17.5 0 6.27 2.116 11.53 6.371 15.78 4.836 4.88 11.102 7.32 18.806 7.32 5.313 0 10.065-1.17 14.235-3.51 2.254-1.27 3.757-2.39 4.519-3.4l0.836-0.53c0.476 0 0.709 0.77 0.709 2.31v22.64c0 0.98-0.339 1.72-1.005 2.19-1.281 0.92-4.382 1.96-9.292 3.1-3.895 0.87-7.642 1.31-11.251 1.31-8.297 0-16.277-2.13-23.928-6.37-7.938-4.32-14.023-10.04-18.225-17.15-4.201-7.02-6.308-14.93-6.308-23.76 0-13.56 4.71-25.05 14.108-34.45 4.805-4.85 10.403-8.48 16.796-10.91 5.545-2.13 11.25-3.21 17.081-3.21 3.842 0 7.917 0.46 12.203 1.37 2.815 0.64 5.037 1.34 6.667 2.09l1.302 0.59c1.154 0.48 1.736 1.29 1.736 2.45z"/>
  <path d="m139.25 158.55c-3.81 0-7.1 1.4-9.89 4.17-2.77 2.74-4.17 6.04-4.17 9.89 0 4 1.4 7.39 4.17 10.18 2.73 2.73 6.06 4.1 9.94 4.1 3.94 0 7.27-1.39 10-4.17 2.77-2.74 4.17-6.07 4.17-9.99 0-3.93-1.38-7.27-4.11-10.01-2.74-2.77-6.1-4.17-10.11-4.17m0.23-18.87c7.89 0 14.99 1.78 21.25 5.36 5.12 2.94 9.07 6.82 11.85 11.67 2.77 4.8 4.17 10.18 4.17 16.13 0 8.96-3 16.47-8.99 22.51-3.42 3.36-7.54 5.97-12.39 7.79-4.99 1.9-10.38 2.86-16.12 2.86-11.75 0-21.2-3.57-28.35-10.71-5.99-5.96-8.98-13.29-8.98-21.98 0-9.19 3.1-16.92 9.28-23.15 6.91-6.99 16.33-10.48 28.28-10.48"/>
  <path d="m186.14 142h21.97v7.57c0.79-0.72 1.68-1.53 2.68-2.44 5.16-4.06 11.02-6.08 17.62-6.08 5.75 0 10.51 1.36 14.29 4.05 2.22 1.62 4.47 4.09 6.72 7.38 5.2-7.7 12.12-11.55 20.78-11.55 5.04 0 9.43 1.25 13.15 3.75 3.18 2.11 5.39 4.94 6.62 8.51 0.99 2.83 1.48 6.28 1.48 10.36v40.13h-21.96v-30.49c0-4.55-0.3-7.59-0.9-9.1-1.58-4.08-4.36-6.14-8.33-6.14-2.47 0-4.69 0.88-6.67 2.63-1.63 1.47-2.7 3.37-3.22 5.71-0.39 1.59-0.6 3.89-0.6 6.9v30.49h-21.96v-30.49c0-4.64-0.23-7.65-0.71-9.04-0.63-1.9-1.71-3.45-3.22-4.64-1.74-1.36-3.63-2.03-5.65-2.03-2.3 0-4.45 0.85-6.43 2.56-1.51 1.31-2.52 3.08-3.04 5.3-0.43 1.83-0.65 4.44-0.65 7.85v30.49h-21.97z"/>
  <path d="m348.89 164.15c-2.03-6.58-6.31-9.88-12.86-9.88-6.71 0-10.84 3.3-12.38 9.88zm20.35 12.68h-46.2c0.25 5.2 1.58 8.87 3.99 11.02 2.23 1.93 5.37 2.91 9.41 2.91 3.1 0 5.54-0.66 7.33-1.96 1.07-0.8 2.19-2.08 3.38-3.87h21.26c-1.42 4.47-3.01 7.8-4.76 9.93-6.19 7.51-15.32 11.26-27.39 11.26-11.14 0-19.96-3.22-26.42-9.65-6-5.87-9-13.62-9-23.27 0-10.48 3.34-18.69 10-24.65 6.19-5.51 14.37-8.26 24.52-8.26 11.13 0 19.7 3.34 25.73 10.05 5.44 6.03 8.15 14.09 8.15 24.17z"/>
  <path d="m412.75 158.79c-3.87 0-7.18 1.39-9.95 4.16-2.7 2.71-4.04 5.96-4.04 9.78 0 3.96 1.36 7.32 4.1 10.06 2.73 2.73 6.08 4.1 10 4.1 3.97 0 7.33-1.39 10.06-4.17 2.74-2.7 4.1-5.99 4.1-9.88 0-3.84-1.36-7.13-4.1-9.89-2.73-2.77-6.13-4.16-10.17-4.16m13.68-46.55h21.97v91.45h-21.97v-6.86l-0.84 1.08c-4.31 5.15-10.44 7.74-18.38 7.74-8.66 0-15.96-3.02-21.91-9.06-6.31-6.34-9.47-14.3-9.47-23.86 0-9.49 3.13-17.39 9.41-23.69 5.96-6 13.2-9 21.73-9 4.21 0 8.06 0.73 11.54 2.2 2.43 1 5.06 2.94 7.92 5.83z"/>
  <path d="m482.89 203.68h-21.98v-61.68h21.98zm-10.97-92.45c3.33 0 6.23 1.23 8.7 3.69 2.38 2.38 3.57 5.28 3.57 8.69 0 3.29-1.19 6.16-3.57 8.57-2.43 2.46-5.37 3.69-8.82 3.69-3.36 0-6.27-1.23-8.68-3.69-2.38-2.38-3.58-5.2-3.58-8.45 0-3.5 1.22-6.47 3.63-8.93 2.35-2.38 5.27-3.57 8.75-3.57"/>
  <path d="m529.85 158.44c-3.81 0-7.11 1.38-9.89 4.15-2.77 2.76-4.17 6.05-4.17 9.9 0 4.01 1.4 7.4 4.17 10.17 2.74 2.74 6.05 4.12 9.95 4.12 3.93 0 7.26-1.4 10-4.17 2.77-2.78 4.16-6.11 4.16-10 0-3.9-1.39-7.23-4.16-10.02-2.74-2.77-6.1-4.15-10.06-4.15m13.63-16.91h21.96v62.15h-21.96v-6.85c-4.68 5.96-11.14 8.93-19.35 8.93-8.5 0-15.72-3.01-21.67-9.04-6.4-6.47-9.58-14.55-9.58-24.23 0-9.61 3.15-17.58 9.46-23.93 5.96-6 13.26-8.99 21.91-8.99 3.93 0 7.7 0.73 11.31 2.2 2.38 0.95 5.03 2.89 7.92 5.84z"/>
 </g>
</svg>
