<?xml version="1.0" encoding="UTF-8" standalone="no"?>
<!-- Created with Inkscape (http://www.inkscape.org/) -->

<svg
   xmlns:dc="http://purl.org/dc/elements/1.1/"
   xmlns:cc="http://creativecommons.org/ns#"
   xmlns:rdf="http://www.w3.org/1999/02/22-rdf-syntax-ns#"
   xmlns:svg="http://www.w3.org/2000/svg"
   xmlns="http://www.w3.org/2000/svg"
   version="1.1"
   width="986.60822"
   height="616.03772"
   viewBox="-0.70584 -0.70584 37.665195 23.527999"
   id="svg10121">
  <metadata
     id="metadata10">
    <rdf:RDF>
      <cc:Work
         rdf:about="">
        <dc:format>image/svg+xml</dc:format>
        <dc:type
           rdf:resource="http://purl.org/dc/dcmitype/StillImage" />
        <dc:title></dc:title>
      </cc:Work>
    </rdf:RDF>
  </metadata>
  <defs
     id="defs10123" />
  <path
     d="m 36.960958,12.22816 c -0.068,-1.322 -0.813,-2.479 -1.867,-3.144 0.1,-0.095 0.473,-0.455 0.473,-0.455 l 0.015,-0.015 c 0.709,-0.717 1.119,-1.748 1.119,-2.791 0,-0.068 -0.002,-0.137 -0.005,-0.204 -0.137,-2.595 -2.689,-4.351 -6.077,-4.175 -2.017,0.104 -3.834,0.947 -5.119,2.371 -0.132,0.146 -0.257,0.304 -0.378,0.463 h -0.646 v -4.391 h -6.271 c 0,0 -1.769,1.776 -1.981,1.99 v -2.583 l -9.3980004,0 -0.002,1.944 c 0,0 -0.002,0.871 -0.002,1.633 h -4.358 c -1.75199996,0 -3.17799996,1.426 -3.17799996,3.178 v 8.036 c 0,1.753 1.426,3.178 3.17799996,3.178 l 5.929,0 v 5.559 H 27.527958 v -6.419 c 1.651,0.388 2.761,0.562 3.933,0.502 3.83,-0.199 5.506,-2.354 5.506,-4.471 0,-0.068 -0.002,-0.137 -0.006,-0.206"
     id="path10032"
     style="fill:#99cc03" />
  <path
     d="m 35.016958,12.32816 c -0.058,-1.075 -0.994,-1.94 -2.021,-1.888 -0.392,0.02 -0.731,0.178 -1.021,0.307 -0.272,0.119 -0.489,0.211 -0.771,0.225 -0.301,0.017 -0.518,-0.039 -0.711,-0.145 l 3.701,-3.582 c 0.395,-0.398 0.581,-0.992 0.554,-1.525 -0.09,-1.722 -2.179,-2.428 -4.03,-2.332 -1.529,0.08 -2.843,0.695 -3.774,1.731 -0.3,0.331 -0.552,0.705 -0.759,1.106 h -3.658 v -4.392 h -3.516 l -1.538,1.545 v 1.745 c -0.123,-0.243 -0.586,-0.591 -1.704,-0.729 -0.637,-0.08 -1.333,0.025 -1.497,0.091 v -3.245 H 8.7699576 l -0.003,2.59 h 0.75 l -10e-4,0.986 h -7.052 c -0.68,0 -1.232,0.551 -1.232,1.231 v 8.037 c 0,0.681 0.552,1.229 1.232,1.229 l 7.8430004,0 v -1.215 h 4.284 v 0 h 0.833 c 0.004,0 0.009,0 0.013,0 0.918,0 1.571,-0.176 2.034,-0.434 v 1.348 l 8.599,0 1.357,-1.359 c 1.002,0.961 2.416,1.381 3.935,1.302 2.3,-0.118 3.732,-1.142 3.655,-2.631"
     id="path10034" />
  <path
     d="m 2.0299576,14.09216 c 0,0.237 0.192,0.429 0.429,0.429 h 7.057 v -3.283 h -2.736 v 1.332 h -2.012 v -5.034 h 2.013 v 1.332 l 2.735,0 v -3.243 h -7.057 c -0.236,0 -0.428,0.192 -0.428,0.428 l -10e-4,8.041 z m 32.1910004,-1.73 c -0.029,-0.569 -0.479,-1.162 -1.156,-1.127 -0.25,0.012 -0.485,0.117 -0.739,0.229 -0.297,0.132 -0.636,0.28 -1.058,0.303 -1.601,0.084 -2.239,-1.229 -2.306,-2.482 -0.044,-0.828 0.177,-1.573 0.599,-2.045 0.324,-0.356 0.748,-0.552 1.263,-0.578 0.754,-0.039 1.125,0.09 1.425,0.193 0.202,0.071 0.397,0.138 0.647,0.126 0.826,-0.043 1.088,-0.683 1.061,-1.218 -0.072,-1.376 -2.107,-1.635 -3.174,-1.58 -1.321,0.069 -2.439,0.571 -3.234,1.453 -0.861,0.954 -1.291,2.298 -1.216,3.784 0.077,1.475 0.642,2.758 1.591,3.614 0.898,0.81 2.08,1.201 3.416,1.131 1.433,-0.073 2.943,-0.586 2.881,-1.803 m -13.474,-8.652 v 4.342 h 4.78 v 6.168 h -7.258 l 0.004,-10.511 2.474,0.001 z m 2.297,6.576 h -2.294 v 1.703 h 2.294 v -1.703 z M 9.5629576,2.03816 h 3.9100004 v 3.793 c 0.251,-0.433 0.862,-0.649 1.834,-0.649 1.445,0 2.165,0.618 2.165,1.853 v 4.875 c 0,0.93 -0.72,1.396 -2.165,1.396 -0.972,0 -1.583,-0.183 -1.834,-0.541 v 0.541 h -3.159 V 3.03216 H 9.5629576 v -0.994 z m 3.9110004,8.538 c 0,0.298 0.281,0.446 0.551,0.446 0.28,0 0.566,-0.148 0.566,-0.446 v -3.155 c 0,-0.262 -0.286,-0.393 -0.566,-0.393 -0.27,0 -0.551,0.131 -0.551,0.393 v 3.155 z"
     id="path10042"
     style="fill:#ffffff" />
  <path
     d="m 20.972958,16.52616 h 4.607 v 4.347 h -4.607 v -4.347 z m 2.902,0.605 c -0.148,-0.026 -0.277,-0.039 -0.391,-0.039 -0.564,0 -1.018,0.173 -1.359,0.515 -0.309,0.311 -0.463,0.687 -0.463,1.129 0,0.408 0.154,0.767 0.463,1.07 0.33,0.334 0.768,0.502 1.314,0.502 0.373,0 0.664,-0.047 0.871,-0.139 0.057,-0.018 0.174,-0.068 0.352,-0.152 v -0.599 c -0.395,0.256 -0.779,0.384 -1.162,0.384 -0.406,0 -0.725,-0.115 -0.955,-0.345 -0.201,-0.204 -0.305,-0.457 -0.305,-0.761 0,-0.295 0.1,-0.541 0.299,-0.741 0.242,-0.243 0.553,-0.364 0.93,-0.364 0.24,0 0.471,0.041 0.688,0.123 0.15,0.057 0.309,0.13 0.473,0.221 v -0.576 c -0.132,-0.057 -0.382,-0.133 -0.755,-0.228 m -8.217,-0.605 h 4.607 v 4.347 h -4.607 v -4.347 z m 1.211,0.6 v 3.148 h 1.17 c 0.117,0 0.229,-0.013 0.332,-0.033 0.242,-0.049 0.43,-0.139 0.561,-0.271 0.158,-0.161 0.238,-0.35 0.238,-0.563 0,-0.217 -0.072,-0.401 -0.221,-0.551 -0.135,-0.136 -0.287,-0.224 -0.462,-0.263 0.039,-0.017 0.108,-0.063 0.209,-0.145 0.126,-0.128 0.188,-0.298 0.188,-0.513 0,-0.205 -0.074,-0.379 -0.222,-0.522 -0.187,-0.193 -0.449,-0.289 -0.787,-0.289 l -1.006,0 0,0 z m 0.559,0.498 h 0.363 c 0.2,0 0.344,0.041 0.431,0.123 0.063,0.07 0.095,0.156 0.091,0.26 0.004,0.111 -0.031,0.205 -0.104,0.279 -0.097,0.095 -0.274,0.142 -0.535,0.142 h -0.246 v -0.804 z m 0,1.291 h 0.533 c 0.248,0 0.428,0.056 0.539,0.169 0.064,0.069 0.1,0.155 0.1,0.259 0,0.03 -0.006,0.061 -0.014,0.09 -0.018,0.07 -0.051,0.129 -0.099,0.176 -0.104,0.104 -0.272,0.156 -0.507,0.156 h -0.553 l 0.001,-0.85 0,0 z m -7.084,-2.389 h 4.608 v 4.347 h -4.608 v -4.347 z m 1.212,0.6 v 3.148 h 1.17 c 0.117,0 0.228,-0.013 0.332,-0.033 0.243,-0.049 0.429,-0.139 0.559,-0.271 0.16,-0.161 0.24,-0.35 0.24,-0.563 0,-0.217 -0.073,-0.401 -0.221,-0.551 -0.134,-0.136 -0.288,-0.224 -0.462,-0.263 0.039,-0.017 0.109,-0.063 0.209,-0.145 0.126,-0.128 0.189,-0.298 0.189,-0.513 0,-0.205 -0.074,-0.379 -0.221,-0.522 -0.187,-0.193 -0.449,-0.289 -0.787,-0.289 l -1.008,0 0,0 z m 0.557,0.498 h 0.365 c 0.199,0 0.342,0.041 0.428,0.123 0.066,0.07 0.096,0.156 0.092,0.26 0.004,0.111 -0.031,0.205 -0.104,0.279 -0.096,0.095 -0.274,0.142 -0.534,0.142 h -0.247 v -0.804 z m 0,1.291 h 0.533 c 0.248,0 0.427,0.056 0.541,0.169 0.064,0.069 0.097,0.155 0.097,0.259 0,0.03 -0.005,0.061 -0.013,0.09 -0.018,0.07 -0.05,0.129 -0.098,0.176 -0.104,0.104 -0.273,0.156 -0.507,0.156 h -0.553 v -0.85 z"
     id="path10048" />
</svg>
