<?xml version="1.0" encoding="UTF-8" standalone="no"?>
<!-- Created with Inkscape (http://www.inkscape.org/) -->
<svg xmlns:rdf="http://www.w3.org/1999/02/22-rdf-syntax-ns#" xmlns="http://www.w3.org/2000/svg" height="281.32" width="600" version="1.1" xmlns:cc="http://creativecommons.org/ns#" xmlns:dc="http://purl.org/dc/elements/1.1/">
 <metadata>
  <rdf:RDF>
   <cc:Work rdf:about="">
    <dc:format>image/svg+xml</dc:format>
    <dc:type rdf:resource="http://purl.org/dc/dcmitype/StillImage"/>
    <dc:title/>
   </cc:Work>
  </rdf:RDF>
 </metadata>
 <path fill="#af1d23" d="m302.02,46.226,0,195.98,53.07,0,0-78.49,73.276,0,0,78.49,0.47703,0,47.278,0,16.577,0c14.434,0,26.922-1.1432,37.465-3.4244,10.542-2.2812,20.243-6.3225,29.082-12.113,11.758-7.7211,21.481-18.782,29.185-33.171,7.7-14.49,11.56-30.85,11.56-49.1,0-18.95-3.62-35.41-10.84-49.356-7.13-14.038-16.95-25.179-29.44-33.427-7.29-4.913-16.3-8.68-27-11.312-10.7-2.72-23.44-4.089-38.2-4.089h-18.4-47.278-0.47703v70.312h-73.651v-70.312h-52.696zm191.75,39.032c32.774,0,59.34,26.566,59.34,59.34s-26.566,59.34-59.34,59.34c-6.5091,0-12.366-0.15365-17.65-0.44296v-117.83c5.2985-0.2667,11.154-0.40889,17.65-0.40889z"/>
 <path d="M140.65,0c-77.682,0-140.65,62.98-140.65,140.65,0,77.686,62.965,140.66,140.65,140.66,77.7,0,140.65-62.98,140.65-140.66,0.01-77.668-62.94-140.65-140.65-140.65" fill-rule="nonzero" fill="#af1d23"/>
 <path d="m137.53,240.16c-69.096,0-82.934-43.964-80.756-63.15h53.393c1.0667,5.2768,3.5131,9.7427,7.5809,12.801,5.419,4.4518,13,6.3861,21.406,6.3861,15.986,0,28.73-10.284,28.73-25.858,0-16.968-10.838-26.995-27.095-26.995-12.744,0-21.676,3.6268-27.379,12.517h-50.419l19.528-111.55h129.53v47.306h-87.813l-5.4047,25.573,0.52624,0.5547c11.648-8.889,27.095-11.393,41.19-11.393,33.609,0,61.514,20.012,61.514,65.654,0,39.227-30.067,68.157-84.542,68.157" fill-rule="nonzero" fill="#FFF"/>
</svg>
