<?xml version="1.0" encoding="UTF-8" standalone="no"?>
<!-- Created with Inkscape (http://www.inkscape.org/) -->
<svg xmlns:rdf="http://www.w3.org/1999/02/22-rdf-syntax-ns#" xmlns="http://www.w3.org/2000/svg" height="115.14" width="600" version="1.1" xmlns:cc="http://creativecommons.org/ns#" xmlns:dc="http://purl.org/dc/elements/1.1/">
 <metadata>
  <rdf:RDF>
   <cc:Work rdf:about="">
    <dc:format>image/svg+xml</dc:format>
    <dc:type rdf:resource="http://purl.org/dc/dcmitype/StillImage"/>
    <dc:title/>
   </cc:Work>
  </rdf:RDF>
 </metadata>
 <g fill-rule="nonzero" transform="translate(-54.182322,-408.05014)">
  <path fill="#928e89" d="m561.25,436.53,10.916,0,0,76.22-10.916,0,0-33.174-42.831,0,0,33.174-10.909,0,0-76.22,10.909,0,0,32.958,42.831,0,0-32.958z"/>
  <path fill="#928e89" d="m584.12,436.53,0,76.124,24.125,0c6.7697,0,11.342-0.18679,13.75-0.56249,2.4073-0.38963,5.0326-1.1471,7.9061-2.2812,4.9051-1.8507,9.2289-4.6111,12.937-8.2499,3.6318-3.5275,6.451-7.6022,8.4061-12.25,1.969-4.6616,2.9374-9.5388,2.9374-14.625,0-7.1315-1.7884-13.711-5.3437-19.75-3.5762-6.0391-8.3669-10.64-14.406-13.75-6.0322-3.11-14.22-4.6562-24.593-4.6562h-25.718zm10.906,9.7186,13.656,0c5.239,0,9.0405,0.19717,11.406,0.59374,2.3586,0.40355,4.8699,1.2372,7.4999,2.4687,2.6439,1.2384,4.9683,2.8227,6.9999,4.7499,5.5312,5.1625,8.3124,11.811,8.3124,20,0,8.3282-2.7015,15.232-8.0936,20.687-1.6698,1.6698-3.5065,3.0776-5.5312,4.2187-2.0177,1.148-4.5358,2.0993-7.5624,2.8437-3.0265,0.74445-7.2708,1.125-12.719,1.125h-13.969v-56.687z"/>
  <path fill="#f08900" d="m81.143,433.94c-21.262,0-26.96,8.9822-26.96,33.695v11.389c0,24.713,5.6982,33.695,26.96,33.695,18.277,0,25.917-6.888,25.917-23.51v-5.8513h-21.123v5.9974c0,7.041-1.0506,10.485-5.3921,10.485s-5.239-3.444-5.239-10.485v-32.053c0-7.041,1.0436-10.485,5.3921-10.485,4.3415,0,5.8374,2.9987,5.8374,9.4344v4.4946h20.525v-3.2909c0-16.628-7.6394-23.516-25.917-23.516"/>
  <path fill="#f08900" d="m113.15,510.92,21.116,0,0-75.183-21.116,0,0,75.183z"/>
  <path fill="#f08900" d="m113.15,425.42,21.116,0,0-17.373-21.116,0,0,17.373z"/>
  <path fill="#f08900" d="m178.6,433.94c-6.1435,0-11.236,3.444-16.03,10.478l-0.59835-8.683h-20.518v75.19h21.116v-52.571c0-6.2966,1.2036-9.1422,4.7937-9.1422,3.7432,0,4.4946,3.1448,4.4946,9.1422v52.571h21.269v-54.818c0-15.133-2.6926-22.167-14.527-22.167"/>
  <path fill="#f08900" d="m225.69,433.94c-20.671,0-26.375,9.273-26.375,33.687v11.406c0,24.56,5.6991,33.687,26.968,33.687,18.27,0,25.906-7.0242,25.906-23.5v-2.5624h-20.375v2.6874c0,7.041-1.1749,10.5-5.9686,10.5-4.3485,0-5.4062-3.4588-5.4062-10.5v-12.719h31.749v-8.9998c0-24.859-5.5365-33.687-26.5-33.687zm0.43749,11.969c4.6407,0,5.6874,3.7534,5.6874,11.094v7.6561h-11.375v-7.6561c0-7.4933,1.0398-11.094,5.6874-11.094z"/>
  <path fill="#f08900" d="m378.5,419.66c-22.417,0-31.226,4.4849-32.687,21.531-1.8437-6.1157-5.7005-8.0936-13.437-8.0936-6.9228,0-11.931,2.6865-17.156,10.5-1.2384-7.3402-6.5298-10.5-14.531-10.5-6.3105,0-11.188,2.3822-16.093,9.5623l-0.37499-7.8124h-22.468v78.405h22.781v-53.937c0.007-6.4288,0.75653-9.1873,4.6249-9.1873,3.3535,0,4.1874,2.8977,4.1874,9.1873v53.937h22.968v-54.562c-0.007-6.067,0.6872-8.5624,4.4999-8.5624,3.3744,0,4.1562,2.5404,4.1562,8.6561v54.468h20.312c3.2144,7.0549,9.1322,9.9373,18.093,9.9373,8.2516,0,14.458-4.1318,20.218-13.344l1.25,11.062h26.718v-7.6249h18.468,0.78124l0.40624-0.68749,11-19.562,10.937,19.562,0.40624,0.68749h0.74999,24.125,2.3125l-1.1562-2-22.281-38.687,20.75-36.156,1.125-2h-2.3125-24.093-0.81249l-0.37499,0.68749-9.3436,17-9.4061-17-0.37499-0.68749h-0.81249-21.875c-3.5344-10.68-12.69-14.781-31.281-14.781zm-0.96873,17.25c5.5173,0,6.0624,4.7683,6.0624,13.375v6.8124c-18.618,1.1202-29.592,3.3516-35.687,10.156v-10.844c0-2.2194-0.0622-4.2329-0.1875-5.8749h22.593v-1.8125c0-8.2238,1.5065-11.812,7.2186-11.812zm33.968,8.4686,15.562,27.156,0,0.0312-15.5,26.875,0-50.905c0-1.1062-0.0207-2.1404-0.0625-3.1562zm-27.968,28.656,0,19c0,8.6273-1.0694,12.562-6.5936,12.562-5.5104,0.007-6.7186-3.9349-6.7186-12.562v-6.0624c0-9.0239,3.2656-11.963,13.312-12.937z"/>
  <path fill="#f08900" d="m487.56,434.03c-2.6995,0-4.9687,2.1091-4.9687,4.9687,0,2.8874,2.2691,4.9999,4.9687,4.9999,2.6856,0,4.9999-2.1125,4.9999-4.9999,0-2.8595-2.3143-4.9687-4.9999-4.9687zm0,0.84373c2.2334,0,3.9999,1.7663,3.9999,4.1249,0,2.4004-1.7666,4.1562-3.9999,4.1562-2.2473,0-3.9999-1.7558-3.9999-4.1562,0-2.3586,1.7526-4.1249,3.9999-4.1249zm-1.875,1.2812,0,5.7499,0.84374,0,0-2.5,0.99998,0,1.5,2.5,0.93749,0-1.5937-2.5625c0.82795-0.10435,1.4687-0.53275,1.4687-1.5625,0-1.1341-0.66412-1.625-2-1.625h-2.1562zm0.84374,0.71874,1.1875,0c0.59834,0,1.2187,0.13406,1.2187,0.84373,0,0.88361-0.65138,0.93749-1.375,0.93749h-1.0312v-1.7812z"/>
 </g>
</svg>
