<?xml version="1.0" encoding="UTF-8" standalone="no"?>
<!-- Created with Inkscape (http://www.inkscape.org/) -->

<svg
   xmlns:dc="http://purl.org/dc/elements/1.1/"
   xmlns:cc="http://creativecommons.org/ns#"
   xmlns:rdf="http://www.w3.org/1999/02/22-rdf-syntax-ns#"
   xmlns:svg="http://www.w3.org/2000/svg"
   xmlns="http://www.w3.org/2000/svg"
   xmlns:sodipodi="http://sodipodi.sourceforge.net/DTD/sodipodi-0.dtd"
   xmlns:inkscape="http://www.inkscape.org/namespaces/inkscape"
   width="600"
   height="355.63199"
   id="svg127836"
   version="1.1"
   inkscape:version="0.48.4 r9939"
   sodipodi:docname="Documento nuevo 32">
  <defs
     id="defs127838">
    <clipPath
       clipPathUnits="userSpaceOnUse"
       id="clipPath121773">
      <path
         inkscape:connector-curvature="0"
         d="m 44.286,321.971 21.912,0 0,10.372 -21.912,0 0,-10.372 z"
         id="path121775" />
    </clipPath>
    <clipPath
       clipPathUnits="userSpaceOnUse"
       id="clipPath121757">
      <path
         inkscape:connector-curvature="0"
         d="m 45.814,322.33 16.894,0 0,10.014 -16.894,0 0,-10.014 z"
         id="path121759" />
    </clipPath>
    <clipPath
       clipPathUnits="userSpaceOnUse"
       id="clipPath121737">
      <path
         inkscape:connector-curvature="0"
         d="m 44.286,321.971 21.912,0 0,10.372 -21.912,0 0,-10.372 z"
         id="path121739" />
    </clipPath>
  </defs>
  <sodipodi:namedview
     id="base"
     pagecolor="#ffffff"
     bordercolor="#666666"
     borderopacity="1.0"
     inkscape:pageopacity="0"
     inkscape:pageshadow="2"
     inkscape:zoom="0.24748737"
     inkscape:cx="218.57138"
     inkscape:cy="503.53018"
     inkscape:document-units="px"
     inkscape:current-layer="layer1"
     showgrid="false"
     fit-margin-top="0"
     fit-margin-left="0"
     fit-margin-right="0"
     fit-margin-bottom="0"
     inkscape:window-width="698"
     inkscape:window-height="453"
     inkscape:window-x="78"
     inkscape:window-y="78"
     inkscape:window-maximized="0" />
  <metadata
     id="metadata127841">
    <rdf:RDF>
      <cc:Work
         rdf:about="">
        <dc:format>image/svg+xml</dc:format>
        <dc:type
           rdf:resource="http://purl.org/dc/dcmitype/StillImage" />
        <dc:title></dc:title>
      </cc:Work>
    </rdf:RDF>
  </metadata>
  <g
     inkscape:label="Capa 1"
     inkscape:groupmode="layer"
     id="layer1"
     transform="translate(-131.42862,-680.26036)">
    <g
       transform="matrix(35.517028,0,0,-35.517028,-1495.7485,12484.096)"
       id="g121733">
      <g
         id="g121735"
         clip-path="url(#clipPath121737)">
        <path
           inkscape:connector-curvature="0"
           d="m 45.814,326.502 13.875,0 0,4.382 -13.875,0 0,-4.382 z"
           style="fill:#413d46;fill-opacity:1;fill-rule:nonzero;stroke:none"
           id="path121741" />
        <g
           id="g121743"
           transform="translate(48.433807,327.68179)">
          <path
             inkscape:connector-curvature="0"
             d="m 0,0 c 0,-0.036 -0.03,-0.065 -0.092,-0.088 -0.173,-0.059 -0.334,-0.088 -0.484,-0.088 -0.226,0 -0.442,0.055 -0.652,0.17 -0.419,0.231 -0.652,0.619 -0.652,1.097 0,0.264 0.073,0.502 0.214,0.717 0.143,0.215 0.337,0.375 0.579,0.476 0.157,0.068 0.324,0.1 0.504,0.1 0.121,0 0.252,-0.019 0.393,-0.055 0.043,-0.01 0.075,-0.023 0.105,-0.036 L -0.049,2.277 C -0.02,2.264 -0.003,2.241 -0.003,2.212 l 0,-0.629 c 0,-0.016 -0.007,-0.023 -0.017,-0.023 -0.003,0 -0.013,0.007 -0.029,0.017 -0.049,0.048 -0.121,0.088 -0.216,0.12 -0.102,0.036 -0.193,0.052 -0.272,0.052 -0.285,0 -0.524,-0.15 -0.632,-0.4 -0.036,-0.082 -0.052,-0.17 -0.052,-0.264 0,-0.186 0.068,-0.336 0.206,-0.453 0.128,-0.108 0.285,-0.163 0.472,-0.163 0.212,0 0.376,0.059 0.497,0.179 0.01,0.013 0.02,0.02 0.026,0.02 C -0.007,0.668 0,0.648 0,0.606 L 0,0"
             style="fill:#ffffff;fill-opacity:1;fill-rule:nonzero;stroke:none"
             id="path121745" />
        </g>
        <path
           inkscape:connector-curvature="0"
           d="m 48.901,327.571 0.638,0 0,2.443 -0.638,0 0,-2.443 z"
           style="fill:#ffffff;fill-opacity:1;fill-rule:nonzero;stroke:none"
           id="path121747" />
        <g
           id="g121749"
           transform="translate(51.860596,327.5713)">
          <path
             inkscape:connector-curvature="0"
             d="m 0,0 -1.172,1.495 0,-1.495 -0.639,0 0,2.443 0.639,0 L 0,0.948 0,2.443 0.638,2.443 0.638,0 0,0 z"
             style="fill:#ffffff;fill-opacity:1;fill-rule:nonzero;stroke:none"
             id="path121751" />
        </g>
      </g>
    </g>
    <g
       transform="matrix(35.517028,0,0,-35.517028,-1495.7485,12484.096)"
       id="g121753">
      <g
         id="g121755"
         clip-path="url(#clipPath121757)">
        <g
           id="g121761"
           transform="translate(52.946701,327.5713)">
          <path
             inkscape:connector-curvature="0"
             d="m 0,0 0,2.443 0.213,0 0.036,0.101 0.969,0 -0.036,-0.101 0.213,0 0,-0.538 -0.756,0 0,-0.407 0.717,0 0,-0.537 -0.717,0 0,-0.424 0.756,0 L 1.395,0 0,0 z"
             style="fill:#ffffff;fill-opacity:1;fill-rule:nonzero;stroke:none"
             id="path121763" />
        </g>
        <g
           id="g121765"
           transform="translate(62.352203,323.7505)">
          <path
             inkscape:connector-curvature="0"
             d="m 0,0 c -4.382,-0.474 -8.764,-0.948 -13.147,-1.423 -0.162,1.832 -0.244,2.747 -0.406,4.578 4.369,0.248 8.738,0.496 13.107,0.744 C -0.267,2.34 -0.179,1.559 0,0"
             style="fill:#33a077;fill-opacity:1;fill-rule:nonzero;stroke:none"
             id="path121767" />
        </g>
      </g>
    </g>
    <g
       transform="matrix(35.517028,0,0,-35.517028,-1495.7485,12484.096)"
       id="g121769">
      <g
         id="g121771"
         clip-path="url(#clipPath121773)">
        <g
           id="g121777"
           transform="translate(50.795502,325.89439)">
          <path
             inkscape:connector-curvature="0"
             d="m 0,0 c -0.069,0.027 -0.104,0.041 -0.173,0.069 -0.064,-0.04 -0.096,-0.06 -0.16,-0.1 -0.11,-0.022 -0.165,-0.034 -0.275,-0.056 -0.013,-0.066 -0.019,-0.099 -0.031,-0.165 0.019,-0.096 0.03,-0.144 0.05,-0.24 0.006,-0.051 0.009,-0.077 0.015,-0.129 0.015,-0.132 0.022,-0.198 0.037,-0.331 0.031,-0.015 0.047,-0.023 0.078,-0.038 0.111,0.012 0.167,0.019 0.278,0.031 0.051,-0.017 0.077,-0.026 0.128,-0.043 0.033,-0.054 0.05,-0.08 0.083,-0.134 C 0.027,-1.199 0.026,-1.231 0.023,-1.295 0.009,-1.32 0.001,-1.333 -0.013,-1.358 -0.191,-1.388 -0.28,-1.403 -0.458,-1.433 -0.484,-1.467 -0.497,-1.485 -0.524,-1.52 c 0.037,-0.423 0.055,-0.634 0.092,-1.058 -0.04,-0.059 -0.06,-0.089 -0.1,-0.148 -0.065,-0.009 -0.097,-0.013 -0.162,-0.021 -0.046,0.059 -0.07,0.089 -0.116,0.148 -0.015,0.32 -0.022,0.479 -0.037,0.798 -0.036,0.324 -0.055,0.486 -0.091,0.809 0.011,0.088 0.016,0.132 0.027,0.219 -0.024,0.218 -0.036,0.328 -0.06,0.546 0.001,0.165 0.001,0.248 0.001,0.412 0.025,0.024 0.038,0.037 0.063,0.061 0.049,0.005 0.073,0.007 0.122,0.013 0.042,0.036 0.063,0.054 0.105,0.091 0.171,0.005 0.256,0.007 0.427,0.012 C -0.194,0.345 -0.165,0.337 -0.107,0.319 -0.041,0.314 -0.009,0.311 0.057,0.306 0.081,0.275 0.093,0.26 0.117,0.23 0.122,0.177 0.125,0.15 0.129,0.097 0.078,0.058 0.052,0.039 0,0"
             style="fill:#fbfbfb;fill-opacity:1;fill-rule:nonzero;stroke:none"
             id="path121779" />
        </g>
        <g
           id="g121781"
           transform="translate(52.355606,325.8447)">
          <path
             inkscape:connector-curvature="0"
             d="M 0,0 C -0.036,0.051 -0.054,0.077 -0.09,0.128 -0.211,0.117 -0.271,0.111 -0.392,0.099 c 0.01,-0.169 0.015,-0.254 0.025,-0.424 -0.001,-0.073 -0.002,-0.11 -0.004,-0.184 0.015,-0.129 0.023,-0.194 0.038,-0.323 0.03,0.004 0.044,0.006 0.074,0.01 0.108,0.023 0.162,0.034 0.271,0.057 0.025,0.055 0.037,0.082 0.062,0.136 C 0.044,-0.377 0.03,-0.252 0,0 M 0.579,-2.354 C 0.518,-2.403 0.488,-2.427 0.427,-2.476 0.389,-2.47 0.37,-2.468 0.333,-2.462 c -0.036,0.048 -0.054,0.073 -0.09,0.122 -0.032,0.114 -0.049,0.172 -0.081,0.286 -0.018,0.072 -0.027,0.107 -0.045,0.179 -0.028,0.071 -0.042,0.106 -0.07,0.176 -0.033,0.137 -0.049,0.206 -0.082,0.343 -0.026,0.05 -0.039,0.075 -0.065,0.125 -0.043,0.029 -0.063,0.042 -0.106,0.07 -0.027,-0.003 -0.04,-0.005 -0.067,-0.009 -0.025,-0.035 -0.037,-0.053 -0.062,-0.089 0.041,-0.371 0.062,-0.557 0.105,-0.928 0.008,-0.073 0.012,-0.109 0.02,-0.181 -0.015,-0.036 -0.023,-0.053 -0.038,-0.088 -0.015,-0.021 -0.023,-0.031 -0.038,-0.052 -0.059,-0.007 -0.088,-0.011 -0.147,-0.018 -0.043,0.058 -0.064,0.086 -0.106,0.145 -0.063,0.638 -0.094,0.957 -0.157,1.596 -0.006,0.052 -0.009,0.078 -0.015,0.13 -0.025,0.311 -0.038,0.465 -0.062,0.775 0.008,0.076 0.013,0.114 0.021,0.19 0.009,0.011 0.013,0.017 0.022,0.029 0.062,0.036 0.093,0.054 0.155,0.09 0.046,0.014 0.07,0.021 0.117,0.036 C -0.285,0.458 -0.199,0.455 -0.025,0.45 0.034,0.425 0.064,0.413 0.122,0.388 0.155,0.359 0.171,0.344 0.204,0.315 0.245,0.182 0.265,0.115 0.306,-0.018 0.321,-0.145 0.329,-0.208 0.344,-0.335 0.368,-0.543 0.38,-0.648 0.404,-0.855 0.342,-0.979 0.311,-1.041 0.249,-1.165 0.278,-1.247 0.293,-1.288 0.322,-1.369 0.413,-1.67 0.458,-1.82 0.55,-2.12 0.573,-2.146 0.585,-2.159 0.609,-2.185 0.597,-2.253 0.591,-2.287 0.579,-2.354"
             style="fill:#fbfbfb;fill-opacity:1;fill-rule:nonzero;stroke:none"
             id="path121783" />
        </g>
        <g
           id="g121785"
           transform="translate(54.141602,323.5912)">
          <path
             inkscape:connector-curvature="0"
             d="m 0,0 c -0.082,-0.009 -0.122,-0.014 -0.204,-0.024 -0.043,0.035 -0.065,0.052 -0.108,0.086 -0.065,0.552 -0.097,0.827 -0.162,1.378 -0.008,0.072 -0.013,0.108 -0.021,0.179 -0.011,0.346 -0.017,0.519 -0.027,0.865 -0.011,0.093 -0.016,0.14 -0.026,0.232 0.04,0.055 0.06,0.082 0.1,0.136 0.03,-0.004 0.045,-0.007 0.076,-0.011 0.015,10e-4 0.022,0.002 0.038,0.002 C -0.313,2.825 -0.301,2.815 -0.28,2.797 -0.256,2.599 -0.245,2.501 -0.221,2.303 -0.234,2.251 -0.241,2.224 -0.254,2.172 -0.285,2.126 -0.301,2.103 -0.332,2.057 -0.28,2.011 -0.255,1.988 -0.203,1.942 -0.221,1.879 -0.231,1.847 -0.249,1.783 -0.208,1.743 -0.187,1.723 -0.146,1.682 -0.145,1.578 -0.144,1.525 -0.142,1.422 -0.112,1.173 -0.097,1.049 -0.067,0.801 -0.04,0.66 -0.027,0.59 -0.001,0.448 0.014,0.322 0.022,0.259 0.037,0.133 0.022,0.08 0.015,0.053 0,0"
             style="fill:#fbfbfb;fill-opacity:1;fill-rule:nonzero;stroke:none"
             id="path121787" />
        </g>
        <g
           id="g121789"
           transform="translate(55.833298,323.8058)">
          <path
             inkscape:connector-curvature="0"
             d="m 0,0 c -0.072,-0.038 -0.108,-0.057 -0.179,-0.095 -0.068,-0.018 -0.102,-0.029 -0.17,-0.047 -0.035,-0.005 -0.052,-0.008 -0.088,-0.013 -0.069,0.021 -0.103,0.031 -0.172,0.052 -0.082,0.054 -0.124,0.081 -0.206,0.134 -0.046,0.056 -0.07,0.084 -0.117,0.14 -0.016,0.131 -0.024,0.196 -0.039,0.328 0.034,0.037 0.052,0.056 0.086,0.093 0.058,-0.004 0.086,-0.006 0.143,-0.01 0.036,-0.047 0.054,-0.069 0.09,-0.115 0.014,-0.064 0.02,-0.096 0.034,-0.159 0.075,-0.04 0.113,-0.06 0.188,-0.101 0.064,0.018 0.095,0.028 0.159,0.046 0.038,0.076 0.057,0.114 0.095,0.189 -0.002,0.092 -0.003,0.137 -0.005,0.229 -0.009,0.071 -0.013,0.107 -0.022,0.178 -0.039,0.077 -0.059,0.116 -0.098,0.194 -0.019,0.02 -0.028,0.029 -0.047,0.049 -0.148,0.015 -0.222,0.023 -0.37,0.038 -0.071,0.043 -0.106,0.065 -0.178,0.108 -0.052,0.056 -0.078,0.084 -0.131,0.14 -0.03,0.079 -0.045,0.119 -0.076,0.198 -0.027,0.226 -0.04,0.339 -0.067,0.566 0.037,0.105 0.055,0.156 0.091,0.261 0.067,0.082 0.101,0.122 0.168,0.204 0.072,0.035 0.107,0.053 0.179,0.088 C -0.63,2.694 -0.579,2.694 -0.477,2.693 -0.415,2.67 -0.384,2.658 -0.322,2.635 -0.267,2.568 -0.24,2.535 -0.185,2.468 -0.169,2.418 -0.16,2.392 -0.144,2.342 -0.161,2.318 -0.17,2.306 -0.187,2.282 -0.18,2.223 -0.177,2.193 -0.169,2.134 -0.187,2.112 -0.195,2.1 -0.213,2.078 -0.228,2.075 -0.236,2.074 -0.251,2.071 -0.331,2.157 -0.371,2.2 -0.45,2.286 -0.469,2.304 -0.478,2.313 -0.497,2.332 -0.591,2.303 -0.638,2.288 -0.731,2.258 -0.755,2.133 -0.768,2.071 -0.792,1.947 -0.768,1.835 -0.757,1.779 -0.733,1.667 -0.728,1.635 -0.725,1.619 -0.721,1.587 -0.649,1.534 -0.613,1.509 -0.541,1.456 -0.443,1.444 -0.394,1.438 -0.296,1.426 -0.203,1.343 -0.156,1.302 -0.062,1.22 -0.011,1.001 0.016,0.892 0.068,0.674 0.075,0.642 0.078,0.626 0.086,0.596 0.096,0.455 0.101,0.385 0.11,0.244 0.066,0.147 0.044,0.097 0,0"
             style="fill:#fbfbfb;fill-opacity:1;fill-rule:nonzero;stroke:none"
             id="path121791" />
        </g>
        <g
           id="g121793"
           transform="translate(56.505905,326.5896)">
          <path
             inkscape:connector-curvature="0"
             d="M 0,0 C 0.072,0.035 0.107,0.052 0.179,0.087 0.247,0.103 0.281,0.111 0.348,0.128 0.383,0.132 0.401,0.133 0.436,0.137 0.505,0.114 0.539,0.104 0.608,0.081 0.69,0.027 0.731,0 0.814,-0.055 0.86,-0.11 0.884,-0.137 0.931,-0.192 0.947,-0.319 0.955,-0.382 0.971,-0.51 0.936,-0.545 0.919,-0.563 0.884,-0.598 0.827,-0.594 0.798,-0.591 0.741,-0.586 0.705,-0.541 0.687,-0.518 0.651,-0.473 0.638,-0.411 0.631,-0.38 0.618,-0.318 0.542,-0.278 0.505,-0.257 0.43,-0.216 0.366,-0.232 0.334,-0.24 0.271,-0.256 0.233,-0.329 0.214,-0.366 0.176,-0.44 0.179,-0.53 0.18,-0.575 0.182,-0.665 0.19,-0.735 0.195,-0.77 0.203,-0.84 0.243,-0.917 0.262,-0.956 0.301,-1.032 0.32,-1.052 0.33,-1.062 0.349,-1.081 0.497,-1.097 0.57,-1.104 0.719,-1.119 0.79,-1.161 0.825,-1.182 0.896,-1.224 0.949,-1.279 0.976,-1.305 1.028,-1.359 1.058,-1.436 1.074,-1.474 1.105,-1.55 1.132,-1.769 1.146,-1.878 1.173,-2.097 1.136,-2.199 1.118,-2.25 1.082,-2.352 1.015,-2.434 0.981,-2.474 0.914,-2.556 0.842,-2.593 0.807,-2.611 0.735,-2.648 0.633,-2.651 0.581,-2.652 0.479,-2.655 0.417,-2.634 0.386,-2.623 0.324,-2.602 0.269,-2.538 0.242,-2.506 0.187,-2.441 0.17,-2.392 0.162,-2.367 0.145,-2.317 c 0.018,0.024 0.026,0.036 0.044,0.061 -0.008,0.058 -0.011,0.087 -0.019,0.145 0.018,0.023 0.027,0.034 0.044,0.058 0.016,0.002 0.023,0.003 0.039,0.006 0.08,-0.083 0.119,-0.124 0.199,-0.207 0.019,-0.018 0.029,-0.027 0.047,-0.045 0.094,0.032 0.141,0.047 0.234,0.079 0.025,0.122 0.037,0.183 0.061,0.306 -0.024,0.108 -0.036,0.163 -0.06,0.271 -0.005,0.031 -0.007,0.047 -0.012,0.078 -0.072,0.051 -0.108,0.076 -0.18,0.127 -0.098,0.012 -0.147,0.018 -0.245,0.029 -0.086,0.081 -0.13,0.122 -0.216,0.204 -0.037,0.218 -0.055,0.327 -0.091,0.544 -0.023,0.03 -0.035,0.045 -0.058,0.075 -0.017,0.14 -0.025,0.209 -0.042,0.348 C -0.066,-0.142 -0.044,-0.095 0,0"
             style="fill:#fbfbfb;fill-opacity:1;fill-rule:nonzero;stroke:none"
             id="path121795" />
        </g>
        <g
           id="g121797"
           transform="translate(58.843506,326.37421)">
          <path
             inkscape:connector-curvature="0"
             d="m 0,0 c -0.095,0.002 -0.143,0.003 -0.238,0.005 -0.025,-0.044 -0.038,-0.066 -0.063,-0.111 -0.004,-0.116 -0.007,-0.175 -0.012,-0.291 0.027,-0.045 0.04,-0.068 0.066,-0.113 0.013,-0.24 0.019,-0.361 0.032,-0.601 0.016,-0.126 0.025,-0.188 0.041,-0.313 0.005,-0.168 0.007,-0.251 0.012,-0.42 0.033,-0.044 0.05,-0.066 0.083,-0.109 C 0.02,-1.972 0.07,-1.981 0.168,-2 0.203,-1.964 0.22,-1.946 0.255,-1.911 0.27,-1.831 0.278,-1.79 0.294,-1.709 0.252,-1.322 0.231,-1.128 0.19,-0.74 0.167,-0.486 0.155,-0.359 0.132,-0.104 0.079,-0.063 0.053,-0.042 0,0 M 0.634,-1.889 C 0.606,-1.973 0.592,-2.014 0.563,-2.098 0.486,-2.168 0.447,-2.204 0.369,-2.274 0.306,-2.299 0.275,-2.312 0.212,-2.338 0.125,-2.339 0.081,-2.34 -0.005,-2.341 c -0.091,0.036 -0.137,0.055 -0.228,0.092 -0.066,0.072 -0.099,0.107 -0.165,0.18 -0.034,0.106 -0.051,0.159 -0.085,0.266 0.016,0.04 0.024,0.06 0.04,0.099 -0.008,0.12 -0.011,0.179 -0.018,0.298 0.018,0.071 0.027,0.107 0.045,0.178 -0.005,0.038 -0.008,0.057 -0.013,0.095 -0.056,0.146 -0.083,0.219 -0.139,0.365 -0.026,0.193 -0.039,0.29 -0.065,0.483 0.022,0.061 0.033,0.092 0.055,0.152 -0.009,0.072 -0.014,0.107 -0.023,0.179 0.108,0.107 0.162,0.159 0.27,0.265 0.045,0.015 0.068,0.022 0.113,0.037 C -0.123,0.347 -0.075,0.347 0.02,0.346 0.112,0.306 0.158,0.287 0.25,0.247 0.316,0.175 0.349,0.138 0.415,0.066 0.454,-0.231 0.474,-0.381 0.513,-0.678 0.523,-0.756 0.528,-0.795 0.538,-0.872 0.553,-0.99 0.561,-1.048 0.576,-1.165 0.599,-1.455 0.611,-1.6 0.634,-1.889"
             style="fill:#fbfbfb;fill-opacity:1;fill-rule:nonzero;stroke:none"
             id="path121799" />
        </g>
        <g
           id="g121801"
           transform="translate(61.280304,325.2121)">
          <path
             inkscape:connector-curvature="0"
             d="M 0,0 C 0.036,-0.276 0.055,-0.414 0.092,-0.69 0.07,-0.749 0.059,-0.779 0.037,-0.838 0.011,-0.861 -0.002,-0.872 -0.028,-0.895 c -0.046,-0.006 -0.07,-0.008 -0.116,-0.015 -0.051,0.034 -0.076,0.051 -0.127,0.085 -0.058,0.137 -0.087,0.206 -0.146,0.344 -0.022,0.027 -0.034,0.04 -0.057,0.066 -0.017,0.057 -0.026,0.084 -0.043,0.14 -0.02,0.027 -0.031,0.04 -0.051,0.068 -0.033,0.09 -0.049,0.135 -0.082,0.226 C -0.702,0.12 -0.729,0.171 -0.781,0.273 -0.8,0.29 -0.81,0.299 -0.829,0.316 -0.846,0.295 -0.855,0.284 -0.872,0.262 c 0.008,-0.221 0.013,-0.332 0.022,-0.553 0.029,-0.218 0.044,-0.326 0.074,-0.544 -0.023,-0.053 -0.034,-0.08 -0.057,-0.132 -0.025,-0.014 -0.038,-0.021 -0.064,-0.036 -0.029,-0.002 -0.044,-0.004 -0.074,-0.007 -0.063,0.059 -0.095,0.088 -0.158,0.147 -0.008,0.207 -0.011,0.31 -0.018,0.517 -0.048,0.44 -0.072,0.66 -0.12,1.1 -0.004,0.07 -0.006,0.105 -0.009,0.176 -0.014,0.258 -0.021,0.386 -0.036,0.644 0.019,0.011 0.029,0.017 0.047,0.028 C -1.207,1.597 -1.179,1.595 -1.122,1.59 -1.043,1.493 -1.004,1.444 -0.925,1.348 -0.907,1.289 -0.898,1.259 -0.88,1.2 -0.846,1.157 -0.828,1.135 -0.794,1.092 -0.703,0.916 -0.658,0.828 -0.568,0.653 -0.537,0.57 -0.522,0.528 -0.491,0.444 c 0.023,-0.023 0.034,-0.036 0.057,-0.059 0.007,0 0.01,0.001 0.017,0.001 -0.021,0.382 -0.032,0.573 -0.053,0.954 -0.014,0.095 -0.02,0.143 -0.033,0.237 0.025,0.039 0.038,0.059 0.063,0.097 0.065,0.008 0.097,0.011 0.161,0.018 C -0.251,1.637 -0.238,1.609 -0.21,1.553 -0.185,1.44 -0.172,1.384 -0.146,1.27 -0.116,1.16 -0.1,1.105 -0.069,0.995 -0.042,0.598 -0.028,0.398 0,0"
             style="fill:#fbfbfb;fill-opacity:1;fill-rule:nonzero;stroke:none"
             id="path121803" />
        </g>
        <g
           id="g121805"
           transform="translate(57.886795,328.44591)">
          <path
             inkscape:connector-curvature="0"
             d="m 0,0 0,-0.879 c 0,-0.033 -0.007,-0.046 -0.033,-0.046 l -0.67,0 c -0.023,0 -0.036,0.016 -0.036,0.039 l 0,0.879 c 0,0.037 -0.013,0.05 -0.042,0.05 l -0.87,0 c -0.026,0 -0.039,0.016 -0.039,0.045 l 0,0.667 c 0,0.026 0.01,0.039 0.036,0.039 l 0.876,0 c 0.026,0 0.039,0.013 0.039,0.043 l 0,0.755 c 0,0.019 0.013,0.032 0.033,0.032 l 0.667,0 C -0.013,1.624 0,1.615 0,1.592 L 0,0.837 C 0,0.801 0.007,0.794 0.036,0.794 l 0.876,0 c 0.026,0 0.036,-0.013 0.036,-0.042 l 0,-0.671 C 0.948,0.059 0.935,0.043 0.912,0.043 l -0.866,0 C 0.01,0.043 0,0.036 0,0"
             style="fill:#ffffff;fill-opacity:1;fill-rule:nonzero;stroke:none"
             id="path121807" />
        </g>
        <g
           id="g121809"
           transform="translate(62.707306,330.153)">
          <path
             inkscape:connector-curvature="0"
             d="m 0,0 c -0.097,0.73 -0.195,1.461 -0.292,2.191 l -4.674,0 c 0.194,-0.95 0.389,-1.899 0.584,-2.849 1.46,0.22 2.921,0.439 4.382,0.658"
             style="fill:#eb1f26;fill-opacity:1;fill-rule:nonzero;stroke:none"
             id="path121811" />
        </g>
        <g
           id="g121813"
           transform="translate(59.855301,330.29311)">
          <path
             inkscape:connector-curvature="0"
             d="M 0,0 C -0.049,0.266 -0.073,0.4 -0.122,0.667 -0.359,0.648 -0.477,0.639 -0.714,0.621 c 0.053,-0.276 0.079,-0.413 0.132,-0.689 -0.162,-0.019 -0.242,-0.028 -0.404,-0.047 -0.112,0.569 -0.224,1.139 -0.336,1.708 0.168,0.005 0.253,0.006 0.421,0.011 0.049,-0.259 0.074,-0.388 0.123,-0.647 0.239,0.014 0.358,0.021 0.596,0.035 -0.045,0.25 -0.068,0.375 -0.114,0.626 0.168,0.004 0.253,0.006 0.421,0.01 C 0.218,1.101 0.311,0.574 0.404,0.047 0.242,0.028 0.161,0.019 0,0"
             style="fill:#ffffff;fill-opacity:1;fill-rule:nonzero;stroke:none"
             id="path121815" />
        </g>
        <g
           id="g121817"
           transform="translate(61.072601,331.6176)">
          <path
             inkscape:connector-curvature="0"
             d="m 0,0 c -0.038,-0.001 -0.057,-0.002 -0.094,-0.004 0.054,-0.335 0.081,-0.503 0.135,-0.838 0.037,0.003 0.056,0.005 0.092,0.008 0.27,0.026 0.421,0.203 0.384,0.448 C 0.48,-0.14 0.276,0.012 0,0 M 0.285,-1.149 C 0.047,-1.177 -0.072,-1.191 -0.309,-1.219 -0.395,-0.707 -0.482,-0.196 -0.568,0.316 -0.32,0.321 -0.197,0.324 0.051,0.33 0.46,0.328 0.887,0.046 0.948,-0.356 1.006,-0.741 0.674,-1.097 0.285,-1.149"
             style="fill:#ffffff;fill-opacity:1;fill-rule:nonzero;stroke:none"
             id="path121819" />
        </g>
      </g>
    </g>
  </g>
</svg>
