<?xml version="1.0" encoding="UTF-8" standalone="no"?>
<!-- Created with Inkscape (http://www.inkscape.org/) -->
<svg xmlns:rdf="http://www.w3.org/1999/02/22-rdf-syntax-ns#" xmlns="http://www.w3.org/2000/svg" height="102.89" width="600" version="1.1" xmlns:cc="http://creativecommons.org/ns#" xmlns:dc="http://purl.org/dc/elements/1.1/">
 <metadata>
  <rdf:RDF>
   <cc:Work rdf:about="">
    <dc:format>image/svg+xml</dc:format>
    <dc:type rdf:resource="http://purl.org/dc/dcmitype/StillImage"/>
    <dc:title/>
   </cc:Work>
  </rdf:RDF>
 </metadata>
 <g fill-rule="nonzero" transform="translate(19.94472,-258.37294)">
  <path fill="#30b4b6" d="m4.1435,281.51c-19.003,0-24.088,8.0271-24.088,30.109v10.177c0,22.088,5.0852,30.115,24.088,30.115,16.334,0,23.16-6.1568,23.16-21.017v-5.2217h-18.873v5.3582c0,6.2866-0.93513,9.365-4.819,9.365-3.877,0-4.6825-3.0784-4.6825-9.365v-28.641c0-6.2934,0.93513-9.3718,4.819-9.3718,3.877,0,5.2149,2.6757,5.2149,8.4298v4.0204h18.341v-2.9487c0-14.853-6.8258-21.01-23.16-21.01"/>
  <path fill="#30b4b6" d="m32.75,350.3,18.873,0,0-67.186-18.873,0,0,67.186z"/>
  <path fill="#30b4b6" d="m32.75,273.89,18.873,0,0-15.522-18.873,0,0,15.522z"/>
  <path fill="#30b4b6" d="m91.234,281.51c-5.4879,0-10.034,3.0784-14.32,9.365l-0.53241-7.7609h-18.341v67.186h18.873v-46.975c0-5.6244,1.0716-8.1636,4.2866-8.1636,3.3446,0,4.0136,2.8054,4.0136,8.1636v46.975h19.003v-48.989c0-13.515-2.4095-19.802-12.983-19.802"/>
  <path fill="#30b4b6" d="m133.31,281.51c-18.471,0-23.562,8.2782-23.562,30.093v10.187c0,21.945,5.0905,30.125,24.093,30.125,16.327,0,23.156-6.3078,23.156-21.031v-2.2812h-18.187v2.4062c0,6.2866-1.0639,9.3749-5.3437,9.3749-3.8839,0-4.8437-3.0883-4.8437-9.3749v-11.375h28.375v-8.0312c0-22.211-4.9505-30.093-23.687-30.093zm0.40624,10.687c4.1501,0,5.0937,3.3534,5.0937,9.9061v6.8437h-10.187v-6.8437c0-6.6893,0.95044-9.9061,5.0937-9.9061z"/>
  <path fill="#30b4b6" d="m269.87,268.76c-20.034,0-27.922,3.9902-29.218,19.219-1.6518-5.4675-5.1098-7.2187-12.031-7.2187-6.1773,0-10.637,2.3921-15.312,9.3749-1.099-6.5664-5.8464-9.3749-13-9.3749-5.6381,0-9.9614,2.1149-14.344,8.5312l-0.34374-6.9687h-20.094v70.062h20.375v-48.218c0-5.7473,0.67112-8.2186,4.125-8.2186,3.0033,0,3.75,2.601,3.75,8.2186v48.218h20.5v-48.781c-0.007-5.4197,0.65638-7.6562,4.0624-7.6562,3.0102,0,3.6875,2.2824,3.6875,7.7499v48.687h18.156c2.8668,6.307,8.1494,8.8749,16.156,8.8749,7.3718,0,12.916-3.7055,18.062-11.937l1.125,9.9061h23.906v-6.8437h16.5,0.68749l0.34374-0.59374,9.8436-17.5,9.7811,17.5,0.34374,0.59374h0.6875,21.531,2.0937l-1.0312-1.75-19.906-34.593,18.531-32.312,0.99999-1.7812h-2.0625-21.531-0.71874l-0.34375,0.62499-8.3436,15.187-8.4062-15.187-0.34375-0.62499h-0.71874-19.562c-3.1603-9.5424-11.323-13.187-27.937-13.187zm-0.87499,15.375c4.9214,0,5.4062,4.2828,5.4062,11.969v6.0937c-16.641,0.99657-26.428,2.9874-31.875,9.0624v-9.6874c0-1.9795-0.0714-3.7892-0.1875-5.2499h20.219v-1.625c0-7.3514,1.3249-10.562,6.4374-10.562zm30.375,7.5937,13.875,24.25,0,0.0312-13.812,24.031,0-45.499c0-0.98973-0.0283-1.9046-0.0625-2.8125zm-25,25.593,0,16.969c0,7.72-0.97114,11.25-5.9062,11.25-4.9214,0.007-5.9999-3.5299-5.9999-11.25v-5.4062c0-8.0612,2.9234-10.689,11.906-11.562z"/>
  <path fill="#30b4b6" d="m367.34,281.58c-2.4232,0-4.4687,1.9159-4.4687,4.4687,0,2.5801,2.0455,4.4374,4.4687,4.4374,2.3958,0,4.4374-1.8573,4.4374-4.4374,0-2.5528-2.0416-4.4687-4.4374-4.4687zm0,0.74999c1.9863,0,3.5625,1.6096,3.5625,3.7187,0,2.1433-1.5762,3.7187-3.5625,3.7187-2.0136,0-3.5625-1.5754-3.5625-3.7187,0-2.1092,1.5488-3.7187,3.5625-3.7187zm-1.6875,1.1562,0,5.1249,0.74999,0,0-2.2187,0.90624,0,1.3125,2.2187,0.87499,0-1.4375-2.25c0.744-0.0956,1.3125-0.516,1.3125-1.4375,0-1.0102-0.61114-1.4375-1.8125-1.4375h-1.9062zm0.74999,0.65624,1.0625,0c0.53241,0,1.0937,0.10837,1.0937,0.75,0,0.78496-0.57028,0.84374-1.2187,0.84374h-0.93749v-1.5937z"/>
  <path fill="#928e89" d="m497.01,281.98,9.754,0,0,68.114-9.754,0,0-29.644-38.279,0,0,29.644-9.7472,0,0-68.114,9.7472,0,0,29.446,38.279,0,0-29.446z"/>
  <path fill="#928e89" d="m517.46,281.98,0,68.03,21.531,0c6.0476,0,10.162-0.18996,12.312-0.53124,2.1501-0.34812,4.4891-1.021,7.0624-2.0312,4.3822-1.6518,8.2382-4.0878,11.562-7.3437,3.2354-3.1535,5.7457-6.8117,7.4999-10.969,1.761-4.1637,2.625-8.5096,2.625-13.062,0-6.3685-1.6004-12.257-4.7812-17.656-3.1945-5.3924-7.4893-9.503-12.875-12.281-5.3924-2.7781-12.73-4.1562-22-4.1562h-22.937zm9.7499,8.6874,12.187,0c4.6825,0,8.0714,0.17631,10.187,0.53124,2.1092,0.36178,4.3325,1.0885,6.6874,2.1875,2.3617,1.1126,4.4587,2.5298,6.2812,4.25,4.9419,4.6142,7.4062,10.564,7.4062,17.875,0,7.4469-2.3997,13.626-7.2187,18.5-1.488,1.4949-3.153,2.7642-4.9687,3.7812-1.802,1.0239-4.0157,1.8691-6.7187,2.5312-2.703,0.66892-6.5012,0.99999-11.375,0.99999h-12.469v-50.656z"/>
  <path fill="#30b4b6" d="m376.85,293.47c0-3.7951,0.95561-13.46,5.7883-19.399,4.3821-5.5357,12.416-7.6722,21.051-7.4333,21.146,0.23208,24.914,12.518,25.406,24.935,0.35494,9.44-3.5631,16.416-7.4538,21.255-4.8531,6.3958-23.276,20.559-25.173,30.73h31.904v17.488h-53.405v-6.0272c0-22.798,13.467-35.085,24.709-45.494,5.0579-4.6142,8.3548-11.918,8.3548-17.952,0.24573-5.092-0.9283-8.9827-5.5289-8.9827-5.563,0-6.034,4.3685-6.034,8.9827v9.2216h-19.617v-7.3241z"/>
 </g>
</svg>
