<?xml version="1.0" encoding="UTF-8" standalone="no"?>
<!-- Created with Inkscape (http://www.inkscape.org/) -->

<svg
   xmlns:dc="http://purl.org/dc/elements/1.1/"
   xmlns:cc="http://creativecommons.org/ns#"
   xmlns:rdf="http://www.w3.org/1999/02/22-rdf-syntax-ns#"
   xmlns:svg="http://www.w3.org/2000/svg"
   xmlns="http://www.w3.org/2000/svg"
   xmlns:inkscape="http://www.inkscape.org/namespaces/inkscape"
   version="1.1"
   width="479.90494"
   height="697.05066"
   viewBox="0 0 383.92395 557.64053"
   id="svg3021">
  <metadata
     id="metadata3055">
    <rdf:RDF>
      <cc:Work
         rdf:about="">
        <dc:format>image/svg+xml</dc:format>
        <dc:type
           rdf:resource="http://purl.org/dc/dcmitype/StillImage" />
      </cc:Work>
    </rdf:RDF>
  </metadata>
  <defs
     id="defs3053" />
  <path
     d="m 241.23396,0.8 c -0.6,1.76 -1.17,3.54 -1.75,5.3 6.45,-0.01 13.035,0.44 19.125,2.75 5.96,2.08 11.265,6.77 12.825,13.05 2.36,8.78 -0.68,17.73 -3.4,26.05 -10.04,31.23 -20.03,62.49 -30.1,93.7 -9.47,-8.16 -21.07,-13.935 -33.4,-16.175 -8.85,-1.74 -17.925,-1.165 -26.875,-0.825 -13.38,0.93 -26.68,3.14 -39.55,6.9 -30.57,8.85 -58.475002,26.265 -80.475002,49.175 -26.41,27.31 -43.32,62.68 -52.25,99.35 -5.01999996,21.2 -6.985,43.955 -0.325,65.025 5.8,18.52 19.065,34.475 36.175,43.625 19.92,10.76 43.125,13.62 65.475002,12.9 19.94,-1.3 38.645,-9.43 56.025,-18.8 2.2,3.93 3.8,8.165 6.15,12.025 1.58,2.3 3.79,4.855 6.85,4.775 35.05,0.11 70.09,-0.055 105.15,0.075 0.54,-1.71 1.115,-3.4 1.675,-5.1 -7.09,-0.04 -14.375,-0.7 -20.925,-3.6 -5.42,-2.29 -9.8,-7.025 -11.15,-12.825 -1.55,-7.11 -0.075,-14.475 2.175,-21.275 33.39,-103.99 66.77,-208 100.15,-312 3.03,-9.39 5.815,-19.02 6.025,-28.95 -0.24,-4.22 -0.8,-8.965 -4.05,-12.025 -2.34,-2.43 -5.88,-3.03 -9.1,-3.1 -34.81,-0.01 -69.63,0.025 -104.45,-0.025 z m -52.1,128.55 c 11.91005,-0.0432 23.83125,2.96875 34.025,9.2 4.58,2.69 8.645,6.1 12.625,9.6 -20.17,63.41 -40.66,126.745 -60.95,190.125 -4.1,12.95 -8.65,25.785 -11.55,39.075 -17.01,9.96 -35.695,18.155 -55.625,19.225 -9.930002,0.46 -20.645002,-0.54 -28.925002,-6.55 -8.12,-5.93 -11.87,-16.285 -11.8,-26.075 0.37,-7.82 2.36,-15.45 4.1,-23.05 7.99,-31.9 18.17,-63.205 28.3,-94.475 7.410002,-22.39 14.970002,-44.755 23.950002,-66.575 3,-6.94 5.9,-13.99 10.1,-20.3 8.59,-12.06 20.45,-22.255 34.7,-26.875 6.7725,-2.18625 13.90397,-3.2991 21.05,-3.325 z"
     inkscape:connector-curvature="0"
     id="path3025" />
  <path
     d="m 334.22396,316.83 c 11.34,-1.96 23.45,1 32.48,8.18 10.61,8.15 16.8,21.67 15.85,35.05 -0.61,17.23 -13.37,33.04 -29.97,37.53 -12.35,3.63 -26.28,0.94 -36.45,-6.92 -11.22,-8.4 -17.55,-22.77 -16.13,-36.72 1.27,-18.25 16.2,-34.27 34.22,-37.12 z"
     inkscape:connector-curvature="0"
     id="path3029"
     style="fill:#5eb2d7" />
  <path
     d="m 41.958958,457.05 c -3.598752,-0.0225 -7.21,0.005 -10.8,0.2 3.34,1.11 8.13,1.4 8.9,5.7 0.52,7.18 0.01504,14.425 0.225,21.625 -11.92,-7.67 -30.26,-1.485 -35.05,11.925 -2.84,7.86 -2.8,16.88 0.35,24.65 5.34,12.99 23.46,18.825 35.15,10.825 0.96,1.08 1.945,2.17 2.925,3.25 18.28,-0.08 36.565,0.27 54.825,-0.2 -1.96,-0.74 -4.055,-1.05 -5.975,-1.85 -2.33,-1.06 -3.21,-3.845 -3.2,-6.225 -0.08,-12.94 0.08,-25.885 -0.05,-38.825 0.01,-2.7 -1.085,-6.775 -4.525,-6.375 -6.95,0.08 -13.91,-0.295 -20.85,0.225 2.19,0.85 4.645,0.985 6.675,2.225 2.13,1.5 2.525,4.37 2.475,6.8 -0.08,12.32 0.105,24.63 -0.07496,36.95 -0.23,6.73 -9.395,7.88 -13.925,4.75 -2.15,-1.52 -2.435,-4.29 -2.475,-6.7 -0.03,-20.68 0.05496,-41.37 -0.02496,-62.05 -0.08,-2.56 -0.49,-6.67 -3.8,-6.8 -3.595,0.005 -7.176248,-0.0775 -10.775,-0.1 z m -12.425,25.175 c 3.805784,-0.0998 7.615,1.465 10.75,3.625 0.05,15.05 -0.16,30.1 0.1,45.15 -3.98,2.63 -8.84,4.56 -13.65,3.25 -3.47,-0.77 -5.855,-3.98 -6.425,-7.35 -1.22,-11.64 -0.74,-23.375 -0.2,-35.025 0.13,-3.67 1.96,-7.7 5.65,-8.95 1.247496,-0.4475 2.506408,-0.66672 3.775,-0.7 z"
     inkscape:connector-curvature="0"
     id="path3031" />
  <path
     d="m 78.163958,457.61 c 5.04,-2.13 11.33,1.9 11.15,7.44 0.6,6.59 -8.32,11.15 -13.22,6.56 -4.96,-3.49 -3.63,-12.06 2.07,-14 z"
     inkscape:connector-curvature="0"
     id="path3033"
     style="fill:#000000" />
  <path
     d="m 166.32396,457.83 c 5.08,-2.57 11.8,1.41 11.79,7.13 0.52,6.28 -7.43,10.94 -12.59,7.19 -5.3,-3.1 -4.81,-11.81 0.8,-14.32 z"
     inkscape:connector-curvature="0"
     id="path3035"
     style="fill:#000000" />
  <path
     d="m 269.22396,457.65 c 5.41,-2.41 12.15,2.49 11.19,8.43 -0.24,6.19 -8.67,9.81 -13.25,5.49 -4.84,-3.54 -3.56,-11.91 2.06,-13.92 z"
     inkscape:connector-curvature="0"
     id="path3037"
     style="fill:#000000" />
  <path
     d="m 303.23396,467.33 c 3.35,0.09 6.69,0.08 10.04,0.03 -0.03,4.78 0,9.56 -0.03,14.34 10.16,-0.06 20.32,0.06 30.48,0.05 3.42,-0.21 5.08,3.46 6.27,6.08 4.18,10.33 8.36,20.67 12.59,30.98 2.33,-6.28 7.79467,-18.57528 9.86467,-24.95528 0.31,0.65 0.60999,0.567 0.90999,1.247 -5.71,12.79 -13.04466,32.96828 -18.45466,45.88828 -0.25,-0.06 -0.76,-0.18 -1.02,-0.24 -7.06,-17.39 -13.86,-34.9 -20.9,-52.31 -1.09,-2.27 -2.33,-5.35 -5.28,-5.46 -4.8,-0.55 -9.64,-0.2 -14.45,-0.28 0.05,14.74 0.11,29.49 -0.01,44.24 -0.07,2.39 0.84,5.21 3.19,6.26 1.91,0.78 3.99,1.1 5.94,1.82 -32.74,0.58 -65.51,-0.03 -98.25,0.29 -0.29,-0.2 -0.87,-0.59 -1.16,-0.79 3.5,-0.25 8.16,-1.47 8.45,-5.71 0.29,-9.94 0.08,-19.89 0.1,-29.83 -0.16,-5.41 -0.79,-11.76 -5.31,-15.37 -4.93,-2.98 -10.94,-0.66 -15.35,2.22 0.32,14.3 -0.14,28.62 0.23,42.91 0.28,4.11 4.68,5.5 8.14,5.72 l -0.02,0.84 c -21.69,-0.09 -43.39,-0.12 -65.09,0.01 -0.26,-0.19 -0.78,-0.57 -1.03,-0.77 2.29,-0.56 5.04,-0.45 6.76,-2.31 2.01,-1.84 1.87,-4.77 1.97,-7.25 -0.02,-10.98 -0.02,-21.96 0,-32.95 -0.1,-2.49 0.05,-5.41 -1.93,-7.26 -1.92,-1.91 -4.87,-1.78 -7.25,-2.77 7.01,-0.55 14.07,-0.17 21.1,-0.24 3.33,-0.29 4.17,3.7 4.3,6.24 0.19,13.3 -0.07,26.61 0.11,39.91 0.09,8.62 16.03,8.73 16.3,0.2 0.18,-12.04 -0.01,-24.08 0.09,-36.11 -0.09,-2.44 0.28,-5.34 -1.74,-7.15 -1.75,-2 -4.68,-1.76 -7,-2.59 6.51,-1.19 13.32,-0.22 19.95,-0.51 2.25,-0.41 3.32,1.9 4.76,3.15 6.25,-4.6 14.35,-4.1 21.56,-2.65 4.26,0.91 8.56,2.57 11.61,5.79 3.03,3.16 4.31,7.65 4.32,11.95 0.06,9.32 -0.1,18.65 0.06,27.98 0.12,8.54 15.9,8.58 16.05,0.01 0.03,-13.33 0.25,-26.69 -0.11,-40.01 -0.54,-4.51 -5.51,-4.92 -8.95,-5.97 6.87,-0.56 13.79,-0.15 20.68,-0.26 3.43,-0.47 4.71,3.49 4.66,6.24 0.23,13.36 -0.12,26.73 0.16,40.09 0.43,8.44 15.84,8.49 16.31,0.05 0.16,-13.07 0.1,-26.17 0.03,-39.25 0.02,-4.88 -5.2,-6.02 -8.96,-6.82 3.61,-0.73 7.79,0.51 10.87,-1.98 3.83,-3 4.13,-8.27 4.44,-12.74 z"
     inkscape:connector-curvature="0"
     id="path3039"
     style="fill:#000000" />
  <path
     d="m 151.98396,481.91 c -2.85,1.17 -5.81,2.75 -6.82,5.91 -6.51,15.8 -12.71,31.73 -19.18,47.55 -2.22,-0.29 -5.73,0.52 -6.39,-2.43 -5.75,-14.33 -11.4,-28.71 -17.11,-43.05 -0.91,-2.19 -1.83,-4.5 -3.620002,-6.12 -1.89,-0.88 -4.02,-1.08 -5.98,-1.78 6.61,-0.54 13.250002,-0.16 19.870002,-0.24 2.82,-0.2 4.46,2.66 5.56,4.84 4.48,10.76 8.76,21.61 13.22,32.38 3.65,-9.65 7.73,-19.14 11.53,-28.74 0.55,-1.65 1.3,-3.36 1,-5.13 -1.29,-2.47 -4.52,-2.03 -6.75,-3 5.27854,-0.74573 9.28395,-0.6377 14.67,-0.19 z"
     inkscape:connector-curvature="0"
     id="path3041"
     style="fill:#000000" />
  <path
     d="m 368.32396,481.98 c 4.91,-0.46 9.87,-0.27 14.8,-0.1 -6.15,1.79 -8.02326,8.03669 -9.83112,13.35776 -0.38,-0.6 -0.50888,-0.73776 -0.85888,-1.33776 1.19,-2.85 3.16,-5.74 2.73,-8.95 -1.5,-2.29 -4.58,-1.95 -6.84,-2.97 z"
     inkscape:connector-curvature="0"
     id="path3043"
     style="fill:#000000" />
  <path
     d="m 334.61396,547.91 c 0.37,-4.02 3.88,-7.62 8.02,-7.44 3.5,-0.29 5.85,2.71 8.77,4.05 0.53,-0.42 1.80118,-4.21733 2.33118,-4.63733 l 1.18067,1.04329 c -1.78,4.88 -4.23185,12.52404 -9.09185,15.21404 -5.36,2.6 -11.94,-2.46 -11.21,-8.23 z"
     inkscape:connector-curvature="0"
     id="path3049"
     style="fill:#000000" />
</svg>
