<?xml version="1.0" encoding="UTF-8" standalone="no"?>
<!-- Created with Inkscape (http://www.inkscape.org/) -->

<svg
   xmlns:dc="http://purl.org/dc/elements/1.1/"
   xmlns:cc="http://creativecommons.org/ns#"
   xmlns:rdf="http://www.w3.org/1999/02/22-rdf-syntax-ns#"
   xmlns:svg="http://www.w3.org/2000/svg"
   xmlns="http://www.w3.org/2000/svg"
   version="1.1"
   width="600"
   height="161.1752"
   id="svg3013">
  <metadata
     id="metadata3039">
    <rdf:RDF>
      <cc:Work
         rdf:about="">
        <dc:format>image/svg+xml</dc:format>
        <dc:type
           rdf:resource="http://purl.org/dc/dcmitype/StillImage" />
        <dc:title></dc:title>
      </cc:Work>
    </rdf:RDF>
  </metadata>
  <defs
     id="defs3037" />
  <g
     transform="matrix(3.2306115,0,0,-3.2306115,-182.69431,2519.7297)"
     id="g3015">
    <g
       id="g3017">
      <path
         d="m 127.811,746.0764 h -4.896 l -3.494,8.24 -3.434,-8.24 h -4.897 l -5.436,17.022 h 5.774 l 2.592,-8.827 3.233,8.827 h 4.394 l 3.234,-8.827 2.591,8.827 h 5.775 l -5.436,-17.022 z m -46.103,-10.714 c -10.8,0 -19.555,8.756 -19.555,19.556 0,10.8 8.755,19.555 19.555,19.555 10.8,0 19.555,-8.755 19.555,-19.555 0,-10.8 -8.755,-19.556 -19.555,-19.556 m 37.006,44.592 c -7.397,0 -14.041,-3.219 -18.609,-8.332 -4.568,5.113 -11.213,8.332 -18.609,8.332 -13.777,0 -24.945,-11.168 -24.945,-24.945 0,-13.777 11.168,-24.945 24.945,-24.945 7.396,0 14.041,3.219 18.609,8.333 4.568,-5.114 11.212,-8.333 18.609,-8.333 13.776,0 24.944,11.168 24.944,24.945 0,13.777 -11.168,24.945 -24.944,24.945"
         id="path3025"
         style="fill:#0c2950" />
      <path
         d="m 82.3507,750.778 h -5.382 v 8.071 h 5.382 c 3.9,0 5.292,-1.623 5.292,-4.036 0,-2.412 -1.382,-4.035 -5.292,-4.035 m 0.742,13.696 h -12.205 v -19.32 h 12.205 c 5.443,0 11.023,2.737 11.023,9.66 0,6.923 -5.58,9.66 -11.023,9.66"
         id="path3027"
         style="fill:#0c2950" />
    </g>
    <g
       id="g3029"
       style="fill:#0c2950;fill-rule:evenodd">
      <path
         d="m 186.9751,767.4765 h 2.875 v -10.576 h -2.384 l -0.207,0.792 c -0.894,-0.517 -1.912,-0.956 -2.867,-0.956 -2.623,0 -3.922,1.289 -3.922,4.44 v 6.3 h 2.816 v -5.847 c 0,-1.78 0.66,-2.267 2.035,-2.267 0.435,0 1.108,0.232 1.654,0.546 v 7.568 z m -22.864,-3.475 c 0,-2.494 -1.306,-4.134 -4.171,-4.134 h -2.079 v 8.269 h 2.176 c 2.885,0 4.074,-1.348 4.074,-4.135 m 3.203,0 c 0,5.194 -2.927,7.101 -6.985,7.101 h -5.647 v -14.202 h 5.444 c 3.891,0 7.188,2.11 7.188,7.101 m 51.084,0.586 c -0.692,0.496 -1.382,0.747 -2.181,0.747 -1.471,0 -2.288,-1.448 -2.332,-2.923 -0.047,-1.53 0.739,-3.089 2.487,-3.089 0.731,0 1.344,0.141 2.172,0.766 l 1.471,-1.764 c -1.081,-0.981 -2.306,-1.573 -3.726,-1.573 -3.589,0 -5.292,2.871 -5.237,5.694 0.053,2.734 1.753,5.422 4.995,5.422 1.476,0 2.773,-0.482 3.672,-1.353 l -1.321,-1.927 z m 6.027,-7.611 h -2.838 v 14.589 h 2.838 v -4.33 c 0.709,0.308 1.784,0.632 2.58,0.632 2.623,0 4.076,-1.289 4.076,-4.44 v -6.451 h -2.853 v 5.998 c 0,1.78 -0.699,2.267 -2.075,2.267 -0.434,0 -1.183,-0.232 -1.728,-0.547 v -7.718 z m -50.501,10.887 c -2.762,0 -4.691,-2.297 -4.659,-5.569 0.035,-3.374 1.808,-5.549 5.089,-5.549 1.453,0 2.979,0.631 3.84,1.728 l -1.441,1.423 c 0,0 -0.929,-0.692 -2.183,-0.742 -1.515,-0.061 -2.435,0.83 -2.553,2.294 h 6.258 c 0.664,4.336 -1.325,6.415 -4.351,6.415 m 1.954,-4.489 h -3.887 c 0.071,1.166 0.792,2.19 1.905,2.19 1.953,0 1.976,-1.656 1.982,-2.19 m 22.618,-3.633 c 0,0 -0.552,-0.261 -1.059,-0.261 -0.669,0 -1.035,0.189 -1.035,1.203 v 4.658 h 2.556 v 2.185 h -2.556 v 2.549 h -2.287 l -0.399,-2.549 h -1.898 v -2.185 h 1.822 l -0.037,-5.333 c 0,-1.867 0.85,-3.205 2.971,-3.205 1.101,0 1.863,0.435 2.715,1.043 l -0.793,1.895 z m 39.299,8.122 c -2.762,0 -4.692,-2.297 -4.658,-5.569 0.034,-3.374 1.807,-5.549 5.088,-5.549 1.454,0 2.979,0.631 3.839,1.728 l -1.441,1.423 c 0,0 -0.928,-0.692 -2.182,-0.742 -1.515,-0.061 -2.434,0.83 -2.553,2.294 h 6.258 c 0.665,4.336 -1.326,6.415 -4.351,6.415 m 1.954,-4.489 h -3.888 c 0.071,1.166 0.792,2.19 1.906,2.19 1.952,0 1.976,-1.656 1.982,-2.19 m -31.354,1.291 0.851,2.151 c 0,0 -1.888,1.065 -3.949,1.033 -2.59,-0.039 -4.185,-1.071 -4.227,-3.018 -0.026,-1.199 0.546,-2.227 1.934,-2.957 1.037,-0.546 2.003,-0.865 2.955,-1.222 0.486,-0.183 0.823,-0.456 0.723,-0.913 -0.082,-0.382 -0.502,-0.535 -0.815,-0.58 -1.277,-0.182 -2.819,0.306 -4.143,0.87 l -0.869,-2.039 c 0,0 1.898,-1.237 4.34,-1.237 1.918,0 4.254,0.572 4.428,2.955 0.111,1.505 -0.546,2.476 -2.128,3.13 -0.649,0.269 -2.75,1.058 -2.75,1.058 -0.64,0.233 -0.858,0.589 -0.78,0.972 0.125,0.618 1.056,0.601 1.78,0.544 1.463,-0.115 2.65,-0.747 2.65,-0.747"
         id="path3031" />
      <path
         d="m 191.757,752.846 h -2.838 v -14.59 h 2.838 v 14.59 z m -20.888,-1.327 h -3.066 l -1.301,-6.15 c -0.13,-0.67 -0.358,-2.565 -0.423,-3.153 -0.108,0.588 -0.471,2.463 -0.644,3.153 l -1.703,6.15 h -2.857 l -1.681,-6.15 c -0.173,-0.69 -0.535,-2.565 -0.644,-3.153 -0.064,0.588 -0.33,2.463 -0.46,3.153 l -1.265,6.15 h -3.109 l 3.106,-13.338 h 2.973 l 1.917,7.064 c 0.217,0.832 0.462,2.188 0.527,2.716 0.086,-0.528 0.33,-1.865 0.547,-2.716 l 1.875,-7.064 h 3.103 l 3.105,13.338 z m 15.227,1.327 h -2.837 v -14.59 h 2.837 v 14.59 z m -9.586,-3.694 c -2.763,0 -4.691,-2.296 -4.658,-5.569 0.034,-3.374 1.808,-5.548 5.088,-5.548 1.453,0 2.979,0.63 3.84,1.728 l -1.441,1.422 c 0,0 -0.928,-0.692 -2.183,-0.742 -1.515,-0.06 -2.435,0.831 -2.552,2.294 h 6.257 c 0.665,4.336 -1.325,6.415 -4.351,6.415 m 1.954,-4.489 h -3.887 c 0.071,1.166 0.792,2.191 1.905,2.191 1.953,0 1.976,-1.657 1.982,-2.191 m 20.187,4.489 c -2.762,0 -4.692,-2.296 -4.658,-5.569 0.034,-3.374 1.808,-5.548 5.087,-5.548 1.454,0 2.98,0.63 3.84,1.728 l -1.441,1.422 c 0,0 -0.928,-0.692 -2.182,-0.742 -1.515,-0.06 -2.435,0.831 -2.554,2.294 h 6.259 c 0.665,4.336 -1.326,6.415 -4.351,6.415 m 1.954,-4.489 h -3.888 c 0.071,1.166 0.792,2.191 1.906,2.191 1.952,0 1.976,-1.657 1.982,-2.191"
         id="path3033" />
    </g>
  </g>
</svg>
