<?xml version="1.0" encoding="UTF-8" standalone="no"?>
<!-- Created with Inkscape (http://www.inkscape.org/) -->

<svg
   xmlns:dc="http://purl.org/dc/elements/1.1/"
   xmlns:cc="http://creativecommons.org/ns#"
   xmlns:rdf="http://www.w3.org/1999/02/22-rdf-syntax-ns#"
   xmlns:svg="http://www.w3.org/2000/svg"
   xmlns="http://www.w3.org/2000/svg"
   version="1.0"
   width="584.13513"
   height="96.232697"
   id="svg2426">
  <metadata
     id="metadata3197">
    <rdf:RDF>
      <cc:Work
         rdf:about="">
        <dc:format>image/svg+xml</dc:format>
        <dc:type
           rdf:resource="http://purl.org/dc/dcmitype/StillImage" />
        <dc:title></dc:title>
      </cc:Work>
    </rdf:RDF>
  </metadata>
  <defs
     id="defs2428" />
  <g
     transform="translate(34.285822,-400.2137)"
     id="layer1">
    <g
       id="g3304">
      <path
         d="m 13.096219,468.3734 -35.173151,0 c -0.332469,12.75895 5.325843,18.53068 16.3099987,18.53068 5.65831318,0 11.5381103,-1.33134 16.0894893,-3.55153 l 1.109854,9.43132 c -5.5473269,2.33118 -12.31890209,3.55203 -19.0841488,3.55203 -17.1993442,0 -26.6340832,-8.87835 -26.6340832,-28.29448 0,-16.64589 9.099349,-29.07237 25.1917586,-29.07237 15.7540977,0 22.5222654,10.76267 22.5222654,23.85701 0,1.55283 -0.107578,3.44104 -0.331983,5.54734 M -9.5433606,447.73641 c -6.6542614,0 -11.3166254,4.87997 -12.3125734,12.316 l 23.4111227,0 c 0.2214842,-7.54312 -4.1054888,-12.316 -11.0985493,-12.316 z"
         id="path2444"
         style="fill:#c5182f;fill-opacity:1" />
      <path
         d="m 28.571394,431.86502 c -4.215989,0 -7.657026,-3.32714 -7.657026,-7.43214 0,-4.10549 3.441037,-7.43603 7.657026,-7.43603 4.105489,0 7.546526,3.22003 7.546526,7.43603 0,4.105 -3.441037,7.43214 -7.546526,7.43214 m -5.993217,8.21389 11.87642,0 0,55.14665 -11.87642,0 0,-55.14665 z"
         id="path2446"
         style="fill:#c5182f;fill-opacity:1" />
      <path
         d="m 81.830311,495.22556 0,-35.50562 c 0,-6.88208 -1.885294,-10.87658 -8.211953,-10.87658 -8.320017,0 -14.424705,8.76687 -14.424705,19.75152 l 0,26.63068 -11.873014,0 0,-55.14665 11.320033,0 c 0,2.88464 -0.221484,7.6575 -0.777872,10.76315 l 0.110011,0.11391 c 3.219553,-7.10355 9.877222,-11.98692 19.198543,-11.98692 12.536006,0 16.420497,7.88192 16.420497,17.64524 l 0,38.61127 -11.76154,0 0,0 z"
         id="path2448"
         style="fill:#c5182f;fill-opacity:1" />
      <path
         d="m 114.075,496.3359 c -4.10938,0 -8.21341,-0.44297 -11.65493,-1.11034 l 0.3349,-10.0953 c 3.43812,0.99594 7.76558,1.77382 11.98448,1.77382 6.43668,0 10.87366,-2.77367 10.87366,-7.32504 4.9e-4,-11.09174 -24.18899,-4.437 -24.18899,-23.52162 0,-9.54184 7.76703,-17.08837 22.74667,-17.08837 3.22004,0 6.98916,0.4459 10.32068,0.99937 l -0.33637,9.65281 c -3.32664,-0.99935 -7.21114,-1.55282 -10.76218,-1.55282 -6.54766,0 -9.76429,2.66316 -9.76429,6.87914 0,10.65218 24.41048,5.21536 24.41048,23.52163 4.8e-4,10.32019 -9.20596,17.86672 -23.96411,17.86672 l 0,0 z"
         id="path2450"
         style="fill:#c5182f;fill-opacity:1" />
      <path
         d="m 181.20223,427.87392 c -1.99529,-0.66738 -4.21598,-0.99937 -6.10468,-0.99937 -5.10533,0 -7.43213,2.44169 -7.43213,8.32099 l 0,4.88337 11.32003,0 0,12.97995 -11.32003,0 0,42.1667 -16.86688,0 0,-42.1667 -8.43149,0 0,-12.97995 8.43149,0 0,-4.77238 c 0,-14.64716 6.54621,-22.07929 22.63471,-22.07929 2.88854,0 5.99177,0.22099 8.88176,0.88545 l -1.11278,13.76123 0,0 z"
         id="path2452"
         style="fill:#c5182f;fill-opacity:1" />
      <path
         d="m 231.00942,471.81443 -32.84588,0 c 0.11002,7.32212 4.55041,11.53812 13.64684,11.53812 5.44024,0 11.09855,-1.11036 16.20048,-3.43812 l 1.55622,12.75895 c -6.21469,2.55218 -13.65072,3.77302 -20.41645,3.77302 -18.08772,0 -28.07398,-8.76737 -28.07398,-28.1835 4.9e-4,-16.97787 9.43327,-29.51533 26.51774,-29.51533 16.64199,0 23.968,11.20905 23.968,25.63132 0,2.33118 -0.22197,4.76946 -0.55297,7.43554 m -23.858,-20.75088 c -4.88385,0 -8.43148,3.884 -8.87786,9.54524 l 16.64684,0 c 0.22003,-6.2147 -2.88854,-9.54524 -7.76898,-9.54524 l 0,0 z"
         id="path2454"
         style="fill:#c5182f;fill-opacity:1" />
      <path
         d="m 250.67526,496.4464 c -3.88401,0 -7.87851,-0.44248 -11.43004,-0.88886 l 0.33538,-13.75782 c 3.32616,0.99935 7.54167,1.7743 11.54104,1.7743 4.32599,0 6.98575,-1.7743 6.98575,-4.32696 4.9e-4,-8.1 -20.30449,-3.77303 -20.30449,-22.07931 0,-9.98821 8.10047,-18.42018 24.41388,-18.42018 3.10516,0 6.54279,0.44297 9.65281,0.88885 l -0.33295,13.20485 c -2.88319,-0.88885 -6.43619,-1.33523 -9.76283,-1.33523 -4.33087,0 -6.32618,1.6638 -6.32618,4.21939 0,6.87915 20.63795,4.77287 20.63795,22.07929 0,11.43054 -9.98918,18.64168 -25.41032,18.64168 l 0,0 z"
         id="path2456"
         style="fill:#c5182f;fill-opacity:1" />
      <path
         d="m 304.75147,496.4464 c -12.75895,0 -16.86686,-4.2194 -16.86686,-17.75623 l 0,-25.62791 -8.32148,0 0,-12.98335 8.32148,0 0,-16.31389 16.86686,-4.54749 0,20.86138 11.98499,0 0,12.98335 -11.87497,0 0,21.7478 c 0,5.65783 1.44232,7.54263 5.66172,7.54263 1.99531,0 4.43747,-0.44248 6.21275,-0.88836 l 5e-4,13.42923 c -3.65961,0.88887 -7.99048,1.55284 -11.98499,1.55284 l 0,0 z"
         id="path2458"
         style="fill:#c5182f;fill-opacity:1" />
      <path
         d="m 335.19947,434.31059 c -5.65831,0 -10.31727,-4.43748 -10.31727,-9.98822 0,-5.54781 4.65896,-9.98528 10.31727,-9.98528 5.77173,0 10.43069,4.43747 10.43069,9.98528 0,5.43684 -4.65896,9.98822 -10.43069,9.98822 m -8.43344,5.76832 16.86882,0 0,55.14665 -16.86882,0 0,-55.14665 z"
         id="path2460"
         style="fill:#c5182f;fill-opacity:1" />
      <path
         d="m 386.04348,495.22556 -17.19642,0 -20.30792,-55.14665 18.53069,0 6.76768,19.52712 c 1.44233,4.1089 2.88806,9.21374 3.99937,13.42973 l 0.21807,0 c 0.88789,-4.10549 2.11215,-8.76736 3.55447,-12.87285 l 6.76427,-20.084 17.97819,0 -20.3084,55.14665 0,0 z"
         id="path2462"
         style="fill:#c5182f;fill-opacity:1" />
      <path
         d="m 438.92222,495.22556 c 0,-2.66317 0,-5.54733 0.44297,-8.32148 l -0.11487,0 c -2.6583,5.7693 -9.20645,9.54232 -16.86347,9.54232 -10.54216,0 -16.089,-6.2152 -16.089,-15.09306 0,-13.97931 13.53731,-20.63356 31.07203,-20.63356 l 0,-2.1097 c 0,-4.54797 -2.55364,-6.76817 -9.8777,-6.76817 -4.88336,0 -11.54152,1.55283 -16.089,3.9945 l -1.33572,-13.97979 c 5.66171,-1.77771 13.09725,-3.21955 19.97641,-3.21955 18.97755,0 24.29901,7.10015 24.29901,19.75152 l 0,23.74311 c 0,3.9945 0.11196,8.76736 0.44297,13.09386 l -15.86363,0 0,0 z m -1.55234,-23.74263 c -12.20986,0 -15.09304,3.32713 -15.09304,7.31823 0,2.77366 1.9953,4.77286 5.54683,4.77286 5.65832,0 9.54621,-5.10484 9.54621,-10.53826 l 0,-1.55283 0,0 z"
         id="path2464"
         style="fill:#c5182f;fill-opacity:1" />
      <polygon
         points="144.509,59.8568 144.509,59.8568 147.973,59.8568 147.973,76.4973 144.509,76.4973 "
         transform="matrix(4.8677846,0,0,4.8677846,-240.30896,122.85318)"
         id="polygon2466"
         style="fill:#c5182f;fill-opacity:1" />
      <path
         d="m 519.99517,400.2137 c 16.48086,0 29.85413,13.36888 29.85413,29.85705 0,16.48816 -13.36012,29.86726 -29.85413,29.86726 -16.50616,0 -29.86823,-13.3791 -29.86823,-29.86726 0,-16.48817 13.36207,-29.85705 29.86823,-29.85705 m 11.98985,41.95836 0,-29.90085 -30.05858,10.78993 0,7.4224 9.9517,-3.58903 0,22.4619 20.10688,-7.18435 0,0 z m -11.98985,-37.58465 c -14.07957,0 -25.48382,11.40326 -25.48382,25.48334 0,14.07324 11.40425,25.48382 25.48382,25.48382 14.06645,0 25.46679,-11.41058 25.46679,-25.48382 0,-14.08008 -11.40424,-25.48334 -25.46679,-25.48334 z"
         id="path2468"
         style="fill:#c5182f;fill-opacity:1" />
    </g>
  </g>
</svg>
