<?xml version="1.0" encoding="UTF-8" standalone="no"?>
<!-- Created with Inkscape (http://www.inkscape.org/) -->
<svg xmlns:rdf="http://www.w3.org/1999/02/22-rdf-syntax-ns#" xmlns="http://www.w3.org/2000/svg" height="600" width="600" version="1.1" xmlns:cc="http://creativecommons.org/ns#" xmlns:xlink="http://www.w3.org/1999/xlink" xmlns:dc="http://purl.org/dc/elements/1.1/">
 <defs></defs>
 <metadata>
  <rdf:RDF>
   <cc:Work rdf:about="">
    <dc:format>image/svg+xml</dc:format>
    <dc:type rdf:resource="http://purl.org/dc/dcmitype/StillImage"/>
    <dc:title/>
   </cc:Work>
  </rdf:RDF>
 </metadata>
 <g fill-rule="nonzero" transform="translate(9.97421,-31.64097)">
  <path d="m-9.9742,31.641,600,0,0,600-600,0,0-600z" fill="#96999b"/>
  <path fill="#FFF" d="m290.05,169.32c-64.234,0-116.3,52.062-116.3,116.3,0,64.234,52.062,116.3,116.3,116.3,64.234,0,116.3-52.062,116.3-116.3,0-64.234-52.062-116.3-116.3-116.3"/>
  <path fill="#FFF" d="m187.25,448.92-0.19846,0,0,0.19846,0,25.535c0,3.1092-1.1246,6.0198-3.1092,8.1367-1.9846,1.9846-4.5645,3.1092-7.3429,3.1092s-5.4245-1.1246-7.3429-3.1092c-2.0507-2.1169-3.1753-5.0276-3.1753-8.1367v-25.535-0.19846h-0.1323-8.0706-0.13231v0.19846,25.535c0,5.6229,1.8523,10.452,5.3583,13.958,3.4399,3.4399,8.2029,5.3583,13.495,5.3583,5.226,0,10.055-1.9184,13.429-5.3583,3.5722-3.5061,5.4245-8.3352,5.4245-13.958v-25.535-0.19846h-0.19846-8.0044z"/>
  <path fill="#FFF" d="m258.35,481.75c-2.5799,2.6461-6.1522,4.1676-10.121,4.1676-3.9691,0-7.6075-1.5215-10.121-4.1676-2.5799-2.7122-4.0353-6.5491-4.0353-10.783,0-4.2337,1.4554-8.0706,4.0353-10.783,2.5138-2.6461,6.1522-4.1676,10.121-4.1676,3.9691,0,7.5414,1.5215,10.121,4.1676,2.5799,2.7122,3.9691,6.5491,3.9691,10.783,0,4.2337-1.3892,8.0706-3.9691,10.783m5.8875-27.321c-4.2999-4.1676-9.989-6.4168-16.009-6.4168-6.086,0-11.775,2.2492-16.009,6.4168-4.4322,4.2337-6.8798,10.121-6.8798,16.538,0,6.4168,2.4476,12.37,6.8798,16.604,4.2337,4.1014,9.9228,6.3506,16.009,6.3506,6.0198,0,11.709-2.2492,16.009-6.3506,4.4322-4.2999,6.8798-10.187,6.8798-16.604,0-6.4168-2.4476-12.304-6.8798-16.538"/>
  <path fill="#FFF" d="m296.34,448.01c-5.2922,0-10.055,1.9184-13.495,5.3583-3.5061,3.5061-5.3583,8.3352-5.3583,13.958v25.535,0.19845h0.1323,8.0706,0.19846v-0.19845-25.535c0-3.1092,1.0584-6.0198,3.1092-8.1367,1.9184-2.0507,4.5645-3.1753,7.3429-3.1753s5.4245,1.1246,7.3429,3.1753c2.0507,2.1169,3.1092,5.0276,3.1092,8.1367v25.535,0.19845h0.19846,8.0706,0.1323v-0.19845-25.535c0-5.6229-1.8523-10.452-5.3583-13.958-3.4399-3.4399-8.2029-5.3583-13.495-5.3583"/>
  <path fill="#FFF" d="m422.05,448.92-0.19846,0,0,0.19846,0,27.916c0,5.3583-2.9768,8.8644-7.6736,8.8644-5.5568,0-8.3352-3.4399-8.3352-10.187v-26.593-0.19846h-0.19845-8.0044-0.19846v0.19846,26.593c0,6.7475-2.8445,10.187-8.4013,10.187-4.6306,0-7.6736-3.5061-7.6736-8.8644v-27.916-0.19846h-0.13231-8.0706-0.1323v0.19846,29.702c0,8.4675,6.946,15.149,15.877,15.149,5.2922,0,9.9228-2.2492,12.767-6.086,2.7122,3.8368,7.3429,6.086,12.701,6.086,8.9305,0,15.877-6.6814,15.877-15.149v-29.702-0.19846h-0.19846-8.0044z"/>
  <path fill="#FFF" d="m455.87,466.33c-5.3583-1.4554-9.989-2.7784-9.989-5.7552,0.19845-2.4476,0.99228-3.6384,5.0276-3.6384h20.243,0.19845v-0.19845-7.6075-0.19846h-0.19845-18.853c-9.7905,0-15.149,4.2337-15.149,12.04,0,3.9691,1.8523,7.0121,5.6891,9.3936,3.3076,2.0507,7.6075,3.3076,11.444,4.4322,5.6229,1.5876,10.452,2.9768,10.452,6.2183,0,2.7784-1.5215,3.9691-4.9614,3.9691h-22.426-0.19846v0.19845,7.6736,0.19846h0.19846,22.426c3.9691,0,7.409-1.0584,9.7905-3.043,2.5799-2.183,3.9691-5.4245,3.9691-9.3274,0-9.3936-9.7905-12.172-17.663-14.355"/>
  <path fill="#FFF" d="m202.76,465.65,0,26.858,0,0.13231,0.19846,0,7.409,0,0.19845,0,0-0.13231,0-26.858c0-4.9614,1.5215-10.717,13.495-10.717h0.19846v-0.19845-7.409-0.19845h-0.19846c-18.523,0-21.301,11.643-21.301,18.523"/>
  <path fill="#FFF" d="m143.06,477.62-0.1323-0.0662-0.13231,0.1323c-1.1907,2.3153-2.9768,4.2999-5.2922,5.7552-7.0783,4.4322-16.472,2.3153-20.904-4.763-2.183-3.3738-2.8445-7.4752-1.9846-11.378,0.92613-3.9691,3.3076-7.3429,6.6814-9.5259,5.0276-3.1753,11.444-3.043,16.406,0.19845l-13.363,10.981-0.1323,0.1323,0.1323,0.13231,4.5645,5.6891,0.1323,0.13231,0.13231-0.13231,19.647-16.075,0.1323-0.1323-0.1323-0.13231-0.13231-0.19846c-3.2414-5.0937-8.3352-8.6659-14.289-9.989-5.8875-1.3892-12.04-0.33076-17.133,2.9768-5.1599,3.1753-8.7321,8.269-10.121,14.223-1.323,5.9537-0.26461,12.04,2.9768,17.2,6.7475,10.65,20.838,13.826,31.488,7.1444,3.3738-2.1169,6.1522-5.1599,8.0044-8.6659l0.0662-0.13231-0.13231-0.1323-6.4829-3.3738z"/>
  <path fill="#FFF" d="m357.81,477.62-0.1323-0.0662-0.13231,0.1323c-1.1907,2.3153-3.043,4.2999-5.2922,5.7552-7.0783,4.4322-16.472,2.3153-20.904-4.763-2.183-3.3738-2.8445-7.4752-1.9846-11.378,0.92613-3.9691,3.2414-7.3429,6.6814-9.5259,5.0276-3.1753,11.444-3.043,16.406,0.19845l-13.363,10.981-0.1323,0.1323,0.0662,0.13231,4.6306,5.6891,0.1323,0.13231,0.13231-0.13231,19.581-16.075,0.19846-0.1323-0.1323-0.13231-0.13231-0.19846c-6.6814-10.584-20.838-13.76-31.422-7.0121-5.1599,3.1753-8.7982,8.269-10.121,14.223-1.323,5.9537-0.26461,12.04,2.9768,17.2,6.7475,10.65,20.838,13.826,31.488,7.1444,3.3738-2.1169,6.1522-5.1599,8.0044-8.6659l0.0661-0.13231-0.19845-0.1323-6.4168-3.3738z"/>
 </g>
</svg>
