<?xml version="1.0" encoding="UTF-8" standalone="no"?>
<!-- Created with Inkscape (http://www.inkscape.org/) -->
<svg xmlns:rdf="http://www.w3.org/1999/02/22-rdf-syntax-ns#" xmlns="http://www.w3.org/2000/svg" height="158.93" width="600" version="1.1" xmlns:cc="http://creativecommons.org/ns#" xmlns:dc="http://purl.org/dc/elements/1.1/">
 <defs></defs>
 <metadata>
  <rdf:RDF>
   <cc:Work rdf:about="">
    <dc:format>image/svg+xml</dc:format>
    <dc:type rdf:resource="http://purl.org/dc/dcmitype/StillImage"/>
    <dc:title/>
   </cc:Work>
  </rdf:RDF>
 </metadata>
 <g fill-rule="nonzero" transform="translate(-71.642767,-154.80376)">
  <path d="m71.643,278.21,54.777,0,0-16.529-54.777,0,0,16.529z" fill="#000"/>
  <path d="m71.643,243.11,54.777,0,0-16.529-54.777,0,0,16.529z" fill="#000"/>
  <path d="m71.643,208.03,54.777,0,0-16.529-54.777,0,0,16.529z" fill="#000"/>
  <path fill="#8b1b1f" d="m110.51,154.8,38.579,0,45.212,55.38,45.437-55.38,38.343,0-64.733,79.784,64.733,79.145-38.343,0-45.437-55.38-45.212,55.38-38.627,0,64.756-79.133-0.36653-0.44929-64.342-79.346z"/>
  <path fill="#000" d="m289.28,191.39-32.372,0,0,16.647,16.647,0,15.725,0c8.6783,0,12.556,6.6565,12.556,13.266,0,6.5383-3.8781,13.148-12.556,13.148h-15.725l-16.647,0.0118v43.734h16.647v-27.336h15.725c19.024,0,28.979-14.933,28.979-29.676,0-14.803-9.9552-29.795-28.979-29.795"/>
  <path fill="#000" d="m339.28,191.51-16.529,0,0,86.689,55.132,0,0-16.529-38.603,0,0-70.16z"/>
  <path fill="#000" d="m418.44,262.61c-7.1768,0-14.223-2.9913-19.343-8.229-5.2377-5.2259-8.1108-12.19-8.1108-19.579,0-7.4014,2.8731-14.353,8.1226-19.603,5.1077-5.2141,12.154-8.2172,19.331-8.2172,7.2122,0,14.354,3.0031,19.556,8.2172,5.1786,5.285,8.0162,12.237,8.0162,19.603,0,7.3541-2.8376,14.318-7.9926,19.579-5.2259,5.2259-12.367,8.229-19.579,8.229m0-72.276c-11.622,0-23.02,4.7884-31.249,13.148-8.2881,8.5601-12.852,19.674-12.852,31.32,0,11.634,4.5638,22.748,12.852,31.308,8.099,8.3591,19.497,13.148,31.249,13.148,11.871,0,23.008-4.6702,31.367-13.148,8.2882-8.5601,12.852-19.674,12.852-31.308,0-11.646-4.5638-22.76-12.876-31.344-8.4655-8.4655-19.591-13.124-31.344-13.124"/>
  <path fill="#000" d="m492.71,246.4c13.325-4.0554,19.343-15.843,19.343-26.508,0-18.716-14.637-28.494-29.097-28.494h-32.254v0.42564c1.9981,1.5134,3.9135,3.1686,5.7107,4.9776,3.3342,3.4406,6.1599,7.224,8.4655,11.232h2.2346,15.843c8.631,0,12.568,6.1481,12.568,11.859,0,5.959-3.878,11.977-12.568,11.977h-10.996c0.0473,0.96952,0.0827,1.9509,0.0827,2.9204,0,3.6889-0.39016,7.3304-1.1232,10.877l27.016,32.538h21.495l-26.721-31.805z"/>
  <path fill="#000" d="m560.67,238.2-13.81,0,6.9876-19.591,6.822,19.591zm-0.98134-47.873-11.859,0-34.831,87.871,17.853,0,0.56751-1.5134c1.9272-5.0722,4.9421-12.497,9.2222-22.653h26.331l9.8488,24.167h17.688l-34.82-87.871z"/>
  <path fill="#000" d="m616.6,207.83-16.021,0,0-17.428-9.9198,0,0,47.743,9.9198,0,0-20.809,16.021,0,0,20.809,9.9198,0,0-47.743-9.9198,0,0,17.428z"/>
  <path fill="#000" d="m645.35,228.64-1.4306,0,0-28.719,1.4306,0c5.2968,0,9.3049,1.2296,11.93,3.6416,2.9558,2.7548,4.3864,6.2545,4.3864,10.724,0,4.4101-1.4543,7.8861-4.4337,10.617-1.4424,1.3006-3.0859,2.2701-4.8357,2.8612-1.8326,0.57934-4.2091,0.87492-7.0467,0.87492m18.882-32.065c-2.4356-2.2346-5.1904-3.8308-8.1581-4.753-2.743-0.93404-6.491-1.407-11.126-1.407h-10.948v47.731h10.83c4.7411,0,8.3354-0.42563,10.948-1.3124,2.8376-0.88675,5.5806-2.4829,8.1344-4.7411,5.1313-4.5283,7.7325-10.511,7.7325-17.806,0-7.2713-2.4947-13.23-7.4132-17.711"/>
 </g>
</svg>
