<?xml version="1.0" encoding="UTF-8" standalone="no"?>
<!-- Created with Inkscape (http://www.inkscape.org/) -->

<svg
   xmlns:dc="http://purl.org/dc/elements/1.1/"
   xmlns:cc="http://creativecommons.org/ns#"
   xmlns:rdf="http://www.w3.org/1999/02/22-rdf-syntax-ns#"
   xmlns:svg="http://www.w3.org/2000/svg"
   xmlns="http://www.w3.org/2000/svg"
   version="1.1"
   width="600"
   height="190.92279"
   id="svg129609">
  <defs
     id="defs129611">
    <clipPath
       id="clipPath99263">
      <path
         d="m 230.818,82.085 27.275,0 0,8.679 -27.275,0 0,-8.679 z"
         id="path99265" />
    </clipPath>
  </defs>
  <metadata
     id="metadata129614">
    <rdf:RDF>
      <cc:Work
         rdf:about="">
        <dc:format>image/svg+xml</dc:format>
        <dc:type
           rdf:resource="http://purl.org/dc/dcmitype/StillImage" />
        <dc:title></dc:title>
      </cc:Work>
    </rdf:RDF>
  </metadata>
  <g
     transform="translate(-49.999876,-436.90081)"
     id="layer1">
    <g
       transform="matrix(21.998247,0,0,-21.998247,-5027.5915,2433.5497)"
       id="g99259">
      <g
         clip-path="url(#clipPath99263)"
         id="g99261">
        <path
           d="m 231.902,82.085 21.705,0 0,6.51 -21.705,0 0,-6.51 z"
           id="path99267"
           style="fill:#2c2c2e;fill-opacity:1;fill-rule:nonzero;stroke:none" />
        <g
           transform="translate(245.6049,86.771301)"
           id="g99269">
          <path
             d="m 0,0 c -1.559,-1.315 -4.685,-3.26 -10.226,-2.383 -0.099,-0.044 -0.213,-0.07 -0.349,-0.07 -0.25,0 -0.46,0.087 -0.633,0.25 -1.103,0.23 -2.293,0.567 -3.579,1.038 l 0,-2.039 c 8.163,-2.679 12.918,1.182 14.883,3.16 L 0,0"
             id="path99271"
             style="fill:#99d324;fill-opacity:1;fill-rule:nonzero;stroke:none" />
        </g>
        <g
           transform="translate(250.9294,85.150894)"
           id="g99273">
          <path
             d="m 0,0 0,-1.307 c 0,-0.049 -0.01,-0.069 -0.049,-0.069 l -0.996,0 c -0.033,0 -0.053,0.025 -0.053,0.059 l 0,1.307 c 0,0.054 -0.02,0.073 -0.063,0.073 l -1.292,0 c -0.039,0 -0.059,0.024 -0.059,0.068 l 0,0.991 c 0,0.039 0.015,0.058 0.054,0.058 l 1.302,0 c 0.038,0 0.058,0.019 0.058,0.063 l 0,1.122 c 0,0.03 0.02,0.049 0.048,0.049 l 0.992,0 C -0.019,2.414 0,2.4 0,2.365 L 0,1.243 C 0,1.19 0.01,1.18 0.053,1.18 l 1.303,0 c 0.039,0 0.053,-0.019 0.053,-0.063 l 0,-0.996 C 1.409,0.087 1.39,0.063 1.356,0.063 l -1.288,0 C 0.015,0.063 0,0.053 0,0"
             id="path99275"
             style="fill:#ffffff;fill-opacity:1;fill-rule:nonzero;stroke:none" />
        </g>
        <g
           transform="translate(236.85921,85.688202)"
           id="g99277">
          <path
             d="m 0,0 c 0,-0.315 -0.024,-0.581 -0.078,-0.794 -0.101,-0.426 -0.319,-0.76 -0.648,-1.002 -0.315,-0.232 -0.692,-0.348 -1.133,-0.348 -0.571,0 -1.036,0.179 -1.399,0.532 -0.358,0.354 -0.537,0.818 -0.537,1.394 0,0.581 0.179,1.05 0.542,1.409 0.363,0.358 0.842,0.537 1.433,0.537 0.489,0 0.881,-0.135 1.186,-0.412 0.111,-0.101 0.218,-0.237 0.319,-0.396 0.034,-0.058 0.078,-0.131 0.121,-0.213 L -1.089,0.334 c -0.073,0.16 -0.15,0.281 -0.237,0.368 -0.14,0.14 -0.32,0.213 -0.533,0.213 -0.213,0 -0.397,-0.063 -0.557,-0.194 C -2.561,0.6 -2.667,0.436 -2.735,0.232 c -0.048,-0.14 -0.073,-0.295 -0.073,-0.46 0,-0.333 0.093,-0.609 0.272,-0.822 0.184,-0.213 0.421,-0.32 0.706,-0.32 0.305,0 0.514,0.112 0.635,0.329 0.043,0.078 0.077,0.18 0.101,0.31 l -0.774,0 0,0.731 L 0,0"
             id="path99279"
             style="fill:#ffffff;fill-opacity:1;fill-rule:nonzero;stroke:none" />
        </g>
        <g
           transform="translate(245.7963,86.505997)"
           id="g99281">
          <path
             d="m 0,0 0,-0.605 1.031,0 0,-0.799 -1.031,0 0,-1.428 -0.944,0 0,3.631 2.077,0 L 1.133,0 0,0 z"
             id="path99283"
             style="fill:#ffffff;fill-opacity:1;fill-rule:nonzero;stroke:none" />
        </g>
        <g
           transform="translate(240.22369,86.170395)"
           id="g99285">
          <path
             d="m 0,0 c -0.199,0.198 -0.44,0.295 -0.721,0.295 -0.276,0 -0.518,-0.101 -0.722,-0.3 -0.198,-0.198 -0.3,-0.431 -0.3,-0.707 0,-0.285 0.097,-0.532 0.296,-0.731 0.198,-0.198 0.44,-0.3 0.726,-0.3 0.285,0 0.522,0.102 0.721,0.3 0.198,0.199 0.3,0.441 0.3,0.722 C 0.3,-0.436 0.198,-0.198 0,0 m 0.702,-2.115 c -0.387,-0.364 -0.862,-0.543 -1.423,-0.543 -0.567,0 -1.046,0.184 -1.433,0.547 -0.383,0.368 -0.576,0.818 -0.576,1.356 0,0.411 0.106,0.779 0.319,1.103 0.213,0.325 0.509,0.566 0.881,0.717 0.242,0.097 0.504,0.145 0.789,0.145 0.586,0 1.07,-0.184 1.453,-0.547 0.382,-0.363 0.575,-0.828 0.575,-1.384 0,-0.567 -0.193,-1.031 -0.585,-1.394"
             id="path99287"
             style="fill:#ffffff;fill-opacity:1;fill-rule:nonzero;stroke:none" />
        </g>
        <g
           transform="translate(242.2016,83.674393)"
           id="g99289">
          <path
             d="m 0,0 0,3.631 0.944,0 0,-2.832 1.133,0 L 2.077,0 0,0 z"
             id="path99291"
             style="fill:#ffffff;fill-opacity:1;fill-rule:nonzero;stroke:none" />
        </g>
        <g
           transform="translate(258.0929,87.508194)"
           id="g99293">
          <path
             d="m 0,0 c -0.145,1.085 -0.29,2.17 -0.434,3.256 l -6.945,0 C -7.09,1.845 -6.801,0.433 -6.512,-0.977 -4.341,-0.651 -2.171,-0.326 0,0"
             id="path99295"
             style="fill:#e91f26;fill-opacity:1;fill-rule:nonzero;stroke:none" />
        </g>
        <g
           transform="translate(253.85519,87.716202)"
           id="g99297">
          <path
             d="m 0,0 c -0.072,0.396 -0.109,0.595 -0.181,0.99 -0.352,-0.027 -0.528,-0.04 -0.88,-0.068 0.079,-0.409 0.118,-0.613 0.196,-1.023 -0.24,-0.028 -0.36,-0.042 -0.6,-0.07 -0.166,0.846 -0.333,1.692 -0.499,2.539 0.25,0.006 0.375,0.009 0.625,0.014 0.073,-0.383 0.11,-0.576 0.183,-0.96 0.355,0.021 0.532,0.031 0.886,0.052 -0.068,0.372 -0.101,0.558 -0.169,0.93 C -0.19,2.41 -0.064,2.412 0.186,2.419 0.324,1.636 0.462,0.853 0.6,0.07 0.36,0.042 0.24,0.028 0,0"
             id="path99299"
             style="fill:#ffffff;fill-opacity:1;fill-rule:nonzero;stroke:none" />
        </g>
        <g
           transform="translate(255.6638,89.684296)"
           id="g99301">
          <path
             d="m 0,0 c -0.056,-0.002 -0.084,-0.003 -0.14,-0.006 0.081,-0.498 0.121,-0.747 0.202,-1.245 0.054,0.005 0.082,0.007 0.136,0.012 0.401,0.039 0.625,0.302 0.57,0.666 C 0.713,-0.208 0.41,0.018 0,0 m 0.424,-1.708 c -0.353,-0.041 -0.53,-0.062 -0.883,-0.103 -0.128,0.76 -0.256,1.52 -0.384,2.28 0.367,0.009 0.551,0.013 0.919,0.022 C 0.684,0.487 1.318,0.069 1.409,-0.528 1.495,-1.1 1.001,-1.629 0.424,-1.708"
             id="path99303"
             style="fill:#ffffff;fill-opacity:1;fill-rule:nonzero;stroke:none" />
        </g>
      </g>
    </g>
  </g>
</svg>
