<?xml version="1.0" encoding="UTF-8" standalone="no"?>
<!-- Created with Inkscape (http://www.inkscape.org/) -->

<svg
   xmlns:dc="http://purl.org/dc/elements/1.1/"
   xmlns:cc="http://creativecommons.org/ns#"
   xmlns:rdf="http://www.w3.org/1999/02/22-rdf-syntax-ns#"
   xmlns:svg="http://www.w3.org/2000/svg"
   xmlns="http://www.w3.org/2000/svg"
   version="1.1"
   width="600.00311"
   height="90.737"
   id="svg2">
  <metadata
     id="metadata3607">
    <rdf:RDF>
      <cc:Work
         rdf:about="">
        <dc:format>image/svg+xml</dc:format>
        <dc:type
           rdf:resource="http://purl.org/dc/dcmitype/StillImage" />
        <dc:title></dc:title>
      </cc:Work>
    </rdf:RDF>
  </metadata>
  <defs
     id="defs3605" />
  <g
     transform="translate(-194.53198,-757.85729)"
     id="layer1">
    <g
       transform="matrix(1.1342214,0,0,1.1342214,-66.377003,-107.81012)"
       id="g3609">
      <path
         d="m 252.16595,768.60553 30.07341,0 -25.38565,59.19902 22.33732,0 -4.48283,10.50264 -44.67464,0 25.07825,-58.533 -7.73609,0 4.79023,-11.16866"
         id="path11175"
         style="fill:#ed1d25;fill-rule:nonzero;stroke:none" />
      <path
         d="m 286.72219,779.77419 4.79023,-11.16866 21.90185,0 c 0,0 -3.1508,12.5007 -9.24745,17.41901 -5.58433,4.50845 -15.01109,8.70951 -15.01109,8.70951 l 6.42967,-14.95986 -8.86321,0"
         id="path11177"
         style="fill:#ed1d25;fill-rule:nonzero;stroke:none" />
      <path
         d="m 324.30115,768.60553 17.85448,0 2.30546,-5.3794 13.70467,0 -2.30546,5.3794 20.80035,0 -4.79023,11.16866 -22.31171,0 -7.55677,17.64956 22.28609,0 -3.71435,8.70951 -22.28609,0 -9.29868,21.67129 22.33732,0 -4.50845,10.50264 -44.64902,0 25.07825,-58.533 -7.73609,0 4.79023,-11.16866"
         id="path11179"
         style="fill:#ed1d25;fill-rule:nonzero;stroke:none" />
      <path
         d="m 394.64321,826.80552 -1.99806,-3.38133 9.04252,-4.81585 3.04832,5.50748 c 1.51136,-1.86998 1.94683,-3.79119 2.8434,-5.91734 l 12.62878,-29.48424 c 2.12615,-4.94392 0.23055,-9.75977 -7.37746,-9.75977 -5.63556,0 -7.86417,3.6375 -10.52825,9.75977 l -12.62879,29.48424 c -1.99806,4.66215 -0.10246,8.50458 4.40599,8.91444 l 0.56355,-0.3074 z m 9.50361,16.41998 -2.81778,-3.84243 c -1.38327,0.1537 -4.84146,0.4611 -6.22473,0.4611 -17.82887,0 -30.96998,-13.85837 -23.92553,-35.91391 5.91734,-18.54612 19.46831,-36.01636 42.34357,-36.01636 26.64084,0 31.20052,17.85448 25.82112,36.27252 -4.09859,13.9096 -13.49973,29.07438 -27.6911,32.60942 l 4.09859,6.42966 -12.27016,0 0.66602,0"
         id="path11181"
         style="fill:#ed1d25;fill-rule:nonzero;stroke:none" />
      <path
         d="m 526.18237,768.60553 27.63987,0 -29.86848,69.70166 -22.41417,0 25.07825,-58.533 -7.14692,0 4.94393,-11.16866 1.76752,0"
         id="path11183"
         style="fill:#ed1d25;fill-rule:nonzero;stroke:none" />
      <path
         d="m 450.12789,779.77419 4.79023,-11.16866 30.76504,0 -19.51954,45.57121 c 0,0 -7.14691,12.73125 3.91928,12.73125 7.96664,0 11.50167,-6.66021 11.50167,-6.66021 l 22.33732,-51.64225 12.39824,0 -23.00334,54.22948 c 0,0 -7.63363,16.2919 -28.22905,16.2919 -20.33925,0 -26.56399,-14.21699 -20.7235,-27.8448 7.5824,-17.64956 13.49974,-31.50792 13.49974,-31.50792 l -7.73609,0"
         id="path11185"
         style="fill:#ed1d25;fill-rule:nonzero;stroke:none" />
      <path
         d="m 629.64617,768.60553 52.3595,0 -4.79023,11.16866 -22.28609,0 -7.55678,17.64956 22.28609,0 -3.73996,8.70951 -22.28609,0 -9.29868,21.67129 22.33732,0 -4.48283,10.50264 -44.67464,0 25.07825,-58.533 -7.73609,0 4.79023,-11.16866"
         id="path11187"
         style="fill:#ed1d25;fill-rule:nonzero;stroke:none" />
      <path
         d="m 734.97995,768.42622 -3.07394,24.2073 17.44463,-24.02799 9.68292,0 -28.22905,38.80853 -12.91056,0 4.12421,-38.96222"
         id="path11189"
         style="fill:#241f20;fill-rule:nonzero;stroke:none" />
      <path
         d="m 685.64317,807.4653 11.32235,-27.81919 -8.27403,0 4.76462,-11.04058 27.38371,0 -4.68777,11.04058 -8.29964,0 -11.29675,27.81919"
         id="path11191"
         style="fill:#241f20;fill-rule:nonzero;stroke:none" />
      <path
         d="m 587.89177,779.77419 -9.78538,22.79841 9.55484,0 c 3.76558,0 6.9676,-4.48283 9.34991,-10.06716 2.40792,-5.58433 3.97051,-12.73125 -3.02271,-12.73125 l -6.09666,0 z m 17.16285,-11.16866 c 10.7588,0 16.98354,10.1184 15.67711,17.72641 -4.91831,29.20246 -24.0536,27.61425 -24.0536,27.61425 l -23.43882,0 -10.42579,24.361 -22.28609,0 25.07826,-58.533 -7.73609,0 4.76461,-11.16866 42.42041,0"
         id="path11193"
         style="fill:#ed1d25;fill-rule:evenodd;stroke:none" />
    </g>
  </g>
</svg>
