<?xml version="1.0" encoding="UTF-8" standalone="no"?>
<svg xmlns:rdf="http://www.w3.org/1999/02/22-rdf-syntax-ns#" xmlns="http://www.w3.org/2000/svg" xmlns:cc="http://creativecommons.org/ns#" xmlns:xlink="http://www.w3.org/1999/xlink" xmlns:dc="http://purl.org/dc/elements/1.1/" height="460.64" width="600" version="1.1" viewBox="0 0 158.75 121.87848">
  <defs>
    <linearGradient id="b" gradientUnits="userSpaceOnUse" gradientTransform="matrix(-1220.3 -3755.7 -21354 6938.4 13940 177.17)" x1=".70879" x2="1" y1="0" y2="0">
      <stop stop-color="#f8af22" offset="0"/>
      <stop stop-color="#d97a22" offset="1"/>
    </linearGradient>
    <linearGradient id="a" gradientUnits="userSpaceOnUse" gradientTransform="matrix(-1139.7 -3131.2 -18850 6861 12242 -408.61)" x1=".97253" x2="1" y1="0" y2="0">
      <stop stop-color="#f08722" offset="0"/>
      <stop stop-color="#f08722" offset="1"/>
    </linearGradient>
    <linearGradient id="c" gradientUnits="userSpaceOnUse" x2=".76923" gradientTransform="matrix(-1139.7 -3131.2 -18850 6861 12242 -408.61)" x1="0" y1="0" y2="0">
      <stop stop-color="#fff" offset="0"/>
      <stop stop-color="#fff" offset="1"/>
    </linearGradient>
  </defs>
  <g fill="#fff">
    <path d="m33.249 0.0006c0.819 0 1.589 0.124 2.318 0.372 0.733 0.2479 1.367 0.6234 1.908 1.1344 0.541 0.507 0.974 1.139 1.293 1.894s0.481 1.641 0.481 2.656c0 1.27-0.196 2.333-0.586 3.189-0.391 0.853-0.902 1.537-1.533 2.044-0.631 0.504-1.338 0.864-2.123 1.071-0.781 0.21-1.563 0.316-2.344 0.316h-3.066l-0.962 7.664h-3.866l2.533-20.34zm-3.25 9.4824h1.623c1.281 0 2.205-0.315 2.773-0.954 0.571-0.635 0.856-1.401 0.856-2.296 0-0.856-0.281-1.57-0.841-2.149-0.56-0.574-1.465-0.864-2.705-0.864h-0.936z"/>
    <path d="m48.138 0.0006c1.157 0 2.126 0.1991 2.908 0.5974 0.778 0.394 1.413 0.902 1.89 1.518 0.481 0.616 0.822 1.281 1.029 1.987 0.203 0.703 0.304 1.375 0.304 2.01 0 0.616-0.078 1.214-0.24 1.788-0.158 0.579-0.406 1.109-0.744 1.582-0.338 0.477-0.759 0.887-1.266 1.221-0.507 0.342-1.108 0.579-1.803 0.718v0.06c0.499 0.24 0.883 0.552 1.149 0.939 0.267 0.387 0.523 0.872 0.77 1.447l2.803 6.473h-4.268l-1.732-4.118c-0.39-0.913-0.725-1.642-0.999-2.19-0.278-0.549-0.545-0.958-0.815-1.236-0.263-0.282-0.556-0.466-0.864-0.552-0.312-0.091-0.707-0.136-1.188-0.136h-0.826l-1.015 8.232h-3.862l2.533-20.34zm-3.494 8.9494h1.92c0.657 0 1.217-0.087 1.683-0.256 0.462-0.169 0.842-0.391 1.146-0.672 0.3-0.278 0.522-0.59 0.665-0.94 0.143-0.345 0.214-0.71 0.214-1.085 0-0.816-0.267-1.454-0.8-1.913-0.534-0.454-1.281-0.683-2.239-0.683h-1.894z"/>
    <path d="m69.787 3.4h-7.491l-0.612 4.802h6.586l-0.429 3.4h-6.586l-0.665 5.338h9.438l-0.425 3.4h-13.307l2.563-20.34h11.357z"/>
    <path d="m94.59 20.34h-3.731l-0.56-13.75h-0.052l-6.748 13.75h-1.837l-3.201-14.134h-0.052l-4.107 14.134h-3.892l5.917-20.34h4.238l2.934 12.796 6.132-12.796h4.106z"/>
    <path d="m99.926 20.34h-3.866l2.562-20.34h3.868z"/>
    <path d="m119.98 12.676c-0.21 1.65-0.6 2.991-1.17 4.024-0.57 1.037-1.25 1.841-2.03 2.419-0.78 0.575-1.62 0.97-2.53 1.176-0.91 0.211-1.79 0.312-2.64 0.312-1.56 0-2.89-0.225-3.97-0.684-1.09-0.454-1.95-1.093-2.59-1.908s-1.07-1.777-1.29-2.878c-0.22-1.105-0.25-2.292-0.1-3.565l1.5-11.572h3.87l-1.47 11.512c-0.15 1.153-0.09 2.077 0.16 2.776 0.25 0.691 0.59 1.232 1.03 1.608 0.45 0.379 0.94 0.631 1.47 0.763 0.54 0.127 1 0.191 1.39 0.191 0.51 0 1.02-0.075 1.52-0.225 0.5-0.147 0.96-0.402 1.37-0.759 0.42-0.357 0.78-0.823 1.07-1.401 0.29-0.575 0.49-1.293 0.6-2.149l1.55-12.316h3.86z"/>
    <path d="m144.11 20.34h-3.73l-0.56-13.75h-0.06l-6.74 13.75h-1.84l-3.2-14.134h-0.05l-4.11 14.134h-3.89l5.92-20.34h4.24l2.93 12.796 6.13-12.796h4.1z"/>
  </g>
  <path stroke-width="3.757" fill="#fab01c" d="m82.338 31.908c-4.682 0.383-9.118 1.435-13.24 3.148-5.293 2.191-10.192 5.519-14.566 9.896-4.376 4.366-7.701 9.269-9.895 14.57-0.395 0.943-0.748 1.897-1.071 2.87v-29.402h-29.62v51.346c-0.007 1.086-0.188 1.999-0.56 2.878l-0.026 0.064-0.03 0.056c-0.406 0.892-0.947 1.612-1.758 2.345l-0.019 0.018-0.019 0.015c-0.849 0.752-1.6979 1.286-2.6709 1.666l-0.0341 0.01-0.0259 0.01c-1 0.37-2.0099 0.55-3.2009 0.55h-5.6023v28.682h5.5491c5.174 0 10.061-0.94 14.528-2.78s8.604-4.64 12.308-8.31c3.697-3.67 6.518-7.8 8.374-12.262 1.041-2.49 1.796-5.11 2.258-7.847 0.451 1.597 0.988 3.157 1.623 4.677 2.191 5.29 5.516 10.192 9.896 14.572 4.362 4.37 9.265 7.69 14.57 9.89 5.282 2.2 11.086 3.31 17.248 3.31h0.067c6.162 0 11.971-1.12 17.259-3.31 5.31-2.2 10.21-5.52 14.57-9.9 4.37-4.37 7.71-9.271 9.9-14.572 0.33-0.8 0.64-1.62 0.92-2.45 3.23 24.552 29.43 28.982 29.43 28.982v-59.891c-0.37 0.432-0.75 0.86-1.17 1.285-1.92 1.938-4.03 3.216-6.36 4.193-2.33 0.961-4.81 1.487-7.6 1.487-2.71 0-5.05-0.443-7.37-1.412-2.31-0.97-4.2-1.868-6.12-3.896-0.78-0.819-1.37-1.909-1.59-2.559v0.045c-0.05-0.124-0.09-0.244-0.14-0.36-2.19-5.298-5.52-10.2-9.9-14.574-4.37-4.373-9.27-7.705-14.57-9.895-4.121-1.71-8.556-2.762-13.235-3.145zm61.022 0.214c-2.13 0.008-4.05 0.372-5.85 1.112-1.83 0.755-3.46 1.852-4.99 3.363-1.55 1.521-2.66 3.144-3.42 4.959-0.76 1.837-1.13 3.783-1.13 5.962 0.01 2.142 0.38 4.058 1.12 5.861 0.77 1.833 1.89 3.46 3.42 4.997 1.55 1.548 3.18 2.663 4.99 3.422 1.82 0.759 3.74 1.127 5.87 1.131 2.19-0.004 4.13-0.372 5.96-1.127 1.83-0.763 3.45-1.875 4.96-3.396 1.52-1.556 2.62-3.182 3.37-4.989 0.63-1.556 0.99-3.171 1.09-4.922v-1.954c-0.1-1.799-0.45-3.433-1.08-4.978-0.77-1.844-1.86-3.456-3.36-4.963-1.51-1.506-3.13-2.603-4.95-3.354-1.85-0.752-3.79-1.116-5.98-1.124h-0.01zm-56.98 29.286h0.019c2.183 0.007 4.129 0.368 5.981 1.119 1.822 0.755 3.438 1.849 4.952 3.355 1.495 1.507 2.588 3.122 3.358 4.963 0.74 1.83 1.1 3.776 1.1 5.974 0 2.126-0.36 4.042-1.11 5.879-0.756 1.811-1.853 3.434-3.375 4.989-1.51 1.522-3.129 2.634-4.955 3.401-1.826 0.75-3.776 1.12-5.966 1.12-2.127 0-4.043-0.37-5.865-1.12-1.811-0.763-3.441-1.879-4.989-3.431-1.532-1.532-2.648-3.163-3.418-4.993-0.752-1.807-1.116-3.719-1.124-5.86 0.004-2.179 0.372-4.129 1.134-5.963 0.756-1.822 1.868-3.437 3.408-4.959 1.541-1.51 3.167-2.611 4.993-3.362 1.811-0.744 3.723-1.105 5.857-1.112z"/>
  <g>
    <path d="m128.36 51.057c0.17 0.797 0.42 1.567 0.73 2.322 0.77 1.833 1.89 3.46 3.42 4.997 1.55 1.548 3.18 2.663 4.99 3.422 1.82 0.759 3.74 1.127 5.87 1.131 2.19-0.004 4.13-0.372 5.96-1.127 1.83-0.763 3.45-1.875 4.96-3.396 1.52-1.556 2.62-3.182 3.37-4.989 0.63-1.556 0.99-3.168 1.09-4.922v-1.954c-0.1-1.799-0.45-3.43-1.08-4.978-0.05-0.127-0.11-0.248-0.16-0.368-6.65 2.202-17.89 5.963-29.15 9.862m-29.661 10.862c-1.337 0.612-2.675 1.217-4.02 1.814 0.928 0.594 1.807 1.308 2.653 2.149 1.495 1.507 2.588 3.122 3.358 4.963 0.74 1.83 1.1 3.776 1.1 5.974 0 2.126-0.36 4.042-1.11 5.879-0.756 1.811-1.853 3.434-3.375 4.99-1.51 1.521-3.129 2.633-4.955 3.4-1.826 0.75-3.776 1.12-5.966 1.12-2.127 0-4.043-0.37-5.865-1.12-1.811-0.763-3.441-1.879-4.989-3.431-1.533-1.532-2.648-3.163-3.419-4.993-0.751-1.807-1.115-3.719-1.123-5.86 0.004-1.27 0.128-2.461 0.383-3.596-21.279 7.924-41.03 13.484-53.225 16.388-2.832 0.905-6.037 1.482-9.3919 1.822-0.984 0.36-1.984 0.53-3.152 0.53h-5.602v28.682h5.549c5.1739 0 10.061-0.94 14.528-2.78s8.604-4.64 12.308-8.31c3.697-3.67 6.518-7.8 8.374-12.262 1.041-2.49 1.796-5.11 2.258-7.847 0.451 1.597 0.988 3.157 1.623 4.677 2.191 5.29 5.516 10.192 9.896 14.572 4.362 4.37 9.265 7.69 14.57 9.89 5.282 2.2 11.086 3.31 17.248 3.31h0.067c6.162 0 11.97-1.12 17.259-3.31 5.31-2.2 10.21-5.52 14.57-9.9 4.37-4.37 7.71-9.272 9.9-14.572 0.33-0.8 0.64-1.62 0.92-2.45 3.23 24.552 29.43 28.982 29.43 28.982v-59.891c-0.37 0.432-0.75 0.86-1.17 1.285-1.92 1.938-4.03 3.216-6.36 4.193-2.33 0.961-4.81 1.487-7.6 1.487-2.71 0-5.05-0.443-7.37-1.412-2.31-0.97-4.2-1.868-6.12-3.896-0.78-0.819-1.37-1.909-1.59-2.559v0.045c-0.05-0.124-0.09-0.244-0.14-0.36-1.02-2.454-2.28-4.817-3.77-7.086-10.1 3.528-19.77 7.029-25.681 9.483" fill="url(#c)"/>
    <path d="m157.51 41.195c-6.65 2.202-17.89 5.963-29.15 9.862 0.17 0.797 0.42 1.567 0.73 2.322 0.77 1.833 1.89 3.46 3.42 4.997 1.55 1.548 3.18 2.663 4.99 3.422 1.82 0.759 3.74 1.127 5.87 1.131 2.19-0.004 4.13-0.372 5.96-1.127 1.83-0.763 3.45-1.875 4.96-3.396 1.52-1.556 2.62-3.182 3.37-4.989 0.63-1.556 0.99-3.168 1.09-4.922v-1.954c-0.1-1.799-0.45-3.43-1.08-4.978-0.05-0.127-0.11-0.248-0.16-0.368zm-33.13 11.241c-10.1 3.528-19.77 7.029-25.681 9.483-1.337 0.612-2.675 1.217-4.02 1.814 0.928 0.594 1.807 1.308 2.653 2.149 1.495 1.507 2.588 3.122 3.358 4.963 0.74 1.83 1.1 3.776 1.1 5.974 0 2.126-0.36 4.042-1.11 5.879-0.756 1.811-1.853 3.434-3.375 4.989-1.51 1.522-3.129 2.634-4.955 3.401-1.826 0.75-3.776 1.12-5.966 1.12-2.127 0-4.043-0.37-5.865-1.12-1.811-0.763-3.441-1.879-4.989-3.431-1.532-1.532-2.648-3.163-3.418-4.993-0.752-1.807-1.116-3.719-1.124-5.86 0.004-1.27 0.128-2.461 0.384-3.596-21.28 7.924-41.031 13.484-53.226 16.388-2.832 0.905-6.037 1.483-9.392 1.823-0.984 0.36-1.9838 0.529-3.1518 0.529h-5.6023v28.682h5.5491c5.174 0 10.061-0.94 14.528-2.78s8.604-4.64 12.308-8.31c3.697-3.67 6.518-7.8 8.374-12.262 1.041-2.49 1.796-5.11 2.258-7.847 0.451 1.597 0.988 3.157 1.623 4.677 2.191 5.29 5.516 10.192 9.896 14.572 4.362 4.37 9.265 7.69 14.571 9.89 5.281 2.2 11.085 3.31 17.247 3.31h0.067c6.162 0 11.971-1.12 17.259-3.31 5.31-2.2 10.21-5.52 14.57-9.9 4.37-4.37 7.71-9.271 9.9-14.572 0.33-0.8 0.64-1.62 0.92-2.45 3.23 24.552 29.43 28.982 29.43 28.982v-59.891c-0.37 0.432-0.75 0.86-1.17 1.285-1.92 1.938-4.03 3.216-6.36 4.193-2.33 0.961-4.81 1.487-7.6 1.487-2.71 0-5.05-0.443-7.37-1.412-2.31-0.97-4.2-1.868-6.12-3.896-0.78-0.819-1.37-1.909-1.59-2.559v0.045c-0.05-0.124-0.09-0.244-0.14-0.36-1.02-2.454-2.28-4.817-3.77-7.086z" fill="url(#a)"/>
    <path d="m157.79 41.871c-9.54 3.382-17.46 6.117-28.97 10.787 0.08 0.24 0.18 0.484 0.27 0.721 0.77 1.833 1.89 3.46 3.42 4.997 1.55 1.548 3.18 2.663 4.99 3.422 1.82 0.759 3.74 1.127 5.87 1.131 2.19-0.004 4.13-0.372 5.96-1.127 1.83-0.763 3.45-1.875 4.96-3.396 1.52-1.556 2.62-3.182 3.37-4.989 0.63-1.556 0.99-3.168 1.09-4.922v-1.95c-0.09-1.679-0.41-3.22-0.96-4.674zm-32.39 12.192c-7.7 3.227-17.56 8.032-27.411 12.518 1.161 1.304 2.051 2.705 2.701 4.264 0.74 1.83 1.1 3.776 1.1 5.974 0 2.126-0.36 4.042-1.11 5.879-0.756 1.811-1.853 3.434-3.375 4.989-1.51 1.522-3.129 2.634-4.955 3.401-1.826 0.75-3.776 1.12-5.966 1.12-2.127 0-4.043-0.37-5.865-1.12-1.811-0.763-3.441-1.879-4.989-3.431-1.532-1.532-2.648-3.163-3.418-4.993-0.714-1.716-1.079-3.527-1.12-5.534-17.857 5.486-55.683 16.139-70.993 14.829v28.671h5.5495c5.1745 0 10.06-0.94 14.528-2.78 4.467-1.84 8.605-4.64 12.309-8.31 3.697-3.67 6.518-7.8 8.374-12.262 1.041-2.49 1.796-5.11 2.258-7.847 0.451 1.597 0.988 3.157 1.623 4.677 2.191 5.29 5.516 10.192 9.896 14.572 4.362 4.37 9.265 7.69 14.57 9.89 5.282 2.2 11.086 3.31 17.248 3.31h0.067c6.162 0 11.97-1.12 17.259-3.31 5.31-2.2 10.21-5.52 14.57-9.9 4.37-4.37 7.71-9.271 9.9-14.572 0.33-0.8 0.64-1.62 0.92-2.45 3.23 24.552 29.43 28.982 29.43 28.982v-59.891c-0.37 0.432-0.75 0.86-1.17 1.285-1.92 1.938-4.03 3.216-6.36 4.193-2.33 0.961-4.81 1.487-7.6 1.487-2.71 0-5.05-0.443-7.37-1.412-2.31-0.97-4.2-1.868-6.12-3.896-0.78-0.819-1.37-1.909-1.6-2.559 0 0 0.01 0.011 0.01 0.045-0.05-0.124-0.1-0.244-0.14-0.36-0.78-1.871-1.7-3.693-2.75-5.459z" fill="url(#b)"/>
  </g>
</svg>
