<?xml version="1.0" encoding="UTF-8" standalone="no"?>
<svg xmlns:rdf="http://www.w3.org/1999/02/22-rdf-syntax-ns#" xmlns="http://www.w3.org/2000/svg" xmlns:cc="http://creativecommons.org/ns#" xmlns:xlink="http://www.w3.org/1999/xlink" xmlns:dc="http://purl.org/dc/elements/1.1/" height="78.733" width="600" version="1.1" viewBox="0 0 158.75 20.83141">
  <defs>
    <linearGradient id="a" gradientUnits="userSpaceOnUse" gradientTransform="matrix(-.0000010744 24.121 -24.121 -.0000010744 -457.17 -132.92)" x1="0" x2="1" y1="0" y2="0">
      <stop stop-color="#08507a" offset="0"/>
      <stop stop-color="#08507a" offset=".33605"/>
      <stop stop-color="#13a1c2" offset=".74876"/>
      <stop stop-color="#66ccda" offset="1"/>
    </linearGradient>
  </defs>
  <g transform="translate(514.05 132.97)">
    <path d="m-355.31-132.97h-21.8l-14.75 20.83h36.56v-20.83z" fill="#868484"/>
    <path d="m-370.87-123.07v-3.6h2.03v8.84h-2.03v-3.72h-3.14v3.72h-2.03v-8.84h2.03v3.6z" fill="#fff"/>
    <path d="m-364.88-119.3h0.86c0.91 0 1.56-0.28 1.91-0.79 0.35-0.52 0.47-1.11 0.47-2.2 0-1.27-0.19-1.86-0.62-2.33-0.41-0.42-1.01-0.58-2-0.58h-0.62zm-2.03 1.47v-8.84h2.74c1.7 0 2.82 0.26 3.56 0.99 0.72 0.7 1.08 1.8 1.08 3.39 0 1.6-0.35 2.71-1.08 3.46-0.66 0.68-1.69 1-3.28 1z" fill="#fff"/>
    <path d="m-391.86-112.14h-43.39l14.75-20.83h43.39z"/>
    <path d="m-404.78-129.56c-1.84 1.83-4.17 3.62-7.28 3.62l-1.85 2.62h3.69l-2.69 3.79h-3.69l-2.82 3.99h-5.2l9.93-14.02h9.91" fill="#fff"/>
    <path d="m-404.56-116.56 6.81 0.44-0.03 0.04-8.86 0.53 2.87-4.07 8.14 0.49-0.02 0.04-7.45 0.48-0.03 0.04 6.8 0.45-0.03 0.03-7.46 0.48-0.02 0.04 6.8 0.45-0.03 0.04-7.46 0.48z" fill="#ef2e27"/>
    <path d="m-388.61-129.06-11.32 0.51-0.03 0.03 10.66 0.42-0.02 0.04-11.32 0.5-0.02 0.04 10.66 0.42-0.02 0.03-11.33 0.51-0.02 0.04 10.66 0.42-0.02 0.03-11.32 0.51-0.02 0.03 10.66 0.42-0.02 0.04-11.33 0.51-0.02 0.03 10.66 0.42-0.02 0.03-11.32 0.51-0.02 0.03 10.65 0.43-0.02 0.03-11.32 0.5-0.02 0.04 10.66 0.42-0.02 0.03-11.32 0.51-0.03 0.04 10.66 0.42-0.02 0.04-11.31 0.49-0.03 0.04 10.66 0.42-0.03 0.04-12.75 0.57 7.11-10.04 12.02 0.47z" fill="#ef2e27"/>
    <path d="m-511.71-132.97c-1.29 0-2.34 1.05-2.34 2.34v16.11c0 1.29 1.05 2.33 2.34 2.33l76.46 0.05 14.75-20.83h-91.21z" fill="url(#a)"/>
    <path d="m-469.79-126.66h-1.71c-0.14 0-0.21 0.06-0.21 0.2v9.57c0 0.14 0.07 0.19 0.21 0.19h1.71c0.14 0 0.21-0.05 0.21-0.19v-9.57c0-0.14-0.07-0.2-0.21-0.2m4.76 5.5c0.46 0.17 0.84 0.31 1.29 0.47 0.98 0.35 1.4 0.62 1.4 1.22 0 0.77-0.65 1.18-2.13 1.18h-0.05c-0.83 0-1.78-0.16-2.62-0.43-0.17-0.06-0.26 0.01-0.26 0.18v1.28c0 0.16 0.02 0.25 0.2 0.32 0.8 0.27 1.9 0.43 2.8 0.43h0.07c2.61 0 4.03-1.17 4.03-3.05v-0.03c0-0.72-0.23-1.38-0.68-1.82-0.44-0.43-1.1-0.76-2.12-1.14-0.55-0.2-0.97-0.36-1.35-0.5-0.85-0.31-1.09-0.6-1.09-1.04 0-0.72 0.71-1 1.85-1h0.09c0.66 0 1.45 0.09 2.42 0.27 0.18 0.03 0.28-0.01 0.28-0.19v-1.31c0-0.17-0.05-0.22-0.23-0.26-0.62-0.13-1.77-0.27-2.4-0.27h-0.16c-1.33 0-2.32 0.25-2.98 0.82-0.54 0.47-0.9 1.18-0.9 2.02v0.06c0 0.78 0.27 1.41 0.74 1.84 0.43 0.41 1.02 0.66 1.8 0.95m-33.17-5.69h-0.52c-1.48 0-2.47 0.39-2.94 0.98h-0.01c-0.48-0.59-1.53-0.98-3.01-0.98h-0.53c-1.67 0-3.04 0.58-3.59 1.77-0.24 0.51-0.31 1.2-0.31 1.94v6.22c0 0.13 0.08 0.22 0.22 0.22h1.68c0.14 0 0.22-0.09 0.22-0.22v-5.17c0-0.75 0.02-1.28 0.06-1.62 0.09-0.87 0.74-1.29 1.96-1.29h0.15c1.22 0 1.9 0.42 1.99 1.29 0.04 0.34 0.06 0.87 0.06 1.62v5.17c0 0.14 0.08 0.22 0.22 0.22h1.69c0.14 0 0.21-0.1 0.21-0.24l0.01-5.15c0-0.75 0.02-1.28 0.05-1.62 0.1-0.87 0.78-1.29 2-1.29h0.14c1.23 0 1.87 0.42 1.97 1.29 0.04 0.34 0.06 0.87 0.06 1.62v5.17c0 0.14 0.08 0.22 0.22 0.22h1.68c0.14 0 0.22-0.1 0.22-0.24v-6.2c0-0.74-0.08-1.43-0.32-1.94-0.54-1.19-1.91-1.77-3.58-1.77m43.67 10.15c0.15 0 0.23-0.07 0.23-0.2v-1.42c0-0.13-0.08-0.21-0.23-0.21h-0.23c-0.67 0-1.09-0.16-1.34-0.43-0.34-0.36-0.41-0.93-0.41-1.62v-4.31h1.88c0.14 0 0.21-0.06 0.21-0.2v-1.38c0-0.14-0.07-0.19-0.21-0.19h-1.88v-1.79c0-0.14-0.07-0.19-0.21-0.19h-1.71c-0.14 0-0.21 0.05-0.21 0.19v7.99c0 1.39 0.28 2.28 0.89 2.89 0.57 0.56 1.47 0.87 2.77 0.87zm-24.23 0h1.85c0.16 0 0.23-0.05 0.3-0.17 1.19-2.25 3.02-6.1 3.15-9.59 0-0.14-0.06-0.2-0.24-0.2h-1.72c-0.2 0-0.26 0.06-0.26 0.24-0.08 1.27-0.35 2.75-0.75 4.07-0.4 1.37-0.92 2.67-1.41 3.63-0.49-0.96-1.01-2.26-1.41-3.63-0.4-1.33-0.67-2.82-0.74-4.09-0.02-0.18-0.12-0.22-0.29-0.22h-1.73c-0.19 0-0.24 0.09-0.23 0.27 0.25 3.42 1.31 6.08 3.16 9.53 0.06 0.12 0.16 0.16 0.32 0.16m40.93-10.15h-1.14c-1.64 0-2.93 0.57-3.48 1.76-0.23 0.51-0.31 1.2-0.31 1.94v6.26c0 0.14 0.07 0.19 0.21 0.19h1.71c0.14 0 0.2-0.05 0.2-0.19v-5.24c0-0.74 0.02-1.27 0.06-1.61 0.09-0.86 0.62-1.27 1.85-1.27h0.91c0.14 0 0.21-0.08 0.21-0.22v-1.4c0-0.15-0.07-0.22-0.22-0.22m-47.79 6.62c-0.16 1.62-0.98 1.87-2.29 1.87h-0.05c-1.31 0-2.13-0.25-2.29-1.87-0.05-0.49-0.09-0.89-0.09-1.45s0.04-0.97 0.09-1.46c0.16-1.61 0.98-1.86 2.29-1.86h0.05c1.31 0 2.13 0.25 2.29 1.86 0.05 0.49 0.09 0.9 0.09 1.46s-0.04 0.96-0.09 1.45m1.92 1.3c0.2-0.68 0.32-1.46 0.32-2.75s-0.12-2.07-0.32-2.75c-0.52-1.73-1.88-2.42-4.1-2.42h-0.27c-2.21 0-3.58 0.69-4.1 2.42-0.2 0.68-0.32 1.46-0.32 2.75s0.12 2.07 0.32 2.75c0.52 1.73 1.89 2.42 4.1 2.42h0.27c2.22 0 3.58-0.69 4.1-2.42m37-1.34c0 0.74-0.03 1.19-0.3 1.5-0.29 0.33-0.8 0.48-1.49 0.48h-0.33c-1.28 0-2.02-0.51-2.02-1.49 0-0.45 0.18-0.85 0.45-1.09 0.32-0.28 0.8-0.41 1.61-0.41h0.18c0.61 0 1.32 0.06 1.9 0.21zm0.17-6.17c-0.56-0.25-1.43-0.41-2.55-0.41h-0.13c-0.68 0-1.61 0.08-2.5 0.24-0.16 0.03-0.21 0.11-0.21 0.28v1.28c0 0.16 0.08 0.21 0.26 0.19 0.78-0.12 1.59-0.2 2.21-0.2h0.09c0.88 0 1.59 0.08 2.02 0.36 0.43 0.29 0.64 0.72 0.64 1.65v0.27c-0.65-0.13-1.43-0.22-2.14-0.22h-0.19c-1.19 0-2.3 0.28-3.01 0.95-0.55 0.51-0.91 1.28-0.91 2.26v0.08c0 1.98 1.36 3.2 4.13 3.2h0.5c1.09 0 2.12-0.33 2.75-0.84 0.71-0.6 0.99-1.47 0.99-2.87v-2.86c0-1.95-0.76-2.85-1.95-3.36" fill="#fff"/>
  </g>
</svg>
