<?xml version="1.0" encoding="UTF-8" standalone="no"?>
<svg xmlns:rdf="http://www.w3.org/1999/02/22-rdf-syntax-ns#" xmlns="http://www.w3.org/2000/svg" height="100.05" width="600" version="1.1" xmlns:cc="http://creativecommons.org/ns#" xmlns:dc="http://purl.org/dc/elements/1.1/" viewBox="0 0 158.75 26.471001">
 <g transform="translate(318.23 -334.18)">
  <g fill="#858588">
   <path d="m-304.97 334.18c-7.31 0-13.26 5.94-13.26 13.24s5.95 13.23 13.26 13.23c7.3 0 13.25-5.93 13.25-13.23s-5.95-13.24-13.25-13.24m0 25.02c-6.51 0-11.8-5.28-11.8-11.78s5.29-11.78 11.8-11.78c6.5 0 11.79 5.28 11.79 11.78s-5.29 11.78-11.79 11.78"/>
   <path d="m-296.46 344.7-1.49 3.8-1.19-3.65h-1.94l2.24 5.6h1.64s1.58-3.14 1.63-3.25c0.39-0.86-0.06-2.02-0.89-2.5"/>
   <path d="m-302.07 349.25c-0.52 0-0.68-0.46-0.68-0.85v-2.2h1.35v-1.35h-1.35v-1.7h-0.11c-0.82 0-1.63 0.63-1.63 1.69v3.47c0 0.36 0.04 0.67 0.11 0.95 0.25 0.97 1.17 1.39 2.05 1.39 0.57 0 1.1-0.17 1.59-0.5l-0.51-1.19c-0.11 0.08-0.37 0.29-0.82 0.29"/>
   <path d="m-307.25 344.72c-0.77 0-1.44 0.27-1.9 0.77-0.3-0.41-0.77-0.77-1.63-0.77-0.63 0-1.4 0.4-1.68 0.87l-0.07-0.87h-0.12c-0.77 0.02-1.54 0.62-1.54 1.47v4.26h1.74v-3.01c0-0.36 0.11-0.65 0.31-0.89 0.21-0.23 0.48-0.34 0.81-0.34 0.3 0 0.52 0.09 0.67 0.27 0.15 0.19 0.22 0.44 0.22 0.78v3.19h1.68v-3.01c0-0.36 0.1-0.65 0.3-0.89 0.2-0.23 0.47-0.34 0.81-0.34 0.3 0 0.53 0.09 0.67 0.27 0.15 0.19 0.23 0.44 0.23 0.78v3.19h1.74v-3.47c0-0.69-0.19-1.25-0.58-1.66-0.38-0.4-0.93-0.6-1.66-0.6"/>
  </g>
  <g fill="#0e87d2">
   <path d="m-212.63 336.77v3.46h6.94v17.8h3.77v-17.8h6.92v-3.46z"/>
   <path d="m-213.7 343.54v-0.06c0-1.85-0.64-3.44-1.76-4.59-1.37-1.33-3.47-2.12-6.14-2.12h-8.53c1.11 0.97 2.07 2.12 2.82 3.4h5.41c2.76 0 4.4 1.24 4.4 3.52v0.06c0 2.16-1.7 3.55-4.37 3.55h-3.46c0.04 0.83-0.19 2.85-0.36 3.32h3.03l5.22 7.41h4.4l-5.73-8.05c2.97-0.85 5.07-2.95 5.07-6.44"/>
   <path d="m-239.83 336.52c-6.01 0-10.88 4.87-10.88 10.88s4.87 10.88 10.88 10.88 10.88-4.87 10.88-10.88-4.87-10.88-10.88-10.88"/>
   <path d="m-277.27 345.7c-4.07-0.98-5.04-1.71-5.04-3.35v-0.05c0-1.4 1.27-2.53 3.46-2.53 1.94 0 3.86 0.76 5.77 2.19l2.01-2.82c-2.16-1.74-4.62-2.68-7.72-2.68-4.22 0-7.26 2.52-7.26 6.17v0.06c0 3.92 2.55 5.25 7.08 6.35 3.95 0.91 4.8 1.73 4.8 3.25v0.06c0 1.61-1.46 2.67-3.77 2.67-2.64 0-4.68-1-6.71-2.76l-2.25 2.67c2.55 2.28 5.62 3.4 8.87 3.4 4.46 0 7.6-2.37 7.6-6.35v-0.06c0-3.52-2.34-5.13-6.84-6.22"/>
   <path d="m-260.25 336.77h-8.38v21.26h3.74v-6.84h4.21c4.68 0 8.51-2.49 8.51-7.25v-0.07c0-4.28-3.12-7.1-8.08-7.1m4.28 7.25c0 2.22-1.76 3.8-4.58 3.8h-4.34v-7.65h4.34c2.79 0 4.58 1.3 4.58 3.79z"/>
   <path d="m-191.18 358.02h14.49v-1.51h-12l6.49-5.88c0.93-0.85 1.73-1.62 2.39-2.32 0.67-0.7 1.22-1.37 1.65-2 0.44-0.64 0.76-1.27 0.96-1.9 0.2-0.62 0.3-1.3 0.3-2.03v-0.06c0-0.83-0.16-1.6-0.48-2.3-0.33-0.71-0.76-1.32-1.32-1.85s-1.22-0.94-1.99-1.23c-0.76-0.29-1.6-0.44-2.51-0.44-0.93 0-1.76 0.11-2.49 0.33-0.72 0.21-1.39 0.52-1.99 0.92-0.59 0.4-1.14 0.87-1.63 1.44-0.5 0.55-0.98 1.18-1.44 1.89l1.18 0.78c0.89-1.27 1.81-2.24 2.76-2.92s2.1-1.01 3.45-1.01c0.65 0 1.26 0.1 1.84 0.31 0.57 0.22 1.08 0.51 1.51 0.91 0.44 0.4 0.79 0.87 1.05 1.44 0.26 0.56 0.4 1.19 0.4 1.87 0 0.57-0.09 1.12-0.25 1.64-0.16 0.53-0.43 1.07-0.8 1.63-0.38 0.57-0.86 1.17-1.46 1.82-0.59 0.65-1.33 1.36-2.19 2.15l-7.92 7.14z"/>
  </g>
  <path d="m-173.21 343.69h1.87v-2.56h2.4v2.56h1.86v-6.74h-1.86v2.52h-2.4v-2.52h-1.87zm7.33 0h2.56c2.43 0 3.84-1.44 3.84-3.39v-0.02c0-1.94-1.39-3.33-3.8-3.33h-2.6zm1.87-1.65v-3.43h0.76c1.11 0 1.85 0.62 1.85 1.7v0.02c0 1.09-0.74 1.71-1.85 1.71z" fill="#858588"/>
 </g>
</svg>
