<?xml version="1.0" encoding="UTF-8" standalone="no"?>
<!-- Created with Inkscape (http://www.inkscape.org/) -->

<svg
   xmlns:dc="http://purl.org/dc/elements/1.1/"
   xmlns:cc="http://creativecommons.org/ns#"
   xmlns:rdf="http://www.w3.org/1999/02/22-rdf-syntax-ns#"
   xmlns:svg="http://www.w3.org/2000/svg"
   xmlns="http://www.w3.org/2000/svg"
   version="1.1"
   width="638.19482"
   height="87.616631"
   id="svg2">
  <metadata
     id="metadata24">
    <rdf:RDF>
      <cc:Work
         rdf:about="">
        <dc:format>image/svg+xml</dc:format>
        <dc:type
           rdf:resource="http://purl.org/dc/dcmitype/StillImage" />
        <dc:title></dc:title>
      </cc:Work>
    </rdf:RDF>
  </metadata>
  <defs
     id="defs22" />
  <g
     transform="translate(-45.193348,-113.13464)"
     id="layer1">
    <path
       d="m 78.357544,171.35622 c 13.339373,0 18.340323,-11.33899 18.340323,-22.59376 0,-11.81277 -5.011478,-23.15176 -18.340323,-23.15176 -13.328846,0 -18.319267,11.33899 -18.319267,23.15176 -0.01053,11.25477 4.990421,22.59376 18.319267,22.59376 m 0,-58.22158 c 20.888175,0 33.174716,15.59244 33.174716,35.62782 0,19.47738 -12.286541,35.06981 -33.174716,35.06981 -20.867119,0 -33.164189,-15.59243 -33.164189,-35.06981 -0.01053,-20.03538 12.286542,-35.62782 33.164189,-35.62782"
       id="path6427"
       style="fill:#ffffff" />
    <path
       d="m 119.30216,133.35953 h 12.76031 v 9.07541 h 0.17898 c 2.47416,-6.14853 9.08594,-10.40197 15.60297,-10.40197 0.94754,0 2.07407,0.18951 2.92687,0.47377 v 12.47605 c -1.22129,-0.28426 -3.22167,-0.47377 -4.81144,-0.47377 -9.84398,0 -13.24462,7.09608 -13.24462,15.68719 v 22.02523 h -13.41307 v -48.86191 z"
       id="path6429"
       style="fill:#ffffff" />
    <path
       d="m 186.50439,158.30111 c -2.27412,1.98985 -6.99081,2.08461 -11.16002,2.84265 -4.15868,0.85279 -7.93835,2.26358 -7.93835,7.18031 0,5.01147 3.86389,6.24329 8.22262,6.24329 10.4862,0 10.86522,-8.31737 10.86522,-11.25477 v -5.01148 z m -30.99536,-9.91767 c 0.74751,-12.57081 12.00228,-16.35047 22.96225,-16.35047 9.73869,0 21.45671,2.16883 21.45671,13.89737 v 25.42588 c 0,4.43242 0.47377,8.87537 1.70558,10.86522 h -13.61311 c -0.4843,-1.51608 -0.84226,-3.11638 -0.94755,-4.72721 -4.24291,4.44295 -10.4862,6.04325 -16.45575,6.04325 -9.25439,0 -16.63474,-4.63246 -16.63474,-14.64489 0,-11.05473 8.3279,-13.70786 16.63474,-14.83439 8.22261,-1.23181 15.88723,-0.94755 15.88723,-6.4328 0,-5.76952 -3.96918,-6.61178 -8.69639,-6.61178 -5.09571,0 -8.41213,2.07408 -8.8859,7.36982 h -13.41307 z"
       id="path6431"
       style="fill:#ffffff" />
    <path
       d="m 210.31943,133.35953 h 12.76032 v 6.8013 h 0.28426 c 3.39012,-5.47473 9.26492,-8.12786 14.93968,-8.12786 14.26587,0 17.84549,8.0331 17.84549,20.13013 v 30.05834 h -13.41307 v -27.59471 c 0,-8.0331 -2.35834,-12.00228 -8.5911,-12.00228 -7.27507,0 -10.39145,4.06393 -10.39145,13.9816 v 25.61539 h -13.4236 v -48.86191 z"
       id="path6433"
       style="fill:#ffffff" />
    <path
       d="m 299.65218,157.17458 c 0,-7.93835 -2.74789,-15.0239 -11.42323,-15.0239 -7.58038,0 -10.87574,6.61178 -10.87574,13.88684 0,7.00133 2.6426,14.65542 10.87574,14.65542 7.65409,0 11.42323,-6.52756 11.42323,-13.51836 m 12.77084,21.93048 c 0,8.0331 -2.84264,21.64621 -25.32059,21.64621 -9.65447,0 -20.89871,-4.5377 -21.55146,-15.68719 h 13.31831 c 1.23182,5.00095 5.28522,6.70654 10.01243,6.70654 7.4751,0 10.87575,-5.10623 10.77047,-12.09703 v -6.4328 h -0.18951 c -2.91635,5.10623 -8.79115,7.55933 -14.65542,7.55933 -14.65541,0 -20.88817,-11.14949 -20.88817,-24.56256 0,-12.67609 7.27506,-24.20459 20.98293,-24.20459 6.4328,0 11.33899,2.17936 14.56066,7.84359 h 0.18951 v -6.51703 h 12.77084 v 45.74553 z"
       id="path6435"
       style="fill:#ffffff" />
    <path
       d="m 356.09447,152.54212 c -1.23182,-6.81182 -4.16922,-10.40197 -10.69677,-10.40197 -8.49635,0 -10.95997,6.62231 -11.14948,10.40197 h 21.84625 z m -21.84625,8.50688 c 0.37901,8.50688 4.5377,12.3813 12.00227,12.3813 5.3905,0 9.73869,-3.30589 10.59149,-6.33805 h 11.80224 c -3.75861,11.53903 -11.80224,16.45576 -22.8675,16.45576 -15.40292,0 -24.94158,-10.59149 -24.94158,-25.71015 0,-14.64488 10.10718,-25.80489 24.94158,-25.80489 16.63474,0 24.67837,13.99213 23.73082,29.01603 h -35.25932 z"
       id="path6437"
       style="fill:#ffffff" />
    <path
       d="m 561.28078,131.92768 c -17.92972,0 -29.26871,4.46401 -35.39619,13.84474 h 32.0903 c 0.12634,0 0.24215,-0.0211 0.37902,-0.0211 0.25268,0 0.52641,0.0211 0.77909,0.0211 h 1.28446 l -0.23163,0.0526 c 7.15926,0.558 9.40179,4.48506 7.95941,11.27582 -1.58978,7.50669 -6.01167,11.43375 -14.63436,11.43375 -8.53846,0 -11.37058,-3.92706 -9.7808,-11.43375 0.87385,-4.07445 2.70578,-7.08555 5.55895,-8.99118 l -27.05777,5.68529 c -0.31585,1.06336 -0.61064,2.15831 -0.84226,3.30589 -3.68491,17.23485 5.11676,25.25743 29.17395,25.25743 24.06773,0 36.25952,-8.02258 39.9339,-25.25743 3.6428,-17.16115 -5.15887,-25.1732 -29.21607,-25.1732"
       id="path6439"
       style="fill:#ee7f00" />
    <path
       d="m 399.0921,161.61753 c -12.09703,-1.27393 -14.63436,-6.22223 -12.91824,-14.32904 2.33729,-11.01261 13.571,-15.69771 34.40653,-15.69771 14.50802,0 29.90041,2.6426 27.51048,15.86617 h -24.06772 c 0.25268,-1.1897 0.0526,-2.22148 -1.01072,-2.90582 -1.0423,-0.67381 -2.88476,-1.1897 -6.04325,-1.1897 -6.40122,0 -7.91729,1.45291 -8.29631,3.24272 -0.24215,1.1897 0.60011,2.47416 5.0957,2.89529 l 19.94063,1.80034 c 11.28635,1.02125 14.57118,6.13801 12.88665,14.07636 -2.5689,12.03386 -13.95001,16.63473 -36.4806,16.63473 -22.18316,0 -30.85849,-4.60087 -29.02657,-16.38205 h 25.08898 c -0.15793,1.87404 0.54747,3.07426 1.84245,3.75861 1.38974,0.67381 3.4954,0.85279 5.8748,0.85279 5.47472,0 7.40141,-1.45291 7.85412,-3.57963 0.28427,-1.36868 -0.12634,-2.65313 -2.28464,-2.90581 l -20.37229,-2.13725 z"
       id="path6441"
       style="fill:#ee7f00" />
    <path
       d="m 482.67639,167.68184 c 7.67514,0 12.59186,-4.6114 13.85526,-10.58096 1.30551,-6.14853 -1.15812,-10.58095 -9.4439,-10.58095 -8.1805,0 -12.51817,3.92706 -13.92896,10.58095 -1.40027,6.56967 1.24234,10.58096 9.5176,10.58096 m -25.82596,-34.21702 h 20.64603 l -1.17918,5.54842 h 0.17899 c 4.77985,-4.44295 11.18107,-6.83288 20.64602,-6.83288 13.82368,0 24.93105,7.60145 21.24614,24.92052 -3.67438,17.31908 -18.01395,24.90999 -31.8271,24.90999 -8.69638,0 -14.3922,-2.12672 -17.11903,-6.55914 h -0.17899 l -4.55876,21.40407 h -21.31983 l 13.46571,-63.39098 z"
       id="path6443"
       style="fill:#ee7f00" />
    <path
       d="m 598.86686,133.46482 h 20.64602 l -1.90562,8.95959 h 0.17898 c 7.08556,-7.25401 14.70805,-10.24405 22.05682,-10.24405 2.3057,0 4.65351,0.16846 6.88551,0.51589 l -4.06392,19.11942 c -3.5691,-0.94755 -6.55914,-1.71612 -10.30722,-1.71612 -7.59092,0 -16.22414,2.47416 -18.37191,12.54975 l -3.7165,17.48753 h -21.33036 l 9.9282,-46.67201 z"
       id="path6445"
       style="fill:#ee7f00" />
    <path
       d="m 653.74043,118.44091 h 21.31984 l -3.20061,15.02391 h 11.5285 l -2.83211,13.30779 h -11.51798 l -3.51645,16.46628 c -0.9265,4.34819 0.81068,4.6114 5.43261,4.6114 1.71611,0 3.68491,-0.0842 5.75898,-0.16845 l -2.65313,12.45499 c -3.86389,0.50536 -9.08594,1.02125 -15.73983,1.02125 -12.98141,0 -17.4033,-2.47415 -14.69753,-15.18183 l 10.11771,-47.53534 z"
       id="path6447"
       style="fill:#ee7f00" />
    <path
       d="m 66.526388,106.05633 c -6.180603,-1.35363 -13.300179,-5.53466 -16.895094,-9.921779 -2.707199,-3.303779 -5.632367,-9.03523 -6.932661,-13.583565 -1.578859,-5.522737 -1.581377,-16.094805 -0.0052,-21.885803 2.349209,-8.631247 7.882681,-16.237744 14.776639,-20.312469 9.274055,-5.481497 23.564066,-5.647305 33.530324,-0.389054 4.701987,2.480794 10.109354,8.197125 12.625994,13.347421 2.79174,5.713245 3.62674,9.127026 3.97662,16.257681 0.48481,9.880802 -1.72437,17.924133 -6.81724,24.820612 -4.322515,5.853326 -10.994209,10.104626 -18.279231,11.647786 -4.245647,0.89934 -11.919302,0.90855 -15.980138,0.0192 l 0,-2e-5 z M 82.655436,92.268666 c 5.98299,-2.945413 9.48286,-9.60769 9.962554,-18.964488 0.558277,-10.889668 -3.553685,-19.933297 -10.483466,-23.056766 -2.18097,-0.983031 -3.438428,-1.178191 -7.610897,-1.181228 -4.474252,-0.0033 -5.299003,0.144037 -7.866708,1.404923 -6.481059,3.18256 -10.044066,10.742128 -10.055034,21.333589 -0.01232,11.89494 5.188653,20.160455 13.845022,22.002859 3.800467,0.80888 8.691972,0.192308 12.208529,-1.538889 z"
       transform="translate(3.7750135,77.032069)"
       id="path3001"
       style="fill:#000000;fill-opacity:1" />
    <path
       d="m 115.25956,80.80159 0,-24.491545 6.4783,0 6.4783,0 0.14441,4.315483 0.14442,4.315483 1.63187,-2.522414 c 2.95788,-4.572068 10.08887,-8.100087 14.91074,-7.377003 l 2.20092,0.330048 0,6.217217 0,6.217217 -4.40031,0 c -5.35089,0 -8.6788,1.373447 -10.8222,4.466379 -2.50019,3.607771 -2.77128,5.549965 -2.77128,19.85469 l 0,13.165985 -6.99758,0 -6.99759,0 0,-24.49154 z"
       transform="translate(3.7750135,77.032069)"
       id="path3003"
       style="fill:#000000;fill-opacity:1" />
    <path
       d="m 162.87288,106.23915 c -1.44064,-0.24013 -3.6361,-0.91453 -4.87881,-1.49867 -2.81994,-1.32553 -6.36779,-5.207784 -7.15239,-7.826545 -0.90276,-3.01314 -0.73095,-8.516686 0.33915,-10.864157 2.7893,-6.118838 6.58294,-7.871293 21.69234,-10.020691 8.53454,-1.214086 10.84027,-3.197103 9.27061,-7.973097 -0.90065,-2.740406 -2.99868,-3.746906 -7.81248,-3.747929 -5.0846,-0.0011 -7.65162,1.515735 -8.61405,5.089901 l -0.51347,1.906906 -6.79229,0 -6.79229,0 0.33629,-2.103033 c 1.03663,-6.482713 5.77583,-11.107352 13.53673,-13.209509 6.24165,-1.690645 16.2822,-1.275988 22.13594,0.914175 3.49479,1.307568 7.1339,4.817453 7.9925,7.708687 0.42004,1.414427 0.61606,6.724818 0.6273,16.994133 0.0149,13.624891 0.34242,19.448839 1.2694,22.573709 l 0.33791,1.13912 -6.93312,-0.13946 -6.93312,-0.13947 -0.43704,-2.07473 -0.43703,-2.07474 -2.16327,1.65127 c -2.54165,1.94008 -5.62737,3.04004 -10.46119,3.72907 -3.95388,0.5636 -4.02886,0.56325 -7.61762,-0.0349 l 0,0 z m 13.17014,-9.181418 c 2.70013,-0.801852 4.80351,-2.650684 5.69982,-5.010025 0.81665,-2.149684 1.28847,-10.246462 0.59708,-10.246462 -0.29937,0 -0.66346,0.192791 -0.80909,0.428424 -0.14563,0.235633 -1.67713,0.701834 -3.40334,1.036001 -9.74125,1.885761 -10.48554,2.112093 -12.24351,3.723155 -2.14402,1.964848 -2.74344,5.193407 -1.43425,7.725105 0.45004,0.870271 0.8687,1.585697 0.93037,1.589836 0.0617,0.0041 1.01181,0.33165 2.11143,0.727803 2.59679,0.935525 5.45984,0.944284 8.55149,0.02616 l 0,2e-6 z"
       transform="translate(3.7750135,77.032069)"
       id="path3005"
       style="fill:#000000;fill-opacity:1" />
    <path
       d="m 206.22816,80.80159 0,-24.491545 6.49775,0 6.49776,0 0,3.316725 0,3.316726 2.46816,-2.507402 c 4.39534,-4.465214 9.55777,-6.11778 16.29778,-5.217146 7.0557,0.94282 11.58619,4.366012 13.23386,9.999367 1.06071,3.626587 1.51023,12.067093 1.37561,25.829737 l -0.13688,13.995168 -6.87263,0.13906 -6.87263,0.13906 -0.003,-15.883622 c -0.002,-9.716407 -0.20995,-16.629716 -0.53635,-17.805175 -0.29346,-1.056852 -1.27902,-2.734986 -2.19014,-3.729186 -1.54827,-1.689455 -1.88083,-1.819142 -5.08671,-1.983611 -4.72745,-0.242529 -7.41882,1.116734 -9.17814,4.635381 -1.24396,2.487926 -1.25027,2.571448 -1.40587,18.618572 l -0.15631,16.119431 -6.96623,0 -6.96624,0 0,-24.49154 z"
       transform="translate(3.7750135,77.032069)"
       id="path3007"
       style="fill:#000000;fill-opacity:1" />
    <path
       d="m 278.20331,123.44168 c -8.52529,-1.42549 -15.24418,-7.03253 -16.29398,-13.59763 l -0.32809,-2.05178 6.68745,0 6.68746,0 1.14164,2.15203 c 1.34369,2.53288 3.07914,3.67726 6.58473,4.34208 5.5533,1.05316 10.59417,-1.56749 12.22576,-6.35594 0.49006,-1.43826 0.78899,-4.0293 0.78899,-6.83885 l 0,-4.523287 -1.51728,1.840718 c -3.81499,4.628249 -12.70082,6.628829 -19.82777,4.464079 -8.5442,-2.59521 -13.48222,-10.144668 -14.02676,-21.444704 -0.45098,-9.358376 1.92883,-16.241243 7.35137,-21.261558 4.17991,-3.869864 7.36974,-5.057055 13.52544,-5.033897 5.92584,0.02229 8.92455,1.176942 12.22766,4.708243 l 2.26734,2.423964 0,-2.977551 0,-2.977552 6.49776,0 6.49775,0 0,24.636445 c 0,27.23506 -0.0885,28.17109 -3.14508,33.26793 -2.75026,4.58603 -7.56947,7.58896 -14.22161,8.86173 -3.45284,0.66063 -10.22904,0.84938 -13.12278,0.36553 z M 288.8407,92.623944 c 2.40862,-1.008342 5.18762,-4.384517 6.07862,-7.384843 1.26239,-4.250929 0.79316,-10.95738 -1.01451,-14.499919 -3.32699,-6.519999 -13.36694,-7.326782 -17.47145,-1.403959 -4.71573,6.804789 -2.94607,19.713134 3.14325,22.927737 2.23399,1.179343 6.8771,1.360266 9.26409,0.360984 z"
       transform="translate(3.7750135,77.032069)"
       id="path3009"
       style="fill:#000000;fill-opacity:1" />
    <path
       d="m 338.43252,106.46714 c -10.64838,-1.57695 -17.83505,-7.911056 -20.45722,-18.03034 -1.03461,-3.992681 -1.02427,-11.647589 0.0205,-15.166859 1.90181,-6.406261 6.20656,-12.170024 11.3333,-15.17449 2.66256,-1.560367 9.15351,-3.284888 12.36404,-3.284888 13.58954,0 23.07085,9.68618 23.85121,24.366588 l 0.27233,5.123231 -17.56574,0 c -16.64812,0 -17.56574,0.04748 -17.56574,0.908936 0,1.680914 1.48828,5.939592 2.54533,7.28342 2.3716,3.014999 7.75081,4.430872 12.5028,3.290887 2.13216,-0.511497 3.19546,-1.171478 5.33595,-3.311966 l 2.67318,-2.673175 5.4655,0 c 4.0394,0 5.4654,0.163024 5.46511,0.624784 -2.2e-4,0.343631 -0.66488,2.029386 -1.47703,3.746122 -2.6714,5.646823 -7.62397,9.87653 -13.30073,11.35941 -2.8751,0.75103 -9.22025,1.27044 -11.46278,0.93834 z M 352.0012,74.42879 c -0.79834,-2.862643 -1.0831,-3.55444 -2.17592,-5.286167 -3.43641,-5.445465 -13.995,-4.991995 -17.29427,0.742755 -0.68639,1.193078 -1.40037,2.900229 -1.58662,3.793671 l -0.33863,1.624439 10.81969,0 c 10.06417,0 10.80265,-0.06108 10.57575,-0.874698 z"
       transform="translate(3.7750135,77.032069)"
       id="path3011"
       style="fill:#000000;fill-opacity:1" />
  </g>
</svg>
