<?xml version="1.0" encoding="UTF-8" standalone="no"?>
<svg xmlns:rdf="http://www.w3.org/1999/02/22-rdf-syntax-ns#" xmlns="http://www.w3.org/2000/svg" height="159.38" width="600" version="1.1" xmlns:cc="http://creativecommons.org/ns#" xmlns:dc="http://purl.org/dc/elements/1.1/" viewBox="0 0 158.75 42.170138">
 <g transform="translate(92.627 -34.46)">
  <g fill="#999899" fill-rule="evenodd">
   <path d="m-43.536 34.477c-0.313 0-1.485 0.545-1.503 1.734v5.024h2.449v-2.748h0.945 0.927v2.748h2.449v-6.758h-3.376-1.891zm1.575 1.175h0.316 0.927v1.662h-0.927-0.945v-0.945c0-0.404 0.227-0.717 0.629-0.717z"/>
   <path d="m-66.892 34.46c-1.172 0-1.642 1.104-1.642 1.734v3.307c0 0.788 0.54 1.647 1.642 1.647h1.734 1.89c0.7 0 1.415-0.701 1.415-1.647v-3.307c0-1.017-0.786-1.734-1.504-1.734h-1.801-1.734zm1.261 1.105h0.473 0.402c0.316 0 0.543 0.471 0.543 0.697v3.239c0 0.387-0.246 0.633-0.561 0.633h-0.384-0.473c-0.245 0-0.472-0.317-0.472-0.633v-3.239c0-0.384 0.245-0.697 0.472-0.697z"/>
   <path d="m-76.792 34.46v6.688h2.431c0.089-0.788 0.088-1.576 0.088-2.364h0.891 1.61c1.102 0 1.732-0.946 1.732-1.644v-1.191c0-0.474-0.455-1.489-1.802-1.489h-1.54-3.41zm2.519 1.105h0.891 0.282c0.402 0 0.629 0.226 0.629 0.542v1.033c0 0.227-0.157 0.542-0.629 0.542h-0.282-0.891v-2.117z"/>
   <path d="m-30.432 35.668h-1.574v5.586h-2.501c0.018-1.821 0.018-3.781 0.018-5.586-0.718 0-1.418-0.016-2.206-0.016v-1.175h6.824c-0.159 0.403-0.315 0.788-0.561 1.191"/>
   <path d="m-49.989 40.133c0.313 0 0.558-0.316 0.558-0.542 0-0.245-0.245-0.474-0.472-0.562-0.629-0.316-1.575-0.629-2.118-0.946-0.715-0.471-1.12-0.856-1.101-1.96 0-1.101 1.101-1.646 1.89-1.646h4.232c-0.313 0.545-0.7 1.104-0.7 1.104h-2.203c-0.402 0-0.718 0.297-0.718 0.613 0 0.314 0.316 0.559 0.945 0.788 0.718 0.245 1.418 0.63 1.82 0.875 0.699 0.472 0.856 1.101 0.856 1.644 0 0.632-0.47 1.734-1.347 1.734h-4.794c0.473-0.543 0.875-1.102 0.875-1.102"/>
   <path d="m-54.942 41.235h-3.848c-0.789 0-1.348-0.946-1.329-1.576v-5.199h2.36c-0.016 1.734-0.016 4.569-0.016 4.973 0 0.455 0.402 0.7 0.559 0.7h3.062c-0.402 0.559-0.788 1.102-0.788 1.102"/>
  </g>
  <path d="m-86.431 47.521c0 1.331-1.086 2.416-2.415 2.416-1.347 0-2.415-1.085-2.415-2.416 0-1.349 1.086-2.434 2.415-2.434 1.347 0.016 2.415 1.104 2.415 2.434" fill-rule="evenodd" fill="#e42822"/>
  <g fill="#1073b6" fill-rule="evenodd">
   <path d="m-56.201 51.826-3.378 8.563-1.66 4.252c-0.053 0.107-0.089 0.227-0.123 0.333-0.071 0.316-0.071 0.594 0 0.823 0.052 0.158 0.141 0.297 0.261 0.42 0.35 0.368 0.859 0.559 1.522 0.559h0.037c0.699 0 1.365-0.191 2.01-0.559 0.647-0.368 1.104-0.894 1.384-1.576l2.887-7.352 2.151-5.463h-2.151-2.94z"/>
   <path d="m-80.641 58.287c-0.702 0-1.401 0.21-2.064 0.629-0.666 0.42-1.102 0.927-1.329 1.505-0.246 0.597-0.194 1.104 0.138 1.524 0.35 0.42 0.856 0.63 1.559 0.63h13.103c0.875 0 1.749-0.139 2.64-0.42 0.893-0.297 1.715-0.682 2.485-1.156 0.771-0.491 1.452-1.05 2.047-1.698 0.28-0.314 0.525-0.63 0.7-0.911 0.018-0.033 0.052-0.068 0.07-0.087h-0.07l-19.279-0.016z"/>
   <path d="m-71.737 45.419c-0.875 0-1.765 0.139-2.658 0.42-0.875 0.281-1.716 0.665-2.468 1.156-0.77 0.472-1.451 1.05-2.046 1.699-0.596 0.646-1.032 1.346-1.329 2.082-0.212 0.526-0.282 1.033-0.298 1.54 0 0-11.041-0.016-11.67-0.016-0.454 0-0.42 0.368-0.42 0.368s-0.016 0.384 0.42 0.384h11.722c0.105 0.559 0.298 1.069 0.648 1.489 0.384 0.491 0.89 0.911 1.574 1.156 0.473 0.191 0.804 0.21 1.645 0.226h15.255 0.927c0.036-0.262 0.036-0.526 0-0.772-0.086-0.665-0.316-1.224-0.7-1.714-0.07-0.088-0.141-0.158-0.227-0.246-0.35-0.368-0.804-0.665-1.347-0.91-0.666-0.278-1.434-0.42-2.311-0.42h-9.271c-0.35 0-0.614-0.103-0.77-0.313-0.175-0.21-0.193-0.475-0.07-0.772 0.122-0.316 0.349-0.559 0.665-0.771 0.332-0.21 0.666-0.314 1.031-0.314h12.073 0.104c0.562 0 1.139-0.139 1.679-0.42 0.123-0.052 0.246-0.122 0.368-0.193 0.666-0.42 1.102-0.927 1.329-1.524 0.245-0.575 0.193-1.085-0.138-1.505-0.332-0.42-0.859-0.63-1.559-0.63h-1.783-10.375z"/>
   <path d="m-51.094 45.349c-0.35 0-0.699 0.054-1.049 0.177-0.35 0.103-0.682 0.261-0.998 0.455-0.034 0.032-0.086 0.068-0.12 0.087-0.264 0.175-0.491 0.384-0.702 0.611-0.243 0.245-0.418 0.526-0.525 0.807l-0.927 2.153h2.154l10.425-0.019c0.7 0.019 1.209 0.229 1.559 0.649 0.331 0.42 0.384 0.927 0.138 1.505l-1.697 4.307c-0.245 0.63-0.681 1.137-1.329 1.54-0.629 0.42-1.313 0.614-2.065 0.614h-1.363c-0.736 0-1.436 0.191-2.065 0.594-0.647 0.404-1.086 0.911-1.329 1.54-0.227 0.578-0.193 1.069 0.086 1.489 0.28 0.436 0.823 0.649 1.627 0.649h1.365c1.068 0 2.118-0.177 3.185-0.51 1.05-0.332 2.048-0.788 2.956-1.382 0.927-0.578 1.731-1.26 2.449-2.031 0.7-0.769 1.224-1.611 1.574-2.503l1.697-4.288c0.35-0.878 0.473-1.698 0.368-2.486-0.089-0.772-0.383-1.453-0.84-2.05-0.473-0.578-1.102-1.05-1.888-1.399-0.789-0.332-1.715-0.509-2.746-0.509h-9.94z"/>
   <path d="m-23.309 45.367c-1.053 0-2.118 0.175-3.186 0.507-1.049 0.333-2.028 0.805-2.958 1.383-0.908 0.578-1.731 1.262-2.449 2.05-0.699 0.788-1.224 1.608-1.556 2.486l-1.697 4.288c-0.35 0.892-0.472 1.734-0.384 2.503 0.105 0.788 0.384 1.472 0.838 2.047 0.455 0.578 1.086 1.034 1.872 1.366 0.77 0.352 1.697 0.526 2.765 0.526h6.841 0.122c1.05 0 2.081-0.174 3.149-0.507 1.05-0.333 2.047-0.807 2.974-1.385 0.945-0.594 1.767-1.276 2.467-2.063 0.718-0.772 1.243-1.595 1.592-2.47l1.418-3.623 0.261-0.666c0.35-0.875 0.473-1.698 0.368-2.486-0.07-0.649-0.279-1.243-0.629-1.769-0.07-0.087-0.141-0.191-0.212-0.278-0.472-0.597-1.101-1.053-1.887-1.402-0.789-0.332-1.697-0.507-2.746-0.507h-6.877-0.086zm-1.682 4.272h1.768 5.195c0.316 0 0.614 0.069 0.875 0.175 0.264 0.122 0.472 0.281 0.629 0.49 0.159 0.21 0.263 0.437 0.297 0.701 0.037 0.262 0.001 0.524-0.104 0.788l-1.697 4.305c-0.104 0.264-0.279 0.526-0.506 0.787-0.246 0.265-0.525 0.491-0.857 0.701-0.316 0.21-0.665 0.368-1.015 0.491s-0.682 0.174-1.016 0.174h-1.801l-5.162-0.016c-0.715 0-1.243-0.21-1.574-0.633-0.314-0.42-0.35-0.926-0.123-1.521l1.697-4.288c0.227-0.597 0.666-1.104 1.332-1.524 0.645-0.42 1.328-0.63 2.062-0.63z"/>
   <path d="m12.239 41.112c-0.577 0-1.102 0.106-1.611 0.352-0.156 0.068-0.313 0.155-0.472 0.245-0.6293 0.401-1.0654 0.91-1.3108 1.54l-0.8407 2.135h-6.4538c-1.0156 0-2.0312 0.158-3.0964 0.507-1.0522 0.332-2.0471 0.788-2.9765 1.366-0.9268 0.597-1.7493 1.262-2.483 2.014-0.718 0.753-1.2426 1.576-1.5925 2.432l-2.9033 7.388-0.509 1.298c-0.243 0.629-0.209 1.136 0.107 1.54 0.104 0.139 0.243 0.245 0.402 0.332 0.298 0.175 0.7 0.262 1.188 0.262 0.6842 0 1.3471-0.194 2.0128-0.559 0.6475-0.368 1.1201-0.894 1.3812-1.575l3.4308-8.702c0.1044-0.262 0.2794-0.527 0.5248-0.753 0.2454-0.245 0.5247-0.455 0.8379-0.648 0.316-0.191 0.6475-0.35 1.0156-0.456 0.34985-0.123 0.66579-0.174 0.97908-0.174h10.759 5.88c0.752 0 1.433-0.194 2.081-0.594 0.631-0.404 1.068-0.911 1.313-1.541 0.227-0.561 0.193-1.069-0.07-1.488-0.28-0.42-0.823-0.649-1.627-0.649h-5.11l0.841-2.135c0.261-0.684 0.209-1.207-0.141-1.575-0.365-0.387-0.893-0.562-1.556-0.562z"/>
   <path d="m30.066 51.215-19.438 0.016h-8.939c-0.4725 0-0.4883 0.456-0.4883 0.456s-0.055 0.49 0.5063 0.49c0.5588 0 3.6213 0.017 3.6213 0.017l-1.5561 3.922c-0.3498 0.892-0.4726 1.715-0.3865 2.503 0.1045 0.772 0.3865 1.453 0.8408 2.031 0.4726 0.578 1.0836 1.05 1.8904 1.382 0.7858 0.333 1.7125 0.507 2.762 0.507h1.7491 5.914c0.822 0 1.522-0.21 2.135-0.629 0.611-0.437 1.032-0.927 1.259-1.505s0.211-1.085-0.071-1.505c-0.279-0.42-0.82-0.63-1.642-0.63h-7.595-0.052c-0.6997 0-1.2244-0.212-1.556-0.632-0.3315-0.436-0.3865-0.927-0.1567-1.522l1.5557-3.922h0.209l19.438-0.017c0.506 0 0.472-0.49 0.472-0.49s0.034-0.472-0.472-0.472z"/>
  </g>
  <g fill="#e30c19">
   <path d="m39.977 76.497h-6.714v-22.577h6.714v22.577z"/>
   <path d="m32.123 61.994v5.951h-1.869v8.552h-6.715v-22.577h6.715v8.074"/>
   <path d="m51.209 60.404v16.093h-6.715v-22.577h8.748c3.839 0 6.84 0.87 9.014 2.613 2.578 2.084 3.867 4.913 3.867 8.486 0 3.416-1.101 6.209-3.306 8.368-2.202 2.162-5.042 3.243-8.517 3.243-0.408 0-1.074-0.023-2.002-0.066v-6.633h1.073c3.922 0 5.877-1.637 5.877-4.912 0-3.076-1.928-4.615-5.775-4.615"/>
  </g>
 </g>
</svg>
