<?xml version="1.0" encoding="UTF-8" standalone="no"?>
<svg xmlns:rdf="http://www.w3.org/1999/02/22-rdf-syntax-ns#" xmlns="http://www.w3.org/2000/svg" height="154.6" width="600" version="1.1" xmlns:cc="http://creativecommons.org/ns#" xmlns:dc="http://purl.org/dc/elements/1.1/" viewBox="0 0 158.75 40.905369">
 <g transform="translate(28.726 -154.08)">
  <g fill="#e30c19">
   <g fill-rule="evenodd">
    <path d="m92.132 162.38c-0.242-0.01-0.504 0.02-0.799 0.09-0.599 0.12-1.142 0.35-1.546 0.77l-2.97 2.59-1.228-1.88c-0.292-0.48-0.716-0.84-1.245-1.07-0.521-0.23-1.067-0.29-1.541-0.23-0.529 0.05-0.821 0.29-0.949 0.64-0.17 0.36-0.109 0.71 0.128 1.25l2.304 3.5-5.62 4.89c-0.419 0.48-0.593 0.85-0.532 1.19 0.055 0.3 0.237 0.59 0.7 0.77 0.425 0.11 0.951 0.19 1.549 0.05 0.59-0.11 1.061-0.34 1.471-0.82l4.092-3.57 3.95 6c0.295 0.53 0.723 0.89 1.255 1.07 0.537 0.23 1.066 0.29 1.546 0.23 0.46-0.05 0.769-0.29 0.934-0.54 0.243-0.35 0.115-0.82-0.165-1.3l-4.999-7.65 4.525-3.95c0.474-0.41 0.7-0.7 0.59-1.12-0.07-0.35-0.295-0.59-0.772-0.76-0.214-0.09-0.436-0.14-0.678-0.15z"/>
    <path d="m103.46 165.19c0.47-0.29 0.77-0.65 0.94-1.07 0.17-0.41 0.17-0.7 0-1.01-0.17-0.29-0.58-0.41-1.12-0.41h-3.553l0.483-1.18c0.22-0.48 0.17-0.83-0.06-1.12-0.244-0.19-0.599-0.29-1.012-0.29-0.527 0-1.006 0.1-1.475 0.36-0.419 0.28-0.769 0.63-0.942 1.05l-0.48 1.18-1.069 2.9h6.858c0.54 0 0.95-0.12 1.43-0.41"/>
    <path d="m102.03 171.93c-0.16-0.3-0.53-0.4-1.12-0.4h-3.131c-0.477 0-0.827-0.19-1.058-0.48-0.249-0.3-0.249-0.6-0.066-1l1.069-2.56 0.298-0.59h-3.556l-0.243 0.59-1.066 2.56c-0.286 0.58-0.347 1.18-0.286 1.7 0 0.54 0.17 1.01 0.529 1.43 0.292 0.41 0.702 0.7 1.251 0.94 0.59 0.18 1.18 0.3 1.885 0.3h3.145c0.529 0 1.049-0.12 1.459-0.36 0.47-0.28 0.77-0.65 0.95-1.06s0.12-0.78-0.06-1.07"/>
    <path d="m117.9 170.98c-0.13 0.18-0.13 0.36 0 0.55 0.05 0.1 0.23 0.22 0.41 0.22h4.97c0.11 0 0.29-0.07 0.52-0.18 0.24-0.04 0.42-0.16 0.66-0.3 0.18-0.17 0.35-0.34 0.53-0.52 0.19-0.12 0.3-0.3 0.36-0.48l1.24-3.07c0.06-0.18 0.12-0.36 0.12-0.54 0-0.23-0.06-0.35-0.18-0.53-0.06-0.11-0.17-0.23-0.36-0.35-0.12-0.06-0.29-0.13-0.53-0.13h-6.87c-0.46 0-0.76-0.11-0.93-0.41-0.19-0.3-0.19-0.64 0-1.12 0.17-0.41 0.47-0.7 0.83-1.01 0.41-0.35 0.82-0.46 1.28-0.46h6.93c0.59 0 1.13 0.11 1.6 0.34 0.47 0.25 0.83 0.59 1.13 0.96 0.23 0.41 0.35 0.89 0.41 1.47 0 0.53-0.11 1.12-0.35 1.78l-1.25 3.07c-0.29 0.53-0.65 1.14-1.12 1.71-0.47 0.54-0.94 1.09-1.54 1.5-0.58 0.4-1.24 0.7-1.89 0.94-0.59 0.24-1.25 0.36-1.9 0.36h-4.91c-0.54 0-0.88-0.12-1.29-0.29-0.35-0.26-0.66-0.43-0.9-0.78-0.23-0.37-0.3-0.78-0.35-1.25 0-0.48 0.12-0.93 0.29-1.48 0.24-0.47 0.54-1.23 0.96-1.71 0.41-0.48 0.75-0.88 1.24-1.25 0.64-0.35 0.94-0.47 1.54-0.64 0.53-0.18 1.18-0.18 1.65-0.18h3.32c0.41 0 0.7 0.12 0.88 0.41 0.12 0.18 0.24 0.41 0.06 0.83-0.17 0.41-0.47 0.76-0.89 1.06-0.35 0.3-0.82 0.47-1.24 0.47h-3.37c-0.19 0-0.41 0.08-0.65 0.25-0.18 0.12-0.36 0.53-0.41 0.76"/>
    <path d="m114.28 165.42c0.53 0 1.01-0.18 1.49-0.41 0.46-0.29 0.71-0.65 0.88-1.13 0.18-0.34 0.12-0.71-0.05-1-0.19-0.29-0.53-0.48-1.13-0.48h-2.49c-0.65 0-1.35 0.13-2.13 0.36-0.77 0.23-1.42 0.59-2.07 0.95-0.72 0.41-1.3 0.89-1.78 1.42-0.53 0.52-0.88 1.12-1.12 1.77l-2.42 6.1c-0.18 0.41-0.18 0.78 0.06 1.06 0.23 0.24 0.65 0.43 1.18 0.43 0.46 0 0.94-0.19 1.35-0.37 0.49-0.3 0.77-0.64 1.02-1.12l2.42-6.16c0-0.18 0.11-0.34 0.3-0.53 0.17-0.18 0.42-0.29 0.65-0.48 0.17-0.11 0.47-0.23 0.71-0.29s0.48-0.12 0.7-0.12"/>
    <path d="m62.808 170.22c-0.228 0.58-0.35 1.19-0.35 1.76 0 0.54 0.174 1.09 0.411 1.5 0.234 0.4 0.59 0.7 1.064 0.94 0.479 0.24 0.942 0.36 1.604 0.36h8.863c0.479 0 0.841-0.18 1.248-0.48 0.417-0.24 0.662-0.59 0.824-1.01 0.182-0.46 0.182-0.83 0.067-1.11-0.18-0.31-0.541-0.43-0.951-0.43h-8.814c-0.179 0-0.358-0.07-0.532-0.18-0.118-0.04-0.24-0.16-0.355-0.3-0.058-0.17-0.122-0.34-0.122-0.52-0.06-0.12 0-0.3 0.064-0.48l1.165-2.88h-3.027"/>
    <path d="m79.435 163.71c-0.176-0.29-0.468-0.6-0.893-0.77-0.295-0.24-0.772-0.29-1.298-0.29h-6.802c-0.653 0-1.298 0.11-1.957 0.34-0.589 0.25-1.243 0.59-1.824 0.96-0.598 0.41-1.124 0.89-1.601 1.47-0.335 0.38-0.581 0.78-0.78 1.22h3.165c0.164-0.22 0.344-0.33 0.566-0.51 0.122-0.11 0.362-0.23 0.532-0.35 0.24-0.06 0.477-0.13 0.659-0.13h6.796c0.243 0 0.361 0.07 0.474 0.25 0.067 0.12 0.067 0.3 0 0.53-0.113 0.23-0.292 0.66-0.474 0.77-0.234 0.12-0.41 0.23-0.644 0.23h-5.267c-0.419 0-0.83 0.12-1.24 0.43-0.474 0.29-0.772 0.71-0.836 1.12-0.167 0.41-0.115 0.64 0 0.82 0.122 0.31 0.425 0.47 0.894 0.47h5.2c0.532 0 1.136-0.05 1.717-0.22 0.537-0.25 0.832-0.3 1.486-0.66 0.462-0.35 0.881-0.78 1.234-1.24 0.425-0.48 0.717-1.18 0.957-1.72 0.234-0.53 0.286-1.01 0.286-1.49 0-0.47-0.119-0.88-0.35-1.23"/>
   </g>
   <g>
    <path d="m110.45 194.89h-4.96v-16.66h4.96v16.66z"/>
    <path d="m104.65 184.19v4.39h-1.38v6.31h-4.953v-16.66h4.953v5.96"/>
    <path d="m118.73 183.02v11.87h-4.95v-16.66h6.45c2.84 0 5.05 0.64 6.65 1.93 1.91 1.54 2.86 3.62 2.86 6.26 0 2.52-0.81 4.58-2.44 6.17-1.63 1.6-3.72 2.4-6.29 2.4-0.3 0-0.79-0.02-1.47-0.05v-4.89h0.79c2.89 0 4.33-1.21 4.33-3.63 0-2.27-1.42-3.4-4.26-3.4"/>
   </g>
  </g>
  <g fill="#999899" fill-rule="evenodd">
   <path d="m8.2392 154.1c-0.2359 0-1.1186 0.41-1.1324 1.3v3.78h1.8443v-2.07h0.7116 0.6983v2.07h1.844v-5.08h-2.5423-1.4235zm1.1856 0.88h0.2379 0.6983v1.25h-0.6983-0.7116v-0.71c0-0.3 0.1709-0.54 0.4737-0.54z"/>
   <path d="m-9.3478 154.08c-0.8832 0-1.2362 0.83-1.2362 1.31v2.49c0 0.59 0.407 1.24 1.2362 1.24h1.3054 1.4234c0.5269 0 1.0654-0.53 1.0654-1.24v-2.49c0-0.77-0.5917-1.31-1.1324-1.31h-1.3564-1.3054zm0.9494 0.83h0.356 0.3028c0.2379 0 0.4088 0.36 0.4088 0.53v2.44c0 0.29-0.1848 0.48-0.4227 0.48h-0.2889-0.356c-0.1847 0-0.3556-0.24-0.3556-0.48v-2.44c0-0.29 0.1846-0.53 0.3556-0.53z"/>
   <path d="m-16.803 154.08v5.04h1.831c0.067-0.59 0.067-1.19 0.067-1.78h0.67 1.213c0.829 0 1.303-0.71 1.303-1.24v-0.9c0-0.35-0.342-1.12-1.356-1.12h-1.16-2.568zm1.898 0.83h0.67 0.212c0.303 0 0.474 0.18 0.474 0.41v0.78c0 0.17-0.118 0.41-0.474 0.41h-0.212-0.67v-1.6z"/>
   <path d="m18.106 154.99h-1.185v4.21h-1.884c0.014-1.37 0.014-2.85 0.014-4.21-0.54 0-1.067-0.01-1.661-0.01v-0.88h5.139c-0.12 0.3-0.238 0.59-0.423 0.89"/>
   <path d="m3.3795 158.35c0.236 0 0.4208-0.23 0.4208-0.4 0-0.19-0.1848-0.36-0.3559-0.43-0.4737-0.23-1.1854-0.47-1.5944-0.71-0.5386-0.35-0.8433-0.64-0.8296-1.47 0-0.83 0.8296-1.24 1.4234-1.24h3.1868c-0.236 0.41-0.5269 0.83-0.5269 0.83h-1.6593c-0.3027 0-0.5406 0.22-0.5406 0.46 0 0.23 0.2379 0.42 0.7117 0.59 0.5406 0.19 1.0675 0.48 1.3702 0.66 0.5269 0.36 0.6449 0.83 0.6449 1.24 0 0.47-0.3539 1.3-1.0145 1.3h-3.6094c0.3558-0.4 0.6586-0.83 0.6586-0.83"/>
   <path d="m-0.34981 159.18h-2.8978c-0.5937 0-1.0144-0.71-1.0006-1.18v-3.92h1.7772c-0.0118 1.31-0.0118 3.44-0.0118 3.75 0 0.34 0.3027 0.52 0.4207 0.52h2.306c-0.30276 0.43-0.59371 0.83-0.59371 0.83"/>
  </g>
  <path d="m-24.061 163.92c0 1-0.818 1.82-1.818 1.82-1.015 0-1.819-0.82-1.819-1.82 0-1.02 0.818-1.84 1.819-1.84 1.014 0.02 1.818 0.84 1.818 1.84" fill-rule="evenodd" fill="#e42822"/>
  <g fill="#1073b6" fill-rule="evenodd">
   <path d="m-1.2974 167.16-2.5438 6.45-1.2505 3.2c-0.0393 0.08-0.0668 0.17-0.0923 0.25-0.0531 0.24-0.0531 0.45 0 0.62 0.0393 0.12 0.1061 0.22 0.1965 0.32 0.2634 0.27 0.6469 0.42 1.1463 0.42h0.0275c0.5268 0 1.0281-0.15 1.5137-0.42 0.4875-0.28 0.8315-0.68 1.0418-1.19l2.1743-5.54 1.62-4.11h-1.62-2.2135z"/>
   <path d="m-19.701 172.02c-0.528 0-1.055 0.16-1.554 0.48-0.502 0.31-0.83 0.7-1.001 1.13-0.185 0.45-0.146 0.83 0.104 1.15 0.264 0.32 0.645 0.47 1.174 0.47h9.867c0.658 0 1.3168-0.1 1.9872-0.31 0.6723-0.23 1.2918-0.52 1.8717-0.87 0.58-0.37 1.093-0.79 1.5412-1.28 0.2104-0.24 0.3951-0.48 0.5269-0.69 0.0137-0.02 0.0393-0.05 0.0531-0.06h-0.0531l-14.517-0.02z"/>
   <path d="m-12.997 162.34c-0.658 0-1.329 0.1-2.001 0.31-0.658 0.21-1.292 0.5-1.858 0.87-0.58 0.36-1.093 0.79-1.541 1.28s-0.777 1.01-1.001 1.57c-0.159 0.4-0.212 0.78-0.224 1.16 0 0-8.314-0.01-8.787-0.01-0.342 0-0.317 0.27-0.317 0.27s-0.012 0.29 0.317 0.29h8.827c0.078 0.42 0.224 0.81 0.487 1.12 0.289 0.37 0.671 0.69 1.186 0.87 0.355 0.15 0.605 0.16 1.238 0.17h11.487 0.6979c0.0276-0.19 0.0276-0.39 0-0.58-0.0648-0.5-0.2378-0.92-0.5268-1.29-0.0531-0.06-0.1063-0.12-0.1711-0.18-0.2635-0.28-0.6055-0.5-1.0144-0.69-0.5013-0.21-1.0793-0.31-1.7399-0.31h-6.9807c-0.264 0-0.462-0.08-0.58-0.24-0.132-0.16-0.146-0.36-0.053-0.58 0.092-0.24 0.263-0.42 0.501-0.58 0.25-0.16 0.501-0.24 0.777-0.24h9.09 0.0787c0.4227 0 0.8571-0.1 1.2641-0.31 0.0924-0.04 0.1847-0.1 0.2771-0.15 0.5013-0.32 0.8295-0.7 1.0005-1.15 0.1848-0.43 0.1455-0.81-0.1041-1.13-0.2497-0.32-0.6466-0.47-1.1735-0.47h-1.3428-7.813z"/>
   <path d="m2.5479 162.28c-0.2635 0-0.5267 0.04-0.7901 0.14-0.2634 0.07-0.5133 0.19-0.7511 0.34-0.02559 0.02-0.06504 0.05-0.0906 0.06-0.19856 0.14-0.36938 0.29-0.52862 0.46-0.18283 0.19-0.31459 0.4-0.39519 0.61l-0.69799 1.62h1.6218l7.85-0.01c0.5268 0.01 0.9103 0.17 1.1737 0.49 0.2502 0.31 0.2892 0.69 0.1042 1.13l-1.2779 3.24c-0.1848 0.48-0.513 0.86-1.0005 1.16-0.4738 0.32-0.9889 0.47-1.5551 0.47h-1.0262c-0.5544 0-1.0813 0.14-1.555 0.44-0.4876 0.31-0.818 0.69-1.0008 1.16-0.1711 0.44-0.1455 0.81 0.0649 1.12 0.2103 0.33 0.6193 0.49 1.2248 0.49h1.0282c0.8041 0 1.5943-0.13 2.3983-0.38 0.7903-0.25 1.5415-0.6 2.2256-1.04 0.6977-0.44 1.3037-0.95 1.8437-1.53 0.527-0.58 0.922-1.22 1.186-1.89l1.277-3.23c0.264-0.66 0.356-1.27 0.278-1.87-0.067-0.58-0.289-1.09-0.633-1.54-0.356-0.44-0.83-0.79-1.422-1.05-0.593-0.25-1.291-0.39-2.068-0.39h-7.4841z"/>
   <path d="m23.469 162.3c-0.792 0-1.594 0.13-2.398 0.38-0.79 0.25-1.528 0.6-2.228 1.04-0.684 0.43-1.303 0.95-1.844 1.54-0.526 0.6-0.922 1.21-1.171 1.87l-1.278 3.23c-0.264 0.67-0.356 1.31-0.289 1.89 0.079 0.59 0.289 1.11 0.631 1.54s0.818 0.78 1.409 1.03c0.58 0.26 1.278 0.39 2.082 0.39h5.151 0.093c0.79 0 1.566-0.13 2.37-0.38 0.791-0.25 1.542-0.61 2.24-1.04 0.711-0.45 1.331-0.96 1.858-1.55 0.54-0.59 0.935-1.21 1.199-1.86l1.067-2.73 0.197-0.5c0.263-0.66 0.355-1.28 0.277-1.88-0.053-0.48-0.21-0.93-0.474-1.33-0.053-0.06-0.106-0.14-0.159-0.21-0.356-0.45-0.83-0.79-1.422-1.05-0.593-0.25-1.277-0.38-2.068-0.38h-5.178-0.065zm-1.266 3.21h1.331 3.912c0.238 0 0.462 0.05 0.659 0.13 0.199 0.1 0.356 0.22 0.474 0.37 0.12 0.16 0.198 0.33 0.224 0.53 0.027 0.2 0 0.4-0.079 0.59l-1.278 3.25c-0.078 0.19-0.21 0.39-0.381 0.59-0.185 0.2-0.395 0.37-0.645 0.53-0.238 0.15-0.501 0.27-0.765 0.37-0.263 0.09-0.513 0.13-0.764 0.13h-1.357l-3.886-0.01c-0.539 0-0.936-0.16-1.186-0.48-0.236-0.32-0.263-0.7-0.092-1.15l1.278-3.23c0.171-0.44 0.501-0.83 1.002-1.14 0.486-0.32 1.001-0.48 1.553-0.48z"/>
   <path d="m50.237 159.09c-0.434 0-0.829 0.08-1.213 0.27-0.118 0.05-0.236 0.11-0.355 0.18-0.474 0.3-0.803 0.69-0.987 1.16l-0.633 1.61h-4.86c-0.765 0-1.53 0.12-2.332 0.38-0.792 0.25-1.541 0.59-2.241 1.03-0.698 0.45-1.317 0.95-1.87 1.52-0.54 0.56-0.935 1.18-1.199 1.83l-2.186 5.56-0.383 0.98c-0.183 0.47-0.157 0.85 0.08 1.16 0.079 0.1 0.183 0.18 0.303 0.25 0.224 0.13 0.527 0.19 0.895 0.19 0.515 0 1.014-0.14 1.515-0.42 0.488-0.27 0.844-0.67 1.04-1.18l2.584-6.56c0.078-0.19 0.21-0.39 0.395-0.56 0.185-0.19 0.395-0.34 0.631-0.49 0.238-0.14 0.487-0.26 0.764-0.34 0.264-0.1 0.502-0.13 0.738-0.13h8.101 4.427c0.567 0 1.08-0.15 1.567-0.45 0.476-0.31 0.805-0.69 0.989-1.16 0.171-0.42 0.146-0.81-0.053-1.12-0.21-0.32-0.619-0.49-1.225-0.49h-3.847l0.633-1.61c0.197-0.51 0.157-0.91-0.106-1.19-0.275-0.29-0.672-0.42-1.172-0.42z"/>
   <path d="m63.66 166.7-14.636 0.01h-6.731c-0.356 0-0.368 0.34-0.368 0.34s-0.041 0.37 0.382 0.37c0.42 0 2.726 0.02 2.726 0.02l-1.171 2.95c-0.264 0.67-0.356 1.29-0.291 1.88 0.078 0.59 0.291 1.1 0.633 1.53 0.356 0.44 0.816 0.79 1.423 1.04 0.592 0.26 1.29 0.39 2.08 0.39h1.317 4.453c0.619 0 1.146-0.16 1.608-0.48 0.46-0.33 0.777-0.7 0.948-1.13 0.171-0.44 0.159-0.82-0.053-1.13-0.211-0.32-0.618-0.48-1.237-0.48h-5.719-0.039c-0.527 0-0.922-0.16-1.172-0.47-0.249-0.33-0.291-0.7-0.118-1.15l1.172-2.95h0.157l14.636-0.02c0.382 0 0.356-0.37 0.356-0.37s0.026-0.35-0.356-0.35z"/>
  </g>
 </g>
</svg>
