<?xml version="1.0" encoding="UTF-8" standalone="no"?>
<svg xmlns:rdf="http://www.w3.org/1999/02/22-rdf-syntax-ns#" xmlns="http://www.w3.org/2000/svg" xmlns:cc="http://creativecommons.org/ns#" xmlns:xlink="http://www.w3.org/1999/xlink" xmlns:dc="http://purl.org/dc/elements/1.1/" height="142.89" width="600" version="1.1" viewBox="0 0 158.75 37.805461">
  <defs>
    <linearGradient id="b" gradientUnits="userSpaceOnUse" gradientTransform="matrix(234.2 85.242 -85.242 234.2 306.11 91.044)" x1="0" x2="1" y1="0" y2="0">
      <stop stop-color="#f8b81d" offset="0"/>
      <stop stop-color="#f8b81d" offset=".00087691"/>
      <stop stop-color="#f89a22" offset="1"/>
    </linearGradient>
    <linearGradient id="c" xlink:href="#b" gradientUnits="userSpaceOnUse" gradientTransform="matrix(234.2 85.242 -85.242 234.2 306.11 91.044)" x1="0" x2="1" y1="0" y2="0"/>
    <linearGradient id="a" xlink:href="#b" gradientUnits="userSpaceOnUse" gradientTransform="matrix(234.2 85.242 -85.242 234.2 306.11 91.044)" x1="0" x2="1" y1="0" y2="0"/>
  </defs>
  <g transform="translate(-343.2 -200.99)">
    <path fill="url(#a)" d="m448.76 212.44c0 6.66 5.27 9.34 9.12 11.3 2.38 1.21 4.44 2.26 4.44 3.71 0 1.61-0.89 2.51-2.51 2.51-1.86 0-4.95-2.65-5.99-3.68-0.29-0.29-0.75-0.68-1.36-0.68-0.45 0-0.85 0.21-1.22 0.63l-3.74 4.39c-1.15 1.29-0.27 2.31 0.05 2.61 0.54 0.56 5.47 5.56 12.26 5.56 7.46 0 13.1-5.03 13.1-11.69 0-6.9-5.36-9.67-9.27-11.69-2.25-1.16-4.19-2.16-4.19-3.42 0-1.25 0.89-1.78 1.69-1.86 1.73-0.18 3.03 0.54 3.67 0.95 0.65 0.4 1.17 0.78 1.17 0.78 0.35 0.19 0.61 0.33 1.06 0.33 0.52 0 0.97-0.26 1.3-0.73l2.94-4.32c0.55-0.77 0.99-1.77-0.34-2.8-2.17-1.65-5.03-3.35-9.88-3.35-7.24 0-12.3 4.71-12.3 11.45"/>
    <path fill="url(#c)" d="m361.82 200.99c-4.76 0-9.53 1.82-13.16 5.46-7.28 7.27-7.28 19.06 0 26.33 3.36 3.36 7.68 5.16 12.07 5.42 0 0 11.11 0.37 19.94 0.26 0.13-10.57-0.26-19.93-0.26-19.93-0.26-4.4-2.06-8.72-5.42-12.08-3.64-3.64-8.4-5.46-13.17-5.46zm0 10.56c2.06 0 4.13 0.79 5.7 2.36 3.15 3.15 3.15 8.25 0 11.4-1.57 1.58-3.64 2.36-5.7 2.36s-4.13-0.78-5.7-2.36c-3.14-3.15-3.14-8.25 0-11.4 1.58-1.57 3.64-2.36 5.7-2.36z"/>
    <g fill="url(#a)">
      <path d="m476.75 201.4c-1.03 0-1.7 0.67-1.7 1.71v5.67c0 1.03 0.67 1.7 1.7 1.7h6.58v26.28c0 1.04 0.67 1.7 1.71 1.7h6.93c1.03 0 1.7-0.66 1.7-1.7v-26.28h6.59c0.98 0 1.64-0.61 1.69-1.57v-5.94c-0.05-0.95-0.71-1.57-1.69-1.57z"/>
      <path d="m405.65 201.4c-1.01 0-1.67 0.67-1.67 1.7v20.78c0 3.74-1.42 5.72-4.11 5.72-0.95 0-3.86 0-3.86-5.72v-20.78c0-1.03-0.65-1.7-1.67-1.7h-6.81c-1.02 0-1.67 0.67-1.67 1.7v20.78c0 9.89 4.71 14.92 14.01 14.92 9.34 0 14.27-5.16 14.27-14.92v-20.78c0-1.03-0.65-1.7-1.67-1.7z"/>
      <path d="m421.63 201.41c-1.04 0-1.7 0.68-1.7 1.7v33.66c0 1.03 0.66 1.7 1.7 1.7h20.34c1.03 0 1.69-0.67 1.69-1.7v-5.68c0-1.03-0.66-1.69-1.69-1.69h-11.71v-4.95h10.3c1.04 0 1.7-0.66 1.7-1.7v-5.67c0-1.04-0.66-1.7-1.7-1.7h-10.3v-4.89h11.71c1.03 0 1.69-0.67 1.69-1.7v-5.68c0-1.02-0.66-1.7-1.69-1.7z"/>
    </g>
  </g>
</svg>
