<?xml version="1.0" encoding="UTF-8" standalone="no"?>
<!-- Created with Inkscape (http://www.inkscape.org/) -->

<svg
   xmlns:dc="http://purl.org/dc/elements/1.1/"
   xmlns:cc="http://creativecommons.org/ns#"
   xmlns:rdf="http://www.w3.org/1999/02/22-rdf-syntax-ns#"
   xmlns:svg="http://www.w3.org/2000/svg"
   xmlns="http://www.w3.org/2000/svg"
   version="1.1"
   width="600"
   height="310.40405"
   id="svg4103">
  <defs
     id="defs4105" />
  <metadata
     id="metadata4108">
    <rdf:RDF>
      <cc:Work
         rdf:about="">
        <dc:format>image/svg+xml</dc:format>
        <dc:type
           rdf:resource="http://purl.org/dc/dcmitype/StillImage" />
        <dc:title></dc:title>
      </cc:Work>
    </rdf:RDF>
  </metadata>
  <g
     transform="translate(-51.845727,-376.13477)"
     id="layer1">
    <g
       transform="matrix(2.5105364,0,0,2.5105364,-2421.9138,-1190.8693)"
       id="g3453">
      <path
         d="m 985.35099,624.17102 0,123.64053 123.64051,0 0,-123.64053 -123.64051,0 z"
         id="path3420"
         style="fill:#0807a0;fill-opacity:1;stroke:none" />
      <g
         transform="matrix(0.94202084,0,0,0.94202084,525.14693,420.03701)"
         id="g3422"
         style="font-size:72px;font-style:normal;font-variant:normal;font-weight:normal;font-stretch:normal;text-align:start;line-height:100%;writing-mode:lr-tb;text-anchor:start;fill:#ffffff;fill-opacity:1;stroke:none;font-family:Futura-Bold;-inkscape-font-specification:Futura-Bold">
        <path
           d="m 525.62604,288.81665 17.06396,22.24731 -17.56933,0 -13.31983,-20.88061 -0.14282,0 0,20.88061 -14.11304,0 0,-54.28784 21.09595,0 c 5.37595,0.0484 9.86386,1.40447 13.46375,4.06824 3.59981,2.66387 5.39973,6.89982 5.39978,12.70789 -5e-5,3.74417 -1.01995,7.06826 -3.0597,9.97229 -2.03983,2.90407 -4.9794,4.69155 -8.81872,5.36242 z m -13.96802,-21.24097 0,13.53736 1.3667,0 c 0.24021,0.0469 0.48045,0.0703 0.7207,0.0703 0.24022,3e-5 0.45628,3e-5 0.6482,0 2.11228,-0.0952 4.0444,-0.58701 5.79638,-1.47546 1.75193,-0.8884 2.6279,-2.65244 2.62793,-5.29212 -3e-5,-2.63961 -0.876,-4.40364 -2.62793,-5.29211 -1.75198,-0.88839 -3.6841,-1.38021 -5.79638,-1.47547 -0.19192,5e-5 -0.40798,5e-5 -0.6482,0 -0.24025,5e-5 -0.48049,5e-5 -0.7207,0 l -1.3667,-0.0725 z"
           id="path3424"
           style="fill:#ffffff" />
        <path
           d="m 586.58698,274.12793 0,36.93603 -13.1045,0 0,-4.10449 -0.14282,0 c -1.05618,1.72852 -2.49649,3.01282 -4.32092,3.85291 -1.82449,0.84009 -3.72036,1.30774 -5.68762,1.40295 -0.19192,0.0483 -0.38381,0.0725 -0.57569,0.0725 -0.19191,0 -0.38381,0 -0.57568,0 -5.47267,0 -9.94886,-1.95593 -13.42859,-5.8678 -3.47974,-3.91185 -5.21961,-8.50816 -5.2196,-13.78894 -10e-6,-5.27927 1.71569,-9.87485 5.14709,-13.78674 3.43139,-3.91183 7.88341,-5.86776 13.35608,-5.8678 0.24021,4e-5 0.48045,4e-5 0.7207,0 0.24022,4e-5 0.47972,0.0235 0.71851,0.0703 1.87204,0.14506 3.70822,0.61345 5.50854,1.40516 1.80027,0.79178 3.30027,1.90762 4.5,3.34753 l 0,-3.67163 13.1045,0 z m -21.09595,10.15137 c -2.63967,0.0484 -4.70363,0.90054 -6.1919,2.55652 -1.48829,1.65602 -2.23243,3.61195 -2.23242,5.86779 -10e-6,2.35256 0.74413,4.32057 2.23242,5.90406 1.48827,1.5835 3.55223,2.37525 6.1919,2.37524 2.68796,10e-6 4.76401,-0.79174 6.22815,-2.37524 1.46408,-1.58349 2.19613,-3.5515 2.19616,-5.90406 -3e-5,-2.25584 -0.73208,-4.21177 -2.19616,-5.86779 -1.46414,-1.65598 -3.54019,-2.48399 -6.22815,-2.48401 z"
           id="path3426"
           style="fill:#ffffff" />
        <path
           d="m 608.37726,274.12793 0,36.93603 -13.10449,0 0,-36.93603 13.10449,0 z m -6.55225,-21.52881 c 2.01561,0.0484 3.7434,0.79254 5.18335,2.23242 1.43993,1.44 2.1599,3.16778 2.15991,5.18335 -10e-6,2.01714 -0.71998,3.74566 -2.15991,5.18555 -1.43995,1.43999 -3.16774,2.15996 -5.18335,2.15991 -2.01563,5e-5 -3.74341,-0.71992 -5.18335,-2.15991 -1.43994,-1.43989 -2.15991,-3.16841 -2.15991,-5.18555 0,-2.01557 0.71997,-3.74335 2.15991,-5.18335 1.43994,-1.43988 3.16772,-2.15985 5.18335,-2.15991 z"
           id="path3428"
           style="fill:#ffffff" />
      </g>
      <g
         transform="matrix(0.94882622,0,0,0.94882622,558.10715,385.23506)"
         id="text3175"
         style="font-size:72px;font-style:normal;font-variant:normal;font-weight:normal;font-stretch:normal;text-align:start;line-height:100%;writing-mode:lr-tb;text-anchor:start;fill:#0807a0;fill-opacity:1;stroke:none;font-family:Futura-Bold;-inkscape-font-specification:Futura-Bold">
        <path
           d="m 610.89264,312.24344 20.37524,0 0,-20.95093 14.11304,0 0,54.28784 -14.11304,0 0,-22.24731 -20.37524,0 0,22.24731 -14.11304,0 0,-54.28784 14.11304,0 0,20.95093 z"
           id="path3180"
           style="fill:#0807a0;fill-opacity:1" />
        <path
           d="m 654.57648,345.58035 0,-54.28784 20.01709,0 c 7.58346,0.0484 14.07528,2.68841 19.47546,7.92004 5.4001,5.23174 8.10017,11.66349 8.10022,19.29529 -5e-5,7.63186 -2.71221,14.0519 -8.13647,19.26013 -5.42436,5.20826 -11.90409,7.81238 -19.43921,7.81238 l -20.01709,0 z m 14.11303,-42.33691 0,30.38599 3.16626,0 c 4.22459,0.0469 7.88486,-1.14147 10.98084,-3.56507 3.09591,-2.42356 4.64388,-6.27573 4.64392,-11.55652 -4e-5,-4.84713 -1.43998,-8.5909 -4.31982,-11.23132 -2.87992,-2.64034 -6.59988,-3.96053 -11.15992,-3.96057 l -3.31128,-0.0725 z"
           id="path3182"
           style="fill:#0807a0;fill-opacity:1" />
      </g>
    </g>
  </g>
</svg>
