<?xml version="1.0" encoding="UTF-8" standalone="no"?>
<!-- Created with Inkscape (http://www.inkscape.org/) -->

<svg
   xmlns:dc="http://purl.org/dc/elements/1.1/"
   xmlns:cc="http://creativecommons.org/ns#"
   xmlns:rdf="http://www.w3.org/1999/02/22-rdf-syntax-ns#"
   xmlns:svg="http://www.w3.org/2000/svg"
   xmlns="http://www.w3.org/2000/svg"
   version="1.1"
   width="600"
   height="222.37009"
   id="svg2">
  <metadata
     id="metadata3849">
    <rdf:RDF>
      <cc:Work
         rdf:about="">
        <dc:format>image/svg+xml</dc:format>
        <dc:type
           rdf:resource="http://purl.org/dc/dcmitype/StillImage" />
        <dc:title></dc:title>
      </cc:Work>
    </rdf:RDF>
  </metadata>
  <defs
     id="defs3847" />
  <g
     id="g3080">
    <g
       transform="translate(-72.129843,-283.01804)"
       id="layer1">
      <g
         transform="matrix(1.1118504,0,0,1.1118504,-41.62286,-44.091759)"
         id="g3853">
        <rect
           width="184.81284"
           height="115.50802"
           x="8.6631012"
           y="45.508038"
           transform="translate(102.30936,294.20307)"
           id="rect3851"
           style="fill:#ffffff;fill-opacity:1;fill-rule:nonzero;stroke:none" />
        <path
           d="m 302.27207,294.20307 -199.96271,0 0,200.00001 199.96271,0 z m 69.40426,82.20168 c -1.92582,-1.62764 -4.07529,-2.9198 -6.46083,-3.8765 -2.3607,-0.98156 -4.84562,-1.44128 -7.41753,-1.44128 -0.907,0 -1.91341,0.1366 -2.9695,0.41002 -1.06852,0.28578 -2.05006,0.73306 -2.9198,1.29218 -0.88214,0.57152 -1.6152,1.2673 -2.19916,2.07492 -0.57155,0.82002 -0.84488,1.80156 -0.84488,2.93222 0,1.15548 0.31062,2.13704 0.9567,2.98192 0.64608,0.8573 1.41642,1.59036 2.33584,2.19916 0.93186,0.59638 1.93826,1.09338 2.99434,1.47854 1.06854,0.38516 2.07492,0.74548 2.99436,1.01882 l 5.33018,1.57794 c 2.75828,0.86972 5.35504,1.87612 7.77784,3.05646 2.42282,1.16792 4.49774,2.60918 6.29932,4.31138 1.78916,1.70218 3.1683,3.76466 4.19954,6.11294 1.03124,2.41038 1.54066,5.2432 1.54066,8.48604 0,4.00074 -0.58396,7.91452 -1.7643,11.7786 -1.1555,3.8765 -3.3671,7.1566 -6.5478,9.86518 -3.19316,2.72102 -6.78388,4.62198 -10.74736,5.81476 -3.98832,1.18034 -8.0139,1.75187 -12.07678,1.75187 -5.10654,0 -10.05156,-0.79517 -14.84748,-2.39795 -4.79594,-1.59036 -9.25638,-3.83924 -13.36896,-6.77146 l 8.9582,-16.83542 c 2.6216,2.2737 5.46686,4.22438 8.5109,5.85202 3.05646,1.65248 6.42356,2.46008 10.05156,2.46008 1.2052,0 2.39796,-0.149 3.61558,-0.48456 1.2052,-0.32304 2.29856,-0.78276 3.24284,-1.42884 0.9567,-0.64608 1.75188,-1.46612 2.34826,-2.49736 0.59638,-1.03124 0.88216,-2.2613 0.88216,-3.69012 0,-1.47854 -0.41002,-2.73344 -1.3046,-3.73984 -0.89458,-0.96912 -1.98794,-1.82642 -3.31738,-2.55948 -1.3046,-0.7082 -2.70858,-1.29216 -4.14984,-1.73946 -1.4537,-0.4597 -2.75828,-0.82002 -3.88892,-1.11822 -3.25528,-0.91942 -6.2372,-1.90098 -8.89608,-2.94464 -2.6713,-1.01882 -4.95744,-2.3607 -6.88326,-3.98832 -1.9134,-1.64006 -3.39194,-3.69014 -4.41076,-6.17506 -1.03126,-2.49736 -1.5531,-5.70294 -1.5531,-9.60428 0,-4.05044 0.6958,-7.74058 2.07494,-11.08282 1.39156,-3.34224 3.31738,-6.18748 5.76504,-8.52332 2.44766,-2.34826 5.35504,-4.16226 8.73454,-5.42958 3.3671,-1.29218 7.0945,-1.92582 11.13252,-1.92582 2.0625,0 4.19954,0.1366 6.3987,0.47212 2.19918,0.33548 4.38592,0.77034 6.5478,1.34188 2.18676,0.5591 4.31138,1.25488 6.41114,2.06248 2.08734,0.82004 4.0256,1.72704 5.81474,2.72102 z m 42.31846,59.70056 -19.41979,0 0,-38.70286 -6.27446,0 0,-15.97814 6.27446,0 0,-16.42542 19.41978,0 0,16.42542 10.97098,0 0,15.97814 -10.97098,0 0,38.70286 z m 47.12679,-56.495 c 4.39834,0 8.59788,0.64608 12.5862,1.92582 3.98832,1.26732 7.47966,3.15586 10.51128,5.6408 3.00676,2.48494 5.42958,5.5414 7.19388,9.16942 1.77674,3.61558 2.64646,7.79026 2.64646,12.4868 0,4.59712 -0.86972,8.73454 -2.64646,12.3377 -1.77672,3.64042 -4.18712,6.68448 -7.19388,9.18184 -3.03162,2.48492 -6.51054,4.36106 -10.51128,5.65322 -3.9759,1.26732 -8.17544,1.91339 -12.5862,1.91339 -4.3362,0 -8.48605,-0.64607 -12.46195,-1.91339 -3.9759,-1.29216 -7.5045,-3.1683 -10.56098,-5.65322 -3.05646,-2.49736 -5.46686,-5.54142 -7.256,-9.11972 -1.77674,-3.59074 -2.67132,-7.72814 -2.67132,-12.39982 0,-4.69654 0.89458,-8.87122 2.67132,-12.4868 1.78914,-3.62802 4.1871,-6.68448 7.19388,-9.16942 3.03162,-2.48494 6.52296,-4.37348 10.51128,-5.6408 3.98832,-1.27974 8.18787,-1.92582 12.57377,-1.92582 z m 0,16.84786 c -1.97552,0 -3.75224,0.33546 -5.26806,1.01882 -1.52825,0.6585 -2.83283,1.5655 -3.88893,2.64646 -1.06852,1.1058 -1.87612,2.41038 -2.44766,3.8765 -0.57154,1.52824 -0.84488,3.10616 -0.84488,4.8332 0,3.46648 1.08094,6.37386 3.25526,8.73454 2.17432,2.33584 5.24323,3.51618 9.20671,3.51618 3.97588,0 7.04478,-1.18034 9.23152,-3.51618 2.17432,-2.36068 3.24284,-5.26806 3.24284,-8.73454 0,-1.72704 -0.28576,-3.30496 -0.8573,-4.8332 -0.5591,-1.46612 -1.36672,-2.7707 -2.44766,-3.8765 -1.04368,-1.08096 -2.33584,-1.98796 -3.88892,-2.64646 -1.52824,-0.68336 -3.29254,-1.01882 -5.29292,-1.01882 z m 59.97392,-6.0881 0.22364,0 c 1.83886,-3.40436 4.29894,-5.87686 7.3554,-7.39268 3.05648,-1.54066 6.49812,-2.29856 10.34976,-2.29856 l 3.71498,0 0,18.64944 c -1.32944,-0.78276 -2.6713,-1.26732 -3.98832,-1.50338 -1.3046,-0.1988 -2.721,-0.2982 -4.19954,-0.2982 -2.721,0 -4.9326,0.41002 -6.65963,1.27974 -1.76432,0.83246 -3.1186,2.00038 -4.10015,3.45406 -0.99396,1.45368 -1.7146,3.20556 -2.08735,5.23078 -0.39757,2.0128 -0.59637,4.18712 -0.59637,6.54782 l 0,22.06622 -19.40734,0 0,-54.681 19.40734,0 0,8.94576 z m 39.69684,-40.81506 c 1.49095,0 2.88251,0.27334 4.19953,0.84488 1.317,0.57154 2.47251,1.3543 3.46648,2.33584 0.99398,1.0064 1.77673,2.17432 2.34826,3.46648 0.55913,1.34188 0.84489,2.73344 0.84489,4.23682 0,1.47854 -0.28576,2.89496 -0.84489,4.19954 -0.58395,1.3046 -1.35428,2.47252 -2.34826,3.45406 -0.99397,1.0064 -2.14948,1.77674 -3.46648,2.3607 -1.3046,0.54668 -2.70858,0.83244 -4.19953,0.83244 -1.5034,0 -2.89497,-0.28576 -4.2244,-0.83244 -1.29216,-0.58396 -2.46009,-1.3543 -3.46649,-2.3607 -0.99397,-0.98154 -1.77671,-2.14946 -2.33583,-3.45406 -0.57155,-1.30458 -0.84488,-2.721 -0.84488,-4.19954 0,-1.50338 0.27334,-2.89494 0.84488,-4.23682 0.55912,-1.29216 1.32943,-2.46008 2.33583,-3.46648 1.0064,-0.98154 2.17433,-1.7643 3.46649,-2.33584 1.31701,-0.57154 2.721,-0.84488 4.2244,-0.84488 z m 9.69123,86.5503 -19.39491,0 0,-54.681 19.39491,0 z m 71.46675,0 -19.38251,0 0,-6.07566 -0.22364,0 c -1.68976,2.69614 -4.08772,4.6841 -7.13176,5.97626 -3.05648,1.26732 -6.1875,1.91339 -9.38064,1.91339 -4.06286,0 -7.77784,-0.78275 -11.14494,-2.33583 -3.36708,-1.59036 -6.27446,-3.69012 -8.72212,-6.36144 -2.46008,-2.65888 -4.36106,-5.76504 -5.71534,-9.3185 -1.34186,-3.56588 -2.0128,-7.29328 -2.0128,-11.20706 0,-3.90134 0.67094,-7.6039 2.0128,-11.1325 1.35428,-3.51618 3.23042,-6.60994 5.5911,-9.26882 2.38554,-2.65888 5.26806,-4.77108 8.63514,-6.32416 3.37952,-1.5655 7.0945,-2.36068 11.14494,-2.36068 3.19314,0 6.29932,0.57154 9.3185,1.7643 3.0192,1.16792 5.55384,2.95708 7.61634,5.36746 l 0,-5.31776 19.38248,0 0,54.681 z m -31.21081,-39.64714 c -1.98794,0 -3.76466,0.33546 -5.28047,1.01882 -1.52825,0.6585 -2.83283,1.5655 -3.88893,2.64646 -1.08094,1.1058 -1.87611,2.41038 -2.44766,3.8765 -0.57153,1.52824 -0.84487,3.10616 -0.84487,4.8332 0,3.46648 1.06852,6.37386 3.24283,8.73454 2.16191,2.33584 5.23079,3.51618 9.2191,3.51618 3.96349,0 7.03239,-1.18034 9.21912,-3.51618 2.16191,-2.36068 3.24285,-5.26806 3.24285,-8.73454 0,-1.72704 -0.27334,-3.30496 -0.84489,-4.8332 -0.55909,-1.46612 -1.39156,-2.7707 -2.44766,-3.8765 -1.06852,-1.08096 -2.34826,-1.98796 -3.88891,-2.64646 -1.52825,-0.68336 -3.29255,-1.01882 -5.28051,-1.01882 z"
           id="path151"
           style="fill:#a5cf4c;fill-opacity:1" />
      </g>
    </g>
    <path
       d="m 44.68382,108.5674 2.23793,0 c 7.54266,0 16.01088,-1.42288 16.01088,-11.065325 0,-9.683882 -8.46822,-11.092952 -16.01088,-11.092952 l -2.23793,0 z m 50.76786,48.9858 -28.74773,0 -21.79909,-34.13532 -0.23485,0 0,34.13532 -23.07001,0 0,-88.812669 34.4945,0 c 17.55807,0 30.84751,8.371522 30.84751,27.324854 0,12.253365 -6.82428,22.862815 -19.4092,25.086915 z m 22.9871,-30.14298 c 0,7.65318 5.06988,13.53809 13.78678,13.53809 8.7445,0 13.78674,-5.88491 13.78674,-13.53809 0,-7.41831 -5.04224,-13.66242 -13.78674,-13.66242 -8.71689,0 -13.78678,6.24411 -13.78678,13.66242 m 48.29509,30.14298 -21.42611,0 0,-6.69997 -0.23485,0 c -3.77133,5.99543 -11.20347,8.71686 -18.26261,8.71686 -17.88963,0 -30.48831,-14.97478 -30.48831,-32.2842 0,-17.33704 12.36384,-32.159885 30.25347,-32.159885 6.94864,0 14.24262,2.56947 18.71849,7.888015 l 0,-5.857305 21.42609,0 0,60.396485 z m 36.01408,-83.61846 c 0,6.58947 -5.42904,12.018525 -12.00469,12.018525 -6.60328,0 -12.01851,-5.429055 -12.01851,-12.018525 0,-6.603257 5.42904,-12.018503 12.01851,-12.018503 6.57565,0 12.00469,5.415246 12.00469,12.018503 m -1.32617,83.61846 -21.41231,0 0,-60.410295 21.41231,0 z"
       id="path151-4"
       style="fill:#ffffff;fill-opacity:1" />
  </g>
</svg>
