<?xml version="1.0" encoding="UTF-8" standalone="no"?>
<svg xmlns:rdf="http://www.w3.org/1999/02/22-rdf-syntax-ns#" xmlns="http://www.w3.org/2000/svg" height="320.74" width="600" version="1.1" xmlns:cc="http://creativecommons.org/ns#" xmlns:dc="http://purl.org/dc/elements/1.1/" viewBox="0 0 158.75 84.862369">
 <g transform="translate(86.935 -95.063)">
  <path d="m-86.935 95.063v66.207h16.32l-0.119 18.66 18.997-18.66h31.005v-66.207z" fill="#02ad45"/>
  <g fill="#fff">
   <path d="m-68.222 131.44 8.607 11.22h-8.862l-6.719-10.53h-0.072v10.53h-7.119v-27.38h10.641c2.712 0.02 4.976 0.71 6.791 2.05 1.816 1.34 2.724 3.48 2.724 6.41 0 1.89-0.514 3.57-1.543 5.03-1.029 1.47-2.512 2.37-4.448 2.71zm-7.046-10.71v6.82h0.689c0.122 0.03 0.243 0.04 0.364 0.04h0.327c1.065-0.05 2.04-0.3 2.924-0.74 0.883-0.45 1.325-1.34 1.325-2.67 0-1.34-0.442-2.23-1.325-2.67-0.884-0.45-1.859-0.7-2.924-0.75h-0.327-0.364z"/>
   <path d="m-37.474 124.03v18.63h-6.61v-2.07h-0.072c-0.532 0.87-1.259 1.52-2.179 1.94-0.92 0.43-1.877 0.66-2.869 0.71-0.097 0.03-0.194 0.04-0.29 0.04h-0.291c-2.76 0-5.018-0.99-6.773-2.96s-2.633-4.29-2.633-6.96c0-2.66 0.866-4.98 2.596-6.95 1.731-1.97 3.977-2.96 6.737-2.96h0.364c0.121 0 0.242 0.01 0.362 0.04 0.944 0.07 1.871 0.3 2.779 0.7s1.664 0.97 2.269 1.69v-1.85h6.61zm-10.64 5.12c-1.332 0.03-2.373 0.46-3.124 1.29-0.75 0.84-1.126 1.82-1.126 2.96 0 1.19 0.376 2.18 1.126 2.98 0.751 0.8 1.792 1.2 3.124 1.2 1.355 0 2.403-0.4 3.141-1.2 0.739-0.8 1.108-1.79 1.108-2.98 0-1.14-0.369-2.12-1.108-2.96-0.738-0.83-1.786-1.25-3.141-1.25z"/>
   <path d="m-26.483 124.03v18.63h-6.61v-18.63zm-3.305-10.86c1.017 0.03 1.889 0.4 2.615 1.13 0.726 0.72 1.089 1.6 1.089 2.61 0 1.02-0.363 1.89-1.089 2.62-0.726 0.72-1.598 1.09-2.615 1.09-1.016 0-1.888-0.37-2.614-1.09-0.726-0.73-1.089-1.6-1.089-2.62 0-1.01 0.363-1.89 1.089-2.61 0.726-0.73 1.598-1.09 2.614-1.09z"/>
  </g>
  <path fill="#fe0000" d="m-5.9744 129.59-10.184-14.36h8.6086l5.1643 7.51 5.1642-7.51h8.6079l-10.183 14.36v13.26h-7.1784z"/>
  <path fill="#ffb502" d="m17.843 123.44c3.028 0.02 5.671 0.91 7.931 2.65 2.259 1.75 3.388 4.22 3.388 7.42 0 3.17-1.129 5.63-3.388 7.36-2.26 1.74-4.903 2.6-7.931 2.6-3.003 0-5.64-0.86-7.9111-2.58-2.271-1.72-3.4065-4.18-3.4065-7.38s1.1294-5.67 3.3881-7.42c2.2585-1.74 4.9015-2.62 7.9295-2.62zm0 5.78c-1.343 0.03-2.393 0.46-3.15 1.3-0.757 0.85-1.135 1.84-1.135 2.99 0 1.2 0.378 2.2 1.135 3 0.757 0.81 1.807 1.21 3.15 1.21 1.368 0 2.424-0.4 3.169-1.21 0.744-0.8 1.117-1.8 1.117-3 0-1.15-0.373-2.14-1.117-2.99-0.745-0.84-1.801-1.26-3.169-1.26z"/>
  <path fill="#02ad45" d="m36.123 129.59-10.183-14.36h8.608l5.164 7.51 5.165-7.51h8.608l-10.183 14.36v13.26h-7.179z"/>
  <path fill="#03d5ed" d="m60.497 123.44c3.027 0.02 5.671 0.91 7.93 2.65 2.259 1.75 3.388 4.22 3.388 7.42 0 3.17-1.129 5.63-3.388 7.36-2.259 1.74-4.903 2.6-7.93 2.6-3.004 0-5.641-0.86-7.912-2.58s-3.406-4.18-3.406-7.38 1.129-5.67 3.388-7.42c2.259-1.74 4.902-2.62 7.93-2.62zm0 5.78c-1.343 0.03-2.393 0.46-3.15 1.3-0.758 0.85-1.136 1.84-1.136 2.99 0 1.2 0.378 2.2 1.136 3 0.757 0.81 1.807 1.21 3.15 1.21 1.367 0 2.423-0.4 3.168-1.21 0.745-0.8 1.117-1.8 1.117-3 0-1.15-0.372-2.14-1.117-2.99-0.745-0.84-1.801-1.26-3.168-1.26z"/>
 </g>
</svg>
