<?xml version="1.0" encoding="UTF-8" standalone="no"?>
<svg xmlns:rdf="http://www.w3.org/1999/02/22-rdf-syntax-ns#" xmlns="http://www.w3.org/2000/svg" height="128.47" width="600" version="1.1" xmlns:cc="http://creativecommons.org/ns#" xmlns:dc="http://purl.org/dc/elements/1.1/" viewBox="0 0 158.75 33.992222">
 <g transform="translate(-22.895 -188.09)" fill="#188fd7">
  <path d="m80.316 217.38c-4.863 0-8.959-3.48-9.692-8.42h9.209c1.018 0 3.235 0.21 3.235 0.21v-4.09s-2.176 0.16-3.392 0.16h-9.052c0.908-4.84 4.881-8.18 9.692-8.18 2.542 0 5.666 1.17 5.666 1.17l0.059-4.31s-2.223-0.84-5.725-0.84c-8.098 0-15.189 6.21-15.189 14.12 0 8.56 7.091 14.34 15.189 14.34 3.811 0 6.085-1.02 6.085-1.02l-0.11-4.45s-2.804 1.31-5.975 1.31"/>
  <path d="m52.748 221.43s0.308-2.07 0.308-3.87v-19.64h-1.326c-1.804 0-4.596 0-6.656 0.21l-0.174-4.57h21.496l-0.099 4.57c-2.13-0.21-4.87-0.21-6.725-0.21h-1.635v19.64c0 1.8 0.361 3.87 0.361 3.87z"/>
  <path d="m86.08 191.29c-1.583-0.45-3.654-0.76-5.387-0.76-4.718 0-8.785 1.44-12.182 4.47l0.052-3.35c3.595-2.46 7.673-3.56 12.13-3.56 1.954 0 3.647 0.27 5.439 0.73z"/>
  <path d="m32.36 192.97c-5.55 0-9.355 0.27-9.355 0.27s0.251 2.75 0.251 4.13v20.24c0 1.86-0.361 3.82-0.361 3.82h5.602s-0.361-1.96-0.361-4.19v-8.23l5.265 5.52 2.665 2.77c1.64 1.8 4.502 4.13 4.502 4.13h7.406s-3.31-2.33-4.852-3.82l-7.47-7.22c4.596-0.44 8.465-3.83 8.465-8.23 0-4.68-2.693-8.83-10.716-9.16-0.331-0.01-0.68-0.03-1.041-0.03zm0.052 3.93c0.349 0 0.687 0.03 0.989 0.04 3.735 0.32 5.271 2.35 5.271 4.8 0 2.75-2.164 4.83-5.271 5.28-0.401 0.05-0.826 0.07-1.257 0.07h-4.008v-10.13s1.949-0.06 4.276-0.06z"/>
  <path d="m130.86 194.49c0 0.73-0.01 2.12-0.01 3.38 0 0.43 0.01 20.01 0.01 22.72 0 0.56 0.53 0.87 0.87 0.87s1.76 0.01 2.43 0.01c0.42 0 0.89-0.38 0.89-0.87l0.01-10.3-0.01-7.61c0-0.03 0.01-0.48 0.01-0.76 0-0.15 0.14-0.24 0.24-0.24 0.07 0 0.11 0.02 0.18 0.07 0.58 0.49 14.54 17.93 15.66 19.32 0.25 0.31 0.51 0.39 0.74 0.39h1.22 1.19c0.28 0 0.41-0.09 0.59-0.22 0.12-0.09 0.31-0.39 0.31-0.6-0.02-0.75 0.01-3.52 0-8.8-0.03-8.63 0-16.88-0.01-17.38 0-0.13-0.05-0.38-0.23-0.57-0.18-0.21-0.43-0.3-0.64-0.3-0.33 0-1.92-0.01-2.43 0-0.21 0.01-0.39 0.05-0.58 0.22-0.2 0.18-0.31 0.4-0.31 0.66v7.94 10.74c0 0.05-0.06 0.16-0.14 0.19-0.13 0.04-0.24 0.03-0.33-0.11-0.41-0.64-14.91-18.45-15.67-19.32-0.2-0.25-0.45-0.34-0.7-0.34-0.29 0-2.12-0.01-2.38 0-0.21 0-0.46 0.08-0.64 0.26-0.16 0.15-0.27 0.37-0.27 0.65"/>
  <path d="m181.2 193.59h-2.3c-3.12-0.02-8.58 0-10.19 0.01-3.45 0.02-3.55 0.01-4.86 0.01-1.36 0-1.84 0.62-2.2 1.09-0.37 0.47-0.49 0.91-0.49 1.74 0 2.09-0.02 20.73-0.02 22.51 0 1.14 0.95 2.51 2.54 2.51 1.3 0 6.48-0.02 10-0.01 2.8 0 5.85-0.01 7.05-0.01 0.36 0 0.58-0.21 0.69-0.34 0.12-0.14 0.2-0.36 0.2-0.6 0-0.28 0.01-0.55 0.01-0.94v-1c0-0.24-0.05-0.5-0.3-0.73-0.24-0.22-0.44-0.23-0.59-0.23-1.44 0-2.99-0.02-4.16-0.03-1.23-0.01-5.92 0.02-8.25 0.01-1.86 0-2.18 0.08-2.62-0.23-0.45-0.33-0.3-1.17-0.3-2.79 0-2.07 0-4.1-0.01-5.71h10.9c0.16 0 1.28 0.01 2.05 0 0.28 0 0.54-0.16 0.64-0.26 0.16-0.18 0.22-0.36 0.25-0.52 0.08-0.48 0.18-0.98 0.25-1.48 0.08-0.51 0.14-0.81 0.18-1.09 0.04-0.23-0.2-0.47-0.44-0.46-0.28 0-0.37-0.01-0.83-0.01-0.39 0-9.31-0.01-13-0.01 0-2.28-0.01-5.1 0.01-6.7 0-0.38 0.15-0.56 0.3-0.7 0.15-0.12 0.35-0.22 0.57-0.22 0.25-0.01 0.49 0 0.78 0 1.15 0 3.06-0.01 4.37 0h8.93c0.17 0 0.43-0.05 0.63-0.27 0.21-0.22 0.21-0.42 0.31-1.05 0.12-0.68 0.26-1.39 0.34-1.96 0.04-0.28-0.17-0.54-0.44-0.53"/>
  <path d="m112.03 193.24c-7.81 0-14.114 6.53-14.114 14.47s6.314 14.37 14.124 14.37c7.82 0 14.18-6.43 14.18-14.37s-6.37-14.47-14.19-14.47zm0.02 4.07c5.42 0 9.75 4.33 9.75 10.23 0 5.81-4.29 10.44-9.74 10.44-5.52 0-9.71-4.54-9.71-10.44 0-5.95 4.21-10.23 9.7-10.23z"/>
 </g>
</svg>
