<?xml version="1.0" encoding="UTF-8" standalone="no"?>
<!-- Created with Inkscape (http://www.inkscape.org/) -->
<svg xmlns:rdf="http://www.w3.org/1999/02/22-rdf-syntax-ns#" xmlns="http://www.w3.org/2000/svg" height="206.11" width="600" version="1.1" xmlns:cc="http://creativecommons.org/ns#" xmlns:xlink="http://www.w3.org/1999/xlink" xmlns:dc="http://purl.org/dc/elements/1.1/">
 <defs></defs>
 <metadata>
  <rdf:RDF>
   <cc:Work rdf:about="">
    <dc:format>image/svg+xml</dc:format>
    <dc:type rdf:resource="http://purl.org/dc/dcmitype/StillImage"/>
    <dc:title/>
   </cc:Work>
  </rdf:RDF>
 </metadata>
 <g fill-rule="nonzero" transform="translate(-113.46924,-133.7121)">
  <path fill="#000" d="m154.85,245.31-14.965,0,0,21.74,14.965,0c7.255,0,11.476-5.2832,11.476-10.87,0-5.5866-4.2215-10.87-11.476-10.87m12.993,83.849-19.035-40.041-8.9234,0,0,40.041-26.416,0,0-107.56,42.594,0c23.863,0,36.705,16.911,36.705,34.581,0,14.662-9.075,23.863-17.518,28.11l23.256,44.87h-30.663z"/>
  <path fill="#000" d="m257.04,245.16,0,84.001-26.441,0,0-84.001-26.441,0,0-23.56,79.324,0,0,23.56-26.441,0z"/>
  <path fill="#000" d="m378.4,305.59-53.085,0,0-84.001-26.441,0,0,107.56,71.715,0,7.8111-23.56z"/>
  <path fill="#FD0" d="m712.9,208.95-39.485,0-43.328,130.87,39.46,0,43.353-130.87z"/>
  <path fill="#FD0" d="m633.96,208.95-26.315,0-43.353,130.87,26.315,0,43.353-130.87z"/>
  <path fill="#FD0" d="m555.02,208.95-13.17,0-43.353,130.87,13.17,0,43.353-130.87z"/>
  <path fill="#000" d="m419.57,339.81,26.315,0,39.182-118.23-79.071,0-8.2156,25.203,52.605,0-30.815,93.025z"/>
  <path fill="#000" d="m627.05,133.71,0,19.465,20.526,0,0-19.465,11.173,0,0,50.734-11.173,0,0-21.891-20.526,0,0,21.891-11.173,0,0-50.734,11.173,0z"/>
  <path fill="#000" d="m689.66,175.08c1.6178,0,3.1598-0.27806,4.7018-0.78364,1.5167-0.50557,2.8565-1.3903,4.0446-2.6037,1.1881-1.1881,2.1234-2.7806,2.8312-4.7271,0.70781-1.9212,1.0617-4.2974,1.0617-7.1033,0-2.5531-0.22751-4.8535-0.73308-6.9263-0.50558-2.0476-1.3145-3.8171-2.452-5.2832-1.1375-1.4662-2.629-2.6037-4.5249-3.3873-1.8706-0.78364-4.171-1.1628-6.9263-1.1628h-7.9628v31.977h9.9598zm0.78364-41.356c3.2609,0,6.3196,0.50557,9.1256,1.542,2.8312,1.0617,5.2579,2.629,7.3308,4.7018,2.0476,2.0981,3.6654,4.7018,4.8282,7.8111,1.1628,3.1346,1.7442,6.7999,1.7442,11.021,0,3.6907-0.48029,7.1033-1.4409,10.238-0.9353,3.1345-2.3762,5.8141-4.2721,8.1144-1.9212,2.2498-4.3226,4.0446-7.1791,5.3591-2.8818,1.2892-6.2438,1.9464-10.137,1.9464h-21.891v-50.734h21.891z"/>
 </g>
</svg>
