<?xml version="1.0" encoding="UTF-8" standalone="no"?>
<svg xmlns:rdf="http://www.w3.org/1999/02/22-rdf-syntax-ns#" xmlns="http://www.w3.org/2000/svg" height="188.41" width="600" version="1.1" xmlns:cc="http://creativecommons.org/ns#" xmlns:dc="http://purl.org/dc/elements/1.1/" viewBox="0 0 158.75 49.849277">
 <g transform="translate(-87.69 -138.27)" fill="#231f20">
  <path d="m193.51 174.86h-0.08l-1.1-0.04-2.65 0.04c-0.65 0-1.06-0.24-1.06-0.65l-0.04-0.96-0.08-0.41 0.04-0.65v-1.12l-0.04-1.61-0.08-0.82v-2.39l0.08-1.26-0.08-1.09 0.04-1.44 0.08-0.62-0.08-1.73 0.08-1.27v-1.47l0.04-0.47v-0.96c0-0.34 0.37-0.68 0.74-0.68h0.03l0.95 0.1 1.33 0.04 0.29-0.11 0.04 0.21 0.41 0.24 0.53-0.04 0.21 0.07v-0.24l0.2 0.14-0.08 0.24 0.16 0.13 0.04-0.1h0.17v0.1l0.16-0.03 0.28 0.24v0.2l-0.49 0.28 0.21 0.17 0.32-0.07v0.2l-0.2 0.04 0.2 0.13-0.24 0.07 0.08 0.21 0.16 0.24v0.1c0 0.07-0.08 0.1-0.2 0.13l0.12 0.21c0.57 0.03 0.7 0.17 0.78 0.85l0.08 0.79-0.12 0.72 0.12 0.85-0.04 0.55-0.12 1.36v0.51l0.16 0.18-0.04 0.34 0.04 1.06 0.04 3.24-0.08 1.47 0.08 1.64-0.04 0.68 0.04 1.67c0 0.51-0.45 0.79-1.39 0.79m0.29-20.62h-1.06l-0.16-0.17-0.13 0.17h-0.53l-1.5-0.24-0.41 0.17-0.41-0.2v0.17l-0.41-0.04c-0.41-0.03-0.53-0.13-0.53-0.44v-0.07l0.12-0.68 0.04-0.58-0.2-0.63 0.08-0.34v-0.92c0-0.24 0.37-0.48 0.74-0.48h0.04l0.53 0.1h0.29c0.24-0.14 1.45-0.17 1.58-0.17h1.43v0.21c0.12 0.06 0.12 0.13 0.12 0.17v0.06c-0.04 0.07-0.04 0.11-0.04 0.14v0.07l0.21 0.03c-0.09-0.13-0.13-0.17-0.13-0.24 0-0.1 0.13-0.17 0.33-0.17 0.08 0 0.2 0.04 0.28 0.07 0.09 0.07 0.13 0.1 0.13 0.14 0 0.1-0.13 0.13-0.33 0.13v0.21l0.33-0.21 0.04 0.18c0.32 0.03 0.41 0.06 0.41 0.13s-0.17 0.1-0.45 0.14v0.2h0.2v0.28l0.04 0.03c0.12 0.24 0.21 0.87 0.21 0.97 0 0.11-0.21 0.21-0.45 0.21h-0.04v0.2l0.12 0.21 0.12-0.11h0.21l-0.05 0.28 0.17 0.1-0.04 0.31-0.13 0.2 0.21 0.17-0.21-0.03-0.2-0.04-0.08 0.17-0.25-0.03v0.14l0.17 0.03v0.1l-0.29-0.06z"/>
  <path d="m141.78 178.47v-0.01c-0.73-1.23-1.12-3.09-1.17-5.53-0.14-0.21-0.02-0.53-0.09-1.6l-0.05-0.66 0.05-0.42-0.05-0.62 0.05-0.58v-0.54l-0.05-0.71v-3.15l-0.05-0.62v-1.08l0.05-0.42v-0.83l0.1-0.45-0.15-1.75v-2.28l-0.05-0.58v-0.83l0.05-0.46v-0.29l-0.1-0.7 0.05-0.46-0.05-0.46v-1.16l0.05-0.54-0.05-0.7v-0.63l-0.05-0.33 0.05-0.54-0.05-2.28 0.05-0.5-0.05-0.75v-0.58c0.1-0.08 0-0.25 0.08-0.48l0.16-0.47-0.21-0.05 0.29-0.33v-0.21l-0.08-0.12 0.08-0.1-0.01-0.96 0.02-2.59v-1.15l-0.34-0.63-0.85-0.07-3.79 1.3-1.49 0.52-1.03 0.36 0.06 0.17-0.19 0.16-0.31-0.07v0.2l0.2 0.03-0.2 0.13 0.24 0.07-0.08 0.19-0.16 0.23v0.09c0 0.07 0.08 0.1 0.2 0.13l-0.12 0.19c-0.34 0.02-0.98 0.32-1.08 0.52v1.95l0.01 0.24 0.16 8.91-0.01 0.42 0.02 0.13 0.14 0.76 0.06 1.63v3.1l0.29 2.47-0.29 0.69 0.05 0.89v0.69l-0.04 0.59-0.01 0.09 0.01 0.2 0.04 2.27-0.43 5.22c0 2.93 0.13 6.28 1.78 8.99 1.34 2.32 3.35 4.33 5.31 6.27 0.2 0.16 0.48 0.16 0.67-0.01 1.21-1.21 4.1-4.11 5.28-5.29 0.15-0.19 0.14-0.47-0.03-0.65-1.08-1.07-1.86-1.91-2.89-3.58"/>
  <path d="m102.22 152.81c0-0.1 0-0.19-0.01-0.28-0.02-0.23-0.07-0.41-0.15-0.56-0.49-0.1-0.71-0.15-1.37-0.21-0.44-0.05-0.54-0.05-0.54-0.26-0.06-0.1-0.06-0.1-0.06-0.16h0.27c0.93-0.1 1.21-0.21 1.21-0.42v-0.05l-0.17-0.16c-0.05-0.05-0.05-0.05-0.11-0.05-0.11-0.05-0.16-0.05-0.21-0.05l-0.99-0.11h-2.351c-0.916 0-1.762 0.09-2.545 0.24h-0.009 0.001c-5.154 1.03-7.496 5.17-7.496 9.29v1.47l0.038 3.07 0.039 1-0.039 0.32 0.154 0.16v0.48l-0.115 1.3-0.039 0.96 0.116 0.81-0.116 0.68 0.315 0.74c0.077 0.64 0.193 0.77 0.734 0.8l0.116 0.2c-0.116 0.03-0.193 0.07-0.193 0.13v0.1l0.152 0.22 0.078 0.19-0.23 0.07 0.193 0.13-0.193 0.03v0.2l0.307-0.07 0.192 0.16-0.461 0.26v0.19l0.269 0.23 0.154-0.03v0.09h0.154l0.04-0.09 0.152 0.12-0.076 0.23 0.194 0.13v-0.23l0.192 0.07 0.263-0.03 0.155 0.22 0.038 0.2 0.271-0.1 0.309 0.03 0.655 0.1h4.63c0.143 0 0.271-0.06 0.361-0.16l-0.064-0.62 0.116-0.67-0.116-0.81 0.039-0.97 0.115-1.29v-0.48l-0.392-0.17 0.039-0.32-0.039-1 0.199-3.06 0.078-1.39-0.078-1.55 0.039-0.88 0.198-1.34c0-0.23 0.098-0.4 0.288-0.53 0.453-1.02 1.425-1.59 2.787-1.59h2.112c0.22-0.05 0.39-0.25 0.39-0.49v-0.71l0.01 0.01 0.11-1.47z"/>
  <path d="m123.29 174.44c-1.89-1.44-3.26-3.51-3.81-5.89-0.17-0.17-0.24-0.3-0.25-0.4 0-0.04 0.04-0.06 0.03-0.11-0.08-0.08 0.07-0.2 0.06-0.36l-0.1-0.41-0.02-0.44 0.03-0.09v-0.01-0.12l-0.05-0.88-0.01-0.25v-0.03c0-0.04-0.01-0.13 0.03-0.18l-0.01-0.09v-0.12l-0.21-0.11v-0.07-0.03l-0.19-0.18 0.02-0.37 0.07-0.13 0.34-0.34v-0.1l-0.03-0.08 0.03-0.15v-0.33-0.54l-0.43-0.38 0.19-0.12v-0.2l0.22-0.37-0.01-0.24-0.02-0.25-0.04-0.79-0.01-0.26 0.03-0.14-0.05-0.18 0.02-0.37c-0.04-0.08-0.04-0.12-0.04-0.19-0.01-0.17 0.02-0.4 0.14-0.63v-0.3c0-0.23 0.15-0.41 0.35-0.47h0.73c0.23-0.06 0.61-0.05 1.07 0h2.93c0.17 0 0.32-0.09 0.41-0.22l-0.05-0.28 0.14-0.8v-1.98l-0.67-0.16 0.12-0.19 0.03-0.3-0.15-0.09 0.04-0.26h-0.2l-0.11 0.1-0.12-0.2v-0.19h0.04c0.23 0 0.42-0.1 0.42-0.2 0-0.09-0.07-0.29-0.19-0.51l-0.04-0.03v-0.26h-0.19v-0.2c0.27-0.03 0.42-0.06 0.42-0.12 0-0.07-0.07-0.1-0.38-0.13l-0.04-0.16-0.31 0.19v-0.19c0.2 0 0.31-0.04 0.31-0.13 0-0.03-0.04-0.07-0.11-0.13-0.08-0.03-0.2-0.07-0.27-0.07-0.2 0-0.31 0.07-0.31 0.17 0 0.06 0.04 0.09 0.11 0.22l-0.19-0.03v-0.07c0-0.03 0-0.06 0.04-0.12v-0.07c0-0.03 0-0.1-0.12-0.16v-0.67h-3.23c-0.27 0-0.48-0.22-0.48-0.49v-6.8c0-0.28-0.24-0.58-0.5-0.5l-7.51 2.73c-0.18 0.08-0.3 0.25-0.3 0.45l-0.07 4.12h-0.01c0 0.27-0.21 0.49-0.48 0.49h-2.81c-0.27 0.01-0.48 0.23-0.48 0.49v6.25c0 0.27 0.22 0.49 0.49 0.5h0.02c0.1-0.09 0.26-0.14 0.42-0.14h0.03l0.37 0.09 0.03 0.01c0.18-0.09 0.32-0.11 0.41-0.11l0.63 0.03 0.2 0.01v0.11h0.14c0.12 0 0.46 0.05 0.54 0.12 0.03 0.01 0.07 0.03 0.09 0.04 0.06 0.05 0.09 0.07 0.08 0.1 0 0.03-0.01 0.04-0.04 0.06 0.01 0.01 0.01 0.03 0.02 0.05l0.02-0.02 0.02 0.13c0.23 0.03 0.29 0.06 0.29 0.11-0.01 0.04-0.11 0.06-0.31 0.08v0.14l0.12 0.01-0.01 0.19 0.03 0.03c0.08 0.17 0.13 0.31 0.13 0.39 0 0.06-0.12 0.12-0.27 0.12v0.29l0.08-0.06 0.14 0.01-0.04 0.19 0.12 0.08-0.04 0.21-0.09 0.14-0.11 0.13 0.1-0.03-0.14-0.03-0.25 0.02v6.76c0 5.65 3.05 10.56 7.53 13.07 0.18 0.09 0.4 0.06 0.56-0.08l4.93-4.87c0.18-0.19 0.18-0.49-0.01-0.68z"/>
  <path d="m186.05 156.5-0.05-1.92c-0.06-2.31-2.53-4.36-5.33-4.36-1.34 0-1.83 0.27-3.13 1.02l-0.32 0.09-0.21-0.67-0.54-0.44h-4.09c-1.19 0-1.83 0.4-1.83 1.11l-0.06 1.43-0.1 2 0.1 2.85-0.1 0.49 0.1 0.93-0.1 0.98v0.54l0.1 0.58v0.53l0.06 2.09-0.06 1.34 0.06 0.62v1.38l-0.06 1.6 0.06 0.85v1.47l-0.06 0.58 0.06 0.13v1.82l0.32 0.66c0.05 0.09 0.22 0.18 0.54 0.31 0.48 0.18 0.86 0.27 1.4 0.27h0.27l1.07-0.04 1.4 0.04c0.06-0.04 0.11-0.09 0.11-0.13 0.05-0.05 0.05-0.05 0.11-0.09l0.05-0.05 0.06-0.04c0.05 0 0.21-0.09 0.43-0.18 0.16-0.09 0.32-0.13 0.37-0.22h0.06l0.1-0.49 0.11-0.36 0.06-0.52 0.05-0.22v-1.07l-0.16-0.49v-0.76l0.05-0.49-0.05-0.71v-2.45l0.05-0.4-0.05-1.51v-1.43l0.05-0.22-0.05-1.42 0.05-0.67v-1.6l-0.05-1.43 0.05-0.89 0.43-0.49c0.06-0.11 0.16-0.21 0.28-0.28l-0.03-0.23 0.32 0.02h0.03c0.05 0 0.1 0 0.15 0.01l0.28 0.01 0.27-0.11 0.04 0.22 0.39 0.25 0.5-0.04 0.19 0.07v-0.25l0.19 0.14-0.08 0.26 0.16 0.14 0.03-0.11h0.16v0.11l0.15-0.04 0.27 0.26v0.21l-0.46 0.29 0.19 0.18 0.31-0.08v0.22l-0.19 0.04 0.19 0.14-0.23 0.07 0.08 0.22 0.15 0.25v0.11c0 0.07-0.08 0.11-0.19 0.14l0.11 0.22c0.54 0.03 0.66-0.07 0.73 0.65l0.04 0.4c0.02 0 0.04 0.01 0.07 0.01 0.91-0.09 1.61 0.11 2.1 0.06 2.04-0.17 2.47-0.4 2.47-1.42v-1.07l-0.05-0.53z"/>
  <path d="m206.84 150.93c-0.23 0.13-0.77 0.54-1.15 0.85l-0.27-0.18v-0.54l-0.22-0.58-0.54-0.05-4.33-0.04-0.76 0.04-0.33 0.36v0.45l-0.05 1.31v9.04l0.05 2.92-0.05 1.12 0.05 0.09 0.06 0.77v3.51l0.05 1.21-0.05 0.59 0.05 0.36 0.11 1.44c0.05 0.49 0.05 0.81 0.11 0.85 0 0.09 0.05 0.14 0.11 0.18 0.16 0.14 0.54 0.23 1.19 0.23h1.25l3.41-0.05 0.33-0.22 0.11-0.32v-0.45l-0.11-0.49v-0.36l-0.06-1.8-0.05-0.45-0.06-0.5-0.05-1.8-0.06-1.71 0.11-0.18-0.05-0.4v-0.9l0.11-0.13-0.11-0.32-0.06-0.63-0.1-1.48v-1.22l0.1-0.63-0.16-0.85v-0.77l0.06-1.21v-0.09c0-0.86 0.54-1.53 1.25-1.53h1.29l1.31 0.49 0.11 0.59-0.06 0.18 0.22 0.13v4.59l0.05 1.17-0.05 1.49 0.05 1.61v1.58l-0.05 1.35 0.05 0.13v0.99l0.06 0.68v2.56l0.05 0.23c0.11 0.53-0.07 0.63 0.31 0.63h1.54l0.11 0.04h0.47c0.09-0.08 0.15-0.12 0.21-0.13 0.16-0.04 0.25 0.02 0.3 0.13h0.38l-0.41-0.19 0.33-0.11c0-0.32 0.05-0.41 0.19-0.44 0.13-0.03 0.23 0.11 0.36 0.36l0.4-0.08-0.04-0.19 0.54-0.12 0.07-0.05c0.44-0.22 0.12-0.38 0.32-0.42s0.45 0.1 0.5 0.33v0.04l0.11-0.03-0.04-1.39v-0.59l-0.11-1.98 0.05-0.09-0.05-0.31 0.05-0.45-0.11-2.12v-0.09l0.06-1.52-0.06-0.41v-1.84l-0.05-0.54-0.11-0.59 0.11-0.58v-0.59l-0.11-0.45v-0.85l0.27-0.59-0.16-0.4 0.05-0.36v-0.5l0.06-0.31c0.16-0.81 0.96-1.13 1.72-1.13 0.11 0 0.64 0 0.75 0.05l0.44 0.13c0.54 0.63 0.81 1.22 0.81 1.71v0.23c0 0.09 0 0.13-0.05 0.18v0.76l0.05 0.77-0.05 0.85 0.05 1.31-0.05 0.58 0.05 0.54-0.22 0.68 0.11 0.45v1.16l0.06 0.77-0.06 0.76v1.58l-0.11 0.27 0.11 0.18v0.13l-0.11 3.54 0.08-0.07-0.03 0.21-0.03 0.2 0.36 0.01-0.02 0.24 0.27-0.06 0.03-0.16 0.21-0.05-0.08 0.3 0.3-0.02 0.12 0.32-0.47-0.18 0.21 0.99-0.3 0.23 0.22 0.02 1.09-0.03 2.92 0.05 1.36-0.23 0.27-0.45v-5.13l0.11-0.31-0.06-0.99 0.11-0.72 0.11-0.36v-0.05c0-0.13-0.05-0.22-0.27-0.26v-0.77l0.11-0.32-0.11-0.26 0.22-0.68-0.28-0.18 0.17-0.76-0.11-0.72 0.11-0.86-0.17-0.36 0.17-0.09-0.11-1.17v-0.54l0.16-0.58-0.16-0.41v-0.45l0.11-0.09v-2.97c-0.28-0.62-0.44-1.07-0.55-1.39-0.32-0.99-0.43-1.12-0.59-1.26-0.11-0.04-0.11-0.09-0.17-0.13-0.81-1.26-2.1-1.98-3.89-1.98-2.29 0-4.34 0.58-5.32 1.84-0.11 0.18-0.16 0.32-0.22 0.36-0.1 0.18-0.21 0.27-0.27 0.27-0.05 0 0.13 0 0.08-0.04l-0.06-0.05h-0.05l-0.27-0.45c-0.87-0.81-1.14-1.03-1.63-1.3-0.6-0.41-1.47-0.59-2.67-0.59-1.33 0.06-1.33 0.06-1.71 0.1-0.49 0.06-1.04 0.27-1.26 0.4"/>
  <path d="m150.54 156.48-0.06 1.03 0.11 0.54-0.11 0.27 0.11 1.76h-0.16l0.11 0.4v2.66l-0.11 0.18 0.11 0.27v5.44c0 2.92 3.1 5.76 6.31 5.76h3.15c3.31 0 6.35-2.45 6.88-5.33 0.05-0.29 0.08-0.58 0.08-0.88v-0.68c-0.11-0.06-0.25-0.09-0.45-0.1l-0.13-0.2c0.13-0.04 0.21-0.07 0.21-0.14v-0.1l-0.17-0.24-0.08-0.2 0.25-0.07-0.21-0.14 0.21-0.03v-0.21l-0.33 0.07-0.2-0.17 0.49-0.27v-0.21l-0.29-0.24-0.16 0.03v-0.1h-0.16l-0.05 0.1-0.16-0.13 0.08-0.24-0.09-0.07-0.11-0.07v0.07l-1.03-0.03h-0.01l-1.76 0.13-0.8-0.03-0.27 0.09c-0.16 0-0.23-0.08-0.34-0.06-0.28 0.08-0.5 0.36-0.5 0.74l0.06 0.18-0.1 0.93c0 1.8-1.02 2.6-2.27 2.6-0.77 0-1.53-0.49-1.53-1.03l-0.05-1.48 0.16-0.27-0.16-0.32-0.11-2.16v-0.76l0.16-0.18-0.05-0.41-0.06-4.9 0.11-0.36-0.11-0.81 0.22-0.9 0.38-0.13v-0.45l0.17-0.14 0.81-0.13h0.16c0.83 0 1.83 0.5 1.93 1.44l-0.01 0.06h0.01l0.15 0.1-0.04 0.27h0.21l0.12-0.1 0.12 0.2 0.24 0.21h-0.04c-0.25 0-0.45 0.1-0.45 0.2 0 0.11 0.08 0.31 0.2 0.55l0.04 0.03v0.28h0.21v0.2c-0.29 0.04-0.45 0.07-0.45 0.14s0.08 0.1 0.41 0.13l0.04 0.18 0.33-0.21v0.21c-0.21 0-0.33 0.03-0.33 0.13 0 0.02 0.01 0.03 0.02 0.05 0.02 0.02 0.06 0.05 0.1 0.09 0.08 0.03 0.21 0.07 0.29 0.07 0.18 0 0.29-0.06 0.31-0.14h0.05 0.05 0.76l1.77-0.09 0.54-0.05c0.4-0.03 0.69-0.06 0.9-0.08 0.37-0.05 0.5-0.1 0.57-0.18 0.16-0.14 0.16-0.28 0.16-0.68v-0.18l-0.1-2.34c-0.06-0.85-0.33-2.02-0.66-2.61-0.21-0.45-0.7-0.9-1.46-1.48-1.36-0.99-2.56-1.53-3.38-1.62h-0.05c-0.05 0-0.11 0-0.16-0.05-0.17 0-0.33 0-0.66-0.04-0.54-0.05-0.92-0.09-1.14-0.09h-0.87l-1.41 0.04c-1.74 0.05-3.36 0.76-4.57 1.71-1.07 0.85-1.9 2.24-1.9 3.34z"/>
  <path d="m246.44 160.31c0-0.13-0.05-0.27-0.12-0.38v-0.14-0.18l-0.11-3.76c-0.05-0.85-0.32-2.02-0.65-2.61-0.22-0.45-0.71-0.9-1.47-1.48-1.36-0.99-2.55-1.53-3.37-1.62h-0.05c-0.06 0-0.11 0-0.17-0.05-0.16 0-0.32 0-0.65-0.04-0.54-0.05-0.92-0.09-1.14-0.09h-0.87l-1.42 0.04c-1.74 0.05-3.35 0.76-4.56 1.71-1.08 0.85-1.9 2.24-1.9 3.34l-0.01 1.43-0.05 1.04 0.11 0.53-0.11 0.27 0.11 1.76h-0.16l0.1 0.4v2.66l-0.1 0.18 0.1 0.27v5.44c0 2.92 3.1 5.76 6.31 5.76h3.16c3.3 0 6.34-2.45 6.87-5.33 0.06-0.29 0.09-0.58 0.09-0.88v-0.21c-0.11-0.05-0.26-0.08-0.46-0.09l-0.12-0.21c0.12-0.03 0.2-0.07 0.2-0.14v-0.1l-0.16-0.24-0.08-0.2 0.24-0.07-0.2-0.14 0.2-0.03v-0.21l-0.32 0.07-0.21-0.17 0.49-0.27v-0.2l-0.28-0.24-0.17 0.03v-0.1h-0.16l-0.04 0.1-0.16-0.13 0.08-0.25-0.1-0.06-0.11-0.07v0.07l-1.03-0.04h-0.01l-1.75 0.14-0.81-0.04-0.27 0.09c-0.16 0-0.23-0.08-0.33-0.05-0.29 0.07-0.5 0.36-0.5 0.73l0.05 0.18-0.1 0.93c0 1.8-1.02 2.13-2.27 2.13-0.76 0-1.52-0.49-1.52-1.03l-0.06-1.48 0.17-0.27-0.17-0.32-0.1-2.16v-0.76l0.16-0.18-0.02-0.13 0.46-0.02 0.34 0.04 0.17-0.16h0.51l1.37 0.12 1.02 0.04 0.85-0.12 0.72 0.12 0.79-0.08c0.68-0.08 0.82-0.2 0.85-0.78l0.2-0.12c0.04 0.12 0.07 0.21 0.14 0.21h0.1l0.24-0.17 0.21-0.08 0.06 0.25 0.14-0.21 0.04 0.21h0.2l-0.07-0.33 0.17-0.2 0.28 0.49h0.2l0.24-0.29-0.03-0.16h0.1v-0.16l-0.1-0.05 0.13-0.16 0.24 0.08 0.14-0.2h-0.24l0.07-0.21-0.04-0.05 0.24-0.41 0.21-0.05-0.11-0.28 0.14-0.38zm-6.59-0.77-1.09-0.09-1.43-0.04-0.95 0.07-0.01-1.2 0.11-0.36-0.11-0.81 0.22-0.9 0.38-0.14v-0.44l0.16-0.14 0.82-0.13h0.16c0.82 0 1.82 0.5 1.92 1.44v0.06h0.01l0.15 0.1-0.04 0.27h0.2l0.13-0.1 0.12 0.2 0.23 0.21h-0.04c-0.24 0-0.44 0.1-0.44 0.2 0 0.09 0.05 1.26 0.14 1.77z"/>
 </g>
</svg>
