<?xml version="1.0" encoding="UTF-8" standalone="no"?>
<svg xmlns:rdf="http://www.w3.org/1999/02/22-rdf-syntax-ns#" xmlns="http://www.w3.org/2000/svg" xmlns:cc="http://creativecommons.org/ns#" xmlns:dc="http://purl.org/dc/elements/1.1/" height="134.53" width="600" version="1.1">
  <defs>
    <linearGradient id="d" gradientUnits="userSpaceOnUse" gradientTransform="matrix(-8.2159e-7 27.588 -23.878 -9.4923e-7 402.16 6.1453)" x1="0" x2="1" y1="0" y2="0">
      <stop stop-color="#f37921" offset="0"/>
      <stop stop-color="#dd1f26" offset=".84375"/>
      <stop stop-color="#dd1f26" offset="1"/>
    </linearGradient>
    <linearGradient id="e" gradientUnits="userSpaceOnUse" gradientTransform="matrix(-.0000046894 -134.52 110.76 -.0000056954 409.2 134.52)" x1="0" x2="1" y1="0" y2="0">
      <stop stop-color="#881719" offset="0"/>
      <stop stop-color="#db1f2b" offset=".49479"/>
      <stop stop-color="#db1f2b" offset="1"/>
    </linearGradient>
    <linearGradient id="f" gradientUnits="userSpaceOnUse" gradientTransform="matrix(-9.4923e-7 27.587 -27.587 -9.4923e-7 123.78 6.147)" x1="0" x2="1" y1="0" y2="0">
      <stop stop-color="#505356" offset="0"/>
      <stop offset=".84375"/>
      <stop offset="1"/>
    </linearGradient>
  </defs>
  <path d="m285.41 120.39c0 7.8-5.77 14.14-12.9 14.14h-259.61c-7.1287 0-12.9-6.34-12.9-14.14v-106.26c0-7.8081 5.7713-14.13 12.9-14.13h259.61c7.13 0 12.9 6.3219 12.9 14.125v106.26z"/>
  <path fill="url(#f)" d="m16.612 6.1501c-5.506 0-9.9576 6.1799-9.9576 13.783 0 7.632 4.4516 13.801 9.9576 13.801h214.35c5.5 0 9.96-6.171 9.96-13.801-0.42-1.253-0.17-13.783-9.96-13.783l-214.35-0.0002z"/>
  <path fill="url(#e)" d="m229.06 0.00855c-5.86 0-10.62 6.322-10.62 14.115v120.4h370.93c5.87 0 10.63-6.33 10.63-14.12v-120.39l-370.94-0.00112z"/>
  <path fill="url(#d)" d="m220.38 6.1501c-1.25 2.2687-1.96 5.0119-1.96 7.9739v19.611h377.01v-27.586h-375.05z"/>
  <path fill="#ed332a" d="m73.687 79.956c0 11.373-7.414 19.64-22.488 21.274-10.907 1.17-26.693-0.21-34.21-1.07-0.247-1.219-0.455-2.748-0.455-3.962 0-9.891 5.325-12.179 10.355-12.179 5.231 0 13.451 0.912 19.545 0.912 6.75 0 8.781-2.288 8.781-4.462 0-2.848-2.696-4.015-7.917-5.03l-14.315-2.743c-11.884-2.278-18.225-10.51-18.225-19.231 0-10.614 7.509-19.497 22.279-21.122 11.172-1.214 24.766 0.152 32.236 1.074 0.247 1.262 0.409 2.476 0.409 3.805 0 9.891-5.231 12.028-10.252 12.028-3.864 0-9.854-0.713-16.706-0.713-6.948 0-9.845 1.927-9.845 4.263 0 2.486 2.735 3.502 7.101 4.261l13.66 2.544c14.012 2.583 20.047 10.556 20.047 20.353m24.5 12.179c0 6.094-2.392 9.593-14.268 9.593-1.575 0-2.941-0.1-4.261-0.3v-80.705c0-6.142 2.079-12.539 14.058-12.539 1.528-0.0002 3.047 0.1516 4.471 0.4554v83.496zm48.543 31.223c1.58 0.8 4.77 1.77 8.78 1.88 6.92 0.15 10.68-2.49 13.46-8.69l36.99-82.525c-1.52-0.817-4.92-1.728-7.66-1.775-4.77-0.104-11.17 0.854-15.23 10.603l-11.98 28.269-23.49-38.265c-1.52-0.455-5.24-1.12-7.92-1.12-8.32 0-12.94 3.048-17.76 8.269l-22.846 24.974 18.376 28.941c3.41 5.279 7.87 7.969 15.12 7.969 4.78 0 8.74-1.12 10.57-1.979l-22.14-33.356 15.69-16.65 25.74 40.41-15.68 33.045z"/>
  <g fill="#fff">
    <path d="m293.65 90.414c-1.76 1.888-3.58 3.569-5.46 5.059s-3.95 2.771-6.17 3.845c-2.24 1.072-4.7 1.882-7.34 2.432-2.68 0.55-5.66 0.82-8.97 0.82-4.99 0-9.62-0.9-13.91-2.72-4.29-1.814-7.98-4.291-11.09-7.443-3.11-3.142-5.55-6.864-7.31-11.135-1.75-4.29-2.63-8.865-2.63-13.726v-0.199c0-4.86 0.88-9.417 2.63-13.669 1.76-4.253 4.2-7.983 7.31-11.191 3.11-3.209 6.84-5.744 11.19-7.594 4.34-1.852 9.14-2.772 14.4-2.772 3.25 0 6.16 0.257 8.76 0.779 2.59 0.521 4.96 1.233 7.1 2.145 2.15 0.91 4.13 2.012 5.94 3.303 1.82 1.3 3.49 2.724 5.07 4.281l-9.54 11.002c-2.67-2.402-5.38-4.281-8.13-5.648-2.77-1.358-5.85-2.041-9.29-2.041-2.87 0-5.51 0.55-7.94 1.652-2.43 1.11-4.52 2.629-6.28 4.575-1.74 1.945-3.11 4.204-4.08 6.768-0.98 2.553-1.46 5.297-1.46 8.22v0.19c0 2.924 0.48 5.676 1.46 8.278 0.97 2.591 2.31 4.859 4.04 6.806 1.71 1.956 3.8 3.492 6.22 4.631 2.43 1.131 5.12 1.7 8.04 1.7 3.89 0 7.18-0.731 9.87-2.193 2.7-1.461 5.37-3.389 8.03-5.79l9.54 9.635z"/>
    <path d="m296.57 33.289h14.98v68.121h-14.98v-68.121z"/>
    <path d="m366.64 101.41-32.99-43.307v43.307h-14.79v-68.118h13.81l31.93 41.937v-41.937h14.79v68.118h-12.75z"/>
    <path d="m386.01 101.41v-68.118h51.27v13.327h-36.48v13.82h32.11v13.327h-32.11v14.305h36.98v13.339h-51.77z"/>
    <path d="m496.75 101.41v-44.475l-19.28 29.095h-0.38l-18.89-28.8v44.18h-14.79v-68.118h16.16l17.9 28.799 17.91-28.799h16.16v68.118h-14.79z"/>
    <path d="m548.23 50.808-9.06 22.088h18.11l-9.05-22.088zm20.62 50.602-6.23-15.283h-28.81l-6.21 15.283h-15.28l29.18-68.609h13.83l29.2 68.609h-15.68z"/>
  </g>
</svg>
