<?xml version="1.0" encoding="UTF-8" standalone="no"?>
<svg xmlns:rdf="http://www.w3.org/1999/02/22-rdf-syntax-ns#" xmlns="http://www.w3.org/2000/svg" xmlns:cc="http://creativecommons.org/ns#" xmlns:dc="http://purl.org/dc/elements/1.1/" height="121.82" width="600" version="1.1">
  <defs>
    <linearGradient id="b" gradientUnits="userSpaceOnUse" gradientTransform="matrix(0 21.077 -21.077 0 203.11 5.574)" x1="0" x2="1" y1="0" y2="0">
      <stop stop-color="#58595b" offset="0"/>
      <stop offset=".84375"/>
      <stop offset="1"/>
    </linearGradient>
    <linearGradient id="c" gradientUnits="userSpaceOnUse" gradientTransform="matrix(0 -60.268 27.595 0 196.34 121.81)" x1="0" x2="1" y1="0" y2="0">
      <stop stop-color="#930d10" offset="0"/>
      <stop stop-color="#de2027" offset=".49479"/>
      <stop stop-color="#de2027" offset="1"/>
    </linearGradient>
    <linearGradient id="d" gradientUnits="userSpaceOnUse" gradientTransform="matrix(0 21.077 -9.5452 0 457.58 5.574)" x1="0" x2="1" y1="0" y2="0">
      <stop stop-color="#e26d26" offset="0"/>
      <stop stop-color="#d81f26" offset=".84375"/>
      <stop stop-color="#d81f26" offset="1"/>
    </linearGradient>
    <linearGradient id="a" gradientUnits="userSpaceOnUse" gradientTransform="matrix(0 21.023 -21.023 0 596.88 5.5866)" x1="0" x2="1" y1="0" y2="0">
      <stop stop-color="#58595b" offset="0"/>
      <stop offset=".84375"/>
      <stop offset="1"/>
    </linearGradient>
  </defs>
  <path d="m209.5 0.0087692h-197.82c-6.448 0-11.68 5.7212-11.68 12.785v96.216c0 7.07 5.232 12.8 11.681 12.8h186.14v-109.02c0-7.062 5.23-12.783 11.68-12.783"/>
  <path fill="url(#b)" d="m15.038 5.5807c-4.981 0-9.0085 5.5833-9.0085 12.484 0 6.9 4.0275 12.496 9.0085 12.496h182.79v-17.766c0-2.673 0.75-5.157 2.04-7.2146h-184.84z"/>
  <path fill="url(#c)" d="m203.18 0.010023c-2.95 0-5.35 5.7214-5.35 12.785v109.02l260.22-0.02v-109.19c0-6.9734 2.38-12.444 5.28-12.595l-260.16 0.000423z"/>
  <path fill="url(#d)" d="m198.76 5.5807c-0.58 2.0576-0.92 4.5423-0.92 7.2143v17.766h257.38v-17.954c0-0.577 0.02-1.154 0.05-1.719l0.03-0.414c0.08-1.104 0.21-2.1579 0.41-3.1491 0.02-0.1129 0.05-0.2258 0.06-0.3388 0.11-0.4767 0.22-0.9535 0.34-1.4052h-257.35z"/>
  <path d="m132.86 111.7c1.43 0.73 4.32 1.61 7.96 1.69 6.24 0.14 9.64-2.24 12.18-7.85l33.5-74.728c-1.38-0.74-4.46-1.569-6.94-1.606-4.33-0.101-10.11 0.778-13.79 9.598l-10.83 25.599-21.29-34.641c-1.37-0.427-4.73-1.016-7.16-1.016-7.54 0-11.72 2.76-16.09 7.49l-20.687 22.609 16.637 26.197c3.09 4.781 7.13 7.215 13.7 7.215 4.32 0 7.91-1.004 9.56-1.794l-20.05-30.188 14.2-15.081 23.3 36.586-14.2 29.92zm-43.964-28.263c0 5.508-2.158 8.682-12.91 8.682-1.418 0-2.66-0.088-3.852-0.276v-73.073c0-5.558 1.882-11.355 12.722-11.355 1.38 0.0003 2.76 0.1383 4.04 0.4144v75.607zm-22.17-11.028c0 10.288-6.712 17.779-20.363 19.259-9.874 1.054-24.177-0.189-30.978-0.966-0.226-1.105-0.414-2.485-0.414-3.589 0-8.958 4.818-11.028 9.372-11.028 4.743 0 12.184 0.828 17.704 0.828 6.11 0 7.942-2.07 7.942-4.04 0-2.584-2.435-3.638-7.165-4.554l-12.96-2.486c-10.766-2.07-16.499-9.51-16.499-17.414 0-9.611 6.801-17.654 20.175-19.122 10.113-1.104 22.422 0.138 29.184 0.967 0.225 1.141 0.363 2.245 0.363 3.45 0 8.958-4.73 10.89-9.284 10.89-3.488 0-8.921-0.652-15.119-0.652-6.286 0-8.908 1.756-8.908 3.864 0 2.258 2.471 3.174 6.424 3.864l12.371 2.296c12.685 2.347 18.155 9.561 18.155 18.432" fill="#d81f26"/>
  <path d="m599.91 109.02c0 7.06-5.23 12.8-11.68 12.8h-152.52v-109.21c0-7.0644 5.32-12.61 11.78-12.61h152.51l-0.09 109.02z"/>
  <path fill="url(#a)" d="m437.69 5.5929c-1.24 1.9949-1.97 4.404-1.97 7.0141v17.891h157.91v-24.905l-155.94-0.0004z"/>
  <g fill="#fff">
    <path d="m496.71 91.583v-26.8h-33.45v26.8h-14.52v-62.068h14.52v25.407h33.45v-25.407h14.52v62.068h-14.52z"/>
    <path d="m581.55 83.211c-5.9 6.612-14.75 8.368-30 8.368h-30.49v-62.068h30.37c15.24 0 24.11 1.857 30.01 8.469 4.3 4.843 5.41 10.414 5.41 22.622 0 12.183-1 17.767-5.3 22.61m-30.86-43.926h-15.37v42.433h15.49c16.49 0 21.53-0.653 21.53-21.117 0-20.476-5.17-21.316-21.65-21.316"/>
    <path d="m267.14 82.015c-1.61 1.719-3.28 3.275-5 4.642-1.73 1.368-3.61 2.535-5.67 3.513-2.04 0.992-4.29 1.732-6.72 2.234-2.45 0.514-5.18 0.765-8.21 0.765-4.58 0-8.83-0.841-12.76-2.497-3.92-1.669-7.31-3.939-10.17-6.825-2.85-2.886-5.08-6.286-6.69-10.213s-2.41-8.118-2.41-12.585v-0.175c0-4.467 0.8-8.633 2.41-12.534 1.61-3.89 3.84-7.315 6.69-10.264 2.86-2.936 6.27-5.257 10.26-6.951 3.98-1.694 8.38-2.547 13.2-2.547 2.97 0 5.65 0.239 8.03 0.716 2.38 0.476 4.55 1.129 6.51 1.969 1.97 0.829 3.78 1.845 5.45 3.024 1.65 1.192 3.21 2.497 4.64 3.927l-8.75 10.088c-2.44-2.208-4.93-3.927-7.45-5.182-2.52-1.242-5.37-1.869-8.52-1.869-2.61 0-5.04 0.502-7.26 1.518-2.24 1.004-4.15 2.409-5.76 4.19-1.61 1.782-2.85 3.852-3.75 6.198-0.89 2.347-1.33 4.856-1.33 7.541v0.176c0 2.672 0.44 5.207 1.33 7.578 0.9 2.384 2.13 4.466 3.7 6.248 1.58 1.782 3.49 3.2 5.72 4.241 2.22 1.041 4.68 1.556 7.35 1.556 3.58 0 6.59-0.665 9.06-2.008 2.46-1.342 4.92-3.099 7.35-5.307l8.75 8.833z"/>
    <path d="m323.43 64.887c0 4.705-0.64 8.82-1.92 12.359-1.28 3.538-3.11 6.474-5.48 8.832-2.39 2.347-5.26 4.103-8.61 5.257-3.36 1.155-7.15 1.744-11.38 1.744-8.38 0-14.98-2.333-19.8-7.001-4.82-4.667-7.22-11.58-7.22-20.739v-35.683h13.73v35.32c0 5.119 1.2 8.971 3.57 11.555 2.38 2.585 5.68 3.877 9.9 3.877 4.23 0 7.52-1.242 9.91-3.739 2.37-2.497 3.56-6.248 3.56-11.242v-35.77h13.74v35.231z"/>
    <path d="m329.32 92.095v-62.445h13.74v50.048h31.13v12.396h-44.87z"/>
    <path d="m404.69 42.319v49.772h-13.74v-49.772h-18.99v-12.672h51.73v12.672h-19z"/>
  </g>
</svg>
