<?xml version="1.0" encoding="UTF-8" standalone="no"?>
<svg xmlns:rdf="http://www.w3.org/1999/02/22-rdf-syntax-ns#" xmlns="http://www.w3.org/2000/svg" xmlns:cc="http://creativecommons.org/ns#" xmlns:dc="http://purl.org/dc/elements/1.1/" height="179.95" width="600" version="1.1">
  <defs>
    <linearGradient id="a" gradientUnits="userSpaceOnUse" gradientTransform="matrix(0 36.906 -13.381 0 440.27 8.2222)" x1="0" x2="1" y1="0" y2="0">
      <stop stop-color="#f37921" offset="0"/>
      <stop stop-color="#dd1f26" offset=".84375"/>
      <stop stop-color="#dd1f26" offset="1"/>
    </linearGradient>
    <linearGradient id="b" gradientUnits="userSpaceOnUse" gradientTransform="matrix(0 -179.94 65.626 0 446.18 179.95)" x1="0" x2="1" y1="0" y2="0">
      <stop stop-color="#881719" offset="0"/>
      <stop stop-color="#db1f2b" offset=".49479"/>
      <stop stop-color="#db1f2b" offset="1"/>
    </linearGradient>
    <linearGradient id="c" gradientUnits="userSpaceOnUse" gradientTransform="matrix(0 36.906 -36.906 0 165.66 8.2222)" x1="0" x2="1" y1="0" y2="0">
      <stop stop-color="#505456" offset="0"/>
      <stop offset=".84375"/>
      <stop offset="1"/>
    </linearGradient>
  </defs>
  <path d="m381.94 161.05c0 10.43-7.72 18.9-17.27 18.9h-347.42c-9.5128 0-17.25-8.46-17.25-18.9v-142.16c0-10.429 7.7372-18.881 17.261-18.881l347.42 0.00014c9.55 0 17.27 8.4515 17.27 18.886v142.14z"/>
  <path fill="url(#c)" d="m22.212 8.2331c-7.341 0-13.312 8.2529-13.312 18.45-0.0004 10.178 5.971 18.451 13.312 18.451h286.89c7.34 0 13.31-8.273 13.31-18.451-0.04-0.138-1.45-18.45-13.31-18.45l-286.89 0.0001z"/>
  <path fill="url(#b)" d="m298.64 0c-3.48 0-6.29 8.4712-6.29 18.886v161.05h301.36c3.48 0 6.29-8.47 6.29-18.88v-161.06h-301.36z"/>
  <path fill="url(#a)" d="m293.45 8.2331c-0.69 3.0349-1.09 6.7059-1.09 10.654v26.247h301.18v-36.9l-300.1-0.0004z"/>
  <path d="m98.571 106.95c0 15.22-9.919 26.27-30.075 28.45-14.603 1.55-35.711-0.28-45.749-1.43-0.337-1.62-0.615-3.67-0.615-5.29 0-13.24 7.122-16.29 13.847-16.29 6.984 0 17.994 1.21 26.148 1.21 9.007 0 11.745-3.06 11.745-5.95 0-3.81-3.611-5.38-10.594-6.75l-19.145-3.669c-15.89-3.035-24.381-14.046-24.381-25.711 0-14.204 10.038-26.087 29.798-28.251 14.939-1.627 33.131 0.198 43.11 1.428 0.338 1.706 0.556 3.333 0.556 5.099 0 13.232-7.003 16.089-13.709 16.089-5.178 0-13.193-0.953-22.339-0.953-9.304 0-13.173 2.58-13.173 5.694 0 3.333 3.65 4.682 9.503 5.714l18.272 3.392c18.728 3.452 26.802 14.126 26.802 27.218m32.778 16.29c0 8.16-3.2 12.84-19.09 12.84-2.1 0-3.93-0.14-5.69-0.42v-107.94c0-8.216 2.78-16.767 18.81-16.767 2.02 0 4.06 0.198 5.97 0.615v111.67zm64.93 41.76c2.1 1.07 6.39 2.38 11.75 2.52 9.24 0.2 14.26-3.33 17.99-11.62l49.49-110.38c-2.04-1.092-6.58-2.302-10.25-2.381-6.37-0.139-14.94 1.15-20.38 14.184l-16 37.814-31.45-51.184c-2.02-0.615-6.98-1.488-10.57-1.488-11.15 0-17.32 4.067-23.77 11.05l-30.57 33.429 24.59 38.686c4.56 7.06 10.53 10.65 20.23 10.65 6.39 0 11.69-1.48 14.13-2.63l-29.61-44.603 20.99-22.279 34.42 54.042-20.98 44.2z" fill="#ed332a"/>
  <g fill="#fff">
    <path d="m380.18 135.6v-59.539l-25.79 38.939h-0.53l-25.28-38.562v59.162h-19.8v-91.203h21.63l23.98 38.567 23.97-38.567h21.62v91.203h-19.8z"/>
    <path d="m449.1 67.847-12.12 29.58h24.24l-12.12-29.58zm27.62 67.753-8.33-20.46h-38.57l-8.33 20.46h-20.46l39.09-91.857h18.49l39.1 91.857h-20.99z"/>
    <path d="m555.69 135.6-20.45-31.27-20.6 31.27h-22.79l31.78-46.386-30.47-44.817h23.45l19.14 29.58 19.29-29.58h22.79l-30.47 44.559 31.78 46.644h-23.45z"/>
  </g>
</svg>
