<?xml version="1.0" encoding="UTF-8" standalone="no"?>
<svg xmlns:rdf="http://www.w3.org/1999/02/22-rdf-syntax-ns#" xmlns="http://www.w3.org/2000/svg" xmlns:cc="http://creativecommons.org/ns#" xmlns:dc="http://purl.org/dc/elements/1.1/" height="93.425" width="600" version="1.1">
  <defs>
    <linearGradient id="d" gradientUnits="userSpaceOnUse" gradientTransform="matrix(-9.534e-7 19.143 -19.143 -9.534e-7 85.928 4.2622)" x1="0" x2="1" y1="0" y2="0">
      <stop stop-color="#505456" offset="0"/>
      <stop offset=".84375"/>
      <stop offset="1"/>
    </linearGradient>
    <linearGradient id="c" gradientUnits="userSpaceOnUse" gradientTransform="matrix(-.0000021860 -93.419 53.549 -.0000038136 323.27 93.424)" x1="0" x2="1" y1="0" y2="0">
      <stop stop-color="#881719" offset="0"/>
      <stop stop-color="#db1f2b" offset=".49479"/>
      <stop stop-color="#db1f2b" offset="1"/>
    </linearGradient>
    <linearGradient id="b" gradientUnits="userSpaceOnUse" gradientTransform="matrix(-5.4651e-7 19.22 -11.017 -9.534e-7 320.4 4.2622)" x1="0" x2="1" y1="0" y2="0">
      <stop stop-color="#f37921" offset="0"/>
      <stop stop-color="#dd1f26" offset=".84375"/>
      <stop stop-color="#dd1f26" offset="1"/>
    </linearGradient>
    <linearGradient id="a" gradientUnits="userSpaceOnUse" gradientTransform="matrix(-9.534e-7 19.13 -19.13 -9.534e-7 520.9 4.3303)" x1="0" x2="1" y1="0" y2="0">
      <stop stop-color="#505456" offset="0"/>
      <stop offset=".84375"/>
      <stop offset="1"/>
    </linearGradient>
  </defs>
  <path d="m198.12 83.537c0 5.416-4 9.801-8.95 9.801h-180.21c-4.9557 0-8.96-4.386-8.96-9.801v-73.736c0-5.4152 4.0043-9.8009 8.9524-9.8009l180.21 0.00004c4.95 0 8.96 4.3857 8.96 9.801v73.736z"/>
  <path fill="url(#d)" d="m11.526 4.2647c-3.8132 0-6.9117 4.2903-6.9117 9.5723s3.0985 9.572 6.9117 9.572h148.81c3.81 0 6.91-4.29 6.91-9.572 0 0-3.1-9.5723-6.91-9.5723h-148.81z"/>
  <path fill="url(#c)" d="m151.63 9.8107v83.537l338.14 0.076c2.83 0 5.14-4.385 5.14-9.801v-83.546l-338.14-0.077c-2.83 0-5.13 4.3952-5.13 9.8105"/>
  <path fill="url(#b)" d="m151.63 9.804v13.605l341.91 0.076v-19.144l-341.02-0.0761c-0.56 1.5732-0.89 3.48-0.89 5.5393"/>
  <path d="m51.116 55.486c0 7.894-5.149 13.643-15.618 14.768-7.57 0.811-18.534-0.143-23.749-0.743-0.181-0.839-0.314-1.898-0.314-2.746 0-6.874 3.689-8.457 7.179-8.457 3.632 0 9.343 0.629 13.576 0.629 4.681 0 6.102-1.582 6.102-3.098 0-1.974-1.869-2.784-5.501-3.489l-9.944-1.907c-8.247-1.582-12.651-7.293-12.651-13.357 0-7.361 5.215-13.53 15.474-14.664 7.751-0.839 17.199 0.105 22.386 0.744 0.171 0.877 0.276 1.726 0.276 2.641 0 6.874-3.632 8.352-7.112 8.352-2.689 0-6.846-0.486-11.603-0.486-4.824 0-6.836 1.334-6.836 2.955 0 1.726 1.897 2.431 4.929 2.965l9.486 1.764c9.725 1.792 13.92 7.322 13.92 14.129m17.009 8.457c0 4.233-1.659 6.664-9.896 6.664-1.096 0-2.05-0.076-2.965-0.219v-56.031c0-4.262 1.44-8.705 9.763-8.705 1.058 0 2.116 0.1049 3.098 0.3146v57.976zm33.715 21.68c1.09 0.553 3.32 1.23 6.1 1.306 4.79 0.095 7.4-1.735 9.34-6.035l25.69-57.309c-1.05-0.563-3.42-1.192-5.32-1.23-3.31-0.067-7.75 0.601-10.58 7.37l-8.3 19.63-16.33-26.58c-1.05-0.315-3.629-0.773-5.488-0.773-5.787 0-8.991 2.117-12.337 5.74l-15.86 17.342 12.756 20.098c2.364 3.661 5.463 5.53 10.506 5.53 3.308 0 6.064-0.773 7.332-1.373l-15.369-23.158 10.888-11.565 17.872 28.058-10.9 22.949z" fill="#ed332a"/>
  <g fill="#fff">
    <path d="m203.97 62.664c-1.21 1.306-2.48 2.479-3.78 3.508-1.31 1.039-2.74 1.926-4.28 2.67-1.57 0.743-3.26 1.306-5.1 1.697-1.85 0.381-3.92 0.572-6.22 0.572-3.47 0-6.68-0.63-9.66-1.898-2.97-1.258-5.54-2.974-7.7-5.167-2.16-2.183-3.85-4.757-5.06-7.732-1.22-2.975-1.83-6.14-1.83-9.525v-0.133c0-3.375 0.61-6.54 1.83-9.486 1.21-2.956 2.9-5.54 5.06-7.771s4.75-3.985 7.77-5.272c3.01-1.278 6.35-1.916 9.99-1.916 2.25 0 4.28 0.171 6.08 0.534 1.81 0.362 3.45 0.858 4.93 1.487 1.49 0.629 2.86 1.401 4.12 2.297 1.26 0.897 2.43 1.888 3.52 2.975l-6.63 7.627c-1.84-1.668-3.71-2.965-5.63-3.918-1.92-0.944-4.06-1.411-6.46-1.411-1.98 0-3.81 0.381-5.5 1.144-1.68 0.763-3.14 1.821-4.35 3.175-1.22 1.354-2.17 2.917-2.84 4.69-0.68 1.783-1.02 3.681-1.02 5.711v0.134c0 2.03 0.34 3.937 1.02 5.739 0.67 1.802 1.61 3.375 2.8 4.729s2.64 2.422 4.33 3.213c1.68 0.782 3.54 1.182 5.56 1.182 2.71 0 4.99-0.515 6.86-1.525 1.87-1.011 3.73-2.346 5.58-4.014l6.61 6.683z"/>
    <path d="m205.53 70.296v-47.279h10.4v37.887h23.57v9.391h-33.98z"/>
    <path d="m265.5 35.174-6.28 15.332h12.57l-6.29-15.332zm14.32 35.123-4.32-10.602h-19.99l-4.33 10.602h-10.6l20.26-47.622h9.59l20.27 47.622h-10.87z"/>
    <path d="m327.43 56.316c0 2.345-0.42 4.423-1.28 6.244-0.84 1.831-2.03 3.356-3.55 4.596-1.52 1.239-3.34 2.183-5.45 2.831-2.1 0.658-4.44 0.982-7.01 0.982-3.6 0-7.13-0.619-10.6-1.859-3.47-1.23-6.62-3.136-9.45-5.701l6.14-7.36c2.16 1.754 4.37 3.146 6.65 4.185 2.27 1.03 4.76 1.554 7.47 1.554 2.15 0 3.83-0.4 5.02-1.182 1.2-0.791 1.79-1.878 1.79-3.28v-0.133c0-0.677-0.12-1.268-0.37-1.792-0.25-0.515-0.72-1.002-1.42-1.45-0.69-0.448-1.67-0.896-2.92-1.353-1.24-0.449-2.85-0.925-4.84-1.421-2.38-0.629-4.56-1.287-6.49-1.993-1.95-0.696-3.6-1.573-4.95-2.631s-2.4-2.374-3.15-3.947c-0.74-1.583-1.11-3.537-1.11-5.882v-0.134c0-2.155 0.4-4.109 1.2-5.844 0.81-1.726 1.94-3.223 3.39-4.491 1.45-1.258 3.19-2.221 5.21-2.898s4.24-1.02 6.67-1.02c3.47 0 6.66 0.524 9.57 1.554 2.89 1.039 5.56 2.526 7.99 4.462l-5.4 7.836c-2.12-1.439-4.19-2.583-6.21-3.413-2.03-0.829-4.05-1.249-6.08-1.249s-3.55 0.391-4.56 1.183c-1.01 0.781-1.52 1.763-1.52 2.936v0.133c0 0.773 0.15 1.43 0.45 1.993 0.28 0.562 0.82 1.068 1.58 1.525 0.77 0.449 1.82 0.878 3.15 1.278 1.34 0.41 3.02 0.877 5.05 1.421 2.39 0.629 4.53 1.344 6.39 2.126 1.88 0.791 3.47 1.735 4.75 2.841s2.25 2.393 2.91 3.88c0.65 1.487 0.98 3.261 0.98 5.339v0.134z"/>
    <path d="m365.93 56.316c0 2.345-0.43 4.423-1.28 6.244-0.85 1.831-2.03 3.356-3.56 4.596-1.51 1.239-3.33 2.183-5.44 2.831-2.11 0.658-4.44 0.982-7.02 0.982-3.59 0-7.13-0.619-10.6-1.859-3.47-1.23-6.62-3.136-9.46-5.701l6.15-7.36c2.17 1.754 4.38 3.146 6.66 4.185 2.27 1.03 4.75 1.554 7.46 1.554 2.16 0 3.84-0.4 5.03-1.182 1.2-0.791 1.79-1.878 1.79-3.28v-0.133c0-0.677-0.12-1.268-0.37-1.792-0.25-0.515-0.73-1.002-1.42-1.45-0.7-0.448-1.67-0.896-2.91-1.353-1.25-0.449-2.86-0.925-4.84-1.421-2.4-0.629-4.56-1.287-6.51-1.993-1.94-0.696-3.59-1.573-4.94-2.631-1.36-1.058-2.41-2.374-3.15-3.947-0.74-1.583-1.12-3.537-1.12-5.882v-0.134c0-2.155 0.4-4.109 1.2-5.844 0.82-1.726 1.94-3.223 3.4-4.491 1.45-1.258 3.18-2.221 5.2-2.898 2.03-0.677 4.25-1.02 6.68-1.02 3.47 0 6.65 0.524 9.56 1.554 2.9 1.039 5.57 2.526 8 4.462l-5.41 7.836c-2.11-1.439-4.18-2.583-6.2-3.413-2.03-0.829-4.05-1.249-6.08-1.249-2.04 0-3.55 0.391-4.56 1.183-1.01 0.781-1.52 1.763-1.52 2.936v0.133c0 0.773 0.14 1.43 0.44 1.993 0.3 0.562 0.82 1.068 1.58 1.525 0.78 0.449 1.82 0.878 3.16 1.278 1.33 0.41 3.01 0.877 5.04 1.421 2.4 0.629 4.53 1.344 6.4 2.126 1.88 0.791 3.46 1.735 4.75 2.841 1.28 1.106 2.25 2.393 2.91 3.88 0.65 1.487 0.98 3.261 0.98 5.339v0.134z"/>
    <path d="m368.7 23.018h10.41v47.279h-10.41v-47.279z"/>
    <path d="m425.71 62.664c-1.21 1.306-2.48 2.479-3.79 3.508-1.3 1.039-2.73 1.926-4.28 2.67-1.55 0.743-3.26 1.306-5.1 1.697-1.85 0.381-3.92 0.572-6.22 0.572-3.47 0-6.69-0.63-9.65-1.898-2.98-1.258-5.54-2.974-7.71-5.167-2.15-2.183-3.85-4.757-5.06-7.732-1.22-2.975-1.82-6.14-1.82-9.525v-0.133c0-3.375 0.6-6.54 1.82-9.486 1.21-2.956 2.91-5.54 5.06-7.771 2.17-2.231 4.75-3.985 7.77-5.272 3.02-1.278 6.35-1.916 9.99-1.916 2.26 0 4.28 0.171 6.09 0.534 1.8 0.362 3.44 0.858 4.93 1.487 1.48 0.629 2.86 1.401 4.11 2.297 1.27 0.897 2.44 1.888 3.52 2.975l-6.62 7.627c-1.84-1.668-3.72-2.965-5.64-3.918-1.91-0.944-4.06-1.411-6.45-1.411-1.99 0-3.82 0.381-5.5 1.144-1.69 0.763-3.15 1.821-4.36 3.175-1.22 1.354-2.16 2.917-2.84 4.69-0.67 1.783-1.01 3.681-1.01 5.711v0.134c0 2.03 0.34 3.937 1.01 5.739 0.68 1.802 1.61 3.375 2.8 4.729s2.64 2.422 4.33 3.213c1.69 0.782 3.55 1.182 5.57 1.182 2.71 0 4.98-0.515 6.85-1.525 1.87-1.011 3.73-2.346 5.58-4.014l6.62 6.683z"/>
    <path d="m464.13 56.316c0 2.345-0.42 4.423-1.28 6.244-0.85 1.831-2.03 3.356-3.55 4.596-1.52 1.239-3.34 2.183-5.45 2.831-2.1 0.658-4.44 0.982-7.01 0.982-3.6 0-7.14-0.619-10.61-1.859-3.47-1.23-6.61-3.136-9.44-5.701l6.14-7.36c2.16 1.754 4.37 3.146 6.65 4.185 2.27 1.03 4.76 1.554 7.47 1.554 2.15 0 3.83-0.4 5.02-1.182 1.2-0.791 1.79-1.878 1.79-3.28v-0.133c0-0.677-0.12-1.268-0.37-1.792-0.25-0.515-0.72-1.002-1.42-1.45s-1.67-0.896-2.92-1.353c-1.24-0.449-2.85-0.925-4.83-1.421-2.39-0.629-4.57-1.287-6.5-1.993-1.95-0.696-3.6-1.573-4.95-2.631-1.36-1.058-2.4-2.374-3.15-3.947-0.74-1.583-1.11-3.537-1.11-5.882v-0.134c0-2.155 0.4-4.109 1.2-5.844 0.81-1.726 1.93-3.223 3.39-4.491 1.45-1.258 3.2-2.221 5.21-2.898 2.02-0.677 4.24-1.02 6.67-1.02 3.47 0 6.66 0.524 9.56 1.554 2.9 1.039 5.57 2.526 8 4.462l-5.4 7.836c-2.11-1.439-4.19-2.583-6.21-3.413-2.03-0.829-4.05-1.249-6.08-1.249-2.02 0-3.55 0.391-4.56 1.183-1.01 0.781-1.51 1.763-1.51 2.936v0.133c0 0.773 0.14 1.43 0.43 1.993 0.3 0.562 0.82 1.068 1.6 1.525 0.76 0.449 1.81 0.878 3.14 1.278 1.34 0.41 3.01 0.877 5.05 1.421 2.39 0.629 4.52 1.344 6.39 2.126 1.88 0.791 3.46 1.735 4.75 2.841s2.25 2.393 2.91 3.88 0.98 3.261 0.98 5.339v0.134z"/>
  </g>
  <path d="m599.93 83.624c0 5.415-4 9.801-8.95 9.801h-116.87v-83.679c0-5.4059 4.08-9.658 9.03-9.658l116.86-0.000037-0.07 83.537z"/>
  <path fill="url(#a)" d="m475.66 4.3311c-0.97 1.535-1.54 3.3942-1.54 5.4249v13.71h121v-19.135l-119.46-0.0004z"/>
  <path fill="#fff" d="m520.86 70.264v-20.536h-25.62v20.536h-11.13v-47.565h11.13v19.468h25.62v-19.468h11.12v47.565h-11.12z"/>
  <path fill="#fff" d="m562.22 30.192h-11.78v32.52h11.88c12.63 0 16.49-0.505 16.49-16.188 0-15.693-3.96-16.332-16.59-16.332m23.64 33.655c-4.51 5.062-11.29 6.416-22.97 6.416h-23.37v-47.565h23.26c11.69 0 18.48 1.43 23 6.492 3.3 3.719 4.15 7.98 4.15 17.333 0 9.334-0.76 13.615-4.07 17.323"/>
</svg>
