<?xml version="1.0" encoding="UTF-8" standalone="no"?>
<svg xmlns:rdf="http://www.w3.org/1999/02/22-rdf-syntax-ns#" xmlns="http://www.w3.org/2000/svg" xmlns:cc="http://creativecommons.org/ns#" xmlns:dc="http://purl.org/dc/elements/1.1/" height="126.52" width="600" version="1.1">
  <defs>
    <linearGradient id="c" gradientUnits="userSpaceOnUse" gradientTransform="matrix(-6.4833e-7 25.945 -13.027 -.0000012913 398.07 5.7762)" x1="0" x2="1" y1="0" y2="0">
      <stop stop-color="#f37921" offset="0"/>
      <stop stop-color="#dd1f26" offset=".84375"/>
      <stop stop-color="#dd1f26" offset="1"/>
    </linearGradient>
    <linearGradient id="b" gradientUnits="userSpaceOnUse" gradientTransform="matrix(-.0000026231 -126.51 64.25 -.0000051650 402.73 126.51)" x1="0" x2="1" y1="0" y2="0">
      <stop stop-color="#881719" offset="0"/>
      <stop stop-color="#db1f2b" offset=".49479"/>
      <stop stop-color="#db1f2b" offset="1"/>
    </linearGradient>
    <linearGradient id="a" gradientUnits="userSpaceOnUse" gradientTransform="matrix(-.0000012913 25.945 -25.945 -.0000012913 116.43 5.7762)" x1="0" x2="1" y1="0" y2="0">
      <stop stop-color="#505456" offset="0"/>
      <stop offset=".84375"/>
      <stop offset="1"/>
    </linearGradient>
  </defs>
  <path d="m268.45 113.22c0 7.34-5.43 13.29-12.14 13.29h-244.17c-6.7039 0-12.14-5.95-12.14-13.29v-99.93c0-7.3463 5.4361-13.286 12.138-13.286l244.17-0.00016c6.7 0 12.14 5.9398 12.14 13.286v99.93z"/>
  <path fill="url(#a)" d="m15.623 5.7719c-5.178 0-9.374 5.8111-9.374 12.977 0 7.166 4.197 12.964 9.374 12.964h201.62c5.17 0 9.36-5.798 9.36-12.964-0.2-0.607-1.6-12.977-9.37-12.977l-201.62-0.0001z"/>
  <path fill="url(#b)" d="m211.62 0c-3.4 0-6.16 5.9526-6.16 13.286v113.23h388.38c3.41 0 6.16-5.96 6.16-13.3v-113.22h-388.38z"/>
  <path fill="url(#c)" d="m206.53 5.7719c-0.68 2.1434-1.07 4.7261-1.07 7.5151v18.426h390.06v-25.941h-388.99z"/>
  <path d="m69.305 75.828c0 10.691-6.972 18.477-21.15 20.002-10.253 1.097-25.089-0.194-32.166-1.008-0.232-1.149-0.426-2.569-0.426-3.718 0-9.31 5.01-11.454 9.736-11.454 4.92 0 12.655 0.852 18.375 0.852 6.353 0 8.264-2.143 8.264-4.196 0-2.673-2.531-3.771-7.45-4.726l-13.456-2.57c-11.168-2.157-17.134-9.892-17.134-18.091 0-9.981 7.063-18.322 20.945-19.86 10.498-1.136 23.294 0.142 30.305 1.007 0.246 1.188 0.388 2.337 0.388 3.577 0 9.31-4.92 11.311-9.633 11.311-3.641 0-9.271-0.671-15.714-0.671-6.534 0-9.259 1.808-9.259 4.003 0 2.35 2.583 3.305 6.689 4.015l12.835 2.389c13.171 2.428 18.852 9.93 18.852 19.136m23.036 11.454c0 5.733-2.247 9.026-13.416 9.026-1.472 0-2.763-0.104-4.002-0.297v-75.887c0-5.759 1.949-11.789 13.222-11.789 1.433 0 2.854 0.1421 4.197 0.4391v78.507zm45.648 29.36c1.48 0.75 4.49 1.67 8.26 1.76 6.5 0.14 10.02-2.34 12.66-8.16l34.78-77.606c-1.43-0.762-4.62-1.627-7.2-1.666-4.48-0.103-10.5 0.8-14.32 9.968l-11.26 26.587-22.11-35.987c-1.43-0.426-4.92-1.046-7.44-1.046-7.83 0-12.17 2.867-16.7 7.773l-21.495 23.489 17.265 27.194c3.22 4.971 7.41 7.502 14.23 7.502 4.49 0 8.21-1.046 9.93-1.86l-20.82-31.364 14.77-15.649 24.19 37.988-14.75 31.077z" fill="#ed332a"/>
  <g fill="#fff">
    <path d="m276.29 84.843c-1.64 1.769-3.35 3.357-5.12 4.765-1.77 1.394-3.71 2.595-5.81 3.615-2.11 0.995-4.41 1.756-6.91 2.286-2.51 0.516-5.31 0.775-8.42 0.775-4.7 0-9.06-0.853-13.09-2.57-4.02-1.704-7.51-4.028-10.44-6.998-2.91-2.957-5.21-6.457-6.85-10.472-1.66-4.029-2.48-8.329-2.48-12.913v-0.181c0-4.571 0.82-8.858 2.48-12.861 1.64-3.989 3.94-7.502 6.85-10.523 2.93-3.022 6.45-5.398 10.54-7.128 4.08-1.743 8.6-2.608 13.53-2.608 3.06 0 5.8 0.232 8.24 0.723 2.44 0.49 4.67 1.162 6.69 2.014 2.01 0.852 3.87 1.898 5.58 3.112 1.7 1.227 3.29 2.569 4.76 4.028l-8.97 10.343c-2.51-2.259-5.05-4.028-7.65-5.307-2.59-1.278-5.5-1.924-8.74-1.924-2.68 0-5.16 0.517-7.45 1.563-2.3 1.033-4.26 2.466-5.9 4.3-1.65 1.82-2.93 3.951-3.85 6.353-0.91 2.414-1.37 4.997-1.37 7.734v0.181c0 2.75 0.46 5.346 1.37 7.786 0.92 2.441 2.18 4.571 3.8 6.405 1.61 1.833 3.58 3.28 5.86 4.339 2.29 1.071 4.8 1.601 7.54 1.601 3.67 0 6.77-0.685 9.3-2.053 2.53-1.369 5.05-3.19 7.55-5.449l8.96 9.064z"/>
    <path d="m328.9 63.154c0-2.75-0.47-5.332-1.42-7.773-0.94-2.44-2.28-4.584-4.03-6.417-1.73-1.821-3.78-3.28-6.13-4.339-2.35-1.072-4.96-1.601-7.82-1.601-2.81 0-5.4 0.516-7.78 1.549-2.37 1.046-4.4 2.48-6.08 4.3-1.68 1.834-3 3.951-3.94 6.366s-1.42 4.984-1.42 7.735v0.181c0 2.75 0.48 5.332 1.42 7.773s2.29 4.584 4.03 6.417c1.73 1.821 3.8 3.28 6.17 4.339 2.38 1.072 4.97 1.601 7.79 1.601 2.87 0 5.47-0.516 7.82-1.549 2.34-1.046 4.36-2.48 6.03-4.3 1.68-1.834 3-3.951 3.94-6.366 0.95-2.415 1.42-4.984 1.42-7.735v-0.181zm14.74 0c0 4.572-0.86 8.858-2.56 12.861-1.72 3.99-4.08 7.503-7.1 10.524-3.02 3.022-6.61 5.398-10.8 7.141-4.18 1.73-8.74 2.608-13.68 2.608s-9.48-0.878-13.64-2.608c-4.14-1.744-7.73-4.094-10.74-7.051-3.02-2.957-5.37-6.443-7.05-10.433s-2.52-8.277-2.52-12.861v-0.181c0-4.571 0.85-8.858 2.56-12.86 1.71-3.99 4.08-7.503 7.1-10.524 3.01-3.022 6.61-5.398 10.79-7.141 4.17-1.73 8.74-2.608 13.69-2.608 4.93 0 9.48 0.878 13.64 2.608 4.14 1.743 7.72 4.094 10.74 7.051s5.37 6.443 7.05 10.433 2.52 8.277 2.52 12.861v0.18z"/>
    <path d="m397.17 95.185v-41.824l-18.11 27.361h-0.38l-17.75-27.091v41.552h-13.91v-64.059h15.2l16.84 27.09 16.83-27.09h15.19v64.059h-13.91z"/>
    <path d="m417.31 95.185v-64.059h48.23v12.538h-34.32v12.99h30.2v12.538h-30.2v13.454h34.78v12.538h-48.69z"/>
    <path d="m513.77 63.154c0-2.866-0.45-5.474-1.37-7.825-0.92-2.35-2.23-4.377-3.94-6.081-1.7-1.718-3.76-3.035-6.13-3.99-2.38-0.943-5-1.421-7.87-1.421h-10.89v38.622h10.89c2.87 0 5.49-0.451 7.87-1.368 2.37-0.917 4.43-2.221 6.13-3.939 1.71-1.704 3.02-3.731 3.94-6.082 0.92-2.35 1.37-4.919 1.37-7.734v-0.181zm14.73 0c0 4.52-0.83 8.729-2.46 12.629-1.66 3.9-3.98 7.296-7 10.162-3.03 2.867-6.61 5.126-10.76 6.766-4.16 1.653-8.75 2.48-13.82 2.48h-24.98v-64.073h24.98c5.07 0 9.66 0.813 13.82 2.428 4.15 1.614 7.73 3.86 10.76 6.727 3.02 2.867 5.34 6.237 7 10.11 1.63 3.874 2.46 8.071 2.46 12.59v0.181z"/>
    <path d="m559.02 69.65v25.541h-14.1v-25.271l-24.61-38.802h16.48l15.27 25.721 15.56-25.721h16.01l-24.61 38.532z"/>
  </g>
</svg>
