<?xml version="1.0" encoding="UTF-8" standalone="no"?>
<svg xmlns:rdf="http://www.w3.org/1999/02/22-rdf-syntax-ns#" xmlns="http://www.w3.org/2000/svg" xmlns:cc="http://creativecommons.org/ns#" xmlns:dc="http://purl.org/dc/elements/1.1/" height="116.28" width="600" version="1.1">
  <defs>
    <linearGradient id="a" gradientUnits="userSpaceOnUse" gradientTransform="matrix(0 23.846 -22.869 0 386.9 5.3141)" x1="0" x2="1" y1="0" y2="0">
      <stop stop-color="#f37921" offset="0"/>
      <stop stop-color="#dd1f26" offset=".84375"/>
      <stop stop-color="#dd1f26" offset="1"/>
    </linearGradient>
    <linearGradient id="b" gradientUnits="userSpaceOnUse" gradientTransform="matrix(0 -116.26 108.84 0 394.41 116.27)" x1="0" x2="1" y1="0" y2="0">
      <stop stop-color="#881719" offset="0"/>
      <stop stop-color="#db1f2b" offset=".49479"/>
      <stop stop-color="#db1f2b" offset="1"/>
    </linearGradient>
    <linearGradient id="c" gradientUnits="userSpaceOnUse" gradientTransform="matrix(0 23.846 -23.846 0 107 5.3141)" x1="0" x2="1" y1="0" y2="0">
      <stop stop-color="#505456" offset="0"/>
      <stop offset=".84375"/>
      <stop offset="1"/>
    </linearGradient>
  </defs>
  <path d="m246.71 104.06c0 6.75-4.99 12.2-11.15 12.2h-224.4c-6.1692 0-11.16-5.45-11.16-12.2v-91.841c0-6.7488 4.9908-12.219 11.15-12.219h224.41c6.16 0 11.15 5.4702 11.15 12.219v91.841z"/>
  <path fill="url(#c)" d="m14.37 5.3115c-4.7572 0-8.6171 5.3355-8.6171 11.924 0 6.588 3.8599 11.923 8.6171 11.923h185.28c4.75 0 8.61-5.335 8.61-11.924-0.2-0.553-0.6-11.924-8.62-11.924l-185.29 0.0005z"/>
  <path fill="url(#b)" d="m199.26 0.00099c-5.77 0-10.44 5.4704-10.44 12.207v104.07h400.75c5.76 0 10.43-5.47 10.43-12.22v-104.06l-400.74 0.00124z"/>
  <path fill="url(#a)" d="m190.68 5.3115c-1.18 1.9669-1.86 4.3393-1.86 6.8965v16.952h405.3v-23.849l-403.44 0.0002z"/>
  <path fill="#ed332a" d="m63.683 69.113c0 9.822-6.404 16.975-19.447 18.39-9.428 1.008-23.074-0.184-29.563-0.934-0.222-1.045-0.394-2.361-0.394-3.418 0-8.556 4.598-10.535 8.937-10.535 4.536 0 11.641 0.799 16.903 0.799 5.839 0 7.597-1.979 7.597-3.86 0-2.458-2.336-3.466-6.847-4.351l-12.381-2.375c-10.277-1.966-15.747-9.072-15.747-16.62 0-9.183 6.49-16.854 19.251-18.268 9.662-1.044 21.413 0.136 27.868 0.935 0.221 1.094 0.357 2.139 0.357 3.282 0 8.556-4.524 10.4-8.863 10.4-3.332 0-8.519-0.615-14.432-0.615-6.024 0-8.519 1.672-8.519 3.688 0 2.151 2.372 3.024 6.146 3.688l11.801 2.188c12.109 2.249 17.334 9.133 17.334 17.603m21.18 10.535c0 5.261-2.065 8.285-12.33 8.285-1.364 0-2.544-0.086-3.687-0.258v-69.774c0-5.311 1.794-10.842 12.157-10.842 1.315-0.0003 2.631 0.1349 3.86 0.393v72.195zm41.966 26.985c1.37 0.7 4.13 1.53 7.6 1.62 5.97 0.14 9.22-2.15 11.63-7.5l31.99-71.358c-1.3-0.701-4.24-1.488-6.61-1.537-4.14-0.086-9.67 0.75-13.18 9.171l-10.36 24.449-20.32-33.092c-1.31-0.393-4.52-0.958-6.84-0.958-7.19 0-11.19 2.63-15.36 7.142l-19.751 21.598 15.881 25.003c2.95 4.573 6.81 6.896 13.08 6.896 4.13 0 7.55-0.959 9.14-1.709l-19.15-28.827 13.58-14.394 22.25 34.923-13.58 28.573z"/>
  <g fill="#fff">
    <path d="m254.1 78.351c-1.51 1.623-3.08 3.086-4.71 4.376-1.63 1.291-3.4 2.397-5.34 3.319-1.93 0.922-4.06 1.635-6.36 2.102-2.3 0.48-4.88 0.726-7.73 0.726-4.33 0-8.34-0.799-12.04-2.36-3.7-1.574-6.89-3.713-9.58-6.442-2.7-2.717-4.8-5.925-6.31-9.625-1.53-3.7-2.28-7.659-2.28-11.863v-0.172c0-4.204 0.75-8.15 2.28-11.826 1.51-3.675 3.61-6.896 6.31-9.674 2.69-2.766 5.91-4.966 9.67-6.564 3.76-1.586 7.9-2.398 12.45-2.398 2.81 0 5.33 0.234 7.57 0.677 2.24 0.454 4.29 1.069 6.14 1.856 1.86 0.787 3.56 1.733 5.14 2.852 1.57 1.131 3.02 2.36 4.37 3.712l-8.24 9.503c-2.3-2.078-4.65-3.701-7.02-4.881-2.39-1.18-5.07-1.77-8.04-1.77-2.47 0-4.76 0.48-6.86 1.438-2.11 0.947-3.91 2.262-5.42 3.946-1.52 1.685-2.7 3.639-3.54 5.852s-1.26 4.585-1.26 7.105v0.172c0 2.52 0.42 4.905 1.26 7.155 0.84 2.237 2 4.204 3.49 5.888 1.48 1.672 3.28 3.012 5.38 3.995 2.12 0.983 4.43 1.475 6.95 1.475 3.36 0 6.2-0.639 8.54-1.893 2.32-1.266 4.63-2.938 6.93-5.015l8.25 8.334z"/>
    <path d="m256.62 28.962h12.96v58.895h-12.96v-58.895z"/>
    <path d="m317.19 87.857-28.52-37.432v37.432h-12.78v-58.895h11.95l27.58 36.264v-36.264h12.8v58.895h-11.03z"/>
    <path d="m333.94 87.857v-58.895h44.33v11.531h-31.55v11.949h27.77v11.518h-27.77v12.367h31.97v11.53h-44.76z"/>
    <path d="m429.68 87.857v-38.452l-16.65 25.163h-0.35l-16.31-24.905v38.194h-12.8v-58.895h13.97l15.49 24.906 15.47-24.906h13.97v58.895h-12.79z"/>
    <path d="m474.19 44.11-7.83 19.103h15.66l-7.83-19.103zm17.83 43.749-5.38-13.214h-24.91l-5.38 13.214h-13.2l25.23-59.312h11.95l25.24 59.312h-13.55z"/>
    <path d="m531.57 37.293h11.95v15.06h15.23v11.69h-15.23v15.145h-11.95v-15.145h-15.23v-11.69h15.23v-15.06z"/>
    <path d="m574.98 28.543h8.84v59.313h-12.8v-46.185l-10.26 2.52-2.69-10.596 16.91-5.053z"/>
  </g>
</svg>
