<?xml version="1.0" encoding="UTF-8" standalone="no"?>
<svg xmlns:rdf="http://www.w3.org/1999/02/22-rdf-syntax-ns#" xmlns="http://www.w3.org/2000/svg" height="83.508" viewBox="0 0 600 83.507744" width="600" version="1.1" xmlns:cc="http://creativecommons.org/ns#" xmlns:dc="http://purl.org/dc/elements/1.1/" overflow="visible">
 <path fill="#0e2d6d" d="m152.22 0.0010439h-144.63c-4.1777 0-7.59 3.4124-7.59 7.5846v68.341c0 4.17 3.4123 7.581 7.5856 7.581l144.63-0.01v-83.497z"/>
 <linearGradient id="h" y2="39.405" gradientUnits="userSpaceOnUse" y1="1.684" gradientTransform="matrix(1.0438 0 0 1.0438 -.003132 0)" x2="75.772" x1="75.772">
  <stop stop-color="#FFF" offset="0"/>
  <stop stop-color="#E7ECF5" offset=".039"/>
  <stop stop-color="#BACAE4" offset=".122"/>
  <stop stop-color="#93ACD4" offset=".21"/>
  <stop stop-color="#7293C7" offset=".303"/>
  <stop stop-color="#577EBC" offset=".403"/>
  <stop stop-color="#426EB3" offset=".51"/>
  <stop stop-color="#3363AE" offset=".631"/>
  <stop stop-color="#2B5CAA" offset=".774"/>
  <stop stop-color="#285AA9" offset="1"/>
 </linearGradient>
 <path opacity=".8" fill="url(#h)" d="m152.22 1.7578h-146.25c-0.0023 0 3.195 17.227 23.362 31.672 0 0 10.326 7.773 17.051 7.703h105.84v-39.375z"/>
 <linearGradient id="g" gradientUnits="userSpaceOnUse" y1="79.99" gradientTransform="matrix(1.0438 0 0 1.0438 -.003132 0)" x2="318.11" x1="318.11">
  <stop stop-color="#D92231" offset="0"/>
  <stop stop-color="#D12130" offset=".193"/>
  <stop stop-color="#BD1F2C" offset=".448"/>
  <stop stop-color="#9D1A26" offset=".735"/>
  <stop stop-color="#7C131D" offset="1"/>
 </linearGradient>
 <path fill="url(#g)" d="m152.22 83.497 359.68-0.006v-83.491h-359.68z"/>
 <linearGradient id="f" y2="39.405" gradientUnits="userSpaceOnUse" y1="1.684" gradientTransform="matrix(1.0438 0 0 1.0438 -.003132 0)" x2="318.11" x1="318.11">
  <stop stop-color="#FFF" offset="0"/>
  <stop stop-color="#FAE1E3" offset=".048"/>
  <stop stop-color="#F2B4B9" offset=".13"/>
  <stop stop-color="#EB8D95" offset=".217"/>
  <stop stop-color="#E66C76" offset=".31"/>
  <stop stop-color="#E1515D" offset=".408"/>
  <stop stop-color="#DD3C49" offset=".515"/>
  <stop stop-color="#DB2D3B" offset=".634"/>
  <stop stop-color="#D92533" offset=".776"/>
  <stop stop-color="#D92231" offset="1"/>
 </linearGradient>
 <path opacity=".8" fill="url(#f)" d="m152.22 1.7578h359.69v39.375h-359.69z"/>
 <path fill="#0e2d6d" d="m511.9 0h80.81c3.88 0 7.29 3.4155 7.29 7.5856v68.331c0 4.171-3.41 7.58-7.58 7.58l-80.52-0.009v-83.488z"/>
 <linearGradient id="e" x1="869.23" gradientUnits="userSpaceOnUse" y1="1.685" gradientTransform="matrix(-1.0438 0 0 1.0438 1460.3 0)" x2="869.23" y2="39.405">
  <stop stop-color="#FFF" offset="0"/>
  <stop stop-color="#E7ECF5" offset=".039"/>
  <stop stop-color="#BACAE4" offset=".122"/>
  <stop stop-color="#93ACD4" offset=".21"/>
  <stop stop-color="#7293C7" offset=".303"/>
  <stop stop-color="#577EBC" offset=".403"/>
  <stop stop-color="#426EB3" offset=".51"/>
  <stop stop-color="#3363AE" offset=".631"/>
  <stop stop-color="#2B5CAA" offset=".774"/>
  <stop stop-color="#285AA9" offset="1"/>
 </linearGradient>
 <path opacity=".8" fill="url(#e)" d="m511.9 1.7589h82.13s-3.19 17.226-23.36 31.673c0 0-10.33 7.771-17.05 7.701h-41.72v-39.374z"/>
 <g fill="#fff">
  <path d="m547.33 58.23c0.9-2.707 8.36-5.416 12.14-7.218 11.4-5.417 18.55-9.274 18.55-19.532 0-7.792-5.75-16.654-22.49-16.654-6.97 0-17.07 2.293-21.91 4.759-0.24 6.561 3.03 9.514 5.99 9.514 4.85 0 9.11-2.705 16.42-2.705 5.49 0 8.36 2.545 8.36 5.499 0 5.168-6.23 6.807-13.86 10.992-10.09 5.579-17.48 10.014-17.48 20.107 0 2.049 0.24 4.76 0.65 6.644h37.26c3.53 0 7.14-1.639 7.14-8.615 0-0.821-0.09-1.969-0.25-2.79h-30.54z"/>
  <path d="m100.53 77.554c0.99 0.51 3.01 1.117 5.54 1.184 4.35 0.093 6.72-1.571 8.48-5.471l23.32-52.03c-0.96-0.512-3.1-1.088-4.83-1.121-3.01-0.064-7.04 0.545-9.6 6.69l-7.53 17.818-14.82-24.124c-0.96-0.288-3.298-0.703-4.997-0.703-5.245 0-8.157 1.918-11.198 5.216l-14.397 15.744 11.581 18.235c2.145 3.328 4.961 5.024 9.536 5.024 3.009 0 5.506-0.699 6.655-1.245l-13.95-21.023 9.887-10.496 16.223 25.469-9.88 20.833zm-30.603-19.682c0 3.839-1.505 6.051-8.991 6.051-0.994 0-1.855-0.068-2.688-0.196v-50.873c0-3.8717 1.311-7.9051 8.863-7.9051 0.96 0 1.919 0.0981 2.817 0.2881v52.635zm-15.443-7.678c0 7.166-4.673 12.383-14.177 13.408-6.879 0.737-16.831-0.13-21.565-0.673-0.162-0.769-0.289-1.726-0.289-2.495 0-6.242 3.359-7.679 6.526-7.679 3.297 0 8.48 0.574 12.322 0.574 4.253 0 5.533-1.441 5.533-2.816 0-1.794-1.694-2.525-4.991-3.166l-9.023-1.729c-7.488-1.442-11.487-6.625-11.487-12.128 0-6.685 4.735-12.286 14.047-13.308 7.039-0.77 15.614 0.094 20.32 0.67 0.159 0.801 0.254 1.567 0.254 2.4 0 6.24-3.295 7.584-6.462 7.584-2.432 0-6.207-0.449-10.527-0.449-4.386 0-6.208 1.219-6.208 2.687 0 1.568 1.728 2.207 4.481 2.687l8.608 1.6c8.83 1.632 12.639 6.656 12.639 12.832z"/>
  <path d="m218.39 53.658c0-8.957-5.83-13.313-15.12-15.366l-16.26-3.694c-2.96-0.657-5.43-1.563-5.43-4.52 0-3.205 2.55-4.436 9.37-4.436 8.05 0 9.94 0.41 17.25 0.41 3.37 0 6.82-1.562 6.82-8.216 0-0.823-0.08-1.727-0.24-2.549-4.93-0.408-13.72-0.903-24.57-0.903-16.35 0-22.59 7.067-22.59 16.104 0 8.462 5.34 13.15 14.79 15.365l16.26 3.779c3.78 0.9 5.84 2.547 5.84 4.928 0 3.206-2.88 4.438-9.7 4.438-8.05 0-11.75-0.574-19.06-0.574-3.37 0-6.82 1.558-6.82 8.215 0 0.822 0.08 1.724 0.25 2.547 4.93 0.49 15.53 1.068 26.37 1.068 16.36 0 22.84-6.982 22.84-16.597z"/>
  <path d="m352.65 39.197v-13.719h12.9c5.51 0 9.86 0.819 9.86 6.57 0 4.845-3.29 7.149-9.86 7.149h-12.91zm-0.08 10.845h6.81l13.17 15.692c2.46 3.039 4.84 4.602 10.43 4.602 3.78 0 6.33-0.491 8.38-1.481l-17.1-19.796c9.61-2.052 14.46-8.302 14.46-17.502 0-11.339-6.91-16.925-20.87-16.925l-19.96-0.081c-6.49 0.246-8.63 2.463-8.63 8.379v46.504c0.98 0.163 2.14 0.242 3.28 0.242 8.22 0 10.11-2.378 10.11-6.652l-0.06-12.982z"/>
  <path d="m237.7 40.677v-15.119h13.39c6.66 0 9.95 2.464 9.95 7.314 0 5.178-3.29 7.805-9.95 7.805h-13.39zm-13.39 28.758c0.99 0.163 2.14 0.242 3.28 0.242 8.22 0 10.11-2.378 10.11-6.652v-11.256h13.97c15.2 0 22.76-6.571 22.76-18.897 0-11.914-7.56-18.24-21.86-18.24h-19.63c-6.57 0-8.62 2.547-8.62 8.379v46.424z"/>
  <path d="m318.88 41.334c0 6.33-1.07 10.761-3.2 13.393-2.05 2.71-5.43 3.943-10.03 3.943-4.68-0.084-8.04-1.396-10.18-3.943-2.14-2.546-3.21-6.982-3.21-13.393 0-6.325 1.15-10.762 3.29-13.311 2.13-2.628 5.5-3.86 10.1-3.86s7.89 1.232 10.03 3.86c2.13 2.549 3.2 6.986 3.2 13.311zm-13.23 28.264c8.62 0 15.28-2.053 19.96-6.243 4.68-4.11 7.07-11.506 7.07-22.021-0.09-10.349-2.47-17.582-7.31-21.856-4.85-4.191-11.42-6.324-19.72-6.324s-14.88 2.132-19.72 6.324c-4.85 4.273-7.23 11.505-7.32 21.856 0 10.514 2.39 17.911 7.07 22.021 4.69 4.19 11.35 6.243 19.97 6.243z"/>
  <path d="m424.04 25.889h10.76c3.54 0 7.15-1.644 7.15-8.631 0-0.818-0.08-1.806-0.25-2.626h-41.81c-3.54 0-7.16 1.644-7.16 8.625 0 0.825 0.09 1.807 0.26 2.632h17.66v43.545c0.99 0.163 2.13 0.242 3.29 0.242 8.21 0 10.1-2.378 10.1-6.652v-37.135z"/>
  <path d="m494.46 53.658c0-8.957-5.84-13.313-15.12-15.366l-16.27-3.694c-2.96-0.657-5.42-1.563-5.42-4.52 0-3.205 2.54-4.436 9.36-4.436 8.06 0 9.95 0.41 17.26 0.41 3.37 0 6.82-1.562 6.82-8.216 0-0.823-0.08-1.727-0.25-2.549-4.93-0.408-13.72-0.903-24.57-0.903-16.34 0-22.59 7.067-22.59 16.104 0 8.462 5.34 13.15 14.79 15.365l16.27 3.779c3.78 0.9 5.83 2.547 5.83 4.928 0 3.206-2.88 4.438-9.69 4.438-8.05 0-11.75-0.574-19.07-0.574-3.37 0-6.82 1.558-6.82 8.215 0 0.822 0.09 1.724 0.25 2.547 4.93 0.49 15.53 1.068 26.38 1.068 16.36 0 22.86-6.982 22.86-16.597z"/>
 </g>
</svg>
