<?xml version="1.0" encoding="UTF-8" standalone="no"?>
<svg xmlns:rdf="http://www.w3.org/1999/02/22-rdf-syntax-ns#" xmlns="http://www.w3.org/2000/svg" height="83.509" width="600" version="1.1" xmlns:cc="http://creativecommons.org/ns#" xmlns:xlink="http://www.w3.org/1999/xlink" viewBox="0 0 599.99999 83.508636" xmlns:dc="http://purl.org/dc/elements/1.1/">
 <defs>
  <path id="j" d="m490.36 1.689v37.718h423.87c6.45 0 16.25-7.377 16.25-7.377 19.32-13.836 22.38-30.341 22.38-30.341h-462.5z"/>
  <linearGradient id="e" x1="869.23" gradientUnits="userSpaceOnUse" y1="1.685" gradientTransform="matrix(-1.0438 0 0 1.0438 1460.3 0)" x2="869.23" y2="39.405">
   <stop stop-color="#FFF" offset="0"/>
   <stop stop-color="#E7ECF5" offset=".039"/>
   <stop stop-color="#BACAE4" offset=".122"/>
   <stop stop-color="#93ACD4" offset=".21"/>
   <stop stop-color="#7293C7" offset=".303"/>
   <stop stop-color="#577EBC" offset=".403"/>
   <stop stop-color="#426EB3" offset=".51"/>
   <stop stop-color="#3363AE" offset=".631"/>
   <stop stop-color="#2B5CAA" offset=".774"/>
   <stop stop-color="#285AA9" offset="1"/>
  </linearGradient>
  <linearGradient id="g" x1="318.11" gradientUnits="userSpaceOnUse" y1="1.684" gradientTransform="matrix(1.0438 0 0 1.0438 -.00313 0)" x2="318.11" y2="39.405">
   <stop stop-color="#FFF" offset="0"/>
   <stop stop-color="#FAE1E3" offset=".048"/>
   <stop stop-color="#F2B4B9" offset=".13"/>
   <stop stop-color="#EB8D95" offset=".217"/>
   <stop stop-color="#E66C76" offset=".31"/>
   <stop stop-color="#E1515D" offset=".408"/>
   <stop stop-color="#DD3C49" offset=".515"/>
   <stop stop-color="#DB2D3B" offset=".634"/>
   <stop stop-color="#D92533" offset=".776"/>
   <stop stop-color="#D92231" offset="1"/>
  </linearGradient>
  <linearGradient id="h" gradientUnits="userSpaceOnUse" y1="79.989" gradientTransform="matrix(1.0438 0 0 1.0438 -.00313 0)" x2="318.11" x1="318.11">
   <stop stop-color="#D92231" offset="0"/>
   <stop stop-color="#D12130" offset=".193"/>
   <stop stop-color="#BD1F2C" offset=".448"/>
   <stop stop-color="#9D1A26" offset=".735"/>
   <stop stop-color="#7C131D" offset="1"/>
  </linearGradient>
  <linearGradient id="i" x1="75.772" gradientUnits="userSpaceOnUse" y1="1.684" gradientTransform="matrix(1.0438 0 0 1.0438 -.00313 0)" x2="75.772" y2="39.405">
   <stop stop-color="#FFF" offset="0"/>
   <stop stop-color="#E7ECF5" offset=".039"/>
   <stop stop-color="#BACAE4" offset=".122"/>
   <stop stop-color="#93ACD4" offset=".21"/>
   <stop stop-color="#7293C7" offset=".303"/>
   <stop stop-color="#577EBC" offset=".403"/>
   <stop stop-color="#426EB3" offset=".51"/>
   <stop stop-color="#3363AE" offset=".631"/>
   <stop stop-color="#2B5CAA" offset=".774"/>
   <stop stop-color="#285AA9" offset="1"/>
  </linearGradient>
  <path id="f" d="m145.81-0.001h344.54v79.99h-344.54z"/>
  <path id="c" d="m145.81 1.689h344.54v37.718h-344.54z"/>
  <path id="b" d="m5.718 1.689s3.062 16.505 22.382 30.341c0 0 9.802 7.377 16.248 7.377h101.46v-37.718h-140.09z"/>
 </defs>
 <clipPath>
  <use xlink:href="#j" height="100%" width="100%" y="0" x="0" overflow="visible"/>
 </clipPath>
 <clipPath>
  <use xlink:href="#f" height="100%" width="100%" y="0" x="0" overflow="visible"/>
 </clipPath>
 <clipPath>
  <use xlink:href="#c" height="100%" width="100%" y="0" x="0" overflow="visible"/>
 </clipPath>
 <clipPath>
  <use xlink:href="#b" height="100%" width="100%" y="0" x="0" overflow="visible"/>
 </clipPath>
 <path fill="#0e2d6d" d="m152.22 0.00104h-144.63c-4.1777 0-7.59 3.4124-7.59 7.5846v68.342c0 4.17 3.4123 7.581 7.5856 7.581l144.63-0.01v-83.497z"/>
 <path opacity=".8" d="m152.22 1.7578h-146.25c-0.0023 0 3.195 17.227 23.362 31.672 0 0 10.325 7.773 17.05 7.703h105.84v-39.375z" fill="url(#i)"/>
 <path fill="url(#h)" d="m152.22 83.496 359.68-0.006v-83.49h-359.68z"/>
 <path opacity=".8" d="m152.22 1.7578h359.69v39.375h-359.69z" fill="url(#g)"/>
 <path fill="#0e2d6d" d="m511.9 0h80.81c3.88 0 7.29 3.4155 7.29 7.5856v68.331c0 4.17-3.41 7.58-7.58 7.58l-80.52-0.009v-83.488z"/>
 <path opacity=".8" d="m511.9 1.7589h82.13s-3.19 17.226-23.36 31.673c0 0-10.33 7.771-17.05 7.701h-41.72v-39.374z" fill="url(#e)"/>
 <g fill="#fff">
  <path d="m555.85 47.829c6.95 0 9.84 1.908 9.84 5.381 0 3.221-2.89 5.699-11.49 5.699-8.76 0-12.65-1.815-17.12-1.734-3.48 0-6.37 2.902-6.12 9.516 6.2 2.23 15.96 3.637 23.41 3.637 18.69 0 25.39-7.443 25.39-16.372 0-6.542-4.05-10.591-9.84-12.243 5.12-2.066 9.1-5.875 9.1-11.991 0-7.695-5.63-15.383-23.83-15.383-7.85 0-16.54 1.488-22.74 3.304-0.25 6.616 2.81 9.683 5.79 9.683 3.39 0 8.35-1.823 16.37-1.823 10.01 0 10.26 3.553 10.26 6.038 0 3.472-2.73 5.292-9.76 5.292h-15.47c-0.25 0.908-0.58 2.067-0.58 3.802 0 5.625 2.32 7.192 6.95 7.192h9.84z"/>
  <path d="m100.53 77.554c0.99 0.51 3.01 1.116 5.54 1.184 4.35 0.093 6.72-1.572 8.48-5.472l23.32-52.029c-0.96-0.513-3.1-1.088-4.83-1.121-3.01-0.064-7.04 0.545-9.6 6.69l-7.53 17.818-14.82-24.123c-0.96-0.288-3.297-0.704-4.996-0.704-5.245 0-8.157 1.918-11.197 5.216l-14.399 15.744 11.582 18.235c2.144 3.328 4.961 5.024 9.536 5.024 3.009 0 5.504-0.7 6.655-1.245l-13.951-21.023 9.887-10.496 16.223 25.468-9.88 20.834zm-30.603-19.682c0 3.839-1.505 6.051-8.992 6.051-0.992 0-1.854-0.068-2.687-0.196v-50.873c0-3.8717 1.311-7.9051 8.863-7.9051 0.96 0 1.918 0.0981 2.816 0.2881v52.635zm-15.444-7.678c0 7.166-4.672 12.382-14.176 13.407-6.879 0.737-16.83-0.129-21.565-0.672-0.162-0.769-0.289-1.726-0.289-2.496 0-6.241 3.359-7.678 6.526-7.678 3.297 0 8.481 0.574 12.322 0.574 4.253 0 5.533-1.442 5.533-2.815 0-1.794-1.694-2.525-4.991-3.167l-9.023-1.729c-7.488-1.441-11.487-6.624-11.487-12.128 0-6.685 4.735-12.286 14.047-13.309 7.04-0.77 15.614 0.094 20.32 0.67 0.158 0.8 0.254 1.567 0.254 2.4 0 6.24-3.295 7.583-6.463 7.583-2.432 0-6.206-0.448-10.527-0.448-4.386 0-6.208 1.217-6.208 2.687 0 1.568 1.726 2.207 4.48 2.687l8.608 1.601c8.83 1.632 12.639 6.656 12.639 12.832z"/>
  <path d="m218.4 53.659c0-8.957-5.83-13.313-15.12-15.367l-16.26-3.694c-2.96-0.657-5.43-1.563-5.43-4.52 0-3.204 2.55-4.436 9.37-4.436 8.05 0 9.94 0.41 17.25 0.41 3.37 0 6.82-1.562 6.82-8.216 0-0.823-0.08-1.727-0.24-2.549-4.93-0.409-13.72-0.903-24.57-0.903-16.35 0-22.59 7.067-22.59 16.104 0 8.462 5.34 13.15 14.79 15.365l16.26 3.779c3.78 0.899 5.84 2.547 5.84 4.929 0 3.205-2.88 4.438-9.7 4.438-8.05 0-11.75-0.573-19.06-0.573-3.37 0-6.82 1.558-6.82 8.214 0 0.822 0.08 1.723 0.25 2.547 4.93 0.49 15.53 1.068 26.37 1.068 16.36-0.001 22.85-6.983 22.85-16.597z"/>
  <path d="m352.65 39.197v-13.719h12.9c5.51 0 9.86 0.819 9.86 6.57 0 4.845-3.29 7.149-9.86 7.149h-12.91zm-0.08 10.845h6.81l13.17 15.692c2.46 3.039 4.84 4.602 10.43 4.602 3.78 0 6.33-0.491 8.38-1.481l-17.11-19.796c9.62-2.053 14.47-8.302 14.47-17.503 0-11.338-6.91-16.924-20.87-16.924l-19.97-0.081c-6.48 0.245-8.63 2.463-8.63 8.379v46.503c0.99 0.164 2.15 0.243 3.29 0.243 8.22 0 10.11-2.378 10.11-6.652l-0.07-12.982z"/>
  <path d="m237.7 40.677v-15.118h13.39c6.66 0 9.95 2.464 9.95 7.314 0 5.177-3.29 7.805-9.95 7.805h-13.39zm-13.39 28.757c0.99 0.164 2.14 0.243 3.28 0.243 8.22 0 10.11-2.378 10.11-6.652v-11.257h13.97c15.2 0 22.76-6.571 22.76-18.895 0-11.915-7.56-18.241-21.86-18.241h-19.64c-6.57 0-8.62 2.547-8.62 8.38v46.422z"/>
  <path d="m318.88 41.334c0 6.33-1.07 10.761-3.2 13.393-2.06 2.71-5.43 3.943-10.03 3.943-4.68-0.084-8.04-1.396-10.19-3.943-2.13-2.547-3.2-6.983-3.2-13.393 0-6.326 1.15-10.762 3.29-13.31 2.13-2.629 5.5-3.861 10.1-3.861s7.89 1.232 10.03 3.861c2.13 2.548 3.2 6.984 3.2 13.31zm-13.23 28.264c8.62 0 15.28-2.053 19.96-6.243 4.68-4.111 7.07-11.506 7.07-22.021-0.09-10.35-2.47-17.582-7.31-21.856-4.86-4.191-11.42-6.325-19.73-6.325-8.29 0-14.87 2.134-19.71 6.325-4.85 4.274-7.24 11.505-7.32 21.856 0 10.515 2.39 17.91 7.07 22.021 4.69 4.19 11.35 6.243 19.97 6.243z"/>
  <path d="m424.05 25.889h10.76c3.54 0 7.15-1.644 7.15-8.631 0-0.818-0.08-1.806-0.25-2.626h-41.82c-3.53 0-7.15 1.644-7.15 8.625 0 0.825 0.09 1.807 0.26 2.632h17.66v43.544c0.99 0.164 2.13 0.243 3.29 0.243 8.21 0 10.1-2.378 10.1-6.652v-37.135z"/>
  <path d="m494.46 53.659c0-8.957-5.84-13.313-15.12-15.367l-16.27-3.694c-2.96-0.657-5.43-1.563-5.43-4.52 0-3.204 2.55-4.436 9.37-4.436 8.05 0 9.94 0.41 17.25 0.41 3.38 0 6.82-1.562 6.82-8.216 0-0.823-0.07-1.727-0.24-2.549-4.93-0.409-13.72-0.903-24.57-0.903-16.34 0-22.59 7.067-22.59 16.104 0 8.462 5.34 13.15 14.79 15.365l16.27 3.779c3.78 0.899 5.83 2.547 5.83 4.929 0 3.205-2.88 4.438-9.69 4.438-8.05 0-11.75-0.573-19.07-0.573-3.37 0-6.82 1.558-6.82 8.214 0 0.822 0.08 1.723 0.25 2.547 4.93 0.49 15.53 1.068 26.37 1.068 16.36-0.001 22.85-6.983 22.85-16.597z"/>
 </g>
</svg>
