<?xml version="1.0" encoding="UTF-8" standalone="no"?>
<svg xmlns:rdf="http://www.w3.org/1999/02/22-rdf-syntax-ns#" xmlns="http://www.w3.org/2000/svg" height="56.184" viewBox="0 0 600 56.184116" width="600" version="1.1" xmlns:cc="http://creativecommons.org/ns#" xmlns:dc="http://purl.org/dc/elements/1.1/" overflow="visible">
 <path fill="#0e2d6d" d="m102.37 0.001405h-97.269c-2.8066 0-5.101 2.2951-5.101 5.1001v45.958c0 2.804 2.2951 5.097 5.1008 5.097l97.259-0.006v-56.15z"/>
 <linearGradient id="h" y2="39.386" gradientUnits="userSpaceOnUse" y1="1.683" gradientTransform="matrix(.70230 0 0 .70230 .00211 .000703)" x2="75.736" x1="75.736">
  <stop stop-color="#FFF" offset="0"/>
  <stop stop-color="#E7ECF5" offset=".039"/>
  <stop stop-color="#BACAE4" offset=".122"/>
  <stop stop-color="#93ACD4" offset=".21"/>
  <stop stop-color="#7293C7" offset=".303"/>
  <stop stop-color="#577EBC" offset=".403"/>
  <stop stop-color="#426EB3" offset=".51"/>
  <stop stop-color="#3363AE" offset=".631"/>
  <stop stop-color="#2B5CAA" offset=".774"/>
  <stop stop-color="#285AA9" offset="1"/>
 </linearGradient>
 <path opacity=".8" fill="url(#h)" d="m102.37 1.1827h-98.351c0.0003 0 2.15 11.586 15.712 21.299 0 0 6.944 5.227 11.467 5.18h71.172v-26.479z"/>
 <linearGradient id="g" gradientUnits="userSpaceOnUse" y1="79.952" gradientTransform="matrix(.70230 0 0 .70230 .00211 .000703)" x2="317.96" x1="317.96">
  <stop stop-color="#D92231" offset="0"/>
  <stop stop-color="#D12130" offset=".193"/>
  <stop stop-color="#BD1F2C" offset=".448"/>
  <stop stop-color="#9D1A26" offset=".735"/>
  <stop stop-color="#7C131D" offset="1"/>
 </linearGradient>
 <path fill="url(#g)" d="m102.37 56.151 241.88-0.004v-56.146l-241.88-0.000297z"/>
 <linearGradient id="f" y2="39.386" gradientUnits="userSpaceOnUse" y1="1.683" gradientTransform="matrix(.70230 0 0 .70230 .00211 .000703)" x2="317.96" x1="317.96">
  <stop stop-color="#FFF" offset="0"/>
  <stop stop-color="#FAE1E3" offset=".048"/>
  <stop stop-color="#F2B4B9" offset=".13"/>
  <stop stop-color="#EB8D95" offset=".217"/>
  <stop stop-color="#E66C76" offset=".31"/>
  <stop stop-color="#E1515D" offset=".408"/>
  <stop stop-color="#DD3C49" offset=".515"/>
  <stop stop-color="#DB2D3B" offset=".634"/>
  <stop stop-color="#D92533" offset=".776"/>
  <stop stop-color="#D92231" offset="1"/>
 </linearGradient>
 <path opacity=".8" fill="url(#f)" d="m102.37 1.1827h241.88v26.479h-241.88z"/>
 <path fill="#0e2d6d" d="m344.25 0.000703 250.85 0.03371c2.6 0 4.9 2.2965 4.9 5.1008v45.952c0 2.804-2.3 5.097-5.1 5.097l-250.65-0.041v-56.143z"/>
 <linearGradient id="e" x1="729.58" gradientUnits="userSpaceOnUse" y1="1.684" gradientTransform="matrix(-.70230 0 0 .70230 982.5 .000703)" x2="729.58" y2="39.435">
  <stop stop-color="#FFF" offset="0"/>
  <stop stop-color="#E7ECF5" offset=".039"/>
  <stop stop-color="#BACAE4" offset=".122"/>
  <stop stop-color="#93ACD4" offset=".21"/>
  <stop stop-color="#7293C7" offset=".303"/>
  <stop stop-color="#577EBC" offset=".403"/>
  <stop stop-color="#426EB3" offset=".51"/>
  <stop stop-color="#3363AE" offset=".631"/>
  <stop stop-color="#2B5CAA" offset=".774"/>
  <stop stop-color="#285AA9" offset="1"/>
 </linearGradient>
 <path opacity=".8" fill="url(#e)" d="m344.25 1.1834 251.74 0.0337s-2.15 11.585-15.71 21.299c0 0-6.95 5.226-11.47 5.179l-224.56-0.034v-26.478z"/>
 <g fill="#fff">
  <path d="m567.04 35.599v-16.793h4.91c6.84 0 9.33 4.416 9.33 8.395 0 3.983-2.49 8.397-9.33 8.397h-4.91zm21.23-8.398c0-8.743-6.29-14.685-16.71-14.685h-7.1c-3.39 0-4.21 1.798-4.21 4.147v21.118c0 2.267 0.82 4.1 4.21 4.1h7.1c10.42 0.001 16.7-5.932 16.7-14.68m-39.07-3.397v-7.954c0-2.15 0.86-3.518 5.31-3.518 0.55 0 1.02 0.04 1.57 0.117v26.095c0 2.145-0.87 3.511-5.32 3.511-0.54 0-1.01-0.04-1.56-0.115v-11.851h-13.86v8.456c0 2.144-0.86 3.511-5.31 3.511-0.55 0-1.02-0.04-1.56-0.115v-26.091c0-2.15 0.85-3.518 5.31-3.518 0.54 0 1.01 0.04 1.56 0.118v11.355h13.86z"/>
  <path d="m366.3 21.806-0.17 0.052v20.42c0 2.833-0.72 4.611-6.49 4.611-0.83 0-1.38-0.056-2-0.114v-32.348c0-3.166 1.11-5.1615 6.11-5.1615 1.61 0 3.33 0.1102 4.1 0.2205l17.76 25.084 0.17-0.058v-20.753c0-2.884 0.61-4.4935 5.77-4.4935 1.17 0 1.94 0.0547 2.61 0.1622v32.245c0 3.162-1.11 5.161-6.1 5.161-1.61 0-3.34-0.113-4.11-0.225l-17.65-24.803z"/>
  <path d="m516.24 35.847c0-6.052-3.94-8.99-10.21-10.38l-10.98-2.496c-2-0.444-3.67-1.055-3.67-3.054 0-2.161 1.72-2.996 6.33-2.996 5.44 0 6.72 0.276 11.66 0.276 2.27 0 4.6-1.051 4.6-5.547 0-0.555-0.06-1.17-0.17-1.7152-3.33-0.2838-9.26-0.6146-16.59-0.6146-11.04 0-15.26 4.7738-15.26 10.878 0 5.712 3.61 8.879 9.99 10.379l10.99 2.55c2.55 0.612 3.93 1.718 3.93 3.328 0 2.165-1.93 2.996-6.54 2.996-5.44 0-7.94-0.385-12.88-0.385-2.27 0-4.6 1.054-4.6 5.547 0 0.555 0.05 1.163 0.16 1.719 3.33 0.336 10.49 0.721 17.82 0.721 11.05-0.001 15.42-4.715 15.42-11.206z"/>
  <path d="m470.85 12.372c0.45-2.834 3.94-3.9978 9.22-2.5005l-7.61 36.184c-0.66 0.167-2.66 0.777-4.55 0.777-3.77 0-5.99-0.389-6.82-3.554l-5.16-20.09-4.94 20.04c-0.84 3.268-3.28 3.771-6.22 3.771-2.72 0-4.49-0.613-5.16-0.777l-7.49-36.24c5.6-1.6095 9.04-0.3846 9.54 2.611l4 23.303h0.11l6.27-26.026c0.67-0.1645 1.28-0.496 3.28-0.496 3.11 0 5.27 0.667 5.93 3.383l5.55 23.196h0.17l3.88-23.582z"/>
  <path d="m410.03 39.066v-7.05h13.15c3.11 0 4.83-1.113 4.83-5.106 0-0.945-0.11-1.886-0.28-2.5h-17.7v-7.267h13.54c3.11 0 4.83-1.109 4.83-5.107 0-0.942-0.11-1.883-0.28-2.498h-20.25c-5.77 0-6.88 3.056-6.88 6.052v31.077h23.36c3.11 0 4.83-1.11 4.83-5.106 0-0.944-0.11-1.888-0.28-2.495h-18.87z"/>
  <path d="m67.608 52.154c0.668 0.343 2.024 0.751 3.723 0.797 2.928 0.062 4.52-1.057 5.702-3.68l15.688-34.988c-0.646-0.345-2.088-0.732-3.25-0.755-2.023-0.042-4.734 0.367-6.455 4.499l-5.078 11.983-9.968-16.223c-0.646-0.194-2.216-0.473-3.358-0.473-3.528 0-5.486 1.29-7.53 3.507l-9.682 10.588 7.788 12.263c1.441 2.238 3.335 3.378 6.413 3.378 2.023 0 3.702-0.469 4.475-0.837l-9.381-14.138 6.649-7.059 10.91 17.128-6.655 14.01zm-20.579-13.235c0 2.581-1.012 4.069-6.047 4.069-0.668 0-1.247-0.045-1.808-0.132v-34.211c0-2.6045 0.882-5.3161 5.96-5.3161 0.646 0 1.29 0.066 1.894 0.1938v35.396zm-10.386-5.164c0 4.819-3.142 8.328-9.533 9.017-4.626 0.495-11.318-0.088-14.502-0.453-0.108-0.517-0.194-1.161-0.194-1.678 0-4.197 2.259-5.163 4.389-5.163 2.217 0 5.704 0.386 8.286 0.386 2.86 0 3.722-0.969 3.722-1.894 0-1.206-1.14-1.698-3.357-2.129l-6.068-1.162c-5.035-0.97-7.725-4.455-7.725-8.156 0-4.496 3.184-8.262 9.447-8.95 4.734-0.517 10.5 0.064 13.664 0.451 0.107 0.539 0.172 1.054 0.172 1.614 0 4.196-2.217 5.1-4.347 5.1-1.635 0-4.174-0.301-7.08-0.301-2.949 0-4.174 0.818-4.174 1.807 0 1.055 1.161 1.484 3.013 1.806l5.788 1.077c5.938 1.096 8.499 4.475 8.499 8.628z"/>
  <path d="m146.87 36.085c0-6.024-3.92-8.953-10.16-10.333l-10.94-2.485c-1.99-0.442-3.65-1.051-3.65-3.039 0-2.156 1.71-2.983 6.3-2.983 5.41 0 6.69 0.276 11.6 0.276 2.27 0 4.59-1.051 4.59-5.525 0-0.553-0.05-1.162-0.17-1.714-3.31-0.275-9.22-0.6071-16.52-0.6071-10.99 0-15.19 4.7521-15.19 10.829 0 5.691 3.59 8.843 9.94 10.333l10.94 2.541c2.55 0.605 3.93 1.712 3.93 3.314 0 2.156-1.94 2.985-6.52 2.985-5.41 0-7.9-0.386-12.82-0.386-2.27 0-4.59 1.047-4.59 5.524 0 0.552 0.06 1.159 0.17 1.713 3.32 0.329 10.44 0.718 17.73 0.718 10.99 0 15.36-4.696 15.36-11.161z"/>
  <path d="m237.15 26.36v-9.226h8.67c3.71 0 6.63 0.551 6.63 4.419 0 3.258-2.21 4.807-6.63 4.807h-8.67zm-0.05 7.293h4.58l8.86 10.553c1.65 2.043 3.25 3.095 7.01 3.095 2.54 0 4.26-0.331 5.63-0.997l-11.5-13.313c6.47-1.38 9.73-5.583 9.73-11.77 0-7.624-4.64-11.382-14.03-11.382l-13.43-0.0538c-4.36 0.165-5.8 1.6558-5.8 5.6348v31.273c0.66 0.11 1.44 0.163 2.21 0.163 5.52 0 6.79-1.599 6.79-4.473l-0.07-8.731z"/>
  <path d="m159.85 27.355v-10.167h9.01c4.48 0 6.69 1.658 6.69 4.919 0 3.482-2.21 5.248-6.69 5.248h-9zm-9 19.339c0.66 0.11 1.44 0.163 2.21 0.163 5.53 0 6.8-1.599 6.8-4.473v-7.57h9.39c10.22 0 15.3-4.42 15.3-12.708 0-8.012-5.08-12.266-14.69-12.266l-13.21-0.0001c-4.42 0-5.8 1.7131-5.8 5.6351v31.219z"/>
  <path d="m214.44 27.797c0 4.257-0.71 7.237-2.15 9.006-1.38 1.823-3.65 2.652-6.74 2.652-3.15-0.057-5.41-0.939-6.85-2.652-1.44-1.712-2.16-4.695-2.16-9.006 0-4.254 0.78-7.236 2.21-8.951 1.44-1.768 3.7-2.597 6.8-2.597 3.09 0 5.3 0.829 6.74 2.597 1.43 1.714 2.15 4.697 2.15 8.951zm-8.9 19.007c5.8 0 10.28-1.381 13.43-4.199 3.15-2.764 4.76-7.738 4.76-14.808-0.06-6.96-1.66-11.824-4.92-14.697-3.27-2.818-7.68-4.2531-13.27-4.2531-5.57 0-10 1.4351-13.26 4.2531-3.25 2.873-4.86 7.737-4.91 14.697 0 7.071 1.6 12.045 4.75 14.808 3.14 2.818 7.62 4.199 13.41 4.199z"/>
  <path d="m285.16 17.411h7.24c2.38 0 4.81-1.106 4.81-5.804 0-0.551-0.06-1.214-0.17-1.7664h-28.12c-2.37 0-4.81 1.1054-4.81 5.8004 0 0.555 0.06 1.215 0.17 1.77h11.88v29.283c0.66 0.11 1.44 0.163 2.21 0.163 5.52 0 6.79-1.599 6.79-4.473v-24.973z"/>
  <path d="m332.52 36.085c0-6.024-3.93-8.953-10.17-10.333l-10.94-2.485c-1.99-0.442-3.64-1.051-3.64-3.039 0-2.156 1.71-2.983 6.29-2.983 5.42 0 6.69 0.276 11.61 0.276 2.26 0 4.58-1.051 4.58-5.525 0-0.553-0.05-1.162-0.16-1.714-3.32-0.275-9.23-0.6071-16.52-0.6071-11 0-15.2 4.7521-15.2 10.829 0 5.691 3.59 8.843 9.95 10.333l10.94 2.541c2.54 0.605 3.92 1.712 3.92 3.314 0 2.156-1.93 2.985-6.52 2.985-5.41 0-7.9-0.386-12.82-0.386-2.26 0-4.58 1.047-4.58 5.524 0 0.552 0.05 1.159 0.16 1.713 3.32 0.329 10.45 0.718 17.74 0.718 11 0 15.36-4.696 15.36-11.161z"/>
 </g>
</svg>
