<?xml version="1.0" encoding="UTF-8" standalone="no"?>
<svg xmlns:rdf="http://www.w3.org/1999/02/22-rdf-syntax-ns#" xmlns="http://www.w3.org/2000/svg" height="105.66" width="600" version="1.1" xmlns:cc="http://creativecommons.org/ns#" xmlns:xlink="http://www.w3.org/1999/xlink" viewBox="0 0 599.99999 105.66431" xmlns:dc="http://purl.org/dc/elements/1.1/">
 <defs>
  <path id="q" d="m490.36 1.689v37.718h423.87c6.45 0 16.25-7.377 16.25-7.377 19.32-13.836 22.38-30.341 22.38-30.341h-462.5z"/>
  <linearGradient id="b" y2="36.907" gradientUnits="userSpaceOnUse" y1="11.359" gradientTransform="scale(1.3208)" x2="208.58" x1="208.58">
   <stop stop-color="#EBB4B9" offset="0"/>
   <stop stop-color="#E79895" offset=".077"/>
   <stop stop-color="#E37F76" offset=".168"/>
   <stop stop-color="#E0685F" offset=".266"/>
   <stop stop-color="#DD534D" offset=".371"/>
   <stop stop-color="#DB4140" offset=".484"/>
   <stop stop-color="#DA3238" offset=".611"/>
   <stop stop-color="#D92733" offset=".762"/>
   <stop stop-color="#D92432" offset="1"/>
  </linearGradient>
  <linearGradient id="e" y2="24.133" gradientUnits="userSpaceOnUse" y1="24.133" x2="450.63" x1="321.5">
   <stop stop-color="#ABB6CC" offset="0"/>
   <stop stop-color="#98A5C1" offset=".123"/>
   <stop stop-color="#8796B7" offset=".28"/>
   <stop stop-color="#7C8CB0" offset=".457"/>
   <stop stop-color="#7587AC" offset=".668"/>
   <stop stop-color="#7385AB" offset="1"/>
  </linearGradient>
  <mask id="f" height="25.548" width="129.125" y="11.359" x="321.503" maskUnits="userSpaceOnUse">
   <g filter="url(#j)">
    <linearGradient id="h" y2="39.585" gradientUnits="userSpaceOnUse" y1="10.307" x2="241.99" x1="241.99">
     <stop stop-color="#FFF" offset="0"/>
     <stop offset="1"/>
    </linearGradient>
    <path fill="url(#h)" d="m-26.048 9.877h536.08v27.986h-536.08z"/>
   </g>
  </mask>
  <filter id="j" height="25.548" width="129.12" y="11.359" x="321.5" filterUnits="userSpaceOnUse">
   <feColorMatrix values="1 0 0 0 0 0 1 0 0 0 0 0 1 0 0 0 0 0 1 0"/>
  </filter>
  <linearGradient id="k" y2="24.149" gradientUnits="userSpaceOnUse" y1="24.149" x2="95.613" x1="5.045">
   <stop stop-color="#ABB6CC" offset="0"/>
   <stop stop-color="#98A5C1" offset=".123"/>
   <stop stop-color="#8796B7" offset=".28"/>
   <stop stop-color="#7C8CB0" offset=".457"/>
   <stop stop-color="#7587AC" offset=".668"/>
   <stop stop-color="#7385AB" offset="1"/>
  </linearGradient>
  <mask id="l" height="25.557" width="90.568" y="11.371" x="5.045" maskUnits="userSpaceOnUse">
   <g filter="url(#o)">
    <linearGradient id="n" y2="40.039" gradientUnits="userSpaceOnUse" y1="10.761" x2="247.42" x1="247.42">
     <stop stop-color="#FFF" offset="0"/>
     <stop offset="1"/>
    </linearGradient>
    <path fill="url(#n)" d="m-20.618 10.331h536.08v27.986h-536.08z"/>
   </g>
  </mask>
  <filter id="o" height="25.557" width="90.568" y="11.371" x="5.045" filterUnits="userSpaceOnUse">
   <feColorMatrix values="1 0 0 0 0 0 1 0 0 0 0 0 1 0 0 0 0 0 1 0"/>
  </filter>
  <linearGradient id="p" y2="10.703" gradientUnits="userSpaceOnUse" y1="63.143" gradientTransform="scale(1.3208)" x2="208.55" x1="208.55">
   <stop stop-color="#D92231" offset="0"/>
   <stop stop-color="#D12130" offset=".193"/>
   <stop stop-color="#BD1F2C" offset=".448"/>
   <stop stop-color="#9D1A26" offset=".735"/>
   <stop stop-color="#7C131D" offset="1"/>
  </linearGradient>
  <path id="m" d="m145.81-0.001h344.54v79.99h-344.54z"/>
  <path id="i" d="m145.81 1.689h344.54v37.718h-344.54z"/>
  <path id="c" d="m5.718 1.689s3.062 16.505 22.382 30.341c0 0 9.802 7.377 16.248 7.377h101.46v-37.718h-140.09z"/>
 </defs>
 <clipPath>
  <use xlink:href="#q" height="100%" width="100%" y="0" x="0" overflow="visible"/>
 </clipPath>
 <clipPath>
  <use xlink:href="#m" height="100%" width="100%" y="0" x="0" overflow="visible"/>
 </clipPath>
 <clipPath>
  <use xlink:href="#i" height="100%" width="100%" y="0" x="0" overflow="visible"/>
 </clipPath>
 <clipPath>
  <use xlink:href="#c" height="100%" width="100%" y="0" x="0" overflow="visible"/>
 </clipPath>
 <path fill="url(#p)" d="m424.63 14.146-298.36-0.01v69.253l298.36 0.01z"/>
 <path fill="#0e2d6d" d="m424.63 83.399h169.08c3.46 0 6.29-2.83 6.29-6.289v-56.675c0-3.463-2.83-6.289-6.29-6.289h-169.08v69.253zm-298.36-69.273h-119.98c-3.4596 0-6.29 2.832-6.29 6.292v56.69c0 3.461 2.8304 6.291 6.2909 6.291l119.98-0.01v-69.263z"/>
 <path opacity=".8" d="m5.045 11.371c3.124 12.92 21.025 25.557 27.662 25.557h62.906v-25.557h-90.568z" mask="url(#l)" transform="scale(1.3208)" fill="url(#k)"/>
 <path opacity=".8" d="m321.5 11.359 0.02 25.548c60.54 0 101.44-0.434 103.4-0.434 5.8 0 20.63-8.845 25.71-24.997l-129.12-0.117z" mask="url(#f)" transform="scale(1.3208)" fill="url(#e)"/>
 <path opacity=".8" d="m126.32 15.017 0.08 33.728 298.25 0.001-0.02-33.743-298.31 0.014z" fill="url(#b)"/>
 <path fill="#fff" d="m181.16 58.636c0-7.429-4.84-11.044-12.54-12.747l-13.5-3.062c-2.45-0.546-4.49-1.299-4.49-3.749 0-2.659 2.11-3.682 7.76-3.682 6.68 0 8.25 0.339 14.32 0.339 2.79 0 5.65-1.293 5.65-6.812 0-0.682-0.06-1.432-0.2-2.115-4.09-0.341-11.38-0.75-20.38-0.75-13.56 0-18.74 5.864-18.74 13.36 0 7.017 4.43 10.904 12.27 12.744l13.49 3.135c3.14 0.747 4.84 2.112 4.84 4.087 0 2.661-2.38 3.682-8.04 3.682-6.68 0-9.74-0.475-15.81-0.475-2.8 0-5.66 1.296-5.66 6.815 0 0.683 0.07 1.432 0.21 2.115 4.09 0.408 12.88 0.886 21.87 0.886 13.58-0.003 18.95-5.796 18.95-13.771zm111.37-11.996v-11.382h10.7c4.57 0 8.18 0.682 8.18 5.453 0 4.018-2.73 5.929-8.18 5.929h-10.7zm-0.07 8.998h5.66l10.92 13.017c2.04 2.52 4.02 3.817 8.65 3.817 3.13 0 5.25-0.406 6.95-1.226l-14.18-16.427c7.97-1.703 11.99-6.886 11.99-14.518 0-9.408-5.73-14.041-17.31-14.041l-16.56-0.067c-5.38 0.204-7.16 2.045-7.16 6.951v38.577c0.82 0.137 1.78 0.203 2.73 0.203 6.82 0 8.38-1.972 8.38-5.52l-0.06-10.766zm-95.28-7.77v-12.544h11.11c5.52 0 8.25 2.046 8.25 6.067 0 4.294-2.73 6.476-8.25 6.476h-11.11zm-11.11 23.856c0.82 0.136 1.78 0.202 2.73 0.202 6.82 0 8.38-1.972 8.38-5.519v-9.337h11.59c12.61 0 18.88-5.455 18.88-15.678 0-9.881-6.27-15.129-18.13-15.129h-16.29c-5.45 0-7.16 2.113-7.16 6.951v38.511zm78.44-23.312c0 5.25-0.88 8.929-2.65 11.111-1.71 2.248-4.5 3.271-8.32 3.271-3.88-0.07-6.68-1.158-8.45-3.271-1.77-2.114-2.66-5.792-2.66-11.111 0-5.247 0.96-8.928 2.73-11.04 1.77-2.182 4.56-3.202 8.38-3.202s6.54 1.02 8.31 3.202c1.77 2.113 2.66 5.793 2.66 11.04zm-10.97 23.447c7.15 0 12.68-1.704 16.56-5.178 3.88-3.413 5.86-9.545 5.86-18.269-0.07-8.588-2.04-14.584-6.06-18.128-4.03-3.476-9.47-5.247-16.36-5.247-6.88 0-12.34 1.771-16.36 5.247-4.02 3.545-6 9.54-6.06 18.128 0 8.724 1.97 14.856 5.86 18.269 3.87 3.474 9.39 5.178 16.55 5.178zm98.21-36.258h8.93c2.93 0 5.93-1.365 5.93-7.158 0-0.679-0.07-1.499-0.21-2.18h-34.68c-2.93 0-5.93 1.364-5.93 7.156 0 0.685 0.06 1.497 0.2 2.18h14.65v36.124c0.82 0.136 1.78 0.202 2.73 0.202 6.81 0 8.38-1.972 8.38-5.52v-30.804zm58.41 23.035c0-7.429-4.85-11.044-12.54-12.747l-13.5-3.062c-2.45-0.546-4.5-1.299-4.5-3.749 0-2.659 2.12-3.682 7.77-3.682 6.68 0 8.25 0.339 14.31 0.339 2.8 0 5.66-1.293 5.66-6.812 0-0.682-0.06-1.432-0.2-2.115-4.09-0.341-11.38-0.75-20.38-0.75-13.56 0-18.74 5.864-18.74 13.36 0 7.017 4.43 10.904 12.27 12.744l13.49 3.135c3.14 0.747 4.84 2.112 4.84 4.087 0 2.661-2.39 3.682-8.04 3.682-6.68 0-9.75-0.475-15.82-0.475-2.79 0-5.65 1.296-5.65 6.815 0 0.683 0.07 1.432 0.2 2.115 4.09 0.408 12.88 0.886 21.88 0.886 13.55-0.003 18.94-5.796 18.94-13.771zm-326.77 19.822c0.823 0.425 2.495 0.928 4.593 0.982 3.609 0.077 5.573-1.301 7.033-4.538l19.351-43.158c-0.8-0.427-2.58-0.902-4.01-0.931-2.5-0.053-5.84 0.451-7.96 5.548l-6.266 14.783-12.289-20.013c-0.796-0.239-2.734-0.582-4.142-0.582-4.352 0-6.766 1.594-9.289 4.324l-11.944 13.06 9.607 15.127c1.78 2.759 4.115 4.169 7.912 4.169 2.495 0 4.565-0.583 5.52-1.036l-11.572-17.436 8.202-8.707 13.455 21.13-8.202 17.278zm-25.387-16.325c0 3.184-1.248 5.016-7.458 5.016-0.823 0-1.539-0.054-2.23-0.16v-42.199c0-3.212 1.089-6.558 7.353-6.558 0.797 0 1.593 0.079 2.337 0.241v43.66zm-12.81-6.371c0 5.947-3.876 10.272-11.759 11.123-5.706 0.611-13.961-0.107-17.889-0.558-0.133-0.636-0.239-1.43-0.239-2.068 0-5.176 2.787-6.37 5.414-6.37 2.734 0 7.035 0.477 10.219 0.477 3.529 0 4.592-1.196 4.592-2.337 0-1.488-1.406-2.097-4.14-2.63l-7.486-1.433c-6.211-1.195-9.529-5.494-9.529-10.059 0-5.547 3.928-10.192 11.654-11.041 5.839-0.638 12.951 0.079 16.854 0.556 0.132 0.663 0.212 1.301 0.212 1.991 0 5.176-2.734 6.29-5.361 6.29-2.019 0-5.149-0.371-8.733-0.371-3.637 0-5.149 1.009-5.149 2.231 0 1.299 1.433 1.828 3.715 2.228l7.141 1.328c7.323 1.353 10.483 5.521 10.483 10.642zm479.47-38.412 0.08-0.007 0.02-0.002-0.09 0.009zm45.96 18.902c1.02 0.923 0.82 0.787 0.6 0.82-0.35 0.045-3.64-1.671-7.68-0.145-0.96 0.362-1.98 0.771-2.79 1.194-0.8 0.416-2.82 1.717-3.11 1.855-0.25 0.117-3.13 2.538-3.43 2.652-0.31 0.125-0.68 0.189-0.97 0.374-0.63 0.305-1.11 0.811-1.62 1.26-0.21 0.192-0.29 0.832-0.67 0.653 0 0-0.48 0.012-0.89 0.375-0.23 0.099 0 0.249 0.01 0.391l-0.69 0.664c-0.43 0.433-0.91 0.811-1.3 1.273-0.77 0.913-1.52 1.859-2.29 2.778-0.01 0.008-0.15 0.638-0.27 0.753l-1.33 1.34c-0.04 0.093 0.08 0.522 0.22 0.414-0.35 0.502-0.68 1.01-1.07 1.486-0.25 0.308-0.53 0.621-0.73 0.965l-0.52 0.651c-0.13 0.205-0.14 0.43-0.17 0.666l-0.63 1.061c-0.03 0.257-0.92 1.236-1.09 1.486-0.34 0.521-0.69 1.06-1 1.603-0.22 0.375-0.38 0.752-0.63 1.104l-0.62 0.86c-0.22 0.302-1.1 1.21-1.21 1.49-0.1 0.23-0.21 0.392-0.41 0.551-0.49 0.395-0.69 0.882-1.04 1.401-0.35 0.514-0.65 1.049-0.94 1.603-0.27 0.526-0.51 1.004-0.94 1.423-0.46 0.437-0.97 0.802-1.39 1.28-0.38 0.436-0.74 0.87-1.27 1.133-0.28 0.136-0.45 0.511-0.8 0.353 0.03-0.073-0.91 0.508-0.94 0.624-0.16 0.409-0.61 0.349-0.96 0.3-0.46-0.063-0.88 0.056-1.34 0.12-0.25 0.031-1.06 0.043-1.26 0.014-0.45-0.061-0.64-0.386-1.03-0.545-0.01-0.392-0.28-0.608-0.4-0.953-0.13-0.362 0.08-0.947 0.14-1.318 0.06-0.377 0.3-2.034 0.38-2.506 0.07-0.423 0.17-0.839 0.17-1.266 0.01-0.973 0.13-1.895 0.2-2.857 0.07-0.908 0.6-1.723 0.79-2.602 0.13-0.486 0.11-0.991 0.15-1.482 0.04-0.431 0.05-0.86-0.07-1.285-1.45 1.611-3.09 3.067-4.46 4.747-0.63 0.768-1.16 1.57-1.95 2.18-0.37 0.282-0.66 0.577-0.97 0.926-0.15 0.168-0.87 1.032-0.81 0.791-0.13 0.525-0.62 0.424-0.71 0.758-0.3-0.084-1.38 1.029-1.61 1.473-0.31 0.633-1.15 1.22-1.38 1.391-0.35 0.23-0.78 0.173-1.11 0.434-0.3 0.23-0.67-0.037-0.99 0.221-0.21 0.189-0.92 0.272-1.03 0.33 0.03-0.095-0.64 0.309-0.72 0.762-0.05 0.245-0.37 0.321-0.59 0.44-0.2 0.114-0.38 0.096-0.5 0.25-0.03-0.036-0.41 0.05-0.66 0.103-0.24 0.038-0.35-0.263-0.65-0.159-0.6 0.209-0.98 0.308-1.62 0.367-0.73 0.069-1.48 0.003-2.1-0.412-0.51-0.337-0.96-0.463-1.34-0.988-0.31-0.424-0.52-0.931-0.86-1.328-0.33-0.378-0.71-0.745-0.92-1.194-0.18-0.36-0.2-0.834-0.24-1.227-0.07-0.46-0.13-0.926-0.16-1.386-0.1-1.385 0.38-2.804 0.63-4.154 0.31-1.61 0.63-3.162 1.13-4.723 1.03-3.159 2.3-6.226 3.48-9.327 0.53 0.208 0.61-0.926 0.71-0.848-0.9-0.715-3.08 0.755-3.1 0.565l-1.91 1.063c-0.24 0.128-1.25 0.387-1.44 0.101-0.33-0.014-0.64 0.253-0.97 0.282-0.32-0.142-1.1 0.083-1.25 0.118-0.42 0.087-0.85 0.168-1.27 0.239 0 0-2.03-0.649-2.6-1.94-0.57-1.292 0.35-3.975 0.87-4.508 0.58-0.617 2.26-1.783 2.92-2.166 0.28-0.161 1.65-0.552 1.96-0.703 0.66-0.327 1.39-0.494 2.04-0.84 1.57-0.832 3.21-1.459 4.87-2.084 0.88-0.328 1.77-0.655 2.65-0.98l1.32-0.489c0.23-0.079 0.65-0.305 0.89-0.321 1.07-0.082 1.74-1.675 1.93-1.996 0.64-1.124 1.31-2.234 2.01-3.333 1.41-2.23 3.1-4.328 4.68-6.435 0.26-0.332 0.19-0.515 0.49-0.808 0.75-0.736 0.86-1.082 1.64-1.235 0.27-0.222 2.98-1.684 3.32-1.564 0.64-0.254 1.4-0.124 1.87 0.688-0.11-0.193 0.16 0.246 0.31 0.641 0.1 0.307 0.04 2.228-0.05 2.505-0.12 0.363-0.02 1.041-0.26 1.337-0.12 0.145-0.41 1.336-0.46 1.437-0.12 0.23-0.54 1.581-0.53 1.849-0.03 0.422-0.41 0.961-0.15 1.368 0.17 0.271 0.58 0.201 0.84 0.151 2.19-0.412 4.33-0.926 6.49-1.498 1.18-0.317 2.39-0.618 3.6-0.812 0.81-0.126 1.7-0.097 2.46-0.455 0.94-0.439 1.72-0.969 2.79-1.044 0.51-0.031 0.44 0.095 0.93-0.066 0.18-0.063 0.47-0.097 0.66-0.031 0.03 0.012 0.49 0.012 0.51 0.003 0.55-0.197 0.24-0.143 0.82 0.082-0.31 0.086 0.87-0.017 0.42 0.083 0.74 0.42 0.05-0.034 0.72 0.21-0.07 0.189 0.67 0.124 0.53 0.197-0.21 0.108 0.93 0.627 0.7 0.525 0.6 0.25 1.39 0.585 1.97 0.751 1.11 0.71 2.1 0.215 0.48 1.482-2.6 2.026-4.23 2.3-5.35 2.827-1.13 0.521-7.48 2.881-8.35 3.183-0.31 0.113-0.54 0.479-0.84 0.625-0.3 0.14-0.62 0.251-0.93 0.365-1.82 0.664-3.62 1.363-5.45 1.984-1.69 0.574-3.4 1.184-4.91 2.175l-0.08 0.263c-0.51 0.524-0.99 0.083-1.43 0.656l0.13 0.171c-1.14 0.277-2.13 1.09-3.28 1.327-0.02 0.432-0.43 0.671-0.62 1.027-0.13 0.241-0.05 0.498-0.15 0.748-0.3 0.777-0.77 1.491-1.14 2.226-0.5 1.018-1.05 1.994-1.51 3.031l-1.64 3.584c-1.06 2.345-2.07 4.741-2.65 7.262l-0.29 1.556c-0.09 0.321-0.2 0.884 0.29 0.915 0.95 0.074 1.87-1.12 2.45-1.718 2.26-2.375 4.63-4.648 6.94-6.986 2.21-2.244 4.45-4.46 6.81-6.553 1.17-1.047 2.38-2.062 3.62-3.033 1.09-0.853 2.29-1.993 3.72-2.208 0.36-0.056 0.73-0.028 1.07 0.136 0.29 0.145 1.51 1.504 1.65 2.138 0.18 0.744 0.27 1.559-0.04 2.28-0.12 0.268-0.27 2.044-0.27 2.183 0 0.32-0.17 0.717-0.06 1.017l0.15 0.613c0.08 0.17 0.52-0.651 0.69-0.892 1.05-1.468 2.44-2.544 3.53-3.771 2.13-2.386 4.2-4.801 6.6-6.913 2.35-2.077 4.06-3.151 6.74-4.781 0.4-0.049 1.56-0.869 1.89-1.066 0.31-0.189 0.62-0.276 0.97-0.359 0.65-0.164 0.99-0.291 1.62-0.545 1.45-0.591 1.89-0.687 3.42-0.611 0.44 0.02 1.65 0.012 2.93 0.389 1.26 0.373 4.25 2.632 4.36 2.95"/>
 <path fill="#fff" d="m583.08 68.071c-0.86-0.011-1.57-0.391-2.34-0.713-0.54-0.232-1.26-0.72-1.61-0.962-0.63-0.453-1.11-1.013-1.58-1.64-0.47-0.626-0.87-1.288-1.24-1.97-0.36-0.698-0.61-1.476-1.01-2.15-0.85-1.417-0.71-2.915-0.95-4.496-0.13-0.776-0.11-1.576-0.3-2.35-0.06-0.287-0.12-1.32-0.39-1.528-0.01-0.251-0.35-0.598-0.47-0.8-0.26-0.384-0.47-0.783-0.68-1.191-0.11-0.234-0.27-0.484-0.32-0.736-0.05-0.25 0.1-0.54-0.04-0.762-0.04-0.085-0.14-0.382-0.25-0.342-0.19-0.191-0.66-0.191-0.63-0.258-0.15-0.022-0.33-0.169-0.38-0.164-0.37-0.158-1.37-0.379-1.93-0.318l-0.77 0.201c-0.26 0.01-0.47-0.239-0.74-0.115-0.42-0.054-0.27-0.46-0.2-0.741 0.09-0.277 0.03-0.522-0.03-0.799-0.12-0.585-0.28-1.16-0.43-1.73-0.01-0.011-0.22-0.703-0.24-0.661l-0.19-0.429c-0.11-0.225-0.31-0.388-0.45-0.584-0.24-0.152-0.51-0.477-2.15-0.434-0.43 0.034-0.84-0.13-1.26-0.139-0.37-0.017-1.25 0.33-1.4 0.425-0.2 0.124-0.46 0.19-0.68 0.264-0.45 0.147-0.88 0.209-1.26 0.481-0.34 0.23-1.51 1.055-1.94 1.345-0.62 0.416-1.14 0.941-1.72 1.4-0.29 0.22-0.81 0.5-0.99 0.842-0.17 0.339-0.5 0.559-0.74 0.85-0.21 0.261-1.21 1.77-1.61 2.271-0.41 0.53-0.75 1.12-1.09 1.703l-0.38 0.629c-0.15 0.232-0.47 0.513-0.47 0.807 0 0.121-0.26 0.35-0.33 0.488l-0.45 0.821c-0.78 1.592-1.6 3.15-2.19 4.842-0.37 1.039-0.64 2.097-0.87 3.176-0.12 0.52-0.21 1.043-0.31 1.567-0.08 0.434-0.17 1.915-0.2 1.997 0.09 0.985 0.05 1.999 0.39 2.945 0.3 0.87 0.7 1.598 1.39 2.215 0.65 0.56 1.39 0.952 2.16 1.342 0.49 0.255 1.13 0.606 1.8 0.342 0-0.157 0.15-0.164 0.09-0.428 0.04 0.149 0.82-0.363 1.41-0.543 0.13-0.037 1.22-0.289 1.51-0.411l0.31 0.117c0.37-0.105 0.61-0.309 0.97-0.438 0.34-0.134 0.33-0.447 0.58-0.686 0.37-0.373 1.07-0.895 1.45-1.29 0.15-0.12 1.02-1.446 1.16-1.791 0.2-0.091 0.51-0.532 0.62-0.733 0.22-0.417 0.46-0.807 0.72-1.2 0.52-0.74 1.03-1.44 1.48-2.216 0.32-0.535 0.67-1.035 1.03-1.542 0.28-0.42 0.57-0.801 0.79-1.27 0.09-0.2 0.2-0.401 0.33-0.578 0.22-0.299 0.28 0.041 0.49-0.06 0.25 0.112 0.25 0.696 0.35 0.943 0.21 0.449 0.26 0.951 0.42 1.435 0.35 1.066 0.64 2.06 1.18 3.047 1.02 1.902 2.02 3.849 3.65 5.311 1.09 0.976 2.55 1.499 3.97 1.814 0.36 0.078 0.72 0.156 1.09 0.206l0.96 0.12c0.31 0.038 0.73 0.065 1.07-0.004 0.23-0.051 2.36 0.221 5.22-2.24l2.94-2.828c-0.62 0.222-1.73 0.329-2.36 0.325zm-17.4-19.039c-0.16 0.082-0.89 0.334-1.2 0.791-0.14 0.199-0.01 0.478-0.03 0.721 0.05-0.029-0.06 0.596-0.22 0.74-0.26 0.244-0.18 0.479-0.34 0.763 0 0-0.31 0.263-0.32 0.372-0.27-0.015-0.33 0.671-0.25 0.843 0.07 0.18 0.02 0.165-0.09 0.361l-0.21 0.443c-0.16 0.349-0.59 0.951-0.59 0.951-0.28 0.798-0.84 1.46-1.15 2.342 0 0-0.62 1.094-0.7 1.246-0.14 0.269-0.24 0.552-0.41 0.801-0.19 0.296-1.36 1.724-1.56 2.176-0.23 0.524-0.46 0.968-0.81 1.43-0.35 0.478-0.64 1.042-0.97 1.547-0.21 0.31-0.41 1.006-0.81 1.111-0.09-0.262-0.09-0.76-0.08-1.031 0.03-0.274 0.03-0.554 0.08-0.829l0.12-0.77 0.13-0.493c0.36-1.257 1.4-2.448 1.4-3.826 0.27-0.242 0.3-0.646 0.43-0.958 0.13-0.288 0.73-1.442 0.81-1.699 0.08-0.255 0.14-0.617 0.27-0.817 0.11-0.17 0.64-1.037 0.89-1.331 0.28-0.33 0.44-0.819 0.67-1.199 0.03-0.055 0.71-0.795 0.69-0.916 0.22 0.031 0.26-0.276 0.37-0.387l0.69-0.536c0.47-0.507 0.93-1.057 1.51-1.451 0.11-0.08 0.99-0.56 1.12-0.497 0.19-0.189 0.62-0.263 0.86-0.349-0.02 0.074-0.27 0.427-0.31 0.452zm-40.3-45.195c-2.05 0.7977-4.22 1.7012-5.96 3.0589-0.62-0.3328-0.54 0.4623-0.88 0.6591-2.14 1.3683-3.82 3.1821-5.79 4.4621 0.26 0.155 0.2 0.501-0.09 0.582l-0.88 0.655 0.17 0.213c-2.6 2.143-5.46 4.99-8.19 7.464-0.29 0.661-0.55 1.53-1.25 1.787l0.16 0.218c-0.92 0.653-1.33 1.024-1.85 1.894 0.11-0.187-0.04-0.282-0.13-0.418l-0.45 0.337 0.17 0.221-0.21-0.007-0.43 0.304c0.57 0.948-0.84 0.857-1 1.426-0.1-0.135-0.15-0.298-0.36-0.249l-0.22 0.165c0.11 0.137 0.24 0.229 0.14 0.412l-0.16-0.213c-0.15 0.169-0.51 0.236-0.48 0.515l0.17 0.221-0.43 0.33c-0.08 0.501 0.05-0.193-0.18-0.226-0.89 0.186 0.09 0.803-0.55 1.099l-0.33-0.44c-0.13 0.101-0.29 0.159-0.25 0.357l0.33 0.441c-0.23-0.032-0.47-0.025-0.55-0.275-0.14 0.095-0.3 0.149-0.25 0.35 0.1 0.142 0.16 0.305 0.35 0.256-1.74 0.613-2.23 2.896-3.9 3.753-1.63 1.69-2.28 3.447-3.91 5.14l0.17 0.222c0.84-0.869 1.45-1.29 2.1-2.26-1.08 2.046-3.33 3.409-3.99 5.719l0.11 0.204c-0.13 0.103-0.25 0.164-0.2 0.37l0.17 0.224c0.5-0.674 1.08-0.946 1.6-1.539-0.92 2.785-3.39 4.07-4.72 6.594 0.03 0.388 0.19 0.733 0.39 1.068l0.12 0.139 1.36 1.803-0.59-0.124c0.3 0.692 0.57 0.928 0.98 1.685l0.34 0.718 0.2-0.005c-0.01 0.288 0.04 0.489 0.15 0.861l0.16 0.399c0.19 0.423 0.41 0.851 0.65 1.276l0.5 2.063c0.24 0.423 0.47 0.849 0.67 1.279 0.66 1.402 1.79 2.371 2.64 3.67 1.08 1.625 1.91 4.322 2.5 5.835 1.32 3.388 3.57 5.194 4.77 8.714 0.64 1.891 1.71 3.254 2.74 5.048 0.34 0.614 0.72 1.148 1.11 1.657 0.2 0.249 0.44 0.463 0.58 0.737 0.57 1.015 1.81 2.189 1.24 2.831-0.24 0.284 0.86 1.723 1.4 2.822l0.41 0.618c0.44 0.714 0.47 1.468 0.47 1.468l0.15 0.349c0.47 0.421 1.36 2.576 1.8 3.688l0.05-0.01 0.11 0.425 0.1 0.252-0.03 0.067c0.23 1.087 0.31 2.251 0.2 3.354-0.06 0.74-0.2 1.56-0.44 2.53l-0.23-0.01c-0.31 0.62 0 1.17-0.53 1.56l-0.41-0.14c0.21 0.8-0.63 0.28-0.92 0.52-0.8-0.67-0.92 0.78-2.13 0.48-1.18 0.76-2.28-1.27-3.51-0.65-0.02-1.59-1.92-2.02-2.11-3.53-0.94-1.312-2.43-2.485-3.06-3.99-0.94-1.654-1.08-3.512-1.98-5.254-0.54-0.88-0.18 0.742-0.7-0.15l0.15 1.226-0.46-0.862 0.03-0.006c-0.4-0.742-1.51-1.092-1.86-1.874l-0.17-0.407c-1.17-1.861-2.27-3.312-3.24-5.253l0.23-0.163c0.5 0.265 0.76 0.899 1.17 1.351l0.22-0.161c-1.01-1.469-1.94-2.988-2.82-4.521-2.56-2.592-3.51-5.804-4.93-8.976-1.25-2.791-3.5-4.4-5.15-6.898-0.65-0.976-1.16-1.783-1.54-2.584-0.04 0.384 0.4 0.837 0.33 1.289 0.33 0.717 1.3 1.607 1.39 2.561-0.29-1.259-1.56-2.469-2.52-2.93l-0.22 0.168-0.66-0.885c-0.54 0.509-0.85 1.528-1.61 1.536 0.26 0.943-0.76 0.908-1.21 1.596 0.1 0.638-0.48 1.419-0.89 2.031-0.72 0.328-0.94 1.008-1.22 1.589l-0.16-0.215c-0.14 0.099-0.3 0.152-0.25 0.352-0.13 0.813-0.93 1.758-1.56 2.53-2.88 3.583-5.12 7.681-7.87 11.389-1.95 2.61-4.15 5.016-7.03 6.888-0.92 1.595-2.88 3.164-4.79 3.036l-0.16-0.222c-0.26 0.437-0.5-0.112-0.77-0.112-0.14-0.609-1.52-0.104-2.06-0.7-1.05-0.115-1.32-1.526-2.31-1.712 0.78-0.755-0.22-1.723 0.56-2.482 0.42-0.414 1.01-1.232 1.61-1.537-0.01-0.507 0.27-1.338 0.66-1.865l0.17 0.221c0.13-0.098 0.3-0.159 0.24-0.366-0.09-0.128-0.14-0.291-0.35-0.246l0.44-0.329-0.16-0.218c0.28-0.838 0.75-1.561 1.29-2.234 1.35-1.684 3.2-3.063 4.12-5.041 6.04-7.576 11.09-15.885 17.57-23.004 0.54-0.63 0.95-1.549 0.93-2.232-0.14 0.103-0.24 0.246-0.42 0.144-0.1-0.131-0.24-0.238-0.13-0.423l0.16 0.221c0.43-0.761-0.22-1.681-0.62-2.45-0.18-0.111-0.28 0.033-0.42 0.132l0.03 1.191c-0.73-1.767-2.4-3.472-2.79-5.14-1.42-0.526-1.1-2.171-2.3-3.101-1.15-3.154-3.01-5.482-4.42-8.723-0.56 0.313 0 0.791 0.02 1.184-2.13-3.988-4.15-8.611-6.23-12.919l-0.1-0.223c-0.64-1.592-0.41-3.408 0.52-4.846 0.49-0.952 1.87-1.773 2.67-2.164-0.43-0.459 0.24-0.752 0.37-1.129 0.99-0.837 1.45-2.35 2.93-2.516-0.35-0.291 0.03-0.711 0.15-0.9682 0.48-0.0449 0.86-0.5402 1.29-0.7938 0.46 0.144 1.12 0.1665 1.46 0.8057 2.3 3.1623 4.14 6.5533 5.92 9.9623 2.02 3.869 3.99 7.753 6.49 11.366l-0.22 0.165 0.49 0.66 0.22-0.163c1.45 3.014 3.43 5.387 5.28 8.26l0.39 0.058c3.69-3.392 6.51-7.068 10.16-10.112 0.81-0.944 1.85-2.414 2.95-2.72l0.22-0.158-0.16-0.223c0.67-0.568 1.12-1.452 2.02-1.67l-0.17-0.222 1.09-0.992c9.8-8.958 19.22-18.36 31.82-23.104 0.72-0.60902 1.53-0.76092 2.31-1.033 0 0.27208-0.55 0.49926-0.11 0.76606 0.33-0.07264-1.88 1.8504-3.2 3.0721zc-2.05 0.7977-4.22 1.7012-5.96 3.0589-0.62-0.3328-0.54 0.4623-0.88 0.6591-2.14 1.3683-3.82 3.1821-5.79 4.4621 0.26 0.155 0.2 0.501-0.09 0.582l-0.88 0.655 0.17 0.213c-2.6 2.143-5.46 4.99-8.19 7.464-0.29 0.661-0.55 1.53-1.25 1.787l0.16 0.218c-0.92 0.653-1.33 1.024-1.85 1.894 0.11-0.187-0.04-0.282-0.13-0.418l-0.45 0.337 0.17 0.221-0.21-0.007-0.43 0.304c0.57 0.948-0.84 0.857-1 1.426-0.1-0.135-0.15-0.298-0.36-0.249l-0.22 0.165c0.11 0.137 0.24 0.229 0.14 0.412l-0.16-0.213c-0.15 0.169-0.51 0.236-0.48 0.515l0.17 0.221-0.43 0.33c-0.08 0.501 0.05-0.193-0.18-0.226-0.89 0.186 0.09 0.803-0.55 1.099l-0.33-0.44c-0.13 0.101-0.29 0.159-0.25 0.357l0.33 0.441c-0.23-0.032-0.47-0.025-0.55-0.275-0.14 0.095-0.3 0.149-0.25 0.35 0.1 0.142 0.16 0.305 0.35 0.256-1.74 0.613-2.23 2.896-3.9 3.753-1.63 1.69-2.28 3.447-3.91 5.14l0.17 0.222c0.84-0.869 1.45-1.29 2.1-2.26-1.08 2.046-3.33 3.409-3.99 5.719l0.11 0.204c-0.13 0.103-0.25 0.164-0.2 0.37l0.17 0.224c0.5-0.674 1.08-0.946 1.6-1.539-0.92 2.785-3.39 4.07-4.72 6.594 0.03 0.388 0.19 0.733 0.39 1.068l0.12 0.139 1.36 1.803-0.59-0.124c0.3 0.692 0.57 0.928 0.98 1.685l0.34 0.718 0.2-0.005c-0.01 0.288 0.04 0.489 0.15 0.861l0.16 0.399c0.19 0.423 0.41 0.851 0.65 1.276l0.5 2.063c0.24 0.423 0.47 0.849 0.67 1.279 0.66 1.402 1.79 2.371 2.64 3.67 1.08 1.625 1.91 4.322 2.5 5.835 1.32 3.388 3.57 5.194 4.77 8.714 0.64 1.891 1.71 3.254 2.74 5.048 0.34 0.614 0.72 1.148 1.11 1.657 0.2 0.249 0.44 0.463 0.58 0.737 0.57 1.015 1.81 2.189 1.24 2.831-0.24 0.284 0.86 1.723 1.4 2.822l0.41 0.618c0.44 0.714 0.47 1.468 0.47 1.468l0.15 0.349c0.47 0.421 1.36 2.576 1.8 3.688l0.05-0.01 0.11 0.425 0.1 0.252-0.03 0.067c0.23 1.087 0.31 2.251 0.2 3.354-0.06 0.74-0.2 1.56-0.44 2.53l-0.23-0.01c-0.31 0.62 0 1.17-0.53 1.56l-0.41-0.14c0.21 0.8-0.63 0.28-0.92 0.52-0.8-0.67-0.92 0.78-2.13 0.48-1.18 0.76-2.28-1.27-3.51-0.65-0.02-1.59-1.92-2.02-2.11-3.53-0.94-1.312-2.43-2.485-3.06-3.99-0.94-1.654-1.08-3.512-1.98-5.254-0.54-0.88-0.18 0.742-0.7-0.15l0.15 1.226-0.46-0.862 0.03-0.006c-0.4-0.742-1.51-1.092-1.86-1.874l-0.17-0.407c-1.17-1.861-2.27-3.312-3.24-5.253l0.23-0.163c0.5 0.265 0.76 0.899 1.17 1.351l0.22-0.161c-1.01-1.469-1.94-2.988-2.82-4.521-2.56-2.592-3.51-5.804-4.93-8.976-1.25-2.791-3.5-4.4-5.15-6.898-0.65-0.976-1.16-1.783-1.54-2.584-0.04 0.384 0.4 0.837 0.33 1.289 0.33 0.717 1.3 1.607 1.39 2.561-0.29-1.259-1.56-2.469-2.52-2.93l-0.22 0.168-0.66-0.885c-0.54 0.509-0.85 1.528-1.61 1.536 0.26 0.943-0.76 0.908-1.21 1.596 0.1 0.638-0.48 1.419-0.89 2.031-0.72 0.328-0.94 1.008-1.22 1.589l-0.16-0.215c-0.14 0.099-0.3 0.152-0.25 0.352-0.13 0.813-0.93 1.758-1.56 2.53-2.88 3.583-5.12 7.681-7.87 11.389-1.95 2.61-4.15 5.016-7.03 6.888-0.92 1.595-2.88 3.164-4.79 3.036l-0.16-0.222c-0.26 0.437-0.5-0.112-0.77-0.112-0.14-0.609-1.52-0.104-2.06-0.7-1.05-0.115-1.32-1.526-2.31-1.712 0.78-0.755-0.22-1.723 0.56-2.482 0.42-0.414 1.01-1.232 1.61-1.537-0.01-0.507 0.27-1.338 0.66-1.865l0.17 0.221c0.13-0.098 0.3-0.159 0.24-0.366-0.09-0.128-0.14-0.291-0.35-0.246l0.44-0.329-0.16-0.218c0.28-0.838 0.75-1.561 1.29-2.234 1.35-1.684 3.2-3.063 4.12-5.041 6.04-7.576 11.09-15.885 17.57-23.004 0.54-0.63 0.95-1.549 0.93-2.232-0.14 0.103-0.24 0.246-0.42 0.144-0.1-0.131-0.24-0.238-0.13-0.423l0.16 0.221c0.43-0.761-0.22-1.681-0.62-2.45-0.18-0.111-0.28 0.033-0.42 0.132l0.03 1.191c-0.73-1.767-2.4-3.472-2.79-5.14-1.42-0.526-1.1-2.171-2.3-3.101-1.15-3.154-3.01-5.482-4.42-8.723-0.56 0.313 0 0.791 0.02 1.184-2.13-3.988-4.15-8.611-6.23-12.919l-0.1-0.223c-0.64-1.592-0.41-3.408 0.52-4.846 0.49-0.952 1.87-1.773 2.67-2.164-0.43-0.459 0.24-0.752 0.37-1.129 0.99-0.837 1.45-2.35 2.93-2.516-0.35-0.291 0.03-0.711 0.15-0.9682 0.48-0.0449 0.86-0.5402 1.29-0.7938 0.46 0.144 1.12 0.1665 1.46 0.8057 2.3 3.1623 4.14 6.5533 5.92 9.9623 2.02 3.869 3.99 7.753 6.49 11.366l-0.22 0.165 0.49 0.66 0.22-0.163c1.45 3.014 3.43 5.387 5.28 8.26l0.39 0.058c3.69-3.392 6.51-7.068 10.16-10.112 0.81-0.944 1.85-2.414 2.95-2.72l0.22-0.158-0.16-0.223c0.67-0.568 1.12-1.452 2.02-1.67l-0.17-0.222 1.09-0.992c9.8-8.958 19.22-18.36 31.82-23.104 0.72-0.60902 1.53-0.76092 2.31-1.033 0 0.27208-0.55 0.49926-0.11 0.76606 0.33-0.07264-1.88 1.8504-3.2 3.0721z"/>
</svg>
