<?xml version="1.0" encoding="UTF-8" standalone="no"?>
<svg xmlns:rdf="http://www.w3.org/1999/02/22-rdf-syntax-ns#" xmlns="http://www.w3.org/2000/svg" height="83.53" width="600" version="1.1" xmlns:cc="http://creativecommons.org/ns#" xmlns:xlink="http://www.w3.org/1999/xlink" viewBox="0 0 599.99999 83.529722" xmlns:dc="http://purl.org/dc/elements/1.1/">
 <defs>
  <path id="e" d="m490.36 1.689v37.718h423.87c6.45 0 16.25-7.377 16.25-7.377 19.32-13.836 22.38-30.341 22.38-30.341h-462.5z"/>
  <linearGradient id="f" x1="502.9" gradientUnits="userSpaceOnUse" y1="2.85" gradientTransform="matrix(-.61716 0 0 .61716 863.38 .02839)" x2="502.9" y2="66.65">
   <stop stop-color="#FFF" offset="0"/>
   <stop stop-color="#E7ECF5" offset=".0394"/>
   <stop stop-color="#BACAE4" offset=".1217"/>
   <stop stop-color="#93ACD4" offset=".2101"/>
   <stop stop-color="#7293C7" offset=".3032"/>
   <stop stop-color="#577EBC" offset=".4025"/>
   <stop stop-color="#426EB3" offset=".5103"/>
   <stop stop-color="#3363AE" offset=".6308"/>
   <stop stop-color="#2B5CAA" offset=".7742"/>
   <stop stop-color="#285AA9" offset="1"/>
  </linearGradient>
  <linearGradient id="g" x1="538.1" gradientUnits="userSpaceOnUse" y1="2.848" gradientTransform="matrix(.61716 0 0 .61716 -.00617 .02839)" x2="538.1" y2="66.65">
   <stop stop-color="#FFF" offset="0"/>
   <stop stop-color="#FAE1E3" offset=".0484"/>
   <stop stop-color="#F2B4B9" offset=".1298"/>
   <stop stop-color="#EB8D95" offset=".2174"/>
   <stop stop-color="#E66C76" offset=".3096"/>
   <stop stop-color="#E1515D" offset=".4081"/>
   <stop stop-color="#DD3C49" offset=".5148"/>
   <stop stop-color="#DB2D3B" offset=".6342"/>
   <stop stop-color="#D92533" offset=".7763"/>
   <stop stop-color="#D92231" offset="1"/>
  </linearGradient>
  <linearGradient id="h" y2=".00048830" gradientUnits="userSpaceOnUse" y1="135.3" x2="538.1" x1="538.1">
   <stop stop-color="#D92231" offset="0"/>
   <stop stop-color="#D12130" offset=".1931"/>
   <stop stop-color="#BD1F2C" offset=".4477"/>
   <stop stop-color="#9D1A26" offset=".7352"/>
   <stop stop-color="#7C131D" offset="1"/>
  </linearGradient>
  <linearGradient id="i" x1="128.2" gradientUnits="userSpaceOnUse" y1="2.848" gradientTransform="matrix(.61716 0 0 .61716 -.00617 .02839)" x2="128.2" y2="66.65">
   <stop stop-color="#FFF" offset="0"/>
   <stop stop-color="#E7ECF5" offset=".0394"/>
   <stop stop-color="#BACAE4" offset=".1217"/>
   <stop stop-color="#93ACD4" offset=".2101"/>
   <stop stop-color="#7293C7" offset=".3032"/>
   <stop stop-color="#577EBC" offset=".4025"/>
   <stop stop-color="#426EB3" offset=".5103"/>
   <stop stop-color="#3363AE" offset=".6308"/>
   <stop stop-color="#2B5CAA" offset=".7742"/>
   <stop stop-color="#285AA9" offset="1"/>
  </linearGradient>
  <path id="d" d="m145.81-0.001h344.54v79.99h-344.54z"/>
  <path id="c" d="m145.81 1.689h344.54v37.718h-344.54z"/>
  <path id="b" d="m5.718 1.689s3.062 16.505 22.382 30.341c0 0 9.802 7.377 16.248 7.377h101.46v-37.718h-140.09z"/>
 </defs>
 <clipPath>
  <use xlink:href="#e" height="100%" width="100%" y="0" x="0" overflow="visible"/>
 </clipPath>
 <clipPath>
  <use xlink:href="#d" height="100%" width="100%" y="0" x="0" overflow="visible"/>
 </clipPath>
 <clipPath>
  <use xlink:href="#c" height="100%" width="100%" y="0" x="0" overflow="visible"/>
 </clipPath>
 <clipPath>
  <use xlink:href="#b" height="100%" width="100%" y="0" x="0" overflow="visible"/>
 </clipPath>
 <path fill="#0e2d6d" d="m152.25 0.02962h-144.67c-4.1684 0-7.58 3.4123-7.58 7.5849v68.32c0 4.17 3.4123 7.578 7.5849 7.578l144.67-0.009v-83.502z"/>
 <path opacity=".8" d="m152.25 1.786h-146.27c0.0002 0 3.1971 17.231 23.366 31.673 0 0 10.325 7.77 17.052 7.702h105.84v-39.375z" fill="url(#i)"/>
 <polygon points="829.5 135.3 829.5 0 246.7 0 246.7 135.3" fill="url(#h)" transform="matrix(.61716 0 0 .61716 -.00617 .02839)"/>
 <rect opacity=".8" height="39.375" width="359.68" y="1.7861" x="152.25" fill="url(#g)"/>
 <path fill="#0e2d6d" d="m511.93 0.02839h80.78c3.88 0 7.29 3.4147 7.29 7.5848v68.32c0 4.17-3.41 7.578-7.58 7.578l-80.54-0.01v-83.501z"/>
 <path opacity=".8" d="m511.93 1.7873h82.14s-3.2 17.225-23.37 31.673c0 0-10.32 7.77-17.05 7.702h-41.72v-39.375z" fill="url(#f)"/>
 <g fill="#fff">
  <path d="m100.53 77.605c0.99 0.511 3.01 1.118 5.54 1.185 4.35 0.093 6.72-1.572 8.47-5.472l23.33-52.033c-0.96-0.512-3.1-1.087-4.83-1.121-3.01-0.064-7.04 0.545-9.6 6.69l-7.55 17.818-14.82-24.125c-0.96-0.288-3.294-0.704-4.993-0.704-5.246 0-8.159 1.919-11.195 5.215l-14.398 15.744 11.584 18.237c2.144 3.328 4.961 5.024 9.535 5.024 3.008 0 5.505-0.699 6.653-1.245l-13.948-21.027 9.887-10.497 16.225 25.47-10 20.866zm-30.612-19.7c0 3.84-1.506 6.052-8.992 6.052-0.993 0-1.855-0.068-2.688-0.197v-50.897c0-3.871 1.311-7.9054 8.862-7.9054 0.961 0 1.919 0.0975 2.817 0.2882v52.637zm-15.435-7.683c0 7.165-4.672 12.38-14.176 13.404-6.882 0.737-16.83-0.129-21.564-0.672-0.162-0.769-0.289-1.726-0.289-2.495 0-6.24 3.359-7.678 6.529-7.678 3.297 0 8.48 0.574 12.319 0.574 4.254 0 5.534-1.442 5.534-2.815 0-1.794-1.695-2.526-4.992-3.167l-9.029-1.691c-7.486-1.442-11.485-6.622-11.485-12.127 0-6.684 4.735-12.288 14.046-13.306 7.042-0.769 15.614 0.094 20.323 0.67 0.159 0.801 0.255 1.567 0.255 2.4 0 6.24-3.296 7.585-6.462 7.585-2.432 0-6.209-0.449-10.529-0.449-4.385 0-6.208 1.218-6.208 2.688 0 1.568 1.727 2.207 4.48 2.687l8.609 1.601c8.832 1.635 12.64 6.659 12.64 12.83z"/>
  <path d="m218.41 53.69c0-8.955-5.84-13.312-15.12-15.367l-16.27-3.694c-2.96-0.658-5.43-1.564-5.43-4.52 0-3.205 2.55-4.437 9.37-4.437 8.06 0 9.94 0.41 17.26 0.41 3.37 0 6.82-1.562 6.82-8.214 0-0.823-0.08-1.728-0.25-2.55-4.93-0.408-13.72-0.902-24.57-0.902-16.35 0-22.6 7.066-22.6 16.101 0 8.461 5.34 13.152 14.79 15.367l16.27 3.779c3.78 0.901 5.83 2.547 5.83 4.929 0 3.206-2.87 4.438-9.69 4.438-8.05 0-11.75-0.574-19.06-0.574-3.37 0-6.82 1.557-6.82 8.214 0 0.821 0.08 1.724 0.24 2.547 4.93 0.49 15.53 1.068 26.37 1.068 16.36 0 22.84-6.974 22.84-16.571z"/>
  <path d="m352.64 39.23v-13.719h12.9c5.5 0 9.86 0.818 9.86 6.573 0 4.844-3.29 7.146-9.86 7.146h-12.88zm-0.06 10.844h6.82l13.16 15.694c2.46 3.039 4.85 4.602 10.43 4.602 3.78 0 6.33-0.492 8.37-1.481l-17.1-19.798c9.62-2.053 14.46-8.301 14.46-17.503 0-11.337-6.9-16.929-20.86-16.929l-19.97-0.081c-6.48 0.246-8.63 2.463-8.63 8.381v46.503c0.99 0.164 2.15 0.243 3.29 0.243 8.22 0 10.11-2.379 10.11-6.653v-12.967z"/>
  <path d="m237.72 40.705v-15.12h13.4c6.65 0 9.94 2.465 9.94 7.313 0 5.179-3.28 7.807-9.94 7.807h-13.41zm-13.39 28.754c0.99 0.164 2.14 0.242 3.29 0.242 8.22 0 10.11-2.378 10.11-6.653v-11.244h13.96c15.2 0 22.76-6.573 22.76-18.898 0-11.911-7.56-18.243-21.85-18.243h-19.64c-6.57 0-8.63 2.547-8.63 8.381v46.429z"/>
  <path d="m318.88 41.366c0 6.332-1.07 10.763-3.2 13.392-2.06 2.71-5.43 3.944-10.03 3.944-4.68-0.084-8.05-1.397-10.19-3.944-2.13-2.547-3.2-6.98-3.2-13.392 0-6.326 1.15-10.764 3.29-13.313 2.13-2.629 5.5-3.86 10.1-3.86s7.89 1.231 10.02 3.86c2.16 2.549 3.21 6.987 3.21 13.313zm-13.21 28.278c8.63 0 15.29-2.053 19.97-6.246 4.68-4.111 7.07-11.504 7.07-22.02-0.09-10.35-2.47-17.583-7.31-21.854-4.86-4.191-11.42-6.325-19.73-6.325-8.29 0-14.87 2.133-19.72 6.325-4.84 4.274-7.23 11.504-7.31 21.854 0 10.516 2.38 17.91 7.07 22.02 4.63 4.135 11.29 6.233 19.93 6.233z"/>
  <path d="m424.04 25.918h10.77c3.53 0 7.14-1.644 7.14-8.634 0-0.818-0.08-1.806-0.24-2.627h-41.82c-3.53 0-7.15 1.645-7.15 8.628 0 0.825 0.08 1.807 0.25 2.633h17.66v43.547c0.99 0.164 2.14 0.242 3.29 0.242 8.21 0 10.1-2.378 10.1-6.653v-37.122z"/>
  <path d="m494.46 53.69c0-8.955-5.84-13.312-15.12-15.367l-16.27-3.694c-2.96-0.658-5.42-1.564-5.42-4.52 0-3.205 2.54-4.437 9.36-4.437 8.05 0 9.95 0.41 17.26 0.41 3.37 0 6.82-1.562 6.82-8.214 0-0.823-0.08-1.728-0.25-2.55-4.93-0.408-13.72-0.902-24.57-0.902-16.34 0-22.59 7.066-22.59 16.101 0 8.461 5.34 13.152 14.79 15.367l16.27 3.779c3.78 0.901 5.84 2.547 5.84 4.929 0 3.206-2.88 4.438-9.7 4.438-8.05 0-11.75-0.574-19.07-0.574-3.37 0-6.82 1.557-6.82 8.214 0 0.821 0.08 1.724 0.25 2.547 4.93 0.49 15.53 1.068 26.38 1.068 16.29 0 22.77-6.974 22.77-16.571z"/>
  <path d="m553.34 70.261c-3.95 0-7.53-0.501-10.76-1.502-3.23-0.997-6.12-2.297-8.7-3.896 0.06-3.086 0.68-5.457 1.85-7.109 1.17-1.659 2.72-2.486 4.67-2.486 0.85 0 1.72 0.143 2.61 0.426 0.88 0.287 1.83 0.603 2.83 0.945s2.07 0.655 3.21 0.941 2.4 0.427 3.77 0.427c2.86 0 5.03-0.684 6.51-2.056 1.49-1.368 2.23-3.111 2.23-5.226 0-1.827-0.73-3.398-2.19-4.713-1.45-1.314-3.44-1.972-5.95-1.972-1.94 0-3.58 0.258-4.93 0.769-1.34 0.519-2.58 1.203-3.72 2.059l-9.35-2.997 3-30.247h33.25c0.11 0.63 0.23 1.444 0.34 2.441 0.12 0.999 0.17 2.071 0.17 3.215 0 2.398-0.48 4.056-1.45 4.972-0.98 0.912-2.2 1.368-3.69 1.368h-17.65l-1.2 10.195c1.26-0.511 2.54-0.97 3.86-1.371 1.31-0.398 2.91-0.6 4.8-0.6 3.08 0 5.78 0.488 8.09 1.459 2.32 0.971 4.26 2.255 5.83 3.854 1.57 1.6 2.74 3.414 3.51 5.441 0.77 2.029 1.16 4.069 1.16 6.127 0 2.685-0.46 5.213-1.37 7.579-0.92 2.375-2.29 4.444-4.11 6.215-1.83 1.775-4.13 3.173-6.9 4.2-2.97 0.925-6.18 1.481-9.88 1.481"/>
 </g>
</svg>
