<?xml version="1.0" encoding="UTF-8" standalone="no"?>
<!-- Creator: CorelDRAW X5 -->
<svg xmlns:rdf="http://www.w3.org/1999/02/22-rdf-syntax-ns#" xmlns="http://www.w3.org/2000/svg" fill-rule="evenodd" xml:space="preserve" height="538" width="600" version="1.1" xmlns:cc="http://creativecommons.org/ns#" xmlns:dc="http://purl.org/dc/elements/1.1/" viewBox="0 0 6666.6674 5977.744"><metadata><rdf:RDF><cc:Work rdf:about=""><dc:format>image/svg+xml</dc:format><dc:type rdf:resource="http://purl.org/dc/dcmitype/StillImage"/><dc:title/></cc:Work></rdf:RDF></metadata><defs><style type="text/css">
    .fil0 {fill:#101372}
    .fil1 {fill:white}
    .fil2 {fill:#101372;fill-rule:nonzero}
   </style></defs><rect class="fil0" width="5401.3" y="-9.3792E-13" x="-0.000047439" height="4875.2" fill="#101372"/><path fill="#FFF" class="fil1" d="m3467.7,530.68c243.99,30.499,672.5,329.39,674.02,666.4h1133v863.11c-350.74-327.86-2738.8-393.43-2633.6-1174.2,35.073-260.76,384.28-410.21,826.51-355.31zm-2458.2-422.41-902.76,0,0,3791,747.22,0,0-565.75,1945.8,0,0,565.75,1502.1,0c18.299-100.65,4.5748-190.62-36.598-269.91-28.974-56.423-83.871-111.32-140.29-144.87-498.7-289.9-1579.9-524.7-2145.6-724.5-323.3-114.3-648.1-286.7-886-532.2-244.01-250.1-359.91-626.7-375.16-966.8-12.2-753.3,289.76-1154.4,289.76-1154.4z"/><polygon transform="matrix(1.5249347,0,0,1.5249347,-1.04573e-4,-1.5751953e-5)" points="561,2186,1837,2186,1837,2557,561,2557" class="fil0" fill="#101372"/><path fill="#101372" class="fil0" d="m1009.5,106.75,4265.2,0,0,1088.8-1133,0c0-337.01-428.51-635.9-674.02-666.4-442.23-54.898-791.44,94.546-826.51,355.31-105.22,782.29,2282.8,847.86,2633.6,1174.2v1839.1h-971.38c18.299-100.65,4.5748-190.62-36.598-269.91-28.974-56.423-83.872-111.32-140.29-144.87-498.7-289.8-1579.9-524.6-2145.6-724.4-323.3-114.4-648.1-286.7-886-532.2-243.99-250.1-359.88-626.7-375.13-966.8-12.2-753.32,289.73-1154.4,289.73-1154.4z"/><path d="m131.14,5355.6,0-48.798,19.824,0c13.724,0,22.874-1.5249,25.924-6.0997,4.5748-3.0499,6.0997-12.199,6.0997-27.449v-213.49c0-15.249-1.525-24.399-6.0997-27.449-4.5748-3.0498-12.199-6.0997-25.924-6.0997h-19.824v-48.798h352.26v143.34h-47.273c-3.0499-21.349-6.0997-38.123-10.675-50.323-4.5748-10.674-9.1496-19.824-15.249-25.924-6.0997-6.0998-15.249-10.674-25.924-13.724-10.675-3.0498-28.974-4.5748-56.423-4.5748h-45.748v106.75h9.1496c19.824,0,33.549-4.5747,39.648-12.199,6.0998-7.6247,10.675-24.399,10.675-47.273h44.223v172.32h-44.223c0-25.924-4.5748-42.698-9.1496-50.323-6.0997-7.6247-19.824-12.2-39.648-12.2h-9.1496v121.99h47.273c39.648,0,65.572-7.6247,79.297-21.349,13.724-13.724,22.874-42.698,25.924-85.396h47.273v155.54h-352.26zm449.86-295.84c0-13.724-1.5249-22.874-6.0997-27.449-4.5748-3.0498-13.724-6.0997-27.449-6.0997h-18.299v-48.798h170.79l137.24,262.29v-181.47c0-13.724-1.5247-22.874-6.0997-27.449-4.5747-3.0498-13.724-6.0997-27.449-6.0997h-19.824v-48.798h163.17v48.798h-16.774c-13.724,0-22.874,1.5249-27.449,6.0997-4.5748,3.0499-6.0998,12.2-6.0998,27.449v295.84h-109.8l-146.39-280.59v198.24c0,13.724,1.5249,22.874,6.0997,27.449,4.5748,3.0499,13.724,6.0998,27.449,6.0998h19.824v48.798h-164.69v-48.798h18.299c13.724,0,22.874-1.525,27.449-6.0998,4.5748-3.0498,6.0997-12.199,6.0997-27.449v-213.49zm731.97-82.346,0,144.87-48.798,0c0-32.024-6.0998-56.423-16.774-71.672-12.2-15.249-28.974-22.874-53.373-22.874h-6.0998v239.41c0,13.724,0,21.349,1.5249,25.924,1.5249,4.5748,3.0499,6.0997,6.0998,7.6247,3.0498,1.5249,9.1496,3.0498,15.249,3.0498,6.0997,0,16.774,1.525,33.549,1.525v48.798h-211.97v-48.798c10.674,0,21.349,0,28.974-1.525,7.6246-1.5249,15.249-1.5249,19.824-4.5748,3.0498-1.5249,4.5748-3.0498,6.0997-7.6247,1.5249-4.5747,1.5249-12.199,1.5249-24.399v-7.6247-233.32h-4.5748c-24.399,0-42.698,7.6247-53.373,22.874-12.199,15.249-18.299,39.648-18.299,71.672h-47.273v-144.87h347.69zm21.349,376.66,0-48.798,19.824,0c13.724,0,22.874-1.525,25.924-6.0998,4.5748-3.0498,6.0997-12.199,6.0997-27.449v-213.49c0-15.249-1.5249-24.399-6.0997-27.449-4.5749-3.0498-12.2-6.0997-25.924-6.0997h-19.824v-48.798h352.26v143.34h-47.273c-3.0499-21.349-6.0998-38.123-10.675-50.323-4.5747-10.675-9.1496-19.824-15.249-25.924-6.0997-6.0999-15.249-10.675-25.924-13.724-10.674-3.0499-28.974-4.5748-56.422-4.5748h-45.748v106.75h9.1495c19.824,0,33.549-4.5748,39.648-12.199,6.0997-7.6247,10.674-24.399,10.674-47.273h44.223v172.32h-44.223c0-25.924-4.5748-42.698-9.1496-50.323-6.0997-7.6247-19.824-12.2-39.648-12.2h-9.1496v121.99h47.273c39.648,0,65.572-7.6246,79.296-21.349s22.874-42.698,25.924-85.396h47.273v155.54h-352.26zm550.5-221.12,38.123,0c27.449,0,45.748-3.0499,54.898-10.674,9.1496-7.6247,15.249-21.349,15.249-39.648,0-19.824-4.5747-35.074-15.249-42.698-9.1496-7.6247-27.449-12.199-50.323-12.199h-41.173v106.75zm0,138.77c0,13.724,1.5249,22.874,6.0997,27.449,4.5749,3.0499,12.2,6.0998,27.449,6.0998h18.299v48.798h-204.34v-48.798h19.824c13.724,0,22.874-1.525,25.924-6.0998,4.5747-3.0498,6.0997-12.199,6.0997-27.449v-213.49c0-15.249-1.525-24.399-6.0997-27.449-4.5749-3.0498-12.2-6.0997-25.924-6.0997h-19.824v-48.798h234.84c44.223,0,76.247,7.6247,97.596,22.874s32.024,39.648,32.024,70.147c0,22.874-7.6247,41.173-21.349,54.898-13.724,15.249-35.073,24.399-60.997,30.499,22.874,4.5747,39.648,12.199,48.798,24.399,9.1495,12.199,15.249,28.974,15.249,51.848v36.598c0,15.249,1.525,25.924,3.05,32.024,1.5249,6.0998,6.0997,7.6247,12.199,7.6247,6.0998,0,12.2-4.5748,13.724-12.199,3.0498-7.6247,4.5747-24.399,4.5747-47.273h35.074v7.6247,7.6246c0,35.074-6.0997,59.472-19.824,76.247-13.724,16.774-35.073,24.399-62.522,24.399-30.499,0-51.848-7.6247-65.572-22.874s-21.349-39.648-21.349-73.197v-36.598c0-21.349-3.0499-35.073-9.1496-41.173-6.0997-6.0997-19.824-9.1496-39.648-9.1496h-44.223v89.971zm623.7-295.84,0,144.87-48.798,0c0-32.024-6.0997-56.423-16.774-71.672-12.2-15.249-28.974-22.874-53.373-22.874h-6.0998v239.41c0,13.724,0,21.349,1.525,25.924,1.5249,4.5749,3.0498,6.0998,6.0997,7.6247,3.0499,1.525,9.1496,3.0499,15.249,3.0499,6.0998,0,16.774,1.5249,33.549,1.5249v48.798h-211.97v-48.798c10.675,0,21.349,0,28.974-1.5249,7.6247-1.5249,15.249-1.5249,19.824-4.5748,3.0498-1.5249,4.5748-3.0498,6.0998-7.6247,1.5248-4.5748,1.5248-12.2,1.5248-24.399v-7.6246-233.32h-4.5748c-24.399,0-42.698,7.6246-53.373,22.874-12.2,15.249-18.299,39.648-18.299,71.672h-47.273v-144.87h347.69zm218.07,207.39-36.598-118.94-36.598,118.94,73.197,0zm-213.49,170.79,0-48.798,12.199,0c12.2,0,19.824-1.525,25.924-6.0998,6.0997-4.5747,10.675-13.724,15.249-30.499l91.496-291.26h106.75l88.446,292.79c4.5748,13.724,9.1496,22.874,13.724,27.449,4.5747,4.5748,12.199,6.0997,22.874,6.0997h18.299v48.798h-196.72v-48.798h15.249c12.2,0,21.349-1.5249,25.924-3.0498,4.5748-1.525,6.0998-6.0997,6.0998-10.675,0-1.5248,0-4.5748-1.525-7.6247,0-1.5248-1.5249-3.0498-1.5249-4.5748l-13.724-45.748h-102.17l-13.724,42.698c0,3.0498-1.5249,4.5748-1.5249,7.6246,0,3.0499-1.5249,4.5749-1.5249,7.6247,0,4.5749,1.5249,9.1496,6.0997,10.675,3.0499,1.5249,12.2,3.0498,22.874,3.0498h16.774v48.798h-157.07zm399.53,0,0-48.798,21.349,0c13.724,0,22.874-1.525,25.924-6.0998,4.5748-3.0498,6.0997-12.199,6.0997-27.449v-213.49c0-15.249-1.5249-24.399-6.0997-27.449-4.5749-3.0498-12.2-6.0997-25.924-6.0997h-21.349v-48.798h210.44v48.798h-21.349c-13.724,0-22.874,1.5249-27.449,6.0997-4.5747,3.0499-6.0997,12.2-6.0997,27.449v213.49c0,13.724,1.525,22.874,6.0997,27.449,4.5749,3.0499,13.724,6.0998,27.449,6.0998h21.349v48.798h-210.44zm283.64-295.84c0-13.724-1.525-22.874-6.0998-27.449-4.5748-3.0498-13.724-6.0997-27.449-6.0997h-18.299v-48.798h170.79l137.24,262.29v-181.47c0-13.724-1.5248-22.874-6.0997-27.449-4.5747-3.0499-13.724-6.0997-27.449-6.0997h-19.824v-48.798h163.17v48.798h-16.774c-13.724,0-22.874,1.5249-27.449,6.0997-4.575,3.0498-6.0999,12.2-6.0999,27.449v295.84h-109.8l-146.39-280.59v198.24c0,13.724,1.5249,22.874,6.0997,27.449,4.5748,3.0499,13.724,6.0997,27.449,6.0997h19.824v48.798h-164.69v-48.798h18.299c13.724,0,22.874-1.5249,27.449-6.0997,4.5748-3.0498,6.0998-12.2,6.0998-27.449v-213.49zm492.55,213.49c0,13.724,1.5249,22.874,6.0998,27.449,4.5747,3.0499,12.199,6.0998,27.449,6.0998h10.675v48.798h-152.49v-48.798h16.774c13.724,0,22.874-1.525,27.449-6.0998,4.5748-3.0498,6.0998-12.199,6.0998-27.449v-213.49c0-13.724-1.525-22.874-6.0998-27.449-4.5748-3.0498-12.2-6.0997-27.449-6.0997h-16.774v-48.798h187.57l62.522,231.79,65.572-231.79h186.04v48.798h-18.299c-13.724,0-22.874,1.5249-27.449,6.0997-4.5748,3.0499-6.0998,12.2-6.0998,27.449v213.49c0,13.724,1.525,22.874,6.0998,27.449,4.5749,3.0499,13.724,6.0998,27.449,6.0998h18.299v48.798h-187.57v-48.798h10.674c13.724,0,22.874-1.525,25.924-6.0998,4.5748-3.0498,6.0997-12.199,6.0997-27.449v-234.84l-88.446,317.19h-71.672l-86.921-318.71v236.36zm411.73,82.346,0-48.798,19.824,0c13.724,0,22.874-1.525,25.924-6.0998,4.5748-3.0498,6.0997-12.199,6.0997-27.449v-213.49c0-15.249-1.5249-24.399-6.0997-27.449-4.5747-3.0498-12.199-6.0997-25.924-6.0997h-19.824v-48.798h352.26v143.34h-47.273c-3.0499-21.349-6.0997-38.123-10.674-50.323-4.5749-10.675-9.1496-19.824-15.249-25.924-6.0998-6.0999-15.25-10.675-25.924-13.724-10.675-3.0499-28.974-4.5748-56.423-4.5748h-45.748v106.75h9.1497c19.824,0,33.549-4.5748,39.648-12.199,6.0997-7.6247,10.674-24.399,10.674-47.273h44.223v172.32h-44.223c0-25.924-4.5748-42.698-9.1496-50.323-6.0998-7.6247-19.824-12.2-39.648-12.2h-9.1495v121.99h47.273c39.648,0,65.572-7.6246,79.297-21.349,13.724-13.724,22.874-42.698,25.924-85.396h47.273v155.54h-352.26zm449.86-295.84c0-13.724-1.5249-22.874-6.0997-27.449-4.5747-3.0498-13.724-6.0997-27.449-6.0997h-18.299v-48.798h170.79l137.24,262.29v-181.47c0-13.724-1.5249-22.874-6.0997-27.449-4.5748-3.0499-13.724-6.0997-27.449-6.0997h-19.824v-48.798h163.17v48.798h-16.774c-13.724,0-22.874,1.5249-27.449,6.0997-4.5748,3.0498-6.0998,12.2-6.0998,27.449v295.84h-109.8l-146.39-280.59v198.24c0,13.724,1.525,22.874,6.0998,27.449,4.5748,3.0499,13.724,6.0997,27.449,6.0997h19.824v48.798h-164.69v-48.798h18.299c13.724,0,22.874-1.5249,27.449-6.0997,4.5748-3.0498,6.0997-12.2,6.0997-27.449v-213.49zm731.97-82.346,0,144.87-48.798,0c0-32.024-6.0997-56.423-16.774-71.672-12.199-15.249-28.974-22.874-53.373-22.874h-6.0998v239.41c0,13.724,0,21.349,1.5248,25.924,1.525,4.5749,3.05,6.0998,6.0999,7.6247,3.0498,1.525,9.1495,3.0499,15.249,3.0499,6.0997,0,16.774,1.5249,33.549,1.5249v48.798h-211.97v-48.798c10.675,0,21.349,0,28.974-1.5249,7.6247-1.5249,15.249-1.5249,19.824-4.5748,3.0499-1.5249,4.5749-3.0498,6.0998-7.6247,1.5249-4.5748,1.5249-12.2,1.5249-24.399v-7.6246-233.32h-4.5748c-24.399,0-42.698,7.6246-53.373,22.874-12.199,15.249-18.299,39.648-18.299,71.672h-47.273v-144.87h347.69z" fill-rule="nonzero" class="fil2" fill="#101372"/><path d="m609.97,5466.9,0,190.62-70.147,0c0-42.698-7.6247-73.197-24.399-94.546-16.774-19.824-42.698-30.499-77.772-30.499h-7.6247v314.14c0,16.774,1.525,28.974,3.0499,33.548,1.5249,6.0998,4.5748,9.1495,9.1496,10.674,4.5748,1.525,12.199,4.5748,21.349,4.5748,9.1497,1.525,24.399,1.525,47.273,1.525v64.047h-306.51v-64.047c16.774,0,30.499,0,41.173-1.525,12.199-1.5249,21.349-3.0498,28.974-4.5748,4.5749-1.525,7.6247-4.5747,9.1496-10.674,1.525-6.0998,3.0499-16.774,3.0499-33.548v-9.1496-304.99h-7.6247c-35.074,0-60.997,10.674-77.772,30.499-16.774,19.824-25.924,51.848-25.924,94.546h-68.622v-190.62h503.23zm3.0499,494.08,0-64.047,28.974,0c19.824,0,33.549-3.0499,38.123-7.6248,6.0998-4.5747,9.1497-16.774,9.1497-35.073v-279.06c0-19.824-3.0499-30.499-9.1497-36.598-6.0997-4.5747-18.299-7.6247-38.123-7.6247h-28.974v-64.047h510.85v189.09h-67.097c-4.5748-28.974-9.1496-50.323-15.249-65.572-6.0998-15.249-13.724-25.924-22.874-35.074-9.1497-9.1495-21.349-15.249-36.599-18.299-15.249-3.0497-42.698-6.0997-80.822-6.0997h-67.097v140.29h12.199c28.974,0,47.273-4.5747,57.948-15.249,9.1496-10.674,15.249-30.499,15.249-62.522h64.047v225.69h-64.047c-1.5249-33.549-6.0998-56.423-13.724-67.097-9.1497-10.675-27.449-15.249-57.948-15.249h-12.199v160.12h68.622c56.423,0,94.546-9.1496,115.9-27.449,19.824-18.299,32.024-56.423,38.123-111.32h67.097v204.34h-510.85zm576.43-494.08,300.41,0,0,64.047-32.024,0c-19.824,0-33.549,3.05-39.648,7.6247-6.0997,4.5747-9.1496,16.774-9.1496,35.074v321.76h41.173c39.648,0,65.572-1.5249,80.822-6.0998,15.249-3.0497,27.449-9.1495,36.598-18.299,10.674-9.1496,19.824-22.874,24.399-41.173,6.0997-16.774,10.674-41.173,12.199-73.197h67.097v202.82h-484.93v-64.047h28.974c19.824,0,33.548-3.0498,38.123-7.6246,6.0997-4.5749,9.1496-16.774,9.1496-35.074v-279.06c0-19.824-3.0499-30.499-9.1496-36.598-6.0997-4.5747-18.299-7.6246-38.123-7.6246h-28.974v-64.047zm533.73,494.08,0-64.047,28.974,0c19.824,0,33.548-3.0499,38.123-7.6248,6.0998-4.5747,9.1496-16.774,9.1496-35.073v-279.06c0-19.824-3.0498-30.499-9.1496-36.598-6.0997-4.5747-18.299-7.6247-38.123-7.6247h-28.974v-64.047h510.85v189.09h-67.097c-4.5748-28.974-9.1496-50.323-15.249-65.572-6.0997-15.249-13.724-25.924-22.874-35.074-9.1496-9.1495-21.349-15.249-36.598-18.299-15.249-3.0497-42.698-6.0997-80.822-6.0997h-67.097v140.29h12.2c28.974,0,47.273-4.5747,57.948-15.249,9.1496-10.674,15.249-30.499,15.249-62.522h64.047v225.69h-64.047c-1.525-33.549-6.0997-56.423-13.724-67.097-9.1496-10.675-27.449-15.249-57.948-15.249h-12.199v160.12h68.622c56.422,0,94.546-9.1496,115.9-27.449,19.824-18.299,32.024-56.423,38.123-111.32h67.097v204.34h-510.85zm910.39,0-144.87,0-131.14-373.61c-9.1496-24.399-18.299-41.173-28.974-47.273-10.675-7.6247-27.449-10.675-50.323-12.2v-62.522h289.74v62.522h-12.199-16.774c-16.774,0-27.449,1.525-33.549,4.5749-6.0998,3.0498-9.1496,9.1496-9.1496,18.299,0,3.0499,1.5249,7.6247,1.5249,13.724,1.5249,6.0997,4.5749,15.249,9.1496,28.974l82.346,240.94,88.446-253.14c4.5748-10.675,6.0997-19.824,7.6247-22.874,1.525-4.5748,1.525-7.6247,1.525-9.1497,0-7.6246-3.05-12.2-10.675-15.249-7.6246-3.05-18.299-4.5749-33.548-4.5749h-13.724-9.1496v-62.522h224.17v62.522c-24.399,0-41.173,4.5749-53.373,15.249-12.2,9.1497-21.349,28.974-30.499,57.948l-54.8,167.8zm222.64,0,0-64.047,32.024,0c19.824,0,33.548-3.0499,38.124-7.6248,6.0997-4.5747,9.1495-16.774,9.1495-35.073v-279.06c0-19.824-3.0498-30.499-9.1495-36.598-6.0998-4.5747-18.299-7.6247-38.124-7.6247h-32.024v-64.047h304.99v64.047h-32.024c-19.824,0-33.548,3.05-39.648,7.6247-6.0997,4.5747-9.1496,16.774-9.1496,35.074v279.06c0,18.299,3.0499,30.499,9.1496,35.074,6.0998,4.5748,18.299,7.6246,39.648,7.6246h32.024v64.047h-304.99zm416.31,6.0997-62.522,0,0-195.19,68.622,0c6.0997,39.648,24.399,71.672,53.373,94.546s65.572,35.073,106.75,35.073c28.974,0,51.848-4.5747,68.622-15.249,16.774-10.675,24.399-24.399,24.399-42.698,0-28.974-30.499-50.323-93.021-64.047-10.675-1.5249-18.299-3.0499-22.874-4.5748-53.373-12.2-91.496-22.874-111.32-30.499-21.349-7.6246-38.124-16.774-51.848-27.449-16.774-13.724-30.499-28.974-39.648-45.748-9.1496-18.299-13.724-38.123-13.724-59.472,0-50.323,18.299-88.446,54.898-115.9,36.598-27.449,88.446-41.173,155.54-41.173,33.549,0,62.522,3.0499,88.446,10.675,25.924,7.6246,47.273,16.774,67.097,30.499l15.249-35.074h64.047v181.47h-70.147c-4.5749-36.598-19.824-65.572-47.273-85.396-27.449-21.349-62.522-30.499-105.22-30.499-25.924,0-45.748,4.5748-60.997,15.249s-22.874,24.399-22.874,41.173c0,25.924,33.549,44.223,102.17,57.948,25.924,4.5747,45.748,9.1495,60.997,13.724,59.472,13.724,102.17,33.548,129.62,59.472,27.449,25.924,41.173,59.472,41.173,102.17,0,48.798-19.824,88.446-57.948,117.42-38.123,28.974-89.971,44.223-157.07,44.223-32.024,0-62.522-4.5748-93.021-12.2-30.499-7.6246-54.898-18.299-74.722-32.024l-21.349,36.599zm437.66-6.0997,0-64.047,32.024,0c19.824,0,33.549-3.0499,38.123-7.6248,6.0997-4.5747,9.1496-16.774,9.1496-35.073v-279.06c0-19.824-3.0499-30.499-9.1496-36.598-6.0998-4.5747-18.299-7.6247-38.123-7.6247h-32.024v-64.047h304.99v64.047h-32.024c-19.824,0-33.549,3.05-39.648,7.6247-6.0997,4.5747-9.1495,16.774-9.1495,35.074v279.06c0,18.299,3.0498,30.499,9.1495,35.074,6.0998,4.5748,18.299,7.6246,39.648,7.6246h32.024v64.047h-304.99zm515.43-247.04c0,67.097,9.1497,117.42,28.974,147.92,19.824,30.499,50.323,45.748,93.021,45.748s73.197-15.249,93.021-45.748,28.974-80.822,28.974-147.92c0-67.097-9.1496-117.42-28.974-147.92-19.824-30.499-50.323-45.748-93.021-45.748s-73.197,15.249-93.021,45.748-28.974,80.822-28.974,147.92zm-167.74,0c0-82.346,25.924-146.39,77.772-192.14,51.848-47.273,121.99-70.147,213.49-70.147,89.971,0,161.64,22.874,211.97,70.147,51.848,47.273,77.772,111.32,77.772,192.14,0,82.346-25.924,146.39-77.772,192.14-51.848,45.748-121.99,70.147-211.97,70.147-89.971,0-161.64-22.874-213.49-70.147-51.848-47.273-77.772-111.32-77.772-192.14zm695.37-140.29c0-18.299-3.0498-30.499-9.1496-35.074-6.0997-4.5747-18.299-7.6247-39.648-7.6247h-27.449v-64.047h247.04l198.24,344.64v-237.89c0-18.299-3.0499-30.499-9.1496-35.074-6.0998-4.5747-18.299-7.6247-39.648-7.6247h-28.974v-64.047h236.36v64.047h-24.399c-19.824,0-33.549,3.05-39.648,7.6247-6.0997,4.5747-9.1496,16.774-9.1496,35.074v387.33h-158.59l-211.97-367.51v260.76c0,18.299,3.0499,30.499,9.1496,35.073,6.0999,4.5749,18.299,7.6248,39.648,7.6248h28.974v64.047h-239.41v-64.047h27.449c19.824,0,33.548-3.0499,39.648-7.6248,6.0997-4.5747,9.1496-16.774,9.1496-35.073v-279.06z" fill-rule="nonzero" class="fil2" fill="#101372"/><path fill="#FFF" class="fil1" d="m2603.1,4628.2,0,83.871,478.83,0,0-93.021-155.54,0,0-361.41,613.02,457.48,175.37,0,0-545.93s-1.5249-24.399,24.399-24.399h134.19v-99.121h-481.88v97.596h134.19l30.499,25.924v291.26l-536.78-411.73h-413.26v91.496h146.39v487.98l-147.92,3.0498z"/><polygon transform="matrix(1.5249347,0,0,1.5249347,-1.04573e-4,-1.5751953e-5)" points="3188,2719,3058,2848,2930,2736,2931,2718,2985,2719,2986,2651,2611,2653,2611,2718,2709,2718,2938,2929,2938,3031,2843,3031,2843,3090,3207,3090,3207,3029,3102,3029,3102,2934,3345,2719,3432,2719,3432,2650,3128,2650,3128,2719" class="fil1" fill="#FFF"/><path fill="#FFF" class="fil1" d="m1945.8,4004.5c337.01,0,609.97,170.79,609.97,381.23s-272.96,381.23-609.97,381.23-609.97-170.79-609.97-381.23,272.96-381.23,609.97-381.23zm4.5748,121.99c196.72,0,355.31,115.9,355.31,259.24s-158.59,259.24-355.31,259.24-355.31-115.9-355.31-259.24,158.59-259.24,355.31-259.24z"/><path fill="#FFF" class="fil1" d="m1163.5,4045.7-112.85,0,0,50.323s-33.549-32.024-155.54-57.948c-201.29-42.698-426.98-44.223-609.97,48.798-115.9,57.948-152.49,160.12-77.772,257.71,59.472,77.772,282.11,106.75,376.66,114.37,207.39,18.299,588.62,57.948,320.24,169.27-74.722,25.924-147.92,47.273-379.71,3.0498-99.121-32.024-166.22-36.598-219.59-163.17-48.798,3.0498-126.57,0-126.57,0v260.76l141.82,3.0498v-41.173h24.399s198.24,82.346,503.23,70.147c105.22-16.774,224.17-27.449,317.19-123.52,94.546-99.121,54.898-205.87-50.323-272.96-94.546-59.472-292.79-73.197-391.91-85.396-163.17-10.675-280.59-32.024-280.59-32.024s-83.871-36.598-13.724-89.971c51.848-38.123,173.84-39.648,234.84-36.598,65.572,4.5747,195.19,0,311.09,54.898,42.698,28.974,71.672,57.948,77.772,102.17h111.32l-1.5249-228.74z"/><path fill="#101372" class="fil0" d="m1950.4,4124.9c196.72,0,355.31,115.9,355.31,259.24s-158.59,259.24-355.31,259.24-355.31-115.9-355.31-259.24,158.59-259.24,355.31-259.24z"/><g fill="#101372" transform="matrix(1.5734782,0,0,1.5734782,-5375.0896,-3542.1409)"><g transform="matrix(58.714978,0,0,-58.714978,6979.8947,5406.4579)"><path fill-rule="nonzero" fill="#101372" d="m0,0,2.253,0,0,1.931,2.252,0,0-1.931,2.253,0,0-2.092-2.253,0,0-2.091-2.252,0,0,2.091h-2.253v2.092z"/></g><path fill-rule="nonzero" d="m7414.9,5262.4,82.168,0,0,491.27,155.89,0,0-637.7-238.06,0z"/></g></svg>
