<?xml version="1.0" encoding="UTF-8" standalone="no"?>
<svg xmlns:rdf="http://www.w3.org/1999/02/22-rdf-syntax-ns#" xmlns="http://www.w3.org/2000/svg" height="548.88" width="600" version="1.1" xmlns:cc="http://creativecommons.org/ns#" xmlns:dc="http://purl.org/dc/elements/1.1/" viewBox="0 0 158.75 145.22349">
 <g transform="translate(103.94 14.493)">
  <path d="m54.807 107.9-158.75 22.83v-145.22l158.75-0.003-0.003 122.39z" fill="#f9e808"/>
  <path d="m6.1313 70.326c-3.9985 3.986-9.4774 6.44-15.564 6.44-6.0733 0-11.565-2.454-15.551-6.44-3.985-3.999-6.44-9.478-6.44-15.551 0-6.086 2.455-11.578 6.44-15.564 3.986-3.986 9.478-6.441 15.552-6.441 6.0859 0 11.565 2.455 15.563 6.441 3.986 3.986 6.441 9.478 6.441 15.564 0 6.073-2.455 11.552-6.4407 15.551m-76.793-41.288v7.301l5.643-3.353-0.038 63.317 29.103-17.385c6.554 7.25 16.045 11.805 26.598 11.805 19.815 0 35.885-16.07 35.885-35.885s-16.07-35.872-35.886-35.872c-19.815 0-35.872 16.057-35.872 35.872 0 6.643 1.809 12.856 4.947 18.196l-12.855 7.68v-62.014l-17.525 10.338z"/>
 </g>
</svg>
