<?xml version="1.0" encoding="UTF-8" standalone="no"?>
<svg xmlns:rdf="http://www.w3.org/1999/02/22-rdf-syntax-ns#" xmlns="http://www.w3.org/2000/svg" height="952.89" width="600" version="1.1" xmlns:cc="http://creativecommons.org/ns#" xmlns:dc="http://purl.org/dc/elements/1.1/" viewBox="0 0 158.75 252.11995">
 <g transform="translate(135.49 114.04)" fill="#110e0c">
  <path d="m23.264 138.08h-158.75v-31.08h158.75l0.004 31.08z"/>
  <path d="m-10.664-22.74c22.073 5.789 32.834 21.521 32.834 44.147 0 43.574-39.729 61.782-77.8 61.782-44.97 0-81.36-22.892-78.6-72.277h43.863c-0.573 22.892 10.74 34.205 34.471 34.205 15.998 0 31.177-6.894 31.177-23.71 0-21.255-15.466-26.206-34.205-26.206-4.132 0-8.285 0.2659-12.417 0.5523v-32.548c4.132-0.286 8.285 0.553 12.417 0.266 13.789 0 31.157-3.58 31.157-20.13 0-12.417-12.418-19.312-27.577-19.312-19.045 0-30.072 9.922-29.786 27.311h-43.86c1.1-43.042 32.261-65.38 73.36-65.38 33.387 0 71.724 14.073 71.724 53.228 0 16.837-9.1036 34.492-26.758 37.519v0.553z"/>
 </g>
</svg>
