<?xml version="1.0" encoding="UTF-8" standalone="no"?>
<!-- Created with Inkscape (http://www.inkscape.org/) -->
<svg xmlns:rdf="http://www.w3.org/1999/02/22-rdf-syntax-ns#" xmlns="http://www.w3.org/2000/svg" height="356.34" width="599.85" version="1.1" xmlns:cc="http://creativecommons.org/ns#" xmlns:dc="http://purl.org/dc/elements/1.1/">
 <metadata>
  <rdf:RDF>
   <cc:Work rdf:about="">
    <dc:format>image/svg+xml</dc:format>
    <dc:type rdf:resource="http://purl.org/dc/dcmitype/StillImage"/>
    <dc:title/>
   </cc:Work>
  </rdf:RDF>
 </metadata>
 <path fill-rule="nonzero" fill="#000" d="m410.1,178.49c0,69.32-0.64664,177.84-205.06,177.84-204.39,0.01-205.04-108.52-205.04-177.84,0-69.97,0.64664-178.49,205.04-178.49,204.41,0,205.06,108.52,205.06,177.84v0.64664zm-399.42,0c0,68.341,0,167.48,194.36,167.48,194.38,0,194.38-99.139,194.38-167.48,0-69.006,0-168.13-194.38-168.13-194.36,0-194.36,99.121-194.36,167.48v0.64664zm271.15,1.9399,0-83.583,13.284,0c13.284,0,17.81,7.1315,17.81,20.415v37.579c0,14.891-4.5265,25.589-20.083,25.589h-11.011zm45.357,95.888c-0.9792-6.4849-1.9584-12.637-1.9584-29.154v-34.351c0-10.679-3.8798-23.316-16.517-26.882,10.697-3.8798,15.556-14.891,15.556-28.175v-42.769c0-14.891-7.1315-28.508-25.274-28.508h-28.833v189.84h11.658v-85.523h11.011c14.263,0,20.729,9.404,20.729,24.942v31.427c0,17.496,0.64664,22.355,1.9584,29.154h11.658zm-72.58-178.82v-10.679h-49.57v189.5h49.57v-10.679h-37.893v-81.311h27.528v-10.697h-27.528v-76.137h37.893zm-76.766-10.679-11.658,0,0,189.5,11.658,0,0-189.5zm-88.11,0-11.344,0,23.316,189.5,19.122,0,23.963-189.5-11.325,0-22.355,179.78"/>
 <path fill-rule="nonzero" fill="#231f20" d="m571.21,268.65-22.632,0,0-174.32,22.632,0c13.82,0,20.729,8.7943,20.729,23.242v128.15c0,15.704-7.8521,22.928-20.729,22.928m25.755-151.07c0-16.96-9.755-27.953-25.755-27.953h-27.639v183.74h27.639c16,0,25.755-10.365,25.755-27.639v-128.14zm-79.814-27.953-5.0253,0,0,91.398-45.542,0,0-91.398-5.0253,0,0,183.74,5.0253,0,0-87.315,45.542,0,0,87.315,5.0253,0"/>
 <path style="baseline-shift:baseline;block-progression:tb;color:#000000;direction:ltr;text-indent:0;text-align:start;enable-background:accumulate;text-transform:none;" fill="#000" d="M540.53,86.594v3.031,183.76,3.03h3.03,27.66c8.65,0,16.03-2.9,21.09-8.32,5.07-5.42,7.69-13.16,7.69-22.37v-128.16c0-9.06-2.62-16.84-7.66-22.372-5.04-5.529-12.43-8.594-21.12-8.594h-27.66-3.03zm11.09,10.781h19.6c6.26,0,10.39,1.873,13.22,5.155,2.83,3.28,4.47,8.29,4.47,15.03v128.16c0,7.34-1.83,12.22-4.72,15.28-2.9,3.06-7.1,4.62-12.97,4.62h-19.6v-168.24z"/>
 <path fill-rule="nonzero" style="baseline-shift:baseline;block-progression:tb;color:#000000;direction:ltr;text-indent:0;text-align:start;enable-background:accumulate;text-transform:none;" fill="#000" d="m458.5,86.594,0,3.0312,0,183.75,0,3.0312,3.0625,0,5.0312,0,3.0312,0,0-3.0312,0-84.281,39.469,0,0,84.281,0,3.0312,3.0312,0,5.0312,0,3.0312,0,0-3.0312,0-183.75,0-3.0312-3.0312,0-5.0312,0-3.0312,0,0,3.0312,0,88.344-39.469,0,0-88.344,0-3.0312-3.0312,0-5.0312,0-3.0625,0z"/>
</svg>
