<?xml version="1.0" encoding="UTF-8" standalone="no"?>
<!-- Created with Inkscape (http://www.inkscape.org/) -->
<svg xmlns:rdf="http://www.w3.org/1999/02/22-rdf-syntax-ns#" xmlns="http://www.w3.org/2000/svg" height="364.73" width="600" version="1.1" xmlns:cc="http://creativecommons.org/ns#" xmlns:dc="http://purl.org/dc/elements/1.1/">
 <metadata>
  <rdf:RDF>
   <cc:Work rdf:about="">
    <dc:format>image/svg+xml</dc:format>
    <dc:type rdf:resource="http://purl.org/dc/dcmitype/StillImage"/>
    <dc:title/>
   </cc:Work>
  </rdf:RDF>
 </metadata>
 <path fill-rule="nonzero" fill="#00a29b" d="m600,272.59c0,50.882-41.238,92.139-92.157,92.139h-415.7c-50.884,0-92.14-41.3-92.14-92.18v-180.45c0-50.882,41.256-92.139,92.139-92.139h415.7c50.919,0,92.157,41.256,92.157,92.139"/>
 <path fill-rule="nonzero" fill="#FFF" d="m220.53,75.768c1.4411,0.0924,0.29561,1.3303,0.38799,1.9954l-0.20323,0.20324,0.20323,0.18475,2.1986-2.7714c-0.29562,0.88684-1.1455,1.6074-0.84989,2.3834l0.66513-0.84988c0.18476,1.0531-1.2564,1.8106-0.48037,2.5866,0.25866,1.2379-1.6259,1.3303-0.6836,2.9746,0.49884-0.20323,0.40646-0.99769,1.0531-0.88684-0.46189,1.6259-2.1986,3.0855-1.7367,4.7113l0.51732-0.59122c-0.97921,2.1062-2.291,4.194-3.2517,6.0046l0.27714,0.22171,0.38799-0.38799c-0.33257,0.38799-0.33257,0.86836-0.66513,1.0346l0.16628,0.18476,1.3487-1.515c0.27714-0.29561-0.36951,0.96074-0.48037,1.3303l0.11086,0.18476,0.55427-0.4619c0.48037,0.57275-0.84988,1.4226-0.55427,2.1986l0.55427-0.48037,0.20323,0.11085c0.36952,0.0924-0.38799-0.11085-0.38799,0.18476,0.4619,1.0531,0.84989,0,1.5335-0.18476-0.18476,1.5335-1.8291,2.6605-1.7182,4.194l0.36951-0.38799,0.27714,0.20323c-0.55428,1.3302-2.1801,3.4365-1.8106,4.1201l-0.16628-0.22171c-0.6097,0.29561-0.66513,0.96074-0.40647,1.4411l-0.20323-0.36951c-0.0554,0.27713-0.64665,0.46189-0.46189,0.84988l0.40646,0.20323c-0.96073,0.86836-0.90531,2.5866-2.5127,2.7714l0.16628,0.46189c-0.62817,1.4226-1.9769,4.1201-3.2148,5.3764-0.36951,1.3118-1.7182,3.1409-2.4018,4.5635-4.7852,7.649-9.6444,16.37-13.949,23.63l0.18476,0.18476c-0.86836,1.164-1.4226,2.0138-2.1062,3.067l-0.18476,0.59123c-0.59123,0.55427-1.4226,2.2725-2.2171,3.2332,0.29561,1.1455-1.127,1.1455-0.84989,2.1986-0.48037,0.48037-1.2194,1.164-1.0346,1.7182l-1.0716,1.0531,0.20323,0.18476-0.27714,0.18475v0.48037c-0.49884,0.18476-0.49884,1.2564-1.0716,1.2564-0.86836,2.7529-3.0485,5.5427-4.6928,8.0185-1.7922,3.2702-3.7136,7.7598-6.2818,11.012,0.29561,0.84988-1.3672,1.6998-1.2564,2.5866-8.7944,14.226-16.148,29.321-24.961,43.196-1.0346,3.1594-3.5473,5.7275-4.7852,8.7945-2.7714,1.7182-3.455,5.5427-6.7991,6.7067-0.57275,1.0346-1.3118,0.0924-1.9769,0.84988-1.5335-0.84988-3.6212,0.38799-4.1201-1.7182,0.86836-0.29561,0.27714-1.164,0.49885-1.7182l-2.7898-3.4365c-0.66513,0.29561-0.0924,0.66513,0,1.0346-5.358-5.2656-7.3718-12.416-10.513-18.919-1.3303-5.1547-3.9353-9.5704-5.2471-14.448-0.20323-2.0139-1.6443-3.4365-2.4942-5.1547l-0.68361,0.25866c0.22171,0.31409,0.22171,0.6836,0.22171,1.0716-2.5127-4.0277-2.8083-9.552-4.5266-13.931-0.27713-2.9746-0.36951-4.7113-1.0346-7.5751v4.4896c-2.0139-22.374-2.9007-44.564,0.75751-66.734,0.27713-2.9376,2.9746-3.9169,4.97-5.7275,0.0924,0-0.38799,1.8106,0.86836,1.2564l-0.18475,0.18476,0.6836,0.6836c0.84988-0.77598,1.4965-2.5127,2.7344-2.5866,0.6836,0,0.77598,0.55427,1.2564,0.84988,0,2.0139-0.0924,2.9746-0.57275,4.9885l1.0531,0.46189c0.57275-0.57275-0.20323-1.9215,1.0346-2.2171l0.51732,0.6836c0.36952-0.20323,0-1.0531,0.64666-0.86836,0,1.5335,0.11085,2.679,0.55427,4.1386l0.51732-0.6836,0.16628,0.84988c0.48037-0.11085,0.66513-0.57275,0.66513-1.0531h0.38799c0.29561,12.711-1.4596,26.291-0.57275,40.647,1.0531,5.8199,1.2379,12.305,3.3441,17.866-0.48037,1.3302,0.88684,2.3834,0.64665,3.8245,1.1824,0.36951-0.18476,1.2564,0.49885,1.9215,1.4226,4.3972,2.7714,8.7021,4.1016,13.081l0.59123,0.49884c0,0.64666,0.44342,1.8106,0.66513,2.3834,1.7367,4.6744,3.8245,9.164,6.3926,13.469,8.9792-13.672,15.021-29.155,24.092-43.012,2.7898-5.9122,5.9307-11.4,8.7206-17.127,3.2333-4.7667,6.1155-10.032,8.9792-15.095,9.3672-16.739,20.268-33.94,32.222-48.85l0.11086,0.27714c1.4226-0.84989,2.3834-3.6397,4.194-2.5866l0.0924,0.20324c0.0739-0.29562,0.36952-0.42495,0.68361-0.83141l0.11085-0.0185c0,0.0739-0.72055,1.3302,0.0554,1.4226,0.0924-0.77598,0.84988-0.27714,1.0531-0.86836-0.0739-0.7575,0.73903-1.515,1.2564-2.291,0.29561-0.0924-0.68361,0.94226-0.18476,1.4411,1.0346-0.77599,1.6074-2.1062,2.3834-3.1594-0.18476,0.73903-0.31409,1.5335-0.86836,2.1062"/>
 <path fill-rule="nonzero" fill="#FFF" d="m265.64,117.73c-0.29561,0.48037-0.29561,1.1455-0.6836,1.552,0.6836,1.515,0.59122,2.679,0.97921,4.3048-0.59122,0.25866-0.29561,0.83141-0.29561,1.2379l0.86836,0.46189c-2.0878,7.1686-4.7852,15.113-7.0577,22.577-0.86836,4.0092-2.5866,7.261-3.6397,10.975-0.18476,0.40646-0.27714,0.88683-0.27714,1.2379,5.8199-0.83141,10.79-1.903,17.016-1.0531,2.5496-0.27713,5.8199-0.46189,8.0185,1.552-0.31409,1.1455,0.77598,2.3834-0.84989,2.5681-0.77598,0.84988-1.1824,1.0531-1.1824,2.3834l0.70208,0.40646c-1.6628,1.7182-3.6397,2.9561-5.8568,3.9169-2.3834,0.0924-3.2517,3.0485-5.7275,2.4758-5.9307,1.7367-12.12,4.1201-18.346,5.8383-0.66513,0.48037-0.86836,1.3487-0.86836,1.9215-4.8776,10.309-8.8684,20.933-12.231,31.926l0.18476,0.18475c-0.75751,0.388-0.66513,1.8106-0.86836,2.7714-1.4226,4.0092-2.1801,7.8337-2.7529,11.861-0.57275,1.5335-0.31409,4.0092-0.86836,5.5058l-1.2379,2.6051c-0.31408-0.44341,0.4619-1.515-0.31408-2.0878l-0.35104,1.0531c-0.86836-0.84988-2.3095-1.5704-2.2171-3.067l-0.66513,0.6836c0.57275-1.7182-1.3118-2.9931-0.36952-4.8961l-0.20323-0.11086c0.57275-0.36951,0.38799-1.2194,0.38799-1.6074l-0.64665-0.46189-0.40647,0.36951c0.20324-1.8291,0.20324-3.9169,0.66513-6.0231-0.46189-0.18476-0.46189-0.38799-0.86836-0.75751,0.48037-6.5035,1.7367-13.875,2.9746-20.102,0.59122-5.746,2.0138-11.455,3.418-17.016-1.7922,0.59122-3.806-1.2379-5.5242,0.12933-1.7367-0.6836-3.3441-0.6836-5.1547-0.6836-1.1455-0.38799-0.48037-1.1455-0.68361-2.0139,0.20324-2.291-0.66512-4.2864,1.3487-5.709,2.0878-0.6836,3.6212-2.1062,5.7275-3.067,1.7182-0.96074,4.2125-1.0716,5.4319-2.3834,1.164,0.35103,2.2171-0.72056,3.1778-0.77599,2.8637-6.5035,4.3048-13.598,7.5566-19.898-0.38799-0.94226,0.64665-1.2379,0.86836-1.9215,0.72055-2.3834,1.8291-4.6744,2.9376-6.8914,1.164-1.127,1.0716-3.1409,2.2356-4.4711l-0.20323-0.20324c0.66512-0.94226,1.552-2.0878,1.7182-3.418,0.66513-1.8291,2.1062-3.2702,2.5681-5.1917,1.1455-1.3302,1.9215-3.1409,2.9746-4.7852l0.27713,0.29561c1.0716-0.64665,2.0139-1.7182,2.7898-2.5866h0.55427v0.38799c0.68361-0.18476,2.291,0.48037,2.6605-0.46189,0.6836-0.36952,2.1247-0.96074,2.3095,0.46189"/>
 <path fill-rule="nonzero" fill="#FFF" d="m215.08,146.15c-0.48037,5.2656-2.679,9.7367-2.7714,15.113,0.0924,2.1801,1.515,3.067,0.66512,5.1547-1.0531,0.0554-2.1986-0.18476-2.7714,0.84988-2.4018,0.0924-4.6744-0.79445-5.8199-3.067-2.1062-3.2517-1.8291-7.1686-1.552-11.178,0.77598-4.7667,5.358-7.0577,9.2933-8.9977,1.4226-0.0739,2.3834,0.96074,2.9561,2.1247"/>
 <path fill-rule="nonzero" fill="#FFF" d="m362.88,167.19c0.29561,0.46189,0.48037-0.31409,0.86836-0.22171,0.92379,0.22171,2.3649,0,2.5866,1.3487,0.38799,7.8337-1.3487,13.968-1.903,21.506-0.51732,2.0139-0.99769,4.0277-1.2564,6.0231,3.1594,0,5.8199-2.1986,8.8129-3.067,4.97-2.7714,9.903-5.9307,14.393-9.4781,3.0854-4.4711,6.9099-8.6836,9.4965-13.45,0.4619,0.20323,0.73903-0.6836,1.2194-0.0924,0.48037-1.0531,1.6443-1.4411,2.5681-1.7367,3.5843,0.48037,3.1594,4.6928,3.9353,7.3534,1.4411,6.134-2.1062,11.104-4.2864,16.185-5.5427,14.984-11.289,29.82-17.681,44.453-3.5658,5.7275-5.7275,12.249-9.6443,17.866-5.2656,10.901-12.065,21.229-16.37,32.517-0.86836,1.6074-1.6443,3.2517-3.067,4.6744-1.9954-1.2379-2.3834-3.9169-3.806-5.5427-0.70208-1.6444-0.11085-4.5081-0.22171-6.4111,1.164-1.3118-0.0739-3.0485,1.0716-4.3972v-2.2725c1.0162-1.6443,1.3118-3.843,2.1986-5.6536-0.11086-1.3487,0.64665-2.7714,1.2379-4.0277,2.4018-6.7991,5.4504-13.284,8.5912-19.788-0.36952-0.77598,0.59122-0.66513,0.49884-1.3302,2.8638-6.0231,6.5035-11.769,9.1824-17.885,0-0.46189-0.0924-1.1455,0.48037-1.2379,1.7182-4.0277,3.6397-8.037,4.9515-12.249,0.94227-1.515,1.164-3.3441,2.291-4.7667l-0.19-0.22c-7.261,4.1386-13.949,9.5889-21.986,11.88-2.1062,0.86836-4.9515,1.4596-7.261,0.20323-2.2356-0.77598-2.679-3.1778-4.4896-4.3048-2.4942-3.6397-1.6443-7.7783-1.7552-12.527,1.6443-8.351,4.8037-15.871,8.8129-23.058,2.2171-3.3256,4.3972-6.1894,6.6882-9.4596,1.1455-2.5681,3.1594,0.7575,4.0277-0.83141"/>
 <path fill-rule="nonzero" fill="#FFF" d="m206.56,172.81,0.55427,0.20323c-0.16628,0.94227,0.40647,1.6074-0.55427,2.1801,1.3487,0.18476,0.73903,2.0139,1.4596,2.4018-3.9353,6.7806-5.4688,13.764-7.5381,21.21-1.3672,2.9561-1.7737,6.3187-2.5312,9.4781-0.83141,0.73903-0.25866,2.1801-1.3118,2.7898-1.2564,4.6744-1.94,9.3302-2.1062,14.042l-0.68361,0.38799c-0.36951,2.1801,1.2564,3.9908-0.86836,5.8199-2.4573,1.1455-4.5635,2.679-7.0762,3.2517-0.64665-0.57275-1.127,0.36951-1.7182,0.57274-0.92379-0.25866-1.8106-0.86836-2.8822-0.7575-0.44342-4.1386,0.12933-7.5566,0.20323-11.677-0.0739-1.9954,1.6443-4.3048,0.49885-6.4111,2.291-9.9215,4.1016-20.453,8.776-29.543,3.3626-4.2864,4.4157-10.901,10.328-12.231,1.3303-1.3487,3.067-2.3834,5.1732-2.3834"/>
 <path fill-rule="nonzero" fill="#FFF" d="M449.59,162.09c-6.18,0.23-12.18,2.88-16.71,7.29-9.74,7.55-14.66,18.44-19.63,28.4-0.57,3.25-2.64,6.09-2.56,9.44-1.26,5.74,0.17,13.03,4.09,17.9,3.16,5.14,9.42,4.78,14.28,4.69,1.74,0,4.13-0.53,6.56-1.43,7.56-3.26,14.16-8.13,20.85-13.19,0.07,1.99,0.59,3.8,0.69,5.81,1.05,5.65,1.58,11.64,5.31,15.97,1.16,2.18,3.64,3.54,5.65,4.69,3.16,0.48,5.85-1.75,7.79-4.32,2.75-4.21,6.25-8.22,6-13.37,0-0.59-0.4-0.99-0.97-0.78-4.12,3.16-7.16,10.19-11.13,10.06-1.14,0-1.11-1.67-1.69-2.31-0.64-5.56,1.17-11.28,1.54-17,1.42-7.08,4.82-13.62,6.25-20.47,0.38-1.76,1.33-2.88,1.21-4.69,0.78-1.62,0.7-3.27,1.44-4.87-0.29-1.08,1.04-2.13,0.5-3.16-1.46-0.76-2.3-2.01-3.15-3.16l-0.19-0.37v-0.6c-2.11-0.18-3.05-3.44-4.56-2.87-0.54-0.57-1.68,0.49-2.35,1.16-0.79-1.33-1.05-2.89-1.81-4.22-2.38-3.16-5.18-6.11-9-7.35-2.75-0.95-5.6-1.35-8.41-1.25zm4.97,12.79c0.41-0.01,0.84-0.01,1.25,0.03,2.61,0.51,6.83,1.9,7.57,5.28,0.99,4.67-0.6,10.86-3.54,14.59,0,0-1.79,2.57-2.5,3.22-2.19,1.96-11.76,10.67-19.5,13.53-3.58,1.85-7.94,3.42-10.81,3.44-1.46,0.02-2.54-0.47-3.59-1.41-1.35-2.21-0.5-4.46,0.31-6.34,2.42-6.12,6.51-12.03,11-16.72,4.9-5.93,9.87-10.97,16.37-14.91,1.04-0.47,2.21-0.7,3.44-0.71z"/>
 <path fill-rule="nonzero" fill="#FFF" d="M302,163.66c-6.19,0.23-12.23,2.84-16.75,7.25-9.76,7.53-14.7,18.54-19.59,28.37-1.37,3.86-2.34,6.22-2.6,9.47-1.24,5.73-0.05,12.48,3.85,17.37,4.39,5.42,14.89,5.68,21.12,3.85,7.83-2.94,14.12-8.24,20.72-13.28,0.2,2.01,0.69,3.83,0.78,5.84,1.05,5.64,1.65,11.69,5.25,16.06,1.24,2.13,4.17,4.09,5.5,4.22,1.98,1.07,5.97-1.37,7.97-3.93,2.68-4.22,5.84-7.75,6.06-13.38,0.04-0.48-0.6-1.27-1.25-1.06-3.78,3.64-8,9.45-11.22,9.94-1.03,0-0.83-1.26-1.31-1.82-0.68-5.58,1.13-11.4,1.53-17.12,1.31-7.1,4.68-13.57,6.19-20.44,1.02-3.94,2.63-9.28,2.63-9.28-0.39-1.33,1.3-2.11,0.43-3.44-1.33-0.77-2.28-2.03-3.06-3.06l0.22-0.19-0.59-0.59c-2.09-0.19-2.1-3.71-4.5-3.25-1.13-0.74-1.55,0.58-2.19,1.25-0.76-1.35-1.06-2.87-1.91-4.13-2.38-3.16-5.06-6.2-8.9-7.43-2.75-0.93-5.57-1.33-8.38-1.22zm6.09,12.75c2.96,0.85,6.67,1.83,7.53,5.34,1.08,4.6-0.57,10.82-3.93,14.94-0.06,0.87-0.75,2.21-1.69,2.56l-0.19,0.41c-6.48,5.24-11.02,10.22-18.75,14.46-4.08,2.11-7.02,3.6-11.65,3.07-1.46-0.15-2.73-1.09-3.82-2.03-1.07-1.54-0.34-4.35,0.57-6.44,2.36-6.02,6.41-12.03,11-16.63,4.86-6.02,9.82-11.07,16.34-15.03,1.44,0.21,3.34-0.38,4.59-0.65z"/>
</svg>
