<?xml version="1.0" encoding="UTF-8" standalone="no"?>
<!-- Created with Inkscape (http://www.inkscape.org/) -->

<svg
   xmlns:dc="http://purl.org/dc/elements/1.1/"
   xmlns:cc="http://creativecommons.org/ns#"
   xmlns:rdf="http://www.w3.org/1999/02/22-rdf-syntax-ns#"
   xmlns:svg="http://www.w3.org/2000/svg"
   xmlns="http://www.w3.org/2000/svg"
   version="1.1"
   width="600.40039"
   height="271.935"
   id="svg9180">
  <defs
     id="defs9182">
    <clipPath
       id="clipPath11063">
      <path
         d="m 499.278,171.603 37.136,0 0,16.806 -37.136,0 0,-16.806 z"
         id="path11065" />
    </clipPath>
  </defs>
  <metadata
     id="metadata9185">
    <rdf:RDF>
      <cc:Work
         rdf:about="">
        <dc:format>image/svg+xml</dc:format>
        <dc:type
           rdf:resource="http://purl.org/dc/dcmitype/StillImage" />
        <dc:title></dc:title>
      </cc:Work>
    </rdf:RDF>
  </metadata>
  <g
     transform="translate(-101.94284,-388.14768)"
     id="layer1">
    <g
       transform="matrix(16.157146,0,0,-16.157146,-7964.7686,3432.4994)"
       id="g11059">
      <g
         clip-path="url(#clipPath11063)"
         id="g11061">
        <g
           transform="translate(513.9591,185.4593)"
           id="g11067">
          <path
             d="m 0,0 -2.927,-4.772 c -0.087,-0.142 -0.14,-0.393 -0.118,-0.558 l 0.897,-6.815 c 0.022,-0.165 0.174,-0.282 0.34,-0.261 l 3.272,0.432 c 0.164,0.021 0.282,0.174 0.26,0.339 L 0.198,-0.042 C 0.176,0.123 0.087,0.142 0,0"
             id="path11069"
             style="fill:#d8175e;fill-opacity:1;fill-rule:nonzero;stroke:none" />
        </g>
        <g
           transform="translate(512.4099,185.4918)"
           id="g11071">
          <path
             d="M 0,0 -4.069,-0.536 C -4.234,-0.557 -4.44,-0.691 -4.527,-0.833 l -4.048,-6.601 c -0.087,-0.142 -0.176,-0.123 -0.197,0.041 l -0.768,5.832 c -0.022,0.165 -0.174,0.283 -0.339,0.26 l -2.99,-0.393 c -0.165,-0.022 -0.282,-0.174 -0.26,-0.34 l 1.526,-11.592 c 0.022,-0.166 0.174,-0.282 0.339,-0.26 l 2.99,0.393 c 0.165,0.022 0.371,0.155 0.458,0.297 L 0.142,-0.218 C 0.229,-0.077 0.165,0.022 0,0"
             id="path11073"
             style="fill:#d8175e;fill-opacity:1;fill-rule:nonzero;stroke:none" />
        </g>
        <g
           transform="translate(528.4669,187.6062)"
           id="g11075">
          <path
             d="m 0,0 -4.012,-0.528 c -0.164,-0.023 -0.37,-0.156 -0.457,-0.298 L -8.54,-7.461 c -0.087,-0.142 -0.176,-0.122 -0.198,0.041 l -0.771,5.863 c -0.022,0.165 -0.175,0.283 -0.34,0.26 l -2.989,-0.394 c -0.165,-0.021 -0.282,-0.174 -0.261,-0.339 l 1.527,-11.593 c 0.021,-0.165 0.174,-0.281 0.339,-0.26 l 2.959,0.39 c 0.165,0.021 0.371,0.154 0.458,0.297 L 0.142,-0.219 C 0.228,-0.077 0.165,0.022 0,0"
             id="path11077"
             style="fill:#d8175e;fill-opacity:1;fill-rule:nonzero;stroke:none" />
        </g>
        <g
           transform="translate(529.9081,180.4557)"
           id="g11079">
          <path
             d="M 0,0 1.766,2.881 C 1.853,3.022 1.942,3.003 1.963,2.838 L 2.298,0.303 0,0 z M 4.637,7.951 0.569,7.415 C 0.405,7.393 0.198,7.259 0.111,7.117 L -7.829,-5.857 C -7.916,-6 -7.852,-6.097 -7.688,-6.076 l 4.009,0.528 c 0.166,0.022 0.372,0.155 0.459,0.296 l 1.156,1.886 4.762,0.627 0.215,-1.636 c 0.022,-0.166 0.175,-0.283 0.34,-0.261 l 2.99,0.394 c 0.164,0.022 0.281,0.174 0.26,0.34 L 4.976,7.691 C 4.955,7.855 4.802,7.972 4.637,7.951"
             id="path11081"
             style="fill:#d8175e;fill-opacity:1;fill-rule:nonzero;stroke:none" />
        </g>
      </g>
    </g>
  </g>
</svg>
